<svg id="Layer_1" data-name="Layer 1" xmlns="http://www.w3.org/2000/svg" xmlns:xlink="http://www.w3.org/1999/xlink" viewBox="0 0 489.88 208.06"><defs><style>.cls-1,.cls-11,.cls-12,.cls-13,.cls-14,.cls-15,.cls-27,.cls-28,.cls-29,.cls-30,.cls-31,.cls-4,.cls-40,.cls-41,.cls-42,.cls-43,.cls-7,.cls-9{fill-rule:evenodd;}.cls-1{fill:url(#linear-gradient);}.cls-2{fill:url(#linear-gradient-2);}.cls-12,.cls-3{fill:#fff;}.cls-4{fill:url(#linear-gradient-3);}.cls-5{fill:url(#linear-gradient-4);}.cls-6{fill:url(#linear-gradient-5);}.cls-7{fill:url(#linear-gradient-6);}.cls-8{fill:url(#linear-gradient-7);}.cls-9{fill:url(#linear-gradient-8);}.cls-10{fill:url(#linear-gradient-9);}.cls-11{fill:#a1a7ff;}.cls-13{fill:#12348e;}.cls-14{fill:url(#linear-gradient-10);}.cls-15{fill:url(#linear-gradient-11);}.cls-16,.cls-32,.cls-34,.cls-49,.cls-50{fill:none;}.cls-16{stroke:#12348e;stroke-miterlimit:10;stroke-width:10px;}.cls-17{fill:url(#linear-gradient-12);}.cls-18{fill:url(#linear-gradient-13);}.cls-19{fill:url(#linear-gradient-14);}.cls-20{fill:url(#linear-gradient-15);}.cls-21{fill:url(#linear-gradient-16);}.cls-22{fill:url(#linear-gradient-17);}.cls-23{fill:url(#linear-gradient-18);}.cls-24{fill:url(#linear-gradient-19);}.cls-25{fill:url(#linear-gradient-20);}.cls-26{fill:url(#linear-gradient-21);}.cls-27{fill:url(#linear-gradient-22);}.cls-28{fill:url(#linear-gradient-23);}.cls-29{fill:url(#linear-gradient-24);}.cls-30{fill:url(#linear-gradient-25);}.cls-31{fill:#ffb91f;}.cls-32,.cls-34,.cls-49{stroke:#fff;}.cls-32,.cls-34{stroke-width:2px;}.cls-33{fill:#fa3e6a;}.cls-34,.cls-49{stroke-linecap:round;}.cls-35{fill:url(#linear-gradient-26);}.cls-36{fill:url(#linear-gradient-27);}.cls-37{fill:url(#linear-gradient-28);}.cls-38{fill:url(#linear-gradient-29);}.cls-39{fill:url(#linear-gradient-30);}.cls-40{fill:url(#linear-gradient-31);}.cls-41{fill:#faa;}.cls-42{fill:#fd9797;opacity:0.19;isolation:isolate;}.cls-43{fill:url(#linear-gradient-32);}.cls-44{fill:url(#linear-gradient-33);}.cls-45{fill:url(#linear-gradient-34);}.cls-46{fill:url(#linear-gradient-35);}.cls-47{fill:url(#linear-gradient-36);}.cls-48{fill:url(#linear-gradient-37);}.cls-49{stroke-linejoin:round;stroke-width:3.52px;}.cls-50{stroke:#292930;}</style><linearGradient id="linear-gradient" x1="104.3" y1="590.68" x2="104.12" y2="590.97" gradientTransform="matrix(127.02, 0, 0, -127.48, -13177.7, 75502.94)" gradientUnits="userSpaceOnUse"><stop offset="0" stop-color="#6681ff"/><stop offset="1" stop-color="#99a8ff"/></linearGradient><linearGradient id="linear-gradient-2" x1="103.79" y1="590.86" x2="104.48" y2="590.86" gradientTransform="matrix(127.02, 0, 0, -127.02, -13205.56, 75232.81)" gradientUnits="userSpaceOnUse"><stop offset="0" stop-color="#f2f4ff"/><stop offset="1" stop-color="#99a8ff"/></linearGradient><linearGradient id="linear-gradient-3" x1="102.25" y1="590.68" x2="102.08" y2="590.97" gradientTransform="matrix(127.02, 0, 0, -127.48, -12742.1, 75502.94)" xlink:href="#linear-gradient"/><linearGradient id="linear-gradient-4" x1="101.74" y1="590.86" x2="102.43" y2="590.86" gradientTransform="matrix(127.02, 0, 0, -127.02, -12769.96, 75232.81)" xlink:href="#linear-gradient-2"/><linearGradient id="linear-gradient-5" x1="97.91" y1="593.79" x2="98.6" y2="593.79" gradientTransform="matrix(66.53, 0, 0, -66.53, -6327.06, 39685.71)" xlink:href="#linear-gradient-2"/><linearGradient id="linear-gradient-6" x1="100.83" y1="590.68" x2="100.65" y2="590.97" gradientTransform="matrix(127.02, 0, 0, -127.48, -12438.5, 75502.94)" xlink:href="#linear-gradient"/><linearGradient id="linear-gradient-7" x1="100.32" y1="590.86" x2="101.01" y2="590.86" gradientTransform="matrix(127.02, 0, 0, -127.02, -12466.36, 75232.81)" xlink:href="#linear-gradient-2"/><linearGradient id="linear-gradient-8" x1="103.43" y1="590.68" x2="103.26" y2="590.97" gradientTransform="matrix(127.02, 0, 0, -127.48, -12992.9, 75502.94)" xlink:href="#linear-gradient"/><linearGradient id="linear-gradient-9" x1="102.92" y1="590.86" x2="103.61" y2="590.86" gradientTransform="matrix(127.02, 0, 0, -127.02, -13020.76, 75232.81)" xlink:href="#linear-gradient-2"/><linearGradient id="linear-gradient-10" x1="108.68" y1="588.4" x2="109.37" y2="588.4" gradientTransform="translate(28394.76 215393.78) rotate(180) scale(256.87 365.9)" xlink:href="#linear-gradient-2"/><linearGradient id="linear-gradient-11" x1="108.68" y1="588.63" x2="109.37" y2="588.63" gradientTransform="translate(28394.76 178037.94) rotate(180) scale(256.87 302.28)" xlink:href="#linear-gradient-2"/><linearGradient id="linear-gradient-12" x1="108.69" y1="589.52" x2="108.69" y2="589.11" gradientTransform="translate(26097.89 133765.65) rotate(180) scale(238.14 226.71)" gradientUnits="userSpaceOnUse"><stop offset="0" stop-color="#d48c59"/><stop offset="1" stop-color="#d09b72"/></linearGradient><linearGradient id="linear-gradient-13" x1="121.17" y1="612.31" x2="120.01" y2="612.45" gradientTransform="translate(4302.22 10964.99) rotate(180) scale(34.29 17.58)" gradientUnits="userSpaceOnUse"><stop offset="0" stop-color="#d18149"/><stop offset="1" stop-color="#e5bb9b"/></linearGradient><linearGradient id="linear-gradient-14" x1="159.01" y1="611.86" x2="158.67" y2="612.39" gradientTransform="translate(1709.45 10964.99) rotate(180) scale(9.53 17.58)" xlink:href="#linear-gradient-13"/><linearGradient id="linear-gradient-15" x1="112.56" y1="589.32" x2="112.49" y2="589.29" gradientTransform="translate(10750.82 133765.65) rotate(180) scale(93.35 226.71)" gradientUnits="userSpaceOnUse"><stop offset="0" stop-color="#d18149"/><stop offset="1" stop-color="#d09b72"/></linearGradient><linearGradient id="linear-gradient-16" x1="121.35" y1="590.81" x2="121.22" y2="591.22" gradientTransform="translate(4902.88 55332.99) rotate(180) scale(38.44 93.35)" xlink:href="#linear-gradient-13"/><linearGradient id="linear-gradient-17" x1="110.73" y1="590" x2="110.73" y2="589.59" gradientTransform="translate(18797.32 93734.99) rotate(180) scale(166.7 158.7)" xlink:href="#linear-gradient-12"/><linearGradient id="linear-gradient-18" x1="135.33" y1="618.5" x2="134.17" y2="618.64" gradientTransform="translate(3540.35 7774.53) rotate(180) scale(24 12.31)" xlink:href="#linear-gradient-13"/><linearGradient id="linear-gradient-19" x1="210.01" y1="618.04" x2="209.67" y2="618.58" gradientTransform="translate(1725.42 7774.53) rotate(180) scale(6.67 12.31)" xlink:href="#linear-gradient-13"/><linearGradient id="linear-gradient-20" x1="117.77" y1="589.8" x2="117.69" y2="589.77" gradientTransform="translate(8054.37 93734.99) rotate(180) scale(65.35 158.7)" xlink:href="#linear-gradient-15"/><linearGradient id="linear-gradient-21" x1="133.99" y1="591.97" x2="133.85" y2="592.39" gradientTransform="translate(3960.81 38832.13) rotate(180) scale(26.91 65.35)" xlink:href="#linear-gradient-13"/><linearGradient id="linear-gradient-22" x1="130.08" y1="617.85" x2="129.76" y2="617.85" gradientTransform="translate(5061.51 9266.85) rotate(180) scale(35.65 14.67)" gradientUnits="userSpaceOnUse"><stop offset="0" stop-color="#ffd4d4"/><stop offset="1" stop-color="#faa"/></linearGradient><linearGradient id="linear-gradient-23" x1="135.09" y1="617.85" x2="134.76" y2="617.85" gradientTransform="translate(4605.75 9266.85) rotate(180) scale(30.76 14.67)" xlink:href="#linear-gradient-22"/><linearGradient id="linear-gradient-24" x1="100.93" y1="591.83" x2="100.93" y2="591.43" gradientTransform="matrix(143.69, 0, 0, -63.45, -14100.3, 37615.95)" gradientUnits="userSpaceOnUse"><stop offset="0" stop-color="#fac3c3"/><stop offset="1" stop-color="#fd9191"/></linearGradient><linearGradient id="linear-gradient-25" x1="122.64" y1="591.98" x2="122.35" y2="592.63" gradientTransform="matrix(-49.84, 5.24, -7.39, -70.32, 10909.73, 41059.76)" gradientUnits="userSpaceOnUse"><stop offset="0" stop-color="#7f7eff"/><stop offset="1" stop-color="#8ee3ff"/></linearGradient><linearGradient id="linear-gradient-26" x1="114.72" y1="590.54" x2="114.72" y2="590.14" gradientTransform="translate(12040.09 56983.95) rotate(180) scale(101.25 96.39)" xlink:href="#linear-gradient-12"/><linearGradient id="linear-gradient-27" x1="163.03" y1="625.53" x2="161.87" y2="625.68" gradientTransform="translate(2773.22 4772.79) rotate(180) scale(14.58 7.47)" xlink:href="#linear-gradient-13"/><linearGradient id="linear-gradient-28" x1="309.71" y1="625.08" x2="309.37" y2="625.61" gradientTransform="translate(1670.86 4772.79) rotate(180) scale(4.05 7.47)" xlink:href="#linear-gradient-13"/><linearGradient id="linear-gradient-29" x1="127.94" y1="590.35" x2="127.87" y2="590.32" gradientTransform="translate(5514.97 56983.95) rotate(180) scale(39.69 96.39)" xlink:href="#linear-gradient-15"/><linearGradient id="linear-gradient-30" x1="158.7" y1="593.3" x2="158.56" y2="593.71" gradientTransform="translate(3028.61 23636.74) rotate(180) scale(16.34 39.69)" xlink:href="#linear-gradient-13"/><linearGradient id="linear-gradient-31" x1="114.14" y1="592.58" x2="114.14" y2="592.17" gradientTransform="translate(13389.29 32718.39) rotate(180) scale(113.37 55.1)" xlink:href="#linear-gradient-24"/><linearGradient id="linear-gradient-32" x1="127.97" y1="593.87" x2="127.97" y2="593.47" gradientTransform="matrix(-40.08, 0.7, -0.61, -34.72, 5934.89, 20557.79)" xlink:href="#linear-gradient-24"/><linearGradient id="linear-gradient-33" x1="114.6" y1="591.01" x2="114.6" y2="590.6" gradientTransform="translate(11990.59 39632.14) rotate(180) scale(101 67)" xlink:href="#linear-gradient-12"/><linearGradient id="linear-gradient-34" x1="160.55" y1="633.29" x2="159.39" y2="633.35" gradientTransform="translate(2794.94 3225.81) rotate(180) scale(15 5)" xlink:href="#linear-gradient-13"/><linearGradient id="linear-gradient-35" x1="309.22" y1="632.83" x2="308.48" y2="633.37" gradientTransform="translate(1642.98 3225.81) rotate(180) scale(4 5)" xlink:href="#linear-gradient-13"/><linearGradient id="linear-gradient-36" x1="127.49" y1="590.82" x2="127.33" y2="590.79" gradientTransform="translate(5524.84 39632.14) rotate(180) scale(40 67)" xlink:href="#linear-gradient-15"/><linearGradient id="linear-gradient-37" x1="159.09" y1="594.62" x2="158.81" y2="595.03" gradientTransform="translate(2968.93 16106.76) rotate(180) scale(16 27)" xlink:href="#linear-gradient-13"/></defs><title>Better Inventory Management </title><g id="Group"><g id="Group-Copy-2"><g id="Group-3"><path id="Oval-Copy-2" class="cls-1" d="M58.91,207.09a25.63,25.63,0,1,0,0-51.25H45.61Q33.3,171.22,33.29,181.47c0,8,2.62,18.52,8.41,23.22C46.11,208.26,52.8,207.09,58.91,207.09Z"/><circle id="Oval" class="cls-2" cx="47.67" cy="181.47" r="25.62"/><circle id="Oval-Copy" class="cls-3" cx="47.93" cy="181.72" r="13.42"/></g><g id="Group-3-Copy-2"><path class="cls-4" d="M234.65,207.09a25.63,25.63,0,1,0,0-51.25h-13.3Q209,171.22,209,181.47c0,8,2.62,18.52,8.41,23.22C221.85,208.26,228.54,207.09,234.65,207.09Z"/><circle class="cls-5" cx="223.41" cy="181.47" r="25.62"/><circle class="cls-6" cx="223.67" cy="181.72" r="13.42"/></g><g id="Group-3-Copy-3"><path class="cls-7" d="M357.14,207.09a25.63,25.63,0,0,0,0-51.25h-13.3q-12.33,15.38-12.32,25.63c0,8,2.62,18.52,8.41,23.22C344.33,208.26,351,207.09,357.14,207.09Z"/><circle class="cls-8" cx="345.9" cy="181.47" r="25.62"/></g><g id="Group-3-Copy"><path class="cls-9" d="M133.47,207.09a25.63,25.63,0,0,0,0-51.25h-13.3q-12.33,15.38-12.32,25.63c0,8,2.62,18.52,8.41,23.22C120.66,208.26,127.36,207.09,133.47,207.09Z"/><circle class="cls-10" cx="122.23" cy="181.47" r="25.62"/></g><polygon id="Path-87-Copy-2" class="cls-11" points="401.22 7.26 94.79 7.26 94.79 183.48 401.22 183.48 401.22 7.26"/><polygon id="Path-87-Copy-4" class="cls-12" points="247.85 57.85 124.83 57.85 124.83 100.99 247.85 100.99 247.85 57.85"/><polygon id="Path-87" class="cls-13" points="401.22 7.26 271.81 7.26 271.81 183.48 401.22 183.48 401.22 7.26"/><polygon id="Path-87-Copy" class="cls-14" points="388.86 20.94 285.23 20.94 285.23 168.57 388.86 168.57 388.86 20.94"/><polygon id="Path-87-Copy-3" class="cls-15" points="388.86 46.61 285.23 46.61 285.23 168.57 388.86 168.57 388.86 46.61"/><path id="Path-88" class="cls-11" d="M94.79,46.47H73.53A18.09,18.09,0,0,0,56.78,57.71L40,98.53h0L14.1,112A26.09,26.09,0,0,0,0,135.14v48.34H17.06v-5.62a30,30,0,0,1,59.91,0v5.62H94.79Z"/><path id="Path" class="cls-16" d="M91.79,118.15H83.33"/><polygon id="Path-89" class="cls-12" points="94.79 57.73 68.93 57.73 52.45 100.81 94.79 100.81 94.79 57.73"/><path id="Rectangle" class="cls-11" d="M49.74,79.69h-15a11.13,11.13,0,1,0,0,22.26h15Z"/></g><g id="Group-28-Copy-3"><rect class="cls-17" x="167.17" y="116.6" width="96.08" height="91.46"/><rect id="Rectangle-Copy-14" class="cls-18" x="173.32" y="195.76" width="13.84" height="7.09"/><rect id="Rectangle-Copy-15" class="cls-19" x="196.37" y="195.76" width="3.84" height="7.09"/><rect id="Rectangle-Copy-10" class="cls-20" x="225.58" y="116.6" width="37.66" height="91.46"/><rect id="Rectangle-Copy-13" class="cls-21" x="236.66" y="116.6" width="15.51" height="37.66"/></g><g id="Group-28-Copy-4"><rect class="cls-22" x="305.73" y="104.49" width="67.25" height="64.03"/><rect class="cls-23" x="310.03" y="159.91" width="9.68" height="4.96"/><rect class="cls-24" x="326.17" y="159.91" width="2.69" height="4.96"/><rect class="cls-25" x="346.62" y="104.49" width="26.36" height="64.03"/><rect class="cls-26" x="354.37" y="104.49" width="10.86" height="26.36"/></g><g id="Group-25-Copy"><g id="Group-24"><g id="Group-4"><polygon id="Path-10" class="cls-27" points="435.34 201.33 435.3 207.25 420.96 207.25 427.75 203.75 427.32 201.33 435.34 201.33"/><polygon id="Path-10-Copy-2" class="cls-13" points="435.32 203.71 435.3 207.25 420.96 207.25 427.75 203.75 435.32 203.71"/></g><polygon id="Path-8" class="cls-13" points="436.03 202.73 426.27 202.73 423.29 99.33 443.41 94.8 436.03 202.73"/><g id="Group-5"><polygon id="Path-10-Copy" class="cls-28" points="460.72 201.33 460.41 207.25 448.31 207.25 452.7 204.29 452.7 201.33 460.72 201.33"/><polygon id="Path-10-Copy-3" class="cls-13" points="460.56 204.36 460.41 207.25 448.31 207.25 452.7 204.29 460.56 204.36"/></g><path id="Path-64" class="cls-29" d="M420,68l-4,7.68L382.71,68q-1.83-3.73-2.49-4c-.44-.16-.44.48,0,1.94q-5.07-2.79-6.19-2.79T377,70Q416.4,90.85,420,88.56T431.76,70Z"/><polygon id="Path-8-Copy" class="cls-13" points="429.07 97.18 443.67 97.18 439.68 148.2 429.07 97.18"/><polygon id="Path-7" class="cls-13" points="461.07 203.22 452.19 203.22 439.68 96.09 459.75 97.22 461.07 203.22"/><path id="Path-5" class="cls-30" d="M431.18,48.28q-5.71,1.2-7.46,6.25A107.91,107.91,0,0,1,416.59,70q5.75,6.48,12.22,7.23l6.42-23.34Z"/><path id="Path-4" class="cls-31" d="M444.48,44.7c9.65,0,18.63,3.26,21,7.54a151.13,151.13,0,0,1,8,17.63l-12.94,1.07-1.65,12.32,2.19,24.13q-13.4-2.67-20.46-2.67a149.7,149.7,0,0,1-19-1.6q2.47-8,5-19.86c2.56-11.87,1.33-21,2.45-26.32.74-3.54.78-6.23.11-8.09Q434.82,44.71,444.48,44.7Z"/><g id="Group-11"><path id="Path-65" class="cls-32" d="M441.33,43.09q-5.61,1.26-4.81,8.55t8,18.41q13.18-24.28,4.76-26.87"/><g id="Group-10"><rect class="cls-33" x="439.65" y="66.09" width="9.61" height="12.1" rx="0.4"/><circle class="cls-3" cx="444.29" cy="69.92" r="1.82"/><path id="Path-11" class="cls-34" d="M444.09,73.55h.81"/><path id="Path-11-Copy" class="cls-34" d="M442.88,75.57h3"/></g></g><g id="Group-28-Copy"><rect class="cls-35" x="404.75" y="61.55" width="40.85" height="38.89"/><rect class="cls-36" x="407.36" y="95.2" width="5.88" height="3.02"/><rect class="cls-37" x="417.17" y="95.2" width="1.63" height="3.02"/><rect class="cls-38" x="429.59" y="61.55" width="16.01" height="38.89"/><rect class="cls-39" x="434.3" y="61.55" width="6.59" height="16.01"/></g><path id="Path-2" class="cls-40" d="M460.69,70.89l.51,5.66L435.12,87.31c-3.13-.23-4.95-.34-5.47-.34-.78,0,1,1.67.55,1.76-2,.47-4.68-.29-4.3.75,1,2.58,4.39,2.79,6.39,2.79s38.62-6.68,39.29-9.23c.09-.36-.06-4.7-.46-13Z"/><g id="Group-12"><path id="Path-3" class="cls-31" d="M445,48.51q-6.11,2.88-6.85,2.19c-.75-.69-.53-3.9.84-5.72l4.08-.69Z"/><path id="Path-3-Copy" class="cls-31" d="M444.55,48.92q5.06,4,5.8,3.32c.75-.7,1.52-5.28.15-7.09l-.49-.06-1.57-.17-2-.23Z"/><path id="Path-2-Copy" class="cls-41" d="M441.32,40.11v4.58q.71,4,2.84,4.23c1.43.16,3.09-1.05,5-3.66V38.43Z"/><path id="Path-2-Copy-2" class="cls-42" d="M441.32,40v4.67a23.21,23.21,0,0,0,4.59-.43,11.52,11.52,0,0,0,3.32-1.68V40Z"/><path id="Path-31" class="cls-13" d="M452.36,38.43c3.44-3.49,6-14.22-.43-14.86q-8.35-7.42-13.4-1.05t.92,12.42q4.68,5.1,6.59,5.84C448.78,41.82,450.75,40.06,452.36,38.43Z"/><path class="cls-43" d="M445.46,34.19q2.44.53,6.54-2.19c1.84.14,2.77.86,2.79,2.19s-.88,2.25-2.71,2.78q-3.75,6.9-8.45,6c-2.35-.45-5.61-5-4.95-12.67a6.39,6.39,0,0,1,.21-1.14C438.93,29,443,33.66,445.46,34.19Z"/></g><g id="Group-28-Copy-2"><rect class="cls-44" x="395.57" y="34.7" width="40.75" height="27.03"/><rect class="cls-45" x="397.99" y="58.1" width="6.05" height="2.02"/><rect class="cls-46" x="408.08" y="58.1" width="1.61" height="2.02"/><rect class="cls-47" x="420.18" y="34.7" width="16.14" height="27.03"/><rect class="cls-48" x="425.03" y="34.7" width="6.46" height="10.89"/></g></g><g id="Group-32-Copy-2"><g id="Group-26"><ellipse class="cls-33" cx="444.85" cy="7.15" rx="7.1" ry="7.15"/></g><polyline id="Path-44" class="cls-49" points="442.71 6.82 444.51 8.63 447.29 5.83"/></g></g><path id="Path-34-Copy-4" class="cls-50" d="M7.06,207l482.82.38"/></g></svg>