<?xml version="1.0" encoding="utf-8"?>
<!-- Generator: Adobe Illustrator 23.0.2, SVG Export Plug-In . SVG Version: 6.00 Build 0)  -->
<svg version="1.0" id="Layer_1" xmlns="http://www.w3.org/2000/svg" xmlns:xlink="http://www.w3.org/1999/xlink" x="0px" y="0px"
	 width="90px" height="84.4px" viewBox="0 0 90 84.4" style="enable-background:new 0 0 90 84.4;" xml:space="preserve">
<style type="text/css">
	.st0{fill:none;stroke:#13426F;stroke-width:2;stroke-miterlimit:10;}
	.st1{fill:#13426F;}
</style>
<g>
	<path class="st0" d="M12.6,82.2H3.1c-1.2,0-2.2-1-2.2-2.2V48.6c0-1.2,1-2.2,2.2-2.2h9.4c1.2,0,2.2,1,2.2,2.2V80
		C14.7,81.2,13.8,82.2,12.6,82.2z"/>
	<path class="st0" d="M31.2,82.2h-9.4c-1.2,0-2.2-1-2.2-2.2V37.6c0-1.2,1-2.2,2.2-2.2h9.4c1.2,0,2.2,1,2.2,2.2V80
		C33.3,81.2,32.4,82.2,31.2,82.2z"/>
	<path class="st0" d="M44.7,64.3c0-6.4,2.8-12.1,7.2-16v-24h6c1.1,0,1.8-1.3,1.2-2.2L46.8,2.7c-0.6-0.9-1.9-0.9-2.4,0L32,22.2
		c-0.6,1,0.1,2.2,1.2,2.2h4.9v55.9c0,1.1,0.9,2,2,2H50c1.1,0,1.9-0.9,2-1.9C47.5,76.5,44.7,70.7,44.7,64.3z"/>
	<circle class="st0" cx="70" cy="64.3" r="18.9"/>
	<g>
		<path class="st1" d="M68.4,77v-3c-2.1-0.1-4.1-0.7-5.3-1.3l0.9-3.6c1.3,0.7,3.1,1.4,5.2,1.4c1.8,0,3-0.7,3-1.9
			c0-1.2-1-1.9-3.3-2.7c-3.3-1.1-5.6-2.7-5.6-5.7c0-2.7,1.9-4.9,5.3-5.5v-3h3.1v2.7c2.1,0.1,3.5,0.5,4.5,1l-0.9,3.5
			c-0.8-0.3-2.2-1.1-4.5-1.1c-2,0-2.7,0.9-2.7,1.7c0,1,1.1,1.7,3.7,2.7c3.7,1.3,5.2,3,5.2,5.8c0,2.8-2,5.1-5.5,5.8V77H68.4z"/>
	</g>
</g>
</svg>
