<svg id="Layer_1" data-name="Layer 1" xmlns="http://www.w3.org/2000/svg" xmlns:xlink="http://www.w3.org/1999/xlink" viewBox="0 0 424.09 235.61"><defs><style>.cls-1{fill:url(#Gradiente_sem_nome_69);}.cls-2{fill:#a1a7ff;}.cls-3{fill:#12348e;}.cls-4{fill:#fff;}.cls-5{fill:#9fdcf8;}.cls-6{fill:#ffbc00;}.cls-7{fill:#fa3e6a;}.cls-8{fill:#d5d4d5;}.cls-9{fill:#ffb91f;}.cls-10{fill:#fc6;}.cls-11{fill:#96b7d8;}.cls-12,.cls-15{fill:#000c4f;}.cls-13{fill:#fbc275;}.cls-13,.cls-14,.cls-15{fill-rule:evenodd;}.cls-14{fill:#eda248;}.cls-16{fill:#db8c56;}.cls-17{fill:#073649;}.cls-18{fill:#f9c780;}.cls-19{fill:#fecf7d;}.cls-20{fill:#e6e6e6;}.cls-21{fill:#cdd0d1;}.cls-22{fill:#f7b854;}</style><linearGradient id="Gradiente_sem_nome_69" y1="227.37" x2="421.73" y2="227.37" gradientUnits="userSpaceOnUse"><stop offset="0.16" stop-color="#e08197"/><stop offset="1" stop-color="#e08197" stop-opacity="0"/></linearGradient></defs><title>Deregulation</title><path class="cls-1" d="M413.49,219.13H8.24A8.27,8.27,0,0,0,0,227.37H0a8.27,8.27,0,0,0,8.24,8.24H413.49a8.27,8.27,0,0,0,8.24-8.24h0A8.27,8.27,0,0,0,413.49,219.13Z"/><path class="cls-2" d="M293.81,79.63H270.42V11.7A11.7,11.7,0,0,1,282.12,0h0a11.69,11.69,0,0,1,11.69,11.7Z"/><rect class="cls-3" x="178.73" y="193.08" width="64.27" height="22.57"/><rect class="cls-2" x="178.73" y="193.08" width="64.27" height="11.99"/><path class="cls-2" d="M160.84,215.39H260.89a8.76,8.76,0,0,1,8.76,8.76v3.4a0,0,0,0,1,0,0H152.08a0,0,0,0,1,0,0v-3.4A8.76,8.76,0,0,1,160.84,215.39Z"/><rect class="cls-3" x="97.97" y="31.99" width="225.78" height="161.09" rx="12.22"/><rect class="cls-4" x="138.46" y="7.78" width="144.82" height="209.51" rx="4.08" transform="translate(323.4 -98.33) rotate(90)"/><rect class="cls-3" x="270.42" y="40.13" width="13.99" height="144.82"/><path class="cls-5" d="M309,77.21l0-.11S308.8,77.51,309,77.21Z"/><path class="cls-2" d="M270.61,185.1H151.17V19.15A19.15,19.15,0,0,1,170.32,0h111.8a11.7,11.7,0,0,0-11.7,11.7V185.1Z"/><path class="cls-4" d="M283.14,0l-.05.05a7.78,7.78,0,0,0-1,0Z"/><path class="cls-3" d="M161.69,68.69v11h11v-11Zm8.62,8.62H164V71h6.27Z"/><path class="cls-3" d="M161.69,87.54v11h11v-11Zm8.62,8.62H164V89.89h6.27Z"/><path class="cls-3" d="M161.69,105.5v11h11v-11Zm8.62,8.62H164v-6.27h6.27Z"/><rect class="cls-3" x="182.1" y="112.73" width="54.12" height="3.93"/><rect class="cls-3" x="182.1" y="105.53" width="69.84" height="3.93"/><rect class="cls-3" x="255.63" y="105.53" width="8.74" height="3.93"/><rect class="cls-3" x="182.1" y="94.87" width="59.86" height="3.93"/><rect class="cls-3" x="182.1" y="87.76" width="66.02" height="3.93"/><rect class="cls-3" x="182.1" y="76.03" width="50.97" height="3.93"/><rect class="cls-3" x="182.1" y="68.75" width="74.09" height="3.93"/><rect class="cls-3" x="201.49" y="137.23" width="46.99" height="3.69"/><rect class="cls-3" x="201.49" y="145.29" width="38.71" height="3.69"/><rect class="cls-3" x="201.49" y="153.5" width="43.33" height="3.69"/><path class="cls-2" d="M174.71,160a14.57,14.57,0,0,0,11-1.45,14.75,14.75,0,0,0,3-2.31,14.73,14.73,0,0,0,3.75-6.52l-14-3.77h0Z"/><path class="cls-3" d="M181.62,144.7h0l10.3,2.76a10.88,10.88,0,0,0,.37-2.76,10.82,10.82,0,0,0-1.43-5.33,10.45,10.45,0,0,0-3.91-3.9Z"/><path class="cls-6" d="M163.92,145.9a14.66,14.66,0,0,0,.51,3.77,14.2,14.2,0,0,0,1.45,3.5,14.52,14.52,0,0,0,2.3,3,14.59,14.59,0,0,0,6.53,3.76l3.76-14-14-3.76A14.58,14.58,0,0,0,163.92,145.9Z"/><path class="cls-7" d="M174.71,131.86a14.43,14.43,0,0,0-3.51,1.45,14.15,14.15,0,0,0-5.32,5.32,14.43,14.43,0,0,0-1.45,3.51l14,3.76h0l7.27-12.59a14.27,14.27,0,0,0-3.51-1.45,14.12,14.12,0,0,0-7.52,0Z"/><circle class="cls-3" cx="207.89" cy="31.15" r="22.8" transform="translate(103.91 213.85) rotate(-68.88)"/><path class="cls-4" d="M201.38,32.19,205,35.88a1.53,1.53,0,0,0,2.17,0l7.21-7.13a1.54,1.54,0,0,0,0-2.22l-.19-.17a1.53,1.53,0,0,0-2.11.05l-4.85,4.89a1.53,1.53,0,0,1-2.09.07L203.48,30a1.52,1.52,0,0,0-2,0h0A1.52,1.52,0,0,0,201.38,32.19Z"/><polygon class="cls-6" points="207.8 12.2 208.81 14.07 210.9 14.45 209.44 15.99 209.72 18.1 207.8 17.18 205.89 18.1 206.17 15.99 204.7 14.45 206.79 14.07 207.8 12.2"/><polygon class="cls-6" points="199.9 14.25 200.91 16.11 203 16.5 201.53 18.04 201.81 20.14 199.9 19.23 197.98 20.14 198.26 18.04 196.8 16.5 198.89 16.11 199.9 14.25"/><polygon class="cls-6" points="194.13 19.97 195.14 21.84 197.23 22.22 195.77 23.76 196.05 25.86 194.13 24.95 192.22 25.86 192.5 23.76 191.03 22.22 193.12 21.84 194.13 19.97"/><polygon class="cls-6" points="192.22 28.01 193.24 29.88 195.32 30.27 193.86 31.8 194.14 33.91 192.22 32.99 190.31 33.91 190.59 31.8 189.13 30.27 191.21 29.88 192.22 28.01"/><polygon class="cls-6" points="194.41 35.73 195.42 37.6 197.51 37.98 196.05 39.52 196.33 41.63 194.41 40.71 192.49 41.63 192.77 39.52 191.31 37.98 193.4 37.6 194.41 35.73"/><polygon class="cls-6" points="199.85 41.55 200.86 43.41 202.95 43.8 201.49 45.34 201.77 47.44 199.85 46.53 197.94 47.44 198.22 45.34 196.75 43.8 198.84 43.41 199.85 41.55"/><polygon class="cls-6" points="215.87 14.25 214.86 16.11 212.77 16.5 214.24 18.04 213.96 20.14 215.87 19.23 217.79 20.14 217.51 18.04 218.97 16.5 216.88 16.11 215.87 14.25"/><polygon class="cls-6" points="221.64 19.97 220.63 21.84 218.54 22.22 220 23.76 219.72 25.86 221.64 24.95 223.56 25.86 223.28 23.76 224.74 22.22 222.65 21.84 221.64 19.97"/><polygon class="cls-6" points="223.55 28.01 222.53 29.88 220.45 30.27 221.91 31.8 221.63 33.91 223.55 32.99 225.46 33.91 225.18 31.8 226.65 30.27 224.56 29.88 223.55 28.01"/><polygon class="cls-6" points="221.36 35.73 220.35 37.6 218.26 37.98 219.72 39.52 219.44 41.63 221.36 40.71 223.28 41.63 223 39.52 224.46 37.98 222.37 37.6 221.36 35.73"/><polygon class="cls-6" points="215.92 41.55 214.91 43.41 212.82 43.8 214.28 45.34 214 47.44 215.92 46.53 217.84 47.44 217.56 45.34 219.02 43.8 216.93 43.41 215.92 41.55"/><polygon class="cls-6" points="207.78 44.21 208.79 46.08 210.88 46.46 209.42 48 209.7 50.1 207.78 49.19 205.87 50.1 206.15 48 204.68 46.46 206.77 46.08 207.78 44.21"/><polygon class="cls-4" points="396.73 148.47 396.73 184.39 356.35 184.39 356.35 140.31 388.57 140.31 396.73 148.47"/><rect class="cls-3" x="362.89" y="151.52" width="26.91" height="2.49"/><rect class="cls-3" x="362.89" y="146.11" width="11.47" height="2.49"/><rect class="cls-3" x="362.89" y="157.64" width="20.16" height="2.49"/><rect class="cls-3" x="362.89" y="163.26" width="14.24" height="2.49"/><rect class="cls-3" x="362.89" y="169.07" width="27.85" height="2.49"/><polygon class="cls-8" points="396.73 148.47 388.57 148.47 388.57 140.31 396.73 148.47"/><rect class="cls-3" x="351.28" y="177.52" width="48.3" height="47.51"/><polyline class="cls-2" points="399.58 225.03 399.58 177.52 407.53 177.52 407.53 225.03"/><circle class="cls-4" cx="376.47" cy="202.71" r="13.59" transform="translate(-38.4 306.17) rotate(-42.3)"/><path class="cls-7" d="M381.68,200v-3.66a2.71,2.71,0,0,0-2.71-2.71h-4.4a2.71,2.71,0,0,0-2.71,2.71V200h-2v9.17a2.38,2.38,0,0,0,2.38,2.37h9a2.38,2.38,0,0,0,2.38-2.37V200Zm-8.07-3.66a1,1,0,0,1,1-1H379a1,1,0,0,1,1,1V200h-6.33ZM378,208.5h-2.41l.36-3.33a1.55,1.55,0,0,1-.73-1.32,1.57,1.57,0,1,1,3.14,0,1.55,1.55,0,0,1-.73,1.32Z"/><rect class="cls-3" x="19.85" y="93.45" width="59.34" height="37.5" rx="4.21"/><rect class="cls-9" x="19.85" y="100.46" width="59.34" height="5.76"/><rect class="cls-4" x="62.51" y="118.92" width="12.1" height="6.59" rx="1.81"/><rect class="cls-4" x="23.77" y="112.68" width="22.67" height="1.9"/><rect class="cls-4" x="23.77" y="117.75" width="9.46" height="1.9"/><rect class="cls-4" x="23.77" y="122.83" width="6.28" height="1.9"/><path class="cls-4" d="M21.11,146H52.29a4.28,4.28,0,0,1,4.28,4.28v34.11a0,0,0,0,1,0,0H16.83a0,0,0,0,1,0,0V150.3A4.28,4.28,0,0,1,21.11,146Z"/><path class="cls-9" d="M57.48,172h-20a4.57,4.57,0,0,1-3-1.08l-3.67-3.1a4.45,4.45,0,0,0-2.86-1H15.4A4.42,4.42,0,0,0,11,171.18v31.49a4.92,4.92,0,0,0,.33,1.8,5.1,5.1,0,0,0,4.77,3.3H57.93a4,4,0,0,0,4-4V176.46A4.49,4.49,0,0,0,57.48,172Z"/><path class="cls-3" d="M26.15,191.53l5.69,5.82a2.41,2.41,0,0,0,3.41,0l11.38-11.26a2.41,2.41,0,0,0-.06-3.49l-.3-.27a2.4,2.4,0,0,0-3.33.08l-7.65,7.7a2.4,2.4,0,0,1-3.3.12L29.46,188a2.42,2.42,0,0,0-3.24.05h0A2.42,2.42,0,0,0,26.15,191.53Z"/><path class="cls-7" d="M129.42,23.25v35c0,10-9.83,19-18.61,25a100.2,100.2,0,0,1-13.4,7.71h0s-32-14.77-32-32.66v-35L97.41,13Z"/><path class="cls-9" d="M82.54,49.64V62.09a8.63,8.63,0,0,0,8.63,8.63h14a8.63,8.63,0,0,0,8.64-8.63V49.64a6.39,6.39,0,0,0-6.39-6.39H88.92A6.39,6.39,0,0,0,82.54,49.64Z"/><path class="cls-3" d="M91.8,43.19V34.78A1.74,1.74,0,0,1,93.54,33h9.25a1.74,1.74,0,0,1,1.74,1.74v8.41h4.13V34.78a5.87,5.87,0,0,0-5.87-5.87H93.54a5.87,5.87,0,0,0-5.87,5.87v8.41Z"/><path class="cls-3" d="M101.7,54.63a3.53,3.53,0,1,0-5.19,3.12v3.87c0,.92,1.27,1.66,2.19,1.66s1.13-.74,1.13-1.66V57.75A3.55,3.55,0,0,0,101.7,54.63Z"/><polygon class="cls-9" points="424.09 83.79 370.59 83.79 397.34 102.61 424.09 83.79"/><rect class="cls-2" x="377.06" y="56.45" width="40.85" height="50.66"/><path class="cls-9" d="M397.34,102.6,370.59,83.79v37.63s0,0,.06,0Z"/><path class="cls-10" d="M370.65,121.37c1.9-.71,53.44,0,53.44,0L397.34,102.6Z"/><polygon class="cls-9" points="397.34 102.61 424.09 121.42 424.09 83.79 397.34 102.61"/><path class="cls-3" d="M407.34,74.39c0,6.28-10.58,17-10.58,17s-10.57-10.76-10.57-17S390.92,63,396.76,63,407.34,68.12,407.34,74.39Z"/><path class="cls-4" d="M402.37,73a5.61,5.61,0,1,0-5.61,5.62A5.61,5.61,0,0,0,402.37,73Z"/><path class="cls-3" d="M312.87,117.56l-1.41,22.5h40.67l-1.41-22.5,4.87.25C362.22,110,357,83.59,357,83.59c-2.52-4.11-18.21-9.85-18.21-9.85H324.94s-15.87,5.74-18.39,9.85c0,0-5.18,26.42,1.45,34.22Z"/><path class="cls-4" d="M338.82,73.75H324.93s-1.15,20.52,6.87,29.41h0C339.83,94.27,338.82,73.75,338.82,73.75Z"/><path class="cls-11" d="M336.08,96.07a25,25,0,0,1-4.27,7.09h0a25.28,25.28,0,0,1-4.28-7.1l2-10.18h4.66Z"/><polygon class="cls-7" points="336.1 84.45 334.43 87.21 329.39 87.21 327.71 84.45 327.97 83.93 331.89 79.57 335.89 84.03 336.1 84.45"/><path class="cls-7" d="M336.08,96.07a25,25,0,0,1-4.27,7.09h0a25.28,25.28,0,0,1-4.28-7.1l2-10.18h4.66Z"/><path class="cls-12" d="M331.77,38.64h0a11.47,11.47,0,0,1,11.47,11.47v6.57a0,0,0,0,1,0,0H320.3a0,0,0,0,1,0,0V50.11A11.47,11.47,0,0,1,331.77,38.64Z"/><path class="cls-13" d="M338.06,74c-1.79,1.43-6.13,4.49-6.13,4.49s-4.42-3-6.25-4.48V63.47h12.39Z"/><path class="cls-14" d="M325.67,69.09l.14.13c1.7,1.6,3.87,3.87,6.05,3.87s4.35-2.27,6.05-3.87l.15-.14V64.76H325.67Z"/><path class="cls-13" d="M340.78,51.52v9.27a8.66,8.66,0,0,1-2.72,6.31l-.86.79a7.8,7.8,0,0,1-10.7,0l-.85-.79a8.63,8.63,0,0,1-2.73-6.3V51.52s7.28-.83,10.88-4.33C333.8,47.19,335,50.33,340.78,51.52Z"/><path class="cls-13" d="M325.65,57.48a2.77,2.77,0,1,0-2.76,2.77A2.76,2.76,0,0,0,325.65,57.48Z"/><path class="cls-13" d="M343.44,57.48a2.77,2.77,0,1,0-2.77,2.77A2.77,2.77,0,0,0,343.44,57.48Z"/><path class="cls-15" d="M333.88,61.59h-4c-2.4,0-4,2.72-4.8,4.89.19.21.39.42.6.62l.85.79a7.8,7.8,0,0,0,10.7,0l.86-.79a7.45,7.45,0,0,0,.61-.65C337.82,64.29,336.28,61.59,333.88,61.59Zm.41,5.58h0a9,9,0,0,0-5,0l-.07,0a1.3,1.3,0,0,1-1.2-1.82l.62-1.45a1.31,1.31,0,0,1,1.2-.79h3.79a1.31,1.31,0,0,1,1.2.79l.62,1.45A1.3,1.3,0,0,1,334.29,67.17Z"/><path class="cls-16" d="M332.69,59.84c0-.34-.45-.15-1-.15s-1-.19-1,.15.44.6,1,.6S332.69,60.17,332.69,59.84Z"/><path class="cls-17" d="M338.74,52.91H324.83a1.7,1.7,0,0,0-1.68,1.85,4.66,4.66,0,0,0,1.17,2.86,2.11,2.11,0,0,0,1.54.68h2.29a3.29,3.29,0,0,0,3.43-3.38,1.34,1.34,0,0,0-.22-.87L331,53.6c0-.06-.12-.08-.17-.14h1.85c0,.06-.12.08-.17.14l-.33.45a1.4,1.4,0,0,0-.22.87,3.29,3.29,0,0,0,3.43,3.38h2.29a2.08,2.08,0,0,0,1.54-.68,4.66,4.66,0,0,0,1.17-2.86A1.69,1.69,0,0,0,338.74,52.91Z"/><path class="cls-18" d="M312.75,108.19h10.81l-6.5-6.37a3.51,3.51,0,0,0-5.19.29h0a3.51,3.51,0,0,0-.33,3.94Z"/><path class="cls-18" d="M339.15,112l9-2.35v-5.79l-3.38-.08a9.68,9.68,0,0,0-5.62,1.62l-.93.62Z"/><polygon class="cls-3" points="313.19 138.86 309.11 220.32 321.93 223.7 332.14 135.71 329.3 131.66 313.19 138.86"/><polygon class="cls-3" points="350.57 138.86 354.65 220.32 341.83 223.7 331.62 135.71 334.46 131.66 350.57 138.86"/><path class="cls-12" d="M321.93,223.7V229H296.52a1.61,1.61,0,0,1-1-2.85,27.35,27.35,0,0,1,13.62-5.85l9.38.3Z"/><path class="cls-12" d="M341.94,223.7V229h25.4a1.61,1.61,0,0,0,1-2.85,27.35,27.35,0,0,0-13.63-5.85l-9.37.3Z"/><path class="cls-3" d="M81.28,221.7s-18.54-5.57-19.73.64c-1.08,5.66,2.1,10.87,20.82,7Z"/><path class="cls-19" d="M81.28,221.7l3.4.16,4.65-2.05s2.47,6,2.26,6-5.84,3.58-9.22,3.6Z"/><path class="cls-3" d="M107.33,221.34s18.53-5.57,19.72.64c1.08,5.65-2.1,10.86-20.82,7Z"/><path class="cls-19" d="M107.33,221.34l-3.4.16-4.66-2.05s-2.46,6-2.26,6,5.84,3.59,9.22,3.61Z"/><path class="cls-4" d="M74.75,222.46h0a.8.8,0,0,0-.74.86l.29,4a.8.8,0,0,0,.86.74h0a.8.8,0,0,0,.74-.85l-.29-4A.8.8,0,0,0,74.75,222.46Z"/><path class="cls-4" d="M71,222.53h0a.81.81,0,0,0-.75.86l.29,4a.8.8,0,0,0,.86.74h0a.8.8,0,0,0,.74-.86l-.29-4A.8.8,0,0,0,71,222.53Z"/><path class="cls-4" d="M116.54,221.85h0a.82.82,0,0,0-.9.7l-.48,4a.8.8,0,0,0,.7.89h0a.79.79,0,0,0,.89-.7l.48-4A.8.8,0,0,0,116.54,221.85Z"/><path class="cls-4" d="M112.8,221.2h0a.8.8,0,0,0-.89.7l-.48,4a.79.79,0,0,0,.7.89h0a.81.81,0,0,0,.89-.7l.48-4A.8.8,0,0,0,112.8,221.2Z"/><polygon class="cls-17" points="130.86 200.59 110.56 203.16 82.5 203.16 62.21 200.05 98.26 225.58 136.59 204.64 130.86 200.59"/><path class="cls-3" d="M112.26,221,65.71,201c-3.58-2.09-7.95-.38-9.67,3.78h0c-1.85,4.46.16,9.77,4.26,11.28l36.22,10.52Z"/><path class="cls-7" d="M71.26,200.74l7.57,1.5-.51,5.35h40.62l.17-5.59s3-.55,6.54-1.26c7.08-1.41-7-31.78-7.57-33.19-.4-1-7-2.88-11.28-4.06-1.89-.51-3.34-.88-3.64-1h0l-4.65,1v0l-4.64-1-.47.12h0l-3.75,1c-4.29,1.19-10.37,3-10.75,3.91C78.22,169,64.18,199.33,71.26,200.74Z"/><path class="cls-20" d="M81.16,184.17h34.46a3.65,3.65,0,0,1,3.65,3.65v18a0,0,0,0,1,0,0H77.51a0,0,0,0,1,0,0v-18A3.65,3.65,0,0,1,81.16,184.17Z"/><path class="cls-21" d="M77.51,205.69h41.76a0,0,0,0,1,0,0v2.09a1.41,1.41,0,0,1-1.41,1.41H78.91a1.41,1.41,0,0,1-1.41-1.41v-2.09A0,0,0,0,1,77.51,205.69Z"/><path class="cls-3" d="M110.43,143.28s.78,7.18-.76,9.32-8.09,1.79-8.09,1.79L87.1,153S84.19,140,90.24,139.71a4.35,4.35,0,0,1,.89-1A7.28,7.28,0,0,1,96,136.93c4.47,0,16.44-.27,15.37-1.92C111.32,135,114.12,141.18,110.43,143.28Z"/><path class="cls-19" d="M103.52,162v5.84l0,0c-.63,1.9-3.11,5.16-4.85,5.21-1.93.06-4.69-2.88-5.4-5.23h0V162Z"/><path class="cls-22" d="M103.52,162v2.88a13.22,13.22,0,0,1-10.28,0V162Z"/><path class="cls-22" d="M92,152.75a2.78,2.78,0,1,0-2.77,2.48A2.64,2.64,0,0,0,92,152.75Z"/><path class="cls-22" d="M110.13,152.75a2.78,2.78,0,1,0-2.76,2.48A2.63,2.63,0,0,0,110.13,152.75Z"/><path class="cls-19" d="M107.21,145.71v10.73c0,4.38-4,7.93-8.83,7.93s-8.83-3.55-8.83-7.93V148.7s2.61-3.31,6.17-3.53C95.72,145.17,99.84,146.56,107.21,145.71Z"/><path class="cls-3" d="M82.64,221.9,127,201c3.58-2.09,7.95-.38,9.67,3.78h0c1.84,4.46-.16,9.77-4.26,11.28L84.06,230.83Z"/></svg>