<?xml version="1.0" encoding="utf-8"?>
<!-- Generator: Adobe Illustrator 23.0.2, SVG Export Plug-In . SVG Version: 6.00 Build 0)  -->
<svg version="1.0" id="Layer_1" xmlns="http://www.w3.org/2000/svg" xmlns:xlink="http://www.w3.org/1999/xlink" x="0px" y="0px"
	 width="90px" height="91.8px" viewBox="0 0 90 91.8" style="enable-background:new 0 0 90 91.8;" xml:space="preserve">
<style type="text/css">
	.st0{fill:none;stroke:#13426F;stroke-width:2;stroke-miterlimit:10;}
</style>
<g>
	<path class="st0" d="M88.4,53.7V38H81c-0.9-4.4-2.7-8.4-5-12.1l5.2-5.2L70.1,9.5l-5.2,5.2c-3.6-2.3-7.7-4.1-12.1-5V2.4H37v7.4
		c-4.4,0.9-8.4,2.7-12.1,5l-5.2-5.2L8.6,20.7l5.2,5.2c-2.3,3.6-4.1,7.7-5,12.1H1.4v15.8h7.4c0.9,4.4,2.7,8.4,5,12.1L8.6,71
		l11.2,11.2L25,77c3.6,2.3,7.7,4.1,12.1,5v7.4h15.8V82c4.4-0.9,8.4-2.7,12.1-5l5.2,5.2L81.2,71L76,65.8c2.3-3.6,4.1-7.7,5-12.1H88.4
		z M44.9,72.1c-14.5,0-26.3-11.8-26.3-26.3s11.8-26.3,26.3-26.3s26.3,11.8,26.3,26.3S59.4,72.1,44.9,72.1z"/>
	<path class="st0" d="M58.6,45.9c0-5.9-3.8-10.9-9-12.9v12.9h-9.4V33c-5.2,1.9-9,7-9,12.9c0,5,2.7,9.4,6.7,11.8v13.5
		c2.2,0.6,4.6,1,7,1s4.8-0.3,7-1V57.6C55.9,55.2,58.6,50.9,58.6,45.9z"/>
</g>
</svg>
