<?xml version="1.0" encoding="utf-8"?>
<!-- Generator: Adobe Illustrator 23.0.2, SVG Export Plug-In . SVG Version: 6.00 Build 0)  -->
<svg version="1.0" id="Layer_1" xmlns="http://www.w3.org/2000/svg" xmlns:xlink="http://www.w3.org/1999/xlink" x="0px" y="0px"
	 width="90px" height="91.8px" viewBox="0 0 90 91.8" style="enable-background:new 0 0 90 91.8;" xml:space="preserve">
<style type="text/css">
	.st0{fill:none;stroke:#13426F;stroke-width:2;stroke-miterlimit:10;}
	.st1{fill:#13426F;}
</style>
<g>
	<path class="st0" d="M79.1,52.6l10.8-1.5v-9.8l-10.7-1.8l0,0c-0.9-4.7-2.7-9.1-5.2-13l0.3,0l5.9-8.7L73.3,11l-8.8,6
		c-3.8-2.6-8.1-4.4-12.7-5.3l0.1-0.1l-2-10.4h-9.8l-2,10.4c-4.7,0.9-9,2.8-12.8,5.4l0,0L16.6,11l-6.9,6.9l6,8.8l0.1,0
		c-2.5,3.8-4.3,8.1-5.1,12.7L0,41.4v9.8l10.9,1.9c0.9,4.5,2.7,8.6,5.2,12.3l-6.4,9.2l6.9,6.9l9.3-6.5c3.6,2.4,7.7,4.1,12.1,5l0,0
		l2,11.2h9.8l2-11.2l0,0c4.4-0.9,8.5-2.6,12.1-5l9.3,6.4l6.9-6.9l-6.4-9.2C76.4,61.6,78.2,57.3,79.1,52.6L79.1,52.6z M45,70.3
		c-13.5,0-24.5-11-24.5-24.5c0-13.5,11-24.5,24.5-24.5c13.5,0,24.5,11,24.5,24.5C69.5,59.4,58.5,70.3,45,70.3z"/>
	<path class="st0" d="M43.1,28.3L29.5,54.1c-0.7,1.4,0.3,3.1,1.9,3.1h27.3c1.6,0,2.6-1.7,1.9-3.1L46.8,28.3
		C46,26.8,43.9,26.8,43.1,28.3z"/>
	<g>
		<polygon class="st1" points="47.2,35.2 42.4,35.2 43.2,48.3 46.3,48.3 		"/>
		<circle class="st1" cx="44.8" cy="51.8" r="2.3"/>
	</g>
</g>
</svg>
