<svg id="Layer_1" data-name="Layer 1" xmlns="http://www.w3.org/2000/svg" xmlns:xlink="http://www.w3.org/1999/xlink" viewBox="0 0 322.88 258.42"><defs><style>.cls-1{fill:url(#Gradiente_sem_nome_69);}.cls-2{fill:#dfcdb3;}.cls-3{fill:#343b83;}.cls-4{fill:#292948;}.cls-5{fill:#fa3e6a;}.cls-6{fill:#bf7e72;}.cls-7{fill:#edbda3;}.cls-8{fill:#12348e;}.cls-9{fill:#a1a7ff;}.cls-10{fill:#f2c5b1;}.cls-11{fill:#f7f7f7;}</style><linearGradient id="Gradiente_sem_nome_69" y1="241.06" x2="322.88" y2="241.06" gradientUnits="userSpaceOnUse"><stop offset="0.16" stop-color="#e08197"/><stop offset="1" stop-color="#e08197" stop-opacity="0"/></linearGradient></defs><title>IoT and Blockchain are Taking World by Storm</title><path class="cls-1" d="M148.13,223.7A268.78,268.78,0,0,0,119.78,225c-3.56.39-7,1.24-10.61,1.59-7.12.68-14.12,2-21.27,2.56-5.76.47-11.54.75-17.28,1.36a62.63,62.63,0,0,1-16.69-.5,116.26,116.26,0,0,1-11.81-2.2,49.47,49.47,0,0,0-13.61-2.1c-6.46,0-12.75,0-18.93,2.25a18.86,18.86,0,0,0-6.48,3.65c-3.77,3.71-4.28,12.95-.52,16.79,6.35,6.46,19.89,9,28.79,9.11,9.75.14,19.22-.57,29-1,9.07-.39,18.12-.94,27.2-.92,18.56,0,37.12,0,55.64-1.21,17.4-1.14,34.85-.75,52.29-.75,17.89,0,35.65.14,53.41,2.47,7.73,1,15.62,1.36,23.39,2.07,7,.64,13.66,0,20.59-.6a49.73,49.73,0,0,0,16.9-4.43c4.19-2,11.66-8,12.94-12.72,3.6-13.1-50.74-12.79-59.09-12.76-9.33,0-18.74.34-28.07,0a68.17,68.17,0,0,1-11.62-1.72c-3.81-.82-7.65-.61-11.52-1-16.13-1.43-32.3-1.22-48.48-1.22C158.67,223.73,153.4,223.68,148.13,223.7Z"/><polygon class="cls-2" points="277.61 167.9 277.68 170.25 273.54 171.75 271.16 169.94 271.16 167.22 273.46 167.09 273.53 166.49 274.28 166 277.61 167.9"/><polygon class="cls-3" points="192.97 186.42 193.86 207.04 191.25 242.1 187.35 242.38 182.62 210.54 176.06 183.59 192.97 186.42"/><polygon class="cls-4" points="187.56 245 193.42 245 193.66 243.07 191.56 241.62 187.34 241.92 187.56 245"/><polygon class="cls-3" points="165.37 180.29 164.51 195.88 167.05 242.22 170.95 242.42 176.81 212.02 181.97 178.69 165.37 180.29"/><polygon class="cls-4" points="170.79 245.15 165.09 245.39 164.51 243.75 166.73 241.74 170.95 241.95 170.79 245.15"/><path class="cls-5" d="M188.07,133.21l-12.19-1.31s-6.77.73-11.37,16.82c-2.56,9-3.34,23.07-3.53,33.83.29,1.53,2,8.26,9,7.12,12.14-2,18.6-3.92,23.89-2.94,4.5,1,4.12-5.22,3.63-9.95l-1.8-14.65Z"/><path class="cls-6" d="M185.72,118c-3.07-.68-6.24-1.28-9.31-.67a2.54,2.54,0,0,0-1.76.94,2.85,2.85,0,0,0-.29.75c-.77,2.88-1.76,7.16.14,9.81a4.77,4.77,0,0,0,1.37,1.24,6.94,6.94,0,0,0,2.27.89,11.6,11.6,0,0,1-.68,2.09c.7,1.06,4,1.19,4.59.18,0-.88.06-1.76.1-2.64a6.2,6.2,0,0,0,1.14-.6,7.38,7.38,0,0,0,2.87-3.89c.58-1.71,1.4-3.33,1.94-5.07a2.49,2.49,0,0,0,0-1.93,2.59,2.59,0,0,0-1.81-1Z"/><path class="cls-3" d="M187.06,126.05c1.48-1.52,3.2-3.64,3.34-5.56a9.14,9.14,0,0,0-1-5.14c-.84-1.28-3-2-4.24-2.73l-3.59-2.11a2.33,2.33,0,0,0-.79-.35,2.46,2.46,0,0,0-1,.12l-8.48,2.19c-.55.14-1.17.34-1.37.87a1.74,1.74,0,0,0,0,1,43.08,43.08,0,0,1,1.09,4.45c.23,1.17.19,2.22,1,3.08s1.88,1.25,2.53,2.24a17.38,17.38,0,0,1,1,2.34c1.66,3.49,8.36,2.56,10.68.34C186.54,126.57,186.8,126.32,187.06,126.05Z"/><polygon class="cls-5" points="185.49 134.25 193.86 125.2 191.89 100.68 195.57 99.06 203.31 123.74 200.57 131.33 189.34 146.43 185.49 134.25"/><path class="cls-6" d="M194.78,99.41V97.16c0-.82-2.06-2.73-2.59-3.42-.3-.39-1.67,1.75-1.69,2.1a11.06,11.06,0,0,0,1.08,2.52l-.73,1,1,1.27Z"/><polygon class="cls-5" points="170.5 136.13 161.02 128.25 159.79 103.68 155.93 102.55 151.46 128.03 155.16 135.2 168.26 148.71 170.5 136.13"/><path class="cls-6" d="M156.76,102.79s-.29-2.19-.29-2.22c-.11-.82,1.69-3,2.12-3.73.25-.43,1.88,1.51,1.95,1.86.1.6-.59,2-.75,2.64l.87.94-.87,1.4Z"/><path class="cls-7" d="M21.66,120.84a21.83,21.83,0,0,1-4.29-2.77c-.42-.35-.88-.85-.73-1.39s1-.74,1.61-.68a8.8,8.8,0,0,1,3.43,1c.26-.09-.08-.51,0-.76a.36.36,0,0,1,.32-.16c1.71-.09,2.38,2.24,3,3.36-1.2.63-2.44.65-3.5,1.61Z"/><path class="cls-7" d="M95.17,148.6l2.22.32c.81.12,4.35-1.67,5.11-2.09.43-.24-2.84-1.88-3.18-2-.6-.11-2,.56-2.65.7l-.93-.87-1.41.84Z"/><polygon class="cls-4" points="40.76 240.06 40.45 242.46 44.95 245.48 47.66 243.38 45.56 240.67 41.07 237.66 40.76 240.06"/><polygon class="cls-8" points="40.61 239.25 44.08 208.62 39.9 174.32 40.84 167.03 59.47 166.32 60.15 178.19 57.02 208.66 45.25 240.82 40.61 239.25"/><polygon class="cls-9" points="62.44 133.09 70.81 138.01 77.45 147.32 95.15 144.75 95.71 149.63 75.61 156.33 65.31 152.47 62.44 133.09"/><polygon class="cls-8" points="73.14 169.75 73.19 200.66 66.97 240.46 62.49 240.42 60.03 203.61 54.27 166.78 73.14 169.75"/><polygon class="cls-4" points="62.5 242.31 67.32 244.78 69.76 242.38 67.36 239.93 62.52 239.88 62.5 242.31"/><path class="cls-9" d="M38,180.26c0-1.34.11-2.45.12-2.85.1-3.6.42-7.18.87-10.75.4-3.2.91-11.14,1.46-14.31.45-2.63,2-9.18,3.16-11.61,2.83-6.05,2-6.61,14.38-8.41,5.45-.79,6.74,2.61,11.19,6.51.44.39.42,2.68.52,3.28.18,1.07.37,2.14.59,3.2.17.84.36,1.67.58,2.5h0s3.74,17,6.21,20.62,7.58,8.66-1,11.75a30.32,30.32,0,0,1-4.61,1.2s-7-.78-10.58-.75a61.64,61.64,0,0,0-9.88.92,21,21,0,0,0-6.34,1.91c-1.86,1-3.2,2.4-5.08,3.4A1,1,0,0,1,39,187C37.94,186.89,37.89,183.08,38,180.26Z"/><path class="cls-7" d="M56.86,133.9a5.09,5.09,0,0,1-3.54.89.79.79,0,0,1-.72-.57,21.26,21.26,0,0,1-.61-2.74c-1.22,0-2.68-.24-3.23-1.34a3.28,3.28,0,0,1-.27-1.12c-.21-1.59-.41-3.17-.61-4.76a4.12,4.12,0,0,1,0-1.64,3.51,3.51,0,0,1,2-2,8.62,8.62,0,0,1,7.17-.42,3.74,3.74,0,0,1,1.59,1.14,5.09,5.09,0,0,1,.71,2.91l.12,2.81c0,1.08,0,2.33-.83,3-.45.35-1.07.48-1.44.92C56.53,131.72,57,132.9,56.86,133.9Z"/><path class="cls-8" d="M65.7,114.75a10.49,10.49,0,0,1,.42-1.31,20.33,20.33,0,0,0,1.14-2.74,2.59,2.59,0,0,0-.75-2.71,3.14,3.14,0,0,0-1.84-.42,11.91,11.91,0,0,0-6,1.73c-1.72,1-3.15,2.34-5.24,2.22s-3.15.54-4.79,1.77-4.4,2.31-5.89,3.87a5.56,5.56,0,0,0-1.27,2.35A8.4,8.4,0,0,0,44.05,128a13.61,13.61,0,0,0,1.73,1.19c1.26.73,2.77,1.64,4.18,1.62-.33-1.16-2.5-4.49-1.91-5.71,1-1.94,4.3-2.39,6.16-2.56,2-.18,4.15.65,6.13.36a7.51,7.51,0,0,0,3.9-2.48C65.4,119.12,65.29,116.38,65.7,114.75Z"/><polygon class="cls-9" points="47.11 134.99 37.33 137.5 25.56 119.2 20.59 120.55 28.87 146.89 47.93 149.19 47.11 134.99"/><path class="cls-4" d="M285,236.52a1.64,1.64,0,0,1,1.5-.64,1.7,1.7,0,0,1,1.26.94,3.29,3.29,0,0,1,.21,1.08c.16,1.9.14,6.41-2.39,7.06a1.88,1.88,0,0,1-2.22-1.44C283,242.08,283.58,238.1,285,236.52Z"/><path class="cls-10" d="M284.12,207.87l.13,11.58c-.15,5.15.65,10.32.5,15.47a13.16,13.16,0,0,0-.05,3.6c.29,1.15,1.23,1.35,2.18.77,1.28-.78,1.08-2.6,1.29-3.92.59-3.65,1.28-7.27,1.89-10.91.3-1.78-.32-4.28-.19-6.09l1.88-9.71Z"/><polygon class="cls-8" points="297.35 189.16 292.31 211.55 291.24 232.7 283.25 232.52 281.08 173.37 296.57 173.65 297.35 189.16"/><path class="cls-4" d="M273.59,236.1a1.63,1.63,0,0,1,1.52-.56,1.72,1.72,0,0,1,1.21,1,3.07,3.07,0,0,1,.17,1.09c.07,1.91-.13,6.42-2.68,6.92a1.92,1.92,0,0,1-2.16-1.57C271.29,241.54,272.09,237.59,273.59,236.1Z"/><path class="cls-10" d="M277.8,209.5l-.68,11.56c-.05,3.21-.48,6.4-.81,9.59-.31,3,.17,6.06-1.38,8.75-.49.85-1.47,1.41-2.16.39-.52-.8-.21-2.12-.31-3-.42-3.66-.93-7.32-1.37-11-.22-1.79.52-4.26.47-6.07l-1.41-9.79Z"/><polygon class="cls-8" points="267.69 187.79 267.04 209.52 270.45 231.51 278.58 231.75 278.22 207.96 282.52 188.23 283.96 175.32 271.06 173.8 267.69 187.79"/><polygon class="cls-9" points="277.89 129.31 291.79 128.98 299.85 143.97 296.99 158 296.48 174.81 276.65 175.07 270.13 174.02 271.86 156.07 270.86 132.09 277.89 129.31"/><path class="cls-10" d="M279.71,116.34c2.74-5.83,10.49-2.7,11.56,2.87.69,3.64-2.52,7.91-6.27,8.53,0,.13-.43,1.31-.44,1.42a13.35,13.35,0,0,1-.34,1.67c-.06.21-3.18-.75-3.53-.85a.51.51,0,0,1-.31-.2,10,10,0,0,1,.59-2.06c0-.26.11-.52.17-.78a6.3,6.3,0,0,1-2.75-5A11.78,11.78,0,0,1,279.71,116.34Z"/><path class="cls-3" d="M285.52,111.43a3.3,3.3,0,0,1,.55,1.7,2.51,2.51,0,0,1-.06,1.06c-.44,1.35-1.8,1.13-2.9,1.46a7,7,0,0,0-3.44,2.37c-1.34,1.69-1.08,4.08-.83,6.13.09.73.3,1.81-.31,2.38a2.36,2.36,0,0,1-2.53-.06c-.58-.36-1-1-1.67-1.16s-1.69,0-1.95-.67a3.92,3.92,0,0,0-.15-.59c-.33-.6-1.37,0-1.88-.5a1.1,1.1,0,0,1-.1-1.19,2.73,2.73,0,0,0,.36-1.22,3.88,3.88,0,0,0-.38-1,1.93,1.93,0,0,1,.48-2c1-.92,2.65-.55,3.68-1.39a4.11,4.11,0,0,0,1.06-1.79,3.6,3.6,0,0,1,1.12-1.74c.7-.5,1.61-.3,2.32-.9a12.56,12.56,0,0,1,1.17-1.14,8.58,8.58,0,0,1,2.42-.78A3,3,0,0,1,285.52,111.43Z"/><path class="cls-8" d="M289.54,121.64c-.18,2-1.4,4-.68,5.9s3,2.44,5,2.74c.32.06,4.43.86,4.46.78a13.79,13.79,0,0,1,1.79-3.87,4.48,4.48,0,0,1,3.58-2,.86.86,0,0,1-.45-1,6.51,6.51,0,0,1,.51-1.15,2.81,2.81,0,0,0-.42-2.88c-1.33-1.53-4.05-1.25-5.14-3-.68-1.06-.43-2.46-.72-3.7-.54-2.39-3-3.14-4.78-4.38a9.07,9.07,0,0,0-6-2c-2.9.16-5.33,2.83-4.52,5.68,1,3.65,6.69,4,7.36,7.62A4.73,4.73,0,0,1,289.54,121.64Z"/><polygon class="cls-11" points="287.68 129.23 283.37 135.33 281.34 135.16 277.96 128.98 287.68 129.23"/><path class="cls-9" d="M278,129l-7.84.43s-8.79,4.32-9.37,4-10.09-19.36-10.09-19.36L246,115.56l5.82,21.77,5.63,5.82,15.91-2.65Z"/><path class="cls-10" d="M246.73,115.3l-1.25-1.87c-.45-.68.19-3.42.25-4.28,0-.49,2.36.52,2.57.8.36.49.35,2,.5,2.7l1.2.46-.16,1.63Z"/><polygon class="cls-8" points="82.12 58.93 57.63 47.86 57.63 18.41 82.12 29.48 82.12 58.93"/><polygon class="cls-8" points="82.12 58.93 106.61 47.86 106.61 18.41 82.12 29.48 82.12 58.93"/><polygon class="cls-9" points="57.63 18.41 82.12 29.48 106.61 18.41 82.12 8.36 57.63 18.41"/><polygon class="cls-8" points="277.69 42.49 257.11 33.19 257.11 8.44 277.69 17.74 277.69 42.49"/><polygon class="cls-8" points="277.69 42.49 298.27 33.19 298.27 8.44 277.69 17.74 277.69 42.49"/><polygon class="cls-9" points="257.11 8.44 277.69 17.74 298.27 8.44 277.69 0 257.11 8.44"/><path class="cls-5" d="M153.19,66l-2.89-1.31.51-1.12,2.89,1.3Zm-5.14-2.33-3.37-1.52.51-1.13,3.37,1.53Zm-5.62-2.54-3.37-1.53.51-1.12L142.94,60Zm-5.61-2.55-3.38-1.52.51-1.13,3.37,1.53ZM131.2,56l-3.38-1.53.51-1.12,3.38,1.52Zm-5.62-2.55L122.21,52l.5-1.13,3.38,1.53ZM120,50.94l-3.37-1.53.51-1.12,3.37,1.52Zm-5.62-2.55L111,46.87l.51-1.13,3.37,1.53Zm-5.62-2.54-3.37-1.53.51-1.12,3.37,1.52ZM103.1,43.3l-3.37-1.52.51-1.13,3.37,1.53Zm-5.62-2.54-3.37-1.53.51-1.12L98,39.63Z"/><path class="cls-5" d="M32.5,66.09l-.73-1L33.29,64,34,65ZM36,63.49l-.74-1,3-2.21.73,1Zm5-3.68-.74-1,3-2.2.74,1Zm5-3.67-.73-1,3-2.2.73,1Zm5-3.67-.74-1,3-2.21.73,1Zm4.95-3.67-.73-1,3-2.2.74,1Zm5-3.68-.74-1,3-2.2.73,1Zm5-3.67-.74-1,3-2.21.74,1Z"/><polygon class="cls-8" points="23.86 102.37 3.28 93.07 3.28 68.32 23.86 77.62 23.86 102.37"/><polygon class="cls-8" points="23.86 102.37 44.43 93.07 44.43 68.32 23.86 77.62 23.86 102.37"/><polygon class="cls-9" points="3.28 68.32 23.86 77.62 44.43 68.32 23.86 59.88 3.28 68.32"/><path class="cls-5" d="M152.21,71.76l-.45-1.14.1,0,.46,1.14Zm2.4-1-.46-1.14,3.44-1.37.46,1.15Zm5.73-2.28-.45-1.14L163.33,66l.45,1.15Zm5.74-2.27-.46-1.15,3.44-1.37.45,1.15ZM171.81,64l-.46-1.15,3.44-1.36.46,1.14Zm5.73-2.28-.45-1.15,3.43-1.36.46,1.14Zm5.73-2.28-.45-1.14,3.44-1.37.45,1.15ZM189,57.15,188.55,56,192,54.63l.46,1.15Zm5.73-2.28-.46-1.15,3.44-1.37.46,1.15Zm5.73-2.28L200,51.44l3.44-1.36.45,1.14Zm5.73-2.28-.45-1.14,3.44-1.37.45,1.15ZM211.94,48l-.46-1.15,3.44-1.37.46,1.15Zm5.73-2.28-.46-1.15,3.44-1.37.46,1.15Zm5.73-2.28L223,42.33,226.39,41l.45,1.14Zm5.73-2.28-.45-1.14,3.44-1.37.45,1.15Zm5.74-2.28-.46-1.14,3.44-1.37.46,1.15Zm5.73-2.27-.46-1.15,3.44-1.37.46,1.15Zm5.73-2.28-.45-1.15,3.44-1.36.45,1.14Zm5.73-2.28-.45-1.15,3.44-1.36.45,1.14Zm5.74-2.28-.46-1.14,3.44-1.37.46,1.15Zm5.73-2.27-.46-1.15L266.51,25l.46,1.15Z"/><polygon class="cls-8" points="172.85 105.71 131.12 86.86 131.12 36.67 172.85 55.53 172.85 105.71"/><polygon class="cls-8" points="172.85 105.71 214.57 86.86 214.57 36.67 172.85 55.53 172.85 105.71"/><polygon class="cls-9" points="131.12 36.67 172.85 55.53 214.57 36.67 172.85 19.56 131.12 36.67"/><path class="cls-5" d="M241.87,93.43l-3.37-1.51.5-1.13,3.38,1.52Zm-5.63-2.52-3.37-1.51.5-1.13,3.38,1.52Zm-5.63-2.52-3.37-1.51.5-1.13,3.38,1.52ZM225,85.87l-3.37-1.51.5-1.13,3.38,1.51Zm-5.63-2.52L216,81.84l.5-1.13,3.38,1.51Zm-5.63-2.52-3.37-1.51.5-1.13,3.38,1.51Zm-5.63-2.52-3.37-1.51.5-1.13,3.38,1.51Zm-5.63-2.52-3.37-1.52.5-1.12L203,74.66Zm-5.63-2.52-3.37-1.52.5-1.12,3.38,1.51Z"/><path class="cls-5" d="M118.16,93.86l-.67-1,3.11-2,.67,1Zm5.18-3.36-.67-1,3.1-2,.67,1Zm5.17-3.35-.67-1,3.11-2,.67,1Zm5.18-3.36-.67-1,3.1-2,.67,1Zm5.17-3.36-.67-1,3.11-2,.67,1ZM144,77.08l-.67-1,3.1-2,.67,1Zm5.18-3.36-.68-1,3.11-2,.67,1Z"/><polygon class="cls-8" points="103.89 146.82 75.36 133.92 75.36 99.61 103.89 112.5 103.89 146.82"/><polygon class="cls-8" points="103.89 146.82 132.43 133.92 132.43 99.61 103.89 112.5 103.89 146.82"/><polygon class="cls-9" points="75.36 99.61 103.89 112.5 132.43 99.61 103.89 87.9 75.36 99.61"/><polygon class="cls-8" points="257.82 117.11 229.29 104.22 229.29 69.9 257.82 82.8 257.82 117.11"/><polygon class="cls-8" points="257.82 117.11 286.35 104.22 286.35 69.9 257.82 82.8 257.82 117.11"/><polygon class="cls-9" points="229.29 69.9 257.82 82.8 286.35 69.9 257.82 58.2 229.29 69.9"/><path class="cls-10" d="M283.22,169.38a4.08,4.08,0,0,1-3.2,1.45c-.48-.06-.95-.15-1.42-.25a2.53,2.53,0,0,1-1-.43,1,1,0,0,1-.36-1c.18-.52.81-.66,1.27-.94a6.77,6.77,0,0,0,1.38-1.49c1-1.16,2.43-1.27,3.75-1.89a7,7,0,0,1,.84.87c.48.53.52.65.25,1.33A7.18,7.18,0,0,1,283.22,169.38Z"/><polygon class="cls-9" points="292.25 130.01 303.53 147.2 301.84 156.77 284.36 168.88 281.08 166 292.76 151.23 292.31 141.9 292.25 130.01"/></svg>