<svg xmlns="http://www.w3.org/2000/svg" xmlns:xlink="http://www.w3.org/1999/xlink" viewBox="0 0 601.72 379.51"><defs><style>.cls-1{isolation:isolate;}.cls-2{fill:#13426f;}.cls-3{fill:url(#linear-gradient);}.cls-4{fill:url(#linear-gradient-2);}.cls-5{fill:url(#linear-gradient-3);}.cls-6{fill:url(#linear-gradient-4);}.cls-7{fill:url(#linear-gradient-5);}.cls-8{fill:url(#linear-gradient-6);}.cls-9{fill:url(#linear-gradient-7);}.cls-10{fill:#d1d9e6;}.cls-11{fill:url(#linear-gradient-8);}.cls-12{fill:url(#linear-gradient-9);}.cls-13{fill:url(#linear-gradient-10);}.cls-14{fill:url(#linear-gradient-11);}.cls-15{fill:url(#linear-gradient-12);}.cls-16{fill:url(#linear-gradient-13);}.cls-17{fill:url(#linear-gradient-14);}.cls-18{fill:url(#linear-gradient-15);}.cls-19{fill:url(#linear-gradient-16);}.cls-20{fill:url(#linear-gradient-17);}.cls-21{fill:url(#linear-gradient-18);}.cls-22{fill:url(#linear-gradient-19);}.cls-23{fill:url(#linear-gradient-20);}.cls-24{fill:url(#linear-gradient-21);}.cls-25{fill:url(#linear-gradient-22);}.cls-26{fill:url(#linear-gradient-23);}.cls-27{fill:url(#linear-gradient-24);}.cls-28{fill:url(#linear-gradient-25);}.cls-29{fill:url(#linear-gradient-26);}.cls-30{fill:url(#linear-gradient-27);}.cls-31{fill:url(#linear-gradient-28);}.cls-32{fill:url(#linear-gradient-29);}.cls-33{fill:url(#linear-gradient-30);}.cls-34{fill:url(#linear-gradient-31);}.cls-35{fill:url(#linear-gradient-32);}.cls-36{fill:url(#linear-gradient-33);}.cls-37{fill:url(#linear-gradient-34);}.cls-38{fill:url(#linear-gradient-35);}.cls-39{fill:url(#linear-gradient-36);}.cls-40{fill:url(#linear-gradient-37);}.cls-41{fill:url(#linear-gradient-38);}.cls-42{fill:url(#linear-gradient-39);}.cls-43{fill:url(#linear-gradient-43);}.cls-44{fill:url(#linear-gradient-44);}.cls-45{fill:url(#linear-gradient-45);}.cls-46{fill:url(#linear-gradient-46);}.cls-47{fill:url(#linear-gradient-47);}.cls-48{fill:url(#linear-gradient-48);}.cls-49{fill:url(#linear-gradient-49);}.cls-50{fill:url(#linear-gradient-50);}.cls-51{fill:url(#linear-gradient-51);}.cls-52{fill:url(#linear-gradient-52);}.cls-53{fill:url(#linear-gradient-53);}.cls-54{fill:url(#linear-gradient-54);}.cls-55{fill:url(#linear-gradient-55);}.cls-56{fill:url(#linear-gradient-56);}.cls-57{fill:url(#linear-gradient-57);}.cls-58{fill:url(#Degradado_sin_nombre_78);}.cls-59{fill:url(#Degradado_sin_nombre_78-2);}.cls-60{fill:url(#Degradado_sin_nombre_78-3);}.cls-61{fill:url(#Degradado_sin_nombre_78-4);}.cls-62{fill:url(#Degradado_sin_nombre_78-5);}.cls-63{fill:url(#Degradado_sin_nombre_78-6);}.cls-64{fill:#fff;}.cls-65{fill:url(#Degradado_sin_nombre_78-7);}.cls-66{fill:url(#Degradado_sin_nombre_78-8);}.cls-67{fill:url(#Degradado_sin_nombre_78-9);}.cls-68{fill:url(#Degradado_sin_nombre_78-10);}.cls-69{fill:url(#Degradado_sin_nombre_78-11);}.cls-70{fill:url(#Degradado_sin_nombre_78-12);}.cls-71{fill:url(#Degradado_sin_nombre_78-13);}.cls-72{fill:url(#Degradado_sin_nombre_78-14);}.cls-73{fill:url(#Degradado_sin_nombre_78-15);}.cls-74{fill:url(#Degradado_sin_nombre_78-16);}.cls-75{fill:url(#Degradado_sin_nombre_78-17);}.cls-76{fill:url(#Degradado_sin_nombre_78-18);}.cls-77{fill:url(#Degradado_sin_nombre_78-19);}.cls-78{fill:url(#linear-gradient-58);}.cls-79{fill:url(#linear-gradient-59);}.cls-80{fill:url(#linear-gradient-60);}.cls-81{fill:url(#linear-gradient-61);}.cls-82{fill:url(#linear-gradient-62);}.cls-83{fill:url(#linear-gradient-63);}.cls-84{fill:url(#linear-gradient-64);}.cls-85{fill:url(#linear-gradient-65);}.cls-86{fill:url(#linear-gradient-66);}.cls-87{mix-blend-mode:screen;}</style><linearGradient id="linear-gradient" x1="128.35" y1="259.17" x2="250.02" y2="259.17" gradientUnits="userSpaceOnUse"><stop offset="0" stop-color="#07619e"/><stop offset="1" stop-color="#3085c7"/></linearGradient><linearGradient id="linear-gradient-2" x1="128.33" y1="224.45" x2="128.48" y2="224.45" xlink:href="#linear-gradient"/><linearGradient id="linear-gradient-3" x1="37.65" y1="303.44" x2="128.86" y2="303.44" xlink:href="#linear-gradient"/><linearGradient id="linear-gradient-4" x1="127.95" y1="329.14" x2="128.2" y2="329.14" xlink:href="#linear-gradient"/><linearGradient id="linear-gradient-5" x1="128.33" y1="224.3" x2="128.98" y2="224.3" xlink:href="#linear-gradient"/><linearGradient id="linear-gradient-6" x1="210.49" y1="279.45" x2="219.16" y2="279.45" xlink:href="#linear-gradient"/><linearGradient id="linear-gradient-7" x1="218.94" y1="171.45" x2="219.55" y2="171.45" xlink:href="#linear-gradient"/><linearGradient id="linear-gradient-8" x1="37.61" y1="277.28" x2="37.65" y2="277.28" xlink:href="#linear-gradient"/><linearGradient id="linear-gradient-9" x1="128.33" y1="224.58" x2="128.98" y2="224.58" xlink:href="#linear-gradient"/><linearGradient id="linear-gradient-10" x1="219.16" y1="276.62" x2="219.69" y2="276.62" xlink:href="#linear-gradient"/><linearGradient id="linear-gradient-11" x1="37.27" y1="198.45" x2="128.82" y2="198.45" xlink:href="#linear-gradient"/><linearGradient id="linear-gradient-12" x1="128.33" y1="224.3" x2="128.82" y2="224.3" xlink:href="#linear-gradient"/><linearGradient id="linear-gradient-13" x1="128.44" y1="197.99" x2="219.55" y2="197.99" xlink:href="#linear-gradient"/><linearGradient id="linear-gradient-14" x1="128.82" y1="224.69" x2="128.98" y2="224.69" xlink:href="#linear-gradient"/><linearGradient id="linear-gradient-15" x1="219.55" y1="171.88" x2="219.69" y2="171.88" xlink:href="#linear-gradient"/><linearGradient id="linear-gradient-16" x1="246.84" y1="187.26" x2="309.9" y2="187.26" xlink:href="#linear-gradient"/><linearGradient id="linear-gradient-17" x1="246.8" y1="223.66" x2="309.9" y2="223.66" xlink:href="#linear-gradient"/><linearGradient id="linear-gradient-18" x1="225.8" y1="205.45" x2="267.84" y2="205.45" xlink:href="#linear-gradient"/><linearGradient id="linear-gradient-19" x1="259.77" y1="93.74" x2="308.89" y2="93.74" xlink:href="#linear-gradient"/><linearGradient id="linear-gradient-20" x1="299.85" y1="101.58" x2="339.93" y2="101.58" xlink:href="#linear-gradient"/><linearGradient id="linear-gradient-21" x1="259.77" y1="128.46" x2="330.9" y2="128.46" xlink:href="#linear-gradient"/><linearGradient id="linear-gradient-22" x1="194.17" y1="268.1" x2="267" y2="268.1" xlink:href="#linear-gradient"/><linearGradient id="linear-gradient-23" x1="230.65" y1="299.58" x2="267.15" y2="299.58" xlink:href="#linear-gradient"/><linearGradient id="linear-gradient-24" x1="194.17" y1="299.71" x2="230.81" y2="299.71" xlink:href="#linear-gradient"/><linearGradient id="linear-gradient-25" x1="371.61" y1="226.68" x2="419.5" y2="226.68" xlink:href="#linear-gradient"/><linearGradient id="linear-gradient-26" x1="348.02" y1="261.13" x2="419.5" y2="261.13" xlink:href="#linear-gradient"/><linearGradient id="linear-gradient-27" x1="339.93" y1="233.69" x2="379.71" y2="233.69" xlink:href="#linear-gradient"/><linearGradient id="linear-gradient-28" x1="327.71" y1="178.68" x2="359.24" y2="178.68" xlink:href="#linear-gradient"/><linearGradient id="linear-gradient-29" x1="327.69" y1="196.88" x2="359.24" y2="196.88" xlink:href="#linear-gradient"/><linearGradient id="linear-gradient-30" x1="317.19" y1="187.78" x2="338.21" y2="187.78" xlink:href="#linear-gradient"/><linearGradient id="linear-gradient-31" x1="334.17" y1="131.92" x2="358.74" y2="131.92" xlink:href="#linear-gradient"/><linearGradient id="linear-gradient-32" x1="354.21" y1="135.84" x2="374.26" y2="135.84" xlink:href="#linear-gradient"/><linearGradient id="linear-gradient-33" x1="334.17" y1="149.28" x2="369.74" y2="149.28" xlink:href="#linear-gradient"/><linearGradient id="linear-gradient-34" x1="296.18" y1="256.72" x2="328.45" y2="256.72" xlink:href="#linear-gradient"/><linearGradient id="linear-gradient-35" x1="317.18" y1="266.47" x2="338.19" y2="266.47" xlink:href="#linear-gradient"/><linearGradient id="linear-gradient-36" x1="296.18" y1="274.91" x2="326.93" y2="274.91" xlink:href="#linear-gradient"/><linearGradient id="linear-gradient-37" x1="409.13" y1="114.11" x2="441.4" y2="114.11" xlink:href="#linear-gradient"/><linearGradient id="linear-gradient-38" x1="430.13" y1="123.86" x2="451.14" y2="123.86" xlink:href="#linear-gradient"/><linearGradient id="linear-gradient-39" x1="409.13" y1="132.3" x2="439.88" y2="132.3" xlink:href="#linear-gradient"/><linearGradient id="linear-gradient-43" x1="425.3" y1="278.69" x2="461.47" y2="278.69" xlink:href="#linear-gradient"/><linearGradient id="linear-gradient-44" x1="444.59" y1="293.31" x2="463.89" y2="293.31" xlink:href="#linear-gradient"/><linearGradient id="linear-gradient-45" x1="425.3" y1="295.4" x2="447" y2="295.4" xlink:href="#linear-gradient"/><linearGradient id="linear-gradient-46" x1="533.72" y1="233.58" x2="581.6" y2="233.58" xlink:href="#linear-gradient"/><linearGradient id="linear-gradient-47" x1="510.12" y1="268.03" x2="581.6" y2="268.03" xlink:href="#linear-gradient"/><linearGradient id="linear-gradient-48" x1="502.04" y1="240.6" x2="541.82" y2="240.6" xlink:href="#linear-gradient"/><linearGradient id="linear-gradient-49" x1="436.57" y1="199.52" x2="481.42" y2="199.52" xlink:href="#linear-gradient"/><linearGradient id="linear-gradient-50" x1="465.99" y1="212.88" x2="495.42" y2="212.88" xlink:href="#linear-gradient"/><linearGradient id="linear-gradient-51" x1="436.57" y1="225" x2="479.99" y2="225" xlink:href="#linear-gradient"/><linearGradient id="linear-gradient-52" x1="377.28" y1="174.63" x2="405.57" y2="174.63" xlink:href="#linear-gradient"/><linearGradient id="linear-gradient-53" x1="384.4" y1="156.3" x2="433.87" y2="156.3" xlink:href="#linear-gradient"/><linearGradient id="linear-gradient-54" x1="398.45" y1="180.8" x2="433.87" y2="180.8" xlink:href="#linear-gradient"/><linearGradient id="linear-gradient-55" x1="469.6" y1="119.21" x2="519.88" y2="119.21" xlink:href="#linear-gradient"/><linearGradient id="linear-gradient-56" x1="497.17" y1="138.87" x2="524.75" y2="138.87" xlink:href="#linear-gradient"/><linearGradient id="linear-gradient-57" x1="469.6" y1="143.09" x2="502.04" y2="143.09" xlink:href="#linear-gradient"/><linearGradient id="Degradado_sin_nombre_78" x1="547.71" y1="176.04" x2="587.9" y2="176.04" gradientTransform="translate(441.75 -404.91) rotate(60.53)" gradientUnits="userSpaceOnUse"><stop offset="0" stop-color="#a8dff1" stop-opacity="0.2"/><stop offset="1" stop-color="#fff"/></linearGradient><linearGradient id="Degradado_sin_nombre_78-2" x1="510.95" y1="139.97" x2="587.67" y2="139.97" gradientTransform="matrix(1, 0, 0, 1, 0, 0)" xlink:href="#Degradado_sin_nombre_78"/><linearGradient id="Degradado_sin_nombre_78-3" x1="480.59" y1="219.78" x2="510.3" y2="219.78" gradientTransform="translate(484.54 -322.12) rotate(64.93)" xlink:href="#Degradado_sin_nombre_78"/><linearGradient id="Degradado_sin_nombre_78-4" x1="439.63" y1="170.79" x2="459.25" y2="170.79" gradientTransform="translate(76.87 -133.11) rotate(18.4)" xlink:href="#Degradado_sin_nombre_78"/><linearGradient id="Degradado_sin_nombre_78-5" x1="444.32" y1="250.13" x2="454.5" y2="250.13" gradientTransform="translate(614.77 -236.89) rotate(79.66)" xlink:href="#Degradado_sin_nombre_78"/><linearGradient id="Degradado_sin_nombre_78-6" x1="403.13" y1="280.78" x2="436.31" y2="280.78" gradientTransform="matrix(1, 0, 0, 1, 0, 0)" xlink:href="#Degradado_sin_nombre_78"/><linearGradient id="Degradado_sin_nombre_78-7" x1="430.41" y1="173.31" x2="449.51" y2="173.31" gradientTransform="translate(65.31 -115.2) rotate(16.1)" xlink:href="#Degradado_sin_nombre_78"/><linearGradient id="Degradado_sin_nombre_78-8" x1="364.07" y1="160.83" x2="380.43" y2="160.83" gradientTransform="matrix(1, 0, 0, 1, 0, 0)" xlink:href="#Degradado_sin_nombre_78"/><linearGradient id="Degradado_sin_nombre_78-9" x1="316.15" y1="164.34" x2="327.2" y2="164.34" gradientTransform="translate(43.78 -66.44) rotate(12.65)" xlink:href="#Degradado_sin_nombre_78"/><linearGradient id="Degradado_sin_nombre_78-10" x1="279.63" y1="240.19" x2="311.75" y2="240.19" gradientTransform="matrix(1, 0, 0, 1, 0, 0)" xlink:href="#Degradado_sin_nombre_78"/><linearGradient id="Degradado_sin_nombre_78-11" x1="316.95" y1="222.16" x2="356.19" y2="222.16" gradientTransform="matrix(1, 0, 0, 1, 0, 0)" xlink:href="#Degradado_sin_nombre_78"/><linearGradient id="Degradado_sin_nombre_78-12" x1="319.65" y1="77.61" x2="340.17" y2="77.61" gradientTransform="matrix(1, 0, 0, 1, 0, 0)" xlink:href="#Degradado_sin_nombre_78"/><linearGradient id="Degradado_sin_nombre_78-13" x1="251.25" y1="311.5" x2="329.86" y2="311.5" gradientTransform="matrix(1, 0, 0, 1, 0, 0)" xlink:href="#Degradado_sin_nombre_78"/><linearGradient id="Degradado_sin_nombre_78-14" x1="301.35" y1="305.27" x2="322.2" y2="305.27" gradientTransform="translate(307.17 -131.05) rotate(45)" xlink:href="#Degradado_sin_nombre_78"/><linearGradient id="Degradado_sin_nombre_78-15" x1="388.6" y1="293.3" x2="416.36" y2="293.3" gradientTransform="translate(341.62 -200.98) rotate(46.9)" xlink:href="#Degradado_sin_nombre_78"/><linearGradient id="Degradado_sin_nombre_78-16" x1="368.78" y1="88.53" x2="398.73" y2="88.53" gradientTransform="matrix(1, 0, 0, 1, 0, 0)" xlink:href="#Degradado_sin_nombre_78"/><linearGradient id="Degradado_sin_nombre_78-17" x1="516.93" y1="180.8" x2="536.34" y2="180.8" gradientTransform="matrix(1, 0, 0, 1, 0, 0)" xlink:href="#Degradado_sin_nombre_78"/><linearGradient id="Degradado_sin_nombre_78-18" x1="479.21" y1="298.03" x2="510.27" y2="298.03" gradientTransform="matrix(1, 0, 0, 1, 0, 0)" xlink:href="#Degradado_sin_nombre_78"/><linearGradient id="Degradado_sin_nombre_78-19" x1="337" y1="289.12" x2="355.02" y2="289.12" gradientTransform="matrix(1, 0, 0, 1, 0, 0)" xlink:href="#Degradado_sin_nombre_78"/><linearGradient id="linear-gradient-58" x1="1824.92" y1="316.43" x2="1897.75" y2="316.43" gradientTransform="matrix(-1, 0, 0, 1, 1923.28, 0)" xlink:href="#linear-gradient"/><linearGradient id="linear-gradient-59" x1="1861.4" y1="347.9" x2="1897.9" y2="347.9" gradientTransform="matrix(-1, 0, 0, 1, 1923.28, 0)" xlink:href="#linear-gradient"/><linearGradient id="linear-gradient-60" x1="1824.92" y1="348.03" x2="1861.55" y2="348.03" gradientTransform="matrix(-1, 0, 0, 1, 1923.28, 0)" xlink:href="#linear-gradient"/><linearGradient id="linear-gradient-61" x1="1845.47" y1="273.64" x2="1918.3" y2="273.64" gradientTransform="matrix(-1, 0, 0, 1, 1923.28, 0)" xlink:href="#linear-gradient"/><linearGradient id="linear-gradient-62" x1="1881.95" y1="305.11" x2="1918.45" y2="305.11" gradientTransform="matrix(-1, 0, 0, 1, 1923.28, 0)" xlink:href="#linear-gradient"/><linearGradient id="linear-gradient-63" x1="1845.47" y1="305.24" x2="1882.11" y2="305.24" gradientTransform="matrix(-1, 0, 0, 1, 1923.28, 0)" xlink:href="#linear-gradient"/><linearGradient id="linear-gradient-64" x1="1819.51" y1="230.34" x2="1892.34" y2="230.34" gradientTransform="matrix(-1, 0, 0, 1, 1923.28, 0)" xlink:href="#linear-gradient"/><linearGradient id="linear-gradient-65" x1="1855.99" y1="261.82" x2="1892.49" y2="261.82" gradientTransform="matrix(-1, 0, 0, 1, 1923.28, 0)" xlink:href="#linear-gradient"/><linearGradient id="linear-gradient-66" x1="1819.51" y1="261.95" x2="1856.15" y2="261.95" gradientTransform="matrix(-1, 0, 0, 1, 1923.28, 0)" xlink:href="#linear-gradient"/></defs><title>IoT and Blockchain are Taking World by Storm</title><g class="cls-1"><g id="Layer_1" data-name="Layer 1"><path class="cls-2" d="M436,231.43a11.73,11.73,0,0,0-1.31-3.33,10,10,0,0,0-3.65-3.42c.15-.36.3-.74.44-1.12l.19-.5a.65.65,0,0,0-.36-.85l-3.47-1.35a.67.67,0,0,0-.85.36l-.19.51c-.14.39-.29.77-.44,1.09a9.07,9.07,0,0,0-3.84-.19,9.38,9.38,0,0,0-2.59.7,10.73,10.73,0,0,0-1.63,1c-.25.18-.48.36-.74.52a7.33,7.33,0,0,0-2.32,2.86,10.81,10.81,0,0,0-1.36,5.78,9,9,0,0,0,.33,2.29,11.28,11.28,0,0,0,1.9,3.6,17.56,17.56,0,0,0,2.72,2.73c-.68,1.73-1.35,3.47-2,5.2l-.56,1.42a6.29,6.29,0,0,1-.37-4.16.68.68,0,0,0-.1-.5.65.65,0,0,0-.4-.28l-.66-.15c-.46-.09-.9-.18-1.34-.29-.72-.2-1.42-.42-2.13-.63l-1.41-.41a3.91,3.91,0,0,0-.56-.12l-.28,0a.64.64,0,0,0-.76.57l-.1,1c-.08.68-.14,1.36-.22,2a10.81,10.81,0,0,0,1.74,7,11,11,0,0,0,1.56,1.76,19.39,19.39,0,0,0,2.15,1.66c-.17.39-.33.81-.48,1.21l-.21.55a.64.64,0,0,0,.36.84l3.45,1.34a.64.64,0,0,0,.83-.33l.05-.13a3.36,3.36,0,0,1,.16-.33l.19-.5c.12-.31.24-.62.37-.92l1.27.1,1.07.11a10.5,10.5,0,0,0,8.89-4.24,15.07,15.07,0,0,0,1.54-2.76,9.58,9.58,0,0,0,.52-1.74l.19-.71a4.86,4.86,0,0,0,.19-1.19v-.19a8.52,8.52,0,0,0-.28-2.63,9.5,9.5,0,0,0-1.77-3.39,23.46,23.46,0,0,0-1.82-2c-.5-.48-1-.92-1.58-1.35l-.29-.26,2.34-6a3.57,3.57,0,0,1,.14,2,1.13,1.13,0,0,0,.12.91,1.1,1.1,0,0,0,.76.48c.64.13,1.26.28,1.89.43l2.58.66,1.23.33a.67.67,0,0,0,.53-.1.63.63,0,0,0,.27-.49l.13-1.46c.05-.51.09-1,.12-1.54A3.93,3.93,0,0,0,436,231.43ZM423.76,249.1a3.67,3.67,0,0,1-3.08,2.24l2.3-5.88A3.27,3.27,0,0,1,423.76,249.1Zm-2.1-17.45a3.57,3.57,0,0,1,2.08-2.09L422,234A4.12,4.12,0,0,1,421.66,231.65Z"/><path class="cls-2" d="M282.28,319.82l-.84-.3,2.43-7c2-5.84-1.39-12.33-7.62-14.49l-1.51-.53c-6.21-2.16-12.92.83-14.95,6.66l-2.43,7-.84-.3a5.42,5.42,0,0,0-7,3.12l-7.83,22.57a5.42,5.42,0,0,0,3.55,6.77L271,352.26a5.43,5.43,0,0,0,7-3.1l7.82-22.58A5.4,5.4,0,0,0,282.28,319.82Zm-12.07,7.68L270,328a4,4,0,0,1-3.06,2.58l-.35.07-3.38,9.77a2,2,0,0,1-3.86-1.34l3.46-10-.18-.26a4,4,0,0,1-.55-3.59l.17-.49a4.12,4.12,0,0,1,5.28-2.44,4.28,4.28,0,0,1,2.4,2.08A3.91,3.91,0,0,1,270.21,327.5Zm6.65-17.43-2.43,7-10.06-3.49,2.44-7a4.37,4.37,0,0,1,5.65-2.5l1.52.52A4.39,4.39,0,0,1,276.86,310.07Z"/><path class="cls-2" d="M548.34,298.18a1,1,0,0,1-.26.8c-.49.57-1,1.17-1.6,1.76a10.17,10.17,0,0,1-4.18,2.5c-.61.21-1.24.35-1.85.51-.36.08-.74.17-1.1.27-.63.17-1.29.38-1.94.61l-.1,0a4.47,4.47,0,0,0-1.06.47,7.7,7.7,0,0,0-1.3,1.14,10.73,10.73,0,0,0-1,1.28l-.13.19a3.3,3.3,0,0,0-.28.5c-.05.09-.09.19-.14.28a.57.57,0,0,1-.18.2.65.65,0,0,1-.13,0,.47.47,0,0,1-.38-.08l-.48-.38-.92-.73-1.94-1.48a.69.69,0,0,1-.22-.1c-.69-.51-.74-.73-.42-1.55l.12-.29a8.21,8.21,0,0,0,.65-2.58,6.22,6.22,0,0,0-.52-3.15q-.12-.26-.27-.51l-2.87,1.6a.46.46,0,0,1-.62-.18l-2.13-3.81a.46.46,0,0,1,.18-.61l1.81-1-.41-.5-1-1.18c-.18-.22-.36-.46-.52-.7a7.63,7.63,0,0,1-1.07-2.54,7.33,7.33,0,0,1-.15-2.64,8.44,8.44,0,0,1,1-3.06,5.19,5.19,0,0,1,.51-.75,9.41,9.41,0,0,1,2.39-2.24c.17-.11.33-.23.5-.33a5,5,0,0,1,1-.6,10.73,10.73,0,0,1,3-1,7.3,7.3,0,0,1,4.17.54,6.69,6.69,0,0,1,2,1.43c.49.52,1,1.06,1.44,1.59a.69.69,0,0,1,.12.42.78.78,0,0,1-.27.52c-.43.33-.87.66-1.32,1s-.74.55-1.1.84l-.81.63-.49.39a.66.66,0,0,1-.79.08l-.25-.25-.59-.59a2.76,2.76,0,0,0-1.45-.87,2.16,2.16,0,0,0-1.52.18,2.68,2.68,0,0,0-1.56,1.61,2.51,2.51,0,0,0,.06,1.66,5.48,5.48,0,0,0,1.08,1.68l.39.51a7.3,7.3,0,0,0,.68.69c.14.13.3.26.43.4l3.39-1.9,1.19-.66a.46.46,0,0,1,.63.17l2.1,3.79a.46.46,0,0,1-.16.63l-3.71,2.06a7,7,0,0,1,.48.9,6.25,6.25,0,0,1,.48,3.28c0,.26-.06.53-.1.79l.19-.13a8,8,0,0,1,1.42-.74,14.28,14.28,0,0,1,1.47-.43c.42-.1.82-.21,1.22-.34a8.71,8.71,0,0,0,2-.88,7.74,7.74,0,0,0,1.25-1.09l.26-.26a5.14,5.14,0,0,0,.47-.61l.15-.23a.76.76,0,0,1,.46-.31.7.7,0,0,1,.54.18l1.3,1,.84.6c.2.14.4.3.59.46l.38.3.27.16A1.14,1.14,0,0,1,548.34,298.18Z"/><polygon class="cls-2" points="249.51 153.81 128.41 224.32 128.35 224.32 6.74 154.7 127.84 84.18 249.51 153.81"/><polygon class="cls-3" points="249.51 153.81 250.02 293.95 128.87 364.52 128.35 224.32 128.41 224.32 249.51 153.81"/><polygon class="cls-2" points="128.35 224.32 128.87 364.52 7.25 294.84 6.74 154.7 128.35 224.32"/><polygon class="cls-4" points="128.48 224.56 128.33 224.47 128.33 224.33 128.44 224.4 128.48 224.42 128.48 224.56"/><polygon class="cls-5" points="128.86 328.76 128.86 329.58 128.14 329.16 127.95 329.06 37.65 277.32 37.65 277.31 127.95 329.01 128.2 329.14 128.86 328.76"/><polygon class="cls-6" points="127.95 329.01 128.2 329.14 128.14 329.16 127.95 329.28 127.95 329.01"/><polygon class="cls-7" points="128.82 224.62 128.98 224.69 128.87 224.76 128.82 224.76 128.48 224.56 128.33 224.47 128.33 224.12 128.82 223.84 128.82 224.62"/><polygon class="cls-8" points="219.16 276.93 219.16 277.01 210.49 281.97 219.16 276.93"/><polygon class="cls-9" points="219.55 171.09 219.55 171.8 218.94 171.45 219.55 171.09"/><polygon class="cls-10" points="219.16 276.32 219.16 276.93 210.49 281.97 128.87 329.5 128.82 329.5 128.2 329.14 127.95 329.01 37.65 277.31 37.65 277.25 128.31 224.47 128.33 224.47 128.48 224.56 128.82 224.76 128.87 224.76 128.98 224.69 219.16 276.32"/><polygon class="cls-11" points="37.61 277.28 37.65 277.25 37.65 277.31 37.61 277.28"/><polygon class="cls-12" points="128.48 224.56 128.33 224.47 128.33 224.46 128.44 224.4 128.48 224.42 128.82 224.62 128.98 224.69 128.87 224.76 128.82 224.76 128.48 224.56"/><polygon class="cls-13" points="219.69 276.62 219.16 276.93 219.16 276.32 219.69 276.62"/><polygon class="cls-14" points="128.82 223.84 128.33 224.12 128.33 224.47 128.31 224.47 37.65 277.25 37.27 172.2 37.73 172.46 37.74 172.46 128.44 119.65 128.82 223.84"/><polygon class="cls-15" points="128.82 223.84 128.82 224.76 128.48 224.56 128.33 224.47 128.33 224.12 128.82 223.84"/><polygon class="cls-16" points="219.55 171.8 219.55 171.97 219.16 276.32 128.98 224.69 128.82 224.62 128.82 223.84 128.44 119.65 218.94 171.45 219.55 171.8"/><polygon class="cls-17" points="128.98 224.69 128.87 224.76 128.82 224.76 128.82 224.62 128.98 224.69"/><polygon class="cls-18" points="219.69 171.88 219.55 171.97 219.55 171.8 219.69 171.88"/><polygon class="cls-19" points="309.9 205.47 267.86 205.46 267.85 205.45 246.84 169.04 288.88 169.05 309.9 205.47"/><polygon class="cls-20" points="309.9 205.47 288.87 241.88 246.8 241.87 267.85 205.45 267.86 205.46 309.9 205.47"/><polygon class="cls-21" points="267.85 205.45 246.8 241.87 225.81 205.44 246.84 169.04 267.85 205.45"/><polygon class="cls-22" points="308.89 66.86 299.86 107.92 299.85 107.93 259.77 120.63 268.81 79.57 308.89 66.86"/><polygon class="cls-23" points="308.89 66.86 339.93 95.22 330.9 136.3 299.85 107.93 299.86 107.92 308.89 66.86"/><polygon class="cls-24" points="299.85 107.93 330.9 136.3 290.81 148.99 259.77 120.63 299.85 107.93"/><polygon class="cls-25" points="267 267.97 230.67 289.12 230.66 289.12 194.17 268.24 230.5 247.08 267 267.97"/><polygon class="cls-26" points="267 267.97 267.15 310.01 230.81 331.18 230.66 289.12 230.67 289.12 267 267.97"/><polygon class="cls-27" points="230.66 289.12 230.81 331.18 194.32 310.28 194.17 268.24 230.66 289.12"/><polygon class="cls-28" points="419.5 254.12 379.72 240.5 379.71 240.49 371.61 199.24 411.39 212.85 419.5 254.12"/><polygon class="cls-29" points="419.5 254.12 387.82 281.76 348.02 268.15 379.71 240.49 379.72 240.5 419.5 254.12"/><polygon class="cls-30" points="379.71 240.49 348.02 268.15 339.93 226.88 371.61 199.24 379.71 240.49"/><polygon class="cls-31" points="359.24 187.79 338.22 187.78 338.21 187.78 327.71 169.57 348.73 169.58 359.24 187.79"/><polygon class="cls-32" points="359.24 187.79 348.72 205.99 327.69 205.99 338.21 187.78 338.22 187.78 359.24 187.79"/><polygon class="cls-33" points="338.21 187.78 327.69 205.99 317.19 187.77 327.71 169.57 338.21 187.78"/><polygon class="cls-34" points="358.74 118.48 354.22 139.01 354.21 139.02 334.18 145.37 338.69 124.84 358.74 118.48"/><polygon class="cls-35" points="358.74 118.48 374.26 132.66 369.74 153.2 354.21 139.02 354.22 139.01 358.74 118.48"/><polygon class="cls-36" points="354.21 139.02 369.74 153.2 349.69 159.54 334.18 145.37 354.21 139.02"/><polygon class="cls-37" points="328.45 248.27 317.19 266.02 317.18 266.03 296.18 265.16 307.44 247.4 328.45 248.27"/><polygon class="cls-38" points="328.45 248.27 338.19 266.9 326.93 284.66 317.18 266.03 317.19 266.02 328.45 248.27"/><polygon class="cls-39" points="317.18 266.03 326.93 284.66 305.93 283.78 296.18 265.16 317.18 266.03"/><polygon class="cls-40" points="441.39 105.66 430.14 123.42 430.13 123.42 409.13 122.55 420.39 104.79 441.39 105.66"/><polygon class="cls-41" points="441.39 105.66 451.14 124.29 439.88 142.05 430.13 123.42 430.14 123.42 441.39 105.66"/><polygon class="cls-42" points="430.13 123.42 439.88 142.05 418.88 141.17 409.13 122.55 430.13 123.42"/><polygon class="cls-37" points="328.45 248.27 317.19 266.02 317.18 266.03 296.18 265.16 307.44 247.4 328.45 248.27"/><polygon class="cls-38" points="328.45 248.27 338.19 266.9 326.93 284.66 317.18 266.03 317.19 266.02 328.45 248.27"/><polygon class="cls-39" points="317.18 266.03 326.93 284.66 305.93 283.78 296.18 265.16 317.18 266.03"/><polygon class="cls-43" points="461.47 276.6 444.6 289.13 444.59 289.13 425.3 280.78 442.17 268.25 461.47 276.6"/><polygon class="cls-44" points="461.47 276.6 463.89 297.48 447 310.02 444.59 289.13 444.6 289.13 461.47 276.6"/><polygon class="cls-45" points="444.59 289.13 447 310.02 427.71 301.67 425.3 280.78 444.59 289.13"/><polygon class="cls-46" points="581.6 261.02 541.83 247.41 541.82 247.4 533.72 206.14 573.5 219.75 581.6 261.02"/><polygon class="cls-47" points="581.6 261.02 549.92 288.66 510.12 275.05 541.82 247.4 541.83 247.41 581.6 261.02"/><polygon class="cls-48" points="541.82 247.4 510.12 275.05 502.04 233.79 533.72 206.14 541.82 247.4"/><polygon class="cls-49" points="481.42 187.4 466 212.46 465.99 212.47 436.57 211.64 451.99 186.58 481.42 187.4"/><polygon class="cls-50" points="481.42 187.4 495.42 213.29 479.99 238.37 465.99 212.47 466 212.46 481.42 187.4"/><polygon class="cls-51" points="465.99 212.47 479.99 238.37 450.57 237.53 436.57 211.64 465.99 212.47"/><polygon class="cls-52" points="384.4 150.13 405.57 170.57 405.57 170.58 398.45 199.13 377.28 178.69 384.4 150.13"/><polygon class="cls-53" points="384.4 150.13 412.69 142.01 433.87 162.46 405.57 170.58 405.57 170.57 384.4 150.13"/><polygon class="cls-54" points="405.57 170.58 433.87 162.46 426.74 191.02 398.45 199.13 405.57 170.58"/><polygon class="cls-55" points="519.88 114.99 497.18 133.72 497.17 133.72 469.6 123.42 492.3 104.69 519.88 114.99"/><polygon class="cls-56" points="519.88 114.99 524.75 144.01 502.04 162.76 497.17 133.72 497.18 133.72 519.88 114.99"/><polygon class="cls-57" points="497.17 133.72 502.04 162.76 474.47 152.45 469.6 123.42 497.17 133.72"/><rect class="cls-58" x="527.58" y="175.77" width="80.44" height="0.54" transform="translate(135.22 583.79) rotate(-60.53)"/><polygon class="cls-59" points="587.65 141.34 510.95 139.14 510.97 138.6 587.67 140.79 587.65 141.34"/><rect class="cls-60" x="495.17" y="203.5" width="0.54" height="32.55" transform="translate(86.41 575.39) rotate(-64.93)"/><rect class="cls-61" x="449.17" y="140.51" width="0.54" height="60.56" transform="translate(-30.93 150.57) rotate(-18.4)"/><rect class="cls-62" x="422.51" y="249.86" width="53.81" height="0.54" transform="translate(122.64 647.32) rotate(-79.66)"/><polygon class="cls-63" points="435.99 293.53 403.13 268.47 403.46 268.04 436.31 293.1 435.99 293.53"/><path class="cls-64" d="M587.09,137.64c-4.17,0-4.18,6.49,0,6.49S591.28,137.64,587.09,137.64Z"/><rect class="cls-65" x="430.1" y="173.04" width="19.73" height="0.54" transform="translate(-30.8 128.8) rotate(-16.1)"/><polygon class="cls-66" points="380.1 166.93 364.07 155.16 364.39 154.72 380.43 166.5 380.1 166.93"/><rect class="cls-67" x="321.4" y="140.3" width="0.54" height="48.07" transform="translate(-28.17 74.41) rotate(-12.65)"/><polygon class="cls-68" points="311.36 256.9 279.63 223.85 280.02 223.48 311.75 256.53 311.36 256.9"/><polygon class="cls-69" points="317.43 247.93 316.95 247.68 343.42 196.38 356.19 212.72 355.76 213.05 343.51 197.38 317.43 247.93"/><polygon class="cls-70" points="320.13 97.92 319.65 97.68 339.69 57.3 340.18 57.54 320.13 97.92"/><path class="cls-64" d="M340,53.45c-4.18,0-4.18,6.49,0,6.49S344.22,53.45,340,53.45Z"/><polygon class="cls-71" points="329.67 326.09 251.25 297.43 251.44 296.92 329.86 325.58 329.67 326.09"/><rect class="cls-72" x="297.29" y="305" width="28.98" height="0.54" transform="translate(-124.54 309.87) rotate(-45)"/><rect class="cls-73" x="382.47" y="293.03" width="40.02" height="0.54" transform="translate(-86.68 386.76) rotate(-46.9)"/><path class="cls-64" d="M448.29,168.1c-4.18,0-4.18,6.49,0,6.49S452.47,168.1,448.29,168.1Z"/><path class="cls-64" d="M416.11,275.72c-4.17,0-4.18,6.49,0,6.49S420.29,275.72,416.11,275.72Z"/><path class="cls-64" d="M388.53,305.47c-4.18,0-4.18,6.49,0,6.49S392.71,305.47,388.53,305.47Z"/><path class="cls-64" d="M329.45,322.77c-4.18,0-4.19,6.49,0,6.49S333.63,322.77,329.45,322.77Z"/><path class="cls-64" d="M301.73,312.63c-4.17,0-4.18,6.49,0,6.49S305.91,312.63,301.73,312.63Z"/><path class="cls-64" d="M321.34,291.54c-4.18,0-4.19,6.49,0,6.49S325.52,291.54,321.34,291.54Z"/><path class="cls-74" d="M385.17,105l-15-7,0-.16-1.4-16.32,13.56-9.46,15,7,0,.16,1.4,16.32Zm-14.46-7.37,14.41,6.74,13.05-9.11L396.8,79.42l-14.41-6.74-13.05,9.11Z"/><path class="cls-75" d="M524,190.5l-7.1-7.1,0-.15,2.56-9.56,9.7-2.6,7.11,7.11-.05.15-2.56,9.55Zm-6.5-7.26,6.66,6.66,9.1-2.44,2.44-9.1-6.66-6.66-9.1,2.44Z"/><path class="cls-76" d="M497.59,314.32l-15.53-5.68,0-.15-2.82-16.14,12.68-10.61,15.53,5.68,0,.15,2.82,16.14Zm-15-6.08,14.94,5.46,12.21-10.21-2.75-15.67L492,282.36l-12.2,10.21Z"/><path class="cls-77" d="M345.36,299.15,337,293.57l.66-10,9-4.44,8.35,5.58-.65,10Zm-7.8-5.86,7.84,5.24,8.45-4.17.61-9.4-7.83-5.24-8.45,4.17Z"/><polygon class="cls-78" points="25.53 316.29 61.86 337.45 61.88 337.45 98.36 316.56 62.03 295.4 25.53 316.29"/><polygon class="cls-79" points="25.53 316.29 25.38 358.33 61.73 379.51 61.88 337.45 61.86 337.45 25.53 316.29"/><polygon class="cls-80" points="61.88 337.45 61.73 379.51 98.21 358.6 98.36 316.56 61.88 337.45"/><polygon class="cls-81" points="4.98 273.5 41.31 294.66 41.33 294.66 77.81 273.77 41.48 252.61 4.98 273.5"/><polygon class="cls-82" points="4.98 273.5 4.83 315.55 41.17 336.72 41.33 294.66 41.31 294.66 4.98 273.5"/><polygon class="cls-83" points="41.33 294.66 41.17 336.72 77.66 315.81 77.81 273.77 41.33 294.66"/><polygon class="cls-84" points="30.94 230.21 67.27 251.37 67.29 251.37 103.77 230.48 67.44 209.32 30.94 230.21"/><polygon class="cls-85" points="30.94 230.21 30.79 272.25 67.13 293.43 67.29 251.37 67.27 251.37 30.94 230.21"/><polygon class="cls-86" points="67.29 251.37 67.13 293.43 103.62 272.52 103.77 230.48 67.29 251.37"/><g class="cls-87"><path class="cls-10" d="M351.67,56.7a11.5,11.5,0,1,1-11.5-11.5A11.49,11.49,0,0,1,351.67,56.7Z"/></g><g class="cls-87"><path class="cls-10" d="M459.78,171.35a11.5,11.5,0,1,1-11.49-11.5A11.49,11.49,0,0,1,459.78,171.35Z"/></g><g class="cls-87"><path class="cls-10" d="M427.61,279a11.5,11.5,0,1,1-11.5-11.5A11.49,11.49,0,0,1,427.61,279Z"/></g><g class="cls-87"><path class="cls-10" d="M400,308.71a11.5,11.5,0,1,1-11.5-11.49A11.49,11.49,0,0,1,400,308.71Z"/></g><g class="cls-87"><path class="cls-10" d="M313.23,315.87a11.5,11.5,0,1,1-11.5-11.49A11.5,11.5,0,0,1,313.23,315.87Z"/></g><g class="cls-87"><path class="cls-10" d="M332.83,294.78a11.5,11.5,0,1,1-11.5-11.49A11.5,11.5,0,0,1,332.83,294.78Z"/></g><g class="cls-87"><path class="cls-10" d="M340.94,326.09a11.5,11.5,0,1,1-11.49-11.49A11.49,11.49,0,0,1,340.94,326.09Z"/></g><g class="cls-87"><path class="cls-10" d="M598.59,140.93a11.5,11.5,0,1,1-11.5-11.49A11.49,11.49,0,0,1,598.59,140.93Z"/></g><g class="cls-87"><path class="cls-10" d="M474.43,123.42a4.83,4.83,0,1,1-4.83-4.82A4.83,4.83,0,0,1,474.43,123.42Z"/></g><g class="cls-87"><path class="cls-10" d="M506.87,162.76a4.83,4.83,0,1,1-4.83-4.83A4.82,4.82,0,0,1,506.87,162.76Z"/></g><g class="cls-87"><path class="cls-10" d="M384.54,240.49a4.83,4.83,0,1,1-4.83-4.82A4.83,4.83,0,0,1,384.54,240.49Z"/></g><g class="cls-87"><path class="cls-10" d="M254.34,153.2a4.83,4.83,0,1,1-4.83-4.83A4.83,4.83,0,0,1,254.34,153.2Z"/></g><g class="cls-87"><path class="cls-10" d="M314.73,205.45a4.83,4.83,0,1,1-4.83-4.82A4.83,4.83,0,0,1,314.73,205.45Z"/></g><g class="cls-87"><path class="cls-10" d="M474.43,123.42a4.83,4.83,0,1,1-4.83-4.82A4.83,4.83,0,0,1,474.43,123.42Z"/></g><g class="cls-87"><path class="cls-10" d="M271.83,268.15a4.83,4.83,0,1,1-4.83-4.83A4.82,4.82,0,0,1,271.83,268.15Z"/></g><g class="cls-87"><path class="cls-10" d="M474.43,123.42a4.83,4.83,0,1,1-4.83-4.82A4.83,4.83,0,0,1,474.43,123.42Z"/></g><path class="cls-10" d="M174.23,11.49A11.5,11.5,0,1,1,162.73,0,11.5,11.5,0,0,1,174.23,11.49Z"/><g class="cls-87"><path class="cls-10" d="M121.58,159.54a11.5,11.5,0,1,1-11.5-11.49A11.5,11.5,0,0,1,121.58,159.54Z"/></g><g class="cls-87"><path class="cls-10" d="M247,107.17a11.5,11.5,0,1,1-11.5-11.49A11.5,11.5,0,0,1,247,107.17Z"/></g><g class="cls-87"><path class="cls-10" d="M506.24,299.71a11.5,11.5,0,1,1-11.5-11.49A11.49,11.49,0,0,1,506.24,299.71Z"/></g><g class="cls-87"><path class="cls-10" d="M601.72,196.88a11.5,11.5,0,1,1-11.49-11.49A11.5,11.5,0,0,1,601.72,196.88Z"/></g><g class="cls-87"><path class="cls-10" d="M490.7,62.33a11.5,11.5,0,1,1-11.49-11.49A11.48,11.48,0,0,1,490.7,62.33Z"/></g><g class="cls-87"><path class="cls-10" d="M506.87,162.76a4.83,4.83,0,1,1-4.83-4.83A4.82,4.82,0,0,1,506.87,162.76Z"/></g><g class="cls-87"><path class="cls-10" d="M254.34,153.2a4.83,4.83,0,1,1-4.83-4.83A4.83,4.83,0,0,1,254.34,153.2Z"/></g><g class="cls-87"><path class="cls-10" d="M271.83,268.15a4.83,4.83,0,1,1-4.83-4.83A4.82,4.82,0,0,1,271.83,268.15Z"/></g><g class="cls-87"><path class="cls-10" d="M474.43,123.42a4.83,4.83,0,1,1-4.83-4.82A4.83,4.83,0,0,1,474.43,123.42Z"/></g><g class="cls-87"><path class="cls-10" d="M451.71,133.55a4.83,4.83,0,1,1-4.83-4.82A4.83,4.83,0,0,1,451.71,133.55Z"/></g><g class="cls-87"><path class="cls-10" d="M389.23,87.39a4.83,4.83,0,1,1-4.83-4.83A4.83,4.83,0,0,1,389.23,87.39Z"/></g><g class="cls-87"><path class="cls-10" d="M366.06,331.18a4.83,4.83,0,1,1-4.83-4.82A4.83,4.83,0,0,1,366.06,331.18Z"/></g><g class="cls-87"><path class="cls-10" d="M419.27,94.22a4.83,4.83,0,1,1-4.83-4.83A4.83,4.83,0,0,1,419.27,94.22Z"/></g><g class="cls-87"><path class="cls-10" d="M511.52,68.74a4.83,4.83,0,1,1-4.83-4.82A4.83,4.83,0,0,1,511.52,68.74Z"/></g><g class="cls-87"><path class="cls-10" d="M259,59.19a4.83,4.83,0,1,1-4.83-4.83A4.84,4.84,0,0,1,259,59.19Z"/></g><g class="cls-87"><path class="cls-10" d="M276.48,334.1a4.83,4.83,0,1,1-4.83-4.82A4.83,4.83,0,0,1,276.48,334.1Z"/></g><g class="cls-87"><path class="cls-10" d="M479.08,29.41a4.83,4.83,0,1,1-4.83-4.83A4.83,4.83,0,0,1,479.08,29.41Z"/></g><g class="cls-87"><path class="cls-10" d="M557.36,162.76a4.83,4.83,0,1,1-4.83-4.83A4.82,4.82,0,0,1,557.36,162.76Z"/></g><g class="cls-87"><path class="cls-10" d="M431.94,321.94a4.83,4.83,0,1,1-4.83-4.83A4.83,4.83,0,0,1,431.94,321.94Z"/></g><g class="cls-87"><path class="cls-10" d="M72.18,210.28a4.83,4.83,0,1,1-4.83-4.83A4.83,4.83,0,0,1,72.18,210.28Z"/></g><g class="cls-87"><path class="cls-10" d="M9.66,273.77a4.83,4.83,0,1,1-4.83-4.83A4.84,4.84,0,0,1,9.66,273.77Z"/></g><g class="cls-87"><path class="cls-10" d="M569.81,120.68a4.83,4.83,0,1,1-4.83-4.83A4.83,4.83,0,0,1,569.81,120.68Z"/></g><g class="cls-87"><path class="cls-10" d="M507.28,184.17a4.83,4.83,0,1,1-4.83-4.83A4.83,4.83,0,0,1,507.28,184.17Z"/></g><path class="cls-2" d="M579.63,104,565.11,93.59a15.42,15.42,0,0,0-5.63-16.78,13.87,13.87,0,0,0-15.93-.16,14.19,14.19,0,0,0-4,4.11A15.44,15.44,0,0,0,537.33,92a15,15,0,0,0,6,9.62,13.86,13.86,0,0,0,17-.62l14.51,10.37a3.14,3.14,0,0,0,1.87.61,3.34,3.34,0,0,0,.62-.06,3.25,3.25,0,0,0,2.12-1.46l1.09-1.66A3.6,3.6,0,0,0,579.63,104Zm-32-8.95a7,7,0,0,1-2.8-4.49,7.2,7.2,0,0,1,1-5.25,6.69,6.69,0,0,1,4.29-2.94,6.82,6.82,0,0,1,1.26-.13,6.48,6.48,0,0,1,3.76,1.22,7.13,7.13,0,0,1,2.91,5.81,7.25,7.25,0,0,1-1.15,3.94A6.52,6.52,0,0,1,547.63,95Z"/><path class="cls-2" d="M443.56,68.14c2.73-1.38,3.94-3.28,4.21-6.47,0-.49.07-1,.07-1.59a7.21,7.21,0,0,0-2.33-5.2,14.25,14.25,0,0,0-4.66-3v-7.1h-7.64v5.81H429V44.81h-7.64v5.81h-3.2V88.25h3.2v5.82H429V88.25h4.25v5.82h7.64V87.36c5.66-1.62,8.77-5.25,8.77-10.25A9.1,9.1,0,0,0,443.56,68.14Zm-14.22-9.62h2.81l.38,0h.07c1.56.2,2.53,1.46,2.53,3.31,0,2.34-.73,3.36-2.53,3.52a3.38,3.38,0,0,1-.56,0h-2.7Zm3.72,21.93h-3.72V72.31h3.55c2.46,0,3.91,1.53,3.91,4.12A3.75,3.75,0,0,1,433.06,80.45Z"/><path class="cls-2" d="M373,298c-.13.27-.25.54-.37.8l-.29.68c-.07.14-.12.3-.19.44l-.19.47c-.12.26-.22.52-.34.77l-.58,1.31c-.11.27-.23.53-.34.79s-.3.68-.46,1-.28.61-.43.92c-.06.14-.11.3-.18.44a2.63,2.63,0,0,1-.17.42c-.1.25-.22.49-.32.74s-.24.51-.35.77a.69.69,0,0,0,0,.1h3.3a.41.41,0,0,1,.36.43v4.16a.41.41,0,0,1-.36.43h-5.28v.87h5.28a.39.39,0,0,1,.36.42v4.09a.41.41,0,0,1-.36.43h-5.3v4.29a.4.4,0,0,1-.37.41h-4.55a.38.38,0,0,1-.36-.41v-1.38c0-1,0-1.94,0-2.9h-5.19a.4.4,0,0,1-.36-.43V314a.41.41,0,0,1,.35-.43h5.2c0-.3,0-.57,0-.86h-5.17a.38.38,0,0,1-.36-.41V308.1a.4.4,0,0,1,.36-.43h3.2l-4.42-10.16a.53.53,0,0,1,0-.41.39.39,0,0,1,.3-.2l.09,0h4.64a.78.78,0,0,1,.74.49,5,5,0,0,1,.21.54c0,.13.09.24.13.37s.24.54.34.8l.34.76c.1.25.19.5.3.75s.19.5.3.75.32.78.49,1.16l.38.89c.1.26.2.52.31.78l.47,1.23,3.44-8.26a.37.37,0,0,1,.33-.23l.07,0c.63,0,1.21,0,1.82,0h2.38a1.88,1.88,0,0,1,.28,0l.06,0a.36.36,0,0,1,.21.13l.22.26a.36.36,0,0,1,.1.27A.76.76,0,0,1,373,298Z"/><path class="cls-2" d="M304.22,35.41l-.33-.37c-.21-.24-.4-.47-.58-.7a12.84,12.84,0,0,0-3.36-3A19.7,19.7,0,0,0,295,28.84a22.73,22.73,0,0,0-4.39-1l-.14,0a7.05,7.05,0,0,0-1.24-.08l-.39,0c-1.08.09-2.19.17-3.29.36a15.62,15.62,0,0,0-2.75.82,13,13,0,0,0-2.33,1.17,34.08,34.08,0,0,0-2.89,2,11.1,11.1,0,0,0-1.15,1.12c-.15.15-.28.3-.42.45a1.36,1.36,0,0,0-.17.17l-.26-.13-1.43-.77-.58-.31a.65.65,0,0,0-.81.17l-3,3.62a.63.63,0,0,0-.15.53.67.67,0,0,0,.34.45l2.38,1.28L271.7,40l-1.58-.84a.65.65,0,0,0-.81.17l-2.92,3.56a.65.65,0,0,0-.15.55.68.68,0,0,0,.34.44l2.94,1.57L269.27,47c-.13.77-.26,1.54-.36,2.3a5.38,5.38,0,0,0-.07,1.35l0,.42a20.7,20.7,0,0,0,.55,3.69,15.82,15.82,0,0,0,1.66,4.2,24.24,24.24,0,0,0,2.5,3.36,16.19,16.19,0,0,0,4.13,3.19l.5.28a28,28,0,0,0,3.54,1.52,14.5,14.5,0,0,0,4.26.82,1.18,1.18,0,0,0,1.23-.67c.87-1.66,1.77-3.32,2.65-5l1-1.87c.06-.1.11-.22.19-.37a.69.69,0,0,0-.08-.68.65.65,0,0,0-.63-.25l-.67.12c-.51.09-1,.18-1.52.29A6.88,6.88,0,0,1,285,59.5a11.84,11.84,0,0,1-3.17-1.39,7.07,7.07,0,0,1-2.17-1.83,8.46,8.46,0,0,1-1.34-2.9,7.3,7.3,0,0,1,0-3.29L287.38,55a.9.9,0,0,0,1.33-.19c.36-.46.74-.92,1.13-1.38l1.61-2a.63.63,0,0,0,.13-.53.66.66,0,0,0-.33-.45l-11-5.87.69-1.3,7.29,3.9c1.29.71,2.59,1.39,3.89,2.08a1.11,1.11,0,0,0,1.24-.18c.36-.36.69-.77,1-1.17l.16-.19.27-.35a3,3,0,0,1,.28-.34c.24-.29.49-.57.76-.87l.41-.47a.66.66,0,0,0,.15-.55.62.62,0,0,0-.34-.45l-11.62-6.22a8,8,0,0,1,3.28-1.87,6.82,6.82,0,0,1,3.18-.21,7.61,7.61,0,0,1,2.73,1c.72.47,1.42,1,2.12,1.46a5.26,5.26,0,0,1,1.69,2.16l.37.85.18.42a.64.64,0,0,0,1.09.16l5.1-6.11A.66.66,0,0,0,304.22,35.41Zm-16.4,19.05.11-.61a.5.5,0,0,1,.17,0Z"/></g></g></svg>