<svg id="Layer_1" data-name="Layer 1" xmlns="http://www.w3.org/2000/svg" xmlns:xlink="http://www.w3.org/1999/xlink" viewBox="0 0 417.75 240.58"><defs><style>.cls-1{fill:none;}.cls-2{fill:url(#Gradiente_sem_nome_69);}.cls-3{fill:#6a9dd8;}.cls-25,.cls-4{fill:#000e3e;}.cls-5{fill:#3951b6;}.cls-6{fill:#fff;}.cls-7{fill:#a1a7ff;}.cls-8{fill:#c2c2d2;}.cls-9{fill:#67677e;}.cls-10{fill:#0b0a0c;}.cls-11{clip-path:url(#clip-path);}.cls-12{fill:#f6f9fa;}.cls-13{fill:#ced1d2;}.cls-14{fill:#161616;}.cls-15{fill:#e02766;}.cls-16{fill:#e6c69f;}.cls-17{fill:#002032;}.cls-18{fill:#031f51;}.cls-19{fill:#00beb7;}.cls-20{fill:#0d163f;}.cls-21{fill:#c0873d;}.cls-22{fill:#e8b369;}.cls-23{fill:#f6ca81;}.cls-24{clip-path:url(#clip-path-2);}.cls-25{fill-rule:evenodd;}.cls-26{fill:#ffb91f;}</style><linearGradient id="Gradiente_sem_nome_69" y1="134.46" x2="399.92" y2="134.46" gradientUnits="userSpaceOnUse"><stop offset="0.16" stop-color="#e08197"/><stop offset="1" stop-color="#e08197" stop-opacity="0"/></linearGradient><clipPath id="clip-path"><path class="cls-1" d="M99.8,129.44V232a5.64,5.64,0,0,1-5.64,5.63H52.35A5.64,5.64,0,0,1,46.71,232V129.44a5.64,5.64,0,0,1,5.64-5.63h9.16a.7.7,0,0,1,.7.69v1.11a2.19,2.19,0,0,0,2.19,2.19H82.11a2.2,2.2,0,0,0,2.2-2.19V124.5a.69.69,0,0,1,.69-.69h9.16A5.64,5.64,0,0,1,99.8,129.44Z"/></clipPath><clipPath id="clip-path-2"><path class="cls-1" d="M308.87,199.89s-4.7,42.58,36.64,40.27,33.22-41.28,33.22-41.28l-29.22-25Z"/></clipPath></defs><title>Smooth Operations in Supply Chain</title><path class="cls-2" d="M389.92,227.22A61,61,0,0,1,381,240H24.93a62.66,62.66,0,0,1-7.64-10,121.32,121.32,0,0,1-8.92-15.4c-18.52-38.69-7.09-93.89,42.16-101.16,18.16-2.69,37.05-1.66,54.46-8.24,23-8.67,30.49-29.7,45.34-47.18,10.86-12.82,25.48-23,41.89-27.09,30.42-7.64,61.44,8.6,78.65,33.55,9,13,15.85,27.33,25.28,40,26.1,34.95,101.38,30.74,103.71,83.68C400.45,201.68,396.43,215.25,389.92,227.22Z"/><path class="cls-3" d="M325.29,97.51a15.46,15.46,0,0,0-1.94-6.61l1.92-1.07a17.67,17.67,0,0,0-3.7-4.61l-1.46,1.64a15.45,15.45,0,0,0-6-3.32l.59-2.1h0a17.9,17.9,0,0,0-4.82-.67c-.35,0-.7,0-1,0l.13,2.19a15.45,15.45,0,0,0-6.61,1.93L301.24,83a17.67,17.67,0,0,0-4.61,3.7l1.64,1.46a15.6,15.6,0,0,0-3.33,6l-2.1-.6v0a17.9,17.9,0,0,0-.67,4.82c0,.35,0,.69,0,1l2.19-.13A15.62,15.62,0,0,0,296.3,106L294.38,107a17.56,17.56,0,0,0,3.7,4.62l1.46-1.63a15.45,15.45,0,0,0,6,3.32l-.6,2.1,0,0a17.9,17.9,0,0,0,4.82.67c.36,0,.72,0,1.07,0l-.13-2.19a15.46,15.46,0,0,0,6.6-1.94l1.07,1.91a17.51,17.51,0,0,0,4.61-3.7l-1.64-1.46a15.42,15.42,0,0,0,3.32-6l2.1.6h0a17.9,17.9,0,0,0,.67-4.82q0-.54,0-1.05ZM306,112h0l.1-.38Zm12.85-11a9.37,9.37,0,0,1-18.38-2.54,9.51,9.51,0,0,1,.35-2.56,9.37,9.37,0,0,1,18,5.1Z"/><path class="cls-4" d="M226.46,59.66a6.86,6.86,0,0,0-.87-3l.86-.48a7.88,7.88,0,0,0-1.66-2.07l-.66.74a6.92,6.92,0,0,0-2.71-1.5l.27-.94h0a8.17,8.17,0,0,0-2.17-.3l-.47,0,.06,1a7,7,0,0,0-3,.87l-.48-.86a7.93,7.93,0,0,0-2.08,1.66l.74.66a6.9,6.9,0,0,0-1.49,2.71l-.95-.27v0a7.74,7.74,0,0,0-.31,2.17c0,.15,0,.3,0,.46l1-.06a6.82,6.82,0,0,0,.87,3l-.87.48A8.18,8.18,0,0,0,214.23,66l.65-.74a6.92,6.92,0,0,0,2.71,1.5l-.27.94h0a8.11,8.11,0,0,0,2.17.3H220l-.06-1a7,7,0,0,0,3-.87l.48.86a7.72,7.72,0,0,0,2.07-1.67l-.74-.65A6.75,6.75,0,0,0,226.21,62l.95.27h0a8.17,8.17,0,0,0,.3-2.17c0-.16,0-.32,0-.47Zm-8.67,6.52h0l0-.17Zm5.77-5a4.23,4.23,0,0,1-4.05,3.07,4.56,4.56,0,0,1-1.14-.17,4.2,4.2,0,0,1-3.07-4,4.13,4.13,0,0,1,.16-1.14,4.21,4.21,0,1,1,8.1,2.29Z"/><path class="cls-5" d="M199.67,197.34H119.35l28.25-41a6.9,6.9,0,0,1,5.68-3h46.39Z"/><path class="cls-4" d="M161.59,188.62H131.94l19.83-29.46a3.45,3.45,0,0,1,2.86-1.53h14.51a1.27,1.27,0,0,1,1.26,1.27v20.91A8.8,8.8,0,0,1,161.59,188.62Z"/><path class="cls-3" d="M168.89,160.53v18.58A7.9,7.9,0,0,1,161,187H134.47l17.74-26.37a3.08,3.08,0,0,1,2.56-1.37h12.85A1.27,1.27,0,0,1,168.89,160.53Z"/><polygon class="cls-6" points="162.34 159.26 152.72 187 142.21 187 160.05 159.26 162.34 159.26"/><path class="cls-5" d="M180.73,188.62V225H105V196.26a7.68,7.68,0,0,1,7.64-7.64Z"/><rect class="cls-5" x="178.95" y="134.44" width="149.16" height="90.93"/><rect class="cls-7" x="184.55" y="138.6" width="140.55" height="82.6"/><rect class="cls-5" x="272.3" y="143.79" width="44.47" height="14.08"/><path class="cls-7" d="M118.24,191.55c.11.75-7,4.75-7,4.75H105v0a7.54,7.54,0,0,1,1.86-5C110,191.18,118.16,190.94,118.24,191.55Z"/><path class="cls-7" d="M158,225H118.41A19.79,19.79,0,0,1,158,225Z"/><path class="cls-7" d="M155.6,225H121.36a17.12,17.12,0,0,1,34.24,0Z"/><circle class="cls-4" cx="138.48" cy="225.18" r="14.72"/><path class="cls-8" d="M128.22,230.41a11.52,11.52,0,1,0-.69-8.79A11.47,11.47,0,0,0,128.22,230.41Zm8-14.48v3.22a2,2,0,0,1-.83,1.61l-.12.09a2,2,0,0,1-1.79.29l-3.06-1A.72.72,0,0,1,130,219a10.51,10.51,0,0,1,5.22-3.79A.73.73,0,0,1,136.19,215.93Zm10.37,4.21-3.05,1a2,2,0,0,1-1.79-.29l-.12-.09a2,2,0,0,1-.83-1.61v-3.24a.72.72,0,0,1,.95-.68h0a10.44,10.44,0,0,1,5.22,3.81A.72.72,0,0,1,146.56,220.14Zm-.78,11.18-1.89-2.6a2,2,0,0,1-.28-1.79c0-.05,0-.1,0-.14a2,2,0,0,1,1.28-1.29l3.06-1a.73.73,0,0,1,1,.68,10.43,10.43,0,0,1-2,6.15A.73.73,0,0,1,145.78,231.32ZM134.88,234l1.9-2.62a2.08,2.08,0,0,1,1.69-.82h0a2.08,2.08,0,0,1,1.69.82l1.88,2.59a.73.73,0,0,1-.36,1.12,10.37,10.37,0,0,1-6.45,0h0A.72.72,0,0,1,134.88,234ZM128,225.2a.73.73,0,0,1,.95-.69l3.06,1a2,2,0,0,1,1.28,1.29s0,.09,0,.14a2,2,0,0,1-.28,1.79l-1.88,2.59a.72.72,0,0,1-1.17,0A10.46,10.46,0,0,1,128,225.2Z"/><circle class="cls-8" cx="138.48" cy="225.18" r="3.5"/><path class="cls-9" d="M134.72,225.18a3.76,3.76,0,1,1,3.76,3.76A3.77,3.77,0,0,1,134.72,225.18Zm.51,0a3.25,3.25,0,1,0,3.25-3.25A3.25,3.25,0,0,0,135.23,225.18Z"/><path class="cls-7" d="M306.14,225.19v.18h-39.6v-.18a19.8,19.8,0,1,1,39.6,0Z"/><path class="cls-10" d="M303.73,225.19v.18H269.51v-.18a17.11,17.11,0,1,1,34.22,0Z"/><circle class="cls-4" cx="286.62" cy="225.18" r="14.72"/><path class="cls-8" d="M276.36,230.41a11.41,11.41,0,0,0,6.7,5.73,11.53,11.53,0,0,0,14.51-7.4,11.52,11.52,0,0,0-7.39-14.51,11.51,11.51,0,0,0-13.82,16.18Zm8-14.48v3.22a2,2,0,0,1-.82,1.61l-.12.09a2,2,0,0,1-1.8.29l-3.05-1a.73.73,0,0,1-.38-1.11,10.51,10.51,0,0,1,5.22-3.79A.73.73,0,0,1,284.32,215.93Zm10.38,4.21-3.05,1a2,2,0,0,1-1.8-.29l-.11-.09a2,2,0,0,1-.83-1.61v-3.24a.72.72,0,0,1,.94-.68h0a10.36,10.36,0,0,1,5.22,3.81A.71.71,0,0,1,294.7,220.14Zm-.79,11.18-1.89-2.6a2,2,0,0,1-.28-1.79c0-.05,0-.1.05-.14a2,2,0,0,1,1.28-1.29l3.06-1a.72.72,0,0,1,.95.68,10.37,10.37,0,0,1-.51,3.23,10.59,10.59,0,0,1-1.49,2.92A.73.73,0,0,1,293.91,231.32ZM283,234l1.9-2.62a2.08,2.08,0,0,1,1.69-.82h0a2.1,2.1,0,0,1,1.69.82l1.87,2.59a.73.73,0,0,1-.35,1.12,10.41,10.41,0,0,1-6.46,0h0A.71.71,0,0,1,283,234Zm-6.86-8.84a.72.72,0,0,1,.95-.69l3.05,1a2,2,0,0,1,1.29,1.29s0,.09,0,.14a2,2,0,0,1-.28,1.79l-1.88,2.59a.73.73,0,0,1-1.18,0A10.52,10.52,0,0,1,276.16,225.2Z"/><circle class="cls-8" cx="286.62" cy="225.18" r="3.5"/><path class="cls-9" d="M282.86,225.18a3.76,3.76,0,1,1,3.76,3.76A3.76,3.76,0,0,1,282.86,225.18Zm.51,0a3.25,3.25,0,1,0,3.25-3.25A3.25,3.25,0,0,0,283.37,225.18Z"/><path class="cls-7" d="M167.12,194.68h-7.83a1.14,1.14,0,0,1-1.14-1.13h0a1.14,1.14,0,0,1,1.14-1.14h7.83a1.13,1.13,0,0,1,1.13,1.14h0A1.13,1.13,0,0,1,167.12,194.68Z"/><path class="cls-5" d="M94.31,121.93H52.2A7.11,7.11,0,0,0,45.08,129V232.37a7.11,7.11,0,0,0,7.12,7.11H94.31a7.11,7.11,0,0,0,7.12-7.11V129A7.11,7.11,0,0,0,94.31,121.93Zm5.48,110a5.62,5.62,0,0,1-5.63,5.63H52.35A5.64,5.64,0,0,1,46.71,232V129.44a5.64,5.64,0,0,1,5.64-5.63h6.57v8.45H87.59v-8.45h6.57a5.62,5.62,0,0,1,5.63,5.63Z"/><path class="cls-10" d="M74.81,125.28H69.33a.43.43,0,0,0,0,.85h5.48a.43.43,0,0,0,0-.85Zm2.31-.06a.48.48,0,0,0-.48.48.48.48,0,1,0,1,0A.48.48,0,0,0,77.12,125.22Z"/><path class="cls-7" d="M101.09,129.43V232a5.63,5.63,0,0,1-5.63,5.62H53.63A5.62,5.62,0,0,1,48,232V129.43a5.63,5.63,0,0,1,5.63-5.62H62.8a.69.69,0,0,1,.7.69v1.1a2.21,2.21,0,0,0,2.19,2.21H83.4a2.21,2.21,0,0,0,2.2-2.21v-1.1a.69.69,0,0,1,.7-.69h9.16A5.63,5.63,0,0,1,101.09,129.43Z"/><g class="cls-11"><path class="cls-12" d="M103.39,165.93l-25.48-5.47,5.44-18.64-11.22-5.61L89.71,122l-.8-1-18.2,14.68L64.16,153.1l-7-6.26,16.5-23.11-1-.74L56.21,146l-9.43-8.44-.85.94,17.8,15.93-.16.79-10,20.55-4.37,27.3.63.1L54.11,176l9-18.34-11.56,55,.71,2.17,12.71-60L76.77,161l4,16.11-4.88,12.55L63.73,186,57.3,209.9l.61.16,6.26-23.3,11.44,3.51L69.11,207l1.17.46,3.89-10,7.88-20.26-3.77-15.38,24.84,5.34ZM65.1,154.19l6.6-17.49,10.89,5.45-5.3,18.18-.72-.16v0Z"/></g><path class="cls-13" d="M81.39,235.45H65.12a.32.32,0,0,1-.32-.33.32.32,0,0,1,.32-.32H81.39a.32.32,0,0,1,.32.32A.32.32,0,0,1,81.39,235.45Z"/><rect class="cls-14" x="99.79" y="132.57" width="1.63" height="0.81"/><rect class="cls-14" x="99.79" y="228.02" width="1.63" height="0.81"/><rect class="cls-14" x="45.08" y="228.02" width="1.63" height="0.81"/><path class="cls-1" d="M94.16,124.86H85.35v.75a3.24,3.24,0,0,1-3.24,3.24H64.4a3.24,3.24,0,0,1-3.24-3.24v-.75H52.35a4.59,4.59,0,0,0-4.59,4.58V232a4.59,4.59,0,0,0,4.59,4.58H94.16A4.58,4.58,0,0,0,98.74,232V129.44a4.58,4.58,0,0,0-4.58-4.58Z"/><polygon class="cls-12" points="88.53 237.62 87.4 237.59 89.24 203.32 73.98 198.01 74.35 196.94 90.42 202.53 88.53 237.62"/><polygon class="cls-12" points="52.53 237.81 52.16 237.39 66.59 224.75 57.38 209.87 57.86 209.57 67.33 224.86 52.53 237.81"/><polygon class="cls-12" points="71.83 218.19 69.37 207.14 70.47 206.89 72.54 216.17 89.47 202.48 90.19 203.36 71.83 218.19"/><polygon class="cls-12" points="76.34 237.6 71.63 217.31 72.73 217.05 77.5 237.61 76.34 237.6"/><polygon class="cls-12" points="99.8 198.97 99.8 200.48 99.81 201.98 93.18 185.65 80.99 177.32 81.64 176.38 94.11 184.9 99.8 198.97"/><polygon class="cls-12" points="56.09 233.76 49.16 203 49.71 202.88 56.65 233.64 56.09 233.76"/><path class="cls-15" d="M83.45,166.17c0,5-9,20.24-9,20.24.21,0-9-15.25-9-20.24a9,9,0,0,1,18.08,0Z"/><path class="cls-12" d="M78.4,166.17a4,4,0,1,1-4-4A4,4,0,0,1,78.4,166.17Z"/><path class="cls-16" d="M322.81,219.38c4-1.58,2.58,13.09,1.34,17.18s-1.87,1.48-2.29-5.49S321.25,220,322.81,219.38Z"/><path class="cls-16" d="M316.48,219c4.11-1,1,13.34-.66,17.22s-1.8,1.22-1.49-5.76S314.86,219.42,316.48,219Z"/><path class="cls-16" d="M322.16,201.76a2.69,2.69,0,0,1,3.36,2,38.27,38.27,0,0,1,.53,6.4c-.07,5.34.15,10.26-1.78,11.36s-4.44-1.69-5-6.87c-.5-4.69-1.83-10.45-.56-11.51A11.23,11.23,0,0,1,322.16,201.76Z"/><path class="cls-16" d="M318.64,201.93a2.72,2.72,0,0,1,2.73,2.71,40.57,40.57,0,0,1-.48,6.3c-.87,5.14-1.42,9.95-3.33,10.59s-3.76-2.61-3.48-7.74c.26-4.64-.07-10.5,1.24-11.24A9.21,9.21,0,0,1,318.64,201.93Z"/><path class="cls-15" d="M313.77,197.37s.15,20.86.25,22.73-.1,15.13-.1,15.13l2.9,0s5-28.44,4.66-33.08S313.77,197.37,313.77,197.37Z"/><path class="cls-15" d="M327.08,202s-1,15.45-1.1,17.74-1,15.46-1,15.46H322s-1.9-12.18-2.16-14c-.36-2.47-2.14-15.07-2.27-22.13S327.08,202,327.08,202Z"/><path class="cls-16" d="M319.15,176.86a1.89,1.89,0,0,1,.37,2c-1.13,3.1-5.1,13.44-7.45,12.77-2.76-.78,1.31-9.74,2.81-12.18C316.14,177.42,317.9,175.6,319.15,176.86Z"/><path class="cls-16" d="M312.7,191.85a1.92,1.92,0,0,0,0-1.76c-1.31-2.76-6.11-12.71-7.44-12.67-1.55.05,4.71,14.73,5.52,14.87C311.44,192.4,312.2,192.71,312.7,191.85Z"/><path class="cls-17" d="M315.36,162s-1.51,3,.07,4.06l0,0s2.06-.45,2.54.59c.35.77-.16,1.4.16,1.84.52.72,1.48-1.57,2-1.41s.93.75.26,1.8c-.94,1.48,2.26,2.2,2.26,2.2h0c.47-.62,4.14-5.6-.1-7.08C318.08,162.33,316.61,163.26,315.36,162Z"/><path class="cls-16" d="M315.47,166l0,0,0,0s-1.42,6.1.27,7.19a2.82,2.82,0,0,0,3.05.17l.28,2.56,4-1.58-.44-3.33,0-.06h0s-3.2-.72-2.26-2.2c.67-1,.23-1.63-.26-1.8s-1.45,2.13-2,1.41c-.32-.44.19-1.07-.16-1.84C317.53,165.52,315.47,166,315.47,166Z"/><path class="cls-18" d="M316.73,176.87a26.29,26.29,0,0,0-3.52,5.12c-1.38,2.77-1.44,3.89-1.84,3.87s-3.46-6-3.46-6l-2.75,1.23S309.11,193,311.48,193s6.85-6.16,6.85-6.16Z"/><path class="cls-5" d="M318,176.28c.13-.34.24-.61.31-.78a9.15,9.15,0,0,0-3,2.81c-1.46,2.22-2.62,12.05-2.62,15.78,0,.94,0,1.81.11,2.63,0,1.34-.08,6.34,1.67,6.38,1.57.05,5.8.53,7.53.38,2.58,0,4.94-.45,5.19-.72.45-.51-.69-3.7-.64-7.28s.56-7.84,1.06-14.45a6.77,6.77,0,0,0-3-6.52c-.21.1-.49.24-.8.42.32-.18.59-.32.8-.42a6.9,6.9,0,0,0-1.59-1,7.11,7.11,0,0,1-4.11,1.66v0a6.25,6.25,0,0,0-.61.31c-.07.17-.18.44-.31.78m-3.84,19.32v0Z"/><path class="cls-16" d="M325.79,176.76a1.9,1.9,0,0,1,.92,1.83c-.22,3.29-1.14,14.32-3.58,14.34-2.88,0-1.47-9.72-.71-12.49C323.06,178.14,324.24,175.9,325.79,176.76Z"/><path class="cls-16" d="M322.73,190.57a1.91,1.91,0,0,0-1.47,1c-1.55,2.63-7.1,12.19-6.31,13.27.91,1.25,9.55-12.17,9.21-12.92C323.9,191.3,323.73,190.5,322.73,190.57Z"/><path class="cls-19" d="M314,236.1a10.71,10.71,0,0,1-1.91,1.83c-1.34,1-1.69.81-1.72,1.19s5.58,0,5.58,0V236A15.93,15.93,0,0,0,314,236.1Z"/><path class="cls-19" d="M324.32,235.85a3.11,3.11,0,0,0,.48,1.77c.78,1.36.79,1.08.6,1.58s-3.39.07-3.39.07l.28-3.45A13.68,13.68,0,0,1,324.32,235.85Z"/><polyline class="cls-1" points="313.52 197.74 313.88 197.81 314.9 197.99 315.16 198.04"/><path class="cls-18" d="M327.08,181s-1,9.06-2.4,11.3-6.4,10.24-6.4,10.24l-2.88-1.68s5.07-9.31,5.38-10.21.86-8.69,1.6-11.2,1.94-3.56,3.36-3.2C328,176.79,327.08,181,327.08,181Z"/><path class="cls-16" d="M313.47,207.3c-.37-.21.81-2,1.09-2.57.05-.08.07-.14.06-.16s0,0-.06,0c-.22.13-.93.88-1.25.65s.54-1.67,1.17-2.21l.11-.09a1.6,1.6,0,0,1,1.82-.32c1.17.49.07,2.45-.33,3.11a3.88,3.88,0,0,1-1.45,1.31C314.13,207.3,313.67,207.42,313.47,207.3Z"/><path class="cls-16" d="M306.72,176s.56-.23.61.16a11.56,11.56,0,0,1-.06,1.53"/><polygon class="cls-20" points="302.75 172.75 304.73 179.24 307.76 179.26 305.74 172.9 302.75 172.75"/><path class="cls-16" d="M303.45,176.88a.65.65,0,0,1,.45-.78c.71-.14,1.86-.28,2,.32.2.88,0,2.43-1,2.46S303.71,178.17,303.45,176.88Z"/><path class="cls-16" d="M138,201.74a2.53,2.53,0,0,0-1.68,3.21,17,17,0,0,0,2,4.18c2.66,4.16,4.68,9.69,6.62,9.69s2.67-3.41.85-7.89c-1.65-4-3.12-9.34-4.55-9.62A9.36,9.36,0,0,0,138,201.74Z"/><path class="cls-16" d="M137,219.1c-1.48-4.27-11.37,10.24-13.42,14.84s.73,2.46,5.87-3.57S137.53,220.77,137,219.1Z"/><path class="cls-16" d="M146.36,216.4c-3.85-2.35-2.25,15.14-.91,20s2.13,1.44,2.26-6.48S147.88,217.33,146.36,216.4Z"/><path class="cls-16" d="M135.57,201.47a2.51,2.51,0,0,0-3,2.07,16.64,16.64,0,0,0,0,4.69c.67,5,.11,10.9,2,11.83s4.07-1.78,4.35-6.65c.25-4.4,1.22-9.84,0-10.77A10.64,10.64,0,0,0,135.57,201.47Z"/><path class="cls-10" d="M132.13,177.74c.05-2.73-.24-5.73,2.23-7.8a4.72,4.72,0,0,1,4.87-1.06,3.11,3.11,0,0,1,1.93,2.62,17.57,17.57,0,0,1-.22,5.46,21.6,21.6,0,0,0-.17,2.9c0,.77.1,1.52.16,2.28a3.35,3.35,0,0,1-.21,1.6,1.55,1.55,0,0,1-1.5.95c-1.06,0-2.12,0-3.18.05a9.3,9.3,0,0,0-1.76.19,3.8,3.8,0,0,1-2.31-.15,5.52,5.52,0,0,1-2.62-2.56A5.15,5.15,0,0,0,132.13,177.74Z"/><rect class="cls-16" x="134.36" y="177.27" width="3.12" height="3.57" transform="translate(53.97 -30.27) rotate(15.82)"/><path class="cls-16" d="M136.28,178.09s1.95,1.23,2.55.71,2.55-4,1.86-6.33a3.87,3.87,0,0,0-5.26-2.37c-1.69,1-2,6.52-.82,7.17A10.83,10.83,0,0,0,136.28,178.09Z"/><path class="cls-16" d="M155,175.88c.44,1,2.12.06,2.67-.29.91-.57,1.55-1.93,1.33-2.29s-2.22,1-2.34,1,.79-.82.54-1.15-1.57.57-2,1.13A1.4,1.4,0,0,0,155,175.88Z"/><path class="cls-16" d="M133.24,184a1.62,1.62,0,0,0,1.54.75c2.77-.23,12-1.13,12-3.18,0-2.41-8.17-1.12-10.48-.45C134.36,181.65,132.5,182.67,133.24,184Z"/><path class="cls-16" d="M144.18,181.41a1.59,1.59,0,0,1,.81-1.23c2.21-1.29,10.25-5.9,11.15-5.24,1.05.77-10.24,8-10.87,7.67S144.12,182.24,144.18,181.41Z"/><path class="cls-18" d="M136.52,185.09s6.86-.82,9.08-2c1.87-1,5.57-3.56,5.57-3.56l-1.33-2.22s-4.6,2.68-4.89,2.77-6.08,0-8.1.6-4.48,1.45-4.08,3.29S136.52,185.09,136.52,185.09Z"/><rect class="cls-21" x="148.4" y="165.06" width="18.83" height="18.83" transform="translate(-50.11 284.55) rotate(-75.77)"/><rect class="cls-22" x="144.13" y="163.98" width="18.83" height="18.83" transform="translate(-52.27 279.59) rotate(-75.77)"/><rect class="cls-23" x="151.47" y="162.67" width="2.2" height="3.79" transform="translate(-44.46 271.99) rotate(-75.77)"/><rect class="cls-21" x="154.03" y="168.17" width="7.95" height="1.16" transform="translate(46.34 -33.67) rotate(14.23)"/><rect class="cls-21" x="146.49" y="172.48" width="3.59" height="10.84" transform="translate(-60.62 277.89) rotate(-75.77)"/><rect class="cls-23" x="148.57" y="177.44" width="4.49" height="0.83" transform="translate(48.35 -31.62) rotate(14.23)"/><rect class="cls-22" x="143.7" y="175.81" width="2.42" height="2.42" transform="translate(47.97 -30.19) rotate(14.23)"/><rect class="cls-22" x="165.88" y="167.44" width="1.99" height="1.28" transform="translate(-37.08 288.51) rotate(-75.77)"/><path class="cls-16" d="M135.18,179.88a2.28,2.28,0,0,0-2.68,1,8.66,8.66,0,0,0-1.29,5.32c.38,4,2.56,4.67,2.56,8.82s-1.42,7.07-1.2,7.54,9.55,1,10.26-.18-1.53-5-1.53-8.31,1.2-3.9.93-6.44-3-4.15-4.68-6.13A5.59,5.59,0,0,0,135.18,179.88Z"/><path class="cls-5" d="M143.38,202.56s5,11.08,5,15.15-.6,18-.6,18l-3.15.11s-1.09-15.64-1.4-16.41-9.38-9.12-9.38-16.13S143.38,202.56,143.38,202.56Z"/><path class="cls-5" d="M132,202.66a10.65,10.65,0,0,0-1.29,6.08c.21,3.82,2.37,9.69,1.8,10.77s-9.37,13.91-9.37,13.91l2.37,2.17s12.77-13.71,13.34-15.77,2.89-14.48,2.89-16.64S132,202.66,132,202.66Z"/><path class="cls-4" d="M133.24,179.53a1.45,1.45,0,0,1,1-.12,7.58,7.58,0,0,1,3.76,1.94c1.73,1.73,4.52,3.43,4.89,6.6s-1.33,3.83-.77,7.31,2,6.78,1.3,7.3-2.55,1-5.45.91-6.3-.08-6.23-1,2-4.88,1.38-8.25-2.15-6.1-2.15-9.39C130.93,182,132,180.15,133.24,179.53Z"/><path class="cls-16" d="M155.9,182.07c.26,1.08,2.08.41,2.69.16,1-.41,1.84-1.65,1.68-2s-2.36.67-2.47.61.91-.68.72-1-1.64.29-2.12.78A1.4,1.4,0,0,0,155.9,182.07Z"/><path class="cls-16" d="M133.34,183.27a1.6,1.6,0,0,0,1,1.4c2.52,1.13,11.06,4.78,12,3,1.14-2.12-6.63-4.9-9-5.42C135.44,181.79,133.32,181.78,133.34,183.27Z"/><path class="cls-16" d="M144.61,186.82a1.62,1.62,0,0,1,.93-1.15c2.32-1.07,10.77-4.9,11.6-4.15s-10.95,6.95-11.55,6.6S144.47,187.64,144.61,186.82Z"/><path class="cls-18" d="M135.67,185.83s7.64,3.18,9.75,2.82,5.85-2.87,5.85-2.87l-1.05-2.28s-4.42,2-4.73,2-5.34-2.91-7.39-3.37-4.63-.88-5.15.92S135.67,185.83,135.67,185.83Z"/><path class="cls-4" d="M147.28,236.78a10.51,10.51,0,0,0,1.94,1.57c1.31.88,1.63.65,1.68,1s-5.21.37-5.21.37l-.11-2.93A12.06,12.06,0,0,1,147.28,236.78Z"/><path class="cls-4" d="M124.41,235.81a11.07,11.07,0,0,0,.23,2.48c.3,1.55.68,1.62.47,1.9s-3.93-3.45-3.93-3.45l2-2.13A12.46,12.46,0,0,1,124.41,235.81Z"/><path class="cls-10" d="M134.3,179.81h0v0a17.57,17.57,0,0,0-1.31-6.17s1.59-4,2.21-4.3A13.65,13.65,0,0,1,138,169l2.69,1.51h0a3.34,3.34,0,0,1-.89,1.3h0a3.15,3.15,0,0,1-.67.46c-1.19.61-2.86,1.54-2.76,3.31,0,.29.06.66.11,1.08.23,2.15.51,5.68-2.77,6.74A13.13,13.13,0,0,0,134.3,179.81Z"/><rect class="cls-21" x="242.49" y="186.01" width="23.36" height="23.36"/><rect class="cls-22" x="237.03" y="186.01" width="23.36" height="23.36"/><rect class="cls-23" x="242.49" y="186.01" width="4.7" height="2.73"/><rect class="cls-21" x="247.72" y="190.03" width="9.86" height="1.44"/><rect class="cls-21" x="237.03" y="202.5" width="13.45" height="4.45"/><rect class="cls-23" x="244" y="203.38" width="5.57" height="1.02"/><rect class="cls-22" x="237.94" y="203.19" width="3" height="3"/><rect class="cls-22" x="262.32" y="186.01" width="1.59" height="2.46"/><rect class="cls-21" x="184.22" y="215.84" width="23.36" height="23.36"/><rect class="cls-22" x="178.76" y="215.84" width="23.36" height="23.36"/><rect class="cls-23" x="184.22" y="215.84" width="4.7" height="2.73"/><rect class="cls-21" x="189.45" y="219.86" width="9.86" height="1.44"/><rect class="cls-21" x="178.76" y="232.33" width="13.45" height="4.45"/><rect class="cls-23" x="185.73" y="233.21" width="5.57" height="1.02"/><rect class="cls-22" x="179.67" y="233.02" width="3" height="3"/><rect class="cls-22" x="204.05" y="215.84" width="1.59" height="2.46"/><rect class="cls-21" x="210.34" y="215.84" width="23.36" height="23.36"/><rect class="cls-22" x="204.88" y="215.84" width="23.36" height="23.36"/><rect class="cls-23" x="210.34" y="215.84" width="4.7" height="2.73"/><rect class="cls-21" x="215.58" y="219.86" width="9.86" height="1.44"/><rect class="cls-21" x="204.88" y="232.33" width="13.45" height="4.45"/><rect class="cls-23" x="211.86" y="233.21" width="5.57" height="1.02"/><rect class="cls-22" x="205.79" y="233.02" width="3" height="3"/><rect class="cls-22" x="230.18" y="215.84" width="1.59" height="2.46"/><rect class="cls-21" x="243.37" y="209.44" width="29.76" height="29.76"/><rect class="cls-22" x="236.41" y="209.44" width="29.76" height="29.76"/><rect class="cls-23" x="243.37" y="209.44" width="5.99" height="3.48"/><rect class="cls-21" x="250.04" y="214.56" width="12.56" height="1.84"/><rect class="cls-21" x="236.41" y="230.44" width="17.14" height="5.67"/><rect class="cls-23" x="245.3" y="231.57" width="7.1" height="1.3"/><rect class="cls-22" x="237.57" y="231.33" width="3.82" height="3.82"/><rect class="cls-22" x="268.64" y="209.44" width="2.03" height="3.14"/><rect class="cls-21" x="199.68" y="196.34" width="19.52" height="19.52"/><rect class="cls-22" x="195.12" y="196.34" width="19.52" height="19.52"/><rect class="cls-23" x="199.68" y="196.34" width="3.93" height="2.28"/><rect class="cls-21" x="204.05" y="199.7" width="8.24" height="1.2"/><rect class="cls-21" x="195.12" y="210.11" width="11.24" height="3.72"/><rect class="cls-23" x="200.95" y="210.85" width="4.66" height="0.86"/><rect class="cls-22" x="195.88" y="210.69" width="2.5" height="2.5"/><rect class="cls-22" x="216.25" y="196.34" width="1.33" height="2.06"/><g class="cls-24"><path class="cls-5" d="M337.44,236.56c-.51-2.12.7-4.55-.39-6.44-.95-1.65-3.13-2-4.86-2.81a7.68,7.68,0,0,1-4.34-7.57,24.57,24.57,0,0,1,.9-3.47,15.52,15.52,0,0,0,.23-7,3.24,3.24,0,0,1-.06-1.69,1.89,1.89,0,0,1,1.95-1.09,4,4,0,0,1,2.14,1,9.47,9.47,0,0,1,3.29,5.81c.15,1,.14,2,.38,2.95,1,4,5.7,6.14,6.87,10.08.64,2.13.11,4.41-.14,6.62s-.1,4.71,1.5,6.25c.8.76-3.36,1.62-4.1,1.31A6.58,6.58,0,0,1,337.44,236.56Z"/><path class="cls-6" d="M343.05,240.69a.45.45,0,0,1-.34-.15,13.41,13.41,0,0,1-3.26-8.41,15.9,15.9,0,0,1,.13-2,9.92,9.92,0,0,0,.09-2.36c-.15-1.3-1.8-2.22-3.25-3a17.4,17.4,0,0,1-1.59-1,6.67,6.67,0,0,1-2.92-4.42,10.38,10.38,0,0,1,.25-2.89,12.21,12.21,0,0,0,.26-1.83,9,9,0,0,0-1.33-4.91.45.45,0,0,1,.15-.61.44.44,0,0,1,.61.15,10,10,0,0,1,1.46,5.42,13.93,13.93,0,0,1-.27,1.94,8.93,8.93,0,0,0-.24,2.63,6,6,0,0,0,2.57,3.81,14.66,14.66,0,0,0,1.48.9c1.56.87,3.5,1.95,3.71,3.7a11.54,11.54,0,0,1-.09,2.57,11.76,11.76,0,0,0-.13,1.85,12.5,12.5,0,0,0,3,7.85.44.44,0,0,1-.05.63A.42.42,0,0,1,343.05,240.69Z"/><path class="cls-5" d="M350.25,235.14c0-2.18-1.78-4.24-1.18-6.34.52-1.84,2.55-2.69,4-3.9a7.68,7.68,0,0,0,2.39-8.39,26.07,26.07,0,0,0-1.71-3.16,15.33,15.33,0,0,1-1.92-6.74,3.27,3.27,0,0,0-.35-1.65,1.89,1.89,0,0,0-2.16-.6,4,4,0,0,0-1.83,1.51,9.48,9.48,0,0,0-1.79,6.43c.1,1,.35,2,.35,3,0,4.12-4.06,7.33-4.24,11.44-.1,2.22,1,4.3,1.74,6.39s1.23,4.55.05,6.43c-.59.93,3.65.76,4.3.28A6.66,6.66,0,0,0,350.25,235.14Z"/><path class="cls-6" d="M345.69,240.52a.43.43,0,0,1-.19,0,.45.45,0,0,1-.2-.6,12.5,12.5,0,0,0,1.05-8.35,12.12,12.12,0,0,0-.57-1.77,11,11,0,0,1-.7-2.47c-.23-1.75,1.39-3.27,2.7-4.49a14,14,0,0,0,1.22-1.23,6,6,0,0,0,1.57-4.32,9.11,9.11,0,0,0-.86-2.49,15.08,15.08,0,0,1-.74-1.82,10,10,0,0,1,.11-5.61.44.44,0,0,1,.85.26,9,9,0,0,0-.11,5.09,13.52,13.52,0,0,0,.7,1.72,10.15,10.15,0,0,1,.94,2.73,6.66,6.66,0,0,1-1.77,5,13.47,13.47,0,0,1-1.31,1.32c-1.21,1.14-2.59,2.43-2.42,3.73a10.24,10.24,0,0,0,.66,2.27,14.71,14.71,0,0,1,.6,1.88,13.39,13.39,0,0,1-1.13,8.95A.45.45,0,0,1,345.69,240.52Z"/><path class="cls-5" d="M350.42,231.13a12.84,12.84,0,0,0-2.21-11c-1.16-1.44-2.68-2.65-3.35-4.38-1.2-3.06-.67-6.56.47-9.56,1-2.72,2.26-5.86.06-8.36a3.58,3.58,0,0,0-6.22,2.28v.07a31.16,31.16,0,0,1-.38,6.83c-.75,3.18-3.21,6.52-1.6,9.83,1.27,2.58,3.67,4.53,4.56,7.3.51,1.56.18,3,.06,4.57-.26,3.25-1,9.3,1.4,12,1,1.11,2.37-.78,3.09-1.57A17.74,17.74,0,0,0,350.42,231.13Z"/><path class="cls-6" d="M343.34,240.76l-.14,0a.44.44,0,0,1-.28-.56c.33-1,.8-2.17,1.3-3.37,1.71-4.13,3.84-9.27,1.66-13.42a15.2,15.2,0,0,0-2.56-3.23c-1.62-1.71-3.29-3.47-3.44-6a12.76,12.76,0,0,1,1.23-5.17,23.32,23.32,0,0,0,.83-2.37,35.66,35.66,0,0,0,1-6.8.45.45,0,0,1,.48-.41.45.45,0,0,1,.41.48,37.87,37.87,0,0,1-1,7c-.22.81-.55,1.65-.86,2.46a12,12,0,0,0-1.17,4.8c.13,2.23,1.62,3.81,3.2,5.47a16.67,16.67,0,0,1,2.7,3.42c2.37,4.52.15,9.88-1.63,14.18-.49,1.19-1,2.31-1.28,3.3A.44.44,0,0,1,343.34,240.76Z"/></g><rect class="cls-21" x="349.21" y="215.91" width="23.36" height="23.36"/><rect class="cls-22" x="343.75" y="215.91" width="23.36" height="23.36"/><rect class="cls-23" x="349.21" y="215.91" width="4.7" height="2.73"/><rect class="cls-21" x="354.44" y="219.93" width="9.86" height="1.44"/><rect class="cls-21" x="343.75" y="232.4" width="13.45" height="4.45"/><rect class="cls-23" x="350.72" y="233.28" width="5.57" height="1.02"/><rect class="cls-22" x="344.66" y="233.09" width="3" height="3"/><rect class="cls-22" x="369.04" y="215.91" width="1.59" height="2.46"/><rect class="cls-21" x="377.88" y="209.51" width="29.76" height="29.76"/><rect class="cls-22" x="370.92" y="209.51" width="29.76" height="29.76"/><rect class="cls-23" x="377.88" y="209.51" width="5.99" height="3.48"/><rect class="cls-21" x="384.55" y="214.63" width="12.56" height="1.84"/><rect class="cls-21" x="370.92" y="230.51" width="17.14" height="5.67"/><rect class="cls-23" x="379.81" y="231.64" width="7.1" height="1.3"/><rect class="cls-22" x="372.08" y="231.4" width="3.82" height="3.82"/><rect class="cls-22" x="403.15" y="209.51" width="2.03" height="3.14"/><rect class="cls-7" x="122" y="86.9" width="61.25" height="34.85" rx="1.71"/><rect class="cls-4" x="120.71" y="91.72" width="61.25" height="6.61"/><path class="cls-25" d="M178.71,111.71A5.67,5.67,0,1,1,173,106,5.67,5.67,0,0,1,178.71,111.71Z"/><rect class="cls-5" x="123.91" y="101.58" width="11.61" height="2.32"/><rect class="cls-5" x="138.32" y="101.58" width="11.61" height="2.32"/><rect class="cls-5" x="152.73" y="101.58" width="11.61" height="2.32"/><rect class="cls-5" x="167.14" y="101.58" width="11.61" height="2.32"/><rect class="cls-13" x="123.91" y="110.06" width="11.61" height="3.53"/><rect class="cls-13" x="138.45" y="110.06" width="11.61" height="3.53"/><rect class="cls-13" x="152.98" y="110.06" width="11.61" height="3.53"/><polygon class="cls-26" points="128.91 18.98 114.41 18.26 117.69 12.99 124.88 14.98 128.91 18.98"/><polygon class="cls-22" points="124.05 6.83 128.91 18.98 121.02 15.58 92.05 15.43 124.05 6.83"/><polygon class="cls-26" points="126.06 0 124.05 6.83 92.05 15.43 126.06 0"/><polygon class="cls-26" points="121.02 15.58 118.66 26.3 92.05 15.43 121.02 15.58"/><path class="cls-4" d="M278.53,128.25l-1.07-.33.34-1.06c.35.12.7.22,1,.32Z"/><path class="cls-4" d="M273.23,126.3c-.68-.3-1.36-.62-2-1l.49-1c.67.33,1.33.65,2,1Zm-6-3.18c-.64-.39-1.27-.81-1.89-1.23L266,121c.62.42,1.23.82,1.86,1.21Zm-5.51-3.93c-.59-.48-1.16-1-1.72-1.47l.73-.83c.55.49,1.12,1,1.69,1.43Zm-5-4.62c-.52-.55-1-1.12-1.51-1.69l.85-.72c.47.56,1,1.11,1.47,1.65Zm-4.27-5.28c-.43-.63-.84-1.26-1.22-1.91l.95-.57c.38.62.77,1.24,1.19,1.85Zm-3.31-5.94c-.23-.52-.44-1-.63-1.56-.07-.18-.14-.37-.2-.56l1.05-.37.19.55c.19.5.39,1,.61,1.5Zm-1.9-6.57a22.48,22.48,0,0,1-.18-2.3l1.12,0a17.89,17.89,0,0,0,.16,2.17Zm1.39-6.61-1.09-.26a18.81,18.81,0,0,1,.68-2.21l1,.4A15,15,0,0,0,248.67,90.17Zm2.65-5.89-.91-.64.42-.58c.32-.42.66-.83,1-1.22l.82.75a13.66,13.66,0,0,0-.95,1.14C251.59,83.91,251.45,84.09,251.32,84.28Zm4.64-4.5-.62-.92c.61-.41,1.25-.79,2-1.18l.53,1C257.15,79,256.54,79.4,256,79.78Zm5.87-3-.43-1,1.69-.7.38-.16.42,1-.38.15ZM268,74.11l-.49-1c.71-.35,1.34-.69,1.94-1l.56,1C269.4,73.39,268.75,73.75,268,74.11Zm5.71-3.79-.76-.81a12.45,12.45,0,0,0,1.43-1.59l.89.67A13.25,13.25,0,0,1,273.72,70.32Zm3.57-5.94-1.08-.26a11.94,11.94,0,0,0,.3-2.1l1.11,0A12.49,12.49,0,0,1,277.29,64.38ZM276,57.76c-.18-.68-.4-1.37-.66-2.08l1-.39c.28.74.51,1.48.7,2.19Zm-2.54-6c-.36-.63-.74-1.26-1.15-1.88l.94-.6c.41.64.81,1.28,1.18,1.94Zm-3.73-5.46c-.46-.58-.94-1.15-1.42-1.71l.85-.73c.49.57,1,1.15,1.44,1.75Zm-4.43-5c-.53-.53-1.06-1-1.59-1.55l.77-.81c.53.51,1.07,1,1.61,1.58Zm-4.92-4.48c-.6-.49-1.19-1-1.74-1.36l.66-.89c.57.42,1.17.89,1.78,1.39ZM255,33c-.63-.41-1.26-.8-1.89-1.18l.57-.95c.64.39,1.28.78,1.92,1.19Zm-5.76-3.37c-.65-.35-1.31-.69-2-1l.5-1c.67.34,1.34.68,2,1Zm-6-2.91-2.05-.88.43-1c.69.28,1.38.58,2.07.88Zm-6.19-2.48c-.7-.25-1.4-.5-2.1-.73l.35-1.06,2.12.74Zm-6.35-2.07c-.71-.2-1.42-.41-2.14-.6l.29-1.07c.73.19,1.45.4,2.17.61Zm-6.45-1.69-2.18-.49.24-1.09,2.19.5Zm-6.54-1.36-2.2-.38.18-1.1q1.11.18,2.22.39ZM211.12,18l-2.21-.29.13-1.1,2.23.29Zm-75.75-.42-.14-1.1c.74-.1,1.48-.19,2.23-.27l.13,1.1Zm69.1-.37q-1.11-.12-2.22-.21l.1-1.11c.75.06,1.49.14,2.24.21ZM142,16.86l-.1-1.11,2.23-.19.09,1.11Zm55.78-.21-2.22-.14.06-1.11,2.24.14Zm-49.11-.3-.06-1.11,2.23-.12.06,1.11Zm42.43-.07-2.24-.08,0-1.11,2.24.08Zm-6.7-.2-2.24,0,0-1.11,2.24.05Zm-29,0,0-1.11,2.24-.07,0,1.12ZM177.71,16l-2.23,0V14.81l2.24,0Zm-15.63-.06,0-1.11,2.24,0v1.12Zm8.93,0h-2.24V14.75H171Z"/><polygon class="cls-4" points="129.82 18.41 129.64 17.32 130.74 17.14 130.91 18.24 129.82 18.41"/><path class="cls-5" d="M24.65,219.8s18.83,1.26,17.75-21.17S34.64,156.17,26,154.78s-13.65,21.27-15.08,32.36-1.36,31.47,11.13,32.67Z"/><polygon class="cls-10" points="37.6 198.8 36.78 197.98 26.96 207.79 26.96 194.83 36.49 185.19 35.67 184.37 26.96 193.17 26.96 181.56 32.72 176.01 31.91 175.17 26.96 179.94 26.96 168.29 25.8 168.29 25.8 172.89 22.11 169.2 21.28 170.03 25.8 174.54 25.8 186.16 16.24 176.51 15.41 177.33 25.8 187.82 25.8 200.77 16.13 191.01 15.3 191.82 25.8 202.43 25.8 239.7 26.96 239.7 26.96 209.44 37.6 198.8"/><rect class="cls-5" x="6.16" y="239.31" width="411.6" height="1.28"/></svg>