<?xml version="1.0" encoding="utf-8"?>
<!-- Generator: Adobe Illustrator 23.0.2, SVG Export Plug-In . SVG Version: 6.00 Build 0)  -->
<svg version="1.0" id="Layer_1" xmlns="http://www.w3.org/2000/svg" xmlns:xlink="http://www.w3.org/1999/xlink" x="0px" y="0px"
	 width="90px" height="91.8px" viewBox="0 0 90 91.8" style="enable-background:new 0 0 90 91.8;" xml:space="preserve">
<style type="text/css">
	.st0{fill:none;stroke:#13426F;stroke-width:2;stroke-miterlimit:10;}
</style>
<g>
	<path class="st0" d="M47.8,56.9c-3.3-9.5-11.1-9.1-11.1-9.1l-4.1,7.5c0,0,0,0-4.1-7.5C21,47.5,17,57.2,17,57.2s0.1,0.1,0.2,0.3"/>
	<path class="st0" d="M63.6,51.1V42l-6.5-1.6h0c-0.6-2.6-1.6-5-3-7.2l3.7-5.5l-6.5-6.5l-5.7,3.5l0,0c-2.2-1.3-4.6-2.4-7.2-3L37,15.2
		h-9.2l-1.6,6.5v0c-2.6,0.6-5,1.6-7.2,3l0,0l-5.8-3.5l-6.7,6.7l3.9,5.3l0,0c-1.3,2.2-2.4,4.6-3,7.2h0L1.1,42v9.5l6.5,1h0
		c0.6,2.6,1.6,5,3,7.2l0,0l-3.5,5.8l6.7,6.7l5.3-3.9l0,0c2.2,1.3,4.6,2.4,7.2,3v0l1.6,6.5h9.5l1-6.5v0c2.6-0.6,5-1.6,7.2-3l5.5,3.7
		l6.5-6.5l-3.5-5.7l0,0c1.3-2.2,2.4-4.6,3-7.2L63.6,51.1z M32.3,65.1c-10.3,0-18.7-8.4-18.7-18.7S22,27.8,32.3,27.8S51,36.1,51,46.4
		S42.6,65.1,32.3,65.1z"/>
	<path class="st0" d="M90,17.8l-0.5-4.5l-3.3-0.4l0,0c-0.5-1.2-1.1-2.4-1.9-3.4l1.5-2.9l-3.6-2.8l-2.6,2l0,0
		c-1.2-0.5-2.4-0.9-3.7-1.1l-1-3.1L70.4,2l-0.4,3.3l0,0c-1.2,0.5-2.4,1.1-3.4,1.9l0,0l-3-1.4l-2.9,3.7l2.2,2.4l0,0
		c-0.5,1.2-0.9,2.4-1.1,3.7l0,0l-3.1,1.2l0.5,4.7l3.3,0.1l0,0c0.5,1.2,1.1,2.4,1.9,3.4l0,0l-1.4,3l3.7,2.9l2.4-2.2l0,0
		c1.2,0.5,2.4,0.9,3.7,1.1l0,0l1.2,3.1l4.7-0.5l0.1-3.3l0,0c1.2-0.5,2.4-1.1,3.4-1.9l2.9,1.5l2.8-3.6l-2-2.6l0,0
		c0.5-1.2,0.9-2.4,1.1-3.7L90,17.8z M75.2,24.7c-4.2,0.5-7.9-2.5-8.4-6.7s2.5-7.9,6.7-8.4c4.2-0.5,7.9,2.5,8.4,6.7
		S79.3,24.2,75.2,24.7z"/>
	<path class="st0" d="M90,74.8l-0.5-4.5l-3.3-0.4l0,0c-0.5-1.2-1.1-2.4-1.9-3.4l1.5-2.9l-3.6-2.8l-2.6,2l0,0
		c-1.2-0.5-2.4-0.9-3.7-1.1l-1-3.1l-4.5,0.5l-0.4,3.3l0,0c-1.2,0.5-2.4,1.1-3.4,1.9l0,0l-3-1.4l-2.9,3.7l2.2,2.4l0,0
		c-0.5,1.2-0.9,2.4-1.1,3.7l0,0l-3.1,1.2l0.5,4.7l3.3,0.1l0,0c0.5,1.2,1.1,2.4,1.9,3.4l0,0l-1.4,3l3.7,2.9l2.4-2.2l0,0
		c1.2,0.5,2.4,0.9,3.7,1.1l0,0l1.2,3.1l4.7-0.5l0.1-3.3l0,0c1.2-0.5,2.4-1.1,3.4-1.9l2.9,1.5l2.8-3.6l-2-2.6l0,0
		c0.5-1.2,0.9-2.4,1.1-3.7L90,74.8z M75.2,81.8c-4.2,0.5-7.9-2.5-8.4-6.7s2.5-7.9,6.7-8.4c4.2-0.5,7.9,2.5,8.4,6.7
		S79.3,81.3,75.2,81.8z"/>
	<circle class="st0" cx="32.3" cy="38.3" r="6.6"/>
	<path class="st0" d="M22.8,62.5c0.4-0.4,0.9-4.5,0.9-4.5"/>
	<line class="st0" x1="42.3" y1="62.2" x2="41.4" y2="58"/>
</g>
</svg>
