<svg xmlns="http://www.w3.org/2000/svg" xmlns:xlink="http://www.w3.org/1999/xlink" viewBox="0 0 335.78 269.01"><defs><style>.cls-1{isolation:isolate;}.cls-2{fill:#c8dbe9;}.cls-3{fill:#13426f;}.cls-4{fill:url(#linear-gradient);}.cls-5{fill:url(#linear-gradient-2);}.cls-6{fill:url(#linear-gradient-3);}.cls-7{mix-blend-mode:color-dodge;}.cls-8{fill:url(#radial-gradient);}.cls-9{fill:url(#linear-gradient-4);}.cls-10{fill:#188bbc;opacity:0.7;}.cls-10,.cls-11{mix-blend-mode:multiply;}.cls-11{fill:#8b71b2;opacity:0.4;}.cls-12,.cls-25{mix-blend-mode:screen;}.cls-13{opacity:0.26;fill:url(#linear-gradient-5);}.cls-14{fill:url(#linear-gradient-6);}.cls-15,.cls-17,.cls-21,.cls-23,.cls-24{opacity:0.13;}.cls-15{fill:url(#linear-gradient-7);}.cls-16,.cls-18,.cls-22{opacity:0.28;}.cls-16{fill:url(#linear-gradient-8);}.cls-17{fill:url(#linear-gradient-9);}.cls-18{fill:url(#linear-gradient-10);}.cls-19{opacity:0.16;fill:url(#linear-gradient-11);}.cls-20{opacity:0.09;fill:url(#linear-gradient-12);}.cls-21{fill:url(#linear-gradient-13);}.cls-22{fill:url(#linear-gradient-14);}.cls-23{fill:url(#linear-gradient-15);}.cls-24{fill:url(#linear-gradient-16);}.cls-25{fill:url(#radial-gradient-2);}</style><linearGradient id="linear-gradient" x1="194.99" y1="155.62" x2="392.53" y2="96.47" gradientUnits="userSpaceOnUse"><stop offset="0" stop-color="#0562a0"/><stop offset="1" stop-color="#3087c8"/></linearGradient><linearGradient id="linear-gradient-2" x1="-1.13" y1="179.59" x2="258.86" y2="121.31" xlink:href="#linear-gradient"/><linearGradient id="linear-gradient-3" x1="91.07" y1="151.08" x2="161" y2="151.08" xlink:href="#linear-gradient"/><radialGradient id="radial-gradient" cx="167.5" cy="142.34" r="39" gradientUnits="userSpaceOnUse"><stop offset="0" stop-color="#fff"/><stop offset="1"/></radialGradient><linearGradient id="linear-gradient-4" x1="105.37" y1="46.52" x2="207.9" y2="46.52" xlink:href="#linear-gradient"/><linearGradient id="linear-gradient-5" x1="108.88" y1="58.94" x2="121.84" y2="58.94" gradientUnits="userSpaceOnUse"><stop offset="0.03" stop-color="#5e86c4"/><stop offset="0.54" stop-color="#68aad3"/><stop offset="1" stop-color="#71cde2"/></linearGradient><linearGradient id="linear-gradient-6" x1="120.44" y1="57.86" x2="230.42" y2="57.86" xlink:href="#linear-gradient"/><linearGradient id="linear-gradient-7" x1="127.07" y1="55.31" x2="163.37" y2="55.31" gradientUnits="userSpaceOnUse"><stop offset="0.03" stop-color="#50c8eb"/><stop offset="1" stop-color="#71cde2"/></linearGradient><linearGradient id="linear-gradient-8" x1="130.25" y1="53.48" x2="159.77" y2="53.48" xlink:href="#linear-gradient-5"/><linearGradient id="linear-gradient-9" x1="184.97" y1="29.62" x2="201.67" y2="29.62" xlink:href="#linear-gradient-7"/><linearGradient id="linear-gradient-10" x1="186" y1="27.93" x2="199.93" y2="27.93" xlink:href="#linear-gradient-5"/><linearGradient id="linear-gradient-11" x1="141.15" y1="57.51" x2="177.09" y2="57.51" gradientUnits="userSpaceOnUse"><stop offset="0.03" stop-color="#53b5db"/><stop offset="1" stop-color="#6ccad3"/></linearGradient><linearGradient id="linear-gradient-12" x1="174.01" y1="82.96" x2="203.51" y2="82.96" xlink:href="#linear-gradient-7"/><linearGradient id="linear-gradient-13" x1="157.62" y1="30.71" x2="190.95" y2="30.71" xlink:href="#linear-gradient-7"/><linearGradient id="linear-gradient-14" x1="161.02" y1="29.79" x2="188.95" y2="29.79" xlink:href="#linear-gradient-5"/><linearGradient id="linear-gradient-15" x1="122.07" y1="82.58" x2="153.2" y2="82.58" xlink:href="#linear-gradient-7"/><linearGradient id="linear-gradient-16" x1="167.3" y1="46.57" x2="214.38" y2="46.57" xlink:href="#linear-gradient-7"/><radialGradient id="radial-gradient-2" cx="159.66" cy="116.01" r="5" gradientUnits="userSpaceOnUse"><stop offset="0.09" stop-color="#21aed3"/><stop offset="0.1" stop-color="#228db7"/><stop offset="0.13" stop-color="#252f67"/><stop offset="0.15" stop-color="#202959"/><stop offset="0.22" stop-color="#161c3e"/><stop offset="0.29" stop-color="#0e1227"/><stop offset="0.38" stop-color="#080a16"/><stop offset="0.48" stop-color="#04050a"/><stop offset="0.63" stop-color="#020203"/><stop offset="1" stop-color="#010101"/></radialGradient></defs><title>Big Data and AI</title><g class="cls-1"><g id="Layer_1" data-name="Layer 1"><path class="cls-2" d="M306.63,219.37a4.43,4.43,0,0,0-3.86-.05l-22.15-12.9a.71.71,0,0,0-.26-.07l-18.74.37L227.46,186.9l-.5.86,34.28,19.9a.5.5,0,0,0,.26.06l18.74-.37L302,220a1.45,1.45,0,0,0-.25.79,1.72,1.72,0,0,0,1,1.43,4.07,4.07,0,0,0,2,.49,4,4,0,0,0,2-.48,1.68,1.68,0,0,0,1-1.43A1.73,1.73,0,0,0,306.63,219.37Zm-.49,2a3.48,3.48,0,0,1-3,0c-.3-.18-.47-.38-.47-.57a.43.43,0,0,1,.12-.28l0,0,.08-.14a1.25,1.25,0,0,1,.22-.16,3,3,0,0,1,1.47-.34,3.12,3.12,0,0,1,1.49.34c.3.18.47.38.47.57S306.43,221.19,306.14,221.36Z"/><path class="cls-2" d="M308.13,201.08a4.46,4.46,0,0,0-3.95,0c-.11.07-.21.15-.3.22L298.33,198l-36.12-.82-26.64-15.56-.5.86,26.75,15.63.11.07,36.12.81,5.23,3.1a1.34,1.34,0,0,0-.06.4,1.73,1.73,0,0,0,1,1.44,4.07,4.07,0,0,0,2,.48,4,4,0,0,0,2-.48,1.69,1.69,0,0,0,1-1.42A1.73,1.73,0,0,0,308.13,201.08Zm-.48,2a3.48,3.48,0,0,1-3,0c-.3-.17-.47-.38-.47-.57a.36.36,0,0,1,0-.1l.13-.21a1.17,1.17,0,0,1,.31-.25,3,3,0,0,1,1.47-.34,3.05,3.05,0,0,1,1.48.35c.3.17.48.38.48.57S307.94,202.91,307.65,203.07Z"/><path class="cls-2" d="M334.21,195.64a4.43,4.43,0,0,0-3.8-.08l-25-.09-17-9.57L264,185l-15.36-9.13-.51.86,15.47,9.2.11.06,24.37.87L305,196.4l.11.07,24.29.09a1.21,1.21,0,0,0-.11.49,1.71,1.71,0,0,0,1,1.44,4.07,4.07,0,0,0,2,.48,4,4,0,0,0,2-.48,1.53,1.53,0,0,0,0-2.85Zm-.49,2a3.46,3.46,0,0,1-3,0c-.3-.17-.47-.38-.47-.57s.13-.33.36-.49h.19v-.11a3.09,3.09,0,0,1,1.38-.3,3.05,3.05,0,0,1,1.48.35c.3.17.47.38.47.57S334,197.46,333.72,197.63Z"/><path class="cls-2" d="M212.66,256.52a4.49,4.49,0,0,0-3.63-.16l-10.4-6.68L195,229.34a.5.5,0,0,0-.24-.34l-19.25-11.25-.5.86,19.05,11.14,3.63,20.32a.45.45,0,0,0,.22.33L208.15,257a1.45,1.45,0,0,0-.4,1,1.7,1.7,0,0,0,1,1.43,4,4,0,0,0,2,.49,4,4,0,0,0,2-.48,1.54,1.54,0,0,0,0-2.86Zm-.49,2a3.46,3.46,0,0,1-2.95,0c-.3-.18-.47-.38-.47-.57s.16-.39.46-.56a3.33,3.33,0,0,1,2.95,0c.3.17.47.38.47.56S212.46,258.34,212.17,258.51Z"/><path class="cls-2" d="M183.75,244.12a4.52,4.52,0,0,0-3.66-.15l-16.66-9.55L177,226.57a.5.5,0,0,0,.25-.43.5.5,0,0,0-.24-.43l-8-5-.52.85,7.32,4.52L162.18,234a.49.49,0,0,0,0,.86l17,9.77a1.41,1.41,0,0,0-.37.92,1.72,1.72,0,0,0,1,1.43,4.07,4.07,0,0,0,2,.49,4,4,0,0,0,2-.48,1.69,1.69,0,0,0,1-1.42A1.73,1.73,0,0,0,183.75,244.12Zm-.49,2a3.48,3.48,0,0,1-3,0c-.29-.17-.47-.38-.47-.57s.17-.39.46-.56a3.35,3.35,0,0,1,3,0c.3.17.47.38.47.57S183.55,245.94,183.26,246.11Z"/><path class="cls-2" d="M232.46,252.24a4.49,4.49,0,0,0-3.73-.1l-22.81-12.85-8.31-22.52a.51.51,0,0,0-.22-.26l-10.57-6-.49.86,10.41,5.9,8.31,22.52a.51.51,0,0,0,.22.26l22.6,12.74a1.39,1.39,0,0,0-.33.87,1.7,1.7,0,0,0,1,1.43,4.34,4.34,0,0,0,3.95,0,1.71,1.71,0,0,0,1-1.43A1.68,1.68,0,0,0,232.46,252.24Zm-.51,2a3.43,3.43,0,0,1-2.95,0c-.3-.17-.46-.37-.46-.56a.55.55,0,0,1,.21-.37l.23.13.24-.43a3.39,3.39,0,0,1,1.28-.25,3,3,0,0,1,1.46.35c.29.17.46.37.46.56S232.25,254.06,232,254.23Z"/><path class="cls-2" d="M254.48,249.54a4.45,4.45,0,0,0-4,0,2.18,2.18,0,0,0-.31.22l-25.16-14.61-4.63-12.37-26.9-15.71-.51.86,26.6,15.54,4.63,12.36,25.38,14.74a1.76,1.76,0,0,0-.06.39,1.73,1.73,0,0,0,1,1.44,4.07,4.07,0,0,0,2,.48,4,4,0,0,0,2-.48,1.66,1.66,0,0,0,1-1.42A1.73,1.73,0,0,0,254.48,249.54Zm-.49,2a3.48,3.48,0,0,1-3,0c-.3-.17-.47-.38-.47-.57a.29.29,0,0,1,0-.09l.13-.22a1.35,1.35,0,0,1,.31-.25,3,3,0,0,1,1.47-.34,3.12,3.12,0,0,1,1.49.35c.3.17.47.38.47.57S254.28,251.37,254,251.54Z"/><path class="cls-2" d="M267.57,175l36.12.82,5.24,3.1a1.32,1.32,0,0,0-.06.39,1.71,1.71,0,0,0,1,1.44,4.34,4.34,0,0,0,4,0,1.54,1.54,0,0,0,0-2.86,4.4,4.4,0,0,0-3.95,0,2.44,2.44,0,0,0-.31.22L304,174.87l-36.13-.82-8.66-5-.5.86,8.77,5.07Zm44.22,3.41a3.07,3.07,0,0,1,1.49.35c.3.18.47.38.47.57s-.16.39-.46.56a3.5,3.5,0,0,1-3,0c-.3-.18-.47-.39-.47-.58a.44.44,0,0,1,0-.1l.12-.2a1,1,0,0,1,.32-.25A3,3,0,0,1,311.79,178.45Z"/><path class="cls-2" d="M290.51,233.14a4.42,4.42,0,0,0-4,0l-.31.22-35.7-20.87-11.78-2.42-24.85-14.35-.5.87L238.33,211l11.77,2.42,35.55,20.78a1.32,1.32,0,0,0-.06.39,1.73,1.73,0,0,0,1,1.44,4.07,4.07,0,0,0,2,.48,4,4,0,0,0,2-.48,1.69,1.69,0,0,0,1-1.42A1.73,1.73,0,0,0,290.51,233.14Zm-.49,2a3.48,3.48,0,0,1-3,0c-.3-.17-.47-.38-.47-.57a.29.29,0,0,1,0-.09l.13-.22a1.68,1.68,0,0,1,.31-.25,3.35,3.35,0,0,1,3,0,.82.82,0,0,1,.47.57C290.48,234.76,290.31,235,290,235.13Z"/><path class="cls-2" d="M283.56,252.34a4.46,4.46,0,0,0-3.95,0c-.12.07-.21.15-.31.22l-35.64-20.83-15.14-16.08-25-14.47-.5.86,24.85,14.35L243,232.46l35.73,20.91a1.23,1.23,0,0,0-.06.39,1.7,1.7,0,0,0,1,1.43,4,4,0,0,0,2,.49,4,4,0,0,0,2-.48,1.68,1.68,0,0,0,1-1.43A1.7,1.7,0,0,0,283.56,252.34Zm-.49,2a3.43,3.43,0,0,1-2.95,0c-.3-.17-.47-.37-.47-.56a.3.3,0,0,1,0-.1l.12-.21a1,1,0,0,1,.32-.25,3,3,0,0,1,1.47-.35,3.08,3.08,0,0,1,1.48.35c.3.18.47.38.47.57S283.36,254.16,283.07,254.33Z"/><path class="cls-2" d="M80.35,117.31,58.1,104.63a1.47,1.47,0,0,0,.44-1,1.67,1.67,0,0,0-1-1.42,4.4,4.4,0,0,0-3.95,0,1.53,1.53,0,0,0,0,2.85,4,4,0,0,0,2,.48,4.19,4.19,0,0,0,1.58-.29l22.75,13L99,123.13l23.14,14.54.53-.84-23.2-14.59ZM54.12,104.2c-.29-.17-.46-.37-.46-.56s.17-.4.47-.57a3.33,3.33,0,0,1,2.95,0c.3.17.46.38.46.56s-.17.4-.47.57A3.46,3.46,0,0,1,54.12,104.2Z"/><path class="cls-2" d="M100.42,97.6,81.34,93.8,62.44,83.21a1.52,1.52,0,0,0,.44-1,1.68,1.68,0,0,0-1-1.43,4.45,4.45,0,0,0-4,0,1.72,1.72,0,0,0-1,1.43,1.7,1.7,0,0,0,1,1.43,4,4,0,0,0,2,.48h0a4.29,4.29,0,0,0,1.59-.3L80.92,94.71,100,98.5l45.18,27.43.52-.86ZM59.92,83.13a3,3,0,0,1-1.47-.35c-.29-.17-.46-.37-.46-.56s.17-.39.47-.57A3.12,3.12,0,0,1,60,81.31a3,3,0,0,1,1.47.34c.29.17.46.37.46.56s-.17.39-.47.57a3.12,3.12,0,0,1-1.49.35Z"/><path class="cls-2" d="M72.47,139.21l-24.6,3.21L26.42,130.15a1.49,1.49,0,0,0,.44-1,1.66,1.66,0,0,0-1-1.42,4.43,4.43,0,0,0-3.95,0,1.71,1.71,0,0,0-1,1.44,1.69,1.69,0,0,0,1,1.42,4,4,0,0,0,2,.48h0a4.29,4.29,0,0,0,1.59-.29l22,12.6a.42.42,0,0,0,.31.06l24.6-3.2L95,153.39l.5-.86L72.79,139.28A.51.51,0,0,0,72.47,139.21Zm-50-9.49c-.3-.17-.46-.38-.46-.56s.17-.4.47-.57a3.05,3.05,0,0,1,1.48-.35,3,3,0,0,1,1.47.34c.29.17.46.37.46.56a.69.69,0,0,1-.35.49l0,0,0,.07-.05,0A3.5,3.5,0,0,1,22.44,129.72Z"/><path class="cls-2" d="M59.69,128.46l-42-25.25a1.54,1.54,0,0,0,.53-1.11,1.68,1.68,0,0,0-1-1.43,4.46,4.46,0,0,0-3.95,0,1.54,1.54,0,0,0,0,2.86,4,4,0,0,0,2,.48h0a4.31,4.31,0,0,0,1.42-.24l42.64,25.6.11.07,36.12.82,19.27,11.61.52-.86-19.5-11.74ZM15.23,103a3,3,0,0,1-1.47-.35c-.29-.17-.46-.37-.46-.56s.17-.39.47-.57a3.12,3.12,0,0,1,1.49-.35,3,3,0,0,1,1.46.35c.3.17.46.37.46.56s-.16.39-.45.56l-.43-.26-.32.53a3.08,3.08,0,0,1-.75.09Z"/><path class="cls-2" d="M49.4,161.07,42,156.77a1.63,1.63,0,0,0,.81-1.32,1.69,1.69,0,0,0-1-1.42,4.43,4.43,0,0,0-3.95,0,1.54,1.54,0,0,0,0,2.86,4.13,4.13,0,0,0,2,.47,4.64,4.64,0,0,0,1-.11l8.6,5L66,152.68,82.11,162l.5-.87L66,151.53Zm-11.07-5c-.29-.17-.45-.37-.46-.56s.18-.4.48-.57a3.05,3.05,0,0,1,1.48-.35,3,3,0,0,1,1.47.35c.29.16.46.37.46.55s-.17.4-.47.57a1.46,1.46,0,0,1-.36.16l0,0,0,.06a3.44,3.44,0,0,1-1,.16A3,3,0,0,1,38.33,156Z"/><path class="cls-2" d="M308.66,146.7a4.43,4.43,0,0,0-4,0,1.69,1.69,0,0,0-1,1.42,1.65,1.65,0,0,0,.83,1.33l-18.14,11-16.55-9.54-16.66,9.59.5.87L269.89,152l16.3,9.41.26.14,19.27-11.63a4.62,4.62,0,0,0,1,.11,4,4,0,0,0,2-.48,1.68,1.68,0,0,0,.95-1.42A1.71,1.71,0,0,0,308.66,146.7Zm-.48,2a3.58,3.58,0,0,1-2.53.17l0-.05,0,0a3,3,0,0,1-.36-.16c-.3-.17-.47-.38-.47-.57s.17-.39.46-.56a3.13,3.13,0,0,1,1.47-.34,3.05,3.05,0,0,1,1.48.35c.3.17.47.38.47.57S308.47,148.53,308.18,148.7Z"/><path class="cls-2" d="M327.91,112.32a4.4,4.4,0,0,0-4,0,1.69,1.69,0,0,0-1,1.42,1.51,1.51,0,0,0,.45,1l-42.57,25.16-18.73-.37a.71.71,0,0,0-.26.07l-22.75,13.25.5.86,22.63-13.17,18.73.37a.77.77,0,0,0,.27-.07l43.11-25.49a4.23,4.23,0,0,0,1.58.29,4,4,0,0,0,2-.48,1.54,1.54,0,0,0,0-2.85Zm-.48,2a3.45,3.45,0,0,1-3,0l-.06,0,0-.05h0a.68.68,0,0,1-.35-.49c0-.18.17-.39.46-.56a3.13,3.13,0,0,1,1.47-.34,3.05,3.05,0,0,1,1.48.35c.3.17.47.38.47.57S327.72,114.14,327.43,114.31Z"/><path class="cls-2" d="M255.13,103.93,299,78.55a4.23,4.23,0,0,0,1.58.3,4,4,0,0,0,2-.48,1.67,1.67,0,0,0,1-1.42,1.71,1.71,0,0,0-1-1.44,4.46,4.46,0,0,0-3.95,0,1.69,1.69,0,0,0-1,1.43,1.49,1.49,0,0,0,.44,1l-43.7,25.28-6,12.7L212,137.15l.5.87,36.6-21.4Zm43.95-27.56a3,3,0,0,1,1.46-.34,3,3,0,0,1,1.49.35c.3.17.47.38.47.57s-.17.39-.46.55a3.46,3.46,0,0,1-3,0c-.3-.17-.47-.38-.47-.57S298.78,76.54,299.08,76.37Z"/><path class="cls-2" d="M270.52,122.42l24-13.54a4.56,4.56,0,0,0,1.46.24,4.13,4.13,0,0,0,2-.47,1.55,1.55,0,0,0,0-2.86,4.43,4.43,0,0,0-4,0,1.69,1.69,0,0,0-1,1.42,1.55,1.55,0,0,0,.51,1.09L270.2,121.47,238.89,130l-19.51,11.33.5.86L239.22,131ZM294,107.2c0-.18.17-.39.46-.55a3,3,0,0,1,1.47-.35,3.05,3.05,0,0,1,1.48.35c.3.17.47.38.47.57s-.16.39-.45.56a3.54,3.54,0,0,1-2.24.25l-.3-.53-.44.26C294.16,107.59,294,107.39,294,107.2Z"/><path class="cls-2" d="M227.11,98.59l1-15L254,68.48a4.26,4.26,0,0,0,3.7-.11,1.69,1.69,0,0,0,1-1.42,1.73,1.73,0,0,0-1-1.44,4.48,4.48,0,0,0-4,0,1.69,1.69,0,0,0-1,1.43,1.39,1.39,0,0,0,.36.9l-25.72,15-.23.14-1,15-39.46,23.2.5.86,39.69-23.33Zm26.67-31.66c0-.19.17-.39.46-.56a3.35,3.35,0,0,1,3,0c.29.17.47.38.47.57s-.17.39-.46.55a3.48,3.48,0,0,1-2.86,0l-.18-.31-.16.09A.58.58,0,0,1,253.78,66.93Z"/><path class="cls-2" d="M105,198.4l-5,13.69L77.18,225a4.48,4.48,0,0,0-3.74.1,1.53,1.53,0,0,0,0,2.85,4.28,4.28,0,0,0,4,0,1.66,1.66,0,0,0,1-1.42,1.44,1.44,0,0,0-.33-.88l22.6-12.74a.51.51,0,0,0,.22-.26l5-13.7,10.4-5.89-.49-.87-10.56,6A.51.51,0,0,0,105,198.4ZM77.37,226.49c0,.18-.17.39-.46.56a3.52,3.52,0,0,1-3,0c-.3-.17-.47-.38-.47-.57s.17-.39.46-.56a3,3,0,0,1,1.47-.34,3.16,3.16,0,0,1,1.27.25l.24.42.23-.13A.53.53,0,0,1,77.37,226.49Z"/><path class="cls-2" d="M100.93,228.28l6-12.69,24.78-14.31-.5-.86L106.32,214.8l-.14.08-6,12.69L64.59,248.36c-.1-.07-.19-.15-.31-.22a4.46,4.46,0,0,0-4,0,1.54,1.54,0,0,0,0,2.86,4,4,0,0,0,2,.48,4.07,4.07,0,0,0,2-.49,1.7,1.7,0,0,0,1-1.43,1.23,1.23,0,0,0-.06-.39ZM63.77,250.14a3.48,3.48,0,0,1-3,0,.78.78,0,0,1-.46-.55c0-.19.18-.4.48-.57a3,3,0,0,1,1.48-.35,3,3,0,0,1,1.47.34,1.35,1.35,0,0,1,.31.25l.13.21a.44.44,0,0,1,0,.1C64.24,249.76,64.07,250,63.77,250.14Z"/><path class="cls-2" d="M76,209.58a.5.5,0,0,0,.26-.06l34.29-19.9-.5-.86L75.88,208.58l-18.73-.37a.63.63,0,0,0-.26.07L8.11,236.68a4.44,4.44,0,0,0-3.85,0,1.54,1.54,0,0,0,0,2.86,4.13,4.13,0,0,0,2,.48,4.07,4.07,0,0,0,2-.49,1.72,1.72,0,0,0,1-1.43,1.45,1.45,0,0,0-.25-.79l48.35-28.15ZM8.17,238.15c0,.19-.17.39-.47.57a3.12,3.12,0,0,1-1.49.35,3.16,3.16,0,0,1-1.47-.35c-.29-.17-.45-.37-.46-.56s.18-.39.48-.56a3,3,0,0,1,1.48-.35,3,3,0,0,1,1.47.34,1,1,0,0,1,.22.16l.08.14,0,0A.43.43,0,0,1,8.17,238.15Z"/><path class="cls-2" d="M14.27,214.62a4.26,4.26,0,0,0,3.95,0,1.7,1.7,0,0,0,1-1.43,1.32,1.32,0,0,0-.06-.39l20.33-11.93,36.12-.81,26.86-15.7-.5-.86L75.3,199.05l-36.12.82L18.54,212a3.55,3.55,0,0,0-.31-.23,4.46,4.46,0,0,0-4,0,1.71,1.71,0,0,0-1,1.44A1.69,1.69,0,0,0,14.27,214.62Zm.51-2a3,3,0,0,1,1.48-.35,3,3,0,0,1,1.47.34,1.17,1.17,0,0,1,.31.25l.13.21a.36.36,0,0,1,0,.1c0,.19-.17.4-.47.57a3.46,3.46,0,0,1-2.95,0c-.3-.16-.46-.37-.46-.55S14.48,212.8,14.78,212.63Z"/><path class="cls-2" d="M22.26,196.46a4,4,0,0,0,2,.48,4.07,4.07,0,0,0,2-.48,1.71,1.71,0,0,0,1-1.44,1.45,1.45,0,0,0-.11-.5l12-.08,10.38-5.69,24.24-.86h.12l17.41-10.33-.51-.86-17.19,10.2-24.23.87h-.12l-10.36,5.68-12.69.09a4.47,4.47,0,0,0-3.8.07,1.71,1.71,0,0,0-1,1.44A1.67,1.67,0,0,0,22.26,196.46Zm.51-2a3.05,3.05,0,0,1,1.48-.35,3.09,3.09,0,0,1,1.38.3v.11h.19c.22.16.36.33.36.49s-.17.4-.47.57a3.46,3.46,0,0,1-2.95,0c-.3-.17-.46-.37-.46-.56S22.47,194.64,22.77,194.47Z"/><path class="cls-2" d="M118.55,224.28l-8.92,15.21-5.32,3.15c-.1-.07-.19-.15-.31-.22a4.46,4.46,0,0,0-4,0,1.71,1.71,0,0,0-1,1.44,1.69,1.69,0,0,0,1,1.42,4.26,4.26,0,0,0,3.95,0,1.7,1.7,0,0,0,1-1.43,1.34,1.34,0,0,0-.06-.4l5.46-3.23,8.92-15.2,26.64-15.56-.51-.87-26.75,15.63Zm-15.06,20.14a3.46,3.46,0,0,1-2.95,0c-.29-.16-.46-.37-.46-.55s.17-.4.47-.57a3.33,3.33,0,0,1,3,0,1.23,1.23,0,0,1,.32.25l.12.21a.3.3,0,0,1,0,.1C104,244,103.79,244.25,103.49,244.42Z"/><path class="cls-2" d="M23.71,182.66a4.13,4.13,0,0,0,2,.48,4.07,4.07,0,0,0,2-.49,1.72,1.72,0,0,0,1-1.43,1.21,1.21,0,0,0-.06-.38l11.8-6.77,29.36,2.83.16,0,10.43-6.2-.5-.86-10.15,6-29.37-2.83h-.15L28,180a2.49,2.49,0,0,0-.31-.23,4.42,4.42,0,0,0-4,0,1.74,1.74,0,0,0-1,1.43A1.69,1.69,0,0,0,23.71,182.66Zm.51-2a3.12,3.12,0,0,1,1.49-.35,3,3,0,0,1,1.47.35,1,1,0,0,1,.31.25l.13.21a.44.44,0,0,1,0,.1c0,.19-.17.39-.47.57a3.12,3.12,0,0,1-1.49.35,3.16,3.16,0,0,1-1.47-.35c-.29-.17-.46-.37-.46-.56S23.93,180.84,24.22,180.66Z"/><path class="cls-2" d="M158,216.06l-26.75,15.63-.23.13-1,15-25.86,14.93a2.62,2.62,0,0,0-.32-.23,4.46,4.46,0,0,0-4,0,1.71,1.71,0,0,0-1,1.44,1.69,1.69,0,0,0,1,1.42,4,4,0,0,0,2,.48h0a4,4,0,0,0,2-.49,1.7,1.7,0,0,0,1-1.43,1.32,1.32,0,0,0-.06-.39L131,247.42l1-15,26.52-15.49Zm-54.71,47.46a3.46,3.46,0,0,1-3,0c-.29-.17-.46-.37-.46-.55s.17-.4.47-.57a3,3,0,0,1,1.49-.35,3,3,0,0,1,1.46.34,1.23,1.23,0,0,1,.32.25l.12.22a.29.29,0,0,1,0,.09C103.76,263.14,103.59,263.35,103.29,263.52Z"/><path class="cls-2" d="M140.75,235.92,166.53,221l-.5-.86L138.7,236l19.79,10.76-12.85,7.6a2.28,2.28,0,0,0-.3-.21,4.45,4.45,0,0,0-4,0,1.73,1.73,0,0,0-1,1.44,1.69,1.69,0,0,0,1,1.42,4,4,0,0,0,2,.48,4.07,4.07,0,0,0,2-.48,1.73,1.73,0,0,0,1-1.44,1.23,1.23,0,0,0-.06-.39l14.27-8.45Zm4.08,20.17a3.52,3.52,0,0,1-3,0c-.29-.17-.46-.38-.46-.56s.18-.4.47-.57a3.12,3.12,0,0,1,1.49-.35,3,3,0,0,1,1.47.34,1.17,1.17,0,0,1,.31.25l.13.21a.36.36,0,0,1,0,.1C145.3,255.71,145.13,255.92,144.83,256.09Z"/><path class="cls-3" d="M168.1,223a.81.81,0,0,1-.41-.11L72.92,167.72a.81.81,0,0,1-.41-.7.84.84,0,0,1,.41-.71l94.29-55.14a.82.82,0,0,1,.83,0l94.86,55.24a.84.84,0,0,1,.41.71.79.79,0,0,1-.41.7l-94.39,55.09A.87.87,0,0,1,168.1,223ZM75,167l93.15,54.24,92.77-54.14-93.24-54.3Z"/><polygon class="cls-3" points="168.07 205.99 168.07 215.75 251.94 166.83 251.94 157.07 168.07 205.99"/><polygon class="cls-3" points="168.11 205.99 168.11 215.75 83.96 166.69 83.96 156.98 168.11 205.99"/><polygon class="cls-2" points="83.96 156.98 168.11 205.99 251.94 157.07 167.69 108.01 83.96 156.98"/><polygon class="cls-2" points="168.06 188.66 168.06 202.38 245.99 156.93 245.99 143.21 168.06 188.66"/><polygon class="cls-4" points="168.07 152.79 168.07 198.38 251.94 149.46 251.94 103.87 168.07 152.79"/><path class="cls-2" d="M174.29,187.55V156.36l71.42-41.66v31.19Zm1.77-30.16v27.06l67.88-39.58V117.8Z"/><polygon class="cls-5" points="168.11 152.79 168.11 198.38 83.96 149.32 83.96 103.79 168.11 152.79"/><polygon class="cls-6" points="91.07 145.24 91.07 116.16 161 156.88 161 186 91.07 145.24"/><path class="cls-2" d="M161.89,187.55l-71.71-41.8V114.61l71.71,41.76ZM92,144.73l68.15,39.73V157.39L92,117.7Z"/><polygon class="cls-2" points="151.45 159.37 154.15 160.93 154.15 157.83 151.45 156.26 151.45 159.37"/><polygon class="cls-2" points="146.36 156.43 149.07 158 149.07 154.89 146.36 153.33 146.36 156.43"/><polygon class="cls-2" points="141.28 153.5 143.99 155.06 143.99 151.96 141.28 150.39 141.28 153.5"/><polygon class="cls-3" points="136.19 150.56 138.9 152.13 138.9 149.02 136.19 147.46 136.19 150.56"/><polygon class="cls-3" points="131.11 147.63 133.82 149.19 133.82 146.08 131.11 144.52 131.11 147.63"/><polygon class="cls-2" points="126.02 144.69 128.73 146.25 128.73 143.15 126.02 141.59 126.02 144.69"/><polygon class="cls-2" points="120.94 141.76 123.65 143.32 123.65 140.21 120.94 138.65 120.94 141.76"/><polygon class="cls-2" points="115.86 138.82 118.56 140.38 118.56 137.28 115.86 135.72 115.86 138.82"/><polygon class="cls-3" points="110.77 135.88 113.48 137.45 113.48 134.34 110.77 132.78 110.77 135.88"/><polygon class="cls-2" points="105.69 132.95 108.39 134.51 108.39 131.41 105.69 129.84 105.69 132.95"/><polygon class="cls-2" points="100.6 130.01 103.31 131.58 103.31 128.47 100.6 126.91 100.6 130.01"/><polygon class="cls-2" points="95.52 127.08 98.22 128.64 98.22 125.53 95.52 123.97 95.52 127.08"/><polygon class="cls-2" points="151.45 164.89 154.15 166.45 154.15 163.35 151.45 161.78 151.45 164.89"/><polygon class="cls-2" points="146.36 161.95 149.07 163.52 149.07 160.41 146.36 158.85 146.36 161.95"/><polygon class="cls-2" points="141.28 159.02 143.99 160.58 143.99 157.47 141.28 155.91 141.28 159.02"/><polygon class="cls-3" points="136.19 156.08 138.9 157.65 138.9 154.54 136.19 152.98 136.19 156.08"/><polygon class="cls-2" points="131.11 153.15 133.82 154.71 133.82 151.6 131.11 150.04 131.11 153.15"/><polygon class="cls-2" points="126.02 150.21 128.73 151.78 128.73 148.67 126.02 147.11 126.02 150.21"/><polygon class="cls-2" points="120.94 147.28 123.65 148.84 123.65 145.73 120.94 144.17 120.94 147.28"/><polygon class="cls-2" points="115.86 144.34 118.56 145.9 118.56 142.8 115.86 141.24 115.86 144.34"/><polygon class="cls-2" points="110.77 141.41 113.48 142.97 113.48 139.86 110.77 138.3 110.77 141.41"/><polygon class="cls-2" points="105.69 138.47 108.39 140.03 108.39 136.93 105.69 135.36 105.69 138.47"/><polygon class="cls-2" points="100.6 135.53 103.31 137.1 103.31 133.99 100.6 132.43 100.6 135.53"/><polygon class="cls-2" points="95.52 132.6 98.22 134.16 98.22 131.06 95.52 129.49 95.52 132.6"/><polygon class="cls-2" points="151.45 170.37 154.15 171.93 154.15 168.82 151.45 167.26 151.45 170.37"/><polygon class="cls-2" points="146.36 167.43 149.07 168.99 149.07 165.89 146.36 164.33 146.36 167.43"/><polygon class="cls-2" points="141.28 164.5 143.99 166.06 143.99 162.95 141.28 161.39 141.28 164.5"/><polygon class="cls-2" points="136.19 161.56 138.9 163.12 138.9 160.02 136.19 158.46 136.19 161.56"/><polygon class="cls-2" points="131.11 158.63 133.82 160.19 133.82 157.08 131.11 155.52 131.11 158.63"/><polygon class="cls-2" points="126.02 155.69 128.73 157.25 128.73 154.15 126.02 152.58 126.02 155.69"/><polygon class="cls-3" points="120.94 152.75 123.65 154.32 123.65 151.21 120.94 149.65 120.94 152.75"/><polygon class="cls-2" points="115.86 149.82 118.56 151.38 118.56 148.28 115.86 146.71 115.86 149.82"/><polygon class="cls-2" points="110.77 146.88 113.48 148.44 113.48 145.34 110.77 143.78 110.77 146.88"/><polygon class="cls-2" points="105.69 143.95 108.39 145.51 108.39 142.4 105.69 140.84 105.69 143.95"/><polygon class="cls-2" points="100.6 141.01 103.31 142.57 103.31 139.47 100.6 137.91 100.6 141.01"/><polygon class="cls-2" points="95.52 138.08 98.22 139.64 98.22 136.53 95.52 134.97 95.52 138.08"/><polygon class="cls-2" points="151.45 175.89 154.15 177.45 154.15 174.34 151.45 172.78 151.45 175.89"/><polygon class="cls-3" points="146.36 172.95 149.07 174.51 149.07 171.41 146.36 169.85 146.36 172.95"/><polygon class="cls-3" points="141.28 170.02 143.99 171.58 143.99 168.47 141.28 166.91 141.28 170.02"/><polygon class="cls-2" points="136.19 167.08 138.9 168.64 138.9 165.54 136.19 163.97 136.19 167.08"/><polygon class="cls-2" points="131.11 164.15 133.82 165.71 133.82 162.6 131.11 161.04 131.11 164.15"/><polygon class="cls-2" points="126.02 161.21 128.73 162.77 128.73 159.67 126.02 158.1 126.02 161.21"/><polygon class="cls-3" points="120.94 158.27 123.65 159.84 123.65 156.73 120.94 155.17 120.94 158.27"/><polygon class="cls-2" points="115.86 155.34 118.56 156.9 118.56 153.79 115.86 152.23 115.86 155.34"/><polygon class="cls-2" points="110.77 152.4 113.48 153.97 113.48 150.86 110.77 149.3 110.77 152.4"/><polygon class="cls-2" points="105.69 149.47 108.39 151.03 108.39 147.92 105.69 146.36 105.69 149.47"/><polygon class="cls-3" points="100.6 146.53 103.31 148.09 103.31 144.99 100.6 143.43 100.6 146.53"/><polygon class="cls-2" points="95.52 143.6 98.22 145.16 98.22 142.05 95.52 140.49 95.52 143.6"/><polygon class="cls-2" points="184.04 159.37 181.33 160.93 181.33 157.83 184.04 156.26 184.04 159.37"/><polygon class="cls-3" points="189.12 156.43 186.42 158 186.42 154.89 189.12 153.33 189.12 156.43"/><polygon class="cls-2" points="194.21 153.5 191.5 155.06 191.5 151.96 194.21 150.39 194.21 153.5"/><polygon class="cls-3" points="199.29 150.56 196.59 152.13 196.59 149.02 199.29 147.46 199.29 150.56"/><polygon class="cls-3" points="204.38 147.63 201.67 149.19 201.67 146.08 204.38 144.52 204.38 147.63"/><polygon class="cls-2" points="209.46 144.69 206.75 146.25 206.75 143.15 209.46 141.59 209.46 144.69"/><polygon class="cls-2" points="214.54 141.76 211.84 143.32 211.84 140.21 214.54 138.65 214.54 141.76"/><polygon class="cls-2" points="219.63 138.82 216.92 140.38 216.92 137.28 219.63 135.72 219.63 138.82"/><polygon class="cls-3" points="224.71 135.88 222.01 137.45 222.01 134.34 224.71 132.78 224.71 135.88"/><polygon class="cls-3" points="229.8 132.95 227.09 134.51 227.09 131.41 229.8 129.84 229.8 132.95"/><polygon class="cls-2" points="234.88 130.01 232.18 131.58 232.18 128.47 234.88 126.91 234.88 130.01"/><polygon class="cls-2" points="239.97 127.08 237.26 128.64 237.26 125.53 239.97 123.97 239.97 127.08"/><polygon class="cls-2" points="184.04 164.89 181.33 166.45 181.33 163.35 184.04 161.78 184.04 164.89"/><polygon class="cls-3" points="189.12 161.95 186.42 163.52 186.42 160.41 189.12 158.85 189.12 161.95"/><polygon class="cls-2" points="194.21 159.02 191.5 160.58 191.5 157.47 194.21 155.91 194.21 159.02"/><polygon class="cls-3" points="199.29 156.08 196.59 157.65 196.59 154.54 199.29 152.98 199.29 156.08"/><polygon class="cls-2" points="204.38 153.15 201.67 154.71 201.67 151.6 204.38 150.04 204.38 153.15"/><polygon class="cls-2" points="209.46 150.21 206.75 151.78 206.75 148.67 209.46 147.11 209.46 150.21"/><polygon class="cls-2" points="214.54 147.28 211.84 148.84 211.84 145.73 214.54 144.17 214.54 147.28"/><polygon class="cls-2" points="219.63 144.34 216.92 145.9 216.92 142.8 219.63 141.24 219.63 144.34"/><polygon class="cls-2" points="224.71 141.41 222.01 142.97 222.01 139.86 224.71 138.3 224.71 141.41"/><polygon class="cls-2" points="229.8 138.47 227.09 140.03 227.09 136.93 229.8 135.36 229.8 138.47"/><polygon class="cls-2" points="234.88 135.53 232.18 137.1 232.18 133.99 234.88 132.43 234.88 135.53"/><polygon class="cls-2" points="239.97 132.6 237.26 134.16 237.26 131.06 239.97 129.49 239.97 132.6"/><polygon class="cls-2" points="184.04 170.37 181.33 171.93 181.33 168.82 184.04 167.26 184.04 170.37"/><polygon class="cls-2" points="189.12 167.43 186.42 168.99 186.42 165.89 189.12 164.33 189.12 167.43"/><polygon class="cls-2" points="194.21 164.5 191.5 166.06 191.5 162.95 194.21 161.39 194.21 164.5"/><polygon class="cls-2" points="199.29 161.56 196.59 163.12 196.59 160.02 199.29 158.46 199.29 161.56"/><polygon class="cls-2" points="204.38 158.63 201.67 160.19 201.67 157.08 204.38 155.52 204.38 158.63"/><polygon class="cls-2" points="209.46 155.69 206.75 157.25 206.75 154.15 209.46 152.58 209.46 155.69"/><polygon class="cls-3" points="214.54 152.75 211.84 154.32 211.84 151.21 214.54 149.65 214.54 152.75"/><polygon class="cls-2" points="219.63 149.82 216.92 151.38 216.92 148.28 219.63 146.71 219.63 149.82"/><polygon class="cls-2" points="224.71 146.88 222.01 148.44 222.01 145.34 224.71 143.78 224.71 146.88"/><polygon class="cls-2" points="229.8 143.95 227.09 145.51 227.09 142.4 229.8 140.84 229.8 143.95"/><polygon class="cls-2" points="234.88 141.01 232.18 142.57 232.18 139.47 234.88 137.91 234.88 141.01"/><polygon class="cls-2" points="239.97 138.08 237.26 139.64 237.26 136.53 239.97 134.97 239.97 138.08"/><polygon class="cls-2" points="184.04 175.89 181.33 177.45 181.33 174.34 184.04 172.78 184.04 175.89"/><polygon class="cls-2" points="189.12 172.95 186.42 174.51 186.42 171.41 189.12 169.85 189.12 172.95"/><polygon class="cls-3" points="194.21 170.02 191.5 171.58 191.5 168.47 194.21 166.91 194.21 170.02"/><polygon class="cls-2" points="199.29 167.08 196.59 168.64 196.59 165.54 199.29 163.97 199.29 167.08"/><polygon class="cls-2" points="204.38 164.15 201.67 165.71 201.67 162.6 204.38 161.04 204.38 164.15"/><polygon class="cls-2" points="209.46 161.21 206.75 162.77 206.75 159.67 209.46 158.1 209.46 161.21"/><polygon class="cls-3" points="214.54 158.27 211.84 159.84 211.84 156.73 214.54 155.17 214.54 158.27"/><polygon class="cls-2" points="219.63 155.34 216.92 156.9 216.92 153.79 219.63 152.23 219.63 155.34"/><polygon class="cls-2" points="224.71 152.4 222.01 153.97 222.01 150.86 224.71 149.3 224.71 152.4"/><polygon class="cls-2" points="229.8 149.47 227.09 151.03 227.09 147.92 229.8 146.36 229.8 149.47"/><polygon class="cls-3" points="234.88 146.53 232.18 148.09 232.18 144.99 234.88 143.43 234.88 146.53"/><polygon class="cls-2" points="239.97 143.6 237.26 145.16 237.26 142.05 239.97 140.49 239.97 143.6"/><polygon class="cls-3" points="83.96 103.79 168.11 152.79 251.94 103.87 167.69 54.82 83.96 103.79"/><polygon class="cls-2" points="99.57 103.69 167.47 143.23 236.28 103.64 168.31 64.06 99.57 103.69"/><g class="cls-7"><polygon class="cls-8" points="133.92 123.56 167.7 143.23 201.93 123.53 168.12 103.84 133.92 123.56"/></g><path class="cls-9" d="M124.31,85.5c-3.37,1.53-5.27,1.76-8,.2s-8.59-2.93-8.39-9.77-2.44-10.05-2.54-17.18c-.1-7.58,4.69-12.3,6.25-14.64s4.49-13.67,9.57-16.79,12.69-6.05,14.05-8.2S150.47,9.75,157.89,7.8,191.27,5.06,196.16,10s9.56,1,10.93,7.22S212,43.68,178.3,60.88A577.94,577.94,0,0,1,124.31,85.5Z"/><path class="cls-10" d="M122.36,86.48c-8-2.94-4.69-13.47-2.74-15.82S124.5,65,124.5,65a11.67,11.67,0,0,1-2-2.15,7.8,7.8,0,0,0-2.54-2l4.49,2.54s1.57.78,2.35-1.17,2.58-16.45,10.3-19.77c4.59-2,12.34-5.22,13.13-6.39s1.36-4.69,1.75-6.45,3.52-6.83,3.52-6.83l-1.37,6.83a31.5,31.5,0,0,0,11.32-5.07c5.86-4.1,9.37-5.86,12.89-6.84a120,120,0,0,1,15.13-3.51c7.42-1,43.24,10-.1,36.9S135.05,91.16,122.36,86.48Z"/><path class="cls-11" d="M139.93,33.37s-5.66-2.73-4.88-5.46a29.43,29.43,0,0,0,1-5.08s6.06-3.32,7.42-1.95S147.93,18,147.93,18h-6.05a37.22,37.22,0,0,0-6.62,1.14s0,0,0,0c-.55.87-2.12,1.86-4.13,2.94,1,1.22,3.39,4.67,1,7.6C129.58,32.79,139.93,33.37,139.93,33.37Z"/><path class="cls-10" d="M135.28,31.54a5.13,5.13,0,0,1-2.37-1l.12-.17a6.08,6.08,0,0,0,.83-1.34A5.05,5.05,0,0,0,135.28,31.54Zm-1-5.33a8.87,8.87,0,0,0-1.44-3.76A12.1,12.1,0,0,0,136,20.14a31.87,31.87,0,0,1,5.93-1h3.47a3.61,3.61,0,0,1-1.18.84,2.6,2.6,0,0,0-1.78-.58c-2.43,0-6.48,2.18-6.93,2.42l-.55.31,0,.62A30.79,30.79,0,0,1,134.27,26.21Z"/><path class="cls-11" d="M117.48,41.18c-1.35.15-3.16-1-3.93-1.49a32,32,0,0,1-1.93,4.42c-.33.49-.8,1.1-1.34,1.8l8-1.21a20.59,20.59,0,0,1,.58,3.51c.2,2.15,4.49,3.91,4.49,3.91a13.63,13.63,0,0,1-1.36-4.3c0-1.56.58-6,0-8.2s-1.52-6.78-1.52-6.78S119.23,41,117.48,41.18Z"/><path class="cls-10" d="M121.05,49.45a2.42,2.42,0,0,1-1-1.34,21.2,21.2,0,0,0-.63-3.74l-.28-1s-6.09,1.37-5.53-1.32c1,.52,2.62.31,3.65.31l.39,0c.91-.1,1-.74,2.11-2.19,0,.06.57-1.67.59-1.61a33.78,33.78,0,0,1,.58,7.34c0,.78-.1,1.46-.1,1.93A6.64,6.64,0,0,0,121.05,49.45Z"/><path class="cls-11" d="M166.09,9.75c-.84.24-1.17,5.08-1.17,5.08a5.45,5.45,0,0,1,4.68-3.71,15,15,0,0,0,7-3.52A92.13,92.13,0,0,0,166.09,9.75Z"/><path class="cls-10" d="M165.79,12.32c.16-1,1.69-1.75,1.86-2,2.87-.8,4.7-1.44,6.77-1.8a12.83,12.83,0,0,1-4.9,2A6.47,6.47,0,0,0,165.79,12.32Z"/><path class="cls-11" d="M131.24,81.21s-14.64.87-16.89-1.37-1.46-13.57-1.46-13.57a2.49,2.49,0,0,1-3.52,1.56c-1.51-.59-2.54-2-3.53-4.33.77,4.22,2.22,7.32,2.07,12.43-.2,6.84,5.66,8.2,8.39,9.77s4.64,1.33,8-.2c1.19-.54,3.29-1.36,6.42-2.62Z"/><g class="cls-7"><g class="cls-12"><path class="cls-2" d="M121.73,74.42A.92.92,0,0,1,121,74c-2-2.71-4.6-4-8.56-4.18a3.69,3.69,0,0,1-2.55-1.86c-1.67-2.49-2.64-7.39-1.06-12.72,2-6.76,6.93-11,10.55-11.13a5.9,5.9,0,0,1,.6,0,5.62,5.62,0,0,1,.82.14,2.69,2.69,0,0,1,2,1.69c.33,1.1-.19,2.63-1.45,4.19a29.48,29.48,0,0,1-3.43,3.54,3.17,3.17,0,0,0-.6.65c-.81,1.25.12,2.56,1.4,4.37a30.49,30.49,0,0,1,2,3.07,17.89,17.89,0,0,1,1,2A19.36,19.36,0,0,1,123,69.64c.12,2.1-.2,3.93-.78,4.55A.68.68,0,0,1,121.73,74.42Zm-2.1-30h-.2c-3.51.16-8.31,4.28-10.27,10.9-1.53,5.2-.54,10.1,1,12.45a3.37,3.37,0,0,0,2.3,1.72c4.07.18,6.78,1.51,8.8,4.32.25.35.47.43.69.2.42-.45.82-2,.69-4.32a19,19,0,0,0-1.31-5.81,17.26,17.26,0,0,0-.94-2,30.38,30.38,0,0,0-2-3c-1.35-1.91-2.33-3.29-1.4-4.73a3.54,3.54,0,0,1,.66-.72,28,28,0,0,0,3.39-3.49c1.19-1.48,1.69-2.9,1.39-3.89a2.36,2.36,0,0,0-1.76-1.48,6,6,0,0,0-.76-.13Z"/><path class="cls-13" d="M120.83,72.68a.59.59,0,0,1-.41-.2,10,10,0,0,0-7.65-4.08,3.66,3.66,0,0,1-2.37-1.87c-1.26-2-2.24-6.05-.82-10.86,1.7-5.73,5.83-10.33,9.42-10.46a3.33,3.33,0,0,1,.55,0,4.52,4.52,0,0,1,.75.14,2,2,0,0,1,1.33,1.4c.24,1-.37,2.51-1.64,3.92s-2.42,2.58-3,3.2a2.9,2.9,0,0,0-.48.62c-.7,1.29.18,2.56,1.4,4.31.49.71,1.05,1.51,1.57,2.42.26.46.6,1.08.9,1.76a17.13,17.13,0,0,1,1.42,5.26c.19,1.92,0,3.65-.55,4.22A.53.53,0,0,1,120.83,72.68Zm-1.68-27.15H119c-3,.11-7.27,4-9.12,10.23-1.39,4.71-.45,8.65.78,10.6a3.38,3.38,0,0,0,2.13,1.72,10.26,10.26,0,0,1,7.86,4.18c.07.06.19.15.32,0,.38-.41.67-2,.47-4a17.11,17.11,0,0,0-1.39-5.16,19.27,19.27,0,0,0-.89-1.73c-.51-.89-1.06-1.69-1.56-2.4-1.23-1.77-2.21-3.17-1.42-4.64a3.11,3.11,0,0,1,.54-.69c.61-.63,1.82-1.87,3-3.2s1.78-2.69,1.56-3.63a1.65,1.65,0,0,0-1.11-1.16,4.46,4.46,0,0,0-.69-.13Z"/></g></g><path class="cls-11" d="M127.67,23.83c-2.2,1.12-4.53,2.29-6.48,3.49-4.51,2.77-7.32,12-9,15.67,1.56.06,3.76,0,4.74.1a8.67,8.67,0,0,0,2.93-.44s.44-1.47,1.46-4,1-8.64,3.22-11A33.57,33.57,0,0,0,127.67,23.83Z"/><path class="cls-14" d="M124.31,68.13c-6.63,6.62-2.73,13.27-2.73,18s4.29,12.88,12.88,14,12.11-2.34,18.35-.39,12.5-3.12,12.5-3.12,9,2.34,12.88,1.56,3.13-2.34,6.25-2.34,12.5-2.34,19.13-9A59.2,59.2,0,0,0,213.73,73.2a18.19,18.19,0,0,0,10.54-3.9c4.68-3.91,6.15-16.11,6.15-22S227,37.67,227,34.15s-2.73-11.32-8.59-11.71-3.9-5.08-13.27-5.86-20.31-2.73-21.87.78-8.59,2-12.89,5.08-12.88,7-15.61,11.71-8.2,4.69-12.5,6.64S128.21,51.33,129,56.41,127.43,65,124.31,68.13Z"/><path class="cls-11" d="M173.48,98.18a30.42,30.42,0,0,1,2-7.8c1.95-4.29,7-4.29,15.62-10.15,5.65-3.86,8-11.82,8.89-16.8a.85.85,0,0,0-1.57-.57c-2.13,3.75-5.36,9.35-7.32,12.29-3.12,4.69-10.54,4.3-10.54,4.3s-2.35,5.47-7.42,5.47-9-3.91-9-3.91,3.51,7.81,3.51,10.54-2.34,5.08-2.34,5.08A67.6,67.6,0,0,0,173.48,98.18Z"/><path class="cls-10" d="M170.77,97.8c-1.91-.27-3.75-.78-5.07-1.07.71-1.09,5-4.23,5-6s-2.9-3.91-3.87-6.4a13.36,13.36,0,0,0,6.31,1.72c4.65,0,7.24-3.83,8.14-5.46,2.15,0,8-.57,10.79-4.83,1.66-2.49,4.2-6.82,6.34-10.55-1.06,4.51-3.32,10.84-8,14a61.67,61.67,0,0,1-8.82,4.94c-3.42,1.63-5.9,2.81-7.21,5.7C173.44,92,171.13,95.61,170.77,97.8Z"/><path class="cls-11" d="M184.44,95.85s-2.63-1.66.59-4.3,7.9-2.34,10.25-5.56,3.51-8.79,3.51-8.79,0,9.08-3.81,11.72S184.44,95.85,184.44,95.85Z"/><path class="cls-10" d="M184.49,95.12c-.21-.2,1.56-2.17,2.5-2.94a14.62,14.62,0,0,1,4.63-2.24c2.11-.73,2.72-1.66,4.13-3.61a16.56,16.56,0,0,0,1.73-3.13c-.51,2.12-1.37,4.22-2.83,5.24C191.4,90.69,185.93,94.2,184.49,95.12Z"/><path class="cls-11" d="M214.68,73.14a19.54,19.54,0,0,0,3.1-.56c1.28-2,3.17-5,3-5.63-.29-.87-.58-2.34,2.35-8.2s-2.64-12.3-2.64-12.3.29,5.57.59,7.62-1.76,5.27-5.57,9.66a9.65,9.65,0,0,0-1.75,9.47l.88-.1Z"/><path class="cls-11" d="M208.16,75.74s-.88-11.42,1.17-13.76a24.29,24.29,0,0,1,6.15-4.4s-4.39-2-4.39-4.1,4.39-7.32,3.81-11.42-.88-7.32,3.8-4.68a17.07,17.07,0,0,1,6.45,5.85s-1.76-7.9-6.45-9.08-4.39-6.88-4.39-6.88-2.93,4.25-2.34,8.93-1.46,10-4.1,9.38-5.86-5-5.86-5,1.76,6.73,5,7,2,3.95,1.47,7.46S206,56.26,205.82,62C205.72,65.88,208.16,75.74,208.16,75.74Z"/><path class="cls-11" d="M227.39,36.4a7.61,7.61,0,0,1-.39-2.25c0-.11,0-.22,0-.34A16.74,16.74,0,0,1,224.42,32a42,42,0,0,1-4-3.66s1.91,5.71,4.1,6.88A22.58,22.58,0,0,0,227.39,36.4Z"/><path class="cls-11" d="M152.81,99.75s-7.61-4.39-7.61-7.32S151.06,86,151.06,86s-7.62-2.93-10.25,1.46-4.4,6.15-6.74,5.27-12-7.9-12-7.9,3.66,8.78,6.89,10a102.32,102.32,0,0,0,10.83,2.64Z"/><path class="cls-11" d="M131.73,79.55s-.29-12,5.27-15.23,5.86-11.13,10.83-13.18A93.67,93.67,0,0,0,159,45.28s-4.68,8.2-8.78,9.67-5,7.61-5,7.61l5.56-.88s-5,6.15-8.78,6.15S131.73,79.55,131.73,79.55Z"/><path class="cls-11" d="M143.73,76.32s7.62-.73,8.5-2.78,5.56-7.76,11.13-7.76,14.93-.58,16.69-4.39-11.13-5.27-12.3-8.79,11.42-10,11.42-10-7.61,6.15-7.32,8.2S180.05,54.07,183,57a7.16,7.16,0,0,0,6.44,2s-6.15,3.51-7.91,5.56-.58,3.52,0,6.44a7.75,7.75,0,0,1-.29,4.69s0-7-5.86-7.32-13.47-.88-15.52,1.76a67.39,67.39,0,0,1-7.32,7s.88.3,1.76,3.81,0,5.27,0,5.27-2.05-6.15-3.52-7.32S143.73,76.32,143.73,76.32Z"/><path class="cls-11" d="M198.21,52c-5.86-2.64-6.45-10.25-6.15-12.3s2.92-9.37-2.35-13.18a16.94,16.94,0,0,1-6.44-9.18l-6.44,2.74s5.56,3.51,7.61,6.73,4.1,4.4-.29,4.69a64.9,64.9,0,0,1-8.2,0s5.86,4.68,8.49,3.22,5.57-2.05,4.69.29-1.76,7.91,1.46,11.42A27.42,27.42,0,0,0,198.21,52Z"/><path class="cls-11" d="M152.23,37.08c.58,2.35,6.15,0,10.25,1.76a27.72,27.72,0,0,0,7.9,2s0-5.27-5.27-6.15S152.23,37.08,152.23,37.08Z"/><path class="cls-11" d="M200.26,16.29c1.46,1.76,4.39,5.86,2.05,9.08s-3.23,7.61.29,9.37l3.51,1.76s-4.1-3.81-2.34-7a45.9,45.9,0,0,0,2.93-6.74C207.28,21.27,200.26,16.29,200.26,16.29Z"/><path class="cls-10" d="M215.09,72.91a8.92,8.92,0,0,1,.78-5.37c1.37-2.93,4.49-7.32,5.37-9.08s1.47-3.71,1.08-4.59a11.65,11.65,0,0,1-.59-2.54s2.83,1.76.49,6.45-4.59,7-4,8.2a4.37,4.37,0,0,0,1,1.46s-1.17-.58-1.46,1.27a24.71,24.71,0,0,1-1,3.81Z"/><path class="cls-10" d="M207.48,62.27s.68-2.64,2.73-3.32,2.25-1.27,2.25-1.27-2.74-2-2.44-3.71,2.14-6.34,2.73-8.2.29-7.91,1-9.66,1.46-1.76,4-.49a12.23,12.23,0,0,1,3.9,3s-.19-2.53-3.41-3.61a7.7,7.7,0,0,1-4.4-3.51,19.68,19.68,0,0,0-1.07,7c0,4.49.2,8.2-2.05,8.2a12.47,12.47,0,0,1-5.08-1.37c.3,0,5,.68,4.69,2.73s-2.05,7.42-1.07,8.2,1.36.78.19,1.47S207.48,62.27,207.48,62.27Z"/><path class="cls-10" d="M222.61,31.52a7.06,7.06,0,0,0,1.95,2.83,11.71,11.71,0,0,0,2.25,1.17l.19-1.37a5.28,5.28,0,0,1-2.15-.48A12.26,12.26,0,0,1,222.61,31.52Z"/><path class="cls-10" d="M202.7,33.57s-2-3.32-.79-5.27,2.74-4.4,2.54-5.47a22.4,22.4,0,0,0-.68-2.54,3,3,0,0,1,1.07,4.1c-1.46,2.64-2.83,4.88-2.63,5.47S202.7,33.57,202.7,33.57Z"/><path class="cls-10" d="M182,19a26.68,26.68,0,0,0,3.32,6.06c1.85,2.24,4.88,1.56,5.27,5.46s-.1,7.52,0,10.06,2,6.34,2,6.34-4.1-3.9-3.42-5.85,1-6.84.3-8.11-1.56-.19-3.13.2-5.95,0-5.95,0a48.47,48.47,0,0,0,5.66-.88c1.07-.39,3.42-1,2.54-2.25s-3.81-4.1-5.47-5.95A44.08,44.08,0,0,1,180,19.9Z"/><path class="cls-10" d="M155,36.89s6.15-.39,8.69,1.17a19.21,19.21,0,0,0,5.66,2.15s-1.76-3.13-4.49-3.71S155,36.89,155,36.89Z"/><path class="cls-10" d="M133.39,74.86s2.93-7.71,6.34-8,7.62-3.32,7.62-3.32l-3.91.19s0-6.83,3.42-8.59,8.69-6.64,8.69-6.64-6.35,3.52-9.08,4.88-3.22,7.81-5.66,9.38-5.86,4-6.54,7.61S133.39,74.86,133.39,74.86Z"/><path class="cls-10" d="M125.29,88.62s3,4.2,6.15,5.18,8.29.68,10.25,1.66,6.93,2.93,6.93,2.93-6.35-4.2-5.37-6.15,3-5.08,3-5.08-3.12.88-4.29,2.93a13.3,13.3,0,0,0-1.47,3.51,27.85,27.85,0,0,1-8.2-.78A19.21,19.21,0,0,1,125.29,88.62Z"/><path class="cls-10" d="M148.71,76.81S153,75.35,154,73.4s5-6.64,9.77-6.74,14.64-1.17,16.2-3.51,2.15-4.4-2-6-9.08-3.22-8.78-5.27,3-4.39,3-4.39-2.44,4.29-.88,5,9.37,4.1,10.74,5.66a4.63,4.63,0,0,0,3.42,1.46s-3.91,2.64-5.18,4.49.1,6,.1,6-.19-3.52-4.78-3.61-13.08.68-16.69,3.22a43.17,43.17,0,0,0-7.33,7.22l1.57,4s-1.37-3.41-2.44-3.51A5.55,5.55,0,0,1,148.71,76.81Z"/><path class="cls-11" d="M213.73,73.2c-.88-1.07-5.27,4-8.64,5.32s-1.32-8.64-1.76-13.76-3.37-5.42-4.94.49-8.24,13.56-12.34,15.61-10.69,5-12.3,7a104,104,0,0,0-5.63,9.39c3,.63,7.57,1.41,10.07.91,3.91-.78,3.13-2.34,6.25-2.34s12.5-2.34,19.13-9A59.2,59.2,0,0,0,213.73,73.2Z"/><path class="cls-11" d="M217,66.66A20,20,0,0,0,215.51,73a17.83,17.83,0,0,0,8.76-3.74c4.68-3.91,6.15-16.11,6.15-22,0-4.64-2.14-8-3-10.93h0c-1.27.78.39,3.46.69,7.13s-.3,4.83-1.32,7.61-6.3-4.69-6.3-4.69,2.78,5.86,2.34,8.79S218,64.17,217,66.66Z"/><path class="cls-11" d="M149.68,99.18a19.56,19.56,0,0,1-6.38-4.41c-1.32-1.61-6-.19-10.55-1.17-3.62-.78-8.46-6.19-11.45-10.13a15.6,15.6,0,0,1,.28,2.62c0,4.68,4.29,12.88,12.88,14C141.52,101.11,145.15,98.91,149.68,99.18Z"/><g class="cls-7"><g class="cls-12"><path class="cls-15" d="M128.3,72.48a1.14,1.14,0,0,1-.93-.41,3.22,3.22,0,0,1-.09-2.61,22.58,22.58,0,0,1,1-2.93,23,23,0,0,0,.95-4,36.4,36.4,0,0,1,3.37-10.82,18.4,18.4,0,0,1,3.77-4.93,36.87,36.87,0,0,1,10.28-6.65,23.73,23.73,0,0,1,8.94-2l.84,0a13.64,13.64,0,0,1,3.18.8c.65.24,1.18.45,1.63.67.71.34,1.93,1,2.08,1.57a.43.43,0,0,1-.06.38l0,0a18.3,18.3,0,0,1-2.37,1.13c-1.94.84-4.85,2.1-7.85,3.76a45.26,45.26,0,0,0-4.63,2.89c-3.83,2.73-6.33,5.61-7.42,8.55a29.91,29.91,0,0,1-2.79,5.42,28.65,28.65,0,0,1-7.08,7.88A5.52,5.52,0,0,1,128.3,72.48Zm27.32-34a23.3,23.3,0,0,0-8.81,2,36.22,36.22,0,0,0-10.19,6.59,18,18,0,0,0-3.71,4.84,35.54,35.54,0,0,0-3.33,10.73,22.66,22.66,0,0,1-1,4,21.58,21.58,0,0,0-1,2.89,3,3,0,0,0,0,2.33c.46.59,1.69.25,3.29-.89a28.3,28.3,0,0,0,7-7.79,30.24,30.24,0,0,0,2.76-5.36c1.11-3,3.65-5.93,7.53-8.7a47,47,0,0,1,4.66-2.91c3-1.67,5.94-2.94,7.88-3.78A20.46,20.46,0,0,0,163,41.37a.14.14,0,0,0,0-.09c-.07-.25-.6-.74-1.91-1.36-.44-.21-1-.42-1.6-.65a13,13,0,0,0-3.09-.79Z"/><path class="cls-2" d="M129.83,69.86a1.07,1.07,0,0,1-.87-.38,3,3,0,0,1-.11-2.48,22.31,22.31,0,0,1,.88-2.65,23.29,23.29,0,0,0,.83-3.31,30.47,30.47,0,0,1,3.35-9.78,18.44,18.44,0,0,1,3.47-4.34,34.64,34.64,0,0,1,9.18-6,20.84,20.84,0,0,1,8.72-2,11.41,11.41,0,0,1,2.86.61,15.2,15.2,0,0,1,1.47.54c.64.29,2.13,1,1.92,1.64l0,.05,0,0c-.35.21-1.12.55-2.19,1-1.79.78-4.49,2-7.25,3.48a45.5,45.5,0,0,0-4.28,2.66c-3.52,2.5-5.87,5.12-7,7.8a46.4,46.4,0,0,1-2.58,5,22.41,22.41,0,0,1-6.41,7.37A3.76,3.76,0,0,1,129.83,69.86Zm25.11-30.64a21.22,21.22,0,0,0-8.25,2,34.13,34.13,0,0,0-9.09,6,18.23,18.23,0,0,0-3.41,4.26,30.15,30.15,0,0,0-3.31,9.68,24.44,24.44,0,0,1-.85,3.37,23.7,23.7,0,0,0-.87,2.6c-.33,1.35-.15,2,.06,2.21.37.47,1.24.3,2.37-.45a22.17,22.17,0,0,0,6.31-7.26,45.73,45.73,0,0,0,2.56-5c1.14-2.74,3.52-5.41,7.09-7.94A46.14,46.14,0,0,1,151.86,46c2.77-1.53,5.49-2.71,7.29-3.5,1-.43,1.71-.74,2.07-1,0-.2-.56-.67-1.74-1.19a14.59,14.59,0,0,0-1.44-.53,10.69,10.69,0,0,0-2.77-.59Z"/><path class="cls-16" d="M131.32,67.32a.94.94,0,0,1-.77-.35,3,3,0,0,1-.13-2.44c.18-.75.45-1.58.72-2.36a23.9,23.9,0,0,0,.69-2.63,25.19,25.19,0,0,1,3.37-8.78A19.3,19.3,0,0,1,138.36,47a33.27,33.27,0,0,1,8.07-5.39,19.27,19.27,0,0,1,7.66-2h.06a9.9,9.9,0,0,1,2.48.41,12.81,12.81,0,0,1,1.31.41c.29.12,1.73.72,1.81,1.3l0,.11-.1,0c-.39.21-1.08.51-1.94.89-1.66.72-4.18,1.82-6.72,3.23a40,40,0,0,0-3.93,2.43,19,19,0,0,0-6.54,7.05c-.49,1-1,2.06-1.63,3.16l-.75,1.4A17.48,17.48,0,0,1,132.44,67,2.37,2.37,0,0,1,131.32,67.32Zm15.57-19.1a44,44,0,0,1,4-2.46c2.56-1.41,5.08-2.51,6.75-3.24.77-.33,1.39-.6,1.79-.8a4.11,4.11,0,0,0-1.56-.95,13,13,0,0,0-1.28-.4,9.67,9.67,0,0,0-2.4-.4h-.05a19.09,19.09,0,0,0-7.53,1.94,33.11,33.11,0,0,0-8,5.34,18.69,18.69,0,0,0-3.11,3.69,24.78,24.78,0,0,0-3.32,8.67c-.24,1-.44,1.92-.7,2.67s-.54,1.59-.72,2.32a2.87,2.87,0,0,0,.07,2.17c.27.34.79.3,1.47-.09A17.27,17.27,0,0,0,137.88,60c.24-.48.5-1,.75-1.42"/></g><g class="cls-12"><path class="cls-17" d="M199.31,43.16a1.82,1.82,0,0,1-.65-.12c-1.44-.51-2.25-2.33-2.18-4.86a10.19,10.19,0,0,0-.81-4.59,14.39,14.39,0,0,0-3.91-4.66c-.53-.49-1.08-1-1.64-1.53l-.36-.35a20,20,0,0,1-2.21-2.64c-1.87-2.64-2.9-5.55-2.49-7.07a1.35,1.35,0,0,1,.72-.93,10.55,10.55,0,0,1,3.1-.34c.91,0,1.93.05,2.91.09.51,0,1,.05,1.55.06a53.82,53.82,0,0,1,6.43.61c1.07.28,1.69,1.36,1.85,3.22a17.94,17.94,0,0,1-.27,4.66,38.19,38.19,0,0,0-.08,7.81l.12,2c.12,2.17.24,4.23.18,5.75a4.43,4.43,0,0,1-.16,1,3,3,0,0,1-.31.76A2.17,2.17,0,0,1,199.31,43.16ZM188.88,16.39a10,10,0,0,0-3,.32,1.06,1.06,0,0,0-.53.72c-.38,1.4.65,4.26,2.44,6.79a19.46,19.46,0,0,0,2.18,2.6c.12.12.23.24.35.35.56.54,1.1,1,1.63,1.52a14.77,14.77,0,0,1,4,4.77,10.64,10.64,0,0,1,.83,4.73c-.07,2.38.67,4.08,2,4.55a1.76,1.76,0,0,0,2.06-.79,3.35,3.35,0,0,0,.27-.67,3.85,3.85,0,0,0,.15-1c.06-1.51-.06-3.56-.18-5.72L201,32.54a38.21,38.21,0,0,1,.09-7.89,17.67,17.67,0,0,0,.26-4.57c-.15-1.71-.69-2.7-1.59-2.94a52.39,52.39,0,0,0-6.38-.59l-1.56-.07C190.8,16.44,189.79,16.39,188.88,16.39Z"/><path class="cls-2" d="M199.1,41a1.59,1.59,0,0,1-.83-.24c-.55-.33-1.84-1.44-1.86-4.51a9.35,9.35,0,0,0-.89-4.12,14.05,14.05,0,0,0-3.72-4.26c-.46-.41-.94-.83-1.42-1.29l-.33-.31A20.94,20.94,0,0,1,188,24c-1.71-2.23-2.69-4.75-2.44-6.26a1.39,1.39,0,0,1,.55-1l0,0a4.85,4.85,0,0,1,1.47-.18c.67,0,1.43.07,2.24.14s1.83.17,2.75.17h.2a31.89,31.89,0,0,1,5.46.4l.52.08c1,.37,1.49,1.23,1.59,3a22.27,22.27,0,0,1-.16,4.22,38.67,38.67,0,0,0,.15,6.77l.15,2.12c.15,2,.29,3.89.26,5.31a5,5,0,0,1-.12.94,2.6,2.6,0,0,1-.26.71A1.58,1.58,0,0,1,199.1,41ZM186.24,17a1.1,1.1,0,0,0-.4.76c-.18,1.15.48,3.52,2.39,6a20.34,20.34,0,0,0,2,2.31l.33.3c.48.46,1,.88,1.42,1.29A14.43,14.43,0,0,1,195.81,32a9.7,9.7,0,0,1,.92,4.26c0,2.9,1.2,3.93,1.71,4.24a1.24,1.24,0,0,0,1.66-.34,2.21,2.21,0,0,0,.22-.6,5.29,5.29,0,0,0,.11-.88c0-1.4-.11-3.29-.26-5.28L200,31.31a37.54,37.54,0,0,1-.15-6.84,22.48,22.48,0,0,0,.16-4.16c-.11-1.88-.62-2.44-1.35-2.7l-.48-.07a31.61,31.61,0,0,0-5.42-.4h-.2c-.93,0-1.87-.09-2.78-.17s-1.55-.13-2.21-.13A4.88,4.88,0,0,0,186.24,17Z"/><path class="cls-18" d="M198.84,39a1.36,1.36,0,0,1-1-.44,6,6,0,0,1-1.54-4.14,8.54,8.54,0,0,0-1-3.66,13.89,13.89,0,0,0-3.56-3.9c-.38-.32-.77-.66-1.16-1l-.3-.27a20.07,20.07,0,0,1-1.94-2c-2.27-2.7-2.89-5.53-2-6.48l0,0h0a7.54,7.54,0,0,1,2.89.13,17.66,17.66,0,0,0,2.77.3h.13a31.61,31.61,0,0,1,4.87.28l.65.08h0c.75.36,1.25.75,1.3,2.75,0,1,0,2.32-.06,3.78a34,34,0,0,0,.3,5.16l.12,1.22.15,1.56c.16,1.82.32,3.54.33,4.84a5,5,0,0,1-.08.85,2.48,2.48,0,0,1-.2.65l0,0A1.08,1.08,0,0,1,198.84,39Zm-12.27-21.7c-.61.78-.13,3.41,2.07,6a20.61,20.61,0,0,0,1.91,2l.3.27,1.16,1a14,14,0,0,1,3.64,4,8.86,8.86,0,0,1,1,3.79,5.68,5.68,0,0,0,1.45,3.93.88.88,0,0,0,1.26.13,2.13,2.13,0,0,0,.16-.54,4.4,4.4,0,0,0,.07-.8c0-1.29-.16-3-.32-4.81l-.15-1.56L199,29.51a34.66,34.66,0,0,1-.3-5.22c.1-1.45.08-2.77,0-3.76,0-1.92-.5-2.16-1.08-2.44l-.63-.08a32.47,32.47,0,0,0-4.82-.28h-.14a18,18,0,0,1-2.82-.3A7.78,7.78,0,0,0,186.57,17.27Z"/></g><g class="cls-12"><path class="cls-19" d="M145.67,73.08h-.12c-2.46-.18-3.86-.81-4.28-1.93-.73-2,1.9-5,4.27-7.36,1.38-1.4,3.19-2.9,4.78-4.23.82-.69,1.6-1.34,2.19-1.86l.56-.51c2.39-2.17,3-5.29,3.5-8.57l.09-.49.05-.27c.54-3.08,1.47-5.92,4.51-5.92a5.76,5.76,0,0,1,.7.05l.52.08c2.41.48,3.4,1.88,4.14,3.85.31.8.54,1.67.8,2.59.82,3,1.75,6.39,5.38,8.61a20.7,20.7,0,0,1,3.13,2.27,3.92,3.92,0,0,1,1.17,2.16,1.82,1.82,0,0,1-.26,1.34,2.33,2.33,0,0,1-.71.65c-1.28.77-3.64,1.16-7,1.16h-.36a19.4,19.4,0,0,0-4.49.56,43,43,0,0,0-10.09,4.16l-1.68.91c-1.62.87-3.14,1.7-4.3,2.18A7.65,7.65,0,0,1,145.67,73.08Zm15.55-30.82c-2.81,0-3.67,2.72-4.2,5.65a2.33,2.33,0,0,1-.05.28c0,.15-.06.31-.08.47-.49,3.34-1.13,6.53-3.6,8.77l-.56.51c-.6.53-1.38,1.18-2.2,1.87-1.59,1.32-3.39,2.82-4.76,4.21-2.12,2.14-4.87,5.21-4.19,7,.36,1,1.7,1.55,4,1.72h.1a7.54,7.54,0,0,0,2.37-.55c1.13-.47,2.65-1.29,4.25-2.17l1.69-.91A43,43,0,0,1,164.14,65a19.66,19.66,0,0,1,4.57-.58h.36c3.32,0,5.63-.38,6.86-1.12a1.87,1.87,0,0,0,.6-.55,1.5,1.5,0,0,0,.21-1.12,3.63,3.63,0,0,0-1.07-2,20.75,20.75,0,0,0-3.08-2.22c-3.74-2.29-4.69-5.75-5.52-8.8-.26-.92-.49-1.78-.79-2.57-.73-1.91-1.63-3.19-3.9-3.64a4,4,0,0,0-.5-.08A5.14,5.14,0,0,0,161.22,42.26Z"/><path class="cls-2" d="M147.25,70.81H147c-1.31-.25-2.05-.73-2.27-1.45-.48-1.59,1.7-3.93,4.18-6.39a44.55,44.55,0,0,1,3.79-3.15c.87-.67,1.69-1.31,2.2-1.76l.47-.42c2-1.76,2.68-3.61,2.75-7.06a2.8,2.8,0,0,1,0-.4,1.64,1.64,0,0,1,0-.23c.14-2.35.62-5.46,3.16-5.46l.37,0,.46.07c2,.37,2.73,1.48,3.44,3.53.2.58.37,1.19.55,1.84.77,2.72,1.64,5.82,5,7.87a19,19,0,0,1,2.67,1.93l0,0a1.49,1.49,0,0,1,.22,1.54,1.37,1.37,0,0,1-.48.89,2.16,2.16,0,0,1-.66.42,18.84,18.84,0,0,1-6.21,1,17.48,17.48,0,0,0-3.86.65,40.64,40.64,0,0,0-8.52,3.64l-1.09.59a35.85,35.85,0,0,1-4,2A7.91,7.91,0,0,1,147.25,70.81Zm14.11-26c-1.73,0-2.63,1.63-2.84,5.14,0,.09,0,.17,0,.25s0,.25,0,.38c-.06,3-.55,5.22-2.86,7.29l-.47.42c-.51.46-1.34,1.1-2.21,1.78a44.42,44.42,0,0,0-3.77,3.12c-2.3,2.29-4.52,4.64-4.09,6.06.18.6.85,1,2,1.23h.18a7.92,7.92,0,0,0,1.92-.32,37.87,37.87,0,0,0,4-2l1.09-.59a41.1,41.1,0,0,1,8.59-3.68,18.57,18.57,0,0,1,3.93-.65,18.71,18.71,0,0,0,6.09-.93,2.46,2.46,0,0,0,.58-.37,1.09,1.09,0,0,0,.38-.71V61.2a1.16,1.16,0,0,0-.18-1.23A17.83,17.83,0,0,0,171,58.1c-3.47-2.13-4.36-5.28-5.15-8.07-.18-.64-.35-1.25-.55-1.81-.68-2-1.33-3-3.19-3.32l-.44-.07Z"/></g><g class="cls-12"><path class="cls-20" d="M175.58,97.13a1.74,1.74,0,0,1-1.33-.42,1,1,0,0,1-.23-.82,29.18,29.18,0,0,1,4.57-9.17l.42-.57a64,64,0,0,1,6.23-7.07l.39-.38L187,77.35a59.54,59.54,0,0,1,5.71-4.92c3.64-2.72,6.62-4,8.23-3.55a3.37,3.37,0,0,1,2.2,1.65c.59,1.12.5,2.67-.27,4.6-.14.38-.3.74-.47,1.09a42,42,0,0,1-7.75,10.13,45.45,45.45,0,0,1-4,3.58c-.94.74-1.91,1.45-2.91,2.12h0l-.07,0a38.28,38.28,0,0,1-6.75,3.65,21.73,21.73,0,0,1-2.15.77A11.64,11.64,0,0,1,175.58,97.13Zm24.61-28c-1.63,0-4.22,1.27-7.31,3.57a61.75,61.75,0,0,0-5.68,4.9c-.46.45-.91.91-1.34,1.35l-.39.38a63.36,63.36,0,0,0-6.2,7l-.42.57a29,29,0,0,0-4.52,9,.69.69,0,0,0,.16.55c.44.49,1.9.4,4.18-.29.67-.2,1.38-.45,2.12-.75a38.5,38.5,0,0,0,6.62-3.58h0l.09-.05c1-.66,2-1.39,2.94-2.14a44.81,44.81,0,0,0,4-3.56,41.54,41.54,0,0,0,7.69-10c.16-.34.32-.7.47-1.06q1.09-2.77.28-4.34a3.07,3.07,0,0,0-2-1.49A2.12,2.12,0,0,0,200.19,69.11Z"/><path class="cls-2" d="M176.78,95.7c-.7,0-1.1-.22-1.22-.68v0l0,0A25,25,0,0,1,180,86.62c.14-.17.27-.34.41-.5a76.44,76.44,0,0,1,6-6.28l1-1,.63-.64a66,66,0,0,1,5.18-4.69c3.34-2.69,6-4,7.43-3.65a2.69,2.69,0,0,1,2,1.54c.45,1,.28,2.41-.5,4.17-.15.33-.31.66-.47,1a41.33,41.33,0,0,1-7.24,9.19,46,46,0,0,1-3.65,3.29c-.86.69-1.74,1.35-2.64,2l-.07,0a33.12,33.12,0,0,1-6.2,3.35c-.69.27-1.35.5-2,.68A12.68,12.68,0,0,1,176.78,95.7Zm-.89-.72c.06.2.23.4.89.4a12.52,12.52,0,0,0,3-.59,18.09,18.09,0,0,0,2-.67,33.15,33.15,0,0,0,6.07-3.27h0l.09,0c.89-.61,1.8-1.28,2.67-2a47.13,47.13,0,0,0,3.62-3.27,41.15,41.15,0,0,0,7.18-9.11c.16-.3.32-.63.46-1,.75-1.66.92-3,.5-3.9a2.34,2.34,0,0,0-1.75-1.36c-1.3-.33-3.91,1-7.15,3.59a65.41,65.41,0,0,0-5.15,4.67c-.22.21-.43.43-.63.64l-1,1a77.41,77.41,0,0,0-6,6.25l-.4.5A24.65,24.65,0,0,0,175.89,95Z"/></g><g class="cls-12"><path class="cls-21" d="M164.56,40.13c-3.78,0-6-.78-6.64-2.32a4.76,4.76,0,0,1,0-3.37,15.73,15.73,0,0,1,4.71-6.22,29,29,0,0,1,13.11-6.62,18.3,18.3,0,0,1,3.94-.3,11.37,11.37,0,0,1,9.47,5.19,9.61,9.61,0,0,1,1.66,6.74,2.17,2.17,0,0,1-.87,1.46c-1.92.72-4.82,1.77-8.19,2.67-1.51.4-3.23.78-5.25,1.17l-1.65.33c-1,.21-2.1.42-3.17.6a49.31,49.31,0,0,1-5.18.61C165.84,40.11,165.17,40.13,164.56,40.13ZM179.1,21.61a18.31,18.31,0,0,0-3.28.31,28.58,28.58,0,0,0-13,6.55,15.22,15.22,0,0,0-4.61,6.07,4.44,4.44,0,0,0,0,3.15c.56,1.38,2.76,2.12,6.34,2.12.61,0,1.26,0,1.94-.07a46.22,46.22,0,0,0,5.15-.6c1.07-.18,2.13-.39,3.16-.6l1.65-.33c2-.38,3.73-.76,5.22-1.16,3.36-.9,6.26-1.94,8.14-2.65a1.93,1.93,0,0,0,.7-1.24,9.29,9.29,0,0,0-1.62-6.49,11,11,0,0,0-9.21-5.05Z"/><path class="cls-2" d="M164.52,38.31c-2.75,0-4.4-.58-4.89-1.72a3.9,3.9,0,0,1,0-3,13.87,13.87,0,0,1,4.47-5.4,27.83,27.83,0,0,1,12.29-5.74,16.44,16.44,0,0,1,3.47-.25,10.3,10.3,0,0,1,8.43,4.49c2,2.92,2.09,6.28.88,7.12l-.06,0c-1.42.26-2.86.62-4.38,1-1,.26-2.06.51-3.15.76-1.53.35-3.17.62-4.85.9-.77.13-1.63.32-2.53.53-.61.13-1.23.28-1.87.41-1.52.31-3.11.56-4.73.73A27.39,27.39,0,0,1,164.52,38.31Zm14.79-15.84a17.57,17.57,0,0,0-2.87.26,27.4,27.4,0,0,0-12.13,5.67,13.67,13.67,0,0,0-4.38,5.26,3.66,3.66,0,0,0,0,2.8c.44,1,2,1.53,4.6,1.53a27,27,0,0,0,3-.19c1.6-.17,3.18-.42,4.7-.73l1.86-.41c.91-.2,1.77-.4,2.55-.53,1.68-.27,3.31-.55,4.83-.89,1.09-.25,2.13-.51,3.14-.76,1.52-.38,2.95-.73,4.36-1,1-.7,1-3.77-1-6.65a10,10,0,0,0-8.18-4.35Z"/><path class="cls-22" d="M164.69,36.57c-1.88,0-3-.39-3.36-1.2a3.24,3.24,0,0,1,0-2.72,12.54,12.54,0,0,1,4.24-4.57A27.35,27.35,0,0,1,177,23.22a15.5,15.5,0,0,1,3-.2h0a9.24,9.24,0,0,1,7.35,3.8c1.71,2.4,1.93,5.25,1,6l0,0h-.05a33.74,33.74,0,0,0-5.91.69l-1,.17c-1.06.19-2.17.33-3.45.5l-1,.13a23.76,23.76,0,0,0-2.63.59l-1.35.35c-1.31.32-2.75.62-4.27.87A25.4,25.4,0,0,1,164.69,36.57Zm14.82-13.24a15.69,15.69,0,0,0-2.45.21,27,27,0,0,0-11.31,4.8,12.28,12.28,0,0,0-4.13,4.43,2.87,2.87,0,0,0,0,2.46c.51,1.09,2.9,1.31,7,.63,1.52-.25,3-.54,4.25-.86l1.35-.35a24,24,0,0,1,2.67-.6l1-.13c1.28-.17,2.38-.31,3.43-.49l1-.18a34.72,34.72,0,0,1,5.91-.7c.71-.66.59-3.22-1.07-5.55A8.93,8.93,0,0,0,180,23.34h-.51Z"/></g><g class="cls-12"><path class="cls-23" d="M137.86,97.36A12.7,12.7,0,0,1,134,96.7c-5.82-1.9-9.43-5.12-11.05-9.84a17.76,17.76,0,0,1-.88-6.64,19.86,19.86,0,0,1,1.65-7.1,17.05,17.05,0,0,1,2.52-4.69,2.27,2.27,0,0,1,1.08-.55c2.94-.45,4.8,1.07,5.66,4.63a30.81,30.81,0,0,1,.62,4.16c0,.4.07.78.12,1.12a9,9,0,0,0,.23,1.39c.43,1.54,2,2.39,4.49,2.39a18.56,18.56,0,0,0,5.2-.89c.67-.2,1.5-.44,2.33-.76,2.53-1,4.71-.62,6,.93a5,5,0,0,1,1.11,3.85,3,3,0,0,1-2,2.45c-1.05.39-2.05,1.76-3.22,3.35C145.7,93.56,142.92,97.36,137.86,97.36Zm-9.58-29.23a5.81,5.81,0,0,0-.9.07,1.91,1.91,0,0,0-.9.47A17.37,17.37,0,0,0,124,73.25a19.72,19.72,0,0,0-1.62,7,17.33,17.33,0,0,0,.87,6.52c1.58,4.62,5.12,7.77,10.84,9.64a12,12,0,0,0,3.74.64c4.9,0,7.62-3.72,9.81-6.72,1.2-1.63,2.23-3,3.36-3.46a2.68,2.68,0,0,0,1.8-2.2,4.65,4.65,0,0,0-1-3.59c-1.24-1.45-3.28-1.76-5.68-.84-.85.32-1.68.57-2.35.77a18.94,18.94,0,0,1-5.3.9c-2.63,0-4.33-.93-4.8-2.62a9.58,9.58,0,0,1-.24-1.44c0-.35-.08-.73-.12-1.12a31.09,31.09,0,0,0-.61-4.12C132,69.59,130.52,68.13,128.28,68.13Z"/><path class="cls-2" d="M137.52,95.89a10.92,10.92,0,0,1-3.36-.57c-7.11-2.32-9.2-6.26-10.15-9a17.29,17.29,0,0,1-.91-6.09,15.45,15.45,0,0,1,1.47-6.51c.17-.41.35-.87.53-1.35a10.69,10.69,0,0,1,1.48-3,1.9,1.9,0,0,1,.8-.3l.13,0a3.78,3.78,0,0,1,.74-.07c2.42,0,3.51,2.6,4,4.78a35.43,35.43,0,0,1,.53,3.59c0,.45.09.87.14,1.25a7.87,7.87,0,0,0,.24,1.26c.49,1.61,2.26,2.49,5,2.49a18.73,18.73,0,0,0,3.72-.43l.44-.09c.54-.11,1.11-.23,1.69-.4a7.72,7.72,0,0,1,2.16-.33,4.89,4.89,0,0,1,3.59,1.42A4.2,4.2,0,0,1,151,85.3c0,.63-.32,1.53-1.78,2.22a10.32,10.32,0,0,0-2.82,2.77C144.37,92.79,141.82,95.89,137.52,95.89Zm-9.27-26.65a3.21,3.21,0,0,0-.68.07l-.13,0a1.59,1.59,0,0,0-.65.23,10.51,10.51,0,0,0-1.39,2.91c-.18.48-.36,1-.54,1.36a15.26,15.26,0,0,0-1.44,6.39,16.93,16.93,0,0,0,.89,6c.93,2.69,3,6.54,9.95,8.81a10.59,10.59,0,0,0,3.26.56c4.15,0,6.64-3,8.64-5.48a10.49,10.49,0,0,1,2.94-2.86c1-.5,1.58-1.15,1.59-1.94a3.86,3.86,0,0,0-1.17-2.61,4.6,4.6,0,0,0-3.36-1.32,7.46,7.46,0,0,0-2.07.32c-.59.18-1.16.29-1.72.41l-.44.09a19.29,19.29,0,0,1-3.78.43c-2.88,0-4.76-1-5.3-2.72a9.61,9.61,0,0,1-.25-1.31c0-.38-.1-.81-.14-1.25a32,32,0,0,0-.53-3.56C131.47,71.7,130.45,69.24,128.25,69.24Z"/></g><g class="cls-12"><path class="cls-24" d="M191.43,63.59a19.09,19.09,0,0,1-6.85-1.3,25.94,25.94,0,0,1-9.49-6.71,32.54,32.54,0,0,1-7-10.94c-.61-1.69-1.14-4-.6-4.78,2-2.76,6.71-1.76,13.88,2.92,2.65,1.72,5.1,3.6,6.89,5l.51.39c.82.63,1.46,1.13,1.82,1.37a1.43,1.43,0,0,0,.78.22c2.84,0,8.5-6.67,12.63-13.26a21.37,21.37,0,0,1,4.9-5.84c1.91-1.42,3.58-1.43,4.54-.08,1.32,1.85,1.18,5.79-.37,10.29-.21.62-.42,1.5-.65,2.53-.74,3.21-1.84,8-4.9,12.15a19.32,19.32,0,0,1-8,6.3A20.42,20.42,0,0,1,191.43,63.59Zm-20.6-24.94a3.51,3.51,0,0,0-3,1.4c-.37.55-.1,2.44.65,4.48a31.89,31.89,0,0,0,6.89,10.83A25.43,25.43,0,0,0,184.7,62a19.82,19.82,0,0,0,22.6-6.67c3-4,4.12-8.84,4.84-12,.24-1,.45-1.93.67-2.57,1.49-4.33,1.65-8.25.41-10-.86-1.21-2.32-1.16-4.09.15a21.21,21.21,0,0,0-4.82,5.75c-4,6.46-9.8,13.41-12.9,13.41a1.74,1.74,0,0,1-1-.27c-.36-.25-1-.75-1.84-1.38l-.5-.39c-1.79-1.37-4.24-3.24-6.88-5C176.76,40.13,173.26,38.65,170.83,38.65Z"/><path class="cls-2" d="M191.6,62.33a17.23,17.23,0,0,1-5.69-1,21.85,21.85,0,0,1-8.57-5.71c-3.33-3.49-5.44-6.7-6.28-9.55-.57-1.61-.94-3.64-.54-4.24,1.77-2.19,5.86-1.17,11.92,2.87,2,1.32,3.81,2.72,5.29,3.85l.79.6c.85.65,1.49,1.14,1.86,1.38a1.48,1.48,0,0,0,.82.22c2.7,0,7.62-5.55,11.06-10.71a20.35,20.35,0,0,1,4.31-5c1.81-1.37,3.3-1.47,4.16-.34,1,1.37,1,4.38,0,8.06-.12.43-.24,1-.39,1.65-.59,2.69-1.58,7.19-4.31,10.81a16.29,16.29,0,0,1-6.78,5.37A19.25,19.25,0,0,1,191.6,62.33ZM173.15,41.05a2.91,2.91,0,0,0-2.38,1c-.27.43,0,2.28.6,4,.82,2.81,2.91,6,6.2,9.43A21.5,21.5,0,0,0,186,61.05a17.59,17.59,0,0,0,13.09-.68,16.11,16.11,0,0,0,6.66-5.26c2.68-3.57,3.66-8,4.25-10.69.14-.66.27-1.23.39-1.67,1-3.58,1-6.49.07-7.77-.75-1-2.06-.85-3.71.39a20.39,20.39,0,0,0-4.24,4.88c-3.59,5.4-8.49,10.86-11.32,10.86a1.88,1.88,0,0,1-1-.28c-.37-.25-1-.74-1.84-1.37l-.83-.63c-1.47-1.12-3.3-2.52-5.27-3.83C178.39,42.42,175.24,41.05,173.15,41.05Z"/></g></g><circle class="cls-25" cx="159.66" cy="116.01" r="5"/></g></g></svg>