<?xml version="1.0" encoding="utf-8"?>
<!-- Generator: Adobe Illustrator 23.0.2, SVG Export Plug-In . SVG Version: 6.00 Build 0)  -->
<svg version="1.0" id="Layer_1" xmlns="http://www.w3.org/2000/svg" xmlns:xlink="http://www.w3.org/1999/xlink" x="0px" y="0px"
	 viewBox="0 0 1451.34 1451.34" style="enable-background:new 0 0 1451.34 1451.34;" xml:space="preserve">
<style type="text/css">
	.st0{fill:#C8DBE9;}
	.st1{fill:#1D4499;}
	.st2{fill:url(#SVGID_1_);}
	.st3{fill:url(#SVGID_2_);}
	.st4{fill:url(#SVGID_3_);}
	.st5{fill:url(#SVGID_4_);}
	.st6{fill:url(#SVGID_5_);}
	.st7{opacity:0.7;fill:#188BBC;}
	.st8{opacity:0.4;fill:#8B71B2;}
	.st9{opacity:0.26;fill:url(#SVGID_6_);}
	.st10{fill:url(#SVGID_7_);}
	.st11{opacity:0.125;fill:url(#SVGID_8_);}
	.st12{opacity:0.275;fill:url(#SVGID_9_);}
	.st13{opacity:0.125;fill:url(#SVGID_10_);}
	.st14{opacity:0.275;fill:url(#SVGID_11_);}
	.st15{opacity:0.1625;fill:url(#SVGID_12_);}
	.st16{opacity:0.0917;fill:url(#SVGID_13_);}
	.st17{opacity:0.125;fill:url(#SVGID_14_);}
	.st18{opacity:0.275;fill:url(#SVGID_15_);}
	.st19{opacity:0.125;fill:url(#SVGID_16_);}
	.st20{opacity:0.125;fill:url(#SVGID_17_);}
	.st21{fill:url(#SVGID_18_);}
</style>
<g>
	<g>
		<g>
			<path class="st0" d="M1324.11,1090.65c-4.55-2.63-12.11-2.69-16.8-0.22l-96.48-56.19c-0.34-0.2-0.7-0.2-1.14-0.3l-81.61,1.62
				l-148.81-86.35l-2.19,3.77l149.34,86.66c0.34,0.2,0.77,0.34,1.14,0.29l81.61-1.62l94.62,55.11c-0.71,1.05-1.08,2.21-1.08,3.41
				c0,2.42,1.54,4.7,4.23,6.25c2.35,1.36,5.43,2.11,8.66,2.11c3.2,0,6.24-0.74,8.56-2.08c2.7-1.55,4.18-3.76,4.18-6.2
				C1328.34,1094.49,1326.8,1092.21,1324.11,1090.65z M1321.98,1099.34c-3.31,1.91-9.53,1.89-12.86-0.03
				c-1.3-0.75-2.05-1.65-2.05-2.48c0-0.39,0.18-0.81,0.5-1.21l0.16,0.1l0.36-0.62c0.28-0.24,0.59-0.48,0.97-0.7
				c1.65-0.95,3.97-1.49,6.39-1.49c2.44,0,4.8,0.55,6.47,1.52c1.31,0.75,2.05,1.66,2.05,2.48
				C1323.99,1097.72,1323.25,1098.6,1321.98,1099.34z"/>
			<path class="st0" d="M1330.69,1011c-4.67-2.71-12.56-2.73-17.22-0.03c-0.5,0.28-0.91,0.62-1.32,0.95l-24.17-14.3l-157.33-3.57
				l-116.03-67.77l-2.19,3.76l116.52,68.06l0.48,0.29l157.33,3.57l22.82,13.5c-0.17,0.56-0.27,1.13-0.27,1.72
				c0,2.42,1.54,4.7,4.23,6.26c2.35,1.35,5.42,2.1,8.65,2.1c3.21,0,6.25-0.74,8.57-2.08c2.66-1.53,4.18-3.79,4.18-6.2
				C1334.91,1014.82,1333.37,1012.55,1330.69,1011z M1328.56,1019.68c-3.3,1.91-9.54,1.88-12.86-0.03c-1.3-0.75-2.05-1.66-2.05-2.48
				c0-0.14,0.05-0.29,0.1-0.44l0.54-0.91c0.34-0.38,0.79-0.75,1.37-1.08c1.64-0.95,3.97-1.49,6.38-1.49c2.45,0,4.8,0.56,6.48,1.53
				c1.31,0.75,2.05,1.65,2.05,2.48C1330.56,1018.06,1329.83,1018.95,1328.56,1019.68z"/>
			<path class="st0" d="M1444.28,987.28c-4.48-2.6-11.87-2.69-16.58-0.33l-108.98-0.41l-74.05-41.66l-106.07-3.8l-66.93-39.75
				l-2.22,3.74l67.41,40.04l0.48,0.28l106.12,3.8l73.63,41.42l0.49,0.28l105.77,0.39c-0.27,0.69-0.46,1.41-0.46,2.16
				c0,2.42,1.54,4.7,4.23,6.25c2.35,1.36,5.42,2.11,8.65,2.11c3.21,0,6.25-0.74,8.57-2.08c2.66-1.53,4.18-3.79,4.18-6.2
				C1448.5,991.11,1446.96,988.83,1444.28,987.28z M1442.14,995.96c-3.3,1.91-9.54,1.88-12.86-0.03c-1.3-0.75-2.05-1.66-2.05-2.48
				c0-0.71,0.58-1.47,1.58-2.14l0.81,0l0-0.47c1.61-0.83,3.76-1.31,6-1.31c2.45,0,4.8,0.56,6.48,1.53c1.31,0.75,2.05,1.65,2.05,2.48
				C1444.15,994.34,1443.42,995.23,1442.14,995.96z"/>
			<path class="st0" d="M914.82,1252.47c-4.23-2.44-11.07-2.67-15.79-0.7l-45.31-29.09l-15.82-88.59c-0.11-0.63-0.49-1.17-1.05-1.5
				l-83.85-49l-2.19,3.76l82.98,48.5l15.81,88.53c0.11,0.6,0.46,1.12,0.97,1.45l44.6,28.63c-1.09,1.25-1.75,2.67-1.75,4.18
				c0,2.42,1.54,4.7,4.23,6.25c2.35,1.36,5.43,2.11,8.66,2.11c3.2,0,6.24-0.74,8.56-2.08c2.66-1.53,4.18-3.79,4.18-6.21
				C919.05,1256.3,917.51,1254.02,914.82,1252.47z M912.69,1261.16c-3.3,1.91-9.53,1.89-12.86-0.03c-1.3-0.75-2.05-1.65-2.05-2.48
				c0-0.81,0.73-1.7,2-2.43c1.65-0.95,3.98-1.49,6.39-1.49c2.44,0,4.8,0.55,6.47,1.52c1.31,0.75,2.05,1.65,2.05,2.48
				C914.69,1259.53,913.96,1260.42,912.69,1261.16z"/>
			<path class="st0" d="M788.89,1198.47c-4.28-2.48-11.2-2.67-15.92-0.64l-72.56-41.63l58.97-34.2c0.66-0.38,1.07-1.09,1.08-1.85
				c0.01-0.77-0.38-1.48-1.03-1.88l-34.97-21.61l-2.29,3.71l31.88,19.69l-59.09,34.26c-0.67,0.39-1.08,1.11-1.08,1.89
				c0,0.78,0.42,1.5,1.09,1.88l74.12,42.53c-1,1.2-1.59,2.55-1.59,4.01c0,2.42,1.54,4.7,4.23,6.26c2.35,1.35,5.42,2.1,8.65,2.1
				c3.21,0,6.25-0.74,8.57-2.08c2.66-1.53,4.18-3.79,4.18-6.2C793.11,1202.29,791.57,1200.02,788.89,1198.47z M786.75,1207.15
				c-3.3,1.91-9.54,1.89-12.86-0.03c-1.3-0.75-2.05-1.66-2.05-2.48c0-0.81,0.73-1.7,2-2.43c1.64-0.95,3.97-1.49,6.39-1.49
				c2.44,0,4.8,0.56,6.47,1.53c1.31,0.75,2.05,1.65,2.05,2.48C788.76,1205.52,788.03,1206.41,786.75,1207.15z"/>
			<path class="st0" d="M1001.07,1233.84c-4.37-2.52-11.53-2.64-16.26-0.42l-99.35-56l-36.18-98.06c-0.18-0.48-0.52-0.89-0.97-1.14
				l-46.03-26.07l-2.14,3.79l45.34,25.68l36.18,98.07c0.18,0.48,0.52,0.89,0.97,1.14l98.42,55.48c-0.9,1.16-1.43,2.46-1.43,3.82
				c0,2.41,1.52,4.67,4.18,6.2c2.32,1.34,5.36,2.08,8.57,2.08c3.23,0,6.3-0.75,8.65-2.11c2.69-1.55,4.23-3.83,4.23-6.25
				C1005.25,1237.6,1003.76,1235.39,1001.07,1233.84z M998.85,1242.52c-3.32,1.92-9.56,1.94-12.86,0.03c-1.28-0.74-2-1.62-2-2.43
				c0-0.54,0.34-1.11,0.93-1.65l1.01,0.57l1.03-1.84c1.57-0.69,3.52-1.09,5.56-1.09c2.42,0,4.74,0.54,6.38,1.49
				c1.27,0.74,2,1.62,2,2.43C1000.9,1240.87,1000.15,1241.77,998.85,1242.52z"/>
			<path class="st0" d="M1096.96,1222.08c-4.68-2.7-12.55-2.72-17.22-0.03c-0.51,0.29-0.93,0.63-1.35,0.97l-109.61-63.65
				l-20.15-53.86l-117.19-68.45l-2.19,3.76l115.84,67.67l20.16,53.86l110.57,64.21c-0.16,0.55-0.26,1.11-0.26,1.68
				c0,2.42,1.54,4.7,4.23,6.26c2.35,1.35,5.42,2.1,8.65,2.1c3.21,0,6.25-0.74,8.57-2.08c2.7-1.55,4.18-3.76,4.18-6.2
				C1101.19,1225.92,1099.65,1223.64,1096.96,1222.08z M1094.83,1230.77c-3.3,1.91-9.54,1.88-12.86-0.03
				c-1.3-0.75-2.05-1.66-2.05-2.48c0-0.14,0.05-0.27,0.09-0.41l0.55-0.94c0.34-0.38,0.79-0.75,1.37-1.08
				c1.65-0.95,3.97-1.49,6.39-1.49c2.44,0,4.8,0.56,6.47,1.52c1.31,0.75,2.05,1.66,2.05,2.48
				C1096.83,1229.15,1096.1,1230.03,1094.83,1230.77z"/>
			<path class="st0" d="M1154.01,897.58l157.32,3.57l22.82,13.5c-0.17,0.55-0.27,1.13-0.27,1.72c0,2.42,1.54,4.7,4.23,6.26
				c2.35,1.35,5.42,2.1,8.65,2.1c3.21,0,6.25-0.74,8.57-2.08c2.66-1.53,4.18-3.79,4.18-6.2c0-2.42-1.54-4.7-4.23-6.25
				c-4.68-2.71-12.56-2.72-17.22-0.03c-0.5,0.29-0.91,0.62-1.33,0.95l-24.17-14.3l-157.34-3.57l-37.73-21.78l-2.18,3.77l38.21,22.06
				L1154.01,897.58z M1346.62,912.44c2.45,0,4.8,0.56,6.48,1.53c1.31,0.75,2.05,1.65,2.05,2.48c0,0.81-0.73,1.7-2,2.43
				c-3.3,1.91-9.54,1.89-12.86-0.03c-1.3-0.75-2.05-1.66-2.05-2.48c0-0.15,0.05-0.3,0.1-0.44l0.54-0.9
				c0.34-0.38,0.79-0.75,1.37-1.08C1341.88,912.98,1344.21,912.44,1346.62,912.44z"/>
			<path class="st0" d="M1253.89,1150.62c-4.69-2.71-12.57-2.72-17.22-0.03c-0.51,0.29-0.93,0.63-1.35,0.96l-155.52-90.91
				l-51.31-10.55l-108.22-62.48l-2.18,3.77l108.52,62.66l51.3,10.55l154.83,90.51c-0.16,0.55-0.26,1.12-0.26,1.7
				c0,2.42,1.54,4.7,4.23,6.25c2.35,1.36,5.42,2.11,8.65,2.11c3.2,0,6.24-0.74,8.57-2.08c2.66-1.53,4.18-3.79,4.18-6.2
				C1258.12,1154.45,1256.58,1152.17,1253.89,1150.62z M1251.76,1159.3c-3.31,1.91-9.54,1.89-12.86-0.03
				c-1.31-0.75-2.05-1.66-2.05-2.48c0-0.14,0.05-0.28,0.09-0.42l0.55-0.93c0.34-0.38,0.79-0.74,1.37-1.08
				c1.64-0.95,3.97-1.49,6.39-1.49c2.44,0,4.8,0.56,6.48,1.52c1.3,0.75,2.05,1.65,2.05,2.48
				C1253.77,1157.68,1253.04,1158.57,1251.76,1159.3z"/>
			<path class="st0" d="M1223.65,1234.26c-4.68-2.71-12.57-2.71-17.22-0.03c-0.5,0.29-0.92,0.63-1.34,0.96l-155.26-90.76
				l-65.94-70.03l-109.02-63.05l-2.18,3.77l108.25,62.5l65.94,70.02l155.64,91.08c-0.17,0.55-0.27,1.12-0.27,1.7
				c0,2.42,1.54,4.7,4.23,6.25c2.35,1.36,5.42,2.11,8.65,2.11c3.2,0,6.24-0.74,8.57-2.08c2.69-1.55,4.18-3.76,4.18-6.2
				C1227.88,1238.09,1226.34,1235.81,1223.65,1234.26z M1221.52,1242.95c-3.3,1.91-9.53,1.89-12.86-0.03
				c-1.31-0.75-2.05-1.65-2.05-2.48c0-0.14,0.05-0.28,0.09-0.43l0.54-0.92c0.34-0.38,0.79-0.75,1.37-1.08
				c1.65-0.95,3.97-1.49,6.39-1.49c2.44,0,4.8,0.55,6.47,1.52c1.3,0.75,2.05,1.66,2.05,2.48
				C1223.52,1241.33,1222.79,1242.21,1221.52,1242.95z"/>
		</g>
		<g>
			<path class="st0" d="M338.53,646.1l-96.92-55.22c1.2-1.3,1.92-2.79,1.92-4.37c0-2.45-1.48-4.65-4.18-6.2
				c-4.65-2.69-12.53-2.68-17.22,0.03c-2.69,1.55-4.23,3.83-4.23,6.25c0,2.41,1.52,4.67,4.18,6.2c2.32,1.34,5.36,2.08,8.57,2.08
				c2.49,0,4.88-0.45,6.92-1.28l99.06,56.45l83.17,21.43l100.79,63.36l2.32-3.68l-101.08-63.55L338.53,646.1z M224.26,589.01
				c-1.27-0.74-2-1.62-2-2.43c0-0.83,0.75-1.73,2.05-2.48c1.67-0.97,4.03-1.52,6.47-1.52c2.42,0,4.75,0.54,6.39,1.49
				c1.27,0.74,2,1.62,2,2.43c0,0.83-0.74,1.73-2.05,2.48C233.8,590.9,227.56,590.91,224.26,589.01z"/>
			<path class="st0" d="M425.95,560.24l-83.13-16.54l-82.32-46.14c1.19-1.29,1.9-2.78,1.9-4.35c0-2.45-1.48-4.64-4.18-6.2
				c-4.66-2.69-12.54-2.68-17.22,0.03c-2.68,1.55-4.22,3.82-4.23,6.25c0,2.41,1.52,4.67,4.18,6.2c2.32,1.34,5.37,2.08,8.57,2.08
				c0,0,0,0,0,0c2.49,0,4.88-0.46,6.92-1.28L341,547.68l83.02,16.5l196.77,119.49l2.26-3.73L425.95,560.24z M249.53,497.21
				c-2.42,0-4.75-0.54-6.39-1.49c-1.27-0.74-2-1.62-2-2.43c0-0.82,0.75-1.73,2.05-2.48c1.68-0.97,4.04-1.52,6.48-1.52
				c2.42,0,4.75,0.54,6.39,1.49c1.27,0.74,2,1.62,2,2.43c0,0.83-0.74,1.73-2.05,2.48C254.32,496.66,251.97,497.21,249.53,497.21
				L249.53,497.21z"/>
			<path class="st0" d="M304.21,741.52l-107.18,13.96l-93.43-53.46c1.21-1.3,1.93-2.8,1.93-4.39c0-2.45-1.48-4.65-4.18-6.2
				c-4.66-2.69-12.53-2.68-17.22,0.03c-2.68,1.55-4.22,3.82-4.23,6.25c0,2.41,1.52,4.67,4.18,6.2c2.32,1.34,5.36,2.08,8.57,2.08
				c0,0,0,0,0,0c2.48,0,4.86-0.45,6.9-1.27l95.95,54.9c0.41,0.24,0.88,0.33,1.36,0.27l107.17-13.96l98.45,57.34l2.19-3.76
				l-99.09-57.71C305.17,741.56,304.69,741.45,304.21,741.52z M86.26,700.15c-1.27-0.74-2-1.62-2-2.43c0-0.82,0.75-1.73,2.05-2.48
				c1.68-0.97,4.04-1.52,6.48-1.52c2.42,0,4.74,0.54,6.38,1.49c1.27,0.74,2,1.62,2,2.43c0,0.7-0.56,1.45-1.52,2.13l-0.15-0.08
				l-0.17,0.3c-0.08,0.05-0.13,0.1-0.21,0.14C95.8,702.04,89.57,702.06,86.26,700.15z"/>
			<path class="st0" d="M248.51,694.67L65.4,584.69c1.49-1.39,2.33-3.08,2.33-4.85c0-2.45-1.48-4.65-4.18-6.2
				c-4.66-2.69-12.54-2.68-17.22,0.03c-2.68,1.55-4.22,3.82-4.23,6.25c0,2.41,1.52,4.67,4.18,6.2c2.32,1.34,5.37,2.08,8.57,2.08
				c0,0,0,0,0,0c2.21,0,4.32-0.37,6.2-1.03l185.7,111.53l0.5,0.3l157.33,3.57l83.94,50.55l2.25-3.74l-84.92-51.15L248.51,694.67z
				 M54.86,583.85c-2.42,0-4.75-0.54-6.39-1.49c-1.27-0.74-2-1.62-2-2.43c0-0.83,0.75-1.73,2.05-2.48c1.68-0.97,4.04-1.52,6.48-1.52
				c2.42,0,4.74,0.54,6.38,1.49c1.27,0.74,2,1.62,2,2.43c0,0.81-0.72,1.7-1.99,2.44l-1.85-1.11l-1.4,2.32
				C57.1,583.72,55.99,583.85,54.86,583.85L54.86,583.85z"/>
			<path class="st0" d="M203.71,836.73L171.26,818c2.21-1.52,3.51-3.55,3.51-5.74c0-2.41-1.52-4.67-4.18-6.2
				c-4.65-2.69-12.53-2.68-17.22,0.03c-2.69,1.55-4.23,3.83-4.23,6.25c0,2.45,1.49,4.65,4.18,6.2c2.32,1.34,5.36,2.08,8.56,2.08
				c1.51,0,2.98-0.18,4.36-0.49l37.46,21.63l72.1-41.58l70.38,40.54l2.18-3.78l-72.56-41.79L203.71,836.73z M155.51,814.77
				c-1.27-0.74-2-1.62-2-2.43c0-0.83,0.75-1.73,2.05-2.48c1.67-0.97,4.03-1.52,6.47-1.52c2.42,0,4.75,0.54,6.39,1.49
				c1.28,0.74,2,1.62,2,2.43c0,0.82-0.74,1.73-2.05,2.48c-0.46,0.27-0.99,0.49-1.54,0.7l-0.24-0.14l-0.15,0.26
				c-1.37,0.45-2.93,0.71-4.55,0.71C159.47,816.26,157.15,815.72,155.51,814.77z"/>
		</g>
		<g>
			<path class="st0" d="M1332.99,774.14c-4.68-2.71-12.57-2.71-17.22-0.03c-2.66,1.53-4.18,3.79-4.18,6.2c0,2.21,1.33,4.28,3.6,5.8
				l-79.03,47.69l-72.07-41.57l-72.56,41.79l2.18,3.78l70.39-40.54l71,40.95l1.11,0.64l83.96-50.67c1.36,0.3,2.81,0.48,4.29,0.48
				c3.2,0,6.24-0.74,8.56-2.08c2.66-1.53,4.18-3.79,4.18-6.21C1337.22,777.97,1335.68,775.69,1332.99,774.14z M1330.86,782.83
				c-2.77,1.59-7.56,1.82-11.01,0.74l-0.11-0.19l-0.17,0.11c-0.57-0.19-1.1-0.42-1.57-0.69c-1.31-0.75-2.05-1.65-2.05-2.48
				c0-0.81,0.73-1.7,2-2.43c1.65-0.95,3.97-1.49,6.39-1.49c2.44,0,4.8,0.55,6.47,1.52c1.3,0.75,2.05,1.66,2.05,2.48
				C1332.86,781.2,1332.13,782.09,1330.86,782.83z"/>
			<path class="st0" d="M1416.84,624.36c-4.69-2.71-12.56-2.72-17.22-0.03c-2.66,1.53-4.18,3.79-4.18,6.21
				c0,1.6,0.73,3.12,1.97,4.43l-185.43,109.6l-81.6-1.62c-0.41,0.06-0.79,0.09-1.14,0.3l-99.09,57.71l2.19,3.76l98.57-57.4
				l81.6,1.62c0.41-0.02,0.8-0.1,1.15-0.3l187.8-111c2.03,0.81,4.39,1.25,6.86,1.25c3.21,0,6.25-0.74,8.57-2.08
				c2.66-1.53,4.18-3.79,4.18-6.2C1421.06,628.18,1419.52,625.91,1416.84,624.36z M1414.71,633.04c-3.31,1.9-9.54,1.9-12.86-0.03
				c-0.1-0.06-0.18-0.12-0.27-0.18l-0.14-0.24l-0.11,0.07c-0.96-0.67-1.52-1.42-1.52-2.13c0-0.81,0.73-1.7,2-2.43
				c1.64-0.95,3.97-1.49,6.38-1.49c2.44,0,4.8,0.56,6.48,1.52c1.3,0.75,2.05,1.65,2.05,2.48
				C1416.71,631.42,1415.98,632.31,1414.71,633.04z"/>
			<path class="st0" d="M1099.81,587.85l191.03-110.54c2.04,0.82,4.42,1.27,6.91,1.27c3.21,0,6.25-0.74,8.57-2.08
				c2.7-1.55,4.18-3.76,4.18-6.2c0-2.42-1.54-4.7-4.23-6.26c-4.69-2.7-12.57-2.71-17.22-0.02c-2.7,1.55-4.18,3.76-4.18,6.2
				c0,1.59,0.72,3.09,1.93,4.39l-190.35,110.14l-26.23,55.28l-158.24,92.5l2.19,3.76l159.41-93.18L1099.81,587.85z M1291.22,467.79
				c1.64-0.95,3.97-1.49,6.39-1.49c2.44,0,4.8,0.56,6.47,1.52c1.3,0.75,2.05,1.66,2.05,2.48c0,0.81-0.73,1.7-2,2.43
				c-3.3,1.91-9.54,1.89-12.86-0.03c-1.31-0.75-2.05-1.66-2.05-2.48C1289.22,469.41,1289.95,468.52,1291.22,467.79z"/>
			<path class="st0" d="M1166.86,668.37l104.43-58.99c1.92,0.69,4.1,1.08,6.37,1.08c3.2,0,6.24-0.74,8.56-2.08
				c2.69-1.55,4.18-3.76,4.18-6.2c0-2.42-1.54-4.7-4.23-6.26c-4.69-2.7-12.56-2.71-17.22-0.02c-2.66,1.53-4.18,3.79-4.18,6.2
				c0,1.72,0.81,3.35,2.21,4.71l-101.53,57.43l-136.38,37.25l-84.99,49.33l2.19,3.77l84.22-48.97L1166.86,668.37z M1269.12,602.1
				c0-0.81,0.73-1.7,2-2.43c1.64-0.95,3.97-1.49,6.39-1.49c2.44,0,4.8,0.56,6.47,1.52c1.3,0.75,2.05,1.66,2.05,2.48
				c0,0.81-0.73,1.7-2,2.43c-2.44,1.41-6.44,1.76-9.72,1.08l-1.3-2.3l-1.96,1.11C1269.83,603.76,1269.12,602.89,1269.12,602.1z"/>
			<path class="st0" d="M977.77,564.57l4.53-65.35l112.61-65.78c2.18,1.01,4.79,1.58,7.55,1.58c3.2,0,6.24-0.74,8.57-2.08
				c2.69-1.55,4.18-3.76,4.18-6.2c0-2.42-1.54-4.7-4.23-6.26c-4.69-2.7-12.57-2.71-17.22-0.02c-2.7,1.55-4.18,3.76-4.18,6.2
				c0,1.41,0.57,2.75,1.54,3.95l-112.01,65.43l-1,0.58l-4.53,65.36L801.7,663.01l2.2,3.75l172.88-101.62L977.77,564.57z
				 M1093.94,426.66c0-0.81,0.73-1.7,2-2.43c1.64-0.95,3.97-1.49,6.39-1.49c2.44,0,4.8,0.56,6.47,1.52c1.3,0.75,2.05,1.66,2.05,2.48
				c0,0.81-0.73,1.7-2,2.43c-3.18,1.83-9.02,1.87-12.42,0.18l-0.8-1.37l-0.69,0.4C1094.31,427.82,1093.94,427.22,1093.94,426.66z"/>
		</g>
		<g>
			<path class="st0" d="M445.85,999.31l-21.81,59.65l-99.34,56c-4.75-2.21-11.91-2.09-16.26,0.42c-2.66,1.53-4.18,3.79-4.18,6.2
				c0,2.42,1.54,4.7,4.23,6.25c2.35,1.36,5.42,2.11,8.66,2.11c3.2,0,6.24-0.74,8.56-2.08c2.69-1.55,4.18-3.76,4.18-6.2
				c0-1.36-0.53-2.65-1.43-3.82l98.43-55.48c0.46-0.26,0.8-0.66,0.98-1.15l21.81-59.65l45.33-25.68l-2.14-3.79l-46.02,26.07
				C446.37,998.41,446.03,998.82,445.85,999.31z M325.52,1121.66c0,0.81-0.73,1.7-2,2.43c-3.31,1.91-9.53,1.89-12.86-0.03
				c-1.31-0.75-2.05-1.65-2.05-2.48c0-0.81,0.73-1.7,2-2.43c1.64-0.95,3.97-1.49,6.39-1.49c2.03,0,3.98,0.4,5.54,1.08l1.04,1.84
				l1.02-0.57C325.18,1120.56,325.52,1121.13,325.52,1121.66z"/>
			<path class="st0" d="M428.16,1129.46l26.22-55.28l107.94-62.32l-2.18-3.77l-108.52,62.66l-0.59,0.34l-26.23,55.29l-154.94,90.57
				c-0.42-0.33-0.84-0.67-1.35-0.96c-4.66-2.69-12.54-2.68-17.22,0.03c-2.69,1.55-4.23,3.83-4.23,6.25c0,2.45,1.49,4.65,4.18,6.2
				c2.32,1.34,5.36,2.08,8.57,2.08c3.23,0,6.3-0.75,8.65-2.11c2.69-1.55,4.23-3.83,4.23-6.25c0-0.58-0.1-1.15-0.26-1.7
				L428.16,1129.46z M266.29,1224.67c-3.33,1.92-9.56,1.93-12.87,0.03c-1.27-0.74-2-1.62-2-2.43c0-0.83,0.75-1.73,2.05-2.48
				c1.67-0.97,4.03-1.52,6.47-1.52c2.42,0,4.75,0.54,6.39,1.49c0.58,0.33,1.02,0.7,1.36,1.07l0.55,0.95
				c0.04,0.14,0.09,0.28,0.09,0.41C268.34,1223.02,267.59,1223.93,266.29,1224.67z"/>
			<path class="st0" d="M319.58,1048.04c0.48-0.02,0.8-0.09,1.14-0.29l149.34-86.66l-2.19-3.77l-148.81,86.35l-81.61-1.62
				c-0.33,0.03-0.79,0.1-1.14,0.3l-212.45,123.7c-4.69-2.47-12.24-2.41-16.8,0.22c-2.69,1.55-4.23,3.83-4.23,6.25
				c0,2.45,1.49,4.65,4.18,6.2c2.32,1.34,5.36,2.08,8.57,2.08c3.23,0,6.3-0.75,8.65-2.11c2.69-1.55,4.23-3.83,4.23-6.25
				c0-1.2-0.38-2.36-1.08-3.41l210.59-122.62L319.58,1048.04z M24.11,1172.45c0,0.82-0.74,1.73-2.05,2.48
				c-1.68,0.97-4.03,1.52-6.47,1.52c-2.42,0-4.75-0.54-6.39-1.49c-1.27-0.74-2-1.62-2-2.43c0-0.83,0.75-1.73,2.05-2.48
				c1.67-0.97,4.03-1.52,6.47-1.52c2.42,0,4.75,0.54,6.39,1.49c0.38,0.22,0.69,0.45,0.97,0.69l0.37,0.63l0.17-0.1
				C23.93,1171.64,24.11,1172.05,24.11,1172.45z"/>
			<path class="st0" d="M50.67,1069.97c2.32,1.34,5.36,2.08,8.57,2.08c3.23,0,6.3-0.75,8.65-2.11c2.69-1.55,4.23-3.83,4.23-6.25
				c0-0.58-0.1-1.15-0.27-1.7l88.56-51.94l157.33-3.57l117-68.34l-2.19-3.76l-116.03,67.77l-157.33,3.57l-89.91,52.72
				c-0.42-0.34-0.84-0.67-1.34-0.96c-4.66-2.69-12.55-2.68-17.22,0.03c-2.69,1.55-4.23,3.83-4.23,6.25
				C46.49,1066.17,48.01,1068.44,50.67,1069.97z M52.89,1061.29c1.68-0.97,4.03-1.52,6.48-1.52c2.42,0,4.74,0.54,6.38,1.49
				c0.58,0.34,1.03,0.71,1.37,1.08l0.54,0.93c0.04,0.14,0.09,0.29,0.09,0.43c0,0.83-0.75,1.73-2.05,2.48
				c-3.33,1.93-9.56,1.94-12.86,0.03c-1.28-0.74-2-1.63-2-2.43C50.84,1062.94,51.59,1062.04,52.89,1061.29z"/>
			<path class="st0" d="M85.47,990.89c2.32,1.34,5.36,2.08,8.57,2.08c3.23,0,6.3-0.75,8.65-2.11c2.69-1.55,4.23-3.83,4.23-6.25
				c0-0.76-0.19-1.48-0.47-2.18l52.05-0.37l45.2-24.75l105.58-3.78l0.56-0.02l75.83-45l-2.22-3.74l-74.88,44.43l-105.54,3.78
				l-0.52,0.02l-45.14,24.71l-55.29,0.39c-4.72-2.35-12.09-2.25-16.56,0.33c-2.69,1.55-4.23,3.83-4.23,6.25
				C81.28,987.09,82.81,989.36,85.47,990.89z M87.69,982.21c1.68-0.97,4.03-1.52,6.47-1.52c2.25,0,4.4,0.49,6.02,1.32l0,0.47
				l0.79-0.01c0.99,0.67,1.58,1.43,1.58,2.15c0,0.83-0.75,1.73-2.05,2.48c-3.33,1.92-9.56,1.94-12.86,0.03c-1.28-0.74-2-1.62-2-2.43
				C85.64,983.86,86.38,982.96,87.69,982.21z"/>
			<path class="st0" d="M504.9,1112.06l-38.84,66.25l-23.19,13.72c-0.41-0.33-0.83-0.66-1.33-0.95c-4.65-2.69-12.53-2.68-17.22,0.03
				c-2.68,1.55-4.22,3.82-4.23,6.25c0,2.41,1.52,4.67,4.18,6.2c2.32,1.34,5.36,2.08,8.57,2.08c3.23,0,6.3-0.75,8.65-2.11
				c2.69-1.55,4.23-3.83,4.23-6.25c0-0.59-0.1-1.16-0.26-1.72l23.79-14.08l38.84-66.23l116.02-67.77l-2.19-3.76l-116.52,68.06
				L504.9,1112.06z M439.32,1199.77c-3.32,1.92-9.56,1.94-12.86,0.03c-1.27-0.74-2-1.62-2-2.43c0-0.82,0.75-1.73,2.05-2.48
				c1.68-0.97,4.04-1.52,6.48-1.52c2.42,0,4.74,0.54,6.38,1.49c0.58,0.34,1.03,0.7,1.37,1.08l0.54,0.91c0.05,0.15,0.1,0.3,0.1,0.44
				C441.37,1198.11,440.62,1199.01,439.32,1199.77z"/>
			<path class="st0" d="M91.82,930.75c2.32,1.34,5.36,2.08,8.57,2.08c3.23,0,6.3-0.75,8.65-2.11c2.69-1.55,4.23-3.83,4.23-6.25
				c0-0.56-0.1-1.12-0.26-1.66l51.39-29.45l127.92,12.32l0.69,0.06l45.42-26.98l-2.18-3.77l-44.21,26.29l-127.92-12.32l-0.69-0.06
				l-52.98,30.36c-0.43-0.34-0.86-0.69-1.37-0.98c-4.65-2.7-12.53-2.69-17.22,0.03c-2.68,1.55-4.22,3.82-4.23,6.25
				C87.64,926.99,89.12,929.19,91.82,930.75z M94.05,922.06c1.68-0.97,4.04-1.52,6.47-1.52c2.42,0,4.74,0.54,6.39,1.49
				c0.58,0.34,1.03,0.71,1.37,1.08l0.55,0.95c0.04,0.13,0.09,0.27,0.09,0.4c0,0.83-0.74,1.73-2.05,2.48
				c-1.68,0.97-4.03,1.52-6.47,1.52c-2.42,0-4.75-0.54-6.39-1.49c-1.27-0.74-2-1.63-2-2.44C92,923.72,92.74,922.82,94.05,922.06z"/>
			<path class="st0" d="M676.75,1076.26l-116.52,68.06l-1,0.58l-4.53,65.34l-112.67,65.01c-0.42-0.34-0.85-0.68-1.36-0.98
				c-4.66-2.69-12.54-2.68-17.22,0.03c-2.68,1.55-4.22,3.82-4.23,6.25c0,2.41,1.52,4.67,4.18,6.2c2.32,1.34,5.36,2.08,8.57,2.08
				c0,0,0,0,0,0c3.23,0,6.3-0.75,8.65-2.11c2.69-1.55,4.23-3.83,4.23-6.25c0-0.57-0.1-1.13-0.26-1.67l114.3-65.95l4.53-65.35
				l115.52-67.48L676.75,1076.26z M438.45,1282.96c-3.32,1.91-9.55,1.94-12.86,0.03c-1.27-0.74-2-1.62-2-2.43
				c0-0.82,0.75-1.73,2.05-2.48c1.68-0.97,4.04-1.52,6.48-1.52c2.42,0,4.75,0.54,6.39,1.49c0.58,0.33,1.02,0.7,1.36,1.07l0.55,0.96
				c0.04,0.13,0.09,0.27,0.09,0.4C440.5,1281.3,439.75,1282.2,438.45,1282.96z"/>
			<path class="st0" d="M601.58,1162.76l112.33-65.07l-2.19-3.77l-119.04,68.96l86.17,46.88l-55.95,33.1
				c-0.41-0.33-0.83-0.66-1.33-0.95c-4.66-2.7-12.54-2.68-17.22,0.03c-2.69,1.55-4.23,3.83-4.23,6.25c0,2.41,1.52,4.67,4.18,6.2
				c2.32,1.34,5.36,2.08,8.57,2.08c3.23,0,6.3-0.75,8.65-2.11c2.69-1.55,4.23-3.83,4.23-6.25c0-0.59-0.1-1.16-0.27-1.72l62.18-36.8
				L601.58,1162.76z M619.36,1250.6c-3.33,1.92-9.56,1.94-12.86,0.03c-1.28-0.74-2-1.63-2-2.43c0-0.83,0.74-1.73,2.05-2.48
				c1.68-0.97,4.03-1.52,6.48-1.52c2.42,0,4.74,0.54,6.38,1.49c0.58,0.34,1.03,0.71,1.37,1.08l0.54,0.91c0.05,0.15,0.1,0.3,0.1,0.44
				C621.41,1248.95,620.66,1249.85,619.36,1250.6z"/>
		</g>
		<path class="st1" d="M720.71,1106.56c-0.62,0-1.23-0.16-1.79-0.48L306.15,865.7c-1.09-0.64-1.77-1.8-1.77-3.07
			c0-1.26,0.67-2.43,1.76-3.07l410.73-240.21c1.11-0.64,2.47-0.65,3.58,0l413.22,240.63c1.09,0.64,1.77,1.8,1.77,3.07
			c0,1.26-0.67,2.43-1.76,3.07L722.5,1106.07C721.95,1106.4,721.33,1106.56,720.71,1106.56z M314.98,862.62l405.73,236.27
			l404.11-235.83L718.67,626.54L314.98,862.62z"/>
	</g>
	<g>
		<g>
			<polygon class="st1" points="720.58,1032.36 720.58,1074.87 1085.89,861.81 1085.89,819.29 			"/>
			<polygon class="st1" points="720.78,1032.36 720.78,1074.87 354.25,861.2 354.25,818.91 			"/>
			<polygon class="st0" points="354.25,818.91 720.78,1032.36 1085.89,819.29 718.97,605.61 			"/>
		</g>
		<g>
			<polygon class="st0" points="720.55,956.91 720.55,1016.65 1059.98,818.67 1059.98,758.93 			"/>
		</g>
		<g>
			<linearGradient id="SVGID_1_" gradientUnits="userSpaceOnUse" x1="837.8361" y1="812.9931" x2="1698.3033" y2="555.3397">
				<stop  offset="0" style="stop-color:#0562A0"/>
				<stop  offset="1" style="stop-color:#3087C8"/>
			</linearGradient>
			<polygon class="st2" points="720.58,800.66 720.58,999.23 1085.89,786.16 1085.89,587.59 			"/>
			<g>
				<path class="st0" d="M747.68,952.05V816.22l311.11-181.46V770.6L747.68,952.05z M755.42,820.67v117.91l295.63-172.43V648.24
					L755.42,820.67z"/>
			</g>
			<linearGradient id="SVGID_2_" gradientUnits="userSpaceOnUse" x1="-16.3765" y1="917.3871" x2="1116.0439" y2="663.5348">
				<stop  offset="0" style="stop-color:#0562A0"/>
				<stop  offset="1" style="stop-color:#3087C8"/>
			</linearGradient>
			<polygon class="st3" points="720.78,800.66 720.78,999.23 354.25,785.56 354.25,587.21 			"/>
			<linearGradient id="SVGID_3_" gradientUnits="userSpaceOnUse" x1="385.2199" y1="793.2059" x2="689.8154" y2="793.2059">
				<stop  offset="0" style="stop-color:#0562A0"/>
				<stop  offset="1" style="stop-color:#3087C8"/>
			</linearGradient>
			<polygon class="st4" points="385.22,767.76 385.22,641.08 689.82,818.46 689.82,945.33 			"/>
			<g>
				<path class="st0" d="M693.69,952.07L381.35,769.99V634.35l312.34,181.89V952.07z M389.09,765.54l296.85,173.05V820.68
					L389.09,647.82V765.54z"/>
			</g>
			<g>
				<g>
					<polygon class="st0" points="648.19,829.31 659.98,836.12 659.98,822.59 648.19,815.79 					"/>
					<polygon class="st0" points="626.05,816.53 637.84,823.33 637.84,809.81 626.05,803 					"/>
					<polygon class="st0" points="603.9,803.74 615.69,810.55 615.69,797.02 603.9,790.21 					"/>
					<polygon class="st1" points="581.75,790.95 593.54,797.76 593.54,784.23 581.75,777.43 					"/>
					<polygon class="st1" points="559.61,778.17 571.39,784.97 571.39,771.45 559.61,764.64 					"/>
					<polygon class="st0" points="537.46,765.38 549.25,772.19 549.25,758.66 537.46,751.85 					"/>
					<polygon class="st0" points="515.31,752.59 527.1,759.4 527.1,745.87 515.31,739.07 					"/>
					<polygon class="st0" points="493.16,739.81 504.95,746.61 504.95,733.09 493.16,726.28 					"/>
					<polygon class="st1" points="471.02,727.02 482.81,733.83 482.81,720.3 471.02,713.49 					"/>
					<polygon class="st0" points="448.87,714.23 460.66,721.04 460.66,707.51 448.87,700.71 					"/>
					<polygon class="st0" points="426.72,701.45 438.51,708.25 438.51,694.73 426.72,687.92 					"/>
					<polygon class="st0" points="404.58,688.66 416.37,695.47 416.37,681.94 404.58,675.13 					"/>
				</g>
				<g>
					<polygon class="st0" points="648.19,853.36 659.98,860.16 659.98,846.64 648.19,839.83 					"/>
					<polygon class="st0" points="626.05,840.57 637.84,847.38 637.84,833.85 626.05,827.04 					"/>
					<polygon class="st0" points="603.9,827.79 615.69,834.59 615.69,821.06 603.9,814.26 					"/>
					<polygon class="st1" points="581.75,815 593.54,821.81 593.54,808.28 581.75,801.47 					"/>
					<polygon class="st0" points="559.61,802.21 571.39,809.02 571.39,795.49 559.61,788.68 					"/>
					<polygon class="st0" points="537.46,789.43 549.25,796.23 549.25,782.7 537.46,775.9 					"/>
					<polygon class="st0" points="515.31,776.64 527.1,783.45 527.1,769.92 515.31,763.11 					"/>
					<polygon class="st0" points="493.16,763.85 504.95,770.66 504.95,757.13 493.16,750.32 					"/>
					<polygon class="st0" points="471.02,751.07 482.81,757.87 482.81,744.34 471.02,737.54 					"/>
					<polygon class="st0" points="448.87,738.28 460.66,745.09 460.66,731.56 448.87,724.75 					"/>
					<polygon class="st0" points="426.72,725.49 438.51,732.3 438.51,718.77 426.72,711.96 					"/>
					<polygon class="st0" points="404.58,712.71 416.37,719.51 416.37,705.98 404.58,699.18 					"/>
				</g>
			</g>
			<g>
				<g>
					<polygon class="st0" points="648.19,877.22 659.98,884.02 659.98,870.49 648.19,863.69 					"/>
					<polygon class="st0" points="626.05,864.43 637.84,871.24 637.84,857.71 626.05,850.9 					"/>
					<polygon class="st0" points="603.9,851.64 615.69,858.45 615.69,844.92 603.9,838.11 					"/>
					<polygon class="st0" points="581.75,838.86 593.54,845.66 593.54,832.13 581.75,825.33 					"/>
					<polygon class="st0" points="559.61,826.07 571.39,832.88 571.39,819.35 559.61,812.54 					"/>
					<polygon class="st0" points="537.46,813.28 549.25,820.09 549.25,806.56 537.46,799.75 					"/>
					<polygon class="st1" points="515.31,800.5 527.1,807.3 527.1,793.77 515.31,786.97 					"/>
					<polygon class="st0" points="493.16,787.71 504.95,794.52 504.95,780.99 493.16,774.18 					"/>
					<polygon class="st0" points="471.02,774.92 482.81,781.73 482.81,768.2 471.02,761.39 					"/>
					<polygon class="st0" points="448.87,762.14 460.66,768.94 460.66,755.41 448.87,748.61 					"/>
					<polygon class="st0" points="426.72,749.35 438.51,756.16 438.51,742.63 426.72,735.82 					"/>
					<polygon class="st0" points="404.58,736.56 416.37,743.37 416.37,729.84 404.58,723.04 					"/>
				</g>
				<g>
					<polygon class="st0" points="648.19,901.26 659.98,908.07 659.98,894.54 648.19,887.73 					"/>
					<polygon class="st1" points="626.05,888.47 637.84,895.28 637.84,881.75 626.05,874.95 					"/>
					<polygon class="st1" points="603.9,875.69 615.69,882.49 615.69,868.97 603.9,862.16 					"/>
					<polygon class="st0" points="581.75,862.9 593.54,869.71 593.54,856.18 581.75,849.37 					"/>
					<polygon class="st0" points="559.61,850.11 571.39,856.92 571.39,843.39 559.61,836.59 					"/>
					<polygon class="st0" points="537.46,837.33 549.25,844.13 549.25,830.61 537.46,823.8 					"/>
					<polygon class="st1" points="515.31,824.54 527.1,831.35 527.1,817.82 515.31,811.01 					"/>
					<polygon class="st0" points="493.16,811.75 504.95,818.56 504.95,805.03 493.16,798.23 					"/>
					<polygon class="st0" points="471.02,798.97 482.81,805.77 482.81,792.25 471.02,785.44 					"/>
					<polygon class="st0" points="448.87,786.18 460.66,792.99 460.66,779.46 448.87,772.65 					"/>
					<polygon class="st1" points="426.72,773.39 438.51,780.2 438.51,766.67 426.72,759.87 					"/>
					<polygon class="st0" points="404.58,760.61 416.37,767.41 416.37,753.89 404.58,747.08 					"/>
				</g>
			</g>
			<g>
				<g>
					<polygon class="st0" points="790.15,829.31 778.36,836.12 778.36,822.59 790.15,815.79 					"/>
					<polygon class="st1" points="812.3,816.53 800.51,823.33 800.51,809.81 812.3,803 					"/>
					<polygon class="st0" points="834.44,803.74 822.65,810.55 822.65,797.02 834.44,790.21 					"/>
					<polygon class="st1" points="856.59,790.95 844.8,797.76 844.8,784.23 856.59,777.43 					"/>
					<polygon class="st1" points="878.74,778.17 866.95,784.97 866.95,771.45 878.74,764.64 					"/>
					<polygon class="st0" points="900.88,765.38 889.1,772.19 889.1,758.66 900.88,751.85 					"/>
					<polygon class="st0" points="923.03,752.59 911.24,759.4 911.24,745.87 923.03,739.07 					"/>
					<polygon class="st0" points="945.18,739.81 933.39,746.61 933.39,733.09 945.18,726.28 					"/>
					<polygon class="st1" points="967.33,727.02 955.54,733.83 955.54,720.3 967.33,713.49 					"/>
					<polygon class="st1" points="989.47,714.23 977.68,721.04 977.68,707.51 989.47,700.71 					"/>
					<polygon class="st0" points="1011.62,701.45 999.83,708.25 999.83,694.73 1011.62,687.92 					"/>
					<polygon class="st0" points="1033.77,688.66 1021.98,695.47 1021.98,681.94 1033.77,675.13 					"/>
				</g>
				<g>
					<polygon class="st0" points="790.15,853.36 778.36,860.16 778.36,846.64 790.15,839.83 					"/>
					<polygon class="st1" points="812.3,840.57 800.51,847.38 800.51,833.85 812.3,827.04 					"/>
					<polygon class="st0" points="834.44,827.79 822.65,834.59 822.65,821.06 834.44,814.26 					"/>
					<polygon class="st1" points="856.59,815 844.8,821.81 844.8,808.28 856.59,801.47 					"/>
					<polygon class="st0" points="878.74,802.21 866.95,809.02 866.95,795.49 878.74,788.68 					"/>
					<polygon class="st0" points="900.88,789.43 889.1,796.23 889.1,782.7 900.88,775.9 					"/>
					<polygon class="st0" points="923.03,776.64 911.24,783.45 911.24,769.92 923.03,763.11 					"/>
					<polygon class="st0" points="945.18,763.85 933.39,770.66 933.39,757.13 945.18,750.32 					"/>
					<polygon class="st0" points="967.33,751.07 955.54,757.87 955.54,744.34 967.33,737.54 					"/>
					<polygon class="st0" points="989.47,738.28 977.68,745.09 977.68,731.56 989.47,724.75 					"/>
					<polygon class="st0" points="1011.62,725.49 999.83,732.3 999.83,718.77 1011.62,711.96 					"/>
					<polygon class="st0" points="1033.77,712.71 1021.98,719.51 1021.98,705.98 1033.77,699.18 					"/>
				</g>
			</g>
			<g>
				<g>
					<polygon class="st0" points="790.15,877.22 778.36,884.02 778.36,870.49 790.15,863.69 					"/>
					<polygon class="st0" points="812.3,864.43 800.51,871.24 800.51,857.71 812.3,850.9 					"/>
					<polygon class="st0" points="834.44,851.64 822.65,858.45 822.65,844.92 834.44,838.11 					"/>
					<polygon class="st0" points="856.59,838.86 844.8,845.66 844.8,832.13 856.59,825.33 					"/>
					<polygon class="st0" points="878.74,826.07 866.95,832.88 866.95,819.35 878.74,812.54 					"/>
					<polygon class="st0" points="900.88,813.28 889.1,820.09 889.1,806.56 900.88,799.75 					"/>
					<polygon class="st1" points="923.03,800.5 911.24,807.3 911.24,793.77 923.03,786.97 					"/>
					<polygon class="st0" points="945.18,787.71 933.39,794.52 933.39,780.99 945.18,774.18 					"/>
					<polygon class="st0" points="967.33,774.92 955.54,781.73 955.54,768.2 967.33,761.39 					"/>
					<polygon class="st0" points="989.47,762.14 977.68,768.94 977.68,755.41 989.47,748.61 					"/>
					<polygon class="st0" points="1011.62,749.35 999.83,756.16 999.83,742.63 1011.62,735.82 					"/>
					<polygon class="st0" points="1033.77,736.56 1021.98,743.37 1021.98,729.84 1033.77,723.04 					"/>
				</g>
				<g>
					<polygon class="st0" points="790.15,901.26 778.36,908.07 778.36,894.54 790.15,887.73 					"/>
					<polygon class="st0" points="812.3,888.47 800.51,895.28 800.51,881.75 812.3,874.95 					"/>
					<polygon class="st1" points="834.44,875.69 822.65,882.49 822.65,868.97 834.44,862.16 					"/>
					<polygon class="st0" points="856.59,862.9 844.8,869.71 844.8,856.18 856.59,849.37 					"/>
					<polygon class="st0" points="878.74,850.11 866.95,856.92 866.95,843.39 878.74,836.59 					"/>
					<polygon class="st0" points="900.88,837.33 889.1,844.13 889.1,830.61 900.88,823.8 					"/>
					<polygon class="st1" points="923.03,824.54 911.24,831.35 911.24,817.82 923.03,811.01 					"/>
					<polygon class="st0" points="945.18,811.75 933.39,818.56 933.39,805.03 945.18,798.23 					"/>
					<polygon class="st0" points="967.33,798.97 955.54,805.77 955.54,792.25 967.33,785.44 					"/>
					<polygon class="st0" points="989.47,786.18 977.68,792.99 977.68,779.46 989.47,772.65 					"/>
					<polygon class="st1" points="1011.62,773.39 999.83,780.2 999.83,766.67 1011.62,759.87 					"/>
					<polygon class="st0" points="1033.77,760.61 1021.98,767.41 1021.98,753.89 1033.77,747.08 					"/>
				</g>
			</g>
			<polygon class="st1" points="354.25,587.21 720.78,800.66 1085.89,587.59 718.97,373.91 			"/>
		</g>
		<g>
			<polygon class="st0" points="422.23,586.79 717.96,759 1017.71,586.56 721.66,414.16 			"/>
		</g>
		<g>
			<radialGradient id="SVGID_4_" cx="718.1055" cy="755.1564" r="169.8741" gradientUnits="userSpaceOnUse">
				<stop  offset="0" style="stop-color:#FFFFFF"/>
				<stop  offset="1" style="stop-color:#000000"/>
			</radialGradient>
			<polygon class="st5" points="571.86,673.33 718.97,759 868.08,673.22 720.81,587.46 			"/>
		</g>
	</g>
	<g>
		<g>
			<linearGradient id="SVGID_5_" gradientUnits="userSpaceOnUse" x1="447.4919" y1="337.7852" x2="894.1091" y2="337.7852">
				<stop  offset="0" style="stop-color:#0562A0"/>
				<stop  offset="1" style="stop-color:#3087C8"/>
			</linearGradient>
			<path class="st6" d="M529.99,507.56c-14.69,6.68-22.96,7.65-34.87,0.85c-11.91-6.8-37.42-12.76-36.57-42.52
				s-10.63-43.8-11.06-74.83c-0.45-33.01,20.41-53.57,27.21-63.78c6.8-10.21,19.56-59.53,41.67-73.13
				c22.11-13.61,55.28-26.36,61.23-35.72c5.95-9.35,66.33-40.82,98.65-49.32c32.31-8.5,145.42-11.91,166.68,9.35
				c21.26,21.26,41.67,4.25,47.62,31.46s21.36,115.47-125.38,190.4C618.43,475.25,548.7,499.06,529.99,507.56z"/>
			<path class="st7" d="M521.48,511.81c-34.64-12.79-20.41-58.68-11.91-68.88c8.5-10.2,21.26-24.66,21.26-24.66s-5.95-5.1-8.5-9.35
				c-2.55-4.25-11.06-8.5-11.06-8.5l19.56,11.06c0,0,6.8,3.4,10.2-5.1c3.4-8.5,11.27-71.65,44.86-86.1
				c20.02-8.62,53.79-22.75,57.19-27.85c3.4-5.1,5.95-20.41,7.65-28.06c1.7-7.65,15.31-29.76,15.31-29.76l-5.95,29.76
				c0,0,23.81-4.25,49.32-22.11c25.51-17.86,40.82-25.51,56.13-29.76c15.31-4.25,41.37-11.92,65.91-15.31
				c32.31-4.46,188.36,43.37-0.43,160.72C642.24,475.25,576.76,532.22,521.48,511.81z"/>
			<path class="st8" d="M598.02,280.51c0,0-24.66-11.91-21.26-23.81c3.4-11.91,4.25-22.11,4.25-22.11s26.36-14.46,32.32-8.5
				c5.95,5.95,19.56-12.76,19.56-12.76s-14.46,0-26.36,0c-6.64,0-19.1,2.65-28.82,4.99c-0.02,0.04-0.07,0.08-0.09,0.12
				c-2.4,3.77-9.24,8.1-17.99,12.82c4.15,5.31,14.76,20.33,4.38,33.1C552.95,277.95,598.02,280.51,598.02,280.51z"/>
			<path class="st7" d="M577.76,272.51c-5.32-1.27-9.21-2.78-10.31-4.2c0.09-0.16,0.24-0.41,0.51-0.75
				c1.51-1.86,2.71-3.81,3.61-5.85C572.33,265.67,574.73,269.32,577.76,272.51z M573.39,249.32c-0.57-5.21-2.68-10.72-6.31-16.38
				c6.87-3.96,11.09-7.1,13.59-10.09c12.09-2.85,21.23-4.42,25.85-4.42h15.1c-2.09,1.96-3.96,3.34-5.1,3.65
				c-1.92-1.69-4.53-2.54-7.79-2.54c-10.59,0-28.2,9.49-30.17,10.57l-2.4,1.32l-0.23,2.73
				C575.92,234.24,575.35,240.79,573.39,249.32z"/>
			<path class="st8" d="M500.22,314.52c-5.88,0.65-13.74-4.2-17.08-6.49c-3.49,8.77-6.26,16-8.43,19.25
				c-1.43,2.14-3.49,4.77-5.83,7.84l34.74-5.29c0,0,1.7,5.95,2.55,15.31c0.85,9.35,19.56,17.01,19.56,17.01s-5.95-11.91-5.95-18.71
				c0-6.8,2.55-26.36,0-35.72c-2.55-9.35-6.59-29.55-6.59-29.55S507.88,313.67,500.22,314.52z"/>
			<path class="st7" d="M515.79,350.55c-2.55-2.04-4.37-4.13-4.53-5.87c-0.88-9.72-2.65-15.99-2.73-16.25l-1.23-4.32
				c0,0-26.51,5.96-24.08-5.76c4.17,2.26,11.4,1.34,15.89,1.34c0.57,0,1.13-0.03,1.68-0.09c3.97-0.44,4.2-3.19,9.22-9.53
				c0.05,0.26,2.48-7.27,2.55-7.02c1.62,5.94,3.1,24.01,2.56,31.98c-0.23,3.42-0.43,6.36-0.43,8.42
				C514.68,345.59,515.13,348.07,515.79,350.55z"/>
			<path class="st8" d="M711.97,177.61c-3.66,1.03-5.1,22.11-5.1,22.11s3.4-13.61,20.41-16.16s30.61-15.31,30.61-15.31
				S733.23,171.66,711.97,177.61z"/>
			<path class="st7" d="M710.66,188.78c0.71-4.42,7.35-7.61,8.11-8.62c12.49-3.48,20.46-6.27,29.49-7.8
				c-5.35,3.48-12.96,7.42-21.36,8.68C719.23,182.19,714.08,185.39,710.66,188.78z"/>
			<path class="st8" d="M560.18,488.85c0,0-63.78,3.83-73.56-5.95c-9.78-9.78-6.38-59.1-6.38-59.1s-3.4,11.48-15.31,6.8
				c-6.59-2.59-11.1-8.85-15.39-18.88c3.37,18.41,9.65,31.88,9.02,54.17c-0.85,29.76,24.66,35.72,36.57,42.52
				c11.91,6.8,20.18,5.83,34.87-0.85c5.2-2.36,14.35-5.91,27.99-11.41L560.18,488.85z"/>
			<g>
				<g>
					<path class="st0" d="M518.75,459.3c-1.05,0-2.07-0.68-3.04-2.03c-8.53-11.82-20.03-17.44-37.3-18.23
						c-4.04-0.43-7.87-3.23-11.11-8.09c-7.24-10.86-11.48-32.2-4.63-55.4c8.7-29.46,30.21-47.78,45.98-48.48
						c0.9-0.03,1.77-0.02,2.6,0.05c1.22,0.11,2.39,0.3,3.58,0.6c4.65,1.42,7.54,3.9,8.6,7.37c1.48,4.8-0.82,11.46-6.3,18.26
						c-4.29,5.3-9.88,11.05-14.95,15.4c-1.16,0.99-2.01,1.92-2.6,2.84c-3.52,5.45,0.51,11.14,6.09,19.02
						c2.73,3.85,5.82,8.22,8.62,13.36c1.72,3.16,3.04,5.93,4.15,8.72c3.28,8.2,5.33,17.36,5.8,25.79c0.51,9.17-0.85,17.13-3.4,19.82
						C520.2,458.96,519.5,459.3,518.75,459.3z M509.62,328.45c-0.3,0-0.6,0.01-0.91,0.02c-15.27,0.67-36.17,18.61-44.7,47.48
						c-6.69,22.64-2.38,43.98,4.45,54.22c3,4.5,6.48,7.09,10.06,7.47c17.7,0.8,29.53,6.61,38.33,18.81
						c1.09,1.52,2.01,1.88,2.96,0.87c1.85-1.95,3.58-8.66,3.02-18.78c-0.46-8.28-2.48-17.28-5.7-25.35
						c-1.09-2.73-2.39-5.45-4.08-8.57c-2.76-5.07-5.82-9.4-8.53-13.22c-5.9-8.33-10.16-14.35-6.12-20.6
						c0.67-1.03,1.61-2.06,2.87-3.14c5.01-4.3,10.53-9.99,14.77-15.22c5.18-6.43,7.38-12.61,6.05-16.96c-0.92-3-3.49-5.16-7.64-6.43
						c-1.08-0.27-2.18-0.45-3.33-0.55C510.64,328.47,510.14,328.45,509.62,328.45z"/>
					<linearGradient id="SVGID_6_" gradientUnits="userSpaceOnUse" x1="462.7869" y1="391.8761" x2="519.225" y2="391.8761">
						<stop  offset="0.0303" style="stop-color:#5E86C4"/>
						<stop  offset="0.378" style="stop-color:#649CCD"/>
						<stop  offset="1" style="stop-color:#71CDE2"/>
					</linearGradient>
					<path class="st9" d="M514.83,451.7c-0.62,0-1.22-0.29-1.78-0.87c-9.68-11.67-19.95-17.13-33.34-17.73
						c-3.73-0.59-7.36-3.48-10.31-8.15c-5.51-8.73-9.75-26.36-3.56-47.3c7.38-24.98,25.39-44.99,41-45.57
						c0.86-0.03,1.64-0.01,2.39,0.08c1.15,0.13,2.22,0.33,3.29,0.63c3.22,1.28,5.13,3.32,5.78,6.09c1.05,4.54-1.62,10.92-7.15,17.06
						c-5.25,5.8-10.53,11.23-13.2,13.96c-0.96,0.97-1.65,1.86-2.1,2.71c-3.03,5.62,0.8,11.13,6.12,18.76
						c2.15,3.09,4.59,6.6,6.83,10.53c1.15,2.01,2.63,4.71,3.95,7.7c3.32,7.56,5.46,15.46,6.18,22.87c0.82,8.37-0.17,15.94-2.4,18.4
						C516.02,451.41,515.45,451.7,514.83,451.7z M507.52,333.46c-0.2,0-0.41,0-0.62,0.01c-13.19,0.49-31.64,17.3-39.7,44.57
						c-6.06,20.49-1.95,37.67,3.4,46.16c2.73,4.32,6.02,6.99,9.26,7.5c13.74,0.62,24.32,6.23,34.24,18.19
						c0.28,0.28,0.83,0.63,1.4,0.01c1.64-1.81,2.91-8.49,2.05-17.32c-0.71-7.26-2.81-15.02-6.07-22.44
						c-1.29-2.93-2.75-5.58-3.88-7.57c-2.21-3.87-4.63-7.35-6.77-10.42c-5.39-7.74-9.64-13.84-6.2-20.23
						c0.52-0.96,1.28-1.95,2.33-3.02c2.67-2.72,7.93-8.14,13.16-13.92c5.22-5.8,7.77-11.71,6.82-15.8c-0.53-2.3-2.16-4.01-4.85-5.08
						c-0.93-0.25-1.93-0.44-3.01-0.56C508.58,333.48,508.06,333.46,507.52,333.46z"/>
				</g>
			</g>
			<path class="st8" d="M544.64,238.96c-9.6,4.84-19.75,9.95-28.26,15.19c-19.61,12.07-31.85,52.2-39.12,68.25
				c6.77,0.24,16.36-0.12,20.62,0.42c5.1,0.64,12.76-1.91,12.76-1.91s1.91-6.38,6.38-17.22c4.46-10.84,4.46-37.63,14.03-47.83
				C537.16,249.32,541.97,242.81,544.64,238.96z"/>
		</g>
		<g>
			<linearGradient id="SVGID_7_" gradientUnits="userSpaceOnUse" x1="513.1326" y1="387.1713" x2="992.1751" y2="387.1713">
				<stop  offset="0" style="stop-color:#0562A0"/>
				<stop  offset="1" style="stop-color:#3087C8"/>
			</linearGradient>
			<path class="st10" d="M529.99,431.88c-28.86,28.86-11.91,57.83-11.91,78.24c0,20.41,18.71,56.13,56.13,61.23
				c37.42,5.1,52.72-10.2,79.94-1.7c27.21,8.5,54.43-13.61,54.43-13.61s39.12,10.2,56.13,6.8c17.01-3.4,13.61-10.2,27.21-10.2
				c13.61,0,54.43-10.2,83.34-39.12c28.91-28.91,44.22-59.53,44.22-59.53s25.51,0,45.92-17.01c20.41-17.01,26.79-70.16,26.79-95.67
				c0-25.51-14.88-42.09-14.88-57.4c0-15.31-11.91-49.32-37.42-51.02c-25.51-1.7-17.01-22.11-57.83-25.51
				c-40.82-3.4-88.44-11.91-95.24,3.4c-6.8,15.31-37.42,8.5-56.13,22.11c-18.71,13.61-56.13,30.61-68.03,51.02
				c-11.91,20.41-35.72,20.41-54.43,28.91c-18.71,8.5-61.23,45.92-57.83,68.03C553.8,402.96,543.59,418.27,529.99,431.88z"/>
			<path class="st8" d="M744.17,562.77c1.43-10.34,4.03-23.87,8.62-33.95c8.5-18.71,30.61-18.71,68.03-44.22
				c24.63-16.79,34.71-51.46,38.72-73.19c0.75-4.08-4.76-6.09-6.81-2.48c-9.29,16.37-23.37,40.75-31.91,53.56
				c-13.61,20.41-45.92,18.71-45.92,18.71s-10.2,23.81-32.31,23.81c-22.11,0-39.12-17.01-39.12-17.01s15.31,34.02,15.31,45.92
				c0,11.91-10.2,22.11-10.2,22.11S727.08,560.86,744.17,562.77z"/>
			<path class="st7" d="M732.38,561.14c-8.35-1.17-16.37-3.39-22.11-4.68c3.09-4.71,21.69-18.43,21.69-25.94
				c0-7.16-12.62-17.06-16.85-27.91c7.31,3.97,16.81,7.5,27.48,7.5c20.25,0,31.55-16.68,35.45-23.79c9.36-0.18,34.66-2.45,47.03-21
				c7.23-10.85,18.3-29.73,27.6-45.97c-4.61,19.66-14.44,47.21-34.72,61.04c-15.36,10.47-28.16,16.59-38.43,21.5
				c-14.9,7.12-25.66,12.26-31.36,24.82C743.99,535.85,733.93,551.6,732.38,561.14z"/>
			<path class="st8" d="M791.91,552.63c0,0-11.48-7.23,2.55-18.71c14.03-11.48,34.44-10.2,44.65-24.24
				c10.2-14.03,15.31-38.27,15.31-38.27s0,39.54-16.58,51.02C821.25,533.92,791.91,552.63,791.91,552.63z"/>
			<path class="st7" d="M792.1,549.48c-0.88-0.89,6.79-9.47,10.89-12.83c5.86-4.8,13.13-7.31,20.17-9.75
				c9.23-3.19,11.85-7.25,18.01-15.72c2.93-4.03,5.44-8.81,7.54-13.64c-2.21,9.22-5.96,18.39-12.33,22.8
				C822.21,530.15,798.4,545.45,792.1,549.48z"/>
			<path class="st8" d="M923.6,453.74c3.18-0.3,7.95-0.98,13.53-2.48c5.57-8.6,13.8-21.93,12.95-24.49
				c-1.28-3.83-2.55-10.2,10.2-35.72c12.76-25.51-11.48-53.57-11.48-53.57s1.28,24.24,2.55,33.17c1.28,8.93-7.65,22.96-24.24,42.09
				c-16.58,19.13-7.65,41.24-7.65,41.24l3.83-0.43L923.6,453.74z"/>
			<path class="st8" d="M895.23,465.04c0,0-3.83-49.75,5.1-59.95c8.93-10.2,26.79-19.13,26.79-19.13s-19.13-8.93-19.13-17.86
				s19.13-31.89,16.58-49.75c-2.55-17.86-3.83-31.89,16.58-20.41c20.41,11.48,28.06,25.51,28.06,25.51s-7.65-34.44-28.06-39.54
				c-20.41-5.1-19.13-29.98-19.13-29.98s-12.76,18.5-10.2,38.91c2.55,20.41-6.38,43.37-17.86,40.82
				c-11.48-2.55-25.51-21.69-25.51-21.69s7.65,29.34,21.69,30.61c14.03,1.28,8.93,17.22,6.38,32.53
				c-2.55,15.31-10.84,5.1-11.48,29.98C884.59,422.1,895.23,465.04,895.23,465.04z"/>
			<path class="st8" d="M978.98,293.69c-1.02-3.36-1.68-6.6-1.68-9.78c0-0.48-0.01-0.98-0.04-1.5c-1.92-1.01-5.35-3.22-11.23-8.07
				c-10.84-8.93-17.22-15.94-17.22-15.94s8.29,24.87,17.86,29.98C970.68,290.52,975.14,292.32,978.98,293.69z"/>
			<path class="st8" d="M654.14,569.64c0,0-33.17-19.13-33.17-31.89s25.51-28.06,25.51-28.06s-33.17-12.76-44.65,6.38
				c-11.48,19.13-19.13,26.79-29.34,22.96c-10.2-3.83-52.3-34.44-52.3-34.44s15.94,38.27,29.98,43.37s47.2,11.48,47.2,11.48
				L654.14,569.64z"/>
			<path class="st8" d="M562.3,481.62c0,0-1.28-52.3,22.96-66.33c24.24-14.03,25.51-48.47,47.2-57.4
				c21.69-8.93,48.47-25.51,48.47-25.51s-20.41,35.72-38.27,42.09c-17.86,6.38-21.69,33.17-21.69,33.17l24.24-3.83
				c0,0-21.69,26.79-38.27,26.79C590.37,430.6,562.3,481.62,562.3,481.62z"/>
			<path class="st8" d="M614.6,467.59c0,0,33.17-3.19,36.99-12.12c3.83-8.93,24.24-33.8,48.47-33.8c24.24,0,65.05-2.55,72.71-19.13
				c7.65-16.58-48.47-22.96-53.57-38.27c-5.1-15.31,49.75-43.37,49.75-43.37s-33.17,26.79-31.89,35.72
				c1.28,8.93,35.72,14.03,48.47,26.79c12.76,12.76,28.06,8.93,28.06,8.93s-26.79,15.31-34.44,24.24c-7.65,8.93-2.55,15.31,0,28.06
				c2.55,12.76-1.28,20.41-1.28,20.41s0-30.61-25.51-31.89c-25.51-1.28-58.68-3.83-67.61,7.65c-8.93,11.48-31.89,30.61-31.89,30.61
				s3.83,1.28,7.65,16.58c3.83,15.31,0,22.96,0,22.96s-8.93-26.79-15.31-31.89C638.84,473.97,614.6,467.59,614.6,467.59z"/>
			<path class="st8" d="M851.86,361.72c-25.51-11.48-28.06-44.65-26.79-53.57c1.28-8.93,12.76-40.82-10.2-57.4
				c-22.96-16.58-28.06-39.97-28.06-39.97l-28.06,11.91c0,0,24.24,15.31,33.17,29.34c8.93,14.03,17.86,19.13-1.28,20.41
				c-19.13,1.28-35.72,0-35.72,0s25.51,20.41,36.99,14.03c11.48-6.38,24.24-8.93,20.41,1.28c-3.83,10.2-7.65,34.44,6.38,49.75
				C832.73,352.79,851.86,361.72,851.86,361.72z"/>
			<path class="st8" d="M651.59,296.66c2.55,10.2,26.79,0,44.65,7.65c17.86,7.65,34.44,8.93,34.44,8.93s0-22.96-22.96-26.79
				C684.76,282.63,651.59,296.66,651.59,296.66z"/>
			<path class="st8" d="M860.79,206.1c6.38,7.65,19.13,25.51,8.93,39.54c-10.21,14.03-14.03,33.17,1.28,40.82
				c15.31,7.65,15.31,7.65,15.31,7.65s-17.86-16.58-10.2-30.61c7.65-14.03,10.2-22.96,12.76-29.34
				C891.4,227.78,860.79,206.1,860.79,206.1z"/>
			<path class="st7" d="M925.42,452.71c0,0-2.55-10.63,3.4-23.39c5.95-12.76,19.56-31.89,23.39-39.54
				c3.83-7.65,6.38-16.16,4.68-19.98c-1.7-3.83-2.55-11.06-2.55-11.06s12.33,7.65,2.13,28.06c-10.2,20.41-19.98,30.61-17.43,35.72
				c2.55,5.1,4.25,6.38,4.25,6.38s-5.1-2.55-6.38,5.53c-1.28,8.08-4.25,16.58-4.25,16.58L925.42,452.71z"/>
			<path class="st7" d="M892.25,406.36c0,0,2.98-11.48,11.91-14.46c8.93-2.98,9.78-5.53,9.78-5.53s-11.91-8.93-10.63-16.16
				c1.28-7.23,9.35-27.64,11.91-35.72c2.55-8.08,1.28-34.44,4.25-42.09c2.98-7.65,6.38-7.65,17.43-2.13
				c11.05,5.53,17.01,13.18,17.01,13.18s-0.85-11.06-14.88-15.73c-14.03-4.68-19.13-15.31-19.13-15.31s-4.68,11.06-4.68,30.61
				c0,19.56,0.85,35.72-8.93,35.72c-9.78,0-23.39-5.95-22.11-5.95c1.28,0,21.69,2.98,20.41,11.91c-1.28,8.93-8.93,32.31-4.68,35.72
				c4.25,3.4,5.95,3.4,0.85,6.38C895.66,389.78,892.25,406.36,892.25,406.36z"/>
			<path class="st7" d="M958.16,272.43c0,0,3.4,8.93,8.5,12.33c5.1,3.4,9.78,5.1,9.78,5.1l0.85-5.95c0,0-5.53,0-9.35-2.13
				C964.11,279.66,958.16,272.43,958.16,272.43z"/>
			<path class="st7" d="M871.42,281.36c0,0-8.93-14.46-3.4-22.96c5.53-8.5,11.91-19.13,11.05-23.81
				c-0.85-4.68-2.98-11.05-2.98-11.05s11.06,6.38,4.68,17.86c-6.38,11.48-12.33,21.26-11.48,23.81
				C870.14,267.75,871.42,281.36,871.42,281.36z"/>
			<path class="st7" d="M781.28,218c0,0,6.38,16.58,14.46,26.36c8.08,9.78,21.26,6.8,22.96,23.81c1.7,17.01-0.43,32.74,0,43.79
				c0.43,11.06,8.93,27.64,8.93,27.64s-17.86-17.01-14.88-25.51c2.98-8.5,4.25-29.76,1.28-35.29c-2.98-5.53-6.8-0.85-13.61,0.85
				c-6.8,1.7-25.94,0-25.94,0s19.98-2.13,24.66-3.83c4.68-1.7,14.88-4.25,11.05-9.78c-3.83-5.53-16.58-17.86-23.81-25.94
				c-7.23-8.08-14.03-18.28-14.03-18.28L781.28,218z"/>
			<path class="st7" d="M663.5,295.81c0,0,26.79-1.7,37.84,5.1c11.06,6.8,24.66,9.35,24.66,9.35s-7.65-13.61-19.56-16.16
				C694.54,291.56,663.5,295.81,663.5,295.81z"/>
			<path class="st7" d="M569.53,461.21c0,0,12.76-33.59,27.64-34.87c14.88-1.28,33.17-14.46,33.17-14.46l-17.01,0.85
				c0,0,0-29.76,14.88-37.42s37.84-28.91,37.84-28.91s-27.64,15.31-39.54,21.26c-11.91,5.95-14.03,34.02-24.66,40.82
				c-10.63,6.8-25.51,17.43-28.49,33.17C570.38,457.39,569.53,461.21,569.53,461.21z"/>
			<path class="st7" d="M534.24,521.17c0,0,13.18,18.28,26.79,22.54c13.61,4.25,36.14,2.98,44.65,7.23
				c8.5,4.25,30.19,12.76,30.19,12.76s-27.64-18.28-23.39-26.79c4.25-8.5,13.18-22.11,13.18-22.11s-13.61,3.83-18.71,12.76
				c-5.1,8.93-6.38,15.31-6.38,15.31s-19.13,1.28-35.72-3.4C548.27,534.77,534.24,521.17,534.24,521.17z"/>
			<path class="st7" d="M636.29,469.72c0,0,18.71-6.38,22.96-14.88c4.25-8.5,21.69-28.91,42.52-29.34
				c20.83-0.43,63.78-5.1,70.58-15.31s9.35-19.13-8.93-25.94c-18.28-6.8-39.54-14.03-38.27-22.96c1.28-8.93,13.18-19.13,13.18-19.13
				s-10.63,18.71-3.83,21.68c6.8,2.98,40.82,17.86,46.77,24.66c5.95,6.8,14.88,6.38,14.88,6.38s-17.01,11.48-22.54,19.56
				c-5.53,8.08,0.43,25.94,0.43,25.94s-0.85-15.31-20.83-15.73c-19.98-0.43-56.98,2.98-72.71,14.03
				c-15.73,11.05-31.89,31.46-31.89,31.46l6.8,17.43c0,0-5.95-14.88-10.63-15.31C640.11,471.84,636.29,469.72,636.29,469.72z"/>
			<path class="st8" d="M919.47,453.99c-3.83-4.68-22.96,17.43-37.63,23.17c-14.67,5.74-5.74-37.63-7.65-59.95
				c-1.91-22.32-14.67-23.6-21.52,2.14c-6.85,25.74-35.88,59.09-53.74,68.02c-17.86,8.93-46.56,21.69-53.57,30.61
				c-5.68,7.23-15.55,24.93-24.52,40.89c12.94,2.73,32.95,6.15,43.87,3.97c17.01-3.4,13.61-10.2,27.21-10.2
				c13.61,0,54.43-10.2,83.34-39.12C904.16,484.6,919.47,453.99,919.47,453.99z"/>
			<path class="st8" d="M933.5,425.5c-3.85,9.34-5.79,19.15-6.26,27.8c9.13-1.32,24.74-5.15,38.15-16.32
				c20.41-17.01,26.79-70.16,26.79-95.67c0-20.21-9.32-34.81-13.2-47.62l0,0c-5.55,3.4,1.72,15.09,3,31.04
				c1.28,15.94-1.28,21.05-5.74,33.17c-4.46,12.12-27.43-20.41-27.43-20.41s12.12,25.51,10.2,38.27
				C957.1,388.51,937.96,414.66,933.5,425.5z"/>
			<path class="st8" d="M640.51,567.13c-12.53-5.63-23.48-13.86-27.83-19.18c-5.74-7.02-26.15-0.85-45.92-5.1
				c-15.79-3.4-36.85-26.98-49.9-44.15c0.7,4.03,1.22,7.85,1.22,11.41c0,20.41,18.71,56.13,56.13,61.23
				C604.94,575.53,620.77,565.98,640.51,567.13z"/>
		</g>
		<g>
			<g>
				<linearGradient id="SVGID_8_" gradientUnits="userSpaceOnUse" x1="541.9996" y1="376.0474" x2="700.1218" y2="376.0474">
					<stop  offset="0.0303" style="stop-color:#50C8EB"/>
					<stop  offset="1" style="stop-color:#71CDE2"/>
				</linearGradient>
				<path class="st11" d="M547.39,450.84c-1.76,0-3.13-0.6-4.05-1.8c-1.63-2.09-1.77-5.91-0.4-11.34c0.85-3.38,2.31-7.56,4.48-12.78
					c1.64-3.94,2.79-10.07,4.13-17.17c2.47-13.06,5.84-30.95,14.67-47.17c4.64-8.57,10.02-15.59,16.43-21.46
					c13.38-12.21,28.87-22.22,44.78-28.94c13.81-5.83,27.28-8.92,38.95-8.92c1.25,0,2.47,0.04,3.66,0.11
					c3.16,0.19,8.34,1.5,13.84,3.49c2.81,1.01,5.13,1.96,7.09,2.89c3.1,1.47,8.41,4.31,9.07,6.83c0.16,0.6,0.06,1.18-0.28,1.66
					l-0.15,0.16c-1.26,0.94-4.87,2.51-10.35,4.89c-8.41,3.66-21.13,9.18-34.19,16.4c-7.43,4.1-14.21,8.33-20.16,12.58
					c-16.68,11.91-27.55,24.44-32.3,37.25c-2.6,6.98-6.58,14.7-12.15,23.62c-8.74,13.98-19.99,26.49-30.87,34.33
					C554.65,448.98,550.43,450.84,547.39,450.84z M666.39,302.66c-11.48,0-24.76,3.05-38.41,8.81
					c-15.77,6.66-31.12,16.58-44.38,28.69c-6.3,5.75-11.58,12.65-16.14,21.09c-8.72,16.02-11.94,33.06-14.53,46.76
					c-1.35,7.18-2.52,13.38-4.22,17.45c-2.14,5.16-3.58,9.28-4.42,12.59c-1.24,4.92-1.19,8.43,0.15,10.14
					c2.02,2.59,7.35,1.11,14.34-3.86c10.73-7.74,21.85-20.1,30.49-33.93c5.53-8.84,9.46-16.48,12.03-23.37
					c4.85-13.07,15.88-25.83,32.8-37.9c5.99-4.27,12.82-8.53,20.29-12.66c13.12-7.25,25.87-12.79,34.31-16.45
					c5.04-2.19,8.72-3.79,9.96-4.65c0.05-0.1,0.07-0.22,0.02-0.42c-0.29-1.1-2.62-3.23-8.32-5.92c-1.91-0.91-4.19-1.84-6.96-2.84
					c-5.38-1.95-10.41-3.23-13.45-3.41C668.8,302.7,667.61,302.66,666.39,302.66z"/>
				<path class="st0" d="M554.02,439.45c-1.62,0-2.89-0.57-3.77-1.69c-1.58-2.01-1.74-5.64-0.48-10.8
					c0.74-3.01,1.91-6.56,3.82-11.52c1.4-3.65,2.44-8.65,3.64-14.44c2.56-12.33,5.74-27.67,14.59-42.58
					c4.5-7.58,9.44-13.76,15.11-18.9c12.11-10.97,25.93-20.03,39.96-26.21c13.54-5.96,26.73-9.02,37.99-8.7
					c2.96,0.08,7.51,1.04,12.46,2.65c2.12,0.69,4.36,1.45,6.4,2.35c2.82,1.24,9.27,4.43,8.35,7.13l-0.08,0.24l-0.21,0.13
					c-1.53,0.94-4.87,2.4-9.51,4.42c-7.8,3.4-19.6,8.54-31.61,15.17c-6.87,3.79-13.14,7.69-18.64,11.59
					c-15.31,10.85-25.53,22.28-30.39,33.96c-3.06,7.29-7.21,14.77-11.25,21.77c-8.1,14.05-17.49,24.85-27.9,32.11
					C559.14,438.34,556.29,439.45,554.02,439.45z M663.42,305.98c-10.6,0-23.37,3.06-35.97,8.6c-13.89,6.12-27.58,15.1-39.58,25.97
					c-5.56,5.04-10.42,11.12-14.85,18.58c-8.73,14.71-11.89,29.93-14.42,42.15c-1.21,5.85-2.26,10.9-3.71,14.66
					c-1.88,4.9-3.04,8.41-3.76,11.35c-1.43,5.87-0.67,8.46,0.23,9.6c1.62,2.07,5.43,1.31,10.35-1.93
					c10.23-7.12,19.48-17.78,27.47-31.65c4.01-6.96,8.14-14.39,11.17-21.61c4.95-11.93,15.34-23.56,30.87-34.57
					c5.55-3.93,11.86-7.86,18.77-11.67c12.08-6.67,23.91-11.82,31.73-15.23c4.3-1.87,7.48-3.26,9.05-4.16
					c-0.15-0.88-2.46-2.93-7.61-5.2c-1.98-0.87-4.18-1.62-6.26-2.3c-4.83-1.57-9.23-2.51-12.06-2.58
					C664.37,305.99,663.9,305.98,663.42,305.98z"/>
				<linearGradient id="SVGID_9_" gradientUnits="userSpaceOnUse" x1="555.8486" y1="368.0973" x2="684.4291" y2="368.0973">
					<stop  offset="0.0303" style="stop-color:#5E86C4"/>
					<stop  offset="0.378" style="stop-color:#649CCD"/>
					<stop  offset="1" style="stop-color:#71CDE2"/>
				</linearGradient>
				<path class="st12" d="M560.52,428.37c-1.39,0-2.55-0.53-3.35-1.55c-1.54-1.95-1.74-5.62-0.56-10.61
					c0.77-3.27,1.97-6.86,3.15-10.26c1.12-3.22,2-7.04,3.01-11.46c2.5-10.93,5.6-24.52,14.65-38.25c4.33-6.55,8.84-11.9,13.79-16.34
					c10.85-9.72,23-17.84,35.14-23.47c11.79-5.47,23.32-8.45,33.36-8.6l0.28,0c2.74,0,6.58,0.64,10.8,1.81
					c2.11,0.58,3.99,1.12,5.71,1.8c1.25,0.5,7.53,3.12,7.87,5.64l0.06,0.48l-0.43,0.23c-1.71,0.91-4.68,2.21-8.43,3.85
					c-7.25,3.17-18.21,7.95-29.29,14.07c-6.29,3.47-12.05,7.04-17.12,10.6c-13.9,9.77-23.48,20.09-28.49,30.69
					c-2.12,4.48-4.53,8.99-7.08,13.77c-1.09,2.03-2.18,4.08-3.25,6.13c-7.36,14.06-15.05,23.28-24.94,29.89
					C563.53,427.85,561.91,428.37,560.52,428.37z M628.34,345.16c5.12-3.59,10.92-7.19,17.25-10.68
					c11.14-6.14,22.13-10.95,29.41-14.12c3.34-1.46,6.05-2.64,7.77-3.51c-0.66-0.91-2.89-2.55-6.79-4.1
					c-1.65-0.66-3.5-1.19-5.56-1.76c-4.1-1.13-7.81-1.76-10.43-1.76l-0.26,0c-9.85,0.15-21.19,3.08-32.8,8.47
					c-12.01,5.58-24.05,13.62-34.79,23.25c-4.86,4.36-9.29,9.62-13.55,16.07c-8.91,13.51-11.99,26.97-14.46,37.79
					c-1.02,4.47-1.9,8.32-3.05,11.61c-1.17,3.35-2.36,6.9-3.11,10.11c-1.06,4.49-0.96,7.84,0.29,9.42c1.18,1.48,3.43,1.32,6.38-0.36
					c9.65-6.45,17.2-15.51,24.44-29.35c1.08-2.06,2.17-4.11,3.26-6.14"/>
			</g>
			<g>
				<linearGradient id="SVGID_10_" gradientUnits="userSpaceOnUse" x1="794.2154" y1="264.1391" x2="866.9495" y2="264.1391">
					<stop  offset="0.0303" style="stop-color:#50C8EB"/>
					<stop  offset="1" style="stop-color:#71CDE2"/>
				</linearGradient>
				<path class="st13" d="M856.67,323.14c-0.97,0-1.92-0.17-2.85-0.5c-6.24-2.26-9.79-10.17-9.49-21.17
					c0.22-7.74-0.93-14.28-3.51-20.01c-3.65-8.14-9.87-13.78-17.07-20.32c-2.31-2.1-4.7-4.26-7.14-6.64
					c-0.52-0.5-1.04-1.01-1.56-1.53c-3.39-3.38-6.63-7.25-9.63-11.51c-8.16-11.51-12.62-24.17-10.84-30.78
					c0.53-1.98,1.6-3.34,3.15-4.05c3.15-1.02,7.41-1.48,13.48-1.48c3.99,0,8.4,0.2,12.66,0.39c2.25,0.1,4.52,0.2,6.76,0.28
					c14.55,0.49,25.91,2.27,28.04,2.63c4.64,1.24,7.33,5.96,8.03,14.05c0.53,6.13,0.14,13.14-1.14,20.27
					c-1.58,8.83-1.07,21.14-0.36,34.04l0.51,8.91c0.55,9.48,1.07,18.43,0.8,25.07c-0.07,1.57-0.3,3.09-0.7,4.52
					c-0.33,1.19-0.79,2.31-1.36,3.31C862.59,321.46,859.68,323.14,856.67,323.14z M811.24,206.55c-5.93,0-10.05,0.44-12.98,1.38
					c-1.08,0.5-1.88,1.56-2.3,3.11c-1.65,6.14,2.82,18.59,10.63,29.6c2.95,4.19,6.13,8,9.46,11.32c0.52,0.51,1.03,1.02,1.54,1.52
					c2.43,2.36,4.81,4.52,7.11,6.61c7.32,6.64,13.63,12.38,17.41,20.78c2.66,5.92,3.85,12.67,3.63,20.62
					c-0.29,10.37,2.91,17.77,8.56,19.82c3.24,1.17,6.84-0.22,8.97-3.44c0.49-0.86,0.91-1.87,1.2-2.94c0.37-1.33,0.58-2.74,0.65-4.21
					c0.26-6.57-0.26-15.49-0.8-24.93l-0.51-8.92c-0.71-12.99-1.22-25.39,0.38-34.37c1.25-7.01,1.65-13.9,1.13-19.9
					c-0.65-7.44-2.98-11.75-6.93-12.8c-2.05-0.34-13.33-2.11-27.79-2.59c-2.24-0.08-4.51-0.18-6.77-0.28
					C819.59,206.74,815.2,206.55,811.24,206.55z"/>
				<path class="st0" d="M855.76,313.88c-1.23,0-2.48-0.36-3.62-1.05c-2.41-1.46-8.02-6.29-8.1-19.64
					c-0.04-6.8-1.31-12.68-3.88-17.96c-3.61-7.44-9.43-12.59-16.18-18.56c-2.01-1.78-4.1-3.63-6.22-5.62
					c-0.48-0.45-0.96-0.9-1.44-1.36c-3.09-2.96-6.13-6.39-9.04-10.19c-7.44-9.73-11.72-20.68-10.65-27.27
					c0.33-1.99,1.13-3.44,2.39-4.3l0.18-0.09c1.63-0.53,3.73-0.78,6.41-0.78c2.93,0,6.26,0.3,9.77,0.61
					c3.93,0.35,7.98,0.71,11.98,0.71l0.84-0.01c10.89-0.13,19.05,1.07,23.82,1.78c0.85,0.13,1.59,0.24,2.23,0.32
					c4.55,1.6,6.52,5.37,6.95,13.03c0.34,5.99,0.1,12.18-0.69,18.4c-1,7.84-0.21,18.36,0.63,29.5l0.67,9.2
					c0.64,8.72,1.24,16.96,1.11,23.13c-0.03,1.37-0.2,2.76-0.5,4.11c-0.26,1.14-0.64,2.18-1.14,3.09
					C859.86,312.84,857.86,313.88,855.76,313.88z M799.74,209.15c-0.89,0.64-1.47,1.75-1.72,3.31c-0.81,5.02,2.08,15.35,10.38,26.19
					c2.87,3.74,5.86,7.11,8.89,10.02c0.48,0.46,0.95,0.91,1.43,1.35c2.11,1.98,4.18,3.82,6.19,5.59c6.86,6.07,12.78,11.31,16.51,19
					c2.67,5.48,3.99,11.55,4.03,18.57c0.08,12.64,5.22,17.11,7.42,18.45c2.48,1.5,5.49,0.88,7.26-1.46c0.37-0.7,0.71-1.62,0.94-2.63
					c0.29-1.27,0.44-2.56,0.47-3.83c0.12-6.1-0.48-14.31-1.11-23l-0.67-9.19c-0.84-11.21-1.64-21.8-0.62-29.79
					c0.78-6.13,1.01-12.24,0.68-18.14c-0.46-8.18-2.68-10.61-5.87-11.75c-0.51-0.05-1.25-0.16-2.11-0.29
					c-4.73-0.7-12.85-1.92-23.6-1.76l-0.86,0.01c-4.06,0-8.15-0.37-12.11-0.72c-3.48-0.31-6.77-0.6-9.65-0.6
					C803.14,208.47,801.22,208.7,799.74,209.15z"/>
				<linearGradient id="SVGID_11_" gradientUnits="userSpaceOnUse" x1="798.6794" y1="256.7771" x2="859.3524" y2="256.7771">
					<stop  offset="0.0303" style="stop-color:#5E86C4"/>
					<stop  offset="0.378" style="stop-color:#649CCD"/>
					<stop  offset="1" style="stop-color:#71CDE2"/>
				</linearGradient>
				<path class="st14" d="M854.62,304.88c-1.47,0-2.91-0.66-4.17-1.91c-2.78-2.75-6.2-8.12-6.7-18.05
					c-0.3-5.91-1.69-11.11-4.26-15.92c-3.62-6.81-9.13-11.53-15.51-16.99c-1.65-1.42-3.36-2.87-5.08-4.42l-1.31-1.19
					c-2.83-2.58-5.67-5.56-8.45-8.86c-9.89-11.76-12.56-24.1-8.86-28.24l0.13-0.14l0.18-0.06c2.77-0.89,7.47-0.27,12.59,0.56
					c3.75,0.61,8,1.3,12.04,1.3l0.59,0c10.08-0.16,16.58,0.66,21.21,1.24c1.05,0.13,1.98,0.25,2.82,0.34l0.23,0.07
					c3.27,1.57,5.43,3.25,5.64,11.94c0.11,4.33,0.18,10.11-0.23,16.51c-0.4,6.22,0.42,14.11,1.28,22.47
					c0.18,1.74,0.37,3.5,0.54,5.28l0.63,6.8c0.72,7.93,1.4,15.41,1.43,21.08c0,1.23-0.11,2.47-0.31,3.71
					c-0.18,1.07-0.48,2.03-0.91,2.86l-0.12,0.17C857.1,304.36,855.89,304.88,854.62,304.88z M801.2,210.38
					c-2.68,3.39-0.61,14.82,9,26.26c2.74,3.26,5.54,6.19,8.32,8.73l1.31,1.18c1.72,1.54,3.41,2.99,5.06,4.4
					c6.49,5.55,12.09,10.35,15.83,17.39c2.67,4.99,4.11,10.39,4.42,16.51c0.48,9.48,3.68,14.55,6.29,17.13
					c1.77,1.76,4.05,1.96,5.49,0.54c0.33-0.68,0.58-1.48,0.72-2.36c0.2-1.16,0.3-2.33,0.3-3.48c-0.03-5.6-0.71-13.06-1.42-20.96
					l-0.63-6.79c-0.17-1.78-0.36-3.54-0.54-5.27c-0.87-8.42-1.7-16.37-1.29-22.71c0.41-6.34,0.34-12.09,0.23-16.38
					c-0.21-8.36-2.2-9.43-4.74-10.66c-0.81-0.08-1.71-0.2-2.72-0.33c-4.59-0.58-11.08-1.37-21.01-1.23l-0.61,0
					c-4.15,0-8.46-0.7-12.26-1.31C808.16,210.28,803.7,209.67,801.2,210.38z"/>
			</g>
			<g>
				<linearGradient id="SVGID_12_" gradientUnits="userSpaceOnUse" x1="603.3398" y1="385.6405" x2="759.8795" y2="385.6405">
					<stop  offset="0.0303" style="stop-color:#53B5DB"/>
					<stop  offset="1" style="stop-color:#6CCAD3"/>
				</linearGradient>
				<path class="st15" d="M623.05,453.46c-0.18,0-0.36,0-0.53-0.01c-10.73-0.79-16.81-3.53-18.63-8.39
					c-3.2-8.54,8.26-21.63,18.6-32.07c6-6.08,13.86-12.63,20.8-18.42c3.59-2.99,6.99-5.82,9.55-8.12c0.86-0.77,1.67-1.5,2.43-2.19
					c10.4-9.46,13.15-23.07,15.25-37.35c0.1-0.72,0.24-1.43,0.37-2.14l0.22-1.16c2.37-13.39,6.4-25.78,19.64-25.78
					c0.98,0,2.02,0.07,3.08,0.21c0.77,0.1,1.52,0.21,2.27,0.36c10.47,2.08,14.78,8.2,18.02,16.76c1.33,3.5,2.37,7.29,3.47,11.3
					c3.58,13.04,7.63,27.82,23.46,37.49c5.49,3.36,10.08,6.68,13.63,9.9c3.02,3.18,4.73,6.33,5.11,9.4c0.3,2.41-0.07,4.27-1.17,5.84
					c-0.79,1.13-1.83,2.08-3.07,2.82c-5.58,3.35-15.87,5.04-30.59,5.04l-1.55-0.01c-6.14,0-12.54,0.81-19.59,2.47
					c-15.94,3.77-31.15,11.26-43.93,18.09c-2.49,1.33-4.95,2.67-7.34,3.97c-7.02,3.82-13.65,7.43-18.7,9.5
					C629.14,452.67,625.72,453.46,623.05,453.46z M690.75,319.22c-12.21,0-15.99,11.83-18.26,24.62c-0.07,0.39-0.14,0.79-0.22,1.18
					c-0.13,0.69-0.26,1.38-0.37,2.08c-2.14,14.55-4.94,28.41-15.69,38.19c-0.77,0.7-1.58,1.43-2.44,2.2
					c-2.58,2.32-5.99,5.15-9.59,8.16c-6.92,5.76-14.75,12.3-20.7,18.32c-9.26,9.36-21.23,22.71-18.28,30.59
					c1.58,4.23,7.44,6.75,17.4,7.48c0.13,0,0.29,0.01,0.45,0.01c2.5,0,5.77-0.76,10.29-2.4c4.95-2.03,11.54-5.62,18.53-9.43
					c2.39-1.3,4.85-2.64,7.35-3.98c12.86-6.87,28.17-14.41,44.27-18.21c7.15-1.68,13.67-2.51,19.92-2.51l1.55,0.01
					c14.46,0,24.51-1.63,29.87-4.84c1.08-0.64,1.96-1.46,2.64-2.42c0.9-1.28,1.18-2.78,0.92-4.86c-0.34-2.73-1.97-5.69-4.7-8.57
					c-3.45-3.12-7.96-6.4-13.38-9.7c-16.3-9.97-20.43-25.03-24.08-38.32c-1.09-3.98-2.12-7.74-3.42-11.17
					c-3.16-8.35-7.11-13.92-16.98-15.88c-0.71-0.14-1.44-0.25-2.17-0.35C692.64,319.29,691.67,319.22,690.75,319.22z"/>
				<path class="st0" d="M629.9,443.59c-0.33,0-0.66-0.01-0.96-0.03c-5.7-1.09-8.89-3.15-9.86-6.3
					c-2.12-6.94,7.39-17.12,18.17-27.81c4.15-4.14,10.73-9.23,16.53-13.73c3.79-2.93,7.37-5.7,9.55-7.67l2.05-1.85
					c8.54-7.66,11.67-15.7,11.99-30.72c0.01-0.58,0.06-1.16,0.11-1.74c0.03-0.35,0.06-0.7,0.08-1.04
					c0.62-10.19,2.72-23.75,13.77-23.75c0.53,0,1.07,0.03,1.63,0.09c0.65,0.07,1.32,0.16,1.99,0.28
					c8.72,1.61,11.88,6.45,14.98,15.39c0.87,2.51,1.62,5.17,2.41,7.99c3.35,11.88,7.15,25.35,21.79,34.3
					c4.68,2.86,8.58,5.69,11.6,8.41l0.11,0.13c1.61,2.44,1.94,4.76,0.97,6.71c-0.16,1.46-0.87,2.76-2.11,3.86
					c-0.92,0.82-1.86,1.42-2.87,1.85c-5.39,2.29-13.73,3.58-27.05,4.17c-5.1,0.22-10.6,1.14-16.81,2.81
					c-13.32,3.6-25.7,9.76-37.1,15.88c-1.59,0.85-3.18,1.72-4.76,2.57c-6.77,3.67-13.16,7.14-17.44,8.71
					C634.87,443.12,632.09,443.59,629.9,443.59z M691.35,330.34c-7.5,0-11.43,7.13-12.36,22.43c-0.02,0.36-0.06,0.72-0.09,1.08
					c-0.05,0.54-0.1,1.08-0.11,1.64c-0.28,13.27-2.41,22.72-12.46,31.74l-2.05,1.85c-2.23,2-5.83,4.79-9.63,7.74
					c-5.77,4.47-12.31,9.54-16.4,13.62c-10.05,9.97-19.71,20.22-17.82,26.41c0.78,2.58,3.71,4.37,8.69,5.33
					c0.2,0.01,0.48,0.02,0.78,0.02c2.03,0,4.77-0.47,8.38-1.42c4.12-1.51,10.47-4.96,17.19-8.61c1.58-0.86,3.18-1.72,4.76-2.58
					c11.47-6.16,23.94-12.36,37.39-16c6.32-1.69,11.91-2.62,17.12-2.85c13.14-0.58,21.34-1.83,26.56-4.06
					c0.88-0.37,1.69-0.9,2.49-1.61c1-0.89,1.56-1.93,1.66-3.08l0.08-0.27c0.8-1.51,0.54-3.3-0.78-5.34
					c-2.93-2.64-6.74-5.39-11.32-8.19c-15.11-9.24-18.99-22.99-22.41-35.12c-0.79-2.8-1.54-5.44-2.39-7.91
					c-2.98-8.61-5.82-12.97-13.91-14.47c-0.64-0.12-1.27-0.19-1.9-0.26C692.32,330.37,691.83,330.34,691.35,330.34z"/>
			</g>
			<g>
				<linearGradient id="SVGID_13_" gradientUnits="userSpaceOnUse" x1="746.4748" y1="496.484" x2="874.9511" y2="496.484">
					<stop  offset="0.0303" style="stop-color:#50C8EB"/>
					<stop  offset="1" style="stop-color:#71CDE2"/>
				</linearGradient>
				<path class="st16" d="M753.31,558.21c-2.75,0-4.7-0.61-5.8-1.82c-0.81-0.9-1.15-2.1-1.01-3.57
					c3.44-12.83,10.14-26.23,19.92-39.95c0.6-0.84,1.21-1.67,1.83-2.51c7.06-9.51,15.69-19.28,27.15-30.77l1.67-1.67
					c1.91-1.92,3.87-3.89,5.89-5.85c8.29-8.07,16.9-15.5,24.88-21.47c15.84-11.84,28.82-17.47,35.85-15.45
					c4.57,1.3,7.7,3.66,9.58,7.2c2.58,4.88,2.19,11.63-1.16,20.05c-0.64,1.62-1.34,3.21-2.08,4.72
					c-6.01,12.49-17.69,27.75-33.75,44.12c-5.18,5.29-11.03,10.54-17.38,15.59c-4.06,3.23-8.31,6.34-12.64,9.25v0l-0.31,0.21
					c-9.7,6.5-19.88,12.01-29.42,15.92c-3.25,1.33-6.41,2.45-9.37,3.35C761.31,557.32,756.65,558.21,753.31,558.21z M860.5,436.15
					c-7.07,0-18.37,5.54-31.82,15.59c-7.94,5.94-16.49,13.32-24.74,21.35c-2.02,1.96-3.97,3.93-5.87,5.84l-1.67,1.68
					c-11.41,11.43-20,21.16-27.02,30.61c-0.61,0.82-1.22,1.65-1.81,2.48c-9.68,13.58-16.3,26.83-19.69,39.39
					c-0.08,0.96,0.13,1.77,0.67,2.37c1.94,2.14,8.3,1.74,18.2-1.22c2.92-0.88,6.03-1.99,9.24-3.3c9.35-3.83,19.32-9.22,28.86-15.58
					v-0.06l0.39-0.2c4.33-2.9,8.65-6.06,12.77-9.34c6.31-5.02,12.11-10.23,17.25-15.48c15.96-16.27,27.54-31.4,33.49-43.75
					c0.73-1.49,1.41-3.05,2.05-4.63c3.19-8.02,3.6-14.37,1.22-18.87c-1.68-3.19-4.54-5.32-8.72-6.51
					C862.47,436.27,861.53,436.15,860.5,436.15z"/>
				<path class="st0" d="M758.54,552c-3.08,0-4.81-0.97-5.3-2.97l-0.05-0.19l0.06-0.18c3.66-12.3,10.04-24.15,19.5-36.22
					c0.58-0.74,1.17-1.47,1.77-2.2c7.94-9.7,17.62-19.07,26.16-27.34c1.34-1.29,2.73-2.71,4.19-4.19c0.89-0.91,1.81-1.84,2.76-2.78
					c7.68-7.67,15.47-14.73,22.54-20.42c14.56-11.72,26.19-17.46,32.39-15.9c4.29,1.08,7.01,3.22,8.57,6.71
					c1.96,4.4,1.23,10.5-2.17,18.14c-0.65,1.46-1.34,2.89-2.05,4.26c-5.89,11.31-16.79,25.14-31.52,40
					c-4.73,4.79-10.08,9.61-15.9,14.33c-3.73,3.02-7.59,5.89-11.5,8.56l-0.31,0.21c-8.86,6.03-18.2,11.09-27.02,14.61
					c-2.96,1.18-5.87,2.17-8.62,2.96C765.72,551.17,761.43,552,758.54,552z M754.65,548.87c0.26,0.84,1.02,1.73,3.89,1.73
					c2.76,0,6.92-0.81,13.09-2.56c2.71-0.77,5.57-1.75,8.49-2.91c8.62-3.45,17.75-8.37,26.44-14.26v-0.06l0.39-0.2
					c3.9-2.65,7.84-5.58,11.63-8.65c5.78-4.69,11.1-9.47,15.79-14.22c14.63-14.76,25.45-28.48,31.28-39.67
					c0.7-1.34,1.38-2.75,2.01-4.18c3.24-7.25,3.97-12.97,2.17-17c-1.39-3.11-3.74-4.94-7.63-5.92c-5.69-1.44-17.05,4.26-31.17,15.64
					c-7.02,5.66-14.78,12.68-22.42,20.32c-0.94,0.94-1.86,1.87-2.76,2.78c-1.47,1.49-2.87,2.91-4.21,4.21
					c-8.51,8.24-18.16,17.57-26.05,27.22c-0.59,0.72-1.18,1.45-1.75,2.18C764.55,525.17,758.27,536.81,754.65,548.87z"/>
			</g>
			<g>
				<linearGradient id="SVGID_14_" gradientUnits="userSpaceOnUse" x1="675.0955" y1="268.8927" x2="820.2615" y2="268.8927">
					<stop  offset="0.0303" style="stop-color:#50C8EB"/>
					<stop  offset="1" style="stop-color:#71CDE2"/>
				</linearGradient>
				<path class="st17" d="M705.31,309.93c-16.47,0-26.19-3.4-28.9-10.11c-1.77-4.38-1.75-9.18,0.06-14.67
					c2.73-8.29,10.02-17.91,20.51-27.07c16.7-14.59,38.06-25.37,57.12-28.84c6.09-1.11,11.87-1.55,17.16-1.34
					c23.87,0.97,36.09,14.59,41.26,22.63c7.08,10.94,8.74,22.64,7.23,29.37c-0.68,3.03-1.99,5.22-3.79,6.34
					c-8.37,3.15-21.03,7.71-35.71,11.63c-6.55,1.74-14.03,3.41-22.86,5.1c-2.34,0.45-4.74,0.93-7.18,1.43
					c-4.48,0.91-9.12,1.84-13.79,2.63c-7.59,1.28-15.18,2.17-22.56,2.63C710.87,309.84,707.99,309.93,705.31,309.93z M768.62,229.25
					c-4.46,0-9.26,0.46-14.27,1.37c-18.82,3.42-39.92,14.08-56.44,28.51c-10.31,9-17.45,18.4-20.1,26.45
					c-1.71,5.17-1.74,9.65-0.1,13.71c2.44,6.04,11.99,9.23,27.6,9.23c2.65,0,5.5-0.09,8.47-0.27c7.33-0.46,14.87-1.34,22.42-2.62
					c4.64-0.78,9.26-1.72,13.74-2.62c2.45-0.5,4.85-0.98,7.2-1.43c8.79-1.68,16.24-3.34,22.77-5.08
					c14.62-3.89,27.23-8.44,35.45-11.52c1.35-0.86,2.45-2.74,3.04-5.4c1.44-6.44-0.18-17.7-7.04-28.3
					c-5.02-7.81-16.9-21.04-40.13-21.98C770.35,229.27,769.49,229.25,768.62,229.25z"/>
				<path class="st0" d="M705.13,302.01c-11.98,0-19.15-2.52-21.31-7.51c-1.77-4.07-1.76-8.27,0.02-13.24
					c2.53-7.07,9.45-15.42,19.47-23.5c15.86-12.79,35.36-21.9,53.51-25c5.44-0.93,10.52-1.31,15.15-1.11
					c21.06,0.88,32.04,12.65,36.71,19.59c8.56,12.72,9.09,27.35,3.81,30.98l-0.27,0.11c-6.15,1.14-12.43,2.71-19.08,4.36
					c-4.39,1.1-8.94,2.23-13.69,3.3c-6.68,1.5-13.81,2.71-21.13,3.91c-3.37,0.55-7.1,1.4-11.04,2.3c-2.63,0.6-5.36,1.22-8.13,1.79
					c-6.63,1.36-13.56,2.44-20.59,3.21C713.61,301.74,709.08,302.01,705.13,302.01z M769.55,233c-3.86,0-8.06,0.38-12.48,1.14
					c-17.92,3.06-37.19,12.07-52.86,24.71c-9.83,7.92-16.59,16.05-19.04,22.88c-1.65,4.61-1.67,8.49-0.06,12.21
					c1.92,4.42,8.65,6.66,20.03,6.66c3.9,0,8.37-0.27,13.28-0.81c6.99-0.77,13.87-1.84,20.46-3.18c2.76-0.57,5.47-1.18,8.1-1.78
					c3.96-0.9,7.71-1.76,11.12-2.32c7.3-1.2,14.41-2.4,21.06-3.9c4.74-1.07,9.27-2.2,13.66-3.29c6.61-1.65,12.86-3.21,19.01-4.35
					c4.11-3.08,4.14-16.42-4.3-28.96c-4.53-6.72-15.17-18.12-35.6-18.97C771.14,233.02,770.35,233,769.55,233z"/>
				<linearGradient id="SVGID_15_" gradientUnits="userSpaceOnUse" x1="689.9001" y1="264.8934" x2="811.5262" y2="264.8934">
					<stop  offset="0.0303" style="stop-color:#5E86C4"/>
					<stop  offset="0.378" style="stop-color:#649CCD"/>
					<stop  offset="1" style="stop-color:#71CDE2"/>
				</linearGradient>
				<path class="st18" d="M705.9,294.44c-8.21,0-13.01-1.72-14.67-5.25c-2.27-4.83-1.2-8.86-0.01-11.82
					c2.31-5.79,9.03-13.05,18.44-19.93c14.7-10.75,32.88-18.47,49.89-21.16c4.76-0.76,9.16-1.05,13.13-0.88l0.16,0.01
					c18.2,0.85,27.86,10.72,32,16.54c7.45,10.46,8.39,22.9,4.2,26.24l-0.19,0.15l-0.24,0c-9.04,0.06-17.15,1.51-25.73,3.03
					c-1.39,0.25-2.8,0.5-4.23,0.75c-4.61,0.8-9.42,1.42-14.99,2.15l-4.41,0.57c-3.19,0.42-7.21,1.48-11.46,2.6
					c-1.9,0.5-3.88,1.02-5.9,1.52c-5.71,1.4-11.97,2.67-18.61,3.78C716.41,293.86,710.56,294.44,705.9,294.44z M770.44,236.75
					c-3.27,0-6.86,0.31-10.66,0.91c-16.8,2.66-34.76,10.28-49.29,20.9c-9.2,6.73-15.76,13.77-17.97,19.32
					c-1.14,2.87-2.05,6.39-0.02,10.71c2.23,4.75,12.65,5.72,30.55,2.74c6.6-1.09,12.83-2.36,18.5-3.75c2.02-0.5,3.99-1.01,5.88-1.51
					c4.29-1.13,8.35-2.19,11.63-2.63l4.41-0.57c5.56-0.72,10.36-1.34,14.94-2.14c1.43-0.25,2.84-0.5,4.22-0.75
					c8.57-1.52,16.67-2.96,25.71-3.05c3.11-2.89,2.58-14.04-4.64-24.17c-4.02-5.63-13.39-15.19-31.07-15.96l-0.15-0.01
					C771.79,236.77,771.12,236.75,770.44,236.75z"/>
			</g>
			<g>
				<linearGradient id="SVGID_16_" gradientUnits="userSpaceOnUse" x1="520.2156" y1="494.8341" x2="655.8335" y2="494.8341">
					<stop  offset="0.0303" style="stop-color:#50C8EB"/>
					<stop  offset="1" style="stop-color:#71CDE2"/>
				</linearGradient>
				<path class="st19" d="M589,559.2c-5.24,0-10.86-0.97-16.72-2.88c-25.34-8.27-41.08-22.29-48.11-42.84
					c-3.04-8.83-4.34-18.56-3.85-28.92c0.51-10.83,3.06-21.81,7.18-30.93c3.37-8.07,7.32-16.83,11.01-20.4
					c1.61-1.37,3.22-2.2,4.67-2.42c12.85-1.95,20.94,4.66,24.68,20.19c1.47,6.08,2.11,12.48,2.68,18.12
					c0.17,1.73,0.34,3.37,0.52,4.88c0.32,2.79,0.63,4.65,1.02,6.05c1.85,6.71,8.79,10.4,19.55,10.4c6.45,0,14.08-1.3,22.67-3.87
					c2.9-0.87,6.5-1.94,10.13-3.34c11.03-4.24,20.53-2.7,26.34,4.07c3.83,4.46,5.74,11.03,4.86,16.75
					c-0.79,5.13-3.89,8.93-8.74,10.71c-4.56,1.67-8.93,7.65-14,14.58C623.16,542.65,611.06,559.2,589,559.2z M547.3,431.88
					c-1.25,0-2.57,0.1-3.93,0.31c-1.2,0.18-2.56,0.9-3.93,2.07c-3.49,3.39-7.54,12.43-10.67,19.93c-4.05,8.97-6.55,19.77-7.06,30.43
					c-0.48,10.18,0.8,19.74,3.78,28.4c6.89,20.11,22.33,33.84,47.22,41.96c5.72,1.87,11.2,2.81,16.29,2.81
					c21.35,0,33.21-16.23,42.75-29.28c5.2-7.12,9.69-13.26,14.65-15.07c4.35-1.59,7.13-5,7.84-9.6c0.81-5.33-0.97-11.47-4.54-15.63
					c-5.42-6.32-14.31-7.69-24.77-3.68c-3.68,1.41-7.31,2.5-10.23,3.37c-8.72,2.61-16.48,3.93-23.07,3.93
					c-11.45,0-18.88-4.06-20.91-11.43c-0.41-1.47-0.74-3.4-1.06-6.26c-0.18-1.52-0.34-3.17-0.52-4.9
					c-0.57-5.6-1.21-11.94-2.65-17.93C563.33,438.24,557.06,431.88,547.3,431.88z"/>
				<path class="st0" d="M587.52,552.83c-4.62,0-9.55-0.84-14.65-2.51c-30.97-10.11-40.06-27.26-44.2-39.28
					c-2.85-8.15-4.18-17.08-3.97-26.51c0.23-10.55,2.51-20.63,6.41-28.4c0.74-1.75,1.52-3.78,2.31-5.84
					c2.1-5.47,4.26-11.13,6.46-13.24c1.33-0.93,2.53-1.13,3.49-1.3l0.55-0.1c1.09-0.22,2.17-0.33,3.2-0.33
					c10.55,0,15.3,11.33,17.42,20.83c1.19,5.3,1.78,10.8,2.31,15.66c0.21,1.94,0.41,3.77,0.63,5.45c0.32,2.44,0.66,4.17,1.05,5.47
					c2.13,7,9.85,10.85,21.74,10.85c4.81,0,10.25-0.63,16.17-1.87l1.92-0.39c2.38-0.48,4.85-0.98,7.35-1.72
					c3.28-0.98,6.46-1.47,9.43-1.47c7.85,0,12.83,3.37,15.62,6.19c3.45,3.49,5.56,8.23,5.5,12.36c-0.03,2.76-1.4,6.68-7.73,9.68
					c-3.93,1.87-7.81,6.59-12.29,12.07C617.36,539.29,606.28,552.83,587.52,552.83z M547.13,436.72c-0.94,0-1.92,0.1-2.93,0.3
					l-0.59,0.11c-0.91,0.16-1.86,0.32-2.85,1c-1.88,1.82-3.99,7.33-6.03,12.66c-0.8,2.08-1.58,4.13-2.35,5.93
					c-3.83,7.62-6.05,17.49-6.28,27.84c-0.2,9.27,1.11,18.02,3.9,26.02c4.04,11.74,12.93,28.49,43.3,38.4
					c4.96,1.62,9.75,2.44,14.21,2.44c18.09,0,28.94-13.25,37.66-23.9c4.59-5.6,8.55-10.45,12.77-12.45c4.56-2.16,6.89-5,6.93-8.43
					c0.04-2.96-1.28-7.49-5.1-11.36c-2.6-2.64-7.25-5.78-14.62-5.78c-2.84,0-5.87,0.48-9.03,1.41c-2.57,0.76-5.06,1.27-7.47,1.76
					l-1.91,0.39c-6.01,1.26-11.55,1.9-16.46,1.9c-12.56,0-20.75-4.2-23.08-11.84c-0.42-1.37-0.77-3.19-1.11-5.7
					c-0.22-1.69-0.42-3.53-0.63-5.48c-0.52-4.82-1.11-10.28-2.28-15.5C561.17,447.45,556.76,436.72,547.13,436.72z"/>
			</g>
			<g>
				<linearGradient id="SVGID_17_" gradientUnits="userSpaceOnUse" x1="717.2587" y1="338.0015" x2="922.3239" y2="338.0015">
					<stop  offset="0.0303" style="stop-color:#50C8EB"/>
					<stop  offset="1" style="stop-color:#71CDE2"/>
				</linearGradient>
				<path class="st20" d="M822.36,412.14c-10.05,0-20.09-1.92-29.84-5.69c-14.78-5.73-28.69-15.56-41.34-29.22
					c-14.3-15.44-25.35-32.81-30.31-47.65c-2.68-7.36-4.99-17.24-2.63-20.8c8.64-12.02,29.24-7.67,60.47,12.69
					c11.54,7.53,22.22,15.71,30.02,21.68l2.2,1.69c3.57,2.74,6.39,4.91,7.96,5.96c0.96,0.64,2.09,0.96,3.37,0.96
					c12.38,0,37.05-29.05,55.02-57.75c7.46-11.92,14.65-20.48,21.34-25.44c8.34-6.18,15.61-6.22,19.8-0.34
					c5.75,8.07,5.12,25.23-1.63,44.79c-0.94,2.7-1.82,6.57-2.85,11.06c-3.19,13.94-8.02,35.02-21.32,52.89
					c-9.52,12.56-20.57,21.28-34.78,27.45C846,409.54,834.07,412.14,822.36,412.14z M732.62,303.5c-5.88,0-10.33,2.04-13.22,6.07
					c-1.61,2.43-0.44,10.66,2.8,19.54c4.91,14.68,15.85,31.86,30.02,47.16c12.51,13.51,26.24,23.22,40.82,28.87
					c20.77,8.05,42.6,7.37,64.24-2.02c13.98-6.06,24.85-14.64,34.22-27c13.12-17.64,17.91-38.54,21.07-52.36
					c1.03-4.52,1.93-8.43,2.89-11.21c6.51-18.85,7.22-35.93,1.82-43.52c-3.76-5.28-10.13-5.04-17.82,0.66
					c-6.55,4.86-13.62,13.29-20.99,25.05c-17.61,28.13-42.72,58.41-56.21,58.41c-1.56,0-2.96-0.4-4.15-1.2
					c-1.61-1.07-4.45-3.25-8.04-6.01l-2.2-1.69c-7.78-5.96-18.43-14.12-29.93-21.62C758.47,309.94,743.22,303.5,732.62,303.5z"/>
				<path class="st0" d="M823.11,406.65c-8.36,0-16.71-1.43-24.82-4.24c-13.47-4.68-26.03-13.04-37.32-24.87
					c-14.51-15.18-23.7-29.18-27.32-41.6c-2.52-7.02-4.11-15.86-2.39-18.45c7.73-9.57,25.53-5.12,51.95,12.49
					c8.61,5.74,16.6,11.85,23.02,16.76l3.46,2.64c3.68,2.81,6.49,4.95,8.09,5.98c1.02,0.66,2.22,0.99,3.58,0.99
					c11.75,0,33.2-24.19,48.16-46.66c6.58-9.88,12.89-17.15,18.78-21.59c7.89-5.95,14.38-6.38,18.11-1.44
					c4.49,5.94,4.47,19.05-0.06,35.09c-0.53,1.86-1.07,4.32-1.69,7.18c-2.57,11.71-6.87,31.3-18.77,47.1
					c-6.5,8.3-14.58,16.87-29.57,23.37C845.2,404.21,834.03,406.65,823.11,406.65z M742.74,313.96c-4.54,0-8.03,1.47-10.37,4.36
					c-1.21,1.84-0.02,9.89,2.6,17.19c3.57,12.24,12.65,26.04,27,41.06c11.14,11.66,23.51,19.91,36.77,24.51
					c18.39,6.38,37.74,5.39,56.99-2.97c14.71-6.38,22.63-14.79,29.01-22.93c11.7-15.54,15.96-34.95,18.51-46.55
					c0.63-2.88,1.18-5.37,1.71-7.26c4.42-15.61,4.53-28.27,0.3-33.86c-3.27-4.33-8.98-3.69-16.15,1.71
					c-5.75,4.35-11.96,11.5-18.45,21.25c-15.67,23.54-37,47.29-49.33,47.29c-1.63,0-3.09-0.41-4.34-1.22
					c-1.64-1.06-4.47-3.22-8.04-5.94l-3.59-2.74c-6.41-4.9-14.37-10.99-22.94-16.7C765.56,319.9,751.84,313.96,742.74,313.96z"/>
			</g>
		</g>
	</g>
	<radialGradient id="SVGID_18_" cx="683.9852" cy="640.4551" r="21.7787" gradientUnits="userSpaceOnUse">
		<stop  offset="0.0859" style="stop-color:#21AED3"/>
		<stop  offset="0.1079" style="stop-color:#28638E"/>
		<stop  offset="0.1263" style="stop-color:#252F67"/>
		<stop  offset="0.1524" style="stop-color:#252D5C"/>
		<stop  offset="0.1994" style="stop-color:#24294A"/>
		<stop  offset="0.252" style="stop-color:#20243A"/>
		<stop  offset="0.3099" style="stop-color:#1B1E2C"/>
		<stop  offset="0.3749" style="stop-color:#161720"/>
		<stop  offset="0.4503" style="stop-color:#0E1015"/>
		<stop  offset="0.5425" style="stop-color:#07080B"/>
		<stop  offset="0.6698" style="stop-color:#020303"/>
		<stop  offset="1" style="stop-color:#010101"/>
	</radialGradient>
	<circle class="st21" cx="683.99" cy="640.46" r="21.78"/>
</g>
</svg>
