<svg xmlns="http://www.w3.org/2000/svg" xmlns:xlink="http://www.w3.org/1999/xlink" viewBox="0 0 458.4 226.74"><defs><style>.cls-1{fill:#c8dbe9;}.cls-2{fill:#a9cded;}.cls-3{isolation:isolate;}.cls-4{fill:#fffefe;}.cls-5{fill:#13426f;}.cls-100,.cls-15,.cls-17,.cls-20,.cls-21,.cls-22,.cls-24,.cls-25,.cls-30,.cls-32,.cls-33,.cls-36,.cls-37,.cls-38,.cls-39,.cls-41,.cls-42,.cls-43,.cls-44,.cls-46,.cls-57,.cls-59,.cls-6,.cls-68,.cls-71,.cls-72,.cls-73,.cls-74,.cls-86,.cls-89,.cls-90,.cls-91,.cls-92,.cls-93,.cls-95,.cls-96,.cls-97,.cls-99{mix-blend-mode:color-burn;}.cls-6{fill:url(#linear-gradient);}.cls-7{fill:#0797c9;}.cls-8{fill:url(#linear-gradient-2);}.cls-9{fill:url(#linear-gradient-3);}.cls-10,.cls-11{fill:#fff;}.cls-10,.cls-18{opacity:0.1;}.cls-10{mix-blend-mode:screen;}.cls-12{fill:url(#linear-gradient-4);}.cls-13{fill:#fac8c9;}.cls-14{fill:url(#linear-gradient-5);}.cls-15{fill:url(#linear-gradient-6);}.cls-16{fill:#140f15;}.cls-17{fill:url(#linear-gradient-7);}.cls-105,.cls-18,.cls-26,.cls-28,.cls-50,.cls-51,.cls-54,.cls-63{mix-blend-mode:multiply;}.cls-19{fill:#617080;}.cls-20{fill:url(#linear-gradient-8);}.cls-21{fill:url(#linear-gradient-9);}.cls-22{fill:url(#linear-gradient-10);}.cls-23{fill:url(#linear-gradient-11);}.cls-24{fill:url(#linear-gradient-12);}.cls-25{fill:url(#linear-gradient-13);}.cls-26,.cls-59,.cls-63{opacity:0.15;}.cls-27,.cls-30,.cls-59,.cls-63{fill:#ce3938;}.cls-28,.cls-54{opacity:0.25;}.cls-29,.cls-54{fill:#bc2626;}.cls-30{opacity:0.12;}.cls-31{fill:url(#linear-gradient-14);}.cls-32{fill:url(#linear-gradient-15);}.cls-33{fill:url(#linear-gradient-16);}.cls-34{fill:url(#linear-gradient-17);}.cls-35{fill:url(#linear-gradient-18);}.cls-36{fill:url(#linear-gradient-19);}.cls-37{fill:url(#linear-gradient-20);}.cls-38{fill:url(#linear-gradient-21);}.cls-39{fill:url(#linear-gradient-22);}.cls-40{fill:url(#linear-gradient-23);}.cls-41{fill:url(#linear-gradient-24);}.cls-42{fill:url(#linear-gradient-25);}.cls-43{fill:url(#linear-gradient-26);}.cls-44{fill:url(#linear-gradient-27);}.cls-45{fill:url(#linear-gradient-28);}.cls-46{fill:url(#linear-gradient-29);}.cls-47{fill:url(#linear-gradient-30);}.cls-48{fill:url(#linear-gradient-31);}.cls-49{fill:url(#linear-gradient-32);}.cls-50{fill:url(#linear-gradient-33);}.cls-51{fill:url(#linear-gradient-34);}.cls-52{fill:url(#linear-gradient-35);}.cls-53{fill:url(#linear-gradient-36);}.cls-55{fill:url(#linear-gradient-37);}.cls-56{fill:url(#linear-gradient-38);}.cls-57{opacity:0.5;fill:url(#linear-gradient-39);}.cls-58{fill:url(#linear-gradient-40);}.cls-60{fill:url(#linear-gradient-41);}.cls-61{fill:url(#linear-gradient-42);}.cls-62{fill:url(#linear-gradient-43);}.cls-64{fill:url(#linear-gradient-44);}.cls-65{fill:url(#linear-gradient-45);}.cls-66{fill:url(#linear-gradient-46);}.cls-67{fill:url(#linear-gradient-47);}.cls-68{fill:url(#linear-gradient-48);}.cls-69{fill:url(#linear-gradient-49);}.cls-70{fill:url(#linear-gradient-50);}.cls-71{fill:url(#linear-gradient-51);}.cls-72{fill:url(#linear-gradient-52);}.cls-73{fill:url(#linear-gradient-53);}.cls-74{fill:url(#linear-gradient-54);}.cls-75{fill:url(#linear-gradient-55);}.cls-76{fill:url(#linear-gradient-56);}.cls-77{fill:url(#linear-gradient-57);}.cls-78{fill:url(#linear-gradient-58);}.cls-79{fill:url(#linear-gradient-59);}.cls-80{fill:url(#linear-gradient-60);}.cls-81{fill:url(#linear-gradient-61);}.cls-82{fill:url(#linear-gradient-62);}.cls-83{fill:url(#linear-gradient-63);}.cls-84{fill:url(#linear-gradient-64);}.cls-85{fill:url(#linear-gradient-65);}.cls-86{fill:url(#linear-gradient-66);}.cls-87{fill:url(#linear-gradient-67);}.cls-88{fill:url(#linear-gradient-68);}.cls-89{fill:url(#linear-gradient-69);}.cls-90{fill:url(#linear-gradient-70);}.cls-91{fill:url(#linear-gradient-71);}.cls-92{fill:url(#linear-gradient-72);}.cls-93{fill:url(#linear-gradient-73);}.cls-94{fill:url(#linear-gradient-74);}.cls-95{fill:url(#linear-gradient-75);}.cls-96{fill:url(#linear-gradient-76);}.cls-97{fill:url(#linear-gradient-77);}.cls-98{fill:url(#linear-gradient-78);}.cls-99{fill:url(#linear-gradient-79);}.cls-100{fill:url(#linear-gradient-80);}.cls-101{fill:url(#linear-gradient-81);}.cls-102{fill:url(#linear-gradient-82);}.cls-103{fill:url(#linear-gradient-83);}.cls-104{fill:url(#linear-gradient-84);}.cls-106{fill:url(#linear-gradient-85);}.cls-107{fill:url(#linear-gradient-86);}.cls-108{fill:url(#linear-gradient-87);}.cls-109{fill:url(#linear-gradient-88);}.cls-110{fill:url(#linear-gradient-89);}.cls-111{fill:url(#linear-gradient-90);}.cls-112{fill:url(#linear-gradient-91);}.cls-113{fill:url(#linear-gradient-92);}.cls-114{fill:url(#linear-gradient-93);}.cls-115{fill:url(#linear-gradient-94);}.cls-116{fill:url(#linear-gradient-95);}.cls-117{fill:#cd842a;}.cls-118{fill:#c6812a;}.cls-119{fill:#895f25;}.cls-120{fill:url(#linear-gradient-96);}.cls-121{fill:url(#linear-gradient-97);}.cls-122{fill:url(#linear-gradient-98);}.cls-123{fill:url(#linear-gradient-99);}.cls-124{fill:url(#linear-gradient-100);}.cls-125{fill:url(#linear-gradient-101);}.cls-126{fill:url(#linear-gradient-102);}.cls-127{fill:url(#linear-gradient-103);}.cls-128{clip-path:url(#clip-path);}.cls-129{clip-path:url(#clip-path-2);}.cls-130{clip-path:url(#clip-path-3);}.cls-131{clip-path:url(#clip-path-4);}.cls-132{clip-path:url(#clip-path-5);}.cls-133{clip-path:url(#clip-path-6);}.cls-134{fill:url(#linear-gradient-104);}.cls-135{fill:url(#linear-gradient-105);}</style><linearGradient id="linear-gradient" x1="234.32" y1="91.65" x2="374.34" y2="91.65" gradientUnits="userSpaceOnUse"><stop offset="0.01" stop-color="#eae8ee"/><stop offset="0.99" stop-color="#e4e3eb"/></linearGradient><linearGradient id="linear-gradient-2" x1="165.51" y1="134.58" x2="231.43" y2="134.58" gradientUnits="userSpaceOnUse"><stop offset="0" stop-color="#0562a0"/><stop offset="1" stop-color="#3087c8"/></linearGradient><linearGradient id="linear-gradient-3" x1="169.79" y1="168.82" x2="269.36" y2="168.82" xlink:href="#linear-gradient-2"/><linearGradient id="linear-gradient-4" x1="173.04" y1="156.2" x2="196.71" y2="156.2" xlink:href="#linear-gradient-2"/><linearGradient id="linear-gradient-5" x1="240.99" y1="129.07" x2="244.35" y2="129.07" xlink:href="#linear-gradient-2"/><linearGradient id="linear-gradient-6" x1="244.3" y1="131.43" x2="238.11" y2="130.52" xlink:href="#linear-gradient"/><linearGradient id="linear-gradient-7" x1="235.15" y1="169.75" x2="239.3" y2="169.75" xlink:href="#linear-gradient"/><linearGradient id="linear-gradient-8" x1="222.86" y1="175.05" x2="231.13" y2="175.05" xlink:href="#linear-gradient"/><linearGradient id="linear-gradient-9" x1="236.21" y1="159.51" x2="238.88" y2="159.51" xlink:href="#linear-gradient"/><linearGradient id="linear-gradient-10" x1="227.99" y1="158.56" x2="233.03" y2="158.56" xlink:href="#linear-gradient"/><linearGradient id="linear-gradient-11" x1="228.47" y1="133.6" x2="242.39" y2="133.6" xlink:href="#linear-gradient-2"/><linearGradient id="linear-gradient-12" x1="228.47" y1="134.04" x2="235.42" y2="134.04" xlink:href="#linear-gradient"/><linearGradient id="linear-gradient-13" x1="237.24" y1="122.69" x2="241.34" y2="122.69" xlink:href="#linear-gradient"/><linearGradient id="linear-gradient-14" x1="210.76" y1="130.37" x2="231.3" y2="130.37" xlink:href="#linear-gradient-2"/><linearGradient id="linear-gradient-15" x1="210.76" y1="132.03" x2="220.69" y2="132.03" xlink:href="#linear-gradient"/><linearGradient id="linear-gradient-16" x1="221.05" y1="128.41" x2="230.49" y2="128.41" xlink:href="#linear-gradient"/><linearGradient id="linear-gradient-17" x1="260.11" y1="86.75" x2="358.06" y2="86.75" xlink:href="#linear-gradient-2"/><linearGradient id="linear-gradient-18" x1="297.42" y1="53.07" x2="362.28" y2="53.07" xlink:href="#linear-gradient-2"/><linearGradient id="linear-gradient-19" x1="441.18" y1="120.95" x2="448.65" y2="120.95" gradientTransform="matrix(-1, 0, 0, 1, 754.88, 0)" xlink:href="#linear-gradient"/><linearGradient id="linear-gradient-20" x1="450.11" y1="114.5" x2="458.21" y2="114.5" gradientTransform="matrix(-1, 0, 0, 1, 754.88, 0)" xlink:href="#linear-gradient"/><linearGradient id="linear-gradient-21" x1="448.48" y1="111.64" x2="426.68" y2="97.25" gradientTransform="matrix(-1, 0, 0, 1, 754.88, 0)" xlink:href="#linear-gradient"/><linearGradient id="linear-gradient-22" x1="455.01" y1="108.02" x2="439.24" y2="97.61" gradientTransform="matrix(-1, 0, 0, 1, 754.88, 0)" xlink:href="#linear-gradient"/><linearGradient id="linear-gradient-23" x1="295.11" y1="97.73" x2="319.63" y2="97.73" xlink:href="#linear-gradient-2"/><linearGradient id="linear-gradient-24" x1="448.96" y1="77.85" x2="439.88" y2="86.23" gradientTransform="matrix(-1, 0, 0, 1, 754.88, 0)" xlink:href="#linear-gradient"/><linearGradient id="linear-gradient-25" x1="435.45" y1="81.68" x2="428.18" y2="88.77" gradientTransform="matrix(-1, 0, 0, 1, 754.88, 0)" xlink:href="#linear-gradient"/><linearGradient id="linear-gradient-26" x1="442.38" y1="74.24" x2="429.73" y2="73.19" gradientTransform="matrix(-1, 0, 0, 1, 754.88, 0)" xlink:href="#linear-gradient"/><linearGradient id="linear-gradient-27" x1="436.82" y1="85.94" x2="426.55" y2="89.74" gradientTransform="matrix(-1, 0, 0, 1, 754.88, 0)" xlink:href="#linear-gradient"/><linearGradient id="linear-gradient-28" x1="292.74" y1="90.94" x2="307.26" y2="90.94" xlink:href="#linear-gradient-2"/><linearGradient id="linear-gradient-29" x1="432.44" y1="67.87" x2="442" y2="67.87" gradientTransform="matrix(-1, 0, 0, 1, 754.88, 0)" xlink:href="#linear-gradient"/><linearGradient id="linear-gradient-30" x1="85.79" y1="63.75" x2="190.65" y2="63.75" xlink:href="#linear-gradient-2"/><linearGradient id="linear-gradient-31" x1="85.79" y1="72.88" x2="142.33" y2="72.88" xlink:href="#linear-gradient-2"/><linearGradient id="linear-gradient-32" x1="85.77" y1="58.42" x2="190.63" y2="58.42" xlink:href="#linear-gradient-2"/><linearGradient id="linear-gradient-33" x1="-3580.46" y1="95.01" x2="-3573.09" y2="95.01" gradientTransform="translate(3747)" xlink:href="#linear-gradient"/><linearGradient id="linear-gradient-34" x1="-3571.65" y1="88.65" x2="-3563.67" y2="88.65" gradientTransform="translate(3747)" xlink:href="#linear-gradient"/><linearGradient id="linear-gradient-35" x1="160.71" y1="72.12" x2="184.87" y2="72.12" xlink:href="#linear-gradient-2"/><linearGradient id="linear-gradient-36" x1="166.31" y1="56.61" x2="175.11" y2="56.61" xlink:href="#linear-gradient-2"/><linearGradient id="linear-gradient-37" x1="171.71" y1="66.25" x2="175.38" y2="66.25" xlink:href="#linear-gradient-2"/><linearGradient id="linear-gradient-38" x1="153.96" y1="56" x2="169.32" y2="56" xlink:href="#linear-gradient-2"/><linearGradient id="linear-gradient-39" x1="167.12" y1="56.32" x2="154.07" y2="55.24" xlink:href="#linear-gradient"/><linearGradient id="linear-gradient-40" x1="152.57" y1="61.31" x2="167.68" y2="61.31" xlink:href="#linear-gradient-2"/><linearGradient id="linear-gradient-41" x1="172.9" y1="65.43" x2="187.22" y2="65.43" xlink:href="#linear-gradient-2"/><linearGradient id="linear-gradient-42" x1="152.57" y1="61.31" x2="165.17" y2="61.31" xlink:href="#linear-gradient-2"/><linearGradient id="linear-gradient-43" x1="164.59" y1="69.42" x2="168.25" y2="69.42" xlink:href="#linear-gradient-2"/><linearGradient id="linear-gradient-44" x1="30.25" y1="114.7" x2="71.81" y2="114.7" xlink:href="#linear-gradient-2"/><linearGradient id="linear-gradient-45" x1="30.25" y1="81.2" x2="68.95" y2="81.2" xlink:href="#linear-gradient-2"/><linearGradient id="linear-gradient-46" x1="29.3" y1="116" x2="67.62" y2="116" xlink:href="#linear-gradient-2"/><linearGradient id="linear-gradient-47" x1="26.71" y1="154.63" x2="31.88" y2="154.63" xlink:href="#linear-gradient-2"/><linearGradient id="linear-gradient-48" x1="30.79" y1="176.54" x2="32.64" y2="176.54" xlink:href="#linear-gradient"/><linearGradient id="linear-gradient-49" x1="30.68" y1="154.48" x2="44.24" y2="154.48" xlink:href="#linear-gradient-2"/><linearGradient id="linear-gradient-50" x1="40.41" y1="146.67" x2="59.47" y2="146.67" xlink:href="#linear-gradient-2"/><linearGradient id="linear-gradient-51" x1="26.71" y1="154.62" x2="36.84" y2="154.62" xlink:href="#linear-gradient"/><linearGradient id="linear-gradient-52" x1="50.93" y1="143.83" x2="57.73" y2="143.83" xlink:href="#linear-gradient"/><linearGradient id="linear-gradient-53" x1="40.52" y1="152.37" x2="53" y2="152.37" xlink:href="#linear-gradient"/><linearGradient id="linear-gradient-54" x1="36.58" y1="184.64" x2="40.86" y2="184.64" gradientTransform="translate(0.91 -1.68) rotate(0.25)" xlink:href="#linear-gradient"/><linearGradient id="linear-gradient-55" x1="379.2" y1="136.28" x2="420.76" y2="136.28" xlink:href="#linear-gradient-2"/><linearGradient id="linear-gradient-56" x1="382.06" y1="102.78" x2="420.76" y2="102.78" xlink:href="#linear-gradient-2"/><linearGradient id="linear-gradient-57" x1="383.39" y1="137.58" x2="421.72" y2="137.58" xlink:href="#linear-gradient-2"/><linearGradient id="linear-gradient-58" x1="404.75" y1="120.33" x2="407" y2="120.33" xlink:href="#linear-gradient-2"/><linearGradient id="linear-gradient-59" x1="404.75" y1="123.71" x2="407" y2="123.71" xlink:href="#linear-gradient-2"/><linearGradient id="linear-gradient-60" x1="404.75" y1="127.09" x2="407" y2="127.09" xlink:href="#linear-gradient-2"/><linearGradient id="linear-gradient-61" x1="404.75" y1="130.47" x2="407" y2="130.47" xlink:href="#linear-gradient-2"/><linearGradient id="linear-gradient-62" x1="398.12" y1="124.48" x2="400.36" y2="124.48" xlink:href="#linear-gradient-2"/><linearGradient id="linear-gradient-63" x1="398.12" y1="127.87" x2="400.36" y2="127.87" xlink:href="#linear-gradient-2"/><linearGradient id="linear-gradient-64" x1="398.12" y1="131.25" x2="400.36" y2="131.25" xlink:href="#linear-gradient-2"/><linearGradient id="linear-gradient-65" x1="398.12" y1="134.63" x2="400.36" y2="134.63" xlink:href="#linear-gradient-2"/><linearGradient id="linear-gradient-66" x1="408.02" y1="144.61" x2="408.75" y2="144.61" xlink:href="#linear-gradient"/><linearGradient id="linear-gradient-67" x1="405.9" y1="144.88" x2="415.13" y2="144.88" xlink:href="#linear-gradient-2"/><linearGradient id="linear-gradient-68" x1="425.96" y1="143.04" x2="429.21" y2="143.04" xlink:href="#linear-gradient-2"/><linearGradient id="linear-gradient-69" x1="429.17" y1="145.33" x2="423.17" y2="144.45" xlink:href="#linear-gradient"/><linearGradient id="linear-gradient-70" x1="420.31" y1="182.44" x2="424.32" y2="182.44" xlink:href="#linear-gradient"/><linearGradient id="linear-gradient-71" x1="408.41" y1="187.58" x2="416.41" y2="187.58" xlink:href="#linear-gradient"/><linearGradient id="linear-gradient-72" x1="421.34" y1="172.52" x2="423.92" y2="172.52" xlink:href="#linear-gradient"/><linearGradient id="linear-gradient-73" x1="413.37" y1="171.61" x2="418.26" y2="171.61" xlink:href="#linear-gradient"/><linearGradient id="linear-gradient-74" x1="413.84" y1="147.43" x2="427.31" y2="147.43" xlink:href="#linear-gradient-2"/><linearGradient id="linear-gradient-75" x1="414.13" y1="150.85" x2="417.71" y2="150.85" xlink:href="#linear-gradient"/><linearGradient id="linear-gradient-76" x1="414.07" y1="139.61" x2="420.57" y2="139.61" xlink:href="#linear-gradient"/><linearGradient id="linear-gradient-77" x1="422.33" y1="136.86" x2="426.3" y2="136.86" xlink:href="#linear-gradient"/><linearGradient id="linear-gradient-78" x1="407.65" y1="148.7" x2="416.72" y2="148.7" xlink:href="#linear-gradient-2"/><linearGradient id="linear-gradient-79" x1="411.06" y1="147.05" x2="415.65" y2="147.05" xlink:href="#linear-gradient"/><linearGradient id="linear-gradient-80" x1="407.65" y1="152.62" x2="411.42" y2="152.62" xlink:href="#linear-gradient"/><linearGradient id="linear-gradient-81" x1="365.99" y1="35.61" x2="381.67" y2="35.61" xlink:href="#linear-gradient-2"/><linearGradient id="linear-gradient-82" x1="273.3" y1="159.75" x2="288.99" y2="159.75" xlink:href="#linear-gradient-2"/><linearGradient id="linear-gradient-83" x1="274.32" y1="160.04" x2="290.01" y2="160.04" xlink:href="#linear-gradient-2"/><linearGradient id="linear-gradient-84" x1="183.51" y1="40.64" x2="227.93" y2="14.99" gradientUnits="userSpaceOnUse"><stop offset="0.02" stop-color="#ebf7fa"/><stop offset="1" stop-color="#fff"/></linearGradient><linearGradient id="linear-gradient-85" x1="110.23" y1="37.77" x2="112.09" y2="37.77" xlink:href="#linear-gradient-2"/><linearGradient id="linear-gradient-86" x1="103.25" y1="41.82" x2="105.1" y2="41.82" xlink:href="#linear-gradient-2"/><linearGradient id="linear-gradient-87" x1="102.32" y1="39.54" x2="103.25" y2="39.54" xlink:href="#linear-gradient-2"/><linearGradient id="linear-gradient-88" x1="105.1" y1="43.35" x2="112.26" y2="43.35" xlink:href="#linear-gradient-2"/><linearGradient id="linear-gradient-89" x1="112.26" y1="43.93" x2="117.4" y2="43.93" xlink:href="#linear-gradient-2"/><linearGradient id="linear-gradient-90" x1="28.09" y1="95.6" x2="30.69" y2="95.6" xlink:href="#linear-gradient-2"/><linearGradient id="linear-gradient-91" x1="32.51" y1="101.99" x2="37.72" y2="101.99" xlink:href="#linear-gradient-2"/><linearGradient id="linear-gradient-92" x1="35.11" y1="99.66" x2="37.72" y2="99.66" xlink:href="#linear-gradient-2"/><linearGradient id="linear-gradient-93" x1="29.97" y1="89.41" x2="35.88" y2="89.41" xlink:href="#linear-gradient-2"/><linearGradient id="linear-gradient-94" x1="35.11" y1="95.01" x2="35.88" y2="95.01" xlink:href="#linear-gradient-2"/><linearGradient id="linear-gradient-95" x1="28.09" y1="96.06" x2="36.98" y2="96.06" xlink:href="#linear-gradient-2"/><linearGradient id="linear-gradient-96" x1="242.81" y1="59.03" x2="243.46" y2="59.03" xlink:href="#linear-gradient-2"/><linearGradient id="linear-gradient-97" x1="243.43" y1="48.54" x2="263.05" y2="48.54" xlink:href="#linear-gradient-2"/><linearGradient id="linear-gradient-98" x1="242.81" y1="47.06" x2="263.04" y2="47.06" xlink:href="#linear-gradient-2"/><linearGradient id="linear-gradient-99" x1="243.43" y1="54.85" x2="263.08" y2="54.85" xlink:href="#linear-gradient-2"/><linearGradient id="linear-gradient-100" x1="253.25" y1="58.17" x2="253.9" y2="58.17" xlink:href="#linear-gradient-2"/><linearGradient id="linear-gradient-101" x1="253.87" y1="47.67" x2="273.49" y2="47.67" xlink:href="#linear-gradient-2"/><linearGradient id="linear-gradient-102" x1="253.25" y1="46.19" x2="273.48" y2="46.19" xlink:href="#linear-gradient-2"/><linearGradient id="linear-gradient-103" x1="253.87" y1="53.99" x2="273.52" y2="53.99" xlink:href="#linear-gradient-2"/><clipPath id="clip-path"><path class="cls-1" d="M214.66,87.18l.74.43a1.2,1.2,0,0,0-1.23.12l-.74-.43A1.2,1.2,0,0,1,214.66,87.18Z"/></clipPath><clipPath id="clip-path-2"><path class="cls-2" d="M181.39,119l-.74-.43a1.19,1.19,0,0,1-.5-1.1l.74.43A1.19,1.19,0,0,0,181.39,119Z"/></clipPath><clipPath id="clip-path-3"><path class="cls-1" d="M180.86,109l-.74-.43a3.8,3.8,0,0,1,1.73-3l.73.43A3.82,3.82,0,0,0,180.86,109Z"/></clipPath><clipPath id="clip-path-4"><path class="cls-1" d="M178.23,135.74l1,.58a1.65,1.65,0,0,0-1.67.17l-1-.59A1.64,1.64,0,0,1,178.23,135.74Z"/></clipPath><clipPath id="clip-path-5"><path class="cls-1" d="M149.16,178.75l-1-.59a1.64,1.64,0,0,1-.68-1.51l1,.59A1.68,1.68,0,0,0,149.16,178.75Z"/></clipPath><clipPath id="clip-path-6"><path class="cls-1" d="M148.41,156l-1-.59a5.15,5.15,0,0,1,2.34-4.06l1,.58A5.19,5.19,0,0,0,148.41,156Z"/></clipPath><linearGradient id="linear-gradient-104" x1="90.83" y1="160.17" x2="129.95" y2="137.58" xlink:href="#linear-gradient-84"/><linearGradient id="linear-gradient-105" x1="108.18" y1="155.53" x2="115.33" y2="155.53" xlink:href="#linear-gradient-2"/></defs><title>Headless Commerce</title><g class="cls-3"><g id="Layer_1" data-name="Layer 1"><path class="cls-2" d="M50.06,28a2.09,2.09,0,0,1,0,.25c0,3.6-2.93,8.2-6.53,10.29L18.47,53l-.09,0a12.74,12.74,0,0,1-1.63.79l-2.23,1.77-.23-.13L11.57,54a2.63,2.63,0,0,1-.26-.16,4.32,4.32,0,0,1-1.78-2.35,7.22,7.22,0,0,1-.35-2.33,15.39,15.39,0,0,1,2.37-7.57,20.14,20.14,0,0,1,6.92-7.1A9.92,9.92,0,0,1,22.71,33,24.36,24.36,0,0,1,28,26.52a19.22,19.22,0,0,1,3-2.13c3.25-1.87,6.15-2.1,8.12-1,0,0,2.89,1.7,2.89,1.71a4.37,4.37,0,0,1,1,.7l.53-.33c.12-.06.23-.13.35-.18l.08,0,.29-.14.06,0,.32-.14.09,0,.26-.1.08,0,.31-.09.06,0,.25-.06.09,0a2.61,2.61,0,0,1,.32-.06l.27,0h1l.25.05h.06a1.39,1.39,0,0,1,.19.06h.07l.23.09.22.1.06,0,.2.13c.47.31,2.58,1.47,3.14,1.82Z"/><path class="cls-1" d="M53.26,30.13c0,3.6-2.92,8.21-6.52,10.29L21.66,54.9c-3,1.73-5.67,1.85-7.37.61a3.86,3.86,0,0,1-1-1.07,6.19,6.19,0,0,1-.9-3.47,11.31,11.31,0,0,1,.24-2.27,20.32,20.32,0,0,1,9.05-12.4,9.92,9.92,0,0,1,4.24-1.42,23.23,23.23,0,0,1,8.24-8.62,10,10,0,0,1,6.31-1.59,3.75,3.75,0,0,1,.6.13,4.75,4.75,0,0,1,2,1,5.59,5.59,0,0,1,1.66,3.07,11.06,11.06,0,0,1,2.07-1.53,6.86,6.86,0,0,1,3-1,3.41,3.41,0,0,1,2.05.46A3.68,3.68,0,0,1,53.26,30.13Z"/><path class="cls-4" d="M434.64,45.55l-.93-.54L399,65.07a5.58,5.58,0,0,0-2.69,4.25v17a1.53,1.53,0,0,0,.61,1.36l.95.54.37-.44a3.07,3.07,0,0,0,.76-.33l27.82-16.06a5.56,5.56,0,0,0,2.69-4.24V53.84l4-7Z"/><path class="cls-1" d="M434.64,45.55l-.93-.54L399,65.07a5.58,5.58,0,0,0-2.69,4.25v17a1.53,1.53,0,0,0,.61,1.36l.95.54.37-.44a3.07,3.07,0,0,0,.76-.33l27.82-16.06a5.56,5.56,0,0,0,2.69-4.24V53.84l4-7Z"/><path class="cls-5" d="M435.09,46.27l-4.68,8.11V67.67a5.6,5.6,0,0,1-2.7,4.25L399.9,88c-1.49.86-2.7.35-2.7-1.14v-17a5.59,5.59,0,0,1,2.7-4.25l34.74-20.06C434.86,45.89,434.88,45.93,435.09,46.27Z"/><polygon class="cls-1" points="296.65 171.91 218.69 216.92 140.74 171.91 218.69 126.9 296.65 171.91"/><path class="cls-5" d="M322.45,202.64l-.5-.28L242.52,156.5l79.93-46.15.49.29,79.43,45.86Zm-76-46.14,76,43.87,76-43.87-76-43.87Z"/><polygon class="cls-5" points="311.78 91.91 234.32 47.19 156.86 91.91 155.87 90.2 234.32 44.91 312.77 90.2 311.78 91.91"/><path class="cls-5" d="M124.07,220.29l-.49-.28L6.9,152.65,124.07,85l117.16,67.65ZM10.84,152.65,124.07,218l113.22-65.37L124.07,87.28Z"/><polygon class="cls-6" points="374.34 95.21 310.69 131.95 234.32 88.08 297.97 51.34 374.34 95.21"/><polygon class="cls-1" points="221.57 79.96 159.03 115.83 63.01 60.22 125.55 24.36 221.57 79.96"/><polygon class="cls-1" points="81.74 190.86 43.69 212.5 5.93 190.37 43.98 168.73 81.74 190.86"/><polygon class="cls-1" points="456.83 179.29 415.46 203.18 374.08 179.29 415.46 155.41 456.83 179.29"/><path class="cls-7" d="M177.12,168.31l-2.51,9.56-.27.33-.87,1.1-.12-.05-1.84-1.08a2.33,2.33,0,0,1-1-2.15V139.5l2,1.16Z"/><path class="cls-8" d="M231.37,96.11,229.5,95a3.2,3.2,0,0,0-3.24.36L169.74,128c-2.33,1.35-4.23,4.33-4.23,6.66v36.51a2.34,2.34,0,0,0,1,2.15l1.84,1.09.09,0,.89-1.11.26-.32.14-.07,45.74-26.41.53-.3,2.42-1.41,1.25-.71,2-1.15,4.59-2.65a8.43,8.43,0,0,0,2.1-1.78,9,9,0,0,0,.72-.94,6,6,0,0,0,.54-.9,6.68,6.68,0,0,0,.85-2.85,1.28,1.28,0,0,0,0-.19V97.32l.05-.06.9-1.12Z"/><path class="cls-7" d="M269.36,161.23v2.36a1.86,1.86,0,0,1-.37,1.09,3.23,3.23,0,0,1-1.09.95l-29,16.72-29,16.72a7.82,7.82,0,0,1-7,0l-15.84-9.14-15.84-9.13a3.21,3.21,0,0,1-1.14-1,1.83,1.83,0,0,1-.31-1.15v-2.21Z"/><path class="cls-7" d="M202.93,189v10.08l-15.84-9.14-15.84-9.13a3.21,3.21,0,0,1-1.14-1,1.83,1.83,0,0,1-.31-1.15v-2.21Z"/><path class="cls-9" d="M267.9,163.27,210,196.71a7.82,7.82,0,0,1-7,0l-31.68-18.27c-1.95-1.13-1.95-2.95,0-4.07l57.92-33.44a7.75,7.75,0,0,1,7.05,0L267.9,159.2a2.15,2.15,0,0,1,0,4.07Z"/><path class="cls-10" d="M258.17,156.26l-60.33,34.83-9.6-5.54-10.91-6.29-1.6-.92,60.33-34.83,3.95,2.28Z"/><polygon class="cls-10" points="218.69 180.33 239.57 168.27 247.46 172.87 226.58 184.93 218.69 180.33"/><polygon class="cls-10" points="173.48 174.42 229.17 142.27 232.59 144.28 176.9 176.43 173.48 174.42"/><path class="cls-1" d="M231.43,96.14l-.06,0a3.25,3.25,0,0,0-3.16.4L171.7,129.14c-2.34,1.35-4.23,4.33-4.23,6.67v36.51a2.41,2.41,0,0,0,.89,2.08l.09,0c.77.49,1.94.4,3.25-.35l47.51-27.43,2.34-1.35,6.66-3.85.36-.22a2.62,2.62,0,0,0,.34-.24,7.6,7.6,0,0,0,.82-.7,9.26,9.26,0,0,0,1.25-1.46,7.51,7.51,0,0,0,1.46-4V98.29A2.34,2.34,0,0,0,231.43,96.14Z"/><path class="cls-11" d="M230.53,97.26h-.21a3,3,0,0,0-1.4.46l-56.53,32.64c-1.88,1.08-3.53,3.63-3.53,5.46v36.51c0,.75.26,1,.48,1a.77.77,0,0,0,.25,0,3.07,3.07,0,0,0,1.41-.47L215.83,147l.4-.23,1.84-1.06,1.47-.85,2.13-1.23,5.85-3.38a4.77,4.77,0,0,0,.85-.61,4.72,4.72,0,0,0,.58-.53,9.28,9.28,0,0,0,.75-.89,7.57,7.57,0,0,0,1.06-2,4.2,4.2,0,0,0,.29-1.45V98.29C231.05,97.5,230.76,97.31,230.53,97.26Z"/><path class="cls-1" d="M198.56,119.41V152.8l15.69-9.05.74-.44,1.1-.63.3-.17.6-.35,2.7-1.56.11-.06,1.47-.85,5.6-3.23V103.07Z"/><polygon class="cls-1" points="173.04 156.68 196.71 143.01 196.71 120.49 173.04 134.15 173.04 156.68"/><path class="cls-1" d="M173.7,167.16l22.35-12.9a1.39,1.39,0,0,0,.66-1c0-.36-.3-.49-.66-.28l-22.35,12.9a1.39,1.39,0,0,0-.66,1C173,167.24,173.34,167.37,173.7,167.16Z"/><path class="cls-12" d="M173.7,163.32l22.35-12.9a1.39,1.39,0,0,0,.66-1c0-.36-.3-.49-.66-.28L173.7,162a1.39,1.39,0,0,0-.66,1C173,163.4,173.34,163.53,173.7,163.32Z"/><path class="cls-1" d="M173.7,159.48l22.35-12.9a1.39,1.39,0,0,0,.66-1.05c0-.36-.3-.49-.66-.28l-22.35,12.9a1.39,1.39,0,0,0-.66,1C173,159.56,173.34,159.69,173.7,159.48Z"/><path class="cls-11" d="M224.47,134.91,201,148.48a1.12,1.12,0,0,0-.55.85c0,.3.25.4.55.23L224.47,136a1.12,1.12,0,0,0,.54-.85C225,134.84,224.77,134.73,224.47,134.91Z"/><path class="cls-11" d="M203.67,147.46a2.24,2.24,0,0,1-1.08,1.69c-.59.35-1.08.14-1.08-.45a2.27,2.27,0,0,1,1.08-1.7C203.18,146.66,203.67,146.86,203.67,147.46Z"/><path class="cls-11" d="M212.87,131.41c-2,1.15-3.61.46-3.61-1.53a7.49,7.49,0,0,1,3.61-5.69c2-1.15,3.61-.47,3.61,1.52A7.5,7.5,0,0,1,212.87,131.41Zm0-6.76a6.53,6.53,0,0,0-3.15,5c0,1.73,1.41,2.33,3.15,1.33a6.56,6.56,0,0,0,3.14-5C216,124.25,214.6,123.65,212.87,124.65Z"/><polygon class="cls-11" points="211.78 126.9 211.78 129.96 214.42 126.9 211.78 126.9"/><path class="cls-13" d="M211.67,131a2.09,2.09,0,0,0-.44-.26,4,4,0,0,0-1.6-.36,4.5,4.5,0,0,1-2.79-.91,1,1,0,0,1-.17-.64l.73.33a11.48,11.48,0,0,1-1.38-.78c-.3-.25,0-.67,0-.67a4.18,4.18,0,0,1,2.51-.4,26.16,26.16,0,0,0,4.58,2.21C214.9,130,211.67,131,211.67,131Z"/><path class="cls-14" d="M244.15,135.25a3.11,3.11,0,0,1-1.5.49,3,3,0,0,1-1.49-.07c-.24-.18-.18-5.24-.1-9.07,0-2.36.1-4.25.1-4.25s2.28,1.09,2.67,4.9S244.58,134.79,244.15,135.25Z"/><path class="cls-15" d="M242.65,135.74a3,3,0,0,1-1.49-.07c-.24-.18-.18-5.24-.1-9.07a1.57,1.57,0,0,0,.15-.38c.13.12,1.15.68,1.15.68S243,133.7,242.65,135.74Z"/><path class="cls-16" d="M241.94,171.81c-.11.64-1.22,1.29-2.64.79l-.13,0c-1.49-.58-1.4-1.73-2.7-3a3.48,3.48,0,0,1-1.31-2.62c.06-.19,2.37.28,3.4.5a2.41,2.41,0,0,1,.63.27,16.83,16.83,0,0,1,2.55,2A8.65,8.65,0,0,1,241.94,171.81Z"/><path class="cls-17" d="M239.3,172.6l-.13,0c-1.49-.58-1.4-1.73-2.7-3a3.48,3.48,0,0,1-1.31-2.62c.06-.19,2.37.28,3.4.5a2.41,2.41,0,0,1,.63.27A30.07,30.07,0,0,0,239,172,1.29,1.29,0,0,0,239.3,172.6Z"/><g class="cls-18"><ellipse class="cls-19" cx="232.88" cy="170.69" rx="9.86" ry="5.69"/></g><path class="cls-16" d="M231.53,176.81h-.4a20.17,20.17,0,0,1-3.23-.44c-1.47-.24-2.1.09-3.68-.46a1.88,1.88,0,0,1-1.35-1.61.6.6,0,0,1,.51-.55c3.17-.14,5.27-.42,5.27-.42a11.7,11.7,0,0,1,1.41-.05c1.15,0,2.61.21,2.78,1.06C233.13,175.77,232.77,176.75,231.53,176.81Z"/><path class="cls-20" d="M231.13,176.82a20.17,20.17,0,0,1-3.23-.44c-1.47-.24-2.1.09-3.68-.46a1.88,1.88,0,0,1-1.35-1.61.6.6,0,0,1,.51-.55c3.17-.14,5.27-.42,5.27-.42a11.7,11.7,0,0,1,1.41-.05l-.09,1.89A13,13,0,0,0,231.13,176.82Z"/><path class="cls-5" d="M242.3,144.92s-.49,6.87-.46,9.37a41.14,41.14,0,0,0,.26,4.55c.07.56-.24,10.66-.24,10.66a1.13,1.13,0,0,1-.66.92,3.55,3.55,0,0,1-2.46.27,2.62,2.62,0,0,1-.71-.27,1.13,1.13,0,0,1-.66-.92s.1-9.85,0-11.43c-.08-1.11-.76-5-1.15-7.18L233,159.4V174a1.13,1.13,0,0,1-.66.92,3.53,3.53,0,0,1-2.33.3,2.7,2.7,0,0,1-.84-.3,1.13,1.13,0,0,1-.66-.92L228,159.23s.1-10.7,2-16.95l2.34-.34,9.19-1.35S242.54,143.4,242.3,144.92Z"/><path class="cls-21" d="M238.88,158.84l-.14,11.85a2.62,2.62,0,0,1-.71-.27,1.13,1.13,0,0,1-.66-.92s.1-9.85,0-11.43c-.08-1.11-.76-5-1.15-7.18l1.44-2.57Z"/><path class="cls-22" d="M230,157.92c-.19,2.39-.07,13.32,0,17.26a2.7,2.7,0,0,1-.84-.3,1.13,1.13,0,0,1-.66-.92L228,159.23s.1-10.7,2-16.95l2.34-.34.73,2.3S230.21,155,230,157.92Z"/><path class="cls-23" d="M242.39,142.86l-.22.16c-.14.1-.34.23-.62.39a12.73,12.73,0,0,1-6.14,1.44,22.93,22.93,0,0,1-2.51-.11,9.94,9.94,0,0,1-1.08-.16c-.24-.05-.45-.09-.64-.15l-.27-.08,0,0-.23-.08a3,3,0,0,1-.62-.3l-.15-.1a1.38,1.38,0,0,1-.25-.21l-.1-.11a1.29,1.29,0,0,1-.18-.32l0-.11a.3.3,0,0,1,0-.1,1.73,1.73,0,0,1,0-.35l0-.12,0-.14c.06-.42.18-1,.31-1.67l0-.22.15-.79c0-.12,0-.24.07-.35a13,13,0,0,0,.24-3.64,8.51,8.51,0,0,0-.43-1.41c-.19-.54-.42-1.15-.64-1.8,0-.1,0-.19-.08-.29a2.29,2.29,0,0,1-.09-.28c0-.1-.05-.2-.08-.29s0-.19-.08-.3a9,9,0,0,1-.3-2.18,5.26,5.26,0,0,1,.24-1.62l0,0a1.34,1.34,0,0,1,.09-.26,2.44,2.44,0,0,1,.1-.24.21.21,0,0,1,0-.06,4.13,4.13,0,0,1,.49-.79,2.49,2.49,0,0,0,.23-.19c.16-.13.41-.32.74-.54a5.46,5.46,0,0,1,.56-.36c.31-.2.66-.38,1.07-.6,0,0,0,0,0,0l.39-.17c.1-.06.18-.09.28-.14l.48-.19.05,0,.14-.06.11,0,.11,0c.24-.1.49-.18.76-.27a.45.45,0,0,1,.11,0,18.34,18.34,0,0,1,2.73-.71c.34-.07.71-.13,1.07-.18a24.56,24.56,0,0,1,2.84-.23l.19.29a8.2,8.2,0,0,1,1,4.6c-.1,1.09-.24,2.12-.36,3.14a31.42,31.42,0,0,0-.29,5.35c.09,1.9.33,4.11.49,5.55C242.29,142.23,242.39,142.86,242.39,142.86Z"/><path class="cls-24" d="M232.39,136.94c.29,1.82-.31,6-.57,7.64-.24-.05-.45-.09-.64-.15l-.27-.08,0,0-.23-.08a3,3,0,0,1-.62-.3l-.15-.1a1.38,1.38,0,0,1-.25-.21l-.1-.11a1.29,1.29,0,0,1-.18-.32l0-.11a.31.31,0,0,1,0-.1,1.57,1.57,0,0,1,0-.35l0-.12,0-.14c.06-.42.18-1,.31-1.67l0-.22.15-.79c0-.12,0-.24.07-.35a13,13,0,0,0,.24-3.64,8.51,8.51,0,0,0-.43-1.41c-.18-.55-.42-1.16-.63-1.8l-.09-.29a2.29,2.29,0,0,1-.09-.28c0-.1-.05-.2-.08-.29a2.64,2.64,0,0,1-.07-.3,8.56,8.56,0,0,1-.31-2.18,5.26,5.26,0,0,1,.24-1.62l0,0,0,0c0-.08.05-.15.07-.22a2.44,2.44,0,0,1,.1-.24.21.21,0,0,0,0-.06,4.13,4.13,0,0,1,.49-.79,2.49,2.49,0,0,0,.23-.19c.16-.13.41-.32.74-.54a5.46,5.46,0,0,1,.56-.36c.31-.2.66-.38,1.07-.6,0,0,0,0,0,0l.39-.17c.1-.06.18-.09.28-.14l.48-.19.05,0,.14-.06.11,0,.11,0c.24-.1.49-.18.76-.27l1,.17c-3.36,2-2.75,1.45-4.18,2.55l-.86,1,1.3,4.54S232,134.62,232.39,136.94Z"/><path class="cls-25" d="M241.34,122.64h-.18c-.85.08-2.13.22-2.85.31l-.54.06-.53-.26c.35-.07.7-.13,1.07-.18a24.56,24.56,0,0,1,2.85-.23Z"/><path class="cls-13" d="M238.33,121.93c0,.29,0,.64,0,1s0,.31,0,.22a.85.85,0,0,1-.48.7,5.77,5.77,0,0,1-2.78.55,3,3,0,0,1-.53-.07,3.65,3.65,0,0,1-1.09-.45c0-.08.05-.61.1-1.66a.28.28,0,0,0-.2-.29,2.47,2.47,0,0,1-1.57-1.33,22.87,22.87,0,0,1-.5-4.07s.05,0,.18,0a6.15,6.15,0,0,1,.73.47l.17.11C234.31,118.52,238.33,121.82,238.33,121.93Z"/><g class="cls-26"><path class="cls-27" d="M234.51,122v2.34a3.65,3.65,0,0,1-1.09-.45c0-.08.05-.61.1-1.66a.28.28,0,0,0-.2-.29,2.47,2.47,0,0,1-1.57-1.33,22.87,22.87,0,0,1-.5-4.07s.05,0,.18,0c.28.27.57.5.73.47l.05,0s.08,0,.12.13c.19.69.65.54,1,.9S234.51,122,234.51,122Z"/></g><path class="cls-16" d="M240,117.7c-.13.52-.64,1.68-.74,2.2a14.73,14.73,0,0,1-.9,2,5.44,5.44,0,0,1-2.67.58,1.65,1.65,0,0,1-.33-.05l-.19-.09a2.44,2.44,0,0,1-1.37-1.66l0-.17a2.29,2.29,0,0,1-.06-.78,3.41,3.41,0,0,0,0-.46c-.05-.9-.46-1-.77-1.09s-.37.91-.37.91l-.43-.13-.06-1.4a.63.63,0,0,0-.15-.39c-.34-.39-1.52-.64-1.52-2.13,0-.68.72-3,4.33-3.09a10.51,10.51,0,0,1,1.6.12C240.21,112.69,240.28,116.4,240,117.7Z"/><g class="cls-28"><path class="cls-29" d="M235.66,122.51a1.65,1.65,0,0,1-.33-.05l-.19-.09a2.44,2.44,0,0,1-1.37-1.66l0-.17a2.29,2.29,0,0,1-.06-.78,3.41,3.41,0,0,0,0-.46c-.05-.9-.46-1-.77-1.09s-.37.91-.37.91l-.43-.13-.06-1.4a.63.63,0,0,0-.15-.39c-.34-.39-1.52-.64-1.52-2.13,0-.68.72-3,4.33-3.09-1.14.59-3.14,1.85-2.16,3a7.93,7.93,0,0,1,1.68,4.85A3.07,3.07,0,0,0,235.66,122.51Z"/></g><path class="cls-30" d="M211.54,130.09l-.31.65a4,4,0,0,0-1.6-.36,4.5,4.5,0,0,1-2.79-.91,1,1,0,0,1-.17-.64l.73.33a11.48,11.48,0,0,1-1.38-.78c-.3-.25,0-.67,0-.67l.33.45a12.35,12.35,0,0,0,1.83,1.13l.78.42A10.17,10.17,0,0,0,211.54,130.09Z"/><path class="cls-31" d="M229.24,132.91l-8.55,1.39-9.49-2.92a.65.65,0,0,1-.44-.69,1.85,1.85,0,0,1,.28-.93,2.6,2.6,0,0,1,1-1,1.29,1.29,0,0,1,.62-.19l.19,0,8.13,1.78a.22.22,0,0,0,.12,0l8.19-3.92a2.74,2.74,0,0,1,1.25.63,2.36,2.36,0,0,1,.75,1.37C231.56,130.16,230.52,132.7,229.24,132.91Z"/><path class="cls-32" d="M211.2,131.38a.65.65,0,0,1-.44-.69,1.85,1.85,0,0,1,.28-.93c1.49.57,8.66,2.86,9.65,4.54Z"/><path class="cls-33" d="M230.49,127.08c-.29.13-7.83,3.35-9.44,3.29l8.19-3.92A2.74,2.74,0,0,1,230.49,127.08Z"/><path class="cls-1" d="M260.11,79.29v2.32a1.92,1.92,0,0,0,.35,1.07,3.36,3.36,0,0,0,1.08.93L290,100.07,300.31,106l.05,0,3.13,1.8,2.26,1.31s1.25.72,1.25.72l2.37,1.37.26.15.05,0,.36.22,1.12.64,1.8,1,5.56,3.2a7.67,7.67,0,0,0,6.94,0l15.59-9,15.58-9a3.19,3.19,0,0,0,1.12-1,1.8,1.8,0,0,0,.31-1.14V94.22L354,93.61l-1.47-.23-4-.61-2.85-.44L317.92,88.1l-.59-.09-.58-.09-.47-.07-.31,0h-.12l-.18,0-3.39-.52-.2,0-25.49-3.89Z"/><path class="cls-7" d="M325.46,113.46v3.05l15.59-9,15.58-9a3.19,3.19,0,0,0,1.12-1,1.8,1.8,0,0,0,.31-1.14V94.22a2.4,2.4,0,0,0-1.43-2l-.34-.2L354,93.61l-2.78,1.93-9.69,6.74Z"/><path class="cls-34" d="M260.11,79.29a2.46,2.46,0,0,0,1.43,2l38.11,22,2.72,1.57,1.5.88L306.1,107l1.09.62,1.77,1,.34.2.25.14,2,1.16.12.07.23.13.14.08,1.2.7,5.27,3a7.71,7.71,0,0,0,6.94,0l31.17-18a2.51,2.51,0,0,0,1.43-1.91v-.09a2.4,2.4,0,0,0-1.43-2l-.34-.2L300.58,59.85l-.93-.54a7.65,7.65,0,0,0-6.94,0l-31.17,18A2.43,2.43,0,0,0,260.11,79.29Z"/><path class="cls-1" d="M271.12,74.4l59.35,34.26,9.45-5.45L350.65,97l1.57-.91L292.87,61.85,289,64.1C286.05,65.78,275,72.14,271.12,74.4Z"/><polygon class="cls-1" points="309.95 98.07 289.41 86.21 281.65 90.74 302.2 102.6 309.95 98.07"/><polygon class="cls-10" points="354.44 92.26 299.65 60.63 296.29 62.61 351.07 94.24 354.44 92.26"/><path class="cls-35" d="M297.42,15.25l.93,1.15V52.16c0,2.29,1.86,5.23,4.16,6.55L352.36,87.5l5.76,3.32.13.06,1.14,1.42,1.9-1.12a2.35,2.35,0,0,0,1-2.12V53.14c0-2.3-1.87-5.23-4.16-6.56L302.51,14.47a3.18,3.18,0,0,0-3.18-.35Z"/><path class="cls-7" d="M352.36,87.5l5.76,3.32.13.06,1.14,1.42,1.9-1.12a2.35,2.35,0,0,0,1-2.12V53.14l-1.93,1.13L357.17,66,354,76.72C353.24,76.93,352.63,83.92,352.36,87.5Z"/><path class="cls-1" d="M296.43,17.37V53.29c0,2.3,1.86,5.23,4.15,6.56L356.19,92l.11.06a3.33,3.33,0,0,0,2.77.44,1.57,1.57,0,0,0,.32-.15,2.34,2.34,0,0,0,1-2.1V54.27c0-2.29-1.86-5.23-4.16-6.55L300.58,15.61a3.22,3.22,0,0,0-3.11-.39l-.05,0A2.29,2.29,0,0,0,296.43,17.37Z"/><path class="cls-4" d="M358.27,91.22c.23,0,.71,0,.71-1V54.27c0-1.79-1.62-4.3-3.47-5.37L299.9,16.8a2.94,2.94,0,0,0-1.39-.46c-.23,0-.71,0-.71,1V53.29c0,1.79,1.62,4.3,3.47,5.37l55.61,32.1A2.94,2.94,0,0,0,358.27,91.22Z"/><polygon class="cls-2" points="302.16 27.02 354.62 57.3 354.62 54.22 302.16 23.93 302.16 27.02"/><polygon class="cls-1" points="326.41 43.92 354.62 60.22 354.62 58.67 326.41 42.38 326.41 43.92"/><polygon class="cls-1" points="326.41 47.61 354.62 63.9 354.62 62.35 326.41 46.06 326.41 47.61"/><polygon class="cls-1" points="326.41 51.29 354.62 67.58 354.62 66.04 326.41 49.75 326.41 51.29"/><polygon class="cls-1" points="326.41 54.97 354.62 71.26 354.62 69.72 326.41 53.43 326.41 54.97"/><polygon class="cls-1" points="326.41 58.65 354.62 74.94 354.62 73.4 326.41 57.11 326.41 58.65"/><polygon class="cls-1" points="326.41 62.34 354.62 78.63 354.62 77.08 326.41 60.79 326.41 62.34"/><polygon class="cls-1" points="302.16 52.02 354.62 82.31 354.62 80.77 302.16 50.48 302.16 52.02"/><polygon class="cls-1" points="302.16 55.7 354.62 85.99 354.62 84.45 302.16 54.16 302.16 55.7"/><polygon class="cls-1" points="302.16 48.34 324.2 61.07 324.2 41.11 302.16 28.38 302.16 48.34"/><path class="cls-16" d="M303.79,123.86c.13.32,1.28.37,2.44.31a15,15,0,0,0,2.49-.31,35,35,0,0,0,4.95-4.31c.17-.31-.32-1.6-.32-1.6l-2.17-.22-1.93-.19s-2.12,2.52-2.65,3S303.53,123.25,303.79,123.86Z"/><path class="cls-16" d="M296.67,117.36c.13.36.29.63.43.68.41.14,4.45-3.15,4.85-3.73s2.66-.85,2.79-1.22-.31-1.47-.31-1.47a12.67,12.67,0,0,0-1.79-.67c-1-.29-2-.41-2.25.26-.45,1.3-3.33,3.41-3.78,4.09A2.84,2.84,0,0,0,296.67,117.36Z"/><path class="cls-36" d="M306.23,124.17a15,15,0,0,0,2.49-.31,35,35,0,0,0,4.95-4.31c.17-.31-.32-1.6-.32-1.6l-2.17-.22c-.5,1.2-1.65,3.77-2.76,4.76A22.58,22.58,0,0,1,306.23,124.17Z"/><path class="cls-37" d="M296.67,117.36c.13.36.29.63.43.68.41.14,4.45-3.15,4.85-3.73s2.66-.85,2.79-1.22-.31-1.47-.31-1.47a12.67,12.67,0,0,0-1.79-.67,7.1,7.1,0,0,1-1.65,2.77A50,50,0,0,1,296.67,117.36Z"/><path class="cls-5" d="M299.6,110.17v1.45a1.34,1.34,0,0,0,.8,1.1,4.19,4.19,0,0,0,2.81.37,3.26,3.26,0,0,0,1-.37,1.33,1.33,0,0,0,.79-1.1s.09-12,.59-12.78,6.94-3.07,6.94-3.07c-.19.25-3.09,4.16-3.45,5.39s-.57,16.6-.57,16.6a1.33,1.33,0,0,0,.79,1.1,4.16,4.16,0,0,0,2.16.46,3.64,3.64,0,0,0,1.67-.46,1.29,1.29,0,0,0,.79-1.13c0-.71.34-13,.69-13.27s8.6-6.3,10-8.51-1.38-6.16-1.38-6.16l-2.25.65-.16,0-7.6-1.9s-12,5.77-12.87,7.84C299.67,98,299.6,106.69,299.6,110.17Z"/><path class="cls-38" d="M311.48,119.32a3.64,3.64,0,0,0,1.67-.46,1.29,1.29,0,0,0,.79-1.13c0-.71.34-13,.69-13.27s8.6-6.3,10-8.51-1.38-6.16-1.38-6.16l-2.25.65-.16,0c.38.93,1.11,4.38-.37,5.9-1.65,1.7-8,5.7-8.63,7C311.37,104.25,311.42,114.2,311.48,119.32Z"/><path class="cls-39" d="M303.21,113.09a3.26,3.26,0,0,0,1-.37,1.33,1.33,0,0,0,.79-1.1s.09-12,.59-12.78,6.94-3.07,6.94-3.07l1.12-1.15s-8.69,1.3-9.77,3.44C303,99.86,303.14,109.93,303.21,113.09Z"/><polygon class="cls-7" points="309.25 105.45 309.25 104.81 319.63 98.81 319.63 99.45 309.25 105.45"/><polygon class="cls-1" points="295.11 96.64 295.11 97.29 309.25 105.45 309.25 104.81 295.11 96.64"/><polygon class="cls-40" points="309.25 104.81 302.18 100.73 295.11 96.64 305.49 90.65 319.63 98.81 309.25 104.81"/><path class="cls-1" d="M305,89.93l2.22,2.35,1.1,1.17s4.91-7.64,5.33-8.07.3-2.83,0-8.87A23.22,23.22,0,0,0,313,71c-.16-.46-.28-.47-.3-.47-1.2.07-2.18,1.35-2.75,3.34s0,8.88,0,8.88Z"/><path class="cls-41" d="M307.24,92.28l1.1,1.17s4.91-7.64,5.33-8.07.3-2.83,0-8.87A23.22,23.22,0,0,0,313,71h-.77s-1.43,3.23-1.35,5,1.43,6.58,1.35,8.66Z"/><path class="cls-29" d="M304.74,90.7a3.86,3.86,0,0,0,1.86,2.93c1,.6,1.86.24,1.86-.78a3.87,3.87,0,0,0-1.86-2.94C305.58,89.32,304.74,89.67,304.74,90.7Z"/><path class="cls-1" d="M311.2,79.49a18.77,18.77,0,0,1,1.78,4c.14,1.14.28,5.05.28,5.05s1.46,3.42,6.67,3.69a15,15,0,0,0,3.7-.28A16.08,16.08,0,0,0,326.41,84a13.87,13.87,0,0,0,0-2,5.49,5.49,0,0,0,0-.58,17.68,17.68,0,0,0-1-4.66l-.12-.33s-6.37-5.11-12.62-6a2.29,2.29,0,0,0-.47.47C311.52,71.91,310.32,74.27,311.2,79.49Z"/><path class="cls-42" d="M319.93,92.2a15,15,0,0,0,3.7-.28A16.08,16.08,0,0,0,326.41,84l0-2V81.6l0-.1-1.8-4.79s-2.78,1-3,6A50.93,50.93,0,0,1,319.93,92.2Z"/><path class="cls-43" d="M312.24,71c4,.48,12.39,5.7,12.39,5.7l.82.13-.12-.33s-6.37-5.11-12.62-6A2.29,2.29,0,0,0,312.24,71Z"/><path class="cls-1" d="M312.55,92.91l1.93,2.94.76,1.16s11.3-3.31,11.73-3.74,1.14-3.84.84-9.88-2.48-6.88-2.48-6.88a1.57,1.57,0,0,0-.7.2c-.85.43-1.47,1.56-1.92,3.13-.57,2,.56,10,.56,10Z"/><path class="cls-44" d="M314.48,95.85l.76,1.16s11.3-3.31,11.73-3.74,1.14-3.84.84-9.88-2.48-6.88-2.48-6.88a1.57,1.57,0,0,0-.7.2A34.34,34.34,0,0,1,326,91.77l-11.26,3.14Z"/><path class="cls-29" d="M312,93.91a3.89,3.89,0,0,0,1.86,2.94c1,.59,1.86.24,1.86-.79a3.83,3.83,0,0,0-1.86-2.93C312.81,92.53,312,92.89,312,93.91Z"/><path class="cls-13" d="M308.44,97.22l.19.45a.94.94,0,0,0,.32.41.92.92,0,0,0,.72.16.73.73,0,0,0,.41-.23,2.11,2.11,0,0,1,1.33-.63c.66-.06,1.54-.13,1.79-.12a4.3,4.3,0,0,0,.66-.4l1.8-1.2a3.27,3.27,0,0,0-.35-.94,4.26,4.26,0,0,0-.9-1.17,4.15,4.15,0,0,1-2.43.52l-.89-.2a.63.63,0,0,0-.59.18l-1.79,1.84A1.24,1.24,0,0,0,308.44,97.22Z"/><path class="cls-13" d="M302,95.29l.57.39.5.35s1.72-3,2.5-3c.41,0,.33.62.17,1.18a7.11,7.11,0,0,1-.39,1s1-.12,1.29-.49a3.74,3.74,0,0,0,.62-.88,3.35,3.35,0,0,0,.33-1.43,1.62,1.62,0,0,1,.42-1.11,4.53,4.53,0,0,0-.45-.63,4,4,0,0,0-.94-.81A4.38,4.38,0,0,1,305,91.22l-.17,0a16.36,16.36,0,0,0-1.66.65,1.07,1.07,0,0,0-.59.75Z"/><g class="cls-26"><path class="cls-27" d="M305.73,94.25a7.11,7.11,0,0,1-.39,1s1-.12,1.29-.49a3.74,3.74,0,0,0,.62-.88,3.35,3.35,0,0,0,.33-1.43,1.62,1.62,0,0,1,.42-1.11,4.53,4.53,0,0,0-.45-.63C307.44,91.65,307.05,93.5,305.73,94.25Z"/></g><g class="cls-26"><path class="cls-27" d="M302.56,95.68l.5.35s1.72-3,2.5-3c0,0-.62-.5-.82-.38A12.47,12.47,0,0,0,302.56,95.68Z"/></g><g class="cls-26"><path class="cls-27" d="M309,98.08a.92.92,0,0,0,.72.16.73.73,0,0,0,.41-.23,2.11,2.11,0,0,1,1.33-.63c.66-.06,1.54-.13,1.79-.12a4.3,4.3,0,0,0,.66-.4l1.8-1.2a3.27,3.27,0,0,0-.35-.94c-.63.54-1.93,1.62-2.38,1.57-.6-.08-1.83-.27-2,0A21.11,21.11,0,0,0,309,98.08Z"/></g><polygon class="cls-1" points="306.88 95.14 309.25 104.81 295.11 96.64 292.74 86.97 306.88 95.14"/><polygon class="cls-45" points="307.26 94.91 306.88 95.14 292.74 86.97 293.12 86.75 307.26 94.91"/><polygon class="cls-7" points="309.25 104.81 309.64 104.58 307.26 94.91 306.88 95.14 309.25 104.81"/><path class="cls-13" d="M316.28,77.34c1.46-.48,2.81-2.34,3.49-3.39.28-.45.44-.75.44-.75l-.27-1.31-.78-.67s-.37.07-.89.21c-1.09.3-2.8,1-3,2.26A5.17,5.17,0,0,0,316.28,77.34Z"/><g class="cls-26"><path class="cls-27" d="M318.27,71.43l1.5,2.52c.28-.45.44-.75.44-.75l-.27-1.31-.78-.67S318.79,71.29,318.27,71.43Z"/></g><path class="cls-13" d="M315.21,75.15c1.64.24,4.29-1.87,4.29-1.87l.17-1.29s.18.13.88-.7c.22-1.17.57-3.29,1.12-5.23-1-2.51-4-2.6-5.75-2.08-2.24.64-2.55,2.85-2.7,4S313.94,75,315.21,75.15Z"/><path class="cls-16" d="M312.89,67.49c.06.34.09.69.12,1s-.07,1,.25,1.14c0-.1,0-.21,0-.31,0-.28-.14-2.12.52-1.86l.06,0a1.57,1.57,0,0,0,.45.17.78.78,0,0,0,.22,0,10.55,10.55,0,0,0,3.06-.31.53.53,0,0,1,.42.28,3.14,3.14,0,0,1,.48,1.71,4.89,4.89,0,0,0,0,1.28.3.3,0,0,0,.39,0l.11-.13c.2-.32,0-1.87.76-1.65.56.2.88.78.35,2.33a.39.39,0,0,1,0,.09s0,0,0,.07a5.84,5.84,0,0,0-.16,1h.38a4.54,4.54,0,0,1,1-2.1,5.4,5.4,0,0,0,1.16-2.55,3.44,3.44,0,0,0-.07-1.8,5.05,5.05,0,0,0-1-1.39,4.91,4.91,0,0,0-3.65-1.23s-2.81-.11-4.05,1.13a3.75,3.75,0,0,0-.68.91,1.83,1.83,0,0,0-.2.66A3.9,3.9,0,0,0,312.89,67.49Z"/><g class="cls-26"><path class="cls-27" d="M315.21,75.15c1.64.24,4.29-1.87,4.29-1.87l.17-1.29s.18.13.88-.7c.22-1.17.57-3.29,1.12-5.23l-3.12.9s.41,5.64.3,6.12S315.21,75.15,315.21,75.15Z"/></g><path class="cls-46" d="M312.88,65.38c1.23-.39,3.73-.88,5.64.68,0,0,.47.54.33,4.64a.68.68,0,0,0,.11-.12c.2-.32,0-1.87.76-1.65.56.2.88.78.35,2.33a.39.39,0,0,1,0,.09s0,0,0,.07a5.84,5.84,0,0,0-.16,1h.38a4.54,4.54,0,0,1,1-2.1,5.4,5.4,0,0,0,1.16-2.55,3.44,3.44,0,0,0-.07-1.8,5.05,5.05,0,0,0-1-1.39,4.91,4.91,0,0,0-3.65-1.23s-2.81-.11-4.05,1.13A3.75,3.75,0,0,0,312.88,65.38Z"/><path class="cls-47" d="M190.65,63.76v5.33a3.6,3.6,0,0,1-2.13,3L152.63,92.78a11.46,11.46,0,0,1-10.3,0l-54.4-31.4a3.65,3.65,0,0,1-2.14-3V53l5.41.55,32.61-18.81a11.4,11.4,0,0,1,10.3,0l49,28.26Z"/><path class="cls-48" d="M142.33,80.5V92.78l-54.4-31.4a3.65,3.65,0,0,1-2.14-3V53l5.41.55Z"/><path class="cls-49" d="M188.5,66.74l-35.88,20.7a11.36,11.36,0,0,1-10.31,0L87.91,56.05c-2.85-1.65-2.85-4.31,0-5.95l35.88-20.71a11.4,11.4,0,0,1,10.3,0l54.41,31.4C191.34,62.43,191.34,65.09,188.5,66.74Z"/><path class="cls-4" d="M189.17,63.61c0,.5-.49,1.07-1.31,1.55L168.63,76.25l-.3.18L152,85.86a9.68,9.68,0,0,1-8.65,0L125.71,75.7l-5.77-3.33-4.53-2.62-5.87-3.39L88.92,54.47c-.82-.48-1.31-1-1.31-1.55s.49-1.07,1.31-1.54l35.89-20.71a6.94,6.94,0,0,1,1.66-.67,10.57,10.57,0,0,1,5.2,0,6.89,6.89,0,0,1,1.79.7l54.4,31.4C188.68,62.54,189.17,63.12,189.17,63.61Z"/><path class="cls-1" d="M147.65,86.27a8.35,8.35,0,0,1-4-.93L126,75.17l-5.78-3.33-31-17.9c-.74-.43-1-.84-1-1s.27-.59,1-1l35.88-20.71a6.34,6.34,0,0,1,1.52-.6,9.62,9.62,0,0,1,2.5-.32,9.78,9.78,0,0,1,2.39.29,6.37,6.37,0,0,1,1.63.63l54.41,31.4c.73.43,1,.85,1,1s-.27.59-1,1l-19.23,11.1-.31.17-16.34,9.44A8.36,8.36,0,0,1,147.65,86.27Z"/><g class="cls-18"><ellipse class="cls-19" cx="176.34" cy="92.29" rx="12.09" ry="6.98"/></g><path class="cls-16" d="M176.33,97.88c-.14.31-1.27.36-2.42.3a14.92,14.92,0,0,1-2.45-.3,34,34,0,0,1-4.88-4.26c-.16-.3.31-1.57.31-1.57l2.14-.21,1.9-.19s2.1,2.48,2.62,2.94S176.58,97.28,176.33,97.88Z"/><path class="cls-16" d="M183.33,91.47c-.12.36-.28.62-.42.67-.4.14-4.38-3.1-4.78-3.68s-2.62-.84-2.75-1.2.31-1.45.31-1.45a12.51,12.51,0,0,1,1.77-.66c1-.28,2-.4,2.22.26.44,1.28,3.28,3.36,3.72,4A2.76,2.76,0,0,1,183.33,91.47Z"/><path class="cls-50" d="M173.91,98.18a14.92,14.92,0,0,1-2.45-.3,34,34,0,0,1-4.88-4.26c-.16-.3.31-1.57.31-1.57l2.14-.21c.5,1.18,1.64,3.72,2.73,4.69A21.78,21.78,0,0,0,173.91,98.18Z"/><path class="cls-51" d="M183.33,91.47c-.12.36-.28.62-.42.67-.4.14-4.38-3.1-4.78-3.68s-2.62-.84-2.75-1.2.31-1.45.31-1.45a12.51,12.51,0,0,1,1.77-.66,6.82,6.82,0,0,0,1.62,2.74A53.83,53.83,0,0,0,183.33,91.47Z"/><path class="cls-5" d="M180.46,84.38c0,.9,0,1.44,0,1.44a1.35,1.35,0,0,1-.79,1.08,3.47,3.47,0,0,1-1.33.42,5.22,5.22,0,0,1-.79,0,3.51,3.51,0,0,1-.65-.09,3.56,3.56,0,0,1-1-.36,1.34,1.34,0,0,1-.77-1.08S175,74,174.53,73.22a4.68,4.68,0,0,0-1.43-.89c-1.94-.9-5.16-2-5.4-2.13.17.24,3,4.09,3.39,5.3s.57,16.36.57,16.36a1.34,1.34,0,0,1-.8,1.1,4,4,0,0,1-1.69.44h-.43a3.81,3.81,0,0,1-1.65-.44,1.32,1.32,0,0,1-.78-1.13c0-.7-.33-12.82-.67-13.07s-8.47-6.21-9.88-8.39a4.07,4.07,0,0,1,0-3.45,11,11,0,0,1,.74-1.6,11.49,11.49,0,0,1,.62-1l.72.2,1.38.41.13,0,.16,0L167,63s11.79,5.69,12.68,7.72C180.38,72.38,180.46,81,180.46,84.38Z"/><path class="cls-5" d="M169.17,93.4h-.43a3.81,3.81,0,0,1-1.65-.44,1.32,1.32,0,0,1-.78-1.13c0-.7-.33-12.82-.67-13.07s-8.47-6.21-9.88-8.39a4.07,4.07,0,0,1,0-3.45,11,11,0,0,1,.74-1.6,11.49,11.49,0,0,1,.62-1l.72.2,1.38.41a33.73,33.73,0,0,0,.11,4.78c.25,1.15,5.89,5.54,8.13,7.24a2.46,2.46,0,0,1,1,1.83Z"/><path class="cls-5" d="M177.54,87.35a3.51,3.51,0,0,1-.65-.09,3.56,3.56,0,0,1-1-.36,1.34,1.34,0,0,1-.77-1.08S175,74,174.53,73.22a4.68,4.68,0,0,0-1.43-.89c-1.94-.9-5.16-2-5.4-2.13,0,0,7.24.38,8.64,2.44C177.44,74.24,177.54,83.4,177.54,87.35Z"/><polygon class="cls-1" points="170.94 79.73 170.94 79.1 160.71 73.19 160.71 73.82 170.94 79.73"/><polygon class="cls-7" points="184.87 71.05 184.87 71.69 170.94 79.73 170.94 79.1 184.87 71.05"/><polygon class="cls-52" points="170.94 79.1 177.91 75.07 184.87 71.05 174.64 65.14 160.71 73.19 170.94 79.1"/><path class="cls-53" d="M175.11,64.43l-1.22,1.3-1,1,0,0-1,1.09s-4.84-7.53-5.26-8-.29-2.79,0-8.75a22,22,0,0,1,.66-5.42,1.09,1.09,0,0,1,.18-.38.34.34,0,0,1,.1-.08c1.2.07,2.16,1.33,2.72,3.29s0,8.75,0,8.75Z"/><path class="cls-54" d="M172.87,66.81l-1,1.09s-4.84-7.53-5.26-8-.29-2.79,0-8.75a22,22,0,0,1,.66-5.42,1.09,1.09,0,0,1,.18-.38c.06,2.53.25,11.64.49,13.49Z"/><path class="cls-55" d="M175.38,65.19a3.8,3.8,0,0,1-1.83,2.89c-1,.59-1.84.24-1.84-.77a3.78,3.78,0,0,1,1.84-2.89C174.56,63.83,175.38,64.18,175.38,65.19Z"/><path class="cls-56" d="M169,54.14a17.61,17.61,0,0,0-1.75,3.92c-.14,1.12-.28,5-.28,5a5.8,5.8,0,0,1-1.85,2.11,8.61,8.61,0,0,1-4.73,1.53,14.58,14.58,0,0,1-3.64-.28A15.88,15.88,0,0,1,154,58.62a17.44,17.44,0,0,1-.05-1.93c0-.19,0-.38,0-.58a17,17,0,0,1,1-4.57l.12-.34s.49-.39,1.34-1a30.23,30.23,0,0,1,9.65-4.62,12.19,12.19,0,0,1,1.44-.28,2.54,2.54,0,0,1,.48.46C168.7,46.67,169.88,49,169,54.14Z"/><path class="cls-57" d="M159,56.61a7.46,7.46,0,0,0-2-6c2.44-1.44,7.94-4.51,11-4.88a2.54,2.54,0,0,0-.46-.46c-6.16.84-12.44,5.88-12.44,5.88l-.12.33a17.11,17.11,0,0,0-1,4.58c0,.2,0,.39,0,.58a17.44,17.44,0,0,0,.05,1.93,15.88,15.88,0,0,0,2.75,7.77,14.53,14.53,0,0,0,3.63.28C159.68,63.85,158.63,62.6,159,56.61Z"/><path class="cls-58" d="M167.68,67.37l-.3.46-1.6,2.43-.64,1-.11.17s-11.13-3.28-11.55-3.7-1.13-3.78-.84-9.73c.28-5.77,2.32-6.73,2.44-6.78a1.64,1.64,0,0,1,.71.19c.82.43,1.44,1.54,1.89,3.09.56,2-.57,9.8-.57,9.8Z"/><path class="cls-13" d="M178.09,69.71l-.49.35s-.06,0-.06,0l-.5.34s-1.7-3-2.47-2.93c-.4,0-.32.62-.16,1.17a8.8,8.8,0,0,0,.37,1,2.48,2.48,0,0,1-1.26-.48,3.66,3.66,0,0,1-.61-.87,3.3,3.3,0,0,1-.32-1.41,1.59,1.59,0,0,0-.42-1.08,4,4,0,0,1,.32-.48l.12-.15,0,0a3.45,3.45,0,0,1,.9-.77,4.3,4.3,0,0,0,1.59,1.28l.18,0a15.81,15.81,0,0,1,1.63.65,1.06,1.06,0,0,1,.59.74Z"/><path class="cls-59" d="M174.79,69.69a2.62,2.62,0,0,1-1.27-.49,3.66,3.66,0,0,1-.61-.87,3.3,3.3,0,0,1-.32-1.41,1.59,1.59,0,0,0-.42-1.08,4,4,0,0,1,.32-.48l.12-.15,0,0a6.76,6.76,0,0,0,2.14,4.49Z"/><polygon class="cls-7" points="173.28 69.56 170.94 79.1 184.87 71.05 187.22 61.52 173.28 69.56"/><polygon class="cls-60" points="172.9 69.34 173.28 69.56 187.22 61.52 186.84 61.3 172.9 69.34"/><polygon class="cls-1" points="170.94 79.1 170.56 78.88 172.9 69.34 173.28 69.56 170.94 79.1"/><path class="cls-13" d="M164,52a4.72,4.72,0,0,1-1.76-1.21,10.1,10.1,0,0,1-.87-1c-.33-.41-.6-.82-.81-1.14s-.43-.74-.43-.74l.26-1.29.77-.66s.37.06.88.2l0,0,.56.18c1,.35,2.19,1,2.39,2A5.15,5.15,0,0,1,164,52Z"/><g class="cls-26"><path class="cls-27" d="M162.25,50.81a10.1,10.1,0,0,1-.87-1c-.33-.41-.6-.82-.81-1.14s-.43-.74-.43-.74l.26-1.29.77-.66s.37.06.88.2l0,0,.56.18a1.77,1.77,0,0,1,.53,1A5,5,0,0,1,162.25,50.81Z"/></g><path class="cls-13" d="M165.07,49.87h-.17c-1.63.08-4.07-1.86-4.07-1.86l-.17-1.28s-.16.13-.86-.69c-.22-1.14-.56-3.23-1.11-5.17a3.32,3.32,0,0,1,1.25-1.57,5.56,5.56,0,0,1,4.43-.45,3.13,3.13,0,0,1,1.36.75,5.24,5.24,0,0,1,1.3,3.21C167.18,44,166.31,49.68,165.07,49.87Z"/><g class="cls-28"><path class="cls-61" d="M165.14,71.25a.26.26,0,0,1-.11.17s-11.13-3.28-11.55-3.7-1.13-3.78-.84-9.73c.28-5.77,2.32-6.73,2.44-6.78-1.61,4.2-.84,14.88-.84,14.88l10.84,3.59C164.85,69.68,165.26,70.79,165.14,71.25Z"/></g><path class="cls-62" d="M168.25,68.36a3.8,3.8,0,0,1-1.83,2.89c-1,.59-1.83.24-1.83-.77a3.82,3.82,0,0,1,1.83-2.9C167.43,67,168.25,67.35,168.25,68.36Z"/><path class="cls-13" d="M164.62,70.09l1.77,1.18a5.34,5.34,0,0,0,.66.38c.25,0,1.11.07,1.76.12a2.13,2.13,0,0,1,1.31.63.77.77,0,0,0,.4.23,1.07,1.07,0,0,0,.31,0,.84.84,0,0,0,.4-.17.91.91,0,0,0,.32-.4l.18-.44a1.24,1.24,0,0,0-.25-1.31l-1.78-1.82a.62.62,0,0,0-.57-.18l-.84.2h0a4,4,0,0,1-2.38-.51,4.32,4.32,0,0,0-.9,1.15l-.06.14A3.46,3.46,0,0,0,164.62,70.09Z"/><path class="cls-59" d="M170.83,72.63a1.07,1.07,0,0,1-.31,0,.77.77,0,0,1-.4-.23,2.11,2.11,0,0,0-1.31-.63c-.65,0-1.51-.12-1.76-.12a5.34,5.34,0,0,1-.66-.38l-1.77-1.18a3.46,3.46,0,0,1,.28-.8A6.76,6.76,0,0,0,167,70.45a5.11,5.11,0,0,1,2.48.6C169.74,71.27,170.39,72.07,170.83,72.63Z"/><path class="cls-63" d="M164.94,49.88h0c-1.63.08-4.07-1.86-4.07-1.86l-.17-1.28s-.16.13-.86-.69c-.22-1.14-.56-3.23-1.11-5.17a3.32,3.32,0,0,1,1.25-1.57l2.82,2.94a25.67,25.67,0,0,0,.1,5.39A4.54,4.54,0,0,0,164.94,49.88Z"/><path class="cls-16" d="M167.35,42.32c-.06.33-.09.67-.12,1s.07,1-.24,1.13c0-.1,0-.21,0-.31,0-.28.13-2.1-.51-1.84l-.06,0a1.32,1.32,0,0,1-.45.16.69.69,0,0,1-.22,0,10.85,10.85,0,0,1-3-.3.51.51,0,0,0-.42.27,3.15,3.15,0,0,0-.47,1.69,4.75,4.75,0,0,1,0,1.26l0,0a.27.27,0,0,1-.34,0l-.11-.13c-.2-.32,0-1.84-.76-1.63-.54.2-.86.78-.34,2.3a.56.56,0,0,0,0,.08l0,.08a6.51,6.51,0,0,1,.15,1h-.37a4.5,4.5,0,0,0-1-2.07A5.19,5.19,0,0,1,158,42.58a3.37,3.37,0,0,1,.07-1.78,4.82,4.82,0,0,1,1-1.37,4.88,4.88,0,0,1,3.59-1.21s2.78-.11,4,1.11a3.84,3.84,0,0,1,.67.9,1.79,1.79,0,0,1,.2.65A4.05,4.05,0,0,1,167.35,42.32Z"/><g class="cls-18"><ellipse class="cls-19" cx="39.46" cy="191.77" rx="9.91" ry="5.72"/></g><path class="cls-64" d="M71.81,94.14v61.07a1.5,1.5,0,0,1-1,1.59L67,159l-2.11-5L36.34,137.59a5.91,5.91,0,0,1-2.85-4.5V80.42l-3.24-7.59,3.84-2.22a2.14,2.14,0,0,1,2.25.2L69,89.65A5.89,5.89,0,0,1,71.81,94.14Z"/><path class="cls-65" d="M69,89.65,64.76,92,45.49,90.83l-12-10v-.39l-3.24-7.59,3.84-2.22a2.14,2.14,0,0,1,2.25.2Z"/><path class="cls-66" d="M29.3,135.47V74.4c0-1.58,1.27-2.12,2.85-1.21L64.77,92a5.94,5.94,0,0,1,2.85,4.5V157.6c0,1.57-1.28,2.11-2.85,1.2L32.15,140A5.9,5.9,0,0,1,29.3,135.47Z"/><path class="cls-5" d="M64.7,93.35,32.22,74.6c-.86-.49-1.55-.2-1.55.66v60.93a3.2,3.2,0,0,0,1.55,2.45L64.7,157.39c.85.5,1.55.2,1.55-.66V95.8A3.26,3.26,0,0,0,64.7,93.35Z"/><path class="cls-4" d="M36.83,123.5v5.61l-5.61-3.24v-4.61c0-.55.45-.74,1-.42Z"/><polygon class="cls-4" points="42.57 126.81 42.57 132.42 37.1 129.26 37.1 123.66 42.57 126.81"/><polygon class="cls-4" points="48.32 130.13 48.32 135.74 42.85 132.58 42.85 126.97 48.32 130.13"/><polygon class="cls-4" points="54.07 133.45 54.07 139.06 48.6 135.9 48.6 130.29 54.07 133.45"/><polygon class="cls-4" points="59.81 136.77 59.81 142.38 54.34 139.22 54.34 133.61 59.81 136.77"/><path class="cls-4" d="M65.7,141.17v4.6l-5.61-3.23v-5.61l4.61,2.66A2.09,2.09,0,0,1,65.7,141.17Z"/><polygon class="cls-4" points="65.7 146.05 65.7 151.52 60.09 148.28 60.09 142.81 65.7 146.05"/><path class="cls-4" d="M65.7,151.8v4.62c0,.55-.45.74-1,.42l-4.61-2.66v-5.62Z"/><polygon class="cls-4" points="59.81 148.4 59.81 154.02 54.34 150.86 54.34 145.24 59.81 148.4"/><polygon class="cls-4" points="54.07 145.08 54.07 150.71 48.6 147.55 48.6 141.92 54.07 145.08"/><polygon class="cls-4" points="48.32 141.76 48.32 147.39 42.85 144.23 42.85 138.6 48.32 141.76"/><polygon class="cls-4" points="42.57 138.44 42.57 144.07 37.1 140.91 37.1 135.29 42.57 138.44"/><path class="cls-4" d="M36.83,135.13v5.62l-4.61-2.66a2.09,2.09,0,0,1-1-1.58v-4.62Z"/><path class="cls-4" d="M32.22,115.33c-.55-.32-1-.13-1,.42v2.92a2.09,2.09,0,0,0,1,1.58l25.86,14.93v-4.92Z"/><path class="cls-4" d="M64.7,134.08a2.09,2.09,0,0,1,1,1.58v2.91c0,.56-.45.75-1,.43l-6-3.45v-4.92Z"/><polygon class="cls-4" points="36.83 129.38 36.83 134.85 31.22 131.61 31.22 126.14 36.83 129.38"/><polygon class="cls-4" points="42.57 132.7 42.57 138.17 37.1 135.01 37.1 129.54 42.57 132.7"/><polygon class="cls-4" points="48.32 136.01 48.32 141.49 42.85 138.33 42.85 132.85 48.32 136.01"/><polygon class="cls-4" points="54.07 139.33 54.07 144.81 48.6 141.65 48.6 136.17 54.07 139.33"/><polygon class="cls-4" points="59.81 142.65 59.81 148.13 54.34 144.96 54.34 139.49 59.81 142.65"/><path class="cls-5" d="M57.15,95.7l.89-.52a1.83,1.83,0,0,1,1.86.21l25.54,14.74c.19.53.22.59.41,1.12l-4.23,2.44v12a1.37,1.37,0,0,1-.56,1.23l-.78.45,0-.29a2.59,2.59,0,0,1-1.11-.37L59.9,115.55a5,5,0,0,1-2.43-3.83V96.41c0-.1,0-.2,0-.3Z"/><path class="cls-4" d="M85,111.74l-4.22,2.44v12c0,1.34-1.09,1.8-2.43,1L59.06,116.05a5.05,5.05,0,0,1-2.43-3.83V96.91c0-1.35,1.09-1.81,2.43-1L84.6,110.62C84.79,111.15,84.81,111.22,85,111.74Z"/><path class="cls-1" d="M85,111.74l-4.22,2.44v12c0,1.34-1.09,1.8-2.43,1L59.06,116.05a5.05,5.05,0,0,1-2.43-3.83V96.91c0-1.35,1.09-1.81,2.43-1L84.6,110.62C84.79,111.15,84.81,111.22,85,111.74Z"/><path class="cls-5" d="M59.79,101.61,77.62,111.9c.29.17.53.07.53-.22v-.09a1.12,1.12,0,0,0-.53-.84L59.79,100.46c-.29-.17-.53-.07-.53.23v.08A1.1,1.1,0,0,0,59.79,101.61Z"/><path class="cls-5" d="M59.79,106.84l17.83,10.29c.29.17.53.07.53-.22v-.09a1.1,1.1,0,0,0-.53-.83L59.79,105.7c-.29-.17-.53-.07-.53.22V106A1.1,1.1,0,0,0,59.79,106.84Z"/><path class="cls-5" d="M59.79,112.08l17.83,10.29c.29.17.53.07.53-.23v-.08a1.1,1.1,0,0,0-.53-.84L59.79,110.93c-.29-.17-.53-.07-.53.22v.09A1.12,1.12,0,0,0,59.79,112.08Z"/><path class="cls-13" d="M60.9,140.44a1.87,1.87,0,0,1-.37,0,.66.66,0,0,0-.54.36l-1.37,2.68-.28.55-1.18-2.21-.53-1a2.9,2.9,0,0,0,.3-1.48A14.7,14.7,0,0,1,57,137a.64.64,0,0,1,.2-.39c.68-.69,3.34-3.35,3.5-3.39a.65.65,0,0,1,.42.05.3.3,0,0,1,.13.12.45.45,0,0,1,0,.38,14.79,14.79,0,0,1-1.34,2.17l0,0A11.89,11.89,0,0,1,61.25,137a1.76,1.76,0,0,1,.44.63C61.8,138.15,61.44,140.36,60.9,140.44Z"/><g class="cls-26"><path class="cls-27" d="M61.15,133.24l-3.42,3.95v4.47l-.57.2-.53-1a2.9,2.9,0,0,0,.3-1.48A14.7,14.7,0,0,1,57,137a.64.64,0,0,1,.2-.39c.68-.69,3.34-3.35,3.5-3.39A.65.65,0,0,1,61.15,133.24Z"/></g><path class="cls-16" d="M39.87,196.05a2.66,2.66,0,0,0,1.72.73,1.1,1.1,0,0,0,.31,0c.8-.23,5-2.26,5.31-2.94a6.83,6.83,0,0,0,.63-2.71,1,1,0,0,0-.91-.37A16.67,16.67,0,0,1,43,191.77a1.45,1.45,0,0,0-.64.15,8.8,8.8,0,0,0-2.22,1.76S39.6,195.78,39.87,196.05Z"/><path class="cls-16" d="M31.49,191.39a.34.34,0,0,0,0,.2,1.48,1.48,0,0,0,1.26.9,4.4,4.4,0,0,0,1.33-.09,4,4,0,0,0,1.32-.66c.48-.34,1.19-1.55,2-2.06s2.11-1.47,2.11-1.47a6.35,6.35,0,0,0-.09-.92,8.42,8.42,0,0,0-2.54.11c-.36.11-2,1-2.44,1.22l-.14.08-2.55.9Z"/><path class="cls-13" d="M28.94,168.54c.09.43,2.55,2.23,2.55,2.23l.22-.46.73-1.49-1.68-4.34-1.27.21-.36.36S28.85,168.1,28.94,168.54Z"/><g class="cls-26"><path class="cls-27" d="M28.94,168.54c.09.43,2.55,2.23,2.55,2.23l.22-.46.73-1.49-1.68-4.34-1.27.21-.36.36S28.85,168.1,28.94,168.54Z"/></g><path class="cls-67" d="M31.07,151.35a12.16,12.16,0,0,0-1.14,4.54,22.94,22.94,0,0,0,.95,6.08c.23.87.46,1.62.62,2.07,0,.13.07.23.09.31a.63.63,0,0,1,.07.22.28.28,0,0,1,0,.09.91.91,0,0,1-.53.76,2.94,2.94,0,0,1-.63.24,2.8,2.8,0,0,1-.72.07,2.7,2.7,0,0,1-1.26-.31,1,1,0,0,1-.54-.7s-1.51-8.42-1.25-10.32,3.29-9.57,3.91-10.13a4,4,0,0,1,.67-.49,2.4,2.4,0,0,1,.55-.25s0,6.4,0,6.4A10.52,10.52,0,0,0,31.07,151.35Z"/><path class="cls-5" d="M44.71,179.49l-.53,14.36a1.1,1.1,0,0,1-.65.89,2.66,2.66,0,0,1-.82.29,3.46,3.46,0,0,1-1.81-.1,1.92,1.92,0,0,1-.46-.21,1.08,1.08,0,0,1-.64-.89l.06-14.2-3.13-8.3c-.39,2.13-1.06,5.92-1.15,7-.11,1.54,0,11.14,0,11.14a1.16,1.16,0,0,1-.66.9,2.82,2.82,0,0,1-.69.26,3.58,3.58,0,0,1-1.78,0,2.29,2.29,0,0,1-.62-.24,1.13,1.13,0,0,1-.64-.91s-.26-9.84-.18-10.38a43.8,43.8,0,0,0,.27-4.44c.05-2.44-.41-9.14-.41-9.14a8.2,8.2,0,0,1,.43-3c.2-.68.39-1.17.39-1.17l9,1.35,2.27.35C44.65,169.07,44.71,179.49,44.71,179.49Z"/><path class="cls-68" d="M32.51,190.61a2.11,2.11,0,0,1-.62-.24,1.11,1.11,0,0,1-.64-.9s-.3-9.84-.23-10.38a40.43,40.43,0,0,0,.25-4.45c0-2.43-.45-9.13-.45-9.13a8.18,8.18,0,0,1,.42-3L32.5,164a8.62,8.62,0,0,0-.15,4.38C32.84,170.7,32.56,187.75,32.51,190.61Z"/><path class="cls-69" d="M43.94,152.3c-.09.38-.2.75-.32,1.12a30.68,30.68,0,0,0-1,3.13c-.33,1.94.9,6.33.85,7.1,0,.52-.63,1.18-2.46,1.54a17.42,17.42,0,0,1-3.51.25,12.33,12.33,0,0,1-6-1.4,4.79,4.79,0,0,1-.82-.54l.2-1.53c.16-1.41.4-3.55.48-5.42a27.88,27.88,0,0,0-.29-5.2c-.11-1-.25-2-.34-3.07a8,8,0,0,1,1-4.48l.17-.27a2.74,2.74,0,0,1,.41,0,22.47,22.47,0,0,1,3.41.38,19.3,19.3,0,0,1,2.78.72,13.54,13.54,0,0,1,4.83,2.61,4.6,4.6,0,0,1,.72,1.34A6.89,6.89,0,0,1,43.94,152.3Z"/><path class="cls-70" d="M59.47,142.92a1.29,1.29,0,0,1-.13.59l-.08.12c-.67,1-5.63,8.53-6.26,8.94s-7.28.8-9.38.85h-.36c-1.39,0-2.41-.2-2.74-2.11a6.79,6.79,0,0,1-.1-.73,3.1,3.1,0,0,1,1.48-2.81,5.14,5.14,0,0,1,.7-.4,1.5,1.5,0,0,1,1.21,0,10.32,10.32,0,0,0,4.45.95,6.84,6.84,0,0,0,2.67-.57s5.16-7.37,5.16-7.37c.25-.53.89-.64,1.64-.21a3.69,3.69,0,0,1,1,.92A3.19,3.19,0,0,1,59.47,142.92Z"/><g class="cls-28"><path class="cls-29" d="M37.23,143.68a1.42,1.42,0,0,0,.32-.05l.19-.08a2.44,2.44,0,0,0,1.34-1.63l0-.16a2.44,2.44,0,0,0,.05-.76c0-.13,0-.28,0-.45.05-.87.45-1,.75-1.06s.36.89.36.89l.42-.14.06-1.36a.61.61,0,0,1,.15-.38c.32-.38,1.48-.62,1.48-2.07,0-.66-.71-3-4.22-3,1.11.58,3.06,1.8,2.11,3a7.66,7.66,0,0,0-1.64,4.73A3,3,0,0,1,37.23,143.68Z"/></g><path class="cls-71" d="M32.28,143.55a2.6,2.6,0,0,0-.4,0,2.84,2.84,0,0,0-.55.26,3.67,3.67,0,0,0-.68.49c-.62.56-3.64,8.25-3.91,10.13S28,164.72,28,164.72a1,1,0,0,0,.54.7,2.7,2.7,0,0,0,1.26.31c-.48-2.07-2.21-9.62-2.13-11.1.06-1.3,2.3-6.74,3.42-9.38a7.92,7.92,0,0,0-.35,3c.09,1.07.23,2.07.34,3.07a27.88,27.88,0,0,1,.29,5.2c-.08,1.87-.32,4-.48,5.42l-.2,1.53a4.79,4.79,0,0,0,.82.54,42.76,42.76,0,0,0-.17-14.32,9.09,9.09,0,0,1,.44-4.74c.24-.69,5.07.47,5.07.47l-1.15-1.53A22.68,22.68,0,0,0,32.28,143.55Z"/><path class="cls-72" d="M57.73,140.17s-3.74,7.44-6.8,7.58c0,0,5.16-7.37,5.16-7.37C56.34,139.85,57,139.74,57.73,140.17Z"/><path class="cls-73" d="M53,152.57c-.62.4-7.28.8-9.38.85h-.36c-1.39,0-2.41-.2-2.74-2.11C40.85,151.4,48.44,153.18,53,152.57Z"/><path class="cls-74" d="M41,179.55l-.07,15.38a1.92,1.92,0,0,1-.46-.21,1.08,1.08,0,0,1-.64-.89l.06-14.2-3.13-8.3Z"/><path class="cls-13" d="M41.53,137.82s0,.1,0,.24a20.86,20.86,0,0,1-.47,3.73,2.41,2.41,0,0,1-1.54,1.29.28.28,0,0,0-.19.28c0,1,.08,1.55.1,1.63a4,4,0,0,1-1.07.43,2.08,2.08,0,0,1-.5.07H37.8a5.56,5.56,0,0,1-2.67-.53.79.79,0,0,1-.46-.69c0,.1,0,.18,0-.21s0-.66,0-.95c0-.06,1.18-1.06,2.56-2.18,1.14-.91,2.42-1.91,3.29-2.52l.15-.11a7.39,7.39,0,0,1,.72-.46C41.48,137.78,41.54,137.77,41.53,137.82Z"/><path class="cls-16" d="M42.38,136.42a1.84,1.84,0,0,1-.86,1.64,2.78,2.78,0,0,0-.62.44.59.59,0,0,0-.14.38l-.07,1.37-.41.13s-.05-.95-.36-.89-.71.19-.76,1.06c0,.17,0,.32,0,.45a2.44,2.44,0,0,1-.05.76l0,.16a2.44,2.44,0,0,1-1.34,1.63l-.18.08a1.65,1.65,0,0,1-.33.05,5.31,5.31,0,0,1-2.59-.57,13.15,13.15,0,0,1-.88-2c-.11-.52-.61-1.65-.73-2.15-.3-1.27-.24-4.88,3.57-5.45a8.86,8.86,0,0,1,1.56-.12c3.23,0,4.09,2,4.2,2.81A.68.68,0,0,1,42.38,136.42Z"/><g class="cls-26"><path class="cls-27" d="M42.36,136.23c-.72.16-2.11-.26-2.87-.19-1.13.12-2.06,3.18-2.26,4.48a2.63,2.63,0,0,0,0,.41,7.76,7.76,0,0,0,.54,2.62l.06,1.94a5.56,5.56,0,0,1-2.67-.53.79.79,0,0,1-.46-.69c0,.1,0,.18,0-.21s0-.66,0-.95a13.15,13.15,0,0,1-.88-2c-.11-.52-.61-1.65-.73-2.15-.3-1.27-.24-4.88,3.57-5.45a8.86,8.86,0,0,1,1.56-.12C41.39,133.45,42.25,135.4,42.36,136.23Z"/></g><path class="cls-75" d="M379.2,115.73V176.8a1.48,1.48,0,0,0,1,1.58l3.84,2.23,2.11-5,28.54-16.48a5.92,5.92,0,0,0,2.86-4.5V102l3.23-7.6-3.84-2.21a2.12,2.12,0,0,0-2.25.2l-32.61,18.83A5.92,5.92,0,0,0,379.2,115.73Z"/><path class="cls-76" d="M382.06,111.23l4.19,2.38,19.27-1.19,12-10V102l3.23-7.6-3.84-2.21a2.12,2.12,0,0,0-2.25.2Z"/><path class="cls-77" d="M421.72,157.06V96c0-1.58-1.28-2.12-2.86-1.21l-32.61,18.83a5.92,5.92,0,0,0-2.86,4.5v61.07c0,1.58,1.28,2.12,2.86,1.21l32.61-18.83A5.92,5.92,0,0,0,421.72,157.06Z"/><path class="cls-1" d="M386.32,114.94l32.47-18.75c.86-.49,1.56-.2,1.56.66v60.93a3.23,3.23,0,0,1-1.56,2.45L386.32,179c-.86.49-1.55.2-1.55-.66V117.39A3.22,3.22,0,0,1,386.32,114.94Z"/><polygon class="cls-5" points="417.72 102.57 417.72 109.63 417.72 116.86 417.72 124.08 417.72 131.47 387.39 148.99 387.39 141.76 387.39 134.53 387.39 127.31 387.39 120.08 417.72 102.57"/><polygon class="cls-5" points="387.39 153 387.39 159.65 417.72 142.56 417.72 135.33 387.39 153"/><polygon class="cls-5" points="387.39 162.19 387.39 168.83 417.72 151.74 417.72 144.51 387.39 162.19"/><path class="cls-1" d="M402.56,115.79c2.45-1.42,4.44-.58,4.44,1.88v13.69a3.81,3.81,0,0,1-1.84,2.9l-5.21,3c-1,.58-1.83.24-1.83-.78v-13.7c0-2.45,2-5.59,4.44-7Z"/><path class="cls-78" d="M407,119.08v1.53l-1.49.85c-.42.25-.76.1-.76-.32a1.61,1.61,0,0,1,.76-1.21Z"/><path class="cls-79" d="M407,122.46V124l-1.49.86c-.42.24-.76.09-.76-.33a1.61,1.61,0,0,1,.76-1.21Z"/><path class="cls-80" d="M407,125.84v1.53l-1.49.86c-.42.24-.76.09-.76-.33a1.56,1.56,0,0,1,.76-1.2Z"/><path class="cls-81" d="M407,129.22v1.53l-1.49.85c-.42.25-.76.1-.76-.33a1.57,1.57,0,0,1,.76-1.19Z"/><path class="cls-82" d="M400.36,123.68a1.59,1.59,0,0,1-.76,1.2l-1.48.85v-1.52l1.48-.86C400,123.11,400.36,123.26,400.36,123.68Z"/><path class="cls-83" d="M400.36,127.06a1.57,1.57,0,0,1-.76,1.2l-1.48.86v-1.54l1.48-.85C400,126.48,400.36,126.63,400.36,127.06Z"/><path class="cls-84" d="M400.36,130.44a1.57,1.57,0,0,1-.76,1.2l-1.48.86V131l1.48-.86C400,129.87,400.36,130,400.36,130.44Z"/><path class="cls-85" d="M400.36,133.81a1.57,1.57,0,0,1-.76,1.21l-1.48.86v-1.53l1.48-.86C400,133.25,400.36,133.4,400.36,133.81Z"/><path class="cls-86" d="M408.73,145.27c-.18.26-.67.29-.67.29a.81.81,0,0,0,.28-.64,5.94,5.94,0,0,1-.31-1.18.14.14,0,0,1,.05-.08C408.33,144.1,408.86,145.06,408.73,145.27Z"/><path class="cls-7" d="M412.12,147.55l-.08.28-.29-.16-.51-.31-1.72-1-1.42-.81-.08,0-1.06-.62-.56-.32-.5-.29V144l.57.33.27.14,1.51.87.22.12,1.07.61,2,1.14.28.15.28.17Z"/><polygon class="cls-87" points="415.13 145.76 412.04 147.54 405.89 144 409.01 142.21 415.13 145.76"/><path class="cls-13" d="M413,143.59s-1.75-.88-2.14-.32a1.44,1.44,0,0,0,0,1.34s.51.2.6-.13l.1-.32,1.42,1.4,2.15-2.52Z"/><g class="cls-26"><path class="cls-27" d="M413,143.59s-1.75-.88-2.14-.32a1.44,1.44,0,0,0,0,1.34s.51.2.6-.13l.1-.32,1.42,1.4,2.15-2.52Z"/></g><path class="cls-13" d="M409.54,146.07a2.07,2.07,0,0,1,0,.29c-.1.54-.38,1.11-.41,1.44a8.08,8.08,0,0,1-.21.92l-.07.22-.17,0-.13,0-.21,0-.5.11-.16-.13a1.74,1.74,0,0,1,.59-1l.08,0-.52-1.46-.85-1.64,1.06.62,0,.05a1.58,1.58,0,0,0,.19-.22.57.57,0,0,0,.09-.41,7.7,7.7,0,0,1-.3-1.2.1.1,0,0,1,.05-.07c.1-.12.36-.14.64.37A5.37,5.37,0,0,1,409.54,146.07Z"/><path class="cls-13" d="M408.33,148l-.08,0a1.74,1.74,0,0,0-.59,1,2.59,2.59,0,0,1-.8-.91,8.73,8.73,0,0,1-.77-2.11.38.38,0,0,1,0-.1s0-.09,0-.15.05-.22.08-.36.06-.28.1-.41.07-.3.1-.42l.56.32.85,1.64Z"/><g class="cls-26"><path class="cls-27" d="M408.33,148l-.08,0a1.74,1.74,0,0,0-.59,1,2.59,2.59,0,0,1-.8-.91,8.73,8.73,0,0,1-.77-2.11.38.38,0,0,1,0-.1s0-.09,0-.15.05-.22.08-.36.06-.28.1-.41.07-.3.1-.42l.56.32.85,1.64Z"/></g><g class="cls-26"><path class="cls-27" d="M408.66,149l-.13,0-.21,0-.5.11-.16-.13a1.74,1.74,0,0,1,.59-1l.08,0,.3.88Z"/></g><path class="cls-88" d="M429,149a3,3,0,0,1-1.45.47,2.93,2.93,0,0,1-1.44-.06c-.23-.17-.18-5.08-.1-8.79,0-2.28.1-4.11.1-4.11s2.21,1.06,2.59,4.75S429.44,148.58,429,149Z"/><path class="cls-89" d="M427.57,149.5a2.93,2.93,0,0,1-1.44-.06c-.23-.17-.18-5.08-.1-8.79a1.57,1.57,0,0,0,.15-.36c.12.11,1.11.66,1.11.66S427.88,147.53,427.57,149.5Z"/><path class="cls-16" d="M426.88,184.44c-.1.61-1.18,1.25-2.56.76l-.12,0c-1.44-.57-1.36-1.68-2.61-2.9a3.33,3.33,0,0,1-1.27-2.54c.05-.19,2.29.27,3.29.48a2.46,2.46,0,0,1,.61.26,16.51,16.51,0,0,1,2.47,1.9A8.26,8.26,0,0,1,426.88,184.44Z"/><path class="cls-90" d="M424.32,185.2l-.12,0c-1.44-.57-1.36-1.68-2.61-2.9a3.33,3.33,0,0,1-1.27-2.54c.05-.19,2.29.27,3.29.48a2.46,2.46,0,0,1,.61.26,29.77,29.77,0,0,0-.18,4.15A1.47,1.47,0,0,0,424.32,185.2Z"/><g class="cls-18"><path class="cls-19" d="M424.86,179.46c3.73,2.15,3.73,5.64,0,7.79a14.89,14.89,0,0,1-13.51,0c-3.72-2.15-3.72-5.64,0-7.79A14.89,14.89,0,0,1,424.86,179.46Z"/></g><path class="cls-16" d="M416.81,189.28h-.4a20,20,0,0,1-3.13-.43c-1.42-.23-2,.09-3.55-.45a1.83,1.83,0,0,1-1.32-1.56c0-.23.27-.52.5-.53,3.07-.13,5.11-.4,5.11-.4a10.79,10.79,0,0,1,1.36,0c1.11,0,2.53.21,2.69,1C418.35,188.27,418,189.22,416.81,189.28Z"/><path class="cls-91" d="M416.41,189.29a20,20,0,0,1-3.13-.43c-1.42-.23-2,.09-3.55-.45a1.83,1.83,0,0,1-1.32-1.56c0-.23.27-.52.5-.53,3.07-.13,5.11-.4,5.11-.4a10.79,10.79,0,0,1,1.36,0l-.09,1.83A12.63,12.63,0,0,0,416.41,189.29Z"/><path class="cls-5" d="M427.23,158.39s-.48,6.66-.44,9.08a37.25,37.25,0,0,0,.25,4.41c.07.53-.23,10.32-.23,10.32a1.11,1.11,0,0,1-.64.89,3.48,3.48,0,0,1-2.39.27,3,3,0,0,1-.69-.27,1.09,1.09,0,0,1-.63-.89s.09-9.54,0-11.07c-.07-1.08-.73-4.84-1.1-7l-3.15,8.24v14.11a1.08,1.08,0,0,1-.64.88,3.34,3.34,0,0,1-2.26.3,2.67,2.67,0,0,1-.82-.3,1.07,1.07,0,0,1-.63-.88l-.47-14.27s.1-10.36,1.91-16.41l2.26-.33,8.9-1.31A11.53,11.53,0,0,1,427.23,158.39Z"/><path class="cls-92" d="M423.92,171.88l-.14,11.48a3,3,0,0,1-.69-.27,1.09,1.09,0,0,1-.63-.89s.09-9.54,0-11.07c-.07-1.08-.73-4.84-1.1-7l1.38-2.48Z"/><path class="cls-93" d="M415.3,171c-.18,2.3-.06,12.9,0,16.71a2.67,2.67,0,0,1-.82-.3,1.07,1.07,0,0,1-.63-.88l-.47-14.27s.1-10.36,1.91-16.41l2.26-.33.72,2.23S415.53,168.16,415.3,171Z"/><path class="cls-94" d="M427.31,156.4l-.2.15a4.56,4.56,0,0,1-.61.38,12.34,12.34,0,0,1-5.93,1.39,21.72,21.72,0,0,1-2.44-.1,9.34,9.34,0,0,1-1.05-.16,4,4,0,0,1-2.15-.92,1,1,0,0,1-.29-.61c-.05-.75,1.17-5.12.84-7a31.88,31.88,0,0,0-1-3.11c-.12-.37-.23-.74-.33-1.13a6.77,6.77,0,0,1-.06-3.68,4,4,0,0,1,.72-1.35L415,140c.16-.13.39-.31.72-.53l.54-.34c.3-.19.64-.37,1-.58l.41-.19.26-.12.46-.2.19-.08.21-.07c.24-.1.48-.18.74-.27l.11,0a20.23,20.23,0,0,1,2.64-.68l1-.17a23,23,0,0,1,2.75-.22,1.93,1.93,0,0,1,.18.28,7.94,7.94,0,0,1,1,4.45c-.09,1.06-.23,2-.34,3a30.46,30.46,0,0,0-.29,5.18c.09,1.85.32,4,.48,5.38Z"/><path class="cls-95" d="M417.08,158.07c-1.82-.36-2.41-1-2.44-1.53-.05-.76,1.17-5.12.84-7a32.81,32.81,0,0,0-1-3.12q-.18-.54-.33-1.11l2.55-1.63s.61,4.79,1,7C417.91,152.43,417.34,156.43,417.08,158.07Z"/><path class="cls-96" d="M420.57,137.82a40.47,40.47,0,0,0-4.94,3.22c-.45.35-.69.22-1.56.53a4,4,0,0,1,.72-1.35L415,140a7.16,7.16,0,0,1,.72-.53,6.36,6.36,0,0,1,.54-.34c.3-.19.64-.37,1-.58l.41-.19.26-.12.46-.2.4-.15c.24-.1.48-.18.74-.27Z"/><path class="cls-97" d="M426.3,136.82h-.18c-.82.07-2.06.22-2.75.3l-.53.06-.51-.26,1-.17a23,23,0,0,1,2.75-.22S426.2,136.66,426.3,136.82Z"/><path class="cls-13" d="M423.38,136.13c0,.29,0,.63,0,.94s0,.3,0,.22a.84.84,0,0,1-.47.68,5.53,5.53,0,0,1-2.69.52,2.1,2.1,0,0,1-.51-.06,3.68,3.68,0,0,1-1.06-.44c0-.08.05-.59.1-1.61a.28.28,0,0,0-.19-.28,2.36,2.36,0,0,1-1.52-1.29,22.12,22.12,0,0,1-.49-3.93s.05,0,.17,0a7.74,7.74,0,0,1,.71.45l.16.12C419.49,132.83,423.38,136,423.38,136.13Z"/><g class="cls-26"><path class="cls-27" d="M419.69,136.16v2.27a3.68,3.68,0,0,1-1.06-.44c0-.08.05-.59.1-1.61a.28.28,0,0,0-.19-.28,2.36,2.36,0,0,1-1.52-1.29,22.12,22.12,0,0,1-.49-3.93s.05,0,.17,0c.28.27.56.48.71.45h0s.08,0,.11.13c.19.67.64.51,1,.86S419.69,136.16,419.69,136.16Z"/></g><path class="cls-16" d="M425,132c-.12.5-.61,1.62-.71,2.12a13.73,13.73,0,0,1-.88,2,5.3,5.3,0,0,1-2.58.57,1.07,1.07,0,0,1-.32-.06l-.19-.08A2.38,2.38,0,0,1,419,135l0-.16a2.44,2.44,0,0,1-.05-.76,3.22,3.22,0,0,0,0-.44c0-.87-.44-1-.74-1.06s-.36.88-.36.88l-.42-.13-.06-1.35a.59.59,0,0,0-.14-.38c-.33-.37-1.48-.62-1.47-2.06,0-.66.7-3,4.19-3a9.81,9.81,0,0,1,1.55.12C425.21,127.18,425.27,130.78,425,132Z"/><g class="cls-28"><path class="cls-29" d="M420.8,136.7a1.07,1.07,0,0,1-.32-.06l-.19-.08A2.38,2.38,0,0,1,419,135l0-.16a2.44,2.44,0,0,1-.05-.76,3.22,3.22,0,0,0,0-.44c0-.87-.44-1-.74-1.06s-.36.88-.36.88l-.42-.13-.06-1.35a.59.59,0,0,0-.14-.38c-.33-.37-1.48-.62-1.47-2.06,0-.66.7-3,4.19-3-1.1.57-3,1.79-2.09,2.93a7.63,7.63,0,0,1,1.62,4.7A3,3,0,0,0,420.8,136.7Z"/></g><path class="cls-98" d="M416.72,144.2v.07a9.11,9.11,0,0,1-.1,1.33,6.61,6.61,0,0,1-1.23,3,.59.59,0,0,1-.1.11,45.61,45.61,0,0,1-1.59,5.18c-.13.38-.29.76-.44,1.1-.59,1.28-1.23,2.23-1.84,2.2h-.06a.92.92,0,0,1-.35-.14,2.21,2.21,0,0,1-.52-.47,4.6,4.6,0,0,1-.43-.58,19,19,0,0,1-1.52-3.45c-.24-.72-.45-1.4-.59-2a8,8,0,0,1-.27-1.18.23.23,0,0,1,0-.07c0-.07,0-.1,0-.16a.86.86,0,0,1,0-.16,1.74,1.74,0,0,1,.59-1l.08,0a.57.57,0,0,1,.15-.12.81.81,0,0,1,.41-.12.54.54,0,0,1,.22.05.46.46,0,0,1,.15.16s.07.16.21.43.3.64.5,1c.29.62.62,1.31.84,1.81.15.28.24.5.29.6,0-.12,0-.41.08-.82.08-.61.21-1.5.41-2.52,0-.1,0-.18.05-.27s.06-.38.1-.57l.06-.26c0-.16.06-.28.09-.4s.11-.44.15-.66l.34-1.33c.07-.24.14-.47.22-.7s.16-.53.25-.78a7,7,0,0,1,1.94-3.31,4.36,4.36,0,0,1,.78.72l.08.09a4.83,4.83,0,0,1,1,2.61.09.09,0,0,1,0,.05A4.24,4.24,0,0,1,416.72,144.2Z"/><path class="cls-99" d="M415.65,141c-1.81.84-4.53,12.86-4.53,12.86a9.2,9.2,0,0,1,0-2s0,0,0,0c0-.87,1.26-10,3.68-11.64a4.11,4.11,0,0,1,.78.71Z"/><path class="cls-100" d="M411.42,157.19h-.06a.92.92,0,0,1-.35-.14,2.21,2.21,0,0,1-.52-.47,4.6,4.6,0,0,1-.43-.58,19,19,0,0,1-1.52-3.45c-.24-.72-.45-1.4-.59-2a8,8,0,0,1-.27-1.18.23.23,0,0,1,0-.07c0-.07,0-.1,0-.16a.86.86,0,0,1,0-.16,1.74,1.74,0,0,1,.59-1l.26.91s0,0,0,.06c.1.33.2.68.32,1.06.18.61.39,1.28.61,2,.41,1.28.85,2.58,1.25,3.61l.28.66A7.77,7.77,0,0,0,411.42,157.19Z"/><path class="cls-1" d="M367,27.33a5.22,5.22,0,0,1,.86-3.07l-.07-.29,1.08-.64c1.44-.86,3.58-.69,6,.69,4.34,2.5,7.85,8,7.85,12.37s-7.85,10.84-7.85,10.84l-1,.59-1.44-5.69C370.09,37.19,367,30.05,367,27.33Z"/><path class="cls-101" d="M366,27.93c0,4.33,7.84,19.89,7.84,19.89s7.84-6.5,7.84-10.83-3.51-9.87-7.84-12.38S366,23.6,366,27.93Z"/><path class="cls-4" d="M373.83,38.22c3.18,1.84,5.77.75,5.77-2.43s-2.59-7.26-5.77-9.1-5.77-.74-5.77,2.44S370.65,36.39,373.83,38.22Z"/><path class="cls-102" d="M289,151.76a5.1,5.1,0,0,0-.86-3.06l.07-.3-1.08-.64c-1.44-.85-3.58-.69-6,.69-4.33,2.5-7.85,8-7.85,12.37s7.85,10.84,7.85,10.84l1,.6,1.44-5.69C285.9,161.62,289,154.48,289,151.76Z"/><path class="cls-103" d="M290,152.36c0,4.33-7.85,19.9-7.85,19.9s-7.84-6.51-7.84-10.84,3.51-9.87,7.84-12.37S290,148,290,152.36Z"/><path class="cls-4" d="M282.16,162.66c-3.18,1.83-5.76.74-5.76-2.44s2.58-7.26,5.76-9.1,5.77-.74,5.77,2.44S285.34,160.82,282.16,162.66Z"/><polygon class="cls-1" points="432.88 112.1 431.38 112.97 431.38 115.73 432.88 114.87 435.3 115 435.3 109.17 432.88 112.1"/><path class="cls-1" d="M437.15,114.39a.36.36,0,0,1-.2.06c-.21,0-.29-.2-.18-.47.89-2.23.89-4.28,0-5.48-.11-.15,0-.46.18-.69s.48-.3.59-.15c1,1.37,1,3.72,0,6.27A.94.94,0,0,1,437.15,114.39Z"/><path class="cls-1" d="M438.79,114.29a.6.6,0,0,1-.2.07c-.21,0-.3-.2-.19-.48,1.17-2.92,1.17-5.6,0-7.17-.11-.15,0-.46.19-.69s.47-.3.58-.15c1.3,1.74,1.3,4.72,0,8A1,1,0,0,1,438.79,114.29Z"/><path class="cls-1" d="M440.42,114.2a.56.56,0,0,1-.2.06c-.21,0-.29-.2-.18-.47,1.44-3.61,1.44-6.93,0-8.87-.11-.15,0-.46.18-.69s.47-.3.58-.15c1.58,2.12,1.58,5.73,0,9.66A.92.92,0,0,1,440.42,114.2Z"/><path class="cls-5" d="M341,52.87l.84-.49,31.34,18.09a5.05,5.05,0,0,1,2.43,3.83V89.61a1.37,1.37,0,0,1-.56,1.23l-.85.49-.34-.39a2.67,2.67,0,0,1-.68-.3L348.05,76.16a5.05,5.05,0,0,1-2.43-3.83v-12L342,54.08Z"/><path class="cls-4" d="M340.55,53.52l4.23,7.32v12a5.05,5.05,0,0,0,2.43,3.83l25.08,14.48c1.34.77,2.43.31,2.43-1V74.79A5.05,5.05,0,0,0,372.29,71L341,52.87Z"/><path class="cls-1" d="M340.55,53.52l4.23,7.32v12a5.05,5.05,0,0,0,2.43,3.83l25.08,14.48c1.34.77,2.43.31,2.43-1V74.79A5.05,5.05,0,0,0,372.29,71L341,52.87Z"/><path class="cls-5" d="M351.27,64.2l17.82,10.3c.3.17.53.07.53-.23v-.08a1.08,1.08,0,0,0-.53-.84L351.27,63.06c-.29-.17-.53-.07-.53.22v.09A1.09,1.09,0,0,0,351.27,64.2Z"/><path class="cls-5" d="M351.27,69.44l17.82,10.29c.3.17.53.07.53-.22v-.09a1.09,1.09,0,0,0-.53-.84L351.27,68.29c-.29-.17-.53-.07-.53.22v.09A1.12,1.12,0,0,0,351.27,69.44Z"/><path class="cls-5" d="M351.27,74.67,369.09,85c.3.17.53.07.53-.22v-.09a1.09,1.09,0,0,0-.53-.84L351.27,73.52c-.29-.17-.53-.07-.53.23v.08A1.1,1.1,0,0,0,351.27,74.67Z"/><path class="cls-1" d="M337.32,131.25l.89-.52a1.85,1.85,0,0,1,1.86.21l25.54,14.74c.19.53.21.6.41,1.12l-4.23,2.44v12a1.37,1.37,0,0,1-.56,1.23l-.78.45,0-.29a2.46,2.46,0,0,1-1.11-.37l-19.29-11.13a5.05,5.05,0,0,1-2.43-3.84V132a2.64,2.64,0,0,1,0-.29Z"/><path class="cls-4" d="M365.17,147.29,361,149.73v12c0,1.34-1.09,1.8-2.43,1L339.23,151.6a5.05,5.05,0,0,1-2.43-3.83V132.46c0-1.34,1.09-1.8,2.43-1l25.54,14.75Z"/><path class="cls-5" d="M365.17,147.29,361,149.73v12c0,1.34-1.09,1.8-2.43,1L339.23,151.6a5.05,5.05,0,0,1-2.43-3.83V132.46c0-1.34,1.09-1.8,2.43-1l25.54,14.75Z"/><path class="cls-1" d="M345.19,147.6a.5.5,0,0,1-.25-.39V144c0-.13.11-.18.25-.1a.53.53,0,0,1,.25.39v3.26C345.44,147.64,345.32,147.68,345.19,147.6Z"/><path class="cls-1" d="M346,148.08a.52.52,0,0,1-.25-.39v-3.26c0-.14.11-.19.25-.11a.52.52,0,0,1,.25.4V148C346.26,148.11,346.15,148.16,346,148.08Z"/><path class="cls-1" d="M346.83,150.38a.53.53,0,0,1-.25-.39v-6.91c0-.14.12-.19.25-.11a.52.52,0,0,1,.25.39v6.92C347.08,150.42,347,150.46,346.83,150.38Z"/><path class="cls-1" d="M347.71,149.41l-.11-.07a.37.37,0,0,1-.19-.3V145c0-.11.08-.14.19-.08l.11.06a.4.4,0,0,1,.2.31v4.06C347.91,149.43,347.82,149.47,347.71,149.41Z"/><path class="cls-1" d="M348.53,148.91l-.1-.06a.42.42,0,0,1-.2-.32v-2.09c0-.12.09-.15.2-.09l.1.05a.44.44,0,0,1,.2.32v2.1C348.73,148.93,348.64,149,348.53,148.91Z"/><path class="cls-1" d="M343.58,146.05l-.09-.05a.42.42,0,0,1-.2-.32v-2.1c0-.11.09-.15.2-.08l.09.05a.41.41,0,0,1,.21.32V146C343.79,146.08,343.7,146.12,343.58,146.05Z"/><path class="cls-1" d="M352.64,151.28l-.09-.05a.42.42,0,0,1-.2-.32v-2.1c0-.11.09-.15.2-.08l.09.05a.41.41,0,0,1,.21.32v2.1C352.85,151.31,352.76,151.35,352.64,151.28Z"/><path class="cls-1" d="M349.41,148.79l-.21-.12a.32.32,0,0,1-.15-.23v-1c0-.08.07-.11.15-.06l.21.12a.29.29,0,0,1,.14.23v1C349.55,148.81,349.49,148.84,349.41,148.79Z"/><path class="cls-1" d="M340.2,142.87v-.05c0-.12.1-.16.22-.09L357,152.32a.47.47,0,0,1,.22.35v.05c0,.13-.1.17-.22.1l-16.62-9.59A.5.5,0,0,1,340.2,142.87Z"/><path class="cls-1" d="M355.17,152.12,355,152a.3.3,0,0,1-.14-.23v-1c0-.08.06-.11.14-.06l.21.12a.28.28,0,0,1,.15.22v1C355.32,152.14,355.25,152.16,355.17,152.12Z"/><path class="cls-1" d="M353.53,151.17l-.21-.12a.32.32,0,0,1-.15-.23v-1c0-.07.07-.1.15-.06l.21.13a.27.27,0,0,1,.14.22v1C353.67,151.19,353.61,151.21,353.53,151.17Z"/><path class="cls-1" d="M354.35,151.64l-.21-.12a.29.29,0,0,1-.14-.23v-1c0-.08.06-.11.14-.06l.21.12a.3.3,0,0,1,.14.23v1C354.49,151.66,354.43,151.69,354.35,151.64Z"/><path class="cls-1" d="M342,144.51l-.21-.12a.32.32,0,0,1-.15-.23v-1c0-.08.07-.11.15-.06l.21.12a.3.3,0,0,1,.14.23v1C342.14,144.53,342.08,144.56,342,144.51Z"/><path class="cls-1" d="M342.82,145l-.21-.13a.27.27,0,0,1-.14-.22v-1c0-.08.06-.1.14-.06l.21.12a.3.3,0,0,1,.14.23v1C343,145,342.9,145,342.82,145Z"/><path class="cls-1" d="M344.47,145.94l-.21-.12a.32.32,0,0,1-.15-.23v-1c0-.07.07-.1.15-.06l.21.13a.27.27,0,0,1,.14.22v1C344.61,146,344.55,146,344.47,145.94Z"/><path class="cls-1" d="M350.15,150.14l0,0a.47.47,0,0,1-.22-.35v-2.65c0-.12.1-.16.22-.09l0,0a.45.45,0,0,1,.23.35V150C350.38,150.17,350.28,150.21,350.15,150.14Z"/><path class="cls-1" d="M351,151.6a.52.52,0,0,1-.25-.39v-4.59c0-.14.11-.19.25-.11a.52.52,0,0,1,.25.39v4.59C351.2,151.63,351.09,151.68,351,151.6Z"/><path class="cls-1" d="M351.77,151.41a.54.54,0,0,1-.24-.4v-3.25c0-.14.11-.19.24-.11a.52.52,0,0,1,.25.39v3.26C352,151.44,351.91,151.49,351.77,151.41Z"/><path class="cls-1" d="M340.91,143.26c0,.39-.32.52-.71.3a1.46,1.46,0,0,1-.71-1.12c0-.4.31-.53.71-.31A1.49,1.49,0,0,1,340.91,143.26Z"/><path class="cls-104" d="M223.42,7.17l-.9-.52a2,2,0,0,0-2.08.22l-36.73,21.2c-.21.58-.23.65-.44,1.24L188,32V47.77a1.51,1.51,0,0,0,.61,1.35l.92.53.3-.39a2.93,2.93,0,0,0,.86-.36l29.8-17.2a5.58,5.58,0,0,0,2.69-4.25V8a2.09,2.09,0,0,0,0-.45Z"/><path class="cls-1" d="M223.42,7.17l-.9-.52a2,2,0,0,0-2.08.22l-36.73,21.2c-.21.58-.23.65-.44,1.24L188,32V47.77a1.51,1.51,0,0,0,.61,1.35l.92.53.3-.39a2.93,2.93,0,0,0,.86-.36l29.8-17.2a5.58,5.58,0,0,0,2.69-4.25V8a2.09,2.09,0,0,0,0-.45Z"/><path class="cls-5" d="M184.2,29.85l4.68,2.7V48.31c0,1.48,1.21,2,2.7,1.14l29.79-17.21A5.56,5.56,0,0,0,224.06,28V8.55c0-1.49-1.2-2-2.69-1.14l-36.72,21.2Z"/><path class="cls-1" d="M200,35c-.17.1-.31,0-.31-.13v-4a.62.62,0,0,1,.31-.48c.17-.1.31,0,.31.13v4A.65.65,0,0,1,200,35Z"/><path class="cls-1" d="M201,34.45c-.17.1-.31,0-.31-.13v-4a.63.63,0,0,1,.31-.48c.17-.1.31,0,.31.13v4A.63.63,0,0,1,201,34.45Z"/><path class="cls-1" d="M202.06,36.13c-.17.09-.31,0-.31-.13V27.44a.63.63,0,0,1,.31-.48c.17-.1.31,0,.31.13v8.55A.65.65,0,0,1,202.06,36.13Z"/><path class="cls-1" d="M213.44,29.56c-.17.09-.31,0-.31-.13V20.87a.62.62,0,0,1,.31-.48c.17-.1.31,0,.31.13v8.55A.65.65,0,0,1,213.44,29.56Z"/><path class="cls-1" d="M203.15,33.66l-.14.08c-.13.08-.24,0-.24-.1v-5a.52.52,0,0,1,.24-.38l.14-.08c.13-.07.23,0,.23.1v5A.47.47,0,0,1,203.15,33.66Z"/><path class="cls-1" d="M215.41,26.58l-.14.08c-.13.08-.24,0-.24-.1v-5a.52.52,0,0,1,.24-.38l.14-.08c.13-.07.24,0,.24.1v5A.48.48,0,0,1,215.41,26.58Z"/><path class="cls-1" d="M204.15,31.88,204,32c-.14.08-.25,0-.25-.11V29.25a.52.52,0,0,1,.25-.4l.11-.07c.14-.08.25,0,.25.11v2.59A.52.52,0,0,1,204.15,31.88Z"/><path class="cls-1" d="M198,35.41l-.11.06c-.14.08-.25,0-.25-.1V32.78a.52.52,0,0,1,.25-.4l.11-.07c.14-.08.25,0,.25.11V35A.52.52,0,0,1,198,35.41Z"/><path class="cls-1" d="M209.24,28.94l-.11.07c-.14.08-.25,0-.25-.11V26.31a.52.52,0,0,1,.25-.4l.11-.07c.14-.08.26,0,.26.11v2.59A.53.53,0,0,1,209.24,28.94Z"/><path class="cls-1" d="M205.24,30.48l-.26.15c-.09.05-.17,0-.17-.08V29.36a.38.38,0,0,1,.17-.28l.26-.15c.1-.06.18,0,.18.07v1.2A.39.39,0,0,1,205.24,30.48Z"/><path class="cls-1" d="M193.85,36.31v-.06a.71.71,0,0,1,.36-.49l26.51-15.3c.2-.11.36-.08.36.07v.06a.71.71,0,0,1-.36.49l-26.51,15.3C194,36.49,193.85,36.46,193.85,36.31Z"/><path class="cls-1" d="M212.37,26.36l-.26.15c-.09.06-.17,0-.17-.08V25.24a.38.38,0,0,1,.17-.28l.26-.15c.1,0,.18,0,.18.08v1.19A.37.37,0,0,1,212.37,26.36Z"/><path class="cls-1" d="M210.34,27.54l-.26.15c-.1,0-.18,0-.18-.08V26.42a.35.35,0,0,1,.18-.28l.26-.15c.09-.06.17,0,.17.07v1.2A.4.4,0,0,1,210.34,27.54Z"/><path class="cls-1" d="M216.41,24l-.26.15c-.1.06-.18,0-.18-.08V22.91a.37.37,0,0,1,.18-.28l.26-.15c.1-.06.18,0,.18.08v1.19A.37.37,0,0,1,216.41,24Z"/><path class="cls-1" d="M211.36,27l-.27.15c-.09,0-.17,0-.17-.08V25.83a.38.38,0,0,1,.17-.28l.27-.15c.09-.06.17,0,.17.07v1.2A.38.38,0,0,1,211.36,27Z"/><path class="cls-1" d="M196.08,35.77l-.26.15c-.1.06-.18,0-.18-.08V34.65a.37.37,0,0,1,.18-.28l.26-.15c.09-.06.17,0,.17.08v1.19A.38.38,0,0,1,196.08,35.77Z"/><path class="cls-1" d="M197.1,35.18l-.27.15c-.09.06-.17,0-.17-.07v-1.2a.4.4,0,0,1,.17-.28l.27-.15c.09-.05.17,0,.17.08V34.9A.38.38,0,0,1,197.1,35.18Z"/><path class="cls-1" d="M199.13,34l-.26.15c-.1.06-.18,0-.18-.07V32.89a.35.35,0,0,1,.18-.28l.26-.15c.1-.06.18,0,.18.07v1.19A.35.35,0,0,1,199.13,34Z"/><path class="cls-1" d="M206.16,31.09l-.06,0c-.15.09-.28,0-.28-.12V27.73a.6.6,0,0,1,.28-.44l.06,0c.15-.09.28,0,.28.12v3.26A.6.6,0,0,1,206.16,31.09Z"/><path class="cls-1" d="M207.15,31.75c-.17.1-.31,0-.31-.13V25.94a.65.65,0,0,1,.31-.49c.17-.09.31,0,.31.13v5.68A.65.65,0,0,1,207.15,31.75Z"/><path class="cls-1" d="M214.33,27.6c-.17.1-.31,0-.31-.13V21.79a.63.63,0,0,1,.31-.48c.17-.1.31,0,.31.13v5.68A.63.63,0,0,1,214.33,27.6Z"/><path class="cls-1" d="M208.17,30.34c-.17.09-.31,0-.31-.13v-4a.65.65,0,0,1,.31-.49c.17-.1.31,0,.31.13v4A.65.65,0,0,1,208.17,30.34Z"/><path class="cls-1" d="M194.73,35.77a1.81,1.81,0,0,1-.88,1.39c-.49.28-.88.11-.88-.37a1.81,1.81,0,0,1,.88-1.39C194.34,35.12,194.73,35.29,194.73,35.77Z"/><path class="cls-1" d="M407.67,75.46c-.16.09-.28,0-.28-.11V71.69a.57.57,0,0,1,.28-.44c.15-.09.28,0,.28.12V75A.58.58,0,0,1,407.67,75.46Z"/><path class="cls-1" d="M408.59,74.93c-.15.09-.28,0-.28-.12V71.16a.57.57,0,0,1,.28-.44c.16-.09.28,0,.28.11v3.66A.57.57,0,0,1,408.59,74.93Z"/><path class="cls-1" d="M409.52,76.45c-.16.09-.28,0-.28-.12V68.57a.57.57,0,0,1,.28-.44c.15-.09.27,0,.27.12V76A.59.59,0,0,1,409.52,76.45Z"/><path class="cls-1" d="M419.84,70.49c-.15.09-.28,0-.28-.12V62.61a.58.58,0,0,1,.28-.44c.16-.09.28,0,.28.11v7.77A.57.57,0,0,1,419.84,70.49Z"/><path class="cls-1" d="M410.5,74.21l-.12.08c-.12.07-.22,0-.22-.09V69.64a.45.45,0,0,1,.22-.34l.12-.08c.12-.06.22,0,.22.1v4.55A.45.45,0,0,1,410.5,74.21Z"/><path class="cls-1" d="M421.63,67.79l-.13.07c-.12.07-.21,0-.21-.09V63.21a.44.44,0,0,1,.21-.34l.13-.07c.12-.07.22,0,.22.09v4.56A.45.45,0,0,1,421.63,67.79Z"/><path class="cls-1" d="M411.42,72.6l-.11.06c-.12.07-.23,0-.23-.1V70.21a.48.48,0,0,1,.23-.36l.11-.06c.12-.08.22,0,.22.09v2.36A.5.5,0,0,1,411.42,72.6Z"/><path class="cls-1" d="M405.87,75.8l-.1.06c-.13.07-.23,0-.23-.1V73.41a.46.46,0,0,1,.23-.36l.1-.06c.13-.07.23,0,.23.1v2.35A.47.47,0,0,1,405.87,75.8Z"/><path class="cls-1" d="M416,69.93l-.11.06c-.12.07-.22,0-.22-.1V67.54a.47.47,0,0,1,.22-.36l.11-.06c.12-.07.22,0,.22.1v2.35A.49.49,0,0,1,416,69.93Z"/><path class="cls-1" d="M412.41,71.32l-.24.14c-.09.05-.16,0-.16-.07V70.31a.35.35,0,0,1,.16-.26l.24-.13c.09,0,.16,0,.16.07v1.08A.32.32,0,0,1,412.41,71.32Z"/><path class="cls-1" d="M402.07,76.61v0a.61.61,0,0,1,.32-.44l24.06-13.89c.18-.1.32-.07.32.07v.05a.61.61,0,0,1-.32.44L402.39,76.68C402.21,76.78,402.07,76.75,402.07,76.61Z"/><path class="cls-1" d="M418.88,67.59l-.24.13c-.09,0-.16,0-.16-.06V66.57a.32.32,0,0,1,.16-.25l.24-.14c.09-.05.16,0,.16.07v1.08A.34.34,0,0,1,418.88,67.59Z"/><path class="cls-1" d="M417,68.65l-.24.14c-.09,0-.16,0-.16-.07V67.64a.32.32,0,0,1,.16-.25l.24-.14c.09,0,.16,0,.16.07V68.4A.32.32,0,0,1,417,68.65Z"/><path class="cls-1" d="M422.54,65.47l-.24.14c-.09,0-.16,0-.16-.07V64.46a.35.35,0,0,1,.16-.26l.24-.13c.09,0,.16,0,.16.07v1.08A.32.32,0,0,1,422.54,65.47Z"/><path class="cls-1" d="M418,68.12l-.23.14c-.09,0-.17,0-.17-.07V67.11a.35.35,0,0,1,.17-.26l.23-.13c.09-.06.16,0,.16.06v1.09A.32.32,0,0,1,418,68.12Z"/><path class="cls-1" d="M404.09,76.12l-.24.14c-.09,0-.16,0-.16-.07V75.11a.32.32,0,0,1,.16-.25l.24-.14c.09,0,.16,0,.16.07v1.08A.32.32,0,0,1,404.09,76.12Z"/><path class="cls-1" d="M405,75.59l-.23.14c-.09,0-.17,0-.17-.07V74.58a.35.35,0,0,1,.17-.26l.23-.13c.09,0,.16,0,.16.06v1.09A.32.32,0,0,1,405,75.59Z"/><path class="cls-1" d="M406.86,74.52l-.24.14c-.08,0-.16,0-.16-.07V73.51a.35.35,0,0,1,.16-.25l.24-.14c.09-.05.16,0,.16.07v1.08A.32.32,0,0,1,406.86,74.52Z"/><path class="cls-1" d="M413.24,71.88l-.05,0c-.14.09-.26,0-.26-.1v-3a.53.53,0,0,1,.26-.4l.05,0c.14-.08.25,0,.25.11v3A.54.54,0,0,1,413.24,71.88Z"/><path class="cls-1" d="M414.14,72.48c-.16.09-.28,0-.28-.12V67.21a.54.54,0,0,1,.28-.44c.15-.09.28,0,.28.11V72A.6.6,0,0,1,414.14,72.48Z"/><path class="cls-1" d="M420.65,68.71c-.15.09-.28,0-.28-.11V63.44a.6.6,0,0,1,.28-.44c.16-.09.28,0,.28.12v5.15A.54.54,0,0,1,420.65,68.71Z"/><path class="cls-1" d="M415.06,71.19c-.15.09-.28,0-.28-.11V67.42a.6.6,0,0,1,.28-.44c.16-.09.28,0,.28.12v3.65A.54.54,0,0,1,415.06,71.19Z"/><path class="cls-1" d="M402.87,76.13a1.67,1.67,0,0,1-.8,1.26c-.44.25-.8.1-.8-.34a1.67,1.67,0,0,1,.8-1.26C402.51,75.54,402.87,75.69,402.87,76.13Z"/><g class="cls-3"><polygon class="cls-1" points="128.85 42.29 128.85 43.46 110.89 53.89 110.9 52.72 128.85 42.29"/><polygon class="cls-5" points="110.9 52.72 110.89 53.89 90.11 41.9 90.12 40.73 110.9 52.72"/><g class="cls-105"><polygon class="cls-5" points="128.85 42.29 110.9 52.72 90.12 40.73 108.07 30.29 128.85 42.29"/></g></g><g class="cls-3"><polygon class="cls-106" points="112.08 36.8 112.08 37.66 110.23 38.73 110.23 37.88 112.08 36.8"/><polygon class="cls-107" points="105.1 40.86 105.1 41.71 103.25 42.79 103.25 41.93 105.1 40.86"/><polygon class="cls-108" points="103.25 41.93 103.25 42.79 102.32 37.14 102.32 36.28 103.25 41.93"/><polygon class="cls-109" points="112.27 44.99 112.26 45.85 105.1 41.71 105.1 40.86 112.27 44.99"/><polygon class="cls-110" points="117.4 42.01 117.39 42.87 112.26 45.85 112.27 44.99 117.4 42.01"/><polygon class="cls-1" points="112.08 36.8 110.23 37.88 117.4 42.01 112.27 44.99 105.1 40.86 103.25 41.93 102.32 36.28 112.08 36.8"/></g><polygon class="cls-1" points="24.21 105.89 41.6 115.93 41.6 89.23 24.21 79.19 24.21 105.89"/><polygon class="cls-5" points="43.04 88.4 25.65 78.36 24.21 79.19 41.6 89.23 43.04 88.4"/><polygon class="cls-5" points="43.04 88.4 43.04 115.09 41.6 115.93 41.6 89.23 43.04 88.4"/><g class="cls-3"><polygon class="cls-111" points="28.09 95.28 28.83 94.85 30.69 95.93 29.95 96.36 28.09 95.28"/><polygon class="cls-112" points="36.98 100.41 37.72 99.98 33.25 103.57 32.51 104 36.98 100.41"/><polygon class="cls-113" points="35.12 99.34 35.85 98.91 37.72 99.98 36.98 100.41 35.12 99.34"/><polygon class="cls-114" points="29.98 88.13 30.71 87.7 35.88 90.68 35.14 91.11 29.98 88.13"/><polygon class="cls-115" points="35.14 91.11 35.88 90.68 35.85 98.91 35.12 99.34 35.14 91.11"/><polygon class="cls-116" points="35.12 99.34 36.98 100.41 32.51 104 28.09 95.28 29.95 96.36 29.98 88.13 35.14 91.11 35.12 99.34"/></g><g class="cls-3"><polygon class="cls-117" points="253.25 54.06 252.64 53.7 262.44 43.82 263.05 44.17 253.25 54.06"/><polygon class="cls-118" points="243.44 55.5 242.82 55.14 252.64 53.7 253.25 54.06 243.44 55.5"/><polygon class="cls-119" points="243.44 55.5 242.82 55.14 242.81 52.54 243.43 52.9 243.44 55.5"/><polygon class="cls-120" points="243.46 65.52 242.85 65.17 242.81 52.54 243.43 52.9 243.46 65.52"/><polygon class="cls-121" points="263.04 41.57 263.05 44.17 253.25 54.06 243.44 55.5 243.43 52.9 263.04 41.57"/><polygon class="cls-122" points="243.43 52.9 242.81 52.54 262.43 41.21 263.04 41.57 243.43 52.9"/><polygon class="cls-123" points="243.43 52.9 243.44 55.5 253.25 54.06 263.05 44.17 263.08 54.2 243.46 65.52 243.43 52.9"/></g><g class="cls-3"><polygon class="cls-117" points="263.69 53.2 263.08 52.84 272.88 42.96 273.49 43.31 263.69 53.2"/><polygon class="cls-118" points="253.87 54.64 253.26 54.28 263.08 52.84 263.69 53.2 253.87 54.64"/><polygon class="cls-119" points="253.87 54.64 253.26 54.28 253.25 51.68 253.87 52.03 253.87 54.64"/><polygon class="cls-124" points="253.9 64.66 253.29 64.3 253.25 51.68 253.87 52.03 253.9 64.66"/><polygon class="cls-125" points="273.48 40.71 273.49 43.31 263.69 53.2 253.87 54.64 253.87 52.03 273.48 40.71"/><polygon class="cls-126" points="253.87 52.03 253.25 51.68 272.87 40.35 273.48 40.71 253.87 52.03"/><polygon class="cls-127" points="253.87 52.03 253.87 54.64 263.69 53.2 273.49 43.31 273.52 53.34 253.9 64.66 253.87 52.03"/></g><g class="cls-3"><g class="cls-3"><path class="cls-1" d="M214.66,87.18l.74.43a1.2,1.2,0,0,0-1.23.12l-.74-.43A1.2,1.2,0,0,1,214.66,87.18Z"/><g class="cls-128"><g class="cls-3"><path class="cls-1" d="M214.17,87.73l-.74-.43a1.34,1.34,0,0,1,.24-.12l.74.43-.24.12Z"/><path class="cls-1" d="M214.41,87.61l-.74-.43a1,1,0,0,1,.2-.07l.74.43a1,1,0,0,0-.2.07Z"/><path class="cls-1" d="M214.61,87.54l-.74-.43.16,0,.74.43-.16,0Z"/><path class="cls-1" d="M214.77,87.5l-.74-.43h.12l.74.43Z"/><path class="cls-1" d="M214.89,87.49l-.74-.43h.12l.74.43Z"/><path class="cls-1" d="M215,87.49l-.74-.43h.1l.74.43Z"/><path class="cls-1" d="M215.11,87.5l-.74-.43.1,0,.74.43-.1,0Z"/><path class="cls-1" d="M215.21,87.53l-.74-.43a.32.32,0,0,1,.09,0l.74.43a.32.32,0,0,0-.09,0Z"/><path class="cls-1" d="M215.3,87.56l-.74-.43.09,0,.74.43-.09,0Z"/><path class="cls-1" d="M215.39,87.6l-.74-.43.75.44Z"/></g></g></g><g class="cls-3"><path class="cls-2" d="M181.39,119l-.74-.43a1.19,1.19,0,0,1-.5-1.1l.74.43A1.19,1.19,0,0,0,181.39,119Z"/><g class="cls-129"><g class="cls-3"><path class="cls-2" d="M181.39,119l-.74-.43a1.19,1.19,0,0,1-.5-1.1l.74.43a1.19,1.19,0,0,0,.5,1.1Z"/></g></g></g><polygon class="cls-2" points="180.89 117.86 180.15 117.43 180.12 108.52 180.86 108.94 180.89 117.86"/><polygon class="cls-1" points="182.59 105.96 181.84 105.53 213.43 87.3 214.17 87.73 182.59 105.96"/><g class="cls-3"><path class="cls-1" d="M180.86,109l-.74-.43a3.8,3.8,0,0,1,1.73-3l.73.43A3.82,3.82,0,0,0,180.86,109Z"/><g class="cls-130"><g class="cls-3"><path class="cls-1" d="M180.86,109l-.74-.43c0-.12,0-.23,0-.34l.74.43c0,.11,0,.22,0,.34Z"/><path class="cls-1" d="M180.88,108.61l-.74-.43c0-.08,0-.16,0-.24l.74.43c0,.08,0,.16,0,.24Z"/><path class="cls-1" d="M180.92,108.37l-.74-.43a1.46,1.46,0,0,0,0-.2l.74.43c0,.06,0,.13-.05.2Z"/><path class="cls-1" d="M181,108.17l-.74-.43.06-.18.74.43-.06.18Z"/><path class="cls-1" d="M181,108l-.74-.43.06-.16.74.43a1,1,0,0,0-.06.16Z"/><path class="cls-1" d="M181.09,107.83l-.74-.43.06-.16.74.43-.06.16Z"/><path class="cls-1" d="M181.15,107.67l-.74-.43a1,1,0,0,1,.07-.15l.74.43a1,1,0,0,0-.07.15Z"/><path class="cls-1" d="M181.22,107.52l-.74-.43.07-.14.74.43c0,.05,0,.09-.07.14Z"/><path class="cls-1" d="M181.29,107.38l-.74-.43a1.09,1.09,0,0,0,.08-.15l.74.43a1.09,1.09,0,0,1-.08.15Z"/><path class="cls-1" d="M181.37,107.23l-.74-.43.09-.14.74.43-.09.14Z"/><path class="cls-1" d="M181.46,107.09l-.74-.43.1-.15.74.43-.1.15Z"/><path class="cls-1" d="M181.56,106.94l-.74-.43.12-.16.74.43-.12.16Z"/><path class="cls-1" d="M181.68,106.78l-.74-.43a1.15,1.15,0,0,1,.14-.17l.74.43a1.15,1.15,0,0,0-.14.17Z"/><path class="cls-1" d="M181.82,106.61l-.74-.43a1.8,1.8,0,0,1,.19-.2l.74.43a1.8,1.8,0,0,0-.19.2Z"/><path class="cls-1" d="M182,106.41l-.74-.43a2.74,2.74,0,0,1,.58-.45l.73.43a3,3,0,0,0-.57.45Z"/></g></g></g><path class="cls-5" d="M214.17,87.73c1-.56,1.73-.11,1.73,1l0,8.92a3.8,3.8,0,0,1-1.73,3l-31.58,18.23c-1,.55-1.73.12-1.73-1l0-8.91a3.82,3.82,0,0,1,1.72-3Z"/></g><path class="cls-5" d="M195.36,107.06a6.33,6.33,0,0,1-3,.46l-.23,0,.23-.29a17.74,17.74,0,0,1,3-3,6.38,6.38,0,0,1,3-.47l.23,0-.23.3A18.5,18.5,0,0,1,195.36,107.06Zm-2.56,0a5.49,5.49,0,0,0,2.56-.42,15,15,0,0,0,2.56-2.54,5.49,5.49,0,0,0-2.56.42A15,15,0,0,0,192.8,107.1Z"/><path class="cls-5" d="M196.66,104.87a2.68,2.68,0,0,1-1.3,2c-.72.42-1.3.17-1.3-.55a2.68,2.68,0,0,1,1.3-2.05C196.08,103.9,196.66,104.15,196.66,104.87Z"/><path class="cls-1" d="M211.91,93.31a3.41,3.41,0,0,0-1.21,1.26,1.19,1.19,0,0,0-1.21.13,3.33,3.33,0,0,0-1.6,2.52c0,.89,2.81,1.74,2.81,1.74s2.8-4.1,2.8-5S212.79,92.8,211.91,93.31Z"/><path class="cls-1" d="M187.05,108.36l-1.76,1v1.33a3,3,0,0,1,.73-.59c.76-.44,1.27-.21,1.27.69a3,3,0,0,1-1.56,2.42,1.42,1.42,0,0,1-1.33.2l.36-.57a1,1,0,0,0,1-.13,1.8,1.8,0,0,0,.92-1.56c0-.7-.36-.73-.82-.46a2.4,2.4,0,0,0-.64.52l-.49.28v-2.27l2.44-1.41Z"/><path class="cls-1" d="M191,107.86a3.43,3.43,0,0,1-1.5,3.2c-1,.58-1.51,0-1.51-1.46a3.41,3.41,0,0,1,1.51-3.19C190.49,105.82,191,106.37,191,107.86Zm-2.37,1.37c0,1.33.3,1.67.87,1.34s.86-1,.86-2.34-.31-1.65-.86-1.33S188.61,107.91,188.61,109.23Z"/><path class="cls-1" d="M202.39,99.5l-1.76,1v1.33a3.18,3.18,0,0,1,.72-.6c.76-.44,1.28-.2,1.28.69a3,3,0,0,1-1.56,2.43,1.38,1.38,0,0,1-1.33.19l.36-.56a1,1,0,0,0,1-.13,1.81,1.81,0,0,0,.93-1.57c0-.69-.36-.73-.83-.46a2.82,2.82,0,0,0-.64.53l-.48.28v-2.27L202.48,99Z"/><path class="cls-1" d="M206.32,99a3.45,3.45,0,0,1-1.51,3.21c-1,.58-1.51,0-1.51-1.46a3.43,3.43,0,0,1,1.51-3.2C205.82,97,206.32,97.52,206.32,99ZM204,100.37c0,1.33.3,1.67.86,1.34s.86-1,.86-2.33-.3-1.66-.86-1.34S204,99.05,204,100.37Z"/><path class="cls-1" d="M178.23,135.74l1,.58a1.65,1.65,0,0,0-1.67.17l-1-.59A1.64,1.64,0,0,1,178.23,135.74Z"/><g class="cls-131"><g class="cls-3"><path class="cls-1" d="M177.57,136.49l-1-.59a2.49,2.49,0,0,1,.33-.16l1,.58a2.59,2.59,0,0,0-.33.17Z"/><path class="cls-1" d="M177.9,136.32l-1-.58.27-.1,1,.59-.27.09Z"/><path class="cls-1" d="M178.17,136.23l-1-.59.21,0,1,.58-.21,0Z"/><path class="cls-1" d="M178.38,136.18l-1-.58.18,0,1,.59Z"/><path class="cls-1" d="M178.56,136.17l-1-.59h.15l1,.59Z"/><path class="cls-1" d="M178.71,136.17l-1-.59.15,0,1,.58Z"/><path class="cls-1" d="M178.85,136.18l-1-.58.13,0,1,.58-.14,0Z"/><path class="cls-1" d="M179,136.21l-1-.58.12,0,1,.59-.12,0Z"/><path class="cls-1" d="M179.11,136.26l-1-.59.12.06,1,.59-.12-.06Z"/><path class="cls-1" d="M179.23,136.32l-1-.59,1,.59Z"/></g></g><path class="cls-1" d="M149.16,178.75l-1-.59a1.64,1.64,0,0,1-.68-1.51l1,.59A1.68,1.68,0,0,0,149.16,178.75Z"/><g class="cls-132"><g class="cls-3"><path class="cls-1" d="M149.16,178.75l-1-.59a1.64,1.64,0,0,1-.68-1.51l1,.59a1.68,1.68,0,0,0,.69,1.51Z"/></g></g><polygon class="cls-1" points="148.47 177.24 147.47 176.65 147.41 155.44 148.41 156.03 148.47 177.24"/><polygon class="cls-1" points="150.76 151.96 149.75 151.38 176.56 135.9 177.57 136.49 150.76 151.96"/><path class="cls-1" d="M148.41,156l-1-.59a5.15,5.15,0,0,1,2.34-4.06l1,.58A5.19,5.19,0,0,0,148.41,156Z"/><g class="cls-133"><g class="cls-3"><path class="cls-1" d="M148.41,156l-1-.59a3.67,3.67,0,0,1,0-.46l1,.59a3.55,3.55,0,0,0,0,.46Z"/><path class="cls-1" d="M148.44,155.57l-1-.59c0-.11,0-.21.05-.32l1,.58-.06.33Z"/><path class="cls-1" d="M148.5,155.24l-1-.58a2.68,2.68,0,0,1,.07-.27l1,.58a2.68,2.68,0,0,0-.07.27Z"/><path class="cls-1" d="M148.57,155l-1-.58a2.17,2.17,0,0,1,.07-.24l1,.58a2.17,2.17,0,0,0-.07.24Z"/><path class="cls-1" d="M148.64,154.73l-1-.58.08-.23,1,.59a2,2,0,0,0-.08.22Z"/><path class="cls-1" d="M148.72,154.51l-1-.59.09-.21,1,.59-.09.21Z"/><path class="cls-1" d="M148.81,154.3l-1-.59.09-.2,1,.58-.09.21Z"/><path class="cls-1" d="M148.9,154.09l-1-.58c0-.07.07-.14.1-.2l1,.58c0,.07-.07.14-.1.2Z"/><path class="cls-1" d="M149,153.89l-1-.58.11-.2,1,.58c0,.07-.07.14-.11.2Z"/><path class="cls-1" d="M149.11,153.69l-1-.58a1.37,1.37,0,0,1,.13-.2l1,.58-.12.2Z"/><path class="cls-1" d="M149.23,153.49l-1-.58.13-.21,1,.59c-.05.07-.09.14-.14.2Z"/><path class="cls-1" d="M149.37,153.29l-1-.59.16-.21,1,.59-.16.21Z"/><path class="cls-1" d="M149.53,153.08l-1-.59a2.11,2.11,0,0,1,.19-.23l1,.59a2.11,2.11,0,0,0-.19.23Z"/><path class="cls-1" d="M149.72,152.85l-1-.59A2.23,2.23,0,0,1,149,152l1,.58a3.45,3.45,0,0,0-.26.28Z"/><path class="cls-1" d="M150,152.57l-1-.58a3.67,3.67,0,0,1,.78-.61l1,.58a4,4,0,0,0-.78.61Z"/></g></g><path class="cls-5" d="M177.57,136.49c1.3-.75,2.36-.15,2.36,1.34L180,159a5.19,5.19,0,0,1-2.35,4.07l-26.8,15.48c-1.3.75-2.36.14-2.37-1.35L148.41,156a5.19,5.19,0,0,1,2.35-4.07Z"/><path class="cls-11" d="M149.78,178.38c-.7,0-.78-.8-.78-1.14L148.94,156a4.67,4.67,0,0,1,2.08-3.61l26.81-15.48a1.71,1.71,0,0,1,.79-.25c.71,0,.78.8.79,1.14l.06,21.22a4.68,4.68,0,0,1-2.09,3.6l-26.8,15.48A1.63,1.63,0,0,1,149.78,178.38Z"/><path class="cls-5" d="M153.75,170.24a.35.35,0,0,1-.25.06c-.17,0-.2-.29-.07-.56l4.44-8.85a.89.89,0,0,1,.3-.36.28.28,0,0,1,.31,0l2.65,1.62,4.89-9.65a1,1,0,0,1,.28-.33.33.33,0,0,1,.3-.08l3.47,1.14L173.8,147c.16-.26.42-.41.57-.34s.15.35,0,.62l-4,6.61c-.15.25-.38.4-.54.35l-3.44-1.13-4.93,9.73a.86.86,0,0,1-.3.35.31.31,0,0,1-.31.05l-2.64-1.63-4.14,8.26A.79.79,0,0,1,153.75,170.24Z"/><path class="cls-5" d="M159.16,160.35a2.18,2.18,0,0,1-1,1.65c-.54.34-1,.14-1-.44a2.17,2.17,0,0,1,1-1.65C158.72,159.58,159.16,159.77,159.16,160.35Z"/><path class="cls-5" d="M162.12,162a2.17,2.17,0,0,1-1,1.65c-.54.33-1,.14-1-.44a2.18,2.18,0,0,1,1-1.65C161.69,161.25,162.12,161.45,162.12,162Z"/><path class="cls-5" d="M167.31,152a2.22,2.22,0,0,1-1,1.66c-.54.33-1,.13-1-.45a2.19,2.19,0,0,1,1-1.65C166.87,151.27,167.31,151.47,167.31,152Z"/><path class="cls-5" d="M171.12,153a2.17,2.17,0,0,1-1,1.65c-.54.34-1,.14-1-.44a2.17,2.17,0,0,1,1-1.65C170.69,152.18,171.12,152.38,171.12,153Z"/><path class="cls-5" d="M175.06,146.55a2.22,2.22,0,0,1-1,1.65c-.54.33-1,.13-1-.45a2.21,2.21,0,0,1,1-1.65C174.62,145.77,175.06,146,175.06,146.55Z"/><path class="cls-134" d="M124.07,127.4l-1.17-.67a2.64,2.64,0,0,0-2.7.28L91.1,143.84c-.28.76-.31.86-.59,1.61L96.6,149v20.48a2,2,0,0,0,.8,1.76l1.18.69.39-.51a4.56,4.56,0,0,0,1.13-.46l20.1-11.64a7.26,7.26,0,0,0,3.5-5.52V128.49a2.65,2.65,0,0,0-.06-.58Z"/><path class="cls-1" d="M124.07,127.4l-1.17-.67a2.64,2.64,0,0,0-2.7.28L91.1,143.84c-.28.76-.31.86-.59,1.61L96.6,149v20.48a2,2,0,0,0,.8,1.76l1.18.69.39-.51a4.56,4.56,0,0,0,1.13-.46l20.1-11.64a7.26,7.26,0,0,0,3.5-5.52V128.49a2.65,2.65,0,0,0-.06-.58Z"/><path class="cls-5" d="M91.73,146.16l6.08,3.51v20.48c0,1.93,1.57,2.59,3.51,1.48L121.41,160a7.28,7.28,0,0,0,3.5-5.53V129.19c0-1.93-1.57-2.59-3.5-1.48l-29.1,16.84C92,145.31,92,145.4,91.73,146.16Z"/><path class="cls-135" d="M114.23,151.6a5.53,5.53,0,0,0-2.47.85,10.12,10.12,0,0,0-2.48,2,6.84,6.84,0,0,0-1.1,1.92l.43,2.74c0,.16.17.35.67.35a5.52,5.52,0,0,0,2.48-.85,9.88,9.88,0,0,0,2.47-2,2.46,2.46,0,0,0,.68-1.14l.42-3.23A1.4,1.4,0,0,0,114.23,151.6Z"/><path class="cls-1" d="M117.64,145.17c0-3.37-2.84-4.44-6.25-2.26-3,1.89-5.34,5.68-5.51,8.72a4.33,4.33,0,0,0,.44,2.33c.37.67,1.1,1.16,1.44,1.9l.31.77c0,.19.21.41.79.41a6.41,6.41,0,0,0,2.9-1,11.66,11.66,0,0,0,2.89-2.34,2.78,2.78,0,0,0,.79-1.33l.31-1.12c.35-1.15,1.08-2.49,1.45-3.59A8.08,8.08,0,0,0,117.64,145.17Z"/></g></g></svg>