<?xml version="1.0" encoding="utf-8"?>
<!-- Generator: Adobe Illustrator 23.0.2, SVG Export Plug-In . SVG Version: 6.00 Build 0)  -->
<svg version="1.0" id="Layer_1" xmlns="http://www.w3.org/2000/svg" xmlns:xlink="http://www.w3.org/1999/xlink" x="0px" y="0px"
	 viewBox="0 0 1451.34 1451.34" style="enable-background:new 0 0 1451.34 1451.34;" xml:space="preserve">
<style type="text/css">
	.st0{fill:url(#SVGID_1_);}
	.st1{fill:url(#SVGID_2_);}
	.st2{fill:#E1EDF9;}
	.st3{fill:#1D4499;}
	.st4{fill:url(#SVGID_3_);}
	.st5{fill:#C8DBE9;}
	.st6{fill:#FFFFFF;}
	.st7{fill:url(#SVGID_4_);}
	.st8{fill:url(#SVGID_5_);}
	.st9{fill:url(#SVGID_6_);}
	.st10{fill:url(#SVGID_7_);}
	.st11{fill:url(#SVGID_8_);}
	.st12{fill:url(#SVGID_9_);}
	.st13{fill:#D2E7EC;}
	.st14{fill:url(#SVGID_10_);}
	.st15{fill:url(#SVGID_11_);}
	.st16{fill:url(#SVGID_12_);}
	.st17{fill:url(#SVGID_13_);}
	.st18{opacity:0.5;fill:url(#SVGID_14_);}
	.st19{fill:url(#SVGID_15_);}
	.st20{opacity:0.5;fill:url(#SVGID_16_);}
	.st21{fill:url(#SVGID_17_);}
	.st22{fill:url(#SVGID_18_);}
	.st23{fill:#5667B0;}
	.st24{fill:url(#SVGID_19_);}
	.st25{fill:url(#SVGID_20_);}
	.st26{fill:url(#SVGID_21_);}
	.st27{fill:url(#SVGID_22_);}
	.st28{fill:url(#SVGID_23_);}
	.st29{fill:url(#SVGID_24_);}
	.st30{enable-background:new    ;}
	.st31{fill:url(#SVGID_25_);}
	.st32{fill:url(#SVGID_26_);}
	.st33{fill:url(#SVGID_27_);}
	.st34{fill:url(#SVGID_28_);}
	.st35{fill:url(#SVGID_29_);}
	.st36{fill:url(#SVGID_30_);}
	.st37{fill:url(#SVGID_31_);}
	.st38{fill:url(#SVGID_32_);}
	.st39{fill:url(#SVGID_33_);}
	.st40{fill:url(#SVGID_34_);}
	.st41{fill:#FFFFFA;}
	.st42{fill:url(#SVGID_35_);}
	.st43{fill:url(#SVGID_36_);}
	.st44{fill:url(#SVGID_37_);}
	.st45{fill:url(#SVGID_38_);}
	.st46{fill:url(#SVGID_39_);}
	.st47{fill:url(#SVGID_40_);}
	.st48{fill:url(#SVGID_41_);}
	.st49{fill:url(#SVGID_42_);}
	.st50{fill:url(#SVGID_43_);}
	.st51{fill:url(#SVGID_44_);}
	.st52{fill:#F3CBB0;}
	.st53{fill:url(#SVGID_45_);}
	.st54{fill:none;stroke:#F7FBFE;stroke-width:0.1191;stroke-miterlimit:10;}
	.st55{fill:url(#SVGID_46_);}
	.st56{fill:url(#SVGID_47_);}
	.st57{fill:url(#SVGID_48_);}
	.st58{fill:url(#SVGID_49_);}
	.st59{fill:#352E7A;}
	.st60{fill:url(#SVGID_50_);}
	.st61{fill:#FED1A4;}
	.st62{fill:url(#SVGID_51_);}
	.st63{fill:url(#SVGID_52_);}
	.st64{fill:#FFE0BC;}
	.st65{fill:url(#SVGID_53_);}
	.st66{fill:url(#SVGID_54_);}
	.st67{fill:url(#SVGID_55_);}
	.st68{fill:#F2BC8A;}
	.st69{fill:url(#SVGID_56_);}
	.st70{fill:url(#SVGID_57_);}
	.st71{fill:url(#SVGID_58_);}
	.st72{fill:url(#SVGID_59_);}
	.st73{fill:url(#SVGID_60_);}
	.st74{fill:url(#SVGID_61_);}
	.st75{fill:url(#SVGID_62_);}
	.st76{fill:url(#SVGID_63_);}
	.st77{opacity:0.5;fill:url(#SVGID_64_);}
	.st78{opacity:0.5;fill:url(#SVGID_65_);}
	.st79{fill:url(#SVGID_66_);}
	.st80{fill:url(#SVGID_67_);}
	.st81{fill:url(#SVGID_68_);}
	.st82{fill:url(#SVGID_69_);}
	.st83{fill:url(#SVGID_70_);}
	.st84{fill:url(#SVGID_71_);}
</style>
<g>
	<g>
		<g>
			<linearGradient id="SVGID_1_" gradientUnits="userSpaceOnUse" x1="366.5914" y1="136.5014" x2="570.1401" y2="136.5014">
				<stop  offset="0" style="stop-color:#0562A0"/>
				<stop  offset="1" style="stop-color:#3087C8"/>
			</linearGradient>
			<path class="st0" d="M570.14,193c0-64.89-45.55-143.83-101.77-176.29c-25.91-14.95-49.54-17.39-67.51-9.36l-0.01-0.02L400.5,7.5
				c-0.75,0.34-1.49,0.72-2.22,1.1l-20.14,10.03l2.37,5.58c-8.83,12.31-13.92,29.62-13.92,51.25c0,64.91,45.56,143.83,101.78,176.28
				c17.28,9.97,33.54,14.37,47.79,13.83l1.74,4.6l17.8-8.99c1.65-0.73,3.27-1.53,4.83-2.44l0.12-0.06l-0.02,0
				C558.87,247.97,570.14,225.26,570.14,193z"/>
			<g>
				<g>
					<linearGradient id="SVGID_2_" gradientUnits="userSpaceOnUse" x1="346.8009" y1="144.1217" x2="550.3412" y2="144.1217">
						<stop  offset="0" style="stop-color:#0562A0"/>
						<stop  offset="1" style="stop-color:#3087C8"/>
					</linearGradient>
					<path class="st1" d="M346.8,85.37c0,64.89,45.55,143.81,101.75,176.28c56.22,32.43,101.79,6.12,101.79-58.76
						c0-64.91-45.57-143.83-101.79-176.28C392.36-5.85,346.8,20.47,346.8,85.37z"/>
				</g>
			</g>
			<g>
				<path class="st2" d="M363.75,95.17c0-53.99,38.05-75.96,84.8-48.98c46.77,27.01,84.81,92.89,84.81,146.89
					c0,54.01-38.04,75.98-84.81,48.98C401.81,215.06,363.75,149.16,363.75,95.17z M374.36,101.29c0,47.24,33.28,104.9,74.19,128.54
					c40.93,23.62,74.22,4.4,74.21-42.84c0-47.24-33.28-104.9-74.21-128.53C407.64,34.82,374.36,54.05,374.36,101.29z"/>
			</g>
			<g>
				<path class="st2" d="M390.27,110.48c0-37.13,26.14-52.24,58.28-33.68c32.16,18.57,58.32,63.87,58.32,100.98
					c0,37.15-26.15,52.24-58.32,33.68C416.41,192.89,390.27,147.59,390.27,110.48z M400.85,116.58c0,30.39,21.4,67.44,47.7,82.65
					c26.31,15.18,47.72,2.83,47.71-27.55c0-30.37-21.4-67.45-47.71-82.63C422.26,73.87,400.85,86.21,400.85,116.58z"/>
			</g>
			<g>
				<path class="st2" d="M417.47,126.18c0,19.83,13.92,43.95,31.08,53.86c17.19,9.91,31.1,1.87,31.1-17.95
					c0-19.84-13.92-43.95-31.1-53.86C431.39,98.31,417.47,106.35,417.47,126.18z"/>
			</g>
		</g>
		<g>
			<g>
				<polygon class="st3" points="174.05,294.8 142.6,264.54 255.76,200.68 291.39,229.73 				"/>
				<polygon class="st3" points="172.94,312.11 142.6,378.09 255.76,313.16 293.73,241.4 				"/>
				<linearGradient id="SVGID_3_" gradientUnits="userSpaceOnUse" x1="166.2061" y1="225.3667" x2="452.233" y2="225.3667">
					<stop  offset="0" style="stop-color:#0562A0"/>
					<stop  offset="1" style="stop-color:#3087C8"/>
				</linearGradient>
				<path class="st4" d="M452.23,151.18c0,2.11-0.64,3.64-1.7,4.57c-0.23,0.18-0.53,0.35-0.82,0.47c-0.7,0.47-1.17,0.7-1.17,0.7
					L177.09,313.65l-10.88-18.29l272.66-157.44c0.29-0.23,0.59-0.41,0.94-0.53c1.29-0.59,2.99-0.35,4.87,0.7
					C448.83,140.51,452.23,146.37,452.23,151.18z"/>
			</g>
		</g>
		<g>
			<path class="st5" d="M179.12,308.9c0,2.11-0.65,3.64-1.7,4.57c-0.23,0.18-0.53,0.35-0.82,0.47c-1.35,0.59-3.11,0.41-5.04-0.7
				c-4.16-2.4-7.51-8.27-7.51-13.08c0-2.11,0.64-3.64,1.7-4.51c0.29-0.23,0.59-0.41,0.94-0.53c1.29-0.59,2.99-0.35,4.87,0.7
				C175.72,298.22,179.12,304.09,179.12,308.9z"/>
		</g>
	</g>
	<g>
		<g>
			<polygon class="st5" points="930.27,158.75 980.25,591.68 1006.28,577.95 1006.28,197.54 944.53,159.11 			"/>
			<polygon class="st5" points="1009.34,200.15 1035.37,186.42 960.46,45.27 934.43,59.01 914.64,112.51 930.27,158.75 
				944.53,159.11 938.85,155.58 944.53,159.11 953.03,159.33 944.53,159.11 1006.28,197.54 1006.28,196.62 			"/>
			<polygon class="st6" points="859.53,108.43 934.43,59.01 1009.34,200.15 980.25,182.35 980.25,591.68 888.62,535.58 
				888.62,126.24 			"/>
			<linearGradient id="SVGID_4_" gradientUnits="userSpaceOnUse" x1="859.5275" y1="325.3425" x2="1009.3439" y2="325.3425">
				<stop  offset="0" style="stop-color:#0562A0"/>
				<stop  offset="1" style="stop-color:#3087C8"/>
			</linearGradient>
			<polygon class="st7" points="859.53,108.43 934.43,59.01 1009.34,200.15 980.25,182.35 980.25,591.68 888.62,535.58 
				888.62,126.24 			"/>
		</g>
		<g>
			<polygon class="st5" points="672.62,218.37 722.6,651.29 748.62,637.57 748.62,257.15 686.87,218.73 			"/>
			<polygon class="st5" points="751.69,259.76 777.72,246.04 702.8,104.88 676.78,118.62 656.99,172.12 672.62,218.37 
				686.87,218.73 681.2,215.19 686.87,218.73 695.38,218.94 686.87,218.73 748.62,257.15 748.62,256.23 			"/>
			<polygon class="st6" points="601.87,168.04 676.78,118.62 751.69,259.76 722.59,241.96 722.6,651.29 630.97,595.19 
				630.97,185.86 			"/>
			<linearGradient id="SVGID_5_" gradientUnits="userSpaceOnUse" x1="601.874" y1="384.9567" x2="751.69" y2="384.9567">
				<stop  offset="0" style="stop-color:#0562A0"/>
				<stop  offset="1" style="stop-color:#3087C8"/>
			</linearGradient>
			<polygon class="st8" points="601.87,168.04 676.78,118.62 751.69,259.76 722.59,241.96 722.6,651.29 630.97,595.19 
				630.97,185.86 			"/>
		</g>
		<g>
			<linearGradient id="SVGID_6_" gradientUnits="userSpaceOnUse" x1="324.7351" y1="640.4871" x2="365.2148" y2="640.4871">
				<stop  offset="0" style="stop-color:#0562A0"/>
				<stop  offset="1" style="stop-color:#3087C8"/>
			</linearGradient>
			<polygon class="st9" points="324.74,525.2 351.36,755.77 365.21,748.46 365.21,545.86 332.33,525.39 			"/>
			<linearGradient id="SVGID_7_" gradientUnits="userSpaceOnUse" x1="316.4111" y1="506.0038" x2="380.7118" y2="506.0038">
				<stop  offset="0" style="stop-color:#0562A0"/>
				<stop  offset="1" style="stop-color:#3087C8"/>
			</linearGradient>
			<polygon class="st10" points="366.85,547.25 380.71,539.94 340.81,464.76 326.95,472.07 316.41,500.57 324.74,525.2 
				332.33,525.39 329.3,523.51 332.33,525.39 336.86,525.51 332.33,525.39 365.21,545.86 365.21,545.37 			"/>
			<polygon class="st6" points="287.06,498.4 326.95,472.07 366.85,547.25 351.35,537.77 351.36,755.77 302.55,725.9 302.55,507.89 
							"/>
			<linearGradient id="SVGID_8_" gradientUnits="userSpaceOnUse" x1="287.0574" y1="613.9246" x2="366.8488" y2="613.9246">
				<stop  offset="0" style="stop-color:#0562A0"/>
				<stop  offset="1" style="stop-color:#3087C8"/>
			</linearGradient>
			<polygon class="st11" points="287.06,498.4 326.95,472.07 366.85,547.25 351.35,537.77 351.36,755.77 302.55,725.9 
				302.55,507.89 			"/>
		</g>
	</g>
	<g>
		<g>
			<linearGradient id="SVGID_9_" gradientUnits="userSpaceOnUse" x1="603.5331" y1="1019.9879" x2="885.6257" y2="1019.9879">
				<stop  offset="0" style="stop-color:#0562A0"/>
				<stop  offset="1" style="stop-color:#3087C8"/>
			</linearGradient>
			<polygon class="st12" points="885.63,1039.09 885.63,1065.69 795.99,1116.6 603.53,1000.88 603.53,974.28 693.17,923.38 			"/>
			<polygon class="st3" points="885.63,1039.09 885.63,1065.69 795.99,1116.6 603.53,1000.88 795.99,1090 			"/>
			<polygon class="st13" points="795.99,1090 795.99,1116.6 603.53,1000.88 603.53,974.28 			"/>
			<polygon class="st3" points="795.99,1090 795.99,1116.6 603.53,1000.88 603.53,974.28 			"/>
		</g>
		<g>
			<linearGradient id="SVGID_10_" gradientUnits="userSpaceOnUse" x1="679.7781" y1="946.6705" x2="825.028" y2="946.6705">
				<stop  offset="0" style="stop-color:#0562A0"/>
				<stop  offset="1" style="stop-color:#3087C8"/>
			</linearGradient>
			<polygon class="st14" points="825.03,920.37 825.03,1035.54 803.83,1047.56 679.78,972.97 679.78,857.81 700.97,845.78 			"/>
			<polygon class="st3" points="825.03,920.37 825.03,1035.54 803.83,1047.56 679.78,972.97 803.83,932.4 			"/>
			<polygon class="st13" points="803.83,932.4 803.83,1047.56 679.78,972.97 679.78,857.81 			"/>
			<polygon class="st5" points="803.83,932.4 803.83,1047.56 679.78,972.97 679.78,857.81 			"/>
		</g>
		<g>
			<path class="st5" d="M1117.07,1100.2V641.44c0-19.75-10.24-38.08-27.04-48.44L464.08,206.27c-5.73-3.53-12.27-3.12-17.35-0.18
				l-0.01-0.06L422.77,218l0.09,0.1c-5.37,2.72-9.36,8.07-9.36,14.97v458.76c0,19.74,10.23,38.07,27.04,48.43L1066.49,1127
				c4.21,2.6,8.72,2.56,12.92,1.47l0.18,0.53l2.84-1.31c0.58-0.27,1.14-0.45,1.69-0.78l21.07-9.73
				C1118.07,1111.22,1117.07,1100.2,1117.07,1100.2z"/>
			<path class="st6" d="M1092.31,653.82v458.76c0,13.26-14.54,21.38-25.83,14.42L440.54,740.26
				c-16.81-10.36-27.04-28.69-27.04-48.43V233.07c0-13.26,14.54-21.38,25.83-14.42l625.95,386.74
				C1082.08,615.75,1092.31,634.08,1092.31,653.82z"/>
			<linearGradient id="SVGID_11_" gradientUnits="userSpaceOnUse" x1="413.4974" y1="672.8225" x2="1092.3129" y2="672.8225">
				<stop  offset="0" style="stop-color:#0562A0"/>
				<stop  offset="1" style="stop-color:#3087C8"/>
			</linearGradient>
			<path class="st15" d="M1092.31,653.82v458.76c0,13.26-14.54,21.38-25.83,14.42L440.54,740.26
				c-16.81-10.36-27.04-28.69-27.04-48.43V233.07c0-13.26,14.54-21.38,25.83-14.42l625.95,386.74
				C1082.08,615.75,1092.31,634.08,1092.31,653.82z"/>
			<linearGradient id="SVGID_12_" gradientUnits="userSpaceOnUse" x1="431.5809" y1="673.7334" x2="1074.229" y2="673.7334">
				<stop  offset="0" style="stop-color:#0562A0"/>
				<stop  offset="1" style="stop-color:#3087C8"/>
			</linearGradient>
			<path class="st16" d="M1074.23,661.05v423.7c0,12.55-13.77,20.24-24.45,13.65l-592.6-366.13c-15.91-9.81-25.6-27.16-25.6-45.85
				v-423.7c0-12.55,13.76-20.24,24.45-13.65l592.6,366.13C1064.54,625.01,1074.23,642.36,1074.23,661.05z"/>
			<linearGradient id="SVGID_13_" gradientUnits="userSpaceOnUse" x1="431.5809" y1="673.7334" x2="1074.229" y2="673.7334">
				<stop  offset="0" style="stop-color:#0562A0"/>
				<stop  offset="1" style="stop-color:#3087C8"/>
			</linearGradient>
			<path class="st17" d="M1074.23,661.05v423.7c0,12.55-13.77,20.24-24.45,13.65l-592.6-366.13c-15.91-9.81-25.6-27.16-25.6-45.85
				v-423.7c0-12.55,13.76-20.24,24.45-13.65l592.6,366.13C1064.54,625.01,1074.23,642.36,1074.23,661.05z"/>
			<linearGradient id="SVGID_14_" gradientUnits="userSpaceOnUse" x1="431.5966" y1="673.7416" x2="1074.229" y2="673.7416">
				<stop  offset="0" style="stop-color:#CFCAE5"/>
				<stop  offset="0.1313" style="stop-color:#B1AAD4"/>
				<stop  offset="0.2964" style="stop-color:#958DC4"/>
				<stop  offset="0.4651" style="stop-color:#8279B9"/>
				<stop  offset="0.6365" style="stop-color:#746DB1"/>
				<stop  offset="0.8125" style="stop-color:#6D65AD"/>
				<stop  offset="1" style="stop-color:#6A63AC"/>
			</linearGradient>
			<path class="st18" d="M1074.23,661.06v423.69c0,0.78-0.04,1.53-0.16,2.27c-1.53,11.19-14.28,17.56-24.29,11.38l-592.6-366.15
				c-15.92-9.78-25.58-27.15-25.58-45.85V262.72c0-11.42,11.34-18.78,21.48-15.1c1.02,0.39,1.99,0.86,2.97,1.45l592.6,366.15
				C1064.53,625,1074.23,642.36,1074.23,661.06z"/>
			<path class="st5" d="M1074.23,661.06v423.69c0,0.78-0.04,1.53-0.16,2.27c-1.02-0.39-2-0.86-2.97-1.45L478.5,719.43
				c-15.88-9.82-25.58-27.15-25.58-45.85V249.89c0-0.78,0.04-1.53,0.16-2.27c1.02,0.39,1.99,0.86,2.97,1.45l592.6,366.15
				C1064.53,625,1074.23,642.36,1074.23,661.06z"/>
		</g>
	</g>
	<g>
		<g>
			<linearGradient id="SVGID_15_" gradientUnits="userSpaceOnUse" x1="1027.5824" y1="1135.9307" x2="1129.9412" y2="1384.9821">
				<stop  offset="0" style="stop-color:#0562A0"/>
				<stop  offset="1" style="stop-color:#3087C8"/>
			</linearGradient>
			<path class="st19" d="M1081.71,1403.03l-21.27-164.47l43.39-43.96c0,0,44.22,70.34,48.09,160.87c0.16,3.77-0.4,7.49-3.67,9.38
				L1081.71,1403.03z"/>
			<linearGradient id="SVGID_16_" gradientUnits="userSpaceOnUse" x1="1027.5515" y1="1298.8159" x2="1119.0564" y2="1298.8159">
				<stop  offset="0" style="stop-color:#CFCAE5"/>
				<stop  offset="0.1313" style="stop-color:#B1AAD4"/>
				<stop  offset="0.2964" style="stop-color:#958DC4"/>
				<stop  offset="0.4651" style="stop-color:#8279B9"/>
				<stop  offset="0.6365" style="stop-color:#746DB1"/>
				<stop  offset="0.8125" style="stop-color:#6D65AD"/>
				<stop  offset="1" style="stop-color:#6A63AC"/>
			</linearGradient>
			<path class="st20" d="M1081.71,1403.03l-21.27-164.47l43.39-43.96c0,0,44.22,70.34,48.09,160.87c0.16,3.77-0.4,7.49-3.67,9.38
				L1081.71,1403.03z"/>
			<linearGradient id="SVGID_17_" gradientUnits="userSpaceOnUse" x1="1038.2164" y1="1312.4536" x2="1152.3134" y2="1312.4536">
				<stop  offset="0" style="stop-color:#0562A0"/>
				<stop  offset="1" style="stop-color:#3087C8"/>
			</linearGradient>
			<path class="st21" d="M1026.26,1221.88c0,0,32.2,58.83,20.82,161.16l34.63,19.99c11.38-102.32-17.97-161.18-17.97-161.18"/>
		</g>
		<g>
			<path class="st3" d="M1040.07,1331.47c0,0,30.58-22.95,27.89-85.67l-25.9,23.14"/>
			<path class="st5" d="M1040.07,1331.47l-18.23-10.5c17.73-54.06,7.46-89.85,7.13-91.07l18.35,15.36
				C1047.32,1245.25,1056.12,1279.05,1040.07,1331.47z"/>
		</g>
		<g>
			<linearGradient id="SVGID_18_" gradientUnits="userSpaceOnUse" x1="1005.4896" y1="1158.6666" x2="1182.2609" y2="1158.6666">
				<stop  offset="0" style="stop-color:#0562A0"/>
				<stop  offset="1" style="stop-color:#3087C8"/>
			</linearGradient>
			<path class="st22" d="M1172.58,1111.36c-13.62-22.95-36.55-34.5-51.22-25.8l-115.87,66.3l49.82,82.82l115.37-66
				C1185.35,1159.97,1186.2,1134.31,1172.58,1111.36z"/>
			<path class="st23" d="M1158.69,1118.69c-18.86-31.78-50.61-47.77-70.91-35.72l-160.42,91.8l68.97,114.66l159.74-91.38
				C1176.38,1186,1177.55,1150.47,1158.69,1118.69z"/>
			<path class="st5" d="M1158.69,1118.69c-18.86-31.78-50.61-47.77-70.91-35.72l-160.42,91.8l68.97,114.66l159.74-91.38
				C1176.38,1186,1177.55,1150.47,1158.69,1118.69z"/>
		</g>
		<g>
			<path class="st6" d="M1122.68,1137.43c-20.94-35.29-56.19-53.05-78.74-39.67l-23.39,13.39c-72.24,41.33-155.2,60.09-238.19,53.86
				h0l152.59,264.85l81.41-111.7c27.56-37.81,62.8-69.37,103.42-92.61l0,0C1142.32,1212.17,1143.62,1172.72,1122.68,1137.43z"/>
		</g>
		<g>
			<g>
				<linearGradient id="SVGID_19_" gradientUnits="userSpaceOnUse" x1="948.4689" y1="1157.8264" x2="1021.8287" y2="1272.6501">
					<stop  offset="0" style="stop-color:#0562A0"/>
					<stop  offset="1" style="stop-color:#3087C8"/>
				</linearGradient>
				<path class="st24" d="M1122.68,1137.43c-20.94-35.29-56.19-53.05-78.74-39.67l-23.39,13.39
					c-72.24,41.33-155.2,60.09-238.19,53.86h0l152.59,264.85l81.41-111.7c27.56-37.81,62.8-69.37,103.42-92.61l0,0
					C1142.32,1212.17,1143.62,1172.72,1122.68,1137.43z"/>
			</g>
		</g>
		<linearGradient id="SVGID_20_" gradientUnits="userSpaceOnUse" x1="727.2249" y1="1305.7461" x2="959.9675" y2="1305.7461">
			<stop  offset="0" style="stop-color:#0562A0"/>
			<stop  offset="1" style="stop-color:#3087C8"/>
		</linearGradient>
		<path class="st25" d="M758.33,1356.35c43.74,73.7,117.37,110.79,164.46,82.85c47.09-27.95,49.82-110.35,6.08-184.05
			c-43.74-73.7-117.37-110.79-164.46-82.85C717.31,1200.24,714.59,1282.65,758.33,1356.35z"/>
		<linearGradient id="SVGID_21_" gradientUnits="userSpaceOnUse" x1="769.1552" y1="1178.6251" x2="916.4756" y2="1433.7916">
			<stop  offset="0" style="stop-color:#CFCAE5"/>
			<stop  offset="0.1313" style="stop-color:#B1AAD4"/>
			<stop  offset="0.2964" style="stop-color:#958DC4"/>
			<stop  offset="0.4651" style="stop-color:#8279B9"/>
			<stop  offset="0.6365" style="stop-color:#746DB1"/>
			<stop  offset="0.8125" style="stop-color:#6D65AD"/>
			<stop  offset="1" style="stop-color:#6A63AC"/>
		</linearGradient>
		<path class="st26" d="M917.99,1432.91c-44.71,26.53-114.6-8.7-156.14-78.66c-41.51-69.96-38.95-148.2,5.76-174.74
			c34.46-20.45,83.93-4.21,123.77,36.36c11.87,12.05,22.89,26.26,32.4,42.3c8.84,14.88,15.67,30.13,20.52,45.18
			C962.28,1359.08,953.19,1412.02,917.99,1432.91z"/>
		<path class="st5" d="M917.99,1432.91c-44.71,26.53-114.6-8.7-156.14-78.66c-41.51-69.96-38.95-148.2,5.76-174.74
			c34.46-20.45,83.93-4.21,123.77,36.36c11.87,12.05,22.89,26.26,32.4,42.3c8.84,14.88,15.67,30.13,20.52,45.18
			C962.28,1359.08,953.19,1412.02,917.99,1432.91z"/>
		<linearGradient id="SVGID_22_" gradientUnits="userSpaceOnUse" x1="862.2746" y1="1243.8832" x2="900.9037" y2="1315.2738">
			<stop  offset="0" style="stop-color:#0562A0"/>
			<stop  offset="1" style="stop-color:#3087C8"/>
		</linearGradient>
		<path class="st27" d="M944.3,1303.36l-81.07,35.4l-40.82-68.78l68.98-54.1c11.87,12.05,22.89,26.26,32.4,42.3
			C932.62,1273.06,939.45,1288.3,944.3,1303.36z"/>
		<linearGradient id="SVGID_23_" gradientUnits="userSpaceOnUse" x1="812.8242" y1="1304.375" x2="872.8049" y2="1304.375">
			<stop  offset="0" style="stop-color:#0562A0"/>
			<stop  offset="1" style="stop-color:#3087C8"/>
		</linearGradient>
		<path class="st28" d="M820.84,1317.42c11.27,18.99,30.25,28.55,42.38,21.35c12.14-7.2,12.84-28.44,1.57-47.43
			c-11.27-18.99-30.25-28.55-42.38-21.35C810.27,1277.19,809.57,1298.42,820.84,1317.42z"/>
		<linearGradient id="SVGID_24_" gradientUnits="userSpaceOnUse" x1="863.348" y1="1327.1783" x2="821.0516" y2="1282.926">
			<stop  offset="0" style="stop-color:#0562A0"/>
			<stop  offset="1" style="stop-color:#3087C8"/>
		</linearGradient>
		<path class="st29" d="M824.15,1315.45c9.16,15.44,24.58,23.2,34.45,17.35c9.86-5.85,10.43-23.11,1.27-38.55
			c-9.16-15.44-24.58-23.2-34.45-17.35C815.56,1282.76,814.99,1300.01,824.15,1315.45z"/>
		<path class="st5" d="M831.71,1310.34c4.74,7.99,12.72,12.01,17.83,8.98c5.1-3.03,5.4-11.96,0.66-19.95
			c-4.74-7.99-12.72-12.01-17.83-8.98C827.27,1293.42,826.97,1302.35,831.71,1310.34z"/>
	</g>
	<g>
		<g>
			<g>
				<g>
					<g class="st30">
						<g>
							<polygon class="st3" points="504.02,547.84 519.42,538.89 561.48,563.17 546.08,572.12 							"/>
						</g>
					</g>
				</g>
			</g>
			<g>
				<g class="st30">
					<g>
						<linearGradient id="SVGID_25_" gradientUnits="userSpaceOnUse" x1="504.0243" y1="704.5609" x2="561.4783" y2="704.5609">
							<stop  offset="0" style="stop-color:#7DD1E7"/>
							<stop  offset="0.5061" style="stop-color:#7F8FC1"/>
							<stop  offset="1" style="stop-color:#7E57A4"/>
						</linearGradient>
						<polygon class="st31" points="504.02,696.89 519.42,687.95 561.48,712.23 546.08,721.18 						"/>
					</g>
				</g>
			</g>
			<linearGradient id="SVGID_26_" gradientUnits="userSpaceOnUse" x1="504.0243" y1="634.506" x2="546.0796" y2="634.506">
				<stop  offset="0" style="stop-color:#0562A0"/>
				<stop  offset="1" style="stop-color:#3087C8"/>
			</linearGradient>
			<polygon class="st32" points="504.02,547.84 504.02,696.89 546.08,721.18 546.08,572.12 			"/>
			<polygon class="st3" points="561.48,563.17 561.48,712.23 546.08,721.18 546.08,572.12 			"/>
		</g>
		<g>
			<g>
				<g>
					<g class="st30">
						<g>
							<polygon class="st3" points="567.11,521.92 582.51,512.97 624.56,537.25 609.16,546.2 							"/>
						</g>
					</g>
				</g>
			</g>
			<g>
				<g class="st30">
					<g>
						<linearGradient id="SVGID_27_" gradientUnits="userSpaceOnUse" x1="567.1077" y1="740.9815" x2="624.5607" y2="740.9815">
							<stop  offset="0" style="stop-color:#7DD1E7"/>
							<stop  offset="0.5061" style="stop-color:#7F8FC1"/>
							<stop  offset="1" style="stop-color:#7E57A4"/>
						</linearGradient>
						<polygon class="st33" points="567.11,733.32 582.51,724.37 624.56,748.65 609.16,757.6 						"/>
					</g>
				</g>
			</g>
			<linearGradient id="SVGID_28_" gradientUnits="userSpaceOnUse" x1="567.1077" y1="639.7567" x2="609.163" y2="639.7567">
				<stop  offset="0" style="stop-color:#0562A0"/>
				<stop  offset="1" style="stop-color:#3087C8"/>
			</linearGradient>
			<polygon class="st34" points="567.11,521.92 567.11,733.32 609.16,757.6 609.16,546.2 			"/>
			<polygon class="st3" points="624.56,537.25 624.56,748.65 609.16,757.6 609.16,546.2 			"/>
		</g>
		<g>
			<g>
				<g>
					<g class="st30">
						<g>
							<polygon class="st3" points="630.19,496 645.59,487.05 687.64,511.33 672.25,520.28 							"/>
						</g>
					</g>
				</g>
			</g>
			<g>
				<g class="st30">
					<g>
						<linearGradient id="SVGID_29_" gradientUnits="userSpaceOnUse" x1="630.1906" y1="777.4027" x2="687.6442" y2="777.4027">
							<stop  offset="0" style="stop-color:#7DD1E7"/>
							<stop  offset="0.5061" style="stop-color:#7F8FC1"/>
							<stop  offset="1" style="stop-color:#7E57A4"/>
						</linearGradient>
						<polygon class="st35" points="630.19,769.74 645.59,760.79 687.64,785.07 672.25,794.02 						"/>
					</g>
				</g>
			</g>
			<linearGradient id="SVGID_30_" gradientUnits="userSpaceOnUse" x1="630.1906" y1="645.0073" x2="672.2458" y2="645.0073">
				<stop  offset="0" style="stop-color:#0562A0"/>
				<stop  offset="1" style="stop-color:#3087C8"/>
			</linearGradient>
			<polygon class="st36" points="630.19,496 630.19,769.74 672.25,794.02 672.25,520.28 			"/>
			<polygon class="st3" points="687.64,511.33 687.64,785.07 672.25,794.02 672.25,520.28 			"/>
		</g>
		<g>
			<g>
				<g class="st30">
					<g>
						<polygon class="st3" points="693.27,470.08 708.67,461.13 750.73,485.41 735.33,494.36 						"/>
					</g>
				</g>
			</g>
			<g>
				<g class="st30">
					<g>
						<linearGradient id="SVGID_31_" gradientUnits="userSpaceOnUse" x1="693.274" y1="813.8237" x2="750.7271" y2="813.8237">
							<stop  offset="0" style="stop-color:#7DD1E7"/>
							<stop  offset="0.5061" style="stop-color:#7F8FC1"/>
							<stop  offset="1" style="stop-color:#7E57A4"/>
						</linearGradient>
						<polygon class="st37" points="693.27,806.16 708.67,797.21 750.73,821.49 735.33,830.44 						"/>
					</g>
				</g>
			</g>
			<linearGradient id="SVGID_32_" gradientUnits="userSpaceOnUse" x1="693.274" y1="650.258" x2="735.3293" y2="650.258">
				<stop  offset="0" style="stop-color:#0562A0"/>
				<stop  offset="1" style="stop-color:#3087C8"/>
			</linearGradient>
			<polygon class="st38" points="693.27,470.08 693.27,806.16 735.33,830.44 735.33,494.36 			"/>
			<polygon class="st3" points="750.73,485.41 750.73,821.49 735.33,830.44 735.33,494.36 			"/>
		</g>
	</g>
	<g>
		<path class="st3" d="M374.8,315.62l-22.34-16.4c-0.33-0.24-0.58-0.57-0.72-0.95l-9.94-25.99c-0.47-1.22-1.85-1.61-2.83-1.05v-0.05
			l-14.48,8.31c0,0,0.56,2.14,1.17,4.36l-16.78-7.44c-0.64-0.28-1.2-0.14-1.68,0.13l-0.09-0.05l-14.98,8.58l8.76,8.55l5.86,5.39
			c0,0,8.5-0.87,9.92-1.18c0.27-0.06,0.6-0.56,0.96-1.33l3.72,5.82c0.28,0.44,0.39,0.96,0.29,1.46l-3.82,20.02
			c-0.23,1.18,0.69,2.34,1.9,2.42l19.87,1.25c0.53,0.03,1.04,0.28,1.41,0.69l3.51,3.91c-1.81,2.18-5.88,7.13-5.93,7.61
			c-0.06,0.62,1.24,4.83,1.24,4.83l7.08,12.7l14.21-8.19v-0.06c0.86-0.22,1.55-0.94,1.38-2.03l-3.19-20.49
			c-0.03-0.19,0.07-0.35,0.09-0.53l0.96,1.06l14.14-7.98C375.89,318.46,376.06,316.55,374.8,315.62z"/>
		<path class="st5" d="M323.54,280.18l-8.57,12.33c-0.51,0.73-1.47,0.98-2.32,0.6l-18.59-8.24c-1.77-0.79-3.38,1.12-2.33,2.77
			l14.81,23.15c0.28,0.44,0.39,0.96,0.29,1.46l-3.82,20.02c-0.23,1.18,0.69,2.34,1.9,2.42l19.87,1.25c0.53,0.03,1.04,0.28,1.41,0.69
			l18.15,20.22c1.32,1.47,3.64,0.46,3.34-1.45l-3.19-20.49c-0.14-0.88,0.33-1.71,1.14-2.02l14.05-5.43c1.4-0.54,1.57-2.45,0.3-3.38
			l-22.34-16.4c-0.33-0.24-0.58-0.57-0.72-0.95l-9.94-25.99C326.4,279.25,324.41,278.92,323.54,280.18z"/>
	</g>
	<g>
		<polygon class="st3" points="1245.18,336.49 1245.18,353.19 1334.35,434.33 1401.28,442.47 1401.28,425.84 		"/>
		<linearGradient id="SVGID_33_" gradientUnits="userSpaceOnUse" x1="1245.1832" y1="469.2638" x2="1401.2839" y2="469.2638">
			<stop  offset="0" style="stop-color:#0562A0"/>
			<stop  offset="1" style="stop-color:#3087C8"/>
		</linearGradient>
		<polygon class="st39" points="1323.15,459.09 1245.18,371.68 1256.39,471.22 1401.28,566.85 1401.28,460.96 		"/>
		<linearGradient id="SVGID_34_" gradientUnits="userSpaceOnUse" x1="1230.2654" y1="419.7235" x2="1323.1484" y2="419.7235">
			<stop  offset="0" style="stop-color:#0562A0"/>
			<stop  offset="1" style="stop-color:#3087C8"/>
		</linearGradient>
		<polygon class="st40" points="1230.27,380.35 1245.18,371.68 1323.15,459.09 1308.23,467.77 		"/>
		<polygon class="st41" points="1230.27,345.16 1230.27,361.86 1308.23,449.27 1386.37,451.14 1386.37,434.52 		"/>
		<polygon class="st41" points="1308.23,467.77 1230.27,380.35 1230.27,486.16 1386.37,575.52 1386.37,469.63 		"/>
		<linearGradient id="SVGID_35_" gradientUnits="userSpaceOnUse" x1="1230.2654" y1="398.147" x2="1386.3661" y2="398.147">
			<stop  offset="0" style="stop-color:#0562A0"/>
			<stop  offset="1" style="stop-color:#3087C8"/>
		</linearGradient>
		<polygon class="st42" points="1230.27,345.16 1230.27,361.86 1308.23,449.27 1386.37,451.14 1386.37,434.52 		"/>
		<linearGradient id="SVGID_36_" gradientUnits="userSpaceOnUse" x1="1230.2654" y1="477.9355" x2="1386.3661" y2="477.9355">
			<stop  offset="0" style="stop-color:#0562A0"/>
			<stop  offset="1" style="stop-color:#3087C8"/>
		</linearGradient>
		<polygon class="st43" points="1308.23,467.77 1230.27,380.35 1230.27,486.16 1386.37,575.52 1386.37,469.63 		"/>
		<linearGradient id="SVGID_37_" gradientUnits="userSpaceOnUse" x1="1230.2654" y1="385.5008" x2="1401.2839" y2="385.5008">
			<stop  offset="0" style="stop-color:#0562A0"/>
			<stop  offset="1" style="stop-color:#3087C8"/>
		</linearGradient>
		<polygon class="st44" points="1230.27,345.16 1245.18,336.49 1401.28,425.84 1386.37,434.52 		"/>
		<linearGradient id="SVGID_38_" gradientUnits="userSpaceOnUse" x1="1386.3661" y1="438.4913" x2="1401.2839" y2="438.4913">
			<stop  offset="0" style="stop-color:#0562A0"/>
			<stop  offset="1" style="stop-color:#3087C8"/>
		</linearGradient>
		<polygon class="st45" points="1386.37,434.52 1386.37,451.14 1401.28,442.47 1401.28,425.84 		"/>
		<linearGradient id="SVGID_39_" gradientUnits="userSpaceOnUse" x1="1386.3661" y1="518.238" x2="1401.2839" y2="518.238">
			<stop  offset="0" style="stop-color:#0562A0"/>
			<stop  offset="1" style="stop-color:#3087C8"/>
		</linearGradient>
		<polygon class="st46" points="1386.37,469.63 1401.28,460.96 1401.28,566.85 1386.37,575.52 		"/>
	</g>
	<g>
		<g>
			<linearGradient id="SVGID_40_" gradientUnits="userSpaceOnUse" x1="116.5831" y1="612.5245" x2="134.3448" y2="612.5245">
				<stop  offset="0" style="stop-color:#0562A0"/>
				<stop  offset="1" style="stop-color:#3087C8"/>
			</linearGradient>
			<polygon class="st47" points="116.58,624.01 125.91,618.82 134.34,601.69 127.81,601.04 			"/>
			<linearGradient id="SVGID_41_" gradientUnits="userSpaceOnUse" x1="121.9883" y1="605.1722" x2="221.3925" y2="600.0009">
				<stop  offset="0" style="stop-color:#0562A0"/>
				<stop  offset="1" style="stop-color:#3087C8"/>
			</linearGradient>
			<polygon class="st48" points="105.97,587.45 116.56,624.01 127.81,601.04 			"/>
			<linearGradient id="SVGID_42_" gradientUnits="userSpaceOnUse" x1="89.923" y1="557.7726" x2="206.2613" y2="557.7726">
				<stop  offset="0" style="stop-color:#0562A0"/>
				<stop  offset="1" style="stop-color:#3087C8"/>
			</linearGradient>
			<polygon class="st49" points="206.26,536.33 206.26,635.67 196.93,640.86 89.92,579.2 89.92,479.87 99.25,474.69 			"/>
			<linearGradient id="SVGID_43_" gradientUnits="userSpaceOnUse" x1="89.923" y1="588.5919" x2="206.2613" y2="588.5919">
				<stop  offset="0" style="stop-color:#0562A0"/>
				<stop  offset="1" style="stop-color:#3087C8"/>
			</linearGradient>
			<polygon class="st50" points="206.26,536.33 206.26,635.67 196.93,640.86 89.92,579.2 196.93,541.51 			"/>
			<linearGradient id="SVGID_44_" gradientUnits="userSpaceOnUse" x1="119.7213" y1="561.5995" x2="219.1237" y2="556.4282">
				<stop  offset="0" style="stop-color:#0562A0"/>
				<stop  offset="1" style="stop-color:#3087C8"/>
			</linearGradient>
			<polygon class="st51" points="196.93,541.51 196.93,640.86 89.92,579.22 89.92,479.87 			"/>
		</g>
		<g>
			<path class="st6" d="M110.61,530.01c5.48,3.16,9.91,10.84,9.89,17.13c-0.02,6.29-4.48,8.81-9.95,5.65
				c-5.48-3.16-9.91-10.82-9.89-17.11C100.67,529.39,105.13,526.84,110.61,530.01z"/>
		</g>
		<g>
			<path class="st6" d="M143.46,548.97c5.48,3.16,9.91,10.84,9.89,17.13c-0.02,6.29-4.48,8.81-9.95,5.65
				c-5.48-3.16-9.91-10.82-9.89-17.11C133.52,548.35,137.99,545.81,143.46,548.97z"/>
		</g>
		<g>
			<path class="st6" d="M176.32,567.94c5.48,3.16,9.91,10.84,9.89,17.13c-0.02,6.29-4.48,8.81-9.95,5.65
				c-5.48-3.16-9.91-10.82-9.89-17.11C166.38,567.32,170.84,564.78,176.32,567.94z"/>
		</g>
	</g>
	<g>
		<path class="st52" d="M459.21,1246.67c0,0-0.38,7.85-0.48,9.25c-0.1,1.4-0.84,2.66-0.63,3.91c0.34,2,18.38,37.84,27.16,36.93
			c6.46-0.67,15.73-7.46,5.37-11.01c-5.08-2.96-8.75-31.49-9.05-32.31c-0.48-1.3,0.01-12.98-0.87-9.01"/>
		<path class="st52" d="M421.32,1231.18c0,0-0.38,7.85-0.48,9.25c-0.1,1.4-0.84,2.66-0.63,3.91c0.34,2,18.38,37.84,27.16,36.93
			c6.46-0.67,15.73-7.46,5.37-11.02c-5.08-2.96-8.75-31.49-9.05-32.31c-0.48-1.3,0.01-12.98-0.87-9.01"/>
		<path class="st3" d="M412.32,1156.51c-1.25,26.25,7.29,78.49,7.29,78.49s5.03,8.2,24.47-2.67c0,0,2.98-78.52,6.26-100.7
			c0.97-6.53,2.05-12.35,3.62-18c0-0.03,0-0.03,0-0.05c3.62-13.02,6.92-25.3,7.8-42.72c0.63-12.42-1.6-37.74-4-60.07
			c-2.43-22.55-5.02-42.02-5.02-42.02s-19.82,0.65-34-13.32c0,0-23.17,31.44-8.45,64.49c3.4,7.63,5.25,15.84,5.9,24.16
			c0.86,11.13,1.94,26.38,2.49,39.67c0.89,21.55,2.47,27.7,1.54,30.2C419.26,1116.48,413.54,1130.26,412.32,1156.51z"/>
		<path class="st3" d="M439.41,1039.29c6.55,16.87,13.47,56.12,14.55,74.29c3.62-13.02,6.92-25.3,7.8-42.72
			c0.63-12.42-1.6-37.74-4-60.07c-7.42-5.82-20.87-16.5-20.87-16.5S432.83,1022.44,439.41,1039.29z"/>
		<path class="st3" d="M495.18,966.08c0,0,8.44,32.6,10,66.66c1.56,34.06-6.01,82.8-7.57,94.36c-1.56,11.56-5.34,29.59-8.54,58.32
			c-3.01,27.06-5.38,61.64-5.38,61.64s-19.61,11.17-27.27,1.48c0,0-4.74-76.66-2.55-100.41c2.19-23.75,7.08-25.41,6.46-33.22
			c-0.63-7.81-7.64-67.18-11.39-72.8c-3.75-5.62-23.12-35.31-4.37-74.68C444.57,967.44,466.13,972.85,495.18,966.08z"/>
		<g>
			<path class="st5" d="M458.4,868.3l1.8-0.5l1.52,0.74l51.45-60.41c1.03-1.21,2.82-1.42,4.1-0.48l82.04,60.21l2.52-0.85l0.75,3.95
				l-0.05,0c0.24,0.83,0.13,1.76-0.48,2.48l-53.09,62.34c-1.15,1.35-3.14,1.58-4.57,0.53l-84.16-61.77c-0.67-0.49-1-1.25-1.01-2.02
				l-0.03,0.01L458.4,868.3z"/>
			
				<linearGradient id="SVGID_45_" gradientUnits="userSpaceOnUse" x1="975.7219" y1="790.7089" x2="1073.3151" y2="737.7298" gradientTransform="matrix(-0.9917 -0.1283 -0.1283 0.9917 1644.1136 240.8803)">
				<stop  offset="0" style="stop-color:#0562A0"/>
				<stop  offset="1" style="stop-color:#3087C8"/>
			</linearGradient>
			<path class="st53" d="M459.39,869.83l84.16,61.77c1.43,1.05,3.42,0.82,4.57-0.53l53.09-62.34c1.01-1.19,0.8-2.98-0.46-3.9
				l-84.33-61.89c-1.28-0.94-3.07-0.73-4.1,0.48l-53.37,62.67C457.98,867.22,458.18,868.94,459.39,869.83z"/>
			<path class="st54" d="M463.75,869.67l78.96,57.95c1.34,0.98,3.21,0.77,4.29-0.5l49.81-58.49c0.95-1.11,0.75-2.79-0.43-3.66
				l-79.12-58.07c-1.2-0.88-2.88-0.69-3.85,0.45l-50.07,58.8C462.43,867.22,462.62,868.84,463.75,869.67z"/>
		</g>
		<path class="st52" d="M560.35,901.42c0,0,1.97-2.19,2.38-3.59c0.41-1.4,0.66-3.47,2.37-5.6c1.71-2.12,6.59-10.55,7.58-9.98
			c0.98,0.57,1.97,3.01,1.19,6.27c-0.78,3.27-2.12,5.39-2.18,6.22c-0.05,0.83,5.59,0.96,9.02-0.17c1.89-0.62,7.42-5.17,8.83-6.67
			c1.3-0.01-0.52,9.94-1.29,12.97c-0.64,2.48-8.55,10.45-8.55,10.45"/>
		<path class="st52" d="M465.74,867.58l10.14-9.81c1.35-1.31,2.91-2.37,4.63-3.14c1.55-0.7,3.5-1.69,4.78-2.72
			c2.41-1.94,3.44-6.9,4.37-8.77c0.93-1.87,6.71-6.9,7.26-8.3c0.54-1.4,0.73-3.55-1.17-3.37c-1.55,0.14-11.17,5.83-11.57,6.45
			l5.14-7.5c0,0-7.41,3.03-12,5.44c-4.59,2.41-5.75,8.81-7.54,10.37c-1.79,1.55-13.99,11.09-13.99,11.09"/>
		<path class="st3" d="M485.94,767.25c0,0,3.22,11.98-4.77,19.47c-7.99,7.48-4.5-16.34-4.5-16.34"/>
		<g>
			<path class="st52" d="M436.8,856.03l27.7-3.2l4.17,1.45c0,0-1.72-15.15-0.43-26.63c0.26-2.32,2.35-3.99,4.49-3.05
				c4.01,1.78,6.66,1.11,6.66,1.11c4.77-3.12,5.07-23.12,4.62-32.75c-0.48-10.05-1.4-21.3-1.4-21.3
				c-2.72-3.23-27.75-0.15-36.07,5.65c-8.35,5.75-7.82,39.29-7.5,45.57c0.35,6.27,0,21.2,0,21.2L436.8,856.03z"/>
		</g>
		<linearGradient id="SVGID_46_" gradientUnits="userSpaceOnUse" x1="407.7" y1="910.9877" x2="498.0241" y2="910.9877">
			<stop  offset="0" style="stop-color:#0562A0"/>
			<stop  offset="1" style="stop-color:#3087C8"/>
		</linearGradient>
		<path class="st55" d="M420.62,930.91c1.24,17.46-7.68,34.65-7.68,34.65s19.02,14.93,48.94,18.91c22.13,2.96,36.15-5.75,36.15-5.75
			s-3.49-17.51-4.94-31.85c-0.48-4.73-0.75-9.08-0.59-12.41c0.27-5.64,1.72-16.22,3.06-27.23c1.83-14.99,3.44-30.89,1.5-36.74
			c-3.33-10.21-28.52-26.16-28.52-26.16s-30.19,2.04-29.49-6.61c0,0-16.33-2.42-23.85,1.13c-7.52,3.49-8.75,24.12-6.45,41.42
			C411,897.55,419.38,913.39,420.62,930.91z"/>
		<linearGradient id="SVGID_47_" gradientUnits="userSpaceOnUse" x1="468.6407" y1="918.4968" x2="495.5531" y2="918.4968">
			<stop  offset="0" style="stop-color:#0562A0"/>
			<stop  offset="1" style="stop-color:#3087C8"/>
		</linearGradient>
		<path class="st56" d="M468.64,890.13c0,0,4.67,22.51,11.07,40.93c0,0,2.52,0.16,6.18,0l7.2,15.79c-0.48-4.73-0.75-9.08-0.59-12.41
			c0.27-5.64,1.72-16.22,3.06-27.23l-1.18-3.97L468.64,890.13z"/>
		<path class="st52" d="M484.43,917.58c0,0,11.62,23.21,16.27,30.3c5.8,8.83,8.81,12.17,19.68,4.28v0.02
			c0,0,40.75-37.41,44.55-37.79c3.83-0.37,4.45,0.25,8.63-0.37c4.18-0.6,6.14-2.69,6.14-2.69s-7.86-10.99-9.08-17.71
			c-3.11,1.99-8.88,6.83-12.71,9.08c-3.94,2.32-28.28,15.3-41.12,22.66c-1.02-2.36-5.25-14.8-6.14-17.02
			C510.63,908.42,485.02,917.92,484.43,917.58z"/>
		<linearGradient id="SVGID_48_" gradientUnits="userSpaceOnUse" x1="467.1624" y1="898.4904" x2="513.7566" y2="898.4904">
			<stop  offset="0" style="stop-color:#0562A0"/>
			<stop  offset="1" style="stop-color:#3087C8"/>
		</linearGradient>
		<path class="st57" d="M497.06,870.47l16.7,41.35c0,0-14.16,14.69-29.58,14.69c0,0-16.12-30.31-17.02-44.06"/>
		<linearGradient id="SVGID_49_" gradientUnits="userSpaceOnUse" x1="437.6953" y1="839.8301" x2="470.4956" y2="839.8301">
			<stop  offset="0" style="stop-color:#0562A0"/>
			<stop  offset="1" style="stop-color:#3087C8"/>
		</linearGradient>
		<path class="st58" d="M439.16,832.61l-1.46,4.9c0,0,0,5.05,5.6,7.29c9.56,3.82,23.77,1.83,27.2,0.8l-2.09-6.63
			C468.41,838.97,448.87,841.83,439.16,832.61z"/>
		<path class="st3" d="M449.56,822.27c0,0,8.82,18.24,0.02,32.29c-8.8,14.04-31.44,3.43-29.68-10.93
			c2.27-18.6,11.75-23.25,11.75-23.25"/>
		<path class="st3" d="M420.67,781.11c2.57-17.98,16.13-33.42,46.39-28.34c6.35,1.07,20.34,6.57,18.93,17.97
			c-0.25,2.02-0.84,3.57-1.65,4.84c1.75,6.33,1.98,18.43-17.91,28.18c0.34,3.51-1.88,4.14-2.66,10.26
			c-1.21,9.55-10.43,15.73-22.74,13.92C431.33,826.51,416.06,813.42,420.67,781.11z"/>
		<g>
			<path class="st3" d="M452.33,1267.72c0.52,4.74,5.24,14.12,6.03,17.46c0.8,3.32,2.47,24.8,2.47,24.8h3.57l0.85-24.26
				c0,0,0,0.03,0.03,0.1c0.32,0.88,2.85,8.13,4.02,12.3c1.17,4.19,11.68,8.18,15.24,8.07c3.55-0.12,19.29-10.8,22.84-17
				c3.57-6.2-16.75-3.44-16.75-3.44s5.62,2.88,3.32,5.51c-2.29,2.65-7.69,1.38-11.37-3.44c-4.48-5.87-11.93-39.14-24.8-30.66
				C457.78,1257.15,451.67,1261.64,452.33,1267.72z"/>
			<path class="st59" d="M465.25,1285.72c0,0,0,0.03,0.03,0.1c0.32,0.88,2.85,8.13,4.02,12.3c1.17,4.19,11.68,8.18,15.24,8.07
				c-1.72-0.21-4.2-4.2-7.5-10.57c-5.07-9.81-8.18-13.52-9.81-12.74C465.6,1283.65,465.25,1285.72,465.25,1285.72z"/>
		</g>
		<g>
			<path class="st3" d="M414.44,1252.23c0.52,4.74,5.24,14.12,6.03,17.46c0.8,3.32,2.47,24.8,2.47,24.8h3.57l0.85-24.26
				c0,0,0,0.03,0.03,0.1c0.32,0.88,2.85,8.13,4.02,12.3c1.17,4.19,11.68,8.18,15.24,8.07c3.55-0.12,19.29-10.8,22.84-17
				c3.57-6.2-16.75-3.44-16.75-3.44s5.62,2.88,3.32,5.51c-2.29,2.65-7.69,1.38-11.37-3.45c-4.48-5.87-11.93-39.14-24.8-30.66
				C419.9,1241.66,413.78,1246.15,414.44,1252.23z"/>
			<path class="st59" d="M427.37,1270.22c0,0,0,0.03,0.03,0.1c0.32,0.88,2.85,8.13,4.02,12.3c1.17,4.19,11.68,8.18,15.24,8.07
				c-1.72-0.21-4.2-4.2-7.5-10.57c-5.07-9.81-8.18-13.52-9.81-12.74C427.71,1268.15,427.37,1270.22,427.37,1270.22z"/>
		</g>
	</g>
	<g>
		<g>
			<linearGradient id="SVGID_50_" gradientUnits="userSpaceOnUse" x1="50.0546" y1="1018.453" x2="247.5715" y2="1018.453">
				<stop  offset="0" style="stop-color:#0562A0"/>
				<stop  offset="1" style="stop-color:#3087C8"/>
			</linearGradient>
			<path class="st60" d="M151.41,957.62l-101.35-2.58v108.54c0,0.66,0.32,1.32,0.96,1.7l71.34,43.17c2.24,1.35,5.04,1.35,7.28,0
				l116.98-70.79c0.63-0.38,0.95-1.04,0.95-1.69V927.43L151.41,957.62z"/>
			<path class="st2" d="M122.36,999.91l-71.34-43.17c-1.28-0.77-1.28-2.63,0-3.41l116.49-70.5c2.52-1.53,5.68-1.53,8.2,0
				l70.91,42.91c1.27,0.77,1.27,2.61,0,3.38l-116.98,70.79C127.4,1001.27,124.6,1001.27,122.36,999.91z"/>
		</g>
		<g>
			<path class="st3" d="M194.11,1083.61c0,0-5.69,7.59-5.86,13.96c-0.17,6.38,2.07,9.65,2.93,25c0.86,15.34,9.48,30.86,22.24,32.24
				c0,0,5.34,0.52,6.21-5.34c0.86-5.86,0.34-13.04-2.42-21.52c-2.75-8.48-12.06-24.68-12.06-24.68"/>
			<path class="st3" d="M229.47,1060.76c0,0-4.58,5.18-5.18,10.09c-0.61,4.91,1.14,10.6,2.59,15.51c1.46,4.91,1.07,21.46,1.71,21.98
				s1.75,0.65,2.46,0l0.52-21.66c0,0,3.49,1.49,4.65,6.08c1.16,4.59,0.47,17.56,3.06,23.25c0.91,2,20.28,12.69,27.19,8.94
				c0,0,2.07-3.94,0.78-8.21c-1.29-4.27-4.63-8.11-6.94-10.68c-2.3-2.57-13.1-21.9-13.1-21.9"/>
			<path class="st61" d="M223.42,980.06c1.03,1.38-6.03,11.89,0,34.65c6.03,22.75,7.93,39.99,5.34,49.65
				c-2.59,9.65-0.68,11.55,1.13,15c1.8,3.45,8.7,9.14,10.25,18.1c1.55,8.96,5.52,12.93,13.1,13.45c7.59,0.52,7.07-4.83,7.07-4.83
				s-3.73-6.58-5.67-17.3c-2.07-11.43-8.29-17.52-9.15-30.45c-0.86-12.93,7-107.46,5.34-111.88c-1.34-3.58-3.28-7.76-8.62-11.2
				c-5.34-3.45-39.65-2.76-39.65-2.76l-14.31,15.34l10.86,13.96"/>
			<path class="st61" d="M183.94,982.12c0,0,2.41,5,2.59,9.65c0.17,4.65-2.76,28.1-1.29,41.55c1.47,13.45,6.12,37.75,6.64,55.16
				c0.52,17.41,1.94,40.47,7.63,47.45c5.69,6.98,17.97,4.65,18.36-2.07c0.39-6.72-9.05-39.17-9.31-47.19
				c-0.26-8.02,9.29-58.7,9.32-69.56c0.03-10.86,4.31-38.96,2.27-45.16c-2.04-6.21-9.48-15.51-20.34-24.82
				C199.8,947.13,172.05,964.54,183.94,982.12z"/>
			<path class="st3" d="M248.61,939.58c0,0,4.34,2.32,4.34,10.76c0,8.44-6.36,107.34-6.36,107.34s-3.54,3.09-10.31,1.73
				c-4.81-0.96-7.65-3.67-7.65-3.67s-2.94-26.61-4.34-32.93c-1.4-6.32-4.87-18.96-5.89-26.71c-1.02-7.75,2.66-14.27,2.3-15.8
				c-0.36-1.53-18.19-13.87-18.19-13.87L248.61,939.58z"/>
			<path class="st3" d="M189.54,1075.93c0,0,5.04,8.44,20.23,3.75c0,0,7.17-43.59,8.8-54.6c1.63-11.01,5.03-44.02,4.08-52.05
				c-0.95-8.03-16.29-25.43-21.81-29.79c-5.52-4.35-28.33,18.77-19.03,38.48c0,0,3.58,5.54,3.12,11.99
				c-0.46,6.45-2,20.81-1.61,32.86C183.7,1038.62,189.54,1075.93,189.54,1075.93z"/>
			<path class="st3" d="M101.26,896.97c0,0-9.99,13.45-7.27,34.48c2.72,21.03,11.69,25.86,31.68,34.82
				c20,8.96,58.27,15.86,58.27,15.86s-0.35-12.07,7.58-18.27c7.93-6.21,45.16-28.62,50.68-28.62c0,0-4.73-4.11-16.97-11.87
				c-12.24-7.76-41.3-20.19-46.64-26.4c-5.34-6.21-5.52-27.41-5.52-27.41S112.01,877.32,101.26,896.97z"/>
			<g>
				<linearGradient id="SVGID_51_" gradientUnits="userSpaceOnUse" x1="163.2898" y1="954.2123" x2="255.0481" y2="903.7083">
					<stop  offset="0" style="stop-color:#0562A0"/>
					<stop  offset="1" style="stop-color:#3087C8"/>
				</linearGradient>
				<path class="st62" d="M275.11,924l-1.92,0.84l-54.07-33.16c-0.92-0.57-2.08-0.59-3.03-0.07l-83.01,45.83v-0.32l-1.59-0.23h-1.59
					v3.33l0.03,0c0.03,0.49,0.25,0.97,0.73,1.26l55.54,34.07c0.94,0.58,2.12,0.61,3.09,0.07l84.82-46.83
					c0.63-0.35,0.96-0.97,0.99-1.61l0.01,0V924z"/>
				<linearGradient id="SVGID_52_" gradientUnits="userSpaceOnUse" x1="131.7574" y1="972.3998" x2="219.0763" y2="920.6003">
					<stop  offset="0" style="stop-color:#0562A0"/>
					<stop  offset="1" style="stop-color:#3087C8"/>
				</linearGradient>
				<path class="st63" d="M274.11,925.5l-84.82,46.83c-0.97,0.53-2.15,0.51-3.09-0.07l-55.54-34.07c-1.03-0.63-1-2.15,0.06-2.73
					l85.37-47.14c0.95-0.52,2.11-0.5,3.03,0.07l55.07,33.78C275.45,922.95,275.4,924.79,274.11,925.5z"/>
			</g>
			<g>
				<path class="st64" d="M251.74,915.06c-1.3,2.29-6.59,6.01-14.09,4.27c-2.94-0.68-4.27-3.26-5.68-4.78
					c-1.22-1.35-5.09-3.88-5.09-3.88c-2.05-1.84-6.11-2.39-7.93-5.88c-1.99-3.89-1.86-6.03-3.87-7.48
					c-2.01-1.47-25.05-16.24-25.05-16.24l9.83-11.95c0,0,18.36,13.83,24.77,16.16c6.41,2.33,14.23,6.01,20.3,12.1
					C251.01,903.45,253.41,912.13,251.74,915.06z"/>
				<linearGradient id="SVGID_53_" gradientUnits="userSpaceOnUse" x1="152.7444" y1="824.684" x2="206.6989" y2="824.684">
					<stop  offset="0" style="stop-color:#0562A0"/>
					<stop  offset="1" style="stop-color:#3087C8"/>
				</linearGradient>
				<path class="st65" d="M206.7,873.21c-4.61,2.15-7.12,6.04-8.42,9.1c-1.08,2.5-1.37,4.43-1.37,4.43s-17.48-10.55-29.97-19.22
					c-6-4.16-10.82-7.88-12.06-9.8c-1.99-3.1-1.45-8.61-1.61-19.47c-0.19-10.86-1.2-38.41,0.23-57.65
					c1.43-19.24,15.16-17.96,15.16-17.96c8.9,0.99,15.47,10.12,15.83,23.83c0.21,7.55-1.99,25.15-3.99,39.47
					c-0.87,6.14-1.7,11.69-2.3,15.58c-0.1,0.7-0.14,1.39-0.1,2.09c0.12,2.79,1.39,5.46,3.58,7.32
					C192.16,860.01,206.7,873.21,206.7,873.21z"/>
				<linearGradient id="SVGID_54_" gradientUnits="userSpaceOnUse" x1="165.9059" y1="856.3427" x2="198.28" y2="856.3427">
					<stop  offset="0" style="stop-color:#0562A0"/>
					<stop  offset="1" style="stop-color:#3087C8"/>
				</linearGradient>
				<path class="st66" d="M198.28,882.31c-1.08,2.5-1.37,4.43-1.37,4.43s-17.48-10.55-29.97-19.22l-1.03-18.49l5.05-5.17l2.96-15.27
					l6.58-2.65c-0.87,6.14-1.7,11.69-2.3,15.58c0,0-0.04,0.79-0.1,2.09c-0.19,4.8-0.58,16.49,0.1,21.06
					C178.92,869.45,193.21,879.02,198.28,882.31z"/>
			</g>
			<linearGradient id="SVGID_55_" gradientUnits="userSpaceOnUse" x1="93.7209" y1="843.868" x2="188.1651" y2="843.868">
				<stop  offset="0" style="stop-color:#0562A0"/>
				<stop  offset="1" style="stop-color:#3087C8"/>
			</linearGradient>
			<path class="st67" d="M187.26,818.31c-0.25,0.68-0.52,1.37-0.79,2.03c0,0,0,0,0,0.02c0,0-0.02,0-0.02,0.02
				c-1.68,4.01-3.79,7.32-5.61,9.74c-1.57,2.09-2.79,4.36-3.66,6.78h-0.02c-0.81,2.21-1.32,4.51-1.53,6.87
				c-2.81,30.59,5.79,55.13,5.79,55.13s-24.31,26.19-51.71,26.19c-27.41,0-35.99-12.08-35.99-12.08s6.68-16.57,11.36-27.04
				c3.37-7.57,3.43-24.49,0.85-37.94c-2.59-13.45-18.37-49.42-7.57-64.97c11-15.91,51.36-19.55,69.36-20.4
				c6.35-0.29,11.54,4.99,11.13,11.36c-0.31,5.17-1.28,10.61,0.52,15.25C182.65,797.7,190.88,808.15,187.26,818.31z"/>
			<path class="st68" d="M157.17,773.74c0,0,5.69,7.17-0.49,9.46C156.67,783.2,156.67,777.9,157.17,773.74z"/>
			<path class="st61" d="M128.73,751.43c0,0-1.54,13.5-1.88,17.46c-0.34,3.97,9.83,18.79,29.82,14.31c0,0-0.17-22.67,7.07-31.03
				l-28.1-11.72h-5.83"/>
			<path class="st64" d="M177.9,706.34c0,0,2.99,19.33-2.07,36.36c-5.06,17.03-11.97,21.86-15.88,22.09
				c-3.91,0.23-25.15-8.4-31.82-24.74c-6.67-16.34-7.3-29.8-4.31-39.46c2.99-9.67,19.79-17.95,31.53-15.88
				C167.08,686.78,176.75,695.06,177.9,706.34z"/>
			<path class="st3" d="M137.22,687.81l-7.9,9.59l-4.96,6.07c0,0-17.88-2.41-20.56-14.55c-0.39-1.7-0.13-3.91,0.46-6.13
				c0.72-2.61,2.35-5.14,3.78-6.71C114.7,668.51,131.74,670.13,137.22,687.81z"/>
			<path class="st3" d="M129.32,697.41l-4.96,6.07c0,0-17.88-2.41-20.56-14.55c-0.39-1.7-0.13-3.91,0.46-6.13
				c0,0,6.46,15.27,19.84,14.23C126.52,696.82,128.21,696.95,129.32,697.41z"/>
			<path class="st3" d="M178.07,698.19c-0.2-0.46-0.46-0.78-0.72-1.24c-10.24-16.44-37.26-24.27-55.99-4.37
				c-5.22,5.55-8.42,13.57-10.11,22.12v0.07c-2.41,20.03,9,26.12,11.42,30.68c2.41,4.53,5.67,8.86,6.06,5.98
				c0.33-2.87,0.61-12.28,6.59-12.65v-1.3c0.07-2.87,0.07-5.42,0.26-7.77c0.26-3.41,5.68-5.58,12-7.02
				c-1.63,2.34-3.11,4.99-1.78,5.51c2.45,0.96,19.7-4.1,30.52-14.07C180.17,710.59,180.92,703.61,178.07,698.19z"/>
			<path class="st64" d="M137.21,731.59c0,0-2.36-3.92-6.11-3.32c-3.72,0.6-3.98,6.29-2.8,10.83c1.77,6.77,8.4,6.33,8.4,6.33"/>
			<g>
				<linearGradient id="SVGID_56_" gradientUnits="userSpaceOnUse" x1="183.7803" y1="915.1988" x2="298.8755" y2="915.1988">
					<stop  offset="0" style="stop-color:#0562A0"/>
					<stop  offset="1" style="stop-color:#3087C8"/>
				</linearGradient>
				<path class="st69" d="M298.88,859.72l-3.23-2.03l0,0.01c-0.42-0.34-1.01-0.46-1.58-0.15l-84.68,46.37
					c-0.89,0.49-1.58,1.29-1.94,2.24l-23.6,63.65c-0.17,0.45-0.01,0.88,0.28,1.16l0,0.01l0.01,0.01c0.03,0.02,0.06,0.03,0.09,0.05
					l3.21,2l1.97-1.55l-1.5-1.73l82.5-45.18c1.2-0.66,2.13-1.73,2.6-3.01l21.88-59c0.9-0.3,2.2-0.75,2.38-0.87
					C297.54,861.5,298.88,859.72,298.88,859.72z"/>
				<linearGradient id="SVGID_57_" gradientUnits="userSpaceOnUse" x1="187.1164" y1="916.4109" x2="299.523" y2="916.4109">
					<stop  offset="0" style="stop-color:#0562A0"/>
					<stop  offset="1" style="stop-color:#3087C8"/>
				</linearGradient>
				<path class="st70" d="M210.79,908.26l-23.61,63.65c-0.35,0.93,0.65,1.8,1.53,1.32l85.02-46.56c1.2-0.66,2.12-1.73,2.6-3.01
					l23.09-62.26c0.46-1.24-0.86-2.38-2.02-1.75l-84.68,46.37C211.84,906.5,211.15,907.3,210.79,908.26z"/>
			</g>
			<linearGradient id="SVGID_58_" gradientUnits="userSpaceOnUse" x1="107.4204" y1="849.5853" x2="186.4567" y2="849.5853">
				<stop  offset="0" style="stop-color:#0562A0"/>
				<stop  offset="1" style="stop-color:#3087C8"/>
			</linearGradient>
			<path class="st71" d="M169.33,835.37c-5.56,1.89-17.87,5.69-28.39,8.72c-0.03,0-6.47,0.67-11.04-1.27
				c-4.58-1.94-5.88-16.76-5.88-16.76c-0.09-6.93-0.21-11.89-0.21-11.89l-16.39,32.75l4.65,25.69l28.87,12.41l-17.13-21.31v-4.55
				c0-0.05,0-0.09,0.01-0.14c0.08-1.85,1.3-3.44,3.06-4.04c5.16-1.77,15.06-6.59,21.61-8.55c8.61-2.59,24.12-6.6,28.69-9.52h0.02
				c0.87-2.42,2.09-4.7,3.66-6.78c1.82-2.42,3.93-5.73,5.61-9.74C186.04,821.06,179.2,832.04,169.33,835.37z"/>
			<g>
				<path class="st64" d="M191.61,931.93c-1.3,2.29-4.38,5.94-11.89,4.2c-2.94-0.68-6.85-6.08-8.26-7.6
					c-1.22-1.35-4.5-1.06-5.65-1.43c-2.62-0.85-5.18-1.95-7-5.43c-1.99-3.89-1.86-6.03-3.87-7.48
					c-2.01-1.47-25.05-16.24-25.05-16.24l9.83-11.95c0,0,18.36,13.83,24.77,16.16c6.41,2.33,14.23,6.01,20.3,12.1
					C190.87,920.32,193.27,929.01,191.61,931.93z"/>
				<linearGradient id="SVGID_59_" gradientUnits="userSpaceOnUse" x1="92.6117" y1="840.9762" x2="146.5676" y2="840.9762">
					<stop  offset="0" style="stop-color:#0562A0"/>
					<stop  offset="1" style="stop-color:#3087C8"/>
				</linearGradient>
				<path class="st72" d="M106.45,778.34c0,0-11.67-0.09-13.09,19.15c-1.43,19.23-0.41,46.78-0.23,57.64
					c0.18,10.86-0.36,16.37,1.61,19.46c3.8,5.94,42.03,29.03,42.03,29.03s1.43-9.62,9.8-13.53c0,0-15.83-14.35-26.37-23.43
					c-1.87-1.61-2.77-4.07-2.4-6.51c1.79-11.59,6.84-45.49,6.55-56.79C123.99,789.65,115.35,779.32,106.45,778.34z"/>
			</g>
		</g>
	</g>
	<g>
		
			<linearGradient id="SVGID_60_" gradientUnits="userSpaceOnUse" x1="820.7521" y1="826.9595" x2="1162.1782" y2="826.9595" gradientTransform="matrix(1 0.0349 0 1 0 -31.2964)">
			<stop  offset="0" style="stop-color:#0562A0"/>
			<stop  offset="1" style="stop-color:#3087C8"/>
		</linearGradient>
		<path class="st73" d="M1157.12,805.08L829.99,604.78c-1.41-0.86-2.68-0.98-3.6-0.48l-5.64,2.61l4.17,5.61
			c-0.12,42.76-0.12,199.55,0.02,231.71c0.01,3.2,2.27,7.15,5.06,8.85l318.89,195.25l6.08,8.18l5.41-2.54
			c0.16-0.06,0.32-0.12,0.46-0.22l0.09-0.04l-0.01-0.02c0.78-0.54,1.27-1.57,1.27-3.03v-236.7
			C1162.18,810.77,1159.91,806.79,1157.12,805.08z"/>
		
			<linearGradient id="SVGID_61_" gradientUnits="userSpaceOnUse" x1="798.1329" y1="964.2625" x2="1072.4821" y2="767.9687" gradientTransform="matrix(1 0.0349 0 1 0 -31.2964)">
			<stop  offset="0.1035" style="stop-color:#CCC4E1"/>
			<stop  offset="0.1732" style="stop-color:#D2CAE5"/>
			<stop  offset="0.49" style="stop-color:#E8E4F2"/>
			<stop  offset="0.7752" style="stop-color:#F7F6FB"/>
			<stop  offset="1" style="stop-color:#FFFFFF"/>
		</linearGradient>
		<path class="st74" d="M1151.28,1056.09L824.16,855.81c-2.78-1.7-5.04-5.65-5.06-8.85c-0.14-33.61-0.15-203.35-0.01-236.79
			c0.01-3.19,2.27-4.37,5.06-2.66l327.13,200.29c2.79,1.71,5.06,5.69,5.06,8.9v236.7
			C1156.34,1056.59,1154.08,1057.8,1151.28,1056.09z"/>
		
			<linearGradient id="SVGID_62_" gradientUnits="userSpaceOnUse" x1="1139.1758" y1="705.5609" x2="1002.373" y2="816.0553" gradientTransform="matrix(1 0.0349 0 1 0 -31.2964)">
			<stop  offset="0" style="stop-color:#0562A0"/>
			<stop  offset="1" style="stop-color:#3087C8"/>
		</linearGradient>
		<path class="st75" d="M1141.76,813.94L833.69,624.96l-1.21-0.73c-2.53-1.51-4.58-0.48-4.58,2.42c-0.16,30.3-0.16,184,0,214.42
			c0,2.89,2.05,6.49,4.58,8.05l309.28,189.65c2.58,1.56,4.63,0.48,4.63-2.42V821.99C1146.39,819.1,1144.34,815.5,1141.76,813.94z"/>
		
			<linearGradient id="SVGID_63_" gradientUnits="userSpaceOnUse" x1="818.845" y1="949.0469" x2="1066.5898" y2="771.7881" gradientTransform="matrix(1 0.0349 0 1 0 -31.2964)">
			<stop  offset="0" style="stop-color:#0562A0"/>
			<stop  offset="1" style="stop-color:#3087C8"/>
		</linearGradient>
		<path class="st76" d="M1141.76,813.94L833.69,624.96c-0.05,20.2-0.11,80.82-0.05,133.01c0,35.73,0,67.51,0.05,79.66
			c0.05,2.95,2.1,6.49,4.58,8.05l308.13,188.98V821.99C1146.39,819.1,1144.34,815.5,1141.76,813.94z"/>
		
			<linearGradient id="SVGID_64_" gradientUnits="userSpaceOnUse" x1="1133.0944" y1="763.1501" x2="1016.0315" y2="857.7007" gradientTransform="matrix(1 0.0349 0 1 0 -31.2964)">
			<stop  offset="0.1035" style="stop-color:#CCC4E1"/>
			<stop  offset="0.1732" style="stop-color:#D2CAE5"/>
			<stop  offset="0.49" style="stop-color:#E8E4F2"/>
			<stop  offset="0.7752" style="stop-color:#F7F6FB"/>
			<stop  offset="1" style="stop-color:#FFFFFF"/>
		</linearGradient>
		<path class="st77" d="M1146.39,899.18v135.49L838.26,845.69c-2.47-1.56-4.52-5.1-4.58-8.05c-0.05-10.1-0.05-33.78-0.05-61.98
			v-17.68l48.3-66.03l44.09,117.93l65.46-55.91l45.67,138.08l73.03-67.85L1146.39,899.18z"/>
		
			<linearGradient id="SVGID_65_" gradientUnits="userSpaceOnUse" x1="1090.2289" y1="820.9637" x2="1001.9871" y2="892.2358" gradientTransform="matrix(1 0.0349 0 1 0 -31.2964)">
			<stop  offset="0.1035" style="stop-color:#CCC4E1"/>
			<stop  offset="0.1732" style="stop-color:#D2CAE5"/>
			<stop  offset="0.49" style="stop-color:#E8E4F2"/>
			<stop  offset="0.7752" style="stop-color:#F7F6FB"/>
			<stop  offset="1" style="stop-color:#FFFFFF"/>
		</linearGradient>
		<path class="st78" d="M1146.39,962.27v72.4L838.26,845.69c-2.47-1.56-4.52-5.1-4.58-8.05c-0.05-10.1-0.05-33.78-0.05-61.98
			l40.41-21.53l44.72,97.59l72.72-12.61l47.04,85.83l69.03-13.37L1146.39,962.27z"/>
	</g>
	<g>
		<linearGradient id="SVGID_66_" gradientUnits="userSpaceOnUse" x1="792.5729" y1="305.6765" x2="833.0757" y2="305.6765">
			<stop  offset="0" style="stop-color:#0562A0"/>
			<stop  offset="1" style="stop-color:#3087C8"/>
		</linearGradient>
		<polygon class="st79" points="833.08,305.39 812.34,317.93 792.57,305.97 813.3,293.42 		"/>
		<linearGradient id="SVGID_67_" gradientUnits="userSpaceOnUse" x1="801.3656" y1="324.4571" x2="822.0966" y2="324.4571">
			<stop  offset="0" style="stop-color:#3264AF"/>
			<stop  offset="1" style="stop-color:#355AA9"/>
		</linearGradient>
		<polygon class="st80" points="812.34,317.93 812.34,343.53 833.08,330.98 833.08,305.39 		"/>
		<linearGradient id="SVGID_68_" gradientUnits="userSpaceOnUse" x1="792.5729" y1="324.7469" x2="812.3447" y2="324.7469">
			<stop  offset="0" style="stop-color:#0562A0"/>
			<stop  offset="1" style="stop-color:#3087C8"/>
		</linearGradient>
		<polygon class="st81" points="792.57,305.97 812.34,317.93 812.34,343.53 792.57,331.56 		"/>
	</g>
	<g>
		<linearGradient id="SVGID_69_" gradientUnits="userSpaceOnUse" x1="1128.2834" y1="179.2611" x2="1196.073" y2="179.2611">
			<stop  offset="0" style="stop-color:#0562A0"/>
			<stop  offset="1" style="stop-color:#3087C8"/>
		</linearGradient>
		<polygon class="st82" points="1196.07,178.78 1161.38,199.77 1128.28,179.75 1162.98,158.75 		"/>
		<linearGradient id="SVGID_70_" gradientUnits="userSpaceOnUse" x1="1142.9993" y1="210.6944" x2="1177.6971" y2="210.6944">
			<stop  offset="0" style="stop-color:#3264AF"/>
			<stop  offset="1" style="stop-color:#355AA9"/>
		</linearGradient>
		<polygon class="st83" points="1161.38,199.77 1161.38,242.61 1196.07,221.62 1196.07,178.78 		"/>
		<linearGradient id="SVGID_71_" gradientUnits="userSpaceOnUse" x1="1128.2834" y1="211.1796" x2="1161.3751" y2="211.1796">
			<stop  offset="0" style="stop-color:#0562A0"/>
			<stop  offset="1" style="stop-color:#3087C8"/>
		</linearGradient>
		<polygon class="st84" points="1128.28,179.75 1161.38,199.77 1161.38,242.61 1128.28,222.59 		"/>
	</g>
</g>
</svg>
