<svg xmlns="http://www.w3.org/2000/svg" width="101.24" height="98.45" fill="none" stroke="#0f46ca" stroke-width="2"><circle cx="59.23" cy="56.12" r="40.77"/><path d="M32.7 37.88c1.8 0 1.8-2.8 0-2.8-1.82 0-1.82 2.8 0 2.8h0zM36 82.2c1.8 0 1.8-2.8 0-2.8-1.82 0-1.82 2.8 0 2.8h0zm48.14-42.94c1.8 0 1.8-2.8 0-2.8s-1.8 2.8 0 2.8h0zM77.82 82.2c1.8 0 1.8-2.8 0-2.8-1.83 0-1.83 2.8 0 2.8h0zM58.8 39.05v17.07H48.48m-30.58 0h-5.95m7.32-11.72h-12m-4.07 0H0m58.66-29.05V0m0 21.63V25m0 61.97v3.37m-33.84-35.9v3.37m66.42-3.37v3.37" stroke-miterlimit="10"/></svg>