<svg xmlns="http://www.w3.org/2000/svg" xmlns:xlink="http://www.w3.org/1999/xlink" width="100" height="100"><g fill="#fff" stroke="#0f46ca" stroke-width="2"><g stroke-miterlimit="10"><path d="M98.28 98.28H1.72v-6.66l1.66-3.33H96.6l1.66 3.33v6.66zM50 1.72L3.4 28.36v10h93.2v-10L50 1.72z"/><path d="M30.02 51.66h13.32v4.58a2.08 2.08 0 0 1-2.08 2.08H32.1a2.08 2.08 0 0 1-2.08-2.08v-4.58zM43.34 88.3H30.02v-4.6a2.08 2.08 0 0 1 2.08-2.08h9.16a2.08 2.08 0 0 1 2.08 2.08v4.58zm13.32-36.64h13.32v4.58a2.08 2.08 0 0 1-2.08 2.08h-9.16a2.08 2.08 0 0 1-2.08-2.08v-4.58zM69.98 88.3H56.66v-4.6a2.08 2.08 0 0 1 2.08-2.08h9.16a2.08 2.08 0 0 1 2.08 2.08v4.58zM3.4 51.66h13.3v4.58a2.08 2.08 0 0 1-2.08 2.08H5.47a2.08 2.08 0 0 1-2.08-2.08v-4.58zM16.7 88.3H3.4v-4.6a2.08 2.08 0 0 1 2.08-2.08h9.16a2.08 2.08 0 0 1 2.08 2.08v4.58z"/><use xlink:href="#B"/><path d="M65.4 78.9l-.78 2.73H60l-.78-2.73c-1.66-5.83-1.66-12 0-17.84l.78-2.73h4.63l.78 2.73c1.66 5.84 1.66 12.02 0 17.84zm-53.27 0l-.78 2.73H6.72l-.78-2.73c-1.66-5.83-1.66-12 0-17.84l.78-2.73h4.63l.78 2.73c1.66 5.84 1.66 12.02 0 17.84z"/><use xlink:href="#B" x="53.27"/><path d="M83.3 51.66h13.3v4.58a2.08 2.08 0 0 1-2.08 2.08h-9.16a2.08 2.08 0 0 1-2.08-2.08v-4.58zM96.6 88.3H83.3v-4.6a2.08 2.08 0 0 1 2.08-2.08h9.16a2.08 2.08 0 0 1 2.08 2.08v4.58z"/><path d="M10.05 31.7L50 10.05 89.95 31.7v6.66h-79.9V31.7zM3.4 45h93.2v6.66H3.4V45z"/></g><circle cx="50" cy="27.22" r="4.99"/><path d="M31.7 25.03h6.66v5.52H31.7v-5.52zm29.95 0h6.66v5.52h-6.66v-5.52zM96.6 45H3.4l-1.66-6.66H98.3L96.6 45z" stroke-miterlimit="10"/></g><defs ><path id="B" d="M38.76 78.9l-.78 2.73h-4.63l-.78-2.73c-1.66-5.83-1.66-12 0-17.84l.78-2.73h4.63l.78 2.73a32.39 32.39 0 0 1 0 17.84z"/></defs></svg>