<svg xmlns="http://www.w3.org/2000/svg" width="103.18" height="101.53"><style><![CDATA[.B{stroke-linejoin:round}.C{stroke-miterlimit:10}]]></style><g fill="none" stroke="#0f46ca" stroke-width="2" class="B C"><g stroke-linecap="round"><path d="M19.32 18.47L2.88 25.52l48.56 20.12 48.85-20.12-17.87-7.66m-11.2-4.8L58.1 7.4"/><path d="M43.53 8.1L32 13.03"/></g><path d="M2.88 25.52v53.22l48.56 20.73V45.64z"/><path d="M100.3 25.52L51.44 45.64v53.83l48.86-20.73zm-49.26 3.5c-3.93 0-7.1-1.3-7.1-2.9v8.34c0 1.6 3.2 2.9 7.1 2.9 3.93 0 7.1-1.3 7.1-2.9v-8.34c0 1.6-3.18 2.9-7.1 2.9z"/><path d="M51.04 29.03c3.93 0 7.1-1.3 7.1-2.9s-3.18-2.9-7.1-2.9-7.1 1.3-7.1 2.9c-.01 1.6 3.18 2.9 7.1 2.9zM26.9 18.12c-3.93 0-7.1-1.3-7.1-2.9v8.34c0 1.6 3.2 2.9 7.1 2.9 3.93 0 7.1-1.3 7.1-2.9V15.2c0 1.6-3.18 2.9-7.1 2.9z"/><path d="M26.9 18.12c3.93 0 7.1-1.3 7.1-2.9s-3.18-2.9-7.1-2.9-7.1 1.3-7.1 2.9 3.18 2.9 7.1 2.9zm48.28.68c-3.93 0-7.1-1.3-7.1-2.9v8.34c0 1.6 3.2 2.9 7.1 2.9 3.93 0 7.1-1.3 7.1-2.9V15.9c.01 1.6-3.18 2.9-7.1 2.9z"/><path d="M75.18 18.8c3.93 0 7.1-1.3 7.1-2.9S79.1 13 75.18 13s-7.1 1.3-7.1 2.9 3.2 2.9 7.1 2.9zM51.04 7.88c-3.93 0-7.1-1.3-7.1-2.9v8.34c0 1.6 3.2 2.9 7.1 2.9 3.93 0 7.1-1.3 7.1-2.9V4.97c0 1.6-3.18 2.9-7.1 2.9z"/><path d="M51.04 7.88c3.93 0 7.1-1.3 7.1-2.9s-3.18-2.9-7.1-2.9-7.1 1.3-7.1 2.9c-.01 1.6 3.18 2.9 7.1 2.9z"/></g></svg>