<svg xmlns="http://www.w3.org/2000/svg" width="100" height="81.83" fill="none" stroke="#0f46ca" stroke-width="2" stroke-miterlimit="10"><path d="M4.56 2.1h38.7v77.6H4.56c-1.86 0-3.36-1.5-3.36-3.35V5.48c0-1.86 1.5-3.38 3.36-3.38zM98.8 5.48v70.87c-.01 1.86-1.5 3.37-3.37 3.37h-38.7V2.1h38.7c1.86 0 3.36 1.5 3.37 3.37z"/><path d="M53.37 2.1h-10.1v77.6h13.46V2.1z"/><path d="M56.73 2.1v6.75l-13.46 13.5V12.23L53.37 2.1zm0 16.88V29.1L43.27 42.6V32.48zm0 20.25v10.12l-13.46 13.5V52.72zm0 20.24V69.6l-10.1 10.12h-3.36v-6.75zM38.2 41.17c.01-.08.01-.17.01-.25 0-.07.01-.13 0-.2-.01-.08-.04-.17-.06-.25-.02-.06-.03-.13-.05-.2 0-.01 0-.02-.01-.03-.03-.08-.1-.15-.13-.22-.03-.04-.04-.1-.07-.13l-5.05-6.75a1.69 1.69 0 0 0-1.55-.66c-.6.07-1.1.46-1.35 1s-.16 1.2.2 1.67l3.03 4.05H9.6c-.93 0-1.68.76-1.68 1.7s.75 1.7 1.68 1.7h23.56l-3.03 4.05a1.71 1.71 0 0 0-.16 1.77 1.68 1.68 0 0 0 1.5.93 1.7 1.7 0 0 0 1.35-.67l5.05-6.75c.03-.04.05-.1.08-.14.02-.04.06-.07.08-.12.01-.02.01-.04.02-.07.04-.08.06-.16.08-.24l.05-.2zm52.2-1.94H66.83l3.03-4.05a1.686 1.686 0 0 0-2.7-2.02L62.1 39.9c-.01.02-.02.04-.03.05a1.52 1.52 0 0 0-.17.3c-.01.02-.02.04-.03.07-.05.13-.08.26-.1.4v.1c-.01.1 0 .22.02.33.01.03.01.07.02.1a1.87 1.87 0 0 0 .13.4c.02.03.03.04.04.06l.13.2 5.05 6.75c.32.43.82.68 1.35.67.64 0 1.22-.36 1.5-.93s.22-1.25-.16-1.77l-3.03-4.05H90.4c.93 0 1.68-.76 1.68-1.7-.01-.94-.76-1.7-1.7-1.7z"/></svg>