<svg xmlns="http://www.w3.org/2000/svg" width="100" height="100"><g fill="none" stroke="#0f46ca" stroke-width="2" stroke-linejoin="round" stroke-miterlimit="10"><path d="M17.96 25.5H98.3v49.24H17.96z"/><path d="M17.9 74.33a8.09 8.09 0 1 0-16.18 0V25.67a8.09 8.09 0 1 1 16.18 0v48.66z"/><path stroke-linecap="round" d="M1.7 74.33a8.09 8.09 0 0 0 8.09 8.09l.3-.01H66v-7.67"/><path d="M22.9 33.46h23.88v6.06H22.9zm28.72 0h9.42v6.06h-9.42zm14.36 0h6.7v6.06h-6.7z"/><path d="M76.98 39.53h16.05M22.15 48.2h70.88m-70.88 8.73h70.88M36.5 67.13h36.56m6.07 0h13.9" stroke-linecap="round"/></g><path fill="#0f46ca" d="M30.26 62.35v.56c.37.04.7.1.95.23.27.1.5.3.7.52a2 2 0 0 1 .36.55c.08.2.13.36.13.5 0 .17-.06.32-.2.45a.62.62 0 0 1-.46.19c-.34 0-.56-.18-.66-.55-.1-.43-.4-.72-.83-.86v2.16l1.03.32c.25.1.48.24.68.42a1.97 1.97 0 0 1 .5.68c.12.26.17.55.17.87 0 .4-.1.76-.28 1.1a2.2 2.2 0 0 1-.82.84c-.36.22-.8.35-1.28.4v1.3c0 .2-.02.35-.06.45-.04.1-.13.14-.26.14-.12 0-.2-.04-.26-.1-.05-.08-.08-.2-.08-.35v-1.4c-.4-.04-.76-.14-1.06-.3s-.56-.33-.76-.54c-.2-.22-.35-.44-.45-.68a1.72 1.72 0 0 1-.15-.69c0-.17.07-.32.2-.45.13-.13.3-.2.5-.2.16 0 .3.04.4.1a.51.51 0 0 1 .22.31l.24.65c.07.15.17.3.3.4s.33.22.56.3v-2.42c-.46-.13-.85-.27-1.16-.43a2.04 2.04 0 0 1-.76-.67c-.2-.3-.3-.66-.3-1.12 0-.6.2-1.08.57-1.46s.93-.6 1.64-.66v-.55c0-.3.1-.44.33-.44.25 0 .36.14.36.42zm-.66 3.57v-2c-.3.1-.52.2-.68.34s-.24.36-.24.64c0 .27.08.48.23.62s.38.27.7.4zm.66 1.54v2.28c.35-.07.62-.2.8-.42s.3-.46.3-.74c0-.3-.1-.53-.28-.7-.18-.17-.46-.3-.82-.42z"/></svg>