<svg xmlns="http://www.w3.org/2000/svg" width="100" height="100" fill="#fff" stroke="#0f46ca"><g stroke-width="2" stroke-miterlimit="10"><path d="M12.35 97.9s6.84-6.84 6.84-27.38-3.43-27.38-3.43-27.38h30.8S43.14 50 43.14 70.53s6.84 27.38 6.84 27.38H12.35z"/><path d="M12.35 36.3H50v6.84H12.35V36.3z"/><path d="M46.57 36.3v-4.28A8.55 8.55 0 0 1 50 25.19c2.15-1.62 3.43-4.15 3.43-6.84V2.1h-13.7v6.84a8.56 8.56 0 0 1-8.56 8.56 8.56 8.56 0 0 0-8.56 8.56v1.7a6.84 6.84 0 0 0-6.84 6.84v1.7h30.8zm10.27 61.6s6.84-6.84 6.84-27.38-3.43-27.38-3.43-27.38h30.8s-3.42 6.86-3.42 27.4 6.84 27.38 6.84 27.38H56.84z"/><path d="M32.9 60.26h47.9V97.9H32.9V60.26zM56.84 36.3H94.5v6.84H56.84V36.3z"/><path d="M72.25 65.4h3.43v3.43h-3.43V65.4zm0 6.85h3.43v3.43h-3.43v-3.43zM65.4 65.4h3.43v3.43H65.4V65.4zm0 6.85h3.43v3.43H65.4v-3.43zm-6.85-6.85h3.43v3.43h-3.43V65.4zm0 6.85h3.43v3.43h-3.43v-3.43zM91.07 36.3v-4.28a8.55 8.55 0 0 1 3.43-6.84c2.15-1.62 3.43-4.15 3.43-6.84V2.1h-13.7v6.84a8.56 8.56 0 0 1-8.56 8.56 8.56 8.56 0 0 0-8.56 8.56v1.7a6.84 6.84 0 0 0-6.84 6.84v1.7h30.8zm-59.9-5.13h-3.42a8.57 8.57 0 0 1 8.56-8.56v3.43c-2.84 0-5.14 2.3-5.14 5.13z"/><path d="M79.1 31.17h-3.43a8.57 8.57 0 0 1 8.56-8.56v3.43c-2.83 0-5.13 2.3-5.13 5.13zm-39.37-8.55V19.2a5.13 5.13 0 0 0 5.13-5.13h3.43c-.01 4.72-3.84 8.54-8.56 8.55zm35.93 30.8h3.43v6.84h-3.43v-6.84zm-6.84 0h3.43v6.84h-3.43v-6.84zM58.55 89.36H80.8v3.43H58.55v-3.43zm30.8-80.43h3.43v6.84h-3.43V8.93z"/><path d="M2.08 97.9c0-16.06 13.03-29.1 29.1-29.1s29.1 13.03 29.1 29.1H2.08z"/><path d="M22.62 84.23a6.84 6.84 0 0 1 6.84 6.84v6.84h-13.7v-6.84a6.84 6.84 0 0 1 6.85-6.84z"/></g><path stroke-miterlimit="10" d="M34.6 85.94h3.43v3.43H34.6v-3.43zm6.84 0h3.43v3.43h-3.43v-3.43z"/></svg>