<svg xmlns="http://www.w3.org/2000/svg" width="103.18" height="101.53" fill="none" stroke="#0f46ca" stroke-width="2" stroke-miterlimit="10"><path d="M55.08 72.25h0z"/><path d="M73.07 54.25h-18v18c9.22-1.5 16.5-8.8 18-18zm-18-24.97v18h18c-1.5-9.22-8.8-16.5-18-18zM80.1 54.25C78.53 67.3 68.14 77.7 55.08 79.3v20.65c24.4-1.7 43.98-21.28 45.7-45.7H80.1zM55.08 1.6v20.65c13.06 1.6 23.45 11.97 25.04 25.04h20.65c-1.72-24.43-21.27-44-45.7-45.7zM2.4 47.28h20.65c1.6-13.06 11.97-23.45 25.04-25.04V1.6C23.7 3.3 4.13 22.86 2.4 47.28zm27.7 0h18v-18c-9.22 1.5-16.5 8.78-18 18zm-7.03 6.97H2.4c1.72 24.4 21.28 43.98 45.7 45.7V79.3c-13.06-1.6-23.45-12-25.03-25.05zm7.03 0c1.5 9.2 8.78 16.5 18 18v-18h-18z"/></svg>