<?xml version="1.0" encoding="utf-8"?>
<!-- Generator: Adobe Illustrator 23.0.2, SVG Export Plug-In . SVG Version: 6.00 Build 0)  -->
<svg version="1.1" id="Layer_1" xmlns="http://www.w3.org/2000/svg" xmlns:xlink="http://www.w3.org/1999/xlink" x="0px" y="0px"
	 width="100px" height="100px" viewBox="0 0 100 100" style="enable-background:new 0 0 100 100;" xml:space="preserve">
<style type="text/css">
	.st0{fill:none;stroke:#0F46CA;stroke-width:2;stroke-linecap:round;stroke-linejoin:round;stroke-miterlimit:10;}
	.st1{fill:#0F46CA;}
</style>
<g>
	<line class="st0" x1="50.2" y1="35.9" x2="50.2" y2="26.6"/>
	<path class="st0" d="M55.2,35.9v-1.8l4.4-4.5c0,0,0-2.3,0-2.5"/>
	<polyline class="st0" points="45.1,35.9 45.1,34 40.8,29.8 40.8,27.5 	"/>
	<polyline class="st0" points="63.8,38.1 65.7,38.1 69.4,33.4 69.4,29.5 	"/>
	<polyline class="st0" points="36.3,37.7 35.2,37.7 30.7,33.3 30.7,30.2 	"/>
	<polyline class="st0" points="64.2,42.4 67.2,42.4 76.1,32.9 78.5,32.9 	"/>
	<polyline class="st0" points="64.2,47.3 70.8,47.3 77.4,40.3 86.5,40.3 	"/>
	<polyline class="st0" points="64.2,49.5 77.5,49.5 79.4,47.3 	"/>
	<polyline class="st0" points="64.2,52.8 70.4,52.8 77.3,59.7 86,59.7 	"/>
	<polyline class="st0" points="82.3,51.7 84.6,49.9 94.6,49.9 	"/>
	<polyline class="st0" points="64.2,57.7 67.7,57.7 76,66.9 78.5,66.9 	"/>
	<polyline class="st0" points="63.8,61.6 65.6,61.6 69.4,66.4 69.4,70.7 	"/>
	<polyline class="st0" points="55.2,63.9 55.2,65.8 59.6,70 59.6,73.2 	"/>
	<line class="st0" x1="50.2" y1="63.9" x2="50.2" y2="73.7"/>
	<polyline class="st0" points="45.1,63.9 45.1,65.8 41.1,70 41.1,73.4 	"/>
	<polyline class="st0" points="36.9,62 35.1,62 31,66.9 31,70.5 	"/>
	<polyline class="st0" points="36.3,57.7 33.1,57.7 24.5,67.2 21.7,67.2 	"/>
	<polyline class="st0" points="36.3,52.8 29.5,52.8 23.5,59.7 13.9,59.7 	"/>
	<polyline class="st0" points="6.8,49.9 15.6,49.9 17.9,52.1 	"/>
	<polyline class="st0" points="36.3,49.5 22.6,49.5 21.7,48.2 	"/>
	<polyline class="st0" points="36.3,47.3 29.9,47.3 23.1,40.3 14.3,40.3 	"/>
	<polyline class="st0" points="36.3,42.2 32.8,42.2 24.3,32.9 22.5,32.9 	"/>
	<circle class="st1" cx="40.8" cy="24.6" r="3"/>
	<circle class="st1" cx="50.2" cy="23.7" r="3"/>
	<circle class="st1" cx="59.5" cy="24.2" r="3"/>
	<circle class="st1" cx="69.4" cy="27.1" r="3"/>
	<circle class="st1" cx="81" cy="33.2" r="3"/>
	<circle class="st1" cx="89" cy="40.5" r="3"/>
	<circle class="st1" cx="80.9" cy="45.3" r="3"/>
	<circle class="st1" cx="81" cy="53.7" r="3"/>
	<circle class="st1" cx="96.2" cy="49.9" r="3"/>
	<circle class="st1" cx="89" cy="59.7" r="3"/>
	<circle class="st1" cx="80.9" cy="67.1" r="3"/>
	<circle class="st1" cx="69.4" cy="73.2" r="3"/>
	<circle class="st1" cx="59.6" cy="76.1" r="3"/>
	<circle class="st1" cx="50.2" cy="76.3" r="3"/>
	<circle class="st1" cx="40.8" cy="75.8" r="3"/>
	<circle class="st1" cx="31" cy="73.2" r="3"/>
	<circle class="st1" cx="19.3" cy="66.8" r="3"/>
	<circle class="st1" cx="10.9" cy="59.7" r="3"/>
	<circle class="st1" cx="19.9" cy="53.7" r="3"/>
	<circle class="st1" cx="3.8" cy="50.2" r="3"/>
	<circle class="st1" cx="19.9" cy="45.9" r="3"/>
	<circle class="st1" cx="11.4" cy="40.3" r="3"/>
	<circle class="st1" cx="19.9" cy="32.9" r="3"/>
	<circle class="st1" cx="30.9" cy="27.5" r="3"/>
	<path class="st0" d="M60.4,63.9H40.1c-2.1,0-3.8-1.7-3.8-3.8V39.7c0-2.1,1.7-3.8,3.8-3.8h20.3c2.1,0,3.8,1.7,3.8,3.8v20.4
		C64.2,62.2,62.5,63.9,60.4,63.9z"/>
	<circle class="st0" cx="43.7" cy="44" r="3.2"/>
</g>
</svg>
