<svg xmlns="http://www.w3.org/2000/svg" width="100" height="100"><path d="M50.23 35.62v-9.4m5.07 9.4v-1.8l4.48-4.6V26.7m-14.72 8.93v-1.87l-4.4-4.35v-2.27M63.4 37.9h2.54l3.77-4.74V29.1m-33.04 8.4h-1.73l-4.54-4.53v-3.1m34.02 12.37h3.08l9.08-9.66h2.36M64.42 47.24h6.7l6.75-7.07h9.22m-22.67 9.27H78l1.88-2.2m-15.46 5.58h6.32l7 7h8.88m-3.74-8.12l2.33-1.84h10.14M64.42 57.8h3.6l8.43 9.34h2.5M64 61.83h1.88l3.83 4.87v4.38M55.3 64.1v2l4.47 4.28v3.18m-9.54-9.46v10m-5.17-10v2l-4.16 4.3v3.4m-4.23-11.57h-1.8l-4.22 4.92v3.72m5.4-13.07H32.8l-8.75 9.73H21.2m14.84-14.7h-6.87l-6.16 7h-9.73m-7.26-9.95h9l2.32 2.27m18.7-2.7H22.17l-.96-1.3m14.83-.9h-6.48l-6.88-7.07h-8.95m22.3 1.88h-3.5l-8.7-9.47H22" fill="none" stroke="#577dda" stroke-miterlimit="10"/><g fill="#0f46ca"><circle cx="40.66" cy="24.12" r="3.01"/><circle cx="50.23" cy="23.22" r="3.01"/><circle cx="59.62" cy="23.72" r="3.01"/><circle cx="69.71" cy="26.73" r="3.01"/><circle cx="81.58" cy="32.86" r="3.01"/><circle cx="89.64" cy="40.32" r="3.01"/><circle cx="81.4" cy="45.25" r="3.01"/><circle cx="81.58" cy="53.76" r="3.01"/><circle cx="96.99" cy="49.87" r="3.01"/><circle cx="89.64" cy="59.82" r="3.01"/><circle cx="81.4" cy="67.39" r="3.01"/><circle cx="69.71" cy="73.57" r="3.01"/><circle cx="59.78" cy="76.58" r="3.01"/><circle cx="50.23" cy="76.78" r="3.01"/><circle cx="40.69" cy="76.25" r="3.01"/><circle cx="30.66" cy="73.59" r="3.01"/><circle cx="18.77" cy="67.12" r="3.01"/><circle cx="10.27" cy="59.82" r="3.01"/><circle cx="19.34" cy="53.8" r="3.01"/><circle cx="3.01" cy="50.25" r="3.01"/><circle cx="19.34" cy="45.79" r="3.01"/><circle cx="10.73" cy="40.17" r="3.01"/><circle cx="19.34" cy="32.58" r="3.01"/><circle cx="30.53" cy="27.13" r="3.01"/><path d="M60.62 64.1h-20.8a3.79 3.79 0 0 1-3.79-3.79v-20.9a3.79 3.79 0 0 1 3.79-3.79h20.8a3.79 3.79 0 0 1 3.79 3.79v20.9c.01 2.1-1.7 3.8-3.8 3.8z"/></g><circle fill="#577dda" cx="43.58" cy="43.88" r="3.23"/></svg>