<svg xmlns="http://www.w3.org/2000/svg" xmlns:xlink="http://www.w3.org/1999/xlink" width="100" height="100"><style><![CDATA[.B{stroke-miterlimit:10}.C{stroke-linejoin:round}]]></style><g fill="none" stroke="#0f46ca" stroke-width="2" class="B"><g class="C"><path stroke-linecap="round" d="M71.7 38.02V24.9L51.67 4.86H4.92c-1.85.01-3.34 1.5-3.34 3.34v83.5a3.36 3.36 0 0 0 3.34 3.34h63.45c1.4-.01 2.66-.9 3.14-2.22"/><path d="M71.7 24.9H55c-1.84 0-3.34-1.5-3.34-3.34V4.86L71.7 24.9z"/></g><path d="M17.14 14.88H7.12c-.92 0-1.67-.75-1.67-1.67s.75-1.67 1.67-1.67h10.02c.92 0 1.67.75 1.67 1.67s-.75 1.67-1.67 1.67zm26.18 0H28.3c-.92 0-1.67-.75-1.67-1.67s.75-1.67 1.67-1.67h15.03c.92 0 1.67.75 1.67 1.67s-.75 1.67-1.67 1.67zm14.5 18.37H7.04c-.88 0-1.6-.75-1.6-1.67s.7-1.67 1.6-1.67h50.8c.88 0 1.6.75 1.6 1.67s-.7 1.67-1.6 1.67z"/><use xlink:href="#B"/><path d="M57.83 39.93H35.6c-.88 0-1.6-.75-1.6-1.67s.7-1.67 1.6-1.67h22.22c.88 0 1.6.75 1.6 1.67s-.7 1.67-1.6 1.67zm-9.15 6.6H6.97c-.84 0-1.52-.72-1.52-1.6s.68-1.6 1.52-1.6h41.7c.84 0 1.52.72 1.52 1.6s-.68 1.6-1.5 1.6zm-19.42 6.74H7.04c-.88 0-1.6-.75-1.6-1.67s.7-1.67 1.6-1.67h22.22c.88 0 1.6.75 1.6 1.67 0 .93-.7 1.67-1.6 1.67zm17.46 0H35.6c-.88 0-1.6-.75-1.6-1.67s.7-1.67 1.6-1.67h11.1c.88 0 1.6.75 1.6 1.67 0 .93-.7 1.67-1.6 1.67zm0 6.68H7.04c-.88 0-1.6-.75-1.6-1.67s.7-1.67 1.6-1.67h39.68c.88 0 1.6.75 1.6 1.67s-.7 1.67-1.6 1.67z"/><use xlink:href="#B" y="26.71"/><path d="M46.72 66.64H35.6c-.88 0-1.6-.75-1.6-1.67s.7-1.67 1.6-1.67h11.1c.88 0 1.6.75 1.6 1.67s-.7 1.67-1.6 1.67zm.03 6.68H7.04c-.88 0-1.6-.75-1.6-1.67s.7-1.67 1.6-1.67h39.7c.88 0 1.6.75 1.6 1.67s-.7 1.67-1.6 1.67zm8.4 13.36H7.04c-.88 0-1.6-.75-1.6-1.67s.7-1.67 1.6-1.67h48.12c.88 0 1.6.75 1.6 1.67s-.7 1.67-1.6 1.67z"/><use xlink:href="#B" y="40.07"/><path d="M48.6 80h-13c-.88 0-1.6-.75-1.6-1.67s.7-1.67 1.6-1.67h13c.88 0 1.6.75 1.6 1.67S49.48 80 48.6 80z"/><g class="C"><path d="M75.53 94.98l16.43-11.7c4.04-2.86 6.45-7.5 6.46-12.45v-23.6c0-.33-.2-.63-.5-.77l-22.54-9.74c-.2-.1-.45-.1-.67 0l-22.54 9.74c-.3.13-.5.43-.5.77v23.6c.01 4.95 2.42 9.6 6.46 12.45l16.43 11.7c.3.2.68.2.97 0z"/><path d="M62 77.84a8.62 8.62 0 0 1-3.65-7.01V51.08l16.7-7.2 16.7 7.2v19.76c-.01 2.8-1.38 5.4-3.65 7l-13.04 9.3L62 77.84z"/><path d="M71.7 75a1.71 1.71 0 0 1-1-.33l-6.68-5c-.74-.55-.9-1.6-.33-2.34.55-.74 1.6-.9 2.34-.33l5.38 4.04 12.35-15.44a1.67 1.67 0 1 1 2.61 2.09l-13.36 16.7c-.33.4-.8.62-1.3.62z"/></g></g><defs ><path id="B" d="M29.26 39.93H7.04c-.88 0-1.6-.75-1.6-1.67s.7-1.67 1.6-1.67h22.22c.88 0 1.6.75 1.6 1.67s-.7 1.67-1.6 1.67z"/></defs></svg>