<svg xmlns="http://www.w3.org/2000/svg" xmlns:xlink="http://www.w3.org/1999/xlink" width="103.18" height="101.53"><g fill="none" stroke="#0f46ca" stroke-width="2" stroke-miterlimit="10"><path d="M18.38 19.75a8.74 8.74 0 0 0-7.9 8.7v9.3c0 1.6 1.3 2.9 2.9 2.9h19.95c1.6 0 2.9-1.3 2.9-2.9v-9.3c0-4.55-3.47-8.3-7.9-8.7"/><use xlink:href="#B"/><path d="M44.15 19.75a8.74 8.74 0 0 0-7.9 8.7v9.3c0 1.6 1.3 2.9 2.9 2.9H59.1c1.6 0 2.9-1.3 2.9-2.9v-9.3a8.74 8.74 0 0 0-7.91-8.7"/><use xlink:href="#B" x="25.78"/><path d="M69.92 19.75a8.73 8.73 0 0 0-7.9 8.7v9.3c0 1.6 1.3 2.9 2.9 2.9h19.95c1.6 0 2.9-1.3 2.9-2.9v-9.3a8.74 8.74 0 0 0-7.92-8.7"/><use xlink:href="#B" x="51.55"/><path d="M25.48 99.97l14-14.35-23.74-23.05L1.6 77.23l23.9 22.74z"/><path d="M76.68 62.43L90.4 48.85c5.12-5.12 14.98 1.34 9.65 7.6L83.45 76c-.65.76-1.4 1.44-2.22 2.02-2.68 1.7-5.87 2.28-9 2.28H47.56a45.53 45.53 0 0 0-5.34.31l-7.1.8-14.7-14.28s8.34-15.75 24.7-11.23c3.06.85 6.23 1.25 9.4 1.25h16.2c7.63 0 7.7 12.12-.06 12.12h-14.1"/></g><defs ><path id="B" d="M33.12 11.32c0 5.4-4.37 9.76-9.76 9.76s-9.76-4.37-9.76-9.76 4.37-9.76 9.76-9.76 9.76 4.37 9.76 9.76z"/></defs></svg>