<svg xmlns="http://www.w3.org/2000/svg" width="100" height="100" fill="#fff" stroke="#0f46ca" stroke-width="2" stroke-miterlimit="10"><path d="M72.23 8.92c-11.83 0-18.57 5.9-22.17 10.5-3.5-4.62-10.48-10.5-22.3-10.5-20.95 0-25.9 20.4-25.9 27.56 0 18.74 17.12 29.05 45.7 53.82.6.53 1.54.83 2.5.77.68-.04 1.37-.24 2-.77 25.5-22.1 46.08-33.4 46.08-53.82 0-15.7-11.26-27.56-25.9-27.56h0z"/><path stroke-linecap="round" stroke-linejoin="round" d="M7.82 53.58h22.6l6.48-13.7 13.7 27.37 7.2-13.68h12.25"/></svg>