<svg xmlns="http://www.w3.org/2000/svg" width="67.68" height="100" fill="none" stroke="#0f46ca" stroke-width="2" stroke-miterlimit="10"><path d="M22.77 24V11c0-5.38 4.3-9.75 9.63-9.75S42.03 5.6 42.03 11v13m-12.85-9.74V11c0-1.8 1.44-3.25 3.2-3.25S35.6 9.2 35.6 11v3.25h-6.42z"/><path d="M61.28 98.74H6.4c-1.77 0-3.2-1.45-3.2-3.25V27.25c0-1.8 1.44-3.25 3.2-3.25h54.88c1.77 0 3.2 1.45 3.2 3.25V95.5c0 1.8-1.44 3.25-3.2 3.25z"/><path d="M60.96 95.5V27.25c0-1.8-1.44-3.25-3.2-3.25H6.4c-1.77 0-3.2 1.45-3.2 3.25V95.5c0 1.8 1.44 3.25 3.2 3.25h51.35c1.77 0 3.2-1.45 3.2-3.25z"/><path d="M56.14 77.77v14.47H38.5V69.5h17.65v4.35m-20.87-27.1c-2.5 0-4.75.96-6.46 2.53-.03.03-.07.06-.1.1l-.46.46-.14.15-.4.47-.14.18a10.06 10.06 0 0 0-.94 1.54l-.2.4-.15.37-.17.47-.1.37-.13.52-.08.35-.1.6-.04.3-.05.93V63h19.3v-6.5c0-5.4-4.3-9.75-9.63-9.75z"/><path d="M35.28 30.5c-2.78 0-5.13 1.8-6.03 4.28-.01.04-.03.07-.04.1a6.8 6.8 0 0 0-.24.94c-.01.05-.02.1-.02.16a6.77 6.77 0 0 0-.09 1.01v3.25a5.66 5.66 0 0 0 .09 1.01c.01.05.01.1.02.16.06.32.14.63.24.94.01.04.03.07.04.1.9 2.5 3.25 4.3 6.03 4.3 3.54 0 6.42-2.9 6.42-6.5V37c0-3.6-2.87-6.5-6.42-6.5zM48.12 89c-.42 0-.83-.17-1.13-.48l-4.8-4.87 2.27-2.3 3.4 3.43L54.8 73.5l2.72 1.72-8.02 13c-.26.42-.7.7-1.18.75-.07.02-.13.02-.2.02zM8 90.62h25.67v3.25H8v-3.25zm0-6.5h25.67v3.25H8v-3.25zm0-6.5h25.67v3.25H8v-3.25z"/></svg>