<svg xmlns="http://www.w3.org/2000/svg" xmlns:xlink="http://www.w3.org/1999/xlink" width="100" height="100"><g fill="none" stroke="#0f46ca" stroke-width="2" stroke-linejoin="round" stroke-miterlimit="10"><path d="M98.33 10.23v51.24H1.67V10.23c0-3.92 3.18-7.1 7.1-7.1h82.45c3.93-.01 7.1 3.17 7.1 7.1z"/><path d="M63.45 26.94l-1.7 3.14-9.54-9.6 2.64-2.34 8.6 8.8zm3.18 11.7h3.52v5.9h-3.52v-5.9zm-36.8-18h3.52l-.01 4.7h-3.52l.01-4.7zm4.98 17.54l2.5-2.5 8.85 9.13-2.5 2.5-8.85-9.13z"/><path d="M47.93 38.64h3.52v5.4h-3.52v-5.4zm50.4 22.83v6.48c0 3.92-3.18 7.1-7.1 7.1H8.77c-3.92 0-7.1-3.18-7.1-7.1v-6.48h96.66zM36.4 75.06h27.2v18.9H36.4v-18.9zm-4.8-67.8c-3.67 0-6.65 2.98-6.65 6.65a6.65 6.65 0 1 0 13.3 0c0-3.67-2.98-6.65-6.65-6.65zm36.8 13.3a6.65 6.65 0 0 0 6.65-6.65c0-3.67-2.98-6.65-6.65-6.65s-6.65 2.98-6.65 6.65c0 3.66 2.98 6.64 6.65 6.65zM49.7 7.25c-3.67 0-6.65 2.98-6.65 6.65s2.98 6.65 6.65 6.65 6.65-2.98 6.65-6.65-2.98-6.65-6.65-6.65z"/><use xlink:href="#B"/><use xlink:href="#B" x="36.8"/><path d="M49.7 25.33c-3.67 0-6.65 2.98-6.65 6.65s2.98 6.65 6.65 6.65 6.65-2.98 6.65-6.65-2.98-6.65-6.65-6.65zm-15.55 19.2c3.4 1.4 5 5.3 3.6 8.7s-5.3 5-8.7 3.6-5-5.3-3.6-8.7 5.3-5 8.7-3.6zm40.8 5.08a6.651 6.651 0 1 1-13.13 2.13c-.6-3.63 1.87-7.05 5.5-7.63 3.63-.6 7.04 1.88 7.63 5.5zM49.7 44.04c-3.67 0-6.65 2.98-6.65 6.65a6.65 6.65 0 1 0 13.3 0c0-3.68-2.98-6.66-6.65-6.65zm22.77 52.84H27.53a1.46 1.46 0 0 1-1.46-1.46c0-.8.65-1.46 1.46-1.46h44.94a1.46 1.46 0 1 1 0 2.92z"/></g><defs ><path id="B" d="M31.6 25.33c-3.67 0-6.65 2.98-6.65 6.65s2.98 6.65 6.65 6.65 6.65-2.98 6.65-6.65a6.65 6.65 0 0 0-6.65-6.65z"/></defs></svg>