<svg xmlns="http://www.w3.org/2000/svg" width="100" height="100" fill="none" stroke="#0f46ca" stroke-width="2"><g stroke-miterlimit="10"><path d="M77.17 3.75c9.27.01 17.5 5.95 20.4 14.75A21.52 21.52 0 0 1 90 42.51a21.5 21.5 0 0 1-25.17.38 21.53 21.53 0 0 1-8.29-23.77C59.26 10 67.65 3.75 77.17 3.75z"/><path d="M74.28 85.07v.02c-.01 6.16-5 11.16-11.17 11.16h-.04a9.91 9.91 0 0 1-.77-.03c-5.86-.4-10.4-5.28-10.4-11.15v-7.22H14.5v-.1l.4-58.65h41.65c-1.8 6.03-.86 12.54 2.55 17.82s8.96 8.8 15.2 9.66v38.48z"/><path d="M62.3 96.23v.03H12.5c-6.16 0-11.16-5-11.17-11.16v-7.25h50.6v7.22a11.19 11.19 0 0 0 10.4 11.16zm14.78-72.6a3.64 3.64 0 0 1-3.64-3.54c-.05-1.97 1.48-3.63 3.45-3.73h.04c.06 0 .12 0 .18-.01a3.64 3.64 0 0 1 3.61 3.64 1.63 1.63 0 1 0 3.26 0 6.9 6.9 0 0 0-5.43-6.74v-1.57a1.63 1.63 0 0 0-3.26 0v1.64c-3.35.9-5.5 4.13-5.06 7.57s3.38 6 6.85 6a3.64 3.64 0 1 1-3.64 3.64 1.63 1.63 0 0 0-3.26 0 6.91 6.91 0 0 0 5.12 6.67V39a1.63 1.63 0 1 0 3.26 0v-1.7a6.91 6.91 0 0 0 5.39-7.49c-.4-3.52-3.35-6.17-6.87-6.17z"/></g><circle cx="25.33" cy="48.35" r="3.08"/><path stroke-miterlimit="10" d="M59.88 51.44h-28a1.43 1.43 0 0 1-1.43-1.43v-3.3a1.43 1.43 0 0 1 1.43-1.43h27.98a1.43 1.43 0 0 1 1.43 1.43v3.32c0 .78-.64 1.42-1.42 1.42z"/><circle cx="25.33" cy="58.63" r="3.08"/><path stroke-miterlimit="10" d="M59.88 61.72h-28a1.43 1.43 0 0 1-1.43-1.43v-3.32a1.43 1.43 0 0 1 1.43-1.43h27.98a1.43 1.43 0 0 1 1.43 1.43v3.32c0 .8-.64 1.43-1.42 1.43z"/><circle cx="25.33" cy="68.91" r="3.08"/><path stroke-miterlimit="10" d="M59.88 72h-28a1.43 1.43 0 0 1-1.43-1.43v-3.32a1.43 1.43 0 0 1 1.43-1.43h27.98a1.43 1.43 0 0 1 1.43 1.43v3.32a1.42 1.42 0 0 1-1.42 1.43z"/></svg>