<svg xmlns="http://www.w3.org/2000/svg" width="100" height="100" fill="none" stroke="#0f46ca" stroke-width="2" stroke-linejoin="round" stroke-miterlimit="10"><path d="M57.37 65.5v32.13H2.75V65.5h54.62z"/><path d="M57.37 65.5H2.6v-9.22H54.4c-.63 1.08-.06 2.5.77 3.52.58.7 1.84 1.1 2.2 1.1v4.6z"/><path d="M69.04 43.76L55.53 54.8c-.3.25-.98 1.16-1.15 1.47H2.6l7.67-6.13 7.7-6.16h24.06l27-.23zm-6.2-14.06v3.2H43.57v-6.43h16.06c1.78 0 3.22 1.45 3.22 3.22z"/><path d="M93.37 20.05l4.82 6.43-4.82 6.43h-1.6l-3.2-4.82h-1.6l-3.2 4.82h-1.6l-3.2-4.82h-1.6l-3.2 4.8h-1.6l-3.2-4.82h-1.6l-3.2 4.82h-1.6v-3.2a3.22 3.22 0 0 0-3.21-3.21H43.57v-6.43h49.8z"/><path d="M43.57 32.9v8.03c0 1.12-.2 2.22-.55 3.06H17.97L9.8 50.54l-.1-.13c-4.48-.84-7.87-4.75-7.87-9.48v-28.9a9.65 9.65 0 0 1 9.64-9.64h22.5a9.65 9.65 0 0 1 9.64 9.64V32.9zm47.1 27.05l-15.65-12.8-15.63 12.8c-.58.47-1.3.72-2.04.72v36.95H92.7V60.68a3.17 3.17 0 0 1-2.02-.73z"/><path d="M75.04 68.7c-3.12 0-5.9 1.25-7.95 3.3a11.18 11.18 0 0 0-3.29 7.95v17.67h22.5V79.95c-.01-6.2-5.04-11.24-11.25-11.24z"/><path d="M70.22 78.35h9.64v19.28h-9.64V78.35zM54.6 55.86c.18-.32.43-.63.74-.88L73 40.52c.58-.47 1.3-.72 2.04-.72s1.46.26 2.04.72l17.67 14.46a3.23 3.23 0 0 1 .45 4.53c-.6.74-1.53 1.17-2.5 1.17-.74 0-1.46-.26-2.02-.72l-15.65-12.8-15.63 12.8c-.58.47-1.3.72-2.04.72a3.27 3.27 0 0 1-2.5-1.17 3.21 3.21 0 0 1-.29-3.65zM10.78 76.74h12.85v9.64H10.78v-9.64zm38.55 9.64H36.48v-9.64h12.85v9.64zm-38.55-53V17.3a1.61 1.61 0 0 1 1.61-1.61h3.2c.9 0 1.6.72 3.88 2.74V34.5c-2.27-.25-3 .47-3.88.47h-3.2a1.59 1.59 0 0 1-1.6-1.6z"/></svg>