<svg xmlns="http://www.w3.org/2000/svg" width="100" height="100" fill="none" stroke="#0f46ca"><g stroke-width="2"><g stroke-miterlimit="10"><path d="M88.2 75.47h9.92v-18.5L83.26 33.4H65.08v42.08h6.6"/><path d="M15.52 75.47H2.3V21.6h62.78v53.86H32.04m59.48-8.4h6.6v3.37h-6.6z"/></g><ellipse cx="23.78" cy="75.47" rx="8.26" ry="8.42"/><ellipse cx="79.95" cy="75.47" rx="8.26" ry="8.42"/></g><g stroke-miterlimit="10"><path d="M22.13 73.8h3.3v3.37h-3.3zm56.17 0h3.3v3.37h-3.3z"/><path d="M87.92 40.12H71.08v15.15h25.64M22.13 73.8h3.3v3.37h-3.3zm56.17 0h3.3v3.37h-3.3zM6.77 27.96H64.9M42.26 69.1H64.9m-63.03 0h7.35m-6.72-53h4.28m3.66 0h25.7" stroke-width="2"/></g></svg>