<svg xmlns="http://www.w3.org/2000/svg" width="100" height="100"><g fill="none" stroke="#0f46ca" stroke-width="2" stroke-linejoin="round"><g stroke-miterlimit="10"><path d="M13.52 46.65h72.1l12.54 24.22H1.83z"/><path d="M9.38 67.53H90.3c0 .17-8.76-17.95-8.76-17.95h-63.3L9.38 67.53zm9.16-20.88L50 14.68l15 15.2 13.52-13.64-6.36-6.48 25.67-6.72-6.67 25.47-6.4-6.16-19.8 19.74L50 27.4 30.56 46.65zM1.83 70.87h96.34v2.88H1.83zm0 6.13h96.34v2.8H1.83zm0 5.7h96.34v2.8H1.83zm0 5.73h96.34v2.8H1.83zm0 5.72h96.34v2.8H1.83z"/></g><ellipse cx="49.83" cy="58.55" rx="8.86" ry="7.37"/></g><path fill="#0f46ca" d="M50.3 53.6v.56c.37.04.7.1.95.23a1.94 1.94 0 0 1 .69.52c.16.18.28.36.36.54.08.2.13.36.13.5 0 .17-.06.32-.2.45a.62.62 0 0 1-.46.19c-.34 0-.56-.18-.66-.55a1.17 1.17 0 0 0-.82-.86v2.16l1.02.32c.25.1.48.24.68.42.2.2.38.42.5.68s.17.55.17.87c0 .4-.1.76-.28 1.1-.18.34-.46.62-.82.84s-.8.35-1.28.4v1.3c0 .2-.02.35-.06.45-.04.1-.13.14-.26.14-.12 0-.2-.04-.26-.1-.05-.08-.08-.2-.08-.35V62c-.4-.04-.76-.14-1.06-.3s-.56-.33-.76-.54a2.32 2.32 0 0 1-.45-.67 1.72 1.72 0 0 1-.15-.69c0-.17.06-.32.2-.45s.3-.2.48-.2c.16 0 .3.04.4.1s.18.17.22.3l.24.65c.07.15.17.3.3.4s.33.22.56.3v-2.4c-.46-.13-.85-.27-1.16-.43a2.04 2.04 0 0 1-.76-.67c-.2-.3-.3-.66-.3-1.12 0-.6.2-1.08.57-1.46s.93-.6 1.64-.66v-.55c0-.3.1-.44.33-.44.26-.01.37.13.37.4zm-.66 3.56v-2c-.3.1-.52.2-.68.34s-.24.36-.24.64c0 .27.08.48.23.62.15.15.38.28.7.4zm.66 1.54v2.27c.35-.07.62-.2.8-.42s.3-.46.3-.74c0-.3-.1-.53-.28-.7-.2-.16-.46-.3-.82-.4z"/></svg>