<svg xmlns="http://www.w3.org/2000/svg" width="100" height="100" fill="#fff" stroke="#0f46ca" stroke-width="2" stroke-miterlimit="10"><path d="M73.88 15.68h11.04v19.27H73.88z"/><path d="M69.67 5.85h19.47V16.3H69.67zM10.26 53.8v44.35h78.67V53.8L49.6 14.48 10.26 53.8z"/><path d="M42.57 98.17H18.9V74.9c0-6.62 5.42-11.84 11.84-11.84h0c6.62 0 11.84 5.42 11.84 11.84v23.28zm10.23-31.9h10.64v20.67H52.8zm13.86 0H77.3v20.67H66.66zm29.7-20.68L54.42 3.64c-2.4-2.4-6.62-2.4-9.03 0L3.64 45.58c-2.4 2.4-2.4 6.62 0 9.03s6.62 2.4 9.03 0L50 17.3l37.33 37.33c2.4 2.4 6.62 2.4 9.03 0 2.4-2.6 2.4-6.63 0-9.04z"/></svg>