<svg xmlns="http://www.w3.org/2000/svg" width="49.29" height="100"><path fill="#577dda" d="M18.63 9.72l6.03 2.36s-8.08 5.16-8.5 10.88c0-.1-1.3-9.34 2.48-13.24z"/><path d="M17.37 22.96S19.7 15.43 26 13c0-.04 5.36 4.73 5.36 4.73s-9.38-1.65-14 5.24zm-6.54-13.8l6.34.55s-3.27 3.15-2.76 12.9c.01-.04-6.7-3.07-3.58-13.44z" fill="#0f46ca"/><path fill="#577dda" d="M11.5 7.95s4.02-4.34 6.34-5.6c0 0 15.57-.5 15.96 16.4.05.01-7.48-11.9-22.3-10.8z"/><path fill="#0f46ca" d="M20.72 1.4s4.3-1.42 10.1-.9c-.04-.04 11.43 6.38 4.34 18.56.03.04-.4-16.23-14.43-17.65z"/><path d="M36.54 19c-.01 0-.02.01-.03.01a13.48 13.48 0 0 0 2.21-9.13c-.2-1.57-.67-3.1-1.4-4.5-.36-.7-.78-1.38-1.26-2-.47-.62-1.15-1.16-1.58-1.77a12.36 12.36 0 0 1 4.08 2.68c1.18 1.18 2.1 2.67 2.46 4.3.3 1.33.26 2.72.02 4.05-.25 1.34-.7 2.66-1.46 3.8-.74 1.13-1.8 2.08-3.05 2.58zM15.6 31.36s-2.72 1.62-3.63 4.1c0-.04-5.28-.83-7.8.16 0-.08 7.96-4.14 11.43-4.26zm17.65 2.56s5.16 1.26 7.88 12.45c-.08-.04 5.36 0 6.9 1.93-.04.04-3.86-10.83-14.78-14.38zM19.03 58.2s3.55-.84 7.86-6.46c.03-.03 6-7.12 13.92-3.15 0 .02-.52.22-.56.24-.45.22-.88.46-1.3.72-.8.5-1.55 1.08-2.1 1.83-1.22 1.63-2.32 3.33-3.64 4.88-.8.95-1.66 1.88-2.6 2.7-.01-.05-4.1 3.73-11.6-.76z" fill="#577dda"/><path d="M16.36 58.94c.32.27.67.52 1.04.77 1 .68 2.1 1.2 3.25 1.6 1.85.65 3.8.96 5.76 1.04 2.85.1 5.7-.28 8.47-.95l1.6-.42 1.55-.46c.06.16 0 .4-.02.6a9.73 9.73 0 0 1-.18 1.08 12.39 12.39 0 0 1-1.14 3.17c-.46.88-1 1.7-1.66 2.44-.7.76-1.48 1.4-2.23 2.1l-2.3 2.12c-1.7 1.56-3.52 3.2-3.83 5.6-.3 2.33 1.1 4.2 3.03 5.35.03 0 9.5 5 9.5 5 1.3.7 2.6 1.95 3.22 3.3.93 2.08.14 4.62-1.32 6.24-.37.4-.8.78-1.24 1.1a11.08 11.08 0 0 1-.8.53c-.25.15-.67.27-.88.47 0 0 3.8-3.68.3-7.86-.2-.24-.47-.44-.74-.62-.96-.65-2.04-1.13-3.1-1.55-2.16-.85-4.4-1.47-6.67-2-1.56-.36-3.25-.5-4.72-1.12-1.48-.62-2.8-1.56-4.1-2.5-1.13-.82-2.05-1.92-2.65-3.17-.65-1.34-.9-2.9-1.06-4.36-.13-1.32-.1-2.7.2-4 .3-1.44.9-2.8 1.14-4.26.38-2.33.03-4.56-.1-6.88a15.51 15.51 0 0 0-.3-2.37zm17.44-.67S45.24 61 48.04 50.1c.06-.24-2.9-.72-3.08-.74-1.83-.17-4.37.07-5.53 1.7l-3.08 4.22c-.77 1.02-1.56 2.17-2.54 3zM1.25 39.67s4.06-5.95 11.5-2.36c.04-.04 4.3 1.58 7.17 6.98-.04-.08 3.78 4.8 5.8 6.07-.04-.12-2.96 5.8-7.84 6.58-.16.03-.63-.33-.77-.4a19.59 19.59 0 0 1-1.91-1.18c-1.77-1.22-3.42-2.73-4.53-4.6-1.47-2.45-3.12-4.8-4.88-7.04-.83-1.06-1.7-2.12-2.66-3.07-.4-.4-1.22-1.32-1.88-1.17m16.7-14.15l.02.1.6 3.62 6.7 4.05s4.1 1.63 1.87 6.15c0-.03-2.13 3.55.4 5.23 0-.08.1.55 2.4.3-.14-.1-2.35-.16-1.96-2.7.03 0 1.13-3.47 2.23-4.3 0-.08.6-3.65 0-4.4.08-.05 1.52-2.44 1.52-2.44l-2 1.63s-1.8-1.2-3.23.08c.08.03-7.15-3.9-7.15-3.9l-1.38-3.4z" fill="#0f46ca"/></svg>