<?xml version="1.0" encoding="utf-8"?>
<!-- Generator: Adobe Illustrator 23.0.2, SVG Export Plug-In . SVG Version: 6.00 Build 0)  -->
<svg version="1.1" id="Layer_1" xmlns="http://www.w3.org/2000/svg" xmlns:xlink="http://www.w3.org/1999/xlink" x="0px" y="0px"
	 width="48.7px" height="100px" viewBox="0 0 48.7 100" style="enable-background:new 0 0 48.7 100;" xml:space="preserve">
<style type="text/css">
	.st0{fill:none;stroke:#0F46CA;stroke-width:2;stroke-linecap:round;stroke-linejoin:round;stroke-miterlimit:10;}
</style>
<g>
	<path class="st0" d="M17,12.8l5.2,2.1c0,0-7.1,4.4-7.5,9.3C14.7,24.1,13.7,16.1,17,12.8z"/>
	<path class="st0" d="M16.8,25.6c0,0,2.1-6.8,7.8-9l4.9,4.3C29.5,20.9,21,19.3,16.8,25.6z"/>
	<path class="st0" d="M8.9,12l5.8,0.5c0,0-3,2.9-2.5,11.7C12.2,24.1,6.1,21.4,8.9,12z"/>
	<path class="st0" d="M10.1,9.5c0,0,3.9-4.2,6.1-5.4c0,0,14.9-0.5,15.3,15.7C31.5,19.9,24.3,8.4,10.1,9.5z"/>
	<path class="st0" d="M20.8,2.5c0,0,4.1-1.4,9.7-0.9c0,0,11,6.1,4.2,17.8C34.7,19.5,34.3,3.8,20.8,2.5z"/>
	<path class="st0" d="M37.9,18.1L37.9,18.1c1.5-2.6,2.1-5.9,1.5-8.9c-0.3-1.5-0.8-2.9-1.6-4.2c-0.4-0.6-0.8-1.3-1.3-1.8
		c-0.5-0.6-1.2-1-1.6-1.6c1.5,0.5,2.9,1.3,4.1,2.3c1.2,1.1,2.2,2.4,2.6,4c0.4,1.2,0.4,2.6,0.3,3.9c-0.1,1.3-0.5,2.6-1.1,3.7
		C40.1,16.5,39.1,17.5,37.9,18.1z"/>
	<path class="st0" d="M15.1,31.6c0,0-2.6,1.6-3.5,3.9c0,0-5.1-0.8-7.5,0.2C4.1,35.6,11.8,31.7,15.1,31.6z"/>
	<path class="st0" d="M32.2,34.5c0,0,5,1.2,7.6,12c-0.1,0,5.1,0,6.6,1.9C46.3,48.3,42.7,37.9,32.2,34.5z"/>
	<path class="st0" d="M19.6,58.4c0,0,3.1-0.7,7-5.7c0,0,5.3-6.3,12.3-2.8l-0.5,0.2c-0.4,0.2-0.8,0.4-1.2,0.6c-0.7,0.4-1.4,1-1.9,1.6
		c-1.1,1.4-2.1,2.9-3.2,4.3c-0.7,0.8-1.5,1.7-2.3,2.4C29.8,59.1,26.2,62.4,19.6,58.4z"/>
	<path class="st0" d="M15.7,59.5c0.3,0.3,0.6,0.5,1,0.7c1,0.6,2,1.2,3.1,1.5c1.8,0.6,3.7,0.9,5.5,1c2.7,0.1,5.5-0.3,8.1-0.9
		c0.5-0.1,1-0.3,1.5-0.4c0.5-0.1,1-0.3,1.5-0.4c0.1,0.2,0,0.4,0,0.6c0,0.3-0.1,0.7-0.2,1c-0.2,1.1-0.6,2.1-1.1,3
		c-0.4,0.8-1,1.6-1.6,2.3c-0.7,0.7-1.4,1.4-2.1,2c-0.7,0.7-1.5,1.4-2.2,2c-1.6,1.5-3.4,3.1-3.7,5.4c-0.3,2.2,1,4,2.9,5.1l9.1,4.8
		c1.3,0.7,2.5,1.9,3.1,3.2c0.9,2,0.1,4.4-1.3,6c-0.4,0.4-0.8,0.7-1.2,1.1c-0.2,0.2-0.5,0.3-0.8,0.5c-0.2,0.1-0.6,0.3-0.8,0.5
		c0,0,3.7-3.5,0.3-7.5c-0.2-0.2-0.5-0.4-0.7-0.6c-0.9-0.6-2-1.1-3-1.5c-2.1-0.8-4.2-1.4-6.4-1.9c-1.5-0.3-3.1-0.5-4.5-1.1
		s-2.7-1.5-3.9-2.4c-1.1-0.8-2-1.8-2.5-3c-0.6-1.3-0.9-2.8-1-4.2c-0.1-1.3-0.1-2.6,0.2-3.8c0.3-1.4,0.9-2.7,1.1-4.1
		c0.4-2.2,0-4.4-0.1-6.6C16,61,15.9,60.2,15.7,59.5z"/>
	<path class="st0" d="M34.7,58.5c0,0,10.2,2.4,12.7-7.3c0.1-0.2-2.6-0.6-2.8-0.7c-1.6-0.2-3.9,0.1-5,1.5c-0.9,1.3-1.8,2.5-2.8,3.8
		C36.3,56.7,35.6,57.7,34.7,58.5z"/>
	<path class="st0" d="M1.2,41c0,0,3.9-5.7,11-2.3c0,0,4.1,1.5,6.9,6.7c0-0.1,3,4.1,4.9,5.3c0-0.1-2.8,5.6-7.5,6.3
		c-0.2,0-0.6-0.3-0.7-0.4c-0.6-0.3-0.6-0.2-1.2-0.6c-1.7-1.2-3.3-2.6-4.3-4.4c-1.4-2.4-3-4.6-4.7-6.8c-0.8-1-1.6-2-2.5-2.9
		c-0.4-0.4-1.2-1.3-1.8-1.1"/>
	<path class="st0" d="M17.2,27.2v0.1l0.6,3.5l6.4,3.9c0,0,3.9,1.6,1.8,5.9c0,0-2,3.4,0.4,5c0-0.1,0.1,0.5,2.3,0.3
		c-0.1-0.1-2.3-0.2-1.9-2.6c0,0,1.1-3.3,2.1-4.1c0-0.1,0.6-3.5,0-4.2c0.1-0.1,1.5-2.3,1.5-2.3l-1.9,1.6c0,0-1.7-1.2-3.1,0.1
		c0.1,0-6.9-3.8-6.9-3.8L17.2,27.2z"/>
</g>
<path class="st0" d="M23.7,46.4c0,0,2,3.9,1,7.1"/>
<path class="st0" d="M30.3,24.4c0,0,1,2.5,0.8,5.6"/>
</svg>
