<?xml version="1.0" encoding="utf-8"?>
<!-- Generator: Adobe Illustrator 23.0.2, SVG Export Plug-In . SVG Version: 6.00 Build 0)  -->
<svg version="1.1" id="Layer_1" xmlns="http://www.w3.org/2000/svg" xmlns:xlink="http://www.w3.org/1999/xlink" x="0px" y="0px"
	 width="102px" height="98.7px" viewBox="0 0 102 98.7" style="enable-background:new 0 0 102 98.7;" xml:space="preserve">
<style type="text/css">
	.st0{fill:none;stroke:#0F46CA;stroke-width:2;stroke-miterlimit:10;}
</style>
<g id="Robotic_Process_1_">
	<path class="st0" d="M96,38.7c0-3.4,0-19.4,0-19.4c0-1.8-1.5-3.3-3.3-3.3c-1.8,0-3.3,1.5-3.3,3.3c0,0,0,16.7,0,19.6"/>
	<path class="st0" d="M89,39.3c-0.3,0-1.3,0-1.3,0h-10V46h10c0,0,0.8,0,1.1,0"/>
	<path class="st0" d="M77.7,34.3V61l-8.3,3.3H32.7L24.3,61V34.3H77.7z"/>
	<path class="st0" d="M76,91V74.3c0-1.8,1.5-3.3,3.3-3.3h10c1.8,0,3.3,1.5,3.3,3.3v20c0,1.8-1.5,3.3-3.3,3.3h-10
		c-1.8,0-3.3-1.5-3.3-3.3V91z"/>
	<path class="st0" d="M67.1,26.8c-0.4,1.5-1,3-1.8,4.4l2.4,3.2H34.3l2.4-3.2c-0.8-1.4-1.4-2.8-1.8-4.4L29.3,26v-6.7l5.5-0.8
		c0.4-1.5,1-3,1.8-4.4l-3.4-4.5L38,5l4.5,3.4c1.4-0.8,2.8-1.4,4.4-1.8L47.7,1h6.7l0.8,5.5c1.5,0.4,3,1,4.4,1.8L64,5l4.7,4.7
		l-3.4,4.5c0.8,1.4,1.4,2.8,1.8,4.4l5.5,0.8V26L67.1,26.8z"/>
	<path class="st0" d="M69.3,64.3v15l-5,15H37.7l-5-15v-15H69.3z"/>
	<path class="st0" d="M26,91v3.3c0,1.8-1.5,3.3-3.3,3.3h-10c-1.8,0-3.3-1.5-3.3-3.3v-20c0-1.8,1.5-3.3,3.3-3.3h10
		c1.8,0,3.3,1.5,3.3,3.3V91z"/>
	<path class="st0" d="M13,39.3c2,0,11.3,0,11.3,0V46c0,0-8.7,0-11.1,0"/>
	<path class="st0" d="M6,39c0-3.7,0-19.6,0-19.6c0-0.7,0.2-1.4,0.7-2"/>
	<path class="st0" d="M12.1,17.4c0.4,0.5,0.6,1.2,0.6,1.9c0,0,0,16,0,19.4"/>
	<g>
		<path class="st0" d="M99.3,81v6.7h-6.7v-3.3V81H99.3z"/>
		<path class="st0" d="M96,38.9c1.1,0.9,1.7,2.3,1.7,3.7c0,2.8-2.2,5-5,5c-2.8,0-5-2.2-5-5c0-1.2,0.5-2.4,1.3-3.3
			c0.1-0.1,0.2-0.3,0.4-0.4C91.2,37.2,94.1,37.2,96,38.9z"/>
		<path class="st0" d="M76,84.3v5H66l3.3-10H76V84.3z"/>
		<path class="st0" d="M54.6,42.7h-7.1H32.7V56h36.7V42.7H54.6z"/>
		<path class="st0" d="M32.7,79.3l3.3,10H26v-5v-5H32.7z"/>
		<path class="st0" d="M9.3,84.3v3.3H2.7V81h6.7V84.3z"/>
		<path class="st0" d="M13.1,39.3c1.8,2.1,1.7,5.2-0.4,7.1c-0.9,0.8-2.1,1.3-3.3,1.3c-2.8,0-5-2.2-5-5c0-2.8,2.2-5,5-5
			c1.2,0,2.4,0.5,3.3,1.3C12.8,39.1,12.9,39.2,13.1,39.3z"/>
		<path class="st0" d="M51,72.7c-3.7,0-6.7,3-6.7,6.7c0,3.7,3,6.7,6.7,6.7c3.7,0,6.7-3,6.7-6.7C57.7,75.7,54.7,72.7,51,72.7z"/>
		<path class="st0" d="M89.9,17.2c-3.2-1.1-5.6-4.2-5.6-7.9h3.3c0,2.8,2.2,5,5,5s5-2.2,5-5h3.3c0,3.6-2.2,6.6-5.4,7.8"/>
		<path class="st0" d="M9.3,17.7C4.7,17.7,1,13.9,1,9.3h3.3c0,2.8,2.2,5,5,5s5-2.2,5-5h3.3C17.7,13.9,13.9,17.7,9.3,17.7z"/>
		<path class="st0" d="M51,16c-3.7,0-6.7,3-6.7,6.7s3,6.7,6.7,6.7c3.7,0,6.7-3,6.7-6.7S54.7,16,51,16z"/>
	</g>
	<path class="st0" d="M49.3,47.7h3.3V51h-3.3V47.7z"/>
	<path class="st0" d="M56,47.7h3.3V51H56V47.7z"/>
	<path class="st0" d="M42.7,47.7H46V51h-3.3V47.7z"/>
</g>
</svg>
