<svg xmlns="http://www.w3.org/2000/svg" width="100" height="97.23"><g fill="#0f46ca"><path d="M90.76 16c-1.8.01-3.26 1.46-3.26 3.26v19.57h6.52V19.27a3.26 3.26 0 0 0-3.26-3.26z"/><path d="M87.13 38.83H76.1v6.52H87.5v-6.52h-.38z"/><path d="M76.1 33.94v26.1l-8.15 3.26H32.07l-8.15-3.26v-26.1H76.1zm-1.64 55.44v-16.3c.01-1.8 1.46-3.26 3.26-3.26h9.78c1.8.01 3.26 1.46 3.26 3.26v19.57c-.01 1.8-1.46 3.26-3.26 3.26h-9.78c-1.8-.01-3.26-1.46-3.26-3.26v-3.27z"/><path d="M65.78 26.56A15.83 15.83 0 0 1 64 30.83l2.33 3.1H33.66l2.33-3.1a15.83 15.83 0 0 1-1.78-4.27l-5.4-.77v-6.52l5.4-.77a15.83 15.83 0 0 1 1.78-4.27l-3.3-4.4 4.6-4.6 4.4 3.3a15.83 15.83 0 0 1 4.27-1.78l.77-5.4h6.52l.77 5.4a15.83 15.83 0 0 1 4.27 1.78l4.4-3.3 4.6 4.6-3.3 4.4a15.83 15.83 0 0 1 1.78 4.27l5.4.77v6.52l-5.42.77zm2.15 36.74v14.67l-4.9 14.67H36.96l-4.9-14.67V63.3h35.86zm-42.4 26.08v3.26c-.01 1.8-1.46 3.26-3.26 3.26H12.5c-1.8-.01-3.26-1.46-3.26-3.26V73.07c.01-1.8 1.46-3.26 3.26-3.26h9.78c1.8.01 3.26 1.46 3.26 3.26v16.3zM23.9 38.83v6.52H12.5v-6.52h11.4z"/><path d="M12.5 19.27v19.57H5.98V19.27a3.26 3.26 0 1 1 6.52 0z"/></g><path d="M97.28 79.6v6.52h-6.52V79.6h6.52zm-3.26-41.14c1.05.92 1.64 2.24 1.63 3.64a4.89 4.89 0 0 1-4.89 4.89c-2.7-.01-4.9-2.2-4.88-4.9a4.87 4.87 0 0 1 1.25-3.25l.38-.38a4.82 4.82 0 0 1 6.5 0zm-19.56 44.4v4.9h-9.78l3.26-9.78h6.52v4.9zM53.5 42.1H32.07v13.04h35.87V42.1H53.5zM32.07 77.96l3.26 9.78h-9.78v-9.78h6.52zm-22.83 4.9v3.26H2.72V79.6h6.52v3.26zm3.63-44.03a4.9 4.9 0 0 1-.38 6.91 4.94 4.94 0 0 1-3.25 1.25 4.89 4.89 0 0 1-4.89-4.89c.01-2.7 2.2-4.9 4.9-4.88a4.87 4.87 0 0 1 3.25 1.25c.13.1.26.23.37.36zM50 71.44c-3.6 0-6.52 2.92-6.52 6.52s2.92 6.52 6.52 6.52 6.52-2.92 6.52-6.52-2.92-6.52-6.52-6.52zm40.76-53.8a8.16 8.16 0 0 1-8.15-8.15h3.26a4.89 4.89 0 1 0 9.78 0h3.26a8.16 8.16 0 0 1-8.15 8.15zm-81.52 0a8.16 8.16 0 0 1-8.15-8.15h3.26a4.89 4.89 0 1 0 9.78 0h3.26a8.16 8.16 0 0 1-8.15 8.15zM50 16c-3.6 0-6.52 2.92-6.52 6.52s2.92 6.52 6.52 6.52 6.52-2.92 6.52-6.52S53.6 16 50 16z" fill="#577dda"/><path d="M48.37 47h3.26v3.26h-3.26V47zm6.53 0h3.26v3.26H54.9V47zm-13.05 0h3.26v3.26h-3.26V47z" fill="#0f46ca"/></svg>