<svg xmlns="http://www.w3.org/2000/svg" xmlns:xlink="http://www.w3.org/1999/xlink" viewBox="0 0 428.23 199.7"><defs><style>.cls-1{isolation:isolate;}.cls-10,.cls-14,.cls-15,.cls-17,.cls-2,.cls-20,.cls-21,.cls-23,.cls-25,.cls-26,.cls-27,.cls-3,.cls-7,.cls-9{fill-rule:evenodd;}.cls-2{fill:url(#Gradiente_sem_nome_69);}.cls-3{fill:url(#Gradiente_sem_nome_69-2);}.cls-4,.cls-7{fill:#a1a7ff;}.cls-5{fill:#0c343b;}.cls-6,.cls-9{fill:#12348e;}.cls-8{fill:#061d21;}.cls-10{opacity:0.3;}.cls-11,.cls-14{fill:#fff;}.cls-12{fill:#fa3e6a;}.cls-13{fill:#f4f4f4;}.cls-15{opacity:0.15;}.cls-16{fill:#ffb91f;}.cls-17,.cls-21,.cls-25,.cls-26,.cls-27{opacity:0.5;mix-blend-mode:multiply;}.cls-17{fill:url(#GradientFill_1);}.cls-18{fill:#dfe9f2;}.cls-19{fill:#818286;}.cls-20{fill:#eaf4f7;}.cls-21{fill:url(#GradientFill_1-2);}.cls-22{fill:#232728;}.cls-23{fill:#6c7275;}.cls-24{fill:#f7fbfa;}.cls-25{fill:url(#GradientFill_1-3);}.cls-26{fill:url(#GradientFill_1-4);}.cls-27{fill:url(#GradientFill_1-5);}</style><linearGradient id="Gradiente_sem_nome_69" y1="170.8" x2="428.23" y2="170.8" gradientUnits="userSpaceOnUse"><stop offset="0.16" stop-color="#e08197"/><stop offset="1" stop-color="#e08197" stop-opacity="0"/></linearGradient><linearGradient id="Gradiente_sem_nome_69-2" x1="27.75" y1="182.3" x2="400.48" y2="182.3" xlink:href="#Gradiente_sem_nome_69"/><linearGradient id="GradientFill_1" x1="112.82" y1="157.63" x2="146.7" y2="304.38" gradientUnits="userSpaceOnUse"><stop offset="0" stop-color="#555859"/><stop offset="0.12" stop-color="#5f6263"/><stop offset="0.31" stop-color="#7a7c7d"/><stop offset="0.57" stop-color="#a6a7a8"/><stop offset="0.87" stop-color="#e2e3e3"/><stop offset="1" stop-color="#fff"/></linearGradient><linearGradient id="GradientFill_1-2" x1="202.22" y1="172.14" x2="209.37" y2="203.12" xlink:href="#GradientFill_1"/><linearGradient id="GradientFill_1-3" x1="325.82" y1="187.89" x2="330.5" y2="208.17" xlink:href="#GradientFill_1"/><linearGradient id="GradientFill_1-4" x1="264.14" y1="188.67" x2="268.46" y2="207.39" xlink:href="#GradientFill_1"/><linearGradient id="GradientFill_1-5" x1="361.35" y1="187.89" x2="366.03" y2="208.17" xlink:href="#GradientFill_1"/></defs><title>Automation of Warehousing</title><g class="cls-1"><g id="Layer_1" data-name="Layer 1"><path class="cls-2" d="M20.52,152.35H407.71c11.28,0,20.52,8.31,20.52,18.45h0c0,10.15-9.24,18.45-20.52,18.45H20.52C9.24,189.25,0,181,0,170.8H0C0,160.66,9.23,152.35,20.52,152.35Z"/><path class="cls-3" d="M45.61,164.91h337a17.69,17.69,0,0,1,17.86,17.39h0a17.69,17.69,0,0,1-17.86,17.4h-337a17.69,17.69,0,0,1-17.86-17.4h0A17.68,17.68,0,0,1,45.61,164.91Z"/><rect class="cls-4" x="50.15" y="63.25" width="334.78" height="102.17"/><rect class="cls-4" x="300.6" y="63.25" width="84.33" height="102.17"/><rect class="cls-5" x="101.99" y="63.25" width="231.09" height="102.17"/><rect class="cls-6" x="45.38" y="54.83" width="344.31" height="8.42"/><polygon class="cls-7" points="108.58 51.3 217.26 4.66 325.94 51.3 325.94 165.42 108.58 165.42 108.58 51.3"/><polygon class="cls-7" points="108.58 51.67 215.04 5.73 216.98 4.9 218.91 5.73 325.94 51.69 325.94 56.2 320.39 56.2 216.98 11.81 113.56 56.2 108.58 56.2 108.58 51.67"/><rect class="cls-4" x="158.86" y="80.95" width="116.93" height="77.5"/><rect class="cls-8" x="162.39" y="83.29" width="109.86" height="72.81"/><polygon class="cls-9" points="98.38 51.3 215.32 0.83 217.26 0 219.19 0.83 336.7 51.3 320.67 51.3 217.26 6.92 113.84 51.3 98.38 51.3"/><polygon class="cls-10" points="162.39 83.35 235.15 156.11 272.25 156.11 272.25 83.29 162.39 83.29 162.39 83.35"/><rect class="cls-4" x="280.37" y="80.95" width="38.89" height="76.23"/><rect class="cls-11" x="281.92" y="82.81" width="10.89" height="13.02"/><rect class="cls-12" x="281.92" y="97.68" width="10.89" height="13.02"/><rect class="cls-11" x="281.92" y="112.56" width="10.89" height="13.02"/><rect class="cls-11" x="281.92" y="127.43" width="10.89" height="13.01"/><rect class="cls-11" x="281.92" y="142.31" width="10.89" height="13.02"/><rect class="cls-11" x="294.36" y="82.81" width="10.89" height="13.02"/><rect class="cls-13" x="294.36" y="97.68" width="10.89" height="13.02"/><rect class="cls-11" x="294.36" y="112.56" width="10.89" height="13.02"/><rect class="cls-13" x="294.36" y="127.43" width="10.89" height="13.01"/><rect class="cls-12" x="294.36" y="142.31" width="10.89" height="13.02"/><rect class="cls-13" x="306.81" y="82.81" width="10.89" height="13.02"/><rect class="cls-11" x="306.81" y="97.68" width="10.89" height="13.02"/><rect class="cls-11" x="306.81" y="112.56" width="10.89" height="13.02"/><rect class="cls-11" x="306.81" y="127.43" width="10.89" height="13.01"/><rect class="cls-11" x="306.81" y="142.31" width="10.89" height="13.02"/><rect class="cls-13" x="162.39" y="83.29" width="109.86" height="17.65"/><path class="cls-14" d="M168.49,91.73h45.44v1.89H168.49V91.73Zm45.44,2.47v1.94H168.49V94.2Zm0,2.52V98.6H168.49V96.72Zm6.79-5h45.44v1.89H220.72V91.73Zm45.44,2.47v1.94H220.72V94.2Zm0,2.52V98.6H220.72V96.72Z"/><path class="cls-14" d="M168.49,84.2h45.44v1.88H168.49V84.2Zm45.44,2.46V88.6H168.49V86.66Zm0,2.52v1.89H168.49V89.18Zm6.79-5h45.44v1.88H220.72V84.2Zm45.44,2.46V88.6H220.72V86.66Zm0,2.52v1.89H220.72V89.18Z"/><polygon class="cls-15" points="162.39 83.35 179.99 100.94 272.25 100.94 272.25 83.29 162.39 83.29 162.39 83.35"/><rect class="cls-11" x="156.77" y="76.39" width="121.11" height="7.98"/><rect class="cls-4" x="115.12" y="80.95" width="38.89" height="76.23"/><rect class="cls-11" x="116.68" y="82.81" width="10.89" height="13.02"/><rect class="cls-11" x="116.68" y="97.68" width="10.89" height="13.02"/><rect class="cls-11" x="116.68" y="112.56" width="10.89" height="13.02"/><rect class="cls-12" x="116.68" y="127.43" width="10.89" height="13.01"/><rect class="cls-11" x="116.68" y="142.31" width="10.89" height="13.02"/><rect class="cls-13" x="129.12" y="82.81" width="10.89" height="13.02"/><rect class="cls-11" x="129.12" y="97.68" width="10.89" height="13.02"/><rect class="cls-11" x="129.12" y="112.56" width="10.89" height="13.02"/><rect class="cls-13" x="129.12" y="127.43" width="10.89" height="13.01"/><rect class="cls-11" x="129.12" y="142.31" width="10.89" height="13.02"/><rect class="cls-12" x="141.56" y="82.81" width="10.89" height="13.02"/><rect class="cls-13" x="141.56" y="97.68" width="10.89" height="13.02"/><rect class="cls-11" x="141.56" y="112.56" width="10.89" height="13.02"/><rect class="cls-11" x="141.56" y="127.43" width="10.89" height="13.01"/><rect class="cls-12" x="141.56" y="142.31" width="10.89" height="13.02"/><rect class="cls-11" x="147.53" y="43.23" width="139.44" height="26.17"/><path class="cls-14" d="M153.64,48.36a13.05,13.05,0,0,1,2.09-.15c.3,0,.61,0,.92,0a5.63,5.63,0,0,1,.93.13l2.62,13.75,3.15-13.75.94-.12c.29,0,.59,0,.89,0a9.91,9.91,0,0,1,1.65.15l3.28,14.11,2.62-14.11a8.75,8.75,0,0,1,1.63-.15,8,8,0,0,1,1,0l.94.1-4.4,18.27a10.67,10.67,0,0,1-1.9.16,14.72,14.72,0,0,1-2.11-.16L165,54.46,161.8,66.63l-1.08.11c-.31,0-.66.05-1,.05a9.62,9.62,0,0,1-1.7-.16l-4.35-18.27Zm30.83,12.25-.66-.09c-.23,0-.45,0-.63,0a3.71,3.71,0,0,0-2,.45,1.53,1.53,0,0,0-.73,1.43,1.67,1.67,0,0,0,.28,1,1.64,1.64,0,0,0,.68.52,2.58,2.58,0,0,0,.84.2,7.5,7.5,0,0,0,.77,0,4.77,4.77,0,0,0,.76-.06l.66-.11V60.61Zm0-2.62a2.05,2.05,0,0,0-.2-1,1.54,1.54,0,0,0-.56-.6,2.4,2.4,0,0,0-.88-.29,8,8,0,0,0-1.15-.08,8.85,8.85,0,0,0-2.92.54,6.84,6.84,0,0,1-.54-1.25,4.76,4.76,0,0,1-.18-1.4,14.24,14.24,0,0,1,4.32-.73,6.13,6.13,0,0,1,4.13,1.27A5,5,0,0,1,188,58.53v7.62a19.91,19.91,0,0,1-2.16.54,15.49,15.49,0,0,1-2.87.25,11.72,11.72,0,0,1-2.38-.23,5.08,5.08,0,0,1-1.85-.76,3.63,3.63,0,0,1-1.2-1.38,4.51,4.51,0,0,1-.42-2,3.83,3.83,0,0,1,.52-2.05A4.05,4.05,0,0,1,179,59.15a5.92,5.92,0,0,1,1.84-.71,9.44,9.44,0,0,1,2-.22c.49,0,1,0,1.62.08V58Zm6.72-4.5a6.64,6.64,0,0,1,.72-.11,5.86,5.86,0,0,1,.75,0,6.3,6.3,0,0,1,.75,0c.24,0,.49.08.72.13a1.37,1.37,0,0,1,.14.37c0,.16.08.33.12.5l.09.54c0,.18,0,.32.06.44A6.76,6.76,0,0,1,195.91,54a3.28,3.28,0,0,1,2-.62l.58,0a2.05,2.05,0,0,1,.48.07,4.44,4.44,0,0,1,.08.59c0,.22,0,.45,0,.68s0,.6,0,.94a7.3,7.3,0,0,1-.14,1,4,4,0,0,0-.62,0h-.42a5.93,5.93,0,0,0-1,.09,2.15,2.15,0,0,0-1,.47,2.73,2.73,0,0,0-.8,1.14,5.77,5.77,0,0,0-.32,2.14v6.25c-.3,0-.61.08-.91.1l-.89,0-.88,0c-.29,0-.6-.05-.92-.1V53.49Zm12.7,7.68A2.78,2.78,0,0,0,205,63.38a4.29,4.29,0,0,0,2.54.69,9.81,9.81,0,0,0,1.77-.17,10.62,10.62,0,0,0,1.72-.47,6.35,6.35,0,0,1,.71,2.75,12.38,12.38,0,0,1-4.48.76,8.68,8.68,0,0,1-3.14-.51,5.4,5.4,0,0,1-3.35-3.56,9.56,9.56,0,0,1,0-5.44A6.49,6.49,0,0,1,202,55.22a5.69,5.69,0,0,1,2-1.49,6.6,6.6,0,0,1,2.76-.54,5.9,5.9,0,0,1,2.44.48A5.36,5.36,0,0,1,211,55a5.69,5.69,0,0,1,1.13,2,8,8,0,0,1,.38,2.48c0,.32,0,.64,0,1a5.5,5.5,0,0,1-.09.75Zm5.16-2.52a3.15,3.15,0,0,0-.67-2,2.12,2.12,0,0,0-1.74-.75,2.51,2.51,0,0,0-1.93.71,3.35,3.35,0,0,0-.79,2Zm6.21-10.6a8.06,8.06,0,0,1,.89-.1c.3,0,.6,0,.88,0s.59,0,.89,0a9.24,9.24,0,0,1,.92.1v7c.12-.15.28-.33.47-.54a3.75,3.75,0,0,1,.73-.61,4,4,0,0,1,1-.5,4.54,4.54,0,0,1,1.4-.2,4.27,4.27,0,0,1,3.31,1.22,5.47,5.47,0,0,1,1.13,3.84v8.41c-.3,0-.61.08-.91.1l-.89,0-.89,0c-.31,0-.61-.05-.92-.1V59.21a4.21,4.21,0,0,0-.43-2.11,1.57,1.57,0,0,0-1.47-.74,3.48,3.48,0,0,0-.89.13,1.89,1.89,0,0,0-.83.5,2.81,2.81,0,0,0-.61,1,5.14,5.14,0,0,0-.24,1.73v6.91a9.24,9.24,0,0,1-.92.1l-.89,0-.87,0c-.3,0-.6-.05-.9-.1V48.05Zm20.51,18.89a6.76,6.76,0,0,1-2.78-.52A5.32,5.32,0,0,1,231,65a6.23,6.23,0,0,1-1.17-2.17,9,9,0,0,1-.39-2.7,9.27,9.27,0,0,1,.39-2.72,6.19,6.19,0,0,1,1.17-2.2,5.45,5.45,0,0,1,2-1.46,6.76,6.76,0,0,1,2.78-.53,6.92,6.92,0,0,1,2.8.53,5.62,5.62,0,0,1,2,1.46,6.19,6.19,0,0,1,1.17,2.2,9.61,9.61,0,0,1,.38,2.72,9.32,9.32,0,0,1-.38,2.7A6.23,6.23,0,0,1,240.55,65a5.47,5.47,0,0,1-2,1.45,6.93,6.93,0,0,1-2.8.52Zm0-2.75a2.2,2.2,0,0,0,2-1,6.11,6.11,0,0,0,.62-3,6.13,6.13,0,0,0-.62-3,2.2,2.2,0,0,0-2-1.05,2.16,2.16,0,0,0-2,1.05,6,6,0,0,0-.62,3,6,6,0,0,0,.62,3,2.16,2.16,0,0,0,2,1Zm8.95-10.7a11.11,11.11,0,0,1,1.8-.15,11.24,11.24,0,0,1,1.81.15v7a7.41,7.41,0,0,0,.16,1.71,2.49,2.49,0,0,0,.51,1.07,1.89,1.89,0,0,0,.85.56,3.9,3.9,0,0,0,1.2.17,5.84,5.84,0,0,0,1.57-.18V53.49a11,11,0,0,1,1.78-.15,11.24,11.24,0,0,1,1.81.15V66.13a19.55,19.55,0,0,1-2.15.54,14,14,0,0,1-2.79.27,15.5,15.5,0,0,1-2.49-.2,4.94,4.94,0,0,1-2.09-.87,4.41,4.41,0,0,1-1.44-1.93,8.8,8.8,0,0,1-.53-3.38V53.49ZM262,60.92a5.22,5.22,0,0,1-2.23-1.21,3.29,3.29,0,0,1-.8-2.4,3.63,3.63,0,0,1,1.39-3,5.91,5.91,0,0,1,3.77-1.09,10.67,10.67,0,0,1,2,.18,11.44,11.44,0,0,1,2,.53,7,7,0,0,1-.26,1.37,6,6,0,0,1-.48,1.25,10.67,10.67,0,0,0-1.35-.45,6.51,6.51,0,0,0-1.55-.19,2.84,2.84,0,0,0-1.35.27,1,1,0,0,0-.14,1.64,4,4,0,0,0,1,.43l1.45.43a7.22,7.22,0,0,1,1.29.5,3.55,3.55,0,0,1,1,.72,3.06,3.06,0,0,1,.63,1.07,4.65,4.65,0,0,1,.23,1.55A4,4,0,0,1,267,65.65a5.6,5.6,0,0,1-1.82.95,8.11,8.11,0,0,1-2.41.34c-.41,0-.78,0-1.12,0a7.48,7.48,0,0,1-1-.13q-.47-.09-.93-.21t-1-.33a8.61,8.61,0,0,1,.24-1.39,9.65,9.65,0,0,1,.5-1.36,10.65,10.65,0,0,0,1.59.5,7.24,7.24,0,0,0,1.56.16,5.54,5.54,0,0,0,.78-.06,2.66,2.66,0,0,0,.77-.23,1.77,1.77,0,0,0,.6-.43,1.19,1.19,0,0,0-.13-1.58,3.56,3.56,0,0,0-1-.47L262,60.92Zm12,.25a2.75,2.75,0,0,0,1.07,2.21,4.27,4.27,0,0,0,2.54.69,9.9,9.9,0,0,0,1.77-.17,10.23,10.23,0,0,0,1.71-.47,6.07,6.07,0,0,1,.49,1.22,6.21,6.21,0,0,1,.22,1.53,12.33,12.33,0,0,1-4.47.76,8.65,8.65,0,0,1-3.14-.51,5.4,5.4,0,0,1-3.35-3.56,8.72,8.72,0,0,1-.4-2.72,9,9,0,0,1,.41-2.72,6.33,6.33,0,0,1,1.21-2.21,5.69,5.69,0,0,1,2-1.49,6.6,6.6,0,0,1,2.76-.54,5.94,5.94,0,0,1,2.44.48A5.33,5.33,0,0,1,281.1,55a5.54,5.54,0,0,1,1.13,2,7.67,7.67,0,0,1,.39,2.48c0,.32,0,.64,0,1s-.06.56-.09.75Zm5.16-2.52a3.22,3.22,0,0,0-.67-2,2.15,2.15,0,0,0-1.74-.75,2.54,2.54,0,0,0-1.94.71,3.41,3.41,0,0,0-.79,2Z"/><path class="cls-9" d="M152.77,47.24a11.81,11.81,0,0,1,2.08-.16l.93,0a5.94,5.94,0,0,1,.93.13L159.33,61l3.15-13.75.94-.12c.29,0,.58,0,.89,0a9,9,0,0,1,1.65.16l3.28,14.1,2.62-14.1a7.88,7.88,0,0,1,1.62-.16c.34,0,.67,0,1,.05l.94.11L171,65.51a11.81,11.81,0,0,1-1.91.16,16.58,16.58,0,0,1-2.11-.16l-2.92-12.17-3.15,12.17-1.08.1a8.28,8.28,0,0,1-1,.06,10.56,10.56,0,0,1-1.7-.16l-4.35-18.27ZM183.6,59.49c-.2,0-.42-.06-.66-.09a5.06,5.06,0,0,0-.63,0,3.71,3.71,0,0,0-2,.45,1.53,1.53,0,0,0-.73,1.43,1.61,1.61,0,0,0,.28,1,1.67,1.67,0,0,0,.67.52,2.71,2.71,0,0,0,.84.2c.3,0,.56,0,.78,0a4.87,4.87,0,0,0,.76-.06l.66-.12V59.49Zm0-2.62a2.15,2.15,0,0,0-.2-1,1.54,1.54,0,0,0-.56-.6A2.4,2.4,0,0,0,182,55a8.09,8.09,0,0,0-1.15-.08,9,9,0,0,0-2.93.54,6.75,6.75,0,0,1-.53-1.25,4.76,4.76,0,0,1-.18-1.4,14.11,14.11,0,0,1,2.24-.56,13,13,0,0,1,2.08-.17,6.15,6.15,0,0,1,4.13,1.27,5.06,5.06,0,0,1,1.49,4.06V65a20.13,20.13,0,0,1-2.16.53,14.7,14.7,0,0,1-2.87.26,11.65,11.65,0,0,1-2.38-.23,5.2,5.2,0,0,1-1.86-.76,3.69,3.69,0,0,1-1.19-1.38,4.55,4.55,0,0,1-.42-2.06,3.73,3.73,0,0,1,.52-2A4.05,4.05,0,0,1,178.1,58a6.09,6.09,0,0,1,1.84-.72,10.09,10.09,0,0,1,2-.21,15.92,15.92,0,0,1,1.62.08v-.31Zm6.71-4.5a7.21,7.21,0,0,1,.73-.11,5.86,5.86,0,0,1,.75,0,4.73,4.73,0,0,1,.75.05c.24,0,.48.08.72.13a1.24,1.24,0,0,1,.14.37c0,.16.08.32.11.5a5.07,5.07,0,0,1,.09.54c0,.17.05.32.07.44A6.76,6.76,0,0,1,195,52.84a3.27,3.27,0,0,1,2-.62l.59,0a2.59,2.59,0,0,1,.48.08,4.28,4.28,0,0,1,.08.58c0,.22,0,.45,0,.69s0,.6,0,.94a9.43,9.43,0,0,1-.14,1,3.1,3.1,0,0,0-.63,0H197a5.72,5.72,0,0,0-1,.09,2.15,2.15,0,0,0-1,.47,2.73,2.73,0,0,0-.8,1.14,5.77,5.77,0,0,0-.32,2.14v6.25c-.3,0-.61.08-.91.1l-.89,0-.88,0c-.3,0-.61,0-.93-.1V52.37ZM203,60.05a2.8,2.8,0,0,0,1.07,2.21,4.27,4.27,0,0,0,2.54.69,9.81,9.81,0,0,0,1.77-.17,10.23,10.23,0,0,0,1.71-.47,6.07,6.07,0,0,1,.49,1.22,6.62,6.62,0,0,1,.23,1.52,12.42,12.42,0,0,1-4.48.77,8.68,8.68,0,0,1-3.14-.51,5.4,5.4,0,0,1-3.35-3.56,8.77,8.77,0,0,1-.4-2.72,9,9,0,0,1,.41-2.72,6.24,6.24,0,0,1,1.21-2.21,5.69,5.69,0,0,1,2-1.49,6.6,6.6,0,0,1,2.76-.54,5.9,5.9,0,0,1,2.44.48,5.36,5.36,0,0,1,1.82,1.32,5.69,5.69,0,0,1,1.13,2,8,8,0,0,1,.38,2.48c0,.32,0,.63,0,.95s-.06.56-.09.75Zm5.16-2.52a3.22,3.22,0,0,0-.67-2,2.15,2.15,0,0,0-1.74-.75,2.55,2.55,0,0,0-1.94.71,3.35,3.35,0,0,0-.78,2Zm6.2-10.6a8.65,8.65,0,0,1,.89-.1l.89,0,.89,0c.31,0,.61.05.92.1v7c.12-.15.27-.33.47-.55a3.69,3.69,0,0,1,.72-.6,4,4,0,0,1,1-.5,4.34,4.34,0,0,1,1.4-.2,4.28,4.28,0,0,1,3.32,1.22,5.51,5.51,0,0,1,1.13,3.83v8.42c-.3,0-.61.08-.91.1l-.89,0-.89,0c-.31,0-.61,0-.92-.1V58.09A4.21,4.21,0,0,0,222,56a1.57,1.57,0,0,0-1.47-.74,3.48,3.48,0,0,0-.89.13,1.8,1.8,0,0,0-.83.5,2.68,2.68,0,0,0-.61,1,5.11,5.11,0,0,0-.24,1.72v6.92c-.31,0-.61.08-.92.1l-.89,0-.87,0c-.3,0-.6,0-.91-.1V46.93ZM234.9,65.82a7,7,0,0,1-2.79-.52,5.28,5.28,0,0,1-2-1.45A6.32,6.32,0,0,1,229,61.68a8.73,8.73,0,0,1-.4-2.7,8.9,8.9,0,0,1,.4-2.72,6.19,6.19,0,0,1,1.17-2.2,5.41,5.41,0,0,1,2-1.46,7.61,7.61,0,0,1,5.58,0,5.56,5.56,0,0,1,2,1.46,6,6,0,0,1,1.16,2.2,9.22,9.22,0,0,1,.39,2.72,9,9,0,0,1-.39,2.7,6.13,6.13,0,0,1-1.16,2.17,5.43,5.43,0,0,1-2,1.45,7,7,0,0,1-2.79.52Zm0-2.75a2.18,2.18,0,0,0,2-1,6,6,0,0,0,.63-3,6,6,0,0,0-.63-3,2.18,2.18,0,0,0-2-1,2.15,2.15,0,0,0-2,1,6,6,0,0,0-.63,3,6,6,0,0,0,.63,3,2.15,2.15,0,0,0,2,1Zm8.94-10.7a11.24,11.24,0,0,1,1.81-.15,11.11,11.11,0,0,1,1.8.15v7a7.34,7.34,0,0,0,.17,1.71,2.49,2.49,0,0,0,.51,1.07,1.89,1.89,0,0,0,.85.56,3.9,3.9,0,0,0,1.19.16,6.35,6.35,0,0,0,1.58-.17V52.37a11,11,0,0,1,1.78-.15,11.11,11.11,0,0,1,1.8.15V65a16.61,16.61,0,0,1-2.14.55,14,14,0,0,1-2.79.27,14.42,14.42,0,0,1-2.49-.21,4.9,4.9,0,0,1-2.1-.86,4.45,4.45,0,0,1-1.43-1.93,8.81,8.81,0,0,1-.54-3.38V52.37Zm17.31,7.42a5.07,5.07,0,0,1-2.22-1.2,3.3,3.3,0,0,1-.8-2.41,3.63,3.63,0,0,1,1.39-3,5.91,5.91,0,0,1,3.77-1.09,10.74,10.74,0,0,1,2,.17,12.39,12.39,0,0,1,1.95.54,6.3,6.3,0,0,1-.25,1.37,7.43,7.43,0,0,1-.48,1.25,10.67,10.67,0,0,0-1.35-.45,6,6,0,0,0-1.55-.19,2.78,2.78,0,0,0-1.35.27.9.9,0,0,0-.48.85.89.89,0,0,0,.34.79,4.42,4.42,0,0,0,1,.43l1.45.43a7.11,7.11,0,0,1,1.28.5,3.28,3.28,0,0,1,1,.72,3,3,0,0,1,.64,1.07,4.65,4.65,0,0,1,.23,1.55,3.84,3.84,0,0,1-.4,1.75,4,4,0,0,1-1.14,1.41,5.5,5.5,0,0,1-1.82.94,7.83,7.83,0,0,1-2.41.35c-.41,0-.78,0-1.12,0a9.67,9.67,0,0,1-1-.13q-.47-.09-.93-.21t-1-.33a6.87,6.87,0,0,1,.24-1.39,8.21,8.21,0,0,1,.5-1.36,10.65,10.65,0,0,0,1.59.5,7.24,7.24,0,0,0,1.56.16,5.4,5.4,0,0,0,.77-.06,2.82,2.82,0,0,0,.78-.23,1.92,1.92,0,0,0,.6-.43,1.19,1.19,0,0,0-.13-1.58,3.69,3.69,0,0,0-1-.47l-1.58-.46Zm12,.26a2.77,2.77,0,0,0,1.07,2.21,4.27,4.27,0,0,0,2.54.69,9.79,9.79,0,0,0,1.76-.17,10.08,10.08,0,0,0,1.72-.47,5.54,5.54,0,0,1,.48,1.22,6.12,6.12,0,0,1,.23,1.52,12.32,12.32,0,0,1-4.47.77,8.65,8.65,0,0,1-3.14-.51,5.63,5.63,0,0,1-2.14-1.41A5.77,5.77,0,0,1,270,61.75a9.08,9.08,0,0,1-.39-2.72,8.65,8.65,0,0,1,.41-2.72,6.38,6.38,0,0,1,1.2-2.21,5.82,5.82,0,0,1,2-1.49,6.52,6.52,0,0,1,2.75-.54,5.87,5.87,0,0,1,2.44.48,5.27,5.27,0,0,1,1.82,1.32,5.54,5.54,0,0,1,1.13,2,7.67,7.67,0,0,1,.38,2.48c0,.32,0,.63,0,.95s-.06.56-.09.75Zm5.16-2.52a3.22,3.22,0,0,0-.68-2,2.12,2.12,0,0,0-1.74-.75,2.53,2.53,0,0,0-1.93.71,3.41,3.41,0,0,0-.79,2Z"/><rect class="cls-4" x="147.53" y="69.4" width="139.44" height="3.9"/><rect class="cls-6" x="182.98" y="109.94" width="18.7" height="15.86"/><rect class="cls-16" x="182.98" y="109.94" width="18.73" height="3.5"/><rect class="cls-4" x="182.52" y="109.69" width="19.62" height="2.81"/><rect class="cls-6" x="162.99" y="109.94" width="18.7" height="15.86"/><rect class="cls-16" x="162.99" y="109.94" width="18.73" height="3.5"/><rect class="cls-4" x="162.52" y="109.69" width="19.62" height="2.81"/><rect class="cls-6" x="182.98" y="125.24" width="18.7" height="15.86"/><rect class="cls-16" x="182.98" y="125.24" width="18.73" height="3.5"/><rect class="cls-4" x="182.52" y="124.99" width="19.62" height="2.81"/><rect class="cls-6" x="162.99" y="125.24" width="18.7" height="15.86"/><rect class="cls-16" x="162.99" y="125.24" width="18.73" height="3.5"/><rect class="cls-4" x="162.52" y="124.99" width="19.62" height="2.81"/><rect class="cls-6" x="182.98" y="140.23" width="18.7" height="15.86"/><rect class="cls-16" x="182.98" y="140.23" width="18.73" height="3.5"/><rect class="cls-4" x="182.52" y="139.98" width="19.62" height="2.81"/><rect class="cls-6" x="162.99" y="140.23" width="18.7" height="15.86"/><rect class="cls-16" x="162.99" y="140.23" width="18.73" height="3.5"/><rect class="cls-4" x="162.52" y="139.98" width="19.62" height="2.81"/><rect class="cls-5" x="338.32" y="76.71" width="38.89" height="76.23"/><rect class="cls-11" x="339.87" y="78.57" width="10.89" height="13.01"/><rect class="cls-16" x="339.87" y="93.44" width="10.89" height="13.02"/><rect class="cls-16" x="339.87" y="108.32" width="10.89" height="13.01"/><rect class="cls-11" x="339.87" y="123.19" width="10.89" height="13.01"/><rect class="cls-16" x="339.87" y="138.06" width="10.89" height="13.02"/><rect class="cls-16" x="352.32" y="78.57" width="10.89" height="13.01"/><rect class="cls-11" x="352.32" y="93.44" width="10.89" height="13.02"/><rect class="cls-11" x="352.32" y="108.32" width="10.89" height="13.01"/><rect class="cls-11" x="352.32" y="123.19" width="10.89" height="13.01"/><rect class="cls-16" x="352.32" y="138.06" width="10.89" height="13.02"/><rect class="cls-11" x="364.76" y="78.57" width="10.89" height="13.01"/><rect class="cls-11" x="364.76" y="93.44" width="10.89" height="13.02"/><rect class="cls-11" x="364.76" y="108.32" width="10.89" height="13.01"/><rect class="cls-16" x="364.76" y="123.19" width="10.89" height="13.01"/><rect class="cls-11" x="364.76" y="138.06" width="10.89" height="13.02"/><rect class="cls-5" x="57.87" y="76.71" width="38.89" height="76.23"/><rect class="cls-11" x="84.31" y="138.06" width="10.89" height="13.02"/><rect class="cls-16" x="84.31" y="123.19" width="10.89" height="13.01"/><rect class="cls-16" x="84.31" y="108.32" width="10.89" height="13.01"/><rect class="cls-11" x="84.31" y="93.44" width="10.89" height="13.02"/><rect class="cls-16" x="84.31" y="78.57" width="10.89" height="13.01"/><rect class="cls-16" x="71.87" y="138.06" width="10.89" height="13.02"/><rect class="cls-11" x="71.87" y="123.19" width="10.89" height="13.01"/><rect class="cls-11" x="71.87" y="108.32" width="10.89" height="13.01"/><rect class="cls-11" x="71.87" y="93.44" width="10.89" height="13.02"/><rect class="cls-16" x="71.87" y="78.57" width="10.89" height="13.01"/><rect class="cls-11" x="59.43" y="138.06" width="10.89" height="13.02"/><rect class="cls-11" x="59.43" y="123.19" width="10.89" height="13.01"/><rect class="cls-11" x="59.43" y="108.32" width="10.89" height="13.01"/><rect class="cls-16" x="59.43" y="93.44" width="10.89" height="13.02"/><rect class="cls-11" x="59.43" y="78.57" width="10.89" height="13.01"/><polygon class="cls-17" points="127.46 178.99 76.69 179.66 74.5 186.31 74.53 186.34 164.38 186.34 139.41 161.42 134.52 166.84 127.46 178.99"/><rect class="cls-4" x="74.5" y="179.05" width="7.29" height="7.29"/><rect class="cls-16" x="74.5" y="179.05" width="7.29" height="4.22"/><rect class="cls-4" x="132.19" y="179.05" width="7.29" height="7.29"/><rect class="cls-16" x="132.19" y="179.05" width="7.29" height="4.22"/><rect class="cls-6" x="74.5" y="179.05" width="64.97" height="3.11"/><rect class="cls-4" x="96.83" y="161.7" width="20.32" height="17.24"/><rect class="cls-16" x="96.83" y="161.7" width="20.35" height="3.8"/><rect class="cls-6" x="96.32" y="161.43" width="21.32" height="3.05"/><rect class="cls-18" x="109.05" y="165.89" width="6.92" height="3.14"/><rect class="cls-19" x="109.56" y="166.3" width="0.74" height="2.33"/><rect class="cls-19" x="110.87" y="166.3" width="0.74" height="2.33"/><rect class="cls-19" x="112.23" y="166.3" width="0.74" height="2.33"/><rect class="cls-19" x="113.47" y="166.3" width="0.74" height="2.33"/><rect class="cls-19" x="114.73" y="166.3" width="0.74" height="2.33"/><rect class="cls-4" x="118.56" y="161.7" width="20.32" height="17.24"/><rect class="cls-16" x="118.56" y="161.7" width="20.35" height="3.8"/><rect class="cls-6" x="118.05" y="161.43" width="21.32" height="3.05"/><rect class="cls-18" x="130.78" y="165.89" width="6.92" height="3.14"/><rect class="cls-19" x="131.29" y="166.3" width="0.74" height="2.33"/><rect class="cls-19" x="132.6" y="166.3" width="0.74" height="2.33"/><rect class="cls-19" x="133.96" y="166.3" width="0.74" height="2.33"/><rect class="cls-19" x="135.2" y="166.3" width="0.74" height="2.33"/><rect class="cls-19" x="136.46" y="166.3" width="0.74" height="2.33"/><rect class="cls-4" x="75.1" y="161.7" width="20.32" height="17.24"/><rect class="cls-16" x="75.1" y="161.7" width="20.35" height="3.8"/><rect class="cls-6" x="74.6" y="161.43" width="21.32" height="3.05"/><rect class="cls-18" x="87.33" y="165.89" width="6.92" height="3.14"/><rect class="cls-19" x="87.83" y="166.3" width="0.74" height="2.33"/><rect class="cls-19" x="89.14" y="166.3" width="0.74" height="2.33"/><rect class="cls-19" x="90.5" y="166.3" width="0.74" height="2.33"/><rect class="cls-19" x="91.74" y="166.3" width="0.74" height="2.33"/><rect class="cls-19" x="93" y="166.3" width="0.74" height="2.33"/><rect class="cls-4" x="96.83" y="144.03" width="20.32" height="17.24"/><rect class="cls-16" x="96.83" y="144.03" width="20.35" height="3.8"/><rect class="cls-6" x="96.32" y="143.76" width="21.32" height="3.05"/><rect class="cls-18" x="109.05" y="148.22" width="6.92" height="3.14"/><rect class="cls-19" x="109.56" y="148.63" width="0.74" height="2.34"/><rect class="cls-19" x="110.87" y="148.63" width="0.74" height="2.34"/><rect class="cls-19" x="112.23" y="148.63" width="0.74" height="2.34"/><rect class="cls-19" x="113.47" y="148.63" width="0.74" height="2.34"/><rect class="cls-19" x="114.73" y="148.63" width="0.74" height="2.34"/><rect class="cls-4" x="118.56" y="144.03" width="20.32" height="17.24"/><rect class="cls-16" x="118.56" y="144.03" width="20.35" height="3.8"/><rect class="cls-6" x="118.05" y="143.76" width="21.32" height="3.05"/><rect class="cls-18" x="130.78" y="148.22" width="6.92" height="3.14"/><rect class="cls-19" x="131.29" y="148.63" width="0.74" height="2.34"/><rect class="cls-19" x="132.6" y="148.63" width="0.74" height="2.34"/><rect class="cls-19" x="133.96" y="148.63" width="0.74" height="2.34"/><rect class="cls-19" x="135.2" y="148.63" width="0.74" height="2.34"/><rect class="cls-19" x="136.46" y="148.63" width="0.74" height="2.34"/><rect class="cls-4" x="75.1" y="144.03" width="20.32" height="17.24"/><rect class="cls-16" x="75.1" y="144.03" width="20.35" height="3.8"/><rect class="cls-6" x="74.6" y="143.76" width="21.32" height="3.05"/><rect class="cls-18" x="87.33" y="148.22" width="6.92" height="3.14"/><rect class="cls-19" x="87.83" y="148.63" width="0.74" height="2.34"/><rect class="cls-19" x="89.14" y="148.63" width="0.74" height="2.34"/><rect class="cls-19" x="90.5" y="148.63" width="0.74" height="2.34"/><rect class="cls-19" x="91.74" y="148.63" width="0.74" height="2.34"/><rect class="cls-19" x="93" y="148.63" width="0.74" height="2.34"/><rect class="cls-6" x="253.41" y="124.93" width="18.7" height="15.86"/><rect class="cls-16" x="253.41" y="124.93" width="18.73" height="3.5"/><rect class="cls-4" x="252.95" y="124.68" width="19.62" height="2.81"/><rect class="cls-6" x="233.41" y="124.93" width="18.7" height="15.86"/><rect class="cls-16" x="233.41" y="124.93" width="18.73" height="3.5"/><rect class="cls-4" x="232.95" y="124.68" width="19.62" height="2.81"/><rect class="cls-6" x="253.41" y="140.23" width="18.7" height="15.86"/><rect class="cls-16" x="253.41" y="140.23" width="18.73" height="3.5"/><rect class="cls-4" x="252.95" y="139.98" width="19.62" height="2.81"/><rect class="cls-6" x="233.41" y="140.23" width="18.7" height="15.86"/><rect class="cls-16" x="233.41" y="140.23" width="18.73" height="3.5"/><rect class="cls-4" x="232.95" y="139.98" width="19.62" height="2.81"/><rect class="cls-4" x="255.37" y="154.05" width="17.89" height="15.18"/><rect class="cls-16" x="255.37" y="154.05" width="17.92" height="3.35"/><rect class="cls-6" x="254.92" y="153.82" width="18.78" height="2.69"/><rect class="cls-18" x="266.13" y="157.75" width="6.1" height="2.77"/><rect class="cls-19" x="266.58" y="158.1" width="0.65" height="2.06"/><rect class="cls-19" x="267.74" y="158.1" width="0.65" height="2.06"/><rect class="cls-19" x="268.93" y="158.1" width="0.65" height="2.06"/><rect class="cls-19" x="270.02" y="158.1" width="0.65" height="2.06"/><rect class="cls-19" x="271.14" y="158.1" width="0.65" height="2.06"/><rect class="cls-4" x="274.5" y="154.05" width="17.89" height="15.18"/><rect class="cls-16" x="274.5" y="154.05" width="17.92" height="3.35"/><rect class="cls-6" x="274.06" y="153.82" width="18.78" height="2.69"/><rect class="cls-18" x="285.27" y="157.75" width="6.1" height="2.77"/><rect class="cls-19" x="285.71" y="158.1" width="0.65" height="2.06"/><rect class="cls-19" x="286.87" y="158.1" width="0.65" height="2.06"/><rect class="cls-19" x="288.07" y="158.1" width="0.65" height="2.06"/><rect class="cls-19" x="289.16" y="158.1" width="0.65" height="2.06"/><rect class="cls-19" x="290.27" y="158.1" width="0.65" height="2.06"/><rect class="cls-4" x="236.23" y="154.05" width="17.89" height="15.18"/><rect class="cls-16" x="236.23" y="154.05" width="17.92" height="3.35"/><rect class="cls-6" x="235.79" y="153.82" width="18.78" height="2.69"/><rect class="cls-18" x="247" y="157.75" width="6.1" height="2.77"/><rect class="cls-19" x="247.44" y="158.1" width="0.65" height="2.06"/><rect class="cls-19" x="248.6" y="158.1" width="0.65" height="2.06"/><rect class="cls-19" x="249.79" y="158.1" width="0.65" height="2.06"/><rect class="cls-19" x="250.89" y="158.1" width="0.65" height="2.06"/><rect class="cls-19" x="252" y="158.1" width="0.65" height="2.06"/><rect class="cls-6" x="255.37" y="138.49" width="17.89" height="15.18"/><rect class="cls-16" x="255.37" y="138.49" width="17.92" height="3.35"/><rect class="cls-4" x="254.92" y="138.25" width="18.78" height="2.69"/><rect class="cls-18" x="266.13" y="142.19" width="6.1" height="2.76"/><rect class="cls-19" x="266.58" y="142.54" width="0.65" height="2.06"/><rect class="cls-19" x="267.74" y="142.54" width="0.65" height="2.06"/><rect class="cls-19" x="268.93" y="142.54" width="0.65" height="2.06"/><rect class="cls-19" x="270.02" y="142.54" width="0.65" height="2.06"/><rect class="cls-19" x="271.14" y="142.54" width="0.65" height="2.06"/><rect class="cls-6" x="274.5" y="138.49" width="17.89" height="15.18"/><rect class="cls-16" x="274.5" y="138.49" width="17.92" height="3.35"/><rect class="cls-4" x="274.06" y="138.25" width="18.78" height="2.69"/><rect class="cls-18" x="285.27" y="142.19" width="6.1" height="2.76"/><rect class="cls-19" x="285.71" y="142.54" width="0.65" height="2.06"/><rect class="cls-19" x="286.87" y="142.54" width="0.65" height="2.06"/><rect class="cls-19" x="288.07" y="142.54" width="0.65" height="2.06"/><rect class="cls-19" x="289.16" y="142.54" width="0.65" height="2.06"/><rect class="cls-19" x="290.27" y="142.54" width="0.65" height="2.06"/><rect class="cls-6" x="236.23" y="138.49" width="17.89" height="15.18"/><rect class="cls-16" x="236.23" y="138.49" width="17.92" height="3.35"/><rect class="cls-4" x="235.79" y="138.25" width="18.78" height="2.69"/><rect class="cls-18" x="247" y="142.19" width="6.1" height="2.76"/><rect class="cls-19" x="247.44" y="142.54" width="0.65" height="2.06"/><rect class="cls-19" x="248.6" y="142.54" width="0.65" height="2.06"/><rect class="cls-19" x="249.79" y="142.54" width="0.65" height="2.06"/><rect class="cls-19" x="250.89" y="142.54" width="0.65" height="2.06"/><rect class="cls-19" x="252" y="142.54" width="0.65" height="2.06"/><path class="cls-20" d="M349.35,149.89h9.92a1.07,1.07,0,0,1,1.06,1.06v9.41c0,.59-.49,1.17-1.06,1.06l-9.92-1.74a1.14,1.14,0,0,1-1.06-1.06V151A1.06,1.06,0,0,1,349.35,149.89Z"/><path class="cls-20" d="M363,150.86h1.75a8.47,8.47,0,0,1,.78,3.56v6.68l-2.53-.45a1.14,1.14,0,0,1-1.06-1.06v-7.67A1.06,1.06,0,0,1,363,150.86Z"/><rect class="cls-4" x="233.53" y="154.33" width="92.65" height="14.93"/><rect class="cls-6" x="233.53" y="161.8" width="92.65" height="7.47"/><polygon class="cls-21" points="204.54 166.41 180.62 180.56 179.37 184.35 179.39 184.37 230.72 184.37 209.56 162.81 204.54 166.41"/><path class="cls-7" d="M189.33,141.69H202c2.67,0,4.67,2.31,4.85,5.12L208.38,171H182.91l1.57-24.18a5.11,5.11,0,0,1,4.85-5.12Zm.73,1.56c-2.32,0-3.79,2-3.95,4.54l-1.37,21,21.74.06-1.43-21.28c-.16-2.5-1.35-4.36-3.68-4.36Z"/><rect class="cls-6" x="182.7" y="164.28" width="25.88" height="14.78" rx="1.8"/><rect class="cls-6" x="187.67" y="165.83" width="16.57" height="14.57"/><rect class="cls-4" x="191.63" y="174.83" width="8.64" height="1.91"/><rect class="cls-22" x="181.84" y="178.63" width="28.23" height="1.28"/><rect class="cls-4" x="196.92" y="149.92" width="16.04" height="13.61"/><rect class="cls-16" x="196.92" y="149.92" width="16.07" height="3"/><rect class="cls-6" x="196.52" y="149.71" width="16.84" height="2.41"/><rect class="cls-18" x="206.57" y="153.23" width="5.46" height="2.48"/><rect class="cls-19" x="206.97" y="153.55" width="0.58" height="1.84"/><rect class="cls-19" x="208.01" y="153.55" width="0.58" height="1.84"/><rect class="cls-19" x="209.08" y="153.55" width="0.58" height="1.84"/><rect class="cls-19" x="210.06" y="153.55" width="0.58" height="1.84"/><rect class="cls-19" x="211.06" y="153.55" width="0.58" height="1.84"/><rect class="cls-4" x="179.76" y="149.92" width="16.04" height="13.61"/><rect class="cls-16" x="179.76" y="149.92" width="16.07" height="3"/><rect class="cls-6" x="179.37" y="149.71" width="16.83" height="2.41"/><rect class="cls-18" x="189.42" y="153.23" width="5.46" height="2.48"/><rect class="cls-19" x="189.82" y="153.55" width="0.58" height="1.84"/><rect class="cls-19" x="190.85" y="153.55" width="0.58" height="1.84"/><rect class="cls-19" x="191.92" y="153.55" width="0.58" height="1.84"/><rect class="cls-19" x="192.91" y="153.55" width="0.58" height="1.84"/><rect class="cls-19" x="193.9" y="153.55" width="0.58" height="1.84"/><rect class="cls-4" x="188.56" y="164.59" width="2.65" height="16.91"/><rect class="cls-4" x="200.7" y="164.59" width="2.65" height="16.91"/><path class="cls-6" d="M180.94,174.18h1.77a1,1,0,0,1,1,1v8.16a1,1,0,0,1-1,1h-1.77a1,1,0,0,1-1-1v-8.16A1,1,0,0,1,180.94,174.18Z"/><path class="cls-6" d="M185.12,174.18h1.77a1,1,0,0,1,1,1v8.16a1,1,0,0,1-1,1h-1.77a1,1,0,0,1-1-1v-8.16A1,1,0,0,1,185.12,174.18Z"/><path class="cls-6" d="M205,174.18h1.77a1,1,0,0,1,1,1v8.16a1,1,0,0,1-1,1H205a1,1,0,0,1-1-1v-8.16A1,1,0,0,1,205,174.18Z"/><path class="cls-6" d="M209.19,174.18H211a1,1,0,0,1,1,1v8.16a1,1,0,0,1-1,1h-1.77a1,1,0,0,1-1-1v-8.16A1,1,0,0,1,209.19,174.18Z"/><rect class="cls-4" x="191.63" y="171.06" width="8.64" height="2.17"/><rect class="cls-4" x="191.63" y="167.28" width="8.64" height="2.28"/><polygon class="cls-23" points="188.56 164.59 191.21 164.59 192.23 166.5 187.48 166.56 188.56 164.59"/><polygon class="cls-23" points="200.7 164.59 203.34 164.59 204.32 166.53 199.78 166.56 200.7 164.59"/><rect class="cls-4" x="179.49" y="164.23" width="3.79" height="3.79"/><rect class="cls-16" x="179.49" y="164.23" width="3.79" height="2.2"/><rect class="cls-4" x="209.52" y="164.23" width="3.79" height="3.79"/><rect class="cls-16" x="209.52" y="164.23" width="3.79" height="2.2"/><rect class="cls-6" x="179.49" y="163.56" width="33.82" height="2.3"/><path class="cls-9" d="M341.1,151.81l12.34.08c4.33,0,5.78,3.8,5.78,6.55v1c0,3.65-5,6.63-11,6.63H341.1Z"/><path class="cls-14" d="M243.84,179.21H372.68c1.09,0,2,.67,2,1.48V191.2c0,.82-.9,1.48-2,1.48H243.84c-1.09,0-2-.66-2-1.48V180.69C241.85,179.87,242.75,179.21,243.84,179.21Z"/><path class="cls-9" d="M374.67,186v5.25c0,.82-.9,1.48-2,1.48H243.84c-1.09,0-2-.66-2-1.48V186Z"/><path class="cls-9" d="M375.6,176.28v6a2.5,2.5,0,0,1-2.49,2.49h-7.77l-3.3-3.92a2.27,2.27,0,0,0-1.73-.72H341.1V155.8h26a8.51,8.51,0,0,1,8.48,8.49Z"/><path class="cls-9" d="M375.6,176.28v6a2.5,2.5,0,0,1-2.49,2.49h-7.77l-3.3-3.92a2.27,2.27,0,0,0-1.73-.72H341.1v-9.85h34.5Z"/><rect class="cls-6" x="368.9" y="156.95" width="6.59" height="4.01" rx="1.33"/><path class="cls-20" d="M359.46,159.76h9.92a1.07,1.07,0,0,1,1.06,1.07v9.41c0,.58-.49,1.16-1.06,1.06l-9.92-1.75a1.13,1.13,0,0,1-1.06-1.06v-7.66A1.06,1.06,0,0,1,359.46,159.76Z"/><path class="cls-20" d="M373.07,160.73h1.75a8.5,8.5,0,0,1,.78,3.56V171l-2.53-.45a1.15,1.15,0,0,1-1.07-1.06v-7.67A1.07,1.07,0,0,1,373.07,160.73Z"/><rect class="cls-24" x="243.64" y="149.48" width="92.65" height="29.66"/><rect class="cls-6" x="243.64" y="164.31" width="92.65" height="14.83"/><polygon class="cls-25" points="311.05 185.87 316.46 182.13 325.01 181.82 331.11 185.64 345.08 199.56 317.13 199.56 310.39 192.82 311.05 185.87"/><path class="cls-9" d="M320.75,199.56a8.09,8.09,0,1,0-8.09-8.08A8.1,8.1,0,0,0,320.75,199.56Z"/><path class="cls-7" d="M320.75,194.66a3.19,3.19,0,1,0-3.19-3.18A3.19,3.19,0,0,0,320.75,194.66Z"/><polygon class="cls-7" points="310.34 192.8 310.34 185.93 310.39 185.6 310.64 185.39 315.72 181.15 315.96 180.95 316.28 180.95 325.21 180.95 325.53 180.95 325.77 181.15 330.85 185.39 331.1 185.6 331.15 185.93 331.15 192.8 329.43 193.05 329.48 186.51 324.89 182.68 316.6 182.68 312.01 186.51 312.06 193.05 310.34 192.8"/><polygon class="cls-26" points="249.19 185.87 254.6 182.13 263.15 181.82 269.25 185.64 283.22 199.56 255.27 199.56 248.53 192.82 249.19 185.87"/><path class="cls-9" d="M258.88,199.56a8.09,8.09,0,1,0-8.08-8.08A8.1,8.1,0,0,0,258.88,199.56Z"/><path class="cls-7" d="M258.89,194.66a3.19,3.19,0,1,0-3.19-3.18A3.19,3.19,0,0,0,258.89,194.66Z"/><polygon class="cls-7" points="248.48 192.8 248.48 185.93 248.53 185.6 248.78 185.39 253.86 181.15 254.1 180.95 254.42 180.95 263.35 180.95 263.67 180.95 263.91 181.15 268.99 185.39 269.24 185.6 269.29 185.93 269.29 192.8 267.57 193.05 267.62 186.51 263.03 182.68 254.74 182.68 250.15 186.51 250.2 193.05 248.48 192.8"/><polygon class="cls-27" points="346.57 185.87 351.99 182.13 360.54 181.82 366.64 185.64 380.61 199.56 352.66 199.56 345.92 192.82 346.57 185.87"/><path class="cls-9" d="M356.27,199.56a8.09,8.09,0,1,0-8.08-8.08A8.1,8.1,0,0,0,356.27,199.56Z"/><path class="cls-7" d="M356.27,194.66a3.19,3.19,0,1,0-3.18-3.18A3.19,3.19,0,0,0,356.27,194.66Z"/><polygon class="cls-7" points="345.87 192.8 345.87 185.93 345.92 185.6 346.17 185.39 351.25 181.15 351.49 180.95 351.81 180.95 360.74 180.95 361.06 180.95 361.3 181.15 366.38 185.39 366.63 185.6 366.68 185.93 366.68 192.8 364.96 193.05 365 186.51 360.42 182.68 352.13 182.68 347.54 186.51 347.59 193.05 345.87 192.8"/></g></g></svg>