<svg xmlns="http://www.w3.org/2000/svg" xmlns:xlink="http://www.w3.org/1999/xlink" viewBox="0 0 904.85 713.18"><defs><style>.cls-1{isolation:isolate;}.cls-2{fill:url(#linear-gradient);}.cls-3{fill:url(#linear-gradient-2);}.cls-4{fill:url(#linear-gradient-3);}.cls-5{fill:url(#linear-gradient-4);}.cls-6{fill:url(#linear-gradient-5);}.cls-7{fill:url(#linear-gradient-6);}.cls-8{fill:url(#linear-gradient-7);}.cls-9{fill:url(#linear-gradient-8);}.cls-10{fill:url(#linear-gradient-9);}.cls-11{fill:url(#linear-gradient-10);}.cls-12{fill:url(#linear-gradient-11);}.cls-13{fill:url(#linear-gradient-12);}.cls-14{fill:url(#linear-gradient-13);}.cls-15{fill:url(#linear-gradient-14);}.cls-16{fill:url(#linear-gradient-15);}.cls-17{fill:url(#linear-gradient-16);}.cls-18{fill:url(#linear-gradient-17);}.cls-19{fill:url(#linear-gradient-18);}.cls-20{fill:url(#linear-gradient-19);}.cls-21{fill:url(#linear-gradient-20);}.cls-22{fill:url(#linear-gradient-21);}.cls-23{fill:url(#linear-gradient-22);}.cls-24{fill:#2747b3;}.cls-25{fill:#ffb91f;}.cls-26{fill:url(#linear-gradient-23);}.cls-27,.cls-30{fill:#6a9dd8;}.cls-27,.cls-29{fill-rule:evenodd;}.cls-28{fill:#fff;}.cls-29,.cls-59{fill:#2143af;}.cls-31{fill:url(#linear-gradient-24);}.cls-32{fill:#e02766;}.cls-33{fill:url(#linear-gradient-25);}.cls-34{fill:url(#linear-gradient-26);}.cls-35{fill:url(#linear-gradient-27);}.cls-36{fill:url(#linear-gradient-28);}.cls-37{fill:url(#linear-gradient-29);}.cls-38{fill:url(#linear-gradient-30);}.cls-39{fill:url(#linear-gradient-31);}.cls-40{fill:url(#linear-gradient-32);}.cls-41{fill:url(#linear-gradient-33);}.cls-42{fill:url(#linear-gradient-34);}.cls-43{fill:url(#linear-gradient-35);}.cls-44{fill:url(#linear-gradient-36);}.cls-45{fill:url(#linear-gradient-37);}.cls-46{fill:url(#linear-gradient-38);}.cls-47{fill:url(#linear-gradient-39);}.cls-48{fill:#3951b6;}.cls-49{fill:url(#linear-gradient-40);}.cls-50{fill:url(#linear-gradient-41);}.cls-51{fill:url(#linear-gradient-42);}.cls-52{fill:url(#linear-gradient-43);}.cls-53{fill:url(#linear-gradient-44);}.cls-54{fill:url(#linear-gradient-45);}.cls-55{fill:url(#linear-gradient-46);}.cls-56{fill:#566cd3;}.cls-57{fill:url(#linear-gradient-47);}.cls-58{fill:url(#linear-gradient-48);}.cls-60{fill:#f99ab6;}.cls-61{fill:#fffeff;}.cls-62{fill:url(#linear-gradient-49);}.cls-63{mix-blend-mode:multiply;}.cls-64{fill:#b8b9f1;}.cls-65{fill:#546ad0;}.cls-66{fill:#e5e8ff;}.cls-67{fill:#27cdf2;}.cls-68{fill:url(#linear-gradient-50);}.cls-69{fill:#61c8e0;}</style><linearGradient id="linear-gradient" x1="298.1" y1="700.79" x2="570.26" y2="700.79" gradientUnits="userSpaceOnUse"><stop offset="0" stop-color="#c2ceff"/><stop offset="1" stop-color="#95aaff"/></linearGradient><linearGradient id="linear-gradient-2" x1="632.69" y1="651.49" x2="904.85" y2="651.49" xlink:href="#linear-gradient"/><linearGradient id="linear-gradient-3" x1="600.7" y1="678.74" x2="770.79" y2="678.74" xlink:href="#linear-gradient"/><linearGradient id="linear-gradient-4" x1="75.23" y1="676.72" x2="399.03" y2="676.72" xlink:href="#linear-gradient"/><linearGradient id="linear-gradient-5" x1="69.21" y1="594.18" x2="896.81" y2="594.18" xlink:href="#linear-gradient"/><linearGradient id="linear-gradient-6" x1="410.32" y1="85.57" x2="443.24" y2="85.57" xlink:href="#linear-gradient"/><linearGradient id="linear-gradient-7" x1="812.86" y1="132" x2="815.77" y2="132" xlink:href="#linear-gradient"/><linearGradient id="linear-gradient-8" x1="845.58" y1="132" x2="848.5" y2="132" xlink:href="#linear-gradient"/><linearGradient id="linear-gradient-9" x1="840.86" y1="164.2" x2="879.45" y2="164.2" xlink:href="#linear-gradient"/><linearGradient id="linear-gradient-10" x1="820.86" y1="129.78" x2="832.5" y2="129.78" xlink:href="#linear-gradient"/><linearGradient id="linear-gradient-11" x1="849.24" y1="143.1" x2="879.45" y2="143.1" xlink:href="#linear-gradient"/><linearGradient id="linear-gradient-12" x1="846.03" y1="217.23" x2="854.09" y2="217.23" xlink:href="#linear-gradient"/><linearGradient id="linear-gradient-13" x1="796.68" y1="125.41" x2="807.93" y2="125.41" xlink:href="#linear-gradient"/><linearGradient id="linear-gradient-14" x1="763.28" y1="192.62" x2="793.97" y2="192.62" xlink:href="#linear-gradient"/><linearGradient id="linear-gradient-15" x1="763.28" y1="168.14" x2="793.97" y2="168.14" xlink:href="#linear-gradient"/><linearGradient id="linear-gradient-16" x1="860.12" y1="183.74" x2="879.45" y2="183.74" xlink:href="#linear-gradient"/><linearGradient id="linear-gradient-17" x1="808.78" y1="216.09" x2="815.44" y2="216.09" xlink:href="#linear-gradient"/><linearGradient id="linear-gradient-18" x1="829.52" y1="216.09" x2="839.9" y2="216.09" xlink:href="#linear-gradient"/><linearGradient id="linear-gradient-19" x1="854.67" y1="196.59" x2="879.45" y2="196.59" xlink:href="#linear-gradient"/><linearGradient id="linear-gradient-20" x1="763.28" y1="147.5" x2="795.9" y2="147.5" xlink:href="#linear-gradient"/><linearGradient id="linear-gradient-21" x1="763.28" y1="180.22" x2="788.06" y2="180.22" xlink:href="#linear-gradient"/><linearGradient id="linear-gradient-22" x1="796.68" y1="213.37" x2="799.6" y2="213.37" xlink:href="#linear-gradient"/><linearGradient id="linear-gradient-23" x1="374.75" y1="523.19" x2="521.58" y2="523.19" xlink:href="#linear-gradient"/><linearGradient id="linear-gradient-24" x1="208.44" y1="246.19" x2="369.61" y2="246.19" xlink:href="#linear-gradient"/><linearGradient id="linear-gradient-25" x1="208.44" y1="416.28" x2="247.01" y2="416.28" xlink:href="#linear-gradient"/><linearGradient id="linear-gradient-26" x1="279.24" y1="414.86" x2="316.64" y2="414.86" xlink:href="#linear-gradient"/><linearGradient id="linear-gradient-27" x1="356.56" y1="408.37" x2="385.31" y2="408.37" xlink:href="#linear-gradient"/><linearGradient id="linear-gradient-28" x1="415.37" y1="402.6" x2="453.95" y2="402.6" xlink:href="#linear-gradient"/><linearGradient id="linear-gradient-29" x1="483.01" y1="416.28" x2="521.58" y2="416.28" xlink:href="#linear-gradient"/><linearGradient id="linear-gradient-30" x1="617.15" y1="270.34" x2="649.75" y2="270.34" xlink:href="#linear-gradient"/><linearGradient id="linear-gradient-31" x1="514.53" y1="236.85" x2="626.65" y2="236.85" xlink:href="#linear-gradient"/><linearGradient id="linear-gradient-32" x1="542.76" y1="325" x2="686.17" y2="325" xlink:href="#linear-gradient"/><linearGradient id="linear-gradient-33" x1="9" y1="386.17" x2="68.88" y2="386.17" xlink:href="#linear-gradient"/><linearGradient id="linear-gradient-34" x1="9" y1="375.39" x2="68.88" y2="375.39" xlink:href="#linear-gradient"/><linearGradient id="linear-gradient-35" x1="9" y1="364.62" x2="68.88" y2="364.62" xlink:href="#linear-gradient"/><linearGradient id="linear-gradient-36" x1="9" y1="353.84" x2="68.88" y2="353.84" xlink:href="#linear-gradient"/><linearGradient id="linear-gradient-37" x1="9" y1="341.95" x2="68.88" y2="341.95" xlink:href="#linear-gradient"/><linearGradient id="linear-gradient-38" x1="9" y1="329.72" x2="68.88" y2="329.72" xlink:href="#linear-gradient"/><linearGradient id="linear-gradient-39" x1="76.79" y1="124.62" x2="204.73" y2="124.62" xlink:href="#linear-gradient"/><linearGradient id="linear-gradient-40" x1="671.14" y1="405.54" x2="878.31" y2="405.54" xlink:href="#linear-gradient"/><linearGradient id="linear-gradient-41" x1="671.14" y1="585.84" x2="878.31" y2="585.84" xlink:href="#linear-gradient"/><linearGradient id="linear-gradient-42" x1="671.14" y1="495.69" x2="878.31" y2="495.69" xlink:href="#linear-gradient"/><linearGradient id="linear-gradient-43" x1="12.34" y1="538.45" x2="286.17" y2="538.45" xlink:href="#linear-gradient"/><linearGradient id="linear-gradient-44" x1="22.18" y1="223.52" x2="98.31" y2="223.52" xlink:href="#linear-gradient"/><linearGradient id="linear-gradient-45" x1="454.86" y1="644.61" x2="557.41" y2="644.61" gradientUnits="userSpaceOnUse"><stop offset="0" stop-color="#ee497b"/><stop offset="1" stop-color="#de2263"/></linearGradient><linearGradient id="linear-gradient-46" x1="481.95" y1="645.89" x2="532.84" y2="645.89" xlink:href="#linear-gradient-45"/><linearGradient id="linear-gradient-47" x1="672.69" y1="85.73" x2="685.74" y2="85.73" xlink:href="#linear-gradient"/><linearGradient id="linear-gradient-48" x1="750.99" y1="54.94" x2="764.04" y2="54.94" xlink:href="#linear-gradient"/><linearGradient id="linear-gradient-49" x1="367.55" y1="667.7" x2="418.08" y2="667.7" xlink:href="#linear-gradient"/><linearGradient id="linear-gradient-50" x1="785.94" y1="339.83" x2="817.41" y2="339.83" xlink:href="#linear-gradient"/></defs><title>Big Data and AI</title><g class="cls-1"><g id="Layer_1" data-name="Layer 1"><rect class="cls-2" x="298.1" y="688.4" width="272.16" height="24.78" rx="12.27"/><rect class="cls-3" x="632.69" y="639.1" width="272.17" height="24.78" rx="12.27"/><rect class="cls-4" x="600.7" y="666.35" width="170.09" height="24.78" rx="12.27"/><rect class="cls-5" x="75.23" y="664.33" width="323.8" height="24.78" rx="12.27"/><rect class="cls-6" x="69.21" y="581.79" width="827.6" height="24.78" rx="12.27"/><path class="cls-7" d="M425.71,86.64h17.53a16.48,16.48,0,1,1-17.53-17.53Z"/><rect class="cls-8" x="812.86" y="114.68" width="2.91" height="34.65"/><rect class="cls-9" x="845.58" y="114.68" width="2.91" height="34.65"/><rect class="cls-10" x="840.86" y="162.74" width="38.6" height="2.92"/><polygon class="cls-11" points="829.59 144.89 829.59 127.37 820.86 127.37 820.86 114.68 823.78 114.68 823.78 124.46 832.5 124.46 832.5 144.89 829.59 144.89"/><polygon class="cls-12" points="849.24 148.92 849.24 146.01 866.76 146.01 866.76 137.28 879.46 137.28 879.46 140.19 869.67 140.19 869.67 148.92 849.24 148.92"/><polygon class="cls-13" points="851.18 225.9 851.18 220.45 846.03 220.45 846.03 208.56 848.95 208.56 848.95 217.54 854.09 217.54 854.09 225.9 851.18 225.9"/><polygon class="cls-14" points="796.68 136.14 796.68 123.38 805.02 123.38 805.02 114.68 807.93 114.68 807.93 126.29 799.6 126.29 799.6 136.14 796.68 136.14"/><polygon class="cls-15" points="773.13 198.25 773.13 189.91 763.28 189.91 763.28 187 776.04 187 776.04 195.33 793.97 195.33 793.97 198.25 773.13 198.25"/><polygon class="cls-16" points="763.28 173.77 763.28 170.86 773.13 170.86 773.13 162.52 793.97 162.52 793.97 165.43 776.04 165.43 776.04 173.77 763.28 173.77"/><path class="cls-17" d="M876.54,188.93v-7.44c-2.25,0-6.64,0-10.24,0-3,0-4.79,0-5.44,0l-.74,0,.11-2.91.74,0c.69,0,2.78,0,5.27,0,5,0,11.63,0,11.75,0h1.46v10.36Z"/><path class="cls-18" d="M808.78,225.76v-2.92h3.71c0-4-.06-13.91,0-15.68l0-.74,2.91.11,0,.74c0,1.21,0,7.3,0,16.71v1.78Z"/><path class="cls-19" d="M829.54,225.76v-1.47c0-.14.08-14.95,0-17l0-.74,2.91-.11,0,.75c.06,1.7,0,11,0,15.67h7.43v2.92Z"/><rect class="cls-20" x="854.67" y="195.13" width="24.78" height="2.91"/><rect class="cls-21" x="763.28" y="146.04" width="32.62" height="2.92"/><rect class="cls-22" x="763.28" y="178.76" width="24.78" height="2.92"/><rect class="cls-23" x="796.68" y="200.98" width="2.91" height="24.78"/><rect class="cls-24" x="793.17" y="134.43" width="9.57" height="5.87"/><rect class="cls-24" x="809.53" y="134.43" width="9.57" height="5.87"/><rect class="cls-24" x="825.89" y="134.43" width="9.57" height="5.87"/><rect class="cls-24" x="842.25" y="134.43" width="9.57" height="5.87"/><rect class="cls-24" x="793.17" y="203.79" width="9.57" height="5.87"/><rect class="cls-24" x="809.53" y="203.79" width="9.57" height="5.87"/><rect class="cls-24" x="825.89" y="203.79" width="9.57" height="5.87"/><rect class="cls-24" x="842.25" y="203.79" width="9.57" height="5.87"/><rect class="cls-24" x="854.24" y="142.71" width="5.87" height="9.57"/><rect class="cls-24" x="854.24" y="159.08" width="5.87" height="9.57"/><rect class="cls-24" x="854.24" y="175.44" width="5.87" height="9.57"/><rect class="cls-24" x="854.24" y="191.8" width="5.87" height="9.57"/><rect class="cls-24" x="784.88" y="142.71" width="5.87" height="9.57"/><rect class="cls-24" x="784.88" y="159.08" width="5.87" height="9.57"/><rect class="cls-24" x="784.88" y="175.44" width="5.87" height="9.57"/><rect class="cls-24" x="784.88" y="191.8" width="5.87" height="9.57"/><rect class="cls-24" x="787.81" y="137.36" width="69.36" height="69.36"/><rect class="cls-25" x="794.93" y="144.48" width="55.13" height="55.13"/><rect class="cls-24" x="800.59" y="149.89" width="6.75" height="6.75"/><rect class="cls-24" x="809.86" y="149.89" width="6.75" height="6.75"/><rect class="cls-24" x="819.12" y="149.89" width="6.75" height="6.75"/><rect class="cls-24" x="828.38" y="149.89" width="6.75" height="6.75"/><rect class="cls-24" x="837.65" y="149.89" width="6.75" height="6.75"/><rect class="cls-24" x="800.59" y="159.28" width="6.75" height="6.75"/><rect class="cls-24" x="809.86" y="159.28" width="6.75" height="6.75"/><rect class="cls-24" x="819.12" y="159.28" width="6.75" height="6.75"/><rect class="cls-24" x="828.38" y="159.28" width="6.75" height="6.75"/><rect class="cls-24" x="837.65" y="159.28" width="6.75" height="6.75"/><rect class="cls-24" x="800.59" y="168.67" width="6.75" height="6.75"/><rect class="cls-24" x="809.86" y="168.67" width="6.75" height="6.75"/><rect class="cls-24" x="819.12" y="168.67" width="6.75" height="6.75"/><rect class="cls-24" x="828.38" y="168.67" width="6.75" height="6.75"/><rect class="cls-24" x="837.65" y="168.67" width="6.75" height="6.75"/><rect class="cls-24" x="800.59" y="178.05" width="6.75" height="6.75"/><rect class="cls-24" x="809.86" y="178.05" width="6.75" height="6.75"/><rect class="cls-24" x="819.12" y="178.05" width="6.75" height="6.75"/><rect class="cls-24" x="828.38" y="178.05" width="6.75" height="6.75"/><rect class="cls-24" x="837.65" y="178.05" width="6.75" height="6.75"/><rect class="cls-24" x="800.59" y="187.44" width="6.75" height="6.75"/><rect class="cls-24" x="809.86" y="187.44" width="6.75" height="6.75"/><rect class="cls-24" x="819.12" y="187.44" width="6.75" height="6.75"/><rect class="cls-24" x="828.38" y="187.44" width="6.75" height="6.75"/><rect class="cls-24" x="837.65" y="187.44" width="6.75" height="6.75"/><rect class="cls-26" x="374.75" y="477.1" width="146.83" height="92.18"/><path class="cls-27" d="M192.62,159.5H704.19a26.25,26.25,0,0,1,26.17,26.18V464.06a26.25,26.25,0,0,1-26.17,26.18H192.62a26.26,26.26,0,0,1-26.18-26.18V185.68A26.26,26.26,0,0,1,192.62,159.5Z"/><rect class="cls-28" x="183.82" y="174.77" width="529.17" height="268.73"/><path class="cls-29" d="M278.44,556.13H605.93A12.87,12.87,0,0,1,618.77,569h0a12.88,12.88,0,0,1-12.84,12.83H278.44A12.88,12.88,0,0,1,265.61,569h0A12.87,12.87,0,0,1,278.44,556.13Z"/><rect class="cls-30" x="208.44" y="326.99" width="161.17" height="5.81" transform="translate(578.05 659.79) rotate(180)"/><rect class="cls-30" x="208.44" y="311.55" width="161.17" height="5.81" transform="translate(578.05 628.9) rotate(180)"/><rect class="cls-30" x="208.44" y="296.11" width="161.17" height="5.81" transform="translate(578.05 598.02) rotate(180)"/><rect class="cls-30" x="391.33" y="228.44" width="114.15" height="5.81" transform="translate(896.81 462.68) rotate(180)"/><rect class="cls-30" x="391.33" y="213.25" width="114.15" height="5.81" transform="translate(896.81 432.31) rotate(180)"/><rect class="cls-30" x="391.33" y="198.07" width="114.15" height="5.81" transform="translate(896.81 401.94) rotate(180)"/><rect class="cls-30" x="391.33" y="274" width="114.15" height="5.81" transform="translate(896.81 553.81) rotate(180)"/><rect class="cls-30" x="391.33" y="258.81" width="114.15" height="5.81" transform="translate(896.81 523.44) rotate(180)"/><rect class="cls-30" x="391.33" y="243.63" width="114.15" height="5.81" transform="translate(896.81 493.06) rotate(180)"/><rect class="cls-30" x="391.33" y="319.56" width="114.15" height="5.81" transform="translate(896.81 644.94) rotate(180)"/><rect class="cls-30" x="391.33" y="304.38" width="114.15" height="5.81" transform="translate(896.81 614.56) rotate(180)"/><rect class="cls-30" x="391.33" y="289.19" width="114.15" height="5.81" transform="translate(896.81 584.19) rotate(180)"/><rect class="cls-30" x="391.33" y="365.13" width="114.15" height="5.81" transform="translate(896.81 736.06) rotate(180)"/><rect class="cls-30" x="391.33" y="349.94" width="114.15" height="5.81" transform="translate(896.81 705.69) rotate(180)"/><rect class="cls-30" x="550.66" y="423.43" width="114.15" height="5.81" transform="translate(1215.48 852.66) rotate(180)"/><rect class="cls-30" x="550.66" y="408.24" width="114.15" height="5.81" transform="translate(1215.48 822.29) rotate(180)"/><rect class="cls-30" x="550.66" y="392.56" width="114.15" height="5.81" transform="translate(1215.48 790.92) rotate(180)"/><rect class="cls-30" x="550.66" y="376.87" width="114.15" height="5.81" transform="translate(1215.48 759.55) rotate(180)"/><rect class="cls-30" x="391.33" y="334.75" width="114.15" height="5.81" transform="translate(896.81 675.31) rotate(180)"/><rect class="cls-30" x="208.44" y="365.13" width="161.17" height="5.81" transform="translate(578.05 736.06) rotate(180)"/><rect class="cls-30" x="208.44" y="349.69" width="161.17" height="5.81" transform="translate(578.05 705.18) rotate(180)"/><polygon class="cls-25" points="226.28 209.85 244.91 200.78 262.75 209.94 280.6 209.94 298.71 200.97 317.07 218.91 334.92 209.94 353.03 200.97 369.61 209.21 369.61 282.54 208.44 282.54 208.44 198.06 226.28 209.85"/><polygon class="cls-31" points="226.03 228.51 244.65 209.85 266.05 230.7 300.27 219.28 316.81 238.8 334.92 218.91 353.28 228.16 369.61 220.04 369.61 282.54 208.44 282.54 208.44 219.28 226.03 228.51"/><polygon class="cls-28" points="226.54 218.91 244.39 227.97 261.51 247.92 280.86 237.22 298.96 228.29 317.07 255.4 335.18 246.19 353.28 255.66 369.61 247.09 369.61 282.54 208.44 282.54 208.44 229.81 226.54 218.91"/><polygon class="cls-32" points="226.28 250.63 244.39 237.41 262.24 255.53 280.6 246.47 291.22 262.03 329.97 265.56 353.03 246.28 369.61 254.63 369.61 282.54 208.44 282.54 208.44 244.52 226.28 250.63"/><path class="cls-24" d="M228.21,409.44l-18.8-6.12a19.47,19.47,0,0,1,18.8-13.67Z"/><path class="cls-33" d="M228.21,409.44l18.8,6.11a19.77,19.77,0,1,1-37.6-12.23h0Z"/><path class="cls-32" d="M228.21,409.44l11.62-16A19.48,19.48,0,0,1,247,415.55Z"/><path class="cls-30" d="M228.21,409.44V389.65a18.94,18.94,0,0,1,11.62,3.78Z"/><path class="cls-24" d="M296.86,409.46l-17.62,9a19.46,19.46,0,0,1,3.62-23Z"/><path class="cls-34" d="M296.86,409.46l17.62-9a19.77,19.77,0,1,1-35.24,17.93h0Z"/><path class="cls-25" d="M296.86,409.46l-3.11-19.55a19.52,19.52,0,0,1,20.73,10.58Z"/><path class="cls-30" d="M296.86,409.46l-14-14a19,19,0,0,1,10.89-5.55Z"/><path class="cls-24" d="M365.53,409.45l9,17.62a19.44,19.44,0,0,1-23-3.62Z"/><path class="cls-35" d="M365.53,409.45l-9-17.61a19.77,19.77,0,1,1,17.93,35.23h0Z"/><path class="cls-32" d="M365.53,409.45,346,412.56a19.48,19.48,0,0,1,10.57-20.72Z"/><path class="cls-30" d="M365.53,409.45l-14,14A18.9,18.9,0,0,1,346,412.56Z"/><path class="cls-24" d="M434.18,409.44l18.8,6.12a19.48,19.48,0,0,1-18.8,13.68Z"/><path class="cls-36" d="M434.18,409.44l-18.81-6.11A19.77,19.77,0,1,1,453,415.56h0Z"/><path class="cls-25" d="M434.18,409.44l-11.62,16a19.49,19.49,0,0,1-7.19-22.12Z"/><path class="cls-30" d="M434.18,409.44v19.8a18.92,18.92,0,0,1-11.62-3.79Z"/><path class="cls-24" d="M502.78,409.44,484,403.32a19.47,19.47,0,0,1,18.8-13.67Z"/><path class="cls-37" d="M502.78,409.44l18.8,6.11A19.77,19.77,0,1,1,484,403.32h0Z"/><path class="cls-25" d="M502.78,409.44l11.62-16a19.48,19.48,0,0,1,7.18,22.12Z"/><path class="cls-30" d="M502.78,409.44V389.65a18.91,18.91,0,0,1,11.62,3.78Z"/><path class="cls-28" d="M598.56,284.18h54.56a51.29,51.29,0,1,1-54.56-54.56Z"/><path class="cls-25" d="M605.4,275.35V233a48,48,0,0,1,38.24,24.2Z"/><path class="cls-38" d="M649.75,277.34h-32.6l29.46-14a46.83,46.83,0,0,1,3.14,14Z"/><rect class="cls-30" x="654.78" y="194.68" width="36.89" height="28.38" transform="translate(46.13 530.75) rotate(-44.41)"/><path class="cls-25" d="M753.37,149.89a13.94,13.94,0,0,0,.2-19.73h0a14,14,0,0,0-19.73-.2l-59.33,58.13a13.94,13.94,0,0,0-.21,19.72h0A13.94,13.94,0,0,0,694,208Z"/><path class="cls-39" d="M514.53,278.37h25.35c2.24-31.76,29-54.87,60.42-56.28a52,52,0,0,1,19,2.75l7.37-25.36a85.77,85.77,0,0,0-112.12,78.89Z"/><path class="cls-24" d="M539.72,282.9H514.49a85.52,85.52,0,0,0,25,58.87l17.1-17.57C546.27,313,539.78,298.12,539.72,282.9Z"/><path class="cls-40" d="M600.3,343.27c-15.37.69-29.66-5.65-40.5-15.84l-17,17.5a85.86,85.86,0,0,0,143.41-62H660.88C660.76,316.75,633.06,341.8,600.3,343.27Z"/><path class="cls-24" d="M623.52,226.46c20.36,8.83,35.43,29.69,37.18,51.91h25.45A85.89,85.89,0,0,0,630.93,201Z"/><path class="cls-28" d="M11.49,375.05V384c0,7.37,12.29,13.34,27.45,13.34s27.45-6,27.45-13.34v-8.9Z"/><path class="cls-41" d="M38.94,399.78C21.87,399.78,9,393,9,384V372.56H68.88V384C68.88,393,56,399.78,38.94,399.78ZM14,384c0,5.12,10.68,10.85,25,10.85s25-5.73,25-10.85v-6.41H14Z"/><path class="cls-28" d="M11.49,364.27v8.9c0,7.37,12.29,13.35,27.45,13.35s27.45-6,27.45-13.35v-8.9Z"/><path class="cls-42" d="M38.94,389C21.87,389,9,382.2,9,373.17V361.78H68.88v11.39C68.88,382.2,56,389,38.94,389ZM14,373.17c0,5.12,10.68,10.85,25,10.85s25-5.73,25-10.85v-6.4H14Z"/><path class="cls-28" d="M11.49,353.5v8.9c0,7.36,12.29,13.34,27.45,13.34s27.45-6,27.45-13.34v-8.9Z"/><path class="cls-43" d="M38.94,378.23C21.87,378.23,9,371.42,9,362.4V351H68.88V362.4C68.88,371.42,56,378.23,38.94,378.23ZM14,362.4c0,5.12,10.68,10.85,25,10.85s25-5.73,25-10.85V356H14Z"/><path class="cls-28" d="M11.49,342.72v8.9C11.49,359,23.78,365,38.94,365s27.45-6,27.45-13.34v-8.9Z"/><path class="cls-44" d="M38.94,367.45C21.87,367.45,9,360.65,9,351.62V340.23H68.88v11.39C68.88,360.65,56,367.45,38.94,367.45ZM14,351.62c0,5.12,10.68,10.85,25,10.85s25-5.73,25-10.85v-6.41H14Z"/><path class="cls-28" d="M11.49,329.72v11.12c0,7.36,12.29,13.34,27.45,13.34s27.45-6,27.45-13.34V329.72Z"/><path class="cls-45" d="M38.94,356.67C21.87,356.67,9,349.87,9,340.84V327.23H68.88v13.61C68.88,349.87,56,356.67,38.94,356.67ZM14,340.84c0,5.12,10.68,10.85,25,10.85s25-5.73,25-10.85v-8.63H14Z"/><path class="cls-28" d="M66.39,329.72c0,7.37-12.29,13.34-27.45,13.34s-27.45-6-27.45-13.34,12.29-13.34,27.45-13.34S66.39,322.35,66.39,329.72Z"/><path class="cls-46" d="M38.94,345.55C21.87,345.55,9,338.75,9,329.72s12.87-15.84,29.94-15.84,29.94,6.81,29.94,15.84S56,345.55,38.94,345.55Zm0-26.68c-14.93,0-25,5.61-25,10.85s10,10.85,25,10.85,25-5.61,25-10.85S53.22,318.87,38.94,318.87Z"/><path class="cls-47" d="M187.61,157.63H156.34V124.44h8v17.07h13.76v6.67L189,138.82l-10.89-8.49V137H168.7V124.45h16.9v-.27c11-1.87,18.54-12.53,19.13-23.41-.71-13.39-10.26-22.93-23.67-23.65-.25,0-.5,0-.75,0a27.27,27.27,0,0,0,.57-4c-.67-12.4-9.51-21.22-21.91-21.9-7.28-.39-13.33,3.33-17.23,8.75a22.75,22.75,0,0,0-17.25-8.75c-12.37-.67-21.28,10.51-21.89,21.9a19,19,0,0,0,.26,4.23c-.77-.1-1.56-.18-2.37-.22-13.38-.73-23,11.34-23.67,23.65-.67,12.59,10,21.85,21.48,23.46v.21H117v12.19h-9.44V130l-10.88,9.37,10.88,8.48v-6.66h13.76V124.44h7.62v33.19H90.33V151l-10.88,9.37,10.88,8.48v-6.66h42.94V124.44h6.81v62.73h-6.66l9.36,10.89,8.49-10.89H144.6V124.44H152v37.71h35.6v6.66l10.88-9.36L187.61,151Z"/><rect class="cls-48" x="658.56" y="353" width="232.34" height="285.97"/><path class="cls-49" d="M878.31,398.26V364.93H671.14v33.33H681.3v14.56H671.14v33.33H878.31V412.82H866.59V398.26ZM708.1,432.48H693.71V418.4H708.1Zm0-20.1H693.71V398.31H708.1Zm0-19.71H693.71v-14.1H708.1Zm21.3,39.81H715V418.4h14.4Zm0-20.1H715V398.31h14.4Zm0-19.71H715v-14.1h14.4Zm21,39.81H736V418.4h14.39Zm0-20.1H736V398.31h14.39Zm0-19.71H736v-14.1h14.39Zm20.75,39.81H756.74V418.4H771.1Zm0-20.1H756.74V398.31H771.1Zm0-19.71H756.74v-14.1H771.1Zm21.29,39.81H778V418.4h14.38Zm0-20.1H778V398.31h14.38Zm0-19.71H778v-14.1h14.38Zm21,39.81H799V418.4h14.39Zm0-20.1H799V398.31h14.39Zm0-19.71H799v-14.1h14.39Zm32.2,39.4H827V423.5h18.56ZM836.23,408a14.85,14.85,0,1,1,14.82-14.85A14.85,14.85,0,0,1,836.23,408Z"/><rect class="cls-28" x="827.02" y="423.5" width="18.56" height="8.57"/><path class="cls-28" d="M851.05,393.13a14.84,14.84,0,1,1-14.82-14.85A14.85,14.85,0,0,1,851.05,393.13Z"/><rect class="cls-28" x="693.71" y="378.57" width="14.39" height="14.1"/><rect class="cls-28" x="715" y="378.57" width="14.39" height="14.1"/><rect class="cls-28" x="735.96" y="378.57" width="14.39" height="14.1"/><rect class="cls-28" x="756.74" y="378.57" width="14.36" height="14.1"/><rect class="cls-28" x="778.01" y="378.57" width="14.39" height="14.1"/><rect class="cls-28" x="798.99" y="378.57" width="14.39" height="14.1"/><rect class="cls-28" x="798.99" y="398.31" width="14.39" height="14.07"/><rect class="cls-28" x="778.01" y="398.31" width="14.39" height="14.07"/><rect class="cls-28" x="756.74" y="398.31" width="14.36" height="14.07"/><rect class="cls-28" x="735.96" y="398.31" width="14.39" height="14.07"/><rect class="cls-28" x="715" y="398.31" width="14.39" height="14.07"/><rect class="cls-28" x="693.71" y="398.31" width="14.39" height="14.07"/><rect class="cls-28" x="693.71" y="418.4" width="14.39" height="14.07"/><rect class="cls-28" x="715" y="418.4" width="14.39" height="14.07"/><rect class="cls-28" x="735.96" y="418.4" width="14.39" height="14.07"/><rect class="cls-28" x="756.74" y="418.4" width="14.36" height="14.07"/><rect class="cls-28" x="778.01" y="418.4" width="14.39" height="14.07"/><rect class="cls-28" x="798.99" y="418.4" width="14.39" height="14.07"/><path class="cls-50" d="M878.31,578.56V545.23H671.14v33.33H681.3v14.56H671.14v33.33H878.31V593.12H866.59V578.56ZM708.1,612.78H693.71V598.71H708.1Zm0-20.09H693.71V578.62H708.1Zm0-19.71H693.71V558.87H708.1Zm21.3,39.8H715V598.71h14.4Zm0-20.09H715V578.62h14.4Zm0-19.71H715V558.87h14.4Zm21,39.8H736V598.71h14.39Zm0-20.09H736V578.62h14.39Zm0-19.71H736V558.87h14.39Zm20.75,39.8H756.74V598.71H771.1Zm0-20.09H756.74V578.62H771.1Zm0-19.71H756.74V558.87H771.1Zm21.29,39.8H778V598.71h14.38Zm0-20.09H778V578.62h14.38Zm0-19.71H778V558.87h14.38Zm21,39.8H799V598.71h14.39Zm0-20.09H799V578.62h14.39Zm0-19.71H799V558.87h14.39Zm32.2,39.4H827V603.8h18.56Zm-9.35-24.09a14.85,14.85,0,1,1,14.82-14.85A14.85,14.85,0,0,1,836.23,588.29Z"/><rect class="cls-28" x="827.02" y="603.8" width="18.56" height="8.58"/><path class="cls-28" d="M851.05,573.44a14.84,14.84,0,1,1-14.82-14.85A14.85,14.85,0,0,1,851.05,573.44Z"/><rect class="cls-28" x="693.71" y="558.87" width="14.39" height="14.1"/><rect class="cls-28" x="715" y="558.87" width="14.39" height="14.1"/><rect class="cls-28" x="735.96" y="558.87" width="14.39" height="14.1"/><rect class="cls-28" x="756.74" y="558.87" width="14.36" height="14.1"/><rect class="cls-28" x="778.01" y="558.87" width="14.39" height="14.1"/><rect class="cls-28" x="798.99" y="558.87" width="14.39" height="14.1"/><rect class="cls-28" x="798.99" y="578.62" width="14.39" height="14.08"/><rect class="cls-28" x="778.01" y="578.62" width="14.39" height="14.08"/><rect class="cls-28" x="756.74" y="578.62" width="14.36" height="14.08"/><rect class="cls-28" x="735.96" y="578.62" width="14.39" height="14.08"/><rect class="cls-28" x="715" y="578.62" width="14.39" height="14.08"/><rect class="cls-28" x="693.71" y="578.62" width="14.39" height="14.08"/><rect class="cls-28" x="693.71" y="598.71" width="14.39" height="14.07"/><rect class="cls-28" x="715" y="598.71" width="14.39" height="14.07"/><rect class="cls-28" x="735.96" y="598.71" width="14.39" height="14.07"/><rect class="cls-28" x="756.74" y="598.71" width="14.36" height="14.07"/><rect class="cls-28" x="778.01" y="598.71" width="14.39" height="14.07"/><rect class="cls-28" x="798.99" y="598.71" width="14.39" height="14.07"/><path class="cls-51" d="M878.31,488.41V455.08H671.14v33.33H681.3V503H671.14V536.3H878.31V503H866.59V488.41ZM708.1,522.63H693.71V508.55H708.1Zm0-20.09H693.71V488.46H708.1Zm0-19.72H693.71v-14.1H708.1Zm21.3,39.81H715V508.55h14.4Zm0-20.09H715V488.46h14.4Zm0-19.72H715v-14.1h14.4Zm21,39.81H736V508.55h14.39Zm0-20.09H736V488.46h14.39Zm0-19.72H736v-14.1h14.39Zm20.75,39.81H756.74V508.55H771.1Zm0-20.09H756.74V488.46H771.1Zm0-19.72H756.74v-14.1H771.1Zm21.29,39.81H778V508.55h14.38Zm0-20.09H778V488.46h14.38Zm0-19.72H778v-14.1h14.38Zm21,39.81H799V508.55h14.39Zm0-20.09H799V488.46h14.39Zm0-19.72H799v-14.1h14.39Zm32.2,39.4H827v-8.57h18.56Zm-9.35-24.08a14.86,14.86,0,1,1,14.82-14.86A14.85,14.85,0,0,1,836.23,498.14Z"/><rect class="cls-28" x="827.02" y="513.65" width="18.56" height="8.57"/><path class="cls-28" d="M851.05,483.28a14.84,14.84,0,1,1-14.82-14.85A14.85,14.85,0,0,1,851.05,483.28Z"/><rect class="cls-28" x="693.71" y="468.72" width="14.39" height="14.1"/><rect class="cls-28" x="715" y="468.72" width="14.39" height="14.1"/><rect class="cls-28" x="735.96" y="468.72" width="14.39" height="14.1"/><rect class="cls-28" x="756.74" y="468.72" width="14.36" height="14.1"/><rect class="cls-28" x="778.01" y="468.72" width="14.39" height="14.1"/><rect class="cls-28" x="798.99" y="468.72" width="14.39" height="14.1"/><rect class="cls-28" x="798.99" y="488.46" width="14.39" height="14.08"/><rect class="cls-28" x="778.01" y="488.46" width="14.39" height="14.08"/><rect class="cls-28" x="756.74" y="488.46" width="14.36" height="14.08"/><rect class="cls-28" x="735.96" y="488.46" width="14.39" height="14.08"/><rect class="cls-28" x="715" y="488.46" width="14.39" height="14.08"/><rect class="cls-28" x="693.71" y="488.46" width="14.39" height="14.08"/><rect class="cls-28" x="693.71" y="508.55" width="14.39" height="14.07"/><rect class="cls-28" x="715" y="508.55" width="14.39" height="14.07"/><rect class="cls-28" x="735.96" y="508.55" width="14.39" height="14.07"/><rect class="cls-28" x="756.74" y="508.55" width="14.36" height="14.07"/><rect class="cls-28" x="778.01" y="508.55" width="14.39" height="14.07"/><rect class="cls-28" x="798.99" y="508.55" width="14.39" height="14.07"/><path class="cls-25" d="M752.1,655.73V582a8.35,8.35,0,0,0-2.38-5.83,11.75,11.75,0,0,0-5.2-3.08,13.73,13.73,0,0,0-3.73-.54H672.47v-4.47a8.54,8.54,0,0,0-1.21-4.38,11.67,11.67,0,0,0-10-5.31h-32c-5.72,0-9.92,4-9.92,9.69v87.64c0,5.72,4.2,10.62,9.92,10.62H740.79a11.24,11.24,0,0,0,5-1.25C749.39,663.28,752.1,659.71,752.1,655.73Z"/><path class="cls-28" d="M712.28,633h24.23a1.34,1.34,0,0,1,1.34,1.34v24.24a1.35,1.35,0,0,1-1.35,1.35H712.28a1.35,1.35,0,0,1-1.35-1.35V634.38A1.35,1.35,0,0,1,712.28,633Z"/><path class="cls-28" d="M705.31,660H676.74a2.48,2.48,0,0,1-2.48-2.48h0a2.48,2.48,0,0,1,2.48-2.48h28.57a2.48,2.48,0,0,1,2.48,2.48h0A2.48,2.48,0,0,1,705.31,660Z"/><path class="cls-28" d="M705.31,652.64H684.52a2.48,2.48,0,0,1-2.47-2.48h0a2.48,2.48,0,0,1,2.47-2.47h20.79a2.48,2.48,0,0,1,2.48,2.47h0A2.48,2.48,0,0,1,705.31,652.64Z"/><rect class="cls-28" x="108.41" y="601.34" width="81.7" height="62.99"/><polygon class="cls-52" points="190.09 601.35 108.42 601.35 12.34 475.54 286.17 475.54 190.09 601.35"/><path class="cls-24" d="M298.51,463.84a11.8,11.8,0,0,0-11.8-11.8H11.8A11.8,11.8,0,0,0,0,463.84H0a11.8,11.8,0,0,0,11.8,11.8H286.71a11.81,11.81,0,0,0,11.8-11.8Z"/><path class="cls-28" d="M107.05,391.58a3.54,3.54,0,0,1,3.53,3.54v7.07a3.54,3.54,0,0,1-7.07,0v-7.07A3.54,3.54,0,0,1,107.05,391.58Zm0,24.75a3.53,3.53,0,0,1,3.53,3.53v7.07a3.54,3.54,0,1,1-7.07,0v-7.07A3.53,3.53,0,0,1,107.05,416.33Zm0,24.74a3.53,3.53,0,0,1,3.53,3.54v7.07a3.54,3.54,0,0,1-7.07,0v-7.07A3.53,3.53,0,0,1,107.05,441.07Zm0,24.74a3.54,3.54,0,0,1,3.53,3.54v7.07a3.54,3.54,0,0,1-7.07,0v-7.07A3.54,3.54,0,0,1,107.05,465.81Z"/><path class="cls-28" d="M147.17,368.31a3.55,3.55,0,0,1,3.54,3.54v7.07a3.54,3.54,0,0,1-7.07,0v-7.07A3.54,3.54,0,0,1,147.17,368.31Zm0,24.75a3.54,3.54,0,0,1,3.54,3.53v7.07a3.54,3.54,0,1,1-7.07,0v-7.07A3.53,3.53,0,0,1,147.17,393.06Zm0,24.74a3.54,3.54,0,0,1,3.54,3.54v7.07a3.54,3.54,0,0,1-7.07,0v-7.07A3.53,3.53,0,0,1,147.17,417.8Zm0,24.74a3.55,3.55,0,0,1,3.54,3.54v7.07a3.54,3.54,0,0,1-7.07,0v-7.07A3.54,3.54,0,0,1,147.17,442.54Zm0,24.75a3.54,3.54,0,0,1,3.54,3.53v7.07a3.54,3.54,0,1,1-7.07,0v-7.07A3.53,3.53,0,0,1,147.17,467.29Zm0,24.74a3.54,3.54,0,0,1,3.54,3.54v7.07a3.54,3.54,0,0,1-7.07,0v-7.07A3.53,3.53,0,0,1,147.17,492Z"/><path class="cls-28" d="M191.46,365a3.53,3.53,0,0,1,3.53,3.53v.35a3.54,3.54,0,1,1-7.07,0v-.35A3.54,3.54,0,0,1,191.46,365Zm0,18a3.54,3.54,0,0,1,3.53,3.54v7.07a3.54,3.54,0,0,1-7.07,0v-7.07A3.55,3.55,0,0,1,191.46,383Zm0,24.75a3.53,3.53,0,0,1,3.53,3.53v7.07a3.54,3.54,0,1,1-7.07,0v-7.07A3.54,3.54,0,0,1,191.46,407.79Zm0,24.74a3.53,3.53,0,0,1,3.53,3.54v7.06a3.54,3.54,0,1,1-7.07,0v-7.06A3.54,3.54,0,0,1,191.46,432.53Zm0,24.74a3.53,3.53,0,0,1,3.53,3.54v7.07a3.54,3.54,0,0,1-7.07,0v-7.07A3.54,3.54,0,0,1,191.46,457.27Zm0,24.75a3.53,3.53,0,0,1,3.53,3.53v7.07a3.54,3.54,0,0,1-7.07,0v-7.07A3.54,3.54,0,0,1,191.46,482Z"/><path class="cls-53" d="M92.82,222l5.49-1.29-2.72-11.59-5.49,1.29a32.61,32.61,0,0,0-7.9-11l3-4.8-10.12-6.28-3,4.8A32.36,32.36,0,0,0,61.66,191c-.93,0-1.88,0-2.82,0h-.12l-1.28-5.5-11.59,2.72,1.29,5.49a32.93,32.93,0,0,0-3.25,1.64,32.52,32.52,0,0,0-7.75,6.26l-4.8-3-6.27,10.11,4.79,3a32.69,32.69,0,0,0-2.18,13.37l-5.5,1.28,2.72,11.6,5.49-1.29a32.38,32.38,0,0,0,7.9,11l-3,4.79,10.11,6.28,3-4.8a32.13,32.13,0,0,0,13.36,2.19l1.29,5.5,11.58-2.72-1.28-5.49a35.09,35.09,0,0,0,3.24-1.64,32.32,32.32,0,0,0,7.75-6.26l4.8,3,6.27-10.12-4.79-3A32.45,32.45,0,0,0,92.82,222Zm-20.5,22.36a24.08,24.08,0,0,1-24.15-41.67,24.19,24.19,0,0,1,6.58-2.61,25,25,0,0,1,4.09-.59,24.08,24.08,0,0,1,13.48,44.87Z"/><path class="cls-54" d="M551.45,606.3c-17.81-2.95-34-13.55-41.24-18.93a6.84,6.84,0,0,0-8.16,0c-7.28,5.38-23.43,16-41.24,18.93a6.9,6.9,0,0,0-5.86,6.47c-.7,18.29,1.19,74.32,49.08,90.09a6.88,6.88,0,0,0,4.21,0c47.88-15.77,49.77-71.8,49.07-90.09A6.89,6.89,0,0,0,551.45,606.3Z"/><path class="cls-28" d="M504.69,686.56c-15.91-6.46-26.51-20.08-31.49-40.51a110.54,110.54,0,0,1-3-23.21l-.08-3,2.9-.79a109.49,109.49,0,0,0,31-14.5l2.11-1.39,2.11,1.39a109.49,109.49,0,0,0,31,14.5l2.9.79-.08,3a110.54,110.54,0,0,1-3,23.21c-5,20.43-15.57,34.05-31.49,40.51l-1.44.59Z"/><path class="cls-55" d="M501.91,666.46l-18.59-17.22a4.28,4.28,0,0,1-.23-6h0a4.26,4.26,0,0,1,6-.23l13.23,12.25a2,2,0,0,0,3.05-.35L525,626.06a4.28,4.28,0,0,1,5.94-1.13h0a4.28,4.28,0,0,1,1.13,5.94l-23.74,34.86A4.28,4.28,0,0,1,501.91,666.46Z"/><rect class="cls-56" x="620.49" y="67.2" width="13.05" height="42.68"/><rect class="cls-24" x="646.59" y="51.09" width="13.05" height="58.79"/><rect class="cls-57" x="672.69" y="61.59" width="13.05" height="48.29"/><rect class="cls-56" x="698.79" y="39.89" width="13.05" height="69.99"/><rect class="cls-24" x="724.89" y="20.3" width="13.05" height="89.58"/><rect class="cls-58" x="750.99" width="13.05" height="109.88"/><path class="cls-59" d="M372.73,673.9a5.85,5.85,0,0,1-4.74-2.41l-20.3-27.79a5.87,5.87,0,0,1,.21-7.19l26.53-32.22a5.86,5.86,0,0,1,9.06,7.45l-23.64,28.71,17.62,24.12a5.87,5.87,0,0,1-4.74,9.33Z"/><path class="cls-59" d="M411.7,673.84a5.77,5.77,0,0,1-3.45-1.13,5.86,5.86,0,0,1-1.27-8.2l17.69-24.17-23.55-28.63a5.87,5.87,0,0,1,9.06-7.46l26.44,32.15a5.86,5.86,0,0,1,.2,7.19l-20.38,27.85A5.86,5.86,0,0,1,411.7,673.84Z"/><path class="cls-59" d="M409.74,568.37a16.93,16.93,0,1,1-16.93-16.93A16.93,16.93,0,0,1,409.74,568.37Z"/><polygon class="cls-60" points="399.02 589.16 398.98 605.25 398.94 615.77 386.61 615.74 387.23 590.01 387.41 582.69 399.02 589.16"/><path class="cls-59" d="M374.47,614.37c0-5,4.38-9.88,8.88-12.21,6.72-3.51,17.1-1.07,20.41.9,5.63,3.35,9,10.15,8.59,17.15l.39,37.53H372.89S374.38,625.79,374.47,614.37Z"/><path class="cls-60" d="M401.65,602.11c-4.91-2.07-11.83-2.75-17.42-.35l4.14,4.14a6.71,6.71,0,0,0,9.49,0Z"/><path class="cls-60" d="M396,558.68H389.6c-5.67,0-11,4.65-10.27,10.28.52,4.1,0,7.17,0,13.25,0,5.1,6,15,11.07,15h4.82c5.1,0,11.08-9.89,11.08-15,0-6.08-.52-9.15,0-13.25C407,563.33,401.7,558.68,396,558.68Z"/><path class="cls-61" d="M387.61,588A5.3,5.3,0,0,0,398,588Z"/><path class="cls-56" d="M399.22,693.64H386.41a14.57,14.57,0,0,1-14.29-17.44l.77-18.46h39.85l.77,18.46A14.57,14.57,0,0,1,399.22,693.64Z"/><path class="cls-56" d="M334.5,673.05l54.41-5.19,1.55,16.3-54.41,5.18a8.1,8.1,0,0,1-8.84-7.29v-.17A8.09,8.09,0,0,1,334.5,673.05Z"/><path class="cls-56" d="M443.13,673.05l-54.42-5.19-1.55,16.3,54.41,5.18a8.1,8.1,0,0,0,8.84-7.29l0-.17A8.11,8.11,0,0,0,443.13,673.05Z"/><rect class="cls-28" x="367.55" y="647.94" width="50.53" height="36.17" rx="3.96"/><rect class="cls-62" x="367.55" y="649.61" width="50.53" height="36.17" rx="3.96"/><rect class="cls-28" x="384" y="664.69" width="17.63" height="6.03" rx="2.98"/><path class="cls-28" d="M371.36,700.73l15.86-1-.05.29a1.49,1.49,0,0,0,2.94.49l.16-1,1.78-.11-.07.45a1.49,1.49,0,1,0,2.93.49l.19-1.12,10-.6a3.32,3.32,0,0,0,.62-.32,9.55,9.55,0,0,0,1.16-.33,8.84,8.84,0,1,0-6-16.62l-.1,0-.05,0-31.48,11.39a3.43,3.43,0,0,0-1.32.89C365.32,696.47,367.65,701,371.36,700.73Z"/><g id="_8._Right_shoe" data-name="8. Right shoe"><path class="cls-25" d="M395.6,694.92a8.83,8.83,0,1,1,11.31,5.3A8.83,8.83,0,0,1,395.6,694.92Z"/><path class="cls-25" d="M369.27,695.05l31.48-11.39a6.4,6.4,0,0,1,8.2,3.84h0c1.21,3.33-.49,12.16-3.82,13.37l-33.71,2c-3.71.23-6-4.26-3.47-6.95A3.43,3.43,0,0,1,369.27,695.05Z"/><path class="cls-28" d="M394,697.48h0a1.5,1.5,0,0,1,1.51,1.73l-.56,3.38a1.47,1.47,0,0,1-1.43,1.24h0a1.48,1.48,0,0,1-1.51-1.72l.56-3.38A1.49,1.49,0,0,1,394,697.48Z"/><path class="cls-28" d="M389.22,697.61h0a1.48,1.48,0,0,1,1.5,1.73l-.55,3.38a1.5,1.5,0,0,1-1.43,1.24h0a1.48,1.48,0,0,1-1.51-1.73l.56-3.37A1.48,1.48,0,0,1,389.22,697.61Z"/></g><path class="cls-60" d="M439.81,676.48l-36.76,9.89a6.63,6.63,0,0,0-4.68,8.12l0,.13a6.61,6.61,0,0,0,8.12,4.67l36.76-9.88a6.62,6.62,0,0,0,4.68-8.12l0-.13A6.64,6.64,0,0,0,439.81,676.48Z"/><path class="cls-28" d="M406.26,700.73l-15.86-1,.05.29a1.49,1.49,0,0,1-2.94.49l-.15-1-1.79-.11.08.45a1.49,1.49,0,0,1-2.94.49l-.18-1.12-10-.6a3,3,0,0,1-.61-.32,10.24,10.24,0,0,1-1.17-.33,8.84,8.84,0,0,1,6-16.62l.1,0,.05,0,31.48,11.39a3.43,3.43,0,0,1,1.32.89C412.3,696.47,410,701,406.26,700.73Z"/><g id="_8._Right_shoe-2" data-name="8. Right shoe"><path class="cls-25" d="M382,694.92a8.84,8.84,0,1,0-11.32,5.3A8.85,8.85,0,0,0,382,694.92Z"/><path class="cls-25" d="M408.36,695.05l-31.49-11.39a6.4,6.4,0,0,0-8.2,3.84h0c-1.2,3.33.5,12.16,3.82,13.37l33.71,2c3.72.23,6-4.26,3.47-6.95A3.4,3.4,0,0,0,408.36,695.05Z"/><path class="cls-28" d="M383.6,697.48h0a1.49,1.49,0,0,0-1.5,1.73l.55,3.38a1.49,1.49,0,0,0,1.43,1.24h0a1.48,1.48,0,0,0,1.51-1.72l-.56-3.38A1.48,1.48,0,0,0,383.6,697.48Z"/><path class="cls-28" d="M388.41,697.61h0a1.49,1.49,0,0,0-1.51,1.73l.55,3.38a1.5,1.5,0,0,0,1.43,1.24h0a1.48,1.48,0,0,0,1.51-1.73l-.55-3.37A1.49,1.49,0,0,0,388.41,697.61Z"/></g><path class="cls-60" d="M337.81,676.48l36.76,9.89a6.62,6.62,0,0,1,4.68,8.12l0,.13a6.61,6.61,0,0,1-8.12,4.67l-36.76-9.88a6.63,6.63,0,0,1-4.68-8.12l0-.13A6.62,6.62,0,0,1,337.81,676.48Z"/><path class="cls-59" d="M392.49,551.44c-11.27,0-21,11.87-21,11.87,14,8.59,23.9,2.29,27.3-.49,1-.81,3-2.51,3-4.74Z"/><path class="cls-59" d="M308.28,85.57c-4.09,0-7.39-5.32-7.37-11.84s3.36-11.79,7.45-11.78,7.39,5.32,7.37,11.84S312.37,85.58,308.28,85.57Z"/><path class="cls-59" d="M344.28,91.13c-4.77-2.75-10-9.6-8-15.64C341,61.38,330,56.33,324.51,55.29a16.38,16.38,0,0,0-13.28,2.77c-4.92,3.95-3.45,10.74-.71,16.21-3,1.72-4.41,5.41-2.69,8.16,3.73,6,.51,14-1.71,18.84-3.58,7.7,1.41,17.27,10.09,21.63s20,3.9,28.71,0c4.33-1.94,8.24-4.77,10.21-8.53C359.39,106.26,353.24,96.28,344.28,91.13Z"/><path class="cls-60" d="M284.48,145.12a55.82,55.82,0,0,1-6.52.54,3,3,0,1,1-.17-6c10.61-.29,18.54-3.42,23.59-9.29,7.69-9,6.22-21.43,6.21-21.56a3,3,0,1,1,6-.75c.08.62,1.8,15.27-7.62,26.25C300.91,140.16,293.7,143.79,284.48,145.12Z"/><path class="cls-30" d="M309.88,103.2a5.27,5.27,0,0,0-4.49,5.83c0,.12,1.29,11.71-5.69,19.85-3.42,4-8.39,6.57-14.76,7.77a11.78,11.78,0,0,1,.68,10.51c9.36-1.5,16.78-5.34,22-11.46,10.05-11.72,8.22-27.31,8.14-28A5.26,5.26,0,0,0,309.88,103.2Z"/><path class="cls-60" d="M310.71,108.34a3.33,3.33,0,0,1-.95-5.29,10.59,10.59,0,0,1,7.66-3.41l.78,0a8.4,8.4,0,0,1,6.72,3C323.64,106.54,314.91,110,310.71,108.34Z"/><path class="cls-60" d="M315.83,93.56,315.76,97l-.13,6.41,4.93.09.15-8.2.07-3.18A8.12,8.12,0,0,1,315.83,93.56Z"/><g class="cls-63"><path class="cls-60" d="M315.83,94.38l-.07,3.41a8.58,8.58,0,0,0,5-2.32l.06-2.55A8.19,8.19,0,0,1,315.83,94.38Z"/></g><path class="cls-60" d="M317.05,96.14h0A14.3,14.3,0,0,0,331.2,81.7l-.06-5.62A14.28,14.28,0,0,0,316.7,61.93h0a14.3,14.3,0,0,0-14.15,14.44l.06,5.62a14.29,14.29,0,0,0,14.44,14.15Z"/><path class="cls-25" d="M306.18,142.64a13.57,13.57,0,1,0,16.24-10.22A13.57,13.57,0,0,0,306.18,142.64Z"/><path class="cls-61" d="M316.1,88.71a3.81,3.81,0,0,1-7.5.07Z"/><path class="cls-30" d="M303.5,110.61c-.92,2.56,1.66,5.14,4.36,5.43a4.92,4.92,0,0,0,5.44-4.36c.29-2.7-3.74-8.63-5.26-6.37S304.3,108.42,303.5,110.61Z"/><path class="cls-30" d="M324.92,102.57a8.33,8.33,0,0,1,2,5.05s-1.21,22.28,4.9,32.55l-26,2.17.69-30.84a11.31,11.31,0,0,1,3.23-8.45C309.88,108,320.11,102,324.92,102.57Z"/><path class="cls-24" d="M305.39,206.16a5,5,0,0,0-4.17,3.31c-1.22,3.84-.79,7.87-3.25,14.4-1.68,4.45-3.36,5.36-4.55,9-1,3.11,1.83,4.12,4.65,3,1.1-.43,8.06-2.26,8.19-7.82.09-4.06-.39-7.17.9-10.65s2.4-1.52,2.81-.46c.3.76,1.22,2.94,1.54,3.62a.5.5,0,0,0,.65.26h0a.5.5,0,0,0,.27-.7,24.6,24.6,0,0,1-1.37-7C310.74,208.81,307.78,206.05,305.39,206.16Z"/><path class="cls-60" d="M302.62,225.34c1.45-3.25,3.18-13.24,2.32-15.44-1-2.59-6.41-2.78-6.74-.46-.57,4,1.08,11-2.22,18.47C296.39,229.87,300.93,229.13,302.62,225.34Z"/><path class="cls-59" d="M323.23,157.81l-35.17,16.35,3.33-7.94,13,42.24a4.86,4.86,0,0,1-9.17,3.19l-16-41.2a6.2,6.2,0,0,1,3.07-7.82l.26-.12,35-16.74a6.66,6.66,0,0,1,5.74,12Z"/><path class="cls-24" d="M281.76,192.89a5,5,0,0,0-5.23,1c-2.88,2.83-4.37,6.6-9.59,11.22-3.57,3.15-5.48,3.17-8.22,5.82-2.36,2.27-.3,4.5,2.7,4.85,1.18.13,8.19,1.76,10.89-3.1,2-3.55,3-6.52,5.77-9s2.83-.23,2.7.91c-.1.81-.29,3.17-.33,3.91a.5.5,0,0,0,.45.54h0a.5.5,0,0,0,.57-.48,24.43,24.43,0,0,1,2.06-6.87C285.25,197.73,283.93,193.9,281.76,192.89Z"/><path class="cls-60" d="M270.36,208.56c2.8-2.2,9-10.23,9.26-12.58.31-2.76-4.37-5.45-5.75-3.54-2.37,3.27-4.17,10.22-10.58,15.3C262.74,209.67,267.1,211.12,270.36,208.56Z"/><path class="cls-59" d="M320.76,158.87,282,156.93l6.66-5.47L280.5,194.9a4.86,4.86,0,0,1-9.6-1.45L276,149.53a6.19,6.19,0,0,1,6.36-5.48l.29,0,38.75,1.51a6.66,6.66,0,1,1-.52,13.3Z"/><path class="cls-60" d="M323.92,145.65a47.79,47.79,0,0,1-5,.56,3,3,0,0,1-.39-6c5.61-.37,12.67-1.74,14.47-6.25,2.85-7.12-7-20.08-10.64-24.05a3,3,0,1,1,4.45-4.11c1.71,1.86,16.58,18.49,11.81,30.41C336.66,141.16,331.71,144.34,323.92,145.65Z"/><path class="cls-30" d="M328.47,104.28a5.2,5.2,0,0,0-4.72-1.62,5.29,5.29,0,0,0-3.09,1.73,5.44,5.44,0,0,0,.25,7.14c4.18,4.59,12.27,16.08,10.08,21.57a5.08,5.08,0,0,1-2.17,2.34,5.24,5.24,0,0,0-2.49,5.44s0,.07,0,.1a5.14,5.14,0,0,0,7.52,3.63,15.17,15.17,0,0,0,6.84-7.61C345.88,124.09,331.42,107.47,328.47,104.28Z"/><path class="cls-60" d="M306.07,142.75a7.25,7.25,0,0,0,2.1,4.54l11.05-.91a7.27,7.27,0,1,0-13.15-3.63Z"/><path class="cls-60" d="M268.43,144.1a7.21,7.21,0,0,0,1.91,4.63l11.08-.44a7.27,7.27,0,1,0-13-4.19Z"/><path class="cls-59" d="M333.59,73.23c-1.6,4.57-8.8,6.2-16.08,3.65S305.64,68.56,307.24,64s8.8-6.2,16.07-3.65S335.19,68.67,333.59,73.23Z"/><path class="cls-24" d="M325.94,146.91a1.82,1.82,0,0,0-1.82-1.82H258.25c-1.38,0-2.51.82-2.51,1.82s1.13,1.82,2.51,1.82h65.87a1.81,1.81,0,0,0,1.82-1.82Z"/><path class="cls-28" d="M328.53,146.91a1.91,1.91,0,0,1-2,1.82h-25a1.82,1.82,0,1,1,0-3.64h25A1.91,1.91,0,0,1,328.53,146.91Z"/><rect class="cls-28" x="255.84" y="108.32" width="49.19" height="38.58" rx="2.68"/><rect class="cls-59" x="253.79" y="108.32" width="49.19" height="38.58" rx="2.68"/><path class="cls-28" d="M285.62,127.61h0a2.83,2.83,0,0,0-2.83-2.82H274a2.82,2.82,0,0,0-2.82,2.82h0a2.83,2.83,0,0,0,2.82,2.83h8.81A2.83,2.83,0,0,0,285.62,127.61Z"/><g id="_8._Right_shoe-3" data-name="8. Right shoe"><path class="cls-59" d="M293.93,655.44a8.26,8.26,0,1,1-10.21-5.68A8.27,8.27,0,0,1,293.93,655.44Z"/><path class="cls-59" d="M318.5,657l-30.1,8.59A6,6,0,0,1,281,661.5h0c-.91-3.18,1.25-11.31,4.43-12.22l31.58.29c3.48,0,5.36,4.36,2.79,6.71A3.24,3.24,0,0,1,318.5,657Z"/><path class="cls-28" d="M295.57,653.15h0a1.38,1.38,0,0,1-1.29-1.7l.73-3.12a1.39,1.39,0,0,1,1.41-1.07h0a1.39,1.39,0,0,1,1.3,1.71l-.74,3.12A1.37,1.37,0,0,1,295.57,653.15Z"/><path class="cls-28" d="M300.06,653.34h0a1.38,1.38,0,0,1-1.3-1.7l.74-3.12a1.39,1.39,0,0,1,1.41-1.07h0a1.39,1.39,0,0,1,1.3,1.71l-.74,3.12A1.38,1.38,0,0,1,300.06,653.34Z"/></g><path class="cls-30" d="M276.93,599.7l-.16-.08L233,573.8,219.88,588l45.95,24.36,2.16,9,1.52,6.34c.52,2.12.95,4.21,1.44,6.32l5.66,25.27.33-.06,12.31-11.15-3.2-17.23c-.42-2.16-.79-4.35-1.24-6.48l-1.29-6.43-2.59-12.86A7.9,7.9,0,0,0,276.93,599.7Z"/><g id="_8._Right_shoe-4" data-name="8. Right shoe"><path class="cls-59" d="M190.88,668.56a8.27,8.27,0,1,1-4.2-10.91A8.26,8.26,0,0,1,190.88,668.56Z"/><path class="cls-59" d="M208.71,685.53,180.1,672.81a6,6,0,0,1-3-7.91h0c1.35-3,8.21-7.87,11.24-6.53l24,20.47c2.65,2.26,1.31,6.79-2.16,6.94A3.31,3.31,0,0,1,208.71,685.53Z"/><path class="cls-28" d="M193.6,667.85h0a1.39,1.39,0,0,1,.1-2.14l2.56-1.92a1.39,1.39,0,0,1,1.77.09h0a1.39,1.39,0,0,1-.1,2.14l-2.56,1.91A1.38,1.38,0,0,1,193.6,667.85Z"/><path class="cls-28" d="M196.92,670.87h0a1.39,1.39,0,0,1,.1-2.14l2.57-1.91a1.38,1.38,0,0,1,1.77.08h0a1.39,1.39,0,0,1-.11,2.14L198.69,671A1.39,1.39,0,0,1,196.92,670.87Z"/></g><path class="cls-30" d="M239.14,562.16l-29-3.18c-1.81,2-4,8.39-4.64,11.24a16.94,16.94,0,0,0,12.77,20.23c2.23.5,13.24.67,18.42-4.37C244.24,578.69,239.14,562.16,239.14,562.16Z"/><path class="cls-30" d="M221,577.68h-18.7l7.18,44.48L178,658.91l16.37,4.6,30.1-33.76a7.75,7.75,0,0,0,1.86-6.38Z"/><path class="cls-24" d="M297.41,558.78,254.12,558a5.17,5.17,0,0,1-4.51-2.84l-17-33.74,9.2-4.62,15.57,31,40.18.7Z"/><polygon class="cls-60" points="235.61 490.13 234.3 517.45 221.64 516.85 223.47 490.47 223.99 482.96 235.61 490.13"/><g class="cls-63"><path class="cls-60" d="M225.93,498.75s2.87,7,8.85,8.79l.44-9.16Z"/></g><path class="cls-60" d="M239.74,506.31c.5-.08,1.48-.35,2-.48,4.71-1.3,9.36-9.06,9.18-13.53-.21-5.34-.77-8-.46-11.62.42-5-4.39-8.84-9.36-8.64l-10.08.4a6.86,6.86,0,0,0-6.59,7.13l.66,16.35C225.29,501.75,234,507.23,239.74,506.31Z"/><path class="cls-60" d="M218.93,509.94a7,7,0,0,1,4.74-1.15l5.6.65a16,16,0,0,1,7.29,2.75C230.77,513.88,223.77,513.29,218.93,509.94Z"/><path class="cls-24" d="M210.23,520.7c.25-4.4,4.15-10.34,9-10.92,8.12,1.14,15.41,1.59,18.15,2.24a16.08,16.08,0,0,1,6.82,15.08l-.71,50.54c-15.18,10.71-43,6.41-43,6.41C200.45,562.23,209.73,529.35,210.23,520.7Z"/><path class="cls-24" d="M267,558.49l-35.34.38a5.15,5.15,0,0,1-5.15-4.38l-5.82-38.91,10.18-1.52L236,548.53l30.86-.32Z"/><path class="cls-25" d="M235.9,511.75c-2.32-.55-6.43-.69-13-1.48,3.63,8.51,13.42,15.59,16.32,25.57C240.76,534.18,240.62,515,235.9,511.75Z"/><path class="cls-24" d="M235.49,513.32c-.42-.48-1.77-1.43-1.81-1.93-1.05-.13-.88.26-2.33.13,4,3.66,1.67,9.71,3.23,15.23a30.87,30.87,0,0,1,4.67,9.09c.84-.92,1.16-7.21.49-13.19A20.15,20.15,0,0,0,235.49,513.32Z"/><path class="cls-64" d="M236,514.26a3.44,3.44,0,0,1-3.29.49c-.64-.45-1.27-2.93-1.27-2.93l4.92-.74S236.43,513.63,236,514.26Z"/><path class="cls-59" d="M244.65,482c19.5-4.25,5.46-16.64,5.46-16.64s-.39,4.62-4.17,3.11c-7.23-2.9-22.95-4.72-27.27,4.72-3.37,7.35,2.9,23.44,4.08,27.63,1.95-1.22.31-20.15,8.3-19.36C235.42,481.85,240.38,482.89,244.65,482Z"/><path class="cls-61" d="M241.7,502.24c4-.18,1.42-6.76-.1-6.68S237.71,502.41,241.7,502.24Z"/><polygon class="cls-28" points="228.9 516.5 219 509.92 222.35 506.24 234.13 511.47 228.9 516.5"/><polygon class="cls-28" points="237.13 513.95 236.56 511.76 234.67 509.78 233.86 511.47 237.13 513.95"/><rect class="cls-64" x="250.09" y="537.8" width="40.25" height="10.84"/><polygon class="cls-65" points="309.58 546.21 309.58 540.23 315.25 540.23 315.25 537.8 290.35 537.8 290.35 548.64 315.25 548.64 315.25 546.21 309.58 546.21"/><rect class="cls-66" x="290.35" y="540.23" width="22.51" height="6"/><path class="cls-24" d="M259.64,543.22a2.71,2.71,0,1,1-2.71-2.71A2.71,2.71,0,0,1,259.64,543.22Z"/><path class="cls-28" d="M256.93,546.67a3.45,3.45,0,1,1,3.45-3.45A3.45,3.45,0,0,1,256.93,546.67Zm0-5.42a2,2,0,1,0,2,2A2,2,0,0,0,256.93,541.25Z"/><rect class="cls-25" x="250.09" y="516.12" width="40.25" height="10.84"/><polygon class="cls-56" points="309.58 524.53 309.58 518.55 315.25 518.55 315.25 516.12 290.35 516.12 290.35 526.96 315.25 526.96 315.25 524.53 309.58 524.53"/><rect class="cls-66" x="290.35" y="518.54" width="22.51" height="6"/><path class="cls-24" d="M259.64,521.54a2.71,2.71,0,1,1-2.71-2.71A2.71,2.71,0,0,1,259.64,521.54Z"/><path class="cls-28" d="M256.93,525a3.45,3.45,0,1,1,3.45-3.45A3.46,3.46,0,0,1,256.93,525Zm0-5.42a2,2,0,1,0,2,2A2,2,0,0,0,256.93,519.57Z"/><rect class="cls-30" x="255" y="505.28" width="40.26" height="10.84"/><polygon class="cls-67" points="314.49 513.69 314.49 507.71 320.16 507.71 320.16 505.28 295.26 505.28 295.26 516.12 320.16 516.12 320.16 513.69 314.49 513.69"/><rect class="cls-66" x="295.26" y="507.7" width="22.51" height="6"/><path class="cls-24" d="M264.55,510.7a2.71,2.71,0,1,1-2.71-2.71A2.71,2.71,0,0,1,264.55,510.7Z"/><path class="cls-28" d="M261.84,514.15a3.45,3.45,0,1,1,3.45-3.45A3.46,3.46,0,0,1,261.84,514.15Zm0-5.42a2,2,0,1,0,2,2A2,2,0,0,0,261.84,508.73Z"/><rect class="cls-59" x="241.04" y="526.96" width="40.25" height="10.84"/><polygon class="cls-24" points="300.53 535.37 300.53 529.39 306.2 529.39 306.2 526.96 281.3 526.96 281.3 537.8 306.2 537.8 306.2 535.37 300.53 535.37"/><rect class="cls-66" x="281.3" y="529.38" width="22.51" height="6"/><path class="cls-24" d="M250.59,532.38a2.71,2.71,0,1,1-2.71-2.71A2.71,2.71,0,0,1,250.59,532.38Z"/><path class="cls-28" d="M247.88,535.83a3.45,3.45,0,1,1,3.45-3.45A3.45,3.45,0,0,1,247.88,535.83Zm0-5.42a2,2,0,1,0,2,2A2,2,0,0,0,247.88,530.41Z"/><path class="cls-60" d="M261,553.34a8.83,8.83,0,0,1,1.12-6l13.29-2.23A8.83,8.83,0,1,1,261,553.34Z"/><path class="cls-60" d="M289,550.88a8.75,8.75,0,0,1,1.61-5.86l13.43-1.12a8.73,8.73,0,0,1,2.56,5.52,8.83,8.83,0,1,1-17.6,1.46Z"/><path class="cls-56" d="M787.63,287.66c-1.33-1.93.48-5.14-.65-9-3.4-11.51.59-16.53.59-16.53-.07-4.22,3.48-7.93,8.79-9.88a24.78,24.78,0,0,1,8.41-1.47,23.38,23.38,0,0,1,12,3c3.38,2,5.82,4.92,5.55,8.13-.19,2.27-2.62,5.26-.14,9.09,6.12,9.46,3.46,14.91.21,16.61-3,1.56-6.44,1.68-8.21,2.69C805.17,295.5,792.34,294.48,787.63,287.66Z"/><path class="cls-60" d="M759.34,329.79a56.82,56.82,0,0,1-6.45-1.13,3,3,0,0,1,1.37-5.89c10.33,2.39,18.8,1.37,25.16-3,9.71-6.74,11.43-19.17,11.45-19.29a3,3,0,0,1,3.39-2.61,3,3,0,0,1,2.61,3.39c-.08.62-2.12,15.23-14,23.48C776.49,329.13,768.6,330.83,759.34,329.79Z"/><path class="cls-24" d="M789.45,305.06a8.74,8.74,0,0,0-1.67.17,29.82,29.82,0,0,0,1.34-5A4.81,4.81,0,0,1,793.9,296l.59,0a4.8,4.8,0,0,1,4.13,5.38,38.66,38.66,0,0,1-2.31,8.34A7,7,0,0,0,789.45,305.06Z"/><path class="cls-60" d="M795.14,302.51a3.33,3.33,0,0,1-.95-5.29,10.58,10.58,0,0,1,7.66-3.4l.78,0a8.39,8.39,0,0,1,6.72,2.95C808.07,300.72,799.34,304.12,795.14,302.51Z"/><path class="cls-60" d="M800.26,287.74l-.07,3.41-.13,6.42,4.93.09.15-8.2.07-3.18A8.19,8.19,0,0,1,800.26,287.74Z"/><g class="cls-63"><path class="cls-60" d="M800.26,288.55l-.07,3.42a8.56,8.56,0,0,0,5-2.33l.05-2.54A8.18,8.18,0,0,1,800.26,288.55Z"/></g><path class="cls-60" d="M801.48,290.32h0a14.3,14.3,0,0,0,14.15-14.44l-.06-5.62a14.28,14.28,0,0,0-14.44-14.15h0a14.12,14.12,0,0,0-6.92,1.87A14.29,14.29,0,0,0,787,270.55l.06,5.62a14.3,14.3,0,0,0,14.44,14.15Z"/><path class="cls-68" d="M786.14,336.82c-1.67,7.3,7.38,14.57,14.69,16.23a13.56,13.56,0,0,0,6-26.45C799.54,324.94,787.8,329.51,786.14,336.82Z"/><path class="cls-61" d="M800.54,282.88A3.82,3.82,0,0,1,793,283Z"/><path class="cls-24" d="M787.08,305.83c-.92,2.55,1.65,5.68,4.36,6s6-3.23,6.29-5.94-3.74-8.63-5.26-6.37S787.88,303.64,787.08,305.83Z"/><path class="cls-32" d="M809.35,296.74a8.35,8.35,0,0,1,2,5.06s-4.39,21.28,4.9,32.54c0,0-16.78,10.06-30.25,3.26,0-9.64,5.89-16.3,5-31.93a11.19,11.19,0,0,1,3.23-8.45C794.31,302.2,804.54,296.22,809.35,296.74Z"/><path class="cls-59" d="M791,397.6a4.54,4.54,0,0,0-4.25,2.29c-1.72,3.24-2,6.92-5.21,12.37-2.22,3.71-3.87,4.25-5.51,7.3-1.41,2.62,1,4,3.68,3.45,1-.2,7.57-.73,8.57-5.68.73-3.62,6.59-4.81,6.8-6.11.13-.79-.43-3.34-.11-6.51C795.36,400.82,793.15,397.87,791,397.6Z"/><path class="cls-60" d="M785.45,414.31c1.82-2.68,4.95-11.34,4.54-13.45-.49-2.47-5.29-3.51-6-1.48-1.15,3.49-.79,10-4.94,16.17C779.16,417.38,783.34,417.43,785.45,414.31Z"/><path class="cls-59" d="M716.38,363.84a4.55,4.55,0,0,0,.71-4.77c-1.58-3.32-4.38-5.72-6.8-11.58-1.66-4-1.11-5.64-2.57-8.78-1.25-2.7-3.78-1.6-5,.89-.47,1-3.94,6.5-.57,10.27,2.46,2.74-.09,8.15.83,9.1.55.58,2.93,1.65,5.28,3.81C711.19,365.42,714.87,365.41,716.38,363.84Z"/><path class="cls-60" d="M706.29,349.41c1.06,3,6.13,10.75,8.07,11.68,2.27,1.09,6-2.14,4.74-3.89-2.1-3-7.54-6.61-10-13.62C707.6,342.53,705.06,345.85,706.29,349.41Z"/><path class="cls-30" d="M772,356.37l.24-.11,32-14.71a6,6,0,1,1,5.05,11l-.06,0-27.57,12.29,9.75,33.47-8.38,2.77-14-37.67A5.63,5.63,0,0,1,772,356.37Z"/><path class="cls-60" d="M801.45,338a49.2,49.2,0,0,1-5-.28,3,3,0,1,1,.62-6c5.58.57,12.78.39,15.31-3.76,4-6.55-3.55-21-6.5-25.49a3,3,0,0,1,5.06-3.3c1.38,2.11,13.28,21,6.6,31.94C814.76,335.71,809.35,338,801.45,338Z"/><path class="cls-56" d="M817.19,271.81s-10.13,3.63-16.46-.78-9.22-11.19-6.46-15.16,10.14-3.63,16.47.77S817.19,271.81,817.19,271.81Z"/><path class="cls-30" d="M804.58,340.13s-5.6.14-14,.49l-14.35.68-16.45,1-2.1.12-.52,0H757l-.59.06-.26,0-1,.16-2.07.31-.13,0-.51.09-.06,0-.25.06-.51.12-1,.25-7.87,1.95c-2.55.65-5,1.22-7.36,1.85l-6.57,1.73c-4.07,1.05-7.45,2-9.82,2.67l-3.71,1.07,1.69,7.59,3.82-.62c2.42-.42,5.89-1,10-1.75l6.68-1.23c2.38-.42,4.86-.95,7.45-1.46l7.95-1.58,1-.2.5-.1.26-.06h.06l-.41.08h.16l2.08-.24,1-.13.26,0h0l-.42,0h.2l.53,0,2.1-.08,16.46-.64,14.35-.73c8.4-.48,14-.89,14-.89Z"/><path class="cls-24" d="M802.74,343.7a1.81,1.81,0,0,0-1.82-1.82H735.05c-1.38,0-2.51.81-2.51,1.82s1.13,1.81,2.51,1.81h65.87a1.81,1.81,0,0,0,1.82-1.81Z"/><path class="cls-28" d="M805.33,343.7a1.89,1.89,0,0,1-2,1.81h-25a1.82,1.82,0,1,1,0-3.63h25A1.89,1.89,0,0,1,805.33,343.7Z"/><rect class="cls-28" x="732.64" y="305.11" width="49.19" height="38.58" rx="2.68"/><rect class="cls-59" x="730.59" y="305.11" width="49.19" height="38.58" rx="2.68"/><path class="cls-28" d="M762.42,324.4h0a2.83,2.83,0,0,0-2.83-2.83h-8.8A2.83,2.83,0,0,0,748,324.4h0a2.83,2.83,0,0,0,2.83,2.82h8.8A2.83,2.83,0,0,0,762.42,324.4Z"/><path class="cls-24" d="M814.37,304.55a6.92,6.92,0,0,0-6.8,4.59,54.57,54.57,0,0,0-3.16-5.68,4.79,4.79,0,0,1,4-7.41,4.77,4.77,0,0,1,4,2.17,68.16,68.16,0,0,1,3.72,6.52A8.47,8.47,0,0,0,814.37,304.55Z"/><path class="cls-60" d="M783.36,332.37a7.26,7.26,0,0,0-.33,5l10.18,4.5a7.29,7.29,0,1,0-9.85-9.51Z"/><path class="cls-30" d="M576.3,132.67H540.09a4.25,4.25,0,0,1-3.38-1.67L516,103.72l6.76-5.14,19.48,25.6H576.3Z"/><path class="cls-24" d="M554.14,174.18s.61-1.3,1.63-3.57,2.5-5.52,4.19-9.45,3.66-8.51,5.7-13.44c1-2.47,2.07-5,3.13-7.62l.4-1,.2-.49a8.63,8.63,0,0,0,.4-1.2,8.25,8.25,0,0,0-10.44-9.94l-.13,0h0l-.51.19-.07,0-.25.1-.49.19-2,.77c-5.31,2.06-10.61,4.14-15.57,6.13l-7.13,2.89-6.37,2.64c-3.94,1.63-7.2,3.07-9.5,4s-3.58,1.57-3.58,1.57a6.82,6.82,0,0,0,5.16,12.61l3.66-1.39c2.32-.92,5.64-2.18,9.6-3.78l6.39-2.59,7.12-2.94c2.42-1,4.93-2.06,7.46-3.14-1.5,4.42-2.87,8.57-4,12.19-1.33,4.06-2.35,7.48-3.11,9.85s-1.13,3.76-1.13,3.76a5,5,0,0,0,9.3,3.52Z"/><g id="_8._Right_shoe-5" data-name="8. Right shoe"><path class="cls-25" d="M553.67,175.73a6.82,6.82,0,1,1-.14-9.65A6.83,6.83,0,0,1,553.67,175.73Z"/><path class="cls-25" d="M562.66,194l-18.55-18a4.94,4.94,0,0,1-.1-7h0c1.9-2,8.61-3.77,10.57-1.87l12.8,22.71c1.41,2.5-.92,5.63-3.65,4.76A2.77,2.77,0,0,1,562.66,194Z"/><path class="cls-28" d="M557.74,176.08h0a1.15,1.15,0,0,1,1.29-1.21l2.62.34a1.14,1.14,0,0,1,1,1.07h0a1.15,1.15,0,0,1-1.29,1.21l-2.62-.34A1.14,1.14,0,0,1,557.74,176.08Z"/><path class="cls-28" d="M558,179.78h0a1.15,1.15,0,0,1,1.3-1.21l2.62.34a1.14,1.14,0,0,1,1,1.07h0a1.15,1.15,0,0,1-1.29,1.21l-2.62-.34A1.16,1.16,0,0,1,558,179.78Z"/><path class="cls-24" d="M551.71,173.83a4.09,4.09,0,1,1-.08-5.78A4.09,4.09,0,0,1,551.71,173.83Z"/></g><path class="cls-24" d="M515,86.83l-.76,5.63-1.24-.4a2.28,2.28,0,0,1-1.58-2.17h0a2.27,2.27,0,0,0-.8-1.73l-3.17-3.24A9.17,9.17,0,0,1,504.93,80a5.33,5.33,0,0,1,.78-4.09c1.25-1.63-3.43-7.23,0-9.85a15.17,15.17,0,0,0,4.4-4.76c3-6.08,7.41-5.6,10.51-3.41,2.76,1.94,4-2,9.39-1.33,4.23.53,5.92,3.55,5.57,6.06,0,0,7.21.28,7.21,8.34s-8.51,9-8.51,9Z"/><polygon class="cls-60" points="523.76 80.79 522.57 94.39 521.78 103.28 511.36 102.37 513.74 80.67 514.41 74.49 523.76 80.79"/><g class="cls-63"><path class="cls-60" d="M515.49,87.58v2.17a15,15,0,0,0,7.08,4.64l.6-6.81Z"/></g><path class="cls-60" d="M526.59,93.94h1.69c3.69,0,8-7.17,8-10.86,0-4.41-.37-6.63,0-9.6C536.81,69.4,533,66,528.86,66h-8.33a5.66,5.66,0,0,0-5.66,5.67V85.22C514.87,90,521.77,93.94,526.59,93.94Z"/><path class="cls-24" d="M527.62,66s.75,6.15-9.63,5.78c0,0,.3,12.14-5.16,13l-1-4.09s-2.25-13.32,2.79-15.57S527.62,66,527.62,66Z"/><path class="cls-60" d="M509.35,96.58a5.76,5.76,0,0,1,3.95-.79l4.6.72A13.18,13.18,0,0,1,523.82,99C519,100.22,513.23,99.51,509.35,96.58Z"/><path class="cls-30" d="M502.08,104.75c.39-3.62,3.76-7.1,7.27-8.17,3.88,2.93,9.64,3.64,14.47,2.44A13.25,13.25,0,0,1,529,111.68l-4.88,27.52-23.63-3S501.19,113,502.08,104.75Z"/><path class="cls-24" d="M593.87,183.57s-1-1.07-2.66-2.91-4.13-4.46-7.11-7.56-19.31-19.67-19.31-19.67l-.37-.33c-.25-.22-.51-.43-.77-.63a15.39,15.39,0,0,0-1.66-1.1,14.57,14.57,0,0,0-3.72-1.47c-.33-.08-.65-.14-1-.2-.15,0-27.89-2.62-30.28-3.2-4.21-1-2.65-8.95-2.65-8.95L500.51,134c-1.55,1.62-3.56,6.78-4.19,9.11a14,14,0,0,0,15.28,17.47l3,.25c2.5.18,6.06.49,10.34.77l6.9.44,7.72.45,8.25.42,7.37.32a2.61,2.61,0,0,1,.27.06l.14.06.06,0,0,0,0,0,.09.07,3.15,2.86,6.15,5.52c4,3.57,7.76,6.87,11,9.68s6,5.09,7.9,6.72,3,2.52,3,2.52a5,5,0,0,0,6.85-7.2Z"/><g id="_8._Right_shoe-6" data-name="8. Right shoe"><path class="cls-25" d="M597.89,186.66a6.83,6.83,0,1,1-8.63-4.32A6.84,6.84,0,0,1,597.89,186.66Z"/><path class="cls-25" d="M618.21,187.11l-24.54,8.14a5,5,0,0,1-6.25-3.14h0c-.86-2.59.64-9.37,3.23-10.23L616.7,181c2.88-.09,4.58,3.42,2.54,5.44A2.64,2.64,0,0,1,618.21,187.11Z"/><path class="cls-28" d="M599.16,184.72h0a1.15,1.15,0,0,1-1.13-1.37l.49-2.59a1.16,1.16,0,0,1,1.13-.93h0a1.14,1.14,0,0,1,1.13,1.36l-.5,2.6A1.14,1.14,0,0,1,599.16,184.72Z"/><path class="cls-28" d="M602.86,184.72h0a1.15,1.15,0,0,1-1.12-1.37l.49-2.59a1.16,1.16,0,0,1,1.13-.93h0a1.14,1.14,0,0,1,1.13,1.36l-.5,2.6A1.15,1.15,0,0,1,602.86,184.72Z"/><path class="cls-24" d="M595.29,187.52a4.09,4.09,0,1,1-5.17-2.59A4.09,4.09,0,0,1,595.29,187.52Z"/></g><path class="cls-61" d="M524.4,87.3a3.84,3.84,0,0,0,7.54,0Z"/><polygon class="cls-28" points="579.09 92.88 527.96 127.21 524.36 125.48 528.12 88.84 555.14 95.45 560.86 95.45 575.64 89.27 579.09 92.88"/><polygon class="cls-24" points="576.49 129.08 558.72 135.69 553.19 135.69 527.96 129.08 531.72 92.45 556.96 99.06 562.48 99.06 580.25 92.45 576.49 129.08"/><polygon class="cls-64" points="558.72 135.69 553.19 135.69 556.96 99.06 562.48 99.06 558.72 135.69"/><path class="cls-24" d="M558.33,130.7a1.85,1.85,0,1,1-1.85-1.85A1.85,1.85,0,0,1,558.33,130.7Z"/><path class="cls-28" d="M556.48,132.94a2.25,2.25,0,1,1,2.24-2.24A2.25,2.25,0,0,1,556.48,132.94Zm0-3.7a1.46,1.46,0,1,0,1.46,1.46A1.47,1.47,0,0,0,556.48,129.24Z"/><path class="cls-60" d="M578.52,135.63a7.28,7.28,0,0,1-4.39-2.44l1.72-11a7.29,7.29,0,1,1,2.67,13.43Z"/><path class="cls-30" d="M515.25,136.94a4.24,4.24,0,0,1-4.24-4.12l-.94-32.47,8.49-.24.81,28.08,20.79-1.29.52,8.49-25.17,1.54Z"/><rect class="cls-69" x="509.94" y="104.8" width="1.22" height="26.22" transform="translate(-5.41 26.53) rotate(-2.96)"/><polygon class="cls-69" points="518.86 120.48 518.03 105.03 519.47 104.74 520.29 120.2 518.86 120.48"/><path class="cls-60" d="M542.77,123.88a7.31,7.31,0,0,1,4.84,1.32l.94,11.09a7.29,7.29,0,1,1-5.78-12.41Z"/><path class="cls-60" d="M144.45,421.31c-.64-1.71-15.8-42.22-15.8-67h9c0,23.15,15.08,63.44,15.23,63.85Z"/><path class="cls-60" d="M105,388,89.87,362.76a4.49,4.49,0,0,1,1.77-6.29l24.21-12.73,4.18,8-20,10.53,12.64,21.18Z"/><path class="cls-24" d="M148.62,263.27s-5.94-7.17-8.62-9.48c-4.92-4.22-9,.45-9,.45-24.47-3.76-29.07,31.19-17.92,39.91,9,7.05,16.57,2.19,16.57,2.19a31.43,31.43,0,0,0,12.9,5c4.84.74,10.67-2.43,10.67-2.43s6.83,4.88,12.06-2.34-2.5-14.88-6.62-14.95c0,0,4.93-5.93-1.82-9.87C154.19,270.2,148.62,263.27,148.62,263.27Z"/><path class="cls-60" d="M118.35,306.7a3.54,3.54,0,0,1-1-5.62,11.2,11.2,0,0,1,8.14-3.62l.83,0a8.93,8.93,0,0,1,7.14,3.14C132.08,304.79,122.81,308.41,118.35,306.7Z"/><path class="cls-60" d="M123.3,291l-.07,3.63-.13,6.82,5.23.09.16-8.71.07-3.38A8.59,8.59,0,0,1,123.3,291Z"/><g class="cls-63"><path class="cls-60" d="M123.3,291l-.07,3.63a9.09,9.09,0,0,0,5.28-2.47l.05-2.71A8.59,8.59,0,0,1,123.3,291Z"/></g><path class="cls-60" d="M120.38,291h0a15.21,15.21,0,0,0,20.4-6.74l2.68-5.34a15.18,15.18,0,0,0-6.74-20.39h0a15.19,15.19,0,0,0-20.4,6.74l-2.68,5.33a15.19,15.19,0,0,0,6.74,20.4Z"/><path class="cls-24" d="M137.16,275.27c-10.9,1.78-12.1-10-11.48-14.81,1.3-10.11,14.5-8.16,19.12-3.13a26.06,26.06,0,0,1,5.76,22.05c-2.2,10.48-12.9,17-12.9,17-11.76-8.62.39-16.88.39-16.88Z"/><path class="cls-25" d="M113.54,343.14a14.41,14.41,0,1,0,17.25-10.85A14.4,14.4,0,0,0,113.54,343.14Z"/><path class="cls-61" d="M121.58,282.73a4.06,4.06,0,0,1-7.13-3.59Z"/><path class="cls-32" d="M102.91,350.46c19,16.51,42.66,24.61,42.66,24.61s4-24.16-4.88-34.63c-4.48-5.26-27.52,2.38-27.52,2.38Z"/><path class="cls-25" d="M110.7,309.11c-1,2.72,1.75,5.46,4.63,5.78a5.24,5.24,0,0,0,5.77-4.64c.31-2.87-4-9.16-5.59-6.77S111.54,306.79,110.7,309.11Z"/><path class="cls-32" d="M133.45,300.57a8.82,8.82,0,0,1,2.12,5.36s-1.29,23.68,5.2,34.59c2.8,4.69-27.67,4.55-27.67,4.55l.81-35a12,12,0,0,1,3.43-9C117.47,306.36,128.33,300,133.45,300.57Z"/><path class="cls-32" d="M128.86,309.2c-5.41,0-41.9-1.71-62.19-46.69l8.2-3.7c18.92,41.92,52.85,41.44,54.3,41.39l.31,9Z"/><path class="cls-60" d="M74.63,251.59a7.71,7.71,0,0,0-5.21-1.06l-6.19,10a7.73,7.73,0,1,0,11.4-9Z"/><path class="cls-24" d="M106.77,390.46a5.87,5.87,0,1,0,4-7.29A5.86,5.86,0,0,0,106.77,390.46Z"/><path class="cls-24" d="M92.66,400.77l21.3-6.33a4.24,4.24,0,0,0,2.87-5.28h0c-.67-2.26-5.06-6.3-7.31-5.63l-18.8,12.2a2.79,2.79,0,0,0,.89,5.08A2.32,2.32,0,0,0,92.66,400.77Z"/><path class="cls-24" d="M145,426.3a5.87,5.87,0,1,0,1.05-8.22A5.86,5.86,0,0,0,145,426.3Z"/><path class="cls-24" d="M135.58,441l17.57-13.59a4.26,4.26,0,0,0,.77-6h0c-1.44-1.86-7-4-8.85-2.61L132,437a2.78,2.78,0,0,0,2.66,4.41A2.23,2.23,0,0,0,135.58,441Z"/><path class="cls-28" d="M122.73,342.18a35.38,35.38,0,0,1-7.41-.79l.28-1.26a34.11,34.11,0,0,0,22-2.66l.63,1.12A33.85,33.85,0,0,1,122.73,342.18Z"/><rect class="cls-59" x="172.1" y="421.57" width="2.01" height="14.49"/><rect class="cls-59" x="148.64" y="437.5" width="2.01" height="23.05"/><rect class="cls-59" x="162.95" y="429.29" width="2.01" height="19.81"/><rect class="cls-59" x="162.95" y="404.92" width="2.01" height="11.49"/></g></g></svg>