<svg xmlns="http://www.w3.org/2000/svg" xmlns:xlink="http://www.w3.org/1999/xlink" viewBox="0 0 2025.1 1109.17"><defs><style>.cls-1{isolation:isolate;}.cls-2{fill:#a1a7ff;mix-blend-mode:color-dodge;}.cls-3{fill:url(#linear-gradient);}.cls-4{fill:url(#linear-gradient-2);}.cls-5{fill:url(#linear-gradient-3);}.cls-6{fill:url(#linear-gradient-4);}.cls-7{fill:url(#linear-gradient-5);}.cls-8{fill:url(#linear-gradient-6);}.cls-9{fill:url(#linear-gradient-7);}.cls-10{fill:url(#linear-gradient-8);}.cls-11{fill:url(#linear-gradient-9);}.cls-12{fill:url(#linear-gradient-10);}.cls-13{fill:url(#linear-gradient-11);}.cls-14{fill:url(#linear-gradient-12);}.cls-15{fill:url(#linear-gradient-13);}.cls-16{fill:url(#linear-gradient-14);}.cls-17{fill:url(#linear-gradient-15);}.cls-18{fill:url(#linear-gradient-16);}.cls-19{fill:url(#linear-gradient-17);}.cls-20{fill:url(#linear-gradient-18);}.cls-21{fill:url(#linear-gradient-19);}.cls-22{fill:url(#linear-gradient-20);}.cls-23{fill:url(#linear-gradient-21);}.cls-24{fill:url(#linear-gradient-22);}.cls-25{fill:url(#linear-gradient-23);}.cls-26{fill:url(#linear-gradient-24);}.cls-27{fill:url(#linear-gradient-25);}.cls-28{fill:url(#linear-gradient-26);}.cls-29{fill:url(#linear-gradient-27);}.cls-30{fill:url(#linear-gradient-28);}.cls-31{fill:url(#linear-gradient-29);}.cls-32{fill:url(#linear-gradient-30);}.cls-33{fill:url(#linear-gradient-31);}.cls-34{fill:url(#linear-gradient-32);}.cls-35{fill:url(#linear-gradient-33);}.cls-36{fill:url(#linear-gradient-34);}.cls-37{fill:url(#linear-gradient-35);}.cls-38{fill:url(#linear-gradient-36);}</style><linearGradient id="linear-gradient" x1="575.39" y1="923.18" x2="677.07" y2="923.18" gradientUnits="userSpaceOnUse"><stop offset="0" stop-color="#334195"/><stop offset="1" stop-color="#26286b"/></linearGradient><linearGradient id="linear-gradient-2" x1="592.59" y1="915.42" x2="659.87" y2="915.42" xlink:href="#linear-gradient"/><linearGradient id="linear-gradient-3" x1="598.54" y1="875.67" x2="653.92" y2="875.67" xlink:href="#linear-gradient"/><linearGradient id="linear-gradient-4" x1="652.66" y1="809.44" x2="754.33" y2="809.44" xlink:href="#linear-gradient"/><linearGradient id="linear-gradient-5" x1="669.85" y1="801.68" x2="737.13" y2="801.68" xlink:href="#linear-gradient"/><linearGradient id="linear-gradient-6" x1="675.8" y1="761.93" x2="731.18" y2="761.93" xlink:href="#linear-gradient"/><linearGradient id="linear-gradient-7" x1="1332.74" y1="686.55" x2="1434.41" y2="686.55" xlink:href="#linear-gradient"/><linearGradient id="linear-gradient-8" x1="1349.94" y1="678.78" x2="1417.21" y2="678.78" xlink:href="#linear-gradient"/><linearGradient id="linear-gradient-9" x1="1355.88" y1="639.04" x2="1411.27" y2="639.04" xlink:href="#linear-gradient"/><linearGradient id="linear-gradient-10" x1="1474.01" y1="759.56" x2="1575.69" y2="759.56" xlink:href="#linear-gradient"/><linearGradient id="linear-gradient-11" x1="1491.21" y1="751.79" x2="1558.49" y2="751.79" xlink:href="#linear-gradient"/><linearGradient id="linear-gradient-12" x1="1497.16" y1="712.05" x2="1552.54" y2="712.05" xlink:href="#linear-gradient"/><linearGradient id="linear-gradient-13" x1="992.69" y1="479.08" x2="1094.37" y2="479.08" xlink:href="#linear-gradient"/><linearGradient id="linear-gradient-14" x1="1009.89" y1="471.31" x2="1077.17" y2="471.31" xlink:href="#linear-gradient"/><linearGradient id="linear-gradient-15" x1="1015.84" y1="431.57" x2="1071.22" y2="431.57" xlink:href="#linear-gradient"/><linearGradient id="linear-gradient-16" x1="875.83" y1="371.05" x2="977.5" y2="371.05" xlink:href="#linear-gradient"/><linearGradient id="linear-gradient-17" x1="893.03" y1="363.28" x2="960.3" y2="363.28" xlink:href="#linear-gradient"/><linearGradient id="linear-gradient-18" x1="898.97" y1="323.54" x2="954.36" y2="323.54" xlink:href="#linear-gradient"/><linearGradient id="linear-gradient-19" x1="1211.86" y1="599.43" x2="1313.53" y2="599.43" xlink:href="#linear-gradient"/><linearGradient id="linear-gradient-20" x1="1229.06" y1="591.67" x2="1296.33" y2="591.67" xlink:href="#linear-gradient"/><linearGradient id="linear-gradient-21" x1="1235" y1="551.92" x2="1290.39" y2="551.92" xlink:href="#linear-gradient"/><linearGradient id="linear-gradient-22" x1="1746.16" y1="934.5" x2="1847.84" y2="934.5" xlink:href="#linear-gradient"/><linearGradient id="linear-gradient-23" x1="1763.36" y1="926.74" x2="1830.64" y2="926.74" xlink:href="#linear-gradient"/><linearGradient id="linear-gradient-24" x1="1769.31" y1="886.99" x2="1824.69" y2="886.99" xlink:href="#linear-gradient"/><linearGradient id="linear-gradient-25" x1="474.33" y1="672.31" x2="576.01" y2="672.31" xlink:href="#linear-gradient"/><linearGradient id="linear-gradient-26" x1="491.53" y1="664.55" x2="558.81" y2="664.55" xlink:href="#linear-gradient"/><linearGradient id="linear-gradient-27" x1="497.48" y1="624.8" x2="552.86" y2="624.8" xlink:href="#linear-gradient"/><linearGradient id="linear-gradient-28" x1="322.9" y1="504.05" x2="424.57" y2="504.05" xlink:href="#linear-gradient"/><linearGradient id="linear-gradient-29" x1="340.1" y1="496.28" x2="407.37" y2="496.28" xlink:href="#linear-gradient"/><linearGradient id="linear-gradient-30" x1="346.04" y1="456.54" x2="401.42" y2="456.54" xlink:href="#linear-gradient"/><linearGradient id="linear-gradient-31" x1="411.23" y1="419.92" x2="512.91" y2="419.92" xlink:href="#linear-gradient"/><linearGradient id="linear-gradient-32" x1="428.43" y1="412.15" x2="495.71" y2="412.15" xlink:href="#linear-gradient"/><linearGradient id="linear-gradient-33" x1="434.38" y1="372.41" x2="489.76" y2="372.41" xlink:href="#linear-gradient"/><linearGradient id="linear-gradient-34" x1="196.7" y1="461.98" x2="298.37" y2="461.98" xlink:href="#linear-gradient"/><linearGradient id="linear-gradient-35" x1="213.9" y1="454.22" x2="281.17" y2="454.22" xlink:href="#linear-gradient"/><linearGradient id="linear-gradient-36" x1="219.85" y1="414.47" x2="275.23" y2="414.47" xlink:href="#linear-gradient"/></defs><title>Map</title><g class="cls-1"><g id="Layer_1" data-name="Layer 1"><path class="cls-2" d="M183.76,241.06c4,0,4.51,1.45,8,0s13.61-8.17,17.05-9.09,5.65.31.58,3.13-15.26,8.94-13.44,8.48,7-2.67,14.26-6.11,6.64-1.91,8.52-5.57l2.87-5.58s11.57,11.84,12.63,12.3,1.49-.08,2.05-1.53,1.8-3.51,3.45-2.82.24,3.51,1.22,3.89,2.63-.08,5.65-1.07,1.49-3.2,1.49-3.2-.33-.08,3.2-.39,14.59,3.74,17.87,5,13.2,2.37,16,3.28,3.84-1.59,7.7.46,6.73,4.81,3.85,6.26-10.08,2.52-6.39,3.44a57,57,0,0,0,14.6,1.91c5.33-.15,14.92-2.14,17.86-2.14s4.76,1.83,7.56,6.49,5,6.49,6.05,6.87-1.06-2.21-.49-4.5-.57-6.8-1.22-8.33,0-2.28-1.32-4.5-3.44-1.83.49-3.74,6.65-4.73,11.41-4.13,6,6.65,10.17,7.1,4.84,2.07,11.88,2.6,4.11.08,12,.62,5-.85,6.63-4.89,3.45-4.81,5.34-4.66,8.52,1.06,8.52,1.91-2.79,5.19-1.4,7.33,7.07,5.65,7.07,5.65-1.23-4.89-1.23-5.42-.42-4.35.4-5,5.5.38,8.45-5.35-2-5.42-2-5.42-1.8.08-.91-2.29,6.16-3.82,6.16-3.82.33,1.07-.34-.84-4.09-1.52-7.78-1.75-6.23-.77-6.89-3.9-.9-9.69-.9-14.2,3.61-2.9,4.26-5.42-.16-14.81-1.06-17.33,1.3-7.95,1.81-11.53,4.18-2,4.18-2c-.67-1.22,1.05-4.66,6-6.11s14.28.07,14.28.07-.84.08-3.13,3.06-.81,8.25-4.27,12-12.22,2.52-12.22,2.52S413,189,411.79,191a24.36,24.36,0,0,0-1.87,6s7.7,2.14,8.12,7,4.25,5.73,5.16,10.23-3.78,8.25-2.8,8.93,1.31,1,4.11,1.15,6.56.69,6.56.69a4.7,4.7,0,0,0-.17,4.73c1.4,2.44.33,4,.49,6.57s1.73,4.81,2.38,4.35,3.69-7.1,4.35-10.08,1.14-4.58,2.45-4.58,5.74,4,6.23,5.5.83,3.44-1.63,7.41-2.22,5.79-.09,7.32,2.23,1.07,6.08,2.91,3.11,1.67,5.49,1-1-6.72-.75-6.87,5.67-.77,4.44-3.82-2.46-4.58.07-6.11,4.36-2.75,4.36-2.75c-1.07-1.91-1.4-2.06-3.2-7.18s1.55-3.74,8.62-3.21,7.37,3,11.15,4.89,1.38,2.6,2.6,5.65-3.11,3.52-3.11,3.52-2.87.53-2.2,2.9a41.35,41.35,0,0,0,4,8.85c2.05,3.67-.58,6.19-3.78,9.16s-7,3.83-10.74,3.9-5.41,1.61-5.65.53-2.07-2.06-4.1-1.6-6.73,2.29-5.09,2.9,6,.46,4.18,3.82-3.37,3.37-7,3-7-.38-9.27-.54-13.61-.83-13.61-.83,7.64,4.65,13.71,6.56a29.53,29.53,0,0,0,12.46.76s-2.46,4.59-5.42,9.48-5.74,2.75-8.19,3.05-3.94,2.29-8.52,2.9-14.19-1.3-12.72-.61,2.13,1.91,4.76,2.29a11.24,11.24,0,0,1,6.56,2.75c2.29,1.91-1.49,2.37-4.51,2.9s-3.85,1.07-5.25,3-6.56,9.31-8.21,11.61a25.14,25.14,0,0,0-3.76,10.61c-.66,4.5-4.51,9.92-2.78,11.07s8.19,1.3,10.9,3,5.74,9.92,7.78,13.05,3.69,5.5,6,3.06,6.8-1.84,11.07-.31,12.95,7.56,15.66,10.23,7.46,2.22,12.79,3,5.93,2.78,5.93,2.78,5.55.28,3.26,2.65-3,.07-.67,4,2.22,9.32,1.57,12,7.34,1.32,10.72,3.31,3.54,10.05,5.27,9.06,4.59-2.75,4.92-4.88-.09-5-.42-8.63-1.22-10.39-3-13.06,3.24-3.74,2.42-4.89-.62-3.43,2.82-4.35,3.7-.08,5.57-1.53,2.22-8.24,2.54-10.69a26.33,26.33,0,0,0-1.39-9.69c-.81-2-4.18-8.33-5.4-9.71s-2.78-1.75.57-6,1.39-3.36.9-4.66-1.23-4.51-1.88-7.41,1.38-6.11.16-10.24-2.53-3.2-2.29-4.11,8-.69,13.77-.08,8-.61,9.67-.61,4.6,1.6,7.79,3.66,4.43,1.53,6.07,4.05,2.54,3.89,5.9,3.74a18.2,18.2,0,0,1,7,1.45s-2.38,1.38-2,5.89-.5,7.78-.41,9.61,1,1.91,2.53,2.14,5.76,4,10.08,5.5,5.5,1.07,6.9-2.45,1.73-3.2,3.44-3.43,2.29.38,3-.38-1.31-2.29-.82-4.73,2.87-5.66,4.84-7.49,3.36,1.83,5.09,5.19,7.7,14.28,9.43,17.87,3.94,3.82,1.88,7.18-3,4.81.17,6.33,6.07,4.21,5.83,6.73-.91,2.59.16,3.28,4.91-1.38,7.71-.15,6.14,2.37,8.12,4.35,1.8,2.67-1,3.66a48.8,48.8,0,0,0-7,2.83c-1.4.84-3.61,2.44-3.54,3.74s-.57,3.43,1.65,1.75a29.72,29.72,0,0,1,8.45-4.12c2.62-.76.65-.07,3-.38s4.67,1.15,8,2.06,2.38,3,1.55,4.89-1.55,3.74-.24,5.88-.58,4-3.45,6.64-5,3-9.67,3.59-6.9,3.43-10.17,6.49-4.92,2.29-9.67,2.52-2.87-2.37-4.34-1.83-3.36,2.14-6.4,2.44-13.3.46-17.24,1.61-2.69,3.81-3.67,6-2.56,1.3-5.5,2.29-6.49,5.34-9.92,11.3a37.13,37.13,0,0,1-8.12,9.62,25.69,25.69,0,0,0,8.19-6.11c2.38-2.9,12.3-9.77,15.35-11.91s9.59-5.27,11.14-4.81,5.42,3.44,5.42,5-1.15,2.75-3.93,5.35-6.49,0-6.25,1.06a7.2,7.2,0,0,0,4.36,4.05c2.13.54,2,3.13,2,4.43s-1.23,3,3.69,7.1,8.38,4.43,12,4.2,1.72,1.22,3.21,1.07,1.8-3,2.29-5.27,1.31-4.43,2.62-5.42,2.3-2.82,2.71.69-1.48,8.32-3.37,9.39-1.47,2.44-1.47,3.51-2.14,1.15-7.22,4-6.72,3.5-7.62,3.12-2.79.46-5.25,2.68-5.07,5.19-6.87,5.11-3.38-.84-.91-3.36,3.29-6,5.74-7.25a10,10,0,0,1,5.65-1.07c2,0,1.06-1.22,2.71-2.44s-1.24-.85-4-1.3-.65-2.9-.65-2.9l-2.89,1.53s-4.34,2.28-5.49,2.44-.9.91-1.23,1.37-4.42.76-4.42.76-2.14,4.35-5.34,5-1,.38-3.27,1.37-1.88-1.14-2.38-.53a15.6,15.6,0,0,1-3.43,3.05c-2.55,1.91-4,2.52-5.83,9.47s.32,9.47.25,10.54-3.2-.69-4.1.15-3,3.44-5.67,4.2-8,2.14-9.27,3.44-1.31,3.13-1.89,5.8-3.76,8.94-3.76,8.94a4.31,4.31,0,0,0-1.48-4.36c-2.21-1.83-1.88-3.51-1.88-3.51a11.33,11.33,0,0,0,.34,5.11c.81,2.6,2.45,5.2,1.71,8s-2.13,6.34-3.85,7.33.4-1.9.4-4.19-1.14-2.45-1.89-3.59-.73-4.05.58-8-1.22-1.52-2.71,1.07-2.52,7.41-.25,10.54-1.46,2.82.09,7.33-1.87,6.72-1.24,7.41,2.47-.31,3.29,1.91-1.63,1.22-2.45,1.83-.42,1.45.07,2.67,1.49.46,1.07.84a8.73,8.73,0,0,1-3.69,2.6c-2.12.68-2.3-.39-3.61,1.14s-2.29,2.9-3.69,4.66-2.36,1.15-3.85,2.37-2.05,2.21-3.87,3.74-5.89,3.89-8.1,6.87-1.64,3.74-2.71,8.56,2.71,13.2,5.09,21.15,3.36,5.72,3,8.24a13.65,13.65,0,0,1-3.13,7.33c-1.7,1.76-2.68-1.22-5.06-3s-.5-3-2.8-6.64-2.13-5-2.38-7.63a33.48,33.48,0,0,0-1.87-9.4c-1.24-2.9-3.86-6.57-7.8-5.11s-2.94.76-5.08.14-7.79-2.89-10.67-1.36-11.95-.46-13.85,0-3.29.61-3.29,1.91-.81,1.52,2.55,2.44,2.87,1.91,2.64,3.36-2.73-.76-4-1.3-2.54,1.07-4.83,1.07-2.71-2.22-4.76-2.52-2.87,0-4.84-.76-4.59-2.07-6.88-1.91-11.16,6-15.34,9.16-7.39,6.18-8.35,8.7-1.08,2.75,2.29,6.5,1.81,3.13,1.14,5.26-2.62,4.73-5,10.24-1,8.17,1.88,13.43,5.42,9.09,7.71,11.31,3.92,4.57,5.9,5.41a7.87,7.87,0,0,1,3.29,2.07c.89.91.64,1.29,3.78.45s5.39-2.06,7.61-2.06,4.26.08,5.49,1.23,1.4.46,1.4-.16a15.18,15.18,0,0,1,1.31-3.51c.32-.61,3.27-4.81,3.76-7.1s.5-6.87,3.38-7.18,9-1.75,14.59-1.37,3.12,3.13,1.65,6-2.07,3.2-2.07,5.42.67,2.21-1.14,3.52-.66-.77-1.39.53a11.53,11.53,0,0,1-3,2.82c.31-.3,1.14,2.21,1.14,3.44s-.25,1.83-.25,4.81-5.82,6-5.82,6a11.36,11.36,0,0,0,5.24,1.23c3.13,0,6.9,0,10.17,1.52s9.52-1.22,14.12,1.07,2.95,3.66,3.27,5.81.82,9.46.51,11.14-2.49,6.41-3.63,9.78,3.28,5.8,7.39,8.55a34.08,34.08,0,0,0,9.85,4.58c2.1.61,6.05-3.21,13.28-2.75a11.34,11.34,0,0,1,9.66,6.57,31,31,0,0,1,4.11-9c3.28-5.18,3.43-6.71,7.86-8.39s5.91-2,13.13-4.28,5.9-.61,9.66-.31a105.32,105.32,0,0,1,21.17,3.67c8.68,2.6,22,3.36,27.05,5.5s7.38,8.09,12.63,13,11.81,9.31,14.59,11.6,18.37,4.44,21.82,5.81,8.2,7,8.52,10.38,3.78,5,8.52,7,6.24,4.27,9.36,10.38,2.13,7.79,6.39,9.32,33.79,9.47,41.16,12.37,16.73,10.69,19.19,11.61,6.9-.77,8.86.3-1.15,6.87,1.31,11,2.62,4.43,1.15,7.48-7.38,10.39-9.67,14-7.23,6-10,7.48-5.25,0-2.78,3.06.16,5.65-2,8.39.18,2.45-.49,11.31,0,18.48-1,22.29-6.71-3.36-13.28,4.89-8.35,14.5-12.29,15.42-13.12,5.5-16.23,8.41-3.78,4-5.75,8.24-3.93,13-6.06,18.33-5.58,8.39-13.46,15.57S641.54,952,636.46,957.6s-3.77,4.43-4.84,5.5c-2.7,2.72-13.9-4.4-11-.46,2.13,2.9-1.2,0,.6,2.75s3.12,3.82-.82,8.7-8.47,3.92-11.59,4.69-7.76-3.21-8.09-1.22-2.12,6.92-4.59,8.14-9,3.06-8.85,3.82c3.1,14.47,9.48,16,2.73,15.32-18.49-1.81-5.29-6.2-18.16,20.72-2,4.12-3.92,2-3.6,6.87s0,8.56,2.64,11.61.8,2.9-3.62,7-4.76,3.52-8.85,9.78-8,6-6.57,10.69,1.81,11.76,4.27,18.78,7.55,5.8,15.57,10.69,9,2.29,13,3.51-2.8,1.53-9.85,2.75-11.64,2.59-16.57,1.53-16.55-7.79-20.49-10.69S527.42,1090,525.11,1085s-3.93-10.08-6.87-17-.84-11.16.48-26.27,2.3-26.88,4.43-35,8.69-44.14,10.48-53.46,10.18-47.19,10.83-53.14a142.27,142.27,0,0,1,2.47-16.5c1.31-5.95.49-18,.49-18.63s-.49-1.07-2.31-6.71-4.74-8-8.84-10.39-8.37-5.5-11.65-7.79a49.87,49.87,0,0,1-10.49-9.62c-3.29-4.12-6.41-12.52-8-16a213.75,213.75,0,0,0-13.28-23.67c-5.58-8.25-5.91-8.4-8.69-17.11s2.45-8.85,3.44-13.74,4.26-9.78,7.88-16.65,8.36-8.86,11.14-15,.67-6.11-.33-12.07.33-5-1.49-8.25-2.76-7.17-4.4-8.24-4.1-1.83-5.59-.15-4.09,6.56-5.73,6.87-2.3-1.53-3.28-2.6S480,702.87,479,701.8s-3.43-1.22-5.08-2-8-4.13-9.85-5.65A13.09,13.09,0,0,1,460,685c0-4-3.43-5.5-11.15-11s-11-6.26-20.34-8.55-13.11-8.86-16.24-10.7-2.78-3.82-9.67-3-15.24-3.05-20.51-5.18-14.59-3.67-18.52-6.27-10.82-3.52-13.77-9.77-2.47-3.82-1.32-9.32S341.77,611.09,337,605.9s-8.36-6-10.82-12.37-6.06-6.11-10.82-10.69-4.93-10.39-6.89-15.58-15.08-12.68-15.08-12.68,3.43,8.71,4.92,12.22,4.91,11.91,8.85,18.18,7.38,7.78,11,14,.17,10.08-1.16,7.64-6.56-3.51-6.56-6.41-1.3-4.74-2.45-7-6.23-4.89-11.16-8.86-8.35-5.8-5.25-5.8,7.56,2.9,6.74,1.07-6.41-7.48-9-11.46-3.45-8.39-6.07-15.11-12.29-13.14-17.06-13.59-6.06-2.75-7.7-7.64-2-10.08-4.09-13.9-11.32-16.64-11.48-21.53-2.8-19.09.49-27,2.45-25.66,2-29.17-6.4-10.23-6.4-12.83,3.46-1.06,6.08-.31,8.19,3.06,8.19,3.06-4.25-7.94-6.88-10.69-10.33-6.26-13.78-7-7.87-2-9.68-4.89-3.76-6.72-5.09-9.16-6.89-5.34-8.18-7.94-1-7.64-2.79-10.24-4.44-4.12-7.39-3.05-3.93-1.53-6.22-5.35-7.38-5.65-8.87-6.1-6.54-7.18-6.88-8.86-8.37-10.54-11-12.37-28.05-10.08-28.7-10.08-8,1.07-10,.46-8.7-6.42-12.13-7.64-5.93,1.38-7.55,5.19S98.41,342.77,94,345.67s-8,3.21-7.71,1.68.16-4,1.64-7.64,2.3-4.73,6.88-7,4.43-2.44,2.64-2.29-3.13-.31.49-2.44,5.07-2.45,4.92-4.28S95,326.12,90,330.09A44.83,44.83,0,0,0,77.9,343.84c-4.26,7,.5,4.42-3.11,9s-15.9,13.89-19.51,17.41-18.53,11.3-24.61,13.14-8.52,2.59-11.48,5-10.32,3.2-7.87,1.53,7.05-5.5,10.18-7.33,11.48-5.2,13.92-6.11a45.27,45.27,0,0,0,12.81-9c3.43-3.82,5.74-8.25,8-11.91s2.79-5.35-2-3.82a20.12,20.12,0,0,1-12.14,0c-2.47-.92-8.87,2.9-11.16,1.22s.17-5.19-1.31-6.87-6.56-.61-9.84-1.22S12,341.7,12,337.12s-3.27-8.55-1.48-12.06,4.44-4.44,7.38-6.42,11.14-4.58,12.79-4.58,3.95-1.68,5.42-3.21-3.45-7-3.45-7,.83-.61,2.78-1.84.51-3.81-3-3.35-10.81,4-15.41,5.19-10.82.46-10.66-1.53,1.15-3.21-.49-4.73-2.95-3.21-1.31-4,11.81-6.42,11.81-6.42,3.6,4,7.54,4.43,12.3-6.87,12.3-6.87c-5.25-3.21-4.1-4.13-4.1-4.13s-8.53-.15-10.49-1.37-2.63-3.67-3.12-5.8-8.85-3.82-6.56-7.33,6.56-4.74,9.35-8.25,5.24-10.08,13.29-13.75,17.71-7,22-10.08,6.23-.14,7.88.31,11.81-.45,15.73-.45,4.6,4.42,5.91,5.49S122,241.52,122,241.52s29.34.46,35.25,2.14,16.56,6.11,16.56,6.11C180.32,248.93,179.75,241.06,183.76,241.06ZM578.09,63.91s-3,12.22-14.75,15.58-33.47,12.83-34.45,13.44,1.31,7.32,4.25,10.69,5.74,5.64,8.37,9,7.22,3.05,10.83,6.57,6.22,2.28,16.07,2.44,7.21.91,18.2,1.52,22.48,1.53,26.24,4.89,9.19,16.5,12.63,24.44S635,173.56,635,174.78s-3.78,10.85-3.78,12.37,2,4.12,3.78,6.26.81,3.82.47,5.8,2,7,2.31,7.64,5.24-4.88,8.37-5.8S657,206.55,657,211c0,10,2.73,6.62-13.61,18.48-2.16,1.56-4.27,13.58-2.62,19.39s5.56,12.67,8.68,20.92,12.3,19.85,15.25,25.2,3.78,12.68,10.33,14.36,12.8,4,17.55,5,7.87,2.6,10.16-1.83,6.89-21.23,10.67-33.44-.33-15.89,8.52-18.63,23-8.25,26.74-9.93,3.11-13.75,11.48-17.72,9.51-3.66,17.7-6.26S797.5,218.77,805.7,213s10.5-2.74,13.46-8.09-3-13.14-3.6-21.08,2.62-8.4,4.25-15.58,2.46-11.91,8.85-16.79,9.84-7.64,8.69-12.22-4.42-11.45-4.42-16.49,1.15-2.14-1.47-9.16-2.62-8-.17-14.51,9-4.89,8.53-7.79-10.49-7.33-10.65-15.43S831,65.28,832.6,63.3,851,48,852.12,46.81s-.33-4.59,7.87-8.55,11-6.57,14.11-7.79,8-1.07-1.49-3.82-11.63-4-17.86-3.21-8.37,4.28-19.53,5.35-23.77,6.26-23.77,6.26,3.77-3.36.49-6.57,8.53-13.74,10.51-15S807,8,798,6.34s-26.72-7-36.88-6.27S736,.69,730.93,2.37s-4.43,8.24-10.17,8.55-16.39-3.36-24.59-2.14-21.33,6.88-22.8,7.18,5.09,4.28,9.34,5.19,9.84,9.77,9.84,9.77-11.47-3.81-23.12-7-25.26,0-30,1.38-11,4-20.49,4.42-20.33,8.24-25.75,11.91-22.29,13.44-26.56,15.73-2.62,3.36,2,4.59S578.09,63.91,578.09,63.91Zm-243,126.24c1.29,5.6,1.29,13.65-1.77,10.18s-5.57-10.48-10.49-7.63-10.27,2-9.4,1.43-.1-3.67-2.63-4.59-4,.51-6.66,2-10.93,3.56-7.54.92,2.29-4.07,1.08-7.13-9.83,2.14-14.43,5.4-7.31,8.24-10.05,11.6-.77,5.51,3.39,6.72,10.83,2,5.24,4.08-9.84,3.45-7,5.19,7.76,2,12.67,1.42,9.09-1.93,17,.21A48.83,48.83,0,0,0,317,222a24.57,24.57,0,0,1-8.19,2.75c-5.25.92-14.88,0-19.8.92s-12.67,2.23-10.71,4.07,3.5,4.68,10.28,6.82,8,.11,12,1.12,1.86,5.6,2.95,6.31,8.75-.61,16.4-2,4.81-2.65,10.83-4.18,6.22-6.11,9.73-7.12,1,2.34,5.13,3.35,1.86,1.33,6.35,2.05,3.6,2.44,8,2.13,9.52-3.25,8.85-3.77-1.31-1.83-.86-3.87-4.38.41-6.13,1.43-1.63-2.75,2.08-4.58,7,0,9.18,0,.23-6.32-3.72-7.33-5.68-3.47-11.59-6.72-2.84-4.68-4.59-9-5.46-16.9-8.75-19.15-6.78-1.62-10.05-3.86C334.39,181.4,333.74,184.56,335.06,190.15ZM244.3,181.5c1.43,4.07,1.64,1.53-1.2,6s-1.21,6.1-3.17,9.46-7.21,7.85-5.58,10.08,6.9,3.57,9.09,5.3,4.37,5.29,8.29,4a43.31,43.31,0,0,0,8-3.67c2.74-1.42,5-3.05,4.91-6.62s-.21-5.28.9-5,2.82,1.93,3.7-.41a21.61,21.61,0,0,1,4.27-7.23c1.85-1.83,7.21-3.66,9.72-5.8s6.79-4.48,8-6.31-2.19-3.26-4.26-4.07-4.47-4.07-9.29-4.07-7.44,3.66-7.22,2-3.28-2.44-5.24-3.16-3.83-1.83-10.06-1.11a69.65,69.65,0,0,0-13.79,2.54C237.09,174.68,242.89,177.43,244.3,181.5Zm142.35,48.77c-.65.91-3.49,1.83-5.24,3.87s3.71.91,5.45,1.52,3.07,2.34,4.49,2.86,9.08.81,12.25-.72,3.49-2,3.16-2.75-6.55-6.82-11.14-9.26-4.71-2.54-5.69-1.93S387.31,229.35,386.65,230.27ZM366,182.62c-3,1.48-5.12,3.26-.1,5.81s6.66,4.68,10.05,6.82,4.82,8.24,11.93,5.5,9.95-6,10.94-8.86-1-3.46-2.74-6.11-2.19-3.77-5.8-3.36-4.81.41-4.81.41a20.21,20.21,0,0,1,6.34-5c3.94-1.94.65-3.26,2.51-5.09s-4.7-2.75-7.54-2-2.95-.21-7.66-.4-12.12,4.07-11.81,5.59,3.84.92,7.12,2.75,4.26,1.63,1,6.83-5-1.23-6.11-2S369.05,181.09,366,182.62Zm-21-9.36c-4.91.46-6.57,3.87-4.7,4.37s3.06-.5,6,2.65,5.58,4.89,6.78-.3S352.55,172.54,345,173.26Zm-78.94-39.41c-5.48,4.38-6.56,7.85-10.81,10.6s-3.29,5.09-1.87,6.61,5.69-.1,7.65-1.12,3.6-3.56,4.81-2,6.23-5.19,8.21-7.44,5-4.58,5.58-4.47-1.88,2.64-1,4.78,4.81,2.24,8.31-1.42.33-7,3.07-9.88,5-2.45-.33-5-8.76.3-9.85,1.63S276.77,125.3,266.06,133.85Zm33.34,6.93c-3.1.14-4.47.61-9.62,2.85s-7.33,8-8.52,11.2.54,3.15,5.25,5,11.25-.51,12.78-4.89,3.41,1,2.53,3.26,3.27.2,5.25-.82,7.85-1.42,8.3-1.42-4.81,4-10,5.7a72.2,72.2,0,0,1-10.72,2.85c-1.41.2,1.33,2.34,7.33,3.56s9.63-3.66,18.27-6.92,8.2-3.87,11-3,5.9-1.43,9.4-2.25,4.92.51,6.46-4.68,4.26-10.18-.66-10.49-5.25-.3-5.91,5.3-1.09,2.14-1.09,2.14-3.28-4.89-5.25-7.44-3.39-6.51-5.57-8.65-3.17.91-6.56,4.69-.66,5.19,2.73,6.82,5.79,5.8,4.16,6.92-3.5-.2-9.73.51-6-1.93-7.77-2.75,2.95-2.54-3.72-5.29S301.6,140.67,299.4,140.78Zm-20.22,5.29c.69-1.18-8.31,5.3-9.67,7.38s1.36,1.73,4.11,1.63S276.89,150,279.18,146.07Zm17.27-13.49c-2.24,1-2.24,1.78,1.42,2.19s5.81-1.22,5-2.75S298.26,131.77,296.45,132.58Zm18.65-19.34c-2.41.4-9.52,2.9-9.91,4.12s.08,3.87,1.16,6,1.48,2.39,7.6.76,10.33-4.79,8.3-5.35-3.27-1.47-5.08-1.73,1.59-1.22,5.63-2.49S328.22,111.05,315.1,113.24Zm-20.72,3.21c-1.73.79-2.35.81,1.25,2.19s7.5,1.27,7,.15S299.24,114.2,294.38,116.45Zm14.1-10c-3.42,1.35-4.19,3.81-5,4.78s3.87-.71,6-1.22,2.62.76,4.7-1.07,6.18,0,9.9-.76,4.32-3.26,3.49-5.39S318.27,102.55,308.48,106.42Zm37.06,9.21c-1,.49-.65,2.09.23,4s1.09,1.42,2.94,2.14a14.2,14.2,0,0,1,4.15,2.64c.45.47.71.62,1.49-1.22s-.39-1.52-2.47-4S348.18,114.36,345.54,115.63Zm12.63,16c-2.83-.76-4.43.87-5.47,1.38s.55,1.67,1.26,3.86.11,2.91,4.27,3.21,5.4-.45,5.74-3.1S360.79,132.33,358.17,131.61Zm16.13,4.79c-2.58-1.88-3.83-3.41-6.45-2.34s-.44,2.39-.44,3.11,3.17-.11,3.23,1.62,1,2.45-2.79,2.65-4.88.05-6.35,1.17,2.85-.15,4.17,1.58,3.54,1.94,7.21,1.38,8.63-1.38,8.63-1.38a28.91,28.91,0,0,0-3.77,4.33c-1.09,1.77-1.53,4.32.39,5.59s2.13-1.32,7.43-1.42,6.88-2.85,6.88-2.85a5,5,0,0,1-1-3.82,10.25,10.25,0,0,0,0-3.26A22,22,0,0,1,394,144.9s-.37-1.57-1.14-4.43-.16-3.05-1-6.92-.65-4.68-4.65-4.58-6.72,1.47-10,1.47-4.7.62-2.3,1.84,2.74,2.69,3.88,4.07.94,4.68,1,4.53S374.3,136.4,374.3,136.4Zm-19.95,14.51a1.71,1.71,0,0,0-.18.07,4.77,4.77,0,0,0-2.35,4c-.1,1.32,2.2.56,5.86-.71S359.54,149.23,354.35,150.91ZM406,144a27,27,0,0,0-7.22,5.85c-1.75,2-.22,2.24,4.32,4.53s9.41,2.74,11.52.35S413.6,139.81,406,144Zm21.1-17.77c-5.83.58-4,1.45-10.74-.76S401.14,123,398.85,123s-1.23,1.07,1.15,5,3,5.26,7.94,4,8.94-2.06,12.55,3.13,5.49,6.8,2.54,8.7-1.56,5,.17,8.94,5.65,3.82,11.14,3.82,40.26-.53,45.68-1.53,10.24-5.57,13.13-7.63,4.42-5.27.48-7.64-9.51-4.58-13.94-4.58-8.2,2.29-14.92,3-5.25,3.91-11.32,4.05-3.12,2.83-10.58-.23-12.95-6.87-9.42-7.4,6.39-1,4.42-2.67S432.45,125.68,427.05,126.22ZM357.52,97.81C361.12,99,362,100,358,101s-7.14,3.89-3.12,3.36,7.46.38,12.62,1.22,4.76.31,7.05,3.21,4.76,2.9,8.29,2.06,4-1.07,1.74-3.59-4.69-7.17-7.81-9-5.73-4.43-8.85-4.12-3.85.38-6.56-3.28S356.54,89,352.59,90s-5.19,3.81-6.72,5C342.76,97.51,353.91,96.59,357.52,97.81ZM404.76,60.4c-4.27,5.34-7.72,9.85-2.89,10.38s7-.38,7.3,1.15-.82,2.59-8,2.59-5,1.61-1,6.34,4.42,3.13,10.56,3,8.21-2.37,13.3-1.07,6.63,2.6,2.05,4-15.43,4-13,6.26,10.1,7.79,13.55,8.33,4.16-2.29,11.63-1.46,5.67,1.61,6.47-.45,4.94-7.33,5.74-9.24,2.89-3.13,7-4.05,5.41-2.21,1.56-3.59-8.2-2-7.79-3.05,2.79-4.2,1.14-5.81-4.25-1.52-6.4-2.36-4.5-4.74-7.21-6.41-5.07-1.84-8.36-4.36-8.52-8.66-15.08-8.32C410.9,52.46,409,55.05,404.76,60.4Zm-8.38,44.67c-1.64.84-5.74,1-2.7,3.51s2.21,2.6,6.06,1.14,9.43-5,9.93-6.1-3.86-3.13-6.82-4.05-5-3.29-11.14-5C382.77,92.17,398,104.22,396.38,105.07ZM597,25.63c-6.78-1.83-31-6.52-38.92-4.69s-7.44-4.07-18.37-2.64-27.75.61-33,1.42,2.61,3.06,5.46,4.89-13.55-2-26,1.43-20.56,5.29-7.21,10.39S494,42.94,494,42.94,477,39.89,469.74,37s-3.27-2.64-16.84,1.23-26.67,5.9-26,10,10.93,9.57,17.71,11,20.78-2,21.87-2.45-5.48,5.5-5.48,5.5,7-1.42,14.87-3.46,14-4.28,21.44-6.92S506,48.44,506,48.44s-12.89,10-21.86,13.43-20.57,5.71-26,5.91-4.6,3.67.88,6.52,9.62,9,12.46,11a8.57,8.57,0,0,1,3.29,5.3s-8.54-6.72-17.94,0-8.09,10.18-5.68,11,10.71,1.63,12.24,4.48,12.46-2.64,12.46-2.64-5.45,6.92-10.72,6.92-5-4.48-12.67-3.67-7.22,2.65-3.94,5.3,5.91,3.46.22,6.11-8.31,3.46-8.52,6.71,7.42,3.26,12.24,3.26,9.4-.41,18.15-.61,7.64-3.06,10.93-3.06,6.56,1,5.25,4.28,1.3,1.23,10.93-2.24,5.23-8.76,4.6-10.59-4.17-2.44-6.34-3.46,6.56-10,5.23-13,10.73-.61,16.18-7.73S520.9,79.18,517,78s7.22-.4,10.71-2.45S538.84,71,541.9,67.17s4.15-5.3-3.28-4.48,10.7-3.26,19.45-9,18.82-12.42,21-14,4.17-.82-6.13-.2-22.52-.82-15.73-1.63,26.89-3.26,32.14-7.13A65.09,65.09,0,0,1,597,25.63ZM474.56,167c-10.95-1-26.89-3.67-30.18,5.69s-8.31,30.15-8.75,34,13.12,9.57,22.52,10,24.72,1,21.66-1.22-.45-3.45,8.3-3.05,9.62-1.83,9.62-3.66,1.53,2.23,7.66,5.49,11.37,12.43,16.84,17.72,17.71,12.42,15.3,16.49,2.62,18.33-16.19,21.59-19.89,1-19.67,5.29,1.08,6.11,8.52,6.11,17.72-6.11,21.21-1.63,8.3,6.11,11.37,7.13-3.72,2.84-5.46,3.46,3.72,1.22,14.43,6.31,23.61,5.7,17.26,2-9.38-10.39-12.24-12.63-.22-.41,4.82.82,9.62,5.29,11.81,7.12,3.27-.61,4.8-7.74-.65-7.12-9.19-12.82-11.14-10.18-12-14.26,4.38-4.88,6.57-7.74,8.31,5.1,12.46,9.78,7.64,12.83,10.93,6.92S593.27,249,593.27,246s-3.27.2-17.26-6.72-21.21-9.57-22.52-9.57,3.72-2.65,9.85-5.71,8.73-2.64-4.39-15.06S542.11,193.82,533.59,193s-10.93-9.77-17.06-12.82-20.33,3.66-24.5,4.68-2.84,2.65-8.09-4.88S474.56,167,474.56,167Zm9.83,0c-5.43.64,3.27,10.58,10.27,11s12.91-3.06,14.43-3.46S492.91,165.92,484.39,167Zm-24.54,101c-.92,2.22-3.13,8.4-3.45,12.52s-1,4.74-1.8,7.33,2.63-.46,4.92,3.36,1.3,4.89,5.41.46,8.69-6,14.43-4.12,10.17,2.59,8.2-.92-4.59-3.21-8.53-7.94-6.88-6-11.8-7.79S461.81,263.2,459.85,267.94ZM501.1,624.73c-1.68-3.53-4.23-9.25-14.86-11.23s-14.23,2-18.15,3.3,3.66,2,8.72,0,8.91-.42,9.6.49-1.7,1.46-2.57.5-1,2.36,4.69,4.43,7.11,3,7.69,5.5.53,3.76,1.83,5.81,1.79,2.91-.61,3.8-1.56.78.2,1.88A23.37,23.37,0,0,0,508,642.54c5,.43,6.65,1.36,3.18-3.22S501.64,625.84,501.1,624.73ZM517,647.1c2.77,2.84,2,5.92,1.78,7.55s-3.19.37-8.68-1.08-4.65-.74.13,1.83,7.85,2,7.64,5.38,4.38.32,6.42-1.67,1.88-.23,10.36,1,10.23,2.82,8.87-.91,3.89-3.41-3.65-7S513.85,643.87,517,647.1Zm-24.15,2.11c-3.18-3.52-7.18-4-7.21-1s1.09,2.84,4,3.65S494.89,651.46,492.84,649.21Zm61.6,15.33c-3.48-1.19-4.18,1.42-1.87,3.59s5.85,1.42,9.34,1.26S560.49,666.62,554.44,664.54Zm-39.9-426.15c-4.6,1.94-7.29,3.28-3.29,8.55s6.41,8.55,8,4.73S522.33,235.1,514.54,238.39Zm-36.81,56.53c-6.93,1.12-9.2,1.32-8.1,5.2s2.95,3.25,7.65.91S485.27,293.7,477.73,294.92Zm14.42,5.9c-1.18.36-1.53,3.06,0,5.5s4.49-.81,5.8-3.77S496.53,299.5,492.15,300.82ZM416.49,112.88c-6.54.22-16.39,2.55-10.93,2.65s9.95,1.22,18.82.71,9.72-1.12,9.94-5.4S428.53,112.47,416.49,112.88ZM375.5,77c-6.69,2.07-5,3.46,2.84,6.92s8.09,1.83,7.22-4.69S379.44,75.72,375.5,77ZM842.84,247.36c-8.28,2.31-11.06.93-12.64,5.13s-4.81,1.95-6.69,2.47-4.51,12.24-5.82,10.5-1.79-2.7-3.71-6.73.64-3.31-3-7.56-10.84-3.76-11.35-2,5,3.19,3.12,5.16-6.33,4.38-8,5.8,3.24.8,6.34.07,5.22,2.33,6.49,4.49-1.42,4.28-2.77,5.33,4.52.8,6.85,1.23,3.56,2.41,2,5,6.95.38,11.7.11,6,3.23,13.12,1,10.55-2.09,17.07-6.91,6-3.7,10.34-6.81,3.29-4.07,3.47-7.52,2.86,1,1.84-4.24-6.35-3.79-10.08-4.2-3.59-3.32-5.47-4.24S851.24,245,842.84,247.36Zm553.51,448.57a16.7,16.7,0,0,0-.88,5.4c0,2.75-.31,5.7-.1,8.45s.38,4.68,1.91,5.29,2.58,1.22,5.09.06,4.87-3.26,3.62-6.42a88.57,88.57,0,0,0-5-9.82C1399.64,696.55,1397,693.59,1396.35,695.93Zm-2-3.77c.27,1.17.65.92,1.2,1.73s1.15.1.39-1-.68-1.2-.68-1.2-1-.33-1,.64m236.13,162.31c0,.13-.17.19-.26.29-4.5,4.54-8.58,3.27-16.29,5.66s-21.49,10.39-22.47,13.9,0,4-1,3.52a12.23,12.23,0,0,1-2.64-2.6s-2.12,4.28-1.63,8.09,2.29,6.11,2.14,11-2,7.79-1.8,11.15,5.72,9.76,7.2,13.74,2.47,2.9,3.28,10.09,4.59,11.14.82,15-6.56,3-2,7,8.36,6.57,15.73,4,5.42-4.88,11.16-6.11,6.89-2.44,11.81-2.75,8.36.16,10.18-3.35.47-3.36,5.39-5.81,4.43-3.05,7.71-3.66,5.41,1.68,9.84-1.84,1.15-3.81,11-3.81,14,1.38,17.55,2.59,9.52,4.43,11,6.72,3.45,5,4.1,5,1.48.15,3.77-2.13a98.59,98.59,0,0,1,8.86-6.88s-.33,4.89-1.8,6.72a8.61,8.61,0,0,0-1.49,5.35c0,.91,3.78-2.91,4.28-3.06s1,6.72,1.47,7.33,2,.31,3.45,2.29,3.45,3.52,4.91,7.34,7.72,7.63,11.66,8.24a32.48,32.48,0,0,0,10.32-.16c3-.45,3.11-4,6.23-2.59s-.16,4.28,7.22,3.66,9.35-3.05,12.3-5,3.28,2.75,7-2.44,4.43-4,5.08-10.23.49-7.48,4.09-13.44,4.45-3.05,6.91-11.76,5.57-16.95,5.25-24.12.14-2.45-1.49-10.55-.49-7.17-5.73-10.53-6.57-2.44-7.88-7.18.34-6.11-2.13-6.11-4.6,1.07-6.07-2.14-1.3-4.43-4.1-7.48-5.4-2.44-10.5-4.73-2.46-2.9-2.46-6.88.29-8.19-3.76-10-1.64,1-1.64-5.5,0-5.6-3.28-6.72-4.38-1-6.46-5-4.8-10.49-5.78-13.13-2.19.3-3.51,2.24a20.51,20.51,0,0,0-3.17,10.18c0,4,1.75,6.21,1.75,11.5s-3.71,10.59-6,13.65-4.15.3-6.12-.52-2.4-3.76-6.55-5.79-11.81-3.88-15.31-7-1.1-3.26,0-6.52a16.56,16.56,0,0,1,5.25-8c2.62-2.14,1.86-3-1.42-4.79s-7.87-1.93-13.45-1.93-8.86-.41-8.54,2.75,3.61,4.37-1.08,3.46-8.75-1.32-10.83.91-2.52,3.57-3.72,8.36.34,5.08-1.63,5.08-9.73-3.76-12.35-4.88-4-1-7.11,1.83-13.67,12.12-17.61,14.36S1634.41,842.15,1630.42,854.67ZM1484.53,717c-2.33-.31-3.61-.92-.77,2.74a43,43,0,0,0,6.35,6.93c2.72,2.54,3.72-1.84,5.79,3s1.32,5,3.39,6.82,3.82,2.34,4.37,4.17,1.2,4.69,3.6,6.73,2.42,1.73,3.83,5.69,3.62,6.83,4.71,10.18,7.33,6.52,10.48,10.59,8.54,10,9.42,8.35,3.16,0,4.8-.6,2.19-3,3.29-8.66-1-8.35-2.52-9.68-4.37-1.62-5.14-2.84-2.07-5.4-3.93-6.72-2.31.1-2.31-3.16,2.19-3-.53-4.78-3.08-3.16-4-4.07-6.76-2.35-8.3-4-8-4.58-11-7.64-6.46-5.49-7.44-7.73S1494.58,718.34,1484.53,717Zm63.63,65.66c-2.63,0-3.94-1.53-5.68,1.63s-1.53,3.16,1.19,3.16,2.19,1.42,2.08,1.83-1.31-.31,4.27,1.93,9.51,1.33,11,.51,2.08,2,9.74,3.26,11.69-.71,16.61.51,3.72-.61.21-3.26-3.17-1.22-6.67-3.76-8.41-2.65-10.7-3.06,2,2.44-5,1.53-4.48.61-8.08-1.73-3.62-2.75-6-3.16S1548.16,782.69,1548.16,782.69Zm55.54,11.2c-2,.61-6,1.73-4.15,2.55s.42,1.32,6.23.81,10.83-1.22,11.58-2.45-1-.4-3.39-1.12-2.19.51-5.47.92S1603.7,793.89,1603.7,793.89Zm20.33-.41c-3.88.48-3.39,1.32-.33,2.24s5.91,1.32,8.21.72,2.62-1.23,6.89-1.94,5.68-.61,9-1l3.4-.4s-.33-.71-2.62-.61-3.92.2-6.23.2-6.23,2-7.87,1.93-4.8-1.11-5.58-.61S1628.2,793,1624,793.48Zm21.88,5a.36.36,0,0,0-.15.1c-2.71,1.85-2.83,2.37-2.58,3.83a2.79,2.79,0,0,1-.29,2.14,11.62,11.62,0,0,0,7-3.24c3-3.06,3.16-3,6.27-4.13s6.65-4.5,6.65-4.5a20,20,0,0,1-5.16.31,9.69,9.69,0,0,0-6.25,2.13C1650.56,795.84,1652.26,796,1645.91,798.47Zm-22.86,1.6c-2.85-2-5.61-1.75-5.82-.49s-2.47,1.18,1.55,2.67,7.83,3.44,7.54,1.41S1624.28,801,1623.05,800.07Zm-26.13-84.88c-1.64,2.34,1.53,1.73-.88,3.77s-4.25,1.12-6.66,4.17-6,5.19-7.54,6.31-6.46,2.45-8.65,5.4a2.92,2.92,0,0,0,.78,4.58s-1.33.61-4.82-.71-3.72-3-3.72-3-2.51-.11-3.92,3.66-2.21,4.17.3,6.42-1.73,2.34-1.19,3.86.56,4.39,2.07,4.69,1.86-1.43,3.74.91.31,9,2.72,9.27,4.15-.72,6.23.2,3.61,1.73,6.35.82a9.36,9.36,0,0,1,7.1.81c1.42.81,6.55,2.54,9.07,2.34s2.95.41,3.39-3.15.12-6.93,3.17-9.67,3.18-2.76,3.39-5.3.22-5.19,2.08-7.84,3,1.53,3.94-.51,2-2,1.41-3-3.39-1-4.47-3,.33-3-1-6.92-2.06-2.44-.21-4.68,3.39-2.65,3.6-4.38,1-1.83,3.29-3.46-.36-.86-2.55-2.5-6.27-7.73-8.83-7.68C1603.74,706.67,1598.55,712.85,1596.92,715.19Zm323,216.14c-1-.77-2-.2.46,2.65s2.61,2,4.14,2.14,2.85,5.7,3.72,7.13a24.91,24.91,0,0,0,2.51,3.15s.89,6.11.11,8.86-2.41,4-2.94,6.51,2.51,1.84,4.49,2.65,1.62.81.86,3.06-3.06,3.25-3.06,3.66,4.49,3,6.78.21,5.9-6.82,6.89-9.78-1.76-1.63,1.41-3.77,2.74-1.12,4.39-3.76,3.37-5.4,1.53-6.82-3.94,1.72-5.6,2.34a5.73,5.73,0,0,1-5.23-.41c-2.3-1.12-2.74-1.12-3.61-3.16a11.47,11.47,0,0,0-2-3.16s-.67,3.47-2.29,2.35-1.22-2.35-2.41-4.28-1.2-2.55-2-4-.1-4.18-3.92-4.59S1921,932,1920,931.33Zm.66,37a42,42,0,0,0-5.78,6.41,28.37,28.37,0,0,0-4,7.23c-.87,2-4,4.48-9.29,7.23s-7.22,3.87-9,6.42-8,10.48-8.73,11.4,2.94,1.83,6.77,1.83,9.84,3.46,13.11-.1,6.56-12,8.63-15.07,4.06-4.17,7.33-7.13,8.75-8.45,8.75-10.58a19.62,19.62,0,0,0-1.43-5.61,4.08,4.08,0,0,1-4,2C1920.08,972.06,1920.63,968.29,1920.63,968.29Zm-25.78,39.11c-3.83-2-4.59,1.75-5.21,5.64s1.66.58,5-1.17S1896.32,1008.18,1894.85,1007.4Zm-130-26.69c-4.33-1.44-3.61,2.65-3,5.7a22.43,22.43,0,0,0,3.18,8c1.64,2.55,7.75,3.46,10.17,2.35s4.14-4.89,6.55-8.45,3.5-7.64,3.07-9.77-3.5,1.93-5.48,2.84-4.58,3.26-8.3,2.24S1766.37,981.22,1764.85,980.71ZM1710.4,762.12c-3.49.82-5.25-2.23-8.09-8.14s-5-6.72-12.24-4.08-6.13,2-1.31,3.88,5.46,2.44,6.11,2.44,7.66,1,6.13,2-8.09,2-3.94,4.88,2.41.82,13.34,6.31,12.69,1.43,16.19,8.56,3.49,5.9.65,7.74-6.56,3.66-5,3.87a102,102,0,0,0,11.81,1.22c7.44.4.43,4.68,8.74,4.68s10.49-2.65,13.78-6.52,3.94-1.83,10.93-.2,9.4,7.74,18.16,10.18,12.45,5.7,7,.61-7.44-8.75-14.88-14.66-7.86-6.52-10-11-9.83-9.77-18.36-13.23-13.41-4-23.4-6.72C1715.65,751.13,1713.9,761.31,1710.4,762.12Zm-57.52-20.35c-3.27,2.28-3.67.88-6.13-.64s-1.77,3.17-7.22.64-7.48-3.81-13.34.5-2.17,6.09-2.32,9.14-4.9,11.66-6.67,14.83-1.76,4.31-.41,6.34,3.28,1.27,4.08,2.28,0,9-.95,11.67,2.32,3.18,5.72,2.41.41-1,.41-3.8,1.63-4.06,1.63-9.26v-7.61s1-.51,2.19,1.27,3,6.72,4.49,9.26,3,4.43,5.31,2.66,4.49-3.8,4.49-3.8-4.49-1.4-4.49-2.92,1.91-2.79-1.23-7.87-4.76-5.32-.81-5.58,3.82-4.18,6.13-5.32a11.6,11.6,0,0,1,5.58-.76,6.11,6.11,0,0,0-5.86-1.4c-3.53,1-6.67,1.52-9.67,3.17s-5.58,2.67-6.13-.38-.94-3.8-.53-8,5.16-1,8.7-2,3.55-.76,11.31-.25,8.3-1.27,10.62-4.43a32.43,32.43,0,0,0,3.67-6.86S1656.14,739.48,1652.88,741.77Zm18.39-11.1c.69-1.27-5.7,4.37-6.9,5.49s0,2.75.87,4.38.66,7.23,1,8.45,3.6,2.34,3.6,2.34-.1-3.76,1.09-5.49,0-3.87,0-7S1669.19,734.43,1671.27,730.67Zm-12.58,33.43c-5-1.93-6.89-.66-6.89,2s-.56,3.93,4.79,3.93S1668,767.63,1658.69,764.1Zm10-1.71c-1.25.39-2.54,4.32-1.84,6.68s1.55.79,4.37.26,2.38-2.75,5.9-3,10.83,2.49,10.83,2.49,1.56-1.83-4.06-5.37S1675.71,760.17,1668.69,762.39Zm-100-129.51s-5,.15-5.8.15-2.52,1.94-3.77,2.7-1.26,1.83-.38,3.81,2.35,2.09,4.8,2.75,1.59-1.07,3.41-1.73,2.29-2.29,2.68-3.76a5.66,5.66,0,0,1,2-2.65c.43-.51-1.43-2.24-1.43-2.39S1568.66,632.88,1568.66,632.88Zm59.21,7.07c-2-1.46-3.07,3.67-3.62,6.32s-1.2,4.37-.22,6.31.55,2.54.55,2.54l-2.84-2.14a18.12,18.12,0,0,0-.77,4.59c0,2.14-.88,3,2.41,4.58s4.37.71,4.8,3.05.44,3.36,2.63,3.77,4.7,1.32,5.58,2.75.43-3.77,2-3.46,3.29,2.23,4.38,4a3.82,3.82,0,0,0,2.73,1.83s-2.51-4.17-1.42-4.68,1.42-.92-1.43-2.65-5.13-1.32-7.32-1.63-2.18,1.53-3.82-2.75-.33-6.92-.33-7.84,1.19,1.43,2.52-1.53a15.63,15.63,0,0,0,1.41-8.14c-.21-2.85,2-4,.32-4.07S1629,640.77,1627.87,640Zm26,54.71c.33,2.06-2-.57-2.83.62s-1.31,1-2.71,1.52-4.74,3.7-4.74,3.7,0-2,0-2.47-1-2.83-2.05-1.23a9.47,9.47,0,0,1-4.31,3.78c-2.29,1.15-3.72,2.83-4,4.89s1.4,2,1.4,2a13.12,13.12,0,0,0,2.42-3.05c1.52-2.37,1.79-2.29,4.54-2.64s2.54-.3,3.41,1.19.2,3.74.28,5.38-.08,3.62,2.74,4.58,1.49.08,4.07-.15,2.54-.15,2.16-1.45-1.14-2.45-1.31-4,1.48-2.18,2-2.48.86,1.52,1.64,3.43,1.1,1.83,1.43.38,1.23-4.88.91-6.72a25.74,25.74,0,0,1-.49-4.77,5.92,5.92,0,0,0-2-3.89c-.74-.54-3.27-2.79-3.27-2.79S1653.56,692.6,1653.88,694.66Zm-12.59-12.46s.06-1.3-2.31-3.63-2.43-3-6.07-3.63-7.24.32-5.71,4.2,2,4.46,5,4.92a6.31,6.31,0,0,0,4.92-1.19s.23.62-2.67,2.44-3.22,5.28-1,6.63,2.21,3.42,3.5,2.38,2.27-4.61,4.92-7.1,2.82-2.84,3.17-5.49a21.12,21.12,0,0,0,.06-4.76Zm6.2-7.47c-.33.27-2.22-.19-.26,1.72s3.78,2.33,3.53,3.74-.08,1.68-1.18,1.53-1.44-.42-1.93-.46-.56.92-.25,1.79.25-.11,1.19,1.38.7,2,1,3.71,1,.87,1,.87-.24-4.12-.13-5-.33-2.86,1.07-2.21,1,3.09,1.85.8a10.56,10.56,0,0,0,0-6.15c-.4-1.84-1.84-1.91-3.53-1.91A13.75,13.75,0,0,0,1647.49,674.73Zm-28.29,7.07c-.81.2-1.31,1-1.8,3.78s-2.06,4.24-3.74,5.88-6.24,6-6.47,6.91-.3.34,3.11-1.27,6.1-3.74,6.51-5.91-.41-.84,2.59-2.25,1.47-1.87,1.6-4.09S1620.7,681.41,1619.2,681.8Zm181,83.38c-.35,2.83.83,3.67-1.8,5.75s-5.57,2.09-8.37,2.54-.75-.45-4.2-.55-4.32.15-2.74,1.88,1.2,3.41,6.29,3.21,9.28-3,12.57-4,3-3.67,3.29-4.89S1800.59,762.12,1800.21,765.18Zm14.21,6.11c1.41,2,.88,1.68,2.68,4.32s4.66,3.11,6.78,3.82,0-.76-1.57-2.9-1.7-3.31-4.06-5.45S1812,767.78,1814.42,771.29Zm-184.65-171.2c-7,4.46-10.17,4.13-7.37,9.78s4.53,8,4.92,9.11,1.8-.71,3.7-5.19,2.14-10.34,2.9-12.12S1632.18,598.56,1629.77,600.09Zm120-219.65c.76,3,1.52,7.54-.22,8s-3,3.77-3.39,7.13-1.31,7.64.53,10.28.55,2.85.55,5.09.66,7.94-.43,11.3-1.75,4.18-1.31,7.74,0,4.27,0,9.37-.32,9.16-.11,11.19,1.3-1,2.07-1.72a4.49,4.49,0,0,1,5.36.61l1.65,1.73s2.62,1.12-1-6.62-4.27-6.11-3.29-13.13,1.52-7.13,5.24-7.85,5.69,4.39,6.14,4.89-.34-1.73-1.65-5.7-2.52-5.29-3-10.28-2-9.17-3.93-10.59-1-3.77-.1-5.7a16.19,16.19,0,0,0,.76-8.24,89.11,89.11,0,0,0-2-9.89c-.56-1.82-2.74,1.12-2.74,1.12Zm-3.29,78c.21,2.24.45,4.27-1.09,6.81s-.44,3.16-1.3,6.72-5.15,0-5.15.72-.65,3.26-1.75,4.17-4.81,1.12-3.72,4.68a51.11,51.11,0,0,0,3.07,7.34,17.35,17.35,0,0,1,2.83-2.24l2.41-.71s-.32-1-2.73-2.14a3.29,3.29,0,0,1-1.86-4.18c.34-.71,3.39.21,5.35,0s3.62-1.22,6,.71a15.83,15.83,0,0,0,5.9,2.66,18,18,0,0,1,1.52-4.9c1.1-2,4.27-1.11,7.44-2s5.57-1.43,4.49-2.75-1-4.28-1.66-6.51-2.73-.11-4.37.71-3.7.2-5.9-1.23-6.12-6.82-7.54-8.95C1748.45,457.31,1746.26,456.19,1746.48,458.43Zm-9.79,33.39c-1,.51-2.37,3.21-2.12,6.18s2.78-.23-.51,8.94-4.91,11.22-8.11,13.59-6.15,2.37-7.37,1.75.33-2.67,1.22-3.28-2.8-.84-4.34-.61-.08,2-.26,3.44-3.18,5.34-2.85,7.1.31,2.29-1.65,2.9-3.27-1.45-3.85-1.75-3.53.53-7.38,1.06-4.83,1.83-6.47,4.66-5.51,3.28-8.29,4.35-1.72,5-4.76,6.42-3,3.89-3.27,5.95,1.87.62,2.2.46.33-2.9,2.22-2.59,2.14.38,1.14,2.51-1.54,3.21-2.52,5,.32,2.68,1.79,4.51,2.88-.53,6-3.81,3.37-4.06,3.13-7.8-1.49-3.82-3.78-4.88-2.8,0-.25-2.91,3.7-.07,5.41-1.37,5.91-1.22,9.92-2.21,7.89-2.29,8-1,1.4,5.65,1.54,6.57,2.81-1.3,5.49-2.29.18-1.45-.07-3.21a3,3,0,0,1,1.23-2.74s1.39,2.9,5.74.84,4.68-2.91,5.82-2.6,1.89,1.45,3.7.3,2.13-.08,1.8.84,5.25-1.75,6.47-2.59.58-.08.09-3.29-2-3.43-1.14-7.56a36.49,36.49,0,0,0,.89-7.1c.25-2.59,1.23-3,1.89-3.13s.67-3.59,2-5.41,1.07-2.68,1.07-6.88-2.31-3.44-2.45-6.41a22,22,0,0,1,.55-5.88s-4.66,1.75-5.16,2.82l-.5,1.07S1738.26,491.05,1736.69,491.82Zm-30.6,45.89A83.61,83.61,0,0,0,1695,540c-2.89.92-3.49,2.18-3,5a59,59,0,0,0,2,7.24c.4,1.49,2,0,4.67-1.43s2.54-5.63,5.12-5.63,1.63,3,5.12-1.21.83-4.54,1-6.66S1706.09,537.71,1706.09,537.71Zm306.39-226.15c-5.19-1-6.69-2.13-7.17-.25s-1,2.5,2.24,3.66,4.92-.86,8,1.43,3.93,2.18,6.28,1.88a5,5,0,0,0,3.28-1.47S2016.42,312.33,2012.48,311.56ZM1953.26,230c-1.9.53-3.46-1.3-3,3.36s1.54,5.19,7.52,4.35,1.49-.23,9.69-.84,9.91-1.76,9.91-1.76a14.31,14.31,0,0,0-3.92-4.42c-2.8-2.14-6.49,1.45-12.81.38A69,69,0,0,0,1953.26,230Zm-184.75-68.8c.09,1.78,8.2,6.8,11.14,8.25s5.25.84,11.5.15,6.72-3.36,7.45-4.89-2.95-1-7.12-1.83-7.63.76-9.11,0,2.22-1.53-1.48-2.9-4.6.46-5.41-.15-1-1.91-2.79-2.07S1768.42,159.51,1768.51,161.19Zm-32.14,10.46c-2.83,1.14-2.62,2.14.56,4.81s2.15,2.07.75,4,0-.07,4.59,2,6.48,5.8,9.36,6.64a6.72,6.72,0,0,0,4.83-.23,26.3,26.3,0,0,0-3.7-6.72c-2.69-3.67-8.53-4.73-9.6-7.94S1740.38,170.05,1736.37,171.65Zm29.27-15s-4.18-2.52-10.5-6.49-8.69-5-10.83-5.35-1.78,2.22-2.62,4.2-1.38,1.6-4.67,0-6.56-4.05-9.92-4.81-5.41,2-9.26,5.8-1.64,4.89,3,10.54,6.73,6,10.5,3.74,2.69-3.67,5.4-2.6,12.06-1.07,12.39-1.07-.58,5.2,3.53,3.83,7.86-2.07,9.75-4.13S1765.64,156.69,1765.64,156.69Zm-284-109.07c-1.2,1-8.21.41-11.81,6.11s-6.12,1.73-8,5.19a71,71,0,0,0-3.39,7.64s3.29,3.87,6.79,3.57,9.62,1.21,13,5.9,5.9,4.68,14.1,6,4.47,2.45,8.75,2,10.15.51,8.86-1.63-2.31-3.46-1.75-7.63,4.36-4-.11-6.73-7.66-.5-7.45-1,4.06-2,2.53-2.14-9.09-.51-10-4.78,2.06-4.59,3.59-4.89,1.11-.82-3.27-4a119.8,119.8,0,0,0-10.27-6.42C1480.59,46.3,1482.88,46.61,1481.69,47.62Zm41.11,30.85c-3.18.61-5.8,3.77-7.66,6.52a49.53,49.53,0,0,1-7.88,8.75c-2.29,1.83-1.64,2.34,2.08,3.67s10.28-2.34,12.14-2.44,3.28,2.75,9.19,2,14.86-1.84,10.49-5-2.84-1.63-7.65-5.5a21.09,21.09,0,0,0-10.93-4.17s10-3.36,7.54-3.56S1522.8,78.47,1522.8,78.47ZM1270,28.28c-5.73,2-3.72,3-7.44,6s-1.21,3.77,6.79,1.84,8.41-2.75,13.55-5.09S1278.56,25.22,1270,28.28Zm12.67,14.36c-5.36,2.38-3.93,4.88-2.51,6.92s5.35-1.22,6.45,1,1.43,1.32,6.46-2,3.17-2.34,1.21-5.9S1291.9,38.56,1282.7,42.64Zm-29.86-1.48c-3.44,1.63-3.44,1.45-.17,3s11.23,2.74,15.33.07,3.79-2.14-1.39-2.9S1256.68,39.32,1252.84,41.16Zm-50.68,6.18a78.63,78.63,0,0,1,14.52-.23c4.25.46,2.69,4.13-5.18,5s.75,2.06,6.32,1.83,2-4.81,6.64-6.42,7.63-.61,13.2-2.59-3.19-3.9-9.68-3.74-8.61.53-14.1.15-9.92,2.09-15.57,3C1186.66,46.35,1196.84,47.8,1202.16,47.34ZM1244,48.79c-4.68,0-16,2.6-6.47,3.51s8.78,1.53,12.7.08S1248.9,48.79,1244,48.79Zm33.14,2c-6.68-2.2-6.82-1.3-12-1.07s-7.2,3.43-3.83,4.81,5.64.84,8.44.38,2.62-1.29.82-2S1281.05,52.08,1277.11,50.78Zm28-8.25c-5.12.64-5.42,1.53-5.91,3.21s.74,1.3,6.16.61,7.95-1.45,11.48-3.36-.74-6.56-.74-7.41-5,2.53-6.4,3.74S1311.21,41.77,1305.15,42.53ZM903.6,335.43c-2.58,7.12-6.84,10.41-1.81,8.44s10.05-8.11,9.81-2.85-5.16,4.49-3.62,9.64.39,4.71,8.77,6.57,1.54,1.21,3.62,6.14,3.47,6.47,1.28,7.89-8.64-4.49-9-2,.9,4.38,2.45,7.89-1,5.47-5.92,7.77-.65,3.73,3.08,3.51,13.15-2,11.61,1.31-6.05-.54-9.27,4.94-15.11,10.18-8.91,9.86,5.29-2,23.73-4.6,5.67-.22,17.8-4,8.24-4.71,1.54-3.61,4.4-6.58,2.84-13.7-5.92-.33-8.77-4.82-2.45-5.81,3-4.17,4.91-1.09-5.55-7.77-4-5.38-8.77-11-12.89-4.93-12.89-4.93a16.42,16.42,0,0,0,5.54-6.14c2.06-4.05,2.45-3.73,4.64-8.65s-2.19-4.5-7.72-3.29-7.37,1.75-6.21-.44,1.94-3.06,4.52-5.81,3.08-4.16-1.67-3.06-5.5,1-9.55,2.85C901.92,324.36,906.18,328.31,903.6,335.43Zm-13,16.76c-8.42,3.32-6,5.48-4.62,6.69s4-1.1-3.88,3.39-8,9.43-3.87,10.41,3.61-2.41-.76,5.81-7.36,13.81,1.54,11.73,11.35-6.69,15.6-7.24,5-3.94,5-9.09-2.84-5.26.52-9.54,3.61-8.76-3-10.84S895.86,350.11,890.56,352.19Zm105.92,115c-.44,1.16.57,4.27-2.84,6.42s1.65,4.07,2.73,6.11,2.52-6.93,2.19-11.2S997.91,463.52,996.48,467.18Zm-1.62,16.9c-5.57,2.63-5.9,4.58-6.58,8.76s4.5.81,3.17,4.47-.1,5.61,5.7,2.15,2.51-6.62,3.39-11S1002.18,480.62,994.86,484.08Zm85.7,45c-4.89-.48-7,2.6,1.32,3.52s12.12,1.06,15.25.3.48-.15-3.62-2.9S1086.79,529.69,1080.56,529.08Zm46.56,2.6c-6.73-1.46-4.9,6.72,2,5.5s4.27.46,7.38-4.58S1134.19,533.2,1127.12,531.68ZM959.64,493.75c-5.48.7-5.89,2.55-1.64,3.67s3.72-.2,6.13-1.94S962.05,493.45,959.64,493.75ZM628.42,394.08c-3.36,2.67-7.21,6.57-12,15.12s-4.25,7.63-8.85,12.37-2.29,3.67,12,6.42,13.12,4.88,16.41,4,3.94,1.83,3.94,4.73,3.1,1.22,4.58-3.36-1.48-12.83-4.42-17.56-3.62-4.74-8.21-3.51-3.11-1.07-4.74-4.74-4.28-.76-.34-6.26S631.71,391.49,628.42,394.08ZM192,384.31c0,4.54,4.8,12.32,8.4,14.86s2.85,1.13,1.21-4.27-.33-5.4-1.09-8.86S192,382.68,192,384.31Zm23.93,24.84a42,42,0,0,0,8.86,8.45c5,3.36,6.34,3.77,11.59,5.29s7.54-.51,4.15-3.56-.55-2.75-6.68-4.18-7.42-.91-10.49-2.85S213.8,407,215.88,409.15ZM82.58,358.5c-3.94-.89-5.49-1.07-8.21,1.07s-3.43,4-2,6.34.58,1.06,4-1.3,1.82-2.67,6.16-3.74S86,358.34,86,358.34,85,359,82.58,358.5Zm-1.39-5.27c-2.65,1.6-3.53,2.9-.57,2.29s2.53-2.29,4.42-1.91,2.54-.38,2.54-.38S84,351.55,81.19,353.23ZM5.51,341.09c-3.61,1.76-7-.3-4.81,1s5.25,2.6,7.63,2.33,3.94-.3,3.07-1.46a3.66,3.66,0,0,1-1.13-2.62C10.18,338.76,9.11,339.33,5.51,341.09ZM1215.8,838.69c-4.15,9.16-12.91,4.68-19.9,11.4s-5.91,4.68-.66,14-4.36,8.35-6.78,19.34,2.84,9,5.68,18.32,4.17,6.52,9.42,5.3a30.67,30.67,0,0,0,9-3.66,132,132,0,0,1,4.37-20.16c3.5-12,5.91-20.77,6.56-28.71s1.31-13.64,3.07-11.2,2,2.44,2-1.42-2.09-14.76-5.46-17.31C1217.1,820.16,1220,829.52,1215.8,838.69Zm6.13-626.34c-5.73,1.31-8.45,4.81-4.27,6.18s3.76.62,10.65-1.83S1227.58,211.05,1221.93,212.35Zm107.13-104c-2-3-3.71,1-23.82,9.78s-19.91,1.21-38.71,16.08-14.66,13-15.75,22-5.47,5.09-7.21,13.24-11.36,8.55-6.56,15.27,11.14,10.59,21.19,13.44,12.91-.2,10.73-1.23-9.83-13-8.3-26.67,6.56-11.61,10.93-16.7,15.74-18.32,23.18-22.8c7.23-4.36,26.46-10.45,36.15-13.78.28-.09.62-.08.79-.27C1339.34,108.1,1331,111.36,1329.06,108.3Zm-54.22,91.52c-2.38.34-3.5.42.88,4.69s8.19,7.54,6.77,1.83S1277,199.52,1274.84,199.82Zm71.83-41.43c-3.2-1.49-4.92-3-5.68-.61s3.6,5.7,7.87,6.52S1349.72,159.82,1346.67,158.39ZM593.93,414.65c-4.86-2.44-9.61-4.38-12.78-4.38s.66,3.36,5.68,6.11S596.77,416.07,593.93,414.65Zm-11.58,20.47c.26-4-2.69,4.63.93,6.56s5.48,2.44,7.77.1.42-.87-2.74-1.42S582.14,438.47,582.35,435.12Zm1432.48-140.3a24.75,24.75,0,0,1-10.34-1.07s-.33,4.73-2.12,7a4.49,4.49,0,0,0-.5,4.74s-5.9-2.6-9.34-3.82-6.57-.15-8.54-5.35-7.86-4.27-12.46-4.27-3.27-6-3.27-6l-2.79.15c-2.79.16-2.3,6.88-5.91,9s-14.92,3.51-14.92,3.51,7.21,5.19,8.69,9.47a41.54,41.54,0,0,0,4.27,8.4s-.66,2-9.36.3-8.19,1.68-17.55,5.5-20,9.62-22.62,11.75-2.8.92-11-1.06-9.83,2.29-12,3.36-1.29-4.89-1.29-4.89a16.08,16.08,0,0,0-6.58,1.83c-37.38,19-11.59,18-12.78,21.84l-4,14.81c-5.49,16.37-9.3,7.8-13.93,20.77-14.76,41.23-23.3-6.35-23.3-17.25,0-6.72-1.47-15.43,2.8-17.41,36.7-17.09,3.45-2.38,37.88-26,11.16-7.64,5.09-12.22,7.54-14.36a14.67,14.67,0,0,1,6.4-2.75l-6.07-.61c-6.07-.61-6.23.76-11,6s-8.52,6.11-7.54,2.13,1.14-8.09-2.45-5.95-5.09,1.83-11.8,3.21a33,33,0,0,0-20,12.21c-6.07,7.64-2.62,6.72-.65,8.55s-9.69,1.38-15.25.92-2.65-1.53.64-2.6-4.91-2-12.14-3.51-4.42,1.23-8.68,2.91-4.09-1.53-6.23-2-11.64-1.07-18.37-1.83-6.23.46-8,2.75-14.27,13.28-19.68,19.55-12.14,7.63-18.21,13.44-7.05,5.49-2.14,6.41,5.59.45,6.41,5,3.11,6.1,8.36,6.1,3.78,1.38,4.76-2.59-1.31-8.55,3.11-5,8,6.11,9.35,11.15-.34,8.7-2.63,17.1-3.11,20.47-6.22,26.57-5.59,10.69-9,17.42-20.17,23.66-23.94,25.19-6.23,1.68-8-1.68-3.11-2.75-7.38,1.07-6.23,6.11-7.87,12.22-5.25,6.11-9,10.68-4.74,3.52-2,8.71,7.37,10.7,7.87,15.73-2.31,12.37-4.09,15.58-10.34,4.73-10.18,3.2a119.89,119.89,0,0,0,0-13.58c-.34-4.43-3.61-4.43-2.47-5.81s5.91-3.67,2.47-6.87-5.9-.46-7.37-4.28.65-6.87-.16-8.24-3.29-2.9-8.38-3.36-6.23,4.58-7.38.15.5-4.89-1.8-6.72-4.27-.61-10.15,4.43-7.07,4-12,6.11-4.91,3.36-3.78,5,5.26,9,8.7,9.77,5.91-1.53,11.15-1.53,6.24.77,4.93,2.75-4.93,4-11.32,10.39-4.44,5.19-2.29,7.79,5.24,5.8,7.54,10.84,0,6.87-.33,9.77-.83,7.33,3.44,11.92,1.32,3,.82,4.73-7.71,14.81-11,21.38-3.29,7.18-14,14.66-15.41,8.25-21.15,9.31a70.35,70.35,0,0,0-13.61,4c-3,1.22-1.82,3.66-2.12,5.19s-3.13.15-2.64-2.14.17-4-1.31-4.59-6.07-2.44-10.82,2.15-10.51,4.88-12.47,10.69-1.63,3.82.51,6.26,12.45,12.37,14.91,17.71,3,9.32,3.12,15.12-11.82,16.49-17.05,20-6.41,6.87-5.59,1.37-2.29-8.7-6.06-12.83-15.24-7.48-17.39-7.94.82-3.81-.67-3.67-4.9-.76-4.41,4.59-3.45,3.66-4.27,9-1.8,10.84,1.65,10.38,2.78,4.74,5.4,10.54,1.63,2.6,8.21,7.94,4.92,4.43,6.4,9.78,1,8.4,4.27,13.28,3.43,6-2,3.21-9.83-6.11-12-9.47-3.43-11.91-4.74-16.18-10.17-9.32-13.13-12.38-1.15-5.49.34-12.52-.67-13.74-1.15-18-3.94-16.27-5.59-20.32-1-3.5-3.53,0-4.5,5.66-7,5.66-6.06-.38-5.74-2,2.79-7.71,2.06-10-3-9.62-6.49-12.22a26.26,26.26,0,0,1-9.59-12.22c-2.22-6-2.79-4.27-7.05-1.14s-14,3.51-18.7,3.89-.82,2.68-2,5-6.65,5.27-17.71,16.8-12.75,11.91-15.61,13.13-4.66.84-4.56,5.57.5,7.31,0,11.54-1.81,6-3,8.64a52,52,0,0,0-2.88,10.14c-.38,2.55-2.84,5.5-6.45,8.09s-3.6,2.14-5.25-1.68-10.16-18.48-17-32.22-5.25-16.19-5.91-20.16-.78-27.81-.5-29.62c.18-1-3.33,2.8-4.31,4.73s-.93,4.28-4.85,4.63-4.76.41-8.48-3.31-5.42-5.8-4.77-5.7a20.47,20.47,0,0,0,7.39-1.62c2.45-1.23,1.63-2.55,1.63-2.55s-2.67.3-5.84.45-1.76-.71-6-2.39-5.15-1.83-5.86-3.71-1.74-4.54-2.35-6-1.1-1.53-1.8-3.31-2.73.3-7.27.41-3.5.3-9,2.44-6.28,1.38-12.47,1.17-10.48-2.85-13.61-3.92-3.61-.61-8.19-1.27-3.61-3-4.76-4.94-3.06-2.39-9.08-1.93-6.23.15-9.61-.76-3.68-2.14-6.52-5-1.9-.6-3.76-2.08a15.86,15.86,0,0,1-5.19-7.48c-1.48-4-1.15-4.84-2.85-6.67s-1.58-1.38-6.89-1.38-2.89.36-3.55.71-2.3,2.71-3.76,4.53,1.19,4.39,3.33,6.88.27,2.24,3.66,6,2.23,3.41,4.64,8.65,3.94,6.57,4.48,8.14,1-.61,1.59-2-.21-6.52-.21-6.52a32.94,32.94,0,0,1,2,5.91c.94,3.77.28,3.81.94,6.21s0,2.08,4.1,2.08,6.62.16,11.16-.91,6.49-5.19,8.62-6.41,2.15-5.51,3.56-5,.06,5,1.37,8,1.63,1.93,4.82,3.26,4,2.09,7.25,3.3,1,1.38,2.8,4.59,1.64,1.42,3.33,2.54,1,.3-.16,4.12-1.43,3.87-4.27,7-2.84,2.14-3.27,2-1.31-2.29-1.31-2.29a23.83,23.83,0,0,0-2.08,8c-.27,4.32,1.41,2.74-3.78,4.83s-8.32,3-10.32,4.68-2,4-3.17,5.15-2.74.1-6.23,1.32-2.53,1-5.48,3.21-.33,2-4.1,3.46-10.6,4.73-14,5.09-2.74,1.27-3.61,2.54-.93,1.94-5.3,2.6-9.84,1.28-12.53,2.6-6.61,4.27-9.45,3.72-2.07-.67-3-3.22a31.22,31.22,0,0,1-1.86-8.55c-.43-4.17-1.92-10.53-4.32-14.55s-2.36-4.28-5-8.51-4.38-7.78-6.67-9.41-3.43-1.73-4.54-3-.44-5.4-1.57-9-1.92-7-3.62-9-4.32-4.28-6.66-8.5-2.52-4.69-5.9-11.2-4.6-7.34-6.84-11.71-.78-3.52-1.58-6.12-3,4.23-4.65,5.56-2.56.65-3.93-3.21-2.53-7.28-3.57-5.75-1.85,3.05-.44,7.18,2.09,3.25,4,7.17,6.93,13.75,9,17.82,1.25,2.09,3.17,8.24,3,6.93,5.57,9.47,2.15,1.23,3.29,5.4.72,9.06.88,11.61,1.58,3.86,4.64,6.41,1.53,1.63,3,4.33a59.88,59.88,0,0,1,3.66,9.16c.82,2.65,1.8,4.48,4.21,5.65a42,42,0,0,0,5.46,2.19c2.41.86,1.57,1.47,3.22,3.56s4.81,3.67,6.79,7,.65,2.34.53,5.55-1.14,1.73.29,3.41,3.88,3.05,8,5.8.83.81,4.54.71,4.5-1.07,8.48-1.93,9.12-2.34,14-3.51,9.73-1.94,12.26-2.75,2.56,1.93.65,6.21-2.84,7.83-4.49,11.3-2.25,3.76-3.44,6.57-9.3,14.24-11,17.86a43.85,43.85,0,0,1-6.18,9.52c-2.47,3-10.17,8.45-13.77,11.35s-2.68,2.9-5.37,6.32-10.81,12.88-13,16.23-3.43,4.59-5.07,7.89-6.27,8-6.56,10.39-2.88,2.7-.93,4.79,3,2.44,3.72,5.09-2.19,5.65-.33,10.48.55,1.38,3.35,5.24,2.66,6.31,2.94,12,.55,11.25-.33,14.91-2.08,6.06-3.33,9.37-8.15,5.55-12.2,7.33-3.86,1.07-5.74,3.31-7.21,6.92-9,10.38-3.17,3.11-2.45,5.3,2.22,5,4.09,9.11.55,3.76.1,7.28-.37,3-.86,7.23-5.53,4.37-11.26,6.61-3.67,1.13-4.33,4.22-.26,9.23-.49,12.89-2,2.19-5.09,6.72-4.37,6.67-7.7,12.12-3.06,4.68-7.28,8.09-7.54,4.27-9.39,8.19-4,1.32-13,4.23-2.45,1.48-11,2.44-11.65,1.63-16.19,2.45-3.94-.26-6.72-3.31-3.23-2.81-4.47-5.34-.33-3.16-.72-7.75-.77-4.73-2.45-7.58-1.6-3.31-3.45-7.84a37.41,37.41,0,0,0-4.77-8.86c-2.06-3.05-2.67-2.08-4.59-4.07s-2-3.72-2.4-6.51-1.1-9.43-2-16.4-.11-3.26-1.22-6.21-2.39-6.52-4.25-10.43a56.4,56.4,0,0,0-4-7.74c-2.84-4.84-2.57-4.17-4.37-8.4s-2.07-2.34-2.18-4,.93-4.58,1-7.43,1-6.16,1.73-10.54-1-4.33.88-7.33,3.78-5.75,5-9.16,1-3.56,1-7.89-.43-4-1.74-7.59-1.8-7.84-3.39-13.64-1.53-5.6-1.76-7.84a54.61,54.61,0,0,0-2.39-10.33c-1.1-3.06-1.65-1.84-4-3.82s-.82-1.13-2.9-3.31-1.7-2.9-3.72-5.3a29.5,29.5,0,0,1-4-5.19c-1.63-2.7-.75-1.06-.53-5.6s1.53-13.18,2.35-18.17,1-4.74-.92-6.82-3.29-5.1-4.76-5.6-5,.5-10.22.41-5-1.27-7.21-3.88-5.21-6.2-6.25-7.17-2.84-.92-11.69-.26-3.51.82-9.42,1.74-8.19,4-12.73,5.6-5.84,1.17-13.83-.41-12,1.83-16,3.56-6,.91-9-1.12-4.7-3.71-9.24-6-3.51-3.47-8-5.66-3-2.29-6.73-5.8-4-7.07-6.56-10.74-4.76-8.8-8.21-12.67-6.82-11.66-8.52-14-3-2.55-3-3.67,3.34-7.68,4.71-11.1,1.75-2.95,2.34-5.09-.81-8.29-2.12-11.65-2.8-10.44-3.82-13.75.53-3.36,1.8-5.24a113.66,113.66,0,0,0,7.37-11.6c3.11-5.81,4.87-8.66,6.5-11.36s5.41-11,7.89-13.23a78.82,78.82,0,0,1,11.4-8.1c2.69-1.37,4.88-2.13,5.31-3.36s1.58-11.3,2.35-15.52-.26-6.57,2.8-8.2,8-4.68,10.55-6.11,2.94-3.56,4.25-6.67,1.87-7,3.84-8.29,1.41.55,4,2.29,3,1.83,4.21,2.14,2.29-1,5.3-1a7.46,7.46,0,0,1,5.14,1.32c1.8,1,.82,1,6-2.19a81.18,81.18,0,0,1,16-7.58c6.72-2.5,11.31-3.87,14.42-4.23s1.53,0,5,1.43,3.66,2,4.37,1,3-3.87,4.48-3.76,3.18.71,7,1.37,5.34.31,6.89-.51,3.49-2.44,3.86-2.44a65.66,65.66,0,0,1,6.25,2.08c2.62,1,2.66,1.13,2.13,1.79a13.64,13.64,0,0,0-2.57,4.22c-1.27,2.86-.66,1.33.54,4.33s2.07,2.85,1.52,5-3,4.22-4.8,6.36-1.37,2.49,3.06,5a62.29,62.29,0,0,0,8.36,4.33c5,2.23,5.19,1.42,11,3.15s5.09,1.94,7.11,4.28,2.13,4.58,5.62,5.8,7.23,1.22,9.25,2.49,3.66,3.11,6.4,3.62,2.72.87,4-1.12,2.41-3.77,1.92-4.78-2-2.6-1.64-3.57a66.68,66.68,0,0,1,3.33-6c.72-1.17,2.52-1.48,6.85-1.68s7.31-.82,8,1.73.55,1.37,3.88,2.75,3.66,1.37,6.44,2.44,1.37,2.6,2.8,2.49a17.18,17.18,0,0,1,6.33.46c2.63.77,7.44,3,12.52,3.26s7-1.32,7.82-1.68,4.37-4.78,6.51-1.73,4.92,3.1,10.27,2.8,5.42-1.12,6.62-2.5a37.27,37.27,0,0,0,5.47-10.12c1-3.57,3.87-11.35,4.63-14.87s0-6.26-.32-8.34.22-3.52,1-5.86-2.56-.92-3.93-.46-1.75-.71-3-1.07-2.58-.66-3.5,1.68-.5,3.52-5.52,3.26-4.1-.56-5.74-2.35-4.42-2.23-6.67-2.9-2.45-.56-2.63.87-.21,2.39-1.84,3-5.37-.11-8.48-1.58-4-2.19-7.11-5.2-2.63-3-3.88-7.63-1.25-8.61-.71-10,1.42-1.78-.93-1.07-3.94,1.12-2.35-2.39,3-3.67,4.7-4.13a45.5,45.5,0,0,1,7.26-.71c3.12-.2,5.53-1.78,6.62-2.24s3.35-1.22,2.2-1.53-4.61-.66-4-1.62,1-.92,2.84-1.12,4.76-.31,7.22-.46,3.93.3,4.76-1.17,1.85-3.67,3.77-4.84,4-.56,9-.77,4.26,1,5.9,2.2,2.72.61,4.87,1,.81,1.69,2.45,2.34,4.65,1.33,8.31,2.5,1.25.66,5.74.66a30.68,30.68,0,0,0,7.87-.56c3.55-.61,5-1.93,7.54-3.71s.77-5.65-.16-8.66-4.87-4.93-6.67-6.31-5.68-5.75-7.76-7.53-4.48-2.29-6.78-3.57-6.4-3.36-6.77-5,.88-1.72,4.27-2.54,2.29-1.53,2.94-3.31.94-1.73,3.72-2.75-3.22-3.16-4.06-4.32,1.86-.82,4.66-1.48,3-2,3.39-3.16.26-1.73-3-1.68-7.43,1.43-12.95,2.9-3,1.53-6.35,4.12-3.54,1.48-3.11,2.91.65,2.8,4,4.58,2,1.83,2.91,2.09,3.22.61,2.18.92-2,1.92-3.51,1.92-2.19,1.58-4.8,3.06a13.82,13.82,0,0,1-5.68,2c-1.92.3-3.29-.31-3-3.57s-1-1.06-3-1.83a7.41,7.41,0,0,1-2.78-1.63,22.62,22.62,0,0,0,4-2A7.82,7.82,0,0,0,1135,441c1-2.5-2.19-1.13-4.48-1.43s-1.65-.51-3.88-.81a4.22,4.22,0,0,1-3.12-2.09,6.93,6.93,0,0,0,2.94.21c1.92-.21,1.49-.72,2.19-1.23s1.27-1,.71-1-2.9.26-4.47.16a16.31,16.31,0,0,0-4.81,0c-2.31.35-1.38,1.22-3,2.28s-1.69,1.43-2.57,3-1.15,1.32-1.74,2.34-.55,3.56-.55,5.3-.45,2.29-1.48,3.71-1,.82-2.79,1.68-.6,1.48-.82,3.21-.82,2.39-1,4.64-1,2.33-2.41,3.91-2.13,1.58-2.23,3.21a19,19,0,0,0,0,5.49c.37,3.16,1.25,2.34,3.72,5.55s3.76,2,2.88,3.62-.7,1-3.72.66-3.49.1-5.66,2.19-2.64,3.26-3.78,4-.77-1.52-1.2-2.6-5.48-1.42-8.92-2.44-4.37-1.63-5.25-1.63-2.21-.2-5.81,1.78-2.8,3.14-2.54,5.73,3.1,3.13,2.29,9.24,3,3.28,4.67,7,.16,3.44-.82,3.9-2,3.67-2.71,6.72.09,3.44-.82,3.28-2,.54-3.68-2-3.11-.15-3.37-1.61-2.38-3.89-1.56-7.25,2.14-3.67-.82-5.42-2.21-2-3.6-5.58a20.15,20.15,0,0,0-4.42-7.56c-2.72-3.28-2.48-2.36-1.73-5.64s1.31-7.57-.33-9.86-8.43-8.62-14-11.6-6.72-.69-9.19-5.42-3.59-9.7-7.7-12.6-2-3.13-6-1.68-4,2.06-3.69,3.21a9.73,9.73,0,0,1,.65,5.8c-.58,3.12-1.39,2.14,2.71,4.58s2.38,1.91,4.43,6.41,2.37,5.35,4,7.18,2.22,3.44,6.32,4.35,3.44-.23,4.49.76-2.87,1.38-2.12,1.84a38.15,38.15,0,0,0,5.08,3.89c3.45,2.14,7,4.36,7.88,6s3.93,8-.5,3.35-4.5-2.51-5.74.69,1.14,5.65,1,8-2.22,1.46-3.62,3.36-2.13,4.19-3.78,5.42-1.14-1.37-2-1.37-1.24,1.14-2.38,3.35,0,3.14.47,6.12,1.33,3.2-1.87,3-2.47-3.13-5.41-5.12-4.67-1.29-7.14-2.82,1.07-1.91,7.21-2.68,6.9-1.37,8.79-2.81,1.22-1.84,3.27-4.74,0-4.05-1.4-7.57a12.75,12.75,0,0,0-4.91-5.8,47.34,47.34,0,0,1-4.75-4.73c-1.81-2-3.71-2.29-6.82-3.05s-2.54-3.59-4.25-4.44-3.45-3.28-7.39-6.94-2.45-6.42-4.26-9.62-3.61-5.65-7.54-5.65-6.9,2.75-10.83,6.56-3.12,5.66-7.7,2.75-6.23-2.59-9.52.15-3.94,5.5-3.94,11-3.93,3.21-7,4.73-5.9,5.35-10.65,14.36.33,4.73-.67,7.79.33,5.5-4.09,9.46-2.47-.45-5.08,2.76a12.81,12.81,0,0,1-12.47,5c-6.23-.77-4.42,1.68-8.36,2.59s-6.07,2.29-5.09-2.14.17-3.82-7.37-3.51-10.18,2.29-9.52,1.23,1-2.91,1.82-7.19,2-5.65.82-5.65-3.62.62-1.81-7,2.46-9,1.64-13.44.32-10.39-.65-13,2-5.19.65-6.57-2.8-3.2-1.8-3.2a69.19,69.19,0,0,1,10.32,1.06c5.26.92,10.66-.76,13.79-.45s9.67,1.67,16.22,2.74,6.4-.91,5.75-10.53.49-14.05-1.49-16-4.09-1.83-6.22-4.42-.49-6.42-5.08-7.8-9.69-.3-7.23-1.21,3.45-1.23.83-3.21S916.07,417.3,918,417s7.55-.3,7.55-.3.49,2.74,3.44,1.52,6.72-2.44,5.92-4.43-2.31-4.43-1.82-4.43,1.64,2.75,7.87,2.75,5.74-.91,5.25-3.51,4.11-2.44,7.22-4.58-1.15-4.58-.49-6.57,4.26-3.21,10.66-3.66,5.23-1.53,4.58-2.29.18-4,.65-8.09-.47-5.51,2.8-7.49,2.29-1.22,9-1.83,2.61-2.14,3.76-2.45,9.18-2.29,10.66-2.9,1.32-.45,0-3.36-3.12-4.58-4.59-18-1.15-13.44,7.05-15.88,6.4-1.68,5.74,5.8-4.27,7.49-5.09,13-.16,8.86,3.29,14.66,3.11,2.9,10.5,2.9,5.73,1.84,10.65,3.51,3.27-3,8-4.73,3.77,1.07,14.92-.61c4.25-.64,5.7-.79,6-.82-.35,0-1.57,0-.31-.71,2.63-1.52,3.29-4.27,7.07-4.73s6.39,1.07,6.22-4.73-2.3-4.89-1.64-9.32.81-2.44,1.14-6-.47-4.12,4.27-5.34,1.49,4.27,7.21,5.49,4.93,2.14,5.91-2.28,4.11-10.24,1.31-9.93-3.44-.16-6.22-4.28-4.43-5-2.63-5,7.88-1.68,16.55-1.38,11.17,1.07,11.66.15-1.48-1.83,1.46-3.66,12.64.91,11.17-.77-10-4-15.75-3.05-19.68,2.6-21.82,2.44-6-1.68-7-2.74-4.09-1.84-4.09-6.88,1.8-7-1.15-11.91,5.4-9,11.15-14.2,4.27-9.47,7.71-9.78,4.77-2.13,3.11-3.81-7.7-7.49-10.66-8.1-7.38-4-12,4,.32,8.71,1.15,12.83-6.4,7.18-11.82,11-7.37,2.9-9,12.67-3.28,10.08,2.79,13.44,7.22,5,4.44,7.94-8.7,2.75-12.31,9.62-2.13,10.24-3.61,13.29-6.06,4.43-7.38,7.48-1.3,8.86-6.88,7.95-2.46-8.4-4.93-12.23-4.43-7-7.37-11.75-.65-9.32-3.45-11.76-3.44-7.33-3.44-7.33l-1,2.29c-1,2.29-.49,3.67-6.07,10.54s-14,7.33-18,5.65S974,324.6,974,319.56s-1-11.76-.16-19.7,3.12-7.34,11.81-12.53,8.86-4.88,11-8.24,8.36-8.1,12-11.15,9.85-14.66,13.12-22.91,9.34-13.29,15.24-22.15,16.41-16.64,29.85-22.29,11.16-6.26,14.26-10.69,4.44-1.83,9.69-2.9,4.42,0-.83,5.19-7.54,10.69-3.11,6.57,7.86-9,14.75-8.71,4.11,0,10.83,3.06,7.87,3.36,4.11,5.8-10.18,1.84-10.18,1.84a10.59,10.59,0,0,0,8.36,5.8c6.24.76,9.68-4.89,13.79-2.75s5.25,3.66-.33,3.21-7.22,3.05-.34,5.49,7.54,2.75,16.57,4,13,7.79,19.84,10.69,14.93.46,12.63,6.73,1.81,12.36-10.16,15.27-11.65-.92-21.64-4a176.77,176.77,0,0,1-17.06-6.11,64.7,64.7,0,0,0,7.21,7.79c4.58,4.28,5.09,8.25,4.58,16s-2.62,9.93,5.27,13.74,6.72,2.75,9.17,2.14,6.56-1.37,5.57-2.6-1.8-3.51-4.42-4.73-2.78-4.12-.16-5.5,5.08,1.22,10.81.92,0-2.14,2.79-5,3-7.79,9.69-10.39,13.93,1.23,15.74-1.67,3.77-6.26,0-10.7-6.73-5.95-4.44-8.09,6.9-7.79,9-4.58,7.54,6.72.66,6.11-2.15,10.23,4.1,9.62,5.73-2.59,10.83-5,15.08-10.54,22.13-13,8.52-1.84,11.3-.61,2.8,3.51,10.51,2,10-3.36,17.22-4.59-.49,2.6,2.79,3.66,3.6,2,6.07.31,10.33-4.42,6.73-7.18-6.24-4.58-6.24-4.58a9.79,9.79,0,0,1,9.51-5.34c6.88.46,17.38,6.87,24.11,11.45s14.92,14.36,14.92,14.36,3-5,.48-13.44-8.68-6.42-8.68-14.36-5.75-5.8-3.78-11.45,7.54-7.79,9-15,2.78-13.13,7.87-13.13,16.06,1.53,16.06,1.53,0,6.56-4.09,16.34,2.13,10.84,1.15,22.75-1.15,13.44,1.63,16.19,8.05,6.11,6.07,11.3-3,8.4-10.32,11.3-16.73,1.22-13.3,3.52a32.83,32.83,0,0,0,12.79,5c4.93.76,2.47-.31,6.41-3.52s12.78-9.62,12.45-12.68-5.07-7.78-1.8-10.08,4.58-5.79,9.68-2.89,10,13.74,10,13.28-1-10.69-7-16.79-16.06-.32-16.06-5.66,2.78-12.68,2.12-18.47-2.94-11.61.82-16.65,3.94-9,3.94-9a21.53,21.53,0,0,1,.33,10.69c-1.31,6,.66,9.47,3.45,9.47s15.23.15,8.52-1.84-8.68-3.81-2-7.48,6.38-1.22,16.22,1.07,12.14,4,15.43,3.82,2.78-.46,1.62-3.36a13,13,0,0,0-5.73-6.87c-3.12-2-5.24.45-6.23-2.6s-2.79-10.69-3.61-13.59,2.47-.61,7.7-.61,19.53-.77,30.51-1.07.18-11.76-.66-19.86,20.34-8.4,30.67-9.92,22.31-1.07,41.65-5.65,6.9-3.82,9.68-9.31,7.54-6.42,13.28-6.42,11,1.06,8.87,1.83-8.54,4,1.47,6.11,7.38,2,2.13,3.82-.82,5.19,9.35,5.19,4.09-.92,2.45-4.27,1.48-2.15,9.85-.77,11.65,2.75,16.23,7,5.41,3.21,7.05,9.17-.16,5-7.2,10.53-11.33,5.5-21.49,11.92-7.71,9.77-13.28,14.05-4.11,3,7.7,0,18.2-5,24.28-4.43,9,2.9,13.6,2.9-.32.76,14.11.76,12.29,0,7,4.13,1,5.34,7.38,5.34,14.28.31,20.18-.61.82-5.34,7.87-5.65,9.34-.92,16.88-.92,5.25,3.06,7.87,5.81,6.23,4.58,3.78,10.08-3.78,5.65-2.3,13.13,5.26,8.55,9.84,9.92,4.59-6.71,9-9.46,5.41,5.49,10.5,4.27a30.1,30.1,0,0,1,15.24.76,24.69,24.69,0,0,0,14.43.77c6.23-1.37,4.27-3.82,2.13-7.63s-2.29-3.52,1.65-7.49,6.56-2,19.35,1.38,8.7,3.35,15.9,5.34,4.92,1.53,15.91,6.57,8.87,11,13.94,14.2,5.41,0,15.59-.91,10,1.21,21.15,4.12,8.19,6.56,8.19,9.78-3.11,5.65,3.78,7.17,9.67,2.9,15.57,1.38.67,1.52,13.79,1.67,8.69-1.52,12.63,1.23,4.91,8.24,11.3,7.63,5.91-.46,3.29-6.11-4.27-6.57-.49-6.41,11.48,1.83,25.74,4.12,14.75,4.89,26.41,12.22,14.91,7.94,23.45,14.51c3.24,2.49,3.89,3.22,4,3.4a22,22,0,0,1,4.39,1.79c9.17,4.28,7.54,2.9,15.42,6.72a89.85,89.85,0,0,1,14.57,9.16S2020.73,294.2,2014.83,294.82ZM1249.7,450s-.88,1.17,3.72-2.5-2.15-.15-4.77-.91-3.45-2-2.61-5.35-.34-3.36-3.13-7.79c0,0-1.47-.91-4.59.91s-4.92-1.82-8.7-.45-7.87.76-10.16,6.42-4.91,2-5.74,6.56-7.87,7-7.87,7,2.8,2.75,4.92,5.35.66.92,2.78,9.47,3.62,7.79,6.57,9a65.67,65.67,0,0,1,7.55,4.12s-2.79-1.68-2.79,2.9-4.44,7.79-4,14.51-6,13-.81,13.6,3.61,2.89,9.35,4.43,9,2.59,17.39,2.59,3.76-3.21,2.61-7.94a63.53,63.53,0,0,1-2.12-13c-.33-5.19-2.31-3.82-3.62-7s.66-5,4.58-5,4.45-.15,2.31-3.66-.81-4.89-3.46-6.42-3.77,5-3.77,5-1.62-1.52-1-7.94,1.15-3.36-.81-4.58-3.13.3-5.76-4-.31-3.36-3.42-8.55-1.49-2.45,2-2.45,1.64-.76,0-2.44-2.78-4.27,1.64-4,10.18,1.22,12.29,1.37S1249.7,450,1249.7,450ZM637.87,214.73c-1.51,2.61,2.57,6,5.52,4.91s3.92.12,5.61-1.23,1.83-3.31-.16-5.25-1.2-3.07-1.53-3.27C643.55,207.58,639.4,212.12,637.87,214.73Zm810.7-168.38c-4.45.15-9.37.31-5.25,1.68s2.45,8.25,10.32,4.43,6.23-4.13,11.65-6.42,2.28-1.19-4.27-2.9C1456.93,42.07,1453,46.2,1448.57,46.35Z"/><path class="cls-3" d="M668.4,908.17a3,3,0,1,0-2.87,5.22c3.55,2,5.58,4.11,5.58,5.93,0,2.23-3.15,5.67-12,8.68s-20.42,4.6-32.89,4.6S602.09,931,593.35,928s-12-6.45-12-8.68c0-1.82,2-4,5.59-5.93a3,3,0,0,0-2.87-5.22c-4,2.18-8.68,5.87-8.68,11.15,0,4,2.79,9.82,16,14.32,9.34,3.17,21.7,4.92,34.8,4.92s25.46-1.75,34.8-4.92c13.26-4.5,16-10.27,16-14.32C677.07,914,672.35,910.35,668.4,908.17Z"/><path class="cls-4" d="M603.74,923.69a96.76,96.76,0,0,0,45,0c7.4-2.09,11.15-5.11,11.15-9s-3.75-6.9-11.15-9c-1.64-.46-3.43-.87-5.33-1.22-1,1.79-2.11,3.62-3.24,5.51,2.1.31,4.08.7,5.87,1.15,5.44,1.39,7.43,3,7.84,3.55-.41.6-2.4,2.16-7.84,3.55a82.53,82.53,0,0,1-18.77,2.13c-.33,0-.67,0-1,0s-.68,0-1,0a82.67,82.67,0,0,1-18.77-2.13c-5.44-1.39-7.43-3-7.84-3.55.41-.6,2.4-2.16,7.84-3.55,1.8-.45,3.77-.84,5.87-1.15-1.13-1.89-2.21-3.72-3.24-5.51q-2.85.53-5.33,1.22c-7.39,2.09-11.15,5.12-11.15,9S596.35,921.6,603.74,923.69Z"/><path class="cls-5" d="M626.23,914.46a7.52,7.52,0,0,0,6.45-3.61c9.69-15.86,21.24-36.76,21.24-46.27a27.69,27.69,0,1,0-55.38,0c0,9.51,11.56,30.41,21.25,46.27A7.49,7.49,0,0,0,626.23,914.46ZM615.1,862.67a11.13,11.13,0,1,1,11.13,11.13A11.14,11.14,0,0,1,615.1,862.67Z"/><path class="cls-6" d="M745.66,794.43a3,3,0,0,0-2.87,5.23c3.55,1.94,5.58,4.11,5.58,5.92,0,2.23-3.15,5.68-12,8.68s-20.42,4.61-32.89,4.61-24.14-1.64-32.88-4.61-12-6.45-12-8.68c0-1.81,2-4,5.59-5.92a3,3,0,0,0-2.87-5.23c-4,2.18-8.67,5.88-8.67,11.15,0,4,2.78,9.82,16,14.32,9.34,3.18,21.7,4.92,34.8,4.92s25.46-1.74,34.8-4.92c13.26-4.5,16-10.27,16-14.32C754.33,800.31,749.61,796.61,745.66,794.43Z"/><path class="cls-7" d="M681,810a97.12,97.12,0,0,0,45,0c7.4-2.09,11.15-5.12,11.15-9s-3.75-6.9-11.15-9c-1.64-.46-3.43-.87-5.32-1.21q-1.56,2.67-3.25,5.5a57,57,0,0,1,5.87,1.16c5.45,1.38,7.43,2.94,7.84,3.54-.41.6-2.39,2.17-7.84,3.55a82.51,82.51,0,0,1-18.76,2.13c-.34,0-.68,0-1,0s-.68,0-1,0a82.67,82.67,0,0,1-18.77-2.13c-5.44-1.38-7.43-3-7.84-3.55.41-.6,2.4-2.16,7.85-3.54a57.34,57.34,0,0,1,5.86-1.16q-1.7-2.84-3.24-5.5c-1.9.34-3.68.75-5.33,1.21-7.39,2.09-11.15,5.12-11.15,9S673.61,807.87,681,810Z"/><path class="cls-8" d="M703.49,800.72a7.52,7.52,0,0,0,6.45-3.61c9.69-15.86,21.24-36.76,21.24-46.27a27.69,27.69,0,1,0-55.38,0c0,9.51,11.56,30.41,21.25,46.27A7.49,7.49,0,0,0,703.49,800.72Zm-11.13-51.78a11.13,11.13,0,1,1,11.13,11.13A11.15,11.15,0,0,1,692.36,748.94Z"/><path class="cls-9" d="M1425.74,671.54a3,3,0,0,0-2.87,5.22c3.55,2,5.59,4.11,5.59,5.93,0,2.22-3.16,5.67-12,8.67S1396,696,1383.57,696s-24.14-1.64-32.88-4.61-12-6.45-12-8.67c0-1.82,2-4,5.59-5.93a3,3,0,0,0-2.87-5.22c-4,2.17-8.67,5.87-8.67,11.15,0,4,2.78,9.81,16,14.32,9.34,3.17,21.69,4.92,34.79,4.92s25.46-1.75,34.8-4.92c13.26-4.51,16-10.28,16-14.32C1434.41,677.41,1429.7,673.71,1425.74,671.54Z"/><path class="cls-10" d="M1361.09,687.06a96.72,96.72,0,0,0,45,0c7.4-2.09,11.15-5.12,11.15-9s-3.75-6.9-11.15-9c-1.64-.47-3.42-.87-5.32-1.22q-1.54,2.67-3.24,5.5c2.1.32,4.07.7,5.86,1.16,5.45,1.39,7.44,3,7.84,3.55-.4.6-2.39,2.16-7.84,3.55a82,82,0,0,1-18.76,2.12c-.34,0-.68,0-1,0s-.68,0-1,0a82,82,0,0,1-18.76-2.12c-5.45-1.39-7.44-3-7.85-3.55.41-.6,2.4-2.16,7.85-3.55,1.79-.46,3.76-.84,5.86-1.16q-1.7-2.83-3.24-5.5c-1.9.35-3.68.75-5.32,1.22-7.4,2.09-11.15,5.11-11.15,9S1353.69,685,1361.09,687.06Z"/><path class="cls-11" d="M1383.57,677.83a7.51,7.51,0,0,0,6.45-3.62c9.69-15.86,21.25-36.76,21.25-46.27a27.7,27.7,0,0,0-55.39,0c0,9.51,11.56,30.41,21.25,46.27A7.5,7.5,0,0,0,1383.57,677.83ZM1372.44,626a11.13,11.13,0,1,1,11.13,11.13A11.15,11.15,0,0,1,1372.44,626Z"/><path class="cls-12" d="M1567,744.55a3,3,0,1,0-2.87,5.22c3.55,2,5.58,4.11,5.58,5.93,0,2.22-3.15,5.67-12,8.68s-20.42,4.6-32.89,4.6-24.14-1.64-32.88-4.6-12-6.46-12-8.68c0-1.82,2-4,5.59-5.93a3,3,0,0,0-2.87-5.22c-4,2.17-8.68,5.87-8.68,11.15,0,4,2.79,9.81,16,14.32,9.34,3.17,21.7,4.92,34.8,4.92s25.46-1.75,34.8-4.92c13.26-4.51,16-10.28,16-14.32C1575.69,750.42,1571,746.72,1567,744.55Z"/><path class="cls-13" d="M1502.36,760.07a96.76,96.76,0,0,0,45,0c7.4-2.09,11.15-5.12,11.15-9s-3.75-6.9-11.15-9c-1.64-.47-3.43-.87-5.33-1.22q-1.54,2.67-3.24,5.5c2.1.32,4.08.7,5.87,1.16,5.44,1.39,7.43,3,7.84,3.55-.41.6-2.4,2.16-7.84,3.55a82,82,0,0,1-18.77,2.12c-.33,0-.67,0-1,0s-.68,0-1,0a82.14,82.14,0,0,1-18.77-2.12c-5.44-1.39-7.43-3-7.84-3.55.41-.6,2.4-2.16,7.84-3.55,1.8-.46,3.77-.84,5.87-1.16-1.13-1.88-2.21-3.72-3.24-5.5-1.9.35-3.69.75-5.33,1.22-7.39,2.09-11.15,5.11-11.15,9S1495,758,1502.36,760.07Z"/><path class="cls-14" d="M1524.85,750.84a7.53,7.53,0,0,0,6.45-3.62c9.69-15.86,21.24-36.76,21.24-46.27a27.69,27.69,0,0,0-55.38,0c0,9.51,11.56,30.41,21.25,46.27A7.5,7.5,0,0,0,1524.85,750.84Zm-11.13-51.79a11.13,11.13,0,1,1,11.13,11.13A11.15,11.15,0,0,1,1513.72,699.05Z"/><path class="cls-15" d="M1085.7,464.07a3,3,0,1,0-2.87,5.22c3.55,1.95,5.58,4.11,5.58,5.93,0,2.22-3.15,5.67-12,8.68s-20.42,4.6-32.89,4.6-24.14-1.64-32.88-4.6-12-6.46-12-8.68c0-1.82,2-4,5.59-5.93a3,3,0,0,0-2.87-5.22c-4,2.17-8.68,5.87-8.68,11.15,0,4,2.79,9.81,16,14.32,9.34,3.17,21.7,4.92,34.8,4.92s25.46-1.75,34.8-4.92c13.26-4.51,16-10.28,16-14.32C1094.37,469.94,1089.65,466.24,1085.7,464.07Z"/><path class="cls-16" d="M1021,479.59a96.76,96.76,0,0,0,45,0c7.4-2.09,11.15-5.12,11.15-9s-3.75-6.9-11.15-9c-1.64-.47-3.43-.87-5.33-1.22-1,1.78-2.11,3.62-3.24,5.5,2.1.32,4.08.7,5.87,1.16,5.44,1.39,7.43,2.95,7.84,3.55-.41.6-2.4,2.16-7.84,3.55a82,82,0,0,1-18.77,2.12c-.33,0-.67,0-1,0s-.68,0-1,0a82.14,82.14,0,0,1-18.77-2.12c-5.44-1.39-7.43-2.95-7.84-3.55.41-.6,2.4-2.16,7.84-3.55,1.8-.46,3.77-.84,5.87-1.16-1.13-1.88-2.21-3.72-3.24-5.5-1.9.35-3.68.75-5.33,1.22-7.39,2.09-11.15,5.11-11.15,9S1013.65,477.5,1021,479.59Z"/><path class="cls-17" d="M1043.53,470.36a7.53,7.53,0,0,0,6.45-3.62c9.69-15.86,21.24-36.76,21.24-46.27a27.69,27.69,0,0,0-55.38,0c0,9.51,11.56,30.41,21.25,46.27A7.5,7.5,0,0,0,1043.53,470.36Zm-11.13-51.79a11.13,11.13,0,1,1,11.13,11.13A11.15,11.15,0,0,1,1032.4,418.57Z"/><path class="cls-18" d="M968.83,356a3,3,0,1,0-2.87,5.22c3.55,1.95,5.58,4.11,5.58,5.93,0,2.22-3.15,5.67-12,8.67s-20.42,4.61-32.89,4.61-24.14-1.64-32.88-4.61-12-6.45-12-8.67c0-1.82,2-4,5.59-5.93A3,3,0,0,0,884.5,356c-4,2.17-8.67,5.87-8.67,11.15,0,4,2.78,9.81,16,14.31,9.34,3.18,21.7,4.93,34.8,4.93s25.46-1.75,34.8-4.93c13.26-4.5,16-10.27,16-14.31C977.5,361.91,972.79,358.21,968.83,356Z"/><path class="cls-19" d="M904.18,371.56a96.72,96.72,0,0,0,45,0c7.4-2.09,11.15-5.12,11.15-9s-3.75-6.9-11.15-9a53.71,53.71,0,0,0-5.32-1.22c-1,1.78-2.12,3.61-3.24,5.5,2.1.32,4.07.7,5.86,1.16,5.45,1.39,7.44,3,7.84,3.55-.4.6-2.39,2.16-7.84,3.54a81.39,81.39,0,0,1-18.76,2.13c-.34,0-.68,0-1,0s-.68,0-1,0a81.39,81.39,0,0,1-18.76-2.13c-5.45-1.38-7.44-2.94-7.85-3.54.41-.6,2.4-2.16,7.85-3.55,1.79-.46,3.76-.84,5.86-1.16q-1.69-2.83-3.24-5.5a53.71,53.71,0,0,0-5.32,1.22c-7.4,2.09-11.15,5.11-11.15,9S896.78,369.47,904.18,371.56Z"/><path class="cls-20" d="M926.66,362.32a7.51,7.51,0,0,0,6.45-3.61c9.69-15.86,21.25-36.76,21.25-46.27a27.7,27.7,0,0,0-55.39,0c0,9.51,11.56,30.41,21.25,46.27A7.49,7.49,0,0,0,926.66,362.32Zm-11.13-51.78a11.13,11.13,0,1,1,11.13,11.13A11.15,11.15,0,0,1,915.53,310.54Z"/><path class="cls-21" d="M1304.86,584.42a3,3,0,0,0-2.87,5.22c3.55,2,5.59,4.11,5.59,5.93,0,2.22-3.16,5.67-12,8.68s-20.42,4.6-32.88,4.6-24.15-1.63-32.89-4.6-12-6.46-12-8.68c0-1.82,2-4,5.59-5.93a3,3,0,0,0-2.87-5.22c-4,2.17-8.67,5.87-8.67,11.15,0,4,2.78,9.81,16,14.32,9.34,3.17,21.69,4.92,34.8,4.92s25.45-1.75,34.79-4.92c13.26-4.51,16-10.27,16-14.32C1313.53,590.29,1308.82,586.59,1304.86,584.42Z"/><path class="cls-22" d="M1240.21,599.94a96.72,96.72,0,0,0,45,0c7.4-2.09,11.15-5.11,11.15-9s-3.75-6.9-11.15-9c-1.64-.46-3.42-.87-5.32-1.22-1,1.78-2.11,3.62-3.24,5.5,2.1.32,4.07.71,5.86,1.16,5.45,1.39,7.44,3,7.85,3.55-.41.6-2.4,2.16-7.85,3.55a82.51,82.51,0,0,1-18.76,2.13c-.34,0-.68,0-1,0s-.69,0-1,0a82.51,82.51,0,0,1-18.76-2.13c-5.45-1.39-7.44-3-7.85-3.55.41-.6,2.4-2.16,7.85-3.55,1.79-.45,3.76-.84,5.86-1.16-1.13-1.88-2.21-3.72-3.24-5.5-1.9.35-3.68.76-5.32,1.22-7.4,2.09-11.15,5.11-11.15,9S1232.81,597.85,1240.21,599.94Z"/><path class="cls-23" d="M1262.7,590.71a7.48,7.48,0,0,0,6.44-3.62c9.69-15.86,21.25-36.76,21.25-46.27a27.7,27.7,0,0,0-55.39,0c0,9.51,11.56,30.41,21.25,46.27A7.49,7.49,0,0,0,1262.7,590.71Zm-11.14-51.79a11.14,11.14,0,1,1,11.14,11.13A11.15,11.15,0,0,1,1251.56,538.92Z"/><path class="cls-24" d="M1839.16,919.49a3,3,0,1,0-2.86,5.22c3.54,1.95,5.58,4.11,5.58,5.93,0,2.23-3.15,5.68-12,8.68s-20.41,4.6-32.88,4.6-24.15-1.63-32.88-4.6-12-6.45-12-8.68c0-1.82,2-4,5.58-5.93a3,3,0,1,0-2.87-5.22c-3.95,2.18-8.67,5.88-8.67,11.15,0,4.05,2.78,9.82,16,14.32,9.34,3.17,21.7,4.92,34.8,4.92s25.46-1.75,34.8-4.92c13.25-4.5,16-10.27,16-14.32C1847.84,925.37,1843.12,921.67,1839.16,919.49Z"/><path class="cls-25" d="M1774.51,935a96.76,96.76,0,0,0,45,0c7.4-2.09,11.15-5.11,11.15-9s-3.75-6.9-11.15-9c-1.64-.46-3.43-.87-5.33-1.22-1,1.79-2.11,3.62-3.24,5.51a57.55,57.55,0,0,1,5.87,1.16c5.44,1.38,7.43,2.94,7.84,3.54-.41.6-2.4,2.16-7.84,3.55A82.67,82.67,0,0,1,1798,931.7c-.34,0-.68,0-1,0s-.68,0-1,0a82.53,82.53,0,0,1-18.77-2.13c-5.44-1.39-7.43-3-7.84-3.55.41-.6,2.4-2.16,7.84-3.54a57.55,57.55,0,0,1,5.87-1.16c-1.13-1.89-2.21-3.72-3.24-5.51-1.9.35-3.69.76-5.33,1.22-7.4,2.09-11.15,5.12-11.15,9S1767.11,932.92,1774.51,935Z"/><path class="cls-26" d="M1797,925.78a7.49,7.49,0,0,0,6.44-3.61c9.7-15.86,21.25-36.76,21.25-46.27a27.69,27.69,0,0,0-55.38,0c0,9.51,11.55,30.41,21.25,46.27A7.49,7.49,0,0,0,1797,925.78ZM1785.87,874A11.13,11.13,0,1,1,1797,885.13,11.14,11.14,0,0,1,1785.87,874Z"/><path class="cls-27" d="M567.34,657.3a3,3,0,1,0-2.87,5.22c3.54,2,5.58,4.11,5.58,5.93,0,2.23-3.15,5.67-12,8.68s-20.41,4.6-32.88,4.6-24.14-1.63-32.88-4.6-12-6.45-12-8.68c0-1.82,2-4,5.58-5.93A3,3,0,1,0,483,657.3c-3.95,2.17-8.67,5.87-8.67,11.15,0,4,2.78,9.82,16,14.32,9.34,3.17,21.7,4.92,34.8,4.92s25.46-1.75,34.8-4.92c13.26-4.5,16-10.27,16-14.32C576,663.17,571.29,659.47,567.34,657.3Z"/><path class="cls-28" d="M502.68,672.82a96.76,96.76,0,0,0,45,0c7.4-2.09,11.15-5.11,11.15-9s-3.75-6.9-11.15-9c-1.64-.46-3.43-.87-5.33-1.22q-1.55,2.67-3.24,5.51c2.1.31,4.08.7,5.87,1.15,5.44,1.39,7.43,3,7.84,3.55-.41.6-2.4,2.16-7.84,3.55a82.67,82.67,0,0,1-18.77,2.13c-.34,0-.68,0-1,0s-.68,0-1,0a82.53,82.53,0,0,1-18.77-2.13c-5.44-1.39-7.43-3-7.84-3.55.41-.6,2.4-2.16,7.84-3.55,1.79-.45,3.77-.84,5.87-1.15q-1.69-2.83-3.24-5.51c-1.9.35-3.69.76-5.33,1.22-7.4,2.09-11.15,5.12-11.15,9S495.28,670.73,502.68,672.82Z"/><path class="cls-29" d="M525.17,663.59a7.48,7.48,0,0,0,6.44-3.62c9.7-15.85,21.25-36.75,21.25-46.26a27.69,27.69,0,1,0-55.38,0c0,9.51,11.55,30.41,21.25,46.26A7.48,7.48,0,0,0,525.17,663.59ZM514,611.8a11.13,11.13,0,1,1,11.13,11.13A11.15,11.15,0,0,1,514,611.8Z"/><path class="cls-30" d="M415.9,489a3,3,0,1,0-2.87,5.22c3.55,1.95,5.58,4.11,5.58,5.93,0,2.22-3.15,5.67-12,8.68s-20.42,4.6-32.89,4.6-24.14-1.63-32.88-4.6-12-6.46-12-8.68c0-1.82,2-4,5.59-5.93a3,3,0,0,0-2.87-5.22c-4,2.17-8.67,5.87-8.67,11.15,0,4,2.78,9.81,16,14.32,9.34,3.17,21.7,4.92,34.8,4.92s25.46-1.75,34.8-4.92c13.26-4.51,16-10.28,16-14.32C424.57,494.91,419.86,491.21,415.9,489Z"/><path class="cls-31" d="M351.24,504.56a96.76,96.76,0,0,0,45,0c7.4-2.09,11.15-5.12,11.15-9s-3.75-6.9-11.15-9c-1.64-.47-3.43-.87-5.32-1.22-1,1.78-2.12,3.62-3.25,5.5a59.82,59.82,0,0,1,5.87,1.16c5.45,1.39,7.43,3,7.84,3.55-.41.6-2.39,2.16-7.84,3.55a82,82,0,0,1-18.76,2.12c-.34,0-.68,0-1,0s-.68,0-1,0A82,82,0,0,1,354,499.12c-5.45-1.39-7.44-2.95-7.85-3.55.41-.6,2.4-2.16,7.85-3.55,1.79-.46,3.76-.84,5.86-1.16-1.13-1.88-2.21-3.72-3.24-5.5-1.9.35-3.68.75-5.33,1.22-7.39,2.09-11.14,5.11-11.14,9S343.85,502.47,351.24,504.56Z"/><path class="cls-32" d="M373.73,495.33a7.5,7.5,0,0,0,6.45-3.62c9.69-15.86,21.24-36.76,21.24-46.27a27.69,27.69,0,0,0-55.38,0c0,9.51,11.56,30.41,21.25,46.27A7.48,7.48,0,0,0,373.73,495.33ZM362.6,443.54a11.13,11.13,0,1,1,11.13,11.13A11.15,11.15,0,0,1,362.6,443.54Z"/><path class="cls-33" d="M504.24,404.91a3,3,0,1,0-2.87,5.22c3.55,1.95,5.58,4.11,5.58,5.93,0,2.22-3.15,5.67-12,8.67s-20.41,4.61-32.88,4.61-24.14-1.64-32.88-4.61-12-6.45-12-8.67c0-1.82,2-4,5.58-5.93a3,3,0,1,0-2.86-5.22c-4,2.17-8.68,5.87-8.68,11.15,0,4,2.79,9.81,16,14.32,9.34,3.17,21.7,4.92,34.8,4.92s25.46-1.75,34.8-4.92c13.26-4.51,16-10.28,16-14.32C512.91,410.78,508.19,407.08,504.24,404.91Z"/><path class="cls-34" d="M439.58,420.43a96.76,96.76,0,0,0,45,0c7.4-2.09,11.15-5.12,11.15-9s-3.75-6.9-11.15-9c-1.64-.47-3.43-.87-5.33-1.22q-1.55,2.67-3.24,5.5c2.1.32,4.08.7,5.87,1.16,5.44,1.39,7.43,2.95,7.84,3.55-.41.6-2.4,2.16-7.84,3.55a82,82,0,0,1-18.77,2.12c-.33,0-.68,0-1,0s-.68,0-1,0A82.14,82.14,0,0,1,442.28,415c-5.44-1.39-7.43-2.95-7.84-3.55.41-.6,2.4-2.16,7.84-3.55,1.8-.46,3.77-.84,5.87-1.16q-1.69-2.84-3.24-5.5c-1.9.35-3.69.75-5.33,1.22-7.4,2.09-11.15,5.11-11.15,9S432.18,418.34,439.58,420.43Z"/><path class="cls-35" d="M462.07,411.19a7.52,7.52,0,0,0,6.45-3.61c9.69-15.86,21.24-36.76,21.24-46.27a27.69,27.69,0,0,0-55.38,0c0,9.51,11.55,30.41,21.25,46.27A7.49,7.49,0,0,0,462.07,411.19Zm-11.13-51.78a11.13,11.13,0,1,1,11.13,11.13A11.14,11.14,0,0,1,450.94,359.41Z"/><path class="cls-36" d="M289.7,447a3,3,0,0,0-2.87,5.22c3.55,1.95,5.59,4.11,5.59,5.93,0,2.23-3.15,5.68-12,8.68s-20.42,4.6-32.88,4.6-24.15-1.63-32.89-4.6-12-6.45-12-8.68c0-1.82,2-4,5.58-5.93a3,3,0,1,0-2.87-5.22c-4,2.18-8.67,5.88-8.67,11.15,0,4.05,2.78,9.82,16,14.32,9.34,3.17,21.7,4.92,34.8,4.92s25.46-1.75,34.8-4.92c13.25-4.5,16-10.27,16-14.32C298.37,452.85,293.66,449.15,289.7,447Z"/><path class="cls-37" d="M225.05,462.49a86.19,86.19,0,0,0,22.49,2.65A86.3,86.3,0,0,0,270,462.49c7.39-2.09,11.14-5.11,11.14-9s-3.75-6.9-11.14-9q-2.47-.69-5.33-1.22c-1,1.79-2.11,3.62-3.24,5.51a57.34,57.34,0,0,1,5.86,1.16c5.45,1.38,7.44,2.94,7.85,3.54-.41.6-2.4,2.16-7.85,3.55a82.51,82.51,0,0,1-18.76,2.13c-.34,0-.68,0-1,0s-.69,0-1,0a82.51,82.51,0,0,1-18.76-2.13c-5.45-1.39-7.43-2.95-7.84-3.55.41-.6,2.39-2.16,7.84-3.54a57,57,0,0,1,5.87-1.16c-1.13-1.89-2.21-3.72-3.25-5.51-1.89.35-3.68.76-5.32,1.22-7.4,2.09-11.15,5.12-11.15,9S217.65,460.4,225.05,462.49Z"/><path class="cls-38" d="M247.54,453.26a7.49,7.49,0,0,0,6.44-3.61c9.69-15.86,21.25-36.76,21.25-46.27a27.69,27.69,0,0,0-55.38,0c0,9.51,11.55,30.41,21.24,46.27A7.51,7.51,0,0,0,247.54,453.26Zm-11.13-51.78a11.13,11.13,0,1,1,11.13,11.13A11.14,11.14,0,0,1,236.41,401.48Z"/></g></g></svg>