<svg id="Layer_1" data-name="Layer 1" xmlns="http://www.w3.org/2000/svg" xmlns:xlink="http://www.w3.org/1999/xlink" viewBox="0 0 463.74 338.62"><defs><style>.cls-1{mask:url(#mask);filter:url(#luminosity-noclip-2);}.cls-2{mix-blend-mode:multiply;fill:url(#Áåçûìÿííûé_ãðàäèåíò_12);}.cls-3{mask:url(#mask-2);}.cls-4{fill:url(#Gradiente_sem_nome_69);}.cls-5{fill:#0b1f6e;}.cls-6{fill:#a1a7ff;}.cls-7{fill:#dfdff4;}.cls-8{fill:#fa3e6a;}.cls-9{fill:#12348e;}.cls-10{fill:#293f77;}.cls-11{fill:#383872;}.cls-12{fill:#23106c;}.cls-13{fill:#ff969b;}.cls-14{fill:#683e7f;}.cls-15{fill:#ff908b;}.cls-16{fill:#821128;}.cls-17{fill:#292959;}.cls-18{fill:#482c5b;}.cls-19{fill:#ffa4a1;}.cls-20{filter:url(#luminosity-noclip);}</style><filter id="luminosity-noclip" x="84.88" y="-8448.3" width="378.86" height="32766" filterUnits="userSpaceOnUse" color-interpolation-filters="sRGB"><feFlood flood-color="#fff" result="bg"/><feBlend in="SourceGraphic" in2="bg"/></filter><mask id="mask" x="84.88" y="-8448.3" width="378.86" height="32766" maskUnits="userSpaceOnUse"><g class="cls-20"/></mask><linearGradient id="Áåçûìÿííûé_ãðàäèåíò_12" x1="1859.95" y1="-3212.11" x2="1859.95" y2="-3686.8" gradientTransform="matrix(1.08, 0.1, -0.06, 0.72, -1952.48, 2458.63)" gradientUnits="userSpaceOnUse"><stop offset="0"/><stop offset="0.06" stop-color="#181818"/><stop offset="0.27" stop-color="#5d5d5d"/><stop offset="0.46" stop-color="#979797"/><stop offset="0.63" stop-color="#c4c4c4"/><stop offset="0.78" stop-color="#e4e4e4"/><stop offset="0.91" stop-color="#f8f8f8"/><stop offset="1" stop-color="#fff"/></linearGradient><filter id="luminosity-noclip-2" x="84.88" y="0" width="378.86" height="335.94" filterUnits="userSpaceOnUse" color-interpolation-filters="sRGB"><feFlood flood-color="#fff" result="bg"/><feBlend in="SourceGraphic" in2="bg"/></filter><mask id="mask-2" x="84.88" y="0" width="378.86" height="335.94" maskUnits="userSpaceOnUse"><g class="cls-1"><path class="cls-2" d="M297.74,2.45q-6.56-1-13.09-1.59C184.2-8.19,88.9,56,85.08,98.48c-5.28,58.55,97.1,91.28,93.24,134.1-2,22.55-21.21,46.58-22.6,62.09-1.64,18.14,9.41,37.83,40.12,40.59C321.67,346.6,458.5,212,463.37,158c2.06-22.8-4.64-46.8-17.72-70.1C421.62,45.06,366,12.86,297.74,2.45Z"/></g></mask><linearGradient id="Gradiente_sem_nome_69" x1="1859.95" y1="-3212.11" x2="1859.95" y2="-3686.8" gradientTransform="matrix(1.08, 0.1, -0.06, 0.72, -1952.48, 2458.63)" gradientUnits="userSpaceOnUse"><stop offset="0.16" stop-color="#e08197"/><stop offset="1" stop-color="#e08197" stop-opacity="0"/></linearGradient></defs><title>Decoupled Architecture </title><g class="cls-3"><path class="cls-4" d="M297.74,2.45q-6.56-1-13.09-1.59C184.2-8.19,88.9,56,85.08,98.48c-5.28,58.55,97.1,91.28,93.24,134.1-2,22.55-21.21,46.58-22.6,62.09-1.64,18.14,9.41,37.83,40.12,40.59C321.67,346.6,458.5,212,463.37,158c2.06-22.8-4.64-46.8-17.72-70.1C421.62,45.06,366,12.86,297.74,2.45Z"/></g><path class="cls-5" d="M16.53,197.53H184.17A16.46,16.46,0,0,1,200.63,214V315.6a20.21,20.21,0,0,1-20.21,20.21H20.21A20.21,20.21,0,0,1,0,315.6V214.06A16.53,16.53,0,0,1,16.53,197.53Z"/><rect class="cls-6" x="4.14" y="201.18" width="192.35" height="130.31" rx="13.12"/><path class="cls-6" d="M35.76,316.33a1.49,1.49,0,1,1,1.47-1.49A1.48,1.48,0,0,1,35.76,316.33Z"/><path class="cls-6" d="M39.59,316.33a1.49,1.49,0,0,1,0-3,1.49,1.49,0,0,1,0,3Z"/><path class="cls-6" d="M43.42,316.33a1.49,1.49,0,0,1,0-3,1.49,1.49,0,0,1,0,3Z"/><path class="cls-6" d="M173.19,217.37H4.16V322.11c0,5.18,3.17,9.38,7.09,9.38H189.48c3.83,0,6.92-4.1,6.92-9.16v-105Z"/><path class="cls-7" d="M15.33,322.92a.85.85,0,1,1-1.69,0,.85.85,0,1,1,1.69,0Z"/><path class="cls-7" d="M19.73,322.92a.85.85,0,1,1-.85-.86A.85.85,0,0,1,19.73,322.92Z"/><path class="cls-7" d="M24.13,322.92a.85.85,0,1,1-.85-.86A.85.85,0,0,1,24.13,322.92Z"/><path class="cls-7" d="M28.53,322.92a.85.85,0,1,1-.85-.86A.85.85,0,0,1,28.53,322.92Z"/><path class="cls-7" d="M32.92,322.92a.85.85,0,1,1-.84-.86A.85.85,0,0,1,32.92,322.92Z"/><path class="cls-7" d="M37.32,322.92a.85.85,0,1,1-.85-.86A.85.85,0,0,1,37.32,322.92Z"/><path class="cls-7" d="M41.72,322.92a.85.85,0,1,1-.85-.86A.85.85,0,0,1,41.72,322.92Z"/><path class="cls-7" d="M46.11,322.92a.85.85,0,1,1-.84-.86A.85.85,0,0,1,46.11,322.92Z"/><path class="cls-7" d="M50.51,322.92a.85.85,0,1,1-.85-.86A.85.85,0,0,1,50.51,322.92Z"/><path class="cls-7" d="M54.91,322.92a.85.85,0,1,1-.85-.86A.85.85,0,0,1,54.91,322.92Z"/><path class="cls-7" d="M59.44,322.92a.85.85,0,1,1-.84-.86A.85.85,0,0,1,59.44,322.92Z"/><path class="cls-7" d="M63.84,322.92a.85.85,0,1,1-.85-.86A.85.85,0,0,1,63.84,322.92Z"/><path class="cls-7" d="M68.24,322.92a.85.85,0,1,1-.85-.86A.85.85,0,0,1,68.24,322.92Z"/><path class="cls-7" d="M72.63,322.92a.85.85,0,1,1-1.69,0,.85.85,0,1,1,1.69,0Z"/><path class="cls-7" d="M77,322.92a.85.85,0,1,1-.85-.86A.85.85,0,0,1,77,322.92Z"/><path class="cls-7" d="M81.43,322.92a.85.85,0,1,1-.85-.86A.85.85,0,0,1,81.43,322.92Z"/><path class="cls-7" d="M85.83,322.92a.85.85,0,1,1-.85-.86A.85.85,0,0,1,85.83,322.92Z"/><path class="cls-7" d="M90.22,322.92a.85.85,0,1,1-.84-.86A.85.85,0,0,1,90.22,322.92Z"/><path class="cls-7" d="M94.62,322.92a.85.85,0,1,1-.85-.86A.85.85,0,0,1,94.62,322.92Z"/><path class="cls-7" d="M99,322.92a.85.85,0,1,1-.85-.86A.85.85,0,0,1,99,322.92Z"/><path class="cls-7" d="M103.89,322.92a.85.85,0,1,1-1.69,0,.85.85,0,1,1,1.69,0Z"/><path class="cls-7" d="M108.29,322.92a.85.85,0,1,1-.85-.86A.85.85,0,0,1,108.29,322.92Z"/><path class="cls-7" d="M112.69,322.92a.85.85,0,1,1-.85-.86A.85.85,0,0,1,112.69,322.92Z"/><path class="cls-7" d="M117.09,322.92a.85.85,0,1,1-.85-.86A.85.85,0,0,1,117.09,322.92Z"/><path class="cls-7" d="M121.48,322.92a.85.85,0,1,1-.84-.86A.85.85,0,0,1,121.48,322.92Z"/><path class="cls-7" d="M125.88,322.92a.85.85,0,1,1-.85-.86A.85.85,0,0,1,125.88,322.92Z"/><path class="cls-7" d="M130.28,322.92a.85.85,0,1,1-.85-.86A.85.85,0,0,1,130.28,322.92Z"/><path class="cls-7" d="M134.67,322.92a.85.85,0,1,1-.84-.86A.85.85,0,0,1,134.67,322.92Z"/><path class="cls-7" d="M139.07,322.92a.85.85,0,1,1-.85-.86A.85.85,0,0,1,139.07,322.92Z"/><path class="cls-7" d="M143.47,322.92a.85.85,0,1,1-.85-.86A.85.85,0,0,1,143.47,322.92Z"/><path class="cls-7" d="M148,322.92a.85.85,0,1,1-.84-.86A.85.85,0,0,1,148,322.92Z"/><path class="cls-7" d="M152.4,322.92a.85.85,0,1,1-.85-.86A.85.85,0,0,1,152.4,322.92Z"/><path class="cls-7" d="M156.8,322.92a.85.85,0,1,1-.85-.86A.85.85,0,0,1,156.8,322.92Z"/><path class="cls-7" d="M161.19,322.92a.85.85,0,1,1-1.69,0,.85.85,0,1,1,1.69,0Z"/><path class="cls-7" d="M165.59,322.92a.85.85,0,1,1-.85-.86A.85.85,0,0,1,165.59,322.92Z"/><path class="cls-7" d="M170,322.92a.85.85,0,1,1-.85-.86A.85.85,0,0,1,170,322.92Z"/><path class="cls-7" d="M174.39,322.92a.85.85,0,1,1-.85-.86A.85.85,0,0,1,174.39,322.92Z"/><path class="cls-7" d="M178.78,322.92a.85.85,0,1,1-.84-.86A.85.85,0,0,1,178.78,322.92Z"/><path class="cls-7" d="M183.18,322.92a.85.85,0,1,1-.85-.86A.85.85,0,0,1,183.18,322.92Z"/><path class="cls-7" d="M187.58,322.92a.85.85,0,1,1-.85-.86A.85.85,0,0,1,187.58,322.92Z"/><path class="cls-7" d="M93.16,245.17H77.49c-.47,0-.85-.51-.85-1.14s.38-1.13.85-1.13H93.16c.47,0,.85.51.85,1.13S93.63,245.17,93.16,245.17Z"/><path class="cls-7" d="M102.54,245.17H97.15c-.47,0-.85-.51-.85-1.14s.38-1.13.85-1.13h5.39a1,1,0,0,1,.86,1.13C103.4,244.66,103,245.17,102.54,245.17Z"/><path class="cls-7" d="M86.88,249.31h15.66a1,1,0,0,0,.86-1.13c0-.63-.39-1.14-.86-1.14H86.88c-.47,0-.85.51-.85,1.14S86.41,249.31,86.88,249.31Z"/><path class="cls-7" d="M77.94,253.52h23.81a1.15,1.15,0,1,0,0-2.27H77.94a1.15,1.15,0,1,0,0,2.27Z"/><path class="cls-7" d="M77.49,249.31h5.4c.47,0,.85-.51.85-1.13s-.38-1.14-.85-1.14h-5.4c-.47,0-.85.51-.85,1.14S77,249.31,77.49,249.31Z"/><path class="cls-7" d="M93,270H77.34c-.47,0-.85-.51-.85-1.13s.38-1.14.85-1.14H93c.47,0,.85.51.85,1.14S93.47,270,93,270Z"/><path class="cls-7" d="M102.39,270H97c-.47,0-.85-.51-.85-1.13s.38-1.14.85-1.14h5.4c.47,0,.85.51.85,1.14S102.86,270,102.39,270Z"/><path class="cls-7" d="M86.73,274.1h15.66c.47,0,.85-.51.85-1.14s-.38-1.13-.85-1.13H86.73c-.48,0-.86.5-.86,1.13S86.25,274.1,86.73,274.1Z"/><path class="cls-7" d="M77.78,278.31H101.6a1.14,1.14,0,1,0,0-2.27H77.78a1.14,1.14,0,1,0,0,2.27Z"/><path class="cls-7" d="M77.34,274.1h5.39c.47,0,.86-.51.86-1.14a1,1,0,0,0-.86-1.13H77.34c-.47,0-.85.5-.85,1.13S76.87,274.1,77.34,274.1Z"/><path class="cls-7" d="M93.16,257.46H77.49c-.47,0-.85-.51-.85-1.14s.38-1.13.85-1.13H93.16c.47,0,.85.5.85,1.13S93.63,257.46,93.16,257.46Z"/><path class="cls-7" d="M102.54,257.46H97.15c-.47,0-.85-.51-.85-1.14s.38-1.13.85-1.13h5.39a1,1,0,0,1,.86,1.13C103.4,257,103,257.46,102.54,257.46Z"/><path class="cls-7" d="M86.88,261.6h15.66a1,1,0,0,0,.86-1.13c0-.63-.39-1.14-.86-1.14H86.88c-.47,0-.85.51-.85,1.14S86.41,261.6,86.88,261.6Z"/><path class="cls-7" d="M77.49,265.81H93.16c.47,0,.85-.51.85-1.13s-.38-1.14-.85-1.14H77.49c-.47,0-.85.51-.85,1.14S77,265.81,77.49,265.81Z"/><path class="cls-7" d="M77.49,261.6h5.4c.47,0,.85-.51.85-1.13s-.38-1.14-.85-1.14h-5.4c-.47,0-.85.51-.85,1.14S77,261.6,77.49,261.6Z"/><path class="cls-7" d="M92.72,283.2H77.05c-.47,0-.85-.51-.85-1.14s.38-1.14.85-1.14H92.72c.47,0,.85.51.85,1.14S93.19,283.2,92.72,283.2Z"/><path class="cls-7" d="M102.1,283.2H96.71c-.47,0-.85-.51-.85-1.14s.38-1.14.85-1.14h5.39c.47,0,.86.51.86,1.14S102.57,283.2,102.1,283.2Z"/><path class="cls-7" d="M86.44,287.34H102.1c.47,0,.86-.51.86-1.14a1,1,0,0,0-.86-1.13H86.44c-.47,0-.85.51-.85,1.13S86,287.34,86.44,287.34Z"/><path class="cls-7" d="M77.5,291.55h23.81a1.15,1.15,0,1,0,0-2.27H77.5a1.15,1.15,0,1,0,0,2.27Z"/><path class="cls-7" d="M77.05,287.34h5.4c.47,0,.85-.51.85-1.14s-.38-1.13-.85-1.13h-5.4c-.47,0-.85.51-.85,1.13S76.58,287.34,77.05,287.34Z"/><path class="cls-7" d="M92.56,308H76.9c-.47,0-.85-.51-.85-1.13s.38-1.14.85-1.14H92.56c.47,0,.85.51.85,1.14S93,308,92.56,308Z"/><path class="cls-7" d="M102,308h-5.4c-.47,0-.85-.51-.85-1.13s.38-1.14.85-1.14H102c.47,0,.85.51.85,1.14S102.42,308,102,308Z"/><path class="cls-7" d="M86.29,312.12H102c.47,0,.85-.5.85-1.13s-.38-1.14-.85-1.14H86.29c-.48,0-.86.51-.86,1.14S85.81,312.12,86.29,312.12Z"/><path class="cls-7" d="M76.9,312.12h5.39a1,1,0,0,0,.86-1.13c0-.63-.39-1.14-.86-1.14H76.9c-.47,0-.85.51-.85,1.14S76.43,312.12,76.9,312.12Z"/><path class="cls-7" d="M92.72,295.48H77.05c-.47,0-.85-.5-.85-1.13s.38-1.14.85-1.14H92.72c.47,0,.85.51.85,1.14S93.19,295.48,92.72,295.48Z"/><path class="cls-7" d="M102.1,295.48H96.71c-.47,0-.85-.5-.85-1.13s.38-1.14.85-1.14h5.39c.47,0,.86.51.86,1.14A1,1,0,0,1,102.1,295.48Z"/><path class="cls-7" d="M86.44,299.63H102.1c.47,0,.86-.51.86-1.14a1,1,0,0,0-.86-1.13H86.44c-.47,0-.85.51-.85,1.13S86,299.63,86.44,299.63Z"/><path class="cls-7" d="M77.05,303.84H92.72c.47,0,.85-.51.85-1.14s-.38-1.13-.85-1.13H77.05c-.47,0-.85.51-.85,1.13S76.58,303.84,77.05,303.84Z"/><path class="cls-7" d="M77.05,299.63h5.4c.47,0,.85-.51.85-1.14s-.38-1.13-.85-1.13h-5.4c-.47,0-.85.51-.85,1.13S76.58,299.63,77.05,299.63Z"/><path class="cls-7" d="M125.21,283H109.55c-.47,0-.85-.51-.85-1.13s.38-1.14.85-1.14h15.66c.47,0,.86.51.86,1.14A1,1,0,0,1,125.21,283Z"/><path class="cls-7" d="M134.6,283h-5.39a1,1,0,0,1-.86-1.13c0-.63.38-1.14.86-1.14h5.39c.47,0,.85.51.85,1.14S135.07,283,134.6,283Z"/><path class="cls-7" d="M118.94,287.16H134.6c.47,0,.85-.51.85-1.14s-.38-1.13-.85-1.13H118.94a1,1,0,0,0-.86,1.13C118.08,286.65,118.47,287.16,118.94,287.16Z"/><path class="cls-7" d="M110,291.37h23.81a1.15,1.15,0,1,0,0-2.27H110a1.15,1.15,0,1,0,0,2.27Z"/><path class="cls-7" d="M109.55,287.16h5.39c.48,0,.86-.51.86-1.14s-.38-1.13-.86-1.13h-5.39c-.47,0-.85.5-.85,1.13S109.08,287.16,109.55,287.16Z"/><path class="cls-7" d="M125.06,307.8H109.4c-.48,0-.86-.51-.86-1.14s.38-1.13.86-1.13h15.66c.47,0,.85.5.85,1.13S125.53,307.8,125.06,307.8Z"/><path class="cls-7" d="M134.44,307.8h-5.39c-.47,0-.85-.51-.85-1.14s.38-1.13.85-1.13h5.39c.48,0,.86.5.86,1.13S134.92,307.8,134.44,307.8Z"/><path class="cls-7" d="M118.78,311.94h15.66a1,1,0,0,0,.86-1.13c0-.63-.38-1.14-.86-1.14H118.78c-.47,0-.85.51-.85,1.14S118.31,311.94,118.78,311.94Z"/><path class="cls-7" d="M109.4,311.94h5.39c.47,0,.85-.51.85-1.13s-.38-1.14-.85-1.14H109.4c-.48,0-.86.51-.86,1.14A1,1,0,0,0,109.4,311.94Z"/><path class="cls-7" d="M125.21,295.3H109.55c-.47,0-.85-.51-.85-1.13s.38-1.14.85-1.14h15.66c.47,0,.86.51.86,1.14A1,1,0,0,1,125.21,295.3Z"/><path class="cls-7" d="M134.6,295.3h-5.39a1,1,0,0,1-.86-1.13c0-.63.38-1.14.86-1.14h5.39c.47,0,.85.51.85,1.14S135.07,295.3,134.6,295.3Z"/><path class="cls-7" d="M118.94,299.44H134.6c.47,0,.85-.5.85-1.13s-.38-1.14-.85-1.14H118.94c-.47,0-.86.51-.86,1.14A1,1,0,0,0,118.94,299.44Z"/><path class="cls-7" d="M109.55,303.66h15.66c.47,0,.86-.51.86-1.14a1,1,0,0,0-.86-1.13H109.55c-.47,0-.85.5-.85,1.13S109.08,303.66,109.55,303.66Z"/><path class="cls-7" d="M109.55,299.44h5.39c.48,0,.86-.5.86-1.13s-.38-1.14-.86-1.14h-5.39c-.47,0-.85.51-.85,1.14S109.08,299.44,109.55,299.44Z"/><path class="cls-7" d="M156.8,282.8H141.13c-.47,0-.85-.51-.85-1.14s.38-1.13.85-1.13H156.8c.47,0,.85.51.85,1.13S157.27,282.8,156.8,282.8Z"/><path class="cls-7" d="M166.18,282.8h-5.39c-.47,0-.85-.51-.85-1.14s.38-1.13.85-1.13h5.39a1,1,0,0,1,.86,1.13C167,282.29,166.65,282.8,166.18,282.8Z"/><path class="cls-7" d="M150.52,286.94h15.66a1,1,0,0,0,.86-1.13c0-.63-.39-1.14-.86-1.14H150.52c-.47,0-.85.51-.85,1.14S150.05,286.94,150.52,286.94Z"/><path class="cls-7" d="M141.58,291.15h23.81a1.15,1.15,0,1,0,0-2.27H141.58a1.15,1.15,0,1,0,0,2.27Z"/><path class="cls-7" d="M141.13,286.94h5.4c.47,0,.85-.51.85-1.13s-.38-1.14-.85-1.14h-5.4c-.47,0-.85.51-.85,1.14S140.66,286.94,141.13,286.94Z"/><path class="cls-7" d="M156.64,307.58H141c-.47,0-.85-.5-.85-1.13s.38-1.14.85-1.14h15.66c.47,0,.86.51.86,1.14A1,1,0,0,1,156.64,307.58Z"/><path class="cls-7" d="M166,307.58h-5.39c-.48,0-.86-.5-.86-1.13s.38-1.14.86-1.14H166c.47,0,.85.51.85,1.14S166.5,307.58,166,307.58Z"/><path class="cls-7" d="M150.37,311.73H166c.47,0,.85-.51.85-1.14s-.38-1.13-.85-1.13H150.37a1,1,0,0,0-.86,1.13C149.51,311.22,149.9,311.73,150.37,311.73Z"/><path class="cls-7" d="M141,311.73h5.39c.48,0,.86-.51.86-1.14a1,1,0,0,0-.86-1.13H141c-.47,0-.85.51-.85,1.13S140.51,311.73,141,311.73Z"/><path class="cls-7" d="M156.8,295.09H141.13c-.47,0-.85-.51-.85-1.14s.38-1.13.85-1.13H156.8c.47,0,.85.51.85,1.13S157.27,295.09,156.8,295.09Z"/><path class="cls-7" d="M166.18,295.09h-5.39c-.47,0-.85-.51-.85-1.14s.38-1.13.85-1.13h5.39A1,1,0,0,1,167,294C167,294.58,166.65,295.09,166.18,295.09Z"/><path class="cls-7" d="M150.52,299.23h15.66a1,1,0,0,0,.86-1.13c0-.63-.39-1.14-.86-1.14H150.52c-.47,0-.85.51-.85,1.14S150.05,299.23,150.52,299.23Z"/><path class="cls-7" d="M141.13,303.44H156.8c.47,0,.85-.51.85-1.13s-.38-1.14-.85-1.14H141.13c-.47,0-.85.51-.85,1.14S140.66,303.44,141.13,303.44Z"/><path class="cls-7" d="M141.13,299.23h5.4c.47,0,.85-.51.85-1.13S147,297,146.53,297h-5.4c-.47,0-.85.51-.85,1.14S140.66,299.23,141.13,299.23Z"/><path class="cls-7" d="M125.2,244.84H109.53c-.47,0-.85-.51-.85-1.14s.38-1.14.85-1.14H125.2c.47,0,.85.51.85,1.14S125.67,244.84,125.2,244.84Z"/><path class="cls-7" d="M134.58,244.84h-5.39c-.47,0-.85-.51-.85-1.14s.38-1.14.85-1.14h5.39c.47,0,.86.51.86,1.14S135.05,244.84,134.58,244.84Z"/><path class="cls-7" d="M118.92,249h15.66c.47,0,.86-.51.86-1.14a1,1,0,0,0-.86-1.13H118.92c-.47,0-.85.51-.85,1.13S118.45,249,118.92,249Z"/><path class="cls-7" d="M110,253.19h23.81a1.15,1.15,0,1,0,0-2.27H110a1.15,1.15,0,1,0,0,2.27Z"/><path class="cls-7" d="M109.53,249h5.4c.47,0,.85-.51.85-1.14s-.38-1.13-.85-1.13h-5.4c-.47,0-.85.51-.85,1.13S109.06,249,109.53,249Z"/><path class="cls-7" d="M125,269.62H109.38c-.47,0-.85-.51-.85-1.13s.38-1.14.85-1.14H125c.47,0,.86.51.86,1.14A1,1,0,0,1,125,269.62Z"/><path class="cls-7" d="M134.43,269.62H129a1,1,0,0,1-.86-1.13c0-.63.38-1.14.86-1.14h5.39c.47,0,.85.51.85,1.14S134.9,269.62,134.43,269.62Z"/><path class="cls-7" d="M118.77,273.76h15.66c.47,0,.85-.5.85-1.13s-.38-1.14-.85-1.14H118.77c-.47,0-.86.51-.86,1.14A1,1,0,0,0,118.77,273.76Z"/><path class="cls-7" d="M109.82,278h23.82a1.15,1.15,0,1,0,0-2.27H109.82a1.14,1.14,0,1,0,0,2.27Z"/><path class="cls-7" d="M109.38,273.76h5.39c.48,0,.86-.5.86-1.13s-.38-1.14-.86-1.14h-5.39c-.47,0-.85.51-.85,1.14S108.91,273.76,109.38,273.76Z"/><path class="cls-7" d="M125.2,257.12H109.53c-.47,0-.85-.5-.85-1.13s.38-1.14.85-1.14H125.2c.47,0,.85.51.85,1.14S125.67,257.12,125.2,257.12Z"/><path class="cls-7" d="M134.58,257.12h-5.39c-.47,0-.85-.5-.85-1.13s.38-1.14.85-1.14h5.39c.47,0,.86.51.86,1.14A1,1,0,0,1,134.58,257.12Z"/><path class="cls-7" d="M118.92,261.27h15.66c.47,0,.86-.51.86-1.14a1,1,0,0,0-.86-1.13H118.92c-.47,0-.85.51-.85,1.13S118.45,261.27,118.92,261.27Z"/><path class="cls-7" d="M109.53,265.48H125.2c.47,0,.85-.51.85-1.14s-.38-1.13-.85-1.13H109.53c-.47,0-.85.51-.85,1.13S109.06,265.48,109.53,265.48Z"/><path class="cls-7" d="M109.53,261.27h5.4c.47,0,.85-.51.85-1.14s-.38-1.13-.85-1.13h-5.4c-.47,0-.85.51-.85,1.13S109.06,261.27,109.53,261.27Z"/><path class="cls-7" d="M156.91,244.5H141.25c-.47,0-.85-.51-.85-1.13s.38-1.14.85-1.14h15.66c.47,0,.85.51.85,1.14S157.38,244.5,156.91,244.5Z"/><path class="cls-7" d="M166.3,244.5h-5.4c-.47,0-.85-.51-.85-1.13s.38-1.14.85-1.14h5.4c.47,0,.85.51.85,1.14S166.77,244.5,166.3,244.5Z"/><path class="cls-7" d="M150.64,248.65H166.3c.47,0,.85-.51.85-1.14s-.38-1.13-.85-1.13H150.64c-.48,0-.86.5-.86,1.13S150.16,248.65,150.64,248.65Z"/><path class="cls-7" d="M141.69,252.86h23.82a1.14,1.14,0,1,0,0-2.27H141.69a1.14,1.14,0,1,0,0,2.27Z"/><path class="cls-7" d="M141.25,248.65h5.39c.47,0,.86-.51.86-1.14a1,1,0,0,0-.86-1.13h-5.39c-.47,0-.85.5-.85,1.13S140.78,248.65,141.25,248.65Z"/><path class="cls-7" d="M156.76,269.29H141.09c-.47,0-.85-.51-.85-1.14s.38-1.13.85-1.13h15.67c.47,0,.85.51.85,1.13S157.23,269.29,156.76,269.29Z"/><path class="cls-7" d="M166.14,269.29h-5.39c-.47,0-.85-.51-.85-1.14s.38-1.13.85-1.13h5.39a1,1,0,0,1,.86,1.13C167,268.78,166.61,269.29,166.14,269.29Z"/><path class="cls-7" d="M150.48,273.43h15.66a1,1,0,0,0,.86-1.13c0-.63-.39-1.14-.86-1.14H150.48c-.47,0-.85.51-.85,1.14S150,273.43,150.48,273.43Z"/><path class="cls-7" d="M141.54,277.64h23.81a1.15,1.15,0,1,0,0-2.27H141.54a1.15,1.15,0,1,0,0,2.27Z"/><path class="cls-7" d="M141.09,273.43h5.4c.47,0,.85-.51.85-1.13s-.38-1.14-.85-1.14h-5.4c-.47,0-.85.51-.85,1.14S140.62,273.43,141.09,273.43Z"/><path class="cls-7" d="M156.91,256.79H141.25c-.47,0-.85-.51-.85-1.13s.38-1.14.85-1.14h15.66c.47,0,.85.51.85,1.14S157.38,256.79,156.91,256.79Z"/><path class="cls-7" d="M166.3,256.79h-5.4c-.47,0-.85-.51-.85-1.13s.38-1.14.85-1.14h5.4c.47,0,.85.51.85,1.14S166.77,256.79,166.3,256.79Z"/><path class="cls-7" d="M150.64,260.94H166.3c.47,0,.85-.51.85-1.14s-.38-1.13-.85-1.13H150.64c-.48,0-.86.5-.86,1.13S150.16,260.94,150.64,260.94Z"/><path class="cls-7" d="M141.25,265.15h15.66c.47,0,.85-.51.85-1.14s-.38-1.13-.85-1.13H141.25c-.47,0-.85.51-.85,1.13S140.78,265.15,141.25,265.15Z"/><path class="cls-7" d="M141.25,260.94h5.39c.47,0,.86-.51.86-1.14a1,1,0,0,0-.86-1.13h-5.39c-.47,0-.85.5-.85,1.13S140.78,260.94,141.25,260.94Z"/><rect class="cls-8" x="75.76" y="228.84" width="91.55" height="10.3" rx="5.15"/><ellipse class="cls-9" cx="182.18" cy="237.32" rx="9.32" ry="9.47"/><rect class="cls-7" x="12.99" y="314.81" width="175.57" height="2.66" rx="1.33"/><path class="cls-6" d="M154.77,212.87,54.92,213a4,4,0,0,1-4.05-4v-.26a4,4,0,0,1,4-4.05l99.85-.11a4,4,0,0,1,4.05,4v.26A4,4,0,0,1,154.77,212.87Z"/><path class="cls-6" d="M186.7,212.83l-14.14,0a4,4,0,0,1-4.05-4v-.26a4,4,0,0,1,4-4.05h14.14a4,4,0,0,1,4.05,4v.25A4,4,0,0,1,186.7,212.83Z"/><path class="cls-5" d="M314.6,335.73H184A5.87,5.87,0,0,1,184,324H314.6a5.87,5.87,0,0,1,0,11.74Z"/><rect class="cls-5" x="219.56" y="263.17" width="59.47" height="60.82"/><path class="cls-5" d="M136.26,120.91H362.33a24.5,24.5,0,0,1,24.5,24.5V272.11a24,24,0,0,1-24,24H134.09a22.34,22.34,0,0,1-22.34-22.34V145.41a24.5,24.5,0,0,1,24.5-24.5Z"/><path class="cls-6" d="M134.58,127.68H364a17.15,17.15,0,0,1,17.15,17.15V268.32a20.91,20.91,0,0,1-20.91,20.91H138.34a20.91,20.91,0,0,1-20.91-20.91V144.83A17.15,17.15,0,0,1,134.58,127.68Z"/><path class="cls-6" d="M349.22,170.94H117.4v109a9.29,9.29,0,0,0,9.29,9.29H371.76a9.29,9.29,0,0,0,9.29-9.29v-109Z"/><path class="cls-6" d="M348.6,165.58l-69.93.08a2.83,2.83,0,0,1-2.84-2.8v-.18a2.83,2.83,0,0,1,2.84-2.84l69.92-.08a2.83,2.83,0,0,1,2.85,2.81v.17A2.83,2.83,0,0,1,348.6,165.58Z"/><path class="cls-6" d="M371,165.56h-9.89a2.82,2.82,0,0,1-2.84-2.8v-.18a2.83,2.83,0,0,1,2.84-2.84H371a2.83,2.83,0,0,1,2.84,2.8v.18A2.83,2.83,0,0,1,371,165.56Z"/><path class="cls-7" d="M132.72,277.64a1.16,1.16,0,1,1-1.16-1.16A1.16,1.16,0,0,1,132.72,277.64Z"/><path class="cls-7" d="M138.75,277.64a1.16,1.16,0,1,1-1.16-1.16A1.16,1.16,0,0,1,138.75,277.64Z"/><path class="cls-7" d="M144.79,277.64a1.17,1.17,0,1,1-1.17-1.16A1.17,1.17,0,0,1,144.79,277.64Z"/><path class="cls-7" d="M150.82,277.64a1.17,1.17,0,1,1-1.17-1.16A1.17,1.17,0,0,1,150.82,277.64Z"/><path class="cls-7" d="M156.85,277.64a1.17,1.17,0,1,1-1.17-1.16A1.17,1.17,0,0,1,156.85,277.64Z"/><path class="cls-7" d="M162.88,277.64a1.17,1.17,0,1,1-1.17-1.16A1.17,1.17,0,0,1,162.88,277.64Z"/><path class="cls-7" d="M168.91,277.64a1.17,1.17,0,1,1-1.17-1.16A1.17,1.17,0,0,1,168.91,277.64Z"/><path class="cls-7" d="M174.94,277.64a1.17,1.17,0,1,1-1.17-1.16A1.17,1.17,0,0,1,174.94,277.64Z"/><path class="cls-7" d="M181,277.64a1.17,1.17,0,1,1-1.16-1.16A1.16,1.16,0,0,1,181,277.64Z"/><path class="cls-7" d="M187,277.64a1.17,1.17,0,1,1-1.16-1.16A1.16,1.16,0,0,1,187,277.64Z"/><path class="cls-7" d="M193.22,277.64a1.17,1.17,0,1,1-1.16-1.16A1.16,1.16,0,0,1,193.22,277.64Z"/><path class="cls-7" d="M199.25,277.64a1.17,1.17,0,1,1-1.16-1.16A1.16,1.16,0,0,1,199.25,277.64Z"/><path class="cls-7" d="M205.28,277.64a1.17,1.17,0,1,1-1.16-1.16A1.16,1.16,0,0,1,205.28,277.64Z"/><path class="cls-7" d="M211.31,277.64a1.17,1.17,0,1,1-1.16-1.16A1.16,1.16,0,0,1,211.31,277.64Z"/><path class="cls-7" d="M217.34,277.64a1.16,1.16,0,1,1-1.16-1.16A1.16,1.16,0,0,1,217.34,277.64Z"/><path class="cls-7" d="M223.37,277.64a1.16,1.16,0,1,1-1.16-1.16A1.16,1.16,0,0,1,223.37,277.64Z"/><path class="cls-7" d="M229.4,277.64a1.16,1.16,0,1,1-1.16-1.16A1.16,1.16,0,0,1,229.4,277.64Z"/><path class="cls-7" d="M235.43,277.64a1.16,1.16,0,1,1-1.16-1.16A1.16,1.16,0,0,1,235.43,277.64Z"/><path class="cls-7" d="M241.46,277.64a1.16,1.16,0,1,1-1.16-1.16A1.16,1.16,0,0,1,241.46,277.64Z"/><path class="cls-7" d="M247.49,277.64a1.16,1.16,0,1,1-1.16-1.16A1.16,1.16,0,0,1,247.49,277.64Z"/><path class="cls-7" d="M254.18,277.64a1.16,1.16,0,1,1-1.16-1.16A1.16,1.16,0,0,1,254.18,277.64Z"/><path class="cls-7" d="M260.21,277.64a1.16,1.16,0,1,1-1.16-1.16A1.16,1.16,0,0,1,260.21,277.64Z"/><path class="cls-7" d="M266.24,277.64a1.16,1.16,0,1,1-1.16-1.16A1.16,1.16,0,0,1,266.24,277.64Z"/><path class="cls-7" d="M272.27,277.64a1.16,1.16,0,1,1-1.16-1.16A1.16,1.16,0,0,1,272.27,277.64Z"/><path class="cls-7" d="M278.3,277.64a1.16,1.16,0,1,1-1.16-1.16A1.16,1.16,0,0,1,278.3,277.64Z"/><path class="cls-7" d="M284.33,277.64a1.16,1.16,0,1,1-1.16-1.16A1.16,1.16,0,0,1,284.33,277.64Z"/><path class="cls-7" d="M290.36,277.64a1.16,1.16,0,1,1-1.16-1.16A1.16,1.16,0,0,1,290.36,277.64Z"/><path class="cls-7" d="M296.39,277.64a1.16,1.16,0,1,1-1.16-1.16A1.16,1.16,0,0,1,296.39,277.64Z"/><path class="cls-7" d="M302.42,277.64a1.16,1.16,0,1,1-1.16-1.16A1.16,1.16,0,0,1,302.42,277.64Z"/><path class="cls-7" d="M308.45,277.64a1.16,1.16,0,1,1-1.16-1.16A1.16,1.16,0,0,1,308.45,277.64Z"/><path class="cls-7" d="M314.67,277.64a1.16,1.16,0,1,1-1.16-1.16A1.16,1.16,0,0,1,314.67,277.64Z"/><path class="cls-7" d="M320.7,277.64a1.16,1.16,0,1,1-1.16-1.16A1.16,1.16,0,0,1,320.7,277.64Z"/><path class="cls-7" d="M326.73,277.64a1.16,1.16,0,1,1-1.16-1.16A1.16,1.16,0,0,1,326.73,277.64Z"/><path class="cls-7" d="M332.76,277.64a1.16,1.16,0,1,1-1.16-1.16A1.16,1.16,0,0,1,332.76,277.64Z"/><path class="cls-7" d="M338.79,277.64a1.16,1.16,0,1,1-1.16-1.16A1.16,1.16,0,0,1,338.79,277.64Z"/><path class="cls-7" d="M344.82,277.64a1.16,1.16,0,1,1-1.16-1.16A1.16,1.16,0,0,1,344.82,277.64Z"/><path class="cls-7" d="M350.85,277.64a1.16,1.16,0,1,1-1.16-1.16A1.16,1.16,0,0,1,350.85,277.64Z"/><path class="cls-7" d="M356.88,277.64a1.16,1.16,0,1,1-1.16-1.16A1.16,1.16,0,0,1,356.88,277.64Z"/><path class="cls-7" d="M362.92,277.64a1.17,1.17,0,1,1-1.17-1.16A1.17,1.17,0,0,1,362.92,277.64Z"/><path class="cls-7" d="M369,277.64a1.17,1.17,0,1,1-1.17-1.16A1.17,1.17,0,0,1,369,277.64Z"/><path class="cls-7" d="M239.45,202.12H218a1.59,1.59,0,0,1,0-3.06h21.48a1.59,1.59,0,0,1,0,3.06Z"/><path class="cls-7" d="M252.33,202.12h-7.4a1.59,1.59,0,0,1,0-3.06h7.4a1.59,1.59,0,0,1,0,3.06Z"/><path class="cls-7" d="M230.85,207.71h21.48a1.59,1.59,0,0,0,0-3.06H230.85a1.59,1.59,0,0,0,0,3.06Z"/><path class="cls-7" d="M218.58,213.39h32.66a1.55,1.55,0,1,0,0-3.06H218.58a1.55,1.55,0,1,0,0,3.06Z"/><path class="cls-7" d="M218,207.71h7.4a1.59,1.59,0,0,0,0-3.06H218a1.59,1.59,0,0,0,0,3.06Z"/><path class="cls-7" d="M239.24,235.55H217.76a1.59,1.59,0,0,1,0-3.06h21.48a1.59,1.59,0,0,1,0,3.06Z"/><path class="cls-7" d="M252.11,235.55h-7.39a1.59,1.59,0,0,1,0-3.06h7.39a1.59,1.59,0,0,1,0,3.06Z"/><path class="cls-7" d="M230.63,241.14h21.48a1.59,1.59,0,0,0,0-3.06H230.63a1.59,1.59,0,0,0,0,3.06Z"/><path class="cls-7" d="M218.37,246.82H251a1.55,1.55,0,1,0,0-3.06H218.37a1.55,1.55,0,1,0,0,3.06Z"/><path class="cls-7" d="M217.76,241.14h7.4a1.59,1.59,0,0,0,0-3.06h-7.4a1.59,1.59,0,0,0,0,3.06Z"/><path class="cls-7" d="M239.45,218.7H218a1.59,1.59,0,0,1,0-3.07h21.48a1.59,1.59,0,0,1,0,3.07Z"/><path class="cls-7" d="M252.33,218.7h-7.4a1.59,1.59,0,0,1,0-3.07h7.4a1.59,1.59,0,0,1,0,3.07Z"/><path class="cls-7" d="M230.85,224.29h21.48a1.59,1.59,0,0,0,0-3.07H230.85a1.59,1.59,0,0,0,0,3.07Z"/><path class="cls-7" d="M218,230h21.48a1.59,1.59,0,0,0,0-3.06H218a1.59,1.59,0,0,0,0,3.06Z"/><path class="cls-7" d="M218,224.29h7.4a1.59,1.59,0,0,0,0-3.07H218a1.59,1.59,0,0,0,0,3.07Z"/><path class="cls-7" d="M283.39,201.67H261.91a1.59,1.59,0,0,1,0-3.06h21.48a1.59,1.59,0,0,1,0,3.06Z"/><path class="cls-7" d="M296.27,201.67h-7.4a1.59,1.59,0,0,1,0-3.06h7.4a1.59,1.59,0,0,1,0,3.06Z"/><path class="cls-7" d="M274.79,207.26h21.48a1.59,1.59,0,0,0,0-3.06H274.79a1.59,1.59,0,0,0,0,3.06Z"/><path class="cls-7" d="M262.52,212.94h32.66a1.55,1.55,0,1,0,0-3.06H262.52a1.55,1.55,0,1,0,0,3.06Z"/><path class="cls-7" d="M261.91,207.26h7.4a1.59,1.59,0,0,0,0-3.06h-7.4a1.59,1.59,0,0,0,0,3.06Z"/><path class="cls-7" d="M283.18,235.11H261.7a1.59,1.59,0,0,1,0-3.07h21.48a1.59,1.59,0,0,1,0,3.07Z"/><path class="cls-7" d="M296.06,235.11h-7.4a1.59,1.59,0,0,1,0-3.07h7.4a1.59,1.59,0,0,1,0,3.07Z"/><path class="cls-7" d="M261.7,240.7h7.4a1.59,1.59,0,0,0,0-3.07h-7.4a1.59,1.59,0,0,0,0,3.07Z"/><path class="cls-7" d="M283.39,218.25H261.91a1.59,1.59,0,0,1,0-3.06h21.48a1.59,1.59,0,0,1,0,3.06Z"/><path class="cls-7" d="M296.27,218.25h-7.4a1.59,1.59,0,0,1,0-3.06h7.4a1.59,1.59,0,0,1,0,3.06Z"/><path class="cls-7" d="M274.79,223.84h21.48a1.59,1.59,0,0,0,0-3.06H274.79a1.59,1.59,0,0,0,0,3.06Z"/><path class="cls-7" d="M261.91,229.52h21.48a1.59,1.59,0,0,0,0-3.06H261.91a1.59,1.59,0,0,0,0,3.06Z"/><path class="cls-7" d="M261.91,223.84h7.4a1.59,1.59,0,0,0,0-3.06h-7.4a1.59,1.59,0,0,0,0,3.06Z"/><rect class="cls-5" x="127.26" y="180.1" width="80.71" height="81.16" rx="13.17"/><rect class="cls-8" x="215.6" y="180.1" width="125.55" height="13.9" rx="6.95"/><path class="cls-7" d="M368.5,272H131.3a1.8,1.8,0,1,1,0-3.59H368.5a1.8,1.8,0,0,1,0,3.59Z"/><path class="cls-5" d="M408.67,338.62H361.51a8,8,0,0,1-8-8V235.9a8,8,0,0,1,8-8h47.16a8,8,0,0,1,8,8v94.76A8,8,0,0,1,408.67,338.62Z"/><path class="cls-6" d="M413.6,237.12a6,6,0,0,0-6-6H362.53a6,6,0,0,0-6,6v5.37h57Z"/><path class="cls-6" d="M356.56,242.49v82.7a6,6,0,0,0,6,6h45.09a6,6,0,0,0,6-6v-82.7Z"/><path class="cls-6" d="M391.72,336.54H378.86a2,2,0,1,1,0-4h12.86a2,2,0,1,1,0,4Z"/><path class="cls-10" d="M416.72,247.08h-.06v8.14h.06a1,1,0,0,0,1-1v-6.2A1,1,0,0,0,416.72,247.08Z"/><path class="cls-10" d="M416.89,255.9a.85.85,0,0,0-.23,0V264a1.6,1.6,0,0,0,.23,0,1,1,0,0,0,1-1v-6.2A1,1,0,0,0,416.89,255.9Z"/><path class="cls-7" d="M363.15,322.92a.9.9,0,1,1-.89-.91A.9.9,0,0,1,363.15,322.92Z"/><path class="cls-7" d="M367.8,322.92a.9.9,0,1,1-.9-.91A.9.9,0,0,1,367.8,322.92Z"/><path class="cls-7" d="M372.45,322.92a.9.9,0,1,1-.9-.91A.9.9,0,0,1,372.45,322.92Z"/><path class="cls-7" d="M377.1,322.92a.9.9,0,1,1-.9-.91A.91.91,0,0,1,377.1,322.92Z"/><path class="cls-7" d="M381.74,322.92a.9.9,0,1,1-.89-.91A.9.9,0,0,1,381.74,322.92Z"/><path class="cls-7" d="M386.39,322.92a.9.9,0,1,1-.89-.91A.9.9,0,0,1,386.39,322.92Z"/><path class="cls-7" d="M391,322.92a.9.9,0,1,1-.89-.91A.9.9,0,0,1,391,322.92Z"/><path class="cls-7" d="M395.69,322.92a.9.9,0,1,1-.9-.91A.9.9,0,0,1,395.69,322.92Z"/><path class="cls-7" d="M400.34,322.92a.9.9,0,1,1-.9-.91A.9.9,0,0,1,400.34,322.92Z"/><path class="cls-7" d="M405,322.92a.9.9,0,1,1-.9-.91A.9.9,0,0,1,405,322.92Z"/><path class="cls-7" d="M409.78,322.92a.9.9,0,1,1-.89-.91A.9.9,0,0,1,409.78,322.92Z"/><path class="cls-7" d="M399.72,287.54H384.14a1,1,0,0,1-.85-1.12c0-.63.38-1.13.85-1.13h15.58c.46,0,.84.5.84,1.13S400.18,287.54,399.72,287.54Z"/><path class="cls-7" d="M409.05,287.54h-5.36a1,1,0,0,1-.85-1.12c0-.63.38-1.13.85-1.13h5.36c.47,0,.85.5.85,1.13A1,1,0,0,1,409.05,287.54Z"/><path class="cls-7" d="M393.47,291.67h15.58c.47,0,.85-.51.85-1.13s-.38-1.13-.85-1.13H393.47c-.47,0-.85.5-.85,1.13S393,291.67,393.47,291.67Z"/><path class="cls-7" d="M384.58,295.86h23.69a1.14,1.14,0,1,0,0-2.26H384.58a1.14,1.14,0,1,0,0,2.26Z"/><path class="cls-7" d="M384.14,291.67h5.36c.47,0,.85-.51.85-1.13s-.38-1.13-.85-1.13h-5.36c-.47,0-.85.5-.85,1.13S383.67,291.67,384.14,291.67Z"/><path class="cls-7" d="M399.56,312.2H384c-.47,0-.85-.51-.85-1.13s.38-1.13.85-1.13h15.58c.47,0,.85.51.85,1.13S400,312.2,399.56,312.2Z"/><path class="cls-7" d="M408.9,312.2h-5.37c-.46,0-.84-.51-.84-1.13s.38-1.13.84-1.13h5.37c.47,0,.85.51.85,1.13S409.37,312.2,408.9,312.2Z"/><path class="cls-7" d="M399.72,299.77H384.14c-.47,0-.85-.51-.85-1.13s.38-1.13.85-1.13h15.58c.46,0,.84.51.84,1.13S400.18,299.77,399.72,299.77Z"/><path class="cls-7" d="M409.05,299.77h-5.36c-.47,0-.85-.51-.85-1.13s.38-1.13.85-1.13h5.36c.47,0,.85.51.85,1.13S409.52,299.77,409.05,299.77Z"/><path class="cls-7" d="M393.47,303.89h15.58c.47,0,.85-.5.85-1.13s-.38-1.13-.85-1.13H393.47c-.47,0-.85.51-.85,1.13S393,303.89,393.47,303.89Z"/><path class="cls-7" d="M384.14,308.08h15.58c.46,0,.84-.51.84-1.13s-.38-1.13-.84-1.13H384.14c-.47,0-.85.51-.85,1.13S383.67,308.08,384.14,308.08Z"/><path class="cls-7" d="M384.14,303.89h5.36c.47,0,.85-.5.85-1.13s-.38-1.13-.85-1.13h-5.36c-.47,0-.85.51-.85,1.13S383.67,303.89,384.14,303.89Z"/><path class="cls-7" d="M384.56,257.88h23.69a1.14,1.14,0,1,0,0-2.26H384.56a1.14,1.14,0,1,0,0,2.26Z"/><path class="cls-7" d="M399.55,274.22H384c-.47,0-.85-.5-.85-1.13s.38-1.13.85-1.13h15.58c.47,0,.85.51.85,1.13S400,274.22,399.55,274.22Z"/><path class="cls-7" d="M408.88,274.22h-5.36c-.47,0-.85-.5-.85-1.13s.38-1.13.85-1.13h5.36c.47,0,.85.51.85,1.13S409.35,274.22,408.88,274.22Z"/><path class="cls-7" d="M393.3,278.35h15.58c.47,0,.85-.51.85-1.13s-.38-1.13-.85-1.13H393.3c-.46,0-.84.5-.84,1.13S392.84,278.35,393.3,278.35Z"/><path class="cls-7" d="M384.41,282.54H408.1a1.14,1.14,0,1,0,0-2.26H384.41a1.14,1.14,0,1,0,0,2.26Z"/><path class="cls-7" d="M384,278.35h5.36c.47,0,.85-.51.85-1.13s-.38-1.13-.85-1.13H384c-.47,0-.85.5-.85,1.13S383.5,278.35,384,278.35Z"/><path class="cls-7" d="M399.7,261.79H384.12c-.47,0-.85-.5-.85-1.13s.38-1.13.85-1.13H399.7c.47,0,.85.51.85,1.13S400.17,261.79,399.7,261.79Z"/><path class="cls-7" d="M409,261.79h-5.37c-.47,0-.85-.5-.85-1.13s.38-1.13.85-1.13H409c.47,0,.85.51.85,1.13S409.51,261.79,409,261.79Z"/><path class="cls-7" d="M393.46,265.92H409c.47,0,.85-.51.85-1.13s-.38-1.13-.85-1.13H393.46c-.47,0-.85.5-.85,1.13S393,265.92,393.46,265.92Z"/><path class="cls-7" d="M384.12,270.1H399.7a1,1,0,0,0,.85-1.12c0-.63-.38-1.13-.85-1.13H384.12c-.47,0-.85.5-.85,1.13A1,1,0,0,0,384.12,270.1Z"/><path class="cls-7" d="M384.12,265.92h5.37c.46,0,.84-.51.84-1.13s-.38-1.13-.84-1.13h-5.37c-.47,0-.85.5-.85,1.13S383.65,265.92,384.12,265.92Z"/><rect class="cls-5" x="358.93" y="244.93" width="21.53" height="23.05" rx="5.72"/><rect class="cls-7" x="360.83" y="314.92" width="49.32" height="2.81" rx="1.41"/><rect class="cls-6" x="391.29" y="236.09" width="18.73" height="3.27" rx="1.64"/><path class="cls-11" d="M330.88,228.63c.5,2.64-2,5.71.67,7.77,1.25,1,3.37,1.38,4.54,2.4,2.54,2.22-.74,5.31-1.81,6.93-1.3,2,.77,2.39,2.24,3.72s1.15,3.19-.13,4.59c-2,2.16-8,4.66-11.1,5-7.14.74-16-5-15.86-11.85,0-2.62,1.31-5.27.3-7.81-.64-1.6-2.14-3-3-4.56A6.49,6.49,0,0,1,308,227a9.62,9.62,0,0,1,2.78-1.78,4,4,0,0,0,2.26-2.2c1-1.61,2.79-1.57,5.59-1.25C323.89,222.43,330.21,225,330.88,228.63Z"/><path class="cls-6" d="M158.79,333.55l6.81-2.27c.34-.12.75,0,.82.25l1.09,3.74c.06.22-.2.43-.55.43l-7.32,0C157.72,335.75,157.08,334.12,158.79,333.55Z"/><path class="cls-6" d="M172.26,333.71l6.82-2.27c.34-.11.75,0,.81.25l1.09,3.75c.07.21-.2.42-.55.42l-7.31,0C171.2,335.91,170.56,334.28,172.26,333.71Z"/><path class="cls-12" d="M155.15,277.77a2.53,2.53,0,0,1,0-.28l10.3-.06c0,.09,0,.18,0,.28a176.79,176.79,0,0,0-1.35,29.11,134.42,134.42,0,0,0,1.73,18.93c.12.69.25,1.36.38,2,1.68,8.06-4.74,7.26-5.39,3.71-.39-2.08-.75-4.19-1.09-6.29-1-6.21-1.85-12.42-2.52-18.33C155.87,295.17,155.21,284.69,155.15,277.77Z"/><path class="cls-12" d="M178.94,278.05c0,.09,0,.18,0,.28a176.79,176.79,0,0,0-1.35,29.11,140.26,140.26,0,0,0,1.56,18c.17,1,.35,2,.55,3,1.68,8.06-4.74,7.26-5.39,3.72-.43-2.3-.82-4.61-1.19-6.92-1-6-1.78-12-2.42-17.7-1.32-11.69-2-22.17-2-29.09a2.46,2.46,0,0,1,0-.28Z"/><path class="cls-6" d="M154.76,278.72c-1.14-10.19-2.23-21.78-.53-31.86.7-4.16,5.86-6.24,10.1-6.94,10.52-1.72,24.17-1.25,22.26,6.4-2.5,10-5.43,25.56-8.1,35.51l-21.06-.58a2.86,2.86,0,0,1-2-.55A3.15,3.15,0,0,1,154.76,278.72Z"/><path class="cls-13" d="M129.53,232.78c1.52.25,2.55,1.33,2.31,2.41s-1.68,1.76-3.2,1.51-2.55-1.33-2.3-2.42S128,232.53,129.53,232.78Z"/><path class="cls-6" d="M149.92,242.43c4-.59,6.82-1.11,9.8-1.46,5.17-.6,7.07,6.55,1.86,7.16-3.05.36-6.09.91-9.13,1.36l-.64.1A13.51,13.51,0,0,1,149.92,242.43Z"/><path class="cls-13" d="M149.92,242.43a13.51,13.51,0,0,0,1.89,7.16c-2.45.41-5.31,1.09-7.7.71a2.26,2.26,0,0,1-1.29-.86l5-6.71Z"/><path class="cls-13" d="M135.49,235.72c2.64,2.19,11.65,7.89,11.65,7.89s-3.49,6.47-3.49,6.47c-4-1.59-11-10.55-12.67-12.74C128.11,233.54,131.72,232.62,135.49,235.72Z"/><path class="cls-13" d="M142.82,249.44l2.92-6.7c.75-.1,3.5-.21,4.18-.31Z"/><path class="cls-13" d="M207,223.49c-1.4.66-2.09,2-1.56,3s2.09,1.23,3.48.57,2.09-2,1.56-3S208.37,222.84,207,223.49Z"/><path class="cls-6" d="M190,238.34c-4,.53-13.88,1.27-16.84,1.75-5.13.82,2,7.75,7.18,6.92,3-.49,6.1-.79,9.15-1.19l.65-.08A13.5,13.5,0,0,0,190,238.34Z"/><path class="cls-13" d="M190,238.34a13.5,13.5,0,0,1,.14,7.4c2.46-.27,5.4-.39,7.6-1.41a2.3,2.3,0,0,0,1-1.18l-6.61-5.1Z"/><path class="cls-13" d="M202.05,228c-2,2.82-9.06,10.77-9.06,10.77s5.12,5.27,5.12,5.27c3.4-2.61,7.71-13.15,8.71-15.71C208.55,223.84,204.83,223.94,202.05,228Z"/><path class="cls-13" d="M198.73,243.15l-4.63-5.65c-.75.11-3.43.75-4.11.84Z"/><path class="cls-6" d="M247.8,333.68l-6.62-2.24c-.32-.11-.72,0-.79.24l-1.07,3.64c-.07.21.19.41.53.41l7.11.07C248.83,335.82,249.45,334.23,247.8,333.68Z"/><path class="cls-14" d="M252.81,282.12l-.07-.2H242.66l.14.39.91,2.54c2.61,7.2,5.86,16.16,3.69,22.76-.09.28-.74,2.18-1,2.89l-1.32,3.68c-1.61,4.46-3.12,8.68-4.29,13.14-.29,1.12-.53,2.14-.74,3.11-.45,2.14.47,3.82,1.59,4.15a1.75,1.75,0,0,0,.44.07c1.09,0,2.16-1.15,2.87-3.13.46-1.26.91-2.45,1.34-3.59,2-5.36,3.88-9.54,5.35-12.9,1-2.38,1.93-4.44,2.64-6.28.17-.44.33-.88.48-1.3a21.47,21.47,0,0,0,1.37-6.72C256.28,294.32,254.11,286.32,252.81,282.12Z"/><path class="cls-6" d="M254.9,331.66a.31.31,0,0,0-.05.1l-1,3.62c-.06.22.2.41.54.41h7.06c1.86,0,2.47-1.58.82-2.12l-2.45-.8C258.54,334.67,255.51,334.89,254.9,331.66Z"/><path class="cls-14" d="M261.16,326.51c1-6.31,1.84-12.64,2.48-18.64,1.21-11.3,1.8-21.44,1.82-28.13a2.45,2.45,0,0,0,0-.27h-9.95a2.48,2.48,0,0,0,0,.27A171.37,171.37,0,0,1,257,307.87a135.54,135.54,0,0,1-1.43,17.48c-.16,1-.32,1.88-.5,2.77a9.34,9.34,0,0,0-.15,3.54c.61,3.23,3.64,3,4.89,1.21a3.08,3.08,0,0,0,.5-1.19C260.59,330,260.88,328.23,261.16,326.51Z"/><path class="cls-7" d="M274.57,240.66l21.48.07c.65,0,1.17-.68,1.18-1.52a1.39,1.39,0,0,0-1.17-1.54l-21.48-.08a1.59,1.59,0,0,0,0,3.07Z"/><path class="cls-13" d="M285.85,241.28c-.58,1.42-.26,2.93.72,3.36s2.26-.37,2.85-1.79.26-2.93-.73-3.37S286.44,239.85,285.85,241.28Z"/><path class="cls-9" d="M272.58,251.15c-3.28-2.57-5.52-4.49-8-6.31-4.29-3.16-9.43,3.31-5.11,6.49,2.54,1.87,5,3.92,7.46,5.88l.52.42A16.21,16.21,0,0,0,272.58,251.15Z"/><path class="cls-13" d="M283.47,245c-2.62,2.62-6.07,4.89-9,7.61l-1.88-1.46a16.21,16.21,0,0,1-5.13,6.48c2,1.62,4.18,3.73,6.49,4.51,3.34,1.12,12.19-12.47,14.06-15.45C290.83,242.19,287.2,241.27,283.47,245Z"/><path class="cls-9" d="M265.34,268.75c-.28-4.15,5.5-12.92,3.07-19.32-1.34-3.51-4.49-5.47-7.88-6.61-6.86-4-13.63-2.3-18.63.84a13.61,13.61,0,0,0-5.84,15q3.12,11.81,6.58,23.53l20.78-.48a3,3,0,0,0,2-.53,7,7,0,0,0,1-3.1c-.3-2.17-.69-5.39-.89-7.55C265.43,270,265.38,269.35,265.34,268.75Z"/><path class="cls-13" d="M253.5,246.71c-.78-1-1.57-1.93-2.39-2.87a1.39,1.39,0,0,1,.22-2,4.21,4.21,0,0,1,3-1c1.21.15,3.23,1.09,2.6,2.39a33,33,0,0,1-1.77,3.31A1,1,0,0,1,253.5,246.71Z"/><path class="cls-11" d="M256.34,226.08l.44,2.21c.66,3.31-.78,6.4-3.19,6.88s-4.94-1.82-5.6-5.13l-.44-2.21c2.21-2.11,5.1-3.1,8.1-3.76A8.35,8.35,0,0,1,256.34,226.08Z"/><path class="cls-13" d="M250,232.11a1.29,1.29,0,0,0,.5,2.49,1.29,1.29,0,0,0-.5-2.49Z"/><path class="cls-13" d="M254.53,226.78a4.47,4.47,0,0,1,1.93,2.9l.65,3.25c.44,2.22-.71,4.34-2.55,4.7s-3.73-1.14-4.17-3.37l-.63-3.14Z"/><rect class="cls-13" x="251.24" y="234.06" width="4.13" height="8.45" rx="0.69" transform="translate(-41.66 54.06) rotate(-11.26)"/><path class="cls-13" d="M263,241c-.26,1.51.38,2.91,1.43,3.12s2.12-.85,2.39-2.36-.38-2.92-1.43-3.13S263.26,239.45,263,241Z"/><path class="cls-9" d="M252.16,253.46c-3.76-1.8-6.36-3.19-9.18-4.43-4.87-2.16-8.49,5.26-3.58,7.44,2.88,1.27,5.7,2.75,8.55,4.13l.59.3A16.14,16.14,0,0,0,252.16,253.46Z"/><path class="cls-13" d="M261.47,245.11c-2,3.13-4.88,6.08-7.16,9.37-.76-.35-1.47-.69-2.15-1a16.14,16.14,0,0,1-3.62,7.44c2.28,1.15,4.89,2.74,7.32,3,3.49.37,9.21-14.8,10.4-18.12C268.05,240.79,264.31,240.67,261.47,245.11Z"/><path class="cls-14" d="M426.29,333.86a.41.41,0,0,1,0,.09l1,3.63c.06.21-.2.41-.53.41h-7.07c-1.86,0-2.47-1.58-.82-2.12l2.45-.8C422.65,336.86,425.68,337.09,426.29,333.86Z"/><path class="cls-8" d="M420,328.7c-1-6.31-1.84-12.63-2.48-18.64-1.21-11.29-1.79-21.43-1.82-28.12a2.45,2.45,0,0,1,0-.27h9.95c0,.09,0,.18,0,.27a170.1,170.1,0,0,0-1.47,28.12,135.55,135.55,0,0,0,1.43,17.49c.16,1,.32,1.88.5,2.76a9.39,9.39,0,0,1,.15,3.55c-.61,3.23-3.64,3-4.89,1.21a3,3,0,0,1-.49-1.2C420.6,332.16,420.31,330.43,420,328.7Z"/><path class="cls-14" d="M439.11,334a.41.41,0,0,1,.05.09l1,3.63c.06.21-.2.41-.54.41h-7.06c-1.86,0-2.47-1.58-.82-2.12l2.45-.8C435.47,337,438.5,337.24,439.11,334Z"/><path class="cls-8" d="M432.85,328.85c-1-6.31-1.84-12.64-2.48-18.64-1.21-11.29-1.8-21.43-1.82-28.12a2.45,2.45,0,0,1,0-.27h9.95a2.48,2.48,0,0,1,0,.27A171.31,171.31,0,0,0,437,310.21a135.55,135.55,0,0,0,1.43,17.49c.16.95.32,1.88.5,2.76a9.39,9.39,0,0,1,.15,3.55c-.61,3.23-3.64,3-4.89,1.21a3.06,3.06,0,0,1-.5-1.2C433.42,332.31,433.13,330.58,432.85,328.85Z"/><path class="cls-13" d="M395.23,245c.69,1.38.47,2.91-.48,3.41s-2.28-.21-3-1.59-.47-2.9.48-3.4S394.54,243.61,395.23,245Z"/><path class="cls-12" d="M409.18,253.88c3.09-2.8,5.18-4.87,7.52-6.87,4.06-3.46,9.65,2.62,5.56,6.1-2.4,2-4.67,4.27-7,6.4l-.48.46A16.09,16.09,0,0,1,409.18,253.88Z"/><path class="cls-13" d="M397.87,248.53c2.8,2.43,6.41,4.44,9.53,6.94.64-.56,1.22-1.08,1.78-1.59a16.09,16.09,0,0,0,5.59,6.09c-1.86,1.76-3.91,4-6.16,5-3.24,1.35-13.05-11.56-15.14-14.4C390.33,246.26,393.88,245.08,397.87,248.53Z"/><path class="cls-12" d="M415.85,271c.28-4.16-5.5-12.92-3.07-19.32,1.34-3.51,4.49-5.47,7.88-6.61,6.86-4,13.63-2.3,18.63.84a13.61,13.61,0,0,1,5.84,15q-3.12,11.81-6.58,23.53l-20.78-.48a3,3,0,0,1-2-.53,7.09,7.09,0,0,1-1-3.1c.3-2.17.69-5.39.89-7.56Q415.79,271.85,415.85,271Z"/><path class="cls-13" d="M427.69,248.9c.78-1,1.57-1.92,2.39-2.87a1.39,1.39,0,0,0-.22-2,4.25,4.25,0,0,0-3-1c-1.21.15-3.23,1.09-2.6,2.39.77,1.57.38.83,1.77,3.31A1,1,0,0,0,427.69,248.9Z"/><path class="cls-11" d="M424.85,228.27l-.44,2.22c-.66,3.3.78,6.4,3.19,6.88s4.94-1.83,5.6-5.13l.44-2.22a16.43,16.43,0,0,0-8.09-3.75A8,8,0,0,0,424.85,228.27Z"/><path class="cls-13" d="M431.23,234.31a1.29,1.29,0,1,1-1.28,1A1.17,1.17,0,0,1,431.23,234.31Z"/><path class="cls-13" d="M426.66,229a4.43,4.43,0,0,0-1.93,2.89l-.65,3.25c-.44,2.23.71,4.34,2.55,4.71s3.73-1.15,4.17-3.37l.63-3.14Z"/><rect class="cls-13" x="423.66" y="238.42" width="8.45" height="4.13" rx="0.69" transform="translate(108.47 613.16) rotate(-78.74)"/><path class="cls-13" d="M418.2,243.16c.26,1.52-.38,2.92-1.43,3.13s-2.12-.85-2.39-2.37.38-2.91,1.43-3.12S417.94,241.65,418.2,243.16Z"/><path class="cls-12" d="M429,255.66c3.76-1.8,6.36-3.19,9.18-4.43,4.87-2.16,8.5,5.26,3.58,7.43-2.88,1.28-5.7,2.76-8.54,4.14l-.6.29A16.1,16.1,0,0,1,429,255.66Z"/><path class="cls-13" d="M419.72,247.31c2,3.12,4.88,6.08,7.16,9.37l2.15-1a16.1,16.1,0,0,0,3.62,7.43c-2.28,1.16-4.89,2.75-7.32,3-3.49.37-9.21-14.8-10.4-18.12C413.14,243,416.89,242.87,419.72,247.31Z"/><path class="cls-13" d="M337.56,212.9c-.9,5.1-4.69,16.91-11.8,24.75a25.88,25.88,0,0,1-5.95,5,3.37,3.37,0,1,0,3.43,5.79c14.49-9.08,18.52-31,18.36-35.5Z"/><path class="cls-8" d="M308.54,333.49l-6.81-2.22c-.34-.11-.75,0-.81.26l-1.07,3.73c-.06.21.2.41.55.41h7.3C309.62,335.67,310.24,334.05,308.54,333.49Z"/><path class="cls-8" d="M320.54,333.73l-6.81-2.22c-.34-.11-.74,0-.81.25l-1.07,3.73c-.06.21.2.41.55.41h7.3C321.62,335.9,322.25,334.28,320.54,333.73Z"/><path class="cls-9" d="M301.37,326.17q-.36,1.41-.66,2.85c-.87,4.2,3.4,6.87,5.45,1.18.48-1.34,1-2.6,1.41-3.81a8.17,8.17,0,0,1-1.54.35A9.68,9.68,0,0,1,301.37,326.17Z"/><path class="cls-9" d="M315.57,307a20.4,20.4,0,0,0,1.31-6.58A49,49,0,0,0,314.29,285a16.91,16.91,0,0,1-12.29-5l0,.1c2.18,6.91,8.29,18.8,5.69,26.81-.07.2-.14.4-.2.61-.23.68-.48,1.4-.75,2.18-1.92,5.5-4,10.84-5.4,16.42a9.68,9.68,0,0,0,4.66.57,8.17,8.17,0,0,0,1.54-.35c3.19-8.35,5.81-13.67,7.45-17.92C315.22,308,315.4,307.45,315.57,307Z"/><path class="cls-9" d="M324.69,280.7a11.23,11.23,0,0,1,0-2.69H313.42c1.1,6.2,9.24,20.16,6.3,29.18-.09.28-.19.56-.28.86-.21.61-.43,1.25-.67,1.93-1.9,5.45-3.94,10.73-5.36,16.25a6.13,6.13,0,0,0,.72.45,6.13,6.13,0,0,1-.72-.45c-.25,1-.49,2-.7,3-.87,4.2,3.41,6.87,5.45,1.18.44-1.2.87-2.35,1.28-3.45,3.31-8.73,6-14.18,7.68-18.53.16-.43.32-.85.46-1.26a20.59,20.59,0,0,0,1.3-6.58C329,293.92,327.15,287.08,324.69,280.7Z"/><path class="cls-8" d="M325.11,274a.17.17,0,0,1,0-.07v-.14c-.23-2.63-.32-5.28-.65-7.91-.05-.45-.1-.92-.14-1.38,0-.28-.07-.55-.11-.83a18.55,18.55,0,0,1-.54-7.78c.3-2.32,1.07-4.83.7-7.18a5.23,5.23,0,0,0-.15-.66,23.57,23.57,0,0,0-2.44-1.91l.36-.54c-6-2.21-13.07-1.07-13.19-1.09-1.36.55-3.5,3.6-3.47,4.95.09,4,2,7.61,2.16,11.58a12.17,12.17,0,0,1-.29,2.84,14.35,14.35,0,0,1-.49,1.39c-1.37,3.18-4,5.79-4.94,9.1a10.45,10.45,0,0,0-.41,3.43,18.8,18.8,0,0,0,.5,2.27,16.91,16.91,0,0,0,12.29,5,23.94,23.94,0,0,0,10.4-2.69l.07-.59.09,0c.1-1.38.23-2.75.34-4.12,0-.24,0-.48.06-.72l0-.32c0-.24,0-.48.05-.72-.07-.56-.13-1.1-.19-1.64Z"/><path class="cls-8" d="M324.36,248.69a11.74,11.74,0,0,0-1.89-4.1c-9.13-10.54-16.23,1.56-16.23,1.56,7.57,11.14,15.57,5,18.18,3Z"/><path class="cls-8" d="M305.84,252.43a8.61,8.61,0,0,1,4-10.13Z"/><path class="cls-13" d="M311,232.19a1.19,1.19,0,1,0,1.26.88A1.09,1.09,0,0,0,311,232.19Z"/><path class="cls-13" d="M315,227a4.11,4.11,0,0,1,2,2.57l.81,3c.54,2-.39,4.06-2.09,4.52s-3.53-.82-4.08-2.85l-.78-2.88Z"/><path class="cls-13" d="M314.1,241.68l2.47-.67a.66.66,0,0,0,.45-.81l-1.8-6.65a.64.64,0,0,0-.79-.47l-2.48.67a.65.65,0,0,0-.44.81l1.79,6.64A.66.66,0,0,0,314.1,241.68Z"/><path class="cls-15" d="M342.65,212.19c-.93,1.86-2.7,2.85-3.95,2.23s-1.51-2.64-.58-4.5,2.7-2.85,3.95-2.23S343.58,210.33,342.65,212.19Z"/><circle class="cls-9" cx="351.9" cy="203.54" r="12.52"/><path class="cls-13" d="M330.34,249.73c-.42-1-2.08-1.36-3.71-.69a3.67,3.67,0,0,0-2.16,2c-3.2,2.82-6.67,6.12-10,8.53a33.1,33.1,0,0,1-.69-5.4c-.11-2-.12-4-.09-5.8a4.11,4.11,0,0,0-1.17-3.1c-2.58-2.59-7,0-6.17,3.58l1.47,6.59,2.29,10.26a1.9,1.9,0,0,0,3.11,1,80.23,80.23,0,0,0,15.08-14C329.86,252.07,330.76,250.74,330.34,249.73Z"/><path class="cls-6" d="M66,333.52l6.62-2.23c.32-.11.72,0,.79.23l1.07,3.64c.07.22-.19.41-.53.42l-7.11.06C65,335.66,64.39,334.08,66,333.52Z"/><path class="cls-14" d="M61,282l.07-.2H71.18l-.14.39-.91,2.54c-2.61,7.2-5.86,16.16-3.69,22.76.09.29.74,2.18,1,2.9L68.75,314c1.61,4.46,3.12,8.68,4.29,13.14.29,1.12.53,2.14.74,3.11.45,2.14-.47,3.82-1.59,4.15a1.39,1.39,0,0,1-.44.07c-1.09,0-2.16-1.15-2.87-3.13-.46-1.25-.91-2.45-1.34-3.59-2.05-5.36-3.88-9.54-5.35-12.9-1-2.38-1.93-4.43-2.64-6.28-.17-.44-.33-.88-.48-1.3a21.47,21.47,0,0,1-1.37-6.72C57.56,294.17,59.73,286.16,61,282Z"/><path class="cls-6" d="M53.92,333.68l6.61-2.26c.33-.11.73,0,.8.24l1.07,3.69c.06.22-.19.42-.54.42l-7.1.07C52.89,335.86,52.27,334.25,53.92,333.68Z"/><path class="cls-14" d="M48.91,281.34l.06-.21H59.05l-.13.4L58,284.11c-2.61,7.31-5.85,16.41-3.68,23.1.09.3.74,2.22,1,3,.43,1.25.87,2.49,1.31,3.73,1.61,4.53,3.13,8.81,4.29,13.34.29,1.14.54,2.17.74,3.16.46,2.17-.47,3.88-1.59,4.21a1.31,1.31,0,0,1-.44.07c-1.08,0-2.15-1.17-2.87-3.18-.45-1.27-.9-2.48-1.34-3.64-2-5.44-3.87-9.69-5.34-13.1-1-2.41-1.94-4.5-2.64-6.38-.17-.45-.34-.88-.48-1.31a21.85,21.85,0,0,1-1.37-6.83C45.44,293.73,47.6,285.6,48.91,281.34Z"/><path class="cls-13" d="M26.27,256.26c1.26.9,1.78,2.34,1.18,3.23s-2.11.89-3.36,0-1.78-2.34-1.18-3.23S25,255.37,26.27,256.26Z"/><path class="cls-12" d="M42.76,257.56c1.41-3.93,2.29-6.74,3.42-9.6,2-5,9.75-2.22,7.78,2.77-1.16,2.94-2.13,6-3.19,9l-.21.63A16.19,16.19,0,0,1,42.76,257.56Z"/><path class="cls-13" d="M30.27,258.15c3.61.82,7.74.9,11.67,1.64.3-.79.56-1.52.82-2.23a16.19,16.19,0,0,0,7.8,2.75c-.81,2.42-1.56,5.39-3.11,7.27-2.22,2.73-17-4.07-20.12-5.59C22.55,259.68,25.13,257,30.27,258.15Z"/><path class="cls-12" d="M48.6,268.59c.28-4.15-5.5-12.92-3.07-19.32,1.34-3.51,4.49-5.47,7.88-6.61,10.09-5.9,20,.59,24.37,5.79A6.33,6.33,0,0,1,79,254.13q-3.63,14-7.73,27.94l-20.78-.49a3,3,0,0,1-2-.52,7.13,7.13,0,0,1-1-3.11c.3-2.17.69-5.39.89-7.55C48.51,269.8,48.56,269.2,48.6,268.59Z"/><path class="cls-13" d="M60.44,246.55c.78-1,1.57-1.93,2.39-2.87a1.38,1.38,0,0,0-.23-2,4.19,4.19,0,0,0-3-1c-1.21.16-3.23,1.1-2.6,2.39a33,33,0,0,0,1.77,3.31A1,1,0,0,0,60.44,246.55Z"/><path class="cls-16" d="M57.6,225.92l-.44,2.22c-.66,3.3.78,6.39,3.19,6.87s4.94-1.82,5.6-5.12l.44-2.22a16.57,16.57,0,0,0-8.1-3.76A8.35,8.35,0,0,0,57.6,225.92Z"/><path class="cls-13" d="M64,232a1.29,1.29,0,0,1-.5,2.49A1.29,1.29,0,0,1,64,232Z"/><path class="cls-13" d="M59.4,226.62a4.5,4.5,0,0,0-1.92,2.9l-.65,3.25c-.44,2.22.71,4.34,2.55,4.7s3.73-1.14,4.17-3.36l.63-3.15Z"/><rect class="cls-13" x="56.41" y="236.06" width="8.45" height="4.13" rx="0.69" transform="translate(-184.75 251.08) rotate(-78.74)"/><rect class="cls-5" x="20.52" y="228.72" width="33.63" height="34.38" rx="8.24" transform="translate(74.66 491.82) rotate(180)"/><path class="cls-13" d="M52,260.43c1.3.82,1.91,2.24,1.36,3.16s-2,1-3.35.19-1.92-2.24-1.37-3.16S50.73,259.61,52,260.43Z"/><path class="cls-12" d="M68.56,260.77c1.18-4,1.9-6.86,2.86-9.79,1.66-5.06,9.6-2.78,7.92,2.32-1,3-1.77,6.08-2.66,9.12-.06.2-.11.42-.17.64A16.22,16.22,0,0,1,68.56,260.77Z"/><path class="cls-13" d="M56.13,262.08c3.65.61,7.78.46,11.75,1,.25-.81.47-1.56.68-2.28a16.22,16.22,0,0,0,8,2.29c-.67,2.46-1.24,5.47-2.68,7.44-2.06,2.85-17.16-3.08-20.41-4.41C48.51,264.07,50.93,261.21,56.13,262.08Z"/><path class="cls-8" d="M146.84,158.81l6.16-4.94c.3-.24.77-.27.93-.05l2.55,3.48c.15.21,0,.52-.41.65l-7.51,2.81C146.58,161.5,145.3,160,146.84,158.81Z"/><path class="cls-17" d="M142.74,135.48c1,6.52,4.51,13.8,6.55,20.07,1.15,3.51,6.33,2.42,5.3-.51a91.86,91.86,0,0,1-5.34-34.13c1.26,0,19,.29,25.46-.22,6.07-.48.6-9.21-5.51-9.36-7.68-.18-7.94,0-17-.07-5.15,0-10.9,2.13-11.24,8.23C140.67,124.59,141.93,130.45,142.74,135.48Z"/><path class="cls-18" d="M164.37,57.8a9.6,9.6,0,0,0,.41,2.5l.78,2.58a9.23,9.23,0,0,0,1.7,3.18l-.58-1.91a5.26,5.26,0,0,1,.39-4.12l7.46,1.88.34,1.15a1.24,1.24,0,0,1,1.25.43,9.33,9.33,0,0,0-.34-3.7L175,57.21C171.48,56.24,167.89,56.81,164.37,57.8Z"/><path class="cls-13" d="M174.87,63.06l-.34-1.15L167.07,60a5.26,5.26,0,0,0-.39,4.12l.58,1.91.56,1.87a4.82,4.82,0,0,0,4.49,3.66l1.39,4.59a.82.82,0,0,0,1,.55l3.14-1a.82.82,0,0,0,.55-1L176,66.68a.72.72,0,0,0-.15-.27c0-.15-.06-.3-.09-.45a1.39,1.39,0,0,0,.8-1.81,1.63,1.63,0,0,0-.4-.66A1.24,1.24,0,0,0,174.87,63.06Z"/><path class="cls-6" d="M189.45,75.93c-1.46-1.53-3.78-1.78-5.9-1.81-.86,0-1.9,0-3,0-.57,0-1.17.06-1.79.11-1.3.09-2.69.22-4.13.41a52.48,52.48,0,0,0-5.59,1,4.36,4.36,0,0,0-2.23,1.1c-4.93,5.41-2.22,16.18-1.35,17.47,3.2,4.8,2.2,10.84-.12,16a14.9,14.9,0,0,1-4,7.66h26q2.08-17.55,3.54-35.16C191,80.38,191.1,77.67,189.45,75.93Z"/><path class="cls-8" d="M157.36,160.31l4.86-6.22c.24-.3.69-.44.9-.26l3.28,2.81c.19.16.07.51-.25.72l-6.68,4.45C157.72,163,156.14,161.86,157.36,160.31Z"/><path class="cls-11" d="M152.73,135.53c1.05,6.52,4.5,13.81,6.55,20.07,1.14,3.52,6.32,2.43,5.29-.51A92.11,92.11,0,0,1,159.23,121c1.26,0,19,.3,25.47-.21,6.06-.48.6-9.22-5.52-9.36-7.67-.18-7.93,0-17-.07-5.14,0-10.9,2.12-11.23,8.23C150.65,124.64,151.91,130.5,152.73,135.53Z"/><path class="cls-13" d="M178.23,78.42l-4.85.71a2.25,2.25,0,1,1-.65-4.45l4.85-.7a2.24,2.24,0,1,1,.65,4.44Z"/><path class="cls-13" d="M175.48,106.19c2.26-.81,4.17-.46,4.27.78s-1.66,2.92-3.92,3.73-4.17.47-4.27-.78S173.22,107,175.48,106.19Z"/><path class="cls-6" d="M183.66,80.14a3.88,3.88,0,0,1,2.74-5.43,5.57,5.57,0,0,1,5.69,3.7l2.38,6.78L186.92,88Z"/><path class="cls-13" d="M179,103c2.67-2.12,7.26-5.29,10.79-8l-2.91-7,7.55-2.77,2.47,7.07a5.47,5.47,0,0,1-1.3,5.76c-4.48,4.27-13.21,9-15.81,10.14C174.39,110.54,174.28,106.73,179,103Z"/><path class="cls-9" d="M174.42,111.38H152.65a1.34,1.34,0,0,1-1.23-.79L145.2,96.85a1.35,1.35,0,0,1,1.22-1.9H168.2a1.35,1.35,0,0,1,1.23.79l6.22,13.75A1.34,1.34,0,0,1,174.42,111.38Z"/><path class="cls-19" d="M172.07,222.18a5.3,5.3,0,0,1,1.48,3.85l-.1,3.93c-.06,2.69-1.95,4.85-4.2,4.79s-4-2.29-4-5l.09-3.8Z"/><path class="cls-19" d="M169.21,240.1l3.34.11a.87.87,0,0,0,.87-.87l.31-9.28a.87.87,0,0,0-.81-.92l-3.34-.11a.87.87,0,0,0-.87.87l-.31,9.27A.87.87,0,0,0,169.21,240.1Z"/><path class="cls-11" d="M166.19,226.63V228c.75,2,3.49,4.22,5.24,4.37,2.32.19,2.69-1.26,3.46-5.74Z"/><path class="cls-19" d="M166.79,227.15a1.41,1.41,0,0,0-1.37,1.41,1.4,1.4,0,0,0,1.14,1.6,1.53,1.53,0,0,0,.23-3Z"/><path class="cls-11" d="M166.2,227.07a8.21,8.21,0,0,1-1.84-5s7.76-2.39,10.21,1.93a5.83,5.83,0,0,1,.32,2.64Z"/><rect class="cls-6" x="167.01" y="238.29" width="7.67" height="2.59" rx="1.29"/><ellipse class="cls-9" cx="405.28" cy="249.01" rx="4.42" ry="4.49"/><rect class="cls-8" x="383.59" y="244.75" width="15.14" height="3.21" rx="1.61"/><path class="cls-13" d="M316.47,245.66c-1.14-1-2.28-1.92-3.44-2.87-.75-.61-1-1.52-.52-2a3,3,0,0,1,2.67-.95c1.27.15,3.63,1.09,3.48,2.39a24.45,24.45,0,0,1-.55,3.31C318,246.16,317.13,246.23,316.47,245.66Z"/></svg>