<svg id="Layer_1" data-name="Layer 1" xmlns="http://www.w3.org/2000/svg" xmlns:xlink="http://www.w3.org/1999/xlink" viewBox="0 0 229.67 512"><defs><style>.cls-1{fill:#ee497b;}.cls-2{fill:url(#linear-gradient);}.cls-3{fill:#e4e5f1;}.cls-4{fill:#26286b;}.cls-5{fill:#ffc53d;}.cls-6{fill:#cac9e0;}.cls-7{fill:url(#linear-gradient-2);}.cls-8{fill:url(#linear-gradient-3);}.cls-9{fill:url(#linear-gradient-4);}.cls-10{fill:#bbbbda;}.cls-11{fill:url(#linear-gradient-5);}.cls-12{fill:url(#linear-gradient-6);}.cls-13{fill:url(#linear-gradient-7);}.cls-14{fill:#f48346;}.cls-15{fill:#ffcb50;}.cls-16{fill:#fcb63e;}.cls-17{fill:#f9a33c;}.cls-18{fill:url(#linear-gradient-8);}.cls-19{fill:#5280c1;}.cls-20{fill:#446cb3;}.cls-21{fill:#87b6e1;}.cls-22{fill:#4973b8;}.cls-23{fill:#6da2d6;}.cls-24{fill:#4874b8;}</style><linearGradient id="linear-gradient" x1="6.32" y1="172.86" x2="36.82" y2="203.36" gradientTransform="translate(174.09 75.92) rotate(60.2)" gradientUnits="userSpaceOnUse"><stop offset="0" stop-color="#92d2f3"/><stop offset="1" stop-color="#446cb3"/></linearGradient><linearGradient id="linear-gradient-2" x1="70.36" y1="180.99" x2="112.25" y2="180.99" gradientUnits="userSpaceOnUse"><stop offset="0" stop-color="#ee497b"/><stop offset="1" stop-color="#de2263"/></linearGradient><linearGradient id="linear-gradient-3" x1="154.7" y1="191.43" x2="229.67" y2="191.43" gradientUnits="userSpaceOnUse"><stop offset="0" stop-color="#dadaeb"/><stop offset="1" stop-color="#ededf5"/></linearGradient><linearGradient id="linear-gradient-4" x1="177.85" y1="172.11" x2="204.12" y2="210.31" gradientUnits="userSpaceOnUse"><stop offset="0" stop-color="#334195"/><stop offset="1" stop-color="#26286b"/></linearGradient><linearGradient id="linear-gradient-5" x1="478.29" y1="653.96" x2="497.07" y2="653.96" gradientTransform="matrix(0.57, 0.82, -0.82, 0.57, 461.96, -596.25)" xlink:href="#linear-gradient-3"/><linearGradient id="linear-gradient-6" x1="1407.24" y1="244.44" x2="1426.02" y2="244.44" gradientTransform="matrix(-1, -0.09, -0.09, 1, 1617.98, 71.25)" xlink:href="#linear-gradient-3"/><linearGradient id="linear-gradient-7" x1="206.01" y1="86.64" x2="236.98" y2="86.64" gradientTransform="translate(-162.15 147.79) rotate(-8.56)" xlink:href="#linear-gradient-3"/><linearGradient id="linear-gradient-8" x1="12.82" y1="311.3" x2="217.26" y2="311.3" gradientUnits="userSpaceOnUse"><stop offset="0" stop-color="#92d2f3"/><stop offset="0.2" stop-color="#77afdd"/><stop offset="0.4" stop-color="#6192cb"/><stop offset="0.61" stop-color="#517dbe"/><stop offset="0.81" stop-color="#4770b6"/><stop offset="1" stop-color="#446cb3"/></linearGradient></defs><title>Dr. Commerce</title><rect class="cls-1" x="34.07" y="196.73" width="5.86" height="31.14" transform="translate(-108.42 53.27) rotate(-32.55)"/><circle class="cls-2" cx="21.57" cy="188.11" r="21.56" transform="translate(-152.39 113.35) rotate(-60.2)"/><path class="cls-3" d="M33.68,180.38A14.37,14.37,0,1,1,13.83,176,14.37,14.37,0,0,1,33.68,180.38Z"/><path class="cls-4" d="M60.35,247.4l-.09.08a4.8,4.8,0,0,1-7-1.16l-19-29.53a2.21,2.21,0,0,1,.67-3.09L39.15,211a2.24,2.24,0,0,1,3.09.67L61.39,241A4.8,4.8,0,0,1,60.35,247.4Z"/><polygon class="cls-5" points="119.9 128.3 111.29 123.81 111.29 109 101.64 127.54 110.23 132.02 110.23 146.83 119.9 128.3"/><path class="cls-4" d="M89.77,122.19A9.78,9.78,0,0,0,82,114.73v-1.41a5.89,5.89,0,0,0,4-5.55,5.78,5.78,0,0,0-5.84-5.8,5.9,5.9,0,0,0-5.87,5.86,5.75,5.75,0,0,0,4,5.51v1.41a10,10,0,0,0-7.87,7.55,1.78,1.78,0,0,0,1.75,2.2L88,124.41A1.82,1.82,0,0,0,89.77,122.19Z"/><path class="cls-1" d="M183.72,122.19a9.79,9.79,0,0,0-7.82-7.46v-1.41a5.9,5.9,0,0,0,4-5.55,5.79,5.79,0,0,0-5.84-5.8,5.91,5.91,0,0,0-5.88,5.86,5.76,5.76,0,0,0,4,5.51v1.41a10,10,0,0,0-7.86,7.55,1.78,1.78,0,0,0,1.74,2.2l15.86-.09A1.83,1.83,0,0,0,183.72,122.19Z"/><path class="cls-1" d="M63.81,122.19A9.8,9.8,0,0,0,56,114.73v-1.41a5.89,5.89,0,0,0,4-5.55A5.78,5.78,0,0,0,54.2,102a5.92,5.92,0,0,0-5.88,5.86,5.77,5.77,0,0,0,4,5.51v1.41a10,10,0,0,0-7.87,7.55,1.78,1.78,0,0,0,1.74,2.2l15.86-.09A1.83,1.83,0,0,0,63.81,122.19Z"/><path class="cls-4" d="M155.38,122.19a9.79,9.79,0,0,0-7.82-7.46v-1.41a5.88,5.88,0,0,0,4-5.55,5.77,5.77,0,0,0-5.83-5.8,5.9,5.9,0,0,0-5.88,5.86,5.76,5.76,0,0,0,4,5.51v1.41A10,10,0,0,0,136,122.3a1.78,1.78,0,0,0,1.74,2.2l15.86-.09A1.83,1.83,0,0,0,155.38,122.19Z"/><path class="cls-6" d="M84.28,134.45H75.9A5.54,5.54,0,0,0,70.36,140v9.82H89.82V140A5.54,5.54,0,0,0,84.28,134.45Z"/><path class="cls-7" d="M89.82,169.69V149.8H70.36v19.89a42.57,42.57,0,0,0,41.89,42.5V192.73A23.08,23.08,0,0,1,89.82,169.69Z"/><path class="cls-6" d="M149.89,134.45H141.5A5.54,5.54,0,0,0,136,140v9.82h19.45V140A5.54,5.54,0,0,0,149.89,134.45Z"/><path class="cls-4" d="M136,149.8v19.89a23.1,23.1,0,0,1-23.08,23.08c-.21,0-.42,0-.64,0v19.46c.22,0,.43,0,.64,0a42.58,42.58,0,0,0,42.53-42.53V149.8Z"/><path class="cls-8" d="M228.54,174.81s-25,42.27-34.23,57.49a6.68,6.68,0,0,1-9,2.36l-26.53-15.82a8.33,8.33,0,0,1-2.95-11.35l32.83-56a8.3,8.3,0,0,1,11.35-3l25.55,15A8.31,8.31,0,0,1,228.54,174.81Z"/><path class="cls-9" d="M220.22,171.1,196,156.89a4.25,4.25,0,0,0-5.81,1.52l-28.66,48.93a4.25,4.25,0,0,0,1.51,5.8l24.26,14.21a4.25,4.25,0,0,0,5.81-1.52l24.8-42.34,3.86-6.59A4.25,4.25,0,0,0,220.22,171.1Z"/><path class="cls-10" d="M214.39,164.4l-9.74-5.7a1.21,1.21,0,1,1,1.22-2.08l9.74,5.71a1.2,1.2,0,1,1-1.22,2.07Z"/><path class="cls-11" d="M205.24,169.88l9.76,5.65a3.24,3.24,0,0,1,1.17,4.41l-2.5,4.32a3.24,3.24,0,0,1-4.41,1.17L203.33,182l-4,2.5.16-4.75a3.23,3.23,0,0,1-1.12-4.37l2.5-4.32A3.23,3.23,0,0,1,205.24,169.88Z"/><path class="cls-10" d="M203.63,176.52a1.45,1.45,0,1,1,.36-2A1.44,1.44,0,0,1,203.63,176.52Z"/><path class="cls-10" d="M208.08,179a1.45,1.45,0,1,1,.35-2A1.46,1.46,0,0,1,208.08,179Z"/><path class="cls-10" d="M212.52,181.55a1.45,1.45,0,1,1,.35-2A1.45,1.45,0,0,1,212.52,181.55Z"/><path class="cls-12" d="M193.19,187.38l-9.77-5.63a3.22,3.22,0,0,0-4.4,1.19l-2.49,4.32a3.23,3.23,0,0,0,1.18,4.41l5.94,3.42-.14,4.74,4-2.51a3.24,3.24,0,0,0,4.35-1.21l2.49-4.33A3.23,3.23,0,0,0,193.19,187.38Z"/><path class="cls-10" d="M188.25,192.08a1.45,1.45,0,1,0,1.57-1.31A1.45,1.45,0,0,0,188.25,192.08Z"/><path class="cls-10" d="M183.85,189.5a1.45,1.45,0,1,0,1.57-1.32A1.45,1.45,0,0,0,183.85,189.5Z"/><path class="cls-10" d="M179.45,186.91a1.45,1.45,0,1,0,1.57-1.32A1.45,1.45,0,0,0,179.45,186.91Z"/><path class="cls-13" d="M56.51,195.64,72,185.38a5.34,5.34,0,0,1,7.37,1.51l4.54,6.86a5.34,5.34,0,0,1-1.5,7.38L73,207.37l.73,7.79-6.9-3.72a5.34,5.34,0,0,1-7.28-1.56L55,203A5.34,5.34,0,0,1,56.51,195.64Z"/><path class="cls-10" d="M65.13,202.89a2.39,2.39,0,1,1-2.72-2A2.39,2.39,0,0,1,65.13,202.89Z"/><path class="cls-10" d="M72.11,198.18a2.39,2.39,0,1,1-2.72-2A2.4,2.4,0,0,1,72.11,198.18Z"/><path class="cls-10" d="M79.08,193.47a2.39,2.39,0,1,1-2.72-2A2.39,2.39,0,0,1,79.08,193.47Z"/><rect class="cls-14" x="98.39" y="476.85" width="30.5" height="1.46"/><rect class="cls-14" x="101.95" y="484.96" width="30.5" height="2.14"/><polygon class="cls-14" points="132.45 497.42 101.95 497.42 101.95 494.42 132.45 494.25 132.45 497.42"/><rect class="cls-14" x="98.39" y="503.21" width="30.5" height="2.36"/><rect class="cls-14" x="98.39" y="468.06" width="30.5" height="1.46"/><rect class="cls-15" x="98.39" y="460.74" width="8.67" height="7.32"/><rect class="cls-16" x="120.73" y="460.74" width="11.72" height="7.32"/><rect class="cls-17" x="107.07" y="460.74" width="13.66" height="7.32"/><rect class="cls-15" x="94.84" y="469.52" width="8.67" height="7.32"/><rect class="cls-16" x="117.17" y="469.52" width="11.72" height="7.32"/><rect class="cls-17" x="103.51" y="469.52" width="13.66" height="7.32"/><rect class="cls-15" x="98.39" y="478.31" width="8.67" height="7.32"/><rect class="cls-16" x="120.73" y="478.31" width="11.72" height="7.32"/><rect class="cls-17" x="107.07" y="478.31" width="13.66" height="7.32"/><rect class="cls-15" x="101.95" y="487.1" width="8.67" height="7.32"/><rect class="cls-16" x="124.29" y="487.1" width="11.72" height="7.32"/><rect class="cls-17" x="110.63" y="487.1" width="13.66" height="7.32"/><rect class="cls-15" x="98.39" y="495.89" width="8.67" height="7.32"/><rect class="cls-16" x="120.73" y="495.89" width="11.72" height="7.32"/><rect class="cls-17" x="107.07" y="495.89" width="13.66" height="7.32"/><rect class="cls-15" x="94.84" y="504.68" width="8.67" height="7.32"/><rect class="cls-16" x="117.17" y="504.68" width="11.72" height="7.32"/><rect class="cls-17" x="103.51" y="504.68" width="13.66" height="7.32"/><rect class="cls-15" x="96.36" y="420.58" width="8.67" height="7.32" transform="translate(-270.49 195.46) rotate(-45)"/><rect class="cls-16" x="111.71" y="403.71" width="11.72" height="7.32" transform="translate(-253.62 202.45) rotate(-45)"/><rect class="cls-17" x="101.76" y="412.68" width="13.66" height="7.32" transform="translate(-262.59 198.74) rotate(-45)"/><rect class="cls-15" x="109.59" y="430.88" width="7.32" height="8.67" transform="translate(-321.46 320.01) rotate(-60.57)"/><rect class="cls-16" x="130.36" y="441.08" width="7.32" height="11.72" transform="translate(-321.09 344.07) rotate(-60.57)"/><rect class="cls-17" x="119.31" y="433.87" width="7.32" height="13.66" transform="translate(-321.29 331.27) rotate(-60.57)"/><polygon class="cls-14" points="76.31 497.42 45.87 495.89 45.87 494.25 76.31 494.25 76.31 497.42"/><polygon class="cls-14" points="76.36 505.57 48.73 504.68 48.73 502.67 76.36 503.21 76.36 505.57"/><rect class="cls-15" x="42.26" y="487.1" width="8.67" height="7.32"/><rect class="cls-16" x="64.6" y="487.1" width="11.72" height="7.32"/><rect class="cls-17" x="50.93" y="487.1" width="13.66" height="7.32"/><rect class="cls-15" x="45.87" y="495.89" width="8.67" height="7.32"/><rect class="cls-16" x="68.2" y="495.89" width="11.72" height="7.32"/><rect class="cls-17" x="54.54" y="495.89" width="13.66" height="7.32"/><rect class="cls-15" x="48.73" y="504.68" width="8.67" height="7.32"/><rect class="cls-16" x="71.07" y="504.68" width="11.72" height="7.32"/><rect class="cls-17" x="57.41" y="504.68" width="13.66" height="7.32"/><rect class="cls-14" x="153.75" y="484.96" width="28.97" height="2.14"/><rect class="cls-14" x="153.75" y="494.24" width="28.97" height="3.17" transform="translate(336.47 991.66) rotate(180)"/><rect class="cls-14" x="152.23" y="503.21" width="30.5" height="2.36"/><rect class="cls-15" x="174.05" y="478.31" width="8.67" height="7.32"/><rect class="cls-16" x="148.67" y="478.31" width="11.72" height="7.32"/><rect class="cls-17" x="160.39" y="478.31" width="13.66" height="7.32"/><rect class="cls-15" x="179.13" y="487.1" width="8.67" height="7.32"/><rect class="cls-16" x="153.75" y="487.1" width="11.72" height="7.32"/><rect class="cls-17" x="165.47" y="487.1" width="13.66" height="7.32"/><rect class="cls-15" x="174.05" y="495.89" width="8.67" height="7.32"/><rect class="cls-16" x="148.67" y="495.89" width="11.72" height="7.32"/><rect class="cls-17" x="160.39" y="495.89" width="13.66" height="7.32"/><rect class="cls-15" x="177.61" y="504.68" width="8.67" height="7.32"/><rect class="cls-16" x="152.23" y="504.68" width="11.72" height="7.32"/><rect class="cls-17" x="163.95" y="504.68" width="13.66" height="7.32"/><path class="cls-6" d="M160,0H70.11a18.06,18.06,0,0,0-18,18V58.25a18.05,18.05,0,0,0,18,18H160a18,18,0,0,0,18-18V18A18.05,18.05,0,0,0,160,0Zm15.26,58.25A15.27,15.27,0,0,1,160,73.5H70.11A15.27,15.27,0,0,1,54.86,58.25V18A15.28,15.28,0,0,1,70.11,2.77H160A15.28,15.28,0,0,1,175.21,18Z"/><path class="cls-1" d="M164.26,61.11a10,10,0,0,0-8-7.62V52.05a6,6,0,0,0,4.12-5.67,5.9,5.9,0,0,0-6-5.92,6,6,0,0,0-6,6,5.92,5.92,0,0,0,4.09,5.63v1.43a10.27,10.27,0,0,0-8,7.71,1.82,1.82,0,0,0,1.78,2.25l16.19-.09A1.86,1.86,0,0,0,164.26,61.11Z"/><path class="cls-1" d="M138,61.11a10,10,0,0,0-8-7.62V52.05a6,6,0,0,0,4.12-5.67,5.9,5.9,0,0,0-6-5.92,6,6,0,0,0-6,6,5.9,5.9,0,0,0,4.08,5.63v1.43a10.27,10.27,0,0,0-8,7.71A1.82,1.82,0,0,0,120,63.47l16.2-.09A1.87,1.87,0,0,0,138,61.11Z"/><path class="cls-1" d="M111.81,61.11a10,10,0,0,0-8-7.62V52.05A6,6,0,0,0,108,46.38a5.89,5.89,0,0,0-6-5.92,6,6,0,0,0-6,6,5.9,5.9,0,0,0,4.08,5.63v1.43a10.28,10.28,0,0,0-8,7.71,1.82,1.82,0,0,0,1.78,2.25l16.2-.09A1.86,1.86,0,0,0,111.81,61.11Z"/><path class="cls-1" d="M85.58,61.11a10,10,0,0,0-8-7.62V52.05a6,6,0,0,0,4.13-5.67,5.9,5.9,0,0,0-6-5.92,6,6,0,0,0-6,6,5.91,5.91,0,0,0,4.09,5.63v1.43a10.28,10.28,0,0,0-8,7.71,1.83,1.83,0,0,0,1.79,2.25l16.19-.09A1.86,1.86,0,0,0,85.58,61.11Z"/><path class="cls-4" d="M151.15,31.75a10,10,0,0,0-8-7.61V22.7A6,6,0,0,0,147.3,17a5.91,5.91,0,0,0-6-5.92,6,6,0,0,0-6,6,5.88,5.88,0,0,0,4.08,5.63v1.44a10.26,10.26,0,0,0-8,7.71,1.83,1.83,0,0,0,1.79,2.25l16.19-.1A1.85,1.85,0,0,0,151.15,31.75Z"/><path class="cls-4" d="M124.92,31.75a10,10,0,0,0-8-7.61V22.7A6,6,0,0,0,121.07,17a5.9,5.9,0,0,0-6-5.92,6,6,0,0,0-6,6,5.89,5.89,0,0,0,4.09,5.63v1.44a10.26,10.26,0,0,0-8,7.71,1.84,1.84,0,0,0,1.79,2.25l16.19-.1A1.85,1.85,0,0,0,124.92,31.75Z"/><path class="cls-4" d="M98.7,31.75a10,10,0,0,0-8-7.61V22.7A6,6,0,0,0,94.84,17a5.9,5.9,0,0,0-6-5.92,6,6,0,0,0-6,6A5.88,5.88,0,0,0,87,22.72v1.44a10.24,10.24,0,0,0-8,7.71,1.82,1.82,0,0,0,1.78,2.25L96.9,34A1.86,1.86,0,0,0,98.7,31.75Z"/><polygon class="cls-18" points="217.26 234.74 134.01 387.86 96.04 387.86 12.82 234.74 217.26 234.74"/><path class="cls-19" d="M214.23,242.39H14.3a11.06,11.06,0,0,1,0-22.11H214.23a11.06,11.06,0,1,1,0,22.11Z"/><rect class="cls-20" x="96.06" y="387.85" width="37.95" height="19.42"/><rect class="cls-19" x="90.62" y="403.06" width="49.03" height="8.43" rx="2.97"/><polygon class="cls-21" points="105.31 387.85 110.34 387.85 70.38 255.5 45.99 255.5 105.31 387.85"/><polygon class="cls-20" points="213.76 242.4 65.09 242.4 70.38 255.5 205.75 255.5 213.76 242.4"/><polygon class="cls-20" points="16.51 242.4 24.17 255.5 48.21 255.5 42.56 242.4 16.51 242.4"/><polygon class="cls-22" points="40.34 242.4 45.99 255.5 70.38 255.5 66.57 242.4 40.34 242.4"/><path class="cls-23" d="M38.59,232H15.15a3.64,3.64,0,1,1,0-7.27H38.59a3.64,3.64,0,1,1,0,7.27Z"/><path class="cls-23" d="M91,232H52.23a3.64,3.64,0,0,1,0-7.27H91A3.64,3.64,0,1,1,91,232Z"/><rect class="cls-24" x="105.31" y="387.85" width="5.03" height="15.21"/><path class="cls-6" d="M52.86,29.07H47.68a1.3,1.3,0,0,0,0,2.59h5.18a1.3,1.3,0,1,0,0-2.59Z"/><path class="cls-6" d="M25.6,50.34A1.3,1.3,0,0,0,26.9,49V42.13a10.72,10.72,0,0,1,.15-1.79,1.29,1.29,0,0,0-2.55-.44,12.75,12.75,0,0,0-.19,2.23V49A1.29,1.29,0,0,0,25.6,50.34Z"/><path class="cls-6" d="M38.75,29.07H37.36a12.94,12.94,0,0,0-7.8,2.59A1.29,1.29,0,0,0,30.33,34a1.34,1.34,0,0,0,.78-.25,10.34,10.34,0,0,1,6.25-2.08h1.39a1.3,1.3,0,1,0,0-2.59Z"/><path class="cls-6" d="M25.6,68.2a1.3,1.3,0,0,0,1.3-1.29V58a1.3,1.3,0,0,0-2.59,0v8.93A1.29,1.29,0,0,0,25.6,68.2Z"/><path class="cls-6" d="M25.6,86.06a1.3,1.3,0,0,0,1.3-1.29V75.84a1.3,1.3,0,1,0-2.59,0v8.93A1.29,1.29,0,0,0,25.6,86.06Z"/><path class="cls-6" d="M25.6,103.92a1.3,1.3,0,0,0,1.3-1.3V93.69a1.3,1.3,0,0,0-2.59,0v8.93A1.29,1.29,0,0,0,25.6,103.92Z"/><path class="cls-6" d="M26.9,119.9v-8.35a1.3,1.3,0,0,0-2.59,0v8.36a2.36,2.36,0,0,0-1.07,1.63,2.39,2.39,0,1,0,3.66-1.64Z"/><path class="cls-6" d="M182.69,29.07h-5.18a1.3,1.3,0,1,0,0,2.59h5.18a1.3,1.3,0,0,0,0-2.59Z"/><path class="cls-6" d="M203.47,49a1.3,1.3,0,1,0,2.59,0V42.13a12.75,12.75,0,0,0-.19-2.23,1.29,1.29,0,0,0-2.55.44,10.72,10.72,0,0,1,.15,1.79Z"/><path class="cls-6" d="M193,29.07h-1.39a1.3,1.3,0,1,0,0,2.59H193a10.34,10.34,0,0,1,6.25,2.08A1.34,1.34,0,0,0,200,34a1.31,1.31,0,0,0,1-.52,1.29,1.29,0,0,0-.27-1.81A13,13,0,0,0,193,29.07Z"/><path class="cls-6" d="M206.06,75.84a1.3,1.3,0,1,0-2.59,0v8.93a1.3,1.3,0,0,0,2.59,0Z"/><path class="cls-6" d="M204.77,92.4a1.3,1.3,0,0,0-1.3,1.29v8.93a1.3,1.3,0,1,0,2.59,0V93.69A1.29,1.29,0,0,0,204.77,92.4Z"/><path class="cls-6" d="M206.06,58a1.3,1.3,0,0,0-2.59,0v8.93a1.3,1.3,0,0,0,2.59,0Z"/><path class="cls-6" d="M207.13,121.55a2.35,2.35,0,0,0-1.07-1.64v-8.36a1.3,1.3,0,0,0-2.59,0v8.36a2.39,2.39,0,1,0,3.66,1.64Z"/></svg>