<svg id="Layer_1" data-name="Layer 1" xmlns="http://www.w3.org/2000/svg" xmlns:xlink="http://www.w3.org/1999/xlink" viewBox="0 0 427.75 342.31"><defs><style>.cls-1,.cls-2{fill:#fff;}.cls-10,.cls-12,.cls-14,.cls-15,.cls-17,.cls-18,.cls-2,.cls-20,.cls-21,.cls-26,.cls-29,.cls-3,.cls-30,.cls-32,.cls-33,.cls-35,.cls-37,.cls-39,.cls-4,.cls-7,.cls-8{fill-rule:evenodd;}.cls-3{fill:url(#Gradiente_sem_nome_69);}.cls-4{fill:#f8faff;}.cls-5,.cls-7{fill:#a1a7ff;}.cls-6{mask:url(#mask);}.cls-22,.cls-8{fill:#12348e;}.cls-9{mask:url(#mask-2);}.cls-10,.cls-16{fill:#000c4f;}.cls-11{mask:url(#mask-3);}.cls-12{fill:#ffc6cb;}.cls-13{mask:url(#mask-4);}.cls-14{fill:#fd9493;}.cls-15{fill:#352324;}.cls-17{fill:#553d3f;}.cls-18{fill:#8f4447;}.cls-19{mask:url(#mask-5);}.cls-20{fill:#ffb91f;}.cls-21{fill:#eee;}.cls-23{mask:url(#mask-6);}.cls-24,.cls-39{fill:#fa3e6a;}.cls-25{mask:url(#mask-7);}.cls-26{fill:#ee9a89;}.cls-27{mask:url(#mask-8);}.cls-28{mask:url(#mask-9);}.cls-29{fill:#f2bf1e;}.cls-30{fill:#022329;}.cls-31{mask:url(#mask-10);}.cls-32{fill:#c17262;}.cls-33{fill:#271e1e;}.cls-34{mask:url(#mask-11);}.cls-35{fill:#b4b8cc;}.cls-36{mask:url(#mask-12);}.cls-37{fill:#5c4644;}.cls-38{mask:url(#mask-13);}.cls-40{mask:url(#mask-14);}.cls-41{mask:url(#mask-15);}.cls-42{mask:url(#mask-16);}.cls-43{mask:url(#mask-17);}</style><linearGradient id="Gradiente_sem_nome_69" x1="10.75" y1="119.57" x2="417.47" y2="119.57" gradientUnits="userSpaceOnUse"><stop offset="0.16" stop-color="#e08197"/><stop offset="1" stop-color="#e08197" stop-opacity="0"/></linearGradient><mask id="mask" x="72.94" y="15.58" width="246.31" height="149.06" maskUnits="userSpaceOnUse"><g id="mask3"><rect class="cls-1" x="79.5" y="15.58" width="232.11" height="149.06" rx="4.45"/></g></mask><mask id="mask-2" x="184" y="63.95" width="36" height="36" maskUnits="userSpaceOnUse"><g id="mask4"><path class="cls-2" d="M202,100a18,18,0,1,0-18-18A18,18,0,0,0,202,100Z"/></g></mask><mask id="mask-3" x="189.26" y="66.1" width="25.11" height="30.81" maskUnits="userSpaceOnUse"><g id="mask5"><path class="cls-2" d="M204.94,93.83c12.41,1.69,10.52-8.85,5.85-19.11-2.42-8.44-6.36-7.08-6.36-7.08a3.24,3.24,0,0,0-2.89-1.51c-1.77.27-8.53,1.62-10,11.83-4.07,11.84-3,15.15,4.84,15.87S204.94,93.83,204.94,93.83Z"/></g></mask><mask id="mask-4" x="194.66" y="87.58" width="13.93" height="11.52" maskUnits="userSpaceOnUse"><g id="mask6"><path class="cls-2" d="M198.31,88.53a20.65,20.65,0,0,1-.46,4.93c-.51,1.4-3.19,1.78-3.19,1.78s2.58,3.86,6.74,3.86,7.19-3.86,7.19-3.86-3.36-.48-3.68-1.78a29.58,29.58,0,0,1-.25-4.93Z"/></g></mask><mask id="mask-5" x="199.57" y="85.19" width="4.13" height="1.63" maskUnits="userSpaceOnUse"><g id="mask7"><path class="cls-2" d="M200,85.88a2.17,2.17,0,0,0,3.51,0Z"/></g></mask><mask id="mask-6" x="110.62" y="42.99" width="53.76" height="59.83" maskUnits="userSpaceOnUse"><g id="mask8"><rect class="cls-1" x="111.77" y="42.99" width="52.6" height="59.83" rx="2.89"/></g></mask><mask id="mask-7" x="240.12" y="44.6" width="53.87" height="59.96" maskUnits="userSpaceOnUse"><g id="mask9"><rect class="cls-1" x="241.28" y="44.6" width="52.72" height="59.96" rx="2.9"/></g></mask><mask id="mask-8" x="52.7" y="163.9" width="51.01" height="133.28" maskUnits="userSpaceOnUse"><g id="mask10"><path class="cls-2" d="M59.09,163.9s-7.39,13.72-3,40.81,3,34.27,3,39.72-.74,19.36,4.66,52.75H76.52s1.22-42.2-.7-50.8c0,0,1.73-19,2.28-29.06.38-7.14,1.84-21.19,1.84-21.19s4.5,41.84,6.68,48.12a274.81,274.81,0,0,0,1.44,52.93h13.15s2.93-40.15,1.31-52.75,6.47-57-5.48-79.19Z"/></g></mask><mask id="mask-9" x="38.64" y="104.93" width="68.25" height="68.48" maskUnits="userSpaceOnUse"><g id="mask11"><path class="cls-2" d="M73.42,105.63s-19.2-.92-23.09,4.2c-1.48,1.94-3.33,4.82-6.35,11.76-2.23,5.14-5.34,12.81-5.34,12.81l16.27,5.72S57.73,148,58.25,153s-.68,14.14-.68,14.14a44.75,44.75,0,0,0,17.1,3.55c9.49,0,23-4.14,23-4.14V140.25l9.23-8s-6.23-20.11-10-23.41-8-2.33-14.78-3.94Z"/></g></mask><mask id="mask-10" x="65.12" y="90.25" width="22.64" height="21.55" maskUnits="userSpaceOnUse"><g id="mask12"><path class="cls-2" d="M71.63,90.25s0,10.5-.71,12.53-4.68,2.59-4.68,2.59S73,111,79.14,111a7.32,7.32,0,0,0,7.41-5.13s-3.65-.78-4.42-3.36a29.81,29.81,0,0,1-.55-7.34Z"/></g></mask><mask id="mask-11" x="80.81" y="92.33" width="5.17" height="2.14" maskUnits="userSpaceOnUse"><g id="mask13"><path class="cls-2" d="M80.92,92.61s1.92.07,2.79.13a11.8,11.8,0,0,0,2.17-.13s-.69,1.86-2.17,1.86S80.92,92.61,80.92,92.61Z"/></g></mask><mask id="mask-12" x="286.2" y="167.66" width="62.36" height="130.98" maskUnits="userSpaceOnUse"><g id="mask14"><path class="cls-2" d="M290.13,173.46s-5.17,29.45,2.15,68.12c0,0,.68,6.63,1.67,11.74s2.31,45.32,2.31,45.32h13.92s1.44-20.09,1.44-25.23c0-14.68-.69-17.35-2.07-22.11,0-5.79.56-13.12,1.18-24.85.3-5.49.89-18.77.89-18.77s6.2,21.84,6.94,29.8,5.85,17.29,7.12,20.31,3.63,24.56,10.21,40.85h12.67s-3.37-40.38-8.33-48.72c0,0-5.19-17.82-5.28-34.21s3-31.23-3.19-42.83S290.13,173.46,290.13,173.46Z"/></g></mask><mask id="mask-13" x="267.04" y="103.11" width="83.71" height="72.5" maskUnits="userSpaceOnUse"><g id="mask15"><path class="cls-2" d="M335.57,106.31c-4.79-4-20.34-3.11-20.34-3.11l-11.4.69s-3.53.42-4.56.44c-6.94.09-12.36,2.51-14.16,5.83-2.22,4.09-1.73,14.41-1.35,22.48a75.62,75.62,0,0,1,.14,9.39c-.52,4.32-3,7-5.48,9.69-.67.72-1.34,1.45-2,2.21-3,3.61-9.4,9.53-9.4,9.53s4.51,2.81,6,4.7a11.52,11.52,0,0,1,1.8,5.17s7.35-6.81,10.27-9.87a21.25,21.25,0,0,0,4.22-6.63s.52,1.19.72,5.69,0,11.59,0,11.59,14,1.5,21.24,1.5,21-1.5,21-1.5-.91-7.69-1.89-11.59a73,73,0,0,0-3.4-9.31,141.5,141.5,0,0,0,14.81-1.29c10.51-1.29,9.89-6.2,7.44-13.52-.24-.72-.52-1.57-.83-2.53C345.55,127.15,339.89,109.93,335.57,106.31Zm-8.74,35.56,2.39-13,6.38,11.72Z"/></g></mask><mask id="mask-14" x="250.29" y="161.5" width="23.54" height="19.25" maskUnits="userSpaceOnUse"><g id="mask16"><path class="cls-2" d="M271.8,165.82a6.38,6.38,0,0,0-5.6-2.26c-2.87.38-7.57-2.06-7.57-2.06s-.6,2,.82,2.82a31.81,31.81,0,0,0,4.69,2s-1.59,3.42-10.19,7.5c0,0-3.19,1-2.75,2s3.4.41,5.63-.53a28.39,28.39,0,0,1-5.44,2.91c-2,.6-1.27,3,2.5,1.38a1.13,1.13,0,0,0,1.27,1.23,5.25,5.25,0,0,0,1.9-.28s.49.55,4.14-.36,11.5-5.84,12.35-7.91a4.62,4.62,0,0,0-.51-4A6.5,6.5,0,0,0,271.8,165.82Z"/></g></mask><mask id="mask-15" x="294.18" y="143.02" width="22.36" height="10.44" maskUnits="userSpaceOnUse"><g id="mask17"><path class="cls-2" d="M305.61,143.16c-3.05-1.12-10.72,4.69-11.27,6.3s.57,1.76.57,1.76-.26,1.2,1.34,1.2c0,0,.3.57,1.6.43.13,0-.22.61.94.61s6.58-1.3,8.81-1c2.48.29,8.94-1.8,8.94-1.8l-.15-7.46S308.66,144.27,305.61,143.16Z"/></g></mask><mask id="mask-16" x="297.4" y="88.69" width="19.35" height="21.47" maskUnits="userSpaceOnUse"><g id="mask18"><path class="cls-2" d="M311.94,88.69s-.21,10.51.71,12.5,4.1,1.84,4.1,1.84a47.86,47.86,0,0,1-6.26,4.84,22.4,22.4,0,0,1-6.18,2.29,22.28,22.28,0,0,1-3.91-2.08,24.28,24.28,0,0,1-3-3.66s3.33-1.13,4.13-3.53.55-7.32.55-7.32Z"/></g></mask><mask id="mask-17" x="298.08" y="90.72" width="5.17" height="2.14" maskUnits="userSpaceOnUse"><g id="mask19"><path class="cls-2" d="M303.14,91s-1.91.06-2.78.13a11.94,11.94,0,0,1-2.18-.13s.69,1.86,2.18,1.86S303.14,91,303.14,91Z"/></g></mask></defs><title>Driving Emotional Connection</title><path class="cls-3" d="M13,142.1c-15.51,80.1,51.74,103,109.19,91.29s74.91-9.52,153.57,3,125.28-19.34,139.3-80.12S381.91,29.11,269,4.45,28.52,62,13,142.1Z"/><path class="cls-4" d="M213.87,342.31C332,342.31,427.75,332,427.75,319.2S332,296.09,213.87,296.09,0,306.44,0,319.2,95.75,342.31,213.87,342.31Z"/><rect class="cls-5" x="79.5" y="15.58" width="232.11" height="149.06" rx="4.45"/><g class="cls-6"><rect class="cls-5" x="72.94" y="15.58" width="246.31" height="23.48"/><path class="cls-7" d="M96.7,29.78a2.46,2.46,0,1,0-2.46-2.46A2.46,2.46,0,0,0,96.7,29.78Z"/><path class="cls-7" d="M107.08,29.78a2.46,2.46,0,1,0-2.46-2.46A2.46,2.46,0,0,0,107.08,29.78Z"/><path class="cls-7" d="M117.45,29.78A2.46,2.46,0,1,0,115,27.32,2.46,2.46,0,0,0,117.45,29.78Z"/></g><rect class="cls-5" x="121.66" y="49.98" width="155.84" height="98.34" rx="4.84"/><path class="cls-8" d="M202,100a18,18,0,1,0-18-18A18,18,0,0,0,202,100Z"/><g class="cls-9"><path class="cls-10" d="M204.94,93.83c12.41,1.69,10.52-8.85,5.85-19.11-2.42-8.44-6.36-7.08-6.36-7.08a3.24,3.24,0,0,0-2.89-1.51c-1.77.27-8.53,1.62-10,11.83-4.07,11.84-3,15.15,4.84,15.87S204.94,93.83,204.94,93.83Z"/><g class="cls-11"><path class="cls-10" d="M196.42,95.38s-2.52-7-1.46-17.54L208.22,77s1.44,18.12-2.68,19.53S196.42,95.38,196.42,95.38Z"/></g><path class="cls-12" d="M198.31,88.53a20.65,20.65,0,0,1-.46,4.93c-.51,1.4-3.19,1.78-3.19,1.78s2.58,3.86,6.74,3.86,7.19-3.86,7.19-3.86-3.36-.48-3.68-1.78a29.58,29.58,0,0,1-.25-4.93Z"/><g class="cls-13"><path class="cls-14" d="M198,89.27a14.63,14.63,0,0,0,6.92,4l-.19-5.74-6.84.07Z"/></g><path class="cls-12" d="M195,77.84c-.72,8.28,3.71,12,6.46,12s7.52-3.68,6.75-13c0,0-1.38-1.27-1.84-1.85a21.75,21.75,0,0,1-1.58-2.5,11.49,11.49,0,0,1-4.82,4.35A29,29,0,0,1,195,77.84Z"/><path class="cls-14" d="M200.75,83.43s.38.77,1,.77.85-.77.85-.77a1.27,1.27,0,0,1-.85.32A2.08,2.08,0,0,1,200.75,83.43Z"/><path class="cls-15" d="M203.84,81.1a.54.54,0,1,0-.53-.54A.54.54,0,0,0,203.84,81.1Z"/><path class="cls-15" d="M199.46,81.1a.54.54,0,1,0-.54-.54A.54.54,0,0,0,199.46,81.1Z"/><path class="cls-16" d="M208.59,77c-3-.91-3.74-4.5-3.74-4.5a10.28,10.28,0,0,1-10,5.41"/><path class="cls-17" d="M198.06,79a7.14,7.14,0,0,1,1.94-.28c.46,0,.42.47.07.41a6.49,6.49,0,0,0-1.75.06C197.92,79.24,197.76,79.11,198.06,79Z"/><path class="cls-17" d="M205.09,79a7.16,7.16,0,0,0-2-.28c-.45,0-.42.47-.06.41a6.41,6.41,0,0,1,1.74.06C205.23,79.24,205.38,79.11,205.09,79Z"/><path class="cls-18" d="M200,85.88a2.17,2.17,0,0,0,3.51,0Z"/><g class="cls-19"><path class="cls-7" d="M199.57,85.19h4.12v.6a7.76,7.76,0,0,1-2,.49,9.62,9.62,0,0,1-2.13-.49Z"/></g></g><path class="cls-20" d="M153.62,129.1l-6.15,3.24,1.17-6.86-5-4.85,6.88-1,3.07-6.24,3.08,6.24,6.87,1-5,4.85,1.17,6.86Z"/><path class="cls-20" d="M177.41,129.1l-6.15,3.24,1.17-6.86-5-4.85,6.88-1,3.08-6.24,3.07,6.24,6.88,1-5,4.85,1.18,6.86Z"/><path class="cls-20" d="M201.19,129.1,195,132.34l1.18-6.86-5-4.85,6.88-1,3.07-6.24,3.08,6.24,6.88,1-5,4.85,1.17,6.86Z"/><path class="cls-21" d="M225,129.1l-6.15,3.24,1.17-6.86-5-4.85,6.88-1,3.08-6.24,3.07,6.24,6.88,1-5,4.85,1.18,6.86Z"/><path class="cls-21" d="M248.76,129.1l-6.15,3.24,1.18-6.86-5-4.85,6.88-1,3.07-6.24,3.08,6.24,6.88,1-5,4.85,1.17,6.86Z"/><rect class="cls-22" x="111.77" y="42.99" width="52.6" height="59.83" rx="2.89"/><g class="cls-23"><rect class="cls-24" x="123.04" y="67.84" width="4.34" height="24.28" rx="1.73"/><rect class="cls-24" x="131.71" y="76.23" width="4.34" height="15.9" rx="1.73"/><rect class="cls-24" x="140.39" y="70.16" width="4.34" height="21.96" rx="1.73"/><rect class="cls-24" x="149.06" y="62.93" width="4.34" height="29.19" rx="1.73"/><rect class="cls-22" x="110.62" y="42.99" width="53.76" height="12.14"/></g><rect class="cls-22" x="241.28" y="44.6" width="52.72" height="59.96" rx="2.9"/><g class="cls-25"><path class="cls-20" d="M280.78,82a13.08,13.08,0,0,1-19,11.66A13.27,13.27,0,0,1,258,90.77a13.09,13.09,0,0,1,9.71-21.87V82L278,74a13,13,0,0,1,2.76,8Z"/><path class="cls-16" d="M280.78,82a13.09,13.09,0,0,1-5.42,10.61L267.69,82,278,74A13,13,0,0,1,280.78,82Z"/><path class="cls-24" d="M280.92,67.88l-10.33,8v-13a13.08,13.08,0,0,1,10.33,5Z"/><rect class="cls-22" x="240.12" y="44.6" width="53.87" height="12.17"/></g><path class="cls-26" d="M97.22,140.25h14.51V163.9S99.64,169.5,97.22,166,97.22,140.25,97.22,140.25Z"/><path class="cls-26" d="M100.21,296.61v6.31l-8.8,3.83L89.52,305v-9.86Z"/><path class="cls-26" d="M74.31,295.69l.88,12.66H64.5s2.81-8.73,1.23-14.56S74.31,295.69,74.31,295.69Z"/><path class="cls-10" d="M109.65,311.44c4.23,2.3,5.31,3.56,5.31,5.59,0,0-12.08,3.43-17-.67,0,0-2.74-3.23-4.41-.46l-5.74-.53S86.77,307,89.29,302.7a3.75,3.75,0,0,0,3.37,2c2.28-.16,5.88-3.24,7.62-3.63C100.28,301.06,105.42,309.15,109.65,311.44Z"/><path class="cls-10" d="M73.89,303.79s-4.09-4-8.25-.52a18.67,18.67,0,0,1-3.36,7.2c-2.46,2.91-5.05,5.94-2.24,9.8,0,0,8.68.94,12.43-1.93a13.34,13.34,0,0,0,.11-2.21s1.44.48,3.93-.72a49.81,49.81,0,0,0-.52-8.34A12.11,12.11,0,0,0,73.89,303.79Z"/><path class="cls-8" d="M59.09,163.9s-7.39,13.72-3,40.81,3,34.27,3,39.72-.74,19.36,4.66,52.75H76.52s1.22-42.2-.7-50.8c0,0,1.73-19,2.28-29.06.38-7.14,1.84-21.19,1.84-21.19s4.5,41.84,6.68,48.12a274.81,274.81,0,0,0,1.44,52.93h13.15s2.93-40.15,1.31-52.75,6.47-57-5.48-79.19Z"/><g class="cls-27"><path class="cls-8" d="M99.36,165.68s-9.44,3.41-14.68,4.73C76.39,172.49,66.49,173.79,64,176c-6.12,5.38-10.08,39.48-10.08,39.48s-4.58-35.21,4.1-49.78Z"/><path class="cls-8" d="M79.94,196.13l2-4.29,4.67,52.41-3.34-9.39Z"/></g><path class="cls-20" d="M73.42,105.63s-19.2-.92-23.09,4.2c-1.48,1.94-3.33,4.82-6.35,11.76-2.23,5.14-5.34,12.81-5.34,12.81l16.27,5.72S57.73,148,58.25,153s-.68,14.14-.68,14.14a44.75,44.75,0,0,0,17.1,3.55c9.49,0,23-4.14,23-4.14V140.25l9.23-8s-6.23-20.11-10-23.41-8-2.33-14.78-3.94Z"/><g class="cls-28"><path class="cls-29" d="M100.32,168.84V147.93s-11,5.87-22.89,4.54-19.09-19.89-19.09-19.89l-4.64,10.7,3.72,27.36a37.34,37.34,0,0,0,15.92,2.74C82.57,173,100.32,168.84,100.32,168.84Z"/><path class="cls-29" d="M96,121.38l7.69,16.6-7.69,10a49.77,49.77,0,0,0,1.52-10.71C97.54,132.26,96,121.38,96,121.38Z"/><path class="cls-22" d="M54.91,140.12l5.74-12.73"/><path class="cls-22" d="M96,122.1l2,17"/></g><path class="cls-30" d="M73.72,92.21s.75,3.46-1.84,1-1.71-6.27-1.71-6.27-1.12-2-1.38-2.62c-2.38-6,.82-12.45,5.85-14.09s8.87-.86,12,2,3.72,11.74,0,11.15S73.72,92.21,73.72,92.21Z"/><path class="cls-26" d="M71.63,90.25s0,10.5-.71,12.53-4.68,2.59-4.68,2.59S73,111,79.14,111a7.32,7.32,0,0,0,7.41-5.13s-3.65-.78-4.42-3.36a29.81,29.81,0,0,1-.55-7.34Z"/><g class="cls-31"><path class="cls-32" d="M83.58,103.22s-3.35-1.58-6-3.08-4.43-7.66-4.43-7.66l10.81,4Z"/><path class="cls-20" d="M68.34,104.93s3.06,2.94,4.76,3.68C78.5,111,83.25,109.73,85,105.5l1.49-.78,1.26.78s.27,5.68-9.89,6.27-12.76-6.84-12.76-6.84Z"/></g><path class="cls-26" d="M70.48,82.72c-1.58,0-2,.34-2.11,1.14A7.68,7.68,0,0,0,69.28,88c.66,1,1.47.89,1.47.89,1.63,5.91,7.44,8.9,11,9.17,2.2,0,3.12-.34,4.19-1.27,1.94-1.71,3.58-7.8,2.82-17a4.17,4.17,0,0,0-.24-1.4,1.63,1.63,0,0,0-.91-.74,7.67,7.67,0,0,1-4.42,1.85c-2.93.32-7.51-1.3-8.42-1.11s-1.53.44-1.93,2a10.84,10.84,0,0,0,0,3.73Z"/><path class="cls-33" d="M80.83,85.48a.77.77,0,1,0-.81-.76A.78.78,0,0,0,80.83,85.48Z"/><path class="cls-33" d="M86.75,85.67a.77.77,0,1,0-.81-.77A.79.79,0,0,0,86.75,85.67Z"/><path class="cls-17" d="M87.74,82.12a4.14,4.14,0,0,0-1.8-.3c-.71,0-.62.57-.15.51a3.47,3.47,0,0,1,1.54.07C88.12,82.59,88.21,82.35,87.74,82.12Z"/><path class="cls-17" d="M78.66,82.07a12.36,12.36,0,0,1,3-.39c.71,0,.65.67.1.58a10.82,10.82,0,0,0-2.71.09C78.44,82.48,78.2,82.3,78.66,82.07Z"/><path class="cls-32" d="M82.16,89A2.15,2.15,0,0,0,83.8,90.1a1,1,0,0,0,1-.89s0,.23-.89.23A5.13,5.13,0,0,1,82.16,89Z"/><path class="cls-18" d="M80.92,92.61s1.92.07,2.79.13a11.8,11.8,0,0,0,2.17-.13s-.69,1.86-2.17,1.86S80.92,92.61,80.92,92.61Z"/><g class="cls-34"><path class="cls-7" d="M80.92,92.65s3.26,1.35,5,0l.1-.32-5.17.1Z"/></g><path class="cls-30" d="M83.58,90.6s-3.92,1-3.92,1.74c0,.37.79.08,2.12-.3.53-.14,1.8-.32,1.8-.32Z"/><path class="cls-30" d="M84.2,90.6s3.23.65,3.23,1.44c0,.38-.13.4-1.45,0-.53-.15-1.78-.33-1.78-.33Z"/><path class="cls-22" d="M77.39,84.79l-6.07-2.43a5.9,5.9,0,0,0-1.87.12"/><path class="cls-22" d="M85.48,83.19h2.29a1.61,1.61,0,0,1,1.61,1.61h0a1.61,1.61,0,0,1-1.61,1.61H85.48a1.61,1.61,0,0,1-1.61-1.61h0A1.61,1.61,0,0,1,85.48,83.19Z"/><path class="cls-22" d="M79,83.19h2.28A1.61,1.61,0,0,1,82.9,84.8h0a1.61,1.61,0,0,1-1.61,1.61H79a1.62,1.62,0,0,1-1.62-1.61h0A1.62,1.62,0,0,1,79,83.19Z"/><path class="cls-22" d="M68.21,157.89a.53.53,0,0,1,.53-.53H93.6v3.28H68.74a.54.54,0,0,1-.53-.54Z"/><path class="cls-35" d="M99.87,131.76a1.09,1.09,0,0,1,1-.64h39.75a1.08,1.08,0,0,1,1,1.49l-11.81,28a1.08,1.08,0,0,1-1,.66H88.59a1.07,1.07,0,0,1-1-1.5Z"/><path class="cls-8" d="M100.69,131.76a1.08,1.08,0,0,1,1-.64h39.74a1.08,1.08,0,0,1,1,1.49l-11.81,28a1.08,1.08,0,0,1-1,.66H89.41a1.07,1.07,0,0,1-1-1.5Z"/><path class="cls-7" d="M115.31,150.8a2.87,2.87,0,1,0-2.87-2.87A2.88,2.88,0,0,0,115.31,150.8Z"/><path class="cls-26" d="M109.15,162.57c-.61-1.45-1.13-7.62-.19-7.85s1.3,5.07,1.54,5.07-.62-8.89.35-9,1.6,7.54,2.06,7.54-.28-8.52,1-8.51,1.38,8.68,1.78,9,1.15-6.71,1.6-7.78,1.21-1.23,1.22.76.05,7.46.05,8.62,2.42,1,2.42,1,0,1.22-.91,1.59-1.76,0-2.09.13a11.81,11.81,0,0,1-4,1.33C110.94,165,109.47,163.32,109.15,162.57Z"/><path class="cls-26" d="M71.82,157.81c3.06-.44,6-5.17,6-5.17l2.1.25a8.87,8.87,0,0,1,1.54,1.26c.61.67,1.61,0,.61-1.26a6.55,6.55,0,0,0-2.53-1.83s1.84-.32,2.21,0,1.79,1.83,2.43,1.83a3.46,3.46,0,0,0,1.5-.59c1.71.66,1.71-1,1.71-1,1.48,1.15,2.82.75,1.65-1.13a14.39,14.39,0,0,0-4.86-4.45A11,11,0,0,0,75.49,147a49.44,49.44,0,0,1-7.21,4.07A100.85,100.85,0,0,1,50,149.42l4.89-9.3-14.08-5.24S34,151.13,36.74,155.65s22.93,4.52,32.11,2C68.85,157.62,68.75,158.25,71.82,157.81Z"/><path class="cls-22" d="M50,149.42s-4.83.13-6.1,1.86"/><path class="cls-22" d="M85.66,152.3l-2.33-2.71a6.35,6.35,0,0,0-3.52-.36"/><path class="cls-22" d="M87.37,151.3a15.62,15.62,0,0,0-2.82-3.36c-1.11-.7-2.23-.85-4.74-.54"/><path class="cls-26" d="M297.23,297.88a4.46,4.46,0,0,1-1.41,3.27l4.37,2.15,3.33,1.22a20.38,20.38,0,0,0,3.94.67c1.44,0,3.27-2.36,3.27-2.36l-1.58-5.56Z"/><path class="cls-26" d="M336.86,297.27a65.86,65.86,0,0,1,.72,7,9.88,9.88,0,0,0,.17,2.66l4.48-2.36a20.38,20.38,0,0,0,3.94.67c1.45,0,2.55-1.77,2.55-1.77l-1.53-6.84Z"/><path class="cls-10" d="M295.87,301s-6.27,9.5-11.07,11.35-4.38,5.61-4.38,5.61,6.94,2.11,13.3.78,9.42-4,10.89-4.65l.61,1.66,6.45-1.66-.82-11.69s-4.73,3.14-8.74.87S295.87,301,295.87,301Z"/><path class="cls-10" d="M337.58,306.26s1,6.72,1,8.67-1,4,0,6.18,10.21,2.69,13.08,0-2.17-17.6-3.67-18.95-6.44-1-7.93.42A12.24,12.24,0,0,0,337.58,306.26Z"/><path class="cls-8" d="M290.13,173.46s-5.17,29.45,2.15,68.12c0,0,.68,6.63,1.67,11.74s2.31,45.32,2.31,45.32h13.92s1.44-20.09,1.44-25.23c0-14.68-.69-17.35-2.07-22.11,0-5.79.56-13.12,1.18-24.85.3-5.49.89-18.77.89-18.77s6.2,21.84,6.94,29.8,5.85,17.29,7.12,20.31,3.63,24.56,10.21,40.85h12.67s-3.37-40.38-8.33-48.72c0,0-5.19-17.82-5.28-34.21s3-31.23-3.19-42.83S290.13,173.46,290.13,173.46Z"/><g class="cls-36"><path class="cls-8" d="M330.4,174.44s-26.62,5-33.29,7.07S288,215.12,288,215.12l-1.79-41.66,18.66-5.8Z"/></g><path class="cls-37" d="M274.84,173.33s-2.43,1.53-6.47-1.47.41-8.84.41-8.84l6.91,5Z"/><path class="cls-7" d="M335.57,106.31c-4.79-4-20.34-3.11-20.34-3.11l-11.4.69s-3.53.42-4.56.44c-6.94.09-12.36,2.51-14.16,5.83-2.22,4.09-1.73,14.41-1.35,22.48a75.62,75.62,0,0,1,.14,9.39c-.52,4.32-3,7-5.48,9.69-.67.72-1.34,1.45-2,2.21-3,3.61-9.4,9.53-9.4,9.53s4.51,2.81,6,4.7a11.52,11.52,0,0,1,1.8,5.17s7.35-6.81,10.27-9.87a21.25,21.25,0,0,0,4.22-6.63s.52,1.19.72,5.69,0,11.59,0,11.59,14,1.5,21.24,1.5,21-1.5,21-1.5-.91-7.69-1.89-11.59a73,73,0,0,0-3.4-9.31,141.5,141.5,0,0,0,14.81-1.29c10.51-1.29,9.89-6.2,7.44-13.52-.24-.72-.52-1.57-.83-2.53C345.55,127.15,339.89,109.93,335.57,106.31Zm-8.74,35.56,2.39-13,6.38,11.72Z"/><g class="cls-38"><path class="cls-7" d="M334.61,174.33,327,153.21s-16.09,1.18-25.3-5.85-12.51-30-12.51-30c-1.15,6.12.12,14.35.61,24.55.2,4.08-.61,13.16-.61,13.16l-1.2,19.3Z"/><path class="cls-5" d="M342.77,142.35c-2.73-1.48-7.17-1.78-7.17-1.78s-5.36.86-8.77,1.3S316.66,143,316.66,143l.2,10.17h11.29"/><path class="cls-22" d="M289.06,117.83a71.12,71.12,0,0,0,.74,19"/><path class="cls-39" d="M286,137.16,296,169.74l20.56-8.37s-4.17-10.58-6.5-16.92a103.29,103.29,0,0,1-3.83-15.15Z"/><path class="cls-39" d="M285,139.31l9.94,32.58,23.45-8.07s-5.71-10.86-8-17.19-5.19-15.18-5.19-15.18Z"/><path class="cls-22" d="M329.72,124.45l-.94,6"/></g><path class="cls-26" d="M271.8,165.82a6.38,6.38,0,0,0-5.6-2.26c-2.87.38-7.57-2.06-7.57-2.06s-.6,2,.82,2.82a31.81,31.81,0,0,0,4.69,2s-1.59,3.42-10.19,7.5c0,0-3.19,1-2.75,2s3.4.41,5.63-.53a28.39,28.39,0,0,1-5.44,2.91c-2,.6-1.27,3,2.5,1.38a1.13,1.13,0,0,0,1.27,1.23,5.25,5.25,0,0,0,1.9-.28s.49.55,4.14-.36,11.5-5.84,12.35-7.91a4.62,4.62,0,0,0-.51-4A6.5,6.5,0,0,0,271.8,165.82Z"/><g class="cls-40"><path class="cls-22" d="M256.05,175.59a44.58,44.58,0,0,0,4.19-2.24"/><path class="cls-22" d="M253.57,179.7s5.57-2.7,7.86-4.15"/><path class="cls-22" d="M257.06,180.47s-.6-.51,1.27-1.31,4.25-1.95,4.25-1.95"/><path class="cls-22" d="M259.81,172.32a10.21,10.21,0,0,0,3.81,5.48"/><path class="cls-22" d="M264.14,166.28l1.85.37"/></g><path class="cls-26" d="M305.61,143.16c-3.05-1.12-10.72,4.69-11.27,6.3s.57,1.76.57,1.76-.26,1.2,1.34,1.2c0,0,.3.57,1.6.43.13,0-.22.61.94.61s6.58-1.3,8.81-1c2.48.29,8.94-1.8,8.94-1.8l-.15-7.46S308.66,144.27,305.61,143.16Z"/><g class="cls-41"><path class="cls-22" d="M294.91,151.22a17.47,17.47,0,0,1,5.9-4.59"/><path class="cls-22" d="M296.25,152.42A51.42,51.42,0,0,1,302,148.3"/><path class="cls-22" d="M297.86,152.93s4.46-2.31,5.45-2.57"/></g><path class="cls-8" d="M312.15,92.79A34.74,34.74,0,0,0,313.47,89c.62-2.37.39-4.62,1.28-6.87,2.36-6,.79-7.84-.54-8.75,0,0-.26-3.06-5.25-4.7s-12.18-2.09-14.54,0-1.65,5.48-.4,7.45c0,0-.63,4.28,1.06,6.49S312.15,92.79,312.15,92.79Z"/><path class="cls-26" d="M311.94,88.69s-.21,10.51.71,12.5,4.1,1.84,4.1,1.84a47.86,47.86,0,0,1-6.26,4.84,22.4,22.4,0,0,1-6.18,2.29,22.28,22.28,0,0,1-3.91-2.08,24.28,24.28,0,0,1-3-3.66s3.33-1.13,4.13-3.53.55-7.32.55-7.32Z"/><g class="cls-42"><path class="cls-32" d="M300.1,101.62s3.32-1.57,6-3.06,4.39-7.64,4.39-7.64l-10.71,4Z"/></g><path class="cls-26" d="M313.09,81.18c1.56,0,2,.34,2.09,1.14a7.64,7.64,0,0,1-.91,4.1c-.65,1-1.45.88-1.45.88A13.11,13.11,0,0,1,302,96.45c-2.19,0-3.1-.34-4.16-1.27-1.93-1.7-3.55-7.77-2.8-16.92l1.15-2.13a28.29,28.29,0,0,0,5.81.92,60.87,60.87,0,0,0,7.45-.92,7.06,7.06,0,0,0,0,3.07,11,11,0,0,0,2.3,2.73Z"/><path class="cls-33" d="M303.24,84.41a.77.77,0,1,1,.8-.77A.79.79,0,0,1,303.24,84.41Z"/><path class="cls-33" d="M297.31,84.59a.77.77,0,1,1,.81-.76A.78.78,0,0,1,297.31,84.59Z"/><path class="cls-17" d="M296.32,80.51a4.16,4.16,0,0,1,1.8-.3c.71,0,.62.57.15.51a3.47,3.47,0,0,0-1.54.07C295.94,81,295.86,80.73,296.32,80.51Z"/><path class="cls-17" d="M305.41,80.46a12.45,12.45,0,0,0-3-.39c-.71,0-.65.67-.1.58a10.9,10.9,0,0,1,2.72.09C305.63,80.87,305.87,80.69,305.41,80.46Z"/><path class="cls-32" d="M301.9,87.41a2.15,2.15,0,0,1-1.64,1.08,1,1,0,0,1-1.05-.89s0,.23.9.23A5,5,0,0,0,301.9,87.41Z"/><path class="cls-18" d="M303.14,91s-1.91.06-2.78.13a11.94,11.94,0,0,1-2.18-.13s.69,1.86,2.18,1.86S303.14,91,303.14,91Z"/><g class="cls-43"><path class="cls-7" d="M303.14,91s-3.26,1.35-5,0l-.1-.32,5.17.09Z"/></g></svg>