<svg id="Layer_1" data-name="Layer 1" xmlns="http://www.w3.org/2000/svg" viewBox="0 0 242.64 248.3"><defs><style>.cls-1{fill:#a1a7ff;}.cls-2{fill:#153c77;}.cls-3{fill:#12348e;}.cls-4{fill:#fff;}.cls-5{fill:#ffb91f;}.cls-6{fill:#002651;}.cls-7{fill:#fa3e6a;}.cls-8{fill:#f39e8c;}.cls-9{fill:#feb7a6;}.cls-10{fill:#29235c;}.cls-11{fill:#fd695b;}.cls-12{fill:#f34940;}.cls-13{fill:none;}</style></defs><title>Efficiency</title><path class="cls-1" d="M208.6,51.9v-8l-5.37-1.26a37.18,37.18,0,0,0-2.3-8.58l4-3.77-4-6.93L195.67,25a37.37,37.37,0,0,0-6.28-6.29L191,13.4l-6.93-4-3.77,4a36.88,36.88,0,0,0-8.59-2.29l-1.25-5.37h-8l-1.26,5.37a36.88,36.88,0,0,0-8.59,2.29l-3.76-4-6.93,4,1.59,5.27A37.75,37.75,0,0,0,137.22,25l-5.28-1.6-4,6.93,4,3.77a36.67,36.67,0,0,0-2.29,8.58L124.3,43.9v8l5.37,1.26A36.8,36.8,0,0,0,132,61.74l-4,3.77,4,6.93,5.28-1.6a37.32,37.32,0,0,0,6.28,6.28l-1.59,5.28,6.93,4,3.76-4a36.88,36.88,0,0,0,8.59,2.29l1.26,5.37h8l1.25-5.37a36.88,36.88,0,0,0,8.59-2.29l3.77,4,6.93-4-1.6-5.28a37,37,0,0,0,6.28-6.28l5.28,1.6,4-6.93-4-3.77a37.31,37.31,0,0,0,2.3-8.58Zm-67.26-3.5a25.11,25.11,0,1,1,25.11,25.11A25.14,25.14,0,0,1,141.34,48.4Z"/><path class="cls-1" d="M219.74,190.49v-8l-5.37-1.26a36.8,36.8,0,0,0-2.29-8.58l4-3.77-4-6.93-5.27,1.6a37.32,37.32,0,0,0-6.28-6.28l1.59-5.28-6.93-4-3.77,4a36.68,36.68,0,0,0-8.58-2.3l-1.26-5.37h-8l-1.26,5.37a36.81,36.81,0,0,0-8.58,2.3L160,148l-6.93,4,1.6,5.28a36.59,36.59,0,0,0-6.28,6.28l-5.28-1.6-4,6.93,4,3.77a36.8,36.8,0,0,0-2.29,8.58l-5.37,1.26v8l5.37,1.26a36.67,36.67,0,0,0,2.29,8.58l-4,3.77,4,6.93,5.28-1.59a37.32,37.32,0,0,0,6.28,6.28l-1.6,5.28,6.93,4,3.77-4a36.8,36.8,0,0,0,8.58,2.29l1.26,5.37h8l1.26-5.37a36.67,36.67,0,0,0,8.58-2.29l3.77,4,6.93-4-1.59-5.28a38.07,38.07,0,0,0,6.28-6.28l5.27,1.59,4-6.93-4-3.77a36.67,36.67,0,0,0,2.29-8.58ZM152.49,187a25.11,25.11,0,1,1,25.1,25.11A25.13,25.13,0,0,1,152.49,187Z"/><path class="cls-1" d="M129.21,166.75V155.52l-7.54-1.76a51.72,51.72,0,0,0-3.22-12l5.64-5.28-5.61-9.73-7.41,2.24a53.21,53.21,0,0,0-8.81-8.81l2.23-7.41-9.72-5.61-5.29,5.64a51,51,0,0,0-12-3.22L75.67,102H64.45l-1.77,7.54a51.15,51.15,0,0,0-12,3.22l-5.29-5.64-9.72,5.61,2.24,7.41a52.45,52.45,0,0,0-8.81,8.81l-7.41-2.24L16,136.43l5.63,5.28a52.22,52.22,0,0,0-3.22,12l-7.53,1.76v11.23l7.53,1.76a52.08,52.08,0,0,0,3.22,12.05L16,185.85l5.61,9.72,7.41-2.24a51.72,51.72,0,0,0,8.81,8.81l-2.24,7.41,9.72,5.61,5.29-5.63a52.14,52.14,0,0,0,12,3.22l1.77,7.53H75.67l1.77-7.53a52,52,0,0,0,12-3.22l5.29,5.63,9.72-5.61-2.23-7.41a52.45,52.45,0,0,0,8.81-8.81l7.41,2.24,5.61-9.72-5.64-5.29a51.59,51.59,0,0,0,3.22-12.05Zm-94.38-4.91a35.23,35.23,0,1,1,35.23,35.23A35.28,35.28,0,0,1,34.83,161.84Z"/><path class="cls-1" d="M145.85,100.59A66.93,66.93,0,0,0,150,85.17l9.64-2.26V68.54L150,66.28a66.87,66.87,0,0,0-4.13-15.43l7.22-6.77-7.19-12.44L136.4,34.5a67.63,67.63,0,0,0-11.28-11.28L128,13.74,115.54,6.55l-6.77,7.22A66.36,66.36,0,0,0,93.34,9.65L91.09,0H76.71L74.45,9.65A66.41,66.41,0,0,0,59,13.77L52.26,6.55,39.82,13.74l2.86,9.48A67.63,67.63,0,0,0,31.4,34.5l-9.48-2.86L14.73,44.08,22,50.85a66.38,66.38,0,0,0-4.13,15.43L8.18,68.54V82.91l9.64,2.26A66.43,66.43,0,0,0,22,100.59l-7.22,6.77,7.19,12.44,9.48-2.86a67.63,67.63,0,0,0,11.28,11.28l-2.86,9.48,12.44,7.19L59,137.67a66.43,66.43,0,0,0,15.42,4.13l2.26,9.64H91.09l2.25-9.64a66.38,66.38,0,0,0,15.43-4.13l6.77,7.22L128,137.7l-2.86-9.48a67.63,67.63,0,0,0,11.28-11.28l9.48,2.86,7.19-12.44Z"/><path class="cls-1" d="M230,124.57V116.9l-5.15-1.21a35.84,35.84,0,0,0-2.2-8.22l3.85-3.62-3.83-6.64-5.07,1.53a36,36,0,0,0-6-6l1.54-5.07-6.64-3.83-3.62,3.85a36,36,0,0,0-8.22-2.2l-1.21-5.15H185.8l-1.21,5.15a36,36,0,0,0-8.22,2.2l-3.62-3.85-6.64,3.83,1.53,5.07a36.35,36.35,0,0,0-6,6l-5.07-1.53-3.83,6.64,3.85,3.62a35.84,35.84,0,0,0-2.2,8.22l-5.15,1.21v7.67l5.15,1.2a35.92,35.92,0,0,0,2.2,8.23l-3.85,3.61,3.83,6.65,5.07-1.54a36,36,0,0,0,6,6l-1.53,5.07,6.64,3.83,3.62-3.86a35.49,35.49,0,0,0,8.22,2.21l1.21,5.15h7.67l1.21-5.15a35.49,35.49,0,0,0,8.22-2.21l3.62,3.86,6.64-3.83-1.54-5.07a35.72,35.72,0,0,0,6-6l5.07,1.54,3.83-6.65L222.69,134a35.92,35.92,0,0,0,2.2-8.23Z"/><circle class="cls-2" cx="189.63" cy="120.73" r="30.68" transform="translate(-29.83 169.45) rotate(-45)"/><circle class="cls-3" cx="83.9" cy="75.72" r="57.51" transform="translate(-11.04 14.4) rotate(-9.21)"/><circle class="cls-4" cx="83.9" cy="76.62" r="41.74" transform="matrix(0.99, -0.16, 0.16, 0.99, -11.22, 14.47)"/><path class="cls-2" d="M109.33,74.41H88.47A5,5,0,0,0,85.92,72V49.17a2,2,0,1,0-4,0V72a5.08,5.08,0,1,0,6.76,6.49h20.69a2,2,0,0,0,0-4Z"/><path class="cls-1" d="M83.9,31.52A45.1,45.1,0,1,0,129,76.62,45.15,45.15,0,0,0,83.9,31.52ZM104.51,109l-1-1.78a1.68,1.68,0,1,0-2.92,1.68l1,1.79a38.14,38.14,0,0,1-16,4.3v-2.07a1.68,1.68,0,1,0-3.36,0V115a38.14,38.14,0,0,1-16-4.3l1-1.79a1.68,1.68,0,0,0-2.92-1.68l-1,1.78A38.68,38.68,0,0,1,51.56,97.24l1.78-1a1.68,1.68,0,1,0-1.68-2.92l-1.79,1a38.13,38.13,0,0,1-4.3-16h2.07a1.69,1.69,0,1,0,0-3.37H45.57a38.14,38.14,0,0,1,4.3-16l1.79,1A1.68,1.68,0,1,0,53.34,57l-1.78-1A38.57,38.57,0,0,1,63.29,44.29l1,1.77a1.7,1.7,0,0,0,1.46.85,1.69,1.69,0,0,0,1.46-2.53l-1-1.78a38,38,0,0,1,16-4.3v2.07a1.68,1.68,0,1,0,3.36,0V38.3a38,38,0,0,1,16,4.3l-1,1.78A1.69,1.69,0,0,0,102,46.91a1.7,1.7,0,0,0,1.46-.85l1-1.77A38.57,38.57,0,0,1,116.24,56l-1.78,1A1.68,1.68,0,1,0,116.14,60l1.78-1a38,38,0,0,1,4.31,16h-2.07a1.69,1.69,0,1,0,0,3.37h2.07a38,38,0,0,1-4.31,16l-1.78-1a1.68,1.68,0,0,0-1.68,2.92l1.78,1A38.68,38.68,0,0,1,104.51,109Z"/><circle class="cls-4" cx="189.15" cy="120.73" r="22.27"/><path class="cls-2" d="M203.8,119.65H191.64a2.71,2.71,0,1,0-3.46,3.61v11a1.08,1.08,0,1,0,2.16,0V123.17a2.73,2.73,0,0,0,1.3-1.36H203.8a1.08,1.08,0,0,0,0-2.16Z"/><path class="cls-1" d="M189.15,96.67a24.07,24.07,0,1,0,24.07,24.06A24.08,24.08,0,0,0,189.15,96.67Zm11,41.32-.55-1a.89.89,0,0,0-1.22-.33.9.9,0,0,0-.33,1.23l.55.95a20.25,20.25,0,0,1-8.55,2.29v-1.1a.9.9,0,1,0-1.79,0v1.1a20.21,20.21,0,0,1-8.55-2.29l.55-.95a.9.9,0,0,0-1.56-.9l-.55,1a20.73,20.73,0,0,1-6.25-6.26l.95-.55a.9.9,0,1,0-.9-1.55l-.95.55a20.41,20.41,0,0,1-2.3-8.55h1.11a.9.9,0,0,0,0-1.79H168.7a20.37,20.37,0,0,1,2.3-8.55l.95.55a.92.92,0,0,0,.45.12.9.9,0,0,0,.45-1.68l-.95-.55a20.7,20.7,0,0,1,6.25-6.25l.55,1a.9.9,0,0,0,.78.45.92.92,0,0,0,.45-.12.9.9,0,0,0,.33-1.23l-.55-1a20.37,20.37,0,0,1,8.55-2.3v1.11a.9.9,0,1,0,1.79,0v-1.11a20.41,20.41,0,0,1,8.55,2.3l-.55,1a.9.9,0,0,0,.78,1.35.87.87,0,0,0,.77-.45l.55-1a20.73,20.73,0,0,1,6.26,6.25l-.95.55a.9.9,0,0,0,.45,1.68.92.92,0,0,0,.45-.12l.95-.55a20.21,20.21,0,0,1,2.29,8.55h-1.1a.9.9,0,1,0,0,1.79h1.1a20.25,20.25,0,0,1-2.29,8.55l-.95-.55a.9.9,0,0,0-1.23.33.89.89,0,0,0,.33,1.22l.95.55A20.76,20.76,0,0,1,200.15,138Z"/><polygon class="cls-5" points="209.21 26.8 217.96 32.17 203.08 56.42 176.22 35.85 131.13 124.78 77.18 95.5 0 210.47 14.52 220.21 82.82 118.46 138.6 148.73 182.3 62.54 207.84 82.1 232.87 41.32 241.62 46.69 242.64 8.69 209.21 26.8"/><path class="cls-5" d="M152,170.37a29.51,29.51,0,0,0-46.06,0c-6.43,8-8.61,24.31,0,33.18s8.23,15.95,8.23,18,2.32,2.31,2.32,2.31h25s2.31-.26,2.31-2.31-.39-9.14,8.23-18S158.46,178.35,152,170.37Z"/><path class="cls-2" d="M129,223.87H116.52v18.39s.13,3.09,3.08,3.09h18.8c3,0,3.09-3.09,3.09-3.09V223.87Z"/><path class="cls-3" d="M141.22,230.17H116.78a1.93,1.93,0,0,1-1.92-1.93h0a1.93,1.93,0,0,1,1.92-1.93h24.44a1.94,1.94,0,0,1,1.93,1.93h0A1.94,1.94,0,0,1,141.22,230.17Z"/><path class="cls-3" d="M141.22,236.47H116.78a1.93,1.93,0,0,1-1.92-1.93h0a1.93,1.93,0,0,1,1.92-1.93h24.44a1.94,1.94,0,0,1,1.93,1.93h0A1.94,1.94,0,0,1,141.22,236.47Z"/><path class="cls-3" d="M141.22,242.77H116.78a1.92,1.92,0,0,1-1.92-1.92h0a1.92,1.92,0,0,1,1.92-1.93h24.44a1.93,1.93,0,0,1,1.93,1.93h0A1.93,1.93,0,0,1,141.22,242.77Z"/><path class="cls-3" d="M129,245.35h-7.47s.92,3,7.47,3,7.47-3,7.47-3Z"/><path class="cls-4" d="M125.09,223.87h-2.48V197.08h-2.88c-4,0-5.76-2.54-5.76-5.05a5.87,5.87,0,0,1,1.35-3.73,4.84,4.84,0,0,1,3.77-1.81c4,0,5.55,4.65,5.91,8.1h4v2.49h-3.91Zm-6-34.9a2.41,2.41,0,0,0-1.87.92,3.46,3.46,0,0,0-.77,2.14c0,1.63,1.2,2.56,3.28,2.56h2.76C122.22,192.62,121.42,189,119.09,189Z"/><path class="cls-4" d="M135.4,223.87h-2.48V197.08H129v-2.49h4c.37-3.48,1.91-8.1,5.91-8.1a4.84,4.84,0,0,1,3.77,1.81A5.88,5.88,0,0,1,144,192c0,2.51-1.79,5.05-5.77,5.05H135.4Zm.12-29.28h2.75c2.09,0,3.28-.93,3.28-2.56a2.92,2.92,0,0,0-2.64-3.06C136.61,189,135.8,192.6,135.52,194.59Z"/><path class="cls-6" d="M133.91,93.21s-8.37,1.33-8.42,9.32-7.48,22,12.6,22,13-16.55,12.07-20.23S148.88,91.16,133.91,93.21Z"/><path class="cls-7" d="M132.24,146.8V124a2.61,2.61,0,1,0-5.21,0v19.39l-6,2.65,2.5,4.59Z"/><path class="cls-7" d="M146.5,123.79a2.38,2.38,0,0,0-2.38-2.39H129.73a.58.58,0,0,0-.57.58v8.84a3.11,3.11,0,0,0-1.73,2.94,3,3,0,0,0,1.73,2.89v18.62H146.5Z"/><path class="cls-8" d="M121,146.06,106.7,152.4a2.61,2.61,0,0,0,1,5,2.46,2.46,0,0,0,1-.23l14.73-6.51Z"/><path class="cls-9" d="M121.19,152.4a2.61,2.61,0,0,0,1.06,5,2.46,2.46,0,0,0,1-.23l13-5.74L134,146.74Z"/><path class="cls-7" d="M146.74,124a2.61,2.61,0,1,0-5.21,0v19.39L134,146.74l2.31,4.68,10.45-4.62Z"/><path class="cls-8" d="M137,125.66h0a2.41,2.41,0,0,1-2.41-2.41v-7.61h4.83v7.61A2.41,2.41,0,0,1,137,125.66Z"/><path class="cls-9" d="M132.29,97.22s-4.55,2.26-4.55,10,3.49,11.59,8.78,11.59c8.21,0,10-5,10-5s1.93-.09,1.93-2.67C145.19,111.09,134.44,104.42,132.29,97.22Z"/><path class="cls-7" d="M83.65,192.08s-7.86.55-7.86,6.17H89.53l.11-5.52Z"/><path class="cls-7" d="M94.14,192.08s-7.87.55-7.87,6.17H100l.12-5.52Z"/><polygon class="cls-9" points="121.19 152.4 115.71 152.4 116.34 155.85 126.26 155.85 121.19 152.4"/><polygon class="cls-3" points="132.25 146.91 135.05 152.48 137.83 151.34 135.04 145.68 132.25 146.91"/><polygon class="cls-3" points="119.64 146.05 122.44 151.61 125.23 150.47 122.43 144.81 119.64 146.05"/><path class="cls-10" d="M131.87,109c0,.52-.29.94-.64.94s-.65-.42-.65-.94.29-.94.65-.94S131.87,108.49,131.87,109Z"/><path class="cls-10" d="M139.26,109c0,.52-.28.94-.64.94s-.64-.42-.64-.94.28-.94.64-.94S139.26,108.49,139.26,109Z"/><path class="cls-11" d="M131,110.78c0,.46-.53.83-1.18.83s-1.18-.37-1.18-.83.53-.83,1.18-.83S131,110.32,131,110.78Z"/><path class="cls-11" d="M141.33,110.78c0,.46-.53.83-1.18.83s-1.18-.37-1.18-.83.52-.83,1.18-.83S141.33,110.32,141.33,110.78Z"/><path class="cls-11" d="M134.86,113.87a3.42,3.42,0,0,1-2.6-.87.18.18,0,1,1,.28-.24h0a3.22,3.22,0,0,0,2.32.73,3.39,3.39,0,0,0,2.4-.74.19.19,0,0,1,.26,0,.19.19,0,0,1,0,.27A3.72,3.72,0,0,1,134.86,113.87Z"/><path class="cls-12" d="M132.69,107.11a.28.28,0,0,1-.12,0,2.19,2.19,0,0,0-2.68,0,.2.2,0,0,1-.27,0,.19.19,0,0,1,0-.26,2.6,2.6,0,0,1,3.15,0,.18.18,0,0,1,0,.26A.17.17,0,0,1,132.69,107.11Z"/><path class="cls-12" d="M140.08,107.11a.21.21,0,0,1-.11,0,2.2,2.2,0,0,0-2.69,0,.19.19,0,0,1-.26,0,.18.18,0,0,1,0-.26,2.6,2.6,0,0,1,3.15,0,.19.19,0,0,1,0,.26A.21.21,0,0,1,140.08,107.11Z"/><path class="cls-11" d="M134,112.22a.15.15,0,0,1-.09,0,1.33,1.33,0,0,1-.81-1,2.23,2.23,0,0,1,.77-1.6.19.19,0,0,1,.27,0,.19.19,0,0,1,0,.26s-.73.67-.65,1.29a1,1,0,0,0,.61.72.18.18,0,0,1,.08.25A.17.17,0,0,1,134,112.22Z"/><path class="cls-6" d="M98.44,157.05a10.53,10.53,0,0,0-9.35,7.1c-2.45,6.33-5.32,27.06-5.44,27.93,0,0,1.7,1.8,6,.74l.08-.57h0c.87-6.19,3.24-21.35,5-25.91a4.6,4.6,0,0,1,3.79-3.24h33.14v-6Z"/><path class="cls-4" d="M97.83,157.39h31.25a.78.78,0,0,0,.77-.77h0a.78.78,0,0,0-.77-.77H117a.75.75,0,0,1-.75-.62l-4.46-24.3a.75.75,0,0,0-.75-.63H81.4a.77.77,0,0,0-.75.94l5.76,25.33a.76.76,0,0,0,.73.59Z"/><path class="cls-3" d="M137,126a2.72,2.72,0,0,1-2.07-.86,5.69,5.69,0,0,1-1.07-3.79.37.37,0,1,1,.74.05,5.07,5.07,0,0,0,.87,3.24,2,2,0,0,0,1.53.62,2,2,0,0,0,1.59-.64,4.88,4.88,0,0,0,.81-3.21.38.38,0,1,1,.75-.07c0,.1.2,2.45-1,3.78A2.77,2.77,0,0,1,137,126Z"/><path class="cls-13" d="M111.47,163.13h3.27C113.48,163.09,112.41,163.09,111.47,163.13Z"/><path class="cls-6" d="M129.16,155.27v1.88H109a10.53,10.53,0,0,0-9.35,7.1c-1.85,4.76-3.92,17.62-4.89,24.07h0l-.59,3.76a6.82,6.82,0,0,0,6,.65c.29-1.81.6-3.55.78-4.87,1.11-7.2,2.93-17.75,4.35-21.42a.36.36,0,0,1,0-.09c.84-2.11,2.22-3,6.17-3.22h0c.94,0,2,0,3.27,0h27.4s4.36,0,4.36-5.74v-2.12Z"/><path class="cls-8" d="M146.74,112.38s1,.06,1-1.36l-1-.28Z"/></svg>