<svg id="Layer_1" data-name="Layer 1" xmlns="http://www.w3.org/2000/svg" xmlns:xlink="http://www.w3.org/1999/xlink" viewBox="0 0 337.6 291.98"><defs><style>.cls-1,.cls-16{mask:url(#mask);}.cls-1{filter:url(#luminosity-noclip-11);}.cls-10,.cls-12,.cls-14,.cls-2,.cls-4,.cls-6,.cls-8{mix-blend-mode:multiply;}.cls-2{fill:url(#linear-gradient);}.cls-15,.cls-3{mask:url(#mask-2);}.cls-4{fill:url(#linear-gradient-2);}.cls-5{mask:url(#mask-3);filter:url(#luminosity-noclip-17);}.cls-6{fill:url(#linear-gradient-3);}.cls-7{mask:url(#mask-4);filter:url(#luminosity-noclip-18);}.cls-8{fill:url(#linear-gradient-4);}.cls-9{mask:url(#mask-5);filter:url(#luminosity-noclip-19);}.cls-10{fill:url(#linear-gradient-5);}.cls-11{mask:url(#mask-6);filter:url(#luminosity-noclip-20);}.cls-12{fill:url(#linear-gradient-6);}.cls-13,.cls-17{mask:url(#mask-7);}.cls-13{filter:url(#luminosity-noclip-12);}.cls-14{fill:url(#linear-gradient-7);}.cls-15{filter:url(#luminosity-noclip-13);}.cls-18{opacity:0.5;}.cls-19{mask:url(#mask-11);}.cls-20{fill:url(#Gradiente_sem_nome_69);}.cls-21{mask:url(#mask-12);}.cls-22{fill:url(#Gradiente_sem_nome_69-2);}.cls-23{mask:url(#mask-13);}.cls-24{fill:url(#Gradiente_sem_nome_69-3);}.cls-25{fill:url(#Gradiente_sem_nome_69-4);}.cls-26{fill:url(#Gradiente_sem_nome_69-5);}.cls-27{fill:url(#Gradiente_sem_nome_69-6);}.cls-28{mask:url(#mask-17);}.cls-29{fill:url(#Gradiente_sem_nome_69-7);}.cls-30{mask:url(#mask-18);}.cls-31{fill:url(#Gradiente_sem_nome_69-8);}.cls-32{mask:url(#mask-19);}.cls-33{fill:url(#Gradiente_sem_nome_69-9);}.cls-34{mask:url(#mask-20);}.cls-35{fill:url(#Gradiente_sem_nome_69-10);}.cls-36{fill:url(#Gradiente_sem_nome_69-11);}.cls-37{fill:#a1a7ff;}.cls-38{fill:#12348e;}.cls-39{fill:#fff;}.cls-40{fill:#e5a900;}.cls-41{fill:#ffd54c;}.cls-42{fill:#feb05c;}.cls-43{fill:#ffcb4c;}.cls-44{fill:#ffb91f;}.cls-45{fill:#fcb316;}.cls-46{fill:#cc8100;}.cls-47{fill:#ffe800;}.cls-48{fill:#f36e21;}.cls-49{fill:#fa3e6a;}.cls-50{fill:#ffe1bd;}.cls-51{fill:#fccb95;}.cls-52{fill:#738598;}.cls-53{fill:#1a1a1a;opacity:0.32;}.cls-54{opacity:0.35;}.cls-55{filter:url(#luminosity-noclip-7);}.cls-56{filter:url(#luminosity-noclip-6);}.cls-57{filter:url(#luminosity-noclip-5);}.cls-58{filter:url(#luminosity-noclip-4);}.cls-59{filter:url(#luminosity-noclip-3);}.cls-60{filter:url(#luminosity-noclip-2);}.cls-61{filter:url(#luminosity-noclip);}</style><filter id="luminosity-noclip" x="224.13" y="-8441.2" width="56.35" height="32766" filterUnits="userSpaceOnUse" color-interpolation-filters="sRGB"><feFlood flood-color="#fff" result="bg"/><feBlend in="SourceGraphic" in2="bg"/></filter><mask id="mask" x="224.13" y="-8441.2" width="56.35" height="32766" maskUnits="userSpaceOnUse"><g class="cls-61"/></mask><linearGradient id="linear-gradient" x1="1552.03" y1="412.83" x2="1553.35" y2="579.46" gradientTransform="translate(1805.1 552.21) rotate(180)" gradientUnits="userSpaceOnUse"><stop offset="0.12"/><stop offset="0.2" stop-color="#070707"/><stop offset="0.31" stop-color="#1a1a1a"/><stop offset="0.44" stop-color="#3a3a3a"/><stop offset="0.6" stop-color="#676767"/><stop offset="0.76" stop-color="#9f9f9f"/><stop offset="0.93" stop-color="#e4e4e4"/><stop offset="1" stop-color="#fff"/></linearGradient><filter id="luminosity-noclip-2" x="198.91" y="-8441.2" width="29.25" height="32766" filterUnits="userSpaceOnUse" color-interpolation-filters="sRGB"><feFlood flood-color="#fff" result="bg"/><feBlend in="SourceGraphic" in2="bg"/></filter><mask id="mask-2" x="198.91" y="-8441.2" width="29.25" height="32766" maskUnits="userSpaceOnUse"><g class="cls-60"/></mask><linearGradient id="linear-gradient-2" x1="1591.15" y1="412.52" x2="1592.46" y2="579.15" xlink:href="#linear-gradient"/><filter id="luminosity-noclip-3" x="66.33" y="-8441.2" width="56.35" height="32766" filterUnits="userSpaceOnUse" color-interpolation-filters="sRGB"><feFlood flood-color="#fff" result="bg"/><feBlend in="SourceGraphic" in2="bg"/></filter><mask id="mask-3" x="66.33" y="-8441.2" width="56.35" height="32766" maskUnits="userSpaceOnUse"><g class="cls-59"/></mask><linearGradient id="linear-gradient-3" x1="1709.83" y1="411.58" x2="1711.14" y2="578.22" xlink:href="#linear-gradient"/><filter id="luminosity-noclip-4" x="117.6" y="-8441.2" width="29.25" height="32766" filterUnits="userSpaceOnUse" color-interpolation-filters="sRGB"><feFlood flood-color="#fff" result="bg"/><feBlend in="SourceGraphic" in2="bg"/></filter><mask id="mask-4" x="117.6" y="-8441.2" width="29.25" height="32766" maskUnits="userSpaceOnUse"><g class="cls-58"/></mask><linearGradient id="linear-gradient-4" x1="1672.46" y1="411.88" x2="1673.77" y2="578.51" xlink:href="#linear-gradient"/><filter id="luminosity-noclip-5" x="153.43" y="-8441.2" width="29.25" height="32766" filterUnits="userSpaceOnUse" color-interpolation-filters="sRGB"><feFlood flood-color="#fff" result="bg"/><feBlend in="SourceGraphic" in2="bg"/></filter><mask id="mask-5" x="153.43" y="-8441.2" width="29.25" height="32766" maskUnits="userSpaceOnUse"><g class="cls-57"/></mask><linearGradient id="linear-gradient-5" x1="1636.39" y1="412.16" x2="1637.7" y2="578.79" xlink:href="#linear-gradient"/><filter id="luminosity-noclip-6" x="41.11" y="-8441.2" width="29.25" height="32766" filterUnits="userSpaceOnUse" color-interpolation-filters="sRGB"><feFlood flood-color="#fff" result="bg"/><feBlend in="SourceGraphic" in2="bg"/></filter><mask id="mask-6" x="41.11" y="-8441.2" width="29.25" height="32766" maskUnits="userSpaceOnUse"><g class="cls-56"/></mask><linearGradient id="linear-gradient-6" x1="1748.95" y1="411.28" x2="1750.26" y2="577.91" xlink:href="#linear-gradient"/><filter id="luminosity-noclip-7" x="275.4" y="-8441.2" width="29.25" height="32766" filterUnits="userSpaceOnUse" color-interpolation-filters="sRGB"><feFlood flood-color="#fff" result="bg"/><feBlend in="SourceGraphic" in2="bg"/></filter><mask id="mask-7" x="275.4" y="-8441.2" width="29.25" height="32766" maskUnits="userSpaceOnUse"><g class="cls-55"/></mask><linearGradient id="linear-gradient-7" x1="1514.67" y1="413.12" x2="1515.98" y2="579.75" xlink:href="#linear-gradient"/><filter id="luminosity-noclip-11" x="224.13" y="0" width="56.35" height="134.99" filterUnits="userSpaceOnUse" color-interpolation-filters="sRGB"><feFlood flood-color="#fff" result="bg"/><feBlend in="SourceGraphic" in2="bg"/></filter><mask id="mask-11" x="224.13" y="0" width="56.35" height="134.99" maskUnits="userSpaceOnUse"><g class="cls-1"><polygon class="cls-2" points="239.94 42.48 239.94 134.99 264.68 134.99 264.68 42.48 280.48 42.48 252.31 0 224.13 42.48 239.94 42.48"/></g></mask><linearGradient id="Gradiente_sem_nome_69" x1="1552.03" y1="412.83" x2="1553.35" y2="579.46" gradientTransform="translate(1805.1 552.21) rotate(180)" gradientUnits="userSpaceOnUse"><stop offset="0.16" stop-color="#e08197"/><stop offset="1" stop-color="#e08197" stop-opacity="0"/></linearGradient><filter id="luminosity-noclip-12" x="275.4" y="64.92" width="29.25" height="70.06" filterUnits="userSpaceOnUse" color-interpolation-filters="sRGB"><feFlood flood-color="#fff" result="bg"/><feBlend in="SourceGraphic" in2="bg"/></filter><mask id="mask-12" x="275.4" y="64.92" width="29.25" height="70.06" maskUnits="userSpaceOnUse"><g class="cls-13"><polygon class="cls-14" points="283.61 86.97 283.61 134.99 296.45 134.99 296.45 86.97 304.65 86.97 290.03 64.92 275.4 86.97 283.61 86.97"/></g></mask><linearGradient id="Gradiente_sem_nome_69-2" x1="1514.67" y1="413.12" x2="1515.98" y2="579.75" xlink:href="#Gradiente_sem_nome_69"/><filter id="luminosity-noclip-13" x="198.91" y="64.92" width="29.25" height="70.06" filterUnits="userSpaceOnUse" color-interpolation-filters="sRGB"><feFlood flood-color="#fff" result="bg"/><feBlend in="SourceGraphic" in2="bg"/></filter><mask id="mask-13" x="198.91" y="64.92" width="29.25" height="70.06" maskUnits="userSpaceOnUse"><g class="cls-15"><polygon class="cls-4" points="207.12 86.97 207.12 134.99 219.96 134.99 219.96 86.97 228.16 86.97 213.54 64.92 198.91 86.97 207.12 86.97"/></g></mask><linearGradient id="Gradiente_sem_nome_69-3" x1="1591.15" y1="412.52" x2="1592.46" y2="579.15" xlink:href="#Gradiente_sem_nome_69"/><linearGradient id="Gradiente_sem_nome_69-4" x1="224.13" y1="67.49" x2="280.48" y2="67.49" gradientTransform="matrix(1, 0, 0, 1, 0, 0)" xlink:href="#Gradiente_sem_nome_69"/><linearGradient id="Gradiente_sem_nome_69-5" x1="275.4" y1="99.95" x2="304.65" y2="99.95" gradientTransform="matrix(1, 0, 0, 1, 0, 0)" xlink:href="#Gradiente_sem_nome_69"/><linearGradient id="Gradiente_sem_nome_69-6" x1="198.91" y1="99.95" x2="228.16" y2="99.95" gradientTransform="matrix(1, 0, 0, 1, 0, 0)" xlink:href="#Gradiente_sem_nome_69"/><filter id="luminosity-noclip-17" x="66.33" y="0" width="56.35" height="134.99" filterUnits="userSpaceOnUse" color-interpolation-filters="sRGB"><feFlood flood-color="#fff" result="bg"/><feBlend in="SourceGraphic" in2="bg"/></filter><mask id="mask-17" x="66.33" y="0" width="56.35" height="134.99" maskUnits="userSpaceOnUse"><g class="cls-5"><polygon class="cls-6" points="82.13 42.48 82.13 134.99 106.87 134.99 106.87 42.48 122.68 42.48 94.5 0 66.33 42.48 82.13 42.48"/></g></mask><linearGradient id="Gradiente_sem_nome_69-7" x1="66.33" y1="67.49" x2="122.68" y2="67.49" gradientTransform="matrix(1, 0, 0, 1, 0, 0)" xlink:href="#Gradiente_sem_nome_69"/><filter id="luminosity-noclip-18" x="117.6" y="64.92" width="29.25" height="70.06" filterUnits="userSpaceOnUse" color-interpolation-filters="sRGB"><feFlood flood-color="#fff" result="bg"/><feBlend in="SourceGraphic" in2="bg"/></filter><mask id="mask-18" x="117.6" y="64.92" width="29.25" height="70.06" maskUnits="userSpaceOnUse"><g class="cls-7"><polygon class="cls-8" points="125.8 86.97 125.8 134.99 138.64 134.99 138.64 86.97 146.84 86.97 132.22 64.92 117.6 86.97 125.8 86.97"/></g></mask><linearGradient id="Gradiente_sem_nome_69-8" x1="117.6" y1="99.95" x2="146.84" y2="99.95" gradientTransform="matrix(1, 0, 0, 1, 0, 0)" xlink:href="#Gradiente_sem_nome_69"/><filter id="luminosity-noclip-19" x="153.43" y="34.67" width="29.25" height="100.31" filterUnits="userSpaceOnUse" color-interpolation-filters="sRGB"><feFlood flood-color="#fff" result="bg"/><feBlend in="SourceGraphic" in2="bg"/></filter><mask id="mask-19" x="153.43" y="34.67" width="29.25" height="100.31" maskUnits="userSpaceOnUse"><g class="cls-9"><polygon class="cls-10" points="161.63 56.72 161.63 134.99 174.47 134.99 174.47 56.72 182.68 56.72 168.06 34.67 153.43 56.72 161.63 56.72"/></g></mask><linearGradient id="Gradiente_sem_nome_69-9" x1="153.43" y1="84.83" x2="182.68" y2="84.83" gradientTransform="matrix(1, 0, 0, 1, 0, 0)" xlink:href="#Gradiente_sem_nome_69"/><filter id="luminosity-noclip-20" x="41.11" y="64.92" width="29.25" height="70.06" filterUnits="userSpaceOnUse" color-interpolation-filters="sRGB"><feFlood flood-color="#fff" result="bg"/><feBlend in="SourceGraphic" in2="bg"/></filter><mask id="mask-20" x="41.11" y="64.92" width="29.25" height="70.06" maskUnits="userSpaceOnUse"><g class="cls-11"><polygon class="cls-12" points="49.31 86.97 49.31 134.99 62.15 134.99 62.15 86.97 70.35 86.97 55.73 64.92 41.11 86.97 49.31 86.97"/></g></mask><linearGradient id="Gradiente_sem_nome_69-10" x1="41.11" y1="99.95" x2="70.35" y2="99.95" gradientTransform="matrix(1, 0, 0, 1, 0, 0)" xlink:href="#Gradiente_sem_nome_69"/><linearGradient id="Gradiente_sem_nome_69-11" x1="0" y1="284.99" x2="337.6" y2="284.99" gradientTransform="matrix(1, 0, 0, 1, 0, 0)" xlink:href="#Gradiente_sem_nome_69"/></defs><title>Greater Value at Lower Costs</title><g class="cls-18"><g class="cls-19"><polygon class="cls-20" points="239.94 42.48 239.94 134.99 264.68 134.99 264.68 42.48 280.48 42.48 252.31 0 224.13 42.48 239.94 42.48"/></g><g class="cls-21"><polygon class="cls-22" points="283.61 86.97 283.61 134.99 296.45 134.99 296.45 86.97 304.65 86.97 290.03 64.92 275.4 86.97 283.61 86.97"/></g><g class="cls-23"><polygon class="cls-24" points="207.12 86.97 207.12 134.99 219.96 134.99 219.96 86.97 228.16 86.97 213.54 64.92 198.91 86.97 207.12 86.97"/></g><g class="cls-19"><polygon class="cls-25" points="239.94 42.48 239.94 134.99 264.68 134.99 264.68 42.48 280.48 42.48 252.31 0 224.13 42.48 239.94 42.48"/></g><g class="cls-21"><polygon class="cls-26" points="283.61 86.97 283.61 134.99 296.45 134.99 296.45 86.97 304.65 86.97 290.03 64.92 275.4 86.97 283.61 86.97"/></g><g class="cls-23"><polygon class="cls-27" points="207.12 86.97 207.12 134.99 219.96 134.99 219.96 86.97 228.16 86.97 213.54 64.92 198.91 86.97 207.12 86.97"/></g><g class="cls-28"><polygon class="cls-29" points="82.13 42.48 82.13 134.99 106.87 134.99 106.87 42.48 122.68 42.48 94.5 0 66.33 42.48 82.13 42.48"/></g><g class="cls-30"><polygon class="cls-31" points="125.8 86.97 125.8 134.99 138.64 134.99 138.64 86.97 146.84 86.97 132.22 64.92 117.6 86.97 125.8 86.97"/></g><g class="cls-32"><polygon class="cls-33" points="161.63 56.72 161.63 134.99 174.47 134.99 174.47 56.72 182.68 56.72 168.06 34.67 153.43 56.72 161.63 56.72"/></g><g class="cls-34"><polygon class="cls-35" points="49.31 86.97 49.31 134.99 62.15 134.99 62.15 86.97 70.35 86.97 55.73 64.92 41.11 86.97 49.31 86.97"/></g></g><ellipse class="cls-36" cx="168.8" cy="284.99" rx="168.8" ry="7"/><path class="cls-37" d="M42.4,258.58V261c0,5.54-5,10-11.18,10H28.54V268.6c0-5.55,5-10,11.19-10Z"/><path class="cls-37" d="M42.4,240.48v2.39c0,5.54-5,10-11.18,10H28.54V250.5c0-5.54,5-10,11.19-10Z"/><path class="cls-38" d="M28.54,278.1h4.53a6.66,6.66,0,0,1,6.66,6.66H17.35A6.67,6.67,0,0,1,24,278.1Z"/><path class="cls-37" d="M28.54,268.6V271H25.87c-6.19,0-11.19-4.48-11.19-10v-2.39h2.67C23.49,258.53,28.54,263.05,28.54,268.6Z"/><path class="cls-37" d="M28.54,250.5v2.39H25.87c-6.19,0-11.19-4.48-11.19-10v-2.39h2.67C23.49,240.43,28.54,245,28.54,250.5Z"/><path class="cls-38" d="M27.27,236.29v41.89h2.54V236.29Z"/><circle class="cls-38" cx="28.54" cy="222.55" r="15.86"/><circle class="cls-37" cx="28.54" cy="222.55" r="13.32"/><path class="cls-38" d="M32.58,226.75a5.06,5.06,0,0,0-.64-2.6,9.41,9.41,0,0,0-2.34-2.47,9.12,9.12,0,0,1-1.83-1.8,2.82,2.82,0,0,1-.51-1.61c0-1,.45-1.51,1.36-1.51a1.31,1.31,0,0,1,1,.37,1.71,1.71,0,0,1,.34,1.19v.81h2.56v-.66a4.09,4.09,0,0,0-1-2.95,3.3,3.3,0,0,0-1.51-.85v-2.42H27.71v2.3a3.65,3.65,0,0,0-2.12,1,3.94,3.94,0,0,0-1,2.91,4.69,4.69,0,0,0,.67,2.47,10.13,10.13,0,0,0,2.34,2.46,8.51,8.51,0,0,1,1.82,1.82,3.12,3.12,0,0,1,.49,1.75,1.7,1.7,0,0,1-.35,1.21,1.39,1.39,0,0,1-1.05.37c-.94,0-1.4-.51-1.4-1.53v-1.09H24.5v.9a4.07,4.07,0,0,0,1,3,3.57,3.57,0,0,0,2.2,1v2.12H30v-2.26a3.35,3.35,0,0,0,1.51-.85A4,4,0,0,0,32.58,226.75Z"/><path class="cls-37" d="M249.91,250.26c0,34.07-33.52,32.12-75.13,32.12s-75.13,1.67-75.13-32.12c0-34.08,33.51-90.77,75.13-90.77C216.39,159.77,249.91,216.46,249.91,250.26Z"/><path class="cls-37" d="M138.19,124.58c0-16.48,16.48-15.64,36.59-15.64s36.58-.84,36.58,15.64S194.89,168,174.78,168,138.19,141.06,138.19,124.58Z"/><path class="cls-38" d="M206.9,162.84a5,5,0,0,1-5,5H147.69a5,5,0,0,1-5-5v-1.4a5,5,0,0,1,5-5h54.46a5,5,0,0,1,5,5v1.4Z"/><circle class="cls-38" cx="174.78" cy="227.36" r="33.51"/><path class="cls-39" d="M172,254.45v-7c-5.58-.28-8.65-1.4-11.17-2.8l1.68-7.54a23.68,23.68,0,0,0,10.61,2.79c3.63,0,6.15-1.39,6.15-3.91s-2-3.91-7-5.58c-7-2.24-11.45-5.59-11.45-11.73,0-5.59,2.52-10.06,10.89-11.45v-5.87h5.59V207c5.59.28,7.54,1.12,9.5,2.23l-1.68,7.26a19,19,0,0,0-9.22-2.23c-4.19,0-5.58,1.68-5.58,3.63,0,2.23,2.23,3.35,7.82,5.59,7.54,2.79,10.61,6.14,10.61,12s-3.07,10.61-11.45,12v7Z"/><path class="cls-40" d="M229.8,265.33c3.36-1.67,12.56-2.86,23.38-2.86,13.66,0,24.74,1.9,24.74,4.25,0,1-1.91,1.87-5.13,2.59,4.33-.78,7-1.84,7-3,0-2.41-11.34-4.35-25.32-4.35C242.45,262,232.4,263.4,229.8,265.33Z"/><path class="cls-41" d="M250.68,265.32a3.22,3.22,0,0,0,.69.16c.29,0,.64.1,1,.13l1.32.11.54-1.11c-.68,0-1.25,0-1.73.08s-.9.08-1.21.13a3.43,3.43,0,0,0-.69.17c-.12.06-.18.11-.2.17A.44.44,0,0,0,250.68,265.32Z"/><path class="cls-41" d="M259.6,267.28c0-.07-.1-.12-.24-.18a4.44,4.44,0,0,0-.72-.16c-.31-.05-.67-.09-1.09-.12l-1.36-.1-.59,1.22a19.52,19.52,0,0,0,3-.23C259.21,267.6,259.55,267.45,259.6,267.28Z"/><path class="cls-42" d="M261,264.15c.87.09,1.63.18,2.3.28l.23-.06c-.71-.11-1.56-.22-2.53-.31s-2.09-.16-3.41-.2l0,.1C258.87,264,260,264.06,261,264.15Z"/><path class="cls-42" d="M252.29,268.7l-.29.6h.05l.29-.6Z"/><path class="cls-42" d="M259.24,266.13c.89.05,1.69.13,2.41.22a10,10,0,0,1,1.72.34c.41.12.62.28.65.46,0,0,0,0,0,0,0-.2-.23-.37-.67-.51a11.07,11.07,0,0,0-1.72-.34c-.72-.09-1.52-.16-2.41-.22s-1.75-.11-2.64-.15l-.05.09Z"/><path class="cls-42" d="M250.68,265.41a3.13,3.13,0,0,0,.69.17c.29.05.64.09,1,.13l1.32.1.58-1.2h0l-.54,1.11-1.32-.11c-.41,0-.76-.08-1-.13a3.22,3.22,0,0,1-.69-.16.44.44,0,0,1-.23-.16s0,0,0,0S250.52,265.35,250.68,265.41Z"/><path class="cls-42" d="M246.61,264.79a8.37,8.37,0,0,1,1.67-.43q1.09-.18,2.7-.3c1.07-.08,2.3-.12,3.68-.12l.21-.42s.15-.1.38-.14a5.32,5.32,0,0,1,.89-.06h1.67l.05-.1h-1.72a4.32,4.32,0,0,0-.89.07c-.23,0-.35.08-.38.14l-.21.41c-1.38,0-2.61,0-3.68.12s-2,.18-2.7.31a7.82,7.82,0,0,0-1.67.42c-.39.16-.58.32-.58.48a.14.14,0,0,0,0,.06C246.08,265.08,246.26,264.93,246.61,264.79Z"/><path class="cls-42" d="M259.61,267.32a.06.06,0,0,0,0,0c-.05.17-.39.32-1,.43a19.52,19.52,0,0,1-3,.23l0,.1a21.49,21.49,0,0,0,3-.23C259.27,267.68,259.61,267.52,259.61,267.32Z"/><path class="cls-42" d="M246.83,267.66q.31,0,.66,0a6.87,6.87,0,0,1,.88.05l1.08.11c.4,0,.86.1,1.38.14s1.13.08,1.83.1l.72-1.45h0l-.67,1.36c-.7,0-1.31-.05-1.83-.1l-1.38-.13-1.08-.12c-.31,0-.61-.05-.88-.05s-.45,0-.66,0a4,4,0,0,0-.5.08l-1.43.37.23,0,1.2-.3A2.75,2.75,0,0,1,246.83,267.66Z"/><path class="cls-40" d="M248.19,268.49c1.28.1,2.65.17,4.1.21h.05l-.29.6-.05.09h1.72a5.32,5.32,0,0,0,.89-.06c.23,0,.35-.09.38-.14l.22-.48c1.41,0,2.67-.06,3.76-.15a25.49,25.49,0,0,0,2.77-.33,7.18,7.18,0,0,0,1.71-.47c.39-.17.59-.36.59-.56,0,0,0,0,0-.05,0-.18-.24-.34-.65-.46a10,10,0,0,0-1.72-.34c-.72-.09-1.52-.17-2.41-.22l-2.69-.16.05-.09.62-1.26,1.34.08,1.1.09.89.07.67,0a5.72,5.72,0,0,0,.64,0,3.1,3.1,0,0,0,.53-.1l1.13-.29-.23,0c-.67-.1-1.43-.19-2.3-.28s-2.12-.15-3.45-.19l0-.1.28-.54h-1.72a5.32,5.32,0,0,0-.89.06c-.23,0-.35.09-.38.14l-.21.42c-1.38,0-2.61,0-3.68.12s-2,.18-2.7.3a8.37,8.37,0,0,0-1.67.43c-.35.14-.53.29-.56.44l0,0c0,.22.21.41.64.55a9.27,9.27,0,0,0,1.69.37c.7.1,1.49.17,2.36.23l2.61.15h0l-.72,1.45c-.7,0-1.31,0-1.83-.1s-1-.09-1.38-.14l-1.08-.11a6.87,6.87,0,0,0-.88-.05q-.35,0-.66,0a2.75,2.75,0,0,0-.5.08l-1.2.3-.23.06C245.8,268.26,246.9,268.39,248.19,268.49Zm7.41-.55.59-1.22,1.36.1c.42,0,.78.07,1.09.12a4.44,4.44,0,0,1,.72.16c.14.06.22.11.24.18a.06.06,0,0,1,0,0c0,.2-.34.36-1,.49a21.49,21.49,0,0,1-3,.23Zm-5.15-2.78c0-.06.08-.11.2-.17a3.43,3.43,0,0,1,.69-.17c.31-.05.72-.1,1.21-.13s1-.06,1.73-.08h0l-.58,1.2-1.32-.1c-.41,0-.76-.08-1-.13a3.13,3.13,0,0,1-.69-.17c-.16-.06-.25-.13-.25-.21S250.45,265.17,250.45,265.16Z"/><path class="cls-40" d="M280.48,273.64V269.8l-.26.05-.67.14-.49.1-.81.15-.41.07-1.25.21-.45.06-.91.14-.56.07-.88.12-.58.07-1,.11-.52.06-1.52.15-.3,0-1.31.12h-.18v10.83a93.11,93.11,0,0,0,12.08-1.65v-7Zm-9.15,6.56a1,1,0,0,1-2.05,0v-6.5a1,1,0,0,1,2.05,0Zm3.9-.52a1,1,0,1,1-2.05,0v-6.49a1,1,0,1,1,2.05,0Zm3.9-.71a1,1,0,0,1-2.05,0v-6.5a1,1,0,0,1,2.05,0Z"/><path class="cls-43" d="M240.54,272v-.54h-.18l-1.32-.12-.29,0-1.53-.15-.51-.06-1-.11-.58-.07-.88-.12-.56-.07-.91-.14-.45-.06-1.25-.21-.41-.07-.81-.15-.48-.1-.68-.14-.26-.05v10.83a93.29,93.29,0,0,0,12.09,1.65V272Zm-8.21,7.26a1,1,0,0,1-2.05,0v-6.5a1,1,0,1,1,2.05,0Zm3.9.55a1,1,0,0,1-1,1h0a1,1,0,0,1-1-1v-6.49a1,1,0,0,1,1-1h0a1,1,0,0,1,1,1Zm3.9.56a1,1,0,0,1-2,0v-6.5a1,1,0,0,1,2,0Z"/><path class="cls-43" d="M268.4,272v-.54l-.37,0-1.25.09-.63,0-1.39.09-.37,0h-.08l-2,.1-.65,0-1.83.07h-.38l-2.06,0h-5.83l-2.05,0h-.38l-1.84-.07-.65,0-2-.1h-.07l-.37,0-1.4-.09-.62,0-1.26-.09-.36,0v10.83c4.23.34,9,.53,13.93.53s9.69-.19,13.93-.53V272ZM244,280.64a1,1,0,0,1-2.05,0v-6.5a1,1,0,0,1,2.05,0Zm3.9.4a1,1,0,0,1-2.05,0v-6.5a1,1,0,0,1,2.05,0Zm3.9,0a1,1,0,0,1-2.05,0v-6.5a1,1,0,0,1,2.05,0Zm3.9.23a1,1,0,1,1-2,0v-6.49a1,1,0,1,1,2,0Zm3.9-.23a1,1,0,0,1-2.05,0v-6.5a1,1,0,0,1,2.05,0Zm3.9,0a1,1,0,0,1-2,0v-6.5a1,1,0,0,1,2,0Zm3.9-.4a1,1,0,0,1-2.05,0v-6.5a1,1,0,0,1,2.05,0Z"/><path class="cls-40" d="M287.48,266.31h0a1.26,1.26,0,0,1,0,.27l0,.08a1.11,1.11,0,0,1-.09.19.47.47,0,0,1-.06.09,1,1,0,0,1-.13.18l-.08.09-.18.18-.09.08a3.55,3.55,0,0,1-.31.23l0,0a4.23,4.23,0,0,1-.42.25l-.1.06-.38.19-.17.08-.39.17-.19.07-.44.17-.18.07-.59.2-.1,0-.76.23-.07,0-.74.19-.21.06-.65.15-.26.06-.3.07v10.83c4.38-1,7-2.18,7-3.5V266.31Zm-4.45,12a1,1,0,0,1-2,0v-6.5a1,1,0,0,1,2,0Zm3.67-1.07a1,1,0,1,1-2.05,0v-6.49a1,1,0,1,1,2.05,0Z"/><path class="cls-44" d="M221.46,266.31h0a.84.84,0,0,0,0,.27.19.19,0,0,0,0,.08,1.08,1.08,0,0,0,.08.19l.06.09.13.18.08.09.19.18.09.08a1.92,1.92,0,0,0,.31.23l0,0,.42.25.1.06.39.19.16.08.39.17.19.07.44.17.19.07.58.2.1,0,.77.23.06,0,.74.19.22.06.65.15.26.06.55.12.68.14.48.1.81.15.41.07,1.25.21.45.06.91.14.56.07.88.12.58.07,1,.11.51.06,1.53.15.29,0,1.32.12.54,0,1.26.09.62,0,1.4.09.44,0,2,.1.65,0,1.84.07h.38l2.05,0h5.83l2.06,0h.38l1.83-.07.65,0,2-.1.45,0,1.39-.09.63,0,1.25-.09.55,0,1.31-.12.3,0,1.52-.15.52-.06,1-.11.58-.07.88-.12.56-.07.91-.14.45-.06,1.25-.21.41-.07.81-.15.49-.1.67-.14.56-.12.26-.06.65-.15.21-.06.74-.19.07,0,.76-.23.1,0,.59-.2.18-.07.44-.17.19-.07.39-.17.17-.08.38-.19.1-.06a4.23,4.23,0,0,0,.42-.25l0,0a3.55,3.55,0,0,0,.31-.23l.09-.08.18-.18.08-.09a1,1,0,0,0,.13-.18.47.47,0,0,0,.06-.09,1.11,1.11,0,0,0,.09-.19l0-.08a1.26,1.26,0,0,0,0-.27h0c0-3.13-14.79-5.67-33-5.67s-33,2.54-33,5.67h0Zm58.33,0c0,1.16-2.67,2.22-7,3,3.22-.72,5.13-1.62,5.13-2.59,0-2.35-11.08-4.25-24.74-4.25-10.82,0-20,1.19-23.38,2.86,2.6-1.93,12.65-3.37,24.67-3.37C268.45,262,279.79,263.9,279.79,266.31ZM244.9,268l1.43-.37a4,4,0,0,1,.5-.08q.31,0,.66,0c.27,0,.57,0,.88.05l1.08.12,1.38.13c.52.05,1.13.08,1.83.1l.67-1.36-2.61-.15c-.87-.06-1.66-.13-2.36-.23a9.27,9.27,0,0,1-1.69-.37c-.43-.14-.64-.33-.64-.55l0,0a.14.14,0,0,1,0-.06c0-.16.19-.32.58-.48a7.82,7.82,0,0,1,1.67-.42c.73-.13,1.63-.23,2.7-.31s2.3-.12,3.68-.12l.21-.41c0-.06.15-.1.38-.14a4.32,4.32,0,0,1,.89-.07h1.72l-.05.1h.05l-.28.54c1.32,0,2.45.11,3.41.2s1.82.2,2.53.31l-.23.06.23,0-1.13.29a3.1,3.1,0,0,1-.53.1,5.72,5.72,0,0,1-.64,0l-.67,0-.89-.07-1.1-.09-1.34-.08-.62,1.26q1.33.06,2.64.15c.89.06,1.69.13,2.41.22a11.07,11.07,0,0,1,1.72.34c.44.14.67.31.67.51,0,0,0,0,0,0s0,0,0,.05c0,.2-.2.39-.59.56a7.18,7.18,0,0,1-1.71.47,25.49,25.49,0,0,1-2.77.33c-1.09.09-2.35.14-3.76.15l-.22.48c0,.05-.15.1-.38.14a5.32,5.32,0,0,1-.89.06H252l.05-.09H252l.29-.6c-1.45,0-2.82-.11-4.1-.21s-2.39-.23-3.29-.39l.23-.06Z"/><path class="cls-43" d="M228.45,273.64V269.8l-.29-.07-.26-.06-.65-.15-.22-.06-.74-.19-.06,0-.77-.23-.1,0-.58-.2-.19-.07-.44-.17-.19-.07-.39-.17-.16-.08L223,268l-.1-.06-.42-.25,0,0a1.92,1.92,0,0,1-.31-.23l-.09-.08-.19-.18-.08-.09-.13-.18-.06-.09a1.08,1.08,0,0,1-.08-.19.19.19,0,0,1,0-.08.84.84,0,0,1,0-.27h0v10.82c0,1.32,2.61,2.53,7,3.5v-7Zm-3.92,3.62a1,1,0,1,1-2.05,0v-6.49a1,1,0,1,1,2.05,0Zm3.67,1.11a1,1,0,0,1-1,1h0a1,1,0,0,1-1-1v-6.49a1,1,0,0,1,1-1h0a1,1,0,0,1,1,1Z"/><path class="cls-45" d="M239.1,272.84a1,1,0,0,0-1,1v6.5a1,1,0,0,0,2,0v-6.5A1,1,0,0,0,239.1,272.84Z"/><path class="cls-45" d="M243,273.12a1,1,0,0,0-1,1v6.5a1,1,0,0,0,2.05,0v-6.5A1,1,0,0,0,243,273.12Z"/><path class="cls-45" d="M246.91,273.52a1,1,0,0,0-1,1V281a1,1,0,0,0,2.05,0v-6.5A1,1,0,0,0,246.91,273.52Z"/><path class="cls-45" d="M250.81,273.52a1,1,0,0,0-1,1V281a1,1,0,0,0,2.05,0v-6.5A1,1,0,0,0,250.81,273.52Z"/><path class="cls-45" d="M254.71,273.75a1,1,0,0,0-1,1v6.49a1,1,0,1,0,2,0v-6.49A1,1,0,0,0,254.71,273.75Z"/><path class="cls-46" d="M282,270.81a1,1,0,0,0-1,1v6.5a1,1,0,0,0,2,0v-6.5A1,1,0,0,0,282,270.81Z"/><path class="cls-46" d="M278.11,271.45a1,1,0,0,0-1,1V279a1,1,0,0,0,2.05,0v-6.5A1,1,0,0,0,278.11,271.45Z"/><path class="cls-46" d="M274.21,272.16a1,1,0,0,0-1,1v6.49a1,1,0,1,0,2.05,0v-6.49A1,1,0,0,0,274.21,272.16Z"/><path class="cls-46" d="M270.31,272.68a1,1,0,0,0-1,1v6.5a1,1,0,0,0,2.05,0v-6.5A1,1,0,0,0,270.31,272.68Z"/><path class="cls-45" d="M266.41,273.12a1,1,0,0,0-1,1v6.5a1,1,0,0,0,2.05,0v-6.5A1,1,0,0,0,266.41,273.12Z"/><path class="cls-45" d="M262.51,273.52a1,1,0,0,0-1,1V281a1,1,0,0,0,2,0v-6.5A1,1,0,0,0,262.51,273.52Z"/><path class="cls-45" d="M258.61,273.52a1,1,0,0,0-1,1V281a1,1,0,0,0,2.05,0v-6.5A1,1,0,0,0,258.61,273.52Z"/><path class="cls-46" d="M285.68,269.74a1,1,0,0,0-1,1v6.49a1,1,0,1,0,2.05,0v-6.49A1,1,0,0,0,285.68,269.74Z"/><path class="cls-45" d="M235.2,272.28h0a1,1,0,0,0-1,1v6.49a1,1,0,0,0,1,1h0a1,1,0,0,0,1-1v-6.49A1,1,0,0,0,235.2,272.28Z"/><path class="cls-45" d="M231.3,271.72a1,1,0,0,0-1,1v6.5a1,1,0,0,0,2.05,0v-6.5A1,1,0,0,0,231.3,271.72Z"/><path class="cls-45" d="M227.18,270.85h0a1,1,0,0,0-1,1v6.49a1,1,0,0,0,1,1h0a1,1,0,0,0,1-1v-6.49A1,1,0,0,0,227.18,270.85Z"/><path class="cls-45" d="M223.5,269.74a1,1,0,0,0-1,1v6.49a1,1,0,1,0,2.05,0v-6.49A1,1,0,0,0,223.5,269.74Z"/><path class="cls-40" d="M224.61,254.36c3.36-1.66,12.55-2.85,23.38-2.85,13.66,0,24.74,1.9,24.74,4.25,0,1-1.92,1.87-5.13,2.59,4.33-.78,7-1.84,7-3,0-2.41-11.33-4.35-25.32-4.35C237.26,251,227.21,252.44,224.61,254.36Z"/><path class="cls-41" d="M245.49,254.36a3.22,3.22,0,0,0,.69.16c.29,0,.64.1,1,.13l1.33.11.54-1.11c-.68,0-1.25,0-1.73.08s-.9.08-1.21.13a3.09,3.09,0,0,0-.69.17c-.12.06-.18.11-.2.17A.44.44,0,0,0,245.49,254.36Z"/><path class="cls-41" d="M254.41,256.32a.37.37,0,0,0-.24-.18,4.44,4.44,0,0,0-.72-.16c-.31,0-.67-.09-1.09-.12l-1.36-.1-.59,1.22a19.64,19.64,0,0,0,3-.23C254,256.64,254.35,256.49,254.41,256.32Z"/><path class="cls-42" d="M255.8,253.19c.87.09,1.63.18,2.3.28l.23-.06c-.72-.12-1.56-.22-2.53-.31s-2.1-.16-3.41-.2l0,.1C253.68,253,254.83,253.1,255.8,253.19Z"/><path class="cls-42" d="M247.1,257.74l-.29.59h.05l.29-.59Z"/><path class="cls-42" d="M254.05,255.17c.89.05,1.69.13,2.4.22a10.14,10.14,0,0,1,1.73.34c.41.12.62.28.65.46,0,0,0,0,0-.05q0-.3-.66-.51a11.23,11.23,0,0,0-1.73-.34c-.71-.09-1.51-.16-2.4-.22s-1.75-.11-2.64-.15l0,.09Z"/><path class="cls-42" d="M245.49,254.45a3.13,3.13,0,0,0,.69.17c.29,0,.64.09,1,.13l1.33.1.58-1.2h0l-.54,1.11-1.33-.11c-.4,0-.75-.08-1-.13a3.22,3.22,0,0,1-.69-.16.44.44,0,0,1-.23-.16.05.05,0,0,0,0,0C245.24,254.32,245.32,254.39,245.49,254.45Z"/><path class="cls-42" d="M241.42,253.83a8.37,8.37,0,0,1,1.67-.43q1.09-.18,2.7-.3c1.07-.08,2.3-.12,3.68-.12l.21-.42c0-.05.15-.1.38-.14a5.32,5.32,0,0,1,.89-.06h1.67l0-.1H251a4.32,4.32,0,0,0-.89.07c-.23,0-.35.08-.38.14l-.21.41c-1.38,0-2.61,0-3.68.12s-2,.18-2.7.31a7.82,7.82,0,0,0-1.67.42c-.39.16-.58.32-.58.48a.43.43,0,0,0,0,0C240.88,254.12,241.07,254,241.42,253.83Z"/><path class="cls-42" d="M254.42,256.36a.06.06,0,0,0,0,0c-.06.17-.39.32-1,.43a19.64,19.64,0,0,1-3,.23l0,.1a21.63,21.63,0,0,0,3-.23C254.08,256.72,254.42,256.56,254.42,256.36Z"/><path class="cls-42" d="M241.64,256.7c.21,0,.43,0,.65,0a7,7,0,0,1,.89.06l1.08.11,1.38.14c.51,0,1.13.08,1.83.1l.72-1.45h-.05l-.67,1.36c-.7,0-1.32-.05-1.83-.1l-1.38-.13-1.08-.12a6.93,6.93,0,0,0-.89-.05c-.22,0-.44,0-.65,0a3.75,3.75,0,0,0-.5.08l-1.43.37.23,0,1.2-.3A2.61,2.61,0,0,1,241.64,256.7Z"/><path class="cls-40" d="M243,257.53c1.28.1,2.65.17,4.1.21h.05l-.29.59-.05.1h1.72a5.4,5.4,0,0,0,.89-.06c.22,0,.35-.09.37-.14l.23-.48c1.41,0,2.66-.07,3.76-.15a25.49,25.49,0,0,0,2.77-.33,7.18,7.18,0,0,0,1.71-.47c.39-.17.58-.36.58-.56,0,0,0,0,0-.05,0-.18-.24-.34-.65-.46a10.14,10.14,0,0,0-1.73-.34c-.71-.09-1.51-.17-2.4-.22l-2.69-.16,0-.09.61-1.26,1.34.08,1.11.09.89.07.67,0a5.85,5.85,0,0,0,.64,0,3.29,3.29,0,0,0,.53-.1l1.13-.29-.23,0c-.67-.1-1.43-.19-2.3-.28s-2.12-.15-3.46-.19l0-.1.28-.54H251a5.32,5.32,0,0,0-.89.06c-.23,0-.35.09-.38.14l-.21.42c-1.38,0-2.61,0-3.68.12s-2,.18-2.7.3a8.37,8.37,0,0,0-1.67.43c-.35.14-.54.29-.57.43s0,0,0,.05c0,.22.21.41.64.55a9.27,9.27,0,0,0,1.69.37c.7.1,1.49.17,2.36.23s1.73.11,2.61.15h.05l-.72,1.45c-.7,0-1.32-.05-1.83-.1l-1.38-.14-1.08-.11a7,7,0,0,0-.89-.06c-.22,0-.44,0-.65,0a2.61,2.61,0,0,0-.5.08l-1.2.3-.23.06C240.61,257.3,241.71,257.42,243,257.53Zm7.41-.55.59-1.22,1.36.1c.42,0,.78.07,1.09.12a4.44,4.44,0,0,1,.72.16.37.37,0,0,1,.24.18.06.06,0,0,1,0,0c0,.2-.34.36-1,.49a21.63,21.63,0,0,1-3,.23Zm-5.15-2.78c0-.06.08-.11.2-.17a3.09,3.09,0,0,1,.69-.17c.31-.05.72-.1,1.21-.13s1-.06,1.73-.08h0l-.58,1.2-1.33-.1c-.4,0-.75-.08-1-.13a3.13,3.13,0,0,1-.69-.17c-.17-.06-.25-.13-.25-.21A.05.05,0,0,1,245.26,254.2Z"/><path class="cls-40" d="M275.29,262.68v-3.84l-.26.05-.67.14-.49.1-.81.15-.41.07-1.25.21-.45.06-.91.14-.56.07-.88.12L268,260l-1,.11-.51.06-1.53.15-.29,0-1.32.12h-.17v10.83a93.11,93.11,0,0,0,12.08-1.65v-7Zm-9.15,6.56a1,1,0,0,1-2.05,0v-6.5a1,1,0,0,1,2.05,0Zm3.9-.52a1,1,0,1,1-2.05,0v-6.49a1,1,0,1,1,2.05,0Zm3.9-.71a1,1,0,0,1-2.05,0v-6.5a1,1,0,0,1,2.05,0Z"/><path class="cls-43" d="M235.34,261v-.54h-.18l-1.31-.12-.29,0-1.53-.15-.51-.06-1-.11L230,260l-.88-.12-.56-.07-.91-.14-.45-.06-1.25-.21-.41-.07-.81-.15-.49-.1-.67-.14-.26-.05v10.83a93.11,93.11,0,0,0,12.08,1.65V261Zm-8.2,7.25a1,1,0,1,1-2,0v-6.49a1,1,0,1,1,2,0Zm3.9.56a1,1,0,0,1-1,1h0a1,1,0,0,1-1-1v-6.49a1,1,0,0,1,1-1h0a1,1,0,0,1,1,1Zm3.9.56a1,1,0,0,1-2.05,0v-6.5a1,1,0,0,1,2.05,0Z"/><path class="cls-43" d="M263.21,261v-.54l-.37,0-1.25.09-.63,0-1.4.09-.37,0h-.07l-2,.1-.65,0-1.83.07h-.39l-2.05,0h-5.83l-2.06,0h-.38l-1.83-.07-.65,0-2-.1h-.07l-.37,0-1.4-.09-.63,0-1.25-.09-.37,0v10.83c4.24.34,9,.53,13.93.53s9.7-.19,13.94-.53V261Zm-24.37,8.65a1,1,0,0,1-2.05,0v-6.5a1,1,0,0,1,2.05,0Zm3.9.4a1,1,0,0,1-2.05,0v-6.5a1,1,0,0,1,2.05,0Zm3.9,0a1,1,0,0,1-2,0v-6.5a1,1,0,0,1,2,0Zm3.9.23a1,1,0,1,1-2,0v-6.49a1,1,0,1,1,2,0Zm3.9-.23a1,1,0,0,1-2.05,0v-6.5a1,1,0,0,1,2.05,0Zm3.9,0a1,1,0,0,1-2,0v-6.5a1,1,0,0,1,2,0Zm3.9-.4a1,1,0,0,1-2.05,0v-6.5a1,1,0,0,1,2.05,0Z"/><path class="cls-40" d="M282.28,255.35h0a.84.84,0,0,1,0,.27s0,0,0,.08a.64.64,0,0,1-.08.19l-.06.09-.13.18-.08.09a1.66,1.66,0,0,1-.19.18.34.34,0,0,1-.09.08,1.92,1.92,0,0,1-.31.23l0,0-.42.25-.1.06-.39.19-.16.08-.39.17-.19.07-.44.17-.19.07-.58.2-.1,0-.76.23h-.07l-.74.2-.22.06-.65.15-.25.06-.3.07v10.83c4.38-1,7-2.18,7-3.5V255.35Zm-4.44,12a1,1,0,0,1-2,0v-6.5a1,1,0,0,1,2,0Zm3.67-1.07a1,1,0,1,1-2.05,0v-6.49a1,1,0,1,1,2.05,0Z"/><path class="cls-44" d="M216.26,255.35h0a1.26,1.26,0,0,0,0,.27s0,0,0,.08a.64.64,0,0,0,.08.19l.06.09a1,1,0,0,0,.13.18l.08.09a1.66,1.66,0,0,0,.19.18.34.34,0,0,0,.09.08,2.37,2.37,0,0,0,.3.23l0,0,.42.25.1.06.38.19.17.08.39.17.19.07.44.17.18.07.59.19.1,0,.76.23.07,0,.74.19.22.06.65.15.25.06.56.12.67.14.49.1.81.15.41.07,1.25.21.45.06.91.14.56.07.88.12.58.07,1,.11.51.06,1.53.15.29,0,1.31.12.55,0,1.25.09.63,0,1.4.09.44,0,2,.1.65,0,1.83.07h.38l2.06,0h5.83l2.05,0h.39l1.83-.07.65,0,2-.1.44,0,1.4-.09.63,0,1.25-.09.54,0,1.32-.12.29,0,1.53-.15.51-.06,1-.11.58-.07.88-.12.56-.07.91-.14.45-.06,1.25-.21.41-.07.81-.15.49-.1.67-.14.56-.12.25-.06.65-.15.22-.06.74-.2h.07l.76-.23.1,0,.58-.2.19-.07.44-.17.19-.07.39-.17.16-.08.39-.19.1-.06.42-.25,0,0a1.92,1.92,0,0,0,.31-.23.34.34,0,0,0,.09-.08,1.66,1.66,0,0,0,.19-.18l.08-.09.13-.18.06-.09a.64.64,0,0,0,.08-.19s0,0,0-.08a.84.84,0,0,0,0-.27h0c0-3.13-14.79-5.67-33-5.67s-33,2.54-33,5.67h0Zm58.33,0c0,1.16-2.66,2.22-7,3,3.21-.72,5.13-1.62,5.13-2.59,0-2.35-11.08-4.25-24.74-4.25-10.83,0-20,1.19-23.38,2.85,2.6-1.92,12.65-3.36,24.66-3.36C263.26,251,274.59,252.94,274.59,255.35Zm-34.88,1.7,1.43-.37a3.75,3.75,0,0,1,.5-.08c.21,0,.43,0,.65,0a6.93,6.93,0,0,1,.89.05l1.08.12,1.38.13c.51.05,1.13.08,1.83.1l.67-1.36q-1.32-.06-2.61-.15c-.87-.06-1.66-.13-2.36-.23a9.27,9.27,0,0,1-1.69-.37c-.43-.14-.64-.33-.64-.55,0,0,0,0,0-.05a.43.43,0,0,1,0,0c0-.16.19-.32.58-.48a7.82,7.82,0,0,1,1.67-.42c.73-.13,1.63-.23,2.7-.31s2.3-.12,3.68-.12l.21-.41c0-.06.15-.1.38-.14a4.32,4.32,0,0,1,.89-.07h1.72l0,.1h0l-.28.54c1.31,0,2.45.1,3.41.2s1.81.19,2.53.31l-.23.06.23,0-1.13.29a3.29,3.29,0,0,1-.53.1,5.85,5.85,0,0,1-.64,0l-.67,0-.89-.07-1.11-.09-1.34-.08-.61,1.26q1.34.06,2.64.15c.89.06,1.69.13,2.4.22a11.23,11.23,0,0,1,1.73.34q.66.21.66.51s0,0,0,.05,0,0,0,.05c0,.2-.19.39-.58.56a7.18,7.18,0,0,1-1.71.47,25.49,25.49,0,0,1-2.77.33c-1.1.08-2.35.14-3.76.15l-.23.48s-.15.1-.37.14a5.4,5.4,0,0,1-.89.06h-1.72l.05-.1h-.05l.29-.59c-1.45,0-2.82-.11-4.1-.21s-2.39-.23-3.29-.39l.23-.06Z"/><path class="cls-43" d="M223.26,262.68v-3.84l-.3-.07-.25-.06-.65-.15-.22-.06-.74-.19-.07,0-.76-.23-.1,0-.59-.19-.18-.07-.44-.17-.19-.07-.39-.17-.17-.08-.38-.19-.1-.06-.42-.25,0,0a2.37,2.37,0,0,1-.3-.23.34.34,0,0,1-.09-.08,1.66,1.66,0,0,1-.19-.18l-.08-.09a1,1,0,0,1-.13-.18l-.06-.09a.64.64,0,0,1-.08-.19s0,0,0-.08a1.26,1.26,0,0,1,0-.27h0v10.82c0,1.32,2.62,2.53,7,3.5v-7Zm-3.92,3.62a1,1,0,1,1-2.05,0v-6.49a1,1,0,1,1,2.05,0Zm3.67,1.11a1,1,0,0,1-1,1h0a1,1,0,0,1-1-1v-6.49a1,1,0,0,1,1-1h0a1,1,0,0,1,1,1Z"/><path class="cls-45" d="M233.91,261.88a1,1,0,0,0-1,1v6.5a1,1,0,0,0,2.05,0v-6.5A1,1,0,0,0,233.91,261.88Z"/><path class="cls-45" d="M237.81,262.16a1,1,0,0,0-1,1v6.5a1,1,0,0,0,2.05,0v-6.5A1,1,0,0,0,237.81,262.16Z"/><path class="cls-45" d="M241.71,262.56a1,1,0,0,0-1,1v6.5a1,1,0,0,0,2.05,0v-6.5A1,1,0,0,0,241.71,262.56Z"/><path class="cls-45" d="M245.61,262.56a1,1,0,0,0-1,1v6.5a1,1,0,0,0,2,0v-6.5A1,1,0,0,0,245.61,262.56Z"/><path class="cls-45" d="M249.51,262.79a1,1,0,0,0-1,1v6.49a1,1,0,1,0,2,0v-6.49A1,1,0,0,0,249.51,262.79Z"/><path class="cls-46" d="M276.82,259.85a1,1,0,0,0-1,1v6.5a1,1,0,0,0,2,0v-6.5A1,1,0,0,0,276.82,259.85Z"/><path class="cls-46" d="M272.92,260.49a1,1,0,0,0-1,1V268a1,1,0,0,0,2.05,0v-6.5A1,1,0,0,0,272.92,260.49Z"/><path class="cls-46" d="M269,261.2a1,1,0,0,0-1,1v6.49a1,1,0,1,0,2.05,0v-6.49A1,1,0,0,0,269,261.2Z"/><path class="cls-46" d="M265.11,261.72a1,1,0,0,0-1,1v6.5a1,1,0,0,0,2.05,0v-6.5A1,1,0,0,0,265.11,261.72Z"/><path class="cls-45" d="M261.21,262.16a1,1,0,0,0-1,1v6.5a1,1,0,0,0,2.05,0v-6.5A1,1,0,0,0,261.21,262.16Z"/><path class="cls-45" d="M257.31,262.56a1,1,0,0,0-1,1v6.5a1,1,0,0,0,2,0v-6.5A1,1,0,0,0,257.31,262.56Z"/><path class="cls-45" d="M253.41,262.56a1,1,0,0,0-1,1v6.5a1,1,0,0,0,2.05,0v-6.5A1,1,0,0,0,253.41,262.56Z"/><path class="cls-46" d="M280.49,258.78a1,1,0,0,0-1,1v6.49a1,1,0,1,0,2.05,0v-6.49A1,1,0,0,0,280.49,258.78Z"/><path class="cls-45" d="M230,261.32h0a1,1,0,0,0-1,1v6.49a1,1,0,0,0,1,1h0a1,1,0,0,0,1-1v-6.49A1,1,0,0,0,230,261.32Z"/><path class="cls-45" d="M226.11,260.76a1,1,0,0,0-1,1v6.49a1,1,0,1,0,2,0v-6.49A1,1,0,0,0,226.11,260.76Z"/><path class="cls-45" d="M222,259.89h0a1,1,0,0,0-1,1v6.49a1,1,0,0,0,1,1h0a1,1,0,0,0,1-1v-6.49A1,1,0,0,0,222,259.89Z"/><path class="cls-45" d="M218.31,258.78a1,1,0,0,0-1,1v6.49a1,1,0,1,0,2.05,0v-6.49A1,1,0,0,0,218.31,258.78Z"/><path class="cls-40" d="M229.23,243.4c3.35-1.66,12.55-2.86,23.37-2.86,13.67,0,24.74,1.91,24.74,4.26,0,1-1.91,1.87-5.13,2.59,4.33-.78,7-1.84,7-3,0-2.41-11.34-4.35-25.32-4.35C241.87,240,231.82,241.47,229.23,243.4Z"/><path class="cls-41" d="M250.1,243.4a4,4,0,0,0,.69.16c.3.05.65.1,1.05.13l1.32.11.54-1.11c-.67,0-1.25,0-1.73.08s-.89.08-1.21.13a3.43,3.43,0,0,0-.69.17c-.12.06-.18.11-.2.17A.48.48,0,0,0,250.1,243.4Z"/><path class="cls-41" d="M259,245.36a.4.4,0,0,0-.25-.18,4.54,4.54,0,0,0-.71-.16c-.32-.05-.68-.09-1.09-.12l-1.36-.1L255,246a21.22,21.22,0,0,0,3-.23C258.63,245.68,259,245.53,259,245.36Z"/><path class="cls-42" d="M260.42,242.23c.87.09,1.63.18,2.29.28l.24-.06c-.72-.12-1.56-.22-2.53-.31s-2.1-.16-3.41-.2l-.05.1C258.29,242.07,259.45,242.14,260.42,242.23Z"/><path class="cls-42" d="M251.72,246.78l-.3.59h.05l.29-.59Z"/><path class="cls-42" d="M258.67,244.21c.89,0,1.69.13,2.4.22a10.35,10.35,0,0,1,1.73.34c.4.12.61.28.65.46,0,0,0,0,0,0q0-.3-.66-.51a11.48,11.48,0,0,0-1.73-.34c-.71-.09-1.51-.16-2.4-.22L256,244l0,.1Z"/><path class="cls-42" d="M250.1,243.49a3.13,3.13,0,0,0,.69.17c.3.05.65.09,1.05.13l1.32.1.59-1.2h-.05l-.54,1.11-1.32-.11c-.4,0-.75-.08-1.05-.13a4,4,0,0,1-.69-.16.48.48,0,0,1-.23-.16s0,0,0,0S249.94,243.43,250.1,243.49Z"/><path class="cls-42" d="M246,242.87a8.37,8.37,0,0,1,1.67-.43q1.1-.18,2.7-.3t3.69-.12l.21-.42s.15-.1.37-.14a5.4,5.4,0,0,1,.89-.06h1.67l0-.1h-1.72a4.39,4.39,0,0,0-.89.07c-.22,0-.35.08-.37.14l-.21.41q-2.09,0-3.69.12c-1.07.08-2,.18-2.7.31a7.82,7.82,0,0,0-1.67.42q-.57.24-.57.48a.43.43,0,0,0,0,.05C245.5,243.15,245.68,243,246,242.87Z"/><path class="cls-42" d="M259,245.4s0,0,0,0c-.06.17-.4.32-1,.43a21.22,21.22,0,0,1-3,.23l-.05.1a21.8,21.8,0,0,0,3-.23C258.69,245.76,259,245.6,259,245.4Z"/><path class="cls-42" d="M246.26,245.74a4.45,4.45,0,0,1,.65,0c.28,0,.57,0,.89.05l1.07.12,1.38.14c.52.05,1.13.08,1.83.1l.72-1.45h0l-.68,1.36c-.7,0-1.31,0-1.83-.1l-1.38-.13-1.07-.12a7,7,0,0,0-.89,0c-.23,0-.45,0-.65,0a3.49,3.49,0,0,0-.5.08l-1.44.37.24,0,1.2-.31A3.74,3.74,0,0,1,246.26,245.74Z"/><path class="cls-40" d="M247.62,246.57c1.27.1,2.64.17,4.1.21h0l-.29.59-.05.1h1.72a5.32,5.32,0,0,0,.89-.06c.23,0,.35-.09.38-.14l.23-.48c1.41,0,2.66-.07,3.75-.15a25.49,25.49,0,0,0,2.77-.33,7.69,7.69,0,0,0,1.71-.47c.39-.17.59-.36.59-.56,0,0,0,0,0-.05,0-.18-.25-.34-.65-.46a10.35,10.35,0,0,0-1.73-.34c-.71-.09-1.51-.17-2.4-.22l-2.69-.16,0-.1.62-1.25,1.34.08,1.1.09.89.07.67,0a5.72,5.72,0,0,0,.64,0,3.1,3.1,0,0,0,.53-.1l1.14-.29-.24,0c-.66-.1-1.42-.19-2.29-.28s-2.13-.16-3.46-.19l.05-.1.27-.54h-1.72a5.4,5.4,0,0,0-.89.06c-.22,0-.35.09-.37.14l-.21.42q-2.09,0-3.69.12t-2.7.3a8.37,8.37,0,0,0-1.67.43c-.35.14-.53.28-.56.43s0,0,0,0c0,.22.21.41.63.55a9.6,9.6,0,0,0,1.7.37c.7.1,1.48.17,2.36.23s1.73.11,2.61.15h0l-.72,1.45c-.7,0-1.31-.05-1.83-.1l-1.38-.14-1.07-.12c-.32,0-.61-.05-.89-.05a4.45,4.45,0,0,0-.65,0,3.74,3.74,0,0,0-.5.07l-1.2.31-.24.06C245.23,246.34,246.33,246.46,247.62,246.57ZM255,246l.6-1.22,1.36.1c.41,0,.77.07,1.09.12a4.54,4.54,0,0,1,.71.16.4.4,0,0,1,.25.18s0,0,0,0c0,.2-.35.36-1,.49a21.8,21.8,0,0,1-3,.23Zm-5.15-2.78c0-.06.08-.11.2-.17a3.43,3.43,0,0,1,.69-.17c.32-.05.72-.1,1.21-.13s1.06-.06,1.73-.08h.05l-.59,1.2-1.32-.1c-.4,0-.75-.08-1.05-.13a3.13,3.13,0,0,1-.69-.17q-.24-.09-.24-.21S249.87,243.25,249.87,243.24Z"/><path class="cls-40" d="M279.91,251.72v-3.84l-.27.05-.67.14-.48.1-.82.15-.4.07-1.25.21-.45.06-.91.14-.56.07-.88.11-.58.08-1,.11-.52.05-1.52.16-.3,0-1.31.12h-.18v10.83a91.64,91.64,0,0,0,12.09-1.66v-7Zm-9.16,6.56a1,1,0,0,1-2.05,0v-6.5a1,1,0,0,1,2.05,0Zm3.9-.52a1,1,0,1,1-2,0v-6.49a1,1,0,1,1,2,0Zm3.91-.71a1,1,0,0,1-2.05,0v-6.5a1,1,0,0,1,2.05,0Z"/><path class="cls-43" d="M240,250.07v-.54h-.18l-1.32-.12-.29,0-1.53-.16-.51-.05-1-.11-.58-.07-.88-.12-.56-.07-.91-.14-.45-.06-1.25-.21-.4-.07-.82-.15-.48-.1-.68-.14-.26-.05V258.7A91.64,91.64,0,0,0,240,260.36V250.07Zm-8.21,7.25a1,1,0,1,1-2.05,0v-6.49a1,1,0,1,1,2.05,0Zm3.9.56a1,1,0,0,1-1,1h0a1,1,0,0,1-1-1v-6.5a1,1,0,0,1,1-1h0a1,1,0,0,1,1,1Zm3.9.56a1,1,0,0,1-2.05,0v-6.5a1,1,0,0,1,2.05,0Z"/><path class="cls-43" d="M267.82,250.07v-.54l-.37,0-1.25.09-.63,0-1.39.09-.37,0h-.08l-2,.1-.64,0-1.84.07h-.38l-2.05,0H251l-2.05,0h-.38l-1.84-.07-.65,0-2-.1H244l-.37,0-1.39-.09-.63,0-1.25-.09-.37,0v10.83c4.23.34,8.95.53,13.93.53s9.7-.19,13.93-.53V250.07Zm-24.37,8.65a1,1,0,0,1-2,0v-6.5a1,1,0,1,1,2,0Zm3.9.4a1,1,0,0,1-2,0v-6.5a1,1,0,0,1,2,0Zm3.9,0a1,1,0,0,1-2.05,0v-6.5a1,1,0,0,1,2.05,0Zm3.9.23a1,1,0,1,1-2.05,0v-6.49a1,1,0,1,1,2.05,0Zm3.9-.23a1,1,0,0,1-2.05,0v-6.5a1,1,0,0,1,2.05,0Zm3.9,0a1,1,0,0,1-2.05,0v-6.5a1,1,0,0,1,2.05,0Zm3.9-.4a1,1,0,0,1-2.05,0v-6.5a1,1,0,1,1,2.05,0Z"/><path class="cls-40" d="M286.9,244.39h0a1.26,1.26,0,0,1,0,.27l0,.08a1.54,1.54,0,0,1-.08.19l-.06.09-.13.18-.08.09-.19.18-.09.08a3.55,3.55,0,0,1-.31.23l0,0-.43.25-.1.06-.38.19-.16.08-.39.17-.19.07c-.15.06-.29.12-.45.17l-.18.07-.59.19-.09,0-.77.23h-.07l-.73.2-.22.06-.65.15-.26.06-.29.07V258.7c4.38-1,7-2.17,7-3.49V244.39Zm-4.44,12a1,1,0,0,1-2,0v-6.5a1,1,0,0,1,2,0Zm3.67-1.07a1,1,0,1,1-2.05,0v-6.5a1,1,0,0,1,2.05,0Z"/><path class="cls-44" d="M220.88,244.39h0a.84.84,0,0,0,0,.27l0,.08a1.54,1.54,0,0,0,.08.19l.06.09.13.18.08.09.19.18.09.08a2.49,2.49,0,0,0,.31.23l0,0c.13.08.27.17.43.25l.1.06.38.19.16.08.39.16.19.08.44.17.19.07.58.19.1,0,.77.23h.07l.73.2.22.06.65.15.26.06.55.12.68.14.48.1.82.15.4.07,1.25.21.45.06.91.14.56.07.88.12.58.07,1,.11.51.05,1.53.16.29,0,1.32.12.55,0,1.25.09.63,0,1.39.09.45,0,2,.1.65,0,1.84.07h.38l2.05,0h5.84l2.05,0h.38l1.84-.07.64,0,2-.1.45,0,1.39-.09.63,0,1.25-.09.55,0,1.31-.12.3,0,1.52-.16.52-.05,1-.11.58-.08.88-.11.56-.07.91-.14.45-.06,1.25-.21.4-.07.82-.15.48-.1.67-.14.56-.12.26-.06.65-.15.22-.06.73-.2h.07l.77-.23.09,0,.59-.19.18-.07c.16-.05.3-.11.45-.17l.19-.07.39-.17.16-.08.38-.19.1-.06.43-.25,0,0a3.55,3.55,0,0,0,.31-.23l.09-.08.19-.18.08-.09.13-.18.06-.09a1.54,1.54,0,0,0,.08-.19l0-.08a1.26,1.26,0,0,0,0-.27h0c0-3.13-14.79-5.67-33-5.67s-33,2.54-33,5.67h0Zm58.33,0c0,1.16-2.67,2.22-7,3,3.22-.72,5.13-1.62,5.13-2.59,0-2.35-11.07-4.26-24.74-4.26-10.82,0-20,1.2-23.37,2.86,2.59-1.93,12.64-3.36,24.66-3.36C267.87,240,279.21,242,279.21,244.39Zm-34.89,1.7,1.44-.37a3.49,3.49,0,0,1,.5-.08c.2,0,.42,0,.65,0a7,7,0,0,1,.89,0l1.07.12,1.38.13c.52.05,1.13.08,1.83.1l.68-1.36q-1.32-.06-2.61-.15c-.88-.06-1.66-.13-2.36-.23a9.6,9.6,0,0,1-1.7-.37c-.42-.14-.63-.33-.63-.55,0,0,0,0,0,0a.43.43,0,0,1,0-.05q0-.24.57-.48a7.82,7.82,0,0,1,1.67-.42c.73-.13,1.63-.23,2.7-.31s2.3-.12,3.69-.12l.21-.41c0-.06.15-.1.37-.14a4.39,4.39,0,0,1,.89-.07h1.72l0,.1h0l-.27.54c1.31,0,2.45.1,3.41.2s1.81.19,2.53.31l-.24.06.24,0-1.14.29a3.1,3.1,0,0,1-.53.1,5.72,5.72,0,0,1-.64,0l-.67,0-.89-.07-1.1-.09-1.34-.08L256,244l2.65.16c.89.06,1.69.13,2.4.22a11.48,11.48,0,0,1,1.73.34q.66.21.66.51s0,0,0,0,0,0,0,.05c0,.2-.2.39-.59.56a7.69,7.69,0,0,1-1.71.47,25.49,25.49,0,0,1-2.77.33c-1.09.08-2.34.14-3.75.15l-.23.48s-.15.1-.38.14a5.32,5.32,0,0,1-.89.06h-1.72l.05-.1h-.05l.3-.59c-1.46,0-2.83-.11-4.1-.21s-2.39-.23-3.3-.39l.24-.06Z"/><path class="cls-43" d="M227.87,251.72v-3.84l-.29-.07-.26-.06-.65-.15-.22-.06-.73-.2h-.07l-.77-.23-.1,0-.58-.19-.19-.07-.44-.17-.19-.08-.39-.16-.16-.08-.38-.19-.1-.06c-.16-.08-.3-.17-.43-.25l0,0a2.49,2.49,0,0,1-.31-.23l-.09-.08-.19-.18-.08-.09-.13-.18-.06-.09a1.54,1.54,0,0,1-.08-.19l0-.08a.84.84,0,0,1,0-.27h0v10.82c0,1.32,2.61,2.53,7,3.49v-7ZM224,255.34a1,1,0,1,1-2,0v-6.5a1,1,0,0,1,2,0Zm3.68,1.11a1,1,0,0,1-1,1h0a1,1,0,0,1-1-1V250a1,1,0,0,1,1-1h0a1,1,0,0,1,1,1Z"/><path class="cls-45" d="M238.53,250.92a1,1,0,0,0-1,1v6.5a1,1,0,0,0,2.05,0v-6.5A1,1,0,0,0,238.53,250.92Z"/><path class="cls-45" d="M242.43,251.19a1,1,0,0,0-1,1v6.5a1,1,0,0,0,2,0v-6.5A1,1,0,0,0,242.43,251.19Z"/><path class="cls-45" d="M246.33,251.6a1,1,0,0,0-1,1v6.5a1,1,0,0,0,2,0v-6.5A1,1,0,0,0,246.33,251.6Z"/><path class="cls-45" d="M250.23,251.6a1,1,0,0,0-1,1v6.5a1,1,0,0,0,2.05,0v-6.5A1,1,0,0,0,250.23,251.6Z"/><path class="cls-45" d="M254.13,251.83a1,1,0,0,0-1,1v6.49a1,1,0,1,0,2.05,0v-6.49A1,1,0,0,0,254.13,251.83Z"/><path class="cls-46" d="M281.43,248.89a1,1,0,0,0-1,1v6.5a1,1,0,0,0,2,0v-6.5A1,1,0,0,0,281.43,248.89Z"/><path class="cls-46" d="M277.53,249.53a1,1,0,0,0-1,1v6.5a1,1,0,0,0,2.05,0v-6.5A1,1,0,0,0,277.53,249.53Z"/><path class="cls-46" d="M273.63,250.24a1,1,0,0,0-1,1v6.49a1,1,0,1,0,2,0v-6.49A1,1,0,0,0,273.63,250.24Z"/><path class="cls-46" d="M269.73,250.76a1,1,0,0,0-1,1v6.5a1,1,0,0,0,2.05,0v-6.5A1,1,0,0,0,269.73,250.76Z"/><path class="cls-45" d="M265.83,251.19a1,1,0,0,0-1,1v6.5a1,1,0,0,0,2.05,0v-6.5A1,1,0,0,0,265.83,251.19Z"/><path class="cls-45" d="M261.93,251.6a1,1,0,0,0-1,1v6.5a1,1,0,0,0,2.05,0v-6.5A1,1,0,0,0,261.93,251.6Z"/><path class="cls-45" d="M258,251.6a1,1,0,0,0-1,1v6.5a1,1,0,0,0,2.05,0v-6.5A1,1,0,0,0,258,251.6Z"/><path class="cls-46" d="M285.1,247.82a1,1,0,0,0-1,1v6.5a1,1,0,1,0,2.05,0v-6.5A1,1,0,0,0,285.1,247.82Z"/><path class="cls-45" d="M234.63,250.36h0a1,1,0,0,0-1,1v6.5a1,1,0,0,0,1,1h0a1,1,0,0,0,1-1v-6.5A1,1,0,0,0,234.63,250.36Z"/><path class="cls-45" d="M230.73,249.8a1,1,0,0,0-1,1v6.49a1,1,0,1,0,2.05,0v-6.49A1,1,0,0,0,230.73,249.8Z"/><path class="cls-45" d="M226.6,248.93h0a1,1,0,0,0-1,1v6.49a1,1,0,0,0,1,1h0a1,1,0,0,0,1-1V250A1,1,0,0,0,226.6,248.93Z"/><path class="cls-45" d="M222.93,247.82a1,1,0,0,0-1,1v6.5a1,1,0,1,0,2,0v-6.5A1,1,0,0,0,222.93,247.82Z"/><path class="cls-40" d="M217.11,232.44c3.36-1.66,12.55-2.86,23.38-2.86,13.66,0,24.74,1.91,24.74,4.26,0,1-1.92,1.87-5.13,2.59,4.33-.78,7-1.84,7-3,0-2.41-11.33-4.35-25.31-4.35C229.76,229.08,219.71,230.51,217.11,232.44Z"/><path class="cls-41" d="M238,232.44a4,4,0,0,0,.69.16c.29.05.64.1,1,.13l1.33.11.54-1.11c-.68,0-1.25,0-1.73.08s-.9.08-1.21.13a3.09,3.09,0,0,0-.69.17c-.12.06-.18.11-.2.17A.44.44,0,0,0,238,232.44Z"/><path class="cls-41" d="M246.91,234.4q0-.1-.24-.18a4.44,4.44,0,0,0-.72-.16c-.31-.05-.67-.09-1.09-.12l-1.36-.1-.59,1.22a20.92,20.92,0,0,0,3-.23C246.52,234.72,246.85,234.57,246.91,234.4Z"/><path class="cls-42" d="M248.3,231.27c.87.09,1.63.18,2.3.28l.23-.06c-.72-.12-1.56-.22-2.53-.31s-2.09-.16-3.41-.2l0,.1C246.18,231.11,247.33,231.18,248.3,231.27Z"/><path class="cls-42" d="M239.6,235.81l-.29.6h.05l.29-.59Z"/><path class="cls-42" d="M246.55,233.25c.89.05,1.69.13,2.41.22a10,10,0,0,1,1.72.34c.41.12.62.28.65.46,0,0,0,0,0-.05q0-.3-.66-.51a11.07,11.07,0,0,0-1.72-.34c-.72-.09-1.52-.16-2.41-.22l-2.64-.16,0,.1Z"/><path class="cls-42" d="M238,232.53a3.13,3.13,0,0,0,.69.17c.29.05.64.09,1,.13l1.33.1.58-1.2h0l-.54,1.11-1.33-.11c-.4,0-.75-.08-1-.13a4,4,0,0,1-.69-.16.44.44,0,0,1-.23-.16l0,0C237.74,232.4,237.82,232.47,238,232.53Z"/><path class="cls-42" d="M233.92,231.9a9.26,9.26,0,0,1,1.67-.42q1.09-.18,2.7-.3c1.07-.08,2.3-.12,3.68-.12l.21-.42s.15-.1.38-.14a5.32,5.32,0,0,1,.89-.06h1.67l0-.1h-1.72a5.32,5.32,0,0,0-.89.06c-.23,0-.35.09-.38.15L242,231c-1.38,0-2.61,0-3.68.12s-2,.18-2.7.31a7.82,7.82,0,0,0-1.67.42c-.39.16-.58.32-.58.48a.43.43,0,0,0,0,.05C233.39,232.19,233.57,232.05,233.92,231.9Z"/><path class="cls-42" d="M246.92,234.44s0,0,0,0c-.06.17-.39.32-1,.43a20.92,20.92,0,0,1-3,.23l0,.1a21.49,21.49,0,0,0,3-.23C246.58,234.8,246.92,234.64,246.92,234.44Z"/><path class="cls-42" d="M234.14,234.77q.31,0,.66,0c.27,0,.57,0,.88,0l1.08.12,1.38.14c.51,0,1.13.08,1.83.1l.72-1.45h-.05l-.67,1.36c-.7,0-1.32-.05-1.83-.1l-1.38-.13-1.08-.12a6.87,6.87,0,0,0-.88,0q-.35,0-.66,0a3.75,3.75,0,0,0-.5.08l-1.43.36.23,0,1.2-.31Z"/><path class="cls-40" d="M235.5,235.61c1.28.1,2.65.17,4.1.2h.05l-.29.59-.05.1H241a5.4,5.4,0,0,0,.89-.06c.22,0,.35-.09.38-.14l.22-.48c1.41,0,2.67-.07,3.76-.15s2-.2,2.77-.33a7.69,7.69,0,0,0,1.71-.47c.39-.17.58-.36.58-.56,0,0,0,0,0,0,0-.18-.24-.34-.65-.46a10,10,0,0,0-1.72-.34c-.72-.09-1.52-.17-2.41-.22l-2.69-.16,0-.1.61-1.25,1.34.08,1.11.09.89.07.67,0a5.72,5.72,0,0,0,.64,0,3.29,3.29,0,0,0,.53-.1l1.13-.29-.23,0c-.67-.1-1.43-.19-2.3-.28s-2.12-.16-3.46-.19l0-.1.28-.54h-1.72a5.32,5.32,0,0,0-.89.06c-.23,0-.35.09-.38.14l-.21.42c-1.38,0-2.61,0-3.68.12s-2,.18-2.7.3a9.26,9.26,0,0,0-1.67.42c-.35.15-.53.29-.57.44s0,0,0,0c0,.22.21.4.64.55a9.27,9.27,0,0,0,1.69.37c.7.1,1.49.17,2.36.23s1.73.11,2.61.15h.05l-.72,1.45c-.7,0-1.32-.06-1.83-.1l-1.38-.14-1.08-.12c-.31,0-.61,0-.88,0s-.45,0-.66,0l-.5.08-1.2.31-.23.06C233.11,235.38,234.21,235.5,235.5,235.61Zm7.41-.55.59-1.22,1.36.1c.42,0,.78.07,1.09.12a4.44,4.44,0,0,1,.72.16q.21.08.24.18s0,0,0,0c0,.2-.34.36-1,.49a21.49,21.49,0,0,1-3,.23Zm-5.15-2.78c0-.06.08-.11.2-.17a3.09,3.09,0,0,1,.69-.17c.31-.05.72-.1,1.21-.13s1-.06,1.73-.08h0l-.58,1.2-1.33-.1c-.4,0-.75-.08-1-.13a3.13,3.13,0,0,1-.69-.17c-.17-.06-.25-.13-.25-.22Z"/><path class="cls-40" d="M267.79,240.76v-3.84l-.26.05-.67.14-.49.1-.81.15-.41.07-1.25.21-.45.06-.91.14-.56.07-.88.11-.58.08-1,.11-.51,0-1.53.16-.29,0-1.31.12h-.18V249.4a91.22,91.22,0,0,0,12.08-1.66v-7Zm-9.15,6.56a1,1,0,0,1-2.05,0v-6.5a1,1,0,1,1,2.05,0Zm3.9-.52a1,1,0,1,1-2.05,0v-6.49a1,1,0,1,1,2.05,0Zm3.9-.71a1,1,0,0,1-2.05,0v-6.5a1,1,0,1,1,2.05,0Z"/><path class="cls-43" d="M227.84,239.11v-.54h-.17l-1.32-.12-.29,0-1.53-.16-.51,0-1-.11-.58-.08-.88-.11-.56-.07-.91-.14-.45-.06-1.25-.21-.41-.07-.81-.15-.48-.1L216,237l-.26-.05v10.82a91.22,91.22,0,0,0,12.08,1.66V239.11Zm-8.2,7.25a1,1,0,1,1-2,0v-6.49a1,1,0,1,1,2,0Zm3.9.56a1,1,0,0,1-1,1h0a1,1,0,0,1-1-1v-6.5a1,1,0,0,1,1-1h0a1,1,0,0,1,1,1Zm3.9.56a1,1,0,0,1-2.05,0V241a1,1,0,0,1,2.05,0Z"/><path class="cls-43" d="M255.71,239.11v-.54l-.37,0-1.25.09-.63,0-1.4.09-.37,0h-.07l-2,.1-.65,0c-.6,0-1.22,0-1.83.06l-.38,0-2.06,0h-5.83l-2.05,0-.39,0-1.83-.06-.65,0-2-.1h-.07l-.37,0-1.4-.09-.63,0-1.25-.09-.37,0V249.4c4.24.34,9,.53,13.94.53s9.69-.19,13.93-.53V239.11Zm-24.37,8.64a1,1,0,1,1-2.05,0v-6.49a1,1,0,1,1,2.05,0Zm3.9.41a1,1,0,0,1-2.05,0v-6.5a1,1,0,0,1,2.05,0Zm3.9,0a1,1,0,0,1-2,0v-6.5a1,1,0,0,1,2,0Zm3.9.23a1,1,0,1,1-2,0V241.9a1,1,0,1,1,2,0Zm3.9-.23a1,1,0,0,1-2.05,0v-6.5a1,1,0,0,1,2.05,0Zm3.9,0a1,1,0,0,1-2.05,0v-6.5a1,1,0,0,1,2.05,0Zm3.9-.41a1,1,0,1,1-2.05,0v-6.49a1,1,0,1,1,2.05,0Z"/><path class="cls-40" d="M274.79,233.43h0a1.26,1.26,0,0,1,0,.27s0,.05,0,.08a.77.77,0,0,1-.08.19l-.06.09a1,1,0,0,1-.13.18l-.08.09a1.66,1.66,0,0,1-.19.18.34.34,0,0,1-.09.08,2.37,2.37,0,0,1-.3.23l0,0-.42.25-.1.06-.38.19-.17.08-.39.16-.19.08-.44.17-.18.07-.59.19-.1,0-.76.23H270c-.24.07-.48.14-.74.2l-.22.06-.65.15-.25.06-.3.07v10.82c4.38-1,7-2.17,7-3.49V233.43Zm-4.45,12a1,1,0,0,1-2,0V239a1,1,0,0,1,2,0Zm3.67-1.07a1,1,0,0,1-2.05,0v-6.5a1,1,0,0,1,2.05,0Z"/><path class="cls-44" d="M208.77,233.43h0a.84.84,0,0,0,0,.27s0,.05,0,.08a.77.77,0,0,0,.08.19l.06.09.13.18.08.09a1.66,1.66,0,0,0,.19.18.34.34,0,0,0,.09.08,1.92,1.92,0,0,0,.31.23l0,0,.42.25.1.06.39.19.16.08.39.16.19.08.44.17.19.07.58.19.1,0,.76.23h.07l.74.2.22.06.65.15.25.06.56.12.68.14.48.1.81.15.41.07,1.25.21.45.06.91.14.56.07.88.11.58.08,1,.11.51,0,1.53.16.29,0,1.32.12.54,0,1.25.09.63,0,1.4.09.44,0,2,.1.65,0,1.83.06.39,0,2.05,0h5.83l2.06,0,.38,0c.61,0,1.23,0,1.83-.06l.65,0,2-.1.44,0,1.4-.09.63,0,1.25-.09.55,0,1.31-.12.29,0,1.53-.16.51,0,1-.11.58-.08.88-.11.56-.07.91-.14.45-.06,1.25-.21.41-.07.81-.15.49-.1.67-.14.56-.12.25-.06.65-.15.22-.06c.26-.06.5-.13.74-.2H270l.76-.23.1,0,.59-.19.18-.07.44-.17.19-.08.39-.16.17-.08.38-.19.1-.06.42-.25,0,0a2.37,2.37,0,0,0,.3-.23.34.34,0,0,0,.09-.08,1.66,1.66,0,0,0,.19-.18l.08-.09a1,1,0,0,0,.13-.18l.06-.09a.77.77,0,0,0,.08-.19s0-.05,0-.08a1.26,1.26,0,0,0,0-.27h0l.09,0h-.1c0-3.13-14.78-5.67-33-5.67s-33,2.54-33,5.67h-.1l.09,0h0Zm58.32,0c0,1.16-2.66,2.22-7,3,3.21-.72,5.13-1.62,5.13-2.59,0-2.35-11.08-4.26-24.74-4.26-10.83,0-20,1.2-23.38,2.86,2.6-1.93,12.65-3.36,24.67-3.36C255.76,229.08,267.09,231,267.09,233.43Zm-34.88,1.69,1.43-.36a3.75,3.75,0,0,1,.5-.08q.31,0,.66,0a6.87,6.87,0,0,1,.88,0l1.08.12,1.38.13c.51.05,1.13.08,1.83.1l.67-1.36q-1.32-.06-2.61-.15c-.87-.06-1.66-.13-2.36-.23a9.27,9.27,0,0,1-1.69-.37c-.43-.15-.64-.33-.64-.55,0,0,0,0,0,0a.43.43,0,0,1,0-.05c0-.16.19-.32.58-.48a7.82,7.82,0,0,1,1.67-.42c.73-.13,1.63-.23,2.7-.31s2.3-.12,3.68-.12l.21-.41c0-.06.15-.1.38-.15a5.32,5.32,0,0,1,.89-.06h1.72l0,.1h0l-.28.54c1.32,0,2.45.1,3.41.2s1.81.19,2.53.31l-.23.06.23,0-1.13.29a3.29,3.29,0,0,1-.53.1,5.72,5.72,0,0,1-.64,0l-.67,0-.89-.07-1.11-.09-1.34-.08-.61,1.25,2.64.16c.89.06,1.69.13,2.41.22a11.07,11.07,0,0,1,1.72.34q.66.21.66.51s0,0,0,.05,0,0,0,0c0,.2-.19.39-.58.56a7.69,7.69,0,0,1-1.71.47c-.75.13-1.67.24-2.77.33s-2.35.13-3.76.15l-.22.48c0,.05-.16.1-.38.14a5.4,5.4,0,0,1-.89.06h-1.72l.05-.1h-.05l.29-.6c-1.45,0-2.82-.1-4.1-.2s-2.39-.23-3.29-.39l.23-.06Z"/><path class="cls-43" d="M215.76,240.76v-3.84l-.3-.07-.25-.06-.65-.15-.22-.06-.74-.2h-.07l-.76-.23-.1,0-.58-.19-.19-.07-.44-.17-.19-.08-.39-.16-.16-.08-.39-.19-.1-.06-.42-.25,0,0a1.92,1.92,0,0,1-.31-.23.34.34,0,0,1-.09-.08,1.66,1.66,0,0,1-.19-.18l-.08-.09-.13-.18-.06-.09a.77.77,0,0,1-.08-.19s0-.05,0-.08a.84.84,0,0,1,0-.27h0v10.82c0,1.32,2.61,2.53,7,3.49v-7Zm-3.92,3.62a1,1,0,0,1-2.05,0v-6.5a1,1,0,0,1,2.05,0Zm3.67,1.11a1,1,0,0,1-1,1h0a1,1,0,0,1-1-1V239a1,1,0,0,1,1-1h0a1,1,0,0,1,1,1Z"/><path class="cls-45" d="M226.41,240a1,1,0,0,0-1,1v6.5a1,1,0,0,0,2.05,0V241A1,1,0,0,0,226.41,240Z"/><path class="cls-45" d="M230.31,240.23a1,1,0,0,0-1,1v6.49a1,1,0,1,0,2.05,0v-6.49A1,1,0,0,0,230.31,240.23Z"/><path class="cls-45" d="M234.21,240.64a1,1,0,0,0-1,1v6.5a1,1,0,0,0,2.05,0v-6.5A1,1,0,0,0,234.21,240.64Z"/><path class="cls-45" d="M238.11,240.64a1,1,0,0,0-1,1v6.5a1,1,0,0,0,2,0v-6.5A1,1,0,0,0,238.11,240.64Z"/><path class="cls-45" d="M242,240.87a1,1,0,0,0-1,1v6.49a1,1,0,1,0,2,0V241.9A1,1,0,0,0,242,240.87Z"/><path class="cls-46" d="M269.32,237.93a1,1,0,0,0-1,1v6.5a1,1,0,0,0,2,0V239A1,1,0,0,0,269.32,237.93Z"/><path class="cls-46" d="M265.42,238.56a1,1,0,0,0-1,1v6.5a1,1,0,0,0,2.05,0v-6.5A1,1,0,0,0,265.42,238.56Z"/><path class="cls-46" d="M261.52,239.28a1,1,0,0,0-1,1v6.49a1,1,0,1,0,2.05,0v-6.49A1,1,0,0,0,261.52,239.28Z"/><path class="cls-46" d="M257.62,239.79a1,1,0,0,0-1,1v6.5a1,1,0,0,0,2.05,0v-6.5A1,1,0,0,0,257.62,239.79Z"/><path class="cls-45" d="M253.72,240.23a1,1,0,0,0-1,1v6.49a1,1,0,1,0,2.05,0v-6.49A1,1,0,0,0,253.72,240.23Z"/><path class="cls-45" d="M249.82,240.64a1,1,0,0,0-1,1v6.5a1,1,0,0,0,2.05,0v-6.5A1,1,0,0,0,249.82,240.64Z"/><path class="cls-45" d="M245.91,240.64a1,1,0,0,0-1,1v6.5a1,1,0,0,0,2.05,0v-6.5A1,1,0,0,0,245.91,240.64Z"/><path class="cls-46" d="M273,236.86a1,1,0,0,0-1,1v6.5a1,1,0,0,0,2.05,0v-6.5A1,1,0,0,0,273,236.86Z"/><path class="cls-45" d="M222.51,239.4h0a1,1,0,0,0-1,1v6.5a1,1,0,0,0,1,1h0a1,1,0,0,0,1-1v-6.5A1,1,0,0,0,222.51,239.4Z"/><path class="cls-45" d="M218.61,238.84a1,1,0,0,0-1,1v6.49a1,1,0,1,0,2,0v-6.49A1,1,0,0,0,218.61,238.84Z"/><path class="cls-45" d="M214.49,238h0a1,1,0,0,0-1,1v6.49a1,1,0,0,0,1,1h0a1,1,0,0,0,1-1V239A1,1,0,0,0,214.49,238Z"/><path class="cls-45" d="M210.81,236.86a1,1,0,0,0-1,1v6.5a1,1,0,0,0,2.05,0v-6.5A1,1,0,0,0,210.81,236.86Z"/><path class="cls-40" d="M223.46,221.48c3.35-1.66,12.55-2.86,23.38-2.86,13.66,0,24.74,1.91,24.74,4.26,0,1-1.92,1.87-5.14,2.59,4.34-.78,7-1.84,7-3,0-2.41-11.34-4.36-25.32-4.36C236.11,218.11,226.05,219.55,223.46,221.48Z"/><path class="cls-41" d="M244.33,221.48a4.48,4.48,0,0,0,.69.16c.3.05.65.09,1,.13l1.32.11.54-1.11c-.67,0-1.25,0-1.73.08s-.89.08-1.21.13a3.13,3.13,0,0,0-.68.17c-.13,0-.19.11-.21.17A.48.48,0,0,0,244.33,221.48Z"/><path class="cls-41" d="M253.26,223.44a.4.4,0,0,0-.25-.18,4.54,4.54,0,0,0-.71-.16c-.31,0-.67-.09-1.09-.12l-1.36-.1-.6,1.22a21.22,21.22,0,0,0,3-.23C252.86,223.76,253.2,223.61,253.26,223.44Z"/><path class="cls-42" d="M254.65,220.31c.87.09,1.63.18,2.3.28l.23-.06c-.72-.12-1.56-.22-2.53-.31s-2.1-.16-3.41-.2l-.05.1C252.52,220.15,253.68,220.22,254.65,220.31Z"/><path class="cls-42" d="M246,224.85l-.3.6h0l.3-.59Z"/><path class="cls-42" d="M252.9,222.28c.89.06,1.69.14,2.4.23a10.14,10.14,0,0,1,1.73.34c.4.12.62.28.65.46,0,0,0,0,0-.05,0-.21-.22-.37-.66-.51a10.14,10.14,0,0,0-1.73-.34c-.71-.09-1.51-.16-2.4-.22l-2.65-.16,0,.1Z"/><path class="cls-42" d="M244.33,221.57a4.33,4.33,0,0,0,.69.17c.3,0,.65.09,1,.13l1.32.1.59-1.2h0l-.54,1.11-1.32-.11c-.4,0-.75-.08-1-.13a4.48,4.48,0,0,1-.69-.16.48.48,0,0,1-.23-.16s0,0,0,0S244.17,221.51,244.33,221.57Z"/><path class="cls-42" d="M240.26,220.94a9.49,9.49,0,0,1,1.67-.42q1.09-.18,2.7-.3t3.69-.12l.21-.42c0-.05.15-.1.37-.14a5.4,5.4,0,0,1,.89-.06h1.67l0-.1h-1.72a5.4,5.4,0,0,0-.89.06c-.22.05-.35.09-.37.15l-.21.41q-2.08,0-3.69.12c-1.07.08-2,.18-2.7.31a8,8,0,0,0-1.67.42q-.57.24-.57.48a.43.43,0,0,0,0,0C239.73,221.23,239.91,221.09,240.26,220.94Z"/><path class="cls-42" d="M253.27,223.48s0,0,0,0c-.06.17-.4.32-1,.43a21.22,21.22,0,0,1-3,.23l0,.1a21.76,21.76,0,0,0,3-.23C252.92,223.84,253.27,223.68,253.27,223.48Z"/><path class="cls-42" d="M240.49,223.81c.21,0,.42,0,.65,0s.57,0,.89.05l1.08.12,1.37.14c.52,0,1.13.08,1.84.1l.72-1.46h0l-.67,1.36c-.71,0-1.32-.05-1.84-.1l-1.37-.13-1.08-.12a7,7,0,0,0-.89-.05c-.23,0-.44,0-.65,0a2.48,2.48,0,0,0-.5.08l-1.44.36.24,0,1.2-.31A3.49,3.49,0,0,1,240.49,223.81Z"/><path class="cls-40" d="M241.85,224.65c1.28.1,2.64.17,4.1.2H246l-.3.59,0,.1h1.72a5.32,5.32,0,0,0,.89-.06c.23-.05.36-.09.38-.14l.23-.48c1.41,0,2.66-.07,3.76-.15s2-.2,2.76-.33a7.69,7.69,0,0,0,1.71-.47c.39-.17.59-.36.59-.57,0,0,0,0,0,0,0-.18-.25-.34-.65-.46a10.14,10.14,0,0,0-1.73-.34c-.71-.09-1.51-.17-2.4-.23l-2.69-.15,0-.1.62-1.25,1.34.08,1.1.09.89.07.67,0a5.92,5.92,0,0,0,.65,0,3.18,3.18,0,0,0,.52-.1l1.14-.29-.23,0c-.67-.1-1.43-.19-2.3-.28s-2.13-.16-3.46-.19l.05-.1.27-.54h-1.72a5.4,5.4,0,0,0-.89.06c-.22,0-.35.09-.37.14l-.21.42q-2.08,0-3.69.12t-2.7.3a9.49,9.49,0,0,0-1.67.42c-.35.15-.53.29-.56.44s0,0,0,.05c0,.22.21.4.64.55a9.27,9.27,0,0,0,1.69.37c.7.1,1.49.17,2.36.23s1.73.11,2.61.15h0l-.72,1.46c-.71,0-1.32-.06-1.84-.1l-1.37-.14-1.08-.12c-.32,0-.61-.05-.89-.05s-.44,0-.65,0a3.49,3.49,0,0,0-.5.08l-1.2.31-.24.06Q239.92,224.49,241.85,224.65Zm7.4-.55.6-1.22,1.36.1c.42,0,.78.07,1.09.12a4.54,4.54,0,0,1,.71.16.4.4,0,0,1,.25.18s0,0,0,0c0,.2-.35.36-1,.49a21.76,21.76,0,0,1-3,.23Zm-5.15-2.78c0-.06.08-.12.21-.17A3.13,3.13,0,0,1,245,221c.32,0,.72-.1,1.21-.13s1.06-.06,1.73-.08h0l-.59,1.2-1.32-.1c-.4,0-.75-.08-1-.13a4.33,4.33,0,0,1-.69-.17c-.16-.06-.24-.13-.24-.22S244.1,221.33,244.1,221.32Z"/><path class="cls-40" d="M274.14,229.8V226l-.26,0-.68.14-.48.1-.81.15-.41.07-1.25.21-.45.06-.91.13-.56.08-.88.11-.58.07-1,.12-.51.05-1.53.16-.29,0-1.32.12h-.18v10.83a93.35,93.35,0,0,0,12.09-1.66v-7ZM265,236.35a1,1,0,1,1-2.05,0v-6.49a1,1,0,1,1,2.05,0Zm3.9-.51a1,1,0,1,1-2.05,0v-6.5a1,1,0,0,1,2.05,0Zm3.9-.72a1,1,0,1,1-2.05,0v-6.49a1,1,0,1,1,2.05,0Z"/><path class="cls-43" d="M234.19,228.15v-.54H234l-1.32-.12-.29,0-1.52-.16-.52-.05-1-.12-.58-.07-.88-.11-.56-.07-.91-.14-.45-.06-1.24-.21-.41-.07-.82-.15-.48-.1-.67-.14-.27,0v10.82a93.35,93.35,0,0,0,12.09,1.66V228.15ZM226,235.4a1,1,0,1,1-2,0v-6.49a1,1,0,1,1,2,0Zm3.9.56a1,1,0,0,1-1,1h0a1,1,0,0,1-1-1v-6.5a1,1,0,0,1,1-1h0a1,1,0,0,1,1,1Zm3.9.56a1,1,0,0,1-2.05,0V230a1,1,0,0,1,2.05,0Z"/><path class="cls-43" d="M262.05,228.15v-.54l-.37,0-1.25.09-.63,0-1.39.09-.37,0H258l-2,.1-.65,0c-.61,0-1.22.05-1.84.06l-.38,0-2.05,0H245.2l-2,0-.38,0q-.93,0-1.83-.06l-.65,0-2-.1h-.08l-.37,0-1.39-.09-.63,0-1.25-.09-.37,0v10.83c4.23.33,8.95.52,13.93.52s9.7-.19,13.93-.52V228.15Zm-24.37,8.64a1,1,0,1,1-2.05,0V230.3a1,1,0,1,1,2.05,0Zm3.9.41a1,1,0,0,1-2.05,0v-6.5a1,1,0,0,1,2.05,0Zm3.9,0a1,1,0,1,1-2,0v-6.5a1,1,0,0,1,2,0Zm3.91.23a1,1,0,1,1-2,0v-6.49a1,1,0,1,1,2,0Zm3.9-.23a1,1,0,0,1-2,0v-6.5a1,1,0,0,1,2,0Zm3.9,0a1,1,0,0,1-2.05,0v-6.5a1,1,0,0,1,2.05,0Zm3.9-.41a1,1,0,1,1-2,0V230.3a1,1,0,1,1,2,0Z"/><path class="cls-40" d="M281.13,222.47h0a.84.84,0,0,1,0,.27l0,.08a1.54,1.54,0,0,1-.08.19l-.06.09-.13.18-.08.09-.19.18-.09.08a2.49,2.49,0,0,1-.31.23l0,0c-.13.08-.27.17-.43.25l-.1.06c-.12.06-.24.13-.38.19l-.16.08-.39.16-.19.08-.44.17-.19.07-.58.19-.1,0-.77.23h-.06l-.74.2-.22.06-.65.15-.26.06-.29.07v10.82c4.38-1,7-2.17,7-3.49V222.47Zm-4.44,12a1,1,0,0,1-2.05,0V228a1,1,0,0,1,2.05,0Zm3.67-1.07a1,1,0,0,1-2.05,0v-6.5a1,1,0,0,1,2.05,0Z"/><path class="cls-44" d="M215.11,222.47h0a1.26,1.26,0,0,0,0,.27l0,.08a1.54,1.54,0,0,0,.08.19l.06.09.13.18.08.09.19.18.09.08a3.55,3.55,0,0,0,.31.23l0,0,.43.25.1.06.38.19.17.08.38.16.19.08.45.17.18.07.58.19.1,0,.77.22.07,0,.73.2.22.06.65.15.26.06.56.12.67.14.48.1.82.15.41.07,1.24.21.45.06.91.14.56.07.88.11.58.07,1,.12.52.05,1.52.16.29,0,1.32.12.55,0,1.25.09.63,0,1.39.09.45,0,2,.1.65,0q.9,0,1.83.06l.38,0,2,0H251l2.05,0,.38,0c.62,0,1.23,0,1.84-.06l.65,0,2-.1.45,0,1.39-.09.63,0,1.25-.09.55,0,1.32-.12.29,0,1.53-.16.51-.05,1-.12.58-.07.88-.11.56-.08.91-.13.45-.06,1.25-.21.41-.07.81-.15.48-.1.68-.14.55-.12.26-.06.65-.15.22-.06.74-.2h.06l.77-.23.1,0,.58-.19.19-.07.44-.17.19-.08.39-.16.16-.08c.14-.06.26-.13.38-.19l.1-.06c.16-.08.3-.17.43-.25l0,0a2.49,2.49,0,0,0,.31-.23l.09-.08.19-.18.08-.09.13-.18L281,223a1.54,1.54,0,0,0,.08-.19l0-.08a.84.84,0,0,0,0-.27h0l.1,0h-.1c0-3.13-14.79-5.67-33-5.67s-33,2.54-33,5.67H215l.1,0h0Zm58.33,0c0,1.16-2.66,2.22-7,3,3.22-.72,5.14-1.62,5.14-2.59,0-2.35-11.08-4.26-24.74-4.26-10.83,0-20,1.2-23.38,2.86,2.59-1.93,12.65-3.37,24.66-3.37C262.1,218.11,273.44,220.06,273.44,222.47Zm-34.89,1.69,1.44-.36a2.48,2.48,0,0,1,.5-.08c.21,0,.42,0,.65,0a7,7,0,0,1,.89.05l1.08.12,1.37.13c.52,0,1.13.08,1.84.1l.67-1.36q-1.32-.06-2.61-.15c-.87-.06-1.66-.13-2.36-.23a9.27,9.27,0,0,1-1.69-.37c-.43-.15-.64-.33-.64-.55,0,0,0,0,0-.05a.43.43,0,0,1,0,0q0-.24.57-.48a8,8,0,0,1,1.67-.42c.73-.13,1.63-.23,2.7-.31s2.3-.12,3.69-.12l.21-.41c0-.06.15-.1.37-.15a5.4,5.4,0,0,1,.89-.06h1.72l0,.1h0l-.27.54c1.31,0,2.45.1,3.41.2s1.81.19,2.53.31l-.23.06.23,0-1.14.29a3.18,3.18,0,0,1-.52.1,5.92,5.92,0,0,1-.65,0l-.67,0-.89-.07-1.1-.09-1.34-.08-.62,1.25,2.65.16c.89.06,1.69.13,2.4.22a10.14,10.14,0,0,1,1.73.34c.44.14.66.3.66.51,0,0,0,0,0,.05s0,0,0,0c0,.21-.2.4-.59.57a7.69,7.69,0,0,1-1.71.47c-.74.13-1.67.24-2.76.33s-2.35.13-3.76.15l-.23.48c0,.05-.15.09-.38.14a5.32,5.32,0,0,1-.89.06h-1.72l0-.1h0l.3-.6c-1.46,0-2.82-.1-4.1-.2s-2.39-.24-3.3-.39l.24-.06Z"/><path class="cls-43" d="M222.1,229.8V226l-.29-.07-.26-.06-.65-.15-.22-.06-.73-.2-.07,0-.77-.22-.1,0-.58-.19-.18-.07-.45-.17-.19-.08-.38-.16-.17-.08-.38-.19-.1-.06-.43-.25,0,0a3.55,3.55,0,0,1-.31-.23l-.09-.08-.19-.18-.08-.09-.13-.18-.06-.09a1.54,1.54,0,0,1-.08-.19l0-.08a1.26,1.26,0,0,1,0-.27h0v10.82c0,1.32,2.61,2.53,7,3.49v-7Zm-3.92,3.62a1,1,0,0,1-2.05,0v-6.5a1,1,0,0,1,2.05,0Zm3.68,1.11a1,1,0,0,1-1,1h0a1,1,0,0,1-1-1V228a1,1,0,0,1,1-1h0a1,1,0,0,1,1,1Z"/><path class="cls-45" d="M232.76,229a1,1,0,0,0-1,1v6.5a1,1,0,0,0,2.05,0V230A1,1,0,0,0,232.76,229Z"/><path class="cls-45" d="M236.66,229.27a1,1,0,0,0-1,1v6.49a1,1,0,1,0,2.05,0V230.3A1,1,0,0,0,236.66,229.27Z"/><path class="cls-45" d="M240.56,229.68a1,1,0,0,0-1,1v6.5a1,1,0,0,0,2.05,0v-6.5A1,1,0,0,0,240.56,229.68Z"/><path class="cls-45" d="M244.46,229.68a1,1,0,0,0-1,1v6.5a1,1,0,1,0,2,0v-6.5A1,1,0,0,0,244.46,229.68Z"/><path class="cls-45" d="M248.36,229.91a1,1,0,0,0-1,1v6.49a1,1,0,1,0,2,0v-6.49A1,1,0,0,0,248.36,229.91Z"/><path class="cls-46" d="M275.66,227a1,1,0,0,0-1,1v6.5a1,1,0,0,0,2.05,0V228A1,1,0,0,0,275.66,227Z"/><path class="cls-46" d="M271.76,227.6a1,1,0,0,0-1,1v6.49a1,1,0,1,0,2.05,0v-6.49A1,1,0,0,0,271.76,227.6Z"/><path class="cls-46" d="M267.86,228.32a1,1,0,0,0-1,1v6.5a1,1,0,1,0,2.05,0v-6.5A1,1,0,0,0,267.86,228.32Z"/><path class="cls-46" d="M264,228.83a1,1,0,0,0-1,1v6.49a1,1,0,1,0,2.05,0v-6.49A1,1,0,0,0,264,228.83Z"/><path class="cls-45" d="M260.06,229.27a1,1,0,0,0-1,1v6.49a1,1,0,1,0,2,0V230.3A1,1,0,0,0,260.06,229.27Z"/><path class="cls-45" d="M256.16,229.68a1,1,0,0,0-1,1v6.5a1,1,0,0,0,2.05,0v-6.5A1,1,0,0,0,256.16,229.68Z"/><path class="cls-45" d="M252.26,229.68a1,1,0,0,0-1,1v6.5a1,1,0,0,0,2,0v-6.5A1,1,0,0,0,252.26,229.68Z"/><path class="cls-46" d="M279.33,225.9a1,1,0,0,0-1,1v6.5a1,1,0,0,0,2.05,0v-6.5A1,1,0,0,0,279.33,225.9Z"/><path class="cls-45" d="M228.86,228.44h0a1,1,0,0,0-1,1V236a1,1,0,0,0,1,1h0a1,1,0,0,0,1-1v-6.5A1,1,0,0,0,228.86,228.44Z"/><path class="cls-45" d="M225,227.88a1,1,0,0,0-1,1v6.49a1,1,0,1,0,2,0v-6.49A1,1,0,0,0,225,227.88Z"/><path class="cls-45" d="M220.83,227h0a1,1,0,0,0-1,1v6.49a1,1,0,0,0,1,1h0a1,1,0,0,0,1-1V228A1,1,0,0,0,220.83,227Z"/><path class="cls-45" d="M217.16,225.9a1,1,0,0,0-1,1v6.5a1,1,0,0,0,2.05,0v-6.5A1,1,0,0,0,217.16,225.9Z"/><path class="cls-44" d="M298.78,219a33.35,33.35,0,1,0,33.35,33.35A33.35,33.35,0,0,0,298.78,219ZM272.49,254.8a25.22,25.22,0,0,1,1.37-8.19A25.58,25.58,0,1,1,317.29,270a25,25,0,0,1-44.8-15.23Z"/><path class="cls-40" d="M297.48,229.8A25,25,0,0,1,317.29,270a25.58,25.58,0,1,0-43.43-23.42A25,25,0,0,1,297.48,229.8Z"/><path class="cls-47" d="M317.29,270a25.57,25.57,0,0,1-44.09-17.64,26.19,26.19,0,0,1,.66-5.78,25,25,0,0,0,23.62,33.18A24.93,24.93,0,0,0,317.29,270Z"/><path class="cls-40" d="M317.29,270a25.57,25.57,0,0,1-44.09-17.64,26.19,26.19,0,0,1,.66-5.78,25,25,0,0,0,23.62,33.18A24.93,24.93,0,0,0,317.29,270Z"/><path class="cls-45" d="M295.65,247.55a4.71,4.71,0,0,0,1.06.76,9.57,9.57,0,0,0,1.33.61l.55-6.5a6.66,6.66,0,0,0-1.75.45,4,4,0,0,0-1.22.77,2.72,2.72,0,0,0-.69,1,2.18,2.18,0,0,0,0,1.91A3.2,3.2,0,0,0,295.65,247.55Z"/><path class="cls-41" d="M295.63,247.57a5.43,5.43,0,0,0,1.06.76,9.67,9.67,0,0,0,1.34.59l.52-6.49a6.66,6.66,0,0,0-1.75.45,4,4,0,0,0-1.22.78,3,3,0,0,0-.69,1,3.16,3.16,0,0,0-.2.91,3.12,3.12,0,0,0,.24,1A3.33,3.33,0,0,0,295.63,247.57Z"/><path class="cls-45" d="M298.78,278A25.48,25.48,0,0,0,317.29,270a25,25,0,1,0-43.43-23.42,26.19,26.19,0,0,0-.66,5.78A25.58,25.58,0,0,0,298.78,278Zm-9.67-15.6,1.45-2.15a1.44,1.44,0,0,1,.51-.47,1.31,1.31,0,0,1,.66-.18,1.64,1.64,0,0,1,.89.29c.32.2.69.43,1.09.7a14.53,14.53,0,0,0,1.4.8A6.29,6.29,0,0,0,297,262l.68-8c-.89-.26-1.77-.55-2.64-.89a9.24,9.24,0,0,1-2.39-1.37,6.41,6.41,0,0,1-1.7-2.16,7.13,7.13,0,0,1-.65-3.25c0-.09,0-.18,0-.26s0-.2,0-.31a7.22,7.22,0,0,1,.58-2.84,7.44,7.44,0,0,1,1.69-2.48,8.88,8.88,0,0,1,2.73-1.8,9.08,9.08,0,0,1,3.72-.71l.21-2.43a1.36,1.36,0,0,1,.38-.83,1.16,1.16,0,0,1,.9-.37h1.74l0,.57h0l-.28,3.19a10.61,10.61,0,0,1,3.45,1.14,12.38,12.38,0,0,1,2.55,1.85l-.23.36.23.21-1.14,1.73a2.36,2.36,0,0,1-.54.58,1.11,1.11,0,0,1-.65.19,1.64,1.64,0,0,1-.67-.18c-.27-.12-.56-.27-.9-.44s-.71-.35-1.12-.53a8.56,8.56,0,0,0-1.35-.44l-.62,7.36c.9.27,1.79.58,2.67.91a9.7,9.7,0,0,1,2.42,1.31,6.21,6.21,0,0,1,1.75,2,6.12,6.12,0,0,1,.67,3c0,.1,0,.2,0,.3s0,.17,0,.27a9.41,9.41,0,0,1-.59,3.33,8.32,8.32,0,0,1-1.73,2.75,8.73,8.73,0,0,1-2.8,1.93,11,11,0,0,1-3.79.9l-.23,2.81a1.4,1.4,0,0,1-.39.81,1.14,1.14,0,0,1-.89.37h-1.74l0-.57h0l.3-3.52a14.34,14.34,0,0,1-4.15-1.22,11.8,11.8,0,0,1-3.33-2.27l.24-.35Z"/><path class="cls-44" d="M298.78,278A25.48,25.48,0,0,0,317.29,270a25,25,0,1,0-43.43-23.42,26.19,26.19,0,0,0-.66,5.78A25.58,25.58,0,0,0,298.78,278Zm-9.67-15.6,1.45-2.15a1.44,1.44,0,0,1,.51-.47,1.31,1.31,0,0,1,.66-.18,1.64,1.64,0,0,1,.89.29c.32.2.69.43,1.09.7a14.53,14.53,0,0,0,1.4.8A6.29,6.29,0,0,0,297,262l.68-8c-.89-.26-1.77-.55-2.64-.89a9.24,9.24,0,0,1-2.39-1.37,6.41,6.41,0,0,1-1.7-2.16,7.13,7.13,0,0,1-.65-3.25c0-.09,0-.18,0-.26s0-.2,0-.31a7.22,7.22,0,0,1,.58-2.84,7.44,7.44,0,0,1,1.69-2.48,8.88,8.88,0,0,1,2.73-1.8,9.08,9.08,0,0,1,3.72-.71l.21-2.43a1.36,1.36,0,0,1,.38-.83,1.16,1.16,0,0,1,.9-.37h1.74l0,.57h0l-.28,3.19a10.61,10.61,0,0,1,3.45,1.14,12.38,12.38,0,0,1,2.55,1.85l-.23.36.23.21-1.14,1.73a2.36,2.36,0,0,1-.54.58,1.11,1.11,0,0,1-.65.19,1.64,1.64,0,0,1-.67-.18c-.27-.12-.56-.27-.9-.44s-.71-.35-1.12-.53a8.56,8.56,0,0,0-1.35-.44l-.62,7.36c.9.27,1.79.58,2.67.91a9.7,9.7,0,0,1,2.42,1.31,6.21,6.21,0,0,1,1.75,2,6.12,6.12,0,0,1,.67,3c0,.1,0,.2,0,.3s0,.17,0,.27a9.41,9.41,0,0,1-.59,3.33,8.32,8.32,0,0,1-1.73,2.75,8.73,8.73,0,0,1-2.8,1.93,11,11,0,0,1-3.79.9l-.23,2.81a1.4,1.4,0,0,1-.39.81,1.14,1.14,0,0,1-.89.37h-1.74l0-.57h0l.3-3.52a14.34,14.34,0,0,1-4.15-1.22,11.8,11.8,0,0,1-3.33-2.27l.24-.35Z"/><path class="cls-45" d="M304,258.09a2.94,2.94,0,0,0-.25-1,3,3,0,0,0-.72-1,4.89,4.89,0,0,0-1.1-.73,13.47,13.47,0,0,0-1.37-.55l-.6,7.17a4.92,4.92,0,0,0,3-1.35A3.93,3.93,0,0,0,304,258.09Z"/><path class="cls-41" d="M304,258.07a2.74,2.74,0,0,0-.26-1,3,3,0,0,0-.72-1,4.94,4.94,0,0,0-1.11-.72,12.6,12.6,0,0,0-1.37-.55L300,262a4.93,4.93,0,0,0,3-1.37A3.92,3.92,0,0,0,304,258.07Z"/><path class="cls-46" d="M292.53,241a9,9,0,0,1,6.45-2.51l.21-2.43a1.36,1.36,0,0,1,.38-.82,1.16,1.16,0,0,1,.9-.37h1.69l0-.57h-1.74a1.16,1.16,0,0,0-.9.37,1.36,1.36,0,0,0-.38.83l-.21,2.43a9.08,9.08,0,0,0-3.72.71,8.88,8.88,0,0,0-2.73,1.8,7.44,7.44,0,0,0-1.69,2.48,7.22,7.22,0,0,0-.58,2.84c0,.11,0,.2,0,.31a7.41,7.41,0,0,1,.57-2.59A7.65,7.65,0,0,1,292.53,241Z"/><path class="cls-46" d="M305.38,239.73a13.52,13.52,0,0,1,2.32,1.64l.23-.36a12.38,12.38,0,0,0-2.55-1.85,10.61,10.61,0,0,0-3.45-1.14l-.05.56A10.68,10.68,0,0,1,305.38,239.73Z"/><path class="cls-46" d="M304,258.34a2,2,0,0,0,0-.25,3.93,3.93,0,0,1-1,2.56,4.92,4.92,0,0,1-3,1.35l-.05.58a5,5,0,0,0,3.06-1.36A4,4,0,0,0,304,258.34Z"/><path class="cls-46" d="M303.61,251.33a9.67,9.67,0,0,1,2.42,1.3,6.36,6.36,0,0,1,1.75,2,6,6,0,0,1,.66,2.72c0-.1,0-.2,0-.3a6.12,6.12,0,0,0-.67-3,6.21,6.21,0,0,0-1.75-2,9.7,9.7,0,0,0-2.42-1.31c-.88-.33-1.77-.64-2.67-.91l-.05.55C301.81,250.68,302.71,251,303.61,251.33Z"/><path class="cls-46" d="M291.07,260.32a1.32,1.32,0,0,1,.66-.19,1.66,1.66,0,0,1,.89.3c.32.2.69.43,1.09.7s.87.53,1.4.8a6.59,6.59,0,0,0,1.85.59l.72-8.55h0l-.68,8a6.29,6.29,0,0,1-1.85-.59,14.53,14.53,0,0,1-1.4-.8c-.4-.27-.77-.5-1.09-.7a1.64,1.64,0,0,0-.89-.29,1.31,1.31,0,0,0-.66.18,1.44,1.44,0,0,0-.51.47l-1.45,2.15.24.22,1.21-1.81A1.51,1.51,0,0,1,291.07,260.32Z"/><path class="cls-48" d="M296.59,266.43l-.3,3.52h0l.29-3.51Z"/><path class="cls-46" d="M295.65,248.12a5,5,0,0,0,1.06.76,9.55,9.55,0,0,0,1.33.6l.6-7.06h-.05l-.55,6.5a9.57,9.57,0,0,1-1.33-.61,4.71,4.71,0,0,1-1.06-.76,3.2,3.2,0,0,1-.7-1,2.88,2.88,0,0,1-.23-1,2.81,2.81,0,0,0,0,.29,3.21,3.21,0,0,0,.24,1.28A3.33,3.33,0,0,0,295.65,248.12Z"/><path class="cls-39" d="M292.44,265.21a14.34,14.34,0,0,0,4.15,1.22h0l-.29,3.51,0,.57H298a1.14,1.14,0,0,0,.89-.37,1.4,1.4,0,0,0,.39-.81l.23-2.81a11,11,0,0,0,3.79-.9,8.73,8.73,0,0,0,2.8-1.93,8.32,8.32,0,0,0,1.73-2.75,9.41,9.41,0,0,0,.59-3.33c0-.1,0-.18,0-.27a6,6,0,0,0-.66-2.72,6.36,6.36,0,0,0-1.75-2,9.67,9.67,0,0,0-2.42-1.3c-.9-.34-1.8-.65-2.72-.93l.05-.55.62-7.36a8.56,8.56,0,0,1,1.35.44c.41.18.78.36,1.12.53s.63.32.9.44a1.64,1.64,0,0,0,.67.18,1.11,1.11,0,0,0,.65-.19,2.36,2.36,0,0,0,.54-.58l1.14-1.73-.23-.21a13.52,13.52,0,0,0-2.32-1.64,10.68,10.68,0,0,0-3.5-1.15l.05-.56.28-3.19h-1.74a1.16,1.16,0,0,0-.9.37,1.36,1.36,0,0,0-.38.82l-.21,2.43a9,9,0,0,0-6.45,2.51,7.65,7.65,0,0,0-1.69,2.48,7.41,7.41,0,0,0-.57,2.59c0,.08,0,.17,0,.26a7.13,7.13,0,0,0,.65,3.25,6.41,6.41,0,0,0,1.7,2.16,9.24,9.24,0,0,0,2.39,1.37c.87.34,1.75.63,2.64.89h0l-.72,8.55a6.59,6.59,0,0,1-1.85-.59c-.53-.27-1-.54-1.4-.8s-.77-.5-1.09-.7a1.66,1.66,0,0,0-.89-.3,1.32,1.32,0,0,0-.66.19,1.51,1.51,0,0,0-.51.46l-1.21,1.81-.24.35A11.8,11.8,0,0,0,292.44,265.21Zm7.49-3.21.6-7.17a13.47,13.47,0,0,1,1.37.55,4.89,4.89,0,0,1,1.1.73,3,3,0,0,1,.72,1,2.94,2.94,0,0,1,.25,1,2,2,0,0,1,0,.25,4,4,0,0,1-1,2.88,5,5,0,0,1-3.06,1.36Zm-5.21-16.43a2.87,2.87,0,0,1,.21-.91,2.72,2.72,0,0,1,.69-1,4,4,0,0,1,1.22-.77,6.66,6.66,0,0,1,1.75-.45h.05l-.6,7.06a9.55,9.55,0,0,1-1.33-.6,5,5,0,0,1-1.06-.76,3.33,3.33,0,0,1-.7-1,3.21,3.21,0,0,1-.24-1.28A2.81,2.81,0,0,1,294.72,245.57Z"/><rect class="cls-38" x="65.17" y="267.56" width="74.11" height="18.29"/><rect class="cls-37" x="65.17" y="269.57" width="74.11" height="0.48"/><rect class="cls-37" x="65.17" y="272.38" width="74.11" height="0.48"/><rect class="cls-37" x="65.17" y="275.18" width="74.11" height="0.48"/><rect class="cls-37" x="65.17" y="277.99" width="74.11" height="0.48"/><rect class="cls-37" x="65.17" y="280.8" width="74.11" height="0.48"/><rect class="cls-37" x="65.17" y="283.61" width="74.11" height="0.48"/><rect class="cls-49" x="87.79" y="267.56" width="18.29" height="18.29"/><rect class="cls-39" x="90.51" y="267.56" width="0.96" height="18.29"/><rect class="cls-39" x="102.22" y="267.56" width="0.96" height="18.29"/><rect class="cls-38" x="72.87" y="249.28" width="74.11" height="18.29" transform="translate(219.85 516.84) rotate(180)"/><rect class="cls-37" x="72.87" y="251.28" width="74.11" height="0.48"/><rect class="cls-37" x="72.87" y="254.09" width="74.11" height="0.48"/><rect class="cls-37" x="72.87" y="256.9" width="74.11" height="0.48"/><rect class="cls-37" x="72.87" y="259.7" width="74.11" height="0.48"/><rect class="cls-37" x="72.87" y="262.51" width="74.11" height="0.48"/><rect class="cls-37" x="72.87" y="265.32" width="74.11" height="0.48"/><rect class="cls-49" x="106.07" y="249.28" width="18.29" height="18.29" transform="translate(230.43 516.84) rotate(180)"/><rect class="cls-39" x="120.67" y="249.28" width="0.96" height="18.29"/><rect class="cls-39" x="108.96" y="249.28" width="0.96" height="18.29"/><rect class="cls-38" x="62.28" y="230.99" width="74.11" height="18.29"/><rect class="cls-37" x="62.28" y="233" width="74.11" height="0.48"/><rect class="cls-37" x="62.28" y="235.8" width="74.11" height="0.48"/><rect class="cls-37" x="62.28" y="238.61" width="74.11" height="0.48"/><rect class="cls-37" x="62.28" y="241.42" width="74.11" height="0.48"/><rect class="cls-37" x="62.28" y="244.22" width="74.11" height="0.48"/><rect class="cls-37" x="62.28" y="247.03" width="74.11" height="0.48"/><rect class="cls-49" x="84.9" y="230.99" width="18.29" height="18.29"/><rect class="cls-39" x="87.63" y="230.99" width="0.96" height="18.29"/><rect class="cls-39" x="99.34" y="230.99" width="0.96" height="18.29"/><path class="cls-50" d="M241.93,129.15a7.72,7.72,0,0,1,1-4.9c1.43-2.36,2-.92,1.55.25s-.37,2,0,1.93.65-.64.81-.6.64,0,.48.61-1.31,1.91-1.24,2.26S242.36,131.2,241.93,129.15Z"/><path class="cls-50" d="M260.53,129.15a7.72,7.72,0,0,0-1-4.9c-1.43-2.36-2-.92-1.55.25s.37,2,0,1.93-.66-.64-.81-.6-.64,0-.48.61,1.31,1.91,1.24,2.26S260.1,131.2,260.53,129.15Z"/><path class="cls-51" d="M252.06,154.16l.85-5.95h3.82a13.81,13.81,0,0,0,.43,5.52C258,155.86,252.06,154.16,252.06,154.16Z"/><polygon class="cls-38" points="246.67 184.49 245.7 220.38 248.67 220.38 255.03 188.97 260.98 219.95 263.95 219.95 263.1 184.49 246.67 184.49"/><path class="cls-50" d="M251.21,143.55a7.18,7.18,0,0,0-.84,3.82,2.72,2.72,0,0,0,2.54,2.54l.85-2.54Z"/><path class="cls-38" d="M254.19,150.76s-2.13-.42-2.55-1.7-.85-2.54-.43-3.39-.84-2.12-.84-3v0a2.12,2.12,0,0,1,3-1.93,4.13,4.13,0,0,0,.86.26c2.12.42,3,.42,3.82,1.27a2.63,2.63,0,0,1,.85,1.7s.42.42.42,2.12a8,8,0,0,1-1.7,4.25C257.16,150.76,254.19,150.76,254.19,150.76Z"/><path class="cls-52" d="M245.7,219.67l-1.77,1.43a1,1,0,0,0,.19,1.67l2,1h2.45a.79.79,0,0,0,.78-.93l-.56-3.17Z"/><path class="cls-52" d="M264.21,219.67,266,221.1a1,1,0,0,1-.18,1.67l-2,1h-2.45a.78.78,0,0,1-.78-.93l.13-3.17Z"/><polygon class="cls-53" points="252.94 199.29 254.19 186 255.03 188.97 252.94 199.29"/><path class="cls-49" d="M268.36,143.55l-7.57-15.87L258.22,130l5.62,14.44-5.44,8.3a3.22,3.22,0,0,0-.82-.23c-3.36-.45-5.68.06-7.29,1l.08-.18-8.49-8.49,2.54-15.28-3-1.7-4.17,17.08a3.79,3.79,0,0,0,.94,3.52l8.63,11.77a12.57,12.57,0,0,0,.12,2.44s-.42,16.55-2.12,21.65c0,0,14.43,1.69,19.52,0l-1.27-22.5s-.09-.63-.31-1.55l5.36-13.06A3.77,3.77,0,0,0,268.36,143.55Z"/><polygon class="cls-51" points="71.48 188.22 72.32 194.97 76.96 193.71 75.28 186.62 71.48 188.22"/><path class="cls-38" d="M70.64,221.13l-10.26,2.3a7.5,7.5,0,0,0-5.78,8.23l2.54,20.26H62.2l.21-21.3h24v-9.7Z"/><path class="cls-50" d="M84.8,230.05a39.68,39.68,0,0,0-5.85.78c-1,.42-1,1.69,0,1.69h6.48c.94,0,1.61-1.21,1.31-2.38l0-.16Z"/><path class="cls-44" d="M76.58,192.34l-3.1.93a4,4,0,0,0-2.84,3.83v24l9.26.69,3,8.59h3.8l-1.74-8.21,2.58.19s1.49-16.75-6.73-28.57A3.79,3.79,0,0,0,76.58,192.34Z"/><polygon class="cls-54" points="87.6 217.96 80.76 207.63 85.19 222.22 87.51 222.39 87.6 217.96"/><path class="cls-44" d="M57.14,251.92l-6.22,3.59a1.47,1.47,0,0,0,.73,2.74H61.78v-6.33Z"/><path class="cls-50" d="M66.82,190.7s.31,1.43,3.94.87c2.56-.39,4.54-1.86,4.94-3.69.81-3.65-1.34-8.9-3.9-8.51s-3.35.22-4.75,2.78c-.88,1.63-1.69,2.89-2.16,3.6a.84.84,0,0,0,.1,1.08l.86.79S66,190.53,66.82,190.7Z"/><path class="cls-38" d="M67,182.36a6.57,6.57,0,0,1-3-5s2.92,1.74,3.94.87,4.07-3.48,7.78-1.56,2.23,4.86,2.23,4.86a4,4,0,0,1,.88,3.48A7.09,7.09,0,0,1,75,190s1.59-5.33-.19-6.92-1.92,2.76-1.92,2.76S72.42,180.27,67,182.36Z"/></svg>