<svg id="Layer_1" data-name="Layer 1" xmlns="http://www.w3.org/2000/svg" xmlns:xlink="http://www.w3.org/1999/xlink" viewBox="0 0 729.54 371.93"><defs><style>.cls-1,.cls-10,.cls-12,.cls-15,.cls-18,.cls-2,.cls-25,.cls-26,.cls-27,.cls-28,.cls-29,.cls-3,.cls-30,.cls-31,.cls-32,.cls-33,.cls-34,.cls-35,.cls-38,.cls-39,.cls-4,.cls-40,.cls-41,.cls-42,.cls-43,.cls-44,.cls-45,.cls-46,.cls-47,.cls-48,.cls-5,.cls-50,.cls-6,.cls-7,.cls-8,.cls-9{fill-rule:evenodd;}.cls-1{opacity:0.5;fill:url(#Gradiente_sem_nome_69);}.cls-2{fill:url(#linear-gradient);}.cls-3,.cls-5,.cls-7{opacity:0.53;}.cls-14,.cls-3,.cls-34,.cls-36,.cls-41,.cls-43,.cls-5,.cls-7{isolation:isolate;}.cls-3{fill:url(#linear-gradient-2);}.cls-4{fill:url(#linear-gradient-3);}.cls-5{fill:url(#linear-gradient-4);}.cls-6{fill:url(#linear-gradient-5);}.cls-7{fill:url(#linear-gradient-6);}.cls-8{fill:url(#linear-gradient-7);}.cls-9{fill:url(#linear-gradient-8);}.cls-10{fill:url(#linear-gradient-9);}.cls-11,.cls-23,.cls-37{fill:none;}.cls-11{stroke:#8f9efa;stroke-width:4px;}.cls-11,.cls-37{stroke-linecap:round;}.cls-12{fill:url(#linear-gradient-10);}.cls-13{fill:url(#linear-gradient-11);}.cls-14{opacity:0.53;fill:url(#linear-gradient-12);}.cls-15{fill:#ffb91f;}.cls-16,.cls-48{fill:#455a94;}.cls-17{fill:#a1a7ff;}.cls-18,.cls-20{fill:#fff;}.cls-19{fill:url(#linear-gradient-13);}.cls-21{fill:url(#linear-gradient-14);}.cls-22{fill:url(#linear-gradient-15);}.cls-23{stroke:#292930;}.cls-24,.cls-26{fill:#12348e;}.cls-25{fill:url(#linear-gradient-16);}.cls-27{fill:url(#linear-gradient-17);}.cls-28{fill:url(#linear-gradient-18);}.cls-29{fill:#a5a9fc;}.cls-30{fill:url(#linear-gradient-19);}.cls-31{fill:url(#linear-gradient-20);}.cls-32{fill:#fa3e6a;}.cls-33,.cls-34{fill:#ffb69f;}.cls-34{opacity:0.62;}.cls-35{fill:url(#linear-gradient-21);}.cls-36{fill:#7c8ef8;opacity:0.12;}.cls-37{stroke:#0b1f6e;stroke-linejoin:round;stroke-width:2px;}.cls-38{fill:url(#linear-gradient-22);}.cls-39{fill:url(#linear-gradient-23);}.cls-40{fill:url(#linear-gradient-24);}.cls-41{fill:#c9ccdb;opacity:0.24;}.cls-42{fill:url(#linear-gradient-25);}.cls-43{fill:#dfe1eb;opacity:0.51;}.cls-44{fill:url(#linear-gradient-26);}.cls-45{fill:url(#linear-gradient-27);}.cls-46{fill:url(#linear-gradient-28);}.cls-47{fill:url(#linear-gradient-29);}.cls-49{fill:#f7faff;}.cls-50{fill:url(#linear-gradient-30);}</style><linearGradient id="Gradiente_sem_nome_69" x1="23.02" y1="348.45" x2="709.21" y2="348.45" gradientUnits="userSpaceOnUse"><stop offset="0.16" stop-color="#e08197"/><stop offset="1" stop-color="#e08197" stop-opacity="0"/></linearGradient><linearGradient id="linear-gradient" x1="139.14" y1="638.41" x2="139.31" y2="639.08" gradientTransform="matrix(35.48, 0, 0, -55.64, -4498.94, 35897.83)" gradientUnits="userSpaceOnUse"><stop offset="0" stop-color="#dce2ff"/><stop offset="1" stop-color="#7c8ef9"/></linearGradient><linearGradient id="linear-gradient-2" x1="134.84" y1="646.98" x2="135.39" y2="647.39" gradientTransform="matrix(28.47, 0, 0, -22.1, -3406.54, 14644.6)" xlink:href="#linear-gradient"/><linearGradient id="linear-gradient-3" x1="138.72" y1="638.41" x2="138.89" y2="639.08" gradientTransform="matrix(35.48, 0, 0, -55.64, -4458.94, 35897.83)" xlink:href="#linear-gradient"/><linearGradient id="linear-gradient-4" x1="134.14" y1="647.41" x2="134.69" y2="647.8" gradientTransform="matrix(28.21, 0, 0, -21.43, -3325.63, 14223.01)" xlink:href="#linear-gradient"/><linearGradient id="linear-gradient-5" x1="171.35" y1="638.34" x2="171.54" y2="639.01" gradientTransform="translate(6974.27 36301.8) rotate(180) scale(37.68 56.28)" xlink:href="#linear-gradient"/><linearGradient id="linear-gradient-6" x1="175.48" y1="646.82" x2="176.03" y2="647.21" gradientTransform="translate(5705.5 14807.92) rotate(180) scale(29.53 22.36)" xlink:href="#linear-gradient"/><linearGradient id="linear-gradient-7" x1="151.24" y1="636.81" x2="150.63" y2="636.03" gradientTransform="matrix(138, 0, 0, -86, -20365.62, 55055.33)" gradientUnits="userSpaceOnUse"><stop offset="0" stop-color="#c2ceff"/><stop offset="1" stop-color="#95aaff"/></linearGradient><linearGradient id="linear-gradient-8" x1="150.21" y1="636.96" x2="149.81" y2="636.13" gradientTransform="matrix(113, 0, 0, -86, -16461.49, 55055.33)" xlink:href="#linear-gradient-7"/><linearGradient id="linear-gradient-9" x1="149.64" y1="642.45" x2="148.64" y2="642.21" gradientTransform="matrix(101.17, 0, 0, -31, -14625.3, 20216.64)" xlink:href="#linear-gradient-7"/><linearGradient id="linear-gradient-10" x1="149.64" y1="642.92" x2="148.64" y2="642.67" gradientTransform="matrix(101.17, 0, 0, -31, -14625.3, 20255.64)" xlink:href="#linear-gradient-7"/><linearGradient id="linear-gradient-11" x1="138.58" y1="638.98" x2="139.27" y2="638.98" gradientTransform="matrix(36, 0, 0, -46, -4522.55, 29666.28)" gradientUnits="userSpaceOnUse"><stop offset="0" stop-color="#dce2ff"/><stop offset="0.3" stop-color="#c7d0fe"/><stop offset="1" stop-color="#7c8ef9"/></linearGradient><linearGradient id="linear-gradient-12" x1="109.28" y1="638.98" x2="109.98" y2="638.98" gradientTransform="matrix(13, 0, 0, -46, -939.95, 29666.28)" xlink:href="#linear-gradient-11"/><linearGradient id="linear-gradient-13" x1="115.1" y1="649.77" x2="115.5" y2="648.38" gradientTransform="matrix(10, 0, 0, -10, -996.89, 6582.34)" xlink:href="#linear-gradient-7"/><linearGradient id="linear-gradient-14" x1="94.16" y1="653.39" x2="94.56" y2="652" gradientTransform="matrix(10, 0, 0, -10, -429.89, 6680.34)" xlink:href="#linear-gradient-7"/><linearGradient id="linear-gradient-15" x1="128.96" y1="647.96" x2="129.35" y2="646.57" gradientTransform="matrix(15, 0, 0, -15, -1793.72, 9895.22)" xlink:href="#linear-gradient-7"/><linearGradient id="linear-gradient-16" x1="141.98" y1="640.15" x2="141.63" y2="640.95" gradientTransform="matrix(40.1, 0, 0, -43.61, -5304.3, 28285.44)" gradientUnits="userSpaceOnUse"><stop offset="0" stop-color="#ffe1d7"/><stop offset="1" stop-color="#ffa88d"/></linearGradient><linearGradient id="linear-gradient-17" x1="139.07" y1="638.83" x2="138.92" y2="639.62" gradientTransform="matrix(31.93, 0, 0, -52.61, -4086.02, 33977.98)" xlink:href="#linear-gradient-16"/><linearGradient id="linear-gradient-18" x1="150.11" y1="635.51" x2="148.91" y2="635.95" gradientTransform="matrix(92.16, 0, 0, -74.01, -13354, 47205.77)" gradientUnits="userSpaceOnUse"><stop offset="0" stop-color="#ffe1d7"/><stop offset="1" stop-color="#fc9c7d"/></linearGradient><linearGradient id="linear-gradient-19" x1="420.32" y1="129.23" x2="439.93" y2="129.23" gradientTransform="matrix(1, 0, 0, 1, 0, 0)" xlink:href="#linear-gradient-7"/><linearGradient id="linear-gradient-20" x1="85.54" y1="643.74" x2="85.26" y2="644.42" gradientTransform="matrix(8.07, 0, 0, -16.91, -253.73, 11022.47)" xlink:href="#linear-gradient-18"/><linearGradient id="linear-gradient-21" x1="150.87" y1="636.24" x2="149.67" y2="636.53" gradientTransform="matrix(99.12, 0, 0, -65.14, -14531.27, 41638.35)" xlink:href="#linear-gradient-18"/><linearGradient id="linear-gradient-22" x1="181.22" y1="637.53" x2="181.27" y2="638.2" gradientTransform="translate(3667.55 42069.47) rotate(180) scale(18.6 65.4)" xlink:href="#linear-gradient"/><linearGradient id="linear-gradient-23" x1="178.55" y1="637.53" x2="178.59" y2="638.2" gradientTransform="translate(3401.89 42069.47) rotate(180) scale(18 65.4)" xlink:href="#linear-gradient"/><linearGradient id="linear-gradient-24" x1="156.24" y1="645.56" x2="157.93" y2="645.6" gradientTransform="translate(34596.27 15816.01) rotate(180) scale(218.4 24)" xlink:href="#linear-gradient-7"/><linearGradient id="linear-gradient-25" x1="178.85" y1="637.53" x2="178.9" y2="638.2" gradientTransform="translate(3548.15 42069.46) rotate(180) scale(18.6 65.4)" xlink:href="#linear-gradient"/><linearGradient id="linear-gradient-26" x1="158.53" y1="645.45" x2="160.21" y2="645.66" gradientTransform="translate(15904.43 15816.01) rotate(180) scale(98.4 24)" xlink:href="#linear-gradient-7"/><linearGradient id="linear-gradient-27" x1="180.11" y1="637.53" x2="180.16" y2="638.2" gradientTransform="translate(3611.75 42069.47) rotate(180) scale(18.6 65.4)" xlink:href="#linear-gradient"/><linearGradient id="linear-gradient-28" x1="157.43" y1="635.33" x2="157.98" y2="635.61" gradientTransform="translate(27586.23 71205.68) rotate(180) scale(173.4 111.6)" xlink:href="#linear-gradient"/><linearGradient id="linear-gradient-29" x1="160.17" y1="637.46" x2="159.25" y2="636.58" gradientTransform="translate(15059.72 42483.93) rotate(180) scale(92.7 66.2)" xlink:href="#linear-gradient"/><linearGradient id="linear-gradient-30" x1="163.77" y1="636.61" x2="163.62" y2="634.6" gradientTransform="translate(8139.82 71205.68) rotate(180) scale(48.68 111.6)" xlink:href="#linear-gradient-7"/></defs><title>Hyper-Personalization</title><g id="Group-24"><g id="Group-19"><polygon id="Rectangle-Copy-12" class="cls-1" points="23.02 326.06 709.21 326.06 709.21 370.84 23.02 370.84 23.02 326.06"/><g id="Group-29-Copy"><g id="Group-21"><path id="Path-73" class="cls-2" d="M438.2,335.65l-7.56,32.78a1.89,1.89,0,0,0,3.5,1.33L453,335.65H438.2Z"/><polygon id="Path-73-Copy-3" class="cls-3" points="438.2 335.65 435.02 349.59 446.12 348.07 452.97 335.65 438.2 335.65"/><path id="Path-73-Copy-2" class="cls-4" d="M463.43,335.65l-7.56,32.78a1.89,1.89,0,0,0,3.5,1.33l18.83-34.11H463.43Z"/><polygon id="Path-73-Copy-4" class="cls-5" points="463.43 335.65 460.41 348.73 470.74 349.17 478.2 335.65 463.43 335.65"/><path id="Path-73-Copy" class="cls-6" d="M517,335.65l8.3,33.14a1.89,1.89,0,0,1-3.47,1.42l-20.24-34.56H517Z"/><polygon id="Path-73-Copy-5" class="cls-7" points="516.95 335.65 520.17 348.51 509.8 349.75 501.54 335.65 516.95 335.65"/><g id="Group-6"><polygon id="Rectangle" class="cls-8" points="430.27 287.72 517.31 287.72 517.31 341.96 430.27 341.96 430.27 287.72"/><polygon id="Rectangle-Copy-5" class="cls-9" points="452.35 287.72 523.61 287.72 523.61 341.96 452.35 341.96 452.35 287.72"/><g id="Group-20"><polygon id="Rectangle-Copy-6" class="cls-10" points="456.13 292.76 519.94 292.76 519.94 312.31 456.13 312.31 456.13 292.76"/><path id="Path-75" class="cls-11" d="M480.73,297.49h15.09"/></g><g id="Group-20-Copy"><polygon class="cls-12" points="456.13 317.36 519.94 317.36 519.94 336.91 456.13 336.91 456.13 317.36"/><path class="cls-11" d="M480.73,322.09h15.09"/></g></g></g><g id="Group-23"><g id="Group-22"><rect class="cls-13" x="466.22" y="258.71" width="22.7" height="29.01"/><rect id="Rectangle-Copy-9" class="cls-14" x="480.73" y="258.71" width="8.2" height="29.01"/></g><path id="Path-76" class="cls-15" d="M476.8,258.71q-7.28-6.9-13.2-3.52t-4.27,16.39l13.1-12.87Z"/><path id="Path-77" class="cls-15" d="M474.9,258.71q3.54-17.79,23.17-17.79-11.35,9.66-11.35,17.79Z"/></g></g><g id="Group-19-Copy-2"><g id="Group-17"><g id="Group-13"><rect class="cls-16" x="107.85" y="59.28" width="81.99" height="81.99"/><rect id="Rectangle-Copy-3" class="cls-17" x="116.68" y="68.11" width="64.96" height="64.96"/></g><g id="Group-16"><g id="Group-14"><polygon id="Path-74" class="cls-18" points="125.73 114.48 159.57 114.48 141.91 91.45 125.73 114.48"/><polygon id="Path-74-Copy" class="cls-18" points="150.5 114.48 175.47 114.48 163.19 98.39 150.5 114.48"/></g><circle id="Oval" class="cls-19" cx="155.15" cy="88.3" r="3.15"/><circle id="Oval-Copy" class="cls-20" cx="156.64" cy="88.3" r="6.94"/></g></g><g id="Group-17-Copy-2"><rect class="cls-16" x="465.44" y="121.09" width="81.99" height="81.99"/><rect class="cls-17" x="474.27" y="129.92" width="64.96" height="64.96"/><polygon class="cls-18" points="483.33 176.28 518.65 176.28 500.99 153.26 483.33 176.28"/><polygon class="cls-18" points="506.61 176.28 531.58 176.28 519.3 160.19 506.61 176.28"/><circle class="cls-21" cx="512.74" cy="150.1" r="3.15"/><circle class="cls-20" cx="512.74" cy="150.1" r="6.94"/></g><g id="Group-17-Copy"><rect class="cls-16" x="107.85" y="153.89" width="57.39" height="57.39"/><rect class="cls-17" x="116.05" y="162.09" width="40.99" height="40.99"/><g id="Group-18"><path id="Oval-Copy-3" class="cls-18" d="M135.28,179.11a7.89,7.89,0,0,1,7.89,7.89c0,4.35-2,7.88-6.4,7.88a7.88,7.88,0,0,1-7.88-7.88C128.89,182.64,130.93,179.11,135.28,179.11Z"/><path id="Oval-Copy-4" class="cls-18" d="M137.4,172.81c1.22,0,.72,1,.72,2.2a2.21,2.21,0,1,1-4.42,0C133.7,173.8,136.18,172.81,137.4,172.81Z"/><circle id="Oval-Copy-2" class="cls-22" cx="142.22" cy="181.32" r="4.73"/></g></g></g><path id="Path-34-Copy-2" class="cls-23" d="M0,370.84l729.54.59"/><g id="Group-9"><circle class="cls-24" cx="341.89" cy="107.18" r="7.63"/><circle class="cls-24" cx="351.61" cy="98.51" r="15.26"/></g><g id="Group-4"><polygon id="Path-10" class="cls-25" points="373.77 343.64 380.82 370.64 399.07 371.14 390.04 366.06 388.12 343.64 373.77 343.64"/><path id="Path-10-Copy-2" class="cls-26" d="M380.15,367.53l.67,3.44,18.25.18-6.43-3.62a2.41,2.41,0,0,1-2.7,1.66A74.33,74.33,0,0,1,380.15,367.53Z"/></g><g id="Group-8"><g id="Group-3"><polygon id="Path-10-Copy" class="cls-27" points="344.75 338.19 345.58 370.74 364.89 370.74 356.49 366.45 359.97 337.56 344.75 338.19"/><path id="Path-10-Copy-3" class="cls-26" d="M345.42,366.45V371h20.14l-7.64-4a2.43,2.43,0,0,1-2.71,1.66C353.77,368.57,350.5,367.85,345.42,366.45Z"/></g></g><path id="Path-79" class="cls-26" d="M331.72,218.74c.5,14.41,7.08,35.28,8.47,55.81q1.5,22.23,0,71.77h53.65L384.57,198.5l-50.49-2.18Q331.49,212.07,331.72,218.74Z"/><path id="Path-9" class="cls-28" d="M390.88,149.74l5.33,6.74,29.1-21.5,2.53-4.16q2.55-3.67,3-3.75c.32-.06.13,1.19-.56,3.75a8.83,8.83,0,0,0,3.16-.77c.65-.41,1.27-.8,1.84-1.14,1.4-.84-.36,6-4.57,8.81s-29.48,36-36.36,36q-6.87,0-16.72-17.26Z"/><g id="Group-12-Copy"><g id="Group-11"><path class="cls-29" d="M428,117.31h9.66a1.14,1.14,0,0,1,1.13,1.13,1.41,1.41,0,0,1-.05.35l-6.6,20.77a2.26,2.26,0,0,1-2.16,1.59h-9.66a1.14,1.14,0,0,1-1.13-1.14,1.27,1.27,0,0,1,.05-.34l6.6-20.78A2.27,2.27,0,0,1,428,117.31Z"/><path class="cls-30" d="M429.14,117.31h9.65a1.14,1.14,0,0,1,1.14,1.13,1.07,1.07,0,0,1-.06.35l-6.59,20.77a2.27,2.27,0,0,1-2.17,1.59h-9.65a1.14,1.14,0,0,1-1.14-1.14,1,1,0,0,1,.06-.34L427,118.89A2.28,2.28,0,0,1,429.14,117.31Z"/></g><path id="Path-17" class="cls-31" d="M437.08,128.5c-.73-2.13-4.27-5.35-4.85-.33-.32,2.76,1.07,7.51,2,7.92C436.27,136.94,437.81,130.63,437.08,128.5Z"/></g><g id="Group-7"><path id="Path-5" class="cls-32" d="M373.45,119.7q8.58,2.3,11.11,9.61.78,2.24,10.33,22.42a26.76,26.76,0,0,1-15.56,6.83l-9.57-30.8Z"/><g id="Path-4"><path class="cls-32" d="M353.73,119c-11.26,1.37-25.38,4.86-28.85,11.07s-7.37,22.36-8.87,31.1q11.7-.83,18.71-.83c7,0-4.23,27-4.23,44.74q12.19-3.28,30.77-1.13t26.61-3.64q-9.15-19.41-7.37-36.32c1.77-16.9-2.87-19.56-4.49-27.25a112.31,112.31,0,0,1-2.13-17A57.77,57.77,0,0,0,353.73,119Z"/></g></g><path id="Path-2-Copy-5" class="cls-33" d="M358.93,110.89l1.3,7.91q-.84,6.47-4.45,6.46c-2.4,0-4.5-1.85-6.29-5.57V109.15Z"/><path id="Path-2-Copy-4" class="cls-34" d="M358.73,111.34l.9,6a28.92,28.92,0,0,1-5.92-.49,15.51,15.51,0,0,1-4.18-1.82l-.22-4.12Z"/><path id="Path-Copy" class="cls-33" d="M345,100.48q-3.12-.75-3.12,2.13t3.12,3.81q4.11,9.49,11.76,8.5c1.56-.21,4.68-2.42,5.92-6.81q1.05-3.72,1.17-14-5.4,5.49-10,6.19A61,61,0,0,1,345,100.48Z"/><path id="Path-6" class="cls-35" d="M318.68,160.55q-5,18-2.49,22.19c2.49,4.2,46.1,16.87,50.93,17.63s10.28,1.37,10.73,0q.45-1.38-8.29-5.48,3.46-.93,3.09-1.26c-.38-.32-2.68-.7-5.53,0q-2.85.72-36.77-19.89l2.75-13.64Z"/><g id="Group-20-Copy-3"><circle class="cls-36" cx="356.01" cy="34.36" r="24.27"/><circle class="cls-17" cx="355.76" cy="24.02" r="24.02"/><path id="Path-45-Copy-2" class="cls-32" d="M355.19,33.91q12.18-7.39,9.55-14.34a6.23,6.23,0,0,0-2.87-2.91,4.75,4.75,0,0,0-4.62.4,12.85,12.85,0,0,0-2.06,1.9c-1.49-1.69-2.92-2.53-4.31-2.53A5,5,0,0,0,346.1,19Q342.1,25.32,355.19,33.91Z"/></g><circle class="cls-24" cx="273.84" cy="66.35" r="37.97"/><g id="Group-13-Copy-2"><g id="Group-10"><path id="Path-46" class="cls-20" d="M285.35,48.43H262.58A1.59,1.59,0,0,0,261,50V82.34a1.59,1.59,0,0,0,1.59,1.59h7a1.6,1.6,0,0,0,1.58-1.39L273.28,66a.63.63,0,0,1,1.26,0l1.73,16.48a1.59,1.59,0,0,0,1.58,1.43h7.5a1.59,1.59,0,0,0,1.59-1.59V50A1.59,1.59,0,0,0,285.35,48.43Z"/><g id="Group-12"><path id="Path-47" class="cls-20" d="M275.18,50.52l2.15,5.24"/><path id="Path-47-Copy" class="cls-20" d="M272.56,50.52l-2.22,5.24"/></g></g></g><g id="Group-5"><circle class="cls-24" cx="451.69" cy="65.72" r="37.97"/><g id="Group-15"><path id="Path-48" class="cls-20" d="M447.51,49.82v.69a3.55,3.55,0,0,0,7.09,0v-.69H464a1.61,1.61,0,0,1,1.17.52l7,7.66a1.6,1.6,0,0,1-.1,2.25h0l-3.78,3.4a1.6,1.6,0,0,1-2.25-.12h0L464.65,62a1.4,1.4,0,0,0-2-.12,1.38,1.38,0,0,0-.47,1V79.74a1.59,1.59,0,0,1-1.59,1.59H441.56A1.59,1.59,0,0,1,440,79.74v-17a1.22,1.22,0,0,0-2.18-.75l-1.07,1.36a1.59,1.59,0,0,1-2.23.27l-.14-.12-3.29-3.3a1.59,1.59,0,0,1-.14-2.1l5.95-7.63a1.58,1.58,0,0,1,1.25-.62Z"/></g></g><g id="Group-2"><circle class="cls-24" cx="236" cy="167.26" r="37.97"/><g id="Group"><polygon id="Path-51" class="cls-20" points="254.1 176.69 254.1 181.57 214.08 181.57 214.08 176.69 254.1 176.69"/><circle class="cls-20" cx="246.34" cy="164.79" r="2.98"/><path id="Path-51-Copy" class="cls-20" d="M254.1,153.13v28.44h-40v-3.46a9.84,9.84,0,0,1,6.45-9.25l9.48-3.49a9.84,9.84,0,0,0,6.45-9.25v-3H254.1Z"/><path id="Path-52" class="cls-37" d="M222.91,167.91v8.78"/><path id="Path-56" class="cls-20" d="M239.74,156.08a12.09,12.09,0,0,1-9.09,12.72l-7.74,1.94h0"/></g></g></g><g id="Group-59-Copy-3"><polygon id="Path-58-Copy-2" class="cls-38" points="302.19 329.22 294.08 370.46 290.46 370.46 290.46 329.22 302.19 329.22"/><polygon id="Path-58-Copy" class="cls-39" points="193.21 329.22 185.09 370.46 181.86 370.46 181.86 329.22 193.21 329.22"/><path class="cls-40" d="M306.35,329.59a15.12,15.12,0,0,0-15.13-15.13H168.61a15.13,15.13,0,0,0,15.14,15.13Z"/><polygon id="Path-58-Copy-5" class="cls-41" points="193.21 329.59 191.65 337.4 181.86 337.54 181.86 329.59 193.21 329.59"/><g id="Group-62"><polygon id="Path-58" class="cls-42" points="226.89 329.22 218.77 370.46 215.16 370.46 215.16 329.22 226.89 329.22"/><polygon id="Path-58-Copy-7" class="cls-43" points="226.89 329.59 225.21 337.92 215.16 337.7 215.16 329.59 226.89 329.59"/></g><path id="Path-55-Copy" class="cls-44" d="M215.54,314.46H168.61a15.13,15.13,0,0,0,15.14,15.13h46.92A15.13,15.13,0,0,0,215.54,314.46Z"/><polygon id="Path-58-Copy-3" class="cls-45" points="267 329.22 258.88 370.46 255.27 370.46 255.27 329.22 267 329.22"/><path class="cls-46" d="M258.26,254.31l19.33,60.15H186.12l-17.89-70.39h76A14.76,14.76,0,0,1,258.26,254.31Z"/><g id="Group-60"><path id="Path-56-Copy-2" class="cls-47" d="M241.49,276.49l12.42,38.09H204.82L195.64,280a5.67,5.67,0,0,1,4-6.94,5.89,5.89,0,0,1,1.45-.19h35.33A5.31,5.31,0,0,1,241.49,276.49Z"/><path id="Path-56-Copy" class="cls-48" d="M249.05,276.49l12.43,38.09H212.39L202.2,276.16a2.64,2.64,0,0,1,1.88-3.24,2.59,2.59,0,0,1,.68-.09H244A5.3,5.3,0,0,1,249.05,276.49Z"/><ellipse class="cls-49" cx="231.21" cy="293.83" rx="2.27" ry="2.46" transform="translate(-86.55 96.8) rotate(-20)"/></g><polygon id="Path-58-Copy-4" class="cls-41" points="267 329.22 265.21 338.3 255.27 338.15 255.27 329.22 267 329.22"/><path class="cls-50" d="M168.67,244.07l17.73,70.39H168.67L156,260a13,13,0,0,1,9.71-15.57,13.17,13.17,0,0,1,2.93-.34Z"/><polygon id="Path-58-Copy-6" class="cls-43" points="302.19 329.22 300.38 338.49 290.84 338.68 290.84 329.22 302.19 329.22"/></g></g></svg>