<svg id="Layer_1" data-name="Layer 1" xmlns="http://www.w3.org/2000/svg" xmlns:xlink="http://www.w3.org/1999/xlink" viewBox="0 0 902.16 969.59"><defs><style>.cls-1{fill:#6a9dd8;}.cls-2{fill:url(#linear-gradient);}.cls-3{fill:url(#linear-gradient-2);}.cls-4{fill:#e32e6a;}.cls-5{fill:url(#linear-gradient-3);}.cls-6{fill:#e22b69;}.cls-7{fill:url(#linear-gradient-4);}.cls-8{fill:url(#Gradiente_sem_nome_69);}.cls-9{fill:url(#Gradiente_sem_nome_69-2);}.cls-10{fill:url(#Gradiente_sem_nome_69-3);}.cls-11{fill:url(#Gradiente_sem_nome_69-4);}.cls-12{fill:url(#Gradiente_sem_nome_69-5);}.cls-13{fill:url(#Gradiente_sem_nome_69-6);}.cls-14{fill:url(#Gradiente_sem_nome_69-7);}.cls-15{fill:url(#Gradiente_sem_nome_69-8);}.cls-16{fill:url(#Gradiente_sem_nome_69-9);}.cls-17{fill:url(#Gradiente_sem_nome_69-10);}.cls-18{fill:url(#Gradiente_sem_nome_69-11);}.cls-19{fill:url(#Gradiente_sem_nome_69-12);}.cls-20{fill:url(#Gradiente_sem_nome_69-13);}.cls-21{fill:url(#Gradiente_sem_nome_69-14);}.cls-22{fill:url(#Gradiente_sem_nome_69-15);}.cls-23{fill:url(#Gradiente_sem_nome_69-16);}.cls-24{fill:url(#Gradiente_sem_nome_69-17);}.cls-25{fill:url(#Gradiente_sem_nome_69-18);}.cls-26{fill:url(#Gradiente_sem_nome_69-19);}.cls-27{fill:url(#Gradiente_sem_nome_69-20);}.cls-28{fill:url(#Gradiente_sem_nome_69-21);}.cls-29{fill:url(#Gradiente_sem_nome_69-22);}.cls-30{fill:url(#Gradiente_sem_nome_69-23);}.cls-31{fill:url(#Gradiente_sem_nome_69-24);}.cls-32{fill:url(#Gradiente_sem_nome_69-25);}.cls-33{fill:url(#Gradiente_sem_nome_69-26);}.cls-34{fill:url(#Gradiente_sem_nome_69-27);}.cls-35{fill:url(#Gradiente_sem_nome_69-28);}.cls-36{clip-path:url(#clip-path);}.cls-37,.cls-68{fill:#fff;}.cls-38{fill:url(#Gradiente_sem_nome_69-29);}.cls-39{clip-path:url(#clip-path-2);}.cls-40{fill:url(#linear-gradient-6);}.cls-41{clip-path:url(#clip-path-3);}.cls-42{fill:url(#Gradiente_sem_nome_69-30);}.cls-43{clip-path:url(#clip-path-4);}.cls-44{fill:url(#linear-gradient-8);}.cls-45{fill:#3655b5;}.cls-46{fill:url(#Gradiente_sem_nome_69-31);}.cls-47{fill:#3951b6;}.cls-48{fill:url(#linear-gradient-9);}.cls-49{fill:url(#linear-gradient-10);}.cls-50{fill:none;stroke:#fff;stroke-miterlimit:10;stroke-width:4px;}.cls-51{fill:url(#linear-gradient-11);}.cls-52{fill:url(#linear-gradient-12);}.cls-53{fill:url(#linear-gradient-13);}.cls-54{fill:#ffb91f;}.cls-55{fill:#0b2d4e;}.cls-56{fill:url(#linear-gradient-14);}.cls-57{fill:url(#linear-gradient-15);}.cls-58{fill:#e5785c;}.cls-59{fill:#f8a17a;}.cls-60{clip-path:url(#clip-path-5);}.cls-61{fill:#231f20;}.cls-61,.cls-65{opacity:0.2;}.cls-62{fill:url(#linear-gradient-16);}.cls-63{fill:url(#linear-gradient-17);}.cls-64{clip-path:url(#clip-path-6);}.cls-65{fill:#000200;}.cls-66{clip-path:url(#clip-path-7);}.cls-67{fill:url(#linear-gradient-19);}.cls-68{opacity:0.1;}.cls-69{fill:#e9f0ff;}.cls-70{fill:url(#linear-gradient-20);}.cls-71{fill:#73b8d4;}</style><linearGradient id="linear-gradient" x1="552.56" y1="622.15" x2="841.63" y2="622.15" gradientUnits="userSpaceOnUse"><stop offset="0" stop-color="#ee497b"/><stop offset="1" stop-color="#de2263"/></linearGradient><linearGradient id="linear-gradient-2" x1="115.03" y1="633.18" x2="346.59" y2="633.18" xlink:href="#linear-gradient"/><linearGradient id="linear-gradient-3" x1="638.33" y1="305.14" x2="747.26" y2="305.14" gradientUnits="userSpaceOnUse"><stop offset="0" stop-color="#c2ceff"/><stop offset="1" stop-color="#95aaff"/></linearGradient><linearGradient id="linear-gradient-4" x1="109.59" y1="428.17" x2="775.78" y2="428.17" xlink:href="#linear-gradient-3"/><linearGradient id="Gradiente_sem_nome_69" x1="86.32" y1="737.09" x2="336.01" y2="737.09" gradientUnits="userSpaceOnUse"><stop offset="0.16" stop-color="#e08197"/><stop offset="1" stop-color="#e08197" stop-opacity="0"/></linearGradient><linearGradient id="Gradiente_sem_nome_69-2" x1="34.08" y1="642.55" x2="90.63" y2="642.55" xlink:href="#Gradiente_sem_nome_69"/><linearGradient id="Gradiente_sem_nome_69-3" x1="65.93" y1="672.8" x2="111.02" y2="672.8" xlink:href="#Gradiente_sem_nome_69"/><linearGradient id="Gradiente_sem_nome_69-4" x1="87.77" y1="643.34" x2="111.02" y2="643.34" xlink:href="#Gradiente_sem_nome_69"/><linearGradient id="Gradiente_sem_nome_69-5" x1="93.02" y1="686.74" x2="138.7" y2="686.74" xlink:href="#Gradiente_sem_nome_69"/><linearGradient id="Gradiente_sem_nome_69-6" x1="117.51" y1="657.86" x2="138.7" y2="657.86" xlink:href="#Gradiente_sem_nome_69"/><linearGradient id="Gradiente_sem_nome_69-7" x1="118.92" y1="706.88" x2="171.65" y2="706.88" xlink:href="#Gradiente_sem_nome_69"/><linearGradient id="Gradiente_sem_nome_69-8" x1="147.92" y1="673.83" x2="171.65" y2="673.83" xlink:href="#Gradiente_sem_nome_69"/><linearGradient id="Gradiente_sem_nome_69-9" x1="151.42" y1="726.18" x2="204.54" y2="726.18" xlink:href="#Gradiente_sem_nome_69"/><linearGradient id="Gradiente_sem_nome_69-10" x1="182.68" y1="694.05" x2="204.54" y2="694.05" xlink:href="#Gradiente_sem_nome_69"/><linearGradient id="Gradiente_sem_nome_69-11" x1="181.45" y1="750.72" x2="242.97" y2="750.72" xlink:href="#Gradiente_sem_nome_69"/><linearGradient id="Gradiente_sem_nome_69-12" x1="220.49" y1="715.64" x2="242.97" y2="715.64" xlink:href="#Gradiente_sem_nome_69"/><linearGradient id="Gradiente_sem_nome_69-13" x1="217.33" y1="773.71" x2="279.18" y2="773.71" xlink:href="#Gradiente_sem_nome_69"/><linearGradient id="Gradiente_sem_nome_69-14" x1="260.69" y1="741.66" x2="279.18" y2="741.66" xlink:href="#Gradiente_sem_nome_69"/><linearGradient id="Gradiente_sem_nome_69-15" x1="516.7" y1="709.12" x2="770.81" y2="709.12" xlink:href="#Gradiente_sem_nome_69"/><linearGradient id="Gradiente_sem_nome_69-16" x1="766.82" y1="644.15" x2="821.75" y2="644.15" xlink:href="#Gradiente_sem_nome_69"/><linearGradient id="Gradiente_sem_nome_69-17" x1="746.71" y1="668.26" x2="786.33" y2="668.26" xlink:href="#Gradiente_sem_nome_69"/><linearGradient id="Gradiente_sem_nome_69-18" x1="746.71" y1="639.61" x2="773.81" y2="639.61" xlink:href="#Gradiente_sem_nome_69"/><linearGradient id="Gradiente_sem_nome_69-19" x1="719.04" y1="676.88" x2="759.54" y2="676.88" xlink:href="#Gradiente_sem_nome_69"/><linearGradient id="Gradiente_sem_nome_69-20" x1="719.04" y1="648.58" x2="744.36" y2="648.58" xlink:href="#Gradiente_sem_nome_69"/><linearGradient id="Gradiente_sem_nome_69-21" x1="685.85" y1="690.82" x2="732.72" y2="690.82" xlink:href="#Gradiente_sem_nome_69"/><linearGradient id="Gradiente_sem_nome_69-22" x1="685.85" y1="658.38" x2="714.43" y2="658.38" xlink:href="#Gradiente_sem_nome_69"/><linearGradient id="Gradiente_sem_nome_69-23" x1="652.54" y1="703.87" x2="700.09" y2="703.87" xlink:href="#Gradiente_sem_nome_69"/><linearGradient id="Gradiente_sem_nome_69-24" x1="652.54" y1="671.8" x2="679.49" y2="671.8" xlink:href="#Gradiente_sem_nome_69"/><linearGradient id="Gradiente_sem_nome_69-25" x1="613.35" y1="722.03" x2="668.87" y2="722.03" xlink:href="#Gradiente_sem_nome_69"/><linearGradient id="Gradiente_sem_nome_69-26" x1="613.35" y1="685.76" x2="641.98" y2="685.76" xlink:href="#Gradiente_sem_nome_69"/><linearGradient id="Gradiente_sem_nome_69-27" x1="576.09" y1="739.07" x2="632.58" y2="739.07" xlink:href="#Gradiente_sem_nome_69"/><linearGradient id="Gradiente_sem_nome_69-28" x1="576.09" y1="703.82" x2="601.11" y2="703.82" xlink:href="#Gradiente_sem_nome_69"/><clipPath id="clip-path"><path class="cls-1" d="M579.93,700.14c-20,6.47-52.11,17.51-70.84,2.46-6-4.81-9.78-11.8-12.88-18.83a150.56,150.56,0,0,1-12.72-57.27c-.13-6,.16-12.16,2.91-17.45s8.61-9.39,14.48-8.35,10.3,4.68,14.75-1.7c8-11.44,6.46-29,8.79-42.07,1.69-9.53,7.09-28.28,19.28-29,8.31-.51,13.74,11.2,22.29,8.65,3-.91,5.06-3.81,6.23-6.76,7.07-17.9,7.52-47.37,27-57.09,4.14-2.06,9.35-2.57,13.26-.12,4.11,2.57,6,7.75,9.95,10.5,4.74,3.25,11.42,2.18,16.21-1s8.13-8.06,11.43-12.77c8.24-11.71,17.33-23.36,29.72-30.55,20-11.6,50.74-6.46,45.51,22.72-2,11.36-12.19,19.26-21.93,25.47-9,5.73-36.83,22.37-19.52,33.64,3.32,2.16,7.15,3.63,9.94,6.43,5.63,5.66,5.22,15.44.84,22.1s-11.81,10.71-19.31,13.45-15.37,4.45-22.59,7.84c-5.35,2.51-10.94,7.59-9.36,13.27,1.65,5.92,9.51,7.26,13.63,11.82,4.64,5.13,3.45,13.62-.77,19.1s-10.67,8.7-16.9,11.73l-18.53,9c-6.61,3.21-14.2,7.85-14.35,15.21-.09,4.48,2.74,8.43,4.06,12.72,2.61,8.49-1.1,18-7.38,24.26S588.39,697.41,579.93,700.14Z"/></clipPath><linearGradient id="Gradiente_sem_nome_69-29" x1="486.73" y1="630.95" x2="641.35" y2="630.95" xlink:href="#Gradiente_sem_nome_69"/><clipPath id="clip-path-2"><path class="cls-2" d="M695.86,638.09l32.68,3.45c48.13-43.48,88.54-93.68,113.09-111.46-6.88.5-84.94,8.53-133.7,20.17l-6.34,23L698,552.8c-5.11,1.41-9.74,2.86-13.71,4.35-56.89,21.35-125,63.66-131.54,130.51-2.72,28.07,28.14,28.05,48.12,25.52,40.56-5.14,80.5-30.91,116.62-61.88Z"/></clipPath><linearGradient id="linear-gradient-6" x1="606.37" y1="608.95" x2="624.76" y2="608.95" xlink:href="#linear-gradient"/><clipPath id="clip-path-3"><path class="cls-1" d="M282.28,572.48l-31.14-15.1c-18.84-65.68-27-133.06-39.09-162.63,5.87,4.27,71.21,54.91,108.34,92.46l-7.14,24.11L327.87,495c3.79,4.1,7.12,8,9.84,11.52,39,50.77,76.39,126.54,45,189.94-13.19,26.62-40.79,9.43-57.24-4-33.42-27.18-54.79-72.45-69.85-120.26Z"/></clipPath><linearGradient id="Gradiente_sem_nome_69-30" x1="235.3" y1="607.94" x2="343.36" y2="607.94" xlink:href="#Gradiente_sem_nome_69"/><clipPath id="clip-path-4"><path class="cls-3" d="M252.66,757.58c19.18,6.48,50,17.52,68.25,3.25,5.83-4.56,9.58-11.25,12.66-18a145.28,145.28,0,0,0,13-55.05c.2-5.74,0-11.73-2.59-16.86s-8.18-9.16-13.85-8.22-10,4.38-14.2-1.83c-7.54-11.12-5.86-28-7.95-40.66-1.51-9.21-6.48-27.35-18.22-28.22-8-.6-13.38,10.63-21.59,8.06-2.92-.91-4.84-3.74-5.92-6.6-6.6-17.34-6.66-45.75-25.31-55.36-4-2-9-2.6-12.79-.28-4,2.43-5.83,7.4-9.71,10-4.61,3.08-11,2-15.62-1.17s-7.73-7.87-10.86-12.44c-7.79-11.4-16.41-22.74-28.26-29.83-19.1-11.42-48.83-6.85-44.15,21.34,1.82,11,11.51,18.72,20.82,24.82,8.6,5.64,35.22,22,18.4,32.67-3.23,2-6.94,3.41-9.67,6.08-5.49,5.38-5.23,14.82-1.08,21.29s11.25,10.47,18.44,13.2,14.77,4.49,21.69,7.85c5.11,2.49,10.45,7.45,8.85,12.91-1.66,5.68-9.26,6.88-13.28,11.22-4.54,4.89-3.5,13.08.49,18.42s10.18,8.52,16.15,11.51l17.75,8.91c6.34,3.18,13.59,7.75,13.64,14.84,0,4.32-2.75,8.1-4.07,12.21-2.62,8.16.84,17.35,6.81,23.49S244.54,754.84,252.66,757.58Z"/></clipPath><linearGradient id="linear-gradient-8" x1="106.04" y1="640.36" x2="338.94" y2="640.36" xlink:href="#linear-gradient"/><linearGradient id="Gradiente_sem_nome_69-31" x1="19.21" y1="744.67" x2="902.16" y2="744.67" xlink:href="#Gradiente_sem_nome_69"/><linearGradient id="linear-gradient-9" x1="82.6" y1="360.54" x2="147.45" y2="360.54" xlink:href="#linear-gradient-3"/><linearGradient id="linear-gradient-10" x1="442.68" y1="70.69" x2="518.24" y2="70.69" xlink:href="#linear-gradient-3"/><linearGradient id="linear-gradient-11" x1="156.35" y1="145.54" x2="186.95" y2="145.54" xlink:href="#linear-gradient-3"/><linearGradient id="linear-gradient-12" x1="786.33" y1="233.24" x2="873.61" y2="233.24" xlink:href="#linear-gradient-3"/><linearGradient id="linear-gradient-13" x1="814.67" y1="272.39" x2="845.28" y2="272.39" xlink:href="#linear-gradient-3"/><linearGradient id="linear-gradient-14" x1="563.01" y1="27.47" x2="808.7" y2="27.47" xlink:href="#linear-gradient-3"/><linearGradient id="linear-gradient-15" x1="42.58" y1="27.47" x2="203.67" y2="27.47" xlink:href="#linear-gradient-3"/><clipPath id="clip-path-5"><path class="cls-4" d="M636.64,328.83s-3.38,2.83-8,11.47-6.17,49.56-13.55,54.47-30.8,3.55-34.47-3.52c-2.28-4.4,2.71-5,8.35-9.56s12.31-31.53,12.82-42.62,1-21.12,1-21.12Z"/></clipPath><linearGradient id="linear-gradient-16" x1="586.41" y1="298.25" x2="602.24" y2="298.25" xlink:href="#linear-gradient-3"/><linearGradient id="linear-gradient-17" x1="636.8" y1="300.56" x2="652.75" y2="300.56" xlink:href="#linear-gradient"/><clipPath id="clip-path-6"><path class="cls-5" d="M747.26,255.06c-13.43,9.69-79.13,23-101.41,22-3.51-.16-6.84,10.22-7.43,23.19s1.77,23.6,5.29,23.76c22.27,1,86.47,20.32,99,31.19l3-50.05Z"/></clipPath><clipPath id="clip-path-7"><path class="cls-6" d="M743.86,358.64c-8.05-.37-13.48-24.59-12.13-54.1s9-53.14,17-52.77,13.47,24.59,12.12,54.1S751.9,359,743.86,358.64Z"/></clipPath><linearGradient id="linear-gradient-19" x1="721.13" y1="304.09" x2="746.96" y2="304.09" xlink:href="#linear-gradient-3"/><linearGradient id="linear-gradient-20" x1="410.86" y1="358.61" x2="489.09" y2="358.61" xlink:href="#linear-gradient-3"/></defs><title>Influence and Social Proof</title><circle class="cls-7" cx="442.68" cy="428.17" r="333.1"/><path class="cls-8" d="M334.45,821.17c-41.12-41.06-101.6-82.19-134-103.06-45.9-29.56-91.76-54.89-114.14-63l.76-2.07c22.51,8.19,68.56,33.6,114.57,63.24,32.47,20.92,93.1,62.15,134.36,103.36Z"/><path class="cls-9" d="M63,637.89c-5.12-3.08-10.34-6.21-16.14-7.62-3.51-.86-10.33-1.14-12.22,3C29.08,645.39,64.53,651.4,70.23,652c6.85.73,20.4,3.35,20.4,3.35S72.15,643.39,63,637.89Z"/><path class="cls-10" d="M85.74,666.75c-4.62.51-9.31,1-13.57,2.9-2.57,1.12-6.91,4.17-6.15,7.59,2.28,10.15,27-2.85,30.82-5.16,4.58-2.78,14.18-7.55,14.18-7.55S94,665.85,85.74,666.75Z"/><path class="cls-11" d="M104.43,640c-1.31-4.45-2.64-9-5.22-12.85-1.55-2.34-5.31-6.09-8.54-4.74-9.6,4,7.51,26.1,10.45,29.45,3.53,4,9.9,12.65,9.9,12.65S106.75,648,104.43,640Z"/><path class="cls-12" d="M113.33,680.38c-4.64.25-9.35.52-13.7,2.15-2.63,1-7.14,3.78-6.56,7.24,1.72,10.26,27.12-1.37,31.05-3.47,4.73-2.52,14.58-6.76,14.58-6.76S121.59,679.93,113.33,680.38Z"/><path class="cls-13" d="M133.45,654.71c-1-4.52-2.14-9.12-4.5-13.12-1.43-2.41-5-6.37-8.27-5.19-9.81,3.47,6.07,26.46,8.82,30,3.31,4.21,9.2,13.17,9.2,13.17S135.34,662.76,133.45,654.71Z"/><path class="cls-14" d="M142.45,699.45c-5.34.22-10.78.45-15.81,2.24-3,1.09-8.27,4.24-7.67,8.23,1.8,11.83,31.23-1.12,35.79-3.46,5.49-2.83,16.89-7.54,16.89-7.54S152,699.07,142.45,699.45Z"/><path class="cls-15" d="M166,670.26c-1.14-5.22-2.31-10.53-5-15.17-1.6-2.81-5.61-7.42-9.43-6.12-11.34,3.83,6.53,30.56,9.64,34.64,3.73,4.9,10.36,15.31,10.36,15.31S168.07,679.56,166,670.26Z"/><path class="cls-16" d="M175.34,718.82c-5.34,0-10.78,0-15.89,1.57-3.08,1-8.44,3.89-8,7.89,1.3,11.9,31.25.21,35.9-1.95,5.6-2.59,17.19-6.81,17.19-6.81S184.86,718.84,175.34,718.82Z"/><path class="cls-17" d="M200.14,690.64c-.92-5.26-1.87-10.62-4.32-15.37-1.47-2.87-5.29-7.64-9.16-6.51-11.49,3.36,5.24,30.81,8.17,35,3.53,5.06,9.71,15.74,9.71,15.74S201.78,700,200.14,690.64Z"/><path class="cls-18" d="M209.47,742.84c-6.14-.33-12.38-.66-18.34.86-3.6.91-9.93,3.95-9.67,8.58.78,13.75,35.88,2.1,41.36-.09,6.58-2.64,20.15-6.8,20.15-6.8S220.4,743.43,209.47,742.84Z"/><path class="cls-19" d="M239.64,712c-.74-6.1-1.51-12.31-4-17.91-1.52-3.39-5.62-9.09-10.14-8-13.4,3.17,4.18,35.7,7.3,40.71,3.75,6,10.21,18.66,10.21,18.66S241,722.82,239.64,712Z"/><path class="cls-20" d="M246,766.83c-6.09-.8-12.29-1.61-18.35-.56-3.66.63-10.21,3.18-10.3,7.81-.28,13.77,35.61,4.87,41.24,3.1,6.77-2.12,20.61-5.22,20.61-5.22S256.83,768.26,246,766.83Z"/><path class="cls-21" d="M278.45,738.37c-.27-6.14-.56-12.39-2.65-18.17-1.26-3.49-4.9-9.5-9.49-8.78-13.6,2.12,1.42,35.91,4.14,41.15,3.27,6.29,8.73,19.39,8.73,19.39S278.93,749.31,278.45,738.37Z"/><path class="cls-22" d="M517.9,767.53l-1.2-1.67c44.13-31.57,106-60.22,139-74.49,46.73-20.22,92.84-36.56,114.75-40.67l.37,2c-21.77,4.08-67.7,20.37-114.31,40.54C623.61,707.5,561.87,736.08,517.9,767.53Z"/><path class="cls-23" d="M794.79,640.48c5.16-2.05,10.43-4.13,16-4.55,3.34-.26,9.65.52,10.76,4.57,3.29,12-30.15,12.14-35.47,11.84-6.4-.36-19.23,0-19.23,0S785.6,644.14,794.79,640.48Z"/><path class="cls-24" d="M769.58,663.52c4.16,1.17,8.39,2.36,12,4.72,2.19,1.42,5.71,4.87,4.49,7.89-3.62,9-24.35-6.71-27.49-9.4-3.79-3.25-11.88-9.08-11.88-9.08S762.17,661.44,769.58,663.52Z"/><path class="cls-25" d="M756.48,636.15c1.87-3.89,3.79-7.84,6.74-11,1.78-1.91,5.79-4.78,8.56-3,8.2,5.13-10.85,22.81-14.06,25.44-3.85,3.16-11,10.11-11,10.11S753.15,643.09,756.48,636.15Z"/><path class="cls-26" d="M742.19,671.84c4.21.94,8.5,1.9,12.25,4,2.26,1.3,6,4.56,4.92,7.65-3.13,9.15-24.68-5.37-28-7.9-4-3-12.35-8.41-12.35-8.41S734.68,670.18,742.19,671.84Z"/><path class="cls-27" d="M727.61,645.23c1.66-4,3.36-8,6.13-11.35,1.67-2,5.53-5.09,8.38-3.52,8.47,4.68-9.59,23.37-12.64,26.17-3.68,3.37-10.44,10.7-10.44,10.7S724.66,652.34,727.61,645.23Z"/><path class="cls-28" d="M712.57,684.93c4.87,1,9.82,2.05,14.17,4.46,2.63,1.45,7,5.14,5.79,8.71-3.45,10.59-28.49-5.76-32.32-8.61-4.6-3.42-14.36-9.47-14.36-9.47S703.91,683.14,712.57,684.93Z"/><path class="cls-29" d="M695.35,654.56c1.84-4.62,3.72-9.31,6.85-13.17,1.89-2.33,6.28-5.95,9.59-4.19,9.82,5.24-10.64,27.06-14.11,30.33-4.17,3.94-11.83,12.49-11.83,12.49S692.07,662.79,695.35,654.56Z"/><path class="cls-30" d="M679.45,697.72c4.9.8,9.9,1.62,14.34,3.85,2.68,1.35,7.16,4.85,6.15,8.46-3,10.72-28.71-4.55-32.65-7.24-4.75-3.22-14.75-8.86-14.75-8.86S670.71,696.29,679.45,697.72Z"/><path class="cls-31" d="M661,668.1c1.64-4.69,3.33-9.47,6.29-13.45,1.79-2.41,6-6.21,9.4-4.59,10,4.82-9.48,27.48-12.81,30.9-4,4.11-11.3,13-11.3,13S658,676.45,661,668.1Z"/><path class="cls-32" d="M644.48,714.59c5.68.62,11.47,1.27,16.7,3.57,3.17,1.38,8.52,5.13,7.58,9.34C666,740,635.51,724,630.82,721.14c-5.65-3.42-17.47-9.29-17.47-9.29S634.36,713.47,644.48,714.59Z"/><path class="cls-33" d="M621.47,681.67c1.61-5.49,3.26-11.07,6.43-15.83,1.91-2.87,6.54-7.49,10.52-5.82,11.82,4.93-9.25,32.12-12.87,36.25-4.35,5-12.2,15.58-12.2,15.58S618.62,691.44,621.47,681.67Z"/><path class="cls-34" d="M607.33,731.07c5.72.18,11.53.39,16.93,2.27,3.26,1.13,8.89,4.46,8.27,8.73-1.83,12.68-33.42-.94-38.32-3.41-5.89-3-18.12-7.92-18.12-7.92S597.16,730.74,607.33,731.07Z"/><path class="cls-35" d="M581.85,700c1.18-5.6,2.4-11.29,5.19-16.28,1.68-3,5.94-8,10-6.62,12.16,4-6.75,32.75-10,37.14-3.95,5.28-10.95,16.47-10.95,16.47S579.76,710,581.85,700Z"/><path class="cls-1" d="M579.93,700.14c-20,6.47-52.11,17.51-70.84,2.46-6-4.81-9.78-11.8-12.88-18.83a150.56,150.56,0,0,1-12.72-57.27c-.13-6,.16-12.16,2.91-17.45s8.61-9.39,14.48-8.35,10.3,4.68,14.75-1.7c8-11.44,6.46-29,8.79-42.07,1.69-9.53,7.09-28.28,19.28-29,8.31-.51,13.74,11.2,22.29,8.65,3-.91,5.06-3.81,6.23-6.76,7.07-17.9,7.52-47.37,27-57.09,4.14-2.06,9.35-2.57,13.26-.12,4.11,2.57,6,7.75,9.95,10.5,4.74,3.25,11.42,2.18,16.21-1s8.13-8.06,11.43-12.77c8.24-11.71,17.33-23.36,29.72-30.55,20-11.6,50.74-6.46,45.51,22.72-2,11.36-12.19,19.26-21.93,25.47-9,5.73-36.83,22.37-19.52,33.64,3.32,2.16,7.15,3.63,9.94,6.43,5.63,5.66,5.22,15.44.84,22.1s-11.81,10.71-19.31,13.45-15.37,4.45-22.59,7.84c-5.35,2.51-10.94,7.59-9.36,13.27,1.65,5.92,9.51,7.26,13.63,11.82,4.64,5.13,3.45,13.62-.77,19.1s-10.67,8.7-16.9,11.73l-18.53,9c-6.61,3.21-14.2,7.85-14.35,15.21-.09,4.48,2.74,8.43,4.06,12.72,2.61,8.49-1.1,18-7.38,24.26S588.39,697.41,579.93,700.14Z"/><g class="cls-36"><path class="cls-37" d="M492,740.78l-2.09-1.14c16.77-30.52,34.45-61.07,52.57-90.81,11.64-19.1,24.74-37.14,37.42-54.59,5.26-7.23,10.69-14.72,16-22.23,7.41-10.51,15.08-21.38,23-31.82C653,495.32,694.2,455.58,734,417.15l1.65,1.71c-39.75,38.37-80.86,78-114.87,122.77-7.91,10.41-15.56,21.26-23,31.75-5.31,7.52-10.75,15-16,22.26-12.65,17.41-25.72,35.41-37.31,54.43C526.41,679.77,508.74,710.29,492,740.78Z"/><path class="cls-37" d="M559.32,625.19l-.28-.94c-10.48-35-18.78-105.55-15.6-132.41l2.36.28c-3.13,26.39,5,95.39,15.23,130.5,11.51-1.32,120.08-14.39,150.81-43l1.62,1.74C680.58,612,565.19,624.56,560.3,625.09Z"/><path class="cls-37" d="M604.62,561.59l0-1.42c0-.89-2.52-89.43,8-128.23l2.29.62c-9.71,35.77-8.24,114.54-8,126.11,12-2.57,96.73-21.18,121.25-35l1.17,2.06C702.75,540.73,610,560.46,606,561.29Z"/><path class="cls-38" d="M530.33,678c-2-.29-3.1-.48-3.18-.49l-.43-.07-.28-.34c-25.6-30.48-33.92-65.86-39.71-96.63l2.33-.44c5.71,30.36,13.91,65.24,38.91,95.21,5.88,1,70.31,10.77,112.63-3.26l.75,2.25C602.14,687.26,544.42,680.06,530.33,678Z"/></g><path class="cls-2" d="M695.86,638.09l32.68,3.45c48.13-43.48,88.54-93.68,113.09-111.46-6.88.5-84.94,8.53-133.7,20.17l-6.34,23L698,552.8c-5.11,1.41-9.74,2.86-13.71,4.35-56.89,21.35-125,63.66-131.54,130.51-2.72,28.07,28.14,28.05,48.12,25.52,40.56-5.14,80.5-30.91,116.62-61.88Z"/><g class="cls-39"><path class="cls-37" d="M775.24,569.43a136.11,136.11,0,0,1-16.84-2.17l.43-1.84c14.17,3.3,65.65,4.46,66.17,4.47l0,1.89C823.38,571.75,795.44,571.11,775.24,569.43Z"/><path class="cls-37" d="M545.3,722.21,543.88,721C579.73,680.61,625,642.8,678.34,608.57c45.84-29.4,96.34-50.94,145.17-71.78,7.23-3.08,14.71-6.27,22.06-9.44l.75,1.74c-7.36,3.17-14.84,6.36-22.07,9.44-48.76,20.8-99.19,42.31-144.89,71.62C626.13,644.3,581,682,545.3,722.21Z"/><path class="cls-37" d="M719.48,586.44l-1.83-.47c6.23-24.3,27.07-69.46,27.28-69.92l1.71.8C746.43,517.3,725.66,562.31,719.48,586.44Z"/><path class="cls-37" d="M664.42,618.13c0-.41,3.13-41.72,15.39-83l1.81.53c-12.2,41.1-15.28,82.2-15.31,82.61Z"/><path class="cls-37" d="M780.43,627.7c-27.68-2.31-76.45-15.59-94.7-22l.62-1.78c20.82,7.28,81.54,23.59,104.63,22.12l.12,1.88A74.88,74.88,0,0,1,780.43,627.7Z"/><path class="cls-37" d="M704.16,675.11c-24.13-2-50.15-10-85.08-22.65l.64-1.78c45,16.34,75.14,24.81,105.39,22.74l.13,1.89A138.83,138.83,0,0,1,704.16,675.11Z"/><path class="cls-40" d="M606.37,661.28c.29-4.63.54-9.44.8-14.55,1.44-28.58,3.24-64.14,15.89-90.24l1.7.83c-12.49,25.74-14.28,61.1-15.71,89.51-.26,5.11-.5,9.93-.79,14.57Z"/></g><path class="cls-1" d="M282.28,572.48l-31.14-15.1c-18.84-65.68-27-133.06-39.09-162.63,5.87,4.27,71.21,54.91,108.34,92.46l-7.14,24.11L327.87,495c3.79,4.1,7.12,8,9.84,11.52,39,50.77,76.39,126.54,45,189.94-13.19,26.62-40.79,9.43-57.24-4-33.42-27.18-54.79-72.45-69.85-120.26Z"/><g class="cls-41"><path class="cls-37" d="M265.78,474.32c-14.7-5-60.11-31.86-62-33l1-1.7c.47.28,47.16,27.89,61.67,32.83Z"/><path class="cls-37" d="M370.12,731.53c-9.57-55.86-28.93-114.68-57.52-174.84C288,505,254.92,457.72,222.88,412c-4.75-6.78-9.66-13.79-14.47-20.72l1.62-1.13c4.82,6.93,9.72,13.94,14.47,20.72,32.08,45.81,65.26,93.19,89.88,145,28.68,60.32,48.09,119.32,57.69,175.35Z"/><path class="cls-37" d="M291.81,513.75l-1.89-.6c7.9-25,14.38-76.84,14.44-77.36l2,.24C306.26,436.55,299.76,488.55,291.81,513.75Z"/><path class="cls-37" d="M321.5,572.14l-1.75-.92c.2-.39,20.33-38.87,32.29-82.4l1.91.52C341.93,533.08,321.71,571.75,321.5,572.14Z"/><path class="cls-37" d="M309.36,549.19c-22.79-5.11-86.56-24.46-106.61-38.79l1.15-1.61c19.84,14.18,83.22,33.39,105.89,38.47Z"/><path class="cls-42" d="M343,628.07c-49.61-10.5-81.46-19.76-107.65-38.65l1.16-1.61c25.9,18.68,57.55,27.88,106.9,38.33Z"/><path class="cls-37" d="M349.4,643l-1.74-.94c2.32-4.31,4.79-8.76,7.4-13.47,14.53-26.21,32.62-58.82,35.78-88.8l2,.21c-3.21,30.37-21.4,63.18-36,89.55C354.18,634.29,351.72,638.74,349.4,643Z"/></g><path class="cls-3" d="M252.66,757.58c19.18,6.48,50,17.52,68.25,3.25,5.83-4.56,9.58-11.25,12.66-18a145.28,145.28,0,0,0,13-55.05c.2-5.74,0-11.73-2.59-16.86s-8.18-9.16-13.85-8.22-10,4.38-14.2-1.83c-7.54-11.12-5.86-28-7.95-40.66-1.51-9.21-6.48-27.35-18.22-28.22-8-.6-13.38,10.63-21.59,8.06-2.92-.91-4.84-3.74-5.92-6.6-6.6-17.34-6.66-45.75-25.31-55.36-4-2-9-2.6-12.79-.28-4,2.43-5.83,7.4-9.71,10-4.61,3.08-11,2-15.62-1.17s-7.73-7.87-10.86-12.44c-7.79-11.4-16.41-22.74-28.26-29.83-19.1-11.42-48.83-6.85-44.15,21.34,1.82,11,11.51,18.72,20.82,24.82,8.6,5.64,35.22,22,18.4,32.67-3.23,2-6.94,3.41-9.67,6.08-5.49,5.38-5.23,14.82-1.08,21.29s11.25,10.47,18.44,13.2,14.77,4.49,21.69,7.85c5.11,2.49,10.45,7.45,8.85,12.91-1.66,5.68-9.26,6.88-13.28,11.22-4.54,4.89-3.5,13.08.49,18.42s10.18,8.52,16.15,11.51l17.75,8.91c6.34,3.18,13.59,7.75,13.64,14.84,0,4.32-2.75,8.1-4.07,12.21-2.62,8.16.84,17.35,6.81,23.49S244.54,754.84,252.66,757.58Z"/><g class="cls-43"><path class="cls-44" d="M336.92,797.84c-15.76-29.59-32.41-59.23-49.49-88.09-10.93-18.48-23.32-36-35.29-52.93-5-7.05-10.13-14.34-15.16-21.66-7-10.22-14.26-20.78-21.74-30.89C183,560.73,143.88,522,106,484.49l1.61-1.62c37.9,37.54,77.09,76.35,109.42,120,7.51,10.15,14.77,20.72,21.79,30.94,5,7.32,10.17,14.6,15.15,21.65,12,17,24.41,34.53,35.39,53.09,17.09,28.88,33.76,58.55,49.54,88.18Z"/><path class="cls-37" d="M185.63,668.66c-24.79-6.85-48.28-15.88-60.2-27.3l1.58-1.65c29.26,28,133.75,42,144.84,43.37,10.34-33.71,19-100.12,16.3-125.6l2.28-.24c2.73,25.93-6.15,93.82-16.68,127.44l-.29.9-.94-.11C269.6,685.12,225.91,679.78,185.63,668.66Z"/><path class="cls-37" d="M172,609c-24.2-6.68-49.44-14.63-61.16-21.44l1.15-2c23.47,13.63,105,32.62,116.44,35.25.41-11.15,2.81-87.06-6.11-121.66l2.22-.57c9.67,37.53,6.16,122.85,6.12,123.7l0,1.37-1.34-.3C227.21,623,200.31,616.87,172,609Z"/><path class="cls-45" d="M200.36,733.9q-3.37-.93-6.58-2l.74-2.16c40.6,14,102.86,5.37,108.53,4.54,24.48-28.58,32.81-62.1,38.7-91.29l2.24.45C338,673,329.56,707,304.51,736.06l-.27.31-.42.07C303.19,736.54,243.16,745.72,200.36,733.9Z"/></g><path class="cls-46" d="M145.59,730.13c4.22,2,8.52,3.51,12.89,3.68,17.49.71,30-20.38,47.45-20.25,13.48.1,24.48,13,38,12.69,17.54-.4,22.79-18.08,33.95-27.89,11.34-10,28.26-24,44.34-21.88,16.66,2.17,28.5,19.78,45.26,20.95,12,.83,22.74-7.09,31.13-15.68s16-18.53,26.79-23.78a38.48,38.48,0,0,1,33.59.2c10,5,17.22,14.1,25.73,21.37s20.06,13,30.61,9.3c7.58-2.65,12.76-9.48,18.48-15.13,10.51-10.38,24.71-17.66,39.45-17.35,22.39.49,37.88,16.62,53.36,30.61,11.48,10.37,23.46,31.38,40.78,31.42,19.73.05,31.86-27.41,51.53-26,18.22,1.29,27.27,26.5,45.42,28.55,21.1,2.37,40.4-28.15,58.49-17,9.84,6.07,12,22.2,23.34,24.61s20-11.71,31.52-13.35c9.26-1.31,18,6.18,21.28,14.95,25.37,66.91-106.36,73.41-142.06,73.41s-68.36-4.65-93.36-12.33c-38.72,26.1-116.11,43.91-205.28,43.91-89.57,0-167.26-18-205.81-44.27-25.14,7.89-58.23,12.69-94.49,12.69-29.52,0-59.56-2.79-88.07-10.78-16.4-4.6-51.31-12.56-50.65-35.2.38-13,11.7-23.58,24.15-27a43.6,43.6,0,0,1,20.12-.76c13.3,2.63,27.94,11.15,39.14,3.48,4.35-3,7.11-8,11.7-10.58C124.22,717.08,134.65,725,145.59,730.13Z"/><path class="cls-47" d="M614.76,142.73H582a25.42,25.42,0,0,0-25.34,25.34h0a25.36,25.36,0,0,0,11,20.85v17.84l18.24-13.35h28.9a25.41,25.41,0,0,0,25.34-25.34h0A25.42,25.42,0,0,0,614.76,142.73Z"/><circle class="cls-37" cx="580.01" cy="168.07" r="3.85"/><circle class="cls-37" cx="598.37" cy="168.07" r="3.85"/><circle class="cls-37" cx="616.73" cy="168.07" r="3.85"/><path class="cls-48" d="M145.17,341.33c-5-8.65-17.81-13-30.14,1.42-12.34-14.41-25.1-10.07-30.15-1.42C72.42,362.64,115,387.72,115,387.72S157.63,362.64,145.17,341.33Z"/><rect class="cls-49" x="442.68" y="45.48" width="75.56" height="50.41" rx="12"/><path class="cls-50" d="M443.9,47.1,477,79.18a5.1,5.1,0,0,0,7,0L517,47.1"/><line class="cls-50" x1="443.9" y1="94.27" x2="471.05" y2="73.42"/><line class="cls-50" x1="517.02" y1="94.27" x2="489.88" y2="73.42"/><rect class="cls-47" x="128.01" y="76.08" width="87.28" height="60.62" rx="12"/><polygon class="cls-51" points="171.65 155.86 186.95 135.22 156.35 135.22 171.65 155.86"/><path class="cls-37" d="M175.72,97.19c-2.47-4.24-8.73-6.37-14.77.7-6-7.07-12.31-4.94-14.78-.7C140.06,107.64,161,119.93,161,119.93S181.83,107.64,175.72,97.19Z"/><path class="cls-37" d="M194.61,114.19h-3.77V103.85l0-1.7.06-1.86c-.62.63-1.06,1-1.3,1.24l-2.06,1.65-1.82-2.27,5.76-4.59h3.1Z"/><rect class="cls-52" x="786.33" y="202.93" width="87.28" height="60.62" rx="12"/><polygon class="cls-53" points="829.97 282.71 845.28 262.07 814.67 262.07 829.97 282.71"/><path class="cls-37" d="M852.94,241h-3.78V230.7l0-1.7.06-1.85c-.63.62-1.06,1-1.31,1.23L845.9,230l-1.82-2.27,5.75-4.59h3.11Z"/><path class="cls-37" d="M825,222.57H812.56a9.61,9.61,0,0,0-9.58,9.58h0a9.6,9.6,0,0,0,4.15,7.88v6.73l6.9-5H825a9.6,9.6,0,0,0,9.57-9.57h0A9.6,9.6,0,0,0,825,222.57Z"/><circle class="cls-54" cx="335.47" cy="115.97" r="34.08"/><path class="cls-37" d="M359.22,116.89a23.75,23.75,0,0,1-47.5,0"/><path class="cls-47" d="M329.67,94.33c-1.79-3.06-6.31-4.6-10.67.5-4.37-5.1-8.88-3.56-10.67-.5-4.41,7.54,10.67,16.42,10.67,16.42S334.07,101.87,329.67,94.33Z"/><path class="cls-47" d="M362.61,94.33c-1.79-3.06-6.31-4.6-10.67.5-4.36-5.1-8.88-3.56-10.67-.5-4.41,7.54,10.67,16.42,10.67,16.42S367,101.87,362.61,94.33Z"/><circle class="cls-54" cx="34.08" cy="259.7" r="34.08"/><path class="cls-55" d="M42.58,240.78a6,6,0,0,1,3-.88,7.69,7.69,0,0,1,3,.49,7.09,7.09,0,0,1,2.62,1.68,4.94,4.94,0,0,1,1.45,2.8c-1-.35-1.88-.67-2.7-1L47.59,243c-.78-.29-1.57-.6-2.39-.95A19.36,19.36,0,0,1,42.58,240.78Z"/><path class="cls-55" d="M24.48,240.83a18.13,18.13,0,0,1-2.62,1.3c-.82.34-1.61.65-2.4.94l-2.37.86c-.82.28-1.65.6-2.7.94a5,5,0,0,1,1.46-2.8,7.29,7.29,0,0,1,2.63-1.66,7.7,7.7,0,0,1,3-.47A6,6,0,0,1,24.48,240.83Z"/><path class="cls-55" d="M16.1,267.18a18.1,18.1,0,0,0,36,0Z"/><path class="cls-47" d="M21.66,278.29a18.09,18.09,0,0,0,24.42.39l-.16-.39C33.84,272.4,21.82,278.21,21.66,278.29Z"/><ellipse class="cls-55" cx="45.71" cy="252.08" rx="3.12" ry="3.89"/><ellipse class="cls-55" cx="21.36" cy="252.08" rx="3.12" ry="3.89"/><circle class="cls-54" cx="744.36" cy="120.85" r="34.08"/><path class="cls-55" d="M751.81,112.53A4.42,4.42,0,0,1,753.3,109a5.67,5.67,0,0,1,3.86-1.42A5.93,5.93,0,0,1,761,109a4.31,4.31,0,0,1,1.55,3.52,8.74,8.74,0,0,0-2.75-1.64,8.3,8.3,0,0,0-2.64-.49,7.31,7.31,0,0,0-2.59.44A9.46,9.46,0,0,0,751.81,112.53Z"/><path class="cls-55" d="M737,112.53a9.46,9.46,0,0,0-2.72-1.69,7.26,7.26,0,0,0-2.58-.44,8.25,8.25,0,0,0-2.64.49,8.63,8.63,0,0,0-2.75,1.64,4.3,4.3,0,0,1,1.54-3.52,6,6,0,0,1,3.8-1.44,5.67,5.67,0,0,1,3.86,1.42A4.39,4.39,0,0,1,737,112.53Z"/><path class="cls-55" d="M724.23,128.43A20.89,20.89,0,0,0,733.4,135a29.44,29.44,0,0,0,11,1.85,29.85,29.85,0,0,0,10.91-2.18,24.48,24.48,0,0,0,9.23-6.6,17,17,0,0,1-3.38,4.94,20.47,20.47,0,0,1-4.89,3.67,26.33,26.33,0,0,1-23.73.35,19.18,19.18,0,0,1-5-3.59A14.76,14.76,0,0,1,724.23,128.43Z"/><ellipse class="cls-47" cx="766.77" cy="120.85" rx="6.92" ry="5.12"/><ellipse class="cls-47" cx="721.12" cy="120.85" rx="6.92" ry="5.12"/><path class="cls-56" d="M563,54.94c-.44-2.71,3.14-8.18,7.06-8.09,1.55,0,3.08.44,4.63.36,4.14-.2,6.29-3.42,7.89-6.09s4.77-5.72,8.81-5c5.81,1,8.74,8.64,15.35,2.89,4.32-3.77,4.64-9,9.54-12.7,3.36-2.51,8.83-4,13.33-2.61,5.88,1.81,8.07,7.64,14.33,8.66,6.94,1.12,11.93-4.15,14.14-8,2.69-4.62,3.68-9.61,6-14.31,2.13-4.35,6.42-10.17,14.09-10,6.49.11,9.35,4.22,12.54,7.48,4.14,4.24,12.75,19.47,22.41,17.63,3.76-.71,5.64-3.7,9-5,5.46-2.15,12.42.81,15.71,4.53s4.59,8.21,8.31,11.73a8.73,8.73,0,0,0,3.64,2.19c5.2,1.42,10-3,15.59-3.28A13,13,0,0,1,775,39c2.2,2.2,3.41,4.8,5.09,7.21A5.47,5.47,0,0,0,782,48c2.44,1.3,5.87.2,8.86-.31,7.38-1.27,15.77,2.11,17.85,7.21Z"/><path class="cls-57" d="M203.64,45.48c.3-1.78-2.06-5.36-4.62-5.3-1,0-2,.28-3,.23-2.71-.13-4.12-2.24-5.17-4s-3.13-3.75-5.78-3.31c-3.81.64-5.73,5.67-10.06,1.9-2.83-2.47-3.05-5.93-6.26-8.32A10.44,10.44,0,0,0,160,25c-3.85,1.18-5.29,5-9.39,5.67-4.55.74-7.82-2.72-9.27-5.22-1.76-3-2.42-6.3-3.93-9.38-1.39-2.85-4.2-6.67-9.23-6.59-4.26.07-6.13,2.76-8.22,4.9-2.72,2.78-8.36,12.77-14.69,11.57-2.47-.47-3.7-2.43-5.93-3.31-3.58-1.41-8.14.53-10.3,3S86,31,83.56,33.28a5.6,5.6,0,0,1-2.39,1.43c-3.4.93-6.57-1.93-10.22-2.14A8.49,8.49,0,0,0,64.65,35a32,32,0,0,0-3.34,4.73A3.6,3.6,0,0,1,60.1,41c-1.6.86-3.85.14-5.81-.2-4.84-.83-10.34,1.39-11.71,4.73Z"/><path class="cls-47" d="M356.41,797.9c-2.39,39.72-2.06,71.8-5,121.56-.41,6.95-.94,13.89-1.45,20.82-.3,4.07-2.11,13.15,1,16.42a8.45,8.45,0,0,0,3.16,1.82c7.5,2.94,15.27,5.37,23.29,6.18,8.89.9,17.44-1,25.78-3.77a1.13,1.13,0,0,0,.49-.27,1.15,1.15,0,0,0,.22-.6c.72-5,.85-9.73,1.12-14.68q.74-13.64,1.94-27.25c1.59-18.14,3.74-36.24,6.23-54.27,5-36.16,11.43-72.1,17.63-108.07,4.83-28,9.53-56.13,13.33-84.34,3.58-26.54,13.44-51.3,13.7-78.47.1-10.94-1.28-22.85-8.87-30.72-8.59-8.9-22.3-9.9-34.67-10.14-32.64-.61-42.06,29.15-47.35,54.77-6.32,30.63-5.48,65-5.92,96.27C360.64,734.77,358.31,766.3,356.41,797.9Z"/><path class="cls-47" d="M501.57,929.27c-.77,11.87-1.66,23.7-2.43,35.6a3.19,3.19,0,0,1-.43,1.68,2.85,2.85,0,0,1-1.2.84c-7.11,3.23-54.59,4.53-53.44-7.95,2.06-22.24,3.06-44.57,3.39-66.9.74-52-2.22-104-4.12-156q-2.16-59.73-2.16-119.51c0-25.73,2.81-57.75,34.21-62.15,18.62-2.61,42.41,16.2,47,34.43,9.11,36.23,6.12,58.55,2.65,95.4-3.58,37.94-9.89,85.36-12.57,123.38C509.67,847.79,505.17,879.55,501.57,929.27Z"/><path class="cls-58" d="M573.42,430.39c2.36,5.72,4.63,11.48,6.87,17.25,7.66,19.75,25.88,52.66,6.31,71.22-2.22,2.1-7.82,2.58-10.61,2.07-8-1.47-12.1-8.84-16.09-15.11-12-18.8-20.75-39.47-32.31-58.54-8.34-13.77-12.69-30.27-16.81-45.67-2.73-10.2-6.26-24.81,2.26-33.4a16.81,16.81,0,0,1,13.44-4.81,26.13,26.13,0,0,1,8.44,2.66,30.91,30.91,0,0,1,6.48,4c4.84,4,7.24,9.91,10.16,15.3,3.45,6.36,7,12.65,10.19,19.13C566,412.94,569.81,421.62,573.42,430.39Z"/><path class="cls-37" d="M552.51,377c-12.94-16-28.47-29.64-49.08-32.59-5.9-.84-12.85,0-16.26,4.85-2.14,3.06-2.37,7.14-1.47,10.77,1.29,5.26,4.63,9.87,6.8,14.79,5.8,13.12,3.64,30.11,12.48,41.41,1.9,2.43,23.54,32.54,22.84,33.42,12.76-9.41,45-44.21,45.85-43C567.19,397.12,560.32,386.64,552.51,377Z"/><path class="cls-59" d="M578.14,436.76l-1.2,2.78c-5.11,11.79-10.34,23.63-13.61,36.09-2.82,10.76-5.69,24.76-1,35.37,2.77,6.26,9.18,11.34,16,10.65,10.69-1.08,17.42-12.29,22-20.78,9-16.78,13.17-35.37,15.22-54.18,2.15-19.78.9-40.16,8.65-58.88,2.6-6.29,6.14-12.28,7.47-18.95s-.17-14.55-5.81-18.37c-3.59-2.43-8.15-2.8-12.48-3.09-6.86-.46-14.86-.46-19.21,4.87-2.17,2.65-2.95,6.16-3.37,9.56A59.09,59.09,0,0,0,593.13,387c1.26,4,3.25,8.48,1.81,12.66-1.25,3.59-3.9,7.34-5.46,10.95Z"/><path class="cls-4" d="M636.64,328.83s-3.38,2.83-8,11.47-6.17,49.56-13.55,54.47-30.8,3.55-34.47-3.52c-2.28-4.4,2.71-5,8.35-9.56s12.31-31.53,12.82-42.62,1-21.12,1-21.12Z"/><g class="cls-60"><path class="cls-61" d="M598.11,331.79c12.55,2.41,15.66,5.31,21,8.3S631.94,351,631.94,351l14.49-32.55-57.64-7.59Z"/></g><path class="cls-62" d="M593.4,318.54c-4.34-.2-7.45-9.44-6.94-20.65s4.45-20.13,8.8-19.93,7.44,9.44,6.93,20.65S597.74,318.74,593.4,318.54Z"/><path class="cls-1" d="M598.36,323.53c-4.34-.2-7.35-11.58-6.72-25.4s4.67-24.88,9-24.68,7.35,11.57,6.72,25.4S602.7,323.72,598.36,323.53Z"/><polygon class="cls-4" points="598.36 323.52 643.45 329.57 646.11 271.55 600.65 273.44 598.36 323.52"/><path class="cls-63" d="M643.45,329.57c-4.34-.2-7.27-13.35-6.53-29.37s4.85-28.85,9.19-28.65,7.27,13.34,6.53,29.37S647.79,329.77,643.45,329.57Z"/><path class="cls-5" d="M747.26,255.06c-13.43,9.69-79.13,23-101.41,22-3.51-.16-6.84,10.22-7.43,23.19s1.77,23.6,5.29,23.76c22.27,1,86.47,20.32,99,31.19l3-50.05Z"/><g class="cls-64"><path class="cls-65" d="M725.82,362.81a22.46,22.46,0,0,1-6.3.2c-11.29-1.16-22.6-2.56-33.57-5.48s-21.64-7.42-30.68-14.28a24.54,24.54,0,0,1-6.47-6.66,10.94,10.94,0,0,1-1.32-8.95,2.13,2.13,0,0,1,.79-1.18,2.36,2.36,0,0,1,1.37-.2c8.92.46,17.83,1.09,26.77,1.07,8.6,0,17.37-.08,25.34-3.65,9.15-4.1,14.19-12.67,17.26-21.88,4.09-12.27,6.71-24.79,12.71-36.37,3.16-6.1,10.41-20,19.35-18.05,10.42,2.3,13.19,29.89,6.19,61.62-3.09,14-7.6,28.31-15.19,40.58C737.84,356.42,733,361.5,725.82,362.81Z"/></g><path class="cls-37" d="M712.12,279.69q6-1.32,12-2.79c2.34-.57,1.35-4.19-1-3.61q-6,1.47-12,2.79c-2.35.52-1.36,4.13,1,3.61Z"/><path class="cls-37" d="M693.26,283.13q4.14-.79,8.26-1.7c2.35-.51,1.35-4.13-1-3.61-2.75.6-5.5,1.16-8.26,1.7-2.36.46-1.36,4.07,1,3.61Z"/><path class="cls-55" d="M743.37,369.26c-12.39-.57-21.12-29.7-19.5-65.08s13-63.6,25.36-63,21.12,29.7,19.5,65.08S755.76,369.83,743.37,369.26Z"/><path class="cls-6" d="M743.86,358.64c-8.05-.37-13.48-24.59-12.13-54.1s9-53.14,17-52.77,13.47,24.59,12.12,54.1S751.9,359,743.86,358.64Z"/><g class="cls-66"><polygon class="cls-67" points="746.3 305.2 746.96 290.78 722.89 284.87 722.01 304.09 721.13 323.32 745.64 319.63 746.3 305.2"/><polygon class="cls-65" points="745.64 319.63 721.13 323.32 721.6 312.98 746.01 311.57 745.64 319.63"/><path class="cls-55" d="M745.64,319.63c-2.22-.11-3.73-6.65-3.36-14.61s2.46-14.34,4.68-14.24,3.73,6.64,3.37,14.61S747.86,319.73,745.64,319.63Z"/></g><path class="cls-59" d="M611.74,378.88a4.05,4.05,0,0,0,.73.92,8.56,8.56,0,0,0,3.07,1.7c4.54,1.69,10.15,3.19,14.93,2,1.47-.38,3.09-1.06,3.56-2.5.57-1.71-.78-3.4-2-4.69,1.72-.31,3.64-.75,4.62-2.21a4.5,4.5,0,0,0,.3-3.94,13.28,13.28,0,0,0-2.11-3.49,3,3,0,0,0,2.69-1.48,7,7,0,0,0,.89-3.08c.2-1.93-.1-4.34-2-5.31,1.47-.93,2.33-1,3.13-2.81a7,7,0,0,0,.37-4.87,5.1,5.1,0,0,0-1.36-2.29,7.34,7.34,0,0,0-2.65-1.36,33.37,33.37,0,0,0-15.63-1.56,7.58,7.58,0,0,0-3.09,1,3.89,3.89,0,0,0-.37,5.93,10.22,10.22,0,0,0,3.92,2.08,15.51,15.51,0,0,0-6.63,1.15,4.26,4.26,0,0,0-2.79,2.58c-.35,1.45.69,2.89,1.91,3.75a16.92,16.92,0,0,0,5,2.1c-1.45.57-3,.89-4.39,1.59a5,5,0,0,0-2.86,3.46,4.55,4.55,0,0,0,2.19,4.13,13.38,13.38,0,0,0,4.62,1.65c-1.23.33-2.53.41-3.73.82a3.87,3.87,0,0,0-2.69,2.48A3.09,3.09,0,0,0,611.74,378.88Z"/><path class="cls-59" d="M590.56,372.81c-.42-4.48-2.57-8.65-3.06-13.12a18,18,0,0,1,1.73-9.83,6.72,6.72,0,0,1,1.45-2.07c1.3-1.14,3.17-1.32,4.89-1.38a72.32,72.32,0,0,1,9.87.35c1.74.18,3.7.57,4.63,2.06,1.24,2-.28,4.7-2.28,6s-4.42,1.74-6.37,3.07a8.72,8.72,0,0,0-3.73,7.56"/><path class="cls-58" d="M322.69,430.39c-2.36,5.72-4.63,11.48-6.87,17.25-7.65,19.75-25.87,52.66-6.31,71.22,2.22,2.1,7.82,2.58,10.62,2.07,8-1.47,12.1-8.84,16.09-15.11,12-18.8,20.75-39.47,32.3-58.54,8.34-13.77,12.69-30.27,16.82-45.67,2.72-10.2,6.25-24.81-2.26-33.4a16.84,16.84,0,0,0-13.45-4.81,26.15,26.15,0,0,0-8.43,2.66,30.65,30.65,0,0,0-6.48,4c-4.85,4-7.24,9.91-10.17,15.3-3.44,6.36-7,12.65-10.18,19.13C330.13,412.94,326.31,421.62,322.69,430.39Z"/><path class="cls-59" d="M318,436.76c.41.92.81,1.85,1.21,2.78,5.11,11.79,10.34,23.63,13.6,36.09,2.82,10.76,5.69,24.76,1,35.37-2.77,6.26-9.18,11.34-16,10.65-10.68-1.08-17.42-12.29-22-20.78-9-16.78-13.16-35.37-15.21-54.18-2.16-19.78-.9-40.16-8.65-58.88-2.61-6.29-6.15-12.28-7.48-18.95s.18-14.55,5.81-18.37c3.6-2.43,8.15-2.8,12.48-3.09,6.87-.46,14.86-.46,19.21,4.87,2.17,2.65,3,6.16,3.38,9.56A59.1,59.1,0,0,1,303,387c-1.26,4-3.25,8.48-1.8,12.66,1.24,3.59,3.89,7.34,5.46,10.95Z"/><path class="cls-47" d="M290.29,383.15a75.45,75.45,0,0,1-100.5-35.51L164.4,294.53l29.79-14.23,25.38,53.11A42.36,42.36,0,1,0,296,296.88l-25.38-53.11,29.78-14.23,25.38,53.11A75.46,75.46,0,0,1,290.29,383.15Z"/><rect class="cls-55" x="157.48" y="263.96" width="33.01" height="24.66" transform="translate(-102.13 102.02) rotate(-25.54)"/><rect class="cls-55" x="263.7" y="213.2" width="33.01" height="24.66" transform="translate(-69.86 142.86) rotate(-25.54)"/><path class="cls-68" d="M271.54,216,260,221.52l10.64,22.25L296,296.88a42.36,42.36,0,1,1-76.44,36.53L194.19,280.3l-10.63-22.25L172,263.57l36.69,76.76a55.15,55.15,0,1,0,99.52-47.56Z"/><path class="cls-59" d="M263.69,372.91a4.14,4.14,0,0,1-1.08-.46,8.66,8.66,0,0,1-2.43-2.54c-2.79-4-5.68-9-5.71-13.94,0-1.51.24-3.25,1.51-4.08,1.5-1,3.48-.11,5,.77-.13-1.76-.2-3.72,1-5a4.46,4.46,0,0,1,3.73-1.29,13.34,13.34,0,0,1,3.92,1.14,3,3,0,0,1,.74-3,7,7,0,0,1,2.75-1.65c1.82-.68,4.23-1,5.65.6.52-1.65.38-2.5,1.92-3.73a7,7,0,0,1,4.61-1.61,5,5,0,0,1,2.56.74,7.24,7.24,0,0,1,2,2.2,33.35,33.35,0,0,1,5.51,14.71,7.47,7.47,0,0,1-.2,3.26,3.89,3.89,0,0,1-5.63,1.87,10.23,10.23,0,0,1-3-3.26,15.71,15.71,0,0,1,.57,6.71,4.26,4.26,0,0,1-1.77,3.35c-1.32.72-3,.07-4.12-.89a16.5,16.5,0,0,1-3.31-4.32c-.18,1.54-.1,3.12-.42,4.64a4.92,4.92,0,0,1-2.61,3.65,4.52,4.52,0,0,1-4.56-1.06,13.21,13.21,0,0,1-2.77-4c0,1.28.25,2.55.16,3.82a3.88,3.88,0,0,1-1.71,3.23A3.08,3.08,0,0,1,263.69,372.91Z"/><path class="cls-59" d="M301.9,390.75a72.85,72.85,0,0,0,5-16.6c.81-4.62,2.65-9.47-1.39-12.67a71,71,0,0,0-8.15-5.57c-1.51-.88-3.32-1.74-4.94-1.08-6.28,2.51,1.22,9.06,2.86,12,1.11,2,.13,4.47-.81,6.56-2.36,5.22-4.48,10.56-6.36,16"/><path class="cls-37" d="M358.68,365.61c9.56-9,20.77-16.72,33.44-20.6,9.64-3,24.3-6.42,29.86,5,3.25,6.67,3.34,15.48,1.63,22.58-3.32,13.74-12.77,25.35-21.36,36.21-6.54,8.27-18.59,27.17-29.9,38.79-18.19-12.76-33.58-27.1-49-37.56C330.13,399,348.5,375.23,358.68,365.61Z"/><path class="cls-69" d="M531.85,580c-.15-.71-.3-1.41-.44-2.12-5.48-26.38-6.28-53.62-5.59-80.59.67-26.44,6-52.46,6.64-78.92.79-30.5-4-73.85-38.25-77.37-14.18-1.46-28.44-3.18-42.71-3.37v0h-3.05v0c-14.28.19-28.54,1.91-42.71,3.37-34.28,3.52-39.05,46.87-38.26,77.37.69,26.46,6,52.48,6.65,78.92.68,27-.12,54.21-5.59,80.59l-.45,2.12c-1.08,5-2.81,10-2,15,1.76,10.84,25.21,16.1,33.11,18.44a180.43,180.43,0,0,0,101.54,0c7.9-2.34,31.35-7.6,33.11-18.44C534.67,590,532.93,585,531.85,580Z"/><path class="cls-70" d="M462.51,378.68c8.06-1.59,15.82-5.61,20.92-12.05A27.81,27.81,0,0,0,489,346.94a25,25,0,0,0-1.58-6.65c-11.91-1.25-23.88-2.49-35.85-2.65v0h-3.06v0c-12.18.16-24.34,1.44-36.46,2.72-3.39,10.63.93,24.89,10.59,31C433.78,378.38,449.52,381.24,462.51,378.68Z"/><path class="cls-58" d="M429.81,330.39a101.29,101.29,0,0,0,.8-15.66c-.16-6.59-.21-13.19-.53-19.76a70.11,70.11,0,0,1,18.73-1.79c5.73.24,11.45-.36,17.17,0a2,2,0,0,1,1.29.38,1.83,1.83,0,0,1,.43,1.23c.76,8.89-.11,18,.49,26.88a71.91,71.91,0,0,0,.59,8.19,26.48,26.48,0,0,1-2.26,1.6A29.34,29.34,0,0,1,441.46,336,37.66,37.66,0,0,1,429.81,330.39Z"/><path class="cls-59" d="M492.57,260.39a79.17,79.17,0,0,0-3.83-23.74c-10.07-29.41-47-36.18-68.93-14.66-24.41,24-14.13,80.43,12.23,99.92a29.27,29.27,0,0,0,25,4.55C482.54,319.22,493.12,287.54,492.57,260.39Z"/><path class="cls-58" d="M492.53,234.87c-7.93-30.06-44.31-39.47-67.7-19.57-3.73,3.17-6.31,7-9,11-2.26,3.43-5.4,6-7.39,9.81a34,34,0,0,0-3.75,12.53c-.41,4.25,1,8,1.09,12a14.9,14.9,0,0,1,4.92-11.37c2.48-2.2,5.62-3.49,8.5-5.13s5.71-3.83,6.79-7c9.31,12.19,23.74,15.93,37.94,19.45,11.92,2.95,25,10.46,25.27,24.38a11.82,11.82,0,0,0,.91,4.56,20.47,20.47,0,0,0,1.4-5.86c.25-2.27.91-4.53,1.36-6.8a100.53,100.53,0,0,0,1.74-14.15A79.54,79.54,0,0,0,492.53,234.87Z"/><path class="cls-47" d="M499.31,286.47a16.14,16.14,0,0,0,5.18-7.21c3.17-9.33,2.83-19.67,2.44-29.68-.21-5.58-.44-11.24-2-16.55a42,42,0,0,0-8.56-15.37,50.35,50.35,0,0,0-42.33-17.9c-6.21.53-10.78,3.5-16.24,6s-11.58,3.82-17.18,5.67c-6.47,2.13-13.12,4.37-18.25,8.84A33.24,33.24,0,0,0,394,232.47c-2.34,5.48-2.56,11.59-1.9,17.44.56,4.83,1.19,10,3.33,14.48,2,4.22,6.47,7,10.46,9.07-.59-.31-.08-7.27-.09-8.34-.09-6.15.24-12.46,2.17-18.34s5.54-9.28,10.33-12.78a35.89,35.89,0,0,0,5.44-4.63c.8-.88,4.29-5,3.72-6.23,2.72,6,7,12.15,12.29,16.08,10.12,7.46,21.37,12.74,32.79,17.18l2.53,1a28.36,28.36,0,0,1,8.82,5.05c5.75,5.24,6.17,13.29,6,20.55a6.73,6.73,0,0,0,.21,2.37C491.24,288.92,497,288.23,499.31,286.47Z"/><path class="cls-59" d="M428.05,364c21.17,14,62.37,3.13,50.69-24.58-1.41-3.36-3.14-6.61-4.08-10.12-1.57-5.82-1.41-11.82-1.25-17.74.19-6.91.24-13.84.62-20.75a93.78,93.78,0,0,0-22.23-1.87c-6.8.25-13.59-.38-20.39,0a2.48,2.48,0,0,0-1.52.4,1.8,1.8,0,0,0-.51,1.29c-.91,9.34,0,18.79-.73,28.14-.4,5.23-1.11,11.21-3.5,16.07-3.68,7.46-9.14,14.4-3.88,22.5A23.22,23.22,0,0,0,428.05,364Z"/><path class="cls-58" d="M474.35,328c-1.22-5.41-.9-11.08-.75-16.56.19-6.91.24-13.84.62-20.74A93.31,93.31,0,0,0,452,288.85c-6.8.24-13.59-.38-20.39,0a2.62,2.62,0,0,0-1.52.4,1.81,1.81,0,0,0-.51,1.29c-.91,9.34,0,18.79-.73,28.14a61.88,61.88,0,0,1-1.14,8c1.06.83,2.15,1.62,3.27,2.35a38.57,38.57,0,0,0,29.75,4.79A46.14,46.14,0,0,0,474.35,328Z"/><path class="cls-47" d="M487.64,297.93c-6.42,7.75-15.41,12.85-24.31,17.52a29.45,29.45,0,0,1-6.81,2.86c-7.37,1.72-14.81-2.28-21-6.69a121.61,121.61,0,0,1-22.84-21.39c-6.69-8.12-10.43-17-14.79-26.55s-5.36-19.3-4.43-29.82c.95-10.8-5.09-20.45-2.36-31.37A31.24,31.24,0,0,1,402.86,185a22.67,22.67,0,0,1,10.72-4.46c8.71-.94,16.11,5,24.71,5.38s17-2.75,25.37-4.65c7.29-1.66,15.27-2.57,22.5-.1,8,2.76,11.93,8.91,16.38,16,3.8,6.09,9.52,10.66,14.1,16.07,6.13,7.24,8.07,16.46,6.12,25.9A80.46,80.46,0,0,1,514,262.45c-3.53,6.16-7.38,12.65-11.54,18.48-3.17,4.45-6.64,7.72-10.34,11.6C490.47,294.21,489.13,296.13,487.64,297.93Z"/><path class="cls-59" d="M495.52,260.88a81.15,81.15,0,0,0-3.8-24.22c-10.14-30-47.78-37.09-70.2-15.24-25,24.36-14.76,81.92,12,101.9A29.77,29.77,0,0,0,459,328.07C485,320.81,496,288.57,495.52,260.88Z"/><path class="cls-58" d="M501.67,236.57c-11.4-30-53.89-37-79.21-15.16-5.93,5.12-12.24,13.17-15,20.53-2.94,7.89-2.17,16.62-1.36,25,.64-6.92,3.88-13.14,8.42-18.3a60.21,60.21,0,0,1,7.39-7c1-.78,8.14-7.3,7.45-8.2,2.55,3.33,5.09,6.64,9,8.31a84.25,84.25,0,0,0,15.25,4.43c9.19,2,16.39,4.58,23.06,11.46a62.37,62.37,0,0,1,13.6,22.58c.94,2.63,2.54,6.68,6,5.5a65.61,65.61,0,0,0,8-5.92,92.34,92.34,0,0,0,1.69-19A72.45,72.45,0,0,0,501.67,236.57Z"/><path class="cls-47" d="M481.34,254.88A57.85,57.85,0,0,1,486.41,267c2.19,6.59,3.92,13.67,6.72,20,9.56-5.77,15.86-19.37,20.21-29.21,3.86-8.72,4.94-15.66,1.67-24.81-2.11-5.92-6.16-11.17-11-15.68-13.89-13-34.72-19.64-54.8-18.32-7.06.46-12.81,3-19.44,4.87-6.08,1.76-10.74,2.92-15.21,7.92-4,4.46-6.52,10-8.52,15.63-3.26,9.17-5.11,18.63-4.39,28.37.46,6.23.5,12.4,6.67,15.79-.11-3.71-.21-7.42-.32-11.13a26.92,26.92,0,0,1,.2-5.31,26.09,26.09,0,0,1,1.35-4.55c1.64-4.55,3.15-8.19,6.27-11.94,4.09-4.9,9.47-9.33,10.61-15.61,9.67,9.39,21.07,15.28,33.77,19.65,8,2.77,16.23,4.37,21,12.06Z"/><path class="cls-59" d="M495.7,261.67c11.5-6.43,15.21,9.54,13.31,17.52a25.39,25.39,0,0,1-4.08,9.25c-2.71,3.67-10.52,9.8-15.09,5.85-2.07-1.78-2.31-4.86-2.4-7.59C487.19,279.35,487.91,266,495.7,261.67Z"/><path class="cls-59" d="M412.61,261.67c-11.5-6.43-15.22,9.54-13.31,17.52a25.54,25.54,0,0,0,4.07,9.25c2.72,3.67,10.52,9.8,15.09,5.85,2.08-1.78,2.32-4.86,2.41-7.59C421.11,279.35,420.4,266,412.61,261.67Z"/><path class="cls-47" d="M396.22,235.66c-.1-4.69-3.22-8.67-5.59-12.72a34.18,34.18,0,0,1-4.27-21.07,28,28,0,0,1,13.4-20.71,23.42,23.42,0,0,1,18.13-2.5c5.66,1.62,10.27,6,15.76,7.46,12.33,3.37,25-6.65,36.68-9.07s24,1.51,29.82,13.17c2.29,4.61,3.3,9.94,6.29,14.07,5,6.9,14.61,9.17,18.58,16.78,6.5,12.41-6.41,30.55-13,40.2"/><path class="cls-71" d="M425.34,199c9.57.62,18.89-1.45,28.23-3.36a95.07,95.07,0,0,1,14.29-1.45q3.58-.1,7.19,0a45.64,45.64,0,0,1,7.22.72,20.2,20.2,0,0,1,12.34,7.66,13.71,13.71,0,0,1,2.08,7.11,49.71,49.71,0,0,0,.59,7,14.8,14.8,0,0,0,3,6.12,38.51,38.51,0,0,1,4.1,5.93,18.15,18.15,0,0,1,1.64,7,50.26,50.26,0,0,1-.26,7.16,60.3,60.3,0,0,0-.16-7.12,17.6,17.6,0,0,0-1.91-6.71,40.69,40.69,0,0,0-4.2-5.67,15.76,15.76,0,0,1-3.43-6.46,40.7,40.7,0,0,1-.77-7.19,12.41,12.41,0,0,0-1.9-6.4,13.39,13.39,0,0,0-2.3-2.48,19.63,19.63,0,0,0-2.77-2,20.5,20.5,0,0,0-6.4-2.42,44.38,44.38,0,0,0-7-.75q-3.54-.18-7.09-.11a113.17,113.17,0,0,0-14.12,1.21c-4.66.74-9.38,1.71-14.13,2.19A62.74,62.74,0,0,1,425.34,199Z"/><path class="cls-54" d="M247.18,128.76c.89,3.74,1.52,7.48,2.08,11.22s1,7.48,1.38,11.21.67,7.48.89,11.22.38,7.48.48,11.21l-6.7-4.45q4.91-2.21,9.87-4.27c1.65-.7,3.31-1.37,5-2s3.33-1.31,5-2l6.84-2.6-.24,7q-.16,5.31-.52,10.6c-.11,1.77-.25,3.54-.39,5.3l-.5,5.3c-.38,3.54-.81,7.07-1.34,10.61s-1.16,7.06-2,10.6c-.85-3.54-1.46-7.07-2-10.6s-1-7.07-1.34-10.61l-.5-5.3c-.14-1.76-.28-3.53-.39-5.3q-.36-5.29-.52-10.6l6.6,4.39c-1.62.75-3.26,1.48-4.9,2.21s-3.29,1.44-4.94,2.13q-4.95,2.1-10,4.05l-6.89,2.68.19-7.14q.15-5.6.48-11.21c.22-3.74.53-7.48.89-11.22s.81-7.47,1.38-11.21S246.29,132.5,247.18,128.76Z"/><path class="cls-54" d="M142.07,177.81c.89,3.74,1.52,7.48,2.08,11.22s1,7.47,1.38,11.21.67,7.48.89,11.22.38,7.47.48,11.21l-6.7-4.45q4.91-2.21,9.87-4.28c1.65-.69,3.31-1.36,5-2s3.34-1.32,5-1.95l6.84-2.61-.24,7c-.11,3.53-.28,7.07-.52,10.6-.11,1.77-.25,3.53-.39,5.3l-.5,5.3c-.38,3.54-.81,7.07-1.34,10.6s-1.16,7.07-2,10.61c-.85-3.54-1.46-7.07-2-10.61s-1-7.06-1.34-10.6l-.5-5.3c-.14-1.77-.28-3.53-.39-5.3-.24-3.53-.41-7.07-.52-10.6l6.6,4.39c-1.63.75-3.26,1.48-4.9,2.21s-3.29,1.43-4.94,2.13q-5,2.08-10,4l-6.89,2.68.19-7.14c.1-3.74.26-7.47.48-11.21s.53-7.48.89-11.22.81-7.48,1.37-11.21S141.18,181.55,142.07,177.81Z"/></svg>