<svg id="Layer_1" data-name="Layer 1" xmlns="http://www.w3.org/2000/svg" xmlns:xlink="http://www.w3.org/1999/xlink" viewBox="0 0 603.05 329.96"><defs><style>.cls-1{fill:#a1a7ff;}.cls-2{fill:url(#Gradiente_sem_nome_69);}.cls-3{fill:#12348e;}.cls-4{fill:#f3fcff;}.cls-5{fill:#f5fbff;}.cls-6{fill:#e4ebf9;}.cls-7{fill:#fdc78b;}.cls-8{fill:#ffb91f;}.cls-9{fill:#0c336b;}.cls-10{fill:#113b84;}.cls-11{fill:#ffb164;}.cls-12{fill:#5b4bbc;}.cls-13{fill:#fa3e6a;}.cls-14{fill:#95cc6f;}.cls-15{fill:#d7c9f2;}</style><linearGradient id="Gradiente_sem_nome_69" y1="287.58" x2="603.05" y2="287.58" gradientUnits="userSpaceOnUse"><stop offset="0.16" stop-color="#e08197"/><stop offset="1" stop-color="#e08197" stop-opacity="0"/></linearGradient></defs><title>Privacy</title><path class="cls-1" d="M395.76,224.17l24.79.29,2.15-7.75s-2.35-2.06-5.65,1-5.17,3.11-7.27,1.34-3.54-2.75-5,.2a4.47,4.47,0,0,1-5.89,2.48C396.86,221.11,395.76,224.17,395.76,224.17Z"/><ellipse class="cls-2" cx="301.53" cy="287.58" rx="301.53" ry="42.38"/><polygon class="cls-3" points="387.54 280.13 322.33 280.13 330.81 241.49 379.06 241.49 387.54 280.13"/><path class="cls-3" d="M265.29,76.44h179.3a36.87,36.87,0,0,1,36.87,36.87V235a0,0,0,0,1,0,0h-253a0,0,0,0,1,0,0V113.31A36.87,36.87,0,0,1,265.29,76.44Z"/><rect class="cls-4" x="240.84" y="89.23" width="228.19" height="136.33"/><rect class="cls-1" x="381" y="162.21" width="62.35" height="49.04"/><rect class="cls-1" x="295.14" y="162.21" width="75.5" height="21.35"/><rect class="cls-1" x="295.14" y="189.24" width="75.5" height="21.35"/><rect class="cls-1" x="266.51" y="109.3" width="176.84" height="24.74"/><rect class="cls-1" x="266.51" y="142.05" width="176.84" height="10.19"/><path class="cls-1" d="M228.42,235v14a12.17,12.17,0,0,0,12.17,12.17H469.28a12.17,12.17,0,0,0,12.17-12.17V235Z"/><path class="cls-1" d="M416.91,287.58H293a11,11,0,0,1,11-11H405.87a11,11,0,0,1,11,11Z"/><circle class="cls-3" cx="354.94" cy="248.01" r="4.65"/><path class="cls-3" d="M257.47,11,135.11,52.33c0,199.16,122.36,235.25,122.36,235.25S379.84,251.49,379.84,52.33Z"/><path class="cls-5" d="M257.5,276.28c-8.11-3.2-31.32-14-54.23-39.8-16.62-18.71-29.87-41.59-39.4-68-11.32-31.38-17.39-67.86-18.06-108.55L257.47,22.19,369.14,59.94c-.68,41.11-6.87,77.91-18.41,109.52-9.68,26.48-23.13,49.38-40,68C288,262.79,265.48,273.17,257.5,276.28Z"/><path class="cls-1" d="M257.52,270.54c-9.5-4-29.88-14.62-50.27-37.59-16.17-18.21-29.08-40.5-38.37-66.27-10.76-29.8-16.7-64.42-17.67-103L257.47,27.81,363.74,63.73c-1,38.94-7,73.87-18,103.9-9.45,25.84-22.54,48.15-38.93,66.32C286.52,256.43,266.75,266.65,257.52,270.54Z"/><path class="cls-1" d="M257.52,270.54c9.23-3.89,29-14.11,49.28-36.59,16.39-18.17,29.48-40.48,38.93-66.32,11-30,17-65,18-103.9L257.47,27.81V270.52Z"/><path class="cls-5" d="M246.57,181l-38.86-31.37a9.27,9.27,0,0,1-1.38-13h0a9.26,9.26,0,0,1,13-1.38l25.49,20.58a9.26,9.26,0,0,0,12.56-.86l47.33-50.4a9.25,9.25,0,0,1,13.08-.41h0a9.25,9.25,0,0,1,.41,13.08l-59.08,62.91A9.26,9.26,0,0,1,246.57,181Z"/><path class="cls-1" d="M128.8,198.79H52.09V156.42A25.45,25.45,0,0,1,77.51,131h25.87a25.45,25.45,0,0,1,25.42,25.42Zm-62-14.72h47.26V156.42a10.71,10.71,0,0,0-10.7-10.7H77.51a10.7,10.7,0,0,0-10.69,10.7Z"/><path class="cls-3" d="M103.38,141.93H77.51a10.7,10.7,0,0,0-10.69,10.7v3.79a10.7,10.7,0,0,1,10.69-10.7h25.87a10.71,10.71,0,0,1,10.7,10.7v-3.79A10.71,10.71,0,0,0,103.38,141.93Z"/><rect class="cls-6" x="52.09" y="195" width="76.7" height="3.79"/><rect class="cls-1" x="29.92" y="169.67" width="121.05" height="117.91" rx="28.79"/><path class="cls-3" d="M99.4,222a9,9,0,1,0-12.33,8.29v10.47a3.38,3.38,0,1,0,6.75,0V230.32A9,9,0,0,0,99.4,222Z"/><rect class="cls-3" x="122.22" y="205.89" width="15.61" height="12.12"/><rect class="cls-1" x="126.58" y="210.23" width="2.47" height="3.43"/><rect class="cls-1" x="131.01" y="210.23" width="2.47" height="3.43"/><rect class="cls-1" x="115.82" y="218.01" width="28.43" height="69.57" rx="14.21"/><rect class="cls-3" x="121.05" y="235.68" width="17.95" height="44" rx="7.46"/><path class="cls-7" d="M179,195.6c3.37-2.61,2.13-20.17,2.13-20.17s1.51-5.28.68-7a3.1,3.1,0,0,0-3-2.07,4,4,0,0,0-3.32,1.51,5.12,5.12,0,0,0-.51,3.56c.51,2.62,1.73,3.65,1.73,4.32,0,1.6-5,16.52-5.53,16.61C171.17,192.39,175.67,198.21,179,195.6Z"/><path class="cls-8" d="M157,177.58c-2.92-.52-9,.13-6.77,6.33,2.66,7.51,21.92,11.89,21.92,11.89h0a14.74,14.74,0,0,0,5,.47,3,3,0,0,0,1.58-.46l.07,0a1.85,1.85,0,0,0,.95-1.09c2.45-4.59,1.72-19.29,1.72-19.29l-5.1.4c0,1-1.78,7.08-3.27,11.59C173.1,187.39,159.89,178.09,157,177.58Z"/><path class="cls-9" d="M142.84,279.78l-2.26,4.38c1,1.21,10.51,5.12,11,5S147,282.7,147,282.7Z"/><path class="cls-9" d="M157.85,283.93l-.13,5.21h12.1c.39-.34-6.75-5.21-6.75-5.21Z"/><path class="cls-3" d="M160.29,248.24l0-.29v-.15h0l-2.74-18.9,7.72-15.55-24.13.45c-4.18,8.95-.23,15.2,3.17,23.18,2.59,6.07,3.11,8.89,3.21,9.88h0s-1.58,4,1.31,12.51,9.12,24.56,9.12,24.56h5.22l-2.8-35.69Z"/><path class="cls-3" d="M172.61,235.58c-1.85-8.42-7.41-22.23-7.41-22.23l-8.57,16.85,5.5,18.09c-1.39.83-4.46,3.15-7.71,8.87-4.42,7.78-11.58,22.62-11.58,22.62L147,282.7l22.51-24.16a13.87,13.87,0,0,0,3.09-5.24A40,40,0,0,0,172.61,235.58Z"/><path class="cls-8" d="M149.45,175.38s-9.2-2.84-12.84,1.77,4.61,22.62,4.61,22.62l-.58,15a42.33,42.33,0,0,0,12.5,1.37,52,52,0,0,0,12.47-2.37s-.88-19-2.94-27.55c-1.39-5.8-4-7.64-5.73-9C153.91,175,149.45,175.38,149.45,175.38Z"/><path class="cls-7" d="M123.13,203.38c2.34,3.55,21.43,3.74,21.43,3.74s3.63,1.34,5.37.64,2.29-1.62,2.37-2.77-.18-2.25-1.33-2.69a7.46,7.46,0,0,0-2.85-.11l.82,0s.24-1.28-1.38-1.25c-2.89.06-3.82,1.37-4.49,1.32-1.6-.11-16.07-5.95-16.12-6.49C127,195.79,120.79,199.82,123.13,203.38Z"/><path class="cls-10" d="M147.23,172.49s-1.33.34-3.85-1.65c-2-1.54-3.75-3.54-3.94-5.81S140,162,140,162a4.13,4.13,0,0,1,1.74-4.82c4.43-3.19,8.49.54,13.14-.18,5.35-.83-.62,5.39-.62,5.39Z"/><path class="cls-7" d="M146.9,171.09s-2.06,4.06-2,4.24a3.62,3.62,0,0,0,3,1.57,9.52,9.52,0,0,0,4.48-.63,7.56,7.56,0,0,1-1-2.07,11.72,11.72,0,0,1,1-2.46Z"/><path class="cls-11" d="M151.39,174.2a11.72,11.72,0,0,1,1-2.46l-5.47-.65s-.35.69-.75,1.51a4.63,4.63,0,0,0,4.24,2,4.71,4.71,0,0,0,1-.26A.67.67,0,0,1,151.39,174.2Z"/><path class="cls-7" d="M153.6,161.2s1,.65,1.27,4.51-.65,7.45-4.21,7.95-5.47-4-5.47-4a2.62,2.62,0,0,1-2-.33,2.25,2.25,0,0,1-.81-2.67,1.46,1.46,0,0,1,2.08-.48c.89.57,1.07,1.73,1.4,2.23s.47.62.47.27-.09-1.84.33-2.32,3.92-2,5.25-3.74S153.6,161.2,153.6,161.2Z"/><rect class="cls-5" x="177.49" y="161.51" width="18.24" height="9.75" transform="translate(-41.34 63.68) rotate(-17.47)"/><path class="cls-9" d="M185.81,169.27l-3.58-1.59a.72.72,0,0,1-.37-1h0a.73.73,0,0,1,1-.37l2.34,1a.74.74,0,0,0,.94-.32l2.55-4.78a.73.73,0,0,1,1-.3h0a.73.73,0,0,1,.3,1l-3.19,6A.73.73,0,0,1,185.81,169.27Z"/><path class="cls-7" d="M176.11,167.21s2.31-1.64,3.19-.7-1.81,3.12-1.81,3.12Z"/><path class="cls-8" d="M142.84,182.8c.75-2.86.57-8.93-5.78-7.24-7.7,2.05-13.58,20.9-13.58,20.9h0a14.6,14.6,0,0,0-.87,5,3,3,0,0,0,.34,1.61s0,0,0,.06a1.84,1.84,0,0,0,1,1c4.39,2.8,19.09,3.24,19.09,3.24v-5.12c-1-.07-6.91-2.33-11.29-4.17C131.78,198.11,142.09,185.67,142.84,182.8Z"/><path class="cls-7" d="M518.33,252.5c2.62,2.92,20,.43,20,.43s3.49.71,5-.16,1.86-1.8,1.77-2.86-.48-2-1.58-2.26a6.82,6.82,0,0,0-2.61.29l.74-.09s0-1.21-1.43-.95c-2.63.46-3.29,1.78-3.9,1.83-1.48.12-15.48-3.19-15.6-3.68C520.75,245.05,515.7,249.58,518.33,252.5Z"/><path class="cls-12" d="M506.28,236.38a.14.14,0,0,1,0-.06,4.29,4.29,0,0,1,5.13-2.75c2.4.82,6.43,7.44,6.43,7.44h0a48.44,48.44,0,0,0,2.89,4l.06.06c1,.62,14.25,3.34,15.67,3.22l1,5.08s-13.92,1.68-18.26-.29c-2.57-1.05-5.76-4.18-8.45-7.66h0a24.71,24.71,0,0,1-4.23-6.65l0,0,0-.07a5.61,5.61,0,0,1-.2-.57l0-.09a0,0,0,0,0,0,0c0-.17-.07-.32-.1-.47v-.1a2.39,2.39,0,0,1,0-.94Z"/><path class="cls-10" d="M556.89,249.74h-17.8a.86.86,0,0,1-.82-1.12l4.38-13.92a.86.86,0,0,1,.82-.6h17.2a.87.87,0,0,1,.84,1.09l-3.79,13.91A.86.86,0,0,1,556.89,249.74Z"/><polygon class="cls-10" points="556.47 248.65 539.59 248.65 543.82 235.19 560.13 235.19 556.47 248.65"/><polygon class="cls-10" points="556.86 249.74 530.74 249.74 531.5 248.19 557.55 248.19 556.86 249.74"/><path class="cls-9" d="M537.08,251.05l-25.29,10.41.1,1.76-3.73,8s-.29,10.78,8.05,8.76c6.17-1.49,13.1-9.16,15.8-11.58,5.1-4.57,7.38-5.63,7.93-5.85a28.61,28.61,0,0,0,5.31,4.15c7,4.37,19.06,13.53,19.06,13.53l6.27-2.15-23.83-26.34C543.92,248.78,537.08,251.05,537.08,251.05Z"/><path class="cls-7" d="M521.44,221s2.2,8.6-1.29,10c-2.74,1.1-6-1.78-6-1.78S517.15,219.68,521.44,221Z"/><path class="cls-11" d="M519.54,231.16c-1.29-1.13-1.29-3.67-1.29-3.67s-2.38-1.84-3.49.13c-.14.34-.25.64-.34.89,0,.07,0,.13,0,.21a1.77,1.77,0,0,0,0,.6C514.93,229.81,517.31,231.6,519.54,231.16Z"/><path class="cls-7" d="M513,227.78s-2.1,5.26-2.15,6.51a4.77,4.77,0,0,0,3.47,1c3.19-.2,3.2-.91,3.2-.91s-.2-1.86-.23-4a6.9,6.9,0,0,1,.23-2.35Z"/><path class="cls-10" d="M517,229.22a7.16,7.16,0,0,1-9.42-7.87c.6-3.22,2.15-3.46,2.15-3.46s1.15-5.9,8.45-3.93c5.1,1.37,6.57,6.64,3,10.37S517,229.22,517,229.22Z"/><path class="cls-10" d="M518.76,224.69s.47,3,.83,3.09,0-4.05,0-4.05Z"/><path class="cls-7" d="M519.11,226.49s-.2-1.48-1.22-1-.36,1.7.36,2S519.11,226.49,519.11,226.49Z"/><path class="cls-10" d="M549.17,273v0l-.2,0-.2,0v0l-36.07-4.59-.09.91-9.81-.91s-3.75,18.58,14.11,19.21a17,17,0,0,0,7.19-.92c3.64-.84,7.35-2.16,10.83-2.53,6.05-.65,8.09-.35,9.58-.17v0s3.14,2.49,11.39,2.21S580,284.73,580,284.73l1.41-4.6Z"/><path class="cls-10" d="M578.44,284.76l1.29-4.63a32.07,32.07,0,0,1,3.2-3,35.93,35.93,0,0,1,3-2.13L583.3,286.4S578.78,285.24,578.44,284.76Z"/><path class="cls-13" d="M514.88,233.34s-6.18-2.44-9.34,2.87c-1.52,2.56-.6,19.56-.6,19.56L501.69,275s6.93,5.67,11.6,1.69c8.39-7.15,13.71-6.5,13.71-6.5s-2.16-14.74-1.32-25.33c.44-5.47-2.1-6.59-3.56-8C519.62,234.41,514.88,233.34,514.88,233.34Z"/><path class="cls-7" d="M530.78,255.71c3,2.57,19.25-2.34,19.25-2.34a28.93,28.93,0,0,0,5.64-1.13c1.59-.68,1.87-1.32,1.65-2.36s-1.47-.32-2.6-.3c-2.61,0-1.89-.7-1.89-.7a1.61,1.61,0,0,0,.93-.69c.32-.54-.48-1.17-1.92-.74-2.54.78-3,2.17-3.64,2.3-1.45.3-15.76-1.26-15.94-1.72C532.26,248,527.81,253.14,530.78,255.71Z"/><path class="cls-13" d="M516.84,241.2a.13.13,0,0,1,0-.06,4.3,4.3,0,0,1,4.75-3.37c2.49.52,7.3,6.6,7.3,6.6h0c1.86,2,3.09,3.55,3.36,3.66,0,0,0,0,.07,0,1.06.5,14.55,1.56,15.95,1.27l1.66,4.91s-13.61,3.39-18.16,2c-2.68-.73-6.23-3.45-9.33-6.57h0a24.51,24.51,0,0,1-5-6.07l0,0,0-.07q-.15-.28-.27-.54l0-.08s0,0,0,0q-.09-.24-.15-.45a.29.29,0,0,1,0-.09,2.47,2.47,0,0,1-.07-1A.5.5,0,0,1,516.84,241.2Z"/><rect class="cls-1" x="395.47" y="215.65" width="109.78" height="71.93"/><polygon class="cls-14" points="395.47 215.65 450.36 250.19 505.25 215.65 395.47 215.65"/><polygon class="cls-14" points="395.47 215.65 450.36 181.12 505.25 215.65 395.47 215.65"/><polygon class="cls-1" points="493.3 223.17 450.36 250.19 407.42 223.17 407.42 178.66 493.3 178.66 493.3 223.17"/><rect class="cls-1" x="416.96" y="190.22" width="65.74" height="3.84"/><rect class="cls-1" x="416.96" y="199.97" width="65.74" height="3.84"/><rect class="cls-1" x="416.96" y="209.71" width="65.74" height="3.84"/><rect class="cls-1" x="416.96" y="219.46" width="65.74" height="3.84"/><polygon class="cls-1" points="477.6 233.04 483.71 229.2 417.01 229.2 423.12 233.04 477.6 233.04"/><polygon class="cls-1" points="460.62 243.73 466.73 239.89 433.99 239.89 440.1 243.73 460.62 243.73"/><polygon class="cls-1" points="450.36 250.19 395.47 287.58 505.25 287.58 450.36 250.19"/><path class="cls-8" d="M494.51,162.92,464.68,173c0,48.56,29.83,57.36,29.83,57.36s29.84-8.8,29.84-57.36Z"/><path class="cls-1" d="M494.53,225.51a35.43,35.43,0,0,1-11.94-9.08c-8.23-9.38-12.81-23.22-13.32-40.18l25.24-8.53,25.25,8.53C518.68,212.51,499.72,223.24,494.53,225.51Z"/><path class="cls-8" d="M494.54,222a33.58,33.58,0,0,1-9.56-7.65c-7.33-8.36-11.61-20.71-12.43-35.83l22-7.42,22,7.43C514.9,208.37,500.66,218.84,494.54,222Z"/><path class="cls-8" d="M516.48,178.51l-22-7.43s.49,24.26.8,50.49C501.78,218,515,207.17,516.48,178.51Z"/><path class="cls-7" d="M439.22,38.62s-4-14.93-11.17-16.11a1.35,1.35,0,0,0-.57,0,3.56,3.56,0,0,1,1,.54c5.53,3,3.72,19.44,3.45,21.67,1,2.5,2,4.78,2.66,6.31-5,.79-14.11,11.63-14.11,11.63s19.21-.87,22.57-4a7.15,7.15,0,0,0,.74-1C445.77,53.89,442.74,45.15,439.22,38.62Z"/><path class="cls-10" d="M416.79,17.28a11.44,11.44,0,0,1-3.84-9c.18-5.48,2.91-5.53,2.91-5.53S418.75-1.54,425,.59c7.83,2.68,3.36,15.33-.05,17.24S416.79,17.28,416.79,17.28Z"/><polygon class="cls-1" points="406.86 61.43 405.88 64.85 420.46 70.37 420.46 62.68 406.86 61.43"/><polygon class="cls-1" points="434.02 61.43 435 64.85 420.42 70.37 420.42 62.68 434.02 61.43"/><path class="cls-1" d="M403.2,62.4c-3.86-1.42-8.77-1.86-10.53,2.86s.57,10.47,13.84,13C416,80.09,437.2,81.7,437.2,81.7l1-5.1S405.78,63.36,403.2,62.4Z"/><path class="cls-10" d="M437.17,76.18a22.31,22.31,0,0,1,7.78,1.9c3.65,1.74,4,3.24,3.84,3.5-.28.65-1.92,1.38-5,1.55s-8.1-1.53-8.1-1.53A6.34,6.34,0,0,0,437.17,76.18Z"/><path class="cls-1" d="M437.75,62.4c3.86-1.42,8.77-1.86,10.53,2.86s-.57,10.47-13.84,13c-9.49,1.82-30.69,3.43-30.69,3.43l-1-5.1S435.17,63.36,437.75,62.4Z"/><path class="cls-10" d="M403.78,76.18a22.31,22.31,0,0,0-7.78,1.9c-3.65,1.74-4,3.24-3.84,3.5.28.65,1.92,1.38,5,1.55s8.1-1.53,8.1-1.53A6.34,6.34,0,0,1,403.78,76.18Z"/><path class="cls-13" d="M428.48,23.14c-2.22-1.83-12.53-2.08-16,0-6.27,3-3.42,21.94-3.42,21.94a175.51,175.51,0,0,0-3,17.76,36.53,36.53,0,0,0,13.89,2.89l.6,0,.6,0a36.45,36.45,0,0,0,13.88-2.89,172.23,172.23,0,0,0-3.05-17.76S434.41,26.33,428.48,23.14Z"/><path class="cls-7" d="M422.78,16.31l-1.87.09L419,16.31s-2.3,5.88-2.14,6a6.46,6.46,0,0,0,3.63,1.5l.27,0H421l.27,0a6.46,6.46,0,0,0,3.63-1.5C425.08,22.19,422.78,16.31,422.78,16.31Z"/><path class="cls-11" d="M421.11,20.9a4.1,4.1,0,0,0,3-1.11c-.6-1.65-1.32-3.48-1.32-3.48l-1.87.09L419,16.31s-.64,1.64-1.22,3.2A4.25,4.25,0,0,0,421.11,20.9Z"/><path class="cls-7" d="M429.23,11.54a1.29,1.29,0,0,0-2-.55c-.95.67-.28,1.51-.93,2.16-.48.48.05-4.8-1.59-4.94a9.44,9.44,0,0,1-6,2.06c-1.77.07-2.12,2-2.12,2.46s-.2.64-.55,0-.1-1.11-1.05-1.78a1.29,1.29,0,0,0-2,.55c-.25.63-.27,2.55.94,3.29s1.7.17,1.7.17,1.92,5.09,5.53,4.83c3.6.26,5.52-4.83,5.52-4.83s.5.57,1.7-.17S429.49,12.17,429.23,11.54Z"/><path class="cls-13" d="M425.8,22.13A9.83,9.83,0,0,1,434,26.35c3.08,4.54,5.52,11.88,5.52,11.88a58.58,58.58,0,0,1-7.29,2.62S433.68,25.28,425.8,22.13Z"/><path class="cls-7" d="M402.35,38.62s3.95-14.93,11.17-16.11a1.35,1.35,0,0,1,.57,0,3.56,3.56,0,0,0-1,.54c-5.53,3-3.72,19.44-3.45,21.67-1.05,2.5-2,4.78-2.66,6.31,5,.79,14.11,11.63,14.11,11.63s-19.22-.87-22.57-4a7.15,7.15,0,0,1-.74-1C395.8,53.89,398.83,45.15,402.35,38.62Z"/><path class="cls-13" d="M415.88,22.05a9.85,9.85,0,0,0-8.24,4.22c-3.07,4.55-5.52,11.88-5.52,11.88s5.51,2.45,7.19,2.7C409.31,40.85,408.13,25.16,415.88,22.05Z"/><path class="cls-3" d="M437.05,61.37A2.69,2.69,0,0,1,434.26,64H406.91a2.69,2.69,0,0,1-2.8-2.58v-17a2.69,2.69,0,0,1,2.8-2.57h27.35a2.69,2.69,0,0,1,2.79,2.57Z"/><path class="cls-15" d="M422.32,52.51a1.88,1.88,0,1,1-1.86-2.1A2,2,0,0,1,422.32,52.51Z"/><path class="cls-10" d="M388.55,190.16s0-5.21-.92-7.19-3.48-6.06-6.48-6.9c-1.66-.47-3.14-7,.59-9s9.91.35,9.91.35,7.3-4.53,12.31,11.71c4.32,14,13.12,19.92,12.31,24.52s-1.37,5.14-5,4.13S388.55,190.16,388.55,190.16Z"/><path class="cls-7" d="M394.06,220.14c-3.1,2.6-20.52-2.49-20.52-2.49s-3.67.23-5.06-.88-1.64-2.11-1.4-3.18.79-2,1.95-2.08a3.43,3.43,0,0,1,1.87.48s4.7,1.53,5.32,1.67c1.49.34,16.26-1,16.46-1.47C392.68,212.19,397.17,217.55,394.06,220.14Z"/><path class="cls-13" d="M384.65,197.72c.11-2.81,1.08-6.8,4.39-6.71,7.57.21,6.61,22.75,6.61,22.75h0a14.18,14.18,0,0,1-.58,4.77,2.94,2.94,0,0,1-.75,1.38.1.1,0,0,0,0,.05,1.77,1.77,0,0,1-1.21.66c-4.76,1.34-18.25-2.3-18.25-2.3l1.4-4.66c.92.21,6.93-.22,11.42-.69C387.64,213,384.54,200.54,384.65,197.72Z"/><path class="cls-3" d="M397.29,221.14c8.45,9,3.21,16.25,1.41,23.82s-1.31,9.24-1.31,9.24,2,3.34.75,11.27-4.33,23.11-4.33,23.11l-4.62.8-3-32.4-.95-34.18Z"/><path class="cls-3" d="M398.7,258.8l-12.16-34.64L403,220.25c7.06,5.39,3.21,15.15,3.82,22.91s1.58,9.19,1.58,9.19,2.95,2.56,4.16,10.5,3,23.33,3,23.33l-4.15,2.17Z"/><path class="cls-9" d="M393.81,288.58l-4.67.23a30.69,30.69,0,0,0-3.57,2.37,33.39,33.39,0,0,0-2.67,2.38h11.42S394.2,289,393.81,288.58Z"/><path class="cls-9" d="M415.22,284.7,411,286.77a31.78,31.78,0,0,0-2.33,3.6,32.36,32.36,0,0,0-1.5,3.24l10.47-4.55S415.75,284.94,415.22,284.7Z"/><path class="cls-13" d="M385.73,191.92s-5.36,2.49-6.16,8.21a6.84,6.84,0,0,0,4.22,7.51Z"/><path class="cls-13" d="M394.76,186.65a10.12,10.12,0,0,1,9.09,2.51c3.94,3.86-.9,18.48-.9,18.48l4,16.53a56.35,56.35,0,0,1-12.19,2.51,58,58,0,0,1-10.15,0s-2.76-20.68-1.87-29c.59-5.58,1.08-4.41,2-6.27C387.39,186.12,394.76,186.65,394.76,186.65Z"/><path class="cls-7" d="M383.08,209.42c2.83-1.09,5.94.87,7,1.62l.06-.23c1.44.51,16.26.92,16.51.47,0,0,3.83,5.85.45,8.06S389,215.28,389,215.28l.16-.65c-1,.79-4.16.82-4.39-.06s2.41.16,1.43-1.23-4.46,1-5.37.67S379.63,210.74,383.08,209.42Z"/><path class="cls-13" d="M397.71,193.93c.44-2.78,2.89-8,7.78-4.11,5.93,4.71,3.9,23.36,3.9,23.36h0a13.94,13.94,0,0,1-1.14,4.67,2.87,2.87,0,0,1-.9,1.28l-.05.05a1.68,1.68,0,0,1-1.27.51c-4.89.78-17.86-4.42-17.86-4.42l1.94-4.46c.89.32,6.91.59,11.42.65C401.53,211.46,397.27,196.71,397.71,193.93Z"/><polygon class="cls-3" points="369.47 203.09 381.74 216.93 369.66 216.93 356.66 202.88 369.47 203.09"/><path class="cls-7" d="M367.05,213.77s1-1.86,2.65-1.39-.5,4.05-.5,4.05S367.07,215.62,367.05,213.77Z"/><path class="cls-7" d="M390.37,182.07l.62,7.41s4.84.58,6.25-1.52-3-6.73-3-6.73Z"/><path class="cls-11" d="M395.06,182.56a9.76,9.76,0,0,1-4.43,2.69l-.26-3.18,2.56-3.1Z"/><path class="cls-7" d="M384.41,173.11s-1.27,10.11,2.92,11.2c3.27.85,6.95-3.08,6.95-3.08S389.11,171,384.41,173.11Z"/><path class="cls-7" d="M390.38,177.59a1.9,1.9,0,1,0,1.66-2A1.83,1.83,0,0,0,390.38,177.59Z"/><path class="cls-10" d="M394.28,181.23s4.28,6.67,3.19,10,1.4,1.71,4.21.38,6.91.81,8.69,4.52-1.64-7.84-7-10.2A78.74,78.74,0,0,1,394.28,181.23Z"/><path class="cls-5" d="M550.47,237.69l-4.1,1.27c-1.75,6.09,1.67,7.19,1.67,7.19s4.06-1.1,5.81-7.19Z"/></svg>