<svg id="Layer_1" data-name="Layer 1" xmlns="http://www.w3.org/2000/svg" xmlns:xlink="http://www.w3.org/1999/xlink" viewBox="0 0 750.43 675.49"><defs><style>.cls-1,.cls-17{fill:none;}.cls-1,.cls-2{clip-rule:evenodd;}.cls-2,.cls-57,.cls-60{fill:#26286b;}.cls-10,.cls-12,.cls-18,.cls-26,.cls-27,.cls-3,.cls-34,.cls-39,.cls-40,.cls-41,.cls-42,.cls-43,.cls-44,.cls-45,.cls-47,.cls-50,.cls-59,.cls-60,.cls-74,.cls-76,.cls-77{fill-rule:evenodd;}.cls-3{fill:url(#Gradiente_sem_nome_69);}.cls-4{fill:#ffb91f;}.cls-5{fill:#ffd115;}.cls-6{fill:#df641e;}.cls-7{fill:#ec830e;}.cls-8{fill:url(#linear-gradient);}.cls-18,.cls-9{fill:#a1a7ff;}.cls-10{fill:url(#linear-gradient-2);}.cls-11{fill:url(#linear-gradient-3);}.cls-12{fill:url(#linear-gradient-4);}.cls-13{fill:#e58927;}.cls-14{fill:#ffef95;}.cls-15{fill:#fbca0d;}.cls-16{fill:#ffd915;}.cls-17{stroke:#fca700;stroke-miterlimit:10;stroke-width:0.22px;}.cls-19{clip-path:url(#clip-path);}.cls-20{fill:#3655b5;}.cls-21,.cls-40{fill:#f4b1b1;}.cls-22{clip-path:url(#clip-path-2);}.cls-23{fill:url(#linear-gradient-5);}.cls-24{clip-path:url(#clip-path-3);}.cls-25{fill:url(#linear-gradient-6);}.cls-26{fill:url(#linear-gradient-7);}.cls-27{fill:#092978;}.cls-28{fill:#24a1fb;}.cls-29{clip-path:url(#clip-path-4);}.cls-30{fill:url(#linear-gradient-8);}.cls-31{fill:url(#linear-gradient-9);}.cls-32{clip-path:url(#clip-path-5);}.cls-33{fill:#3951b6;}.cls-34{fill:#041948;}.cls-35{fill:#dbdcdc;}.cls-36{fill:url(#linear-gradient-10);}.cls-37{clip-path:url(#clip-path-6);}.cls-38{fill:url(#linear-gradient-11);}.cls-39{fill:url(#linear-gradient-12);}.cls-41{fill:#e98385;}.cls-42{fill:url(#linear-gradient-13);}.cls-43{fill:#031542;}.cls-44{fill:#000446;}.cls-45{fill:#5591c8;}.cls-46,.cls-47{fill:#7aacdb;}.cls-48{clip-path:url(#clip-path-7);}.cls-49{fill:#183754;}.cls-50{fill:#041846;}.cls-51{clip-path:url(#clip-path-8);}.cls-52{fill:url(#linear-gradient-14);}.cls-53{clip-path:url(#clip-path-9);}.cls-54{fill:url(#linear-gradient-15);}.cls-55{clip-path:url(#clip-path-10);}.cls-56{clip-path:url(#clip-path-11);}.cls-58{clip-path:url(#clip-path-12);}.cls-59,.cls-65{fill:#455a94;}.cls-61{clip-path:url(#clip-path-13);}.cls-62{clip-path:url(#clip-path-14);}.cls-63{fill:url(#linear-gradient-16);}.cls-64{clip-path:url(#clip-path-15);}.cls-66{clip-path:url(#clip-path-16);}.cls-67{fill:url(#linear-gradient-17);}.cls-68{clip-path:url(#clip-path-17);}.cls-69{clip-path:url(#clip-path-18);}.cls-70{fill:url(#linear-gradient-18);}.cls-71{clip-path:url(#clip-path-19);}.cls-72{fill:url(#linear-gradient-19);}.cls-73{fill:url(#linear-gradient-20);}.cls-74{fill:#d85d04;}.cls-75{fill:url(#linear-gradient-21);}.cls-76{fill:#3b87c8;}.cls-77{fill:#a1c7e9;}</style><linearGradient id="Gradiente_sem_nome_69" y1="663.14" x2="750.43" y2="663.14" gradientUnits="userSpaceOnUse"><stop offset="0.16" stop-color="#e08197"/><stop offset="1" stop-color="#e08197" stop-opacity="0"/></linearGradient><linearGradient id="linear-gradient" x1="229.81" y1="591.2" x2="343.21" y2="591.2" gradientUnits="userSpaceOnUse"><stop offset="0" stop-color="#c2ceff"/><stop offset="1" stop-color="#95aaff"/></linearGradient><linearGradient id="linear-gradient-2" x1="205.28" y1="616.13" x2="306.75" y2="616.13" xlink:href="#linear-gradient"/><linearGradient id="linear-gradient-3" x1="438.67" y1="505.03" x2="693.15" y2="505.03" xlink:href="#linear-gradient"/><linearGradient id="linear-gradient-4" x1="520.48" y1="561" x2="748.19" y2="561" xlink:href="#linear-gradient"/><clipPath id="clip-path"><path class="cls-1" d="M362.13,137.85c116.5,0,210.93,94.45,210.93,211s-94.43,211-210.93,211-210.93-94.45-210.93-211,94.44-211,210.93-211"/></clipPath><clipPath id="clip-path-2"><path class="cls-1" d="M556,280.26c5.54.46,13.1,7.44,12.44,13.34-.17,1.56.66,3.3-1.79,4.84-8.66,5.46-38.67,9.12-49.28,4.23-8.71-4-34.66-22.78-39-31.21-1.33-2.59,2.19-5.46,3.42-6.17,2.41-2.21,21.5,14.78,41.89,20,16.81,4.35,27.34-5.49,32.32-5.07"/></clipPath><linearGradient id="linear-gradient-5" x1="511.92" y1="289.08" x2="558.13" y2="273.53" gradientUnits="userSpaceOnUse"><stop offset="0" stop-color="#000446"/><stop offset="1" stop-color="#03096b"/></linearGradient><clipPath id="clip-path-3"><path class="cls-1" d="M362.86,351.25l25.3-1.76-9-11L606,167c.95-7.15-4.59-19.31-17.09-20.95L374.92,333.4l-8.4-11.18L359,346.4Z"/></clipPath><linearGradient id="linear-gradient-6" x1="364.9" y1="258.89" x2="612.77" y2="258.89" xlink:href="#linear-gradient"/><linearGradient id="linear-gradient-7" x1="265.03" y1="462.57" x2="322.57" y2="462.57" gradientUnits="userSpaceOnUse"><stop offset="0" stop-color="#ee497b"/><stop offset="1" stop-color="#de2263"/></linearGradient><clipPath id="clip-path-4"><polygon class="cls-1" points="126.46 535.47 159.59 536.28 159.68 586.28 126.46 586.28 126.46 535.47"/></clipPath><linearGradient id="linear-gradient-8" x1="140.72" y1="611.75" x2="143.87" y2="543.47" gradientUnits="userSpaceOnUse"><stop offset="0" stop-color="#002990"/><stop offset="0.22" stop-color="#0a4bae"/><stop offset="0.58" stop-color="#1879d8"/><stop offset="0.85" stop-color="#2196f1"/><stop offset="1" stop-color="#24a1fb"/></linearGradient><linearGradient id="linear-gradient-9" x1="131.11" y1="477.45" x2="171.09" y2="477.45" xlink:href="#linear-gradient"/><clipPath id="clip-path-5"><path class="cls-1" d="M216.16,508.07c7.87,13.75-9,91.84-11.95,139.2l.45,0s.37,4.08,3.51,5.8,14.69,3.12,16.54,4.89c1.34,1.28,3.57,6.44-14.77,6-13-.35-19.33.77-20.72-1.34-1.08-1.63-.7-9.63-.47-13.23h-.07c-1.69-32.37,1.32-60.65-5-98.71-5,22.38-10.31,41.85-13.63,53.7-2,7.15-13.69,38.77-12.71,45.83.22,1.58,7.59,2.29,10.7,4.79,1.3,1.24,3.72,6.44-8.91,6.33s-18.73.75-20.08-1.3,8.19-55.24,8.92-62.76c3.26-33.24,4.28-70,8.64-91.62h0c2.25-90.26,50.21-67,45.89-12.36-.49,6.18,11.48,6.35,13.65,14.86"/></clipPath><linearGradient id="linear-gradient-10" x1="151.39" y1="478.25" x2="219.5" y2="478.25" xlink:href="#linear-gradient"/><clipPath id="clip-path-6"><path class="cls-1" d="M310.11,496.1c-5.59,18.55-2.67,54.15.23,84.61,21,5.38,51.83,3.92,59.54-2.59-5.14-39.73-7.76-77.91-16-84.94-17.31-40.47-41.26-7.36-43.79,2.92"/></clipPath><linearGradient id="linear-gradient-11" x1="304.52" y1="519.4" x2="369.88" y2="519.4" xlink:href="#linear-gradient-7"/><linearGradient id="linear-gradient-12" x1="308.47" y1="461.19" x2="367.71" y2="461.19" xlink:href="#linear-gradient-7"/><linearGradient id="linear-gradient-13" x1="349.42" y1="471.63" x2="390.19" y2="471.63" xlink:href="#linear-gradient-7"/><clipPath id="clip-path-7"><path class="cls-1" d="M509.79,359.23c-11.2,64,7.95,121.65,14.94,143.25-3.13,1.71-16.71,5.28-18.56,7-1.33,1.27-3.55,6.4,14.7,5.92,13-.34,19.21.77,20.6-1.33,1.2-1.81.47-13.16.54-13.16-5.7-57.49-6.27-61.07-3.17-97.9,2.58,11.51,12.7,57.37,40.28,94.47.54.73,2,6.17,1.06,8.54-.34.92-2.72,2-3.58,3.12-1.32,1.69-.23,2.94.94,3.74,3.63,2.51,11.88.67,13.16.65,6.55-.86,2.76-11.74,4.55-16.85.75-2.14-4.28-5.59-3.88-6.2C565.1,401.41,576.14,400.38,567.56,357h0c-2.24-89.77-49.94-66.64-45.64-12.28.48,6.14-10,6.05-12.13,14.52"/></clipPath><clipPath id="clip-path-8"><path class="cls-1" d="M520.84,297.91c-7.22,8.15-31.1,19.34-43.86,11.19-6.67-5.63-28.85-25.28-23.51-29.71s9-3.15,9-3.15,24.31,14.25,26.42,16.6c1.59,1.78,27.15-20.31,35.51-16.57,1.78.79,1.48,21.71-3.59,21.64"/></clipPath><linearGradient id="linear-gradient-14" x1="483.52" y1="296.48" x2="522.21" y2="279.64" xlink:href="#linear-gradient"/><clipPath id="clip-path-9"><path class="cls-1" d="M527.85,274.37h21.68c6.36,0,14.44,1.77,17.84,8.17,7.93,15,3.27,48.32,3,85.17-8.79,9.88-48.44,8.88-62.58.89l-.17-82.21c1-1.54,6.85-12,20.24-12"/></clipPath><linearGradient id="linear-gradient-15" x1="541.46" y1="341.55" x2="541.45" y2="279.55" xlink:href="#linear-gradient"/><clipPath id="clip-path-10"><path class="cls-1" d="M694.27,515.2c5.75,25.23-2,84.7-4.86,131.34l.45,0s.35,4,3.44,5.71,8.48,3,10.31,4.75c1.32,1.26,6.37,8.41-11.7,7.93-12.83-.33-15.89-1.23-17.26-3.31-.2-.29-10.68-98-12-106.08-2.29,10.24-28.24,97.61-28.23,97.67.21,1.54,2.26,5.65,4.55,8.2.7,2.5,2.37,6.91-10.07,6.8s-9.89-3.25-11.22-5.27c5.52-51.93,14.4-135.62,17.18-149.44l.78-.72c2.22-88.9,49.45-66,45.2-12.17-.48,6.08,11.3,6.25,13.44,14.63"/></clipPath><clipPath id="clip-path-11"><path class="cls-1" d="M673.44,450.35c5.43,11.92,14.1,26.69,29.65,29,13.91,2.07,9.4-40.43,7.91-44.22-1.62-4.13-7.13-3.5-9.3-.49-1.43,8.15-2.13,19.22-4,19.09s-10.38-19.63-21.41-23.63c-1.3-.84-6.66,14.47-2.83,20.24"/></clipPath><clipPath id="clip-path-12"><path class="cls-1" d="M626.44,438.08c-5.18,7.72,11.45,40,7.14,79.19,24.21,4.16,46.36,2.31,60.82-2.29-.67-16-.72-71.48-18.13-84.87-17.22-4.83-42.74-2.61-49.83,8"/></clipPath><clipPath id="clip-path-13"><path class="cls-2" d="M638.79,448.91c-.4-8.47-6.35-18-12.35-10.83-10.38,12.42-20.86,41.67-18,50.2s37,13.64,44.39,10.56c3.47-1.45,4.47-1.76,5.5-4.11.6-1.36,1.21-3.48-1.72-4.78-7.8-3.45-28.8-8.9-29.25-11-1.53-11.42,11.94-19.48,11.45-30"/></clipPath><clipPath id="clip-path-14"><path class="cls-1" d="M674.59,495.78l-4.81,15.88-8.47-13.09.56-52.31L659.44,442l2.93-2.8,3,2.57-1,4.6c3.51,9.35,8.17,37.17,10.25,49.42"/></clipPath><linearGradient id="linear-gradient-16" x1="659.44" y1="475.42" x2="674.59" y2="475.42" xlink:href="#linear-gradient"/><clipPath id="clip-path-15"><path class="cls-1" d="M718.86,381.88c-1,2.56-6.67,9.39-10.68,11.65a114.1,114.1,0,0,1-12,5.58l-1.57.63c-4.13,5.36-1.46,14.83,2.89,19.47l14.92-2.14c8.48-1.22,14.68,1,22.28,4.59l-1.07-20-9.32-18.48Z"/></clipPath><clipPath id="clip-path-16"><path class="cls-1" d="M722.58,391.72l13.66-.35c3.41,1.31,4.75,8.8,3.5,10.6l-11.7,7.1c-2.6-3.85-4.57-10.55-5.46-17.35"/></clipPath><linearGradient id="linear-gradient-17" x1="731.79" y1="401.51" x2="731.74" y2="391.46" gradientUnits="userSpaceOnUse"><stop offset="0" stop-color="#a2bee5"/><stop offset="1" stop-color="#ddebff"/></linearGradient><clipPath id="clip-path-17"><path class="cls-1" d="M532.62,203.68l63.5-55.63c-3.42-9,10.17-39.46,1.89-42.59-4.15-1.57-11.37,2.33-19,8.36-29.07,23.1-42.31,53.2-46.44,89.86"/></clipPath><clipPath id="clip-path-18"><path class="cls-1" d="M538.56,211.6l66-52.7c8.22,5,40.63-3.05,42.24,5.66.81,4.36-4.3,10.78-11.57,17.18-27.86,24.54-59.82,32.27-96.63,29.86"/></clipPath><linearGradient id="linear-gradient-18" x1="205.08" y1="464.38" x2="262.18" y2="464.38" xlink:href="#linear-gradient"/><clipPath id="clip-path-19"><path class="cls-1" d="M305.1,105.46c-5.47,18.17-54.72,10.54-43.86,70.38,18.59,3.12,43,3.94,57.84.39,7.8-27.47,51.66-7.09,28.51-70.11-4.74-11.08-40.74-7.75-42.49-.66"/></clipPath><linearGradient id="linear-gradient-19" x1="276" y1="80.66" x2="314.34" y2="80.66" xlink:href="#linear-gradient-7"/><linearGradient id="linear-gradient-20" x1="304.32" y1="73.28" x2="361.13" y2="73.28" xlink:href="#linear-gradient-7"/><linearGradient id="linear-gradient-21" x1="325.92" y1="86.66" x2="370.88" y2="86.66" xlink:href="#linear-gradient-7"/></defs><title>Retargeting Potential Customers</title><path class="cls-3" d="M375.22,650.8C168,650.8,0,656.32,0,663.14s168,12.35,375.22,12.35S750.43,670,750.43,663.14s-168-12.34-375.21-12.34"/><rect class="cls-4" x="23.6" y="644.62" width="99.34" height="12.74"/><rect class="cls-4" x="110.35" y="644.62" width="12.59" height="12.74"/><rect class="cls-5" x="97.61" y="644.62" width="12.74" height="12.74"/><rect class="cls-4" x="51.81" y="644.62" width="45.8" height="12.74"/><rect class="cls-6" x="28.3" y="657.37" width="89.79" height="1.21"/><rect class="cls-4" x="23.6" y="616.71" width="99.34" height="12.74"/><rect class="cls-4" x="110.35" y="616.71" width="12.59" height="12.74"/><rect class="cls-5" x="97.61" y="616.71" width="12.74" height="12.74"/><rect class="cls-4" x="51.81" y="616.71" width="45.8" height="12.74"/><rect class="cls-6" x="28.3" y="629.45" width="89.79" height="1.21"/><rect class="cls-4" x="32.36" y="630.67" width="99.34" height="12.74"/><rect class="cls-4" x="119.12" y="630.67" width="12.59" height="12.74"/><rect class="cls-5" x="106.38" y="630.67" width="12.74" height="12.74"/><rect class="cls-4" x="60.57" y="630.67" width="45.8" height="12.74"/><rect class="cls-6" x="37.07" y="643.41" width="89.79" height="1.21"/><rect class="cls-4" x="23.6" y="602.75" width="99.34" height="12.74"/><rect class="cls-4" x="110.35" y="602.75" width="12.59" height="12.74"/><rect class="cls-5" x="97.61" y="602.75" width="12.74" height="12.74"/><rect class="cls-4" x="51.81" y="602.75" width="45.8" height="12.74"/><rect class="cls-6" x="28.3" y="615.5" width="89.79" height="1.21"/><rect class="cls-4" x="76.95" y="644.62" width="99.34" height="12.74"/><rect class="cls-4" x="163.71" y="644.62" width="12.59" height="12.74"/><rect class="cls-5" x="150.97" y="644.62" width="12.74" height="12.74"/><rect class="cls-4" x="105.16" y="644.62" width="45.8" height="12.74"/><rect class="cls-7" x="85.9" y="644.62" width="19.26" height="12.74"/><rect class="cls-6" x="81.66" y="657.37" width="89.79" height="1.21"/><rect class="cls-4" x="76.95" y="616.71" width="99.34" height="12.74"/><rect class="cls-4" x="163.71" y="616.71" width="12.59" height="12.74"/><rect class="cls-5" x="150.97" y="616.71" width="12.74" height="12.74"/><rect class="cls-4" x="105.16" y="616.71" width="45.8" height="12.74"/><rect class="cls-7" x="85.9" y="616.71" width="19.26" height="12.74"/><rect class="cls-6" x="81.66" y="629.45" width="89.79" height="1.21"/><rect class="cls-4" x="85.72" y="630.67" width="99.34" height="12.74"/><rect class="cls-4" x="172.47" y="630.67" width="12.59" height="12.74"/><rect class="cls-5" x="159.73" y="630.67" width="12.74" height="12.74"/><rect class="cls-4" x="113.93" y="630.67" width="45.8" height="12.74"/><rect class="cls-7" x="94.67" y="630.67" width="19.26" height="12.74"/><rect class="cls-6" x="90.42" y="643.41" width="89.79" height="1.21"/><rect class="cls-4" x="76.95" y="602.75" width="99.34" height="12.74"/><rect class="cls-4" x="163.71" y="602.75" width="12.59" height="12.74"/><rect class="cls-5" x="150.97" y="602.75" width="12.74" height="12.74"/><rect class="cls-4" x="105.16" y="602.75" width="45.8" height="12.74"/><rect class="cls-7" x="85.9" y="602.75" width="19.26" height="12.74"/><rect class="cls-6" x="81.66" y="615.5" width="89.79" height="1.21"/><rect class="cls-4" x="76.95" y="574.84" width="99.34" height="12.74"/><rect class="cls-4" x="163.71" y="574.84" width="12.59" height="12.74"/><rect class="cls-5" x="150.97" y="574.84" width="12.74" height="12.74"/><rect class="cls-4" x="105.16" y="574.84" width="45.8" height="12.74"/><rect class="cls-7" x="85.9" y="574.84" width="19.26" height="12.74"/><rect class="cls-6" x="81.66" y="587.58" width="89.79" height="1.21"/><rect class="cls-4" x="76.95" y="588.8" width="99.34" height="12.74"/><rect class="cls-4" x="163.71" y="588.8" width="12.59" height="12.74"/><rect class="cls-5" x="150.97" y="588.8" width="12.74" height="12.74"/><rect class="cls-4" x="105.16" y="588.8" width="45.8" height="12.74"/><rect class="cls-7" x="85.9" y="588.8" width="19.26" height="12.74"/><rect class="cls-6" x="81.66" y="601.54" width="89.79" height="1.21"/><rect class="cls-4" x="76.95" y="546.93" width="99.34" height="12.74"/><rect class="cls-4" x="163.71" y="546.93" width="12.59" height="12.74"/><rect class="cls-5" x="150.97" y="546.93" width="12.74" height="12.74"/><rect class="cls-4" x="105.16" y="546.93" width="45.8" height="12.74"/><rect class="cls-7" x="85.9" y="546.93" width="19.26" height="12.74"/><rect class="cls-6" x="81.66" y="559.67" width="89.79" height="1.22"/><rect class="cls-4" x="76.95" y="519.01" width="99.34" height="12.74"/><rect class="cls-4" x="163.71" y="519.01" width="12.59" height="12.74"/><rect class="cls-5" x="150.97" y="519.01" width="12.74" height="12.74"/><rect class="cls-4" x="105.16" y="519.01" width="45.8" height="12.74"/><rect class="cls-7" x="85.9" y="519.01" width="19.26" height="12.74"/><rect class="cls-6" x="81.66" y="531.76" width="89.79" height="1.21"/><rect class="cls-4" x="85.72" y="560.88" width="99.34" height="12.74"/><rect class="cls-4" x="172.47" y="560.88" width="12.59" height="12.74"/><rect class="cls-5" x="159.73" y="560.88" width="12.74" height="12.74"/><rect class="cls-4" x="113.93" y="560.88" width="45.8" height="12.74"/><rect class="cls-7" x="94.67" y="560.88" width="19.26" height="12.74"/><rect class="cls-6" x="90.42" y="573.63" width="89.79" height="1.21"/><rect class="cls-4" x="85.72" y="532.97" width="99.34" height="12.74"/><rect class="cls-4" x="172.47" y="532.97" width="12.59" height="12.74"/><rect class="cls-5" x="159.73" y="532.97" width="12.74" height="12.74"/><rect class="cls-4" x="113.93" y="532.97" width="45.8" height="12.74"/><rect class="cls-7" x="94.67" y="532.97" width="19.26" height="12.74"/><rect class="cls-6" x="90.42" y="545.71" width="89.79" height="1.21"/><path class="cls-8" d="M325.23,662.15s20.75-9.44,17.67-24.06S323,625,325.23,613.47s13.36-29.51,2.59-42.59-28.68-5.23-30.92-25.52c-1.82-16.34-9.37-27.91-24-24.52-13.55,3.14-23.65,13.63-23.9,38.57-.27,26.56-19,19.1-19.2,38.66S245.27,617.78,251.4,631c2.89,6.24-4.66,28.19,17.66,31.15Z"/><path class="cls-9" d="M275.17,531.46s-.05.45-.13,1.32c-.23,2.62-.71,9-.71,17.87,0,26,4.09,73.42,29.94,111.29a1.13,1.13,0,0,1,.12.21h-2.71c-25.62-38.35-29.61-85.54-29.61-111.5a191.47,191.47,0,0,1,.85-19.44,1.13,1.13,0,1,1,2.25.25"/><path class="cls-10" d="M306.75,662.15s-3.18-18-15.42-25.38-24.74-13.06-23.38-24.9-2-25.8-21.6-26.06c-12.12-.16-7.57-12.94-19.89-15.49-7.48-1.55-12.42,6.27-13.38,13.94-1.09,8.75,3.86,17.34-1.82,24.46-7.36,9.22-10.35,26.43,5.48,31.32s1.72,19.89,23.28,22.11h66.73Z"/><path class="cls-9" d="M227.29,578.89c.41,11.49,5.5,27.84,14.22,43.45s21,30.5,35.77,39.27a1.1,1.1,0,0,1,.46.54h-3.89c-14.18-9.19-25.9-23.64-34.31-38.71C230.68,607.56,225.48,591,225,579a1.14,1.14,0,0,1,2.27-.08"/><path class="cls-11" d="M479,664.25s-46.55-21.18-39.64-54S484.12,580.92,479,555s-30-66.23-5.81-95.58,64.36-11.75,69.4-57.26c4.06-36.68,21-62.65,53.84-55,30.39,7.05,53,30.58,53.61,86.56.61,59.6,42.57,42.85,43.09,86.76.52,44.22-34.69,44.22-48.45,73.88-6.49,14,10.45,63.26-39.62,69.9Z"/><path class="cls-9" d="M591.35,371s.11,1,.29,2.95c.53,5.87,1.59,20.17,1.59,40.09,0,58.29-9.18,164.77-67.19,249.75a2.94,2.94,0,0,0-.25.46h6.08c57.48-86,66.43-191.95,66.44-250.21,0-26.81-1.91-43.54-1.92-43.62a2.54,2.54,0,1,0-5,.58"/><path class="cls-12" d="M520.48,664.25s7.14-40.48,34.61-57,55.52-29.3,52.47-55.86S612,493.54,656,493c27.2-.35,17-29,44.63-34.76,16.8-3.48,27.88,14.06,30,31.29,2.45,19.62-8.66,38.9,4.08,54.88,16.53,20.7,23.24,59.31-12.29,70.29s-3.86,44.63-52.23,49.6H520.48Z"/><path class="cls-9" d="M698.81,477.41c-.93,25.79-12.37,62.49-31.93,97.51s-47.22,68.44-80.26,88.13a2.47,2.47,0,0,0-1,1.2h8.73c31.83-20.61,58.12-53,77-86.85,19.87-35.64,31.56-72.77,32.58-99.8a2.54,2.54,0,0,0-5.08-.19"/><rect class="cls-4" x="390.43" y="648.55" width="99.34" height="12.74"/><rect class="cls-4" x="477.19" y="648.55" width="12.59" height="12.74"/><rect class="cls-5" x="464.45" y="648.55" width="12.74" height="12.74"/><rect class="cls-4" x="418.64" y="648.55" width="45.8" height="12.74"/><rect class="cls-7" x="399.38" y="648.55" width="19.26" height="12.74"/><rect class="cls-6" x="395.14" y="661.29" width="89.79" height="1.21"/><rect class="cls-4" x="436.78" y="648.55" width="99.34" height="12.74"/><rect class="cls-4" x="523.53" y="648.55" width="12.59" height="12.74"/><rect class="cls-5" x="510.79" y="648.55" width="12.74" height="12.74"/><rect class="cls-4" x="464.99" y="648.55" width="45.81" height="12.74"/><rect class="cls-7" x="445.73" y="648.55" width="19.26" height="12.74"/><rect class="cls-6" x="441.48" y="661.29" width="89.79" height="1.21"/><rect class="cls-4" x="436.78" y="634.59" width="99.34" height="12.74"/><rect class="cls-4" x="523.53" y="634.59" width="12.59" height="12.74"/><rect class="cls-5" x="510.79" y="634.59" width="12.74" height="12.74"/><rect class="cls-4" x="464.99" y="634.59" width="45.81" height="12.74"/><rect class="cls-7" x="445.73" y="634.59" width="19.26" height="12.74"/><rect class="cls-6" x="441.48" y="647.34" width="89.79" height="1.21"/><rect class="cls-4" x="390.43" y="620.64" width="99.34" height="12.74"/><rect class="cls-4" x="477.19" y="620.64" width="12.59" height="12.74"/><rect class="cls-5" x="464.45" y="620.64" width="12.74" height="12.74"/><rect class="cls-4" x="418.64" y="620.64" width="45.8" height="12.74"/><rect class="cls-7" x="399.38" y="620.64" width="19.26" height="12.74"/><rect class="cls-6" x="395.14" y="633.38" width="89.79" height="1.21"/><rect class="cls-4" x="381.08" y="606.68" width="99.34" height="12.74"/><rect class="cls-4" x="467.83" y="606.68" width="12.59" height="12.74"/><rect class="cls-5" x="455.09" y="606.68" width="12.74" height="12.74"/><rect class="cls-4" x="409.29" y="606.68" width="45.8" height="12.74"/><rect class="cls-7" x="390.02" y="606.68" width="19.26" height="12.74"/><rect class="cls-6" x="385.78" y="619.42" width="89.79" height="1.21"/><rect class="cls-4" x="390.43" y="592.72" width="99.34" height="12.74"/><rect class="cls-4" x="477.19" y="592.72" width="12.59" height="12.74"/><rect class="cls-5" x="464.45" y="592.72" width="12.74" height="12.74"/><rect class="cls-4" x="418.64" y="592.72" width="45.8" height="12.74"/><rect class="cls-7" x="399.38" y="592.72" width="19.26" height="12.74"/><rect class="cls-6" x="395.14" y="605.47" width="89.79" height="1.21"/><rect class="cls-4" x="390.43" y="634.59" width="99.34" height="12.74"/><rect class="cls-4" x="477.19" y="634.59" width="12.59" height="12.74"/><rect class="cls-5" x="464.45" y="634.59" width="12.74" height="12.74"/><rect class="cls-4" x="418.64" y="634.59" width="45.8" height="12.74"/><rect class="cls-7" x="399.38" y="634.59" width="19.26" height="12.74"/><rect class="cls-6" x="395.14" y="647.34" width="89.79" height="1.21"/><rect class="cls-4" x="390.43" y="578.77" width="99.34" height="12.74"/><rect class="cls-4" x="477.19" y="578.77" width="12.59" height="12.74"/><rect class="cls-5" x="464.45" y="578.77" width="12.74" height="12.74"/><rect class="cls-4" x="418.64" y="578.77" width="45.8" height="12.74"/><rect class="cls-7" x="399.38" y="578.77" width="19.26" height="12.74"/><rect class="cls-6" x="395.14" y="591.51" width="89.79" height="1.21"/><path class="cls-13" d="M367.17,636.7a42.33,42.33,0,1,1,55.31,22.91,42.34,42.34,0,0,1-55.31-22.91"/><path class="cls-14" d="M363.7,634.89A42.34,42.34,0,1,1,419,657.79a42.35,42.35,0,0,1-55.32-22.9"/><path class="cls-15" d="M365.49,635.68a42.33,42.33,0,1,1,55.31,22.91,42.34,42.34,0,0,1-55.31-22.91"/><path class="cls-16" d="M365.49,635.68c-.05-.11-.09-.23-.14-.34l78.21-32.41c0,.11.1.23.14.34a42.33,42.33,0,1,1-78.21,32.41"/><path class="cls-4" d="M371.4,633.23a35.93,35.93,0,1,1,47,19.44A35.94,35.94,0,0,1,371.4,633.23Z"/><path class="cls-17" d="M371.4,633.23a35.93,35.93,0,1,1,47,19.44A35.94,35.94,0,0,1,371.4,633.23Z"/><path class="cls-7" d="M410.22,584c9.74,4.75,16.15,12,18.88,18.61C442.24,634.28,415,653.87,384,648.91a35.94,35.94,0,1,0,26.21-65"/><path class="cls-16" d="M378.47,633.86a31.72,31.72,0,0,1,45.13-39.63,31.72,31.72,0,1,0-35.18,52.62,31.58,31.58,0,0,1-9.95-13"/><path class="cls-18" d="M396.58,605.88l-4-4.44,7.24-3.54L401,604q7.74-2.19,12.54,3.12l-6.27,5.16a4.7,4.7,0,0,0-5.67-1.09q-2.83,1.15-2.1,3a1.69,1.69,0,0,0,.95.94,7.23,7.23,0,0,0,3-.14,54,54,0,0,1,7.92-1,8.54,8.54,0,0,1,4.78,1.46,8.91,8.91,0,0,1,3.4,4.27,9.42,9.42,0,0,1-.12,7.71,14,14,0,0,1-6.38,6.32l3.1,4.11-5.89,3-1.62-5.28q-8.69,2.38-14-4.51l7.42-4.76c1.64,2.07,3.84,2.54,6.62,1.42q3.26-1.32,2.53-3.11a1.76,1.76,0,0,0-1.35-1.15,8.45,8.45,0,0,0-3.06.16q-8.19,1.54-11.19,0a8.87,8.87,0,0,1-4.25-4.66,9.93,9.93,0,0,1-.24-7q1.16-3.56,5.44-6.1"/><g class="cls-19"><rect class="cls-20" x="151.2" y="137.85" width="421.86" height="421.93"/></g><path class="cls-18" d="M362.13,226.27A122.55,122.55,0,1,1,239.6,348.82,122.54,122.54,0,0,1,362.13,226.27m0-42.78A165.33,165.33,0,1,1,196.84,348.82,165.31,165.31,0,0,1,362.13,183.49Z"/><path class="cls-18" d="M362.13,313.93a34.89,34.89,0,1,1-34.88,34.89,34.89,34.89,0,0,1,34.88-34.89m0-40.91a75.8,75.8,0,1,1-75.78,75.8A75.8,75.8,0,0,1,362.13,273Z"/><path class="cls-21" d="M480,272.3c-1.49-1.13-1.89-2.18-3.67-2.71-1.3-.39-2.69-1.88-3.82-2.66-.88-.61-4.84-2.66-3.84-4.22a.67.67,0,0,1,.47-.32c-.53-.71.75-1.42,1.21-1.66-.45-.76.74-1.69,1.35-1.78-.85-1.11,2.84-3.77,3.56-2.35,1.33-.39,1.16.1,2,.84a77,77,0,0,1,6.26,6.54c.57.91.86,2,1.84,2.49Z"/><g class="cls-22"><rect class="cls-23" x="477.07" y="263.08" width="92.07" height="44.48"/></g><g class="cls-24"><rect class="cls-25" x="364.9" y="156.26" width="247.87" height="205.26"/></g><path class="cls-26" d="M319.32,445.89c2.44,7.57-1.85,25.83-19.44,39.05-11.78,5.44-25.42,16.1-32.58,11.48-3.85-2.49-2.28-8.35.82-9.09,4.72-4.23,25.36-16.49,26.17-16.93,1.63-.9,16.07-39.79,27.38-42.77,1.36-.87,1.61,12.29-2.35,18.26"/><path class="cls-27" d="M136.4,536.35s-.22-5.17,1.28-5.79,7.19-.06,7.19-.06a2.42,2.42,0,0,1,1.7,2.31c.12,1.94.12,3.54.12,3.54h-1.92s.15-2.86-.2-3.27-5.68-.13-5.68-.13-.73,0-.76,1.47,0,1.93,0,1.93Z"/><path class="cls-21" d="M133.67,522.1c.23,1.87.94,2.74.51,4.56-.32,1.33.27,3.29.38,4.67.08,1.07-.14,5.55,1.73,5.47a.66.66,0,0,0,.51-.25c.35.82,1.61.06,2.06-.21.43.77,1.84.21,2.23-.28.52,1.3,4.71-.56,3.84-1.9,1-1,.49-1.07.26-2.14a78.44,78.44,0,0,0-2.52-8.75c-.5-.95-1.28-1.75-1.24-2.86Z"/><rect class="cls-28" x="116.96" y="535.46" width="13.06" height="50.82"/><g class="cls-29"><rect class="cls-30" x="126.46" y="535.46" width="33.22" height="50.82"/></g><polygon class="cls-27" points="133.27 530.69 135.45 530.69 135.55 530.69 136.76 530.69 136.76 532.8 135.55 532.8 135.55 535.71 133.27 535.71 133.27 530.69"/><path class="cls-31" d="M170,446.92c2.58-5.38.59-15.93-4.89-18.29-1.45-.63-5.53-2.6-8.2-1.1-9.41,5.28-22.45,38.77-23.92,51.09-1.21,10.11-4,39.7,1,48,1.54,2.56,5.94.73,7.22-.05,3.21-1.12,3.79-23.45,10.22-45,5.29-17.8,16.21-29.77,18.54-34.6"/><g class="cls-32"><rect class="cls-33" x="137.78" y="415.31" width="90.5" height="249.34"/></g><path class="cls-21" d="M178.19,383.56s12.47-4.66,18.22,4.83c1.44,2.38,3.68,2.75,3.63,6a34.23,34.23,0,0,0,.36,5.54c.3,1.72,1.62,4.26,1.9,5.65.35,1.73-2.22,2.65-2.28,3.41-.43,6,.44,9.52-2.34,10.55-7,1-18.09.83-21.31-5.11s-6.12-14.53-6-20.27,4.52-8.92,7.8-10.57"/><path class="cls-21" d="M193.22,418.64s-.5,3.27.33,4.88-15.68,1.65-15.68,1.65A108.9,108.9,0,0,0,174,409c-2.55-7.4,19.23,9.63,19.23,9.63"/><path class="cls-34" d="M180.6,417.07c3.08-.91,6-1.85,8.57-4.68.91-1,2.37-9.65,2.88-9.83,1.95-.68,2.87,6,2.87,6,.29-.35,1.32-.64,1.55-1.74.11-.5-.55-3.26-.12-4,.31-.51,2.43-2.33,2.89-3,3.74-5.56,8-11.58,3-15.88a5.77,5.77,0,0,0-3.21-1.19,11.67,11.67,0,0,1-4.88-1.25c-12.28-5.8-36.34,3.07-23.65,27.88,1.78,3.47,7.22,7.35,10.14,7.66"/><path class="cls-35" d="M194.53,423.32s-.05-3.07-1.44-3.37-16.29-1.26-18-.59l-.19,3.92s4.38,1.32,19.63,0"/><path class="cls-21" d="M193.94,404.48c-.26-1.09-2.94-5.56-4-2.21s1.61,7.84,3.1,7.45,1.57-2.46.91-5.24"/><path class="cls-21" d="M260.76,501.79a6.06,6.06,0,0,1-1.13-1.6s-2-1.31-2.23-2.13c-.08-.26-.16-.48-.22-.62-.26-.58.69-1.62.45-3.19s-.93-8.63-.93-8.63l4.51.75c4.54-.95,9.78,1.84,11,6.28,0,.14.07.28.09.42a14.78,14.78,0,0,1-.11,2.94c0,.25,0,2.7-.59,3.16a2.42,2.42,0,0,1-2.27.55,5.75,5.75,0,0,1-2.95,1.11,3.58,3.58,0,0,1-3.09.57s-1.6,1-2.54.39"/><path class="cls-36" d="M174.74,422.49c-6.39,0-15.51,2-19.38,6.49-5.54,6.49-4.17,85.7-2.48,95.83,5.52,15.14,52.41,9.29,66.62,1.25l-2.6-91.48c-9.75-14.88-27-12.09-42.16-12.09"/><path class="cls-21" d="M328.37,463.07,316.79,558.9l5.9,90.51-.59.8-.45.6c-.37.48-.72.93-1.08,1.35-.16.19-.32.38-.49.56-2.66,2.93-6.1,3.64-8.91,4.32-2.18.54-3.86.8-5.34,3.71a2.33,2.33,0,0,0-.11.28,1.67,1.67,0,0,0,1.64,2.12l25.82-.81a2.5,2.5,0,0,0,2.42-2.22,2.26,2.26,0,0,0,0-.52l-1.72-11.28a.16.16,0,0,0,0,0c.62-22,5.6-54.26,1.52-80,0,0,24.39-48.22,24.29-49.39s-31.31-55.85-31.31-55.85"/><path class="cls-21" d="M344.71,549.21c1.12,9.69-5.63,15.43-4.51,25.12,0,24.25,17,52.2,22.75,76.69.19.81-1.26,8.51-1.09,9.31,2.55,2.73,9.82,6.58,10.6-6-3.25-21.15-7.29-55.32-15.67-81.05l5.29-25.64Z"/><g class="cls-37"><rect class="cls-38" x="304.52" y="452.71" width="65.36" height="133.39"/></g><path class="cls-39" d="M366.92,433.15c4.93,20.13-14.82,22.65-10.35,63.28-14.8,2.06-34.31,2.63-47-.5,2-15-3.3-35.05.08-46.59,2.21-7.57,8.27-20.17,12.05-21.71,17.84-5,37.9-5.44,45.25,5.52"/><path class="cls-40" d="M332.48,421.06l-.09,4.88-.71.6c-2.78,3,.23,9.1,3.39,8.91,8,.4,14.16-6.17,11.75-9.74l-1-1.16-.23-6.91c.41,0,3.42-1.73,4.31-2s2.21-2,2.3-3.82-2.72-1.23-2.72-1.23c3.4-4.67,7.26-8.48,2.26-12.68s-16.5-6.66-16.5-6.66l-6.93-2.4c.89,2.39-.29,10.36-2.07,15.34-2.52,7.07-1.12,13.33,6.28,16.88"/><path class="cls-41" d="M342.29,418.6s-3.92,6.71-7.13,7.32-1.57.16-2.77,0l.09-4.89c2.21.36,4.38.19,9.81-2.45"/><path class="cls-42" d="M362.61,428.83c17.75,7.36,30.6,46.71,27,57.64-3.06,8.86-28.64,30.94-36.26,27.75-3.67-1.54-6.2-5.19-.67-8.78,8.08-3.58,21.69-20.95,22.15-23.15.84-6.25-9.24-22.2-12-27.13-3.94-7.11-10.56-28-.21-26.33"/><path class="cls-40" d="M350.75,507.94l-2.65,1.46-6.54.11c-.76-.18-5.57-.37-4.06.92,1.07.9,4.05,2.14,4,2.27-.55,1.71-8.67,5.68-8.73,5.83-.81,2.18,4.49,0,5.41-.37.24-.09-3.32,2.34-3.11,2.47a2,2,0,0,0,1.91.19c1.22-.48,3.19-1.65,3.48-1.52s-3.16,2.47-2.87,2.58a1.75,1.75,0,0,0,1.44,0c1.26-.54,3-1.73,3.36-1.67s-2.23,1.59-1.89,1.63.41.45.65.37c6.45-2.15,5.68-5.53,13.14-7.79,4.14-1.26-2-6.06-3.55-6.43"/><path class="cls-34" d="M341.19,402.2s-9.93.34-13.64-2.87c-7.76-6.68-3-22.6,16.82-16.7,15.79,4.69,10.31,20.31,30.6,27.51,13.27,4.7,21.24,14.17,12.24,33.36,0,0-4.31-8.24-8.52-8.77,5.26,7.85,4,14,2.56,15.27-7.09-14.5-23.46-25.72-35-24.27-7.34-5.39,6.11-21.85-5.08-23.53"/><path class="cls-43" d="M312,656.21s-9,2.49-8.58,5.26c.81,5.6,31.67,1.9,31.84,1.7,1.09-1.36,1.22-7.68-.25-9.57-1.1-1.4-13.17,6.1-23,2.61"/><path class="cls-44" d="M359,664.25c.2,3.59,13.47,2.43,15.43,1.35,2.9-1.6-.49-9.46-2-11.52,0,0-3.38,5.33-7.38,4.25s-2.6-2.26-3.29-.91c-1.28,2.52-2.9,3.51-2.73,6.83"/><path class="cls-45" d="M486.69,594.74Q483,612,479.22,629.22h48.86q3.75-17.24,7.49-34.48H486.69m8.87-40.86q-3.75,17.26-7.48,34.48H537q3.74-17.24,7.48-34.48H495.56Zm56.47-35h7.6q-7.9,36.36-15.78,72.72t-15.77,72.69h-7.59q3.1-14.31,6.22-28.65H477.83q-3.09,14.34-6.21,28.65H464q7.89-36.35,15.77-72.69t15.76-72.72h7.58q-3.09,14.32-6.21,28.66h48.88Z"/><rect class="cls-46" x="495.57" y="512.93" width="103.62" height="5.91"/><path class="cls-47" d="M608.07,594.74q3.75,17.26,7.48,34.48H566.69q-3.75-17.24-7.49-34.48h48.87m-8.86-40.86q3.75,17.26,7.48,34.48H557.82q-3.74-17.24-7.48-34.48h48.87Zm-56.47-35h-7.6q7.9,36.36,15.78,72.72t15.77,72.69h7.59q-3.1-14.31-6.22-28.65h48.88q3.09,14.34,6.21,28.65h7.58q-7.89-36.35-15.77-72.69t-15.77-72.72h-7.57q3.09,14.32,6.21,28.66H549Z"/><g class="cls-48"><rect class="cls-49" x="498.59" y="267.22" width="98.66" height="249"/></g><path class="cls-50" d="M538.84,403.06a321.29,321.29,0,0,0,20.95,62.08c-7.67-25.39-13.5-49.45-19.23-75.4Z"/><path class="cls-21" d="M546.11,235.64S533.7,231,528,240.45c-1.44,2.36-3.67,2.73-3.62,5.94a33.72,33.72,0,0,1-.36,5.5c-.29,1.71-1.61,4.24-1.89,5.62-.35,1.72,2.22,2.64,2.27,3.4.44,6-.43,9.47,2.33,10.49,7,1,18,.82,21.19-5.09s6.09-14.44,6-20.15-4.5-8.87-7.75-10.52"/><path class="cls-21" d="M531.15,270.53s.5,3.25-.32,4.85S546.42,277,546.42,277A109.29,109.29,0,0,1,550.28,261c2.53-7.36-19.13,9.57-19.13,9.57"/><path class="cls-34" d="M543.71,269c-3.07-.9-6-1.83-8.52-4.65-.91-1-2.37-9.6-2.87-9.78-1.94-.67-2.86,6-2.86,6-.29-.35-1.31-.64-1.54-1.74-.1-.49.55-3.23.13-3.93-.32-.51-2.42-2.32-2.88-3-3.72-5.54-8-11.52-2.95-15.8a5.9,5.9,0,0,1,3.2-1.18,11.62,11.62,0,0,0,4.85-1.24c12.21-5.78,36.15,3,23.52,27.72-1.76,3.46-7.18,7.32-10.08,7.62"/><path class="cls-35" d="M529.85,275.19s0-3.06,1.44-3.35,16.2-1.26,17.9-.59l.19,3.89s-4.36,1.32-19.53.05"/><path class="cls-21" d="M530.44,256.46c.26-1.09,2.93-5.54,4-2.21s-1.6,7.8-3.08,7.42-1.57-2.46-.91-5.21"/><path class="cls-21" d="M448.62,277.12s4.1,6.25,4.94,6.15.77,2.37,3.48,1.66c1.53-.4,8.24-2.58,8.24-2.58l-2.48-3.81c-.25-1.19-1.66-2.27-2.51-4.65-.5-1.38-.46-3.79-.81-5.38-.16-.72-1.11-.72-1.74,0s-.62,2.65-1.22,2.84c-.92.29-4.89-5.74-6.06-5.57-6.14,3.85-4.5,6.54-1.84,11.38"/><g class="cls-51"><rect class="cls-52" x="448.13" y="272.53" width="78.08" height="44.71"/></g><g class="cls-53"><rect class="cls-54" x="507.61" y="274.37" width="67.7" height="103.22"/></g><g class="cls-55"><rect class="cls-20" x="616.45" y="423.84" width="93.53" height="244.44"/></g><g class="cls-56"><rect class="cls-57" x="669.61" y="429.27" width="47.39" height="52.16"/></g><g class="cls-58"><rect class="cls-57" x="621.26" y="426.33" width="73.14" height="96.15"/></g><path class="cls-59" d="M630,467.31c2.38,13.51,5.56,32,3.59,50,.84.15,1.69.29,2.53.42,1-2.93,2-4.88,3-18.52s-4.6-39.39-4.6-39.39L630,467.31Z"/><path class="cls-60" d="M633.93,491.31c.27,3.72.43,7.55.43,11.48,2.94.54,8.28-.26,16.85-.37,10.65-.14,15.12,2.61,15.12,2.61s1.33-6.6.85-7.79-9.6-3.38-14.36-4.57c-4.29-1.07-14.23-1.06-18.89-1.36"/><path class="cls-40" d="M671.82,416.54a15.7,15.7,0,0,1-6.75,7.28l.09,4.92.72.61c2.81,3-.23,9.19-3.43,9-8.08.4-14.29-6.23-11.86-9.83l1.06-1.18.23-7c-.42,0-3.45-1.75-4.36-2s-2.23-2-2.31-3.85,2.75-1.25,2.75-1.25c-3.44-4.71-7.34-8.55-2.29-12.79s16.66-6.72,16.66-6.72l7-2.42c-.89,2.41.3,10.45,2.09,15.47,1.61,4.51,2.71,5.21.42,9.76"/><path class="cls-41" d="M655.17,421.34s4,6.77,7.2,7.39,1.58.16,2.79,0l-.09-4.92c-2.23.36-4.42.18-9.9-2.48"/><path class="cls-60" d="M638.79,448.91c-.4-8.47-6.35-18-12.35-10.83-10.38,12.42-20.86,41.67-18,50.2s37,13.64,44.39,10.56c3.47-1.45,4.47-1.76,5.5-4.11.6-1.36,1.21-3.48-1.72-4.78-7.8-3.45-28.8-8.9-29.25-11-1.53-11.42,11.94-19.48,11.45-30"/><g class="cls-61"><rect class="cls-57" x="605.58" y="430.89" width="53.94" height="71.03"/></g><g class="cls-62"><rect class="cls-63" x="659.44" y="439.19" width="15.15" height="72.47"/></g><path class="cls-40" d="M657,491.37l3.33,1.08,7.46-1.3c.83-.38,6.26-1.65,4.81.14-1,1.26-4.13,3.33-4.05,3.47,1,1.82,11.1,4.55,11.2,4.71,1.4,2.3-5.11.95-6.23.77-.29-.05,4.28,1.93,4.07,2.12a2.26,2.26,0,0,1-2.12.64c-1.5-.28-4-1.18-4.3-1s4.14,2.11,3.83,2.3a2,2,0,0,1-1.64.25c-1.55-.33-3.81-1.31-4.19-1.16s2.88,1.32,2.51,1.44-.37.6-.66.57c-7.8-1-7.67-5-16.64-6-5-.53.9-7.32,2.62-8.09"/><path class="cls-40" d="M703.09,432c-.56-1.19-3.24-6.23-3-7.46.12-.63.33-.54.67-.44s1.06.16,1.29.55c.48.83,1.16.76,1.36,1.25,1.36-2.84.94-6.07,1.15-9.21.08-1.27,3.46-2.13,3.87-.25.82,3.81,6.44,6.07,3.39,10.3-2.4,3.33-1.29,4.29-2.35,8-1,0-4.68,1.81-6.62-.33Z"/><path class="cls-44" d="M697.17,417.42c4.53,4.59,6,10.34,8.43,12.28a7.7,7.7,0,0,0,1.57,1,1.29,1.29,0,0,0,1.62-.46c.67-1,1.64-2.32,2.34-3.34.55-.79-.29-1.53-.87-2a6.37,6.37,0,0,1-1.47-2,39.13,39.13,0,0,0-2.48-5.3,20.33,20.33,0,0,0-2.76-3.68l-6,2.92Z"/><path class="cls-44" d="M705,418.59a39.13,39.13,0,0,1,2.48,5.3,6.37,6.37,0,0,0,1.47,2c.58.51,1.42,1.25.87,2s-1.38,2-2,2.87a1.25,1.25,0,0,0,1-.57c.67-1,1.64-2.32,2.34-3.34.55-.79-.29-1.53-.87-2a6.37,6.37,0,0,1-1.47-2,39.13,39.13,0,0,0-2.48-5.3c-.3-.49-.59-.93-.86-1.32l-1.88.27a23.88,23.88,0,0,1,1.42,2.09"/><g class="cls-64"><rect class="cls-65" x="690.46" y="381.88" width="44.22" height="39.79"/></g><path class="cls-34" d="M725.75,368.38c4.4-1.26,8.82,2.43,11.76,6,4.28,5.24,7.42,12.4,9.32,19.19A56,56,0,0,1,749,413.78c-.47,4.54-2,9.94-5.71,12a6.47,6.47,0,0,1-1.37.56c-4.39,1.25-8.81-2.44-11.76-6.05-4.27-5.23-7.41-12.39-9.31-19.19a56,56,0,0,1-2.15-20.17c.48-4.54,2-9.93,5.72-12a6.39,6.39,0,0,1,1.36-.56"/><path class="cls-59" d="M726.71,370.78c6.28-1.8,14.67,8.63,18.75,23.3s2.28,28-4,29.82-14.67-8.63-18.75-23.3-2.28-28,4-29.82"/><path class="cls-44" d="M694.59,399.74c-3.48,5.64-.35,15.87,3.35,19.4-12.79,2.19-17.29-13.38-5.06-18.7Z"/><path class="cls-40" d="M712.12,426.22s-3,3.49-3.56,2.57,1.2-4,1.2-4l-4.07,1.71s-1-.37-.33-1.61a18.76,18.76,0,0,1,2.16-2.87l-4.42,1.29s-.7-.6-.14-1.08a29.75,29.75,0,0,1,2.78-1.73l-3.88.94a1.39,1.39,0,0,1,.55-1.61,22.63,22.63,0,0,1,2.53-1.71l2.2-.32.81.33a15.54,15.54,0,0,1,1.28,1.94c0,.26,2,3.51,2,3.51Z"/><g class="cls-66"><rect class="cls-67" x="722.58" y="391.37" width="18.41" height="17.7"/></g><path class="cls-18" d="M736.24,391.37c2.45.06,5,7.88,3.5,10.6-2.18,1.48-6.62-10.31-3.5-10.6"/><path class="cls-34" d="M667.86,401.29c-5.88,3-12.66-.56-16.09,3.47-1.7,2-1.53,4.88.38,9.34.56,1.31,1.3,2.27-.91,1.25-1-.47-2.69-1.13-3.27-.67-1.27,1-.63,3.19.39,3.89.45.31,1.31.77,1.31.77-7.92-1.5-11.21-8.64-11.1-14.39a24.59,24.59,0,0,1,.62-5.23,5.79,5.79,0,0,1-.25-1.68,5.46,5.46,0,0,1,3.77-5.27,5.31,5.31,0,0,1,5.16-4.59,5,5,0,0,1,2.19.5l.26-.07a5.55,5.55,0,0,1,8.49-1.31,7.57,7.57,0,0,1,6.07-3.21c4.34,0,7.86,4,7.86,8.85a9.95,9.95,0,0,1-4.88,8.35"/><g class="cls-68"><rect class="cls-20" x="532.62" y="103.89" width="73.68" height="99.79"/></g><g class="cls-69"><rect class="cls-20" x="538.56" y="155.85" width="109.01" height="58.15"/></g><path class="cls-70" d="M223.16,486.39c7.87,3.89,36.36,16.8,38.31,10.11s-.72-9.6-.72-9.6-24.37-17-27.39-18c-2.28-.75-13.07-29.85-18.82-37.38-9.55-8.72-18.53,36.63,8.62,54.92"/><path class="cls-34" d="M313.07,19.57a28,28,0,0,0,1.67,9.09,26.2,26.2,0,0,1-.11,16.15c-1.57,5.35,3.06,14.62,4.2,15s15.73,3,18.75,2.77,17-16.62,17-16.62l-1.51-14.35Z"/><path class="cls-21" d="M291.2,127.9l-28.36,19.95-1.26,88.85-.63.73-.49.55c-.39.44-.78.85-1.16,1.24l-.52.5c-2.83,2.66-6.24,3.08-9,3.54-2.17.35-3.83.47-5.5,3.2a1.51,1.51,0,0,0-.12.26,1.62,1.62,0,0,0,1.43,2.2l25.28,1.21a2.44,2.44,0,0,0,2.53-2,2.24,2.24,0,0,0,0-.52l-.81-11.14v-.05c2.32-21.44,9.68-52.55,7.69-78,0,0,31.15-36.52,31.15-37.67s-20.23,7.09-20.23,7.09"/><path class="cls-21" d="M291.52,140.37c1.1,9.49-5.52,15.12-4.42,24.61,0,23.75,16.65,51.13,22.28,75.12.19.79-1.23,8.34-1.07,9.13,2.5,2.67,9.63,6.44,10.39-5.89-3.19-20.71-7.15-54.19-15.35-79.39l5.18-25.13Z"/><g class="cls-71"><rect class="cls-49" x="250.38" y="95.04" width="120.36" height="84.73"/></g><path class="cls-72" d="M308.17,58.53s8.29,28.83,2.78,41.9c-.7,1.67-3.38,2.33-5.72,4.65-5,5-11.46,11.87-14.44,12.56-10.83,2.51-15.74.45-14.64-6.66.34-2.2,4.39-4.36,8.91-5.76C289,104,294.22,94.69,296.5,89.37c6.62-15.44,5.88-38.92,17.55-46.67,1.32-.85-2,10-5.88,15.83"/><path class="cls-73" d="M360.34,47.31C365.17,67,346.22,66,350.61,105.83c-14.5,2-33.05,2.7-45.51-.36,2-14.65-.07-26.12-.65-34.11a40.33,40.33,0,0,1,6.82-26.57c4.26-6.6,40.9-9.66,49.07,2.52"/><path class="cls-74" d="M349.94,94.6c-.16,4.18.07,5.81.67,11.23A134.79,134.79,0,0,1,336,107.26c1.2-2.66,11.07-10.71,14-12.66"/><path class="cls-40" d="M323,37.43l1.22,4.71-.52.77c-1.88,3.61,2.65,8.68,5.64,7.65,7.8-1.76,11.95-9.71,8.68-12.49l-1.31-.84-2.07-6.57c.39-.14,2.82-2.58,3.61-3.08s1.59-2.52,1.18-4.29-2.94-.45-2.94-.45c2-5.4,4.72-10.09-1.21-12.79s-17.63-2-17.63-2l-7.29-.45c1.49,2.06,2.56,7.05,2.18,12.3-.53,7.47,4,16.21,10.46,17.51"/><path class="cls-41" d="M331.74,32.45s-2,7.49-4.89,8.94-1.46.57-2.65.75L323,37.43c2.22-.25,4.26-1,8.76-5"/><path class="cls-75" d="M356.11,44c18,5.58,15.57,43.93,13,54.92-2.18,8.92-31.48,32.6-39.2,30.18-3.72-1.16-6.19-5.52-1.12-9.52,1.77-2.08,24.94-23.19,25.19-25.38.58-14.14-10.37-51,2.13-50.2"/><polygon class="cls-76" points="281.49 125.37 328.48 126.08 312.18 140.07 260.53 140.07 281.49 125.37"/><polygon class="cls-77" points="245.8 102.06 304.63 102.06 312.18 140.07 253.35 140.07 245.34 102.38 245.8 102.06"/><path class="cls-40" d="M327.41,122l-1.78,1-6.41.11c-.75-.18-5.46-.36-4,.9,1.05.88,3.71,1.92,3.67,2-2.12,1.59-7.86,5.1-7.92,5.25-.79,2.14,4.85-.76,5.75-1.09.23-.08-3.69,3-3.49,3.14a1.87,1.87,0,0,0,1.86.19c1.21-.47,3.59-2.34,3.87-2.21s-3.55,3.15-3.26,3.25a1.62,1.62,0,0,0,1.4,0c1.24-.52,3.4-2.42,3.74-2.35s-2.24,2-2.3,2.31.41.45.64.37c6.32-2.1,4.63-4,11.93-6.21,4.06-1.23-2.17-6.27-3.72-6.64"/><path class="cls-34" d="M326.75,19.14s-10.44,4-14.85,1.89C304.28,17.4,305.43.19,324.76,0c16.42.29,18,16.76,29,18.15,11.36.79,15.29,12.25,11.19,20.42,0,0-5.08-4.94-9.27-4.33,8,4.68,7.54,10.27,6.2,13.64C359,44.88,351.75,40.21,339,39c-8.48-3.2-1-21.28-12.22-19.9"/><path class="cls-43" d="M250.58,242.5s-9,1.73-8.79,4.47c.36,5.53,30.79,4.32,31,4.13,1.18-1.24,1.79-7.4.5-9.36-1-1.45-13.33,4.94-22.67.76"/><path class="cls-44" d="M305.54,253.06c.19,3.52,12.91,2.51,14.82,1.45,2.85-1.57-.62-12.64-1.69-11.41,0,0-3.32,5.22-7.24,4.17s-2.55-2.22-3.22-.9c-1.25,2.47-2.85,3.44-2.67,6.69"/><path class="cls-18" d="M278,117a3.53,3.53,0,1,1-3.68,3.53A3.61,3.61,0,0,1,278,117"/></svg>