<svg id="Layer_1" data-name="Layer 1" xmlns="http://www.w3.org/2000/svg" xmlns:xlink="http://www.w3.org/1999/xlink" viewBox="0 0 407.08 336.98"><defs><style>.cls-1{fill:url(#Gradiente_sem_nome_69);}.cls-2{fill:#12348e;}.cls-11,.cls-3{fill:#a1a7ff;}.cls-4{fill:#e6e9f8;}.cls-5{fill:#fff;}.cls-6{fill:#fa3e6a;}.cls-7{fill:#e55740;}.cls-8{fill:#ffb91f;}.cls-9{fill:#a3b2d5;}.cls-10{fill:#abc0df;}.cls-11{fill-rule:evenodd;}.cls-12{fill:#ffecb1;}</style><linearGradient id="Gradiente_sem_nome_69" y1="170.32" x2="407.08" y2="170.32" gradientUnits="userSpaceOnUse"><stop offset="0.16" stop-color="#e08197"/><stop offset="1" stop-color="#e08197" stop-opacity="0"/></linearGradient></defs><title>Rise of Edge Computing</title><path class="cls-1" d="M386.27,180.52c-5.62-20.14,12.23-20.92,12.62-46.87.16-10.61-5.65-21.42-19.64-26.38-6.88-2.44-13.73-4.11-19.85-8-13.94-8.83-13.69-25.63-17.49-39.95-8.36-31.46-40.5-56.45-73-55.64C245.41,4.27,224.2,5,202.82,24.9c-14.63,13.63-24.14,30.39-37.73,44.44-14.39,14.87-31.92,22-51.6,26.78-18.62,4.52-38.87,9.9-53.12,23.45-13.39,12.74-11.44,26.06-5.7,41.69C61,178.51,47.28,190.24,33,197,20.91,202.61.73,214.1.07,235.31-2,301,39.75,301.24,55.3,307.49c143.07,57.42,198,13.13,258.65,14,60.47.9,95.14-72.24,93-93.78C404.32,200.38,390.19,194.58,386.27,180.52Z"/><path class="cls-2" d="M53.59,250.94H91.92a0,0,0,0,1,0,0v49.81A2.89,2.89,0,0,1,89,303.64H56.48a2.89,2.89,0,0,1-2.89-2.89V250.94A0,0,0,0,1,53.59,250.94Z"/><path class="cls-3" d="M94.42,226.77l-3.83-1.34,2.18-5.22a1.7,1.7,0,0,1,2.12-1h0A1.7,1.7,0,0,1,96,221.32Z"/><path class="cls-4" d="M67.45,296.24c-.65,1.94-.94,3.55-.65,3.66s1.07-1.34,1.77-3.27Z"/><rect class="cls-5" x="72.34" y="235.12" width="31.92" height="6.08" transform="translate(-165.65 243.22) rotate(-70.8)"/><polygon class="cls-5" points="66.13 291.56 72.51 293.78 73.31 292.9 66.05 290.37 66.13 291.56"/><rect class="cls-3" x="68.91" y="272.77" width="13.9" height="2.22" transform="translate(-207.73 255.44) rotate(-70.8)"/><rect class="cls-5" x="71.21" y="276.01" width="7.05" height="2.22" transform="translate(-211.54 256.55) rotate(-70.8)"/><rect class="cls-5" x="82.5" y="250.23" width="1.09" height="6.08" transform="matrix(0.33, -0.94, 0.94, 0.33, -183.45, 248.39)"/><rect class="cls-3" x="92.35" y="221.89" width="1.09" height="6.08" transform="translate(-150.07 238.67) rotate(-70.8)"/><path class="cls-5" d="M74.23,290.64a87.47,87.47,0,0,1,3.31-12.32l18.89-54.23-5.75-2L71.79,276.32A88,88,0,0,1,66.73,288l-.6,1.15a1.11,1.11,0,0,0-.12.57l.52,7.87a1.08,1.08,0,0,0,.73,1h0a1.1,1.1,0,0,0,1.17-.3l5.29-5.84a1.15,1.15,0,0,0,.26-.53Z"/><path class="cls-6" d="M345.32,212.83a20.52,20.52,0,0,1-10.84,19.67c-4.39,2.63-9.65,1.75-14,0a20.72,20.72,0,0,1-7.89-7c-2.63-5.26-4.38-9.64-3.51-15.78.88-4.38,1.76-8.76,5.26-11.39a17.83,17.83,0,0,1,13.15-5.26c2.63,0,4.39.87,7,1.75,4.38,2.63,7.89,6.14,9.36,10.2A21.82,21.82,0,0,1,345.32,212.83Z"/><path class="cls-6" d="M340.57,213.34c0,8.64-2.59,20-13.11,20.91a10.77,10.77,0,0,1-9.64-6.14c-.88-3.5-2.63-6.13-3.51-9.64,0-5.26-.87-11.4,1.76-16.66a18.2,18.2,0,0,1,3.5-5.25c1.76-2.64,5.26-2.64,7.89-3.51a12.36,12.36,0,0,1,5.26,1.75c3.51,2.63,5.26,7,6.75,10.51A31.28,31.28,0,0,1,340.57,213.34Z"/><path class="cls-6" d="M335.65,213.75c-.3,7.35-.3,20.5-7.31,18.75-13.15-3.51-14-33.31-.88-38.58,4.39-1.75,6.14,7,7.47,11.63A52,52,0,0,1,335.65,213.75Z"/><path class="cls-6" d="M331.42,214c-.45,7.14.43,14.15-4,20.29-6.13-12.27-6.13-28.93,0-41.2,2.63,3.51,3.51,7.89,3.56,12.63C331.24,208.21,331.38,211,331.42,214Z"/><path class="cls-4" d="M306.12,229.71l8.78,29.35s3.49,2.65,11.23,2.79A40.84,40.84,0,0,0,339.39,260l9.83-29.44Z"/><rect class="cls-2" x="303.93" y="225.91" width="47.14" height="11.83" rx="1.75"/><path class="cls-2" d="M378.64,287.87c-.12,0-.26,0-.26.06v-.48h-102c-1.6,0-2.89,3.93-2.89,8.52s1.29,8.51,2.89,8.51h102v-.07s.14.07.26.07c1.6,0,2.89-3.72,2.89-8.31S380.24,287.87,378.64,287.87Z"/><path class="cls-3" d="M374.22,290.2H354.58c.94,1.1,1.22,3.84,1.22,6.62s-.26,4.91-1.18,6.56h19.6c1,0,1.8-3,1.8-6.59S375.22,290.2,374.22,290.2Z"/><path class="cls-3" d="M280.32,296.42a15.61,15.61,0,0,1,1.33-6.77H278c-1,0-1.8,3-1.8,6.59s.8,6.59,1.8,6.59h3.45A16.68,16.68,0,0,1,280.32,296.42Z"/><path class="cls-6" d="M369.27,272.68c-.1,0-.47-.06-.47-.06H288c-1.27,0-2.3,3.17-2.3,7.42s1,7.41,2.3,7.41h81v.3s.26.06.35.06c1.27,0,2.25-3.45,2.25-7.7S370.54,272.68,369.27,272.68Z"/><path class="cls-6" d="M369.27,272.63H288c-1.27,0-2.3,3.3-2.3,7.14h85.84C371.58,275.92,370.54,272.63,369.27,272.63Z"/><path class="cls-7" d="M290.47,280.22a14.16,14.16,0,0,1,1.39-6.5h-1.57c-1,0-1.8,3-1.8,6.59s.8,6.59,1.8,6.59H292C291.09,285.8,290.47,283.13,290.47,280.22Z"/><rect class="cls-5" x="325.64" y="277.01" width="40.65" height="3.3"/><path class="cls-8" d="M355.94,257.48h-.09v.31H295.43v-.31c-1.65,0-1.91,3.38-1.91,7.49s.26,7.44,1.91,7.49v.16h60.42v-.16h.09c1.06,0,1.92-3.35,1.92-7.49S357,257.48,355.94,257.48Z"/><path class="cls-2" d="M220.34,299.43c-3.57-5.18-3.89-12.17-3.89-12.17H192.7s-.32,7-3.88,12.17-11,8.43-11,8.43h53.55S223.9,304.62,220.34,299.43Z"/><rect class="cls-2" x="86.75" y="131.15" width="234.98" height="160.09" rx="7.78"/><path class="cls-3" d="M86.75,269v14.43a7.77,7.77,0,0,0,7.77,7.78H314a7.78,7.78,0,0,0,7.78-7.78V269Z"/><path class="cls-9" d="M54.79,85.63c-.11-.16-.14-.16-.1,0a.84.84,0,1,0-.71,1c-.16,0-.14,0,0,.09a.68.68,0,0,0,.77-1.05Z"/><path class="cls-9" d="M48.86,105.48a1.81,1.81,0,0,0,.57-1.14.54.54,0,0,0-.74-.55,1.81,1.81,0,0,0-.91.9.67.67,0,0,0,1.08.79Z"/><path class="cls-9" d="M60.31,103a.66.66,0,0,0,.78-1.06.66.66,0,0,0-.78,1.06Z"/><path class="cls-9" d="M314.21,53.49l.79,0a.8.8,0,0,0,.77-.58,1,1,0,0,0,0-.42A.79.79,0,0,0,315,52l-.79,0a.76.76,0,0,0,0,1.51Z"/><path class="cls-9" d="M320.66,69.61a.49.49,0,0,0,0-1,.49.49,0,0,0,0,1Z"/><path class="cls-9" d="M311.73,62.3a.63.63,0,0,0,0-1.25.63.63,0,0,0,0,1.25Z"/><path class="cls-9" d="M117.41,157.41a2.19,2.19,0,0,0-.9-.27.45.45,0,0,0-.46.46,2,2,0,0,0,.26.9c.68,1.14,2.24-.41,1.1-1.09Z"/><path class="cls-9" d="M110.05,151.51l.34,0a.84.84,0,0,0,0-1.67l-.34,0c-1.1-.09-1.11,1.81,0,1.72Z"/><path class="cls-9" d="M124,120.1a.75.75,0,0,0,0-1.49.75.75,0,0,0,0,1.49Z"/><path class="cls-9" d="M126,126.06a.75.75,0,0,0,0-1.5.75.75,0,0,0,0,1.5Z"/><path class="cls-9" d="M327.17,182.23a.71.71,0,0,0,0-1.41.71.71,0,0,0,0,1.41Z"/><path class="cls-9" d="M335.61,180.76a1.11,1.11,0,0,0-1,.47.59.59,0,0,0,0,.6,1.11,1.11,0,0,0,1,.46.77.77,0,0,0,0-1.53Z"/><path class="cls-9" d="M331.16,175.05a3.45,3.45,0,0,0-.54-.46.7.7,0,0,0-.95,1,3.31,3.31,0,0,0,.45.54c.67.67,1.72-.37,1-1Z"/><path class="cls-9" d="M335.11,170.76a.65.65,0,0,0,0-1.3.65.65,0,0,0,0,1.3Z"/><path class="cls-10" d="M371.12,267.12a1.62,1.62,0,0,0,0-3.23,1.62,1.62,0,0,0,0,3.23Z"/><path class="cls-10" d="M372.41,248.79c0,.11,0,.21-.05.32a1.29,1.29,0,1,0,2.48,0c0-.11,0-.21,0-.32a1.25,1.25,0,0,0-2.38,0Z"/><path class="cls-10" d="M381.05,266a1.5,1.5,0,0,0,0-3,1.5,1.5,0,0,0,0,3Z"/><path class="cls-10" d="M59.68,293l.3.11a1.67,1.67,0,1,0,0-3.21l-.3.12a1.56,1.56,0,0,0,0,3Z"/><path class="cls-10" d="M76,294.23a1.78,1.78,0,0,0,0-3.56,1.78,1.78,0,0,0,0,3.56Z"/><path class="cls-10" d="M70,277a1,1,0,0,0,0-2,1,1,0,0,0,0,2Z"/><path class="cls-10" d="M140.34,34.14a1.7,1.7,0,0,0,0-3.4,1.7,1.7,0,0,0,0,3.4Z"/><path class="cls-10" d="M156.23,40.23a1.34,1.34,0,0,0,0-2.68,1.34,1.34,0,0,0,0,2.68Z"/><path class="cls-10" d="M157.36,26.19l-.31.06a1.27,1.27,0,0,0,0,2.44l.31.06a1.33,1.33,0,1,0,0-2.56Z"/><rect class="cls-3" x="175.8" y="304.48" width="57.93" height="6.02" rx="0.87"/><rect class="cls-4" x="95.27" y="138.97" width="217.21" height="121.89" rx="3.41"/><path class="cls-3" d="M306.12,151.27a3.41,3.41,0,0,0-3.41-3.41H107a3.4,3.4,0,0,0-3.41,3.41v9.57H306.12Z"/><path class="cls-5" d="M103.56,160.84v87.72A3.4,3.4,0,0,0,107,252H302.71a3.41,3.41,0,0,0,3.41-3.41V160.84Z"/><path class="cls-4" d="M321.14,149.2a2.62,2.62,0,0,1,.59.88v-1.54Z"/><polygon class="cls-2" points="133.01 315.12 269.15 315.12 291.31 325.77 107.91 325.77 133.01 315.12"/><rect class="cls-3" x="107.91" y="325.77" width="183.4" height="2.92"/><rect class="cls-2" x="198.15" y="273.15" width="12.49" height="12.49" rx="5.63"/><polygon class="cls-3" points="148.7 319.04 141.69 319.04 146.24 317.05 152.68 317.05 148.7 319.04"/><polygon class="cls-3" points="140.16 319.03 133.15 319.03 138.38 317.05 144.82 317.05 140.16 319.03"/><polygon class="cls-3" points="165.78 319.06 158.78 319.05 161.94 317.05 168.38 317.05 165.78 319.06"/><polygon class="cls-3" points="157.24 319.05 150.24 319.04 154.09 317.05 160.53 317.05 157.24 319.05"/><polygon class="cls-3" points="183.01 319.07 176 319.06 177.78 317.05 184.22 317.05 183.01 319.07"/><polygon class="cls-3" points="174.47 319.06 167.46 319.06 169.92 317.05 176.36 317.05 174.47 319.06"/><polygon class="cls-3" points="200.09 319.09 193.09 319.08 193.48 317.05 199.92 317.05 200.09 319.09"/><polygon class="cls-3" points="191.55 319.08 184.55 319.07 185.63 317.05 192.07 317.05 191.55 319.08"/><polygon class="cls-3" points="217.24 319.1 210.24 319.1 209.25 317.05 215.69 317.05 217.24 319.1"/><polygon class="cls-3" points="208.7 319.09 201.69 319.09 201.4 317.05 207.83 317.05 208.7 319.09"/><polygon class="cls-3" points="234.32 319.12 227.32 319.11 224.96 317.05 231.39 317.05 234.32 319.12"/><polygon class="cls-3" points="225.78 319.11 218.78 319.1 217.1 317.05 223.54 317.05 225.78 319.11"/><polygon class="cls-3" points="251.55 319.13 244.54 319.13 240.79 317.05 247.22 317.05 251.55 319.13"/><polygon class="cls-3" points="243 319.12 236 319.12 232.93 317.05 239.37 317.05 243 319.12"/><polygon class="cls-3" points="268.63 319.15 261.63 319.14 256.49 317.05 262.93 317.05 268.63 319.15"/><polygon class="cls-3" points="260.09 319.14 253.09 319.13 248.64 317.05 255.08 317.05 260.09 319.14"/><polygon class="cls-3" points="144.17 321.44 136.49 321.42 141.01 319.44 148.13 319.44 144.17 321.44"/><polygon class="cls-3" points="134.8 321.42 127.12 321.4 132.33 319.43 139.45 319.43 134.8 321.42"/><polygon class="cls-3" points="162.92 321.47 155.23 321.45 158.38 319.45 165.5 319.46 162.92 321.47"/><polygon class="cls-3" points="153.55 321.45 145.86 321.44 149.7 319.44 156.81 319.45 153.55 321.45"/><polygon class="cls-3" points="181.81 321.5 174.12 321.49 175.88 319.47 183 319.48 181.81 321.5"/><polygon class="cls-3" points="172.44 321.49 164.75 321.47 167.2 319.46 174.32 319.47 172.44 321.49"/><polygon class="cls-3" points="200.55 321.54 192.87 321.52 193.24 319.49 200.36 319.5 200.55 321.54"/><polygon class="cls-3" points="191.18 321.52 183.5 321.5 184.56 319.48 191.68 319.49 191.18 321.52"/><polygon class="cls-3" points="219.36 321.57 211.68 321.56 210.67 319.51 217.79 319.52 219.36 321.57"/><polygon class="cls-3" points="209.99 321.55 202.31 321.54 201.99 319.5 209.11 319.51 209.99 321.55"/><polygon class="cls-3" points="238.1 321.6 230.42 321.59 228.03 319.53 235.15 319.53 238.1 321.6"/><polygon class="cls-3" points="228.73 321.59 221.05 321.57 219.35 319.52 226.47 319.52 228.73 321.59"/><polygon class="cls-3" points="256.99 321.64 249.31 321.62 245.53 319.55 252.65 319.55 256.99 321.64"/><polygon class="cls-3" points="247.62 321.62 239.94 321.61 236.85 319.54 243.97 319.54 247.62 321.62"/><polygon class="cls-3" points="275.73 321.67 268.05 321.66 262.9 319.56 270.02 319.57 275.73 321.67"/><polygon class="cls-3" points="266.37 321.65 258.68 321.64 254.22 319.55 261.34 319.56 266.37 321.65"/><polygon class="cls-3" points="139.54 323.77 131.19 323.75 135.72 321.76 143.5 321.78 139.54 323.77"/><polygon class="cls-3" points="129.36 323.74 121.02 323.72 126.23 321.74 134.01 321.76 129.36 323.74"/><polygon class="cls-3" points="159.9 323.82 151.55 323.8 154.69 321.8 162.47 321.81 159.9 323.82"/><polygon class="cls-3" points="149.72 323.79 141.37 323.77 145.21 321.78 152.99 321.79 149.72 323.79"/><polygon class="cls-3" points="200.5 323.92 172.07 323.85 173.82 321.83 200.32 321.88 200.5 323.92"/><polygon class="cls-3" points="170.24 323.85 161.89 323.82 164.34 321.82 172.12 321.83 170.24 323.85"/><polygon class="cls-3" points="221.2 323.97 212.85 323.95 211.85 321.9 219.63 321.92 221.2 323.97"/><polygon class="cls-3" points="211.02 323.95 202.68 323.93 202.36 321.89 210.14 321.9 211.02 323.95"/><polygon class="cls-3" points="241.56 324.02 233.21 324 230.83 321.94 238.6 321.96 241.56 324.02"/><polygon class="cls-3" points="231.38 324 223.03 323.98 221.34 321.92 229.12 321.94 231.38 324"/><polygon class="cls-3" points="262.07 324.08 253.73 324.06 249.95 321.98 257.73 321.99 262.07 324.08"/><polygon class="cls-3" points="251.9 324.05 243.55 324.03 240.47 321.96 248.25 321.98 251.9 324.05"/><polygon class="cls-3" points="282.43 324.13 274.09 324.11 268.93 322.01 276.71 322.03 282.43 324.13"/><polygon class="cls-3" points="272.25 324.1 263.91 324.08 259.45 322 267.23 322.01 272.25 324.1"/><path class="cls-11" d="M119.77,105.78a6,6,0,1,1,1,6.24,6,6,0,0,1-1-6.24Zm-6.94,14.88,4.41,3.2,3.31-4.58a12.14,12.14,0,0,0,3.93.94l.89,5.58,5.38-.85-.89-5.59a12,12,0,0,0,3.44-2.11l4.57,3.32,3.2-4.4-4.57-3.32a12.32,12.32,0,0,0,.93-3.93L143,108l-.86-5.37-5.58.89a12.13,12.13,0,0,0-2.11-3.44l3.32-4.58-4.41-3.19-3.32,4.57a12,12,0,0,0-3.92-.94l-.89-5.58-5.37.85.88,5.59a12,12,0,0,0-3.44,2.11l-4.58-3.32-3.19,4.4,4.58,3.32a11.88,11.88,0,0,0-.94,3.93l-5.59.89.86,5.37,5.58-.89a12.13,12.13,0,0,0,2.11,3.44Z"/><path class="cls-11" d="M105.11,80.94a4.78,4.78,0,0,1,8.1.42,4.7,4.7,0,0,1-.26,5,4.77,4.77,0,0,1-7.84-5.44ZM97.26,91.37l2.89,3.21,3.34-3a9.54,9.54,0,0,0,2.9,1.38l-.23,4.49,4.31.22.24-4.49a9.57,9.57,0,0,0,3-1.07l3,3.34,3.21-2.9-3-3.34a9.43,9.43,0,0,0,1.38-2.9l4.49.24.22-4.32L118.54,82a9.39,9.39,0,0,0-1.07-3l3.34-3-2.9-3.21-3.33,3a9.65,9.65,0,0,0-2.9-1.38l.23-4.49-4.32-.22-.23,4.49a9.63,9.63,0,0,0-3,1.07l-3-3.34-3.22,2.9,3,3.34A9.46,9.46,0,0,0,99.75,81l-4.49-.23L95,85.1l4.49.23a9.88,9.88,0,0,0,1.07,3Z"/><path class="cls-11" d="M288.17,74.55a3.81,3.81,0,1,1-2.65,3,3.77,3.77,0,0,1,2.65-3ZM278.09,77.2l.22,3.45,3.58-.24a7.61,7.61,0,0,0,1.14,2.3l-2.37,2.7,2.6,2.27,2.37-2.7a7.47,7.47,0,0,0,2.42.83l.24,3.58,3.45-.23-.24-3.58a7.61,7.61,0,0,0,2.3-1.14l2.7,2.37,2.27-2.6-2.7-2.36a7.61,7.61,0,0,0,.83-2.43l3.58-.24-.23-3.44-3.58.23a7.56,7.56,0,0,0-1.14-2.29L297.9,71l-2.6-2.28-2.36,2.7a7.59,7.59,0,0,0-2.43-.82L290.27,67l-3.44.23.23,3.58a7.45,7.45,0,0,0-2.29,1.14l-2.71-2.37-2.27,2.6,2.7,2.37a7.45,7.45,0,0,0-.82,2.42Z"/><path class="cls-11" d="M183.93,11.53a5.15,5.15,0,0,1,8.53,2,5.1,5.1,0,0,1-1.21,5.29,5.15,5.15,0,1,1-7.32-7.25Zm-10.3,9.63,2.48,3.95,4.11-2.57a10.42,10.42,0,0,0,2.82,2L182,29.27l4.55,1.05,1.08-4.73A10.63,10.63,0,0,0,191,25l2.58,4.11,3.95-2.48L195,22.53a10.47,10.47,0,0,0,2-2.83l4.73,1.09,1.05-4.55L198,15.15a10.26,10.26,0,0,0-.57-3.41l4.11-2.58-2.48-4L195,7.78a10.15,10.15,0,0,0-2.83-2L193.22,1l-4.55-1-1.09,4.73a10.31,10.31,0,0,0-3.41.58l-2.58-4.12-4,2.49,2.58,4.11a10,10,0,0,0-2,2.82l-4.74-1.08-1,4.55,4.73,1.08a10.37,10.37,0,0,0,.58,3.42Z"/><path class="cls-11" d="M255.44,101.54a2.78,2.78,0,0,1,4.6,1,2.78,2.78,0,1,1-4.6-1Zm-5.54,5.18,1.33,2.13,2.22-1.39a5.55,5.55,0,0,0,1.52,1.08l-.59,2.55,2.46.56.58-2.54a6.12,6.12,0,0,0,1.84-.31l1.39,2.21,2.12-1.34-1.38-2.21a5.55,5.55,0,0,0,1.08-1.52l2.54.58.57-2.45-2.55-.58a5.56,5.56,0,0,0-.31-1.84l2.21-1.39-1.33-2.13-2.22,1.39a5.4,5.4,0,0,0-1.52-1.08l.59-2.55L258,95.33l-.59,2.55a5.6,5.6,0,0,0-1.84.31L254.19,96l-2.13,1.33,1.38,2.21a5.7,5.7,0,0,0-1.08,1.52l-2.54-.58-.56,2.45,2.54.58a5.56,5.56,0,0,0,.31,1.84Z"/><rect class="cls-3" x="163.84" y="186.82" width="81.76" height="1.49"/><rect class="cls-3" x="122.85" y="171.57" width="164.11" height="3.4"/><rect class="cls-3" x="163.6" y="191.44" width="82.01" height="1.49"/><rect class="cls-3" x="163.6" y="182.19" width="82.01" height="1.49"/><rect class="cls-3" x="163.6" y="196.06" width="82.01" height="1.49"/><rect class="cls-3" x="163.6" y="200.69" width="82.01" height="1.49"/><rect class="cls-3" x="163.6" y="205.31" width="82.01" height="1.49"/><rect class="cls-3" x="163.6" y="209.93" width="82.01" height="1.49"/><rect class="cls-3" x="163.6" y="214.55" width="82.01" height="1.49"/><rect class="cls-3" x="163.6" y="219.18" width="44.33" height="1.49"/><path class="cls-4" d="M281.08,154.45a2.41,2.41,0,1,1-2.4-2.41A2.4,2.4,0,0,1,281.08,154.45Z"/><path class="cls-4" d="M290.89,154.45a2.41,2.41,0,1,1-2.4-2.41A2.41,2.41,0,0,1,290.89,154.45Z"/><path class="cls-4" d="M300.7,154.45a2.41,2.41,0,1,1-2.41-2.41A2.41,2.41,0,0,1,300.7,154.45Z"/><rect class="cls-3" x="122.92" y="182.14" width="37.13" height="62.61" rx="3.16"/><rect class="cls-3" x="249.46" y="182.14" width="37.13" height="62.61" rx="3.16"/><path class="cls-8" d="M240.36,87a37.22,37.22,0,1,0-66.81,22.55,65.94,65.94,0,0,1,13.25,37.26h32.69a66.32,66.32,0,0,1,13.32-37.35A37,37,0,0,0,240.36,87Z"/><path class="cls-12" d="M194.81,135.9l0-1c0-.28-1.38-28-11.8-38.79l-3.49-3.6,4.6,2c.1,0,10.06,4.24,18.95,1.32l.31-.1.32.1c8.91,2.93,18.84-1.27,18.94-1.32l4.62-2-3.5,3.61c-10.43,10.76-11.79,38.51-11.8,38.79l-2-.05a1,1,0,0,0,.77,1c-.84-.12-9.58,0-14.89,0ZM186.7,97.52c8,11.25,9.71,31.59,10,36.34,8-.12,11.57-.13,13.25-.05.32-4.85,2.07-25.09,10-36.29-3.84,1.09-10.36,2.27-16.64.32C197.06,99.79,190.55,98.61,186.7,97.52Z"/><ellipse class="cls-3" cx="203.14" cy="163.89" rx="14.27" ry="11.44"/><path class="cls-2" d="M216.27,167.5H190a3.11,3.11,0,0,1-3.11-2.93l-1.83-30.79h36.13l-1.83,30.79A3.12,3.12,0,0,1,216.27,167.5Z"/><path class="cls-3" d="M185,144.55a2.41,2.41,0,0,1-.38-4.79l36.36-5.82a2.41,2.41,0,1,1,.76,4.76l-36.36,5.82Z"/><path class="cls-3" d="M185,152.53a2.41,2.41,0,0,1-.38-4.79l36.36-5.83a2.41,2.41,0,0,1,.76,4.76l-36.36,5.83Z"/><path class="cls-3" d="M185.69,160.39a2.41,2.41,0,0,1-.38-4.79l34.9-5.59a2.41,2.41,0,0,1,.76,4.76l-34.89,5.59Z"/><path class="cls-3" d="M187.66,167.72a2.41,2.41,0,0,1-.37-4.79l31.61-5.06a2.41,2.41,0,1,1,.76,4.75l-31.61,5.07A2.56,2.56,0,0,1,187.66,167.72Z"/><path class="cls-8" d="M203.14,45.8A1.19,1.19,0,0,1,202,44.61V22.67a1.19,1.19,0,1,1,2.38,0V44.61A1.19,1.19,0,0,1,203.14,45.8Z"/><path class="cls-8" d="M181.49,51.61a1.2,1.2,0,0,1-1-.6l-11-19a1.19,1.19,0,1,1,2.06-1.19l11,19a1.2,1.2,0,0,1-.43,1.63A1.31,1.31,0,0,1,181.49,51.61Z"/><path class="cls-8" d="M165.64,67.46a1.24,1.24,0,0,1-.59-.16l-19-11a1.19,1.19,0,0,1,1.19-2.07l19,11a1.2,1.2,0,0,1-.6,2.23Z"/><path class="cls-8" d="M159.84,89.11H137.9a1.19,1.19,0,0,1,0-2.38h21.94a1.19,1.19,0,0,1,0,2.38Z"/><path class="cls-8" d="M146.64,121.73a1.18,1.18,0,0,1-1-.6,1.19,1.19,0,0,1,.43-1.62l19-11a1.18,1.18,0,0,1,1.62.43,1.2,1.2,0,0,1-.43,1.63l-19,11A1.14,1.14,0,0,1,146.64,121.73Z"/><path class="cls-8" d="M259.64,121.73a1.16,1.16,0,0,1-.59-.16l-19-11a1.2,1.2,0,0,1-.44-1.63,1.19,1.19,0,0,1,1.63-.43l19,11a1.19,1.19,0,0,1-.6,2.22Z"/><path class="cls-8" d="M268.39,89.11H246.45a1.19,1.19,0,0,1,0-2.38h21.94a1.19,1.19,0,0,1,0,2.38Z"/><path class="cls-8" d="M240.65,67.46a1.19,1.19,0,0,1-.6-2.23l19-11a1.19,1.19,0,1,1,1.19,2.07l-19,11A1.27,1.27,0,0,1,240.65,67.46Z"/><path class="cls-8" d="M224.79,51.61a1.27,1.27,0,0,1-.59-.16,1.2,1.2,0,0,1-.44-1.63l11-19a1.2,1.2,0,0,1,1.63-.44,1.19,1.19,0,0,1,.43,1.63l-11,19A1.2,1.2,0,0,1,224.79,51.61Z"/></svg>