<svg id="Layer_1" data-name="Layer 1" xmlns="http://www.w3.org/2000/svg" xmlns:xlink="http://www.w3.org/1999/xlink" viewBox="0 0 1155.77 692.01"><defs><style>.cls-1{fill:none;clip-rule:evenodd;}.cls-2{clip-path:url(#clip-path);}.cls-3{fill:#e9f0ff;}.cls-10,.cls-11,.cls-13,.cls-15,.cls-16,.cls-17,.cls-26,.cls-28,.cls-30,.cls-31,.cls-32,.cls-33,.cls-35,.cls-36,.cls-4,.cls-41,.cls-42,.cls-43,.cls-44,.cls-45,.cls-46,.cls-47,.cls-48,.cls-5,.cls-52,.cls-53,.cls-54,.cls-55,.cls-56,.cls-6,.cls-7,.cls-8{fill-rule:evenodd;}.cls-4{fill:url(#linear-gradient);}.cls-40,.cls-5{fill:#15378b;}.cls-23,.cls-6{fill:#3951b6;}.cls-7{fill:url(#linear-gradient-2);}.cls-8{fill:#f9a3c0;}.cls-9{fill:url(#linear-gradient-3);}.cls-10,.cls-19{fill:#a1a7ff;}.cls-11{fill:url(#linear-gradient-4);}.cls-12{fill:url(#linear-gradient-5);}.cls-13{fill:url(#linear-gradient-6);}.cls-14{fill:url(#linear-gradient-7);}.cls-15{fill:#455a94;}.cls-16{fill:url(#linear-gradient-8);}.cls-17{fill:url(#linear-gradient-9);}.cls-18{clip-path:url(#clip-path-2);}.cls-20{fill:#4b6cd4;}.cls-21{fill:url(#linear-gradient-10);}.cls-22,.cls-35{fill:#183754;}.cls-24{fill:url(#linear-gradient-11);}.cls-25{fill:url(#linear-gradient-12);}.cls-26,.cls-29{fill:#1a47b6;}.cls-27{fill:#4887c3;}.cls-28{fill:#aedcfc;}.cls-30{fill:#3655b5;}.cls-31{fill:#f06;}.cls-32{fill:#f7aaac;}.cls-33{fill:#f28085;}.cls-34{fill:#464878;}.cls-36{fill:url(#linear-gradient-13);}.cls-37{fill:url(#linear-gradient-14);}.cls-38{fill:#a5dbfd;}.cls-39{fill:#e3effd;}.cls-41{fill:#ffb91f;}.cls-42{fill:url(#linear-gradient-15);}.cls-43{fill:url(#linear-gradient-16);}.cls-44{fill:url(#linear-gradient-17);}.cls-45{fill:url(#linear-gradient-18);}.cls-46{fill:url(#linear-gradient-19);}.cls-47{fill:url(#linear-gradient-20);}.cls-48{fill:#4596d1;}.cls-49{fill:url(#linear-gradient-21);}.cls-50{fill:url(#linear-gradient-22);}.cls-51{fill:#2b3b8f;}.cls-52{fill:#ff5269;}.cls-53{fill:url(#linear-gradient-23);}.cls-54{fill:url(#linear-gradient-24);}.cls-55{fill:url(#linear-gradient-25);}.cls-56{fill:url(#linear-gradient-26);}</style><clipPath id="clip-path"><path class="cls-1" d="M996.84,488.62h62c53.3,0,96.92,44.25,96.92,98.34s-43.62,98.35-96.92,98.35H156.94C70.62,685.31,0,613.65,0,526.06S70.62,366.81,156.94,366.81c36.49,0,69.51-30.3,69.51-67.34s-29.86-67.33-66.36-67.33H122.56c-37.94,0-69-31.5-69-70s31.05-70,69-70H229.5a27.26,27.26,0,0,0,0-54.51H211.7a18.73,18.73,0,0,1-18.54-18.81h0A18.73,18.73,0,0,1,211.7,0H322.56c24.6,0,27.34,29.49,89.49,29.49H545.62A24.44,24.44,0,0,1,569.8,54h0a24.44,24.44,0,0,1-24.18,24.55H522.39c-19.28,0-35.05,16-35.05,35.56s15.77,35.56,35.05,35.56h35c94.4,0,107.74,25,124.27,74.83s139.45,53.8,139.45,53.8h181.83c29.05,0,52.81,24.12,52.81,53.6s-23.76,53.59-52.81,53.59h-6c-27.94,0-50.8,23.19-50.8,51.55S968.9,488.62,996.84,488.62Zm-837.16-451a18.68,18.68,0,0,0,18.54-18.81,18.54,18.54,0,1,0-37.08,0A18.68,18.68,0,0,0,159.68,37.62Z"/></clipPath><linearGradient id="linear-gradient" x1="693.11" y1="276.6" x2="945.32" y2="276.6" gradientUnits="userSpaceOnUse"><stop offset="0" stop-color="#ee497b"/><stop offset="1" stop-color="#de2263"/></linearGradient><linearGradient id="linear-gradient-2" x1="819.22" y1="348.7" x2="941.91" y2="348.7" gradientUnits="userSpaceOnUse"><stop offset="0" stop-color="#c2ceff"/><stop offset="1" stop-color="#95aaff"/></linearGradient><linearGradient id="linear-gradient-3" x1="56.2" y1="632.34" x2="262.34" y2="632.34" xlink:href="#linear-gradient-2"/><linearGradient id="linear-gradient-4" x1="127.47" y1="631.64" x2="185.6" y2="631.64" xlink:href="#linear-gradient-2"/><linearGradient id="linear-gradient-5" x1="48.11" y1="584.12" x2="279.13" y2="584.12" gradientTransform="translate(577.53 140.67) rotate(58.67)" xlink:href="#linear-gradient-2"/><linearGradient id="linear-gradient-6" x1="132.58" y1="582.1" x2="190.72" y2="582.1" xlink:href="#linear-gradient-2"/><linearGradient id="linear-gradient-7" x1="79.06" y1="570.89" x2="303.74" y2="570.89" gradientTransform="matrix(0.66, 0.75, -0.75, 0.66, 494.65, 50.71)" xlink:href="#linear-gradient-2"/><linearGradient id="linear-gradient-8" x1="510.21" y1="627.67" x2="627.2" y2="627.67" xlink:href="#linear-gradient-2"/><linearGradient id="linear-gradient-9" x1="301.58" y1="412.15" x2="852.58" y2="412.15" xlink:href="#linear-gradient-2"/><clipPath id="clip-path-2"><path class="cls-1" d="M312.09,263.93H800.71a.7.7,0,0,1,.7.71v295a.7.7,0,0,1-.7.71H312.09a.7.7,0,0,1-.7-.71v-295a.7.7,0,0,1,.7-.71"/></clipPath><linearGradient id="linear-gradient-10" x1="389.67" y1="425.59" x2="420.5" y2="425.59" xlink:href="#linear-gradient"/><linearGradient id="linear-gradient-11" x1="482.15" y1="406.9" x2="512.98" y2="406.9" xlink:href="#linear-gradient"/><linearGradient id="linear-gradient-12" x1="574.63" y1="397.22" x2="605.45" y2="397.22" xlink:href="#linear-gradient"/><linearGradient id="linear-gradient-13" x1="660.55" y1="452.8" x2="712.94" y2="452.8" xlink:href="#linear-gradient"/><linearGradient id="linear-gradient-14" x1="361.11" y1="334.26" x2="374.69" y2="334.26" xlink:href="#linear-gradient"/><linearGradient id="linear-gradient-15" x1="383.66" y1="297.69" x2="433.93" y2="297.69" xlink:href="#linear-gradient"/><linearGradient id="linear-gradient-16" x1="383.66" y1="315.7" x2="433.93" y2="315.7" xlink:href="#linear-gradient"/><linearGradient id="linear-gradient-17" x1="383.66" y1="333.72" x2="433.93" y2="333.72" xlink:href="#linear-gradient"/><linearGradient id="linear-gradient-18" x1="661.36" y1="296.28" x2="696.2" y2="296.28" xlink:href="#linear-gradient"/><linearGradient id="linear-gradient-19" x1="700.21" y1="296.28" x2="735.05" y2="296.28" xlink:href="#linear-gradient"/><linearGradient id="linear-gradient-20" x1="739.05" y1="296.28" x2="773.9" y2="296.28" xlink:href="#linear-gradient"/><linearGradient id="linear-gradient-21" x1="918.31" y1="411.02" x2="970.64" y2="411.02" xlink:href="#linear-gradient"/><linearGradient id="linear-gradient-22" x1="970.64" y1="411.02" x2="993.69" y2="411.02" xlink:href="#linear-gradient-2"/><linearGradient id="linear-gradient-23" x1="279.19" y1="139.78" x2="411.09" y2="139.78" xlink:href="#linear-gradient-2"/><linearGradient id="linear-gradient-24" x1="279.19" y1="159.02" x2="411.09" y2="159.02" xlink:href="#linear-gradient-2"/><linearGradient id="linear-gradient-25" x1="279.19" y1="178.25" x2="411.09" y2="178.25" xlink:href="#linear-gradient-2"/><linearGradient id="linear-gradient-26" x1="279.19" y1="197.49" x2="411.09" y2="197.49" xlink:href="#linear-gradient-2"/></defs><title>Rising Sales from Social Commerce</title><g class="cls-2"><rect class="cls-3" width="1155.77" height="685.31"/></g><path class="cls-4" d="M819.22,188.3a88.3,88.3,0,1,0,88.3,88.3,88.3,88.3,0,0,0-88.3-88.3m0-37.8a126.1,126.1,0,1,0,126.1,126.1A126.11,126.11,0,0,0,819.22,150.5Z"/><path class="cls-5" d="M821,188.32c-.13-15.73-.25-29.1-.33-37.81a125.61,125.61,0,0,1,78.72,28.73c-8.34,8.33-17.46,19.34-25.8,27.77-14.19-10.43-33.72-18.32-52.59-18.69"/><path class="cls-6" d="M907.52,276.6a88.08,88.08,0,0,0-31.89-67.93,20.49,20.49,0,0,0-2.06-1.66c8.81-7.94,17.46-19.44,25.8-27.77a126.34,126.34,0,0,1,42.54,126.62L905.66,294.7a88.48,88.48,0,0,0,1.86-18.1"/><path class="cls-7" d="M819.22,364.9a88.32,88.32,0,0,0,86.44-70.2l36.25,11.16a125.27,125.27,0,0,1-10.11,27.62A126.25,126.25,0,0,1,819.22,402.7Z"/><path class="cls-8" d="M281.9,467.46l-1.09-9.64a9,9,0,0,1,5.56-9.4,93.87,93.87,0,0,0,20.23-11.18,9,9,0,0,1,10.92.26l7.57,6a9.11,9.11,0,0,0,12.8-1.46l11.56-14.51A9.1,9.1,0,0,0,348,414.79l-7.58-6.05a9,9,0,0,1-2.7-10.58,93,93,0,0,0,6.37-22.22,9,9,0,0,1,7.93-7.5l9.63-1.09a9.12,9.12,0,0,0,8-10.08l-2.07-18.43a9.13,9.13,0,0,0-10.09-8l-9.61,1.1a9,9,0,0,1-9.4-5.57,94.06,94.06,0,0,0-11.2-20.22,9,9,0,0,1,.28-10.92l6-7.59a9.09,9.09,0,0,0-1.44-12.78l-14.51-11.56a9.11,9.11,0,0,0-12.8,1.43l-6,7.58a9,9,0,0,1-10.6,2.72,95,95,0,0,0-22.2-6.41,9,9,0,0,1-7.53-7.9l-1.09-9.64a9.11,9.11,0,0,0-10.07-8l-18.44,2.08a9.13,9.13,0,0,0-8,10.08l1.1,9.62a9.05,9.05,0,0,1-5.56,9.41,92.67,92.67,0,0,0-20.22,11.18,9,9,0,0,1-10.93-.27l-7.59-6a9.09,9.09,0,0,0-12.78,1.45l-11.57,14.52a9.09,9.09,0,0,0,1.46,12.78l7.57,6a9,9,0,0,1,2.71,10.6,93.13,93.13,0,0,0-6.39,22.22,9,9,0,0,1-7.93,7.52l-9.61,1.08a9.12,9.12,0,0,0-8,10.09l2.09,18.42a9.08,9.08,0,0,0,10.06,8l9.63-1.08a9,9,0,0,1,9.4,5.56,93.1,93.1,0,0,0,11.19,20.21,9,9,0,0,1-.27,10.94L169.16,435a9.12,9.12,0,0,0,1.46,12.8l14.51,11.55a9.1,9.1,0,0,0,12.78-1.44l6.05-7.58a9,9,0,0,1,10.58-2.71A93.19,93.19,0,0,0,236.77,454a9,9,0,0,1,7.52,7.93l1.08,9.61a9.08,9.08,0,0,0,10.06,8l18.44-2.08a9.1,9.1,0,0,0,8-10.05m-115-209.3,1.18-4.28a4.12,4.12,0,0,1,4-3,42.62,42.62,0,0,0,10.48-1.31,4.12,4.12,0,0,1,4.59,2l2.19,3.85a4.16,4.16,0,0,0,5.68,1.56l7.37-4.19a4.17,4.17,0,0,0,1.56-5.67l-2.19-3.86a4.12,4.12,0,0,1,.65-4.95,42.06,42.06,0,0,0,6.48-8.34,4.14,4.14,0,0,1,4.65-1.84l4.27,1.18a4.17,4.17,0,0,0,5.11-2.92l2.25-8.17a4.17,4.17,0,0,0-2.91-5.12L218,211.86a4.12,4.12,0,0,1-3-4,43,43,0,0,0-1.31-10.48,4.11,4.11,0,0,1,2-4.59l3.85-2.19A4.15,4.15,0,0,0,221,185l-4.19-7.37a4.15,4.15,0,0,0-5.67-1.57l-3.85,2.19a4.13,4.13,0,0,1-5-.65,43,43,0,0,0-8.33-6.49,4.12,4.12,0,0,1-1.85-4.63l1.18-4.28a4.17,4.17,0,0,0-2.91-5.11l-8.18-2.26a4.17,4.17,0,0,0-5.12,2.92L176,162a4.13,4.13,0,0,1-4,3,42.15,42.15,0,0,0-10.48,1.31,4.13,4.13,0,0,1-4.59-2l-2.19-3.86a4.17,4.17,0,0,0-5.67-1.56l-7.38,4.2a4.16,4.16,0,0,0-1.56,5.67l2.19,3.84a4.13,4.13,0,0,1-.65,5,43.08,43.08,0,0,0-6.49,8.34,4.13,4.13,0,0,1-4.64,1.85l-4.26-1.18a4.17,4.17,0,0,0-5.12,2.92l-2.25,8.17a4.15,4.15,0,0,0,2.91,5.11l4.27,1.18a4.11,4.11,0,0,1,3,4,42.62,42.62,0,0,0,1.31,10.48,4.13,4.13,0,0,1-2,4.59l-3.86,2.19a4.17,4.17,0,0,0-1.55,5.68l4.19,7.37a4.17,4.17,0,0,0,5.67,1.56l3.85-2.19a4.11,4.11,0,0,1,4.95.65,42.41,42.41,0,0,0,8.35,6.48,4.14,4.14,0,0,1,1.84,4.65l-1.18,4.26a4.16,4.16,0,0,0,2.91,5.12l8.18,2.24A4.14,4.14,0,0,0,166.93,258.16Zm-4.68-29.37A23,23,0,1,1,195,210.2,23,23,0,0,1,162.25,228.79Zm86.24,182.84a50.39,50.39,0,1,1,51.27-64.36A50.34,50.34,0,0,1,248.49,411.63Z"/><rect class="cls-9" x="56.2" y="579.5" width="206.13" height="105.68"/><path class="cls-10" d="M244.4,611.07A21.24,21.24,0,0,1,228.11,594H90.83a21.27,21.27,0,0,1-16.3,17.05v42.55a21.28,21.28,0,0,1,16.3,17.06H228.11a21.25,21.25,0,0,1,16.29-17.06Zm9.33-17.24v77a9.14,9.14,0,0,1-9.14,9.13H74.34a9.14,9.14,0,0,1-9.14-9.13v-77a9.14,9.14,0,0,1,9.14-9.14H244.59A9.14,9.14,0,0,1,253.73,593.83Z"/><path class="cls-11" d="M156.53,602.57a29.07,29.07,0,1,1-29.06,29.07,29.06,29.06,0,0,1,29.06-29.07"/><rect class="cls-12" x="110.78" y="481.06" width="105.68" height="206.13" transform="translate(-420.42 420.21) rotate(-58.67)"/><path class="cls-10" d="M247.4,610.21a21.24,21.24,0,0,1-5.05-23L125.08,515.8a21.27,21.27,0,0,1-22.79,6.1L80.17,558.25a21.24,21.24,0,0,1,5,23l117.27,71.37a21.26,21.26,0,0,1,22.79-6.1Zm16.93-9.88-40,65.81a9.14,9.14,0,0,1-12.55,3.06L66.29,580.68a9.14,9.14,0,0,1-3.06-12.55l40.06-65.81a9.14,9.14,0,0,1,12.55-3.06l145.44,88.52A9.12,9.12,0,0,1,264.33,600.33Z"/><path class="cls-13" d="M176.76,557.27A29.07,29.07,0,1,1,136.82,567a29.08,29.08,0,0,1,39.94-9.72"/><rect class="cls-14" x="138.56" y="467.82" width="105.68" height="206.13" transform="matrix(0.66, -0.75, 0.75, 0.66, -364.12, 338.62)"/><path class="cls-10" d="M269.45,611a21.26,21.26,0,0,1-1-23.57L165.18,497a21.26,21.26,0,0,1-23.5,2.08l-28,32a21.26,21.26,0,0,1,1,23.57l103.25,90.46a21.26,21.26,0,0,1,23.5-2.08Zm18.38-6.82-50.77,57.94a9.14,9.14,0,0,1-12.9.85l-128-112.19a9.15,9.15,0,0,1-.85-12.9L146,479.93a9.12,9.12,0,0,1,12.89-.85L287,591.27A9.15,9.15,0,0,1,287.83,604.17Z"/><path class="cls-15" d="M209,546.69a29.07,29.07,0,1,1-41,2.71,29.06,29.06,0,0,1,41-2.71"/><path class="cls-15" d="M491.5,664.48H627.2V677.3a12.86,12.86,0,0,1-12.82,12.83H478.68V677.3a12.86,12.86,0,0,1,12.82-12.82"/><polygon class="cls-16" points="510.21 590.85 610.57 590.85 627.2 664.48 526.85 664.48 510.21 590.85"/><path class="cls-17" d="M333,233.45H821.14a31.53,31.53,0,0,1,31.44,31.44V559.42a31.53,31.53,0,0,1-31.44,31.43H333a31.53,31.53,0,0,1-31.44-31.43V264.89A31.53,31.53,0,0,1,333,233.45"/><path class="cls-15" d="M312.34,233.45H800.46a31.53,31.53,0,0,1,31.44,31.44V559.42a31.53,31.53,0,0,1-31.44,31.43H312.34a31.52,31.52,0,0,1-31.44-31.43V264.89a31.52,31.52,0,0,1,31.44-31.44"/><g class="cls-18"><rect class="cls-19" x="311.39" y="263.93" width="490.03" height="296.43"/></g><rect class="cls-20" x="358.85" y="419.12" width="30.82" height="60.53"/><rect class="cls-21" x="389.67" y="371.53" width="30.83" height="108.12"/><rect class="cls-22" x="420.5" y="403.99" width="30.83" height="75.66"/><rect class="cls-23" x="451.33" y="378.77" width="30.82" height="100.88"/><rect class="cls-24" x="482.15" y="334.16" width="30.83" height="145.49"/><rect class="cls-23" x="512.98" y="362.18" width="30.82" height="117.47"/><rect class="cls-22" x="543.8" y="336.59" width="30.83" height="143.06"/><rect class="cls-25" x="574.63" y="314.79" width="30.83" height="164.86"/><rect class="cls-23" x="605.45" y="283.72" width="30.82" height="195.93"/><polygon class="cls-15" points="502.76 590.85 603.12 590.85 619.75 664.48 519.39 664.48 502.76 590.85"/><path class="cls-26" d="M50.68,685.18h997.71a3.43,3.43,0,0,1,3.42,3.42h0a3.43,3.43,0,0,1-3.42,3.41H50.68a3.43,3.43,0,0,1-3.41-3.41h0a3.43,3.43,0,0,1,3.41-3.42"/><rect class="cls-27" x="311.39" y="263.93" width="8.08" height="296.43"/><path class="cls-28" d="M547.36,565.85a10,10,0,1,1-10,10,10,10,0,0,1,10-10"/><path class="cls-29" d="M674.29,688.18H718.4a4.1,4.1,0,0,0,4.08-4.39l-1.8-23.17a25.52,25.52,0,0,0-4.4-1.46,4.44,4.44,0,0,1-3.27-3l-.09-.34c-1-4.46-7.44-5.87-8.63-1.52-.16.56-.29,1.11-.4,1.64,0,.13-.06.26-.08.39-.19.93-.33,1.8-.43,2.55V659a24.87,24.87,0,0,0-.22,3.15c-.58.74-1.14,1.47-1.69,2.19-.28.35-.55.71-.81,1.06l-1.7,2.19c-.26.33-.51.66-.77,1-.61.77-1.21,1.49-1.82,2.17-.27.31-.54.61-.82.9-2.28,2.39-4.57,4-7.28,4.4-4.78.65-12.6,1.18-16.37,8.2a2.88,2.88,0,0,0-.19.45,2.71,2.71,0,0,0,2.59,3.53"/><path class="cls-22" d="M674.29,688.18H718.4a4.08,4.08,0,0,0,4.05-3.54H671.7a2.71,2.71,0,0,0,2.59,3.54"/><path class="cls-26" d="M707.37,411.94c-6.21,13.78-13.92,26.65-31.7,29.33-14.41,2.18-49.59-25.19-49.59-31s8.45-14.88,8.45-14.88,31,18.69,34.81,17.4c2.91-1,17-14.31,25.7-22.23,1.85-1.69,15,15.45,12.33,21.38"/><path class="cls-26" d="M712.08,384h33.71c8.16,0,19.91,4.09,24.85,9.87,7.07,8.29,4.31,101,2.15,113.88l-2.47,1.75c0,51.63,7.45,106.28,4.85,155.65l-20.38.25-26-128.22L716.39,510l-21.19-1.71-5.75-.76L695,390.56a26.39,26.39,0,0,1,17-6.59"/><path class="cls-30" d="M712.08,384h5.59l.72,8.25,4.75,75.95-19-60.12,6.33-6.33L705.74,397,710.47,384c.54,0,1.07-.06,1.61-.06"/><path class="cls-30" d="M739.43,384l-1.77,7.46-14.52,76.74L749.76,409l-5.47-7.09,5.31-4.1L746.41,384c-1.55-.31-5.35,0-7,0"/><path class="cls-10" d="M715.41,384c-2.23,16.75,5.8,65.9,7.73,84.2.59-1.44,16.28-71.29,17.8-84.2H725.71c-3.44,0-7.35-.41-10.3,0"/><path class="cls-31" d="M719.06,436.39c1.64,12.79,3.33,24.64,4.08,31.78l.27-.93,1.09-3.77c1.47-6,3.92-16.84,6.49-28.77l-3.09-28.91,2.22-4.65L726,396.36l-4.13,4.87,2.3,4.47Z"/><path class="cls-32" d="M706.48,367.32c-1.18,7.86,7.85,13.85,14,13.32v3.6l-.31.45c-2.14,5.56,3.88,9.13,5.88,11.05,1.83-1.4,11.59-4.06,11.81-11.77h-.39V370.46a5.66,5.66,0,0,0,1.35-.59c1.35-.82,1.87-2.83,1.51-4.91s-3.24-.67-3.24-.67h0c2.5-6.14,5.7-11.45-.74-14.86s-19.42-3.16-19.42-3.16l-7.79-.81c2.1,3.35-1.84,16.65-2.63,21.86"/><path class="cls-33" d="M732,374.64c-2.74,7.33-5.34,10.06-11.51,10.9v-5A21.57,21.57,0,0,0,732,374.64"/><polygon class="cls-26" points="692.32 507.89 732.82 507.73 725.42 665.64 699.8 666.47 692.32 507.89"/><path class="cls-29" d="M747.38,682.24c.36,6.44,23.17,4.22,26.82,2.29a4.39,4.39,0,0,0,2.11-3.93c.18-2.77-.86-6.32-1.75-9.11-1.46-4.53-1.26-4.45-2.28-7.55,0,0,.27-5-7.21-7s-10.21,10.62-11.49,13c-1.17,2.22-5.71,5.24-6.18,10.68a10,10,0,0,0,0,1.55"/><path class="cls-22" d="M747.67,684.48c.45,4.18,22.88,3.76,26.53,1.83,1.41-.75,2-3.53,2.11-5.27a29.61,29.61,0,0,1-12.93,2.81c-7.74.13-13.32-1.26-16-2.72,0,.5.24,2.82.27,3.35"/><path class="cls-10" d="M635,398.12c.58,3.54-3.71,9.12-6.52,11.25-.41-.74-4.94-6.14-4.94-6.14.57-3.75,3.88-7.74,6.1-8.77Z"/><path class="cls-32" d="M627.79,392.69c-.29-1.74-1.49-8.59-2.65-9.78-.58-.61-.74-.36-1,0a3.25,3.25,0,0,0-.45,1.79,28.14,28.14,0,0,0,.29,3.1c-3.55-2.17-6.85-7-9.37-10.36-1-1.36-3.33-.32-2.39,2.06.26.63,4.56,6.44,4.58,7.14.07,3.32-10.48,8.3,8.73,17.37a13.24,13.24,0,0,0,4.47-7.68Z"/><rect class="cls-34" x="745.29" y="428.62" width="17.41" height="3.17"/><path class="cls-35" d="M700.42,332.4c-1.65,8.37,1.72,15.86,10,17.23,6.13,1,16.83-.22,21.61,4.27,2.37,2.23,2.36,5.09.63,10.84-.5,1.69-1.29,3,1.3,1.41,1.18-.72,3.15-1.76,3.92-1.28,1.71,1.09,1.22,3.85.07,4.85-.51.44-1.51,1.13-1.51,1.13a7.65,7.65,0,0,0,6.32-1.58c3-2.44,11.83-9.81,10.09-20.39-3.87-23.6-19-17.11-34.45-24.17-6.45-3-16.64,1.06-17.94,7.69"/><path class="cls-26" d="M757.94,414.53c-3.83-7.89-5.63-18,.61-24.21h0c6.25-6.25,19.68,5.92,23.51,13.81,7.52,15.47,12.54,51.18,4.58,61-6.5,8-47.94,6-53.41,4.49-1.28-.34-10.38-9.05-7.84-16.48.27-.8,1.9-1.12,3.18-1.13,7.44-.05,31.34-3,34.64-4.82,5.21-2.8-2.58-27.14-5.27-32.66"/><path class="cls-10" d="M728.19,453.78c3,1.77,5.48,5.69,6.81,9.64,1.5,4.45,2.1,6.68-2.91,5.09-3.51-1.12-8-2.62-8-2.62-3.74-4.24-5-9.7-4-13.2Z"/><polygon class="cls-36" points="660.55 425.7 700.79 428.1 712.94 479.9 672.7 477.5 660.55 425.7"/><path class="cls-32" d="M720.49,453.45l-5.64-.93-6.45-4.27s-2.56-2.84-3.5-2.43c-.18.07,1.5,5.35,1.3,5.5-1.68,1.3-12.47-.36-12.42-.18,5.17,17.28,16.5,8.92,28.83,12.85,1.82.58,2.17.37,2.06-1.2a17.33,17.33,0,0,0-4.18-9.34"/><path class="cls-10" d="M671,424.88l4.5.27a.41.41,0,0,1,0-.11c0-.65,1.43-1.1,3.1-1s3,.71,2.95,1.37a.44.44,0,0,1,0,.1l5.31.31.89,3.81-15.52-.93Z"/><rect class="cls-20" x="361.11" y="290.55" width="13.58" height="13.12"/><rect class="cls-22" x="361.11" y="309.13" width="13.58" height="13.12"/><rect class="cls-37" x="361.11" y="327.7" width="13.58" height="13.12"/><rect class="cls-22" x="495.25" y="498.07" width="50.27" height="8.45"/><rect class="cls-23" x="545.52" y="498.07" width="90.75" height="8.45"/><rect class="cls-23" x="495.25" y="521.64" width="95.65" height="8.45"/><rect class="cls-38" x="578" y="521.64" width="58.28" height="8.45"/><path class="cls-39" d="M175,579.59l2.54-3.34a8.17,8.17,0,0,1-2.84-4.17l1.44-.72a7.84,7.84,0,0,0,2.48,3.74c2.23,1.69,4.89.85,6.66-1.48s1.8-4.48.66-7.32c-.95-2.26-2.38-5.63-.15-8.56a6.18,6.18,0,0,1,7.49-2.24l2.41-3.17,1.25.94-2.31,3a6.72,6.72,0,0,1,2.46,3.35l-1.45.71a7.4,7.4,0,0,0-2.29-3.07,4.16,4.16,0,0,0-5.78,1.1c-1.89,2.49-1.22,4.28,0,7.22,1.39,3.35,1.34,6.23-.66,8.86-2.51,3.31-5.69,3.71-8,2.58l-2.64,3.48Z"/><path class="cls-40" d="M268.44,470.56h0"/><path class="cls-40" d="M317.34,465.28l.36.32-.36-.32"/><polygon class="cls-41" points="799.75 471.06 882.77 471.06 946.81 535.1 947.82 536.19 947.82 684.98 799.75 684.98 799.75 471.06"/><polygon class="cls-41" points="882.77 471.06 882.77 535.1 947.82 535.1 882.77 471.06"/><rect class="cls-19" x="815.31" y="556.52" width="114.61" height="3.85"/><rect class="cls-19" x="815.31" y="570.11" width="114.61" height="3.85"/><rect class="cls-19" x="815.31" y="583.71" width="114.61" height="3.85"/><rect class="cls-19" x="815.31" y="597.3" width="114.61" height="3.85"/><rect class="cls-19" x="815.31" y="610.9" width="114.61" height="3.85"/><rect class="cls-19" x="815.31" y="624.49" width="114.61" height="3.85"/><rect class="cls-19" x="815.31" y="638.09" width="114.61" height="3.85"/><rect class="cls-19" x="815.31" y="651.68" width="114.61" height="3.85"/><rect class="cls-19" x="815.31" y="540.87" width="39.02" height="3.85"/><path class="cls-42" d="M387.88,293.46H429.7a4.23,4.23,0,1,1,0,8.45H387.88a4.23,4.23,0,0,1,0-8.45"/><path class="cls-43" d="M387.88,311.48H429.7a4.23,4.23,0,1,1,0,8.45H387.88a4.23,4.23,0,0,1,0-8.45"/><path class="cls-44" d="M387.88,329.49H429.7a4.23,4.23,0,0,1,0,8.46H387.88a4.23,4.23,0,0,1,0-8.46"/><polygon class="cls-45" points="678.78 279.71 684.31 290.42 696.2 292.37 687.72 300.93 689.55 312.85 678.78 307.43 668.01 312.85 669.84 300.93 661.36 292.37 673.25 290.42 678.78 279.71"/><polygon class="cls-46" points="717.63 279.71 723.15 290.42 735.05 292.37 726.57 300.93 728.39 312.85 717.63 307.43 706.86 312.85 708.68 300.93 700.21 292.37 712.1 290.42 717.63 279.71"/><polygon class="cls-47" points="756.47 279.71 762 290.42 773.89 292.37 765.42 300.93 767.24 312.85 756.47 307.43 745.71 312.85 747.53 300.93 739.05 292.37 750.95 290.42 756.47 279.71"/><path class="cls-48" d="M874.88,556A29.85,29.85,0,1,0,845,585.83,29.85,29.85,0,0,0,874.88,556m4.44,0A34.28,34.28,0,1,0,845,590.26,34.28,34.28,0,0,0,879.32,556Z"/><path class="cls-35" d="M845,522.3A33.68,33.68,0,1,1,811.36,556,33.68,33.68,0,0,1,845,522.3m0-8.53A42.21,42.21,0,1,1,802.82,556,42.21,42.21,0,0,1,845,513.77Z"/><path class="cls-35" d="M845,590.38h0a7.15,7.15,0,0,1,7.13,7.13v81.16a7.14,7.14,0,0,1-14.27,0V597.51a7.16,7.16,0,0,1,7.14-7.13"/><path class="cls-5" d="M838.3,605.75h13.47a3.83,3.83,0,0,1,3.82,3.82v65.86a3.83,3.83,0,0,1-3.82,3.82H838.3a3.83,3.83,0,0,1-3.82-3.82V609.57a3.83,3.83,0,0,1,3.82-3.82"/><path class="cls-35" d="M840.58,620h0a1.46,1.46,0,0,1,1.46,1.46v44.45a1.46,1.46,0,0,1-2.92,0V621.47a1.46,1.46,0,0,1,1.46-1.46"/><path class="cls-35" d="M840.72,612.2a1.88,1.88,0,1,1-1.88,1.88,1.88,1.88,0,0,1,1.88-1.88"/><path class="cls-49" d="M918.31,414.36l52.33-34.74v62.81a62.75,62.75,0,0,1-52.33-28.07"/><path class="cls-50" d="M970.64,442.43V379.62l23.05,58.44a62.55,62.55,0,0,1-23.05,4.37"/><path class="cls-23" d="M970.64,379.62V316.8A62.82,62.82,0,0,1,993.81,438Z"/><path class="cls-51" d="M970.64,316.8v62.82l-52.33,34.74a62.82,62.82,0,0,1,52.33-97.56"/><path class="cls-52" d="M280,118.49h57.4a.85.85,0,0,1,.84.84v2.44a.85.85,0,0,1-.84.84H280a.85.85,0,0,1-.84-.84v-2.44a.85.85,0,0,1,.84-.84"/><path class="cls-53" d="M280,137.72H410.25a.85.85,0,0,1,.84.84V141a.84.84,0,0,1-.84.83H280a.84.84,0,0,1-.84-.83v-2.45a.85.85,0,0,1,.84-.84"/><path class="cls-54" d="M280,157H410.25a.84.84,0,0,1,.84.84v2.44a.85.85,0,0,1-.84.84H280a.85.85,0,0,1-.84-.84V157.8A.84.84,0,0,1,280,157"/><path class="cls-55" d="M280,176.19H410.25a.85.85,0,0,1,.84.84v2.45a.84.84,0,0,1-.84.83H280a.84.84,0,0,1-.84-.83V177a.85.85,0,0,1,.84-.84"/><path class="cls-56" d="M280,195.43H410.25a.84.84,0,0,1,.84.84v2.44a.85.85,0,0,1-.84.84H280a.85.85,0,0,1-.84-.84v-2.44a.84.84,0,0,1,.84-.84"/></svg>