<svg xmlns="http://www.w3.org/2000/svg" xmlns:xlink="http://www.w3.org/1999/xlink" viewBox="0 0 340.7 356.33"><defs><style>.cls-1{isolation:isolate;}.cls-2{fill:url(#linear-gradient);}.cls-3{fill:url(#linear-gradient-2);}.cls-4{fill:#e1edf9;}.cls-5{fill:#13426f;}.cls-6{fill:url(#linear-gradient-3);}.cls-7{fill:#c8dbe9;}.cls-8{fill:#fff;}.cls-9{fill:url(#linear-gradient-4);}.cls-10{fill:url(#linear-gradient-5);}.cls-11{fill:url(#linear-gradient-6);}.cls-12{fill:url(#linear-gradient-7);}.cls-13{fill:url(#linear-gradient-8);}.cls-14{fill:url(#linear-gradient-9);}.cls-15{fill:#d2e7ec;}.cls-16{fill:url(#linear-gradient-10);}.cls-17{fill:url(#linear-gradient-11);}.cls-18{fill:url(#linear-gradient-12);}.cls-19,.cls-76,.cls-77{opacity:0.5;}.cls-19{mix-blend-mode:multiply;fill:url(#linear-gradient-14);}.cls-20{fill:url(#linear-gradient-15);}.cls-21{fill:url(#linear-gradient-16);}.cls-22{fill:url(#linear-gradient-17);}.cls-23{fill:#5667b0;}.cls-24{fill:url(#linear-gradient-18);}.cls-25{fill:url(#linear-gradient-19);}.cls-26{fill:url(#linear-gradient-20);}.cls-27{fill:url(#linear-gradient-21);}.cls-28{fill:url(#linear-gradient-22);}.cls-29{fill:url(#linear-gradient-23);}.cls-30{fill:url(#Degradado_sin_nombre_3);}.cls-31{fill:url(#linear-gradient-24);}.cls-32{fill:url(#Degradado_sin_nombre_3-2);}.cls-33{fill:url(#linear-gradient-25);}.cls-34{fill:url(#Degradado_sin_nombre_3-3);}.cls-35{fill:url(#linear-gradient-26);}.cls-36{fill:url(#Degradado_sin_nombre_3-4);}.cls-37{fill:url(#linear-gradient-27);}.cls-38{fill:url(#linear-gradient-28);}.cls-39{fill:url(#linear-gradient-29);}.cls-40{fill:#fffffa;}.cls-41{fill:url(#linear-gradient-30);}.cls-42{fill:url(#linear-gradient-31);}.cls-43{fill:url(#linear-gradient-32);}.cls-44{fill:url(#linear-gradient-33);}.cls-45{fill:url(#linear-gradient-34);}.cls-46{fill:url(#linear-gradient-35);}.cls-47{fill:url(#linear-gradient-36);}.cls-48{fill:url(#linear-gradient-37);}.cls-49{fill:url(#linear-gradient-38);}.cls-50{fill:url(#linear-gradient-39);}.cls-51{fill:#f3cbb0;}.cls-52{fill:url(#linear-gradient-40);}.cls-53{fill:none;stroke:#f7fbfe;stroke-miterlimit:10;stroke-width:0.12px;}.cls-54{fill:url(#linear-gradient-41);}.cls-55{fill:url(#linear-gradient-42);}.cls-56{fill:url(#linear-gradient-43);}.cls-57{fill:url(#linear-gradient-44);}.cls-58{fill:#352e7a;}.cls-59{fill:url(#linear-gradient-45);}.cls-60{fill:#fed1a4;}.cls-61{fill:url(#linear-gradient-46);}.cls-62{fill:url(#linear-gradient-47);}.cls-63{fill:#ffe0bc;}.cls-64{fill:url(#linear-gradient-48);}.cls-65{fill:url(#linear-gradient-49);}.cls-66{fill:url(#linear-gradient-50);}.cls-67{fill:#f2bc8a;}.cls-68{fill:url(#linear-gradient-51);}.cls-69{fill:url(#linear-gradient-52);}.cls-70{fill:url(#linear-gradient-53);}.cls-71{fill:url(#linear-gradient-54);}.cls-72{fill:url(#linear-gradient-55);}.cls-73{fill:url(#Безымянный_градиент_19);}.cls-74{fill:url(#linear-gradient-56);}.cls-75{fill:url(#linear-gradient-57);}.cls-76{fill:url(#Безымянный_градиент_19-2);}.cls-77{fill:url(#Безымянный_градиент_19-3);}.cls-78{fill:url(#linear-gradient-58);}.cls-79{fill:url(#linear-gradient-59);}.cls-80{fill:url(#linear-gradient-60);}.cls-81{fill:url(#linear-gradient-61);}.cls-82{fill:url(#linear-gradient-62);}.cls-83{fill:url(#linear-gradient-63);}</style><linearGradient id="linear-gradient" x1="80.85" y1="32.95" x2="131.02" y2="32.95" gradientUnits="userSpaceOnUse"><stop offset="0" stop-color="#0562a0"/><stop offset="1" stop-color="#3087c8"/></linearGradient><linearGradient id="linear-gradient-2" x1="75.97" y1="34.83" x2="126.14" y2="34.83" xlink:href="#linear-gradient"/><linearGradient id="linear-gradient-3" x1="31.46" y1="54.85" x2="101.96" y2="54.85" xlink:href="#linear-gradient"/><linearGradient id="linear-gradient-4" x1="202.35" y1="79.49" x2="239.28" y2="79.49" xlink:href="#linear-gradient"/><linearGradient id="linear-gradient-5" x1="138.84" y1="94.19" x2="175.77" y2="94.19" xlink:href="#linear-gradient"/><linearGradient id="linear-gradient-6" x1="70.53" y1="157.17" x2="80.51" y2="157.17" xlink:href="#linear-gradient"/><linearGradient id="linear-gradient-7" x1="68.48" y1="124.02" x2="84.33" y2="124.02" xlink:href="#linear-gradient"/><linearGradient id="linear-gradient-8" x1="61.24" y1="150.62" x2="80.91" y2="150.62" xlink:href="#linear-gradient"/><linearGradient id="linear-gradient-9" x1="139.25" y1="250.71" x2="208.78" y2="250.71" xlink:href="#linear-gradient"/><linearGradient id="linear-gradient-10" x1="158.04" y1="232.64" x2="193.84" y2="232.64" xlink:href="#linear-gradient"/><linearGradient id="linear-gradient-11" x1="92.41" y1="165.14" x2="259.73" y2="165.14" xlink:href="#linear-gradient"/><linearGradient id="linear-gradient-12" x1="96.87" y1="165.37" x2="255.27" y2="165.37" xlink:href="#linear-gradient"/><linearGradient id="linear-gradient-14" x1="96.87" y1="165.37" x2="255.27" y2="165.37" gradientUnits="userSpaceOnUse"><stop offset="0" stop-color="#cfcae5"/><stop offset="0.04" stop-color="#c7c2e0"/><stop offset="0.22" stop-color="#a6a0ce"/><stop offset="0.41" stop-color="#8b85bf"/><stop offset="0.6" stop-color="#7972b4"/><stop offset="0.79" stop-color="#6e67ae"/><stop offset="1" stop-color="#6a63ac"/></linearGradient><linearGradient id="linear-gradient-15" x1="243.77" y1="279.29" x2="269" y2="340.68" xlink:href="#linear-gradient"/><linearGradient id="linear-gradient-16" x1="246.39" y1="322.8" x2="274.52" y2="322.8" xlink:href="#linear-gradient"/><linearGradient id="linear-gradient-17" x1="238.33" y1="284.89" x2="281.9" y2="284.89" xlink:href="#linear-gradient"/><linearGradient id="linear-gradient-18" x1="224.27" y1="284.69" x2="242.35" y2="312.99" xlink:href="#linear-gradient"/><linearGradient id="linear-gradient-19" x1="169.74" y1="321.15" x2="227.11" y2="321.15" xlink:href="#linear-gradient"/><linearGradient id="linear-gradient-20" x1="180.07" y1="289.81" x2="216.39" y2="352.71" xlink:href="#linear-gradient-14"/><linearGradient id="linear-gradient-21" x1="203.03" y1="305.9" x2="212.55" y2="323.5" xlink:href="#linear-gradient"/><linearGradient id="linear-gradient-22" x1="190.84" y1="320.81" x2="205.62" y2="320.81" xlink:href="#linear-gradient"/><linearGradient id="linear-gradient-23" x1="203.29" y1="326.43" x2="192.86" y2="315.52" xlink:href="#linear-gradient"/><linearGradient id="Degradado_sin_nombre_3" x1="114.72" y1="172.96" x2="128.88" y2="172.96" gradientUnits="userSpaceOnUse"><stop offset="0" stop-color="#7dd1e7"/><stop offset="0.23" stop-color="#7db4d7"/><stop offset="1" stop-color="#7e57a4"/></linearGradient><linearGradient id="linear-gradient-24" x1="114.72" y1="155.7" x2="125.09" y2="155.7" xlink:href="#linear-gradient"/><linearGradient id="Degradado_sin_nombre_3-2" x1="130.27" y1="181.94" x2="144.43" y2="181.94" xlink:href="#Degradado_sin_nombre_3"/><linearGradient id="linear-gradient-25" x1="130.27" y1="156.99" x2="140.64" y2="156.99" xlink:href="#linear-gradient"/><linearGradient id="Degradado_sin_nombre_3-3" x1="145.82" y1="190.92" x2="159.98" y2="190.92" xlink:href="#Degradado_sin_nombre_3"/><linearGradient id="linear-gradient-26" x1="145.82" y1="158.29" x2="156.19" y2="158.29" xlink:href="#linear-gradient"/><linearGradient id="Degradado_sin_nombre_3-4" x1="161.37" y1="199.9" x2="175.53" y2="199.9" xlink:href="#Degradado_sin_nombre_3"/><linearGradient id="linear-gradient-27" x1="161.37" y1="159.58" x2="171.74" y2="159.58" xlink:href="#linear-gradient"/><linearGradient id="linear-gradient-28" x1="297.41" y1="114.97" x2="335.88" y2="114.97" xlink:href="#linear-gradient"/><linearGradient id="linear-gradient-29" x1="293.73" y1="102.76" x2="316.62" y2="102.76" xlink:href="#linear-gradient"/><linearGradient id="linear-gradient-30" x1="293.73" y1="97.44" x2="332.21" y2="97.44" xlink:href="#linear-gradient"/><linearGradient id="linear-gradient-31" x1="293.73" y1="117.1" x2="332.21" y2="117.1" xlink:href="#linear-gradient"/><linearGradient id="linear-gradient-32" x1="293.73" y1="94.32" x2="335.88" y2="94.32" xlink:href="#linear-gradient"/><linearGradient id="linear-gradient-33" x1="332.21" y1="107.38" x2="335.88" y2="107.38" xlink:href="#linear-gradient"/><linearGradient id="linear-gradient-34" x1="332.21" y1="127.04" x2="335.88" y2="127.04" xlink:href="#linear-gradient"/><linearGradient id="linear-gradient-35" x1="19.22" y1="150.28" x2="23.6" y2="150.28" xlink:href="#linear-gradient"/><linearGradient id="linear-gradient-36" x1="20.56" y1="148.47" x2="45.06" y2="147.19" xlink:href="#linear-gradient"/><linearGradient id="linear-gradient-37" x1="12.65" y1="136.78" x2="41.33" y2="136.78" xlink:href="#linear-gradient"/><linearGradient id="linear-gradient-38" x1="12.65" y1="144.38" x2="41.33" y2="144.38" xlink:href="#linear-gradient"/><linearGradient id="linear-gradient-39" x1="20" y1="137.73" x2="44.5" y2="136.45" xlink:href="#linear-gradient"/><linearGradient id="linear-gradient-40" x1="319.28" y1="98.2" x2="343.33" y2="85.14" gradientTransform="matrix(-0.99, -0.13, -0.13, 0.99, 461.45, 164.68)" xlink:href="#linear-gradient"/><linearGradient id="linear-gradient-41" x1="90.98" y1="223.85" x2="113.24" y2="223.85" xlink:href="#linear-gradient"/><linearGradient id="linear-gradient-42" x1="106" y1="225.7" x2="112.63" y2="225.7" xlink:href="#linear-gradient"/><linearGradient id="linear-gradient-43" x1="105.64" y1="220.77" x2="117.12" y2="220.77" xlink:href="#linear-gradient"/><linearGradient id="linear-gradient-44" x1="98.37" y1="206.31" x2="106.46" y2="206.31" xlink:href="#linear-gradient"/><linearGradient id="linear-gradient-45" x1="2.83" y1="250.33" x2="51.51" y2="250.33" xlink:href="#linear-gradient"/><linearGradient id="linear-gradient-46" x1="30.74" y1="234.5" x2="53.35" y2="222.05" xlink:href="#linear-gradient"/><linearGradient id="linear-gradient-47" x1="22.96" y1="238.98" x2="44.49" y2="226.21" xlink:href="#linear-gradient"/><linearGradient id="linear-gradient-48" x1="28.14" y1="202.57" x2="41.44" y2="202.57" xlink:href="#linear-gradient"/><linearGradient id="linear-gradient-49" x1="31.38" y1="210.38" x2="39.36" y2="210.38" xlink:href="#linear-gradient"/><linearGradient id="linear-gradient-50" x1="13.59" y1="207.3" x2="36.87" y2="207.3" xlink:href="#linear-gradient"/><linearGradient id="linear-gradient-51" x1="35.79" y1="224.88" x2="64.16" y2="224.88" xlink:href="#linear-gradient"/><linearGradient id="linear-gradient-52" x1="36.61" y1="225.18" x2="64.32" y2="225.18" xlink:href="#linear-gradient"/><linearGradient id="linear-gradient-53" x1="16.97" y1="208.71" x2="36.45" y2="208.71" xlink:href="#linear-gradient"/><linearGradient id="linear-gradient-54" x1="13.32" y1="206.59" x2="26.61" y2="206.59" xlink:href="#linear-gradient"/><linearGradient id="linear-gradient-55" x1="192.79" y1="207.56" x2="276.95" y2="207.56" gradientTransform="matrix(1, 0.03, 0, 1, 0, -11.81)" xlink:href="#linear-gradient"/><linearGradient id="Безымянный_градиент_19" x1="187.22" y1="241.4" x2="254.84" y2="193.02" gradientTransform="matrix(1, 0.03, 0, 1, 0, -11.81)" gradientUnits="userSpaceOnUse"><stop offset="0.1" stop-color="#ccc4e1"/><stop offset="0.22" stop-color="#d6d0e7"/><stop offset="0.52" stop-color="#edeaf4"/><stop offset="0.79" stop-color="#faf9fc"/><stop offset="1" stop-color="#fff"/></linearGradient><linearGradient id="linear-gradient-56" x1="271.28" y1="177.63" x2="237.56" y2="204.87" gradientTransform="matrix(1, 0.03, 0, 1, 0, -11.81)" xlink:href="#linear-gradient"/><linearGradient id="linear-gradient-57" x1="192.32" y1="237.65" x2="253.39" y2="193.96" gradientTransform="matrix(1, 0.03, 0, 1, 0, -11.81)" xlink:href="#linear-gradient"/><linearGradient id="Безымянный_градиент_19-2" x1="269.78" y1="191.83" x2="240.92" y2="215.13" xlink:href="#Безымянный_градиент_19"/><linearGradient id="Безымянный_градиент_19-3" x1="259.21" y1="206.08" x2="237.46" y2="223.65" xlink:href="#Безымянный_градиент_19"/><linearGradient id="linear-gradient-58" x1="185.84" y1="74.65" x2="195.83" y2="74.65" xlink:href="#linear-gradient"/><linearGradient id="linear-gradient-59" x1="188.01" y1="79.27" x2="193.12" y2="79.27" gradientUnits="userSpaceOnUse"><stop offset="0" stop-color="#3264af"/><stop offset="1" stop-color="#355aa9"/></linearGradient><linearGradient id="linear-gradient-60" x1="185.84" y1="79.35" x2="190.72" y2="79.35" xlink:href="#linear-gradient"/><linearGradient id="linear-gradient-61" x1="268.59" y1="43.49" x2="285.3" y2="43.49" xlink:href="#linear-gradient"/><linearGradient id="linear-gradient-62" x1="272.22" y1="51.23" x2="280.77" y2="51.23" xlink:href="#linear-gradient-59"/><linearGradient id="linear-gradient-63" x1="268.59" y1="51.35" x2="276.75" y2="51.35" xlink:href="#linear-gradient"/></defs><title>The Modern B2B Customer</title><g class="cls-1"><g id="Layer_1" data-name="Layer 1"><path class="cls-2" d="M131,46.87c0-16-11.23-35.45-25.09-43.45C99.55-.27,93.72-.87,89.29,1.11h0l-.08,0c-.19.08-.37.18-.55.27l-5,2.47.59,1.38c-2.18,3-3.43,7.3-3.43,12.63,0,16,11.23,35.45,25.08,43.45,4.26,2.46,8.27,3.54,11.78,3.41l.43,1.13,4.39-2.21a12,12,0,0,0,1.19-.6l0,0h0C128.24,60.42,131,54.82,131,46.87Z"/><path class="cls-3" d="M76,20.34c0,16,11.23,35.45,25.08,43.45s25.09,1.51,25.09-14.48S114.91,13.86,101.05,5.86,76,4.35,76,20.34Z"/><path class="cls-4" d="M80.15,22.76c0-13.31,9.38-18.72,20.9-12.07S122,33.58,122,46.89,112.58,65.62,101.05,59,80.15,36.07,80.15,22.76Zm2.61,1.51C82.76,35.91,91,50.12,101.05,56S119.34,57,119.34,45.39s-8.2-25.86-18.29-31.68S82.76,12.62,82.76,24.27Z"/><path class="cls-4" d="M86.68,26.53c0-9.15,6.45-12.87,14.37-8.3S115.42,34,115.42,43.12,109,56,101.05,51.42,86.68,35.68,86.68,26.53ZM89.29,28c0,7.49,5.28,16.62,11.76,20.37s11.76.7,11.76-6.79S107.54,25,101.05,21.25,89.29,20.55,89.29,28Z"/><path class="cls-4" d="M93.39,30.4a17,17,0,0,0,7.66,13.28c4.24,2.44,7.67.46,7.67-4.43A16.91,16.91,0,0,0,101.05,26C96.82,23.53,93.39,25.52,93.39,30.4Z"/><polygon class="cls-5" points="33.39 71.97 25.64 64.51 53.53 48.77 62.31 55.93 33.39 71.97"/><polygon class="cls-5" points="33.12 76.23 25.64 92.49 53.53 76.49 62.89 58.8 33.12 76.23"/><path class="cls-6" d="M102,36.56a1.45,1.45,0,0,1-.42,1.13,1.32,1.32,0,0,1-.2.12l-.29.17L34.14,76.61,31.46,72.1l67.2-38.8a.76.76,0,0,1,.23-.13,1.32,1.32,0,0,1,1.2.17A4.12,4.12,0,0,1,102,36.56Z"/><path class="cls-7" d="M34.64,75.44a1.45,1.45,0,0,1-.42,1.13l-.2.11a1.4,1.4,0,0,1-1.25-.17,4.12,4.12,0,0,1-1.85-3.22,1.42,1.42,0,0,1,.42-1.12,1.12,1.12,0,0,1,.24-.13,1.34,1.34,0,0,1,1.19.18A4.1,4.1,0,0,1,34.64,75.44Z"/><polygon class="cls-7" points="219.78 38.43 232.1 145.14 238.52 141.76 238.52 47.99 223.3 38.52 219.78 38.43"/><polygon class="cls-7" points="239.28 48.63 245.69 45.25 227.22 10.46 220.81 13.85 215.93 27.03 219.78 38.43 223.3 38.52 221.9 37.65 223.3 38.52 225.4 38.57 223.3 38.52 238.52 47.99 238.52 47.77 239.28 48.63"/><polygon class="cls-8" points="202.35 26.03 220.81 13.85 239.28 48.63 232.1 44.25 232.1 145.14 209.52 131.31 209.52 30.42 202.35 26.03"/><polygon class="cls-9" points="202.35 26.03 220.81 13.85 239.28 48.63 232.1 44.25 232.1 145.14 209.52 131.31 209.52 30.42 202.35 26.03"/><polygon class="cls-7" points="156.28 53.13 168.6 159.84 175.01 156.45 175.01 62.69 159.79 53.21 156.28 53.13"/><polygon class="cls-7" points="175.77 63.33 182.18 59.95 163.72 25.15 157.3 28.54 152.43 41.73 156.28 53.13 159.79 53.21 158.39 52.34 159.79 53.21 161.89 53.27 159.79 53.21 175.01 62.69 175.01 62.46 175.77 63.33"/><polygon class="cls-8" points="138.84 40.72 157.3 28.54 175.77 63.33 168.6 58.94 168.6 159.84 146.01 146.01 146.01 45.11 138.84 40.72"/><polygon class="cls-10" points="138.84 40.72 157.3 28.54 175.77 63.33 168.6 58.94 168.6 159.84 146.01 146.01 146.01 45.11 138.84 40.72"/><polygon class="cls-11" points="70.53 128.75 77.09 185.59 80.51 183.79 80.51 133.85 72.4 128.8 70.53 128.75"/><polygon class="cls-12" points="80.91 134.19 84.33 132.39 74.49 113.86 71.08 115.66 68.48 122.68 70.53 128.75 72.4 128.8 71.66 128.34 72.4 128.8 73.52 128.83 72.4 128.8 80.51 133.85 80.51 133.73 80.91 134.19"/><polygon class="cls-8" points="61.24 122.15 71.08 115.66 80.91 134.19 77.09 131.85 77.09 185.59 65.06 178.22 65.06 124.49 61.24 122.15"/><polygon class="cls-13" points="61.24 122.15 71.08 115.66 80.91 134.19 77.09 131.85 77.09 185.59 65.06 178.22 65.06 124.49 61.24 122.15"/><polygon class="cls-14" points="208.78 255.42 208.78 261.98 186.69 274.52 139.25 246 139.25 239.45 161.34 226.9 208.78 255.42"/><polygon class="cls-5" points="208.78 255.42 208.78 261.98 186.69 274.52 139.25 246 186.69 267.97 208.78 255.42"/><polygon class="cls-15" points="186.69 267.97 186.69 274.53 139.25 246 139.25 239.45 186.69 267.97"/><polygon class="cls-5" points="186.69 267.97 186.69 274.53 139.25 246 139.25 239.45 186.69 267.97"/><polygon class="cls-16" points="193.84 226.16 193.84 254.54 188.62 257.51 158.04 239.12 158.04 210.74 163.27 207.77 193.84 226.16"/><polygon class="cls-5" points="193.84 226.16 193.84 254.54 188.62 257.51 158.04 239.12 188.62 229.12 193.84 226.16"/><polygon class="cls-15" points="188.62 229.12 188.62 257.51 158.04 239.12 158.04 210.74 188.62 229.12"/><polygon class="cls-7" points="188.62 229.12 188.62 257.51 158.04 239.12 158.04 210.74 188.62 229.12"/><path class="cls-7" d="M265.83,270.48V157.41a14,14,0,0,0-6.67-11.94L104.88,50.14a4.12,4.12,0,0,0-4.28,0v0l-5.91,3,0,0a4.09,4.09,0,0,0-2.31,3.69V169.83a14,14,0,0,0,6.66,11.93l154.29,95.33a4,4,0,0,0,3.19.36l0,.13.7-.32a4,4,0,0,0,.42-.2l5.19-2.39A4.44,4.44,0,0,0,265.83,270.48Z"/><path class="cls-8" d="M259.73,160.46V273.53a4.18,4.18,0,0,1-6.37,3.56L99.07,181.76a14,14,0,0,1-6.66-11.93V56.75a4.17,4.17,0,0,1,6.36-3.56l154.29,95.33A14,14,0,0,1,259.73,160.46Z"/><path class="cls-17" d="M259.73,160.46V273.53a4.18,4.18,0,0,1-6.37,3.56L99.07,181.76a14,14,0,0,1-6.66-11.93V56.75a4.17,4.17,0,0,1,6.36-3.56l154.29,95.33A14,14,0,0,1,259.73,160.46Z"/><path class="cls-18" d="M255.27,162.24V266.68a4,4,0,0,1-6,3.36L103.18,179.79a13.24,13.24,0,0,1-6.31-11.3V64.06a4,4,0,0,1,6-3.37L249,150.94A13.28,13.28,0,0,1,255.27,162.24Z"/><path class="cls-18" d="M255.27,162.24V266.68a4,4,0,0,1-6,3.36L103.18,179.79a13.24,13.24,0,0,1-6.31-11.3V64.06a4,4,0,0,1,6-3.37L249,150.94A13.28,13.28,0,0,1,255.27,162.24Z"/><path class="cls-19" d="M255.27,162.24V266.68a3.31,3.31,0,0,1,0,.55,4,4,0,0,1-6,2.81L103.18,179.79a13.24,13.24,0,0,1-6.31-11.3V64.06a4,4,0,0,1,5.29-3.72,4.52,4.52,0,0,1,.74.35L249,150.94A13.26,13.26,0,0,1,255.27,162.24Z"/><path class="cls-7" d="M255.27,162.24V266.68a3.31,3.31,0,0,1,0,.55,4.43,4.43,0,0,1-.73-.35L108.43,176.63a13.3,13.3,0,0,1-6.31-11.3V60.9a3.36,3.36,0,0,1,0-.56,4.52,4.52,0,0,1,.74.35L249,150.94A13.26,13.26,0,0,1,255.27,162.24Z"/><path class="cls-20" d="M257.11,345.13l-5.24-40.54,10.7-10.84s10.9,17.34,11.85,39.65a2.32,2.32,0,0,1-.9,2.31Z"/><path class="cls-5" d="M257.11,345.13l-5.24-40.54,10.7-10.84s10.9,17.34,11.85,39.65a2.32,2.32,0,0,1-.9,2.31Z"/><path class="cls-21" d="M243.44,300.48s7.94,14.5,5.14,39.72l8.53,4.93c2.81-25.23-4.43-39.73-4.43-39.73"/><path class="cls-5" d="M246.85,327.49s7.54-5.66,6.87-21.12l-6.38,5.7"/><path class="cls-7" d="M246.85,327.49l-4.49-2.59c4.36-13.33,1.84-22.15,1.75-22.45l4.53,3.79S250.8,314.57,246.85,327.49Z"/><path class="cls-22" d="M279.51,273.23c-3.36-5.65-9-8.5-12.62-6.36l-28.56,16.35,12.27,20.41L279,287.36C282.66,285.22,282.87,278.89,279.51,273.23Z"/><path class="cls-23" d="M276.09,275c-4.65-7.83-12.48-11.77-17.48-8.8l-39.54,22.62,17,28.26,39.37-22.52C280.45,291.63,280.74,282.87,276.09,275Z"/><path class="cls-7" d="M276.09,275c-4.65-7.83-12.48-11.77-17.48-8.8l-39.54,22.62,17,28.26,39.37-22.52C280.45,291.63,280.74,282.87,276.09,275Z"/><path class="cls-8" d="M267.21,279.66c-5.16-8.7-13.85-13.07-19.41-9.78l-5.76,3.3a102.7,102.7,0,0,1-58.71,13.28h0l37.61,65.28L241,324.21a82,82,0,0,1,25.49-22.83h0C272.05,298.08,272.37,288.36,267.21,279.66Z"/><path class="cls-24" d="M267.21,279.66c-5.16-8.7-13.85-13.07-19.41-9.78l-5.76,3.3a102.7,102.7,0,0,1-58.71,13.28h0l37.61,65.28L241,324.21a82,82,0,0,1,25.49-22.83h0C272.05,298.08,272.37,288.36,267.21,279.66Z"/><path class="cls-25" d="M177.4,333.62c10.78,18.17,28.93,27.31,40.54,20.42s12.28-27.2,1.5-45.37-28.93-27.3-40.54-20.42S166.62,315.45,177.4,333.62Z"/><path class="cls-26" d="M216.76,352.49c-11,6.54-28.25-2.14-38.49-19.39s-9.6-36.53,1.42-43.07c8.5-5,20.69-1,30.51,9a55.61,55.61,0,0,1,13,21.56C227.68,334.29,225.44,347.34,216.76,352.49Z"/><path class="cls-7" d="M216.76,352.49c-11,6.54-28.25-2.14-38.49-19.39s-9.6-36.53,1.42-43.07c8.5-5,20.69-1,30.51,9a55.61,55.61,0,0,1,13,21.56C227.68,334.29,225.44,347.34,216.76,352.49Z"/><path class="cls-27" d="M223.24,320.56l-20,8.72L193.2,312.33l17-13.33a55.61,55.61,0,0,1,13,21.56Z"/><path class="cls-28" d="M192.81,324c2.78,4.69,7.46,7,10.45,5.27s3.16-7,.39-11.7-7.46-7-10.45-5.26S190,319.34,192.81,324Z"/><path class="cls-29" d="M193.63,323.54c2.26,3.8,6.06,5.72,8.49,4.28s2.57-5.7.31-9.51-6.06-5.72-8.49-4.27S191.37,319.73,193.63,323.54Z"/><path class="cls-7" d="M195.49,322.28c1.17,2,3.14,3,4.4,2.21s1.33-2.95.16-4.91-3.14-3-4.39-2.22S194.32,320.31,195.49,322.28Z"/><g class="cls-1"><polygon class="cls-5" points="114.72 134.33 118.52 132.13 128.88 138.11 125.09 140.32 114.72 134.33"/></g><g class="cls-1"><polygon class="cls-30" points="114.72 171.07 118.52 168.87 128.88 174.85 125.09 177.06 114.72 171.07"/></g><polygon class="cls-31" points="114.72 134.33 114.72 171.07 125.09 177.06 125.09 140.32 114.72 134.33"/><polygon class="cls-5" points="128.88 138.11 128.88 174.85 125.09 177.06 125.09 140.32 128.88 138.11"/><g class="cls-1"><polygon class="cls-5" points="130.27 127.95 134.07 125.74 144.43 131.72 140.64 133.93 130.27 127.95"/></g><g class="cls-1"><polygon class="cls-32" points="130.27 180.05 134.07 177.85 144.43 183.83 140.64 186.04 130.27 180.05"/></g><polygon class="cls-33" points="130.27 127.95 130.27 180.05 140.64 186.04 140.64 133.93 130.27 127.95"/><polygon class="cls-5" points="144.43 131.72 144.43 183.83 140.64 186.04 140.64 133.93 144.43 131.72"/><g class="cls-1"><polygon class="cls-5" points="145.82 121.56 149.62 119.35 159.98 125.34 156.19 127.54 145.82 121.56"/></g><g class="cls-1"><polygon class="cls-34" points="145.82 189.03 149.62 186.82 159.98 192.81 156.19 195.01 145.82 189.03"/></g><polygon class="cls-35" points="145.82 121.56 145.82 189.03 156.19 195.01 156.19 127.54 145.82 121.56"/><polygon class="cls-5" points="159.98 125.34 159.98 192.81 156.19 195.01 156.19 127.54 159.98 125.34"/><g class="cls-1"><polygon class="cls-5" points="161.37 115.17 165.16 112.96 175.53 118.95 171.74 121.15 161.37 115.17"/></g><g class="cls-1"><polygon class="cls-36" points="161.37 198.01 165.16 195.8 175.53 201.78 171.74 203.99 161.37 198.01"/></g><polygon class="cls-37" points="161.37 115.17 161.37 198.01 171.74 203.99 171.74 121.15 161.37 115.17"/><polygon class="cls-5" points="175.53 118.95 175.53 201.78 171.74 203.99 171.74 121.15 175.53 118.95"/><path class="cls-5" d="M82.87,77.1l-5.51-4a.52.52,0,0,1-.18-.23l-2.45-6.4a.48.48,0,0,0-.69-.26v0l-3.57,2s.13.53.29,1.08l-4.14-1.84a.44.44,0,0,0-.42,0l0,0-3.69,2.12,2.16,2.11L66.1,73s2.09-.21,2.44-.29c.07,0,.15-.13.24-.32l.92,1.43a.57.57,0,0,1,.07.36l-.94,4.94a.51.51,0,0,0,.47.59l4.89.31a.53.53,0,0,1,.35.17l.86,1A22.24,22.24,0,0,0,73.94,83a10.54,10.54,0,0,0,.31,1.19L76,87.35l3.51-2v0a.43.43,0,0,0,.34-.49l-.79-5s0-.09,0-.13l.24.26,3.48-2A.47.47,0,0,0,82.87,77.1Z"/><path class="cls-7" d="M70.23,68.36l-2.11,3a.46.46,0,0,1-.57.15l-4.58-2a.46.46,0,0,0-.58.68L66,75.91a.51.51,0,0,1,.08.36l-1,4.93a.52.52,0,0,0,.47.6l4.9.31a.46.46,0,0,1,.35.17l4.47,5a.47.47,0,0,0,.83-.36l-.79-5.05a.45.45,0,0,1,.28-.5L79.14,80a.47.47,0,0,0,.08-.83l-5.51-4a.58.58,0,0,1-.18-.23L71.08,68.5A.49.49,0,0,0,70.23,68.36Z"/><polygon class="cls-5" points="297.41 82.24 297.41 86.36 319.38 106.36 335.88 108.36 335.88 104.27 297.41 82.24"/><polygon class="cls-38" points="316.62 112.46 297.41 90.92 300.17 115.45 335.88 139.02 335.88 112.92 316.62 112.46"/><polygon class="cls-39" points="293.73 93.05 297.41 90.92 316.62 112.46 312.95 114.6 293.73 93.05"/><polygon class="cls-40" points="293.73 84.38 293.73 88.49 312.95 110.04 332.21 110.5 332.21 106.4 293.73 84.38"/><polygon class="cls-40" points="312.95 114.6 293.73 93.05 293.73 119.13 332.21 141.16 332.21 115.06 312.95 114.6"/><polygon class="cls-41" points="293.73 84.38 293.73 88.49 312.95 110.04 332.21 110.5 332.21 106.4 293.73 84.38"/><polygon class="cls-42" points="312.95 114.6 293.73 93.05 293.73 119.13 332.21 141.16 332.21 115.06 312.95 114.6"/><polygon class="cls-43" points="293.73 84.38 297.41 82.24 335.88 104.27 332.21 106.4 293.73 84.38"/><polygon class="cls-44" points="332.21 106.4 332.21 110.5 335.88 108.36 335.88 104.27 332.21 106.4"/><polygon class="cls-45" points="332.21 115.06 335.88 112.92 335.88 139.02 332.21 141.16 332.21 115.06"/><polygon class="cls-46" points="19.22 153.11 21.52 151.83 23.6 147.61 21.99 147.45 19.22 153.11"/><polygon class="cls-47" points="16.61 144.1 19.22 153.11 21.99 147.45 16.61 144.1"/><polygon class="cls-48" points="41.33 131.5 41.33 155.98 39.03 157.26 12.65 142.07 12.65 117.58 14.95 116.3 41.33 131.5"/><polygon class="cls-49" points="41.33 131.5 41.33 155.98 39.03 157.26 12.65 142.07 39.03 132.78 41.33 131.5"/><polygon class="cls-50" points="39.03 132.78 39.03 157.26 12.65 142.07 12.65 117.58 39.03 132.78"/><path class="cls-8" d="M17.75,129.94a5.39,5.39,0,0,1,2.44,4.22c0,1.55-1.11,2.17-2.46,1.39a5.36,5.36,0,0,1-2.43-4.21C15.3,129.79,16.4,129.16,17.75,129.94Z"/><path class="cls-8" d="M25.85,134.61a5.41,5.41,0,0,1,2.44,4.23c0,1.55-1.11,2.17-2.46,1.39A5.35,5.35,0,0,1,23.4,136C23.4,134.46,24.5,133.84,25.85,134.61Z"/><path class="cls-8" d="M34,139.29a5.35,5.35,0,0,1,2.43,4.22c0,1.55-1.1,2.17-2.45,1.4a5.39,5.39,0,0,1-2.44-4.22C31.5,139.14,32.6,138.51,34,139.29Z"/><path class="cls-51" d="M103.68,306.59s-.1,1.93-.12,2.28a4.28,4.28,0,0,0-.16,1c.09.49,4.53,9.33,6.7,9.1,1.59-.16,3.88-1.84,1.32-2.71-1.25-.73-2.16-7.76-2.23-8s0-3.2-.21-2.22"/><path class="cls-51" d="M94.34,302.77s-.09,1.93-.12,2.28a4.28,4.28,0,0,0-.16,1c.09.49,4.54,9.33,6.7,9.1,1.59-.16,3.88-1.84,1.32-2.71-1.25-.73-2.15-7.76-2.23-8s0-3.2-.21-2.22"/><path class="cls-5" d="M92.12,284.36c-.31,6.47,1.79,19.35,1.79,19.35s1.24,2,6-.66c0,0,.74-19.35,1.55-24.82a36.29,36.29,0,0,1,.89-4.44h0a44.14,44.14,0,0,0,1.92-10.53,123,123,0,0,0-1-14.8c-.6-5.56-1.24-10.36-1.24-10.36a12.48,12.48,0,0,1-8.38-3.28S88,242.55,91.62,250.7a18.21,18.21,0,0,1,1.45,6c.21,2.74.48,6.5.61,9.77.22,5.32.61,6.83.38,7.45A32,32,0,0,0,92.12,284.36Z"/><path class="cls-5" d="M98.79,255.47c1.62,4.16,3.33,13.83,3.59,18.31a44.14,44.14,0,0,0,1.92-10.53,123,123,0,0,0-1-14.8l-5.15-4.07S97.17,251.32,98.79,255.47Z"/><path class="cls-5" d="M112.54,237.43A91.62,91.62,0,0,1,115,253.86c.38,8.39-1.48,20.4-1.87,23.25s-1.31,7.3-2.1,14.38c-.75,6.67-1.33,15.19-1.33,15.19s-4.83,2.76-6.72.37c0,0-1.17-18.9-.63-24.75s1.75-6.26,1.59-8.19-1.88-16.56-2.8-17.94a18.21,18.21,0,0,1-1.08-18.41A29.07,29.07,0,0,0,112.54,237.43Z"/><path class="cls-7" d="M103.48,213.32l.44-.12.38.18L117,198.49a.75.75,0,0,1,1-.12l20.22,14.84.62-.21.19,1h0a.65.65,0,0,1-.12.61L125.8,230a.83.83,0,0,1-1.12.14l-20.75-15.23a.6.6,0,0,1-.25-.5h0Z"/><path class="cls-52" d="M103.72,213.7l20.74,15.23a.84.84,0,0,0,1.13-.14l13.09-15.36a.66.66,0,0,0-.12-1l-20.78-15.26a.75.75,0,0,0-1,.12l-13.16,15.45A.63.63,0,0,0,103.72,213.7Z"/><path class="cls-53" d="M104.8,213.66,124.26,228a.79.79,0,0,0,1.06-.13l12.27-14.41a.62.62,0,0,0-.1-.91L118,198.19a.7.7,0,0,0-.95.11L104.7,212.8A.58.58,0,0,0,104.8,213.66Z"/><path class="cls-51" d="M128.61,221.49a3.32,3.32,0,0,0,.58-.89,3.39,3.39,0,0,1,.59-1.38c.42-.52,1.62-2.6,1.87-2.46a1.52,1.52,0,0,1,.29,1.55c-.19.8-.52,1.33-.54,1.53s1.38.24,2.23,0a10,10,0,0,0,2.17-1.64c.32,0-.12,2.45-.32,3.19a13.24,13.24,0,0,1-2.1,2.58"/><path class="cls-51" d="M105.29,213.15l2.49-2.42a4.1,4.1,0,0,1,1.15-.78,5.39,5.39,0,0,0,1.17-.67c.6-.47.85-1.7,1.08-2.16s1.66-1.7,1.79-2,.18-.88-.29-.83a14.23,14.23,0,0,0-2.85,1.59L111.1,204s-1.83.74-3,1.34-1.42,2.17-1.86,2.55-3.45,2.74-3.45,2.74"/><path class="cls-5" d="M110.26,188.42s.8,3-1.17,4.79-1.11-4-1.11-4"/><path class="cls-51" d="M98.15,210.3l6.83-.79,1,.36a36.13,36.13,0,0,1-.11-6.57.82.82,0,0,1,1.11-.75,2.76,2.76,0,0,0,1.64.28c1.18-.77,1.25-5.7,1.14-8.07s-.34-5.25-.34-5.25c-.67-.8-6.84,0-8.89,1.39s-1.93,9.68-1.85,11.23,0,5.22,0,5.22Z"/><path class="cls-54" d="M94.16,228.75a18.36,18.36,0,0,1-1.89,8.54A26.77,26.77,0,0,0,104.33,242a14.38,14.38,0,0,0,8.91-1.42s-.86-4.32-1.21-7.85a21.79,21.79,0,0,1-.15-3.06c.07-1.39.42-4,.75-6.71.45-3.7.85-7.62.37-9.06-.82-2.52-7-6.45-7-6.45s-7.44.5-7.26-1.63c0,0-4-.59-5.88.28s-2.16,5.95-1.59,10.21S93.86,224.44,94.16,228.75Z"/><path class="cls-55" d="M106,218.71a94.81,94.81,0,0,0,2.73,10.08s.62,0,1.52,0l1.78,3.9a21.79,21.79,0,0,1-.15-3.06c.07-1.39.42-4,.75-6.71l-.29-1Z"/><path class="cls-51" d="M109.89,225.47s2.87,5.72,4,7.47c1.43,2.17,2.17,3,4.85,1.05h0s10.05-9.22,11-9.32,1.09.07,2.12-.09a2.74,2.74,0,0,0,1.52-.66,15.5,15.5,0,0,1-2.24-4.37c-.77.49-2.19,1.69-3.13,2.24s-7,3.77-10.14,5.59c-.25-.58-1.29-3.65-1.51-4.2C116.35,223.21,110,225.55,109.89,225.47Z"/><path class="cls-56" d="M113,213.86l4.11,10.19s-3.49,3.62-7.29,3.62c0,0-4-7.47-4.19-10.86"/><path class="cls-57" d="M98.73,204.53l-.36,1.21a2,2,0,0,0,1.38,1.79,13,13,0,0,0,6.71.2l-.52-1.64S101.13,206.8,98.73,204.53Z"/><path class="cls-5" d="M101.3,202s2.17,4.49,0,8-7.75.84-7.31-2.7c.56-4.58,2.89-5.73,2.89-5.73"/><path class="cls-5" d="M94.18,191.83c.63-4.43,4-8.24,11.43-7,1.57.26,5,1.62,4.67,4.43a2.79,2.79,0,0,1-.41,1.19c.43,1.56.49,4.54-4.41,6.94.08.87-.47,1-.66,2.53-.3,2.36-2.57,3.88-5.6,3.43C96.8,203,93,199.8,94.18,191.83Z"/><path class="cls-5" d="M102,311.77c.13,1.17,1.29,3.49,1.49,4.31s.61,6.11.61,6.11H105l.22-6v0c.08.22.71,2,1,3s2.88,2,3.76,2,4.75-2.67,5.63-4.19-4.13-.85-4.13-.85,1.39.71.82,1.35-1.9.34-2.8-.84c-1.11-1.45-2.94-9.65-6.12-7.56A3.29,3.29,0,0,0,102,311.77Z"/><path class="cls-58" d="M105.17,316.21v0c.08.22.71,2,1,3s2.88,2,3.76,2c-.42-.05-1-1-1.85-2.61-1.25-2.42-2-3.33-2.42-3.14A1,1,0,0,0,105.17,316.21Z"/><path class="cls-5" d="M92.64,308c.13,1.16,1.29,3.48,1.49,4.3s.61,6.11.61,6.11h.88l.21-6v0c.08.22.71,2,1,3s2.88,2,3.75,2,4.76-2.66,5.63-4.19-4.13-.85-4.13-.85,1.39.71.82,1.36-1.89.34-2.8-.85c-1.1-1.45-2.94-9.65-6.11-7.56A3.29,3.29,0,0,0,92.64,308Z"/><path class="cls-58" d="M95.83,312.39v0c.08.22.71,2,1,3s2.88,2,3.75,2c-.42-.05-1-1-1.85-2.61-1.25-2.42-2-3.33-2.41-3.14A1,1,0,0,0,95.83,312.39Z"/><path class="cls-59" d="M27.81,235.34l-25-.64v26.76a.48.48,0,0,0,.23.42l17.59,10.64a1.74,1.74,0,0,0,1.79,0l28.84-17.45a.51.51,0,0,0,.23-.42V227.9Z"/><path class="cls-4" d="M20.65,245.76,3.06,235.12a.5.5,0,0,1,0-.84l28.72-17.37a1.93,1.93,0,0,1,2,0l17.48,10.57a.5.5,0,0,1,0,.84L22.44,245.76A1.7,1.7,0,0,1,20.65,245.76Z"/><path class="cls-5" d="M38.33,266.39a7.56,7.56,0,0,0-1.44,3.45c0,1.57.51,2.37.72,6.16s2.34,7.6,5.48,7.94a1.42,1.42,0,0,0,1.53-1.32,11.56,11.56,0,0,0-.59-5.3,46.61,46.61,0,0,0-3-6.08"/><path class="cls-5" d="M47.05,260.76a5.73,5.73,0,0,0-1.28,2.49,10,10,0,0,0,.64,3.82c.36,1.21.26,5.29.42,5.42a.48.48,0,0,0,.61,0l.13-5.34a2.23,2.23,0,0,1,1.14,1.5c.29,1.13.12,4.33.76,5.73.22.5,5,3.13,6.7,2.21a3,3,0,0,0,.19-2,7.54,7.54,0,0,0-1.71-2.63c-.57-.63-3.23-5.4-3.23-5.4"/><path class="cls-60" d="M45.56,240.87c.25.34-1.49,2.93,0,8.54s1.95,9.86,1.32,12.24-.17,2.84.27,3.69,2.15,2.26,2.53,4.47S51,273,52.91,273.12s1.74-1.19,1.74-1.19a14.71,14.71,0,0,1-1.4-4.26c-.51-2.82-2-4.32-2.25-7.51s1.72-26.49,1.31-27.58a5.1,5.1,0,0,0-2.12-2.76c-1.32-.85-9.77-.68-9.77-.68l-3.53,3.78,2.68,3.45"/><path class="cls-60" d="M35.83,241.38a7,7,0,0,1,.63,2.38c0,1.15-.67,6.92-.31,10.24s1.5,9.3,1.63,13.6.48,10,1.88,11.69,4.43,1.15,4.53-.51-2.23-9.65-2.3-11.63,2.29-14.47,2.3-17.14,1.06-9.61.56-11.14-2.34-3.82-5-6.12C39.74,232.75,32.9,237.05,35.83,241.38Z"/><path class="cls-5" d="M51.77,230.89s1.07.57,1.07,2.65S51.27,260,51.27,260a3.06,3.06,0,0,1-2.54.43,4.1,4.1,0,0,1-1.89-.91s-.72-6.55-1.07-8.11-1.2-4.68-1.45-6.59.65-3.52.57-3.89-4.49-3.42-4.49-3.42Z"/><path class="cls-5" d="M37.21,264.5s1.24,2.08,5,.93c0,0,1.77-10.75,2.17-13.46s1.24-10.85,1-12.83-4-6.27-5.38-7.34-7,4.62-4.69,9.48a5.43,5.43,0,0,1,.77,3,80.37,80.37,0,0,0-.4,8.09C35.77,255.31,37.21,264.5,37.21,264.5Z"/><path class="cls-5" d="M15.45,220.39a12.39,12.39,0,0,0-1.79,8.5c.67,5.18,2.88,6.37,7.81,8.58s14.36,3.91,14.36,3.91-.09-3,1.87-4.5,11.13-7.06,12.49-7.06A39.86,39.86,0,0,0,46,226.9c-3-1.92-10.18-5-11.5-6.51s-1.36-6.76-1.36-6.76S18.1,215.55,15.45,220.39Z"/><path class="cls-61" d="M58.3,227.05l-.47.21L44.5,219.08a.75.75,0,0,0-.75,0L23.29,230.36v-.08l-.39-.05h-.39v.82h0a.4.4,0,0,0,.18.31l13.69,8.4a.76.76,0,0,0,.77,0l20.9-11.54a.48.48,0,0,0,.25-.4h0Z"/><path class="cls-62" d="M58.05,227.42,37.15,239a.78.78,0,0,1-.77,0l-13.69-8.4a.39.39,0,0,1,0-.67l21-11.62a.75.75,0,0,1,.75,0l13.57,8.32A.47.47,0,0,1,58.05,227.42Z"/><path class="cls-63" d="M52.54,224.85a3.25,3.25,0,0,1-3.47,1.05c-.73-.17-1.06-.8-1.4-1.18a9.6,9.6,0,0,0-1.26-.95c-.51-.46-1.51-.59-1.95-1.45s-.46-1.49-1-1.84-6.17-4-6.17-4l2.42-2.94s4.53,3.41,6.11,4a13.49,13.49,0,0,1,5,3C52.36,222,53,224.13,52.54,224.85Z"/><path class="cls-64" d="M41.44,214.53a4.23,4.23,0,0,0-2.08,2.25,5.32,5.32,0,0,0-.34,1.09s-4.3-2.6-7.38-4.74a15,15,0,0,1-3-2.41c-.49-.77-.35-2.13-.39-4.8s-.3-9.47.05-14.21,3.74-4.43,3.74-4.43c2.19.25,3.81,2.49,3.9,5.88a84.41,84.41,0,0,1-1,9.72c-.22,1.52-.42,2.88-.57,3.84a2.27,2.27,0,0,0,0,.52,2.55,2.55,0,0,0,.89,1.8C37.85,211.28,41.44,214.53,41.44,214.53Z"/><path class="cls-65" d="M39.36,216.78a5.32,5.32,0,0,0-.34,1.09s-4.3-2.6-7.38-4.74l-.26-4.56,1.25-1.27.72-3.76,1.63-.66c-.22,1.52-.42,2.88-.57,3.84,0,0,0,.2,0,.52a42.74,42.74,0,0,0,0,5.19C34.59,213.61,38.11,216,39.36,216.78Z"/><path class="cls-66" d="M36.65,201c-.07.17-.13.34-.2.5h0a11.73,11.73,0,0,1-1.38,2.4,6.63,6.63,0,0,0-.91,1.67h0a6.64,6.64,0,0,0-.38,1.7,35.57,35.57,0,0,0,1.43,13.59s-6,6.45-12.75,6.45-8.87-3-8.87-3,1.65-4.08,2.8-6.66c.83-1.87.84-6,.21-9.35s-4.53-12.18-1.87-16,12.66-4.82,17.1-5a2.62,2.62,0,0,1,2.74,2.79,8.92,8.92,0,0,0,.13,3.76C35.51,195.92,37.54,198.5,36.65,201Z"/><path class="cls-67" d="M29.23,190s1.4,1.76-.12,2.33C29.11,192.35,29.11,191,29.23,190Z"/><path class="cls-60" d="M22.22,184.52s-.38,3.32-.46,4.3,2.42,4.63,7.35,3.53c0,0-.05-5.59,1.74-7.65l-6.93-2.89H22.48"/><path class="cls-63" d="M34.34,173.4a23.7,23.7,0,0,1-.51,9c-1.25,4.2-2.95,5.39-3.92,5.45s-6.2-2.07-7.84-6.1S20.27,174.37,21,172s4.88-4.42,7.77-3.91S34.05,170.62,34.34,173.4Z"/><path class="cls-5" d="M24.31,168.84l-1.95,2.36-1.22,1.5s-4.41-.6-5.06-3.59a3.21,3.21,0,0,1,.11-1.51,4.29,4.29,0,0,1,.93-1.66C18.76,164.08,23,164.48,24.31,168.84Z"/><path class="cls-5" d="M22.36,171.2l-1.22,1.5s-4.41-.6-5.06-3.59a3.21,3.21,0,0,1,.11-1.51s1.59,3.76,4.89,3.5A3.08,3.08,0,0,1,22.36,171.2Z"/><path class="cls-5" d="M34.38,171.39a2.38,2.38,0,0,0-.18-.3A8.7,8.7,0,0,0,20.4,170a11.21,11.21,0,0,0-2.49,5.45v0c-.6,4.94,2.22,6.44,2.81,7.56s1.4,2.18,1.5,1.48.15-3,1.62-3.12v-.32c0-.71,0-1.34.07-1.92.06-.84,1.4-1.37,3-1.73-.41.58-.77,1.23-.44,1.36.6.24,4.85-1,7.52-3.47A3.39,3.39,0,0,0,34.38,171.39Z"/><path class="cls-63" d="M24.31,179.63a1.66,1.66,0,0,0-1.51-.82c-.92.15-1,1.55-.69,2.67A2,2,0,0,0,24.18,183"/><path class="cls-68" d="M64.16,211.21l-.8-.5h0a.36.36,0,0,0-.39,0L42.1,222.1a1.06,1.06,0,0,0-.48.56L35.8,238.34a.27.27,0,0,0,.07.29h0l0,0,.79.49.48-.39-.37-.42,20.34-11.14a1.41,1.41,0,0,0,.64-.74l5.39-14.54c.22-.08.54-.19.59-.22A4.59,4.59,0,0,0,64.16,211.21Z"/><path class="cls-69" d="M42.45,223.17l-5.82,15.69a.27.27,0,0,0,.37.33l21-11.48a1.41,1.41,0,0,0,.64-.74l5.69-15.35a.35.35,0,0,0-.5-.43L42.92,222.62A1,1,0,0,0,42.45,223.17Z"/><path class="cls-70" d="M32.23,205.21c-1.38.46-4.41,1.4-7,2.15a6.56,6.56,0,0,1-2.72-.32c-1.13-.48-1.45-4.13-1.45-4.13,0-1.71,0-2.93,0-2.93l-4,8.07,1.14,6.33,7.12,3.06L21,212.19V211a1.11,1.11,0,0,1,.75-1c1.27-.44,3.71-1.63,5.33-2.11,2.12-.64,5.94-1.63,7.07-2.35h0a6.63,6.63,0,0,1,.91-1.67,11.73,11.73,0,0,0,1.38-2.4C36.34,201.68,34.66,204.39,32.23,205.21Z"/><path class="cls-63" d="M37.72,229a2.38,2.38,0,0,1-2.93,1c-.73-.16-1.69-1.49-2-1.87s-1.11-.26-1.39-.35a2.61,2.61,0,0,1-1.73-1.34c-.49-1-.45-1.49-.95-1.84s-6.17-4-6.17-4l2.42-2.94s4.52,3.41,6.1,4a13.52,13.52,0,0,1,5,3C37.54,226.15,38.13,228.29,37.72,229Z"/><path class="cls-71" d="M16.73,191.15s-2.88,0-3.23,4.72-.1,11.53-.06,14.21-.09,4,.4,4.79C14.78,216.34,24.2,222,24.2,222a4.72,4.72,0,0,1,2.41-3.34s-3.9-3.53-6.5-5.77a1.78,1.78,0,0,1-.59-1.61c.44-2.85,1.69-11.21,1.62-14C21.05,193.94,18.92,191.39,16.73,191.15Z"/><path class="cls-72" d="M275.7,197.74l-80.63-49.37a.91.91,0,0,0-.89-.12l-1.39.65,1,1.38c0,10.54,0,49.18,0,57.11a2.86,2.86,0,0,0,1.25,2.18l78.6,48.13,1.5,2,1.33-.62.12,0h0a.83.83,0,0,0,.32-.74V199.93A2.85,2.85,0,0,0,275.7,197.74Z"/><path class="cls-73" d="M274.26,259.61l-80.63-49.37a2.86,2.86,0,0,1-1.25-2.18c0-8.28,0-50.12,0-58.36,0-.79.56-1.08,1.25-.66l80.63,49.37a2.85,2.85,0,0,1,1.25,2.19v58.34C275.51,259.73,275,260,274.26,259.61Z"/><path class="cls-74" d="M271.91,199.92,196,153.34l-.3-.17c-.62-.38-1.13-.12-1.13.59,0,7.47,0,45.35,0,52.85a2.62,2.62,0,0,0,1.13,2l76.23,46.74c.64.39,1.15.12,1.15-.59V201.91A2.6,2.6,0,0,0,271.91,199.92Z"/><path class="cls-75" d="M271.91,199.92,196,153.34c0,5,0,19.92,0,32.79,0,8.81,0,16.64,0,19.64a2.64,2.64,0,0,0,1.13,2l75.95,46.58V201.91A2.6,2.6,0,0,0,271.91,199.92Z"/><path class="cls-76" d="M273.06,220.93v33.4l-75.95-46.58a2.64,2.64,0,0,1-1.13-2c0-2.49,0-8.33,0-15.28v-4.36l11.9-16.27,10.87,29.06,16.13-13.78,11.26,34,18-16.73Z"/><path class="cls-77" d="M273.06,236.49v17.84l-75.95-46.58a2.64,2.64,0,0,1-1.13-2c0-2.49,0-8.33,0-15.28l10-5.31,11,24.06,17.92-3.11,11.6,21.15,17-3.29Z"/><polygon class="cls-78" points="195.83 74.57 190.72 77.67 185.84 74.72 190.96 71.63 195.83 74.57"/><polygon class="cls-79" points="190.72 77.67 190.72 83.97 195.83 80.88 195.83 74.57 190.72 77.67"/><polygon class="cls-80" points="185.84 74.72 190.72 77.67 190.72 83.97 185.84 81.03 185.84 74.72"/><polygon class="cls-81" points="285.3 43.37 276.75 48.54 268.59 43.61 277.14 38.43 285.3 43.37"/><polygon class="cls-82" points="276.75 48.54 276.75 59.1 285.3 53.93 285.3 43.37 276.75 48.54"/><polygon class="cls-83" points="268.59 43.61 276.75 48.54 276.75 59.1 268.59 54.17 268.59 43.61"/></g></g></svg>