<svg id="Layer_1" data-name="Layer 1" xmlns="http://www.w3.org/2000/svg" xmlns:xlink="http://www.w3.org/1999/xlink" viewBox="0 0 517.8 257.22"><defs><style>.cls-1{opacity:0.53;}.cls-2{fill:#8aa4be;}.cls-198,.cls-3{fill:#76b0f7;}.cls-189,.cls-201,.cls-3{opacity:0.7;}.cls-4{fill:url(#linear-gradient);}.cls-5{opacity:0.31;}.cls-6{fill:url(#linear-gradient-2);}.cls-7{fill:url(#linear-gradient-3);}.cls-8{fill:url(#linear-gradient-4);}.cls-9{fill:url(#linear-gradient-5);}.cls-10{fill:url(#linear-gradient-6);}.cls-11{fill:url(#linear-gradient-7);}.cls-12{fill:url(#linear-gradient-8);}.cls-13{fill:url(#linear-gradient-9);}.cls-14{fill:url(#linear-gradient-10);}.cls-15{fill:url(#linear-gradient-11);}.cls-16{fill:url(#linear-gradient-12);}.cls-17{fill:url(#linear-gradient-13);}.cls-18{fill:url(#linear-gradient-14);}.cls-19{fill:url(#linear-gradient-15);}.cls-20{fill:url(#linear-gradient-16);}.cls-21{fill:url(#linear-gradient-17);}.cls-22{fill:url(#linear-gradient-18);}.cls-23{fill:url(#linear-gradient-19);}.cls-24{fill:url(#linear-gradient-20);}.cls-25{fill:url(#linear-gradient-21);}.cls-26{fill:url(#linear-gradient-22);}.cls-27{fill:url(#linear-gradient-23);}.cls-28{fill:url(#linear-gradient-24);}.cls-29{fill:url(#linear-gradient-25);}.cls-30{fill:url(#linear-gradient-26);}.cls-31{fill:url(#linear-gradient-27);}.cls-32{fill:url(#linear-gradient-28);}.cls-33{fill:url(#linear-gradient-29);}.cls-34{fill:url(#linear-gradient-30);}.cls-35{fill:url(#linear-gradient-31);}.cls-36{fill:url(#linear-gradient-32);}.cls-37{fill:url(#linear-gradient-33);}.cls-38{fill:url(#linear-gradient-34);}.cls-39{fill:url(#linear-gradient-35);}.cls-40{fill:url(#linear-gradient-36);}.cls-41{fill:url(#linear-gradient-37);}.cls-42{fill:url(#linear-gradient-38);}.cls-43{fill:url(#linear-gradient-39);}.cls-44{fill:url(#linear-gradient-40);}.cls-45{fill:url(#linear-gradient-41);}.cls-46{fill:url(#linear-gradient-42);}.cls-47{fill:url(#linear-gradient-43);}.cls-48{fill:url(#linear-gradient-44);}.cls-49{fill:url(#linear-gradient-45);}.cls-50{fill:url(#linear-gradient-46);}.cls-51{fill:url(#linear-gradient-47);}.cls-52{fill:url(#linear-gradient-48);}.cls-53{fill:url(#linear-gradient-49);}.cls-54{fill:url(#linear-gradient-50);}.cls-55{fill:url(#linear-gradient-51);}.cls-56{fill:url(#linear-gradient-52);}.cls-57{fill:url(#linear-gradient-53);}.cls-58{fill:url(#linear-gradient-54);}.cls-59{fill:url(#linear-gradient-55);}.cls-60{fill:url(#linear-gradient-56);}.cls-61{fill:url(#linear-gradient-57);}.cls-62{fill:url(#linear-gradient-58);}.cls-63{fill:url(#linear-gradient-59);}.cls-64{fill:url(#linear-gradient-60);}.cls-65{fill:url(#linear-gradient-61);}.cls-66{fill:url(#linear-gradient-62);}.cls-67{fill:url(#linear-gradient-63);}.cls-68{fill:url(#linear-gradient-64);}.cls-69{fill:url(#linear-gradient-65);}.cls-70{fill:url(#linear-gradient-66);}.cls-71{fill:url(#linear-gradient-67);}.cls-72{fill:url(#linear-gradient-68);}.cls-73{fill:url(#linear-gradient-69);}.cls-74{fill:url(#linear-gradient-70);}.cls-75{fill:url(#linear-gradient-71);}.cls-76{fill:url(#linear-gradient-72);}.cls-77{fill:url(#linear-gradient-73);}.cls-78{fill:url(#linear-gradient-74);}.cls-79{fill:url(#linear-gradient-75);}.cls-80{fill:url(#linear-gradient-76);}.cls-81{fill:url(#linear-gradient-77);}.cls-82{fill:url(#linear-gradient-78);}.cls-83{fill:url(#linear-gradient-79);}.cls-84{fill:url(#linear-gradient-80);}.cls-85{fill:url(#linear-gradient-81);}.cls-86{fill:url(#linear-gradient-82);}.cls-87{fill:url(#linear-gradient-83);}.cls-88{fill:url(#linear-gradient-84);}.cls-89{fill:url(#linear-gradient-85);}.cls-90{fill:url(#linear-gradient-86);}.cls-91{fill:url(#linear-gradient-87);}.cls-92{fill:url(#linear-gradient-88);}.cls-93{fill:url(#linear-gradient-89);}.cls-94{fill:url(#linear-gradient-90);}.cls-95{fill:url(#linear-gradient-91);}.cls-96{fill:url(#linear-gradient-92);}.cls-97{fill:url(#linear-gradient-93);}.cls-98{fill:url(#linear-gradient-94);}.cls-99{fill:url(#linear-gradient-95);}.cls-100{fill:url(#linear-gradient-96);}.cls-101{fill:url(#linear-gradient-97);}.cls-102{fill:url(#linear-gradient-98);}.cls-103{fill:url(#linear-gradient-99);}.cls-104{fill:url(#linear-gradient-100);}.cls-105{fill:url(#linear-gradient-101);}.cls-106{fill:url(#linear-gradient-102);}.cls-107{fill:url(#linear-gradient-103);}.cls-108{fill:url(#linear-gradient-104);}.cls-109{fill:url(#linear-gradient-105);}.cls-110{fill:url(#linear-gradient-106);}.cls-111{fill:url(#linear-gradient-107);}.cls-112{fill:url(#linear-gradient-108);}.cls-113{fill:url(#linear-gradient-109);}.cls-114{fill:url(#linear-gradient-110);}.cls-115{fill:url(#linear-gradient-111);}.cls-116{fill:url(#linear-gradient-112);}.cls-117{fill:url(#linear-gradient-113);}.cls-118{fill:url(#linear-gradient-114);}.cls-119{fill:url(#linear-gradient-115);}.cls-120{fill:url(#linear-gradient-116);}.cls-121{fill:url(#linear-gradient-117);}.cls-122{fill:url(#linear-gradient-118);}.cls-123{fill:url(#linear-gradient-119);}.cls-124{fill:url(#linear-gradient-120);}.cls-125{fill:url(#linear-gradient-121);}.cls-126{fill:url(#linear-gradient-122);}.cls-127{fill:url(#linear-gradient-123);}.cls-128{fill:url(#linear-gradient-124);}.cls-129{fill:url(#linear-gradient-125);}.cls-130{fill:url(#linear-gradient-126);}.cls-131{fill:url(#linear-gradient-127);}.cls-132{fill:url(#linear-gradient-128);}.cls-133{fill:url(#linear-gradient-129);}.cls-134{fill:url(#linear-gradient-130);}.cls-135{fill:url(#linear-gradient-131);}.cls-136{fill:url(#linear-gradient-132);}.cls-137{fill:url(#linear-gradient-133);}.cls-138{fill:url(#linear-gradient-134);}.cls-139{fill:url(#linear-gradient-135);}.cls-140{fill:url(#linear-gradient-136);}.cls-141{fill:url(#linear-gradient-137);}.cls-142{fill:url(#linear-gradient-138);}.cls-143{fill:url(#linear-gradient-139);}.cls-144{fill:url(#linear-gradient-140);}.cls-145{fill:url(#linear-gradient-141);}.cls-146{fill:url(#linear-gradient-142);}.cls-147{fill:url(#linear-gradient-143);}.cls-148{fill:url(#linear-gradient-144);}.cls-149{fill:url(#linear-gradient-145);}.cls-150{fill:url(#linear-gradient-146);}.cls-151{fill:url(#linear-gradient-147);}.cls-152{fill:url(#linear-gradient-148);}.cls-153{fill:url(#linear-gradient-149);}.cls-154{fill:url(#linear-gradient-150);}.cls-155{fill:url(#linear-gradient-151);}.cls-156{fill:url(#linear-gradient-152);}.cls-157{fill:url(#linear-gradient-153);}.cls-158{fill:url(#linear-gradient-154);}.cls-159{fill:url(#linear-gradient-155);}.cls-160{fill:url(#linear-gradient-156);}.cls-161{fill:url(#linear-gradient-157);}.cls-162{fill:url(#linear-gradient-158);}.cls-163{fill:url(#linear-gradient-159);}.cls-164{fill:url(#linear-gradient-160);}.cls-165{fill:url(#linear-gradient-161);}.cls-166{fill:url(#linear-gradient-162);}.cls-167{fill:url(#linear-gradient-163);}.cls-168{fill:url(#linear-gradient-164);}.cls-169{fill:url(#linear-gradient-165);}.cls-170{fill:url(#linear-gradient-166);}.cls-171{fill:url(#linear-gradient-167);}.cls-172{fill:url(#linear-gradient-168);}.cls-173{fill:url(#linear-gradient-169);}.cls-174{fill:url(#linear-gradient-170);}.cls-175{fill:url(#linear-gradient-171);}.cls-176{fill:url(#linear-gradient-172);}.cls-177{fill:url(#linear-gradient-173);}.cls-178{fill:url(#linear-gradient-174);}.cls-179{fill:url(#linear-gradient-175);}.cls-180{fill:url(#linear-gradient-176);}.cls-181{fill:url(#linear-gradient-177);}.cls-182{fill:url(#linear-gradient-178);}.cls-183{fill:url(#linear-gradient-179);}.cls-184{fill:url(#linear-gradient-180);}.cls-185,.cls-189,.cls-212{fill:#fff;}.cls-186{fill:#3655b5;}.cls-187{fill:url(#linear-gradient-181);}.cls-188{fill:url(#linear-gradient-182);}.cls-190{fill:#c3dcee;}.cls-191{fill:url(#linear-gradient-183);}.cls-192{fill:url(#linear-gradient-184);}.cls-193{fill:url(#linear-gradient-185);}.cls-194{fill:url(#linear-gradient-186);}.cls-195{fill:#70b2f8;}.cls-196{fill:url(#linear-gradient-187);}.cls-197{fill:url(#linear-gradient-188);}.cls-199{fill:url(#linear-gradient-189);}.cls-200{fill:url(#linear-gradient-190);}.cls-202{opacity:0.6;}.cls-203{fill:url(#linear-gradient-191);}.cls-204{fill:url(#linear-gradient-192);}.cls-205{fill:#fcb47f;}.cls-206{fill:url(#linear-gradient-193);}.cls-207{fill:url(#linear-gradient-194);}.cls-208{fill:url(#linear-gradient-195);}.cls-209{fill:url(#linear-gradient-196);}.cls-210{fill:url(#linear-gradient-197);}.cls-211{fill:url(#linear-gradient-198);}.cls-212{opacity:0.5;}.cls-213{fill:#ffc043;}.cls-214{fill:url(#linear-gradient-199);}.cls-215{fill:url(#linear-gradient-200);}.cls-216{fill:url(#linear-gradient-201);}.cls-217{fill:url(#linear-gradient-202);}.cls-218{fill:url(#linear-gradient-203);}.cls-219{fill:url(#linear-gradient-204);}.cls-220{fill:url(#linear-gradient-205);}.cls-221{fill:url(#linear-gradient-206);}.cls-222{fill:url(#linear-gradient-207);}.cls-223{fill:url(#linear-gradient-208);}.cls-224{fill:url(#linear-gradient-209);}.cls-225{opacity:0.4;}.cls-226{fill:url(#linear-gradient-210);}.cls-227{fill:url(#linear-gradient-211);}</style><linearGradient id="linear-gradient" x1="320.57" y1="172.89" x2="480.03" y2="172.89" gradientUnits="userSpaceOnUse"><stop offset="0" stop-color="#ee497b"/><stop offset="1" stop-color="#de2263"/></linearGradient><linearGradient id="linear-gradient-2" x1="394.04" y1="47.64" x2="395.94" y2="47.64" gradientUnits="userSpaceOnUse"><stop offset="0" stop-color="#c2ceff"/><stop offset="1" stop-color="#95aaff"/></linearGradient><linearGradient id="linear-gradient-3" x1="394.07" y1="65.46" x2="395.52" y2="65.46" xlink:href="#linear-gradient-2"/><linearGradient id="linear-gradient-4" x1="394.04" y1="69.89" x2="395.06" y2="69.89" xlink:href="#linear-gradient-2"/><linearGradient id="linear-gradient-5" x1="392.44" y1="40.4" x2="392.68" y2="40.4" xlink:href="#linear-gradient-2"/><linearGradient id="linear-gradient-6" x1="385.59" y1="42.23" x2="387.62" y2="42.23" xlink:href="#linear-gradient-2"/><linearGradient id="linear-gradient-7" x1="389.87" y1="41.99" x2="391.9" y2="41.99" xlink:href="#linear-gradient-2"/><linearGradient id="linear-gradient-8" x1="387.73" y1="44.82" x2="389.76" y2="44.82" xlink:href="#linear-gradient-2"/><linearGradient id="linear-gradient-9" x1="392.01" y1="44.82" x2="394.04" y2="44.82" xlink:href="#linear-gradient-2"/><linearGradient id="linear-gradient-10" x1="385.59" y1="47.64" x2="387.62" y2="47.64" xlink:href="#linear-gradient-2"/><linearGradient id="linear-gradient-11" x1="389.87" y1="47.64" x2="391.9" y2="47.64" xlink:href="#linear-gradient-2"/><linearGradient id="linear-gradient-12" x1="387.73" y1="50.47" x2="389.76" y2="50.47" xlink:href="#linear-gradient-2"/><linearGradient id="linear-gradient-13" x1="392.01" y1="50.27" x2="394.02" y2="50.27" xlink:href="#linear-gradient-2"/><linearGradient id="linear-gradient-14" x1="385.59" y1="53.29" x2="387.62" y2="53.29" xlink:href="#linear-gradient-2"/><linearGradient id="linear-gradient-15" x1="389.87" y1="52.9" x2="391.53" y2="52.9" xlink:href="#linear-gradient-2"/><linearGradient id="linear-gradient-16" x1="387.73" y1="56.1" x2="389.31" y2="56.1" xlink:href="#linear-gradient-2"/><linearGradient id="linear-gradient-17" x1="385.59" y1="58.94" x2="387.62" y2="58.94" xlink:href="#linear-gradient-2"/><linearGradient id="linear-gradient-18" x1="387.73" y1="61.77" x2="389.76" y2="61.77" xlink:href="#linear-gradient-2"/><linearGradient id="linear-gradient-19" x1="385.59" y1="64.59" x2="387.62" y2="64.59" xlink:href="#linear-gradient-2"/><linearGradient id="linear-gradient-20" x1="389.87" y1="64.59" x2="391.9" y2="64.59" xlink:href="#linear-gradient-2"/><linearGradient id="linear-gradient-21" x1="387.73" y1="67.42" x2="389.76" y2="67.42" xlink:href="#linear-gradient-2"/><linearGradient id="linear-gradient-22" x1="392.01" y1="67.42" x2="394.04" y2="67.42" xlink:href="#linear-gradient-2"/><linearGradient id="linear-gradient-23" x1="385.59" y1="70.24" x2="387.62" y2="70.24" xlink:href="#linear-gradient-2"/><linearGradient id="linear-gradient-24" x1="389.87" y1="70.24" x2="391.9" y2="70.24" xlink:href="#linear-gradient-2"/><linearGradient id="linear-gradient-25" x1="387.73" y1="72.93" x2="389.76" y2="72.93" xlink:href="#linear-gradient-2"/><linearGradient id="linear-gradient-26" x1="392.01" y1="73.04" x2="393.73" y2="73.04" xlink:href="#linear-gradient-2"/><linearGradient id="linear-gradient-27" x1="390.88" y1="74.52" x2="391.19" y2="74.52" xlink:href="#linear-gradient-2"/><linearGradient id="linear-gradient-28" x1="379.28" y1="28.34" x2="380.29" y2="28.34" xlink:href="#linear-gradient-2"/><linearGradient id="linear-gradient-29" x1="377.14" y1="30.69" x2="379.17" y2="30.69" xlink:href="#linear-gradient-2"/><linearGradient id="linear-gradient-30" x1="379.28" y1="33.47" x2="379.53" y2="33.47" xlink:href="#linear-gradient-2"/><linearGradient id="linear-gradient-31" x1="377.14" y1="81.54" x2="379.17" y2="81.54" xlink:href="#linear-gradient-2"/><linearGradient id="linear-gradient-32" x1="379.28" y1="84.53" x2="380" y2="84.53" xlink:href="#linear-gradient-2"/><linearGradient id="linear-gradient-33" x1="377.14" y1="87.06" x2="379.17" y2="87.06" xlink:href="#linear-gradient-2"/><linearGradient id="linear-gradient-34" x1="372.97" y1="25.62" x2="374.92" y2="25.62" xlink:href="#linear-gradient-2"/><linearGradient id="linear-gradient-35" x1="370.83" y1="27.86" x2="372.86" y2="27.86" xlink:href="#linear-gradient-2"/><linearGradient id="linear-gradient-36" x1="375.11" y1="27.86" x2="377.14" y2="27.86" xlink:href="#linear-gradient-2"/><linearGradient id="linear-gradient-37" x1="368.69" y1="30.69" x2="370.72" y2="30.69" xlink:href="#linear-gradient-2"/><linearGradient id="linear-gradient-38" x1="372.97" y1="30.69" x2="375" y2="30.69" xlink:href="#linear-gradient-2"/><linearGradient id="linear-gradient-39" x1="370.83" y1="33.51" x2="372.86" y2="33.51" xlink:href="#linear-gradient-2"/><linearGradient id="linear-gradient-40" x1="375.11" y1="33.51" x2="377.14" y2="33.51" xlink:href="#linear-gradient-2"/><linearGradient id="linear-gradient-41" x1="368.69" y1="81.54" x2="370.72" y2="81.54" xlink:href="#linear-gradient-2"/><linearGradient id="linear-gradient-42" x1="372.97" y1="81.54" x2="375" y2="81.54" xlink:href="#linear-gradient-2"/><linearGradient id="linear-gradient-43" x1="370.83" y1="84.37" x2="372.86" y2="84.37" xlink:href="#linear-gradient-2"/><linearGradient id="linear-gradient-44" x1="375.11" y1="84.37" x2="377.14" y2="84.37" xlink:href="#linear-gradient-2"/><linearGradient id="linear-gradient-45" x1="368.8" y1="87.09" x2="370.72" y2="87.09" xlink:href="#linear-gradient-2"/><linearGradient id="linear-gradient-46" x1="372.97" y1="87.2" x2="375" y2="87.2" xlink:href="#linear-gradient-2"/><linearGradient id="linear-gradient-47" x1="370.93" y1="89.62" x2="372.86" y2="89.62" xlink:href="#linear-gradient-2"/><linearGradient id="linear-gradient-48" x1="375.26" y1="88.95" x2="376.56" y2="88.95" xlink:href="#linear-gradient-2"/><linearGradient id="linear-gradient-49" x1="360.26" y1="31.53" x2="361.94" y2="31.53" xlink:href="#linear-gradient-2"/><linearGradient id="linear-gradient-50" x1="364.77" y1="31.35" x2="366.55" y2="31.35" xlink:href="#linear-gradient-2"/><linearGradient id="linear-gradient-51" x1="362.38" y1="33.51" x2="364.41" y2="33.51" xlink:href="#linear-gradient-2"/><linearGradient id="linear-gradient-52" x1="366.66" y1="33.51" x2="368.69" y2="33.51" xlink:href="#linear-gradient-2"/><linearGradient id="linear-gradient-53" x1="360.24" y1="81.54" x2="362.27" y2="81.54" xlink:href="#linear-gradient-2"/><linearGradient id="linear-gradient-54" x1="364.52" y1="81.54" x2="366.55" y2="81.54" xlink:href="#linear-gradient-2"/><linearGradient id="linear-gradient-55" x1="362.9" y1="83.09" x2="363.98" y2="83.09" xlink:href="#linear-gradient-2"/><linearGradient id="linear-gradient-56" x1="366.66" y1="84.33" x2="368.69" y2="84.33" xlink:href="#linear-gradient-2"/><linearGradient id="linear-gradient-57" x1="351.82" y1="25.52" x2="353.82" y2="25.52" xlink:href="#linear-gradient-2"/><linearGradient id="linear-gradient-58" x1="353.93" y1="27.86" x2="355.96" y2="27.86" xlink:href="#linear-gradient-2"/><linearGradient id="linear-gradient-59" x1="351.79" y1="30.69" x2="353.82" y2="30.69" xlink:href="#linear-gradient-2"/><linearGradient id="linear-gradient-60" x1="356.07" y1="30.69" x2="358.1" y2="30.69" xlink:href="#linear-gradient-2"/><linearGradient id="linear-gradient-61" x1="353.93" y1="33.51" x2="355.96" y2="33.51" xlink:href="#linear-gradient-2"/><linearGradient id="linear-gradient-62" x1="358.21" y1="33.51" x2="360.24" y2="33.51" xlink:href="#linear-gradient-2"/><linearGradient id="linear-gradient-63" x1="351.79" y1="81.54" x2="353.82" y2="81.54" xlink:href="#linear-gradient-2"/><linearGradient id="linear-gradient-64" x1="356.07" y1="81.54" x2="358.1" y2="81.54" xlink:href="#linear-gradient-2"/><linearGradient id="linear-gradient-65" x1="353.93" y1="84.37" x2="355.96" y2="84.37" xlink:href="#linear-gradient-2"/><linearGradient id="linear-gradient-66" x1="358.21" y1="84.16" x2="360.21" y2="84.16" xlink:href="#linear-gradient-2"/><linearGradient id="linear-gradient-67" x1="351.79" y1="87.2" x2="353.82" y2="87.2" xlink:href="#linear-gradient-2"/><linearGradient id="linear-gradient-68" x1="356.07" y1="86.87" x2="357.74" y2="86.87" xlink:href="#linear-gradient-2"/><linearGradient id="linear-gradient-69" x1="353.93" y1="89.61" x2="355.56" y2="89.61" xlink:href="#linear-gradient-2"/><linearGradient id="linear-gradient-70" x1="346.03" y1="28.25" x2="347.5" y2="28.25" xlink:href="#linear-gradient-2"/><linearGradient id="linear-gradient-71" x1="349.76" y1="27.86" x2="351.79" y2="27.86" xlink:href="#linear-gradient-2"/><linearGradient id="linear-gradient-72" x1="347.62" y1="30.69" x2="349.65" y2="30.69" xlink:href="#linear-gradient-2"/><linearGradient id="linear-gradient-73" x1="349.76" y1="33.51" x2="351.79" y2="33.51" xlink:href="#linear-gradient-2"/><linearGradient id="linear-gradient-74" x1="347.62" y1="81.54" x2="349.65" y2="81.54" xlink:href="#linear-gradient-2"/><linearGradient id="linear-gradient-75" x1="346.45" y1="84.66" x2="347.5" y2="84.66" xlink:href="#linear-gradient-2"/><linearGradient id="linear-gradient-76" x1="349.76" y1="84.37" x2="351.79" y2="84.37" xlink:href="#linear-gradient-2"/><linearGradient id="linear-gradient-77" x1="347.62" y1="87.14" x2="349.65" y2="87.14" xlink:href="#linear-gradient-2"/><linearGradient id="linear-gradient-78" x1="350.12" y1="89.12" x2="351.74" y2="89.12" xlink:href="#linear-gradient-2"/><linearGradient id="linear-gradient-79" x1="334.88" y1="42" x2="336.91" y2="42" xlink:href="#linear-gradient-2"/><linearGradient id="linear-gradient-80" x1="339.17" y1="42.2" x2="341.19" y2="42.2" xlink:href="#linear-gradient-2"/><linearGradient id="linear-gradient-81" x1="337.02" y1="44.82" x2="339.05" y2="44.82" xlink:href="#linear-gradient-2"/><linearGradient id="linear-gradient-82" x1="341.31" y1="44.82" x2="343.34" y2="44.82" xlink:href="#linear-gradient-2"/><linearGradient id="linear-gradient-83" x1="334.88" y1="47.64" x2="336.91" y2="47.64" xlink:href="#linear-gradient-2"/><linearGradient id="linear-gradient-84" x1="339.17" y1="47.64" x2="341.19" y2="47.64" xlink:href="#linear-gradient-2"/><linearGradient id="linear-gradient-85" x1="337.02" y1="50.47" x2="339.05" y2="50.47" xlink:href="#linear-gradient-2"/><linearGradient id="linear-gradient-86" x1="341.31" y1="50.47" x2="343.34" y2="50.47" xlink:href="#linear-gradient-2"/><linearGradient id="linear-gradient-87" x1="335.05" y1="53.11" x2="336.91" y2="53.11" xlink:href="#linear-gradient-2"/><linearGradient id="linear-gradient-88" x1="339.17" y1="53.29" x2="341.19" y2="53.29" xlink:href="#linear-gradient-2"/><linearGradient id="linear-gradient-89" x1="337.16" y1="56.12" x2="339.05" y2="56.12" xlink:href="#linear-gradient-2"/><linearGradient id="linear-gradient-90" x1="341.31" y1="56.12" x2="343.34" y2="56.12" xlink:href="#linear-gradient-2"/><linearGradient id="linear-gradient-91" x1="339.17" y1="58.94" x2="341.19" y2="58.94" xlink:href="#linear-gradient-2"/><linearGradient id="linear-gradient-92" x1="337.02" y1="61.77" x2="339.05" y2="61.77" xlink:href="#linear-gradient-2"/><linearGradient id="linear-gradient-93" x1="341.31" y1="61.77" x2="343.34" y2="61.77" xlink:href="#linear-gradient-2"/><linearGradient id="linear-gradient-94" x1="334.88" y1="64.59" x2="336.91" y2="64.59" xlink:href="#linear-gradient-2"/><linearGradient id="linear-gradient-95" x1="339.17" y1="64.59" x2="341.19" y2="64.59" xlink:href="#linear-gradient-2"/><linearGradient id="linear-gradient-96" x1="337.02" y1="67.42" x2="339.05" y2="67.42" xlink:href="#linear-gradient-2"/><linearGradient id="linear-gradient-97" x1="341.31" y1="67.42" x2="343.34" y2="67.42" xlink:href="#linear-gradient-2"/><linearGradient id="linear-gradient-98" x1="334.88" y1="70.24" x2="336.91" y2="70.24" xlink:href="#linear-gradient-2"/><linearGradient id="linear-gradient-99" x1="339.17" y1="70.24" x2="341.19" y2="70.24" xlink:href="#linear-gradient-2"/><linearGradient id="linear-gradient-100" x1="337.02" y1="72.87" x2="339.05" y2="72.87" xlink:href="#linear-gradient-2"/><linearGradient id="linear-gradient-101" x1="341.31" y1="72.99" x2="343.34" y2="72.99" xlink:href="#linear-gradient-2"/><linearGradient id="linear-gradient-102" x1="333.52" y1="40.4" x2="334.45" y2="40.4" xlink:href="#linear-gradient-2"/><linearGradient id="linear-gradient-103" x1="332.56" y1="42.71" x2="332.63" y2="42.71" xlink:href="#linear-gradient-2"/><linearGradient id="linear-gradient-104" x1="332.85" y1="44.82" x2="334.88" y2="44.82" xlink:href="#linear-gradient-2"/><linearGradient id="linear-gradient-105" x1="330.71" y1="47.64" x2="332.74" y2="47.64" xlink:href="#linear-gradient-2"/><linearGradient id="linear-gradient-106" x1="332.85" y1="50.41" x2="334.88" y2="50.41" xlink:href="#linear-gradient-2"/><linearGradient id="linear-gradient-107" x1="331.01" y1="65.21" x2="332.74" y2="65.21" xlink:href="#linear-gradient-2"/><linearGradient id="linear-gradient-108" x1="330.2" y1="66.89" x2="330.6" y2="66.89" xlink:href="#linear-gradient-2"/><linearGradient id="linear-gradient-109" x1="332.85" y1="67.42" x2="334.88" y2="67.42" xlink:href="#linear-gradient-2"/><linearGradient id="linear-gradient-110" x1="331.23" y1="70.15" x2="332.74" y2="70.15" xlink:href="#linear-gradient-2"/><linearGradient id="linear-gradient-111" x1="332.86" y1="73.07" x2="334.88" y2="73.07" xlink:href="#linear-gradient-2"/><linearGradient id="linear-gradient-112" x1="377.14" y1="36.34" x2="379.17" y2="36.34" xlink:href="#linear-gradient-2"/><linearGradient id="linear-gradient-113" x1="379.28" y1="39.18" x2="381.27" y2="39.18" xlink:href="#linear-gradient-2"/><linearGradient id="linear-gradient-114" x1="377.14" y1="41.99" x2="379.17" y2="41.99" xlink:href="#linear-gradient-2"/><linearGradient id="linear-gradient-115" x1="381.42" y1="41.99" x2="383.45" y2="41.99" xlink:href="#linear-gradient-2"/><linearGradient id="linear-gradient-116" x1="379.28" y1="44.82" x2="381.31" y2="44.82" xlink:href="#linear-gradient-2"/><linearGradient id="linear-gradient-117" x1="383.56" y1="44.82" x2="385.59" y2="44.82" xlink:href="#linear-gradient-2"/><linearGradient id="linear-gradient-118" x1="381.42" y1="47.64" x2="383.45" y2="47.64" xlink:href="#linear-gradient-2"/><linearGradient id="linear-gradient-119" x1="380.59" y1="49.95" x2="381.31" y2="49.95" xlink:href="#linear-gradient-2"/><linearGradient id="linear-gradient-120" x1="383.56" y1="50.47" x2="385.59" y2="50.47" xlink:href="#linear-gradient-2"/><linearGradient id="linear-gradient-121" x1="381.75" y1="53.29" x2="383.45" y2="53.29" xlink:href="#linear-gradient-2"/><linearGradient id="linear-gradient-122" x1="383.56" y1="56.12" x2="385.59" y2="56.12" xlink:href="#linear-gradient-2"/><linearGradient id="linear-gradient-123" x1="382.27" y1="58.94" x2="383.45" y2="58.94" xlink:href="#linear-gradient-2"/><linearGradient id="linear-gradient-124" x1="383.56" y1="61.77" x2="385.59" y2="61.77" xlink:href="#linear-gradient-2"/><linearGradient id="linear-gradient-125" x1="381.42" y1="64.59" x2="383.45" y2="64.59" xlink:href="#linear-gradient-2"/><linearGradient id="linear-gradient-126" x1="379.4" y1="67.44" x2="381.31" y2="67.44" xlink:href="#linear-gradient-2"/><linearGradient id="linear-gradient-127" x1="383.56" y1="67.42" x2="385.59" y2="67.42" xlink:href="#linear-gradient-2"/><linearGradient id="linear-gradient-128" x1="377.24" y1="70.36" x2="379.17" y2="70.36" xlink:href="#linear-gradient-2"/><linearGradient id="linear-gradient-129" x1="381.42" y1="70.24" x2="383.45" y2="70.24" xlink:href="#linear-gradient-2"/><linearGradient id="linear-gradient-130" x1="379.28" y1="73.07" x2="381.31" y2="73.07" xlink:href="#linear-gradient-2"/><linearGradient id="linear-gradient-131" x1="383.56" y1="72.93" x2="385.59" y2="72.93" xlink:href="#linear-gradient-2"/><linearGradient id="linear-gradient-132" x1="377.14" y1="75.89" x2="379.17" y2="75.89" xlink:href="#linear-gradient-2"/><linearGradient id="linear-gradient-133" x1="381.53" y1="74.88" x2="382.78" y2="74.88" xlink:href="#linear-gradient-2"/><linearGradient id="linear-gradient-134" x1="379.28" y1="78.49" x2="380.03" y2="78.49" xlink:href="#linear-gradient-2"/><linearGradient id="linear-gradient-135" x1="368.69" y1="36.34" x2="370.72" y2="36.34" xlink:href="#linear-gradient-2"/><linearGradient id="linear-gradient-136" x1="372.97" y1="36.34" x2="375" y2="36.34" xlink:href="#linear-gradient-2"/><linearGradient id="linear-gradient-137" x1="370.83" y1="39.07" x2="372.86" y2="39.07" xlink:href="#linear-gradient-2"/><linearGradient id="linear-gradient-138" x1="375.11" y1="39.16" x2="377.14" y2="39.16" xlink:href="#linear-gradient-2"/><linearGradient id="linear-gradient-139" x1="373.3" y1="41.35" x2="375" y2="41.35" xlink:href="#linear-gradient-2"/><linearGradient id="linear-gradient-140" x1="375.11" y1="73.09" x2="377.14" y2="73.09" xlink:href="#linear-gradient-2"/><linearGradient id="linear-gradient-141" x1="368.71" y1="76.39" x2="370.72" y2="76.39" xlink:href="#linear-gradient-2"/><linearGradient id="linear-gradient-142" x1="372.97" y1="75.89" x2="375" y2="75.89" xlink:href="#linear-gradient-2"/><linearGradient id="linear-gradient-143" x1="370.83" y1="78.72" x2="372.86" y2="78.72" xlink:href="#linear-gradient-2"/><linearGradient id="linear-gradient-144" x1="375.11" y1="78.72" x2="377.14" y2="78.72" xlink:href="#linear-gradient-2"/><linearGradient id="linear-gradient-145" x1="360.24" y1="36.34" x2="362.27" y2="36.34" xlink:href="#linear-gradient-2"/><linearGradient id="linear-gradient-146" x1="364.52" y1="36.34" x2="366.55" y2="36.34" xlink:href="#linear-gradient-2"/><linearGradient id="linear-gradient-147" x1="362.79" y1="37.9" x2="364.01" y2="37.9" xlink:href="#linear-gradient-2"/><linearGradient id="linear-gradient-148" x1="366.83" y1="38.3" x2="368.66" y2="38.3" xlink:href="#linear-gradient-2"/><linearGradient id="linear-gradient-149" x1="360.5" y1="77.07" x2="361.9" y2="77.07" xlink:href="#linear-gradient-2"/><linearGradient id="linear-gradient-150" x1="364.85" y1="77.02" x2="366.34" y2="77.02" xlink:href="#linear-gradient-2"/><linearGradient id="linear-gradient-151" x1="362.38" y1="78.72" x2="364.41" y2="78.72" xlink:href="#linear-gradient-2"/><linearGradient id="linear-gradient-152" x1="366.66" y1="78.72" x2="368.69" y2="78.72" xlink:href="#linear-gradient-2"/><linearGradient id="linear-gradient-153" x1="351.79" y1="36.34" x2="353.82" y2="36.34" xlink:href="#linear-gradient-2"/><linearGradient id="linear-gradient-154" x1="356.07" y1="36.34" x2="358.1" y2="36.34" xlink:href="#linear-gradient-2"/><linearGradient id="linear-gradient-155" x1="353.93" y1="38.97" x2="355.96" y2="38.97" xlink:href="#linear-gradient-2"/><linearGradient id="linear-gradient-156" x1="358.28" y1="38.19" x2="360.01" y2="38.19" xlink:href="#linear-gradient-2"/><linearGradient id="linear-gradient-157" x1="351.81" y1="41.13" x2="353.26" y2="41.13" xlink:href="#linear-gradient-2"/><linearGradient id="linear-gradient-158" x1="351.79" y1="75.89" x2="353.82" y2="75.89" xlink:href="#linear-gradient-2"/><linearGradient id="linear-gradient-159" x1="356.07" y1="76.5" x2="358.04" y2="76.5" xlink:href="#linear-gradient-2"/><linearGradient id="linear-gradient-160" x1="353.93" y1="78.72" x2="355.96" y2="78.72" xlink:href="#linear-gradient-2"/><linearGradient id="linear-gradient-161" x1="358.21" y1="78.72" x2="360.24" y2="78.72" xlink:href="#linear-gradient-2"/><linearGradient id="linear-gradient-162" x1="347.62" y1="36.34" x2="349.65" y2="36.34" xlink:href="#linear-gradient-2"/><linearGradient id="linear-gradient-163" x1="345.48" y1="39.16" x2="347.5" y2="39.16" xlink:href="#linear-gradient-2"/><linearGradient id="linear-gradient-164" x1="349.76" y1="39.16" x2="351.79" y2="39.16" xlink:href="#linear-gradient-2"/><linearGradient id="linear-gradient-165" x1="343.34" y1="41.99" x2="345.36" y2="41.99" xlink:href="#linear-gradient-2"/><linearGradient id="linear-gradient-166" x1="347.62" y1="41.99" x2="349.65" y2="41.99" xlink:href="#linear-gradient-2"/><linearGradient id="linear-gradient-167" x1="345.48" y1="44.82" x2="347.5" y2="44.82" xlink:href="#linear-gradient-2"/><linearGradient id="linear-gradient-168" x1="343.34" y1="47.64" x2="345.36" y2="47.64" xlink:href="#linear-gradient-2"/><linearGradient id="linear-gradient-169" x1="343.34" y1="53.24" x2="344.56" y2="53.24" xlink:href="#linear-gradient-2"/><linearGradient id="linear-gradient-170" x1="343.34" y1="59.02" x2="343.93" y2="59.02" xlink:href="#linear-gradient-2"/><linearGradient id="linear-gradient-171" x1="343.34" y1="64.59" x2="345.28" y2="64.59" xlink:href="#linear-gradient-2"/><linearGradient id="linear-gradient-172" x1="345.48" y1="67.59" x2="347.12" y2="67.59" xlink:href="#linear-gradient-2"/><linearGradient id="linear-gradient-173" x1="343.34" y1="70.24" x2="345.36" y2="70.24" xlink:href="#linear-gradient-2"/><linearGradient id="linear-gradient-174" x1="347.62" y1="70.55" x2="349.35" y2="70.55" xlink:href="#linear-gradient-2"/><linearGradient id="linear-gradient-175" x1="345.48" y1="73.07" x2="347.5" y2="73.07" xlink:href="#linear-gradient-2"/><linearGradient id="linear-gradient-176" x1="349.76" y1="73.23" x2="351.77" y2="73.23" xlink:href="#linear-gradient-2"/><linearGradient id="linear-gradient-177" x1="343.8" y1="75.19" x2="345.36" y2="75.19" xlink:href="#linear-gradient-2"/><linearGradient id="linear-gradient-178" x1="347.62" y1="75.89" x2="349.65" y2="75.89" xlink:href="#linear-gradient-2"/><linearGradient id="linear-gradient-179" x1="346.4" y1="78.42" x2="347.5" y2="78.42" xlink:href="#linear-gradient-2"/><linearGradient id="linear-gradient-180" x1="349.76" y1="78.72" x2="351.79" y2="78.72" xlink:href="#linear-gradient-2"/><linearGradient id="linear-gradient-181" x1="120.05" y1="135.95" x2="357.82" y2="135.95" xlink:href="#linear-gradient-2"/><linearGradient id="linear-gradient-182" x1="169.58" y1="227.92" x2="310.97" y2="227.92" xlink:href="#linear-gradient-2"/><linearGradient id="linear-gradient-183" x1="239.59" y1="75.12" x2="268.37" y2="75.12" xlink:href="#linear-gradient-2"/><linearGradient id="linear-gradient-184" x1="243.13" y1="72.84" x2="244.52" y2="72.84" xlink:href="#linear-gradient"/><linearGradient id="linear-gradient-185" x1="263.44" y1="72.84" x2="264.83" y2="72.84" xlink:href="#linear-gradient"/><linearGradient id="linear-gradient-186" x1="242.67" y1="84.3" x2="245.78" y2="84.3" xlink:href="#linear-gradient"/><linearGradient id="linear-gradient-187" x1="247.3" y1="88.85" x2="250.41" y2="88.85" xlink:href="#linear-gradient"/><linearGradient id="linear-gradient-188" x1="261.19" y1="93.41" x2="264.3" y2="93.41" xlink:href="#linear-gradient"/><linearGradient id="linear-gradient-189" x1="261.17" y1="28.17" x2="307.59" y2="28.17" xlink:href="#linear-gradient-2"/><linearGradient id="linear-gradient-190" x1="261.17" y1="25.53" x2="307.59" y2="25.53" xlink:href="#linear-gradient"/><linearGradient id="linear-gradient-191" x1="269.43" y1="156.44" x2="381.4" y2="156.44" xlink:href="#linear-gradient-2"/><linearGradient id="linear-gradient-192" x1="269.45" y1="143.28" x2="381.4" y2="143.28" xlink:href="#linear-gradient"/><linearGradient id="linear-gradient-193" x1="411.43" y1="138.85" x2="439.59" y2="138.85" xlink:href="#linear-gradient-2"/><linearGradient id="linear-gradient-194" x1="429.77" y1="222.47" x2="445.62" y2="222.47" xlink:href="#linear-gradient-2"/><linearGradient id="linear-gradient-195" x1="410.05" y1="222.47" x2="425.9" y2="222.47" xlink:href="#linear-gradient-2"/><linearGradient id="linear-gradient-196" x1="457.55" y1="95.64" x2="490.56" y2="95.64" xlink:href="#linear-gradient-2"/><linearGradient id="linear-gradient-197" x1="481.44" y1="126.53" x2="505.44" y2="126.53" xlink:href="#linear-gradient-2"/><linearGradient id="linear-gradient-198" x1="453.99" y1="130.38" x2="470.15" y2="130.38" xlink:href="#linear-gradient-2"/><linearGradient id="linear-gradient-199" x1="40.94" y1="134.26" x2="129.36" y2="134.26" xlink:href="#linear-gradient"/><linearGradient id="linear-gradient-200" x1="70.34" y1="166.27" x2="87.96" y2="166.27" xlink:href="#linear-gradient"/><linearGradient id="linear-gradient-201" x1="78.96" y1="244.81" x2="94.65" y2="244.81" xlink:href="#linear-gradient-2"/><linearGradient id="linear-gradient-202" x1="58.27" y1="244.81" x2="73.96" y2="244.81" xlink:href="#linear-gradient-2"/><linearGradient id="linear-gradient-203" x1="56.85" y1="168.37" x2="84.73" y2="168.37" xlink:href="#linear-gradient-2"/><linearGradient id="linear-gradient-204" x1="76.35" y1="156.19" x2="96.97" y2="156.19" xlink:href="#linear-gradient-2"/><linearGradient id="linear-gradient-205" x1="366.09" y1="164.68" x2="388.89" y2="164.68" xlink:href="#linear-gradient"/><linearGradient id="linear-gradient-206" x1="363.66" y1="253.66" x2="378.15" y2="253.66" xlink:href="#linear-gradient"/><linearGradient id="linear-gradient-207" x1="375.01" y1="255.69" x2="377.95" y2="255.69" xlink:href="#linear-gradient"/><linearGradient id="linear-gradient-208" x1="370.91" y1="253.66" x2="385.39" y2="253.66" xlink:href="#linear-gradient"/><linearGradient id="linear-gradient-209" x1="382.25" y1="255.69" x2="385.19" y2="255.69" xlink:href="#linear-gradient"/><linearGradient id="linear-gradient-210" x1="270.75" y1="81" x2="289.68" y2="81" xlink:href="#linear-gradient-2"/><linearGradient id="linear-gradient-211" x1="400.17" y1="56.05" x2="432.53" y2="56.05" xlink:href="#linear-gradient-2"/></defs><title>The Evolving Landscape</title><g class="cls-1"><path class="cls-2" d="M155.93,26.94l11.84,15.41V41.09l-10-13C157.17,27.69,156.56,27.31,155.93,26.94Z"/><path class="cls-2" d="M146.23,23.15l21.54,28V49.91L147.43,23.45C147,23.35,146.63,23.24,146.23,23.15Z"/><path class="cls-2" d="M138.77,22.27l29,37.73V58.74l-28-36.45Z"/><path class="cls-2" d="M132.37,22.77l35.4,46.05V67.56L133.24,22.63Z"/><path class="cls-2" d="M126.72,24.24l40.8,53.08.25-.38v-.55L127.48,24Z"/><path class="cls-2" d="M121.65,26.47l42.41,55.17c.18-.19.35-.38.52-.58L122.34,26.11Z"/><path class="cls-2" d="M117.11,29.39l43,55.89.6-.49L117.73,28.94Z"/><path class="cls-2" d="M113.07,33l42.52,55.31.66-.39L113.62,32.41Z"/><path class="cls-2" d="M109.54,37.19l41.05,53.4.74-.3L110,36.55C109.86,36.76,109.69,37,109.54,37.19Z"/><path class="cls-2" d="M106.61,42.2,145,92.13l.84-.16L107,41.43C106.85,41.68,106.73,41.94,106.61,42.2Z"/><path class="cls-2" d="M104.38,48.13l34.31,44.63c.32,0,.63,0,.95,0l-35-45.51C104.56,47.52,104.46,47.82,104.38,48.13Z"/><path class="cls-2" d="M103.18,55.39l28.18,36.66,1.14.22-29.23-38C103.23,54.62,103.2,55,103.18,55.39Z"/><path class="cls-2" d="M104,65.23l18.1,23.54c.51.27,1,.52,1.55.76l-20-26C103.72,64.1,103.83,64.66,104,65.23Z"/></g><path class="cls-3" d="M239.48,225.59C168,225.59,110,228.46,110,232s58,6.41,129.44,6.41,129.44-2.87,129.44-6.41S311,225.59,239.48,225.59Z"/><path class="cls-4" d="M466,199.71H320.57v-.42H466a13.66,13.66,0,0,0,13.6-13.7V146.07H480v39.52A14.08,14.08,0,0,1,466,199.71Z"/><g class="cls-5"><path class="cls-6" d="M395.06,46.23c-.56,0-1,.63-1,1.41s.46,1.41,1,1.41a1,1,0,0,0,.88-.71l-.87-2.11Z"/><path class="cls-7" d="M395.06,66a.81.81,0,0,0,.46-.17c-.27-.16-.79-.47-1.45-.93C394.17,65.54,394.58,66,395.06,66Z"/><path class="cls-8" d="M394,70.24a1.81,1.81,0,0,0,.15.72l.87-2.13C394.5,68.83,394,69.46,394,70.24Z"/><path class="cls-9" d="M392.44,40.31a1.08,1.08,0,0,0,.24.18A.53.53,0,0,0,392.44,40.31Z"/><path class="cls-10" d="M385.84,41.07a1.8,1.8,0,0,0-.25.92c0,.78.46,1.41,1,1.41s1-.63,1-1.41a1.72,1.72,0,0,0-.26-.93C386.86,41.08,386.35,41.09,385.84,41.07Z"/><path class="cls-11" d="M390.9,40.58l-.29.06a1.41,1.41,0,0,0-.74,1.35c0,.78.46,1.41,1,1.41s1-.63,1-1.41S391.46,40.59,390.9,40.58Z"/><path class="cls-12" d="M388.75,43.4c-.56,0-1,.64-1,1.42s.46,1.41,1,1.41,1-.63,1-1.41S389.31,43.4,388.75,43.4Z"/><path class="cls-13" d="M393,43.4c-.56,0-1,.64-1,1.42s.46,1.41,1,1.41,1-.63,1-1.41S393.59,43.4,393,43.4Z"/><path class="cls-14" d="M386.61,46.23c-.56,0-1,.63-1,1.41s.46,1.41,1,1.41,1-.63,1-1.41S387.17,46.23,386.61,46.23Z"/><path class="cls-15" d="M390.89,46.23c-.56,0-1,.63-1,1.41s.46,1.41,1,1.41,1-.63,1-1.41S391.45,46.23,390.89,46.23Z"/><path class="cls-16" d="M388.75,49.05c-.56,0-1,.64-1,1.42s.46,1.41,1,1.41,1-.63,1-1.41S389.31,49.05,388.75,49.05Z"/><path class="cls-17" d="M393,49.05c-.56,0-1,.64-1,1.42a1.66,1.66,0,0,0,.33,1c.59-.5,1.17-.93,1.68-1.29C393.93,49.55,393.52,49.05,393,49.05Z"/><path class="cls-18" d="M386.61,51.88c-.56,0-1,.63-1,1.41s.46,1.41,1,1.41,1-.63,1-1.41S387.17,51.88,386.61,51.88Z"/><path class="cls-19" d="M389.87,53.29a1.81,1.81,0,0,0,.12.63,13.15,13.15,0,0,1,1.54-1.71.86.86,0,0,0-.64-.33C390.33,51.88,389.87,52.51,389.87,53.29Z"/><path class="cls-20" d="M387.73,56.12a1.36,1.36,0,0,0,.83,1.38,5.37,5.37,0,0,1,.75-2.56.81.81,0,0,0-.56-.24C388.19,54.7,387.73,55.34,387.73,56.12Z"/><path class="cls-21" d="M386.61,57.53c-.56,0-1,.63-1,1.41s.46,1.41,1,1.41,1-.63,1-1.41S387.17,57.53,386.61,57.53Z"/><path class="cls-22" d="M388.75,60.35c-.56,0-1,.64-1,1.42s.46,1.41,1,1.41,1-.63,1-1.41S389.31,60.35,388.75,60.35Z"/><path class="cls-23" d="M386.61,63.18c-.56,0-1,.63-1,1.41s.46,1.42,1,1.42,1-.64,1-1.42S387.17,63.18,386.61,63.18Z"/><path class="cls-24" d="M390.89,63.18c-.56,0-1,.63-1,1.41s.46,1.42,1,1.42,1-.64,1-1.42S391.45,63.18,390.89,63.18Z"/><path class="cls-25" d="M388.75,66c-.56,0-1,.63-1,1.41s.46,1.41,1,1.41,1-.63,1-1.41S389.31,66,388.75,66Z"/><path class="cls-26" d="M393,66c-.56,0-1,.63-1,1.41s.46,1.41,1,1.41,1-.63,1-1.41S393.59,66,393,66Z"/><path class="cls-27" d="M386.61,68.83c-.56,0-1,.63-1,1.41s.46,1.42,1,1.42,1-.64,1-1.42S387.17,68.83,386.61,68.83Z"/><path class="cls-28" d="M390.89,68.83c-.56,0-1,.63-1,1.41s.46,1.42,1,1.42,1-.64,1-1.42S391.45,68.83,390.89,68.83Z"/><path class="cls-29" d="M388.75,71.66c-.56,0-1,.63-1,1.41a1.7,1.7,0,0,0,.29,1c.46,0,.91.09,1.32.16a1.61,1.61,0,0,0,.42-1.14C389.76,72.29,389.31,71.66,388.75,71.66Z"/><path class="cls-30" d="M393,71.66c-.56,0-1,.63-1,1.41a1.4,1.4,0,0,0,.75,1.35l1-2.36A.88.88,0,0,0,393,71.66Z"/><path class="cls-31" d="M390.88,74.48l.31.07a.82.82,0,0,0-.3-.07Z"/><path class="cls-32" d="M380,27.72l-.67-.28a2,2,0,0,0-.05.42,1.4,1.4,0,0,0,.77,1.37c.13-.54.22-.88.22-.88A.57.57,0,0,0,380,27.72Z"/><path class="cls-33" d="M378.15,29.28c-.56,0-1,.63-1,1.41s.45,1.41,1,1.41,1-.63,1-1.41S378.72,29.28,378.15,29.28Z"/><path class="cls-34" d="M379.48,34.34c0-.59,0-1.18,0-1.75a1.8,1.8,0,0,0-.25.92A1.7,1.7,0,0,0,379.48,34.34Z"/><path class="cls-35" d="M378.15,80.13c-.56,0-1,.63-1,1.41s.45,1.42,1,1.42,1-.64,1-1.42S378.72,80.13,378.15,80.13Z"/><path class="cls-36" d="M379.28,84.37a1.45,1.45,0,0,0,.72,1.35c-.13-.6-.28-1.43-.4-2.37A1.65,1.65,0,0,0,379.28,84.37Z"/><path class="cls-37" d="M378.15,85.78c-.56,0-1,.63-1,1.41a1.66,1.66,0,0,0,.42,1.15l1.54-.65a1.93,1.93,0,0,0,.07-.49C379.17,86.41,378.72,85.78,378.15,85.78Z"/><path class="cls-38" d="M373,25c0,.78.45,1.41,1,1.41a1.08,1.08,0,0,0,.93-.85L373,24.79A2,2,0,0,0,373,25Z"/><path class="cls-39" d="M371.84,26.45c-.56,0-1,.63-1,1.41s.45,1.42,1,1.42,1-.64,1-1.42S372.4,26.45,371.84,26.45Z"/><path class="cls-40" d="M376.13,26.45c-.56,0-1,.63-1,1.41s.46,1.42,1,1.42,1-.64,1-1.42S376.69,26.45,376.13,26.45Z"/><path class="cls-41" d="M369.7,29.28c-.56,0-1,.63-1,1.41s.45,1.41,1,1.41,1-.63,1-1.41S370.26,29.28,369.7,29.28Z"/><path class="cls-42" d="M374,29.28c-.57,0-1,.63-1,1.41s.45,1.41,1,1.41,1-.63,1-1.41S374.55,29.28,374,29.28Z"/><path class="cls-43" d="M371.84,32.1c-.56,0-1,.63-1,1.41s.45,1.42,1,1.42,1-.64,1-1.42S372.4,32.1,371.84,32.1Z"/><path class="cls-44" d="M376.13,32.1c-.56,0-1,.63-1,1.41s.46,1.42,1,1.42,1-.64,1-1.42S376.69,32.1,376.13,32.1Z"/><path class="cls-45" d="M369.7,80.13c-.56,0-1,.63-1,1.41s.45,1.42,1,1.42,1-.64,1-1.42S370.26,80.13,369.7,80.13Z"/><path class="cls-46" d="M374,80.13c-.57,0-1,.63-1,1.41s.45,1.42,1,1.42,1-.64,1-1.42S374.55,80.13,374,80.13Z"/><path class="cls-47" d="M371.84,83c-.56,0-1,.63-1,1.41s.45,1.41,1,1.41,1-.63,1-1.41S372.4,83,371.84,83Z"/><path class="cls-48" d="M376.13,83c-.56,0-1,.63-1,1.41s.46,1.41,1,1.41,1-.63,1-1.41S376.69,83,376.13,83Z"/><path class="cls-49" d="M369.7,85.78a1,1,0,0,0-.9.79,22.1,22.1,0,0,1,1.43,1.83,1.6,1.6,0,0,0,.49-1.2C370.72,86.41,370.26,85.78,369.7,85.78Z"/><path class="cls-50" d="M374,85.78c-.57,0-1,.63-1,1.42s.45,1.41,1,1.41,1-.63,1-1.41S374.55,85.78,374,85.78Z"/><path class="cls-51" d="M371.84,88.61a1,1,0,0,0-.91.82c.35.55.56.92.56.92a.54.54,0,0,0,.63.25l.72-.3a2.46,2.46,0,0,0,0-.28C372.86,89.24,372.4,88.61,371.84,88.61Z"/><path class="cls-52" d="M375.26,89.3l1.3-.55a.76.76,0,0,0-.43-.14A1,1,0,0,0,375.26,89.3Z"/><path class="cls-53" d="M361.25,32.1a.88.88,0,0,0,.69-.37,6.68,6.68,0,0,1-1.68-.77C360.35,31.61,360.76,32.1,361.25,32.1Z"/><path class="cls-54" d="M364.77,31.6a.92.92,0,0,0,.76.5c.56,0,1-.63,1-1.41,0,0,0-.06,0-.08A7.79,7.79,0,0,1,364.77,31.6Z"/><ellipse class="cls-55" cx="363.39" cy="33.51" rx="1.01" ry="1.41"/><path class="cls-56" d="M367.67,32.1c-.56,0-1,.63-1,1.41s.45,1.42,1,1.42,1-.64,1-1.42S368.23,32.1,367.67,32.1Z"/><path class="cls-57" d="M361.25,80.13c-.56,0-1,.63-1,1.41s.45,1.42,1,1.42,1-.64,1-1.42S361.81,80.13,361.25,80.13Z"/><path class="cls-58" d="M365.53,80.13c-.56,0-1,.63-1,1.41s.45,1.42,1,1.42,1-.64,1-1.42S366.09,80.13,365.53,80.13Z"/><path class="cls-59" d="M362.9,83.14h.16a4.42,4.42,0,0,1,.92.09.86.86,0,0,0-.59-.26A.82.82,0,0,0,362.9,83.14Z"/><path class="cls-60" d="M367.67,83c-.56,0-1,.63-1,1.41,0,.06,0,.12,0,.18A11.18,11.18,0,0,1,368,85.71a1.44,1.44,0,0,0,.7-1.34C368.69,83.59,368.23,83,367.67,83Z"/><path class="cls-61" d="M351.82,25.38c.11.62.51,1.07,1,1.07s1-.63,1-1.41a2.22,2.22,0,0,0-.06-.46Z"/><path class="cls-62" d="M354.94,26.45c-.56,0-1,.63-1,1.41s.45,1.42,1,1.42,1-.64,1-1.42S355.5,26.45,354.94,26.45Z"/><path class="cls-63" d="M352.8,29.28c-.56,0-1,.63-1,1.41s.45,1.41,1,1.41,1-.63,1-1.41S353.36,29.28,352.8,29.28Z"/><path class="cls-64" d="M357.08,29.28c-.56,0-1,.63-1,1.41s.45,1.41,1,1.41,1-.63,1-1.41S357.64,29.28,357.08,29.28Z"/><path class="cls-65" d="M354.94,32.1c-.56,0-1,.63-1,1.41s.45,1.42,1,1.42,1-.64,1-1.42S355.5,32.1,354.94,32.1Z"/><ellipse class="cls-66" cx="359.22" cy="33.51" rx="1.01" ry="1.41"/><path class="cls-67" d="M352.8,80.13c-.56,0-1,.63-1,1.41s.45,1.42,1,1.42,1-.64,1-1.42S353.36,80.13,352.8,80.13Z"/><path class="cls-68" d="M357.08,80.13c-.56,0-1,.63-1,1.41s.45,1.42,1,1.42,1-.64,1-1.42S357.64,80.13,357.08,80.13Z"/><path class="cls-69" d="M354.94,83c-.56,0-1,.63-1,1.41s.45,1.41,1,1.41,1-.63,1-1.41S355.5,83,354.94,83Z"/><path class="cls-70" d="M359.22,83c-.56,0-1,.63-1,1.41a1.69,1.69,0,0,0,.3,1,10.63,10.63,0,0,1,1.7-1.32C360.11,83.43,359.71,83,359.22,83Z"/><path class="cls-71" d="M352.8,85.78c-.56,0-1,.63-1,1.41s.45,1.42,1,1.42,1-.63,1-1.41S353.36,85.78,352.8,85.78Z"/><path class="cls-72" d="M357.08,85.78c-.56,0-1,.63-1,1.42a1.84,1.84,0,0,0,.16.76,21.43,21.43,0,0,1,1.51-1.83A.86.86,0,0,0,357.08,85.78Z"/><path class="cls-73" d="M353.93,90a2,2,0,0,0,.08.56.58.58,0,0,0,.66-.24s.33-.6.89-1.43a.82.82,0,0,0-.62-.3C354.38,88.61,353.93,89.24,353.93,90Z"/><path class="cls-74" d="M346.27,27.69a.44.44,0,0,0-.19.6s.21.39.47,1c.53,0,.95-.65.95-1.41a1.81,1.81,0,0,0-.11-.63Z"/><path class="cls-75" d="M350.77,26.45c-.56,0-1,.63-1,1.41s.45,1.42,1,1.42,1-.64,1-1.42S351.33,26.45,350.77,26.45Z"/><path class="cls-76" d="M348.63,29.28c-.56,0-1,.63-1,1.41s.45,1.41,1,1.41,1-.63,1-1.41S349.19,29.28,348.63,29.28Z"/><path class="cls-77" d="M350.77,32.1c-.56,0-1,.63-1,1.41s.45,1.42,1,1.42,1-.64,1-1.42S351.33,32.1,350.77,32.1Z"/><path class="cls-78" d="M348.63,80.13c-.56,0-1,.63-1,1.41s.45,1.42,1,1.42,1-.64,1-1.42S349.19,80.13,348.63,80.13Z"/><path class="cls-79" d="M346.45,85.78h0c.56,0,1-.63,1-1.41a1.71,1.71,0,0,0-.2-.84A17.58,17.58,0,0,1,346.45,85.78Z"/><path class="cls-80" d="M350.77,83c-.56,0-1,.63-1,1.41s.45,1.41,1,1.41,1-.63,1-1.41S351.33,83,350.77,83Z"/><path class="cls-81" d="M348.63,85.78c-.56,0-1,.63-1,1.42a1.89,1.89,0,0,0,.16.77l1.25.52a1.49,1.49,0,0,0,.62-1.29C349.65,86.41,349.19,85.78,348.63,85.78Z"/><path class="cls-82" d="M350.77,88.61a.86.86,0,0,0-.65.34l1.62.68C351.62,89,351.23,88.61,350.77,88.61Z"/><path class="cls-83" d="M336.33,40.72l-.62-.12a1.38,1.38,0,0,0-.83,1.39c0,.78.46,1.41,1,1.41s1-.63,1-1.41A1.5,1.5,0,0,0,336.33,40.72Z"/><path class="cls-84" d="M339.43,41a1.77,1.77,0,0,0-.26,1c0,.78.45,1.41,1,1.41s1-.63,1-1.41a1.71,1.71,0,0,0-.29-1A14.43,14.43,0,0,1,339.43,41Z"/><path class="cls-85" d="M338,43.4c-.56,0-1,.64-1,1.42s.46,1.41,1,1.41,1-.63,1-1.41S338.6,43.4,338,43.4Z"/><path class="cls-86" d="M342.32,43.4c-.56,0-1,.64-1,1.42s.45,1.41,1,1.41,1-.63,1-1.41S342.88,43.4,342.32,43.4Z"/><path class="cls-87" d="M335.9,46.23c-.56,0-1,.63-1,1.41s.46,1.41,1,1.41,1-.63,1-1.41S336.46,46.23,335.9,46.23Z"/><path class="cls-88" d="M340.18,46.23c-.56,0-1,.63-1,1.41s.45,1.41,1,1.41,1-.63,1-1.41S340.74,46.23,340.18,46.23Z"/><path class="cls-89" d="M338,49.05c-.56,0-1,.64-1,1.42s.46,1.41,1,1.41,1-.63,1-1.41S338.6,49.05,338,49.05Z"/><path class="cls-90" d="M342.32,49.05c-.56,0-1,.64-1,1.42s.45,1.41,1,1.41,1-.63,1-1.41S342.88,49.05,342.32,49.05Z"/><path class="cls-91" d="M335.9,51.88a1,1,0,0,0-.85.63,12.51,12.51,0,0,1,1.52,1.83,1.67,1.67,0,0,0,.34-1.05C336.91,52.51,336.46,51.88,335.9,51.88Z"/><path class="cls-92" d="M340.18,51.88c-.56,0-1,.63-1,1.41s.45,1.41,1,1.41,1-.63,1-1.41S340.74,51.88,340.18,51.88Z"/><path class="cls-93" d="M338,54.7a1,1,0,0,0-.88.72,4.79,4.79,0,0,1,.49,2,.77.77,0,0,0,.39.11c.56,0,1-.63,1-1.41S338.6,54.7,338,54.7Z"/><path class="cls-94" d="M342.32,54.7c-.56,0-1,.64-1,1.42s.45,1.41,1,1.41,1-.63,1-1.41S342.88,54.7,342.32,54.7Z"/><path class="cls-95" d="M340.18,57.53c-.56,0-1,.63-1,1.41s.45,1.41,1,1.41,1-.63,1-1.41S340.74,57.53,340.18,57.53Z"/><path class="cls-96" d="M338,60.35c-.56,0-1,.64-1,1.42s.46,1.41,1,1.41,1-.63,1-1.41S338.6,60.35,338,60.35Z"/><path class="cls-97" d="M342.32,60.35c-.56,0-1,.64-1,1.42s.45,1.41,1,1.41,1-.63,1-1.41S342.88,60.35,342.32,60.35Z"/><path class="cls-98" d="M335.9,63.18c-.56,0-1,.63-1,1.41s.46,1.42,1,1.42,1-.64,1-1.42S336.46,63.18,335.9,63.18Z"/><path class="cls-99" d="M340.18,63.18c-.56,0-1,.63-1,1.41s.45,1.42,1,1.42,1-.64,1-1.42S340.74,63.18,340.18,63.18Z"/><path class="cls-100" d="M338,66c-.56,0-1,.63-1,1.41s.46,1.41,1,1.41,1-.63,1-1.41S338.6,66,338,66Z"/><path class="cls-101" d="M342.32,66c-.56,0-1,.63-1,1.41s.45,1.41,1,1.41,1-.63,1-1.41S342.88,66,342.32,66Z"/><path class="cls-102" d="M335.9,68.83c-.56,0-1,.63-1,1.41s.46,1.42,1,1.42,1-.64,1-1.42S336.46,68.83,335.9,68.83Z"/><path class="cls-103" d="M340.18,68.83c-.56,0-1,.63-1,1.41s.45,1.42,1,1.42,1-.64,1-1.42S340.74,68.83,340.18,68.83Z"/><path class="cls-104" d="M338,71.66c-.56,0-1,.63-1,1.41a1.74,1.74,0,0,0,.32,1c.47-.06,1-.1,1.48-.13a1.78,1.78,0,0,0,.23-.89C339.05,72.29,338.6,71.66,338,71.66Z"/><path class="cls-105" d="M342.32,71.66c-.56,0-1,.63-1,1.41a1.76,1.76,0,0,0,.29,1,9,9,0,0,1,1.19.25,1.57,1.57,0,0,0,.55-1.25C343.34,72.29,342.88,71.66,342.32,71.66Z"/><path class="cls-106" d="M333.52,40.49a.86.86,0,0,0,.35.09.82.82,0,0,0,.58-.26l-.32-.08A.54.54,0,0,0,333.52,40.49Z"/><path class="cls-107" d="M332.56,42.8a1.07,1.07,0,0,0,.07-.19Z"/><path class="cls-108" d="M333.87,43.4c-.56,0-1,.64-1,1.42s.46,1.41,1,1.41,1-.63,1-1.41S334.43,43.4,333.87,43.4Z"/><path class="cls-109" d="M331.73,46.23c-.56,0-1,.63-1,1.41s.46,1.41,1,1.41,1-.63,1-1.41S332.29,46.23,331.73,46.23Z"/><path class="cls-110" d="M333.87,49.05c-.56,0-1,.64-1,1.42a.77.77,0,0,0,0,.15c.45.34.92.73,1.39,1.15a1.5,1.5,0,0,0,.62-1.3C334.88,49.69,334.43,49.05,333.87,49.05Z"/><path class="cls-111" d="M331,65.59a.89.89,0,0,0,.72.42c.56,0,1-.64,1-1.42a1,1,0,0,0,0-.17C332,64.94,331.42,65.33,331,65.59Z"/><path class="cls-112" d="M330.22,66.55l.38.92v0a1.62,1.62,0,0,0-.39-1.11A.39.39,0,0,0,330.22,66.55Z"/><path class="cls-113" d="M333.87,66c-.56,0-1,.63-1,1.41s.46,1.41,1,1.41,1-.63,1-1.41S334.43,66,333.87,66Z"/><path class="cls-114" d="M331.73,68.83a.8.8,0,0,0-.5.19l1,2.44a1.53,1.53,0,0,0,.51-1.22C332.74,69.46,332.29,68.83,331.73,68.83Z"/><path class="cls-115" d="M333.87,71.66c-.54,0-1,.59-1,1.33l.54,1.33a.81.81,0,0,0,.47.16c.56,0,1-.63,1-1.41S334.43,71.66,333.87,71.66Z"/><path class="cls-116" d="M378.15,34.93c-.56,0-1,.63-1,1.41s.45,1.41,1,1.41,1-.63,1-1.41S378.72,34.93,378.15,34.93Z"/><path class="cls-117" d="M380.08,37.78a1.39,1.39,0,0,0-.8,1.38c0,.78.46,1.42,1,1.42s.84-.44,1-1l-.16-.12A5,5,0,0,1,380.08,37.78Z"/><path class="cls-118" d="M378.15,40.58c-.56,0-1,.63-1,1.41s.45,1.41,1,1.41,1-.63,1-1.41S378.72,40.58,378.15,40.58Z"/><path class="cls-119" d="M382.44,40.58c-.56,0-1,.63-1,1.41s.46,1.41,1,1.41,1-.63,1-1.41S383,40.58,382.44,40.58Z"/><path class="cls-120" d="M380.3,43.4c-.56,0-1,.64-1,1.42s.46,1.41,1,1.41,1-.63,1-1.41S380.86,43.4,380.3,43.4Z"/><path class="cls-121" d="M384.58,43.4c-.56,0-1,.64-1,1.42s.46,1.41,1,1.41,1-.63,1-1.41S385.14,43.4,384.58,43.4Z"/><path class="cls-122" d="M382.44,46.23c-.56,0-1,.63-1,1.41s.46,1.41,1,1.41,1-.63,1-1.41S383,46.23,382.44,46.23Z"/><path class="cls-123" d="M380.59,49.12a16.92,16.92,0,0,1,.69,1.65,1.53,1.53,0,0,0,0-.3A1.43,1.43,0,0,0,380.59,49.12Z"/><path class="cls-124" d="M384.58,49.05c-.56,0-1,.64-1,1.42s.46,1.41,1,1.41,1-.63,1-1.41S385.14,49.05,384.58,49.05Z"/><path class="cls-125" d="M382.44,51.88a.89.89,0,0,0-.69.37,17.78,17.78,0,0,1,.52,2.43l.17,0c.56,0,1-.63,1-1.41S383,51.88,382.44,51.88Z"/><path class="cls-126" d="M384.58,54.7c-.56,0-1,.64-1,1.42s.46,1.41,1,1.41,1-.63,1-1.41S385.14,54.7,384.58,54.7Z"/><path class="cls-127" d="M382.48,57.53a19.73,19.73,0,0,1-.21,2.8l.17,0c.56,0,1-.63,1-1.41S383,57.56,382.48,57.53Z"/><path class="cls-128" d="M384.58,60.35c-.56,0-1,.64-1,1.42s.46,1.41,1,1.41,1-.63,1-1.41S385.14,60.35,384.58,60.35Z"/><path class="cls-129" d="M382.44,63.18c-.56,0-1,.63-1,1.41s.46,1.42,1,1.42,1-.64,1-1.42S383,63.18,382.44,63.18Z"/><path class="cls-130" d="M380.53,66.05a22,22,0,0,1-1.13,2,1,1,0,0,0,.9.77c.56,0,1-.63,1-1.41A1.38,1.38,0,0,0,380.53,66.05Z"/><path class="cls-131" d="M384.58,66c-.56,0-1,.63-1,1.41s.46,1.41,1,1.41,1-.63,1-1.41S385.14,66,384.58,66Z"/><path class="cls-132" d="M377.24,70.84a1.06,1.06,0,0,0,.91.82c.57,0,1-.64,1-1.42a1.61,1.61,0,0,0-.46-1.18A18,18,0,0,1,377.24,70.84Z"/><path class="cls-133" d="M382.44,68.83c-.56,0-1,.63-1,1.41s.46,1.42,1,1.42,1-.64,1-1.42S383,68.83,382.44,68.83Z"/><path class="cls-134" d="M380.3,71.66c-.56,0-1,.63-1,1.41s.46,1.41,1,1.41,1-.63,1-1.41S380.86,71.66,380.3,71.66Z"/><path class="cls-135" d="M384.58,71.66c-.56,0-1,.63-1,1.41a1.65,1.65,0,0,0,.42,1.14,12,12,0,0,1,1.34-.19,1.69,1.69,0,0,0,.27-1C385.59,72.29,385.14,71.66,384.58,71.66Z"/><path class="cls-136" d="M378.15,74.48c-.56,0-1,.63-1,1.41s.45,1.42,1,1.42,1-.64,1-1.42S378.72,74.48,378.15,74.48Z"/><path class="cls-137" d="M381.53,75.27a5.28,5.28,0,0,1,1.25-.7.82.82,0,0,0-.34-.09A1,1,0,0,0,381.53,75.27Z"/><path class="cls-138" d="M379.28,78.72a1.78,1.78,0,0,0,.23.89,8.69,8.69,0,0,1,.52-2.25A1.42,1.42,0,0,0,379.28,78.72Z"/><path class="cls-139" d="M369.7,34.93c-.56,0-1,.63-1,1.41s.45,1.41,1,1.41,1-.63,1-1.41S370.26,34.93,369.7,34.93Z"/><path class="cls-140" d="M374,34.93c-.57,0-1,.63-1,1.41s.45,1.41,1,1.41,1-.63,1-1.41S374.55,34.93,374,34.93Z"/><path class="cls-141" d="M371.84,37.75c-.56,0-1,.63-1,1.41a2.11,2.11,0,0,0,.07.52c.49.21,1,.45,1.45.7a1.56,1.56,0,0,0,.51-1.22C372.86,38.38,372.4,37.75,371.84,37.75Z"/><path class="cls-142" d="M376.13,37.75c-.56,0-1,.63-1,1.41s.46,1.42,1,1.42,1-.64,1-1.42S376.69,37.75,376.13,37.75Z"/><path class="cls-143" d="M374,40.58a.88.88,0,0,0-.69.37A18.21,18.21,0,0,1,375,42.13c0-.05,0-.09,0-.14C375,41.21,374.55,40.58,374,40.58Z"/><path class="cls-144" d="M376.38,71.71c-.4.38-.82.74-1.25,1.08a2.46,2.46,0,0,0,0,.28c0,.78.46,1.41,1,1.41s1-.63,1-1.41A1.39,1.39,0,0,0,376.38,71.71Z"/><path class="cls-145" d="M368.71,76.18c.09.64.5,1.13,1,1.13s1-.64,1-1.42a1.93,1.93,0,0,0-.05-.42A19.07,19.07,0,0,1,368.71,76.18Z"/><path class="cls-146" d="M374,74.48c-.57,0-1,.63-1,1.41s.45,1.42,1,1.42,1-.64,1-1.42S374.55,74.48,374,74.48Z"/><path class="cls-147" d="M371.84,77.31c-.56,0-1,.63-1,1.41s.45,1.41,1,1.41,1-.63,1-1.41S372.4,77.31,371.84,77.31Z"/><path class="cls-148" d="M376.13,77.31c-.56,0-1,.63-1,1.41s.46,1.41,1,1.41,1-.63,1-1.41S376.69,77.31,376.13,77.31Z"/><path class="cls-149" d="M361.25,34.93c-.56,0-1,.63-1,1.41s.45,1.41,1,1.41,1-.63,1-1.41S361.81,34.93,361.25,34.93Z"/><path class="cls-150" d="M365.53,34.93c-.56,0-1,.63-1,1.41s.45,1.41,1,1.41,1-.63,1-1.41S366.09,34.93,365.53,34.93Z"/><path class="cls-151" d="M362.79,38h.32l.9,0a.86.86,0,0,0-.62-.3A.84.84,0,0,0,362.79,38Z"/><path class="cls-152" d="M367.67,37.75a1,1,0,0,0-.84.64,18.83,18.83,0,0,1,1.83.46C368.56,38.22,368.16,37.75,367.67,37.75Z"/><path class="cls-153" d="M361.25,77.31a.85.85,0,0,0,.65-.34c-.47,0-.94-.08-1.4-.14A.91.91,0,0,0,361.25,77.31Z"/><path class="cls-154" d="M365.53,77.31a.94.94,0,0,0,.81-.58c-.49.09-1,.15-1.49.2A.89.89,0,0,0,365.53,77.31Z"/><ellipse class="cls-155" cx="363.39" cy="78.72" rx="1.01" ry="1.41"/><path class="cls-156" d="M367.67,77.31c-.56,0-1,.63-1,1.41s.45,1.41,1,1.41,1-.63,1-1.41S368.23,77.31,367.67,77.31Z"/><path class="cls-157" d="M352.8,34.93c-.56,0-1,.63-1,1.41s.45,1.41,1,1.41,1-.63,1-1.41S353.36,34.93,352.8,34.93Z"/><path class="cls-158" d="M357.08,34.93c-.56,0-1,.63-1,1.41s.45,1.41,1,1.41,1-.63,1-1.41S357.64,34.93,357.08,34.93Z"/><path class="cls-159" d="M354.94,37.75c-.56,0-1,.63-1,1.41a1.69,1.69,0,0,0,.32,1,17.24,17.24,0,0,1,1.69-.78,2,2,0,0,0,0-.25C356,38.38,355.5,37.75,354.94,37.75Z"/><path class="cls-160" d="M359.22,37.75a1.09,1.09,0,0,0-.94.89,16.58,16.58,0,0,1,1.73-.36A1,1,0,0,0,359.22,37.75Z"/><path class="cls-161" d="M351.81,41.69a17.2,17.2,0,0,1,1.45-.95.78.78,0,0,0-.46-.16C352.31,40.58,351.91,41.05,351.81,41.69Z"/><path class="cls-162" d="M352.8,74.48c-.56,0-1,.63-1,1.41s.45,1.42,1,1.42,1-.64,1-1.42S353.36,74.48,352.8,74.48Z"/><path class="cls-163" d="M356.07,75.89c0,.78.45,1.42,1,1.42s.83-.41,1-1a18.74,18.74,0,0,1-2-.65C356.08,75.75,356.07,75.82,356.07,75.89Z"/><path class="cls-164" d="M354.94,77.31c-.56,0-1,.63-1,1.41s.45,1.41,1,1.41,1-.63,1-1.41S355.5,77.31,354.94,77.31Z"/><ellipse class="cls-165" cx="359.22" cy="78.72" rx="1.01" ry="1.41"/><path class="cls-166" d="M348.63,34.93c-.56,0-1,.63-1,1.41s.45,1.41,1,1.41,1-.63,1-1.41S349.19,34.93,348.63,34.93Z"/><path class="cls-167" d="M346.49,37.75h-.09a8.4,8.4,0,0,1-.91,1.24.86.86,0,0,0,0,.16c0,.78.45,1.42,1,1.42s1-.64,1-1.42S347.05,37.75,346.49,37.75Z"/><path class="cls-168" d="M350.77,37.75c-.56,0-1,.63-1,1.41s.45,1.42,1,1.42,1-.64,1-1.42S351.33,37.75,350.77,37.75Z"/><path class="cls-169" d="M344.35,40.58c-.56,0-1,.63-1,1.41s.45,1.41,1,1.41,1-.63,1-1.41S344.91,40.58,344.35,40.58Z"/><path class="cls-170" d="M348.63,40.58c-.56,0-1,.63-1,1.41s.45,1.41,1,1.41,1-.63,1-1.41S349.19,40.58,348.63,40.58Z"/><path class="cls-171" d="M346.49,43.4c-.56,0-1,.64-1,1.42s.45,1.41,1,1.41,1-.63,1-1.41S347.05,43.4,346.49,43.4Z"/><path class="cls-172" d="M344.35,46.23c-.56,0-1,.63-1,1.41s.45,1.41,1,1.41,1-.63,1-1.41S344.91,46.23,344.35,46.23Z"/><path class="cls-173" d="M343.34,53.29a1.47,1.47,0,0,0,.62,1.3,18.57,18.57,0,0,1,.6-2.68l-.21,0C343.79,51.88,343.34,52.51,343.34,53.29Z"/><path class="cls-174" d="M343.34,58.94a1.5,1.5,0,0,0,.59,1.28,21.17,21.17,0,0,1-.19-2.41A1.68,1.68,0,0,0,343.34,58.94Z"/><path class="cls-175" d="M344.35,63.18c-.56,0-1,.63-1,1.41s.45,1.42,1,1.42a1.08,1.08,0,0,0,.93-.86,17.7,17.7,0,0,1-.7-1.93A.85.85,0,0,0,344.35,63.18Z"/><path class="cls-176" d="M345.48,67.42c0,.78.45,1.41,1,1.41a.87.87,0,0,0,.63-.31,18.86,18.86,0,0,1-1.28-2.18A1.69,1.69,0,0,0,345.48,67.42Z"/><path class="cls-177" d="M344.35,68.83c-.56,0-1,.63-1,1.41s.45,1.42,1,1.42,1-.64,1-1.42S344.91,68.83,344.35,68.83Z"/><path class="cls-178" d="M347.62,70.24c0,.78.45,1.42,1,1.42a.89.89,0,0,0,.72-.42,20.62,20.62,0,0,1-1.56-1.79A1.8,1.8,0,0,0,347.62,70.24Z"/><path class="cls-179" d="M346.49,71.66c-.56,0-1,.63-1,1.41s.45,1.41,1,1.41,1-.63,1-1.41S347.05,71.66,346.49,71.66Z"/><path class="cls-180" d="M349.76,73.07c0,.78.45,1.41,1,1.41s.91-.5,1-1.16c-.57-.42-1.12-.86-1.64-1.33A1.62,1.62,0,0,0,349.76,73.07Z"/><path class="cls-181" d="M344.35,74.48a.85.85,0,0,0-.55.23,4.64,4.64,0,0,1,1.29.89l.27.31C345.36,75.11,344.91,74.48,344.35,74.48Z"/><path class="cls-182" d="M348.63,74.48c-.56,0-1,.63-1,1.41s.45,1.42,1,1.42,1-.64,1-1.42S349.19,74.48,348.63,74.48Z"/><path class="cls-183" d="M346.49,77.31h-.09a8.69,8.69,0,0,1,.92,2.21,1.76,1.76,0,0,0,.18-.81C347.5,77.94,347.05,77.31,346.49,77.31Z"/><path class="cls-184" d="M350.77,77.31c-.56,0-1,.63-1,1.41s.45,1.41,1,1.41,1-.63,1-1.41S351.33,77.31,350.77,77.31Z"/></g><path class="cls-185" d="M364.15,54.39h-249a2.85,2.85,0,0,0-2.9,2.8V215.63a2.85,2.85,0,0,0,2.9,2.79H233.27v12h14v-12H364.15a2.85,2.85,0,0,0,2.9-2.79V57.19A2.85,2.85,0,0,0,364.15,54.39Z"/><path class="cls-186" d="M247.7,230.84H232.86v-12H115.18a3.27,3.27,0,0,1-3.32-3.21V57.19A3.28,3.28,0,0,1,115.18,54h249a3.28,3.28,0,0,1,3.32,3.22V215.63a3.27,3.27,0,0,1-3.32,3.21H247.7Zm-14-.84h13.17V218H364.15a2.43,2.43,0,0,0,2.48-2.37V57.19a2.43,2.43,0,0,0-2.48-2.38h-249a2.44,2.44,0,0,0-2.49,2.38V215.63a2.43,2.43,0,0,0,2.49,2.37H233.69Z"/><rect class="cls-187" x="120.05" y="61.35" width="237.77" height="149.2"/><path class="cls-185" d="M307.9,224.86H172.66a3.09,3.09,0,0,0,0,6.12H307.9a3.09,3.09,0,0,0,0-6.12Z"/><path class="cls-188" d="M307.9,231.4H172.66a3.5,3.5,0,0,1,0-7H307.9a3.5,3.5,0,0,1,0,7Zm-135.24-6.12a2.68,2.68,0,0,0,0,5.28H307.9a2.68,2.68,0,0,0,0-5.28Z"/><path class="cls-189" d="M308.75,0H172.33a9.49,9.49,0,0,0-5.83,2,9.51,9.51,0,0,0-2,5.78l-.3,91.16a9.53,9.53,0,0,0,9.53,9.58H310.18a9.49,9.49,0,0,0,5.82-2,9.6,9.6,0,0,0,2-5.78l.29-91.17A9.51,9.51,0,0,0,308.75,0Z"/><rect class="cls-190" x="172.17" y="91.39" width="42.18" height="1.7"/><rect class="cls-190" x="172.17" y="95.3" width="40.86" height="1.7"/><rect class="cls-190" x="172.17" y="99.21" width="37.29" height="1.7"/><rect class="cls-190" x="260.96" y="46.24" width="42.18" height="1.7"/><rect class="cls-190" x="260.96" y="50.15" width="40.86" height="1.7"/><rect class="cls-190" x="260.96" y="54.06" width="37.29" height="1.7"/><rect class="cls-190" x="273.68" y="80.57" width="34.08" height="1.37"/><rect class="cls-190" x="273.68" y="83.73" width="33.01" height="1.37"/><rect class="cls-190" x="273.68" y="86.88" width="30.13" height="1.37"/><rect class="cls-190" x="273.68" y="90.04" width="28.21" height="1.37"/><rect class="cls-190" x="273.68" y="93.2" width="26.51" height="1.37"/><rect class="cls-190" x="273.68" y="96.36" width="24.4" height="1.37"/><path class="cls-190" d="M265.47,71.72h-23a3.17,3.17,0,0,0-2.9,3.38V95.74a3.17,3.17,0,0,0,2.9,3.38h23a3.17,3.17,0,0,0,2.9-3.38V75.1A3.17,3.17,0,0,0,265.47,71.72Z"/><path class="cls-191" d="M265.82,71.72H242.13a2.55,2.55,0,0,0-2.54,2.55v4.24h28.78V74.27A2.55,2.55,0,0,0,265.82,71.72Z"/><path class="cls-192" d="M243.82,69.87a.69.69,0,0,0-.69.7v4.55a.7.7,0,0,0,1.39,0V70.57A.7.7,0,0,0,243.82,69.87Z"/><path class="cls-193" d="M264.14,69.87a.7.7,0,0,0-.7.7v4.55a.7.7,0,0,0,1.39,0V70.57A.69.69,0,0,0,264.14,69.87Z"/><path class="cls-194" d="M244.23,82.75a1.55,1.55,0,1,0,1.55,1.55A1.55,1.55,0,0,0,244.23,82.75Z"/><path class="cls-195" d="M248.86,82.75a1.55,1.55,0,1,0,1.55,1.55A1.55,1.55,0,0,0,248.86,82.75Z"/><path class="cls-195" d="M253.49,82.75A1.55,1.55,0,1,0,255,84.3,1.55,1.55,0,0,0,253.49,82.75Z"/><path class="cls-195" d="M258.12,82.75a1.55,1.55,0,1,0,1.55,1.55A1.55,1.55,0,0,0,258.12,82.75Z"/><path class="cls-195" d="M262.75,82.75a1.55,1.55,0,1,0,1.55,1.55A1.55,1.55,0,0,0,262.75,82.75Z"/><path class="cls-195" d="M244.23,87.3a1.56,1.56,0,1,0,1.55,1.55A1.56,1.56,0,0,0,244.23,87.3Z"/><path class="cls-196" d="M248.86,87.3a1.56,1.56,0,1,0,1.55,1.55A1.56,1.56,0,0,0,248.86,87.3Z"/><path class="cls-195" d="M253.49,87.3A1.56,1.56,0,1,0,255,88.85,1.56,1.56,0,0,0,253.49,87.3Z"/><path class="cls-195" d="M258.12,87.3a1.56,1.56,0,1,0,1.55,1.55A1.56,1.56,0,0,0,258.12,87.3Z"/><path class="cls-195" d="M262.75,87.3a1.56,1.56,0,1,0,1.55,1.55A1.56,1.56,0,0,0,262.75,87.3Z"/><path class="cls-195" d="M244.23,91.85a1.56,1.56,0,1,0,1.55,1.56A1.56,1.56,0,0,0,244.23,91.85Z"/><path class="cls-195" d="M248.86,91.85a1.56,1.56,0,1,0,1.55,1.56A1.56,1.56,0,0,0,248.86,91.85Z"/><path class="cls-195" d="M253.49,91.85A1.56,1.56,0,1,0,255,93.41,1.56,1.56,0,0,0,253.49,91.85Z"/><path class="cls-195" d="M258.12,91.85a1.56,1.56,0,1,0,1.55,1.56A1.56,1.56,0,0,0,258.12,91.85Z"/><path class="cls-197" d="M262.75,91.85a1.56,1.56,0,1,0,1.55,1.56A1.56,1.56,0,0,0,262.75,91.85Z"/><path class="cls-198" d="M237.24,43.05a6.43,6.43,0,0,0-6.07,4.31L218.58,46l-5.67.45.58-5.17,9.7-15.48A6.32,6.32,0,0,0,225,26a6.47,6.47,0,1,0-4.76-2.12L210.1,40.07l-.74,6.64-8.18.65-17,5.85a6.43,6.43,0,1,0,1,3.51c0-.06,0-.11,0-.17l16.71-5.74,7.06-.56L208.44,55l3.09,14.81a6.44,6.44,0,1,0,3.41-1s-3-14-3-14l.54-4.84,6-.49L231,50.85a6.44,6.44,0,1,0,6.29-7.8Z"/><path class="cls-198" d="M195.54,28.26a6.44,6.44,0,1,0-6.44,6.44,6.36,6.36,0,0,0,3.26-.9l9.24,8.84L204,40.11l-9.24-8.83A6.41,6.41,0,0,0,195.54,28.26Z"/><path class="cls-186" d="M208.5,35.81a10.86,10.86,0,1,0,10.85,10.85A10.86,10.86,0,0,0,208.5,35.81Z"/><path class="cls-199" d="M299.32,26.49c-1.71-2.09-3.32-4-6.41-3.29-2.76.69-4.13,2.72-5.45,4.68-1.7,2.53-3.3,4.91-7.72,4.83-4.15-.07-7.11-1.77-10-3.41-2.71-1.55-5.26-3-8.6-3v.58c3.18,0,5.68,1.43,8.31,2.95,2.93,1.67,5.95,3.41,10.25,3.48h.21c4.57,0,6.31-2.59,8-5.09,1.32-2,2.57-3.81,5.11-4.44,2.73-.68,4.1,1,5.82,3.08,1.91,2.33,4.08,5,8.71,5.06v-.58C303.23,31.25,301.15,28.72,299.32,26.49Z"/><path class="cls-200" d="M300.27,30c-1.55,1.66-3,3.23-6.44,3.23-3.23,0-4.79-3.51-6.45-7.23-1.94-4.34-3.94-8.83-8.79-8.83-5,0-8,4.35-10.71,8.19-2.12,3.05-4.13,5.93-6.71,5.93v.58c2.89,0,5-3,7.19-6.18,2.59-3.72,5.52-7.94,10.23-7.94,4.47,0,6.4,4.31,8.26,8.48,1.73,3.9,3.38,7.58,7,7.58s5.29-1.73,6.86-3.41,3.16-3.37,6.9-3.37v-.58C303.6,26.49,301.91,28.3,300.27,30Z"/><rect class="cls-2" x="260.82" y="14.63" width="0.34" height="23.69"/><rect class="cls-2" x="307.42" y="14.63" width="0.34" height="23.69"/><rect class="cls-2" x="260.82" y="38.15" width="46.93" height="0.34"/><path class="cls-198" d="M308.75,0H172.33a9.49,9.49,0,0,0-5.83,2,9.51,9.51,0,0,0-2,5.78l-.3,91.16a9.53,9.53,0,0,0,9.53,9.58H310.18a9.49,9.49,0,0,0,5.82-2,9.58,9.58,0,0,0,2-5.78l.29-91.17A9.51,9.51,0,0,0,308.75,0Zm8.46,100.74a8.76,8.76,0,0,1-1.75,5.25,8.72,8.72,0,0,1-5.28,1.77H173.76A8.77,8.77,0,0,1,165,99l.3-91.17A8.75,8.75,0,0,1,167,2.53,8.74,8.74,0,0,1,172.33.75H308.75a8.76,8.76,0,0,1,8.76,8.82Z"/><path class="cls-3" d="M426.76,222.83c-13.11,0-23.74,1.37-23.74,3.06S413.65,229,426.76,229s23.75-1.37,23.75-3.07S439.88,222.83,426.76,222.83Z"/><g class="cls-201"><g class="cls-202"><path class="cls-185" d="M387.08,92.42H264.24A8.29,8.29,0,0,0,259,94.31a9.39,9.39,0,0,0-1.78,5.47L257,186a8.8,8.8,0,0,0,8.57,9.06H388.36a8.28,8.28,0,0,0,5.24-1.89,9.39,9.39,0,0,0,1.78-5.47l.26-86.27A8.79,8.79,0,0,0,387.08,92.42Z"/></g></g><path class="cls-203" d="M336.61,161.49c-10.65.19-14.51-5.85-18.61-12.24-3.2-5-6.5-10.12-13.16-11.86-7.45-1.94-11.33,3-15.45,8.32-4.42,5.65-9.43,12.07-20,12.28l0,17.93s104.26-.22,111.94-.22V145.19c-8,0-14.22,3.72-20.75,7.66C353.75,157,346.61,161.31,336.61,161.49Z"/><path class="cls-204" d="M365.21,143c-6.44-9.73-13.75-20.76-25.82-20.76-11.71,0-16.53,11.38-21.2,22.38-4,9.43-7.78,18.33-15.55,18.33-8.26,0-11.8-4-15.55-8.18-3.95-4.42-8-9-17.64-9v1.47c9,0,12.7,4.15,16.62,8.54s7.71,8.64,16.57,8.64c8.68,0,12.64-9.32,16.83-19.2,4.48-10.58,9.12-21.51,19.92-21.51,11.34,0,18.42,10.7,24.67,20.13,5.34,8.06,10.38,15.67,17.34,15.67V158C375.17,158,370.33,150.68,365.21,143Z"/><rect class="cls-2" x="381.4" y="115.65" width="0.83" height="60.05"/><rect class="cls-2" x="269.03" y="115.65" width="0.83" height="60.05"/><rect class="cls-2" x="269.03" y="175.27" width="113.2" height="0.87"/><path class="cls-198" d="M387.29,92.1H263.5a7,7,0,0,0-6.85,7.21v86.85a9,9,0,0,0,8.81,9.25H389.09a7,7,0,0,0,6.85-7.2v-87A8.89,8.89,0,0,0,387.29,92.1Zm8,96.11a6.43,6.43,0,0,1-6.25,6.58H265.46a8.44,8.44,0,0,1-8.21-8.63V99.31a6.43,6.43,0,0,1,6.25-6.58H387.29a8.27,8.27,0,0,1,8,8.46Z"/><path class="cls-186" d="M438.75,117.79c-6.63-4.44-8.87-1.85-10.53.89s3.28,3,6.65,5.09c4.48,2.82,12.16,6.87,13.56,4.51.64-1.09,1.69-2.21-.46-4.38C445.42,121.33,442.35,120.2,438.75,117.79Z"/><path class="cls-205" d="M454.65,109.93a6.75,6.75,0,0,1-.82,1.57s-.06-1-.75-.87-.65.25-.88,2.41-.23,3.31-.23,3.31l2.48,2.36a12.53,12.53,0,0,0,3.13-4.39c1.46-3.1,1.58-4.35.3-5.57S455.21,108.63,454.65,109.93Z"/><path class="cls-205" d="M452,114.45l-8,10.85v2.88s3.31,2.39,6.71-1.06c0,0,5.13-6.29,6.37-11.69C457.24,114.56,454.39,113.35,452,114.45Z"/><path class="cls-186" d="M414.27,193.8s-1.83,24.45-1.83,25.95c0,3.45,6.19,2.53,6.42,1.09s5.33-29,5.33-29l3-22.1,2,17.66s2.27,29.73,2.43,32.43,6,2.6,6,.33,1.78-63.61,1.78-63.61l-25.23,3Z"/><path class="cls-206" d="M434.31,115.74c-4.23-2-20.16,5.57-20.16,5.57-6.1,2.63,0,38.64,0,38.64s2.4,2.19,9.76,2.36,15.48-5.64,15.48-5.64.6-16.75-.1-26.57S438.54,117.78,434.31,115.74Z"/><path class="cls-205" d="M420.91,111.39l.35,7.25a4.6,4.6,0,0,0,4.71,2.18c3.24-.53,3.65-4.11,3.1-6S420.91,111.39,420.91,111.39Z"/><path class="cls-205" d="M416.8,107.84c2,5.56,7,10,13.44,7.18s1.61-13.75,1.61-13.75C426.11,90.57,413.86,100.86,416.8,107.84Z"/><path class="cls-186" d="M421.47,95.39c-2.76.67-8.74,4.59-6.46,11.82,1.13,4.93,6,8.06,6,8.06s-.86-6.8.09-8.93.78-2.66.78-2.66,4.57,1.69,7.8.12,3.7-3.92,2.46-5.91S424.23,94.72,421.47,95.39Z"/><path class="cls-205" d="M421.26,108.54s-2.12-2.59-2.76-.48,1.33,3.3,2.55,3.93S423.26,110.22,421.26,108.54Z"/><path class="cls-207" d="M435.9,219.05a20.42,20.42,0,0,0-4.5.84,4.27,4.27,0,0,0-1.63,3.31c0,3.26,4.3,2.66,8.36,2.63,2.33,0,5,.28,6.51-.83C448.76,222,438.64,218.81,435.9,219.05Z"/><path class="cls-208" d="M416.19,219.05a20.44,20.44,0,0,0-4.51.84,4.3,4.3,0,0,0-1.63,3.31c0,3.26,4.3,2.66,8.37,2.63,2.32,0,5,.28,6.51-.83C429,222,418.93,218.81,416.19,219.05Z"/><path class="cls-186" d="M415.92,121.11c-3.15-.52-5.65,6.53-6,10.64-.45,5.44,1.13,17.43,3.83,17.84,1.24.19,2.89-.49,3.82-3.43,1.1-3.49.56-8.78,1.05-13.22C419.53,124.77,419.07,121.62,415.92,121.11Z"/><path class="cls-205" d="M429,164.55s1.14.77,1.41.16.15-.66-2-2.51-3.4-2.76-3.4-2.76l-4.09-.09a14.9,14.9,0,0,0,2.68,5.67c2.37,3.46,3.63,4.53,5.76,4.57s1.82-1.8.8-3.22A9.69,9.69,0,0,1,429,164.55Z"/><path class="cls-186" d="M412.39,148.52s5.41,11.1,10.2,15.29c.78.68,4.34-.69,4.64-2.9-.47-.91-5.9-11.4-9.93-17.86S410.88,144.2,412.39,148.52Z"/><path class="cls-189" d="M504.37,73.59l-51.09-.32A13.33,13.33,0,0,0,445,76.11a13.64,13.64,0,0,0-2.78,8.22l-.42,47.8a13.5,13.5,0,0,0,13.45,13.61l51.09.33a13.37,13.37,0,0,0,8.22-2.84,13.7,13.7,0,0,0,2.78-8.22l.42-47.81A13.5,13.5,0,0,0,504.37,73.59Z"/><path class="cls-209" d="M486.82,95.64c0-2.26,3.59-4.26,3.59-4.26a.29.29,0,0,0,.13-.33l-1.64-4a.22.22,0,0,0-.3-.09,7.16,7.16,0,0,1-2.47.81,4.28,4.28,0,0,1-3.06-1.27C481.5,85,482.63,81,482.63,81a.28.28,0,0,0-.14-.32L478.56,79a.27.27,0,0,0-.32.12s-2,3.63-4.2,3.64-4.21-3.63-4.21-3.63a.28.28,0,0,0-.32-.12l-3.93,1.65a.28.28,0,0,0-.14.31s1.15,4-.42,5.56A4.29,4.29,0,0,1,462,87.85a7.16,7.16,0,0,1-2.46-.81.22.22,0,0,0-.3.09l-1.62,4a.27.27,0,0,0,.12.32s3.6,2,3.61,4.23-3.6,4.24-3.6,4.24a.29.29,0,0,0-.13.32l1.64,4a.28.28,0,0,0,.31.14s4-1.15,5.52.42.43,5.56.43,5.56a.3.3,0,0,0,.14.32l3.93,1.63a.27.27,0,0,0,.32-.12s2-3.63,4.2-3.63,4.21,3.63,4.21,3.63a.28.28,0,0,0,.32.12l3.93-1.64a.3.3,0,0,0,.14-.32s-1.14-4,.42-5.56,5.52-.43,5.52-.43a.25.25,0,0,0,.31-.14l1.63-4a.28.28,0,0,0-.12-.32S486.82,97.87,486.82,95.64Zm-12.76,9.77a9.77,9.77,0,1,1,9.7-9.77A9.74,9.74,0,0,1,474.06,105.41Z"/><path class="cls-210" d="M502.72,126.53c0-1.64,2.61-3.1,2.61-3.1a.2.2,0,0,0,.09-.23l-1.19-2.88a.15.15,0,0,0-.21-.07,5.24,5.24,0,0,1-1.8.59,3.15,3.15,0,0,1-2.23-.93c-1.14-1.14-.31-4-.31-4a.21.21,0,0,0-.1-.23l-2.87-1.19a.2.2,0,0,0-.23.09s-1.44,2.64-3.05,2.65-3.06-2.64-3.06-2.64a.2.2,0,0,0-.23-.09l-2.86,1.2a.21.21,0,0,0-.1.23s.83,2.89-.31,4a3.12,3.12,0,0,1-2.23.93,5.3,5.3,0,0,1-1.79-.58.15.15,0,0,0-.21.07l-1.19,2.88a.21.21,0,0,0,.09.23s2.62,1.46,2.62,3.08-2.61,3.08-2.61,3.08a.2.2,0,0,0-.09.23l1.19,2.88a.19.19,0,0,0,.22.1s2.88-.83,4,.31.31,4,.31,4a.2.2,0,0,0,.1.23l2.86,1.19a.2.2,0,0,0,.23-.09s1.45-2.64,3.06-2.64,3.05,2.64,3.05,2.64a.21.21,0,0,0,.24.09l2.86-1.19a.21.21,0,0,0,.1-.23s-.83-2.9.3-4,4-.32,4-.32a.19.19,0,0,0,.22-.1l1.19-2.88a.2.2,0,0,0-.09-.23S502.72,128.15,502.72,126.53Zm-9.28,5.32a5.32,5.32,0,1,1,5.28-5.32A5.3,5.3,0,0,1,493.44,131.85Z"/><path class="cls-211" d="M468.32,130.38c0-1.1,1.76-2.08,1.76-2.08a.14.14,0,0,0,.06-.16l-.81-1.94a.11.11,0,0,0-.14,0,3.53,3.53,0,0,1-1.21.4,2.13,2.13,0,0,1-1.5-.62c-.77-.77-.21-2.72-.21-2.72a.16.16,0,0,0-.07-.16l-1.93-.8a.12.12,0,0,0-.15.06s-1,1.78-2.06,1.78-2.06-1.77-2.06-1.77a.14.14,0,0,0-.16-.06l-1.92.8a.16.16,0,0,0-.07.16s.56,2-.2,2.72a2.12,2.12,0,0,1-1.51.63,3.45,3.45,0,0,1-1.2-.4.12.12,0,0,0-.15,0l-.79,1.94a.13.13,0,0,0,.06.16s1.76,1,1.76,2.07-1.76,2.07-1.76,2.07a.14.14,0,0,0-.06.16l.8,1.94a.16.16,0,0,0,.15.07s1.94-.57,2.7.21.22,2.72.22,2.72a.13.13,0,0,0,.06.15l1.93.8a.11.11,0,0,0,.15-.06s1-1.77,2.06-1.77,2.06,1.77,2.06,1.77a.14.14,0,0,0,.16.06l1.92-.8a.14.14,0,0,0,.07-.16s-.56-2,.21-2.72,2.7-.21,2.7-.21a.12.12,0,0,0,.15-.07l.8-1.94a.13.13,0,0,0-.06-.15S468.32,131.48,468.32,130.38Zm-6.25,1.3a1.3,1.3,0,1,1,1.29-1.3A1.3,1.3,0,0,1,462.07,131.68Z"/><path class="cls-185" d="M504.37,73.59l-51.09-.32A13.33,13.33,0,0,0,445,76.11a13.64,13.64,0,0,0-2.78,8.22l-.42,47.8a13.5,13.5,0,0,0,13.45,13.61l51.09.33a13.37,13.37,0,0,0,8.22-2.84,13.7,13.7,0,0,0,2.78-8.22l.42-47.81A13.5,13.5,0,0,0,504.37,73.59ZM516.85,135a13.09,13.09,0,0,1-2.63,7.84,12.76,12.76,0,0,1-7.84,2.68l-51.09-.32a12.81,12.81,0,0,1-9.15-3.82,13,13,0,0,1-3.77-9.26l.42-47.8a13,13,0,0,1,2.63-7.84,12.78,12.78,0,0,1,7.86-2.69l51.09.33a12.73,12.73,0,0,1,9.12,3.81,13,13,0,0,1,3.78,9.26Z"/><path class="cls-212" d="M200.47,67.4h-167a11.5,11.5,0,0,0-7.15,2.5,12.22,12.22,0,0,0-2.41,7.24l-.36,114.18a11.79,11.79,0,0,0,11.66,12h167a11.45,11.45,0,0,0,7.12-2.49,12.18,12.18,0,0,0,2.41-7.25l.37-114.17A11.8,11.8,0,0,0,200.47,67.4Z"/><path class="cls-198" d="M85.15,86.07c-24.37,0-44.21,20.28-44.21,45.22s19.84,45.23,44.21,45.23,44.21-20.29,44.21-45.23S109.53,86.07,85.15,86.07Zm0,73.67c-15.33,0-27.81-12.76-27.81-28.45s12.48-28.45,27.81-28.45S113,115.6,113,131.29,100.49,159.74,85.15,159.74Z"/><path class="cls-213" d="M85.15,86.07v16.77c15.34,0,27.81,12.76,27.81,28.45s-12.47,28.45-27.81,28.45S57.34,147,57.34,131.29a29,29,0,0,1,1.17-8.2l-15.7-4.82a46.06,46.06,0,0,0-1.87,13c0,24.94,19.84,45.23,44.21,45.23s44.21-20.29,44.21-45.23S109.53,86.07,85.15,86.07Z"/><path class="cls-214" d="M107.06,92l-8.14,14.57a28.66,28.66,0,0,1,14,24.72c0,15.69-12.47,28.45-27.81,28.45a27.3,27.3,0,0,1-19.78-8.45,28.61,28.61,0,0,1-8-20H40.94A45.49,45.49,0,0,0,53.7,163.07a43.41,43.41,0,0,0,31.45,13.45c24.38,0,44.21-20.29,44.21-45.23A45.57,45.57,0,0,0,107.06,92Z"/><rect class="cls-198" x="150.1" y="99.88" width="42.62" height="1.75"/><rect class="cls-198" x="150.1" y="103.92" width="41.28" height="1.75"/><rect class="cls-198" x="150.1" y="107.96" width="37.68" height="1.75"/><rect class="cls-198" x="150.1" y="112" width="35.28" height="1.75"/><rect class="cls-198" x="150.1" y="116.03" width="33.15" height="1.75"/><rect class="cls-198" x="150.1" y="120.07" width="30.52" height="1.75"/><rect class="cls-198" x="150.1" y="150.3" width="42.62" height="1.75"/><rect class="cls-198" x="150.1" y="154.34" width="41.28" height="1.75"/><rect class="cls-198" x="150.1" y="158.38" width="37.68" height="1.75"/><rect class="cls-198" x="150.1" y="162.42" width="35.28" height="1.75"/><rect class="cls-198" x="150.1" y="166.46" width="33.15" height="1.75"/><rect class="cls-198" x="150.1" y="170.5" width="30.52" height="1.75"/><path class="cls-198" d="M200.47,67.4h-167a11.5,11.5,0,0,0-7.15,2.5,12.22,12.22,0,0,0-2.41,7.24l-.36,114.18a11.79,11.79,0,0,0,11.66,12h167a11.45,11.45,0,0,0,7.12-2.49,12.18,12.18,0,0,0,2.41-7.25l.37-114.17A11.8,11.8,0,0,0,200.47,67.4Zm9.81,126.16a10.59,10.59,0,0,1-2,6.17,9.93,9.93,0,0,1-6.06,2.06h-167A10,10,0,0,1,28,198.73a10.47,10.47,0,0,1-3-7.41L25.4,77.15a10.54,10.54,0,0,1,2-6.17,9.94,9.94,0,0,1,6.09-2.07h167a10,10,0,0,1,7.19,3,10.52,10.52,0,0,1,3,7.42Z"/><ellipse class="cls-3" cx="79.28" cy="248.18" rx="24.54" ry="2.94"/><path class="cls-198" d="M91.4,170.62a6.52,6.52,0,0,1-1.57-1.11s1.29.15,1.41-.54,0-.68-2.58-1.34-4-.89-4-.89l-4,1.91s.84,1.88,4,3.91,4.67,2.4,6.77,1.41S92.75,171.42,91.4,170.62Z"/><path class="cls-215" d="M77.34,161.72c-1.35-.85-2.12-1.46-2.12-1.46s-7,3.29-4.26,6.39c0,0,7.53,4.37,13.36,5.62,1,.2,4-2.91,3.61-5.06C87.21,166.64,80.9,163.87,77.34,161.72Z"/><path class="cls-216" d="M85,241.45a20.42,20.42,0,0,0-4.46.83A4.16,4.16,0,0,0,79,245.53c0,3.21,4.25,2.61,8.28,2.59,2.3,0,5,.27,6.45-.82C97.76,244.32,87.75,241.22,85,241.45Z"/><path class="cls-217" d="M64.34,241.45a20.42,20.42,0,0,0-4.46.83,4.16,4.16,0,0,0-1.61,3.25c0,3.21,4.25,2.61,8.28,2.59,2.3,0,5,.27,6.45-.82C77.07,244.32,67.05,241.22,64.34,241.45Z"/><path class="cls-186" d="M58,187.26s1.81,54.27,1.81,56.59,5.73,2.18,5.89-.59S69,218.1,69,218.1l1.18-18.3,10.85,21s-.63,20.82-.4,22.27,3.26,3.49,4.76.36,4.55-27.76,4.55-27.76l-6.75-27.38Z"/><path class="cls-218" d="M81.45,148.7S65.22,143,61.1,145.61s-4,5.17-4.22,15.24,1.18,27.05,1.18,27.05,8.37,4.87,15.69,3.76,9.41-3.33,9.41-3.33S87.65,150.6,81.45,148.7Z"/><path class="cls-219" d="M89.33,152.39c-6.24-4.65-10.42-4.36-12.53-1.64s3.71,7,6.9,9.25c4.24,3,10.73,4.89,12.51,2.54.82-1.07,1.39-2.93-.53-5.17C93.41,154.71,92.71,154.92,89.33,152.39Z"/><path class="cls-205" d="M104.42,140.31a9.65,9.65,0,0,1-1.62,1.55s.54-1.26-.14-1.37-.7,0-2.14,2.54-2.1,3.92-2.1,3.92l.78,3.89a16.9,16.9,0,0,0,5.22-4c3-3.12,3.86-4.58,3.45-6.61S105.64,139,104.42,140.31Z"/><path class="cls-205" d="M98.63,145.8c-.65.84-4.07,7.67-6.6,11.65-1,1.52-1.7,2.42-1.7,2.42s2.83,6.09,6.28,2.71c0,0,5.18-8.39,7-14.4C103.88,147.21,100.9,145,98.63,145.8Z"/><path class="cls-205" d="M66.85,138.11v7.42a5.83,5.83,0,0,0,6.85.86c.73-1.5.9-6,.44-7.86S66.85,138.11,66.85,138.11Z"/><path class="cls-205" d="M65,135c.24,6,3.65,11.05,10.62,8.81s5.65-14.18,5.65-14.18C79.06,117.87,64.34,127.4,65,135Z"/><path class="cls-186" d="M74.4,123.23c-12.18,0-11.39,8.64-11.05,11s3.25,10.5,6.77,10,6-5,6-5c-1.47-4.16,3.41-6.33,5.2-9.07S83.44,123.23,74.4,123.23Z"/><path class="cls-205" d="M75.07,134.77c-1.25,2.13.27,3.56,1.24,4.34s2.63-1.63,1.24-3.57C77.55,135.54,76.31,132.63,75.07,134.77Z"/><path class="cls-205" d="M367.75,134.08c0,5.87.6,10.18,3.09,11.28s-.33-18.22-.33-18.22S367.75,128.21,367.75,134.08Z"/><path class="cls-205" d="M376.43,192.46c.13.78.23,1.55.3,2.33.11-.86.17-1.36.17-1.36l1.72,22.81.43,11.45s.93,15.37.78,20.86c0,0-4.17,4.3-4.42,4.58-5.81,6.46,9.57.16,9.43-1.57s-.73-12.3-.13-15.18A61.79,61.79,0,0,0,386,224c-.08-4.28-1.48-8-1.48-13s.52-15.13,2.41-19.3a11.18,11.18,0,0,0,.74-4.8l-13.23-1.29A34,34,0,0,1,376.43,192.46Z"/><path class="cls-205" d="M385.66,146.9c-6.53-1.56-15.89,3.4-15.89,3.4s-4.29,4.78-3.61,9.29S369.6,167,369,171s-8.08,19.76-.43,44.66c.72,2.87,1.2,12.45,1.2,12.45l1,19.47s-2.32,4.64-3.26,5-2.07,2.14-1.15,2.31a4.49,4.49,0,0,1,1.92,1.32l3,.29a41.79,41.79,0,0,0,2-3.83c.17-.65,2.7.1,2.7.1l-.38-6.75s.26-4.59.34-7.18,1-7.3,1-11.24-1.28-11.15-1.37-13.76,1.27-20.46,1.27-20.46l.87,11.49.72.07v-.83l6.25.61c.29-4.83,1-10.31,2.21-13.12,1.89-4.18,0-12.75-3.35-17-.77-4,.95-9.72,2.23-12.28S392.19,148.46,385.66,146.9Z"/><path class="cls-205" d="M385.94,147.49c-2.36.25-4.34,3.37-4.31,9.74s.49,12.59.79,13.11,3.7,6.83,4.66.81,2.57-16.4,1.41-21.4C388.49,149.75,388.29,147.24,385.94,147.49Z"/><path class="cls-190" d="M381.74,184.61s-.57.71-1.49,2.13-1,1.47-.66,1.82.87-.27.87-.27a4.67,4.67,0,0,1-.28,1.27c-.3,1,0,2.2,1.33,1.91s1.9-1.12,2.55-3.56a8.21,8.21,0,0,0,.29-3.86Z"/><path class="cls-205" d="M381.94,170.94l-1.06,15.27s.63,1.85,2.89.43,3.34-16.52,3.34-16.52S383,165.28,381.94,170.94Z"/><path class="cls-220" d="M385.66,146.9c-6.53-1.56-15.89,3.4-15.89,3.4s-4.29,4.78-3.61,9.29S369.6,167,369,171c-.23,1.56-1.49,4.85-2.5,9.74l20.57,2a21.11,21.11,0,0,0-3.56-8.15c-.77-4,.95-9.72,2.23-12.28S392.19,148.46,385.66,146.9Z"/><path class="cls-186" d="M383.51,174.62s-5.24,3.93-10,3.72-5.62-3.32-5.62-3.32c-.62,2.15-3.23,4.14-3.91,14.72s2.4,23.47,2.4,23.47,2.49,3.76,6.79,4,9.36-1.77,11.93-4.88c-1.17-8.19,2.91-20.47,2.92-25.71A18.76,18.76,0,0,0,383.51,174.62Z"/><path class="cls-221" d="M375.27,250.22c-2.24.28-1.95,3.11-2.58,3.35-1.79.7-8,2.1-5.16-.94,0,0-5,1.31-3.64,3s3.94,1.55,6.21,1.55c2.87,0,4.29-1,5.89-1.64s2.37-1.28,2.11-2.56S377.5,249.93,375.27,250.22Z"/><path class="cls-222" d="M375,257.22h1.9v-.88c.27-1.91,1-2.19,1-2.19l-2.94.15Z"/><path class="cls-223" d="M382.51,250.22c-2.23.28-1.95,3.11-2.58,3.35-1.79.7-8,2.1-5.15-.94,0,0-5,1.31-3.65,3s3.94,1.55,6.21,1.55c2.87,0,4.3-1,5.89-1.64s2.37-1.28,2.11-2.56S384.74,249.93,382.51,250.22Z"/><path class="cls-224" d="M382.25,257.22h1.9v-.88c.28-1.91,1-2.19,1-2.19l-2.94.15Z"/><path class="cls-186" d="M376.55,126.13a11.79,11.79,0,0,0-7.81,2c1.8,5-.55,19.06-.55,19.06a16.48,16.48,0,0,0,6.22,3.31c3.78,1.05,10.56-2.08,10.56-2.08s1.89-2.84,1.46-11S381,126.65,376.55,126.13Z"/><path class="cls-205" d="M371,150.32c-2.38-.59-5.43,1.53-7.69,7.28s-4.06,11.52-3.95,12.09,0,5.4,4.23,2.35c4.86-3.5,8.4-13.89,9.08-18.8A2.25,2.25,0,0,0,371,150.32Z"/><path class="cls-205" d="M354.23,151.92c-.47-.18-.62.69-.62.69a5.66,5.66,0,0,1-.41-1.39c-.25-1.14-1.1-2.17-2.15-1.21s-1.1,2-.42,4.75a10.09,10.09,0,0,0,1.72,3.93l2-1.84s.14-1,.22-2.83S354.7,152.09,354.23,151.92Z"/><path class="cls-205" d="M354.19,156.09s-1.67-1.11-2.29,1.5,8.16,14.82,8.16,14.82,4.34-1.28,3.59-3.06Z"/><g class="cls-225"><path class="cls-226" d="M280.21,90.46A9.47,9.47,0,1,1,289.68,81,9.47,9.47,0,0,1,280.21,90.46Zm0-18.09A8.63,8.63,0,1,0,288.84,81,8.64,8.64,0,0,0,280.21,72.37Z"/></g><path class="cls-198" d="M414.66,14.74a6.75,6.75,0,0,1-2.37.45,4,4,0,0,1-2.68-1.55c-1.26-1.63.27-5.14.27-5.14a.26.26,0,0,0-.09-.31l-3.43-2a.26.26,0,0,0-.31.07s-2.27,3.09-4.32,2.82-3.44-3.83-3.44-3.83a.24.24,0,0,0-.28-.15l-3.83,1a.24.24,0,0,0-.16.27s.57,3.78-1.06,5a4,4,0,0,1-3,.8,6.68,6.68,0,0,1-2.17-1,.2.2,0,0,0-.28.06l-2,3.43a.26.26,0,0,0,.07.31s3.09,2.27,2.82,4.31-3.83,3.45-3.83,3.45a.26.26,0,0,0-.16.28l1,3.82a.26.26,0,0,0,.28.17s3.78-.57,5,1.06-.28,5.14-.28,5.14a.25.25,0,0,0,.09.31l3.43,2a.26.26,0,0,0,.31-.07s2.27-3.09,4.32-2.82,3.44,3.84,3.44,3.84a.27.27,0,0,0,.28.15l3.83-1a.25.25,0,0,0,.16-.27s-.57-3.79,1.07-5,5.14.28,5.14.28a.29.29,0,0,0,.31-.09l2-3.43a.25.25,0,0,0-.08-.31s-3.08-2.28-2.81-4.32S415.8,19,415.8,19a.26.26,0,0,0,.16-.28l-1-3.82A.2.2,0,0,0,414.66,14.74Zm-10.34,6.69a4.16,4.16,0,1,1-3.58-4.67A4.16,4.16,0,0,1,404.32,21.43Z"/><path class="cls-227" d="M418.49,72.23a.68.68,0,0,1-.63-.42c-.37-.93-1.64-3.38-3.11-3.57s-3.33,1.84-3.93,2.64a.67.67,0,0,1-.83.21l-3.45-2a.68.68,0,0,1-.27-.83c.4-.92,1.23-3.55.33-4.73s-3.66-1.05-4.65-.9a.68.68,0,0,1-.73-.44l-1-3.86a.67.67,0,0,1,.4-.77c.93-.37,3.38-1.64,3.57-3.11s-1.85-3.33-2.65-3.93a.67.67,0,0,1-.2-.82l2-3.46a.63.63,0,0,1,.42-.29.65.65,0,0,1,.47.1,6.1,6.1,0,0,0,2,1,3.65,3.65,0,0,0,2.69-.72c1.18-.91,1.05-3.66.9-4.65a.67.67,0,0,1,.44-.73l3.86-1a.66.66,0,0,1,.77.41c.37.92,1.64,3.37,3.11,3.56s3.33-1.84,3.93-2.65a.68.68,0,0,1,.83-.2l3.46,2a.69.69,0,0,1,.26.84c-.4.91-1.23,3.54-.32,4.72a3.56,3.56,0,0,0,2.4,1.38,6.07,6.07,0,0,0,2.17-.42.61.61,0,0,1,.48,0,.57.57,0,0,1,.32.36l1,3.85a.69.69,0,0,1-.41.78c-.92.37-3.37,1.64-3.57,3.11v.09c-.18,1.41,1.86,3.27,2.66,3.86a.68.68,0,0,1,.2.83l-2,3.46a.67.67,0,0,1-.83.26c-.92-.4-3.55-1.23-4.72-.33s-1.06,3.66-.91,4.65a.67.67,0,0,1-.44.73l-3.86,1Zm-3.94-4.84.31,0c2,.27,3.42,3.26,3.72,4l3.5-.94c-.09-.75-.38-4,1.25-5.28s4.72-.12,5.42.17l1.82-3.15c-.6-.47-3.13-2.58-2.86-4.61s3.26-3.45,4-3.75l-.93-3.43a6.28,6.28,0,0,1-2.35.39,4.4,4.4,0,0,1-2.95-1.7c-1.26-1.63-.13-4.73.16-5.43l-3.15-1.81c-.47.6-2.58,3.13-4.61,2.86s-3.43-3.25-3.73-4l-3.5,1c.09.75.39,4-1.24,5.28a4.45,4.45,0,0,1-3.3.89,6.34,6.34,0,0,1-2.17-1l-1.77,3.07c.59.47,3.13,2.58,2.86,4.62S401.73,58,401,58.28l.94,3.51c.75-.1,4-.4,5.28,1.24s.12,4.72-.16,5.42l3.14,1.82C410.69,69.7,412.61,67.39,414.55,67.39Zm1.81-6.77a4.26,4.26,0,0,1-.61,0,4.58,4.58,0,0,1-3.94-5.13,4.58,4.58,0,1,1,4.55,5.17Zm0-8.32a3.67,3.67,0,0,0-2.26.78,3.74,3.74,0,0,0,1.78,6.68,3.74,3.74,0,1,0,1-7.42A2.74,2.74,0,0,0,416.34,52.3Z"/><path class="cls-198" d="M65,47.4a.68.68,0,0,1-.64-.44c-.33-1-1.5-3.44-3-3.7S58,45,57.33,45.74a.68.68,0,0,1-.84.17l-3.37-2.14a.67.67,0,0,1-.23-.84c.44-.9,1.38-3.49.53-4.71S49.8,37,48.81,37.13a.68.68,0,0,1-.71-.47l-.88-3.9a.69.69,0,0,1,.44-.76c.94-.32,3.44-1.49,3.7-2.95s-1.71-3.41-2.49-4a.66.66,0,0,1-.17-.83l2.14-3.38a.68.68,0,0,1,.84-.22c.9.43,3.5,1.37,4.71.52s1.2-3.62,1.09-4.61a.68.68,0,0,1,.47-.71l3.9-.88a.69.69,0,0,1,.76.44c.32.94,1.49,3.44,3,3.69s3.4-1.71,4-2.49a.67.67,0,0,1,.83-.16l3.38,2.13a.65.65,0,0,1,.27.43.62.62,0,0,1-.13.47,5.92,5.92,0,0,0-1,1.94,3.58,3.58,0,0,0,.61,2.71c.85,1.21,3.61,1.2,4.6,1.09a.68.68,0,0,1,.71.47l.88,3.9a.68.68,0,0,1-.43.76c-.94.32-3.44,1.49-3.69,3s1.71,3.4,2.48,4a.66.66,0,0,1,.17.83l-2.13,3.38a.67.67,0,0,1-.84.23c-.9-.44-3.5-1.38-4.71-.52a3.59,3.59,0,0,0-1.48,2.34,6.08,6.08,0,0,0,.33,2.19.62.62,0,0,1,0,.48.6.6,0,0,1-.37.31l-3.89.88Zm-3.89-5a2,2,0,0,1,.41,0c2,.35,3.31,3.39,3.57,4.1l3.47-.78a6.14,6.14,0,0,1-.29-2.37,4.41,4.41,0,0,1,1.82-2.88c1.68-1.19,4.72.07,5.41.38l1.94-3.07c-.57-.49-3-2.7-2.67-4.72s3.39-3.29,4.1-3.56L78.06,26c-.75.07-4,.23-5.23-1.45a4.49,4.49,0,0,1-.75-3.34,6.57,6.57,0,0,1,1.07-2.12l-3-1.9c-.49.58-2.69,3-4.73,2.67s-3.28-3.39-3.55-4.1l-3.55.8c.07.76.23,4-1.45,5.23s-4.73-.08-5.42-.39l-1.94,3.07c.58.49,3,2.7,2.67,4.73s-3.4,3.28-4.11,3.55l.8,3.55c.76-.07,4.05-.23,5.23,1.45s-.08,4.73-.39,5.42l3.07,1.94C57.24,44.56,59.19,42.4,61.1,42.4Zm2.37-6.68a5.35,5.35,0,0,1-.79-.06A4.58,4.58,0,1,1,68,31.93,4.59,4.59,0,0,1,63.47,35.72Zm0-8.32a3.74,3.74,0,0,0-.63,7.43,3.74,3.74,0,1,0,1.28-7.37A3.57,3.57,0,0,0,63.46,27.4Z"/><path class="cls-198" d="M46.56,13.57s-3.81.42-5-1.26a4.07,4.07,0,0,1-.68-3A6.74,6.74,0,0,1,42,7.16a.21.21,0,0,0,0-.29L38.62,4.75a.26.26,0,0,0-.31.07s-2.4,3-4.43,2.63-3.28-4-3.28-4a.25.25,0,0,0-.27-.16l-3.87.87a.26.26,0,0,0-.18.26s.42,3.81-1.26,5S19.89,9,19.89,9a.25.25,0,0,0-.31.08l-2.12,3.35a.25.25,0,0,0,.06.31s3,2.39,2.63,4.43-4,3.28-4,3.28a.24.24,0,0,0-.16.27l.87,3.87a.24.24,0,0,0,.26.17s3.81-.41,5,1.27-.48,5.13-.48,5.13a.26.26,0,0,0,.07.31l3.35,2.12a.25.25,0,0,0,.31-.06s2.4-3,4.43-2.63,3.31,4,3.31,4a.25.25,0,0,0,.27.16l3.87-.87a.2.2,0,0,0,.13-.26,6.71,6.71,0,0,1-.35-2.39,4,4,0,0,1,1.66-2.61c1.68-1.19,5.13.48,5.13.48a.25.25,0,0,0,.31-.08l2.11-3.35a.25.25,0,0,0-.06-.31s-3-2.39-2.64-4.43,4-3.28,4-3.28a.25.25,0,0,0,.16-.27l-.87-3.87A.26.26,0,0,0,46.56,13.57ZM36,19.87a4.16,4.16,0,1,1-3.38-4.81A4.15,4.15,0,0,1,36,19.87Z"/><path class="cls-205" d="M5.8,44.17c7.72,0,7.73-12,0-12s-7.74,12,0,12Z"/></svg>