<svg id="Layer_1" data-name="Layer 1" xmlns="http://www.w3.org/2000/svg" xmlns:xlink="http://www.w3.org/1999/xlink" viewBox="0 0 512.01 512"><defs><style>.cls-1{fill:#ebebed;}.cls-2{fill:url(#linear-gradient);}.cls-3{fill:#455a94;}.cls-4{fill:#fff;}.cls-5{fill:url(#linear-gradient-2);}.cls-6{fill:#16365e;}.cls-7{fill:url(#linear-gradient-3);}.cls-8{fill:url(#linear-gradient-4);}.cls-9{fill:url(#linear-gradient-5);}.cls-10{fill:url(#linear-gradient-6);}.cls-11{fill:url(#linear-gradient-7);}.cls-12{fill:url(#linear-gradient-8);}.cls-13{fill:url(#linear-gradient-9);}.cls-14,.cls-39,.cls-57{fill:none;}.cls-15{fill:url(#linear-gradient-10);}.cls-16{fill:url(#linear-gradient-11);}.cls-17{fill:url(#linear-gradient-12);}.cls-18{fill:url(#linear-gradient-13);}.cls-19{fill:url(#linear-gradient-14);}.cls-20{fill:url(#linear-gradient-15);}.cls-21{fill:url(#linear-gradient-16);}.cls-22{fill:url(#linear-gradient-17);}.cls-23{fill:url(#linear-gradient-18);}.cls-24{fill:url(#linear-gradient-19);}.cls-25{fill:url(#linear-gradient-20);}.cls-26{fill:url(#linear-gradient-21);}.cls-27{fill:url(#linear-gradient-22);}.cls-28{fill:url(#linear-gradient-23);}.cls-29{fill:url(#linear-gradient-24);}.cls-30{fill:url(#linear-gradient-25);}.cls-31{fill:url(#linear-gradient-26);}.cls-32{fill:url(#linear-gradient-27);}.cls-33{fill:url(#linear-gradient-28);}.cls-34{fill:url(#linear-gradient-29);}.cls-35{fill:url(#linear-gradient-30);}.cls-36{fill:url(#linear-gradient-31);}.cls-37{fill:url(#linear-gradient-32);}.cls-38{fill:url(#linear-gradient-33);}.cls-39{stroke:#173057;stroke-width:3px;}.cls-39,.cls-57{stroke-miterlimit:10;}.cls-40{fill:#26286b;}.cls-41{fill:url(#linear-gradient-34);}.cls-42{fill:url(#linear-gradient-35);}.cls-43{fill:url(#linear-gradient-36);}.cls-44{fill:url(#linear-gradient-37);}.cls-45{fill:url(#linear-gradient-38);}.cls-46{fill:#cae6ef;}.cls-47{fill:#9e9e9e;}.cls-48{fill:url(#linear-gradient-39);}.cls-49{fill:#f9a3c0;}.cls-50{fill:url(#linear-gradient-40);}.cls-51{fill:url(#linear-gradient-41);}.cls-52{fill:url(#linear-gradient-42);}.cls-53{fill:url(#linear-gradient-43);}.cls-54{fill:url(#linear-gradient-44);}.cls-55{fill:url(#linear-gradient-45);}.cls-56{fill:url(#linear-gradient-46);}.cls-57{stroke:#9e9e9e;}</style><linearGradient id="linear-gradient" x1="362.93" y1="170.78" x2="420.17" y2="170.78" gradientUnits="userSpaceOnUse"><stop offset="0" stop-color="#ee497b"/><stop offset="1" stop-color="#de2263"/></linearGradient><linearGradient id="linear-gradient-2" x1="301.61" y1="53.02" x2="321.41" y2="53.02" gradientUnits="userSpaceOnUse"><stop offset="0" stop-color="#c2ceff"/><stop offset="1" stop-color="#95aaff"/></linearGradient><linearGradient id="linear-gradient-3" x1="295.84" y1="66.83" x2="301.22" y2="66.83" xlink:href="#linear-gradient"/><linearGradient id="linear-gradient-4" x1="295.84" y1="77.14" x2="301.22" y2="77.14" xlink:href="#linear-gradient"/><linearGradient id="linear-gradient-5" x1="295.84" y1="86.63" x2="301.22" y2="86.63" xlink:href="#linear-gradient"/><linearGradient id="linear-gradient-6" x1="295.78" y1="96.25" x2="301.16" y2="96.25" xlink:href="#linear-gradient"/><linearGradient id="linear-gradient-7" x1="193.78" y1="111.8" x2="241.17" y2="111.8" xlink:href="#linear-gradient"/><linearGradient id="linear-gradient-8" x1="187.55" y1="394.35" x2="265.82" y2="394.35" xlink:href="#linear-gradient"/><linearGradient id="linear-gradient-9" x1="391.55" y1="266.4" x2="468.65" y2="266.4" xlink:href="#linear-gradient-2"/><linearGradient id="linear-gradient-10" x1="437.16" y1="138.41" x2="441.2" y2="138.41" gradientUnits="userSpaceOnUse"><stop offset="0" stop-color="#92d2f3"/><stop offset="0.2" stop-color="#77afdd"/><stop offset="0.4" stop-color="#6192cb"/><stop offset="0.61" stop-color="#517dbe"/><stop offset="0.81" stop-color="#4770b6"/><stop offset="1" stop-color="#446cb3"/></linearGradient><linearGradient id="linear-gradient-11" x1="437.13" y1="145.68" x2="441.17" y2="145.68" xlink:href="#linear-gradient-10"/><linearGradient id="linear-gradient-12" x1="437.1" y1="152.96" x2="441.14" y2="152.96" xlink:href="#linear-gradient-10"/><linearGradient id="linear-gradient-13" x1="437.08" y1="160.23" x2="441.12" y2="160.23" xlink:href="#linear-gradient-10"/><linearGradient id="linear-gradient-14" x1="437.05" y1="167.5" x2="441.09" y2="167.5" xlink:href="#linear-gradient-10"/><linearGradient id="linear-gradient-15" x1="437.02" y1="174.77" x2="441.06" y2="174.77" xlink:href="#linear-gradient-10"/><linearGradient id="linear-gradient-16" x1="436.99" y1="182.05" x2="441.03" y2="182.05" xlink:href="#linear-gradient-10"/><linearGradient id="linear-gradient-17" x1="436.96" y1="189.32" x2="441" y2="189.32" xlink:href="#linear-gradient-10"/><linearGradient id="linear-gradient-18" x1="436.93" y1="196.59" x2="440.98" y2="196.59" xlink:href="#linear-gradient-10"/><linearGradient id="linear-gradient-19" x1="436.91" y1="203.87" x2="440.95" y2="203.87" xlink:href="#linear-gradient-10"/><linearGradient id="linear-gradient-20" x1="436.88" y1="211.14" x2="440.92" y2="211.14" xlink:href="#linear-gradient-10"/><linearGradient id="linear-gradient-21" x1="436.85" y1="218.41" x2="440.89" y2="218.41" xlink:href="#linear-gradient-10"/><linearGradient id="linear-gradient-22" x1="429.76" y1="218.59" x2="433.8" y2="218.59" xlink:href="#linear-gradient-10"/><linearGradient id="linear-gradient-23" x1="422.48" y1="218.59" x2="426.52" y2="218.59" xlink:href="#linear-gradient-10"/><linearGradient id="linear-gradient-24" x1="415.21" y1="218.59" x2="419.25" y2="218.59" xlink:href="#linear-gradient-10"/><linearGradient id="linear-gradient-25" x1="407.94" y1="218.59" x2="411.98" y2="218.59" xlink:href="#linear-gradient-10"/><linearGradient id="linear-gradient-26" x1="400.67" y1="218.59" x2="404.71" y2="218.59" xlink:href="#linear-gradient-10"/><linearGradient id="linear-gradient-27" x1="393.39" y1="218.59" x2="397.43" y2="218.59" xlink:href="#linear-gradient-10"/><linearGradient id="linear-gradient-28" x1="386.12" y1="218.59" x2="390.16" y2="218.59" xlink:href="#linear-gradient-10"/><linearGradient id="linear-gradient-29" x1="378.85" y1="218.59" x2="382.89" y2="218.59" xlink:href="#linear-gradient-10"/><linearGradient id="linear-gradient-30" x1="371.57" y1="218.59" x2="375.61" y2="218.59" xlink:href="#linear-gradient-10"/><linearGradient id="linear-gradient-31" x1="364.3" y1="218.59" x2="368.34" y2="218.59" xlink:href="#linear-gradient-10"/><linearGradient id="linear-gradient-32" x1="357.03" y1="218.59" x2="361.07" y2="218.59" xlink:href="#linear-gradient-10"/><linearGradient id="linear-gradient-33" x1="349.76" y1="218.59" x2="353.8" y2="218.59" xlink:href="#linear-gradient-10"/><linearGradient id="linear-gradient-34" x1="362.4" y1="91.82" x2="374.98" y2="91.82" xlink:href="#linear-gradient-10"/><linearGradient id="linear-gradient-35" x1="367.15" y1="101.42" x2="388.56" y2="101.42" xlink:href="#linear-gradient-10"/><linearGradient id="linear-gradient-36" x1="376.63" y1="87.37" x2="389.18" y2="87.37" xlink:href="#linear-gradient"/><linearGradient id="linear-gradient-37" x1="52.92" y1="292.08" x2="73.36" y2="292.08" xlink:href="#linear-gradient"/><linearGradient id="linear-gradient-38" x1="286.58" y1="324.71" x2="304.62" y2="324.71" xlink:href="#linear-gradient"/><linearGradient id="linear-gradient-39" x1="422.71" y1="107.21" x2="455.37" y2="107.21" xlink:href="#linear-gradient"/><linearGradient id="linear-gradient-40" x1="100.15" y1="387.27" x2="127.65" y2="387.27" xlink:href="#linear-gradient"/><linearGradient id="linear-gradient-41" x1="211.35" y1="130.29" x2="223.12" y2="130.29" xlink:href="#linear-gradient"/><linearGradient id="linear-gradient-42" x1="211.35" y1="142.41" x2="223.12" y2="142.41" xlink:href="#linear-gradient"/><linearGradient id="linear-gradient-43" x1="211.35" y1="154.53" x2="223.12" y2="154.53" xlink:href="#linear-gradient"/><linearGradient id="linear-gradient-44" x1="143.92" y1="394.35" x2="150.48" y2="394.35" xlink:href="#linear-gradient"/><linearGradient id="linear-gradient-45" x1="156.04" y1="394.35" x2="162.61" y2="394.35" xlink:href="#linear-gradient"/><linearGradient id="linear-gradient-46" x1="168.16" y1="394.35" x2="174.73" y2="394.35" xlink:href="#linear-gradient"/></defs><title>Universal-Commerce</title><path class="cls-1" d="M488.25,279.09H469.68c-5,0-10.88-4.55-12.79-9.93a145.91,145.91,0,0,0-6.18-14.77c-2.48-5.11-1.56-12.44,2-16l13.22-13.22a23.78,23.78,0,0,0,0-33.59l-21.46-21.46a23.77,23.77,0,0,0-33.59,0l-13.22,13.22c-2.12,2.13-5.66,3.39-9.45,3.39a15,15,0,0,1-6.53-1.4,147.66,147.66,0,0,0-14.79-6.19c-5.38-1.91-9.93-7.77-9.93-12.79V147.79A23.78,23.78,0,0,0,333.2,124H302.85a23.78,23.78,0,0,0-23.75,23.76v18.57c0,5-4.55,10.88-9.93,12.79a147.34,147.34,0,0,0-14.78,6.17,15.14,15.14,0,0,1-6.52,1.4c-3.8,0-7.35-1.27-9.48-3.39l-13.19-13.2a23.76,23.76,0,0,0-33.6,0l-21.48,21.46a23.74,23.74,0,0,0,0,33.59l13.22,13.22c3.55,3.56,4.47,10.88,2,16a147,147,0,0,0-6.17,14.76c-1.91,5.38-7.76,9.93-12.79,9.93H147.8a23.77,23.77,0,0,0-23.75,23.75v30.35a23.77,23.77,0,0,0,23.75,23.75h18.57c5,0,10.88,4.55,12.8,9.93a144.34,144.34,0,0,0,6.17,14.76c2.47,5.11,1.56,12.44-2,16l-13.22,13.22a23.78,23.78,0,0,0,0,33.59l21.48,21.49a23.78,23.78,0,0,0,33.6,0l13.22-13.22c2.12-2.13,5.66-3.4,9.47-3.4a15,15,0,0,1,6.52,1.4,148,148,0,0,0,14.76,6.17c5.38,1.91,9.93,7.77,9.93,12.8v18.57A23.78,23.78,0,0,0,302.85,512H333.2A23.78,23.78,0,0,0,357,488.25V469.68c0-5,4.55-10.89,9.93-12.8a147.34,147.34,0,0,0,14.78-6.17,15.28,15.28,0,0,1,6.52-1.4c3.8,0,7.35,1.27,9.47,3.4l13.22,13.22a23.76,23.76,0,0,0,33.59,0l21.47-21.47a23.81,23.81,0,0,0,0-33.6l-13.21-13.21c-3.56-3.56-4.47-10.88-2-16a148.55,148.55,0,0,0,6.17-14.77c1.9-5.38,7.76-9.92,12.79-9.92h18.57A23.78,23.78,0,0,0,512,333.2V302.85A23.79,23.79,0,0,0,488.25,279.09ZM387.63,318A69.61,69.61,0,1,1,318,248.41,69.68,69.68,0,0,1,387.63,318Z"/><path class="cls-1" d="M174.11,126.7a3.86,3.86,0,0,1,2.65-2.33h9.3a15.86,15.86,0,0,0,15.84-15.84V93.36a15.86,15.86,0,0,0-15.84-15.84h-9.29a3.87,3.87,0,0,1-2.66-2.33,77.54,77.54,0,0,0-3.26-7.78,3.77,3.77,0,0,1,.23-3.47l6.61-6.61a15.87,15.87,0,0,0,0-22.4L167,24.21a15.83,15.83,0,0,0-22.39,0L138,30.82a3.15,3.15,0,0,1-1.93.53,3.74,3.74,0,0,1-1.54-.3,76.21,76.21,0,0,0-7.78-3.26,3.87,3.87,0,0,1-2.34-2.65v-9.3A15.85,15.85,0,0,0,108.54,0H93.36A15.85,15.85,0,0,0,77.53,15.84v9.3a3.88,3.88,0,0,1-2.33,2.65,79.09,79.09,0,0,0-7.79,3.26,3.74,3.74,0,0,1-1.54.3,3.15,3.15,0,0,1-1.93-.53l-6.61-6.61a15.83,15.83,0,0,0-22.39,0L24.21,34.94a15.86,15.86,0,0,0,0,22.39l6.61,6.61a3.77,3.77,0,0,1,.23,3.47,77.54,77.54,0,0,0-3.26,7.78,3.87,3.87,0,0,1-2.65,2.34h-9.3A15.85,15.85,0,0,0,0,93.36v15.18a15.85,15.85,0,0,0,15.83,15.83h9.3a3.87,3.87,0,0,1,2.66,2.33,74.37,74.37,0,0,0,3.26,7.78,3.77,3.77,0,0,1-.23,3.47l-6.61,6.61a15.84,15.84,0,0,0,0,22.4l10.73,10.73a15.85,15.85,0,0,0,22.39,0l6.61-6.62a3.15,3.15,0,0,1,1.93-.53,3.74,3.74,0,0,1,1.54.3,76.37,76.37,0,0,0,7.79,3.26,3.87,3.87,0,0,1,2.33,2.66v9.3a15.85,15.85,0,0,0,15.83,15.83h15.18a15.85,15.85,0,0,0,15.83-15.83v-9.3a3.87,3.87,0,0,1,2.33-2.66,77.63,77.63,0,0,0,7.79-3.25,3.58,3.58,0,0,1,1.54-.31,3.07,3.07,0,0,1,1.93.54l6.61,6.61a15.85,15.85,0,0,0,22.39,0L177.69,167a15.86,15.86,0,0,0,0-22.39L171.08,138a3.81,3.81,0,0,1-.23-3.47A80.76,80.76,0,0,0,174.11,126.7ZM131.8,100.94A30.85,30.85,0,1,1,101,70.1,30.89,30.89,0,0,1,131.8,100.94Z"/><path class="cls-2" d="M369.65,165.41a7.67,7.67,0,0,1-1-3.95,8,8,0,0,1,8.16-7.79h.34c.87-1.9,3.24-3.25,6-3.22,3.11,0,5.68,1.81,6.17,4.1a12.83,12.83,0,0,1,1.65-.09,12,12,0,0,1,5,1.12,6.34,6.34,0,0,1,11.14.66,8.71,8.71,0,0,1,4.66-1.27,8.37,8.37,0,0,1,8.45,8.31,8,8,0,0,1-3.22,6.33,6.31,6.31,0,0,1,1.2,3.75,6.78,6.78,0,0,1-7,6.48,12.46,12.46,0,0,1-2.07-.32c-3,4.84-11.49,2.57-10.76,1.71-9.57,11.25-19.93,9.85-20.17,9.75,4.08-1,6.27-4.3,8-8.36a10.9,10.9,0,0,1-3.55.54,10,10,0,0,1-8-3.94,9.47,9.47,0,0,1-3.27.54c-4.63-.06-8.35-3.34-8.3-7.34C363,168.94,365.85,166.07,369.65,165.41Z"/><path class="cls-3" d="M459.87,322H327.81a3.09,3.09,0,0,0-3.3,3v91.13a3.48,3.48,0,0,0,3.3,3.49H459.87a3.23,3.23,0,0,0,3-3.49V325A2.83,2.83,0,0,0,459.87,322Z"/><path class="cls-4" d="M455,408.39c0,2-.43,2.79-2.3,2.79H335.44c-1.87,0-4.32-.8-4.32-2.79V332.7c0-2,2.45-3.67,4.32-3.67H452.73c1.87,0,2.3,1.69,2.3,3.67Z"/><rect class="cls-3" x="312.27" y="422.63" width="162.29" height="8.08" rx="1.38"/><path class="cls-3" d="M40.23,53.48l0,65a7.38,7.38,0,0,0,7.4,7.4l94.23,0a7.39,7.39,0,0,0,7.41-7.39l0-65a7.41,7.41,0,0,0-7.4-7.4l-94.23-.06A7.41,7.41,0,0,0,40.23,53.48Z"/><path class="cls-4" d="M146.49,86a4.4,4.4,0,1,1-4.4-4.4A4.39,4.39,0,0,1,146.49,86Z"/><rect class="cls-4" x="49.11" y="53.59" width="84.72" height="64.8"/><rect class="cls-3" x="286.83" y="50.14" width="49.63" height="66.17" rx="1.63"/><rect class="cls-4" x="290.72" y="54.28" width="41.75" height="58.59"/><path class="cls-5" d="M315.17,52.31s.14-4.83-3.66-4.83S308,52.31,308,52.31h-6.38v6.24h19.8V52.31Zm-3.66-3.43c2.22,0,2.14,3,2.13,3.43l-4.2,0C309.33,48.67,311.51,48.88,311.51,48.88Z"/><rect class="cls-6" x="304.19" y="67.07" width="22.9" height="0.67"/><rect class="cls-6" x="304.19" y="77.17" width="22.9" height="0.67"/><rect class="cls-6" x="304.19" y="86.6" width="22.9" height="0.67"/><rect class="cls-6" x="304.19" y="96.7" width="22.9" height="0.67"/><path class="cls-7" d="M300.18,65.13l-2.42,2-.81-1a.62.62,0,0,0-.89-.08A.63.63,0,0,0,296,67l1.21,1.45a.63.63,0,0,0,.89.07L301,66.1a.63.63,0,1,0-.81-1Z"/><path class="cls-8" d="M300.18,75.44l-2.42,2-.81-1a.63.63,0,1,0-1,.81l1.21,1.45a.63.63,0,0,0,.89.08l2.9-2.43a.63.63,0,0,0,.08-.89A.62.62,0,0,0,300.18,75.44Z"/><path class="cls-9" d="M300.18,84.93l-2.42,2L297,86a.64.64,0,0,0-.89-.08.63.63,0,0,0-.07.89l1.21,1.45a.63.63,0,0,0,.89.08L301,85.9a.63.63,0,1,0-.81-1Z"/><path class="cls-10" d="M300.13,94.55l-2.42,2-.81-1a.63.63,0,0,0-1,.81l1.22,1.45A.63.63,0,0,0,298,98l2.9-2.44a.64.64,0,0,0,.08-.89A.63.63,0,0,0,300.13,94.55Z"/><path class="cls-3" d="M132,323.74l-65,0a7.39,7.39,0,0,0-7.4,7.4l0,94.24A7.4,7.4,0,0,0,67,432.75l65,0a7.39,7.39,0,0,0,7.4-7.39l.06-94.24A7.4,7.4,0,0,0,132,323.74Z"/><path class="cls-4" d="M99.44,430a4.4,4.4,0,1,1,4.4-4.39A4.39,4.39,0,0,1,99.44,430Z"/><rect class="cls-4" x="67.07" y="332.62" width="64.8" height="84.72"/><path id="MobileMe" class="cls-11" d="M241.17,118.49a9.34,9.34,0,0,1-9.3,9.37H203.08a9.38,9.38,0,0,1-1.46-18.63,6.65,6.65,0,0,1-.09-1,5.92,5.92,0,0,1,5.9-5.94,5.85,5.85,0,0,1,3.81,1.41c1.83-4.16,4.18-8,10.76-8,8,0,11.77,6.2,11.77,12.75,0,.27,0,.55,0,.81A9.36,9.36,0,0,1,241.17,118.49Z"/><path id="MobileMe-2" data-name="MobileMe" class="cls-12" d="M265.82,405.39a15.43,15.43,0,0,1-15.36,15.49H202.91a15.5,15.5,0,0,1-2.41-30.78,9.1,9.1,0,0,1-.15-1.67,9.77,9.77,0,0,1,9.74-9.81,9.63,9.63,0,0,1,6.29,2.33c3-6.86,6.9-13.13,17.77-13.13,13.19,0,19.44,10.25,19.44,21.06,0,.45,0,.9-.05,1.35A15.44,15.44,0,0,1,265.82,405.39Z"/><path id="MobileMe-3" data-name="MobileMe" class="cls-13" d="M391.55,277.27a15.19,15.19,0,0,0,15.14,15.25h46.82a15.26,15.26,0,0,0,2.38-30.31,9.81,9.81,0,0,0,.14-1.64,9.62,9.62,0,0,0-9.59-9.66,9.48,9.48,0,0,0-6.19,2.29c-3-6.76-6.8-12.93-17.51-12.93-13,0-19.14,10.09-19.14,20.74,0,.45,0,.89,0,1.32A15.24,15.24,0,0,0,391.55,277.27Z"/><rect class="cls-14" x="436.85" y="136.43" width="4.04" height="4.04"/><circle class="cls-15" cx="439.18" cy="138.41" r="2.02"/><rect class="cls-14" x="436.85" y="143.84" width="4.04" height="4.04"/><circle class="cls-16" cx="439.15" cy="145.68" r="2.02"/><rect class="cls-14" x="436.85" y="151.25" width="4.04" height="4.04"/><circle class="cls-17" cx="439.12" cy="152.96" r="2.02"/><rect class="cls-14" x="436.85" y="157.98" width="4.04" height="4.04"/><circle class="cls-18" cx="439.1" cy="160.23" r="2.02"/><rect class="cls-14" x="436.85" y="165.39" width="4.04" height="4.04"/><circle class="cls-19" cx="439.07" cy="167.5" r="2.02"/><rect class="cls-14" x="436.85" y="172.8" width="4.04" height="4.04"/><circle class="cls-20" cx="439.04" cy="174.77" r="2.02"/><rect class="cls-14" x="436.85" y="180.21" width="4.04" height="4.04"/><circle class="cls-21" cx="439.01" cy="182.05" r="2.02"/><rect class="cls-14" x="436.85" y="187.61" width="4.04" height="4.04"/><circle class="cls-22" cx="438.98" cy="189.32" r="2.02"/><rect class="cls-14" x="436.85" y="194.35" width="4.04" height="4.04"/><circle class="cls-23" cx="438.95" cy="196.59" r="2.02"/><rect class="cls-14" x="436.85" y="201.76" width="4.04" height="4.04"/><circle class="cls-24" cx="438.93" cy="203.87" r="2.02"/><rect class="cls-14" x="436.85" y="209.16" width="4.04" height="4.04"/><circle class="cls-25" cx="438.9" cy="211.14" r="2.02"/><rect class="cls-14" x="436.85" y="216.57" width="4.04" height="4.04"/><circle class="cls-26" cx="438.87" cy="218.41" r="2.02"/><rect class="cls-14" x="429.44" y="216.57" width="4.04" height="4.04"/><circle class="cls-27" cx="431.78" cy="218.59" r="2.02"/><rect class="cls-14" x="422.71" y="216.57" width="4.04" height="4.04"/><circle class="cls-28" cx="424.5" cy="218.59" r="2.02"/><rect class="cls-14" x="415.3" y="216.57" width="4.04" height="4.04"/><circle class="cls-29" cx="417.23" cy="218.59" r="2.02"/><rect class="cls-14" x="407.89" y="216.57" width="4.04" height="4.04"/><circle class="cls-30" cx="409.96" cy="218.59" r="2.02"/><rect class="cls-14" x="400.49" y="216.57" width="4.04" height="4.04"/><circle class="cls-31" cx="402.69" cy="218.59" r="2.02"/><rect class="cls-14" x="393.08" y="216.57" width="4.04" height="4.04"/><circle class="cls-32" cx="395.41" cy="218.59" r="2.02"/><rect class="cls-14" x="386.34" y="216.57" width="4.04" height="4.04"/><circle class="cls-33" cx="388.14" cy="218.59" r="2.02"/><rect class="cls-14" x="378.94" y="216.57" width="4.04" height="4.04"/><circle class="cls-34" cx="380.87" cy="218.59" r="2.02"/><rect class="cls-14" x="371.53" y="216.57" width="4.04" height="4.04"/><circle class="cls-35" cx="373.59" cy="218.59" r="2.02"/><rect class="cls-14" x="364.12" y="216.57" width="4.04" height="4.04"/><circle class="cls-36" cx="366.32" cy="218.59" r="2.02"/><rect class="cls-14" x="356.71" y="216.57" width="4.04" height="4.04"/><circle class="cls-37" cx="359.05" cy="218.59" r="2.02"/><rect class="cls-14" x="349.98" y="216.57" width="4.04" height="4.04"/><circle class="cls-38" cx="351.78" cy="218.59" r="2.02"/><path class="cls-3" d="M340.93,163.66H182c-2.18,0-4.35,1.26-4.35,3.43v109.7c0,2.18,2.17,3.82,4.35,3.82h59.37s0,10.13.06,10.13h-8.19a3.51,3.51,0,1,0,0,7h58.46a3.51,3.51,0,1,0,0-7h-8.45s-.08-10.13-.08-10.13h57.8c2.18,0,4.3-1.64,4.3-3.82V167.09C345.24,164.92,343.11,163.66,340.93,163.66Z"/><rect class="cls-4" x="185.67" y="170.78" width="152.86" height="94.95" rx="4.14"/><path class="cls-3" d="M456.29,49.81H422.08a5.91,5.91,0,0,0-5.91,5.93v69.45a5.92,5.92,0,0,0,5.91,5.92h34.21a5.93,5.93,0,0,0,5.92-5.92V55.74A5.93,5.93,0,0,0,456.29,49.81Z"/><rect class="cls-4" x="420.6" y="59.81" width="37.17" height="55.88"/><polygon class="cls-4" points="447.12 55.82 431.26 55.82 431.26 54.09 447.12 54.09 447.12 55.82 447.12 55.82"/><path class="cls-4" d="M453.9,55a1.52,1.52,0,1,1-1.52-1.51A1.52,1.52,0,0,1,453.9,55Z"/><rect class="cls-4" x="431.96" y="120.35" width="14.44" height="4.44"/><path class="cls-39" d="M149.31,86.94H235.5s17.17-.67,17.17,16.83v59.6"/><rect class="cls-40" x="147.62" y="80.88" width="4.04" height="10.77"/><rect class="cls-40" x="175.9" y="179.87" width="4.04" height="10.77"/><path class="cls-41" d="M375,93.65V81.09h0a12.56,12.56,0,0,0-8.86,21.45L375,93.65Z"/><path class="cls-42" d="M367.15,104a12.54,12.54,0,0,0,21.41-8.88H376Z"/><path class="cls-43" d="M376.63,81.09V93.65h12.55A12.57,12.57,0,0,0,376.63,81.09Z"/><path class="cls-44" d="M66.31,292.5l7,12.22A14.14,14.14,0,1,1,66.19,278v14.1A.88.88,0,0,0,66.31,292.5Z"/><path class="cls-40" d="M67.82,278v13.36H81.17A13.91,13.91,0,0,0,67.82,278Zm2,2a12.06,12.06,0,0,1,9.31,9.32H69.84Z"/><path class="cls-40" d="M74.89,303.84a14.12,14.12,0,0,0,6.28-10.9H68.6Z"/><path class="cls-40" d="M116.55,207.9a10.79,10.79,0,0,1,5.61-6.11l4.57,9.82Z"/><path class="cls-40" d="M124.59,204.07l4.57,9.82L119,210.18a10.83,10.83,0,1,0,5.61-6.11Z"/><polygon class="cls-40" points="307.8 340.32 307.8 341.91 282.38 341.91 282.38 316.48 283.97 316.48 283.97 340.32 307.8 340.32"/><polygon class="cls-45" points="293.75 325.31 300.24 326.93 302.48 323.19 304.52 324.41 304.63 318.07 299.08 321.15 301.12 322.37 299.48 325.11 293.26 323.55 286.58 330.22 287.71 331.35 293.75 325.31"/><polygon class="cls-40" points="291.91 338.73 295.09 338.73 295.09 327.28 294.23 327.07 291.91 329.39 291.91 338.73"/><polygon class="cls-40" points="287.14 333.03 287.14 338.73 290.32 338.73 290.32 330.98 287.71 333.59 287.14 333.03"/><polygon class="cls-40" points="301.45 328 301.45 338.73 304.63 338.73 304.63 326.33 303.03 325.37 301.45 328"/><polygon class="cls-40" points="299.86 338.73 299.86 328.47 296.68 327.68 296.68 338.73 299.86 338.73"/><path class="cls-39" d="M175.91,185.25h-59.6c-17.51,0-16.84,17.18-16.84,17.18V326.81"/><rect class="cls-40" x="91.73" y="320.61" width="16.16" height="6.06"/><path class="cls-39" d="M328.43,367.41H280.28s-17.17.67-17.17-16.84V291"/><rect class="cls-40" x="321.36" y="361.69" width="5.39" height="12.12"/><rect class="cls-46" x="196.44" y="184.92" width="130.64" height="19.53"/><rect class="cls-46" x="338.53" y="343.84" width="108.87" height="12.46"/><rect class="cls-47" x="338.53" y="360.68" width="109.09" height="6.06"/><rect class="cls-46" x="422.71" y="63.03" width="32.66" height="35.06"/><rect class="cls-48" x="422.71" y="100.95" width="32.66" height="12.52"/><rect class="cls-47" x="195.77" y="249.57" width="97.64" height="6.73"/><rect class="cls-47" x="53.68" y="102.76" width="74.75" height="6.73"/><rect class="cls-47" x="298.13" y="249.57" width="28.28" height="6.73"/><rect class="cls-49" x="196.44" y="208.14" width="28.85" height="20.08"/><rect class="cls-50" x="100.15" y="376.5" width="27.5" height="21.56"/><rect class="cls-49" x="230.37" y="208.14" width="28.85" height="20.08"/><rect class="cls-49" x="264.3" y="208.14" width="28.85" height="20.08"/><rect class="cls-49" x="298.23" y="208.14" width="28.85" height="20.08"/><rect class="cls-40" x="71.19" y="339.8" width="56.57" height="7.41"/><rect class="cls-47" x="71.86" y="401.76" width="56.57" height="2.69"/><rect class="cls-47" x="71.86" y="407.14" width="56.57" height="2.69"/><rect class="cls-46" x="53.46" y="60.44" width="75.7" height="10.81"/><rect class="cls-46" x="71.19" y="350.58" width="26.94" height="22.22"/><polygon class="cls-40" points="349.98 270.94 349.98 259.17 356.55 265.06 349.98 270.94"/><polygon class="cls-40" points="362.1 270.94 362.1 259.17 368.67 265.06 362.1 270.94"/><polygon class="cls-40" points="374.22 270.94 374.22 259.17 380.79 265.06 374.22 270.94"/><polygon class="cls-51" points="211.35 127.01 223.13 127.01 217.24 133.57 211.35 127.01"/><polygon class="cls-52" points="211.35 139.13 223.13 139.13 217.24 145.69 211.35 139.13"/><polygon class="cls-53" points="211.35 151.25 223.13 151.25 217.24 157.81 211.35 151.25"/><polygon class="cls-54" points="143.92 400.24 143.92 388.46 150.48 394.35 143.92 400.24"/><polygon class="cls-55" points="156.04 400.24 156.04 388.46 162.6 394.35 156.04 400.24"/><polygon class="cls-56" points="168.16 400.24 168.16 388.46 174.73 394.35 168.16 400.24"/><path class="cls-40" d="M197.24,55.42h-6.63V64a2.26,2.26,0,0,1-2.25,2.26h-10.2v2.86a1.29,1.29,0,0,0,1.29,1.29h10l4.18,3.5c.55.45.84.27.66-.42l-.82-3.06v0h3.76a1.29,1.29,0,0,0,1.29-1.29V56.7A1.28,1.28,0,0,0,197.24,55.42Z"/><path class="cls-40" d="M170.56,65.25h2v0l-.82,3.06c-.12.43,0,.67.16.67a.88.88,0,0,0,.5-.25l4.18-3.5h11.81A1.29,1.29,0,0,0,189.65,64V51.59a1.29,1.29,0,0,0-1.29-1.29h-17.8a1.29,1.29,0,0,0-1.29,1.29V64A1.29,1.29,0,0,0,170.56,65.25Z"/><path class="cls-4" d="M420.82,280.71A17.79,17.79,0,0,0,425,282.8l.75.26.79.32a19.88,19.88,0,0,0,4.53,1.1,2.44,2.44,0,0,0,2.45-1.41l7.27-19.69a1.91,1.91,0,0,0-1.1-2.46h0a43.25,43.25,0,0,0-4.84-2.07l-.36-.13a40.63,40.63,0,0,0-4.87-1.52,1.93,1.93,0,0,0-2.48,1.14L419.85,278A2.17,2.17,0,0,0,420.82,280.71Zm2.32-6.36.26.27a.72.72,0,0,1,.09.72l-.16.45a.21.21,0,0,1-.32.11l-.34-.22a.35.35,0,0,1-.13-.39l.33-.88C422.92,274.27,423,274.24,423.14,274.35Zm0-.76.32-.87a.16.16,0,0,1,.28-.06l.26.27a.77.77,0,0,1,.09.72l-.17.45a.2.2,0,0,1-.31.1l-.34-.21A.36.36,0,0,1,423.17,273.59Zm-.43,3.92a.21.21,0,0,1-.32.11l-.34-.22A.34.34,0,0,1,422,277l.32-.88a.16.16,0,0,1,.28-.06l.26.28a.77.77,0,0,1,.09.72Zm1.71-2.45.26.27a.77.77,0,0,1,.09.72l-.16.45a.21.21,0,0,1-.32.11l-.34-.22a.36.36,0,0,1-.13-.4l.32-.87A.16.16,0,0,1,424.45,275.06Zm0-.76.33-.88c.05-.14.17-.16.27-.05l.26.27a.74.74,0,0,1,.1.72l-.17.45a.21.21,0,0,1-.32.1l-.33-.21A.35.35,0,0,1,424.47,274.3Zm-.43,3.92a.21.21,0,0,1-.32.11l-.33-.22a.34.34,0,0,1-.14-.39l.33-.88c.05-.14.17-.16.28-.06l.26.27a.78.78,0,0,1,.09.72C424.12,278,424,278.22,424,278.22Zm1.74-2.49.26.27a.77.77,0,0,1,.09.72l-.16.45a.21.21,0,0,1-.32.1l-.34-.21a.36.36,0,0,1-.13-.4l.32-.88A.15.15,0,0,1,425.78,275.73Zm0-.76.33-.88c.05-.14.17-.16.28-.06l.26.27a.77.77,0,0,1,.09.72l-.17.45a.21.21,0,0,1-.32.11l-.33-.22A.34.34,0,0,1,425.8,275Zm-.43,3.92a.2.2,0,0,1-.31.11l-.34-.22a.32.32,0,0,1-.13-.39l.32-.88a.15.15,0,0,1,.28-.06l.26.27a.77.77,0,0,1,.09.72C425.45,278.69,425.37,278.89,425.37,278.89Zm1.77-2.53.25.27a.74.74,0,0,1,.1.72l-.17.45a.21.21,0,0,1-.32.1l-.33-.21a.35.35,0,0,1-.14-.4l.33-.88C426.91,276.27,427,276.25,427.14,276.36Zm0-.76.32-.88a.16.16,0,0,1,.28-.06l.26.27a.77.77,0,0,1,.09.72l-.16.45a.21.21,0,0,1-.32.11l-.34-.22A.35.35,0,0,1,427.16,275.6Zm-.43,3.92a.21.21,0,0,1-.32.11l-.34-.22a.36.36,0,0,1-.13-.4l.32-.87c.06-.14.18-.17.28-.06l.26.27a.74.74,0,0,1,.09.72Zm1.73-5.9a.72.72,0,0,1,1.36.5.72.72,0,1,1-1.36-.5Zm-.23,6.24a.34.34,0,0,1-.36.21l-.39-.05a.2.2,0,0,1-.17-.29l.16-.45a.75.75,0,0,1,.54-.48l.37,0c.15,0,.23.08.18.22Zm.67-1.7a.35.35,0,0,1-.36.22l-.39-.06A.2.2,0,0,1,428,278l.17-.45a.75.75,0,0,1,.54-.49l.37,0c.15,0,.23.09.18.23l-.33.87Zm.63-1.69a.33.33,0,0,1-.36.21l-.4-.05a.21.21,0,0,1-.17-.29l.17-.45a.74.74,0,0,1,.53-.48l.38,0c.14,0,.22.08.17.22l-.32.88Zm.14,3.79a.35.35,0,0,1-.36.22l-.39-.06a.21.21,0,0,1-.18-.29l.17-.45a.76.76,0,0,1,.54-.48l.37,0c.15,0,.23.09.18.22l-.33.88Zm.67-1.69a.34.34,0,0,1-.36.21l-.39,0a.21.21,0,0,1-.18-.29l.17-.45a.75.75,0,0,1,.54-.49l.37,0c.15,0,.22.09.17.23l-.32.88Zm.62-1.7a.35.35,0,0,1-.35.22l-.4-.06a.2.2,0,0,1-.17-.28l.17-.45a.75.75,0,0,1,.53-.49l.38,0a.15.15,0,0,1,.17.22l-.32.88Zm.16,3.75a.37.37,0,0,1-.36.22l-.4-.06a.21.21,0,0,1-.17-.29l.17-.45a.76.76,0,0,1,.53-.48l.38,0a.15.15,0,0,1,.17.22Zm.66-1.69a.35.35,0,0,1-.35.21l-.4-.05a.21.21,0,0,1-.17-.29l.16-.45a.79.79,0,0,1,.54-.49l.38,0a.16.16,0,0,1,.17.23l-.33.88Zm.63-1.7a.35.35,0,0,1-.36.22l-.39-.06a.21.21,0,0,1-.18-.29l.17-.45a.76.76,0,0,1,.54-.48l.37,0c.15,0,.22.08.17.22l-.32.88Zm.16,3.7a.35.35,0,0,1-.36.22l-.4-.06a.21.21,0,0,1-.17-.29l.17-.45a.76.76,0,0,1,.54-.48l.37,0c.15,0,.22.09.17.22l-.32.88Zm.67-1.69a.36.36,0,0,1-.36.21l-.4-.05a.21.21,0,0,1-.17-.29l.17-.45a.75.75,0,0,1,.54-.49l.37,0c.15,0,.22.09.17.23l-.32.88Zm.62-1.7a.35.35,0,0,1-.35.22l-.4-.06a.21.21,0,0,1-.17-.29l.16-.45a.77.77,0,0,1,.54-.48l.37,0c.15,0,.23.09.18.22l-.33.88Zm-1.36-17.3,2.95,1.09a.2.2,0,0,1,.12.27.2.2,0,0,1-.27.13l-2.95-1.09a.21.21,0,0,1-.13-.27A.23.23,0,0,1,432.5,260.24Zm-5.05,1.1,11.12,4.1L435.41,274l-11.12-4.1Z"/><path class="cls-4" d="M227.37,116.28h-.67a.55.55,0,0,1-.47-.36,4.16,4.16,0,0,0-.23-.54.55.55,0,0,1,.08-.58l.48-.48a.86.86,0,0,0,0-1.22l-.78-.79a.88.88,0,0,0-1.23,0l-.48.49a.5.5,0,0,1-.34.12.6.6,0,0,1-.24,0,5.15,5.15,0,0,0-.54-.23.56.56,0,0,1-.36-.46v-.68a.86.86,0,0,0-.86-.86h-1.11a.85.85,0,0,0-.86.86v.68a.56.56,0,0,1-.37.46,5,5,0,0,0-.53.23.64.64,0,0,1-.24,0,.55.55,0,0,1-.35-.12l-.48-.49a.87.87,0,0,0-1.22,0l-.78.79a.92.92,0,0,0-.26.61.83.83,0,0,0,.26.61l.48.48a.55.55,0,0,1,.07.58c-.08.18-.16.36-.22.54a.56.56,0,0,1-.47.36H215a.87.87,0,0,0-.87.87v1.1a.87.87,0,0,0,.87.87h.67a.56.56,0,0,1,.47.36c.06.18.14.36.22.54a.55.55,0,0,1-.07.58l-.48.48a.86.86,0,0,0,0,1.22l.78.78a.85.85,0,0,0,1.22,0l.48-.48a.55.55,0,0,1,.35-.12.6.6,0,0,1,.24,0,5,5,0,0,0,.53.23.55.55,0,0,1,.37.46v.68a.86.86,0,0,0,.86.86h1.11a.87.87,0,0,0,.86-.86v-.68a.55.55,0,0,1,.36-.46,5.15,5.15,0,0,0,.54-.23.6.6,0,0,1,.24,0,.5.5,0,0,1,.34.12l.48.48a.86.86,0,0,0,1.23,0l.78-.78a.86.86,0,0,0,0-1.22l-.48-.48A.55.55,0,0,1,226,120c.08-.18.16-.36.22-.54a.55.55,0,0,1,.47-.36h.67a.87.87,0,0,0,.87-.87v-1.1A.87.87,0,0,0,227.37,116.28Zm-3.66,1.42a2.54,2.54,0,1,1-2.54-2.54A2.54,2.54,0,0,1,223.71,117.7Z"/><path class="cls-4" d="M215.93,110.73a.15.15,0,0,1,.1-.08h.34a.58.58,0,0,0,.58-.58v-.55a.58.58,0,0,0-.58-.58H216a.15.15,0,0,1-.1-.08,1.78,1.78,0,0,0-.12-.29.16.16,0,0,1,0-.12l.24-.24a.57.57,0,0,0,0-.82l-.39-.39a.56.56,0,0,0-.4-.17.57.57,0,0,0-.41.17l-.24.24-.07,0h-.06l-.28-.12a.13.13,0,0,1-.09-.09v-.34a.58.58,0,0,0-.57-.58H213a.58.58,0,0,0-.57.58V107a.13.13,0,0,1-.09.09l-.28.12H212l-.07,0-.24-.24a.57.57,0,0,0-.41-.17.56.56,0,0,0-.4.17l-.39.39a.57.57,0,0,0,0,.82l.24.24a.13.13,0,0,1,0,.12c0,.1-.08.19-.11.29a.18.18,0,0,1-.1.08h-.34a.58.58,0,0,0-.58.58v.55a.58.58,0,0,0,.58.58h.34a.18.18,0,0,1,.1.08c0,.1.07.19.11.29a.13.13,0,0,1,0,.12l-.24.24a.58.58,0,0,0-.17.41.57.57,0,0,0,.17.41l.39.39a.56.56,0,0,0,.4.17.57.57,0,0,0,.41-.17l.24-.24.07,0h.06a1.69,1.69,0,0,0,.28.12.14.14,0,0,1,.09.1v.33a.58.58,0,0,0,.57.58h.56a.58.58,0,0,0,.57-.58v-.33a.14.14,0,0,1,.09-.1,1.69,1.69,0,0,0,.28-.12h.06l.07,0,.24.24a.57.57,0,0,0,.41.17.56.56,0,0,0,.4-.17l.39-.39a.57.57,0,0,0,0-.82l-.24-.24a.15.15,0,0,1,0-.12A1.78,1.78,0,0,0,215.93,110.73Zm-1.54-.93a1.12,1.12,0,1,1-1.12-1.13A1.12,1.12,0,0,1,214.39,109.8Z"/><line class="cls-57" x1="196.44" y1="231.72" x2="218.67" y2="231.72"/><line class="cls-57" x1="196.44" y1="234.42" x2="218.67" y2="234.42"/><line class="cls-57" x1="196.44" y1="237.11" x2="215.97" y2="237.11"/><line class="cls-57" x1="196.44" y1="239.8" x2="222.71" y2="239.8"/><line class="cls-57" x1="196.44" y1="242.5" x2="221.36" y2="242.5"/><line class="cls-57" x1="196.44" y1="245.19" x2="225.4" y2="245.19"/><line class="cls-57" x1="264.46" y1="231.72" x2="286.68" y2="231.72"/><line class="cls-57" x1="264.46" y1="234.42" x2="286.68" y2="234.42"/><line class="cls-57" x1="264.46" y1="237.11" x2="290.72" y2="237.11"/><line class="cls-57" x1="264.46" y1="239.8" x2="293.41" y2="239.8"/><line class="cls-57" x1="264.46" y1="242.5" x2="289.37" y2="242.5"/><line class="cls-57" x1="264.46" y1="245.19" x2="293.41" y2="245.19"/><line class="cls-57" x1="230.11" y1="231.72" x2="259.07" y2="231.72"/><line class="cls-57" x1="230.11" y1="234.42" x2="255.7" y2="234.42"/><line class="cls-57" x1="230.11" y1="237.11" x2="249.64" y2="237.11"/><line class="cls-57" x1="230.11" y1="239.8" x2="259.07" y2="239.8"/><line class="cls-57" x1="230.11" y1="242.5" x2="259.07" y2="242.5"/><line class="cls-57" x1="230.11" y1="245.19" x2="259.07" y2="245.19"/><line class="cls-57" x1="100.15" y1="350.91" x2="127.76" y2="350.91"/><line class="cls-57" x1="100.15" y1="353.61" x2="127.76" y2="353.61"/><line class="cls-57" x1="100.15" y1="356.3" x2="127.76" y2="356.3"/><line class="cls-57" x1="100.15" y1="359" x2="127.76" y2="359"/><line class="cls-57" x1="100.15" y1="361.69" x2="127.76" y2="361.69"/><line class="cls-57" x1="100.15" y1="364.38" x2="127.76" y2="364.38"/><line class="cls-57" x1="100.15" y1="367.08" x2="127.76" y2="367.08"/><line class="cls-57" x1="100.15" y1="369.77" x2="127.76" y2="369.77"/><line class="cls-57" x1="100.15" y1="372.46" x2="127.76" y2="372.46"/><line class="cls-57" x1="53.68" y1="76.16" x2="77.25" y2="76.16"/><line class="cls-57" x1="53.68" y1="78.86" x2="77.25" y2="78.86"/><line class="cls-57" x1="53.68" y1="81.55" x2="77.25" y2="81.55"/><line class="cls-57" x1="53.68" y1="84.25" x2="77.25" y2="84.25"/><line class="cls-57" x1="53.68" y1="86.94" x2="77.25" y2="86.94"/><line class="cls-57" x1="53.68" y1="89.63" x2="77.25" y2="89.63"/><line class="cls-57" x1="53.68" y1="92.33" x2="77.25" y2="92.33"/><line class="cls-57" x1="53.68" y1="95.02" x2="77.25" y2="95.02"/><line class="cls-57" x1="53.68" y1="97.71" x2="77.25" y2="97.71"/><line class="cls-57" x1="80.62" y1="76.16" x2="102.17" y2="76.16"/><line class="cls-57" x1="80.62" y1="78.86" x2="102.17" y2="78.86"/><line class="cls-57" x1="80.62" y1="81.55" x2="102.17" y2="81.55"/><line class="cls-57" x1="80.62" y1="84.25" x2="102.17" y2="84.25"/><line class="cls-57" x1="80.62" y1="86.94" x2="102.17" y2="86.94"/><line class="cls-57" x1="80.62" y1="89.63" x2="102.17" y2="89.63"/><line class="cls-57" x1="80.62" y1="92.33" x2="102.17" y2="92.33"/><line class="cls-57" x1="80.62" y1="95.02" x2="102.17" y2="95.02"/><line class="cls-57" x1="80.62" y1="97.71" x2="102.17" y2="97.71"/><line class="cls-57" x1="338.53" y1="371.12" x2="372.2" y2="371.12"/><line class="cls-57" x1="338.53" y1="373.81" x2="372.2" y2="373.81"/><line class="cls-57" x1="338.53" y1="376.5" x2="372.2" y2="376.5"/><line class="cls-57" x1="338.53" y1="379.2" x2="372.2" y2="379.2"/><line class="cls-57" x1="338.53" y1="381.89" x2="372.2" y2="381.89"/><line class="cls-57" x1="338.53" y1="384.58" x2="372.2" y2="384.58"/><line class="cls-57" x1="338.53" y1="387.28" x2="372.2" y2="387.28"/><line class="cls-57" x1="338.53" y1="389.97" x2="372.2" y2="389.97"/><line class="cls-57" x1="338.53" y1="392.67" x2="372.2" y2="392.67"/><line class="cls-57" x1="376.24" y1="371.12" x2="409.91" y2="371.12"/><line class="cls-57" x1="376.24" y1="373.81" x2="409.91" y2="373.81"/><line class="cls-57" x1="376.24" y1="376.5" x2="409.91" y2="376.5"/><line class="cls-57" x1="376.24" y1="379.2" x2="409.91" y2="379.2"/><line class="cls-57" x1="376.24" y1="381.89" x2="409.91" y2="381.89"/><line class="cls-57" x1="376.24" y1="384.58" x2="409.91" y2="384.58"/><line class="cls-57" x1="376.24" y1="387.28" x2="409.91" y2="387.28"/><line class="cls-57" x1="376.24" y1="389.97" x2="409.91" y2="389.97"/><line class="cls-57" x1="376.24" y1="392.67" x2="409.91" y2="392.67"/><line class="cls-57" x1="413.95" y1="371.12" x2="447.62" y2="371.12"/><line class="cls-57" x1="413.95" y1="373.81" x2="447.62" y2="373.81"/><line class="cls-57" x1="413.95" y1="376.5" x2="447.62" y2="376.5"/><line class="cls-57" x1="413.95" y1="379.2" x2="447.62" y2="379.2"/><line class="cls-57" x1="413.95" y1="381.89" x2="447.62" y2="381.89"/><line class="cls-57" x1="413.95" y1="384.58" x2="447.62" y2="384.58"/><line class="cls-57" x1="413.95" y1="387.28" x2="447.62" y2="387.28"/><line class="cls-57" x1="413.95" y1="389.97" x2="447.62" y2="389.97"/><line class="cls-57" x1="413.95" y1="392.67" x2="447.62" y2="392.67"/><line class="cls-57" x1="105.53" y1="76.16" x2="128.43" y2="76.16"/><line class="cls-57" x1="105.53" y1="78.86" x2="128.43" y2="78.86"/><line class="cls-57" x1="105.53" y1="81.55" x2="128.43" y2="81.55"/><line class="cls-57" x1="105.53" y1="84.25" x2="128.43" y2="84.25"/><line class="cls-57" x1="105.53" y1="86.94" x2="128.43" y2="86.94"/><line class="cls-57" x1="105.53" y1="89.63" x2="128.43" y2="89.63"/><line class="cls-57" x1="105.53" y1="92.33" x2="128.43" y2="92.33"/><line class="cls-57" x1="105.53" y1="95.02" x2="128.43" y2="95.02"/><line class="cls-57" x1="105.53" y1="97.71" x2="128.43" y2="97.71"/><line class="cls-57" x1="71.86" y1="376.5" x2="98.13" y2="376.5"/><line class="cls-57" x1="71.86" y1="379.2" x2="98.13" y2="379.2"/><line class="cls-57" x1="71.86" y1="381.89" x2="98.13" y2="381.89"/><line class="cls-57" x1="71.86" y1="384.58" x2="98.13" y2="384.58"/><line class="cls-57" x1="71.86" y1="387.28" x2="98.13" y2="387.28"/><line class="cls-57" x1="71.86" y1="389.97" x2="98.13" y2="389.97"/><line class="cls-57" x1="71.86" y1="392.67" x2="98.13" y2="392.67"/><line class="cls-57" x1="71.86" y1="395.36" x2="98.13" y2="395.36"/><line class="cls-57" x1="71.86" y1="398.05" x2="98.13" y2="398.05"/><path class="cls-40" d="M175.41,322.34l5.47-6.89a12,12,0,0,0,4,3.16l-5.47,6.89a2.54,2.54,0,0,1-4-3.16Z"/><path class="cls-40" d="M191.23,318.06A10.17,10.17,0,1,0,180,309.12,10.17,10.17,0,0,0,191.23,318.06Zm-8.74-9.23a7.63,7.63,0,1,1,8.45,6.7A7.64,7.64,0,0,1,182.49,308.83Z"/><path class="cls-40" d="M196,307.27l-1.68.2a4.26,4.26,0,0,0-4.7-3.73l-.19-1.68A5.93,5.93,0,0,1,196,307.27Z"/><path class="cls-4" d="M214.8,390.71a5.28,5.28,0,1,1,5.28,5.27A5.27,5.27,0,0,1,214.8,390.71Zm7.81,11.91a4.86,4.86,0,0,1,.85-6.17,6.15,6.15,0,0,0-1.15-.11h-4.47a6.76,6.76,0,0,0-6.75,6.75v5.56l.38.12a31.44,31.44,0,0,0,8.09,1.46v-2.5A5.83,5.83,0,0,1,222.61,402.62Zm12-6.64a5.27,5.27,0,1,0-5.27-5.27A5.27,5.27,0,0,0,234.64,396Zm2.24.36H232.4a6.65,6.65,0,0,0-2.1.34,4.86,4.86,0,0,1,.61,5.94,5.83,5.83,0,0,1,3,5.11v2.49l1.27,0a18.9,18.9,0,0,0,8-1.5l.35-.18h0v-5.48A6.76,6.76,0,0,0,236.88,396.34Zm-13.39,3.89a3.27,3.27,0,1,0,3.27-3.27A3.27,3.27,0,0,0,223.49,400.23Zm4.66,3.49h-2.78a4.2,4.2,0,0,0-4.19,4.19v3.45l.24.07a19,19,0,0,0,5.69.92,11.53,11.53,0,0,0,5-.94l.22-.11h0v-3.39A4.2,4.2,0,0,0,228.15,403.72Z"/><path class="cls-40" d="M61.39,150.31c-12.07,0-21.85,7.94-21.85,17.75s9.78,17.75,21.85,17.75a27.22,27.22,0,0,0,3.4-.22c4.69,4.69,10.29,5.53,15.71,5.66V190.1c-2.92-1.43-5.46-4-5.46-7a8.28,8.28,0,0,1,.09-1.23c4.94-3.25,8.1-8.22,8.1-13.79C83.23,158.25,73.45,150.31,61.39,150.31Z"/><path class="cls-4" d="M67.13,164.25l-.84.29L65.42,162a5.12,5.12,0,1,0-9.66,3.36l.88,2.51-.92.32a1.21,1.21,0,0,0-.71,1.22L58.34,179c.14.39.78.26,1.18.13l11.41-4c.4-.14.42-.23.28-.63L67.88,165C67.74,164.58,67.53,164.11,67.13,164.25Zm-2.77,1-5.79,2-.87-2.51a3.07,3.07,0,1,1,5.79-2Z"/><path class="cls-4" d="M392.05,171.61l-2.39-2.09-6.85,5.87a1.39,1.39,0,0,0,.95.37h16.58a1.39,1.39,0,0,0,1-.37l-6.84-5.87Z"/><path class="cls-4" d="M401.29,162.31a1.4,1.4,0,0,0-1-.38H383.76a1.42,1.42,0,0,0-.95.38l9.24,7.92Z"/><polygon class="cls-4" points="382.37 163.15 382.37 174.63 389.06 168.96 382.37 163.15"/><polygon class="cls-4" points="395.05 168.96 401.73 174.63 401.73 163.14 395.05 168.96"/></svg>