<svg id="Layer_1" data-name="Layer 1" xmlns="http://www.w3.org/2000/svg" xmlns:xlink="http://www.w3.org/1999/xlink" viewBox="0 0 591.46 574.56"><defs><style>.cls-1{fill:#fff;}.cls-1,.cls-11,.cls-12,.cls-16,.cls-19,.cls-2,.cls-20,.cls-21,.cls-22,.cls-27,.cls-28,.cls-30,.cls-31,.cls-36,.cls-39,.cls-4,.cls-40,.cls-41,.cls-43,.cls-45,.cls-48,.cls-6,.cls-8{fill-rule:evenodd;}.cls-2,.cls-25{fill:#f4f8ff;}.cls-3{fill:#f8faff;}.cls-10,.cls-4{fill:#455a94;}.cls-5{mask:url(#mask);}.cls-6{fill:#d9e0ff;}.cls-7{mask:url(#mask-3);}.cls-8{fill:url(#linear-gradient);}.cls-14,.cls-15,.cls-17,.cls-35,.cls-37,.cls-44,.cls-47,.cls-51,.cls-9{fill:none;}.cls-9{stroke:#455a94;stroke-width:3px;}.cls-15,.cls-17,.cls-9{stroke-linecap:round;}.cls-11{fill:url(#linear-gradient-2);}.cls-12{fill:url(#linear-gradient-3);}.cls-13,.cls-43{fill:#a1a7ff;}.cls-14{stroke:#ff85a1;stroke-miterlimit:10;}.cls-15,.cls-51{stroke:#0b1f6e;stroke-width:2px;}.cls-16{fill:url(#linear-gradient-4);}.cls-17{stroke:#36c39c;stroke-width:5px;}.cls-18{fill:#3c3f4d;}.cls-19,.cls-26{fill:#fa3e6a;}.cls-20,.cls-23{fill:#ff85a1;}.cls-21{fill:#bc9314;}.cls-22{fill:#ffb91f;}.cls-24{mask:url(#mask-7);}.cls-27{fill:#2e3c72;}.cls-28{fill:#f4bcc1;}.cls-29{mask:url(#mask-10);}.cls-30{fill:#fd9493;}.cls-31{fill:#ffc6cb;}.cls-32{mask:url(#mask-11);}.cls-33{mask:url(#mask-12);}.cls-34{mask:url(#mask-13);}.cls-35{stroke:#fd9493;}.cls-36{fill:#1f2a54;}.cls-37,.cls-44{stroke:#022329;}.cls-37{stroke-width:4px;}.cls-38{mask:url(#mask-18);}.cls-39{fill:#352324;}.cls-40{fill:#553d3f;}.cls-41{fill:#8f4447;}.cls-42{mask:url(#mask-19);}.cls-45{fill:#435da8;}.cls-46{fill:url(#linear-gradient-5);}.cls-47{stroke:#29365a;stroke-width:0.7px;}.cls-48{fill:#8598cc;}.cls-49{fill:url(#linear-gradient-6);}.cls-50{mask:url(#mask-20);}.cls-52{fill:url(#linear-gradient-7);}.cls-53{mask:url(#mask-21);}.cls-54{fill:url(#linear-gradient-8);}.cls-55{mask:url(#mask-22);}</style><mask id="mask" x="92.82" y="86.04" width="249.82" height="456.97" maskUnits="userSpaceOnUse"><g id="scene-17-d"><path id="scene-17-c" class="cls-1" d="M117.5,86H318c13.63,0,24.68,10.7,24.68,23.9V519.11c0,13.2-11.05,23.9-24.68,23.9H117.5c-13.63,0-24.68-10.7-24.68-23.9V109.94C92.82,96.74,103.87,86,117.5,86Z"/></g></mask><mask id="mask-3" x="92.82" y="86.04" width="262.19" height="456.97" maskUnits="userSpaceOnUse"><g id="scene-17-d-3" data-name="scene-17-d"><path id="scene-17-c-3" data-name="scene-17-c" class="cls-1" d="M117.5,86H318c13.63,0,24.68,10.7,24.68,23.9V519.11c0,13.2-11.05,23.9-24.68,23.9H117.5c-13.63,0-24.68-10.7-24.68-23.9V109.94C92.82,96.74,103.87,86,117.5,86Z"/></g></mask><linearGradient id="linear-gradient" x1="-36.92" y1="859.02" x2="-36.92" y2="858.06" gradientTransform="matrix(249.58, 0, 0, -478, 9445.17, 410697.9)" gradientUnits="userSpaceOnUse"><stop offset="0" stop-color="#c2ceff"/><stop offset="1" stop-color="#95aaff"/></linearGradient><linearGradient id="linear-gradient-2" x1="-36.9" y1="859" x2="-36.9" y2="858.04" gradientTransform="matrix(219.95, 0, 0, -442.72, 8340.64, 380403.16)" gradientUnits="userSpaceOnUse"><stop offset="0" stop-color="#fcfcff"/><stop offset="1" stop-color="#ebefff"/></linearGradient><linearGradient id="linear-gradient-3" x1="-36.89" y1="857.7" x2="-36.89" y2="856.74" gradientTransform="matrix(208.55, 0, 0, -78.53, 7918.65, 67671.26)" gradientUnits="userSpaceOnUse"><stop offset="0" stop-color="#d3e2f9"/><stop offset="1" stop-color="#b4c8e8"/></linearGradient><linearGradient id="linear-gradient-4" x1="-36.89" y1="857.75" x2="-36.89" y2="856.8" gradientTransform="matrix(208.55, 0, 0, -78.53, 7918.65, 67762.26)" xlink:href="#linear-gradient-3"/><mask id="mask-7" x="130.97" y="128.11" width="251.79" height="149.14" maskUnits="userSpaceOnUse"><g id="scene-17-l"><path id="scene-17-j" class="cls-1" d="M137.88,128.11h238a6.8,6.8,0,0,1,6.91,6.69V270.55a6.8,6.8,0,0,1-6.91,6.69h-238a6.8,6.8,0,0,1-6.91-6.69V134.8A6.8,6.8,0,0,1,137.88,128.11Z"/></g></mask><mask id="mask-10" x="364.43" y="369.29" width="127.13" height="60.82" maskUnits="userSpaceOnUse"><g id="scene-17-n"><path id="scene-17-m" class="cls-1" d="M490.82,370q-6,54-24.19,51.14c-18.14-2.87-76.32-19.5-99.67,9q-4.27.66-1.32-8.64t16.47-25q14.33,4.32,47.54-3.8l28-4.62,1.68-18.69Z"/></g></mask><mask id="mask-11" x="338.68" y="179.01" width="212.45" height="196.5" maskUnits="userSpaceOnUse"><g id="scene-17-p"><path id="scene-17-o" class="cls-1" d="M429.46,193q-30,12.51-30,22.34c0,9.83,11.21,38.16,11.21,42.78a72.7,72.7,0,0,1-7.36-5.35c-13.93-12.23-21-18.8-22.75-19.85-2.16-1.3-6.94-5.43-12.34-3.73S353.46,231,352.78,231s-2.89,1.31-1.44,3q1.44,1.68,10.69,1.22a5.67,5.67,0,0,1-2.75,4.32c-2.43,1.54-3.53,4.47-4.1,4.74s-6.77,3.63-11.73,4.8c-3.31.78-4.89,2.09-4.76,3.92l2.85-.25c-.07.72.54,1,1.85.95,1.95-.13,11.74-2.35,15.35-4.62a73.28,73.28,0,0,0,7.26-3.3c5.51-2.72,8.17-5.23,10.89-3.88s21.14,28.74,35.85,37.77,13.89,5.11,15.46,3.52,4.13-3.27,3.56-7.47q-.57-4.2-8.07-38.11,13.9,11.84,16.64,21.72-18,68.4-19.8,111.17,27.51,7.78,46.13,3.41c18.62-4.37,29.22,1.55,46.21-3.41q17-5,24.35-12.62-29.73-82.53-41.42-95.48a10.64,10.64,0,0,0,4.33-5.25c.75-1.66,5.7-10.42,8.73-21,3.88-13.59,6.15-29.68,8.95-32q18.29-6.9,19.17-7.59c.59-.47,2.12-1.74,4.6-3.83q7.15-2.46,9.55-2.46a2.05,2.05,0,0,0-1.8-1.93,9.22,9.22,0,0,0-3.23,0c1.41-1.16,2.11-2.15,2.11-2.94,0-1.2-1.85-.91-3.51.73q-11.7,1.49-13.77,1.17a54.41,54.41,0,0,0-9.19.22,9.36,9.36,0,0,1,5.23-3.22c2.89-.58,5.9-3.48,4.4-4.7s-3.83-.27-9.28,2.4S512,187.6,511.27,192.66q-2.86,7.6-4.49,13.33c-1.63,5.71-9.47,25.93-12.25,28q-8.61-22-10.59-34.68c-2-12.7-10-17.74-18.6-16.43-3.79.58-9.65,4.54-18.88,7.29Q441.72,191.61,429.46,193Z"/></g></mask><mask id="mask-12" x="408.67" y="182.23" width="82.19" height="78.6" maskUnits="userSpaceOnUse"><g id="scene-17-r"><path id="scene-17-q" class="cls-1" d="M408.67,203.25q17.56,3.27,12.88,27,1,3.38,2.22,7.87l15.77,21.16q25.21-11.43,50.66-5.71-5.37-15.06-4.95-22.31c.42-7.25,1.84-20.19-6.14-26.63q-4.77-20.52-10.74-22.16t-40.32,9.12Z"/></g></mask><mask id="mask-13" x="338.68" y="179.01" width="212.45" height="198.67" maskUnits="userSpaceOnUse"><g id="scene-17-p-2" data-name="scene-17-p"><path id="scene-17-o-2" data-name="scene-17-o" class="cls-1" d="M429.46,193q-30,12.51-30,22.34c0,9.83,11.21,38.16,11.21,42.78a72.7,72.7,0,0,1-7.36-5.35c-13.93-12.23-21-18.8-22.75-19.85-2.16-1.3-6.94-5.43-12.34-3.73S353.46,231,352.78,231s-2.89,1.31-1.44,3q1.44,1.68,10.69,1.22a5.67,5.67,0,0,1-2.75,4.32c-2.43,1.54-3.53,4.47-4.1,4.74s-6.77,3.63-11.73,4.8c-3.31.78-4.89,2.09-4.76,3.92l2.85-.25c-.07.72.54,1,1.85.95,1.95-.13,11.74-2.35,15.35-4.62a73.28,73.28,0,0,0,7.26-3.3c5.51-2.72,8.17-5.23,10.89-3.88s21.14,28.74,35.85,37.77,13.89,5.11,15.46,3.52,4.13-3.27,3.56-7.47q-.57-4.2-8.07-38.11,13.9,11.84,16.64,21.72-18,68.4-19.8,111.17,27.51,7.78,46.13,3.41c18.62-4.37,29.22,1.55,46.21-3.41q17-5,24.35-12.62-29.73-82.53-41.42-95.48a10.64,10.64,0,0,0,4.33-5.25c.75-1.66,5.7-10.42,8.73-21,3.88-13.59,6.15-29.68,8.95-32q18.29-6.9,19.17-7.59c.59-.47,2.12-1.74,4.6-3.83q7.15-2.46,9.55-2.46a2.05,2.05,0,0,0-1.8-1.93,9.22,9.22,0,0,0-3.23,0c1.41-1.16,2.11-2.15,2.11-2.94,0-1.2-1.85-.91-3.51.73q-11.7,1.49-13.77,1.17a54.41,54.41,0,0,0-9.19.22,9.36,9.36,0,0,1,5.23-3.22c2.89-.58,5.9-3.48,4.4-4.7s-3.83-.27-9.28,2.4S512,187.6,511.27,192.66q-2.86,7.6-4.49,13.33c-1.63,5.71-9.47,25.93-12.25,28q-8.61-22-10.59-34.68c-2-12.7-10-17.74-18.6-16.43-3.79.58-9.65,4.54-18.88,7.29Q441.72,191.61,429.46,193Z"/></g></mask><mask id="mask-18" x="423.05" y="169.96" width="35.14" height="26.13" maskUnits="userSpaceOnUse"><g id="scene-17-t"><path id="scene-17-s" class="cls-1" d="M430.79,173.4q.94,9-.05,12.55t-7.69,5q7.13,5.9,17.68,5t17.46-10.25q-8.1-.06-9.82-4.28A26.07,26.07,0,0,1,446.8,171Z"/></g></mask><mask id="mask-19" x="432.99" y="163.7" width="10.12" height="4.88" maskUnits="userSpaceOnUse"><g id="scene-17-v"><path id="scene-17-u" class="cls-1" d="M434,166.47q4.57,4.54,8.37-.71Z"/></g></mask><linearGradient id="linear-gradient-5" x1="-36.63" y1="857.48" x2="-36.63" y2="856.52" gradientTransform="matrix(71.92, 0, 0, -71.79, 3185.28, 61765)" xlink:href="#linear-gradient"/><linearGradient id="linear-gradient-6" x1="65.66" y1="443.18" x2="121.55" y2="443.18" gradientTransform="matrix(1, 0, 0, 1, 0, 0)" xlink:href="#linear-gradient"/><mask id="mask-20" x="65.3" y="424.47" width="56.62" height="37.86" maskUnits="userSpaceOnUse"><g id="scene-17-A"><path id="scene-17-z" class="cls-1" d="M66.2,461.89q-2.88-18.12,9.52-28.33c12.4-10.21,24.61-10.07,33-7.92q8.42,2.16,12.81,7.92-12.63,1.33-18.58,5.08c-6,3.73-6.58,8.83-19.75,12.41Q70.05,454.62,66.2,461.89Z"/></g></mask><linearGradient id="linear-gradient-7" x1="33.08" y1="399.48" x2="68.27" y2="399.48" gradientTransform="matrix(1, 0, 0, 1, 0, 0)" xlink:href="#linear-gradient"/><mask id="mask-21" x="32.5" y="350.99" width="35.77" height="96.24" maskUnits="userSpaceOnUse"><g id="scene-17-C-7" data-name="scene-17-C"><path id="scene-17-B" class="cls-1" d="M58.66,447.15q-10.81-6.58-9.83-17.66c1-11.07-11.07-17.49-11.07-35.22s1.87-24-4.68-42.46q19.32,5.44,27.51,20.53c8.2,15.08,4.29,24.12,7.13,43.18Q70.57,434.59,58.66,447.15Z"/></g></mask><linearGradient id="linear-gradient-8" x1="3.45" y1="436.14" x2="47.97" y2="436.14" gradientTransform="matrix(1, 0, 0, 1, 0, 0)" xlink:href="#linear-gradient"/><mask id="mask-22" x="3.28" y="411.08" width="44.69" height="50.35" maskUnits="userSpaceOnUse"><g id="scene-17-E"><path id="scene-17-D-7" data-name="scene-17-D" class="cls-1" d="M45.7,461.19q-10.73,0-15-9.94c-4.23-9.88-10.37-9.93-14.45-21.92q-4.08-12-12.85-14.9a21.88,21.88,0,0,1,20-1.67c10.36,4.05,11.73,12.67,19.74,22.36Q51.24,444.81,45.7,461.19Z"/></g></mask></defs><title>Uncovering Patterns of Customer Behavior </title><path class="cls-2" d="M3.29,219.85c-22.55,123.93,75.24,159.3,158.78,141.24S271,346.37,385.4,365.79,567.59,335.87,588,241.85,539.75,45,375.57,6.89,25.84,95.92,3.29,219.85Z"/><ellipse class="cls-3" cx="295.73" cy="533.45" rx="295.73" ry="41.11"/><path class="cls-4" d="M117.5,86H318c13.63,0,24.68,10.7,24.68,23.9V519.11c0,13.2-11.05,23.9-24.68,23.9H117.5c-13.63,0-24.68-10.7-24.68-23.9V109.94C92.82,96.74,103.87,86,117.5,86Z"/><g class="cls-5"><path class="cls-6" d="M100.28,167.64h.83a2.92,2.92,0,0,1,3,2.87v87.84a2.91,2.91,0,0,1-3,2.86h-.83a2.91,2.91,0,0,1-3-2.86V170.51A2.92,2.92,0,0,1,100.28,167.64Z"/></g><g class="cls-5"><path class="cls-6" d="M100.28,276.45h.83a2.91,2.91,0,0,1,3,2.86v33.44a2.92,2.92,0,0,1-3,2.87h-.83a2.92,2.92,0,0,1-3-2.87V279.31A2.91,2.91,0,0,1,100.28,276.45Z"/></g><g class="cls-7"><path class="cls-8" d="M133.26,86H330.33C344,86,355,96.74,355,109.94V519.11c0,13.2-11.05,23.9-24.68,23.9H133.26c-13.64,0-24.69-10.7-24.69-23.9V109.94C108.57,96.74,119.62,86,133.26,86Z"/></g><g class="cls-5"><path class="cls-9" d="M214.35,97.47h44"/></g><g class="cls-5"><ellipse class="cls-10" cx="199.72" cy="98.01" rx="3.38" ry="3.26"/></g><g class="cls-5"><path class="cls-11" d="M127.31,107.8H322.77a10.69,10.69,0,0,1,10.86,10.52V510c0,11.64-9.75,21.08-21.77,21.08H138.22c-12,0-21.77-9.44-21.77-21.08V118.32A10.69,10.69,0,0,1,127.31,107.8Z"/></g><path class="cls-12" d="M131.56,316.88H319.71a8.75,8.75,0,0,1,8.89,8.6v57.87a8.76,8.76,0,0,1-8.89,8.61H131.56a8.76,8.76,0,0,1-8.89-8.61V325.48A8.75,8.75,0,0,1,131.56,316.88Z"/><ellipse class="cls-13" cx="284.71" cy="354.96" rx="18" ry="17.41"/><polyline class="cls-14" points="275.71 358.26 282.92 362.58 292.59 346.26"/><path class="cls-15" d="M150.8,335.92H251M150.8,354.42H251M150.8,372.91H251"/><path class="cls-16" d="M131.56,403.88H319.71a8.75,8.75,0,0,1,8.89,8.6v57.87a8.75,8.75,0,0,1-8.89,8.6H131.56a8.75,8.75,0,0,1-8.89-8.6V412.48A8.75,8.75,0,0,1,131.56,403.88Z"/><ellipse class="cls-13" cx="284.71" cy="441.96" rx="18" ry="17.41"/><polyline class="cls-17" points="275.71 445.26 282.92 449.57 292.59 433.25"/><path class="cls-15" d="M150.8,422.92H251M150.8,441.41H251M150.8,459.91H251"/><path class="cls-18" d="M288.32,432.1a2.6,2.6,0,0,1-2.64-2.56V404.11c0-13.9-11.67-25.2-26-25.2s-26,11.3-26,25.2v25.43a2.64,2.64,0,0,1-5.28,0V404.11c0-16.72,14-30.31,31.28-30.31S291,387.39,291,404.11v25.43A2.61,2.61,0,0,1,288.32,432.1Z"/><polygon class="cls-19" points="325.85 543.01 192.55 543.01 206.08 417.78 312.31 417.78 314.57 438.68 325.85 543.01"/><polygon class="cls-20" points="335.72 543.01 205.38 543.01 218.85 417.78 322.24 417.78 324.49 438.68 335.72 543.01"/><polygon class="cls-21" points="270.99 457.93 344.17 457.93 353.49 543.01 261.67 543.01 270.99 457.93"/><polygon class="cls-22" points="278.89 457.93 352.07 457.93 361.39 543.01 269.56 543.01 278.89 457.93"/><path class="cls-18" d="M298.19,432.1a2.6,2.6,0,0,1-2.64-2.56V404.11c0-13.9-11.66-25.2-26-25.2s-26,11.3-26,25.2v25.43a2.64,2.64,0,0,1-5.28,0V404.11c0-16.72,14-30.31,31.29-30.31s31.28,13.59,31.28,30.31v25.43A2.6,2.6,0,0,1,298.19,432.1Zm17.46,77.15c-10.89,0-19.75-8.58-19.75-19.13V473.55a2.64,2.64,0,0,1,5.28,0v16.57a14.48,14.48,0,0,0,28.94,0V473.55a2.64,2.64,0,0,1,5.27,0v16.57c0,10.55-8.86,19.13-19.74,19.13Z"/><path class="cls-23" d="M137.88,128.11h238a6.8,6.8,0,0,1,6.91,6.69V270.55a6.8,6.8,0,0,1-6.91,6.69h-238a6.8,6.8,0,0,1-6.91-6.69V134.8A6.8,6.8,0,0,1,137.88,128.11Z"/><g class="cls-24"><path class="cls-2" d="M339.9,240c7.86,0,14.22,6,14.22,13.38s-6.36,13.39-14.22,13.39a14.69,14.69,0,0,1-9.48-3.41,12.87,12.87,0,0,0,0-19.95A14.64,14.64,0,0,1,339.9,240Z"/></g><g class="cls-24"><ellipse class="cls-25" cx="318.58" cy="253.34" rx="13.82" ry="13.38"/></g><g class="cls-24"><rect class="cls-26" x="130.97" y="161.57" width="251.79" height="36.33"/></g><path class="cls-27" d="M437.88,496.37q-7.12,8.17-4.75,12.55c2.38,4.36,5.27,5.64,6.77,23.83l2,.69V521.66q4.1,7.4,4.46,12.8c.37,5.41,10.31,10,22.57,6.17q4.81-7.87-.82-12.53a51.94,51.94,0,0,0-7-5.09Q447.81,516,437.88,496.37Zm-55.77-100q-5.26-6.21-10.79-4.14c-5.53,2.07-7.63,8-23.36,13.38l.28,2.41q13.45-5.07,15.82-2.41c2.37,2.66-11.95,13.58-12.38,17.85s1.15,13.69,9.15,15.8q8,2.11,6.15-12.81Z"/><path class="cls-28" d="M490.82,370q-6,54-24.19,51.14c-18.14-2.87-76.32-19.5-99.67,9q-4.27.66-1.32-8.64t16.47-25q14.33,4.32,47.54-3.8l28-4.62,1.68-18.69Z"/><g class="cls-29"><path class="cls-30" d="M491.56,371.22q-24.93,8.11-37.71,17.49l5.75-17.46a168.28,168.28,0,0,1,17-1.3A115.45,115.45,0,0,1,491.56,371.22Z"/></g><path class="cls-31" d="M425.69,370a73,73,0,0,1,4.25,26.77c-.32,14.16-11.09,34.4-5.7,55.1s13.45,36.62,13.45,44.22.24,10.52,3.51,15.62,6.9,24.16,25.43,17.77q-6.78-12.4-8.91-20.87c-2.14-8.47-9.21-20.49-9.21-28.13s-.81-52,.59-58.6,11.18-32,11.18-47.9Z"/><path class="cls-31" d="M429.46,193q-30,12.51-30,22.34c0,9.83,11.21,38.16,11.21,42.78a72.7,72.7,0,0,1-7.36-5.35c-13.93-12.23-21-18.8-22.75-19.85-2.16-1.3-6.94-5.43-12.34-3.73S353.46,231,352.78,231s-2.89,1.31-1.44,3q1.44,1.68,10.69,1.22a5.67,5.67,0,0,1-2.75,4.32c-2.43,1.54-3.53,4.47-4.1,4.74s-6.77,3.63-11.73,4.8c-3.31.78-4.89,2.09-4.76,3.92l2.85-.25c-.07.72.54,1,1.85.95,1.95-.13,11.74-2.35,15.35-4.62a73.28,73.28,0,0,0,7.26-3.3c5.51-2.72,8.17-5.23,10.89-3.88s21.14,28.74,35.85,37.77,13.89,5.11,15.46,3.52,4.13-3.27,3.56-7.47q-.57-4.2-8.07-38.11,13.9,11.84,16.64,21.72-18,68.4-19.8,111.17,27.51,7.78,46.13,3.41c18.62-4.37,29.22,1.55,46.21-3.41q17-5,24.35-12.62-29.73-82.53-41.42-95.48a10.64,10.64,0,0,0,4.33-5.25c.75-1.66,5.7-10.42,8.73-21,3.88-13.59,6.15-29.68,8.95-32q18.29-6.9,19.17-7.59c.59-.47,2.12-1.74,4.6-3.83q7.15-2.46,9.55-2.46a2.05,2.05,0,0,0-1.8-1.93,9.22,9.22,0,0,0-3.23,0c1.41-1.16,2.11-2.15,2.11-2.94,0-1.2-1.85-.91-3.51.73q-11.7,1.49-13.77,1.17a54.41,54.41,0,0,0-9.19.22,9.36,9.36,0,0,1,5.23-3.22c2.89-.58,5.9-3.48,4.4-4.7s-3.83-.27-9.28,2.4S512,187.6,511.27,192.66q-2.86,7.6-4.49,13.33c-1.63,5.71-9.47,25.93-12.25,28q-8.61-22-10.59-34.68c-2-12.7-10-17.74-18.6-16.43-3.79.58-9.65,4.54-18.88,7.29Q441.72,191.61,429.46,193Z"/><g class="cls-32"><path class="cls-19" d="M408.67,203.25q17.56,3.27,12.88,27,1,3.38,2.22,7.87l15.77,21.16q25.21-11.43,50.66-5.71-5.37-15.06-4.95-22.31c.42-7.25,1.84-20.19-6.14-26.63q-4.77-20.52-10.74-22.16t-40.32,9.12Z"/><g class="cls-33"><path class="cls-19" d="M418.26,209.06q7.15,5.07,9,20.1c1.84,15,13.33,20,30.67,8.51q25.88-3.84,28.37-14t4.56,30l-51.3,7.18L424,238.27l-4.26-14.6c1.26-3.4,1.69-5.62,1.31-6.67S419.75,213.31,418.26,209.06Zm47.44-8.26q10-1.16,17.92,7.52l-6.92-13.89Z"/></g></g><g class="cls-34"><path class="cls-27" d="M439.54,259.26q21.4-10,50.66-5.71A70.48,70.48,0,0,0,494,260a34.82,34.82,0,0,0,8.29,8.73q4.8,3.26,37.19,90.58-20.56,19.1-49.94,18.36t-76.75,0q8.64-48,13.82-70.87T439.54,259.26Z"/></g><g class="cls-32"><path class="cls-35" d="M545,185.65q-6.45,4.6-7.88,6.33c-.95,1.14-3.18,2.25-6.69,3.31q-11.9-3.18-16.65,1.66m25.3-7.1-5.8,1.75m-.48-4.3a15,15,0,0,1,.48,6.84M341.54,252.77q-.36-1,6.26-2.87c6.61-1.91,13.73-5.94,16.72-10s4-7.09,8.38-8M494.53,234v12.59"/></g><g class="cls-32"><path class="cls-36" d="M490.2,253.27l.66,1.85Q453,273.24,448,283.37q-7.78,15.75-17.11,90.57l-12.62-3.31q11-95.56,20.36-109.8,8.76-8.59,36.21-8.26Z"/></g><g class="cls-32"><path class="cls-35" d="M410.69,258.12q7.85,4.44,11.65,9.57m-2.57-44.78,4.26,16.3"/></g><g class="cls-32"><path class="cls-37" d="M440.21,258.28q26.75-9.46,50-4.73"/></g><path class="cls-31" d="M430.79,173.4q.94,9-.05,12.55t-7.69,5q7.13,5.9,17.68,5t17.46-10.25q-8.1-.06-9.82-4.28A26.07,26.07,0,0,1,446.8,171Z"/><g class="cls-38"><path class="cls-30" d="M430.23,175.53a42.67,42.67,0,0,0,19.91,8.25L446.93,170,429.6,171.6Z"/></g><path class="cls-27" d="M455.16,152.21q4.09-25.78-11.56-24.46-7.69-6.42-20.29,1.47c-12.6,7.89-6.76,25.8,1.38,34.46Q432.84,172.35,455.16,152.21Z"/><path class="cls-31" d="M453.83,147c1.43-.62,2.41-.55,2.93.22.72,1.07-.34,2.47-1,4.36s-.34,4-1.83,3.79Q452,155,453.83,147Z"/><path class="cls-31" d="M419.9,150c-1.65-.41-2.67-.19-3,.65-.52,1.17.81,2.14,1.81,3.89s.61,3.86,2.42,3.71Q423,158,419.9,150Z"/><path class="cls-31" d="M420,148.26c0,20.38,12,28.42,19,27.83s17.33-10.39,12.93-29.21c-2.58-3.34-4.31-5.44-5.17-6.31a8.88,8.88,0,0,1-2.5-4.51,43.17,43.17,0,0,1-11.91,8.62Q429.15,146.32,420,148.26Z"/><path class="cls-30" d="M435.37,160.63a2.75,2.75,0,0,0,2.57,1.58q1.5-.14,1.86-2a2.82,2.82,0,0,1-2,.91A4.38,4.38,0,0,1,435.37,160.63Z"/><path class="cls-39" d="M442.32,152.13a1.46,1.46,0,0,1,1.59,1.3,1.44,1.44,0,0,1-1.34,1.56,1.46,1.46,0,0,1-1.59-1.31A1.43,1.43,0,0,1,442.32,152.13Z"/><path class="cls-39" d="M431.85,153a1.47,1.47,0,0,1,1.6,1.3,1.44,1.44,0,0,1-1.34,1.55,1.43,1.43,0,1,1-.26-2.85Z"/><path class="cls-40" d="M428.85,148.71a17.87,17.87,0,0,1,4.58-1c1.1-.1,1.11,1,.24.92a16,16,0,0,0-4.15.5C428.57,149.4,428.18,149.14,428.85,148.71Z"/><path class="cls-40" d="M444.6,147.38a18.07,18.07,0,0,0-4.69-.24c-1.09.09-.91,1.17-.07.94a16.81,16.81,0,0,1,4.17-.2C445,148,445.34,147.68,444.6,147.38Z"/><path class="cls-41" d="M434,166.47q4.57,4.54,8.37-.71Z"/><g class="cls-42"><path class="cls-43" d="M433,164.53l9.86-.83.26,1.74a14.9,14.9,0,0,1-4.64,1.55,18.41,18.41,0,0,1-5.21-.71Z"/></g><path class="cls-27" d="M444.25,136.06c-.25,4.16-5.68,11.2-14.47,15.09q-9.27,7.15-5.86,20.45-13.19-12.45-7.34-21.16c2.1-3.12,12.14-4,17.09-6.57A51,51,0,0,0,444.25,136.06Z"/><path class="cls-27" d="M444.25,136.06q.12,7.33,5.73,13.86c5.61,6.52,6.21,13.7-.7,23.43q10-5.79,9.65-15.37c-.19-5.21-2.55-7.68-8.89-13.82A64.78,64.78,0,0,1,444.25,136.06Z"/><path class="cls-27" d="M428.29,171.54q-13.95,13.05-10.43,24.18c3.52,11.13,14.13,8.87,13.06,25.08q12.69-4,12.76-12.16C443.75,200.47,433,197,432,185.88l-1.11-12.27c-.6-.43-1-.76-1.34-1S428.81,172,428.29,171.54Z"/><path class="cls-44" d="M430.5,173.76q1.86,16.58,6,21.09c4.19,4.52,14.27,14.43,2.66,21.38"/><path class="cls-18" d="M560.7,213.59a1.42,1.42,0,0,1-1.44-1.4V198.25a14.17,14.17,0,0,0-28.34,0v13.94a1.44,1.44,0,0,1-2.87,0V198.25a17,17,0,0,1,34.08,0v13.94A1.42,1.42,0,0,1,560.7,213.59Z"/><polygon class="cls-45" points="581.14 274.38 508.52 274.38 515.89 205.74 573.77 205.74 575 217.2 581.14 274.38"/><polygon class="cls-46" points="586.52 274.38 515.51 274.38 522.85 205.74 579.18 205.74 580.41 217.2 586.52 274.38"/><path class="cls-18" d="M566.08,213.59a1.42,1.42,0,0,1-1.44-1.4V198.25a14.17,14.17,0,0,0-28.34,0v13.94a1.44,1.44,0,0,1-2.87,0V198.25a17,17,0,0,1,34.08,0v13.94A1.42,1.42,0,0,1,566.08,213.59Z"/><path class="cls-18" d="M364.2,271.91a1.43,1.43,0,0,1-1.44-1.4V256.57a14.17,14.17,0,0,0-28.33,0v13.94a1.44,1.44,0,0,1-2.88,0V256.57a17.05,17.05,0,0,1,34.09,0v13.94A1.42,1.42,0,0,1,364.2,271.91Z"/><polygon class="cls-21" points="384.65 332.69 312.02 332.69 319.4 264.06 377.27 264.06 378.5 275.51 384.65 332.69"/><polygon class="cls-22" points="390.03 332.69 319.02 332.69 326.36 264.06 382.69 264.06 383.91 275.51 390.03 332.69"/><path class="cls-18" d="M369.58,271.91a1.43,1.43,0,0,1-1.44-1.4V256.57a14.17,14.17,0,0,0-28.33,0v13.94a1.44,1.44,0,0,1-2.88,0V256.57a17.05,17.05,0,0,1,34.09,0v13.94A1.42,1.42,0,0,1,369.58,271.91Z"/><path class="cls-47" d="M55.79,484.7q7.89-63.7,0-91.78M49.86,484.7a150.94,150.94,0,0,0-23.7-64.06M61.71,484.7q2.07-32,21.72-45.89"/><path class="cls-48" d="M33.08,489.48H77.51l-5.86,49.38a4.77,4.77,0,0,1-4.8,4.15H43.74a4.78,4.78,0,0,1-4.81-4.15l-5.85-49.38Z"/><path class="cls-4" d="M32.78,481.83h46a3.59,3.59,0,0,1,3.65,3.53v5.36a3.6,3.6,0,0,1-3.65,3.54h-46a3.59,3.59,0,0,1-3.65-3.54v-5.36A3.59,3.59,0,0,1,32.78,481.83Z"/><path class="cls-49" d="M66.2,461.89q-2.88-18.12,9.52-28.33c12.4-10.21,24.61-10.07,33-7.92q8.42,2.16,12.81,7.92-12.63,1.33-18.58,5.08c-6,3.73-6.58,8.83-19.75,12.41Q70.05,454.62,66.2,461.89Z"/><g class="cls-50"><path class="cls-51" d="M121.55,433.56q-13.68-5.46-25.19-1.9c-11.51,3.55-18.9,7-30.16,30.23"/></g><path class="cls-52" d="M58.66,447.15q-10.81-6.58-9.83-17.66c1-11.07-11.07-17.49-11.07-35.22s1.87-24-4.68-42.46q19.32,5.44,27.51,20.53c8.2,15.08,4.29,24.12,7.13,43.18Q70.57,434.59,58.66,447.15Z"/><g class="cls-53"><path class="cls-51" d="M33.08,351.81q13.32,9.29,17.59,35c4.28,25.74,11.15,20.81,8,60.33"/></g><path class="cls-54" d="M45.7,461.19q-10.73,0-15-9.94c-4.23-9.88-10.37-9.93-14.45-21.92q-4.08-12-12.85-14.9a21.88,21.88,0,0,1,20-1.67c10.36,4.05,11.73,12.67,19.74,22.36Q51.24,444.81,45.7,461.19Z"/><g class="cls-55"><path class="cls-51" d="M3.45,414.43Q20,411.55,25.71,423.3c5.72,11.76,15.28,19.16,20,37.89"/></g></svg>