<svg id="Layer_1" data-name="Layer 1" xmlns="http://www.w3.org/2000/svg" xmlns:xlink="http://www.w3.org/1999/xlink" viewBox="0 0 717.32 510.02"><defs><style>.cls-1{mask:url(#mask);filter:url(#luminosity-noclip-2);}.cls-2{mix-blend-mode:multiply;fill:url(#linear-gradient);}.cls-17,.cls-3{opacity:0.5;}.cls-3{fill:url(#Gradiente_sem_nome_69);}.cls-4{fill:#d4e0ff;}.cls-5{fill:#87a0f9;}.cls-6{fill:#6182f9;}.cls-7{fill:#ebf1ff;}.cls-8{fill:#12348e;}.cls-9{fill:#ffb91f;}.cls-10{fill:#f3f6ff;}.cls-11{fill:#9cb3ff;}.cls-12{fill:#6e8aeb;}.cls-13{fill:#455a94;}.cls-14{fill:#faaeb1;}.cls-15{fill:#eff1f7;}.cls-16{fill:#bdbdbd;}.cls-18{fill:#a1a7ff;}.cls-19{fill:#3d3d3d;}.cls-20{fill:#626262;}.cls-21{fill:#9cb0e6;}.cls-22{fill:#fa3e6a;}.cls-23{fill:#fa8aa4;}.cls-24{fill:#bdcaf9;}.cls-25{fill:#abbeff;}.cls-26{mask:url(#mask-2);}.cls-27{fill:url(#linear-gradient-2);}.cls-28{fill:#798ede;}.cls-29{filter:url(#luminosity-noclip);}</style><filter id="luminosity-noclip" x="216.2" y="-8522.67" width="187.56" height="32766" filterUnits="userSpaceOnUse" color-interpolation-filters="sRGB"><feFlood flood-color="#fff" result="bg"/><feBlend in="SourceGraphic" in2="bg"/></filter><mask id="mask" x="216.2" y="-8522.67" width="187.56" height="32766" maskUnits="userSpaceOnUse"><g class="cls-29"/></mask><linearGradient id="linear-gradient" x1="309.98" y1="283.79" x2="309.98" y2="409.33" gradientUnits="userSpaceOnUse"><stop offset="0"/><stop offset="1" stop-color="#fff"/></linearGradient><linearGradient id="Gradiente_sem_nome_69" y1="461.56" x2="717.32" y2="461.56" gradientUnits="userSpaceOnUse"><stop offset="0.16" stop-color="#e08197"/><stop offset="1" stop-color="#e08197" stop-opacity="0"/></linearGradient><filter id="luminosity-noclip-2" x="216.2" y="283.79" width="187.56" height="125.53" filterUnits="userSpaceOnUse" color-interpolation-filters="sRGB"><feFlood flood-color="#fff" result="bg"/><feBlend in="SourceGraphic" in2="bg"/></filter><mask id="mask-2" x="216.2" y="283.79" width="187.56" height="125.53" maskUnits="userSpaceOnUse"><g class="cls-1"><polygon class="cls-2" points="403.76 283.8 216.2 283.8 246.2 409.33 373.76 409.33 403.76 283.8"/></g></mask><linearGradient id="linear-gradient-2" x1="309.98" y1="283.79" x2="309.98" y2="409.33" gradientUnits="userSpaceOnUse"><stop offset="0" stop-color="#8ba3f9"/><stop offset="1" stop-color="#8ba3f9"/></linearGradient></defs><title>Big Data &amp;amp; AI</title><path class="cls-3" d="M35.79,476.08l436.58,26.67c77.87,4.75,161.65,21.12,227.55-19.59,10-6.16,20.5-16.62,16.54-27.46S698,443.28,686.32,443.57c-112.89,2.78-224.81-22.9-337.7-19.89-53.63,1.44-108.44.57-161.28-9.41-31.69-6-62.09,12.73-94.67,12.11-23.08-.43-55.16.11-76.34,9.46C-18.42,451.18,9.11,474.45,35.79,476.08Z"/><rect class="cls-4" x="108.84" width="415.71" height="290.64" rx="10"/><rect class="cls-5" x="10.06" y="317.04" width="205.33" height="8.03"/><rect class="cls-6" x="22.42" y="325.07" width="5.26" height="135.71"/><rect class="cls-5" x="22.42" y="446.73" width="5.26" height="14.05"/><rect class="cls-6" x="196.5" y="325.07" width="5.26" height="135.71"/><rect class="cls-5" x="196.5" y="446.73" width="5.26" height="14.05"/><rect class="cls-7" x="46.82" y="200.13" width="143.59" height="93.04" rx="4"/><rect class="cls-5" x="81.37" y="177.58" width="74.49" height="131.59" rx="2" transform="translate(361.99 124.76) rotate(90)"/><polygon class="cls-7" points="136.91 312.54 100.31 312.54 104.31 293.17 133.91 293.17 136.91 312.54"/><path class="cls-7" d="M96.18,312.54H141a3,3,0,0,1,3,3v1.12a0,0,0,0,1,0,0H93.18a0,0,0,0,1,0,0v-1.12A3,3,0,0,1,96.18,312.54Z"/><circle class="cls-8" cx="154.78" cy="232.6" r="15.91"/><path class="cls-9" d="M154.78,216.69V232.6h15.91A15.91,15.91,0,0,0,154.78,216.69Z"/><path class="cls-10" d="M143.53,243.85a15.91,15.91,0,0,0,27.16-11.25H154.78Z"/><path class="cls-11" d="M108.21,223.37h21.57a2.06,2.06,0,1,0,0-4.11H108.21a2.06,2.06,0,0,0,0,4.11Z"/><path class="cls-11" d="M76.05,223.37H97.63a2.06,2.06,0,0,0,0-4.11H76.05a2.06,2.06,0,0,0,0,4.11Z"/><path class="cls-11" d="M117.79,234.31h12a2.05,2.05,0,1,0,0-4.1h-12a2.05,2.05,0,1,0,0,4.1Z"/><path class="cls-11" d="M68.69,234.31h38.52a2,2,0,1,0,0-4.1H68.69a2,2,0,0,0,0,4.1Z"/><path class="cls-11" d="M97.83,245.94h32a2.05,2.05,0,1,0,0-4.1H97.83a2.05,2.05,0,1,0,0,4.1Z"/><rect class="cls-12" x="66.64" y="255.3" width="104.05" height="16.14" rx="1"/><path class="cls-8" d="M177.18,449.26s-1.64,9.71,0,11.07,15.41,2.73,22.52,2.88,22.24,1.66,24.51,0,.46-6-8.77-7.27-22.65-11.28-22.65-11.28Z"/><path class="cls-13" d="M175,373.06l19.22,70.78s-8.75,5.42-17,5.42c0,0-21.8-34.31-24.08-38.1S175,373.06,175,373.06Z"/><path class="cls-8" d="M90.38,232.09c2.82-.78,5.37-1.91,6.88-3.56,5-5.46.56-8.71-2.72-7a6.31,6.31,0,0,1-4,.68s5-3.41,3.54-6.81-7.09,3.13-14.31,4.77-20.57-1.37-20.57,9.94c0,0-4.09-1.77-5,4.36s5.31,10,5.31,14,5,11.69,9.6,9.18Z"/><path class="cls-14" d="M89.36,228.79s1.77,4.91,1.77,8.31c0,0,6.54,9.4,7.91,10.63s-4.64,2.73-5.86,2.73c0,0,.54,9.4-1.64,10.76s-14.71,0-17.85-6-4.77-16.67-3.54-22.44S89.36,228.79,89.36,228.79Z"/><path class="cls-14" d="M74.78,250.05a6.64,6.64,0,0,1-6.4,2.72c-4.36-.54-6-7.49-4.23-9.67s8.18-.68,8.18-.68Z"/><polygon class="cls-14" points="83.37 259.04 84.49 271.44 69.74 266.26 68.51 249.5 83.37 259.04"/><path class="cls-8" d="M66.47,236.15s4.45,11.06,6.81,11.22,2.46-13.54,2.46-13.54a62.4,62.4,0,0,0,14.62-1.73l1.73-4.81-5.59-1.22-18.94,2.46Z"/><path class="cls-15" d="M88,268.68s-7.35-2.88-21.57-7l-1.48,7s-7.35,10.83-6.46,29.58,6.51,41.08,7.94,43.53,37.15,7.59,44.52,0-10.94-39.29-12.72-49.33-6.18-14.74-6.18-14.74Z"/><path class="cls-15" d="M80.07,278.71c-9.43,1-15.61,9.9-15.08,16.42S73,322.2,105,323.78s42.69-16,42.69-16,1.58-8.11-8.3-9.29c0,0-8.89,5.37-19.37,5.25s-20.16-4.66-26.09-12S85,278.18,80.07,278.71Z"/><path class="cls-16" d="M120.06,304.24h0c-10.5-.11-20.4-4.66-26.47-12.16-1.4-1.72-2.65-3.41-3.76-4.9l-.75-1a.5.5,0,0,1,.8-.6l.75,1c1.1,1.49,2.35,3.17,3.73,4.87,5.9,7.27,15.5,11.68,25.71,11.79a.51.51,0,0,1,.49.51A.49.49,0,0,1,120.06,304.24Z"/><path class="cls-16" d="M109,324.38c-1.29,0-2.62,0-4-.1-31.44-1.55-39.92-21.54-40.53-29.11a.5.5,0,0,1,.46-.54.5.5,0,0,1,.54.46c.59,7.32,8.86,26.68,39.58,28.19,16.36.81,27-3.52,33-7.3,6.52-4.08,9.21-8.42,9.23-8.46a.5.5,0,0,1,.69-.17.5.5,0,0,1,.17.69C148.05,308.2,137.89,324.38,109,324.38Z"/><path class="cls-14" d="M140.63,298.68s5.24-6.14,8.35-7.41,6.08-.14,9.62,2.83,7.91,7,6.78,9.64-2,6.9-4.38,6.9-6.22-3.26-6.22-3.26-3.64,4.6-7.05.4S140.63,298.68,140.63,298.68Z"/><g class="cls-17"><path class="cls-18" d="M155.21,307.63l-.86-.5c2.08-3.61,3.22-6,3.23-6.06l.37-.8.5.73a5.33,5.33,0,0,0,3.07,2.25l-.19,1a6.17,6.17,0,0,1-3.2-2C157.64,303.22,156.64,305.15,155.21,307.63Z"/></g><path class="cls-19" d="M90.69,255.8a9.05,9.05,0,0,1-4.11-.84.49.49,0,0,1-.21-.67.49.49,0,0,1,.67-.21c2.36,1.22,6,.52,6,.51a.5.5,0,0,1,.59.4.49.49,0,0,1-.4.58A14,14,0,0,1,90.69,255.8Z"/><path class="cls-19" d="M87.66,244.94h-.08a.51.51,0,0,1-.42-.57,17.92,17.92,0,0,0,0-4.75.51.51,0,0,1,.42-.57.5.5,0,0,1,.57.43,18.39,18.39,0,0,1,0,5.05A.5.5,0,0,1,87.66,244.94Z"/><path class="cls-8" d="M145,446.88s-3.24,12.39-2.18,15,11.5,3.93,18.77,3,24.51,3.44,27.54.28-.91-5.88-5.6-7.09-14.26-3-19.31-7.31Z"/><path class="cls-13" d="M111,341.79l2.91,7.15s53.93,3.44,62.88,12.12-12.34,74.7-12.58,77.84,2.9,5.08,1.45,7.74a9.8,9.8,0,0,0-1.45,4.11s-12.32,1.69-19.22-3.87A193.7,193.7,0,0,1,142.19,414c0-18.38-1.21-24.67-1.21-24.67s-41.35,3.39-54.41-.48S64.26,360.76,69.13,343Z"/><path class="cls-8" d="M47.31,290.75c13.44,1.36,23.85,40,27.47,58.5s9.18,35.29,31.61,31.93,35.46-8,37.14,4.62-8,15.55-33.62,15.55-42.5-1.54-46.46-28.29S50.67,309.7,43.11,300.69,47.31,290.75,47.31,290.75Z"/><path class="cls-5" d="M101.39,394.94h0a4,4,0,0,0,4-4V354.62H97.42V391A4,4,0,0,0,101.39,394.94Z"/><path class="cls-5" d="M89.19,356.83h53.17a4.94,4.94,0,0,0,4.94-4.94h0a4.94,4.94,0,0,0-4.94-4.94H89.19a4.94,4.94,0,0,0-4.94,4.94h0A4.94,4.94,0,0,0,89.19,356.83Z"/><path class="cls-16" d="M104.72,320.43a.85.85,0,0,1-.31-.06.89.89,0,0,1-.58-.82A70.69,70.69,0,0,0,100.21,298a.5.5,0,0,1,.31-.64.52.52,0,0,1,.64.32,72.14,72.14,0,0,1,3.67,21.6,60.33,60.33,0,0,0,8.75-12.88,1.19,1.19,0,0,1,.79-.63,1.15,1.15,0,0,1,.95.19,12.31,12.31,0,0,1,5,9.14.51.51,0,0,1-.48.53.49.49,0,0,1-.52-.47,11.29,11.29,0,0,0-4.54-8.39.15.15,0,0,0-.13,0,.24.24,0,0,0-.13.11,61.42,61.42,0,0,1-9.09,13.32A.91.91,0,0,1,104.72,320.43Z"/><rect class="cls-5" x="92.14" y="401.28" width="10.45" height="49.71" transform="translate(194.73 852.27) rotate(180)"/><path class="cls-5" d="M68.91,464a1.63,1.63,0,0,1-1.43-2.43c5-8.61,16.67-14.67,30.35-14.67s25.41,6.06,30.36,14.67a1.63,1.63,0,0,1-1.43,2.43Z"/><path class="cls-20" d="M163.69,447.44h0a23.57,23.57,0,0,1-16.22-8,.9.9,0,0,1-.12-1,.93.93,0,0,1,.89-.5,109.84,109.84,0,0,0,13.21.28,107.9,107.9,0,0,1-19-26.54.51.51,0,0,1,.22-.68.49.49,0,0,1,.67.22,109,109,0,0,0,18.9,26.45.91.91,0,0,1,.2,1,.88.88,0,0,1-.8.57,112.66,112.66,0,0,1-13.25-.25,22.49,22.49,0,0,0,15.36,7.5.5.5,0,0,1,.47.52A.51.51,0,0,1,163.69,447.44Z"/><path class="cls-13" d="M165.65,447.14a.53.53,0,0,1-.24-.06.51.51,0,0,1-.2-.68c.68-1.25.17-2.3-.47-3.63a7.42,7.42,0,0,1-1-3.91c.05-.62.72-3,2.12-8,4.82-17.13,17.62-62.63,10.61-69.43a.5.5,0,0,1,.69-.72c6.6,6.4-2.06,41-10.34,70.43-1.14,4.05-2,7.25-2.08,7.81a6.5,6.5,0,0,0,.94,3.39c.68,1.4,1.38,2.85.45,4.55A.49.49,0,0,1,165.65,447.14Z"/><path class="cls-16" d="M82.51,280.18a.51.51,0,0,1-.17,0c-.45-.15-11.17-3.94-17.72-11.13a.5.5,0,0,1,.74-.68c5.5,6.05,14.31,9.72,16.7,10.64.45-3.21,3.6-8.22,3.75-8.44a.49.49,0,0,1,.39-.24.51.51,0,0,1,.41.18l5.86,6.92a.49.49,0,0,1-.06.7.51.51,0,0,1-.71-.05l-5.4-6.39c-.92,1.53-3.29,5.73-3.29,8a.51.51,0,0,1-.21.41A.52.52,0,0,1,82.51,280.18Z"/><polygon class="cls-8" points="175.5 129.99 188.66 150.23 215.31 164.07 229.82 165.75 235.56 174.87 235.56 182.97 271.67 206.07 309.98 201.82 334.49 240.47 342.02 254.18 355.22 254.18 350.82 233.53 395.43 235.3 413.65 216.35 417.42 204.22 435.01 201.82 451.35 174.08 447.58 126.47 412.39 69.92 350.19 34.1 275.43 34.1 213.23 59.24 177.1 105.1 175.5 129.99"/><path class="cls-5" d="M355.22,254.68H342a.5.5,0,0,1-.44-.26l-7.54-13.71-24.32-38.36-38,4.21a.51.51,0,0,1-.32-.07l-36.11-23.1a.52.52,0,0,1-.23-.43v-8l-5.53-8.79-14.27-1.66a.37.37,0,0,1-.18-.05l-26.66-13.83a.49.49,0,0,1-.18-.17l-13.16-20.25A.48.48,0,0,1,175,130l1.6-24.88a.57.57,0,0,1,.11-.28l36.13-45.86a.53.53,0,0,1,.2-.16l62.2-25.13a.58.58,0,0,1,.19,0h74.76a.52.52,0,0,1,.25.07l62.2,35.81a.49.49,0,0,1,.18.17L448,126.2a.62.62,0,0,1,.07.23L451.85,174a.51.51,0,0,1-.07.3l-16.34,27.74a.48.48,0,0,1-.36.24l-17.27,2.35-3.68,11.83a.47.47,0,0,1-.12.2l-18.22,19a.58.58,0,0,1-.38.15l-44-1.74,4.27,20a.49.49,0,0,1-.49.6Zm-12.9-1H354.6l-4.27-20a.52.52,0,0,1,.11-.43.47.47,0,0,1,.4-.18l44.39,1.76,18-18.7,3.73-12a.5.5,0,0,1,.41-.34l17.36-2.37L450.84,174l-3.75-47.34L412,70.29l-62-35.69H275.52l-62,25-35.95,45.64L176,129.85l13,20,26.46,13.73,14.42,1.68a.51.51,0,0,1,.37.23L236,174.6a.5.5,0,0,1,.08.27v7.82l35.73,22.86,38.14-4.22a.49.49,0,0,1,.47.22l24.51,38.65Z"/><path class="cls-5" d="M239.76,139h-.08l-64.25-8.48a.5.5,0,1,1,.13-1l61.52,8.12-60.21-32.07a.5.5,0,0,1,.15-.93l52.09-9L212.77,59.44a.49.49,0,0,1,.07-.52.49.49,0,0,1,.51-.17L257.8,69.34,275,33.89a.47.47,0,0,1,.35-.28.48.48,0,0,1,.43.13l16,14.74a.5.5,0,0,1,.07.65l-18.32,25.6a.5.5,0,0,1-.55.19L258.2,70.48,230.37,96.12l9.87,42.23s0,.05,0,.07a.69.69,0,0,1,0,.25.71.71,0,0,1-.1.14.5.5,0,0,1-.19.13l-.13,0Zm-61.14-33.62L239,137.51l-9.58-41ZM214.1,60,230,95.11l27.06-24.92Zm44.68,9.65,14.14,4.25,17.85-25-15.19-14Z"/><path class="cls-5" d="M330,70.42a.5.5,0,0,1-.24-.06L291.46,49.42,258.34,70.34a.49.49,0,0,1-.69-.16.48.48,0,0,1,.16-.68l33.36-21.08a.52.52,0,0,1,.51,0l38.6,21.08a.5.5,0,0,1,.2.68A.53.53,0,0,1,330,70.42Z"/><path class="cls-5" d="M269.2,125.23a.47.47,0,0,1-.3-.1L229.53,96.35a.5.5,0,0,1,.59-.81l38.65,28.26,3.85-49.4a.52.52,0,0,1,.27-.4.48.48,0,0,1,.48,0L334,108.47,329.54,70a.54.54,0,0,1,.06-.31l19.59-34.8L291.56,49.33a.5.5,0,1,1-.24-1l58.75-14.74a.49.49,0,0,1,.52.18.5.5,0,0,1,0,.55L330.55,70l4.56,39.32a.5.5,0,0,1-.74.49L273.56,75.27l-3.87,49.5a.48.48,0,0,1-.28.41A.41.41,0,0,1,269.2,125.23Z"/><path class="cls-5" d="M291.44,129.81a.5.5,0,0,1-.48-.34L272.65,74.6a.5.5,0,0,1,.05-.43.55.55,0,0,1,.38-.23L330,69.42a.39.39,0,0,1,.21,0L356.38,79a.48.48,0,0,1,.3.32.49.49,0,0,1-.07.44l-21.59,30a.5.5,0,0,1-.81-.59l21.2-29.44L330,70.42,273.8,74.89l18.11,54.26a.49.49,0,0,1-.31.63Z"/><path class="cls-5" d="M229.82,166.26a.47.47,0,0,1-.33-.14.5.5,0,0,1-.14-.54l9.94-27.28a.45.45,0,0,1,.26-.28L269,124.28a.5.5,0,0,1,.32,0l22.08,4.55,43-19.85a.5.5,0,0,1,.43,0l20,10,55.89-48.19-54.42,9.2a.51.51,0,0,1-.38-.09.5.5,0,0,1-.2-.34l-6-45.31a.49.49,0,0,1,.43-.56.5.5,0,0,1,.56.43l5.94,44.8,55.68-9.42a.5.5,0,0,1,.41.88l-57.5,49.58a.5.5,0,0,1-.55.06l-20.06-10-43,19.81a.48.48,0,0,1-.31,0l-22.08-4.55-29.1,13.58-9.45,26L252,154.87a.5.5,0,0,1,.46,0l14.23,8.18L321,152.56h.12L360,154.81l37.15-22a.49.49,0,0,1,.19-.07L447.51,126a.51.51,0,0,1,.57.43.51.51,0,0,1-.43.56l-50.06,6.76-37.2,22a.59.59,0,0,1-.29.07l-39-2.26-54.47,10.51a.45.45,0,0,1-.34,0l-14.17-8.14L230,166.21A.59.59,0,0,1,229.82,166.26Z"/><path class="cls-5" d="M397.42,133.74l-.15,0L354.74,120a.5.5,0,0,1-.34-.49l1.3-40.08a.5.5,0,0,1,.5-.48h0a.49.49,0,0,1,.48.51l-1.29,39.71,41.65,13.45L411.91,69.8a.5.5,0,1,1,1,.23l-15,63.32a.5.5,0,0,1-.25.32A.51.51,0,0,1,397.42,133.74Z"/><path class="cls-5" d="M266.58,164.08a.51.51,0,0,1-.17,0,.5.5,0,0,1-.33-.5l2.47-36.62-15.93,28.63a.49.49,0,0,1-.4.26.57.57,0,0,1-.44-.2l-12.43-16.85a.51.51,0,0,1,.11-.7.5.5,0,0,1,.7.1l12,16.23,16.63-29.91a.5.5,0,0,1,.58-.24.52.52,0,0,1,.36.51l-2.51,37.12L291,129a.5.5,0,0,1,.7-.12l33.66,23.57,8.74-43.17a.49.49,0,0,1,.41-.4.51.51,0,0,1,.51.25l24.19,43.54-4.84-33.12a.5.5,0,1,1,1-.15l5.24,35.83a.51.51,0,0,1-.34.54.5.5,0,0,1-.6-.23l-24.85-44.74-8.62,42.6a.49.49,0,0,1-.78.31L291.56,130,267,163.88A.48.48,0,0,1,266.58,164.08Z"/><path class="cls-5" d="M271.67,206.57a.5.5,0,0,1-.47-.32l-19.18-50-16.08,18.91a.49.49,0,0,1-.7.06.51.51,0,0,1-.06-.71L251.81,155a.47.47,0,0,1,.46-.16.47.47,0,0,1,.38.31l18,47-4.61-38.49a.51.51,0,0,1,.27-.5.48.48,0,0,1,.56.07l42.83,37.73,15.51-47.77a.5.5,0,0,1,1,.3L310.46,202a.47.47,0,0,1-.35.32.48.48,0,0,1-.46-.1l-42.42-37.38L272.16,206a.49.49,0,0,1-.37.54Z"/><path class="cls-5" d="M417.42,204.72h0l-40.93-2.4H310a.48.48,0,0,1-.46-.32.48.48,0,0,1,.12-.54L359.78,155a.42.42,0,0,1,.18-.11.45.45,0,0,1,.28,0l89.05,18.32-52.17-39.52a.5.5,0,1,1,.6-.79l53.93,40.84a.6.6,0,0,1,.08.08.36.36,0,0,1,.08.12.53.53,0,0,1,0,.18.57.57,0,0,1,0,.18h0a.28.28,0,0,1-.08.15h0l-.06.07L417.75,204.6A.5.5,0,0,1,417.42,204.72Zm-38.53-3.26,38.35,2.25L449,175.48Zm-67.63-.14h64.52L359.91,156.2ZM360.89,156l15.9,45.19,72.75-27Z"/><path class="cls-5" d="M342,254.68a.45.45,0,0,1-.2,0,.5.5,0,0,1-.26-.66l8.66-20.34-17.58-18.43-22.91-13a.5.5,0,0,1-.19-.68.49.49,0,0,1,.68-.19l22.82,12.91,43.29-13a.5.5,0,0,1,.58.24l18.95,33.47a.52.52,0,0,1-.05.57.5.5,0,0,1-.54.15l-60.56-19.84,16.46,17.26a.49.49,0,0,1,.1.54l-8.79,20.65A.51.51,0,0,1,342,254.68Zm-7.39-39.82,59.72,19.56-18.11-32Z"/><path class="cls-7" d="M345.26,105.88H333A36.53,36.53,0,0,0,328.5,95l8.65-8.66a1.13,1.13,0,0,0,0-1.61L326.7,74.23a1.16,1.16,0,0,0-1.62,0l-8.65,8.66a37,37,0,0,0-10.93-4.53V66.12A1.14,1.14,0,0,0,304.36,65H289.57a1.14,1.14,0,0,0-1.14,1.14V78.36a37,37,0,0,0-10.93,4.53l-8.65-8.66a1.15,1.15,0,0,0-1.61,0L256.78,84.69a1.15,1.15,0,0,0,0,1.61L265.43,95a36.79,36.79,0,0,0-4.52,10.92H248.67a1.14,1.14,0,0,0-1.14,1.15v14.78a1.14,1.14,0,0,0,1.14,1.14h12.24a37,37,0,0,0,4.52,10.93l-8.65,8.65a1.16,1.16,0,0,0,0,1.62l10.46,10.45a1.13,1.13,0,0,0,1.61,0L277.5,146a36.7,36.7,0,0,0,10.93,4.52v12.24a1.14,1.14,0,0,0,1.14,1.14h14.79a1.14,1.14,0,0,0,1.14-1.14V150.47A36.7,36.7,0,0,0,316.43,146l8.65,8.65a1.14,1.14,0,0,0,1.62,0l10.45-10.45a1.14,1.14,0,0,0,0-1.62l-8.65-8.65A36.7,36.7,0,0,0,333,123h12.24a1.14,1.14,0,0,0,1.14-1.14V107A1.14,1.14,0,0,0,345.26,105.88ZM297,134.4a20,20,0,1,1,20-20A20,20,0,0,1,297,134.4Z"/><path class="cls-7" d="M393.13,140.89l-7.06,1.25a21.78,21.78,0,0,0-3.73-5.84l4.11-5.88a.67.67,0,0,0-.16-.93l-7.11-5a.67.67,0,0,0-.93.16l-4.11,5.88a21.42,21.42,0,0,0-6.77-1.49L366.12,122a.67.67,0,0,0-.78-.54L356.81,123a.67.67,0,0,0-.55.77l1.25,7.07a21.39,21.39,0,0,0-5.84,3.73l-5.88-4.11a.67.67,0,0,0-.94.16l-5,7.11a.66.66,0,0,0,.16.93l5.88,4.11a21.71,21.71,0,0,0-1.5,6.77l-7.06,1.25a.67.67,0,0,0-.54.78l1.51,8.53a.67.67,0,0,0,.77.55l7.07-1.25a21.54,21.54,0,0,0,3.73,5.84l-4.11,5.88a.66.66,0,0,0,.16.93l7.1,5a.68.68,0,0,0,.94-.16l4.11-5.88a21.42,21.42,0,0,0,6.77,1.49l1.25,7.07a.67.67,0,0,0,.78.54l8.53-1.51a.65.65,0,0,0,.54-.77l-1.25-7.07a21.44,21.44,0,0,0,5.85-3.73l5.88,4.11a.66.66,0,0,0,.93-.16l5-7.1a.68.68,0,0,0-.16-.94l-5.88-4.11a21.42,21.42,0,0,0,1.49-6.77l7.07-1.25a.67.67,0,0,0,.54-.78l-1.51-8.53A.67.67,0,0,0,393.13,140.89Zm-25,21.4a11.71,11.71,0,1,1,9.49-13.58A11.72,11.72,0,0,1,368.17,162.29Z"/><rect class="cls-7" x="469.51" y="90.22" width="178.42" height="312.83" rx="10"/><rect class="cls-18" x="491.2" y="241.54" width="146.37" height="97.04"/><rect class="cls-5" x="521.38" y="296.81" width="9.45" height="29.42"/><rect class="cls-8" x="540.52" y="252.97" width="9.45" height="73.27"/><rect class="cls-21" x="559.66" y="277.27" width="9.45" height="48.96"/><rect class="cls-22" x="578.8" y="298.4" width="9.45" height="27.84"/><rect class="cls-23" x="597.94" y="285.94" width="9.45" height="40.3"/><path class="cls-8" d="M523.8,111.44A37.58,37.58,0,1,0,561.37,149,37.58,37.58,0,0,0,523.8,111.44Zm0,60.73A23.15,23.15,0,1,1,547,149,23.15,23.15,0,0,1,523.8,172.17Z"/><path class="cls-22" d="M523.8,111.44v14.43A23.15,23.15,0,0,1,547,149h14.42A37.57,37.57,0,0,0,523.8,111.44Z"/><path class="cls-5" d="M547,149a23.15,23.15,0,0,1-39.52,16.37l-10.2,10.2A37.58,37.58,0,0,0,561.37,149Z"/><rect class="cls-8" x="572.48" y="113.76" width="11.42" height="11.42"/><rect class="cls-22" x="572.48" y="143.31" width="11.42" height="11.42"/><rect class="cls-5" x="572.48" y="172.86" width="11.42" height="11.42"/><path class="cls-24" d="M514.82,203.79H493.25a2.06,2.06,0,0,1,0-4.11h21.57a2.06,2.06,0,1,1,0,4.11Z"/><path class="cls-24" d="M547,203.79H525.41a2.06,2.06,0,1,1,0-4.11H547a2.06,2.06,0,0,1,0,4.11Z"/><path class="cls-24" d="M505.25,214.73h-12a2,2,0,0,1,0-4.1h12a2,2,0,1,1,0,4.1Z"/><path class="cls-24" d="M554.35,214.73H515.83a2,2,0,0,1,0-4.1h38.52a2,2,0,0,1,0,4.1Z"/><path class="cls-24" d="M525.21,226.37h-32a2.06,2.06,0,0,1,0-4.11h32a2.06,2.06,0,0,1,0,4.11Z"/><path class="cls-24" d="M597.47,203.79H575.9a2.06,2.06,0,1,1,0-4.11h21.57a2.06,2.06,0,0,1,0,4.11Z"/><path class="cls-24" d="M629.62,203.79H608.05a2.06,2.06,0,0,1,0-4.11h21.57a2.06,2.06,0,1,1,0,4.11Z"/><path class="cls-24" d="M587.89,214.73h-12a2.05,2.05,0,1,1,0-4.1h12a2.05,2.05,0,1,1,0,4.1Z"/><path class="cls-24" d="M637,214.73H598.47a2,2,0,0,1,0-4.1H637a2,2,0,0,1,0,4.1Z"/><path class="cls-24" d="M607.85,226.37h-32a2.06,2.06,0,1,1,0-4.11h32a2.06,2.06,0,0,1,0,4.11Z"/><path class="cls-21" d="M629.17,121.52H595.66a2.05,2.05,0,1,1,0-4.1h33.51a2.05,2.05,0,1,1,0,4.1Z"/><path class="cls-21" d="M629.17,151.07H595.66a2.06,2.06,0,1,1,0-4.11h33.51a2.06,2.06,0,1,1,0,4.11Z"/><path class="cls-21" d="M629.17,180.62H595.66a2.06,2.06,0,1,1,0-4.11h33.51a2.06,2.06,0,1,1,0,4.11Z"/><path class="cls-24" d="M534.82,357.85H493.25a2.06,2.06,0,0,1,0-4.11h41.57a2.06,2.06,0,1,1,0,4.11Z"/><path class="cls-24" d="M567,357.85H545.41a2.06,2.06,0,1,1,0-4.11H567a2.06,2.06,0,0,1,0,4.11Z"/><path class="cls-24" d="M525.25,368.79h-32a2.05,2.05,0,0,1,0-4.1h32a2,2,0,0,1,0,4.1Z"/><path class="cls-24" d="M574.35,368.79H535.83a2,2,0,0,1,0-4.1h38.52a2,2,0,0,1,0,4.1Z"/><path class="cls-24" d="M545.21,380.42h-52a2.05,2.05,0,0,1,0-4.1h52a2,2,0,0,1,0,4.1Z"/><path class="cls-24" d="M620,357.85H578.45a2.06,2.06,0,0,1,0-4.11H620a2.06,2.06,0,0,1,0,4.11Z"/><path class="cls-24" d="M617.57,368.79h-32a2.05,2.05,0,1,1,0-4.1h32a2,2,0,0,1,0,4.1Z"/><path class="cls-24" d="M607.78,380.42h-52a2,2,0,0,1,0-4.1h52a2.05,2.05,0,1,1,0,4.1Z"/><path class="cls-13" d="M612,462.25c-2.52,1.35-11.67,7.95-14.22,8.25s-2.1,4.05,3.75,3.75,17.4-2.7,22.8-3.3,8.41,0,6.75-8Z"/><path class="cls-13" d="M658.27,463.4s-6.65,4.8-10.39,6.11-6.1,4.54,0,4.75,13.67-1.92,19.54-1.92,13.8-.26,13.49-4.15a47.64,47.64,0,0,0-1.21-7.27Z"/><path class="cls-5" d="M616.9,290.16s-7.43,54.59-8.1,101.06,0,70.71,0,70.71,20.19,2.36,31.48,0L643,397.28l8.61,65.7a73.37,73.37,0,0,0,35.7-2.73s-7.41-63-11.79-87.22S663,292.58,663,292.58Z"/><path class="cls-14" d="M573.3,247.22s.9-1.27,0-7.17-1.48-6.52-3.25-6.68-1,5.75-2.16,5.64-2.73-7.65-6.5-7.54-10.06,2-8.59,6.7,7,14.25,13.59,14.94l6.32-2.36Z"/><path class="cls-14" d="M699.28,312.66a23.65,23.65,0,0,0-2,8.18c0,3.85-1.34,6.94.42,6.52s2.92-5.68,4.26-6,.92,8.94,4.51,9.1S721,324.61,716,317.73s-7.49-8.78-7.49-8.78l-6.88,1.66Z"/><path class="cls-13" d="M623.87,194.23c2.12-9.78-7.48-11.64,1.13-21.18s27-9.38,30.29-2.72c0,0,6.81-4.92,14,3.6s-2.28,16.85,6.43,24.42,19.12,18.36,13.44,30.09S664.56,247.75,647,245.29s-28.77-11-29-25.18S622.35,201.21,623.87,194.23Z"/><path class="cls-14" d="M628.72,186.73s-1.34,9.33,0,17.15,2.29,9.09,8.19,11.81,9.58,2.23,16.12-4.31,5.74-13.72,5.74-16.75-1.59-15.48-1.59-15.48L649,175.32Z"/><path class="cls-14" d="M657,193.51s2.55-5.27,5.9-3.67,5.27,13.56-5.9,13.56Z"/><path class="cls-13" d="M635.61,202h-.09c-3-.55-3.07-2.69-3.07-2.78a.53.53,0,0,1,.18-.39A7.72,7.72,0,0,0,635.1,193a.5.5,0,0,1,.47-.53.51.51,0,0,1,.53.47,8.66,8.66,0,0,1-2.62,6.5c.11.4.53,1.29,2.21,1.59a.5.5,0,0,1,.41.59A.51.51,0,0,1,635.61,202Z"/><path class="cls-13" d="M645.18,197a.5.5,0,0,1-.5-.5V191.7a.5.5,0,1,1,1,0v4.77A.5.5,0,0,1,645.18,197Z"/><path class="cls-13" d="M632,197a.5.5,0,0,1-.5-.45,44.41,44.41,0,0,1,0-4.56.48.48,0,0,1,.52-.48.52.52,0,0,1,.48.53s-.13,3.14,0,4.41a.52.52,0,0,1-.45.55Z"/><path class="cls-13" d="M650.75,178.14s-6.24,14.31-22.44,12.77l-.19-8.33,21.45-9.53,11.1,4.83s.85,15.66-.52,16.2S650.49,188.2,650.75,178.14Z"/><polygon class="cls-14" points="638.7 212.99 637.65 235.95 653.97 235.95 652.31 207.69 638.7 212.99"/><path class="cls-22" d="M640.28,232.6s12.22-7.29,12.51-16.76a12,12,0,0,1,7.43,8.38s41.87,30.68,49.16,83c0,0-1.2,5.42-10.1,5.42,0,0-6.69-18.73-31.56-34.3,0,0-1.93,11.8-4.75,14.22s-37,3.88-46.07-2.42c-4.5-3.12,0-6.26-4.5-17.68,0,0-5.19,6.57-18,6.57s-28-25.94-28-25.94,1.73-.35,6.91-5.89a28.35,28.35,0,0,0,21.11,4.11c12.46-2.38,20.5-18.17,34.47-24.52,0,0,3.46-6.54,9.58-8.65C638.46,218.16,637.91,229.25,640.28,232.6Z"/><path class="cls-23" d="M612.4,273a.49.49,0,0,1-.47-.34c-3-8.75-3.87-13.73,1.36-21.58,4.79-7.19,5.43-9.29,5.44-9.31a.49.49,0,0,1,.61-.34.5.5,0,0,1,.35.61c0,.09-.63,2.18-5.57,9.59-4.69,7.05-4.4,11.55-1.25,20.71a.49.49,0,0,1-.31.63A.41.41,0,0,1,612.4,273Z"/><path class="cls-23" d="M655.29,243h-.06c-2.24-.26-3.84-2.57-5.53-5a18.64,18.64,0,0,0-3.42-4.12,5.59,5.59,0,0,0-5.78-.82.48.48,0,0,1-.49,0,4.43,4.43,0,0,0-4.12-.63c-4.17,1.57-6.51,9.56-6.53,9.64a.52.52,0,0,1-.37.35.51.51,0,0,1-.48-.15c-3.67-4-2-10.16-.1-15.58a.5.5,0,1,1,.94.32c-1.67,4.83-3.2,10.23-.66,13.88.77-2.25,3.06-8,6.84-9.4a5.33,5.33,0,0,1,4.78.59,6.57,6.57,0,0,1,6.58,1,19.71,19.71,0,0,1,3.63,4.34c1.5,2.16,2.92,4.22,4.61,4.56.85-.83,5-5.53,4.59-17.74a.5.5,0,0,1,.48-.52.49.49,0,0,1,.52.48c.47,14.12-4.89,18.53-5.12,18.71A.51.51,0,0,1,655.29,243Z"/><path class="cls-23" d="M633.46,294.73l-.14,0c-2.72-.8-2.34-3.77-1.85-7.53a29.45,29.45,0,0,0,.19-9c-1.28-7.33-2.39-13.66,1.17-23.34,3.39-9.22,6.93-22.25,7-22.38a.5.5,0,0,1,1,.26c0,.13-3.59,13.2-7,22.46-3.47,9.44-2.38,15.64-1.12,22.83a30.92,30.92,0,0,1-.19,9.29c-.5,3.86-.67,5.9,1.14,6.44a.5.5,0,0,1,.34.62A.49.49,0,0,1,633.46,294.73Z"/><path class="cls-23" d="M652.83,272a3.16,3.16,0,0,1-1.37-.23l-.5-.25c-2.09-1-7-3.38-7-6.23s1.7-11.5,1.77-11.86a.49.49,0,0,1,.51-.41c19.16.91,19.16,1.73,19.16,2.27s-1,10.28-3.51,13.05C659.86,270.58,655.36,272,652.83,272Zm-6.19-18c-.35,1.81-1.67,8.88-1.67,11.25,0,2.22,4.67,4.48,6.43,5.33l.51.25c1.22.62,7-.75,9.25-3.2,2-2.23,3.12-10.37,3.24-12.13C662.92,255.06,654.42,254.43,646.64,254.05Z"/><path class="cls-23" d="M667.72,278.86h0a.5.5,0,0,1-.48-.52c.12-2.94.8-8,1.45-12.85.6-4.4,1.21-8.94,1.42-12a.5.5,0,1,1,1,.07c-.21,3.08-.82,7.64-1.42,12.05-.65,4.85-1.33,9.86-1.44,12.76A.5.5,0,0,1,667.72,278.86Z"/><path class="cls-25" d="M643,397.78a.51.51,0,0,1-.5-.45c-2.8-28-5.47-50.95-5.5-51.18a.5.5,0,0,1,1-.11c0,.23,2.69,23.22,5.5,51.19a.5.5,0,0,1-.45.55Z"/><path class="cls-22" d="M635.61,204.33a44.75,44.75,0,0,1,8.79-.54s1.55,8.78-3.18,9.18S635.61,204.33,635.61,204.33Z"/><path class="cls-25" d="M642,299c-8.61,0-18-1-24.29-4.31a.49.49,0,0,1-.21-.67.5.5,0,0,1,.68-.21c13.89,7.42,44.42,2.65,44.73,2.6a.5.5,0,0,1,.57.41.51.51,0,0,1-.42.58A148.65,148.65,0,0,1,642,299Z"/><path class="cls-25" d="M637.45,318.89h-4a.5.5,0,0,1-.5-.48l-.75-20.35a.5.5,0,0,1,.48-.52h0a.5.5,0,0,1,.5.48l.74,19.87h3l-.59-19.42a.5.5,0,0,1,1,0l.6,19.94a.5.5,0,0,1-.14.36A.51.51,0,0,1,637.45,318.89Z"/><path class="cls-25" d="M666.16,313.81a.46.46,0,0,1-.22-.06c-.58-.29-14.13-7.26-14.86-15.25a.51.51,0,0,1,.45-.54.52.52,0,0,1,.55.45c.67,7.45,14.17,14.38,14.31,14.45a.5.5,0,0,1-.23.95Z"/><path class="cls-25" d="M615.72,309.39a.5.5,0,0,1-.11-1c7-1.64,7.18-12,7.18-12.07a.51.51,0,0,1,.5-.5h0a.5.5,0,0,1,.49.51c0,.46-.16,11.22-8,13Z"/><path class="cls-8" d="M389.56,409.33H231l-12.13,41.14s13.9,16.09,93.65,16.09,89.22-16.09,89.22-16.09Z"/><ellipse class="cls-5" cx="310.26" cy="409.33" rx="79.31" ry="10.42"/><path class="cls-9" d="M244.77,443.38a5.44,5.44,0,1,1-5.44-5.44A5.44,5.44,0,0,1,244.77,443.38Z"/><path class="cls-10" d="M266.16,447a5.44,5.44,0,1,1-5.43-5.44A5.43,5.43,0,0,1,266.16,447Z"/><polygon class="cls-9" points="378.19 435.14 384.22 433.42 387.23 448.06 380.78 449.92 378.19 435.14"/><polygon class="cls-9" points="366.94 436.99 373.42 436.29 374.99 451.74 366.94 452.86 366.94 436.99"/><g class="cls-26"><polygon class="cls-27" points="403.76 283.8 216.2 283.8 246.2 409.33 373.76 409.33 403.76 283.8"/></g><ellipse class="cls-28" cx="310.26" cy="409.33" rx="64.05" ry="6.33"/><path class="cls-18" d="M310.26,410.33h-.08a1,1,0,0,1-.92-1.07l3.61-45.87a1,1,0,0,1,1.08-.92,1,1,0,0,1,.92,1.08l-3.62,45.87A1,1,0,0,1,310.26,410.33Z"/><path class="cls-18" d="M275.37,410.36a1,1,0,0,1-1-.83L262.77,342a1,1,0,1,1,2-.34l11.62,67.58a1,1,0,0,1-.82,1.16Z"/><path class="cls-18" d="M357.5,407.74a.91.91,0,0,1-.23,0,1,1,0,0,1-.75-1.2l22-96.1a1,1,0,0,1,1.19-.75,1,1,0,0,1,.76,1.2l-22,96.1A1,1,0,0,1,357.5,407.74Z"/><path class="cls-24" d="M157.41,24.87H135.83a2.06,2.06,0,0,1,0-4.11h21.58a2.06,2.06,0,0,1,0,4.11Z"/><path class="cls-24" d="M189.56,24.87H168a2.06,2.06,0,0,1,0-4.11h21.57a2.06,2.06,0,0,1,0,4.11Z"/><path class="cls-24" d="M147.83,35.81h-12a2.05,2.05,0,0,1,0-4.1h12a2,2,0,0,1,0,4.1Z"/><path class="cls-24" d="M196.93,35.81H158.41a2.05,2.05,0,1,1,0-4.1h38.52a2.05,2.05,0,0,1,0,4.1Z"/><path class="cls-24" d="M167.79,47.45h-32a2.06,2.06,0,0,1,0-4.11h32a2.06,2.06,0,0,1,0,4.11Z"/><rect class="cls-5" x="134.24" y="56.08" width="5.37" height="27.84"/><rect class="cls-11" x="145.12" y="68.09" width="5.37" height="15.83"/><rect class="cls-12" x="156" y="61" width="5.37" height="22.91"/><rect class="cls-8" x="473.93" y="14.5" width="6.71" height="6.71"/><rect class="cls-11" x="473.93" y="26.87" width="6.71" height="6.71"/><rect class="cls-12" x="473.93" y="39.24" width="6.71" height="6.71"/><path class="cls-21" d="M507.26,19.06h-19.7a1.21,1.21,0,1,1,0-2.41h19.7a1.21,1.21,0,0,1,0,2.41Z"/><path class="cls-21" d="M507.26,31.43h-19.7a1.21,1.21,0,1,1,0-2.41h19.7a1.21,1.21,0,0,1,0,2.41Z"/><path class="cls-21" d="M507.26,43.8h-19.7a1.21,1.21,0,1,1,0-2.41h19.7a1.21,1.21,0,0,1,0,2.41Z"/></svg>