<svg id="Layer_1" data-name="Layer 1" xmlns="http://www.w3.org/2000/svg" xmlns:xlink="http://www.w3.org/1999/xlink" viewBox="0 0 614.44 504.69"><defs><style>.cls-1{fill:#fff;}.cls-1,.cls-11,.cls-14,.cls-18,.cls-19,.cls-2,.cls-20,.cls-22,.cls-23,.cls-25,.cls-26,.cls-3,.cls-31,.cls-35,.cls-36,.cls-40,.cls-41,.cls-44,.cls-48,.cls-55,.cls-58,.cls-59,.cls-6{fill-rule:evenodd;}.cls-2{opacity:0.5;fill:url(#Gradiente_sem_nome_69);}.cls-3{fill:url(#linear-gradient);}.cls-10,.cls-17,.cls-29,.cls-37,.cls-38,.cls-4,.cls-43,.cls-47,.cls-51{fill:none;}.cls-4{stroke:#455a94;}.cls-17,.cls-4,.cls-43{stroke-linecap:round;}.cls-4,.cls-43{stroke-width:3px;}.cls-5{fill:#455a94;}.cls-6{fill:url(#linear-gradient-2);}.cls-7{fill:url(#linear-gradient-3);}.cls-8{fill:url(#linear-gradient-4);}.cls-9{fill:url(#linear-gradient-5);}.cls-10,.cls-17{stroke:#0b1f6e;stroke-width:2px;}.cls-11{fill:#12348e;}.cls-12{fill:url(#linear-gradient-6);}.cls-13{fill:url(#linear-gradient-7);}.cls-14,.cls-16{fill:#a1a7ff;}.cls-15{fill:#7d97ed;}.cls-18{fill:#1f2a54;}.cls-19{fill:#183754;}.cls-20{fill:#f4bcc1;}.cls-21{mask:url(#mask);}.cls-22{fill:#e78786;}.cls-23{fill:#ffc6cb;}.cls-24{mask:url(#mask-2);}.cls-25{fill:#fd9493;}.cls-26{fill:#2e3c72;}.cls-27{mask:url(#mask-3);}.cls-28{mask:url(#mask-4);}.cls-29{stroke:#fd9493;}.cls-30{mask:url(#mask-5);}.cls-31{fill:#fa3e6a;}.cls-32{mask:url(#mask-6);}.cls-33{mask:url(#mask-10);}.cls-34{fill:#271e1e;}.cls-35{fill:#553d3f;}.cls-36{fill:#8f4447;}.cls-37{stroke:#2e3c72;stroke-miterlimit:10;}.cls-38{stroke:#022329;}.cls-39{fill:#3c3f4d;}.cls-40{fill:#bc9314;}.cls-41{fill:#ffb91f;}.cls-42{fill:url(#linear-gradient-8);}.cls-43{stroke:#fa3e6a;stroke-linejoin:round;}.cls-44{fill:#ee9a89;}.cls-45{mask:url(#mask-11);}.cls-46{mask:url(#mask-12);}.cls-47{stroke:#c17262;}.cls-48{fill:#87a0f9;}.cls-49{mask:url(#mask-13);}.cls-50{mask:url(#mask-14);}.cls-51{stroke:#5c4644;}.cls-52{mask:url(#mask-16);}.cls-53{mask:url(#mask-17);}.cls-54{mask:url(#mask-18);}.cls-55{fill:#c17262;}.cls-56{mask:url(#mask-19);}.cls-57{fill:#352324;}.cls-58{fill:#022329;}.cls-59{fill:#435da8;}.cls-60{fill:url(#linear-gradient-9);}</style><linearGradient id="Gradiente_sem_nome_69" y1="198.49" x2="614.44" y2="198.49" gradientUnits="userSpaceOnUse"><stop offset="0.16" stop-color="#e08197"/><stop offset="1" stop-color="#e08197" stop-opacity="0"/></linearGradient><linearGradient id="linear-gradient" x1="-25.62" y1="825.41" x2="-25.62" y2="824.49" gradientTransform="matrix(233, 0, 0, -480, 6264.62, 396257.38)" gradientUnits="userSpaceOnUse"><stop offset="0" stop-color="#c2ceff"/><stop offset="1" stop-color="#95aaff"/></linearGradient><linearGradient id="linear-gradient-2" x1="-25.62" y1="825.38" x2="-25.62" y2="824.47" gradientTransform="matrix(214.91, 0, 0, -444.57, 5801.53, 367024.9)" gradientUnits="userSpaceOnUse"><stop offset="0" stop-color="#fcfcff"/><stop offset="1" stop-color="#ebefff"/></linearGradient><linearGradient id="linear-gradient-3" x1="-25.67" y1="824.32" x2="-25.67" y2="823.4" gradientTransform="matrix(99.87, 0, 0, -107.49, 2901.46, 88807.24)" gradientUnits="userSpaceOnUse"><stop offset="0" stop-color="#a1b2ff"/><stop offset="1" stop-color="#5679d9"/></linearGradient><linearGradient id="linear-gradient-4" x1="-25.59" y1="824.32" x2="-25.59" y2="823.41" gradientTransform="matrix(99.88, 0, 0, -107.54, 2807.56, 88848.4)" xlink:href="#linear-gradient-3"/><linearGradient id="linear-gradient-5" x1="233.57" y1="183.61" x2="356.23" y2="183.61" gradientTransform="matrix(1, 0, 0, 1, 0, 0)" xlink:href="#linear-gradient"/><linearGradient id="linear-gradient-6" x1="-25.62" y1="823.83" x2="-25.62" y2="822.92" gradientTransform="matrix(195, 0, 0, -74, 5290.64, 61294.82)" gradientUnits="userSpaceOnUse"><stop offset="0" stop-color="#d3e2f9"/><stop offset="1" stop-color="#b4c8e8"/></linearGradient><linearGradient id="linear-gradient-7" x1="-25.76" y1="822.86" x2="-25.76" y2="821.95" gradientTransform="matrix(48.8, 0, 0, -48.8, 1606.41, 40498.72)" xlink:href="#linear-gradient-3"/><mask id="mask" x="444.4" y="328.66" width="41.82" height="160.84" maskUnits="userSpaceOnUse"><g id="scene-18-j"><path id="scene-18-i" class="cls-1" d="M444.4,332.92q7.32,40.92,7.32,46.81c0,5.89-2,23.47,15,71.8q2.73,8.31,2.45,12.61c-.29,4.3,2.13,6.22,2.13,9.54s-2,12.83.4,14.82q2.4,2,14.47,0l-4.68-35.18q-2.64-1.86-2.64-10.18t-7.15-114.48Z"/></g></mask><mask id="mask-2" x="454.46" y="338.43" width="47.2" height="152.85" maskUnits="userSpaceOnUse"><g id="scene-18-l"><path id="scene-18-k" class="cls-1" d="M462.1,341.37q-10.19,35.47-6.79,41.28c3.39,5.8,7.4,14.59,11.5,28.89s11.77,26.8,13.49,35.6.55,9.33,3.43,27.57q2.94,14.46,2.51,16.3,13,1.47,15.05-5c2-6.44-4.94-17.57-4.94-20.73s-.27-7.77-2.14-11.29.22-41.46-8-59.87q-6.17-9.92-5.75-14t15.86-41.76Z"/></g></mask><mask id="mask-3" x="420.71" y="240.92" width="107.19" height="109.51" maskUnits="userSpaceOnUse"><g id="scene-18-n"><path id="scene-18-m" class="cls-1" d="M458.57,240.92q-28.69,39.39-34.93,105.51,8.7,3.75,31.81-1.4t72.45,5.4Q522.51,267.89,510,241.25Z"/></g></mask><mask id="mask-4" x="403.5" y="167.29" width="143.62" height="154.19" maskUnits="userSpaceOnUse"><g id="scene-18-p"><path id="scene-18-o" class="cls-1" d="M487.43,167.29,453,170.4q-11,1.11-11.62,18.29c-.63,17.17-1.92,37.68-7.69,47.85s-10.36,30.78-14.17,43.63A41,41,0,0,1,405,300.68c-1.09.92-2.07,2.54-1.22,6.19-.21,5.74.57,8.6,2.33,8.6,0,.84.45,1.36,1.45,1.56,1.49.31,5.93-5.58,6.4-7.95s1.66-3,2.81-4.08,5.12-5.48,5.12-9.08a85.46,85.46,0,0,1,7.55-12.76c4-5.51,19.47-30.69,19.47-37.08S457,219.76,457,207s3.13,20.32,1.57,34q11.1,1.08,16.17,1.82c6,.88,14.25,1.8,17.38,1.82A51.89,51.89,0,0,0,510,241.25q6-17.35,6-23.72.22,15.65.66,24.3c.43,8.65,8.92,39.38,11.56,48.71s-.12,11.42,3.11,16.7,2.53,12.56,4.06,13.73a1.51,1.51,0,0,0,2.51-.37c2.8.47,4.8.4,6-.21,1.83-.93,1.44-5.3,2.49-7.57s1.12-3.33-1-5.58-6.54-7.21-7.49-10.54-1.69-17.21-1.69-31.46-3.47-26.44-4.06-33.27a168.5,168.5,0,0,1,.87-30.18c1.29-9.23,1-24.42-11.49-27.72Q509.05,170.76,487.43,167.29Z"/></g></mask><mask id="mask-5" x="403.5" y="166.99" width="143.62" height="154.48" maskUnits="userSpaceOnUse"><g id="scene-18-p-2" data-name="scene-18-p"><path id="scene-18-o-2" data-name="scene-18-o" class="cls-1" d="M487.43,167.29,453,170.4q-11,1.11-11.62,18.29c-.63,17.17-1.92,37.68-7.69,47.85s-10.36,30.78-14.17,43.63A41,41,0,0,1,405,300.68c-1.09.92-2.07,2.54-1.22,6.19-.21,5.74.57,8.6,2.33,8.6,0,.84.45,1.36,1.45,1.56,1.49.31,5.93-5.58,6.4-7.95s1.66-3,2.81-4.08,5.12-5.48,5.12-9.08a85.46,85.46,0,0,1,7.55-12.76c4-5.51,19.47-30.69,19.47-37.08S457,219.76,457,207s3.13,20.32,1.57,34q11.1,1.08,16.17,1.82c6,.88,14.25,1.8,17.38,1.82A51.89,51.89,0,0,0,510,241.25q6-17.35,6-23.72.22,15.65.66,24.3c.43,8.65,8.92,39.38,11.56,48.71s-.12,11.42,3.11,16.7,2.53,12.56,4.06,13.73a1.51,1.51,0,0,0,2.51-.37c2.8.47,4.8.4,6-.21,1.83-.93,1.44-5.3,2.49-7.57s1.12-3.33-1-5.58-6.54-7.21-7.49-10.54-1.69-17.21-1.69-31.46-3.47-26.44-4.06-33.27a168.5,168.5,0,0,1,.87-30.18c1.29-9.23,1-24.42-11.49-27.72Q509.05,170.76,487.43,167.29Z"/></g></mask><mask id="mask-6" x="456.79" y="166.99" width="62.56" height="79.41" maskUnits="userSpaceOnUse"><g id="scene-18-r"><path id="scene-18-q" class="cls-1" d="M456.79,169.72c0,.09,7.4,14.85.56,34.65L458.2,241q23.67,4.31,37.18,4.61t15-3.45a70.54,70.54,0,0,0,5.68-23.91q5.73-24.88,1.49-46.72-2.68-.08-12.85-2.68t-39.21-1.56Q456.79,169.65,456.79,169.72Z"/></g></mask><mask id="mask-10" x="473" y="144.58" width="27.73" height="34.29" maskUnits="userSpaceOnUse"><g id="scene-18-u"><path id="scene-18-t" class="cls-1" d="M491.82,144.58Q492.92,161,494,164c.72,2,3,3.21,6.73,3.74q-8.55,11.16-17.34,11.16T473,168.57q5.37-1.31,6.48-5t-1.28-10.24Z"/></g></mask><linearGradient id="linear-gradient-8" x1="-25.62" y1="823.93" x2="-25.62" y2="823.02" gradientTransform="matrix(195, 0, 0, -74, 5290.64, 61378.82)" xlink:href="#linear-gradient-6"/><mask id="mask-11" x="66.48" y="232.63" width="85.43" height="226.34" maskUnits="userSpaceOnUse"><g id="scene-18-z"><path id="scene-18-y" class="cls-1" d="M74.4,232.63q-12.56,23.31-5.07,69.31c7.49,46,5.07,58.2,5.07,67.46S73.14,402.27,82.31,459H104q2.06-71.66-1.19-86.26,2.94-32.28,3.86-49.35.66-12.14,1.68-36.22,9.09,71.28,12.8,81.94-3.7,40.5,2.44,89.89h22.33q5-68.18,2.22-89.57c-2.75-21.39,11-96.8-9.3-134.48Z"/></g></mask><mask id="mask-12" x="145.7" y="89.63" width="58.23" height="103.34" maskUnits="userSpaceOnUse"><g id="scene-18-B"><path id="scene-18-A" class="cls-1" d="M169.65,165.28q6.36-34.17,7.15-40.22-3.74-9.68-2.45-16l1.19-10.3q2.44.51,2.44,6.11c0,5.61,1.24,4.92,2.16,4.19s7.28-6.33,11.61-16.75c.92-2,1.9-2.84,3-2.43a1.56,1.56,0,0,1,.89,2c1.11-1.69,2.05-2.42,2.83-2.19,1.17.35,1.75,1.91.89,3.81,1-.81,1.79-1,2.54-.45,1.12.76.82,2.14.34,3.09-.31.63-.84,1.78-1.58,3.45q2.24-1.83,3-1.23c.8.6-.13,2.76-2.4,6.09s-7.16,18.91-13.83,21.62v49.68Q186.48,193,175.54,193c-10.94,0-16.19-7.38-29.84-22.2L161.05,157Z"/></g></mask><mask id="mask-13" x="31.91" y="128.85" width="136.35" height="116.28" maskUnits="userSpaceOnUse"><g id="scene-18-D"><path id="scene-18-C" class="cls-1" d="M98,128.85q-16.5,3.22-22.65,4.71c-11.17,2.69-15.05,2.6-20.79,10q-2.59,3.34-22.67,35l22.67,11.75Q66.9,173.51,68.33,172a206.3,206.3,0,0,1,6,29.23q1,9.48-1,34.58,43.5,10.38,66,0,.38-25.17,0-34.58c-.76-19.86-2.45-30.53-2.15-33.17l14.43,12.82,16.63-18.4q-27.47-30-31.51-31.28Q129.76,128.92,98,128.85Z"/></g></mask><mask id="mask-14" x="31.91" y="128.85" width="136.35" height="112.17" maskUnits="userSpaceOnUse"><g id="scene-18-D-2" data-name="scene-18-D"><path id="scene-18-C-2" data-name="scene-18-C" class="cls-1" d="M98,128.85q-16.5,3.22-22.65,4.71c-11.17,2.69-15.05,2.6-20.79,10q-2.59,3.34-22.67,35l22.67,11.75Q66.9,173.51,68.33,172a206.3,206.3,0,0,1,6,29.23q1,9.48-1,34.58,43.5,10.38,66,0,.38-25.17,0-34.58c-.76-19.86-2.45-30.53-2.15-33.17l14.43,12.82,16.63-18.4q-27.47-30-31.51-31.28Q129.76,128.92,98,128.85Z"/></g></mask><mask id="mask-16" x="30.7" y="128.85" width="143.17" height="112.17" maskUnits="userSpaceOnUse"><g id="scene-18-D-4" data-name="scene-18-D"><path id="scene-18-C-4" data-name="scene-18-C" class="cls-1" d="M98,128.85q-16.5,3.22-22.65,4.71c-11.17,2.69-15.05,2.6-20.79,10q-2.59,3.34-22.67,35l22.67,11.75Q66.9,173.51,68.33,172a206.3,206.3,0,0,1,6,29.23q1,9.48-1,34.58,43.5,10.38,66,0,.38-25.17,0-34.58c-.76-19.86-2.45-30.53-2.15-33.17l14.43,12.82,16.63-18.4q-27.47-30-31.51-31.28Q129.76,128.92,98,128.85Z"/></g></mask><mask id="mask-17" x="22.39" y="179.01" width="68.4" height="79.22" maskUnits="userSpaceOnUse"><g id="scene-18-F"><path id="scene-18-E" class="cls-1" d="M33.88,221.1Q66.75,238.37,69.28,243c2.52,4.6,2.52,13.37,4.74,15.26l13-10.46-3.7-5.8,5.76,4,1.72-1.35q-3.74-6.66-9-9T75.81,233l-32-29.67,8.92-14.27L33.88,179A151.47,151.47,0,0,0,26,192.76c-4.42,9.05-3.62,15.3-3.35,17Q23.24,213.69,33.88,221.1Z"/></g></mask><mask id="mask-18" x="82.19" y="110.86" width="38.13" height="31.02" maskUnits="userSpaceOnUse"><g id="scene-18-H"><path id="scene-18-G" class="cls-1" d="M112.2,113.5q.08,9.66,1.32,12.64c.83,2,3.09,3,6.8,3.15q-5.8,12.6-17.7,12.59T82.19,132l2.75-.59c3.88-.88,6.11-2.53,6.93-5.26q1.5-5,.71-12.64Z"/></g></mask><mask id="mask-19" x="80.46" y="113.5" width="41.1" height="29.45" maskUnits="userSpaceOnUse"><g id="scene-18-H-2" data-name="scene-18-H"><path id="scene-18-G-2" data-name="scene-18-G" class="cls-1" d="M112.2,113.5q.08,9.66,1.32,12.64c.83,2,3.09,3,6.8,3.15q-5.8,12.6-17.7,12.59T82.19,132l2.75-.59c3.88-.88,6.11-2.53,6.93-5.26q1.5-5,.71-12.64Z"/></g></mask><linearGradient id="linear-gradient-9" x1="-25.98" y1="823.78" x2="-25.98" y2="822.87" gradientTransform="matrix(71.92, 0, 0, -71.79, 2415.16, 59475.93)" xlink:href="#linear-gradient-3"/></defs><title>Right Offer, Right Place, Right Time</title><path class="cls-2" d="M3.42,235.9c-23.43,133,78.16,170.93,165,151.54s113.17-15.79,232,5.05,189.26-32.11,210.43-133S560.72,48.32,390.16,7.39,26.84,102.92,3.42,235.9Z"/><path class="cls-3" d="M210.94,62.06H378a22.81,22.81,0,0,1,22.81,22.81V477.28A22.82,22.82,0,0,1,378,500.1h-167a22.82,22.82,0,0,1-22.81-22.82V84.87A22.81,22.81,0,0,1,210.94,62.06Z"/><path class="cls-4" d="M280.37,73h37.94"/><ellipse class="cls-5" cx="267.74" cy="73.53" rx="2.91" ry="3.13"/><path class="cls-6" d="M217,82.92H372.87A20.12,20.12,0,0,1,393,103V468.5a20.12,20.12,0,0,1-20.12,20.13H217a20.12,20.12,0,0,1-20.12-20.13V103A20.12,20.12,0,0,1,217,82.92Z"/><path class="cls-7" d="M349.27,205.83a5.62,5.62,0,0,0-7.93-1.91l-47.11,30.7a5.6,5.6,0,0,0-1.8,7.49l38.12,59,13.44-37L382.83,271Z"/><path class="cls-8" d="M294.29,234.63l-47.11-30.7a5.5,5.5,0,0,0-4.37-.75,5.57,5.57,0,0,0-3.55,2.65L205.69,271l38.83-6.84,14.18,37,37.39-59A5.58,5.58,0,0,0,294.29,234.63Z"/><circle class="cls-9" cx="294.9" cy="183.61" r="61.33"/><ellipse class="cls-10" cx="294.9" cy="184.25" rx="48.55" ry="47.91"/><polygon class="cls-11" points="294.26 198.63 277.37 207.51 280.59 188.69 266.92 175.37 285.81 172.62 294.26 155.5 302.71 172.62 321.6 175.37 307.93 188.69 311.16 207.51 294.26 198.63"/><rect class="cls-12" x="204.88" y="331.27" width="177.95" height="67.53" rx="8.21"/><circle class="cls-13" cx="349.11" cy="365.4" r="22.27"/><path class="cls-14" d="M359.26,359.61a.75.75,0,0,0-.58-.27H340.37a.79.79,0,0,0-.6.29.78.78,0,0,0-.13.66l2.42,9a.74.74,0,0,0,.72.55h0l14.39-.72a.77.77,0,0,0,.71-.62l1.51-8.28A.74.74,0,0,0,359.26,359.61Z"/><path class="cls-15" d="M354.09,366.85a.75.75,0,0,1-.75-.76v-3a.75.75,0,1,1,1.5,0v3A.76.76,0,0,1,354.09,366.85Zm-4.51,0a.76.76,0,0,1-.75-.76v-3a.75.75,0,1,1,1.5,0v3A.75.75,0,0,1,349.58,366.85Zm-4.5,0a.75.75,0,0,1-.75-.76v-3a.75.75,0,1,1,1.5,0v3A.76.76,0,0,1,345.08,366.85Z"/><circle class="cls-16" cx="345.05" cy="376.63" r="2.26"/><circle class="cls-16" cx="354.11" cy="376.63" r="2.26"/><path class="cls-16" d="M355.62,372.86H343.54a.76.76,0,0,1-.73-.56l-3.88-14.52H336a.74.74,0,0,1-.75-.75.75.75,0,0,1,.75-.76h3.52a.76.76,0,0,1,.73.56l3.88,14.53h11.5a.75.75,0,0,1,0,1.5Z"/><path class="cls-17" d="M229.52,348.15h86.69m-86.69,16.43h86.69M229.52,381h86.69"/><path class="cls-18" d="M423.64,346.43q91.89,10.9,104.26,4-14.79-6.29-34.92-12.71t-69.34,7.69"/><path class="cls-19" d="M470.48,484.65q-2.49,8-1.66,12.2c.83,4.18,10.75,5.69,18.8,3.44q8.07-2.27-2.46-13.25Z"/><path class="cls-19" d="M486.22,488.92a22.92,22.92,0,0,0,.75,13.13c2.29,6.38,18.08.05,19.13-6.94s-2.15-11.48-3.77-21.62.12-9.92-2.67-14.27c-1.86-2.91-3.86-4.6-6-5.07Z"/><path class="cls-20" d="M444.4,332.92q7.32,40.92,7.32,46.81c0,5.89-2,23.47,15,71.8q2.73,8.31,2.45,12.61c-.29,4.3,2.13,6.22,2.13,9.54s-2,12.83.4,14.82q2.4,2,14.47,0l-4.68-35.18q-2.64-1.86-2.64-10.18t-7.15-114.48Z"/><g class="cls-21"><path class="cls-22" d="M447.24,354.55q4.63-2.83,12.59-4.12l3.66-9.45-19.09,5.29Z"/></g><path class="cls-23" d="M462.1,341.37q-10.19,35.47-6.79,41.28c3.39,5.8,7.4,14.59,11.5,28.89s11.77,26.8,13.49,35.6.55,9.33,3.43,27.57q2.94,14.46,2.51,16.3,13,1.47,15.05-5c2-6.44-4.94-17.57-4.94-20.73s-.27-7.77-2.14-11.29.22-41.46-8-59.87q-6.17-9.92-5.75-14t15.86-41.76Z"/><g class="cls-24"><path class="cls-25" d="M493.91,344.41q-31,2.26-35.22,8.13l2-10.36q11.61-.37,17.36,0A150.64,150.64,0,0,1,493.91,344.41Z"/></g><path class="cls-26" d="M458.57,240.92q-28.69,39.39-34.93,105.51,8.7,3.75,31.81-1.4t72.45,5.4Q522.51,267.89,510,241.25Z"/><g class="cls-27"><path class="cls-18" d="M511,244.56c-2.07,1.2-38.19,3.25-49.49,16.37s-23.71,57.49-22.28,87.9l-18.49.26q2.67-52.71,12.43-67.34t22.41-40.83H512.1C512.73,242.55,512.35,243.77,511,244.56Z"/></g><path class="cls-23" d="M487.43,167.29,453,170.4q-11,1.11-11.62,18.29c-.63,17.17-1.92,37.68-7.69,47.85s-10.36,30.78-14.17,43.63A41,41,0,0,1,405,300.68c-1.09.92-2.07,2.54-1.22,6.19-.21,5.74.57,8.6,2.33,8.6,0,.84.45,1.36,1.45,1.56,1.49.31,5.93-5.58,6.4-7.95s1.66-3,2.81-4.08,5.12-5.48,5.12-9.08a85.46,85.46,0,0,1,7.55-12.76c4-5.51,19.47-30.69,19.47-37.08S457,219.76,457,207s3.13,20.32,1.57,34q11.1,1.08,16.17,1.82c6,.88,14.25,1.8,17.38,1.82A51.89,51.89,0,0,0,510,241.25q6-17.35,6-23.72.22,15.65.66,24.3c.43,8.65,8.92,39.38,11.56,48.71s-.12,11.42,3.11,16.7,2.53,12.56,4.06,13.73a1.51,1.51,0,0,0,2.51-.37c2.8.47,4.8.4,6-.21,1.83-.93,1.44-5.3,2.49-7.57s1.12-3.33-1-5.58-6.54-7.21-7.49-10.54-1.69-17.21-1.69-31.46-3.47-26.44-4.06-33.27a168.5,168.5,0,0,1,.87-30.18c1.29-9.23,1-24.42-11.49-27.72Q509.05,170.76,487.43,167.29Z"/><g class="cls-28"><path class="cls-29" d="M516.06,218.25q4.43-15.12,4.42-22.78"/></g><g class="cls-30"><path class="cls-31" d="M456.79,169.72c0,.09,7.4,14.85.56,34.65L458.2,241q23.67,4.31,37.18,4.61t15-3.45a70.54,70.54,0,0,0,5.68-23.91q5.73-24.88,1.49-46.72-2.68-.08-12.85-2.68t-39.21-1.56Q456.79,169.65,456.79,169.72Z"/><g class="cls-32"><path class="cls-31" d="M457.32,169.22q6.24,15.1,2.16,32.24-.93,12.06,5.42,16.79c6.35,4.74,47.68,6.4,52-3.95q-4.32,24.39-6.39,27c-.85,1.08-7.2,5.33-20.57,5.07q-8.25-.16-32.62-5.07l.61-17.39-.61-40.84Z"/></g></g><g class="cls-28"><path class="cls-29" d="M458.54,191.35a79,79,0,0,0-1.15,9.9c-.09,1.23-.09,3.41,0,6.56"/></g><g class="cls-28"><path class="cls-25" d="M538.55,318.74c2.87-.25,1.76-1.48,1-3.74-.52-1.5-1.33-3.54-2.45-6.12a38.75,38.75,0,0,1,1.47,6.95,12.66,12.66,0,0,1-.65,4.77Z"/></g><g class="cls-28"><polygon class="cls-25" points="406.15 315.47 410.95 307.41 406.88 310.74 406.15 315.47"/></g><path id="scene-18-s" class="cls-26" d="M464.72,134.88q-2.31-19.84,6.63-20.45a22.39,22.39,0,0,1,11.12-5.29c6.86-1.35,23.33,2.6,20.88,24.66S467,154.71,464.72,134.88Z"/><path class="cls-23" d="M491.82,144.58Q492.92,161,494,164c.72,2,3,3.21,6.73,3.74q-8.55,11.16-17.34,11.16T473,168.57q5.37-1.31,6.48-5t-1.28-10.24Z"/><g class="cls-33"><path class="cls-25" d="M474.67,164.59q4.81-2.28,8.72-4.45t6.38-11.08l-15.57,5.81Z"/></g><path class="cls-23" d="M494.5,136c2.27,0,3.49,1,3.49,2.51q0,4.08-4.83,5.29C490.8,152.36,483.32,157,477,157c-7.25,0-11.38-7.73-9.76-27.41a6.86,6.86,0,0,1,1.38-3.47,6.53,6.53,0,0,1,3.33-2.28q3.91,8,10.5,10.35A28.31,28.31,0,0,0,494.5,136Z"/><ellipse class="cls-34" cx="477.96" cy="136.92" rx="1.39" ry="1.37"/><ellipse class="cls-34" cx="469.52" cy="137.2" rx="1.39" ry="1.37"/><path class="cls-35" d="M467.43,132.06a5.85,5.85,0,0,1,2.56-.44c1,0,.89.84.22.76a4.68,4.68,0,0,0-2.2.09C466.89,132.75,466.77,132.39,467.43,132.06Z"/><path class="cls-35" d="M480.38,132a16.77,16.77,0,0,0-4.31-.58c-1,0-.93,1-.14.85a15.88,15.88,0,0,1,3.87.14C480.7,132.59,481,132.33,480.38,132Z"/><path class="cls-25" d="M475.39,143.17a2.62,2.62,0,0,1-2.34,1.59c-1,0-1.48-.44-1.5-1.31,0,.22.45.33,1.28.33A6.06,6.06,0,0,0,475.39,143.17Z"/><path class="cls-36" d="M477.71,147.11a24.5,24.5,0,0,1-3.76.76,13.14,13.14,0,0,1-3.1-.2,3.27,3.27,0,0,0,3.1,2.27C475.36,149.94,476.61,149,477.71,147.11Z"/><path class="cls-37" d="M483.13,136.67l11.92-3.54"/><path class="cls-26" d="M494,147.31q13.23,10.78,11,21.19c-2.19,10.39-11.66,9.16-9.44,23.81q-11.42-2.64-12.12-10.07c-.71-7.43,8.46-11.42,8.46-21.6l.1-12.1Z"/><path class="cls-38" d="M492.33,150.05q-.87,15.24-4.18,19.67c-3.3,4.43-11.07,14,.52,19.68"/><path class="cls-26" d="M472,123.69q.57,6.92,12.63,11.95,9,5.56,7.06,17.93,10.46-6.34,7.73-14.94c-2.73-8.6-11.19-7.92-17.59-9A14.52,14.52,0,0,1,472,123.69Zm0,.16q-5.6,6.3-4.75,18.91-3.84-2.34-3.64-9.16T472,123.85Z"/><circle class="cls-37" cx="469.5" cy="137.12" r="3.99"/><circle class="cls-37" cx="479.13" cy="137.12" r="3.99"/><path class="cls-37" d="M475.13,136.67h-1.64"/><path class="cls-39" d="M414.15,308.41a15.88,15.88,0,0,1,10.61,15v13.3a1.33,1.33,0,0,1-1.33,1.34h0a1.33,1.33,0,0,1-1.32-1.34V323.4a13.19,13.19,0,0,0-8.83-12.46m-4-.72H409a13.16,13.16,0,0,0-13.1,13.18v13.3a1.33,1.33,0,1,1-2.65,0V323.4A15.82,15.82,0,0,1,409,307.54a15.43,15.43,0,0,1,1.81.11"/><polygon class="cls-40" points="442.33 396.06 375.21 396.06 382.02 330.55 435.51 330.55 436.65 341.48 442.33 396.06"/><polygon class="cls-41" points="447.3 396.06 381.67 396.06 388.46 330.55 440.52 330.55 441.65 341.48 447.3 396.06"/><path class="cls-39" d="M414.52,307.55a15.83,15.83,0,0,1,15.21,15.85v13.3a1.33,1.33,0,0,1-1.32,1.34h0a1.33,1.33,0,0,1-1.33-1.34V323.4A13.16,13.16,0,0,0,414,310.22h-.38m-5,1.17a13.21,13.21,0,0,0-7.68,12v13.3a1.33,1.33,0,1,1-2.66,0V323.4a15.86,15.86,0,0,1,12.49-15.52"/><rect class="cls-42" x="204.88" y="407.93" width="177.95" height="67.53" rx="8.21"/><circle class="cls-16" cx="345.42" cy="441.69" r="15.51"/><polyline class="cls-43" points="337.2 445.13 343.44 448.99 351.8 434.39"/><path class="cls-17" d="M229.52,424.81h86.69m-86.69,16.43h86.69m-86.69,16.42h86.69"/><polygon class="cls-44" points="144.23 458.02 144.23 468.72 129.29 475.22 126.08 472.2 126.08 455.45 144.23 458.02"/><path class="cls-44" d="M100.24,456.45l1.49,21.5H83.58q4.77-14.83,2.09-24.73T100.24,456.45Z"/><path class="cls-19" d="M160.25,483.2c7.19,3.9,9,6.05,9,9.49q-20.51,5.82-28.83-1.14-4.65-5.49-7.5-.78l-9.73-.9q-1.81-14.16,2.47-21.51a5.56,5.56,0,0,0,5.73,3.37c3.86-.27,10-5.5,12.93-6.17Q153.07,479.32,160.25,483.2Zm-60.73-13q-6.93-6.82-14-.88a27.11,27.11,0,0,1-5.7,12.22c-4.19,4.95-8.59,10.1-3.81,16.65q14.73,1.59,21.1-3.27a16,16,0,0,0,.2-3.75c1.62.53,3.85.12,6.67-1.23.1-6.36-.2-11.09-.89-14.16C102.79,474.47,101.61,472.61,99.52,470.2Z"/><path class="cls-11" d="M74.4,232.63q-12.56,23.31-5.07,69.31c7.49,46,5.07,58.2,5.07,67.46S73.14,402.27,82.31,459H104q2.06-71.66-1.19-86.26,2.94-32.28,3.86-49.35.66-12.14,1.68-36.22,9.09,71.28,12.8,81.94-3.7,40.5,2.44,89.89h22.33q5-68.18,2.22-89.57c-2.75-21.39,11-96.8-9.3-134.48Z"/><g class="cls-45"><path class="cls-11" d="M151.91,235.65q-16,5.81-24.94,8c-14.07,3.54-30.65,6-35.13,9.46q-25.78,19.66-20.25,67.13Q60,257.46,74.72,232.71Z"/></g><path class="cls-44" d="M169.65,165.28q6.36-34.17,7.15-40.22-3.74-9.68-2.45-16l1.19-10.3q2.44.51,2.44,6.11c0,5.61,1.24,4.92,2.16,4.19s7.28-6.33,11.61-16.75c.92-2,1.9-2.84,3-2.43a1.56,1.56,0,0,1,.89,2c1.11-1.69,2.05-2.42,2.83-2.19,1.17.35,1.75,1.91.89,3.81,1-.81,1.79-1,2.54-.45,1.12.76.82,2.14.34,3.09-.31.63-.84,1.78-1.58,3.45q2.24-1.83,3-1.23c.8.6-.13,2.76-2.4,6.09s-7.16,18.91-13.83,21.62v49.68Q186.48,193,175.54,193c-10.94,0-16.19-7.38-29.84-22.2L161.05,157Z"/><g class="cls-46"><path class="cls-47" d="M195.68,91.69a54.92,54.92,0,0,1-5.38,11.46m9-9.67a81,81,0,0,1-5.67,11.76m7.19-5.88c-2.37,4.29-3.69,6.68-4,7.17m-7.69-4.29a56,56,0,0,1,8.16,4.65m-15.68,3.89a8.67,8.67,0,0,1,2.69,9m-14.69,45.51q-1.68,5,0,15.61"/></g><path class="cls-48" d="M98,128.85q-16.5,3.22-22.65,4.71c-11.17,2.69-15.05,2.6-20.79,10q-2.59,3.34-22.67,35l22.67,11.75Q66.9,173.51,68.33,172a206.3,206.3,0,0,1,6,29.23q1,9.48-1,34.58,43.5,10.38,66,0,.38-25.17,0-34.58c-.76-19.86-2.45-30.53-2.15-33.17l14.43,12.82,16.63-18.4q-27.47-30-31.51-31.28Q129.76,128.92,98,128.85Z"/><g class="cls-49"><path class="cls-48" d="M73,160.51q5.23,38.58,33.33,43.56t33.2-8.76l1.95,42.49q-54.06,14.65-71.2,0t-2.72-65.08Z"/></g><g class="cls-50"><path class="cls-51" d="M73,160.51,67.53,173.4"/></g><g class="cls-50"><path class="cls-48" d="M150.75,182.3l-13.52-14.14q1.89-12,0-16.79,1,2.7,1.59,4.62c1.1,3.75,2.3,8.47,3.58,10.5q2.9,4.62,11.53,12.45Z"/></g><g class="cls-52"><path class="cls-51" d="M137.23,151.37a38.94,38.94,0,0,1,0,17.45m-92.84,34.6a17.38,17.38,0,0,0-13.45,1.9m138.71-40q-2,9.27,3.87,14.88"/></g><path class="cls-44" d="M33.88,221.1Q66.75,238.37,69.28,243c2.52,4.6,2.52,13.37,4.74,15.26l13-10.46-3.7-5.8,5.76,4,1.72-1.35q-3.74-6.66-9-9T75.81,233l-32-29.67,8.92-14.27L33.88,179A151.47,151.47,0,0,0,26,192.76c-4.42,9.05-3.62,15.3-3.35,17Q23.24,213.69,33.88,221.1Z"/><g class="cls-53"><path class="cls-47" d="M43.78,203.35a19,19,0,0,0-12.84,2"/></g><path class="cls-11" d="M118.66,93.81c4.76-14.37-1-26.22-14.68-27.53-4.62-.44-13.36,1-17.71,6.94s-2.13,19.16-.38,22.37S98.56,98.23,118.66,93.81Z"/><path class="cls-44" d="M112.2,113.5q.08,9.66,1.32,12.64c.83,2,3.09,3,6.8,3.15q-5.8,12.6-17.7,12.59T82.19,132l2.75-.59c3.88-.88,6.11-2.53,6.93-5.26q1.5-5,.71-12.64Z"/><g class="cls-54"><path class="cls-55" d="M112.3,115.58a34.37,34.37,0,0,1-21,11.39l1.74-16.11,19.53.2Z"/></g><g class="cls-56"><path class="cls-48" d="M118.19,129.16q-14.09,16.18-30.66,1l-7.07,1.15q5.67,13.44,27,11.42,13.38-7.22,14.07-13.84Z"/></g><path class="cls-44" d="M86.53,90.09c-2.42-.94-3.89-.94-4.39,0-.71,1.31.39,3.08,1.34,5.2s.29,4.84,2.45,4.22Q88.1,98.88,86.53,90.09Z"/><path class="cls-44" d="M117.52,89.84q3.78-.95,4.54.47c.7,1.31-.7,2.57-1.64,4.71s-.3,4.54-2.35,4.54Q115.88,99.56,117.52,89.84Z"/><path class="cls-44" d="M113.09,81.93a4.49,4.49,0,0,1,2.88,1,3.8,3.8,0,0,1,1.46,2.65c2.15,26.46-7.09,33.72-15.46,33.29-7.22.58-17.44-5.37-15.32-33.4a3.44,3.44,0,0,1,1.54-2.85,3.58,3.58,0,0,1,3-.69A35,35,0,0,0,102,83.71,38.54,38.54,0,0,0,113.09,81.93Z"/><path class="cls-55" d="M103.9,103.06c-.46,1.28-1.16,1.91-2.12,1.91s-1.66-.63-2.12-1.91a3.44,3.44,0,0,0,4.24,0Z"/><ellipse class="cls-57" cx="96.7" cy="94.95" rx="1.37" ry="1.34"/><ellipse class="cls-57" cx="106.7" cy="94.95" rx="1.37" ry="1.34"/><path class="cls-35" d="M110,91.19a16.81,16.81,0,0,0-4.43-.61c-1,0-1,1-.15.9a15.79,15.79,0,0,1,4,.14C110.36,91.82,110.71,91.54,110,91.19Z"/><path class="cls-35" d="M94,91.19a16.89,16.89,0,0,1,4.44-.61c1,0,1,1,.14.9a15.81,15.81,0,0,0-4,.14C93.68,91.82,93.33,91.54,94,91.19Z"/><path class="cls-36" d="M107.05,109.72q-5.26,6.32-10.66,0Z"/><rect class="cls-38" x="90.92" y="92.5" width="9.96" height="5.74"/><rect class="cls-38" x="103.22" y="92.5" width="9.96" height="5.74"/><path class="cls-38" d="M103.22,95.37h-2.34m-9.55-1.68-5.53-4.3"/><path class="cls-38" d="M112.6,93.45l5.54-4.34"/><path class="cls-58" d="M102.58,105.32q7.08,1.71,7.08,3.1c0,.66-1.42.13-3.83-.53a29.21,29.21,0,0,0-3.25-.59Z"/><path class="cls-58" d="M101.46,105.32q-7.08,1.71-7.08,3.1c0,.66,1.42.13,3.83-.53a29.68,29.68,0,0,1,3.25-.59Z"/><path class="cls-39" d="M546.06,313.75a15.86,15.86,0,0,1,11,15.12v13.31a1.33,1.33,0,0,1-1.33,1.33h0a1.32,1.32,0,0,1-1.33-1.33V328.87a13.19,13.19,0,0,0-8.85-12.47m-5.81-.61a13.16,13.16,0,0,0-11.53,13.08v13.31a1.33,1.33,0,0,1-2.66,0V328.87a15.84,15.84,0,0,1,13.3-15.66"/><polygon class="cls-59" points="574.66 401.54 507.53 401.54 514.35 336.02 567.84 336.02 568.98 346.96 574.66 401.54"/><polygon class="cls-60" points="579.63 401.54 514 401.54 520.78 336.02 572.84 336.02 573.98 346.96 579.63 401.54"/><path class="cls-39" d="M546.31,313a15.82,15.82,0,0,1,15.75,15.85v13.31a1.33,1.33,0,1,1-2.66,0V328.87a13.15,13.15,0,0,0-13.09-13.18h-.61m-5.38,1.46a13.2,13.2,0,0,0-7.11,11.72v13.31a1.33,1.33,0,1,1-2.66,0V328.87a15.9,15.9,0,0,1,8.81-14.23"/></svg>