<svg id="Layer_1" data-name="Layer 1" xmlns="http://www.w3.org/2000/svg" xmlns:xlink="http://www.w3.org/1999/xlink" viewBox="0 0 512 388.74"><defs><style>.cls-1{fill:#455a93;}.cls-2{fill:#fff;}.cls-3{fill:#c9e5ee;}.cls-4{fill:url(#linear-gradient);}.cls-5{fill:url(#linear-gradient-2);}.cls-6{fill:url(#linear-gradient-3);}.cls-7{fill:url(#linear-gradient-4);}.cls-29,.cls-8{fill:none;}.cls-9{fill:#f8a2bf;}.cls-10{fill:url(#linear-gradient-5);}.cls-11{fill:url(#linear-gradient-6);}.cls-12{fill:url(#linear-gradient-7);}.cls-13{fill:url(#linear-gradient-8);}.cls-14{fill:url(#linear-gradient-9);}.cls-15{fill:url(#linear-gradient-10);}.cls-16{fill:url(#linear-gradient-11);}.cls-17{fill:url(#linear-gradient-12);}.cls-18{fill:url(#linear-gradient-13);}.cls-19{fill:url(#linear-gradient-14);}.cls-20{fill:url(#linear-gradient-15);}.cls-21{fill:#26286b;}.cls-22{fill:#e3c39d;}.cls-23{fill:#183754;}.cls-24{fill:url(#linear-gradient-16);}.cls-25{fill:url(#linear-gradient-17);}.cls-26{fill:url(#linear-gradient-18);}.cls-27{fill:#c3b8a0;}.cls-28{fill:#f6f4f3;}.cls-29{stroke:#dbb891;stroke-miterlimit:10;stroke-width:1.03px;}.cls-30{fill:#0d1034;}.cls-31{fill:#160c16;}.cls-32{fill:#dc6d6d;}.cls-33{fill:url(#linear-gradient-19);}.cls-34{fill:url(#linear-gradient-20);}.cls-35{fill:url(#linear-gradient-21);}.cls-36{fill:url(#linear-gradient-22);}.cls-37{fill:url(#linear-gradient-23);}.cls-38{fill:#343563;}.cls-39{fill:url(#linear-gradient-24);}.cls-40{fill:url(#linear-gradient-25);}.cls-41{fill:url(#linear-gradient-26);}.cls-42{fill:#00759c;}.cls-43{fill:url(#linear-gradient-27);}.cls-44{fill:url(#linear-gradient-28);}.cls-45{fill:url(#linear-gradient-29);}.cls-46{fill:url(#linear-gradient-30);}.cls-47{fill:#dd2c27;}.cls-48{fill:url(#linear-gradient-31);}.cls-49{fill:url(#linear-gradient-32);}.cls-50{fill:url(#linear-gradient-33);}.cls-51{fill:url(#linear-gradient-34);}.cls-52{fill:url(#linear-gradient-35);}.cls-53{fill:url(#linear-gradient-36);}.cls-54{fill:url(#linear-gradient-37);}.cls-55{fill:url(#linear-gradient-38);}.cls-56{fill:url(#linear-gradient-39);}.cls-57{fill:url(#linear-gradient-40);}.cls-58{fill:#122b46;}.cls-59{fill:url(#linear-gradient-41);}.cls-60{fill:url(#linear-gradient-42);}.cls-61{fill:url(#linear-gradient-43);}.cls-62{fill:url(#linear-gradient-44);}.cls-63{fill:url(#linear-gradient-45);}.cls-64{fill:url(#linear-gradient-46);}.cls-65{fill:url(#linear-gradient-47);}.cls-66{fill:url(#linear-gradient-48);}.cls-67{fill:url(#linear-gradient-49);}.cls-68{fill:url(#linear-gradient-50);}</style><linearGradient id="linear-gradient" x1="37.84" y1="136.7" x2="122.13" y2="136.7" gradientUnits="userSpaceOnUse"><stop offset="0" stop-color="#ed497b"/><stop offset="1" stop-color="#dd2263"/></linearGradient><linearGradient id="linear-gradient-2" x1="147.06" y1="136.69" x2="211.42" y2="136.69" xlink:href="#linear-gradient"/><linearGradient id="linear-gradient-3" x1="256.06" y1="136.61" x2="310.56" y2="136.61" xlink:href="#linear-gradient"/><linearGradient id="linear-gradient-4" x1="345.35" y1="136.48" x2="419.57" y2="136.48" xlink:href="#linear-gradient"/><linearGradient id="linear-gradient-5" x1="92.66" y1="168.81" x2="147.43" y2="168.81" gradientUnits="userSpaceOnUse"><stop offset="0" stop-color="#c1cdff"/><stop offset="1" stop-color="#94a9ff"/></linearGradient><linearGradient id="linear-gradient-6" x1="201.3" y1="168.81" x2="256.07" y2="168.81" xlink:href="#linear-gradient-5"/><linearGradient id="linear-gradient-7" x1="310.83" y1="168.81" x2="365.6" y2="168.81" xlink:href="#linear-gradient-5"/><linearGradient id="linear-gradient-8" x1="419.23" y1="168.81" x2="474" y2="168.81" xlink:href="#linear-gradient-5"/><linearGradient id="linear-gradient-9" x1="232.87" y1="232.1" x2="279" y2="232.1" xlink:href="#linear-gradient"/><linearGradient id="linear-gradient-10" x1="261.64" y1="232.1" x2="269.12" y2="232.1" gradientTransform="translate(447.57 -69.73) rotate(79.94)" xlink:href="#linear-gradient"/><linearGradient id="linear-gradient-11" x1="242.76" y1="232.1" x2="250.24" y2="232.1" gradientTransform="translate(44.2 -39.39) rotate(10.03)" xlink:href="#linear-gradient"/><linearGradient id="linear-gradient-12" x1="254.57" y1="232.24" x2="257.3" y2="232.24" xlink:href="#linear-gradient"/><linearGradient id="linear-gradient-13" x1="241.32" y1="211.7" x2="270.56" y2="211.7" xlink:href="#linear-gradient"/><linearGradient id="linear-gradient-14" x1="235.74" y1="227.84" x2="275.94" y2="227.84" xlink:href="#linear-gradient"/><linearGradient id="linear-gradient-15" x1="237.89" y1="236.25" x2="274.57" y2="236.25" xlink:href="#linear-gradient"/><linearGradient id="linear-gradient-16" x1="442.02" y1="237.71" x2="484.7" y2="237.71" xlink:href="#linear-gradient-5"/><linearGradient id="linear-gradient-17" x1="475.68" y1="250.06" x2="512" y2="250.06" xlink:href="#linear-gradient-5"/><linearGradient id="linear-gradient-18" x1="469.12" y1="246.86" x2="511.98" y2="246.86" xlink:href="#linear-gradient-5"/><linearGradient id="linear-gradient-19" x1="64.67" y1="58.5" x2="94.36" y2="58.5" xlink:href="#linear-gradient"/><linearGradient id="linear-gradient-20" x1="63.91" y1="44.47" x2="80.64" y2="44.47" xlink:href="#linear-gradient"/><linearGradient id="linear-gradient-21" x1="72.89" y1="251.12" x2="103.52" y2="251.12" xlink:href="#linear-gradient"/><linearGradient id="linear-gradient-22" x1="89.29" y1="256.13" x2="123.07" y2="256.13" xlink:href="#linear-gradient"/><linearGradient id="linear-gradient-23" x1="96.54" y1="250.61" x2="133.81" y2="250.61" xlink:href="#linear-gradient"/><linearGradient id="linear-gradient-24" x1="140.8" y1="278.34" x2="161.86" y2="278.34" gradientUnits="userSpaceOnUse"><stop offset="0" stop-color="#91d1f2"/><stop offset="0.19" stop-color="#77afdc"/><stop offset="0.4" stop-color="#6192ca"/><stop offset="0.61" stop-color="#517dbd"/><stop offset="0.81" stop-color="#4770b5"/><stop offset="1" stop-color="#446cb2"/></linearGradient><linearGradient id="linear-gradient-25" x1="138.63" y1="277.8" x2="159.69" y2="277.8" xlink:href="#linear-gradient-24"/><linearGradient id="linear-gradient-26" x1="124.38" y1="305.11" x2="162.27" y2="305.11" xlink:href="#linear-gradient-24"/><linearGradient id="linear-gradient-27" x1="120.74" y1="302.4" x2="137.6" y2="302.4" xlink:href="#linear-gradient-24"/><linearGradient id="linear-gradient-28" x1="145.69" y1="277.19" x2="166.07" y2="277.19" xlink:href="#linear-gradient"/><linearGradient id="linear-gradient-29" x1="143.46" y1="277.19" x2="163.84" y2="277.19" xlink:href="#linear-gradient"/><linearGradient id="linear-gradient-30" x1="138.76" y1="306.16" x2="169.28" y2="306.16" xlink:href="#linear-gradient"/><linearGradient id="linear-gradient-31" x1="135.37" y1="307.23" x2="142.38" y2="307.23" xlink:href="#linear-gradient"/><linearGradient id="linear-gradient-32" x1="378.43" y1="326.3" x2="408.3" y2="326.3" xlink:href="#linear-gradient"/><linearGradient id="linear-gradient-33" x1="402.66" y1="341.43" x2="415.79" y2="341.43" xlink:href="#linear-gradient-24"/><linearGradient id="linear-gradient-34" x1="408.68" y1="332.89" x2="410.73" y2="332.89" xlink:href="#linear-gradient-24"/><linearGradient id="linear-gradient-35" x1="408.81" y1="339.52" x2="417.43" y2="339.52" xlink:href="#linear-gradient-24"/><linearGradient id="linear-gradient-36" x1="401.71" y1="350.8" x2="404.44" y2="350.8" xlink:href="#linear-gradient-24"/><linearGradient id="linear-gradient-37" x1="373.55" y1="351.19" x2="387.36" y2="351.19" xlink:href="#linear-gradient-24"/><linearGradient id="linear-gradient-38" x1="378.11" y1="345.45" x2="379.64" y2="345.45" xlink:href="#linear-gradient-24"/><linearGradient id="linear-gradient-39" x1="374.08" y1="350.46" x2="380.96" y2="350.46" xlink:href="#linear-gradient-24"/><linearGradient id="linear-gradient-40" x1="385.4" y1="356.65" x2="386.62" y2="356.65" xlink:href="#linear-gradient-24"/><linearGradient id="linear-gradient-41" x1="16.73" y1="303.86" x2="28.71" y2="303.86" xlink:href="#linear-gradient"/><linearGradient id="linear-gradient-42" x1="16.27" y1="303.33" x2="29.17" y2="303.33" xlink:href="#linear-gradient"/><linearGradient id="linear-gradient-43" x1="0.47" y1="314.67" x2="26.39" y2="314.67" xlink:href="#linear-gradient"/><linearGradient id="linear-gradient-44" x1="0" y1="314.35" x2="26.84" y2="314.35" xlink:href="#linear-gradient"/><linearGradient id="linear-gradient-45" x1="29.75" y1="320.08" x2="41.46" y2="320.08" xlink:href="#linear-gradient"/><linearGradient id="linear-gradient-46" x1="29.29" y1="319.73" x2="41.92" y2="319.73" xlink:href="#linear-gradient"/><linearGradient id="linear-gradient-47" x1="15.76" y1="364.98" x2="40.93" y2="364.98" xlink:href="#linear-gradient-5"/><linearGradient id="linear-gradient-48" x1="250.06" y1="362.56" x2="298.86" y2="362.56" xlink:href="#linear-gradient"/><linearGradient id="linear-gradient-49" x1="148.8" y1="51.21" x2="226.65" y2="51.21" xlink:href="#linear-gradient-5"/><linearGradient id="linear-gradient-50" x1="153.5" y1="63.4" x2="167.2" y2="63.4" xlink:href="#linear-gradient-5"/></defs><title>Illustration-of-online-digital-eCommerce-workspace</title><rect class="cls-1" x="61.06" y="108.61" width="389.76" height="235.3" rx="2.75"/><rect class="cls-2" x="152.03" y="47.36" width="207.82" height="357.82" transform="translate(482.2 -29.67) rotate(90)"/><rect class="cls-1" x="214.36" y="343.92" width="83.16" height="30.77"/><rect class="cls-1" x="179.01" y="374.69" width="153.86" height="11.78"/><rect class="cls-3" x="303.15" y="198.01" width="121.4" height="8.99"/><rect class="cls-3" x="303.15" y="222" width="121.4" height="8.99"/><rect class="cls-3" x="332.75" y="245.98" width="91.8" height="8.99"/><rect class="cls-3" x="332.75" y="269.96" width="91.8" height="8.99"/><rect class="cls-3" x="332.75" y="293.94" width="91.8" height="8.99"/><rect class="cls-3" x="87.32" y="198.01" width="121.4" height="8.99" transform="translate(296.04 405.02) rotate(180)"/><rect class="cls-3" x="87.32" y="222" width="121.4" height="8.99" transform="translate(296.04 452.98) rotate(180)"/><rect class="cls-3" x="87.32" y="245.98" width="91.8" height="8.99" transform="translate(266.44 500.95) rotate(180)"/><rect class="cls-3" x="87.32" y="269.96" width="91.8" height="8.99" transform="translate(266.44 548.91) rotate(180)"/><rect class="cls-3" x="87.32" y="293.94" width="91.8" height="8.99" transform="translate(266.44 596.87) rotate(180)"/><path class="cls-2" d="M166.77,122.3v.09l-19.71,28v.7c-20.2,0-38.69,0-54.51-.07v-.63l29.58-28v0C135.09,122.33,150.23,122.33,166.77,122.3Z"/><path class="cls-2" d="M256.06,150.43V151c-18.33,0-36.67.06-54.5.09v-.68l9.86-28v-.13c14.59,0,29.62,0,44.64,0v28.19Z"/><path class="cls-2" d="M345.35,122.39l19.72,28v.34l-54.51.13v-.47l-9.85-28v-.18c15.54,0,30.59,0,44.64,0Z"/><path class="cls-4" d="M122.13,122.35v0l-29.58,28v.63c-33.2-.09-54.71,0-54.71,0l39.64-28.63Z"/><path class="cls-5" d="M147.06,150.43l19.71-28v-.09c14,0,29.1,0,44.65,0v.13l-9.86,28v.68l-54.5,0Z"/><path class="cls-6" d="M310.56,150.43v.47c-17.81,0-36.14.07-54.5.12V122.24c15,0,30.05,0,44.65,0v.18Z"/><path class="cls-7" d="M419.57,150.43v.18c-15.82,0-34.31.09-54.5.16v-.34l-19.72-28v-.2c16.54,0,31.71,0,44.65,0v.18Z"/><path class="cls-2" d="M434.64,122.39,474,151.07s-21.23-.55-54.43-.46v-.18l-29.57-28v-.18C417.19,122.24,434.64,122.28,434.64,122.39Z"/><path class="cls-8" d="M92.55,151.06c-33.2-.09-54.7-.07-54.71-.06l39.64-28.61,44.65,0c13,0,28.1,0,44.64,0,14,0,29.1,0,44.65,0,14.59,0,29.62,0,44.64,0s30.05,0,44.65,0c15.54,0,30.59,0,44.64,0,16.54,0,31.71,0,44.65,0,27.19,0,44.64.07,44.64.18L474,151.07s-21.23-.55-54.43-.46c-15.82,0-34.31.09-54.5.16l-54.51.13c-17.81,0-36.14.07-54.5.12s-36.67.06-54.5.09l-54.5,0C126.86,151.13,108.37,151.11,92.55,151.06Z"/><line class="cls-8" x1="92.55" y1="150.43" x2="122.13" y2="122.39"/><line class="cls-8" x1="147.06" y1="150.43" x2="166.77" y2="122.39"/><line class="cls-8" x1="201.56" y1="150.43" x2="211.42" y2="122.39"/><line class="cls-8" x1="310.56" y1="150.43" x2="300.71" y2="122.39"/><line class="cls-8" x1="365.07" y1="150.43" x2="345.35" y2="122.39"/><line class="cls-8" x1="419.57" y1="150.43" x2="390" y2="122.39"/><path class="cls-9" d="M65.23,186.94h0a27.38,27.38,0,0,1-27.38-27.39v-8.87H92.61v8.87A27.38,27.38,0,0,1,65.23,186.94Z"/><path class="cls-10" d="M92.66,150.68h54.77a0,0,0,0,1,0,0v22.46a13.8,13.8,0,0,1-13.8,13.8H106.46a13.8,13.8,0,0,1-13.8-13.8V150.68a0,0,0,0,1,0,0Z"/><path class="cls-9" d="M147.48,150.68h54.77a0,0,0,0,1,0,0v22.46a13.8,13.8,0,0,1-13.8,13.8H161.28a13.8,13.8,0,0,1-13.8-13.8V150.68A0,0,0,0,1,147.48,150.68Z"/><path class="cls-11" d="M201.3,150.68h54.77a0,0,0,0,1,0,0v22.46a13.8,13.8,0,0,1-13.8,13.8H215.1a13.8,13.8,0,0,1-13.8-13.8V150.68A0,0,0,0,1,201.3,150.68Z"/><path class="cls-9" d="M283.45,186.94h0a27.38,27.38,0,0,1-27.38-27.39v-8.87h54.76v8.87A27.38,27.38,0,0,1,283.45,186.94Z"/><path class="cls-12" d="M310.83,150.68H365.6a0,0,0,0,1,0,0v22.46a13.8,13.8,0,0,1-13.8,13.8H324.63a13.8,13.8,0,0,1-13.8-13.8V150.68a0,0,0,0,1,0,0Z"/><path class="cls-9" d="M393,186.94h0a27.38,27.38,0,0,1-27.38-27.39v-8.87h54.77v8.87A27.39,27.39,0,0,1,393,186.94Z"/><path class="cls-13" d="M446.62,186.94h0a27.39,27.39,0,0,1-27.39-27.39v-8.87H474v8.87A27.38,27.38,0,0,1,446.62,186.94Z"/><rect class="cls-3" x="226.02" y="196.26" width="59.83" height="59.83"/><path class="cls-14" d="M270.89,247.2H241a2.89,2.89,0,0,1-2.82-2.28l-5.22-24.44a2.89,2.89,0,0,1,2.82-3.49h40.35a2.88,2.88,0,0,1,2.25,1.07,2.85,2.85,0,0,1,.57,2.42l-5.21,24.44A2.9,2.9,0,0,1,270.89,247.2Zm-35.13-27.48-.15.19,5.22,24.44a.15.15,0,0,0,.15.12h29.91a.16.16,0,0,0,.16-.12l5.22-24.44-.16-.19Z"/><rect class="cls-15" x="251.62" y="230.73" width="27.52" height="2.73" transform="translate(-9.49 452.87) rotate(-79.94)"/><rect class="cls-16" x="245.13" y="218.34" width="2.73" height="27.52" transform="translate(-36.66 46.49) rotate(-10.03)"/><rect class="cls-17" x="254.57" y="218.55" width="2.73" height="27.39"/><path class="cls-18" d="M270.56,218.35h-2.73V215a7.21,7.21,0,0,0-7.2-7.2h-9.39a7.2,7.2,0,0,0-7.19,7.2v3.37h-2.73V215a9.93,9.93,0,0,1,9.92-9.93h9.39a9.94,9.94,0,0,1,9.93,9.93Z"/><rect class="cls-19" x="235.74" y="226.48" width="40.2" height="2.73"/><rect class="cls-20" x="237.89" y="234.89" width="36.68" height="2.73"/><rect class="cls-21" x="203.76" y="269.02" width="104.36" height="28.48"/><path class="cls-2" d="M240.27,289.67h-5.14V277.75h4.92c2.49,0,3.87,1.3,3.87,3.08a2.75,2.75,0,0,1-2,2.73,2.89,2.89,0,0,1,2.31,2.88C244.2,288.34,242.75,289.67,240.27,289.67Zm-.56-10h-2.19v3h2.19c1.12,0,1.77-.51,1.77-1.49S240.83,279.68,239.71,279.68Zm.17,4.83h-2.36v3.21h2.41c1.16,0,1.84-.56,1.84-1.57S241,284.51,239.88,284.51Z"/><path class="cls-2" d="M249.49,277.75h2.39v7.38a2.42,2.42,0,1,0,4.83,0v-7.38h2.4v7.36c0,3.14-2.25,4.68-4.86,4.68a4.41,4.41,0,0,1-4.76-4.68Z"/><path class="cls-2" d="M263.84,277.75h2.7l2.56,5.45,2.54-5.45h2.66l-4,7.77v4.15h-2.39v-4.15Z"/><path class="cls-22" d="M500,330.51c10-4,4.69,32.68,1.56,43s-2.9,3.93-3.95-13.59S496,332.07,500,330.51Z"/><path class="cls-22" d="M484,329.63c10.32-2.52,2.49,33.52-1.67,43.28s-4.52,3.07-3.75-14.47S480,330.62,484,329.63Z"/><polygon class="cls-22" points="476.78 366.21 476.38 379.4 481.69 379.25 484.89 365.28 476.78 366.21"/><polygon class="cls-22" points="495.37 366.2 496.87 379.31 502.1 378.4 503.27 364.12 495.37 366.2"/><path class="cls-22" d="M498.32,286.23a6.74,6.74,0,0,1,8.42,5.14,96.05,96.05,0,0,1,1.35,16.08c-.18,13.41.37,25.79-4.48,28.53s-11.16-4.23-12.55-17.26c-1.25-11.78-4.59-26.25-1.39-28.91C491.29,288.46,495,287.17,498.32,286.23Z"/><path class="cls-22" d="M489.48,286.65c3.56-.21,6.7,2.94,6.84,6.82a101,101,0,0,1-1.21,15.84c-2.19,12.92-3.55,25-8.36,26.6s-9.45-6.54-8.74-19.45c.65-11.66-.19-26.38,3.1-28.25C482.78,287.26,486.35,286.84,489.48,286.65Z"/><path class="cls-23" d="M477.23,275.19l-2.87,95.16,11.86-.14s11.14-71.46,10.38-83.11S477.23,275.19,477.23,275.19Z"/><path class="cls-23" d="M508.4,283.54s-.14,42.23-.48,48-2.51,38.87-2.51,38.87H495s-7.75-73.09-8.09-90.82S508.4,283.54,508.4,283.54Z"/><path class="cls-22" d="M496.91,224.82a4.83,4.83,0,0,1-1.48,4.93c-6.11,5.62-26.87,24.12-31.36,19.93-5.26-4.93,14.14-20.26,20.32-24C489.54,222.59,495.56,220.56,496.91,224.82Z"/><path class="cls-22" d="M469.91,247.28a4.77,4.77,0,0,0-1.91-4c-6-4.73-28-21.72-31-20.12C433.61,225,464.18,251,466.16,250.4,467.7,249.94,469.75,249.77,469.91,247.28Z"/><path class="cls-22" d="M429.77,217.87c.63-.85,4.81,2.56,6.13,3.41a1,1,0,0,0,.39.2s0-.08,0-.17c-.26-.58-2-2.55-1.29-3.28s4,1.77,5.21,3.51c.06.09.15.19.2.28,1,1.72,1.28,2.9.32,4.65-1.53,2.79-6.15-.47-7.68-1.64a10,10,0,0,1-2.9-4C429.6,219.54,429.42,218.35,429.77,217.87Z"/><path class="cls-24" d="M484.7,223.69S467.39,236.86,465.78,237s-19.21-10.81-19.21-10.81L442,232.07s19.2,19.4,23.43,19.65S481,245.13,481,245.13Z"/><path class="cls-22" d="M500.66,217.42l-10.14,4-.67-6.42a5.06,5.06,0,0,1-1,.45,7.17,7.17,0,0,1-6.72-.87,3.75,3.75,0,0,1-1.37-1.85,15.18,15.18,0,0,1-.72-5.17,4.52,4.52,0,0,1,0-.52,58.25,58.25,0,0,1,1.37-10.54s-.05-.05-.07-.05l.07-.12s5.2-1.13,6.4,1.49c.87,1.93-.4,3.5.4,4.6,1.29,1.82,3.72-3.92,5-3.52s2.33,1.87.65,4.52c-2.37,3.72,5.67,5.52,5.67,5.52h.13l-.13.15Z"/><path class="cls-25" d="M488.61,220.25a23,23,0,0,0-7.59,7.07c-3.67,5.57-5.34,30-5.34,39.32,0,5.87-.15,6.87.94,13.27,0,0,11.46,4.36,19.57,4.53,6.15.69,11.18.53,11.9-.27,1.13-1.27.69-2.53.81-11.52s1.77-21.91,3-38.49c.74-9.59-4.09-13.83-7.45-16.41l-.06,0,.07,0a17.05,17.05,0,0,0-4-2.5,17.86,17.86,0,0,1-10.32,4.17v0s-.6.26-1.53.79m-1.81,4.66v0Zm-1.47,4h0Z"/><path class="cls-22" d="M507.44,223.41a4.82,4.82,0,0,1,2.31,4.6c-.55,8.27-2.87,36-9,36-7.22.05-3.7-24.42-1.78-31.38C500.56,226.87,503.52,221.25,507.44,223.41Z"/><path class="cls-22" d="M501.61,258.31a4.74,4.74,0,0,0-4.32-.87c-7.41,2-34.22,9.26-34.72,12.58-.58,3.86,38.55-4.9,39.28-6.84C502.41,261.67,503.51,259.94,501.61,258.31Z"/><path class="cls-26" d="M510.32,223.49a5.77,5.77,0,0,0-7.08-1c-2.08,1.24-4.44,4-5.58,10.34-2.28,12.58-1.94,22.62-2.7,23.3s-25.84,8.95-25.84,8.95l1.77,7s30.23-1.73,33.69-7.39,6-19.42,6.84-28.12C512.06,230,512.6,225.93,510.32,223.49Z"/><path class="cls-21" d="M476.05,375.4a36.54,36.54,0,0,1-6.64,6.33c-4.63,3.59-5.86,2.83-6,4.15s19.36,0,19.36,0V375S476.05,375.11,476.05,375.4Z"/><path class="cls-21" d="M496,375.4a36.88,36.88,0,0,1-6.65,6.33c-4.62,3.59-5.85,2.83-5.95,4.15s19.37,0,19.37,0V375S496,375.11,496,375.4Z"/><polyline class="cls-8" points="476.59 276.13 477.51 276.3 480.08 276.76 480.73 276.88"/><path class="cls-2" d="M470.32,262.87l-4.43-18-25.3-2.3,6.24,23.09,25.3,4.6Zm-16.81-6.8c-.36-1.21,0-2.38.88-2.63s1.81.54,2.17,1.74-.05,2.38-.89,2.64S453.86,257.29,453.51,256.07Z"/><path class="cls-27" d="M454.39,253.44c-.84.25-1.24,1.42-.88,2.63s1.32,2,2.16,1.75,1.24-1.43.89-2.64S455.23,253.19,454.39,253.44Z"/><polygon class="cls-27" points="470.32 262.87 472.13 270.24 486.4 264.88 470.32 262.87"/><path class="cls-28" d="M472.13,270.23l-25.28-4.59v1.2l25.28,4.54s0-1.17,0-1.15v1.15L486.4,266v-1.15"/><path class="cls-22" d="M467.7,270.77l-.52-.1-.72-.14a1.85,1.85,0,0,1-.67-.18l-.21-.14a.82.82,0,0,0-.24-.1c-.35-.1-.78-.1-1-.39a4.45,4.45,0,0,1-.51-1.16l-.05-.09a3.59,3.59,0,0,0-1.56-1.55,3,3,0,0,0-2.87.37c-.6.45-.52,1.07-.29,1.7a4.17,4.17,0,0,0,1.49,2,5.42,5.42,0,0,0,2.27.8,7,7,0,0,0,1.37.08,10.26,10.26,0,0,0,1.34-.18,5.71,5.71,0,0,0,1.21-.33,3.56,3.56,0,0,0,.85-.49A1,1,0,0,0,467.7,270.77Z"/><path class="cls-21" d="M504.43,198.87v0a2.75,2.75,0,0,0,.35-1.34,1.33,1.33,0,0,0-.33-1c-.72-.93-2.62-.83-3-1.82-.25-.82.41-1.34.65-2.11h0v0a1.81,1.81,0,0,0-.2-1.55c-1-1.84-3.92-1.29-4.84-1.92s0-2.65-1.8-3.15-2.85,1.28-4.44,1-2.5-2.57-4-2.35-2.2,1.45-3.13,1.72a13.88,13.88,0,0,0-1.77.58,3,3,0,0,0-1.4,1,.65.65,0,0,0-.12.25.07.07,0,0,0,0,.07c0,.08-.05.15-.07.23a2.47,2.47,0,0,0,0,.72c.05.47.18.93.2,1.33a1,1,0,0,1-.1.52c-.17.35-.5.55-.77.87a2.22,2.22,0,0,0-.43,1.83,3.18,3.18,0,0,0,2,2.53l0,0a1.15,1.15,0,0,0,.2.15l.07-.12s5.2-1.13,6.4,1.49c.87,1.93-.4,3.5.4,4.6,1.29,1.82,3.72-3.92,5-3.52s2.33,1.87.65,4.52c-2.37,3.72,5.67,5.52,5.67,5.52h.13c.22-.3.72-.95,1.32-1.88l0,0a6.9,6.9,0,0,0,2.65-1.84c.8-1,.2-1.88-.22-2.8a4.32,4.32,0,0,1-.26-.68,1.89,1.89,0,0,1-.07-.67C503.23,200,504,199.69,504.43,198.87Z"/><path class="cls-22" d="M76.08,29.79c1.18-.23,5.77.64,6.67,1.43C86.63,34.63,93.71,43,93.39,50c-.39,8.62-3.66,10.06-3.66,16.2s2.35,18.42,2.35,20-25.22.91-25.74.26.29-45.88,1.83-50.3S71.1,30.74,76.08,29.79Z"/><path class="cls-29" d="M69.48,96.45a7,7,0,0,0,5.88,8.42,46.1,46.1,0,0,0,13.12-.23c13.9-2.06,30.44-.67,33-5.89s-5.11-11.31-18.72-11.91c-12.31-.55-27.54-3.08-30.1.41C71.34,89,70.25,93,69.48,96.45Z"/><path class="cls-29" d="M74.11,91.19a7,7,0,0,0,3.1,9.78,45.83,45.83,0,0,0,12.6,3.68c13.89,2.18,29.26,8.42,33.24,4.19s-1.52-12.31-14.34-16.94c-11.58-4.18-25.37-11.13-28.85-8.56C78.09,84.64,75.87,88.1,74.11,91.19Z"/><path class="cls-22" d="M121.62,93c-8.9-7.9-19.11,34.52-19.3,45.83s5.24.58,12.07-16.13S125.12,96.14,121.62,93Z"/><path class="cls-30" d="M105.67,141.35a22,22,0,0,0,2.48,4.44c1.83,2.65,2.6,2.46,2.43,3.17s-10.16-3.22-10.16-3.22l2-5.64A26.07,26.07,0,0,1,105.67,141.35Z"/><path class="cls-22" d="M121.51,101.67c-11.65-2.41.67,39.44,6.15,49.34s4.82-2.11,2.41-20S126.09,102.62,121.51,101.67Z"/><path class="cls-30" d="M131.8,151.5a22.52,22.52,0,0,0,4.37,2.61c2.91,1.39,3.48.83,3.69,1.53s-10.42,2.28-10.42,2.28L128.38,152A26.15,26.15,0,0,1,131.8,151.5Z"/><path class="cls-31" d="M95.33,85.8h28.36l12.1-26a1.79,1.79,0,0,0-.86-2.38,1.77,1.77,0,0,0-2.38.86L121.41,82.22H95.33a1.79,1.79,0,1,0,0,3.58Z"/><path class="cls-22" d="M81.86,33.79a4.27,4.27,0,0,0-3.58,2.69c-2.79,6.62-11.76,29-7,31.29,5.58,2.74,12.36-17.53,13.57-23.63C85.86,39.05,85.74,33.59,81.86,33.79Z"/><path class="cls-22" d="M71,63a4.52,4.52,0,0,1,4.22-.67c7.19,2.23,33.18,10.53,33.63,13.81.51,3.81-37.46-6.44-38.14-8.38C70.2,66.23,69.15,64.49,71,63Z"/><path class="cls-22" d="M105.19,74.83c.66-2.24,4.41-.67,5.67-.08,2,1,3.73,3.61,3.36,4.43s-4.9-1.62-5.14-1.5,1.86,1.51,1.44,2.25-3.44-.76-4.4-1.83A3,3,0,0,1,105.19,74.83Z"/><path class="cls-32" d="M82.15,56.11S92,35,83.87,31.91,71.26,52.05,71.26,52.05Z"/><path class="cls-21" d="M70.35,43.34c-.53.39-1,.83-1.53,1.26L66,47a10.82,10.82,0,0,1-3.82,2.45,5.4,5.4,0,0,1-4.77-.9c-3.35-2.6-1.22-6.21-1.69-9.64-.28-2-1.59-3.74-1.62-5.79a7.94,7.94,0,0,1,3-5.79c2.11-1.86,4.74-2.74,7-4.38a7,7,0,0,0,3-4.24c.38-2,.19-4.13,1.15-6,1.14-2.2,3.58-3.57,5.16-5.44A23,23,0,0,1,79.71,1.6,13.15,13.15,0,0,1,88.34.22a10.64,10.64,0,0,1,4.88,2.2c6,5.18,0,12.34-.71,18.26-.4,3.48,1.38,8.05-1.23,11-.75.84-1.76,1.32-2.51,2.16A8.73,8.73,0,0,0,87,37.09a30.86,30.86,0,0,0-.87,5.74c-.16,1.49-.27,4-1.27,5.2S83,47.81,82.22,47a29.45,29.45,0,0,0-3-3.57,7.14,7.14,0,0,0-7-1.15A8.71,8.71,0,0,0,70.35,43.34Z"/><rect class="cls-22" x="75.68" y="23.25" width="8.15" height="11.46" transform="translate(10.93 -20.65) rotate(15.83)"/><path class="cls-22" d="M84.15,28s5.51,2.1,6.78.49,4.41-11.24,1.51-16.82S81.82,5,78,8.31s-1.73,17.37,1.5,18.42A31.54,31.54,0,0,0,84.15,28Z"/><path class="cls-21" d="M70.08,28.11s2.28.68,6.5-1.83c10.18-6,10.52-12,16.77-14.18,0,0,1.87-8.54-4.84-9.88S73.64,8.57,72.41,12.34,70.08,28.11,70.08,28.11Z"/><path class="cls-33" d="M78.18,28.88s-6.78,0-9.77,6.19c-3.92,8.13-4,51.3-3.56,52.18.6,1.19,27.87,1.19,28.46-.2s-4-18.31-2.53-24.13,3.64-10.68,3.58-15.75C94.3,43,88.79,30.08,78.18,28.88Z"/><path class="cls-23" d="M93.31,87.05s26.42,6.77,30.9,13,9.11,46.43,9.11,46.43l-7.62,1.64c-4.92-10.3-10.89-34.33-13.43-35.23s-27.52-6.07-27.52-6.07l-.39-14.53Z"/><path class="cls-23" d="M93.46,86.35c10.6-1.34,29-2.29,30.74,4.21,2.81,10.74-16,48.34-16,48.34l-6.42-2.24c2.09-17.77,7.22-32.1,6.42-33.29S89.33,109.94,74,108.15s-8.46-20.6-8.46-20.6Z"/><path class="cls-22" d="M75.14,33.8a4.49,4.49,0,0,0-3.79,2.85c-2.95,7-12.45,30.64-7.42,33.11,5.92,2.91,13.09-18.55,14.37-25C79.37,39.36,79.25,33.58,75.14,33.8Z"/><path class="cls-22" d="M63.65,64.68A4.83,4.83,0,0,1,68.12,64c7.61,2.37,35.13,11.15,35.6,14.63.54,4-39.66-6.82-40.37-8.87C62.79,68.14,61.68,66.29,63.65,64.68Z"/><path class="cls-22" d="M99.84,77.25c.69-2.38,4.66-.72,6-.1,2.17,1,3.94,3.83,3.56,4.7s-5.19-1.72-5.45-1.6,2,1.61,1.52,2.39-3.63-.81-4.65-1.93S99.4,78.74,99.84,77.25Z"/><path class="cls-34" d="M75.45,57.43s10.36-22.36,1.81-25.62S63.91,53.12,63.91,53.12Z"/><path class="cls-22" d="M108.26,283.69a6.75,6.75,0,0,0-4.47,8.57,45,45,0,0,0,5.33,11.19c7.12,11.09,12.49,25.89,17.7,25.89s7.11-9.13,2.25-21.09c-4.39-10.8-8.32-25-12.14-25.7C115,282.17,111.37,282.89,108.26,283.69Z"/><path class="cls-22" d="M105.38,330.06c-3.94-11.39-30.38,27.37-35.86,39.65s2,6.58,15.69-9.51S106.93,334.55,105.38,330.06Z"/><path class="cls-22" d="M130.53,322.87c-10.29-6.29-6,40.45-2.44,53.41s5.69,3.82,6-17.33S134.58,325.34,130.53,322.87Z"/><path class="cls-22" d="M101.7,283a6.68,6.68,0,0,0-8.11,5.52A43.56,43.56,0,0,0,93.65,301c1.8,13.31.29,29.11,5.25,31.6s10.87-4.76,11.61-17.77c.66-11.76,3.26-26.29-.05-28.78C108.79,284.83,105,283.74,101.7,283Z"/><path class="cls-21" d="M92.49,219.57c.15-7.29-.64-15.31,6-20.83,4.26-4.24,9.28-3.88,13-2.85,3.14.87,4.58,4.07,5.16,7,.93,4.77,0,9.83-.57,14.57a57.68,57.68,0,0,0-.47,7.77c0,2,.28,4,.43,6.1a8.86,8.86,0,0,1-.55,4.25,4.12,4.12,0,0,1-4,2.55q-4.26-.09-8.51.14a23.92,23.92,0,0,0-4.71.51,10.18,10.18,0,0,1-6.17-.42c-3.13-1.25-5.4-3.94-7-6.82A13.77,13.77,0,0,0,92.49,219.57Z"/><rect class="cls-22" x="98.47" y="218.32" width="8.34" height="9.53" transform="translate(64.71 -19.53) rotate(15.82)"/><path class="cls-22" d="M103.58,220.51s5.21,3.27,6.84,1.88,6.79-10.6,5-16.89-9.52-8.91-14.05-6.33-5.29,17.41-2.2,19.14A32,32,0,0,0,103.58,220.51Z"/><path class="cls-22" d="M71.71,285.25c-2.7-1.24-4.32,3.67-4.81,5.36-.79,2.76.36,6.59,1.45,6.92s2.53-6,2.84-6.18-.09,3,1,3.25,2.13-3.92,1.91-5.73S73.4,286,71.71,285.25Z"/><path class="cls-22" d="M100.65,230.42a4.28,4.28,0,0,0-4.41,1.25C91.14,237,74.35,255.29,78,259.35c4.32,4.76,18.25-12.32,21.66-17.78C102.53,237,104.43,231.68,100.65,230.42Z"/><path class="cls-22" d="M83.41,255a4.21,4.21,0,0,1,.57,3.89c-2.1,6.5-9.9,30-12.88,30.3-3.46.33,6.22-34.09,8-34.64C80.46,254.11,82.05,253.21,83.41,255Z"/><path class="cls-35" d="M92.12,234S79.9,247.87,77.64,254.22c-1.91,5.37-4.75,17-4.75,17l6.61,2.07s4.38-13.51,4.8-14.23,12.07-10.87,15.07-15.62,6.34-10.87,2.26-13.8S92.12,234,92.12,234Z"/><path class="cls-22" d="M100.65,225.3A6,6,0,0,0,93.49,228a23.11,23.11,0,0,0-3.44,14.22c1,10.77,6.84,12.49,6.84,23.57S93.1,284.7,93.69,286s25.52,2.66,27.41-.47S117,272,117,263.27s3.21-10.4,2.49-17.19-8-11.09-12.51-16.39A14.92,14.92,0,0,0,100.65,225.3Z"/><path class="cls-23" d="M122.57,285.88S136,315.48,136,326.35s-1.62,48.11-1.62,48.11l-8.4.28s-2.92-41.78-3.75-43.84-25-24.37-25-43.09S122.57,285.88,122.57,285.88Z"/><path class="cls-23" d="M92.23,286.16s-4,6-3.44,16.24,6.33,25.88,4.82,28.77-25,37.17-25,37.17l6.33,5.78S109,337.5,110.54,332s7.71-38.68,7.71-44.47S92.23,286.16,92.23,286.16Z"/><path class="cls-36" d="M95.47,224.35A3.91,3.91,0,0,1,98,224a20.2,20.2,0,0,1,10.06,5.17c4.61,4.65,12.08,9.19,13.06,17.66s-3.55,10.22-2.07,19.51,5.36,18.12,3.49,19.51-6.82,2.58-14.58,2.43-16.83-.21-16.64-2.69,5.45-13.06,3.68-22-5.74-16.31-5.74-25.09C89.29,230.83,92.22,226,95.47,224.35Z"/><path class="cls-22" d="M147.93,269.5c-.59,2.57,4,3.08,5.52,3.2,2.54.19,5.65-1.5,5.74-2.51s-5.71-1.1-5.88-1.34,2.66-.48,2.65-1.43-3.79-1.14-5.32-.62S148.3,267.89,147.93,269.5Z"/><path class="cls-22" d="M159.19,270.19c-.09,1-2.88,2.52-5.34,2.53,0-1.41.18-3.32.21-3.73C155.68,269.17,159.28,269.4,159.19,270.19Z"/><path class="cls-22" d="M98.51,234.33a4.3,4.3,0,0,0-.19,4.59c3.5,6.52,15.57,28.18,20.58,26,5.88-2.61-6-21.2-10.1-26.14C105.37,234.61,100.9,231.14,98.51,234.33Z"/><path class="cls-22" d="M116.53,260.26a4.21,4.21,0,0,1,3.82-.91c6.67,1.53,30.77,7.25,31.32,10.2.63,3.42-34.51-3.23-35.21-4.94C115.92,263.28,114.88,261.77,116.53,260.26Z"/><path class="cls-37" d="M99.25,243.55s11,19.21,16,21.89S132.29,269,132.29,269l1.52-6.54s-12.67-3-13.22-3.58-6.54-14.86-10.12-19.2-8.33-9.43-12.39-6.47S99.25,243.55,99.25,243.55Z"/><path class="cls-38" d="M133,377.31a28.93,28.93,0,0,0,5.18,4.2c3.51,2.34,4.36,1.73,4.49,2.68s-13.92,1-13.92,1l-.28-7.83S133,377.1,133,377.31Z"/><path class="cls-38" d="M71.87,374.71a29.2,29.2,0,0,0,.63,6.63c.79,4.15,1.82,4.33,1.24,5.09s-10.48-9.23-10.48-9.23l5.4-5.69S72,374.55,71.87,374.71Z"/><path class="cls-21" d="M98.31,225.11h0s-.6-2.75-.6-2.78a31.69,31.69,0,0,0-2.9-13.79s4.24-10.54,5.9-11.47c1.17-.65,7.44-.83,7.44-.83l7.21,4h0a9,9,0,0,1-2.4,3.5h0a8.51,8.51,0,0,1-1.8,1.24c-3.19,1.64-7.66,4.1-7.38,8.84,0,.77.16,1.76.28,2.88.64,5.76,1.39,15.18-7.4,18C96.66,234.74,98.45,229.14,98.31,225.11Z"/><path class="cls-39" d="M160.59,288.57l-.64-.15c1.27-5.16,2.22-12.17-.52-16.27a7.76,7.76,0,0,0-5.57-3.34,3.92,3.92,0,0,0-.59-.05c-6.27,0-11.8,15-11.85,15.2l-.62-.23c.24-.68,6.11-16.68,13.16-15.57a8.4,8.4,0,0,1,6,3.62C162.85,276.09,161.9,283.29,160.59,288.57Z"/><path class="cls-40" d="M158.43,288l-.64-.16c1.27-5.15,2.22-12.16-.52-16.27a7.81,7.81,0,0,0-5.57-3.34c-6.48-1-12.39,15-12.45,15.15l-.62-.22c.24-.66,5.75-15.63,12.48-15.63a4,4,0,0,1,.69.05,8.41,8.41,0,0,1,6,3.63C160.69,275.55,159.73,282.76,158.43,288Z"/><polygon class="cls-41" points="162.27 288.31 154.33 327.32 124.39 321.28 124.49 320.97 137.6 282.89 162.27 288.31"/><polygon class="cls-42" points="154.33 327.32 152.37 328.7 120.74 321.9 124.46 320.96 124.49 320.97 124.39 321.28 154.33 327.32"/><polygon class="cls-43" points="137.6 282.89 124.49 320.97 124.46 320.96 120.74 321.9 134.1 283.99 137.6 282.89"/><path class="cls-44" d="M146.34,286.39l-.65-.07c.08-.72,1.95-17.65,9-18.28a8.43,8.43,0,0,1,6.72,2.07c3.82,3.5,4.62,10.72,4.62,16.16h-.66c0-5.31-.77-12.34-4.41-15.67a7.76,7.76,0,0,0-6.21-1.9C148.24,269.28,146.36,286.22,146.34,286.39Z"/><path class="cls-45" d="M144.12,286.39l-.66-.07c.08-.72,1.95-17.65,9-18.28a8.42,8.42,0,0,1,6.71,2.07c3.82,3.5,4.62,10.72,4.62,16.16h-.66c0-5.31-.76-12.34-4.4-15.67a7.78,7.78,0,0,0-6.21-1.9C146,269.28,144.14,286.22,144.12,286.39Z"/><polygon class="cls-46" points="167.63 285.61 169.28 325.39 138.76 326.71 138.79 326.38 142.38 286.27 167.63 285.61"/><polygon class="cls-47" points="169.28 325.39 167.71 327.2 135.37 328.19 138.76 326.38 138.79 326.38 138.76 326.71 169.28 325.39"/><polygon class="cls-48" points="142.38 286.27 138.79 326.38 138.76 326.38 135.37 328.19 139.25 288.17 142.38 286.27"/><path class="cls-49" d="M389.49,358.66c-4.62-4.94-8-10.82-6.62-17.84.55-2.89,1.11-5.3-.82-7.82a23.76,23.76,0,0,1-2.69-3.58c-1.95-3.9-.49-8,1.18-11.68a34.31,34.31,0,0,0,3-8.45c.51-3.14-.33-6.26-.14-9.42s1.76-6.43,4.74-7.12a6.7,6.7,0,0,1,5.61,1.74,10.91,10.91,0,0,1,3.58,5.87c.72,3.11.07,6.54,1.5,9.39,1.26,2.52,3.87,4.05,5.63,6.24a11.12,11.12,0,0,1,2.31,8.41c-.35,2.46-1.53,4.77-1.78,7.24-.55,5.57,3.65,10.77,3.24,16.35a12.08,12.08,0,0,1-4.63,8.29c-2.87,2.32-7.11,4.09-10.84,3.6a7.43,7.43,0,0,1-5.08-2.93"/><path class="cls-21" d="M396.37,356.47a.43.43,0,0,1-.41-.37l-5.87-50.3a.41.41,0,0,1,.36-.46.42.42,0,0,1,.45.36L396.78,356a.42.42,0,0,1-.36.46Z"/><path class="cls-21" d="M393.55,332.18a.37.37,0,0,1-.21-.06.41.41,0,0,1-.15-.56l6.52-11a.4.4,0,0,1,.56-.14.41.41,0,0,1,.15.56l-6.52,11A.42.42,0,0,1,393.55,332.18Z"/><path class="cls-21" d="M392.41,324.89a.39.39,0,0,1-.18,0l-8.61-4.1a.41.41,0,0,1-.19-.55A.4.4,0,0,1,384,320l8.62,4.1a.41.41,0,0,1,.19.55A.42.42,0,0,1,392.41,324.89Z"/><path class="cls-21" d="M394.73,342.66a.45.45,0,0,1-.16,0l-7.25-3.15a.41.41,0,1,1,.33-.75l7.25,3.15a.41.41,0,0,1,.21.54A.42.42,0,0,1,394.73,342.66Z"/><path class="cls-21" d="M395.72,355.93a7.24,7.24,0,0,1-.19-3.53c.85-3.3,3.82-5.67,5.87-8.21a16,16,0,0,0,3.93-10.7,11.41,11.41,0,0,1,2.43-8.35c2-2.48,4.64-4.37,6.79-6.74a49.49,49.49,0,0,0,6-8c1.45-2.44,4.22-6.12,6.74-2.37a7.27,7.27,0,0,1,1.13,5.13c-.74,4.65-4.78,7.9-6.32,12.24a23.46,23.46,0,0,0-.86,6.78c-.09,2.06-.34,4.38-1.72,6-.8.95-1.84,1.69-2.56,2.71a11.4,11.4,0,0,0-1.48,4.85,25.27,25.27,0,0,1-1.53,5.11c-1.65,4.23-4.15,9.19-8.38,11.3a6.28,6.28,0,0,1-4,.73C398.52,362.29,396.46,358.67,395.72,355.93Z"/><path class="cls-50" d="M403.07,357.56a.4.4,0,0,1-.15,0,.41.41,0,0,1-.23-.53L415,325.56a.42.42,0,0,1,.53-.23.41.41,0,0,1,.24.53L403.45,357.3A.4.4,0,0,1,403.07,357.56Z"/><path class="cls-51" d="M410.32,338.56a.4.4,0,0,1-.41-.36l-1.23-10.53a.41.41,0,1,1,.82-.1l1.22,10.53a.41.41,0,0,1-.35.46Z"/><path class="cls-52" d="M409.22,342.52a.41.41,0,0,1-.34-.18.42.42,0,0,1,.12-.57l7.79-5.19a.41.41,0,0,1,.57.11.42.42,0,0,1-.12.57l-7.79,5.19A.39.39,0,0,1,409.22,342.52Z"/><path class="cls-53" d="M404,354.28a.4.4,0,0,1-.39-.29l-1.92-6.15a.41.41,0,0,1,.79-.24l1.91,6.15a.4.4,0,0,1-.27.51A.25.25,0,0,1,404,354.28Z"/><path class="cls-21" d="M391.11,359.2a4.9,4.9,0,0,0-.39-2.43c-1.06-2.12-3.43-3.29-5.2-4.71a11.22,11.22,0,0,1-4.24-6.7A7.9,7.9,0,0,0,378.4,340c-1.74-1.39-3.8-2.29-5.6-3.58a34.48,34.48,0,0,1-5.23-4.57c-1.35-1.44-3.77-3.54-4.93-.61a5,5,0,0,0,0,3.65c1.19,3.05,4.41,4.66,6.1,7.39a16,16,0,0,1,1.58,4.48,7,7,0,0,0,2.05,3.84c.69.53,1.51.88,2.14,1.47a7.84,7.84,0,0,1,1.72,3.07,17.11,17.11,0,0,0,1.79,3.25c1.75,2.64,4.18,5.64,7.36,6.46a4.46,4.46,0,0,0,2.82-.1C390.14,363.93,391,361.17,391.11,359.2Z"/><path class="cls-54" d="M387,361.38a.41.41,0,0,1-.35-.18l-13-19.57a.41.41,0,0,1,.11-.57.42.42,0,0,1,.57.12l13,19.56a.42.42,0,0,1-.12.57A.38.38,0,0,1,387,361.38Z"/><path class="cls-55" d="M379.23,349.53a.41.41,0,0,1-.41-.37l-.71-7.34a.42.42,0,0,1,.37-.45.41.41,0,0,1,.44.37l.72,7.34a.43.43,0,0,1-.37.45Z"/><path class="cls-56" d="M380.55,352.06a.4.4,0,0,1-.15,0l-6.06-2.38a.41.41,0,1,1,.3-.76l6.06,2.38a.41.41,0,0,1,.24.53A.42.42,0,0,1,380.55,352.06Z"/><path class="cls-57" d="M385.81,359.29h0a.42.42,0,0,1-.38-.45l.4-4.46a.39.39,0,0,1,.45-.37.41.41,0,0,1,.37.44l-.4,4.47A.41.41,0,0,1,385.81,359.29Z"/><polygon class="cls-23" points="377 385.86 412.38 385.86 418.81 361.25 370.56 361.25 377 385.86"/><rect class="cls-58" x="368.29" y="357.49" width="52.8" height="3.75"/><path class="cls-59" d="M28,342.64s1.16-33,.48-43.29-5-22.84-5.48-34.26a12.7,12.7,0,0,0-3.2,8.11c0,4.79,1.14,7.88-.92,12.56s-3.31,8.68-.68,14.85,3.88,8.28,3,12.73,2.34,11,7.25,12.85"/><path class="cls-60" d="M28.48,342.65l-.91,0c0-.15.25-7.4.45-16.11-5.21-2.17-8.18-8.84-7.28-13.26.79-3.83-.07-5.82-2.14-10.6-.25-.58-.52-1.2-.8-1.87-2.73-6.41-1.37-10.51.69-15.2,1.44-3.29,1.25-5.79,1-8.69-.08-1.16-.17-2.35-.17-3.69a13,13,0,0,1,3.33-8.43l.74-.77,0,1.07c.24,6.06,1.6,12.48,2.9,18.69A116.06,116.06,0,0,1,29,299.32C29.63,309.5,28.49,342.32,28.48,342.65Zm-5.86-76.34a12.07,12.07,0,0,0-2.35,6.89c0,1.31.09,2.48.17,3.62.22,3,.42,5.63-1.12,9.12-2,4.49-3.27,8.41-.68,14.49l.8,1.85c2.09,4.83,3,7,2.2,11.15-.8,3.9,1.86,10,6.4,12.1.22-9.71.35-20.93,0-26.15A116.81,116.81,0,0,0,25.48,284,125.51,125.51,0,0,1,22.62,266.31Z"/><path class="cls-61" d="M26.39,342.64S19.44,301,1.16,286.71c0,0-2.13,5.05,1.07,9s1,10.16,5.2,15.76,8.9,5.31,9.59,10.22.34,7.14,6.68,9.25"/><path class="cls-62" d="M25.93,342.71c0-.14-.81-4.76-2.51-11.39-5.89-2-6.17-4.24-6.68-8.28,0-.41-.11-.84-.17-1.3-.36-2.55-1.87-3.58-4-5a21.43,21.43,0,0,1-5.56-5c-2.32-3.08-2.76-6.36-3.14-9.25-.34-2.55-.63-4.76-2-6.5-3.33-4.1-1.22-9.23-1.13-9.45L1,286l.48.37c18.2,14.26,25.32,55.79,25.39,56.21ZM1.38,287.47c-.42,1.4-1.16,5,1.2,7.94,1.58,1.94,1.9,4.37,2.24,6.95.39,2.92.79,5.94,3,8.82a20.29,20.29,0,0,0,5.34,4.8c2.11,1.44,3.93,2.68,4.34,5.64.07.46.12.89.17,1.31.48,3.77.71,5.58,5.5,7.32C19.66,317,12.75,296.8,1.38,287.47Z"/><path class="cls-63" d="M29.94,342.18S27.42,306.94,41.36,298a7.5,7.5,0,0,1-1.71,6.08c-2.43,2.75-.42,5.69-2,9.38s-3.27,3.41-4.11,7.37,1.26,5.6-.23,7.93-3.55,5.46-3.55,5.46"/><path class="cls-64" d="M29.49,342.21c-.11-1.45-2.38-35.61,11.62-44.61l.56-.36.13.64A7.83,7.83,0,0,1,40,304.36c-1.22,1.39-1.21,2.84-1.2,4.52a11,11,0,0,1-.73,4.74A12.36,12.36,0,0,1,35.93,317a7.72,7.72,0,0,0-2,3.93,9.5,9.5,0,0,0,.1,4.22,4.7,4.7,0,0,1-.39,3.86c-1.29,2-3,4.62-3.45,5.3-.06,4.6.15,7.75.16,7.86ZM41,298.79c-8.5,6.18-10.4,23-10.71,33.77.73-1.12,1.78-2.72,2.64-4.06.68-1.07.5-2,.26-3.19a10.5,10.5,0,0,1-.09-4.59,8.49,8.49,0,0,1,2.14-4.33,11.44,11.44,0,0,0,2-3.13,10.19,10.19,0,0,0,.65-4.37c0-1.79,0-3.48,1.43-5.13A7,7,0,0,0,41,298.79Z"/><polygon class="cls-65" points="36.44 388.74 20.25 388.74 15.76 341.23 40.93 341.23 36.44 388.74"/><rect class="cls-21" x="183.81" y="330.29" width="51.07" height="51.07" rx="4.07" transform="translate(142.31 -51.54) rotate(21.13)"/><path class="cls-2" d="M218.56,361.61l7.81-8.36-20.59-7.95.16,11.43Zm-13.51.2a2.63,2.63,0,1,0,1.51,3.4A2.64,2.64,0,0,0,205.05,361.81Zm9.43,3.64a2.63,2.63,0,1,0,1.51,3.41A2.63,2.63,0,0,0,214.48,365.45Zm4-2.11-14.23-5.5-1.09-17.72-7.38-2.85a.93.93,0,0,0-.66,1.73l6.26,2.42,1.09,17.72,15.34,5.93a.92.92,0,0,0,1.2-.53A.93.93,0,0,0,218.45,363.34Z"/><rect class="cls-66" x="250.06" y="338.15" width="48.81" height="48.81" rx="3.89"/><path class="cls-2" d="M266.06,371.89l-11.12-.21-.22-9.2.21-.2c4.84-4.57,7.64-6.93,8.32-7s4.49,0,4.91,0l0,1.28c-1.11,0-4.12-.07-4.76,0A86.77,86.77,0,0,0,256,363l.18,7.42,9.52.18,7.45-4.6a1.77,1.77,0,0,0-1.37-3.21l-6.23,1.61-.32-1.24,6.23-1.6a3,3,0,0,1,3.47,1.58,3,3,0,0,1-1.12,3.94Z"/><path class="cls-2" d="M290.42,369.72h-21v-1.27h21a.51.51,0,0,0,.51-.51V355a.51.51,0,0,0-.51-.51H269.35a.5.5,0,0,0-.5.51v8.07h-1.28V355a1.78,1.78,0,0,1,1.78-1.78h21.07a1.79,1.79,0,0,1,1.79,1.78v12.94A1.79,1.79,0,0,1,290.42,369.72Z"/><path class="cls-2" d="M292.21,359.61H267.57v-4.16h24.64Zm-23.36-1.27h22.08v-1.62H268.85Z"/><rect class="cls-67" x="148.8" y="42.07" width="77.84" height="18.28" rx="1.75"/><polygon class="cls-68" points="153.5 58.07 153.5 70.25 167.21 56.54 153.5 58.07"/><rect class="cls-2" x="153.16" y="46.14" width="67.39" height="1.02"/><rect class="cls-2" x="153.16" y="50.7" width="67.39" height="1.02"/><rect class="cls-2" x="153.16" y="55.27" width="40.06" height="1.02"/></svg>