<svg xmlns="http://www.w3.org/2000/svg" viewBox="0 0 401 401" width="401" height="401">
	<style>
		tspan { white-space:pre }
		.shp0 { fill: #000000 } 
	</style>
	<g id="Layer">
		<path id="Layer" class="shp0" d="M17.32 217.32L340.89 217.32L263.68 294.53C256.92 301.29 256.92 312.26 263.68 319.02C270.44 325.78 281.41 325.78 288.16 319.02L394.93 212.25C401.69 205.49 401.69 194.52 394.93 187.76L288.16 80.99C284.78 77.6 280.35 75.91 275.92 75.91C271.49 75.91 267.06 77.6 263.68 80.99C256.91 87.75 256.91 98.71 263.68 105.47L340.89 182.69L17.32 182.69C7.75 182.69 0 190.44 0 200C0 209.57 7.75 217.32 17.32 217.32Z" />
	</g>
	<g id="Layer">
	</g>
	<g id="Layer">
	</g>
	<g id="Layer">
	</g>
	<g id="Layer">
	</g>
	<g id="Layer">
	</g>
	<g id="Layer">
	</g>
	<g id="Layer">
	</g>
	<g id="Layer">
	</g>
	<g id="Layer">
	</g>
	<g id="Layer">
	</g>
	<g id="Layer">
	</g>
	<g id="Layer">
	</g>
	<g id="Layer">
	</g>
	<g id="Layer">
	</g>
	<g id="Layer">
	</g>
</svg>