<?xml version="1.0" encoding="utf-8"?>
<!-- Generator: Adobe Illustrator 23.0.2, SVG Export Plug-In . SVG Version: 6.00 Build 0)  -->
<svg version="1.0" id="Layer_1" xmlns="http://www.w3.org/2000/svg" xmlns:xlink="http://www.w3.org/1999/xlink" x="0px" y="0px"
	 width="510.57px" height="93.22px" viewBox="0 0 510.57 93.22" style="enable-background:new 0 0 510.57 93.22;"
	 xml:space="preserve">
<style type="text/css">
	.st0{fill:#72C3C2;}
	.st1{fill:#FFFFFF;}
</style>
<g>
	<polygon class="st0" points="69.78,-0.13 69.78,25.33 -0.08,58.7 -0.08,33.5 	"/>
	<polygon class="st1" points="-0.08,33.5 69.78,68.04 69.78,92.68 -0.08,58.7 	"/>
	<polygon class="st0" points="510.57,33.5 440.71,68.04 440.71,92.68 510.57,58.7 	"/>
	<polygon class="st1" points="440.71,-0.13 440.71,25.33 510.57,58.7 510.57,33.5 	"/>
	<g>
		<path class="st1" d="M130.27,52.89c-2.36,8.22-9.93,14.08-19.02,14.08c-11.87,0-20.38-9.62-20.38-20.69
			c0-10.59,8.04-20.58,20.33-20.58c11.19,0.05,17.54,8.49,19.07,14.3h-8.25c-1.21-2.74-4.67-7.2-10.87-7.26
			c-7.56,0-12.45,6.5-12.45,13.54c0,7.26,5.1,13.65,12.5,13.65c6.93,0,10.09-5.59,10.82-7.04H130.27z"/>
		<path class="st1" d="M175.39,54.02l-0.16-27.57h7.51v39.77h-6.93L157.9,38.7l0.16,27.52h-7.51V26.45h6.99L175.39,54.02z"/>
		<path class="st1" d="M205.07,26.45h21.8v7.04h-13.97v9.03h13.71v7.04h-13.71v9.62h13.97v7.04h-21.8V26.45z"/>
		<path class="st1" d="M259.78,33.49h-11v-7.04h29.84v7.04h-11.01v32.73h-7.83V33.49z"/>
		<path class="st1" d="M298.43,26.45h11.77c6.04,0,9.51,0.97,11.61,2.53c3.2,2.36,4.94,6.4,4.94,10.8c0,2.9-0.79,5.48-2.1,7.42
			c-1.68,2.53-3.89,3.65-6.41,4.3l8.67,14.73h-8.19l-10.45-18.49h1.52c2.57,0,5.36-0.16,6.99-1.45c1.52-1.29,2.47-3.39,2.47-5.8
			s-1.16-4.62-2.89-5.75c-1.42-0.91-3.31-1.24-5.52-1.24h-4.57v32.73h-7.83V26.45z"/>
		<path class="st1" d="M346.79,26.45h7.83v39.77h-7.83V26.45z"/>
		<path class="st1" d="M414.56,52.89c-2.36,8.22-9.93,14.08-19.02,14.08c-11.87,0-20.38-9.62-20.38-20.69
			c0-10.59,8.04-20.58,20.33-20.58c11.19,0.05,17.55,8.49,19.07,14.3h-8.25c-1.21-2.74-4.68-7.2-10.87-7.26
			c-7.56,0-12.45,6.5-12.45,13.54c0,7.26,5.09,13.65,12.5,13.65c6.93,0,10.09-5.59,10.82-7.04H414.56z"/>
	</g>
</g>
</svg>
