<svg xmlns="http://www.w3.org/2000/svg" xmlns:xlink="http://www.w3.org/1999/xlink" viewBox="0 0 479.64 150.9"><defs><style>.cls-1{isolation:isolate;}.cls-2,.cls-3,.cls-4,.cls-5{mix-blend-mode:overlay;}.cls-2{fill:url(#linear-gradient);}.cls-3{fill:url(#linear-gradient-2);}.cls-4{fill:url(#linear-gradient-3);}.cls-5{fill:url(#linear-gradient-4);}.cls-6{fill:#fff;}</style><linearGradient id="linear-gradient" x1="5414" y1="-1910.5" x2="5414" y2="-2024.35" gradientTransform="translate(2024.35 5517.18) rotate(-90)" gradientUnits="userSpaceOnUse"><stop offset="0" stop-color="#a2dadb"/><stop offset="0.16" stop-color="#79cfd0"/><stop offset="0.34" stop-color="#51c4c5"/><stop offset="0.52" stop-color="#32bcbc"/><stop offset="0.69" stop-color="#1cb6b6"/><stop offset="0.85" stop-color="#0fb2b2"/><stop offset="1" stop-color="#0ab1b1"/></linearGradient><linearGradient id="linear-gradient-2" x1="2074.61" y1="-1910.5" x2="2074.61" y2="-2024.35" gradientTransform="matrix(0, 1, 1, 0, 2024.35, -2026.89)" gradientUnits="userSpaceOnUse"><stop offset="0" stop-color="#893494"/><stop offset="1" stop-color="#0ab1b1"/></linearGradient><linearGradient id="linear-gradient-3" x1="2072.09" y1="5101.05" x2="2072.09" y2="5214.9" gradientTransform="translate(5580.67 -2024.35) rotate(90)" gradientUnits="userSpaceOnUse"><stop offset="0.01" stop-color="#fbb034"/><stop offset="0.17" stop-color="#faab35"/><stop offset="0.37" stop-color="#f79d37"/><stop offset="0.58" stop-color="#f2863a"/><stop offset="0.8" stop-color="#eb653f"/><stop offset="1" stop-color="#e44145"/></linearGradient><linearGradient id="linear-gradient-4" x1="5416.56" y1="5101.03" x2="5416.56" y2="5214.88" gradientTransform="matrix(0, -1, -1, 0, 5580.67, 5519.71)" gradientUnits="userSpaceOnUse"><stop offset="0" stop-color="#fbb034"/><stop offset="0.22" stop-color="#b4b059"/><stop offset="0.42" stop-color="#77b178"/><stop offset="0.61" stop-color="#48b191"/><stop offset="0.77" stop-color="#26b1a2"/><stop offset="0.91" stop-color="#11b1ad"/><stop offset="1" stop-color="#0ab1b1"/></linearGradient></defs><title>Cnetric Old Logo White</title><g class="cls-1"><g id="Layer_1" data-name="Layer 1"><polygon class="cls-2" points="113.85 110.87 113.85 150.9 0 95.48 0 55.46 113.85 110.87"/><polygon class="cls-3" points="113.85 40.03 113.85 0 0 55.42 0 95.44 113.85 40.03"/><polygon class="cls-4" points="365.77 40.05 365.77 0.02 479.62 55.44 479.62 95.46 365.77 40.05"/><polygon class="cls-5" points="365.79 110.85 365.79 150.88 479.64 95.46 479.64 55.44 365.79 110.85"/><path class="cls-6" d="M140.34,80.34A15.09,15.09,0,0,1,125.64,91a15.6,15.6,0,1,1,0-31.2,15.31,15.31,0,0,1,14.74,10.81H134a9.36,9.36,0,0,0-8.41-5.48c-5.85,0-9.62,4.91-9.62,10.23,0,5.48,3.94,10.32,9.66,10.32A9.5,9.5,0,0,0,134,80.34Z"/><path class="cls-6" d="M175.48,81.19l-.12-20.84h5.8V90.41H175.8L162,69.61l.13,20.8h-5.81V60.35h5.4Z"/><path class="cls-6" d="M200.29,60.35h16.86v5.32h-10.8V72.5H217v5.32h-10.6v7.27h10.8v5.32H200.29Z"/><path class="cls-6" d="M244.24,65.67h-7.85V60.35H258.1v5.32h-7.81V90.41h-6Z"/><path class="cls-6" d="M274,60.35h9.1c4.67,0,7.35.73,9,1.91A10.6,10.6,0,0,1,294.28,76a7.87,7.87,0,0,1-5,3.25L296,90.41h-6.34l-8.08-14h1.17c2,0,4.15-.13,5.41-1.1A5.65,5.65,0,0,0,290.1,71a5.16,5.16,0,0,0-2.24-4.34,8,8,0,0,0-4.26-.94h-3.54V90.41H274Z"/><path class="cls-6" d="M315.48,60.35h6V90.41h-6Z"/><path class="cls-6" d="M368.93,80.34A15.1,15.1,0,0,1,354.23,91a15.6,15.6,0,1,1,0-31.2,15.32,15.32,0,0,1,14.74,10.81h-6.38a9.33,9.33,0,0,0-8.4-5.48c-5.85,0-9.63,4.91-9.63,10.23,0,5.48,3.94,10.32,9.67,10.32a9.48,9.48,0,0,0,8.36-5.32Z"/></g></g></svg>