<svg xmlns="http://www.w3.org/2000/svg" xmlns:xlink="http://www.w3.org/1999/xlink" width="478.68" height="118"><path fill="#72c3c2" d="M73.68 17.55V40.3l-62.4 29.8V47.6z"/><path fill="#fff" d="M11.28 47.6l62.4 30.84v22L11.28 70.1z"/><path fill="#72c3c2" d="M467.4 47.6L405 78.44v22l62.4-30.35z"/><g fill="#fff"><path d="M405 17.55V40.3l62.4 29.8V47.6z"/><use xlink:href="#B"/><path d="M168 65.92l-.14-24.63h6.7v35.5h-6.2l-16-24.58.14 24.58h-6.7V41.3h6.24L168 65.92zm26.52-24.62H214v6.3h-12.5v8.06h12.25v6.3H201.5v8.6H214v6.3h-19.47V41.3zm48.88 6.28h-9.83V41.3h26.65v6.3h-9.83v29.23h-7V47.58zm34.5-6.28h10.5c5.4 0 8.5.86 10.37 2.26 2.86 2.1 4.4 5.7 4.4 9.65 0 2.6-.7 4.9-1.88 6.62-1.5 2.26-3.47 3.26-5.72 3.84l7.74 13.15H296l-9.34-16.5H288c2.3 0 4.8-.14 6.24-1.3 1.36-1.15 2.2-3.02 2.2-5.18s-1.03-4.13-2.58-5.14c-1.27-.82-2.96-1.1-4.93-1.1h-4.08v29.23h-7V41.3zm43.2 0h7v35.52h-7V41.3z"/><use xlink:href="#B" x="253.94"/></g><defs ><path id="B" d="M127.7 64.9c-2.1 7.34-8.87 12.58-17 12.58-10.6 0-18.2-8.6-18.2-18.48 0-9.46 7.18-18.4 18.16-18.4 10 .05 15.67 7.58 17.03 12.77h-7.37c-1.08-2.45-4.18-6.43-9.7-6.48-6.76 0-11.12 5.8-11.12 12.1 0 6.48 4.55 12.2 11.17 12.2 6.2 0 9-5 9.67-6.3h7.37z"/></defs></svg>