<?xml version="1.0" encoding="utf-8"?>
<!-- Generator: Adobe Illustrator 23.0.2, SVG Export Plug-In . SVG Version: 6.00 Build 0)  -->
<svg version="1.0" id="Layer_1" xmlns="http://www.w3.org/2000/svg" xmlns:xlink="http://www.w3.org/1999/xlink" x="0px" y="0px"
	 viewBox="0 0 90 90" style="enable-background:new 0 0 90 90;" xml:space="preserve">
<style type="text/css">
	.st0{fill:none;stroke:#05416F;stroke-width:2;stroke-miterlimit:10;}
</style>
<g>
	<g>
		<g>
			<path class="st0" d="M48.01,63.68L48.01,63.68L48.01,63.68z"/>
			<path class="st0" d="M63.57,48.13H48.01v15.55C55.98,62.39,62.28,56.09,63.57,48.13z"/>
		</g>
	</g>
</g>
<g>
	<g>
		<path class="st0" d="M48.01,26.55V42.1h15.55C62.28,34.14,55.98,27.83,48.01,26.55z"/>
	</g>
</g>
<g>
	<g>
		<path class="st0" d="M69.65,48.13C68.28,59.41,59.3,68.39,48.01,69.76v17.85c21.1-1.48,38.01-18.39,39.49-39.49H69.65z"/>
	</g>
</g>
<g>
	<g>
		<path class="st0" d="M48.01,2.61v17.85C59.3,21.83,68.28,30.81,69.65,42.1H87.5C86.02,21,69.11,4.09,48.01,2.61z"/>
	</g>
</g>
<g>
	<g>
		<path class="st0" d="M2.5,42.1h17.85c1.37-11.29,10.35-20.27,21.64-21.64V2.61C20.89,4.09,3.98,21,2.5,42.1z"/>
	</g>
</g>
<g>
	<g>
		<path class="st0" d="M26.44,42.1h15.55V26.55C34.03,27.83,27.72,34.14,26.44,42.1z"/>
	</g>
</g>
<g>
	<g>
		<path class="st0" d="M20.35,48.13H2.5c1.48,21.1,18.39,38.01,39.49,39.49V69.76C30.7,68.39,21.72,59.41,20.35,48.13z"/>
	</g>
</g>
<g>
	<g>
		<path class="st0" d="M26.44,48.13c1.29,7.96,7.59,14.27,15.55,15.55V48.13H26.44z"/>
	</g>
</g>
</svg>
