<svg id="Layer_1" data-name="Layer 1" xmlns="http://www.w3.org/2000/svg" xmlns:xlink="http://www.w3.org/1999/xlink" viewBox="0 0 387.39 345.54"><defs><style>.cls-1{fill:url(#linear-gradient);}.cls-111,.cls-2{opacity:0.2;}.cls-143,.cls-3,.cls-90{fill:#010101;}.cls-117,.cls-3,.cls-89{opacity:0.3;}.cls-111,.cls-4{fill:#c5d7e5;}.cls-5{fill:url(#linear-gradient-2);}.cls-6{fill:url(#linear-gradient-3);}.cls-7{fill:#13426f;}.cls-8{fill:url(#linear-gradient-4);}.cls-9{fill:url(#linear-gradient-5);}.cls-10{fill:url(#linear-gradient-6);}.cls-11{fill:url(#linear-gradient-7);}.cls-12{fill:url(#linear-gradient-8);}.cls-13{fill:url(#linear-gradient-9);}.cls-14{fill:url(#linear-gradient-10);}.cls-15{fill:url(#linear-gradient-11);}.cls-16{fill:url(#linear-gradient-12);}.cls-17{fill:url(#linear-gradient-13);}.cls-18{fill:url(#linear-gradient-14);}.cls-19{fill:url(#linear-gradient-15);}.cls-20{fill:url(#linear-gradient-16);}.cls-21{fill:url(#linear-gradient-17);}.cls-22{fill:url(#linear-gradient-18);}.cls-23{fill:url(#linear-gradient-19);}.cls-24{fill:url(#linear-gradient-20);}.cls-25{fill:url(#linear-gradient-21);}.cls-26{fill:url(#linear-gradient-22);}.cls-27{fill:url(#linear-gradient-23);}.cls-28{fill:url(#linear-gradient-24);}.cls-29{fill:url(#linear-gradient-25);}.cls-30{fill:url(#linear-gradient-26);}.cls-31{fill:url(#linear-gradient-27);}.cls-32{fill:url(#linear-gradient-28);}.cls-33{fill:url(#linear-gradient-29);}.cls-34{fill:url(#linear-gradient-30);}.cls-35{fill:url(#linear-gradient-31);}.cls-36{fill:url(#linear-gradient-32);}.cls-37{fill:url(#linear-gradient-33);}.cls-38{fill:url(#linear-gradient-34);}.cls-39{fill:url(#linear-gradient-35);}.cls-40{fill:url(#linear-gradient-36);}.cls-41{fill:url(#linear-gradient-37);}.cls-42{fill:url(#linear-gradient-38);}.cls-43{fill:url(#linear-gradient-39);}.cls-44{fill:url(#linear-gradient-40);}.cls-45{fill:url(#linear-gradient-41);}.cls-46{fill:url(#linear-gradient-42);}.cls-47{fill:url(#linear-gradient-43);}.cls-48{fill:url(#linear-gradient-44);}.cls-49{fill:url(#linear-gradient-45);}.cls-50{fill:url(#linear-gradient-46);}.cls-51{fill:url(#linear-gradient-47);}.cls-52{fill:url(#linear-gradient-48);}.cls-53{fill:url(#linear-gradient-49);}.cls-54{fill:url(#linear-gradient-50);}.cls-55{fill:url(#linear-gradient-51);}.cls-56{fill:url(#linear-gradient-52);}.cls-57{fill:url(#linear-gradient-53);}.cls-58{fill:url(#linear-gradient-54);}.cls-59{fill:url(#linear-gradient-55);}.cls-60{fill:url(#linear-gradient-56);}.cls-61{fill:url(#linear-gradient-57);}.cls-62{fill:url(#linear-gradient-58);}.cls-63{fill:url(#linear-gradient-59);}.cls-64{fill:url(#linear-gradient-60);}.cls-65{fill:url(#linear-gradient-61);}.cls-66{fill:url(#linear-gradient-62);}.cls-67{fill:url(#linear-gradient-63);}.cls-68{fill:url(#linear-gradient-64);}.cls-69{fill:url(#linear-gradient-65);}.cls-70{fill:url(#linear-gradient-66);}.cls-71{fill:url(#linear-gradient-67);}.cls-72{fill:url(#linear-gradient-68);}.cls-73{fill:url(#linear-gradient-69);}.cls-74{fill:url(#linear-gradient-70);}.cls-75{fill:url(#linear-gradient-71);}.cls-76{fill:url(#linear-gradient-72);}.cls-77{fill:url(#linear-gradient-73);}.cls-78{fill:url(#linear-gradient-74);}.cls-79{fill:url(#linear-gradient-75);}.cls-80{fill:url(#linear-gradient-76);}.cls-81{fill:url(#linear-gradient-77);}.cls-82{fill:url(#linear-gradient-78);}.cls-83{fill:url(#linear-gradient-79);}.cls-84{fill:url(#linear-gradient-80);}.cls-85{fill:url(#linear-gradient-81);}.cls-86{fill:url(#linear-gradient-82);}.cls-87{fill:url(#linear-gradient-83);}.cls-88{fill:url(#linear-gradient-84);}.cls-143,.cls-91{opacity:0.1;}.cls-92{fill:url(#linear-gradient-85);}.cls-93{fill:url(#linear-gradient-86);}.cls-94{fill:url(#linear-gradient-87);}.cls-95{fill:#efb084;}.cls-96{fill:#dc956a;}.cls-97{fill:#e6a376;}.cls-98{fill:#331e10;}.cls-99{fill:url(#linear-gradient-88);}.cls-100{fill:url(#linear-gradient-89);}.cls-101{fill:#bc815a;}.cls-102{fill:#2a2c35;}.cls-103{isolation:isolate;}.cls-104{fill:#1b1823;}.cls-105{fill:#22242d;}.cls-106{fill:#1c2027;}.cls-107{fill:#1e212a;}.cls-108{fill:#24262f;}.cls-109{fill:#0d0d0d;}.cls-110{opacity:0.8;}.cls-112{fill:#cedce8;opacity:0.22;}.cls-113{fill:#d7e2ec;opacity:0.23;}.cls-114{fill:#e0e8ef;opacity:0.25;}.cls-115{fill:#e9eef4;opacity:0.27;}.cls-116{fill:#f2f5f8;opacity:0.28;}.cls-117,.cls-140{fill:#fff;}.cls-118{fill:#d8e2ec;opacity:0.23;}.cls-119{fill:#dee6ef;}.cls-119,.cls-126{opacity:0.24;}.cls-120{fill:#e4eaf1;opacity:0.26;}.cls-121{fill:#eaeff4;opacity:0.27;}.cls-122{fill:#f0f3f7;opacity:0.28;}.cls-123{fill:#f6f8fb;opacity:0.29;}.cls-124{fill:#cfdde9;opacity:0.22;}.cls-125{fill:#d6e2ec;opacity:0.23;}.cls-126{fill:#dde7ef;}.cls-127{fill:#e5ecf2;opacity:0.26;}.cls-128{fill:#ecf1f5;opacity:0.27;}.cls-129{fill:#f4f7f9;opacity:0.29;}.cls-130{opacity:0.9;}.cls-131{fill:url(#linear-gradient-90);}.cls-132{fill:url(#linear-gradient-91);}.cls-133{opacity:0.4;}.cls-134{fill:#fcfdfd;opacity:0;}.cls-135{fill:#fcfefd;opacity:0.17;}.cls-136,.cls-137{fill:#fdfefe;}.cls-136{opacity:0.33;}.cls-137{opacity:0.5;}.cls-138{fill:#fefefe;opacity:0.67;}.cls-139{fill:#feffff;opacity:0.83;}.cls-141{fill:url(#linear-gradient-92);}.cls-142{fill:url(#linear-gradient-93);}.cls-144{fill:#131316;}.cls-145{fill:url(#linear-gradient-94);}.cls-146{fill:url(#linear-gradient-95);}.cls-147{fill:url(#linear-gradient-96);}.cls-148{fill:#ddeff7;}.cls-149{fill:url(#linear-gradient-97);}.cls-150{fill:url(#linear-gradient-98);}.cls-151{fill:url(#linear-gradient-99);}.cls-152{fill:url(#linear-gradient-100);}.cls-153{fill:#482213;}.cls-154{fill:#e7a477;}.cls-155{fill:#171817;}.cls-156{fill:url(#linear-gradient-101);}.cls-157{fill:url(#linear-gradient-102);}.cls-158{fill:url(#linear-gradient-103);}.cls-159{fill:url(#linear-gradient-104);}.cls-160{fill:url(#linear-gradient-105);}.cls-161{fill:#d99569;}.cls-162{fill:#f0b186;}.cls-163{fill:url(#linear-gradient-106);}.cls-164{fill:url(#linear-gradient-107);}</style><linearGradient id="linear-gradient" y1="233.71" x2="387.39" y2="233.71" gradientUnits="userSpaceOnUse"><stop offset="0" stop-color="#07629d"/><stop offset="1" stop-color="#2e83c5"/></linearGradient><linearGradient id="linear-gradient-2" x1="90.61" y1="226.99" x2="330.87" y2="226.99" xlink:href="#linear-gradient"/><linearGradient id="linear-gradient-3" x1="69.73" y1="149.08" x2="247.45" y2="149.08" xlink:href="#linear-gradient"/><linearGradient id="linear-gradient-4" x1="206.76" y1="210.9" x2="218.8" y2="210.9" xlink:href="#linear-gradient"/><linearGradient id="linear-gradient-5" x1="252.89" y1="184.29" x2="264.9" y2="184.29" xlink:href="#linear-gradient"/><linearGradient id="linear-gradient-6" x1="226.54" y1="199.5" x2="238.56" y2="199.5" xlink:href="#linear-gradient"/><linearGradient id="linear-gradient-7" x1="243.96" y1="209.63" x2="255.99" y2="209.63" xlink:href="#linear-gradient"/><linearGradient id="linear-gradient-8" x1="245.5" y1="179.46" x2="255.6" y2="179.46" xlink:href="#linear-gradient"/><linearGradient id="linear-gradient-9" x1="236.74" y1="184.53" x2="246.86" y2="184.53" xlink:href="#linear-gradient"/><linearGradient id="linear-gradient-10" x1="246.28" y1="188.09" x2="258.3" y2="188.09" xlink:href="#linear-gradient"/><linearGradient id="linear-gradient-11" x1="261.57" y1="189.34" x2="273.61" y2="189.34" xlink:href="#linear-gradient"/><linearGradient id="linear-gradient-12" x1="239.71" y1="191.88" x2="251.71" y2="191.88" xlink:href="#linear-gradient"/><linearGradient id="linear-gradient-13" x1="221.35" y1="193.41" x2="231.48" y2="193.41" xlink:href="#linear-gradient"/><linearGradient id="linear-gradient-14" x1="254.99" y1="193.15" x2="267.01" y2="193.15" xlink:href="#linear-gradient"/><linearGradient id="linear-gradient-15" x1="270.3" y1="194.42" x2="282.31" y2="194.42" xlink:href="#linear-gradient"/><linearGradient id="linear-gradient-16" x1="233.14" y1="195.69" x2="245.14" y2="195.69" xlink:href="#linear-gradient"/><linearGradient id="linear-gradient-17" x1="248.42" y1="196.94" x2="260.45" y2="196.94" xlink:href="#linear-gradient"/><linearGradient id="linear-gradient-18" x1="212.58" y1="198.46" x2="222.69" y2="198.46" xlink:href="#linear-gradient"/><linearGradient id="linear-gradient-19" x1="263.71" y1="198.21" x2="275.74" y2="198.21" xlink:href="#linear-gradient"/><linearGradient id="linear-gradient-20" x1="279.05" y1="199.5" x2="291.04" y2="199.5" xlink:href="#linear-gradient"/><linearGradient id="linear-gradient-21" x1="241.82" y1="200.75" x2="253.84" y2="200.75" xlink:href="#linear-gradient"/><linearGradient id="linear-gradient-22" x1="257.12" y1="202.01" x2="269.17" y2="202.01" xlink:href="#linear-gradient"/><linearGradient id="linear-gradient-23" x1="219.95" y1="203.29" x2="231.95" y2="203.29" xlink:href="#linear-gradient"/><linearGradient id="linear-gradient-24" x1="235.24" y1="204.55" x2="247.27" y2="204.55" xlink:href="#linear-gradient"/><linearGradient id="linear-gradient-25" x1="250.55" y1="205.84" x2="262.57" y2="205.84" xlink:href="#linear-gradient"/><linearGradient id="linear-gradient-26" x1="197.24" y1="207.33" x2="207.32" y2="207.33" xlink:href="#linear-gradient"/><linearGradient id="linear-gradient-27" x1="213.37" y1="207.1" x2="225.36" y2="207.1" xlink:href="#linear-gradient"/><linearGradient id="linear-gradient-28" x1="228.67" y1="208.36" x2="240.7" y2="208.36" xlink:href="#linear-gradient"/><linearGradient id="linear-gradient-29" x1="259.27" y1="210.88" x2="271.27" y2="210.88" xlink:href="#linear-gradient"/><linearGradient id="linear-gradient-30" x1="188.46" y1="212.41" x2="198.54" y2="212.41" xlink:href="#linear-gradient"/><linearGradient id="linear-gradient-31" x1="222.09" y1="212.17" x2="234.1" y2="212.17" xlink:href="#linear-gradient"/><linearGradient id="linear-gradient-32" x1="237.38" y1="213.42" x2="249.42" y2="213.42" xlink:href="#linear-gradient"/><linearGradient id="linear-gradient-33" x1="200.17" y1="214.7" x2="212.2" y2="214.7" xlink:href="#linear-gradient"/><linearGradient id="linear-gradient-34" x1="252.67" y1="214.7" x2="264.7" y2="214.7" xlink:href="#linear-gradient"/><linearGradient id="linear-gradient-35" x1="230.79" y1="217.23" x2="242.82" y2="217.23" xlink:href="#linear-gradient"/><linearGradient id="linear-gradient-36" x1="193.62" y1="218.5" x2="205.61" y2="218.5" xlink:href="#linear-gradient"/><linearGradient id="linear-gradient-37" x1="208.92" y1="219.76" x2="220.94" y2="219.76" xlink:href="#linear-gradient"/><linearGradient id="linear-gradient-38" x1="224.21" y1="221.03" x2="236.25" y2="221.03" xlink:href="#linear-gradient"/><linearGradient id="linear-gradient-39" x1="187.02" y1="222.3" x2="199.05" y2="222.3" xlink:href="#linear-gradient"/><linearGradient id="linear-gradient-40" x1="202.35" y1="223.56" x2="214.35" y2="223.56" xlink:href="#linear-gradient"/><linearGradient id="linear-gradient-41" x1="217.62" y1="224.83" x2="229.68" y2="224.83" xlink:href="#linear-gradient"/><linearGradient id="linear-gradient-42" x1="180.42" y1="226.1" x2="192.46" y2="226.1" xlink:href="#linear-gradient"/><linearGradient id="linear-gradient-43" x1="195.73" y1="227.37" x2="207.75" y2="227.37" xlink:href="#linear-gradient"/><linearGradient id="linear-gradient-44" x1="211.04" y1="228.65" x2="223.04" y2="228.65" xlink:href="#linear-gradient"/><linearGradient id="linear-gradient-45" x1="173.87" y1="229.9" x2="185.86" y2="229.9" xlink:href="#linear-gradient"/><linearGradient id="linear-gradient-46" x1="155.51" y1="231.39" x2="165.63" y2="231.39" xlink:href="#linear-gradient"/><linearGradient id="linear-gradient-47" x1="189.15" y1="231.17" x2="201.18" y2="231.17" xlink:href="#linear-gradient"/><linearGradient id="linear-gradient-48" x1="204.42" y1="232.44" x2="216.47" y2="232.44" xlink:href="#linear-gradient"/><linearGradient id="linear-gradient-49" x1="167.25" y1="233.7" x2="179.3" y2="233.7" xlink:href="#linear-gradient"/><linearGradient id="linear-gradient-50" x1="182.59" y1="234.96" x2="194.58" y2="234.96" xlink:href="#linear-gradient"/><linearGradient id="linear-gradient-51" x1="146.74" y1="236.46" x2="156.83" y2="236.46" xlink:href="#linear-gradient"/><linearGradient id="linear-gradient-52" x1="197.87" y1="236.24" x2="209.88" y2="236.24" xlink:href="#linear-gradient"/><linearGradient id="linear-gradient-53" x1="160.7" y1="237.51" x2="172.7" y2="237.51" xlink:href="#linear-gradient"/><linearGradient id="linear-gradient-54" x1="175.98" y1="238.78" x2="188.01" y2="238.78" xlink:href="#linear-gradient"/><linearGradient id="linear-gradient-55" x1="191.29" y1="240.04" x2="203.29" y2="240.04" xlink:href="#linear-gradient"/><linearGradient id="linear-gradient-56" x1="154.1" y1="241.31" x2="166.12" y2="241.31" xlink:href="#linear-gradient"/><linearGradient id="linear-gradient-57" x1="169.39" y1="242.57" x2="181.43" y2="242.57" xlink:href="#linear-gradient"/><linearGradient id="linear-gradient-58" x1="184.7" y1="243.84" x2="196.72" y2="243.84" xlink:href="#linear-gradient"/><linearGradient id="linear-gradient-59" x1="131.4" y1="245.34" x2="141.5" y2="245.34" xlink:href="#linear-gradient"/><linearGradient id="linear-gradient-60" x1="147.51" y1="245.11" x2="159.55" y2="245.11" xlink:href="#linear-gradient"/><linearGradient id="linear-gradient-61" x1="162.8" y1="246.36" x2="174.84" y2="246.36" xlink:href="#linear-gradient"/><linearGradient id="linear-gradient-62" x1="140.92" y1="248.9" x2="152.93" y2="248.9" xlink:href="#linear-gradient"/><linearGradient id="linear-gradient-63" x1="122.6" y1="250.43" x2="132.68" y2="250.43" xlink:href="#linear-gradient"/><linearGradient id="linear-gradient-64" x1="156.22" y1="250.18" x2="168.27" y2="250.18" xlink:href="#linear-gradient"/><linearGradient id="linear-gradient-65" x1="171.55" y1="251.45" x2="183.56" y2="251.45" xlink:href="#linear-gradient"/><linearGradient id="linear-gradient-66" x1="134.35" y1="252.71" x2="146.34" y2="252.71" xlink:href="#linear-gradient"/><linearGradient id="linear-gradient-67" x1="186.83" y1="235.6" x2="258.12" y2="235.6" xlink:href="#linear-gradient"/><linearGradient id="linear-gradient-68" x1="149.65" y1="253.98" x2="161.69" y2="253.98" xlink:href="#linear-gradient"/><linearGradient id="linear-gradient-69" x1="164.94" y1="255.26" x2="176.97" y2="255.26" xlink:href="#linear-gradient"/><linearGradient id="linear-gradient-70" x1="127.76" y1="256.52" x2="139.79" y2="256.52" xlink:href="#linear-gradient"/><linearGradient id="linear-gradient-71" x1="180.27" y1="256.52" x2="192.27" y2="256.52" xlink:href="#linear-gradient"/><linearGradient id="linear-gradient-72" x1="143.08" y1="257.77" x2="155.09" y2="257.77" xlink:href="#linear-gradient"/><linearGradient id="linear-gradient-73" x1="158.37" y1="259.04" x2="170.38" y2="259.04" xlink:href="#linear-gradient"/><linearGradient id="linear-gradient-74" x1="173.65" y1="260.31" x2="185.7" y2="260.31" xlink:href="#linear-gradient"/><linearGradient id="linear-gradient-75" x1="136.47" y1="261.58" x2="148.52" y2="261.58" xlink:href="#linear-gradient"/><linearGradient id="linear-gradient-76" x1="151.78" y1="262.86" x2="163.8" y2="262.86" xlink:href="#linear-gradient"/><linearGradient id="linear-gradient-77" x1="167.08" y1="264.11" x2="179.1" y2="264.11" xlink:href="#linear-gradient"/><linearGradient id="linear-gradient-78" x1="145.2" y1="266.65" x2="157.22" y2="266.65" xlink:href="#linear-gradient"/><linearGradient id="linear-gradient-79" x1="160.52" y1="267.91" x2="172.5" y2="267.91" xlink:href="#linear-gradient"/><linearGradient id="linear-gradient-80" x1="153.89" y1="271.72" x2="165.92" y2="271.72" xlink:href="#linear-gradient"/><linearGradient id="linear-gradient-81" x1="215.48" y1="215.96" x2="227.51" y2="215.96" xlink:href="#linear-gradient"/><linearGradient id="linear-gradient-82" x1="178.11" y1="247.64" x2="190.16" y2="247.64" xlink:href="#linear-gradient"/><linearGradient id="linear-gradient-83" x1="265.83" y1="207.1" x2="277.88" y2="207.1" xlink:href="#linear-gradient"/><linearGradient id="linear-gradient-84" x1="272.43" y1="203.29" x2="284.46" y2="203.29" xlink:href="#linear-gradient"/><linearGradient id="linear-gradient-85" x1="126.42" y1="275.12" x2="133.37" y2="275.12" xlink:href="#linear-gradient"/><linearGradient id="linear-gradient-86" x1="111.2" y1="281.83" x2="128.24" y2="281.83" xlink:href="#linear-gradient"/><linearGradient id="linear-gradient-87" x1="114.55" y1="281.29" x2="129.86" y2="281.29" xlink:href="#linear-gradient"/><linearGradient id="linear-gradient-88" x1="118.07" y1="209.24" x2="126.24" y2="209.24" xlink:href="#linear-gradient"/><linearGradient id="linear-gradient-89" x1="120.55" y1="206.55" x2="133.92" y2="206.55" xlink:href="#linear-gradient"/><linearGradient id="linear-gradient-90" x1="104.1" y1="188.24" x2="137.01" y2="188.24" xlink:href="#linear-gradient"/><linearGradient id="linear-gradient-91" x1="150.71" y1="159.16" x2="183.63" y2="159.16" xlink:href="#linear-gradient"/><linearGradient id="linear-gradient-92" x1="245.21" y1="128.61" x2="253.71" y2="128.61" xlink:href="#linear-gradient"/><linearGradient id="linear-gradient-93" x1="206.57" y1="132.2" x2="236.08" y2="132.2" xlink:href="#linear-gradient"/><linearGradient id="linear-gradient-94" x1="228.79" y1="142.78" x2="253" y2="142.78" xlink:href="#linear-gradient"/><linearGradient id="linear-gradient-95" x1="228.79" y1="146.17" x2="239.31" y2="146.17" xlink:href="#linear-gradient"/><linearGradient id="linear-gradient-96" x1="238.8" y1="142.32" x2="253.12" y2="142.32" xlink:href="#linear-gradient"/><linearGradient id="linear-gradient-97" x1="229.41" y1="134.7" x2="237.91" y2="134.7" xlink:href="#linear-gradient"/><linearGradient id="linear-gradient-98" x1="17.51" y1="127.78" x2="56.11" y2="127.78" xlink:href="#linear-gradient"/><linearGradient id="linear-gradient-99" x1="87.3" y1="54.78" x2="135.98" y2="54.78" xlink:href="#linear-gradient"/><linearGradient id="linear-gradient-100" x1="265.51" y1="69.68" x2="314.19" y2="69.68" xlink:href="#linear-gradient"/><linearGradient id="linear-gradient-101" x1="348.17" y1="208.13" x2="360.97" y2="208.13" xlink:href="#linear-gradient"/><linearGradient id="linear-gradient-102" x1="352.96" y1="209.83" x2="360.97" y2="209.83" xlink:href="#linear-gradient"/><linearGradient id="linear-gradient-103" x1="356.24" y1="209.82" x2="372.11" y2="209.82" xlink:href="#linear-gradient"/><linearGradient id="linear-gradient-104" x1="361.75" y1="210.34" x2="372.11" y2="210.34" xlink:href="#linear-gradient"/><linearGradient id="linear-gradient-105" x1="349.95" y1="151.31" x2="362.13" y2="151.31" xlink:href="#linear-gradient"/><linearGradient id="linear-gradient-106" x1="353.38" y1="153.7" x2="366.13" y2="153.7" xlink:href="#linear-gradient"/><linearGradient id="linear-gradient-107" x1="350.46" y1="145.72" x2="360.54" y2="145.72" xlink:href="#linear-gradient"/></defs><title>Driving Emotional Connection</title><path class="cls-1" d="M330.66,154.63C255,111,132.38,111,56.73,154.63s-75.64,114.48,0,158.15,198.28,43.68,273.93,0S406.3,198.3,330.66,154.63Z"/><g class="cls-2"><path class="cls-3" d="M81.16,261,167.3,311c5.45,3.16,16.38,2.7,21.89-.48,38.06-22,150.24-87.46,150.24-87.46,5.52-3.2,5.54-8.32.09-11.48L252.46,161Z"/></g><path class="cls-4" d="M91.18,252.39c1.2,4.48,78.3,45.53,78.3,45.53,5,2.89,15,2.45,20-.48,34.85-20.12,136.69-79.55,136.69-79.55,5-2.9,6.53-10.41,1.56-13.29l-80.31-44S79.79,210.38,91.18,252.39Z"/><path class="cls-5" d="M90.61,248.86l78.87,45.83c5,2.88,15,2.46,20-.45,34.85-20.14,137.57-80.07,137.57-80.07,5-2.93,5.06-7.62.06-10.51l-79.69-46.33Z"/><path class="cls-4" d="M69.81,139q.1-.87.3-1.77c.06-.17.08-.34.14-.52a14,14,0,0,1,.59-1.8,1.11,1.11,0,0,1,.08-.29c.21-.5.45-1,.71-1.48a6.82,6.82,0,0,1,.41-.68,9.62,9.62,0,0,1,.78-1.12,2.22,2.22,0,0,1,.21-.32,10.58,10.58,0,0,1,1.18-1.29c.14-.1.2-.17.34-.27a8.17,8.17,0,0,1,1.43-1l138.5-79.94a7.59,7.59,0,0,1,1.62-.69,3.32,3.32,0,0,1,.54-.15,3.86,3.86,0,0,1,.74-.14,3.77,3.77,0,0,1,.67,0h.49a6.2,6.2,0,0,1,1,.16l-3.93-1a2.8,2.8,0,0,0-.69-.13h-.31a3.86,3.86,0,0,0-.5,0h-.32l-.34,0c-.2,0-.46.08-.71.14a1.13,1.13,0,0,0-.36.06.46.46,0,0,0-.21.1,6.17,6.17,0,0,0-1.62.67L72,127.51a7.9,7.9,0,0,0-1.43,1l-.28.23a13.89,13.89,0,0,0-1.22,1.31l-.2.27c-.14.18-.33.37-.47.58s-.2.44-.34.62a7.47,7.47,0,0,0-.4.64c0,.12-.12.22-.17.33a7.22,7.22,0,0,0-.54,1.28.38.38,0,0,0-.09.13v0a8.38,8.38,0,0,0-.48,1.41c0,.15-.06.34-.1.47a3.1,3.1,0,0,0-.1.42,2.55,2.55,0,0,0-.13.55,9.42,9.42,0,0,0-.19,1.28.59.59,0,0,1-.05.2v.08c0,.62,0,1.23,0,1.86,0,0,0,.09,0,.12a12.38,12.38,0,0,0,.29,2.34l25.05,109.7,3.33,1.93L70.05,143.64a14,14,0,0,1-.3-2.35c0-.67,0-1.37,0-2A.65.65,0,0,0,69.81,139Z"/><path class="cls-6" d="M214.48,48.52c4.5-2.62,9.24-.09,10.53,5.67l22.44,103.14L93.68,250.67l-23.63-107c-1.28-5.75,1.38-12.54,5.93-15.18Z"/><polygon class="cls-7" points="75.46 146.67 221.93 63.08 241.35 151.68 96.83 240.32 75.46 146.67"/><path class="cls-4" d="M299.57,198.89,159.92,279.52l-46.6-27.11,139.62-80.62ZM193.09,256.18l65-37.53L251.85,215l-65,37.52,6.26,3.65Zm41.33-51.31-5.75,3.33,6.27,3.65,5.76-3.33-6.28-3.65Zm20.27-4.43,5.76-3.31-6.28-3.68-5.75,3.35,6.27,3.64Zm-79,45.62,5.76-3.33-6.28-3.65-5.76,3.33,6.28,3.65Zm19.23-18.38L189.15,231l6.27,3.67,5.76-3.34-6.28-3.65Zm-39,29.79,5.75-3.33-6.29-3.65-5.75,3.33,6.29,3.65Zm65-37.53-6.28-3.67-5.74,3.34,6.29,3.65,5.73-3.32Zm.33-7.47-5.79,3.35,6.27,3.63,5.76-3.33-6.24-3.65Zm-78.52,52.6,5.77-3.33-6.3-3.65-5.75,3.34,6.28,3.64ZM261.3,196.66l5.71-3.35-6.27-3.66L255,193l6.31,3.66Zm-59.83,27.23-5.74,3.32,6.25,3.65,5.77-3.34-6.28-3.63ZM241.53,208l5.74-3.31L241,201.07l-5.75,3.34,6.29,3.62Zm-59.81,27.26L176,238.61l6.28,3.65,5.75-3.33-6.29-3.64Zm-19.21,18.36,5.76-3.33-6.3-3.61L156.22,250l6.29,3.63Zm10.82,13.94,5.77-3.31-6.25-3.65L167.08,264l6.25,3.63Zm90.07-62.1,5.77-3.32-6.27-3.65-5.78,3.35,6.28,3.62Zm-59.76,27.27-5.77,3.33,6.25,3.62,5.76-3.3-6.24-3.65Zm22.08-32.95L220,203.14l6.26,3.64,5.74-3.35-6.23-3.62ZM246,195.35l5.74-3.32-6.25-3.63-5.75,3.32,6.26,3.63Zm-28.35,29.31,6.28,3.66,5.78-3.33-6.27-3.64-5.79,3.31Zm-5.42-9.82L206,211.21l-5.78,3.33,6.28,3.65,5.75-3.35Zm31-4.9-5.77,3.31,6.26,3.65,5.78-3.33-6.27-3.63Zm29,.65,5.78-3.34-6.28-3.64-5.77,3.31,6.27,3.67Zm-85.92,12L180.42,226l6.29,3.63,5.75-3.35-6.28-3.63Zm-21.55,39.91,5.75-3.31-6.25-3.66-5.76,3.35,6.26,3.62Zm19.75-11.4,5.78-3.32-6.28-3.63-5.77,3.33,6.27,3.62ZM167,241l5.75-3.34L166.43,234l-5.73,3.31L167,241ZM147.2,252.39l5.73-3.34-6.23-3.63-5.78,3.34,6.28,3.63Zm65.33-45-5.77,3.33,6.27,3.65,5.77-3.32-6.27-3.66Zm-41.32,51.35,5.76-3.36-6.25-3.62-5.78,3.31,6.27,3.67Zm-17.44-10.14,5.78-3.33-6.29-3.66L147.51,245l6.26,3.64ZM210.21,229l-5.79,3.32,6.29,3.64,5.76-3.34L210.21,229Zm22.58-26,5.77-3.31L232.29,196l-5.75,3.3,6.25,3.64Zm-40,15.84L187,222.16l6.25,3.62,5.78-3.33-6.27-3.64Zm57.45-5.69,5.76-3.33-6.26-3.64L244,209.48l6.27,3.64ZM230,217.55l-5.78,3.33,6.26,3.63,5.78-3.33L230,217.55Zm28.93.64,5.78-3.35-6.24-3.63-5.79,3.33,6.25,3.65Zm-68.46,22.17-5.76,3.32,6.25,3.63,5.77-3.32-6.26-3.63ZM173,230.21l-5.76,3.32,6.27,3.67,5.78-3.33L173,230.21Zm-12.86,45,5.77-3.36-6.24-3.62-5.79,3.32,6.26,3.66Zm118.53-68.43,5.78-3.32-6.26-3.65-5.77,3.33,6.25,3.64ZM270,201.7l5.76-3.32-6.26-3.66-5.77,3.35L270,201.7ZM151.45,270.13l5.77-3.33L151,263.16l-5.75,3.33,6.25,3.64Zm101.08-78.56,5.77-3.32L252,184.6l-5.76,3.32,6.25,3.65ZM179.91,263.8l5.79-3.35-6.27-3.63-5.78,3.34,6.26,3.64ZM134,260l5.78-3.3L133.54,253l-5.78,3.33L134,260Zm133.87-67.17,5.73-3.32-6.27-3.64-5.77,3.32,6.31,3.64Zm-79.57,38.67-5.72,3.32,6.27,3.62,5.72-3.29-6.27-3.65Zm-19.22,18.35,5.75-3.32-6.29-3.63-5.75,3.31,6.29,3.64Zm79-45.61,5.71-3.32-6.26-3.64-5.76,3.32,6.31,3.64Zm-20.3,4.46L222.09,212l6.28,3.68,5.73-3.33-6.27-3.64Zm-78.47,52.56,5.73-3.31-6.27-3.64-5.74,3.32,6.28,3.63Zm65-37.5-6.3-3.67-5.7,3.32,6.26,3.63,5.74-3.28Zm-73.72,32.43,5.71-3.32-6.23-3.62-5.76,3.29,6.28,3.65ZM276.56,197.9l5.75-3.33L276.05,191l-5.75,3.31,6.26,3.64ZM158,266.34,163.8,263l-6.26-3.64-5.76,3.31,6.26,3.65Zm78.52-52.6-5.77,3.34,6.26,3.65,5.77-3.32-6.26-3.67Zm2.82-14.57,5.76-3.33-6.3-3.62-5.7,3.31,6.24,3.64Zm-20.29,4.44-5.72,3.31,6.24,3.67,5.75-3.33-6.27-3.65ZM186.51,260l5.76-3.3L186,253l-5.75,3.33,6.24,3.62Zm98.76-57,5.77-3.31L284.76,196l-5.71,3.3,6.22,3.64Zm-107.49,52,5.78-3.33L177.29,248l-5.74,3.32,6.23,3.65Zm79-45.61,5.77-3.33-6.27-3.63-5.75,3.29,6.25,3.67Zm-96.42,35.46,5.74-3.31-6.29-3.63-5.73,3.31,6.28,3.63Zm6.36,26.62,5.76-3.33-6.23-3.65-5.75,3.32,6.22,3.66Zm12.84-45-5.71,3.33,6.26,3.62,5.73-3.33-6.28-3.62Zm86-12.08,5.72-3.28L265,207.42l-5.74,3.31,6.28,3.61Zm-59.94,4.31L199.35,215l-5.73,3.33,6.25,3.64,5.74-3.33Zm5.43,9.81,6.26,3.68,5.74-3.36-6.23-3.63L211,228.46Zm48.09-40.68,5.77-3.35-6.27-3.62-5.74,3.31,6.24,3.66ZM197,236.55l-5.75,3.32,6.26,3.66,5.74-3.32L197,236.55ZM203,204.41l-5.74,3.34,4.33,2.5,5.75-3.33L203,204.41Zm-41.69,24.05-5.78,3.32,4.34,2.55,5.78-3.33-4.34-2.54Zm81.18-46.87-5.73,3.31,4.34,2.57,5.78-3.35-4.39-2.53Zm-24.12,13.94-5.77,3.34,4.4,2.51,5.71-3.31-4.34-2.54Zm8.77-5.06-5.77,3.35,4.37,2.52,5.76-3.34-4.36-2.53Zm-90,51.94-5.72,3.35,4.33,2.52,5.77-3.34-4.38-2.53Zm-8.75,5.09-5.77,3.31,4.33,2.55,5.75-3.34-4.31-2.52Zm22.72-8.11,5.74-3.3-4.35-2.56-5.74,3.33,4.35,2.53Zm98.77-57,5.74-3.32-4.37-2.51-5.73,3.31,4.36,2.52Zm-55.68,27.11-5.72,3.31,4.33,2.55,5.75-3.32-4.36-2.54Z"/><polygon class="cls-8" points="206.76 210.73 213.03 214.38 218.79 211.06 212.53 207.42 206.76 210.73"/><polygon class="cls-9" points="252.89 184.13 259.13 187.78 264.9 184.43 258.63 180.81 252.89 184.13"/><polygon class="cls-10" points="226.54 199.33 232.79 202.97 238.56 199.66 232.29 196.03 226.54 199.33"/><polygon class="cls-11" points="243.96 209.48 250.23 213.12 255.99 209.79 249.73 206.15 243.96 209.48"/><polygon class="cls-12" points="245.5 179.85 249.86 182.37 255.59 179.05 251.23 176.54 245.5 179.85"/><polygon class="cls-13" points="236.74 184.9 241.08 187.47 246.86 184.13 242.47 181.59 236.74 184.9"/><polygon class="cls-14" points="246.28 187.92 252.53 191.57 258.3 188.25 252.04 184.6 246.28 187.92"/><polygon class="cls-15" points="261.57 189.18 267.88 192.82 273.61 189.5 267.34 185.86 261.57 189.18"/><polygon class="cls-16" points="239.71 191.72 245.97 195.35 251.71 192.03 245.46 188.4 239.71 191.72"/><polygon class="cls-17" points="221.35 193.82 225.72 196.34 231.49 193 227.12 190.47 221.35 193.82"/><polygon class="cls-18" points="255 193 261.3 196.66 267.01 193.31 260.74 189.65 255 193"/><polygon class="cls-19" points="270.3 194.26 276.56 197.9 282.31 194.57 276.05 190.95 270.3 194.26"/><polygon class="cls-20" points="233.14 195.53 239.38 199.17 245.14 195.84 238.84 192.22 233.14 195.53"/><polygon class="cls-21" points="248.42 196.8 254.69 200.44 260.45 197.13 254.17 193.45 248.42 196.8"/><polygon class="cls-22" points="212.58 198.87 216.98 201.38 222.69 198.07 218.35 195.53 212.58 198.87"/><polygon class="cls-23" points="263.71 198.07 269.98 201.7 275.74 198.38 269.48 194.72 263.71 198.07"/><polygon class="cls-24" points="279.05 199.33 285.27 202.97 291.04 199.66 284.76 196.03 279.05 199.33"/><polygon class="cls-25" points="241.82 200.59 248.13 204.23 253.84 200.91 247.58 197.27 241.82 200.59"/><polygon class="cls-26" points="257.13 201.87 263.4 205.49 269.17 202.17 262.9 198.52 257.13 201.87"/><polygon class="cls-27" points="219.95 203.14 226.21 206.78 231.96 203.43 225.72 199.81 219.95 203.14"/><polygon class="cls-28" points="235.24 204.41 241.53 208.03 247.28 204.72 240.99 201.07 235.24 204.41"/><polygon class="cls-29" points="250.55 205.65 256.8 209.31 262.57 205.99 256.3 202.36 250.55 205.65"/><polygon class="cls-30" points="197.24 207.75 201.57 210.25 207.32 206.92 202.98 204.41 197.24 207.75"/><polygon class="cls-31" points="213.37 206.92 219.61 210.59 225.36 207.26 219.09 203.61 213.37 206.92"/><polygon class="cls-32" points="228.67 208.2 234.94 211.85 240.7 208.52 234.42 204.87 228.67 208.2"/><polygon class="cls-33" points="259.27 210.73 265.55 214.34 271.27 211.06 265.01 207.42 259.27 210.73"/><polygon class="cls-34" points="188.46 212.79 192.79 215.34 198.54 212.02 194.18 209.48 188.46 212.79"/><polygon class="cls-35" points="222.09 211.98 228.37 215.66 234.1 212.33 227.83 208.69 222.09 211.98"/><polygon class="cls-36" points="237.38 213.25 243.64 216.9 249.42 213.57 243.15 209.94 237.38 213.25"/><polygon class="cls-37" points="200.17 214.54 206.45 218.19 212.2 214.84 205.95 211.21 200.17 214.54"/><polygon class="cls-38" points="252.67 214.54 258.92 218.19 264.7 214.84 258.46 211.21 252.67 214.54"/><polygon class="cls-39" points="230.79 217.08 237.05 220.73 242.82 217.41 236.56 213.74 230.79 217.08"/><polygon class="cls-40" points="193.62 218.34 199.87 221.98 205.61 218.65 199.35 215.01 193.62 218.34"/><polygon class="cls-41" points="208.92 219.61 215.21 223.26 220.94 219.94 214.66 216.27 208.92 219.61"/><polygon class="cls-42" points="224.21 220.88 230.47 224.51 236.25 221.18 229.99 217.55 224.21 220.88"/><polygon class="cls-43" points="187.02 222.16 193.27 225.78 199.05 222.45 192.78 218.81 187.02 222.16"/><polygon class="cls-44" points="202.35 223.4 208.61 227.03 214.34 223.75 208.05 220.08 202.35 223.4"/><polygon class="cls-45" points="217.62 224.66 223.9 228.32 229.68 224.99 223.41 221.35 217.62 224.66"/><polygon class="cls-46" points="180.42 225.96 186.71 229.59 192.46 226.24 186.18 222.61 180.42 225.96"/><polygon class="cls-47" points="195.73 227.22 201.99 230.86 207.75 227.52 201.47 223.89 195.73 227.22"/><polygon class="cls-48" points="211.04 228.46 217.3 232.14 223.04 228.78 216.81 225.15 211.04 228.46"/><polygon class="cls-49" points="173.87 229.75 180.13 233.37 185.86 230.04 179.58 226.42 173.87 229.75"/><polygon class="cls-50" points="155.5 231.78 159.85 234.32 165.63 231 161.29 228.46 155.5 231.78"/><polygon class="cls-51" points="189.15 231 195.42 234.67 201.18 231.33 194.9 227.68 189.15 231"/><polygon class="cls-52" points="204.42 232.28 210.71 235.93 216.47 232.58 210.21 228.96 204.42 232.28"/><polygon class="cls-53" points="167.25 233.53 173.51 237.2 179.3 233.87 173 230.21 167.25 233.53"/><polygon class="cls-54" points="182.59 234.81 188.86 238.43 194.58 235.14 188.31 231.49 182.59 234.81"/><polygon class="cls-55" points="146.74 236.85 151.09 239.39 156.83 236.09 152.48 233.53 146.74 236.85"/><polygon class="cls-56" points="197.87 236.09 204.12 239.71 209.88 236.41 203.64 232.76 197.87 236.09"/><polygon class="cls-57" points="160.7 237.34 166.95 241 172.7 237.66 166.43 234.03 160.7 237.34"/><polygon class="cls-58" points="175.97 238.61 182.26 242.26 188 238.93 181.72 235.29 175.97 238.61"/><polygon class="cls-59" points="191.29 239.87 197.55 243.53 203.29 240.21 197.04 236.55 191.29 239.87"/><polygon class="cls-60" points="154.1 241.15 160.38 244.78 166.12 241.47 159.83 237.84 154.1 241.15"/><polygon class="cls-61" points="169.39 242.41 175.67 246.06 181.43 242.73 175.15 239.08 169.39 242.41"/><polygon class="cls-62" points="184.7 243.68 190.96 247.31 196.72 243.99 190.46 240.36 184.7 243.68"/><polygon class="cls-63" points="131.4 245.76 135.73 248.28 141.5 244.94 137.12 242.41 131.4 245.76"/><polygon class="cls-64" points="147.51 244.97 153.78 248.61 159.55 245.28 153.26 241.62 147.51 244.97"/><polygon class="cls-65" points="162.8 246.2 169.09 249.84 174.84 246.52 168.55 242.89 162.8 246.2"/><polygon class="cls-66" points="140.92 248.76 147.2 252.39 152.93 249.05 146.7 245.42 140.92 248.76"/><polygon class="cls-67" points="122.6 250.81 126.93 253.36 132.68 250.02 128.37 247.5 122.6 250.81"/><polygon class="cls-68" points="156.22 250.02 162.51 253.65 168.27 250.32 161.97 246.72 156.22 250.02"/><polygon class="cls-69" points="171.55 251.28 177.78 254.93 183.56 251.6 177.29 247.96 171.55 251.28"/><polygon class="cls-70" points="134.35 252.53 140.63 256.19 146.34 252.86 140.11 249.24 134.35 252.53"/><polygon class="cls-71" points="186.83 252.53 193.09 256.19 258.13 218.65 251.85 215.01 186.83 252.53"/><polygon class="cls-72" points="149.65 253.82 155.94 257.47 161.69 254.14 155.4 250.49 149.65 253.82"/><polygon class="cls-73" points="164.94 255.08 171.21 258.75 176.97 255.39 170.72 251.77 164.94 255.08"/><polygon class="cls-74" points="127.76 256.37 134 259.99 139.79 256.69 133.54 253.04 127.76 256.37"/><polygon class="cls-75" points="180.27 256.37 186.51 259.99 192.27 256.69 186.02 253.04 180.27 256.37"/><polygon class="cls-76" points="143.08 257.62 149.36 261.25 155.09 257.94 148.82 254.3 143.08 257.62"/><polygon class="cls-77" points="158.37 258.9 164.63 262.52 170.38 259.21 164.13 255.55 158.37 258.9"/><polygon class="cls-78" points="173.65 260.16 179.91 263.8 185.71 260.45 179.43 256.82 173.65 260.16"/><polygon class="cls-79" points="136.47 261.43 142.75 265.07 148.52 261.74 142.22 258.1 136.47 261.43"/><polygon class="cls-80" points="151.78 262.69 158.04 266.34 163.79 263.02 157.54 259.38 151.78 262.69"/><polygon class="cls-81" points="167.08 263.96 173.33 267.59 179.1 264.28 172.85 260.63 167.08 263.96"/><polygon class="cls-82" points="145.2 266.49 151.45 270.13 157.22 266.81 150.95 263.16 145.2 266.49"/><polygon class="cls-83" points="160.52 267.74 166.74 271.4 172.5 268.07 166.27 264.42 160.52 267.74"/><polygon class="cls-84" points="153.89 271.55 160.15 275.21 165.92 271.85 159.68 268.23 153.89 271.55"/><polygon class="cls-85" points="215.48 215.82 221.75 219.45 227.51 216.12 221.27 212.47 215.48 215.82"/><polygon class="cls-86" points="178.11 247.5 184.38 251.12 190.16 247.8 183.88 244.17 178.11 247.5"/><polygon class="cls-87" points="265.83 206.92 272.1 210.59 277.88 207.25 271.6 203.61 265.83 206.92"/><polygon class="cls-88" points="272.43 203.14 278.68 206.78 284.46 203.46 278.2 199.81 272.43 203.14"/><g class="cls-89"><path class="cls-90" d="M224.86,245.29c-2,1.16-2,3.05,0,4.21L238,257.09a8.07,8.07,0,0,0,7.29,0l17.8-10.3c2-1.16,2-3.05,0-4.22L250,235a8.31,8.31,0,0,0-7.28,0Z"/></g><path class="cls-4" d="M224.86,245.92c-2,1.17-2,3.07,0,4.19l13.11,7.6a8,8,0,0,0,7.29,0l17.8-10.3c2-1.14,2-3,0-4.23L250,235.62a8.11,8.11,0,0,0-7.28,0Z"/><g class="cls-91"><polygon class="cls-90" points="153.93 133.55 159.04 142.46 170.43 137.78 162.22 151.76 164.21 163.65 154.01 163.39 143.86 175.4 145.76 161.27 137.5 156.79 148.87 148.33 153.93 133.55"/></g><g class="cls-91"><polygon class="cls-90" points="203.24 110.79 208.36 119.69 219.74 115.03 211.54 129 213.52 140.89 203.32 140.62 193.17 152.64 195.08 138.5 186.81 134.03 198.19 125.56 203.24 110.79"/></g><path class="cls-7" d="M129.08,220.21a4.38,4.38,0,0,1,4.27,2.52c2.26,5.23,2.75,7.09,4.53,10.37l11.8,4.07h-1.13v3.55l-10-1.26v.65c-2.64,0-5.22-2-6.72-4a18.22,18.22,0,0,1-2.24-4.34c-1.29-4-2.32-8-2.51-9C126.73,221,126.45,221.25,129.08,220.21Z"/><path class="cls-4" d="M123.65,298s-1.12,2.62,0,3.29,1.27,1.42,3.06,1.28,1.54.44,2.15,1.11,7,3.44,8.17,2.1-2.16-2.93-3.36-3.71-4-3.92-4.12-4.82S123.65,298,123.65,298Z"/><path class="cls-4" d="M123.65,301.33c1.12.67,1.27,1.42,3.06,1.28s1.54.44,2.15,1.11,7,3.44,8.17,2.1a1,1,0,0,0-.09-1.42l-1.87.33c-1.87.32-4.28-1.83-5.21-2.63s-2.11-.5-3.71-.76-1.38-2.72-1.38-2.72l-1.19-.41C123.36,298.8,122.71,300.76,123.65,301.33Z"/><path class="cls-4" d="M112.32,306.53s-.47,3.1.72,4.77,3.79,4.57,4.92,4.44,1.31-.64,1.31-.64a11.41,11.41,0,0,0-.35-5,16,16,0,0,1-.9-3.54Z"/><path class="cls-4" d="M113,311.3c1,1.47,3.19,3.88,4.45,4.35-1.67-2.14.84-1.7-1-2.73-2.59-1.4-.94-2.58-2.09-2.91s-.31-3.19-.31-3.19l-.63-.29h-1.09S111.85,309.63,113,311.3Z"/><path class="cls-7" d="M126.06,256.22s5.35-.58,7.12-4.53a129.11,129.11,0,0,1-.58,18.83c-1.08,10.11-2,27.91-2,27.91s-3.45,3.25-7,0c0,0-1-11.75,0-18.26,0,0-.67-11.39.45-17.08S126.06,256.22,126.06,256.22Z"/><path class="cls-92" d="M130.62,298.43s.9-17.8,2-27.91a160.86,160.86,0,0,0,.71-20.15,11.7,11.7,0,0,1-6.27,5.68c.13,3.86.49,15.23.43,19,0,3.6-.76,18.5-1,24.76A5.66,5.66,0,0,0,130.62,298.43Z"/><path class="cls-93" d="M113.52,255.62s-.52,5.91-.62,15.1-.78,12.65-1,14.06-1,16.78-.55,21.27c0,0,2.89,4.49,7.47,0,0,0,.77-15.76,1.56-19.35s5.14-21,6.92-27.28c.76-2.75,1-3.8,1-3.8S120.55,261.15,113.52,255.62Z"/><path class="cls-94" d="M118.81,306.05s.77-15.76,1.56-19.35,5.14-21,6.92-27.28a14.41,14.41,0,0,1,2.57-4.88s-5.06,3.54-9.43,3.54c-.2,1.34-2,14.21-2.49,19.84s-4.24,25.21-3.21,30.13A5.71,5.71,0,0,0,118.81,306.05Z"/><path class="cls-7" d="M118.55,218.92s-7.86,4.74-8,5.38-2.18,2.3,1.36,9.26c0,0,4.6,7.49,3.11,15.41a47.91,47.91,0,0,1-1.74,7s4,5.1,13.91.65c2-.91,5.26-3.95,6.14-6.28a53.17,53.17,0,0,1-.7-14.44c.72-7.86.72-18-3.78-19C128.83,216.9,127.61,215.63,118.55,218.92Z"/><path class="cls-95" d="M119.21,212.08s1.9,4.13-.45,6.36c-1.32,1.25.73,5,5.18,5.41,0,0,2-.17,2-.92-.2-1.68.58-2.5,1.47-3.63S119.21,212.08,119.21,212.08Z"/><path class="cls-96" d="M118.76,218.44a1.15,1.15,0,0,0-.33.55c1.91-1.42,5.1-1.06,5.1-1.06l-3.47-5.26-.4-.29-.18.41C119.9,214.05,120.51,216.78,118.76,218.44Z"/><path class="cls-95" d="M118.62,209.83s.31,5.14,3.37,7.92c2.73,2.46,6,4.32,7.26.81.95-2.8,3.5-9.9,1.18-11.75-3-2.4-3.81-4.92-7.8-4.12C122.63,202.69,118,204,118.62,209.83Z"/><path class="cls-97" d="M118.62,209.83a11.31,11.31,0,0,0,3.35,8,14.2,14.2,0,0,0,2.63,2,14.13,14.13,0,0,1-2.53-3.44c-1-1.62,2-.59.44-4.59-.52-1.37,2.74.79,3.52.89,4.69.6,4.75-2.12,5-3.23a9.11,9.11,0,0,0-.19-1.44l-.3-.92a2.6,2.6,0,0,0-.13-.24,14.55,14.55,0,0,0-1.25-1.9c-2-.27-7.69-1-7.81-1s-1.25,1.18-2.36,2.29A7.71,7.71,0,0,0,118.62,209.83Z"/><path class="cls-98" d="M119.92,215s-3.24-4.05-1.15-8.82a5.87,5.87,0,0,1,5.83-3.73c2.17.08,5.84,1,6.79,5.52.3,1.41-.1,4.13-5.15,2-.71-.31-2.67-.88-3.47-.36a2.77,2.77,0,0,0-.88,2.79c.15.93-.64.91-.73.7s-.68-2.9-1.79-2.06S119.86,214.77,119.92,215Z"/><path class="cls-99" d="M119.92,215c-.06-.19-1.55-3.23-.55-4s1.72,1.85,1.79,2.06.88.23.73-.7a2.77,2.77,0,0,1,.88-2.79c.73-.47,2.43.09,3.47.36-.77-.69-2.48-1.15-2.88-2.7a5.18,5.18,0,0,0-2.59-3.66,6,6,0,0,0-2,2.61C116.68,210.91,119.92,215,119.92,215Z"/><path class="cls-100" d="M133.92,207.39s-2.11,5.29-7.93,2.62a7.12,7.12,0,0,1-3.71-4.29,2.83,2.83,0,0,0-1.73-2s2-2,6.13-1.1c1.95.45,3.7,2.68,4.16,3.07S132.31,207.53,133.92,207.39Z"/><path class="cls-7" d="M110.53,224.3c-.17.65-2.18,2.3,1.36,9.26,0,0,4.6,7.49,3.11,15.41a47.91,47.91,0,0,1-1.74,7s2,2.52,6.63,2.46c1.13-6.81-.21-18.82-.85-27.11-.43-5.33-3-8.14-5.1-9.57A17.05,17.05,0,0,0,110.53,224.3Z"/><path class="cls-101" d="M131.05,245.94c-1.05-1.23-.85-3.76-.49-4.56a20.58,20.58,0,0,1,3.08-.79c1.88-.31,4.05-.41,5.2.41,2.46,1.75,1.85,2.86.94,3.8C138.4,246.22,132.77,244.43,131.05,245.94Z"/><path class="cls-7" d="M133.83,245.55,119.17,250a3.73,3.73,0,0,1-1,.07,2.08,2.08,0,0,1-1.32-.33c-1.55-.92-2.77-3.19-3.28-4.17-2.19-4.17-3.56-16.38-3.66-18.26s-.06-3.33,2.68-4a1.89,1.89,0,0,1,1.11.16h0a4.62,4.62,0,0,1,2.24,2.41,49.7,49.7,0,0,1,4,14.2c.1.77.12,2.2,1.94,1.89,4.54-.76,10.53-2.25,10.53-2.25l.41,1.64Z"/><path class="cls-102" d="M133.48,242.26,149.11,233a.52.52,0,0,1,.54-.06l.78.44a.57.57,0,0,0-.55.07l-.81.48.06,0h0l.47.26.32.18a.35.35,0,0,1,.14.3l.13,9.58a1,1,0,0,1-.46.8l-.37-.2h0l.37.2-15,8.89a.33.33,0,0,1-.34,0l-.76-.42v.94a.53.53,0,0,0,.24.49l-.4-.22-.38-.22a.53.53,0,0,1-.24-.49l-.15-10.47A1.74,1.74,0,0,1,133.48,242.26Z"/><g class="cls-103"><g class="cls-103"><path class="cls-104" d="M135.61,241.6v.15a.15.15,0,0,0,.09-.11v-.16a.15.15,0,0,1-.09.12Z"/></g><polygon class="cls-105" points="135.08 241.91 135.08 242.06 135.61 241.75 135.61 241.6 135.08 241.91"/><g class="cls-103"><g class="cls-103"><path class="cls-104" d="M134.58,241.79v.15a.13.13,0,0,0,0,.08v-.16a.11.11,0,0,1,0-.07Z"/><path class="cls-106" d="M134.61,241.86V242l.06,0,.14,0V242a.23.23,0,0,1-.14,0s0,0-.06,0Z"/><path class="cls-104" d="M134.81,242v.16a.48.48,0,0,0,.27,0v-.16a.48.48,0,0,1-.27,0Z"/></g></g><path class="cls-107" d="M134.67,241.66c-.12.08-.12.18,0,.25a.49.49,0,0,0,.41,0l.53-.31a.13.13,0,0,0,0-.24.47.47,0,0,0-.43,0Z"/></g><path class="cls-108" d="M134.25,242.71l15.63-9.25c.43-.25.78-.06.78.43l.15,10.46a1.8,1.8,0,0,1-.75,1.36L134.43,255c-.43.25-.78,0-.79-.44l-.15-10.46A1.72,1.72,0,0,1,134.25,242.71Z"/><path class="cls-109" d="M134.74,244.35a1.52,1.52,0,0,1,.68-1.18c.38-.22.68,0,.68.39a1.51,1.51,0,0,1-.68,1.19C135.05,245,134.74,244.79,134.74,244.35Z"/><polygon class="cls-109" points="133.35 246.74 132.93 246.5 132.93 245.14 133.35 245.38 133.35 246.74"/><polygon class="cls-109" points="133.35 248.57 132.93 248.33 132.93 246.97 133.35 247.21 133.35 248.57"/><path class="cls-109" d="M136.23,240.85a.45.45,0,0,1,.42,0c.13.06.13.17,0,.24a.45.45,0,0,1-.42,0C136.1,241,136.1,240.91,136.23,240.85Z"/><path class="cls-109" d="M137.23,240.24a.54.54,0,0,1,.43,0c.13.08.13.19,0,.24a.42.42,0,0,1-.43,0C137.11,240.43,137.11,240.32,137.23,240.24Z"/><polygon class="cls-109" points="138.21 239.67 138.59 239.89 139.44 239.4 139.05 239.19 138.21 239.67"/><path class="cls-101" d="M148.5,239.66c.15-.14.32-.27.42-.37-.21,0-.48,0-.57-.26a.41.41,0,0,1,.14-.42,1.36,1.36,0,0,1,.4-.2c.65-.21,1.41-.59,2-.8.69.16,1.14,1.9,1.21,2.3a2.32,2.32,0,0,1-.36,1.9l-.74.13a3.9,3.9,0,0,1-.57.08c-.09-.05-.18-.21-.2-.22a.55.55,0,0,1,0-.25.2.2,0,0,0-.17-.25c-.31-.05-1,0-.89-.55a.15.15,0,0,0-.13-.16C148.51,240.55,148.47,240.1,148.5,239.66Z"/><g class="cls-110"><path class="cls-111" d="M119,135.48A43.53,43.53,0,1,1,75.46,92,43.53,43.53,0,0,1,119,135.48Z"/><path class="cls-112" d="M112.2,136A36.74,36.74,0,1,1,75.46,99.2,36.75,36.75,0,0,1,112.2,136Z"/><path class="cls-113" d="M105.41,136.41a30,30,0,1,1-29.95-29.95A29.95,29.95,0,0,1,105.41,136.41Z"/><path class="cls-114" d="M98.61,136.87a23.16,23.16,0,1,1-23.15-23.15A23.16,23.16,0,0,1,98.61,136.87Z"/><path class="cls-115" d="M91.82,137.33A16.37,16.37,0,1,1,75.46,121,16.37,16.37,0,0,1,91.82,137.33Z"/><path class="cls-116" d="M85,137.8a9.57,9.57,0,1,1-9.57-9.57A9.58,9.58,0,0,1,85,137.8Z"/><path class="cls-117" d="M78.24,138.26a2.78,2.78,0,1,1-2.78-2.78A2.79,2.79,0,0,1,78.24,138.26Z"/></g><g class="cls-110"><path class="cls-118" d="M257.51,56A43.54,43.54,0,1,1,214,12.5,43.55,43.55,0,0,1,257.51,56Z"/><path class="cls-119" d="M250.71,56.5A36.74,36.74,0,1,1,214,19.76,36.75,36.75,0,0,1,250.71,56.5Z"/><path class="cls-120" d="M243.92,57A29.95,29.95,0,1,1,214,27,30,30,0,0,1,243.92,57Z"/><path class="cls-121" d="M237.13,57.42A23.16,23.16,0,1,1,214,34.27,23.16,23.16,0,0,1,237.13,57.42Z"/><path class="cls-122" d="M230.34,57.88A16.37,16.37,0,1,1,214,41.52,16.38,16.38,0,0,1,230.34,57.88Z"/><path class="cls-123" d="M223.55,58.35A9.58,9.58,0,1,1,214,48.78,9.58,9.58,0,0,1,223.55,58.35Z"/><path class="cls-117" d="M216.75,58.81A2.78,2.78,0,1,1,214,56,2.77,2.77,0,0,1,216.75,58.81Z"/></g><g class="cls-110"><path class="cls-124" d="M364.69,204.92a43.54,43.54,0,1,1-43.53-43.53A43.54,43.54,0,0,1,364.69,204.92Z"/><path class="cls-125" d="M357.9,205.38a36.74,36.74,0,1,1-36.74-36.74A36.74,36.74,0,0,1,357.9,205.38Z"/><path class="cls-126" d="M351.1,205.84a29.95,29.95,0,1,1-29.94-29.94A29.94,29.94,0,0,1,351.1,205.84Z"/><path class="cls-127" d="M344.31,206.31a23.16,23.16,0,1,1-23.15-23.16A23.16,23.16,0,0,1,344.31,206.31Z"/><path class="cls-128" d="M337.52,206.77a16.37,16.37,0,1,1-16.36-16.36A16.37,16.37,0,0,1,337.52,206.77Z"/><path class="cls-129" d="M330.73,207.23a9.57,9.57,0,1,1-9.57-9.57A9.57,9.57,0,0,1,330.73,207.23Z"/><path class="cls-117" d="M323.94,207.7a2.78,2.78,0,1,1-2.78-2.78A2.78,2.78,0,0,1,323.94,207.7Z"/></g><g class="cls-130"><path class="cls-124" d="M137.48,175.4a30.14,30.14,0,1,1-30.14-30.13A30.15,30.15,0,0,1,137.48,175.4Z"/><path class="cls-125" d="M132.78,175.72a25.44,25.44,0,1,1-25.44-25.43A25.44,25.44,0,0,1,132.78,175.72Z"/><path class="cls-126" d="M128.08,176a20.74,20.74,0,1,1-20.74-20.73A20.75,20.75,0,0,1,128.08,176Z"/><path class="cls-127" d="M123.37,176.36a16,16,0,1,1-16-16A16,16,0,0,1,123.37,176.36Z"/><path class="cls-128" d="M118.67,176.69a11.33,11.33,0,1,1-11.33-11.33A11.32,11.32,0,0,1,118.67,176.69Z"/><path class="cls-129" d="M114,177a6.63,6.63,0,1,1-6.63-6.63A6.62,6.62,0,0,1,114,177Z"/><path class="cls-117" d="M109.27,177.33a1.93,1.93,0,1,1-1.93-1.93A1.92,1.92,0,0,1,109.27,177.33Z"/></g><g class="cls-130"><path class="cls-124" d="M183.07,147.13A30.14,30.14,0,1,1,152.93,117,30.14,30.14,0,0,1,183.07,147.13Z"/><path class="cls-125" d="M178.36,147.46A25.44,25.44,0,1,1,152.93,122,25.43,25.43,0,0,1,178.36,147.46Z"/><path class="cls-126" d="M173.66,147.78A20.73,20.73,0,1,1,152.93,127,20.73,20.73,0,0,1,173.66,147.78Z"/><path class="cls-127" d="M169,148.1a16,16,0,1,1-16-16A16,16,0,0,1,169,148.1Z"/><path class="cls-128" d="M164.26,148.42a11.33,11.33,0,1,1-11.33-11.33A11.33,11.33,0,0,1,164.26,148.42Z"/><path class="cls-129" d="M159.56,148.74a6.63,6.63,0,1,1-6.63-6.63A6.63,6.63,0,0,1,159.56,148.74Z"/><path class="cls-117" d="M154.85,149.06a1.92,1.92,0,1,1-1.92-1.93A1.92,1.92,0,0,1,154.85,149.06Z"/></g><g class="cls-130"><path class="cls-124" d="M240.58,121.16A30.14,30.14,0,1,1,210.44,91,30.14,30.14,0,0,1,240.58,121.16Z"/><path class="cls-125" d="M235.88,121.48a25.44,25.44,0,1,1-25.44-25.43A25.45,25.45,0,0,1,235.88,121.48Z"/><path class="cls-126" d="M231.18,121.8a20.73,20.73,0,1,1-20.74-20.73A20.75,20.75,0,0,1,231.18,121.8Z"/><path class="cls-127" d="M226.48,122.12a16,16,0,1,1-16-16A16,16,0,0,1,226.48,122.12Z"/><path class="cls-128" d="M221.77,122.44a11.33,11.33,0,1,1-11.33-11.32A11.33,11.33,0,0,1,221.77,122.44Z"/><path class="cls-129" d="M217.07,122.76a6.63,6.63,0,1,1-6.63-6.62A6.63,6.63,0,0,1,217.07,122.76Z"/><path class="cls-117" d="M212.37,123.09a1.93,1.93,0,1,1-1.93-1.93A1.92,1.92,0,0,1,212.37,123.09Z"/></g><g class="cls-91"><polygon class="cls-90" points="107.31 162.63 112.43 171.54 123.81 166.87 115.61 180.85 117.59 192.74 107.39 192.47 97.24 204.49 99.14 190.35 90.89 185.88 102.25 177.41 107.31 162.63"/></g><g class="cls-103"><polygon class="cls-4" points="125.64 176.22 117.54 171.51 128.91 166.84 137.01 171.55 125.64 176.22"/><polygon class="cls-4" points="110.44 209.17 102.34 204.46 104.25 190.32 112.35 195.03 110.44 209.17"/><polygon class="cls-4" points="115.46 182.09 107.36 177.38 112.41 162.6 120.51 167.31 115.46 182.09"/><polygon class="cls-4" points="104.1 190.56 95.99 185.85 107.36 177.38 115.46 182.09 104.1 190.56"/><polygon class="cls-131" points="120.51 167.31 125.64 176.22 137.01 171.55 128.81 185.53 130.79 197.42 120.6 197.15 110.44 209.17 112.35 195.03 104.1 190.56 115.46 182.09 120.51 167.31"/></g><g class="cls-103"><polygon class="cls-4" points="172.26 147.13 164.15 142.42 175.54 137.75 183.63 142.47 172.26 147.13"/><polygon class="cls-4" points="157.06 180.09 148.96 175.37 150.87 161.24 158.97 165.94 157.06 180.09"/><polygon class="cls-4" points="162.08 153 153.97 148.3 159.03 133.52 167.13 138.23 162.08 153"/><polygon class="cls-4" points="150.71 161.48 142.61 156.77 153.97 148.3 162.08 153 150.71 161.48"/><polygon class="cls-132" points="167.13 138.23 172.26 147.13 183.63 142.47 175.43 156.44 177.41 168.34 167.22 168.07 157.06 180.09 158.97 165.94 150.71 161.48 162.08 153 167.13 138.23"/></g><g class="cls-133"><path class="cls-134" d="M180,124.38c30.07,14.87,78.66,14.87,108.54,0s29.71-39-.36-53.85-78.66-14.87-108.54,0-29.7,39,.36,53.85"/><path class="cls-135" d="M184.63,141.63c27.48,13.79,71.87,13.79,99.16,0s27.16-36.13-.32-49.92-71.87-13.79-99.16,0-27.15,36.14.32,49.92"/><path class="cls-136" d="M189.3,158.88c24.88,12.7,65.08,12.7,89.79,0s24.59-33.29-.29-46-65.07-12.7-89.79,0-24.58,33.3.29,46"/><path class="cls-137" d="M194,176.13c22.27,11.62,58.27,11.62,80.41,0s22-30.45-.26-42.07-58.28-11.62-80.42,0-22,30.45.27,42.07"/><path class="cls-138" d="M198.65,193.38c19.68,10.53,51.48,10.53,71,0s19.45-27.61-.23-38.15-51.49-10.53-71,0-19.45,27.62.24,38.15"/><path class="cls-139" d="M203.32,210.63c17.08,9.45,44.69,9.45,61.67,0s16.88-24.77-.2-34.22-44.7-9.45-61.67,0-16.89,24.77.2,34.22"/><path class="cls-140" d="M208,227.88c14.49,8.36,37.9,8.36,52.3,0s14.31-21.93-.17-30.3-37.91-8.36-52.3,0-14.32,21.93.17,30.3"/></g><path class="cls-95" d="M250.84,122.31c-2.57-.08-4.33,8.25-6.84,14.86l-12.22-5.37a17.5,17.5,0,0,1-2-2.83c-.53-1.14-1.1-1.24-1.35-1.21s.06.78.12,1.29.88,1.51.22,1.37-3.69-1.88-4.47-1.29c-.36.27-1,.07.93,2.22a12.39,12.39,0,0,0,4.89,3c5.84,5.63,14.1,9,14.1,9h0a3.58,3.58,0,0,0,1.94-.1c4.09-3.25,6.25-9.91,7.07-16.11C253.8,122.65,250.84,122.31,250.84,122.31Z"/><path class="cls-141" d="M249.86,121.87c1.32-.4,3.85-.09,3.85,4s-.13,5.46-1.52,8.76c-.67,1.64-5.56.9-6.85-1.77C244.59,131.29,247.21,122.68,249.86,121.87Z"/><g class="cls-103"><polygon class="cls-4" points="225.87 121.44 218.62 117.22 228.81 113.03 236.08 117.25 225.87 121.44"/><polygon class="cls-4" points="212.26 150.96 205 146.75 206.71 134.07 213.97 138.3 212.26 150.96"/><polygon class="cls-4" points="216.76 126.7 209.5 122.48 214.03 109.23 221.29 113.45 216.76 126.7"/><polygon class="cls-4" points="206.57 134.29 199.31 130.07 209.5 122.48 216.76 126.7 206.57 134.29"/><polygon class="cls-142" points="221.29 113.45 225.87 121.44 236.08 117.25 228.72 129.78 230.5 140.44 221.37 140.19 212.26 150.96 213.97 138.3 206.57 134.29 216.76 126.7 221.29 113.45"/></g><path class="cls-143" d="M220,202.93c-9.75,5.63-9.81,14.76-.11,20.38s25.42,5.63,35.17,0,9.79-14.75.11-20.37S229.7,197.31,220,202.93Z"/><path class="cls-144" d="M241.11,203.28s-2.4.35-1.81,1.73,3.34,3.5,3.7,4.38,2.63,4,3.35,3.72,2.63.14,2.41-3.43S244.32,203.11,241.11,203.28Z"/><path class="cls-144" d="M236.52,216.38s1.17,3.42-1.74,4.22-2.05-1-8.38.59-7.07-1.68-6.92-2.41,4.37-2,5.76-2.4l4-1h7.52Z"/><path class="cls-7" d="M248.5,156.27s0,20.67,0,23,2.61,20.67,1,28.69c0,0-4.51,4.52-8.49,0,0,0-1.28-23-2.43-28.16s-.77-21-.77-21Z"/><path class="cls-7" d="M240.59,159.2s-1,13.36-2.09,26.59c0,0-.68,26.29-1.29,30.08,0,0-8.47,2.1-9.32-1.9,0,0,.21-23.13,0-28s-.71-18.32,1.2-26.1S240.59,159.2,240.59,159.2Z"/><path class="cls-7" d="M237.21,215.87c.61-3.79,1.29-30.08,1.29-30.08.71-8.91,1.41-17.87,1.79-22.78l-5.24,1.29s-3.77,9.91-3.19,24.77c.45,11.5.63,22.81.69,27.34A21.22,21.22,0,0,0,237.21,215.87Z"/><path class="cls-7" d="M249.57,208c1.57-8-1-26.37-1-28.69s0-21.08,0-22.87l-4.56,3.5s-1.43,14.78,0,23.2c1.33,7.68.48,22.59,1.12,26.87A7.2,7.2,0,0,0,249.57,208Z"/><path class="cls-145" d="M250.71,121.16s3.89,2,1.53,8.67-4,10.93-3.94,13.42a109.29,109.29,0,0,0,1.32,12.6s.55,5.52-12.08,8.54c0,0-10.36.84-8.53-5.94s2.71-17.75,2.5-20.38-1.68-7.89,4.94-11.3S246.53,120.81,250.71,121.16Z"/><path class="cls-146" d="M231.51,138.07c.21,2.63-.66,13.61-2.5,20.38-1.27,4.71,3.32,5.74,6.26,5.93,1-3-.48-8.47,1.84-15.06,2.84-8.15,2.58-13.57,1.21-18-.87-2.84-2.58-3-3.78-3.37C230.15,131.31,231.32,135.74,231.51,138.07Z"/><path class="cls-147" d="M249.62,155.85a109.29,109.29,0,0,1-1.32-12.6c-.08-2.49,1.64-6.76,3.94-13.42,2.18-6.29-.19-8-1.53-8.67-.76,3.26-12.13,4.42-11.91,6.62.27,2.44,3.26,4.78,3.34,9.15a64.18,64.18,0,0,1-1.43,14c-.72,2.8-.52,9.59.06,12.52C250.08,160.39,249.62,155.85,249.62,155.85Z"/><path class="cls-95" d="M246.13,117.77s-.49,3.48.66,5.69c1.06,2-7.2,3.65-7.36,1.8a7.89,7.89,0,0,0-.3-6.77C238.13,116.61,246.13,117.77,246.13,117.77Z"/><path class="cls-96" d="M246.75,123.58a10.51,10.51,0,0,1-.73-5.08L240,121.36h0c.23.06,4.25,1.16,5.07,4.1C246.28,125,247.13,124.31,246.75,123.58Z"/><path class="cls-95" d="M237.66,108.33a14.89,14.89,0,0,0-1.15,5.87c.22,2.94-.24,3.53-.08,4.84a3.17,3.17,0,0,0,.64,1.94c.89.89,2.76,1.25,5.3.38,3.07-1.06,6.38-5.21,5.16-9S242.32,105.33,237.66,108.33Z"/><path class="cls-97" d="M247.3,116.43c-1.15-3.43-4.12-7.57-4.08-7.8a10.47,10.47,0,0,0-2.12-1.48,7,7,0,0,0-3.44,1.18,17.71,17.71,0,0,0-.69,2c.72.82,2.19,1.78,2.4,2.47A8.89,8.89,0,0,1,239,118c-.51,1.08,1.42,2.72,1,3.68a.16.16,0,0,0,0,.13,9,9,0,0,0,2.39-.48A8.89,8.89,0,0,0,247.3,116.43Z"/><path class="cls-7" d="M234.52,107.15a25.35,25.35,0,0,0,4.41,3.93c1.53.93,1.39,3.41,1.3,3.89a12.64,12.64,0,0,0-.4,2.93c.36.55,1.65-1.1,2.25-1,1.52.33.89,1.74-.53,3.2s2.36,2.27,4.18,1c1-.68,1.31-1.09,2.63-3.55,1.88-3.59,2-7.93-2.18-10.34S236.13,106.25,234.52,107.15Z"/><path class="cls-7" d="M245.73,121.13a6.94,6.94,0,0,0,3-3.39c1.89-3.59,2.34-9.64-2.51-11.28-4.62-1.56-10.68-.17-11.69.69,0,0,2.85.85,2.95,1.48,1.34.25,4.35.52,5.28,2.14,1.14,2,2.46,1.38,2.31,3.82s.4,5.45-3.57,6.7C242.94,122.37,245,121.62,245.73,121.13Z"/><path class="cls-148" d="M239.91,124.18l-2.72,2.21s8.29,2.55,10.81-1.49a2.37,2.37,0,0,0-1.47-2.9S246.18,125.32,239.91,124.18Z"/><path class="cls-95" d="M235,128.4c-2.57-.08-4.33,8.25-6.84,14.86L216,137.88a17,17,0,0,1-2-2.82c-.54-1.13-1.1-1.24-1.35-1.2s.08.78.11,1.29.89,1.5.23,1.36-3.7-1.87-4.48-1.28c-.36.26-1,.07.93,2.22a12.66,12.66,0,0,0,4.91,2.94c5.82,5.63,14.09,9,14.09,9h0a3.49,3.49,0,0,0,1.93-.11c4.09-3.24,6.25-9.89,7.07-16.1C238,128.75,235,128.4,235,128.4Z"/><path class="cls-149" d="M234.05,128c1.33-.41,3.86-.1,3.86,4s-.13,5.47-1.51,8.78c-.67,1.64-5.58.88-6.87-1.78C228.79,137.38,231.41,128.76,234.05,128Z"/><g class="cls-110"><path class="cls-111" d="M58.68,101.77a12.31,12.31,0,1,1-12.3-12.31A12.31,12.31,0,0,1,58.68,101.77Z"/><path class="cls-112" d="M57.27,101.9A10.9,10.9,0,1,1,46.38,91,10.9,10.9,0,0,1,57.27,101.9Z"/><path class="cls-113" d="M55.86,102a9.49,9.49,0,1,1-9.48-9.48A9.48,9.48,0,0,1,55.86,102Z"/><path class="cls-114" d="M54.45,102.16a8.07,8.07,0,1,1-8.07-8.06A8.07,8.07,0,0,1,54.45,102.16Z"/><path class="cls-115" d="M53,102.29a6.66,6.66,0,1,1-6.65-6.65A6.65,6.65,0,0,1,53,102.29Z"/><path class="cls-116" d="M51.62,102.43a5.25,5.25,0,1,1-5.24-5.25A5.24,5.24,0,0,1,51.62,102.43Z"/><path class="cls-117" d="M50.21,102.56a3.84,3.84,0,1,1-3.82-3.83A3.83,3.83,0,0,1,50.21,102.56Z"/></g><polygon class="cls-4" points="36.2 153.26 32.16 150.9 26.37 142.37 30.42 144.73 36.2 153.26"/><path class="cls-4" d="M51.51,102.62l.39-.14.23-.06.22,0,.3-.05h.58l.4,0,.1,0,.3.08.1,0a2.21,2.21,0,0,1,.35.16h0L53.34,102l-2.91-1.69h0a1.38,1.38,0,0,0-.27-.14l-.05,0-.1,0-.14,0-.15,0-.1,0h-.05l-.33,0h-.44l-.18,0h-.15l-.13,0-.23,0-.11,0-.12,0-.39.14-.13,0-.08,0c-.22.1-.45.21-.68.34l-27.7,16c-.17.1-.35.21-.52.33l-.15.11c-.12.09-.24.17-.35.27l-.18.15a2.61,2.61,0,0,0-.31.27l-.19.17-.11.1-.12.13-.35.37-.13.14-.1.12-.18.23-.16.18-.11.16-.14.19-.11.14a2,2,0,0,1-.16.24,1.63,1.63,0,0,1-.11.17l0,.06c-.1.15-.19.31-.28.46l0,0-.06.11-.18.32a1,1,0,0,1-.07.15l-.09.17-.07.14c-.07.14-.13.28-.19.42a0,0,0,0,0,0,0l0,0c-.07.16-.13.33-.2.49s0,0,0,.08-.05.13-.07.19l-.09.24-.06.19c0,.08-.05.16-.07.24s0,.08,0,.13a1.6,1.6,0,0,0-.05.21c0,.11-.06.22-.08.33s0,0,0,.08l0,.17c0,.16-.06.32-.08.48a.36.36,0,0,0,0,.1s0,.07,0,.1c0,.33-.06.65-.06,1l0,17.48A3.81,3.81,0,0,0,15.09,147l4.05,2.35a3.79,3.79,0,0,1-1.58-3.48l0-17.49a5.94,5.94,0,0,1,.06-.94l0-.26c0-.13,0-.26.07-.39l.06-.34.06-.24c0-.14.07-.28.11-.42l.06-.2c.05-.16.1-.31.16-.47s0-.1.05-.15c.08-.2.16-.41.25-.61,0,0,0,0,0,0,.08-.18.17-.36.26-.54s.05-.11.08-.16.17-.32.26-.48l.06-.11c.11-.19.22-.37.34-.54a1.74,1.74,0,0,1,.11-.18l.26-.37.16-.21a2.37,2.37,0,0,1,.23-.3l.23-.28.19-.21c.12-.14.25-.27.37-.4l.23-.23.19-.18.29-.25.2-.17.33-.24.17-.13c.17-.12.35-.23.52-.33l27.69-16c.23-.13.46-.24.68-.34Z"/><path class="cls-150" d="M50.61,103c3-1.73,5.44-.34,5.45,3.11l0,17.49A11.92,11.92,0,0,1,50.7,133L43,137.44,36.2,153.26l-5.78-8.53L23,149c-3,1.74-5.44.35-5.44-3.1l0-17.49A11.92,11.92,0,0,1,22.92,119Z"/><g class="cls-110"><path class="cls-111" d="M29.85,122.56a13.44,13.44,0,1,1-13.44-13.44A13.44,13.44,0,0,1,29.85,122.56Z"/><path class="cls-112" d="M28.23,122.7a11.82,11.82,0,1,1-11.82-11.82A11.82,11.82,0,0,1,28.23,122.7Z"/><path class="cls-113" d="M26.61,122.84a10.2,10.2,0,1,1-10.19-10.2A10.2,10.2,0,0,1,26.61,122.84Z"/><path class="cls-114" d="M25,123a8.59,8.59,0,1,1-8.58-8.57A8.59,8.59,0,0,1,25,123Z"/><path class="cls-115" d="M23.38,123.13a7,7,0,1,1-7-7A7,7,0,0,1,23.38,123.13Z"/><path class="cls-116" d="M21.76,123.27a5.35,5.35,0,1,1-5.34-5.34A5.35,5.35,0,0,1,21.76,123.27Z"/><path class="cls-117" d="M20.14,123.41a3.73,3.73,0,1,1-3.72-3.72A3.72,3.72,0,0,1,20.14,123.41Z"/></g><path class="cls-7" d="M44.37,113.78l.26-.06.13,0,.39,0h.34l.18,0h.08l.19.07.05,0,.24.11-.28-.16-.09-.05-.72-.42h0l-.21-.11h0l0,0-.15-.05h0l-.09,0-.08,0H44l-.29,0h0l-.11,0-.19,0-.08,0-.26.09-.13,0s0,0-.06,0a5.72,5.72,0,0,0-.55.28c-.18.1-.37.23-.56.36l-.15.11c-.15.12-.31.24-.46.38a.48.48,0,0,0-.11.09c-.17.15-.35.3-.52.47l0,0c-.24.24-.47.49-.71.76a0,0,0,0,0,0,0c-.08.08-.15.18-.23.27s-.26.31-.39.48l0,0-.34.47-.24.32s0,0,0,0c-.14.2-.28.41-.41.62l-.17.24h0l-.57.92a0,0,0,0,1,0,0,5,5,0,0,0-.52-.26h-.05l-.18-.07-.31-.11-.08,0-.21,0-.23-.06-.15,0-.22,0-.15,0h-.51a3.28,3.28,0,0,0-.43,0h-.09a5.35,5.35,0,0,0-.55.11h0l-.34.12L33,119l0,0a6.5,6.5,0,0,0-.65.32c-.21.12-.42.27-.63.42l-.14.11c-.2.16-.4.33-.6.52h0c-.14.14-.26.27-.39.42l0,0-.31.37-.15.21-.06.08-.05.07c-.08.11-.16.23-.23.35a1.48,1.48,0,0,0-.13.21.56.56,0,0,0-.05.08l0,0c-.07.12-.14.24-.2.36s-.1.18-.14.27l0,.06,0,0c-.07.13-.13.27-.19.4s-.07.18-.1.26a.54.54,0,0,0,0,.11l0,.08-.18.5,0,.13-.06.21c0,.09-.06.18-.08.26a2.86,2.86,0,0,0-.07.28c0,.1-.05.21-.08.32s0,.1,0,.15l0,.22c0,.22-.09.45-.12.67l0,.18c0,.07,0,.13,0,.2s0,.34,0,.51l0,.42c0,.17,0,.34,0,.51v.42l0,.51,0,.41c0,.18,0,.34.07.51s0,.27.06.41.07.34.1.51l.09.38c0,.18.1.35.15.52l.11.35c.06.19.14.37.21.55s.07.19.11.28c.12.27.26.53.4.79a6.91,6.91,0,0,0,2.5,2.65l1.09.63a6.91,6.91,0,0,1-2.5-2.65c-.14-.26-.28-.52-.4-.79,0-.09-.07-.18-.1-.27s-.16-.37-.22-.56-.07-.23-.11-.34-.11-.35-.15-.53l-.09-.38a4.59,4.59,0,0,1-.1-.51,2.76,2.76,0,0,1-.06-.4c0-.17-.05-.34-.07-.51l0-.42,0-.51v-.41c0-.18,0-.35,0-.52l0-.41c0-.18,0-.35,0-.52s0-.25.05-.38.07-.44.11-.66.05-.26.08-.38.05-.21.08-.31.09-.37.15-.56l.06-.19c.08-.25.16-.49.25-.73a.59.59,0,0,0,0-.08c.1-.25.2-.49.32-.73l0,0c.12-.24.24-.47.37-.69l0-.07c.13-.22.28-.43.42-.64l.06-.08c.16-.21.32-.41.49-.61s.27-.29.4-.42a5.84,5.84,0,0,1,.6-.53l.15-.11a6.15,6.15,0,0,1,.62-.42,5.59,5.59,0,0,1,.65-.32l.26-.09a2.84,2.84,0,0,1,.38-.13,4.16,4.16,0,0,1,.59-.13h.09a4.21,4.21,0,0,1,.5,0h.19l.39,0,.22,0,.38.07.2.05.41.13.17.06q.28.12.57.27c.19-.33.39-.65.58-1l.19-.29c.14-.21.27-.41.41-.6l.27-.37.34-.47.4-.48.24-.29c.24-.27.47-.52.71-.76l.55-.52.13-.1q.23-.19.45-.36l.15-.12.56-.36a4,4,0,0,1,.55-.27l.19-.08Z"/><path class="cls-4" d="M43.37,114.22a3.74,3.74,0,0,1,1.78-.57c2.94-.05,3.54,5.2,1.33,11.74-1.79,5.3-4.88,9.81-7.55,11.36a3.78,3.78,0,0,1-.49.25c-.17.12-.33.22-.5.32-2.67,1.54-5.78.6-7.59-2.62a12.28,12.28,0,0,1,1.27-13.24A7.08,7.08,0,0,1,33.39,120a5,5,0,0,1,5-.09A15.69,15.69,0,0,1,43.37,114.22Z"/><g class="cls-110"><path class="cls-111" d="M139.22,22A15.52,15.52,0,1,1,123.7,6.47,15.52,15.52,0,0,1,139.22,22Z"/><path class="cls-112" d="M137.44,22.16A13.74,13.74,0,1,1,123.71,8.42,13.73,13.73,0,0,1,137.44,22.16Z"/><path class="cls-113" d="M135.66,22.32a12,12,0,1,1-12-12A12,12,0,0,1,135.66,22.32Z"/><path class="cls-114" d="M133.88,22.49a10.18,10.18,0,1,1-10.17-10.18A10.17,10.17,0,0,1,133.88,22.49Z"/><path class="cls-115" d="M132.1,22.65a8.4,8.4,0,1,1-8.39-8.39A8.39,8.39,0,0,1,132.1,22.65Z"/><path class="cls-116" d="M130.32,22.82a6.62,6.62,0,1,1-6.61-6.62A6.62,6.62,0,0,1,130.32,22.82Z"/><path class="cls-117" d="M128.53,23a4.83,4.83,0,1,1-4.81-4.83A4.82,4.82,0,0,1,128.53,23Z"/></g><polygon class="cls-4" points="110.88 86.91 105.77 83.95 98.47 73.19 103.58 76.16 110.88 86.91"/><path class="cls-4" d="M130.17,23.06c.17-.07.33-.12.49-.17l.3-.08a1.4,1.4,0,0,1,.28-.06,2.38,2.38,0,0,1,.37-.06l.2,0h.54a4,4,0,0,1,.5.06l.13,0,.37.11.13,0a2.58,2.58,0,0,1,.44.22l0,0-1.4-.81-3.66-2.13,0,0a3.59,3.59,0,0,0-.34-.17l-.07,0-.12,0-.18-.07-.19,0-.13,0h-.06a2.84,2.84,0,0,0-.42-.05h-.55l-.22,0a.58.58,0,0,0-.19,0l-.16,0-.29.06-.15,0-.15.05a4.84,4.84,0,0,0-.49.18l-.17,0-.09.05a7.78,7.78,0,0,0-.87.43L89,40.79l-.66.42-.19.14-.44.33-.23.19-.39.34-.24.23-.14.12-.14.16-.45.47-.16.17a1.83,1.83,0,0,1-.13.16l-.23.28-.19.24-.15.19-.17.24-.14.18-.2.31-.14.21a.35.35,0,0,0,0,.08c-.13.19-.24.38-.36.58l0,0-.08.15-.22.39-.09.19a1.51,1.51,0,0,0-.11.22l-.09.17c-.09.18-.17.36-.25.53,0,0,0,0,0,0s0,0,0,0l-.25.61,0,.11-.09.23c0,.11-.08.21-.11.31a2.17,2.17,0,0,0-.07.24c0,.1-.07.2-.09.3a.75.75,0,0,0,0,.16,2.68,2.68,0,0,0-.07.27c0,.14-.07.27-.1.41l0,.1,0,.22c0,.2-.08.4-.11.6a.59.59,0,0,1,0,.13.53.53,0,0,1,0,.13,10,10,0,0,0-.08,1.21l.07,22.06c0,2.16.76,3.68,2,4.39l5.11,3c-1.23-.71-2-2.24-2-4.4l-.06-22a9.61,9.61,0,0,1,.07-1.19,3.11,3.11,0,0,0,0-.32l.09-.5c0-.14,0-.28.08-.42s0-.2.07-.3l.15-.54c0-.08,0-.16.07-.25s.13-.39.2-.58a1.07,1.07,0,0,1,.07-.19c.1-.26.2-.52.31-.78l0-.06c.1-.23.21-.46.32-.68s.07-.13.1-.2.21-.4.33-.6a1.09,1.09,0,0,1,.08-.15c.13-.23.27-.46.42-.68l.15-.23.32-.46.2-.27.3-.38.28-.35.24-.27c.15-.17.31-.34.47-.5L92,45.4l.25-.23c.12-.11.24-.22.37-.32l.25-.21c.13-.11.27-.21.41-.31l.22-.16c.22-.15.43-.29.65-.41L129,23.59c.3-.16.58-.3.86-.42Z"/><path class="cls-151" d="M129,23.59c3.79-2.18,6.86-.43,6.88,3.92L136,49.56a15.08,15.08,0,0,1-6.83,11.83L119.49,67l-8.61,19.94-7.3-10.75-9.35,5.39c-3.78,2.19-6.86.43-6.87-3.92l-.06-22a15,15,0,0,1,6.82-11.82Z"/><g class="cls-110"><path class="cls-111" d="M102.87,48.2a17,17,0,1,1-17-17A17,17,0,0,1,102.87,48.2Z"/><path class="cls-112" d="M100.82,48.38a14.91,14.91,0,1,1-14.9-14.9A14.9,14.9,0,0,1,100.82,48.38Z"/><path class="cls-113" d="M98.78,48.56A12.86,12.86,0,1,1,85.92,35.7,12.87,12.87,0,0,1,98.78,48.56Z"/><path class="cls-114" d="M96.74,48.74A10.82,10.82,0,1,1,85.92,37.92,10.82,10.82,0,0,1,96.74,48.74Z"/><path class="cls-115" d="M94.7,48.92a8.78,8.78,0,1,1-8.77-8.77A8.78,8.78,0,0,1,94.7,48.92Z"/><path class="cls-116" d="M92.65,49.1a6.74,6.74,0,1,1-6.72-6.73A6.73,6.73,0,0,1,92.65,49.1Z"/><path class="cls-117" d="M90.61,49.28a4.69,4.69,0,1,1-4.68-4.69A4.7,4.7,0,0,1,90.61,49.28Z"/></g><path class="cls-7" d="M121.17,37.14a2.14,2.14,0,0,1,.32-.08l.17,0a4.28,4.28,0,0,1,.49-.05l.32,0h.12l.22,0,.1,0,.24.08.07,0,.3.14-.35-.2-.11-.07-.92-.53h0l-.26-.13h0l-.07,0-.18-.06h0l-.11,0-.11,0h-.62l-.37,0h0l-.14,0-.24.06a.45.45,0,0,0-.11,0l-.32.11-.17.06-.07,0a4.4,4.4,0,0,0-.69.34,7,7,0,0,0-.7.46,1.33,1.33,0,0,0-.19.14c-.2.14-.39.3-.59.47l-.14.11c-.21.2-.43.39-.65.61l-.06.06c-.29.3-.59.61-.88.95l0,0-.28.34-.5.61,0,0c-.15.19-.29.39-.43.59l-.3.4,0,0c-.18.25-.35.52-.52.78l-.21.31h0c-.24.37-.48.76-.72,1.16,0,0,0,0,0,0a6.65,6.65,0,0,0-.66-.32l-.06,0-.23-.08-.39-.14-.11,0a1.1,1.1,0,0,0-.26-.06l-.29-.07-.19,0a1.24,1.24,0,0,0-.27,0l-.19,0H109a5.35,5.35,0,0,0-.55,0h-.11a5.67,5.67,0,0,0-.69.15h0c-.15,0-.29.1-.43.15l-.35.11,0,0a8.86,8.86,0,0,0-.82.4,9.25,9.25,0,0,0-.79.54l-.18.13a9.24,9.24,0,0,0-.75.67h0c-.17.16-.33.34-.49.52l0,0c-.13.16-.26.31-.38.48l-.2.25a.61.61,0,0,1-.07.1L103,47l-.29.44c-.06.09-.11.18-.16.27l-.06.09,0,.07-.26.46c-.06.11-.11.23-.17.34l0,.08a.08.08,0,0,0,0,.05l-.24.51c-.05.11-.09.22-.13.33l-.06.14a.36.36,0,0,1,0,.09c-.08.21-.15.42-.22.64l-.06.17c0,.08,0,.17-.08.26s-.07.22-.1.33,0,.23-.08.35-.07.26-.1.4,0,.13,0,.19,0,.19-.05.28c0,.28-.1.56-.14.84,0,.08,0,.16,0,.23s0,.17,0,.25,0,.43-.06.65,0,.35,0,.52,0,.44,0,.65a4.69,4.69,0,0,0,0,.53c0,.21,0,.43,0,.64s0,.35,0,.53,0,.42.08.64,0,.34.08.51.09.42.13.64.07.32.11.48.13.44.19.66.09.29.14.43.18.47.27.7.09.24.14.35c.15.34.32.68.5,1a8.83,8.83,0,0,0,3.15,3.35l1.38.79a8.74,8.74,0,0,1-3.16-3.34c-.18-.33-.34-.66-.5-1,0-.11-.09-.23-.13-.34s-.2-.47-.28-.71-.09-.29-.13-.43-.14-.44-.2-.66-.07-.32-.1-.48-.1-.43-.14-.65-.05-.34-.07-.5l-.09-.65,0-.52c0-.21,0-.43,0-.64v-.53c0-.22,0-.43,0-.65l0-.52.06-.65c0-.16,0-.32.07-.48a8.17,8.17,0,0,1,.14-.84l.09-.47c0-.14.07-.26.1-.39s.12-.48.19-.71,0-.16.08-.24a8.88,8.88,0,0,1,.32-.91s0-.07,0-.11c.13-.31.26-.62.41-.92l0-.07c.15-.3.31-.59.47-.87l.06-.09c.16-.27.34-.54.52-.8l.08-.1c.19-.27.4-.52.61-.77l.51-.54c.25-.24.5-.45.75-.65l.19-.15a7.67,7.67,0,0,1,.79-.52,5.7,5.7,0,0,1,.82-.41l.33-.12c.16-.06.32-.12.47-.16a7,7,0,0,1,.74-.16h.12a4.46,4.46,0,0,1,.63-.05h.24a4.19,4.19,0,0,1,.5,0l.27,0,.47.08.27.07a4.83,4.83,0,0,1,.5.16l.23.08a6.59,6.59,0,0,1,.71.34c.24-.41.49-.82.74-1.21.07-.12.16-.23.24-.35l.51-.77.34-.45.43-.59c.17-.22.34-.41.5-.61l.31-.37c.29-.34.6-.66.89-1s.47-.45.7-.65l.16-.14.56-.45.2-.14a8.37,8.37,0,0,1,.7-.46,7.49,7.49,0,0,1,.69-.35l.25-.09Z"/><path class="cls-4" d="M119.91,37.69a4.73,4.73,0,0,1,2.24-.72c3.72-.07,4.47,6.56,1.69,14.8-2.26,6.69-6.16,12.38-9.53,14.33a6,6,0,0,1-.62.31,6,6,0,0,1-.62.41c-3.38,1.94-7.29.76-9.58-3.3-2.82-5-2.1-12.48,1.6-16.7A8.9,8.9,0,0,1,107.33,45a6.21,6.21,0,0,1,6.3-.12C115.59,41.47,117.85,38.88,119.91,37.69Z"/><g class="cls-110"><path class="cls-111" d="M317.44,36.89a15.53,15.53,0,1,1-15.52-15.52A15.53,15.53,0,0,1,317.44,36.89Z"/><path class="cls-112" d="M315.66,37.05a13.74,13.74,0,1,1-13.74-13.74A13.74,13.74,0,0,1,315.66,37.05Z"/><path class="cls-113" d="M313.87,37.22a12,12,0,1,1-11.95-12A12,12,0,0,1,313.87,37.22Z"/><path class="cls-114" d="M312.09,37.38a10.18,10.18,0,1,1-10.17-10.17A10.17,10.17,0,0,1,312.09,37.38Z"/><path class="cls-115" d="M310.31,37.55a8.4,8.4,0,1,1-8.39-8.4A8.39,8.39,0,0,1,310.31,37.55Z"/><path class="cls-116" d="M308.53,37.71a6.62,6.62,0,1,1-6.6-6.61A6.61,6.61,0,0,1,308.53,37.71Z"/><path class="cls-117" d="M306.75,37.88a4.84,4.84,0,1,1-4.82-4.83A4.83,4.83,0,0,1,306.75,37.88Z"/></g><polygon class="cls-4" points="289.09 101.81 283.99 98.85 276.69 88.09 281.79 91.05 289.09 101.81"/><path class="cls-4" d="M308.39,38a4.66,4.66,0,0,1,.49-.16l.29-.09.28-.06.37,0,.21,0a3.09,3.09,0,0,1,.43,0h.1a4,4,0,0,1,.5.06l.13,0a2.26,2.26,0,0,1,.37.11l.13,0a3.55,3.55,0,0,1,.44.21l0,0-1.4-.81L307,35.05l0,0a2.16,2.16,0,0,0-.34-.17l-.06,0-.13,0-.17-.06-.2,0a.5.5,0,0,0-.13,0l-.06,0-.41,0h-.15c-.1,0-.2,0-.3,0h-.11l-.22,0-.19,0-.16,0a1.5,1.5,0,0,0-.29.06l-.15,0-.15,0-.49.17-.17.06-.09.05a8.73,8.73,0,0,0-.87.43L267.23,55.69c-.22.13-.44.27-.65.42l-.2.13-.44.34-.23.19-.39.34-.24.22a.86.86,0,0,1-.14.13l-.14.15-.45.48-.15.17-.14.15c-.07.1-.15.19-.23.29l-.19.23-.14.2-.18.24-.13.18a3.37,3.37,0,0,0-.21.31l-.14.21,0,.07-.36.58v0l-.09.14c-.07.14-.15.26-.22.4l-.09.18a2.4,2.4,0,0,0-.11.23l-.09.17c-.09.18-.17.35-.25.53,0,0,0,0,0,0s0,0,0,0c-.08.2-.17.41-.24.61a.42.42,0,0,0,0,.1l-.09.24c0,.1-.08.21-.11.31A2.17,2.17,0,0,0,261,64l-.09.29a1.09,1.09,0,0,0,0,.17,2.68,2.68,0,0,1-.07.27c0,.14-.06.27-.1.41a.36.36,0,0,0,0,.1c0,.07,0,.14,0,.21s-.07.41-.1.61l0,.13v.12a10.13,10.13,0,0,0-.08,1.22l.06,22c0,2.17.77,3.69,2,4.4l5.1,3c-1.23-.72-2-2.24-2-4.4l-.06-22a9.64,9.64,0,0,1,.08-1.19,3.11,3.11,0,0,1,0-.32c0-.17.05-.33.08-.5s.05-.28.08-.42,0-.2.08-.3.09-.36.14-.54.05-.17.08-.25.12-.39.19-.59.05-.12.07-.19c.1-.26.2-.51.31-.77l0-.06c.1-.23.21-.46.32-.69a1.74,1.74,0,0,0,.1-.19c.11-.2.21-.41.33-.6l.08-.15c.13-.23.27-.46.42-.68l.15-.23.32-.46.2-.28.3-.37.28-.35.24-.27c.16-.17.31-.34.47-.5l.29-.29.24-.22.37-.33.25-.2.41-.31.22-.17.65-.41,34.93-20.16a8.62,8.62,0,0,1,.86-.43Z"/><path class="cls-152" d="M307.26,38.49c3.78-2.18,6.86-.43,6.87,3.91l.06,22.06a15,15,0,0,1-6.83,11.83l-9.66,5.57-8.61,20-7.3-10.76-9.35,5.4c-3.78,2.18-6.86.43-6.87-3.92l-.06-22a15.05,15.05,0,0,1,6.82-11.83Z"/><g class="cls-110"><path class="cls-111" d="M281.08,63.1a16.95,16.95,0,1,1-16.95-17A17,17,0,0,1,281.08,63.1Z"/><path class="cls-112" d="M279,63.28a14.91,14.91,0,1,1-14.91-14.9A14.92,14.92,0,0,1,279,63.28Z"/><path class="cls-113" d="M277,63.46A12.86,12.86,0,1,1,264.13,50.6,12.86,12.86,0,0,1,277,63.46Z"/><path class="cls-114" d="M275,63.64a10.82,10.82,0,1,1-10.81-10.82A10.82,10.82,0,0,1,275,63.64Z"/><path class="cls-115" d="M272.91,63.82A8.78,8.78,0,1,1,264.14,55,8.78,8.78,0,0,1,272.91,63.82Z"/><path class="cls-116" d="M270.87,64a6.74,6.74,0,1,1-6.73-6.73A6.74,6.74,0,0,1,270.87,64Z"/><path class="cls-117" d="M268.82,64.18a4.69,4.69,0,1,1-4.68-4.69A4.69,4.69,0,0,1,268.82,64.18Z"/></g><path class="cls-7" d="M299.38,52l.33-.07.16,0a2.81,2.81,0,0,1,.49-.05h.32l.12,0,.22,0,.1,0,.25.08.06,0,.3.15-.35-.2-.11-.07-.91-.53h0a2.1,2.1,0,0,0-.26-.13h0l-.08,0-.17-.07h-.05l-.12,0-.11,0h-.62l-.36,0h-.06l-.14,0-.24.05-.1,0-.32.11a.85.85,0,0,0-.17.06l-.08,0a6.41,6.41,0,0,0-.69.35,7,7,0,0,0-.7.46l-.19.13-.59.48-.14.11c-.21.19-.43.39-.65.61a.15.15,0,0,0-.05.06c-.3.29-.6.61-.89,1l0,0-.28.35-.5.6a.1.1,0,0,1,0,0c-.15.19-.29.4-.43.59l-.3.41,0,0c-.17.25-.35.51-.52.78l-.21.3h0q-.36.57-.72,1.17s0,0,0,0a6.65,6.65,0,0,0-.66-.32l-.05,0-.24-.08c-.13-.05-.25-.1-.39-.14l-.1,0-.27-.06a2.47,2.47,0,0,0-.29-.06,1.25,1.25,0,0,0-.19,0l-.26,0-.19,0h-.65a5,5,0,0,0-.54.06h-.12a5.63,5.63,0,0,0-.69.14l0,0-.43.14c-.12.05-.23.07-.34.12l0,0a6.76,6.76,0,0,0-.81.4c-.27.16-.53.34-.8.53l-.18.14c-.25.21-.5.42-.75.66l0,0c-.17.16-.33.34-.49.52l0,0c-.13.15-.26.31-.38.47l-.2.26-.07.1-.06.09-.3.44-.16.26-.06.1,0,.07-.26.45c-.05.12-.11.23-.17.35a.16.16,0,0,1,0,.07s0,0,0,.05l-.24.52c-.05.11-.09.22-.13.33l-.06.14,0,.09c-.09.21-.16.42-.23.64a1,1,0,0,0-.05.16c0,.09-.06.18-.08.26s-.08.23-.11.34-.05.23-.08.34-.07.27-.1.41a1.8,1.8,0,0,1,0,.19c0,.09,0,.19-.05.28-.05.28-.1.56-.14.84,0,.08,0,.15,0,.23s0,.16,0,.25l-.06.65c0,.17,0,.35,0,.52s0,.43,0,.65,0,.35,0,.53,0,.43,0,.64l0,.52c0,.22.05.43.09.64s0,.34.07.51.09.43.13.65.07.32.11.48.13.44.19.65.09.3.14.44.18.47.27.7l.14.35c.15.34.32.67.5,1A8.74,8.74,0,0,0,283.49,81l1.37.8a8.85,8.85,0,0,1-3.16-3.35c-.18-.32-.34-.65-.49-1l-.14-.35c-.1-.23-.2-.47-.28-.7s-.09-.29-.13-.43-.14-.44-.19-.67-.08-.31-.11-.47-.1-.43-.14-.65-.05-.34-.07-.51-.06-.42-.08-.64,0-.35,0-.52,0-.43,0-.65v-.52c0-.22,0-.44,0-.65s0-.35,0-.53,0-.43.06-.65,0-.31.06-.47.08-.56.14-.84l.09-.48c0-.13.07-.26.1-.38s.12-.48.19-.71c0-.08.05-.16.08-.25.1-.3.21-.61.32-.91a.42.42,0,0,0,0-.1c.13-.32.26-.62.41-.92l0-.07q.22-.45.48-.87a.26.26,0,0,1,0-.09c.16-.28.34-.54.52-.8l.08-.1c.2-.27.4-.53.61-.77s.34-.37.52-.54.49-.45.74-.66l.19-.14a7.78,7.78,0,0,1,.79-.53,6.89,6.89,0,0,1,.82-.4l.33-.12a4.5,4.5,0,0,1,.48-.16,6.11,6.11,0,0,1,.74-.17H288l.62-.05h.25l.49,0,.27,0c.16,0,.32,0,.47.09l.27.06.51.17.22.08a6.59,6.59,0,0,1,.71.34c.24-.42.49-.82.74-1.21l.24-.36.51-.76c.11-.16.23-.3.34-.46l.43-.59c.17-.21.34-.4.51-.6s.2-.26.3-.38l.89-1c.24-.23.47-.45.7-.65l.16-.14q.29-.24.57-.45l.19-.15c.24-.16.47-.32.7-.45a6.52,6.52,0,0,1,.7-.35l.24-.09Z"/><path class="cls-4" d="M298.12,52.59a4.66,4.66,0,0,1,2.24-.72c3.72-.07,4.47,6.56,1.69,14.8-2.26,6.68-6.15,12.38-9.52,14.33a6.11,6.11,0,0,1-.63.31c-.2.15-.41.28-.62.41-3.37,1.94-7.29.76-9.58-3.31-2.81-5-2.1-12.48,1.6-16.69a9.13,9.13,0,0,1,2.24-1.87,6.21,6.21,0,0,1,6.3-.11C293.8,56.37,296.06,53.78,298.12,52.59Z"/><g class="cls-110"><path class="cls-118" d="M55.34,224.51A21.37,21.37,0,1,1,34,203.14,21.36,21.36,0,0,1,55.34,224.51Z"/><path class="cls-119" d="M52,224.73a18,18,0,1,1-18-18A18,18,0,0,1,52,224.73Z"/><path class="cls-120" d="M48.67,225A14.7,14.7,0,1,1,34,210.26,14.7,14.7,0,0,1,48.67,225Z"/><path class="cls-121" d="M45.33,225.19A11.36,11.36,0,1,1,34,213.82,11.36,11.36,0,0,1,45.33,225.19Z"/><path class="cls-122" d="M42,225.42a8,8,0,1,1-8-8A8,8,0,0,1,42,225.42Z"/><path class="cls-123" d="M38.66,225.64A4.7,4.7,0,1,1,34,221,4.69,4.69,0,0,1,38.66,225.64Z"/><path class="cls-117" d="M35.33,225.87A1.36,1.36,0,1,1,34,224.51,1.36,1.36,0,0,1,35.33,225.87Z"/></g><path class="cls-4" d="M28.42,233.15c0-.32.07-.64.12-1l0-.2c.07-.38.14-.76.23-1.15,0-.19.09-.39.14-.58l.21-.8c.05-.16.09-.32.15-.48s.19-.59.3-.89l.13-.37c.16-.42.32-.83.5-1.25,0,0,.05-.09.07-.14.16-.36.33-.72.51-1.09l.18-.35c.17-.34.36-.67.54-1l.11-.2c.23-.4.47-.78.71-1.16a3.15,3.15,0,0,0,.22-.33c.19-.27.37-.54.56-.8s.21-.29.33-.43l.49-.65.45-.54c.26-.3.52-.61.8-.9v0c.28-.29.56-.57.85-.84l.38-.36c.21-.19.42-.38.64-.56l.39-.32c.23-.19.46-.36.71-.53l.34-.25c.36-.25.71-.48,1.08-.69s.48-.26.71-.38l.21-.1.53-.25.19-.08.51-.19.12,0,.61-.19.32-.08.2-.05.5-.09a5.17,5.17,0,0,1,.76-.08h.8l.11,0a4.6,4.6,0,0,1,.52.06l.15,0a5.09,5.09,0,0,1,.56.14h.05l.48.18.16.07a3.62,3.62,0,0,1,.4.19l.14.08-2.74-1.6-.06,0-.08,0-.4-.2-.09,0-.07,0-.51-.17h0l-.57-.13H43l-.52-.07h-.91a4.78,4.78,0,0,0-.75.08h0a4.71,4.71,0,0,0-.52.09l-.19.05-.3.06h0c-.2.06-.41.12-.62.2a.21.21,0,0,0-.1,0l-.52.19-.06,0a.52.52,0,0,1-.13.06l-.53.25-.21.1c-.23.11-.47.24-.71.38s-.72.45-1.08.68l-.34.25c-.25.18-.48.36-.71.54l-.4.32c-.21.18-.42.36-.63.56l-.38.35-.24.23-.61.62a0,0,0,0,1,0,0l-.61.68c-.07.07-.13.16-.19.23l-.45.54-.28.35-.22.29-.32.43a3.21,3.21,0,0,1-.21.3c-.12.16-.23.34-.34.5l-.23.34-.09.14c-.2.31-.39.63-.58,1,0,0,0,0,0,.06l-.1.2q-.21.34-.39.69c-.06.1-.11.22-.16.32s-.13.24-.18.35l-.15.29c-.12.26-.25.53-.37.8a.84.84,0,0,1-.06.14s0,0,0,0c-.15.34-.28.67-.41,1,0,.06,0,.12-.07.18s-.09.25-.13.38-.13.34-.18.5a3,3,0,0,0-.12.4l-.15.46c0,.1-.06.2-.08.29s-.09.35-.13.52-.1.39-.14.58a1.46,1.46,0,0,0,0,.2c-.07.32-.13.63-.18.95a1.23,1.23,0,0,0,0,.2c0,.13,0,.28-.07.42a5.07,5.07,0,0,0,0,.56c0,.13,0,.26-.05.4,0,.42-.05.84-.05,1.25,0,3.56,1.27,6.07,3.3,7.25l2.74,1.59c-2-1.18-3.29-3.69-3.3-7.25,0-.41,0-.82.06-1.24C28.39,233.43,28.41,233.29,28.42,233.15Z"/><path class="cls-7" d="M39.6,215.3c6.24-3.59,11.31-.71,11.33,6.46s-5,15.9-11.26,19.5-11.32.72-11.34-6.45S33.35,218.91,39.6,215.3Z"/><g class="cls-103"><path class="cls-153" d="M35.13,234.38h0Z"/><path class="cls-4" d="M35.45,233.51c.14-.08.26-.07.33,0a.28.28,0,0,1,.06.2.85.85,0,0,1-.39.67.25.25,0,0,1-.31,0h0a.33.33,0,0,1-.06-.21A.84.84,0,0,1,35.45,233.51Z"/></g><path class="cls-4" d="M45.7,227.59c.21-.12.39,0,.39.23a.75.75,0,0,1-.11.36.81.81,0,0,1-.28.3c-.21.13-.38,0-.38-.22a.65.65,0,0,1,0-.27A.88.88,0,0,1,45.7,227.59Z"/><path class="cls-4" d="M45.7,228.48a.81.81,0,0,0,.28-.3c-1.71,3.54-3.52,5.89-5.4,7l-.2.1a4.18,4.18,0,0,1-5.24-.87.25.25,0,0,0,.31,0,.85.85,0,0,0,.39-.67.28.28,0,0,0-.06-.2,3.78,3.78,0,0,0,4.63.83l.17-.09c1.62-.94,3.24-3.06,4.79-6.28a.65.65,0,0,0,0,.27C45.32,228.51,45.49,228.61,45.7,228.48Z"/><path class="cls-4" d="M34,230.9c1-.58,1.78-.51,1.78.14A3.32,3.32,0,0,1,34,233.26c-1,.57-1.78.49-1.78-.15A3.32,3.32,0,0,1,34,230.9Z"/><path class="cls-4" d="M36.5,225.37c.94-.55,1.7-.11,1.71,1a3.75,3.75,0,0,1-1.7,2.94c-.94.54-1.7.1-1.71-1A3.73,3.73,0,0,1,36.5,225.37Z"/><g class="cls-103"><path class="cls-4" d="M47.07,223.33c1-.57,1.78-.51,1.78.15a3.34,3.34,0,0,1-1.77,2.21c-1,.57-1.79.5-1.79-.15A3.35,3.35,0,0,1,47.07,223.33Z"/><path class="cls-4" d="M44,221.05c.94-.54,1.71-.11,1.71,1A3.76,3.76,0,0,1,44,225c-.94.54-1.7.1-1.71-1A3.75,3.75,0,0,1,44,221.05Z"/></g><g class="cls-110"><path class="cls-118" d="M214.4,21.37A21.37,21.37,0,1,1,193,0,21.37,21.37,0,0,1,214.4,21.37Z"/><path class="cls-119" d="M211.07,21.6a18,18,0,1,1-18-18A18,18,0,0,1,211.07,21.6Z"/><path class="cls-120" d="M207.73,21.82A14.7,14.7,0,1,1,193,7.12,14.69,14.69,0,0,1,207.73,21.82Z"/><path class="cls-121" d="M204.4,22.05A11.37,11.37,0,1,1,193,10.69,11.38,11.38,0,0,1,204.4,22.05Z"/><path class="cls-122" d="M201.06,22.28a8,8,0,1,1-8-8A8,8,0,0,1,201.06,22.28Z"/><path class="cls-123" d="M197.73,22.5a4.7,4.7,0,1,1-4.7-4.69A4.69,4.69,0,0,1,197.73,22.5Z"/><path class="cls-117" d="M194.4,22.73A1.37,1.37,0,1,1,193,21.37,1.36,1.36,0,0,1,194.4,22.73Z"/></g><path class="cls-4" d="M187.49,30c0-.32.07-.64.11-1,0-.07,0-.14,0-.21.06-.38.13-.76.22-1.15,0-.19.1-.38.15-.58s.13-.54.21-.8.09-.31.14-.47.19-.6.3-.9c.05-.12.09-.25.14-.37.15-.41.32-.83.5-1.24l.06-.15q.24-.54.51-1.08l.18-.35c.18-.34.36-.68.55-1a1.28,1.28,0,0,1,.11-.2c.22-.4.47-.78.71-1.16l.22-.33.55-.8.33-.43c.16-.22.33-.43.5-.65l.44-.54c.27-.3.53-.61.8-.9h0c.29-.3.57-.58.86-.85l.38-.36c.21-.19.42-.38.63-.55l.39-.33.71-.53.34-.25q.54-.36,1.08-.69c.24-.14.48-.26.72-.38l.2-.09c.18-.1.36-.18.54-.26l.19-.08.51-.19.11,0,.62-.19.31-.08a.79.79,0,0,1,.2,0,4.59,4.59,0,0,1,.51-.1c.26,0,.51-.06.76-.08h.14q.33,0,.66,0h.11a4.43,4.43,0,0,1,.51.06l.16,0c.18,0,.37.08.56.14h0L206,11l.15.07.4.19.15.08L204,9.79l-.06,0-.09,0-.39-.2-.09,0-.07,0a4.56,4.56,0,0,0-.52-.18h0l-.57-.13H202a4.35,4.35,0,0,0-.52-.06l-.07,0h-.83c-.25,0-.51,0-.76.08h0a4.54,4.54,0,0,0-.51.09l-.2,0-.29.06h0l-.61.2-.11,0-.51.19-.06,0-.13.05-.54.25-.2.1c-.24.12-.48.24-.72.38s-.72.45-1.07.69l-.35.25-.71.53-.39.33c-.21.17-.42.36-.63.55l-.39.35-.23.23c-.21.2-.41.41-.61.62h0l-.61.68-.18.23q-.24.27-.45.54c-.1.12-.2.23-.29.35l-.21.3c-.11.14-.22.29-.33.42a3.21,3.21,0,0,1-.21.3c-.11.17-.22.34-.34.51l-.23.34-.08.13c-.2.31-.4.63-.58.95a.16.16,0,0,0,0,.07l-.11.19c-.14.23-.26.46-.38.69s-.11.22-.16.32-.13.24-.19.36-.1.18-.14.28c-.13.27-.25.53-.37.8a.67.67,0,0,0-.06.15l0,0c-.15.34-.29.68-.41,1a1.34,1.34,0,0,0-.07.18c-.05.13-.1.25-.14.38s-.13.34-.18.5l-.12.4-.15.46c0,.1-.05.2-.08.3s-.09.34-.13.51-.1.39-.14.58,0,.14-.05.2c-.07.32-.13.63-.17.95a1.62,1.62,0,0,0,0,.2c0,.14-.05.28-.07.42s0,.37-.05.56,0,.27,0,.4c0,.43-.06.84-.05,1.25,0,3.56,1.27,6.07,3.29,7.25l2.74,1.59c-2-1.18-3.28-3.69-3.29-7.25,0-.41,0-.82,0-1.24C187.46,30.29,187.48,30.15,187.49,30Z"/><path class="cls-7" d="M198.66,12.16c6.24-3.59,11.31-.7,11.34,6.47s-5,15.9-11.27,19.5-11.31.71-11.33-6.46S192.42,15.77,198.66,12.16Z"/><g class="cls-103"><path class="cls-153" d="M194.19,31.24s0,0,0,0h0a0,0,0,0,0,0,0Z"/><path class="cls-4" d="M194.52,30.37a.24.24,0,0,1,.33,0,.36.36,0,0,1,.06.2.86.86,0,0,1-.39.67c-.13.07-.25.07-.32,0s0,0,0,0a.36.36,0,0,1-.05-.21A.81.81,0,0,1,194.52,30.37Z"/></g><path class="cls-4" d="M204.76,24.46c.22-.13.39,0,.39.22a.81.81,0,0,1-.1.36.79.79,0,0,1-.29.31c-.21.12-.38,0-.38-.23a.7.7,0,0,1,.06-.27A.89.89,0,0,1,204.76,24.46Z"/><path class="cls-4" d="M204.76,25.35a.79.79,0,0,0,.29-.31c-1.71,3.54-3.53,5.89-5.41,7l-.2.11a4.2,4.2,0,0,1-5.24-.88c.07.08.19.08.32,0a.86.86,0,0,0,.39-.67.36.36,0,0,0-.06-.2,3.75,3.75,0,0,0,4.62.83,1.4,1.4,0,0,0,.17-.09c1.62-.93,3.24-3.05,4.8-6.28a.7.7,0,0,0-.06.27C204.38,25.37,204.55,25.47,204.76,25.35Z"/><path class="cls-4" d="M193,27.76c1-.57,1.79-.51,1.79.15A3.39,3.39,0,0,1,193,30.12c-1,.57-1.78.5-1.79-.15A3.32,3.32,0,0,1,193,27.76Z"/><path class="cls-4" d="M195.56,22.23c.94-.55,1.71-.11,1.71,1a3.75,3.75,0,0,1-1.7,2.94c-.94.54-1.7.11-1.7-1A3.69,3.69,0,0,1,195.56,22.23Z"/><g class="cls-103"><path class="cls-4" d="M206.14,20.19c1-.57,1.78-.5,1.78.15a3.36,3.36,0,0,1-1.78,2.21c-1,.57-1.78.5-1.79-.15A3.36,3.36,0,0,1,206.14,20.19Z"/><path class="cls-4" d="M203,17.91c.94-.54,1.71-.11,1.72,1a3.77,3.77,0,0,1-1.7,2.95c-1,.54-1.71.1-1.71-1A3.75,3.75,0,0,1,203,17.91Z"/></g><g class="cls-110"><path class="cls-111" d="M352.18,121.17A21.37,21.37,0,1,1,330.81,99.8,21.37,21.37,0,0,1,352.18,121.17Z"/><path class="cls-112" d="M348.84,121.39a18,18,0,1,1-18-18A18,18,0,0,1,348.84,121.39Z"/><path class="cls-113" d="M345.51,121.62a14.7,14.7,0,1,1-14.7-14.7A14.7,14.7,0,0,1,345.51,121.62Z"/><path class="cls-114" d="M342.17,121.85a11.36,11.36,0,1,1-11.36-11.37A11.36,11.36,0,0,1,342.17,121.85Z"/><path class="cls-115" d="M338.84,122.08a8,8,0,1,1-8-8A8,8,0,0,1,338.84,122.08Z"/><path class="cls-116" d="M335.51,122.3a4.7,4.7,0,1,1-4.7-4.69A4.7,4.7,0,0,1,335.51,122.3Z"/><path class="cls-117" d="M332.17,122.53a1.36,1.36,0,1,1-1.36-1.36A1.36,1.36,0,0,1,332.17,122.53Z"/></g><path class="cls-4" d="M325.26,129.81c0-.32.07-.64.12-1a1.55,1.55,0,0,1,0-.21c.06-.38.13-.76.22-1.15,0-.19.09-.39.14-.58l.21-.8c.05-.16.09-.32.15-.47s.19-.6.3-.9c.05-.13.09-.25.13-.38.16-.41.33-.82.51-1.24a1.47,1.47,0,0,1,.06-.14q.24-.54.51-1.08l.18-.35c.17-.35.35-.68.55-1l.1-.2c.23-.4.47-.78.71-1.16a3.15,3.15,0,0,0,.22-.33c.19-.27.37-.54.56-.8s.21-.29.33-.43l.49-.65.45-.54c.26-.31.52-.61.8-.91h0c.28-.29.56-.57.85-.84l.38-.36c.21-.2.42-.38.64-.56l.39-.32c.23-.18.46-.36.71-.53l.34-.26c.36-.24.71-.46,1.08-.68s.48-.26.72-.38l.2-.1.53-.25.19-.08.51-.19.12,0,.61-.2.32-.07.2-.05.51-.1c.26,0,.5-.06.75-.07h.15a3.53,3.53,0,0,1,.65,0H342l.51,0,.15,0,.56.13h.05a4.68,4.68,0,0,1,.48.18.56.56,0,0,1,.16.07,3.62,3.62,0,0,1,.4.19l.14.08-2.74-1.59-.06,0a.19.19,0,0,0-.09,0l-.39-.2-.09,0-.07,0-.51-.17h0l-.57-.13h-.07l-.08,0-.52-.06h-.1q-.33,0-.66,0h-.15a6.36,6.36,0,0,0-.75.08h0a4.54,4.54,0,0,0-.51.09l-.2,0-.3.06h0c-.2.06-.41.12-.61.2l-.11,0c-.17,0-.34.12-.52.19l-.06,0-.13,0-.53.24-.21.11c-.23.12-.47.24-.71.38s-.72.45-1.08.69l-.34.25c-.25.17-.48.35-.71.53l-.39.32c-.22.18-.42.36-.64.56l-.38.35-.24.23-.61.62a0,0,0,0,1,0,0l-.61.68-.19.23-.45.54-.28.35c-.07.09-.14.2-.22.29l-.32.43c-.06.1-.14.2-.21.3l-.34.5a4,4,0,0,1-.23.34l-.09.14c-.2.3-.39.63-.58,1l0,.06c0,.07-.07.14-.1.2q-.21.34-.39.69l-.16.32c-.06.12-.13.24-.18.35s-.1.19-.14.29c-.13.26-.26.53-.37.8,0,0,0,.09-.07.15l0,0c-.15.34-.28.68-.41,1a1.34,1.34,0,0,1-.07.18c0,.12-.09.25-.13.38s-.13.33-.18.5a3,3,0,0,0-.12.4l-.15.46c0,.1-.06.2-.08.29s-.09.35-.13.52-.1.39-.14.58a1.46,1.46,0,0,0,0,.2c-.07.32-.13.63-.18,1a1.36,1.36,0,0,0,0,.2c0,.13,0,.28-.07.42a5.07,5.07,0,0,0-.05.56c0,.13,0,.26,0,.4,0,.42-.05.84-.05,1.25,0,3.56,1.28,6.07,3.3,7.24l2.74,1.6c-2-1.18-3.28-3.69-3.29-7.25,0-.41,0-.82.05-1.24C325.23,130.09,325.25,130,325.26,129.81Z"/><path class="cls-7" d="M336.44,112c6.24-3.59,11.31-.71,11.33,6.47s-5,15.89-11.26,19.5-11.31.71-11.33-6.46S330.19,115.57,336.44,112Z"/><g class="cls-103"><path class="cls-153" d="M332,131s0,0,0,0h0a0,0,0,0,0,0,0Z"/><path class="cls-4" d="M332.3,130.17a.24.24,0,0,1,.32,0,.33.33,0,0,1,.06.21.83.83,0,0,1-.38.66c-.14.08-.25.07-.32,0s0,0,0,0a.31.31,0,0,1-.06-.21A.83.83,0,0,1,332.3,130.17Z"/></g><path class="cls-4" d="M342.54,124.25c.21-.12.39,0,.39.23a.75.75,0,0,1-.11.36.81.81,0,0,1-.28.3c-.21.13-.38,0-.38-.22a.72.72,0,0,1,0-.28A1,1,0,0,1,342.54,124.25Z"/><path class="cls-4" d="M342.54,125.14a.81.81,0,0,0,.28-.3c-1.71,3.54-3.52,5.89-5.4,7l-.2.1a4.18,4.18,0,0,1-5.24-.87c.07.07.18.08.32,0a.83.83,0,0,0,.38-.66.33.33,0,0,0-.06-.21,3.77,3.77,0,0,0,4.63.84,1.4,1.4,0,0,0,.17-.09c1.62-.94,3.24-3.06,4.79-6.29a.72.72,0,0,0,0,.28C342.16,125.17,342.33,125.27,342.54,125.14Z"/><path class="cls-4" d="M330.81,127.55c1-.57,1.78-.5,1.78.16a3.34,3.34,0,0,1-1.77,2.21c-1,.57-1.79.49-1.79-.15A3.35,3.35,0,0,1,330.81,127.55Z"/><path class="cls-4" d="M333.34,122c.94-.55,1.7-.11,1.71,1a3.75,3.75,0,0,1-1.7,2.94c-.94.54-1.7.11-1.71-1A3.73,3.73,0,0,1,333.34,122Z"/><g class="cls-103"><path class="cls-4" d="M343.92,120c1-.57,1.78-.51,1.78.15a3.39,3.39,0,0,1-1.78,2.21c-1,.57-1.78.5-1.79-.15A3.36,3.36,0,0,1,343.92,120Z"/><path class="cls-4" d="M340.81,117.71c.94-.54,1.71-.11,1.71,1a3.73,3.73,0,0,1-1.7,2.95c-.94.54-1.7.1-1.71-1A3.75,3.75,0,0,1,340.81,117.71Z"/></g><g class="cls-2"><path class="cls-3" d="M344.83,228.31c-8.76,5.06-8.81,13.26-.11,18.32s22.86,5.06,31.63,0,8.81-13.26.1-18.31S353.59,223.25,344.83,228.31Z"/></g><path class="cls-154" d="M353.45,156.9s-3.39-.85-4.17,1.69-3,12.82-3,12.82l-12.58-3.87s-3.15-1.69-5.44-1.57-.36,3.63,4.35,4.6,13.43,6.41,15.61,5.8S357.08,159.44,353.45,156.9Z"/><path class="cls-4" d="M351.66,170.48s-4.7,1.14-7.44-2.69c0,0,3.89-13.81,9-10.52C353.22,157.27,357,159.13,351.66,170.48Z"/><path class="cls-155" d="M351.73,233.38c-.28,0-.38-.27-.81-.4,0,.55-.43,1.34-.45,1.87l-.09.16c-1.28,2.34-5,4.79-4.36,6.23.46,1,3,1.39,4.17.4a3,3,0,0,0,.71-1,2.37,2.37,0,0,1,1.47-1.41,2.09,2.09,0,0,0,1-.8c1.06-2.08-.21-2.83,0-4.86C352.79,233.49,352.24,233.42,351.73,233.38Z"/><path class="cls-156" d="M351.57,180.85a64.74,64.74,0,0,0-2.49,31.66s2.22,15.74,1.56,20.21c-.33,2.26,2.3,3.73,3.28,1.76a51,51,0,0,1,1.43-9c1-3.41,1.21-8-.62-11.08,0,0,9-21.8,5.39-27.88A33.55,33.55,0,0,1,351.57,180.85Z"/><path class="cls-157" d="M354.73,214.36c1.83,3,1.66,7.67.62,11.08a51,51,0,0,0-1.43,9,1.55,1.55,0,0,1-.93.86c1.63-6.66,0-21.89,0-21.89,2.28-6.57,3-23.15,3.22-29.14a26.18,26.18,0,0,0,3.94,2.17C363.72,192.56,354.73,214.36,354.73,214.36Z"/><path class="cls-155" d="M370.25,234c-.26,0-.4-.16-.83-.17.1.5-.15,1.33-.07,1.83l-.06.17c-.76,2.46-3.79,5.62-2.91,6.79.61.84,3,.6,3.94-.59a3.39,3.39,0,0,0,.48-1.12,2.42,2.42,0,0,1,1.1-1.65,2,2,0,0,0,.74-1c.62-2.19-.7-2.59-.84-4.52C371.26,233.82,370.73,233.88,370.25,234Z"/><path class="cls-158" d="M356.28,184.24a71.66,71.66,0,0,0,6.48,31.47s4.93,13.34,6,17.74c.62,2.56,3,2.42,3.34.65,0,0-.13-4.84,0-8.55s-.89-8.23-3.43-10.41c0,0,1.4-25.25-3.62-29.61C365.05,185.53,359.27,187.31,356.28,184.24Z"/><path class="cls-159" d="M368.67,215.14c2.54,2.18,3.56,6.7,3.43,10.41s0,8.55,0,8.55a1.59,1.59,0,0,1-.65,1.05c.37-6.08-5.23-21.34-5.23-21.34.18-8.32-3-21.83-4.47-27.77a14,14,0,0,0,3.3-.51C370.07,189.89,368.67,215.14,368.67,215.14Z"/><path class="cls-4" d="M368.34,163.23s-3.48-5.64-16.7-7.14c0,0-2.13-.81-1.73,6,0,1-.92,2.7-1.58,3.6s-2.4,4.39,1.73,8.35c0,0,1.73,6,0,10-1.56,3.56,7.21,6.73,14.55,5.79.91-.11,2.9-.76,2-3.9s-2.93-8.63-1.62-14.5S369.41,166.16,368.34,163.23Z"/><path class="cls-4" d="M368.34,163.23c1.07,2.93-2,2.33-3.33,8.2s.75,11.36,1.62,14.5-1.11,3.79-2,3.9a21.74,21.74,0,0,1-3.7.15c2.42-5.74-1.18-15.92-1.52-21.58-.34-6,5-8.5,5-8.5A11.77,11.77,0,0,1,368.34,163.23Z"/><path class="cls-154" d="M367.78,163.78c-1.08-.91-5.36-2.24-3.74,2.78S372,179.82,372,179.82l-8.14,2.94a10.93,10.93,0,0,0-6-.06c-2.62,1,1.77,3.66,5.25,2.75s15.5-.65,13.71-4.6S371.58,167,367.78,163.78Z"/><path class="cls-4" d="M373.34,170.3s-1.69,4.11-6,4.08c0,0-8.14-10.34-2.95-12.35C364.38,162,367.8,160.23,373.34,170.3Z"/><path class="cls-160" d="M353.68,145.45s1.06,6.79,1.66,13.26a2.16,2.16,0,0,1-2.6,2.21s-5.15-7.54-1.44-15.29A7.34,7.34,0,0,1,362.13,143Z"/><path class="cls-154" d="M352.55,154.42S355,157.1,354,160.1c-.26.82-.9,4.19,4.11,2.65,0,0,5.18-2.83,3.55-4.37-1.08-1-2.16-2.52-.79-8Z"/><path class="cls-161" d="M361.64,158.38a.87.87,0,0,1,.28.53,9.53,9.53,0,0,1-8.24-2.17l6.09-5.77h0s.33.2.82.55C359.65,156.08,360.63,157.44,361.64,158.38Z"/><path class="cls-162" d="M353.08,144.75s-1.35.51-1.27,4.55c0,.45-.68,1.06-.84,2.18s-.25,5.63,2.37,6a8,8,0,0,0,7.94-5.64C362.7,147.28,358.64,141.56,353.08,144.75Z"/><path class="cls-163" d="M353.38,146.37s11.71,3.88,3.47,19.07c0,0,6.06.4,8.6-4.89,1.21-2.53.54-7.57,0-12.37,0,0-1.57-7.36-7.73-6.07C357.74,142.11,353.68,143.81,353.38,146.37Z"/><path class="cls-164" d="M353.38,146.37s-2-.33-2.92,3.43c0,0,0-10.54,10.08-7.66C360.54,142.14,354.61,142.61,353.38,146.37Z"/><path class="cls-162" d="M359,152.7s.64-2.25,1.95-1.61c.41.2.87.66.3,1.82s-1.83,2.26-2.85,2.17Z"/><path class="cls-102" d="M342,170l-11.72-6.94a.39.39,0,0,0-.41,0l-.59.33a.4.4,0,0,1,.41.05l.61.36h0l-.35.21c-.08,0-.16.09-.24.12a.27.27,0,0,0-.1.23l-.1,7.19a.75.75,0,0,0,.34.6l.28-.16h0l-.28.16L341,178.79a.27.27,0,0,0,.26,0l.57-.32v.7a.46.46,0,0,1-.18.38l.3-.17.29-.17a.39.39,0,0,0,.17-.37l.11-7.85A1.31,1.31,0,0,0,342,170Z"/><g class="cls-103"><g class="cls-103"><path class="cls-104" d="M340.37,169.51v.11a.1.1,0,0,1-.07-.09v-.11s0,.06.07.09Z"/></g><polygon class="cls-105" points="340.77 169.74 340.77 169.85 340.37 169.62 340.37 169.5 340.77 169.74"/><g class="cls-103"><g class="cls-103"><path class="cls-104" d="M341.15,169.65v.11a.14.14,0,0,1,0,.06v-.12a.09.09,0,0,0,0,0Z"/><path class="cls-106" d="M341.12,169.7v.12a.06.06,0,0,1-.05,0,.3.3,0,0,1-.1,0v-.12l.1,0s0,0,.05,0Z"/><path class="cls-104" d="M341,169.77v.12a.27.27,0,0,1-.2,0v-.11a.42.42,0,0,0,.2,0Z"/></g></g><path class="cls-107" d="M341.07,169.55c.09.06.09.14,0,.19a.39.39,0,0,1-.3,0l-.4-.23a.1.1,0,0,1,0-.18.29.29,0,0,1,.31,0Z"/></g><path class="cls-4" d="M341.39,170.33l-11.73-6.93c-.32-.19-.58-.05-.58.32l-.11,7.85a1.26,1.26,0,0,0,.57,1l11.72,6.94c.32.19.58,0,.59-.33l.11-7.84A1.31,1.31,0,0,0,341.39,170.33Z"/><path class="cls-109" d="M341,171.57a1.15,1.15,0,0,0-.51-.89c-.28-.17-.51,0-.51.3a1.15,1.15,0,0,0,.51.89C340.79,172,341,171.9,341,171.57Z"/><polygon class="cls-109" points="342.06 173.36 342.38 173.18 342.38 172.16 342.06 172.34 342.06 173.36"/><polygon class="cls-109" points="342.06 174.73 342.38 174.55 342.38 173.53 342.06 173.72 342.06 174.73"/><path class="cls-109" d="M339.91,168.94a.36.36,0,0,0-.32,0c-.09.05-.09.13,0,.18a.31.31,0,0,0,.32,0C340,169.07,340,169,339.91,168.94Z"/><path class="cls-109" d="M339.15,168.48a.44.44,0,0,0-.32,0c-.09.06-.09.14,0,.19a.36.36,0,0,0,.32,0C339.24,168.62,339.24,168.54,339.15,168.48Z"/><polygon class="cls-109" points="338.42 168.06 338.13 168.22 337.5 167.86 337.79 167.69 338.42 168.06"/><path class="cls-154" d="M327.34,166.59s3.68-1.3,3.31.63S328.48,172.61,327.34,166.59Z"/></svg>