<svg xmlns="http://www.w3.org/2000/svg" xmlns:xlink="http://www.w3.org/1999/xlink" viewBox="0 0 445.41 369.85"><defs><style>.cls-1{isolation:isolate;}.cls-2{fill:url(#linear-gradient);}.cls-3,.cls-57,.cls-61{opacity:0.5;}.cls-4,.cls-58{opacity:0;}.cls-5{fill:#c5d7e5;}.cls-6{opacity:0.17;}.cls-7{opacity:0.33;}.cls-8{opacity:0.67;}.cls-9{opacity:0.83;}.cls-10{opacity:0.7;}.cls-11{fill:url(#linear-gradient-2);}.cls-12{fill:url(#linear-gradient-3);}.cls-13{fill:url(#linear-gradient-4);}.cls-14{fill:url(#linear-gradient-5);}.cls-15{fill:url(#linear-gradient-6);}.cls-16{fill:url(#linear-gradient-7);}.cls-17{fill:#abdee5;}.cls-18{fill:url(#linear-gradient-8);}.cls-19,.cls-64{mix-blend-mode:overlay;}.cls-20{fill:url(#linear-gradient-9);}.cls-21{fill:url(#linear-gradient-10);}.cls-22{fill:url(#linear-gradient-11);}.cls-23{fill:url(#linear-gradient-12);}.cls-24{fill:url(#linear-gradient-13);}.cls-25{fill:url(#linear-gradient-14);}.cls-26{fill:url(#linear-gradient-15);}.cls-27{fill:url(#linear-gradient-16);}.cls-28{fill:url(#linear-gradient-17);}.cls-29{fill:url(#linear-gradient-18);}.cls-30{fill:url(#linear-gradient-19);}.cls-31{fill:url(#linear-gradient-20);}.cls-32{fill:url(#linear-gradient-21);}.cls-33{fill:url(#linear-gradient-22);}.cls-34{fill:url(#linear-gradient-23);}.cls-35{fill:url(#linear-gradient-24);}.cls-36{fill:url(#linear-gradient-25);}.cls-37{fill:url(#linear-gradient-26);}.cls-38{fill:url(#linear-gradient-27);}.cls-39{fill:url(#linear-gradient-28);}.cls-40{fill:url(#linear-gradient-29);}.cls-41{opacity:0.2;}.cls-42,.cls-55{fill:#010101;}.cls-43{fill:url(#linear-gradient-30);}.cls-44{fill:#fcfdfd;}.cls-45{fill:#13426f;}.cls-46{fill:url(#linear-gradient-31);}.cls-47{fill:url(#linear-gradient-32);}.cls-48{fill:url(#linear-gradient-33);}.cls-49{fill:url(#linear-gradient-34);}.cls-50{fill:url(#linear-gradient-35);}.cls-51{fill:url(#linear-gradient-36);}.cls-52{fill:url(#linear-gradient-37);}.cls-53{fill:url(#linear-gradient-38);}.cls-54{fill:url(#linear-gradient-39);}.cls-55{opacity:0.1;}.cls-56{fill:url(#linear-gradient-40);}.cls-57{fill:#d7eeeb;}.cls-58{fill:#fff;}.cls-59{fill:#cacbd8;opacity:0.17;}.cls-60{fill:#a1a6bc;opacity:0.33;}.cls-61{fill:#7e86a4;}.cls-62{fill:#5e6c8f;opacity:0.67;}.cls-63{fill:#3d567e;opacity:0.83;}.cls-64{fill:#51c8ea;}.cls-65{fill:#74d0ed;}.cls-66{opacity:0.67;}.cls-67{fill:#92d8ef;}.cls-68{fill:#ade1f3;}.cls-69{opacity:0.33;}.cls-70{fill:#c7eaf6;}.cls-71{opacity:0.17;}.cls-72{fill:#e1f3f9;}.cls-73,.cls-74,.cls-75,.cls-76,.cls-77,.cls-78,.cls-79{fill:#dcdbdb;}.cls-73{opacity:0.6;}.cls-74{opacity:0.67;}.cls-75{opacity:0.73;}.cls-76{opacity:0.8;}.cls-77{opacity:0.87;}.cls-78{opacity:0.93;}.cls-80{fill:#e6a376;}.cls-81{fill:#d18e62;}.cls-82{fill:#1e292e;}.cls-83{fill:#141a1d;}.cls-84{fill:#efb084;}</style><linearGradient id="linear-gradient" y1="241.27" x2="445.41" y2="241.27" gradientUnits="userSpaceOnUse"><stop offset="0" stop-color="#07629d"/><stop offset="1" stop-color="#2e83c5"/></linearGradient><linearGradient id="linear-gradient-2" x1="407.55" y1="140.27" x2="415.3" y2="140.27" xlink:href="#linear-gradient"/><linearGradient id="linear-gradient-3" x1="407.48" y1="134.09" x2="415.22" y2="134.09" gradientUnits="userSpaceOnUse"><stop offset="0" stop-color="#3371a6"/><stop offset="1" stop-color="#4890c9"/></linearGradient><linearGradient id="linear-gradient-4" x1="407.41" y1="127.9" x2="415.15" y2="127.9" gradientUnits="userSpaceOnUse"><stop offset="0" stop-color="#4d82b0"/><stop offset="1" stop-color="#5d9dce"/></linearGradient><linearGradient id="linear-gradient-5" x1="407.33" y1="121.72" x2="415.08" y2="121.72" gradientUnits="userSpaceOnUse"><stop offset="0" stop-color="#6495bc"/><stop offset="1" stop-color="#70abd4"/></linearGradient><linearGradient id="linear-gradient-6" x1="407.26" y1="115.54" x2="415" y2="115.54" gradientUnits="userSpaceOnUse"><stop offset="0" stop-color="#7aaac8"/><stop offset="1" stop-color="#83bad9"/></linearGradient><linearGradient id="linear-gradient-7" x1="407.19" y1="109.35" x2="414.93" y2="109.35" gradientUnits="userSpaceOnUse"><stop offset="0" stop-color="#92c2d5"/><stop offset="1" stop-color="#97cbde"/></linearGradient><linearGradient id="linear-gradient-8" x1="407.11" y1="103.17" x2="414.85" y2="103.17" xlink:href="#linear-gradient"/><linearGradient id="linear-gradient-9" x1="354.41" y1="107.85" x2="361.18" y2="107.85" xlink:href="#linear-gradient"/><linearGradient id="linear-gradient-10" x1="354.46" y1="90.32" x2="361.22" y2="90.32" xlink:href="#linear-gradient"/><linearGradient id="linear-gradient-11" x1="354.5" y1="72.79" x2="361.27" y2="72.79" xlink:href="#linear-gradient"/><linearGradient id="linear-gradient-12" x1="354.54" y1="55.26" x2="361.31" y2="55.26" xlink:href="#linear-gradient"/><linearGradient id="linear-gradient-13" x1="354.58" y1="37.73" x2="361.35" y2="37.73" xlink:href="#linear-gradient"/><linearGradient id="linear-gradient-14" x1="354.63" y1="20.2" x2="361.39" y2="20.2" xlink:href="#linear-gradient"/><linearGradient id="linear-gradient-15" x1="354.67" y1="2.66" x2="361.43" y2="2.66" xlink:href="#linear-gradient"/><linearGradient id="linear-gradient-16" x1="66.44" y1="125.61" x2="73.21" y2="125.61" xlink:href="#linear-gradient"/><linearGradient id="linear-gradient-17" x1="66.48" y1="115.15" x2="73.25" y2="115.15" xlink:href="#linear-gradient"/><linearGradient id="linear-gradient-18" x1="66.53" y1="104.7" x2="73.29" y2="104.7" xlink:href="#linear-gradient"/><linearGradient id="linear-gradient-19" x1="66.57" y1="94.24" x2="73.33" y2="94.24" xlink:href="#linear-gradient"/><linearGradient id="linear-gradient-20" x1="66.61" y1="83.78" x2="73.38" y2="83.78" xlink:href="#linear-gradient"/><linearGradient id="linear-gradient-21" x1="66.65" y1="73.32" x2="73.42" y2="73.32" xlink:href="#linear-gradient"/><linearGradient id="linear-gradient-22" x1="66.7" y1="62.87" x2="73.46" y2="62.87" xlink:href="#linear-gradient"/><linearGradient id="linear-gradient-23" x1="33" y1="237.76" x2="39.77" y2="237.76" xlink:href="#linear-gradient"/><linearGradient id="linear-gradient-24" x1="33.04" y1="220.23" x2="39.81" y2="220.23" xlink:href="#linear-gradient"/><linearGradient id="linear-gradient-25" x1="33.09" y1="202.7" x2="39.86" y2="202.7" xlink:href="#linear-gradient"/><linearGradient id="linear-gradient-26" x1="33.13" y1="185.17" x2="39.9" y2="185.17" xlink:href="#linear-gradient"/><linearGradient id="linear-gradient-27" x1="33.17" y1="167.64" x2="39.94" y2="167.64" xlink:href="#linear-gradient"/><linearGradient id="linear-gradient-28" x1="33.21" y1="150.11" x2="39.98" y2="150.11" xlink:href="#linear-gradient"/><linearGradient id="linear-gradient-29" x1="33.26" y1="132.58" x2="40.02" y2="132.58" xlink:href="#linear-gradient"/><linearGradient id="linear-gradient-30" x1="184.4" y1="265.08" x2="317.85" y2="265.08" xlink:href="#linear-gradient"/><linearGradient id="linear-gradient-31" x1="184.36" y1="200.75" x2="317.94" y2="200.75" xlink:href="#linear-gradient"/><linearGradient id="linear-gradient-32" x1="225.82" y1="62.92" x2="292.07" y2="62.92" xlink:href="#linear-gradient"/><linearGradient id="linear-gradient-33" x1="239.14" y1="55.9" x2="254.96" y2="55.9" xlink:href="#linear-gradient"/><linearGradient id="linear-gradient-34" x1="224.02" y1="67.38" x2="246.22" y2="67.38" xlink:href="#linear-gradient"/><linearGradient id="linear-gradient-35" x1="195.17" y1="81.07" x2="228.73" y2="81.07" xlink:href="#linear-gradient"/><linearGradient id="linear-gradient-36" x1="205.61" y1="74.37" x2="218.6" y2="74.37" xlink:href="#linear-gradient"/><linearGradient id="linear-gradient-37" x1="191.85" y1="106.7" x2="218.53" y2="106.7" xlink:href="#linear-gradient"/><linearGradient id="linear-gradient-38" x1="190.78" y1="97.49" x2="204.58" y2="97.49" xlink:href="#linear-gradient"/><linearGradient id="linear-gradient-39" x1="196.56" y1="113.34" x2="206.47" y2="113.34" xlink:href="#linear-gradient"/><linearGradient id="linear-gradient-40" x1="205.41" y1="103.6" x2="313.04" y2="103.6" xlink:href="#linear-gradient"/></defs><title>Groundbreaking Possibilities with AI</title><g class="cls-1"><g id="Layer_1" data-name="Layer 1"><path class="cls-2" d="M380.19,150.34c-87-50.21-228-50.21-315,0s-87,131.63,0,181.85,228,50.22,315,0S467.15,200.56,380.19,150.34Z"/><g class="cls-3"><g class="cls-4"><path class="cls-5" d="M397.82,236.37l-4.71,2.74a1,1,0,0,1-1,0l-4.75-2.74a1,1,0,0,1,0-1.66l4.72-2.74a1,1,0,0,1,1,0l4.75,2.74A1,1,0,0,1,397.82,236.37Z"/></g><g class="cls-6"><path class="cls-5" d="M397.82,229.91l-4.71,2.74a1,1,0,0,1-1,0l-4.75-2.74a1,1,0,0,1,0-1.66l4.72-2.74a1,1,0,0,1,1,0l4.75,2.74A1,1,0,0,1,397.82,229.91Z"/></g><g class="cls-7"><path class="cls-5" d="M397.82,223.45l-4.71,2.74a1,1,0,0,1-1,0l-4.75-2.74a1,1,0,0,1,0-1.66l4.72-2.74a1,1,0,0,1,1,0l4.75,2.74A1,1,0,0,1,397.82,223.45Z"/></g><g class="cls-3"><path class="cls-5" d="M397.82,217l-4.71,2.74a1,1,0,0,1-1,0L387.4,217a1,1,0,0,1,0-1.66l4.72-2.74a1,1,0,0,1,1,0l4.75,2.74A1,1,0,0,1,397.82,217Z"/></g><g class="cls-8"><path class="cls-5" d="M397.82,210.53l-4.71,2.74a1,1,0,0,1-1,0l-4.75-2.74a1,1,0,0,1,0-1.66l4.72-2.74a1,1,0,0,1,1,0l4.75,2.74A1,1,0,0,1,397.82,210.53Z"/></g><g class="cls-9"><path class="cls-5" d="M397.82,204.07l-4.71,2.74a1,1,0,0,1-1,0l-4.75-2.74a1,1,0,0,1,0-1.66l4.72-2.74a1,1,0,0,1,1,0l4.75,2.74A1,1,0,0,1,397.82,204.07Z"/></g><path class="cls-5" d="M397.82,197.61l-4.71,2.74a1,1,0,0,1-1,0l-4.75-2.74a1,1,0,0,1,0-1.66l4.72-2.74a1,1,0,0,1,1,0l4.75,2.74A1,1,0,0,1,397.82,197.61Z"/></g><path class="cls-5" d="M397.82,197.61l-4.71,2.74a1,1,0,0,1-1,0l-4.75-2.74a1,1,0,0,1,0-1.66l4.72-2.74a1,1,0,0,1,1,0l4.75,2.74A1,1,0,0,1,397.82,197.61Z"/><g class="cls-3"><g class="cls-4"><path class="cls-5" d="M118.76,59.65l-4.71,2.74a1,1,0,0,1-1,0l-4.75-2.75a1,1,0,0,1,0-1.66l4.71-2.73a.92.92,0,0,1,1,0L118.76,58A1,1,0,0,1,118.76,59.65Z"/></g><g class="cls-6"><path class="cls-5" d="M118.76,53.19l-4.71,2.74a1,1,0,0,1-1,0l-4.75-2.75a1,1,0,0,1,0-1.66l4.71-2.73a.92.92,0,0,1,1,0l4.75,2.74A1,1,0,0,1,118.76,53.19Z"/></g><g class="cls-7"><path class="cls-5" d="M118.76,46.73l-4.71,2.74a1,1,0,0,1-1,0l-4.75-2.75a1,1,0,0,1,0-1.66l4.71-2.73a.92.92,0,0,1,1,0l4.75,2.74A1,1,0,0,1,118.76,46.73Z"/></g><g class="cls-3"><path class="cls-5" d="M118.76,40.27,114.05,43a1,1,0,0,1-1,0l-4.75-2.74a1,1,0,0,1,0-1.67l4.71-2.73a.92.92,0,0,1,1,0l4.75,2.74A1,1,0,0,1,118.76,40.27Z"/></g><g class="cls-8"><path class="cls-5" d="M118.76,33.81l-4.71,2.74a1,1,0,0,1-1,0l-4.75-2.74a1,1,0,0,1,0-1.67l4.71-2.73a.92.92,0,0,1,1,0l4.75,2.74A1,1,0,0,1,118.76,33.81Z"/></g><g class="cls-9"><path class="cls-5" d="M118.77,27.35l-4.72,2.74a1,1,0,0,1-1,0l-4.75-2.74a1,1,0,0,1,0-1.67L113.05,23a.92.92,0,0,1,1,0l4.75,2.74A1,1,0,0,1,118.77,27.35Z"/></g><path class="cls-5" d="M118.77,20.89l-4.72,2.74a1,1,0,0,1-1,0l-4.75-2.74a1,1,0,0,1,0-1.66l4.71-2.74a.92.92,0,0,1,1,0l4.75,2.74A1,1,0,0,1,118.77,20.89Z"/></g><path class="cls-5" d="M118.77,20.89l-4.72,2.74a1,1,0,0,1-1,0l-4.75-2.74a1,1,0,0,1,0-1.66l4.71-2.74a.92.92,0,0,1,1,0l4.75,2.74A1,1,0,0,1,118.77,20.89Z"/><g class="cls-10"><path class="cls-11" d="M415,140.78l-3.18,1.91a.63.63,0,0,1-.65,0l-3.26-1.82a.65.65,0,0,1,0-1.13l3.18-1.91a.63.63,0,0,1,.65,0l3.26,1.81A.65.65,0,0,1,415,140.78Z"/><path class="cls-12" d="M414.91,134.6l-3.18,1.91a.65.65,0,0,1-.66,0l-3.26-1.82a.66.66,0,0,1,0-1.13l3.18-1.91a.67.67,0,0,1,.66,0l3.26,1.82A.65.65,0,0,1,414.91,134.6Z"/><path class="cls-13" d="M414.83,128.42l-3.17,1.91a.67.67,0,0,1-.66,0l-3.26-1.82a.65.65,0,0,1,0-1.13l3.18-1.91a.63.63,0,0,1,.65,0l3.27,1.82A.66.66,0,0,1,414.83,128.42Z"/><path class="cls-14" d="M414.76,122.23l-3.18,1.91a.63.63,0,0,1-.65,0l-3.26-1.81a.65.65,0,0,1,0-1.13l3.18-1.91a.63.63,0,0,1,.65,0l3.26,1.82A.65.65,0,0,1,414.76,122.23Z"/><path class="cls-15" d="M414.69,116.05,411.51,118a.67.67,0,0,1-.66,0l-3.26-1.82a.66.66,0,0,1,0-1.13l3.17-1.91a.67.67,0,0,1,.66,0l3.26,1.82A.65.65,0,0,1,414.69,116.05Z"/><path class="cls-16" d="M414.61,109.87l-3.17,1.91a.67.67,0,0,1-.66,0L407.52,110a.65.65,0,0,1,0-1.13l3.18-1.91a.63.63,0,0,1,.65,0l3.27,1.82A.65.65,0,0,1,414.61,109.87Z"/><path class="cls-17" d="M414.54,103.68l-3.17,1.91a.65.65,0,0,1-.66,0l-3.26-1.81a.65.65,0,0,1,0-1.13l3.18-1.92a.66.66,0,0,1,.65,0l3.26,1.82A.65.65,0,0,1,414.54,103.68Z"/></g><path class="cls-18" d="M414.54,103.68l-3.18,1.91a.65.65,0,0,1-.66,0l-3.26-1.81a.65.65,0,0,1,0-1.13l3.18-1.92a.67.67,0,0,1,.66,0l3.26,1.82A.65.65,0,0,1,414.54,103.68Z"/><g class="cls-19"><path class="cls-20" d="M355.25,109.29l1.69,1a1.66,1.66,0,0,0,1.68,0l1.71-1a1.68,1.68,0,0,0,0-2.91l-1.7-1a1.68,1.68,0,0,0-1.68,0l-1.71,1A1.68,1.68,0,0,0,355.25,109.29Z"/><path class="cls-21" d="M355.29,91.76l1.69,1a1.66,1.66,0,0,0,1.68,0l1.71-1a1.68,1.68,0,0,0,0-2.91l-1.69-1a1.72,1.72,0,0,0-1.69,0l-1.7,1A1.68,1.68,0,0,0,355.29,91.76Z"/><path class="cls-22" d="M355.33,74.23l1.69,1a1.68,1.68,0,0,0,1.69,0l1.71-1a1.68,1.68,0,0,0,0-2.91l-1.69-1a1.68,1.68,0,0,0-1.68,0l-1.71,1A1.68,1.68,0,0,0,355.33,74.23Z"/><path class="cls-23" d="M355.37,56.7l1.7,1a1.68,1.68,0,0,0,1.68,0l1.71-1a1.68,1.68,0,0,0,0-2.91l-1.7-1a1.68,1.68,0,0,0-1.68,0l-1.71,1A1.69,1.69,0,0,0,355.37,56.7Z"/><path class="cls-24" d="M355.42,39.17l1.69,1a1.68,1.68,0,0,0,1.68,0l1.71-1a1.68,1.68,0,0,0,0-2.91l-1.7-1a1.68,1.68,0,0,0-1.68,0l-1.71,1A1.69,1.69,0,0,0,355.42,39.17Z"/><path class="cls-25" d="M355.46,21.64l1.69,1a1.68,1.68,0,0,0,1.68,0l1.71-1a1.68,1.68,0,0,0,0-2.91l-1.7-1a1.68,1.68,0,0,0-1.68,0l-1.7,1A1.69,1.69,0,0,0,355.46,21.64Z"/><path class="cls-26" d="M355.5,4.11l1.69,1a1.68,1.68,0,0,0,1.68,0l1.71-1a1.69,1.69,0,0,0,0-2.92l-1.69-1a1.66,1.66,0,0,0-1.68,0l-1.71,1A1.69,1.69,0,0,0,355.5,4.11Z"/></g><g class="cls-19"><path class="cls-27" d="M67.27,126.47l1.7.59a2.75,2.75,0,0,0,1.68,0l1.71-.58c1.12-.38,1.13-1.35,0-1.74l-1.7-.59a2.68,2.68,0,0,0-1.68,0l-1.71.58C66.16,125.11,66.16,126.08,67.27,126.47Z"/><path class="cls-28" d="M67.31,116l1.7.59a2.61,2.61,0,0,0,1.68,0L72.4,116c1.12-.38,1.14-1.35,0-1.74l-1.7-.59a2.75,2.75,0,0,0-1.68,0l-1.71.58C66.21,114.66,66.2,115.62,67.31,116Z"/><path class="cls-29" d="M67.36,105.55l1.69.6a2.68,2.68,0,0,0,1.68,0l1.71-.58c1.13-.38,1.14-1.34,0-1.73l-1.69-.6a2.71,2.71,0,0,0-1.69,0l-1.71.58C66.25,104.2,66.24,105.16,67.36,105.55Z"/><path class="cls-30" d="M67.4,95.1l1.69.59a2.75,2.75,0,0,0,1.68,0l1.71-.58c1.13-.38,1.14-1.35,0-1.74l-1.69-.59a2.61,2.61,0,0,0-1.68,0l-1.71.58C66.29,93.74,66.28,94.71,67.4,95.1Z"/><path class="cls-31" d="M67.44,84.64l1.7.59a2.61,2.61,0,0,0,1.68,0l1.71-.58c1.12-.38,1.13-1.35,0-1.74l-1.7-.59a2.75,2.75,0,0,0-1.68,0l-1.71.58C66.33,83.29,66.33,84.25,67.44,84.64Z"/><path class="cls-32" d="M67.49,74.18l1.69.6a2.68,2.68,0,0,0,1.68,0l1.71-.58c1.12-.38,1.14-1.34,0-1.73l-1.7-.6a2.68,2.68,0,0,0-1.68,0l-1.71.58C66.38,72.83,66.37,73.79,67.49,74.18Z"/><path class="cls-33" d="M67.53,63.73l1.69.59a2.68,2.68,0,0,0,1.68,0l1.71-.57c1.12-.39,1.14-1.35,0-1.74l-1.7-.59a2.61,2.61,0,0,0-1.68,0l-1.7.58C66.42,62.37,66.41,63.34,67.53,63.73Z"/></g><g class="cls-19"><path class="cls-34" d="M33.83,239.2l1.7,1a1.68,1.68,0,0,0,1.68,0l1.71-1a1.68,1.68,0,0,0,0-2.91l-1.69-1a1.68,1.68,0,0,0-1.69,0l-1.71,1A1.68,1.68,0,0,0,33.83,239.2Z"/><path class="cls-35" d="M33.88,221.67l1.69,1a1.68,1.68,0,0,0,1.68,0l1.71-1a1.68,1.68,0,0,0,0-2.91l-1.69-1a1.68,1.68,0,0,0-1.69,0l-1.71,1A1.68,1.68,0,0,0,33.88,221.67Z"/><path class="cls-36" d="M33.92,204.14l1.69,1a1.7,1.7,0,0,0,1.69,0l1.7-1a1.68,1.68,0,0,0,0-2.91l-1.69-1a1.68,1.68,0,0,0-1.69,0l-1.7,1A1.68,1.68,0,0,0,33.92,204.14Z"/><path class="cls-37" d="M34,186.61l1.69,1a1.68,1.68,0,0,0,1.69,0l1.71-1a1.68,1.68,0,0,0,0-2.91l-1.7-1a1.66,1.66,0,0,0-1.68,0l-1.71,1A1.68,1.68,0,0,0,34,186.61Z"/><path class="cls-38" d="M34,169.08l1.7,1a1.66,1.66,0,0,0,1.68,0l1.71-1a1.68,1.68,0,0,0,0-2.91l-1.7-1a1.68,1.68,0,0,0-1.68,0l-1.71,1A1.69,1.69,0,0,0,34,169.08Z"/><path class="cls-39" d="M34.05,151.55l1.69,1a1.66,1.66,0,0,0,1.68,0l1.71-1a1.68,1.68,0,0,0,0-2.91l-1.69-1a1.72,1.72,0,0,0-1.69,0l-1.71,1A1.69,1.69,0,0,0,34.05,151.55Z"/><path class="cls-40" d="M34.09,134l1.69,1a1.66,1.66,0,0,0,1.68,0l1.71-1a1.68,1.68,0,0,0,0-2.91l-1.69-1a1.7,1.7,0,0,0-1.69,0l-1.7,1A1.69,1.69,0,0,0,34.09,134Z"/></g><g class="cls-41"><path class="cls-42" d="M325.46,253.48c7.07,4.07,7.11,10.69.09,14.77l-60.2,35c-7,4.08-18.47,4.08-25.53,0L177.1,267c-7.07-4.09-7.11-10.71-.08-14.79l60.19-35c7-4.09,18.46-4.08,25.53,0Z"/></g><path class="cls-43" d="M317.81,237.81a3.44,3.44,0,0,1-.05.45,3.06,3.06,0,0,1-.1.41,2.44,2.44,0,0,1-.13.44c0,.12-.1.24-.15.36s-.14.32-.22.48-.13.22-.2.33a6.18,6.18,0,0,1-.36.53,3.76,3.76,0,0,1-.25.31c-.19.23-.41.46-.63.69l-.26.25c-.14.13-.3.25-.46.38s-.27.23-.42.33l-.55.37-.57.37L263,272.86c-.46.26-.94.49-1.43.72l-.43.18a12.14,12.14,0,0,1-1.19.45c-.15.05-.28.11-.43.15s-.52.16-.79.23l-.59.16-.83.17c-.19,0-.38.09-.58.12-.56.1-1.14.18-1.71.24l-.55.05-1,.06-.65,0h-.84l-.69,0-.77,0-.7-.05-.75-.08-.69-.11c-.26,0-.52-.08-.78-.13l-.64-.13-.93-.23-.53-.14c-.55-.16-1.09-.34-1.62-.55l-.22-.09a16.15,16.15,0,0,1-2.05-1l-52.61-30.38c-3-1.72-4.48-4-4.48-6.25l0,18.51c0,2.26,1.49,4.52,4.47,6.25l52.62,30.38a16.15,16.15,0,0,0,2,1,.45.45,0,0,0,.14.06s0,0,.08,0a16.21,16.21,0,0,0,1.62.55l.13,0,.39.1.93.23.26.06.39.07.8.14.31.05.34,0,.78.09.35,0,.34,0,.77,0,.38,0h1.55l.25,0,1-.06c.13,0,.27,0,.41,0l.14,0c.57-.06,1.15-.14,1.71-.24h.08l.5-.1.83-.19c.2,0,.39-.1.59-.15l.79-.23.16-.05.27-.1c.41-.14.8-.28,1.19-.45l.43-.18c.49-.22,1-.46,1.43-.72L313.41,262a.78.78,0,0,1,.18-.11l.39-.27a5.07,5.07,0,0,0,.54-.36c.15-.1.29-.22.43-.33s.32-.26.46-.39l.09-.07.16-.16c.22-.23.44-.46.64-.7l.14-.15v0h0v0c.05-.06.07-.11.12-.17s.23-.33.34-.5.11-.16.15-.24l.06-.12c.08-.15.15-.31.22-.46s.09-.18.12-.28a.32.32,0,0,0,0-.09c0-.15.09-.31.14-.46s.06-.2.08-.3a.22.22,0,0,0,0-.08,4.23,4.23,0,0,0,.05-.5,2.89,2.89,0,0,0,0-.29v-.13l.05-18.51A3.57,3.57,0,0,1,317.81,237.81Z"/><path class="cls-5" d="M313.39,231.11c5.93,3.42,5.95,9,.07,12.4L263,272.86c-5.89,3.42-15.47,3.42-21.41,0l-52.61-30.38c-5.94-3.43-6-9-.08-12.4l50.5-29.36c5.89-3.42,15.48-3.42,21.42,0Z"/><path class="cls-44" d="M296,234.57c4.27,2.46,4.3,6.46.05,8.93l-36.38,21.14a17,17,0,0,1-15.43,0l-37.91-21.89c-4.27-2.47-4.29-6.47,0-8.94l36.39-21.14c4.24-2.47,11.15-2.47,15.43,0Z"/><path class="cls-45" d="M286.62,242.05c3.36,1.9,3.38,5,0,6.88L258,265.22a13.68,13.68,0,0,1-12.16,0L216,248.36c-3.37-1.9-3.39-5,0-6.89l28.67-16.28a13.65,13.65,0,0,1,12.16,0Z"/><path class="cls-46" d="M317.9,151.89a3.1,3.1,0,0,1,0,.45c0,.14-.07.27-.1.4s-.08.3-.13.45l-.15.37c-.07.16-.14.31-.22.47s-.14.23-.21.34a5.91,5.91,0,0,1-.35.52l-.25.32c-.19.23-.41.45-.63.68l-.26.25c-.14.13-.3.25-.46.38l-.43.33c-.16.13-.34.24-.52.36l-.6.38L263,186.93a13.49,13.49,0,0,1-1.42.72l-.43.19q-.58.24-1.2.45l-.43.15-.78.22-.6.16c-.26.07-.54.12-.82.18l-.59.12q-.85.15-1.71.24l-.56,0c-.33,0-.67.06-1,.07l-.68,0H252l-.69,0-.78,0-.69-.05-.75-.09-.69-.1-.81-.13-.61-.13-.95-.23-.51-.14c-.56-.17-1.1-.34-1.62-.55l-.23-.09a16.74,16.74,0,0,1-2-1L189,156.56c-3-1.72-4.47-4-4.47-6.25q-.09,30.85-.18,61.7c0,2.26,1.49,4.53,4.48,6.25l52.61,30.38a16.15,16.15,0,0,0,2.05,1l.13.06.09,0a16.21,16.21,0,0,0,1.62.55l.13,0,.39.1.93.23.26.06.38.06c.26.06.54.11.81.15l.31,0,.35,0,.76.08a2.2,2.2,0,0,0,.36,0c.11,0,.23,0,.34,0l.77,0h1.94l.24,0c.34,0,.68,0,1-.07.14,0,.28,0,.42,0h.13c.57-.06,1.15-.14,1.72-.24h.08l.49-.11q.42-.07.84-.18l.6-.16.77-.22.17,0,.28-.1q.6-.21,1.17-.45l.45-.19a13.49,13.49,0,0,0,1.42-.72l50.5-29.34.18-.11.39-.26c.18-.12.38-.24.54-.37a5.12,5.12,0,0,0,.44-.34c.15-.12.31-.24.45-.37a.39.39,0,0,0,.1-.08l.16-.18a5.88,5.88,0,0,0,.64-.69,1.85,1.85,0,0,0,.14-.14,1.19,1.19,0,0,0,.09-.15c.14-.18.26-.36.38-.55s.1-.13.14-.2a1.17,1.17,0,0,1,.05-.11,5.27,5.27,0,0,0,.22-.49c0-.09.1-.17.13-.26l0-.1c.05-.15.09-.31.13-.47s.06-.19.08-.29a.17.17,0,0,0,0-.07,2.63,2.63,0,0,0,.06-.48c0-.11,0-.21,0-.32v-.13l.18-61.7A3.42,3.42,0,0,1,317.9,151.89Z"/><path class="cls-5" d="M313.47,145.19c5.93,3.42,6,9,.07,12.4L263,186.93c-5.89,3.43-15.49,3.43-21.41,0L189,156.56c-5.93-3.43-6-9-.06-12.41l50.49-29.35c5.9-3.42,15.48-3.42,21.42,0Z"/><path class="cls-44" d="M296,146.77c4.27,2.47,4.3,6.47.05,8.94l-36.38,21.14a17,17,0,0,1-15.43,0L206.29,155c-4.27-2.47-4.29-6.47,0-8.94l36.39-21.15c4.24-2.46,11.15-2.46,15.43,0Z"/><path class="cls-45" d="M286.62,154.26c3.36,1.89,3.38,5,0,6.88L258,177.43a13.68,13.68,0,0,1-12.16,0L216,160.57c-3.37-1.9-3.39-5,0-6.89l28.67-16.29a13.65,13.65,0,0,1,12.16,0Z"/><path class="cls-5" d="M273,189.92c1.68-1,3.05-.19,3.05,1.74l.1,35.2a6.67,6.67,0,0,1-3,5.25c-1.68,1-3.05.2-3.06-1.74l-.1-35.19A6.68,6.68,0,0,1,273,189.92Z"/><path class="cls-5" d="M289.92,181.91c1.68-1,3-.19,3.05,1.74l.1,35.2a6.68,6.68,0,0,1-3,5.25c-1.68,1-3,.19-3-1.74l-.1-35.19A6.68,6.68,0,0,1,289.92,181.91Z"/><path class="cls-5" d="M305.11,174.28c1.69-1,3.05-.19,3.06,1.74l.1,35.2a6.65,6.65,0,0,1-3,5.25c-1.68,1-3,.19-3.05-1.74l-.1-35.2A6.72,6.72,0,0,1,305.11,174.28Z"/><path class="cls-5" d="M273,189.92c1.68-1,3.05-.19,3.05,1.74l.1,35.2a6.67,6.67,0,0,1-3,5.25c-1.68,1-3.05.2-3.06-1.74l-.1-35.19A6.68,6.68,0,0,1,273,189.92Z"/><path class="cls-5" d="M289.92,181.91c1.68-1,3-.19,3.05,1.74l.1,35.2a6.68,6.68,0,0,1-3,5.25c-1.68,1-3,.19-3-1.74l-.1-35.19A6.68,6.68,0,0,1,289.92,181.91Z"/><path class="cls-5" d="M305.11,174.28c1.69-1,3.05-.19,3.06,1.74l.1,35.2a6.65,6.65,0,0,1-3,5.25c-1.68,1-3,.19-3.05-1.74l-.1-35.2A6.72,6.72,0,0,1,305.11,174.28Z"/><path class="cls-5" d="M273,189.92c1.68-1,3.05-.19,3.05,1.74l.1,35.2a6.67,6.67,0,0,1-3,5.25c-1.68,1-3.05.2-3.06-1.74l-.1-35.19A6.68,6.68,0,0,1,273,189.92Z"/><path class="cls-45" d="M270,195.18l.1,35.19c0,1.42.75,2.21,1.8,2.15a6.7,6.7,0,0,0,2.06-4.49l-.09-35.19c0-1.42-.76-2.21-1.81-2.15A6.74,6.74,0,0,0,270,195.18Z"/><path class="cls-45" d="M286.88,187.17l.1,35.19c0,1.42.74,2.21,1.8,2.15a6.74,6.74,0,0,0,2.06-4.49l-.1-35.2c0-1.41-.75-2.2-1.8-2.14A6.74,6.74,0,0,0,286.88,187.17Z"/><path class="cls-45" d="M302.08,179.53l.1,35.2c0,1.42.75,2.21,1.81,2.15a6.75,6.75,0,0,0,2.05-4.49l-.1-35.19c0-1.42-.75-2.22-1.8-2.16A6.78,6.78,0,0,0,302.08,179.53Z"/><path class="cls-5" d="M233,189.73c-1.68-1-3-.19-3,1.74l-.11,35.2a6.7,6.7,0,0,0,3,5.25c1.68,1,3,.19,3-1.74L236,195A6.67,6.67,0,0,0,233,189.73Z"/><path class="cls-5" d="M216,181.72c-1.68-1-3.05-.19-3.06,1.74l-.09,35.2a6.67,6.67,0,0,0,3,5.25c1.68,1,3,.19,3.06-1.74l.09-35.19A6.67,6.67,0,0,0,216,181.72Z"/><path class="cls-5" d="M200.82,174.09c-1.68-1-3-.19-3,1.74l-.1,35.19a6.68,6.68,0,0,0,3,5.26c1.68,1,3.05.19,3.06-1.74l.09-35.19A6.67,6.67,0,0,0,200.82,174.09Z"/><path class="cls-45" d="M235.88,230.18,236,195a6.55,6.55,0,0,0-1.67-4.08c-1.26-.3-2.18.49-2.19,2.08l-.1,35.19a6.62,6.62,0,0,0,1.68,4.08C235,232.56,235.88,231.77,235.88,230.18Z"/><path class="cls-45" d="M219,222.17l.09-35.19a6.57,6.57,0,0,0-1.66-4.08c-1.27-.3-2.19.49-2.2,2.08l-.09,35.19a6.69,6.69,0,0,0,1.67,4.08C218,224.55,219,223.76,219,222.17Z"/><path class="cls-45" d="M203.76,214.54l.09-35.19a6.57,6.57,0,0,0-1.67-4.09c-1.25-.29-2.18.5-2.19,2.08l-.09,35.2a6.63,6.63,0,0,0,1.67,4.08C202.83,216.92,203.75,216.12,203.76,214.54Z"/><path class="cls-5" d="M189.27,113.05C187.7,87.38,219.88,36.85,275,56.14c31.54,11,38.9,28.82,5.41,53.31,0,0,.35,13.69-25.94,11.53,0,0-16.93-.72-28.36,7.92C214,138.05,190,124.64,189.27,113.05Z"/><path class="cls-47" d="M290.52,69.43c-.09-.09-8.77-8.88-20.61-9.4a114.12,114.12,0,0,0-12.72.5c-9.78.74-21.65,1.14-31.37-3l2.59-1.17c9.24,3.88,19.08,2.68,28.61,2a113.47,113.47,0,0,1,13-.5c12.72.55,21.7,9.66,22.07,10.05Z"/><path class="cls-48" d="M254.65,59.43l-1.85-.31a6.08,6.08,0,0,0-.12-1.18c-.44-.74-4.08-3.37-13.54-4.87l3.49-.7c8.12,1.29,11,2.39,12.09,4.81A2.42,2.42,0,0,1,254.65,59.43Z"/><path class="cls-49" d="M226.17,75.63,224,74.08c3.37-4.93,12.57-11.95,17.93-14.28,1.1-.48.39-.15,1.53-.67l2.74,1.14c-1.15.53-2.3,1-3.41,1.51C237.52,64.08,229.18,71.21,226.17,75.63Z"/><path class="cls-50" d="M195.17,88.68l1.18-2.29A49.28,49.28,0,0,0,205,83.88c2.32-.85,3.72-2.57,5.21-4.38,1.76-2.17,3.77-4.62,7.56-5.65a9.78,9.78,0,0,1,10.92,4L226.89,79a7.62,7.62,0,0,0-8.52-3c-3.12.84-4.74,2.82-6.45,4.93-1.6,2-3.26,4-6.14,5A59.55,59.55,0,0,1,195.17,88.68Z"/><path class="cls-51" d="M206.78,84.12c-5.5-10.61,10.13-19.14,10.8-19.5l1,1.91c-.14.07-14.42,7.87-9.9,16.59Z"/><path class="cls-52" d="M198.63,126.22c-.44-.4-9.93-8.33-5.69-16.88a30.09,30.09,0,0,1,6.66-8.48c2.3-2.22,4-3.83,3.89-6.08-.09-3.6,3.26-7,6.61-8.59s6.33-1.27,8.43.62l-1.45,1.61c-2-1.83-4.92-.79-6.08-.27-3.05,1.42-5.41,4.3-5.34,6.57.08,3.2-2.07,5.28-4.56,7.7a28.07,28.07,0,0,0-6.23,7.88c-3.51,7.08,7.33,17.81,7.43,17.9Z"/><path class="cls-53" d="M190.78,100.23l.9-3c5.37-4.43,12.51-1.51,12.9-1.35l-.77,2C203.73,97.82,194.57,94.81,190.78,100.23Z"/><path class="cls-54" d="M205.41,122.23c-9.14-8.49-8.87-17.26-8.85-17.33l2.26-.46h0l-.24,1.23c-.09.23,2.74,9.4,7.89,14Z"/><path class="cls-55" d="M226.1,128.9c11.43-8.64,28.36-7.92,28.36-7.92,26.29,2.16,25.94-11.53,25.94-11.53,21.43-15.67,26.11-28.58,18.47-38.75a75.87,75.87,0,0,0-15.41-7.13c-55.11-19.29-87.29,31.24-85.72,56.91a12.82,12.82,0,0,0,2.72,6.68C208.56,132,219.24,134.09,226.1,128.9Z"/><path class="cls-56" d="M205.48,124.38c-1.57-25.67,24.13-73.84,85.72-56.91,12.92,3.55,38.9,28.81,5.41,53.31,0,0,.35,13.69-25.94,11.52,0,0-16.92-.72-28.36,7.93C230.21,149.38,206.18,136,205.48,124.38Z"/><path class="cls-5" d="M298.51,119.33l-1.9,1.45c0-.06,2.24-6.43.15-9.76-1.1-1.75-3.55-2.56-7.27-2.43l-1.57.06c-8.76.33-14.54.56-17.4-2.84-1.89-2.23-2.21-5.69-1-11.22,2.13-10,1.62-16.94-1.49-20.5-2.09-2.39-5.52-3.41-10.17-3.06-9.48.72-13,7-14.34,25.83-.29,3.88-3.77,8-8.87,10.62-4,2-12.63,7-26.34-1.71l.73-2.07c12.78,8.1,21,3.68,24.64,1.85,5-2.54,7.49-6.27,7.68-8.85,1.27-17.34,4.25-26.91,16.33-27.83,5.37-.4,9.4.87,12,3.8,3.64,4.15,4.29,11.47,2,22.37-1,4.74-.81,7.72.58,9.38,2.18,2.59,7.83,2.37,15.66,2.07l1.58-.06c4.53-.16,7.64,1,9.18,3.45C301.34,114.26,298.66,119.05,298.51,119.33Z"/><path class="cls-5" d="M263.73,120.85l-2.15-.21c1.44-15,21-14,21.17-14l-.12,2.15C281.92,108.78,265,107.94,263.73,120.85Z"/><path class="cls-5" d="M272.41,90.51l-2.12-.42c0-.18,3.85-18.17,21.06-17.36l-.11,2.16C275.82,74.12,272.54,89.84,272.41,90.51Z"/><path class="cls-5" d="M292.69,86.28c-2.45-8.32-12.43-8.49-12.53-8.49V75.63c.12,0,11.7.19,14.59,10Z"/><path class="cls-5" d="M228.2,125.34l-.78-2c20.92-8.16,14.37-26.85,14.08-27.64l2-.74C243.61,95.15,251.08,116.41,228.2,125.34Z"/><path class="cls-5" d="M239.89,131.34l-1.47-1.59c6.08-5.59,1.42-14.93,1.37-15l1.93-1C241.94,114.18,247.16,124.65,239.89,131.34Z"/><path class="cls-5" d="M244.55,86.6l-1.76-1.26c.07-.1,7.32-10.1,16.83-6.32l-.79,2C250.87,77.87,244.61,86.51,244.55,86.6Z"/><path class="cls-5" d="M231.62,143.26c-9.83-.9-10.18-8.49-12.31-15.4-.77-2.47-1.25-5-2.45-6.6-3.82-5.26-7.22-5.59-10.94-5.77l.36-2.14a13.08,13.08,0,0,1,12.49,6.89,42,42,0,0,1,2.6,7c2.15,6.94,6.17,15,14.56,15.73Z"/><path class="cls-5" d="M235.11,106.65l-2.15-.19c.72-8.27-13-10.06-13.12-10.08l.27-2.14C220.75,94.32,236,96.33,235.11,106.65Z"/><path class="cls-5" d="M230.4,99.15,228.56,98c3.94-6.39-2.33-14.66-2.39-14.74l1.7-1.32C228.17,82.33,235.11,91.49,230.4,99.15Z"/><path class="cls-5" d="M294,108.18l-2-.93c2-4.2,3.15-5,7-7.68.77-.52,1.64-1.14,2.67-1.87,5.34-3.82,1.65-11.16,1.61-11.24l1.92-1c1.61,3.12,3.19,10.06-2.28,14-1,.74-1.91,1.35-2.68,1.89C296.51,104,295.73,104.5,294,108.18Z"/><path class="cls-5" d="M307.53,101.36a11.5,11.5,0,0,1-5.84-1.89l1.24-1.78s3,2,5.72,1.39c1.36-.31,3.52-3,4.39-4.49l-.2,3.39c-1.19,2.08-1.74,2.76-3.73,3.21A7.14,7.14,0,0,1,307.53,101.36Z"/><path class="cls-5" d="M264,132c-.24,0-.39-.17-.6-.39-.75-.79,0-1.55.38-1.88l0,0c.47-.41,1.74-1.54,5.12-4.65,1.7-1.57,2.5-3.23,2.36-5-.31-3.86-5-7-5-7l1.19-1.81c.22.15,5.6,3.76,6,8.65.2,2.41-.83,4.67-3,6.71-2.7,2.48-4.23,3.88-5.16,4.61l-.22.22,0,0A1.9,1.9,0,0,1,264,132Z"/><path class="cls-5" d="M281.77,124.91a6.7,6.7,0,0,0-4.16-3.29,6.8,6.8,0,0,0-4.7.89l-1.19-1.81a9,9,0,0,1,6.34-1.2,8.82,8.82,0,0,1,5.54,4.25Z"/><path class="cls-5" d="M269.17,99.32c-.05,0-5.15-5.43-10-5.43h-.05A6,6,0,0,0,254.54,96l-1.6-1.46a8.17,8.17,0,0,1,6.13-2.85c5.77,0,11.44,5.86,11.68,6.11Z"/><path class="cls-5" d="M287.87,94.59c-5.93-5.66-.43-15.47-.2-15.88l1.88,1.07c-.05.09-4.89,8.76-.19,13.24Z"/><path class="cls-5" d="M224.8,137.59l-1.52-1.54a9.83,9.83,0,0,1,11.27-1.34l-1,1.93A7.6,7.6,0,0,0,224.8,137.59Z"/><path class="cls-5" d="M250.5,124.84c-1.92-3.61-7.77-3-7.83-3l-.24-2.15c.3,0,7.37-.76,10,4.16Z"/><path class="cls-57" d="M205.48,124.38c.7,11.59,24.73,25,36.83,15.85,11.44-8.65,28.36-7.93,28.36-7.93,26.29,2.17,25.94-11.52,25.94-11.52,21.09-15.42,18.59-31.14,10.63-41.57,5.34,16.73-12.22,31.17-17.69,37.16-6,6.57-13.28,5.14-22.48,4.09s-8.1,4-30.08,10.88c-18.21,5.74-28.49-7.44-31.48-12.12A40.53,40.53,0,0,0,205.48,124.38Z"/><g class="cls-19"><g class="cls-4"><path class="cls-44" d="M308.93,14.84c32.77,13.58,32.94,35.61.39,49.19s-85.51,13.58-118.27,0-33-35.61-.39-49.19S276.17,1.26,308.93,14.84Z"/></g></g><path class="cls-45" d="M147.82,281a1.29,1.29,0,0,0,0,2.44,4.68,4.68,0,0,0,4,.12.94.94,0,0,0,.22-.12,1.88,1.88,0,0,0,.6-.49c.52-.64.33-1.42-.58-1.95A4.62,4.62,0,0,0,147.82,281Z"/><path class="cls-45" d="M152,283.44a.94.94,0,0,1-.22.12l13.85,8.05.08-.77.5,0L152.62,283A1.88,1.88,0,0,1,152,283.44Z"/><path class="cls-45" d="M142.78,270.92a1.3,1.3,0,0,0,0,2.45,4.71,4.71,0,0,0,3.69.24,3.56,3.56,0,0,0,.52-.24,2.51,2.51,0,0,0,.43-.31c.72-.66.59-1.56-.41-2.14A4.68,4.68,0,0,0,142.78,270.92Z"/><polygon class="cls-45" points="165.67 291.62 165.68 291.61 165.65 291.61 165.67 291.62"/><g class="cls-1"><polygon class="cls-45" points="169.26 285.76 170.05 286.22 169.57 286.5 202.01 267.77 201.22 267.31 169.26 285.76"/><path class="cls-45" d="M146.46,273.61l22.64,13.16.47-.28.48-.27-.79-.45-21.85-12.71a2.51,2.51,0,0,1-.43.31A3.56,3.56,0,0,1,146.46,273.61Z"/><polygon class="cls-45" points="165.73 290.84 165.65 291.61 165.68 291.61 179.13 292.05 179.18 292.05 179.26 291.28 178.97 291.27 166.23 290.86 165.73 290.84"/><polygon class="cls-45" points="178.97 291.27 179.26 291.28 179.18 292.05 211.59 273.34 210.81 272.88 178.97 291.27"/><polygon class="cls-45" points="195.24 301.39 195.22 301.4 195.25 301.41 195.24 301.39"/><polygon class="cls-45" points="195.24 301.39 195.25 301.41 195.96 309.21 195.96 309.22 197.29 309.18 197.27 308.89 196.59 301.52 196.58 301.34 195.24 301.39"/><polygon class="cls-45" points="228.45 283.13 227.66 282.67 195.24 301.39 196.58 301.34 196.59 301.52 228.45 283.13"/><path class="cls-45" d="M169.1,306a3,3,0,0,1,.44.21,1.83,1.83,0,0,1,.35.25l49.47-28.57-.78-.45Z"/><polygon class="cls-45" points="205.28 306.7 206.07 307.16 238.03 288.7 237.25 288.24 205.28 306.7"/><path class="cls-45" d="M165.32,306.17a1.29,1.29,0,0,0,0,2.44,4.68,4.68,0,0,0,4.22,0c1-.6,1.16-1.52.37-2.19a1.83,1.83,0,0,0-.35-.25,3,3,0,0,0-.44-.21A4.68,4.68,0,0,0,165.32,306.17Z"/><polygon class="cls-45" points="195.96 309.21 195.94 309.22 195.96 309.22 195.96 309.21"/><path class="cls-45" d="M197.27,308.9l0,.28-1.33,0,13.84,8a2.25,2.25,0,0,1,.42-.3,2.45,2.45,0,0,1,.52-.24Z"/><path class="cls-45" d="M210.22,317a2.25,2.25,0,0,0-.42.3c-.73.66-.59,1.55.41,2.14a4.66,4.66,0,0,0,4.21,0,1.29,1.29,0,0,0,0-2.44,4.65,4.65,0,0,0-3.7-.24A2.45,2.45,0,0,0,210.22,317Z"/><path class="cls-45" d="M204.34,307.24,227,320.4a2.25,2.25,0,0,1,.42-.3,3.08,3.08,0,0,1,.52-.24l-21.85-12.7-.79-.46Z"/></g><path class="cls-45" d="M227.4,320.1a2.25,2.25,0,0,0-.42.3c-.73.67-.6,1.56.41,2.14a4.66,4.66,0,0,0,4.21,0,1.29,1.29,0,0,0,0-2.44,4.65,4.65,0,0,0-3.7-.24A3.08,3.08,0,0,0,227.4,320.1Z"/><g class="cls-19"><path class="cls-58" d="M235.39,320.4a5.89,5.89,0,1,1-5.89-5.89A5.89,5.89,0,0,1,235.39,320.4Z"/><path class="cls-59" d="M234.67,320.46a5.19,5.19,0,1,1-5.19-5.19A5.19,5.19,0,0,1,234.67,320.46Z"/><path class="cls-60" d="M234,320.52a4.49,4.49,0,1,1-4.48-4.49A4.48,4.48,0,0,1,234,320.52Z"/><path class="cls-61" d="M233.24,320.58a3.79,3.79,0,1,1-3.79-3.79A3.79,3.79,0,0,1,233.24,320.58Z"/><path class="cls-62" d="M232.52,320.63a3.09,3.09,0,1,1-3.08-3.09A3.08,3.08,0,0,1,232.52,320.63Z"/><path class="cls-63" d="M231.8,320.69a2.39,2.39,0,1,1-2.38-2.39A2.38,2.38,0,0,1,231.8,320.69Z"/><path class="cls-45" d="M231.08,320.75a1.69,1.69,0,0,1-1.68,1.69,1.69,1.69,0,1,1,0-3.38A1.69,1.69,0,0,1,231.08,320.75Z"/></g><g class="cls-19"><path class="cls-58" d="M218.21,317.27a5.89,5.89,0,1,1-5.89-5.89A5.89,5.89,0,0,1,218.21,317.27Z"/><path class="cls-59" d="M217.49,317.33a5.19,5.19,0,1,1-5.19-5.19A5.18,5.18,0,0,1,217.49,317.33Z"/><path class="cls-60" d="M216.77,317.39a4.49,4.49,0,1,1-4.48-4.49A4.48,4.48,0,0,1,216.77,317.39Z"/><path class="cls-61" d="M216.06,317.44a3.79,3.79,0,1,1-3.79-3.79A3.79,3.79,0,0,1,216.06,317.44Z"/><path class="cls-62" d="M215.34,317.5a3.09,3.09,0,1,1-3.08-3.09A3.08,3.08,0,0,1,215.34,317.5Z"/><path class="cls-63" d="M214.62,317.56a2.39,2.39,0,1,1-2.38-2.39A2.38,2.38,0,0,1,214.62,317.56Z"/><path class="cls-45" d="M213.91,317.62a1.7,1.7,0,1,1-1.69-1.7A1.69,1.69,0,0,1,213.91,317.62Z"/></g><g class="cls-19"><path class="cls-58" d="M173.31,307.16a5.89,5.89,0,1,1-5.89-5.89A5.89,5.89,0,0,1,173.31,307.16Z"/><path class="cls-59" d="M172.59,307.21A5.19,5.19,0,1,1,167.4,302,5.19,5.19,0,0,1,172.59,307.21Z"/><path class="cls-60" d="M171.87,307.27a4.49,4.49,0,1,1-4.48-4.49A4.49,4.49,0,0,1,171.87,307.27Z"/><path class="cls-61" d="M171.15,307.33a3.79,3.79,0,1,1-3.78-3.79A3.79,3.79,0,0,1,171.15,307.33Z"/><path class="cls-62" d="M170.44,307.39a3.09,3.09,0,1,1-3.09-3.09A3.1,3.1,0,0,1,170.44,307.39Z"/><path class="cls-63" d="M169.72,307.45a2.39,2.39,0,1,1-2.38-2.39A2.38,2.38,0,0,1,169.72,307.45Z"/><path class="cls-45" d="M169,307.51a1.68,1.68,0,0,1-1.68,1.68,1.69,1.69,0,1,1,1.68-1.68Z"/></g><g class="cls-19"><path class="cls-58" d="M155.81,282.22a5.89,5.89,0,1,1-5.89-5.89A5.89,5.89,0,0,1,155.81,282.22Z"/><path class="cls-59" d="M155.09,282.28a5.19,5.19,0,1,1-5.18-5.19A5.19,5.19,0,0,1,155.09,282.28Z"/><path class="cls-60" d="M154.38,282.34a4.49,4.49,0,1,1-4.49-4.49A4.49,4.49,0,0,1,154.38,282.34Z"/><path class="cls-61" d="M153.66,282.39a3.79,3.79,0,1,1-3.79-3.78A3.79,3.79,0,0,1,153.66,282.39Z"/><path class="cls-62" d="M152.94,282.45a3.09,3.09,0,1,1-3.08-3.09A3.08,3.08,0,0,1,152.94,282.45Z"/><path class="cls-63" d="M152.23,282.51a2.4,2.4,0,1,1-2.39-2.39A2.39,2.39,0,0,1,152.23,282.51Z"/><path class="cls-45" d="M151.51,282.57a1.69,1.69,0,1,1-1.69-1.69A1.69,1.69,0,0,1,151.51,282.57Z"/></g><g class="cls-19"><path class="cls-58" d="M150.77,272.15a5.89,5.89,0,1,1-5.89-5.89A5.89,5.89,0,0,1,150.77,272.15Z"/><path class="cls-59" d="M150.05,272.2a5.19,5.19,0,1,1-5.18-5.19A5.18,5.18,0,0,1,150.05,272.2Z"/><path class="cls-60" d="M149.34,272.26a4.49,4.49,0,1,1-4.49-4.49A4.49,4.49,0,0,1,149.34,272.26Z"/><path class="cls-61" d="M148.62,272.32a3.79,3.79,0,1,1-3.79-3.79A3.79,3.79,0,0,1,148.62,272.32Z"/><path class="cls-62" d="M147.9,272.38a3.09,3.09,0,1,1-3.08-3.09A3.09,3.09,0,0,1,147.9,272.38Z"/><path class="cls-63" d="M147.19,272.44a2.4,2.4,0,1,1-2.39-2.4A2.39,2.39,0,0,1,147.19,272.44Z"/><path class="cls-45" d="M146.47,272.49a1.69,1.69,0,1,1-1.68-1.69A1.69,1.69,0,0,1,146.47,272.49Z"/></g><path class="cls-45" d="M355.51,278.66a1.29,1.29,0,0,1,0,2.44,4.74,4.74,0,0,1-4,.12l-.22-.12a2,2,0,0,1-.6-.5c-.52-.63-.32-1.42.58-1.94A4.62,4.62,0,0,1,355.51,278.66Z"/><path class="cls-45" d="M351.31,281.1l.22.12-13.85,8-.08-.77-.5,0,13.61-7.91A2,2,0,0,0,351.31,281.1Z"/><path class="cls-45" d="M360.55,268.58a1.29,1.29,0,0,1,0,2.44,4.71,4.71,0,0,1-3.69.24,3.56,3.56,0,0,1-.52-.24,2,2,0,0,1-.42-.3c-.73-.67-.6-1.56.4-2.14A4.62,4.62,0,0,1,360.55,268.58Z"/><polygon class="cls-45" points="337.66 289.27 337.65 289.27 337.68 289.26 337.66 289.27"/><polygon class="cls-45" points="334.07 283.42 333.29 283.88 333.76 284.15 301.32 265.42 302.11 264.97 334.07 283.42"/><path class="cls-45" d="M356.87,271.26l-22.64,13.16-.47-.27-.47-.27.78-.46,21.86-12.7a2,2,0,0,0,.42.3A3.56,3.56,0,0,0,356.87,271.26Z"/><polygon class="cls-45" points="337.6 288.49 337.68 289.26 337.65 289.27 324.2 289.7 324.15 289.71 324.07 288.94 324.37 288.93 337.1 288.51 337.6 288.49"/><polygon class="cls-45" points="324.37 288.93 324.07 288.94 324.15 289.71 291.74 270.99 292.52 270.54 324.37 288.93"/><polygon class="cls-45" points="308.09 299.04 308.11 299.06 308.08 299.07 308.09 299.04"/><polygon class="cls-45" points="308.09 299.04 308.08 299.07 307.37 306.86 307.37 306.88 306.04 306.84 306.06 306.55 306.74 299.17 306.76 299 308.09 299.04"/><polygon class="cls-45" points="274.89 280.78 275.68 280.33 308.09 299.04 306.76 299 306.74 299.17 274.89 280.78"/><path class="cls-45" d="M334.23,303.61a2.86,2.86,0,0,0-.43.21,3.27,3.27,0,0,0-.36.25L284,275.51l.79-.46Z"/><polygon class="cls-45" points="298.05 304.36 297.27 304.81 265.3 286.36 266.08 285.9 298.05 304.36"/><path class="cls-45" d="M338,303.82a1.3,1.3,0,0,1,0,2.45,4.63,4.63,0,0,1-4.21,0c-1-.59-1.17-1.52-.38-2.19a3.27,3.27,0,0,1,.36-.25,2.86,2.86,0,0,1,.43-.21A4.79,4.79,0,0,1,338,303.82Z"/><polygon class="cls-45" points="307.37 306.86 307.38 306.87 307.37 306.88 307.37 306.86"/><path class="cls-45" d="M306.07,306.55l0,.29,1.33,0-13.84,8a2.83,2.83,0,0,0-.42-.3,2.75,2.75,0,0,0-.52-.24Z"/><path class="cls-45" d="M293.11,314.62a2.83,2.83,0,0,1,.42.3c.73.67.6,1.56-.4,2.14a4.62,4.62,0,0,1-4.22,0,1.29,1.29,0,0,1,0-2.44,4.74,4.74,0,0,1,3.7-.24A2.75,2.75,0,0,1,293.11,314.62Z"/><path class="cls-45" d="M299,304.9l-22.64,13.16a2.31,2.31,0,0,0-.41-.31,4.27,4.27,0,0,0-.53-.24l21.86-12.7.78-.45Z"/><path class="cls-45" d="M275.94,317.75a2.31,2.31,0,0,1,.41.31c.73.66.6,1.55-.4,2.14a4.68,4.68,0,0,1-4.22,0,1.29,1.29,0,0,1,0-2.45,4.71,4.71,0,0,1,3.69-.24A4.27,4.27,0,0,1,275.94,317.75Z"/><g class="cls-19"><path class="cls-58" d="M268,318.06a5.89,5.89,0,1,0,5.88-5.89A5.88,5.88,0,0,0,268,318.06Z"/><path class="cls-59" d="M268.66,318.12a5.19,5.19,0,1,0,5.19-5.19A5.18,5.18,0,0,0,268.66,318.12Z"/><path class="cls-60" d="M269.38,318.17a4.49,4.49,0,1,0,4.48-4.49A4.49,4.49,0,0,0,269.38,318.17Z"/><path class="cls-61" d="M270.1,318.23a3.79,3.79,0,1,0,3.78-3.79A3.79,3.79,0,0,0,270.1,318.23Z"/><path class="cls-62" d="M270.81,318.29a3.09,3.09,0,1,0,3.09-3.09A3.09,3.09,0,0,0,270.81,318.29Z"/><path class="cls-63" d="M271.53,318.35a2.39,2.39,0,1,0,2.38-2.39A2.38,2.38,0,0,0,271.53,318.35Z"/><path class="cls-45" d="M272.25,318.4a1.68,1.68,0,0,0,1.68,1.69,1.69,1.69,0,1,0-1.68-1.69Z"/></g><g class="cls-19"><path class="cls-58" d="M285.13,314.92A5.89,5.89,0,1,0,291,309,5.89,5.89,0,0,0,285.13,314.92Z"/><path class="cls-59" d="M285.84,315a5.19,5.19,0,1,0,5.19-5.19A5.19,5.19,0,0,0,285.84,315Z"/><path class="cls-60" d="M286.56,315a4.49,4.49,0,1,0,4.48-4.49A4.49,4.49,0,0,0,286.56,315Z"/><path class="cls-61" d="M287.28,315.1a3.79,3.79,0,1,0,3.78-3.79A3.79,3.79,0,0,0,287.28,315.1Z"/><path class="cls-62" d="M288,315.16a3.09,3.09,0,1,0,3.09-3.09A3.08,3.08,0,0,0,288,315.16Z"/><path class="cls-63" d="M288.71,315.22a2.39,2.39,0,1,0,2.38-2.4A2.39,2.39,0,0,0,288.71,315.22Z"/><path class="cls-45" d="M289.43,315.27a1.69,1.69,0,0,0,1.68,1.69,1.69,1.69,0,1,0,0-3.38A1.69,1.69,0,0,0,289.43,315.27Z"/></g><g class="cls-19"><path class="cls-58" d="M330,304.81a5.89,5.89,0,1,0,5.88-5.89A5.89,5.89,0,0,0,330,304.81Z"/><path class="cls-59" d="M330.75,304.87a5.19,5.19,0,1,0,5.18-5.19A5.18,5.18,0,0,0,330.75,304.87Z"/><path class="cls-60" d="M331.46,304.93a4.49,4.49,0,1,0,4.48-4.49A4.49,4.49,0,0,0,331.46,304.93Z"/><path class="cls-61" d="M332.18,305A3.79,3.79,0,1,0,336,301.2,3.78,3.78,0,0,0,332.18,305Z"/><path class="cls-62" d="M332.9,305A3.09,3.09,0,1,0,336,302,3.08,3.08,0,0,0,332.9,305Z"/><path class="cls-63" d="M333.61,305.1a2.39,2.39,0,1,0,2.39-2.39A2.39,2.39,0,0,0,333.61,305.1Z"/><path class="cls-45" d="M334.33,305.16a1.69,1.69,0,1,0,1.68-1.69A1.69,1.69,0,0,0,334.33,305.16Z"/></g><g class="cls-19"><path class="cls-58" d="M347.52,279.87a5.89,5.89,0,1,0,5.89-5.88A5.89,5.89,0,0,0,347.52,279.87Z"/><path class="cls-59" d="M348.24,279.93a5.19,5.19,0,1,0,5.18-5.18A5.18,5.18,0,0,0,348.24,279.93Z"/><path class="cls-60" d="M349,280a4.49,4.49,0,1,0,4.49-4.49A4.49,4.49,0,0,0,349,280Z"/><path class="cls-61" d="M349.67,280.05a3.79,3.79,0,1,0,3.79-3.79A3.79,3.79,0,0,0,349.67,280.05Z"/><path class="cls-62" d="M350.39,280.11a3.09,3.09,0,1,0,3.08-3.09A3.09,3.09,0,0,0,350.39,280.11Z"/><path class="cls-63" d="M351.11,280.17a2.39,2.39,0,1,0,2.38-2.39A2.38,2.38,0,0,0,351.11,280.17Z"/><path class="cls-45" d="M351.82,280.23a1.7,1.7,0,0,0,3.39,0,1.7,1.7,0,1,0-3.39,0Z"/></g><g class="cls-19"><path class="cls-58" d="M352.56,269.8a5.89,5.89,0,1,0,5.89-5.89A5.89,5.89,0,0,0,352.56,269.8Z"/><path class="cls-59" d="M353.28,269.86a5.19,5.19,0,1,0,5.19-5.19A5.18,5.18,0,0,0,353.28,269.86Z"/><path class="cls-60" d="M354,269.92a4.49,4.49,0,1,0,4.48-4.49A4.48,4.48,0,0,0,354,269.92Z"/><path class="cls-61" d="M354.71,270a3.79,3.79,0,1,0,3.79-3.79A3.79,3.79,0,0,0,354.71,270Z"/><path class="cls-62" d="M355.43,270a3.09,3.09,0,1,0,3.09-3.09A3.09,3.09,0,0,0,355.43,270Z"/><path class="cls-63" d="M356.15,270.09a2.39,2.39,0,1,0,2.38-2.39A2.39,2.39,0,0,0,356.15,270.09Z"/><path class="cls-45" d="M356.86,270.15a1.7,1.7,0,1,0,1.69-1.69A1.69,1.69,0,0,0,356.86,270.15Z"/></g><g class="cls-19"><path class="cls-64" d="M280.08,223.1c15.06,8.69,15.14,22.8.17,31.5s-39.32,8.69-54.38,0-15.15-22.81-.18-31.5S265,214.4,280.08,223.1Z"/><g class="cls-9"><path class="cls-65" d="M284.49,213c17.27,10,17.36,26.14.2,36.11s-45.08,10-62.35,0S205,223,222.14,213,267.22,203,284.49,213Z"/></g><g class="cls-66"><path class="cls-67" d="M288.9,202.94c19.48,11.24,19.58,29.48.23,40.72s-50.84,11.25-70.32,0-19.58-29.48-.23-40.72S269.42,191.69,288.9,202.94Z"/></g><g class="cls-3"><path class="cls-68" d="M293.31,192.85c21.68,12.53,21.8,32.83.25,45.35s-56.59,12.52-78.28,0-21.8-32.82-.25-45.35S271.62,180.33,293.31,192.85Z"/></g><g class="cls-69"><path class="cls-70" d="M297.72,182.77c23.89,13.8,24,36.16.28,50s-62.35,13.79-86.24,0-24-36.16-.29-50S273.83,169,297.72,182.77Z"/></g><g class="cls-71"><path class="cls-72" d="M302.13,172.69c26.1,15.07,26.24,39.5.31,54.57s-68.11,15.07-94.21,0-26.24-39.5-.31-54.57S276,157.62,302.13,172.69Z"/></g><g class="cls-4"><path class="cls-44" d="M306.54,162.61c28.3,16.35,28.46,42.84.33,59.18s-73.87,16.35-102.17,0-28.46-42.83-.34-59.18S278.23,146.27,306.54,162.61Z"/></g></g><path class="cls-73" d="M169.64,239.23a2.33,2.33,0,0,1,0,3.77c-1.28,1-2.25,1.64-3.55.59s-2.92-4.38-1.64-5.41S168.35,238.19,169.64,239.23Z"/><g class="cls-9"><path class="cls-74" d="M169.64,233.83a2.33,2.33,0,0,1,0,3.77c-1.28,1-2.44,1.54-3.74.49s-2.64-4.1-1.37-5.14S168.35,232.8,169.64,233.83Z"/></g><g class="cls-66"><path class="cls-75" d="M169.64,228.43a2.33,2.33,0,0,1,0,3.77c-1.28,1-2.62,1.44-3.92.4s-2.38-3.83-1.1-4.87S168.35,227.4,169.64,228.43Z"/></g><g class="cls-3"><path class="cls-76" d="M169.64,223a2.33,2.33,0,0,1,0,3.77c-1.28,1-2.81,1.35-4.11.3s-2.1-3.56-.82-4.59S168.35,222,169.64,223Z"/></g><g class="cls-69"><path class="cls-77" d="M169.64,217.63a2.33,2.33,0,0,1,0,3.77,3.33,3.33,0,0,1-4.29.2c-1.29-1-1.84-3.28-.56-4.32S168.35,216.6,169.64,217.63Z"/></g><g class="cls-71"><path class="cls-78" d="M169.64,212.23a2.33,2.33,0,0,1,0,3.77,3.59,3.59,0,0,1-4.48.1,2.61,2.61,0,0,1-.28-4A4,4,0,0,1,169.64,212.23Z"/></g><g class="cls-4"><path class="cls-79" d="M169.64,206.84a2.32,2.32,0,0,1,0,3.76,3.86,3.86,0,0,1-4.66,0,2.32,2.32,0,0,1,0-3.76A3.89,3.89,0,0,1,169.64,206.84Z"/></g><path class="cls-45" d="M167.32,185.65c-1.94-1.12-3.53-.22-3.54,2a7.76,7.76,0,0,0,3.52,6.09c1.95,1.13,3.53.22,3.54-2A7.72,7.72,0,0,0,167.32,185.65Z"/><path class="cls-45" d="M167.32,237.19c-1.94-1.13-3.53-.23-3.54,2a7.79,7.79,0,0,0,3.52,6.1c1.95,1.12,3.53.22,3.54-2A7.72,7.72,0,0,0,167.32,237.19Z"/><path class="cls-5" d="M167,239V192h0a4.25,4.25,0,0,1-1.94-3.37c0-1.24.87-1.74,1.95-1.12a4.31,4.31,0,0,1,2,3.37c0,1.13-.73,1.64-1.68,1.25v47.11a4.34,4.34,0,0,1,1.68,3.18c0,1.24-.88,1.74-2,1.12a4.28,4.28,0,0,1-1.94-3.37C165.09,238.88,166,238.38,167,239Z"/><path class="cls-73" d="M135.88,130.43a2.33,2.33,0,0,1,0,3.77c-1.28,1-2.25,1.64-3.55.59s-2.92-4.38-1.64-5.42S134.58,129.39,135.88,130.43Z"/><g class="cls-9"><path class="cls-74" d="M135.88,125a2.33,2.33,0,0,1,0,3.77c-1.28,1-2.44,1.54-3.73.49s-2.65-4.1-1.38-5.14S134.58,124,135.88,125Z"/></g><g class="cls-66"><path class="cls-75" d="M135.88,119.63a2.33,2.33,0,0,1,0,3.77c-1.28,1-2.62,1.44-3.92.39s-2.38-3.82-1.1-4.86S134.58,118.6,135.88,119.63Z"/></g><g class="cls-3"><path class="cls-76" d="M135.88,114.23a2.33,2.33,0,0,1,0,3.77c-1.28,1-2.81,1.34-4.11.3s-2.1-3.56-.83-4.6S134.58,113.2,135.88,114.23Z"/></g><g class="cls-69"><path class="cls-77" d="M135.88,108.83a2.33,2.33,0,0,1,0,3.77,3.33,3.33,0,0,1-4.29.2c-1.29-1-1.84-3.28-.56-4.32S134.58,107.8,135.88,108.83Z"/></g><g class="cls-71"><path class="cls-78" d="M135.88,103.43a2.33,2.33,0,0,1,0,3.77,3.59,3.59,0,0,1-4.48.1,2.61,2.61,0,0,1-.28-4A4,4,0,0,1,135.88,103.43Z"/></g><g class="cls-4"><path class="cls-79" d="M135.88,98a2.33,2.33,0,0,1,0,3.77,3.87,3.87,0,0,1-4.67,0,2.33,2.33,0,0,1,0-3.77A3.92,3.92,0,0,1,135.88,98Z"/></g><path class="cls-45" d="M133.56,76.85c-1.95-1.12-3.53-.22-3.54,2A7.76,7.76,0,0,0,133.54,85c2,1.13,3.54.22,3.54-2A7.74,7.74,0,0,0,133.56,76.85Z"/><path class="cls-45" d="M133.56,128.39c-1.95-1.13-3.53-.23-3.54,2a7.79,7.79,0,0,0,3.52,6.1c2,1.12,3.54.22,3.54-2A7.73,7.73,0,0,0,133.56,128.39Z"/><path class="cls-5" d="M133.28,130.2v-47h0a4.29,4.29,0,0,1-2-3.37c0-1.24.89-1.74,2-1.12A4.29,4.29,0,0,1,135.23,82c0,1.13-.73,1.64-1.68,1.25v47.11a4.32,4.32,0,0,1,1.68,3.18c0,1.24-.88,1.74-2,1.12a4.32,4.32,0,0,1-2-3.37C131.33,130.08,132.2,129.58,133.28,130.2Z"/><g class="cls-3"><path class="cls-5" d="M166.53,152c4.78,2.76,8.62,9.42,8.61,14.9s-3.89,7.69-8.67,4.92-8.6-9.4-8.59-14.88S161.77,149.23,166.53,152Z"/></g><g class="cls-3"><path class="cls-5" d="M166.52,155a14.53,14.53,0,0,1,6.61,11.44c0,4.2-3,5.89-6.65,3.77a14.52,14.52,0,0,1-6.59-11.42C159.9,154.59,162.87,152.9,166.52,155Z"/></g><g class="cls-3"><path class="cls-5" d="M166.52,157.45a9.9,9.9,0,0,1,4.49,7.77c0,2.86-2,4-4.52,2.57A9.89,9.89,0,0,1,162,160C162,157.17,164,156,166.52,157.45Z"/></g><g class="cls-3"><path class="cls-5" d="M151,130.09a15.76,15.76,0,0,1,7.14,12.38c0,4.54-3.23,6.37-7.19,4.08a15.67,15.67,0,0,1-7.13-12.35C143.81,129.64,147,127.81,151,130.09Z"/></g><g class="cls-3"><path class="cls-5" d="M151,132.62a12,12,0,0,1,5.48,9.49c0,3.48-2.47,4.88-5.51,3.13a12,12,0,0,1-5.48-9.48C145.47,132.27,147.94,130.86,151,132.62Z"/></g><g class="cls-3"><path class="cls-5" d="M151,134.64a8.19,8.19,0,0,1,3.72,6.45c0,2.37-1.68,3.32-3.75,2.13a8.21,8.21,0,0,1-3.72-6.44C147.23,134.4,148.9,133.45,151,134.64Z"/></g><g class="cls-19"><path class="cls-58" d="M179.93,161.89a14.65,14.65,0,1,1-14.65-14.64A14.64,14.64,0,0,1,179.93,161.89Z"/><path class="cls-59" d="M178.15,162a12.91,12.91,0,1,1-12.91-12.91A12.92,12.92,0,0,1,178.15,162Z"/><path class="cls-60" d="M176.36,162.18A11.17,11.17,0,1,1,165.2,151,11.16,11.16,0,0,1,176.36,162.18Z"/><path class="cls-61" d="M174.58,162.33a9.43,9.43,0,1,1-9.42-9.43A9.43,9.43,0,0,1,174.58,162.33Z"/><path class="cls-62" d="M172.8,162.48a7.7,7.7,0,1,1-7.68-7.69A7.68,7.68,0,0,1,172.8,162.48Z"/><path class="cls-63" d="M171,162.62a6,6,0,1,1-5.94-6A5.94,5.94,0,0,1,171,162.62Z"/><path class="cls-45" d="M169.23,162.77a4.22,4.22,0,1,1-4.2-4.22A4.21,4.21,0,0,1,169.23,162.77Z"/></g><g class="cls-19"><path class="cls-58" d="M165.28,138.76a14.65,14.65,0,1,1-14.65-14.65A14.64,14.64,0,0,1,165.28,138.76Z"/><path class="cls-59" d="M163.5,138.91A12.91,12.91,0,1,1,150.59,126,12.91,12.91,0,0,1,163.5,138.91Z"/><path class="cls-60" d="M161.72,139.05a11.18,11.18,0,1,1-11.17-11.17A11.17,11.17,0,0,1,161.72,139.05Z"/><path class="cls-61" d="M159.93,139.2a9.43,9.43,0,1,1-9.42-9.43A9.42,9.42,0,0,1,159.93,139.2Z"/><path class="cls-62" d="M158.15,139.34a7.7,7.7,0,1,1-7.68-7.69A7.69,7.69,0,0,1,158.15,139.34Z"/><path class="cls-63" d="M156.36,139.49a6,6,0,1,1-5.93-6A5.94,5.94,0,0,1,156.36,139.49Z"/><path class="cls-45" d="M154.58,139.63a4.22,4.22,0,1,1-4.2-4.21A4.21,4.21,0,0,1,154.58,139.63Z"/></g><path class="cls-80" d="M144.33,147.36s1.4-6.44,3.5-7.38,2.27-1.95,3-1.57c2.54,1.26.37,7-4.62,10.37C146.24,148.78,143.94,148.9,144.33,147.36Z"/><path class="cls-5" d="M138.36,161.12c.7-.74-.65-1.34-.65-1.34.32-1.71.73-4.12.06-4.32l-16.8.33c-3.07-.59-6-.42-7.69.88h0c-2.1,1.69-1.52,5.36,2.41,6C115.69,162.71,136.39,163.22,138.36,161.12Z"/><path class="cls-5" d="M136.6,161.13c-2.34-.77-2.67-1.12-1.45-3.8l9.57-12.9a8.21,8.21,0,0,0,1.67,2.38c1.79,1.22,2.42.72,2.42.72S141.89,162.86,136.6,161.13Z"/><path class="cls-80" d="M158.15,166.05s3.37-5.66,5.66-5.88,2.77-1.12,3.38-.52c2,2-1.87,6.73-7.69,8.36C159.5,168,157.28,167.38,158.15,166.05Z"/><g class="cls-41"><path class="cls-42" d="M139.41,247.32c8.74,5,8.79,13.21.11,18.26s-22.79,5-31.53,0-8.78-13.22-.1-18.26S130.68,242.27,139.41,247.32Z"/></g><path class="cls-81" d="M117.16,191.2s-5.34,4.29-2.38,14.3,3.72,9.61,2.82,12.76c-.67,2.35-3.1,7.21-2.87,11.41.2,3.32.74,5.25,1.47,10.61.94,6.81.74,5.37-.16,8.22-1,3.24,4.77,6.07,6.61,5.79s-2.23-1.74-1.94-7.39,3.39-22,5-25.59,4.23-22.16,3.79-27.84C129.46,193.47,123.68,195.73,117.16,191.2Z"/><path class="cls-82" d="M122.67,256.38l0,0Z"/><polygon class="cls-83" points="117.34 251.09 116.52 256.88 116.16 257.71 116.66 251.1 117.34 251.09"/><path class="cls-82" d="M116.45,247.29c.78,0,1.46,1.06,2.73,3.61.52,1,2.11,3.72,3.62,2.77.17-.11-.32-.78-.32-.78s2.33-.49,2.57.21-1.52,3.87-3.91,3.54-2.85-2.95-3.36-3.93c-1-2-.77,2.12-2.23-1.88A3.33,3.33,0,0,1,116.45,247.29Z"/><path class="cls-83" d="M121.14,256.64a2.52,2.52,0,0,0,1.5-.25c-.52.3-2-.72-2.93-2.54a7,7,0,0,0-3-2.75l-.42.43c.32,1,.34-.75,1.54,1.18C118.38,253.64,118.76,256.32,121.14,256.64Z"/><polygon class="cls-82" points="115.59 249.88 116.21 258.33 117.56 257.67 117.76 248.99 115.59 249.88"/><path class="cls-83" d="M116.21,258.33l-.92-.67s-.51-7.39.26-9c.68-1.43.9-1.33.9-1.33Z"/><path class="cls-84" d="M122.46,194.59s-4.59,5.9-1.12,15.75,4.21,9.41,3.47,12.59c-.55,2.39-2.74,7.37-2.28,11.56.36,3.3,1,5.19,2,10.51,1.28,6.75,1,5.32.25,8.23-.86,3.27,5.08,5.8,6.9,5.44s-2.32-1.63-2.32-7.28,2.27-22.17,3.65-25.81,1.76-26,1-31.62C134.05,194,129.21,198.79,122.46,194.59Z"/><path class="cls-82" d="M131.81,260.75l.05,0Z"/><polygon class="cls-83" points="126.23 255.73 125.7 261.57 125.38 262.41 125.54 255.78 126.23 255.73"/><path class="cls-82" d="M125.14,252c.78,0,1.51,1,2.91,3.45.58,1,2.3,3.62,3.75,2.6.17-.13-.36-.77-.36-.77s2.31-.61,2.58.07-1.32,3.95-3.71,3.74-3-2.8-3.56-3.76c-1.13-1.95-.66,2.16-2.33-1.76A3.3,3.3,0,0,1,125.14,252Z"/><path class="cls-83" d="M130.31,261.09a2.58,2.58,0,0,0,1.48-.32c-.52.32-2-.62-3.06-2.39a7.12,7.12,0,0,0-3.19-2.6l-.4.46c.38.95.3-.76,1.61,1.09C127.39,258.24,127.91,260.89,130.31,261.09Z"/><polygon class="cls-82" points="124.42 254.61 125.46 263.03 126.77 262.3 126.54 253.63 124.42 254.61"/><path class="cls-83" d="M125.46,263l-.95-.62s-.89-7.35-.19-9c.6-1.46.82-1.37.82-1.37Z"/><path class="cls-5" d="M115.08,188.49s12.15,9.25,19.33,1.65a133.34,133.34,0,0,1,1.65,26.08c-.46,11.76-1.64,13.86-1.64,13.86s-15,2.74-20.71-5.06c0,0,2.92-6.16,1.19-11.36S108.67,198.81,115.08,188.49Z"/><path class="cls-5" d="M134.42,230.08s1.18-2.1,1.64-13.86a133.34,133.34,0,0,0-1.65-26.08c-7.18,7.6-19.33-1.65-19.33-1.65-.58.46-1.09,2.34-1.53,2.9,1,2.08,5.44,2.57,8.15,3.48,4.53,1.52,9.22,8.22,8.72,15.43-.36,5.19-1.63,15.1-2.32,20.24A36.77,36.77,0,0,0,134.42,230.08Z"/><path class="cls-5" d="M129.28,160.35s7.37,3.38,6.81,7.33c-.73,5.19-4.66,14.82-1.68,22.46,0,0-2.67,4.05-7.34,3.82-5.5-.27-12-5.47-12-5.47s2.55-5.46-1.87-15.54c-1.89-4.28-4.17-16.71,1.87-17.4C115.08,155.55,116.76,153.69,129.28,160.35Z"/><path class="cls-84" d="M129.43,155.61l-.56,5.71s-4.89,2.67-8.35-1.55l.56-5.73A19.79,19.79,0,0,0,129.43,155.61Z"/><path class="cls-45" d="M126.41,138.91s4.35,0,6,3.19,3.05,8,1,10.71c-2.17,2.89-1,4.63,0,5.56s-11.32,5.16-16.61-2.75C116.78,155.62,113.28,136,126.41,138.91Z"/><path class="cls-5" d="M148.55,176.4c.91-.44,2-2.45,2-2.45a2,2,0,0,0-.56-2.85l-12.24-6.32c-2.41-1.56-5-2.38-7-1.75h0c-2.49.84-3.47,4.36-.35,6.29C130.42,169.32,146,177.65,148.55,176.4Z"/><path class="cls-5" d="M147.45,176.08c-1.69-1.21-1.42-3.87.07-5.34l11.4-6.22a6.63,6.63,0,0,0,.83,2.12c1.16,1.36,1.77,1.2,1.77,1.2S151.27,178.83,147.45,176.08Z"/><path class="cls-58" d="M100.66,244c-11.76,6.82-11.71,17.72-.13,24.46s30.46,6.83,42.23,0,11.73-17.71.14-24.46S112.33,237.22,100.66,244Z"/></g></g></svg>