<svg id="Layer_1" data-name="Layer 1" xmlns="http://www.w3.org/2000/svg" xmlns:xlink="http://www.w3.org/1999/xlink" viewBox="0 0 517.09 341.64"><defs><style>.cls-1{fill:#cfd2ff;}.cls-2{fill:#12348e;}.cls-3{fill:#a1a7ff;}.cls-4{fill:#3333c6;}.cls-5{fill:#000b4f;}.cls-6{fill:#bec3f8;}.cls-7{fill:url(#linear-gradient);}.cls-8{fill:#dae0ff;}.cls-9{fill:url(#linear-gradient-2);}.cls-10{fill:url(#linear-gradient-3);}.cls-11{fill:url(#linear-gradient-4);}.cls-12{fill:url(#linear-gradient-5);}.cls-13{fill:#fa3e6a;}.cls-14{fill:url(#linear-gradient-6);}.cls-15{fill:url(#linear-gradient-7);}.cls-16{fill:url(#linear-gradient-8);}.cls-17{fill:url(#linear-gradient-9);}.cls-18{fill:url(#linear-gradient-10);}.cls-19{fill:url(#linear-gradient-11);}.cls-20{fill:url(#linear-gradient-12);}.cls-21{fill:url(#linear-gradient-13);}.cls-22{fill:url(#linear-gradient-14);}.cls-23{fill:url(#linear-gradient-15);}.cls-24{fill:url(#linear-gradient-16);}.cls-25{fill:url(#linear-gradient-17);}.cls-26{fill:url(#linear-gradient-18);}.cls-27{fill:url(#linear-gradient-19);}.cls-28{fill:url(#linear-gradient-20);}.cls-29{fill:url(#linear-gradient-21);}.cls-30{fill:url(#linear-gradient-22);}.cls-31{fill:url(#linear-gradient-23);}.cls-32{fill:url(#linear-gradient-24);}.cls-33{fill:#000c4f;}.cls-34{fill:url(#linear-gradient-25);}.cls-35{fill:url(#linear-gradient-26);}.cls-36{fill:url(#linear-gradient-27);}.cls-37{fill:url(#linear-gradient-28);}.cls-38{fill:url(#linear-gradient-29);}.cls-39{fill:url(#linear-gradient-30);}.cls-40{fill:url(#linear-gradient-31);}.cls-41{fill:#ffa087;}.cls-42{fill:#1a1252;}.cls-43{fill:#f5856b;}.cls-44{fill:#b36506;}.cls-45{fill:#fff5e3;}.cls-46{fill:#ff8f00;}.cls-47{fill:#07023b;}.cls-48{fill:#322976;}.cls-49{fill:#d9f2ff;}.cls-50{fill:#3c3b8b;}.cls-51{fill:url(#linear-gradient-32);}.cls-52{fill:url(#linear-gradient-33);}.cls-53{fill:url(#linear-gradient-34);}.cls-54{fill:url(#linear-gradient-35);}.cls-55{fill:url(#linear-gradient-36);}.cls-56{fill:url(#linear-gradient-37);}.cls-57{fill:url(#linear-gradient-38);}.cls-58{fill:url(#linear-gradient-39);}.cls-59{fill:url(#linear-gradient-40);}.cls-60{fill:#4d4df5;}.cls-61{fill:#5b64ff;}</style><linearGradient id="linear-gradient" x1="180.29" y1="108.52" x2="503.8" y2="108.52" gradientUnits="userSpaceOnUse"><stop offset="0" stop-color="#c2ceff"/><stop offset="1" stop-color="#95aaff"/></linearGradient><linearGradient id="linear-gradient-2" x1="195.35" y1="147.6" x2="234.12" y2="147.6" gradientTransform="translate(67.14 362.33) rotate(-90)" xlink:href="#linear-gradient"/><linearGradient id="linear-gradient-3" x1="191.73" y1="174.58" x2="221.19" y2="174.58" xlink:href="#linear-gradient"/><linearGradient id="linear-gradient-4" x1="191.73" y1="183.71" x2="237.74" y2="183.71" xlink:href="#linear-gradient"/><linearGradient id="linear-gradient-5" x1="273.72" y1="144.65" x2="279.58" y2="144.65" xlink:href="#linear-gradient"/><linearGradient id="linear-gradient-6" x1="347.54" y1="132.26" x2="370.93" y2="132.26" xlink:href="#linear-gradient"/><linearGradient id="linear-gradient-7" x1="341.48" y1="132.26" x2="345.03" y2="132.26" xlink:href="#linear-gradient"/><linearGradient id="linear-gradient-8" x1="347.54" y1="138.07" x2="364.62" y2="138.07" xlink:href="#linear-gradient"/><linearGradient id="linear-gradient-9" x1="341.48" y1="138.07" x2="345.03" y2="138.07" xlink:href="#linear-gradient"/><linearGradient id="linear-gradient-10" x1="347.54" y1="143.89" x2="377.12" y2="143.89" xlink:href="#linear-gradient"/><linearGradient id="linear-gradient-11" x1="341.48" y1="143.89" x2="345.03" y2="143.89" xlink:href="#linear-gradient"/><linearGradient id="linear-gradient-12" x1="347.54" y1="149.7" x2="373.23" y2="149.7" xlink:href="#linear-gradient"/><linearGradient id="linear-gradient-13" x1="341.48" y1="149.7" x2="345.03" y2="149.7" xlink:href="#linear-gradient"/><linearGradient id="linear-gradient-14" x1="347.54" y1="155.52" x2="369.61" y2="155.52" xlink:href="#linear-gradient"/><linearGradient id="linear-gradient-15" x1="341.48" y1="155.52" x2="345.03" y2="155.52" xlink:href="#linear-gradient"/><linearGradient id="linear-gradient-16" x1="286.37" y1="224.99" x2="324.63" y2="224.99" xlink:href="#linear-gradient"/><linearGradient id="linear-gradient-17" x1="286.37" y1="218.42" x2="324.63" y2="218.42" xlink:href="#linear-gradient"/><linearGradient id="linear-gradient-18" x1="286.37" y1="231.34" x2="324.63" y2="231.34" xlink:href="#linear-gradient"/><linearGradient id="linear-gradient-19" x1="286.37" y1="237.69" x2="306.61" y2="237.69" xlink:href="#linear-gradient"/><linearGradient id="linear-gradient-20" x1="261.99" y1="234.75" x2="279.71" y2="234.75" xlink:href="#linear-gradient"/><linearGradient id="linear-gradient-21" x1="267.4" y1="226.48" x2="280.79" y2="226.48" xlink:href="#linear-gradient"/><linearGradient id="linear-gradient-22" x1="351.73" y1="224.99" x2="373.92" y2="224.99" xlink:href="#linear-gradient"/><linearGradient id="linear-gradient-23" x1="351.73" y1="218.42" x2="378.96" y2="218.42" xlink:href="#linear-gradient"/><linearGradient id="linear-gradient-24" x1="336.99" y1="221.71" x2="347.1" y2="221.71" xlink:href="#linear-gradient"/><linearGradient id="linear-gradient-25" x1="351.73" y1="237.91" x2="362.83" y2="237.91" xlink:href="#linear-gradient"/><linearGradient id="linear-gradient-26" x1="351.73" y1="231.34" x2="378.96" y2="231.34" xlink:href="#linear-gradient"/><linearGradient id="linear-gradient-27" x1="336.99" y1="234.63" x2="347.1" y2="234.63" xlink:href="#linear-gradient"/><linearGradient id="linear-gradient-28" x1="399.49" y1="144.2" x2="434.04" y2="144.2" gradientTransform="translate(272.57 560.97) rotate(-90)" xlink:href="#linear-gradient"/><linearGradient id="linear-gradient-29" x1="456.49" y1="144.2" x2="491.04" y2="144.2" gradientTransform="translate(329.56 617.97) rotate(-90)" xlink:href="#linear-gradient"/><linearGradient id="linear-gradient-30" x1="399.49" y1="187.55" x2="434.04" y2="187.55" gradientTransform="translate(229.22 604.32) rotate(-90)" xlink:href="#linear-gradient"/><linearGradient id="linear-gradient-31" x1="456.49" y1="187.55" x2="491.04" y2="187.55" gradientTransform="translate(286.21 661.32) rotate(-90)" xlink:href="#linear-gradient"/><linearGradient id="linear-gradient-32" x1="82.55" y1="201.78" x2="195.72" y2="201.78" xlink:href="#linear-gradient"/><linearGradient id="linear-gradient-33" x1="94.26" y1="252.3" x2="102.44" y2="252.3" xlink:href="#linear-gradient"/><linearGradient id="linear-gradient-34" x1="107.85" y1="248.51" x2="116.03" y2="248.51" xlink:href="#linear-gradient"/><linearGradient id="linear-gradient-35" x1="121.45" y1="243.94" x2="129.63" y2="243.94" xlink:href="#linear-gradient"/><linearGradient id="linear-gradient-36" x1="135.05" y1="246.74" x2="143.22" y2="246.74" xlink:href="#linear-gradient"/><linearGradient id="linear-gradient-37" x1="148.64" y1="242.84" x2="156.82" y2="242.84" xlink:href="#linear-gradient"/><linearGradient id="linear-gradient-38" x1="162.24" y1="249.27" x2="170.41" y2="249.27" xlink:href="#linear-gradient"/><linearGradient id="linear-gradient-39" x1="175.83" y1="245.3" x2="184.01" y2="245.3" xlink:href="#linear-gradient"/><linearGradient id="linear-gradient-40" x1="161.67" y1="332.66" x2="190.95" y2="332.66" xlink:href="#linear-gradient"/></defs><title> Groundbreaking Possibilities with AI</title><ellipse class="cls-1" cx="258.54" cy="333.57" rx="258.54" ry="8.07"/><rect class="cls-2" x="306.85" y="260.5" width="35.56" height="67.04" rx="4"/><rect class="cls-3" x="285.35" y="260.5" width="35.56" height="67.04" rx="4"/><path class="cls-4" d="M273.78,318.77H300a4.84,4.84,0,0,1,4.47,3l2.39,5.79H266.92l2.39-5.79A4.84,4.84,0,0,1,273.78,318.77Z"/><path class="cls-5" d="M296.85,318.77h23.34a4.84,4.84,0,0,1,4.47,3l2.39,5.79H290l2.39-5.79A4.84,4.84,0,0,1,296.85,318.77Z"/><rect class="cls-3" x="327.97" y="284.54" width="14.26" height="43" rx="4"/><rect class="cls-2" x="333.06" y="284.54" width="14.26" height="43" rx="4"/><rect class="cls-5" x="303.46" y="253.88" width="24.05" height="3.55"/><rect class="cls-4" x="300.88" y="256.95" width="29.21" height="3.55"/><rect class="cls-4" x="300.88" y="250.71" width="29.21" height="3.55"/><rect class="cls-2" x="358.31" y="260.5" width="35.56" height="67.04" rx="4"/><rect class="cls-3" x="336.8" y="260.5" width="35.56" height="67.04" rx="4"/><path class="cls-4" d="M325.24,318.77h26.21a4.84,4.84,0,0,1,4.47,3l2.39,5.79H318.38l2.39-5.79A4.84,4.84,0,0,1,325.24,318.77Z"/><path class="cls-5" d="M348.3,318.77h23.35a4.84,4.84,0,0,1,4.47,3l2.39,5.79H341.45l2.39-5.79A4.83,4.83,0,0,1,348.3,318.77Z"/><rect class="cls-3" x="379.43" y="284.54" width="14.26" height="43" rx="4"/><rect class="cls-2" x="384.51" y="284.54" width="14.26" height="43" rx="4"/><rect class="cls-5" x="354.92" y="253.88" width="24.05" height="3.55"/><rect class="cls-4" x="352.34" y="256.95" width="29.21" height="3.55"/><rect class="cls-4" x="352.34" y="250.71" width="29.21" height="3.55"/><path class="cls-2" d="M505,99h-6a4.84,4.84,0,0,1,4.84,4.83V245.88a4.84,4.84,0,0,1-4.84,4.83h6a4.84,4.84,0,0,0,4.84-4.83V103.81A4.84,4.84,0,0,0,505,99Z"/><path class="cls-6" d="M180.29,118.07V245.88a4.83,4.83,0,0,0,4.83,4.83H499a4.84,4.84,0,0,0,4.84-4.83V118.07Z"/><path class="cls-7" d="M503.8,103.81A4.84,4.84,0,0,0,499,99H185.12a4.83,4.83,0,0,0-4.83,4.83v14.26H503.8Z"/><path class="cls-2" d="M197.73,108.55a4.63,4.63,0,1,1-4.63-4.63A4.63,4.63,0,0,1,197.73,108.55Z"/><path class="cls-2" d="M211.46,108.55a4.64,4.64,0,1,1-4.63-4.63A4.63,4.63,0,0,1,211.46,108.55Z"/><path class="cls-2" d="M225.18,108.55a4.63,4.63,0,1,1-4.63-4.63A4.63,4.63,0,0,1,225.18,108.55Z"/><rect class="cls-3" x="449.78" y="211.44" width="47.98" height="33.22"/><rect class="cls-3" x="390.58" y="169.7" width="53.16" height="35.7"/><rect class="cls-3" x="390.58" y="211.44" width="53.16" height="33.22"/><rect class="cls-3" x="249.18" y="211.44" width="135.36" height="33.22"/><rect class="cls-8" x="249.18" y="169.7" width="135.36" height="35.7"/><rect class="cls-3" x="449.78" y="124.11" width="47.98" height="39.55"/><rect class="cls-3" x="186.33" y="124.11" width="56.81" height="120.55"/><rect class="cls-3" x="449.78" y="169.7" width="47.98" height="35.7"/><rect class="cls-3" x="390.58" y="124.11" width="53.16" height="39.55"/><rect class="cls-3" x="249.18" y="124.11" width="135.36" height="39.55"/><rect class="cls-6" x="191.73" y="129.51" width="46.01" height="36.17"/><rect class="cls-9" x="200.27" y="128.22" width="28.92" height="38.76" transform="translate(362.33 -67.14) rotate(90)"/><polygon class="cls-2" points="195.35 162.06 234.12 162.06 234.12 157.27 223.16 146.3 217.31 152.14 205.96 140.79 195.35 151.43 195.35 162.06"/><path class="cls-2" d="M224.69,139.3a3.36,3.36,0,1,1-3.36-3.37A3.36,3.36,0,0,1,224.69,139.3Z"/><rect class="cls-10" x="191.73" y="171.63" width="29.46" height="5.92"/><rect class="cls-11" x="191.73" y="180.75" width="46.01" height="5.92"/><rect class="cls-6" x="191.73" y="195.03" width="46.01" height="3.02"/><rect class="cls-6" x="191.73" y="201.48" width="46.01" height="3.02"/><rect class="cls-6" x="191.73" y="207.92" width="33.29" height="3.02"/><rect class="cls-6" x="191.73" y="217.48" width="46.01" height="3.02"/><rect class="cls-6" x="191.73" y="223.93" width="46.01" height="3.02"/><rect class="cls-6" x="191.73" y="230.37" width="46.01" height="3.02"/><rect class="cls-6" x="191.73" y="236.79" width="24.73" height="3.02"/><rect class="cls-6" x="254.16" y="129.1" width="29.58" height="29.58"/><polygon class="cls-2" points="276.56 150.35 260.56 150.35 257.33 137.42 273.34 137.42 276.56 150.35"/><polygon class="cls-12" points="279.58 138.95 276.56 150.35 273.72 138.95 279.58 138.95"/><rect class="cls-13" x="291.57" y="129.1" width="27.73" height="9.25"/><rect class="cls-13" x="291.57" y="142.43" width="38.26" height="3.55"/><rect class="cls-13" x="291.57" y="148.78" width="38.26" height="3.55"/><rect class="cls-13" x="291.57" y="155.13" width="20.24" height="3.55"/><rect class="cls-14" x="347.54" y="130.49" width="23.39" height="3.55"/><path class="cls-15" d="M343.25,130.49a1.77,1.77,0,1,0,1.78,1.77A1.77,1.77,0,0,0,343.25,130.49Z"/><rect class="cls-16" x="347.54" y="136.3" width="17.08" height="3.55"/><path class="cls-17" d="M343.25,136.3a1.78,1.78,0,1,0,1.78,1.77A1.77,1.77,0,0,0,343.25,136.3Z"/><rect class="cls-18" x="347.54" y="142.11" width="29.57" height="3.55"/><path class="cls-19" d="M343.25,142.11a1.78,1.78,0,1,0,1.78,1.78A1.78,1.78,0,0,0,343.25,142.11Z"/><rect class="cls-20" x="347.54" y="147.93" width="25.69" height="3.55"/><path class="cls-21" d="M343.25,147.93A1.77,1.77,0,1,0,345,149.7,1.77,1.77,0,0,0,343.25,147.93Z"/><rect class="cls-22" x="347.54" y="153.74" width="22.07" height="3.55"/><path class="cls-23" d="M343.25,153.74a1.78,1.78,0,1,0,1.78,1.78A1.78,1.78,0,0,0,343.25,153.74Z"/><path class="cls-2" d="M370.17,185.42c-3.82-.54-7.48-2.14-11.33-2.3-7.2-.31-13.55,4.28-19.57,8.23s-13.38,7.58-20.18,5.19c-6.11-2.15-10.27-8.78-16.71-9.56-5-.61-9.64,2.57-13.63,5.68s-8.41,6.45-13.46,6.23c-2.89-.13-5.57-1.42-8.17-2.66s-5.33-2.47-8.22-2.47a8,8,0,0,0-4.89,1.69v5.12H379.7V184.45A20.71,20.71,0,0,1,370.17,185.42Z"/><path class="cls-6" d="M267.12,190.82c2.6,1.24,5.28,2.54,8.17,2.66,5,.22,9.47-3.13,13.46-6.23s8.61-6.29,13.63-5.68c6.44.78,10.6,7.41,16.71,9.57,6.8,2.39,14.15-1.24,20.18-5.19s12.37-8.55,19.57-8.24c3.85.17,7.51,1.76,11.33,2.3a20.71,20.71,0,0,0,9.53-1v-4.51H254V190a8,8,0,0,1,4.89-1.68C261.79,188.35,264.51,189.58,267.12,190.82Z"/><path class="cls-13" d="M370.17,180c-3.82-.54-7.48-2.13-11.33-2.3-7.2-.31-13.55,4.28-19.57,8.24s-13.38,7.58-20.18,5.19c-6.11-2.16-10.27-8.79-16.71-9.57-5-.61-9.64,2.57-13.63,5.68s-8.41,6.45-13.46,6.23c-2.89-.12-5.57-1.42-8.17-2.66s-5.33-2.47-8.22-2.46A8,8,0,0,0,254,190v5.41a8,8,0,0,1,4.89-1.69c2.89,0,5.61,1.23,8.22,2.47s5.28,2.53,8.17,2.66c5,.22,9.47-3.13,13.46-6.23s8.61-6.29,13.63-5.68c6.44.78,10.6,7.41,16.71,9.56,6.8,2.39,14.15-1.23,20.18-5.19s12.37-8.54,19.57-8.23c3.85.16,7.51,1.76,11.33,2.3a20.71,20.71,0,0,0,9.53-1V179A20.71,20.71,0,0,1,370.17,180Z"/><rect class="cls-24" x="286.37" y="223.22" width="38.26" height="3.55"/><rect class="cls-25" x="286.37" y="216.65" width="38.26" height="3.55"/><rect class="cls-26" x="286.37" y="229.57" width="38.26" height="3.55"/><rect class="cls-27" x="286.37" y="235.92" width="20.24" height="3.55"/><path class="cls-2" d="M261.2,216.2a13.38,13.38,0,0,0,.79,24.1l5.41-12.24Z"/><path class="cls-13" d="M277.81,219.63a13.39,13.39,0,0,0-10.41-5,13.2,13.2,0,0,0-6.2,1.53l6.2,11.86Z"/><path class="cls-28" d="M262,240.3a13.37,13.37,0,0,0,17.72-7l-12.31-5.27Z"/><path class="cls-29" d="M277.81,219.63l-10.41,8.43,12.31,5.27a13.24,13.24,0,0,0,1.08-5.27A13.38,13.38,0,0,0,277.81,219.63Z"/><rect class="cls-30" x="351.73" y="223.22" width="22.19" height="3.55"/><rect class="cls-31" x="351.73" y="216.65" width="27.23" height="3.55"/><rect class="cls-32" x="336.99" y="216.65" width="10.12" height="10.12"/><rect class="cls-33" x="467.53" y="222.87" width="22.19" height="3.55"/><rect class="cls-33" x="467.53" y="216.3" width="27.23" height="3.55"/><rect class="cls-33" x="452.78" y="216.3" width="10.12" height="10.12"/><rect class="cls-33" x="467.53" y="237.65" width="22.19" height="3.55"/><rect class="cls-33" x="467.53" y="231.08" width="27.23" height="3.55"/><rect class="cls-33" x="452.78" y="231.08" width="10.12" height="10.12"/><rect class="cls-34" x="351.73" y="236.14" width="11.09" height="3.55"/><rect class="cls-35" x="351.73" y="229.57" width="27.23" height="3.55"/><rect class="cls-36" x="336.99" y="229.57" width="10.12" height="10.12"/><rect class="cls-6" x="396.26" y="128.08" width="41.01" height="32.24"/><rect class="cls-37" x="403.88" y="126.93" width="25.78" height="34.55" transform="translate(560.97 -272.57) rotate(90)"/><polygon class="cls-13" points="399.49 157.09 434.04 157.09 434.04 152.82 424.27 143.05 419.07 148.25 408.95 138.14 399.49 147.61 399.49 157.09"/><path class="cls-13" d="M425.64,136.8a3,3,0,1,1-3-3A3,3,0,0,1,425.64,136.8Z"/><rect class="cls-6" x="453.26" y="128.08" width="41.01" height="32.24"/><rect class="cls-38" x="460.88" y="126.93" width="25.78" height="34.55" transform="translate(617.97 -329.56) rotate(90)"/><polygon class="cls-13" points="456.49 157.09 491.04 157.09 491.04 152.82 481.27 143.05 476.07 148.25 465.95 138.14 456.49 147.61 456.49 157.09"/><circle class="cls-13" cx="479.65" cy="136.8" r="3"/><rect class="cls-6" x="396.26" y="171.43" width="41.01" height="32.24"/><rect class="cls-39" x="403.88" y="170.28" width="25.78" height="34.55" transform="translate(604.32 -229.22) rotate(90)"/><polygon class="cls-6" points="399.49 200.44 434.04 200.44 434.04 196.17 424.27 186.4 419.07 191.6 408.95 181.49 399.49 190.96 399.49 200.44"/><path class="cls-8" d="M425.64,180.15a3,3,0,1,1-3-3A3,3,0,0,1,425.64,180.15Z"/><rect class="cls-6" x="453.26" y="171.43" width="41.01" height="32.24"/><rect class="cls-40" x="460.88" y="170.28" width="25.78" height="34.55" transform="translate(661.32 -286.21) rotate(90)"/><polygon class="cls-13" points="456.49 200.44 491.04 200.44 491.04 196.17 481.27 186.4 476.07 191.6 465.95 181.49 456.49 190.96 456.49 200.44"/><path class="cls-13" d="M482.64,180.15a3,3,0,1,1-3-3A3,3,0,0,1,482.64,180.15Z"/><path class="cls-41" d="M409.76,147.36c-2,0-4,.08-6,.13l-.24-1.4H414.8l4.1,11.25H405.53L404.42,151A8.83,8.83,0,0,0,409.76,147.36Z"/><path class="cls-42" d="M409.76,147.36a8.83,8.83,0,0,1-5.34,3.67l-.62-3.54C405.79,147.44,407.78,147.38,409.76,147.36Z"/><circle class="cls-41" cx="407.88" cy="133.76" r="15.69"/><path class="cls-2" d="M398.67,139.39l-1.54-1.54a4.64,4.64,0,0,1-1.36-3.28v-4.74a13.41,13.41,0,0,1-5-5.81,9.75,9.75,0,0,1,.16-7.59,10.08,10.08,0,0,1,8.71-5.28,15.56,15.56,0,0,1,9.87,3.53c4.59-1.26,9.75.6,13,4.08A16.34,16.34,0,0,1,426.42,132a21.16,21.16,0,0,1-6.62,12.32c-3.63,3.42-10.42,1.46-14-2a19.32,19.32,0,0,0-2.78-2.65C402,138.92,399.67,138.59,398.67,139.39Z"/><circle class="cls-41" cx="402.83" cy="136.53" r="5.05"/><circle class="cls-43" cx="402.83" cy="136.53" r="2.25"/><path class="cls-44" d="M365.32,188.65h27.53a.91.91,0,0,0,.87-1.19l-11.81-36.94a1.82,1.82,0,0,0-1.73-1.26H352.64a.91.91,0,0,0-.86,1.19l11.8,36.93A1.83,1.83,0,0,0,365.32,188.65Z"/><polygon class="cls-45" points="388.66 183.71 378.03 150.35 355.58 150.35 366.21 183.71 388.66 183.71"/><polygon class="cls-46" points="372.48 150.82 362.84 150.82 361.84 147.69 371.48 147.69 372.48 150.82"/><polygon class="cls-47" points="413.25 220.32 432.28 220.32 432.28 260.5 414.5 260.5 413.25 220.32"/><polygon class="cls-48" points="432.28 260.5 432.28 323.33 416.48 323.33 414.5 260.5 432.28 260.5"/><path class="cls-47" d="M407.28,328.9a6.1,6.1,0,0,0,3.76-1.3l5.44-4.27h12l1.68,8.42H402.14A6.09,6.09,0,0,1,407.28,328.9Z"/><path class="cls-49" d="M402.14,331.75h28.07l.37,1.82H401.3l.31-.79A5.27,5.27,0,0,1,402.14,331.75Z"/><rect class="cls-50" x="415.15" y="318.08" width="18.42" height="5.25" transform="translate(848.73 641.41) rotate(180)"/><polygon class="cls-47" points="389.92 220.32 408.95 220.32 408.95 260.5 391.18 260.5 389.92 220.32"/><polygon class="cls-48" points="408.95 260.5 408.95 323.33 393.15 323.33 391.18 260.5 408.95 260.5"/><path class="cls-47" d="M384,328.9a6.1,6.1,0,0,0,3.76-1.3l5.44-4.27H405.2l1.69,8.42H378.81A6.09,6.09,0,0,1,384,328.9Z"/><path class="cls-3" d="M378.81,331.75h28.08l.36,1.82H378l.31-.79A5.88,5.88,0,0,1,378.81,331.75Z"/><rect class="cls-50" x="391.83" y="318.08" width="18.42" height="5.25" transform="translate(802.07 641.41) rotate(180)"/><path class="cls-33" d="M419.44,254.2h-39l14.92-101.41h23.28a17.63,17.63,0,0,1,17.63,17.63V254.2h-8.55l-4.14-19Z"/><path class="cls-42" d="M387.56,205.75h0a23.22,23.22,0,0,0,7.29-14.09l3.36-25.91-5,1.45Z"/><path class="cls-41" d="M359.83,173.8V166a.77.77,0,0,0-.78-.77h0a.77.77,0,0,0-.77.69l-.41,3.58-1.62-5.07-2.92,5.48a3.41,3.41,0,0,0-.27,2.6h0a13.38,13.38,0,0,0,4.84,6.92h0Z"/><path class="cls-42" d="M375.29,188.81a12.74,12.74,0,0,1-.86-5.58c0-.32,0-.63.07-.95l7.56,5.07-2.4,6.76A14.4,14.4,0,0,1,375.29,188.81Z"/><path class="cls-33" d="M355,183.63a19,19,0,0,1,5.45-10.51l.15-.14,13.86,9.3c0,.32-.06.63-.07.95a12.74,12.74,0,0,0,.86,5.58,14.4,14.4,0,0,0,4.37,5.3l-.92,2.59Z"/><path class="cls-33" d="M395.35,152.79h0A11.71,11.71,0,0,0,384.18,161l-8.82,27.93a6.49,6.49,0,0,0,3.38,7.8h0a6.48,6.48,0,0,0,8.85-3.51l10.62-27.44a11.71,11.71,0,0,0-1.62-11.34Z"/><path class="cls-2" d="M196.93,194.12h-6a4.84,4.84,0,0,1,4.83,4.84v103.5a4.83,4.83,0,0,1-4.83,4.83h6a4.83,4.83,0,0,0,4.83-4.83V199A4.84,4.84,0,0,0,196.93,194.12Z"/><path class="cls-51" d="M195.72,199a4.84,4.84,0,0,0-4.83-4.84H87.38A4.84,4.84,0,0,0,82.55,199v10.47H195.72Z"/><path class="cls-6" d="M82.55,209.43v93a4.83,4.83,0,0,0,4.83,4.83H190.89a4.83,4.83,0,0,0,4.83-4.83v-93Z"/><rect class="cls-3" x="87.38" y="214.26" width="103.51" height="88.2"/><circle class="cls-2" cx="91.05" cy="201.48" r="3.46"/><circle class="cls-2" cx="101.31" cy="201.48" r="3.46"/><circle class="cls-2" cx="111.57" cy="201.48" r="3.46"/><rect class="cls-52" x="94.26" y="245.88" width="8.18" height="12.85"/><rect class="cls-2" x="94.26" y="221.36" width="8.18" height="24.52"/><rect class="cls-53" x="107.85" y="238.3" width="8.18" height="20.42"/><rect class="cls-2" x="107.85" y="221.36" width="8.18" height="16.94"/><rect class="cls-54" x="121.45" y="229.16" width="8.18" height="29.56"/><rect class="cls-2" x="121.45" y="221.36" width="8.18" height="7.8"/><rect class="cls-2" x="135.05" y="221.36" width="8.18" height="13.39"/><rect class="cls-55" x="135.05" y="234.75" width="8.18" height="23.97"/><rect class="cls-2" x="148.64" y="221.36" width="8.18" height="5.59"/><rect class="cls-56" x="148.64" y="226.95" width="8.18" height="31.78"/><rect class="cls-2" x="162.24" y="221.36" width="8.18" height="18.45"/><rect class="cls-57" x="162.24" y="239.81" width="8.18" height="18.91"/><rect class="cls-58" x="175.83" y="231.88" width="8.18" height="26.84"/><rect class="cls-2" x="175.83" y="221.36" width="8.18" height="10.52"/><rect class="cls-2" x="94.52" y="264.6" width="50.98" height="5.03"/><rect class="cls-13" x="107.85" y="274.07" width="76.15" height="3.49"/><rect class="cls-13" x="107.85" y="280.31" width="27.09" height="3.49"/><rect class="cls-13" x="107.85" y="288.56" width="76.15" height="3.49"/><rect class="cls-13" x="107.85" y="294.81" width="53.37" height="3.49"/><rect class="cls-13" x="94.52" y="274.07" width="9.73" height="9.73"/><rect class="cls-13" x="94.52" y="288.56" width="9.73" height="9.73"/><path class="cls-41" d="M159.16,147.36c2,0,4,.08,6,.13l.25-1.4H154.12L150,157.34h13.37L164.5,151A8.86,8.86,0,0,1,159.16,147.36Z"/><path class="cls-42" d="M159.16,147.36A8.86,8.86,0,0,0,164.5,151l.62-3.54C163.13,147.44,161.14,147.38,159.16,147.36Z"/><path class="cls-44" d="M203.6,188.65H176.07a.92.92,0,0,1-.87-1.19L187,150.52a1.82,1.82,0,0,1,1.74-1.26h27.53a.92.92,0,0,1,.87,1.19l-11.81,36.93A1.83,1.83,0,0,1,203.6,188.65Z"/><polygon class="cls-45" points="180.26 183.71 190.89 150.35 213.34 150.35 202.71 183.71 180.26 183.71"/><polygon class="cls-46" points="196.44 150.82 206.08 150.82 207.08 147.69 197.44 147.69 196.44 150.82"/><polygon class="cls-47" points="155.68 220.32 136.65 220.32 136.65 260.5 154.42 260.5 155.68 220.32"/><polygon class="cls-2" points="136.65 260.5 136.65 323.33 152.45 323.33 154.42 260.5 136.65 260.5"/><path class="cls-2" d="M161.64,328.9a6.1,6.1,0,0,1-3.76-1.3l-5.43-4.27H140.39l-1.68,8.42h28.07A6.09,6.09,0,0,0,161.64,328.9Z"/><path class="cls-2" d="M166.78,331.75H138.71l-.37,1.82h29.29l-.31-.79A5.92,5.92,0,0,0,166.78,331.75Z"/><rect class="cls-50" x="135.35" y="318.08" width="18.42" height="5.25"/><polygon class="cls-47" points="179 220.32 159.97 220.32 159.97 260.5 177.75 260.5 179 220.32"/><polygon class="cls-2" points="159.97 260.5 159.97 323.33 175.77 323.33 177.75 260.5 159.97 260.5"/><path class="cls-2" d="M185,328.9a6.1,6.1,0,0,1-3.76-1.3l-5.44-4.27H163.72L162,331.75h28.07A6.09,6.09,0,0,0,185,328.9Z"/><path class="cls-59" d="M190.11,331.75H162l-.37,1.82H191l-.31-.79A5.27,5.27,0,0,0,190.11,331.75Z"/><rect class="cls-50" x="158.68" y="318.08" width="18.42" height="5.25"/><path class="cls-13" d="M149.49,254.2h39l-3.75-89.95-6.8-11.46H150.29a17.62,17.62,0,0,0-17.62,17.63V254.2h8.54l4.14-19Z"/><path class="cls-47" d="M185.07,172.15l-5.58-4.49.95,10.89a25.66,25.66,0,0,0,5.47,13.71h0Z"/><path class="cls-41" d="M232,160l4.55-6.08a4.81,4.81,0,0,1,2.06-1.59l8.49-3.43h0a1.91,1.91,0,0,1-.66,2.6L243,153.53l3.23,3.59a2.42,2.42,0,0,1,.56,2.17l-1.14,4.81-3.33-1-5.51,2.57Z"/><path class="cls-13" d="M177.94,152.79h0a15.06,15.06,0,0,1,10.73,4.49L207.08,176l24.78-17.31h0a8.49,8.49,0,0,1,6,7l.18,1.32-25.36,18.71a9.05,9.05,0,0,1-11-.23l-22.16-17.85Z"/><circle class="cls-41" cx="161.04" cy="133.76" r="15.69"/><path class="cls-2" d="M171.33,140.39c-3.21,4.1-6.71,8.59-6.57,13.79.11,3.79,2.18,7.27,2.69,11a14.84,14.84,0,0,1-5.29,13.06,17.59,17.59,0,0,1-13.81,3.6,20.36,20.36,0,0,1-15.52-13.06,21.15,21.15,0,0,1,.45-15.34c2.05-4.77,5.79-8.62,8.08-13.28,3.23-6.59,3.43-14.58,7.77-20.51a17.74,17.74,0,0,1,12.44-7.07A15.18,15.18,0,0,1,172,115.38C181,122.14,177,133.12,171.33,140.39Z"/><path class="cls-3" d="M424.41,82.47a9.36,9.36,0,0,0-3.93-7.61V73.11H415a9.37,9.37,0,0,0,0,18.73h5.44V90.09A9.36,9.36,0,0,0,424.41,82.47Z"/><circle class="cls-60" cx="420.48" cy="82.47" r="9.36"/><path class="cls-33" d="M426.63,82.47a6.16,6.16,0,1,1-6.15-6.15A6.15,6.15,0,0,1,426.63,82.47Z"/><path class="cls-33" d="M302.56,86.7a4.16,4.16,0,0,0,2.42-.77A4.22,4.22,0,0,0,306,80L258.84,12.68a4.23,4.23,0,0,0-6.92,4.86L299.09,84.9A4.22,4.22,0,0,0,302.56,86.7Z"/><path class="cls-2" d="M330.5,68.28h94.43a6,6,0,0,1,6,6V99a0,0,0,0,1,0,0H324.5a0,0,0,0,1,0,0V74.28A6,6,0,0,1,330.5,68.28Z"/><path class="cls-3" d="M294.64,68.28h94.43a6,6,0,0,1,6,6V99a0,0,0,0,1,0,0H288.64a0,0,0,0,1,0,0V74.28A6,6,0,0,1,294.64,68.28Z"/><path class="cls-60" d="M319.41,68.28v10a6.31,6.31,0,0,0,6.31,6.31h42.81A10.51,10.51,0,0,0,376,81.52l6-6,1.05-1,6-6a6.56,6.56,0,0,0-1.26-.12Z"/><rect class="cls-2" x="288.64" y="93.65" width="106.43" height="5.33"/><rect class="cls-60" x="395.07" y="93.65" width="35.86" height="5.33"/><path class="cls-2" d="M400.25,44.76V7.34A7.34,7.34,0,0,0,392.91,0h-72.4V76.72h39.74a12.1,12.1,0,0,0,8.54-3.54l18.93-18.93a7.31,7.31,0,0,1,5.19-2.15h0A7.34,7.34,0,0,0,400.25,44.76Z"/><rect class="cls-6" x="303.8" width="53.16" height="76.72" rx="7.25"/><path class="cls-61" d="M314.67,67.05V9.67a2.42,2.42,0,0,1,2.42-2.42h-3.63a2.41,2.41,0,0,0-2.41,2.42V67.05a2.41,2.41,0,0,0,2.41,2.42h3.63A2.42,2.42,0,0,1,314.67,67.05Z"/><rect class="cls-33" x="314.67" y="7.25" width="35.04" height="62.22" rx="2.42"/><path class="cls-61" d="M388.41,20.94a12.7,12.7,0,0,0-12.69,12.69V66.25L376.93,65V33.63a11.49,11.49,0,0,1,11.48-11.48h11.84V20.94Z"/><rect class="cls-61" x="356.96" y="14.8" width="43.29" height="1.21"/><path class="cls-33" d="M420.48,86.7A4.23,4.23,0,0,1,417,80l45-64a4.23,4.23,0,1,1,6.92,4.86l-45,64A4.19,4.19,0,0,1,420.48,86.7Z"/><rect class="cls-2" x="464.23" y="0.39" width="15.91" height="111.32" rx="4"/><path class="cls-3" d="M467.35,111.71h-6.24a4.83,4.83,0,0,1-4.83-4.83V5.22A4.83,4.83,0,0,1,461.11.39h6.24a4.83,4.83,0,0,1,4.83,4.83V106.88A4.83,4.83,0,0,1,467.35,111.71Z"/><path class="cls-2" d="M458.63,94.66h-2.35V93.45h2.35a3,3,0,0,0,3-3V21.67a3,3,0,0,0-3-3h-2.35V17.44h2.35a4.24,4.24,0,0,1,4.23,4.23V90.43A4.24,4.24,0,0,1,458.63,94.66Z"/><path class="cls-2" d="M472.18,94.66h-2.35a4.24,4.24,0,0,1-4.23-4.23V21.67a4.24,4.24,0,0,1,4.23-4.23h2.35v1.21h-2.35a3,3,0,0,0-3,3V90.43a3,3,0,0,0,3,3h2.35Z"/><rect class="cls-60" x="472.18" y="17.44" width="7.95" height="1.21"/><rect class="cls-60" x="472.18" y="93.45" width="7.95" height="1.21"/><rect class="cls-2" x="243.06" y="0.39" width="15.91" height="111.32" rx="4"/><path class="cls-3" d="M246.19,111.71h-6.25a4.83,4.83,0,0,1-4.83-4.83V5.22A4.83,4.83,0,0,1,239.94.39h6.25A4.83,4.83,0,0,1,251,5.22V106.88A4.84,4.84,0,0,1,246.19,111.71Z"/><path class="cls-2" d="M237.47,94.66h-2.36V93.45h2.36a3,3,0,0,0,3-3V21.67a3,3,0,0,0-3-3h-2.36V17.44h2.36a4.24,4.24,0,0,1,4.23,4.23V90.43A4.24,4.24,0,0,1,237.47,94.66Z"/><path class="cls-2" d="M251,94.66h-2.36a4.24,4.24,0,0,1-4.23-4.23V21.67a4.24,4.24,0,0,1,4.23-4.23H251v1.21h-2.36a3,3,0,0,0-3,3V90.43a3,3,0,0,0,3,3H251Z"/><rect class="cls-60" x="251.02" y="17.44" width="7.95" height="1.21"/><rect class="cls-60" x="251.02" y="93.45" width="7.95" height="1.21"/><circle class="cls-3" cx="321.9" cy="30.95" r="3.92"/><circle class="cls-3" cx="343.18" cy="30.95" r="3.92"/><path class="cls-3" d="M327.35,38.05h10.11a.7.7,0,0,1,.7.7v2.56a4.76,4.76,0,0,1-4.76,4.76h-2a4.76,4.76,0,0,1-4.76-4.76V38.75A.7.7,0,0,1,327.35,38.05Z"/></svg>