<svg id="Layer_1" data-name="Layer 1" xmlns="http://www.w3.org/2000/svg" viewBox="0 0 719.96 274.51"><defs><style>.cls-1{opacity:0.1;}.cls-2{fill:#a1a7ff;}.cls-3{fill:#e8e7e7;}.cls-4{fill:#efefef;}.cls-5{fill:#fa3e6a;}.cls-6{opacity:0.05;}.cls-7{fill:#000c4f;}.cls-8{opacity:0.04;}.cls-9{fill:#ffb91f;}.cls-10{fill:#e3e2e2;}.cls-11{fill:#fff;}.cls-12{fill:#eaeaea;}.cls-13{fill:#654c1e;}.cls-14{fill:#d9dbe9;}.cls-15{fill:#ae2c22;}.cls-16{opacity:0.15;}.cls-17{fill:#ffead5;}.cls-18{fill:#76266e;}.cls-19{fill:#ec176e;}.cls-20{fill:#572e0f;}.cls-21{fill:#fdd8ae;}.cls-22{fill:#12348e;}.cls-23{fill:#333;}.cls-24{fill:#ffddba;}.cls-25{fill:#6d6e6e;}.cls-26{fill:#8e8e8e;}.cls-27{fill:#d5d6d5;}.cls-28{fill:#b6b6b7;}.cls-29{fill:#e8d6c1;}.cls-30{fill:#343433;}.cls-31{fill:#616161;}.cls-32{fill:#885b24;}.cls-33{fill:#1e1e1e;}.cls-34{fill:#f1dfcd;}.cls-35{fill:#f4e5cd;}.cls-36{fill:#e2cdba;}.cls-37{fill:#e2e8f0;}.cls-38{fill:#161616;}.cls-39{fill:#0592ac;}</style></defs><title>Seamless Online-Offline Transitions</title><ellipse class="cls-1" cx="359.98" cy="260.72" rx="359.98" ry="13.79"/><path class="cls-2" d="M689.85,260.48c0,.74-2.39,1.46-6.94,2.16-32,4.89-171.18,8.58-338,8.58-146,0-270.72-2.82-321.1-6.81C8.45,263.2,0,261.87,0,260.48s8.5-2.72,24-3.94c50.48-4,175.15-6.8,321-6.8,166.66,0,305.72,3.68,337.9,8.58C687.43,259,689.85,259.74,689.85,260.48Z"/><rect class="cls-2" y="244.76" width="689.85" height="15.73"/><path class="cls-3" d="M689.85,244.76c0,.73-2.39,1.45-6.94,2.15-32,4.9-171.18,8.59-338,8.59-146,0-270.72-2.83-321.1-6.81C8.45,247.47,0,246.14,0,244.76s8.5-2.72,24-3.94c50.48-4,175.15-6.8,321-6.8,166.66,0,305.72,3.68,337.9,8.57C687.43,243.29,689.85,244,689.85,244.76Z"/><g id="Monitor"><rect class="cls-2" x="146.95" y="102.99" width="33.06" height="132.23"/><rect class="cls-2" x="27.38" y="0.88" width="272.18" height="185.27" rx="15.69"/><path class="cls-2" d="M108.61,235.22H218.34a6.43,6.43,0,0,1,6.43,6.43v0a0,0,0,0,1,0,0H102.18a0,0,0,0,1,0,0v0A6.43,6.43,0,0,1,108.61,235.22Z"/></g><rect class="cls-4" x="34.22" y="6.86" width="138.94" height="125.76"/><rect class="cls-4" x="34.22" y="137.29" width="31.64" height="25.74"/><rect class="cls-4" x="69.98" y="137.29" width="31.64" height="25.74"/><rect class="cls-4" x="105.75" y="137.29" width="31.64" height="25.74"/><rect class="cls-4" x="141.51" y="137.29" width="31.64" height="25.74"/><path class="cls-2" d="M152.43,61.54,125.51,34.62l-.62,24.26.62-24.26-13-2.65a11.27,11.27,0,0,1-1.8,2.65,13.29,13.29,0,0,1-19.26,0,11.2,11.2,0,0,1-2-3l-14.78,3L75.35,59l-.62-24.41L47.81,61.54l9.94,11.63,17.6-14.12,1.43,55.72h46.68l1.42-55.72,17.61,14.12Z"/><rect class="cls-2" x="180.01" y="15.54" width="89.67" height="8.67"/><rect class="cls-4" x="180.01" y="47.84" width="40.35" height="8.67"/><rect class="cls-4" x="180.01" y="61.56" width="61.13" height="8.67"/><rect class="cls-4" x="180.01" y="75.29" width="28.31" height="8.67"/><rect class="cls-4" x="180.01" y="93.52" width="18.46" height="11.71" rx="5.86"/><rect class="cls-4" x="201.34" y="93.52" width="18.46" height="11.71" rx="5.86"/><rect class="cls-4" x="222.68" y="93.52" width="18.46" height="11.71" rx="5.86"/><rect class="cls-4" x="224.84" y="47.84" width="40.35" height="8.67"/><rect class="cls-4" x="246.62" y="61.56" width="43.23" height="8.67"/><rect class="cls-4" x="212.01" y="75.29" width="38.24" height="8.67"/><rect class="cls-4" x="269.67" y="47.84" width="20.17" height="8.67"/><rect class="cls-4" x="255.23" y="75.29" width="34.62" height="8.67"/><polygon class="cls-5" points="187.12 28.69 189.18 32.87 193.79 33.53 190.46 36.79 191.24 41.38 187.12 39.21 182.99 41.38 183.78 36.79 180.44 33.53 185.06 32.87 187.12 28.69"/><polygon class="cls-5" points="202.9 28.69 204.96 32.87 209.57 33.53 206.24 36.79 207.03 41.38 202.9 39.21 198.78 41.38 199.56 36.79 196.23 33.53 200.84 32.87 202.9 28.69"/><polygon class="cls-5" points="218.68 28.69 220.74 32.87 225.36 33.53 222.02 36.79 222.81 41.38 218.68 39.21 214.56 41.38 215.34 36.79 212.01 33.53 216.62 32.87 218.68 28.69"/><polygon class="cls-5" points="234.46 28.69 236.53 32.87 241.14 33.53 237.8 36.79 238.59 41.38 234.46 39.21 230.34 41.38 231.13 36.79 227.79 33.53 232.4 32.87 234.46 28.69"/><polygon class="cls-5" points="250.25 28.69 252.31 32.87 256.92 33.53 253.58 36.79 254.37 41.38 250.25 39.21 246.12 41.38 246.91 36.79 243.57 33.53 248.18 32.87 250.25 28.69"/><rect class="cls-5" x="180.44" y="113.42" width="64.57" height="19.2" rx="9.6"/><path class="cls-4" d="M209.44,127.64v-9h3a4.3,4.3,0,0,1,2.47.62,2.1,2.1,0,0,1,.89,1.84,2,2,0,0,1-.33,1.12,2,2,0,0,1-1,.73,2,2,0,0,1,1.21.74,2.22,2.22,0,0,1,.4,1.32,2.31,2.31,0,0,1-.85,2,3.86,3.86,0,0,1-2.41.66Zm1.8-5.21h1.3a1.79,1.79,0,0,0,1.11-.3,1,1,0,0,0,.39-.86,1,1,0,0,0-.4-.92,1.89,1.89,0,0,0-1.16-.3h-1.24Zm0,1.24v2.59h1.66a1.65,1.65,0,0,0,1.09-.32,1.11,1.11,0,0,0,.38-.92,1.45,1.45,0,0,0-.32-1,1.33,1.33,0,0,0-1-.35Z"/><path class="cls-4" d="M224.65,118.66v6a2.82,2.82,0,0,1-1,2.33,4,4,0,0,1-2.61.82,3.91,3.91,0,0,1-2.6-.82,2.84,2.84,0,0,1-1-2.33v-6h1.8v6a1.69,1.69,0,0,0,.48,1.32,1.81,1.81,0,0,0,1.31.44,1.89,1.89,0,0,0,1.32-.43,1.72,1.72,0,0,0,.48-1.33v-6Z"/><path class="cls-4" d="M229.35,122.8h0l2-4.14h2l-3.08,5.83v3.15h-1.8v-3.25l-3-5.73h2Z"/><path class="cls-4" d="M199.16,125.91H190a.35.35,0,0,1-.35-.29l-1.27-7.3h-1.19a.36.36,0,0,1,0-.72h1.49a.36.36,0,0,1,.35.3l1.27,7.3h8.82a.36.36,0,1,1,0,.71Z"/><path class="cls-4" d="M199.47,124.59H190a.36.36,0,1,1,0-.72h9.16l.72-3.17H189.16a.36.36,0,0,1-.36-.36.35.35,0,0,1,.36-.35h11.19a.35.35,0,0,1,.35.43l-.88,3.89A.36.36,0,0,1,199.47,124.59Z"/><path class="cls-4" d="M199.91,122.64H189.52a.36.36,0,1,1,0-.71h10.39a.36.36,0,1,1,0,.71Z"/><path class="cls-4" d="M193,124.59a.36.36,0,0,1-.35-.31L192,120.4a.35.35,0,0,1,.3-.41.35.35,0,0,1,.4.3l.6,3.88a.36.36,0,0,1-.3.41Z"/><path class="cls-4" d="M196.18,124.59h-.05a.35.35,0,0,1-.3-.41l.59-3.88a.35.35,0,0,1,.41-.3.36.36,0,0,1,.3.41l-.6,3.88A.36.36,0,0,1,196.18,124.59Z"/><path class="cls-4" d="M191.67,128.44a1.08,1.08,0,1,1,1.08-1.08A1.08,1.08,0,0,1,191.67,128.44Zm0-1.44a.36.36,0,0,0,0,.72.36.36,0,1,0,0-.72Z"/><path class="cls-4" d="M197.49,128.44a1.08,1.08,0,1,1,1.08-1.08A1.08,1.08,0,0,1,197.49,128.44Zm0-1.44a.36.36,0,1,0,.36.36A.36.36,0,0,0,197.49,127Z"/><rect class="cls-2" x="425.57" y="62.41" width="238.31" height="179.33"/><rect class="cls-1" x="425.49" y="35.05" width="238.39" height="29.38"/><rect class="cls-2" x="423.4" y="220.76" width="242.65" height="20.97"/><rect class="cls-2" x="423.4" y="34.32" width="242.65" height="28.09"/><rect class="cls-6" x="426.61" y="34.32" width="2.66" height="28.09"/><rect class="cls-6" x="442.18" y="34.32" width="2.66" height="28.09"/><rect class="cls-6" x="457.75" y="34.32" width="2.66" height="28.09"/><rect class="cls-6" x="473.33" y="34.32" width="2.66" height="28.09"/><rect class="cls-6" x="488.9" y="34.32" width="2.66" height="28.09"/><rect class="cls-6" x="504.47" y="34.32" width="2.66" height="28.09"/><rect class="cls-6" x="520.04" y="34.32" width="2.66" height="28.09"/><rect class="cls-6" x="535.61" y="34.32" width="2.66" height="28.09"/><rect class="cls-6" x="551.18" y="34.32" width="2.66" height="28.09"/><rect class="cls-6" x="566.75" y="34.32" width="2.66" height="28.09"/><rect class="cls-6" x="582.32" y="34.32" width="2.66" height="28.09"/><rect class="cls-6" x="597.9" y="34.32" width="2.66" height="28.09"/><rect class="cls-6" x="613.47" y="34.32" width="2.66" height="28.09"/><rect class="cls-6" x="629.04" y="34.32" width="2.66" height="28.09"/><rect class="cls-6" x="644.61" y="34.32" width="2.66" height="28.09"/><rect class="cls-6" x="660.18" y="34.32" width="2.66" height="28.09"/><rect class="cls-7" x="576.46" y="231.25" width="78.82" height="10.49"/><rect class="cls-7" x="583.35" y="220.76" width="65.02" height="10.49"/><rect class="cls-7" x="583.35" y="228.84" width="65.02" height="2.41"/><rect class="cls-8" x="576.46" y="239.33" width="78.82" height="2.41"/><rect class="cls-7" x="614.02" y="109.2" width="2.86" height="51.22" transform="translate(480.64 750.27) rotate(-90)"/><rect class="cls-7" x="592.71" y="136.24" width="45.5" height="84.52"/><rect class="cls-9" x="595.51" y="138.63" width="39.9" height="39.87"/><rect class="cls-9" x="595.51" y="188.71" width="39.9" height="29.52"/><rect class="cls-7" x="589.85" y="133.38" width="2.86" height="87.38"/><rect class="cls-7" x="638.2" y="133.38" width="2.86" height="87.38"/><circle class="cls-4" cx="597.65" cy="183.15" r="2.14"/><circle class="cls-10" cx="597.65" cy="183.15" r="1.34"/><polygon class="cls-11" points="635.4 138.63 635.4 147.38 612.25 178.5 601.93 178.5 631.58 138.63 635.4 138.63"/><polygon class="cls-11" points="635.4 151.75 635.4 157.79 620 178.5 615.5 178.5 635.4 151.75"/><circle class="cls-12" cx="615.45" cy="145.5" r="1.02"/><rect class="cls-13" x="604.8" y="150.86" width="13.49" height="0.28" transform="translate(133.77 561.51) rotate(-54.54)"/><rect class="cls-13" x="619.32" y="144.27" width="0.28" height="13.49" transform="matrix(0.81, -0.58, 0.58, 0.81, 27.17, 387.09)"/><rect class="cls-5" x="606.96" y="156.25" width="16.99" height="5.86" rx="2.93"/><path class="cls-5" d="M623.2,162H607.71a1,1,0,0,1-1-1v-4.36a1,1,0,0,1,1-1H623.2a1,1,0,0,1,1,1v4.36A1,1,0,0,1,623.2,162Zm-15.49-5.87a.55.55,0,0,0-.54.55v4.36a.54.54,0,0,0,.54.54H623.2a.54.54,0,0,0,.54-.54v-4.36a.55.55,0,0,0-.54-.55Z"/><path class="cls-11" d="M613.16,158.87a1.28,1.28,0,0,1-1.32,1.41,1.24,1.24,0,0,1-1.25-1.36,1.29,1.29,0,0,1,1.3-1.4A1.24,1.24,0,0,1,613.16,158.87Zm-1.94,0c0,.52.25.89.66.89s.64-.39.64-.91-.23-.89-.65-.89S611.22,158.39,611.22,158.91Z"/><path class="cls-11" d="M613.56,157.6a4.86,4.86,0,0,1,.81-.06,1.24,1.24,0,0,1,.82.22.78.78,0,0,1,.29.62.84.84,0,0,1-.25.63,1.2,1.2,0,0,1-.87.28h-.2v1h-.6Zm.6,1.21a.56.56,0,0,0,.2,0c.32,0,.52-.16.52-.44s-.17-.39-.47-.39a1.14,1.14,0,0,0-.25,0Z"/><path class="cls-11" d="M617.46,159.11h-1v.63h1.1v.5h-1.71v-2.68h1.66v.5h-1v.56h1Z"/><path class="cls-11" d="M618,160.24v-2.68h.71l.56,1a7,7,0,0,1,.43.92h0a9.75,9.75,0,0,1-.05-1.11v-.79h.55v2.68h-.63l-.58-1a9.27,9.27,0,0,1-.46-1h0c0,.35,0,.73,0,1.16v.81Z"/><path class="cls-2" d="M615.89,145.5a.44.44,0,1,1-.44-.43A.44.44,0,0,1,615.89,145.5Z"/><rect class="cls-7" x="504.16" y="69.32" width="2.86" height="130.98" transform="translate(370.78 640.4) rotate(-90)"/><rect class="cls-7" x="505.59" y="132.96" width="2.86" height="133.84" transform="translate(307.14 706.9) rotate(-90)"/><rect class="cls-2" x="442.96" y="136.24" width="128.12" height="62.21"/><rect class="cls-7" x="440.1" y="133.38" width="2.86" height="65.07"/><rect class="cls-7" x="571.08" y="133.38" width="2.86" height="65.07"/><polygon class="cls-2" points="558.17 136.24 511.62 198.45 499.71 198.45 546.26 136.24 558.17 136.24"/><polygon class="cls-2" points="567.44 136.24 520.88 198.45 515.8 198.45 562.35 136.24 567.44 136.24"/><polygon class="cls-2" points="505.2 136.24 458.65 198.45 453.56 198.45 500.11 136.24 505.2 136.24"/><rect class="cls-7" x="506.31" y="111.15" width="1.43" height="128.12" transform="translate(331.81 682.24) rotate(-90)"/><rect class="cls-7" x="485.06" y="175.93" width="1.43" height="22.52" transform="translate(971.55 374.38) rotate(180)"/><rect class="cls-7" x="528.22" y="175.93" width="1.43" height="22.52" transform="translate(1057.88 374.38) rotate(180)"/><path class="cls-1" d="M663.88,96.46v30.08a11.38,11.38,0,0,1-4.21.8,11.53,11.53,0,0,1-11.5-11.49,11.5,11.5,0,0,1-23,0,11.5,11.5,0,0,1-23,0,11.49,11.49,0,1,1-23,0,11.5,11.5,0,0,1-23,0,11.5,11.5,0,0,1-23,0,11.5,11.5,0,0,1-23,0,11.5,11.5,0,0,1-23,0,11.5,11.5,0,0,1-23,0,11.5,11.5,0,0,1-23,0,11.48,11.48,0,0,1-15.67,10.7V96.42L437.2,84.35h0v-1.8H553.28v1.8H554v-1.8h98.26v1.8h0Z"/><path class="cls-5" d="M430,88.24v13.12a12.75,12.75,0,0,1-25.49,0V88.24Z"/><path class="cls-14" d="M455.47,88.24v13.12a12.75,12.75,0,0,1-25.5,0V88.24Z"/><path class="cls-5" d="M481,88.24v13.12a12.75,12.75,0,0,1-25.5,0V88.24Z"/><path class="cls-14" d="M506.46,88.24v13.12a12.75,12.75,0,0,1-25.49,0V88.24Z"/><path class="cls-5" d="M532,88.24v13.12a12.75,12.75,0,0,1-25.5,0V88.24Z"/><path class="cls-14" d="M557.46,88.24v13.12a12.75,12.75,0,0,1-25.5,0V88.24Z"/><path class="cls-5" d="M583,88.24v13.12a12.75,12.75,0,0,1-25.49,0V88.24Z"/><path class="cls-14" d="M608.44,88.24v13.12a12.75,12.75,0,0,1-25.49,0V88.24Z"/><path class="cls-5" d="M633.94,88.24v13.12a12.75,12.75,0,0,1-25.5,0V88.24Z"/><path class="cls-14" d="M659.44,88.24v13.12a12.75,12.75,0,0,1-25.5,0V88.24Z"/><path class="cls-5" d="M684.94,88.24v13.12a12.75,12.75,0,0,1-25.5,0V88.24Z"/><polygon class="cls-2" points="531.96 88.24 534.45 66.42 554.21 66.42 557.46 88.24 531.96 88.24"/><polygon class="cls-5" points="429.97 88.24 404.48 88.24 425.49 66.42 447.65 66.42 429.97 88.24"/><polygon class="cls-2" points="455.47 88.24 429.97 88.24 447.65 66.42 469.46 66.42 455.47 88.24"/><polygon class="cls-5" points="480.97 88.24 455.47 88.24 469.46 66.42 490.72 66.42 480.97 88.24"/><polygon class="cls-2" points="506.47 88.24 480.97 88.24 490.72 66.42 511.62 66.42 506.47 88.24"/><polygon class="cls-5" points="531.97 88.24 506.47 88.24 511.62 66.42 534.45 66.42 531.97 88.24"/><polygon class="cls-5" points="684.94 88.24 663.92 66.42 641.76 66.42 659.44 88.24 684.94 88.24"/><polygon class="cls-2" points="659.44 88.24 641.76 66.42 619.95 66.42 633.94 88.24 659.44 88.24"/><polygon class="cls-5" points="633.94 88.24 619.95 66.42 598.69 66.42 608.44 88.24 633.94 88.24"/><polygon class="cls-2" points="608.44 88.24 598.69 66.42 577.8 66.42 582.94 88.24 608.44 88.24"/><polygon class="cls-5" points="582.94 88.24 577.8 66.42 554.21 66.42 557.45 88.24 582.94 88.24"/><rect class="cls-15" x="425.49" y="64.43" width="22.16" height="1.99"/><rect class="cls-14" x="447.65" y="64.43" width="21.81" height="1.99"/><rect class="cls-15" x="469.46" y="64.43" width="21.26" height="1.99"/><rect class="cls-14" x="490.72" y="64.43" width="20.89" height="1.99"/><rect class="cls-15" x="511.62" y="64.43" width="22.84" height="1.99"/><rect class="cls-15" x="641.76" y="64.43" width="22.16" height="1.99" transform="translate(1305.68 130.85) rotate(180)"/><rect class="cls-14" x="619.94" y="64.43" width="21.81" height="1.99" transform="translate(1261.7 130.85) rotate(180)"/><rect class="cls-15" x="598.69" y="64.43" width="21.26" height="1.99" transform="translate(1218.63 130.85) rotate(180)"/><rect class="cls-14" x="577.79" y="64.43" width="20.89" height="1.99" transform="translate(1176.48 130.85) rotate(180)"/><rect class="cls-15" x="554.21" y="64.43" width="23.58" height="1.99" transform="translate(1132.01 130.85) rotate(180)"/><rect class="cls-14" x="534.45" y="64.43" width="19.76" height="1.99"/><rect class="cls-16" x="468.07" y="34.32" width="155.29" height="19.45"/><path class="cls-2" d="M604.74,28.91c0-12.72-16.5-27.69-60-27.69-45,0-60,15-60,27.69H469.29V50.69H620.16V28.91Z"/><path class="cls-5" d="M621.38,51.91H468.07V27.69h15.47a18.87,18.87,0,0,1,3.2-9.15,30.23,30.23,0,0,1,10.5-9.31,65.1,65.1,0,0,1,18.87-6.67A143,143,0,0,1,544.73,0a138.3,138.3,0,0,1,28,2.56,67.07,67.07,0,0,1,18.93,6.67,31.85,31.85,0,0,1,10.84,9.29,18.62,18.62,0,0,1,3.43,9.17h15.47ZM470.51,49.47H619V30.12H603.52V28.91c0-6.53-4.76-12.93-13.06-17.56C580,5.52,564.18,2.43,544.73,2.43c-20.32,0-35.89,3-46.29,8.92-8.07,4.59-12.51,10.82-12.51,17.56v1.21H470.51Z"/><path class="cls-7" d="M501.73,34.59a11.43,11.43,0,0,0,5,1.25c2.07,0,3.16-.86,3.16-2.16s-.94-2-3.34-2.82c-3.32-1.15-5.48-3-5.48-5.89,0-3.4,2.84-6,7.55-6a12.08,12.08,0,0,1,5.09,1l-1,3.64a9.42,9.42,0,0,0-4.18-.95c-2,0-2.9.89-2.9,1.93,0,1.27,1.13,1.83,3.7,2.81,3.52,1.3,5.18,3.14,5.18,6,0,3.35-2.57,6.19-8,6.19a13,13,0,0,1-5.66-1.22Z"/><path class="cls-7" d="M521.42,23.08h-5.36V19.29H531.4v3.79H526V39.24h-4.53Z"/><path class="cls-7" d="M551.21,29.06c0,6.54-4,10.51-9.8,10.51S532,35.1,532,29.41c0-6,3.82-10.45,9.71-10.45C547.86,19,551.21,23.55,551.21,29.06Zm-14.42.26c0,3.91,1.83,6.67,4.85,6.67s4.8-2.91,4.8-6.78c0-3.59-1.72-6.67-4.83-6.67S536.79,25.45,536.79,29.32Z"/><path class="cls-7" d="M554.17,19.55a40.63,40.63,0,0,1,6-.41c3,0,5,.44,6.45,1.57a5.08,5.08,0,0,1,1.84,4.17,5.3,5.3,0,0,1-3.53,4.92v.09c1.39.56,2.16,1.89,2.67,3.73a57.52,57.52,0,0,0,1.63,5.62h-4.62a24.39,24.39,0,0,1-1.39-4.65c-.54-2.48-1.4-3.16-3.23-3.19h-1.36v7.84h-4.47Zm4.47,8.59h1.77c2.25,0,3.59-1.13,3.59-2.87s-1.25-2.76-3.32-2.79a11,11,0,0,0-2,.15Z"/><path class="cls-7" d="M583.6,30.8h-7.35v4.74h8.2v3.7H571.72v-20H584V23h-7.79v4.14h7.35Z"/><path class="cls-5" d="M333.31,190.71a14.65,14.65,0,0,0-2.8,1.15,26.06,26.06,0,0,1-1.58-2.92c-.37-1.16-2-7.36-2.49-9.91s.58-3.2.58-3.2a2.09,2.09,0,0,1,2.34,1.2c.36.82,2.08,9.8,2.57,10.95C332.09,188.35,332.63,189.42,333.31,190.71Z"/><path class="cls-17" d="M340.15,201.24c-.37.77-3.93,2.36-5.58-2.7,0,0-2.39-3.82-4.06-6.68a14.65,14.65,0,0,1,2.8-1.15,56.29,56.29,0,0,0,3.83,6.64c.49.24,2,.12,2.15.55s-1.23.64-1.23.64S340.52,200.48,340.15,201.24Z"/><path class="cls-17" d="M346.36,243.23a1.32,1.32,0,0,1-1.45,1.1c-1.3-.05-2.7.55-4.15-.55s-3.8-2.85-3.8-2.85l-.25,4.2H336l-.66-4.75a2.87,2.87,0,0,1-.78-1.71,2.09,2.09,0,0,1,.2-1.13,7.46,7.46,0,0,0,.43-1.18,6.58,6.58,0,0,0,.15-.67c.21-1.3-2.58-9.39-3.13-10.7a19.71,19.71,0,0,1-1.2-7.39l-3.1-7.59h6.22a45.23,45.23,0,0,1,1.77,4.64c.25,1.15,2.55,19.14,3.2,20.74a9,9,0,0,0,.52,1c.1.18.21.37.33.56a31.12,31.12,0,0,0,3.09,4.21,2.6,2.6,0,0,0,.66.57C344.56,242.13,346.36,243.23,346.36,243.23Z"/><path class="cls-5" d="M346.36,243.23a1.32,1.32,0,0,1-1.45,1.1c-1.3-.05-2.7.55-4.15-.55s-3.8-2.85-3.8-2.85l-.25,4.2H336l-.66-4.75a2.87,2.87,0,0,1-.78-1.71,2.09,2.09,0,0,1,.2-1.13,7.46,7.46,0,0,0,.43-1.18,2.57,2.57,0,0,1,1.62.31c.52.49,3.82,4.53,5.05,4.73a1.69,1.69,0,0,0,1.18-.24,2.6,2.6,0,0,0,.66.57C344.56,242.13,346.36,243.23,346.36,243.23Z"/><path class="cls-17" d="M319.23,235.49a2.7,2.7,0,0,0,0,1.52,7.17,7.17,0,0,0,.22.71,20,20,0,0,0,2.26,4.09c3.17,1.54,3.24,2.53,3.24,2.53-.63,1.17-2.42.88-3.75.79s-4.61-4-5.61-4.15-1.13,4.15-1.13,4.15h-.54a63.16,63.16,0,0,0-.37-7.32c-.37-1.91,1.62-3.24,1.62-3.24s2.5-6.9,3.08-8.44,1.12-4.7,1.41-5.86,2.71-3.91,2.71-3.91l-.32-3.14,5.47-.82a46.19,46.19,0,0,1-.51,6C326.64,220,320,233.57,319.23,235.49Z"/><path class="cls-18" d="M340,237a10.25,10.25,0,0,0-1.2.84,11.1,11.1,0,0,0-1,.94l-.33-.5a9.72,9.72,0,0,1,1-.92,10.46,10.46,0,0,1,1.27-.92C339.68,236.48,339.73,236.57,340,237Z"/><path class="cls-5" d="M325,244.34c-.63,1.17-2.42.88-3.75.79s-4.61-4-5.61-4.15-1.13,4.15-1.13,4.15h-.54a63.16,63.16,0,0,0-.37-7.32c-.37-1.91,1.62-3.24,1.62-3.24a4.53,4.53,0,0,1,1.39,1.82c.34,1,1.72,4.74,3,5.38a2.25,2.25,0,0,0,2.19,0C324.89,243.35,325,244.34,325,244.34Z"/><path class="cls-18" d="M319.46,237.72a3.65,3.65,0,0,0-2.3,1.67l-.28-1.08s1.37-.83,2.36-1.3A7.17,7.17,0,0,0,319.46,237.72Z"/><path class="cls-5" d="M330.47,189.71s.6,5.49.6,8.83S334.14,210,334.14,210a17.6,17.6,0,0,1-12.08,3.21s-3.39-14.33-1.66-20c0,0,1.12-3.34,2.14-4Z"/><rect class="cls-7" x="315.09" y="194.86" width="19.05" height="10.74" transform="matrix(1, -0.03, 0.03, 1, -6.33, 10.65)"/><path class="cls-7" d="M320.83,168.42a6.13,6.13,0,0,0-2.52,5.55c.48,3.49,4.23,6.06,4.23,6.06s-.77-9.29,0-10.69Z"/><path class="cls-19" d="M322.26,167.09s-1.41.27-1.43,1.22,1.12,1.84,1.57,1.75.93-1.16.93-1.16Z"/><path class="cls-17" d="M324.48,169l-.34,4.6,3.05.66s.41-3.69,3.28-3.85l-3.28-1.8Z"/><path class="cls-17" d="M327,161.77c1.55,0,4.69-.5,5.24,3.25a15,15,0,0,1-1,5.93s-4.49.18-5.73-3.52S326.41,161.78,327,161.77Z"/><path class="cls-7" d="M327.72,166.34c.45.15,1,.6,1.68.17s1-2.89,1.82-3.12,1.27-.8,1-1a5.51,5.51,0,0,0-5.87-2.3c-3.89.83-4.49,6.25-4.27,7.67s2.53,2.83,3.6,2.65S327.72,166.34,327.72,166.34Z"/><path class="cls-5" d="M324.19,172.92c1-.31,4.13,1,6.47,5.59s-.05,4.69-.19,5.54,0,5.66,0,5.66a27.66,27.66,0,0,1-7.93-.5S319.61,174.37,324.19,172.92Z"/><path class="cls-17" d="M328.52,167s-.52-2.22-1.65-1.32c-.93.74,1,2.29,1,2.29Z"/><path class="cls-17" d="M326.37,204.58c-.13.8-1.27,3-2.23,2.62s-2.08-1.08-2-2,.44-3.8.44-3.8-.49-5.32-.82-9.09a6.75,6.75,0,0,0,3.62-.13c.08,3.17.12,8.38.12,8.38S326.51,203.77,326.37,204.58Z"/><path class="cls-5" d="M326.44,179a80.93,80.93,0,0,0-1.18,11.07c0,.41.06,1.15.08,2.06a6.75,6.75,0,0,1-3.62.13c-.16-1.76-.28-3.18-.3-3.57-.07-1.21.11-7.42.28-10.58s2.72-2.85,2.72-2.85C325.87,175.53,326.77,177.61,326.44,179Z"/><ellipse class="cls-1" cx="329.07" cy="244.76" rx="18.3" ry="1.86"/><path class="cls-20" d="M410.23,239.76a7.37,7.37,0,0,1,.67,2.41c0,1-.16,2.83-2.32,2.7s-2.44-.16-2.44-.16-4.57.89-5.81-.22,1.11-1.41,2.73-2.12,3.59-1.53,4-2.29Z"/><path class="cls-20" d="M420.66,237.84a3.56,3.56,0,0,1-.49,1.64c-.51.89-2.25,3.59-2.21,4.29a1.07,1.07,0,0,0,1.22,1,5.21,5.21,0,0,0,3-.73c1-.7,1.71-3.77,2.18-4.15s.78-.57.82-1.1a22.47,22.47,0,0,0-.63-3Z"/><path class="cls-7" d="M408,197.07s-2.57,19.94-2.5,22.19,1.05,21.24,1.05,21.24,2.6.7,4.07-.58c0,0,1.35-14.12.33-20l3.66-13.3s.18,11.76.95,15.29,5.14,15.89,5.14,15.89a3.53,3.53,0,0,0,4-1.47s-1-10.32-3.24-15.7c0,0,1.28-18.53-.32-23.6Z"/><path class="cls-21" d="M422.48,184.66a14.26,14.26,0,0,0,1.25,3.18,12.42,12.42,0,0,0,.21,3.36,23.39,23.39,0,0,1,1.07,5.71c-.12,1.3-1.75,3.65-1,4.33a.59.59,0,0,0,1-.2,5.74,5.74,0,0,1,.29,2.19.63.63,0,0,0,.95.36c.71-.36,2.21-1.54,1.22-5,0,0,.55-9.21,0-11.23,0,0-.75-3.63-1.61-4.67Z"/><path class="cls-21" d="M400,185.29l-.65,1.12a49.12,49.12,0,0,0-7.7,5.08s-4.9-.9-4.81-.47,2.09,1.44,2.09,1.44-1.56,1.68-3.27,1.5c0,0,.87,2.37,2.9,2.52s4.43-2.59,4.43-2.59,7.08-2.68,8.92-5l2.31-2.49Z"/><path class="cls-2" d="M409.45,179.1c-.8,1.71-3.66,6.3-5,8.36l-.65,1a9.32,9.32,0,0,1-4.19-2.58l.69-1.25c1.46-2.64,4.8-8.61,5.51-9.49.91-1.15,1.92-.22,2.64.16A3.14,3.14,0,0,1,409.45,179.1Z"/><path class="cls-2" d="M414.66,172.19c4.08-.5,7.12,1.38,7.57,2.83s-1,18.88-.29,22c0,0,1,2.37-7.28,1.87s-7.94-1-7.65-3.29-1.34-20.67-.11-21.21A23.34,23.34,0,0,1,414.66,172.19Z"/><path class="cls-2" d="M427.48,184.62a12.42,12.42,0,0,1-4.67,1.94s-.24-.48-.58-1.24c-.92-2-2.57-5.74-2.63-7.31-.09-2.18.08-3,1-3.68s2.23,0,3.54,2.55c.88,1.75,2.12,4.68,2.82,6.39Z"/><path class="cls-22" d="M427.48,184.62a12.42,12.42,0,0,1-4.67,1.94s-.24-.48-.58-1.24a15.85,15.85,0,0,0,4.71-2Z"/><path class="cls-22" d="M404.48,187.46l-.65,1a9.32,9.32,0,0,1-4.19-2.58l.69-1.25A18.15,18.15,0,0,0,404.48,187.46Z"/><path class="cls-21" d="M407.57,161.68c-1.25.59-.41,7.38,2.34,8.95,0,0,6.81.1,4.72-7.12C414.63,163.51,413.62,158.84,407.57,161.68Z"/><path class="cls-21" d="M410.41,169.29a7.55,7.55,0,0,1,1.48,4.17s3.06,1.4,4.54-1.33l-1.73-7.2Z"/><path class="cls-7" d="M404.48,160.56s.69,4.13,8.94,1.86c0,0,.15,2.34,1.23,3l1.07,3.78s2.41-5.34-.65-8.42c0,0-.36-2.1-3.27-1.51S407.51,160.46,404.48,160.56Z"/><path class="cls-21" d="M414.21,165.3s.42-1.77,1.3-1.33.3,2.34-1,2.29Z"/><ellipse class="cls-1" cx="413.69" cy="244.76" rx="15.74" ry="1.86"/><path class="cls-22" d="M494,200.3s-.15,15,0,15.79.24,3.7,1.22,5.75l2.34,18a9,9,0,0,0,4.68,0s-.39-7,0-9.45,0-8.69-1.32-11.54c0,0,1.55-16.29,1.46-18.53Z"/><path class="cls-23" d="M501.8,239.63a11.58,11.58,0,0,1,1,2.71,7.6,7.6,0,0,1,0,2.57,38.43,38.43,0,0,1-4.49.25,10.14,10.14,0,0,0-3.22.47c-.25.08-4.63.15-4.59-.47s.68-1.12,2.67-1.7,4.45-2.89,4.74-3.83Z"/><path class="cls-23" d="M516.91,231.78a9.49,9.49,0,0,1,.47,2.15c0,.74-.47,5.82,0,6.29s2.79-.1,3.4-5.64c0,0,1.37-2.09,1.32-3.35s-3.42-2.29-3.42-2.29Z"/><path class="cls-22" d="M499.13,201.48s4.12,17.81,4.77,19.14,13,11.9,13,11.9,2.68-2,2.19-3.73c0,0-5.07-4.86-5.92-6.48s-2.89-4.43-4-4.78c0,0,.92-11.54-.42-16.47Z"/><path class="cls-24" d="M486.07,184.12l-.59.71a48.05,48.05,0,0,0-6.91-7.22s.07-4.49-1.1-5.34-.41,2.22-.41,2.22-1.47-3.59-2.15-3.3-2.47,1.66-2.09,2.75a8.7,8.7,0,0,0,3.39,5.24s5,10.27,9.64,10c0,0,1.82.06,3.74-2.74Z"/><path class="cls-5" d="M496.59,173.88c-.56-.69-3.16-1-3.54,0s-7.2,10.55-7.2,10.55,2.81.76,3.1,3.39c0,0,6.11-7.07,7.07-8.88S497.35,174.83,496.59,173.88Z"/><path class="cls-5" d="M501,171.37c1.29-.11,3.29-.78,8.82,2.42,0,0,1,2.33,0,7.3s-1.86,13.51-.42,20.54c0,0-9.83,4.44-16.21-.68a84.26,84.26,0,0,0,.87-13.79c-.25-6.54-1.63-12.86-.67-13.71S501,171.37,501,171.37Z"/><rect class="cls-25" x="503.42" y="194.33" width="14.59" height="10.89"/><path class="cls-26" d="M503.71,194.33v10.61a.29.29,0,1,1-.57,0V194.33Z"/><path class="cls-24" d="M500.84,160.4c-1.72-.22-3.8-.58-4.12.77s-1,6.88-.54,7.47a3.65,3.65,0,0,0,5.11.32c2.45-1.9,3.08-6.56,2.49-7A5.47,5.47,0,0,0,500.84,160.4Z"/><path class="cls-24" d="M497.71,168.86a5.77,5.77,0,0,1,1.63,3.62s2.15,1.36,4.65-1a13.55,13.55,0,0,1-.81-5.13Z"/><path class="cls-22" d="M496.53,159.93c0,.65.06,1.59,1.91,1.5s2.62-.22,3.07.15.9.94.7,1.4a3,3,0,0,0,.22,2.85s.58.4.94,3.13c0,0,3.61-3.76,1.58-6.94,0,0,.22-1.34-.63-1.84a6.42,6.42,0,0,0-3.47-1.15c-1.73,0-2.3-.65-2.8-.63A1.48,1.48,0,0,0,496.53,159.93Z"/><path class="cls-24" d="M501.91,165.92s.85-1.83,1.65-1.22-.76,2.31-1.35,2.39Z"/><path class="cls-24" d="M511,188.28a9.06,9.06,0,0,1,.59,2.11,23.28,23.28,0,0,0-.59,3.08c-.12,1.35-1,7.2-1.26,7.83s-2.94,2.24-2.69,3,.83.54.83.54-1,.34-.83.72a2.48,2.48,0,0,0,2.26.72,3.42,3.42,0,0,0,3.17-3.54s3.37-10.66,3.24-12.31a17.85,17.85,0,0,0-.63-3.33Z"/><path class="cls-5" d="M507.71,174.61a1.83,1.83,0,0,1,2.08-.82,2.71,2.71,0,0,1,1.69,1.64c.8,1.86,4,12.26,4,12.26a6.45,6.45,0,0,0-4.55,1.14s-3.2-8.21-3.79-10.83A4.45,4.45,0,0,1,507.71,174.61Z"/><ellipse class="cls-1" cx="504.85" cy="244.76" rx="15.74" ry="1.86"/><path class="cls-27" d="M438,205.57H427.45a.37.37,0,0,1-.38-.37h0a.37.37,0,0,1,.38-.37H438a.37.37,0,0,1,.38.37h0A.37.37,0,0,1,438,205.57Z"/><path class="cls-27" d="M427.18,204.25l-2.32-12.34a.49.49,0,0,0-.48-.4h-8a.49.49,0,0,0-.48.57l2.29,12.35a.48.48,0,0,0,.48.4h8A.5.5,0,0,0,427.18,204.25Z"/><path class="cls-3" d="M427,204.25l-2.31-12.34a.5.5,0,0,0-.48-.4h-8a.48.48,0,0,0-.48.57L418,204.43a.48.48,0,0,0,.48.4h8A.48.48,0,0,0,427,204.25Z"/><rect class="cls-3" x="418.04" y="204.83" width="9.44" height="0.75" rx="0.37"/><path class="cls-28" d="M429,205.36h-.93a.18.18,0,0,1-.18-.17h0a.17.17,0,0,1,.18-.17H429a.17.17,0,0,1,.18.17h0A.18.18,0,0,1,429,205.36Z"/><path class="cls-28" d="M430.59,205.36h-.94a.18.18,0,0,1-.17-.17h0a.17.17,0,0,1,.17-.17h.94a.17.17,0,0,1,.17.17h0A.18.18,0,0,1,430.59,205.36Z"/><ellipse class="cls-1" cx="444.83" cy="245.16" rx="20.89" ry="2.18"/><path class="cls-29" d="M423.89,228.86s-2.16,2.71-4.73,2.4a1.59,1.59,0,0,0,1.46,1.82,16.73,16.73,0,0,0,4.14,0l2.28-3.23Z"/><path class="cls-5" d="M419.16,231.26s-4.3-.18-5.17-.64c0,0-.85-.08.26,1.17a10.92,10.92,0,0,0,8.59,2.89l-.33,1.72.58.28,1.73-3.69A6,6,0,0,1,419.16,231.26Z"/><path class="cls-22" d="M442.52,179.82s-1.44-3.08,2.26-3.8,5.49,1.93,6.05,4c0,0,4.46-1.18,4.91,4.32,0,0,8.74,3.28.79,11l-6.15-1.85L447,182.72l-3.32-2.31Z"/><path class="cls-29" d="M442.62,177.89s-.78,4.81,1.88,8.31c0,0,1.93-.63,2.46,0a9.63,9.63,0,0,1,1,2s-.6.25-.59.33c.06.54.06.5.06.5l4.52-.92s-2.14-3.94-2.4-6.55-1.05-4.86-3.4-4.52A15.32,15.32,0,0,0,442.62,177.89Z"/><path class="cls-22" d="M445.87,179s3.75,3.14,5,6.31l1.56-2.67-3.3-3.5-3.05-1.58Z"/><path class="cls-22" d="M442.62,177.89s.39,4.38,7.48,5.43l-.28-4.58-1.89-1.81-2.06-.42-2.15.36Z"/><path class="cls-22" d="M459.51,226.82h-9.4v-1.29h9.39c.26,0,5.28-.22,5.28-6.15a7.56,7.56,0,0,0-2-5.59,8.85,8.85,0,0,1-2.3-6.52h1.29a7.72,7.72,0,0,0,2,5.72,8.68,8.68,0,0,1,2.27,6.39c0,3.76-1.79,5.59-3.28,6.46a7.37,7.37,0,0,1-3.28,1Z"/><path class="cls-29" d="M441.28,232.67s3.12,6.28,1.79,7.43-3.88.33-3.88.33.64-2.42-.89-7.09Z"/><path class="cls-7" d="M443.07,210.45,432,218.73s5.79,14.18,5.89,16.87a10.11,10.11,0,0,0,4.42-1.37l-4.07-12.8,15.5-2.41-.56-6.38-3.35-2.59Z"/><path class="cls-29" d="M435.17,203.61s-.55.88-2.72.6a6,6,0,0,0-2.51.84s-.18,0,.25-.57a4.2,4.2,0,0,1,4.26-2l1.07.4Z"/><path class="cls-5" d="M434.55,202.53a1.4,1.4,0,0,1,.54,1.2s6.7,1.62,7.38,1.51,4.46-4.41,4.46-4.41l-3-2.33s-1,4.21-2,4.4S434.55,202.53,434.55,202.53Z"/><path class="cls-3" d="M448,188.19s-.23,1.39,3.69-.53l2.91,4.68s-.93,10.77-.51,12.9,1.45,6.32,1.45,6.32-10.69,1.28-12.45-.72l1.52-8.48-.2-8.15,1.21-3.7Z"/><path class="cls-5" d="M448,188.19s-3.32,3.1-2.94,12.84-2.21,10.22-2.21,10.22l-.52-.24s2.11-7.52,1.69-11.54S443.1,190,448,188.19Z"/><path class="cls-29" d="M442.83,206.13s-1.2.88-3.92-.66c0,0-2.66-.7-3.79-.23,0,0-.23-.11.64-.62s3.69-2.35,6.71-.35l1.21,1.1Z"/><path class="cls-7" d="M455.51,211.56l-23.75.4a.66.66,0,0,0-.6.39c-1.13,2.5-7.36,16.23-8.56,16.7l4.21,2.94,6.44-14.16s17.95,2.83,21.2.9C458.59,216.27,455.51,211.56,455.51,211.56Z"/><path class="cls-5" d="M439.27,239.94s-1.94,3.78-3.55,4.75c0,0-.33.56,1,.22s6.7-3.77,6.7-3.77l.94,1.86.46-.27-1.45-4S443,240,439.27,239.94Z"/><path class="cls-5" d="M451.71,187.6s-4.47,1.73-4.47,11.57a106.9,106.9,0,0,1-.85,15.17s6.51-3.67,10.23-1.53c0,0-1.93-5-1.37-9.35s2-11.15.07-13.23A10,10,0,0,0,451.71,187.6Z"/><path class="cls-5" d="M454.48,189.76s5.44,1.3-1.23,18.85c0,0-2.36.82-10.64-2.32a2.12,2.12,0,0,0-.14-2l7.25,1s2.71-4.89,1.37-12.59C451.09,192.7,452.43,189.83,454.48,189.76Z"/><path class="cls-22" d="M453.52,225.78c0,.75-1.58,1.75-3.46,1.75s-3.36-1-3.36-1.75,1.48-1,3.36-1S453.52,225,453.52,225.78Z"/><rect class="cls-22" x="440.03" y="219.38" width="20.15" height="5.25" rx="2.63"/><rect class="cls-22" x="442.31" y="224.63" width="16" height="1.15" rx="0.58"/><path class="cls-22" d="M450.14,239v-.1a.86.86,0,0,1-.85-.85V227.21a.85.85,0,0,1,.85-.85h0a.86.86,0,0,1,.86.85V238A1,1,0,0,1,450.14,239Z"/><path class="cls-22" d="M456.72,242.84,450.05,239a.81.81,0,0,1-.3-1.1h0a.81.81,0,0,1,1.1-.29l6.67,3.85a.8.8,0,0,1,.29,1.1h0A.8.8,0,0,1,456.72,242.84Z"/><path class="cls-22" d="M443.55,242.84l6.67-3.85a.81.81,0,0,0,.29-1.1h0a.8.8,0,0,0-1.09-.29l-6.67,3.85a.8.8,0,0,0-.3,1.1h0A.81.81,0,0,0,443.55,242.84Z"/><circle class="cls-30" cx="458.21" cy="242.77" r="2.29"/><circle class="cls-31" cx="458.21" cy="242.77" r="1.29"/><circle class="cls-30" cx="442.6" cy="242.77" r="2.29"/><circle class="cls-31" cx="442.6" cy="242.77" r="1.29"/><path class="cls-7" d="M466.05,198c-.62,1.87-2.14,7.44-.06,12.52a.5.5,0,0,1-.46.68h-5.64a.47.47,0,0,1-.42-.24c-.51-.84-1.85-4.11.08-13.21a.5.5,0,0,1,.48-.4h5.56A.49.49,0,0,1,466.05,198Z"/><path class="cls-22" d="M464.87,197.91c-.64,2-2.05,7.34-.08,12.29a.58.58,0,0,1-.53.8h-5.47a.57.57,0,0,1-.5-.29c-.52-.91-1.77-4.21.1-13.1a.57.57,0,0,1,.56-.45h5.37A.57.57,0,0,1,464.87,197.91Z"/><rect class="cls-22" x="350.14" y="205.57" width="90.29" height="1.57"/><rect class="cls-22" x="350.14" y="206.36" width="90.29" height="0.79"/><rect class="cls-22" x="358.67" y="207.15" width="1.25" height="37.81"/><rect class="cls-32" x="429.73" y="207.15" width="1.25" height="37.81"/><ellipse class="cls-1" cx="390.47" cy="245.16" rx="20.89" ry="2.18"/><path class="cls-29" d="M382.14,197.43s.13-3.45-.82-4c-1.92-1.18-3.93.07-1.85,4Z"/><path class="cls-22" d="M381.47,241l.75,3.48a.32.32,0,0,1-.31.39h-9.42a.32.32,0,0,1-.13-.62c1.52-.67,5.25-1.82,6.05-3.13a.3.3,0,0,1,.24-.15l2.48-.22A.31.31,0,0,1,381.47,241Z"/><path class="cls-22" d="M390.32,237.18l2.34,2.69a.32.32,0,0,1-.09.49l-8.24,4.56a.33.33,0,0,1-.42-.48c1-1.33,3.72-4.13,3.78-5.67a.35.35,0,0,1,.14-.25l2.06-1.39A.33.33,0,0,1,390.32,237.18Z"/><path class="cls-7" d="M406.85,215s.36,8.9-21.62,11.52L391.54,238l-4.9,2-7-14.69-.43-3Z"/><path class="cls-7" d="M393.77,213.84l-15.38,4.44a3.67,3.67,0,0,0-2.63,3.94l2.21,19s2.73.88,4.18-.41l-1.45-16.93s25.08,3.16,26.23-9.12Z"/><path class="cls-29" d="M391.86,179.82s-1.3,5.71,1.38,7.86a3.44,3.44,0,0,0,1.86-.34l.58,2.71,4.38-.34L399,180.89l-2.12-3h-3.22Z"/><path class="cls-7" d="M391.77,181.12s-1.35-1.53,0-2.8c0,0-.31-3,4.61-2,0,0,2.43-.34,3.34,1.36a9.24,9.24,0,0,1,0,9.08s-4.81.93-5.29-2.86c0,0,.06-2.06-1.3-2.4A1.26,1.26,0,0,1,391.77,181.12Z"/><path class="cls-22" d="M400.88,228.11c0,.68-1.43,1.59-3.14,1.59s-3-.91-3-1.59,1.34-.88,3-.88S400.88,227.43,400.88,228.11Z"/><path class="cls-22" d="M404.55,227.07H391a2.39,2.39,0,0,1-2.38-2.38h0A2.39,2.39,0,0,1,391,222.3h13.52a2.39,2.39,0,0,1,2.38,2.39h0A2.39,2.39,0,0,1,404.55,227.07Z"/><rect class="cls-22" x="390.71" y="227.07" width="14.52" height="1.04" rx="0.52"/><path class="cls-22" d="M397.82,239.37h0a.77.77,0,0,1-.77-.77v-9.19a.77.77,0,0,1,.77-.78h0a.78.78,0,0,1,.77.78v9.19A.78.78,0,0,1,397.82,239.37Z"/><path class="cls-22" d="M403.79,242.89l-6.06-3.5a.73.73,0,0,1-.26-1h0a.72.72,0,0,1,1-.27l6.05,3.5a.72.72,0,0,1,.27,1h0A.72.72,0,0,1,403.79,242.89Z"/><path class="cls-22" d="M391.83,242.89l6.06-3.5a.72.72,0,0,0,.27-1h0a.73.73,0,0,0-1-.27l-6.05,3.5a.72.72,0,0,0-.27,1h0A.72.72,0,0,0,391.83,242.89Z"/><circle class="cls-22" cx="405.14" cy="242.83" r="2.08"/><circle class="cls-3" cx="405.18" cy="242.87" r="1.17"/><circle class="cls-22" cx="391.04" cy="242.89" r="2.08"/><circle class="cls-3" cx="391.04" cy="242.89" r="1.17"/><path class="cls-2" d="M394.68,190.3l.19-1.16a10.5,10.5,0,0,1,6.16-.65l.49,1.18s9.33.55,5.33,25.34c0,0-7.27,3.92-14.23-1,0,0-1.76-17.82-2.08-21.71Z"/><path class="cls-2" d="M390.54,192.26s-7.74,11.23-6.17,14.8a2.14,2.14,0,0,0,3,.72C389.45,206.81,395.68,197.4,390.54,192.26Z"/><rect class="cls-7" x="396.46" y="194.65" width="14.31" height="14.31" rx="7.16"/><rect class="cls-22" x="397.05" y="194.65" width="14.31" height="14.31" rx="7.16"/><circle class="cls-22" cx="404.76" cy="202.11" r="3.14"/><path class="cls-22" d="M398.09,228.7l-.6-1.17.3.58-.31-.58s1.66-.94,3.29-4.51c1.52-3.32,3.34-9.64,3.34-20.91h1.31C405.42,224.61,398.39,228.54,398.09,228.7Z"/><path class="cls-2" d="M384.85,207.62l-5.41-10.32a1.94,1.94,0,0,1,2.36-.94l6.85,7.38Z"/><ellipse class="cls-1" cx="132.87" cy="244.76" rx="18.3" ry="1.86"/><path class="cls-33" d="M137.77,241.72s3.1.89,4.92-.56c0,0,2.81,2.94,5.82,3.16,0,0,.52.56,0,.67s-6.43.34-7.54-.48a3.91,3.91,0,0,1-3.2-.15C137,243.88,137.77,241.72,137.77,241.72Z"/><path class="cls-33" d="M128.86,241.56s-3,.86-4.79-.55c0,0-2.74,2.86-5.67,3.08,0,0-.51.54,0,.65s6.26.33,7.35-.47a3.81,3.81,0,0,0,3.11-.14C129.62,243.66,128.86,241.56,128.86,241.56Z"/><path class="cls-7" d="M125.42,200.46l-1.67,40.76s3.36,1.57,5.13.36l1.1-17.1,3.49-15.55,5.89,15.27-1.67,17.57s4.17.88,5.4-.61l2-18.11a4.18,4.18,0,0,0-.09-1.41l-4.68-19.72S129.64,203.72,125.42,200.46Z"/><path class="cls-34" d="M134.22,171.79a3,3,0,0,0,1.8-.68l-.19,4.9h-4.66l-.61-5.75A4.77,4.77,0,0,0,134.22,171.79Z"/><path class="cls-35" d="M136.17,167.26l-.14,3.39a2.42,2.42,0,0,1-1.93.87,4,4,0,0,1-3.71-2.8l-.18-1.68Z"/><path class="cls-34" d="M136,170.65a2.42,2.42,0,0,1-1.93.87,4,4,0,0,1-3.71-2.8,13.73,13.73,0,0,1-.88-4.87l.8-.76,1.5-1.42,5-.61a28,28,0,0,1,.45,4.56C137.23,167.51,137,169.53,136,170.65Z"/><path class="cls-36" d="M136,170.65v.46a3,3,0,0,1-1.8.68,4.77,4.77,0,0,1-3.66-1.53l-.17-1.54a4,4,0,0,0,3.71,2.8A2.42,2.42,0,0,0,136,170.65Z"/><path class="cls-34" d="M136,170.65a2.42,2.42,0,0,1-1.93.87,4,4,0,0,1-3.71-2.8,13.73,13.73,0,0,1-.88-4.87l.8-.76,6.91,2.53C137.23,167.51,137,169.53,136,170.65Z"/><path class="cls-7" d="M130.41,163.12s5.85,1.63,8.2-2.43c0,0-3.82-1.6-5.94-1.6s-3.32,2.28-3.32,2.28-2.91,1.76,1.1,7.86Z"/><path class="cls-34" d="M130.64,165.21c.42.59.46,1.28.09,1.54s-1,0-1.42-.61-.46-1.29-.09-1.54S130.22,164.61,130.64,165.21Z"/><path class="cls-22" d="M130.79,172.43l-1.12,1.28-4.25,1.18v27s8.18,2.56,14.89,0V175l-3.52-1-.77-1.23-2.65,2.54Z"/><path class="cls-22" d="M150,188.88l-2.9,2.28s-.75.53-1.29,0-5.49-7.62-5.49-7.62V175s.77.48,2.81,3.83,4.17,6.71,4.17,6.71l1-.59A9.35,9.35,0,0,0,150,188.88Z"/><path class="cls-22" d="M125.42,174.89v7.91s-5.64,4.26-5.74,7.3a3.58,3.58,0,0,0,.43,1.68,10.36,10.36,0,0,0-3.14,2.16l0-.05c-2.71-3.55-1.44-6.53-1.44-6.53C118,181.33,125.42,174.89,125.42,174.89Z"/><path class="cls-34" d="M160.45,178.57s.43,2.56-.91,3.9a6.2,6.2,0,0,1-2,.51l-7.53,5.9a9.35,9.35,0,0,1-1.67-3.91l7-4s1-4.25,3.93-3.19c0,0,3.89-2.63,4.25-2.27S160.45,178.57,160.45,178.57Z"/><path class="cls-34" d="M127.41,203.06c-1.71.34-3.15-2.21-3.15-2.21a43.59,43.59,0,0,1-7.29-6.91,10.36,10.36,0,0,1,3.14-2.16c1.4,2.89,5.69,6.26,5.69,6.26l2.18,1C130.16,200.11,129.12,202.72,127.41,203.06Z"/><polygon class="cls-37" points="133.16 175.06 131.32 176.84 129.68 173.72 130.79 172.43 133.16 175.06"/><polygon class="cls-37" points="133.57 175.1 135.17 177.04 136.79 173.98 136.02 172.75 133.57 175.1"/><ellipse class="cls-1" cx="227.17" cy="244.76" rx="18.3" ry="1.86"/><path class="cls-38" d="M227,242.87s.49,2.57-.05,2.73-9.36.27-9.87-.32.49-1,.49-1l5.59-3Z"/><path class="cls-38" d="M238.89,242.27s.61,2.34.12,2.52-8.6.82-9.1.31.38-1,.38-1l5-3.12Z"/><path class="cls-7" d="M221.06,196.4s-1.55,20.79-1.29,25.8,1.73,19.63,1.73,19.63,1.72,2.75,5.86,1.68c0,0-2.33-18.63-1.72-22.35s3.14-14.42,3.14-14.42,1.26,14.08,1.86,17,2.81,18.18,2.81,18.18a7,7,0,0,0,5.56.57s-2.67-18.86-2.67-22.56.59-16.32-1.05-23.68Z"/><path class="cls-34" d="M240.56,185.87l3.28,8.88s3.06,2.85.74,5.23c0,0-3.64-.48-2.32-4.27l-4.84-7.39Z"/><path class="cls-9" d="M232.29,170.28l8.27,15.59s-.33,1.81-3.14,2.45L230,175.45Z"/><path class="cls-34" d="M219.28,158.43s-1.47,4.37.94,7.83a2.29,2.29,0,0,0,1.9-.18l1.26,2.93s3.31.11,3.91-.39l.25-5.86-4.78-4.33Z"/><path class="cls-7" d="M219.07,156.74s-2,2.06,1.19,3.46a3.54,3.54,0,0,1,1.63,2.44c.18,1.61,1.78,3.32,5.54,2.75,0,0,2.45-5.56,0-8.51,0,0,.59-2.41-4.4-2.41S219.07,156.74,219.07,156.74Z"/><path class="cls-9" d="M235.29,196.26a18.22,18.22,0,0,1-14.56,1.34v0c2.13.66,2.26-.31,2.46-1.57s-2.36-2.51-2.36-2.51l-.26-.41c-.2-5.32-.6-13.54-1.11-14.57l-3.59,6.93.6,1.11a2.89,2.89,0,0,1-3.95,1.74s-2.31-1.57-1.27-5.09,4.55-10.89,5.36-11.56a46.3,46.3,0,0,1,5.16-2.61l.27-1.11s3.38-1.81,6.33-.6l.37,1.07s3,.57,3.88,2.45S235.29,196.26,235.29,196.26Z"/><path class="cls-39" d="M223.19,196c-.2,1.26-.33,2.23-2.46,1.57,0-.26-.06-2.08-.16-4.49l.26.41S223.41,194.65,223.19,196Z"/><path class="cls-34" d="M223.19,196c-.2,1.26-.33,2.23-2.46,1.57-.13,0-.26-.1-.4-.13-1.37-.31-1.49-3-1.49-3l-6.32-6.17a2.89,2.89,0,0,0,3.95-1.74l4.1,6.53.26.41S223.41,194.65,223.19,196Z"/><rect class="cls-7" x="341.58" y="92.96" width="30.58" height="16.71"/><rect class="cls-7" x="332.24" y="92.96" width="7.24" height="16.71"/><rect class="cls-7" x="322.96" y="92.96" width="7.24" height="16.71"/><rect class="cls-7" x="313.35" y="92.96" width="7.24" height="16.71"/><polygon class="cls-7" points="364.2 101.31 364.2 80.01 385.05 101.31 364.2 101.31"/><polygon class="cls-7" points="364.2 101.31 364.2 122.61 385.05 101.31 364.2 101.31"/></svg>