<?xml version="1.0" encoding="utf-8"?>
<!-- Generator: Adobe Illustrator 23.0.2, SVG Export Plug-In . SVG Version: 6.00 Build 0)  -->
<svg version="1.1" id="Layer_1" xmlns="http://www.w3.org/2000/svg" xmlns:xlink="http://www.w3.org/1999/xlink" x="0px" y="0px"
	 width="100px" height="100px" viewBox="0 0 100 100" style="enable-background:new 0 0 100 100;" xml:space="preserve">
<style type="text/css">
	.st0{fill:none;stroke:#1C1F3F;stroke-width:3;stroke-miterlimit:10;}
</style>
<g>
	<ellipse class="st0" cx="49.8" cy="25.6" rx="20.9" ry="23.7"/>
	<path class="st0" d="M39.8,47.3l-1.3,5c-0.4,1.3-1.4,2.4-2.7,2.8L15,62c-2.2,0.7-3.8,2.5-4.3,4.8L6.2,86.9C4.9,92.6,9.2,98,15.1,98
		h69.9c6.1,0,10.5-5.8,8.8-11.7l-6.1-21c-0.6-2.1-2.2-3.7-4.3-4.4l-20.2-6.4c-1.4-0.4-2.4-1.5-2.7-2.9l-1.2-4.9"/>
	<path class="st0" d="M28.3,57.6c0,0-1.8,31.8,18.6,32.2c0-21.4,0-21.4,0-21.4s-6.2-9,2.8-10.8c2.1,0,9.4,3.7,3.3,10.8
		c0,0,0,0,0,21.4c20.4-0.5,18.6-32.2,18.6-32.2"/>
	<line class="st0" x1="46.9" y1="75.3" x2="52.9" y2="71.4"/>
	<line class="st0" x1="46.9" y1="86.2" x2="52.9" y2="82.3"/>
</g>
</svg>
