<?xml version="1.0" encoding="utf-8"?>
<!-- Generator: Adobe Illustrator 23.0.2, SVG Export Plug-In . SVG Version: 6.00 Build 0)  -->
<svg version="1.0" id="Layer_1" xmlns="http://www.w3.org/2000/svg" xmlns:xlink="http://www.w3.org/1999/xlink" x="0px" y="0px"
	 width="87.92px" height="90px" viewBox="0 0 87.92 90" style="enable-background:new 0 0 87.92 90;" xml:space="preserve">
<style type="text/css">
	.st0{fill:#13426F;}
	.st1{fill:none;stroke:#13426F;stroke-width:2;stroke-miterlimit:10;}
</style>
<g>
	<path class="st0" d="M53.25,51.02c0,2.02-0.73,3.65-2.19,4.87c-1.46,1.23-3.51,1.96-6.14,2.2V62H42.3v-3.83
		c-3.1-0.06-5.82-0.61-8.16-1.64v-5.03c1.11,0.55,2.44,1.03,4,1.45c1.56,0.42,2.95,0.67,4.17,0.74v-5.91l-1.28-0.5
		c-2.52-0.99-4.3-2.07-5.35-3.23c-1.05-1.16-1.57-2.6-1.57-4.32c0-1.84,0.72-3.36,2.16-4.55c1.44-1.19,3.46-1.91,6.04-2.16v-2.92
		h2.61v2.84c2.91,0.13,5.54,0.71,7.9,1.75l-1.79,4.46c-1.98-0.81-4.02-1.31-6.1-1.49v5.63c2.48,0.95,4.24,1.78,5.29,2.48
		c1.05,0.7,1.82,1.47,2.31,2.31C53,48.92,53.25,49.9,53.25,51.02z M39.84,39.73c0,0.56,0.19,1.02,0.58,1.38
		c0.39,0.36,1.01,0.73,1.88,1.12v-4.48C40.66,37.98,39.84,38.64,39.84,39.73z M47.51,51.3c0-0.53-0.22-0.99-0.65-1.35
		c-0.43-0.37-1.08-0.75-1.95-1.14v4.75C46.64,53.26,47.51,52.51,47.51,51.3z"/>
</g>
<path class="st1" d="M50.24,13.25L36.47,1.92v4.8C16.84,9.93,1.85,26.97,1.85,47.51c0,5.85,1.22,11.41,3.42,16.46l1.79-9.58
	l9.15,2.91l0,0c-1.11-3.05-1.71-6.35-1.71-9.79c0-13.53,9.37-24.87,21.97-27.9v5.76L50.24,13.25z"/>
<g>
	<path class="st1" d="M81.6,62.78c1.88-4.73,2.93-9.88,2.93-15.28c0-21.36-16.21-38.94-36.99-41.11l7.4,7.25l-6.62,5.63l0,0.01
		c13.4,2.42,23.57,14.13,23.57,28.23c0,3.11-0.5,6.11-1.42,8.92c-2.96-1.69-5.27-3.01-5.27-3.01l3.52,17.98l17-6.25L81.6,62.78
		C81.6,62.78,81.65,62.81,81.6,62.78L81.6,62.78z"/>
</g>
<path class="st1" d="M66.17,75.2c-0.49,0-1.48-8.69-1.48-8.69l0-0.01c-5.26,5.94-12.94,9.7-21.5,9.7c-8.38,0-15.93-3.6-21.17-9.33
	l4.39-2.62L9.5,58.39c0,0-2.64,17.1-3.13,17.81l4.63-2.76c7.58,9.39,19.18,15.41,32.18,15.41c13.65,0,25.76-6.62,33.29-16.83
	C76.38,72.05,66.66,75.2,66.17,75.2z"/>
</svg>
