<svg id="Layer_1" data-name="Layer 1" xmlns="http://www.w3.org/2000/svg" viewBox="0 0 105.28 97"><defs><style>.cls-1{fill:none;stroke:#0b1f6e;stroke-miterlimit:10;stroke-width:2px;}</style></defs><title>Cost-Effective</title><path class="cls-1" d="M34.69,37.15a25.55,25.55,0,0,0-2.74.1H31.8C14.89,38.85,1,54.91,1,72.8,1,93.58,20.3,96,34.69,96S65.63,93.83,68,76.77C70.37,56.76,54.49,37.15,34.69,37.15Z"/><path class="cls-1" d="M52.58,9.56,47.42,25.2H22L16.8,9.56a2.49,2.49,0,0,1,.3-2.32,2.7,2.7,0,0,1,2.12-1.08h8.2A7.7,7.7,0,0,1,42,6.16h8.2a2.69,2.69,0,0,1,2.11,1.08A2.5,2.5,0,0,1,52.58,9.56Z"/><path class="cls-1" d="M42.37,73.57a7.65,7.65,0,0,1-5.1,7.22v2.32a2.58,2.58,0,0,1-5.16,0V80.84a7.81,7.81,0,0,1-5.21-7.27A2.59,2.59,0,0,1,29.48,71a2.56,2.56,0,0,1,2.58,2.58,2.62,2.62,0,0,0,2.58,2.58h0a2.57,2.57,0,0,0,2.52-2.58A2.54,2.54,0,0,0,34.69,71h0a7.79,7.79,0,0,1-7.74-7.73A7.7,7.7,0,0,1,32.11,56V52.17a2.58,2.58,0,0,1,5.16,0V56a7.71,7.71,0,0,1,5.1,7.27,2.59,2.59,0,0,1-2.58,2.58,2.63,2.63,0,0,1-2.58-2.58,2.54,2.54,0,0,0-2.52-2.58h0a2.58,2.58,0,0,0-2.58,2.58,2.62,2.62,0,0,0,2.58,2.58h0A7.71,7.71,0,0,1,42.37,73.57Z"/><path class="cls-1" d="M52.73,31a5.17,5.17,0,0,1-5.15,5.16H21.8a5.16,5.16,0,1,1,0-10.31H47.58A5.17,5.17,0,0,1,52.73,31Z"/><path class="cls-1" d="M104.28,56.55a5.17,5.17,0,0,1-5.15,5.15H73.35a5.16,5.16,0,1,1,0-10.31H99.13A5.17,5.17,0,0,1,104.28,56.55Z"/><path class="cls-1" d="M104.28,66.55a5.17,5.17,0,0,1-5.15,5.15H73.35a5.16,5.16,0,1,1,0-10.31H99.13A5.17,5.17,0,0,1,104.28,66.55Z"/><path class="cls-1" d="M104.28,76.55a5.17,5.17,0,0,1-5.15,5.15H73.35a5.16,5.16,0,1,1,0-10.31H99.13A5.17,5.17,0,0,1,104.28,76.55Z"/><path class="cls-1" d="M104.28,86.55a5.17,5.17,0,0,1-5.15,5.15H73.35a5.16,5.16,0,1,1,0-10.31H99.13A5.17,5.17,0,0,1,104.28,86.55Z"/></svg>