<?xml version="1.0" encoding="utf-8"?>
<!-- Generator: Adobe Illustrator 23.0.2, SVG Export Plug-In . SVG Version: 6.00 Build 0)  -->
<svg version="1.0" id="Layer_1" xmlns="http://www.w3.org/2000/svg" xmlns:xlink="http://www.w3.org/1999/xlink" x="0px" y="0px"
	 width="81.9px" height="78px" viewBox="0 0 81.9 78" style="enable-background:new 0 0 81.9 78;" xml:space="preserve">
<style type="text/css">
	.st0{fill:none;stroke:#13426F;stroke-width:2;stroke-miterlimit:10;}
	.st1{fill:#13426F;}
</style>
<path class="st0" d="M27.1,30.7c-0.7,0-1.4,0-2.1,0.1h-0.1C11.8,32,1.1,44.4,1.1,58.2c0,16,14.9,17.9,26,17.9
	c11,0,23.9-1.7,25.7-14.9C54.7,45.8,42.4,30.7,27.1,30.7z"/>
<path class="st0" d="M40.9,9.3l-4,12.1H17.3l-4-12.1c-0.2-0.6-0.1-1.3,0.2-1.8c0.4-0.5,1-0.8,1.6-0.8h6.3c0.8-2.3,3-4,5.6-4
	c2.6,0,4.8,1.7,5.6,4h6.3c0.6,0,1.2,0.3,1.6,0.8C41.1,8.1,41.2,8.7,40.9,9.3z"/>
<path class="st1" d="M33.1,58.8c0,2.6-1.6,4.7-3.9,5.6v1.8c0,1.1-0.9,2-2,2c-1.1,0-2-0.9-2-2v-1.8c-2.3-0.8-4-3-4-5.6
	c0-1.1,0.9-2,2-2c1.1,0,2,0.9,2,2c0,1.1,0.9,2,2,2h0c1.1,0,2-0.9,2-2c0-1.1-0.8-2-2-2h0c-3.3,0-6-2.7-6-6c0-2.6,1.7-4.8,4-5.6v-2.9
	c0-1.1,0.9-2,2-2c1.1,0,2,0.9,2,2v2.9c2.3,0.8,3.9,3,3.9,5.6c0,1.1-0.9,2-2,2c-1.1,0-2-0.9-2-2c0-1.1-0.8-2-2-2h0c-1.1,0-2,0.9-2,2
	c0,1.1,0.9,2,2,2h0C30.4,52.9,33.1,55.5,33.1,58.8z"/>
<path class="st0" d="M41.1,25.9c0,2.2-1.8,4-4,4H17.2c-2.2,0-4-1.8-4-4s1.8-4,4-4h19.9C39.3,21.9,41.1,23.7,41.1,25.9z"/>
<path class="st0" d="M80.9,45.6c0,2.2-1.8,4-4,4H57c-2.2,0-4-1.8-4-4c0-2.2,1.8-4,4-4h19.9C79.1,41.7,80.9,43.4,80.9,45.6z"/>
<path class="st0" d="M80.9,53.4c0,2.2-1.8,4-4,4H57c-2.2,0-4-1.8-4-4c0-2.2,1.8-4,4-4h19.9C79.1,49.4,80.9,51.2,80.9,53.4z"/>
<path class="st0" d="M80.9,61.1c0,2.2-1.8,4-4,4H57c-2.2,0-4-1.8-4-4c0-2.2,1.8-4,4-4h19.9C79.1,57.1,80.9,58.9,80.9,61.1z"/>
<path class="st0" d="M80.9,68.8c0,2.2-1.8,4-4,4H57c-2.2,0-4-1.8-4-4s1.8-4,4-4h19.9C79.1,64.8,80.9,66.6,80.9,68.8z"/>
</svg>
