<svg id="Layer_1" data-name="Layer 1" xmlns="http://www.w3.org/2000/svg" viewBox="0 0 108.33 100.22"><defs><style>.cls-1{fill:none;stroke:#0b1f6e;stroke-miterlimit:10;stroke-width:2px;}</style></defs><title>Cost Effectiveness</title><rect class="cls-1" x="1" y="54.67" width="16.67" height="43.31" rx="2.18"/><rect class="cls-1" x="23.46" y="41.38" width="16.67" height="56.6" rx="2.18"/><path class="cls-1" d="M53.9,76.36a25.43,25.43,0,0,1,8.68-19.28v-29h7.23a1.74,1.74,0,0,0,1.47-2.68L56.37,1.81a1.75,1.75,0,0,0-2.95,0L38.51,25.41A1.75,1.75,0,0,0,40,28.09h5.92V95.62A2.37,2.37,0,0,0,48.28,98H60.22a2.36,2.36,0,0,0,2.36-2.34A25.46,25.46,0,0,1,53.9,76.36Z"/><circle class="cls-1" cx="84.46" cy="76.36" r="22.87"/><path class="cls-1" d="M82.47,91.71V88.13a15.24,15.24,0,0,1-6.4-1.61l1.13-4.41a13.23,13.23,0,0,0,6.25,1.66c2.14,0,3.61-.83,3.61-2.33s-1.2-2.34-4-3.28c-4-1.35-6.77-3.23-6.77-6.88,0-3.31,2.33-5.91,6.36-6.7V61h3.69v3.32a13.5,13.5,0,0,1,5.45,1.24l-1.09,4.25a12.55,12.55,0,0,0-5.42-1.28c-2.44,0-3.23,1-3.23,2.11,0,1.24,1.31,2,4.51,3.23,4.48,1.58,6.29,3.65,6.29,7s-2.37,6.21-6.7,7v3.84Z"/></svg>