<svg id="Layer_1" data-name="Layer 1" xmlns="http://www.w3.org/2000/svg" viewBox="0 0 90.18 93.12"><defs><style>.cls-1{fill:none;stroke:#0b1f6e;stroke-miterlimit:10;stroke-width:2px;}</style></defs><title>Cost-efficacy</title><path class="cls-1" d="M58.43,55a7.91,7.91,0,0,1-2.87,6.37,14.16,14.16,0,0,1-8,2.88v5.12H44.11v-5a27.77,27.77,0,0,1-10.67-2.14V55.58a28.12,28.12,0,0,0,5.22,1.9,28,28,0,0,0,5.45,1V50.72l-1.67-.65q-4.94-1.95-7-4.23a8.12,8.12,0,0,1-2-5.65,7.37,7.37,0,0,1,2.83-5.95,14.38,14.38,0,0,1,7.89-2.83V27.6h3.42v3.71a28.29,28.29,0,0,1,10.33,2.3l-2.35,5.83a26.93,26.93,0,0,0-8-1.94v7.36a38.21,38.21,0,0,1,6.92,3.24,9.43,9.43,0,0,1,3,3A7.5,7.5,0,0,1,58.43,55ZM40.89,40.19A2.39,2.39,0,0,0,41.65,42a9.25,9.25,0,0,0,2.46,1.46V37.6C42,37.91,40.89,38.78,40.89,40.19Zm10,15.14a2.22,2.22,0,0,0-.85-1.77,10.88,10.88,0,0,0-2.54-1.49v6.21Q50.92,57.7,50.92,55.33Z"/><path class="cls-1" d="M51.1,13.85,36.84,2.12v5A42.8,42.8,0,0,0,4.54,66.36l1.85-9.92,9.47,3h0a29.74,29.74,0,0,1,21-39v6Z"/><path class="cls-1" d="M83.57,65.14A42.81,42.81,0,0,0,48.3,6.75L56,14.26,49.1,20.08h0A29.71,29.71,0,0,1,72,58.55l-5.46-3.12L70.22,74l17.6-6.47-4.25-2.43Z"/><path class="cls-1" d="M67.59,78c-.5,0-1.53-9-1.53-9h0a29.7,29.7,0,0,1-44.18.38l4.54-2.71L8.92,60.59S6.19,78.29,5.68,79l4.8-2.86a42.78,42.78,0,0,0,67.78-1.48C78.16,74.73,68.09,78,67.59,78Z"/></svg>