<svg id="Layer_1" data-name="Layer 1" xmlns="http://www.w3.org/2000/svg" viewBox="0 0 87.33 90"><defs><style>.cls-1{fill:none;stroke:#0b1f6e;stroke-miterlimit:10;stroke-width:2px;}</style></defs><title>Delight Customers </title><path class="cls-1" d="M10.86,61.56c1-2.75,5.24-7.41,20.83-12,0-8.75-1.11-10.83-1.94-12.78s-1.25-1.94-2.64-3.75-2.5-7.36-.84-10C26.55,12.39,25.3,2,43.91,1,55.44.86,62.38,8.78,60.44,23.08c1.53,2.64,1,7.5-1.39,10.42s-3.75,5.7-3.89,8.2-.27,7.5,2.78,8.88c2.67,1.22,15.14,5,18.16,11.41"/><rect class="cls-1" x="1" y="61.91" width="85.33" height="27.09" rx="13.54"/><polygon class="cls-1" points="17.86 66.26 19.93 72.61 26.61 72.61 21.2 76.54 23.27 82.9 17.86 78.97 12.45 82.9 14.52 76.54 9.11 72.61 15.8 72.61 17.86 66.26"/><polygon class="cls-1" points="44.42 66.26 46.49 72.61 53.17 72.61 47.76 76.54 49.83 82.9 44.42 78.97 39.01 82.9 41.08 76.54 35.67 72.61 42.35 72.61 44.42 66.26"/><polygon class="cls-1" points="70.98 66.26 73.05 72.61 79.73 72.61 74.32 76.54 76.39 82.9 70.98 78.97 65.57 82.9 67.64 76.54 62.23 72.61 68.92 72.61 70.98 66.26"/></svg>