<svg id="Layer_1" data-name="Layer 1" xmlns="http://www.w3.org/2000/svg" viewBox="0 0 102.6 102.6"><defs><style>.cls-1{fill:none;stroke:#0b1f6e;stroke-miterlimit:10;stroke-width:2px;}</style></defs><title>Enhanced Efficiency</title><path class="cls-1" d="M101.6,60.42V42.18H93.06a42.59,42.59,0,0,0-5.79-13.95l6-6.05L80.42,9.29l-6,6a42.73,42.73,0,0,0-14-5.79V1H42.18V9.54a42.59,42.59,0,0,0-13.95,5.79l-6.05-6L9.29,22.18l6,6.05a42.59,42.59,0,0,0-5.79,14H1V60.42H9.54a42.73,42.73,0,0,0,5.79,14l-6,6L22.18,93.31l6.05-6a42.59,42.59,0,0,0,14,5.79v8.54H60.42V93.06a42.73,42.73,0,0,0,14-5.79l6,6L93.31,80.42l-6-6a42.73,42.73,0,0,0,5.79-14ZM51.3,81.66A30.36,30.36,0,1,1,81.66,51.3,30.36,30.36,0,0,1,51.3,81.66Z"/><path class="cls-1" d="M67.17,51.3A15.86,15.86,0,0,0,56.76,36.42V51.3H45.84V36.42a15.84,15.84,0,0,0-2.66,28.5V80.56a30.52,30.52,0,0,0,16.24,0V64.92A15.87,15.87,0,0,0,67.17,51.3Z"/></svg>