<?xml version="1.0" encoding="utf-8"?>
<!-- Generator: Adobe Illustrator 23.0.2, SVG Export Plug-In . SVG Version: 6.00 Build 0)  -->
<svg version="1.0" id="Layer_1" xmlns="http://www.w3.org/2000/svg" xmlns:xlink="http://www.w3.org/1999/xlink" x="0px" y="0px"
	 width="87.92px" height="59.62px" viewBox="0 0 87.92 59.62" style="enable-background:new 0 0 87.92 59.62;" xml:space="preserve"
	>
<style type="text/css">
	.st0{fill:none;stroke:#13426F;stroke-width:2;stroke-miterlimit:10;}
</style>
<path class="st0" d="M45.48,37.36c5.53,5.53,10.28,10.28,10.28,10.28h19.27v4.53L85.51,41.7l-9.83-9.83v6.34H60.55
	c0,0-3.85-3.85-7.96-7.96"/>
<path class="st0" d="M45.4,23.06c-6.68-6.68-13.04-13.04-13.04-13.04L12.97,9.5V3.04L1.33,14.67l11.12,11.12v-7.24h14.22
	c0,0,5.26,5.26,11.31,11.31"/>
<polygon class="st0" points="13.79,50.18 13.79,56.64 2.15,45.01 13.27,33.89 13.27,41.13 27.5,41.13 56.59,12.03 75.86,12.03 
	75.86,7.51 86.33,17.98 76.5,27.81 76.5,21.47 61.37,21.47 33.18,49.66 "/>
</svg>
