<svg id="Layer_1" data-name="Layer 1" xmlns="http://www.w3.org/2000/svg" viewBox="0 0 108.53 108.53"><defs><style>.cls-1{fill:none;stroke:#0b1f6e;stroke-miterlimit:10;stroke-width:2px;}.cls-2{fill:#0b1f6e;}</style></defs><title>Fraud Detection</title><path class="cls-1" d="M94.77,61.85l12.76-1.8V48.48L94.88,46.4h0A41.15,41.15,0,0,0,88.69,31l.34,0,7-10.36-8.18-8.18L77.41,19.62a41,41,0,0,0-15-6.29l.07-.06L60.05,1H48.48L46.14,13.34A41.09,41.09,0,0,0,31,19.7h0L20.69,12.51l-8.18,8.18,7.12,10.44h.17a41,41,0,0,0-6.08,15.06L1,48.51V60.08l12.9,2.3a41.11,41.11,0,0,0,6.18,14.55L12.53,87.86,20.71,96l11-7.67a41,41,0,0,0,14.37,5.9h0l2.43,13.26H60.08l2.37-13.25h0a41.22,41.22,0,0,0,14.39-5.9l11,7.62L96,87.82,88.46,77a41,41,0,0,0,6.31-15.1Zm-40.49,21a29.05,29.05,0,1,1,29.05-29A29.05,29.05,0,0,1,54.28,82.86Z"/><path class="cls-1" d="M52.41,32.32,35.62,64.13a2.11,2.11,0,0,0,1.87,3.1H71.08a2.11,2.11,0,0,0,1.86-3.1L56.15,32.32A2.12,2.12,0,0,0,52.41,32.32Z"/><polygon class="cls-2" points="56.96 41.27 51.2 41.27 52.16 56.77 55.88 56.77 56.96 41.27"/><circle class="cls-2" cx="54.08" cy="60.89" r="2.76"/></svg>