<svg id="Layer_1" data-name="Layer 1" xmlns="http://www.w3.org/2000/svg" viewBox="0 0 90.15 90.15"><defs><style>.cls-1{fill:none;stroke:#0b1f6e;stroke-miterlimit:10;stroke-width:2px;}</style></defs><title>Greater Accuracy </title><path class="cls-1" d="M64.29,48.19H48.19v16.1A19.49,19.49,0,0,0,64.29,48.19Z"/><path class="cls-1" d="M48.19,25.85V42h16.1A19.5,19.5,0,0,0,48.19,25.85Z"/><path class="cls-1" d="M70.59,48.19a25.75,25.75,0,0,1-22.4,22.4V89.07A44.17,44.17,0,0,0,89.07,48.19Z"/><path class="cls-1" d="M48.19,1.07V19.55A25.76,25.76,0,0,1,70.59,42H89.07A44.18,44.18,0,0,0,48.19,1.07Z"/><path class="cls-1" d="M1.07,42H19.55A25.77,25.77,0,0,1,42,19.55V1.07A44.19,44.19,0,0,0,1.07,42Z"/><path class="cls-1" d="M25.85,42H42V25.85A19.52,19.52,0,0,0,25.85,42Z"/><path class="cls-1" d="M19.55,48.19H1.07A44.18,44.18,0,0,0,42,89.07V70.59A25.76,25.76,0,0,1,19.55,48.19Z"/><path class="cls-1" d="M25.85,48.19A19.52,19.52,0,0,0,42,64.29V48.19Z"/></svg>