<?xml version="1.0" encoding="utf-8"?>
<!-- Generator: Adobe Illustrator 23.0.2, SVG Export Plug-In . SVG Version: 6.00 Build 0)  -->
<svg version="1.0" id="Layer_1" xmlns="http://www.w3.org/2000/svg" xmlns:xlink="http://www.w3.org/1999/xlink" x="0px" y="0px"
	 width="86.53px" height="88.77px" viewBox="0 0 86.53 88.77" style="enable-background:new 0 0 86.53 88.77;" xml:space="preserve"
	>
<style type="text/css">
	.st0{fill:none;stroke:#13426F;stroke-width:2;stroke-miterlimit:10;}
</style>
<g>
	<g>
		<g>
			<path class="st0" d="M46.28,62.94L46.28,62.94L46.28,62.94z"/>
			<path class="st0" d="M61.83,47.39H46.28v15.55C54.24,61.65,60.54,55.35,61.83,47.39z"/>
		</g>
	</g>
</g>
<g>
	<g>
		<path class="st0" d="M46.28,25.81v15.55h15.55C60.54,33.4,54.24,27.1,46.28,25.81z"/>
	</g>
</g>
<g>
	<g>
		<path class="st0" d="M67.92,47.39c-1.37,11.29-10.35,20.27-21.64,21.64v17.85c21.1-1.48,38.01-18.39,39.49-39.49H67.92z"/>
	</g>
</g>
<g>
	<g>
		<path class="st0" d="M46.28,1.88v17.85c11.29,1.37,20.27,10.35,21.64,21.64h17.85C84.28,20.27,67.38,3.36,46.28,1.88z"/>
	</g>
</g>
<g>
	<g>
		<path class="st0" d="M0.77,41.36h17.85c1.37-11.29,10.35-20.27,21.64-21.64V1.88C19.15,3.36,2.25,20.27,0.77,41.36z"/>
	</g>
</g>
<g>
	<g>
		<path class="st0" d="M24.7,41.36h15.55V25.81C32.29,27.1,25.99,33.4,24.7,41.36z"/>
	</g>
</g>
<g>
	<g>
		<path class="st0" d="M18.61,47.39H0.77c1.48,21.1,18.39,38.01,39.49,39.49V69.03C28.96,67.65,19.99,58.68,18.61,47.39z"/>
	</g>
</g>
<g>
	<g>
		<path class="st0" d="M24.7,47.39c1.29,7.96,7.59,14.27,15.55,15.55V47.39H24.7z"/>
	</g>
</g>
</svg>
