<svg id="Layer_1" data-name="Layer 1" xmlns="http://www.w3.org/2000/svg" viewBox="0 0 93.08 103.02"><defs><style>.cls-1{fill:none;stroke:#0b1f6e;stroke-miterlimit:10;stroke-width:2px;}</style></defs><title>Multi-Language</title><path class="cls-1" d="M42.6,72H4.45A3.46,3.46,0,0,1,1,68.58v-45a3.45,3.45,0,0,1,3.45-3.45H49.31a3.44,3.44,0,0,1,3.45,3.45V41"/><path class="cls-1" d="M27.52,20V4.45A3.45,3.45,0,0,1,31,1H75.82a3.46,3.46,0,0,1,3.46,3.45V41.27"/><path class="cls-1" d="M88.63,41.27H46.12a3.45,3.45,0,0,0-3.45,3.45V87.39a3.45,3.45,0,0,0,3.45,3.45h6.64V101L66.08,90.84H88.63a3.45,3.45,0,0,0,3.45-3.45V44.72A3.45,3.45,0,0,0,88.63,41.27Z"/><path class="cls-1" d="M55.93,80.11c.1-.86,11.45-26.4,11.45-26.4l11.18,26.4"/><line class="cls-1" x1="59.88" y1="70.73" x2="74.46" y2="70.73"/><line class="cls-1" x1="10.45" y1="35.6" x2="42.67" y2="35.6"/><path class="cls-1" d="M36.42,35.6S30.6,56.51,12,60.71"/><path class="cls-1" d="M19.93,44.44S25.21,55,39,60.71"/><line class="cls-1" x1="26.56" y1="35.6" x2="26.56" y2="30.32"/><path class="cls-1" d="M41.05,12H62.39a2.7,2.7,0,0,1,2.7,2.7V41.27"/></svg>