<?xml version="1.0" encoding="utf-8"?>
<!-- Generator: Adobe Illustrator 23.0.2, SVG Export Plug-In . SVG Version: 6.00 Build 0)  -->
<svg version="1.0" id="Layer_1" xmlns="http://www.w3.org/2000/svg" xmlns:xlink="http://www.w3.org/1999/xlink" x="0px" y="0px"
	 width="81.9px" height="90px" viewBox="0 0 81.9 90" style="enable-background:new 0 0 81.9 90;" xml:space="preserve">
<style type="text/css">
	.st0{fill:none;stroke:#13426F;stroke-width:2;stroke-miterlimit:10;}
</style>
<g>
	<path class="st0" d="M38.6,63c-10.9,0-33.4,0-33.4,0c-1.7,0-3-1.4-3-3V20.5c0-1.7,1.4-3,3-3h39.3c1.7,0,3,1.4,3,3c0,0,0,7.1,0,15.2
		"/>
	<path class="st0" d="M25.4,17.4c0-7.4,0-13.6,0-13.6c0-1.7,1.4-3,3-3h39.3c1.7,0,3,1.4,3,3c0,0,0,20.9,0,32.2"/>
	<path class="st0" d="M78.9,36H41.7c-1.7,0-3,1.4-3,3v37.3c0,1.7,1.4,3,3,3h5.8v8.9l11.7-8.9h19.7c1.7,0,3-1.4,3-3V39.1
		C81.9,37.4,80.5,36,78.9,36z"/>
	<path class="st0" d="M50.2,70c0.1-0.8,10-23.1,10-23.1L70,70"/>
	<line class="st0" x1="53.7" y1="61.8" x2="66.5" y2="61.8"/>
	<line class="st0" x1="10.4" y1="31.1" x2="38.6" y2="31.1"/>
	<path class="st0" d="M33.2,31.1c0,0-5.1,18.3-21.4,22"/>
	<path class="st0" d="M18.7,38.8c0,0,4.6,9.2,16.7,14.2"/>
	<line class="st0" x1="24.5" y1="31.1" x2="24.5" y2="26.5"/>
	<path class="st0" d="M37.2,10.4h18.7c1.3,0,2.4,1.1,2.4,2.4V36"/>
</g>
</svg>
