<svg id="Layer_1" data-name="Layer 1" xmlns="http://www.w3.org/2000/svg" viewBox="0 0 92 92"><defs><style>.cls-1{fill:none;stroke:#0b1f6e;stroke-miterlimit:10;stroke-width:2px;}</style></defs><title>Omnichannel</title><circle class="cls-1" cx="45.6" cy="46" r="25.63"/><rect class="cls-1" x="39.1" y="26.29" width="13.75" height="19.09" rx="1.91"/><path class="cls-1" d="M39.1,33s3.65-3.65,6.15-1.16c1.62,1.39,5.45,2,7.6-.17"/><path class="cls-1" d="M43.8,45.37V47.7c.63,0-9.52,1.27-11,5.62v7.17a4.44,4.44,0,0,0,4.44,4.44H54.33a4.43,4.43,0,0,0,4.43-4.44V53.44s-1-3.66-11.13-5.57v-2.5"/><path class="cls-1" d="M41.93,48.1S41.48,54,45.6,54.54c2.43,0,3.68-2.22,4.16-6.21"/><line class="cls-1" x1="45.97" y1="20.37" x2="45.97" y2="13.4"/><circle class="cls-1" cx="46" cy="7.04" r="6.04"/><line class="cls-1" x1="46.03" y1="71.63" x2="46.03" y2="78.6"/><circle class="cls-1" cx="46" cy="84.96" r="6.04"/><line class="cls-1" x1="71.63" y1="45.97" x2="78.6" y2="45.97"/><circle class="cls-1" cx="84.96" cy="46" r="6.04"/><line class="cls-1" x1="19.97" y1="46.03" x2="13.4" y2="46.03"/><circle class="cls-1" cx="7.04" cy="46" r="6.04"/><line class="cls-1" x1="64.78" y1="27.19" x2="68.25" y2="23.72"/><circle class="cls-1" cx="71.43" cy="20.57" r="4.25"/><line class="cls-1" x1="27.2" y1="64.83" x2="23.73" y2="68.3"/><circle class="cls-1" cx="20.55" cy="71.45" r="4.25"/><line class="cls-1" x1="64.78" y1="64.75" x2="68.25" y2="68.22"/><circle class="cls-1" cx="71.4" cy="71.4" r="4.25"/><line class="cls-1" x1="27.2" y1="27.23" x2="23.73" y2="23.76"/><circle class="cls-1" cx="20.58" cy="20.58" r="4.25"/></svg>