<?xml version="1.0" encoding="utf-8"?>
<!-- Generator: Adobe Illustrator 23.0.2, SVG Export Plug-In . SVG Version: 6.00 Build 0)  -->
<svg version="1.0" id="Layer_1" xmlns="http://www.w3.org/2000/svg" xmlns:xlink="http://www.w3.org/1999/xlink" x="0px" y="0px"
	 width="90px" height="90px" viewBox="0 0 90 90" style="enable-background:new 0 0 90 90;" xml:space="preserve">
<style type="text/css">
	.st0{fill:none;stroke:#13426F;stroke-width:2;stroke-miterlimit:10;}
</style>
<g>
	<circle class="st0" cx="44.9" cy="44.7" r="25.2"/>
	<path class="st0" d="M50.1,44.1h-9.7c-1.1,0-1.9-0.9-1.9-1.9V27.3c0-1.1,0.9-1.9,1.9-1.9h9.7c1.1,0,1.9,0.9,1.9,1.9v14.9
		C52,43.2,51.1,44.1,50.1,44.1z"/>
	<path class="st0" d="M38.5,31.9c0,0,3.6-3.6,6-1.1c1.6,1.4,5.4,2,7.5-0.2"/>
	<path class="st0" d="M43.1,44.1v2.3c0.6,0-9.3,1.3-10.8,5.5v7c0,2.4,2,4.4,4.4,4.4h16.7c2.4,0,4.4-2,4.4-4.4V52c0,0-1-3.6-10.9-5.5
		c0-0.6,0-2.4,0-2.4"/>
	<path class="st0" d="M41.2,46.8c0,0-0.4,5.8,3.6,6.3c2.4,0,3.6-2.2,4.1-6.1"/>
	<g>
		<g>
			<line class="st0" x1="45.2" y1="19.5" x2="45.2" y2="12.7"/>
			<circle class="st0" cx="45.2" cy="6.5" r="5.9"/>
		</g>
		<g>
			<line class="st0" x1="45.3" y1="69.9" x2="45.3" y2="76.7"/>
			<circle class="st0" cx="45.2" cy="83" r="5.9"/>
		</g>
	</g>
	<g>
		<g>
			<line class="st0" x1="70.4" y1="44.7" x2="77.3" y2="44.7"/>
			<circle class="st0" cx="83.5" cy="44.7" r="5.9"/>
		</g>
		<g>
			<line class="st0" x1="19.7" y1="44.7" x2="13.2" y2="44.7"/>
			<circle class="st0" cx="7" cy="44.7" r="5.9"/>
		</g>
	</g>
	<g>
		<line class="st0" x1="63.7" y1="26.2" x2="67.1" y2="22.8"/>
		<circle class="st0" cx="70.2" cy="19.7" r="4.2"/>
	</g>
	<g>
		<line class="st0" x1="26.8" y1="63.2" x2="23.4" y2="66.6"/>
		<circle class="st0" cx="20.3" cy="69.7" r="4.2"/>
	</g>
	<g>
		<line class="st0" x1="63.7" y1="63.1" x2="67.1" y2="66.5"/>
		<circle class="st0" cx="70.2" cy="69.6" r="4.2"/>
	</g>
	<g>
		<line class="st0" x1="26.8" y1="26.3" x2="23.4" y2="22.9"/>
		<circle class="st0" cx="20.3" cy="19.8" r="4.2"/>
	</g>
</g>
</svg>
