<svg id="Layer_1" data-name="Layer 1" xmlns="http://www.w3.org/2000/svg" viewBox="0 0 90 89.45"><defs><style>.cls-1{fill:none;stroke:#0b1f6e;stroke-miterlimit:10;stroke-width:2px;}.cls-2{fill:#0b1f6e;}</style></defs><title>Robust </title><path class="cls-1" d="M88.92,35.43l-2.18,6a1.39,1.39,0,0,1-1.77.83l-7.38-2.69A18.88,18.88,0,0,1,75,42.7l3.92,6.8a.91.91,0,0,1,.07.14,1.39,1.39,0,0,1-.57,1.75l-5.53,3.18a1.36,1.36,0,0,1-1.88-.5L67,47.28a19.09,19.09,0,0,1-4,.7l-1.37,7.73A1.37,1.37,0,0,1,60,56.83l-6.28-1.1a1.39,1.39,0,0,1-1.12-1.6L54,46.4a19.51,19.51,0,0,1-3.55-2l-6,5a1.37,1.37,0,0,1-1.94-.17l-4.1-4.88a1.39,1.39,0,0,1,.17-2l6-5a19,19,0,0,1-1.4-3.85H35.33A1.38,1.38,0,0,1,34,32.12V25.74a1.38,1.38,0,0,1,1.38-1.38h7.85a18.9,18.9,0,0,1,1.4-3.86l-6-5a1.38,1.38,0,0,1-.17-1.94l4.1-4.89a1.38,1.38,0,0,1,1.94-.17l6,5A19,19,0,0,1,54,11.45L52.64,3.73a1.38,1.38,0,0,1,1.12-1.6L60,1a1.39,1.39,0,0,1,1.46.71,1.17,1.17,0,0,1,.14.41L63,9.87a18.48,18.48,0,0,1,4,.71L71,3.79a1.37,1.37,0,0,1,1.88-.51l5.53,3.19a1.37,1.37,0,0,1,.5,1.88L75,15.15a19.29,19.29,0,0,1,2.63,3.14L85,15.61a1.38,1.38,0,0,1,1.77.82l2.18,6a1.38,1.38,0,0,1-.83,1.77l-7.37,2.69a19.66,19.66,0,0,1,.11,2.05A20,20,0,0,1,80.72,31l7.37,2.68A1.38,1.38,0,0,1,88.92,35.43Z"/><path class="cls-1" d="M87.12,71.05,57.06,86.52a12,12,0,0,1-13.15,0c-1.86-1.22-2.45-1.33-12.26-6.26-4.36-2.16-8.33-2.85-14.8-3.66V57.45H38.31a5,5,0,0,1,3.56,1.49l9.65,9.8A4.48,4.48,0,0,1,52.81,72l.21-.14,31.5-8.05A4,4,0,0,1,87.12,71.05Z"/><path class="cls-1" d="M51.11,74.87a4.1,4.1,0,0,1-6,0l-7.9-8.15a2.2,2.2,0,0,0-1.59-.68H16.85V57.45H38a4.87,4.87,0,0,1,3.5,1.49L51,68.74A4.49,4.49,0,0,1,51.11,74.87Z"/><path class="cls-1" d="M16.85,56.92V80.54a5.36,5.36,0,0,1-.09,1h0a5.42,5.42,0,0,1-5.31,4.41H6.39A5.41,5.41,0,0,1,1,80.54V56.92a5.41,5.41,0,0,1,4.45-5.31,4.91,4.91,0,0,1,.94-.09h5.06A5.42,5.42,0,0,1,16.85,56.92Z"/><path class="cls-2" d="M74,22.14,59.49,36.65l-.61.62a2.47,2.47,0,0,1-3.47,0L49,30.81a1.34,1.34,0,0,1,1.89-1.89l6.3,6.31,1-.95,14-14A1.33,1.33,0,0,1,74,22.14Z"/><path class="cls-1" d="M12.11,77.44a3.19,3.19,0,1,1-3.19-3.19A3.19,3.19,0,0,1,12.11,77.44Z"/></svg>