<?xml version="1.0" encoding="utf-8"?>
<!-- Generator: Adobe Illustrator 23.0.2, SVG Export Plug-In . SVG Version: 6.00 Build 0)  -->
<svg version="1.0" id="Layer_1" xmlns="http://www.w3.org/2000/svg" xmlns:xlink="http://www.w3.org/1999/xlink" x="0px" y="0px"
	 width="81.9px" height="85.6px" viewBox="0 0 81.9 85.6" style="enable-background:new 0 0 81.9 85.6;" xml:space="preserve">
<style type="text/css">
	.st0{fill:none;stroke:#13426F;stroke-width:2;stroke-miterlimit:10;}
</style>
<g>
	<path class="st0" d="M40.2,67.5c0,6.7,0,12.6,0,12.6c0,2-1.6,3.5-3.5,3.5H4.6C2.6,83.6,1,82,1,80V47.9c0-2,1.6-3.5,3.5-3.5
		c0,0,6.2,0,13.1,0"/>
	<path class="st0" d="M78.6,66.6H21.4c-1.8,0-3.3-1.5-3.3-3.3V5.3c0-1.8,1.5-3.3,3.3-3.3h57.2c1.8,0,3.3,1.5,3.3,3.3v58.1
		C81.9,65.2,80.4,66.6,78.6,66.6z"/>
	<line class="st0" x1="30.5" y1="54" x2="69.9" y2="14.6"/>
	<polygon class="st0" points="26.5,51.1 29.9,54.4 33.3,57.6 28.8,59 24.3,60.3 25.4,55.7 	"/>
	<polygon class="st0" points="75.8,8.7 74.6,13.3 73.3,17.8 70,14.5 66.7,11.1 71.2,9.9 	"/>
</g>
</svg>
