<svg id="Layer_1" data-name="Layer 1" xmlns="http://www.w3.org/2000/svg" viewBox="0 0 101.14 102"><defs><style>.cls-1{fill:none;stroke:#0b1f6e;stroke-miterlimit:10;stroke-width:2px;}</style></defs><title>Scalability</title><path class="cls-1" d="M49,81.26V96.67A4.33,4.33,0,0,1,44.71,101H5.33A4.33,4.33,0,0,1,1,96.67V57.29A4.33,4.33,0,0,1,5.33,53h16"/><rect class="cls-1" x="21.92" y="1" width="78.21" height="79.24" rx="3.28"/><line class="cls-1" x1="37.13" y1="64.79" x2="85.5" y2="16.42"/><polygon class="cls-1" points="32.21 61.24 36.41 65.23 40.6 69.22 35.05 70.86 29.5 72.5 30.85 66.87 32.21 61.24"/><polygon class="cls-1" points="92.69 9.24 91.17 14.83 89.65 20.42 85.57 16.31 81.49 12.2 87.09 10.72 92.69 9.24"/></svg>