<svg id="Layer_1" data-name="Layer 1" xmlns="http://www.w3.org/2000/svg" viewBox="0 0 89 86.27"><defs><style>.cls-1{fill:none;stroke:#0b1f6e;stroke-miterlimit:10;stroke-width:2px;}</style></defs><title>Speed</title><circle class="cls-1" cx="52.12" cy="49.39" r="35.88"/><path class="cls-1" d="M28.77,33.33a1.24,1.24,0,0,0,0-2.47,1.24,1.24,0,0,0,0,2.47Z"/><path class="cls-1" d="M31.68,72.33a1.24,1.24,0,0,0,0-2.48,1.24,1.24,0,0,0,0,2.48Z"/><path class="cls-1" d="M74.05,34.55a1.24,1.24,0,0,0,0-2.47,1.24,1.24,0,0,0,0,2.47Z"/><path class="cls-1" d="M68.48,72.33a1.24,1.24,0,0,0,0-2.48,1.24,1.24,0,0,0,0,2.48Z"/><polyline class="cls-1" points="51.75 34.37 51.75 49.39 42.66 49.39"/><line class="cls-1" x1="15.74" y1="49.39" x2="10.51" y2="49.39"/><line class="cls-1" x1="16.96" y1="39.06" x2="6.41" y2="39.06"/><line class="cls-1" x1="2.82" y1="39.06" y2="39.06"/><line class="cls-1" x1="51.62" y1="13.51" x2="51.62"/><line class="cls-1" x1="51.62" y1="19.03" x2="51.62" y2="22"/><line class="cls-1" x1="51.62" y1="76.53" x2="51.62" y2="79.5"/><line class="cls-1" x1="21.85" y1="47.91" x2="21.85" y2="50.87"/><line class="cls-1" x1="80.29" y1="47.91" x2="80.29" y2="50.87"/></svg>