<?xml version="1.0" encoding="utf-8"?>
<!-- Generator: Adobe Illustrator 23.0.2, SVG Export Plug-In . SVG Version: 6.00 Build 0)  -->
<svg version="1.0" id="Layer_1" xmlns="http://www.w3.org/2000/svg" xmlns:xlink="http://www.w3.org/1999/xlink" x="0px" y="0px"
	 width="80.1px" height="78px" viewBox="0 0 80.1 78" style="enable-background:new 0 0 80.1 78;" xml:space="preserve">
<style type="text/css">
	.st0{fill:none;stroke:#13426F;stroke-width:2;stroke-miterlimit:10;}
</style>
<g>
	<circle class="st0" cx="47.8" cy="44.4" r="32.3"/>
	<g>
		<g>
			<path class="st0" d="M26.8,30c1.4,0,1.4-2.2,0-2.2C25.4,27.8,25.4,30,26.8,30L26.8,30z"/>
		</g>
	</g>
	<g>
		<g>
			<path class="st0" d="M29.5,65c1.4,0,1.4-2.2,0-2.2C28,62.8,28,65,29.5,65L29.5,65z"/>
		</g>
	</g>
	<g>
		<g>
			<path class="st0" d="M67.6,31.1c1.4,0,1.4-2.2,0-2.2S66.1,31.1,67.6,31.1L67.6,31.1z"/>
		</g>
	</g>
	<g>
		<g>
			<path class="st0" d="M62.6,65c1.4,0,1.4-2.2,0-2.2C61.1,62.8,61.1,65,62.6,65L62.6,65z"/>
		</g>
	</g>
	<polyline class="st0" points="47.5,30.9 47.5,44.4 39.3,44.4 	"/>
	<line class="st0" x1="15.1" y1="44.4" x2="10.4" y2="44.4"/>
	<g>
		<line class="st0" x1="16.2" y1="35.1" x2="6.7" y2="35.1"/>
		<line class="st0" x1="3.5" y1="35.1" x2="1" y2="35.1"/>
	</g>
	<line class="st0" x1="47.4" y1="12.1" x2="47.4" y2="0"/>
	<line class="st0" x1="47.4" y1="17.1" x2="47.4" y2="19.8"/>
	<line class="st0" x1="47.4" y1="68.8" x2="47.4" y2="71.5"/>
	<line class="st0" x1="20.6" y1="43.1" x2="20.6" y2="45.7"/>
	<line class="st0" x1="73.2" y1="43.1" x2="73.2" y2="45.7"/>
</g>
</svg>
