<svg id="Layer_1" data-name="Layer 1" xmlns="http://www.w3.org/2000/svg" viewBox="0 0 95.38 94.92"><defs><style>.cls-1{fill:none;stroke:#0b1f6e;stroke-miterlimit:10;stroke-width:2px;}</style></defs><title>Streamlined Operations</title><path class="cls-1" d="M50,59.14c-3.44-10-11.62-9.5-11.62-9.5L34.1,57.55l-4.31-7.9c-7.9-.37-12,9.81-12,9.81s.06.12.18.32"/><path class="cls-1" d="M66.59,53.15V43.52l-6.83-1.64h0a26.6,26.6,0,0,0-3.13-7.57l3.86-5.8-6.8-6.81-6,3.67h0a26.6,26.6,0,0,0-7.57-3.13L38.74,15.4H29.12l-1.65,6.84h0a26.66,26.66,0,0,0-7.56,3.13h0l-6-3.62-7,7L11,34.31h0a26.31,26.31,0,0,0-3.13,7.57h0L1,43.58V53.5l6.83,1h0A26.25,26.25,0,0,0,11,62.08h0l-3.62,6,7,7L19.91,71h0a26.66,26.66,0,0,0,7.56,3.13h0L29.18,81H39.1l1-6.83h0A26.68,26.68,0,0,0,47.68,71l5.8,3.86,6.81-6.8-3.67-6h0a26.37,26.37,0,0,0,3.13-7.56ZM33.79,67.79A19.59,19.59,0,1,1,53.38,48.2,19.59,19.59,0,0,1,33.79,67.79Z"/><path class="cls-1" d="M94.29,18.13l-.54-4.74L90.29,13h0a13.32,13.32,0,0,0-2-3.56l1.58-3.07-3.74-3L83.4,5.5h0a13,13,0,0,0-3.91-1.12L78.43,1.09l-4.74.54-.43,3.46h0a13.36,13.36,0,0,0-3.55,2h0L66.52,5.61,63.46,9.47,65.8,12h0a13,13,0,0,0-1.12,3.91h0l-3.27,1.23L62,22l3.43.12h0a13.51,13.51,0,0,0,2,3.55h0l-1.45,3.18,3.86,3.07,2.5-2.34h0a13.64,13.64,0,0,0,3.91,1.12h0L77.41,34l4.89-.56L82.42,30h0A13,13,0,0,0,86,28l3.08,1.58,3-3.74L89.88,23.1h0A13.55,13.55,0,0,0,91,19.19Zm-15.55,7.3a7.94,7.94,0,1,1,7-8.79A7.94,7.94,0,0,1,78.74,25.43Z"/><path class="cls-1" d="M94.29,78l-.54-4.75-3.46-.43h0a13.26,13.26,0,0,0-2-3.55l1.58-3.08-3.74-3L83.4,65.36h0a13.55,13.55,0,0,0-3.91-1.12L78.43,61l-4.74.54L73.26,65h0a13.06,13.06,0,0,0-3.55,2h0l-3.19-1.44-3.06,3.85,2.34,2.51h0a13,13,0,0,0-1.12,3.9h0L61.41,77,62,81.86l3.43.12h0a13.36,13.36,0,0,0,2,3.55h0l-1.45,3.19,3.86,3.06,2.5-2.34h0a13,13,0,0,0,3.91,1.12h0l1.23,3.27,4.89-.55.12-3.43h0a13.51,13.51,0,0,0,3.55-2l3.08,1.58,3-3.74L89.88,83h0A13.64,13.64,0,0,0,91,79.06ZM78.74,85.29a7.94,7.94,0,1,1,7-8.79A7.94,7.94,0,0,1,78.74,85.29Z"/><circle class="cls-1" cx="33.78" cy="39.71" r="6.94"/><path class="cls-1" d="M23.77,65c.41-.41,1-4.73,1-4.73"/><line class="cls-1" x1="44.26" y1="64.76" x2="43.29" y2="60.3"/></svg>