<?xml version="1.0" encoding="utf-8"?>
<!-- Generator: Adobe Illustrator 23.0.2, SVG Export Plug-In . SVG Version: 6.00 Build 0)  -->
<svg version="1.0" id="Layer_1" xmlns="http://www.w3.org/2000/svg" xmlns:xlink="http://www.w3.org/1999/xlink" x="0px" y="0px"
	 viewBox="0 0 1451.34 1451.34" style="enable-background:new 0 0 1451.34 1451.34;" xml:space="preserve">
<style type="text/css">
	.st0{fill:#1D4499;}
	.st1{fill:#FDF7DE;}
	.st2{fill:#6885A4;}
	.st3{fill:#3E4151;}
	.st4{fill:#BEE6F4;}
	.st5{fill:#EAF7FE;}
	.st6{fill:#435272;}
	.st7{fill:url(#SVGID_1_);}
	.st8{fill:#5385A2;}
	.st9{opacity:0.6;fill:#788399;}
	.st10{fill:#449BA9;}
	.st11{fill:url(#SVGID_2_);}
	.st12{fill:url(#SVGID_3_);}
	.st13{fill:url(#SVGID_4_);}
	.st14{fill:url(#SVGID_5_);}
	.st15{fill:url(#SVGID_6_);}
	.st16{fill:#5179B5;}
	.st17{fill:url(#SVGID_7_);}
	.st18{fill:url(#SVGID_8_);}
	.st19{fill:#6463AD;}
	.st20{fill:#F4FAFA;}
	.st21{fill:#C8DBE9;}
	.st22{fill:#FFFFFF;}
	.st23{fill:#F7FCFE;}
	.st24{fill:#51529D;}
	.st25{fill:#4B4C9A;}
	.st26{fill:#93D8F2;}
	.st27{fill:url(#SVGID_9_);}
	.st28{fill:#3EACC8;}
	.st29{fill:url(#SVGID_10_);}
	.st30{fill:#69CDF0;}
	.st31{opacity:0.8;}
	.st32{fill:#6CA4BE;}
	.st33{fill:url(#SVGID_11_);}
	.st34{fill:#59A8CC;}
	.st35{fill:url(#SVGID_12_);}
	.st36{fill:url(#SVGID_13_);}
	.st37{opacity:0.5;fill:#DEF2FB;}
	.st38{fill:url(#SVGID_14_);}
	.st39{fill:url(#SVGID_15_);}
	.st40{fill:#AFE0ED;}
	.st41{fill:#84D2DF;}
	.st42{fill:#6FCEEA;}
	.st43{fill:#90D6E8;}
	.st44{fill:url(#SVGID_16_);}
	.st45{fill:#469BB2;}
	.st46{fill:url(#SVGID_17_);}
	.st47{fill:url(#SVGID_18_);}
	.st48{fill:url(#SVGID_19_);}
	.st49{fill:url(#SVGID_20_);}
</style>
<g>
	<polygon class="st0" points="169.55,592.79 169.55,741.27 180.85,747.8 180.85,592.79 	"/>
	<g>
		<polygon class="st0" points="842.02,373.58 831.53,373.58 831.53,185.64 703.95,259.3 698.71,250.23 842.02,167.49 		"/>
	</g>
	<g>
		<polygon class="st0" points="1014.08,1171.67 791.51,1043.17 796.37,1034.75 1014.08,1160.44 1308.2,990.64 1313.06,999.06 		"/>
	</g>
	<g>
		
			<rect x="85.46" y="1016.97" transform="matrix(0.866 -0.5 0.5 0.866 -480.1929 252.435)" class="st0" width="290.91" height="10.48"/>
	</g>
	<g>
		
			<rect x="197.94" y="465.72" transform="matrix(0.866 -0.5001 0.5001 0.866 -189.4962 234.8513)" class="st1" width="290.91" height="10.48"/>
	</g>
	<g>
		<polygon class="st0" points="78.79,1096.21 67.49,1096.21 67.49,916.12 170.22,856.81 170.22,708.32 181.52,708.32 181.52,863.33 
			78.79,922.65 		"/>
	</g>
	<g>
		<g>
			<polygon class="st2" points="607.33,577.03 212.27,805.12 332.32,1132.23 371.4,1136.62 618.53,576.59 			"/>
			<polygon class="st3" points="212.27,805.12 332.32,1132.23 376.01,1140.13 455.84,945.27 226.95,804.68 			"/>
			<polygon class="st2" points="332.32,1132.23 754.88,919.95 989.68,1042.34 990.11,1055.76 595.05,1283.85 			"/>
			<polygon class="st3" points="558.91,969.82 332.32,1132.23 594.89,1283.76 			"/>
			<polygon class="st4" points="359.82,1134.87 754.88,906.78 990.11,1042.59 595.05,1270.68 			"/>
			<polygon class="st5" points="618.53,576.59 223.47,804.68 359.82,1134.87 381.06,1123.89 755.36,906.85 			"/>
			<polygon class="st6" points="608.28,618.49 257.69,821.75 373.69,1101.8 724.28,898.54 			"/>
			<linearGradient id="SVGID_1_" gradientUnits="userSpaceOnUse" x1="259.3175" y1="859.3011" x2="714.1952" y2="859.3011">
				<stop  offset="0" style="stop-color:#0562A0"/>
				<stop  offset="1" style="stop-color:#3087C8"/>
			</linearGradient>
			<polygon class="st7" points="601.11,623.71 259.32,821.87 372.41,1094.89 714.2,896.74 			"/>
			<g>
				<polygon class="st8" points="424.09,1117.67 399.73,1131.73 414.34,1140.17 438.7,1126.11 				"/>
				<polygon class="st8" points="453.6,1100.62 429.24,1114.69 443.85,1123.13 468.22,1109.06 				"/>
				<polygon class="st8" points="483.12,1083.58 458.75,1097.65 473.37,1106.09 497.74,1092.02 				"/>
				<polygon class="st8" points="512.64,1066.55 488.27,1080.61 502.89,1089.05 527.25,1074.98 				"/>
				<polygon class="st8" points="542.15,1049.5 517.79,1063.57 532.39,1072.01 556.76,1057.94 				"/>
				<polygon class="st8" points="571.66,1032.46 547.31,1046.53 561.91,1054.97 586.28,1040.9 				"/>
				<polygon class="st8" points="601.18,1015.42 576.82,1029.49 591.43,1037.92 615.8,1023.86 				"/>
				<polygon class="st8" points="630.7,998.38 606.33,1012.45 620.95,1020.89 645.31,1006.82 				"/>
				<polygon class="st8" points="660.21,981.34 635.85,995.41 650.47,1003.84 674.82,989.78 				"/>
				<polygon class="st8" points="689.73,964.3 665.37,978.37 679.98,986.8 704.34,972.74 				"/>
				<polygon class="st8" points="719.25,947.26 694.88,961.33 709.5,969.76 733.86,955.7 				"/>
				<polygon class="st8" points="748.76,930.22 724.39,944.28 739.02,952.72 763.37,938.66 				"/>
				<polygon class="st8" points="442.48,1128.28 418.11,1142.35 432.72,1150.79 457.09,1136.72 				"/>
				<polygon class="st8" points="471.99,1111.24 447.62,1125.31 462.24,1133.75 486.6,1119.68 				"/>
				<polygon class="st8" points="501.51,1094.2 477.14,1108.27 491.75,1116.7 516.12,1102.64 				"/>
				<polygon class="st8" points="531.02,1077.16 506.66,1091.23 521.28,1099.66 545.63,1085.6 				"/>
				<polygon class="st8" points="560.53,1060.12 536.18,1074.18 550.78,1082.62 575.15,1068.56 				"/>
				<polygon class="st8" points="590.05,1043.08 565.68,1057.14 580.3,1065.58 604.67,1051.52 				"/>
				<polygon class="st8" points="619.57,1026.04 595.2,1040.1 609.82,1048.54 634.18,1034.48 				"/>
				<polygon class="st8" points="649.08,1009 624.72,1023.06 639.34,1031.5 663.7,1017.44 				"/>
				<polygon class="st8" points="678.59,991.96 654.24,1006.02 668.86,1014.46 693.22,1000.39 				"/>
				<polygon class="st8" points="708.12,974.91 683.76,988.99 698.36,997.42 722.73,983.36 				"/>
				<polygon class="st8" points="737.63,957.87 713.27,971.94 727.88,980.38 752.25,966.31 				"/>
				<polygon class="st8" points="767.14,940.84 742.79,954.9 757.4,963.34 781.77,949.27 				"/>
				<polygon class="st8" points="460.86,1138.9 436.5,1152.96 451.12,1161.4 475.48,1147.34 				"/>
				<polygon class="st8" points="490.37,1121.86 466.01,1135.92 480.63,1144.36 504.99,1130.3 				"/>
				<polygon class="st8" points="519.89,1104.81 495.53,1118.88 510.14,1127.32 534.51,1113.26 				"/>
				<polygon class="st8" points="549.41,1087.78 525.04,1101.84 539.66,1110.28 564.02,1096.21 				"/>
				<polygon class="st8" points="578.92,1070.74 554.56,1084.8 569.18,1093.23 593.54,1079.17 				"/>
				<polygon class="st8" points="608.44,1053.7 584.07,1067.76 598.69,1076.2 623.05,1062.14 				"/>
				<polygon class="st8" points="637.95,1036.66 613.59,1050.72 628.21,1059.15 652.57,1045.09 				"/>
				<polygon class="st8" points="667.48,1019.61 643.11,1033.68 657.72,1042.12 682.08,1028.05 				"/>
				<polygon class="st8" points="696.99,1002.58 672.63,1016.64 687.24,1025.08 711.6,1011.01 				"/>
				<polygon class="st8" points="726.5,985.53 702.13,999.6 716.75,1008.04 741.12,993.97 				"/>
				<polygon class="st8" points="756.02,968.49 731.65,982.56 746.27,991 770.64,976.93 				"/>
				<polygon class="st8" points="785.53,951.45 761.17,965.51 775.78,973.96 800.14,959.89 				"/>
				<polygon class="st8" points="479.24,1149.51 454.89,1163.58 469.5,1172.02 493.86,1157.95 				"/>
				<polygon class="st8" points="508.76,1132.48 484.4,1146.54 499.01,1154.98 523.38,1140.91 				"/>
				<polygon class="st8" points="538.28,1115.43 513.92,1129.5 528.53,1137.94 552.89,1123.87 				"/>
				<polygon class="st8" points="567.8,1098.39 543.43,1112.46 558.05,1120.89 582.4,1106.83 				"/>
				<polygon class="st8" points="597.31,1081.35 572.95,1095.42 587.56,1103.85 611.92,1089.79 				"/>
				<polygon class="st8" points="626.82,1064.31 602.46,1078.38 617.07,1086.81 641.44,1072.74 				"/>
				<polygon class="st8" points="656.34,1047.27 631.98,1061.34 646.59,1069.77 670.96,1055.71 				"/>
				<polygon class="st8" points="685.86,1030.23 661.49,1044.29 676.11,1052.73 700.47,1038.67 				"/>
				<polygon class="st8" points="715.37,1013.19 691.01,1027.25 705.63,1035.69 729.98,1021.63 				"/>
				<polygon class="st8" points="744.88,996.15 720.53,1010.22 735.14,1018.65 759.51,1004.59 				"/>
				<polygon class="st8" points="774.4,979.11 750.04,993.17 764.65,1001.61 789.02,987.55 				"/>
				<polygon class="st8" points="803.91,962.07 779.55,976.13 794.17,984.57 818.53,970.51 				"/>
				<polygon class="st8" points="497.63,1160.13 473.27,1174.19 487.88,1182.63 512.25,1168.57 				"/>
				<polygon class="st8" points="527.15,1143.09 502.78,1157.15 517.4,1165.59 541.76,1151.53 				"/>
				<polygon class="st8" points="556.66,1126.05 532.3,1140.12 546.91,1148.55 571.28,1134.49 				"/>
				<polygon class="st8" points="586.18,1109.01 561.82,1123.07 576.43,1131.51 600.79,1117.45 				"/>
				<polygon class="st8" points="615.69,1091.96 591.33,1106.03 605.94,1114.47 630.31,1100.41 				"/>
				<polygon class="st8" points="645.21,1074.92 620.85,1088.99 635.46,1097.43 659.82,1083.36 				"/>
				<polygon class="st8" points="674.73,1057.88 650.36,1071.95 664.98,1080.39 689.34,1066.32 				"/>
				<polygon class="st8" points="704.24,1040.84 679.88,1054.91 694.49,1063.35 718.85,1049.28 				"/>
				<polygon class="st8" points="733.76,1023.8 709.39,1037.87 724.01,1046.31 748.37,1032.24 				"/>
				<polygon class="st8" points="763.28,1006.76 738.9,1020.83 753.53,1029.27 777.89,1015.2 				"/>
				<polygon class="st8" points="792.79,989.72 768.43,1003.78 783.04,1012.23 807.4,998.16 				"/>
				<polygon class="st8" points="822.3,972.68 797.94,986.75 812.56,995.19 836.92,981.12 				"/>
				<polygon class="st8" points="516.02,1170.74 491.66,1184.81 506.27,1193.25 530.63,1179.18 				"/>
				<polygon class="st8" points="545.54,1153.7 521.17,1167.77 535.79,1176.21 560.15,1162.14 				"/>
				<polygon class="st8" points="575.05,1136.66 550.69,1150.73 565.3,1159.17 589.66,1145.1 				"/>
				<polygon class="st8" points="604.57,1119.62 580.2,1133.69 594.82,1142.12 619.18,1128.06 				"/>
				<polygon class="st8" points="634.08,1102.58 609.72,1116.64 624.34,1125.08 648.69,1111.02 				"/>
				<polygon class="st8" points="663.6,1085.54 639.23,1099.6 653.85,1108.04 678.21,1093.98 				"/>
				<polygon class="st8" points="693.11,1068.5 668.75,1082.57 683.37,1091 707.73,1076.94 				"/>
				<polygon class="st8" points="722.63,1051.46 698.27,1065.53 712.88,1073.96 737.25,1059.9 				"/>
				<polygon class="st8" points="752.14,1034.42 727.78,1048.48 742.4,1056.92 766.76,1042.86 				"/>
				<polygon class="st8" points="781.66,1017.38 757.3,1031.45 771.92,1039.88 796.28,1025.82 				"/>
				<polygon class="st8" points="811.18,1000.34 786.81,1014.4 801.43,1022.84 825.79,1008.78 				"/>
				<polygon class="st8" points="840.69,983.29 816.33,997.36 830.94,1005.8 855.3,991.74 				"/>
				<polygon class="st8" points="534.4,1181.36 510.04,1195.43 524.66,1203.86 549.02,1189.8 				"/>
				<polygon class="st8" points="563.92,1164.32 539.56,1178.38 554.17,1186.82 578.54,1172.76 				"/>
				<polygon class="st8" points="593.44,1147.28 569.08,1161.34 583.7,1169.78 608.05,1155.72 				"/>
				<polygon class="st8" points="622.95,1130.24 598.59,1144.31 613.21,1152.74 637.57,1138.68 				"/>
				<polygon class="st8" points="652.47,1113.19 628.1,1127.26 642.72,1135.7 667.09,1121.63 				"/>
				<polygon class="st8" points="681.98,1096.16 657.62,1110.22 672.24,1118.66 696.6,1104.59 				"/>
				<polygon class="st8" points="711.5,1079.12 687.14,1093.18 701.75,1101.61 726.11,1087.56 				"/>
				<polygon class="st8" points="741.01,1062.08 716.65,1076.14 731.27,1084.58 755.63,1070.51 				"/>
				<polygon class="st8" points="770.53,1045.03 746.17,1059.1 760.78,1067.54 785.14,1053.47 				"/>
				<polygon class="st8" points="800.04,1028 775.69,1042.06 790.3,1050.5 814.66,1036.43 				"/>
				<polygon class="st8" points="829.56,1010.96 805.2,1025.02 819.81,1033.45 844.17,1019.39 				"/>
				<polygon class="st8" points="859.07,993.91 834.72,1007.97 849.33,1016.42 873.69,1002.35 				"/>
			</g>
			<polygon class="st8" points="774.79,1085.01 681.59,1138.81 737.5,1171.09 830.7,1117.29 			"/>
			<polygon class="st4" points="750.91,1137.9 719.96,1155.77 738.54,1166.49 769.48,1148.62 			"/>
			<polygon class="st4" points="804.91,1106.28 773.97,1124.15 792.55,1134.88 823.49,1117.01 			"/>
		</g>
	</g>
	<polygon class="st9" points="243.46,787.41 277.36,858.96 576.76,691.37 532.86,618.67 	"/>
	<g>
		<g>
			<g>
				<polygon class="st10" points="752.36,179.81 345.22,414.87 345.22,845.45 352.57,850.22 759.16,184.65 				"/>
				<g>
					<polygon class="st3" points="443.78,475.98 345.22,414.87 345.22,845.45 352.57,850.22 					"/>
				</g>
			</g>
			<linearGradient id="SVGID_2_" gradientUnits="userSpaceOnUse" x1="352.0322" y1="526.017" x2="759.1637" y2="526.017">
				<stop  offset="0" style="stop-color:#0562A0"/>
				<stop  offset="1" style="stop-color:#3087C8"/>
			</linearGradient>
			<polygon class="st11" points="759.16,201.5 352.03,436.56 352.03,850.53 759.16,615.48 			"/>
			<polygon class="st5" points="752.53,235.06 358.66,462.47 358.66,838.37 752.54,610.97 			"/>
			<linearGradient id="SVGID_3_" gradientUnits="userSpaceOnUse" x1="366.4333" y1="640.0801" x2="486.8062" y2="640.0801">
				<stop  offset="0" style="stop-color:#0562A0"/>
				<stop  offset="1" style="stop-color:#3087C8"/>
			</linearGradient>
			<polygon class="st12" points="486.81,549.41 366.43,618.92 366.43,730.75 486.81,661.25 			"/>
			<linearGradient id="SVGID_4_" gradientUnits="userSpaceOnUse" x1="494.6176" y1="566.0757" x2="614.9973" y2="566.0757">
				<stop  offset="0" style="stop-color:#0562A0"/>
				<stop  offset="1" style="stop-color:#3087C8"/>
			</linearGradient>
			<polygon class="st13" points="615,475.41 494.62,544.9 494.62,656.75 615,587.25 			"/>
			<linearGradient id="SVGID_5_" gradientUnits="userSpaceOnUse" x1="622.8054" y1="492.0641" x2="743.1808" y2="492.0641">
				<stop  offset="0" style="stop-color:#0562A0"/>
				<stop  offset="1" style="stop-color:#3087C8"/>
			</linearGradient>
			<polygon class="st14" points="743.18,401.4 622.81,470.89 622.81,582.73 743.18,513.24 			"/>
			<linearGradient id="SVGID_6_" gradientUnits="userSpaceOnUse" x1="366.4333" y1="520.3865" x2="486.8062" y2="520.3865">
				<stop  offset="0" style="stop-color:#0562A0"/>
				<stop  offset="1" style="stop-color:#3087C8"/>
			</linearGradient>
			<polygon class="st15" points="486.81,429.72 366.43,499.22 366.43,611.06 486.81,541.56 			"/>
			<polygon class="st16" points="615,355.71 494.62,425.2 494.62,537.05 615,467.55 			"/>
			<linearGradient id="SVGID_7_" gradientUnits="userSpaceOnUse" x1="622.8054" y1="372.3721" x2="743.1808" y2="372.3721">
				<stop  offset="0" style="stop-color:#0562A0"/>
				<stop  offset="1" style="stop-color:#3087C8"/>
			</linearGradient>
			<polygon class="st17" points="743.18,281.7 622.81,351.2 622.81,463.04 743.18,393.54 			"/>
			<linearGradient id="SVGID_8_" gradientUnits="userSpaceOnUse" x1="352.0322" y1="340.0998" x2="759.1637" y2="340.0998">
				<stop  offset="0" style="stop-color:#0562A0"/>
				<stop  offset="1" style="stop-color:#3087C8"/>
			</linearGradient>
			<polygon class="st18" points="352.03,419.71 352.03,495.55 759.16,260.49 759.16,184.65 			"/>
			<polygon class="st19" points="720.58,212.93 720.58,247.5 754.8,227.74 754.8,193.18 			"/>
			<path class="st20" d="M682.8,391.45c-7.88,4.55-14.27,0.91-14.27-8.14c0-9.05,6.39-20.06,14.27-24.62
				c7.88-4.55,14.27-0.91,14.27,8.14C697.06,375.88,690.68,386.9,682.8,391.45z"/>
			<polygon class="st20" points="721.08,319.42 706.11,328.06 706.1,332.6 721.08,323.95 			"/>
			<polygon class="st20" points="694.56,329.86 676.68,340.19 669.94,352.95 701.3,334.84 			"/>
			<path class="st20" d="M642.81,370.76v55.77l84.21-48.62v-55.78L642.81,370.76z M652.84,389.13c-1.72,0.99-3.11,0.2-3.11-1.77
				c0-1.97,1.39-4.37,3.11-5.36c1.72-0.99,3.11-0.2,3.11,1.77C655.95,385.74,654.56,388.13,652.84,389.13z M682.8,395.02
				c-9.6,5.54-17.38,1.11-17.38-9.91c0-11.01,7.78-24.43,17.38-29.97c9.6-5.54,17.38-1.11,17.38,9.91
				C700.17,376.06,692.39,389.47,682.8,395.02z"/>
			<path class="st20" d="M575.09,511.21l-39.82,22.99c-2.18,1.25-3.94,4.29-3.94,6.79v80.08c0,2.09,1.47,2.92,3.28,1.87l39.6-22.86
				c2.66-1.53,4.81-5.25,4.81-8.3v-78.33C579.03,510.96,577.27,509.96,575.09,511.21z M557.32,606.74l-4.27,2.46v-4.18l4.27-2.46
				V606.74z M576.4,588.77l-42.44,24.5v-71.79l42.44-24.51L576.4,588.77z"/>
			<g>
				<path class="st20" d="M720.16,460.66c0-14.02-9.91-19.67-22.12-12.61l-37.58,21.7c-11.2,6.46-20.27,22.11-20.27,34.96v2.87
					c31.23-20.85,49.12-30.64,79.98-46.17V460.66z"/>
				<path class="st20" d="M720.16,484.35c-32.2,20.82-51.98,32.87-79.98,46.17l0,4.36c0,5.69,4.02,7.98,8.98,5.12l61.09-35.27
					c5.47-3.15,9.91-10.8,9.91-17.07V484.35z"/>
				<path class="st20" d="M721.64,471.92c0-5.16-0.87-8.85-42.21,15.02c-41.34,23.87-42.21,28.55-42.21,33.72
					c0,5.16,0.87,8.84,42.21-15.02C720.78,481.76,721.64,477.08,721.64,471.92z"/>
			</g>
			<path class="st20" d="M478.74,619.38l-32.54-23.07v-0.05c-0.02,0-0.03,0.01-0.05,0.01l-0.03-0.02l-0.01,0.04
				c-4.17,1.16-7.89,2.39-11.39,3.81c-0.43,2.52-5.92,6.53-8.75,8.17c-5.21,3-8.43,3.27-8.69,1.75c-3.59,2.66-7.32,5.78-11.48,9.54
				l-0.01-0.03l-0.04,0.07c0,0.01-0.01,0.01-0.02,0.02v0.01l-32.25,60.51l5.62,2.41l26.63-41.05v42.48l40.46-23.36v-42.45
				l26.87,10.14L478.74,619.38z"/>
			<g>
				<polygon class="st21" points="566.01,460.39 547.62,471.01 544.52,497.74 569.1,483.55 				"/>
				<polygon class="st21" points="571.7,478.6 541.93,495.78 541.93,500.39 571.7,483.2 				"/>
				<path class="st21" d="M595.86,380.42l-78.09,45.09c-3.09,1.78-5.6,6.11-5.6,9.66v59.67c0,3.55,2.51,4.98,5.6,3.19l78.09-45.08
					c3.1-1.79,5.6-6.12,5.6-9.67v-59.67C601.46,380.06,598.95,378.63,595.86,380.42z M596.78,441.86l-79.93,46.15V431.6l79.93-46.15
					V441.86z"/>
			</g>
			<g>
				<polygon class="st20" points="442.23,490.54 402.99,513.2 402.99,573.3 442.23,550.64 				"/>
				<polygon class="st20" points="428.72,483.84 416.49,490.91 416.49,505.4 428.72,498.34 				"/>
				<polygon class="st20" points="424.14,478.98 421.08,480.75 421.08,494.7 424.14,492.93 				"/>
				<polygon class="st20" points="439.68,468.4 414.2,483.11 414.2,487.93 439.68,473.22 				"/>
			</g>
			<g>
				<path class="st22" d="M404.4,427.84c0-2.83-0.82-5.08-2.22-4.27c-1.79,1.03-2.42,5.06-2.42,7.45c0,2.22,0.15,5.07,2.08,3.96
					C403.73,433.89,404.4,430.62,404.4,427.84z"/>
			</g>
			<polygon class="st4" points="385.28,795.48 368.06,805.42 368.06,825.18 385.28,815.24 			"/>
			<polygon class="st4" points="410.2,781.09 392.98,791.03 392.98,810.79 410.2,800.85 			"/>
			<polygon class="st4" points="435.13,766.69 417.91,776.64 417.9,796.4 435.13,786.46 			"/>
			<polygon class="st4" points="460.05,752.31 442.83,762.25 442.83,782.01 460.05,772.07 			"/>
			<polygon class="st23" points="750.4,206.18 747.2,204.36 740.2,216.44 733.2,212.44 730,217.96 737.01,221.95 730,234.03 
				733.2,235.85 740.2,223.77 747.2,227.76 750.4,222.25 743.4,218.26 			"/>
		</g>
	</g>
	<g>
		<g>
			<polygon class="st24" points="660.4,901.02 627.25,881.58 633.95,1005.32 679.82,1031.8 			"/>
			<path class="st25" d="M646.51,872.02c-29.49,25.79-46.4,33.96-76.39,44.1l-15.15,136.89l99.11-57.22L646.51,872.02z"/>
			<g>
				<polygon class="st26" points="637.58,882.57 624.8,875.2 576.63,903.41 589.41,913.54 				"/>
				<linearGradient id="SVGID_9_" gradientUnits="userSpaceOnUse" x1="589.5076" y1="932.2683" x2="637.8126" y2="932.2683">
					<stop  offset="0" style="stop-color:#0562A0"/>
					<stop  offset="1" style="stop-color:#3087C8"/>
				</linearGradient>
				<polygon class="st27" points="589.51,910.57 637.81,882.68 637.81,953.97 589.51,981.86 				"/>
				<polygon class="st28" points="589.54,910.7 576.76,903.31 576.76,971.67 589.54,979.05 				"/>
			</g>
			<g>
				<polygon class="st26" points="676.35,866.28 664.19,857.92 613.94,882.24 625.88,893.35 				"/>
				<linearGradient id="SVGID_10_" gradientUnits="userSpaceOnUse" x1="620.5759" y1="913.9374" x2="676.5703" y2="913.9374">
					<stop  offset="0" style="stop-color:#0562A0"/>
					<stop  offset="1" style="stop-color:#3087C8"/>
				</linearGradient>
				<polygon class="st29" points="626.21,890.4 676.57,866.41 670.93,937.48 620.58,961.46 				"/>
				<polygon class="st28" points="626.24,890.52 614.08,882.15 608.67,950.29 620.83,958.67 				"/>
			</g>
			<path class="st3" d="M679.66,891.46c-29.5,25.79-46.41,33.96-76.4,44.11l-2.92,144.11l99.11-57.21L679.66,891.46z"/>
			<path class="st8" d="M603.26,935.57c-13.37,4.34-24-4.8-33.15-19.44l-15.42,136.68l45.87,26.48L603.26,935.57z"/>
			<polygon class="st3" points="845.17,830.13 777.24,795.7 788.82,1009.66 837.74,1037.91 			"/>
			<path class="st3" d="M777.24,795.7c-51,44.59-80.23,58.72-132.09,76.26l-13.64,226.64l158.81-88.89L777.24,795.7z"/>
			<polygon class="st30" points="770.26,903.78 741.28,896.2 738.43,806.88 834.77,786.01 835.42,852.61 			"/>
			<path class="st28" d="M740.89,883.98l0.39,12.23l28.98,7.57l65.16-51.17l-0.26-26.66l-0.01-0.07
				C801.06,855.69,771.94,871.52,740.89,883.98z"/>
			<polygon class="st8" points="766.49,903.49 741.28,896.2 738.43,806.88 756.16,813.31 			"/>
			<polygon class="st26" points="738.43,806.88 816.48,775.43 835.19,786.23 757.15,817.69 			"/>
			<polygon class="st26" points="699.87,916.68 677.94,905.82 689.11,838.88 768.95,840.75 759.44,890.39 			"/>
			<path class="st8" d="M679.47,896.66l-1.53,9.16l21.93,10.86l59.57-26.29l3.81-19.87l0-0.06
				C731.62,886.48,706.06,893,679.47,896.66z"/>
			<polygon class="st8" points="696.91,915.79 677.94,905.82 689.11,838.88 702.26,846.86 			"/>
			<polygon class="st30" points="689.11,838.88 755.98,829.58 769.25,840.99 702.39,850.29 			"/>
			<path class="st21" d="M845.17,830.13c-51,44.6-90.85,57.9-142.72,75.45l-5.05,249.18l171.37-98.94L845.17,830.13z"/>
			<g class="st31">
				<path class="st8" d="M768.35,989.89c-3.77-0.03-7.27-1.13-10.48-3.28c-24.42-16.36-23.3-89.43-23.24-92.54l3.55-0.24
					c-0.01,0.74-1.15,74.26,21.79,89.64c5.13,3.43,10.96,3.64,17.84,0.63c42.2-18.45,26.36-122.03,26.2-123.07l3.5-0.89
					c0.69,4.39,16.45,107.66-28.56,127.34C775.22,989.11,771.68,989.91,768.35,989.89z"/>
			</g>
			<path class="st32" d="M702.46,905.58l-57.31-33.62l-26.67,236.31c35.71,6.03,54.89,19.23,79.31,45.79L702.46,905.58z"/>
			<linearGradient id="SVGID_11_" gradientUnits="userSpaceOnUse" x1="451.486" y1="1099.9591" x2="671.1105" y2="1099.9591">
				<stop  offset="0" style="stop-color:#0562A0"/>
				<stop  offset="1" style="stop-color:#3087C8"/>
			</linearGradient>
			<polygon class="st33" points="539.38,1036.65 451.49,1087.4 582.91,1163.27 671.11,1112.04 			"/>
			<polygon class="st8" points="546.33,1031.95 466,1079.02 563.19,1133.98 586.1,1134.12 600.54,1097.08 			"/>
			<polygon class="st28" points="671.11,1112.04 582.67,1163.1 582.68,1223.24 671.11,1172.18 			"/>
			<polygon class="st8" points="452.11,1087.64 452.11,1147.77 582.81,1223.24 582.81,1163.1 			"/>
			<polygon class="st32" points="452.11,1087.64 509.89,1162.68 582.81,1163.1 			"/>
			<g>
				<polygon class="st26" points="555.85,1018.34 493.13,1054.55 586.91,1108.7 649.63,1072.49 				"/>
				<polygon class="st30" points="649.85,1072.14 586.74,1108.57 586.74,1134.3 649.85,1097.87 				"/>
				<polygon class="st34" points="493.57,1054.73 493.57,1080.45 586.84,1134.3 586.84,1108.57 				"/>
			</g>
			<g>
				<linearGradient id="SVGID_12_" gradientUnits="userSpaceOnUse" x1="736.4088" y1="923.4448" x2="816.8069" y2="923.4448">
					<stop  offset="0" style="stop-color:#0562A0"/>
					<stop  offset="1" style="stop-color:#3087C8"/>
				</linearGradient>
				<path class="st35" d="M779.91,987.79c-3.89,0-7.61-1.05-11.11-3.15c-26.67-16-32.17-88.31-32.39-91.39l3.64-0.26
					c0.05,0.74,5.58,73.5,30.63,88.52c5.6,3.36,11.64,3.52,18.46,0.49c41.83-18.59,16.07-120.96,15.8-121.99l3.53-0.9
					c1.11,4.33,26.77,106.39-17.85,126.22C786.92,986.97,783.34,987.79,779.91,987.79z"/>
			</g>
			<path class="st8" d="M742.19,894.38c0-2.13-1.73-3.87-3.87-3.87c-2.14,0-3.87,1.73-3.87,3.87c0,2.14,1.73,3.87,3.87,3.87
				C740.46,898.26,742.19,896.52,742.19,894.38z"/>
			<path class="st8" d="M809.38,860.45c0-2.14-1.74-3.87-3.87-3.87c-2.14,0-3.87,1.74-3.87,3.87c0,2.13,1.74,3.87,3.87,3.87
				C807.65,864.32,809.38,862.59,809.38,860.45z"/>
			<polygon class="st30" points="555.85,1018.34 493.13,1054.55 502.09,1059.73 627.54,1059.73 			"/>
			<linearGradient id="SVGID_13_" gradientUnits="userSpaceOnUse" x1="582.8055" y1="1194.5402" x2="671.1105" y2="1194.5402">
				<stop  offset="0" style="stop-color:#0562A0"/>
				<stop  offset="1" style="stop-color:#3087C8"/>
			</linearGradient>
			<polygon class="st36" points="582.81,1223.24 640.15,1165.84 671.11,1172.18 			"/>
			<polygon class="st37" points="545.81,1084.98 527.38,1074.34 527.38,1100.02 545.81,1110.66 			"/>
			<polygon class="st37" points="608.96,1049.03 590.53,1038.39 527.61,1074.51 546.04,1085.15 			"/>
			<linearGradient id="SVGID_14_" gradientUnits="userSpaceOnUse" x1="533.7114" y1="1159.7274" x2="570.7957" y2="1159.7274">
				<stop  offset="0" style="stop-color:#0562A0"/>
				<stop  offset="1" style="stop-color:#3087C8"/>
			</linearGradient>
			<polygon class="st38" points="570.79,1162.13 533.71,1140.72 533.72,1157.32 570.8,1178.73 			"/>
		</g>
	</g>
	<g>
		<g>
			<polygon class="st8" points="809.01,312.98 809.01,374.34 854.06,348.33 858.46,289.35 854.06,286.97 			"/>
			<polygon class="st8" points="831.54,424.55 835.93,426.93 877.94,327.7 873.54,325.32 789.53,373.82 			"/>
			<polygon class="st8" points="891.98,467.46 934.54,372.17 886.68,399.8 886.68,464.99 			"/>
			<polygon class="st8" points="910.61,318.82 865.98,424.24 871.28,426.72 898,379.32 915.91,321.29 			"/>
			<polygon class="st21" points="960.53,375.18 915.91,321.29 871.28,426.72 891.98,414.77 891.98,467.46 939.84,439.83 
				939.84,387.13 			"/>
			<linearGradient id="SVGID_15_" gradientUnits="userSpaceOnUse" x1="793.9294" y1="358.1381" x2="877.9361" y2="358.1381">
				<stop  offset="0" style="stop-color:#0562A0"/>
				<stop  offset="1" style="stop-color:#3087C8"/>
			</linearGradient>
			<polygon class="st39" points="858.46,338.95 858.46,289.35 813.41,315.36 813.41,364.95 793.93,376.2 835.93,426.93 
				877.94,327.7 			"/>
			<polygon class="st21" points="915.91,321.29 915.66,321.87 915.66,453.78 939.84,439.83 939.84,387.13 960.53,375.18 			"/>
		</g>
	</g>
	<path class="st9" d="M756,611.26v-91.24L581.81,620.59c-12.51,7.23-22.66,24.72-22.66,39.08v65.24L756,611.26z"/>
	<g>
		<g>
			<path class="st3" d="M842.53,501.57c0-14.85-10.49-20.83-23.42-13.36L617.74,604.48c-12.94,7.47-23.43,25.56-23.43,40.41l0,85.18
				c0,14.85,10.49,20.83,23.43,13.36l201.37-116.26c12.94-7.47,23.42-25.56,23.42-40.41V501.57z"/>
			<path class="st21" d="M849.07,505.22c0-14.85-10.49-20.83-23.42-13.36L624.28,608.13c-12.94,7.47-23.43,25.56-23.43,40.41
				l0,85.18c0,14.85,10.49,20.83,23.43,13.36l201.37-116.26c12.94-7.47,23.42-25.56,23.42-40.41V505.22z"/>
			<g>
				<path class="st21" d="M825.65,491.87l-18.43,10.64l-64.05,175.92l82.47-47.61c12.94-7.47,23.42-25.56,23.42-40.41v-85.18
					C849.07,490.38,838.58,484.4,825.65,491.87z"/>
				<path class="st21" d="M641.58,737.08l64.05-175.92l-81.35,46.97c-12.94,7.47-23.43,25.56-23.43,40.41l0,85.18
					c0,14.85,10.49,20.83,23.43,13.36L641.58,737.08z"/>
			</g>
			<path class="st9" d="M823.25,632.19l2.4-1.38c10.68-6.16,19.67-19.56,22.49-32.4l-38.64,3.84L823.25,632.19z"/>
			<g>
				<polygon class="st40" points="921.83,624.99 877.33,608.6 866.77,626.81 903.45,656.7 909.12,659.94 912.04,645.92 
					927.51,628.23 				"/>
				<polygon class="st41" points="877.33,608.6 866.77,626.81 903.45,656.7 909.12,659.94 912.04,645.92 				"/>
				<polygon class="st40" points="828.95,593.13 859.3,659.2 865.03,662.58 874.05,634.22 907.47,589.14 901.79,585.9 				"/>
				<polygon class="st3" points="828.95,593.13 859.3,659.2 865.03,662.58 874.05,634.22 836.21,597.14 				"/>
				<polygon class="st21" points="927.51,628.23 883,611.84 872.45,630.05 909.12,659.95 				"/>
				<polygon class="st21" points="834.63,596.38 864.97,662.44 907.47,589.14 				"/>
				<g>
					<polygon class="st21" points="853.99,594.45 834.63,596.38 864.97,662.44 865.26,661.95 					"/>
					<polygon class="st21" points="890.36,590.84 893.97,612.42 907.47,589.14 					"/>
					<polygon class="st21" points="894.58,616.11 900.76,653.13 909.12,659.95 927.51,628.23 					"/>
				</g>
			</g>
		</g>
	</g>
	<g>
		<path class="st42" d="M1073.92,675.35l-140.61,72.46c-19.37,11.48-15.36,54.72-6.46,77.96c12.5,32.64,45.43,60.74,68.87,69.11
			l151.59-87.4c-19.86-13.18-43.49-24.93-54.02-39.58C1046.9,703.33,1073.92,675.35,1073.92,675.35z"/>
		<path class="st8" d="M1105.17,779.86c-4.76-3.82-8.87-7.77-11.89-11.96c-46.39-64.57-19.37-92.55-19.37-92.55l-140.61,72.46
			c-19.37,11.48-15.36,54.72-6.46,77.96c5.81,15.18,16.05,29.37,27.69,41.06L1105.17,779.86z"/>
		<path class="st43" d="M1144.33,799.93l-177.31,86.1c-3.74,2.16-3.24,20.8-3.24,25.12c0,4.32,2.3,8.31,6.04,10.47l279.26,161.23
			c10.51,6.07,23.46,6.07,33.97,0l160.03-92.4c3.22-1.86,5.21-5.3,5.21-9.02c0-3.72,1.18-22.29-2.04-24.14L1144.33,799.93z"/>
		<path class="st3" d="M1267.38,864.07l-123.05-64.13l-177.31,86.1c-3.74,2.16-3.24,20.8-3.24,25.12c0,4.32,2.3,8.31,6.04,10.47
			l279.26,161.23c5.64,3.26,11.99,4.76,18.29,4.51V864.07z"/>
		<path class="st5" d="M1157.02,787.53c-7.85-4.53-17.53-4.53-25.38,0l-161.28,93.11c-3.85,2.22-6.22,6.33-6.22,10.78
			s2.37,8.55,6.22,10.78l279.81,161.55c9.84,5.68,21.96,5.68,31.8,0l160.58-92.71c3.33-1.92,5.39-5.48,5.39-9.33
			c0-3.85-2.05-7.4-5.39-9.33L1157.02,787.53z"/>
		<path class="st42" d="M1073.56,674.27l-139.9,73.18c14.09-7.37,66.72,22.24,66.72,61.7l138.46-69.58
			C1138.85,739.56,1136.69,662.8,1073.56,674.27z"/>
		<polygon class="st8" points="1145.16,800.19 988.76,890.49 1267.35,1051.79 1423.75,961.5 		"/>
		<linearGradient id="SVGID_16_" gradientUnits="userSpaceOnUse" x1="990.8146" y1="926.6431" x2="1418.4377" y2="926.6431">
			<stop  offset="0" style="stop-color:#0562A0"/>
			<stop  offset="1" style="stop-color:#3087C8"/>
		</linearGradient>
		<polygon class="st44" points="1143.95,803.52 990.81,890.84 1265.3,1049.76 1418.44,962.45 		"/>
		<polygon class="st45" points="1392.5,1005.76 1339.07,1036.62 1339.07,1044.1 1392.5,1013.25 		"/>
		<path class="st42" d="M1053.29,959.03c0-2.18-1.92-5.06-4.29-6.42l-54.5-31.46c-2.03-1.17-3.67-0.61-3.68,1.26v3.39
			c0,1.09,0.96,2.53,2.14,3.21l55.58,32.08c2.62,1.51,4.75,0.78,4.75-1.64V959.03z"/>
		<path class="st42" d="M1126.11,1001.36c0.01-2.18-1.92-5.06-4.28-6.43l-54.5-31.46c-2.03-1.17-3.67-0.6-3.68,1.26v3.39
			c0,1.09,0.96,2.53,2.15,3.22l55.57,32.08c2.62,1.51,4.74,0.78,4.75-1.63L1126.11,1001.36z"/>
		<polygon class="st22" points="1120.51,720.5 1009.08,779.46 1011.55,787.87 1122.98,728.91 		"/>
		<polygon class="st22" points="1108.7,702.41 999.49,759.57 1003.39,768.11 1112.6,710.96 		"/>
	</g>
	<g>
		<path class="st8" d="M2.83,1144.84c0,61.95,43.76,86.89,97.74,55.73c53.98-31.17,97.74-106.65,97.74-168.59
			c0-61.94-43.76-86.89-97.74-55.72C46.6,1007.42,2.83,1082.89,2.83,1144.84z"/>
		<path class="st21" d="M12.31,1150.31c0,61.95,43.76,86.89,97.74,55.73c53.98-31.16,97.74-106.65,97.74-168.58
			c0-61.94-43.76-86.89-97.74-55.73C56.07,1012.88,12.31,1088.36,12.31,1150.31z"/>
		<g>
			<path class="st22" d="M58.19,1131.9v3.31l20.84-12.03v15.13l-37.44,21.61v-20.17c0-4.96,0.76-8.17,4.47-12.93l16.45-21.32v-3.21
				l-18.26,10.55l-2.65-6.21v-7.56l30.85-17.81c3.86-2.23,6.59-0.68,6.59,3.76v13.91c0,4.87-0.6,8.18-4.47,12.93L58.19,1131.9z"/>
			<path class="st22" d="M106.08,1061.83v7.56l-7.12,27.5v3.21l6.52-3.76v-11.04l16.6-9.58v37.73l-16.6,9.58v-11.48l-23.42,13.52
				v-18.6l9.32-36.16L106.08,1061.83z"/>
			<path class="st22" d="M136.69,1039.8v86.95l-5.08,2.93v-86.94L136.69,1039.8z"/>
			<path class="st22" d="M159.58,1046.25l-15.61,9.01v-15.3l32.59-18.81v15.64l-12.81,52.61l-15.38,8.88v-4.87l11.22-45.08V1046.25z
				"/>
		</g>
	</g>
	<g>
		<path class="st3" d="M298.91,464.39c0-15.96-11.27-22.39-25.18-14.36L57.29,575.02c-13.91,8.03-25.18,27.48-25.18,43.44l0,64.36
			c0,15.96,11.27,22.39,25.18,14.36l216.43-124.99c13.91-8.03,25.18-27.48,25.18-43.44V464.39z"/>
		<linearGradient id="SVGID_17_" gradientUnits="userSpaceOnUse" x1="39.2982" y1="577.8482" x2="306.0945" y2="577.8482">
			<stop  offset="0" style="stop-color:#0562A0"/>
			<stop  offset="1" style="stop-color:#3087C8"/>
		</linearGradient>
		<path class="st46" d="M306.09,468.63c0-15.96-11.27-22.39-25.18-14.36L64.48,579.26c-13.91,8.03-25.18,27.48-25.18,43.44l0,64.35
			c0,15.96,11.27,22.39,25.18,14.36l216.44-124.99c13.9-8.03,25.18-27.48,25.18-43.44V468.63z"/>
		<linearGradient id="SVGID_18_" gradientUnits="userSpaceOnUse" x1="114.314" y1="563.78" x2="279.8073" y2="563.78">
			<stop  offset="0" style="stop-color:#0562A0"/>
			<stop  offset="1" style="stop-color:#3087C8"/>
		</linearGradient>
		<polygon class="st47" points="170.61,517.98 114.31,672.64 223.51,609.58 279.81,454.92 		"/>
		<g>
			<path class="st28" d="M109.14,582.24v7.73l-2.64,9.44l-16.65,9.62v31.03l19.29-11.14v15.56l-29.44,17
				c-4.03,2.33-6.82,0.74-6.82-3.8v-46.77c0-4.54,2.79-9.35,6.82-11.67L109.14,582.24z"/>
			<path class="st28" d="M137.49,588.45v-22.58l16.89-9.75v62.24l-16.89,9.75v-24.1l-6.82,3.94v24.09l-16.89,9.75v-62.24l16.89-9.75
				v22.58L137.49,588.45z"/>
			<path class="st28" d="M167.39,610.84c-4.03,2.33-6.82,0.74-6.82-3.8v-46.77c0-4.53,2.79-9.34,6.82-11.67l27.04-15.61
				c4.03-2.33,6.82-0.74,6.82,3.8v46.77c0,4.53-2.79,9.34-6.82,11.67L167.39,610.84z M177.54,558.39v31.03l6.74-3.89V554.5
				L177.54,558.39z"/>
			<path class="st28" d="M205.89,547.17V534.1c0-4.53,2.79-9.35,6.82-11.67l29.44-17v7.65l-2.63,9.52l-16.65,9.62v2.84l14.72,2.79
				c3.72,0.7,4.57,2.96,4.57,7.94v14.14c0,4.53-2.79,9.35-6.74,11.63l-29.51,17.04v-15.56l19.29-11.14v-4.09l-14.72-2.7
				C206.74,554.33,205.89,552.15,205.89,547.17z"/>
			<path class="st28" d="M246.79,564.99v-62.24l36.25-20.94v7.73l-2.71,9.48l-16.66,9.62v6.93l16.66-9.62v15.56l-16.66,9.62v8.54
				l19.37-11.18v15.56L246.79,564.99z"/>
		</g>
		<g>
			<path class="st21" d="M112.07,583.88v7.74l-2.63,9.43l-16.65,9.62v31.03l19.29-11.14v15.56l-29.44,17
				c-4.03,2.33-6.82,0.74-6.82-3.8v-46.77c0-4.53,2.79-9.34,6.82-11.67L112.07,583.88z"/>
			<path class="st21" d="M140.43,590.09V567.5l16.89-9.75v62.24l-16.89,9.75v-24.1l-6.82,3.94v24.1l-16.89,9.75v-62.24l16.89-9.75
				v22.58L140.43,590.09z"/>
			<path class="st21" d="M170.33,612.47c-4.03,2.33-6.82,0.73-6.82-3.8v-46.77c0-4.53,2.79-9.34,6.82-11.67l27.04-15.61
				c4.03-2.33,6.82-0.74,6.82,3.8v46.77c0,4.53-2.79,9.34-6.82,11.67L170.33,612.47z M180.48,560.02v31.03l6.74-3.89v-31.03
				L180.48,560.02z"/>
			<path class="st21" d="M208.83,548.81v-13.07c0-4.53,2.79-9.35,6.82-11.67l29.44-17v7.64l-2.63,9.52l-16.66,9.62v2.85l14.72,2.79
				c3.72,0.7,4.57,2.96,4.57,7.94v14.14c0,4.53-2.79,9.34-6.74,11.63l-29.51,17.04v-15.56l19.29-11.14v-4.09l-14.72-2.7
				C209.68,555.96,208.83,553.79,208.83,548.81z"/>
			<path class="st21" d="M249.73,566.62v-62.23l36.26-20.94v7.74l-2.71,9.48l-16.66,9.62v6.94l16.66-9.62v15.56l-16.66,9.62v8.54
				l19.37-11.18v15.56L249.73,566.62z"/>
		</g>
	</g>
	<g>
		<path class="st3" d="M305.74,629.05c0-16.82-11.88-23.6-26.54-15.13L51.04,745.64C36.38,754.1,24.5,774.6,24.5,791.42l0,49.99
			c0,16.82,11.88,23.6,26.55,15.13l228.15-131.72c14.66-8.47,26.54-28.96,26.54-45.78V629.05z"/>
		<linearGradient id="SVGID_19_" gradientUnits="userSpaceOnUse" x1="32.0712" y1="739.5934" x2="313.3141" y2="739.5934">
			<stop  offset="0" style="stop-color:#0562A0"/>
			<stop  offset="1" style="stop-color:#3087C8"/>
		</linearGradient>
		<path class="st48" d="M313.31,633.41c0-16.82-11.88-23.6-26.54-15.13L58.62,750c-14.66,8.46-26.54,28.96-26.54,45.78l0,49.99
			c0,16.82,11.89,23.6,26.55,15.14l228.16-131.73c14.66-8.46,26.54-28.96,26.54-45.78V633.41z"/>
		<linearGradient id="SVGID_20_" gradientUnits="userSpaceOnUse" x1="80.1756" y1="745.0217" x2="246.4103" y2="745.0217">
			<stop  offset="0" style="stop-color:#0562A0"/>
			<stop  offset="1" style="stop-color:#3087C8"/>
		</linearGradient>
		<polygon class="st49" points="131.3,708.04 80.18,848.46 195.29,782 246.41,641.58 		"/>
		<g>
			<path class="st28" d="M66.44,827.59v-44.02l23.95-13.83c2.8-1.62,4.77-0.49,4.77,2.72v33.08c0,3.21-1.97,6.61-4.77,8.22
				L66.44,827.59z M78.39,809.68l4.82-2.79v-21.95l-4.82,2.79V809.68z"/>
			<path class="st28" d="M99.55,808.47v-44.02l25.65-14.81v5.47l-1.92,6.7l-11.79,6.8v4.9l11.79-6.8v11.01l-11.79,6.8v6.04
				l13.7-7.91v11.01L99.55,808.47z"/>
			<path class="st28" d="M128.48,747.74l11.95-6.9v33.02l12.06-6.96v11l-24.01,13.86V747.74z"/>
			<path class="st28" d="M155.23,776.33V732.3l11.95-6.9v44.02L155.23,776.33z"/>
			<path class="st28" d="M169.92,727.41v-3.59l11.95-6.9l2.46,31.6l1.37-0.79l2.46-34.44l11.95-6.9v3.59l-6.08,43.95L176,764.33
				L169.92,727.41z"/>
			<path class="st28" d="M202.86,748.83v-44.02L228.51,690v5.47l-1.92,6.71l-11.78,6.8v4.91l11.78-6.8v11.01l-11.78,6.81v6.04
				l13.7-7.91v11L202.86,748.83z"/>
			<path class="st28" d="M255.8,674.24c2.8-1.61,4.77-0.49,4.77,2.72v17.3c0,2.07-1.37,5.19-3.18,6.8l3.78,8.63v5.47l-11.73,6.77
				l-3.23-11.84l-2.41,1.39v13.71l-12,6.93V688.1L255.8,674.24z M243.8,692.24v8.24l4.77-2.75v-8.24L243.8,692.24z"/>
			<path class="st28" d="M262.81,675.66v-5.47l12.01-6.93l2.9,15.43l0.88-0.51l2.96-18.81l11.95-6.9v5.47l-9.37,31.95v12.01
				l-11.95,6.9v-12.01L262.81,675.66z"/>
		</g>
		<g>
			<path class="st21" d="M68.85,829.31v-44.02l23.95-13.83c2.8-1.61,4.77-0.49,4.77,2.72v33.08c0,3.21-1.97,6.61-4.77,8.22
				L68.85,829.31z M80.8,811.41l4.82-2.79v-21.95l-4.82,2.79V811.41z"/>
			<path class="st21" d="M101.96,810.2v-44.02l25.65-14.81v5.47l-1.92,6.7l-11.78,6.8v4.91l11.78-6.8v11.01l-11.78,6.8v6.04
				l13.7-7.91v11.01L101.96,810.2z"/>
			<path class="st21" d="M130.9,749.47l11.95-6.9v33.02l12.06-6.96v11.01l-24.01,13.86V749.47z"/>
			<path class="st21" d="M157.64,778.05v-44.02l11.95-6.9v44.02L157.64,778.05z"/>
			<path class="st21" d="M172.33,729.13v-3.58l11.95-6.9l2.46,31.59l1.37-0.79l2.47-34.44l11.95-6.9v3.59l-6.08,43.95l-18.03,10.41
				L172.33,729.13z"/>
			<path class="st21" d="M205.27,750.55v-44.02l25.65-14.81v5.47L229,703.9l-11.79,6.8v4.9l11.79-6.8v11.01l-11.79,6.8v6.04
				l13.7-7.91v11.01L205.27,750.55z"/>
			<path class="st21" d="M258.21,675.96c2.8-1.61,4.77-0.49,4.77,2.72v17.29c0,2.07-1.37,5.19-3.18,6.8l3.78,8.63v5.47l-11.73,6.77
				l-3.24-11.84l-2.41,1.39v13.71l-12,6.93v-44.02L258.21,675.96z M246.21,693.96v8.24l4.77-2.75v-8.24L246.21,693.96z"/>
			<path class="st21" d="M265.22,677.38v-5.47l12.01-6.93l2.9,15.43l0.87-0.51l2.96-18.82l11.95-6.9v5.47l-9.37,31.95v12.01
				l-11.95,6.9v-12.01L265.22,677.38z"/>
		</g>
	</g>
</g>
</svg>
