<?xml version="1.0" encoding="utf-8"?>
<!-- Generator: Adobe Illustrator 23.0.2, SVG Export Plug-In . SVG Version: 6.00 Build 0)  -->
<svg version="1.0" id="Layer_1" xmlns="http://www.w3.org/2000/svg" xmlns:xlink="http://www.w3.org/1999/xlink" x="0px" y="0px"
	 viewBox="0 0 255.12 255.12" style="enable-background:new 0 0 255.12 255.12;" xml:space="preserve">
<style type="text/css">
	.st0{fill:none;stroke:url(#SVGID_1_);stroke-width:2;stroke-linecap:round;stroke-linejoin:round;stroke-miterlimit:10;}
	.st1{fill:none;stroke:url(#SVGID_2_);stroke-width:2;stroke-linecap:round;stroke-linejoin:round;stroke-miterlimit:10;}
	.st2{fill:url(#SVGID_3_);}
	.st3{fill:none;stroke:url(#SVGID_4_);stroke-width:2;stroke-linecap:round;stroke-linejoin:round;stroke-miterlimit:10;}
	.st4{fill:none;stroke:url(#SVGID_5_);stroke-width:2;stroke-linecap:round;stroke-linejoin:round;stroke-miterlimit:10;}
	.st5{fill:none;stroke:url(#SVGID_6_);stroke-width:2;stroke-linecap:round;stroke-linejoin:round;stroke-miterlimit:10;}
	.st6{fill:none;stroke:url(#SVGID_7_);stroke-width:2;stroke-linecap:round;stroke-linejoin:round;stroke-miterlimit:10;}
	.st7{fill:none;stroke:url(#SVGID_8_);stroke-width:2;stroke-linecap:round;stroke-linejoin:round;stroke-miterlimit:10;}
	.st8{fill:none;stroke:url(#SVGID_9_);stroke-width:2;stroke-linecap:round;stroke-linejoin:round;stroke-miterlimit:10;}
	.st9{fill:none;stroke:url(#SVGID_10_);stroke-width:2;stroke-linecap:round;stroke-linejoin:round;stroke-miterlimit:10;}
	.st10{fill:url(#SVGID_11_);}
	.st11{fill:none;stroke:url(#SVGID_12_);stroke-width:2;stroke-linecap:round;stroke-linejoin:round;stroke-miterlimit:10;}
	.st12{fill:none;stroke:url(#SVGID_13_);stroke-width:2;stroke-linecap:round;stroke-linejoin:round;stroke-miterlimit:10;}
	.st13{fill:none;stroke:url(#SVGID_14_);stroke-width:2;stroke-linecap:round;stroke-linejoin:round;stroke-miterlimit:10;}
	.st14{fill:none;stroke:url(#SVGID_15_);stroke-width:2;stroke-linecap:round;stroke-linejoin:round;stroke-miterlimit:10;}
	.st15{fill:none;stroke:url(#SVGID_16_);stroke-width:2;stroke-linecap:round;stroke-linejoin:round;stroke-miterlimit:10;}
</style>
<g>
	<linearGradient id="SVGID_1_" gradientUnits="userSpaceOnUse" x1="1.8346" y1="171.2137" x2="166.1108" y2="171.2137">
		<stop  offset="0" style="stop-color:#0562A0"/>
		<stop  offset="1" style="stop-color:#3087C8"/>
	</linearGradient>
	<path class="st0" d="M84.2,100.15c-2.12,0-4.36,0-6.6,0.25h-0.37c-40.85,3.86-74.39,42.63-74.39,85.84
		c0,50.19,46.62,56.04,81.36,56.04c34.5,0,74.72-5.23,80.32-46.45C170.37,147.51,132.02,100.15,84.2,100.15z"/>
	<linearGradient id="SVGID_2_" gradientUnits="userSpaceOnUse" x1="39.5942" y1="42.062" x2="128.7975" y2="42.062">
		<stop  offset="0" style="stop-color:#0562A0"/>
		<stop  offset="1" style="stop-color:#3087C8"/>
	</linearGradient>
	<path class="st1" d="M127.41,33.51l-12.45,37.77H53.44L40.98,33.51c-0.75-1.87-0.37-3.99,0.75-5.6c1.25-1.62,3.11-2.62,5.11-2.62
		h19.8c2.49-7.22,9.46-12.45,17.56-12.45c8.09,0,14.94,5.23,17.56,12.45h19.8c1.99,0,3.86,1,5.11,2.62
		C127.78,29.53,128.16,31.64,127.41,33.51z"/>
	<linearGradient id="SVGID_3_" gradientUnits="userSpaceOnUse" x1="65.3911" y1="173.787" x2="102.7508" y2="173.787">
		<stop  offset="0" style="stop-color:#0562A0"/>
		<stop  offset="1" style="stop-color:#3087C8"/>
	</linearGradient>
	<path class="st2" d="M102.75,188.11c0,8.09-5.1,14.82-12.33,17.43v5.6c0,3.49-2.74,6.23-6.23,6.23c-3.49,0-6.23-2.74-6.23-6.23
		v-5.48c-7.22-2.62-12.58-9.46-12.58-17.56c0-3.49,2.86-6.23,6.23-6.23c3.49,0,6.23,2.74,6.23,6.23c0,3.36,2.86,6.23,6.23,6.23h0.12
		c3.49-0.12,6.1-2.86,6.1-6.23c0-3.49-2.61-6.1-6.1-6.23h-0.12c-10.21,0-18.68-8.47-18.68-18.68c0-8.22,5.36-15.07,12.58-17.56
		v-9.22c0-3.49,2.74-6.23,6.23-6.23c3.49,0,6.23,2.74,6.23,6.23v9.22c7.22,2.62,12.33,9.46,12.33,17.56c0,3.36-2.74,6.23-6.23,6.23
		c-3.36,0-6.23-2.86-6.23-6.23c0-3.49-2.61-6.1-6.1-6.23h-0.12c-3.36,0-6.23,2.74-6.23,6.23c0,3.36,2.86,6.23,6.23,6.23h0.12
		C94.53,169.55,102.75,177.77,102.75,188.11z"/>
	<linearGradient id="SVGID_4_" gradientUnits="userSpaceOnUse" x1="39.6095" y1="85.1803" x2="128.7822" y2="85.1803">
		<stop  offset="0" style="stop-color:#0562A0"/>
		<stop  offset="1" style="stop-color:#3087C8"/>
	</linearGradient>
	<path class="st3" d="M127.78,85.18c0,6.85-5.6,12.45-12.45,12.45H53.06c-6.85,0-12.45-5.6-12.45-12.45s5.6-12.45,12.45-12.45h62.27
		C122.18,72.73,127.78,78.33,127.78,85.18z"/>
	<linearGradient id="SVGID_5_" gradientUnits="userSpaceOnUse" x1="164.1108" y1="146.9942" x2="253.2835" y2="146.9942">
		<stop  offset="0" style="stop-color:#0562A0"/>
		<stop  offset="1" style="stop-color:#3087C8"/>
	</linearGradient>
	<path class="st4" d="M252.28,146.99c0,6.85-5.6,12.45-12.45,12.45h-62.27c-6.85,0-12.45-5.6-12.45-12.45s5.6-12.45,12.45-12.45
		h62.27C246.68,134.54,252.28,140.14,252.28,146.99z"/>
	<linearGradient id="SVGID_6_" gradientUnits="userSpaceOnUse" x1="164.1108" y1="171.146" x2="253.2835" y2="171.146">
		<stop  offset="0" style="stop-color:#0562A0"/>
		<stop  offset="1" style="stop-color:#3087C8"/>
	</linearGradient>
	<path class="st5" d="M252.28,171.15c0,6.85-5.6,12.45-12.45,12.45h-62.27c-6.85,0-12.45-5.6-12.45-12.45s5.6-12.45,12.45-12.45
		h62.27C246.68,158.69,252.28,164.3,252.28,171.15z"/>
	<linearGradient id="SVGID_7_" gradientUnits="userSpaceOnUse" x1="164.1108" y1="195.2977" x2="253.2835" y2="195.2977">
		<stop  offset="0" style="stop-color:#0562A0"/>
		<stop  offset="1" style="stop-color:#3087C8"/>
	</linearGradient>
	<path class="st6" d="M252.28,195.3c0,6.85-5.6,12.45-12.45,12.45h-62.27c-6.85,0-12.45-5.6-12.45-12.45
		c0-6.85,5.6-12.45,12.45-12.45h62.27C246.68,182.84,252.28,188.45,252.28,195.3z"/>
	<linearGradient id="SVGID_8_" gradientUnits="userSpaceOnUse" x1="164.1108" y1="219.4495" x2="253.2835" y2="219.4495">
		<stop  offset="0" style="stop-color:#0562A0"/>
		<stop  offset="1" style="stop-color:#3087C8"/>
	</linearGradient>
	<path class="st7" d="M252.28,219.45c0,6.85-5.6,12.45-12.45,12.45h-62.27c-6.85,0-12.45-5.6-12.45-12.45
		c0-6.85,5.6-12.45,12.45-12.45h62.27C246.68,207,252.28,212.6,252.28,219.45z"/>
</g>
<linearGradient id="SVGID_9_" gradientUnits="userSpaceOnUse" x1="438.5244" y1="800.7477" x2="507.7146" y2="800.7477">
	<stop  offset="0" style="stop-color:#0562A0"/>
	<stop  offset="1" style="stop-color:#3087C8"/>
</linearGradient>
<path class="st8" d="M473.21,771.32c-0.88,0-1.8,0-2.73,0.1h-0.15c-16.91,1.6-30.8,17.65-30.8,35.54c0,20.78,19.3,23.2,33.69,23.2
	c14.28,0,30.94-2.17,33.26-19.23C508.89,790.93,493.01,771.32,473.21,771.32z"/>
<linearGradient id="SVGID_10_" gradientUnits="userSpaceOnUse" x1="454.1586" y1="747.2726" x2="492.2651" y2="747.2726">
	<stop  offset="0" style="stop-color:#0562A0"/>
	<stop  offset="1" style="stop-color:#3087C8"/>
</linearGradient>
<path class="st9" d="M491.1,743.73l-5.16,15.64h-25.47l-5.16-15.64c-0.31-0.77-0.16-1.65,0.31-2.32c0.52-0.67,1.29-1.08,2.11-1.08
	h8.2c1.03-2.99,3.92-5.16,7.27-5.16s6.19,2.17,7.27,5.16h8.2c0.83,0,1.6,0.41,2.11,1.08C491.26,742.08,491.41,742.96,491.1,743.73z"
	/>
<linearGradient id="SVGID_11_" gradientUnits="userSpaceOnUse" x1="465.4258" y1="801.8132" x2="480.8945" y2="801.8132">
	<stop  offset="0" style="stop-color:#0562A0"/>
	<stop  offset="1" style="stop-color:#3087C8"/>
</linearGradient>
<path class="st10" d="M480.89,807.74c0,3.35-2.11,6.14-5.1,7.22v2.32c0,1.44-1.13,2.58-2.58,2.58s-2.58-1.13-2.58-2.58v-2.27
	c-2.99-1.08-5.21-3.92-5.21-7.27c0-1.44,1.19-2.58,2.58-2.58c1.44,0,2.58,1.13,2.58,2.58c0,1.39,1.19,2.58,2.58,2.58h0.05
	c1.44-0.05,2.53-1.19,2.53-2.58c0-1.44-1.08-2.53-2.53-2.58h-0.05c-4.23,0-7.73-3.51-7.73-7.73c0-3.4,2.22-6.24,5.21-7.27v-3.82
	c0-1.44,1.13-2.58,2.58-2.58s2.58,1.13,2.58,2.58v3.82c2.99,1.08,5.1,3.92,5.1,7.27c0,1.39-1.13,2.58-2.58,2.58
	c-1.39,0-2.58-1.19-2.58-2.58c0-1.44-1.08-2.53-2.53-2.58h-0.05c-1.39,0-2.58,1.13-2.58,2.58c0,1.39,1.19,2.58,2.58,2.58h0.05
	C477.49,800.06,480.89,803.46,480.89,807.74z"/>
<linearGradient id="SVGID_12_" gradientUnits="userSpaceOnUse" x1="454.165" y1="765.1257" x2="492.2587" y2="765.1257">
	<stop  offset="0" style="stop-color:#0562A0"/>
	<stop  offset="1" style="stop-color:#3087C8"/>
</linearGradient>
<path class="st11" d="M491.26,765.13c0,2.84-2.32,5.16-5.16,5.16h-25.78c-2.84,0-5.16-2.32-5.16-5.16s2.32-5.16,5.16-5.16h25.78
	C488.94,759.97,491.26,762.29,491.26,765.13z"/>
<linearGradient id="SVGID_13_" gradientUnits="userSpaceOnUse" x1="505.7146" y1="790.7197" x2="543.8083" y2="790.7197">
	<stop  offset="0" style="stop-color:#0562A0"/>
	<stop  offset="1" style="stop-color:#3087C8"/>
</linearGradient>
<path class="st12" d="M542.81,790.72c0,2.84-2.32,5.16-5.16,5.16h-25.78c-2.84,0-5.16-2.32-5.16-5.16s2.32-5.16,5.16-5.16h25.78
	C540.49,785.56,542.81,787.88,542.81,790.72z"/>
<linearGradient id="SVGID_14_" gradientUnits="userSpaceOnUse" x1="505.7146" y1="800.7197" x2="543.8083" y2="800.7197">
	<stop  offset="0" style="stop-color:#0562A0"/>
	<stop  offset="1" style="stop-color:#3087C8"/>
</linearGradient>
<path class="st13" d="M542.81,800.72c0,2.84-2.32,5.16-5.16,5.16h-25.78c-2.84,0-5.16-2.32-5.16-5.16s2.32-5.16,5.16-5.16h25.78
	C540.49,795.56,542.81,797.88,542.81,800.72z"/>
<linearGradient id="SVGID_15_" gradientUnits="userSpaceOnUse" x1="505.7146" y1="810.7197" x2="543.8083" y2="810.7197">
	<stop  offset="0" style="stop-color:#0562A0"/>
	<stop  offset="1" style="stop-color:#3087C8"/>
</linearGradient>
<path class="st14" d="M542.81,810.72c0,2.84-2.32,5.16-5.16,5.16h-25.78c-2.84,0-5.16-2.32-5.16-5.16s2.32-5.16,5.16-5.16h25.78
	C540.49,805.56,542.81,807.88,542.81,810.72z"/>
<linearGradient id="SVGID_16_" gradientUnits="userSpaceOnUse" x1="505.7146" y1="820.7197" x2="543.8083" y2="820.7197">
	<stop  offset="0" style="stop-color:#0562A0"/>
	<stop  offset="1" style="stop-color:#3087C8"/>
</linearGradient>
<path class="st15" d="M542.81,820.72c0,2.84-2.32,5.16-5.16,5.16h-25.78c-2.84,0-5.16-2.32-5.16-5.16s2.32-5.16,5.16-5.16h25.78
	C540.49,815.56,542.81,817.88,542.81,820.72z"/>
</svg>
