<svg xmlns="http://www.w3.org/2000/svg" xmlns:xlink="http://www.w3.org/1999/xlink" viewBox="0 0 291.57 249.26"><defs><style>.cls-1{isolation:isolate;}.cls-2{fill:#95cbee;opacity:0.68;mix-blend-mode:multiply;}.cls-134,.cls-3{fill:#d1d9e6;}.cls-4{fill:#13426f;}.cls-5{fill:#dae7ef;}.cls-6{fill:#c8d4d8;}.cls-7{fill:url(#linear-gradient);}.cls-8{fill:url(#linear-gradient-2);}.cls-9{fill:url(#linear-gradient-3);}.cls-10{fill:url(#linear-gradient-4);}.cls-11{fill:url(#linear-gradient-5);}.cls-12{fill:url(#linear-gradient-6);}.cls-13{fill:url(#linear-gradient-7);}.cls-14{fill:url(#linear-gradient-8);}.cls-15{fill:url(#linear-gradient-9);}.cls-16{fill:url(#linear-gradient-10);}.cls-17{fill:url(#linear-gradient-11);}.cls-18{fill:url(#linear-gradient-12);}.cls-19{fill:url(#linear-gradient-13);}.cls-20{fill:url(#linear-gradient-14);}.cls-21{fill:url(#linear-gradient-15);}.cls-22{fill:url(#linear-gradient-16);}.cls-23{fill:url(#linear-gradient-17);}.cls-24{fill:url(#linear-gradient-18);}.cls-25{fill:url(#linear-gradient-19);}.cls-26{fill:url(#linear-gradient-20);}.cls-27{fill:url(#linear-gradient-21);}.cls-28{fill:url(#linear-gradient-22);}.cls-29{fill:url(#linear-gradient-23);}.cls-30{fill:url(#linear-gradient-24);}.cls-31{fill:url(#linear-gradient-25);}.cls-32{fill:url(#linear-gradient-26);}.cls-33{fill:url(#linear-gradient-27);}.cls-34{fill:url(#linear-gradient-28);}.cls-35{fill:url(#linear-gradient-29);}.cls-36{fill:url(#linear-gradient-30);}.cls-37{fill:url(#linear-gradient-31);}.cls-38{fill:url(#linear-gradient-32);}.cls-39{fill:url(#linear-gradient-33);}.cls-40{fill:url(#linear-gradient-34);}.cls-41{fill:url(#linear-gradient-35);}.cls-42{fill:url(#linear-gradient-36);}.cls-43{fill:url(#linear-gradient-37);}.cls-44{fill:url(#linear-gradient-38);}.cls-45{fill:url(#linear-gradient-39);}.cls-46{fill:url(#linear-gradient-40);}.cls-47{fill:url(#linear-gradient-41);}.cls-48{fill:url(#linear-gradient-42);}.cls-49{fill:url(#linear-gradient-43);}.cls-50{fill:url(#linear-gradient-44);}.cls-51{fill:url(#linear-gradient-45);}.cls-52{fill:url(#linear-gradient-46);}.cls-53{fill:url(#linear-gradient-47);}.cls-54{fill:url(#linear-gradient-48);}.cls-55{fill:url(#linear-gradient-49);}.cls-56{fill:url(#linear-gradient-50);}.cls-57{fill:url(#linear-gradient-51);}.cls-58{fill:url(#linear-gradient-52);}.cls-59{fill:url(#linear-gradient-53);}.cls-60{fill:url(#linear-gradient-54);}.cls-61{fill:url(#linear-gradient-55);}.cls-62{fill:url(#linear-gradient-56);}.cls-63{fill:url(#linear-gradient-57);}.cls-64{fill:url(#linear-gradient-58);}.cls-65{fill:url(#linear-gradient-59);}.cls-66{fill:url(#linear-gradient-60);}.cls-67{fill:url(#linear-gradient-61);}.cls-68{fill:url(#linear-gradient-62);}.cls-69{fill:url(#linear-gradient-63);}.cls-70{fill:url(#linear-gradient-64);}.cls-71{fill:url(#linear-gradient-65);}.cls-72{fill:url(#linear-gradient-66);}.cls-73{fill:url(#linear-gradient-67);}.cls-74{fill:url(#linear-gradient-68);}.cls-75{fill:url(#linear-gradient-69);}.cls-76{fill:url(#linear-gradient-70);}.cls-77{fill:url(#linear-gradient-71);}.cls-78{fill:url(#linear-gradient-72);}.cls-79{fill:url(#linear-gradient-73);}.cls-80{fill:url(#linear-gradient-74);}.cls-81{fill:url(#linear-gradient-75);}.cls-82{fill:url(#linear-gradient-76);}.cls-83{fill:url(#linear-gradient-77);}.cls-84{fill:url(#linear-gradient-78);}.cls-85{fill:url(#linear-gradient-79);}.cls-86{fill:url(#linear-gradient-80);}.cls-87{fill:url(#linear-gradient-81);}.cls-88{fill:url(#linear-gradient-82);}.cls-89{fill:url(#linear-gradient-83);}.cls-90{fill:#ccd9e7;}.cls-91{fill:#faa819;}.cls-92{fill:url(#linear-gradient-84);}.cls-93{fill:url(#linear-gradient-85);}.cls-94{fill:#9f5a2b;}.cls-95{fill:url(#linear-gradient-86);}.cls-96{fill:#fff;}.cls-97{fill:url(#linear-gradient-87);}.cls-98{fill:url(#linear-gradient-88);}.cls-99{fill:url(#linear-gradient-89);}.cls-100{fill:url(#linear-gradient-90);}.cls-101{fill:url(#linear-gradient-91);}.cls-102{fill:url(#linear-gradient-92);}.cls-103{fill:url(#linear-gradient-93);}.cls-104{fill:url(#linear-gradient-94);}.cls-105{fill:#6b6c5b;}.cls-106{fill:url(#linear-gradient-95);}.cls-107{fill:url(#linear-gradient-96);}.cls-108{fill:url(#linear-gradient-97);}.cls-109{fill:url(#linear-gradient-98);}.cls-110{fill:url(#linear-gradient-99);}.cls-111{fill:url(#linear-gradient-100);}.cls-112{fill:url(#linear-gradient-101);}.cls-113{fill:url(#linear-gradient-102);}.cls-114{fill:url(#linear-gradient-103);}.cls-115{fill:url(#linear-gradient-104);}.cls-116{fill:url(#linear-gradient-105);}.cls-117{fill:url(#linear-gradient-106);}.cls-118{fill:url(#linear-gradient-107);}.cls-119{fill:url(#linear-gradient-108);}.cls-120{fill:url(#linear-gradient-109);}.cls-121{fill:url(#linear-gradient-110);}.cls-122{fill:url(#linear-gradient-111);}.cls-123{fill:url(#linear-gradient-112);}.cls-124{fill:url(#linear-gradient-113);}.cls-125{fill:url(#linear-gradient-114);}.cls-126{fill:url(#linear-gradient-115);}.cls-127{fill:url(#linear-gradient-116);}.cls-128{fill:url(#linear-gradient-117);}.cls-129{fill:url(#linear-gradient-118);}.cls-130{fill:url(#linear-gradient-119);}.cls-131{fill:url(#linear-gradient-120);}.cls-132{fill:url(#linear-gradient-121);}.cls-133{fill:url(#linear-gradient-122);}.cls-134{fill-rule:evenodd;}.cls-135{fill:#1f1f1f;}.cls-136{fill:#d9975a;}.cls-137{fill:url(#linear-gradient-123);}.cls-138{fill:url(#linear-gradient-124);}.cls-139{fill:#dea471;}.cls-140{fill:#d89f74;}.cls-141{fill:#ddac88;}.cls-142{fill:#2a170c;}.cls-143{fill:url(#linear-gradient-125);}.cls-144{fill:url(#linear-gradient-126);}</style><linearGradient id="linear-gradient" x1="157.68" y1="96.61" x2="185.6" y2="96.61" gradientUnits="userSpaceOnUse"><stop offset="0" stop-color="#07619e"/><stop offset="1" stop-color="#3085c7"/></linearGradient><linearGradient id="linear-gradient-2" x1="129.77" y1="96.61" x2="157.68" y2="96.61" xlink:href="#linear-gradient"/><linearGradient id="linear-gradient-3" x1="90.71" y1="110.77" x2="146.54" y2="110.77" xlink:href="#linear-gradient"/><linearGradient id="linear-gradient-4" x1="118.63" y1="152.29" x2="146.54" y2="152.29" xlink:href="#linear-gradient"/><linearGradient id="linear-gradient-5" x1="90.71" y1="152.29" x2="118.63" y2="152.29" xlink:href="#linear-gradient"/><linearGradient id="linear-gradient-6" x1="51.65" y1="156.19" x2="107.48" y2="156.19" xlink:href="#linear-gradient"/><linearGradient id="linear-gradient-7" x1="79.57" y1="186.27" x2="107.48" y2="186.27" xlink:href="#linear-gradient"/><linearGradient id="linear-gradient-8" x1="51.65" y1="186.27" x2="79.57" y2="186.27" xlink:href="#linear-gradient"/><linearGradient id="linear-gradient-9" x1="79.57" y1="177.75" x2="101.41" y2="177.75" xlink:href="#linear-gradient"/><linearGradient id="linear-gradient-10" x1="12.59" y1="208.69" x2="68.43" y2="208.69" xlink:href="#linear-gradient"/><linearGradient id="linear-gradient-11" x1="40.51" y1="223.8" x2="68.43" y2="223.8" xlink:href="#linear-gradient"/><linearGradient id="linear-gradient-12" x1="12.59" y1="223.8" x2="40.51" y2="223.8" xlink:href="#linear-gradient"/><linearGradient id="linear-gradient-13" x1="28.26" y1="103.25" x2="121.99" y2="103.25" xlink:href="#linear-gradient"/><linearGradient id="linear-gradient-14" x1="25.34" y1="130.3" x2="26.75" y2="130.3" xlink:href="#linear-gradient"/><linearGradient id="linear-gradient-15" x1="26.33" y1="129.08" x2="27.74" y2="129.08" xlink:href="#linear-gradient"/><linearGradient id="linear-gradient-16" x1="27.39" y1="127.74" x2="28.56" y2="127.74" xlink:href="#linear-gradient"/><linearGradient id="linear-gradient-17" x1="25.34" y1="117.75" x2="26.75" y2="117.75" xlink:href="#linear-gradient"/><linearGradient id="linear-gradient-18" x1="26.34" y1="116.5" x2="27.72" y2="116.5" xlink:href="#linear-gradient"/><linearGradient id="linear-gradient-19" x1="27.39" y1="115.19" x2="28.56" y2="115.19" xlink:href="#linear-gradient"/><linearGradient id="linear-gradient-20" x1="25.34" y1="105.22" x2="26.75" y2="105.22" xlink:href="#linear-gradient"/><linearGradient id="linear-gradient-21" x1="26.34" y1="103.95" x2="27.59" y2="103.95" xlink:href="#linear-gradient"/><linearGradient id="linear-gradient-22" x1="27.39" y1="102.65" x2="28.56" y2="102.65" xlink:href="#linear-gradient"/><linearGradient id="linear-gradient-23" x1="25.34" y1="93.16" x2="26.75" y2="93.16" xlink:href="#linear-gradient"/><linearGradient id="linear-gradient-24" x1="26.62" y1="91.81" x2="27.64" y2="91.81" xlink:href="#linear-gradient"/><linearGradient id="linear-gradient-25" x1="27.39" y1="90.59" x2="28.56" y2="90.59" xlink:href="#linear-gradient"/><linearGradient id="linear-gradient-26" x1="25.34" y1="80.59" x2="26.75" y2="80.59" xlink:href="#linear-gradient"/><linearGradient id="linear-gradient-27" x1="26.31" y1="79.25" x2="27.57" y2="79.25" xlink:href="#linear-gradient"/><linearGradient id="linear-gradient-28" x1="27.39" y1="78.03" x2="28.56" y2="78.03" xlink:href="#linear-gradient"/><linearGradient id="linear-gradient-29" x1="29.2" y1="142.54" x2="30.1" y2="142.54" xlink:href="#linear-gradient"/><linearGradient id="linear-gradient-30" x1="33.42" y1="140.24" x2="34.22" y2="140.24" xlink:href="#linear-gradient"/><linearGradient id="linear-gradient-31" x1="37.49" y1="137.91" x2="38.32" y2="137.91" xlink:href="#linear-gradient"/><linearGradient id="linear-gradient-32" x1="41.55" y1="135.56" x2="42.34" y2="135.56" xlink:href="#linear-gradient"/><linearGradient id="linear-gradient-33" x1="45.42" y1="133.16" x2="46.37" y2="133.16" xlink:href="#linear-gradient"/><linearGradient id="linear-gradient-34" x1="49.77" y1="130.81" x2="50.55" y2="130.81" xlink:href="#linear-gradient"/><linearGradient id="linear-gradient-35" x1="53.76" y1="128.45" x2="54.64" y2="128.45" xlink:href="#linear-gradient"/><linearGradient id="linear-gradient-36" x1="57.84" y1="126.15" x2="58.71" y2="126.15" xlink:href="#linear-gradient"/><linearGradient id="linear-gradient-37" x1="61.98" y1="123.8" x2="62.87" y2="123.8" xlink:href="#linear-gradient"/><linearGradient id="linear-gradient-38" x1="66" y1="121.54" x2="66.88" y2="121.54" xlink:href="#linear-gradient"/><linearGradient id="linear-gradient-39" x1="69.73" y1="119.45" x2="70.52" y2="119.45" xlink:href="#linear-gradient"/><linearGradient id="linear-gradient-40" x1="70.67" y1="118.81" x2="71.58" y2="118.81" xlink:href="#linear-gradient"/><linearGradient id="linear-gradient-41" x1="73.82" y1="117.13" x2="74.62" y2="117.13" xlink:href="#linear-gradient"/><linearGradient id="linear-gradient-42" x1="74.85" y1="116.54" x2="75.65" y2="116.54" xlink:href="#linear-gradient"/><linearGradient id="linear-gradient-43" x1="77.73" y1="114.89" x2="78.53" y2="114.89" xlink:href="#linear-gradient"/><linearGradient id="linear-gradient-44" x1="78.72" y1="114.33" x2="79.55" y2="114.33" xlink:href="#linear-gradient"/><linearGradient id="linear-gradient-45" x1="81.92" y1="112.47" x2="82.72" y2="112.47" xlink:href="#linear-gradient"/><linearGradient id="linear-gradient-46" x1="82.94" y1="111.88" x2="83.73" y2="111.88" xlink:href="#linear-gradient"/><linearGradient id="linear-gradient-47" x1="90.12" y1="107.78" x2="90.92" y2="107.78" xlink:href="#linear-gradient"/><linearGradient id="linear-gradient-48" x1="91.15" y1="107.13" x2="91.94" y2="107.13" xlink:href="#linear-gradient"/><linearGradient id="linear-gradient-49" x1="85.99" y1="110.17" x2="86.79" y2="110.17" xlink:href="#linear-gradient"/><linearGradient id="linear-gradient-50" x1="86.92" y1="109.43" x2="87.86" y2="109.43" xlink:href="#linear-gradient"/><linearGradient id="linear-gradient-51" x1="94.2" y1="105.45" x2="95" y2="105.45" xlink:href="#linear-gradient"/><linearGradient id="linear-gradient-52" x1="95.17" y1="104.76" x2="96.05" y2="104.76" xlink:href="#linear-gradient"/><linearGradient id="linear-gradient-53" x1="98.4" y1="103.07" x2="99.19" y2="103.07" xlink:href="#linear-gradient"/><linearGradient id="linear-gradient-54" x1="99.37" y1="102.39" x2="100.24" y2="102.39" xlink:href="#linear-gradient"/><linearGradient id="linear-gradient-55" x1="102.23" y1="100.85" x2="103.03" y2="100.85" xlink:href="#linear-gradient"/><linearGradient id="linear-gradient-56" x1="103.19" y1="100.22" x2="104.08" y2="100.22" xlink:href="#linear-gradient"/><linearGradient id="linear-gradient-57" x1="106.39" y1="98.47" x2="107.19" y2="98.47" xlink:href="#linear-gradient"/><linearGradient id="linear-gradient-58" x1="107.35" y1="97.89" x2="108.23" y2="97.89" xlink:href="#linear-gradient"/><linearGradient id="linear-gradient-59" x1="110.57" y1="96.08" x2="111.4" y2="96.08" xlink:href="#linear-gradient"/><linearGradient id="linear-gradient-60" x1="111.56" y1="95.42" x2="112.47" y2="95.42" xlink:href="#linear-gradient"/><linearGradient id="linear-gradient-61" x1="32.49" y1="134.24" x2="35.3" y2="134.24" xlink:href="#linear-gradient"/><linearGradient id="linear-gradient-62" x1="109.75" y1="62.82" x2="112.83" y2="62.82" xlink:href="#linear-gradient"/><linearGradient id="linear-gradient-63" x1="105.81" y1="68.25" x2="108.62" y2="68.25" xlink:href="#linear-gradient"/><linearGradient id="linear-gradient-64" x1="101.74" y1="71.84" x2="104.55" y2="71.84" xlink:href="#linear-gradient"/><linearGradient id="linear-gradient-65" x1="97.67" y1="77.85" x2="100.47" y2="77.85" xlink:href="#linear-gradient"/><linearGradient id="linear-gradient-66" x1="93.59" y1="83.35" x2="96.4" y2="83.35" xlink:href="#linear-gradient"/><linearGradient id="linear-gradient-67" x1="89.52" y1="87.01" x2="92.33" y2="87.01" xlink:href="#linear-gradient"/><linearGradient id="linear-gradient-68" x1="85.45" y1="93.47" x2="88.25" y2="93.47" xlink:href="#linear-gradient"/><linearGradient id="linear-gradient-69" x1="81.37" y1="94.92" x2="84.18" y2="94.92" xlink:href="#linear-gradient"/><linearGradient id="linear-gradient-70" x1="77.3" y1="87.44" x2="80.1" y2="87.44" xlink:href="#linear-gradient"/><linearGradient id="linear-gradient-71" x1="73.23" y1="92.94" x2="76.03" y2="92.94" xlink:href="#linear-gradient"/><linearGradient id="linear-gradient-72" x1="69.15" y1="100.8" x2="71.96" y2="100.8" xlink:href="#linear-gradient"/><linearGradient id="linear-gradient-73" x1="65.08" y1="106.97" x2="67.88" y2="106.97" xlink:href="#linear-gradient"/><linearGradient id="linear-gradient-74" x1="61.01" y1="106.05" x2="63.81" y2="106.05" xlink:href="#linear-gradient"/><linearGradient id="linear-gradient-75" x1="56.93" y1="107.72" x2="59.74" y2="107.72" xlink:href="#linear-gradient"/><linearGradient id="linear-gradient-76" x1="52.86" y1="111.89" x2="55.66" y2="111.89" xlink:href="#linear-gradient"/><linearGradient id="linear-gradient-77" x1="48.78" y1="119.76" x2="51.59" y2="119.76" xlink:href="#linear-gradient"/><linearGradient id="linear-gradient-78" x1="44.71" y1="119.58" x2="47.52" y2="119.58" xlink:href="#linear-gradient"/><linearGradient id="linear-gradient-79" x1="40.64" y1="126.04" x2="43.44" y2="126.04" xlink:href="#linear-gradient"/><linearGradient id="linear-gradient-80" x1="36.56" y1="128.89" x2="39.37" y2="128.89" xlink:href="#linear-gradient"/><linearGradient id="linear-gradient-81" x1="57.5" y1="144.58" x2="212.97" y2="144.58" xlink:href="#linear-gradient"/><linearGradient id="linear-gradient-82" x1="200.73" y1="149.12" x2="284.53" y2="149.12" xlink:href="#linear-gradient"/><linearGradient id="linear-gradient-83" x1="266.46" y1="164.41" x2="271.77" y2="164.41" xlink:href="#linear-gradient"/><linearGradient id="linear-gradient-84" x1="236.93" y1="135.79" x2="253.49" y2="135.79" xlink:href="#linear-gradient"/><linearGradient id="linear-gradient-85" x1="244.34" y1="131.71" x2="251.71" y2="131.71" xlink:href="#linear-gradient"/><linearGradient id="linear-gradient-86" x1="42.6" y1="189.02" x2="63.96" y2="189.02" xlink:href="#linear-gradient"/><linearGradient id="linear-gradient-87" x1="133.02" y1="14.65" x2="157.13" y2="14.65" xlink:href="#linear-gradient"/><linearGradient id="linear-gradient-88" x1="140.26" y1="17.8" x2="157.13" y2="17.8" xlink:href="#linear-gradient"/><linearGradient id="linear-gradient-89" x1="133.02" y1="20.58" x2="140.26" y2="20.58" xlink:href="#linear-gradient"/><linearGradient id="linear-gradient-90" x1="140.83" y1="19.16" x2="164.94" y2="19.16" xlink:href="#linear-gradient"/><linearGradient id="linear-gradient-91" x1="148.07" y1="22.31" x2="164.94" y2="22.31" xlink:href="#linear-gradient"/><linearGradient id="linear-gradient-92" x1="140.83" y1="25.09" x2="148.07" y2="25.09" xlink:href="#linear-gradient"/><linearGradient id="linear-gradient-93" x1="148.64" y1="23.67" x2="172.75" y2="23.67" xlink:href="#linear-gradient"/><linearGradient id="linear-gradient-94" x1="155.88" y1="26.82" x2="172.75" y2="26.82" xlink:href="#linear-gradient"/><linearGradient id="linear-gradient-95" x1="148.64" y1="29.6" x2="155.88" y2="29.6" xlink:href="#linear-gradient"/><linearGradient id="linear-gradient-96" x1="134.16" y1="12.1" x2="158.27" y2="12.1" xlink:href="#linear-gradient"/><linearGradient id="linear-gradient-97" x1="141.41" y1="15.26" x2="158.27" y2="15.26" xlink:href="#linear-gradient"/><linearGradient id="linear-gradient-98" x1="134.16" y1="18.04" x2="141.41" y2="18.04" xlink:href="#linear-gradient"/><linearGradient id="linear-gradient-99" x1="141.97" y1="16.61" x2="166.08" y2="16.61" xlink:href="#linear-gradient"/><linearGradient id="linear-gradient-100" x1="149.21" y1="19.77" x2="166.08" y2="19.77" xlink:href="#linear-gradient"/><linearGradient id="linear-gradient-101" x1="141.97" y1="22.55" x2="149.22" y2="22.55" xlink:href="#linear-gradient"/><linearGradient id="linear-gradient-102" x1="149.78" y1="21.12" x2="173.89" y2="21.12" xlink:href="#linear-gradient"/><linearGradient id="linear-gradient-103" x1="157.02" y1="24.28" x2="173.89" y2="24.28" xlink:href="#linear-gradient"/><linearGradient id="linear-gradient-104" x1="149.78" y1="27.06" x2="157.03" y2="27.06" xlink:href="#linear-gradient"/><linearGradient id="linear-gradient-105" x1="132.97" y1="8.09" x2="157.07" y2="8.09" xlink:href="#linear-gradient"/><linearGradient id="linear-gradient-106" x1="140.21" y1="11.25" x2="157.07" y2="11.25" xlink:href="#linear-gradient"/><linearGradient id="linear-gradient-107" x1="132.96" y1="14.03" x2="140.21" y2="14.03" xlink:href="#linear-gradient"/><linearGradient id="linear-gradient-108" x1="140.78" y1="12.6" x2="164.88" y2="12.6" xlink:href="#linear-gradient"/><linearGradient id="linear-gradient-109" x1="148.02" y1="15.76" x2="164.88" y2="15.76" xlink:href="#linear-gradient"/><linearGradient id="linear-gradient-110" x1="140.77" y1="18.54" x2="148.02" y2="18.54" xlink:href="#linear-gradient"/><linearGradient id="linear-gradient-111" x1="148.59" y1="17.11" x2="172.69" y2="17.11" xlink:href="#linear-gradient"/><linearGradient id="linear-gradient-112" x1="155.83" y1="20.27" x2="172.69" y2="20.27" xlink:href="#linear-gradient"/><linearGradient id="linear-gradient-113" x1="148.59" y1="23.05" x2="155.83" y2="23.05" xlink:href="#linear-gradient"/><linearGradient id="linear-gradient-114" x1="137.61" y1="7.47" x2="161.72" y2="7.47" xlink:href="#linear-gradient"/><linearGradient id="linear-gradient-115" x1="144.86" y1="10.62" x2="161.72" y2="10.62" xlink:href="#linear-gradient"/><linearGradient id="linear-gradient-116" x1="137.61" y1="13.4" x2="144.85" y2="13.4" xlink:href="#linear-gradient"/><linearGradient id="linear-gradient-117" x1="145.42" y1="11.98" x2="169.53" y2="11.98" xlink:href="#linear-gradient"/><linearGradient id="linear-gradient-118" x1="152.66" y1="15.13" x2="169.53" y2="15.13" xlink:href="#linear-gradient"/><linearGradient id="linear-gradient-119" x1="145.42" y1="17.91" x2="152.66" y2="17.91" xlink:href="#linear-gradient"/><linearGradient id="linear-gradient-120" x1="143.63" y1="6.96" x2="167.74" y2="6.96" xlink:href="#linear-gradient"/><linearGradient id="linear-gradient-121" x1="150.87" y1="10.11" x2="167.74" y2="10.11" xlink:href="#linear-gradient"/><linearGradient id="linear-gradient-122" x1="143.63" y1="12.89" x2="150.87" y2="12.89" xlink:href="#linear-gradient"/><linearGradient id="linear-gradient-123" x1="119.77" y1="88.62" x2="133.27" y2="88.62" xlink:href="#linear-gradient"/><linearGradient id="linear-gradient-124" x1="107.36" y1="91.28" x2="122.87" y2="91.28" xlink:href="#linear-gradient"/><linearGradient id="linear-gradient-125" x1="26.36" y1="163.32" x2="36.35" y2="163.32" xlink:href="#linear-gradient"/><linearGradient id="linear-gradient-126" x1="26.11" y1="178.98" x2="38.58" y2="178.98" xlink:href="#linear-gradient"/></defs><title>Greater Value at Lower Costs</title><g class="cls-1"><g id="Layer_1" data-name="Layer 1"><path id="rect4557" class="cls-2" d="M230.35,126.54l-30.71,17.73a1.23,1.23,0,0,0,0,2.33L256,179.14a4.45,4.45,0,0,0,4,0l30.71-17.73a1.22,1.22,0,0,0,0-2.32l-56.37-32.55A4.45,4.45,0,0,0,230.35,126.54Z"/><path id="path4527" class="cls-3" d="M69.93,190.64c-12.14,7-31.82,7-44,0s-12.14-18.37,0-25.38,31.82-7,44,0S82.08,183.63,69.93,190.64Z"/><path id="path4523" class="cls-2" d="M62.63,249l178.75-103.2L227.69,138,51.6,242.66Z"/><path id="path4517" class="cls-2" d="M153.21,133.22l37.42,21.61-37.42,21.6-37.42-21.6Z"/><path id="path4515" class="cls-2" d="M117.48,151.8l39.4,22.75-39.4,22.75-39.4-22.75Z"/><path id="path4513" class="cls-2" d="M79,178l35.69,20.61L79,219.16l-35.69-20.6Z"/><path id="rect4001" class="cls-2" d="M40.88,205.29l31.41,18.13L40.88,241.55,9.48,223.42Z"/><g id="g4324"><path id="path4302" class="cls-4" d="M48.46,139.25a1.85,1.85,0,0,1,1.86,1.84,2,2,0,0,1-.22.89L28.48,184.27a1.84,1.84,0,1,1-3.29-1.67s21.65-42.3,21.65-42.3a1.81,1.81,0,0,1,1.62-1.05Z"/><path id="path4304" class="cls-4" d="M48.51,139.25a1.88,1.88,0,0,1,1.67,1.19l12.49,30.68a1.86,1.86,0,0,1-3.43,1.43s0,0,0-.06L46.73,141.81a1.86,1.86,0,0,1,1-2.42A2.87,2.87,0,0,1,48.51,139.25Z"/><path id="path4306" class="cls-4" d="M48.51,139.25A1.84,1.84,0,0,1,50.29,141l4.18,52a1.85,1.85,0,1,1-3.69.35v-.06l-4.18-52a1.85,1.85,0,0,1,1.67-2Z"/><g id="g4312"><path id="path4308" class="cls-4" d="M91,107.29a3.79,3.79,0,0,1,1.75.56A9.15,9.15,0,0,1,96.92,115a2.9,2.9,0,0,1-1.19,2.66L7.58,168.59l-.49.27-1.32-1.64.75-.49-.37-.65a9.79,9.79,0,0,1-3-5.25L2,158.89l-.75.08,0-.27L4.21,157l.08-.06s85.56-49.41,85.56-49.41l0,0a2.74,2.74,0,0,1,.92-.27.44.44,0,0,0,.21,0Z"/><path id="path5135" class="cls-3" d="M94.55,109.34,3.43,162a10.28,10.28,0,0,0,1,2L95.84,111.2A10.11,10.11,0,0,0,94.55,109.34Z"/><path id="path4310" class="cls-3" d="M0,161.37a9.15,9.15,0,0,0,4.15,7.17c2.29,1.32,4.15.24,4.15-2.4A9.15,9.15,0,0,0,4.15,159a2.93,2.93,0,0,0-2.88-.3A3,3,0,0,0,0,161.37Z"/></g><path id="path4314" class="cls-5" d="M10.64,65.44v89l.43.25,75.83-44.3V21Z"/><path id="path4316" class="cls-3" d="M11.07,65.68v89l76.26-44V21.28Z"/><g id="g4322"><path id="path4318" class="cls-4" d="M91.12,6.33a3.7,3.7,0,0,1,1.75.57A9.15,9.15,0,0,1,97,14.07a2.94,2.94,0,0,1-1.18,2.67L7.71,67.63l-.49.27L5.9,66.26l.76-.49-.38-.64a10,10,0,0,1-3-5.26l-1.1-1.94L1.4,58l0-.27,2.91-1.67.08,0S90,6.6,90,6.6l0,0a2.8,2.8,0,0,1,.92-.27s.11,0,.19,0Z"/><path id="path5132" class="cls-3" d="M93.79,7.54,3.24,59.83l0,0A9.23,9.23,0,0,0,4,62L95.34,9.25A9.11,9.11,0,0,0,93.79,7.54Z"/><path id="path4320" class="cls-3" d="M.13,60.41a9.13,9.13,0,0,0,4.16,7.17c2.29,1.32,4.15.24,4.15-2.4A9.15,9.15,0,0,0,4.29,58a3,3,0,0,0-2.89-.3A2.94,2.94,0,0,0,.13,60.41Z"/></g><path id="path2923" class="cls-6" d="M76.75,57.94l-2.81,1.6v47.93l2.81-1.6V57.94ZM26.44,60.58,24.91,67.2l1.24-1.34v7l-.52.29v.39l.52-.29v12l-.52.3V86l.52-.3v12l-.52.3v.39l.52-.3v12l-.52.29v.4l.52-.3v12l-.52.3v.39l.52-.3v13.48l.34-.19v-.87l3.74-2.14v.86l.34-.19v-.87l3.75-2.14v.86l.34-.19v-.86l3.75-2.15v.87l.34-.2v-.86l3.74-2.15v.87l.34-.2V126l3.75-2.14v.86l.34-.19v-.87l3.74-2.14v.86l.34-.19v-.86l3.75-2.15v.87l.34-.2V119l3.75-2.15v.87l.34-.2v-.86l3.74-2.14v.86l.34-.19v-.87L67,112.21v.86l.34-.19V112l3.75-2.14v.86l.34-.19v-.86l3.74-2.15v.87l.34-.2v-.86l3.75-2.14v.86l.34-.2V105l3.74-2.14v.86l.34-.19v-.87l3.64-2.08v-.65L26.72,134.61v-12l.57-.33v-.39l-.57.32v-12l.57-.32v-.4l-.57.33v-12l.57-.33v-.39l-.57.33v-12l.57-.33v-.39l-.57.32V73l.57-.32v-.4l-.57.33v-7L28,65.45ZM87.33,65l-1.17.67v34.8l1.17-.67Zm-14.66,1.6-2.8,1.61v41.59l2.8-1.61V66.61Zm-48,5.89a.58.58,0,0,0-.41.26,1.14,1.14,0,0,0-.24.56.83.83,0,0,0,.16.53c.23.34.49.32.78,0a1,1,0,0,0,.23-.54.75.75,0,0,0-.15-.53.47.47,0,0,0-.37-.25Zm-.17.37c.08,0,.17.08.27.22s.19.42.08.55-.25.1-.4-.13-.2-.42-.08-.56A.17.17,0,0,1,24.51,72.87Zm-.89.73-.66.83.38.55.19-.26c.17-.2.29-.26.36-.16a.22.22,0,0,1,0,.18.71.71,0,0,1-.14.25,1,1,0,0,1-.3.26l.13.19a1.92,1.92,0,0,0,.32-.32,1.37,1.37,0,0,0,.27-.52.48.48,0,0,0,0-.4.21.21,0,0,0-.26-.08.75.75,0,0,0-.35.28l-.09.12-.14-.19.44-.55Zm61.27,1.06-2.8,1.61v26.54l2.8-1.6V74.66ZM22.44,75l-.46.73.12.18.23-.37.43.62-.25.31.12.17.76-.94-.12-.17-.25.3Zm58.38.18L78,76.83v28.31l2.8-1.6V75.22ZM68.6,80l-2.81,1.61v30.53l2.81-1.61V80ZM24.68,85.06a.6.6,0,0,0-.41.27,1.07,1.07,0,0,0-.24.55.84.84,0,0,0,.16.54c.23.33.49.32.78,0a.92.92,0,0,0,.23-.54.76.76,0,0,0-.15-.53.47.47,0,0,0-.37-.25Zm-.17.38q.12,0,.27.21c.16.24.19.42.08.55s-.25.1-.4-.12-.2-.43-.08-.57.08-.08.13-.07Zm35.94.4-2.8,1.61V116.8l2.8-1.61V85.84Zm-36.87.37-.26.33-.05,1.27.09.13.53-.64.15.21.24-.3L24.13,87l.14-.18-.11-.16-.14.18Zm-.08.52.06.1.22.31-.31.38,0-.65a.42.42,0,0,0,0-.13Zm32.88.12-2.81,1.6v30.68l2.81-1.61V86.85Zm-33.94.75-.46.73.12.18.23-.36.43.61-.25.31.12.18.76-1-.12-.17-.25.31ZM64.53,90l-2.81,1.61v22.86l2.81-1.61V90ZM52.31,92.86,49.5,94.47v27l2.81-1.61v-27ZM24.68,97.12a.57.57,0,0,0-.41.27,1.07,1.07,0,0,0-.24.55.87.87,0,0,0,.16.54c.23.33.49.32.78,0a1,1,0,0,0,.23-.54.76.76,0,0,0-.15-.53.47.47,0,0,0-.37-.25Zm-.17.37c.08,0,.17.08.27.22s.19.42.08.55-.25.1-.4-.12-.2-.43-.08-.57A.17.17,0,0,1,24.51,97.49Zm-.84.87-.1,0a.92.92,0,0,0-.33.29,1.6,1.6,0,0,0-.26.42l.12.18a1.23,1.23,0,0,1,.19-.36c.12-.15.21-.18.27-.1s0,.23-.15.42l-.1.12.12.17.11-.13a.65.65,0,0,1,.22-.2c.06,0,.11,0,.14,0a.19.19,0,0,1,0,.17.6.6,0,0,1-.13.23.91.91,0,0,1-.33.28l.13.19a1.45,1.45,0,0,0,.34-.33,1.42,1.42,0,0,0,.28-.5.39.39,0,0,0,0-.37A.17.17,0,0,0,24,98.8a.56.56,0,0,0-.26.18c.14-.24.16-.42.07-.55a.19.19,0,0,0-.13-.07Zm-1.23,1.3-.46.73.12.18.23-.36.43.61-.25.31.12.17.76-.94-.12-.17-.25.31Zm64.86,2.5-.54.43v.26l.27-.22v.9l-.26.15v.25l.56-.32v-.25l0,0Zm-43.14,1.41-2.81,1.61v20.94l2.81-1.61V103.57Zm40.19.33-.27.15-.52,1.24v.2l.54-.31v.3l.25-.14V105l.15-.08v-.23l-.15.09Zm-.24.46a.71.71,0,0,0,0,.14V105l-.31.18.26-.63a1.3,1.3,0,0,0,0-.14Zm-.93.18-.54.44v.26l.26-.22v.9l-.26.15v.25l.79-.45v-.26l-.25.15Zm-35,1.72-2.8,1.6v15.93l2.8-1.61V106.26Zm31.94,0a.51.51,0,0,0-.24.09,1,1,0,0,0-.3.25v.26a.78.78,0,0,1,.24-.24c.12-.07.19,0,.19.07a.38.38,0,0,1-.25.33l-.1.06v.24l.11-.06a.31.31,0,0,1,.2-.06s.07,0,.07.1a.35.35,0,0,1,0,.18.5.5,0,0,1-.17.15.41.41,0,0,1-.29.06V108a.72.72,0,0,0,.31-.11,1,1,0,0,0,.36-.32.75.75,0,0,0,.13-.39.19.19,0,0,0-.08-.18s-.12,0-.21,0a.66.66,0,0,0,.25-.5.2.2,0,0,0-.11-.2Zm-1.07.56-.54.44v.25l.27-.22v.9l-.26.15v.25l.79-.45v-.25l-.26.15ZM76,108.7a.53.53,0,0,0-.2.07,1.28,1.28,0,0,0-.37.33v.28a1,1,0,0,1,.31-.32q.18-.11.18.09a.51.51,0,0,1,0,.2,2.77,2.77,0,0,1-.15.29l-.36.6v.25l.82-.48v-.26l-.51.29h0l.26-.41a1.33,1.33,0,0,0,.26-.67.25.25,0,0,0-.1-.24Zm-1.07.57-.54.44V110l.26-.22v.9l-.26.15V111l.79-.45v-.25l-.25.15Zm-50.24.39a.58.58,0,0,0-.41.26,1.11,1.11,0,0,0-.24.55.84.84,0,0,0,.16.54q.35.49.78,0a1,1,0,0,0,.23-.54.75.75,0,0,0-.15-.53A.47.47,0,0,0,24.68,109.66Zm-.17.37c.08,0,.17.07.27.22s.19.41.08.55-.25.1-.4-.13-.2-.43-.08-.57A.16.16,0,0,1,24.51,110Zm-.82.83-.07,0a.75.75,0,0,0-.34.28,1.71,1.71,0,0,0-.3.52l.14.19a1.2,1.2,0,0,1,.22-.47c.12-.14.21-.17.28-.08a.39.39,0,0,1,0,.17c0,.07,0,.18-.05.32l-.16.7.12.17.79-1-.12-.19-.49.61s.11-.49.11-.49a.88.88,0,0,0,0-.67.21.21,0,0,0-.18-.1Zm48.34.06-.54.44v.25l.27-.21v.89l-.26.15v.25l.79-.45V112l-.26.15Zm-1,.59-.54.43v.26l.27-.22v.9l-.26.15v.25l.79-.45v-.25l-.26.15Zm-48.56.69-.46.73.12.17.23-.36.43.62-.25.31.12.17.76-.94-.12-.18L23,113ZM68,113.26a.38.38,0,0,0-.19.06.81.81,0,0,0-.35.4,1.56,1.56,0,0,0-.12.64c0,.49.14.64.44.47a.77.77,0,0,0,.34-.39,1.48,1.48,0,0,0,.12-.63C68.22,113.44,68.14,113.26,68,113.26Zm-.15.3c.08,0,.11.15.11.42s0,.54-.17.6-.17-.06-.17-.39.06-.55.17-.62Zm-.92.27-.54.43v.26l.26-.22v.9l-.26.15v.25l.8-.45v-.25l-.26.14Zm-26.83.33-2.8,1.61v12.68l2.8-1.61V114.16ZM63.27,116a.32.32,0,0,0-.18.06.89.89,0,0,0-.44.76.3.3,0,0,0,.1.27.23.23,0,0,0,.25,0,.59.59,0,0,0,.25-.29.74.74,0,0,1-.07.37.59.59,0,0,1-.23.24.38.38,0,0,1-.23.06v.26a.67.67,0,0,0,.26-.09,1,1,0,0,0,.4-.45,1.48,1.48,0,0,0,.15-.68.57.57,0,0,0-.12-.43.2.2,0,0,0-.14-.06Zm-.12.29s0,0,.05,0a.22.22,0,0,1,0,.16.41.41,0,0,1,0,.18.43.43,0,0,1-.11.12c-.06,0-.1,0-.13,0s0-.07,0-.15a.48.48,0,0,1,0-.2.3.3,0,0,1,.12-.13l.07,0ZM36,117.52l-2.8,1.61v11.65l2.8-1.61V117.52Zm23.3.71a.52.52,0,0,0-.24.08.89.89,0,0,0-.3.28.68.68,0,0,0-.11.34q0,.22.21.21a.81.81,0,0,0-.25.53c0,.12,0,.19.12.22a.42.42,0,0,0,.3-.07,1.06,1.06,0,0,0,.35-.31.65.65,0,0,0,.12-.37.21.21,0,0,0-.07-.18.22.22,0,0,0-.2,0,.73.73,0,0,0,.24-.49.19.19,0,0,0-.11-.2Zm-.17.28h0a.11.11,0,0,1,0,.1.45.45,0,0,1-.15.29q-.15,0-.15-.12a.23.23,0,0,1,0-.14.29.29,0,0,1,.11-.11l.07,0Zm0,.64c.1,0,.15,0,.15.14a.33.33,0,0,1,0,.16.4.4,0,0,1-.13.13.17.17,0,0,1-.13,0,.09.09,0,0,1-.06-.1.5.5,0,0,1,.18-.34Zm-3.75,1.34-.87.49v.26l.59-.33-.45,1.44.29-.17.44-1.55Zm-30.67,1.72a.58.58,0,0,0-.41.26A1.14,1.14,0,0,0,24,123a.83.83,0,0,0,.16.53c.23.34.49.32.78,0a1,1,0,0,0,.23-.54.75.75,0,0,0-.15-.53.47.47,0,0,0-.37-.25Zm-.17.37c.08,0,.17.08.27.22s.19.42.08.55-.25.1-.4-.13-.2-.42-.08-.56A.17.17,0,0,1,24.51,122.58Zm26.69.28A.48.48,0,0,0,51,123a1,1,0,0,0-.41.46,1.39,1.39,0,0,0-.16.68.58.58,0,0,0,.12.43c.08.07.19.07.33,0a.83.83,0,0,0,.31-.33.85.85,0,0,0,.12-.43.34.34,0,0,0-.09-.27c-.06,0-.14,0-.25,0a.7.7,0,0,0-.26.3h0a.92.92,0,0,1,.08-.38.56.56,0,0,1,.23-.25.34.34,0,0,1,.21-.06v-.26Zm-27.77.66-.46.73.12.18.23-.36.43.61-.25.31.12.18.76-1-.12-.17-.25.31Zm27.49.24c.06,0,.09,0,.09.17a.45.45,0,0,1,0,.2.3.3,0,0,1-.12.13q-.08,0-.12,0a.25.25,0,0,1,0-.16.41.41,0,0,1,0-.18.3.3,0,0,1,.12-.13l.07,0Zm-28.48,1-.46.73.12.18.23-.37.43.62-.25.31.12.17.76-.94-.12-.17-.25.3Zm24.7.41-.7.4v.8l.21-.13c.18-.1.26-.08.26.06a.36.36,0,0,1-.06.2.52.52,0,0,1-.17.16.4.4,0,0,1-.27.06V127a.84.84,0,0,0,.3-.12.82.82,0,0,0,.35-.34.77.77,0,0,0,.13-.43c0-.13,0-.21-.1-.25s-.18,0-.31.06l-.1.06v-.29l.46-.26Zm-15.2.74-2.81,1.61v5.6l2.81-1.6V125.9Zm10.92,1.73-.27.16L42.06,129v.21l.55-.32v.31l.25-.14v-.31l.15-.08v-.23l-.15.08ZM38.78,130a.51.51,0,0,0-.24.09,1.07,1.07,0,0,0-.31.25v.26a.93.93,0,0,1,.25-.24c.12-.07.19,0,.19.07a.4.4,0,0,1-.25.33l-.1.06V131l.11-.06a.31.31,0,0,1,.2-.06s.07,0,.07.1a.28.28,0,0,1-.06.18.39.39,0,0,1-.16.15.41.41,0,0,1-.29.06v.28a.72.72,0,0,0,.31-.11,1.12,1.12,0,0,0,.36-.32.74.74,0,0,0,.12-.39c0-.09,0-.15-.07-.18s-.12,0-.21,0a.66.66,0,0,0,.25-.5.2.2,0,0,0-.11-.2Zm-4,2.32a.53.53,0,0,0-.2.07,1.28,1.28,0,0,0-.37.33V133a1,1,0,0,1,.31-.32q.18-.1.18.09a.51.51,0,0,1,0,.2c0,.07-.08.16-.15.29l-.36.6v.24l.82-.47v-.26l-.51.29h0l.26-.41a1.33,1.33,0,0,0,.26-.67c0-.13,0-.21-.1-.24A.16.16,0,0,0,34.76,132.29Zm-4.16,2.33-.54.44v.25l.27-.21v.9l-.26.14v.26l.79-.46v-.25l-.26.15ZM26.5,137a.41.41,0,0,0-.19.06.86.86,0,0,0-.35.4,1.56,1.56,0,0,0-.12.64c0,.48.15.64.45.47a.82.82,0,0,0,.34-.39,1.54,1.54,0,0,0,.12-.63C26.75,137.17,26.66,137,26.5,137Zm-.15.3c.08,0,.11.15.11.42s-.05.54-.17.6-.17-.06-.17-.39.06-.55.18-.62Z"/></g><g id="g2942"><g id="g899"><path id="rect818" class="cls-3" d="M157.68,5.85,185.6,22,157.68,38.09,129.77,22Z"/><path id="path841" class="cls-7" d="M185.6,22V155.14l-27.92,16.11V38.09Z"/><path id="path845" class="cls-8" d="M129.77,22V155.14l27.91,16.11V38.09Z"/></g><g id="g894"><path id="path851" class="cls-9" d="M118.63,94.65l27.91,16.12-27.91,16.12L90.71,110.77Z"/><path id="path853" class="cls-10" d="M146.54,110.77v66.92l-27.91,16.12V126.89Z"/><path id="path857" class="cls-11" d="M90.71,110.77v66.92l27.92,16.12V126.89Z"/></g><g id="g889"><path id="path861" class="cls-12" d="M79.57,140.07l27.91,16.12L79.57,172.3,51.65,156.19Z"/><path id="path863" class="cls-13" d="M107.48,156.19v44.05L79.57,216.36V172.3Z"/><path id="path867" class="cls-14" d="M51.65,156.19v44.05l27.92,16.12V172.3Z"/><path id="path6968" class="cls-15" d="M100.87,160l-4.08,2.35a12.88,12.88,0,0,1,.73,4.49c0,8.15-5.73,18-12.78,22.12a12,12,0,0,1-5.17,1.72v4.81a17.38,17.38,0,0,0,5.17-2c9.21-5.32,16.67-18.24,16.67-28.87A18.39,18.39,0,0,0,100.87,160Z"/></g><g id="g884"><path id="path871" class="cls-16" d="M40.51,192.57l27.92,16.12L40.51,224.81,12.59,208.69Z"/><path id="path873" class="cls-17" d="M68.43,208.69v14.1L40.51,238.91v-14.1Z"/><path id="path877" class="cls-18" d="M12.59,208.69v14.1l27.92,16.12v-14.1Z"/></g></g><g id="g6882"><g id="g1453"><path id="path1442" class="cls-19" d="M29.79,65.32l-1.53,6.61,1.25-1.33v7l-.52.3v.39l.52-.3V90l-.52.3v.39l.52-.29v12l-.52.29v.4l.52-.3v12l-.52.3v.39l.52-.3v12l-.52.3V128l.52-.29v13.47l.34-.19v-.86L33.59,138v.87l.34-.2v-.86l3.75-2.15v.87l.34-.2v-.86l3.74-2.14v.86l.34-.19v-.87L45.85,131v.86l.34-.19v-.87l3.75-2.14v.86l.34-.19v-.86L54,126.29v.87l.34-.2v-.86L58.11,124v.86l.34-.2v-.86l3.75-2.14v.86l.34-.19v-.87l3.74-2.14v.86l.34-.19v-.86l3.75-2.15v.87l.34-.2v-.86l3.74-2.14v.86l.34-.2v-.86l3.75-2.14v.86l.34-.19v-.87l3.75-2.14v.86l.34-.19v-.87l3.74-2.14v.86l.34-.19v-.86l3.75-2.15v.87l.34-.2v-.86l3.74-2.14v.86l.34-.19v-.87L99,100.58v.86l.34-.19v-.87l3.75-2.14v.86l.34-.19v-.86l3.74-2.15v.87l.34-.2v-.86l3.75-2.14v.86l.34-.2v-.86l3.75-2.14v.86l.34-.19V91l1.9-1.08L117,91.69l5-4.61-5,1.07.54,1.14L30.08,139.34v-12l.57-.33v-.39l-.57.33V115l.57-.33v-.39l-.57.33v-12l.57-.32v-.4l-.57.33v-12l.57-.33v-.39l-.57.33v-12l.57-.33V77l-.57.33v-7l1.24-.09Z"/><g id="text1123"><path id="path1189" class="cls-20" d="M26.75,130.18l-.76.95-.12-.18.25-.31-.43-.61-.23.36-.12-.18.46-.73.58.84.25-.31Z"/><path id="path1191" class="cls-21" d="M27.74,129l-.76.94-.12-.17.25-.31-.43-.62-.23.36-.12-.17.46-.73.58.83.25-.31Z"/><path id="path1193-3" class="cls-22" d="M28.33,128.26c-.29.36-.55.37-.78,0a.84.84,0,0,1-.16-.54,1,1,0,0,1,.24-.55c.28-.35.54-.35.78,0a.81.81,0,0,1,.15.53.92.92,0,0,1-.23.54Zm-.59-.87c-.12.14-.09.33.07.57s.3.26.41.12.08-.31-.08-.54-.3-.28-.4-.15Z"/></g><g id="text1127"><path id="path1182" class="cls-23" d="M26.75,117.63l-.76.94-.12-.17.25-.31-.43-.62-.23.37-.12-.18.46-.73.58.83.25-.3Z"/><path id="path1184" class="cls-24" d="M27.1,116.85s.49-.6.49-.6l.13.18-.79,1-.12-.17.15-.7a1.81,1.81,0,0,0,.05-.32.23.23,0,0,0,0-.17q-.09-.14-.27.09a1.29,1.29,0,0,0-.23.47l-.13-.2a1.68,1.68,0,0,1,.29-.52.91.91,0,0,1,.35-.28.19.19,0,0,1,.24.08c.09.12.08.34,0,.67Z"/><path id="path1186" class="cls-25" d="M28.33,115.71c-.29.35-.55.37-.78,0a.83.83,0,0,1-.16-.53,1,1,0,0,1,.24-.55c.28-.35.54-.36.78,0a.81.81,0,0,1,.15.53,1,1,0,0,1-.23.54Zm-.59-.87c-.12.14-.09.33.07.57s.3.26.41.12.08-.32-.08-.55-.3-.28-.4-.14Z"/></g><g id="text1131"><path id="path1175" class="cls-26" d="M26.75,105.1,26,106l-.12-.17.25-.31-.43-.62-.23.36-.12-.18.46-.73.58.84.25-.31Z"/><path id="path1177" class="cls-27" d="M26.94,104.8l-.14-.19a.92.92,0,0,0,.34-.27.82.82,0,0,0,.13-.24.2.2,0,0,0,0-.17s-.08-.05-.15,0a.75.75,0,0,0-.21.2l-.11.14-.12-.17.1-.13q.24-.28.15-.42c-.06-.08-.15,0-.27.11a1.17,1.17,0,0,0-.19.35l-.12-.18a1.61,1.61,0,0,1,.25-.41.91.91,0,0,1,.34-.29.18.18,0,0,1,.23,0c.09.13.07.31-.07.54a.53.53,0,0,1,.26-.17.16.16,0,0,1,.18.06.45.45,0,0,1,0,.37,1.63,1.63,0,0,1-.28.51A1.6,1.6,0,0,1,26.94,104.8Z"/><path id="path1179" class="cls-28" d="M28.33,103.17c-.29.36-.55.37-.78,0a.84.84,0,0,1-.16-.54,1,1,0,0,1,.24-.55c.28-.35.54-.35.78,0a.77.77,0,0,1,.15.52.92.92,0,0,1-.23.54Zm-.59-.87c-.12.14-.09.33.07.57s.3.27.41.13.08-.32-.08-.55S27.84,102.17,27.74,102.3Z"/></g><g id="text1135"><path id="path1168" class="cls-29" d="M26.75,93,26,94l-.12-.17.25-.31-.43-.62-.23.36-.12-.17.46-.73.58.83.25-.31Z"/><path id="path1170" class="cls-30" d="M27.63,91.55l-.14.18.15.21-.25.3L27.25,92l-.53.65-.1-.14.06-1.27.26-.32.44.62.14-.17Zm-.77-.09h0s0,.07,0,.13l0,.65.31-.38-.22-.31-.06-.1Z"/><path id="path1172" class="cls-31" d="M28.33,91.12q-.43.52-.78,0a.84.84,0,0,1-.16-.54,1,1,0,0,1,.24-.55c.28-.35.54-.35.78,0a.78.78,0,0,1,.15.53,1,1,0,0,1-.23.54Zm-.59-.88c-.12.14-.09.33.07.57s.3.27.41.13.08-.32-.08-.55-.3-.28-.4-.15Z"/></g><g id="text1139"><path id="path1161" class="cls-32" d="M26.75,80.47l-.76,1-.12-.18.25-.3-.43-.62-.23.36-.12-.18.46-.73.58.84.25-.31Z"/><path id="path1163-0" class="cls-33" d="M27,80.17,26.83,80a.91.91,0,0,0,.3-.26.77.77,0,0,0,.14-.24.24.24,0,0,0,0-.19c-.07-.1-.19,0-.36.17s-.12.15-.19.26l-.39-.56.67-.82.13.18-.44.54.13.2.1-.13a.82.82,0,0,1,.35-.28.21.21,0,0,1,.25.09.48.48,0,0,1,.05.4,1.34,1.34,0,0,1-.27.51,1.6,1.6,0,0,1-.32.32Z"/><path id="path1165-9" class="cls-34" d="M28.33,78.55c-.29.36-.55.37-.78,0a.84.84,0,0,1-.16-.54,1,1,0,0,1,.24-.55c.28-.35.54-.35.78,0a.81.81,0,0,1,.15.53.92.92,0,0,1-.23.54Zm-.59-.87c-.12.14-.09.33.07.57s.3.26.41.13.08-.32-.08-.55S27.84,77.55,27.74,77.68Z"/></g><g id="text1198"><path id="path1376" class="cls-35" d="M29.64,143.29c-.29.17-.44,0-.44-.46a1.52,1.52,0,0,1,.12-.64.82.82,0,0,1,.35-.4c.29-.17.43,0,.43.48a1.48,1.48,0,0,1-.12.63A.73.73,0,0,1,29.64,143.29Zm0-1.25c-.12.06-.18.27-.18.62s.06.45.17.39.17-.27.17-.61S29.77,142,29.66,142Z"/></g><g id="text1202"><path id="path1373" class="cls-36" d="M34.22,140.68l-.79.45v-.25l.26-.15v-.9l-.27.22v-.26l.54-.43v1.21l.26-.15Z"/></g><g id="text1206"><path id="path1370" class="cls-37" d="M37.8,138.36h0l.51-.29v.27l-.82.47v-.25l.35-.6a1.82,1.82,0,0,0,.16-.29.46.46,0,0,0,0-.19c0-.14-.06-.17-.18-.1a.83.83,0,0,0-.31.33v-.28a1.27,1.27,0,0,1,.36-.34c.13-.07.23-.09.3-.05s.11.11.11.23a1.46,1.46,0,0,1-.26.68Z"/></g><g id="text1210"><path id="path1366" class="cls-38" d="M41.55,136.41v-.27a.38.38,0,0,0,.29-.07.56.56,0,0,0,.16-.14.32.32,0,0,0,.06-.18c0-.07,0-.1-.07-.11a.3.3,0,0,0-.2.06l-.11.07v-.25l.1-.06a.39.39,0,0,0,.24-.32c0-.12-.06-.14-.18-.07a.76.76,0,0,0-.25.23V135a1.26,1.26,0,0,1,.31-.25c.13-.07.23-.1.3-.07s.11.09.11.2a.66.66,0,0,1-.25.49.25.25,0,0,1,.21,0s.07.09.07.18a.63.63,0,0,1-.13.39.91.91,0,0,1-.35.32.61.61,0,0,1-.31.11Z"/></g><g id="text1214"><path id="path1363" class="cls-39" d="M46.37,133.42l-.15.08v.31L46,134v-.31l-.55.31v-.2l.53-1.24.27-.15v.91l.15-.09Zm-.4-.59h0l0,.14-.27.63.32-.18v-.59Z"/></g><g id="text1218"><path id="path1360" class="cls-40" d="M49.77,131.72v-.27a.42.42,0,0,0,.27-.07.5.5,0,0,0,.17-.15.39.39,0,0,0,.06-.2c0-.15-.09-.17-.26-.07l-.21.14v-.81l.69-.39v.26l-.45.26v.29l.1-.07a.37.37,0,0,1,.3-.06c.08,0,.11.12.11.26a.8.8,0,0,1-.13.43,1,1,0,0,1-.35.34.79.79,0,0,1-.3.11Z"/></g><g id="text1222"><path id="path1357" class="cls-41" d="M54.55,127.59v.27a.31.31,0,0,0-.2,0,.56.56,0,0,0-.23.25,1.18,1.18,0,0,0-.09.38h0a.67.67,0,0,1,.26-.31.23.23,0,0,1,.25,0,.35.35,0,0,1,.09.28.88.88,0,0,1-.12.43.8.8,0,0,1-.31.32c-.14.08-.25.08-.33,0a.55.55,0,0,1-.12-.42,1.58,1.58,0,0,1,.15-.69,1,1,0,0,1,.42-.46.46.46,0,0,1,.22-.09Zm-.34.93a.37.37,0,0,0-.12.13.41.41,0,0,0-.05.19.21.21,0,0,0,.05.15.09.09,0,0,0,.12,0,.33.33,0,0,0,.12-.14.45.45,0,0,0,0-.2c0-.15,0-.2-.16-.14Z"/></g><g id="text1226"><path id="path1354" class="cls-42" d="M58.71,125.37l-.44,1.55-.29.16.45-1.44-.59.34v-.26l.87-.5Z"/></g><g id="text1230"><path id="path1351" class="cls-43" d="M62.23,123.88c-.14,0-.21-.06-.21-.22a.68.68,0,0,1,.11-.34,1,1,0,0,1,.3-.28.36.36,0,0,1,.3-.06c.07,0,.11.09.11.19a.73.73,0,0,1-.24.49.22.22,0,0,1,.2,0,.25.25,0,0,1,.07.18.62.62,0,0,1-.13.38.91.91,0,0,1-.34.3.34.34,0,0,1-.3.07c-.08,0-.12-.1-.12-.22a.75.75,0,0,1,.25-.52Zm.35-.53a.1.1,0,0,0,0-.09.11.11,0,0,0-.11,0,.38.38,0,0,0-.11.11.27.27,0,0,0,0,.14q0,.14.15.12a.43.43,0,0,0,.15-.29Zm-.16.54a.52.52,0,0,0-.18.34c0,.06,0,.09,0,.1a.13.13,0,0,0,.13,0,.35.35,0,0,0,.14-.13.3.3,0,0,0,0-.16c0-.11-.07-.15-.19-.13Z"/></g><g id="text1234"><path id="path1348" class="cls-44" d="M66.08,122.39v-.26a.32.32,0,0,0,.23-.06.54.54,0,0,0,.23-.24.84.84,0,0,0,.08-.37.62.62,0,0,1-.26.29.23.23,0,0,1-.26,0,.3.3,0,0,1-.1-.26.87.87,0,0,1,.13-.44.82.82,0,0,1,.32-.32c.13-.08.24-.08.31,0a.57.57,0,0,1,.12.43,1.52,1.52,0,0,1-.14.69,1.07,1.07,0,0,1-.4.44.54.54,0,0,1-.26.09Zm.36-1.4a.33.33,0,0,0-.12.14.46.46,0,0,0,0,.2.17.17,0,0,0,0,.14s.07,0,.12,0a.3.3,0,0,0,.12-.13.41.41,0,0,0,0-.18.23.23,0,0,0,0-.16.1.1,0,0,0-.12,0Z"/></g><g id="text1238"><path id="path1343" class="cls-45" d="M70.52,119.88l-.79.45v-.25l.26-.15V119l-.26.21V119l.54-.44v1.22l.25-.15Z"/><path id="path1345" class="cls-46" d="M71.12,119.57c-.3.17-.45,0-.45-.47a1.52,1.52,0,0,1,.12-.64.88.88,0,0,1,.36-.4c.29-.17.43,0,.43.48a1.48,1.48,0,0,1-.12.63A.84.84,0,0,1,71.12,119.57Zm0-1.26c-.12.07-.18.27-.18.62s.06.45.18.39.17-.27.17-.6S71.24,118.24,71.13,118.31Z"/></g><g id="text1242"><path id="path1338-7" class="cls-47" d="M74.62,117.56l-.79.46v-.26l.26-.14v-.9l-.27.22v-.26l.54-.44v1.22l.26-.15Z"/><path id="path1340-9" class="cls-48" d="M75.65,117l-.79.45v-.25l.26-.15v-.9l-.27.22v-.26l.54-.44v1.22l.26-.15Z"/></g><g id="text1246"><path id="path1333" class="cls-49" d="M78.53,115.32l-.79.46v-.25l.26-.15v-.9l-.27.22v-.26l.55-.44v1.22l.25-.15Z"/><path id="path1335" class="cls-50" d="M79,114.77h0l.51-.29v.27l-.82.47V115l.36-.6a2.77,2.77,0,0,0,.15-.29.46.46,0,0,0,0-.19c0-.14-.06-.17-.18-.1a1,1,0,0,0-.31.33v-.28a1.15,1.15,0,0,1,.37-.33c.12-.08.22-.1.29-.06s.11.11.11.24a1.36,1.36,0,0,1-.26.67Z"/></g><g id="text1250"><path id="path1328-3" class="cls-51" d="M82.72,112.9l-.79.46v-.25l.26-.15v-.9l-.27.22V112l.54-.44v1.22l.26-.15Z"/><path id="path1330-0" class="cls-52" d="M82.94,112.73v-.27a.38.38,0,0,0,.29-.07.56.56,0,0,0,.16-.14.32.32,0,0,0,.06-.18c0-.07,0-.1-.07-.11a.3.3,0,0,0-.2.06l-.11.07v-.25l.1-.06c.16-.09.25-.2.25-.32s-.07-.14-.19-.07a.76.76,0,0,0-.25.23v-.26a1.26,1.26,0,0,1,.31-.25c.13-.07.23-.1.3-.07s.11.09.11.2a.66.66,0,0,1-.25.49.25.25,0,0,1,.21,0s.07.09.07.18a.69.69,0,0,1-.12.39,1,1,0,0,1-.36.32.61.61,0,0,1-.31.11Z"/></g><g id="text1254"><path id="path1323" class="cls-53" d="M90.92,108.21l-.79.46v-.26l.26-.14v-.9l-.27.22v-.26l.54-.44v1.22l.26-.15Z"/><path id="path1325" class="cls-54" d="M91.15,108v-.27a.45.45,0,0,0,.27-.06.53.53,0,0,0,.17-.16.31.31,0,0,0,.07-.2q0-.21-.27-.06l-.2.13v-.8l.69-.4v.26l-.46.26V107l.11-.07a.32.32,0,0,1,.3,0c.07,0,.11.12.11.25a.86.86,0,0,1-.13.43,1,1,0,0,1-.36.34.65.65,0,0,1-.3.11Z"/></g><g id="text1258"><path id="path1317" class="cls-55" d="M86.79,110.6l-.79.45v-.25l.26-.15v-.9L86,110v-.26l.54-.43v1.21l.26-.14Z"/><path id="path1319" class="cls-56" d="M87.86,109.68l-.15.09v.3l-.25.15v-.31l-.54.31V110l.52-1.24.27-.15v.91l.15-.09Zm-.4-.59h0l0,.14-.27.63.32-.18v-.59Z"/></g><g id="text1262"><path id="path1312-9" class="cls-57" d="M95,105.88l-.8.45v-.25l.26-.15V105l-.26.22V105l.54-.44v1.22l.26-.15Z"/><path id="path1314-8" class="cls-58" d="M96,103.9v.26a.41.41,0,0,0-.2.06.56.56,0,0,0-.23.25,1.12,1.12,0,0,0-.09.38h0a.67.67,0,0,1,.26-.31.23.23,0,0,1,.25,0,.35.35,0,0,1,.09.28.9.9,0,0,1-.12.43.8.8,0,0,1-.31.32c-.14.08-.25.08-.33,0a.57.57,0,0,1-.12-.43,1.42,1.42,0,0,1,.16-.68,1,1,0,0,1,.41-.46.5.5,0,0,1,.22-.09Zm-.34.93a.3.3,0,0,0-.12.13.41.41,0,0,0,0,.19.21.21,0,0,0,0,.15s.07,0,.12,0a.26.26,0,0,0,.12-.13.45.45,0,0,0,0-.2c0-.15,0-.2-.16-.14Z"/></g><g id="text1266"><path id="path1307" class="cls-59" d="M99.19,103.5l-.79.46v-.25l.26-.15v-.9l-.26.22v-.26l.54-.44v1.22l.25-.15Z"/><path id="path1309" class="cls-60" d="M100.24,101.61l-.44,1.55-.3.17.45-1.44-.58.33V102l.87-.5Z"/></g><g id="text1270"><path id="path1301-4" class="cls-61" d="M103,101.29l-.79.45v-.25l.26-.15v-.9l-.27.22v-.26l.54-.44v1.22L103,101Z"/><path id="path1303-6" class="cls-62" d="M103.44,100.3q-.21,0-.21-.21a.65.65,0,0,1,.11-.34.89.89,0,0,1,.3-.28.37.37,0,0,1,.3-.07c.07,0,.11.09.11.2a.69.69,0,0,1-.24.48.26.26,0,0,1,.2,0,.23.23,0,0,1,.07.18.6.6,0,0,1-.13.37,1,1,0,0,1-.34.31.36.36,0,0,1-.3.06c-.08,0-.12-.1-.12-.22a.77.77,0,0,1,.25-.52Zm.35-.53a.1.1,0,0,0,0-.09.12.12,0,0,0-.11,0,.35.35,0,0,0-.11.1.28.28,0,0,0,0,.15c0,.09.05.13.15.11a.43.43,0,0,0,.15-.29Zm-.16.54a.52.52,0,0,0-.18.35.11.11,0,0,0,0,.1.17.17,0,0,0,.13,0,.41.41,0,0,0,.14-.12.37.37,0,0,0,0-.16c0-.11-.07-.16-.19-.14Z"/></g><g id="text1274"><path id="path1295-9" class="cls-63" d="M107.19,98.9l-.79.46V99.1l.26-.14v-.9l-.27.22V98l.54-.44V98.8l.26-.15Z"/><path id="path1297-7" class="cls-64" d="M107.42,98.74v-.26a.39.39,0,0,0,.24-.06.64.64,0,0,0,.22-.24.87.87,0,0,0,.08-.37.61.61,0,0,1-.26.29.23.23,0,0,1-.25,0,.3.3,0,0,1-.1-.27.89.89,0,0,1,.44-.76c.13-.07.24-.08.32,0a.57.57,0,0,1,.12.43,1.62,1.62,0,0,1-.14.68,1,1,0,0,1-.4.45.71.71,0,0,1-.27.09Zm.36-1.4a.36.36,0,0,0-.11.13.37.37,0,0,0,0,.2c0,.08,0,.13,0,.15a.12.12,0,0,0,.13,0,.34.34,0,0,0,.12-.12.39.39,0,0,0,0-.18c0-.08,0-.13,0-.16s-.07,0-.12,0Z"/></g><g id="text1278"><path id="path1289-5" class="cls-65" d="M110.88,96.52h0l.51-.29v.26l-.82.47v-.24l.35-.6a2.4,2.4,0,0,0,.16-.29.79.79,0,0,0,0-.2c0-.13-.06-.16-.19-.09a.94.94,0,0,0-.3.32v-.28a1.24,1.24,0,0,1,.36-.33.37.37,0,0,1,.3-.06c.07,0,.11.11.11.24a1.43,1.43,0,0,1-.26.67Z"/><path id="path1291-2" class="cls-66" d="M112,96.17c-.3.17-.45,0-.45-.46a1.6,1.6,0,0,1,.12-.65.84.84,0,0,1,.35-.39c.29-.17.44,0,.44.48a1.48,1.48,0,0,1-.12.63A.82.82,0,0,1,112,96.17Zm0-1.25c-.12.06-.18.27-.18.62s.06.45.18.39.17-.27.17-.61S112.13,94.85,112,94.92Z"/></g></g><path id="rect1455" class="cls-67" d="M32.49,132.24l2.81-1.6v5.6l-2.81,1.6Z"/><path id="rect1457" class="cls-68" d="M109.75,33.77,112.83,32V91.88l-3.08,1.76Z"/><path id="rect1459" class="cls-69" d="M105.81,42.21l2.81-1.6V94.29l-2.81,1.6Z"/><path id="rect1461" class="cls-70" d="M101.74,47.05l2.81-1.6V96.62l-2.81,1.61Z"/><path id="rect1463" class="cls-71" d="M97.67,56.76l2.8-1.61V99l-2.8,1.61Z"/><path id="rect1465" class="cls-72" d="M93.59,65.43l2.81-1.61v37.46l-2.81,1.61Z"/><path id="rect1467" class="cls-73" d="M89.52,70.41l2.81-1.6v34.8l-2.81,1.61Z"/><path id="rect1469" class="cls-74" d="M85.45,81l2.8-1.6v26.54l-2.8,1.61Z"/><path id="rect1471" class="cls-75" d="M81.37,81.56,84.18,80v28.31l-2.81,1.61Z"/><path id="rect1473" class="cls-76" d="M77.3,64.28l2.8-1.61V110.6l-2.8,1.61Z"/><path id="rect1475" class="cls-77" d="M73.23,73l2.8-1.6v41.58l-2.8,1.61Z"/><path id="rect1477" class="cls-78" d="M69.15,86.34,72,84.74v30.52l-2.81,1.61Z"/><path id="rect1479" class="cls-79" d="M65.08,96.34l2.8-1.6V117.6l-2.8,1.6Z"/><path id="rect1481" class="cls-80" d="M61,92.18l2.8-1.6v29.35l-2.8,1.6Z"/><path id="rect1483" class="cls-81" d="M56.93,93.19l2.81-1.61v30.68l-2.81,1.6Z"/><path id="rect1485" class="cls-82" d="M52.86,99.2l2.8-1.6v27l-2.8,1.6Z"/><path id="rect1487" class="cls-83" d="M48.78,112.59l2.81-1.6v15.93l-2.81,1.6Z"/><path id="rect1489" class="cls-84" d="M44.71,109.91l2.81-1.6v20.94l-2.81,1.6Z"/><path id="rect1491" class="cls-85" d="M40.64,120.5l2.8-1.6v12.68l-2.8,1.6Z"/><path id="rect1493" class="cls-86" d="M36.56,123.86l2.81-1.6v11.65l-2.81,1.6Z"/><path id="rect1495" class="cls-4" d="M32.49,132.24l2.81-1.6v2.5l-2.81,1.61Z"/><path id="rect1497" class="cls-4" d="M109.75,33.77,112.83,32V46.6l-3.08,1.77Z"/><path id="rect1499" class="cls-4" d="M105.81,42.21l2.81-1.6V59.78l-2.81,1.61Z"/><path id="rect1501" class="cls-4" d="M101.74,47.05l2.81-1.6V59l-2.81,1.61Z"/><path id="rect1503" class="cls-4" d="M97.67,56.76l2.8-1.61v2.21L97.67,59Z"/><path id="rect1505" class="cls-4" d="M93.59,65.43l2.81-1.61v6.34l-2.81,1.61Z"/><path id="rect1507" class="cls-4" d="M89.52,70.41l2.81-1.6v8.7l-2.81,1.6Z"/><path id="rect1509" class="cls-4" d="M85.45,81l2.8-1.6v8.85l-2.8,1.6Z"/><path id="rect1511" class="cls-4" d="M81.37,81.56,84.18,80V100l-2.81,1.61Z"/><path id="rect1513" class="cls-4" d="M77.3,64.28l2.8-1.61V90.1l-2.8,1.61Z"/><path id="rect1515" class="cls-4" d="M73.23,73l2.8-1.6V87.86l-2.8,1.61Z"/><path id="rect1517" class="cls-4" d="M69.15,86.34,72,84.74v1.91l-2.81,1.61Z"/><path id="rect1519" class="cls-4" d="M65.08,96.34l2.8-1.6v3.83l-2.8,1.61Z"/><path id="rect1521" class="cls-4" d="M61,92.18l2.8-1.6v13l-2.8,1.6Z"/><path id="rect1523" class="cls-4" d="M56.93,93.19l2.81-1.61v23.6l-2.81,1.6Z"/><path id="rect1525" class="cls-4" d="M52.86,99.2l2.8-1.6v14.75l-2.8,1.6Z"/><path id="rect1527" class="cls-4" d="M48.78,112.59l2.81-1.6v5.9l-2.81,1.6Z"/><path id="rect1529" class="cls-4" d="M44.71,109.91l2.81-1.6v3.24l-2.81,1.61Z"/><path id="rect1531" class="cls-4" d="M40.64,120.5l2.8-1.6v7.81l-2.8,1.61Z"/><path id="rect1533" class="cls-4" d="M36.56,123.86l2.81-1.6v2.65l-2.81,1.61Z"/></g><g id="g3999"><path id="path3980" class="cls-3" d="M191,33.53C187,42.88,180.05,61,180.05,61l4.57-2.64a149.27,149.27,0,0,1-6.78,29.77c-6.05,18.13-15.4,36.17-26.33,52.66A333.27,333.27,0,0,1,115.1,186C93.34,208.87,70,228.24,46.48,242.9l11,6.36a324,324,0,0,0,38-27.88l12-10.66Q117,202,126.13,192.33a332.56,332.56,0,0,0,36.41-45.17c10.93-16.49,20.28-34.54,26.32-52.67a148.54,148.54,0,0,0,6.79-29.76l-4.57,2.64s3.1-8.08,6.35-16.23a1.09,1.09,0,0,1,0-.18l.08,0c.76-1.92,1.53-3.82,2.26-5.63C197.41,41.93,193.58,36.62,191,33.53Z"/><path id="path2952" class="cls-87" d="M196.12,109.09a229.68,229.68,0,0,1-30,50.88,308.48,308.48,0,0,1-38.65,41.25c-22.69,20.35-46.48,36.69-69.94,48,23.52-14.65,46.87-34,68.63-56.93a332.56,332.56,0,0,0,36.41-45.17c10.93-16.49,20.28-34.54,26.32-52.67a148.54,148.54,0,0,0,6.79-29.76l-4.57,2.64S198,49.24,202,39.9C206,44.65,213,54.73,213,54.73l-4.51,2.6c-.73,16.19-5,34.2-12.34,51.76Z"/><path id="path3986" class="cls-3" d="M191,33.53l11,6.37L191.08,67.37l-11-6.37C183.65,51.76,187.23,42.46,191,33.53Z"/></g><g id="g4772"><g id="g4726"><path id="path4708" class="cls-4" d="M227,128.16a8.93,8.93,0,0,0-4.4,1.06l-19,10.95h-3.51v3.52h0a3.08,3.08,0,0,0,1.83,2.53l52,30a9.72,9.72,0,0,0,8.82,0l20.65-11.93a3,3,0,0,0,1.83-2.66v-3.52l-3.82-.83v.78l-50-28.86a8.94,8.94,0,0,0-4.41-1.06Z"/><g id="g4722"><path id="path4710" class="cls-88" d="M202.38,137.81c-2.2,1.26-2.2,3.28,0,4.55l52,30a8.69,8.69,0,0,0,7.88,0l20.66-11.93c2.19-1.27,2.19-3.29,0-4.55l-52-30a8.69,8.69,0,0,0-7.88,0Z"/><path id="path4712" class="cls-3" d="M201.91,137.54c-2.44,1.41-2.44,3.68,0,5.09l52,30a9.79,9.79,0,0,0,8.82,0l20.65-11.93c2.44-1.41,2.44-3.68,0-5.09l-52-30a9.7,9.7,0,0,0-8.81,0Zm.47.27L223,125.88a8.69,8.69,0,0,1,7.88,0l52,30c2.19,1.26,2.19,3.28,0,4.55l-20.66,11.93a8.69,8.69,0,0,1-7.88,0l-52-30C200.18,141.09,200.18,139.07,202.38,137.81Z"/><polygon id="rect4714" class="cls-3" points="206.65 143.26 232.47 128.35 278.61 154.99 252.79 169.9 206.65 143.26"/><path id="rect4716" class="cls-3" d="M211.87,135.75l7.6-4.39a.72.72,0,0,1,.61,0l.25.14a.19.19,0,0,1,0,.35l-7.61,4.4a.72.72,0,0,1-.61,0l-.24-.15C211.7,136,211.7,135.85,211.87,135.75Z"/><ellipse id="circle4718" class="cls-3" cx="269.11" cy="164.41" rx="3.15" ry="1.82"/><ellipse id="circle4720" class="cls-89" cx="269.11" cy="164.41" rx="2.65" ry="1.53"/></g><path id="path4724" class="cls-90" d="M268.28,171.21a1,1,0,0,1,.42-.79l8.68-5c.23-.14.42,0,.42.31a1,1,0,0,1-.42.8l-8.68,5c-.23.13-.42,0-.42-.32Z"/></g><path id="path4737" class="cls-3" d="M223.53,156.91a1,1,0,0,0-.42-.8l-8.67-5c-.24-.13-.42,0-.42.32a1,1,0,0,0,.42.8l8.67,5c.23.14.42,0,.42-.31Zm-10.9-6.3a1,1,0,0,0-.42-.79l-5.08-2.93c-.23-.14-.41,0-.41.31a1,1,0,0,0,.41.8l5.08,2.93c.23.13.42,0,.42-.32Z"/></g><path id="path5737" class="cls-4" d="M253.64,153.1a13.39,13.39,0,0,1-12.08,0c-3.34-1.93-3.34-5,0-7a13.33,13.33,0,0,1,12.08,0c3.33,1.92,3.33,5,0,7Z"/><g id="g5043"><g id="g5039"><path id="path5027" class="cls-91" d="M240.72,120a13.83,13.83,0,0,0-6.27,10.85c0,4,2.81,5.61,6.27,3.61A13.88,13.88,0,0,0,247,123.58C247,119.59,244.17,118,240.72,120Z"/><path id="path5029" class="cls-4" d="M244.2,116.55a4.56,4.56,0,0,1,2.29.58l4.5,2.6-1.28,1.12-.91-.13a8.69,8.69,0,0,1,.18,1.65,17.26,17.26,0,0,1-.54,4.32c-.36,1.5-.87,3-1.39,4.54l-4.75,14,2.47.44.35,5.53.09,1.27-4.5-2.6-6.34-11.27a16.58,16.58,0,0,1-1.39-2.94,10.61,10.61,0,0,1-.55-3.69,17.87,17.87,0,0,1,2.5-8.12,17.34,17.34,0,0,1,5.78-6.21,7.31,7.31,0,0,1,3.49-1Z"/><path id="path5031" class="cls-92" d="M245.21,120.2c2.16-1.24,4.26-1.35,5.78-.46s2.44,2.79,2.5,5.24a17.31,17.31,0,0,1-.54,4.32c-.37,1.49-.88,3-1.4,4.54l-6.34,18.59-6.33-11.28a16.51,16.51,0,0,1-1.4-2.93,10.71,10.71,0,0,1-.54-3.7,17.81,17.81,0,0,1,2.49-8.11,17.34,17.34,0,0,1,5.78-6.21Z"/><g id="g5037"><path id="path5033" class="cls-4" d="M248.8,122.4a3.23,3.23,0,0,1,1.56.4l2.08,1.2-.48,1a6.82,6.82,0,0,1,.25,1.87A13.85,13.85,0,0,1,246,137.71a5.8,5.8,0,0,1-2.63.84l.11.69-1.78-1c-1.25-.66-2-2.14-2-4.12A13.82,13.82,0,0,1,246,123.24a5.78,5.78,0,0,1,2.85-.84Z"/><path id="path5035" class="cls-3" d="M241.6,135.2c0,4,2.81,5.61,6.26,3.61A13.83,13.83,0,0,0,254.13,128c0-4-2.81-5.61-6.27-3.61A13.86,13.86,0,0,0,241.6,135.2Z"/></g></g><path id="path5041" class="cls-93" d="M250.78,129c.52-.29.93-.05.93.55a2.08,2.08,0,0,1-.93,1.62c-.52.3-.94.06-.94-.54A2.11,2.11,0,0,1,250.78,129ZM248,130.62c.52-.29.94-.06.94.54a2.06,2.06,0,0,1-.94,1.63c-.52.3-.93.06-.93-.54A2,2,0,0,1,248,130.62Zm-2.75,1.59c.52-.3.93-.06.93.54a2.1,2.1,0,0,1-.93,1.63c-.52.29-.94.06-.94-.54A2.11,2.11,0,0,1,245.28,132.21Z"/></g><g id="g5822"><g id="g5107"><path id="path5083" class="cls-3" d="M87.43,148.35a8.21,8.21,0,0,1,3.95,1l0,0,4,2.31c-2.87-1.65-6.83-1.42-11.2,1.11a25,25,0,0,0-4.46,3.31c-6.59,6-11.39,15.82-11.39,24.13,0,5.07,1.79,8.63,4.69,10.28l-4-2.3,0,0c-2.88-1.64-4.65-5.2-4.65-10.27,0-10.1,7.09-22.38,15.84-27.43a14.29,14.29,0,0,1,7.21-2.18Z"/><path id="path5085" class="cls-3" d="M90.56,155.5c3.46.47,5.78,3.56,5.78,8.59,0,7.75-5.43,17.16-12.14,21-4.62,2.67-8.64,2-10.69-1.19,1.66.78,3.9.51,6.7-1.11,6.7-3.88,12.14-13.28,12.14-21a10.06,10.06,0,0,0-1.79-6.29Z"/><path id="path5087" class="cls-4" d="M84.2,152.82c8.75-5,15.84-1,15.84,9.14S93,184.35,84.2,189.4c-4.36,2.51-8.3,2.76-11.16,1.14s-4.69-5.21-4.69-10.29c0-10.1,7.11-22.38,15.85-27.43Zm0,4.27c-6.7,3.88-12.14,13.28-12.14,21s5.42,10.87,12.14,7,12.14-13.28,12.14-21S90.91,153.22,84.2,157.09Z"/><g id="g5093"><path id="path5089" class="cls-4" d="M65.9,179.67a1.18,1.18,0,0,1,.61.17,2.92,2.92,0,0,1,1.32,2.29.92.92,0,0,1-.38.85,0,0,0,0,0,0,0l-3.79,2.2L61.76,182l3.82-2.21a1,1,0,0,1,.32-.09Z"/><path id="path5091" class="cls-94" d="M61.4,182.8a2.92,2.92,0,0,0,1.32,2.29c.73.42,1.32.08,1.32-.76A2.92,2.92,0,0,0,62.72,182a.92.92,0,0,0-.92-.09A.9.9,0,0,0,61.4,182.8Z"/></g><path id="path5095" class="cls-3" d="M61.65,181.05a1.72,1.72,0,0,1,1,.28,4.43,4.43,0,0,1,2,3.48,1.41,1.41,0,0,1-.57,1.29L42.87,198.33,40,193.4,61.2,181.18h0a.9.9,0,0,1,.44-.12Z"/><g id="g5103"><path id="path5097" class="cls-4" d="M41.82,192.56a1.79,1.79,0,0,1,.84.27,4.45,4.45,0,0,1,2,3.48,1.42,1.42,0,0,1-.59,1.3l-1.47.85-.64-.8.49-.3A4.52,4.52,0,0,1,40.65,194a2,2,0,0,1,0-.43l0,0-.85.08v-.13l1.4-.81,0,0a1,1,0,0,1,.46-.13Z"/><path id="path5099" class="cls-4" d="M39.18,194.84a4.44,4.44,0,0,0,2,3.48c1.11.64,2,.11,2-1.17a4.44,4.44,0,0,0-2-3.48,1.42,1.42,0,0,0-1.4-.14A1.41,1.41,0,0,0,39.18,194.84Z"/><path id="path5101" class="cls-3" d="M39.61,195.45A3.07,3.07,0,0,0,41,197.81c.76.43,1.36.07,1.36-.79A3,3,0,0,0,41,194.67a.83.83,0,0,0-1.36.78Z"/></g><path id="path5105" class="cls-95" d="M61.3,181.38a.21.21,0,0,1,.22.21.23.23,0,0,1-.1.19L42.93,192.46a.22.22,0,1,1-.22-.38l18.5-10.68a.13.13,0,0,1,.09,0Zm.82.53a.22.22,0,0,1,.12.41L43.76,193a.24.24,0,0,1-.31-.08.22.22,0,0,1,.08-.3L62,181.94l.1,0Zm.66.72a.22.22,0,0,1,.22.21.25.25,0,0,1-.1.2L44.41,193.72a.22.22,0,0,1-.3-.08.21.21,0,0,1,.08-.3l18.5-10.68a.16.16,0,0,1,.09,0Zm.52.85a.22.22,0,0,1,.12.41L44.93,194.57a.23.23,0,0,1-.3-.08.22.22,0,0,1,.08-.3l18.5-10.68.09,0Zm.34,1a.21.21,0,0,1,.22.21.2.2,0,0,1-.1.19L45.27,195.56a.21.21,0,0,1-.3-.08.23.23,0,0,1,.08-.3l18.49-10.67A.15.15,0,0,1,63.64,184.48Zm.09,1.07a.22.22,0,0,1,.23.21.23.23,0,0,1-.11.2L45.36,196.63a.21.21,0,1,1-.23-.36v0l18.49-10.67A.12.12,0,0,1,63.73,185.55Z"/></g><path id="path5799" class="cls-96" d="M88.51,176.06A18.8,18.8,0,0,0,92,171.47,14.73,14.73,0,0,0,93.8,162a12,12,0,0,0-1.15-3.39,23.7,23.7,0,0,1,.2,5.58,24.09,24.09,0,0,1-4.34,11.89Z"/><path id="path5803" class="cls-96" d="M77.64,168.46a10.74,10.74,0,0,0-2,2.34,8,8,0,0,0-1.35,4.83,5.64,5.64,0,0,0,.43,1.73,12.32,12.32,0,0,1,.16-2.84,13.2,13.2,0,0,1,1.21-3.62A13.69,13.69,0,0,1,77.64,168.46Z"/></g><path id="path6907" class="cls-4" d="M155.82,8.83l22.06,12.74L155.82,34.31,133.75,21.57Z"/><g id="g6138"><g id="g5848"><g id="g5834"><polygon id="polygon5824" class="cls-97" points="140.26 21.61 133.02 17.42 149.88 7.69 157.13 11.87 140.26 21.61"/><path id="path5826" class="cls-3" d="M133.81,17.42l.2.12,6.25,3.61,16.07-9.28-6.45-3.73Zm.81,0,6.53-3.77c-.69.92-.33,2,.89,2.69a6.71,6.71,0,0,0,5,.42l-6.81,3.93Zm8.73-5,6.53-3.77,5.65,3.26-6.8,3.93c.91-1,.62-2.14-.71-2.91A6.7,6.7,0,0,0,143.35,12.38Zm-1,.78.14-.08.44.25a4,4,0,0,1,.82-.34,2.15,2.15,0,0,1,.77-.1,2.12,2.12,0,0,1,.74.3l.14.08-1.19.69-.28-.16a.68.68,0,0,0-.28-.11h-.09l.73.42.14,0a8.42,8.42,0,0,1,1.71-.26,2.07,2.07,0,0,1,1,.32,1,1,0,0,1,.45.41c0,.12,0,.27-.17.46a2.41,2.41,0,0,1-.67.53l.42.25-.14.08-.43-.25a3.45,3.45,0,0,1-.91.36,2,2,0,0,1-.85.06,2.39,2.39,0,0,1-.76-.3l-.24-.14,1.19-.69.45.26a.75.75,0,0,0,.32.12.34.34,0,0,0,.17,0l-.85-.49c-.16,0-.36.06-.61.12l-1,.17a2.13,2.13,0,0,1-.56,0,1.85,1.85,0,0,1-.58-.23c-.28-.16-.44-.31-.48-.44a.52.52,0,0,1,.17-.45,2.64,2.64,0,0,1,.67-.51Zm1.06.61a.15.15,0,0,0-.07.12s.06.1.16.16a.87.87,0,0,0,.34.12h.23ZM139,17.25c-.44.26-.44.66,0,.92a1.76,1.76,0,0,0,1.58,0c.44-.26.44-.67,0-.92a1.76,1.76,0,0,0-1.58,0Zm10.61-6.12a.48.48,0,0,0,0,.91,1.76,1.76,0,0,0,1.58,0,.48.48,0,0,0,0-.91,1.7,1.7,0,0,0-1.58,0Zm-4.2,3.62.76.43a.14.14,0,0,0,0-.1c0-.06-.05-.11-.15-.17a1.12,1.12,0,0,0-.55-.18Z"/><g id="g5832"><polygon id="polygon5828" class="cls-3" points="146.95 17.82 139.57 13.56 143.19 11.47 150.57 15.73 146.95 17.82"/><polygon id="polygon5830" class="cls-4" points="147.29 17.63 139.91 13.37 142.85 11.66 150.24 15.93 147.29 17.63"/></g></g><g id="g5844"><polygon id="polygon5836" class="cls-98" points="157.13 13.99 157.13 11.87 140.26 21.61 140.26 23.73 157.13 13.99"/><g id="g5842"><polygon id="polygon5838" class="cls-3" points="150.5 17.92 150.5 15.69 146.88 17.78 146.88 20.01 150.5 17.92"/><polygon id="polygon5840" class="cls-4" points="150.17 18.11 150.17 15.89 147.22 17.59 147.22 19.82 150.17 18.11"/></g></g><path id="path5846" class="cls-99" d="M133,17.43v2.12l7.24,4.18V21.61Z"/></g><g id="g5874"><g id="g5860"><polygon id="polygon5850" class="cls-100" points="148.07 26.11 140.83 21.93 157.69 12.2 164.94 16.38 148.07 26.11"/><path id="path5852" class="cls-3" d="M141.62,21.93l.2.12,6.25,3.6,16.07-9.27-6.45-3.73Zm.81,0L149,18.16c-.69.92-.33,2,.89,2.69a6.71,6.71,0,0,0,5,.42l-6.81,3.93Zm8.73-5,6.53-3.77,5.65,3.26-6.8,3.92c.91-.95.62-2.13-.71-2.9A6.7,6.7,0,0,0,151.16,16.89Zm-1,.78.15-.08.43.25a4,4,0,0,1,.82-.34,1.54,1.54,0,0,1,1.51.2l.15.08-1.2.69-.27-.16a.71.71,0,0,0-.29-.11h-.09l.73.42.14,0a9.65,9.65,0,0,1,1.71-.27,2.21,2.21,0,0,1,1,.33,1,1,0,0,1,.45.41c0,.12,0,.27-.16.46a2.68,2.68,0,0,1-.68.53l.42.25-.14.08-.42-.25a3.87,3.87,0,0,1-.91.37,2.17,2.17,0,0,1-.85.06,2.44,2.44,0,0,1-.76-.31l-.24-.14,1.19-.69.45.26a1,1,0,0,0,.32.13.35.35,0,0,0,.17,0L153,19.3l-.61.11-1,.17a2.13,2.13,0,0,1-.56,0,2.08,2.08,0,0,1-.58-.22c-.28-.16-.44-.31-.48-.44a.5.5,0,0,1,.17-.45,2.64,2.64,0,0,1,.67-.52Zm1.06.61a.15.15,0,0,0-.07.12c0,.05.06.1.16.16a.87.87,0,0,0,.34.12h.24Zm-4.45,3.48a.48.48,0,0,0,0,.91,1.72,1.72,0,0,0,1.59,0,.48.48,0,0,0,0-.91,1.78,1.78,0,0,0-1.59,0Zm10.61-6.13a.49.49,0,0,0,0,.92,1.78,1.78,0,0,0,1.59,0c.44-.26.44-.67,0-.92a1.78,1.78,0,0,0-1.59,0Zm-4.19,3.63.76.43a.14.14,0,0,0,0-.1c0-.06-.05-.11-.15-.17a1.1,1.1,0,0,0-.55-.18Z"/><g id="g5858"><polygon id="polygon5854" class="cls-3" points="154.76 22.33 147.38 18.07 151 15.98 158.38 20.24 154.76 22.33"/><polygon id="polygon5856" class="cls-4" points="155.1 22.14 147.72 17.88 150.66 16.17 158.05 20.44 155.1 22.14"/></g></g><g id="g5870"><polygon id="polygon5862" class="cls-101" points="164.94 18.5 164.94 16.38 148.07 26.12 148.07 28.24 164.94 18.5"/><g id="g5868"><polygon id="polygon5864" class="cls-3" points="158.32 22.43 158.32 20.2 154.69 22.29 154.69 24.52 158.32 22.43"/><polygon id="polygon5866" class="cls-4" points="157.98 22.62 157.98 20.4 155.03 22.1 155.03 24.32 157.98 22.62"/></g></g><path id="path5872" class="cls-102" d="M140.83,21.93v2.13l7.24,4.18V26.12Z"/></g><g id="g5902"><g id="g5886"><polygon id="polygon5876" class="cls-103" points="155.88 30.63 148.64 26.44 165.51 16.71 172.75 20.89 155.88 30.63"/><path id="path5878" class="cls-3" d="M149.44,26.44l.19.12,6.25,3.6L172,20.88l-6.45-3.72Zm.8,0,6.53-3.77c-.69.92-.33,2,.89,2.69a6.71,6.71,0,0,0,5,.42l-6.8,3.92Zm8.73-5,6.54-3.77,5.64,3.26-6.8,3.92c.91-.95.62-2.13-.71-2.9A6.7,6.7,0,0,0,159,21.4Zm-1,.78.14-.08.43.25a3.83,3.83,0,0,1,.83-.34,2.11,2.11,0,0,1,.77-.1,2.16,2.16,0,0,1,.73.3l.15.08-1.2.69-.27-.16a.71.71,0,0,0-.29-.11h-.09l.73.42.14,0a9.78,9.78,0,0,1,1.71-.27,2.21,2.21,0,0,1,1,.33,1,1,0,0,1,.45.41c0,.12,0,.27-.16.46a2.68,2.68,0,0,1-.68.53l.43.25-.15.08-.42-.25a3.51,3.51,0,0,1-.92.36,2,2,0,0,1-.85.07,2.83,2.83,0,0,1-.76-.31l-.24-.14,1.2-.69.45.26a1,1,0,0,0,.32.13.32.32,0,0,0,.16,0l-.84-.49-.61.12c-.48.09-.81.15-1,.17a2.06,2.06,0,0,1-.55,0,2.14,2.14,0,0,1-.59-.22c-.28-.17-.44-.31-.47-.45a.47.47,0,0,1,.17-.44,2.64,2.64,0,0,1,.67-.52Zm1,.61a.15.15,0,0,0-.07.12c0,.05.06.1.16.16a.87.87,0,0,0,.34.12h.24Zm-4.44,3.48a.48.48,0,0,0,0,.91,1.7,1.7,0,0,0,1.58,0,.48.48,0,0,0,0-.91,1.76,1.76,0,0,0-1.58,0Zm10.61-6.13c-.44.26-.44.67,0,.92a1.76,1.76,0,0,0,1.58,0c.44-.26.44-.67,0-.92a1.76,1.76,0,0,0-1.58,0ZM161,23.76l.76.44a.16.16,0,0,0,0-.1c0-.06-.06-.11-.16-.17a1.1,1.1,0,0,0-.55-.18Z"/><g id="g5884"><polygon id="polygon5880" class="cls-3" points="162.57 26.84 155.19 22.58 158.81 20.49 166.2 24.75 162.57 26.84"/><polygon id="polygon5882" class="cls-4" points="162.91 26.65 155.53 22.39 158.47 20.68 165.86 24.95 162.91 26.65"/></g></g><g id="g5898"><polygon id="polygon5888" class="cls-104" points="172.75 23.01 172.75 20.88 155.88 30.62 155.88 32.75 172.75 23.01"/><g id="g5894"><polygon id="polygon5890" class="cls-3" points="166.13 26.94 166.13 24.71 162.5 26.8 162.5 29.03 166.13 26.94"/><polygon id="polygon5892" class="cls-4" points="165.79 27.13 165.79 24.91 162.84 26.61 162.84 28.83 165.79 27.13"/></g><path id="path5896" class="cls-105" d="M172.75,20.88v.77l-16,9.42v-.93Z"/></g><path id="path5900" class="cls-106" d="M148.64,26.44v2.13l7.24,4.18V30.62Z"/></g><g id="g5928"><g id="g5914"><polygon id="polygon5904" class="cls-107" points="141.4 19.06 134.16 14.88 151.02 5.15 158.27 9.33 141.4 19.06"/><path id="path5906" class="cls-3" d="M135,14.88l.2.12,6.25,3.6,16.07-9.27L151,5.6Zm.81,0,6.53-3.77c-.69.92-.33,2,.89,2.69a6.71,6.71,0,0,0,5,.42l-6.81,3.92Zm8.73-5L151,6.06l5.65,3.27-6.81,3.92c.91-.95.62-2.13-.71-2.9a6.7,6.7,0,0,0-4.67-.51Zm-1,.78.15-.08.43.25a4,4,0,0,1,.82-.34,2.15,2.15,0,0,1,.77-.1,2.12,2.12,0,0,1,.74.3l.15.08-1.2.69-.28-.16a.68.68,0,0,0-.28-.11h-.09l.73.42.14,0a8.51,8.51,0,0,1,1.71-.26,2.07,2.07,0,0,1,1,.32,1,1,0,0,1,.45.41c0,.12,0,.27-.17.46a2.27,2.27,0,0,1-.67.53l.42.25-.14.08-.43-.25a3.45,3.45,0,0,1-.91.36,2,2,0,0,1-.85.06,2.39,2.39,0,0,1-.76-.3l-.24-.14,1.19-.69.46.26a1,1,0,0,0,.32.13.35.35,0,0,0,.17,0l-.85-.48-.61.11-1,.17a2.13,2.13,0,0,1-.56,0,2.08,2.08,0,0,1-.58-.22c-.28-.16-.44-.31-.48-.44a.5.5,0,0,1,.17-.45,2.64,2.64,0,0,1,.67-.52Zm1.06.61a.15.15,0,0,0-.07.12c0,.05.06.1.16.16a.87.87,0,0,0,.34.12h.24Zm-4.45,3.48a.48.48,0,0,0,0,.91,1.72,1.72,0,0,0,1.59,0,.48.48,0,0,0,0-.91,1.78,1.78,0,0,0-1.59,0Zm10.61-6.13a.49.49,0,0,0,0,.92,1.78,1.78,0,0,0,1.59,0c.44-.26.44-.67,0-.92a1.78,1.78,0,0,0-1.59,0Zm-4.19,3.63.76.43a.14.14,0,0,0,0-.1c0-.06-.05-.11-.15-.17a1.21,1.21,0,0,0-.55-.18Z"/><g id="g5912"><polygon id="polygon5908" class="cls-3" points="148.1 15.28 140.71 11.02 144.33 8.93 151.72 13.19 148.1 15.28"/><polygon id="polygon5910" class="cls-4" points="148.43 15.09 141.05 10.82 144 9.12 151.38 13.38 148.43 15.09"/></g></g><g id="g5924"><polygon id="polygon5916" class="cls-108" points="158.27 11.45 158.27 9.33 141.41 19.07 141.41 21.18 158.27 11.45"/><g id="g5922"><polygon id="polygon5918" class="cls-3" points="151.65 15.38 151.65 13.15 148.03 15.24 148.03 17.47 151.65 15.38"/><polygon id="polygon5920" class="cls-4" points="151.31 15.57 151.31 13.34 148.36 15.05 148.36 17.27 151.31 15.57"/></g></g><path id="path5926" class="cls-109" d="M134.16,14.88V17l7.25,4.18V19.07Z"/></g><g id="g5954"><g id="g5940"><polygon id="polygon5930" class="cls-110" points="149.22 23.57 141.97 19.39 158.84 9.66 166.08 13.84 149.22 23.57"/><path id="path5932" class="cls-3" d="M142.77,19.39l.19.12,6.25,3.6,16.07-9.27-6.45-3.73Zm.8,0,6.53-3.77c-.69.92-.33,2,.89,2.69a6.71,6.71,0,0,0,5,.42l-6.8,3.92Zm8.73-5,6.54-3.78,5.65,3.27-6.8,3.92c.9-1,.61-2.13-.72-2.9A6.7,6.7,0,0,0,152.3,14.35Zm-1,.78.14-.08.43.25a3.83,3.83,0,0,1,.83-.34,2.11,2.11,0,0,1,.77-.1,2.16,2.16,0,0,1,.73.3l.15.08-1.2.69-.27-.16a.71.71,0,0,0-.29-.11h-.09l.73.42.14,0a8.51,8.51,0,0,1,1.71-.26,2.07,2.07,0,0,1,1,.32,1,1,0,0,1,.45.41c0,.12,0,.27-.16.46a2.47,2.47,0,0,1-.68.53l.43.25-.15.08-.43-.25a3.83,3.83,0,0,1-.91.36,2.16,2.16,0,0,1-.85.06,2.39,2.39,0,0,1-.76-.3l-.24-.14,1.2-.69.44.26a.75.75,0,0,0,.32.12.32.32,0,0,0,.17,0l-.85-.49c-.16,0-.36.06-.61.12-.48.09-.8.15-1,.17a2,2,0,0,1-.55,0,1.81,1.81,0,0,1-.59-.23c-.28-.16-.44-.31-.48-.44a.55.55,0,0,1,.17-.45,2.64,2.64,0,0,1,.67-.51Zm1.05.61a.15.15,0,0,0-.07.12c0,.05.06.1.16.16a.87.87,0,0,0,.34.12H153Zm-4.44,3.48a.48.48,0,0,0,0,.91,1.7,1.7,0,0,0,1.58,0,.48.48,0,0,0,0-.91,1.76,1.76,0,0,0-1.58,0Zm10.61-6.13c-.44.26-.44.67,0,.92a1.76,1.76,0,0,0,1.58,0c.44-.26.44-.67,0-.92a1.76,1.76,0,0,0-1.58,0Zm-4.2,3.63.76.43a.16.16,0,0,0,.05-.1c0-.06-.06-.11-.16-.17a1.1,1.1,0,0,0-.55-.18Z"/><g id="g5938"><polygon id="polygon5934" class="cls-3" points="155.91 19.79 148.52 15.53 152.14 13.44 159.53 17.7 155.91 19.79"/><polygon id="polygon5936" class="cls-4" points="156.24 19.6 148.86 15.34 151.81 13.63 159.19 17.89 156.24 19.6"/></g></g><g id="g5950"><polygon id="polygon5942" class="cls-111" points="166.08 15.96 166.08 13.84 149.21 23.57 149.21 25.7 166.08 15.96"/><g id="g5948"><polygon id="polygon5944" class="cls-3" points="159.46 19.89 159.46 17.66 155.84 19.75 155.84 21.98 159.46 19.89"/><polygon id="polygon5946" class="cls-4" points="159.12 20.08 159.12 17.85 156.17 19.56 156.17 21.78 159.12 20.08"/></g></g><path id="path5952" class="cls-112" d="M142,19.39v2.13l7.25,4.18V23.58Z"/></g><g id="g5980"><g id="g5966"><polygon id="polygon5956" class="cls-113" points="157.03 28.08 149.78 23.9 166.65 14.17 173.89 18.35 157.03 28.08"/><path id="path5958" class="cls-3" d="M150.58,23.9l.19.12,6.25,3.6,16.07-9.28-6.45-3.72Zm.8,0,6.53-3.77c-.69.92-.33,2,.89,2.69a6.71,6.71,0,0,0,5,.42L157,27.16Zm8.73-5,6.54-3.78,5.65,3.26-6.8,3.93c.9-.95.61-2.13-.72-2.9A6.64,6.64,0,0,0,160.11,18.86Zm-1,.78.14-.08.43.25a3.83,3.83,0,0,1,.83-.34,2.11,2.11,0,0,1,.77-.1,2.16,2.16,0,0,1,.73.3l.15.08-1.2.69-.27-.16a.71.71,0,0,0-.29-.11h-.09l.73.42.14,0a9.78,9.78,0,0,1,1.71-.27,2.18,2.18,0,0,1,1,.33c.27.15.41.29.45.41s0,.27-.16.46a2.68,2.68,0,0,1-.68.53l.43.25-.14.08-.44-.25a3.83,3.83,0,0,1-.91.36,2.16,2.16,0,0,1-.85.06,2.39,2.39,0,0,1-.76-.3l-.23-.14,1.2-.69.44.26a1,1,0,0,0,.32.13.33.33,0,0,0,.17,0l-.85-.48-.61.11c-.48.09-.8.15-1,.17a1.85,1.85,0,0,1-1.14-.24c-.28-.16-.44-.31-.48-.44a.53.53,0,0,1,.17-.45,2.64,2.64,0,0,1,.67-.52Zm1.05.61a.15.15,0,0,0-.07.12c0,.05.06.1.16.16a.87.87,0,0,0,.34.12h.24Zm-4.44,3.48a.48.48,0,0,0,0,.91,1.7,1.7,0,0,0,1.58,0,.48.48,0,0,0,0-.91,1.76,1.76,0,0,0-1.58,0Zm10.61-6.13c-.44.26-.44.67,0,.92a1.76,1.76,0,0,0,1.58,0c.44-.26.44-.67,0-.92a1.76,1.76,0,0,0-1.58,0Zm-4.2,3.62.76.44a.16.16,0,0,0,.05-.1c0-.06-.06-.11-.16-.17a1.1,1.1,0,0,0-.55-.18Z"/><g id="g5964"><polygon id="polygon5960" class="cls-3" points="163.72 24.3 156.34 20.04 159.95 17.95 167.34 22.21 163.72 24.3"/><polygon id="polygon5962" class="cls-4" points="164.05 24.11 156.67 19.84 159.62 18.14 167 22.4 164.05 24.11"/></g></g><g id="g5976"><polygon id="polygon5968" class="cls-114" points="173.89 20.47 173.89 18.34 157.02 28.08 157.02 30.21 173.89 20.47"/><g id="g5974"><polygon id="polygon5970" class="cls-3" points="167.27 24.4 167.27 22.17 163.65 24.26 163.65 26.49 167.27 24.4"/><polygon id="polygon5972" class="cls-4" points="166.93 24.59 166.93 22.36 163.98 24.07 163.98 26.29 166.93 24.59"/></g></g><path id="path5978" class="cls-115" d="M149.78,23.9V26L157,30.21V28.08Z"/></g><g id="g6006"><g id="g5992"><polygon id="polygon5982" class="cls-116" points="140.21 15.05 132.97 10.87 149.83 1.14 157.07 5.32 140.21 15.05"/><path id="path5984" class="cls-3" d="M133.76,10.87l.2.12,6.25,3.61,16.07-9.28-6.45-3.73Zm.81,0L141.1,7.1c-.69.92-.33,2,.89,2.7a6.76,6.76,0,0,0,5,.41l-6.81,3.93Zm8.73-5,6.53-3.77,5.65,3.26-6.8,3.93c.91-.95.62-2.14-.71-2.91A6.71,6.71,0,0,0,143.3,5.83Zm-1,.78.14-.08.44.25a4.61,4.61,0,0,1,.82-.34,1.62,1.62,0,0,1,1.51.2l.14.08-1.19.69-.28-.15a.74.74,0,0,0-.28-.12h-.09l.73.42.14,0a8.51,8.51,0,0,1,1.71-.26,2.19,2.19,0,0,1,1,.32c.26.16.41.29.45.41s0,.27-.17.46a2.41,2.41,0,0,1-.67.53l.42.25-.14.08-.43-.25a3.45,3.45,0,0,1-.91.36,2,2,0,0,1-.85.07,2.7,2.7,0,0,1-.76-.31l-.24-.14,1.2-.69.45.26a.89.89,0,0,0,.31.13.33.33,0,0,0,.17,0l-.84-.48-.62.11c-.48.09-.8.15-1,.17a2.06,2.06,0,0,1-.55,0,2,2,0,0,1-.59-.22c-.28-.16-.44-.31-.47-.44a.49.49,0,0,1,.16-.45,2.54,2.54,0,0,1,.68-.52Zm1.06.61c-.05,0-.08.08-.07.12s.06.1.15.16a.91.91,0,0,0,.35.12H144Zm-4.45,3.48c-.44.26-.43.66,0,.92a1.78,1.78,0,0,0,1.59,0,.49.49,0,0,0,0-.92,1.78,1.78,0,0,0-1.59,0Zm10.61-6.12a.48.48,0,0,0,0,.91,1.78,1.78,0,0,0,1.59,0,.48.48,0,0,0,0-.91,1.72,1.72,0,0,0-1.59,0Zm-4.2,3.62.76.43a.12.12,0,0,0,0-.1c0-.06-.06-.11-.16-.17a1.07,1.07,0,0,0-.54-.18Z"/><g id="g5990"><polygon id="polygon5986" class="cls-3" points="146.9 11.27 139.52 7.01 143.14 4.92 150.52 9.18 146.9 11.27"/><polygon id="polygon5988" class="cls-4" points="147.24 11.08 139.85 6.82 142.8 5.11 150.19 9.38 147.24 11.08"/></g></g><g id="g6002"><polygon id="polygon5994" class="cls-117" points="157.07 7.45 157.07 5.32 140.21 15.05 140.21 17.18 157.07 7.45"/><g id="g6000"><polygon id="polygon5996" class="cls-3" points="150.45 11.37 150.45 9.14 146.83 11.23 146.83 13.46 150.45 11.37"/><polygon id="polygon5998" class="cls-4" points="150.12 11.56 150.12 9.34 147.17 11.04 147.17 13.27 150.12 11.56"/></g></g><path id="path6004" class="cls-118" d="M133,10.87V13l7.25,4.18V15.06Z"/></g><g id="g6032"><g id="g6018"><polygon id="polygon6008" class="cls-119" points="148.02 19.56 140.78 15.38 157.64 5.65 164.88 9.83 148.02 19.56"/><path id="path6010" class="cls-3" d="M141.57,15.38l.2.12L148,19.11l16.07-9.28L157.64,6.1Zm.8,0,6.54-3.77c-.69.92-.33,2,.88,2.69a6.72,6.72,0,0,0,5,.42L148,18.65Zm8.73-5,6.54-3.77,5.65,3.26-6.8,3.92c.9-.95.61-2.13-.72-2.9A6.69,6.69,0,0,0,151.1,10.34Zm-1,.78.14-.08.43.25a3.83,3.83,0,0,1,.83-.34,2.13,2.13,0,0,1,.77-.1,2.2,2.2,0,0,1,.74.3l.14.08-1.2.69-.27-.16a.71.71,0,0,0-.29-.11h-.08l.72.42.14,0a9.78,9.78,0,0,1,1.71-.27,2.18,2.18,0,0,1,1,.33c.27.15.42.29.46.41s0,.27-.17.46a2.51,2.51,0,0,1-.68.53l.43.25-.14.08-.43-.25a3.9,3.9,0,0,1-.92.36,2.16,2.16,0,0,1-.85.06,2.34,2.34,0,0,1-.75-.3l-.25-.14,1.2-.69.45.26a.75.75,0,0,0,.32.12.3.3,0,0,0,.16,0l-.84-.49-.61.11c-.48.1-.81.15-1,.18a1.73,1.73,0,0,1-.55,0,1.65,1.65,0,0,1-.59-.22c-.28-.16-.44-.31-.47-.44s0-.28.17-.45a2.64,2.64,0,0,1,.67-.51Zm1.06.61c-.05,0-.08.08-.07.12s.06.1.16.16a.82.82,0,0,0,.34.12h.23Zm-4.45,3.48c-.44.26-.43.66,0,.92a1.78,1.78,0,0,0,1.59,0c.44-.26.44-.67,0-.92a1.78,1.78,0,0,0-1.59,0Zm10.62-6.12c-.45.25-.44.66,0,.91a1.76,1.76,0,0,0,1.58,0,.48.48,0,0,0,0-.91,1.7,1.7,0,0,0-1.58,0Zm-4.2,3.62.75.43a.12.12,0,0,0,0-.1c0-.06-.06-.11-.16-.17a1.07,1.07,0,0,0-.54-.18Z"/><g id="g6016"><polygon id="polygon6012" class="cls-3" points="154.71 15.78 147.33 11.52 150.95 9.43 158.33 13.69 154.71 15.78"/><polygon id="polygon6014" class="cls-4" points="155.05 15.59 147.66 11.32 150.61 9.62 158 13.88 155.05 15.59"/></g></g><g id="g6028"><polygon id="polygon6020" class="cls-120" points="164.88 11.96 164.88 9.83 148.02 19.57 148.02 21.69 164.88 11.96"/><g id="g6026"><polygon id="polygon6022" class="cls-3" points="158.26 15.88 158.26 13.65 154.64 15.74 154.64 17.97 158.26 15.88"/><polygon id="polygon6024" class="cls-4" points="157.93 16.07 157.93 13.84 154.98 15.55 154.98 17.77 157.93 16.07"/></g></g><path id="path6030" class="cls-121" d="M140.77,15.38v2.13L148,21.69V19.56Z"/></g><g id="g6058"><g id="g6044"><polygon id="polygon6034" class="cls-122" points="155.83 24.07 148.59 19.89 165.45 10.16 172.69 14.34 155.83 24.07"/><path id="path6036" class="cls-3" d="M149.38,19.89l.2.12,6.25,3.6,16.07-9.28-6.45-3.72Zm.8,0,6.54-3.77c-.69.92-.33,2,.89,2.69a6.69,6.69,0,0,0,5,.42l-6.8,3.93Zm8.73-5,6.54-3.77,5.65,3.26-6.8,3.92c.9-1,.61-2.13-.72-2.9A6.69,6.69,0,0,0,158.91,14.85Zm-1,.78.14-.08.43.25a4,4,0,0,1,.83-.34,2.13,2.13,0,0,1,.77-.1,2.2,2.2,0,0,1,.74.3l.14.08-1.19.69-.28-.16a.73.73,0,0,0-.28-.11h-.09l.72.42.15,0a9.58,9.58,0,0,1,1.7-.27,2.21,2.21,0,0,1,1,.33,1,1,0,0,1,.45.41c0,.12,0,.27-.17.46a2.51,2.51,0,0,1-.68.53l.43.25-.14.08-.43-.25a3.74,3.74,0,0,1-.92.36,2.16,2.16,0,0,1-.85.06,2.34,2.34,0,0,1-.75-.3l-.25-.14,1.2-.69.45.26a.75.75,0,0,0,.32.12.36.36,0,0,0,.17,0l-.85-.49-.61.11c-.48.1-.81.15-1,.18a1.79,1.79,0,0,1-.56,0,1.54,1.54,0,0,1-.58-.22c-.29-.16-.44-.31-.48-.44a.52.52,0,0,1,.17-.45,2.64,2.64,0,0,1,.67-.51Zm1.06.61c-.05,0-.08.08-.07.12s.06.1.16.16a.82.82,0,0,0,.34.12h.23Zm-4.45,3.48a.48.48,0,0,0,0,.91,1.72,1.72,0,0,0,1.59,0,.48.48,0,0,0,0-.91,1.78,1.78,0,0,0-1.59,0Zm10.61-6.13a.49.49,0,0,0,0,.92,1.78,1.78,0,0,0,1.59,0,.49.49,0,0,0,0-.92,1.78,1.78,0,0,0-1.59,0ZM161,17.21l.75.44a.12.12,0,0,0,0-.1c0-.06-.06-.11-.16-.17a1.07,1.07,0,0,0-.54-.18Z"/><g id="g6042"><polygon id="polygon6038" class="cls-3" points="162.52 20.29 155.14 16.03 158.76 13.94 166.14 18.2 162.52 20.29"/><polygon id="polygon6040" class="cls-4" points="162.86 20.1 155.47 15.84 158.43 14.13 165.81 18.39 162.86 20.1"/></g></g><g id="g6054"><polygon id="polygon6046" class="cls-123" points="172.69 16.46 172.69 14.34 155.83 24.08 155.83 26.2 172.69 16.46"/><g id="g6052"><polygon id="polygon6048" class="cls-3" points="166.07 20.39 166.07 18.16 162.45 20.25 162.45 22.48 166.07 20.39"/><polygon id="polygon6050" class="cls-4" points="165.73 20.58 165.73 18.36 162.79 20.06 162.79 22.28 165.73 20.58"/></g></g><path id="path6056" class="cls-124" d="M148.59,19.89V22l7.24,4.18V24.07Z"/></g><g id="g6084"><g id="g6070"><polygon id="polygon6060" class="cls-125" points="144.85 14.43 137.61 10.25 154.48 0.51 161.72 4.69 144.85 14.43"/><path id="path6062" class="cls-3" d="M138.4,10.25l.2.11L144.85,14l16.07-9.28L154.47,1Zm.81,0,6.53-3.77c-.69.92-.33,2,.89,2.69a6.67,6.67,0,0,0,5,.41l-6.81,3.93Zm8.73-5,6.54-3.77,5.65,3.26-6.81,3.93c.91-.95.62-2.14-.71-2.9A6.7,6.7,0,0,0,147.94,5.2ZM147,6l.14-.08.43.25a4.4,4.4,0,0,1,.83-.34,1.89,1.89,0,0,1,.77-.09,1.92,1.92,0,0,1,.73.29l.15.08-1.2.7-.27-.16a.76.76,0,0,0-.29-.12h-.09l.73.42.14,0a8.61,8.61,0,0,1,1.71-.26,2.15,2.15,0,0,1,1,.32c.27.16.42.29.46.41s0,.27-.17.46a2.47,2.47,0,0,1-.68.53l.43.25-.13.08-.44-.25a3.83,3.83,0,0,1-.91.36,2.16,2.16,0,0,1-.85.06,2.39,2.39,0,0,1-.76-.3l-.24-.14,1.2-.69.45.26a.82.82,0,0,0,.31.12.32.32,0,0,0,.17,0l-.84-.49-.62.11c-.48.1-.8.15-1,.17a2.06,2.06,0,0,1-.55,0,1.58,1.58,0,0,1-.59-.22c-.28-.16-.44-.31-.47-.44a.51.51,0,0,1,.16-.45,2.35,2.35,0,0,1,.68-.51Zm1,.61a.15.15,0,0,0-.07.12s.06.1.16.16a.87.87,0,0,0,.34.12h.24Zm-4.45,3.48a.49.49,0,0,0,0,.92,1.78,1.78,0,0,0,1.59,0c.44-.25.43-.66,0-.92a1.78,1.78,0,0,0-1.59,0ZM154.18,4a.48.48,0,0,0,0,.91,1.73,1.73,0,0,0,1.58,0,.48.48,0,0,0,0-.91,1.7,1.7,0,0,0-1.58,0ZM150,7.57l.76.44a.14.14,0,0,0,0-.11c0-.05-.06-.11-.16-.17a1.07,1.07,0,0,0-.55-.17Z"/><g id="g6068"><polygon id="polygon6064" class="cls-3" points="151.55 10.65 144.16 6.38 147.79 4.29 155.17 8.55 151.55 10.65"/><polygon id="polygon6066" class="cls-4" points="151.88 10.45 144.5 6.19 147.45 4.49 154.83 8.75 151.88 10.45"/></g></g><g id="g6080"><polygon id="polygon6072" class="cls-126" points="161.72 6.82 161.72 4.69 144.85 14.43 144.85 16.55 161.72 6.82"/><g id="g6078"><polygon id="polygon6074" class="cls-3" points="155.1 10.74 155.1 8.51 151.48 10.6 151.48 12.83 155.1 10.74"/><polygon id="polygon6076" class="cls-4" points="154.76 10.94 154.76 8.71 151.81 10.41 151.81 12.64 154.76 10.94"/></g></g><path id="path6082" class="cls-127" d="M137.61,10.24v2.13l7.24,4.18V14.43Z"/></g><g id="g6110"><g id="g6096"><polygon id="polygon6086" class="cls-128" points="152.66 18.94 145.42 14.76 162.28 5.02 169.53 9.2 152.66 18.94"/><path id="path6088" class="cls-3" d="M146.22,14.76l.19.11,6.25,3.61L168.73,9.2l-6.45-3.72Zm.8,0L153.55,11c-.69.92-.33,2,.89,2.69a6.71,6.71,0,0,0,5,.41L152.66,18Zm8.73-5,6.54-3.77,5.65,3.26-6.8,3.93c.9-1,.61-2.14-.72-2.9a6.7,6.7,0,0,0-4.67-.52Zm-1,.78.14-.08.43.25a4.4,4.4,0,0,1,.83-.34,1.89,1.89,0,0,1,.77-.09,2,2,0,0,1,.74.29l.14.08-1.2.7-.27-.16a.76.76,0,0,0-.29-.12H156l.72.42a.58.58,0,0,0,.14,0,8.61,8.61,0,0,1,1.71-.26,2.15,2.15,0,0,1,1,.32c.27.16.42.29.46.41s0,.27-.17.46a2.33,2.33,0,0,1-.68.53l.43.25-.13.08L159,13a4.6,4.6,0,0,1-.92.36,2.16,2.16,0,0,1-.85.06,2.48,2.48,0,0,1-.76-.3l-.24-.14,1.2-.69.45.26a.82.82,0,0,0,.31.12.47.47,0,0,0,.17,0l-.84-.49-.62.11c-.48.1-.8.15-1,.17a2.06,2.06,0,0,1-.55,0,1.58,1.58,0,0,1-.59-.22c-.28-.16-.44-.31-.47-.44a.51.51,0,0,1,.16-.45,2.5,2.5,0,0,1,.68-.51Zm1,.61a.15.15,0,0,0-.07.12s.06.1.16.16a.87.87,0,0,0,.34.12h.24Zm-4.44,3.48c-.44.26-.44.67,0,.92a1.76,1.76,0,0,0,1.58,0c.44-.25.44-.66,0-.92a1.76,1.76,0,0,0-1.58,0ZM162,8.46a.48.48,0,0,0,0,.91,1.73,1.73,0,0,0,1.58,0c.45-.25.44-.66,0-.91a1.7,1.7,0,0,0-1.58,0Zm-4.2,3.62.76.43a.16.16,0,0,0,0-.1c0-.05-.06-.11-.16-.17a1.21,1.21,0,0,0-.55-.18Z"/><g id="g6094"><polygon id="polygon6090" class="cls-3" points="159.35 15.15 151.97 10.89 155.59 8.8 162.98 13.06 159.35 15.15"/><polygon id="polygon6092" class="cls-4" points="159.69 14.96 152.31 10.7 155.25 8.99 162.64 13.26 159.69 14.96"/></g></g><g id="g6106"><polygon id="polygon6098" class="cls-129" points="169.53 11.32 169.53 9.2 152.66 18.94 152.66 21.06 169.53 11.32"/><g id="g6104"><polygon id="polygon6100" class="cls-3" points="162.91 15.25 162.91 13.02 159.29 15.11 159.29 17.34 162.91 15.25"/><polygon id="polygon6102" class="cls-4" points="162.57 15.44 162.57 13.22 159.62 14.92 159.62 17.15 162.57 15.44"/></g></g><path id="path6108" class="cls-130" d="M145.42,14.76v2.12l7.24,4.18V18.94Z"/></g><g id="g6136"><g id="g6122"><polygon id="polygon6112" class="cls-131" points="150.87 13.92 143.63 9.74 160.5 0 167.74 4.18 150.87 13.92"/><path id="path6114" class="cls-3" d="M144.42,9.74l.2.11,6.25,3.61,16.07-9.28L160.49.46Zm.8,0L151.76,6c-.69.92-.33,2,.89,2.69a6.64,6.64,0,0,0,5,.41L150.87,13Zm8.74-5L160.49.92l5.65,3.26-6.8,3.93c.91-.95.62-2.14-.71-2.9A6.7,6.7,0,0,0,154,4.69Zm-1,.79.14-.09.43.25a4.4,4.4,0,0,1,.83-.34,1.88,1.88,0,0,1,.77-.09,1.92,1.92,0,0,1,.73.29l.15.08-1.2.7-.27-.16a.76.76,0,0,0-.29-.12h-.09l.73.42.14,0a8.51,8.51,0,0,1,1.71-.26,2.19,2.19,0,0,1,1,.32c.26.16.41.29.45.41a.51.51,0,0,1-.16.46,2.47,2.47,0,0,1-.68.53l.42.25-.14.08-.43-.25a3.45,3.45,0,0,1-.91.36,2,2,0,0,1-.85.07,2.7,2.7,0,0,1-.76-.31l-.24-.14,1.2-.69.44.26a1,1,0,0,0,.32.13.33.33,0,0,0,.17,0l-.85-.49-.61.12c-.48.09-.8.15-1,.17a2.13,2.13,0,0,1-.56,0,2.08,2.08,0,0,1-.58-.22c-.28-.17-.44-.31-.48-.44a.53.53,0,0,1,.17-.45,2.64,2.64,0,0,1,.67-.52Zm1.05.61a.13.13,0,0,0-.07.11s.06.1.16.16a.87.87,0,0,0,.34.12,1,1,0,0,0,.24,0Zm-4.45,3.47c-.44.26-.44.67,0,.92a1.78,1.78,0,0,0,1.59,0c.44-.25.43-.66,0-.92a1.78,1.78,0,0,0-1.59,0ZM160.2,3.44a.48.48,0,0,0,0,.91,1.73,1.73,0,0,0,1.58,0,.48.48,0,0,0,0-.91,1.7,1.7,0,0,0-1.58,0ZM156,7.06l.76.44a.18.18,0,0,0,.05-.11s-.06-.11-.16-.17a1.07,1.07,0,0,0-.55-.17Z"/><g id="g6120"><polygon id="polygon6116" class="cls-3" points="157.56 10.14 150.18 5.87 153.8 3.78 161.19 8.04 157.56 10.14"/><polygon id="polygon6118" class="cls-4" points="157.9 9.94 150.52 5.68 153.46 3.98 160.85 8.24 157.9 9.94"/></g></g><g id="g6132"><polygon id="polygon6124" class="cls-132" points="167.74 6.3 167.74 4.18 150.87 13.92 150.87 16.04 167.74 6.3"/><g id="g6130"><polygon id="polygon6126" class="cls-3" points="161.12 10.23 161.12 8 157.49 10.1 157.49 12.32 161.12 10.23"/><polygon id="polygon6128" class="cls-4" points="160.78 10.43 160.78 8.2 157.83 9.9 157.83 12.13 160.78 10.43"/></g></g><path id="path6134" class="cls-133" d="M143.63,9.74v2.12l7.24,4.19V13.92Z"/></g></g><path class="cls-134" d="M133.24,115.77c-6.22,3.59-16.29,3.59-22.5,0s-6.21-9.4,0-13,16.28-3.58,22.5,0c3,1.73,4.66,4.06,4.66,6.5s-1.68,4.77-4.66,6.49Z"/><path class="cls-134" d="M52.22,217.47c-6.21,3.59-16.28,3.59-22.49,0s-6.22-9.4,0-13,16.28-3.59,22.49,0c3,1.72,4.66,4.06,4.66,6.49s-1.67,4.78-4.66,6.5Z"/><g id="g16328"><path id="path887" class="cls-135" d="M132.69,103.63a6.87,6.87,0,0,0,.71,1,11.84,11.84,0,0,0,1.24,1.16c.46.37.93.7,1.33,1a4,4,0,0,1,.78.84l.23,0c0,.14,0,.28,0,.41v.38a1.61,1.61,0,0,1-.08.48,2.34,2.34,0,0,1-.56.9,1,1,0,0,1-.81.28,2.82,2.82,0,0,1-1.12-.39,4.6,4.6,0,0,1-1.21-.77c-.45-.41-.82-.85-1.14-1.2a4.53,4.53,0,0,0-1-.85c-.42-.25-1.14-.21-1.64-.5a1.83,1.83,0,0,1-.76-.72,6.72,6.72,0,0,1,.11-1.8c0-.26.13.08.22-.11Z"/><path id="path883" class="cls-4" d="M132.69,102.9a6.87,6.87,0,0,0,.71,1,11.84,11.84,0,0,0,1.24,1.16c.46.37.93.71,1.33,1a3.48,3.48,0,0,1,.88,1,1.36,1.36,0,0,1,.06,1.05,2.91,2.91,0,0,1-.59,1,.79.79,0,0,1-.68.31,2.23,2.23,0,0,1-1-.31,6.93,6.93,0,0,1-1.38-1c-.45-.41-.82-.85-1.14-1.2a4.53,4.53,0,0,0-1-.85c-.42-.25-1-.52-1.4-.78a1.87,1.87,0,0,1-.75-.84,1.79,1.79,0,0,1-.13-.89A1.89,1.89,0,0,1,129,103l3.68-.06Z"/><path id="path847" class="cls-136" d="M117.2,52.34a2.94,2.94,0,0,0,.46-.4,4.73,4.73,0,0,0,.52-.75,2.53,2.53,0,0,0,.23-.69c0-.22,0-.43,0-.64l6-.13.66.67,1.31,4.46-4.59,2.28-3.92-1.44-.74-3.36Z"/><path id="path875" class="cls-137" d="M127.85,73.26A26.52,26.52,0,0,1,129.3,77a31.34,31.34,0,0,1,1,5.07c.16,1.63.11,3,.13,4.19s.13,2.41.27,3.93.33,3.37.61,4.93a29.21,29.21,0,0,0,1,3.88c.35,1.06.67,1.93,1,2.8a3.38,3.38,0,0,1-1.63,1.8,6.05,6.05,0,0,1-3.19.27,2.05,2.05,0,0,1-1.45-1.12,29.64,29.64,0,0,1-.36-3.14,16,16,0,0,0-.18-3c-.24-1.08-.8-2.3-1.13-3.51s-.43-2.41-.65-3.56a30.56,30.56,0,0,0-1.05-3.77c-.49-1.51-1.13-3.44-1.63-4.79s-.86-2.11-1.2-2.85l-1-2.2,8.08-2.64Z"/><path id="path908" class="cls-135" d="M108.5,106.43a4.56,4.56,0,0,1,.64.14c.76.21,3.23,1,3.53,1.09s.55.63.8,1a10.06,10.06,0,0,0,1,1c.36.36.71.71,1.06,1l.77.67,0-.24.67.3v.83c-.05.22-.33.42-.73.55a4.13,4.13,0,0,1-1.42.2,7,7,0,0,1-1.57-.25,4.1,4.1,0,0,1-1.38-.66,6.38,6.38,0,0,1-1-1.14,8.15,8.15,0,0,0-1-1.14c-.37-.31-.8-.52-1.11-.77a1.7,1.7,0,0,1-.6-.82,1.61,1.61,0,0,1,.06-.84c.08-.29.18-.61.24-.8s0-.16.2-.16Z"/><path id="path904-3" class="cls-4" d="M112.7,106.82a4.29,4.29,0,0,1,.77,1,12.58,12.58,0,0,0,1,1c.36.36.71.71,1.06,1s.69.59,1,.85.48.49.44.7-.33.43-.73.56a4.14,4.14,0,0,1-1.42.19,6.05,6.05,0,0,1-1.57-.25,4.08,4.08,0,0,1-1.38-.65,6.74,6.74,0,0,1-1-1.14c-.33-.41-.66-.83-1-1.18s-.65-.66-.91-1a2.33,2.33,0,0,1-.54-.87,1.21,1.21,0,0,1,.06-.76,6.49,6.49,0,0,1,.29-.59c.09-.18.15-.37.86-.19A29.41,29.41,0,0,1,112.7,106.82Z"/><path id="path879" class="cls-138" d="M122.87,75.54c-.35,1.71-.71,3.42-1,5s-.61,3.19-.85,4.41-.42,2.1-.67,3-.55,1.89-.89,2.88-.74,2-1.17,2.93-.91,1.75-1.22,2.46-.48,1.31-.79,2.15-.76,1.93-1.1,3-.58,2.09-.82,3.12-.39,2.5-.78,2.67a9.49,9.49,0,0,1-3.8-.71,4,4,0,0,1-2.35-1.71,4.59,4.59,0,0,1,.54-2.36,26.86,26.86,0,0,1,1.17-3c.43-.86.93-1.54,1.36-2.41s.81-1.94,1.18-2.75.75-1.37,1-2a4.94,4.94,0,0,0,.54-2c.06-.78,0-1.75,0-3s.11-2.9.26-4.39.35-2.86.51-4.12.28-2.41.4-3.56l8.53.25Z"/><path id="path836" class="cls-4" d="M124.46,50.17l.29,0c.36,0,.68.09,1,.16a10.4,10.4,0,0,1,1.07.29,6.76,6.76,0,0,1,.83.34,8.34,8.34,0,0,1,.07.91c0,.55.06,1.48.15,2.39s.22,1.78.3,2.77a11.09,11.09,0,0,1-.12,3.27c-.23,1.17-.74,2.43-1,3.75a14.09,14.09,0,0,0-.15,3.91,13.23,13.23,0,0,0,1,3.72,1.76,1.76,0,0,1-.45,2.3,11.53,11.53,0,0,1-4.31,2c-2.47.56-3.77.94-5.91.65a16.8,16.8,0,0,1-2.93-.75c-1.17-.48-.33-3.11-.21-4a14.66,14.66,0,0,0,.19-3.42,28.16,28.16,0,0,0-.79-4.45,27.07,27.07,0,0,0-1-3,5,5,0,0,1,.4-.94,16.76,16.76,0,0,0,1.25-3,9.66,9.66,0,0,0,.19-3.09c.25-.2.5-.39.76-.57s.55-.37.9-.57a12.79,12.79,0,0,0,1.11-.65l.12-.09a7.74,7.74,0,0,0,1,1.74,5.66,5.66,0,0,0,1.92,1.54,4.62,4.62,0,0,0,2.1.56,1.48,1.48,0,0,0,1.25-1,8.16,8.16,0,0,0,.89-2.68,12.13,12.13,0,0,0,.11-2.19Z"/><path id="path821" class="cls-139" d="M120.36,42.35a3,3,0,0,1,.92.18,8.24,8.24,0,0,1,1.48.65,4.9,4.9,0,0,1,1.17,1,3.86,3.86,0,0,1,.73,1.2,8.07,8.07,0,0,1,.41,1.38,3.75,3.75,0,0,1,.12.83,2.45,2.45,0,0,1,0,.45.8.8,0,0,0,0,.34c0,.11.07.23.1.37a1.93,1.93,0,0,1,0,.56c0,.27-.11.64-.18,1s-.12.62-.17.86-.08.44-.12.58a2.76,2.76,0,0,1-.12.32,2.53,2.53,0,0,1-.16.36,1.59,1.59,0,0,1-.35.47,1.3,1.3,0,0,1-.64.33,3.77,3.77,0,0,1-1.07,0,4.57,4.57,0,0,1-1.29-.27,2.77,2.77,0,0,1-1.06-.75,3.84,3.84,0,0,1-.6-1c-.1-.22-.18-.42-.27-.63l0,0a.36.36,0,0,1-.29.12.63.63,0,0,1-.33-.13,1.59,1.59,0,0,1-.37-.42,2.55,2.55,0,0,1-.3-.7.82.82,0,0,1,.07-.56s0,0,0,0a5,5,0,0,1-.48-.66,3.35,3.35,0,0,1-.41-1.35,6.64,6.64,0,0,1,0-1.73,2.33,2.33,0,0,1,.55-1.21,5,5,0,0,1,1.16-1,2.84,2.84,0,0,1,1.26-.47,1.41,1.41,0,0,1,.29,0Z"/><path id="path832" class="cls-4" d="M125.2,44.87a1.27,1.27,0,0,1-.43,1.53,4.79,4.79,0,0,1-2,.4,8.82,8.82,0,0,0-2.17.34,1.14,1.14,0,0,0-.84.89,2.83,2.83,0,0,0,.19,1.08,4.83,4.83,0,0,1,.14.78c0,.18,0,.26,0,.35l-.75-.23a3.15,3.15,0,0,0-.18-.79,1.07,1.07,0,0,0-.47-.49.72.72,0,0,0-.52-.07.32.32,0,0,0-.21.14.37.37,0,0,0-.11.3,1.56,1.56,0,0,0,.14.71,2.47,2.47,0,0,0,.46.68,2.67,2.67,0,0,1-.82-1,9.74,9.74,0,0,1-.88-2.64,6.32,6.32,0,0,1,.34-3.1,3.24,3.24,0,0,1,1.63-1.51,2.56,2.56,0,0,1,1.08-.16,8.77,8.77,0,0,1,1.76-.09,4.43,4.43,0,0,1,2.25.89,4.16,4.16,0,0,1,1.41,2Z"/><path id="path851-2" data-name="path851" class="cls-4" d="M107.73,44a6.27,6.27,0,0,0,1.12.15A5.11,5.11,0,0,0,110,44c.09.7.18,1.4.31,2.07s.28,1.32.36,2a18.9,18.9,0,0,1,.1,2.15,5.22,5.22,0,0,1,.67.74,5.76,5.76,0,0,1,.73,1.25,2.75,2.75,0,0,1,.16,1.08c.34.1.69.19,1,.32a10.19,10.19,0,0,1,1,.43,9.66,9.66,0,0,1-.19,3.09,16.76,16.76,0,0,1-1.25,3,5,5,0,0,0-.4.94c-.16-.23-.31-.44-.55-.76a13.62,13.62,0,0,0-.88-1c-.36-.37-.77-.75-1.07-1.12a4.38,4.38,0,0,1-.71-1.24,13.14,13.14,0,0,1-.58-1.83,18.49,18.49,0,0,1-.31-1.86,5.89,5.89,0,0,1-.42-.66,6.35,6.35,0,0,1-.46-1.09,9,9,0,0,1-.4-1.76,10,10,0,0,1,0-2.12,19.77,19.77,0,0,1,.32-2C107.55,45,107.64,44.45,107.73,44Z"/><path id="path871-2" data-name="path871" class="cls-139" d="M135.67,68a4.66,4.66,0,0,0,.31.46c.14.18.33.4.53.66s.41.55.59.83.34.55.52.85.36.61.5.88a6.69,6.69,0,0,1,.33.65c.08.18.14.34.22.51s.17.34.25.52a3.79,3.79,0,0,1,.21.54c.05.2.1.42.15.59a2.76,2.76,0,0,1,.08.42,2.87,2.87,0,0,1,0,.42.6.6,0,0,1-.07.27s-.12,0-.17,0l-.11-.07-.08-.09,0,.32c0,.12,0,.23.05.34a1,1,0,0,1,0,.29.18.18,0,0,1-.09.14.22.22,0,0,1-.14,0,.42.42,0,0,1-.16-.11,1.48,1.48,0,0,1-.13-.21l-.1-.2a1.89,1.89,0,0,1-.09-.21l-.06-.19-.11-.28c0,.17,0,.34.07.49a1.31,1.31,0,0,1,0,.38c0,.09-.09.15-.16.15a.35.35,0,0,1-.21-.13.91.91,0,0,1-.18-.27,1.21,1.21,0,0,1-.09-.34c0-.11,0-.22,0-.31a1.25,1.25,0,0,0-.07-.26l-.09-.28a1.13,1.13,0,0,1,0-.25c0-.09,0-.17,0-.25a.76.76,0,0,0-.06-.18c0-.06-.07-.1-.1-.15a.83.83,0,0,1-.09-.16l-.06-.16v.65a6.8,6.8,0,0,1,0,.68c0,.18-.05.27-.13.3a.31.31,0,0,1-.26-.11.66.66,0,0,1-.13-.34,3.68,3.68,0,0,1,0-.48l0-.52a3.35,3.35,0,0,0-.06-.47,2,2,0,0,0-.18-.4c-.07-.12-.15-.23-.27-.4l-.4-.59-.36-.58c-.11-.21-.23-.45-.31-.65a2.82,2.82,0,0,1-.16-.5c0-.16-.06-.32-.1-.45a1.2,1.2,0,0,0-.17-.34,3.07,3.07,0,0,0-.25-.26L135.67,68Z"/><path id="path934" class="cls-4" d="M135.55,66.68l.77,1.31a.39.39,0,0,1,0,.45,2.94,2.94,0,0,1-.78.73,3.82,3.82,0,0,1-1.1.64.71.71,0,0,1-.7-.11l0,0-.75-1.28Z"/><path id="path936" class="cls-4" d="M134.81,66.68a.82.82,0,0,1,.66-.08c.13.08.16.28,0,.54a2.23,2.23,0,0,1-.71.85,2.9,2.9,0,0,1-1.16.52.84.84,0,0,1-.72-.14c-.11-.12-.07-.27.11-.47a4.8,4.8,0,0,1,.83-.68,4.93,4.93,0,0,1,.95-.54Z"/><path id="path859" class="cls-4" d="M127.68,51a5.54,5.54,0,0,1,.58.6,4.37,4.37,0,0,1,.55.78,3.58,3.58,0,0,1,.32.9c.08.32.13.67.18.94s.1.46.19.8.22.83.34,1.33.21,1,.27,1.39.08.66.11.86a1.36,1.36,0,0,0,.13.44c.07.12.15.24.45.67s.8,1.15,1.22,1.87.75,1.4,1.07,2,.63,1.22,1.06,1.94c.24.41.52.86.81,1.33h0c.1.06.11.19,0,.36a1.67,1.67,0,0,1-.5.56,2.06,2.06,0,0,1-.8.34.67.67,0,0,1-.47-.08h0v0c-.36-.4-.79-.86-1.21-1.26s-.87-.77-1.25-1.07-.69-.54-1-.78a4.65,4.65,0,0,1-.77-.81,14.25,14.25,0,0,1-.86-1.28c-.2-.32-.36-.6-.51-.88a15.62,15.62,0,0,0,.43-1.62,11.09,11.09,0,0,0,.12-3.27c-.08-1-.22-1.87-.3-2.77s-.12-1.84-.15-2.39a8.34,8.34,0,0,0-.07-.91Z"/><path id="path923" class="cls-4" d="M110.78,43.65l0,1.86a.52.52,0,0,1-.33.45,3.86,3.86,0,0,1-1.29.25,5,5,0,0,1-1.56-.06.85.85,0,0,1-.65-.57.11.11,0,0,1,0-.08l0-1.82Z"/><path id="path919" class="cls-4" d="M110,43.17a1,1,0,0,1,.74.35c.08.17,0,.39-.31.59a2.85,2.85,0,0,1-1.3.41,3.58,3.58,0,0,1-1.54-.22c-.41-.18-.62-.43-.65-.62s.1-.32.42-.41a6.33,6.33,0,0,1,1.3-.17,6.24,6.24,0,0,1,1.34.07Z"/><path id="path867-2" data-name="path867" class="cls-139" d="M107.82,43.93a2.36,2.36,0,0,1,0-.82,1.88,1.88,0,0,0,0-.56,1.53,1.53,0,0,0-.16-.37,1.91,1.91,0,0,1-.14-.46c0-.18-.06-.38-.09-.56a2.47,2.47,0,0,0-.12-.47c0-.14-.12-.25-.16-.35a.47.47,0,0,1,0-.31.59.59,0,0,1,.15-.28.21.21,0,0,1,.21-.07.33.33,0,0,1,.16.15c0,.07.06.14.09.2,0-.14-.06-.28-.08-.45s0-.39,0-.6a3.33,3.33,0,0,1,0-.57.45.45,0,0,1,.16-.33.21.21,0,0,1,.24,0,.58.58,0,0,1,.18.25,1.7,1.7,0,0,1,.06.31l0,.3a1.49,1.49,0,0,0,0,.22.29.29,0,0,0,.08.1c0-.22,0-.45,0-.66a2,2,0,0,1,0-.56,2.32,2.32,0,0,1,.24-.47,3.39,3.39,0,0,1,.28-.48c.09-.1.16-.1.23-.05a.43.43,0,0,1,.16.24.5.5,0,0,1,0,.27c0,.08,0,.15-.07.25s0,.23,0,.34a2.07,2.07,0,0,1,0,.23.17.17,0,0,0,0,.11s0,0,.06,0a.74.74,0,0,0,.13-.27c0-.13.08-.3.12-.42a1.17,1.17,0,0,1,.16-.34A3.83,3.83,0,0,1,110,37a1.68,1.68,0,0,1,.37-.38.31.31,0,0,1,.31-.05.23.23,0,0,1,.1.22.68.68,0,0,1,0,.31c0,.11-.11.24-.17.37s-.11.25-.16.36-.09.21-.12.3a1.23,1.23,0,0,0,0,.25c0,.08,0,.15,0,.23a.66.66,0,0,0,0,.24,2,2,0,0,0,.1.32.89.89,0,0,0,.12.24.7.7,0,0,0,.19.15.45.45,0,0,0,.26,0,.79.79,0,0,0,.35-.14,3.79,3.79,0,0,0,.45-.32,2.33,2.33,0,0,1,.44-.35.84.84,0,0,1,.45-.13.32.32,0,0,1,.26.16.36.36,0,0,1,0,.27.38.38,0,0,1-.11.23,1.09,1.09,0,0,1-.24.21c-.13.1-.33.25-.51.41s-.33.34-.5.51-.34.34-.49.51l-.42.48c-.13.15-.28.27-.41.4a1.19,1.19,0,0,0-.29.41,1.23,1.23,0,0,0,0,.48c0,.2,0,.44,0,.66s.06.48,0,.59a1.54,1.54,0,0,1-1,.3,1.46,1.46,0,0,1-1-.35Z"/></g><g id="g16188"><path id="path16172" class="cls-140" d="M33.71,186.6l3.65.47c0,.49,0,1,0,1.36a2.55,2.55,0,0,1-.4,1.15c-.28.52-.77,1.28-1.18,1.93a9.44,9.44,0,0,0-1.06,2.11s0,.1-.05.16v-.39a21,21,0,0,0-.2-2.48c-.13-.94-.3-2-.48-3.15l-.56-.12c.11-.38.22-.71.33-1Z"/><path id="path6871" class="cls-4" d="M34.05,200.18a3.62,3.62,0,0,0,.4.65c.23.34.46.68.69,1.1a7.45,7.45,0,0,1,.59,1.37,3.48,3.48,0,0,1,.18,1.17.84.84,0,0,1-.33.81,1.45,1.45,0,0,1-1.13-.05,1.73,1.73,0,0,1-.48-.35c0-1.25,0-2.57.06-3.61C34,200.83,34.05,200.53,34.05,200.18Z"/><path id="path6949" class="cls-140" d="M32.65,198.65l1.16.49c0,.14,0,.27,0,.39a2.67,2.67,0,0,0,.63,1.33,4.26,4.26,0,0,1,.23.37,3.14,3.14,0,0,1-.1.53.5.5,0,0,1-.57.38,5,5,0,0,1-1.15-.4Z"/><path id="path6867" class="cls-141" d="M33.94,187.76c.18,1.11.35,2.22.48,3.15a21,21,0,0,1,.2,2.48,16.22,16.22,0,0,1-.13,2.33c-.09.74-.24,1.41-.33,2.22s-.1,1.74-.13,3.33-.09,3.84-.05,5.49a23.24,23.24,0,0,0,.32,3.74,21.42,21.42,0,0,0,.66,2.92,12.22,12.22,0,0,0,.87,2.05c.28.52.53.91.79,1.31a1.85,1.85,0,0,1,.43,1.18.79.79,0,0,1-.88.75,4,4,0,0,1-1.9-.74,6,6,0,0,1-1.37-1.22,3.69,3.69,0,0,1-.67-1.22c-.13-.44-.19-.92-.36-1.43a10.64,10.64,0,0,0-.63-1.47,5,5,0,0,1-.39-1,2.12,2.12,0,0,1,0-.83,1.21,1.21,0,0,1,.37-.69,2.82,2.82,0,0,1,.82-.48c-.15-.91-.3-1.81-.57-2.88s-.66-2.3-1-3.46a24.2,24.2,0,0,1-.65-3.17,8.94,8.94,0,0,1,0-2.42,11.93,11.93,0,0,1,.5-1.76,10.12,10.12,0,0,0,.3-1.35c-.17-.61-.34-1.23-.55-1.92s-.46-1.44-.7-2.19l-.69-2.22a13.06,13.06,0,0,1,2.9-.84,9.17,9.17,0,0,1,2.37.31Z"/><path id="path6908" class="cls-141" d="M35.45,158a4.87,4.87,0,0,1,.56,1,2.65,2.65,0,0,1,.13.92,4,4,0,0,0,.1.8c0,.24.11.45.25.93s.35,1.24.54,2,.37,1.52.49,2.15.2,1.12.28,1.61c.42.4.85.8,1.24,1.23s.74.87,1.05,1.26.55.7.88,1.1l1.09,1.32a12.59,12.59,0,0,0,1.07,1.23,8.77,8.77,0,0,0,1,.78c.31.23.6.47.86.7a7.4,7.4,0,0,1,.69.68,5.26,5.26,0,0,1,.55.76,5.18,5.18,0,0,1,.4.86,4.61,4.61,0,0,1,.22.87c0,.23,0,.34-.06.36s-.11,0-.16-.13a3.56,3.56,0,0,1-.17-.34,3.57,3.57,0,0,0-.26-.52,5.85,5.85,0,0,0-.41-.52s.16.39.2.6a2.09,2.09,0,0,1,0,.61,2.36,2.36,0,0,1-.1.57c-.06.13-.14.16-.19.13s-.08-.1-.09-.21,0-.22,0-.36a2,2,0,0,0,0-.46,2,2,0,0,0-.21-.54,1.64,1.64,0,0,0-.31-.38s.05.28.07.46a2.18,2.18,0,0,1,0,.51,1.36,1.36,0,0,1-.09.43.39.39,0,0,1-.17.25c-.07,0-.13,0-.16-.13a1,1,0,0,1,0-.3c0-.13,0-.28,0-.42a1.83,1.83,0,0,0-.08-.41c-.05-.16-.13-.38-.21-.6,0,.33-.05.66-.08.89a1.09,1.09,0,0,1-.1.42c0,.06-.09.08-.14,0a.31.31,0,0,1-.13-.18,1.06,1.06,0,0,1,0-.26c0-.11,0-.23,0-.34a1.69,1.69,0,0,0,0-.41,2.16,2.16,0,0,0-.25-.66,2.35,2.35,0,0,0-.48-.47,1.54,1.54,0,0,1-.34-.4,1.68,1.68,0,0,1-.17-.42c0-.14-.07-.26-.1-.39-.29-.17-.57-.34-.89-.57s-.65-.54-1.12-.93-1-.88-1.59-1.36-1.05-1-1.44-1.39a10,10,0,0,1-1.05-1.26c-.35-.49-.76-1.11-1-1.57a6.23,6.23,0,0,1-.65-1.41,27.58,27.58,0,0,1-.88-3,20,20,0,0,1-.57-3.83c0-1,.24-1.56.59-1.72a1.37,1.37,0,0,1,1.07.15.57.57,0,0,1,.38.31Z"/><path id="path6912" class="cls-142" d="M26.81,154a11.51,11.51,0,0,0,.49,2.37A11.25,11.25,0,0,0,28.52,159a1.4,1.4,0,0,0,1.44.69,1.83,1.83,0,0,0,1.28-.88,2.11,2.11,0,0,0,0-1.56,8.47,8.47,0,0,0-.76-1.73,4.21,4.21,0,0,0-1.53-1.78,3.32,3.32,0,0,0-2.11.26Z"/><path id="path6900" class="cls-143" d="M28.27,159.09a5.3,5.3,0,0,0-1.77,1.24c-.27.4-.1.75,0,1.13s.1.78.19,1.2a8.53,8.53,0,0,0,.46,1.31l.51,1.2c.16.36.3.66.44,1s.31.78.42,1.12a5.72,5.72,0,0,1,.24.92,2.5,2.5,0,0,1,0,.91,6.73,6.73,0,0,1-.36,1.14,16,16,0,0,0,2.4.84,5.1,5.1,0,0,0,2.81.08,3.9,3.9,0,0,0,1.74-1.78,8.55,8.55,0,0,1-.24-1.6,11.08,11.08,0,0,1,.15-2.67,8,8,0,0,1,.77-1.81,3.83,3.83,0,0,0,.31-1.18c-.23-.51-.45-1-.67-1.48a13.66,13.66,0,0,0-.73-1.32c-.31-.47-.72-1-1-1.5a4.54,4.54,0,0,1-.41-1.23l-.49-.75L31,155.27l-.39.55a2.73,2.73,0,0,1-.25,2A6.46,6.46,0,0,1,28.27,159.09Z"/><path id="path6896" class="cls-142" d="M34,147.1a1.69,1.69,0,0,1,1.3.72,4.69,4.69,0,0,1,1.26,2.6,6.94,6.94,0,0,1-.66,3.74,2.07,2.07,0,0,1-1.92,1.14,2.65,2.65,0,0,1-2-.81,5.91,5.91,0,0,1-1.48-2.65,3.15,3.15,0,0,1,.44-2.34,6.31,6.31,0,0,1,1.51-1.78A2.7,2.7,0,0,1,34,147.1Z"/><path id="path6927" class="cls-140" d="M30.94,155.37l1.35.27.79.24.42.64.08.63a12.27,12.27,0,0,1,.07,1.7,10.75,10.75,0,0,1-.28,1.62c-.7-.47-1.4-.94-1.86-1.33a4,4,0,0,1-.84-1l-.26-.45a2.59,2.59,0,0,0,.21-1.84Z"/><path id="path6875" class="cls-141" d="M31.48,147.48a3.73,3.73,0,0,1,1.89.58,5.2,5.2,0,0,1,2.23,3.66,12.61,12.61,0,0,1,0,2.3,11.81,11.81,0,0,1-.28,2,3.54,3.54,0,0,1-.6,1.32.94.94,0,0,1-.77.41,3,3,0,0,1-1.26-.25,9.53,9.53,0,0,1-1.89-1l-.32-.22h0c-.08.1-.27.1-.46.05a1.47,1.47,0,0,1-.54-.28,1.51,1.51,0,0,1-.39-.45.77.77,0,0,1-.12-.54l0-.1-.11-.12A6.52,6.52,0,0,1,27.63,153a4.71,4.71,0,0,1-.36-2,3.37,3.37,0,0,1,.6-1.87,4.21,4.21,0,0,1,1.71-1.32,4.15,4.15,0,0,1,1.9-.34Z"/><path id="path6892" class="cls-142" d="M33.86,151.16a7.85,7.85,0,0,1-1.26,1.08,8,8,0,0,1-1.32.58,1.29,1.29,0,0,0-.73.51,1.13,1.13,0,0,0-.05.75,5.09,5.09,0,0,1,.13.58c0,.13-.1.18-.22.13a2.78,2.78,0,0,1-.39-.29.57.57,0,0,0-.44-.11.7.7,0,0,0-.43.3.64.64,0,0,0-.1.62,5.76,5.76,0,0,1,.35.88,1.08,1.08,0,0,1-.41.91c-.3.33-.77.69-1.22.05a9.89,9.89,0,0,1-1.08-3.71,9.59,9.59,0,0,1,.23-3.74,5.06,5.06,0,0,1,1.43-2.54,3.89,3.89,0,0,1,2.19-.66,2.82,2.82,0,0,1,1.74-.29,3.67,3.67,0,0,1,2.57,1.36,3.24,3.24,0,0,1-.09,2.68,1.47,1.47,0,0,1-.9.91Z"/><path id="path6863" class="cls-144" d="M35.33,169.24a7,7,0,0,1-1.48,1,5.31,5.31,0,0,1-2.13.44,7,7,0,0,1-2-.26,5.78,5.78,0,0,1-1.29-.58l-1,2.65a18.2,18.2,0,0,0-1.19,4.16,15.4,15.4,0,0,0,.37,5.46,61.61,61.61,0,0,0,2,6.58c.44-.19.89-.38,1.5-.58a7.32,7.32,0,0,1,2.09-.41,7.08,7.08,0,0,1,2,.34,4.55,4.55,0,0,0,1.35.16,4.06,4.06,0,0,0,1.45-.41,3.08,3.08,0,0,0,.85-.71,37.17,37.17,0,0,0,.74-6.26,24.05,24.05,0,0,0-.7-5.34c-.31-1.38-.55-2.21-.76-2.94a16.63,16.63,0,0,0-.6-1.94,2.45,2.45,0,0,0-1.19-1.38Z"/><path id="path6904" class="cls-141" d="M27,160.06a1.06,1.06,0,0,1,.76.15,1.48,1.48,0,0,1,.64.89,3.55,3.55,0,0,1-.08,1.6,6.12,6.12,0,0,1-.61,1.65,7.82,7.82,0,0,1-1,1.32c-.41.47-.92,1.05-1.48,1.66s-1.17,1.25-1.78,1.89a14.09,14.09,0,0,1-.36,1.83,12.43,12.43,0,0,1-.7,1.81c-.29.62-.62,1.29-.86,1.87a13,13,0,0,0-.48,1.5c-.1.39-.15.65-.21.91.15.2.31.4.44.61a5.81,5.81,0,0,1,.34.64,2.42,2.42,0,0,1,.2.57,3,3,0,0,1,0,.68,5.27,5.27,0,0,1,0,.7,1.32,1.32,0,0,1-.18.55.33.33,0,0,1-.3.17c-.08,0-.12-.14-.12-.29a4.28,4.28,0,0,1,.05-.49.9.9,0,0,0,0-.41.32.32,0,0,0-.23-.22.5.5,0,0,0-.34.09.83.83,0,0,0-.26.29,2.41,2.41,0,0,0-.22.46.66.66,0,0,0,0,.34.13.13,0,0,0,.11.11.24.24,0,0,1,.14.05.19.19,0,0,1,0,.17.25.25,0,0,1-.13.14.32.32,0,0,1-.16,0c-.05,0-.1,0-.13,0a.63.63,0,0,0,0,.28.34.34,0,0,0,.08.21s.1,0,.19.07.21.07.25.14,0,.17-.1.24a.35.35,0,0,1-.22.09.37.37,0,0,1-.2,0c.05.12.1.24.15.38a.83.83,0,0,1,.08.39.22.22,0,0,1-.22.19c-.1,0-.2-.12-.28-.28a3.65,3.65,0,0,1-.2-.53,3.7,3.7,0,0,0-.18-.46.89.89,0,0,0-.19-.27.46.46,0,0,1-.14-.17,1.48,1.48,0,0,1,0-.33l0-.37c0-.12,0-.22,0-.34a2.46,2.46,0,0,0-.06-.36,2.29,2.29,0,0,0-.09-.31,1.42,1.42,0,0,1-.08-.34,1.77,1.77,0,0,1,.07-.59,6,6,0,0,1,.3-.91c.13-.31.27-.6.41-.89.08-.56.16-1.13.27-1.78s.26-1.39.45-2.3.43-2,.64-2.78.4-1.34.52-1.68a2.49,2.49,0,0,1,.28-.68c.12-.19.33-.45.73-1s1-1.36,1.47-2.08A15.62,15.62,0,0,0,24.9,163c.25-.54.38-1,.58-1.44a4.39,4.39,0,0,1,.73-1.14,1.16,1.16,0,0,1,.74-.38Z"/><path id="path6938" class="cls-4" d="M32,209.66a1.52,1.52,0,0,0-.58.54,1.14,1.14,0,0,0,0,.79c.09.3.23.61.34,1s.19.81.34,1.26a4.8,4.8,0,0,0,.7,1.32,3.75,3.75,0,0,0,1.13,1c.46.25,1,.41,1.26.19a1.24,1.24,0,0,0,.29-.86c.11.21.2.41.3.59.28.52.53.91.79,1.31a1.85,1.85,0,0,1,.43,1.18.79.79,0,0,1-.88.75,4,4,0,0,1-1.9-.74,6,6,0,0,1-1.37-1.22,3.69,3.69,0,0,1-.67-1.22c-.13-.44-.19-.92-.36-1.43a10.64,10.64,0,0,0-.63-1.47,5,5,0,0,1-.39-1,2.12,2.12,0,0,1,0-.83,1.21,1.21,0,0,1,.37-.69,2.82,2.82,0,0,1,.82-.48Z"/></g></g></g></svg>