<?xml version="1.0" encoding="utf-8"?>
<!-- Generator: Adobe Illustrator 23.0.2, SVG Export Plug-In . SVG Version: 6.00 Build 0)  -->
<svg version="1.0" id="Layer_1" xmlns="http://www.w3.org/2000/svg" xmlns:xlink="http://www.w3.org/1999/xlink" x="0px" y="0px"
	 viewBox="0 0 255.12 255.12" style="enable-background:new 0 0 255.12 255.12;" xml:space="preserve">
<style type="text/css">
	.st0{fill:none;stroke:url(#SVGID_1_);stroke-width:2;stroke-linecap:round;stroke-linejoin:round;stroke-miterlimit:10;}
	.st1{fill:none;stroke:url(#SVGID_2_);stroke-width:2;stroke-linecap:round;stroke-linejoin:round;stroke-miterlimit:10;}
	.st2{fill:none;stroke:url(#SVGID_3_);stroke-width:2;stroke-linecap:round;stroke-linejoin:round;stroke-miterlimit:10;}
	.st3{fill:none;stroke:url(#SVGID_4_);stroke-width:2;stroke-linecap:round;stroke-linejoin:round;stroke-miterlimit:10;}
	.st4{fill:none;stroke:url(#SVGID_5_);stroke-width:2;stroke-linecap:round;stroke-linejoin:round;stroke-miterlimit:10;}
</style>
<g>
	<linearGradient id="SVGID_1_" gradientUnits="userSpaceOnUse" x1="2.9108" y1="192.3596" x2="124.7584" y2="192.3596">
		<stop  offset="0" style="stop-color:#0562A0"/>
		<stop  offset="1" style="stop-color:#3087C8"/>
	</linearGradient>
	<path class="st0" d="M123.76,200.93c0,24.67,0,47.03,0,47.03c0,2.39-1.94,4.33-4.33,4.33H8.24c-2.39,0-4.33-1.94-4.33-4.33V136.77
		c0-2.39,1.94-4.33,4.33-4.33c0,0,22.79,0,47.73,0"/>
	<linearGradient id="SVGID_2_" gradientUnits="userSpaceOnUse" x1="55.1066" y1="101.672" x2="252.2073" y2="101.672">
		<stop  offset="0" style="stop-color:#0562A0"/>
		<stop  offset="1" style="stop-color:#3087C8"/>
	</linearGradient>
	<path class="st1" d="M247.93,200.51H59.39c-1.81,0-3.28-1.47-3.28-3.28V6.12c0-1.81,1.47-3.28,3.28-3.28h188.54
		c1.81,0,3.28,1.47,3.28,3.28v191.11C251.21,199.04,249.74,200.51,247.93,200.51z"/>
	<linearGradient id="SVGID_3_" gradientUnits="userSpaceOnUse" x1="93.0372" y1="101.6294" x2="215.6832" y2="101.6294">
		<stop  offset="0" style="stop-color:#0562A0"/>
		<stop  offset="1" style="stop-color:#3087C8"/>
	</linearGradient>
	<line class="st2" x1="94.04" y1="161.95" x2="214.68" y2="41.31"/>
	<linearGradient id="SVGID_4_" gradientUnits="userSpaceOnUse" x1="73.9977" y1="167.1429" x2="103.6956" y2="167.1429">
		<stop  offset="0" style="stop-color:#0562A0"/>
		<stop  offset="1" style="stop-color:#3087C8"/>
	</linearGradient>
	<polygon class="st3" points="81.76,153.1 92.23,163.05 102.7,173 88.85,177.09 75,181.18 78.38,167.14 	"/>
	<linearGradient id="SVGID_5_" gradientUnits="userSpaceOnUse" x1="203.6956" y1="37.3326" x2="233.6183" y2="37.3326">
		<stop  offset="0" style="stop-color:#0562A0"/>
		<stop  offset="1" style="stop-color:#3087C8"/>
	</linearGradient>
	<polygon class="st4" points="232.62,23.4 228.83,37.33 225.04,51.27 214.87,41.02 204.7,30.77 218.66,27.09 	"/>
</g>
</svg>
