<svg id="Layer_1" data-name="Layer 1" xmlns="http://www.w3.org/2000/svg" xmlns:xlink="http://www.w3.org/1999/xlink" viewBox="0 0 402.55 344.47"><defs><style>.cls-1{fill:url(#Gradiente_sem_nome_69);}.cls-2{fill:#12348e;}.cls-3{fill:#393768;}.cls-4{opacity:0.1;}.cls-5{fill:#a1a7ff;}.cls-6{fill:#aee1ed;}.cls-7{fill:url(#Gradiente_sem_nome_69-2);}.cls-8{fill:#ffb91f;}.cls-9{fill:#e6e9f8;}.cls-10{fill:#8d8dd8;}.cls-11{fill:#edb6a4;}.cls-12{fill:#6a6ae5;}.cls-13{fill:#d8a598;}.cls-14{fill:#fa3e6a;}</style><linearGradient id="Gradiente_sem_nome_69" x1="57.03" y1="144.66" x2="352.29" y2="144.66" gradientUnits="userSpaceOnUse"><stop offset="0.16" stop-color="#e08197"/><stop offset="1" stop-color="#e08197" stop-opacity="0"/></linearGradient><linearGradient id="Gradiente_sem_nome_69-2" x1="0" y1="314.56" x2="396.91" y2="314.56" xlink:href="#Gradiente_sem_nome_69"/></defs><title>Shift towards Open Source</title><path class="cls-1" d="M345.36,27.53C318.6-20.3,219.4-5,169.94,67.35,112.81,151,69.26,102,58.86,138.35S82.92,265,141.5,265c0,0-40.39,41.17,86.82,16.27C336.87,260,357.64,182.66,326.57,129.06,307.28,95.79,373.1,77.14,345.36,27.53ZM262.51,135.92A39.5,39.5,0,1,1,302,96.42,39.5,39.5,0,0,1,262.51,135.92Z"/><path class="cls-2" d="M120.78,218.51a17,17,0,0,1-2.75,4.7l-2.2-3.12-1.18-1.7.18,2.72.3,5c-3.93,3.26-8.92,5-12.65,2.83-2.87-1.63-4-5.07-3.85-8.84l2.92-3.2,2.28-2.5-4.57,1.83a18.5,18.5,0,0,1,4-7.55l5.39-1.22-2.61-1.26c3.91-3.05,9.11-5.47,12.25-4.69a3,3,0,0,1,1,.35c1.74,1,2.57,3.39,2.81,6.22l-2.57.5-2,.39,1.9.77,2.71,1.09A25.52,25.52,0,0,1,120.78,218.51Z"/><path class="cls-3" d="M112.06,207.8A38.1,38.1,0,0,0,105,223a43.93,43.93,0,0,0-.49,17.14c.62,2.85,1.14,5.7,1.83,8.54l2.17,8.51c1.46,5.67,3,11.31,4.56,17-2-5.48-3.8-11.06-5.46-16.68-.85-2.81-1.59-5.65-2.34-8.48s-1.31-5.77-2-8.65a43.53,43.53,0,0,1,.8-17.66A33.63,33.63,0,0,1,112.06,207.8Z"/><path class="cls-4" d="M114.83,221.11l.3,5c-3.93,3.26-8.92,5-12.65,2.83-2.87-1.63-4-5.07-3.85-8.84l2.92-3.2.33.1a18.45,18.45,0,0,0,1.78,4.34,3,3,0,0,0,1,1.15,3,3,0,0,0,1.07.35,12,12,0,0,0,7.51-.7A8.77,8.77,0,0,0,114.83,221.11Z"/><path class="cls-4" d="M118.59,202.41a3,3,0,0,1-.28-.85,3,3,0,0,1,1,.35c1.74,1,2.57,3.39,2.81,6.22l-2.57.5A12.89,12.89,0,0,0,118.59,202.41Z"/><path class="cls-4" d="M120.78,218.51a17,17,0,0,1-2.75,4.7l-2.2-3.12a11.61,11.61,0,0,0,2.09-3.27,23.34,23.34,0,0,0,1.54-7l2.71,1.09A25.52,25.52,0,0,1,120.78,218.51Z"/><path class="cls-2" d="M104.55,264.9c-.58,2.52-3.35,4.07-6.4,4.51l-2.75-2.83-.55-.55.09.43.71,3a10.59,10.59,0,0,1-3.22-.67,15.12,15.12,0,0,1-4-2.49l.79-2.16.25-.65-.6.45-1.65,1.23c-1.16-1.26-1.89-2.6-1.64-3.78a2.46,2.46,0,0,1,.61-1.11c1.24-1.47,4.06-2.61,6.72-3.07l-.5,1.68,2.72-1.9a11.06,11.06,0,0,1,5,1.27l-2.69,1.3,4.68,0a9.39,9.39,0,0,1,1.25,1.28A4.84,4.84,0,0,1,104.55,264.9Z"/><path class="cls-3" d="M91.17,260.57a23.08,23.08,0,0,1,9.63,3,26.38,26.38,0,0,1,7.88,6.74c1,1.43,2.08,2.82,3.08,4.29l2.92,4.42c1.95,3,3.84,5.95,5.75,8.93-1.63-3.13-3.41-6.19-5.25-9.21-.91-1.52-1.88-3-2.85-4.5s-2-2.92-3.07-4.39a26.26,26.26,0,0,0-8.23-6.81A20.37,20.37,0,0,0,91.17,260.57Z"/><path class="cls-4" d="M88.88,264l-1.65,1.23c-1.16-1.26-1.89-2.6-1.64-3.78a2.46,2.46,0,0,1,.61-1.11c.42.72.77,2,1.14,2.43A6.83,6.83,0,0,0,88.88,264Z"/><path class="cls-4" d="M94.94,266.46l.71,3a10.59,10.59,0,0,1-3.22-.67,15.12,15.12,0,0,1-4-2.49l.79-2.16c.48.27,1,.49,1.51.72A36.66,36.66,0,0,0,94.94,266.46Z"/><path class="cls-4" d="M104.55,264.9c-.58,2.52-3.35,4.07-6.4,4.51l-2.75-2.83c1.47.42,3.27.64,4.25-.5a1.8,1.8,0,0,0,.41-.9,3.19,3.19,0,0,0-.28-1.2c-.34-1.07-.35-2.48.6-3.05a2.94,2.94,0,0,1,1.77-.24,7.63,7.63,0,0,1,1.26.17A4.84,4.84,0,0,1,104.55,264.9Z"/><path class="cls-5" d="M102.78,249.31c-5.58,6.74-19.8,4.19-26.28-1.14l-.82-5.53-2,2.64c-2.7-3.29-4.7-7.41-4.56-10.5a4.43,4.43,0,0,1,1-2.79c1.47-1.7,4.57-2.5,8.16-2.73l.51,4.46,3-4.5a38.25,38.25,0,0,1,9.47,1.38,20.94,20.94,0,0,1,5.71,2.77l-6.59,3.34,9.58-.41h.48C104.25,240.32,106,245.49,102.78,249.31Z"/><path class="cls-3" d="M78,237.41a37.08,37.08,0,0,1,17.82,7.1,42.51,42.51,0,0,1,12.6,14.69c1.27,3,2.65,5.91,3.82,8.9s2.32,6,3.35,9c2.11,6.06,4.07,12.17,5.73,18.37-2.26-6-4.48-12-6.82-18L111,268.6c-1.21-3-2.6-5.8-3.89-8.71a42.84,42.84,0,0,0-12-14.46A41.18,41.18,0,0,0,78,237.41Z"/><path class="cls-4" d="M102.78,249.31c-5.58,6.74-19.8,4.19-26.28-1.14l-.82-5.53-2,2.64c-2.7-3.29-4.7-7.41-4.56-10.5a7.2,7.2,0,0,1,1.46.53c4.2,2.29,7.89,5.44,12.06,7.78s9.17,3.84,13.75,2.47a3.72,3.72,0,0,0,2-1.21,4.27,4.27,0,0,0,.68-2c.25-1.57.09-4.63.83-6h.48C104.25,240.32,106,245.49,102.78,249.31Z"/><path class="cls-6" d="M128.26,235.78l.11.27c-2.39,6.12-11.11,13.28-17.5,10.82-3.64-1.41-4.44-5.6-3.37-9.79l5.4-2.74,1.64-.83-1.87.07-3.92.15a17.08,17.08,0,0,1,2.84-4l.64-.63a31.8,31.8,0,0,1,5.31-3.93l3.73,2-1.35-3.25c2.54-1.22,5-1.86,6.62-1.27,2.79,1,3.43,6,2.66,10.45L126.82,232Z"/><path class="cls-3" d="M123.21,229.29a29,29,0,0,0-9.44,11.65,33.22,33.22,0,0,0-3,14.83c.27,2.52.45,5,.79,7.54s.71,5,1.17,7.44c.87,4.94,1.87,9.86,3.1,14.73-.75-5-1.52-9.91-2.21-14.87l-1-7.44c-.31-2.49-.45-5-.68-7.43a33.63,33.63,0,0,1,2.64-14.44A32.16,32.16,0,0,1,123.21,229.29Z"/><path class="cls-4" d="M112.67,233.58l-3.92.15a17.08,17.08,0,0,1,2.84-4l.64-.63a1.71,1.71,0,0,1,.13,1.11A9.13,9.13,0,0,0,112.67,233.58Z"/><path class="cls-4" d="M128.37,236.05c-2.39,6.12-11.11,13.28-17.5,10.82-3.64-1.41-4.44-5.6-3.37-9.79l5.4-2.74a10.08,10.08,0,0,0,2.87,4.29,5.58,5.58,0,0,0,1.71,1,6.23,6.23,0,0,0,2.24.25,11,11,0,0,0,8.44-4l.1-.14Z"/><path class="cls-7" d="M41.6,337.4c136.85,20.81,87.36-11.65,172-4.44C356,345.09,476.39,311.59,331,294c-149.06-18.08-205-4.2-205-4.2-78,0-186.56,32.11-84.4,47.65"/><rect class="cls-2" x="123.67" y="71.87" width="162.43" height="223.34" rx="18.87"/><rect class="cls-5" x="115.31" y="77.14" width="162.43" height="223.34" rx="18.87"/><rect class="cls-2" x="141.51" y="210.71" width="56.88" height="14.1"/><rect class="cls-2" x="141.51" y="183.43" width="36.94" height="10.75"/><rect class="cls-2" x="141.51" y="235.4" width="28.44" height="7.05"/><rect class="cls-2" x="141.51" y="250.62" width="35.05" height="7.05"/><path class="cls-4" d="M235,116,151.7,96.56a5.34,5.34,0,0,0-6.37,4l-9.41,40.23-3.27,14a5.33,5.33,0,0,0,3.95,6.37l83.28,19.48a5.32,5.32,0,0,0,6.36-4l1.89-8.06,10.8-46.16A5.33,5.33,0,0,0,235,116Z"/><rect class="cls-8" x="145.63" y="95.9" width="96.12" height="66.28" rx="5.3"/><path class="cls-9" d="M241.75,148.61v8.28a5.34,5.34,0,0,1-5.3,5.3H150.93a5.33,5.33,0,0,1-5.3-5.3V142.51l29-18.15L196.08,140l18.81-10.89Z"/><circle class="cls-9" cx="228.32" cy="109.1" r="8.92"/><path class="cls-2" d="M257.43,242.46v11a8.19,8.19,0,0,1-8.18,8.17h-15a8.19,8.19,0,0,1-8.18-8.17v-11h-7.16v11a15.36,15.36,0,0,0,15.34,15.34h15a15.36,15.36,0,0,0,15.34-15.34v-11Z"/><polygon class="cls-2" points="241.75 248.83 251.4 232.12 245.33 232.12 245.33 215.09 238.17 215.09 238.17 232.12 232.1 232.12 241.75 248.83"/><path class="cls-2" d="M264.59,249.51a11.48,11.48,0,0,0-4.48-.9,11.3,11.3,0,0,0-11.32,11.32v1.65h.46a8.11,8.11,0,0,0,3.12-.61v-1a7.69,7.69,0,0,1,5.05-7.23,7.35,7.35,0,0,1,2.69-.51,7.85,7.85,0,0,1,4.48,1.4,7.73,7.73,0,0,1,3.29,6.34v17.38H252.37v-8.88a15.14,15.14,0,0,1-3.12.32h-.46V280.9h22.68v-21A11.37,11.37,0,0,0,264.59,249.51Z"/><path class="cls-2" d="M275.7,288.92a15.57,15.57,0,0,1-31.14.29v-.29a15.53,15.53,0,0,1,15.55-15.55A15.31,15.31,0,0,1,267,275,15.49,15.49,0,0,1,275.7,288.92Z"/><circle class="cls-2" cx="260.12" cy="288.94" r="9.07" transform="translate(-81.1 475.25) rotate(-76.64)"/><path class="cls-10" d="M261.7,288.5v-4.6h-3.17v4.6a2.75,2.75,0,0,0-1.19,2.22,2.78,2.78,0,1,0,5.56,0A2.7,2.7,0,0,0,261.7,288.5Z"/><path class="cls-2" d="M275.7,288.92a15.57,15.57,0,0,1-31.14.29,15,15,0,0,1,5.23.79c3.62,1.39,6.16,5.12,10,5.8a12.22,12.22,0,0,0,4.58-.25,8.37,8.37,0,0,0,3.23-1.22c1.9-1.4,2.29-4.05,2.25-6.38a30.91,30.91,0,0,0-.89-7.23c-.32-1.44-1.94-4.16-2-5.74A15.49,15.49,0,0,1,275.7,288.92Z"/><path class="cls-5" d="M353.45,196.44c-12.16,7.28-18,10.93-30.21,6.85-2.18-.8-4.74-3.35-7.42-7a122.1,122.1,0,0,1-10.53-18.65A31.47,31.47,0,0,0,311,173.3l13.12,15.22,4.55,5.37c7.54-3.76,16.09-8.65,21.41-7.44Z"/><path class="cls-11" d="M311,173.3a31.47,31.47,0,0,1-5.73,4.38l-1-2.22c-.49-1-.87-1.91-1.3-2.81l5.33-2.61,1.4,1.6Z"/><path class="cls-11" d="M303,172.64A7.9,7.9,0,0,1,298.8,171a18.08,18.08,0,0,1-1.94-6.24c-.05-1.65,4-3.16,5.37-1.53l3.21,3.16.4-1.38c.87-.74,1.51-.69,1.63,1.12l.84,4Z"/><path class="cls-9" d="M309.68,171.64l-1.4-1.6a15.64,15.64,0,0,0-5.43,2.74l1.55,3Z"/><path class="cls-12" d="M311.52,172.88a1.72,1.72,0,0,1-.5.42,31.47,31.47,0,0,1-5.73,4.38,1.5,1.5,0,0,1-.46.36,3.49,3.49,0,0,1-1.08-2.16,1.48,1.48,0,0,1,.5-.42,20.21,20.21,0,0,1,5.43-3.82c.27-.1.47-.25.74-.35C311,171.78,311.61,172.35,311.52,172.88Z"/><path class="cls-3" d="M304.77,173.11a.25.25,0,0,1-.35.06.26.26,0,0,1-.05-.35.25.25,0,0,1,.4.29Z"/><path class="cls-3" d="M305.18,173.91a.25.25,0,0,1-.35.06.25.25,0,1,1,.35-.06Z"/><path class="cls-11" d="M307,164.63a2.2,2.2,0,0,0-1.75-.86c-.38.06-1.31.83-.95,1.11.12.09,1.36,1.21,1.36,1.21Z"/><path class="cls-4" d="M402.55,324c0-.69-4.84-1.25-10.81-1.25s-10.82.56-10.82,1.25,4.85,1.25,10.82,1.25S402.55,324.71,402.55,324Z"/><path class="cls-11" d="M385.76,304.16l4.47,2a2.89,2.89,0,0,1,2.82.08l2.82,2.33L384.41,321l-2.58-1.71,2.39-7.14L381.66,310Z"/><path class="cls-2" d="M392.79,305.6c1.5.19,2.55,1.19,3.93,2.93l-13.25,15c-2.1,2.18-3.88,1.67-3-.88l3.39-10.42a3.67,3.67,0,0,0,3.3-1.18,16.18,16.18,0,0,0,3.09-3.69c-.58-.51-1.1-1.05-.54-2Z"/><path class="cls-9" d="M387.33,303.41l-.87,1.07-4.7,5.57-1.27,1.54A136,136,0,0,1,362.67,294v0c-1.19-1.46-2.21-2.85-3.16-4.19-.48-.67-.91-1.3-1.31-1.94-.75-1.14-1.42-2.25-2.05-3.35-.24-.44-.48-.87-.71-1.31-1.11-2-2.1-4-3-6-.63-1.39-1.3-2.85-1.93-4.31-.2-.71-.36-1.46-.52-2.21a28.89,28.89,0,0,1-.47-3.68,35.62,35.62,0,0,1-.12-5.1v0c0-.55,0-1.14,0-1.77,0-.95.12-1.94.24-2.93s.2-1.9.31-2.88.36-2.22.56-3.32a83,83,0,0,1,3.59-13.32A23.33,23.33,0,0,1,355.2,235a11.75,11.75,0,0,1,.67-1.54c.36-.87.79-1.66,1.19-2.41a4,4,0,0,1,.23-.39l1.43.55,3.24,1.22,10.79,4.11c0,.16,0,.36.07.52a26.83,26.83,0,0,1,.32,6.52,79.82,79.82,0,0,1-2.88,17.34c-.75,2.93-1.58,5.89-2.41,9-.32,1.15-.64,2.3-1,3.44Z"/><path class="cls-4" d="M350.47,272.83c3.21,7.1,6,13.36,12.2,21.12-1.58-4.86-4.56-9.28-5.85-14.27a43.81,43.81,0,0,1-1-8.84,22.39,22.39,0,0,1,.31-5.9c.81-3.76,3.84-7.31,4.08-11.19.21-3.57-4.72-4.46-7.42-3.79a8.76,8.76,0,0,0-2.23.95C349.13,258.68,348.82,266.76,350.47,272.83Z"/><path class="cls-11" d="M343.68,314.28l2.15,4.41a2.87,2.87,0,0,1,2.13,1.86l.68,3.59-16.76,2.26-.89-3,6.4-4-.59-3.31Z"/><path class="cls-2" d="M348.17,319.88c1,1.11,1.2,2.55,1.15,4.77l-19.76,3.08c-3,.34-4.06-1.19-1.71-2.56l9.26-5.86a3.68,3.68,0,0,0,3.29,1.2,16.53,16.53,0,0,0,4.74-.87c-.13-.76-.18-1.5.86-1.89Z"/><path class="cls-9" d="M365.79,235.72a24.2,24.2,0,0,1-.24,2.45,15.47,15.47,0,0,1-.35,1.9A40.46,40.46,0,0,1,360,252.32a0,0,0,0,1,0,0c-1.1,1.86-2.37,3.67-3.67,5.53-1.54,2.17-3.16,4.31-4.78,6.52-.68.83-1.31,1.7-1.94,2.53h0a1.77,1.77,0,0,1-.32.47c-1.62,2.14-3.28,4.39-4.86,6.6l0,.72.95,40L344,315l-7.15,1.35-2,.35c-3.71-21.14-7.59-36.35-6.92-46.47a19.38,19.38,0,0,1,1.55-7c1.85-3.8,4.11-9.64,6.59-15.89.12-.16.16-.31.28-.51s.12-.28.16-.4c1.42-3.47,3-7,4.58-10.27.36-.71.71-1.38,1-2l0,0c0-.11.12-.19.16-.31l0,0a43.67,43.67,0,0,1,5-7.79l1.14.64h0l.08,0,8.42,4.5,1.06.59,2.14,1.15Z"/><path class="cls-5" d="M373.1,236.39a.68.68,0,0,1-.28.68c-.86.79-3.63,1.1-7.27,1.1-3.39,0-7.5-.23-11.42-.59-.75,0-1.46-.12-2.13-.2l-1.23-.12c-4.38-.43-8.1-.9-9.68-1.18a4,4,0,0,1-.83-.16c.12-.28.2-.59.32-.91,2.17-6.72,3.12-20.82.47-28.77-1.42-4.22-2.56-8.29-1-14.42,2.45-7.74,11.34-12.29,17.58-9.17,18.53,8.74,13.12,33,15.14,51.18C372.86,234.7,373,235.57,373.1,236.39Z"/><path class="cls-13" d="M353.66,181.82a20.25,20.25,0,0,0-2.15,1.83l-.24.24a7.77,7.77,0,0,1-2.94,1.35,14.65,14.65,0,0,1-2.62.56h-.08c-.4.08-.79.16-1.27.24a5.59,5.59,0,0,0,.79-2.31v-.24c0-.16.08-.32,0-.39a14.41,14.41,0,0,0,0-2.63,2.93,2.93,0,0,0-.08-.79c-.08-1-.16-2.15-.31-3.1v-.4h.08l4-.24,3.26-.16a8,8,0,0,0,.16,2,1.51,1.51,0,0,0,.16.64,1.69,1.69,0,0,0,.23.87,14.46,14.46,0,0,0,1,2.38C353.58,181.74,353.66,181.74,353.66,181.82Z"/><path class="cls-4" d="M353.66,181.82a4,4,0,0,1-1.67.72c-.24,0-.48-.24-.64-.4s-.24-.24-.39-.4h-.08a4.71,4.71,0,0,0-1.83-1.19,5.87,5.87,0,0,0-3.1-.16c-.24,0-.56.08-.8.08a2.93,2.93,0,0,0-.08-.79h-.63l.32-3.1.08-.4,4-.24,3.26-.16h.08a8.13,8.13,0,0,0,.08,2,1.51,1.51,0,0,0,.16.64,1.69,1.69,0,0,0,.23.87,14.46,14.46,0,0,0,1,2.38C353.58,181.74,353.66,181.74,353.66,181.82Z"/><path class="cls-11" d="M357,164.74l-.8,3.43-2.15,9.07-.71.44c-.86.48-1.64.94-2.42,1.4a26,26,0,0,1-4.3,1.74L346,181a7.77,7.77,0,0,1-4.13,0,26.37,26.37,0,0,1-1.36-10.17c0-.07,0-.25,0-.33a9.85,9.85,0,0,1,.2-1.37c0-.08,0-.17,0-.33.14-.69.35-1.41.51-2s.42-1.19.68-1.75.58-1.23,1-1.91c0-.08,0-.08.05-.1a3.89,3.89,0,0,1,.56-1l7.32,1.47,1.74.35Z"/><path class="cls-4" d="M340.48,170.74a5.13,5.13,0,0,0,1.53.5,11.54,11.54,0,0,0,1.83.1c1.82-.16,3.65-.31,5.43-.57a7.1,7.1,0,0,0,2-.77,4.24,4.24,0,0,0,2.22-3.15,4.9,4.9,0,0,0-.1-1.73,3,3,0,0,0-1-1.42l-6.56-1.4c-.1,0-.1,0-.25,0-.91.2-1.78.51-2.79.77A18,18,0,0,0,340.48,170.74Z"/><path class="cls-2" d="M339.63,168.68c2.2,1.17,4.65.65,7.24-.6.11,1.77,0,3.39-.65,4.21.26.53.31.62,1,.84.69-1.18,1.3-2.59,2.14-2.46a2.47,2.47,0,0,1,1.58,2.47c0,1.51-1.63,3.15-3.17,4.92,2,.88,3.41,1.39,4.74.83,2-.14,3.23-1.84,4.91-4.13s1.22-3.94,1.41-6.14c.92-11.15-15.3-6.63-16.87-9-1.44-2.19-4.87,2.39-5.46,4.67C336.28,166.64,338.35,167.44,339.63,168.68Z"/><polygon class="cls-12" points="353.29 180.72 355.02 181.87 353.39 183.48 343.54 187.93 344 184.81 350.52 182.32 353.29 180.72"/><path class="cls-3" d="M342.75,172c-.4-.78-1-1.39-1.66-1.39-.95,0-1.57,1-1.37,2.26a2.49,2.49,0,0,0,2.07,2.27c.95,0,1.56-1,1.37-2.27a3.18,3.18,0,0,0-.32-.67c2-.87,6.86-2.78,8-.73l.19-.11C349.78,169.17,344.75,171.14,342.75,172Z"/><path class="cls-5" d="M354.61,247.58a11.06,11.06,0,0,1,10.59-7.51,10.92,10.92,0,0,1,3.48.59,10.52,10.52,0,0,1,4.46,2.93,26.83,26.83,0,0,0-.32-6.52.68.68,0,0,0,.28-.68c-.12-.82-.24-1.69-.31-2.56-.52-.24-1-.44-1.55-.64a18.79,18.79,0,0,0-9.28-.75,12.54,12.54,0,0,0-1.7.36,21.1,21.1,0,0,0-8.26,4.58,20.91,20.91,0,0,0-3.2,4l-2.61-.87s0,0,0-.07c1.58-1,3.12-2.1,4.62-3.17q2.67-1.89,5.1-3.79c.79-.59,1.54-1.18,2.25-1.82.2-.12.4-.31.6-.43,1.62-1.35,3.08-2.65,4.34-3.91,3.17-3.16,5.34-6.09,5.81-8.34,2.26-12.73-8.53-26.36-11.93-28.18a6,6,0,0,0-8.65,4c-.44,5.46,5.65,13.2,10.47,20.12l-4.63,5.29-5.49,6.33L342.16,234l0,0L341,235.41a1.64,1.64,0,0,0-.39-.4c-.12.32-.2.63-.32.91a4,4,0,0,0,.83.16c-1.62,3.24-3.16,6.8-4.58,10.27a5.7,5.7,0,0,0,3.44.32l6.24,2.17a18.89,18.89,0,0,0,3.2,13v0a19.22,19.22,0,0,0,6.4,5.89,18.79,18.79,0,0,0,12.06,2.17c.83-3.08,1.66-6,2.41-9a11,11,0,0,1-8.82.72,10.81,10.81,0,0,1-3.28-1.82,9.91,9.91,0,0,1-1.89-1.94,10.93,10.93,0,0,1-2.18-8.1A8.47,8.47,0,0,1,354.61,247.58Z"/><path class="cls-2" d="M382.65,246.89a19,19,0,0,0-35.12-7.73l-49.39-17-2.57,7.47,2,.7-2.25,6.54,3.73,1.28,2.26-6.53,3.1,1.07-1,2.95,3.74,1.29,1-2.95,3.59,1.23-1.61,4.67,3.74,1.29,1.61-4.67L345,246.63a19,19,0,0,0,36.81,8.52A18,18,0,0,0,382.65,246.89Zm-15.23-8.43a11.08,11.08,0,1,1-14.08,6.88A11.11,11.11,0,0,1,367.42,238.46Z"/><path class="cls-4" d="M381.76,255.15A19,19,0,0,1,345,246.63l-29.47-10.17-1.61,4.67-3.74-1.29,1.61-4.67-3.59-1.23-1,2.95-3.74-1.29,1-2.95-3.1-1.07-2.26,6.53-3.73-1.28,2.25-6.54-2-.7,2.57-7.47,3.33,1.15c.29.85.43,1.78.73,2.59,1.66,4.42,6.91,6,11.49,7.18a224.53,224.53,0,0,1,24.52,7.67,24.39,24.39,0,0,1,6.64,3.3c3.73,2.87,5.61,7.49,8.28,11.38,2.77,4.09,6.77,7.64,11.6,8.77s10.51-.77,12.83-5.19c1.31-2.47,1.47-5.35,2.38-8a9,9,0,0,1,2.71-4.08A18,18,0,0,1,381.76,255.15Z"/><path class="cls-5" d="M367.59,216.73c-.47,2.26-2.62,5.18-5.79,8.35a121.68,121.68,0,0,1-16.47,12.86c-.15.11-.3.18-.44.29a31.6,31.6,0,0,0-5.18-5L352.87,218l4.63-5.29C352.69,205.8,346.6,198,347,192.61a5.89,5.89,0,0,1,7.4-4.48,7.46,7.46,0,0,1,1.23.43C359.1,190.39,369.85,204,367.59,216.73Z"/><path class="cls-11" d="M339.71,233.19a31.57,31.57,0,0,1,5.17,5l-2.05,1.35c-.86.63-1.76,1.14-2.59,1.7l-3.36-4.9,1.38-1.61Z"/><path class="cls-11" d="M340.23,241.23a4.18,4.18,0,0,1-1.24,3.12c-1.34,1.15-8.37-1.37-7-3l1.61-1.62-1.41-.19c-1.06-.61-1.17-1.21.86-1.78l3.82-1.41Z"/><path class="cls-9" d="M338.26,234.76l-1.38,1.61a15.46,15.46,0,0,0,3.51,5l2.73-2Z"/><path class="cls-12" d="M339.22,232.75a1.85,1.85,0,0,1,.49.44,31.57,31.57,0,0,1,5.17,5,1.59,1.59,0,0,1,.42.4,3.5,3.5,0,0,1-2,1.39,1.51,1.51,0,0,1-.49-.44,20.33,20.33,0,0,1-4.57-4.81c-.14-.25-.31-.43-.45-.68C338.21,233.48,338.69,232.74,339.22,232.75Z"/><path class="cls-3" d="M340.44,239.4a.25.25,0,0,1-.23.44.25.25,0,0,1-.11-.33A.26.26,0,0,1,340.44,239.4Z"/><path class="cls-3" d="M341.17,238.88a.24.24,0,0,1,.1.33.24.24,0,1,1-.1-.33Z"/><path class="cls-4" d="M71.57,321.76c0,2.61-13.42,4.73-30,4.73s-30-2.12-30-4.73S25.05,317,41.6,317,71.57,319.16,71.57,321.76Z"/><polygon class="cls-8" points="88.25 102.98 88.25 135.09 31.18 138.02 31.18 100.06 82.27 102.68 88.25 102.98"/><rect class="cls-9" x="37.68" y="106.02" width="21.19" height="6.37"/><rect class="cls-9" x="37.68" y="117.69" width="27.7" height="6.37"/><circle class="cls-9" cx="78.09" cy="125.89" r="7.17"/><path class="cls-3" d="M76.88,130.89a1,1,0,0,1-.8-.37l-3-3.63,1.59-1.34,2.15,2.58,4.31-6.56,1.73,1.14-5.07,7.72a1,1,0,0,1-.8.46Z"/><path class="cls-4" d="M88.25,103v32.11L31.18,138v-8.25c1.23,0,2.49,0,3.76,0q12,.39,24,.13a48.94,48.94,0,0,0,11.63-1.26,17.62,17.62,0,0,0,9.78-6.15c2.85-3.83,3.29-8.75,3-13.37-.1-1.29-1.23-4.85-1.06-6.48Z"/><path class="cls-11" d="M32.05,269.56s-2.23-1.15-3.25-.84,1.79-6.26,1.79-6.26,2.6,3.35,4.44,3.19S32.05,269.56,32.05,269.56Z"/><path class="cls-4" d="M19.47,274.41l7.45-14a4.52,4.52,0,0,1,4.6,2.44,14.21,14.21,0,0,0-2.41,6.85,27.87,27.87,0,0,0-7.82,5.71C20.33,276.16,19.79,275.64,19.47,274.41Z"/><rect class="cls-2" x="14.94" y="266.88" width="15.92" height="0.68" transform="translate(-223.82 162.04) rotate(-62.01)"/><path class="cls-2" d="M76.47,288.25c-2.26,1.56-10.94-1.46-21.08-6-2.75-1.19-5.61-2.56-8.47-4-5.69-2.73-11.4-5.69-16.42-8.35l.3-.73,2.52-4.72.14,0,30.94,7.57-4-11.7v0l-5.69-17-.66-1.93,6.68-1.69.8-.2,10.63-2.66c.07.3.07.63.17.93C78.89,258.7,85.21,282.76,76.47,288.25Z"/><path class="cls-4" d="M66.36,275c-3.15.1-5.78-2.36-8.8-3.25s-6.09-.34-9.08-.84a27.51,27.51,0,0,1-5.82-2c-1.86-.83-3.75-1.63-5.61-2.42a15.59,15.59,0,0,1-3.59-2l30.94,7.57-4-11.7v0l-5.69-17-.66-1.93,6.68-1.69.8-.2a2.57,2.57,0,0,1,.13.53c.13,1.06-.9,2-1.33,2.89a12.27,12.27,0,0,0-1.16,3.76,22.87,22.87,0,0,0,.5,7.54,55.11,55.11,0,0,0,4.85,14.06C65.63,270.43,66.83,272.66,66.36,275Z"/><path class="cls-11" d="M62.7,311.6S62,314,62.53,315s-6.5-.51-6.5-.51,2.76-3.21,2.24-5S62.7,311.6,62.7,311.6Z"/><path class="cls-4" d="M70,323l-15.24-4.5a4.52,4.52,0,0,1,1.47-5,14.18,14.18,0,0,0,7.19,1A28,28,0,0,0,70.55,321C71.51,321.76,71.1,322.4,70,323Z"/><rect class="cls-2" x="54.28" y="320.69" width="15.92" height="0.68" transform="translate(30.98 646.54) rotate(-163.54)"/><path class="cls-2" d="M42.13,240.2c-2.15,7.43,2.52,22.31,9.33,37.5l5.78,33.93,5.85,2.18c1.56-13.06,1.45-26.26,1-38.37-1.44-16.45-1.66-24.32-5-32.64Z"/><path class="cls-14" d="M73.15,243c-10.63,6.13-32.12.48-32.53.35,5.48-12,2.42-39.09,11.05-54.76a57,57,0,0,1,6.39-1.3h0a48.23,48.23,0,0,1,10.44-.5,44.87,44.87,0,0,1,6,.77c2.7,5.52,6.19,12.72,4.33,18.37C74.2,220.05,70.93,235.94,73.15,243Z"/><path class="cls-11" d="M68.52,184.71a5.79,5.79,0,0,1-4.92,5.15,6,6,0,0,1-3.78-1.16c-1.9-1.23-2.9-3.09-1.73-3.53A9.47,9.47,0,0,0,59.68,178l7.41,1.36c0,1.63-.26,3.39.44,4.52A2.28,2.28,0,0,0,68.52,184.71Z"/><path class="cls-4" d="M67.53,183.84l-1,0-3.23-.2a2.22,2.22,0,0,0-1.46.3,1.82,1.82,0,0,0-.57,1.46,8.88,8.88,0,0,1,0,1.63,2.59,2.59,0,0,1-1.42,1.7c-1.9-1.23-2.9-3.09-1.73-3.53A9.47,9.47,0,0,0,59.68,178l7.41,1.36C67.06,181,66.83,182.71,67.53,183.84Z"/><path class="cls-11" d="M71.55,174.47c-.27,4-1.4,7.65-3,8.14-1.89.8-8.31-1.39-11-3.45-2-1.47-2.36-3.73-3.06-6.35l1-1.5,3.59-5.45,10.24-2.33C71.25,165.36,71.88,170.15,71.55,174.47Z"/><path class="cls-4" d="M71.55,174.47a11.1,11.1,0,0,1-4.22.8c-2.69-.07-5.09-1.86-7.75-2a8,8,0,0,1-2.26-.23,4.54,4.54,0,0,1-1.83-1.73l3.59-5.45,10.24-2.33C71.25,165.36,71.88,170.15,71.55,174.47Z"/><path class="cls-2" d="M62.67,171.38c4.9.94,9.33,2.45,10.13,1.25a8.62,8.62,0,0,0-2.72-10.44c-2.24-1.26-7.12-4.46-11.15-2.6-3.07,1.1-5.91,7.53-6,10.62-.27,8.53-4.69,6.95-10,5.95-7.57-1.2-6.53,10-8.6,12.85-12.51,6.37-4.68,8.32-5.06,24.55a2.94,2.94,0,0,0,2.48,3c14.48,1.87,14-32,21.62-29.74,3.6,1.07,6.76-3.18,8.33-7.19A15.87,15.87,0,0,0,62.67,171.38Z"/><path class="cls-11" d="M36.15,143,35.72,145l-.14.66,4.74.59v-2.75c.89-.3,2.13-2.31,2.63-2.88.09-.21.17-.43.24-.64.5-1.49,1.07-2.65.57-4.17,0,0-1.45-1.46-2.12,0a6.67,6.67,0,0,0-.15,1.19c0,.55-.8.65-.8.65l-5.75.27C34.07,137.6,35,142.5,36.15,143Z"/><path class="cls-11" d="M85.52,140.74l.42,1.93.14.65-4.74.6v-2.76c-.89-.29-2.13-2.3-2.63-2.87-.08-.22-.17-.43-.24-.65-.49-1.49-1.07-2.65-.57-4.16,0,0,1.45-1.47,2.12-.06a6.79,6.79,0,0,1,.15,1.19c0,.55.8.65.8.65l5.84-.09C87.68,134.94,86.65,140.22,85.52,140.74Z"/><path class="cls-14" d="M28.85,181.85c2.77,5.21,18,20.55,18.6,18.94l.17-.49.76-2.36,3.67-11.32L38.89,176.8l1.73-31.38-5.47-.52C30.48,157.31,24.76,174.15,28.85,181.85Z"/><path class="cls-14" d="M93.28,183.24c-2.76,5.21-18,20.55-18.6,18.93l-.16-.49-.77-2.35L70.08,188l13.17-9.82-2.43-32.92,5.47-.53C91,157.16,97.38,175.53,93.28,183.24Z"/><path class="cls-4" d="M49.68,197.64a3.45,3.45,0,0,0-1.2,2.46,85,85,0,0,0-1.66,12.23,14.89,14.89,0,0,1-.27,3.06,12,12,0,0,1-1.63,3.45c-.13.2-.23.4-.36.6a183.28,183.28,0,0,1,2.36-18.64C44.79,199.9,36.75,192,32,186.2c.44.4.87.77,1.3,1.17,4.32,3.89,9,7.58,14.49,9.6a3.06,3.06,0,0,0,.83.3A9,9,0,0,0,49.68,197.64Z"/></svg>