<svg xmlns="http://www.w3.org/2000/svg" xmlns:xlink="http://www.w3.org/1999/xlink" viewBox="0 0 165.63 289.07"><defs><style>.cls-1{mask:url(#mask);filter:url(#luminosity-noclip-15);}.cls-10,.cls-12,.cls-14,.cls-16,.cls-18,.cls-2,.cls-20,.cls-22,.cls-24,.cls-26,.cls-28,.cls-4,.cls-6,.cls-8{mix-blend-mode:multiply;}.cls-2{fill:url(#linear-gradient);}.cls-3{mask:url(#mask-2);filter:url(#luminosity-noclip-20);}.cls-4{fill:url(#linear-gradient-2);}.cls-5{mask:url(#mask-3);filter:url(#luminosity-noclip-21);}.cls-6{fill:url(#linear-gradient-3);}.cls-7{mask:url(#mask-4);filter:url(#luminosity-noclip-22);}.cls-8{fill:url(#linear-gradient-4);}.cls-9{mask:url(#mask-5);filter:url(#luminosity-noclip-23);}.cls-10{fill:url(#linear-gradient-5);}.cls-11{mask:url(#mask-6);filter:url(#luminosity-noclip-24);}.cls-12{fill:url(#linear-gradient-6);}.cls-13{mask:url(#mask-7);filter:url(#luminosity-noclip-16);}.cls-14{fill:url(#linear-gradient-7);}.cls-15{mask:url(#mask-8);filter:url(#luminosity-noclip-25);}.cls-16{fill:url(#linear-gradient-8);}.cls-17{mask:url(#mask-9);filter:url(#luminosity-noclip-26);}.cls-18{fill:url(#linear-gradient-9);}.cls-19{mask:url(#mask-10);filter:url(#luminosity-noclip-27);}.cls-20{fill:url(#linear-gradient-10);}.cls-21{mask:url(#mask-11);filter:url(#luminosity-noclip-28);}.cls-22{fill:url(#linear-gradient-11);}.cls-23{mask:url(#mask-12);filter:url(#luminosity-noclip-17);}.cls-24{fill:url(#linear-gradient-12);}.cls-25{mask:url(#mask-13);filter:url(#luminosity-noclip-18);}.cls-26{fill:url(#linear-gradient-13);}.cls-27{mask:url(#mask-14);filter:url(#luminosity-noclip-19);}.cls-28{fill:url(#linear-gradient-14);}.cls-29{fill:none;}.cls-30{isolation:isolate;}.cls-31{opacity:0.2;}.cls-31,.cls-33,.cls-36,.cls-41,.cls-45,.cls-56{mix-blend-mode:screen;}.cls-32{fill:#13426f;}.cls-33{opacity:0.5;}.cls-34{fill:url(#linear-gradient-15);}.cls-35{fill:url(#linear-gradient-16);}.cls-37{fill:#d1d9e6;}.cls-38{mask:url(#mask-15);}.cls-39{fill:url(#linear-gradient-17);}.cls-40{mask:url(#mask-16);}.cls-41{fill:url(#linear-gradient-18);}.cls-42{mask:url(#mask-17);}.cls-43{fill:url(#linear-gradient-19);}.cls-44{mask:url(#mask-18);}.cls-45{fill:url(#linear-gradient-20);}.cls-46{fill:url(#linear-gradient-21);}.cls-47{fill:url(#linear-gradient-22);}.cls-48{fill:url(#linear-gradient-23);}.cls-49{fill:url(#linear-gradient-24);}.cls-50{fill:url(#linear-gradient-25);}.cls-51{fill:url(#linear-gradient-26);}.cls-52{fill:url(#linear-gradient-27);}.cls-53{fill:url(#linear-gradient-28);}.cls-54{fill:url(#linear-gradient-29);}.cls-55{clip-path:url(#clip-path);}.cls-56,.cls-80{opacity:0.3;}.cls-56{fill:url(#linear-gradient-30);}.cls-57{opacity:0.25;}.cls-58{fill:#26397d;}.cls-59{fill:url(#linear-gradient-31);}.cls-60{fill:url(#linear-gradient-32);}.cls-61{mask:url(#mask-19);}.cls-62{fill:url(#linear-gradient-33);}.cls-63{mask:url(#mask-20);}.cls-64{fill:url(#linear-gradient-34);}.cls-65{mask:url(#mask-21);}.cls-66{fill:url(#linear-gradient-35);}.cls-67{mask:url(#mask-22);}.cls-68{fill:url(#linear-gradient-36);}.cls-69{fill:url(#linear-gradient-37);}.cls-70{fill:url(#linear-gradient-38);}.cls-71{fill:url(#linear-gradient-39);}.cls-72{fill:url(#linear-gradient-40);}.cls-73{opacity:0.45;}.cls-74{fill:#6eceea;}.cls-75{fill:url(#linear-gradient-41);}.cls-76{fill:#1185bf;}.cls-77{fill:#057aa5;}.cls-78{fill:#05708e;}.cls-79{mask:url(#mask-23);}.cls-80{fill:url(#linear-gradient-42);}.cls-81{mask:url(#mask-24);}.cls-82{fill:url(#linear-gradient-43);}.cls-83{fill:url(#linear-gradient-44);}.cls-84{mask:url(#mask-25);}.cls-85{fill:url(#linear-gradient-45);}.cls-86{fill:url(#linear-gradient-46);}.cls-87{mask:url(#mask-26);}.cls-88{fill:url(#linear-gradient-47);}.cls-89{fill:url(#linear-gradient-48);}.cls-90{mask:url(#mask-27);}.cls-91{fill:url(#linear-gradient-49);}.cls-92{fill:url(#linear-gradient-50);}.cls-93{mask:url(#mask-28);}.cls-94{fill:url(#linear-gradient-51);}.cls-95{fill:url(#linear-gradient-52);}.cls-96{filter:url(#luminosity-noclip-14);}.cls-97{filter:url(#luminosity-noclip-13);}.cls-98{filter:url(#luminosity-noclip-12);}.cls-99{filter:url(#luminosity-noclip-11);}.cls-100{filter:url(#luminosity-noclip-10);}.cls-101{filter:url(#luminosity-noclip-9);}.cls-102{filter:url(#luminosity-noclip-8);}.cls-103{filter:url(#luminosity-noclip-7);}.cls-104{filter:url(#luminosity-noclip-6);}.cls-105{filter:url(#luminosity-noclip-5);}.cls-106{filter:url(#luminosity-noclip-4);}.cls-107{filter:url(#luminosity-noclip-3);}.cls-108{filter:url(#luminosity-noclip-2);}.cls-109{filter:url(#luminosity-noclip);}</style><filter id="luminosity-noclip" x="6.14" y="-8356.28" width="43.43" height="32766" filterUnits="userSpaceOnUse" color-interpolation-filters="sRGB"><feFlood flood-color="#fff" result="bg"/><feBlend in="SourceGraphic" in2="bg"/></filter><mask id="mask" x="6.14" y="-8356.28" width="43.43" height="32766" maskUnits="userSpaceOnUse"><g class="cls-109"/></mask><linearGradient id="linear-gradient" x1="6.14" y1="164.75" x2="49.56" y2="164.75" gradientUnits="userSpaceOnUse"><stop offset="0.01" stop-color="#fff"/><stop offset="0.26" stop-color="#b1b1b1"/><stop offset="0.53" stop-color="#666"/><stop offset="0.75" stop-color="#2f2f2f"/><stop offset="0.91" stop-color="#0d0d0d"/><stop offset="1"/></linearGradient><filter id="luminosity-noclip-2" x="46.93" y="-8356.28" width="106.32" height="32766" filterUnits="userSpaceOnUse" color-interpolation-filters="sRGB"><feFlood flood-color="#fff" result="bg"/><feBlend in="SourceGraphic" in2="bg"/></filter><mask id="mask-2" x="46.93" y="-8356.28" width="106.32" height="32766" maskUnits="userSpaceOnUse"><g class="cls-108"/></mask><linearGradient id="linear-gradient-2" x1="46.93" y1="159.9" x2="153.25" y2="159.9" gradientUnits="userSpaceOnUse"><stop offset="0"/><stop offset="0.06" stop-color="#171717"/><stop offset="0.26" stop-color="#5c5c5c"/><stop offset="0.45" stop-color="#969696"/><stop offset="0.63" stop-color="#c3c3c3"/><stop offset="0.78" stop-color="#e4e4e4"/><stop offset="0.91" stop-color="#f8f8f8"/><stop offset="0.99" stop-color="#fff"/></linearGradient><filter id="luminosity-noclip-3" x="121.35" y="-8356.28" width="44.28" height="32766" filterUnits="userSpaceOnUse" color-interpolation-filters="sRGB"><feFlood flood-color="#fff" result="bg"/><feBlend in="SourceGraphic" in2="bg"/></filter><mask id="mask-3" x="121.35" y="-8356.28" width="44.28" height="32766" maskUnits="userSpaceOnUse"><g class="cls-107"/></mask><linearGradient id="linear-gradient-3" x1="127.73" y1="80.42" x2="171.27" y2="127.92" gradientUnits="userSpaceOnUse"><stop offset="0.01" stop-color="#fff"/><stop offset="0.35" stop-color="#a6a6a6"/><stop offset="1"/></linearGradient><filter id="luminosity-noclip-4" x="37.8" y="-8356.28" width="60.06" height="32766" filterUnits="userSpaceOnUse" color-interpolation-filters="sRGB"><feFlood flood-color="#fff" result="bg"/><feBlend in="SourceGraphic" in2="bg"/></filter><mask id="mask-4" x="37.8" y="-8356.28" width="60.06" height="32766" maskUnits="userSpaceOnUse"><g class="cls-106"/></mask><linearGradient id="linear-gradient-4" x1="37.8" y1="79.56" x2="97.86" y2="79.56" xlink:href="#linear-gradient-3"/><filter id="luminosity-noclip-5" x="11.01" y="-8356.28" width="145.53" height="32766" filterUnits="userSpaceOnUse" color-interpolation-filters="sRGB"><feFlood flood-color="#fff" result="bg"/><feBlend in="SourceGraphic" in2="bg"/></filter><mask id="mask-5" x="11.01" y="-8356.28" width="145.53" height="32766" maskUnits="userSpaceOnUse"><g class="cls-105"/></mask><linearGradient id="linear-gradient-5" x1="11.01" y1="142.24" x2="156.54" y2="142.24" gradientUnits="userSpaceOnUse"><stop offset="0" stop-color="#666"/><stop offset="0.12" stop-color="#555"/><stop offset="0.35" stop-color="#282828"/><stop offset="0.54"/><stop offset="0.67" stop-color="#282828"/><stop offset="0.81" stop-color="#4a4a4a"/><stop offset="0.92" stop-color="#5e5e5e"/><stop offset="1" stop-color="#666"/></linearGradient><filter id="luminosity-noclip-6" x="137.98" y="-8356.28" width="1.77" height="32766" filterUnits="userSpaceOnUse" color-interpolation-filters="sRGB"><feFlood flood-color="#fff" result="bg"/><feBlend in="SourceGraphic" in2="bg"/></filter><mask id="mask-6" x="137.98" y="-8356.28" width="1.77" height="32766" maskUnits="userSpaceOnUse"><g class="cls-104"/></mask><linearGradient id="linear-gradient-6" x1="138.86" y1="167.35" x2="138.86" y2="230.43" gradientUnits="userSpaceOnUse"><stop offset="0.01" stop-color="#fff"/><stop offset="0.2" stop-color="#bcbcbc"/><stop offset="0.42" stop-color="#7a7a7a"/><stop offset="0.61" stop-color="#454545"/><stop offset="0.78" stop-color="#202020"/><stop offset="0.92" stop-color="#080808"/><stop offset="1"/></linearGradient><filter id="luminosity-noclip-7" x="95.2" y="-8356.28" width="41.08" height="32766" filterUnits="userSpaceOnUse" color-interpolation-filters="sRGB"><feFlood flood-color="#fff" result="bg"/><feBlend in="SourceGraphic" in2="bg"/></filter><mask id="mask-7" x="95.2" y="-8356.28" width="41.08" height="32766" maskUnits="userSpaceOnUse"><g class="cls-103"/></mask><linearGradient id="linear-gradient-7" x1="95.2" y1="213.22" x2="136.28" y2="213.22" gradientUnits="userSpaceOnUse"><stop offset="0"/><stop offset="0.09" stop-color="#0d0d0d"/><stop offset="0.25" stop-color="#2f2f2f"/><stop offset="0.47" stop-color="#666"/><stop offset="0.74" stop-color="#b1b1b1"/><stop offset="0.99" stop-color="#fff"/></linearGradient><filter id="luminosity-noclip-8" x="33.08" y="-8356.28" width="1.77" height="32766" filterUnits="userSpaceOnUse" color-interpolation-filters="sRGB"><feFlood flood-color="#fff" result="bg"/><feBlend in="SourceGraphic" in2="bg"/></filter><mask id="mask-8" x="33.08" y="-8356.28" width="1.77" height="32766" maskUnits="userSpaceOnUse"><g class="cls-102"/></mask><linearGradient id="linear-gradient-8" x1="33.96" y1="145.04" x2="33.96" y2="208.12" xlink:href="#linear-gradient-6"/><filter id="luminosity-noclip-9" x="124.45" y="-8356.28" width="1.77" height="32766" filterUnits="userSpaceOnUse" color-interpolation-filters="sRGB"><feFlood flood-color="#fff" result="bg"/><feBlend in="SourceGraphic" in2="bg"/></filter><mask id="mask-9" x="124.45" y="-8356.28" width="1.77" height="32766" maskUnits="userSpaceOnUse"><g class="cls-101"/></mask><linearGradient id="linear-gradient-9" x1="125.33" y1="104.27" x2="125.33" y2="167.35" xlink:href="#linear-gradient-6"/><filter id="luminosity-noclip-10" x="77.78" y="-8356.28" width="1.77" height="32766" filterUnits="userSpaceOnUse" color-interpolation-filters="sRGB"><feFlood flood-color="#fff" result="bg"/><feBlend in="SourceGraphic" in2="bg"/></filter><mask id="mask-10" x="77.78" y="-8356.28" width="1.77" height="32766" maskUnits="userSpaceOnUse"><g class="cls-100"/></mask><linearGradient id="linear-gradient-10" x1="78.66" y1="195.53" x2="78.66" y2="258.6" xlink:href="#linear-gradient-6"/><filter id="luminosity-noclip-11" x="52.99" y="-8356.28" width="1.77" height="32766" filterUnits="userSpaceOnUse" color-interpolation-filters="sRGB"><feFlood flood-color="#fff" result="bg"/><feBlend in="SourceGraphic" in2="bg"/></filter><mask id="mask-11" x="52.99" y="-8356.28" width="1.77" height="32766" maskUnits="userSpaceOnUse"><g class="cls-99"/></mask><linearGradient id="linear-gradient-11" x1="53.87" y1="67.93" x2="53.87" y2="131.01" xlink:href="#linear-gradient-6"/><filter id="luminosity-noclip-12" x="145.11" y="-8356.28" width="17.27" height="32766" filterUnits="userSpaceOnUse" color-interpolation-filters="sRGB"><feFlood flood-color="#fff" result="bg"/><feBlend in="SourceGraphic" in2="bg"/></filter><mask id="mask-12" x="145.11" y="-8356.28" width="17.27" height="32766" maskUnits="userSpaceOnUse"><g class="cls-98"/></mask><linearGradient id="linear-gradient-12" x1="151.27" y1="144.94" x2="157.33" y2="199.5" xlink:href="#linear-gradient"/><filter id="luminosity-noclip-13" x="28.45" y="-8356.28" width="41.17" height="32766" filterUnits="userSpaceOnUse" color-interpolation-filters="sRGB"><feFlood flood-color="#fff" result="bg"/><feBlend in="SourceGraphic" in2="bg"/></filter><mask id="mask-13" x="28.45" y="-8356.28" width="41.17" height="32766" maskUnits="userSpaceOnUse"><g class="cls-97"/></mask><linearGradient id="linear-gradient-13" x1="28.45" y1="211.88" x2="69.62" y2="211.88" xlink:href="#linear-gradient-7"/><filter id="luminosity-noclip-14" x="0" y="-8356.28" width="16.41" height="32766" filterUnits="userSpaceOnUse" color-interpolation-filters="sRGB"><feFlood flood-color="#fff" result="bg"/><feBlend in="SourceGraphic" in2="bg"/></filter><mask id="mask-14" x="0" y="-8356.28" width="16.41" height="32766" maskUnits="userSpaceOnUse"><g class="cls-96"/></mask><linearGradient id="linear-gradient-14" x1="9.52" y1="89.14" x2="6.28" y2="138.44" gradientUnits="userSpaceOnUse"><stop offset="0"/><stop offset="0.65" stop-color="#a6a6a6"/><stop offset="0.99" stop-color="#fff"/></linearGradient><linearGradient id="linear-gradient-15" x1="49.18" y1="164.74" x2="85.15" y2="246.63" gradientUnits="userSpaceOnUse"><stop offset="0" stop-color="#151548"/><stop offset="0.03" stop-color="#1a1f52"/><stop offset="0.09" stop-color="#263a6c"/><stop offset="0.17" stop-color="#396796"/><stop offset="0.26" stop-color="#54a3d1"/><stop offset="0.3" stop-color="#63c4f0"/><stop offset="0.32" stop-color="#5eb9e6"/><stop offset="0.4" stop-color="#4b8ebc"/><stop offset="0.48" stop-color="#3a6998"/><stop offset="0.57" stop-color="#2d4a7b"/><stop offset="0.66" stop-color="#223364"/><stop offset="0.76" stop-color="#1b2254"/><stop offset="0.86" stop-color="#16184b"/><stop offset="1" stop-color="#151548"/></linearGradient><linearGradient id="linear-gradient-16" x1="3.06" y1="242.32" x2="164.48" y2="242.32" gradientUnits="userSpaceOnUse"><stop offset="0" stop-color="#07619e"/><stop offset="1" stop-color="#3085c7"/></linearGradient><filter id="luminosity-noclip-15" x="6.14" y="133.53" width="43.43" height="62.44" filterUnits="userSpaceOnUse" color-interpolation-filters="sRGB"><feFlood flood-color="#fff" result="bg"/><feBlend in="SourceGraphic" in2="bg"/></filter><mask id="mask-15" x="6.14" y="133.53" width="43.43" height="62.44" maskUnits="userSpaceOnUse"><g class="cls-1"><path class="cls-2" d="M29.38,142.55a89.61,89.61,0,0,1,19.87-8.33l.31-.09-.44-.6-.15,0A90.24,90.24,0,0,0,28.89,142c-7.44,4.33-13.2,9.37-17.1,15A28.35,28.35,0,0,0,12,191.22a44.4,44.4,0,0,0,3.59,4.4l.33.35.06-.48a1.14,1.14,0,0,1,.09-.3l.06-.13L16,195C9,187.3,6,178.68,7.3,170,8.88,159.67,16.72,149.91,29.38,142.55Z"/></g></mask><linearGradient id="linear-gradient-17" x1="6.14" y1="164.75" x2="49.56" y2="164.75" xlink:href="#linear-gradient-16"/><filter id="luminosity-noclip-16" x="95.2" y="207.43" width="41.08" height="11.59" filterUnits="userSpaceOnUse" color-interpolation-filters="sRGB"><feFlood flood-color="#fff" result="bg"/><feBlend in="SourceGraphic" in2="bg"/></filter><mask id="mask-16" x="95.2" y="207.43" width="41.08" height="11.59" maskUnits="userSpaceOnUse"><g class="cls-13"><path class="cls-14" d="M136,207.62l-.1-.19-.2.1c-11.29,5.81-25.21,9.54-40.25,10.78l-.29,0,.24.68.17,0a123.81,123.81,0,0,0,18.25-2.85,97.79,97.79,0,0,0,22.21-8l.21-.1-.11-.21A2.53,2.53,0,0,1,136,207.62Z"/></g></mask><linearGradient id="linear-gradient-18" x1="95.2" y1="213.22" x2="136.28" y2="213.22" gradientUnits="userSpaceOnUse"><stop offset="0" stop-color="#010101"/><stop offset="0.1" stop-color="#070d0e"/><stop offset="0.28" stop-color="#172c30"/><stop offset="0.53" stop-color="#325e67"/><stop offset="0.83" stop-color="#56a2b2"/><stop offset="0.99" stop-color="#6ccce0"/></linearGradient><filter id="luminosity-noclip-17" x="145.11" y="146.13" width="17.27" height="52.91" filterUnits="userSpaceOnUse" color-interpolation-filters="sRGB"><feFlood flood-color="#fff" result="bg"/><feBlend in="SourceGraphic" in2="bg"/></filter><mask id="mask-17" x="145.11" y="146.13" width="17.27" height="52.91" maskUnits="userSpaceOnUse"><g class="cls-23"><path class="cls-24" d="M156.54,157a48.1,48.1,0,0,0-10.74-10.73l-.19-.14-.13.2a.8.8,0,0,1-.15.17l-.22.18.23.17c10.12,7.55,15.7,16.61,16.15,26.2.42,9-3.77,17.73-12.11,25.24l-.18.17.19.17a.65.65,0,0,1,.15.18l.14.24.2-.18a44.42,44.42,0,0,0,6.85-7.65,29.3,29.3,0,0,0,5.65-17.11A29.69,29.69,0,0,0,156.54,157Z"/></g></mask><linearGradient id="linear-gradient-19" x1="151.27" y1="144.94" x2="157.33" y2="199.5" xlink:href="#linear-gradient-16"/><filter id="luminosity-noclip-18" x="28.45" y="205.19" width="41.17" height="13.4" filterUnits="userSpaceOnUse" color-interpolation-filters="sRGB"><feFlood flood-color="#fff" result="bg"/><feBlend in="SourceGraphic" in2="bg"/></filter><mask id="mask-18" x="28.45" y="205.19" width="41.17" height="13.4" maskUnits="userSpaceOnUse"><g class="cls-25"><path class="cls-26" d="M29.74,205.67l-.61-.36-.21-.12-.12.15-.13.15-.22.25.33.19c.15.1.31.19.47.28a95.38,95.38,0,0,0,25.88,9.94A123.83,123.83,0,0,0,69,218.56l.16,0,.07-.15a1.74,1.74,0,0,1,.11-.18l.26-.31-.4-.05C54.23,216.15,40.58,211.93,29.74,205.67Z"/></g></mask><linearGradient id="linear-gradient-20" x1="28.45" y1="211.88" x2="69.62" y2="211.88" xlink:href="#linear-gradient-18"/><linearGradient id="linear-gradient-21" x1="13.5" y1="194.92" x2="17.25" y2="194.92" xlink:href="#linear-gradient-16"/><linearGradient id="linear-gradient-22" x1="67.59" y1="218.15" x2="71.34" y2="218.15" xlink:href="#linear-gradient-16"/><linearGradient id="linear-gradient-23" x1="133.79" y1="208.04" x2="137.54" y2="208.04" xlink:href="#linear-gradient-16"/><linearGradient id="linear-gradient-24" x1="143.29" y1="146.09" x2="147.04" y2="146.09" xlink:href="#linear-gradient-16"/><linearGradient id="linear-gradient-25" x1="75.44" y1="144.55" x2="146.82" y2="135.94" gradientUnits="userSpaceOnUse"><stop offset="0" stop-color="#151548"/><stop offset="0.33" stop-color="#1a2053"/><stop offset="0.6" stop-color="#1f2d60"/><stop offset="0.69" stop-color="#203063"/><stop offset="0.76" stop-color="#22396b"/><stop offset="0.81" stop-color="#274979"/><stop offset="0.86" stop-color="#2d5f8e"/><stop offset="0.91" stop-color="#357ba8"/><stop offset="0.96" stop-color="#3f9ec8"/><stop offset="1" stop-color="#4bc7ed"/><stop offset="1" stop-color="#4bc8ee"/></linearGradient><linearGradient id="linear-gradient-26" x1="142.31" y1="126.65" x2="68.58" y2="155.9" gradientUnits="userSpaceOnUse"><stop offset="0" stop-color="#0980b3"/><stop offset="0.06" stop-color="#0a78ab"/><stop offset="0.49" stop-color="#104376"/><stop offset="0.82" stop-color="#142255"/><stop offset="1" stop-color="#151548"/></linearGradient><linearGradient id="linear-gradient-27" x1="17.92" y1="180.12" x2="134.54" y2="194.68" gradientUnits="userSpaceOnUse"><stop offset="0" stop-color="#4bc8ee"/><stop offset="0.1" stop-color="#45c1e9"/><stop offset="0.25" stop-color="#33acdc"/><stop offset="0.44" stop-color="#168bc7"/><stop offset="0.5" stop-color="#0a7dbe"/><stop offset="0.6" stop-color="#0d74b4"/><stop offset="0.76" stop-color="#145c98"/><stop offset="0.97" stop-color="#20346b"/><stop offset="1" stop-color="#222f65"/></linearGradient><linearGradient id="linear-gradient-28" x1="17.04" y1="184.86" x2="134.57" y2="184.86" gradientUnits="userSpaceOnUse"><stop offset="0" stop-color="#4bc8ee"/><stop offset="0.2" stop-color="#4ac5eb"/><stop offset="0.35" stop-color="#47bbe2"/><stop offset="0.48" stop-color="#42abd3"/><stop offset="0.61" stop-color="#3b93bd"/><stop offset="0.73" stop-color="#3275a1"/><stop offset="0.85" stop-color="#27517f"/><stop offset="0.96" stop-color="#1a2657"/><stop offset="1" stop-color="#151548"/></linearGradient><linearGradient id="linear-gradient-29" x1="20.05" y1="199.64" x2="133.6" y2="169.3" xlink:href="#linear-gradient-16"/><clipPath id="clip-path"><path class="cls-29" d="M144.08,134.83l-.31,2-7.93,50.35c-.13.81-.65,1.26-1.27,1.2a1.29,1.29,0,0,1-.56-.19l-66-38.1a2.93,2.93,0,0,1-1.23-2.79L75,95c.16-1,1-1.5,1.83-1l66,38.1A2.88,2.88,0,0,1,144.08,134.83Z"/></clipPath><linearGradient id="linear-gradient-30" x1="102.87" y1="113.53" x2="110.23" y2="192.42" gradientUnits="userSpaceOnUse"><stop offset="0" stop-color="#151548"/><stop offset="0.12" stop-color="#192254"/><stop offset="0.33" stop-color="#234373"/><stop offset="0.62" stop-color="#3379a5"/><stop offset="0.98" stop-color="#49c3e9"/><stop offset="1" stop-color="#4bc8ee"/></linearGradient><linearGradient id="linear-gradient-31" x1="91.94" y1="101.44" x2="84.88" y2="131.49" xlink:href="#linear-gradient-16"/><linearGradient id="linear-gradient-32" x1="112.5" y1="114.94" x2="106.29" y2="145.53" xlink:href="#linear-gradient-16"/><filter id="luminosity-noclip-19" x="0" y="95.19" width="16.41" height="51.27" filterUnits="userSpaceOnUse" color-interpolation-filters="sRGB"><feFlood flood-color="#fff" result="bg"/><feBlend in="SourceGraphic" in2="bg"/></filter><mask id="mask-19" x="0" y="95.19" width="16.41" height="51.27" maskUnits="userSpaceOnUse"><g class="cls-27"><path class="cls-28" d="M15.85,95.4l-.23-.21-.24.2A48.58,48.58,0,0,0,6,105.3a30.12,30.12,0,0,0,.21,36.36A43.42,43.42,0,0,0,10,146.29l.16.18,1.1-.39-.37-.4C4,138.26.64,129.88,1.22,121.43,1.86,112.3,7,103.56,16.08,96.16l.33-.27-.32-.28Z"/></g></mask><linearGradient id="linear-gradient-33" x1="9.52" y1="89.14" x2="6.28" y2="138.44" xlink:href="#linear-gradient-16"/><filter id="luminosity-noclip-20" x="46.93" y="148.19" width="106.32" height="23.41" filterUnits="userSpaceOnUse" color-interpolation-filters="sRGB"><feFlood flood-color="#fff" result="bg"/><feBlend in="SourceGraphic" in2="bg"/></filter><mask id="mask-20" x="46.93" y="148.19" width="106.32" height="23.41" maskUnits="userSpaceOnUse"><g class="cls-3"><path class="cls-4" d="M152.27,148.44a64.3,64.3,0,0,1-11.43,8.34C116.42,171,79,174.66,47.61,166l-.3-.08-.16.37-.06.16-.16.38.39.11c1.58.43,3.13.83,4.63,1.18a136.32,136.32,0,0,0,31.13,3.51,135.78,135.78,0,0,0,31.09-3.51,99.73,99.73,0,0,0,27.32-10.53A65.37,65.37,0,0,0,153,149.21l.27-.25-.72-.77Z"/></g></mask><linearGradient id="linear-gradient-34" x1="46.93" y1="159.9" x2="153.25" y2="159.9" xlink:href="#linear-gradient-16"/><filter id="luminosity-noclip-21" x="121.35" y="81.12" width="44.28" height="48.91" filterUnits="userSpaceOnUse" color-interpolation-filters="sRGB"><feFlood flood-color="#fff" result="bg"/><feBlend in="SourceGraphic" in2="bg"/></filter><mask id="mask-21" x="121.35" y="81.12" width="44.28" height="48.91" maskUnits="userSpaceOnUse"><g class="cls-5"><path class="cls-6" d="M159.42,105.3c-4.21-6-10.37-11.32-18.31-15.9a95,95,0,0,0-18.92-8.2l-.25-.08-.19.27-.13.17-.27.4.46.15a94,94,0,0,1,18.65,8.07c18,10.4,26.53,24.74,23.37,39.34l-.09.39,1.16.13.07-.32a28.58,28.58,0,0,0,.66-6.24A31.61,31.61,0,0,0,159.42,105.3Z"/></g></mask><linearGradient id="linear-gradient-35" x1="127.73" y1="80.42" x2="171.27" y2="127.92" xlink:href="#linear-gradient-16"/><filter id="luminosity-noclip-22" x="37.8" y="75.36" width="60.06" height="8.39" filterUnits="userSpaceOnUse" color-interpolation-filters="sRGB"><feFlood flood-color="#fff" result="bg"/><feBlend in="SourceGraphic" in2="bg"/></filter><mask id="mask-22" x="37.8" y="75.36" width="60.06" height="8.39" maskUnits="userSpaceOnUse"><g class="cls-7"><path class="cls-8" d="M97.36,77.11l.34,0,0-.34c0-.08,0-.16,0-.25l.07-.38-.38,0a142.47,142.47,0,0,0-14.94-.78,135.91,135.91,0,0,0-31.09,3.51,112.07,112.07,0,0,0-13.12,3.92L37.8,83l.4.4.14.14.23.23.22-.08C56.14,77.29,76.94,75,97.36,77.11Z"/></g></mask><linearGradient id="linear-gradient-36" x1="37.8" y1="79.56" x2="97.86" y2="79.56" xlink:href="#linear-gradient-16"/><linearGradient id="linear-gradient-37" x1="119.36" y1="81.32" x2="123.38" y2="81.32" xlink:href="#linear-gradient-16"/><linearGradient id="linear-gradient-38" x1="35.19" y1="83.99" x2="39.21" y2="83.99" xlink:href="#linear-gradient-16"/><linearGradient id="linear-gradient-39" x1="8.93" y1="146.64" x2="12.94" y2="146.64" xlink:href="#linear-gradient-16"/><linearGradient id="linear-gradient-40" x1="150.75" y1="148.02" x2="154.77" y2="148.02" xlink:href="#linear-gradient-16"/><linearGradient id="linear-gradient-41" x1="98.67" y1="39.12" x2="108.46" y2="113.04" xlink:href="#linear-gradient-16"/><filter id="luminosity-noclip-23" x="11.01" y="0" width="145.53" height="284.47" filterUnits="userSpaceOnUse" color-interpolation-filters="sRGB"><feFlood flood-color="#fff" result="bg"/><feBlend in="SourceGraphic" in2="bg"/></filter><mask id="mask-23" x="11.01" y="0" width="145.53" height="284.47" maskUnits="userSpaceOnUse"><g class="cls-9"><path class="cls-10" d="M156.54,0H11.48V237.4c-2.43,12.36,4.58,25.24,21,34.73,28.51,16.46,74.58,16.46,102.9,0,14.51-8.43,21.54-19.54,21.13-30.59h0Z"/></g></mask><linearGradient id="linear-gradient-42" x1="11.01" y1="142.24" x2="156.54" y2="142.24" xlink:href="#linear-gradient-16"/><filter id="luminosity-noclip-24" x="137.98" y="167.74" width="1.77" height="61.89" filterUnits="userSpaceOnUse" color-interpolation-filters="sRGB"><feFlood flood-color="#fff" result="bg"/><feBlend in="SourceGraphic" in2="bg"/></filter><mask id="mask-24" x="137.98" y="167.74" width="1.77" height="61.89" maskUnits="userSpaceOnUse"><g class="cls-11"><rect class="cls-12" x="137.98" y="167.74" width="1.77" height="61.89"/></g></mask><linearGradient id="linear-gradient-43" x1="138.86" y1="167.35" x2="138.86" y2="230.43" xlink:href="#linear-gradient-16"/><linearGradient id="linear-gradient-44" x1="136.37" y1="167.74" x2="141.36" y2="167.74" xlink:href="#linear-gradient-16"/><filter id="luminosity-noclip-25" x="33.08" y="145.43" width="1.77" height="61.89" filterUnits="userSpaceOnUse" color-interpolation-filters="sRGB"><feFlood flood-color="#fff" result="bg"/><feBlend in="SourceGraphic" in2="bg"/></filter><mask id="mask-25" x="33.08" y="145.43" width="1.77" height="61.89" maskUnits="userSpaceOnUse"><g class="cls-15"><rect class="cls-16" x="33.08" y="145.43" width="1.77" height="61.89"/></g></mask><linearGradient id="linear-gradient-45" x1="33.96" y1="145.04" x2="33.96" y2="208.12" xlink:href="#linear-gradient-16"/><linearGradient id="linear-gradient-46" x1="31.47" y1="145.43" x2="36.46" y2="145.43" xlink:href="#linear-gradient-16"/><filter id="luminosity-noclip-26" x="124.45" y="104.66" width="1.77" height="61.89" filterUnits="userSpaceOnUse" color-interpolation-filters="sRGB"><feFlood flood-color="#fff" result="bg"/><feBlend in="SourceGraphic" in2="bg"/></filter><mask id="mask-26" x="124.45" y="104.66" width="1.77" height="61.89" maskUnits="userSpaceOnUse"><g class="cls-17"><rect class="cls-18" x="124.45" y="104.66" width="1.77" height="61.89"/></g></mask><linearGradient id="linear-gradient-47" x1="125.33" y1="104.27" x2="125.33" y2="167.35" xlink:href="#linear-gradient-16"/><linearGradient id="linear-gradient-48" x1="122.83" y1="104.66" x2="127.82" y2="104.66" xlink:href="#linear-gradient-16"/><filter id="luminosity-noclip-27" x="77.78" y="195.91" width="1.77" height="61.89" filterUnits="userSpaceOnUse" color-interpolation-filters="sRGB"><feFlood flood-color="#fff" result="bg"/><feBlend in="SourceGraphic" in2="bg"/></filter><mask id="mask-27" x="77.78" y="195.91" width="1.77" height="61.89" maskUnits="userSpaceOnUse"><g class="cls-19"><rect class="cls-20" x="77.78" y="195.91" width="1.77" height="61.89"/></g></mask><linearGradient id="linear-gradient-49" x1="78.66" y1="195.53" x2="78.66" y2="258.6" xlink:href="#linear-gradient-16"/><linearGradient id="linear-gradient-50" x1="76.17" y1="195.91" x2="81.16" y2="195.91" xlink:href="#linear-gradient-16"/><filter id="luminosity-noclip-28" x="52.99" y="68.31" width="1.77" height="61.89" filterUnits="userSpaceOnUse" color-interpolation-filters="sRGB"><feFlood flood-color="#fff" result="bg"/><feBlend in="SourceGraphic" in2="bg"/></filter><mask id="mask-28" x="52.99" y="68.31" width="1.77" height="61.89" maskUnits="userSpaceOnUse"><g class="cls-21"><rect class="cls-22" x="52.99" y="68.31" width="1.77" height="61.89"/></g></mask><linearGradient id="linear-gradient-51" x1="53.87" y1="67.93" x2="53.87" y2="131.01" xlink:href="#linear-gradient-16"/><linearGradient id="linear-gradient-52" x1="51.37" y1="68.31" x2="56.36" y2="68.31" xlink:href="#linear-gradient-16"/></defs><title>Shift towards Open Source</title><g class="cls-30"><g id="Layer_1" data-name="Layer 1"><g class="cls-31"><path class="cls-32" d="M62.81,200.5l-.66.39-21.27-12H24.38a2.16,2.16,0,0,1-1.11,1.31,6.25,6.25,0,0,1-5.65,0c-1.57-.91-1.58-2.37,0-3.28a6.25,6.25,0,0,1,5.65,0,2.21,2.21,0,0,1,1.13,1.31H41.06l.08,0Z"/><path class="cls-32" d="M121.12,87.29a6.33,6.33,0,0,1-5.19.22L63.05,118.62v63.54l17.61,10-.67.38-17.6-10V118.24l.16-.1,52.7-31c-1.34-.91-1.28-2.27.2-3.13a6.25,6.25,0,0,1,5.65,0C122.67,84.91,122.68,86.38,121.12,87.29Z"/></g><g class="cls-33"><path class="cls-32" d="M15.92,129.05c.23-.49.46-1,.7-1.42v3.22c-.17.42-.33.86-.47,1.3-.08.23-.16.47-.23.71Z"/><path class="cls-32" d="M18.28,124.84v2.52c-.39.7-.78,1.44-1.13,2.22v-2.92C17.52,126,17.9,125.41,18.28,124.84Z"/><path class="cls-32" d="M20,122.6v2.18c-.38.53-.76,1.09-1.13,1.69v-2.4C19.2,123.54,19.58,123.05,20,122.6Z"/><path class="cls-32" d="M21.62,120.72v2l-.63.74-.51.64V122C20.87,121.52,21.25,121.1,21.62,120.72Z"/><path class="cls-32" d="M23.29,119.09v1.84q-.55.54-1.14,1.17v-1.93Q22.74,119.59,23.29,119.09Z"/><path class="cls-32" d="M25.18,117.51v1.71c-.42.35-.87.74-1.36,1.2v-1.8C24.33,118.18,24.79,117.81,25.18,117.51Z"/><path class="cls-32" d="M16.15,132.15c.15-.32.3-.63.47-.94v3.22c-.17.42-.33.86-.47,1.3-.08.23-.16.47-.23.7v-3.8Z"/><path class="cls-32" d="M17.15,130.24c.37-.65.75-1.25,1.13-1.82v2.52c-.39.7-.78,1.44-1.13,2.22Z"/><path class="cls-32" d="M18.82,127.65c.38-.53.76-1,1.13-1.47v2.18c-.38.52-.76,1.09-1.13,1.69Z"/><path class="cls-32" d="M20.48,125.54c.39-.44.76-.86,1.14-1.25v2L21,127l-.51.64Z"/><path class="cls-32" d="M22.15,123.75q.59-.59,1.14-1.08v1.84c-.37.36-.75.75-1.14,1.16Z"/><path class="cls-32" d="M25.18,121.09v1.71c-.42.34-.87.74-1.36,1.2v-1.8C24.33,121.76,24.79,121.39,25.18,121.09Z"/><path class="cls-32" d="M16.15,135.73c.15-.32.3-.63.47-.94V138c-.17.42-.33.85-.47,1.3-.08.23-.15.47-.23.7v-3.8Z"/><path class="cls-32" d="M18.28,132v2.52c-.39.7-.78,1.44-1.13,2.22v-2.92C17.52,133.17,17.9,132.56,18.28,132Z"/><path class="cls-32" d="M20,129.76v2.18c-.38.52-.76,1.08-1.13,1.69v-2.4C19.2,130.7,19.58,130.21,20,129.76Z"/><path class="cls-32" d="M21.62,127.87v2l-.63.74-.51.64v-2.11C20.87,128.68,21.25,128.26,21.62,127.87Z"/><path class="cls-32" d="M23.29,126.25v1.84q-.55.54-1.14,1.17v-1.93Q22.74,126.75,23.29,126.25Z"/><path class="cls-32" d="M25.18,124.67v1.71c-.42.34-.87.74-1.36,1.2v-1.8C24.33,125.34,24.79,125,25.18,124.67Z"/><path class="cls-32" d="M16.15,139.31c.15-.32.31-.64.47-.94v3.21c-.17.43-.33.87-.47,1.31-.08.23-.16.47-.23.7v-3.8Z"/><path class="cls-32" d="M17.15,137.39c.37-.64.75-1.24,1.13-1.81v2.52c-.39.7-.78,1.44-1.13,2.22Z"/><path class="cls-32" d="M20,133.34v2.18c-.38.52-.76,1.09-1.13,1.69v-2.4C19.2,134.28,19.58,133.79,20,133.34Z"/><path class="cls-32" d="M20.48,132.7c.39-.44.77-.86,1.14-1.25v2l-.63.74c-.17.2-.34.42-.51.64Z"/><path class="cls-32" d="M22.15,130.91q.59-.58,1.14-1.08v1.84c-.37.36-.75.75-1.14,1.16Z"/><path class="cls-32" d="M25.18,128.25V130c-.42.34-.87.74-1.36,1.2v-1.8C24.33,128.92,24.79,128.55,25.18,128.25Z"/><path class="cls-32" d="M16.15,142.89c.15-.32.3-.63.47-.94v3.21c-.17.43-.33.86-.47,1.31-.08.23-.16.47-.23.7v-3.8Z"/><path class="cls-32" d="M17.15,141c.37-.65.75-1.26,1.13-1.83v2.53c-.39.7-.78,1.43-1.13,2.22Z"/><path class="cls-32" d="M18.82,138.39c.38-.53.76-1,1.13-1.48v2.19c-.38.52-.76,1.08-1.13,1.68Z"/><path class="cls-32" d="M20.48,136.28c.39-.44.76-.86,1.14-1.25v2c-.21.24-.42.48-.63.74s-.34.42-.51.64Z"/><path class="cls-32" d="M23.29,133.41v1.83q-.55.54-1.14,1.17v-1.92C22.54,134.09,22.92,133.74,23.29,133.41Z"/><path class="cls-32" d="M25.18,131.83v1.71c-.42.34-.87.74-1.36,1.2v-1.8C24.33,132.5,24.79,132.13,25.18,131.83Z"/><path class="cls-32" d="M16.15,146.47c.15-.32.3-.63.47-.94v3.21c-.17.43-.33.86-.47,1.31-.08.23-.15.46-.23.7v-3.81Z"/><path class="cls-32" d="M18.28,142.73v2.53c-.39.69-.78,1.44-1.13,2.22v-2.92C17.52,143.91,17.9,143.3,18.28,142.73Z"/><path class="cls-32" d="M20,140.5v2.18c-.38.52-.76,1.08-1.13,1.68V142C19.2,141.44,19.58,141,20,140.5Z"/><path class="cls-32" d="M21.62,138.61v2l-.63.74c-.17.2-.34.41-.51.64v-2.11C20.87,139.42,21.25,139,21.62,138.61Z"/><path class="cls-32" d="M23.29,137v1.83q-.55.54-1.14,1.17v-1.92Q22.74,137.49,23.29,137Z"/><path class="cls-32" d="M25.18,135.41v1.71c-.42.34-.87.74-1.36,1.2v-1.8C24.33,136.08,24.79,135.71,25.18,135.41Z"/><path class="cls-32" d="M16.15,150.05c.15-.32.31-.64.47-.94v3.21c-.17.43-.33.86-.47,1.31-.08.23-.16.46-.23.7v-3.81C16,150.36,16.07,150.2,16.15,150.05Z"/><path class="cls-32" d="M18.28,146.31v2.53c-.39.7-.78,1.43-1.13,2.22v-2.93C17.52,147.49,17.9,146.88,18.28,146.31Z"/><path class="cls-32" d="M20,144.07v2.19c-.38.52-.76,1.08-1.13,1.68v-2.39C19.2,145,19.58,144.53,20,144.07Z"/><path class="cls-32" d="M20.48,143.44c.39-.44.77-.86,1.14-1.25v2c-.21.24-.42.48-.63.74l-.51.63Z"/><path class="cls-32" d="M22.15,141.65c.39-.4.77-.75,1.14-1.08v1.84c-.37.35-.75.74-1.14,1.16Z"/><path class="cls-32" d="M25.18,139v1.71c-.42.34-.87.74-1.36,1.2v-1.8C24.33,139.66,24.79,139.29,25.18,139Z"/><path class="cls-32" d="M16.15,153.63c.15-.32.3-.63.47-.94v3.21c-.17.43-.33.86-.47,1.31-.08.23-.16.47-.23.7V154.1Z"/><path class="cls-32" d="M17.15,151.71c.37-.64.75-1.25,1.13-1.82v2.53c-.39.69-.78,1.43-1.13,2.21Z"/><path class="cls-32" d="M18.82,149.13c.38-.53.76-1,1.13-1.48v2.19c-.38.52-.76,1.08-1.13,1.68Z"/><path class="cls-32" d="M20.48,147c.39-.44.76-.86,1.14-1.25v2c-.21.24-.42.48-.63.74s-.34.41-.51.63Z"/><path class="cls-32" d="M22.15,145.23q.59-.6,1.14-1.08V146q-.55.54-1.14,1.17Z"/><path class="cls-32" d="M25.18,142.57v1.71c-.42.34-.87.74-1.36,1.19v-1.79C24.33,143.23,24.79,142.87,25.18,142.57Z"/><path class="cls-32" d="M16.15,157.21c.15-.32.3-.64.47-.94v3.21c-.26.65-.49,1.32-.7,2v-3.81Z"/><path class="cls-32" d="M17.15,155.29c.37-.64.75-1.25,1.13-1.82V156c-.39.69-.78,1.43-1.13,2.22Z"/><path class="cls-32" d="M20,151.23v2.19c-.38.52-.76,1.08-1.13,1.68v-2.39C19.2,152.18,19.58,151.69,20,151.23Z"/><path class="cls-32" d="M21.62,149.35v2c-.21.24-.42.48-.63.74l-.51.63v-2.1C20.87,150.15,21.25,149.74,21.62,149.35Z"/><path class="cls-32" d="M23.29,147.73v1.83q-.55.54-1.14,1.17V148.8C22.54,148.41,22.92,148.05,23.29,147.73Z"/><path class="cls-32" d="M25.18,146.15v1.71c-.42.34-.87.74-1.36,1.19v-1.79C24.33,146.82,24.79,146.45,25.18,146.15Z"/></g><path class="cls-34" d="M140.23,206.59C108.05,188,56,188,24.06,206.59s-31.8,48.71.38,67.29,84.19,18.58,116.17,0,31.8-48.71-.38-67.29"/><path class="cls-35" d="M140.65,209.27C109,191,57.93,191,26.52,209.27s-31.25,47.85.37,66.11,82.72,18.26,114.14,0,31.24-47.86-.38-66.11"/><g class="cls-36"><path class="cls-37" d="M69.62,250.52c-8-4.61-8-12.1-.09-16.71s20.86-4.61,28.84,0,8,12.1.09,16.71-20.86,4.6-28.84,0m30.62-17.8c-9-5.2-23.64-5.2-32.6,0s-8.91,13.68.11,18.88,23.64,5.21,32.6,0,8.91-13.67-.11-18.88"/><path class="cls-37" d="M108.14,228.1c-.81-.47-1.66-.92-2.55-1.34l-2.41,1.71a40.51,40.51,0,0,0-9.48-3A51.25,51.25,0,0,0,83,224.51l-.12-2.2a56,56,0,0,0-12.57,1.61,41.37,41.37,0,0,0-10.64,4.19,23.76,23.76,0,0,0-7.21,6.18,13.22,13.22,0,0,0-2.74,7.29l3.81.06a11,11,0,0,0,1.63,6.2,18.26,18.26,0,0,0,5.27,5.48l-3,1.4c.73.51,1.51,1,2.32,1.48a39.5,39.5,0,0,0,7.58,3.32,53.08,53.08,0,0,0,12.25,2.34,59.36,59.36,0,0,0,12.86-.42,48.25,48.25,0,0,0,11.67-3.15l-2.25-1.79a34.09,34.09,0,0,0,3.73-1.85l-.75-.43a35.52,35.52,0,0,1-9.53,3.7,49.83,49.83,0,0,1-22.53,0,35.94,35.94,0,0,1-9.57-3.7,20.45,20.45,0,0,1-6.42-5.53,10.64,10.64,0,0,1-.07-13.05,19.91,19.91,0,0,1,6.35-5.53,35.52,35.52,0,0,1,9.53-3.7,49.46,49.46,0,0,1,22.53,0,35.94,35.94,0,0,1,9.57,3.7,20.32,20.32,0,0,1,6.42,5.53,10.64,10.64,0,0,1,.07,13.05,20,20,0,0,1-6.35,5.53l.75.43a26.55,26.55,0,0,0,3.16-2.16l3.1,1.29a17.72,17.72,0,0,0,5.4-6.77,11.83,11.83,0,0,0,.7-7.45,15.21,15.21,0,0,0-4.1-7.08,26.05,26.05,0,0,0-5.75-4.38"/><path class="cls-37" d="M116.77,224l-3.41,1.89c-.2-.12-.4-.25-.61-.36-.49-.29-1-.56-1.5-.84l-1.11-.56-.56-.27-.58-.26a47.13,47.13,0,0,0-4.88-1.91l2-2.08a69.41,69.41,0,0,0-16.59-3.22l-.51,2.38a69.93,69.93,0,0,0-15.39.55l-2-4.4a67.56,67.56,0,0,0-17,4.77l4.75,3.63A34,34,0,0,0,48.07,231l-6.92-2.15a20.68,20.68,0,0,0-5.46,10.5l7.81.45a14.41,14.41,0,0,0,.26,5.77l.22.72.1.35.14.36.27.7c.1.24.22.47.33.7.2.47.48.92.73,1.38.06.12.14.23.21.35l.23.33.22.34a4,4,0,0,0,.23.34l-3.82.91a31,31,0,0,0,9.76,8.43l2.92-1.7a46.73,46.73,0,0,0,8.08,3.63c1.48.49,3,1,4.56,1.34l.58.15.3.08.3.06,1.2.26c.39.1.8.16,1.21.24s.81.16,1.22.22l-1.14,2.3a76.51,76.51,0,0,0,16.81.92,70.79,70.79,0,0,0,16.19-2.75l-1.91-2.13a54.65,54.65,0,0,0,5.37-1.92,50.87,50.87,0,0,0,4.79-2.38l-1.59-.92a46.34,46.34,0,0,1-12.44,4.83,65,65,0,0,1-29.44,0,46.83,46.83,0,0,1-12.49-4.83,26.69,26.69,0,0,1-8.38-7.22,14.73,14.73,0,0,1-3-8.53,14.53,14.53,0,0,1,2.87-8.52,26.33,26.33,0,0,1,8.3-7.22,46.34,46.34,0,0,1,12.44-4.83,63.3,63.3,0,0,1,14.71-1.7,64.14,64.14,0,0,1,14.73,1.7,46.83,46.83,0,0,1,12.49,4.83,26.57,26.57,0,0,1,8.38,7.22,14.73,14.73,0,0,1,3,8.52,14.53,14.53,0,0,1-2.87,8.53,26.33,26.33,0,0,1-8.3,7.22l1.59.92a35.05,35.05,0,0,0,4.46-3.09l3.39,1.38a22.72,22.72,0,0,0,7-9.26l-4-.52.16-.44.08-.22.07-.22.25-.89a16,16,0,0,0,.31-1.79,13.23,13.23,0,0,0-.07-3.61l4.72-.23a17.43,17.43,0,0,0-1.31-4.38l-.26-.53a4.53,4.53,0,0,0-.27-.54l-.59-1.06-.69-1c-.23-.34-.51-.68-.76-1a31.22,31.22,0,0,0-8.58-7.34"/><path class="cls-37" d="M123,219.49a62.33,62.33,0,0,0-11.37-5.06l-1.77-.57c-.3-.1-.61-.18-.91-.27l-.91-.26-.91-.26-.93-.23-.93-.24-.93-.22-1.9-.41c-.31-.08-.64-.13-1-.19l-1-.18-1-.18-1-.15-1-.16-.48-.07-.5-.07-2-.25-2-.2-1-.09-1-.07-1-.07-.5,0-.5,0-2-.08-2,0c-.67,0-1.35,0-2,0s-1.35,0-2,0l-2,.09-2,.14c-.67,0-1.34.11-2,.18l-1,.09-1,.12c-2.65.31-5.24.76-7.77,1.29s-5,1.2-7.36,1.94c-.59.19-1.18.37-1.76.57l-1.71.62-.43.16-.42.17-.83.33c-.55.23-1.11.44-1.63.69l-2.42-1.85-1.63.74-1.58.78-.78.39-.76.42-1.49.82-1.43.87-.71.44-.67.46c-.45.3-.91.6-1.34.91l-1.27,1,3.19,1.4c-.42.3-.8.62-1.18,1l-.58.48-.28.24-.27.25-1.07,1c-.34.34-.65.68-1,1A27.5,27.5,0,0,0,32,231.09a21.58,21.58,0,0,0-2.2,4.51,4.3,4.3,0,0,0-.2.57l-.17.58a11.61,11.61,0,0,0-.3,1.16l-.24,1.16-.14,1.17a11.48,11.48,0,0,0-.07,1.17,11.61,11.61,0,0,0,0,1.18l.06,1.17.15,1.17,0,.29.06.29.13.58.12.59c0,.19.11.38.17.58.11.38.21.77.35,1.15l.44,1.15c0,.09.07.19.11.28l.14.29.26.56.27.57.31.56.31.55a6.32,6.32,0,0,0,.33.56l.72,1.1c.12.18.26.36.39.54l.41.54.4.53.46.53.45.53c.15.17.29.35.46.52l1,1A43.07,43.07,0,0,0,45,264.81a65.2,65.2,0,0,0,14.61,6.08c1.2.36,2.45.65,3.69,1s2.52.57,3.81.79,2.59.44,3.89.65,2.64.35,4,.46c.66.07,1.33.14,2,.18l2,.14,2,.08.5,0H83l1,0h1c.67,0,1.35,0,2,0l2-.08c.34,0,.67,0,1-.06l1-.07.51,2.29,1-.07,1-.1c.68-.06,1.37-.12,2-.2l2-.26.5-.06.5-.08,1-.16c1.34-.19,2.65-.46,4-.7.66-.13,1.3-.28,2-.42l1-.22.95-.24L106,271.62a66.84,66.84,0,0,0,17.27-6.79l-.71-.41a65.44,65.44,0,0,1-17,6.67L104,269l-.8.2c-.27.07-.55.12-.82.18-.55.12-1.1.25-1.65.36-1.12.21-2.23.43-3.37.6l-.85.13-.42.06-.43.06-1.73.22L92.2,271l-.87.09-.87.06.5,2.29-1,.07c-.33,0-.66.05-1,.05l-2,.09-2,0H83l-1,0h-.5l-.5,0-2-.08-2-.13c-.66,0-1.31-.11-2-.17-1.32-.12-2.6-.3-3.9-.46s-2.57-.39-3.83-.64-2.5-.51-3.74-.78-2.45-.6-3.62-.95a64.39,64.39,0,0,1-14.34-6A42.25,42.25,0,0,1,37.06,258l-1-1c-.17-.17-.3-.34-.46-.52l-.44-.51-.44-.52-.4-.53-.4-.53a6.42,6.42,0,0,1-.38-.53l-.71-1.07a5.21,5.21,0,0,1-.32-.55l-.31-.55c-.1-.18-.21-.36-.31-.55l-.26-.55L31.4,250l-.13-.28a1.36,1.36,0,0,1-.11-.28l-.43-1.12c-.14-.38-.23-.76-.35-1.14-.05-.19-.12-.37-.16-.56L30.1,246l-.13-.57-.06-.28,0-.29-.15-1.15c0-.38,0-.77-.06-1.15a22.1,22.1,0,0,1,.08-2.3l.14-1.15.23-1.15c.06-.38.19-.75.29-1.13l.17-.57c0-.19.13-.38.19-.57a21.53,21.53,0,0,1,2.17-4.42,27.16,27.16,0,0,1,3.25-4.19c.33-.33.64-.67,1-1l1.05-1,.26-.24c.09-.09.19-.16.28-.24l.57-.47c.38-.32.74-.64,1.16-.94l3.19,1.39,1.07-.8,1.14-.78.58-.39.6-.37,1.21-.74,1.28-.7.64-.36.67-.33c.44-.22.88-.45,1.33-.66l1.39-.63L51.17,217c.51-.24,1.07-.46,1.61-.68l.81-.32.41-.17.42-.15,1.68-.61c.57-.2,1.16-.38,1.73-.57,2.33-.72,4.73-1.38,7.23-1.9s5-1,7.63-1.26c.32,0,.64-.09,1-.12l1-.09c.65-.07,1.3-.14,2-.18l2-.14,2-.08c.66,0,1.32,0,2-.05s1.32,0,2,0,1.33,0,2,0l2,.08.5,0,.5,0,1,.07,1,.07c.33,0,.65.06,1,.09.65.07,1.31.12,2,.2l2,.24.48.07.48.07,1,.15,1,.15,1,.18,1,.18c.31.06.63.11.94.18l1.86.41c.31.06.62.14.92.22l.92.23.91.23.89.25.89.25c.3.09.6.17.89.27l1.74.56a62.44,62.44,0,0,1,11.17,5,39.68,39.68,0,0,1,10.34,8.29c.62.68,1.12,1.39,1.66,2.09s1,1.43,1.36,2.17.75,1.47,1.11,2.21.6,1.5.8,2.26a9.59,9.59,0,0,1,.3,1.14c.08.38.17.76.24,1.14l.15,1.15,0,.29v.29l0,.57,0,.58c0,.19,0,.38,0,.57,0,.39,0,.77,0,1.16l-.14,1.14a3.69,3.69,0,0,1-.09.58l-.12.57-4-.29-.1.51c0,.17-.09.33-.14.5-.1.34-.18.67-.29,1l-.38,1-.09.25a2.56,2.56,0,0,1-.11.24l-.23.5a21.27,21.27,0,0,1-1,2c-.2.32-.41.63-.62.95-.1.16-.19.32-.31.48l-.35.47,3.67.91a37.43,37.43,0,0,1-11.45,9.84l.71.41a38.06,38.06,0,0,0,11.66-10l3.67.92.41-.56c.13-.18.25-.37.37-.56.24-.37.49-.75.72-1.13a25.21,25.21,0,0,0,1.2-2.3l.27-.58c0-.09.09-.19.13-.29l.11-.29.44-1.18c.13-.39.23-.79.35-1.18,0-.2.11-.4.16-.6l.12-.59-4-.29.12-.58c0-.2.08-.39.1-.58l.14-1.17c0-.4,0-.79,0-1.18,0-.19,0-.39,0-.58l0-.59,0-.59,0-.29,0-.29-.15-1.17c-.07-.39-.16-.78-.24-1.17a10,10,0,0,0-.31-1.16,22.32,22.32,0,0,0-.81-2.29c-.36-.76-.69-1.52-1.13-2.26s-.91-1.47-1.39-2.2-1.06-1.44-1.69-2.14A40.58,40.58,0,0,0,123,219.49"/><polyline class="cls-37" points="88.04 274.64 87.15 274.68 87.32 276.48 88.26 276.44 88.04 274.64"/><polyline class="cls-37" points="83.35 274.71 82.46 274.7 82.37 276.5 83.31 276.52 83.35 274.71"/><polyline class="cls-37" points="78.66 274.57 77.77 274.51 77.43 276.3 78.37 276.36 78.66 274.57"/><path class="cls-37" d="M74,274.19l-.88-.1-.6,1.77.93.1.55-1.77"/><polyline class="cls-37" points="69.43 273.58 68.57 273.45 67.72 275.18 68.63 275.32 69.43 273.58"/><polyline class="cls-37" points="64.95 272.76 64.11 272.58 63.01 274.27 63.9 274.46 64.95 272.76"/><path class="cls-37" d="M60.6,271.74l-.81-.23-1.34,1.62.85.24,1.3-1.63"/><polyline class="cls-37" points="56.42 270.49 55.64 270.23 54.06 271.79 54.89 272.06 56.42 270.49"/><polyline class="cls-37" points="52.43 269.05 51.7 268.75 49.9 270.22 50.68 270.53 52.43 269.05"/><polyline class="cls-37" points="48.66 267.42 47.98 267.09 45.98 268.47 46.7 268.82 48.66 267.42"/><polyline class="cls-37" points="45.15 265.61 44.49 265.25 42.31 266.54 42.99 266.91 45.15 265.61"/><polyline class="cls-37" points="41.3 263.25 38.94 264.43 39.56 264.84 41.89 263.65 41.3 263.25"/><path class="cls-37" d="M38.39,261.12l-2.52,1.05c.18.15.36.3.55.44l2.5-1.07c-.19-.14-.35-.28-.53-.42"/><polyline class="cls-37" points="35.8 258.84 33.13 259.77 33.63 260.23 36.28 259.28 35.8 258.84"/><polyline class="cls-37" points="33.56 256.45 30.77 257.24 31.19 257.73 33.96 256.91 33.56 256.45"/><path class="cls-37" d="M31.67,254l-2.91.65c.12.17.23.34.34.51l2.89-.68-.32-.48"/><path class="cls-37" d="M30.13,251.39l-3,.51.29.52,3-.54c-.09-.16-.19-.33-.27-.49"/><polyline class="cls-37" points="28.98 248.75 25.93 249.11 26.14 249.65 29.18 249.25 28.98 248.75"/><polyline class="cls-37" points="28.22 246.06 25.13 246.28 25.25 246.82 28.33 246.58 28.22 246.06"/><path class="cls-37" d="M27.84,243.35l-3.12.07a5.28,5.28,0,0,0,0,.55l3.11-.1a4.41,4.41,0,0,1,0-.52"/><polyline class="cls-37" points="27.84 240.63 24.72 240.55 24.7 241.1 27.82 241.15 27.84 240.63"/><polyline class="cls-37" points="28.25 237.93 25.15 237.69 25.04 238.24 28.14 238.44 28.25 237.93"/><polyline class="cls-37" points="29.03 235.25 25.99 234.87 25.79 235.4 28.85 235.75 29.03 235.25"/><path class="cls-37" d="M30.2,232.62l-3-.53-.14.26-.12.26,3,.5.12-.25.14-.24"/><polyline class="cls-37" points="31.74 230.05 28.84 229.38 28.51 229.89 31.43 230.53 31.74 230.05"/><polyline class="cls-37" points="33.66 227.57 30.87 226.76 30.45 227.25 33.27 228.04 33.66 227.57"/><polyline class="cls-37" points="35.92 225.2 33.26 224.25 32.77 224.72 35.45 225.64 35.92 225.2"/><polyline class="cls-37" points="52.8 212.88 52 213.16 53.68 214.69 54.44 214.41 52.8 212.88"/><polyline class="cls-37" points="57.12 211.47 56.28 211.72 57.73 213.32 58.53 213.09 57.12 211.47"/><path class="cls-37" d="M61.63,210.29c-.3.06-.58.14-.87.21L62,212.16l.82-.2-1.17-1.67"/><polyline class="cls-37" points="66.29 209.33 65.4 209.5 66.37 211.21 67.22 211.06 66.29 209.33"/><polyline class="cls-37" points="71.08 208.6 70.16 208.72 70.89 210.48 71.76 210.37 71.08 208.6"/><path class="cls-37" d="M76,208.1c-.31,0-.63,0-.94.08l.47,1.78.89-.07L76,208.1"/><polyline class="cls-37" points="80.89 207.84 79.95 207.88 80.16 209.68 81.05 209.64 80.89 207.84"/><polyline class="cls-37" points="85.84 207.83 84.9 207.81 84.85 209.62 85.74 209.63 85.84 207.83"/><polyline class="cls-37" points="90.78 208.04 89.84 207.98 89.54 209.78 90.42 209.84 90.78 208.04"/><path class="cls-37" d="M95.67,208.49l-.92-.1-.56,1.77.87.1.61-1.77"/><polyline class="cls-37" points="100.49 209.18 99.58 209.04 98.76 210.78 99.63 210.91 100.49 209.18"/><polyline class="cls-37" points="105.19 210.11 104.3 209.91 103.24 211.61 104.07 211.79 105.19 210.11"/><polyline class="cls-37" points="109.74 211.25 108.89 211.01 107.58 212.65 108.39 212.87 109.74 211.25"/><path class="cls-37" d="M114.12,212.61c-.27-.1-.55-.18-.83-.27l-1.54,1.56.78.26,1.59-1.55"/><polyline class="cls-37" points="118.27 214.18 117.49 213.87 115.73 215.35 116.47 215.65 118.27 214.18"/><polyline class="cls-37" points="122.18 215.95 121.46 215.59 119.5 216.99 120.17 217.32 122.18 215.95"/><polyline class="cls-37" points="125.84 217.88 125.16 217.5 123 218.8 123.65 219.16 125.84 217.88"/><polyline class="cls-37" points="128.58 219.59 126.24 220.77 126.82 221.16 129.19 220 128.58 219.59"/><path class="cls-37" d="M131.7,221.82l-2.5,1.07.51.42,2.54-1.05c-.18-.14-.36-.3-.55-.44"/><polyline class="cls-37" points="134.47 224.2 131.82 225.15 132.3 225.59 134.98 224.67 134.47 224.2"/><polyline class="cls-37" points="136.9 226.71 134.12 227.52 134.52 227.99 137.32 227.2 136.9 226.71"/><polyline class="cls-37" points="138.97 229.32 136.08 230 136.4 230.48 139.31 229.84 138.97 229.32"/><path class="cls-37" d="M140.63,232l-3,.53c.09.17.19.33.26.5l3-.5c-.08-.18-.18-.35-.28-.53"/><polyline class="cls-37" points="141.9 234.81 138.86 235.19 139.05 235.7 142.1 235.34 141.9 234.81"/><polyline class="cls-37" points="142.77 237.63 139.69 237.87 139.79 238.38 142.89 238.18 142.77 237.63"/><polyline class="cls-37" points="143.25 240.49 140.13 240.58 140.16 241.1 143.27 241.04 143.25 240.49"/><path class="cls-37" d="M143.28,243.36l-3.11-.06c0,.17,0,.34,0,.52l3.12.09c0-.19,0-.37,0-.55"/><path class="cls-37" d="M132.32,214.06A75.61,75.61,0,0,0,121.5,209a94.14,94.14,0,0,0-12.9-3.84L110,203a124,124,0,0,0-43.39-1.66,108,108,0,0,0-13.84,2.84l1.69,2.06a86.83,86.83,0,0,0-12.33,4.38,67.68,67.68,0,0,0-10.47,5.77c-6.26,4.25-11,9.29-13.61,14.67l-3.8-.64A25.38,25.38,0,0,0,12,247.29c1.21,5.64,4.42,11.14,9.41,16l3.4-1.15a50.05,50.05,0,0,0,8.63,6.75c.7.44,1.42.88,2.15,1.3a73.43,73.43,0,0,0,8.71,4.27,99.92,99.92,0,0,0,26.47,6.62l-.76,2.24a124.25,124.25,0,0,0,29.23-.11A104,104,0,0,0,126,276.48l-2.29-1.86a77,77,0,0,0,8.92-4.36l-1.32-.76a78.86,78.86,0,0,1-7.64,3.82c-2.73,1.14-5.58,2.18-8.55,3.1s-6.1,1.67-9.28,2.31l-2.4.45-.61.1-.61.1-1.22.19-.61.09-.3,0-.31,0-1.23.16c-.83.1-1.65.22-2.48.29-3.31.36-6.68.54-10,.6H83.52l-2.53,0-2.52-.11-.63,0-.63,0L76,280.52c-3.34-.25-6.67-.61-9.91-1.16-.82-.12-1.62-.28-2.42-.43l-1.2-.22-.31-.06-.29-.06-.59-.13L60,278.2l-.59-.13-.59-.13-2.32-.59,1.24-1.59a76.65,76.65,0,0,1-18.66-7.48l-1.94-1.17L35,268.29a57.19,57.19,0,0,1-6.57-4.83,42.37,42.37,0,0,1-5.14-5.38l-1.06-1.41-.94-1.43a3.73,3.73,0,0,1-.23-.37l-.21-.36-.41-.73c-.13-.25-.29-.49-.4-.73l-.35-.75a24,24,0,0,1-2-6c-1.59-8.15,1.49-16.56,8.6-23.63l2.61.88a55.31,55.31,0,0,1,16.9-11L44,211.16a89,89,0,0,1,8.95-3.27,97.77,97.77,0,0,1,9.75-2.39l1.26-.24c.42-.07.83-.16,1.26-.22l2.56-.4,2.59-.34.64-.08.66-.06,1.3-.13,1.31-.13,1.32-.09c.88-.06,1.75-.13,2.64-.16l1.32-.05.66,0,.66,0,2.65,0a112.58,112.58,0,0,1,20.89,1.89l1.26.23.63.13.62.14,1.24.27c.41.09.83.17,1.23.28l2.44.61,2.38.68a88.18,88.18,0,0,1,9,3.22l-1.78,1.41a64.88,64.88,0,0,1,7.42,3.68c.72.41,1.42.84,2.11,1.27a49,49,0,0,1,7.65,5.93l2.58-.89a37.78,37.78,0,0,1,4.88,5.73l.49.75c.16.25.34.5.47.75l.86,1.52.73,1.55a3.17,3.17,0,0,1,.17.38l.15.39.3.78a24.57,24.57,0,0,1,1.41,6.34l.07,1.6,0,1.6a7.22,7.22,0,0,1-.08.8l-.09.79a13.9,13.9,0,0,1-.28,1.59,25.41,25.41,0,0,1-2.2,6.26,32.18,32.18,0,0,1-4,5.95,48.15,48.15,0,0,1-12.71,10.36l1.32.76a60.14,60.14,0,0,0,7.24-5,40.83,40.83,0,0,0,5.75-5.6l3.55,1a29.26,29.26,0,0,0,7.25-16.39,26.55,26.55,0,0,0-4.51-16.74l-3.7.8a38,38,0,0,0-6.48-7.52,54.82,54.82,0,0,0-9-6.56l-.39-.23"/></g><g class="cls-38"><path class="cls-39" d="M29.38,142.55a89.61,89.61,0,0,1,19.87-8.33l.31-.09-.44-.6-.15,0A90.24,90.24,0,0,0,28.89,142c-7.44,4.33-13.2,9.37-17.1,15A28.35,28.35,0,0,0,12,191.22a44.4,44.4,0,0,0,3.59,4.4l.33.35.06-.48a1.14,1.14,0,0,1,.09-.3l.06-.13L16,195C9,187.3,6,178.68,7.3,170,8.88,159.67,16.72,149.91,29.38,142.55Z"/></g><g class="cls-40"><path class="cls-41" d="M136,207.62l-.1-.19-.2.1c-11.29,5.81-25.21,9.54-40.25,10.78l-.29,0,.24.68.17,0a123.81,123.81,0,0,0,18.25-2.85,97.79,97.79,0,0,0,22.21-8l.21-.1-.11-.21A2.53,2.53,0,0,1,136,207.62Z"/></g><g class="cls-42"><path class="cls-43" d="M156.54,157a48.1,48.1,0,0,0-10.74-10.73l-.19-.14-.13.2a.8.8,0,0,1-.15.17l-.22.18.23.17c10.12,7.55,15.7,16.61,16.15,26.2.42,9-3.77,17.73-12.11,25.24l-.18.17.19.17a.65.65,0,0,1,.15.18l.14.24.2-.18a44.42,44.42,0,0,0,6.85-7.65,29.3,29.3,0,0,0,5.65-17.11A29.69,29.69,0,0,0,156.54,157Z"/></g><g class="cls-44"><path class="cls-45" d="M29.74,205.67l-.61-.36-.21-.12-.12.15-.13.15-.22.25.33.19c.15.1.31.19.47.28a95.38,95.38,0,0,0,25.88,9.94A123.83,123.83,0,0,0,69,218.56l.16,0,.07-.15a1.74,1.74,0,0,1,.11-.18l.26-.31-.4-.05C54.23,216.15,40.58,211.93,29.74,205.67Z"/></g><path class="cls-46" d="M17,193.9a1.87,1.87,0,1,0-.56,2.59A1.87,1.87,0,0,0,17,193.9Z"/><path class="cls-47" d="M71.05,217.13a1.88,1.88,0,1,0-.57,2.59A1.88,1.88,0,0,0,71.05,217.13Z"/><path class="cls-48" d="M137.24,207a1.87,1.87,0,1,0-.56,2.6A1.87,1.87,0,0,0,137.24,207Z"/><path class="cls-49" d="M146.74,145.07a1.87,1.87,0,1,0-.56,2.59A1.87,1.87,0,0,0,146.74,145.07Z"/><path class="cls-50" d="M146.65,131.58a2.6,2.6,0,0,0-1-1.25L77.33,90.9a1.11,1.11,0,0,0-1.26,0h0L75,91.51a1.22,1.22,0,0,1,1,.14l68.29,39.43a2.55,2.55,0,0,1,1,1.26,2.85,2.85,0,0,1,.21,1.52l-8.83,56a1.42,1.42,0,0,1-.59,1l1.17-.65a1,1,0,0,0,.22-.13h0a1.52,1.52,0,0,0,.55-1l8.82-56A2.93,2.93,0,0,0,146.65,131.58Z"/><path class="cls-51" d="M144.28,131.08,76,91.65c-.85-.49-1.67,0-1.83,1l-8.82,56a2.89,2.89,0,0,0,1.23,2.79l68.29,39.42c.85.49,1.67,0,1.83-1l8.83-56a2.9,2.9,0,0,0-1.24-2.78Z"/><path class="cls-32" d="M144.08,134.83l-.31,2-7.93,50.35c-.13.81-.65,1.26-1.27,1.2a1.29,1.29,0,0,1-.56-.19l-66-38.1a2.93,2.93,0,0,1-1.23-2.79L75,95c.16-1,1-1.5,1.83-1l66,38.1A2.88,2.88,0,0,1,144.08,134.83Z"/><path class="cls-52" d="M134.57,193.73v-2.81L90.8,167.81,66.9,154a4.1,4.1,0,0,0-2.86-.33l-1.83-1L17.05,178.5v2.83h0a1.24,1.24,0,0,0,.76,1.2l66.9,38.63a4.09,4.09,0,0,0,3.7,0l45.4-26.39a1.5,1.5,0,0,0,.72-.8h0Z"/><path class="cls-53" d="M133.8,189.91,66.9,151.29a4.09,4.09,0,0,0-3.7,0L17.8,177.67a1.13,1.13,0,0,0,0,2.14l66.9,38.63a4.09,4.09,0,0,0,3.7,0l45.4-26.39a1.13,1.13,0,0,0,0-2.14"/><path class="cls-54" d="M133.8,189.8,66.9,151.17a4.09,4.09,0,0,0-3.7,0L17.8,177.55a1.13,1.13,0,0,0,0,2.14l66.9,38.63a4.09,4.09,0,0,0,3.7,0l45.4-26.39a1.13,1.13,0,0,0,0-2.13"/><polyline class="cls-37" points="66.72 161.59 62.47 159.14 58.86 161.24 63.11 163.69 66.72 161.59"/><polyline class="cls-37" points="71.98 164.63 67.78 162.2 64.17 164.3 68.36 166.73 71.98 164.63"/><polyline class="cls-37" points="77.24 167.66 73.04 165.24 69.42 167.34 73.62 169.76 77.24 167.66"/><polyline class="cls-37" points="82.5 170.7 78.3 168.27 74.68 170.38 78.88 172.8 82.5 170.7"/><polyline class="cls-37" points="87.76 173.74 83.56 171.31 79.94 173.41 84.14 175.84 87.76 173.74"/><polyline class="cls-37" points="93.01 176.77 88.81 174.35 85.2 176.45 89.4 178.87 93.01 176.77"/><polyline class="cls-37" points="98.27 179.81 94.07 177.38 90.46 179.48 94.66 181.91 98.27 179.81"/><polyline class="cls-37" points="103.53 182.84 99.33 180.42 95.72 182.52 99.92 184.94 103.53 182.84"/><polyline class="cls-37" points="108.79 185.88 104.59 183.45 100.97 185.56 105.17 187.98 108.79 185.88"/><polyline class="cls-37" points="114.05 188.91 109.85 186.49 106.23 188.59 110.43 191.02 114.05 188.91"/><polyline class="cls-37" points="119.14 191.86 115.11 189.53 111.49 191.63 115.53 193.96 119.14 191.86"/><polyline class="cls-37" points="64.76 165.8 57.87 161.82 54.26 163.91 61.16 167.89 64.76 165.8"/><polyline class="cls-37" points="70.02 168.83 65.82 166.41 62.22 168.5 66.42 170.93 70.02 168.83"/><polyline class="cls-37" points="75.28 171.87 71.08 169.44 67.47 171.54 71.67 173.96 75.28 171.87"/><polyline class="cls-37" points="80.54 174.91 76.34 172.48 72.73 174.58 76.93 177 80.54 174.91"/><polyline class="cls-37" points="85.79 177.94 81.59 175.52 77.99 177.61 82.19 180.04 85.79 177.94"/><polyline class="cls-37" points="91.05 180.98 86.85 178.55 83.25 180.65 87.45 183.07 91.05 180.98"/><polyline class="cls-37" points="96.31 184.01 92.11 181.59 88.51 183.68 92.71 186.11 96.31 184.01"/><polyline class="cls-37" points="101.57 187.05 97.37 184.62 93.77 186.72 97.97 189.14 101.57 187.05"/><polyline class="cls-37" points="106.83 190.09 102.63 187.66 99.02 189.75 103.22 192.18 106.83 190.09"/><polyline class="cls-37" points="114.53 194.53 107.89 190.7 104.28 192.79 110.93 196.63 114.53 194.53"/><polyline class="cls-37" points="59.21 167.92 53.27 164.49 49.66 166.58 55.61 170.01 59.21 167.92"/><polyline class="cls-37" points="64.47 170.96 60.27 168.53 56.67 170.63 60.87 173.05 64.47 170.96"/><polyline class="cls-37" points="69.73 173.99 65.53 171.57 61.92 173.66 66.12 176.09 69.73 173.99"/><polyline class="cls-37" points="74.99 177.03 70.79 174.6 67.18 176.7 71.38 179.12 74.99 177.03"/><polyline class="cls-37" points="80.25 180.06 76.05 177.64 72.44 179.73 76.64 182.16 80.25 180.06"/><polyline class="cls-37" points="85.5 183.1 81.3 180.67 77.7 182.77 81.9 185.19 85.5 183.1"/><polyline class="cls-37" points="90.76 186.13 86.56 183.71 82.96 185.8 87.16 188.23 90.76 186.13"/><polyline class="cls-37" points="96.02 189.17 91.82 186.75 88.22 188.84 92.42 191.26 96.02 189.17"/><polyline class="cls-37" points="101.28 192.21 97.08 189.78 93.47 191.88 97.67 194.3 101.28 192.21"/><polyline class="cls-37" points="109.94 197.21 102.34 192.82 98.73 194.91 106.33 199.3 109.94 197.21"/><polyline class="cls-37" points="57.9 172.49 48.67 167.16 45.07 169.25 54.29 174.58 57.9 172.49"/><polyline class="cls-37" points="63.05 175.46 58.85 173.03 55.25 175.13 59.45 177.55 63.05 175.46"/><polyline class="cls-37" points="68.31 178.5 64.11 176.07 60.51 178.16 64.7 180.59 68.31 178.5"/><polyline class="cls-37" points="73.57 181.53 69.37 179.11 65.76 181.2 69.96 183.63 73.57 181.53"/><polyline class="cls-37" points="78.83 184.57 74.63 182.14 71.02 184.24 75.22 186.66 78.83 184.57"/><polyline class="cls-37" points="84.08 187.6 79.88 185.18 76.28 187.27 80.48 189.7 84.08 187.6"/><polyline class="cls-37" points="89.34 190.64 85.14 188.21 81.54 190.31 85.74 192.73 89.34 190.64"/><polyline class="cls-37" points="94.6 193.68 90.4 191.25 86.8 193.34 91 195.77 94.6 193.68"/><polyline class="cls-37" points="105.23 199.81 95.66 194.29 92.05 196.38 101.63 201.91 105.23 199.81"/><polyline class="cls-37" points="50.87 173.75 44.08 169.83 40.54 171.89 47.33 175.81 50.87 173.75"/><polyline class="cls-37" points="56.13 176.79 51.92 174.36 48.39 176.42 52.59 178.84 56.13 176.79"/><polyline class="cls-37" points="61.38 179.82 57.18 177.4 53.65 179.45 57.84 181.88 61.38 179.82"/><polyline class="cls-37" points="82.42 191.97 62.44 180.43 58.9 182.49 78.88 194.02 82.42 191.97"/><polyline class="cls-37" points="87.67 195 83.47 192.58 79.94 194.63 84.14 197.06 87.67 195"/><polyline class="cls-37" points="92.93 198.04 88.73 195.61 85.19 197.67 89.39 200.09 92.93 198.04"/><polyline class="cls-37" points="100.75 202.55 93.99 198.65 90.45 200.71 97.21 204.6 100.75 202.55"/><path class="cls-37" d="M120.87,189.84,66,158.13a1.91,1.91,0,0,0-1.74,0,.53.53,0,0,0,0,1l54.92,31.71a1.93,1.93,0,0,0,1.75,0c.48-.28.48-.73,0-1"/><g class="cls-55"><path class="cls-56" d="M143.77,136.86l-7.93,50.35c-.13.81-.65,1.26-1.27,1.2L68.24,150.12a1.13,1.13,0,0,1,0-2.14l45.4-26.39a4.07,4.07,0,0,1,3.69,0Z"/><g class="cls-57"><polyline class="cls-58" points="136.63 177.57 140.87 180.03 144.45 177.96 140.21 175.5 136.63 177.57"/><polyline class="cls-58" points="131.39 174.53 135.58 176.96 139.16 174.89 134.97 172.46 131.39 174.53"/><polyline class="cls-58" points="126.15 171.48 130.34 173.91 133.92 171.84 129.73 169.41 126.15 171.48"/><polyline class="cls-58" points="120.91 168.44 125.09 170.87 128.68 168.8 124.49 166.37 120.91 168.44"/><polyline class="cls-58" points="115.66 165.39 119.85 167.82 123.43 165.75 119.24 163.32 115.66 165.39"/><polyline class="cls-58" points="110.42 162.35 114.61 164.78 118.19 162.71 114 160.28 110.42 162.35"/><polyline class="cls-58" points="105.18 159.3 109.37 161.73 112.95 159.66 108.76 157.23 105.18 159.3"/><polyline class="cls-58" points="99.94 156.26 104.12 158.69 107.7 156.62 103.52 154.19 99.94 156.26"/><polyline class="cls-58" points="94.69 153.21 98.88 155.64 102.46 153.57 98.28 151.14 94.69 153.21"/><polyline class="cls-58" points="89.45 150.17 93.64 152.6 97.22 150.53 93.03 148.1 89.45 150.17"/><polyline class="cls-58" points="84.37 147.22 88.39 149.55 91.98 147.49 87.95 145.15 84.37 147.22"/><polyline class="cls-58" points="138.56 173.4 145.43 177.4 149 175.33 142.13 171.34 138.56 173.4"/><polyline class="cls-58" points="133.31 170.36 137.5 172.79 141.07 170.73 136.88 168.3 133.31 170.36"/><polyline class="cls-58" points="128.07 167.31 132.26 169.75 135.83 167.68 131.64 165.25 128.07 167.31"/><polyline class="cls-58" points="122.83 164.27 127.02 166.7 130.59 164.64 126.4 162.21 122.83 164.27"/><polyline class="cls-58" points="117.59 161.22 121.77 163.66 125.34 161.59 121.16 159.16 117.59 161.22"/><polyline class="cls-58" points="112.34 158.18 116.53 160.61 120.1 158.55 115.92 156.12 112.34 158.18"/><polyline class="cls-58" points="107.1 155.13 111.29 157.56 114.86 155.5 110.67 153.07 107.1 155.13"/><polyline class="cls-58" points="101.86 152.09 106.05 154.52 109.62 152.46 105.43 150.03 101.86 152.09"/><polyline class="cls-58" points="96.62 149.04 100.8 151.47 104.37 149.41 100.19 146.98 96.62 149.04"/><polyline class="cls-58" points="88.93 144.58 95.56 148.43 99.13 146.37 92.5 142.52 88.93 144.58"/><polyline class="cls-58" points="144.06 171.33 149.99 174.77 153.55 172.71 147.63 169.26 144.06 171.33"/><polyline class="cls-58" points="138.82 168.28 143 170.71 146.57 168.65 142.39 166.22 138.82 168.28"/><polyline class="cls-58" points="133.58 165.24 137.76 167.67 141.33 165.61 137.14 163.17 133.58 165.24"/><polyline class="cls-58" points="128.33 162.19 132.52 164.62 136.09 162.56 131.9 160.13 128.33 162.19"/><polyline class="cls-58" points="123.09 159.15 127.28 161.58 130.84 159.52 126.66 157.08 123.09 159.15"/><polyline class="cls-58" points="117.85 156.1 122.03 158.53 125.6 156.47 121.42 154.04 117.85 156.1"/><polyline class="cls-58" points="112.6 153.06 116.79 155.49 120.36 153.43 116.17 150.99 112.6 153.06"/><polyline class="cls-58" points="107.36 150.01 111.55 152.44 115.12 150.38 110.93 147.95 107.36 150.01"/><polyline class="cls-58" points="102.12 146.97 106.31 149.4 109.87 147.34 105.69 144.9 102.12 146.97"/><polyline class="cls-58" points="93.49 141.95 101.06 146.35 104.63 144.29 97.05 139.89 93.49 141.95"/><polyline class="cls-58" points="145.34 166.8 154.54 172.14 158.1 170.08 148.91 164.73 145.34 166.8"/><polyline class="cls-58" points="140.2 163.81 144.39 166.24 147.96 164.18 143.77 161.75 140.2 163.81"/><polyline class="cls-58" points="134.96 160.77 139.15 163.2 142.72 161.14 138.53 158.71 134.96 160.77"/><polyline class="cls-58" points="129.72 157.72 133.91 160.16 137.47 158.09 133.29 155.66 129.72 157.72"/><polyline class="cls-58" points="124.47 154.68 128.66 157.11 132.23 155.05 128.04 152.62 124.47 154.68"/><polyline class="cls-58" points="119.23 151.63 123.42 154.06 126.99 152 122.8 149.57 119.23 151.63"/><polyline class="cls-58" points="113.99 148.59 118.18 151.02 121.75 148.96 117.56 146.53 113.99 148.59"/><polyline class="cls-58" points="108.75 145.54 112.93 147.97 116.5 145.91 112.31 143.48 108.75 145.54"/><polyline class="cls-58" points="98.14 139.38 107.69 144.93 111.26 142.87 101.71 137.32 98.14 139.38"/><polyline class="cls-58" points="152.32 165.58 159.09 169.51 162.59 167.48 155.82 163.55 152.32 165.58"/><polyline class="cls-58" points="147.07 162.53 151.26 164.96 154.77 162.94 150.58 160.51 147.07 162.53"/><polyline class="cls-58" points="141.83 159.49 146.02 161.92 149.52 159.9 145.34 157.46 141.83 159.49"/><polyline class="cls-58" points="120.86 147.31 140.78 158.87 144.28 156.85 124.37 145.28 120.86 147.31"/><polyline class="cls-58" points="115.62 144.26 119.81 146.69 123.31 144.67 119.13 142.24 115.62 144.26"/><polyline class="cls-58" points="110.38 141.22 114.56 143.65 118.07 141.63 113.88 139.19 110.38 141.22"/><polyline class="cls-58" points="102.59 136.69 109.32 140.6 112.83 138.58 106.09 134.67 102.59 136.69"/><path class="cls-58" d="M81.88,150.08,136,181.53a2.46,2.46,0,0,0,2.24,0,.69.69,0,0,0,0-1.3L84.12,148.78a2.46,2.46,0,0,0-2.24,0,.69.69,0,0,0,0,1.3"/></g></g><polygon class="cls-37" points="92.92 119.19 96.8 116.93 96.76 131.27 92.88 133.53 92.92 119.19"/><polygon class="cls-37" points="88.43 100.4 92.31 98.14 101.81 119.83 97.93 122.08 88.43 100.4"/><polygon class="cls-59" points="88.43 100.4 97.93 122.08 92.92 119.19 92.88 133.53 83.81 128.3 83.85 113.96 78.84 111.06 88.43 100.4"/><polygon class="cls-37" points="100.01 123.92 103.89 121.67 108.9 124.56 105.02 126.82 100.01 123.92"/><polygon class="cls-37" points="114.09 132.05 117.97 129.79 122.98 132.69 119.1 134.94 114.09 132.05"/><polygon class="cls-37" points="119.1 134.94 122.98 132.69 113.39 143.35 109.51 145.61 119.1 134.94"/><polygon class="cls-37" points="114.13 117.71 118.01 115.45 117.97 129.79 114.09 132.05 114.13 117.71"/><polygon class="cls-37" points="105.06 112.48 108.94 110.22 118.01 115.45 114.13 117.71 105.06 112.48"/><polygon class="cls-60" points="114.13 117.71 114.09 132.05 119.1 134.94 109.51 145.61 100.01 123.92 105.02 126.82 105.06 112.48 114.13 117.71"/><g class="cls-61"><path class="cls-62" d="M15.85,95.4l-.23-.21-.24.2A48.58,48.58,0,0,0,6,105.3a30.12,30.12,0,0,0,.21,36.36A43.42,43.42,0,0,0,10,146.29l.16.18,1.1-.39-.37-.4C4,138.26.64,129.88,1.22,121.43,1.86,112.3,7,103.56,16.08,96.16l.33-.27-.32-.28Z"/></g><g class="cls-63"><path class="cls-64" d="M152.27,148.44a64.3,64.3,0,0,1-11.43,8.34C116.42,171,79,174.66,47.61,166l-.3-.08-.16.37-.06.16-.16.38.39.11c1.58.43,3.13.83,4.63,1.18a136.32,136.32,0,0,0,31.13,3.51,135.78,135.78,0,0,0,31.09-3.51,99.73,99.73,0,0,0,27.32-10.53A65.37,65.37,0,0,0,153,149.21l.27-.25-.72-.77Z"/></g><g class="cls-65"><path class="cls-66" d="M159.42,105.3c-4.21-6-10.37-11.32-18.31-15.9a95,95,0,0,0-18.92-8.2l-.25-.08-.19.27-.13.17-.27.4.46.15a94,94,0,0,1,18.65,8.07c18,10.4,26.53,24.74,23.37,39.34l-.09.39,1.16.13.07-.32a28.58,28.58,0,0,0,.66-6.24A31.61,31.61,0,0,0,159.42,105.3Z"/></g><g class="cls-67"><path class="cls-68" d="M97.36,77.11l.34,0,0-.34c0-.08,0-.16,0-.25l.07-.38-.38,0a142.47,142.47,0,0,0-14.94-.78,135.91,135.91,0,0,0-31.09,3.51,112.07,112.07,0,0,0-13.12,3.92L37.8,83l.4.4.14.14.23.23.22-.08C56.14,77.29,76.94,75,97.36,77.11Z"/></g><path class="cls-69" d="M123.06,80.24a2,2,0,1,0-.6,2.77A2,2,0,0,0,123.06,80.24Z"/><path class="cls-70" d="M38.89,82.91a2,2,0,1,0-.6,2.77A2,2,0,0,0,38.89,82.91Z"/><path class="cls-71" d="M12.62,145.56a2,2,0,1,0-.6,2.77A2,2,0,0,0,12.62,145.56Z"/><path class="cls-72" d="M154.45,146.94a2,2,0,1,0-.6,2.77A2,2,0,0,0,154.45,146.94Z"/><path class="cls-37" d="M73.08,53.12l-.09,0-.44-.19-.33-.13L72,52.7l-.42-.14-.08,0h-.06l-.39-.1-.16,0-.29-.06-.14,0-.28,0h-.15l-.3,0h-.55l-.31,0H68.8l-.3,0h-.06l-.35.08-.09,0-.26.08-.09,0-.32.13h0l-.34.17h0l9.22-5.09.09,0,.25-.12h0l.26-.11.06,0,.09,0,.27-.08.08,0,0,0,.3-.06h.06l.21,0h.2l.31,0h1l.29,0,.13,0h.06l.23,0,.16,0,.39.1.06,0h0l.08,0,.42.14.18.07.34.13h0l.39.17.09.05.37.18.13.06.46.26.11.06.28.17.24.15.35.23.22.16.38.28.19.14.55.44-9.22,5.1c-.19-.16-.37-.31-.56-.45l-.19-.14-.37-.27L75,54.24,74.67,54l-.25-.15L74,53.62l-.47-.25-.12-.07Z"/><path class="cls-37" d="M87.83,50l-.25-.18-.39-.26-.28-.18-.44-.26L86,48.82l-.12-.07-.37-.18-.1,0L85,48.34l-.34-.13-.17-.07L84,48,84,48h0l-.41-.11-.15,0-.29,0-.14,0-.28,0-.15,0-.3,0h-.55l-.31,0h-.11l-.3,0h-.06l-.35.08-.09,0-.26.08-.09,0-.33.13h0l-.34.17,9.22-5.1.09,0L89,43h0l.26-.11.06,0,.09,0,.27-.08.08,0h0l.31-.07h.06l.21,0h.2l.31,0h1l.28,0,.14,0h.06l.24.05.15,0,.4.1h0l0,0,.45.15.18.06.33.13,0,0,.39.17.1,0,.37.18.13.07.46.25.11.07.32.2.28.17.39.27.26.18.43.32.21.16c.21.17.42.34.62.52L89.1,51c-.21-.18-.42-.36-.63-.52l-.21-.17Z"/><path class="cls-37" d="M103.37,37.92a1,1,0,0,1,.17-.1l0,0,.4-.19h0l.4-.16,0,0,.06,0,.37-.13h.05c.14,0,.28-.08.43-.12l0,0h.07l.37-.08.09,0,.45-.07h.1l.39,0H107l.48,0h.64l.51,0h.1l.52.05h.08c.18,0,.38,0,.57.09H110l.64.13.1,0,.67.18h0l.15,0,.28.08.17.06.27.09.19.07.25.09.2.08.25.1,0,0,.09,0,.46.2.14.06.56.27.1.05.49.25.16.08.58.33.25.14.38.23.29.18.62.41.18.12c.27.18.53.37.79.56l.21.15.58.44.29.23.49.39.3.27.46.39.32.28.45.41.3.29.15.14c.11.1.22.21.32.32l.26.25.56.57.16.17c.24.25.47.5.7.76l.19.21.42.47.07.09.63.75.16.2c.26.32.52.64.77,1l0,0,.35.47.29.39.39.55.27.37,0,0,.59.87.15.23.39.6.06.09.18.3.39.62.2.34c.05.1.11.19.17.29s.12.22.19.33a3.07,3.07,0,0,1,.17.31l.42.75a1.62,1.62,0,0,0,.1.18l0,0c.16.29.31.59.46.89l.13.25c.08.16.15.31.23.46l.11.24.15.31.33.71.12.26,0,.09c.13.29.25.58.37.86a1.22,1.22,0,0,1,.07.17c.09.2.17.41.26.62a1.34,1.34,0,0,0,.07.18l.12.32c.09.23.18.45.26.68l.12.33c0,.06,0,.12.07.19l.18.51.1.3c.11.32.21.65.31,1v0l.06.2.24.82c0,.12.06.24.1.37s.09.34.13.51,0,.09,0,.13.08.36.13.54l.12.54c0,.18.08.36.11.54l.09.4c0,.09,0,.17,0,.25l-9.22,5.1c0-.22-.09-.44-.14-.66s-.07-.36-.11-.54-.08-.35-.13-.53-.08-.36-.13-.54-.11-.43-.17-.65-.06-.24-.1-.36c-.07-.28-.15-.55-.24-.82a1.17,1.17,0,0,0-.06-.2c-.1-.34-.2-.67-.31-1,0-.09-.07-.19-.11-.29l-.24-.71-.12-.33c-.09-.22-.17-.45-.26-.67s-.08-.22-.13-.33c-.1-.26-.21-.53-.32-.79,0-.06,0-.12-.07-.17q-.19-.48-.42-1l-.11-.26-.33-.7-.15-.31-.34-.7c0-.09-.09-.17-.13-.26-.16-.31-.32-.62-.49-.93l-.09-.17-.42-.76c-.06-.1-.12-.2-.17-.3s-.24-.42-.37-.62a3.79,3.79,0,0,0-.2-.34c-.12-.21-.25-.42-.38-.63l-.18-.29-.45-.7-.15-.22c-.2-.31-.4-.61-.61-.9l-.27-.38-.39-.55-.29-.39-.38-.5c-.26-.33-.51-.66-.77-1-.06-.06-.11-.13-.16-.19l-.63-.75-.5-.57-.18-.2c-.23-.26-.47-.51-.7-.76l-.16-.17-.56-.57-.26-.26-.47-.46-.31-.28a5.92,5.92,0,0,0-.45-.41l-.31-.28-.46-.4-.31-.26-.49-.4-.28-.22-.58-.44L109.1,46c-.26-.19-.52-.38-.79-.56l-.18-.12-.62-.4-.29-.18-.63-.38-.59-.32-.15-.08-.49-.26-.1,0-.56-.27-.15-.07-.45-.19-.15-.06-.25-.1-.19-.08-.26-.09-.19-.07-.26-.09-.18-.06-.28-.09-.15,0c-.23-.07-.45-.13-.68-.18l-.1,0-.64-.14-.12,0-.57-.09H100L99.49,42h-.1l-.51,0h-.65a3.59,3.59,0,0,0-.47,0h-.11l-.39,0h-.11l-.45.08h-.09l-.36.09-.12,0-.42.12,0,0-.37.13-.12,0-.39.17h0l-.4.2-.21.11h0Z"/><path class="cls-37" d="M144.38,100.55l0-.3c0-.2,0-.39-.07-.6s-.05-.44-.09-.66,0-.24-.05-.35c0-.3-.09-.59-.15-.89l0-.14a.69.69,0,0,0,0-.13c-.06-.27-.11-.53-.17-.8,0-.11-.06-.22-.08-.33s-.1-.41-.16-.62-.05-.19-.07-.28l-.18-.63-.09-.31c-.07-.24-.15-.48-.23-.72a1,1,0,0,0-.05-.16c-.09-.29-.19-.59-.3-.88a1.8,1.8,0,0,0-.08-.21c-.08-.23-.17-.47-.26-.7l-.09-.22c0-.11-.09-.23-.14-.34q-.18-.47-.39-.93L141.5,90c-.16-.35-.32-.69-.49-1l-.06-.13c-.19-.39-.39-.77-.59-1.16a3.07,3.07,0,0,1-.17-.31l-.51-.91c-.06-.1-.11-.2-.17-.29-.23-.4-.47-.79-.71-1.17l-.13-.2c-.24-.37-.47-.73-.72-1.08l-.19-.29-.22-.3c-.12-.17-.24-.34-.37-.5a3.55,3.55,0,0,0-.23-.31l-.33-.44-.34-.42-.32-.4-.34-.41c-.14-.15-.27-.31-.4-.46L135,80c-.2-.23-.41-.45-.62-.68l0,0-.6-.62a1.7,1.7,0,0,1-.19-.19l-.47-.45-.21-.2-.58-.52-.09-.08-.68-.57-.19-.16-.5-.38-.24-.18c-.16-.13-.33-.25-.5-.37l-.2-.14-.71-.46-.09-.06-.7-.43-.61-.33-.18-.09a4.11,4.11,0,0,0-.42-.21l-.2-.1c-.14-.06-.28-.13-.42-.18l-.17-.08-.58-.23,9.22-5.1.51.2.07,0,.18.08.41.19.2.09.42.21.19.1q.3.15.6.33l.2.12c.17.09.34.2.5.3l.1.06.7.47.2.14.51.36.23.18.5.39.2.16.67.56.09.09.58.52.21.2.24.22.23.23c.06.06.13.12.19.19l.6.61,0,0,.62.68c.06.06.11.13.17.2l.24.26a1.46,1.46,0,0,0,.16.19l.34.41.32.4.34.42L146,77c.06.07.11.15.16.22l.24.31.36.5.22.31.09.13a1.3,1.3,0,0,1,.1.15q.38.54.72,1.08l.09.14a.21.21,0,0,1,0,.06c.24.39.48.78.71,1.17l.06.1.11.19c.17.31.35.61.51.92l.11.19.06.12.59,1.15v0l0,.1c.17.35.33.7.49,1l.07.15a1.67,1.67,0,0,1,.08.2c.14.31.27.62.4.93a1.67,1.67,0,0,1,.08.2l.06.13a1.43,1.43,0,0,0,.08.22l.27.71.07.21a.36.36,0,0,1,0,.11c.1.25.18.51.27.77a.88.88,0,0,0,.05.15l.16.52.06.21.09.3c.07.21.12.42.18.63l.08.29,0,.13c.05.16.08.32.12.49l.08.32c.06.27.12.54.17.81l0,.12h0s0,.09,0,.14c.06.29.11.59.16.88,0,.12,0,.24,0,.36l.09.66s0,.06,0,.1,0,.33,0,.5l0,.3.06.9c.23,5.33-1.46,9-4.35,10.62l-9.22,5.1c2.89-1.6,4.58-5.3,4.34-10.62C144.42,101.16,144.4,100.86,144.38,100.55Z"/><g class="cls-73"><path class="cls-74" d="M64.43,60A25.27,25.27,0,0,0,69.32,73L93.19,86.69v-16L88.87,68.2,103.6,52.11l14.72,33L112.86,82V98l9.22,5.3,16.2,9.31a6.88,6.88,0,0,0,1.79-.52c.22-.1.42-.2.63-.32,2.82-1.62,4.47-5.3,4.24-10.56-.45-10.08-7.61-22.17-16-27A17.5,17.5,0,0,0,126.35,73c-2.14-11.36-10.11-23.6-19.26-28.86-4.87-2.8-9.21-3.12-12.39-1.4l0,0A10.1,10.1,0,0,0,90,49a16.64,16.64,0,0,0-.42,1.72l-.38-.33A17.73,17.73,0,0,0,87,48.82c-2.81-1.61-5.31-1.78-7.12-.75s-3,3.49-3,6.94l-.49-.4a15.94,15.94,0,0,0-1.83-1.24,8,8,0,0,0-5.93-1.22,4.52,4.52,0,0,0-1.2.49C65.43,53.78,64.27,56.35,64.43,60Z"/></g><path class="cls-75" d="M63.93,60.29a25.18,25.18,0,0,0,4.89,12.93l24.37,14V70.68L88.87,68.2,103.6,52.11l14.72,33L112.86,82V98.54l24.92,14.32a7,7,0,0,0,2.29-.77c2.9-1.59,4.6-5.29,4.36-10.63-.44-10.08-7.61-22.17-16-27a17.5,17.5,0,0,0-2.58-1.22c-2.14-11.36-10.11-23.59-19.26-28.86C102,41.73,97.82,41.3,94.7,42.73l0,0C92,44,90.06,46.61,89.22,50.38L89.1,51a15.8,15.8,0,0,0-2.63-1.89c-2.55-1.47-4.85-1.74-6.61-1-2.07.88-3.39,3.16-3.49,6.54,0,.21,0,.43,0,.65A16.64,16.64,0,0,0,74,53.62c-2.57-1.47-4.88-1.74-6.63-1C65.12,53.61,63.76,56.3,63.93,60.29Z"/><polygon class="cls-76" points="93.19 87.23 102.06 82.15 102.06 65.94 93.19 70.68 93.19 87.23"/><polygon class="cls-77" points="102.06 65.94 94.84 61.68 88.87 68.2 93.19 70.68 102.06 65.94"/><polygon class="cls-78" points="88.87 68.2 97.63 63.33 104.94 55.13 103.6 52.11 88.87 68.2"/><g class="cls-79"><path class="cls-80" d="M156.54,0H11.48V237.4c-2.43,12.36,4.58,25.24,21,34.73,28.51,16.46,74.58,16.46,102.9,0,14.51-8.43,21.54-19.54,21.13-30.59h0Z"/></g><g class="cls-81"><rect class="cls-82" x="137.98" y="167.74" width="1.77" height="61.89"/></g><path class="cls-83" d="M141,166.39a2.49,2.49,0,1,0-.75,3.45A2.5,2.5,0,0,0,141,166.39Z"/><g class="cls-84"><rect class="cls-85" x="33.08" y="145.43" width="1.77" height="61.89"/></g><path class="cls-86" d="M36.06,144.08a2.5,2.5,0,1,0-.75,3.44A2.49,2.49,0,0,0,36.06,144.08Z"/><g class="cls-87"><rect class="cls-88" x="124.45" y="104.66" width="1.77" height="61.89"/></g><path class="cls-89" d="M127.43,103.31a2.5,2.5,0,1,0-.75,3.45A2.49,2.49,0,0,0,127.43,103.31Z"/><g class="cls-90"><rect class="cls-91" x="77.78" y="195.91" width="1.77" height="61.89"/></g><path class="cls-92" d="M80.76,194.56A2.49,2.49,0,1,0,80,198,2.5,2.5,0,0,0,80.76,194.56Z"/><g class="cls-93"><rect class="cls-94" x="52.99" y="68.31" width="1.77" height="61.89"/></g><path class="cls-95" d="M56,67a2.5,2.5,0,1,0-.75,3.45A2.5,2.5,0,0,0,56,67Z"/></g></g></svg>