<?xml version="1.0" encoding="utf-8"?>
<!-- Generator: Adobe Illustrator 23.0.2, SVG Export Plug-In . SVG Version: 6.00 Build 0)  -->
<svg version="1.0" id="Layer_1" xmlns="http://www.w3.org/2000/svg" xmlns:xlink="http://www.w3.org/1999/xlink" x="0px" y="0px"
	 viewBox="0 0 255.12 255.12" style="enable-background:new 0 0 255.12 255.12;" xml:space="preserve">
<style type="text/css">
	.st0{fill:none;stroke:url(#SVGID_1_);stroke-width:2;stroke-linecap:round;stroke-linejoin:round;stroke-miterlimit:10;}
	.st1{fill:none;stroke:url(#SVGID_2_);stroke-width:2;stroke-linecap:round;stroke-linejoin:round;stroke-miterlimit:10;}
	.st2{fill:url(#SVGID_3_);}
	.st3{fill:none;stroke:url(#SVGID_4_);stroke-width:2;stroke-linecap:round;stroke-linejoin:round;stroke-miterlimit:10;}
	.st4{fill:none;stroke:url(#SVGID_5_);stroke-width:2;stroke-linecap:round;stroke-linejoin:round;stroke-miterlimit:10;}
	.st5{fill:none;stroke:url(#SVGID_6_);stroke-width:2;stroke-linecap:round;stroke-linejoin:round;stroke-miterlimit:10;}
	.st6{fill:none;stroke:url(#SVGID_7_);stroke-width:2;stroke-linecap:round;stroke-linejoin:round;stroke-miterlimit:10;}
	.st7{fill:none;stroke:url(#SVGID_8_);stroke-width:2;stroke-linecap:round;stroke-linejoin:round;stroke-miterlimit:10;}
	.st8{fill:none;stroke:url(#SVGID_9_);stroke-width:2;stroke-linecap:round;stroke-linejoin:round;stroke-miterlimit:10;}
	.st9{fill:none;stroke:url(#SVGID_10_);stroke-width:2;stroke-linecap:round;stroke-linejoin:round;stroke-miterlimit:10;}
	.st10{fill:none;stroke:url(#SVGID_11_);stroke-width:2;stroke-linecap:round;stroke-linejoin:round;stroke-miterlimit:10;}
	.st11{fill:none;stroke:url(#SVGID_12_);stroke-width:2;stroke-linecap:round;stroke-linejoin:round;stroke-miterlimit:10;}
	.st12{fill:url(#SVGID_13_);}
	.st13{fill:none;stroke:url(#SVGID_14_);stroke-width:2;stroke-linecap:round;stroke-linejoin:round;stroke-miterlimit:10;}
	.st14{fill:none;stroke:url(#SVGID_15_);stroke-width:2;stroke-linecap:round;stroke-linejoin:round;stroke-miterlimit:10;}
	.st15{fill:none;stroke:url(#SVGID_16_);stroke-width:2;stroke-linecap:round;stroke-linejoin:round;stroke-miterlimit:10;}
	.st16{fill:none;stroke:url(#SVGID_17_);stroke-width:2;stroke-linecap:round;stroke-linejoin:round;stroke-miterlimit:10;}
	.st17{fill:none;stroke:url(#SVGID_18_);stroke-width:2;stroke-linecap:round;stroke-linejoin:round;stroke-miterlimit:10;}
	.st18{fill:none;stroke:url(#SVGID_19_);stroke-width:2;stroke-linecap:round;stroke-linejoin:round;stroke-miterlimit:10;}
	.st19{fill:none;stroke:url(#SVGID_20_);stroke-width:2;stroke-linecap:round;stroke-linejoin:round;stroke-miterlimit:10;}
	.st20{fill:none;stroke:url(#SVGID_21_);stroke-width:2;stroke-linecap:round;stroke-linejoin:round;stroke-miterlimit:10;}
	.st21{fill:none;stroke:url(#SVGID_22_);stroke-width:2;stroke-linecap:round;stroke-linejoin:round;stroke-miterlimit:10;}
	.st22{fill:none;stroke:url(#SVGID_23_);stroke-width:2;stroke-linecap:round;stroke-linejoin:round;stroke-miterlimit:10;}
	.st23{fill:none;stroke:url(#SVGID_24_);stroke-width:2;stroke-linecap:round;stroke-linejoin:round;stroke-miterlimit:10;}
	.st24{fill:none;stroke:url(#SVGID_25_);stroke-width:2;stroke-linecap:round;stroke-linejoin:round;stroke-miterlimit:10;}
	.st25{fill:none;stroke:url(#SVGID_26_);stroke-width:2;stroke-linecap:round;stroke-linejoin:round;stroke-miterlimit:10;}
	.st26{fill:none;stroke:url(#SVGID_27_);stroke-width:2;stroke-linecap:round;stroke-linejoin:round;stroke-miterlimit:10;}
	.st27{fill:none;stroke:url(#SVGID_28_);stroke-width:2;stroke-linecap:round;stroke-linejoin:round;stroke-miterlimit:10;}
</style>
<linearGradient id="SVGID_1_" gradientUnits="userSpaceOnUse" x1="438.5244" y1="800.7477" x2="507.7146" y2="800.7477">
	<stop  offset="0" style="stop-color:#0562A0"/>
	<stop  offset="1" style="stop-color:#3087C8"/>
</linearGradient>
<path class="st0" d="M473.21,771.32c-0.88,0-1.8,0-2.73,0.1h-0.15c-16.91,1.6-30.8,17.65-30.8,35.54c0,20.78,19.3,23.2,33.69,23.2
	c14.28,0,30.94-2.17,33.26-19.23C508.89,790.93,493.01,771.32,473.21,771.32z"/>
<linearGradient id="SVGID_2_" gradientUnits="userSpaceOnUse" x1="454.1586" y1="747.2726" x2="492.2651" y2="747.2726">
	<stop  offset="0" style="stop-color:#0562A0"/>
	<stop  offset="1" style="stop-color:#3087C8"/>
</linearGradient>
<path class="st1" d="M491.1,743.73l-5.16,15.64h-25.47l-5.16-15.64c-0.31-0.77-0.16-1.65,0.31-2.32c0.52-0.67,1.29-1.08,2.11-1.08
	h8.2c1.03-2.99,3.92-5.16,7.27-5.16s6.19,2.17,7.27,5.16h8.2c0.83,0,1.6,0.41,2.11,1.08C491.26,742.08,491.41,742.96,491.1,743.73z"
	/>
<linearGradient id="SVGID_3_" gradientUnits="userSpaceOnUse" x1="465.4258" y1="801.8132" x2="480.8945" y2="801.8132">
	<stop  offset="0" style="stop-color:#0562A0"/>
	<stop  offset="1" style="stop-color:#3087C8"/>
</linearGradient>
<path class="st2" d="M480.89,807.74c0,3.35-2.11,6.14-5.1,7.22v2.32c0,1.44-1.13,2.58-2.58,2.58s-2.58-1.13-2.58-2.58v-2.27
	c-2.99-1.08-5.21-3.92-5.21-7.27c0-1.44,1.19-2.58,2.58-2.58c1.44,0,2.58,1.13,2.58,2.58c0,1.39,1.19,2.58,2.58,2.58h0.05
	c1.44-0.05,2.53-1.19,2.53-2.58c0-1.44-1.08-2.53-2.53-2.58h-0.05c-4.23,0-7.73-3.51-7.73-7.73c0-3.4,2.22-6.24,5.21-7.27v-3.82
	c0-1.44,1.13-2.58,2.58-2.58s2.58,1.13,2.58,2.58v3.82c2.99,1.08,5.1,3.92,5.1,7.27c0,1.39-1.13,2.58-2.58,2.58
	c-1.39,0-2.58-1.19-2.58-2.58c0-1.44-1.08-2.53-2.53-2.58h-0.05c-1.39,0-2.58,1.13-2.58,2.58c0,1.39,1.19,2.58,2.58,2.58h0.05
	C477.49,800.06,480.89,803.46,480.89,807.74z"/>
<linearGradient id="SVGID_4_" gradientUnits="userSpaceOnUse" x1="454.165" y1="765.1257" x2="492.2587" y2="765.1257">
	<stop  offset="0" style="stop-color:#0562A0"/>
	<stop  offset="1" style="stop-color:#3087C8"/>
</linearGradient>
<path class="st3" d="M491.26,765.13c0,2.84-2.32,5.16-5.16,5.16h-25.78c-2.84,0-5.16-2.32-5.16-5.16s2.32-5.16,5.16-5.16h25.78
	C488.94,759.97,491.26,762.29,491.26,765.13z"/>
<linearGradient id="SVGID_5_" gradientUnits="userSpaceOnUse" x1="505.7146" y1="790.7197" x2="543.8083" y2="790.7197">
	<stop  offset="0" style="stop-color:#0562A0"/>
	<stop  offset="1" style="stop-color:#3087C8"/>
</linearGradient>
<path class="st4" d="M542.81,790.72c0,2.84-2.32,5.16-5.16,5.16h-25.78c-2.84,0-5.16-2.32-5.16-5.16s2.32-5.16,5.16-5.16h25.78
	C540.49,785.56,542.81,787.88,542.81,790.72z"/>
<linearGradient id="SVGID_6_" gradientUnits="userSpaceOnUse" x1="505.7146" y1="800.7197" x2="543.8083" y2="800.7197">
	<stop  offset="0" style="stop-color:#0562A0"/>
	<stop  offset="1" style="stop-color:#3087C8"/>
</linearGradient>
<path class="st5" d="M542.81,800.72c0,2.84-2.32,5.16-5.16,5.16h-25.78c-2.84,0-5.16-2.32-5.16-5.16s2.32-5.16,5.16-5.16h25.78
	C540.49,795.56,542.81,797.88,542.81,800.72z"/>
<linearGradient id="SVGID_7_" gradientUnits="userSpaceOnUse" x1="505.7146" y1="810.7197" x2="543.8083" y2="810.7197">
	<stop  offset="0" style="stop-color:#0562A0"/>
	<stop  offset="1" style="stop-color:#3087C8"/>
</linearGradient>
<path class="st6" d="M542.81,810.72c0,2.84-2.32,5.16-5.16,5.16h-25.78c-2.84,0-5.16-2.32-5.16-5.16s2.32-5.16,5.16-5.16h25.78
	C540.49,805.56,542.81,807.88,542.81,810.72z"/>
<linearGradient id="SVGID_8_" gradientUnits="userSpaceOnUse" x1="505.7146" y1="820.7197" x2="543.8083" y2="820.7197">
	<stop  offset="0" style="stop-color:#0562A0"/>
	<stop  offset="1" style="stop-color:#3087C8"/>
</linearGradient>
<path class="st7" d="M542.81,820.72c0,2.84-2.32,5.16-5.16,5.16h-25.78c-2.84,0-5.16-2.32-5.16-5.16s2.32-5.16,5.16-5.16h25.78
	C540.49,815.56,542.81,817.88,542.81,820.72z"/>
<linearGradient id="SVGID_9_" gradientUnits="userSpaceOnUse" x1="99.0356" y1="743.5724" x2="156.0826" y2="743.5724">
	<stop  offset="0" style="stop-color:#0562A0"/>
	<stop  offset="1" style="stop-color:#3087C8"/>
</linearGradient>
<path class="st8" d="M155,750.08l-2.18,5.99c-0.26,0.72-1.05,1.08-1.77,0.83l-7.37-2.68c-0.77,1.14-1.65,2.19-2.64,3.14l3.93,6.8
	c0.02,0.04,0.05,0.09,0.07,0.13c0.28,0.64,0.04,1.39-0.57,1.75l-5.52,3.19c-0.66,0.38-1.5,0.16-1.89-0.5l-3.92-6.79
	c-1.29,0.37-2.65,0.61-4.04,0.71l-1.36,7.73c-0.13,0.75-0.85,1.25-1.6,1.12l-6.28-1.11c-0.75-0.13-1.25-0.85-1.12-1.6l1.36-7.73
	c-1.26-0.56-2.45-1.25-3.55-2.05l-6.01,5.04c-0.58,0.49-1.45,0.41-1.94-0.17l-4.1-4.88c-0.49-0.58-0.41-1.46,0.17-1.95l6.01-5.04
	c-0.6-1.22-1.07-2.51-1.4-3.85h-7.85c-0.76,0-1.38-0.62-1.38-1.38v-6.38c0-0.76,0.62-1.38,1.38-1.38h7.85
	c0.33-1.35,0.8-2.64,1.4-3.85l-6.01-5.04c-0.58-0.49-0.66-1.36-0.17-1.94l4.1-4.89c0.49-0.58,1.36-0.66,1.94-0.17l6.01,5.05
	c1.1-0.81,2.29-1.5,3.55-2.05l-1.36-7.73c-0.13-0.75,0.37-1.47,1.12-1.6l6.28-1.11c0.6-0.1,1.18,0.2,1.46,0.71
	c0.07,0.12,0.12,0.26,0.14,0.41l1.36,7.73c1.39,0.09,2.74,0.33,4.04,0.71l3.92-6.79c0.38-0.66,1.23-0.89,1.89-0.51l5.52,3.19
	c0.66,0.38,0.89,1.23,0.51,1.88l-3.93,6.8c0.99,0.95,1.87,2,2.64,3.14l7.37-2.68c0.72-0.26,1.51,0.11,1.77,0.83l2.18,5.99
	c0.26,0.72-0.11,1.51-0.82,1.77l-7.37,2.68c0.07,0.67,0.11,1.36,0.11,2.05c0,0.69-0.04,1.38-0.11,2.05l7.37,2.68
	C154.89,748.57,155.26,749.36,155,750.08z"/>
<linearGradient id="SVGID_10_" gradientUnits="userSpaceOnUse" x1="90.526" y1="787.5958" x2="164.5921" y2="787.5958">
	<stop  offset="0" style="stop-color:#0562A0"/>
	<stop  offset="1" style="stop-color:#3087C8"/>
</linearGradient>
<path class="st9" d="M161.8,785.69l-30.06,15.47c-4.04,2.61-9.18,2.56-13.15-0.03c-1.87-1.22-2.45-1.34-12.26-6.26
	c-4.36-2.17-8.33-2.85-14.8-3.66v-19.11h21.47c1.33,0,2.61,0.54,3.55,1.5c0.29,0.3-1.96-1.99,9.66,9.8c0.88,0.9,1.32,2.09,1.29,3.27
	l0.21-0.14l31.5-8.05C163.37,777.93,165.24,783.47,161.8,785.69z"/>
<linearGradient id="SVGID_11_" gradientUnits="userSpaceOnUse" x1="108.8504" y1="781.4628" x2="146.2677" y2="781.4628">
	<stop  offset="0" style="stop-color:#0562A0"/>
	<stop  offset="1" style="stop-color:#3087C8"/>
</linearGradient>
<path class="st10" d="M144.12,789.51c-1.63,1.74-4.32,1.77-5.98,0.05l-7.91-8.15c-0.42-0.44-0.99-0.68-1.59-0.68h-18.79v-8.64h21.14
	c1.31,0,2.57,0.54,3.5,1.49c0.29,0.3-1.93-1.99,9.51,9.8C145.61,785.05,145.73,787.79,144.12,789.51z"/>
<linearGradient id="SVGID_12_" gradientUnits="userSpaceOnUse" x1="118.6347" y1="783.3754" x2="136.4834" y2="783.3754">
	<stop  offset="0" style="stop-color:#0562A0"/>
	<stop  offset="1" style="stop-color:#3087C8"/>
</linearGradient>
<path class="st11" d="M135.48,771.56v23.63c0,0.34-0.03,0.67-0.09,0.98c0,0,0,0,0,0c-0.47,2.5-2.67,4.41-5.3,4.41h-5.06
	c-2.97,0-5.39-2.43-5.39-5.39v-23.63c0-2.64,1.93-4.86,4.45-5.31c0.31-0.06,0.63-0.09,0.95-0.09h5.06
	C133.06,766.17,135.48,768.59,135.48,771.56z"/>
<linearGradient id="SVGID_13_" gradientUnits="userSpaceOnUse" x1="114.6437" y1="743.5726" x2="140.4744" y2="743.5726">
	<stop  offset="0" style="stop-color:#0562A0"/>
	<stop  offset="1" style="stop-color:#3087C8"/>
</linearGradient>
<path class="st12" d="M140.08,736.79l-14.51,14.51l-0.61,0.61c-0.46,0.46-1.08,0.72-1.73,0.72c-0.66,0-1.27-0.26-1.73-0.72
	l-6.46-6.46c-0.52-0.52-0.52-1.36,0-1.88s1.36-0.52,1.88,0l6.31,6.31l0.96-0.96l14.02-14.02c0.52-0.52,1.36-0.52,1.88,0
	C140.6,735.42,140.6,736.27,140.08,736.79z"/>
<linearGradient id="SVGID_14_" gradientUnits="userSpaceOnUse" x1="123.3686" y1="792.0859" x2="131.7495" y2="792.0859">
	<stop  offset="0" style="stop-color:#0562A0"/>
	<stop  offset="1" style="stop-color:#3087C8"/>
</linearGradient>
<path class="st13" d="M130.75,792.09c0,1.76-1.43,3.19-3.19,3.19s-3.19-1.43-3.19-3.19s1.43-3.19,3.19-3.19
	S130.75,790.32,130.75,792.09z"/>
<g>
	<linearGradient id="SVGID_15_" gradientUnits="userSpaceOnUse" x1="47.8721" y1="146.7065" x2="253.2835" y2="146.7065">
		<stop  offset="0" style="stop-color:#0562A0"/>
		<stop  offset="1" style="stop-color:#3087C8"/>
	</linearGradient>
	<circle class="st14" cx="150.58" cy="146.71" r="101.71"/>
	<g>
		<g>
			<linearGradient id="SVGID_16_" gradientUnits="userSpaceOnUse" x1="79.9687" y1="97.6938" x2="88.7598" y2="97.6938">
				<stop  offset="0" style="stop-color:#0562A0"/>
				<stop  offset="1" style="stop-color:#3087C8"/>
			</linearGradient>
			<path class="st15" d="M84.39,101.2c4.5,0,4.5-7.01,0-7.01C79.83,94.19,79.83,101.2,84.39,101.2L84.39,101.2z"/>
		</g>
	</g>
	<g>
		<g>
			<linearGradient id="SVGID_17_" gradientUnits="userSpaceOnUse" x1="88.2056" y1="208.2206" x2="96.9967" y2="208.2206">
				<stop  offset="0" style="stop-color:#0562A0"/>
				<stop  offset="1" style="stop-color:#3087C8"/>
			</linearGradient>
			<path class="st16" d="M92.62,211.73c4.5,0,4.5-7.01,0-7.01C88.07,204.72,88.07,211.73,92.62,211.73L92.62,211.73z"/>
		</g>
	</g>
	<g>
		<g>
			<linearGradient id="SVGID_18_" gradientUnits="userSpaceOnUse" x1="208.3568" y1="101.1404" x2="217.1041" y2="101.1404">
				<stop  offset="0" style="stop-color:#0562A0"/>
				<stop  offset="1" style="stop-color:#3087C8"/>
			</linearGradient>
			<path class="st17" d="M212.73,104.65c4.5,0,4.5-7.01,0-7.01S208.23,104.65,212.73,104.65L212.73,104.65z"/>
		</g>
	</g>
	<g>
		<g>
			<linearGradient id="SVGID_19_" gradientUnits="userSpaceOnUse" x1="192.5401" y1="208.2206" x2="201.3312" y2="208.2206">
				<stop  offset="0" style="stop-color:#0562A0"/>
				<stop  offset="1" style="stop-color:#3087C8"/>
			</linearGradient>
			<path class="st18" d="M196.96,211.73c4.5,0,4.5-7.01,0-7.01C192.4,204.72,192.4,211.73,196.96,211.73L196.96,211.73z"/>
		</g>
	</g>
	<linearGradient id="SVGID_20_" gradientUnits="userSpaceOnUse" x1="122.7598" y1="125.4131" x2="150.5222" y2="125.4131">
		<stop  offset="0" style="stop-color:#0562A0"/>
		<stop  offset="1" style="stop-color:#3087C8"/>
	</linearGradient>
	<polyline class="st19" points="149.52,104.12 149.52,146.71 123.76,146.71 	"/>
	<linearGradient id="SVGID_21_" gradientUnits="userSpaceOnUse" x1="31.6278" y1="146.7065" x2="48.466" y2="146.7065">
		<stop  offset="0" style="stop-color:#0562A0"/>
		<stop  offset="1" style="stop-color:#3087C8"/>
	</linearGradient>
	<line class="st20" x1="47.47" y1="146.71" x2="32.63" y2="146.71"/>
	<g>
		<linearGradient id="SVGID_22_" gradientUnits="userSpaceOnUse" x1="20.0026" y1="117.439" x2="51.9126" y2="117.439">
			<stop  offset="0" style="stop-color:#0562A0"/>
			<stop  offset="1" style="stop-color:#3087C8"/>
		</linearGradient>
		<line class="st21" x1="50.91" y1="117.44" x2="21" y2="117.44"/>
		<linearGradient id="SVGID_23_" gradientUnits="userSpaceOnUse" x1="1.8346" y1="117.439" x2="11.8379" y2="117.439">
			<stop  offset="0" style="stop-color:#0562A0"/>
			<stop  offset="1" style="stop-color:#3087C8"/>
		</linearGradient>
		<line class="st22" x1="10.84" y1="117.44" x2="2.83" y2="117.44"/>
	</g>
	<linearGradient id="SVGID_24_" gradientUnits="userSpaceOnUse" x1="148.1717" y1="25.8534" x2="150.1717" y2="25.8534">
		<stop  offset="0" style="stop-color:#0562A0"/>
		<stop  offset="1" style="stop-color:#3087C8"/>
	</linearGradient>
	<line class="st23" x1="149.17" y1="45" x2="149.17" y2="6.71"/>
	<linearGradient id="SVGID_25_" gradientUnits="userSpaceOnUse" x1="148.1717" y1="64.8629" x2="150.1717" y2="64.8629">
		<stop  offset="0" style="stop-color:#0562A0"/>
		<stop  offset="1" style="stop-color:#3087C8"/>
	</linearGradient>
	<line class="st24" x1="149.17" y1="60.66" x2="149.17" y2="69.07"/>
	<linearGradient id="SVGID_26_" gradientUnits="userSpaceOnUse" x1="148.1717" y1="227.849" x2="150.1717" y2="227.849">
		<stop  offset="0" style="stop-color:#0562A0"/>
		<stop  offset="1" style="stop-color:#3087C8"/>
	</linearGradient>
	<line class="st25" x1="149.17" y1="223.64" x2="149.17" y2="232.06"/>
	<linearGradient id="SVGID_27_" gradientUnits="userSpaceOnUse" x1="63.7577" y1="146.7065" x2="65.7577" y2="146.7065">
		<stop  offset="0" style="stop-color:#0562A0"/>
		<stop  offset="1" style="stop-color:#3087C8"/>
	</linearGradient>
	<line class="st26" x1="64.76" y1="142.5" x2="64.76" y2="150.91"/>
	<linearGradient id="SVGID_28_" gradientUnits="userSpaceOnUse" x1="229.4311" y1="146.7065" x2="231.4311" y2="146.7065">
		<stop  offset="0" style="stop-color:#0562A0"/>
		<stop  offset="1" style="stop-color:#3087C8"/>
	</linearGradient>
	<line class="st27" x1="230.43" y1="142.5" x2="230.43" y2="150.91"/>
</g>
</svg>
