<svg id="Layer_1" data-name="Layer 1" xmlns="http://www.w3.org/2000/svg" xmlns:xlink="http://www.w3.org/1999/xlink" viewBox="0 0 339.96 326.82"><defs><style>.cls-1{fill:url(#Gradiente_sem_nome_69);}.cls-2,.cls-3{fill:none;stroke:#fff;stroke-miterlimit:10;stroke-width:2.5px;}.cls-3{stroke-dasharray:2.96 3.94;}.cls-4{fill:#a1a7ff;}.cls-5{fill:#12348e;}.cls-6{fill:#fff;}.cls-7{fill:#fa3e6a;}.cls-8{fill:url(#linear-gradient);}.cls-9{fill:#ffb91f;}</style><linearGradient id="Gradiente_sem_nome_69" y1="313.27" x2="339.96" y2="313.27" gradientUnits="userSpaceOnUse"><stop offset="0.16" stop-color="#e08197"/><stop offset="1" stop-color="#e08197" stop-opacity="0"/></linearGradient><linearGradient id="linear-gradient" x1="286.1" y1="317.96" x2="286.1" y2="299.14" gradientUnits="userSpaceOnUse"><stop offset="0" stop-color="#00033c"/><stop offset="1" stop-color="#21578e"/></linearGradient></defs><title>Transform to Serverless Microservices </title><path class="cls-1" d="M340,313.27c0,7.48-76.1,13.55-170,13.55S0,320.75,0,313.27s76.1-13.56,170-13.56S340,305.78,340,313.27Z"/><line class="cls-2" x1="168.21" y1="45.06" x2="168.21" y2="46.55"/><line class="cls-3" x1="168.21" y1="50.49" x2="168.21" y2="241.77"/><line class="cls-2" x1="168.21" y1="243.74" x2="168.21" y2="245.22"/><rect class="cls-4" x="137.96" y="286.59" width="58.07" height="28.3"/><rect class="cls-5" x="130.57" y="308.45" width="72.87" height="9.64"/><rect class="cls-5" x="76.76" y="157.55" width="180.49" height="130.39"/><rect class="cls-4" x="76.76" y="164" width="180.49" height="117.5"/><polygon class="cls-6" points="161.07 195.16 121.09 195.16 121.09 188.26 156.4 188.26 161.07 195.16"/><rect class="cls-6" x="121.09" y="194.57" width="96.27" height="67.12"/><rect class="cls-5" x="10.98" y="179.91" width="90.19" height="134.59"/><rect class="cls-4" x="16.56" y="185.71" width="79.02" height="27.26"/><path class="cls-7" d="M33.84,199.34a6.57,6.57,0,1,1-6.57-6.56A6.56,6.56,0,0,1,33.84,199.34Z"/><path class="cls-7" d="M50.81,199.34a6.57,6.57,0,1,1-6.56-6.56A6.56,6.56,0,0,1,50.81,199.34Z"/><rect class="cls-7" x="55.62" y="197.72" width="31.92" height="3.51"/><rect class="cls-7" x="55.62" y="190.88" width="31.92" height="3.51"/><rect class="cls-7" x="55.62" y="204.62" width="31.92" height="3.51"/><rect class="cls-4" x="16.56" y="217.37" width="79.02" height="27.26"/><path class="cls-7" d="M33.84,231a6.57,6.57,0,1,1-6.57-6.56A6.57,6.57,0,0,1,33.84,231Z"/><path class="cls-7" d="M50.81,231a6.57,6.57,0,1,1-6.56-6.56A6.57,6.57,0,0,1,50.81,231Z"/><rect class="cls-7" x="55.62" y="229.38" width="31.92" height="3.51"/><rect class="cls-7" x="55.62" y="222.54" width="31.92" height="3.51"/><rect class="cls-7" x="55.62" y="236.28" width="31.92" height="3.51"/><rect class="cls-4" x="16.56" y="249.04" width="79.02" height="27.26"/><path class="cls-7" d="M33.84,262.66a6.57,6.57,0,1,1-6.57-6.56A6.57,6.57,0,0,1,33.84,262.66Z"/><path class="cls-7" d="M50.81,262.66a6.57,6.57,0,1,1-6.56-6.56A6.57,6.57,0,0,1,50.81,262.66Z"/><rect class="cls-7" x="55.62" y="261.04" width="31.92" height="3.51"/><rect class="cls-7" x="55.62" y="254.21" width="31.92" height="3.51"/><rect class="cls-7" x="55.62" y="267.94" width="31.92" height="3.51"/><rect class="cls-4" x="16.56" y="280.7" width="79.02" height="27.26"/><path class="cls-7" d="M33.84,294.33a6.57,6.57,0,1,1-6.57-6.57A6.57,6.57,0,0,1,33.84,294.33Z"/><path class="cls-7" d="M50.81,294.33a6.57,6.57,0,1,1-6.56-6.57A6.56,6.56,0,0,1,50.81,294.33Z"/><rect class="cls-7" x="55.62" y="292.71" width="31.92" height="3.51"/><rect class="cls-7" x="55.62" y="285.87" width="31.92" height="3.51"/><rect class="cls-7" x="55.62" y="299.61" width="31.92" height="3.51"/><rect class="cls-5" x="280.75" y="204.68" width="9.12" height="107.76"/><rect class="cls-8" x="244.39" y="303.33" width="83.44" height="9.12"/><rect class="cls-5" x="236.26" y="194.87" width="99.68" height="25.99"/><rect class="cls-5" x="236.26" y="227.93" width="99.68" height="25.99"/><rect class="cls-5" x="236.26" y="263.72" width="99.68" height="25.99"/><rect class="cls-9" x="245.32" y="200.35" width="19.88" height="13.63"/><rect class="cls-4" x="288.41" y="205.32" width="11.83" height="5.66"/><rect class="cls-4" x="302.91" y="205.32" width="11.83" height="5.66"/><rect class="cls-4" x="317.41" y="205.32" width="11.83" height="5.66"/><path class="cls-4" d="M283.37,207.48a5.21,5.21,0,1,1-5.21-5.21A5.2,5.2,0,0,1,283.37,207.48Z"/><rect class="cls-4" x="274.99" y="300.76" width="19.66" height="13.68"/><rect class="cls-9" x="245.32" y="234.6" width="19.88" height="13.63"/><rect class="cls-4" x="288.41" y="239.56" width="11.83" height="5.66"/><rect class="cls-4" x="302.91" y="239.56" width="11.83" height="5.66"/><rect class="cls-4" x="317.41" y="239.56" width="11.83" height="5.66"/><path class="cls-4" d="M283.37,241.72a5.21,5.21,0,1,1-5.21-5.21A5.21,5.21,0,0,1,283.37,241.72Z"/><rect class="cls-9" x="245.32" y="269.9" width="19.88" height="13.63"/><rect class="cls-4" x="288.41" y="274.87" width="11.83" height="5.66"/><rect class="cls-4" x="302.91" y="274.87" width="11.83" height="5.66"/><rect class="cls-4" x="317.41" y="274.87" width="11.83" height="5.66"/><path class="cls-4" d="M283.37,277a5.21,5.21,0,1,1-5.21-5.2A5.21,5.21,0,0,1,283.37,277Z"/><path class="cls-5" d="M284,78.5a34.92,34.92,0,0,0-34.86-33.23c-1.11,0-2.19.06-3.27.16A38,38,0,0,0,202,23.92a45.27,45.27,0,0,0-84.74,15A42.22,42.22,0,0,0,66.11,78.5Z"/></svg>