<svg xmlns="http://www.w3.org/2000/svg" xmlns:xlink="http://www.w3.org/1999/xlink" viewBox="0 0 294.19 204.07"><defs><style>.cls-1,.cls-3,.cls-72,.cls-76{fill:none;}.cls-2{isolation:isolate;}.cls-3{stroke:#d3eefb;stroke-width:1.08px;}.cls-3,.cls-72,.cls-76{stroke-miterlimit:10;}.cls-4{fill:url(#linear-gradient);}.cls-5{fill:url(#linear-gradient-2);}.cls-6{fill:#e1edf9;}.cls-7{fill:#fed1a4;}.cls-8{fill:#1d1750;}.cls-9{fill:#cadcea;}.cls-10{fill:#efbe9a;}.cls-11{fill:#13426f;}.cls-12{fill:#160e42;}.cls-13{fill:#181348;}.cls-14{fill:#e4ad7e;}.cls-15{fill:#f0b987;}.cls-16{fill:#ee9e21;}.cls-17{fill:#e96258;}.cls-18{fill:url(#linear-gradient-3);}.cls-19{fill:url(#linear-gradient-4);}.cls-20{fill:url(#linear-gradient-5);}.cls-21{fill:url(#linear-gradient-6);}.cls-22{fill:url(#linear-gradient-7);}.cls-23{fill:url(#linear-gradient-8);}.cls-24{fill:url(#linear-gradient-9);}.cls-25{fill:url(#linear-gradient-10);}.cls-26{fill:url(#linear-gradient-11);}.cls-27{fill:url(#linear-gradient-12);}.cls-28{fill:url(#linear-gradient-13);}.cls-29{fill:url(#linear-gradient-14);}.cls-30{fill:url(#linear-gradient-15);}.cls-31{fill:url(#linear-gradient-16);}.cls-32{fill:url(#linear-gradient-17);}.cls-33{fill:url(#linear-gradient-18);}.cls-34{fill:url(#linear-gradient-19);}.cls-35{fill:url(#linear-gradient-20);}.cls-36{fill:#f3cbb0;}.cls-37{fill:url(#linear-gradient-21);}.cls-38{fill:#3a3392;}.cls-39{fill:url(#linear-gradient-22);}.cls-40{fill:url(#linear-gradient-23);}.cls-41{fill:url(#linear-gradient-24);}.cls-42{fill:#b3dff7;}.cls-43{fill:url(#linear-gradient-25);}.cls-44{fill:url(#linear-gradient-26);}.cls-45{fill:url(#linear-gradient-27);}.cls-46{fill:url(#linear-gradient-28);}.cls-47{opacity:0.6;}.cls-48{fill:url(#linear-gradient-29);}.cls-49{fill:url(#linear-gradient-30);}.cls-50,.cls-51,.cls-59,.cls-60{opacity:0.28;}.cls-50{fill:url(#linear-gradient-31);}.cls-51{fill:url(#linear-gradient-32);}.cls-52{fill:#d1daef;}.cls-53{fill:#2d338c;}.cls-54{fill:url(#linear-gradient-33);}.cls-55{fill:url(#linear-gradient-34);}.cls-56{fill:url(#linear-gradient-35);}.cls-57{fill:#80b9e4;}.cls-58,.cls-64{opacity:0.83;mix-blend-mode:color-dodge;}.cls-58{fill:url(#Fading_Sky_2);}.cls-59{fill:url(#linear-gradient-36);}.cls-60{fill:url(#linear-gradient-37);}.cls-61{fill:url(#linear-gradient-38);}.cls-62{fill:url(#linear-gradient-39);}.cls-63{fill:url(#linear-gradient-40);}.cls-64{fill:url(#Fading_Sky_2-2);}.cls-65{fill:url(#linear-gradient-41);}.cls-66{fill:url(#linear-gradient-42);}.cls-67{fill:url(#linear-gradient-43);}.cls-68{fill:url(#linear-gradient-44);}.cls-69{fill:url(#linear-gradient-45);}.cls-70{fill:url(#linear-gradient-46);}.cls-71{fill:url(#linear-gradient-47);}.cls-72{stroke:#fff;stroke-linecap:round;stroke-width:0.98px;}.cls-73{fill:#72b9d6;}.cls-74{fill:#f7fbfe;}.cls-75{fill:url(#linear-gradient-48);}.cls-76{stroke:#f7fbfe;stroke-width:0.09px;}.cls-77{fill:#584747;}.cls-78{fill:#231e5d;}.cls-79{fill:url(#linear-gradient-49);}.cls-80{fill:url(#linear-gradient-50);}.cls-81{fill:#ffe0bc;}.cls-82{fill:url(#linear-gradient-51);}.cls-83{fill:#f2bc8a;}.cls-84{fill:#1c2134;}.cls-85{fill:url(#linear-gradient-52);}.cls-86{fill:url(#linear-gradient-53);}.cls-87{fill:url(#linear-gradient-54);}.cls-88{fill:url(#linear-gradient-55);}.cls-89{fill:url(#linear-gradient-56);}.cls-90{fill:url(#linear-gradient-57);}.cls-91{clip-path:url(#clip-path);}.cls-92{fill:#145784;}.cls-93{clip-path:url(#clip-path-2);}.cls-94{clip-path:url(#clip-path-3);}.cls-95{fill:url(#linear-gradient-58);}.cls-96{fill:url(#linear-gradient-59);}.cls-97{fill:#145481;}.cls-98{fill:url(#linear-gradient-60);}.cls-99{fill:url(#linear-gradient-61);}.cls-100{fill:url(#linear-gradient-62);}.cls-101{fill:url(#linear-gradient-63);}.cls-102{fill:url(#linear-gradient-64);}.cls-103{fill:url(#linear-gradient-65);}.cls-104{fill:url(#linear-gradient-66);}.cls-105{fill:url(#linear-gradient-67);}.cls-106{fill:url(#linear-gradient-68);}.cls-107{fill:url(#linear-gradient-69);}.cls-108{fill:url(#linear-gradient-70);}.cls-109{fill:url(#linear-gradient-71);}.cls-110{fill:url(#linear-gradient-72);}.cls-111{fill:url(#linear-gradient-73);}.cls-112{fill:url(#linear-gradient-74);}.cls-113{clip-path:url(#clip-path-4);}.cls-114{fill:url(#linear-gradient-75);}.cls-115{fill:url(#linear-gradient-76);}.cls-116{fill:url(#linear-gradient-77);}.cls-117{fill:url(#linear-gradient-78);}.cls-118{fill:url(#linear-gradient-79);}.cls-119{fill:url(#linear-gradient-80);}.cls-120{fill:url(#linear-gradient-81);}.cls-121{fill:url(#linear-gradient-82);}.cls-122{fill:url(#linear-gradient-83);}.cls-123{fill:url(#linear-gradient-84);}.cls-124{fill:url(#linear-gradient-85);}.cls-125{fill:url(#linear-gradient-86);}.cls-126{fill:url(#linear-gradient-87);}.cls-127{fill:url(#linear-gradient-88);}.cls-128{fill:url(#linear-gradient-89);}.cls-129{fill:url(#linear-gradient-90);}.cls-130{fill:url(#linear-gradient-91);}.cls-131{fill:url(#linear-gradient-92);}.cls-132{fill:url(#linear-gradient-93);}.cls-133{fill:url(#linear-gradient-94);}.cls-134{fill:url(#linear-gradient-95);}.cls-135{fill:url(#linear-gradient-96);}.cls-136{fill:url(#linear-gradient-97);}.cls-137{fill:url(#linear-gradient-98);}.cls-138{fill:url(#linear-gradient-99);}.cls-139{fill:url(#linear-gradient-100);}.cls-140{fill:url(#linear-gradient-101);}.cls-141{fill:url(#linear-gradient-102);}.cls-142{fill:url(#linear-gradient-103);}.cls-143{fill:url(#linear-gradient-104);}.cls-144{fill:url(#linear-gradient-105);}.cls-145{fill:url(#linear-gradient-106);}.cls-146{fill:url(#linear-gradient-107);}.cls-147{fill:url(#linear-gradient-108);}.cls-148{fill:url(#linear-gradient-109);}.cls-149{fill:url(#linear-gradient-110);}.cls-150{fill:url(#linear-gradient-111);}.cls-151{fill:url(#linear-gradient-112);}.cls-152{fill:url(#linear-gradient-113);}.cls-153{fill:url(#linear-gradient-114);}.cls-154{fill:url(#linear-gradient-115);}.cls-155{fill:url(#linear-gradient-116);}.cls-156{clip-path:url(#clip-path-5);}.cls-157{fill:url(#linear-gradient-117);}</style><linearGradient id="linear-gradient" x1="1451.3" y1="61.94" x2="1477.53" y2="61.94" gradientTransform="matrix(-1, 0, 0, 1, 1564.19, 0)" gradientUnits="userSpaceOnUse"><stop offset="0" stop-color="#0b62a3"/><stop offset="1" stop-color="#3189c9"/></linearGradient><linearGradient id="linear-gradient-2" x1="1464.11" y1="24.23" x2="1473.08" y2="53.92" gradientTransform="matrix(-1, 0, 0, 1, 1564.19, 0)" gradientUnits="userSpaceOnUse"><stop offset="0" stop-color="#32c5f4"/><stop offset="0.29" stop-color="#33a5dd"/><stop offset="1" stop-color="#3657a7"/></linearGradient><linearGradient id="linear-gradient-3" x1="114.34" y1="77.78" x2="122.44" y2="77.78" gradientUnits="userSpaceOnUse"><stop offset="0" stop-color="#62cbe5"/><stop offset="0.35" stop-color="#529fcd"/><stop offset="1" stop-color="#3751a3"/></linearGradient><linearGradient id="linear-gradient-4" x1="231.46" y1="43.45" x2="290.16" y2="43.45" gradientTransform="matrix(1, 0, 0, 1, 0, 0)" xlink:href="#linear-gradient"/><linearGradient id="linear-gradient-5" x1="235.16" y1="29.67" x2="291.64" y2="29.67" gradientTransform="matrix(1, 0, 0, 1, 0, 0)" xlink:href="#linear-gradient"/><linearGradient id="linear-gradient-6" x1="284.17" y1="44.47" x2="279.86" y2="40.03" gradientUnits="userSpaceOnUse"><stop offset="0" stop-color="#3264af" stop-opacity="0"/><stop offset="0.54" stop-color="#3264af" stop-opacity="0.55"/><stop offset="1" stop-color="#3264af"/></linearGradient><linearGradient id="linear-gradient-7" x1="273.73" y1="31.23" x2="270.3" y2="27.7" xlink:href="#linear-gradient-6"/><linearGradient id="linear-gradient-8" x1="130.67" y1="96.72" x2="283.74" y2="96.72" gradientTransform="matrix(1, 0, 0, 1, 0, 0)" xlink:href="#linear-gradient"/><linearGradient id="linear-gradient-9" x1="146.99" y1="61.25" x2="202.35" y2="61.25" gradientTransform="matrix(1, 0, 0, 1, 0, 0)" xlink:href="#linear-gradient"/><linearGradient id="linear-gradient-10" x1="188.58" y1="88.52" x2="210.18" y2="88.52" gradientTransform="matrix(1, 0, 0, 1, 0, 0)" xlink:href="#linear-gradient"/><linearGradient id="linear-gradient-11" x1="210.13" y1="89.92" x2="226.46" y2="89.92" gradientTransform="matrix(1, 0, 0, 1, 0, 0)" xlink:href="#linear-gradient"/><linearGradient id="linear-gradient-12" x1="226.46" y1="84.96" x2="257.56" y2="84.96" gradientTransform="matrix(1, 0, 0, 1, 0, 0)" xlink:href="#linear-gradient"/><linearGradient id="linear-gradient-13" x1="9.2" y1="142.85" x2="153.79" y2="142.85" gradientTransform="matrix(1, 0, 0, 1, 0, 0)" xlink:href="#linear-gradient"/><linearGradient id="linear-gradient-14" x1="53.45" y1="104.66" x2="84.53" y2="104.66" gradientTransform="matrix(1, 0, 0, 1, 0, 0)" xlink:href="#linear-gradient"/><linearGradient id="linear-gradient-15" x1="9.2" y1="130.97" x2="60.41" y2="130.97" gradientTransform="matrix(1, 0, 0, 1, 0, 0)" xlink:href="#linear-gradient"/><linearGradient id="linear-gradient-16" x1="60.41" y1="147.16" x2="74.56" y2="147.16" gradientTransform="matrix(1, 0, 0, 1, 0, 0)" xlink:href="#linear-gradient"/><linearGradient id="linear-gradient-17" x1="80.59" y1="169.38" x2="103.52" y2="169.38" gradientTransform="matrix(1, 0, 0, 1, 0, 0)" xlink:href="#linear-gradient"/><linearGradient id="linear-gradient-18" x1="85.42" y1="169.12" x2="99.7" y2="169.12" gradientTransform="matrix(1, 0, 0, 1, 0, 0)" xlink:href="#linear-gradient"/><linearGradient id="linear-gradient-19" x1="79.64" y1="195.79" x2="83.13" y2="195.79" gradientUnits="userSpaceOnUse"><stop offset="0" stop-color="#283577"/><stop offset="1" stop-color="#262964"/></linearGradient><linearGradient id="linear-gradient-20" x1="84.5" y1="198.79" x2="89.11" y2="198.79" xlink:href="#linear-gradient-19"/><linearGradient id="linear-gradient-21" x1="82.27" y1="162.62" x2="86.78" y2="162.62" xlink:href="#linear-gradient-19"/><linearGradient id="linear-gradient-22" x1="79.77" y1="172.74" x2="90.17" y2="172.74" gradientTransform="matrix(1, 0, 0, 1, 0, 0)" xlink:href="#linear-gradient"/><linearGradient id="linear-gradient-23" x1="86.4" y1="173.91" x2="88.49" y2="173.91" gradientTransform="matrix(1, 0, 0, 1, 0, 0)" xlink:href="#linear-gradient"/><linearGradient id="linear-gradient-24" x1="87.32" y1="173.17" x2="93.81" y2="173.17" gradientTransform="matrix(1, 0, 0, 1, 0, 0)" xlink:href="#linear-gradient"/><linearGradient id="linear-gradient-25" x1="12.19" y1="122.3" x2="21.78" y2="122.3" gradientUnits="userSpaceOnUse"><stop offset="0" stop-color="#3264af"/><stop offset="1" stop-color="#283577"/></linearGradient><linearGradient id="linear-gradient-26" x1="12.19" y1="130.83" x2="21.74" y2="130.83" xlink:href="#linear-gradient-19"/><linearGradient id="linear-gradient-27" x1="195.87" y1="125.11" x2="245.5" y2="125.11" xlink:href="#linear-gradient-25"/><linearGradient id="linear-gradient-28" x1="197.4" y1="124.85" x2="243.97" y2="124.85" gradientTransform="matrix(1, 0, 0, 1, 0, 0)" xlink:href="#linear-gradient"/><linearGradient id="linear-gradient-29" x1="27.8" y1="127.35" x2="37.38" y2="127.35" xlink:href="#linear-gradient-25"/><linearGradient id="linear-gradient-30" x1="43.6" y1="138.13" x2="53.19" y2="138.13" xlink:href="#linear-gradient-25"/><linearGradient id="linear-gradient-31" x1="47.42" y1="158.91" x2="47.67" y2="158.91" gradientUnits="userSpaceOnUse"><stop offset="0" stop-color="#9492c7"/><stop offset="0.03" stop-color="#8e8cc3"/><stop offset="0.21" stop-color="#6c6baf"/><stop offset="0.4" stop-color="#51519f"/><stop offset="0.59" stop-color="#3e3f93"/><stop offset="0.79" stop-color="#33348c"/><stop offset="1" stop-color="#2f308a"/></linearGradient><linearGradient id="linear-gradient-32" x1="51.55" y1="162.04" x2="53.12" y2="162.04" xlink:href="#linear-gradient-31"/><linearGradient id="linear-gradient-33" x1="53.31" y1="158.78" x2="47.8" y2="158.78" xlink:href="#linear-gradient-31"/><linearGradient id="linear-gradient-34" x1="53.31" y1="158.79" x2="47.8" y2="158.79" gradientTransform="matrix(1, 0, 0, 1, 0, 0)" xlink:href="#linear-gradient"/><linearGradient id="linear-gradient-35" x1="47.79" y1="159.26" x2="53.4" y2="159.26" gradientTransform="matrix(1, 0, 0, 1, 0, 0)" xlink:href="#linear-gradient"/><linearGradient id="Fading_Sky_2" x1="46.1" y1="155.41" x2="53.76" y2="155.41" gradientUnits="userSpaceOnUse"><stop offset="0" stop-color="#2581c1"/><stop offset="1" stop-color="#2581c1" stop-opacity="0"/></linearGradient><linearGradient id="linear-gradient-36" x1="170.63" y1="136.88" x2="170.88" y2="136.88" xlink:href="#linear-gradient-31"/><linearGradient id="linear-gradient-37" x1="174.76" y1="140.02" x2="176.32" y2="140.02" xlink:href="#linear-gradient-31"/><linearGradient id="linear-gradient-38" x1="176.52" y1="136.76" x2="171.01" y2="136.76" xlink:href="#linear-gradient-31"/><linearGradient id="linear-gradient-39" x1="176.52" y1="136.76" x2="171.01" y2="136.76" gradientTransform="matrix(1, 0, 0, 1, 0, 0)" xlink:href="#linear-gradient"/><linearGradient id="linear-gradient-40" x1="171" y1="137.23" x2="176.61" y2="137.23" gradientTransform="matrix(1, 0, 0, 1, 0, 0)" xlink:href="#linear-gradient"/><linearGradient id="Fading_Sky_2-2" x1="169.31" y1="133.39" x2="176.97" y2="133.39" xlink:href="#Fading_Sky_2"/><linearGradient id="linear-gradient-41" x1="68.63" y1="134.84" x2="66.2" y2="142.37" xlink:href="#linear-gradient-25"/><linearGradient id="linear-gradient-42" x1="63.43" y1="139.73" x2="72.01" y2="139.73" gradientTransform="matrix(1, 0, 0, 1, 0, 0)" xlink:href="#linear-gradient"/><linearGradient id="linear-gradient-43" x1="63.91" y1="139.73" x2="71.53" y2="139.73" gradientTransform="matrix(1, 0, 0, 1, 0, 0)" xlink:href="#linear-gradient"/><linearGradient id="linear-gradient-44" x1="65.72" y1="138.61" x2="68.23" y2="140.64" xlink:href="#linear-gradient-25"/><linearGradient id="linear-gradient-45" x1="66.22" y1="137.99" x2="68.73" y2="140.03" xlink:href="#linear-gradient-25"/><linearGradient id="linear-gradient-46" x1="66.7" y1="137.4" x2="69.21" y2="139.44" xlink:href="#linear-gradient-25"/><linearGradient id="linear-gradient-47" x1="252.57" y1="106.76" x2="281.88" y2="106.76" xlink:href="#linear-gradient-19"/><linearGradient id="linear-gradient-48" x1="274.62" y1="-15.23" x2="281.53" y2="-18.98" gradientTransform="translate(-1.74 162.56) rotate(-7.37)" gradientUnits="userSpaceOnUse"><stop offset="0" stop-color="#3264af"/><stop offset="0.81" stop-color="#32b2e6"/><stop offset="1" stop-color="#32c5f4"/></linearGradient><linearGradient id="linear-gradient-49" x1="81.87" y1="121.31" x2="88.59" y2="117.61" gradientTransform="matrix(1, 0, 0, 1, 0, 0)" xlink:href="#linear-gradient"/><linearGradient id="linear-gradient-50" x1="79.56" y1="122.64" x2="85.96" y2="118.85" gradientTransform="matrix(1, 0, 0, 1, 0, 0)" xlink:href="#linear-gradient"/><linearGradient id="linear-gradient-51" x1="82.06" y1="114.14" x2="84.43" y2="114.14" xlink:href="#linear-gradient-3"/><linearGradient id="linear-gradient-52" x1="83.37" y1="118.45" x2="91.8" y2="118.45" gradientTransform="matrix(1, 0, 0, 1, 0, 0)" xlink:href="#linear-gradient"/><linearGradient id="linear-gradient-53" x1="83.62" y1="118.54" x2="91.85" y2="118.54" xlink:href="#linear-gradient-3"/><linearGradient id="linear-gradient-54" x1="77.78" y1="113.65" x2="83.57" y2="113.65" xlink:href="#linear-gradient-3"/><linearGradient id="linear-gradient-55" x1="174.44" y1="171.2" x2="194.67" y2="171.2" gradientTransform="matrix(1, 0, 0, 1, 0, 0)" xlink:href="#linear-gradient"/><linearGradient id="linear-gradient-56" x1="174.44" y1="164.35" x2="194.67" y2="164.35" xlink:href="#linear-gradient-3"/><linearGradient id="linear-gradient-57" x1="252.1" y1="173.11" x2="285.99" y2="173.11" gradientTransform="matrix(1, 0, 0, 1, 0, 0)" xlink:href="#linear-gradient"/><clipPath id="clip-path"><path class="cls-1" d="M256.93,141.24l5-2a9.63,9.63,0,0,0-2.64,1.62l-5,2A9.54,9.54,0,0,1,256.93,141.24Z"/></clipPath><clipPath id="clip-path-2"><path class="cls-1" d="M260.83,150l5-2a6.34,6.34,0,0,0-1.75,1.07l-5,2A6.11,6.11,0,0,1,260.83,150Z"/></clipPath><clipPath id="clip-path-3"><path class="cls-1" d="M264.58,158.42l5-2a3.12,3.12,0,0,0-.89.54l-5,2A3.26,3.26,0,0,1,264.58,158.42Z"/></clipPath><linearGradient id="linear-gradient-58" x1="265.89" y1="165.98" x2="277.58" y2="165.98" gradientTransform="matrix(1, 0, 0, 1, 0, 0)" xlink:href="#linear-gradient"/><linearGradient id="linear-gradient-59" x1="262.06" y1="156.42" x2="281.14" y2="156.42" gradientTransform="matrix(1, 0, 0, 1, 0, 0)" xlink:href="#linear-gradient"/><linearGradient id="linear-gradient-60" x1="258.32" y1="150.76" x2="285.67" y2="150.76" gradientTransform="matrix(1, 0, 0, 1, 0, 0)" xlink:href="#linear-gradient"/><linearGradient id="linear-gradient-61" x1="254.42" y1="144.85" x2="290.41" y2="144.85" gradientTransform="matrix(1, 0, 0, 1, 0, 0)" xlink:href="#linear-gradient"/><linearGradient id="linear-gradient-62" x1="155.3" y1="117.35" x2="167.35" y2="117.35" xlink:href="#linear-gradient-25"/><linearGradient id="linear-gradient-63" x1="155.3" y1="125.86" x2="167.35" y2="125.86" xlink:href="#linear-gradient-19"/><linearGradient id="linear-gradient-64" x1="33.21" y1="113.74" x2="71.47" y2="113.74" xlink:href="#linear-gradient-25"/><linearGradient id="linear-gradient-65" x1="35.41" y1="109.9" x2="54.16" y2="109.9" gradientTransform="matrix(1, 0, 0, 1, 0, 0)" xlink:href="#linear-gradient"/><linearGradient id="linear-gradient-66" x1="33.21" y1="107.65" x2="51.88" y2="107.65" xlink:href="#linear-gradient-25"/><linearGradient id="linear-gradient-67" x1="39.89" y1="113.72" x2="56.43" y2="113.72" gradientTransform="matrix(1, 0, 0, 1, 0, 0)" xlink:href="#linear-gradient"/><linearGradient id="linear-gradient-68" x1="37.68" y1="111.47" x2="54.16" y2="111.47" xlink:href="#linear-gradient-25"/><linearGradient id="linear-gradient-69" x1="44.36" y1="117.55" x2="58.71" y2="117.55" gradientTransform="matrix(1, 0, 0, 1, 0, 0)" xlink:href="#linear-gradient"/><linearGradient id="linear-gradient-70" x1="42.16" y1="115.29" x2="56.44" y2="115.29" xlink:href="#linear-gradient-25"/><linearGradient id="linear-gradient-71" x1="48.84" y1="121.37" x2="60.99" y2="121.37" gradientTransform="matrix(1, 0, 0, 1, 0, 0)" xlink:href="#linear-gradient"/><linearGradient id="linear-gradient-72" x1="46.64" y1="119.11" x2="58.71" y2="119.11" xlink:href="#linear-gradient-25"/><linearGradient id="linear-gradient-73" x1="51.12" y1="122.75" x2="60.99" y2="122.75" xlink:href="#linear-gradient-25"/><linearGradient id="linear-gradient-74" x1="1956.77" y1="103.72" x2="2010.69" y2="103.72" gradientTransform="matrix(-1.04, -0.04, 0.06, 0.96, 2282.88, 46.87)" xlink:href="#linear-gradient-25"/><clipPath id="clip-path-4"><polygon class="cls-1" points="191.32 68.08 209.79 79.04 230.29 66.24 230.3 66.24 232.38 64.94 234.39 63.67 236.46 62.36 236.46 62.36 238.48 61.09 238.48 61.09 240.55 59.78 242.56 58.52 242.91 58.3 244.64 57.21 246.65 55.94 228.18 44.98 191.32 68.08"/></clipPath><linearGradient id="linear-gradient-75" x1="1958.78" y1="93.59" x2="1976.06" y2="93.59" gradientTransform="matrix(-1.04, -0.04, 0.06, 0.96, 2282.88, 46.87)" xlink:href="#linear-gradient"/><linearGradient id="linear-gradient-76" x1="1956.77" y1="91.59" x2="1973.98" y2="91.59" gradientTransform="matrix(-1.04, -0.04, 0.06, 0.96, 2282.88, 46.87)" xlink:href="#linear-gradient-25"/><linearGradient id="linear-gradient-77" x1="1961.02" y1="97.61" x2="1978.3" y2="97.61" gradientTransform="matrix(-1.04, -0.04, 0.06, 0.96, 2282.88, 46.87)" xlink:href="#linear-gradient"/><linearGradient id="linear-gradient-78" x1="1959" y1="95.6" x2="1976.21" y2="95.6" gradientTransform="matrix(-1.04, -0.04, 0.06, 0.96, 2282.88, 46.87)" xlink:href="#linear-gradient-25"/><linearGradient id="linear-gradient-79" x1="1963.25" y1="101.62" x2="1980.53" y2="101.62" gradientTransform="matrix(-1.04, -0.04, 0.06, 0.96, 2282.88, 46.87)" xlink:href="#linear-gradient"/><linearGradient id="linear-gradient-80" x1="1961.24" y1="99.61" x2="1978.45" y2="99.61" gradientTransform="matrix(-1.04, -0.04, 0.06, 0.96, 2282.88, 46.87)" xlink:href="#linear-gradient-25"/><linearGradient id="linear-gradient-81" x1="1965.49" y1="105.64" x2="1982.77" y2="105.64" gradientTransform="matrix(-1.04, -0.04, 0.06, 0.96, 2282.88, 46.87)" xlink:href="#linear-gradient"/><linearGradient id="linear-gradient-82" x1="1963.48" y1="103.63" x2="1980.69" y2="103.63" gradientTransform="matrix(-1.04, -0.04, 0.06, 0.96, 2282.88, 46.87)" xlink:href="#linear-gradient-25"/><linearGradient id="linear-gradient-83" x1="1967.73" y1="109.65" x2="1985.01" y2="109.65" gradientTransform="matrix(-1.04, -0.04, 0.06, 0.96, 2282.88, 46.87)" xlink:href="#linear-gradient"/><linearGradient id="linear-gradient-84" x1="1965.72" y1="107.64" x2="1982.92" y2="107.64" gradientTransform="matrix(-1.04, -0.04, 0.06, 0.96, 2282.88, 46.87)" xlink:href="#linear-gradient-25"/><linearGradient id="linear-gradient-85" x1="1969.96" y1="113.66" x2="1987.24" y2="113.66" gradientTransform="matrix(-1.04, -0.04, 0.06, 0.96, 2282.88, 46.87)" xlink:href="#linear-gradient"/><linearGradient id="linear-gradient-86" x1="1967.95" y1="111.65" x2="1985.16" y2="111.65" gradientTransform="matrix(-1.04, -0.04, 0.06, 0.96, 2282.88, 46.87)" xlink:href="#linear-gradient-25"/><linearGradient id="linear-gradient-87" x1="1972.2" y1="117.68" x2="1989.48" y2="117.68" gradientTransform="matrix(-1.04, -0.04, 0.06, 0.96, 2282.88, 46.87)" xlink:href="#linear-gradient"/><linearGradient id="linear-gradient-88" x1="1970.19" y1="115.67" x2="1987.4" y2="115.67" gradientTransform="matrix(-1.04, -0.04, 0.06, 0.96, 2282.88, 46.87)" xlink:href="#linear-gradient-25"/><linearGradient id="linear-gradient-89" x1="1974.44" y1="121.69" x2="1991.72" y2="121.69" gradientTransform="matrix(-1.04, -0.04, 0.06, 0.96, 2282.88, 46.87)" xlink:href="#linear-gradient"/><linearGradient id="linear-gradient-90" x1="1972.43" y1="119.68" x2="1989.64" y2="119.68" gradientTransform="matrix(-1.04, -0.04, 0.06, 0.96, 2282.88, 46.87)" xlink:href="#linear-gradient-25"/><linearGradient id="linear-gradient-91" x1="1976.68" y1="125.7" x2="1993.95" y2="125.7" gradientTransform="matrix(-1.04, -0.04, 0.06, 0.96, 2282.88, 46.87)" xlink:href="#linear-gradient"/><linearGradient id="linear-gradient-92" x1="1974.66" y1="123.69" x2="1991.87" y2="123.69" gradientTransform="matrix(-1.04, -0.04, 0.06, 0.96, 2282.88, 46.87)" xlink:href="#linear-gradient-25"/><linearGradient id="linear-gradient-93" x1="111.12" y1="162.97" x2="140.4" y2="162.97" xlink:href="#linear-gradient-19"/><linearGradient id="linear-gradient-94" x1="140.4" y1="152.75" x2="148.64" y2="152.75" gradientTransform="matrix(1, 0, 0, 1, 0, 0)" xlink:href="#linear-gradient-48"/><linearGradient id="linear-gradient-95" x1="115.42" y1="177.9" x2="118.56" y2="177.9" gradientTransform="matrix(1, 0, 0, 1, 0, 0)" xlink:href="#linear-gradient"/><linearGradient id="linear-gradient-96" x1="115.42" y1="175.62" x2="118.56" y2="175.62" xlink:href="#linear-gradient-3"/><linearGradient id="linear-gradient-97" x1="115.42" y1="173.34" x2="118.56" y2="173.34" gradientTransform="matrix(1, 0, 0, 1, 0, 0)" xlink:href="#linear-gradient"/><linearGradient id="linear-gradient-98" x1="123.48" y1="174.52" x2="126.62" y2="174.52" gradientTransform="matrix(1, 0, 0, 1, 0, 0)" xlink:href="#linear-gradient"/><linearGradient id="linear-gradient-99" x1="123.48" y1="171.11" x2="126.62" y2="171.11" xlink:href="#linear-gradient-3"/><linearGradient id="linear-gradient-100" x1="123.48" y1="167.69" x2="126.62" y2="167.69" gradientTransform="matrix(1, 0, 0, 1, 0, 0)" xlink:href="#linear-gradient"/><linearGradient id="linear-gradient-101" x1="131.82" y1="169.97" x2="134.95" y2="169.97" gradientTransform="matrix(1, 0, 0, 1, 0, 0)" xlink:href="#linear-gradient"/><linearGradient id="linear-gradient-102" x1="131.82" y1="165.52" x2="134.95" y2="165.52" xlink:href="#linear-gradient-3"/><linearGradient id="linear-gradient-103" x1="131.82" y1="161.08" x2="134.95" y2="161.08" gradientTransform="matrix(1, 0, 0, 1, 0, 0)" xlink:href="#linear-gradient"/><linearGradient id="linear-gradient-104" x1="138.83" y1="164.31" x2="141.97" y2="164.31" gradientTransform="matrix(1, 0, 0, 1, 0, 0)" xlink:href="#linear-gradient"/><linearGradient id="linear-gradient-105" x1="138.84" y1="158.48" x2="141.97" y2="158.48" xlink:href="#linear-gradient-3"/><linearGradient id="linear-gradient-106" x1="138.83" y1="152.65" x2="141.97" y2="152.65" gradientTransform="matrix(1, 0, 0, 1, 0, 0)" xlink:href="#linear-gradient"/><linearGradient id="linear-gradient-107" x1="223.63" y1="151.88" x2="228.21" y2="151.88" gradientTransform="matrix(1, 0, 0, 1, 0, 0)" xlink:href="#linear-gradient"/><linearGradient id="linear-gradient-108" x1="226.55" y1="155.21" x2="236.13" y2="155.21" gradientTransform="matrix(1, 0, 0, 1, 0, 0)" xlink:href="#linear-gradient"/><linearGradient id="linear-gradient-109" x1="233.11" y1="157.77" x2="234.85" y2="157.77" gradientTransform="matrix(1, 0, 0, 1, 0, 0)" xlink:href="#linear-gradient"/><linearGradient id="linear-gradient-110" x1="230.42" y1="161.8" x2="240.03" y2="161.8" xlink:href="#linear-gradient-3"/><linearGradient id="linear-gradient-111" x1="233.14" y1="156.63" x2="237.11" y2="156.63" gradientTransform="matrix(1, 0, 0, 1, 0, 0)" xlink:href="#linear-gradient"/><linearGradient id="linear-gradient-112" x1="235.9" y1="156.82" x2="236.77" y2="156.82" gradientTransform="matrix(1, 0, 0, 1, 0, 0)" xlink:href="#linear-gradient"/><linearGradient id="linear-gradient-113" x1="232.12" y1="150.05" x2="236.47" y2="150.05" gradientTransform="matrix(1, 0, 0, 1, 0, 0)" xlink:href="#linear-gradient"/><linearGradient id="linear-gradient-114" x1="235.03" y1="156.59" x2="237.58" y2="156.59" gradientTransform="matrix(1, 0, 0, 1, 0, 0)" xlink:href="#linear-gradient"/><linearGradient id="linear-gradient-115" x1="220.04" y1="157.75" x2="225.81" y2="157.75" gradientTransform="matrix(1, 0, 0, 1, 0, 0)" xlink:href="#linear-gradient"/><linearGradient id="linear-gradient-116" x1="220.9" y1="158.68" x2="225.81" y2="158.68" gradientTransform="matrix(1, 0, 0, 1, 0, 0)" xlink:href="#linear-gradient"/><clipPath id="clip-path-5"><polygon class="cls-1" points="228.18 44.98 246.65 55.94 209.79 79.04 191.32 68.08 211.21 55.61 212.77 43.39 225.83 42.34 228.18 44.98"/></clipPath><linearGradient id="linear-gradient-117" x1="215.42" y1="60.21" x2="222.58" y2="60.21" gradientTransform="matrix(1, 0, 0, 1, 0, 0)" xlink:href="#linear-gradient"/></defs><title>An Eye on 5G</title><g class="cls-2"><g id="Layer_1" data-name="Layer 1"><path class="cls-3" d="M136,181.34l15.41,9.3a1.4,1.4,0,0,0,1.46,0l23.84-14.9"/><line class="cls-3" x1="218" y1="67.11" x2="253.22" y2="45.17"/><line class="cls-3" x1="51.88" y1="91.68" x2="87.1" y2="69.75"/><path class="cls-3" d="M189.92,174.42l37.49,22.66a1.06,1.06,0,0,0,1.1,0l34.67-21.59"/><path class="cls-4" d="M87,66.92l5.47,2.85a1.05,1.05,0,0,0,1.07,0l19.2-11.92a.35.35,0,0,0,0-.61l-6-3.13a.78.78,0,0,0-.78,0l-19,11.77A.61.61,0,0,0,87,66.92Z"/><path class="cls-3" d="M82.89,67.67l8.7,4.53a1.69,1.69,0,0,0,1.7-.06L117,57.4a.55.55,0,0,0,0-1l-9.56-5a1.27,1.27,0,0,0-1.24,0L82.83,66A1,1,0,0,0,82.89,67.67Z"/><path class="cls-5" d="M84.13,51.55h0l.08,0a3.72,3.72,0,0,0,.67.53l8.29,6.53a1,1,0,0,0,.17.1h0L99,61.7l.86-2.51-1.23-1.68-1.35-2-.42,0,4.44-8.83c.6.29,1.47.67,1.62.44s2.6-2.47,2.6-3.17,2.9-8.52,2.9-8.52v-.23l-2.46,1.87a17.8,17.8,0,0,0,1.2-6c0-.06,0-.11,0-.16l1.44.62,2-2.37-1.13-1.65-5.51-2.86h0c-2.29-1.17-5.6-.78-9.28,1.44-6.89,4.14-12.47,13.07-12.47,20A7.42,7.42,0,0,0,84.13,51.55Zm6-7.82a20.13,20.13,0,0,0,2.1-2.49c0-.13,5.41-6.68,5.41-6.68l-.88-2c1.83-.29,3.1.76,3.1,2.88,0,2.86-2.31,6.56-5.17,8.28C92.67,44.91,91,44.83,90.09,43.73Z"/><path class="cls-6" d="M89.79,54.49h0l.08,0a4.79,4.79,0,0,0,.66.53l8.3,6.53c.73.57,2.24-.33,3-1.79l8.34-16.57c.21-.42.43-.82.62-1.23l.08-.17h0a19.32,19.32,0,0,0,2-7.86c0-6.89-5.58-9.12-12.47-5S87.83,42.08,87.83,49A7.43,7.43,0,0,0,89.79,54.49Zm5.34-9.9c0-2.86,2.31-6.56,5.18-8.28s5.17-.79,5.17,2.07-2.31,6.56-5.17,8.27S95.13,47.45,95.13,44.59Z"/><path class="cls-7" d="M112.24,73.2a21,21,0,0,0,1.1,2,15.81,15.81,0,0,0,3.92,1.72c1.84.57,2.79.8,2.79.8l.27-.85s-1.78-1-2.63-1.53-2.66-1.6-2.66-1.6"/><path class="cls-8" d="M111.86,98.86l-.24.38a2.34,2.34,0,0,0,.48.57,2.82,2.82,0,0,0,.4.3l.07-.07a1.2,1.2,0,0,1,.25.21c.18.17.47.49.77.73a1.93,1.93,0,0,0,1.12.5c.44,0,.63-.25.62-.43a1.85,1.85,0,0,0-.18-.41"/><path class="cls-9" d="M113.66,98.22a2.85,2.85,0,0,1,.54.82,20.24,20.24,0,0,1,1.17,1.85c0,.3-.16.51-.65.51a2.57,2.57,0,0,1-1.51-1c-.37-.46-1.36-1-1.43-1.33a1.21,1.21,0,0,1,.44-.94C112.34,98,112.66,97.63,113.66,98.22Z"/><path class="cls-10" d="M113.91,98.14l-.15.52s-.16.14-.54,0-.71-.32-.77-.7l.1-.39"/><path class="cls-11" d="M117.2,90.71c-.44,1.41-3.32,7.61-3.32,7.61h-.29a2.41,2.41,0,0,1-1.14-.43s.38-3,.74-4.34,1.32-2.71,1.14-3.15c-.08-.21-.48-1.37-.86-2.52,0,0,0,0,0-.05s0,0,0,0l-.81-2.41,0-1,0-2.59,3-1.19.09.2C116.77,83.06,117.63,89.34,117.2,90.71Z"/><path class="cls-12" d="M113.44,87.8l-.81-2.41,0-1,.52-.26A23,23,0,0,0,113.44,87.8Z"/><path class="cls-12" d="M117.2,90.71c-.44,1.41-3.32,7.61-3.32,7.61h-.29a33.13,33.13,0,0,1,1.3-3.27,17.25,17.25,0,0,0,1.78-5.31c.3-2.29-1.6-8.6-1.6-8.6l.68-.35C116.77,83.06,117.63,89.34,117.2,90.71Z"/><path class="cls-13" d="M113.54,102.48l-4.14-1a1.36,1.36,0,0,0,0,.29,6.36,6.36,0,0,0,.86.4s0,0,.06,0h0l.1,0,.43.29a4.79,4.79,0,0,0,1,.53,2.55,2.55,0,0,0,1.27.13C113.52,103,113.62,102.65,113.54,102.48Z"/><path class="cls-9" d="M109.75,99.86s-.37.16-.4,1.38a.45.45,0,0,0,.14.3c.13.11.57.22.87.41a6.93,6.93,0,0,0,1.84,1,1.4,1.4,0,0,0,1.32-.17c.14-.15.06-.48-.22-.67a16.5,16.5,0,0,1-1.7-1.64,5.06,5.06,0,0,0-.62-.61C111,99.77,110,100,109.75,99.86Z"/><path class="cls-7" d="M109.68,98.81s.09.93.07,1.19,1.07.41,1.37.07c0,0,0-.6.06-1"/><path class="cls-11" d="M109.19,81.21a5.21,5.21,0,0,0-.67,2.41,9.71,9.71,0,0,0,.46,2.69,18.15,18.15,0,0,1,.15,4.67,13.19,13.19,0,0,0-.1,3.27c.08,1.35.46,5.23.46,5.23a1.76,1.76,0,0,0,1.87,0s.27-6.72.64-7.76c.8-2.27.87-6.76,1.19-7.64a8.74,8.74,0,0,0,.25-2.71C113.44,80.79,109.19,81.21,109.19,81.21Z"/><path class="cls-11" d="M115.74,78.93c.07.53.13,1,.18,1.44a.52.52,0,0,1-.31.55,21.44,21.44,0,0,1-5.69,1.17h-.1c-.83,0-1-.4-1.06-.65h0a1.85,1.85,0,0,1,0-.23,4.89,4.89,0,0,1,.17-1,2.68,2.68,0,0,0,.07-.27l.09-.31a.57.57,0,0,1,0-.14l0-.15a6.77,6.77,0,0,0-.65-3.75q-.19-.51-.36-1c-.22-.73-.44-1.46-.62-2.19,0-.07,0-.15-.05-.23a3.37,3.37,0,0,1-.17-1.13,1.66,1.66,0,0,1,.15-.33,4,4,0,0,1,.22-.42,2.9,2.9,0,0,1,.45-.59h0a1.68,1.68,0,0,1,.21-.18l.35-.27.24-.17.1-.06s0,0,0,0h0l.08,0,.16-.1a1,1,0,0,1,.17-.1l.31-.17c.24-.12.55-.26,1-.43l.29-.11.19-.06c.3-.09.61-.17.92-.23l1.44-.27h.24a6.39,6.39,0,0,1,1,.16,1.92,1.92,0,0,1,1.46,1.37,1.64,1.64,0,0,1,0,.32C116.4,70.23,115.31,75.82,115.74,78.93Z"/><path class="cls-14" d="M113.34,68.07s.57.55.11,1l-.27-.58.26-.24"/><path class="cls-15" d="M111,66l.06,2.24s1.68,1.31,2.36.77c0-.4,0-1.35,0-1.89l-.64-.13Z"/><path class="cls-7" d="M114.68,64.31a7.27,7.27,0,0,1-.12,2.07c-.22,1-.29,1.21-.69,1.39s-.75.19-1.42-.24a3.27,3.27,0,0,1-1-1.13s-.1.06-.34-.21a1.45,1.45,0,0,1-.44-1.21,4,4,0,0,1,.59-2.05c.44-.75,1.82-.51,2.44-.19A2.08,2.08,0,0,1,114.68,64.31Z"/><path class="cls-11" d="M114.87,64.77h0a2.1,2.1,0,0,1-1.73-.27.27.27,0,0,0-.3.27.89.89,0,0,1-.67.67c-.18.1-.22.64-.22.64l-.22,0a3.55,3.55,0,0,0-.08-.77.41.41,0,0,0-.74-.08.92.92,0,0,0,.13.94v.2a2.43,2.43,0,0,1-.62-1.73h0c0-.39-.34-.75.06-1.37.22-.35.6-.33.66-.43a1.75,1.75,0,0,1,2.14-.81,1.11,1.11,0,0,1,.66.49.92.92,0,0,1,.69.58C115.81,63.69,115.67,64.48,114.87,64.77Z"/><path class="cls-16" d="M110,78.42a5,5,0,0,1,0,1,8.4,8.4,0,0,0-.12,2.64h-.1c-.83,0-1-.4-1.06-.65h0a1.85,1.85,0,0,1,0-.23,4.89,4.89,0,0,1,.17-1,2.68,2.68,0,0,0,.07-.27h0l.09-.31a.57.57,0,0,1,0-.14l0-.15a6.77,6.77,0,0,0-.65-3.75c.07-.67.14-1.47.14-1.55a19.56,19.56,0,0,1,1.41-1.77A31.63,31.63,0,0,0,110,78.42Z"/><path class="cls-7" d="M106.51,74.15s-.66,2.44-.66,2.82,1,.85,1.67.67S109,74.92,109,74.92"/><path class="cls-11" d="M110.31,71.58a14.07,14.07,0,0,1-1.22,3.85h0a7.37,7.37,0,0,1-2.33-.81c.35-1.31.87-3,1.13-3.86a1.91,1.91,0,0,1,.45-.75h0C109.14,70,110.32,70.5,110.31,71.58Z"/><path class="cls-17" d="M107.08,72.52c0-.22.06-.42.09-.61C107.14,72.1,107.11,72.3,107.08,72.52Z"/><path class="cls-17" d="M107.31,70.94a.11.11,0,0,1,0,0h0S107.31,71,107.31,70.94Z"/><path class="cls-11" d="M111.08,68l-.29.11c-.44.17-.75.31-1,.43l-.31.17a1,1,0,0,0-.17.1l-.16.1-.08,0h0s0,0,0,0l-.1.06-.24.17-.35.27,0,0h0v0h0s0,0,0,0l-.07.07h0a2.9,2.9,0,0,0-.45.59,4,4,0,0,0-.22.42,1.66,1.66,0,0,0-.15.33l0,0a.11.11,0,0,0,0,0s0,0,0,0h0a8.2,8.2,0,0,0-.31.92s0,.09,0,.14c-.07.23-.13.47-.2.72-.14.51-.28,1-.41,1.55a2.13,2.13,0,0,0,.42.29c.21-.79.48-1.72.73-2.53.15-.52.27-1,.4-1.33.49-1.22,3-2.38,3.2-2.49C111.09,68.09,111.08,68,111.08,68Z"/><path class="cls-7" d="M106.34,74.78a21.54,21.54,0,0,0-.49,2.18,16.13,16.13,0,0,0,1.76,3.9c1,1.66,1.53,2.46,1.53,2.46l.77-.45S109.25,81,109,80s-.9-3-.9-3"/><path class="cls-17" d="M107.3,71s0,0,0,0a.11.11,0,0,1,0,0Z"/><path class="cls-7" d="M109.14,83.32a1,1,0,0,1,.13.42,1.09,1.09,0,0,0,.07.52,3.42,3.42,0,0,0,1-.6.68.68,0,0,1,.28.15c.09.1.13.28.2.34s.31.11.3,0a2.27,2.27,0,0,0-.21-.67c-.09-.18-.68-.47-1-.64"/><path class="cls-6" d="M122.4,73.25l-.32-.25h0a.1.1,0,0,0-.09,0l-4.44,2.52a.78.78,0,0,0-.28.29L114,81.9a.12.12,0,0,0,0,.15l.32.24.45-.57,3.72-2.12a.47.47,0,0,0,.21-.21l3.1-5.82Z"/><path class="cls-18" d="M122.43,73.35l-3.35,6.28a.56.56,0,0,1-.21.22l-4.34,2.47a.13.13,0,0,1-.18-.18l3.25-6.09a.71.71,0,0,1,.28-.29l4.44-2.52A.08.08,0,0,1,122.43,73.35Z"/><path class="cls-7" d="M120.69,76.61a6,6,0,0,0-.9.48c-.22.18-.53.8-.44.93a.42.42,0,0,0,.55.08C120.12,78,120.87,77.11,120.69,76.61Z"/><path class="cls-19" d="M289.84,58.43l-5.48,2.85a1.08,1.08,0,0,1-1.07,0L231.62,29.33a.35.35,0,0,1,0-.61l6-3.13a.8.8,0,0,1,.78,0l51.44,31.77A.61.61,0,0,1,289.84,58.43Z"/><path class="cls-3" d="M293.66,59l-8.79,4.58a1.73,1.73,0,0,1-1.72-.06L228.2,29.67a.56.56,0,0,1,0-1l9.67-5a1.27,1.27,0,0,1,1.25.05l54.57,33.6A1,1,0,0,1,293.66,59Z"/><path class="cls-20" d="M289.92,51.79h0l-5,2.65-.2-2.82.72-.32L284.9,51l-1.72-1-3.75-2.25L247.1,28.32c-4.81-2.89-8.74-9-9-13.93-1.07-.91-2.9-2.51-2.9-2.51l5-2.6a2.55,2.55,0,0,1,.43-.23h0c1.55-.68,3.69-.43,6.08.88.05-.18.1-.34.16-.51-.58-.35-1.73-1.2-1.73-1.2l4.6-2.41h0c2.68-1.56,6.68-1.17,11.16,1.52a33.44,33.44,0,0,1,13.42,16.89A23.51,23.51,0,0,1,281,31.62a20.34,20.34,0,0,1,2.17,5.12,8.85,8.85,0,0,1,1.76.82,15.12,15.12,0,0,1,6.56,9.14,7.91,7.91,0,0,1,.18,1.64A3.6,3.6,0,0,1,289.92,51.79Z"/><path class="cls-21" d="M291.46,46.7l-6,2.53a8.84,8.84,0,0,1-2.3.76,1.81,1.81,0,0,1-1.5-.26c-.47-.44-1.4-1.23-2.25-2s-1.73-1.61-1.73-1.88c0-.53.46-6.5.46-6.5l5-2.62a8.85,8.85,0,0,1,1.76.82A15.12,15.12,0,0,1,291.46,46.7Z"/><path class="cls-22" d="M281,31.62l-8.12,4.1-7.39-4.91,3.8-4,5-2.62A23.51,23.51,0,0,1,281,31.62Z"/><path class="cls-6" d="M279.92,40.18a8.67,8.67,0,0,0-1.77-.82,23.29,23.29,0,0,0-8.89-12.51A33.33,33.33,0,0,0,255.84,10c-6.86-4.13-12.62-2.85-14.19,2.59-4.79-2.64-8.6-1-8.6,3.87,0,5,4.06,11.51,9.06,14.52l37.81,22.71c3.72,2.24,6.73,1,6.73-2.69S283.64,42.41,279.92,40.18Z"/><path class="cls-3" d="M212.21,146.68c-1.37,0-2.74,0-4.13-.09-17.42-.78-35.16-6.52-52.72-17.07s-27.09-22-28.07-34c-1-12.18,6.73-23.51,23-33.67h0A110.88,110.88,0,0,1,169,52.5a126.63,126.63,0,0,1,18.51-5.67l2.13-.47,19,24.28-5.63,1a74.14,74.14,0,0,0-26,9.75c-8.67,5.42-7.56,10-7.2,11.45,1.13,4.62,6.41,9.88,15.28,15.21,9.18,5.52,17.93,8.7,26,9.48,7.92.75,14.73-.73,20.82-4.53a50.82,50.82,0,0,0,5-3.52l-10.41-6.25-16.29,10.17L182,96.46l46-28.73,60.82,36.54-2.17,3.06c-6.77,9.5-16.87,18.49-30,26.7A82.42,82.42,0,0,1,212.21,146.68ZM154,67.73C140.07,76.41,133.43,85.56,134.2,95c.79,9.61,9.12,19.24,24.73,28.62,16.56,10,33.2,15.36,49.46,16.09a76,76,0,0,0,44.49-11.51c10.95-6.84,19.6-14.18,25.76-21.85L228,75.87,195.22,96.35l14.92,9,16.28-10.18,21.74,13.06-3,3.13a48.64,48.64,0,0,1-9.58,7.6,39.28,39.28,0,0,1-25.16,5.55c-9.12-.87-18.85-4.38-28.92-10.43-10.79-6.49-16.82-12.87-18.45-19.51-1.21-5-.42-12.31,10.26-19a78.5,78.5,0,0,1,22.87-9.5l-9.37-12A122.16,122.16,0,0,0,171.47,59,103,103,0,0,0,154,67.73Z"/><path class="cls-23" d="M262.92,84.42l-5.36,5.17L228,71.8,188.58,96.4l10.09,6.06-7.43-.28-18.17,1.42c-3.61-3.35-5.82-6.64-6.62-9.9q-2.07-8.46,8.73-15.21a77.19,77.19,0,0,1,27.17-10.22l-14.14-18a122.08,122.08,0,0,0-18,5.51,106.64,106.64,0,0,0-18.1,9.06,82.6,82.6,0,0,0-7.61,5.34l-.08-2.66-4.52-3.39-9.24.81V93.47h0c0,.58,0,1.17.07,1.77q1.33,16.24,26.4,31.3,25.69,15.45,51.09,16.58a79.07,79.07,0,0,0,46.48-12q19.21-12,29-25.78V76.84ZM226.46,99.2l6,3.59-11.5.52-1,0Z"/><path class="cls-24" d="M183.12,38.52s-20.13,9.58-21,9.9c-.46.18-.95,6-1.31,11.48q-4.45,2.24-8.7,4.89-2.73,1.71-5.13,3.46c8.93,6.4,18.34,13.25,21.76,15.73a24.33,24.33,0,0,1,6.43-5.49,77.19,77.19,0,0,1,27.17-10.22V39.79Z"/><polygon class="cls-25" points="188.58 67.93 188.58 96.4 210.13 109.12 210.18 80.9 188.58 67.93"/><polygon class="cls-26" points="226.46 70.72 226.46 99.2 210.13 109.12 210.18 80.9 226.46 70.72"/><polygon class="cls-27" points="226.46 70.72 226.46 99.2 257.56 89.59 226.46 70.72"/><path class="cls-9" d="M152.12,36.31a106.59,106.59,0,0,1,18.1-9,121,121,0,0,1,18-5.52L202.35,39.8A77.18,77.18,0,0,0,175.18,50q-10.8,6.75-8.73,15.22t16.87,17.36q14.51,8.72,27.46,10t23-5a44.5,44.5,0,0,0,8.9-7l-16.21-9.74L210.18,80.9l-21.6-13L228,43.32l55.78,33.52q-9.8,13.77-29,25.77a79,79,0,0,1-46.48,12q-25.4-1.14-51.09-16.58Q132.08,83,130.75,66.76T152.12,36.31Z"/><path class="cls-9" d="M152.12,36.31a106.59,106.59,0,0,1,18.1-9,121,121,0,0,1,18-5.52L202.35,39.8A77.18,77.18,0,0,0,175.18,50q-10.8,6.75-8.73,15.22t16.87,17.36q14.51,8.72,27.46,10t23-5a44.5,44.5,0,0,0,8.9-7l-16.21-9.74L210.18,80.9l-21.6-13L228,43.32l55.78,33.52q-9.8,13.77-29,25.77a79,79,0,0,1-46.48,12q-25.4-1.14-51.09-16.58Q132.08,83,130.75,66.76T152.12,36.31Z"/><path class="cls-3" d="M102.82,194.44,70.45,175l9.39-1.92a115.45,115.45,0,0,0,16.4-4.71,70.4,70.4,0,0,0,12.9-5.9c4.78-3,5.45-5,5.52-5.74.11-1.23-1.44-2.91-4.26-4.6a18.66,18.66,0,0,0-10.91-2.71c-4,.2-8.38,1.72-12.89,4.54a33.48,33.48,0,0,0-9,8.39l-.88,1.17-17.09,3.14L2.37,127.58,61.2,90.82l30.47,18.31L60.18,128.81l5.48,3.89a39.08,39.08,0,0,1,4-3.29c1.34-.92,2.63-1.77,3.84-2.53A50.31,50.31,0,0,1,93.27,120a66.11,66.11,0,0,1,22.87.93,71.83,71.83,0,0,1,22.16,8.75c12.7,7.63,19.17,16,19.23,24.92s-6.6,17.59-20.35,26.18c-11,6.87-22.09,11.39-33,13.44ZM90.26,178.18l13.95,8.38a89.89,89.89,0,0,0,29-12.16c11.21-7,16.87-13.66,16.84-19.79s-5.29-12.37-15.61-18.56a64.23,64.23,0,0,0-19.86-7.85,58.65,58.65,0,0,0-20.29-.84,42.82,42.82,0,0,0-16.87,5.85c-1.11.7-2.31,1.49-3.56,2.35a49.14,49.14,0,0,0-5.28,4.64l-2.23,2.16-19.64-14,30.66-19.16L61.27,99.58,16,127.86l45.23,30.89,11.23-2.06a40.52,40.52,0,0,1,10.16-9.08c5.6-3.5,11.15-5.4,16.49-5.66a26.39,26.39,0,0,1,15.12,3.76c5.6,3.37,8.24,7.3,7.85,11.68-.38,4.13-3.32,7.86-9,11.4a77.9,77.9,0,0,1-14.3,6.59C95.94,176.43,93.08,177.36,90.26,178.18Z"/><path class="cls-28" d="M139.81,135c-1.08-.73-2.22-1.47-3.43-2.2a70.29,70.29,0,0,0-9.55-4.77l1.25-1.86-6.45-11.83-10.87-4.1-36.2,13.34v7c-.9.58-1.83,1.19-2.81,1.87a51.38,51.38,0,0,0-5.76,5l-12.54-8.91,31.08-19.42-23.29-14-52,32.52,51.21,35,14.15-2.6a36.93,36.93,0,0,1,10.06-9.32q7.62-4.75,14.69-5.1a22.61,22.61,0,0,1,13,3.23c.42.26.82.51,1.19.77l-13,6.07-1.28,15.48c-.56.21-1.13.43-1.73.64a119.7,119.7,0,0,1-16.93,4.86l22.93,13.78q15.7-3,31.68-12.94,18.66-11.65,18.59-23V126.11Z"/><polygon class="cls-29" points="84.53 80.71 84.53 109.19 53.45 128.61 53.45 100.13 84.53 80.71"/><polygon class="cls-30" points="9.2 99.24 9.2 127.72 60.41 162.7 60.41 134.22 9.2 99.24"/><polygon class="cls-31" points="74.56 131.63 74.56 160.1 60.41 162.7 60.41 134.22 74.56 131.63"/><path class="cls-9" d="M61.24,66.72l23.29,14L53.45,100.13,66,109a52.47,52.47,0,0,1,5.76-5c1.3-.9,2.54-1.71,3.7-2.44a46.21,46.21,0,0,1,18.34-6.38,61.83,61.83,0,0,1,21.57.88,67.72,67.72,0,0,1,21,8.3q17.34,10.41,17.41,21.74t-18.59,23q-16,10-31.68,12.94L80.59,148.25a119.62,119.62,0,0,0,16.93-4.85,75,75,0,0,0,13.6-6.25q6.87-4.29,7.26-8.57t-6-8.14a22.62,22.62,0,0,0-13-3.24q-7.07.35-14.69,5.1a37,37,0,0,0-10.06,9.33l-14.15,2.59L9.2,99.24Z"/><path class="cls-9" d="M148.64,142.9v19.64a57.86,57.86,0,0,1-13.44,10.92,97.62,97.62,0,0,1-24.08,11.11V164.93a97.57,97.57,0,0,0,24.08-11.1A58.12,58.12,0,0,0,148.64,142.9Z"/><polygon class="cls-32" points="80.59 148.25 80.59 176.73 103.52 190.51 103.52 162.03 80.59 148.25"/><polygon class="cls-9" points="100.66 164.02 86.39 155.45 85.42 155.97 86.39 156.84 86.39 173.18 98.63 180.53 99.7 182.28 100.66 181.84 100.62 181.73 100.66 181.75 100.66 164.02"/><polygon class="cls-33" points="85.42 155.97 85.42 173.7 99.7 182.28 99.7 164.55 85.42 155.97"/><polygon class="cls-11" points="85.42 155.97 85.42 173.7 99.7 182.28 99.7 164.55 85.42 155.97"/><polygon class="cls-9" points="86.63 157.75 86.63 158.9 98.48 166.03 98.48 164.87 86.63 157.75"/><polygon class="cls-9" points="86.63 159.81 86.63 160.97 98.48 168.09 98.48 166.94 86.63 159.81"/><polygon class="cls-9" points="86.63 161.88 86.63 163.04 98.48 170.16 98.48 169 86.63 161.88"/><polygon class="cls-9" points="86.63 163.95 86.63 165.11 98.48 172.23 98.48 171.07 86.63 163.95"/><polygon class="cls-9" points="86.63 166.02 86.63 167.18 98.48 174.3 98.48 173.14 86.63 166.02"/><polygon class="cls-9" points="86.63 168.08 86.63 169.24 98.48 176.37 98.48 175.21 86.63 168.08"/><polygon class="cls-9" points="86.63 170.15 86.63 171.31 98.48 178.43 98.48 177.27 86.63 170.15"/><polygon class="cls-9" points="86.63 172.22 86.63 173.38 98.48 180.5 98.48 179.34 86.63 172.22"/><path class="cls-13" d="M83.13,194.68a.94.94,0,0,1,0,.44,1.48,1.48,0,0,1-.35.55,3.27,3.27,0,0,1-.55.46c-.17.1-.43.29-.47.32a2.78,2.78,0,0,0-.33.44V197a1.54,1.54,0,0,1-.46.36,1.2,1.2,0,0,1-.86,0,.6.6,0,0,1-.39-.5c0-.06,0-.31,0-.31"/><path class="cls-34" d="M81.05,195a4.73,4.73,0,0,0,1-.47c.5-.37.87-.27,1-.06s.18.95-.9,1.57a2.06,2.06,0,0,0-.74.66,1.36,1.36,0,0,1-.51.46,1,1,0,0,1-.56.09c-.74-.06-.89-.8-.53-1.37A2.86,2.86,0,0,1,81.05,195Z"/><path class="cls-13" d="M89.11,198.55v0a.47.47,0,0,1-.12.32,2.53,2.53,0,0,1-1.3.6h0c-.45.07-1,.09-1.18.12a4.1,4.1,0,0,0-.44.07v.05a4.28,4.28,0,0,1-.62.11h0a1.15,1.15,0,0,1-.67-.15.63.63,0,0,1-.19-.32h0v-.18l.59,0h0l.3,0h.27l.25,0Z"/><path class="cls-35" d="M86.55,197.93a3.57,3.57,0,0,0,1,.21,4,4,0,0,1,1.42.14.32.32,0,0,1,.16.25c0,.55-1.3.89-2.09.95a11.79,11.79,0,0,0-1.19.11,1.91,1.91,0,0,1-1,0,.87.87,0,0,1-.18-1.21C84.91,198,86.55,197.93,86.55,197.93Z"/><path class="cls-10" d="M84.85,197.43s0,.61,0,.72-.07.21,0,.31.39.31.9.25a1.52,1.52,0,0,0,1-.49c.09-.15-.05-.2-.08-.26s0-1-.06-.71"/><path class="cls-10" d="M79.93,195.35l0,.55a.38.38,0,0,0,0,.24c0,.15.46.44,1,.13a.9.9,0,0,0,.59-.88c0-.23-.1,0-.1-.2"/><path class="cls-11" d="M88.71,185.85c-.21,1.86-.88,5-1.1,6.58s-.68,5.22-.68,5.22-.23.37-1.09.49a1.22,1.22,0,0,1-1.19-.4s-.28-5.06-.22-6,.32-2.62.28-3.52a17.45,17.45,0,0,0-.34-3.57,2.49,2.49,0,0,1-.14.39c-.48,1.1-1.41,3.46-1.66,4.36s-.88,6-.88,6a.79.79,0,0,1-.26.26,2.08,2.08,0,0,1-.67.3c-.76.22-1-.22-1-.22a55.12,55.12,0,0,1,.24-7.44,23.79,23.79,0,0,0,.62-3.53,34.37,34.37,0,0,0,.06-4.36,4,4,0,0,1,.09-1.24,3.41,3.41,0,0,1,.36-.92s7.27-.41,7.61,1.52c.05.32.12.68.15,1.08A28.37,28.37,0,0,1,88.71,185.85Z"/><path class="cls-10" d="M86.31,165a1.72,1.72,0,0,1-.52.22h0l0,0-.14.05a.18.18,0,0,0-.11.1,7.92,7.92,0,0,0,0,1.2l-.32-.11-2-.68a10.13,10.13,0,0,0,0-1c0-.49-.06-3.11.59-3.56a3.58,3.58,0,0,1,2.73.08s.06.4.19,1.14S86.68,164.79,86.31,165Z"/><path class="cls-36" d="M85.26,165.51a1.29,1.29,0,0,1,.32-.18.18.18,0,0,0-.11.1,7.92,7.92,0,0,0,0,1.2l-.32-.11C85.12,166.19,85.1,165.66,85.26,165.51Z"/><path class="cls-37" d="M83.68,160.37a2.37,2.37,0,0,0-1.41,2.22,3.71,3.71,0,0,0,.58,1.53c.1.24.11.69.19.83a3.57,3.57,0,0,0,1.56.27,1.92,1.92,0,0,0,.52-.79,8.91,8.91,0,0,1,0-.92c.06-.19.29-.43.43-.4s.21.25.26.48.17.23.22.18a7,7,0,0,0,.07-.8c0-.18.32-.36.31-.88s0-.36.16-.55C87.34,160.81,85.64,159.28,83.68,160.37Z"/><path class="cls-38" d="M85.87,163.65s.15.91.2,1a.57.57,0,0,0,.35.25c.13,0,.29-.6.26-.71s-.39.09-.45.05a6.82,6.82,0,0,1-.11-1.05Z"/><path class="cls-36" d="M96.8,169.38a4.2,4.2,0,0,0-.76.34l-.39.24c0-.18,0-.26-.12-.23s-.71.37-.86.45l-.16,0c-.24.08-.64.59-1.1.77s-2.22,1.19-3.22,1.77l-.23-.54a2.28,2.28,0,0,1-1.14,1,1.34,1.34,0,0,1-1.18,0h0c0,.08.07.14.1.21.16.31.59,1,.62,1.08h0s.12.16.28.34a1.3,1.3,0,0,0,1.82,0h0a40.75,40.75,0,0,1,3.49-3c.3,0,.35,0,.67,0a.92.92,0,0,0,.49-.21s.06.12.3,0,.52-.47.5-.56,0-.22-.06-.25a.19.19,0,0,0,0-.14,1.5,1.5,0,0,0-.12-.27,3.16,3.16,0,0,1,.47-.35,2.44,2.44,0,0,0,.55-.38C97,169.55,96.88,169.36,96.8,169.38Z"/><path class="cls-36" d="M90,172.39a3.43,3.43,0,0,1-.94.73,2.34,2.34,0,0,0,.88-.89Z"/><path class="cls-39" d="M90.17,172.23s0,.06-.14.16a4.07,4.07,0,0,1-1,.73l-.12.06-.14.06-.18.06a1.37,1.37,0,0,1-.87,0l-.06,0,0,0h0l.1.21c.16.31.58,1,.62,1.08h0a10.41,10.41,0,0,0,.26,2.67,16,16,0,0,1,.24,1.92.59.59,0,0,1-.4.61c-1.5.42-5.1-.3-6.15-.55s-1.36-.62-1.36-.62c-.32-.23-.22-.68-.18-1,.11-.62.32-1.4.53-2.13a4.12,4.12,0,0,0-.5-3.71c-1-1.82-1.51-4.34-.41-5.41a1.81,1.81,0,0,1,2.07-.45l.26-.28a12.12,12.12,0,0,1,3.3,1.31v.28l.1.05a5.71,5.71,0,0,1,2.75,2.13A21.14,21.14,0,0,1,90.17,172.23Z"/><path class="cls-12" d="M84.37,184.67a2.49,2.49,0,0,1-.14.39c-.48,1.1-1.41,3.46-1.66,4.36s-.88,6-.88,6a.79.79,0,0,1-.26.26c.1-1.23.51-5.23.67-5.9a7.71,7.71,0,0,1,.52-1.72c.24-.56,1.42-3.29.75-4.62a7.38,7.38,0,0,1-.7-2.12,4.39,4.39,0,0,0,1.27,2Z"/><path class="cls-16" d="M86,167.07v.13s-1.49-.64-2.3-.9A17.65,17.65,0,0,1,86,167.07Z"/><path class="cls-40" d="M88.49,176.44a11.47,11.47,0,0,0-.69-1.84c-.5-1.13-1-2.07-1.4-3.22l.92,1.65.32.21h0c0,.07.07.14.1.2.16.31.59,1,.62,1.08h0A9.05,9.05,0,0,0,88.49,176.44Z"/><path class="cls-41" d="M87.32,173s1.15,2.09,1.68,2.3a1.72,1.72,0,0,0,1.65-.39c.46-.38,3.12-2.8,3.12-2.8a1.22,1.22,0,0,0-.38-1.22s-3,1.56-3,1.57-.18-.26-.18-.26l-.68-.17"/><polygon class="cls-9" points="22.28 113.72 22.28 137.44 11.76 130.25 11.76 106.54 22.28 113.72"/><polygon class="cls-42" points="22.28 113.72 22.9 113.34 12.36 106.15 11.75 106.54 22.28 113.72"/><polygon class="cls-42" points="22.28 137.44 22.9 137.06 22.9 113.34 22.28 113.72 22.28 137.44"/><polygon class="cls-43" points="21.78 114.04 21.78 137.09 12.19 130.55 12.19 107.5 21.78 114.04"/><polygon class="cls-44" points="21.78 124.56 21.78 137.09 12.19 130.55 21.78 124.56"/><path class="cls-45" d="M245.5,112.7v17.68a79.41,79.41,0,0,1-37.26,7.06,93.13,93.13,0,0,1-12.37-1.4V118.36a93.1,93.1,0,0,0,12.37,1.39A79.38,79.38,0,0,0,245.5,112.7Z"/><path class="cls-46" d="M244,113.38v16.23a74.47,74.47,0,0,1-35,6.62,86.9,86.9,0,0,1-11.6-1.31v-16.3a90.77,90.77,0,0,0,10.84,1.13A79.43,79.43,0,0,0,244,113.38Z"/><g class="cls-47"><path class="cls-9" d="M223.35,121.29v1.61a85.46,85.46,0,0,1-11.15.73c-1.33,0-2.66,0-4-.09-2.93-.14-5.88-.41-8.82-.83V121.1c3,.43,5.94.71,8.89.84A84.55,84.55,0,0,0,223.35,121.29Z"/></g><g class="cls-47"><path class="cls-9" d="M223.35,124.62v1.61a83.75,83.75,0,0,1-11.15.73c-1.33,0-2.66,0-4-.09-2.93-.13-5.88-.4-8.82-.82v-1.62c3,.43,5.94.71,8.89.85A83.61,83.61,0,0,0,223.35,124.62Z"/></g><g class="cls-47"><path class="cls-9" d="M223.35,128v1.61a85.46,85.46,0,0,1-11.15.73c-1.33,0-2.66,0-4-.09-2.93-.14-5.88-.41-8.82-.83v-1.61c3,.43,5.94.71,8.89.84A84.55,84.55,0,0,0,223.35,128Z"/></g><g class="cls-47"><path class="cls-9" d="M217,131.9v1.6c-1.57.09-3.15.13-4.75.13-1.33,0-2.66,0-4-.09-2.93-.13-5.88-.4-8.82-.82V131.1c3,.43,5.94.71,8.89.85A86.52,86.52,0,0,0,217,131.9Z"/></g><path class="cls-9" d="M230.47,120v2.78q-2.5.6-5.07,1V121Q228,120.56,230.47,120Z"/><path class="cls-9" d="M230.47,124.29v2.79c-1.67.4-3.36.73-5.07,1v-2.78C227.11,125,228.8,124.7,230.47,124.29Z"/><path class="cls-9" d="M230.47,128.84v2.78q-2.5.6-5.07,1v-2.79Q228,129.44,230.47,128.84Z"/><path class="cls-9" d="M237.27,118v11.75q-2.51.83-5.07,1.48V119.53C233.91,119.07,235.6,118.56,237.27,118Z"/><path class="cls-9" d="M242.92,115.76v11.87c-1.33.55-2.67,1.07-4,1.54V117.4C240.25,116.89,241.59,116.35,242.92,115.76Z"/><polygon class="cls-9" points="37.89 124.39 37.89 137.44 27.37 130.25 27.37 117.21 37.89 124.39"/><polygon class="cls-42" points="37.89 124.4 38.5 124.02 27.97 116.83 27.35 117.21 37.89 124.4"/><polygon class="cls-42" points="37.89 137.44 38.5 137.06 38.5 124.02 37.89 124.4 37.89 137.44"/><polygon class="cls-48" points="37.38 124.72 37.38 136.53 27.8 129.98 27.8 118.17 27.96 118.28 37.38 124.72"/><polygon class="cls-42" points="37.38 136.29 37.38 136.53 27.8 129.98 27.8 118.17 27.96 118.28 27.96 129.85 37.38 136.29"/><polygon class="cls-42" points="32.84 133.43 33.01 133.3 33.01 121.73 32.84 121.62 32.84 133.43"/><polygon class="cls-42" points="27.8 123.53 27.96 123.4 37.38 129.84 37.38 130.08 27.8 123.53"/><rect class="cls-9" x="32.34" y="121.17" width="0.51" height="12.38"/><polygon class="cls-9" points="27.78 124.17 37.38 130.73 37.38 130.07 27.78 123.52 27.78 124.17"/><polygon class="cls-9" points="53.7 135.18 53.7 148.22 43.17 141.03 43.17 127.99 53.7 135.18"/><polygon class="cls-42" points="53.7 135.18 54.31 134.79 43.77 127.61 43.16 127.99 53.7 135.18"/><polygon class="cls-42" points="53.7 148.22 54.31 147.84 54.31 134.79 53.7 135.18 53.7 148.22"/><polygon class="cls-49" points="53.19 135.5 53.19 147.31 43.6 140.76 43.6 128.95 43.77 129.06 53.19 135.5"/><polygon class="cls-42" points="53.19 147.07 53.19 147.31 43.6 140.76 43.6 128.95 43.77 129.06 43.77 140.63 53.19 147.07"/><polygon class="cls-42" points="48.65 144.21 48.82 144.08 48.82 132.51 48.65 132.4 48.65 144.21"/><polygon class="cls-42" points="43.6 134.31 43.77 134.18 53.19 140.62 53.19 140.86 43.6 134.31"/><rect class="cls-9" x="48.14" y="131.95" width="0.51" height="12.38"/><polygon class="cls-9" points="43.59 134.96 53.19 141.51 53.19 140.85 43.59 134.3 43.59 134.96"/><path class="cls-6" d="M47.42,158.79l.87,5.42h0c.1.67,1.08,1.2,2.29,1.2s2.3-.59,2.3-1.31l.87-5.31Z"/><path class="cls-50" d="M47.63,158.79a.59.59,0,0,0,0,.23l-.25-.23Z"/><path class="cls-51" d="M53.76,158.79l-.87,5.31c0,.53-.55,1-1.35,1.19a.81.81,0,0,0,.2-.52l.79-4.78c.64-.32,1-.77,1-1.2Z"/><ellipse class="cls-52" cx="50.59" cy="158.79" rx="3.17" ry="1.8"/><path class="cls-53" d="M50.59,160.18c-1.62,0-2.76-.73-2.76-1.39s1.14-1.39,2.76-1.39,2.76.73,2.76,1.39S52.22,160.18,50.59,160.18Z"/><path class="cls-54" d="M50.59,160.4c-1.74,0-3-.85-3-1.62s1.21-1.61,3-1.61,2.95.85,2.95,1.61S52.33,160.4,50.59,160.4Z"/><path class="cls-55" d="M53.54,158.79a1,1,0,0,1-.25.61,3.51,3.51,0,0,1-2.7,1c-1.57,0-2.71-.69-2.92-1.39a.83.83,0,0,1,0-.22c0-.77,1.21-1.62,3-1.62S53.54,158,53.54,158.79Z"/><path class="cls-56" d="M53.4,159.26a1.34,1.34,0,0,1-.11.14,3.51,3.51,0,0,1-2.7,1,3.34,3.34,0,0,1-2.8-1.14,3.31,3.31,0,0,1,2.8-1.15A3.35,3.35,0,0,1,53.4,159.26Z"/><path class="cls-57" d="M52.51,156.75a12.61,12.61,0,0,0,.7-2.73s-.7.68-1.56,1.55a8,8,0,0,0-2.39-4.73,11.44,11.44,0,0,1,.25,4.73,3,3,0,0,0-2.31-.66,4,4,0,0,1,1.5,2.38,2.4,2.4,0,0,0-2.53,1.11c1.64-.93,3,.92,3,.92a1.45,1.45,0,0,0,1.41.67,1.75,1.75,0,0,0,1.31-.48,1.21,1.21,0,0,0,.1-.19,8.83,8.83,0,0,1,2.79-2.85A2.48,2.48,0,0,0,52.51,156.75Z"/><path class="cls-58" d="M52.51,156.75a12.61,12.61,0,0,0,.7-2.73s-.7.68-1.56,1.55a8,8,0,0,0-2.39-4.73,11.44,11.44,0,0,1,.25,4.73,3,3,0,0,0-2.31-.66,4,4,0,0,1,1.5,2.38,2.4,2.4,0,0,0-2.53,1.11c1.64-.93,3,.92,3,.92a1.45,1.45,0,0,0,1.41.67,1.75,1.75,0,0,0,1.31-.48,1.21,1.21,0,0,0,.1-.19,8.83,8.83,0,0,1,2.79-2.85A2.48,2.48,0,0,0,52.51,156.75Z"/><path class="cls-6" d="M170.63,136.77l.87,5.41h0c.09.67,1.08,1.2,2.29,1.2s2.3-.58,2.3-1.3l.87-5.31Z"/><path class="cls-59" d="M170.84,136.77a.66.66,0,0,0,0,.23l-.25-.23Z"/><path class="cls-60" d="M177,136.77l-.87,5.31c0,.53-.55,1-1.35,1.19a.82.82,0,0,0,.19-.52l.8-4.78c.64-.32,1-.77,1-1.2Z"/><ellipse class="cls-52" cx="173.8" cy="136.77" rx="3.17" ry="1.8"/><ellipse class="cls-53" cx="173.8" cy="136.77" rx="2.76" ry="1.39"/><path class="cls-61" d="M173.8,138.38c-1.74,0-3-.85-3-1.62s1.21-1.62,3-1.62,2.95.86,2.95,1.62S175.54,138.38,173.8,138.38Z"/><path class="cls-62" d="M176.75,136.76a1,1,0,0,1-.25.62,3.55,3.55,0,0,1-2.7,1c-1.57,0-2.71-.7-2.92-1.39a.91.91,0,0,1,0-.23c0-.76,1.21-1.62,3-1.62S176.75,136,176.75,136.76Z"/><path class="cls-63" d="M176.61,137.23l-.11.15a3.55,3.55,0,0,1-2.7,1,3.31,3.31,0,0,1-2.8-1.15,3.34,3.34,0,0,1,2.8-1.14A3.38,3.38,0,0,1,176.61,137.23Z"/><path class="cls-57" d="M175.72,134.73a12.92,12.92,0,0,0,.7-2.73s-.7.68-1.56,1.55a8,8,0,0,0-2.39-4.73,11.44,11.44,0,0,1,.25,4.73,3,3,0,0,0-2.31-.66,4,4,0,0,1,1.5,2.38,2.4,2.4,0,0,0-2.53,1.11c1.64-.94,3,.91,3,.91a1.44,1.44,0,0,0,1.41.68,1.75,1.75,0,0,0,1.31-.49.88.88,0,0,0,.1-.19,8.75,8.75,0,0,1,2.79-2.84A2.48,2.48,0,0,0,175.72,134.73Z"/><path class="cls-64" d="M175.72,134.73a12.92,12.92,0,0,0,.7-2.73s-.7.68-1.56,1.55a8,8,0,0,0-2.39-4.73,11.44,11.44,0,0,1,.25,4.73,3,3,0,0,0-2.31-.66,4,4,0,0,1,1.5,2.38,2.4,2.4,0,0,0-2.53,1.11c1.64-.94,3,.91,3,.91a1.44,1.44,0,0,0,1.41.68,1.75,1.75,0,0,0,1.31-.49.88.88,0,0,0,.1-.19,8.75,8.75,0,0,1,2.79-2.84A2.48,2.48,0,0,0,175.72,134.73Z"/><path class="cls-65" d="M71,136.44h.08L70.7,136h0a3.56,3.56,0,0,0-3.47-1.08A5.46,5.46,0,0,0,62.94,140h0a3.61,3.61,0,0,0,.84,2.38h0l.51.58,0-.12a3.7,3.7,0,0,0,3,.61,5.47,5.47,0,0,0,4.3-5.13A3.71,3.71,0,0,0,71,136.44Z"/><path class="cls-66" d="M67.72,144h0a3.44,3.44,0,0,1-4.29-3.46h0a5.48,5.48,0,0,1,4.29-5.13h0A3.44,3.44,0,0,1,72,138.89h0A5.47,5.47,0,0,1,67.72,144Z"/><path class="cls-9" d="M67.72,144h0a3.44,3.44,0,0,1-4.29-3.46h0a5.48,5.48,0,0,1,4.29-5.13h0A3.44,3.44,0,0,1,72,138.89h0A5.47,5.47,0,0,1,67.72,144Z"/><path class="cls-67" d="M67.72,143.54h0a3,3,0,0,1-3.81-3.07h0a4.84,4.84,0,0,1,3.81-4.55h0A3,3,0,0,1,71.53,139h0A4.86,4.86,0,0,1,67.72,143.54Z"/><polygon class="cls-68" points="67.29 139.94 67.43 140.06 67.4 139.91 67.32 139.9 67.29 139.94"/><polygon class="cls-69" points="67.87 139.29 67.97 139.37 67.92 139.41 67.87 139.29"/><path class="cls-70" d="M70.61,138.52l-.19-.09h0a.14.14,0,0,0-.11,0l-2.39.92a.31.31,0,0,0-.26-.12V136.5l.1-.07-.18-.09h0l0,0a.13.13,0,0,0-.14.13v2.87a.48.48,0,0,0-.19.37.31.31,0,0,0,.39.32.51.51,0,0,0,.39-.42l2.43-.93a.09.09,0,0,0,.06-.06h.08Z"/><path class="cls-9" d="M67.72,140.12h0a.32.32,0,0,1-.4-.32h0a.51.51,0,0,1,.4-.47h0a.31.31,0,0,1,.39.32h0A.49.49,0,0,1,67.72,140.12Z"/><path class="cls-9" d="M67.58,139.92v-3.36a.14.14,0,0,1,.14-.14.13.13,0,0,1,.13.14v3l2.66-1a.12.12,0,0,1,.17.07.13.13,0,0,1-.08.17Z"/><path class="cls-71" d="M281.88,85.83v17.28q-9.69,12.36-27.16,23.28c-.71.44-1.43.88-2.15,1.29V110.41c.72-.42,1.44-.85,2.15-1.3a128.26,128.26,0,0,0,14.65-10.54c.55-.46,1.09-.92,1.62-1.39s1.26-1.11,1.87-1.68c.31-.28.61-.55.91-.84s.6-.56.88-.85c.67-.64,1.31-1.28,1.93-1.92l.61-.65c.67-.7,1.31-1.4,1.94-2.11.23-.26.46-.52.68-.79.42-.48.83-1,1.22-1.45.22-.27.43-.54.65-.8Z"/><path class="cls-72" d="M281.24,102.85c-3.37,4.38-8.6-.29-15.07,1-8.49,1.71-11.33,9.57-11.33,9.57a33.16,33.16,0,0,0-1.34,3.93"/><path class="cls-36" d="M276.84,136.75s0,.55,0,.65.06.19,0,.28-1.3,2.68-1.92,2.61c-.46,0-1.11-.53-.38-.78.36-.21.62-2.23.64-2.28s0-.92.06-.64"/><path class="cls-36" d="M279.52,135.65s0,.56,0,.66.06.18,0,.27-1.3,2.68-1.92,2.62c-.46,0-1.11-.53-.38-.78.36-.21.62-2.23.64-2.29s0-.92.06-.64"/><path class="cls-42" d="M280.16,130.37a37.45,37.45,0,0,1-.51,5.55s-.36.58-1.74-.19c0,0-.21-5.55-.44-7.12a11,11,0,0,0-.25-1.27h0a12.91,12.91,0,0,1-.56-3,36.81,36.81,0,0,1,.29-4.25c.17-1.59.35-3,.35-3a3.58,3.58,0,0,0,2.41-.94,4.91,4.91,0,0,1,.59,4.56,5,5,0,0,0-.41,1.71c-.06.79-.14,1.86-.18,2.8-.06,1.53-.17,2-.11,2.14A9.15,9.15,0,0,1,280.16,130.37Z"/><path class="cls-73" d="M278.24,122.08a23.91,23.91,0,0,0-1,5.25,12.91,12.91,0,0,1-.56-3,36.81,36.81,0,0,1,.29-4.25l1.47-1.16A7.81,7.81,0,0,1,278.24,122.08Z"/><path class="cls-42" d="M274.3,116.9a26.14,26.14,0,0,0-.71,4.71,41.84,41.84,0,0,0,.54,6.68c.11.82.37,2.09.6,4.13s.38,4.36.38,4.36,1.39.79,1.93.1c0,0,.34-5.42.18-7.1s-.5-1.8-.46-2.35a37.68,37.68,0,0,1,.81-5.15,5.23,5.23,0,0,0,.31-5.28A8.35,8.35,0,0,1,274.3,116.9Z"/><path class="cls-74" d="M276.9,110l-.13,0-.1,0L273,105.72a.22.22,0,0,0-.29,0L266.93,110l-.18-.06-.05.28h0a.2.2,0,0,0,0,.18l3.75,4.4a.24.24,0,0,0,.33,0l5.95-4.37a.16.16,0,0,0,.07-.14h0Z"/><path class="cls-75" d="M276.83,110.09l-5.95,4.37a.25.25,0,0,1-.33,0L266.8,110a.18.18,0,0,1,0-.27l6-4.38a.22.22,0,0,1,.29,0l3.77,4.44A.17.17,0,0,1,276.83,110.09Z"/><path class="cls-76" d="M276.52,110.08l-5.58,4.1a.23.23,0,0,1-.31,0L267.11,110a.18.18,0,0,1,0-.26l5.6-4.11a.2.2,0,0,1,.27,0l3.54,4.16A.17.17,0,0,1,276.52,110.08Z"/><path class="cls-36" d="M269.69,112.33a1,1,0,0,1-.17-.26,1,1,0,0,0-.17-.39c-.12-.16-.46-.75-.53-.71a.43.43,0,0,0-.09.44c.06.23.15.38.16.44s-.4.07-.64,0a2.59,2.59,0,0,1-.63-.47c-.09,0,0,.7.09.92a4.35,4.35,0,0,0,.61.74"/><path class="cls-36" d="M276.38,109.93l-.72-.69a.87.87,0,0,0-.32-.22,1.45,1.45,0,0,1-.34-.2c-.17-.13-.24-.49-.31-.62s-.48-.49-.51-.58-.06-.26.08-.24a4.5,4.5,0,0,1,.82.45l-.37-.53s.53.22.85.39.41.62.54.73,1,.79,1,.79"/><path class="cls-11" d="M275,102.83a1.49,1.49,0,0,0,.34,1.38c.57.53.32-1.16.32-1.16"/><path class="cls-36" d="M278.43,109.11l-2-.22-.3.1a9.38,9.38,0,0,0,0-1.88.23.23,0,0,0-.31-.22.75.75,0,0,1-.47.08c-.34-.22-.36-1.64-.33-2.32s.1-1.5.1-1.5a3.93,3.93,0,0,1,2.55.4c.59.4.55,2.78.53,3.22s0,1.5,0,1.5Z"/><path class="cls-11" d="M279.57,114.41a5.33,5.33,0,0,0,.55,2.45,7.7,7.7,0,0,1-3.47,1.34,4.08,4.08,0,0,1-2.55-.41s.24-1.24.35-2.25a7.26,7.26,0,0,0,0-.88c0-.4-.12-1.15-.22-1.93a8.87,8.87,0,0,1-.1-2.59c.23-.73,2-1.85,2-1.85s2.14.14,2.09-.47a4,4,0,0,1,1.69.08c.53.24.62,1.7.45,2.93S279.66,113.17,279.57,114.41Z"/><path class="cls-16" d="M276.18,111.53a26.15,26.15,0,0,1-.79,2.89s-.18,0-.43,0l-.51,1.12a7.26,7.26,0,0,0,0-.88c0-.4-.12-1.15-.22-1.93l.09-.28Z"/><path class="cls-36" d="M275.06,113.47s-.82,1.64-1.15,2.14-.62.86-1.39.3h0a37.67,37.67,0,0,0-3.16-2.68c-.27,0-.31,0-.61,0a.84.84,0,0,1-.43-.19,4.58,4.58,0,0,0,.64-1.26c.22.14.63.49.9.65s2,1.08,2.91,1.6c.07-.17.37-1,.43-1.21C273.21,112.82,275,113.49,275.06,113.47Z"/><path class="cls-11" d="M274.17,110.14,273,113.06a3.52,3.52,0,0,0,2.1,1,12.1,12.1,0,0,0,1.2-3.12"/><path class="cls-11" d="M278.26,107.46l.11.34a.59.59,0,0,1-.4.52,3.76,3.76,0,0,1-1.93.06l.15-.47A2.92,2.92,0,0,0,278.26,107.46Z"/><path class="cls-11" d="M277.53,106.73a2.63,2.63,0,0,0,0,2.28,1.18,1.18,0,0,0,2.1-.77c-.16-1.32-.83-1.65-.83-1.65"/><path class="cls-11" d="M279.57,103.81c-.18-1.27-1.14-2.36-3.28-2-.45.07-1.44.46-1.34,1.27a.8.8,0,0,0,.12.34c-.13.45-.14,1.31,1.26,2,0,.24.14.29.19.72a1.29,1.29,0,0,0,1.61,1C278.82,107,279.9,106.1,279.57,103.81Z"/><path class="cls-9" d="M277.33,138.24a10.89,10.89,0,0,1-.43,1.23c0,.24-.17,1.76-.17,1.76h-.25l-.06-1.72h0c0,.06-.2.57-.28.87s-.83.58-1.08.57a4,4,0,0,1-1.61-1.2c-.26-.44,1.18-.25,1.18-.25s-.4.21-.23.39.54.1.8-.24.84-2.77,1.75-2.17A.94.94,0,0,1,277.33,138.24Z"/><path class="cls-77" d="M276.42,139.51h0c0,.06-.2.57-.28.87s-.83.58-1.08.57c.12,0,.3-.3.53-.75.36-.69.58-1,.7-.9A.3.3,0,0,1,276.42,139.51Z"/><path class="cls-9" d="M280,137.14a11.1,11.1,0,0,1-.43,1.24c-.05.23-.17,1.75-.17,1.75h-.25l-.06-1.72h0c0,.06-.2.58-.28.87s-.83.58-1.08.57a3.93,3.93,0,0,1-1.61-1.2c-.26-.44,1.18-.24,1.18-.24s-.4.2-.23.39.54.09.8-.25.84-2.77,1.75-2.17A.94.94,0,0,1,280,137.14Z"/><path class="cls-77" d="M279.1,138.41h0c0,.06-.2.58-.28.87s-.83.58-1.08.57c.12,0,.3-.29.53-.75.36-.69.58-1,.7-.9A.33.33,0,0,1,279.1,138.41Z"/><path class="cls-78" d="M84.13,130.78a2.25,2.25,0,0,0-.43,1c0,.47.15.71.21,1.83s.7,2.26,1.63,2.36a.43.43,0,0,0,.46-.39,3.52,3.52,0,0,0-.18-1.57,14,14,0,0,0-.88-1.81"/><path class="cls-78" d="M86.72,129.11a1.65,1.65,0,0,0-.38.74,2.8,2.8,0,0,0,.19,1.13c.1.36.08,1.57.12,1.61a.14.14,0,0,0,.18,0l0-1.58a.62.62,0,0,1,.34.44,10.94,10.94,0,0,0,.23,1.7c.06.15,1.48.93,2,.66a.86.86,0,0,0,0-.6,2.28,2.28,0,0,0-.5-.79c-.17-.18-1-1.6-1-1.6"/><path class="cls-7" d="M86.27,123.2a4.79,4.79,0,0,0,0,2.54,8.1,8.1,0,0,1,.4,3.63c-.19.71,0,.85.08,1.1a3.52,3.52,0,0,1,.75,1.32c.11.66.4,1,1,1s.52-.36.52-.36a4.18,4.18,0,0,1-.42-1.26c-.15-.84-.61-1.28-.67-2.23s.51-7.87.39-8.19a1.53,1.53,0,0,0-.63-.82,12,12,0,0,0-2.9-.2l-1,1.12.8,1"/><path class="cls-7" d="M83.38,123.35a2.06,2.06,0,0,1,.19.71,27.54,27.54,0,0,0-.09,3c.11,1,.45,2.76.48,4s.15,3,.56,3.47,1.32.34,1.35-.15-.67-2.87-.68-3.46.68-4.29.68-5.09a27.14,27.14,0,0,0,.16-3.3,4.92,4.92,0,0,0-1.48-1.82S82.51,122.06,83.38,123.35Z"/><path class="cls-78" d="M88.12,120.23s.32.17.32.79-.47,7.86-.47,7.86a.89.89,0,0,1-.75.13,1.15,1.15,0,0,1-.56-.27s-.22-2-.32-2.41-.36-1.39-.43-2a3.34,3.34,0,0,1,.17-1.15,12.22,12.22,0,0,0-1.34-1Z"/><path class="cls-78" d="M83.79,130.22s.37.62,1.49.27c0,0,.52-3.19.64-4a28.4,28.4,0,0,0,.3-3.82,5.78,5.78,0,0,0-1.6-2.18c-.4-.32-2.07,1.38-1.39,2.82a1.65,1.65,0,0,1,.23.88,21,21,0,0,0-.12,2.4C83.37,127.49,83.79,130.22,83.79,130.22Z"/><path class="cls-78" d="M77.33,117.12a3.66,3.66,0,0,0-.53,2.52c.2,1.54.85,1.89,2.32,2.55a23.86,23.86,0,0,0,4.26,1.16,1.83,1.83,0,0,1,.56-1.34,19.87,19.87,0,0,1,3.71-2.09,12.49,12.49,0,0,0-1.24-.87A34.88,34.88,0,0,1,83,117.12a4.66,4.66,0,0,1-.4-2S78.12,115.68,77.33,117.12Z"/><path class="cls-79" d="M90.06,119.09l-.14.07-4-2.43a.22.22,0,0,0-.22,0l-6.08,3.36v0h-.23v.24h0a.11.11,0,0,0,0,.09l4.07,2.5a.24.24,0,0,0,.23,0L90,119.44a.14.14,0,0,0,.07-.11h0Z"/><path class="cls-80" d="M90,119.2l-6.21,3.43a.24.24,0,0,1-.23,0l-4.07-2.5a.12.12,0,0,1,0-.2l6.25-3.45a.22.22,0,0,1,.22,0L90,119A.14.14,0,0,1,90,119.2Z"/><path class="cls-81" d="M88.35,118.44a1,1,0,0,1-1,.31c-.22,0-.32-.24-.42-.35a2.7,2.7,0,0,0-.37-.28c-.15-.14-.45-.18-.58-.43s-.14-.44-.29-.55S83.83,116,83.83,116l.72-.87a13.25,13.25,0,0,0,1.81,1.18,4,4,0,0,1,1.49.89A1.47,1.47,0,0,1,88.35,118.44Z"/><path class="cls-11" d="M85.05,115.38a1.26,1.26,0,0,0-.62.66,2.69,2.69,0,0,0-.1.33s-1.28-.78-2.19-1.41a4.16,4.16,0,0,1-.88-.72c-.15-.23-.11-.63-.12-1.42s-.09-2.82,0-4.22,1.11-1.32,1.11-1.32c.65.07,1.13.74,1.15,1.75a23.19,23.19,0,0,1-.29,2.89c-.06.45-.12.85-.17,1.14a.75.75,0,0,0,0,.15.7.7,0,0,0,.26.53C84,114.41,85.05,115.38,85.05,115.38Z"/><path class="cls-82" d="M84.43,116a2.69,2.69,0,0,0-.1.33s-1.28-.78-2.19-1.41l-.08-1.35.37-.38.22-1.12.48-.19c-.06.45-.12.85-.17,1.14v.15a11.31,11.31,0,0,0,0,1.54C83,115.1,84.06,115.8,84.43,116Z"/><path class="cls-11" d="M83.63,111.36l-.06.14h0a3.51,3.51,0,0,1-.41.71,1.62,1.62,0,0,0-.27.5h0a1.72,1.72,0,0,0-.11.5,10.53,10.53,0,0,0,.42,4s-1.78,1.91-3.79,1.91-2.63-.88-2.63-.88.49-1.21.83-2a5.74,5.74,0,0,0,.06-2.78c-.19-1-1.34-3.62-.55-4.75s3.76-1.44,5.08-1.5a.78.78,0,0,1,.81.83,2.79,2.79,0,0,0,0,1.12C83.29,109.85,83.89,110.61,83.63,111.36Z"/><path class="cls-83" d="M81.42,108.09s.42.53,0,.7C81.39,108.79,81.39,108.4,81.42,108.09Z"/><path class="cls-7" d="M79.34,106.46s-.11,1-.14,1.28a1.74,1.74,0,0,0,2.19,1.05,4.63,4.63,0,0,1,.52-2.28l-2.06-.85h-.43"/><path class="cls-81" d="M82.94,103.16a7,7,0,0,1-.15,2.66c-.37,1.25-.88,1.6-1.16,1.62a3.51,3.51,0,0,1-2.33-1.81,4.36,4.36,0,0,1-.32-2.89,2.31,2.31,0,0,1,2.31-1.17A1.9,1.9,0,0,1,82.94,103.16Z"/><path class="cls-11" d="M80,101.8l-.57.7L79,103s-1.31-.18-1.5-1.07a1,1,0,0,1,0-.45,1.24,1.24,0,0,1,.28-.49C78.31,100.39,79.56,100.51,80,101.8Z"/><path class="cls-84" d="M79.39,102.5,79,103s-1.31-.18-1.5-1.07a1,1,0,0,1,0-.45s.47,1.12,1.45,1A.92.92,0,0,1,79.39,102.5Z"/><path class="cls-11" d="M83,102.56a.41.41,0,0,0,0-.09,2.59,2.59,0,0,0-4.1-.32,3.37,3.37,0,0,0-.74,1.62h0A2.57,2.57,0,0,0,78.9,106c.17.33.41.65.44.44s0-.9.48-.93v-.09c0-.21,0-.4,0-.57s.42-.41.88-.51c-.12.17-.23.36-.13.4a4.11,4.11,0,0,0,2.24-1A1,1,0,0,0,83,102.56Z"/><path class="cls-81" d="M80,105s-.17-.29-.44-.25-.3.46-.21.8a.61.61,0,0,0,.62.46"/><path class="cls-85" d="M91.8,114.39l-.24-.15h0a.11.11,0,0,0-.11,0l-6.2,3.39a.29.29,0,0,0-.14.17l-1.73,4.66a.08.08,0,0,0,0,.08h0l.23.14.14-.11-.11-.13,6-3.3a.41.41,0,0,0,.19-.22l1.61-4.32.17-.07A1.3,1.3,0,0,0,91.8,114.39Z"/><path class="cls-86" d="M85.35,117.94l-1.73,4.66a.08.08,0,0,0,.11.1L90,119.29a.45.45,0,0,0,.19-.22l1.69-4.56a.11.11,0,0,0-.15-.13l-6.2,3.4A.32.32,0,0,0,85.35,117.94Z"/><path class="cls-87" d="M82.31,112.61c-.4.13-1.3.41-2.07.63a2,2,0,0,1-.81-.09c-.34-.14-.43-1.23-.43-1.23,0-.5,0-.87,0-.87l-1.2,2.4.34,1.88,2.12.91L79,114.68v-.33h0a.33.33,0,0,1,.23-.3c.37-.13,1.1-.48,1.58-.63a14.77,14.77,0,0,0,2.1-.69h0a1.62,1.62,0,0,1,.27-.5,3.51,3.51,0,0,0,.41-.71A2.82,2.82,0,0,1,82.31,112.61Z"/><path class="cls-81" d="M84,119.68a.72.72,0,0,1-.87.3c-.22,0-.51-.44-.61-.55s-.33-.08-.41-.11a.79.79,0,0,1-.52-.4c-.14-.28-.13-.44-.28-.54s-1.83-1.19-1.83-1.19l.72-.88A14.11,14.11,0,0,0,82,117.5a4.15,4.15,0,0,1,1.49.88A1.49,1.49,0,0,1,84,119.68Z"/><path class="cls-11" d="M77.71,108.43s-.85,0-1,1.4,0,3.43,0,4.22a3.66,3.66,0,0,0,.11,1.43,23.67,23.67,0,0,0,3.08,2.12,1.42,1.42,0,0,1,.72-1s-1.16-1-1.93-1.71a.52.52,0,0,1-.18-.48,39.87,39.87,0,0,0,.48-4.16A1.79,1.79,0,0,0,77.71,108.43Z"/><path class="cls-88" d="M181.85,177.21l-7.31-4.43a.21.21,0,0,1,0-.35l11.93-7.22a.84.84,0,0,1,.84,0l7.27,4.4a.21.21,0,0,1,0,.35l-12,7.25A.77.77,0,0,1,181.85,177.21Z"/><path class="cls-3" d="M181.73,178.78l-9.86-6a.27.27,0,0,1,0-.47l15.27-9.22a1.11,1.11,0,0,1,1.14,0l9.8,5.93a.28.28,0,0,1,0,.47l-15.34,9.26A1,1,0,0,1,181.73,178.78Z"/><path class="cls-89" d="M184.83,158.12l-10.39-.27V169a.22.22,0,0,0,.1.18l7.31,4.42a.72.72,0,0,0,.75,0l12-7.25a.21.21,0,0,0,.09-.18V155Z"/><path class="cls-6" d="M181.85,162.45,174.54,158a.21.21,0,0,1,0-.35l11.93-7.22a.79.79,0,0,1,.84,0l7.27,4.39a.21.21,0,0,1,0,.35l-12,7.25A.72.72,0,0,1,181.85,162.45Z"/><path class="cls-90" d="M285.67,180.43l-5.48,2.85a1.05,1.05,0,0,1-1.07,0l-26.86-16.59a.34.34,0,0,1,0-.6l6-3.14a.76.76,0,0,1,.77,0l26.63,16.44A.61.61,0,0,1,285.67,180.43Z"/><path class="cls-3" d="M289.48,181.27l-8.37,4.37a1.65,1.65,0,0,1-1.64-.06l-30.66-19a.54.54,0,0,1,0-.93l9.22-4.8a1.2,1.2,0,0,1,1.19,0l30.29,18.8A.92.92,0,0,1,289.48,181.27Z"/><g class="cls-2"><g class="cls-2"><g class="cls-91"><g class="cls-2"><path class="cls-92" d="M256.93,141.24l5-2a9.63,9.63,0,0,0-2.64,1.62l-5,2a9.54,9.54,0,0,1,2.65-1.62"/></g></g></g><g class="cls-2"><g class="cls-93"><g class="cls-2"><path class="cls-92" d="M260.83,150l5-2a6.34,6.34,0,0,0-1.75,1.07l-5,2a6.11,6.11,0,0,1,1.75-1.07"/></g></g></g><g class="cls-2"><g class="cls-94"><g class="cls-2"><path class="cls-92" d="M264.58,158.42l5-2a3.12,3.12,0,0,0-.89.54l-5,2a3.26,3.26,0,0,1,.89-.54"/></g></g></g><path class="cls-6" d="M267.74,161.42a4.24,4.24,0,0,1,.65.31c2.3,1.3,4.18,4.74,4.2,7.69,0,2.66-1.49,4-3.47,3.29a4.33,4.33,0,0,1-.66-.31c-2.3-1.3-4.18-4.75-4.2-7.7C264.25,162,265.75,160.7,267.74,161.42Z"/><path class="cls-95" d="M277.58,167.4a1.93,1.93,0,0,0,0-.24,1.93,1.93,0,0,0,0-.24v-.09c0-.06,0-.11,0-.17a2.51,2.51,0,0,0,0-.27.17.17,0,0,0,0-.07v-.07s0-.09,0-.14l-.06-.3s0,0,0-.06,0-.05,0-.08,0-.12,0-.18l-.09-.33h0l-.12-.39,0-.09-.06-.2a1.34,1.34,0,0,1-.07-.18.61.61,0,0,1-.05-.12l-.12-.3-.12-.26c-.05-.1-.09-.2-.14-.29s-.09-.17-.13-.26l-.16-.28c0-.08-.09-.16-.14-.24s-.11-.18-.17-.27l-.1-.16a.35.35,0,0,1-.05-.08l-.18-.23-.11-.17-.06-.07-.13-.15-.11-.15-.12-.13L275,161l-.06-.07-.25-.26,0,0,0,0-.17-.15-.19-.17h0l-.21-.16a1.33,1.33,0,0,0-.19-.14h0l-.19-.13-.19-.11,0,0-.14-.08-.18-.09h0l-.15-.06-.16-.07h0l-.17-.06h-.05l-.06,0h-.06l-.14,0h0l-.17,0h-.65l-.11,0h-.07l-.18,0h0l-.11,0-5,2,.15,0,.18-.05h.07l.11,0H267l.21,0h0l.21.05.05,0,.23.07.31.13h0a2.48,2.48,0,0,1,.32.17c.15.08.29.17.43.26h0c.13.09.27.2.4.31h0l.35.32,0,0,.33.34.09.11.24.28.12.15.18.23.17.24.15.24a2.46,2.46,0,0,1,.17.27l.15.24.15.28c.05.09.09.17.13.26a2.59,2.59,0,0,1,.14.29l.12.26.12.29.12.31a1.59,1.59,0,0,0,.07.2l.15.49h0c.05.17.09.34.13.51l0,.08a4,4,0,0,1,.09.5v.07a4.53,4.53,0,0,1,.06.5v0c0,.18,0,.36,0,.54s0,.43,0,.63h0a4.68,4.68,0,0,1-.09.56h0a3.17,3.17,0,0,1-.13.49v0a2.77,2.77,0,0,1-.18.43h0a3.79,3.79,0,0,1-.2.34l-.05.07a2.37,2.37,0,0,1-.25.29l0,0a2.31,2.31,0,0,1-.24.2l-.08.05-.32.17h0l5-2a2.48,2.48,0,0,0,.32-.17l.08,0,.24-.2.05,0,.21-.24,0,0,.06-.07.08-.12.12-.22h0a.66.66,0,0,0,.09-.19,1.08,1.08,0,0,0,.08-.19s0,0,0-.05v0l0-.1a1.8,1.8,0,0,0,.05-.19c0-.06,0-.13.05-.19h0v0l0-.16,0-.19a1.5,1.5,0,0,0,0-.2h0c0-.07,0-.13,0-.2s0-.14,0-.22v-.21Z"/><path class="cls-96" d="M280.93,160.06a.35.35,0,0,1-.05-.08c-.2-.37-.41-.74-.62-1.09a1.74,1.74,0,0,0-.11-.18c-.21-.36-.44-.72-.67-1.06l0-.05a.18.18,0,0,1-.05-.07c-.26-.38-.53-.75-.8-1.11v0l-.06-.06c-.2-.26-.4-.51-.61-.76a1,1,0,0,1-.08-.11l-.07-.07c-.2-.24-.41-.46-.61-.69h0l0,0c-.18-.2-.37-.38-.55-.57l-.05-.05a1.29,1.29,0,0,1-.17-.16l-.34-.31-.08-.07-.18-.16-.27-.23-.09-.08-.21-.16-.23-.19-.08-.06-.26-.19-.19-.14-.05,0-.44-.3,0,0h0l-.47-.29-.1-.05-.35-.2h0l-.29-.14-.13-.07h0c-.11-.06-.22-.1-.33-.15l-.09,0h0l-.41-.16h0l-.42-.15-.13,0-.15,0-.14,0-.37-.08h-.06l-.43-.07h-.1l-.15,0h-.66l-.27,0h-.23l-.23,0-.28,0h0a2.73,2.73,0,0,0-.41.1l-.1,0-.17,0-.28.11-5,2,.45-.16.1,0,.45-.1.28,0,.28,0h.72l.39,0,.16,0,.54.08h0l.52.12.14,0,.57.19.41.16.09,0,.33.14.15.08.28.14.38.2.57.35,0,0,.49.33.2.14.33.25.24.19.29.23.27.24.27.23.33.31.22.21c.19.19.37.37.55.57l0,0c.21.22.41.45.61.69l.16.18c.2.25.41.5.61.76l.06.08c.28.36.54.73.8,1.11l.08.11c.23.35.46.71.68,1.07a1.74,1.74,0,0,0,.11.18c.21.35.41.72.61,1.08l.26.5,5-2Z"/><polygon class="cls-97" points="276.15 162.48 281.13 160.47 278.08 162.28 273.1 164.29 276.15 162.48"/><path class="cls-6" d="M266.7,152.87a11.32,11.32,0,0,1,1.64.76,21.3,21.3,0,0,1,7.81,8.85l-3,1.81a12.9,12.9,0,0,0-4.72-5.35,6.8,6.8,0,0,0-1-.46,3.55,3.55,0,0,0-3.69.48l-3.1-5.29A5.89,5.89,0,0,1,266.7,152.87Z"/><path class="cls-98" d="M270,146.84l.31.22.53.4.38.29.46.38.44.38.41.36.53.5.35.33c.3.29.59.59.88.89l0,0c.33.35.65.71,1,1.08.16.19.32.37.47.56l.18.22c.23.28.46.57.68.86.1.12.19.25.28.37l.44.6c.09.13.19.28.29.41l.4.59.26.39.39.61.27.43.36.6.26.45c.11.2.23.4.34.61s.17.3.25.45l.48.9,5-2c-.1-.22-.21-.43-.33-.64a2.15,2.15,0,0,0-.14-.26c-.08-.16-.17-.31-.25-.46s-.23-.41-.34-.61-.18-.3-.26-.45-.24-.4-.37-.6l-.26-.43-.39-.61c-.09-.13-.18-.26-.26-.39l-.07-.11-.33-.47-.3-.42-.43-.59-.28-.38,0,0c-.21-.28-.42-.55-.64-.82l-.18-.21-.37-.45-.1-.12c-.32-.37-.65-.73-1-1.08h0l0,0c-.29-.31-.59-.61-.88-.9l-.08-.08-.27-.25-.53-.5a.69.69,0,0,0-.13-.11,3.47,3.47,0,0,0-.29-.25l-.43-.38-.14-.12-.33-.25-.37-.3-.13-.1-.41-.29-.3-.23-.08-.05-.75-.5h0l-.74-.45-.17-.09-.56-.31-.05,0c-.15-.07-.3-.14-.44-.22l-.22-.1h0l-.52-.23-.15-.07h0l-.65-.25h0l0,0-.55-.18-.07,0-.11,0-.45-.12-.11,0-.07,0-.6-.13h-.06l-.55-.09h-.17l-.59-.06h0c-.22,0-.44,0-.66,0h-.13q-.35,0-.69,0h-.2l-.22,0-.22,0-.21,0h-.07l-.1,0-.35.08-.16.05-.37.11-.09,0h0l-.43.16-5,2,.43-.16.11,0,.37-.12.16,0,.35-.08.17,0,.22,0,.21,0,.22,0,.2,0q.35,0,.69,0h.83a5.9,5.9,0,0,1,.59.06l.17,0a5.25,5.25,0,0,1,.55.09h.06l.61.13.17,0,.45.12.18.06.55.18.07,0c.22.07.43.16.65.25l.15.06.52.24.23.11.45.22.61.33.91.55h0Z"/><path class="cls-6" d="M265.68,144.52a16.77,16.77,0,0,1,2.61,1.21c4.9,2.77,9.32,8,12.4,14l-3.05,1.82c-2.31-4.54-5.64-8.47-9.31-10.55a12.71,12.71,0,0,0-2-.91c-2.87-1-5.42-.65-7.28,1l-3.09-5.3C258.46,143.66,261.85,143.12,265.68,144.52Z"/><polygon class="cls-97" points="280.69 159.78 285.67 157.77 282.62 159.58 277.63 161.59 280.69 159.78"/><path class="cls-6" d="M264.62,135.81a23.82,23.82,0,0,1,3.62,1.69c6.79,3.84,12.92,11.08,17.18,19.46l-3.05,1.82c-3.5-6.89-8.53-12.82-14.1-16a18.75,18.75,0,0,0-3-1.39c-4.36-1.59-8.21-1-11,1.44l-3.09-5.29C254.61,134.62,259.31,133.88,264.62,135.81Z"/><path class="cls-99" d="M270.66,139l.43.31.73.55.53.41.64.52.6.52c.2.17.39.33.58.51l.74.68.54.52.2.2c.34.34.68.69,1,1l0,0c.32.35.64.7.95,1.06a3.47,3.47,0,0,1,.25.29c.26.29.52.6.77.9l.24.29c.32.4.63.79.94,1.2l.39.53c.2.27.41.53.6.81l.41.58.55.8.36.54c.18.29.37.57.55.85l.36.59c.17.28.34.56.5.84l.36.61.48.85.34.62c.23.42.45.85.67,1.27l5-2-.48-.92-.19-.34-.34-.63-.48-.85-.36-.61c-.16-.28-.33-.56-.5-.84l-.37-.59-.54-.84c-.12-.18-.24-.37-.36-.54l-.1-.16-.45-.65-.41-.58-.6-.82-.39-.52,0-.06c-.29-.39-.59-.76-.89-1.13l-.24-.3c-.18-.2-.35-.41-.52-.62l-.25-.28-.25-.29-.95-1.06,0,0h0c-.33-.36-.66-.7-1-1a1.89,1.89,0,0,1-.2-.2l-.18-.17-.37-.35c-.24-.23-.48-.46-.73-.68l-.18-.17-.4-.34-.6-.52-.2-.17-.45-.35c-.17-.14-.34-.28-.52-.41l-.17-.14-.56-.41-.43-.31-.11-.07c-.33-.24-.67-.46-1-.68l0,0h0l-1-.62-.23-.13-.78-.43-.07,0c-.2-.11-.41-.21-.62-.31l-.29-.14,0,0-.72-.32-.2-.08h0l-.9-.35h0l-.06,0-.77-.26-.1,0-.15,0-.62-.18-.16,0-.08,0-.84-.19h-.09l-.76-.13h-.12l-.11,0-.82-.08h-.06c-.3,0-.61,0-.91,0h-.5l-.36,0-.23,0h-.11l-.21,0-.31,0-.3,0-.3.05-.09,0-.14,0-.48.11-.23.06-.52.16-.12,0h0l-.6.22-5,2,.59-.22.16-.05.51-.15.23-.06.48-.11.23-.05.3,0,.31,0,.3,0,.32,0,.23,0,.36,0H259l.91,0h.05l.82.08.23,0,.77.13h.08l.84.19.24.06.62.17.25.08c.26.08.51.16.77.26l.09,0c.3.11.6.22.9.35l.21.09.72.32.33.16.61.31c.29.14.57.3.85.46l1.26.75,0,0C269.92,138.52,270.29,138.77,270.66,139Z"/><polygon class="cls-97" points="285.42 156.96 290.41 154.95 287.36 156.77 282.37 158.78 285.42 156.96"/></g><path class="cls-42" d="M168.72,107.77v25q-6-2.88-12-6.5l-1.09-.66v-25l1.09.66Q162.73,104.87,168.72,107.77Z"/><polygon class="cls-42" points="154.78 100.94 155.62 100.61 156.13 101.47 155.92 101.79 154.78 100.94"/><polygon class="cls-42" points="167.87 133.12 168.72 132.78 168.02 131.89 167.71 132.07 167.73 132.6 167.87 133.12"/><path class="cls-9" d="M167.87,108.1v25q-6-2.88-12-6.5l-1.09-.66v-25l1.09.66Q161.87,105.22,167.87,108.1Z"/><path class="cls-100" d="M167.35,108.43v24.43q-5.52-2.66-11-6l-1-.61V101.84l1,.61Q161.84,105.76,167.35,108.43Z"/><path class="cls-101" d="M167.35,118.86v14q-5.52-2.66-11-6l-1-.61Z"/><polygon class="cls-102" points="71.47 114.76 60.99 121.31 52.8 126.43 51.12 125.25 51.12 125.25 48.84 123.66 46.64 122.11 44.37 120.52 44.37 120.52 42.16 118.98 42.16 118.98 39.89 117.39 37.68 115.84 37.3 115.58 35.41 114.25 33.21 112.71 51.88 101.05 71.47 114.76"/><polygon class="cls-103" points="54.16 105.55 37.68 115.85 35.41 114.25 51.88 103.96 54.16 105.55"/><polygon class="cls-104" points="51.88 101.05 51.88 103.96 35.41 114.25 33.21 112.71 51.88 101.05"/><polygon class="cls-105" points="56.43 110.06 42.16 118.98 39.89 117.39 54.16 108.47 56.43 110.06"/><polygon class="cls-106" points="54.16 105.56 54.16 108.47 39.89 117.39 37.68 115.84 54.16 105.56"/><polygon class="cls-107" points="58.71 114.57 46.64 122.11 44.37 120.52 44.37 120.52 56.44 112.98 58.71 114.57"/><polygon class="cls-108" points="56.44 110.06 56.44 112.98 44.37 120.52 42.16 118.98 42.16 118.98 56.43 110.06 56.44 110.06"/><polygon class="cls-109" points="60.99 119.08 51.12 125.25 51.12 125.25 48.84 123.66 58.71 117.49 60.99 119.08"/><polygon class="cls-110" points="58.71 114.57 58.71 117.49 48.84 123.66 46.64 122.11 58.71 114.57"/><polygon class="cls-111" points="60.99 119.08 60.99 121.31 52.8 126.43 51.12 125.25 60.99 119.08"/><polygon class="cls-112" points="191.32 68.08 209.79 79.04 230.29 66.24 230.3 66.24 232.38 64.94 234.39 63.67 236.46 62.36 236.46 62.36 238.48 61.09 238.48 61.09 240.55 59.78 242.56 58.52 242.91 58.3 244.64 57.21 246.65 55.94 228.18 44.98 191.32 68.08"/><g class="cls-113"><polygon class="cls-114" points="226.1 48.74 242.56 58.52 244.64 57.21 228.18 47.43 226.1 48.74"/><polygon class="cls-115" points="228.18 44.98 228.18 47.43 244.64 57.21 246.65 55.94 228.18 44.98"/><polygon class="cls-116" points="224.02 52.5 240.49 62.28 242.56 60.97 226.1 51.19 224.02 52.5"/><polygon class="cls-117" points="226.1 48.74 226.1 51.19 242.56 60.97 244.57 59.7 226.1 48.74"/><polygon class="cls-118" points="221.94 56.26 238.4 66.04 240.48 64.73 224.02 54.95 221.94 56.26"/><polygon class="cls-119" points="224.02 52.5 224.02 54.95 240.48 64.73 242.49 63.46 224.02 52.5"/><polygon class="cls-120" points="219.86 60.02 236.32 69.8 238.4 68.49 221.94 58.71 219.86 60.02"/><polygon class="cls-121" points="221.94 56.26 221.94 58.71 238.4 68.49 240.41 67.22 221.94 56.26"/><polygon class="cls-122" points="217.77 63.78 234.24 73.56 236.31 72.25 219.85 62.47 217.77 63.78"/><polygon class="cls-123" points="219.85 60.02 219.85 62.47 236.31 72.25 238.33 70.98 219.85 60.02"/><polygon class="cls-124" points="215.69 67.54 232.16 77.32 234.23 76.01 217.77 66.23 215.69 67.54"/><polygon class="cls-125" points="217.77 63.78 217.77 66.23 234.23 76.01 236.24 74.74 217.77 63.78"/><polygon class="cls-126" points="213.61 71.3 230.07 81.08 232.15 79.77 215.69 69.99 213.61 71.3"/><polygon class="cls-127" points="215.69 67.54 215.69 69.99 232.15 79.77 234.16 78.5 215.69 67.54"/><polygon class="cls-128" points="211.53 75.06 227.99 84.84 230.07 83.53 213.61 73.75 211.53 75.06"/><polygon class="cls-129" points="213.61 71.3 213.61 73.75 230.07 83.53 232.08 82.27 213.61 71.3"/><polygon class="cls-130" points="209.45 78.82 225.91 88.6 227.99 87.29 211.53 77.51 209.45 78.82"/><polygon class="cls-131" points="211.53 75.06 211.53 77.51 227.99 87.29 230 86.03 211.53 75.06"/></g><path class="cls-9" d="M148.64,142.9v19.64l0,.06a58,58,0,0,1-13.39,10.86,97.62,97.62,0,0,1-24.08,11.11V164.93a97.57,97.57,0,0,0,24.08-11.1c1-.62,1.94-1.24,2.84-1.85.18-.12.35-.23.51-.35.43-.29.84-.58,1.25-.88l.6-.43A49.07,49.07,0,0,0,148.64,142.9Z"/><path class="cls-132" d="M140.4,150.32v9.25q-4.64,4.94-13.43,9.51a92.87,92.87,0,0,1-15.85,6.54V164.93a97.57,97.57,0,0,0,24.08-11.1Q138,152.06,140.4,150.32Z"/><path class="cls-133" d="M148.64,142.9v19.64l0,.06-8.19-3v-9.25A49.07,49.07,0,0,0,148.64,142.9Z"/><path class="cls-134" d="M115.75,177.32a2.33,2.33,0,0,1,2.2-.17c.68.32.81.91.28,1.33a2.33,2.33,0,0,1-2.2.17C115.34,178.33,115.22,177.73,115.75,177.32Z"/><path class="cls-135" d="M118.56,173.34h-3.13v3.54c0,.31.16.62.6.82a2.33,2.33,0,0,0,2.2-.17.74.74,0,0,0,.32-.58h0Z"/><path class="cls-136" d="M115.75,172.76a2.33,2.33,0,0,1,2.2-.17c.68.32.81.91.28,1.33a2.33,2.33,0,0,1-2.2.17C115.34,173.77,115.22,173.18,115.75,172.76Z"/><path class="cls-137" d="M123.81,174a2.3,2.3,0,0,1,2.2-.18c.68.32.81.92.28,1.33a2.33,2.33,0,0,1-2.2.17C123.4,175,123.28,174.36,123.81,174Z"/><path class="cls-138" d="M126.62,167.69h-3.14v5.81c0,.31.17.62.61.83a2.31,2.31,0,0,0,2.2-.18.72.72,0,0,0,.32-.57h0Z"/><path class="cls-139" d="M123.81,167.11a2.3,2.3,0,0,1,2.2-.17c.68.32.81.91.28,1.33a2.33,2.33,0,0,1-2.2.17C123.4,168.12,123.28,167.52,123.81,167.11Z"/><path class="cls-140" d="M132.15,169.39a2.3,2.3,0,0,1,2.2-.17c.68.32.81.91.27,1.32a2.3,2.3,0,0,1-2.2.18C131.74,170.4,131.62,169.8,132.15,169.39Z"/><path class="cls-141" d="M135,161.08h-3.13V169c0,.3.17.62.6.82a2.33,2.33,0,0,0,2.2-.17A.74.74,0,0,0,135,169h0Z"/><path class="cls-142" d="M132.15,160.5a2.33,2.33,0,0,1,2.2-.17c.68.32.81.91.27,1.33a2.33,2.33,0,0,1-2.2.17C131.74,161.51,131.62,160.92,132.15,160.5Z"/><path class="cls-143" d="M139.16,163.73a2.33,2.33,0,0,1,2.2-.17c.69.32.81.91.28,1.33a2.33,2.33,0,0,1-2.2.17C138.76,164.74,138.63,164.14,139.16,163.73Z"/><path class="cls-144" d="M142,152.65h-3.13v10.64c0,.31.17.62.6.82a2.33,2.33,0,0,0,2.2-.17.78.78,0,0,0,.33-.58h0Z"/><path class="cls-145" d="M139.16,152.08a2.31,2.31,0,0,1,2.2-.18c.69.32.81.92.28,1.33a2.3,2.3,0,0,1-2.2.17C138.76,153.08,138.63,152.49,139.16,152.08Z"/><path class="cls-8" d="M230.31,183.3l-.86-.17.18-1,.19-.2-1.86.17a22.15,22.15,0,0,1-1.92,1.29c-.57.3-1,.69-.9,1.08s.86.56,1.33.48a22,22,0,0,0,2.41-.88l.07,0,.16.06a8.38,8.38,0,0,0,1.21-.37.83.83,0,0,0,0-.25A.5.5,0,0,0,230.31,183.3Z"/><path class="cls-11" d="M228.16,181.86s-1.55,1.06-2.12,1.36-1,.81-.9,1.07c.15.46.81.54,1.33.48a16.36,16.36,0,0,0,2.41-.88c.65-.24,1.08-.15,1.42-.44a1.9,1.9,0,0,0-.11-1.73"/><path class="cls-10" d="M228.1,181.6s0,.48,0,.59.33.47,1,.48a1.51,1.51,0,0,0,1.18-.49,4.17,4.17,0,0,0,0-.86"/><path class="cls-8" d="M238.17,175.63l.45.29a2.91,2.91,0,0,1-.24.84,3.38,3.38,0,0,1-.28.52l-.12,0a1.83,1.83,0,0,0-.17.35c-.1.26-.26.75-.46,1.16a2.56,2.56,0,0,1-1,1.15.69.69,0,0,1-.91-.22c0-.13,0-.55,0-.55"/><path class="cls-11" d="M235.86,175.73s-.05.34-.1,1.23-.62,2.2-.45,2.51a.71.71,0,0,0,1,.27,3,3,0,0,0,1.12-1.83c.17-.66,1-1.78.89-2.12s-.73-.75-.92-.8S236.64,174.62,235.86,175.73Z"/><path class="cls-10" d="M235.83,176.28l.31.18a.71.71,0,0,0,.45-.23,1.48,1.48,0,0,0,.54-1.25s0,0-.28-.18"/><path class="cls-11" d="M236.9,174.76a1.78,1.78,0,0,1-1.39,1.61s-6.27-3.74-6.84-4.65a12.07,12.07,0,0,1-.6-1.55h0v0c-.06-.24-.12-.5-.17-.75a60.69,60.69,0,0,1-.91-9l4,2,.11,7.25a11.57,11.57,0,0,1,2.16,1.5A31.24,31.24,0,0,0,236.9,174.76Z"/><path class="cls-12" d="M229.38,163.23l-.19,0,0-.05.51-.24.15.52Z"/><path class="cls-12" d="M230.12,164.35s-.58,3-.67,3-.64,2.5-.92,3.73q-.19-.33-.33-.6a3.24,3.24,0,0,1-.13-.31h0v0c-.06-.24-.12-.5-.17-.75.27-1.73.77-3.9,1.07-5.15a.9.9,0,0,0,.4.58c.57.34.51-1.25.51-1.32Z"/><path class="cls-11" d="M234.39,163.2c-.17.87-1.36,4-2.22,6.39a16.87,16.87,0,0,0-1,4.6c-.2,2.75-.61,6.9-.75,7.7a2.17,2.17,0,0,1-.37.22A2.37,2.37,0,0,1,228,182s0-2.08,0-4.61-.16-5.27-.14-6c0-1.54,1.51-7.85,1.51-7.85a3.52,3.52,0,0,1-2.36-3.13l6.33.82,1.08.14A3.35,3.35,0,0,1,234.39,163.2Z"/><path class="cls-12" d="M234.39,163.2c-.17.87-1.36,4-2.22,6.39a8.06,8.06,0,0,0-.6,2.06c-.1,1,.06,1.88-.08,3-.33,2.73-.91,6.44-1.05,7.24a2.17,2.17,0,0,1-.37.22c.22-1.54.51-5.19.68-7.73.07-1.1,0-2,0-2.39.09-1.5,1.12-4,1.75-6.12a14.77,14.77,0,0,0,.51-3.34c0-.39,0-.69,0-.87v-.18l.29-.29,1.08.14a.26.26,0,0,1,0,.1,2.33,2.33,0,0,1,.08.56A5.4,5.4,0,0,1,234.39,163.2Z"/><path class="cls-146" d="M228.21,151.65c0,.12-.11.3-.19.52-.18.46-.44,1.08-.75,1.71a8.94,8.94,0,0,1-1.46,2.33,1.32,1.32,0,0,1-1.48.49,1.57,1.57,0,0,1-.64-.59h0l-.05-.09h0a12.92,12.92,0,0,1,1-3.51c.5-1.34,1.15-2.84,1.56-3.7.79-1.66,1.69-1.82,1.69-1.82Z"/><path class="cls-16" d="M228,152.17c-.18.46-.44,1.08-.75,1.72a9.22,9.22,0,0,1-1.46,2.32,1.32,1.32,0,0,1-1.48.49,1.51,1.51,0,0,1-.64-.59,1.08,1.08,0,0,0,1.18.42c.63-.14,1.46-1.57,1.46-1.57a25.79,25.79,0,0,0,.43-4.07s1,.93,1.12,1A1.24,1.24,0,0,1,228,152.17Z"/><path class="cls-11" d="M228.15,143.16s-.14.86.16,1,.22-1,.22-1"/><polygon class="cls-15" points="229.62 148.41 229.2 148.91 230.01 148.92 230.51 148.94 230.93 148.94 230.8 148.48 230.7 148.41 229.62 148.41"/><path class="cls-9" d="M229.41,148.68s.39.33,1.66.13c0,0-.39,7.69-.17,10.23s.28,3.12.28,3.12a12.38,12.38,0,0,1-2.76-.36C227.56,161.49,229.41,148.68,229.41,148.68Z"/><path class="cls-147" d="M235.88,151.88c-.19.79-.42,1.56-.65,2.33-.11.36-.24.72-.38,1.08a7.14,7.14,0,0,0-.69,4,2.14,2.14,0,0,0,.09.34c0,.19.1.38.15.58a5.78,5.78,0,0,1-.15,3.55,6.56,6.56,0,0,0-.78-1.5s-.17.52-.36.95h0c0,.07-.06.14-.1.21s0,0,0,0l0,0a1,1,0,0,1-.16.26,15.25,15.25,0,0,1-2.75-.52c.14-1.36.56-9.82.63-11.81a32.18,32.18,0,0,0,0-3.35l-1.12.35s-.31,2.26-.43,4.43-.33,8-.28,10.07a13.06,13.06,0,0,1-2.36-.93,30.22,30.22,0,0,0,.34-3.71c.06-3.32-.4-8.59-.33-9.64a1.2,1.2,0,0,1,.05-.33,2.06,2.06,0,0,1,1.55-1.45,7.34,7.34,0,0,1,1-.18h.25c.49.1,1,.18,1.52.29.33.07.66.15,1,.24l.28.1.23.08c.47.19.79.34,1.05.47a7.26,7.26,0,0,1,.77.44l0,0a9.16,9.16,0,0,1,1,.76,2.55,2.55,0,0,1,.74.92,1.4,1.4,0,0,1,.08.35,0,0,0,0,1,0,0A4.61,4.61,0,0,1,235.88,151.88Z"/><path class="cls-148" d="M234.32,159.91h0a6,6,0,0,1-.17-.63,7.13,7.13,0,0,1,.69-4c-.07-.71-.16-1.56-.16-1.64a20.56,20.56,0,0,0-1.48-1.88,33.14,33.14,0,0,1,0,6.58,8.05,8.05,0,0,0,0,1.1,8,8,0,0,1,.1,3,6,6,0,0,1-.22.77c.19-.43.36-.95.36-.95a6.56,6.56,0,0,1,.78,1.5,5.76,5.76,0,0,0,.15-3.55A2.29,2.29,0,0,0,234.32,159.91Z"/><path class="cls-15" d="M229.61,147.3a.63.63,0,0,0,0,1l.29-.55-.27-.25"/><path class="cls-15" d="M232.19,145.22l-.07,2.37a1.87,1.87,0,0,1-2.5.82c0-.42,0-1.42,0-2l.68-.13Z"/><path class="cls-7" d="M228.32,143.4a10.37,10.37,0,0,0,0,2.09c.08.75.21,1.4.63,1.59a1.82,1.82,0,0,0,1.74-.26,3.6,3.6,0,0,0,1.1-1.21s.1.07.35-.22a1.52,1.52,0,0,0,.48-1.28,4.3,4.3,0,0,0-.63-2.17c-.47-.79-1.93-.54-2.59-.2A2.17,2.17,0,0,0,228.32,143.4Z"/><path class="cls-11" d="M232.83,143.71a2.56,2.56,0,0,1-.65,1.84v-.21c.16-.28.37-.65.16-1s-.51-.19-.7,0a.64.64,0,0,0-.1.13l0,.08a3.76,3.76,0,0,0-.09.85h-.2a2.13,2.13,0,0,0-.13-.7s0,0,0-.06a.19.19,0,0,0-.07-.06c-.19-.1-.33-.29-.31-.74a3.64,3.64,0,0,1-2.65-.64,5.53,5.53,0,0,1,.08-.81,1.72,1.72,0,0,1,1-1.17,3.06,3.06,0,0,1,2-.18c.68.25,1.12.61,1.21,1,0,.12.32,0,.43.57A4.82,4.82,0,0,1,232.83,143.71Z"/><path class="cls-11" d="M228.93,141.35a5.26,5.26,0,0,1-1.67.73c-.52,0,.23.77.77,1.14s.9-.79.9-.79l-.06-.55Z"/><path class="cls-149" d="M240,155.33l-.45-.27h0a.15.15,0,0,0-.17,0l-8.63,5.13a.72.72,0,0,0-.36.62v7.33a.25.25,0,0,0,.14.22l.39.23.22-.44h0l8.27-4.9a.44.44,0,0,0,.21-.37v-7Z"/><path class="cls-9" d="M240.1,155.46v7.68a.44.44,0,0,1-.21.37l-8.63,5.11a.25.25,0,0,1-.38-.22v-7.33a.72.72,0,0,1,.35-.62l8.64-5.12A.15.15,0,0,1,240.1,155.46Z"/><path class="cls-7" d="M237.14,165.19h0a.73.73,0,0,1-.25.35,2,2,0,0,1-.93.29c0-.06.2-.91,0-1,0,0,0,.26,0,.34s.07.39-.12.45h-.05s0,0,0,0a1.52,1.52,0,0,1-.16-.37.14.14,0,0,1,0-.06,1.84,1.84,0,0,1-.12-.46,3.71,3.71,0,0,1,.28-1,1.57,1.57,0,0,0,.09-.23,5.16,5.16,0,0,0,0-.73l1,.3a7,7,0,0,0,.08.85c.06.27.14.47.2.67a2.25,2.25,0,0,1,.08.24.14.14,0,0,1,0,.06A1.14,1.14,0,0,1,237.14,165.19Z"/><path class="cls-150" d="M235.51,150.24a1.87,1.87,0,0,0-.48-.8H235a1.73,1.73,0,0,0-1.84,1.67c0,1.79,1.71,5.53,1.71,5.53.05,1.62.69,7.07.69,7.07a2,2,0,0,0,1.35,0h0c0-.51.29-6.71.19-7.75A55.85,55.85,0,0,0,235.51,150.24Z"/><path class="cls-151" d="M236.47,152.84a18.45,18.45,0,0,1,.24,4.19l-.81,3.77.81-3.78A18.39,18.39,0,0,0,236.47,152.84Z"/><path class="cls-152" d="M236.12,150.33s.18,1.15.35,2.51c-.17-1.36-.35-2.51-.35-2.51A1.88,1.88,0,0,0,236,150a2.67,2.67,0,0,0-.74-.92,9.16,9.16,0,0,0-1-.76l0,0c-.23-.15-.45-.28-.77-.45s-.58-.27-1.05-.46l-.31-.11v.33A16.16,16.16,0,0,1,235,149.4a2.17,2.17,0,0,1,.35.39A1,1,0,0,1,236.12,150.33Z"/><path class="cls-153" d="M236.73,152.38c-.37-1.32-.71-2.43-.71-2.43a1.18,1.18,0,0,0-1-.51,1.87,1.87,0,0,1,.48.8,55.85,55.85,0,0,1,1.58,5.75c.1,1-.17,7.24-.19,7.75a.6.6,0,0,0,.18-.09l.23-3.31.26-3.85A18.75,18.75,0,0,0,236.73,152.38Z"/><path class="cls-7" d="M220.21,160.59s-.28.4-.37.51-.38.19-.64.34-.25.13-.46.46a6.34,6.34,0,0,0-.36,1c0,.07.14.32.54.29s.63-.67.71-.74.49-.39.55-.36-.08.38-.18.46-.25.35-.12.52c0,0,.19,0,.46-.3a4.14,4.14,0,0,0,.46-.93c.11-.21.17-.63.47-.82"/><path class="cls-154" d="M225.81,156.21a69.4,69.4,0,0,1-4.8,5.17l-.11-.08-.86-.61c.48-1,4-6.57,4-6.57l1.6,1.85Z"/><path class="cls-155" d="M225.81,156.21a69.4,69.4,0,0,1-4.8,5.17l-.11-.08c.87-.67,4.7-5.33,4.7-5.33Z"/><g class="cls-156"><path class="cls-78" d="M220.14,79.55a1.69,1.69,0,0,1,0,.34,2.55,2.55,0,0,1-.54.43c-.07,0,0,0-.11,0s-.36.29-.57.44a1.8,1.8,0,0,1-.78.34c-.33,0-.83,0-.87-.39s.47-.43.47-.43"/><path class="cls-11" d="M218.94,78.51a.67.67,0,0,0-.24.26,3.59,3.59,0,0,1-.79,1c-.32.24-.71.45-.75.65a.56.56,0,0,0,.41.61,1.51,1.51,0,0,0,1.34-.36c.35-.26.81-.63,1.05-.82s.16-1,0-1.21S218.94,78.51,218.94,78.51Z"/><path class="cls-81" d="M218.91,77.87l-.06.86a.15.15,0,0,0,.05.14c.13.13.48.36,1-.08a.21.21,0,0,0,.07-.13l.11-.64"/><path class="cls-78" d="M222.1,76.3a1.42,1.42,0,0,1,.14.3,2.86,2.86,0,0,1-.24.61c-.05.06-.13.11-.14.19a2.93,2.93,0,0,1-.15.58,1.85,1.85,0,0,1-.48.68c-.24.21-.7.4-.91.13s.17-.6.17-.6"/><path class="cls-11" d="M220.64,76a1.37,1.37,0,0,0-.13.36,5,5,0,0,1-.14,1.23c-.15.36-.36.74-.29.92a.56.56,0,0,0,.66.3,1.51,1.51,0,0,0,.92-1c.07-.18.06-.41.13-.61s.25-.45.31-.61c.14-.41-.37-.9-.56-1S220.64,76,220.64,76Z"/><path class="cls-81" d="M220.25,75.73l.45.74a.2.2,0,0,0,.13.08c.18,0,.59,0,.75-.64a.2.2,0,0,0,0-.15l-.28-.58"/><path class="cls-81" d="M216.84,61.63s-1.15,1.54-1.25,1.69,0,.28-.06.58-.29.41-.38.59a3,3,0,0,0-.24.38.76.76,0,0,1-.25.45,1.07,1.07,0,0,1-.46.18.34.34,0,0,1-.39-.26,3.16,3.16,0,0,1,0-1,2.42,2.42,0,0,1,.64-1.24.08.08,0,0,0,0,0l.11-.09.09-.09a13.17,13.17,0,0,0,1.23-1.67Z"/><path class="cls-16" d="M218,60.2c-.6.88-1.46,2-1.46,2a1.38,1.38,0,0,0-.2-.25,1.19,1.19,0,0,0-.78-.39l.76-1.47Z"/><path class="cls-16" d="M218,60.2c-.6.88-1.46,2-1.46,2a1.38,1.38,0,0,0-.2-.25c.25-.35.95-1.33.88-1.66,0,0,0-.08,0-.13Z"/><path class="cls-78" d="M221.41,75.34a1.69,1.69,0,0,1-.35.48,1.29,1.29,0,0,1-.48.31l-.25.06-.88-1.41c-.19-.3-.4-.62-.6-1-.51-.8-1-1.6-1.33-2-.74-1.09-1.78-2.34-1.81-3.19s.57-7.94.57-7.94l1.65.29,1.57,2.61.2,1.38-.22.57c-.33.81-.91,2.26-1.11,2.85h0a.85.85,0,0,0-.06.25,2.24,2.24,0,0,0,.34.55c.18.25.42.59.73,1.06a7.16,7.16,0,0,1,.42.81c.44,1,1,2.46,1.3,3.4.08.25.16.47.21.62S221.41,75.34,221.41,75.34Z"/><path class="cls-12" d="M221.31,75.06c-.06.21-.17.54-.25.76a1.29,1.29,0,0,1-.48.31,2.6,2.6,0,0,1-.28-.79c.06-.07.55-.76.62-.8l.18-.1C221.18,74.69,221.26,74.91,221.31,75.06Z"/><path class="cls-12" d="M219.48,65.51c-.33.81-.91,2.26-1.11,2.85.11-.43.29-3.94.29-3.94Z"/><path class="cls-12" d="M219.81,71.4c0,.07-.3,3.37-.3,3.37h-.06c-.19-.3-.4-.62-.6-1a29.71,29.71,0,0,0-.11-3c-.09-.88-.09-1.65-.09-1.65.18.25.42.59.73,1.06a7.16,7.16,0,0,1,.42.81C219.8,71.24,219.81,71.39,219.81,71.4Z"/><path class="cls-78" d="M222.21,61.53a4.5,4.5,0,0,1,.4,2.88c-.3,1.71-1.58,5.4-1.58,5.87a20.6,20.6,0,0,1,.48,2.94,30.22,30.22,0,0,1-1.42,5.14,1.33,1.33,0,0,1-.7.1c-.17,0-.58,0-.58-.25,0,0,.3-5.39.11-7.24s-.27-7.06-.27-7.06a19.19,19.19,0,0,1-.46-2.17C218.08,60.89,222.21,61.53,222.21,61.53Z"/><path class="cls-11" d="M216.9,49.73c0,.45.14,2,.14,2a3.86,3.86,0,0,1,1.35-.57c.48,0-.33-1.4-.33-1.4"/><path class="cls-11" d="M218.07,56.37c0-.76.08-2.69,0-4S217,51.07,217,51.07c-.63.07-1.09.71-1.11,1.67a27,27,0,0,0,.38,2.76c.06.44.31,1.38.32,1.41l1.46.57C218.07,57.24,218.06,56.9,218.07,56.37Z"/><path class="cls-11" d="M215.68,55l.06.14h0a3.22,3.22,0,0,0,.39.68,2,2,0,0,1,.26.47h0a2,2,0,0,1,.11.49,13.37,13.37,0,0,1-.25,3.93,5.37,5.37,0,0,0,3.47,1.77c1.92,0,2.52-.85,2.52-.85s-.47-1.16-.8-1.89a5.53,5.53,0,0,1-.05-2.66c.18-1,1.28-3.47.53-4.56s-3.61-1.37-4.87-1.43a.75.75,0,0,0-.78.79,2.73,2.73,0,0,1,0,1.07C216,53.53,215.43,54.26,215.68,55Z"/><path class="cls-16" d="M216.94,56.17c.39.13,1.25.4,2,.61a1.78,1.78,0,0,0,.77-.09c.33-.14.42-1.18.42-1.18,0-.48,0-.83,0-.83l1.15,2.3-.33,1.8-2,.87,1.2-1.5v-.31h0a.31.31,0,0,0-.21-.29c-.36-.12-1.06-.46-1.52-.6a12.71,12.71,0,0,1-2-.67h0a2,2,0,0,0-.26-.47,3.22,3.22,0,0,1-.39-.68A2.79,2.79,0,0,0,216.94,56.17Z"/><path class="cls-157" d="M222.57,62.47l-2.25-6.26h0l0-.15-.2-.05a.24.24,0,0,0-.11,0l-4.49,1.64a.18.18,0,0,0-.12.24l2.28,6.34a.2.2,0,0,0,.11.11l.22.05v-.08l4.4-1.6A.2.2,0,0,0,222.57,62.47Z"/><path class="cls-6" d="M222.66,62.77l-4.5,1.63a.2.2,0,0,1-.25-.12L215.63,58a.21.21,0,0,1,.12-.25l4.5-1.63a.18.18,0,0,1,.24.11l2.28,6.34A.19.19,0,0,1,222.66,62.77Z"/><path class="cls-7" d="M219.28,49.61s.61,1.62.64,1.9a1.66,1.66,0,0,1-2.09,1,4.4,4.4,0,0,0-.5-2.18"/><path class="cls-81" d="M216.34,47.12a6.75,6.75,0,0,0,.14,2.55c.36,1.19.84,1.53,1.12,1.55a3.35,3.35,0,0,0,2.23-1.74,4.14,4.14,0,0,0,.3-2.76,2.22,2.22,0,0,0-2.21-1.12A1.83,1.83,0,0,0,216.34,47.12Z"/><path class="cls-11" d="M220.3,46.15a2.45,2.45,0,0,0-3.93.31l0,.09a1.06,1.06,0,0,0,.76,1.51c.32.06,2.17.16,2.22.7,0,.16,0,.34,0,.54v0c0,.32.12,2.2.81,2.16C220.13,51.5,221.54,47.63,220.3,46.15Z"/><path class="cls-81" d="M219.19,48.89s.17-.28.43-.23.28.44.2.76a.58.58,0,0,1-.59.44"/><path class="cls-81" d="M219.7,60.56a8.52,8.52,0,0,0-1.64.94l-.92-.59.14-.06A12.35,12.35,0,0,0,219,59.72Z"/><path class="cls-81" d="M218.05,60.41a2.41,2.41,0,0,1-.31.2,1.67,1.67,0,0,0-.45.09c-.19.1-.3.32-.41.36s-.32,0-.43.16.19.89.34,1a1.14,1.14,0,0,0,.79-.08c.29-.11.44-.6.57-.72a1.73,1.73,0,0,1,.36-.24"/><path class="cls-81" d="M217.54,60.63a4.47,4.47,0,0,0-.5,0,1.38,1.38,0,0,0-.39.24s0,.13.16.1.37,0,.37,0"/><path class="cls-11" d="M221.35,52.17s.82,0,.92,1.34,0,3.28,0,4,0,1.15-.11,1.37a23,23,0,0,1-2.95,2,1.35,1.35,0,0,0-.68-1s1.11-1,1.84-1.64a.47.47,0,0,0,.17-.46,39.14,39.14,0,0,1-.46-4A1.71,1.71,0,0,1,221.35,52.17Z"/><path class="cls-11" d="M216.24,47.24a1.42,1.42,0,0,0,0,1.24s0-.79.51-.93"/></g></g></g></svg>