<svg xmlns="http://www.w3.org/2000/svg" xmlns:xlink="http://www.w3.org/1999/xlink" viewBox="0 0 294.19 272.09"><defs><style>.cls-1{isolation:isolate;}.cls-2{fill:url(#linear-gradient);}.cls-3{fill:url(#linear-gradient-2);}.cls-4{fill:#13426f;}.cls-5{fill:url(#linear-gradient-3);}.cls-6{fill:url(#linear-gradient-4);}.cls-7{fill:url(#linear-gradient-5);}.cls-8{fill:url(#linear-gradient-6);}.cls-9{fill:url(#linear-gradient-7);}.cls-10{fill:url(#linear-gradient-8);}.cls-11{fill:url(#linear-gradient-9);}.cls-12,.cls-17,.cls-18,.cls-19,.cls-20,.cls-41,.cls-49,.cls-59,.cls-61{opacity:0.56;mix-blend-mode:overlay;}.cls-12{fill:url(#linear-gradient-10);}.cls-13{fill:url(#linear-gradient-11);}.cls-14{fill:url(#linear-gradient-12);}.cls-15{fill:url(#linear-gradient-13);}.cls-16{fill:#cadcea;}.cls-17{fill:url(#linear-gradient-14);}.cls-18{fill:url(#linear-gradient-15);}.cls-19{fill:url(#linear-gradient-16);}.cls-20{fill:url(#linear-gradient-17);}.cls-21{fill:url(#linear-gradient-18);}.cls-22{fill:#456cb4;}.cls-23{fill:#1c1e4d;}.cls-24{fill:url(#linear-gradient-19);}.cls-25,.cls-65{fill:#5c99d2;}.cls-26{fill:#f0c5a1;}.cls-27{fill:#faf7fb;}.cls-28{fill:#fff;}.cls-29{fill:url(#linear-gradient-20);}.cls-30{fill:url(#linear-gradient-21);}.cls-31{fill:url(#linear-gradient-22);}.cls-32{fill:url(#linear-gradient-23);}.cls-33{fill:url(#linear-gradient-24);}.cls-34{fill:url(#linear-gradient-25);}.cls-35{fill:url(#linear-gradient-26);}.cls-36{fill:url(#linear-gradient-27);}.cls-37{fill:url(#linear-gradient-28);}.cls-38{fill:#d5eef4;opacity:0.81;}.cls-39{fill:url(#linear-gradient-29);}.cls-40{fill:url(#linear-gradient-30);}.cls-41{fill:url(#linear-gradient-31);}.cls-42{fill:#262a62;}.cls-43{fill:url(#linear-gradient-32);}.cls-44{fill:url(#linear-gradient-33);}.cls-45{fill:url(#linear-gradient-34);}.cls-46{fill:url(#linear-gradient-35);}.cls-47{fill:url(#linear-gradient-36);}.cls-48{fill:url(#linear-gradient-37);}.cls-49{fill:url(#linear-gradient-38);}.cls-50{fill:url(#linear-gradient-39);}.cls-51{fill:url(#linear-gradient-40);}.cls-52{fill:url(#linear-gradient-41);}.cls-53{fill:url(#linear-gradient-42);}.cls-54{fill:url(#linear-gradient-43);}.cls-55{fill:#212e55;}.cls-56{fill:url(#linear-gradient-44);}.cls-57{fill:#395ea1;}.cls-58{opacity:0.3;}.cls-58,.cls-65{mix-blend-mode:multiply;}.cls-59{fill:url(#linear-gradient-45);}.cls-60{fill:url(#linear-gradient-46);}.cls-61{fill:url(#linear-gradient-47);}.cls-62{fill:url(#linear-gradient-48);}.cls-63{fill:url(#linear-gradient-49);}.cls-64{fill:url(#linear-gradient-50);}.cls-65{opacity:0.4;}.cls-66{fill:#24285f;}.cls-67{fill:#fdfefb;}.cls-68{opacity:0.6;}.cls-69{fill:url(#linear-gradient-51);}</style><linearGradient id="linear-gradient" x1="70.48" y1="52.29" x2="68.51" y2="57.89" gradientUnits="userSpaceOnUse"><stop offset="0" stop-color="#a5d9f3"/><stop offset="1" stop-color="#528bc9"/></linearGradient><linearGradient id="linear-gradient-2" x1="69.51" y1="117.79" x2="75.72" y2="117.79" gradientUnits="userSpaceOnUse"><stop offset="0" stop-color="#0b62a3"/><stop offset="1" stop-color="#3189c9"/></linearGradient><linearGradient id="linear-gradient-3" x1="69.76" y1="74.33" x2="69.31" y2="145.48" gradientUnits="userSpaceOnUse"><stop offset="0" stop-color="#4974b9" stop-opacity="0"/><stop offset="0.02" stop-color="#4974b9" stop-opacity="0.07"/><stop offset="0.12" stop-color="#4974b9" stop-opacity="0.31"/><stop offset="0.22" stop-color="#4974b9" stop-opacity="0.53"/><stop offset="0.33" stop-color="#4974b9" stop-opacity="0.7"/><stop offset="0.44" stop-color="#4974b9" stop-opacity="0.83"/><stop offset="0.55" stop-color="#4974b9" stop-opacity="0.93"/><stop offset="0.67" stop-color="#4974b9" stop-opacity="0.98"/><stop offset="0.81" stop-color="#4974b9"/></linearGradient><linearGradient id="linear-gradient-4" x1="62.06" y1="78.09" x2="60.74" y2="81.83" xlink:href="#linear-gradient"/><linearGradient id="linear-gradient-5" x1="61.41" y1="121.9" x2="65.56" y2="121.9" xlink:href="#linear-gradient-2"/><linearGradient id="linear-gradient-6" x1="61.58" y1="92.83" x2="61.27" y2="140.42" gradientUnits="userSpaceOnUse"><stop offset="0" stop-color="#436ab3" stop-opacity="0"/><stop offset="0.02" stop-color="#436ab3" stop-opacity="0.04"/><stop offset="0.12" stop-color="#436bb3" stop-opacity="0.3"/><stop offset="0.22" stop-color="#436bb4" stop-opacity="0.51"/><stop offset="0.32" stop-color="#436bb4" stop-opacity="0.69"/><stop offset="0.43" stop-color="#436cb4" stop-opacity="0.83"/><stop offset="0.55" stop-color="#436cb4" stop-opacity="0.92"/><stop offset="0.67" stop-color="#436cb4" stop-opacity="0.98"/><stop offset="0.82" stop-color="#436cb4"/></linearGradient><linearGradient id="linear-gradient-7" x1="84.86" y1="74.35" x2="83.62" y2="77.86" xlink:href="#linear-gradient"/><linearGradient id="linear-gradient-8" x1="84.25" y1="115.47" x2="88.15" y2="115.47" xlink:href="#linear-gradient-2"/><linearGradient id="linear-gradient-9" x1="84.41" y1="88.18" x2="84.12" y2="132.85" xlink:href="#linear-gradient-3"/><linearGradient id="linear-gradient-10" x1="172.07" y1="17.09" x2="170.92" y2="181.1" gradientUnits="userSpaceOnUse"><stop offset="0.04" stop-color="#c3e7ed" stop-opacity="0"/><stop offset="0.14" stop-color="#c5e8ee" stop-opacity="0.07"/><stop offset="0.34" stop-color="#caeaf0" stop-opacity="0.26"/><stop offset="0.62" stop-color="#d3edf3" stop-opacity="0.56"/><stop offset="0.97" stop-color="#dff2f8" stop-opacity="0.97"/><stop offset="1" stop-color="#e0f2f8"/></linearGradient><linearGradient id="linear-gradient-11" x1="184.55" y1="63.02" x2="158.63" y2="136.32" xlink:href="#linear-gradient"/><linearGradient id="linear-gradient-12" x1="171.75" y1="182.48" x2="253.12" y2="182.48" xlink:href="#linear-gradient-2"/><linearGradient id="linear-gradient-13" x1="90.02" y1="182.48" x2="171.75" y2="182.48" xlink:href="#linear-gradient-2"/><linearGradient id="linear-gradient-14" x1="171.65" y1="39.83" x2="171.47" y2="58.75" xlink:href="#linear-gradient-10"/><linearGradient id="linear-gradient-15" x1="101.6" y1="80.2" x2="101.42" y2="99.13" xlink:href="#linear-gradient-10"/><linearGradient id="linear-gradient-16" x1="242.9" y1="80.2" x2="242.72" y2="99.13" xlink:href="#linear-gradient-10"/><linearGradient id="linear-gradient-17" x1="171.65" y1="119.76" x2="171.47" y2="138.69" xlink:href="#linear-gradient-10"/><linearGradient id="linear-gradient-18" x1="126.04" y1="96.62" x2="219.72" y2="96.62" xlink:href="#linear-gradient-2"/><linearGradient id="linear-gradient-19" x1="124.62" y1="66.14" x2="184.55" y2="66.14" xlink:href="#linear-gradient-2"/><linearGradient id="linear-gradient-20" x1="133.82" y1="66.78" x2="137.01" y2="66.78" xlink:href="#linear-gradient-2"/><linearGradient id="linear-gradient-21" x1="133.85" y1="75.08" x2="137.03" y2="75.08" xlink:href="#linear-gradient-2"/><linearGradient id="linear-gradient-22" x1="133.87" y1="83.38" x2="137.06" y2="83.38" xlink:href="#linear-gradient-2"/><linearGradient id="linear-gradient-23" x1="168.9" y1="49" x2="178.35" y2="49" xlink:href="#linear-gradient-2"/><linearGradient id="linear-gradient-24" x1="117.55" y1="37.99" x2="142.81" y2="37.99" xlink:href="#linear-gradient-2"/><linearGradient id="linear-gradient-25" x1="105.2" y1="65" x2="120.27" y2="65" xlink:href="#linear-gradient-2"/><linearGradient id="linear-gradient-26" x1="144.37" y1="150.93" x2="116.44" y2="155.67" gradientUnits="userSpaceOnUse"><stop offset="0.15" stop-color="#2a4385"/><stop offset="1" stop-color="#5378bb"/></linearGradient><linearGradient id="linear-gradient-27" x1="144.37" y1="176.09" x2="116.44" y2="180.83" xlink:href="#linear-gradient-26"/><linearGradient id="linear-gradient-28" x1="144.37" y1="201.25" x2="116.44" y2="205.99" xlink:href="#linear-gradient-26"/><linearGradient id="linear-gradient-29" x1="33.16" y1="91.69" x2="25.95" y2="112.08" xlink:href="#linear-gradient"/><linearGradient id="linear-gradient-30" x1="29.6" y1="168.2" x2="52.23" y2="168.2" xlink:href="#linear-gradient-2"/><linearGradient id="linear-gradient-31" x1="35.64" y1="46.3" x2="16.51" y2="100.39" xlink:href="#linear-gradient-10"/><linearGradient id="linear-gradient-32" x1="14.58" y1="61.9" x2="45.25" y2="61.9" xlink:href="#linear-gradient-2"/><linearGradient id="linear-gradient-33" x1="20.84" y1="156.56" x2="13.09" y2="156.4" xlink:href="#linear-gradient-2"/><linearGradient id="linear-gradient-34" x1="23.11" y1="189.68" x2="16.73" y2="189.55" xlink:href="#linear-gradient-2"/><linearGradient id="linear-gradient-35" x1="29.09" y1="224.66" x2="29.67" y2="145.23" xlink:href="#linear-gradient-2"/><linearGradient id="linear-gradient-36" x1="271.94" y1="41.73" x2="268.12" y2="52.51" xlink:href="#linear-gradient"/><linearGradient id="linear-gradient-37" x1="270.05" y1="103.55" x2="282.03" y2="103.55" xlink:href="#linear-gradient-2"/><linearGradient id="linear-gradient-38" x1="273.25" y1="17.72" x2="263.13" y2="46.33" xlink:href="#linear-gradient-10"/><linearGradient id="linear-gradient-39" x1="262.11" y1="25.97" x2="278.33" y2="25.97" xlink:href="#linear-gradient-2"/><linearGradient id="linear-gradient-40" x1="269.45" y1="138.65" x2="270.6" y2="61.82" gradientUnits="userSpaceOnUse"><stop offset="0" stop-color="#578ecb"/><stop offset="0.1" stop-color="#578fcb" stop-opacity="0.96"/><stop offset="0.26" stop-color="#5890cc" stop-opacity="0.85"/><stop offset="0.45" stop-color="#5a93ce" stop-opacity="0.67"/><stop offset="0.68" stop-color="#5c97d1" stop-opacity="0.42"/><stop offset="0.92" stop-color="#5f9bd4" stop-opacity="0.11"/><stop offset="1" stop-color="#609dd5" stop-opacity="0"/></linearGradient><linearGradient id="linear-gradient-41" x1="251.8" y1="138.43" x2="236.06" y2="182.96" xlink:href="#linear-gradient"/><linearGradient id="linear-gradient-42" x1="244.03" y1="210.55" x2="293.45" y2="210.55" xlink:href="#linear-gradient-2"/><linearGradient id="linear-gradient-43" x1="194.38" y1="210.55" x2="244.03" y2="210.55" xlink:href="#linear-gradient-2"/><linearGradient id="linear-gradient-44" x1="216.76" y1="157.88" x2="267.97" y2="157.88" xlink:href="#linear-gradient-2"/><linearGradient id="linear-gradient-45" x1="241.25" y1="112.64" x2="239.52" y2="164.96" xlink:href="#linear-gradient-10"/><linearGradient id="linear-gradient-46" x1="238.33" y1="142.36" x2="260.88" y2="142.36" xlink:href="#linear-gradient-2"/><linearGradient id="linear-gradient-47" x1="74.4" y1="105.58" x2="74.54" y2="169.37" xlink:href="#linear-gradient-10"/><linearGradient id="linear-gradient-48" x1="79.53" y1="136.66" x2="69.39" y2="165.33" xlink:href="#linear-gradient"/><linearGradient id="linear-gradient-49" x1="74.52" y1="195.24" x2="106.35" y2="195.24" xlink:href="#linear-gradient-2"/><linearGradient id="linear-gradient-50" x1="42.56" y1="195.24" x2="74.52" y2="195.24" xlink:href="#linear-gradient-2"/><linearGradient id="linear-gradient-51" x1="60.48" y1="132.11" x2="86.19" y2="132.11" xlink:href="#linear-gradient-2"/></defs><title>Customization, Personalization &amp;amp; Flexibility</title><g class="cls-1"><g id="Layer_1" data-name="Layer 1"><g class="cls-1"><polygon class="cls-2" points="75.72 55.09 69.51 58.7 63.27 55.09 69.51 51.49 75.72 55.09"/><polygon class="cls-3" points="75.72 55.09 75.72 176.87 69.51 180.48 69.51 58.7 75.72 55.09"/><polygon class="cls-4" points="69.51 58.7 69.51 180.48 63.27 176.87 63.27 55.09 69.51 58.7"/></g><polygon class="cls-5" points="69.51 51.49 63.27 55.09 63.27 176.87 69.51 180.48 75.72 176.87 75.72 55.09 69.51 51.49"/><g class="cls-1"><polygon class="cls-6" points="65.56 79.96 61.41 82.37 57.23 79.96 61.41 77.55 65.56 79.96"/><polygon class="cls-7" points="65.56 79.96 65.56 161.42 61.41 163.83 61.41 82.37 65.56 79.96"/><polygon class="cls-4" points="61.41 82.37 61.41 163.83 57.23 161.42 57.23 79.96 61.41 82.37"/></g><polygon class="cls-8" points="61.41 77.55 57.23 79.96 57.23 161.42 61.41 163.83 65.56 161.42 65.56 79.96 61.41 77.55"/><g class="cls-1"><polygon class="cls-9" points="88.15 76.11 84.25 78.37 80.33 76.11 84.25 73.84 88.15 76.11"/><polygon class="cls-10" points="88.15 76.11 88.15 152.56 84.25 154.83 84.25 78.37 88.15 76.11"/><polygon class="cls-4" points="84.25 78.37 84.25 154.83 80.33 152.56 80.33 76.11 84.25 78.37"/></g><polygon class="cls-11" points="84.25 73.84 80.33 76.11 80.33 152.56 84.25 154.83 88.15 152.56 88.15 76.11 84.25 73.84"/><polygon class="cls-12" points="90.02 -1.01 90.02 177.88 171.75 225.12 253.12 177.88 253.12 -1.01 90.02 -1.01"/><g class="cls-1"><polygon class="cls-13" points="253.12 99.72 171.75 146.96 90.02 99.72 171.75 52.49 253.12 99.72"/><polygon class="cls-14" points="253.12 99.72 253.12 217.99 171.75 265.23 171.75 146.96 253.12 99.72"/><polygon class="cls-15" points="171.75 146.96 171.75 265.23 90.02 217.99 90.02 99.72 171.75 146.96"/></g><polygon class="cls-16" points="171.75 155.9 253.12 108.67 253.12 107.86 171.75 155.09 171.75 155.9"/><polygon class="cls-16" points="90.02 108.67 171.75 155.9 171.75 155.09 90.02 107.86 90.02 108.67"/><polygon class="cls-17" points="165.22 36.62 168.45 59.6 171.89 61.59 175.3 59.6 178.14 36.62 165.22 36.62"/><polygon class="cls-4" points="168.45 59.6 171.87 57.62 175.3 59.6 171.89 61.59 168.45 59.6"/><polygon class="cls-18" points="95.17 76.99 98.4 99.97 101.84 101.96 105.25 99.97 108.09 76.99 95.17 76.99"/><polygon class="cls-4" points="98.4 99.97 101.82 97.99 105.25 99.97 101.84 101.96 98.4 99.97"/><polygon class="cls-19" points="236.47 76.99 239.7 99.97 243.14 101.96 246.56 99.97 249.39 76.99 236.47 76.99"/><polygon class="cls-4" points="239.7 99.97 243.12 97.99 246.56 99.97 243.14 101.96 239.7 99.97"/><polygon class="cls-20" points="165.22 116.56 168.45 139.54 171.89 141.52 175.3 139.54 178.14 116.56 165.22 116.56"/><polygon class="cls-4" points="168.45 139.54 171.87 137.55 175.3 139.54 171.89 141.52 168.45 139.54"/><path class="cls-21" d="M183.43,69.77a2.41,2.41,0,0,1,2.16,0l33.68,19.58a.66.66,0,0,1,0,1.25l-56.93,32.87a2.4,2.4,0,0,1-2.17,0l-33.68-19.58c-.6-.34-.6-.9,0-1.25Z"/><path class="cls-16" d="M184.85,76.11a.57.57,0,0,1-.51,0L182,74.74c-.14-.08-.14-.21,0-.3l2.37-1.36a.57.57,0,0,1,.51,0l2.35,1.36c.14.09.14.22,0,.3Zm-1,.6a.16.16,0,0,0,0-.3L181.47,75a.59.59,0,0,0-.52,0l-2.36,1.37c-.15.08-.15.22,0,.3l2.36,1.36a.52.52,0,0,0,.51,0Zm-3.41,2c.15-.08.14-.21,0-.29L178.06,77a.54.54,0,0,0-.51,0l-2.37,1.36c-.14.09-.14.22,0,.3L177.53,80a.59.59,0,0,0,.52,0Zm13.57,0a.16.16,0,0,0,0-.3L191.63,77a.52.52,0,0,0-.51,0l-2.37,1.36a.16.16,0,0,0,0,.3L191.1,80a.57.57,0,0,0,.51,0Zm-11.29,2.61,2.36-1.37c.15-.08.14-.22,0-.3l-2.35-1.36a.52.52,0,0,0-.51,0l-2.37,1.36a.16.16,0,0,0,0,.3l2.35,1.37A.59.59,0,0,0,182.69,81.28ZM188.23,79a.59.59,0,0,0-.52,0l-2.36,1.37c-.15.08-.15.21,0,.3L187.7,82a.57.57,0,0,0,.51,0l2.37-1.36c.14-.09.14-.22,0-.3ZM173.61,82.6c.14-.08.14-.21,0-.3l-2.35-1.36a.59.59,0,0,0-.52,0l-2.37,1.36c-.14.09-.14.22,0,.3L170.72,84a.59.59,0,0,0,.52,0Zm2.27,2.61,2.37-1.37a.16.16,0,0,0,0-.3l-2.35-1.37a.59.59,0,0,0-.52,0L173,83.54a.16.16,0,0,0,0,.3l2.35,1.37A.59.59,0,0,0,175.88,85.21Zm-5.67-.64a.16.16,0,0,0,0-.3l-2.36-1.37a.57.57,0,0,0-.51,0L165,84.27a.16.16,0,0,0,0,.3l2.35,1.36a.53.53,0,0,0,.52,0Zm10.68,1.36a.52.52,0,0,0,.51,0l2.37-1.36a.16.16,0,0,0,0-.3l-2.35-1.37a.59.59,0,0,0-.52,0l-2.36,1.37c-.14.08-.15.22,0,.3Zm-11.28-.42a.15.15,0,0,0,0,.29L172,87.17a.59.59,0,0,0,.52,0l2.36-1.37c.15-.08.15-.21,0-.29l-2.36-1.37a.57.57,0,0,0-.51,0Zm-2.81,1c.14-.08.15-.22,0-.3l-2.35-1.36a.52.52,0,0,0-.51,0l-2.37,1.36a.16.16,0,0,0,0,.3l2.35,1.37a.59.59,0,0,0,.52,0Zm10.68,1.37a.59.59,0,0,0,.52,0l2.37-1.37a.16.16,0,0,0,0-.3L178,84.87a.53.53,0,0,0-.52,0l-2.37,1.36a.16.16,0,0,0,0,.3Zm18.66-.16c-.14.09-.14.22,0,.3l.71.41a.54.54,0,0,0,.51,0l2.83-1.63a.16.16,0,0,0,0-.3l-.7-.41a.59.59,0,0,0-.52,0Zm-29.93-.27c-.15.08-.14.22,0,.3l2.35,1.37a.59.59,0,0,0,.52,0l2.36-1.37a.16.16,0,0,0,0-.3l-2.35-1.36a.53.53,0,0,0-.52,0Zm8.41-.64a.59.59,0,0,0-.52,0l-2.37,1.37c-.14.08-.14.21,0,.3l2.35,1.36a.59.59,0,0,0,.52,0L177,88.5c.14-.09.14-.22,0-.3Zm-11.81,2.6c-.15.09-.15.22,0,.3l2.36,1.37a.57.57,0,0,0,.51,0L168,89.74c.14-.09.14-.22,0-.3l-2.36-1.37a.57.57,0,0,0-.51,0Zm18.23.63c.15-.08.15-.22,0-.3l-2.35-1.37a.59.59,0,0,0-.52,0l-2.36,1.37c-.15.08-.15.22,0,.3l2.35,1.36a.53.53,0,0,0,.52,0Zm-21,.4c.15-.08.15-.21,0-.3l-2.36-1.36a.57.57,0,0,0-.51,0l-2.37,1.36c-.14.09-.14.22,0,.3l2.35,1.37a.59.59,0,0,0,.52,0Zm-.59.94a.16.16,0,0,0,0,.3l2.35,1.37a.59.59,0,0,0,.52,0l2.36-1.37c.14-.08.15-.22,0-.3L162.28,90a.57.57,0,0,0-.51,0Zm15.36,2a.57.57,0,0,0,.51,0L177.64,92c.14-.08.15-.21,0-.3l-2.34-1.36a.56.56,0,0,0-.52,0l-2.37,1.37a.15.15,0,0,0,0,.29Zm-18.17-1a.16.16,0,0,0,0-.3l-2.35-1.37a.57.57,0,0,0-.51,0l-2.37,1.37a.16.16,0,0,0,0,.3l2.35,1.36a.52.52,0,0,0,.51,0Zm11.22-1.67a.59.59,0,0,0-.52,0l-2.36,1.37c-.15.08-.14.21,0,.29l2.35,1.37a.54.54,0,0,0,.51,0l2.37-1.36c.14-.09.14-.22,0-.3ZM156,93.37c-.14.08-.15.21,0,.29L158.35,95a.57.57,0,0,0,.51,0l2.37-1.37a.15.15,0,0,0,0-.29L158.88,92a.59.59,0,0,0-.52,0Zm27.1,0c-.15.08-.14.22,0,.3l2.35,1.36a.52.52,0,0,0,.51,0L189,93.29a.16.16,0,0,0,0-.3l-2.35-1.37a.59.59,0,0,0-.52,0Zm-18.7-.66a.52.52,0,0,0-.51,0l-2.36,1.36c-.15.09-.15.22,0,.3l2.35,1.37a.59.59,0,0,0,.52,0l2.36-1.37c.15-.08.15-.21,0-.3ZM179.35,95a.17.17,0,0,0,0-.31L177,93.29a.57.57,0,0,0-.51,0l-2.37,1.37c-.14.08-.15.21,0,.3l2.34,1.36a.59.59,0,0,0,.52,0Zm-26.76.37a.16.16,0,0,0,0,.3L155,97a.57.57,0,0,0,.51,0l2.37-1.37a.16.16,0,0,0,0-.3L155.48,94a.59.59,0,0,0-.52,0Zm-2.8,1c.14-.09.14-.22,0-.3l-2.35-1.37a.59.59,0,0,0-.52,0l-2.37,1.37c-.14.08-.14.21,0,.3l2.35,1.36a.59.59,0,0,0,.52,0ZM161,94.69a.57.57,0,0,0-.51,0l-2.37,1.37c-.14.08-.14.21,0,.3l2.35,1.36a.57.57,0,0,0,.51,0l2.37-1.36c.14-.09.14-.22,0-.3ZM152.06,99l2.36-1.36c.15-.09.15-.22,0-.31l-2.35-1.36a.59.59,0,0,0-.52,0l-2.37,1.36c-.14.09-.14.22,0,.3L151.54,99A.59.59,0,0,0,152.06,99Zm-5.68-.64c.15-.08.15-.22,0-.3L144,96.66a.53.53,0,0,0-.52,0L141.15,98c-.15.09-.14.22,0,.3l2.35,1.37a.59.59,0,0,0,.52,0Zm11.22-1.66a.53.53,0,0,0-.52,0L154.72,98c-.15.08-.15.22,0,.3l2.36,1.37a.57.57,0,0,0,.51,0L160,98.32a.16.16,0,0,0,0-.3Zm15,2.22c.14-.08.14-.21,0-.3l-2.34-1.36a.56.56,0,0,0-.52,0l-2.37,1.37a.15.15,0,0,0,0,.29l2.35,1.37a.59.59,0,0,0,.52,0Zm-26.76.38c-.15.08-.14.22,0,.3l2.35,1.36a.53.53,0,0,0,.52,0L151,99.56c.15-.08.14-.22,0-.3l-2.35-1.36a.53.53,0,0,0-.52,0Zm7.87,2.39a.59.59,0,0,0,.52,0l2.37-1.37a.15.15,0,0,0,0-.29l-2.35-1.37a.59.59,0,0,0-.52,0L151.31,100a.15.15,0,0,0,0,.29Zm-2.87-1.07a.56.56,0,0,0-.52,0L147.91,102c-.15.09-.14.22,0,.3l2.35,1.37a.59.59,0,0,0,.52,0l2.36-1.37c.15-.08.15-.22,0-.3Zm15,2.24a.17.17,0,0,0,0-.31l-2.35-1.36a.59.59,0,0,0-.52,0l-2.36,1.36c-.15.09-.15.22,0,.31l2.35,1.36a.62.62,0,0,0,.53,0Zm-33.54.37a.16.16,0,0,0,0,.3l2.35,1.37a.57.57,0,0,0,.51,0l4.51-2.61c.15-.08.15-.21,0-.3l-2.36-1.36a.52.52,0,0,0-.51,0Zm14.65,2.39a.56.56,0,0,0,.52,0l2.37-1.36c.14-.09.14-.22,0-.3l-2.35-1.37a.59.59,0,0,0-.52,0l-2.36,1.36c-.15.09-.15.22,0,.31Zm16.56-.83c-.15.09-.15.22,0,.31l2.36,1.36a.59.59,0,0,0,.52,0l18.64-10.77c.15-.08.15-.21,0-.29L182.57,94a.57.57,0,0,0-.51,0Zm-27.83.4c-.14.09-.14.22,0,.3l2.35,1.37a.57.57,0,0,0,.51,0l2.37-1.37c.14-.08.14-.21,0-.3l-2.35-1.36a.57.57,0,0,0-.51,0Zm15.36,2a.54.54,0,0,0,.51,0l2.37-1.36c.14-.09.15-.22,0-.3l-2.34-1.37a.62.62,0,0,0-.53,0l-2.36,1.37c-.14.08-.15.21,0,.3Zm8-.4c.15-.08.15-.21,0-.3l-2.35-1.36a.54.54,0,0,0-.51,0l-2.37,1.37c-.14.08-.15.21,0,.29l2.35,1.37a.59.59,0,0,0,.52,0Zm-20,.38a.16.16,0,0,0,0,.3l2.35,1.36a.52.52,0,0,0,.51,0l4.52-2.6a.16.16,0,0,0,0-.3L144,104.52a.52.52,0,0,0-.51,0Zm20.36,0c-.15.08-.15.22,0,.3l2.36,1.36a.52.52,0,0,0,.51,0l3.06-1.76a.16.16,0,0,0,0-.3l-2.35-1.36a.53.53,0,0,0-.52,0Zm-13.6,3.93c-.14.08-.14.21,0,.3l2.35,1.36a.56.56,0,0,0,.52,0l6.94-4a.16.16,0,0,0,0-.3L153.18,107a.57.57,0,0,0-.51,0Zm6.79,0c-.15.08-.15.22,0,.3l2.36,1.37a.57.57,0,0,0,.51,0l2.37-1.37a.16.16,0,0,0,0-.3l-2.35-1.37a.59.59,0,0,0-.52,0ZM190.6,76.71a.16.16,0,0,0,0-.3L188.25,75a.57.57,0,0,0-.51,0l-4.51,2.61c-.15.08-.15.21,0,.29l2.36,1.37a.54.54,0,0,0,.51,0ZM177,80.64a.16.16,0,0,0,0-.3L174.66,79a.59.59,0,0,0-.52,0l-2.36,1.37c-.15.08-.15.22,0,.3L174.13,82a.57.57,0,0,0,.51,0Zm2.27,2.6,2.37-1.36c.14-.09.14-.22,0-.3l-2.35-1.37a.59.59,0,0,0-.52,0l-2.36,1.37c-.15.08-.15.21,0,.3l2.36,1.36A.57.57,0,0,0,179.28,83.24Zm18.08-2.6c.14-.09.15-.22,0-.3L195,79a.59.59,0,0,0-.52,0l-5.07,2.93c-.14.08-.15.22,0,.3l2.34,1.36a.53.53,0,0,0,.52,0ZM184.29,84a.59.59,0,0,0,.52,0l2.36-1.37c.15-.08.14-.21,0-.3l-2.35-1.36a.54.54,0,0,0-.51,0l-2.37,1.36c-.14.09-.14.22,0,.3Zm7,.19c.14-.08.14-.21,0-.3l-2.35-1.36a.56.56,0,0,0-.52,0L186,83.87c-.14.08-.15.21,0,.29l2.34,1.37a.59.59,0,0,0,.52,0Zm-.12.67c-.15.08-.15.22,0,.3l2.34,1.36a.59.59,0,0,0,.52,0l6.74-3.9c.14-.08.15-.21,0-.29l-2.33-1.36a.56.56,0,0,0-.52,0Zm-3.29,1.3c.14-.09.15-.22,0-.3l-2.35-1.36a.52.52,0,0,0-.51,0l-2.37,1.36c-.14.08-.14.21,0,.3L185,87.49a.53.53,0,0,0,.52,0Zm6.69.68c-.15.09-.14.22,0,.3l.7.41a.59.59,0,0,0,.52,0l2.82-1.63c.14-.09.15-.22,0-.3l-.7-.41a.57.57,0,0,0-.51,0ZM192.25,90c-.15.09-.15.22,0,.3l.7.41a.56.56,0,0,0,.52,0l2.83-1.63a.16.16,0,0,0,0-.3l-.7-.41a.59.59,0,0,0-.52,0Zm7.8-4.49c-.15.09-.15.22,0,.3l.7.41a.59.59,0,0,0,.52,0l2.83-1.63a.16.16,0,0,0,0-.3l-.7-.41a.59.59,0,0,0-.52,0Zm-7.1,1.6a.16.16,0,0,0,0-.3l-2.33-1.36a.59.59,0,0,0-.52,0l-2.37,1.37c-.14.08-.14.21,0,.3l2.34,1.35a.52.52,0,0,0,.51,0Zm-8.5,1c.14-.08.14-.21,0-.3l-2.35-1.36a.59.59,0,0,0-.52,0l-2.36,1.36c-.14.09-.15.22,0,.31l2.34,1.36a.59.59,0,0,0,.52,0Zm-21,.41c.14-.09.14-.22,0-.3l-2.35-1.37a.59.59,0,0,0-.52,0l-2.36,1.37c-.15.08-.15.21,0,.3l2.35,1.36a.54.54,0,0,0,.51,0Zm23.28,1.92a.56.56,0,0,0,.52,0l2.28-1.32.07-.06a.16.16,0,0,0,0-.3l-2.34-1.36a.57.57,0,0,0-.51,0l-2.37,1.37c-.14.08-.15.22,0,.3Zm-15.47-1.63a.57.57,0,0,0-.51,0l-2.37,1.37a.16.16,0,0,0,0,.3l2.35,1.37a.59.59,0,0,0,.52,0l2.36-1.37c.14-.08.15-.22,0-.3Zm12.06,3.6a.56.56,0,0,0,.52,0L186.16,91a.17.17,0,0,0,0-.31l-2.35-1.36a.56.56,0,0,0-.52,0l-2.36,1.37c-.15.08-.15.21,0,.29ZM187.19,91c-.14.09-.14.22,0,.3l2.35,1.37a.59.59,0,0,0,.52,0l2.34-1.35c.15-.09.15-.22,0-.3l-2.35-1.37a.59.59,0,0,0-.52,0Zm-4.44,2c.15-.08.15-.22,0-.3l-2.35-1.36a.52.52,0,0,0-.51,0l-2.36,1.36c-.15.08-.16.22,0,.3l2.35,1.37a.59.59,0,0,0,.52,0Zm-11.39,2.36a.54.54,0,0,0,.51,0L174.24,94c.14-.09.15-.22,0-.3l-2.35-1.37a.57.57,0,0,0-.51,0L169,93.69c-.14.08-.15.21,0,.3Zm-18.17-1a.16.16,0,0,0,0-.3l-2.35-1.36a.53.53,0,0,0-.52,0L148,94.09c-.15.08-.15.22,0,.3l2.36,1.37a.57.57,0,0,0,.51,0ZM168,97.32a.59.59,0,0,0,.52,0L170.83,96c.15-.08.15-.21,0-.3l-2.35-1.36a.56.56,0,0,0-.52,0l-2.36,1.36c-.14.09-.15.22,0,.3Zm8-.4a.16.16,0,0,0,0-.3l-2.35-1.37a.59.59,0,0,0-.52,0l-2.36,1.37c-.15.08-.15.22,0,.3l2.35,1.36a.56.56,0,0,0,.52,0Zm-11.4,2.36a.53.53,0,0,0,.52,0l2.36-1.36c.15-.09.15-.22,0-.3l-2.35-1.37a.57.57,0,0,0-.51,0l-2.36,1.37c-.15.08-.16.22,0,.3Zm-3.41,2a.59.59,0,0,0,.52,0L164,99.88c.14-.08.14-.21,0-.3l-2.35-1.36a.54.54,0,0,0-.51,0l-2.37,1.37c-.14.08-.15.21,0,.29Zm-18.16-1a.16.16,0,0,0,0-.3l-2.35-1.37a.59.59,0,0,0-.52,0L137.75,100c-.15.08-.15.22,0,.3l2.35,1.36a.53.53,0,0,0,.52,0Zm26.16.56c.15-.08.15-.22,0-.3l-2.35-1.37a.56.56,0,0,0-.52,0l-2.36,1.36c-.14.08-.15.21,0,.3l2.35,1.36a.56.56,0,0,0,.52,0Zm-23.89,2,2.37-1.36c.14-.09.14-.22,0-.3l-2.35-1.37a.59.59,0,0,0-.52,0l-2.36,1.36c-.15.09-.15.22,0,.3l2.35,1.37A.59.59,0,0,0,145.25,102.89Zm12.49.32a.56.56,0,0,0,.52,0l2.37-1.36c.14-.09.14-.22,0-.3l-2.35-1.37a.59.59,0,0,0-.52,0l-2.36,1.37c-.15.08-.15.21,0,.3Zm-16.41,1.65a.59.59,0,0,0,.52,0l2.36-1.37c.15-.08.15-.22,0-.3l-2.36-1.37a.57.57,0,0,0-.51,0L139,103.19a.16.16,0,0,0,0,.3Zm15.89-1c.14-.08.15-.21,0-.3l-2.34-1.36a.56.56,0,0,0-.52,0L152,103.51c-.14.09-.14.22,0,.3l2.35,1.37a.59.59,0,0,0,.52,0Zm2.23,2.33a.56.56,0,0,0,.52,0l2.37-1.37c.14-.08.14-.22,0-.3L160,103.11a.59.59,0,0,0-.52,0l-2.37,1.37a.16.16,0,0,0,0,.3Zm-17.11,3c-.14.08-.14.21,0,.3l2.35,1.36a.57.57,0,0,0,.51,0l5.21-3c.15-.08.15-.21,0-.3l-2.35-1.36a.53.53,0,0,0-.52,0Zm13.57,0a.17.17,0,0,0,0,.31l2.35,1.36a.59.59,0,0,0,.52,0l2.36-1.36c.14-.09.14-.22,0-.3l-2.35-1.37a.57.57,0,0,0-.51,0Zm9.64-.74a.33.33,0,0,0,0,.63l7.07,4.1a1.15,1.15,0,0,0,1.08,0l12.69-7.3a.33.33,0,0,0,0-.62L179.31,101a1.18,1.18,0,0,0-1.08,0ZM149.1,113a.15.15,0,0,0,0,.29l2.35,1.37a.59.59,0,0,0,.52,0l2.37-1.37a.15.15,0,0,0,0-.29L152,111.65a.59.59,0,0,0-.52,0Z"/><path class="cls-22" d="M183.39,29.32c.9-.52,1.63-.1,1.63.93l.12,39.59L126,104l-.11-39.59a3.54,3.54,0,0,1,1.62-2.8Z"/><path class="cls-22" d="M219.72,90a.76.76,0,0,1-.45.63l-56.93,32.87a2.4,2.4,0,0,1-2.17,0l-33.68-19.58-.1-.06-.11-.09-.12-.13v0a1.09,1.09,0,0,1-.08-.15h0a.45.45,0,0,1,0-.16v2.51a.19.19,0,0,0,0,.08.14.14,0,0,0,0,.06v0h0l0,.09,0,0,0,0,0,0a.41.41,0,0,0,.09.1h0l.11.08.08.05v0L160.18,126a2.35,2.35,0,0,0,2.16,0l56.94-32.87a.76.76,0,0,0,.45-.62Z"/><polygon class="cls-16" points="182.32 33.06 182.42 68.29 128.74 99.28 128.64 64.05 182.32 33.06"/><polygon class="cls-23" points="182.32 34.18 182.32 33.06 128.64 64.05 128.64 65.17 182.32 34.18"/><path class="cls-24" d="M183.75,29.17a1.31,1.31,0,0,1,.27-.06h0a1.1,1.1,0,0,1,.26,0h0a.92.92,0,0,1,.23.09l-1.31-.78h0l-.08,0-.09,0h-.41l-.15,0-.06,0-.06,0-.07,0-.23.11L126.24,60.79a2.11,2.11,0,0,0-.31.21l-.09.08-.15.13-.06.06,0,.06-.06.07-.14.16,0,0,0,0a.1.1,0,0,0,0,.05l-.1.14a1,1,0,0,0-.08.14h0l-.06.12-.07.14-.06.12h0l-.06.14-.06.16s0,0,0,.07v0s0,0,0,0a1.29,1.29,0,0,0,0,.19.43.43,0,0,0,0,.11.13.13,0,0,0,0,.06.11.11,0,0,0,0,.05,1.77,1.77,0,0,0,0,.32l.11,38.5a1.9,1.9,0,0,0,.94,1.64l.37.23-.11-39.59a2.4,2.4,0,0,1,0-.37.13.13,0,0,1,0-.06,2.21,2.21,0,0,1,.08-.35v0a3.57,3.57,0,0,1,.14-.38h0c.06-.13.12-.25.19-.38h0a4,4,0,0,1,.23-.34l0,0a2.17,2.17,0,0,1,.24-.29l0-.06.21-.19.09-.08a2.11,2.11,0,0,1,.31-.21l55.84-32.25a1.82,1.82,0,0,1,.3-.13Z"/><path class="cls-25" d="M213.2,104.94a7.38,7.38,0,0,0-6.68,0c-1.85,1.07-1.83,2.81,0,3.88a7.38,7.38,0,0,0,6.68,0C215.06,107.74,215.05,106,213.2,104.94Z"/><path class="cls-4" d="M208.16,108.13s-1.68-1.09-1.72-1.36.36-.55.64-.54l1.47.11.38.43S209.61,108.39,208.16,108.13Z"/><path class="cls-4" d="M211.82,106.76s-1.67-1.09-1.72-1.35.36-.55.64-.54l1.47.1.38.44S213.27,107,211.82,106.76Z"/><path class="cls-4" d="M207.61,92.91l-.05,13.77a1.69,1.69,0,0,0,1.65,0s1.56-11.9,1.58-12.18.22,10.86.22,10.86a1.45,1.45,0,0,0,1.7-.2L213.58,92Z"/><path class="cls-26" d="M212.75,87.87l.09,2.42s1.9-1,1.85-2.47c0-.33-.64-2.44-.77-3C213.28,85.2,213.24,87.36,212.75,87.87Z"/><path class="cls-27" d="M209,82.62a4.32,4.32,0,0,0-1.62.9l.25,9.39s1.19.87,3.61.23a4.15,4.15,0,0,0,2.49-1.34s0-4.36-.23-6.26a14.43,14.43,0,0,0-.73-3.37,5.58,5.58,0,0,0-1.38-.07Z"/><path class="cls-26" d="M211.17,82l.05-1.83a.43.43,0,0,0,.38-.54c-.08-.51-.55-.17-.63,0s-.11-1.74-1-1.9-1.31,0-1.33.41-.05,2,0,2.6,0,.89.84.87l.08.61s.38.35,1.56.07Z"/><path class="cls-28" d="M209,82.62c0-.36.07-.56.9-.65s1.51-.32,1.59,0-.08.52-.91.59S209,82.62,209,82.62Z"/><path class="cls-4" d="M210.07,79.72a.28.28,0,0,0-.16-.37.3.3,0,0,0-.31.13,2.27,2.27,0,0,0-.3.63L209,79.9l0-.17a1.79,1.79,0,0,0,0-.4c-.07-.29-.36-.33-.5-.54a.89.89,0,0,1,.07-1,1.57,1.57,0,0,1,.82-.58c1.09-.36,2.74.45,2.42,1.79-.18.77-.45,1.51-.65,2.27,0,.1-.26.14-.35.11a.65.65,0,0,1-.26-.17,4.1,4.1,0,0,1-.88-1.15S210.05,79.78,210.07,79.72Z"/><path class="cls-26" d="M207.4,93.34a.26.26,0,0,0,.23.23c.13,0,.22-.13.28-.25l.11-.23a.51.51,0,0,0,.06-.2c0-.07-.05-.13-.06-.2s.14-.21.17-.34-.06-.29-.17-.41a.91.91,0,0,0-.23-.21c-.35-.23-.67.17-.6.52,0,.15.13.29.18.45S207.36,93.12,207.4,93.34Z"/><path class="cls-26" d="M207.36,92.62s-2-3.14-2.1-3.84S207,84.39,207,84.39l1.35,1.5-1.52,2.73.86,3Z"/><path class="cls-27" d="M207.87,87.56a4.24,4.24,0,0,0,.33-1.15,4.49,4.49,0,0,0-.84-2.89c-.38.17-1,1.45-1.54,2.87C206.49,86.81,207.17,87.19,207.87,87.56Z"/><path class="cls-27" d="M214.3,85.27c-.51-1.5-1.2-3-1.55-3.1l.15,3.92C213.35,85.8,213.84,85.54,214.3,85.27Z"/><g class="cls-1"><path class="cls-29" d="M135.41,65a3.51,3.51,0,0,0-1.59,2.75c0,1,.72,1.42,1.6.91A3.5,3.5,0,0,0,137,65.86c0-1-.72-1.41-1.6-.91"/><path class="cls-27" d="M154.5,54.42l-15.77,9.1a.75.75,0,0,0-.34.58v.07c0,.21.16.3.35.19l15.76-9.1a.75.75,0,0,0,.34-.59v-.06c0-.21-.15-.3-.34-.19"/><path class="cls-27" d="M142.64,63.37l-3.9,2.26a.75.75,0,0,0-.34.59v0c0,.22.15.31.34.2l3.9-2.25a.75.75,0,0,0,.34-.59v-.06c0-.22-.15-.3-.34-.2"/><path class="cls-27" d="M154.48,56.54l-10.39,6a.81.81,0,0,0-.37.63c0,.23.17.33.37.21l10.39-6a.83.83,0,0,0,.36-.64c0-.23-.16-.33-.36-.21"/><path class="cls-27" d="M140.87,66.51l-2.1,1.21a.79.79,0,0,0-.36.63c0,.24.16.33.36.21l2.1-1.21a.81.81,0,0,0,.37-.63.23.23,0,0,0-.37-.21"/><path class="cls-30" d="M135.43,73.25A3.48,3.48,0,0,0,133.85,76c0,1,.71,1.42,1.59.91A3.49,3.49,0,0,0,137,74.16c0-1-.72-1.41-1.6-.91"/><path class="cls-27" d="M154.52,62.72l-15.76,9.1a.75.75,0,0,0-.34.59v.06c0,.21.15.3.34.19l15.76-9.1a.75.75,0,0,0,.34-.59v-.06c0-.21-.15-.3-.34-.19"/><path class="cls-27" d="M142.66,71.68l-3.9,2.25a.75.75,0,0,0-.34.59v0c0,.22.16.31.34.2l3.91-2.25a.77.77,0,0,0,.34-.59v-.06c0-.22-.16-.3-.35-.19"/><path class="cls-27" d="M154.5,64.84l-10.38,6a.78.78,0,0,0-.37.63c0,.23.17.32.37.21l10.38-6a.81.81,0,0,0,.37-.63.23.23,0,0,0-.37-.21"/><path class="cls-27" d="M140.89,74.81,138.8,76a.8.8,0,0,0-.37.63c0,.24.16.33.37.21l2.1-1.21a.8.8,0,0,0,.36-.63c0-.23-.16-.33-.37-.21"/><path class="cls-31" d="M135.46,81.55a3.51,3.51,0,0,0-1.59,2.75c0,1,.72,1.42,1.6.91a3.51,3.51,0,0,0,1.59-2.75c0-1-.72-1.41-1.6-.91"/><path class="cls-27" d="M154.54,71l-15.76,9.1a.75.75,0,0,0-.34.59v.06c0,.21.15.3.34.19l15.76-9.1a.72.72,0,0,0,.34-.59v-.06c0-.21-.15-.3-.34-.19"/><path class="cls-27" d="M142.69,80l-3.9,2.25a.76.76,0,0,0-.34.6v.05c0,.22.15.31.34.2l3.9-2.25a.75.75,0,0,0,.34-.59v-.06c0-.22-.16-.31-.34-.2"/><path class="cls-27" d="M154.52,73.14l-10.38,6a.84.84,0,0,0-.37.64.23.23,0,0,0,.37.21l10.39-6a.8.8,0,0,0,.36-.63c0-.23-.16-.33-.37-.21"/><path class="cls-27" d="M140.92,83.11l-2.1,1.21a.8.8,0,0,0-.37.63c0,.24.17.33.37.21l2.1-1.21a.8.8,0,0,0,.36-.63c0-.24-.16-.33-.36-.21"/><path class="cls-32" d="M168.9,46.1v3.4c3.57-2.07,6.48-.41,6.49,3.69l2.95-1.7c0-6-4.25-8.4-9.45-5.39"/><path class="cls-27" d="M168.9,46.1c-5.21,3-9.41,10.29-9.4,16.27,0,3,1.07,5.09,2.79,6.07l2.08-3.61c-1.18-.67-1.91-2.11-1.91-4.16a14.19,14.19,0,0,1,6.45-11.17V46.1"/><path class="cls-16" d="M178.35,51.49l-2.95,1.7A14.23,14.23,0,0,1,169,64.37c-1.79,1-3.41,1.13-4.58.46l-2.08,3.61c1.71,1,4.07.83,6.67-.68,5.21-3,9.41-10.29,9.39-16.27"/><path class="cls-27" d="M154.74,79.33l-17.15,9.9a.75.75,0,0,0-.34.59v.06c0,.21.15.3.34.19l17.15-9.9a.75.75,0,0,0,.34-.59v-.06c0-.21-.15-.3-.34-.19"/><path class="cls-16" d="M134.89,90.79l-.66.38a.75.75,0,0,0-.34.59v.06a.21.21,0,0,0,.34.19l.66-.38a.73.73,0,0,0,.34-.58V91c0-.21-.15-.3-.34-.19"/><path class="cls-27" d="M177.54,66.16l-17.14,9.9a.77.77,0,0,0-.35.59v.06c0,.22.16.31.35.2L177.54,67a.73.73,0,0,0,.34-.59v-.06c0-.22-.15-.31-.34-.2"/><path class="cls-16" d="M157.69,77.62,157,78a.75.75,0,0,0-.34.59v.06c0,.22.15.31.34.2l.65-.38a.75.75,0,0,0,.34-.59v-.06c0-.22-.15-.31-.34-.2"/></g><g class="cls-1"><path class="cls-33" d="M135.43,31.81l2.18-2.5c0-.06,0-.12,0-.18a2.78,2.78,0,0,1,1.26-2.19c.7-.41,1.27-.08,1.28.72a2.8,2.8,0,0,1-1.27,2.19.86.86,0,0,1-.9.08l-2.19,2.5a1,1,0,0,1,0,.18,2.78,2.78,0,0,1-1.26,2.19,1.59,1.59,0,0,1-.4.16l-2.9,6.17a1,1,0,0,1,.23.7A2.78,2.78,0,0,1,130.2,44c-.7.41-1.27.08-1.28-.72a2.28,2.28,0,0,1,.15-.76l-2.69-1.65a2.14,2.14,0,0,1-.55.46,1.16,1.16,0,0,1-.55.17l-2.67,4.75a1.09,1.09,0,0,1,.15.59,2.82,2.82,0,0,1-1.27,2.19c-.7.4-1.27.08-1.27-.73a2.81,2.81,0,0,1,1.26-2.19A1.33,1.33,0,0,1,122,46l2.67-4.74a1.14,1.14,0,0,1-.14-.59,2.75,2.75,0,0,1,1.26-2.19c.7-.41,1.27-.08,1.27.72a2.27,2.27,0,0,1-.14.76l2.69,1.65a2.14,2.14,0,0,1,.55-.46,1.45,1.45,0,0,1,.4-.16l2.9-6.17a1,1,0,0,1-.23-.7,2.75,2.75,0,0,1,1.26-2.19.88.88,0,0,1,.91-.08M142.17,22l-24,13.87a1.29,1.29,0,0,0-.59,1l0,16.78c0,.37.26.53.59.34l24-13.87a1.33,1.33,0,0,0,.59-1l-.05-16.79c0-.37-.27-.52-.59-.33"/><path class="cls-4" d="M138.86,26.94a2.78,2.78,0,0,0-1.26,2.19c0,.06,0,.12,0,.18l-2.18,2.5a.88.88,0,0,0-.91.08,2.75,2.75,0,0,0-1.26,2.19,1,1,0,0,0,.23.7L130.59,41a1.45,1.45,0,0,0-.4.16,2.14,2.14,0,0,0-.55.46L127,39.92a2.27,2.27,0,0,0,.14-.76c0-.8-.57-1.13-1.27-.72a2.75,2.75,0,0,0-1.26,2.19,1.14,1.14,0,0,0,.14.59L122,46a1.33,1.33,0,0,0-.55.17,2.81,2.81,0,0,0-1.26,2.19c0,.81.57,1.13,1.27.73a2.82,2.82,0,0,0,1.27-2.19,1.09,1.09,0,0,0-.15-.59l2.67-4.75a1.16,1.16,0,0,0,.55-.17,2.14,2.14,0,0,0,.55-.46l2.69,1.65a2.28,2.28,0,0,0-.15.76c0,.8.58,1.13,1.28.72a2.78,2.78,0,0,0,1.26-2.19,1,1,0,0,0-.23-.7l2.9-6.17a1.59,1.59,0,0,0,.4-.16,2.78,2.78,0,0,0,1.26-2.19,1,1,0,0,0,0-.18l2.19-2.5a.86.86,0,0,0,.9-.08,2.8,2.8,0,0,0,1.27-2.19c0-.8-.58-1.13-1.28-.72"/></g><g class="cls-1"><path class="cls-34" d="M109.48,69.37a.12.12,0,0,1-.19-.11.42.42,0,0,1,.19-.32l.8-.46c.11-.07.19,0,.19.1a.41.41,0,0,1-.19.33l-.8.46m1.61-.92c-.11.06-.19,0-.19-.11a.43.43,0,0,1,.18-.33l.81-.46a.12.12,0,0,1,.19.11.42.42,0,0,1-.19.32l-.8.47m-1.61-.6c-.11.06-.19,0-.19-.11a.41.41,0,0,1,.19-.33l6.94-4c.11-.06.19,0,.19.11a.41.41,0,0,1-.19.33l-6.94,4m0-1.53c-.1.06-.19,0-.19-.1a.42.42,0,0,1,.19-.33l3.9-2.25c.11-.06.19,0,.19.1a.41.41,0,0,1-.19.33l-3.9,2.25m4.71-2.72c-.1.06-.19,0-.19-.1a.42.42,0,0,1,.19-.33l.49-.28c.11-.06.19,0,.19.11a.39.39,0,0,1-.19.32l-.49.28m1.34-.77a.12.12,0,0,1-.19-.11.42.42,0,0,1,.19-.32l3.18-1.84c.11-.06.19,0,.19.11a.39.39,0,0,1-.19.32l-3.18,1.84m-6,2c-.11.06-.19,0-.19-.11a.41.41,0,0,1,.19-.33l6.62-3.82c.11-.06.19,0,.19.11a.42.42,0,0,1-.19.33l-6.62,3.82m7.45-4.3a.12.12,0,0,1-.19-.11.44.44,0,0,1,.19-.33l1.78-1c.1-.07.19,0,.19.1a.44.44,0,0,1-.19.33l-1.78,1M107,66.8c-.3.17-.55,0-.55-.32a1.22,1.22,0,0,1,.55-1c.31-.18.56,0,.56.32a1.23,1.23,0,0,1-.56,1M119.82,57l-14.19,8.19a1,1,0,0,0-.43.74l0,6.91c0,.27.19.38.43.25l14.19-8.2a.92.92,0,0,0,.43-.74V57.2c0-.27-.2-.38-.44-.24"/><path class="cls-4" d="M116.09,60.54l-6.62,3.82a.41.41,0,0,0-.19.33c0,.12.08.17.19.11L116.09,61a.42.42,0,0,0,.19-.33c0-.12-.08-.17-.19-.11"/><path class="cls-4" d="M113.37,63.64l-3.9,2.25a.42.42,0,0,0-.19.33c0,.12.09.16.19.1l3.9-2.25a.41.41,0,0,0,.19-.33c0-.12-.08-.16-.19-.1"/><path class="cls-4" d="M116.42,63.4l-6.94,4a.41.41,0,0,0-.19.33c0,.12.08.17.19.11l6.94-4a.41.41,0,0,0,.19-.33c0-.12-.08-.17-.19-.11"/><path class="cls-4" d="M110.28,68.48l-.8.46a.42.42,0,0,0-.19.32.12.12,0,0,0,.19.11l.8-.46a.41.41,0,0,0,.19-.33c0-.12-.08-.17-.19-.1"/><path class="cls-4" d="M114.67,62.89l-.49.28a.42.42,0,0,0-.19.33c0,.12.09.16.19.1l.49-.28a.39.39,0,0,0,.19-.32c0-.13-.08-.17-.19-.11"/><path class="cls-4" d="M118.7,60.56l-3.18,1.84a.42.42,0,0,0-.19.32.12.12,0,0,0,.19.11L118.7,61a.39.39,0,0,0,.19-.32c0-.12-.08-.17-.19-.11"/><path class="cls-4" d="M118.7,59l-1.78,1a.44.44,0,0,0-.19.33.12.12,0,0,0,.19.11l1.78-1a.44.44,0,0,0,.19-.33c0-.12-.09-.17-.19-.1"/><path class="cls-4" d="M107,65.52a1.22,1.22,0,0,0-.55,1c0,.35.25.49.55.32a1.23,1.23,0,0,0,.56-1c0-.36-.25-.5-.56-.32"/><path class="cls-4" d="M111.89,67.55l-.81.46a.43.43,0,0,0-.18.33c0,.12.08.17.19.11l.8-.47a.42.42,0,0,0,.19-.32.12.12,0,0,0-.19-.11"/></g><polygon class="cls-16" points="161.66 180.31 161.66 163.42 129.7 144.94 129.7 161.84 161.66 180.31"/><polygon class="cls-35" points="129.78 144.99 129.7 145.03 129.7 161.84 144.31 153.39 129.78 144.99"/><polygon class="cls-16" points="161.66 205.47 161.66 188.58 129.7 170.1 129.7 187 161.66 205.47"/><polygon class="cls-36" points="129.78 170.15 129.7 170.19 129.7 187 144.31 178.55 129.78 170.15"/><polygon class="cls-16" points="161.66 230.63 161.66 213.74 129.7 195.26 129.7 212.16 161.66 230.63"/><polygon class="cls-37" points="129.78 195.31 129.7 195.35 129.7 212.16 144.31 203.71 129.78 195.31"/><g class="cls-1"><polyline class="cls-4" points="234.34 53.57 211.3 40.27 211.26 53.89 234.31 67.19 234.34 53.57"/><polyline class="cls-4" points="234.61 68.91 220.32 60.65 220.3 65.71 234.6 73.97 234.61 68.91"/><polyline class="cls-4" points="230.82 41.71 226.42 39.17 226.41 44.23 230.81 46.77 230.82 41.71"/><path class="cls-4" d="M199.11,28.65s1.62-6.24,3.95-4.89,2.8,6.65,4.63,7.7,1.93-2.08,3.06-1.43,1.14,4.1,2.33,4.78,2-2.13,3.94-1c2.38,1.37,3.75,7.36,3.75,7.36l-21.66-12.5m23.26,1.67L197.58,16l0,14.78L222.33,45.1l0-14.78"/><path class="cls-16" d="M203.06,23.76c-2.33-1.35-3.95,4.89-3.95,4.89l21.66,12.5s-1.37-6-3.75-7.36c-1.92-1.11-2.76,1.7-3.94,1s-1.2-4.12-2.33-4.78-1.23,2.49-3.06,1.43-2.29-6.36-4.63-7.7"/><path class="cls-4" d="M202.44,48V43.21l1.78,2.22L206,47.66l-1.79.15-1.8.15m1.46-8c-3.12-1.8-5.65-.36-5.66,3.22a12.41,12.41,0,0,0,5.62,9.74c3.12,1.8,5.65.36,5.66-3.22a12.38,12.38,0,0,0-5.62-9.74"/><polyline class="cls-38" points="202.46 43.21 202.45 45.59 202.44 47.96 204.24 47.81 206.03 47.66 204.25 45.43 202.46 43.21"/><path class="cls-4" d="M197.77,57a2.81,2.81,0,0,1-1.26-2.19c0-.8.57-1.13,1.27-.72A2.77,2.77,0,0,1,199,56.29c0,.8-.57,1.13-1.27.73m8.82-.81-14.12-8.15,0,10.27,14.13,8.16-14.13-8.16V56.75l2.63-1.49,2.65,4.6,5.36-3,3.5,6V56.21"/><polyline class="cls-16" points="203.08 56.81 197.72 59.86 195.07 55.26 192.44 56.75 192.44 58.33 206.57 66.49 206.58 62.86 203.08 56.81"/><path class="cls-16" d="M197.78,54.11c-.7-.41-1.27-.08-1.27.72A2.81,2.81,0,0,0,197.77,57c.7.4,1.27.07,1.27-.73a2.77,2.77,0,0,0-1.26-2.18"/></g><g class="cls-1"><polygon class="cls-39" points="52.23 101.9 29.6 115.04 6.87 101.9 29.6 88.76 52.23 101.9"/><polygon class="cls-40" points="52.23 101.9 52.23 221.37 29.6 234.5 29.6 115.04 52.23 101.9"/><polygon class="cls-4" points="29.6 115.04 29.6 234.5 6.87 221.37 6.87 101.9 29.6 115.04"/></g><polygon class="cls-16" points="29.6 117.85 52.23 104.71 52.23 104.17 29.6 117.3 29.6 117.85"/><polygon class="cls-16" points="6.87 104.71 29.6 117.85 29.6 117.3 6.87 104.17 6.87 104.71"/><polygon class="cls-41" points="8.78 47.06 16.54 101.9 29.58 109.44 42.56 101.9 50.32 47.06 8.78 47.06"/><polygon class="cls-4" points="42.56 101.9 29.58 109.44 16.54 101.9 29.58 94.37 42.56 101.9"/><path class="cls-42" d="M44.42,65a2.26,2.26,0,0,1-.26.16l-.6.35-.28.16-.71.39-.18.09c-.29.16-.6.31-.9.46l-.24.12-.7.33-.32.14-.69.3-.28.12-1,.4-.11,0c-.29.11-.59.23-.9.33l-.32.12-.73.24-.32.11-1.16.35-.12,0c-.36.11-.72.2-1.08.29l-.32.08c-.38.1-.76.19-1.15.27l-.06,0-1.22.24-.31,0-1.41.23H29c-.46.07-.91.12-1.37.17l-.28,0c-.39,0-.77.07-1.16.09h0c-.37,0-.75,0-1.13.06h-.41l-.67,0H22.34l-.58,0-.48,0-.58,0-.48,0-.57-.06-.48,0-.59-.07-.46-.06-.7-.11L17,70.22l-.89-.17-.21,0a8.3,8.3,0,0,1-1.35-4.45v3.66a8.35,8.35,0,0,0,1.35,4.45h0l.18,0,.89.16.39.07.69.11h.11l.36,0,.59.07.48,0,.57.06.16,0,.32,0,.58,0,.48,0,.58,0H25l1.14-.05h0c.39,0,.77,0,1.16-.09h.11l.16,0,1.38-.16.11,0c.47-.07.94-.14,1.41-.23l.16,0,.15,0L32,73.52l.06,0c.39-.08.77-.17,1.15-.27l.32-.08,1.08-.28.12,0,1.16-.35.12,0,.2-.06.73-.25.32-.11c.31-.11.61-.22.9-.34l.11,0,1-.39.28-.12.69-.31.32-.14.7-.33.24-.12c.3-.15.61-.3.9-.46l.18-.09.71-.39.28-.16.6-.35a1,1,0,0,0,.17-.1l.09-.05.83-.52V64.45C45,64.63,44.7,64.8,44.42,65Z"/><path class="cls-43" d="M45.25,64.45A40.32,40.32,0,0,1,15.93,70c-4-6.37,1.34-12.75,9.5-17L38,57.19Z"/><path class="cls-22" d="M43,64.31A38.19,38.19,0,0,1,31.35,68.9a35.82,35.82,0,0,1-14,.29,7.52,7.52,0,0,1,.47-8.11,21.75,21.75,0,0,1,7.88-6.79l11,3.66Z"/><polygon class="cls-27" points="34.25 63.08 34.26 64.64 23.3 64.64 23.28 60.47 25.97 60.47 25.98 63.08 34.25 63.08"/><polygon class="cls-44" points="20.93 123.35 14.57 119.67 14.57 189.64 20.93 193.31 20.93 123.35"/><polygon class="cls-45" points="14.57 189.64 20.93 193.31 20.93 185.96 14.57 189.64"/><polygon class="cls-46" points="29.6 115.04 6.87 101.9 6.87 221.37 29.6 234.5 52.23 221.37 52.23 101.9 29.6 115.04"/><g class="cls-1"><polygon class="cls-47" points="282.03 47.13 270.05 54.08 258.03 47.13 270.05 40.18 282.03 47.13"/><polygon class="cls-48" points="282.03 47.13 282.03 153.02 270.05 159.97 270.05 54.08 282.03 47.13"/><polygon class="cls-4" points="270.05 54.08 270.05 159.97 258.03 153.02 258.03 47.13 270.05 54.08"/></g><polygon class="cls-16" points="270.05 55.57 282.03 48.62 282.03 48.33 270.05 55.28 270.05 55.57"/><polygon class="cls-16" points="258.03 48.62 270.05 55.57 270.05 55.28 258.03 48.33 258.03 48.62"/><polygon class="cls-49" points="259.04 18.12 263.14 47.13 270.04 51.12 276.91 47.13 281.01 18.12 259.04 18.12"/><polygon class="cls-4" points="276.91 47.13 270.04 51.12 263.14 47.13 270.04 43.14 276.91 47.13"/><path class="cls-42" d="M277.9,27.59l-.14.09-.32.18-.15.09-.37.2-.1.05-.48.25-.12.06-.37.17-.17.08-.37.16-.15.06-.52.21-.05,0-.48.18-.17.06-.39.13-.17.05-.61.19-.07,0-.56.15L272,30l-.61.14h0l-.64.13-.16,0-.75.12h-.06l-.73.08-.14,0-.62.05h0l-.59,0h-1.4l-.3,0h-.26l-.3,0-.26,0-.3,0-.25,0-.32,0-.24,0-.37-.06-.2,0-.48-.09-.11,0a4.41,4.41,0,0,1-.71-2.35v1.93a4.43,4.43,0,0,0,.72,2.35h.11a3.89,3.89,0,0,0,.47.09l.2,0,.37,0H264l.19,0,.31,0,.25,0,.31,0h.25l.31,0,.25,0h1.7q.3,0,.6,0h0l.61,0H269l.72-.09h.06l.75-.12h.08l.08,0,.65-.13h0L272,32l.17,0,.57-.15.06,0,.61-.18.07,0,.11,0,.38-.13.17-.06.48-.18.06,0,.52-.21.15-.06.36-.16.17-.08.37-.17.13-.06.48-.25.09-.05c.13-.06.25-.13.37-.2l.15-.08.32-.19.09-.05.05,0,.44-.28V27.32Z"/><path class="cls-50" d="M278.33,27.32a21.34,21.34,0,0,1-15.51,2.94c-2.1-3.37.71-6.74,5-9l6.65,2.21Z"/><path class="cls-22" d="M277.16,27.24A20.14,20.14,0,0,1,271,29.67a19.11,19.11,0,0,1-7.41.16,4,4,0,0,1,.25-4.3A11.49,11.49,0,0,1,268,21.94l5.81,1.94Z"/><polygon class="cls-27" points="272.51 26.59 272.52 27.42 266.72 27.42 266.71 25.21 268.13 25.21 268.14 26.59 272.51 26.59"/><polygon class="cls-51" points="277.3 44.38 281.01 18.12 259.04 18.12 262.76 44.4 258.03 47.13 258.03 153.02 270.05 159.97 282.03 153.02 282.03 47.13 277.3 44.38"/><g class="cls-1"><polygon class="cls-52" points="293.45 160.73 244.03 189.42 194.38 160.73 244.03 132.04 293.45 160.73"/><polygon class="cls-53" points="293.45 160.73 293.45 231.69 244.03 260.38 244.03 189.42 293.45 160.73"/><polygon class="cls-54" points="244.03 189.42 244.03 260.38 194.38 231.69 194.38 160.73 244.03 189.42"/></g><polygon class="cls-16" points="244.03 195.1 293.45 166.41 293.45 165.67 244.03 194.36 244.03 195.1"/><polygon class="cls-16" points="194.38 166.41 244.03 195.1 244.03 194.36 194.38 165.67 194.38 166.41"/><g class="cls-1"><path class="cls-55" d="M268,153.24a.41.41,0,0,1,0,.11.29.29,0,0,0,0,.09l0,.11,0,.09a1.17,1.17,0,0,0-.05.11l-.05.08-.08.12-.06.07-.15.17-.06.05-.11.09-.1.08-.13.09-.14.09-30.17,17.53a5.53,5.53,0,0,1-5,0l-13.91-8a1.78,1.78,0,0,1-1.05-1.47v1.84a1.78,1.78,0,0,0,1.05,1.48l13.9,8a5.55,5.55,0,0,0,5,0l30.17-17.53,0,0,.1-.06.12-.08.1-.08.11-.09,0,0,0,0a1.1,1.1,0,0,0,.15-.16l0,0s0,0,0,0l.08-.13,0,0v0a.54.54,0,0,0,.05-.11s0,0,0-.06v0l0-.1a.24.24,0,0,0,0-.08v0s0-.07,0-.11a.17.17,0,0,1,0-.07v-1.88A.41.41,0,0,1,268,153.24Z"/><path class="cls-56" d="M266.92,151.66c1.4.81,1.4,2.12,0,2.93l-30.17,17.53a5.53,5.53,0,0,1-5,0l-13.91-8c-1.39-.8-1.4-2.11,0-2.92L248,143.64a5.55,5.55,0,0,1,5.05,0ZM236,171.7l30.17-17.53a1.11,1.11,0,0,0,0-2.09l-1.25-.72-1.89,0-9.6-5.54.09-1.09-1.25-.73a4,4,0,0,0-3.61,0l-30.17,17.54a1.1,1.1,0,0,0,0,2.08l13.91,8a3.94,3.94,0,0,0,3.6,0"/><path class="cls-57" d="M266.2,152.08a1.11,1.11,0,0,1,0,2.09L236,171.7a3.94,3.94,0,0,1-3.6,0l-13.91-8a1.1,1.1,0,0,1,0-2.08l30.17-17.54a4,4,0,0,1,3.61,0l1.25.73-.09,1.09,9.6,5.54,1.89,0Z"/><path class="cls-57" d="M266.2,152.08a1.11,1.11,0,0,1,0,2.09L236,171.7a3.94,3.94,0,0,1-3.6,0l-13.91-8a1.1,1.1,0,0,1,0-2.08l30.17-17.54a4,4,0,0,1,3.61,0l1.25.73-.09,1.09,9.6,5.54,1.89,0Z"/></g><g class="cls-58"><path class="cls-25" d="M228.26,150c1.75,1,1.76,2.64,0,3.65a6.93,6.93,0,0,1-6.3,0c-1.75-1-1.76-2.64,0-3.66A7,7,0,0,1,228.26,150Z"/></g><path class="cls-4" d="M222.5,150.73s-.25,0-.3.13a7.22,7.22,0,0,0-.07,1,6.21,6.21,0,0,0,1.28,1c.62.32,1.16.46,1.4.25s.09-.45-.42-.86a5.31,5.31,0,0,1-1-1.53Z"/><path class="cls-4" d="M225.76,149.42s-.25,0-.3.13a7.17,7.17,0,0,0-.07,1,6.09,6.09,0,0,0,1.28,1c.62.32,1.16.46,1.4.25s.09-.45-.42-.86a5.31,5.31,0,0,1-1-1.53Z"/><path class="cls-26" d="M227.56,137.38s0,.33,0,.39a3.57,3.57,0,0,0-.31.62.41.41,0,0,0,.15.26,1.81,1.81,0,0,0,0,.37c0,.06.32,0,.35,0s.21.13.33.08a4.68,4.68,0,0,0,.5-.2,6.68,6.68,0,0,0-.08-1.86c-.05-.26-.28-6.37-.43-6.32S227.56,137.38,227.56,137.38Z"/><path class="cls-28" d="M228.45,131.48c-.13-.6-.28-1.3-.41-1.78-.28-1-.48-1.81-1.08-1.83l-.2,3.45s.06.52.17,1.11A10.44,10.44,0,0,0,228.45,131.48Z"/><path class="cls-4" d="M222.12,138l-.05,13a1.61,1.61,0,0,0,1.55,0s1.47-11.22,1.5-11.48.21,10.24.21,10.24a1.36,1.36,0,0,0,1.6-.19l.82-12.42Z"/><path class="cls-28" d="M223.41,128.29a7.29,7.29,0,0,0-1.83,1.06l.54,8.65a4.16,4.16,0,0,0,3.4.22,4,4,0,0,0,2.35-1.27s.17-4.25,0-6a8.13,8.13,0,0,0-.91-3,5.45,5.45,0,0,0-1.3-.07Z"/><path class="cls-4" d="M225.82,123a2.42,2.42,0,0,0-1.17-.09,1.65,1.65,0,0,0-1.64,1.36,3.63,3.63,0,0,0,.41,1.93c.34.78.58.5.58.5l2-.81a2.14,2.14,0,0,0,.62-.26c.24-.22.16-.58.21-.87a1.47,1.47,0,0,0-.09-1.07,1.69,1.69,0,0,0-.75-.62Z"/><path class="cls-26" d="M223.79,127.87l0-1.73a.4.4,0,0,1-.36-.51c.07-.47.52-.16.6,0s.1-1.64,1-1.8,1.71,0,1.73.45,0,1.91,0,2.46-.48.77-1.27.75l.05.89s-.4.29-1.51,0Z"/><path class="cls-28" d="M225.42,127.66a.46.46,0,0,1,.21,0,1,1,0,0,1,.38.7,2.47,2.47,0,0,1-.13.75l-.72-.65-.46.88A2,2,0,0,1,224,129a2.62,2.62,0,0,1-.62-.73l.21-.5c0-.07.17-.11.17-.11a3,3,0,0,0,1.37.73S225.37,128.31,225.42,127.66Z"/><path class="cls-26" d="M222.11,138.59l.11.38c0,.06.39.41.42.55s-.09.27-.09.27a1.73,1.73,0,0,1,0,.37c0,.07-.3.09-.33.11s-.18.17-.3.15a3.89,3.89,0,0,1-.53-.1,6.38,6.38,0,0,1-.3-1.83c0-.3.1-6.3.1-6.3l1.31.49Z"/><path class="cls-28" d="M222.61,133.11c0-.76,0-1.58,0-1.78,0-.68,0-2.59-1.07-2-.41.25-.51,2.11-.59,3.36A3.13,3.13,0,0,0,222.61,133.11Z"/><path class="cls-4" d="M226.73,124.48a.63.63,0,0,0,0-.61,1.25,1.25,0,0,0-.49-.39c-.48-.23-1.81-.49-1.85.34,0,.41.34,1.1.83,1,.21,0,.34-.23.57-.17s.43.33.45,0A.43.43,0,0,0,226.73,124.48Z"/><path class="cls-4" d="M223.7,125.27a1.29,1.29,0,0,1,.44.83h.17c0-.22,0-.41,0-.63a1.5,1.5,0,0,0,.35-1.3c0-.19-.15-.39-.34-.41s-.34.17-.42.34A2.16,2.16,0,0,0,223.7,125.27Z"/><path class="cls-59" d="M208.82,99.46c.13,8.41,9,63.34,9,63.34h0a1.37,1.37,0,0,0,.72.87l13.91,8a3.94,3.94,0,0,0,3.6,0l30.17-17.53a1.29,1.29,0,0,0,.74-1h0s5.12-33.69,7.61-53.67Z"/><g class="cls-1"><path class="cls-60" d="M250.26,154.73c-.19.12-.35,0-.35-.2a.81.81,0,0,1,.35-.61l1.73-1c.19-.12.35,0,.35.2a.81.81,0,0,1-.35.61l-1.73,1M241.58,158c-.19.11-.35,0-.35-.21a.77.77,0,0,1,.35-.6l2.88-1.66c.19-.11.34,0,.34.2a.74.74,0,0,1-.34.61L241.58,158m0-1.7c-.2.11-.35,0-.35-.21a.75.75,0,0,1,.35-.6l6.91-4c.19-.11.34,0,.34.2a.74.74,0,0,1-.34.61l-6.91,4m8.27-4.78c-.19.11-.35,0-.35-.2a.78.78,0,0,1,.35-.61l2.13-1.23c.19-.11.35,0,.35.2a.78.78,0,0,1-.35.61l-2.13,1.23m3.9,1.16,0-5.91,4.16-2.4,0,5.91-4.16,2.4m-12.18,1.91c-.19.11-.35,0-.35-.2a.81.81,0,0,1,.35-.61l2.13-1.22c.19-.12.35,0,.35.2a.75.75,0,0,1-.35.6l-2.13,1.23m3.5-2c-.2.12-.36,0-.36-.19a.78.78,0,0,1,.35-.61l6.91-4c.2-.11.36,0,.36.2a.79.79,0,0,1-.36.61l-6.9,4m-3.5-1.39c-.2.12-.36,0-.36-.19a.78.78,0,0,1,.35-.61l3.3-1.9c.19-.12.35,0,.35.2a.75.75,0,0,1-.35.6l-3.29,1.9m0-1.7c-.2.12-.35,0-.35-.2a.75.75,0,0,1,.35-.6l12.87-7.44c.2-.11.36,0,.36.2a.79.79,0,0,1-.35.61l-12.88,7.43m14.24-8.22c-.19.11-.35,0-.35-.2a.79.79,0,0,1,.35-.61l1.73-1c.19-.11.35,0,.35.2a.77.77,0,0,1-.35.6l-1.73,1m-14.24,6.52c-.2.12-.36,0-.36-.2a.79.79,0,0,1,.35-.61l10.09-5.82c.2-.12.36,0,.36.2a.81.81,0,0,1-.35.61l-10.09,5.82m11.62-6.71c-.19.11-.35,0-.35-.21a.77.77,0,0,1,.35-.6l4.34-2.51c.2-.11.35,0,.35.2a.77.77,0,0,1-.35.61l-4.34,2.51m-11.63,5c-.2.11-.35,0-.35-.21a.75.75,0,0,1,.35-.6l16-9.22c.19-.11.35,0,.35.2a.81.81,0,0,1-.35.61l-16,9.22m-.22-2.48,0-8.76,16.53-9.55,0,8.77-16.53,9.54M259.8,121l-20.47,11.81a2.23,2.23,0,0,0-1,1.73l.09,28.66c0,.64.45.89,1,.57l20.46-11.81a2.18,2.18,0,0,0,1-1.73l-.08-28.66c0-.64-.45-.89-1-.57"/><polyline class="cls-16" points="257.84 125.33 241.31 134.88 241.33 143.64 257.86 134.1 257.84 125.33"/><path class="cls-16" d="M257.52,136.09l-16,9.22a.75.75,0,0,0-.35.6c0,.23.15.32.35.21l16-9.22a.81.81,0,0,0,.35-.61c0-.22-.16-.31-.35-.2"/><path class="cls-16" d="M251.64,141.19,241.55,147a.79.79,0,0,0-.35.61c0,.22.16.32.36.2L251.65,142a.81.81,0,0,0,.35-.61c0-.23-.16-.32-.36-.2"/><path class="cls-16" d="M257.52,137.79l-4.34,2.51a.77.77,0,0,0-.35.6c0,.23.16.32.35.21l4.34-2.51a.77.77,0,0,0,.35-.61c0-.22-.15-.31-.35-.2"/><path class="cls-16" d="M254.43,141.28l-12.87,7.44a.75.75,0,0,0-.35.6c0,.23.15.32.35.2l12.88-7.43a.79.79,0,0,0,.35-.61c0-.22-.16-.31-.36-.2"/><path class="cls-16" d="M257.53,139.5l-1.73,1a.79.79,0,0,0-.35.61c0,.22.16.31.35.2l1.73-1a.77.77,0,0,0,.35-.6c0-.22-.16-.31-.35-.2"/><path class="cls-16" d="M244.86,148.52l-3.3,1.9a.78.78,0,0,0-.35.61c0,.22.16.31.36.19l3.29-1.9a.75.75,0,0,0,.35-.6c0-.23-.16-.32-.35-.2"/><path class="cls-16" d="M252,149.52l-2.13,1.23a.78.78,0,0,0-.35.61c0,.22.16.31.35.2l2.13-1.23a.78.78,0,0,0,.35-.61c0-.22-.16-.31-.35-.2"/><path class="cls-16" d="M248.49,151.54l-6.91,4a.75.75,0,0,0-.35.6c0,.23.15.32.35.21l6.91-4a.74.74,0,0,0,.34-.61c0-.22-.15-.31-.34-.2"/><path class="cls-16" d="M252,152.93l-1.73,1a.81.81,0,0,0-.35.61c0,.23.16.32.35.2l1.73-1a.81.81,0,0,0,.35-.61c0-.23-.16-.32-.35-.2"/><path class="cls-16" d="M244.46,155.57l-2.88,1.66a.77.77,0,0,0-.35.6c0,.23.16.32.35.21l2.88-1.66a.74.74,0,0,0,.34-.61c0-.22-.15-.31-.34-.2"/><path class="cls-16" d="M243.7,152.6l-2.13,1.22a.81.81,0,0,0-.35.61c0,.22.16.31.35.2l2.13-1.23a.75.75,0,0,0,.35-.6c0-.23-.16-.32-.35-.2"/><path class="cls-16" d="M252,147.82l-6.91,4a.78.78,0,0,0-.35.61c0,.22.16.31.36.19l6.9-4a.79.79,0,0,0,.36-.61c0-.22-.16-.31-.36-.2"/><polyline class="cls-16" points="257.89 144.41 253.73 146.81 253.75 152.72 257.91 150.32 257.89 144.41"/></g><polygon class="cls-61" points="42.56 97.04 42.56 167.01 74.52 185.48 106.35 167.01 106.35 97.04 42.56 97.04"/><g class="cls-1"><polygon class="cls-62" points="106.35 151.02 74.52 169.5 42.56 151.02 74.52 132.55 106.35 151.02"/><polygon class="cls-63" points="106.35 151.02 106.35 220.98 74.52 239.46 74.52 169.5 106.35 151.02"/><polygon class="cls-64" points="74.52 169.5 74.52 239.46 42.56 220.99 42.56 151.02 74.52 169.5"/></g><polygon class="cls-16" points="74.52 173.44 106.35 154.97 106.35 154.2 74.52 172.68 74.52 173.44"/><polygon class="cls-16" points="42.56 154.97 74.52 173.44 74.52 172.68 42.56 154.2 42.56 154.97"/><path class="cls-65" d="M87.93,158a7.35,7.35,0,0,0-6.68,0c-1.85,1.08-1.83,2.81,0,3.88a7.32,7.32,0,0,0,6.68,0C89.79,160.77,89.78,159.05,87.93,158Z"/><path class="cls-4" d="M88,169.73s-.25,0-.29.12a6.54,6.54,0,0,0-.07,1,6,6,0,0,0,1.24.93c.59.31,1.11.44,1.34.24s.08-.43-.41-.83a5,5,0,0,1-1-1.46Z"/><path class="cls-4" d="M89.23,167.29s-.24,0-.3,0a6.24,6.24,0,0,0-.32.95,6.53,6.53,0,0,0,1,1.22c.5.44,1,.7,1.24.57s.19-.4-.18-.91a5.13,5.13,0,0,1-.56-1.66Z"/><path class="cls-4" d="M81.33,157.3c0,1.14.12,2.93.71,3.33.89.61,4.55,3.42,4.55,3.42l1,5.78a1.25,1.25,0,0,0,1.58,0s-.64-6.5-.78-7.07-3.52-4.24-3.52-4.24Z"/><path class="cls-4" d="M84.39,156.71c-.31,1.09-.52,2.38,0,2.89s6.08,2.2,6.08,2.2l-1.65,5.52a1.26,1.26,0,0,0,1.54.4s3-6.31,3-6.89-5.58-3.3-5.58-3.3Z"/><g class="cls-1"><path class="cls-66" d="M93.3,159.07l-5.42,3.15a.08.08,0,0,0,0-.05L93.33,159A.06.06,0,0,1,93.3,159.07Z"/><polygon class="cls-66" points="87.9 162.05 93.33 158.9 93.33 159.01 87.9 162.17 87.9 162.05"/><polygon class="cls-67" points="83.82 159.65 89.25 156.49 93.3 158.83 87.87 161.99 83.82 159.65"/><path class="cls-4" d="M92.1,158.68c.08,0,.09.12,0,.17L88,161.22a.32.32,0,0,1-.3,0l-1.54-.89c-.08,0-.08-.12,0-.17l4.08-2.37a.32.32,0,0,1,.3,0Z"/><path class="cls-67" d="M88.11,162.17l1.68-3L95.22,156l-1.69,3a0,0,0,0,1,0,0l-5.43,3.16Z"/><path class="cls-67" d="M89.66,158.82l0,0c.09.11.13.26.08.33l-1.68,3c-.07.13-.25.08-.3.05L84,160a.41.41,0,0,1-.18-.32v0L87.87,162Z"/><path class="cls-67" d="M89.66,158.82l5.43-3.16,0,.05a.33.33,0,0,1,.09.33l-5.43,3.15c0-.07,0-.22-.08-.33Z"/></g><path class="cls-4" d="M89.17,157.88a0,0,0,0,1,0,.08l-1.35.78a.15.15,0,0,1-.13,0l-.68-.39a0,0,0,0,1,0-.08l1.35-.78a.15.15,0,0,1,.13,0Z"/><path class="cls-26" d="M86.93,152s.59,1.51.72,1.92,1.53,2.9,1.61,3A14.27,14.27,0,0,1,90.37,158a.41.41,0,0,1-.41.4c-.33,0-1.22-.61-1.22-.61s-.22.58-.32-.11.18-.58,0-.93a5,5,0,0,1-1.84-2.28,4.75,4.75,0,0,1,0-2.35Z"/><path class="cls-67" d="M87.37,152.18c-.27-1.27-.84-2.94-1.39-3l.5,3.63A2.07,2.07,0,0,0,87.37,152.18Z"/><path class="cls-67" d="M82.57,149.58a6.83,6.83,0,0,0-1.76,1l.52,7.24a4,4,0,0,0,3.27.21,3.78,3.78,0,0,0,2.25-1.22,51.23,51.23,0,0,0,0-5.27,3.84,3.84,0,0,0-.87-2.38,5.05,5.05,0,0,0-1.25-.07Z"/><path class="cls-4" d="M85,144.66a4.38,4.38,0,0,0-2.29.14c-1.13.42-.47,2-.14,2.79s.57.48.57.48l2.45-1s.08-.08,0-1.1A1.49,1.49,0,0,0,85,144.66Z"/><path class="cls-26" d="M82.93,149.18l-.05-1.66a.38.38,0,0,1-.34-.49c.07-.46.5-.16.57,0s.1-1.58.93-1.73,1.65,0,1.67.43.05,1.83,0,2.36-.46.74-1.23.72l.06.86s-.39.28-1.46,0Z"/><path class="cls-4" d="M84.49,149a.68.68,0,0,1,.21,0,1.06,1.06,0,0,1,.37.67,2.74,2.74,0,0,1-.13.73l-.69-.63-.44.84a1.71,1.71,0,0,1-.64-.33,2.32,2.32,0,0,1-.6-.7c.12-.3.2-.48.2-.48s.16-.11.16-.11a3,3,0,0,0,1.32.71S84.45,149.6,84.49,149Z"/><path class="cls-67" d="M81.23,154.35a6.37,6.37,0,0,0,.58-2.63,1.42,1.42,0,0,0-1-1.12,10.58,10.58,0,0,0-1.17,2.78Z"/><path class="cls-4" d="M86.62,145a1.26,1.26,0,0,0-.24-.44c-.56-.68-1.37-.28-2.09-.41a4.21,4.21,0,0,0-.51-.12,1.17,1.17,0,0,0-1.11.64l-.09.24a1.09,1.09,0,0,0-.08.39,5.62,5.62,0,0,0,.15.8,3.35,3.35,0,0,0,.48,1.19l.19-.06a1.06,1.06,0,0,1,.11-.52.86.86,0,0,0,.09-.82,1.16,1.16,0,0,0,1,.15,1.66,1.66,0,0,1,.91.22,1,1,0,0,0,.92,0,.86.86,0,0,0,.32-.63A1.83,1.83,0,0,0,86.62,145Z"/><path class="cls-26" d="M80.13,153.68s-.37,1.92,0,2.3,3.47,2.26,3.73,2.53a3.31,3.31,0,0,0,1.71,1c.58,0,.88.53,1.17.59s.25-.7.16-1-.8-.4-.8-.4.75-.37-.43-.22l-.69-.11-3.47-3.33.07-.57Z"/><g class="cls-68"><path class="cls-69" d="M65.21,145.15v-3.33l2.26-1.3v3.32l-2.26,1.31m8.6-5v-5l2.26-1.31v5l-2.26,1.31m-8.61,1.64v-2l2.26-1.31v2.06l-2.26,1.3m4.31.84,0-5.82,2.26-1.31,0,5.83-2.26,1.3m8.6-5,0-7.88,2.26-1.3,0,7.88-2.26,1.3m-4.31-2.51v-3.1l2.26-1.31v3.1l-2.26,1.31m-4.31,1.66v-3.61l2.26-1.31v3.61l-2.26,1.31m8.6-7v-4.88l2.26-1.3v4.88l-2.26,1.3M63.53,148.26c-.1.05-.18,0-.18-.1l-.05-15.71a.39.39,0,0,1,.19-.31.11.11,0,0,1,.18.1l0,15.5,19.77-11.42c.11-.06.19,0,.19.11a.4.4,0,0,1-.18.31l-20,11.52m3.89-20.54c-.2.12-.36,0-.36-.2a.81.81,0,0,1,.36-.63l5.77-3.33c.2-.11.36,0,.36.21a.78.78,0,0,1-.36.62l-5.77,3.33m7-4c-.2.11-.36,0-.36-.21a.78.78,0,0,1,.36-.62l1.33-.77c.2-.12.36,0,.36.2a.81.81,0,0,1-.36.63l-1.33.77m-10.93,6.38v-1l2.16-1.25v1l-2.17,1.25m7.79-6.65a.28.28,0,0,1-.26,0,.29.29,0,0,1-.1-.24v-.08l0-.09,0-.09,0-.09a.65.65,0,0,1,.26-.26.26.26,0,0,1,.26,0l0,0,0,.05,0,.07v.08a.81.81,0,0,1-.1.35.84.84,0,0,1-.26.27m-3.86,2.23a.22.22,0,0,1-.36-.21.78.78,0,0,1,.36-.62l2.8-1.62c.2-.11.36,0,.36.21a.78.78,0,0,1-.36.62l-2.8,1.62m5-2.88c-.2.12-.36,0-.36-.2a.78.78,0,0,1,.36-.62L75.74,120a.22.22,0,0,1,.36.21.78.78,0,0,1-.36.62l-3.35,1.93M63.47,128v-1l2.17-1.25v1L63.47,128M85,111.64,61.57,125.19a2.41,2.41,0,0,0-1.09,1.87L60.56,152c0,.69.48,1,1.08.62L85.11,139a2.37,2.37,0,0,0,1.08-1.87l-.07-24.89c0-.68-.49-1-1.09-.62"/><path class="cls-4" d="M63.49,132.14a.39.39,0,0,0-.19.31l.05,15.71c0,.11.08.15.18.1l20-11.52a.4.4,0,0,0,.18-.31c0-.12-.08-.17-.19-.11L63.71,147.74l0-15.5a.11.11,0,0,0-.18-.1"/><polyline class="cls-27" points="67.46 140.52 65.2 141.82 65.21 145.15 67.47 143.84 67.46 140.52"/><polyline class="cls-27" points="71.75 135.53 69.49 136.84 69.51 142.66 71.77 141.36 71.75 135.53"/><polyline class="cls-27" points="76.06 133.87 73.8 135.18 73.81 140.18 76.07 138.87 76.06 133.87"/><polyline class="cls-27" points="80.35 128.51 78.09 129.81 78.11 137.69 80.37 136.39 80.35 128.51"/><polyline class="cls-4" points="67.45 138.46 65.19 139.77 65.2 141.82 67.46 140.52 67.45 138.46"/><polyline class="cls-4" points="71.74 131.92 69.48 133.23 69.49 136.84 71.75 135.53 71.74 131.92"/><polyline class="cls-4" points="76.05 130.77 73.79 132.08 73.8 135.18 76.06 133.87 76.05 130.77"/><polyline class="cls-4" points="80.34 123.63 78.08 124.93 78.09 129.81 80.35 128.51 80.34 123.63"/><polyline class="cls-27" points="65.64 125.77 63.47 127.02 63.47 128 65.64 126.75 65.64 125.77"/><polyline class="cls-27" points="65.64 127.85 63.48 129.1 63.48 130.07 65.64 128.82 65.64 127.85"/><path class="cls-4" d="M70.21,123.2l-2.8,1.62a.78.78,0,0,0-.36.62.22.22,0,0,0,.36.21l2.8-1.62a.78.78,0,0,0,.36-.62c0-.23-.16-.32-.36-.21"/><path class="cls-4" d="M71.27,122.6a.65.65,0,0,0-.26.26l0,.09,0,.09,0,.09v.08a.29.29,0,0,0,.1.24.28.28,0,0,0,.26,0,.84.84,0,0,0,.26-.27.81.81,0,0,0,.1-.35v-.08l0-.07,0-.05,0,0a.26.26,0,0,0-.26,0"/><path class="cls-4" d="M75.74,120,72.39,122a.78.78,0,0,0-.36.62c0,.23.16.32.36.2l3.35-1.93a.78.78,0,0,0,.36-.62.22.22,0,0,0-.36-.21"/><path class="cls-4" d="M73.19,123.56l-5.77,3.33a.81.81,0,0,0-.36.63c0,.23.16.32.36.2l5.77-3.33a.78.78,0,0,0,.36-.62c0-.23-.16-.32-.36-.21"/><path class="cls-4" d="M75.74,122.09l-1.33.77a.78.78,0,0,0-.36.62c0,.23.16.32.36.21l1.33-.77a.81.81,0,0,0,.36-.63c0-.22-.16-.32-.36-.2"/></g></g></g></svg>