<svg xmlns="http://www.w3.org/2000/svg" xmlns:xlink="http://www.w3.org/1999/xlink" viewBox="0 0 442.38 356.33"><defs><style>.cls-1{isolation:isolate;}.cls-2,.cls-3{fill:#13426f;}.cls-2{opacity:0.2;}.cls-4{fill:none;stroke:#6388c6;stroke-linecap:round;stroke-miterlimit:10;stroke-width:0.5px;}.cls-5{fill:url(#linear-gradient);}.cls-6{fill:#c8c8c8;}.cls-7{fill:#848384;}.cls-8{fill:url(#linear-gradient-2);}.cls-9{fill:url(#linear-gradient-3);}.cls-10{fill:#cadcea;}.cls-11{fill:url(#linear-gradient-4);}.cls-12{fill:url(#linear-gradient-5);}.cls-13{fill:url(#linear-gradient-6);}.cls-14{fill:url(#linear-gradient-7);}.cls-15{mix-blend-mode:lighten;}.cls-16{fill:#1b449b;}.cls-17{fill:url(#linear-gradient-8);}.cls-18{fill:url(#linear-gradient-9);}.cls-19{fill:url(#linear-gradient-10);}.cls-20{fill:url(#linear-gradient-11);}.cls-21{fill:url(#linear-gradient-12);}.cls-22{fill:url(#linear-gradient-13);}.cls-23{fill:url(#linear-gradient-14);}.cls-24{fill:url(#linear-gradient-15);}.cls-25{fill:url(#linear-gradient-16);}.cls-26{fill:url(#linear-gradient-17);}.cls-27{fill:url(#linear-gradient-18);}.cls-28{fill:url(#linear-gradient-19);}.cls-29{fill:url(#linear-gradient-20);}.cls-30{fill:url(#linear-gradient-21);}.cls-31{fill:url(#linear-gradient-22);}.cls-32{fill:url(#linear-gradient-23);}.cls-33{fill:url(#linear-gradient-24);}.cls-34{fill:url(#linear-gradient-25);}.cls-35{fill:url(#linear-gradient-26);}.cls-36,.cls-39,.cls-41,.cls-43,.cls-45{opacity:0.15;}.cls-36{fill:url(#linear-gradient-27);}.cls-37{fill:url(#linear-gradient-28);}.cls-38{fill:#fff;}.cls-39{fill:url(#linear-gradient-29);}.cls-40{fill:url(#linear-gradient-30);}.cls-41{fill:url(#linear-gradient-31);}.cls-42{fill:url(#linear-gradient-32);}.cls-43{fill:url(#linear-gradient-33);}.cls-44{fill:url(#linear-gradient-34);}.cls-45{fill:url(#linear-gradient-35);}.cls-46{fill:url(#linear-gradient-36);}</style><linearGradient id="linear-gradient" x1="169.73" y1="189.51" x2="191.12" y2="226.57" gradientUnits="userSpaceOnUse"><stop offset="0" stop-color="#0b62a3"/><stop offset="1" stop-color="#3189c9"/></linearGradient><linearGradient id="linear-gradient-2" x1="110.58" y1="189.27" x2="228.09" y2="189.27" xlink:href="#linear-gradient"/><linearGradient id="linear-gradient-3" x1="110.58" y1="141.72" x2="228.09" y2="141.72" xlink:href="#linear-gradient"/><linearGradient id="linear-gradient-4" x1="121.26" y1="115.73" x2="217.4" y2="115.73" xlink:href="#linear-gradient"/><linearGradient id="linear-gradient-5" x1="121.26" y1="155.01" x2="163.99" y2="155.01" xlink:href="#linear-gradient"/><linearGradient id="linear-gradient-6" x1="174.67" y1="124.17" x2="217.4" y2="124.17" xlink:href="#linear-gradient"/><linearGradient id="linear-gradient-7" x1="213.92" y1="212.4" x2="363.48" y2="212.4" xlink:href="#linear-gradient"/><linearGradient id="linear-gradient-8" x1="215.72" y1="159.94" x2="301.18" y2="159.94" xlink:href="#linear-gradient"/><linearGradient id="linear-gradient-9" x1="222.54" y1="140.36" x2="294.35" y2="140.36" xlink:href="#linear-gradient"/><linearGradient id="linear-gradient-10" x1="232.86" y1="191.85" x2="240" y2="191.85" xlink:href="#linear-gradient"/><linearGradient id="linear-gradient-11" x1="249.05" y1="182.53" x2="256.19" y2="182.53" xlink:href="#linear-gradient"/><linearGradient id="linear-gradient-12" x1="265.15" y1="173.2" x2="272.29" y2="173.2" xlink:href="#linear-gradient"/><linearGradient id="linear-gradient-13" x1="281.25" y1="163.91" x2="288.39" y2="163.91" xlink:href="#linear-gradient"/><linearGradient id="linear-gradient-14" x1="111.69" y1="292.89" x2="111.69" y2="197.49" xlink:href="#linear-gradient"/><linearGradient id="linear-gradient-15" x1="94.67" y1="220.61" x2="130.58" y2="220.61" xlink:href="#linear-gradient"/><linearGradient id="linear-gradient-16" x1="94.67" y1="267.25" x2="130.58" y2="267.25" xlink:href="#linear-gradient"/><linearGradient id="linear-gradient-17" x1="94.67" y1="237.73" x2="110.69" y2="237.73" xlink:href="#linear-gradient"/><linearGradient id="linear-gradient-18" x1="114.55" y1="226.55" x2="130.58" y2="226.55" xlink:href="#linear-gradient"/><linearGradient id="linear-gradient-19" x1="101.78" y1="250.35" x2="109.02" y2="250.35" xlink:href="#linear-gradient"/><linearGradient id="linear-gradient-20" x1="118.2" y1="240.89" x2="125.45" y2="240.89" xlink:href="#linear-gradient"/><linearGradient id="linear-gradient-21" x1="101.78" y1="262.42" x2="109.02" y2="262.42" xlink:href="#linear-gradient"/><linearGradient id="linear-gradient-22" x1="118.2" y1="252.96" x2="125.45" y2="252.96" xlink:href="#linear-gradient"/><linearGradient id="linear-gradient-23" x1="148.06" y1="252.66" x2="171.24" y2="252.66" xlink:href="#linear-gradient"/><linearGradient id="linear-gradient-24" x1="150.06" y1="232.95" x2="169.33" y2="232.95" xlink:href="#linear-gradient"/><linearGradient id="linear-gradient-25" x1="150.06" y1="241.48" x2="169.33" y2="241.48" xlink:href="#linear-gradient"/><linearGradient id="linear-gradient-26" x1="150.06" y1="255.83" x2="169.33" y2="255.83" xlink:href="#linear-gradient"/><linearGradient id="linear-gradient-27" x1="239.41" y1="80.07" x2="286.4" y2="80.07" xlink:href="#linear-gradient"/><linearGradient id="linear-gradient-28" x1="243.67" y1="37.77" x2="286.4" y2="37.77" xlink:href="#linear-gradient"/><linearGradient id="linear-gradient-29" x1="95.14" y1="114.4" x2="142.13" y2="114.4" xlink:href="#linear-gradient"/><linearGradient id="linear-gradient-30" x1="99.4" y1="65.22" x2="142.13" y2="65.22" xlink:href="#linear-gradient"/><linearGradient id="linear-gradient-31" x1="40.9" y1="192.29" x2="87.89" y2="192.29" xlink:href="#linear-gradient"/><linearGradient id="linear-gradient-32" x1="44.64" y1="148.62" x2="87.37" y2="148.62" xlink:href="#linear-gradient"/><linearGradient id="linear-gradient-33" x1="358.72" y1="186.88" x2="405.72" y2="186.88" xlink:href="#linear-gradient"/><linearGradient id="linear-gradient-34" x1="358.72" y1="135.5" x2="401.45" y2="135.5" xlink:href="#linear-gradient"/><linearGradient id="linear-gradient-35" x1="315.99" y1="118.47" x2="362.99" y2="118.47" xlink:href="#linear-gradient"/><linearGradient id="linear-gradient-36" x1="315.99" y1="69.71" x2="358.72" y2="69.71" xlink:href="#linear-gradient"/></defs><title>Devices Supported</title><g class="cls-1"><g id="Layer_1" data-name="Layer 1"><polygon class="cls-2" points="19.06 239.25 217.4 124.73 415.75 239.25 217.4 353.76 19.06 239.25"/><rect class="cls-3" x="-19.32" y="160.78" width="283.43" height="0.27" transform="translate(-64.03 82.69) rotate(-29.98)"/><rect class="cls-3" x="-4.32" y="169.44" width="283.43" height="0.27" transform="translate(-66.35 91.35) rotate(-29.98)"/><rect class="cls-3" x="10.68" y="178.1" width="283.43" height="0.27" transform="translate(-68.66 99.96) rotate(-29.97)"/><rect class="cls-3" x="25.69" y="186.77" width="283.43" height="0.27" transform="translate(-70.98 108.62) rotate(-29.97)"/><rect class="cls-3" x="40.69" y="195.43" width="283.43" height="0.27" transform="translate(-73.29 117.24) rotate(-29.96)"/><rect class="cls-3" x="55.7" y="204.09" width="283.43" height="0.27" transform="translate(-75.61 125.89) rotate(-29.96)"/><rect class="cls-3" x="70.7" y="212.75" width="283.43" height="0.27" transform="translate(-77.93 134.54) rotate(-29.96)"/><rect class="cls-3" x="85.71" y="221.42" width="283.43" height="0.27" transform="translate(-80.26 143.19) rotate(-29.96)"/><rect class="cls-3" x="100.71" y="230.08" width="283.43" height="0.27" transform="translate(-82.58 151.84) rotate(-29.96)"/><rect class="cls-3" x="115.72" y="238.74" width="283.43" height="0.27" transform="translate(-84.9 160.49) rotate(-29.96)"/><rect class="cls-3" x="130.72" y="247.41" width="283.43" height="0.27" transform="translate(-87.22 169.15) rotate(-29.96)"/><rect class="cls-3" x="145.72" y="256.07" width="283.43" height="0.27" transform="translate(-89.55 177.85) rotate(-29.97)"/><rect class="cls-3" x="160.73" y="264.73" width="283.43" height="0.27" transform="translate(-91.89 186.58) rotate(-29.98)"/><rect class="cls-3" x="175.73" y="273.39" width="283.43" height="0.27" transform="translate(-94.21 195.23) rotate(-29.98)"/><polygon class="cls-3" points="232.19 349.32 -0.38 214.6 -0.25 214.37 232.32 349.09 232.19 349.32"/><polygon class="cls-3" points="247.19 340.71 14.62 206 14.76 205.76 247.32 340.48 247.19 340.71"/><polygon class="cls-3" points="262.2 332.11 29.63 197.39 29.76 197.16 262.33 331.88 262.2 332.11"/><polygon class="cls-3" points="277.2 323.51 44.63 188.79 44.77 188.56 277.33 323.27 277.2 323.51"/><polygon class="cls-3" points="292.2 314.9 59.64 180.19 59.77 179.95 292.34 314.67 292.2 314.9"/><polygon class="cls-3" points="307.21 306.3 74.64 171.58 74.77 171.35 307.34 306.07 307.21 306.3"/><polygon class="cls-3" points="322.21 297.7 89.64 162.98 89.78 162.75 322.35 297.46 322.21 297.7"/><polygon class="cls-3" points="337.22 289.09 104.65 154.38 104.78 154.14 337.35 288.86 337.22 289.09"/><polygon class="cls-3" points="352.22 280.49 119.65 145.77 119.79 145.54 352.36 280.26 352.22 280.49"/><polygon class="cls-3" points="367.23 271.89 134.66 137.17 134.79 136.94 367.36 271.65 367.23 271.89"/><polygon class="cls-3" points="382.23 263.28 149.66 128.56 149.8 128.33 382.36 263.05 382.23 263.28"/><rect class="cls-3" x="280.88" y="52.82" width="0.27" height="268.77" transform="translate(-21.83 336.54) rotate(-59.92)"/><polygon class="cls-3" points="412.24 246.08 179.67 111.36 179.81 111.13 412.37 245.84 412.24 246.08"/><polygon class="cls-3" points="427.24 237.47 194.68 102.75 194.81 102.52 427.38 237.24 427.24 237.47"/><polygon class="cls-3" points="442.25 228.87 209.68 94.15 209.81 93.92 442.38 228.64 442.25 228.87"/><polyline class="cls-4" points="160.16 277.59 189.74 295.47 270.18 248.69"/><polyline class="cls-4" points="147.4 282.82 134.66 290.18 115.97 278.93"/><line class="cls-4" x1="196.1" y1="226.02" x2="252.35" y2="258.99"/><line class="cls-4" x1="133.51" y1="264.86" x2="199.1" y2="227.77"/><line class="cls-4" x1="169.97" y1="271.89" x2="222.48" y2="241.48"/><path class="cls-3" d="M206.25,220.19l-14.78-8.53a13.21,13.21,0,0,1-6.59-11.42l-2-20.47L161.53,192v19.41a13.16,13.16,0,0,0,6.59,11.41l16.76,9.6Z"/><path class="cls-5" d="M206.25,217.84l-14.78-8.53a13.21,13.21,0,0,1-6.59-11.42V180.83L163.52,193.1v17.06a13.16,13.16,0,0,0,6.59,11.41l14.77,8.53Z"/><polygon class="cls-6" points="163.52 193.1 161.53 192.04 182.89 179.7 184.88 180.83 163.52 193.1"/><polygon class="cls-3" points="184.88 232.46 184.88 230.1 206.25 217.84 206.25 220.19 184.88 232.46"/><path class="cls-7" d="M126.6,212.79l-16,2.32-2.24-1.32v14.07a2.07,2.07,0,0,0,.89,1.7h0l.1.06.14.08,2.46,1.43.88-.87-.2-1.23L224,164.7a3.61,3.61,0,0,0,1.8-3.12v-4.52Z"/><path class="cls-3" d="M221.68,67.38,110.53,131.55a4.4,4.4,0,0,0-2.19,3.81v78.42h0l2.24,1.32,16-2.32,99.24-55.73V69.79a2.66,2.66,0,0,0-.1-.75l.51.2.35-.59-2.09-1.23A2.76,2.76,0,0,0,221.68,67.38Z"/><path class="cls-8" d="M110.58,215.11l117.51-67.85V162.9a3.59,3.59,0,0,1-1.81,3.12L113.73,231a2.1,2.1,0,0,1-3.15-1.82Z"/><path class="cls-9" d="M112.78,132.87,223.92,68.7a2.78,2.78,0,0,1,4.17,2.41v76.15L110.58,215.11V136.68A4.41,4.41,0,0,1,112.78,132.87Z"/><polygon class="cls-10" points="114.56 135.48 224.67 72.04 224.67 145.65 114.56 209.08 114.56 135.48"/><polygon class="cls-11" points="121.26 137.32 217.4 81.81 217.4 94.15 121.26 149.66 121.26 137.32"/><polygon class="cls-12" points="121.26 155.82 163.99 131.15 163.99 154.53 121.26 178.87 121.26 155.82"/><polygon class="cls-13" points="174.67 124.98 217.4 100.31 217.4 123.69 174.67 148.03 174.67 124.98"/><polygon class="cls-14" points="213.93 218.57 278.02 255.57 363.48 206.23 299.38 169.23 213.93 218.57"/><g class="cls-15"><polygon class="cls-16" points="213.93 218.57 213.93 221.25 278.02 258.26 278.02 255.57 213.93 218.57 213.93 218.57"/></g><g class="cls-15"><polygon class="cls-16" points="363.48 206.23 278.02 255.57 278.02 258.26 363.48 208.92 363.48 206.23 363.48 206.23"/></g><polygon class="cls-17" points="215.72 219.61 215.72 149.62 301.18 100.28 301.18 170.27 215.72 219.61"/><polygon class="cls-10" points="219.2 214.76 219.2 150.46 297.71 105.13 297.71 169.43 219.2 214.76"/><g class="cls-15"><polygon class="cls-16" points="213.93 148.58 213.93 218.57 215.72 219.61 215.72 149.62 213.93 148.58 213.93 148.58"/></g><g class="cls-15"><polygon class="cls-16" points="299.38 99.24 213.93 148.58 215.72 149.62 301.18 100.28 299.38 99.24 299.38 99.24"/></g><polygon class="cls-10" points="298.98 184.34 305.76 180.43 303.64 179.2 296.87 183.11 298.98 184.34"/><polygon class="cls-10" points="289.86 189.59 296.64 185.69 294.52 184.46 287.75 188.37 289.86 189.59"/><polygon class="cls-10" points="280.74 194.85 287.52 190.95 285.4 189.72 278.63 193.63 280.74 194.85"/><polygon class="cls-10" points="271.63 200.11 278.4 196.21 276.28 194.98 269.51 198.89 271.63 200.11"/><polygon class="cls-10" points="262.5 205.37 269.28 201.47 267.16 200.24 260.39 204.15 262.5 205.37"/><polygon class="cls-10" points="253.38 210.63 260.16 206.72 258.04 205.5 251.27 209.41 253.38 210.63"/><polygon class="cls-10" points="244.27 215.89 251.04 211.98 248.93 210.76 242.15 214.66 244.27 215.89"/><polygon class="cls-10" points="235.15 221.15 241.92 217.24 239.81 216.02 233.03 219.92 235.15 221.15"/><polygon class="cls-10" points="305.75 188.25 312.52 184.34 307.32 181.34 300.55 185.24 305.75 188.25"/><polygon class="cls-10" points="296.63 193.51 303.4 189.6 298.21 186.59 291.43 190.5 296.63 193.51"/><polygon class="cls-10" points="287.51 198.77 294.28 194.86 289.09 191.85 282.31 195.76 287.51 198.77"/><polygon class="cls-10" points="278.39 204.03 285.16 200.12 279.97 197.11 273.19 201.02 278.39 204.03"/><polygon class="cls-10" points="269.27 209.29 276.04 205.38 270.85 202.37 264.07 206.28 269.27 209.29"/><polygon class="cls-10" points="260.15 214.55 266.92 210.64 261.73 207.63 254.95 211.54 260.15 214.55"/><polygon class="cls-10" points="251.03 219.81 257.8 215.9 252.61 212.89 245.83 216.8 251.03 219.81"/><polygon class="cls-10" points="241.91 225.07 248.68 221.16 243.49 218.15 236.71 222.06 241.91 225.07"/><polygon class="cls-10" points="313.36 192.66 320.13 188.75 314.94 185.74 308.16 189.65 313.36 192.66"/><polygon class="cls-10" points="304.24 197.92 311.01 194.01 305.82 191 299.04 194.91 304.24 197.92"/><polygon class="cls-10" points="295.12 203.18 301.89 199.27 296.7 196.26 289.92 200.17 295.12 203.18"/><polygon class="cls-10" points="286 208.44 292.77 204.53 287.58 201.52 280.8 205.43 286 208.44"/><polygon class="cls-10" points="276.88 213.7 283.65 209.79 278.46 206.78 271.68 210.69 276.88 213.7"/><polygon class="cls-10" points="267.76 218.96 274.54 215.05 269.34 212.04 262.56 215.95 267.76 218.96"/><polygon class="cls-10" points="258.64 224.22 265.42 220.31 260.22 217.3 253.44 221.21 258.64 224.22"/><polygon class="cls-10" points="249.52 229.47 256.3 225.57 251.1 222.56 244.32 226.47 249.52 229.47"/><polygon class="cls-10" points="320.97 197.07 327.75 193.16 322.55 190.15 315.77 194.06 320.97 197.07"/><polygon class="cls-10" points="311.85 202.33 318.63 198.42 313.43 195.41 306.65 199.32 311.85 202.33"/><polygon class="cls-10" points="302.73 207.59 309.5 203.68 304.31 200.67 297.53 204.58 302.73 207.59"/><polygon class="cls-10" points="293.61 212.85 300.39 208.94 295.19 205.93 288.41 209.84 293.61 212.85"/><polygon class="cls-10" points="284.49 218.11 291.27 214.2 286.07 211.19 279.29 215.1 284.49 218.11"/><polygon class="cls-10" points="275.37 223.37 282.15 219.46 276.95 216.45 270.18 220.36 275.37 223.37"/><polygon class="cls-10" points="266.25 228.62 273.03 224.72 267.83 221.71 261.06 225.62 266.25 228.62"/><polygon class="cls-10" points="257.13 233.88 263.91 229.98 258.71 226.97 251.94 230.87 257.13 233.88"/><polygon class="cls-10" points="328.58 201.48 335.36 197.57 330.16 194.56 323.38 198.47 328.58 201.48"/><polygon class="cls-10" points="282.98 227.77 326.24 202.83 321.04 199.82 277.79 224.76 282.98 227.77"/><polygon class="cls-10" points="306.41 233.92 333.64 218.21 321.51 211.19 294.28 226.91 306.41 233.92"/><polygon class="cls-10" points="273.86 233.03 280.64 229.13 275.44 226.12 268.67 230.02 273.86 233.03"/><polygon class="cls-10" points="264.74 238.29 271.52 234.38 266.32 231.38 259.55 235.28 264.74 238.29"/><polygon class="cls-18" points="222.54 156.49 294.35 115.03 294.35 124.24 222.54 165.7 222.54 156.49"/><path class="cls-19" d="M239.05,193.41c-1.34,2.26-3.6,3.4-5.05,2.54s-1.53-3.39-.18-5.65,3.6-3.4,5-2.54S240.39,191.15,239.05,193.41Z"/><path class="cls-20" d="M255.23,184.09c-1.34,2.26-3.6,3.39-5,2.54s-1.53-3.39-.19-5.65,3.6-3.4,5.05-2.54S256.57,181.82,255.23,184.09Z"/><path class="cls-21" d="M271.33,174.75c-1.34,2.26-3.6,3.4-5,2.55s-1.53-3.39-.19-5.65,3.6-3.4,5-2.54S272.67,172.49,271.33,174.75Z"/><path class="cls-22" d="M287.43,165.46c-1.34,2.26-3.6,3.4-5,2.54s-1.53-3.38-.19-5.64,3.6-3.4,5.05-2.54S288.78,163.2,287.43,165.46Z"/><path class="cls-3" d="M129.25,196.66,88.41,220.25a3.91,3.91,0,0,0-2,3.38V289.7a2.06,2.06,0,0,0,1,1.78l2,1.14L131.83,269a5.42,5.42,0,0,0,2.7-4.85l-1.59-56.32v-9a2.39,2.39,0,0,0-.09-.66l.45.17.32-.52-1.86-1.09A2.43,2.43,0,0,0,129.25,196.66Z"/><path class="cls-23" d="M90.39,221.43l40.85-23.6a2.46,2.46,0,0,1,3.69,2.13v64.68a4.87,4.87,0,0,1-2.43,4.21L91.35,292.63a1.94,1.94,0,0,1-2.9-1.68V224.8A3.89,3.89,0,0,1,90.39,221.43Z"/><polygon class="cls-10" points="91.97 223.73 131.9 200.79 131.9 266.01 91.97 288.96 91.97 223.73"/><polygon class="cls-24" points="94.67 228.67 130.58 207.94 130.58 212.54 94.67 233.28 94.67 228.67"/><polygon class="cls-25" points="94.67 275.42 130.58 254.69 130.58 259.08 94.67 279.81 94.67 275.42"/><polygon class="cls-26" points="94.67 235.58 110.69 226.55 110.69 240 94.67 248.9 94.67 235.58"/><polygon class="cls-27" points="114.55 224.4 130.58 215.38 130.58 228.82 114.55 237.72 114.55 224.4"/><path class="cls-28" d="M108.06,251.93c-1.37,2.29-3.66,3.45-5.12,2.58s-1.55-3.44-.19-5.73,3.65-3.45,5.12-2.58S109.42,249.63,108.06,251.93Z"/><path class="cls-29" d="M124.48,242.47c-1.36,2.29-3.65,3.45-5.12,2.58s-1.55-3.44-.19-5.73,3.66-3.45,5.12-2.58S125.84,240.17,124.48,242.47Z"/><path class="cls-30" d="M108.06,264c-1.37,2.29-3.66,3.45-5.12,2.58s-1.55-3.44-.19-5.73,3.65-3.45,5.12-2.58S109.42,261.7,108.06,264Z"/><path class="cls-31" d="M124.48,254.54c-1.36,2.29-3.65,3.45-5.12,2.58s-1.55-3.44-.19-5.73,3.66-3.45,5.12-2.58S125.84,252.24,124.48,254.54Z"/><path class="cls-3" d="M170.34,221.53l-1.77-1h0a1.76,1.76,0,0,0-1.79,0l-18.5,10.68a4,4,0,0,0-2,3.46v46.54a1.77,1.77,0,0,0,1.11,1.65v0l1.61,1,.53-.82-.75-2.51,16.06-9.28a5.17,5.17,0,0,0,2.59-4.48V223.56h1.75Z"/><path class="cls-32" d="M148.06,282.22V235.68a4,4,0,0,1,2-3.46l18.49-10.68a1.79,1.79,0,0,1,2.69,1.55V269a5.19,5.19,0,0,1-2.58,4.49l-17.89,10.33A1.8,1.8,0,0,1,148.06,282.22Z"/><polygon class="cls-10" points="149.34 279.63 149.34 234.86 169.97 222.93 169.97 267.7 149.34 279.63"/><path class="cls-10" d="M161.84,275.78c-.35.6-1,.91-1.35.68s-.4-.91-.05-1.51,1-.91,1.35-.68S162.2,275.17,161.84,275.78Z"/><polygon class="cls-33" points="150.06 237.27 169.33 226.15 169.33 228.62 150.06 239.75 150.06 237.27"/><polygon class="cls-34" points="150.06 240.98 169.33 230.04 169.33 242.05 150.06 252.92 150.06 240.98"/><polygon class="cls-35" points="150.06 255.33 169.33 244.39 169.33 256.4 150.06 267.27 150.06 255.33"/><path class="cls-36" d="M249.59,33.39l22.18-12.81a6.84,6.84,0,0,1,6.78-.06L282.84,23h0a6.84,6.84,0,0,1,3.56,6v80.52a20.3,20.3,0,0,1-10.14,17.58l-21.34,12.32a7.43,7.43,0,0,1-7.53,0h0L243.16,137h0a7.42,7.42,0,0,1-3.74-6.48V51A20.35,20.35,0,0,1,249.59,33.39Z"/><path class="cls-3" d="M282.84,6.91l-4.29-2.49a6.84,6.84,0,0,0-6.78.06L249.59,17.29a20.34,20.34,0,0,0-10.18,17.63v24.6A7.42,7.42,0,0,0,243.15,66h0l4.23,2.46s.66-1.52.64-1.57a6.22,6.22,0,0,0-.64-.6,7.28,7.28,0,0,0,2.28-.85L271,53.13a20.28,20.28,0,0,0,10.15-17.57V9.91a7,7,0,0,0-.3-2l1.2.29Z"/><path class="cls-37" d="M253.86,19.77,276,7a6.91,6.91,0,0,1,10.37,6V38.6a20.3,20.3,0,0,1-10.14,17.58L254.92,68.49A7.5,7.5,0,0,1,243.67,62V37.4A20.37,20.37,0,0,1,253.86,19.77Z"/><path class="cls-38" d="M256.23,58.45a13.61,13.61,0,0,1-2.43,1.12V55.5l.8-.28a4.81,4.81,0,0,0,.93-.44,3.84,3.84,0,0,0,1.66-1.73,7.26,7.26,0,0,0,.5-3V32.17l4.71-2.72V46.92a14.38,14.38,0,0,1-1.54,6.84A11.72,11.72,0,0,1,256.23,58.45Z"/><path class="cls-38" d="M276.28,34.93a9.05,9.05,0,0,1-.82,3.67,12.47,12.47,0,0,1-2.36,3.53A15.24,15.24,0,0,1,269.48,45a17,17,0,0,1-2.91,1.41,8.64,8.64,0,0,1-2.44.46V42.2a10.41,10.41,0,0,0,2.79-.41,11.9,11.9,0,0,0,2.66-1.1,4.82,4.82,0,0,0,1.53-1.29,2.28,2.28,0,0,0,.48-1.32.77.77,0,0,0-.19-.58,1.15,1.15,0,0,0-.63-.24,15.7,15.7,0,0,0-2.31.09,6.38,6.38,0,0,1-2.54-.2A2.26,2.26,0,0,1,264.66,36a5,5,0,0,1-.41-2.24A9,9,0,0,1,266,28.6a14.49,14.49,0,0,1,4.8-4.26,13,13,0,0,1,5.49-1.78l-1.44,4.87a9.61,9.61,0,0,0-4.2,1.18,4,4,0,0,0-1.33,1.12,2,2,0,0,0-.41,1.13.66.66,0,0,0,.53.71,12,12,0,0,0,2.86,0,4.25,4.25,0,0,1,3.12.62A3.6,3.6,0,0,1,276.28,34.93Z"/><path class="cls-39" d="M105.32,67.71l22.18-12.8a6.84,6.84,0,0,1,6.78-.06l4.29,2.49h0a6.86,6.86,0,0,1,3.56,6v80.52A20.3,20.3,0,0,1,132,161.49L110.65,173.8a7.43,7.43,0,0,1-7.53,0h0l-4.23-2.47h0a7.42,7.42,0,0,1-3.74-6.48V85.35A20.37,20.37,0,0,1,105.32,67.71Z"/><path class="cls-3" d="M138.57,34.35l-4.29-2.49a6.86,6.86,0,0,0-6.78.07l-22.18,12.8A20.37,20.37,0,0,0,95.14,62.37V87a7.44,7.44,0,0,0,3.74,6.49h0l4.23,2.46s.66-1.52.64-1.57a6.22,6.22,0,0,0-.64-.6,7.81,7.81,0,0,0,2.28-.85l21.34-12.32A20.31,20.31,0,0,0,136.89,63V37.36a7,7,0,0,0-.31-2l1.21.28Z"/><path class="cls-40" d="M109.58,47.22l22.18-12.81a6.92,6.92,0,0,1,10.37,6V66.05A20.27,20.27,0,0,1,132,83.62L110.65,95.94A7.5,7.5,0,0,1,99.4,89.45V64.85A20.34,20.34,0,0,1,109.58,47.22Z"/><path class="cls-38" d="M114,67.09a8,8,0,0,1-1.24,4.31,9.67,9.67,0,0,1-3.5,3.29l-.94.55v4.61l-3.37,1.94V67.88l4.31-2.49c1.58-.91,2.76-1.2,3.55-.89S114,65.67,114,67.09Zm-5.68,5.08.61-.35a3.31,3.31,0,0,0,1.21-1.17,3,3,0,0,0,.45-1.58c0-.93-.47-1.14-1.4-.6l-.87.5Z"/><path class="cls-38" d="M125.76,69.77l-3.39,2V66.05l-3.91,2.26V74l-3.39,2V62l3.39-2v5.16L122.37,63V57.81l3.39-2Z"/><path class="cls-38" d="M136.63,54a8,8,0,0,1-1.23,4.31,9.75,9.75,0,0,1-3.5,3.29l-1,.55v4.61l-3.37,1.94V54.81l4.32-2.49c1.57-.91,2.75-1.2,3.54-.89S136.63,52.6,136.63,54ZM131,59.1l.61-.35a3.31,3.31,0,0,0,1.21-1.17,3,3,0,0,0,.45-1.58c0-.93-.47-1.14-1.4-.6l-.87.5Z"/><path class="cls-41" d="M51.08,145.6l22.17-12.8a6.84,6.84,0,0,1,6.78-.07l4.3,2.49h0a6.84,6.84,0,0,1,3.56,6V221.8a20.28,20.28,0,0,1-10.15,17.57L56.41,251.69a7.43,7.43,0,0,1-7.53,0h0l-4.23-2.46h0a7.44,7.44,0,0,1-3.73-6.49V163.24A20.37,20.37,0,0,1,51.08,145.6Z"/><path class="cls-3" d="M83.81,117.76l-4.29-2.49a6.84,6.84,0,0,0-6.78.06l-22.18,12.8a20.37,20.37,0,0,0-10.18,17.64v24.6a7.42,7.42,0,0,0,3.74,6.48h0l4.23,2.46s.66-1.52.64-1.57a6.22,6.22,0,0,0-.64-.6,7.28,7.28,0,0,0,2.28-.85L72,164A20.28,20.28,0,0,0,82.13,146.4V120.76a7,7,0,0,0-.31-2L83,119Z"/><path class="cls-42" d="M54.82,130.62,77,117.82a6.91,6.91,0,0,1,10.37,6v25.65A20.27,20.27,0,0,1,77.23,167L55.89,179.34a7.5,7.5,0,0,1-11.25-6.49v-24.6A20.36,20.36,0,0,1,54.82,130.62Z"/><path class="cls-38" d="M52.21,155a4.21,4.21,0,0,1-.64,2.23,5,5,0,0,1-1.8,1.69l-.49.28v2.38l-1.74,1v-7.17l2.23-1.28a2.29,2.29,0,0,1,1.82-.46C52,153.8,52.21,154.24,52.21,155Zm-2.93,2.62.31-.18a1.81,1.81,0,0,0,.63-.6,1.61,1.61,0,0,0,.23-.81c0-.49-.24-.59-.72-.31l-.45.25Z"/><path class="cls-38" d="M55.48,153.46l1.11-3.29,1.88-1.09-2.12,5.59v2.8l-1.75,1v-2.74l-2.11-3.21,1.89-1.09Z"/><path class="cls-38" d="M62,154.24l-1.73,1v-5.58l-1.57.9V149l4.87-2.81v1.58l-1.57.91Z"/><path class="cls-38" d="M69.9,149.66l-1.75,1v-2.93l-2,1.17v2.92l-1.75,1v-7.17l1.75-1v2.66l2-1.16V143.5l1.75-1Z"/><path class="cls-38" d="M77.26,141.83a6.42,6.42,0,0,1-.8,3.21,6.15,6.15,0,0,1-2.33,2.28c-1,.58-1.78.71-2.32.39s-.8-1.08-.8-2.29a6.31,6.31,0,0,1,.8-3.2,6.11,6.11,0,0,1,2.33-2.29c1-.59,1.8-.72,2.33-.4S77.26,140.62,77.26,141.83Zm-4.42,2.54c0,1.39.43,1.84,1.29,1.34a2.36,2.36,0,0,0,1-1.07,4.26,4.26,0,0,0,.32-1.76,2.13,2.13,0,0,0-.32-1.4c-.22-.22-.54-.2-1,0A3,3,0,0,0,72.84,144.37Z"/><path class="cls-38" d="M84.49,141.25l-2.28,1.31-2.34-3.7,0,0c0,.76.08,1.35.08,1.77v3.23l-1.54.89v-7.17l2.27-1.31L83,139.93h0c-.05-.7-.07-1.27-.07-1.71V135l1.55-.89Z"/><path class="cls-43" d="M395.54,140.19l-22.18-12.8a6.84,6.84,0,0,0-6.78-.06l-4.3,2.49h0a6.86,6.86,0,0,0-3.57,6v80.53A20.31,20.31,0,0,0,368.87,234l21.34,12.31a7.41,7.41,0,0,0,7.52,0h0L402,243.8h0a7.42,7.42,0,0,0,3.74-6.48V157.83A20.37,20.37,0,0,0,395.54,140.19Z"/><path class="cls-3" d="M362.28,104.64l4.3-2.49a6.81,6.81,0,0,1,6.78.07L395.54,115a20.36,20.36,0,0,1,10.18,17.63v24.6a7.42,7.42,0,0,1-3.74,6.48h0l-4.22,2.47s-.66-1.52-.65-1.58a7.55,7.55,0,0,1,.65-.59,7.72,7.72,0,0,1-2.29-.86l-21.33-12.32A20.28,20.28,0,0,1,364,133.29V107.64a6.93,6.93,0,0,1,.3-2l-1.2.28Z"/><path class="cls-44" d="M391.27,117.5,369.1,104.7a6.92,6.92,0,0,0-10.38,6v25.64a20.31,20.31,0,0,0,10.15,17.58l21.34,12.32a7.5,7.5,0,0,0,11.24-6.5v-24.6A20.36,20.36,0,0,0,391.27,117.5Z"/><path class="cls-38" d="M369,123.79a1.4,1.4,0,0,0-2.13.39,7.72,7.72,0,0,0-.77,4c0,3.94,1,6.52,3.12,7.71a5,5,0,0,0,1.82.68,10.52,10.52,0,0,0,1.77.11v4.69a7.26,7.26,0,0,1-4-1.19,12,12,0,0,1-4.92-5.53,20.69,20.69,0,0,1-1.71-8.77,13.25,13.25,0,0,1,.83-5.12,3.65,3.65,0,0,1,2.38-2.33,5,5,0,0,1,3.66.82,15.62,15.62,0,0,1,4.39,4l-1.17,3.68c-.52-.65-1.05-1.26-1.57-1.8A7.55,7.55,0,0,0,369,123.79Z"/><path class="cls-38" d="M384.84,143a5.7,5.7,0,0,1-.67,3,2.35,2.35,0,0,1-1.93,1.18,5.27,5.27,0,0,1-2.95-.89,14.47,14.47,0,0,1-2.38-1.66,16.41,16.41,0,0,1-2-2.15v-4.94a22.48,22.48,0,0,0,2.27,2.59,11.64,11.64,0,0,0,2.18,1.71c.56.32,1,.42,1.25.29s.39-.42.39-.87a2.19,2.19,0,0,0-.16-.83,4.42,4.42,0,0,0-.51-.93c-.24-.35-.87-1.16-1.89-2.41a22.1,22.1,0,0,1-2.08-3,10.82,10.82,0,0,1-1.36-5.37c0-1.89.48-3.09,1.43-3.59s2.25-.29,3.91.67a17.13,17.13,0,0,1,4.49,4.07l-1.17,3.6a13.82,13.82,0,0,0-3.43-3.3c-.5-.29-.86-.37-1.09-.25a.77.77,0,0,0-.34.74,2.72,2.72,0,0,0,.43,1.33,35.71,35.71,0,0,0,2.34,3.09,16.29,16.29,0,0,1,2.55,4A10.19,10.19,0,0,1,384.84,143Z"/><path class="cls-38" d="M396.3,149.59a5.7,5.7,0,0,1-.67,3,2.35,2.35,0,0,1-1.93,1.18,5.27,5.27,0,0,1-2.95-.89,14.47,14.47,0,0,1-2.38-1.66,17.14,17.14,0,0,1-2-2.15v-4.94a21.61,21.61,0,0,0,2.28,2.59,11.61,11.61,0,0,0,2.17,1.71c.57.32,1,.42,1.25.29s.4-.42.4-.87a2.19,2.19,0,0,0-.16-.83,5.58,5.58,0,0,0-.51-.93c-.24-.35-.87-1.16-1.89-2.41a22.1,22.1,0,0,1-2.08-3,10.82,10.82,0,0,1-1.36-5.37c0-1.89.48-3.09,1.43-3.59s2.25-.29,3.91.67a17.13,17.13,0,0,1,4.49,4.07l-1.17,3.6a13.82,13.82,0,0,0-3.43-3.3c-.5-.29-.86-.37-1.09-.25a.76.76,0,0,0-.34.74,2.62,2.62,0,0,0,.43,1.33A35.71,35.71,0,0,0,393,141.7a16.59,16.59,0,0,1,2.55,4A10.39,10.39,0,0,1,396.3,149.59Z"/><path class="cls-45" d="M352.81,71.79,330.63,59a6.84,6.84,0,0,0-6.78-.06l-4.3,2.49h0a6.86,6.86,0,0,0-3.57,6V148a20.31,20.31,0,0,0,10.15,17.58l21.34,12.31a7.41,7.41,0,0,0,7.52,0h0l4.22-2.47h0A7.42,7.42,0,0,0,363,168.9V89.42A20.35,20.35,0,0,0,352.81,71.79Z"/><path class="cls-3" d="M319.55,38.85l4.3-2.49a6.84,6.84,0,0,1,6.78.07l22.18,12.8A20.37,20.37,0,0,1,363,66.87V91.46A7.44,7.44,0,0,1,359.25,98h0L355,100.42s-.66-1.52-.65-1.58.32-.3.65-.59a7.72,7.72,0,0,1-2.29-.86L331.39,85.08A20.31,20.31,0,0,1,321.24,67.5V41.86a6.94,6.94,0,0,1,.3-2l-1.2.28Z"/><path class="cls-46" d="M348.54,51.71l-22.17-12.8a6.92,6.92,0,0,0-10.38,6V70.55a20.28,20.28,0,0,0,10.15,17.57l21.34,12.32a7.49,7.49,0,0,0,11.24-6.5V69.35A20.37,20.37,0,0,0,348.54,51.71Z"/><path class="cls-38" d="M327.16,70.4,324.64,69V63.6l-2.91-1.68v5.35l-2.53-1.45V52.7l2.53,1.46V59l2.91,1.68V55.83l2.52,1.46Z"/><path class="cls-38" d="M333.27,73.92l-2.51-1.45V62.25L328.49,61v-2.9l7,4.05V65l-2.26-1.3Z"/><path class="cls-38" d="M340.9,78.31,339,67.77l-.06,0c.09,1.66.14,2.93.14,3.83v5.69L336.85,76V62.87l3.34,1.92,1.94,10.43.05,0,1.9-8.22L347.43,69V82.07l-2.31-1.33V75c0-.3,0-.63,0-1s0-1.24.09-2.63l-.06,0-1.87,8.35Z"/><path class="cls-38" d="M349.43,83.22V70.11l2.51,1.44V81.81l3.57,2v2.87Z"/></g></g></svg>