<svg xmlns="http://www.w3.org/2000/svg" xmlns:xlink="http://www.w3.org/1999/xlink" viewBox="0 0 684.05 297.06"><defs><style>.cls-1{isolation:isolate;}.cls-2{fill:url(#linear-gradient);}.cls-13,.cls-3{fill:#3655b5;}.cls-4{fill:url(#radial-gradient);}.cls-5{fill:url(#radial-gradient-2);}.cls-6{fill:url(#linear-gradient-2);}.cls-7{fill:url(#linear-gradient-3);}.cls-8{fill:#e1e8f6;}.cls-9{fill:#a1a7ff;}.cls-10,.cls-17,.cls-25,.cls-26,.cls-34{opacity:0.6;mix-blend-mode:overlay;}.cls-10{fill:url(#linear-gradient-4);}.cls-11{fill:url(#linear-gradient-5);}.cls-12{fill:url(#linear-gradient-6);}.cls-13,.cls-14,.cls-15{fill-rule:evenodd;}.cls-14{fill:url(#linear-gradient-7);}.cls-15{fill:#e6ae7f;}.cls-16{fill:#ffc043;}.cls-17{fill:url(#linear-gradient-8);}.cls-18{fill:#5f6767;}.cls-19{fill:url(#linear-gradient-9);}.cls-20{fill:url(#linear-gradient-10);}.cls-21{fill:url(#linear-gradient-11);}.cls-22{fill:url(#linear-gradient-12);}.cls-23{fill:url(#linear-gradient-13);}.cls-24{fill:url(#linear-gradient-14);}.cls-25{fill:url(#linear-gradient-15);}.cls-26{fill:url(#linear-gradient-16);}.cls-27{fill:url(#linear-gradient-17);}.cls-28{fill:url(#linear-gradient-18);}.cls-29{fill:url(#linear-gradient-19);}.cls-30{fill:url(#linear-gradient-20);}.cls-31{fill:url(#linear-gradient-21);}.cls-32{fill:url(#linear-gradient-22);}.cls-33{fill:url(#linear-gradient-23);}.cls-34{fill:url(#linear-gradient-24);}</style><linearGradient id="linear-gradient" x1="240.38" y1="291.53" x2="357.08" y2="291.53" gradientUnits="userSpaceOnUse"><stop offset="0.01" stop-color="#58595b"/><stop offset="0.28" stop-color="#757679"/><stop offset="0.51" stop-color="#88898d"/><stop offset="1" stop-color="#58595b"/></linearGradient><radialGradient id="radial-gradient" cx="353.19" cy="311.67" r="42.42" gradientUnits="userSpaceOnUse"><stop offset="0" stop-color="#fff"/><stop offset="0.17" stop-color="#fff" stop-opacity="0.78"/><stop offset="0.4" stop-color="#fff" stop-opacity="0.5"/><stop offset="0.6" stop-color="#fff" stop-opacity="0.29"/><stop offset="0.78" stop-color="#fff" stop-opacity="0.13"/><stop offset="0.92" stop-color="#fff" stop-opacity="0.04"/><stop offset="1" stop-color="#fff" stop-opacity="0"/></radialGradient><radialGradient id="radial-gradient-2" cx="842.36" cy="311.67" r="42.42" gradientTransform="matrix(-1, 0, 0, 1, 1086.05, 0)" xlink:href="#radial-gradient"/><linearGradient id="linear-gradient-2" x1="252.73" y1="292.43" x2="343.03" y2="292.43" gradientUnits="userSpaceOnUse"><stop offset="0.01" stop-color="#fff" stop-opacity="0"/><stop offset="0.18" stop-color="#fff" stop-opacity="0.38"/><stop offset="0.34" stop-color="#fff" stop-opacity="0.71"/><stop offset="0.45" stop-color="#fff" stop-opacity="0.92"/><stop offset="0.51" stop-color="#fff"/><stop offset="1" stop-color="#fff" stop-opacity="0"/></linearGradient><linearGradient id="linear-gradient-3" x1="106.67" y1="247.41" x2="505.65" y2="221.26" gradientUnits="userSpaceOnUse"><stop offset="0" stop-color="#78797d"/><stop offset="0.32" stop-color="#737478"/><stop offset="0.49" stop-color="#6d6f73"/><stop offset="1" stop-color="#6d6f73"/></linearGradient><linearGradient id="linear-gradient-4" x1="146.83" y1="232.12" x2="200.5" y2="232.12" gradientUnits="userSpaceOnUse"><stop offset="0" stop-color="#fff" stop-opacity="0"/><stop offset="0.09" stop-color="#fff" stop-opacity="0.02"/><stop offset="0.22" stop-color="#fff" stop-opacity="0.09"/><stop offset="0.36" stop-color="#fff" stop-opacity="0.2"/><stop offset="0.51" stop-color="#fff" stop-opacity="0.35"/><stop offset="0.68" stop-color="#fff" stop-opacity="0.54"/><stop offset="0.85" stop-color="#fff" stop-opacity="0.77"/><stop offset="1" stop-color="#fff"/></linearGradient><linearGradient id="linear-gradient-5" x1="146.83" y1="35.81" x2="456.45" y2="35.81" gradientUnits="userSpaceOnUse"><stop offset="0" stop-color="#ee497b"/><stop offset="1" stop-color="#de2263"/></linearGradient><linearGradient id="linear-gradient-6" x1="285.74" y1="84.19" x2="456.45" y2="84.19" xlink:href="#linear-gradient-5"/><linearGradient id="linear-gradient-7" x1="191.03" y1="160.62" x2="208.48" y2="160.62" gradientUnits="userSpaceOnUse"><stop offset="0" stop-color="#c2ceff"/><stop offset="1" stop-color="#95aaff"/></linearGradient><linearGradient id="linear-gradient-8" x1="274.68" y1="109.46" x2="480.03" y2="109.46" xlink:href="#linear-gradient-4"/><linearGradient id="linear-gradient-9" x1="530.07" y1="282.61" x2="530.07" y2="278.25" gradientUnits="userSpaceOnUse"><stop offset="0.34" stop-color="#676b6c"/><stop offset="0.36" stop-color="#707475"/><stop offset="0.46" stop-color="#989b9c"/><stop offset="0.55" stop-color="#b7b9bb"/><stop offset="0.64" stop-color="#cdcfd1"/><stop offset="0.73" stop-color="#daddde"/><stop offset="0.81" stop-color="#dfe1e3"/><stop offset="0.98" stop-color="#e3e5e7"/></linearGradient><linearGradient id="linear-gradient-10" x1="510.1" y1="282.23" x2="510.1" y2="278.15" gradientUnits="userSpaceOnUse"><stop offset="0.02" stop-color="#5f6767"/><stop offset="0.48" stop-color="#676b6c"/><stop offset="0.51" stop-color="#717576"/><stop offset="0.62" stop-color="#878a8b"/><stop offset="0.72" stop-color="#949899"/><stop offset="0.81" stop-color="#999c9d"/></linearGradient><linearGradient id="linear-gradient-11" x1="531.27" y1="282.43" x2="531.27" y2="278.37" xlink:href="#linear-gradient-10"/><linearGradient id="linear-gradient-12" x1="550.82" y1="278.46" x2="550.82" y2="278.37" xlink:href="#linear-gradient-10"/><linearGradient id="linear-gradient-13" x1="492.72" y1="159" x2="624.09" y2="159" xlink:href="#linear-gradient-5"/><linearGradient id="linear-gradient-14" x1="492.72" y1="174.05" x2="624.09" y2="174.05" xlink:href="#linear-gradient-5"/><linearGradient id="linear-gradient-15" x1="492.72" y1="192.32" x2="624.09" y2="192.32" xlink:href="#linear-gradient-4"/><linearGradient id="linear-gradient-16" x1="492.72" y1="198.29" x2="644.95" y2="198.29" xlink:href="#linear-gradient-4"/><linearGradient id="linear-gradient-17" x1="21.13" y1="253.29" x2="102.54" y2="253.29" xlink:href="#linear-gradient-5"/><linearGradient id="linear-gradient-18" x1="21.13" y1="263.7" x2="102.54" y2="263.7" xlink:href="#linear-gradient-5"/><linearGradient id="linear-gradient-19" x1="153.72" y1="227.55" x2="194.42" y2="227.55" xlink:href="#linear-gradient-5"/><linearGradient id="linear-gradient-20" x1="153.72" y1="242.8" x2="194.42" y2="242.8" xlink:href="#linear-gradient-5"/><linearGradient id="linear-gradient-21" x1="153.72" y1="248.3" x2="194.42" y2="248.3" xlink:href="#linear-gradient-5"/><linearGradient id="linear-gradient-22" x1="153.72" y1="253.8" x2="194.42" y2="253.8" xlink:href="#linear-gradient-5"/><linearGradient id="linear-gradient-23" x1="153.72" y1="259.3" x2="194.42" y2="259.3" xlink:href="#linear-gradient-5"/><linearGradient id="linear-gradient-24" x1="153.72" y1="232.76" x2="194.42" y2="232.76" xlink:href="#linear-gradient-4"/></defs><title>Devices Supported</title><g class="cls-1"><g id="Layer_1" data-name="Layer 1"><path class="cls-2" d="M241.09,290.31v-.41c0,2.12,3.75,3.41,12.76,3.41H343c9,0,12.16-1,12.18-3H241.09Z"/><path class="cls-3" d="M343.64,277.12c-8-8.19-8.34-25.81-8.34-25.81H260.37s-.3,17.62-8.34,25.81-20.63,15.19,1.21,15.19h89.18C364.26,292.31,351.67,285.31,343.64,277.12Z"/><path class="cls-4" d="M305,292.31c4.46-9,18.71-17.86,36.43-19.59a19.24,19.24,0,0,0,2.8,3.7c7.9,8.05,20.19,15.89-.09,15.89Z"/><path class="cls-5" d="M291.87,292.31c-4.46-9-18.71-17.86-36.43-19.59a19.24,19.24,0,0,1-2.8,3.7c-7.9,8.05-20.19,15.89.09,15.89Z"/><path class="cls-6" d="M252.73,292.43c7.53-.13,15-.19,22.58-.24l22.57-.07,22.57.07,11.29.09,11.29.15-11.29.15-11.29.08-22.57.07-22.57-.07C267.78,292.61,260.26,292.55,252.73,292.43Z"/><path class="cls-7" d="M113.09,240.25c0,6,5.66,11.06,11.69,11.06H469.06a11.13,11.13,0,0,0,11-11.06V219.31h-367Z"/><path class="cls-3" d="M469.06.31H124.78c-6,0-11.69,4-11.69,10v209h367v-209C480.09,4.3,475.09.31,469.06.31Zm-5,203h-335v-189h335Z"/><path class="cls-3" d="M113.09,239c0,6,5.66,12.27,11.69,12.27H469.06c6,0,11-6.24,11-12.27V219.31h-367Z"/><rect class="cls-8" x="129.09" y="14.15" width="335" height="190.63"/><rect class="cls-8" x="12.43" y="146.46" width="98.8" height="134.03"/><path class="cls-3" d="M124.67,139a6.53,6.53,0,0,0-6.53-6.53H6.53A6.53,6.53,0,0,0,0,139V287.71a6.53,6.53,0,0,0,6.53,6.53H118.14a6.53,6.53,0,0,0,6.53-6.53ZM111.84,280.49H12.38V146.65h99.46Z"/><path class="cls-3" d="M200.54,191.3a7.64,7.64,0,0,0-7.63-7.63H154.59A7.64,7.64,0,0,0,147,191.3v98.13a7.64,7.64,0,0,0,7.63,7.63h38.32a7.64,7.64,0,0,0,7.63-7.63Zm-21.18,2.38a1.21,1.21,0,0,1-1.21,1.2H170a1.2,1.2,0,0,1-1.2-1.2v-.08a1.21,1.21,0,0,1,1.2-1.21h8.18a1.21,1.21,0,0,1,1.21,1.21Zm17.44,87.18H151.32v-81H196.8Z"/><rect class="cls-9" x="151.33" y="199.87" width="45.47" height="80.99"/><path class="cls-10" d="M181.09,183.67h12.33a8.7,8.7,0,0,1,6.91,5.58l.17,87.61a3.52,3.52,0,0,1-3.08,3.72c-3.36-.25-50.59,0-50.59,0"/><rect class="cls-11" x="146.83" y="28.31" width="309.62" height="15"/><rect class="cls-12" x="285.74" y="81.44" width="170.72" height="5.5"/><path class="cls-13" d="M172.75,175.79a11.16,11.16,0,0,1-1.95-5.45c-.21-8.16,9.5-8.91,16.41-11.63s3.73-9.48,3.67-15.84h17.78c-.06,6.36-3.24,13.12,3.67,15.84s16.63,3.47,16.41,11.63a11.06,11.06,0,0,1-2,5.45Z"/><path class="cls-13" d="M175.24,165.67c2.67-2.64,8.37-3.6,13.45-5.39s5.82-9.61,5.42-14.28l11.36-.8c-.41,4.67-.11,13,5,15.08s10.78,2.72,13.86,5.21c3.4,2.76,2.46,6.87.5,10.3l-49.92,0C173.07,172.18,171.53,169.32,175.24,165.67Z"/><path class="cls-14" d="M191,158.79c1.69-1.71,2.56-4.37,2.94-7,1.32-2,2.8-4.27,3.93-6l3.58-.25c1.14,1.74,2.68,4,4.06,6.11.34,2.83,1.18,5.63,2.94,7.38-1.1,5.26-3.31,13.37-7.33,16.8H198.4C194.32,172.3,192.11,164,191,158.79Z"/><path class="cls-13" d="M196.2,175.76c1.21-5.2,3-5.62.46-8.57s.06-7,3.11-7,5.72,3.93,3.15,6.89-.81,3.48.4,8.68Z"/><path class="cls-3" d="M215,133.91a7,7,0,0,1,1.81,3.85,11,11,0,0,1-.11,4,8.63,8.63,0,0,1-1.6,3.54,5,5,0,0,1-2.28,1.64,17.31,17.31,0,0,1-5.24,6.49,13,13,0,0,1-7.8,2.54v-2.53a10.52,10.52,0,0,0,6.32-2,14.79,14.79,0,0,0,4.66-6,1.27,1.27,0,0,1,1-.77,2.31,2.31,0,0,0,1.41-.9,6.16,6.16,0,0,0,1.1-2.5,8.36,8.36,0,0,0,.09-3.07A4.27,4.27,0,0,0,213,135.5h0a1.25,1.25,0,0,1-.46-.87,15.28,15.28,0,0,0-4-9.52,11.91,11.91,0,0,0-8.74-3.34v-2.52a14.34,14.34,0,0,1,10.51,4.07A17.55,17.55,0,0,1,215,133.91ZM199.77,156a13,13,0,0,1-7.79-2.54,17.12,17.12,0,0,1-5.24-6.49,5,5,0,0,1-2.28-1.65,8.53,8.53,0,0,1-1.6-3.53,11.05,11.05,0,0,1-.12-4,7.1,7.1,0,0,1,1.81-3.85,17.58,17.58,0,0,1,4.71-10.59,14.34,14.34,0,0,1,10.51-4.07v2.52a11.87,11.87,0,0,0-8.73,3.34,15.25,15.25,0,0,0-4,9.46,1.23,1.23,0,0,1-.47.93,4.27,4.27,0,0,0-1.31,2.66,8.58,8.58,0,0,0,.09,3.07,6.3,6.3,0,0,0,1.1,2.5,2.33,2.33,0,0,0,1.41.9h0a1.25,1.25,0,0,1,.95.72,14.91,14.91,0,0,0,4.68,6,10.55,10.55,0,0,0,6.31,2Z"/><path class="cls-15" d="M213.79,134.52c3.24,2.61,2.1,10.71-1.87,11.36-2.27,5.05-6.44,8.84-12.15,8.84s-9.87-3.79-12.14-8.84c-4-.65-5.12-8.75-1.88-11.36.67-7.41,5.07-14,14-14S213.13,127.11,213.79,134.52Z"/><path class="cls-13" d="M199.58,120.51c-5.86.13-11.36,8.57-11.05,15.51.16,3.63-.21,2.69-.87.76-.35-1-.88-2-1.69-2a1.44,1.44,0,0,0-1.17.89c-.46,1-1.43,0-1.21-1.78.69-5.55,6.32-13.37,12.11-14.1a38.09,38.09,0,0,1,8.27,0c5.76.81,11.31,8.57,12,14.08.22,1.78-.75,2.75-1.21,1.78a1.44,1.44,0,0,0-1.17-.89c-.81,0-1.34,1-1.69,2-.66,1.93-1,2.87-.81-.76.3-6.88-5.17-15.24-11-15.5Z"/><path class="cls-3" d="M199.67,157.9c-3.5.14-6.29-2.2-8.36-4.81-2.95-3.72-5.92-9.25-3.84-18.35,2.41-10.57.84-3.33,1,.38.1,2.54,0,11.17,4.26,15.54,1.08,1.1,3.2,2.57,4.83,2.65.71-.08,1.27-.91,2-.91h.24c.76,0,1.32.83,2,.91,1.63-.08,3.75-1.55,4.83-2.65,4.3-4.37,4.16-13,4.26-15.54.12-3.71-1.45-11,1-.38,2.07,9.1-.89,14.63-3.84,18.35C206,155.7,203.17,158,199.67,157.9Z"/><path class="cls-13" d="M199.79,174.22c1.6,0,2.9-1.67,2.9-3.71s-1.3-3.71-2.9-3.71-2.91,1.67-2.91,3.71S198.18,174.22,199.79,174.22Z"/><path class="cls-13" d="M188.47,135.49c2.24-6,4.86-9.31,8.85-8.46,3.81,2.58,11.52,12.15,17.73,10.43,1.88-7.69-3-10.12-3.54-10.48-.29-.18-5.27-7-11.14-7.44C194.93,119.16,188.56,124.76,188.47,135.49Z"/><path class="cls-13" d="M190.69,101.81c19.18,0,34.83-10.08,34.83-22.44s-15.65-22.44-34.83-22.44S155.86,67,155.86,79.37,171.51,101.81,190.69,101.81Z"/><path class="cls-13" d="M188.13,116.67a41.55,41.55,0,0,1-2.87-25.26c.11,1.11-9.86-.19-9.69.85C177.08,101.75,180.88,108.48,188.13,116.67Z"/><path class="cls-16" d="M60.94,177.66a18.49,18.49,0,0,0-10.7,33.61h21.4a18.5,18.5,0,0,0-10.7-33.61Zm0,30.5c-1.08,0-1.93-3.22-1.93-7.19s.86-7.19,1.93-7.19,2,3.21,2,7.19S62,208.16,60.93,208.16Z"/><path class="cls-16" d="M50.3,226.56h5c.67,1.57,2.87,2.75,5.63,2.75s5-1.18,5.62-2.75h5V213.45H50.3Zm2.32-10.34H69.25v2.35H52.62Zm0,4.71H69.25v2.35H52.62Z"/><path class="cls-16" d="M58.59,161.69H63.3v11.06H58.59Zm-24.3,12.93,3.33-3.32,7.82,7.81-3.32,3.33Zm42.14,4.49,7.82-7.82,3.33,3.33-7.83,7.82Z"/><rect class="cls-8" x="285.74" y="86.94" width="170.72" height="64.51"/><path class="cls-17" d="M405.46,0h63.6s12.19.09,10.87,12.51l-.39,206.42H274.68"/><path class="cls-3" d="M644.83,276.16c0,3.9-2.36,7.07-5.27,7.07h-219c-2.91,0-5.27-3.17-5.27-7.07V135.66c0-3.9,2.36-7.07,5.27-7.07h219c2.91,0,5.27,3.17,5.27,7.07Z"/><rect class="cls-8" x="424.45" y="137.08" width="211.85" height="130.6"/><path class="cls-18" d="M376.21,285.36s-1.91,3.56,11.66,6.52h284s9.5-.6,12-5.08l0-2.46Z"/><path class="cls-3" d="M376.28,278.18H684v7.91s.46,1.05-3.16.79H379.18s-2.84.79-3.1-1.06Z"/><path class="cls-18" d="M669.74,282.8a.52.52,0,0,1-.46.55H658.81a.52.52,0,0,1-.46-.55h0a.52.52,0,0,1,.46-.56h10.47a.52.52,0,0,1,.46.56Z"/><path class="cls-19" d="M509.25,278.25s-1.18,3.95,2.77,4.34h35.7s3.8.5,3.29-4.21Z"/><path class="cls-20" d="M509.45,278.24h0v-.09h-.44s-1.07,3.43,2.26,4.08C508.46,281.39,509.45,278.24,509.45,278.24Z"/><path class="cls-21" d="M551.21,278.37h-.38v.09c.27,4.45-3.31,3.84-3.31,3.84h-35.7a3.92,3.92,0,0,1-.51-.07,4.34,4.34,0,0,0,.91.17h35.7S551.61,283,551.21,278.37Z"/><path class="cls-22" d="M550.83,278.46v-.09h0A.28.28,0,0,0,550.83,278.46Z"/><path class="cls-3" d="M488.19,198.89v2.89H442V155.62h2.89v43.27Zm-5.77-43.27-11.36,1.85,2.73,3.34-24,19.66,1.82,2.23,24-19.66,2.73,3.34Zm-3.14,16.46-2.63-3.22V196h5.77V163.78Zm-19.94,8V196h5.77V175.37Zm-8.15,6.67-.51-.62V196h5.77V182.45ZM468,173v23h5.77V168.29Z"/><rect class="cls-23" x="492.72" y="155.01" width="131.37" height="7.97"/><rect class="cls-24" x="492.72" y="172.24" width="131.37" height="3.61"/><rect class="cls-25" x="492.72" y="175.85" width="131.37" height="32.94"/><path class="cls-26" d="M589.68,128.42h47.14s9,.06,8.06,8l-.29,131.74H492.72"/><rect class="cls-27" x="21.13" y="251.31" width="81.41" height="3.96"/><rect class="cls-28" x="21.13" y="253.85" width="81.41" height="19.69"/><path class="cls-3" d="M161.39,208.18a7.75,7.75,0,0,1,5.48-2.27v7.74Zm6.36-.06v7.75l-5.47-5.48a7.74,7.74,0,1,0,5.47-2.27Z"/><rect class="cls-29" x="153.72" y="226.56" width="40.7" height="1.98"/><rect class="cls-30" x="153.72" y="241.81" width="40.7" height="1.98"/><rect class="cls-31" x="153.72" y="247.31" width="40.7" height="1.98"/><rect class="cls-32" x="153.72" y="252.81" width="40.7" height="1.98"/><rect class="cls-33" x="153.72" y="258.31" width="40.7" height="1.98"/><rect class="cls-34" x="153.72" y="227.83" width="40.7" height="9.85"/></g></g></svg>