<svg xmlns="http://www.w3.org/2000/svg" xmlns:xlink="http://www.w3.org/1999/xlink" viewBox="0 0 294.19 293.6"><defs><style>.cls-1{isolation:isolate;}.cls-2,.cls-51,.cls-55,.cls-57{opacity:0.5;}.cls-2,.cls-98{mix-blend-mode:multiply;}.cls-3{fill:#13426f;}.cls-4{fill:#ccdeec;}.cls-5{fill:url(#linear-gradient);}.cls-6,.cls-98{fill:#271929;}.cls-7{fill:url(#linear-gradient-2);}.cls-8{fill:url(#linear-gradient-3);}.cls-9{fill:url(#linear-gradient-4);}.cls-10{fill:#212123;}.cls-11{fill:#fbbd9e;}.cls-12{fill:#eeedee;}.cls-13{fill:url(#linear-gradient-5);}.cls-14{fill:url(#linear-gradient-6);}.cls-15{fill:url(#linear-gradient-7);}.cls-16{fill:url(#linear-gradient-8);}.cls-17{fill:url(#linear-gradient-9);}.cls-18{fill:url(#linear-gradient-10);}.cls-19{fill:url(#linear-gradient-11);}.cls-20{fill:#f2a884;}.cls-21{fill:#fff;}.cls-22{fill:#734b31;}.cls-23{fill:url(#linear-gradient-12);}.cls-24{fill:url(#linear-gradient-13);}.cls-25{fill:url(#linear-gradient-14);}.cls-26{fill:url(#linear-gradient-15);}.cls-27{fill:url(#linear-gradient-16);}.cls-28{mix-blend-mode:color-dodge;fill:url(#Áåçûìÿííûé_ãðàäèåíò_443);}.cls-29{fill:url(#linear-gradient-17);}.cls-30{fill:url(#linear-gradient-18);}.cls-31{fill:url(#linear-gradient-19);}.cls-32{fill:url(#linear-gradient-20);}.cls-33{fill:url(#linear-gradient-21);}.cls-34{fill:url(#linear-gradient-22);}.cls-35{fill:url(#linear-gradient-23);}.cls-36{fill:url(#linear-gradient-24);}.cls-37{fill:url(#linear-gradient-25);}.cls-38{fill:url(#linear-gradient-26);}.cls-39{fill:url(#linear-gradient-27);}.cls-40{fill:url(#linear-gradient-28);}.cls-41{fill:url(#linear-gradient-29);}.cls-42{fill:url(#linear-gradient-30);}.cls-43{fill:url(#linear-gradient-31);}.cls-44{fill:url(#linear-gradient-32);}.cls-45{fill:url(#linear-gradient-33);}.cls-46{fill:url(#linear-gradient-34);}.cls-47{fill:url(#linear-gradient-35);}.cls-48{fill:url(#linear-gradient-36);}.cls-49{fill:url(#linear-gradient-37);}.cls-50{fill:url(#linear-gradient-38);}.cls-51{fill:url(#linear-gradient-39);}.cls-52{fill:url(#linear-gradient-40);}.cls-53{fill:url(#linear-gradient-41);}.cls-54{fill:url(#linear-gradient-42);}.cls-55{fill:url(#linear-gradient-43);}.cls-56{fill:url(#linear-gradient-44);}.cls-57{fill:url(#linear-gradient-45);}.cls-58{fill:url(#linear-gradient-46);}.cls-59{fill:url(#linear-gradient-47);}.cls-60{fill:url(#linear-gradient-48);}.cls-61{fill:url(#linear-gradient-49);}.cls-62{fill:url(#linear-gradient-50);}.cls-63{fill:url(#linear-gradient-51);}.cls-64{fill:url(#linear-gradient-52);}.cls-65{fill:url(#linear-gradient-53);}.cls-66{fill:url(#linear-gradient-54);}.cls-67{fill:url(#linear-gradient-55);}.cls-68{fill:url(#linear-gradient-56);}.cls-69{fill:url(#linear-gradient-57);}.cls-70{fill:url(#linear-gradient-58);}.cls-71{fill:url(#linear-gradient-59);}.cls-72{fill:url(#linear-gradient-60);}.cls-73{fill:url(#linear-gradient-61);}.cls-74{fill:url(#linear-gradient-62);}.cls-75{fill:url(#linear-gradient-63);}.cls-76{fill:url(#linear-gradient-64);}.cls-77{fill:url(#linear-gradient-65);}.cls-78{fill:url(#linear-gradient-66);}.cls-79{fill:url(#linear-gradient-67);}.cls-80{fill:url(#linear-gradient-68);}.cls-81{fill:url(#linear-gradient-69);}.cls-82{fill:url(#linear-gradient-70);}.cls-83{fill:url(#linear-gradient-71);}.cls-84{fill:url(#linear-gradient-72);}.cls-117,.cls-85{mix-blend-mode:screen;}.cls-86{fill:url(#linear-gradient-73);}.cls-87{fill:url(#linear-gradient-74);}.cls-88{fill:url(#linear-gradient-75);}.cls-89{fill:url(#linear-gradient-76);}.cls-90{fill:#f9ad87;}.cls-91{fill:#c5c0be;}.cls-92{fill:url(#linear-gradient-77);}.cls-93{fill:url(#linear-gradient-78);}.cls-94{fill:#e1dcdb;}.cls-95{fill:#b8b4b2;}.cls-96{fill:#2c2826;}.cls-97{fill:#ececec;}.cls-98{opacity:0.3;}.cls-99{fill:url(#linear-gradient-79);}.cls-100{fill:url(#linear-gradient-80);}.cls-101{fill:url(#linear-gradient-81);}.cls-102{fill:url(#linear-gradient-82);}.cls-103{fill:url(#linear-gradient-83);}.cls-104{fill:url(#linear-gradient-84);}.cls-105{fill:#f5e8ed;}.cls-106{fill:#99624a;}.cls-107{fill:#f8f1f5;}.cls-108{fill:#3a2b21;}.cls-109{fill:#8a5540;}.cls-110{fill:url(#linear-gradient-85);}.cls-111{fill:url(#linear-gradient-86);}.cls-112{fill:url(#linear-gradient-87);}.cls-113{fill:url(#linear-gradient-88);}.cls-114{fill:url(#linear-gradient-89);}.cls-115{fill:url(#linear-gradient-90);}.cls-116{fill:url(#linear-gradient-91);}.cls-117{fill:url(#linear-gradient-92);}.cls-118{fill:#9fb2dc;}.cls-119{fill:url(#linear-gradient-93);}.cls-120{fill:url(#linear-gradient-94);}.cls-121{fill:url(#linear-gradient-95);}.cls-122{fill:url(#linear-gradient-96);}.cls-123{fill:url(#linear-gradient-97);}.cls-124{fill:url(#linear-gradient-98);}.cls-125{fill:url(#linear-gradient-99);}.cls-126{fill:url(#linear-gradient-100);}.cls-127{fill:url(#linear-gradient-101);}.cls-128{fill:url(#linear-gradient-102);}.cls-129{fill:url(#linear-gradient-103);}.cls-130{fill:url(#linear-gradient-104);}.cls-131{fill:url(#linear-gradient-105);}.cls-132{fill:url(#linear-gradient-106);}.cls-133{fill:url(#linear-gradient-107);}.cls-134{fill:url(#linear-gradient-108);}.cls-135{fill:url(#linear-gradient-109);}.cls-136{fill:url(#linear-gradient-110);}.cls-137{fill:url(#linear-gradient-111);}.cls-138{fill:url(#linear-gradient-112);}.cls-139{fill:url(#linear-gradient-113);}.cls-140{fill:url(#linear-gradient-114);}.cls-141{fill:url(#linear-gradient-115);}.cls-142{fill:url(#linear-gradient-116);}.cls-143{fill:url(#linear-gradient-117);}.cls-144{fill:url(#linear-gradient-118);}.cls-145{fill:url(#linear-gradient-119);}.cls-146{fill:url(#linear-gradient-120);}.cls-147{fill:url(#linear-gradient-121);}.cls-148{fill:url(#linear-gradient-122);}.cls-149{fill:url(#linear-gradient-123);}.cls-150{fill:url(#linear-gradient-124);}.cls-151{fill:url(#linear-gradient-125);}.cls-152{fill:url(#linear-gradient-126);}.cls-153{fill:url(#linear-gradient-127);}.cls-154{fill:url(#linear-gradient-128);}.cls-155{fill:url(#linear-gradient-129);}.cls-156{fill:url(#linear-gradient-130);}.cls-157{fill:url(#linear-gradient-131);}.cls-158{fill:url(#linear-gradient-132);}.cls-159{fill:url(#linear-gradient-133);}.cls-160{fill:url(#linear-gradient-134);}.cls-161{fill:url(#linear-gradient-135);}.cls-162{fill:url(#linear-gradient-136);}.cls-163{fill:url(#linear-gradient-137);}.cls-164{fill:url(#linear-gradient-138);}.cls-165{fill:url(#linear-gradient-139);}.cls-166{fill:url(#linear-gradient-140);}.cls-167{fill:url(#linear-gradient-141);}.cls-168{fill:url(#linear-gradient-142);}.cls-169{fill:url(#linear-gradient-143);}.cls-170{fill:url(#linear-gradient-144);}</style><linearGradient id="linear-gradient" x1="25.55" y1="195.97" x2="188.58" y2="195.97" gradientUnits="userSpaceOnUse"><stop offset="0" stop-color="#0962a4"/><stop offset="1" stop-color="#318aca"/></linearGradient><linearGradient id="linear-gradient-2" x1="203.85" y1="110.33" x2="216.78" y2="110.33" xlink:href="#linear-gradient"/><linearGradient id="linear-gradient-3" x1="216.78" y1="113.6" x2="218.37" y2="113.6" xlink:href="#linear-gradient"/><linearGradient id="linear-gradient-4" x1="203.85" y1="104.61" x2="218.37" y2="104.61" xlink:href="#linear-gradient"/><linearGradient id="linear-gradient-5" x1="226.41" y1="79.1" x2="242.1" y2="79.1" xlink:href="#linear-gradient"/><linearGradient id="linear-gradient-6" x1="212.88" y1="88.71" x2="232.05" y2="88.71" xlink:href="#linear-gradient"/><linearGradient id="linear-gradient-7" x1="209.05" y1="88.39" x2="217.75" y2="88.39" xlink:href="#linear-gradient"/><linearGradient id="linear-gradient-8" x1="239.01" y1="85.08" x2="240.74" y2="85.08" xlink:href="#linear-gradient"/><linearGradient id="linear-gradient-9" x1="203.61" y1="105.13" x2="216.8" y2="105.13" xlink:href="#linear-gradient"/><linearGradient id="linear-gradient-10" x1="204.9" y1="107.46" x2="206.61" y2="107.46" xlink:href="#linear-gradient"/><linearGradient id="linear-gradient-11" x1="212.73" y1="111.98" x2="214.45" y2="111.98" xlink:href="#linear-gradient"/><linearGradient id="linear-gradient-12" x1="154.77" y1="137.41" x2="205.25" y2="137.41" xlink:href="#linear-gradient"/><linearGradient id="linear-gradient-13" x1="154.77" y1="45.17" x2="205.25" y2="45.17" xlink:href="#linear-gradient"/><linearGradient id="linear-gradient-14" x1="163.69" y1="77.28" x2="196.32" y2="77.28" xlink:href="#linear-gradient"/><linearGradient id="linear-gradient-15" x1="109.17" y1="31.22" x2="56.66" y2="122.18" xlink:href="#linear-gradient"/><linearGradient id="linear-gradient-16" x1="37.58" y1="94.51" x2="139.97" y2="94.51" xlink:href="#linear-gradient"/><radialGradient id="Áåçûìÿííûé_ãðàäèåíò_443" cx="24" cy="21.7" r="17.14" gradientTransform="translate(19.18 109.89) rotate(-45)" gradientUnits="userSpaceOnUse"><stop offset="0" stop-color="#f9a764"/><stop offset="0" stop-color="#f5a462"/><stop offset="0.03" stop-color="#c78650"/><stop offset="0.07" stop-color="#9e6a40"/><stop offset="0.1" stop-color="#785131"/><stop offset="0.14" stop-color="#583b24"/><stop offset="0.18" stop-color="#3c2919"/><stop offset="0.23" stop-color="#261a10"/><stop offset="0.29" stop-color="#150f09"/><stop offset="0.36" stop-color="#0a0704"/><stop offset="0.46" stop-color="#030202"/><stop offset="0.74" stop-color="#010101"/></radialGradient><linearGradient id="linear-gradient-17" x1="133.84" y1="58.41" x2="136.83" y2="58.41" xlink:href="#linear-gradient"/><linearGradient id="linear-gradient-18" x1="128.69" y1="61.38" x2="131.68" y2="61.38" xlink:href="#linear-gradient"/><linearGradient id="linear-gradient-19" x1="123.54" y1="64.35" x2="126.53" y2="64.35" xlink:href="#linear-gradient"/><linearGradient id="linear-gradient-20" x1="118.39" y1="67.33" x2="121.38" y2="67.33" xlink:href="#linear-gradient"/><linearGradient id="linear-gradient-21" x1="113.24" y1="70.3" x2="116.23" y2="70.3" xlink:href="#linear-gradient"/><linearGradient id="linear-gradient-22" x1="108.09" y1="73.27" x2="111.08" y2="73.27" xlink:href="#linear-gradient"/><linearGradient id="linear-gradient-23" x1="102.94" y1="76.24" x2="105.93" y2="76.24" xlink:href="#linear-gradient"/><linearGradient id="linear-gradient-24" x1="97.79" y1="79.22" x2="100.78" y2="79.22" xlink:href="#linear-gradient"/><linearGradient id="linear-gradient-25" x1="92.64" y1="82.19" x2="95.63" y2="82.19" xlink:href="#linear-gradient"/><linearGradient id="linear-gradient-26" x1="87.5" y1="85.16" x2="90.49" y2="85.16" xlink:href="#linear-gradient"/><linearGradient id="linear-gradient-27" x1="82.35" y1="88.14" x2="85.34" y2="88.14" xlink:href="#linear-gradient"/><linearGradient id="linear-gradient-28" x1="77.2" y1="91.11" x2="80.19" y2="91.11" xlink:href="#linear-gradient"/><linearGradient id="linear-gradient-29" x1="72.05" y1="94.08" x2="75.04" y2="94.08" xlink:href="#linear-gradient"/><linearGradient id="linear-gradient-30" x1="66.9" y1="97.05" x2="69.89" y2="97.05" xlink:href="#linear-gradient"/><linearGradient id="linear-gradient-31" x1="61.75" y1="100.03" x2="64.74" y2="100.03" xlink:href="#linear-gradient"/><linearGradient id="linear-gradient-32" x1="56.6" y1="103" x2="59.59" y2="103" xlink:href="#linear-gradient"/><linearGradient id="linear-gradient-33" x1="51.45" y1="105.97" x2="54.44" y2="105.97" xlink:href="#linear-gradient"/><linearGradient id="linear-gradient-34" x1="46.3" y1="108.95" x2="49.29" y2="108.95" xlink:href="#linear-gradient"/><linearGradient id="linear-gradient-35" x1="41.15" y1="111.92" x2="44.14" y2="111.92" xlink:href="#linear-gradient"/><linearGradient id="linear-gradient-36" x1="29.09" y1="177.98" x2="40.98" y2="177.98" xlink:href="#linear-gradient"/><linearGradient id="linear-gradient-37" x1="43.89" y1="139.88" x2="63.62" y2="139.88" xlink:href="#linear-gradient"/><linearGradient id="linear-gradient-38" x1="43.89" y1="163.39" x2="63.62" y2="163.39" xlink:href="#linear-gradient"/><linearGradient id="linear-gradient-39" x1="67.45" y1="149.79" x2="87.18" y2="149.79" xlink:href="#linear-gradient"/><linearGradient id="linear-gradient-40" x1="67.45" y1="173.3" x2="87.18" y2="173.3" xlink:href="#linear-gradient"/><linearGradient id="linear-gradient-41" x1="91.01" y1="112.67" x2="110.74" y2="112.67" xlink:href="#linear-gradient"/><linearGradient id="linear-gradient-42" x1="91.01" y1="136.18" x2="110.74" y2="136.18" xlink:href="#linear-gradient"/><linearGradient id="linear-gradient-43" x1="91.01" y1="159.7" x2="110.74" y2="159.7" xlink:href="#linear-gradient"/><linearGradient id="linear-gradient-44" x1="114.57" y1="99.07" x2="134.3" y2="99.07" xlink:href="#linear-gradient"/><linearGradient id="linear-gradient-45" x1="114.57" y1="122.58" x2="134.3" y2="122.58" xlink:href="#linear-gradient"/><linearGradient id="linear-gradient-46" x1="114.57" y1="146.09" x2="134.3" y2="146.09" xlink:href="#linear-gradient"/><linearGradient id="linear-gradient-47" x1="164.16" y1="96.67" x2="113.35" y2="184.67" xlink:href="#linear-gradient"/><linearGradient id="linear-gradient-48" x1="129.04" y1="147.74" x2="155.34" y2="147.74" xlink:href="#linear-gradient"/><linearGradient id="linear-gradient-49" x1="151.8" y1="150.27" x2="158.49" y2="150.27" xlink:href="#linear-gradient"/><linearGradient id="linear-gradient-50" x1="77.31" y1="239.37" x2="180.33" y2="239.37" xlink:href="#linear-gradient"/><linearGradient id="linear-gradient-51" x1="132.75" y1="215.89" x2="148.2" y2="215.89" xlink:href="#linear-gradient"/><linearGradient id="linear-gradient-52" x1="122.44" y1="221.84" x2="137.89" y2="221.84" xlink:href="#linear-gradient"/><linearGradient id="linear-gradient-53" x1="112.13" y1="227.79" x2="127.58" y2="227.79" xlink:href="#linear-gradient"/><linearGradient id="linear-gradient-54" x1="101.82" y1="233.74" x2="117.27" y2="233.74" xlink:href="#linear-gradient"/><linearGradient id="linear-gradient-55" x1="142.32" y1="221.42" x2="157.78" y2="221.42" xlink:href="#linear-gradient"/><linearGradient id="linear-gradient-56" x1="132.02" y1="227.37" x2="147.47" y2="227.37" xlink:href="#linear-gradient"/><linearGradient id="linear-gradient-57" x1="121.71" y1="233.32" x2="137.16" y2="233.32" xlink:href="#linear-gradient"/><linearGradient id="linear-gradient-58" x1="111.4" y1="239.27" x2="126.85" y2="239.27" xlink:href="#linear-gradient"/><linearGradient id="linear-gradient-59" x1="151.9" y1="226.95" x2="167.35" y2="226.95" xlink:href="#linear-gradient"/><linearGradient id="linear-gradient-60" x1="141.59" y1="232.9" x2="157.05" y2="232.9" xlink:href="#linear-gradient"/><linearGradient id="linear-gradient-61" x1="131.29" y1="238.85" x2="146.74" y2="238.85" xlink:href="#linear-gradient"/><linearGradient id="linear-gradient-62" x1="120.98" y1="244.8" x2="136.43" y2="244.8" xlink:href="#linear-gradient"/><linearGradient id="linear-gradient-63" x1="161.48" y1="232.47" x2="176.93" y2="232.47" xlink:href="#linear-gradient"/><linearGradient id="linear-gradient-64" x1="151.17" y1="238.43" x2="166.62" y2="238.43" xlink:href="#linear-gradient"/><linearGradient id="linear-gradient-65" x1="140.86" y1="244.38" x2="156.32" y2="244.38" xlink:href="#linear-gradient"/><linearGradient id="linear-gradient-66" x1="130.55" y1="250.33" x2="146.01" y2="250.33" xlink:href="#linear-gradient"/><linearGradient id="linear-gradient-67" x1="250.72" y1="158.5" x2="264.5" y2="158.5" xlink:href="#linear-gradient"/><linearGradient id="linear-gradient-68" x1="231.08" y1="179.76" x2="244.86" y2="179.76" xlink:href="#linear-gradient"/><linearGradient id="linear-gradient-69" x1="211.44" y1="196.54" x2="225.22" y2="196.54" xlink:href="#linear-gradient"/><linearGradient id="linear-gradient-70" x1="191.8" y1="213.55" x2="205.58" y2="213.55" xlink:href="#linear-gradient"/><linearGradient id="linear-gradient-71" x1="275.17" y1="193.64" x2="288.95" y2="193.64" xlink:href="#linear-gradient"/><linearGradient id="linear-gradient-72" x1="261.39" y1="193.64" x2="275.17" y2="193.64" xlink:href="#linear-gradient"/><linearGradient id="linear-gradient-73" x1="32.44" y1="59.26" x2="40.09" y2="59.26" xlink:href="#linear-gradient"/><linearGradient id="linear-gradient-74" x1="40.09" y1="60.96" x2="53.14" y2="60.96" xlink:href="#linear-gradient"/><linearGradient id="linear-gradient-75" x1="61.09" y1="54.54" x2="72.58" y2="54.54" xlink:href="#linear-gradient"/><linearGradient id="linear-gradient-76" x1="94.53" y1="23.32" x2="136.69" y2="23.32" xlink:href="#linear-gradient"/><linearGradient id="linear-gradient-77" x1="263.37" y1="180.67" x2="270.19" y2="180.67" xlink:href="#linear-gradient"/><linearGradient id="linear-gradient-78" x1="255.89" y1="182.91" x2="270.47" y2="182.91" xlink:href="#linear-gradient"/><linearGradient id="linear-gradient-79" x1="65.17" y1="197.96" x2="86.26" y2="197.96" xlink:href="#linear-gradient"/><linearGradient id="linear-gradient-80" x1="83.7" y1="189.11" x2="102.09" y2="189.11" xlink:href="#linear-gradient"/><linearGradient id="linear-gradient-81" x1="53.87" y1="199.03" x2="69.53" y2="199.03" xlink:href="#linear-gradient"/><linearGradient id="linear-gradient-82" x1="76.25" y1="184.48" x2="78.22" y2="184.48" xlink:href="#linear-gradient"/><linearGradient id="linear-gradient-83" x1="71.26" y1="187.2" x2="74.82" y2="187.2" xlink:href="#linear-gradient"/><linearGradient id="linear-gradient-84" x1="74.82" y1="187.07" x2="78.75" y2="187.07" xlink:href="#linear-gradient"/><linearGradient id="linear-gradient-85" x1="37.87" y1="204.57" x2="40.21" y2="204.57" xlink:href="#linear-gradient"/><linearGradient id="linear-gradient-86" x1="39.06" y1="201.46" x2="42.24" y2="201.46" xlink:href="#linear-gradient"/><linearGradient id="linear-gradient-87" x1="33.56" y1="201.97" x2="39.48" y2="201.97" xlink:href="#linear-gradient"/><linearGradient id="linear-gradient-88" x1="37.7" y1="214.63" x2="41.63" y2="214.63" xlink:href="#linear-gradient"/><linearGradient id="linear-gradient-89" x1="14.53" y1="163.69" x2="32.55" y2="163.69" xlink:href="#linear-gradient"/><linearGradient id="linear-gradient-90" x1="238.91" y1="99.05" x2="267.81" y2="99.05" xlink:href="#linear-gradient"/><linearGradient id="linear-gradient-91" x1="252.89" y1="83.28" x2="267.82" y2="83.28" xlink:href="#linear-gradient"/><linearGradient id="linear-gradient-92" x1="4.35" y1="183.01" x2="32.55" y2="183.01" xlink:href="#linear-gradient"/><linearGradient id="linear-gradient-93" x1="229.04" y1="229.11" x2="230.53" y2="229.11" xlink:href="#linear-gradient"/><linearGradient id="linear-gradient-94" x1="228.7" y1="234.77" x2="233" y2="234.77" xlink:href="#linear-gradient"/><linearGradient id="linear-gradient-95" x1="207.85" y1="235.3" x2="208.36" y2="235.3" xlink:href="#linear-gradient"/><linearGradient id="linear-gradient-96" x1="228.86" y1="235.56" x2="229.42" y2="235.56" xlink:href="#linear-gradient"/><linearGradient id="linear-gradient-97" x1="213.53" y1="238.95" x2="214.78" y2="238.95" xlink:href="#linear-gradient"/><linearGradient id="linear-gradient-98" x1="222.23" y1="239.05" x2="223.51" y2="239.05" xlink:href="#linear-gradient"/><linearGradient id="linear-gradient-99" x1="210.1" y1="239.2" x2="213.54" y2="239.2" xlink:href="#linear-gradient"/><linearGradient id="linear-gradient-100" x1="227.09" y1="238.84" x2="230.31" y2="238.84" xlink:href="#linear-gradient"/><linearGradient id="linear-gradient-101" x1="220.82" y1="240.19" x2="222.25" y2="240.19" xlink:href="#linear-gradient"/><linearGradient id="linear-gradient-102" x1="216.27" y1="241.18" x2="220.83" y2="241.18" xlink:href="#linear-gradient"/><linearGradient id="linear-gradient-103" x1="204.42" y1="230.4" x2="233" y2="230.4" xlink:href="#linear-gradient"/><linearGradient id="linear-gradient-104" x1="212.78" y1="228.1" x2="224.64" y2="228.1" xlink:href="#linear-gradient"/><linearGradient id="linear-gradient-105" x1="212.78" y1="230.85" x2="224.64" y2="230.85" xlink:href="#linear-gradient"/><linearGradient id="linear-gradient-106" x1="252.91" y1="237.57" x2="254.4" y2="237.57" xlink:href="#linear-gradient"/><linearGradient id="linear-gradient-107" x1="252.57" y1="243.24" x2="256.87" y2="243.24" xlink:href="#linear-gradient"/><linearGradient id="linear-gradient-108" x1="231.72" y1="243.77" x2="232.23" y2="243.77" xlink:href="#linear-gradient"/><linearGradient id="linear-gradient-109" x1="252.73" y1="244.03" x2="253.29" y2="244.03" xlink:href="#linear-gradient"/><linearGradient id="linear-gradient-110" x1="237.4" y1="247.41" x2="238.65" y2="247.41" xlink:href="#linear-gradient"/><linearGradient id="linear-gradient-111" x1="246.1" y1="247.52" x2="247.37" y2="247.52" xlink:href="#linear-gradient"/><linearGradient id="linear-gradient-112" x1="233.96" y1="247.67" x2="237.41" y2="247.67" xlink:href="#linear-gradient"/><linearGradient id="linear-gradient-113" x1="250.96" y1="247.31" x2="254.18" y2="247.31" xlink:href="#linear-gradient"/><linearGradient id="linear-gradient-114" x1="244.68" y1="248.66" x2="246.12" y2="248.66" xlink:href="#linear-gradient"/><linearGradient id="linear-gradient-115" x1="240.14" y1="249.65" x2="244.7" y2="249.65" xlink:href="#linear-gradient"/><linearGradient id="linear-gradient-116" x1="228.29" y1="238.87" x2="256.87" y2="238.87" xlink:href="#linear-gradient"/><linearGradient id="linear-gradient-117" x1="236.65" y1="236.57" x2="248.51" y2="236.57" xlink:href="#linear-gradient"/><linearGradient id="linear-gradient-118" x1="236.65" y1="239.32" x2="248.51" y2="239.32" xlink:href="#linear-gradient"/><linearGradient id="linear-gradient-119" x1="238.03" y1="251.05" x2="239.52" y2="251.05" xlink:href="#linear-gradient"/><linearGradient id="linear-gradient-120" x1="237.7" y1="256.71" x2="242" y2="256.71" xlink:href="#linear-gradient"/><linearGradient id="linear-gradient-121" x1="216.85" y1="257.25" x2="217.35" y2="257.25" xlink:href="#linear-gradient"/><linearGradient id="linear-gradient-122" x1="237.86" y1="257.5" x2="238.42" y2="257.5" xlink:href="#linear-gradient"/><linearGradient id="linear-gradient-123" x1="222.52" y1="260.89" x2="223.78" y2="260.89" xlink:href="#linear-gradient"/><linearGradient id="linear-gradient-124" x1="231.23" y1="261" x2="232.5" y2="261" xlink:href="#linear-gradient"/><linearGradient id="linear-gradient-125" x1="219.09" y1="261.14" x2="222.54" y2="261.14" xlink:href="#linear-gradient"/><linearGradient id="linear-gradient-126" x1="236.09" y1="260.78" x2="239.3" y2="260.78" xlink:href="#linear-gradient"/><linearGradient id="linear-gradient-127" x1="229.81" y1="262.13" x2="231.24" y2="262.13" xlink:href="#linear-gradient"/><linearGradient id="linear-gradient-128" x1="225.26" y1="263.13" x2="229.83" y2="263.13" xlink:href="#linear-gradient"/><linearGradient id="linear-gradient-129" x1="213.41" y1="252.34" x2="242" y2="252.34" xlink:href="#linear-gradient"/><linearGradient id="linear-gradient-130" x1="221.78" y1="250.04" x2="233.63" y2="250.04" xlink:href="#linear-gradient"/><linearGradient id="linear-gradient-131" x1="221.78" y1="252.79" x2="233.63" y2="252.79" xlink:href="#linear-gradient"/><linearGradient id="linear-gradient-132" x1="90.51" y1="268.83" x2="92" y2="268.83" xlink:href="#linear-gradient"/><linearGradient id="linear-gradient-133" x1="90.18" y1="274.49" x2="94.48" y2="274.49" xlink:href="#linear-gradient"/><linearGradient id="linear-gradient-134" x1="69.33" y1="275.03" x2="69.84" y2="275.03" xlink:href="#linear-gradient"/><linearGradient id="linear-gradient-135" x1="90.34" y1="275.28" x2="90.9" y2="275.28" xlink:href="#linear-gradient"/><linearGradient id="linear-gradient-136" x1="75.01" y1="278.67" x2="76.26" y2="278.67" xlink:href="#linear-gradient"/><linearGradient id="linear-gradient-137" x1="83.71" y1="278.78" x2="84.98" y2="278.78" xlink:href="#linear-gradient"/><linearGradient id="linear-gradient-138" x1="71.57" y1="278.92" x2="75.02" y2="278.92" xlink:href="#linear-gradient"/><linearGradient id="linear-gradient-139" x1="88.57" y1="278.56" x2="91.79" y2="278.56" xlink:href="#linear-gradient"/><linearGradient id="linear-gradient-140" x1="82.29" y1="279.91" x2="83.72" y2="279.91" xlink:href="#linear-gradient"/><linearGradient id="linear-gradient-141" x1="77.75" y1="280.91" x2="82.31" y2="280.91" xlink:href="#linear-gradient"/><linearGradient id="linear-gradient-142" x1="65.89" y1="270.12" x2="94.48" y2="270.12" xlink:href="#linear-gradient"/><linearGradient id="linear-gradient-143" x1="74.26" y1="267.82" x2="86.11" y2="267.82" xlink:href="#linear-gradient"/><linearGradient id="linear-gradient-144" x1="74.26" y1="270.57" x2="86.11" y2="270.57" xlink:href="#linear-gradient"/></defs><title>Faster Time to Market</title><g class="cls-1"><g id="Layer_1" data-name="Layer 1"><g id="_2" data-name="2"><g class="cls-2"><ellipse class="cls-3" cx="41.15" cy="266.71" rx="13.53" ry="7.81"/><ellipse class="cls-3" cx="61.1" cy="251.22" rx="8.39" ry="4.84"/><ellipse class="cls-3" cx="83.89" cy="249.75" rx="8.39" ry="4.84"/><path class="cls-4" d="M233.81,137.63c3.27,1.9,3.27,5,0,6.85a13.07,13.07,0,0,1-11.87,0c-3.27-1.89-3.27-4.95,0-6.85A13.13,13.13,0,0,1,233.81,137.63Z"/><ellipse class="cls-4" cx="214.59" cy="131.8" rx="8.39" ry="4.84"/><path class="cls-4" d="M272.48,204.45c2.46,1.41,2.46,3.71,0,5.13a9.87,9.87,0,0,1-8.89,0c-2.45-1.42-2.45-3.72,0-5.13A9.81,9.81,0,0,1,272.48,204.45Z"/><ellipse class="cls-4" cx="259.55" cy="203.19" rx="6.28" ry="3.63"/><path id="Cylinder_face" data-name="Cylinder face" class="cls-4" d="M197.67,152.28c4.51-2.61,7.05-5.92,7.62-9.33.72-4.37-1.82-8.9-7.62-12.25-10.32-6-27.06-6-37.38,0-6.35,3.67-8.79,8.73-7.33,13.48.91,3,3.36,5.81,7.33,8.1C170.61,158.24,187.35,158.24,197.67,152.28Z"/><path class="cls-5" d="M187.23,171.69l-17.61-10.17a5.68,5.68,0,0,0-5.67,0L135.4,178l-19-8.49L26.9,221.2c-1.8,1-1.8,2.73,0,3.77l9.39,5.42a7.24,7.24,0,0,0,6.54,0l56.59-32.67,21.37,12.33a7.24,7.24,0,0,0,6.54,0l59.9-34.59C189,174.43,189,172.73,187.23,171.69Z"/><path class="cls-3" d="M178.09,234.9c3,1.73,3,4.51,0,6.23l-34.25,20a11.82,11.82,0,0,1-10.74,0L79.57,230.19c-3-1.72-3-4.51,0-6.22l34.25-20a11.84,11.84,0,0,1,10.75,0Z"/><path class="cls-4" d="M230.53,240.76l-1.48,2.08a5.57,5.57,0,0,1,.5.73l3.45.83V247l-3.58.86a5.2,5.2,0,0,1-.54.72l1.43,2-3.21,1.86-3.59-.85c-.41.11-.84.2-1.26.28l-1.42,2h-4.55l-1.5-2.08c-.41-.09-.83-.2-1.24-.32l-3.43.83-3.23-1.86,1.48-2.08a6.3,6.3,0,0,1-.49-.74l-3.44-.82v-2.64l3.58-.86a5.88,5.88,0,0,1,.54-.72l-1.44-2,3.21-1.86,3.59.86c.42-.11.84-.2,1.27-.29l1.41-2h4.55l1.5,2.08c.42.1.84.2,1.25.32l3.42-.82Z"/><path class="cls-4" d="M254.4,249.23l-1.48,2.08a5.57,5.57,0,0,1,.5.73l3.45.82v2.64l-3.58.86a6.14,6.14,0,0,1-.54.72l1.43,2L251,260.93l-3.6-.86c-.41.11-.83.21-1.25.29l-1.42,2h-4.55l-1.5-2.07c-.42-.09-.83-.2-1.24-.32l-3.43.83-3.23-1.87,1.48-2.07a8,8,0,0,1-.5-.74l-3.43-.82v-2.64l3.58-.86a4.51,4.51,0,0,1,.54-.72l-1.44-2,3.21-1.87,3.59.87c.42-.11.84-.2,1.27-.29l1.41-2H245l1.5,2.08c.42.09.84.2,1.24.32l3.43-.82Z"/><path class="cls-4" d="M239.52,262.71l-1.47,2.07a6.87,6.87,0,0,1,.5.74l3.44.82V269l-3.58.86a6.89,6.89,0,0,1-.55.72l1.43,2-3.2,1.87-3.6-.86c-.41.11-.83.2-1.26.28l-1.41,2h-4.55l-1.5-2.08c-.42-.09-.84-.19-1.24-.31l-3.43.82-3.23-1.86,1.47-2.08a6.76,6.76,0,0,1-.49-.74l-3.43-.82,0-2.63,3.58-.87a6.89,6.89,0,0,1,.55-.72l-1.44-2,3.2-1.86,3.6.86c.41-.1.84-.2,1.27-.28l1.41-2h4.54l1.51,2.08c.42.09.84.2,1.24.32l3.43-.83Z"/><path class="cls-4" d="M92,280.49l-1.47,2.07a6.87,6.87,0,0,1,.5.74l3.44.82v2.64l-3.58.86a6.89,6.89,0,0,1-.55.72l1.44,2-3.21,1.87-3.6-.86c-.41.11-.83.2-1.26.28l-1.41,2H77.76l-1.5-2.08c-.42-.09-.84-.19-1.24-.31l-3.43.82-3.23-1.86,1.48-2.08a5.66,5.66,0,0,1-.5-.74l-3.43-.82,0-2.63,3.58-.87a6.89,6.89,0,0,1,.55-.72l-1.44-2,3.2-1.86,3.6.86c.41-.1.84-.2,1.27-.28l1.41-2H82.6l1.51,2.08c.42.09.84.2,1.24.32l3.43-.83Z"/></g><g id="_2-2" data-name="2"><g id="_1" data-name="1"><path class="cls-4" d="M229.93,139.45a15.48,15.48,0,0,1-2.43-.11,10.45,10.45,0,0,1-5.09-1.63,6.53,6.53,0,0,0-.08,1,1.44,1.44,0,0,0,.79,1.5c3.78,2.68,4.62,3.07,5.41,3.2a7.8,7.8,0,0,0,3.85,0c.23,0,1.08-.46,1.06-1.1,0-.21.07-.77-.18-1C232.62,140.69,231.18,140.22,229.93,139.45Z"/><path class="cls-3" d="M222.33,138a1.42,1.42,0,0,0,.79,1.49c3.78,2.68,4.62,3.07,5.41,3.21a7.71,7.71,0,0,0,3.85,0c.31-.06,1.71-.78.69-1.8s-4.27-2-5.13-4.41c-.38-1.09-3.36-1.51-4.76-.9C222.52,135.91,222.33,137,222.33,138Z"/><path class="cls-4" d="M208.86,128.35c-.55.87-.29,1.2-.11,1.43a54.48,54.48,0,0,0,6.3,5,3.18,3.18,0,0,0,.86.35c2.06.38,3.43-.47,3.48-1.4v-.77c0-.18-.74-.69-2.29-1a25,25,0,0,1-2.42-3.1,2,2,0,0,0-.91-.7c-.63-.28-1.2-.7-1.85-.92a1.8,1.8,0,0,0-1.6,0A9.38,9.38,0,0,0,208.86,128.35Z"/><path class="cls-3" d="M209.11,127.86A1,1,0,0,0,209,129c.32.6,5.75,4.77,6.11,4.95a4.66,4.66,0,0,0,.87.35c3.18.82,4.72-1.55,2.27-2.69l-1.09-.5a20.74,20.74,0,0,1-2.32-3.2c-.2-.34-3.21-2.76-4.45-1.52C210.17,126.55,209.31,127.59,209.11,127.86Z"/><path class="cls-6" d="M223.79,114.24c2.87-4.63,5.48-8.8,6.3-12l-.39-5.88-2.78-3.16-3.53,2.17-3.2,8.76c-.17.26-.34.53-.5.81C221,108.09,222.47,111.13,223.79,114.24Z"/><path class="cls-3" d="M218.39,107.7a23.43,23.43,0,0,0-1.31,5,19.05,19.05,0,0,0-4,6.58,56.37,56.37,0,0,1-2.59,6.69c-.71,1.65,3.88,4,4.75,2.5.47-.81,6.17-10.32,6.17-10.32l.9-1.47C221.12,113.61,219.7,110.68,218.39,107.7Z"/><path class="cls-3" d="M226.61,105.12s-7-2-10.36-1.08c-.79.21,2.32,12.39,3.38,15.45,1,2.87-.18,6.18.2,9.17.28,2.24,2.24,5.45,2.87,7.61.47,1.6,5.55,1.16,5.15-.54-.37-4.6-.85-9.8-.75-11.95a49.68,49.68,0,0,0,.3-5.58C227.3,116.53,226.61,105.12,226.61,105.12Z"/><g id="Axonometric_Cube" data-name="Axonometric Cube"><polygon id="Cube_face_-_left" data-name="Cube face - left" class="cls-7" points="216.78 119.32 203.85 111.85 203.85 101.33 216.78 108.8 216.78 119.32"/><polygon id="Cube_face_-_right" data-name="Cube face - right" class="cls-8" points="218.37 118.4 216.78 119.32 216.78 108.8 218.37 107.89 218.37 118.4"/><polygon id="Cube_face_-_top" data-name="Cube face - top" class="cls-9" points="216.78 108.8 203.85 101.33 205.44 100.42 218.37 107.89 216.78 108.8"/></g><path class="cls-10" d="M208.49,103.39c-1.12,0-.44-1.22.77-1.21a2.91,2.91,0,0,1,1.23.26s-.57,1.07-.74,1.07A11.33,11.33,0,0,0,208.49,103.39Z"/><path class="cls-11" d="M214,103.3a2.73,2.73,0,0,0-.61-1.44,6.59,6.59,0,0,1-.66-.74,1.53,1.53,0,0,1-.23-1.06.32.32,0,0,0,0-.24.25.25,0,0,0-.16-.08,4.45,4.45,0,0,0-.8-.13,4.17,4.17,0,0,0-1.68.42l-.26.59a8,8,0,0,1-.42,2.36,1.75,1.75,0,0,0-.06.6,1.53,1.53,0,0,0,.66,1,7.11,7.11,0,0,0,2.14,1,1,1,0,0,0,.49.07A1,1,0,0,0,213,105a2.54,2.54,0,0,1,.5-.74c.08-.07.18-.12.26-.2A1,1,0,0,0,214,103.3Z"/><path class="cls-12" d="M209.21,98.29c0,1.19,0,2.12,0,2.43.24,1.15,3.44.93,3.46.19s.1-1.57.19-2.62Z"/><path class="cls-13" d="M241,78.87c-2.73-2.42-10.12-8.57-14.43-8A6.55,6.55,0,0,0,229.28,78l8.27,4.32.06,3.08a1.68,1.68,0,0,0,1,1.63,3.14,3.14,0,0,0,2,.25C242,87,242.09,86,242.09,84c0-.9,0-1.92,0-2.72A3.21,3.21,0,0,0,241,78.87Z"/><path class="cls-14" d="M215.62,74.85a6.88,6.88,0,0,0-2,1.7,5.24,5.24,0,0,0-.51,4.38c.77,2.85,4,4.83,4,10.76,0,4.39-1.46,3.76-2.72,11.35-.38,2.32,5.9,5.39,13.11,2.22.1-3.13-.15-9.66-.15-9.66.71,3.13,1.65,9,1.65,9,1.63-.62,3.1-2.16,3-3.58L230.78,93a17.07,17.07,0,0,1-.21-5.43c.41-3.32,1.06-8.8,1.28-11.36a5.32,5.32,0,0,0-.66-3C228.39,68.26,220,72.07,215.62,74.85Z"/><path class="cls-15" d="M209.11,89c0,1.2-.12,10.13,0,11.28.26,1.25,3.76,1,3.79.2.09-2.5.92-9.91.92-9.91s3.74-7.9,3.93-10.7a4.06,4.06,0,0,0-1.42-3.78c-2.25-1.49-3.47,1.66-4.41,3.56A43.39,43.39,0,0,0,209.11,89Z"/><path class="cls-3" d="M217.51,78.31a4,4,0,0,1-.73-3.62c.5-1.47,3.49-2.56,4.63-3s4.42-1.4,6.11-.19c1,.74,1.25,2.32,1.16,4.15a109.82,109.82,0,0,1-2.22,14.4S219.17,80.79,217.51,78.31Z"/><path class="cls-12" d="M218.44,77.68c4.29,6.4,6.72,9,8,12.38.3-5.13.78-8.84,1.09-14.46.21-3.86-2-5-5.86-3.49C220.25,72.67,216.13,74.23,218.44,77.68Z"/><path class="cls-12" d="M239.87,84.53c-1,0-1.86.59-1.86,1.33v.33c0,.73.83,1.33,1.86,1.33s1.85-.6,1.85-1.33v-.33C241.72,85.12,240.89,84.53,239.87,84.53Z"/><path class="cls-11" d="M238.71,85.17a2.58,2.58,0,0,0-1.34-.3c-.19,0-.37.15-.56.21a6.48,6.48,0,0,1-.77.09c-1.15.21-1.17,1.26-1.31,2.19a1.18,1.18,0,0,0,.1.85,2.16,2.16,0,0,1,.27.33,2,2,0,0,1,.05.26,1,1,0,0,0,.86.68c1.35.21,3.74-1.07,4.42-1.49a1.91,1.91,0,0,0,1-1.5c0-.68-.24-1.67-2-1.64A1.23,1.23,0,0,0,238.71,85.17Z"/><path class="cls-3" d="M240.46,85.57c.48.36.76.76.53,2a1.53,1.53,0,0,0,.5-1.22,1.32,1.32,0,0,0-.62-1.16,2,2,0,0,0-1.62-.36,1.73,1.73,0,0,0-.54.34A2.63,2.63,0,0,1,240.46,85.57Z"/><ellipse class="cls-16" cx="239.87" cy="85.08" rx="0.87" ry="0.47"/><path class="cls-12" d="M240.58,85c0,.21-.32.38-.71.38s-.72-.17-.72-.38.32-.39.72-.39S240.58,84.81,240.58,85Z"/><path class="cls-10" d="M212.42,104.12c-.19.16-.35.49-.18.67a9.51,9.51,0,0,1,1.35,1.63c.38.63,1.62,0,1.22-.59a6,6,0,0,0-.93-1.35C213.49,104.09,213,103.61,212.42,104.12Z"/><g id="Axonometric_Cube-2" data-name="Axonometric Cube"><polygon id="Cube_face_-_left-2" data-name="Cube face - left" class="cls-3" points="216.54 114.98 203.61 107.51 203.61 101.47 216.54 108.94 216.54 114.98"/><polygon id="Cube_face_-_right-2" data-name="Cube face - right" class="cls-3" points="216.8 114.83 216.54 114.98 216.54 108.94 216.8 108.79 216.8 114.83"/><polygon id="Cube_face_-_top-2" data-name="Cube face - top" class="cls-17" points="216.54 108.94 203.61 101.47 203.87 101.33 216.8 108.79 216.54 108.94"/></g><g id="Axonometric_Cube-3" data-name="Axonometric Cube"><polygon id="Cube_face_-_left-3" data-name="Cube face - left" class="cls-18" points="206.61 108.66 204.9 107.68 204.9 106.25 206.61 107.24 206.61 108.66"/><polygon id="Cube_face_-_right-3" data-name="Cube face - right" class="cls-4" points="206.89 108.5 206.61 108.66 206.61 107.24 206.89 107.08 206.89 108.5"/><polygon id="Cube_face_-_top-3" data-name="Cube face - top" class="cls-4" points="206.61 107.24 204.9 106.25 205.18 106.09 206.89 107.08 206.61 107.24"/></g><g id="Axonometric_Cube-4" data-name="Axonometric Cube"><polygon id="Cube_face_-_left-4" data-name="Cube face - left" class="cls-19" points="214.45 113.19 212.74 112.2 212.74 110.78 214.45 111.76 214.45 113.19"/><polygon id="Cube_face_-_right-4" data-name="Cube face - right" class="cls-4" points="214.73 113.03 214.45 113.19 214.45 111.76 214.73 111.6 214.73 113.03"/><polygon id="Cube_face_-_top-4" data-name="Cube face - top" class="cls-4" points="214.45 111.76 212.74 110.78 213.02 110.61 214.73 111.6 214.45 111.76"/></g><polygon class="cls-12" points="221.12 72.09 220.54 73.05 221.06 73.67 222.28 72.65 222.65 71.49 221.12 72.09"/><path class="cls-20" d="M225.42,77.18c-.52.69-.72,1-1.16,1-1.38.26-4.07-2.24-3.68-4.92a.73.73,0,0,1,.25-.47,6.75,6.75,0,0,0,1.85-3.55.85.85,0,0,1,1.38-.45c1.66,1.43,2.88,4.11,2.82,5.25A10.4,10.4,0,0,1,225.42,77.18Z"/><path class="cls-3" d="M225.75,77a14.31,14.31,0,0,1-2.28.75s.29,2.28,1.6,1.93C226.1,79.4,225.75,77,225.75,77Z"/><path class="cls-21" d="M224.64,77.39l2.92.51a24.45,24.45,0,0,0-2-5.46C226.59,76.81,224.64,77.39,224.64,77.39Z"/><path class="cls-11" d="M229.78,68.5a2.1,2.1,0,0,0-.59-1.9c-.9-.64-3-1.82-6.73,0a4.42,4.42,0,0,0-1.29,1.26,1.77,1.77,0,0,0-.42,1.51c.08,1.2-.13,1.7,1.49,3.72A16.89,16.89,0,0,0,226,76.46a2.37,2.37,0,0,0,1.74.3c.54-.13,1.12-.64,1.32-1.92C229.23,73.87,229.6,71.09,229.78,68.5Z"/><path class="cls-22" d="M223.11,70.38c.17.36.9.52,1.14-.3a1.83,1.83,0,0,1,2-1.17,6.84,6.84,0,0,0,3.1-.62,1.4,1.4,0,0,0,.45-.35s.44-.44.12-1.57a5.25,5.25,0,0,0-3.39-3.63,6.45,6.45,0,0,0-3.54,0c-4.39,1.24-3.26,6.73-2.72,7.76a8.39,8.39,0,0,0,1.62,2.13c-.22-.82-1.13-2.5-.25-3a.92.92,0,0,1,1,.06A1.69,1.69,0,0,1,223.11,70.38Z"/><path class="cls-21" d="M225,77.29l-2.82,2.55a6.72,6.72,0,0,1-2.68-4.06c-.45-3.1,1.58-3.69,1.58-3.69a3.39,3.39,0,0,0,.48,3.67A3.75,3.75,0,0,0,225,77.29Z"/><path class="cls-3" d="M226.46,90.06c.12-1.91.25-3.62.39-5.31L225.26,79l-.62.38.14,7.42A18,18,0,0,1,226.46,90.06Z"/></g><g id="_7" data-name="7"><g id="Axonometric_Cylinder" data-name="Axonometric Cylinder"><path class="cls-3" d="M154.77,137.27v3.88c-.06,3.77,2.4,7.56,7.39,10.44,9.86,5.69,25.84,5.69,35.7,0,4.87-2.81,7.33-6.49,7.39-10.17v-3.88Z"/><path id="Cylinder_face-2" data-name="Cylinder face" class="cls-23" d="M197.86,147.71c4.31-2.49,6.73-5.66,7.27-8.91.7-4.18-1.73-8.5-7.27-11.7-9.86-5.69-25.84-5.69-35.7,0-6.06,3.5-8.4,8.34-7,12.87.87,2.84,3.21,5.55,7,7.74C172,153.4,188,153.4,197.86,147.71Z"/><path class="cls-4" d="M155.16,140c2.63,10.37,22.26,16.05,38.89,10.13,5.39-2.42,10.19-5.46,11.08-11.3C200.82,155.1,160.74,155.07,155.16,140Z"/></g><path class="cls-4" d="M202.66,135c.62,3.76-1.57,7.66-6.56,10.54-8.89,5.13-23.29,5.13-32.18,0-5.46-3.15-7.57-7.51-6.31-11.6.39-1.24,1.9-11.69,2.95-19.1a28.44,28.44,0,0,1,5.66-13.43l6-7.77a15.28,15.28,0,0,0,1-1.53,5.91,5.91,0,0,1,3.42-2.32,11.07,11.07,0,0,1,6.62,0A5.69,5.69,0,0,1,187,92.38a7.67,7.67,0,0,0,.84,1.51l6.47,8.58a28.39,28.39,0,0,1,5.42,12.93C200.8,122.8,202.41,133.49,202.66,135Z"/><path class="cls-4" d="M196.1,40.51c-8.89-5.13-23.29-5.13-32.18,0-5.46,3.15-7.57,7.52-6.31,11.6.39,1.25,1.9,11.7,2.95,19.11a28.45,28.45,0,0,0,5.66,13.42l6,7.77a15.28,15.28,0,0,1,1,1.53,5.91,5.91,0,0,0,3.42,2.32,11.07,11.07,0,0,0,6.62,0c2-.61,3.22-1.58,3.71-2.65a8,8,0,0,1,.84-1.51l6.47-8.58a28.39,28.39,0,0,0,5.42-12.93c1.11-7.39,2.72-18.08,3-19.58C203.28,47.29,201.09,43.4,196.1,40.51ZM183.18,93.18a1.7,1.7,0,0,1-.92,1.12,5,5,0,0,1-4.5,0,1.79,1.79,0,0,1-.88-1c-.18-.57.11-1.18.88-1.63a5,5,0,0,1,4.5,0A1.51,1.51,0,0,1,183.18,93.18Z"/><path class="cls-3" d="M163.88,78.82l0,.07a23,23,0,0,0,6.55,9.54c2.58,2.3,6,5.29,6.87,5.87,1.88,1.34,3.77,1.36,5.25.22,1-.75,5.13-4.62,7.79-7.21a23.65,23.65,0,0,0,5.71-8.43l0-.06Z"/><g id="Axonometric_Cylinder-2" data-name="Axonometric Cylinder"><path class="cls-3" d="M154.77,45v3.88c-.06,3.77,2.4,7.55,7.39,10.43C172,65,188,65,197.86,59.35c4.87-2.81,7.33-6.48,7.39-10.17V45.31Z"/><path id="Cylinder_face-3" data-name="Cylinder face" class="cls-24" d="M197.86,55.48c4.31-2.49,6.73-5.66,7.27-8.91.7-4.18-1.73-8.5-7.27-11.7-9.86-5.69-25.84-5.69-35.7,0-6.06,3.5-8.4,8.34-7,12.87.87,2.83,3.21,5.55,7,7.74C172,61.17,188,61.17,197.86,55.48Z"/><path class="cls-4" d="M155.16,47.74c2.63,10.36,22.26,16,38.89,10.13,5.39-2.43,10.19-5.47,11.08-11.3C200.82,62.87,160.74,62.83,155.16,47.74Z"/></g><path id="Cylinder_face-4" data-name="Cylinder face" class="cls-3" d="M194.67,145.87c3.54-2,5.54-4.65,6-7.32a7.3,7.3,0,0,0,.09-1.14,10.32,10.32,0,0,0-.89-3.67c-1.51-3.74-4.74-7.38-8.17-11.84-5-6.47-10.39-13.31-11.67-13.31-1.65,0-13.53,15.64-17.32,21.23-2.14,3.16-3.42,4-3.42,7.59a6.92,6.92,0,0,0,.33,2.1c.71,2.33,2.63,4.56,5.75,6.36C173.44,150.55,186.57,150.55,194.67,145.87Z"/><path id="Cylinder_face-5" data-name="Cylinder face" class="cls-25" d="M191.55,83.94c2.78-1.61,4.35-3.66,4.7-5.76.45-2.7-1.12-5.49-4.7-7.56-6.38-3.68-16.71-3.68-23.08,0C164.55,72.88,163,76,164,78.94a9.22,9.22,0,0,0,4.52,5C174.84,87.62,185.17,87.62,191.55,83.94Z"/><rect class="cls-3" x="178.5" y="92.43" width="3.01" height="19.55"/></g><g class="cls-1"><polygon class="cls-3" points="37.58 111.16 29.09 106.22 29.11 133.95 37.59 136.81 37.58 111.16"/><path class="cls-26" d="M129.59,43c-1.17-.68-2.78-.58-4.56.45L35.48,95.16a14.07,14.07,0,0,0-6.39,11.06l8.49,4.94A14.06,14.06,0,0,1,44,100.09l89.55-51.7c1.78-1,3.4-1.12,4.57-.45Z"/><path class="cls-4" d="M129.59,43c-1.17-.68-2.78-.58-4.56.45l8.48,4.93c1.78-1,3.4-1.13,4.57-.45Z"/><path class="cls-4" d="M35.48,95.16a14.07,14.07,0,0,0-6.39,11.06l8.49,4.94A14.06,14.06,0,0,1,44,100.09Z"/><path class="cls-27" d="M139.94,52.05c0-4.07-2.89-5.7-6.43-3.66L44,100.09a14.06,14.06,0,0,0-6.38,11.07l0,30.36L140,91.43Z"/></g><path class="cls-4" d="M44.77,99a14.68,14.68,0,0,0-6.43,7.43,14.27,14.27,0,0,0-.67,2.53,8.92,8.92,0,0,0-.11,1.63c0,.38,0,.58,0,.58A10.61,10.61,0,0,1,38,109a11.8,11.8,0,0,1,1.22-2.86,17.94,17.94,0,0,1,6.37-6.26c7.71-4.63,87.95-51.51,87.95-51.51S52.84,94.19,44.77,99Z"/><path class="cls-28" d="M59.16,85.27A21.68,21.68,0,0,1,28.5,115.93"/><polygon class="cls-3" points="136.83 58.42 133.84 60.14 133.84 52.98 136.83 51.25 136.83 58.42"/><path class="cls-29" d="M133.84,56.67v3.47l3-1.72S133.84,56.67,133.84,56.67Z"/><polygon class="cls-3" points="131.68 61.39 128.69 63.12 128.69 55.95 131.68 54.22 131.68 61.39"/><path class="cls-30" d="M128.69,59.64v3.48l3-1.73S128.69,59.64,128.69,59.64Z"/><polygon class="cls-3" points="126.53 64.36 123.54 66.09 123.54 58.92 126.53 57.2 126.53 64.36"/><path class="cls-31" d="M123.54,62.62v3.47l3-1.73S123.54,62.62,123.54,62.62Z"/><polygon class="cls-3" points="121.38 67.34 118.39 69.06 118.39 61.9 121.38 60.17 121.38 67.34"/><path class="cls-32" d="M118.39,65.59v3.47l3-1.72S118.39,65.59,118.39,65.59Z"/><polygon class="cls-3" points="116.23 70.31 113.24 72.04 113.24 64.87 116.23 63.14 116.23 70.31"/><path class="cls-33" d="M113.24,68.56V72l3-1.73S113.24,68.56,113.24,68.56Z"/><polygon class="cls-3" points="111.08 73.28 108.09 75.01 108.09 67.84 111.08 66.11 111.08 73.28"/><path class="cls-34" d="M108.09,71.54V75l3-1.73S108.09,71.54,108.09,71.54Z"/><polygon class="cls-3" points="105.93 76.25 102.94 77.98 102.94 70.81 105.93 69.09 105.93 76.25"/><path class="cls-35" d="M102.94,74.51V78l3-1.72S102.94,74.51,102.94,74.51Z"/><polygon class="cls-3" points="100.78 79.23 97.79 80.95 97.79 73.79 100.78 72.06 100.78 79.23"/><path class="cls-36" d="M97.79,77.48V81l3-1.72S97.79,77.48,97.79,77.48Z"/><polygon class="cls-3" points="95.63 82.2 92.64 83.93 92.64 76.76 95.63 75.03 95.63 82.2"/><path class="cls-37" d="M92.64,80.45v3.48l3-1.73S92.64,80.45,92.64,80.45Z"/><polygon class="cls-3" points="90.48 85.17 87.5 86.9 87.5 79.73 90.48 78.01 90.48 85.17"/><path class="cls-38" d="M87.5,83.43V86.9l3-1.73S87.5,83.43,87.5,83.43Z"/><polygon class="cls-3" points="85.34 88.15 82.35 89.87 82.35 82.71 85.34 80.98 85.34 88.15"/><path class="cls-39" d="M82.35,86.4v3.47l3-1.72S82.35,86.4,82.35,86.4Z"/><polygon class="cls-3" points="80.19 91.12 77.2 92.84 77.2 85.68 80.19 83.95 80.19 91.12"/><path class="cls-40" d="M77.2,89.37v3.48l3-1.73S77.2,89.37,77.2,89.37Z"/><polygon class="cls-3" points="75.04 94.09 72.05 95.82 72.05 88.65 75.04 86.92 75.04 94.09"/><path class="cls-41" d="M72.05,92.35v3.47l3-1.73S72.05,92.35,72.05,92.35Z"/><polygon class="cls-3" points="69.89 97.06 66.9 98.79 66.9 91.62 69.89 89.9 69.89 97.06"/><path class="cls-42" d="M66.9,95.32v3.47l3-1.73S66.9,95.32,66.9,95.32Z"/><polygon class="cls-3" points="64.74 100.04 61.75 101.76 61.75 94.6 64.74 92.87 64.74 100.04"/><path class="cls-43" d="M61.75,98.29v3.47l3-1.72S61.75,98.29,61.75,98.29Z"/><polygon class="cls-3" points="59.59 103.01 56.6 104.74 56.6 97.57 59.59 95.84 59.59 103.01"/><path class="cls-44" d="M56.6,101.26v3.48l3-1.73S56.6,101.26,56.6,101.26Z"/><polygon class="cls-3" points="54.44 105.98 51.45 107.71 51.45 100.54 54.44 98.82 54.44 105.98"/><path class="cls-45" d="M51.45,104.24v3.47l3-1.73S51.45,104.24,51.45,104.24Z"/><polygon class="cls-3" points="49.29 108.96 46.3 110.68 46.3 103.52 49.29 101.79 49.29 108.96"/><path class="cls-46" d="M46.3,107.21v3.47l3-1.72S46.3,107.21,46.3,107.21Z"/><polygon class="cls-3" points="44.14 111.93 41.15 113.66 41.15 106.49 44.14 104.76 44.14 111.93"/><path class="cls-47" d="M41.15,110.18v3.47l3-1.72S41.15,110.18,41.15,110.18Z"/><path class="cls-48" d="M37.67,223.88l3.31-89L29.09,128l.1,91c0,2,.71,3.44,1.86,4.1L39.54,228C38.39,227.31,37.68,225.89,37.67,223.88Z"/><path class="cls-21" d="M37.67,223.88c0,4.06,2.9,5.69,6.43,3.65l89.55-51.7A14.07,14.07,0,0,0,140,164.77L140,73.84,37.59,133Z"/><polygon class="cls-49" points="63.62 144.05 43.89 155.43 43.89 135.71 63.62 124.32 63.62 144.05"/><polygon class="cls-50" points="63.62 167.56 43.89 178.95 43.89 159.22 63.62 147.83 63.62 167.56"/><polygon class="cls-4" points="63.62 191.07 43.89 202.46 43.89 182.73 63.62 171.34 63.62 191.07"/><polygon class="cls-4" points="87.18 130.44 67.45 141.83 67.45 122.11 87.18 110.72 87.18 130.44"/><polygon class="cls-51" points="87.18 153.96 67.45 165.34 67.45 145.62 87.18 134.23 87.18 153.96"/><polygon class="cls-52" points="87.18 177.47 67.45 188.86 67.45 169.13 87.18 157.74 87.18 177.47"/><polygon class="cls-53" points="110.74 116.84 91.01 128.23 91.01 108.5 110.74 97.11 110.74 116.84"/><polygon class="cls-54" points="110.74 140.35 91.01 151.74 91.01 132.01 110.74 120.63 110.74 140.35"/><polygon class="cls-55" points="110.74 163.87 91.01 175.25 91.01 155.53 110.74 144.14 110.74 163.87"/><polygon class="cls-56" points="134.3 103.24 114.57 114.63 114.57 94.9 134.3 83.51 134.3 103.24"/><polygon class="cls-57" points="134.3 126.75 114.57 138.14 114.57 118.41 134.3 107.02 134.3 126.75"/><polygon class="cls-58" points="134.3 150.26 114.57 161.65 114.57 141.93 134.3 130.54 134.3 150.26"/><path class="cls-59" d="M173,101.8c-6.55-3.81-15.62-3.27-25.63,2.51-19.91,11.49-36,39.34-35.92,62.21,0,11.36,4,19.36,10.51,23.12l7.83,4.54,51-87.83Z"/><path class="cls-3" d="M155.23,108.86c8.71-5,16.7-6.09,23-3.78,8,3,13.16,11.52,13.2,24.39.07,22.86-16,50.71-35.91,62.2s-36.09,2.27-36.15-20.6S135.33,120.35,155.23,108.86Z"/><path class="cls-21" d="M155,113c7.84-4.53,15-5.48,20.67-3.4,7.23,2.68,11.86,10.38,11.89,22,.06,20.6-14.42,45.69-32.35,56s-32.51,2-32.57-18.56S137.11,123.32,155,113Z"/><path class="cls-4" d="M121.13,155.76c-.91,3.15-1.7,8-1.81,15.31a68.58,68.58,0,0,1,2.41-15.15c6-24,32.7-58,56.45-50.84C155.59,96.93,127.15,129,121.13,155.76Z"/><polygon class="cls-3" points="157.91 171.68 156.55 150.16 153.63 151.84 152.27 174.94 155.09 177.29 157.91 171.68"/><polygon class="cls-3" points="170.59 114.22 155.34 149.97 156.31 149.98 172.35 115.11 172.72 111.86 170.59 114.22"/><polygon class="cls-60" points="129.04 145.31 154.91 150.96 155.34 150.13 129.35 144.51 129.04 145.31"/><path class="cls-61" d="M155.13,146.42a2.54,2.54,0,0,1,2.13-.35,2.2,2.2,0,0,1,1.23,2.26,7.36,7.36,0,0,1-3.33,5.78c-1.85,1.07-3.36.21-3.36-1.91A7.33,7.33,0,0,1,155.13,146.42Z"/><path class="cls-4" d="M157.42,147.05c0,.86-4,3.85-4,2.29S157.33,145.31,157.42,147.05Z"/><path class="cls-62" d="M77.32,219.76v3.86a3.83,3.83,0,0,0,2.25,3.14l53.56,30.92a11.79,11.79,0,0,0,10.74,0l34.25-20a3.76,3.76,0,0,0,2.21-3.09v-3.86Z"/><path class="cls-3" d="M178.09,227.61c3,1.72,3,4.51,0,6.23l-34.25,20a11.85,11.85,0,0,1-10.74,0L79.57,222.9c-3-1.72-3-4.51,0-6.22l34.25-20a11.78,11.78,0,0,1,10.75,0Z"/><path class="cls-63" d="M132.75,213.53v.73a.71.71,0,0,0,.43.6l6,3.47a2.25,2.25,0,0,0,2.05,0l6.53-3.81a.71.71,0,0,0,.43-.59v-.74Z"/><path class="cls-4" d="M147.77,212.59a.63.63,0,0,1,0,1.19l-6.54,3.82a2.31,2.31,0,0,1-2.05,0l-6-3.48a.62.62,0,0,1,0-1.18l6.54-3.82a2.25,2.25,0,0,1,2,0Z"/><path class="cls-64" d="M122.44,219.48v.73a.71.71,0,0,0,.43.6l6,3.47a2.28,2.28,0,0,0,2.05,0l6.54-3.82a.72.72,0,0,0,.42-.59v-.74Z"/><path class="cls-4" d="M137.46,218.54a.63.63,0,0,1,0,1.19l-6.54,3.82a2.25,2.25,0,0,1-2.05,0l-6-3.47a.63.63,0,0,1,0-1.19l6.54-3.82a2.25,2.25,0,0,1,2,0Z"/><path class="cls-65" d="M112.13,225.43v.74a.71.71,0,0,0,.43.59l6,3.48a2.31,2.31,0,0,0,2.05,0l6.54-3.82a.71.71,0,0,0,.42-.59v-.74Z"/><path class="cls-4" d="M127.15,224.5a.62.62,0,0,1,0,1.18l-6.54,3.82a2.25,2.25,0,0,1-2.05,0l-6-3.47a.63.63,0,0,1,0-1.19l6.54-3.81a2.25,2.25,0,0,1,2,0Z"/><path class="cls-66" d="M101.82,231.38v.74a.74.74,0,0,0,.43.6l6,3.47a2.25,2.25,0,0,0,2,0l6.54-3.82a.71.71,0,0,0,.42-.59v-.73Z"/><path class="cls-4" d="M116.84,230.45c.57.33.58.86,0,1.19l-6.54,3.81a2.25,2.25,0,0,1-2,0l-6-3.47a.63.63,0,0,1,0-1.19l6.54-3.81a2.25,2.25,0,0,1,2,0Z"/><path class="cls-67" d="M142.33,219.06v.73a.73.73,0,0,0,.43.6l6,3.47a2.25,2.25,0,0,0,2,0l6.53-3.81a.72.72,0,0,0,.42-.59v-.74Z"/><path class="cls-4" d="M157.35,218.12a.63.63,0,0,1,0,1.19l-6.53,3.82a2.31,2.31,0,0,1-2,0l-6-3.48c-.57-.32-.58-.86,0-1.18l6.53-3.82a2.27,2.27,0,0,1,2.06,0Z"/><path class="cls-68" d="M132,225v.73a.71.71,0,0,0,.43.6l6,3.47a2.28,2.28,0,0,0,2,0L147,226a.73.73,0,0,0,.43-.59v-.74Z"/><path class="cls-4" d="M147,224.07a.63.63,0,0,1,0,1.19l-6.54,3.82a2.25,2.25,0,0,1-2,0l-6-3.47c-.57-.33-.58-.86,0-1.19L139,220.6a2.27,2.27,0,0,1,2.06,0Z"/><path class="cls-69" d="M121.71,231v.74a.71.71,0,0,0,.43.59l6,3.48a2.31,2.31,0,0,0,2,0l6.54-3.82a.71.71,0,0,0,.42-.59v-.74Z"/><path class="cls-4" d="M136.73,230a.62.62,0,0,1,0,1.18L130.2,235a2.25,2.25,0,0,1-2,0l-6-3.47a.63.63,0,0,1,0-1.19l6.54-3.82a2.31,2.31,0,0,1,2.05,0Z"/><path class="cls-70" d="M111.4,236.91v.74a.74.74,0,0,0,.43.6l6,3.47a2.25,2.25,0,0,0,2,0l6.54-3.82a.71.71,0,0,0,.42-.59v-.73Z"/><path class="cls-4" d="M126.42,236a.63.63,0,0,1,0,1.19L119.89,241a2.25,2.25,0,0,1-2,0l-6-3.47a.63.63,0,0,1,0-1.19l6.54-3.81a2.25,2.25,0,0,1,2,0Z"/><path class="cls-71" d="M151.9,224.59v.73a.71.71,0,0,0,.43.6l6,3.47a2.25,2.25,0,0,0,2,0l6.54-3.81a.72.72,0,0,0,.42-.59v-.74Z"/><path class="cls-4" d="M166.93,223.65a.63.63,0,0,1,0,1.19l-6.53,3.82a2.31,2.31,0,0,1-2.05,0l-6-3.48a.62.62,0,0,1,0-1.18l6.54-3.82a2.25,2.25,0,0,1,2,0Z"/><path class="cls-72" d="M141.6,230.54v.73a.73.73,0,0,0,.43.6l6,3.47a2.28,2.28,0,0,0,2.05,0l6.54-3.82a.72.72,0,0,0,.42-.59v-.74Z"/><path class="cls-4" d="M156.62,229.6a.63.63,0,0,1,0,1.19l-6.53,3.82a2.25,2.25,0,0,1-2.05,0l-6-3.47c-.57-.33-.58-.86,0-1.19l6.53-3.82a2.27,2.27,0,0,1,2.06,0Z"/><path class="cls-73" d="M131.29,236.49v.74a.7.7,0,0,0,.42.59l6,3.48a2.31,2.31,0,0,0,2.05,0l6.53-3.82a.75.75,0,0,0,.43-.59v-.74Z"/><path class="cls-4" d="M146.31,235.56a.62.62,0,0,1,0,1.18l-6.54,3.82a2.25,2.25,0,0,1-2.05,0l-6-3.47c-.57-.33-.58-.86,0-1.19l6.53-3.82a2.33,2.33,0,0,1,2.06,0Z"/><path class="cls-74" d="M121,242.44v.74a.74.74,0,0,0,.43.6l6,3.47a2.25,2.25,0,0,0,2,0l6.53-3.82a.7.7,0,0,0,.43-.59v-.73Z"/><path class="cls-4" d="M136,241.51a.63.63,0,0,1,0,1.19l-6.54,3.81a2.25,2.25,0,0,1-2,0l-6-3.47a.63.63,0,0,1,0-1.19l6.54-3.81a2.25,2.25,0,0,1,2.05,0Z"/><path class="cls-75" d="M161.48,230.11v.74a.71.71,0,0,0,.43.6l6,3.47a2.25,2.25,0,0,0,2.05,0l6.54-3.81a.72.72,0,0,0,.42-.59v-.74Z"/><path class="cls-4" d="M176.5,229.18c.57.33.58.86,0,1.19L170,234.19a2.31,2.31,0,0,1-2.05,0l-6-3.48a.62.62,0,0,1,0-1.18l6.54-3.82a2.25,2.25,0,0,1,2.05,0Z"/><path class="cls-76" d="M151.17,236.07v.73a.71.71,0,0,0,.43.6l6,3.47a2.28,2.28,0,0,0,2,0l6.54-3.82a.72.72,0,0,0,.42-.59v-.74Z"/><path class="cls-4" d="M166.2,235.13a.63.63,0,0,1,0,1.19l-6.54,3.82a2.25,2.25,0,0,1-2,0l-6-3.47a.63.63,0,0,1,0-1.19l6.54-3.82a2.25,2.25,0,0,1,2.05,0Z"/><path class="cls-77" d="M140.87,242v.74a.73.73,0,0,0,.43.59l6,3.48a2.31,2.31,0,0,0,2,0l6.54-3.82a.72.72,0,0,0,.42-.59v-.74Z"/><path class="cls-4" d="M155.89,241.09a.62.62,0,0,1,0,1.18l-6.53,3.82a2.25,2.25,0,0,1-2.05,0l-6-3.47a.63.63,0,0,1,0-1.19l6.53-3.82a2.31,2.31,0,0,1,2.05,0Z"/><path class="cls-78" d="M130.56,248v.74a.76.76,0,0,0,.43.6l6,3.47a2.25,2.25,0,0,0,2.05,0l6.53-3.82a.71.71,0,0,0,.42-.59v-.73Z"/><path class="cls-4" d="M145.58,247a.63.63,0,0,1,0,1.19L139.05,252a2.25,2.25,0,0,1-2.05,0l-6-3.47c-.57-.33-.58-.86,0-1.19l6.53-3.81a2.27,2.27,0,0,1,2.06,0Z"/><path class="cls-4" d="M133.74,206l-12.85-7.42a2.33,2.33,0,0,0-2.06,0L83,219.34a.62.62,0,0,0,0,1.18l12.85,7.42a2.28,2.28,0,0,0,2,0l35.8-20.72A.63.63,0,0,0,133.74,206Z"/><path class="cls-3" d="M83,220.52l.3.18,35.49-20.53a2.27,2.27,0,0,1,2.06,0l12.55,7.24.3-.18a.63.63,0,0,0,0-1.19l-12.85-7.42a2.33,2.33,0,0,0-2.06,0L83,219.34A.62.62,0,0,0,83,220.52Z"/><path class="cls-4" d="M255.22,168.54a.43.43,0,0,0-.38-.15l-3,.34a.43.43,0,0,0-.36.33.44.44,0,0,0,0,.3.43.43,0,0,0,.15.15l.61.35-80.58,46.52.18.86,81.23-46.9,1,.55a.45.45,0,0,0,.36,0,.43.43,0,0,0,.25-.26l.59-1.72A.43.43,0,0,0,255.22,168.54Z"/><path class="cls-4" d="M190.35,227.21,172.2,216.73V141.48a.42.42,0,0,0-.42-.42.41.41,0,0,0-.41.42V217a.45.45,0,0,0,.2.37l18.36,10.59a.42.42,0,0,0,.21.06.43.43,0,0,0,.36-.21A.41.41,0,0,0,190.35,227.21Z"/><path class="cls-4" d="M173.26,141l-1.2-1.38a.41.41,0,0,0-.69.1l-1.2,2.77a.4.4,0,0,0,.11.47.39.39,0,0,0,.27.11.39.39,0,0,0,.21-.06l2.39-1.38a.42.42,0,0,0,.21-.29A.42.42,0,0,0,173.26,141Z"/><path class="cls-4" d="M191.93,228.36l-.34-1.8a.43.43,0,0,0-.26-.31.41.41,0,0,0-.4.06l-2.42,1.79a.44.44,0,0,0-.15.47.43.43,0,0,0,.19.23.46.46,0,0,0,.21,0h2.76a.39.39,0,0,0,.32-.15A.41.41,0,0,0,191.93,228.36Z"/><g id="Axonometric_Cube-5" data-name="Axonometric Cube"><polygon id="Cube_face_-_top-5" data-name="Cube face - top" class="cls-4" points="250.72 134.32 264.5 126.36 250.72 118.4 236.94 126.36 250.72 134.32"/><polygon id="Cube_face_-_left-5" data-name="Cube face - left" class="cls-79" points="250.72 190.64 264.5 182.69 264.5 126.36 250.72 134.32 250.72 190.64"/><polygon id="Cube_face_-_right-5" data-name="Cube face - right" class="cls-3" points="236.94 182.69 250.72 190.64 250.72 134.32 236.94 126.36 236.94 182.69"/></g><g id="Axonometric_Cube-6" data-name="Axonometric Cube"><polygon id="Cube_face_-_top-6" data-name="Cube face - top" class="cls-4" points="231.08 165.5 244.86 157.54 231.08 149.59 217.3 157.54 231.08 165.5"/><polygon id="Cube_face_-_left-6" data-name="Cube face - left" class="cls-80" points="231.08 201.98 244.86 194.03 244.86 157.54 231.08 165.5 231.08 201.98"/><polygon id="Cube_face_-_right-6" data-name="Cube face - right" class="cls-3" points="217.3 194.03 231.08 201.98 231.08 165.5 217.3 157.54 217.3 194.03"/></g><g id="Axonometric_Cube-7" data-name="Axonometric Cube"><polygon id="Cube_face_-_top-7" data-name="Cube face - top" class="cls-4" points="211.44 187.72 225.22 179.76 211.44 171.81 197.66 179.76 211.44 187.72"/><polygon id="Cube_face_-_left-7" data-name="Cube face - left" class="cls-81" points="211.44 213.32 225.22 205.37 225.22 179.76 211.44 187.72 211.44 213.32"/><polygon id="Cube_face_-_right-7" data-name="Cube face - right" class="cls-3" points="197.66 205.37 211.44 213.32 211.44 187.72 197.66 179.76 197.66 205.37"/></g><g id="Axonometric_Cube-8" data-name="Axonometric Cube"><polygon id="Cube_face_-_top-8" data-name="Cube face - top" class="cls-4" points="191.8 210.4 205.58 202.44 191.8 194.49 178.02 202.44 191.8 210.4"/><polygon id="Cube_face_-_left-8" data-name="Cube face - left" class="cls-82" points="191.8 224.66 205.58 216.71 205.58 202.44 191.8 210.4 191.8 224.66"/><polygon id="Cube_face_-_right-8" data-name="Cube face - right" class="cls-3" points="178.02 216.71 191.8 224.66 191.8 210.4 178.02 202.44 178.02 216.71"/></g><g id="Axonometric_Cube-9" data-name="Axonometric Cube"><polygon id="Cube_face_-_top-9" data-name="Cube face - top" class="cls-4" points="275.17 190.49 288.95 182.53 275.17 174.58 261.39 182.53 275.17 190.49"/><polygon id="Cube_face_-_left-9" data-name="Cube face - left" class="cls-83" points="275.17 204.75 288.95 196.8 288.95 182.53 275.17 190.49 275.17 204.75"/><polygon id="Cube_face_-_right-9" data-name="Cube face - right" class="cls-84" points="261.39 196.8 275.17 204.75 275.17 190.49 261.39 182.53 261.39 196.8"/></g><g class="cls-85"><path class="cls-86" d="M40.09,65.76l-7.65-6.11a25.64,25.64,0,0,1,7.65-6.9Z"/><path class="cls-4" d="M40.09,65.76,27.71,76.93c-1.78-4.44.08-11.21,4.73-17.28Z"/><path class="cls-3" d="M40.09,65.76v13c-5.75,3.32-10.6,2.6-12.38-1.85Z"/><path class="cls-4" d="M40.09,65.76l10.53,1.57A27.65,27.65,0,0,1,40.09,78.78Z"/><path class="cls-87" d="M40.09,65.76,52.47,54.59c1.33,3.34.68,7.79-1.85,12.74Z"/><path class="cls-3" d="M40.09,65.76v-13c5.75-3.32,10.6-2.6,12.38,1.84Z"/><path class="cls-88" d="M72.58,47,67,62c-2.6.27-4.48-.43-5.86-2.17Z"/><path class="cls-4" d="M72.58,47l6.25,7.88C75,59.14,70.87,61.64,67,62Z"/><path class="cls-3" d="M72.58,47,61.09,59.87C57.63,55.52,60,46.22,66.32,39.1s14.29-9.36,17.75-5c1.38,1.74,1.85,4,1.48,7.09Z"/><path class="cls-3" d="M72.58,47l13-5.79a25.69,25.69,0,0,1-6.72,13.67Z"/></g><path class="cls-89" d="M99.32,26.25,94.53,29V28l4.79-2.77Zm4.49-3.62-3.11,1.8v1l3.11-1.8Zm1.39.23,6.45-3.73v-1l-6.45,3.73ZM120.42,13,113,17.3v1l7.38-4.26ZM129.18,8l-7.38,4.26v1L129.18,9Zm4.46-2.57-3.07,1.77v1l3.07-1.77Zm1.39-.8v1l1.66-1v-1ZM102,26.49l-7.44,4.29v1L102,27.52Zm4.5-2.6-3.12,1.8v1l3.12-1.8Zm1.38.23,3.8-2.19v-1l-3.8,2.19Zm9.42-6.46L113,20.1v1l4.23-2.44Zm8.18-4.73-6.8,3.93v1l6.8-3.93Zm1.39.23,4.57-2.64v-1l-4.57,2.64Zm6-3.44,3.89-2.25v-1L132.8,8.69ZM99.32,30.82l-4.79,2.76v1l4.79-2.77Zm1.38.23,3.11-1.8v-1L100.7,30Zm4.5-2.6,6.45-3.73v-1l-6.45,3.73Zm15.22-9.82L113,22.89v1l7.38-4.26Zm8.76-5.06-7.38,4.26v1l7.38-4.26ZM133.64,11l-3.07,1.77v1L133.64,12Zm1.39.23,1.66-1v-1l-1.66,1ZM102,32.08l-7.44,4.29v1L102,33.11Zm4.5-2.6-3.12,1.8v1l3.12-1.8Zm1.38.23,3.8-2.19v-1l-3.8,2.19Zm9.42-6.46L113,25.69v1l4.23-2.44Zm1.38.23,6.8-3.93v-1l-6.8,3.93Zm8.19-4.73,4.57-2.64v-1l-4.57,2.64Zm6-3.44,3.89-2.25V12l-3.89,2.24ZM99.32,36.41l-4.79,2.76v1l4.79-2.76Zm1.38.23,3.11-1.8v-1l-3.11,1.8Zm4.5-2.6,6.45-3.73v-1L105.2,33Zm15.22-9.82L113,28.48v1l7.38-4.26Zm8.76-5.06-7.38,4.26v1l7.38-4.26Zm1.39.23,3.07-1.77v-1l-3.07,1.77ZM135,16.82l1.66-1v-1l-1.66,1ZM94.53,43,102,38.7v-1L94.53,42Zm8.82-5.09,3.12-1.8v-1l-3.12,1.8Zm4.5-2.6,3.8-2.19v-1l-3.8,2.19Zm5.19-3,4.23-2.44v-1L113,31.28Zm5.61-3.24,6.8-3.93v-1L118.65,28Z"/><path class="cls-4" d="M272.53,155.85c.34,1.26,1.75,7.41.78,9.93-.51,1.33-5.78,7.84-6.87,8.93-.65.64-3.36-.63-2.88-1.64l5.28-8.56s-1.2-5.63-.91-8.47c.1-1,1.07-2.6,2.44-2.49C271.44,153.63,272.3,155,272.53,155.85Z"/><path class="cls-3" d="M269.64,208.64c-1.08.72-3.5.75-4-.67-.21-.66,1.2-4.73,1.41-5.92.05-.35.16-1,.16-1a2.41,2.41,0,0,1,.61-.19,7.33,7.33,0,0,1,2.26.25c.33,0,.3,2.23.3,2.45C270.39,204.94,270.48,208.09,269.64,208.64Z"/><path class="cls-21" d="M269.76,207.93c-1.09.72-3.51.75-4-.67-.21-.66,1.1-4.73,1.31-5.93.06-.34.16-.94.16-.94s.57-.14.71-.19a7.37,7.37,0,0,1,2.26.25c.32,0,.3,2.23.29,2.45C270.51,204.23,270.6,207.38,269.76,207.93Z"/><path class="cls-21" d="M260.94,198.25a3.32,3.32,0,0,0-.35-.92l3.62-1.23c.28,1,1.15,1.38,1.4,2.24s-.53,1.46-4.37,4.28c-2,1.45-2.81,1.71-3.6,1.52a1.17,1.17,0,0,1-1-1.21C256.64,201.47,260.77,199,260.94,198.25Z"/><path class="cls-3" d="M256.67,203a1.25,1.25,0,0,0,.8.52c.79.19,1.63-.07,3.6-1.51,3.42-2.52,4.38-3.18,4.4-4a4.66,4.66,0,0,1,.25.5c.13.45-.08.73-.86,1.43s-1.87,1.42-3.64,2.72c-2,1.45-2.79,1.67-3.58,1.48A1.16,1.16,0,0,1,256.67,203Z"/><path class="cls-3" d="M269,175.5l1.25-2.09,11.41,2.37c.11,5.22-.2,6.46-1,7.91-.95,1.76-8.08,8.1-8.08,8.78-.12,2.56-1.17,4.8-1.69,8.71-.51,1.7-3.9.86-3.9-.32,0-4.1.31-10.37.45-11.05s3.26-6.52,3.26-6.52a74.16,74.16,0,0,1-8.94,5c1.37,1.81,1.47,4.41,2.77,8.34.31,1.11-3.31,2.76-3.79,1.64s-3.1-6.9-4.74-11.6a2.38,2.38,0,0,1,1.11-2.73C259.27,182.11,265.92,177.65,269,175.5Z"/><path class="cls-4" d="M282.62,158.75c2.16,1.8-1.57,9.53-1.57,12.35s.69,5,.59,6c-.25,2.6-12.37,1.17-12-2.83a52.57,52.57,0,0,0-.46-11.93c-.75-2.89-.89-8.67,1.15-8.62C271.66,153.79,279.57,156.2,282.62,158.75Z"/><path class="cls-90" d="M276.68,158.5a3.61,3.61,0,0,1-2.05,1.17l-1.16,1.86-.45-2.37c-.84,0-1-3.53-1.1-5.1a2.35,2.35,0,0,1,.14-1.05,2.25,2.25,0,0,1,.91-.95,3.64,3.64,0,0,1,1.77-.65,1,1,0,0,1,.79.24,1.2,1.2,0,0,1,.25.55,25.06,25.06,0,0,0,1.35,3.56A2.59,2.59,0,0,1,276.68,158.5Z"/><path class="cls-21" d="M274.63,159.67l2.15,1.37s2.28-4,.35-5.28C277.47,157.11,275.77,159.4,274.63,159.67Z"/><path class="cls-21" d="M273,159.16l-1.78.1s.44-1.11,1-2.49C272.15,158.6,273,159.16,273,159.16Z"/><path class="cls-11" d="M269.58,152.45c-.06-.61-.19-1.54.3-1.92.75-.59,2.65-1.41,6,.06a3.82,3.82,0,0,1,1.15,1,1.5,1.5,0,0,1,.41,1.29c0,1,.17,1.46-1.16,3.26a14.56,14.56,0,0,1-3.16,3,2,2,0,0,1-1.49.31c-.48-.09-1-.51-1.21-1.61C270.23,157.08,269.82,154.69,269.58,152.45Z"/><path class="cls-6" d="M275.36,154.29c-.14.32-.48.48-.54.23-.21-.87-.23-1.65-2.16-1.84-1.07-.1-2.68-.34-3.14-1.06a3.22,3.22,0,0,1-.29-2.51c.2-1.28,1.95-3.07,4.66-2.71a2.92,2.92,0,0,1,1.93.91,1.36,1.36,0,0,1,1.4.37c1.49,1.22,1.16,5.16.67,6.2a7.49,7.49,0,0,1-1.33,1.9c.16-.72.89-2.2.11-2.62a.77.77,0,0,0-.89.09C275.58,153.42,275.46,154.05,275.36,154.29Z"/><polygon class="cls-91" points="266.43 188.25 254.46 181.29 254.46 181.51 266.43 188.46 266.43 188.25"/><polygon class="cls-4" points="274.82 183.17 262.86 176.21 254.47 181.05 266.44 188 274.82 183.17"/><path class="cls-92" d="M263.43,180.39l3.84,2.22a.34.34,0,0,0,.31,0l2.55-1.47c.09,0,.09-.13,0-.18l-3.84-2.22a.34.34,0,0,0-.31,0l-2.55,1.47A.1.1,0,0,0,263.43,180.39Z"/><path class="cls-91" d="M270.13,181l-3.84-2.21a.34.34,0,0,0-.31,0l-2.55,1.47a.17.17,0,0,0-.06.06.1.1,0,0,1,.06-.11l2.55-1.47a.34.34,0,0,1,.31,0l3.84,2.22a.1.1,0,0,1,.06.11A.19.19,0,0,0,270.13,181Z"/><path class="cls-93" d="M269.29,184.93l.44-.25a.19.19,0,0,1,.18,0l.52.3c.05,0,.05.08,0,.1l-.44.26a.28.28,0,0,1-.18,0l-.52-.3A.06.06,0,0,1,269.29,184.93Zm-.83-.38.52.3a.19.19,0,0,0,.18,0l.43-.25c.05,0,.05-.07,0-.1l-.52-.3a.19.19,0,0,0-.18,0l-.43.25S268.41,184.53,268.46,184.55Zm-.84-.48.52.3a.19.19,0,0,0,.18,0l.44-.25a.06.06,0,0,0,0-.11l-.52-.29a.19.19,0,0,0-.18,0l-.44.25C267.57,184,267.57,184,267.62,184.07Zm-.83-.48.51.3a.21.21,0,0,0,.19,0l.43-.25a.06.06,0,0,0,0-.11l-.52-.3a.19.19,0,0,0-.18,0l-.43.25A.06.06,0,0,0,266.79,183.59Zm-.84-.48.52.3a.28.28,0,0,0,.18,0l.44-.26c.05,0,.05-.07,0-.1l-.52-.3a.19.19,0,0,0-.18,0L266,183A.06.06,0,0,0,266,183.11Zm-.84-.49.52.3a.19.19,0,0,0,.18,0l.44-.25c.05,0,.05-.07,0-.1l-.52-.3a.19.19,0,0,0-.18,0l-.44.25C265.06,182.55,265.06,182.6,265.11,182.62Zm-.83-.48.52.3a.19.19,0,0,0,.18,0l.43-.25a.06.06,0,0,0,0-.11l-.51-.29a.21.21,0,0,0-.19,0l-.43.25S264.23,182.11,264.28,182.14Zm-.84-.48.52.3a.19.19,0,0,0,.18,0l.44-.25a.06.06,0,0,0,0-.11l-.52-.3a.19.19,0,0,0-.18,0l-.44.25A.06.06,0,0,0,263.44,181.66Zm-.83-.48.52.3a.28.28,0,0,0,.18,0l.43-.26c.05,0,.05-.07,0-.1l-.52-.3a.19.19,0,0,0-.18,0l-.43.25A.06.06,0,0,0,262.61,181.18Zm-1.11-.64.79.45a.19.19,0,0,0,.18,0l.44-.25s0-.07,0-.1l-.79-.46a.19.19,0,0,0-.18,0l-.44.25A.06.06,0,0,0,261.5,180.54Zm-3.14.83.52.3a.19.19,0,0,0,.18,0l.44-.25c.05,0,.05-.08,0-.1L259,181a.19.19,0,0,0-.18,0l-.44.25C258.31,181.3,258.31,181.34,258.36,181.37Zm-.83-.48.52.3a.19.19,0,0,0,.18,0l.43-.25a.06.06,0,0,0,0-.11l-.51-.3a.21.21,0,0,0-.19,0l-.43.26S257.48,180.86,257.53,180.89Zm-.84-.48.52.3a.19.19,0,0,0,.18,0l.44-.25a.06.06,0,0,0,0-.11l-.52-.3a.19.19,0,0,0-.18,0l-.44.25A.06.06,0,0,0,256.69,180.41Zm.91,1.4.52.3a.19.19,0,0,0,.18,0l.43-.25s0-.07,0-.1l-.51-.3a.21.21,0,0,0-.19,0l-.43.25C257.55,181.74,257.55,181.78,257.6,181.81Zm-.84-.48.52.3a.19.19,0,0,0,.18,0l.44-.25a.06.06,0,0,0,0-.11l-.52-.3a.28.28,0,0,0-.18,0l-.44.26C256.71,181.26,256.71,181.3,256.76,181.33Zm-.83-.48.52.3a.19.19,0,0,0,.18,0l.43-.25a.06.06,0,0,0,0-.11l-.51-.3a.21.21,0,0,0-.19,0l-.43.25A.06.06,0,0,0,255.93,180.85Zm12.32,4.47.78.45a.19.19,0,0,0,.18,0l.44-.25c.05,0,.05-.08,0-.1l-.79-.46a.19.19,0,0,0-.18,0l-.43.25A.06.06,0,0,0,268.25,185.32Zm-.84-.48.52.29a.19.19,0,0,0,.18,0l.43-.25c.06,0,.06-.07,0-.1l-.51-.3a.19.19,0,0,0-.18,0l-.44.25A.06.06,0,0,0,267.41,184.84Zm-.84-.49.52.3a.19.19,0,0,0,.18,0l.44-.25a.06.06,0,0,0,0-.11l-.52-.29a.19.19,0,0,0-.18,0l-.44.25C266.52,184.28,266.52,184.32,266.57,184.35Zm-.83-.48.52.3a.19.19,0,0,0,.18,0l.43-.25a.06.06,0,0,0,0-.11l-.51-.3a.21.21,0,0,0-.19,0l-.43.25A.06.06,0,0,0,265.74,183.87Zm-.84-.48.52.3a.19.19,0,0,0,.18,0l.44-.26s0-.07,0-.1l-.52-.3a.19.19,0,0,0-.18,0l-.44.25A.06.06,0,0,0,264.9,183.39Zm-.83-.48.51.29a.21.21,0,0,0,.19,0l.43-.25c.05,0,.05-.07,0-.1l-.52-.3a.19.19,0,0,0-.18,0l-.43.25A.06.06,0,0,0,264.07,182.91Zm-.84-.49.52.3a.19.19,0,0,0,.18,0l.44-.25a.06.06,0,0,0,0-.11l-.52-.29a.19.19,0,0,0-.18,0l-.44.25C263.18,182.35,263.18,182.39,263.23,182.42Zm-.83-.48.51.3a.21.21,0,0,0,.19,0l.43-.25a.06.06,0,0,0,0-.11l-.52-.3a.19.19,0,0,0-.18,0l-.43.25A.06.06,0,0,0,262.4,181.94Zm-.84-.48.52.3a.19.19,0,0,0,.18,0l.43-.26c.06,0,.06-.07,0-.1l-.51-.3a.19.19,0,0,0-.18,0l-.44.25A.06.06,0,0,0,261.56,181.46Zm-.84-.49.52.3a.19.19,0,0,0,.18,0l.44-.25c.05,0,.05-.07,0-.1l-.52-.3a.19.19,0,0,0-.18,0l-.44.25C260.67,180.9,260.67,181,260.72,181Zm7,4.94.52.3a.19.19,0,0,0,.18,0l.44-.25s0-.08,0-.1l-.52-.3a.19.19,0,0,0-.18,0l-.44.25S267.72,185.88,267.77,185.91Zm-.83-.48.52.3a.19.19,0,0,0,.18,0l.43-.25a.06.06,0,0,0,0-.11l-.51-.3a.31.31,0,0,0-.19,0l-.43.26C266.89,185.35,266.89,185.4,266.94,185.43Zm-.84-.48.52.3a.19.19,0,0,0,.18,0l.44-.25a.06.06,0,0,0,0-.11l-.52-.3a.19.19,0,0,0-.18,0l-.44.25A.06.06,0,0,0,266.1,185Zm-.83-.48.52.29a.19.19,0,0,0,.18,0l.43-.25c.05,0,.05-.07,0-.1l-.52-.3a.19.19,0,0,0-.18,0l-.43.25A.06.06,0,0,0,265.27,184.47Zm1,2.32.52.3a.19.19,0,0,0,.18,0l.43-.25a.06.06,0,0,0,0-.11l-.51-.3a.21.21,0,0,0-.19,0l-.43.25A.06.06,0,0,0,266.26,186.79Zm-.84-.48.52.29a.19.19,0,0,0,.18,0l.44-.25c.05,0,.05-.07,0-.1L266,186a.19.19,0,0,0-.18,0l-.44.25A.06.06,0,0,0,265.42,186.31Zm-.83-.49.52.3a.19.19,0,0,0,.18,0l.43-.25s0-.08,0-.1l-.51-.3a.21.21,0,0,0-.19,0l-.43.25S264.54,185.79,264.59,185.82Zm-.84-.48.52.3a.19.19,0,0,0,.18,0l.44-.25a.06.06,0,0,0,0-.11l-.52-.3a.28.28,0,0,0-.18,0l-.44.26C263.7,185.26,263.7,185.31,263.75,185.34Zm-5.28-3.05.79.46a.19.19,0,0,0,.18,0l.44-.25a.06.06,0,0,0,0-.11l-.79-.45a.19.19,0,0,0-.18,0l-.44.25C258.42,182.22,258.42,182.26,258.47,182.29Zm6,1.69.52.3a.19.19,0,0,0,.18,0l.44-.25c.05,0,.05-.08,0-.1l-.52-.3a.19.19,0,0,0-.18,0l-.44.25C264.38,183.91,264.38,184,264.43,184Zm-.83-.48.51.3a.21.21,0,0,0,.19,0l.43-.25a.06.06,0,0,0,0-.11l-.52-.3a.28.28,0,0,0-.18,0l-.43.26C263.55,183.42,263.55,183.47,263.6,183.5Zm-.84-.48.52.3a.19.19,0,0,0,.18,0l.44-.25a.06.06,0,0,0,0-.11l-.52-.3a.19.19,0,0,0-.18,0l-.44.25A.06.06,0,0,0,262.76,183Zm-.84-.48.52.29a.19.19,0,0,0,.18,0l.44-.25c.05,0,.05-.07,0-.1l-.52-.3a.19.19,0,0,0-.18,0l-.44.25A.06.06,0,0,0,261.92,182.54Zm-.83-.49.52.3a.19.19,0,0,0,.18,0l.43-.25s0-.08,0-.1l-.51-.3a.21.21,0,0,0-.19,0l-.43.25S261,182,261.09,182.05Zm-1.11-.63.79.45a.19.19,0,0,0,.18,0l.44-.25a.06.06,0,0,0,0-.11l-.79-.45a.19.19,0,0,0-.18,0l-.44.25A.06.06,0,0,0,260,181.42Zm6.75,4.77.78.46a.21.21,0,0,0,.19,0l.43-.25a.06.06,0,0,0,0-.11l-.79-.45a.19.19,0,0,0-.18,0l-.43.25C266.68,186.12,266.68,186.17,266.73,186.19Zm-.84-.48.52.3a.19.19,0,0,0,.18,0l.44-.25a.06.06,0,0,0,0-.11l-.52-.29a.19.19,0,0,0-.18,0l-.44.25C265.84,185.64,265.84,185.68,265.89,185.71Zm-.83-.48.51.3a.21.21,0,0,0,.19,0l.43-.25a.06.06,0,0,0,0-.11l-.52-.3a.19.19,0,0,0-.18,0l-.43.25A.06.06,0,0,0,265.06,185.23Zm-.84-.48.52.3a.28.28,0,0,0,.18,0l.43-.26c.06,0,.06-.07,0-.1l-.51-.3a.21.21,0,0,0-.19,0l-.43.25A.06.06,0,0,0,264.22,184.75Zm-.84-.49.52.3a.19.19,0,0,0,.18,0l.44-.25c.05,0,.05-.07,0-.1l-.52-.3a.19.19,0,0,0-.18,0l-.44.25C263.33,184.19,263.33,184.24,263.38,184.26Zm-3.82-1.33,3.87,2.23a.19.19,0,0,0,.18,0l.44-.25c.05,0,.05-.07,0-.1l-3.87-2.24a.21.21,0,0,0-.19,0l-.43.25A.06.06,0,0,0,259.56,182.93Zm3,.85.52.3a.19.19,0,0,0,.18,0l.43-.25a.06.06,0,0,0,0-.11l-.51-.29a.21.21,0,0,0-.19,0l-.43.25C262.5,183.71,262.5,183.75,262.55,183.78Zm-.84-.48.52.3a.19.19,0,0,0,.18,0l.44-.25a.06.06,0,0,0,0-.11l-.52-.3a.19.19,0,0,0-.18,0l-.44.25A.06.06,0,0,0,261.71,183.3Zm-.83-.48.51.3a.31.31,0,0,0,.19,0l.43-.26c.05,0,.05-.07,0-.1l-.52-.3a.19.19,0,0,0-.18,0l-.43.25A.06.06,0,0,0,260.88,182.82Zm-.84-.49.52.3a.19.19,0,0,0,.18,0l.44-.25c.05,0,.05-.07,0-.1l-.52-.3a.19.19,0,0,0-.18,0l-.44.25C260,182.26,260,182.31,260,182.33Zm-.83-.48.51.3a.21.21,0,0,0,.19,0l.43-.25a.06.06,0,0,0,0-.11l-.52-.29a.19.19,0,0,0-.18,0l-.43.25S259.16,181.82,259.21,181.85Zm1.44-1.8.52.3a.19.19,0,0,0,.18,0l.44-.25a.06.06,0,0,0,0-.11l-.52-.29a.19.19,0,0,0-.18,0l-.44.25S260.6,180,260.65,180.05Zm-.83-.48.51.3a.21.21,0,0,0,.19,0l.43-.25a.06.06,0,0,0,0-.11l-.52-.3a.19.19,0,0,0-.18,0l-.43.25C259.76,179.49,259.76,179.54,259.82,179.57Zm-.84-.48.52.3a.28.28,0,0,0,.18,0l.43-.26c.05,0,.05-.07,0-.1l-.51-.3a.21.21,0,0,0-.19,0L259,179A.06.06,0,0,0,259,179.09Zm-.76.44.52.3a.28.28,0,0,0,.18,0l.43-.26s0-.07,0-.1l-.52-.3a.19.19,0,0,0-.18,0l-.43.25A.06.06,0,0,0,258.22,179.53Zm-.74.43,2.17,1.25a.24.24,0,0,0,.23,0l1.14-.66c.06,0,.06-.09,0-.13l-1.31-.75a.24.24,0,0,0-.23,0l-.57.33a.15.15,0,0,1-.13,0l-.73-.42a.19.19,0,0,0-.15,0l-.42.25C257.41,179.86,257.41,179.92,257.48,180Z"/><polygon class="cls-4" points="262.71 181.66 250.75 174.71 254.36 181.35 266.33 188.31 262.71 181.66"/><polygon class="cls-94" points="262.88 181.47 250.92 174.51 250.75 174.71 262.71 181.66 262.88 181.47"/><polygon class="cls-95" points="262.88 181.47 262.71 181.66 266.33 188.31 266.43 188.25 266.43 188.46 274.82 183.61 274.82 183.17 266.44 188 262.88 181.47"/><polygon class="cls-96" points="272.53 184.83 273.26 184.41 273.26 184.2 272.53 184.62 272.53 184.83"/><polygon class="cls-96" points="271.51 185.42 272.24 185 272.24 184.79 271.51 185.21 271.51 185.42"/><path class="cls-11" d="M265.15,178.81c-.25.64-1.33.56-1.54.52-.47-.09-1.42-.46-1.46-.84a6.6,6.6,0,0,1,.5-3.64,5.94,5.94,0,0,1,1.18-1.64c.61-.54,2.58.72,2.48,1.25,0,.14-.39,1.08-.57,1.88A14.81,14.81,0,0,1,265.15,178.81Z"/><path class="cls-4" d="M285.21,164.73a64.85,64.85,0,0,1,1.13,8.57c-.62,1.72-8.36,7.86-8.45,7.93-.91.67-3-1.75-2.41-2.39,2-2.16,6.19-7.11,6.19-7.11-.48-2.9-1-4.64-1.58-7.51-.48-2.24-.75-6.12,1.57-6C283.49,158.3,284.78,162.57,285.21,164.73Z"/><path class="cls-21" d="M281.66,171.72c-.41-2.52-1-5-1.58-7.5,0,0,.49,1.86.49,1.86.16.62.3,1.24.45,1.86.29,1.25.56,2.5.78,3.76a.11.11,0,0,1,0,.11c-1,1.2-2.08,2.36-3.12,3.54l-1.56,1.76-1.6,1.73S281.66,171.72,281.66,171.72Z"/><path class="cls-11" d="M271.12,180.05a8.85,8.85,0,0,1,1.18-.49,30.48,30.48,0,0,0,3.29-.43c.7-.27,2.45,1.58,1.91,1.88a5.87,5.87,0,0,0-1,.85,1.86,1.86,0,0,1-.92.36,9.41,9.41,0,0,1-1.19.13c-.32,0-.54.05-.7.33a2.47,2.47,0,0,0-.23.46.73.73,0,0,1-.33.42c-.43.23-2-.77-2.22-1.08A3,3,0,0,1,271.12,180.05Z"/><g id="_5" data-name="5"><path class="cls-4" d="M55.5,251.88a19.35,19.35,0,0,1,3.27-2.31,23.83,23.83,0,0,0,2.95-.34A10.59,10.59,0,0,0,67,247.94a6.78,6.78,0,0,1,0,1,1.44,1.44,0,0,1-.9,1.45c-4,2.44-5,3.16-5.75,3.52a4.66,4.66,0,0,1-4,.31c-1.08-.49-1.15-.94-1.1-1.33C55.27,252.69,55.23,252.12,55.5,251.88Z"/><path class="cls-3" d="M55.71,251.51c1-.8,3.88-2.8,5.06-3.86a3.69,3.69,0,0,0,.7-1.28c.46-1.06,3.48-1.28,4.85-.58.64.34.75,1.44.68,2.45a1.42,1.42,0,0,1-.89,1.45c-4,2.44-5.36,3.28-6.09,3.6a4.24,4.24,0,0,1-3,.26,2.66,2.66,0,0,1-1.4-.77A.77.77,0,0,1,55.71,251.51Z"/><path class="cls-97" d="M62,245a1.24,1.24,0,0,1,.39-.61,1.26,1.26,0,0,1,.57-.2,4.24,4.24,0,0,1,2.68.5l.52.24a2.23,2.23,0,0,1,.23,1.49.58.58,0,0,1-.32.53c-1.28.92-4.38.58-4.33-.51A4.7,4.7,0,0,1,62,245Z"/><path class="cls-4" d="M89.65,250.25a18.27,18.27,0,0,0-3.27-2.31,23.83,23.83,0,0,1-2.95-.34,10.6,10.6,0,0,1-5.23-1.3,6.93,6.93,0,0,0,0,1,1.46,1.46,0,0,0,.9,1.45c4,2.43,5,3.16,5.75,3.52a4.71,4.71,0,0,0,4,.3c1.08-.48,1.15-.93,1.1-1.33C89.88,251.05,89.92,250.48,89.65,250.25Z"/><path class="cls-3" d="M89.44,249.87c-1-.79-3.88-2.8-5.06-3.85a3.69,3.69,0,0,1-.7-1.28c-.46-1.06-3.49-1.29-4.85-.58-.64.33-.75,1.43-.68,2.45a1.43,1.43,0,0,0,.89,1.45c4,2.43,5.36,3.28,6.09,3.6a4.35,4.35,0,0,0,3,.26,2.66,2.66,0,0,0,1.4-.77A.78.78,0,0,0,89.44,249.87Z"/><path class="cls-97" d="M83.12,243.39a1.2,1.2,0,0,0-.39-.61,1.26,1.26,0,0,0-.57-.2,4.22,4.22,0,0,0-2.68.49l-.52.24a2.23,2.23,0,0,0-.23,1.49.58.58,0,0,0,.32.54c1.28.91,4.38.58,4.33-.51A4.7,4.7,0,0,0,83.12,243.39Z"/><path class="cls-3" d="M63,230.89a7.22,7.22,0,0,0,.69-2.64c0-.75.63-6.9.8-8.82a74,74,0,0,1,1.57-9.5,8.63,8.63,0,0,1,1-2.81l15.93.8a.26.26,0,0,1,.23.17c1.07,2.92,1.23,6.54,1.47,9.15a45.13,45.13,0,0,1,0,8.54,35.06,35.06,0,0,0-.41,4.67c0,.9.15,1.8.21,2.7.24,3.58-.49,6.61-1,11.13-.13,1.35-5.15,1.77-5.15,0-.06-2.14-.93-7-.93-10.23,0-.21,0-.67,0-1.21a14.82,14.82,0,0,0-.69-4.81c-.9-2.87-2-8.08-2.52-10.46-.49,1.46-3,10.4-3.85,12.91a15,15,0,0,0-.92,2.8c0,.17,0,.34,0,.51a15.66,15.66,0,0,1-.8,4.56,48.57,48.57,0,0,0-1.83,7.44c-.31,1.54-5.56,1.74-5.29-.33.1-.79.14-2.85.14-3.65C61.72,235.32,61.68,234.44,63,230.89Z"/><path class="cls-98" d="M66.53,210.58l-.26-.4a2.72,2.72,0,0,1-.15-.42l.06-.26a1.8,1.8,0,0,0,.19.63l.25.38.37.39.49.38c.19.11.38.24.59.35a11.63,11.63,0,0,0,3.07,1.08A13.43,13.43,0,0,0,73,213a14.86,14.86,0,0,0,1.89.08,28,28,0,0,0,3.74-.37,18.33,18.33,0,0,0,3.17-.79,6.38,6.38,0,0,0,1.17-.56,2.3,2.3,0,0,0,.74-.65,1,1,0,0,0,.19-.52l.06.26a1.61,1.61,0,0,1-.15.33,4.24,4.24,0,0,1-2,1.27,18.56,18.56,0,0,1-3.2.83,28,28,0,0,1-3.75.4,17.38,17.38,0,0,1-1.92-.1,15.35,15.35,0,0,1-1.84-.3,12.08,12.08,0,0,1-3.1-1.12c-.22-.12-.41-.25-.6-.37l-.5-.39C66.78,210.84,66.64,210.71,66.53,210.58Z"/><path class="cls-99" d="M69.7,185.84a34.33,34.33,0,0,1,12.37-1.51,7.64,7.64,0,0,1,2.93.54c2.14,1.65,1.21,3.3-.28,8.14a45,45,0,0,0-2,9.34,22,22,0,0,0,.62,6.29c.32,1.5-3,2.58-7.43,3s-9.28-1.33-9.2-3.52c0-1.59,1.28-3.51,1.28-5.09,0-4.74-1.34-7.83-2.62-12.58C64.75,188,65.25,187.21,69.7,185.84Z"/><path class="cls-100" d="M93.43,188.93c1.43-1.34,6.06-4.58,6.06-4.58.94-.43,3.17,1.9,2.46,3a50.31,50.31,0,0,1-6.8,6.23,2.24,2.24,0,0,1-1.63.35A47.58,47.58,0,0,1,84,191.17l-.31-6.29a.24.24,0,0,1,.28-.25C87.54,185.26,93.43,188.93,93.43,188.93Z"/><path class="cls-101" d="M54,208.15c2-2,6.91-6.76,6.91-6.76.53-2.41,2-10.15,2.56-11.34a6.67,6.67,0,0,1,3.6-3.16c.74-.31,2.06.55,2.42,1.27l-.9,5.61c-.83,3.44-1.72,6.76-2.84,10.11-.27.8-1.83,2-3.36,3.24-2.53,2-5.53,3.81-5.82,4C55.79,211.76,53.2,209,54,208.15Z"/><path class="cls-11" d="M47.25,213.36a1.32,1.32,0,0,1,.43-.45c.34-.26,2.09-1.3,2.59-1.61s1.22-.85,1.25-1.44c0-.36-.42-.53-.64-.7-.77-.61-.9-.93-.62-1.12s.82.14,1.08.23c.69.21,1.26.21,1.92.42a1.52,1.52,0,0,0,.91-.32c.56-.5,3,1.83,2.29,2.5l-.36.4a5.14,5.14,0,0,1-1.86,2.28c-.9.65-1.25,1.82-2,2.35-.39.28-.8.06-.62-.39a17,17,0,0,1,1-1.43c-.09-.05-1,.82-1.11.89q-.42.38-.87.72c-.37.26-.86.64-1.14.26-.11-.15,0-.26.08-.39s2.13-2,2.06-2.23c-.23-.13-2.57,1.81-3.22,2.19a.42.42,0,0,1-.49-.69c.2-.19,2.89-2.16,3-2.38s0-.19-.07-.22-2.73,1.5-2.85,1.56a.63.63,0,0,1-.55.12A.44.44,0,0,1,47.25,213.36Z"/><path class="cls-11" d="M103.82,180.66l-1.4.4a5.79,5.79,0,0,0-2.43,3.07,1.75,1.75,0,0,1-.39.47c-.51.5,1.67,2.73,2.12,2.37.54-.18,1.26-.12,1.74-.31a14.14,14.14,0,0,0,1.88-1.27A1.75,1.75,0,0,0,106,184a10.55,10.55,0,0,0-.81-2.72c.69-.87,2.46-2.29,2.22-2.78-.35-.75-1.07,0-1.32.22A24.76,24.76,0,0,1,103.82,180.66Z"/><polygon class="cls-102" points="77.7 184.04 78.22 184.98 77.69 185.57 76.56 184.53 76.25 183.4 77.7 184.04"/><path class="cls-20" d="M73.26,188.85c.48.68.86.94,1.46.86a4.34,4.34,0,0,0,3.45-4.48.77.77,0,0,0-.22-.45,6.51,6.51,0,0,1-1.63-3.5.82.82,0,0,0-1.32-.49c-1.66,1.3-3,3.84-2.94,4.93A10.5,10.5,0,0,0,73.26,188.85Z"/><path class="cls-3" d="M73.32,189a23.49,23.49,0,0,0,3.07-.05s.1,2.25-1.69,2.24C73.47,191.17,73.32,189,73.32,189Z"/><path class="cls-103" d="M74.82,189l-3.56,1.2s0-1.19.1-2.14a4.94,4.94,0,0,1,2-3.87C71.21,188.86,74.82,189,74.82,189Z"/><path class="cls-11" d="M69.05,180.47a2.08,2.08,0,0,1,.55-1.92c.89-.68,3-1.91,6.79-.14a4.17,4.17,0,0,1,1.33,1.25,1.74,1.74,0,0,1,.46,1.51c0,1.21.18,1.71-1.4,3.78A17.12,17.12,0,0,1,73,188.42a2.32,2.32,0,0,1-1.75.34c-.55-.11-1.14-.61-1.38-1.9C69.73,185.89,69.3,183.09,69.05,180.47Z"/><path class="cls-3" d="M75.82,182.21c-.16.37-.89.55-1.15-.27a1.84,1.84,0,0,0-2-1.14,6.83,6.83,0,0,1-3.15-.54,1.48,1.48,0,0,1-.47-.35s-.44-.43-.15-1.58a5.27,5.27,0,0,1,3.33-3.74,6.38,6.38,0,0,1,3.57-.07c4.47,1.15,3.46,6.72,2.94,7.76a8.59,8.59,0,0,1-1.58,2.2c.2-.83,1.08-2.55.17-3a.9.9,0,0,0-1,.08A1.92,1.92,0,0,0,75.82,182.21Z"/><path class="cls-104" d="M74.82,189l3.8,1.11a23.35,23.35,0,0,0,.09-4,3,3,0,0,0-.8-1.81L77.7,184S78.56,188,74.82,189Z"/><polygon class="cls-3" points="74.75 210.4 72.63 206.69 74.32 190.28 75.41 190.49 77.22 206.78 74.75 210.4"/></g><g id="_7-2" data-name="7"><path class="cls-4" d="M44.06,260.67A14.59,14.59,0,0,0,45.53,259a10.44,10.44,0,0,0,1.62-4.87,3.11,3.11,0,0,1,1.33.63c.46.43.55.63.51,1.48-.12,2.8-.47,5.45-.56,6.18-.06.52-.11.91-.17,1.23a2.08,2.08,0,0,1-1.48,1.62,6.15,6.15,0,0,1-.87.18C43.58,265.59,43.82,261.84,44.06,260.67Z"/><path class="cls-3" d="M43.73,263.89c.05-1.16.18-3.72.12-5.19a3.66,3.66,0,0,0-.51-1.24c-.49-.95,1-3.4,2.41-3.8a3.51,3.51,0,0,1,2.16.94,1.69,1.69,0,0,1,.51,1.63c-.27,4.4-.56,6.51-.66,7.56C47.55,266,43.66,265.86,43.73,263.89Z"/><path class="cls-97" d="M42.7,256.28a1.16,1.16,0,0,1-.21-.64,1.21,1.21,0,0,1,.19-.52,3.92,3.92,0,0,1,1.92-1.63l.47-.23a2.06,2.06,0,0,1,1.2.7.53.53,0,0,1,.2.54c-.1,1.45-2.14,3.47-2.89,2.8A4.49,4.49,0,0,1,42.7,256.28Z"/><path class="cls-4" d="M38.75,271c-1.22,1.08-4.21,1.55-5-.13-.38-.78.52-6.31.77-7.82.07-.42.19-1.18.19-1.18a2.39,2.39,0,0,1,.77-.24c.77-.25,2,.23,2.83.29.41,0,.7,3.15.7,3.42C39,267,39.7,270.11,38.75,271Z"/><path class="cls-3" d="M38.77,270.05c-1.22,1.07-4.21,1.55-5-.13-.38-.78.52-6.31.77-7.81l.19-1.18c.14-.14.71-.19.89-.25.76-.25,2.2.3,3,.3a7.44,7.44,0,0,1,.19,1.95,24.34,24.34,0,0,0,.23,2.56C39.26,267.3,39.51,269.4,38.77,270.05Z"/><path class="cls-97" d="M34.84,260.32a1.15,1.15,0,0,1,.34-.52,1.05,1.05,0,0,1,.49-.16,3.62,3.62,0,0,1,2.28.44l.44.21a1.9,1.9,0,0,1,.18,1.27.48.48,0,0,1-.28.46c-1.1.76-3.73.45-3.68-.47A4.61,4.61,0,0,1,34.84,260.32Z"/><path class="cls-4" d="M51.52,213s-.23-.68-.64-1.69a23.7,23.7,0,0,1-1.43-5.7,7.3,7.3,0,0,0-4.66-6l.8,11.9s1,4.5,3,5.66c1.71.51,8.57.18,8.57.18,1.33-.16,1.88-3.22,1-3.44A46,46,0,0,0,51.52,213Z"/><path class="cls-3" d="M41.92,246.43c-.13.86-.43,2.45-.51,3.32,0,.11-5.34-3.17-5.56-3.64a4.41,4.41,0,0,1-.31-1.77c-.16-5.41,1.67-17.84,4.52-18.59,1.9-.5,3.37-1.8,4.77-2.59.12.39.77.59.85,1.39,0,.2,0,.41.06.62A34.74,34.74,0,0,1,45,235.6C43.1,242.24,42.5,242.59,41.92,246.43Z"/><path class="cls-3" d="M34.68,250.75c-.11,3.3-.41,6.15-.7,9-.23,2.24,5.38,2.68,5.71,1.14.61-2.8.84-5.63,1.21-8.49C40.7,252.39,34.68,250.75,34.68,250.75Z"/><path class="cls-3" d="M38.16,245.28s6.94,6.34,7.66,7.15c1.29,1.29-1.4,5.82-2.94,4.94,0,0-12-6.35-12.47-8.65-.89-4.7-1.16-12.25-1.22-18.73,0-1.93.43-5.87,1.12-6.56-.22.42,4.62,2.46,5.06,2.51a13.13,13.13,0,0,0,5-.26C40.51,227.45,38.16,238.89,38.16,245.28Z"/><path class="cls-4" d="M38.38,198.75a22.61,22.61,0,0,0-7.76,1.94c-1.5.65-3.1,1.6-3.54,3.21a6.29,6.29,0,0,0,.14,2.92,40.12,40.12,0,0,0,1.71,6.23c.59,1.53,2,3.53,1.91,5.19-.1,2.07-.69,4.27-1,6.33-.07.41.22,1.67,4.14,2.46a18.1,18.1,0,0,0,8.47-.25c1.92-.53,3.41-1.32,3.21-2.4a56.05,56.05,0,0,1-1-8.32,10.84,10.84,0,0,1,.71-2.15A29.9,29.9,0,0,0,47.84,205a7,7,0,0,0-.16-2.46C46.66,199,41.29,198.6,38.38,198.75Z"/><path class="cls-4" d="M41.23,229c1.44-.32,3.83-1,4.56-2.3,0-.14,0-.24,0-.34a2.93,2.93,0,0,1-.12.28c-.66,1.17-3.18,1.9-4.49,2.18a20.59,20.59,0,0,1-9.75-.9c-.73-.29-1.83-.84-2-1.62a2.36,2.36,0,0,1,0,.28,3.55,3.55,0,0,0,1.95,1.49A20.34,20.34,0,0,0,41.23,229Z"/><path class="cls-4" d="M26.71,217.7c0-.7,4-7,5.41-9.69l-2.61-6.78a9.78,9.78,0,0,0-4.3,5.14c-1.09,2.89-2.42,8.1-3.25,11.08-.29,1.06,3,5.25,3.83,6.66.46.76,2.9-.81,2.57-1.6S26.7,218.56,26.71,217.7Z"/><path class="cls-105" d="M32.29,229.55a.51.51,0,0,0,.42-.57c-.13-.48-.36-.45-.65-.53a1.23,1.23,0,0,1-.88-.69c-.12-.28-.38-.27-.7-.12C29.45,228.11,31.3,229.77,32.29,229.55Z"/><path class="cls-106" d="M32.89,225.41c0-.24-.19-.36-.31-.56s-.15-.66-.33-.91a8.17,8.17,0,0,0-1.79-1.05,3.83,3.83,0,0,0-1.12-.15c-.5,0-.74.09-1.13-.13-.75-.43-2.42.89-2.15,1.53.93,2.21,3.05,4.5,4.35,4.28a5,5,0,0,0,2.05-1.3C33,226.58,33.09,226.6,32.89,225.41Z"/><path class="cls-106" d="M66.24,215.55a.4.4,0,0,0-.18-.1c-.29-.1-3.71-.92-3.86-1A.48.48,0,0,1,62,214c0-.44.82-.7,1.1-1,1-.84.41-1.53-.6-.89a5.14,5.14,0,0,1-2.12.84,2,2,0,0,0-1.33.67,3.73,3.73,0,0,1-.3.26,1,1,0,0,1-.43.18c-1-.15-1.58,3-.93,3.17a2.79,2.79,0,0,1,1.3.52,3.36,3.36,0,0,0,1.83.47c.51,0,.66-.28.6-.48a1.1,1.1,0,0,0,1,.43c.45,0,.5-.45.31-.75a1.45,1.45,0,0,0,.65.36c.36.06.79-.18.78-.54a1,1,0,0,0-.32-.57c-.22-.24-.76-.66-.76-.87s2.9.53,3.34.24C66.21,216,66.37,215.71,66.24,215.55Z"/><path class="cls-105" d="M32.57,224.65c-1.29-1.12-3.25.27-2,.58a2.06,2.06,0,0,1,1.29.72c.16.24.25.57.52.66a5.84,5.84,0,0,0,.33-1.61C32.74,224.85,32.73,224.79,32.57,224.65Z"/><g id="Axonometric_Cylinder-3" data-name="Axonometric Cylinder"><path class="cls-105" d="M32,225v4.88a1.3,1.3,0,0,0,.77,1.09,4.15,4.15,0,0,0,3.73,0,1.34,1.34,0,0,0,.77-1.06V225Z"/><path id="Cylinder_face-6" data-name="Cylinder face" class="cls-107" d="M36.45,226.05a1.13,1.13,0,0,0,0-2.15,4.09,4.09,0,0,0-3.73,0,1.13,1.13,0,0,0,0,2.15A4.09,4.09,0,0,0,36.45,226.05Z"/><path id="Cylinder_face-7" data-name="Cylinder face" class="cls-105" d="M36.25,225.94a1,1,0,0,0,0-1.93,3.69,3.69,0,0,0-3.33,0,1,1,0,0,0,0,1.93A3.69,3.69,0,0,0,36.25,225.94Z"/><path class="cls-108" d="M36.25,224.58a3.69,3.69,0,0,0-3.33,0,1.33,1.33,0,0,0-.64.68,1.37,1.37,0,0,0,.64.68,3.69,3.69,0,0,0,3.33,0,1.39,1.39,0,0,0,.63-.68A1.35,1.35,0,0,0,36.25,224.58Z"/></g><polygon class="cls-3" points="35.16 198.24 34.61 199.26 35.17 199.89 36.4 198.77 36.73 197.56 35.16 198.24"/><path class="cls-109" d="M39.87,203.34c-.52.74-.71,1-1.17,1.14-1.41.34-4.32-2.14-4-4.95a.83.83,0,0,1,.23-.49,7,7,0,0,0,1.77-3.78.88.88,0,0,1,1.42-.52c1.78,1.4,3.18,4.14,3.16,5.32A11.15,11.15,0,0,1,39.87,203.34Z"/><path class="cls-110" d="M40.2,203.14a15.51,15.51,0,0,1-2.33.88s.1,2.35,1.45,1.93C40.37,205.62,40.2,203.14,40.2,203.14Z"/><path class="cls-111" d="M39.06,203.59l3.18.92a27.83,27.83,0,0,0-2.44-6.11C41.06,202.91,39.06,203.59,39.06,203.59Z"/><path class="cls-106" d="M44,194.12a2.12,2.12,0,0,0-.7-1.94c-.95-.64-3.16-1.76-7,.33A4.54,4.54,0,0,0,35,193.88a1.83,1.83,0,0,0-.37,1.58c.14,1.25-.06,1.77,1.71,3.8a17.77,17.77,0,0,0,4.09,3.31,2.44,2.44,0,0,0,1.82.22c.56-.15,1.13-.71,1.28-2C43.68,199.73,43.93,196.83,44,194.12Z"/><path class="cls-3" d="M37.16,196.38c.2.36,1,.5,1.17-.36a1.91,1.91,0,0,1,2-1.32,5.82,5.82,0,0,0,3.2-.82,2.09,2.09,0,0,0,.68-2.55c-.16-.34-.43-.64-.58-1a8.73,8.73,0,0,0-.48-1.55c-.47-.72-1.5-.79-2.16-1.33-.14-.12-.27-.26-.42-.38-1.15-.92-2.08.23-3,.22-.2,0-.4-.06-.6-.05-.74,0-1.21.77-1.82,1.19a5.27,5.27,0,0,0-1.31.85c-.47.6-.29,1.47-.52,2.2a7.09,7.09,0,0,0-.26.73c-.11.61.23,1.21.25,1.82a3.81,3.81,0,0,0,0,1.07,3.07,3.07,0,0,0,.49.74c.16.26.17.53.32.8A8.88,8.88,0,0,0,36,198.79c-.27-.84-1.29-2.54-.39-3.12a.93.93,0,0,1,1.08,0A1.77,1.77,0,0,1,37.16,196.38Z"/><path class="cls-112" d="M39.48,203.47l-3.38,2.22a6.66,6.66,0,0,1-2.4-3.54,3.63,3.63,0,0,1,.11-2.45,17.67,17.67,0,0,1,1.35-1.46,3.56,3.56,0,0,0,.67,3.8A3.87,3.87,0,0,0,39.48,203.47Z"/><polygon class="cls-113" points="39.98 223.94 41.63 219.94 39.68 205.32 38.71 205.55 37.7 220.64 39.98 223.94"/></g><path class="cls-114" d="M21.77,157.35l-7.24,4.18v1l7.24-4.18Zm10.78-6.22-9.42,5.44v1l9.42-5.44ZM18.68,161.88l-4.15,2.39v1l4.15-2.39Zm8-4.64L20,161.1v1l6.67-3.86Zm1.36.23,4.48-2.59v-1l-4.48,2.59Zm-6.3,5.37L14.53,167v1l7.24-4.17Zm10.78-6.23-9.42,5.44v1l9.42-5.44ZM18.68,167.36l-4.15,2.4v1l4.15-2.4Zm1.36.23,6.67-3.85v-1L20,166.58Zm8-4.64,4.48-2.59v-1l-4.48,2.59Zm-6.3,5.37-7.24,4.18v1l7.24-4.18Zm10.78-6.22-9.42,5.44v1l9.42-5.44Zm-18,14.15,4.15-2.4v-1l-4.15,2.39ZM20,173.07l6.67-3.85v-1L20,172.06Zm8-4.63,4.48-2.59v-1l-4.48,2.59Z"/><path class="cls-115" d="M243.06,101.76l-4.15,2.39v1l4.15-2.39Zm1.36.22,6.67-3.85v-1L244.42,101Zm8-4.63,4.48-2.59v-1l-4.48,2.59ZM258.29,94l9.52-5.49v-1L258.29,93Zm-12.14,8.74-7.24,4.18v1l7.24-4.18Zm8.6-5-7.24,4.18v1l7.24-4.18Zm1.35.23,3-1.74v-1l-3,1.74Zm4.38-2.53,7.33-4.23v-1l-7.33,4.23Zm-21.57,15.19,4.15-2.39v-1l-4.15,2.39Zm5.51-3.17,6.67-3.86v-1l-6.67,3.86Zm8-4.64,4.48-2.59v-1l-4.48,2.59Zm5.84-3.37,9.52-5.5V93l-9.52,5.5Z"/><path class="cls-116" d="M255.42,82.85l-2.53,1.47v1l2.53-1.47Zm1.36.23,4.4-2.54v-1l-4.4,2.54Zm5.75-3.32,5.18-3v-1l-5.18,3Zm-4,4-5.62,3.25v1l5.62-3.25Zm6.32-3.65-5,2.87v1l5-2.87Zm1.36.23,1.57-.91v-1l-1.57.91Zm-13.3,10.42,2.53-1.46v-1l-2.53,1.46Zm3.89-2.25,4.4-2.54V85l-4.4,2.54Zm5.75-3.32,5.29-3v-1l-5.29,3Z"/><path class="cls-117" d="M7.1,186.23l-2.75,1.59v1l2.75-1.59Zm1.4.23,6.86-4v-1l-6.86,4Zm8.26-4.77L21.37,179v-1l-4.61,2.66Zm6-3.47,9.79-5.65v-1l-9.79,5.65Zm-12.48,9-5.93,3.43v1l5.93-3.42Zm8.84-5.1-7.44,4.29v1l7.44-4.29Zm1.39.23,3.11-1.79v-1l-3.11,1.79Zm4.5-2.6,7.54-4.35v-1L25,178.71ZM4.35,194.49,7.1,192.9v-1l-2.75,1.59ZM8.5,192.1l6.86-4v-1l-6.86,4Zm8.26-4.77,4.61-2.66v-1l-4.61,2.66Zm6-3.47,9.79-5.65v-1l-9.79,5.65Z"/><g id="Axonometric_Cylinder-4" data-name="Axonometric Cylinder"><ellipse id="Cylinder_face-8" data-name="Cylinder face" class="cls-118" cx="218.71" cy="229.35" rx="3.7" ry="2.14"/><path id="Cylinder_body" data-name="Cylinder body" class="cls-3" d="M222.41,228.16v16.91a1.81,1.81,0,0,1-1.08,1.53,5.76,5.76,0,0,1-5.24,0,1.85,1.85,0,0,1-1.08-1.49V228.2a1.85,1.85,0,0,0,1.08,1.49,5.76,5.76,0,0,0,5.24,0A1.82,1.82,0,0,0,222.41,228.16Z"/></g><polygon class="cls-3" points="208.54 227.39 208.53 232.4 207.09 230.41 207.1 225.4 208.54 227.39"/><polygon class="cls-119" points="230.53 225.56 230.51 230.57 229.04 232.65 229.05 227.64 230.53 225.56"/><polygon class="cls-3" points="207.87 232.43 207.85 237.44 204.43 236.62 204.43 231.61 207.87 232.43"/><polygon class="cls-120" points="233 231.83 233 236.85 229.41 237.71 228.7 234.77 229.42 232.69 233 231.83"/><path class="cls-121" d="M208.36,233.17v5a6.42,6.42,0,0,1-.5-.74l0-5a6.3,6.3,0,0,0,.49.74Z"/><path class="cls-122" d="M229.42,232.69v5a6.89,6.89,0,0,1-.55.72l0-5a5.2,5.2,0,0,0,.54-.72Z"/><path class="cls-123" d="M214.78,236.6v5c-.42-.09-.84-.2-1.24-.32v-5c.41.12.83.23,1.24.32Z"/><path class="cls-124" d="M223.51,236.4l0,5c-.41.11-.83.2-1.26.28l0-5c.42-.08.85-.18,1.26-.29Z"/><polygon class="cls-125" points="213.54 236.28 213.53 241.29 210.1 242.12 210.11 237.11 213.54 236.28"/><polygon class="cls-3" points="210.11 237.11 210.1 242.12 206.87 240.26 206.88 235.24 210.11 237.11"/><polygon class="cls-3" points="227.1 237.26 227.09 242.28 223.49 241.42 223.51 236.4 227.1 237.26"/><polygon class="cls-126" points="230.31 235.4 230.3 240.41 227.09 242.28 227.1 237.26 230.31 235.4"/><polygon class="cls-127" points="222.25 236.69 222.23 241.7 220.82 243.69 220.83 238.68 222.25 236.69"/><polygon class="cls-3" points="216.28 238.68 216.27 243.69 214.77 241.61 214.78 236.6 216.28 238.68"/><polygon class="cls-128" points="220.83 238.68 220.82 243.69 216.27 243.69 216.28 238.68 220.83 238.68"/><path class="cls-129" d="M230.53,225.56l-1.48,2.08a5.57,5.57,0,0,1,.5.73l3.45.82v2.64l-3.58.86a5.2,5.2,0,0,1-.54.72l1.43,2-3.21,1.86-3.59-.86c-.41.11-.84.21-1.26.29l-1.42,2h-4.55l-1.5-2.08c-.41-.09-.83-.2-1.24-.32l-3.43.83-3.23-1.87,1.48-2.07a6.3,6.3,0,0,1-.49-.74l-3.44-.82V229l3.58-.86a5.2,5.2,0,0,1,.54-.72l-1.44-2,3.21-1.87,3.59.87c.42-.11.84-.2,1.27-.29l1.41-2h4.55l1.5,2.08c.42.09.84.2,1.25.32l3.42-.82Z"/><g id="Axonometric_Cylinder-5" data-name="Axonometric Cylinder"><path id="Cylinder_face-9" data-name="Cylinder face" class="cls-130" d="M222.9,230.52a9.24,9.24,0,0,1-8.38,0c-2.31-1.34-2.31-3.5,0-4.84a9.24,9.24,0,0,1,8.38,0C225.22,227,225.22,229.18,222.9,230.52Z"/><path id="Cylinder_face-10" data-name="Cylinder face" class="cls-4" d="M220.81,229.31a4.62,4.62,0,0,1-4.19,0,1.28,1.28,0,0,1,0-2.42,4.62,4.62,0,0,1,4.19,0A1.28,1.28,0,0,1,220.81,229.31Z"/><path id="Cylinder_body-2" data-name="Cylinder body" class="cls-131" d="M224.64,228.07v2.11a3,3,0,0,1-1.74,2.45,9.3,9.3,0,0,1-8.38,0,3,3,0,0,1-1.74-2.39v-2.11a3,3,0,0,0,1.74,2.39,9.24,9.24,0,0,0,8.38,0A3,3,0,0,0,224.64,228.07Z"/></g><g id="Axonometric_Cylinder-6" data-name="Axonometric Cylinder"><ellipse id="Cylinder_face-11" data-name="Cylinder face" class="cls-118" cx="242.58" cy="237.82" rx="3.7" ry="2.14"/><path id="Cylinder_body-3" data-name="Cylinder body" class="cls-3" d="M246.28,236.63v16.91a1.81,1.81,0,0,1-1.08,1.53,5.76,5.76,0,0,1-5.24,0,1.85,1.85,0,0,1-1.08-1.49V236.67a1.85,1.85,0,0,0,1.08,1.49,5.82,5.82,0,0,0,5.24,0A1.82,1.82,0,0,0,246.28,236.63Z"/></g><polygon class="cls-3" points="232.41 235.86 232.4 240.87 230.96 238.88 230.97 233.87 232.41 235.86"/><polygon class="cls-132" points="254.4 234.03 254.38 239.04 252.91 241.12 252.92 236.11 254.4 234.03"/><polygon class="cls-3" points="231.73 240.9 231.72 245.91 228.29 245.09 228.3 240.07 231.73 240.9"/><polygon class="cls-133" points="256.87 240.3 256.87 245.31 253.28 246.18 252.57 243.24 253.29 241.16 256.87 240.3"/><path class="cls-134" d="M232.23,241.63l0,5a6.3,6.3,0,0,1-.49-.74v-5a6.76,6.76,0,0,0,.5.73Z"/><path class="cls-135" d="M253.29,241.16l0,5a4.94,4.94,0,0,1-.54.71l0-5a7.11,7.11,0,0,0,.54-.72Z"/><path class="cls-136" d="M238.65,245.07v5c-.42-.09-.84-.2-1.24-.32v-5c.41.12.82.22,1.24.32Z"/><path class="cls-137" d="M247.37,244.87v5c-.41.11-.83.2-1.26.28l0-5c.42-.08.84-.18,1.25-.29Z"/><polygon class="cls-138" points="237.41 244.75 237.4 249.76 233.96 250.59 233.98 245.58 237.41 244.75"/><polygon class="cls-3" points="233.98 245.58 233.96 250.59 230.74 248.73 230.75 243.71 233.98 245.58"/><polygon class="cls-3" points="250.97 245.73 250.96 250.74 247.36 249.89 247.37 244.87 250.97 245.73"/><polygon class="cls-139" points="254.18 243.87 254.16 248.88 250.96 250.74 250.97 245.73 254.18 243.87"/><polygon class="cls-140" points="246.12 245.16 246.1 250.17 244.69 252.16 244.7 247.15 246.12 245.16"/><polygon class="cls-3" points="240.15 247.14 240.14 252.16 238.64 250.08 238.65 245.06 240.15 247.14"/><polygon class="cls-141" points="244.7 247.15 244.69 252.16 240.14 252.16 240.15 247.14 244.7 247.15"/><path class="cls-142" d="M254.4,234l-1.48,2.08a5,5,0,0,1,.5.73l3.45.82v2.64l-3.58.86a7.11,7.11,0,0,1-.54.72l1.43,2L251,245.73l-3.6-.86c-.41.11-.83.21-1.25.29l-1.42,2h-4.55l-1.5-2.07c-.42-.1-.83-.2-1.24-.32l-3.43.83-3.23-1.87,1.48-2.08a6.76,6.76,0,0,1-.5-.73l-3.43-.83v-2.63l3.58-.86a4.51,4.51,0,0,1,.54-.72l-1.44-2,3.21-1.87,3.59.86c.42-.1.84-.2,1.27-.28l1.41-2H245l1.5,2.08c.42.09.84.2,1.24.32l3.43-.82Z"/><g id="Axonometric_Cylinder-7" data-name="Axonometric Cylinder"><ellipse id="Cylinder_face-12" data-name="Cylinder face" class="cls-143" cx="242.58" cy="236.57" rx="5.93" ry="3.42"/><ellipse id="Cylinder_face-13" data-name="Cylinder face" class="cls-4" cx="242.58" cy="236.57" rx="2.96" ry="1.71"/><path id="Cylinder_body-4" data-name="Cylinder body" class="cls-144" d="M248.51,236.54v2.1a3,3,0,0,1-1.74,2.46,9.3,9.3,0,0,1-8.38,0,3,3,0,0,1-1.74-2.39V236.6a3,3,0,0,0,1.74,2.39,9.3,9.3,0,0,0,8.38,0A3,3,0,0,0,248.51,236.54Z"/></g><g id="Axonometric_Cylinder-8" data-name="Axonometric Cylinder"><path id="Cylinder_face-14" data-name="Cylinder face" class="cls-118" d="M230.32,252.81a5.8,5.8,0,0,1-5.23,0c-1.45-.84-1.45-2.19,0-3a5.8,5.8,0,0,1,5.23,0C231.77,250.62,231.77,252,230.32,252.81Z"/><path id="Cylinder_body-5" data-name="Cylinder body" class="cls-3" d="M231.41,250.1V267a1.82,1.82,0,0,1-1.09,1.53,5.8,5.8,0,0,1-5.23,0,1.85,1.85,0,0,1-1.09-1.49V250.14a1.87,1.87,0,0,0,1.09,1.5,5.8,5.8,0,0,0,5.23,0A1.83,1.83,0,0,0,231.41,250.1Z"/></g><polygon class="cls-3" points="217.54 249.33 217.52 254.35 216.08 252.35 216.1 247.34 217.54 249.33"/><polygon class="cls-145" points="239.52 247.5 239.51 252.52 238.03 254.6 238.05 249.58 239.52 247.5"/><polygon class="cls-3" points="216.86 254.37 216.85 259.39 213.42 258.56 213.43 253.55 216.86 254.37"/><polygon class="cls-146" points="242 253.78 242 258.79 238.4 259.65 237.69 256.71 238.42 254.64 242 253.78"/><path class="cls-147" d="M217.35,255.11v5a5.48,5.48,0,0,1-.49-.73v-5a6.76,6.76,0,0,0,.49.74Z"/><path class="cls-148" d="M238.42,254.64l0,5a5.88,5.88,0,0,1-.54.72v-5a6.89,6.89,0,0,0,.55-.72Z"/><path class="cls-149" d="M223.78,258.54v5c-.42-.1-.84-.2-1.25-.32l0-5a12.51,12.51,0,0,0,1.24.32Z"/><path class="cls-150" d="M232.5,258.35v5c-.41.11-.84.21-1.26.29v-5c.43-.08.85-.17,1.26-.28Z"/><polygon class="cls-151" points="222.54 258.22 222.52 263.24 219.09 264.06 219.1 259.05 222.54 258.22"/><polygon class="cls-3" points="219.1 259.05 219.09 264.06 215.87 262.2 215.88 257.19 219.1 259.05"/><polygon class="cls-3" points="236.1 259.21 236.09 264.22 232.49 263.36 232.5 258.35 236.1 259.21"/><polygon class="cls-152" points="239.31 257.34 239.29 262.36 236.09 264.22 236.1 259.21 239.31 257.34"/><polygon class="cls-153" points="231.24 258.63 231.23 263.65 229.81 265.64 229.83 260.62 231.24 258.63"/><polygon class="cls-3" points="225.28 260.62 225.26 265.63 223.76 263.56 223.78 258.54 225.28 260.62"/><polygon class="cls-154" points="229.83 260.62 229.81 265.64 225.26 265.63 225.28 260.62 229.83 260.62"/><path class="cls-155" d="M239.52,247.5l-1.47,2.08a6.87,6.87,0,0,1,.5.74l3.44.82v2.64l-3.58.86a6.89,6.89,0,0,1-.55.72l1.43,2-3.2,1.87-3.6-.86c-.41.11-.83.2-1.26.28l-1.41,2h-4.55l-1.5-2.08a12.51,12.51,0,0,1-1.24-.32l-3.43.83-3.23-1.86,1.47-2.08a6.76,6.76,0,0,1-.49-.74l-3.43-.82,0-2.63,3.58-.87a6.89,6.89,0,0,1,.55-.72l-1.44-2,3.2-1.86,3.6.86c.41-.11.84-.2,1.27-.28l1.41-2h4.54l1.51,2.08a12.51,12.51,0,0,1,1.24.32l3.43-.83Z"/><g id="Axonometric_Cylinder-9" data-name="Axonometric Cylinder"><ellipse id="Cylinder_face-15" data-name="Cylinder face" class="cls-156" cx="227.71" cy="250.04" rx="5.93" ry="3.42"/><ellipse id="Cylinder_face-16" data-name="Cylinder face" class="cls-4" cx="227.71" cy="250.04" rx="2.96" ry="1.71"/><path id="Cylinder_body-6" data-name="Cylinder body" class="cls-157" d="M233.63,250v2.11a2.9,2.9,0,0,1-1.73,2.45,9.26,9.26,0,0,1-8.39,0,3,3,0,0,1-1.73-2.39v-2.1a3,3,0,0,0,1.73,2.38,9.26,9.26,0,0,0,8.39,0A2.9,2.9,0,0,0,233.63,250Z"/></g><g id="Axonometric_Cylinder-10" data-name="Axonometric Cylinder"><path id="Cylinder_face-17" data-name="Cylinder face" class="cls-118" d="M82.8,270.59a5.8,5.8,0,0,1-5.23,0c-1.45-.84-1.45-2.19,0-3a5.8,5.8,0,0,1,5.23,0C84.25,268.4,84.25,269.75,82.8,270.59Z"/><path id="Cylinder_body-7" data-name="Cylinder body" class="cls-3" d="M83.89,267.88V284.8a1.82,1.82,0,0,1-1.09,1.53,5.8,5.8,0,0,1-5.23,0,1.83,1.83,0,0,1-1.08-1.49V267.92a1.86,1.86,0,0,0,1.08,1.5,5.8,5.8,0,0,0,5.23,0A1.83,1.83,0,0,0,83.89,267.88Z"/></g><polygon class="cls-3" points="70.02 267.11 70 272.13 68.56 270.14 68.58 265.12 70.02 267.11"/><polygon class="cls-158" points="92 265.28 91.99 270.3 90.52 272.38 90.53 267.36 92 265.28"/><polygon class="cls-3" points="69.34 272.15 69.33 277.17 65.9 276.34 65.91 271.33 69.34 272.15"/><polygon class="cls-159" points="94.48 271.56 94.48 276.57 90.88 277.43 90.18 274.49 90.9 272.42 94.48 271.56"/><path class="cls-160" d="M69.84,272.89l0,5a5.48,5.48,0,0,1-.49-.73v-5a5.66,5.66,0,0,0,.5.74Z"/><path class="cls-161" d="M90.9,272.42l0,5a5,5,0,0,1-.54.72v-5a6.89,6.89,0,0,0,.55-.72Z"/><path class="cls-162" d="M76.26,276.32v5c-.42-.1-.84-.2-1.24-.32v-5a12.51,12.51,0,0,0,1.24.32Z"/><path class="cls-163" d="M85,276.13v5c-.41.11-.84.21-1.26.29v-5c.43-.08.85-.17,1.26-.28Z"/><polygon class="cls-164" points="75.02 276 75 281.02 71.57 281.85 71.59 276.83 75.02 276"/><polygon class="cls-3" points="71.59 276.83 71.57 281.85 68.34 279.98 68.36 274.97 71.59 276.83"/><polygon class="cls-3" points="88.58 276.99 88.57 282 84.97 281.14 84.98 276.13 88.58 276.99"/><polygon class="cls-165" points="91.79 275.12 91.77 280.14 88.57 282 88.58 276.99 91.79 275.12"/><polygon class="cls-166" points="83.72 276.41 83.71 281.43 82.29 283.42 82.31 278.4 83.72 276.41"/><polygon class="cls-3" points="77.76 278.4 77.75 283.41 76.25 281.33 76.26 276.32 77.76 278.4"/><polygon class="cls-167" points="82.31 278.4 82.29 283.42 77.75 283.41 77.76 278.4 82.31 278.4"/><path class="cls-168" d="M92,265.28l-1.47,2.08a6.87,6.87,0,0,1,.5.74l3.44.82v2.64l-3.58.86a6.89,6.89,0,0,1-.55.72l1.44,2L88.58,277l-3.6-.86c-.41.11-.83.2-1.26.28l-1.41,2H77.76l-1.5-2.08A12.51,12.51,0,0,1,75,276l-3.43.83L68.36,275l1.48-2.08a5.66,5.66,0,0,1-.5-.74l-3.43-.82,0-2.63,3.58-.87a6.89,6.89,0,0,1,.55-.72l-1.44-2,3.2-1.86,3.6.86c.41-.11.84-.2,1.27-.28l1.41-2H82.6l1.51,2.08a12.51,12.51,0,0,1,1.24.32l3.43-.83Z"/><g id="Axonometric_Cylinder-11" data-name="Axonometric Cylinder"><path id="Cylinder_face-18" data-name="Cylinder face" class="cls-169" d="M84.38,270.24a9.24,9.24,0,0,1-8.38,0c-2.32-1.33-2.32-3.5,0-4.84a9.3,9.3,0,0,1,8.38,0C86.69,266.74,86.69,268.91,84.38,270.24Z"/><path id="Cylinder_face-19" data-name="Cylinder face" class="cls-4" d="M82.28,269a4.62,4.62,0,0,1-4.19,0,1.28,1.28,0,0,1,0-2.42,4.68,4.68,0,0,1,4.19,0A1.28,1.28,0,0,1,82.28,269Z"/><path id="Cylinder_body-8" data-name="Cylinder body" class="cls-170" d="M86.11,267.79v2.11a2.9,2.9,0,0,1-1.73,2.45,9.24,9.24,0,0,1-8.38,0A2.94,2.94,0,0,1,74.26,270v-2.1A2.94,2.94,0,0,0,76,270.24a9.24,9.24,0,0,0,8.38,0A2.9,2.9,0,0,0,86.11,267.79Z"/></g></g></g></g></g></svg>