<svg id="Layer_1" data-name="Layer 1" xmlns="http://www.w3.org/2000/svg" xmlns:xlink="http://www.w3.org/1999/xlink" viewBox="0 0 375.58 356.33"><defs><style>.cls-1,.cls-2{fill:#010101;}.cls-1{filter:url(#luminosity-noclip);}.cls-2{filter:url(#luminosity-noclip-2);}.cls-113,.cls-144,.cls-15,.cls-16,.cls-24,.cls-26,.cls-27,.cls-3,.cls-38,.cls-86,.cls-87,.cls-88,.cls-89,.cls-90,.cls-91{fill:none;}.cls-4{fill:url(#linear-gradient);}.cls-5{fill:url(#linear-gradient-2);}.cls-6{fill:url(#linear-gradient-3);}.cls-7{fill:url(#linear-gradient-4);}.cls-28,.cls-8{fill:#cadcea;}.cls-9{fill:url(#Degradado_sin_nombre_31);}.cls-10{fill:url(#Degradado_sin_nombre_31-2);}.cls-11{fill:url(#Degradado_sin_nombre_31-3);}.cls-12{fill:url(#Degradado_sin_nombre_31-4);}.cls-13{fill:url(#linear-gradient-5);}.cls-14{fill:url(#linear-gradient-6);}.cls-15,.cls-16,.cls-89,.cls-91{stroke:#1b449b;}.cls-113,.cls-144,.cls-15,.cls-16,.cls-24,.cls-26,.cls-27,.cls-38,.cls-85,.cls-86,.cls-87,.cls-88,.cls-89,.cls-90,.cls-91{stroke-miterlimit:10;}.cls-15,.cls-24{stroke-width:0.93px;}.cls-16{stroke-width:0.81px;}.cls-17{fill:url(#linear-gradient-7);}.cls-18{fill:url(#linear-gradient-8);}.cls-19{fill:url(#linear-gradient-9);}.cls-20{fill:#13426f;}.cls-21{fill:url(#linear-gradient-10);}.cls-22{fill:url(#linear-gradient-11);}.cls-23{fill:url(#linear-gradient-12);}.cls-144,.cls-24,.cls-26,.cls-27,.cls-38,.cls-85,.cls-86,.cls-88,.cls-90{stroke:#fff;}.cls-25{fill:#fff;}.cls-113,.cls-144,.cls-26,.cls-27{stroke-linecap:round;}.cls-26{stroke-width:1.85px;}.cls-27{stroke-width:0.46px;}.cls-28{opacity:0.2;}.cls-29{fill:url(#Degradado_sin_nombre_70);}.cls-30{fill:url(#Degradado_sin_nombre_70-2);}.cls-31{fill:url(#Degradado_sin_nombre_70-3);}.cls-32{fill:url(#linear-gradient-13);}.cls-33{fill:url(#linear-gradient-14);}.cls-34{fill:url(#linear-gradient-15);}.cls-35{fill:url(#linear-gradient-16);}.cls-36{fill:url(#linear-gradient-17);}.cls-37{fill:url(#linear-gradient-18);}.cls-38{stroke-width:0.38px;}.cls-39{fill:url(#Degradado_sin_nombre_31-5);}.cls-40{fill:url(#Degradado_sin_nombre_31-6);}.cls-41{fill:url(#linear-gradient-19);}.cls-42{fill:url(#linear-gradient-20);}.cls-43{fill:url(#linear-gradient-21);}.cls-44{fill:url(#Degradado_sin_nombre_31-7);}.cls-45{fill:url(#Degradado_sin_nombre_31-8);}.cls-46{fill:url(#Degradado_sin_nombre_31-9);}.cls-47{fill:url(#Degradado_sin_nombre_31-10);}.cls-48{fill:url(#linear-gradient-22);}.cls-49{fill:url(#linear-gradient-23);}.cls-50{fill:url(#linear-gradient-24);}.cls-51{fill:url(#linear-gradient-25);}.cls-52{fill:url(#Degradado_sin_nombre_31-11);}.cls-53{fill:url(#Degradado_sin_nombre_31-12);}.cls-54{fill:url(#Degradado_sin_nombre_31-13);}.cls-55{fill:url(#Degradado_sin_nombre_31-14);}.cls-56{fill:url(#linear-gradient-26);}.cls-57{fill:url(#linear-gradient-27);}.cls-58{fill:url(#linear-gradient-28);}.cls-59{fill:url(#linear-gradient-29);}.cls-60{fill:url(#linear-gradient-30);}.cls-61{fill:url(#linear-gradient-31);}.cls-62{fill:url(#linear-gradient-32);}.cls-63{fill:url(#linear-gradient-33);}.cls-64{fill:url(#linear-gradient-34);}.cls-65{fill:url(#linear-gradient-35);}.cls-66{fill:url(#linear-gradient-36);}.cls-67{fill:url(#linear-gradient-37);}.cls-68{fill:url(#Degradado_sin_nombre_121);}.cls-69{fill:url(#linear-gradient-38);}.cls-70{opacity:0.1;fill:url(#linear-gradient-39);}.cls-71{fill:url(#linear-gradient-40);}.cls-72{fill:url(#linear-gradient-41);}.cls-73{isolation:isolate;}.cls-74{fill:url(#linear-gradient-42);}.cls-75{fill:url(#linear-gradient-43);}.cls-76{clip-path:url(#clip-path);}.cls-77{fill:url(#linear-gradient-44);}.cls-78{fill:url(#linear-gradient-45);}.cls-79{mask:url(#mask);}.cls-80{fill:#efbe9a;}.cls-81{fill:url(#linear-gradient-46);}.cls-82{fill:url(#linear-gradient-47);}.cls-83{fill:url(#linear-gradient-48);}.cls-84{fill:url(#linear-gradient-49);}.cls-85,.cls-86,.cls-87{stroke-width:0.11px;}.cls-85{fill:url(#Degradado_sin_nombre_15);}.cls-87{stroke:#6388c6;}.cls-88{stroke-width:0.11px;}.cls-89{stroke-width:0.72px;}.cls-90{stroke-width:0.07px;}.cls-91{stroke-width:0.48px;}.cls-92{fill:#fed1a4;}.cls-93{fill:url(#linear-gradient-50);}.cls-94{fill:url(#linear-gradient-51);}.cls-95{fill:url(#linear-gradient-52);}.cls-96{fill:url(#linear-gradient-53);}.cls-97{fill:url(#linear-gradient-54);}.cls-98{fill:url(#linear-gradient-55);}.cls-99{fill:url(#linear-gradient-56);}.cls-100{fill:url(#linear-gradient-57);}.cls-101{fill:url(#linear-gradient-58);}.cls-102{fill:url(#linear-gradient-59);}.cls-103{fill:url(#linear-gradient-60);}.cls-104{fill:url(#linear-gradient-61);}.cls-105{fill:url(#linear-gradient-62);}.cls-106{fill:url(#linear-gradient-63);}.cls-107{fill:url(#linear-gradient-64);}.cls-108{fill:url(#linear-gradient-65);}.cls-109{fill:url(#linear-gradient-66);}.cls-110{fill:url(#linear-gradient-67);}.cls-111{fill:url(#linear-gradient-68);}.cls-112{fill:#e1f4fd;}.cls-113{stroke:#6c9dd3;stroke-width:0.11px;}.cls-114{fill:#6c9dd3;}.cls-115{fill:url(#linear-gradient-69);}.cls-116{fill:#bbddf4;}.cls-117{fill:url(#Degradado_sin_nombre_8);}.cls-118{fill:url(#Degradado_sin_nombre_2);}.cls-119{fill:url(#Degradado_sin_nombre_29);}.cls-120{fill:url(#Degradado_sin_nombre_30);}.cls-121{fill:url(#Degradado_sin_nombre_4);}.cls-122{fill:url(#linear-gradient-70);}.cls-123{fill:url(#linear-gradient-71);}.cls-124{fill:url(#linear-gradient-72);}.cls-125{fill:url(#linear-gradient-73);}.cls-126{fill:url(#linear-gradient-74);}.cls-127{clip-path:url(#clip-path-2);}.cls-128{fill:url(#linear-gradient-75);}.cls-129{fill:url(#linear-gradient-76);}.cls-130{mask:url(#mask-2);}.cls-131{fill:url(#linear-gradient-77);}.cls-132{fill:url(#linear-gradient-78);}.cls-133{fill:url(#linear-gradient-79);}.cls-134{fill:url(#linear-gradient-80);}.cls-135{fill:url(#linear-gradient-81);}.cls-136{fill:url(#Degradado_sin_nombre_31-15);}.cls-137{fill:url(#Degradado_sin_nombre_31-16);}.cls-138{fill:url(#Degradado_sin_nombre_31-17);}.cls-139{fill:url(#Degradado_sin_nombre_31-18);}.cls-140{fill:url(#Degradado_sin_nombre_31-19);}.cls-141{fill:url(#Degradado_sin_nombre_31-20);}.cls-142{fill:url(#Degradado_sin_nombre_31-21);}.cls-143{fill:url(#Degradado_sin_nombre_31-22);}.cls-144{stroke-width:0.28px;}</style><linearGradient id="linear-gradient" x1="288.49" y1="189.32" x2="325.68" y2="189.32" gradientUnits="userSpaceOnUse"><stop offset="0" stop-color="#0b62a3"/><stop offset="1" stop-color="#3189c9"/></linearGradient><linearGradient id="linear-gradient-2" x1="288.49" y1="179.39" x2="325.68" y2="179.39" xlink:href="#linear-gradient"/><linearGradient id="linear-gradient-3" x1="288.49" y1="185.92" x2="307.08" y2="185.92" xlink:href="#linear-gradient"/><linearGradient id="linear-gradient-4" x1="307.08" y1="185.92" x2="325.68" y2="185.92" xlink:href="#linear-gradient"/><linearGradient id="Degradado_sin_nombre_31" x1="303.71" y1="186.78" x2="303.71" y2="174.55" gradientUnits="userSpaceOnUse"><stop offset="0" stop-color="#fff" stop-opacity="0"/><stop offset="0.37" stop-color="#fff" stop-opacity="0.01"/><stop offset="0.51" stop-color="#fff" stop-opacity="0.03"/><stop offset="0.6" stop-color="#feffff" stop-opacity="0.08"/><stop offset="0.68" stop-color="#fdfeff" stop-opacity="0.15"/><stop offset="0.75" stop-color="#fcfeff" stop-opacity="0.23"/><stop offset="0.81" stop-color="#fbfeff" stop-opacity="0.34"/><stop offset="0.86" stop-color="#fafdff" stop-opacity="0.47"/><stop offset="0.91" stop-color="#f8fdfe" stop-opacity="0.62"/><stop offset="0.95" stop-color="#f6fcfe" stop-opacity="0.79"/><stop offset="0.99" stop-color="#f4fbfe" stop-opacity="0.97"/><stop offset="1" stop-color="#f4fbfe"/></linearGradient><linearGradient id="Degradado_sin_nombre_31-2" x1="312.26" y1="183.79" x2="308.65" y2="177.54" xlink:href="#Degradado_sin_nombre_31"/><linearGradient id="Degradado_sin_nombre_31-3" x1="298.42" y1="164.76" x2="298.42" y2="158.64" xlink:href="#Degradado_sin_nombre_31"/><linearGradient id="Degradado_sin_nombre_31-4" x1="302.7" y1="163.26" x2="300.89" y2="160.14" xlink:href="#Degradado_sin_nombre_31"/><linearGradient id="linear-gradient-5" x1="62.98" y1="213.98" x2="314.06" y2="213.98" xlink:href="#linear-gradient"/><linearGradient id="linear-gradient-6" x1="62.98" y1="202.39" x2="314.06" y2="202.39" xlink:href="#linear-gradient"/><linearGradient id="linear-gradient-7" x1="62.98" y1="242.66" x2="188.52" y2="242.66" xlink:href="#linear-gradient"/><linearGradient id="linear-gradient-8" x1="188.52" y1="242.66" x2="314.06" y2="242.66" xlink:href="#linear-gradient"/><linearGradient id="linear-gradient-9" x1="129.05" y1="188.4" x2="247.99" y2="188.4" xlink:href="#linear-gradient"/><linearGradient id="linear-gradient-10" x1="143" y1="123.16" x2="234.04" y2="123.16" xlink:href="#linear-gradient"/><linearGradient id="linear-gradient-11" x1="143" y1="169.33" x2="188.52" y2="169.33" xlink:href="#linear-gradient"/><linearGradient id="linear-gradient-12" x1="188.52" y1="169.33" x2="234.04" y2="169.33" xlink:href="#linear-gradient"/><linearGradient id="Degradado_sin_nombre_70" x1="133.73" y1="238.86" x2="183.84" y2="152.07" gradientUnits="userSpaceOnUse"><stop offset="0" stop-color="#fff"/><stop offset="0.01" stop-color="#fff" stop-opacity="0.96"/><stop offset="0.05" stop-color="#fff" stop-opacity="0.78"/><stop offset="0.09" stop-color="#fff" stop-opacity="0.61"/><stop offset="0.14" stop-color="#fff" stop-opacity="0.47"/><stop offset="0.2" stop-color="#fff" stop-opacity="0.34"/><stop offset="0.25" stop-color="#fff" stop-opacity="0.23"/><stop offset="0.32" stop-color="#fff" stop-opacity="0.15"/><stop offset="0.4" stop-color="#fff" stop-opacity="0.08"/><stop offset="0.49" stop-color="#fff" stop-opacity="0.03"/><stop offset="0.63" stop-color="#fff" stop-opacity="0.01"/><stop offset="1" stop-color="#fff" stop-opacity="0"/></linearGradient><linearGradient id="Degradado_sin_nombre_70-2" x1="-2853.16" y1="230.66" x2="-2803.05" y2="143.87" gradientTransform="matrix(-1, 0, 0, 1, -2608.73, 0)" xlink:href="#Degradado_sin_nombre_70"/><linearGradient id="Degradado_sin_nombre_70-3" x1="-2863.35" y1="220.14" x2="-2835.51" y2="171.92" gradientTransform="matrix(-1, 0, 0, 1, -2608.73, 0)" xlink:href="#Degradado_sin_nombre_70"/><linearGradient id="linear-gradient-13" x1="123.73" y1="243.66" x2="189.28" y2="243.66" gradientTransform="translate(178.47)" xlink:href="#linear-gradient"/><linearGradient id="linear-gradient-14" x1="123.73" y1="238.69" x2="189.28" y2="238.69" gradientTransform="translate(178.47)" xlink:href="#linear-gradient"/><linearGradient id="linear-gradient-15" x1="142.82" y1="259.73" x2="142.82" y2="235.55" gradientTransform="translate(178.47)" xlink:href="#linear-gradient"/><linearGradient id="linear-gradient-16" x1="317.76" y1="214.25" x2="354.94" y2="214.25" xlink:href="#linear-gradient"/><linearGradient id="linear-gradient-17" x1="317.76" y1="233.11" x2="336.35" y2="233.11" xlink:href="#linear-gradient"/><linearGradient id="linear-gradient-18" x1="336.35" y1="233.11" x2="354.94" y2="233.11" xlink:href="#linear-gradient"/><linearGradient id="Degradado_sin_nombre_31-5" x1="331.41" y1="223.07" x2="331.41" y2="205.13" xlink:href="#Degradado_sin_nombre_31"/><linearGradient id="Degradado_sin_nombre_31-6" x1="343.94" y1="218.69" x2="338.65" y2="209.51" xlink:href="#Degradado_sin_nombre_31"/><linearGradient id="linear-gradient-19" x1="193.47" y1="295.17" x2="230.65" y2="295.17" xlink:href="#linear-gradient"/><linearGradient id="linear-gradient-20" x1="193.47" y1="301.71" x2="212.06" y2="301.71" xlink:href="#linear-gradient"/><linearGradient id="linear-gradient-21" x1="212.06" y1="301.71" x2="230.65" y2="301.71" xlink:href="#linear-gradient"/><linearGradient id="Degradado_sin_nombre_31-7" x1="208.69" y1="302.57" x2="208.69" y2="290.33" xlink:href="#Degradado_sin_nombre_31"/><linearGradient id="Degradado_sin_nombre_31-8" x1="217.24" y1="299.58" x2="213.63" y2="293.32" xlink:href="#Degradado_sin_nombre_31"/><linearGradient id="Degradado_sin_nombre_31-9" x1="208.7" y1="292.4" x2="208.7" y2="286.28" xlink:href="#Degradado_sin_nombre_31"/><linearGradient id="Degradado_sin_nombre_31-10" x1="212.98" y1="290.91" x2="211.17" y2="287.78" xlink:href="#Degradado_sin_nombre_31"/><linearGradient id="linear-gradient-22" x1="73.19" y1="254.38" x2="110.37" y2="254.38" xlink:href="#linear-gradient"/><linearGradient id="linear-gradient-23" x1="73.19" y1="244.45" x2="110.37" y2="244.45" xlink:href="#linear-gradient"/><linearGradient id="linear-gradient-24" x1="73.19" y1="250.98" x2="91.78" y2="250.98" xlink:href="#linear-gradient"/><linearGradient id="linear-gradient-25" x1="91.78" y1="250.98" x2="110.37" y2="250.98" xlink:href="#linear-gradient"/><linearGradient id="Degradado_sin_nombre_31-11" x1="88.41" y1="251.84" x2="88.41" y2="239.61" xlink:href="#Degradado_sin_nombre_31"/><linearGradient id="Degradado_sin_nombre_31-12" x1="96.96" y1="248.85" x2="93.35" y2="242.6" xlink:href="#Degradado_sin_nombre_31"/><linearGradient id="Degradado_sin_nombre_31-13" x1="87.19" y1="234.77" x2="87.19" y2="227.38" xlink:href="#Degradado_sin_nombre_31"/><linearGradient id="Degradado_sin_nombre_31-14" x1="92.35" y1="232.96" x2="90.17" y2="229.18" xlink:href="#Degradado_sin_nombre_31"/><linearGradient id="linear-gradient-26" x1="-2849.64" y1="312.5" x2="-2730.11" y2="312.5" gradientTransform="matrix(-1, 0, 0, 1, -2513.29, 0)" xlink:href="#linear-gradient"/><linearGradient id="linear-gradient-27" x1="-2849.64" y1="304.22" x2="-2730.11" y2="304.22" gradientTransform="matrix(-1, 0, 0, 1, -2513.29, 0)" xlink:href="#linear-gradient"/><linearGradient id="linear-gradient-28" x1="-2814.84" y1="340.85" x2="-2814.84" y2="298.5" gradientTransform="matrix(-1, 0, 0, 1, -2513.29, 0)" xlink:href="#linear-gradient"/><linearGradient id="linear-gradient-29" x1="15.93" y1="288.08" x2="18.01" y2="288.08" gradientTransform="translate(228.66)" xlink:href="#linear-gradient"/><linearGradient id="linear-gradient-30" x1="16.54" y1="308.79" x2="16.54" y2="287.98" gradientTransform="translate(228.66)" xlink:href="#linear-gradient"/><linearGradient id="linear-gradient-31" x1="30.54" y1="295.93" x2="32.62" y2="295.93" gradientTransform="translate(228.66)" xlink:href="#linear-gradient"/><linearGradient id="linear-gradient-32" x1="31.15" y1="316.64" x2="31.15" y2="295.83" gradientTransform="translate(228.66)" xlink:href="#linear-gradient"/><linearGradient id="linear-gradient-33" x1="45.45" y1="273.05" x2="47.52" y2="273.05" gradientTransform="translate(228.66)" xlink:href="#linear-gradient"/><linearGradient id="linear-gradient-34" x1="46.05" y1="293.76" x2="46.05" y2="272.95" gradientTransform="translate(228.66)" xlink:href="#linear-gradient"/><linearGradient id="linear-gradient-35" x1="60.05" y1="280.9" x2="62.13" y2="280.9" gradientTransform="translate(228.66)" xlink:href="#linear-gradient"/><linearGradient id="linear-gradient-36" x1="60.66" y1="301.61" x2="60.66" y2="280.8" gradientTransform="translate(228.66)" xlink:href="#linear-gradient"/><linearGradient id="linear-gradient-37" x1="261.21" y1="290.03" x2="292" y2="290.03" xlink:href="#linear-gradient"/><linearGradient id="Degradado_sin_nombre_121" x1="-2772.8" y1="301.04" x2="-2758.15" y2="286.39" gradientTransform="matrix(-1, 0, 0, 1, -2513.29, 0)" gradientUnits="userSpaceOnUse"><stop offset="0" stop-color="#6b58a6"/><stop offset="1" stop-color="#c8eaf5"/></linearGradient><linearGradient id="linear-gradient-38" x1="-2772.49" y1="285.83" x2="-2772.49" y2="274.9" gradientTransform="matrix(-1, 0, 0, 1, -2504.66, 0)" xlink:href="#linear-gradient"/><linearGradient id="linear-gradient-39" x1="246.57" y1="238.61" x2="281.08" y2="238.61" xlink:href="#linear-gradient"/><linearGradient id="linear-gradient-40" x1="-2751.31" y1="302.39" x2="-2741.17" y2="302.39" gradientTransform="matrix(-1, 0, 0, 1, -2456.79, 0)" xlink:href="#linear-gradient"/><linearGradient id="linear-gradient-41" x1="-2748.36" y1="320.14" x2="-2748.36" y2="301.9" gradientTransform="matrix(-1, 0, 0, 1, -2456.79, 0)" xlink:href="#linear-gradient"/><linearGradient id="linear-gradient-42" x1="-2760.67" y1="301.88" x2="-2731.81" y2="301.88" gradientTransform="matrix(-1, 0, 0, 1, -2456.79, 0)" xlink:href="#linear-gradient"/><linearGradient id="linear-gradient-43" x1="290.3" y1="287.79" x2="304.79" y2="287.79" xlink:href="#linear-gradient"/><clipPath id="clip-path"><path class="cls-3" d="M290.66,310.53l13.77-8a.92.92,0,0,0,.26-.22c1.9-2.37.18-17.72.1-18.37l-13.77,8c.08.66,1.8,16-.1,18.37A.92.92,0,0,1,290.66,310.53Z"/></clipPath><linearGradient id="linear-gradient-44" x1="-2758.51" y1="304.15" x2="-2750.52" y2="290.32" gradientTransform="matrix(-1, 0, 0, 1, -2456.79, 0)" xlink:href="#linear-gradient"/><linearGradient id="linear-gradient-45" x1="274.93" y1="301.18" x2="291.81" y2="301.18" xlink:href="#linear-gradient"/><filter id="luminosity-noclip" x="266.39" y="266.29" width="39.19" height="51.37" filterUnits="userSpaceOnUse" color-interpolation-filters="sRGB"><feFlood flood-color="#fff" result="bg"/><feBlend in="SourceGraphic" in2="bg"/></filter><mask id="mask" x="266.39" y="266.29" width="39.19" height="51.37" maskUnits="userSpaceOnUse"><path class="cls-1" d="M275,302c1.73,1.24,4.8,3.31,7.75,5,3.47,2,6.76,3.49,7.53,2.54,1.76-2.2,0-17.71,0-17.87l13.77-8,.72.3h0c0,.07,0,.37.09.81.1,1,.27,2.66.42,4.66.07,1,.13,2,.18,3.07.21,4.21.16,8.64-.79,9.83a.92.92,0,0,1-.26.22l-13.77,8a.92.92,0,0,0,.26-.22h0c-1,1.2-4.62-.45-8.2-2.52s-7.07-4.54-7.79-5.06Z"/></mask><linearGradient id="linear-gradient-46" x1="21.17" y1="215.92" x2="69.02" y2="215.92" xlink:href="#linear-gradient"/><linearGradient id="linear-gradient-47" x1="21.17" y1="249.04" x2="69.02" y2="249.04" xlink:href="#linear-gradient"/><linearGradient id="linear-gradient-48" x1="35.1" y1="258.76" x2="35.1" y2="213.63" xlink:href="#linear-gradient"/><linearGradient id="linear-gradient-49" x1="44.58" y1="217.64" x2="44.58" y2="206.71" xlink:href="#linear-gradient"/><linearGradient id="Degradado_sin_nombre_15" x1="333.92" y1="-716.88" x2="333.92" y2="-722.55" gradientTransform="matrix(0.84, 0.49, 0, 1, -231.71, 726.69)" gradientUnits="userSpaceOnUse"><stop offset="0" stop-color="#35c6f4" stop-opacity="0"/><stop offset="0.09" stop-color="#35c6f4" stop-opacity="0.05"/><stop offset="0.25" stop-color="#35c6f4" stop-opacity="0.17"/><stop offset="0.46" stop-color="#35c6f4" stop-opacity="0.38"/><stop offset="0.72" stop-color="#35c6f4" stop-opacity="0.66"/><stop offset="1" stop-color="#35c6f4"/></linearGradient><linearGradient id="linear-gradient-50" x1="6.11" y1="230.89" x2="19.91" y2="230.89" xlink:href="#linear-gradient"/><linearGradient id="linear-gradient-51" x1="21.28" y1="218.48" x2="28.44" y2="218.48" gradientTransform="translate(-94.96 34.1) rotate(-26.53)" xlink:href="#linear-gradient"/><linearGradient id="linear-gradient-52" x1="27.16" y1="315.68" x2="146.69" y2="315.68" xlink:href="#linear-gradient"/><linearGradient id="linear-gradient-53" x1="27.16" y1="307.4" x2="146.69" y2="307.4" xlink:href="#linear-gradient"/><linearGradient id="linear-gradient-54" x1="61.96" y1="344.02" x2="61.96" y2="301.67" xlink:href="#linear-gradient"/><linearGradient id="linear-gradient-55" x1="-2860.87" y1="291.18" x2="-2858.79" y2="291.18" gradientTransform="matrix(-1, 0, 0, 1, -2741.95, 0)" xlink:href="#linear-gradient"/><linearGradient id="linear-gradient-56" x1="-2860.26" y1="311.89" x2="-2860.26" y2="291.08" gradientTransform="matrix(-1, 0, 0, 1, -2741.95, 0)" xlink:href="#linear-gradient"/><linearGradient id="linear-gradient-57" x1="-2846.26" y1="299.03" x2="-2844.18" y2="299.03" gradientTransform="matrix(-1, 0, 0, 1, -2741.95, 0)" xlink:href="#linear-gradient"/><linearGradient id="linear-gradient-58" x1="-2845.65" y1="319.74" x2="-2845.65" y2="298.93" gradientTransform="matrix(-1, 0, 0, 1, -2741.95, 0)" xlink:href="#linear-gradient"/><linearGradient id="linear-gradient-59" x1="-2831.35" y1="276.15" x2="-2829.28" y2="276.15" gradientTransform="matrix(-1, 0, 0, 1, -2741.95, 0)" xlink:href="#linear-gradient"/><linearGradient id="linear-gradient-60" x1="-2830.75" y1="296.86" x2="-2830.75" y2="276.05" gradientTransform="matrix(-1, 0, 0, 1, -2741.95, 0)" xlink:href="#linear-gradient"/><linearGradient id="linear-gradient-61" x1="-2816.75" y1="284" x2="-2814.67" y2="284" gradientTransform="matrix(-1, 0, 0, 1, -2741.95, 0)" xlink:href="#linear-gradient"/><linearGradient id="linear-gradient-62" x1="-2816.14" y1="304.71" x2="-2816.14" y2="283.9" gradientTransform="matrix(-1, 0, 0, 1, -2741.95, 0)" xlink:href="#linear-gradient"/><linearGradient id="linear-gradient-63" x1="71.51" y1="293.13" x2="102.3" y2="293.13" xlink:href="#linear-gradient"/><linearGradient id="linear-gradient-64" x1="89.41" y1="283.05" x2="100.37" y2="283.05" xlink:href="#linear-gradient"/><linearGradient id="linear-gradient-65" x1="89.41" y1="282.79" x2="100.16" y2="282.79" xlink:href="#linear-gradient"/><linearGradient id="linear-gradient-66" x1="85.19" y1="274.29" x2="109.64" y2="274.29" xlink:href="#linear-gradient"/><linearGradient id="linear-gradient-67" x1="89.41" y1="287.31" x2="95.31" y2="287.31" xlink:href="#linear-gradient"/><linearGradient id="linear-gradient-68" x1="106.18" y1="287.63" x2="113.61" y2="274.77" xlink:href="#linear-gradient"/><linearGradient id="linear-gradient-69" x1="81.57" y1="289.18" x2="95.56" y2="289.18" xlink:href="#linear-gradient"/><linearGradient id="Degradado_sin_nombre_8" x1="81.57" y1="290.48" x2="91.39" y2="290.48" gradientUnits="userSpaceOnUse"><stop offset="0" stop-color="#8c6797"/><stop offset="1" stop-color="#3f4d66"/></linearGradient><linearGradient id="Degradado_sin_nombre_2" x1="91.39" y1="292.11" x2="95.56" y2="292.11" gradientUnits="userSpaceOnUse"><stop offset="0" stop-color="#3f4d66"/><stop offset="1" stop-color="#8c6797"/></linearGradient><linearGradient id="Degradado_sin_nombre_29" x1="95.42" y1="294.42" x2="109.18" y2="294.42" gradientUnits="userSpaceOnUse"><stop offset="0" stop-color="#b9e4f3"/><stop offset="1" stop-color="#7791ca"/></linearGradient><linearGradient id="Degradado_sin_nombre_30" x1="103.68" y1="296.85" x2="109.18" y2="296.85" gradientUnits="userSpaceOnUse"><stop offset="0" stop-color="#7791ca"/><stop offset="1" stop-color="#b9e4f3"/></linearGradient><linearGradient id="Degradado_sin_nombre_4" x1="95.42" y1="296.05" x2="103.68" y2="296.05" gradientUnits="userSpaceOnUse"><stop offset="0" stop-color="#88d3df"/><stop offset="1" stop-color="#557cbe"/></linearGradient><linearGradient id="linear-gradient-70" x1="100.47" y1="294.58" x2="105.24" y2="294.58" xlink:href="#linear-gradient"/><linearGradient id="linear-gradient-71" x1="71.16" y1="303.9" x2="81.3" y2="303.9" xlink:href="#linear-gradient"/><linearGradient id="linear-gradient-72" x1="74.11" y1="321.65" x2="74.11" y2="303.41" xlink:href="#linear-gradient"/><linearGradient id="linear-gradient-73" x1="61.8" y1="303.38" x2="90.66" y2="303.38" xlink:href="#linear-gradient"/><linearGradient id="linear-gradient-74" x1="60.89" y1="289.29" x2="75.38" y2="289.29" xlink:href="#linear-gradient"/><clipPath id="clip-path-2"><path class="cls-3" d="M75,312l-13.77-8a.8.8,0,0,1-.26-.22c-1.91-2.37-.19-17.71-.11-18.37l13.77,8c-.08.66-1.8,16,.11,18.37A.83.83,0,0,0,75,312Z"/></clipPath><linearGradient id="linear-gradient-75" x1="63.97" y1="305.65" x2="71.95" y2="291.83" xlink:href="#linear-gradient"/><linearGradient id="linear-gradient-76" x1="73.87" y1="302.68" x2="90.75" y2="302.68" xlink:href="#linear-gradient"/><filter id="luminosity-noclip-2" x="60.1" y="268.8" width="43.81" height="50.37" filterUnits="userSpaceOnUse" color-interpolation-filters="sRGB"><feFlood flood-color="#fff" result="bg"/><feBlend in="SourceGraphic" in2="bg"/></filter><mask id="mask-2" x="60.1" y="268.8" width="43.81" height="50.37" maskUnits="userSpaceOnUse"><path class="cls-2" d="M90.66,303.46c-1.73,1.24-4.8,3.31-7.75,5-3.46,2-6.76,3.5-7.53,2.54-1.76-2.19,0-17.7,0-17.86l-13.77-8-.72.29h0c0,.08,0,.38-.09.82-.1,1-.27,2.66-.41,4.66-.07,1-.14,2-.19,3.06-.2,4.22-.16,8.65.8,9.83a.8.8,0,0,0,.26.22L75,312a.83.83,0,0,1-.26-.23h0c1,1.2,4.61-.45,8.2-2.52s7.07-4.54,7.78-5.05Z"/></mask><linearGradient id="linear-gradient-77" x1="69.91" y1="283.4" x2="75.26" y2="283.4" xlink:href="#linear-gradient"/><linearGradient id="linear-gradient-78" x1="123.43" y1="345.6" x2="160.62" y2="345.6" xlink:href="#linear-gradient"/><linearGradient id="linear-gradient-79" x1="123.43" y1="335.67" x2="160.62" y2="335.67" xlink:href="#linear-gradient"/><linearGradient id="linear-gradient-80" x1="123.43" y1="342.2" x2="142.02" y2="342.2" xlink:href="#linear-gradient"/><linearGradient id="linear-gradient-81" x1="142.02" y1="342.2" x2="160.62" y2="342.2" xlink:href="#linear-gradient"/><linearGradient id="Degradado_sin_nombre_31-15" x1="138.65" y1="343.06" x2="138.65" y2="330.83" xlink:href="#Degradado_sin_nombre_31"/><linearGradient id="Degradado_sin_nombre_31-16" x1="147.2" y1="340.07" x2="143.59" y2="333.81" xlink:href="#Degradado_sin_nombre_31"/><linearGradient id="Degradado_sin_nombre_31-17" x1="146.32" y1="324.67" x2="146.32" y2="319.16" xlink:href="#Degradado_sin_nombre_31"/><linearGradient id="Degradado_sin_nombre_31-18" x1="150.17" y1="323.33" x2="148.55" y2="320.51" xlink:href="#Degradado_sin_nombre_31"/><linearGradient id="Degradado_sin_nombre_31-19" x1="145.67" y1="310.65" x2="145.67" y2="305.14" xlink:href="#Degradado_sin_nombre_31"/><linearGradient id="Degradado_sin_nombre_31-20" x1="149.52" y1="309.3" x2="147.89" y2="306.48" xlink:href="#Degradado_sin_nombre_31"/><linearGradient id="Degradado_sin_nombre_31-21" x1="136.43" y1="320.35" x2="136.43" y2="314.84" xlink:href="#Degradado_sin_nombre_31"/><linearGradient id="Degradado_sin_nombre_31-22" x1="140.28" y1="319.01" x2="138.65" y2="316.19" xlink:href="#Degradado_sin_nombre_31"/></defs><title>Platforms Supported</title><polygon class="cls-4" points="288.49 189.32 307.08 178.59 325.68 189.32 307.08 200.06 288.49 189.32"/><polygon class="cls-5" points="288.49 179.39 307.08 168.66 325.68 179.39 307.08 190.12 288.49 179.39"/><polygon class="cls-6" points="288.49 179.39 288.49 181.72 307.08 192.45 307.08 190.12 288.49 179.39"/><polygon class="cls-7" points="307.08 190.12 325.68 179.39 325.68 181.72 307.08 192.45 307.08 190.12"/><polygon class="cls-8" points="300.34 166.21 307.08 162.32 313.82 166.21 307.08 170.1 300.34 166.21"/><polygon class="cls-8" points="300.34 166.21 300.34 174.55 307.08 178.44 307.08 170.1 300.34 166.21"/><polygon class="cls-8" points="307.08 170.1 313.82 166.21 313.82 174.55 307.08 178.44 307.08 170.1"/><polygon class="cls-9" points="300.34 174.55 300.34 182.89 307.08 186.78 307.08 178.44 300.34 174.55"/><polygon class="cls-10" points="307.08 178.44 313.82 174.55 313.82 182.89 307.08 186.78 307.08 178.44"/><polygon class="cls-8" points="296.74 154.47 300.11 152.53 303.48 154.47 300.11 156.42 296.74 154.47"/><polygon class="cls-8" points="296.74 154.47 296.74 158.64 300.11 160.59 300.11 156.42 296.74 154.47"/><polygon class="cls-8" points="300.11 156.42 303.48 154.47 303.48 158.64 300.11 160.59 300.11 156.42"/><polygon class="cls-11" points="296.74 158.64 296.74 162.81 300.11 164.76 300.11 160.59 296.74 158.64"/><polygon class="cls-12" points="300.11 160.59 303.48 158.64 303.48 162.81 300.11 164.76 300.11 160.59"/><polygon class="cls-13" points="62.98 213.98 188.52 141.5 314.06 213.98 188.52 286.46 62.98 213.98"/><polygon class="cls-14" points="62.98 202.39 188.52 129.91 314.06 202.39 188.52 274.87 62.98 202.39"/><polygon class="cls-15" points="85.47 202.39 188.52 142.9 291.57 202.39 188.52 261.89 85.47 202.39"/><polygon class="cls-16" points="98.57 202.39 188.52 150.46 278.47 202.39 188.52 254.33 98.57 202.39"/><polygon class="cls-17" points="62.98 202.39 62.98 210.44 188.52 282.92 188.52 274.87 62.98 202.39"/><polygon class="cls-18" points="188.52 274.87 314.06 202.39 314.06 210.44 188.52 282.92 188.52 274.87"/><polygon class="cls-19" points="129.05 188.4 188.52 154.07 247.99 188.4 188.52 222.74 129.05 188.4"/><polygon class="cls-20" points="129.05 188.4 129.05 196.03 188.52 230.37 188.52 222.74 129.05 188.4"/><polygon class="cls-20" points="188.52 222.74 247.99 188.4 247.99 196.03 188.52 230.37 188.52 222.74"/><polygon class="cls-21" points="143 123.16 188.52 96.88 234.04 123.16 188.52 149.44 143 123.16"/><polygon class="cls-22" points="143 123.16 143 189.23 188.52 215.51 188.52 149.44 143 123.16"/><polygon class="cls-23" points="188.52 149.44 234.04 123.16 234.04 189.23 188.52 215.51 188.52 149.44"/><polygon class="cls-24" points="135.24 123.16 188.52 92.39 241.8 123.16 188.52 153.92 135.24 123.16"/><polygon class="cls-24" points="135.24 113.81 188.52 83.04 241.8 113.81 188.52 144.57 135.24 113.81"/><polygon class="cls-24" points="135.24 104.45 188.52 73.69 241.8 104.45 188.52 135.22 135.24 104.45"/><polygon class="cls-24" points="135.24 95.11 188.52 64.34 241.8 95.11 188.52 125.87 135.24 95.11"/><polygon class="cls-25" points="150.59 140.12 146.68 137.86 146.68 142.38 150.59 144.64 150.59 140.12"/><polygon class="cls-25" points="150.59 148.31 146.68 146.05 146.68 150.57 150.59 152.83 150.59 148.31"/><polygon class="cls-25" points="150.59 156.49 146.68 154.23 146.68 158.75 150.59 161.01 150.59 156.49"/><polygon class="cls-25" points="150.59 164.68 146.68 162.42 146.68 166.94 150.59 169.2 150.59 164.68"/><polygon class="cls-25" points="157.67 144.22 153.75 141.96 153.75 146.47 157.67 148.73 157.67 144.22"/><polygon class="cls-25" points="157.67 152.4 153.75 150.14 153.75 154.66 157.67 156.92 157.67 152.4"/><polygon class="cls-25" points="157.67 160.59 153.75 158.33 153.75 162.85 157.67 165.11 157.67 160.59"/><polygon class="cls-25" points="165.14 148.62 161.22 146.36 161.22 150.88 165.14 153.14 165.14 148.62"/><polygon class="cls-25" points="165.14 156.81 161.22 154.55 161.22 159.07 165.14 161.33 165.14 156.81"/><polygon class="cls-25" points="172.12 152.72 168.21 150.46 168.21 154.98 172.12 157.24 172.12 152.72"/><polygon class="cls-25" points="178.49 156.33 174.57 154.07 174.57 158.59 178.49 160.85 178.49 156.33"/><polygon class="cls-25" points="172.12 160.9 168.21 158.64 168.21 163.16 172.12 165.42 172.12 160.9"/><polygon class="cls-25" points="165.14 165 161.22 162.74 161.22 167.25 165.14 169.51 165.14 165"/><polygon class="cls-25" points="157.67 168.77 153.75 166.51 153.75 171.03 157.67 173.29 157.67 168.77"/><polygon class="cls-25" points="150.59 172.87 146.68 170.61 146.68 175.13 150.59 177.38 150.59 172.87"/><polygon class="cls-25" points="226.45 140.12 230.37 137.86 230.37 142.38 226.45 144.64 226.45 140.12"/><polygon class="cls-25" points="226.45 148.31 230.37 146.05 230.37 150.57 226.45 152.83 226.45 148.31"/><polygon class="cls-25" points="226.45 156.49 230.37 154.23 230.37 158.75 226.45 161.01 226.45 156.49"/><polygon class="cls-25" points="226.45 164.68 230.37 162.42 230.37 166.94 226.45 169.2 226.45 164.68"/><polygon class="cls-25" points="219.37 144.22 223.29 141.96 223.29 146.47 219.37 148.73 219.37 144.22"/><polygon class="cls-25" points="219.37 152.4 223.29 150.14 223.29 154.66 219.37 156.92 219.37 152.4"/><polygon class="cls-25" points="219.37 160.59 223.29 158.33 223.29 162.85 219.37 165.11 219.37 160.59"/><polygon class="cls-25" points="211.9 148.62 215.82 146.36 215.82 150.88 211.9 153.14 211.9 148.62"/><polygon class="cls-25" points="211.9 156.81 215.82 154.55 215.82 159.07 211.9 161.33 211.9 156.81"/><polygon class="cls-25" points="204.92 152.72 208.84 150.46 208.84 154.98 204.92 157.24 204.92 152.72"/><polygon class="cls-25" points="198.56 156.33 202.47 154.07 202.47 158.59 198.56 160.85 198.56 156.33"/><polygon class="cls-25" points="204.92 160.9 208.84 158.64 208.84 163.16 204.92 165.42 204.92 160.9"/><polygon class="cls-25" points="211.9 165 215.82 162.74 215.82 167.25 211.9 169.51 211.9 165"/><polygon class="cls-25" points="219.37 168.77 223.29 166.51 223.29 171.03 219.37 173.29 219.37 168.77"/><polygon class="cls-25" points="226.45 172.87 230.37 170.61 230.37 175.13 226.45 177.38 226.45 172.87"/><polygon class="cls-8" points="201.52 92.75 206.71 89.76 211.9 92.75 206.71 95.75 201.52 92.75"/><polygon class="cls-8" points="201.52 92.75 201.52 99.18 206.71 102.17 206.71 95.75 201.52 92.75"/><polygon class="cls-8" points="206.71 95.75 211.9 92.75 211.9 99.18 206.71 102.17 206.71 95.75"/><polygon class="cls-8" points="163.8 88.77 173.09 83.4 182.38 88.77 173.09 94.13 163.8 88.77"/><polygon class="cls-8" points="163.8 88.77 163.8 100.27 173.09 105.63 173.09 94.13 163.8 88.77"/><polygon class="cls-8" points="173.09 94.13 182.38 88.77 182.38 100.27 173.09 105.63 173.09 94.13"/><polygon class="cls-8" points="182.7 105.03 191.41 100.01 200.11 105.03 191.41 110.06 182.7 105.03"/><polygon class="cls-8" points="182.7 105.03 182.7 115.8 191.41 120.82 191.41 110.06 182.7 105.03"/><polygon class="cls-8" points="191.41 110.06 200.11 105.03 200.11 115.8 191.41 120.82 191.41 110.06"/><polygon class="cls-8" points="193.05 77.6 196.79 75.44 200.53 77.6 196.79 79.76 193.05 77.6"/><polygon class="cls-8" points="193.05 77.6 193.05 82.23 196.79 84.39 196.79 79.76 193.05 77.6"/><polygon class="cls-8" points="196.79 79.76 200.53 77.6 200.53 82.23 196.79 84.39 196.79 79.76"/><line class="cls-26" x1="84.25" y1="222.36" x2="63.08" y2="234.66"/><polyline class="cls-26" points="62.98 250.71 76.93 258.69 49.03 274.9 61.05 281.8"/><line class="cls-27" x1="223.13" y1="290.67" x2="247.47" y2="276.69"/><line class="cls-26" x1="167.94" y1="271.04" x2="120.36" y2="298.11"/><line class="cls-26" x1="258.26" y1="282.92" x2="223.14" y2="262.64"/><polygon class="cls-28" points="129.05 0 129.05 183.56 188.52 217.9 188.52 34.34 129.05 0"/><polygon class="cls-28" points="94.29 18.12 94.29 201.68 153.76 236.01 153.76 52.45 94.29 18.12"/><polygon class="cls-29" points="140.04 126.78 140.04 242.5 177.53 264.14 177.53 148.43 140.04 126.78"/><polygon class="cls-30" points="238.12 118.58 238.12 234.3 200.63 255.94 200.63 140.23 238.12 118.58"/><polygon class="cls-31" points="251.12 157.86 251.12 222.16 230.28 234.19 230.28 169.89 251.12 157.86"/><polygon class="cls-28" points="289.6 83.63 289.6 209.29 268.77 221.32 268.77 95.66 289.6 83.63"/><polygon class="cls-28" points="273.48 42.51 273.48 213.33 264.06 218.76 264.06 47.95 273.48 42.51"/><polygon class="cls-28" points="82.85 91.94 82.85 207.65 101.86 218.7 101.86 102.99 82.85 91.94"/><polygon class="cls-28" points="188.52 70.57 247.99 36.24 247.99 183.56 188.52 217.9 188.52 70.57"/><line class="cls-27" x1="209.28" y1="286.69" x2="193.05" y2="277.37"/><polygon class="cls-32" points="302.21 240.52 329.58 224.71 367.75 246.79 340.38 262.6 302.21 240.52"/><polygon class="cls-33" points="302.21 235.55 329.58 219.74 367.75 241.83 340.38 257.63 302.21 235.55"/><polygon class="cls-34" points="302.21 235.55 302.21 237.64 340.38 259.73 340.38 257.63 302.21 235.55"/><polygon class="cls-8" points="340.38 257.63 367.75 241.83 367.75 243.92 340.38 259.73 340.38 257.63"/><polygon class="cls-35" points="317.76 214.25 336.35 203.51 354.94 214.25 336.35 224.98 317.76 214.25"/><polygon class="cls-36" points="317.76 214.25 317.76 241.24 336.35 251.97 336.35 224.98 317.76 214.25"/><polygon class="cls-37" points="336.35 224.98 354.94 214.25 354.94 241.24 336.35 251.97 336.35 224.98"/><polygon class="cls-38" points="314.59 214.25 336.35 201.69 358.11 214.25 336.35 226.81 314.59 214.25"/><polygon class="cls-38" points="314.59 210.43 336.35 197.87 358.11 210.43 336.35 223 314.59 210.43"/><polygon class="cls-38" points="314.59 206.61 336.35 194.05 358.11 206.61 336.35 219.18 314.59 206.61"/><polygon class="cls-38" points="314.59 202.79 336.35 190.23 358.11 202.79 336.35 215.36 314.59 202.79"/><polygon class="cls-8" points="326.46 192.9 336.35 187.19 346.24 192.9 336.35 198.61 326.46 192.9"/><polygon class="cls-8" points="326.46 192.9 326.46 205.13 336.35 210.84 336.35 198.61 326.46 192.9"/><polygon class="cls-8" points="336.35 198.61 346.24 192.9 346.24 205.13 336.35 210.84 336.35 198.61"/><polygon class="cls-39" points="326.46 205.13 326.46 217.36 336.35 223.07 336.35 210.84 326.46 205.13"/><polygon class="cls-40" points="336.35 210.84 346.24 205.13 346.24 217.36 336.35 223.07 336.35 210.84"/><polygon class="cls-41" points="193.47 295.17 212.06 284.44 230.66 295.17 212.06 305.91 193.47 295.17"/><polygon class="cls-42" points="193.47 295.17 193.47 297.5 212.06 308.24 212.06 305.91 193.47 295.17"/><polygon class="cls-43" points="212.06 305.91 230.66 295.17 230.66 297.5 212.06 308.24 212.06 305.91"/><polygon class="cls-8" points="205.32 282 212.06 278.1 218.8 282 212.06 285.89 205.32 282"/><polygon class="cls-8" points="205.32 282 205.32 290.34 212.06 294.23 212.06 285.89 205.32 282"/><polygon class="cls-8" points="212.06 285.89 218.8 282 218.8 290.34 212.06 294.23 212.06 285.89"/><polygon class="cls-44" points="205.32 290.33 205.32 298.68 212.06 302.57 212.06 294.23 205.32 290.33"/><polygon class="cls-45" points="212.06 294.23 218.8 290.33 218.8 298.68 212.06 302.57 212.06 294.23"/><polygon class="cls-8" points="207.02 282.12 210.39 280.17 213.76 282.12 210.39 284.06 207.02 282.12"/><polygon class="cls-8" points="207.02 282.12 207.02 286.29 210.39 288.23 210.39 284.06 207.02 282.12"/><polygon class="cls-8" points="210.39 284.06 213.76 282.12 213.76 286.29 210.39 288.23 210.39 284.06"/><polygon class="cls-46" points="207.02 286.28 207.02 290.45 210.39 292.4 210.39 288.23 207.02 286.28"/><polygon class="cls-47" points="210.39 288.23 213.76 286.28 213.76 290.45 210.39 292.4 210.39 288.23"/><polygon class="cls-48" points="73.19 254.38 91.78 243.65 110.37 254.38 91.78 265.12 73.19 254.38"/><polygon class="cls-49" points="73.19 244.45 91.78 233.72 110.37 244.45 91.78 255.18 73.19 244.45"/><polygon class="cls-50" points="73.19 244.45 73.19 246.78 91.78 257.51 91.78 255.18 73.19 244.45"/><polygon class="cls-51" points="91.78 255.18 110.37 244.45 110.37 246.78 91.78 257.51 91.78 255.18"/><polygon class="cls-8" points="85.04 231.27 91.78 227.38 98.52 231.27 91.78 235.16 85.04 231.27"/><polygon class="cls-8" points="85.04 231.27 85.04 239.61 91.78 243.5 91.78 235.16 85.04 231.27"/><polygon class="cls-8" points="91.78 235.16 98.52 231.27 98.52 239.61 91.78 243.5 91.78 235.16"/><polygon class="cls-52" points="85.04 239.61 85.04 247.95 91.78 251.84 91.78 243.5 85.04 239.61"/><polygon class="cls-53" points="91.78 243.5 98.52 239.61 98.52 247.95 91.78 251.84 91.78 243.5"/><polygon class="cls-8" points="85.15 222.34 89.23 219.99 93.3 222.34 89.23 224.69 85.15 222.34"/><polygon class="cls-8" points="85.15 222.34 85.15 227.38 89.23 229.73 89.23 224.69 85.15 222.34"/><polygon class="cls-8" points="89.23 224.69 93.3 222.34 93.3 227.38 89.23 229.73 89.23 224.69"/><polygon class="cls-54" points="85.15 227.38 85.15 232.41 89.23 234.77 89.23 229.73 85.15 227.38"/><polygon class="cls-55" points="89.23 229.73 93.3 227.38 93.3 232.41 89.23 234.77 89.23 229.73"/><polyline class="cls-26" points="311.95 284.41 327.95 274.9 300.11 258.69 319.29 247.53"/><polygon class="cls-56" points="336.35 306.78 286.43 277.96 216.82 318.23 266.75 347.05 336.35 306.78"/><polygon class="cls-57" points="336.35 298.5 286.43 269.68 216.82 309.95 266.75 338.77 336.35 298.5"/><polygon class="cls-58" points="336.35 298.5 336.35 300.58 266.75 340.85 266.75 338.77 336.35 298.5"/><polygon class="cls-8" points="266.75 338.77 216.82 309.95 216.82 312.03 266.75 340.85 266.75 338.77"/><polygon class="cls-59" points="244.59 287.98 245.46 287.48 246.67 288.18 245.8 288.68 244.59 287.98"/><polygon class="cls-60" points="244.59 287.98 244.59 308.09 245.8 308.79 245.8 288.68 244.59 287.98"/><polygon class="cls-8" points="245.8 288.68 246.67 288.18 246.67 308.29 245.8 308.79 245.8 288.68"/><polygon class="cls-61" points="259.2 295.83 260.07 295.33 261.28 296.03 260.41 296.53 259.2 295.83"/><polygon class="cls-62" points="259.2 295.83 259.2 315.94 260.41 316.64 260.41 296.53 259.2 295.83"/><polygon class="cls-8" points="260.41 296.53 261.28 296.03 261.28 316.14 260.41 316.64 260.41 296.53"/><polygon class="cls-63" points="274.1 272.95 274.97 272.45 276.18 273.15 275.31 273.65 274.1 272.95"/><polygon class="cls-64" points="274.1 272.95 274.1 293.06 275.31 293.76 275.31 273.65 274.1 272.95"/><polygon class="cls-8" points="275.31 273.65 276.18 273.15 276.18 293.26 275.31 293.76 275.31 273.65"/><polygon class="cls-65" points="288.71 280.8 289.58 280.3 290.79 281 289.92 281.5 288.71 280.8"/><polygon class="cls-66" points="288.71 280.8 288.71 300.91 289.92 301.61 289.92 281.5 288.71 280.8"/><polygon class="cls-8" points="289.92 281.5 290.79 281 290.79 301.11 289.92 301.61 289.92 281.5"/><polygon class="cls-8" points="292 280.73 273.93 270.3 243.15 288.1 261.21 298.53 292 280.73"/><polygon class="cls-67" points="292 280.73 292 281.53 261.21 299.34 261.21 298.53 292 280.73"/><polygon class="cls-68" points="261.21 298.53 243.15 288.1 243.15 288.91 261.21 299.34 261.21 298.53"/><polygon class="cls-25" points="271.21 274.9 266.37 272.11 259.63 276.01 264.46 278.8 271.21 274.9"/><polygon class="cls-69" points="271.21 274.9 271.21 281.92 264.46 285.83 264.46 278.8 271.21 274.9"/><polygon class="cls-8" points="264.46 278.8 259.63 276.01 259.63 283.03 264.46 285.83 264.46 278.8"/><polygon class="cls-25" points="256.47 213.07 249.99 216.79 249.99 214.69 256.47 210.97 256.47 213.07"/><polygon class="cls-25" points="271.31 204.54 270.28 205.13 270.28 203.03 271.31 202.44 271.31 204.54"/><polygon class="cls-25" points="265.14 208.08 260.92 210.51 260.92 208.41 265.14 205.98 265.14 208.08"/><polygon class="cls-25" points="269.12 205.8 266.12 207.52 266.12 205.42 269.12 203.7 269.12 205.8"/><polygon class="cls-25" points="277.07 201.23 272.4 203.91 272.4 201.81 277.07 199.13 277.07 201.23"/><polygon class="cls-25" points="259.6 211.27 257.88 212.25 257.88 210.16 259.6 209.17 259.6 211.27"/><polygon class="cls-25" points="253.98 218.56 249.99 220.85 249.99 218.75 253.98 216.46 253.98 218.56"/><polygon class="cls-25" points="251.98 223.76 249.99 224.91 249.99 222.81 251.98 221.66 251.98 223.76"/><polygon class="cls-25" points="256.2 221.34 253.38 222.96 253.38 220.86 256.2 219.24 256.2 221.34"/><polygon class="cls-25" points="258.5 220.02 256.93 220.92 256.93 218.82 258.5 217.92 258.5 220.02"/><polygon class="cls-25" points="263.27 217.28 259.6 219.39 259.6 217.29 263.27 215.17 263.27 217.28"/><polygon class="cls-25" points="271.31 208.6 270.28 209.19 270.28 207.09 271.31 206.5 271.31 208.6"/><polygon class="cls-25" points="263.93 212.84 260.92 214.57 260.92 212.47 263.93 210.74 263.93 212.84"/><polygon class="cls-25" points="269.12 209.86 265.42 211.99 265.42 209.88 269.12 207.76 269.12 209.86"/><polygon class="cls-25" points="274.74 206.63 272.4 207.97 272.4 205.87 274.74 204.53 274.74 206.63"/><polygon class="cls-25" points="259.6 215.33 255.52 217.67 255.52 215.57 259.6 213.23 259.6 215.33"/><polygon class="cls-25" points="256.47 225.25 249.99 228.97 249.99 226.87 256.47 223.15 256.47 225.25"/><polygon class="cls-25" points="271.31 216.72 270.28 217.31 270.28 215.21 271.31 214.61 271.31 216.72"/><polygon class="cls-25" points="265.14 220.26 260.92 222.69 260.92 220.59 265.14 218.16 265.14 220.26"/><polygon class="cls-25" points="269.12 217.97 266.12 219.7 266.12 217.6 269.12 215.87 269.12 217.97"/><polygon class="cls-25" points="277.07 213.41 272.4 216.09 272.4 213.99 277.07 211.31 277.07 213.41"/><polygon class="cls-25" points="259.6 223.45 257.88 224.43 257.88 222.33 259.6 221.35 259.6 223.45"/><polygon class="cls-25" points="253.98 230.74 249.99 233.03 249.99 230.93 253.98 228.63 253.98 230.74"/><polygon class="cls-25" points="251.98 235.94 249.99 237.08 249.99 234.98 251.98 233.84 251.98 235.94"/><polygon class="cls-25" points="256.2 233.52 253.38 235.14 253.38 233.04 256.2 231.42 256.2 233.52"/><polygon class="cls-25" points="258.5 232.2 256.93 233.1 256.93 231 258.5 230.1 258.5 232.2"/><polygon class="cls-25" points="266.84 227.4 259.6 231.56 259.6 229.47 266.84 225.3 266.84 227.4"/><polygon class="cls-25" points="264.89 224.46 260.92 226.75 260.92 224.65 264.89 222.36 264.89 224.46"/><polygon class="cls-25" points="270.55 221.21 266.84 223.34 266.84 221.24 270.55 219.11 270.55 221.21"/><polygon class="cls-25" points="274.74 218.81 272.4 220.15 272.4 218.05 274.74 216.71 274.74 218.81"/><polygon class="cls-25" points="259.6 227.51 255.52 229.85 255.52 227.75 259.6 225.41 259.6 227.51"/><polygon class="cls-25" points="256.47 238.23 249.99 241.95 249.99 239.85 256.47 236.13 256.47 238.23"/><polygon class="cls-25" points="271.31 229.7 270.28 230.29 270.28 228.19 271.31 227.6 271.31 229.7"/><polygon class="cls-25" points="265.14 233.25 260.92 235.68 260.92 233.57 265.14 231.15 265.14 233.25"/><polygon class="cls-25" points="269.12 230.96 266.12 232.69 266.12 230.59 269.12 228.86 269.12 230.96"/><polygon class="cls-25" points="277.07 226.39 272.4 229.07 272.4 226.97 277.07 224.29 277.07 226.39"/><polygon class="cls-25" points="259.6 236.43 257.88 237.42 257.88 235.32 259.6 234.33 259.6 236.43"/><polygon class="cls-25" points="253.98 243.72 249.99 246.01 249.99 243.91 253.98 241.62 253.98 243.72"/><polygon class="cls-25" points="251.98 248.93 249.99 250.07 249.99 247.97 251.98 246.82 251.98 248.93"/><polygon class="cls-25" points="256.2 246.5 253.38 248.12 253.38 246.02 256.2 244.4 256.2 246.5"/><polygon class="cls-25" points="258.5 245.18 256.93 246.08 256.93 243.98 258.5 243.08 258.5 245.18"/><polygon class="cls-25" points="263.27 242.44 259.6 244.55 259.6 242.45 263.27 240.34 263.27 242.44"/><polygon class="cls-25" points="271.31 233.76 270.28 234.35 270.28 232.25 271.31 231.66 271.31 233.76"/><polygon class="cls-25" points="263.93 238.01 260.92 239.73 260.92 237.63 263.93 235.91 263.93 238.01"/><polygon class="cls-25" points="269.12 235.02 265.42 237.15 265.42 235.05 269.12 232.92 269.12 235.02"/><polygon class="cls-25" points="274.74 231.79 272.4 233.13 272.4 231.03 274.74 229.69 274.74 231.79"/><polygon class="cls-25" points="259.6 240.49 255.52 242.84 255.52 240.73 259.6 238.39 259.6 240.49"/><polygon class="cls-25" points="256.47 250.41 249.99 254.13 249.99 252.03 256.47 248.31 256.47 250.41"/><polygon class="cls-25" points="271.31 241.88 270.28 242.47 270.28 240.37 271.31 239.78 271.31 241.88"/><polygon class="cls-25" points="265.14 245.42 260.92 247.85 260.92 245.75 265.14 243.32 265.14 245.42"/><polygon class="cls-25" points="269.12 243.14 266.12 244.87 266.12 242.76 269.12 241.04 269.12 243.14"/><polygon class="cls-25" points="277.07 238.57 272.4 241.25 272.4 239.15 277.07 236.47 277.07 238.57"/><polygon class="cls-25" points="259.6 248.61 257.88 249.6 257.88 247.5 259.6 246.51 259.6 248.61"/><polygon class="cls-25" points="253.98 255.9 249.99 258.19 249.99 256.09 253.98 253.8 253.98 255.9"/><polygon class="cls-25" points="251.98 261.1 249.99 262.25 249.99 260.15 251.98 259 251.98 261.1"/><polygon class="cls-25" points="256.2 258.68 253.38 260.3 253.38 258.2 256.2 256.58 256.2 258.68"/><polygon class="cls-25" points="258.5 257.36 256.93 258.26 256.93 256.16 258.5 255.26 258.5 257.36"/><polygon class="cls-25" points="266.84 252.56 259.6 256.73 259.6 254.63 266.84 250.47 266.84 252.56"/><polygon class="cls-25" points="264.89 249.63 260.92 251.91 260.92 249.81 264.89 247.53 264.89 249.63"/><polygon class="cls-25" points="270.55 246.38 266.84 248.51 266.84 246.41 270.55 244.28 270.55 246.38"/><polygon class="cls-25" points="274.74 243.97 272.4 245.31 272.4 243.21 274.74 241.87 274.74 243.97"/><polygon class="cls-25" points="259.6 252.67 255.52 255.01 255.52 252.91 259.6 250.57 259.6 252.67"/><polygon class="cls-25" points="256.47 262.59 249.99 266.31 249.99 264.21 256.47 260.49 256.47 262.59"/><polygon class="cls-25" points="271.31 254.06 270.28 254.65 270.28 252.55 271.31 251.96 271.31 254.06"/><polygon class="cls-25" points="265.14 257.6 260.92 260.03 260.92 257.93 265.14 255.5 265.14 257.6"/><polygon class="cls-25" points="269.12 255.32 266.12 257.04 266.12 254.94 269.12 253.22 269.12 255.32"/><polygon class="cls-25" points="277.07 250.75 272.4 253.43 272.4 251.33 277.07 248.65 277.07 250.75"/><polygon class="cls-25" points="259.6 260.79 257.88 261.77 257.88 259.67 259.6 258.69 259.6 260.79"/><polygon class="cls-25" points="253.98 268.08 249.99 270.37 249.99 268.27 253.98 265.98 253.98 268.08"/><polygon class="cls-25" points="251.98 273.28 249.99 274.43 249.99 272.32 251.98 271.18 251.98 273.28"/><polygon class="cls-25" points="256.2 270.86 253.38 272.48 253.38 270.38 256.2 268.76 256.2 270.86"/><polygon class="cls-25" points="258.5 269.54 256.93 270.44 256.93 268.34 258.5 267.44 258.5 269.54"/><polygon class="cls-25" points="266.84 264.74 259.6 268.91 259.6 266.81 266.84 262.64 266.84 264.74"/><polygon class="cls-25" points="264.89 261.81 260.92 264.09 260.92 261.99 264.89 259.7 264.89 261.81"/><polygon class="cls-25" points="270.55 258.56 266.84 260.68 266.84 258.58 270.55 256.45 270.55 258.56"/><polygon class="cls-25" points="274.74 256.15 272.4 257.49 272.4 255.39 274.74 254.05 274.74 256.15"/><polygon class="cls-25" points="259.6 264.85 255.52 267.19 255.52 265.09 259.6 262.75 259.6 264.85"/><path class="cls-70" d="M279.69,266.36,248,284.59c-.77.44-1.4,0-1.4-1.08v-70a3.34,3.34,0,0,1,1.4-2.67l31.72-18.23c.77-.44,1.39,0,1.39,1.07v70A3.34,3.34,0,0,1,279.69,266.36Z"/><path class="cls-20" d="M277.63,311.07s-3.3-1.21-4-1.08-.9.16-1,.67a.74.74,0,0,0,.31.83c.07.05,5.41,3.16,5.74,3.39a1.26,1.26,0,0,0,1.75-.9v-1.66Z"/><path class="cls-8" d="M287.68,296.17s-3.52-2.52-5.71-2.92-4.78.57-5.22,6.24c-.42,5.41,1.1,11.1,1.1,12.26s2.63,1.82,2.63,1.31,1.69-10.86,2.11-11.88c5.56,4.55,14.89,7,14.6-3.76.08-1.85-8.25-1.35-8.3-1.25S287.68,296.17,287.68,296.17Z"/><polygon class="cls-71" points="294.52 301.9 290.29 299.46 284.38 302.88 288.62 305.32 294.52 301.9"/><polygon class="cls-72" points="294.52 301.9 294.52 316.73 288.62 320.14 288.62 305.32 294.52 301.9"/><polygon class="cls-8" points="288.62 305.32 284.38 302.88 284.38 317.7 288.62 320.14 288.62 305.32"/><g class="cls-73"><path class="cls-74" d="M285.5,308.43l-.44-.21-.74-.39-.39-.21-1.16-.65c-2.95-1.71-6-3.78-7.75-5l13.77-8c1.73,1.24,4.8,3.31,7.75,5q.58.35,1.17.66l.34.18.79.42.41.2.66.32.43.19.53.23a10.14,10.14,0,0,0,1.23.43,4.58,4.58,0,0,0,.56.14l.12,0a2.7,2.7,0,0,0,.62,0h0a1,1,0,0,0,.47-.13l-13.78,8h0l-.08,0-.11,0-.12,0h-.41l-.35,0h0l-.12,0a4.24,4.24,0,0,1-.46-.1l-.1,0c-.37-.11-.78-.25-1.23-.43l-.08,0-.45-.2-.43-.2C285.93,308.65,285.71,308.54,285.5,308.43Z"/><polygon class="cls-75" points="291.02 291.94 304.79 283.94 304.07 283.64 290.3 291.64 291.02 291.94"/><g class="cls-73"><g class="cls-76"><path class="cls-77" d="M290.66,310.53l13.77-8a.92.92,0,0,0,.26-.22c1.9-2.37.18-17.72.1-18.37l-13.77,8c.08.66,1.8,16-.1,18.37a.92.92,0,0,1-.26.22"/></g></g><path class="cls-78" d="M291,291.94l-.72-.3c0,.16,1.76,15.67,0,17.87-.76.95-4.06-.54-7.53-2.54-2.95-1.71-6-3.78-7.75-5l-.09.78c.72.52,4.22,3,7.79,5.06s7.23,3.72,8.2,2.52C292.82,307.94,291.1,292.6,291,291.94Z"/></g><g class="cls-79"><path class="cls-20" d="M271.44,313.71s-3.29-1.21-4-1.08-.9.16-1,.67a.76.76,0,0,0,.31.83c.07.05,5.41,3.16,5.74,3.39a1.26,1.26,0,0,0,1.75-.9V315Z"/><path class="cls-8" d="M284.11,299.05a75,75,0,0,0-8.33-2.8c-2.2-.4-4.78.57-5.22,6.24-.42,5.41,1.1,11.09,1.1,12.26s2.63,1.82,2.63,1.31.32-13.57.73-14.6c5.56,4.55,18.59,10.44,18.3-.28.08-1.85-3.81-3.66-3.87-3.56S284.11,299.05,284.11,299.05Z"/><path class="cls-20" d="M293.5,277.28c2.17-.33,2.8,2.62,2.92,3.31s0,5.29-.28,5.61-2.59.49-3-.14-.67-4.14-.72-5.25S292.39,277.45,293.5,277.28Z"/><path class="cls-80" d="M293.38,285.11l.13,1.16-7.45,2.82c-.51.25-.65,1.45-.41,1.58a92.58,92.58,0,0,0,10-2.75c1-.48.21-2.65.21-2.65Z"/><path class="cls-80" d="M282.19,291.24c.22.52,1.36.54,2.54,0s2-1.32,1.74-1.84-1.35-.54-2.53,0S282,290.72,282.19,291.24Z"/><path class="cls-20" d="M284.63,281s5.9-4.14,9-3.79,4.74,12.74,3.95,18.81-9.79,7-12.3,6.28-1.74-2-1.74-2,.77-9.64.77-11.36S283.26,282.72,284.63,281Z"/><path class="cls-80" d="M270.2,268.78a8.23,8.23,0,0,1,.36,1c.14-.29.32-.48.5-.46s.5.67.4,1.41-.36,1.16-.64,1.24l4.34,10.39,1.6-.22-.06,3.59s-3,1.12-3.7-.23-4.12-12.29-4.44-14a6.82,6.82,0,0,1-.93-1.51c-.77-1.67-.81-3.29-.1-3.61S269.43,267.11,270.2,268.78Z"/><path class="cls-20" d="M286.94,282.23c.35,1.48-1.3,2.8-2.24,3s-8.07,1.38-8.54,1-.84-3.68,0-4.3,5.72-1.07,7.27-1.17S286.56,280.66,286.94,282.23Z"/><path class="cls-80" d="M290.87,278.58c.23,1.1-3.67,2.32-3.86,1.39l-1-5.12,4-.81S290.65,277.48,290.87,278.58Z"/><path class="cls-80" d="M283.86,270.4s-.37,5.33,0,6.05,4.69-.64,4.86-1.55.46-3.13.46-3.13.1-3.36-2-3.44S283.83,269,283.86,270.4Z"/><path class="cls-20" d="M283.89,270.79c-1.27-.12-1.25-.81-1.27-1.76,0-1.41,1.08-2.79,2.24-2.57.17,1.79,3.76,1.65,5.28,2.14.84.28,2.75,1.27,2,4.55-.17.76-.84,2.4-1.2,3.5a2,2,0,0,1-1.54,1.25l-.15,0a2,2,0,0,1-2.24-1.11c-.17-.36-.3-.67-.38-.8-.22-.33.5-2.88,0-3.17s-1.13.63-1.56.36S285.09,270.91,283.89,270.79Z"/></g><polyline class="cls-26" points="133.62 291.33 216.42 339.3 241.02 325.09"/><polygon class="cls-81" points="21.17 213.63 41.16 202.09 69.02 218.21 49.03 229.75 21.17 213.63"/><polygon class="cls-82" points="21.17 246.75 41.16 235.21 69.02 251.33 49.03 262.87 21.17 246.75"/><polygon class="cls-83" points="21.17 213.63 21.17 242.64 49.03 258.76 49.03 229.75 21.17 213.63"/><polygon class="cls-8" points="49.03 229.75 69.02 218.21 69.02 247.22 49.03 258.76 49.03 229.75"/><polygon class="cls-25" points="41.21 206.71 46.05 203.92 52.79 207.82 47.96 210.62 41.21 206.71"/><polygon class="cls-84" points="41.21 206.71 41.21 213.74 47.96 217.64 47.96 210.62 41.21 206.71"/><polygon class="cls-8" points="47.96 210.62 52.79 207.82 52.79 214.85 47.96 217.64 47.96 210.62"/><path class="cls-8" d="M69.89,220.45l-41.63-24.1a4.62,4.62,0,0,1-2.05-3.62V145.47c0-1.34.92-1.89,2.05-1.24l41.63,24.11a4.59,4.59,0,0,1,2,3.61v47.26C71.94,220.55,71,221.11,69.89,220.45Z"/><path class="cls-85" d="M33.49,163.36c4.56-.93,6.93,2.75,9.46,4.15s4.75-1.59,7.48,0,4.41,6.29,6.33,7.4,2.85-.78,5.56.79,3.24,6.23,4.56,7"/><path class="cls-20" d="M63.14,180.53c-4.56-6.21-6.92-5.27-9.46-6.81s-4.75-7.09-7.47-8.67-4.42,1.18-6.33.08-2.85-4.08-5.56-5.65-3.24,2.48-4.57,1.71"/><polyline class="cls-86" points="29.22 149.32 29.22 162.99 68.43 185.7"/><line class="cls-87" x1="32.84" y1="165.09" x2="32.84" y2="151.42"/><line class="cls-87" x1="36.92" y1="167.45" x2="36.92" y2="153.78"/><line class="cls-87" x1="41" y1="169.81" x2="41" y2="156.14"/><line class="cls-87" x1="45.07" y1="172.17" x2="45.07" y2="158.5"/><line class="cls-87" x1="49.15" y1="174.53" x2="49.15" y2="160.86"/><line class="cls-87" x1="53.23" y1="176.89" x2="53.23" y2="163.22"/><line class="cls-87" x1="57.3" y1="179.25" x2="57.3" y2="165.58"/><line class="cls-87" x1="61.38" y1="181.61" x2="61.38" y2="167.94"/><line class="cls-87" x1="65.46" y1="183.97" x2="65.46" y2="170.3"/><path class="cls-88" d="M37.27,176.41c0,2.63-1.8,3.72-4,2.44a9,9,0,0,1-4-7.1c0-2.63,1.8-3.72,4-2.44A9,9,0,0,1,37.27,176.41Z"/><path class="cls-89" d="M33.24,178.85a9,9,0,0,1-4-7.1c0-2.63,1.8-3.72,4-2.44a9,9,0,0,1,4,7.1"/><path class="cls-88" d="M47.66,182.42c0,2.64-1.8,3.73-4,2.44a9,9,0,0,1-4-7.1c0-2.63,1.8-3.72,4-2.43A9,9,0,0,1,47.66,182.42Z"/><path class="cls-89" d="M39.61,177.76c0-2.63,1.8-3.72,4-2.43a9,9,0,0,1,4,7.09"/><ellipse class="cls-88" cx="54.02" cy="186.11" rx="3.32" ry="5.77" transform="translate(-82.83 48.9) rotate(-28.74)"/><path class="cls-89" d="M54,190.88a9,9,0,0,1-4-7.1c0-2.63,1.8-3.72,4-2.44a8.25,8.25,0,0,1,2.85,3"/><path class="cls-88" d="M68.43,194.45c0,2.64-1.8,3.73-4,2.44a9,9,0,0,1-4-7.1c0-2.63,1.81-3.72,4-2.43A9,9,0,0,1,68.43,194.45Z"/><path class="cls-89" d="M64.41,196.89a9,9,0,0,1-4-7.1"/><path class="cls-90" d="M47.69,197.58c0,1.75-1.2,2.48-2.68,1.62a6,6,0,0,1-2.68-4.72c0-1.76,1.2-2.48,2.68-1.62A6,6,0,0,1,47.69,197.58Z"/><path class="cls-91" d="M45,199.2a6,6,0,0,1-2.68-4.72c0-1.76,1.2-2.48,2.68-1.62a6,6,0,0,1,2.68,4.72"/><path class="cls-90" d="M54.6,201.58c0,1.75-1.2,2.48-2.68,1.62a6,6,0,0,1-2.67-4.72c0-1.75,1.2-2.48,2.67-1.62A6,6,0,0,1,54.6,201.58Z"/><path class="cls-91" d="M49.25,198.48c0-1.75,1.2-2.48,2.67-1.62a6,6,0,0,1,2.68,4.72"/><path class="cls-90" d="M61.52,205.59c0,1.75-1.2,2.47-2.68,1.62a6,6,0,0,1-2.68-4.73c0-1.75,1.2-2.47,2.68-1.62A6,6,0,0,1,61.52,205.59Z"/><path class="cls-91" d="M58.84,207.21a6,6,0,0,1-2.68-4.73c0-1.75,1.2-2.47,2.68-1.62a5.39,5.39,0,0,1,1.89,2"/><path class="cls-90" d="M68.43,209.59c0,1.75-1.2,2.48-2.68,1.62a6,6,0,0,1-2.67-4.72c0-1.75,1.19-2.48,2.67-1.62A6,6,0,0,1,68.43,209.59Z"/><path class="cls-91" d="M65.75,211.21a6,6,0,0,1-2.67-4.72"/><path class="cls-25" d="M30.34,181.35c0,.27-.19.39-.42.25a1,1,0,0,1-.42-.74c0-.28.19-.39.42-.26A1,1,0,0,1,30.34,181.35Z"/><path class="cls-25" d="M32.12,182.37c0,.28-.19.39-.43.26a1,1,0,0,1-.42-.74c0-.28.19-.4.42-.26A.93.93,0,0,1,32.12,182.37Z"/><path class="cls-25" d="M33.89,183.4c0,.28-.19.39-.42.26a1,1,0,0,1-.43-.75c0-.27.19-.39.43-.25A.93.93,0,0,1,33.89,183.4Z"/><path class="cls-25" d="M35.66,184.43c0,.27-.19.39-.42.25a1,1,0,0,1-.42-.74c0-.28.19-.39.42-.26A1,1,0,0,1,35.66,184.43Z"/><path class="cls-25" d="M37.43,185.45c0,.28-.18.39-.42.26a1,1,0,0,1-.42-.75c0-.27.19-.39.42-.25A.92.92,0,0,1,37.43,185.45Z"/><path class="cls-25" d="M39.21,186.48c0,.28-.19.39-.42.26a1,1,0,0,1-.43-.75c0-.27.19-.39.43-.25A.93.93,0,0,1,39.21,186.48Z"/><path class="cls-25" d="M41,187.51c0,.27-.19.39-.42.25a1,1,0,0,1-.42-.74c0-.28.19-.39.42-.26A1,1,0,0,1,41,187.51Z"/><path class="cls-25" d="M42.75,188.53c0,.28-.19.39-.42.26a1,1,0,0,1-.42-.75c0-.27.19-.39.42-.25A1,1,0,0,1,42.75,188.53Z"/><path class="cls-25" d="M47.66,191.37c0,.28-.19.39-.43.26a1,1,0,0,1-.42-.75c0-.27.19-.39.42-.25A.93.93,0,0,1,47.66,191.37Z"/><polygon class="cls-25" points="40.61 192.09 29.22 185.5 29.22 184.9 40.61 191.5 40.61 192.09"/><polygon class="cls-25" points="40.61 193.78 29.22 187.18 29.22 186.59 40.61 193.19 40.61 193.78"/><polygon class="cls-25" points="40.61 195.46 29.22 188.87 29.22 188.28 40.61 194.87 40.61 195.46"/><path class="cls-92" d="M12.22,223.31l3.6,2.82,7-5.4.72,1.46s-6,7.16-7.78,8S13,227.13,13,227.13Z"/><path class="cls-8" d="M10.45,272.36a21.9,21.9,0,0,1,3.55-1c.76,0,1.07,1.14-.14,1.92-1.4.92-3.73,2.13-4.49,2.56S8,275.28,8,274.48s0-2.39.44-2.41A15.87,15.87,0,0,1,10.45,272.36Z"/><path class="cls-8" d="M17.52,276.16a24.58,24.58,0,0,1,3.75-1c.75,0,1.1,1.19-.15,1.92s-3.44,2-4.2,2.39-1.69,0-1.66-.76,0-2.84.43-2.86A10.79,10.79,0,0,1,17.52,276.16Z"/><path class="cls-20" d="M7.55,238.39c2.94-2.27,3-1.56,3-1.56L12.44,239c2-1.74,5.54-.39,6.27,1,2,3.91-1.15,34.13-1.15,35.76a1.11,1.11,0,1,1-2.22,0c0-1.47-1.19-18-1.19-18a89.42,89.42,0,0,1-2.48-11l.55,9.53s-1.25,14.87-1.28,16-2.68,2-2.69.22c0-3.54-.86-13.25-1.06-15.11S4.6,240.67,7.55,238.39Z"/><path class="cls-93" d="M8.91,219.44c2.08-1,9.78,1,10.14,3.78s1.62,4.91.18,6.23c-2.63,2.43-.14,9.2-.35,10.55s-6.45,4.85-12.57.43c-.79-.92,1-4.93.93-6.21s.2-5.62.13-7.47S6.91,220.4,8.91,219.44Z"/><path class="cls-92" d="M15.37,216.12v4.51c0,.66-3.7.14-3.7-2.25V211.8h3.7Z"/><path class="cls-92" d="M17.23,211c.76.36.66,7.12,0,7.26a16,16,0,0,1-4.42-.85c-1.14-.38-2.28-2-2.28-4S14.66,209.74,17.23,211Z"/><path class="cls-20" d="M14.15,209.26c1.18-.19,4.07-.09,4.31,1.76s-.33,2.37-1.71,2.85-1.76.47-1.38,1.13-.37,3.48-1.66,3.48-2.13-.11-2.51-1a11.28,11.28,0,0,1-1.19-5C10,210.12,14.15,209.26,14.15,209.26Z"/><path class="cls-20" d="M11.16,211.8c-5.28-.5-.69,12.6-3.35,13.81,4.65-.72,4.41-10.81,4.41-11.78S12,211.88,11.16,211.8Z"/><rect class="cls-25" x="22.2" y="214.61" width="5.31" height="7.74" rx="0.39" transform="translate(100.19 11.9) rotate(26.53)"/><rect class="cls-94" x="22.46" y="214.99" width="4.79" height="6.98" rx="0.35" transform="translate(100.19 11.9) rotate(26.53)"/><path class="cls-92" d="M27.33,220.46c-.66-.21-1.46.48-1.8,1.54a1.1,1.1,0,0,0,0,.16.32.32,0,0,0-.19,0c-.25,0-.42.36-.37.73s.27.6.5.61v0l-4.54,7.42-1.12-3.4-2.45,1.86s1.83,5,3.28,5c2.85,0,6-9.46,6.25-10.21a2.45,2.45,0,0,0,1-1.39C28.25,221.7,28,220.67,27.33,220.46Z"/><path class="cls-20" d="M15.48,223c-.16.61,0,3.38,1.76,6.75L20.11,228s-.71-4.44-1.26-5.41C18,221.09,16,221,15.48,223Z"/><polygon class="cls-95" points="27.16 309.95 77.08 281.13 146.69 321.4 96.77 350.22 27.16 309.95"/><polygon class="cls-96" points="27.16 301.67 77.08 272.85 146.69 313.12 96.77 341.94 27.16 301.67"/><polygon class="cls-97" points="27.16 301.67 27.16 303.75 96.77 344.02 96.77 341.94 27.16 301.67"/><polygon class="cls-8" points="96.77 341.94 146.69 313.12 146.69 315.2 96.77 344.02 96.77 341.94"/><polygon class="cls-98" points="118.92 291.08 118.05 290.58 116.84 291.28 117.71 291.78 118.92 291.08"/><polygon class="cls-99" points="118.92 291.08 118.92 311.19 117.71 311.89 117.71 291.78 118.92 291.08"/><polygon class="cls-8" points="117.71 291.78 116.84 291.28 116.84 311.38 117.71 311.89 117.71 291.78"/><polygon class="cls-100" points="104.31 298.93 103.44 298.43 102.23 299.13 103.1 299.63 104.31 298.93"/><polygon class="cls-101" points="104.31 298.93 104.31 319.04 103.1 319.74 103.1 299.63 104.31 298.93"/><polygon class="cls-8" points="103.1 299.63 102.23 299.13 102.23 319.24 103.1 319.74 103.1 299.63"/><polygon class="cls-102" points="89.41 276.05 88.54 275.55 87.33 276.25 88.2 276.75 89.41 276.05"/><polygon class="cls-103" points="89.41 276.05 89.41 296.16 88.2 296.86 88.2 276.75 89.41 276.05"/><polygon class="cls-8" points="88.2 276.75 87.33 276.25 87.33 296.36 88.2 296.86 88.2 276.75"/><polygon class="cls-104" points="74.8 283.9 73.93 283.4 72.72 284.1 73.59 284.6 74.8 283.9"/><polygon class="cls-105" points="74.8 283.9 74.8 304.01 73.59 304.71 73.59 284.6 74.8 283.9"/><polygon class="cls-8" points="73.59 284.6 72.72 284.1 72.72 304.21 73.59 304.71 73.59 284.6"/><polygon class="cls-20" points="71.51 283.83 89.58 273.4 120.36 291.2 102.3 301.63 71.51 283.83"/><polygon class="cls-106" points="71.51 283.83 71.51 284.63 102.3 302.44 102.3 301.63 71.51 283.83"/><polygon class="cls-8" points="102.3 301.63 120.36 291.2 120.36 292.01 102.3 302.44 102.3 301.63"/><path class="cls-107" d="M94.47,277v4.42a2.47,2.47,0,0,1-1.24,2.14l-3.82,2.2,5.9,3.41,3.82-2.21a2.45,2.45,0,0,0,1.24-2.13v-4.42Z"/><path class="cls-108" d="M94.37,276.72v4.42a2.46,2.46,0,0,1-1.21,2.13l-3.75,2.21,5.9,3.37L99,286.68a2.48,2.48,0,0,0,1.21-2.14v-4.41Z"/><polygon class="cls-109" points="109.64 289.63 85.19 275.5 85.19 258.96 109.64 273.08 109.64 289.63"/><polygon class="cls-110" points="89.41 285.72 89.41 285.48 95.31 288.86 95.31 289.13 89.41 285.72"/><polygon class="cls-111" points="109.64 289.63 110.15 289.32 110.15 272.78 109.64 273.08 109.64 289.63"/><polygon class="cls-8" points="110.15 272.78 85.7 258.66 85.19 258.96 109.64 273.08 110.15 272.78"/><polygon class="cls-112" points="108.8 273.56 86.04 260.42 86.04 275.02 108.8 288.16 108.8 273.56"/><polyline class="cls-113" points="105.67 284.81 104.25 283.74 103.14 281.61 102.53 282.35 101.73 281.29 101.04 281.78 99.88 278.71 99.45 279.31 98.62 277.13"/><polyline class="cls-113" points="106.44 280.61 106.44 285.74 97.45 280.62"/><path class="cls-20" d="M105.54,284.73a.27.27,0,0,0,.13.2c.08.05.14,0,.14-.05a.25.25,0,0,0-.14-.2C105.6,284.63,105.54,284.66,105.54,284.73Z"/><path class="cls-20" d="M104.12,283.66a.28.28,0,0,0,.13.21c.08,0,.14,0,.14-.06a.25.25,0,0,0-.14-.2C104.18,283.57,104.12,283.59,104.12,283.66Z"/><path class="cls-20" d="M103,281.53a.27.27,0,0,0,.13.2c.07,0,.13,0,.13-.05a.27.27,0,0,0-.13-.2C103.07,281.43,103,281.46,103,281.53Z"/><path class="cls-20" d="M102.4,282.28a.27.27,0,0,0,.13.2c.07,0,.13,0,.13-.05a.27.27,0,0,0-.13-.2C102.46,282.18,102.4,282.21,102.4,282.28Z"/><path class="cls-20" d="M101.59,281.21a.27.27,0,0,0,.14.21c.07,0,.13,0,.13-.06a.27.27,0,0,0-.13-.2C101.65,281.12,101.59,281.14,101.59,281.21Z"/><path class="cls-20" d="M100.9,281.7a.29.29,0,0,0,.14.21c.07,0,.13,0,.13-.06a.27.27,0,0,0-.13-.2C101,281.61,100.9,281.63,100.9,281.7Z"/><path class="cls-20" d="M99.75,278.63a.27.27,0,0,0,.13.21c.08,0,.14,0,.14,0a.26.26,0,0,0-.14-.21C99.81,278.54,99.75,278.56,99.75,278.63Z"/><path class="cls-20" d="M99.31,279.23a.25.25,0,0,0,.14.2c.07.05.13,0,.13-.05a.27.27,0,0,0-.13-.2C99.37,279.13,99.31,279.16,99.31,279.23Z"/><path class="cls-20" d="M98.49,277.05a.3.3,0,0,0,.13.21c.07,0,.13,0,.13-.06a.27.27,0,0,0-.13-.2C98.55,277,98.49,277,98.49,277.05Z"/><polygon class="cls-114" points="97.61 274.31 106.44 279.34 106.44 278.6 97.61 273.57 97.61 274.31"/><polygon class="cls-114" points="87.37 270.12 96.19 275.14 96.19 272.77 87.37 267.74 87.37 270.12"/><polygon class="cls-20" points="97.61 268.83 106.44 273.86 106.44 273.25 97.61 268.22 97.61 268.83"/><polygon class="cls-20" points="98.49 270.25 106.44 274.78 106.44 274.17 98.49 269.64 98.49 270.25"/><polygon class="cls-20" points="97.61 270.68 106.44 275.7 106.44 275.09 97.61 270.07 97.61 270.68"/><polygon class="cls-20" points="99.58 272.72 106.44 276.63 106.44 276.01 99.58 272.11 99.58 272.72"/><polygon class="cls-114" points="87.37 273.49 96.19 278.51 96.19 276.13 87.37 271.11 87.37 273.49"/><polygon class="cls-114" points="87.37 274.91 96.19 279.94 96.19 279.28 87.37 274.25 87.37 274.91"/><path class="cls-114" d="M89.54,265.47a4.54,4.54,0,0,0,2.24,3.44c1.24.7,2.24.31,2.24-.89a4.55,4.55,0,0,0-2.24-3.44C90.54,263.88,89.54,264.28,89.54,265.47Z"/><path class="cls-20" d="M91.78,266.75l2.15.62A2.48,2.48,0,0,1,94,268c0,1.06-.78,1.49-1.82,1.09Z"/><polygon class="cls-115" points="91.39 293.22 81.57 287.55 85.73 285.14 95.56 290.82 91.39 293.22"/><polygon class="cls-116" points="94.67 290.64 94.07 290.3 93.47 290.64 94.07 290.99 94.67 290.64"/><polygon class="cls-116" points="93.77 291.16 93.18 290.82 92.58 291.16 93.18 291.5 93.77 291.16"/><polygon class="cls-116" points="92.88 291.68 92.28 291.33 91.69 291.68 92.28 292.02 92.88 291.68"/><polygon class="cls-116" points="91.99 292.19 91.39 291.85 90.8 292.19 91.39 292.54 91.99 292.19"/><polygon class="cls-116" points="93.77 290.13 93.18 289.79 92.58 290.13 93.18 290.47 93.77 290.13"/><polygon class="cls-116" points="92.88 290.64 92.28 290.3 91.69 290.64 92.28 290.99 92.88 290.64"/><polygon class="cls-116" points="91.99 291.16 91.39 290.82 90.8 291.16 91.39 291.5 91.99 291.16"/><polygon class="cls-116" points="91.09 291.68 90.5 291.33 89.9 291.68 90.5 292.02 91.09 291.68"/><polygon class="cls-116" points="92.88 289.61 92.28 289.27 91.69 289.61 92.28 289.96 92.88 289.61"/><polygon class="cls-116" points="91.99 290.13 91.39 289.79 90.8 290.13 91.39 290.47 91.99 290.13"/><polygon class="cls-116" points="91.09 290.64 90.5 290.3 89.9 290.64 90.5 290.99 91.09 290.64"/><polygon class="cls-116" points="90.2 291.16 89.61 290.82 89.01 291.16 89.61 291.5 90.2 291.16"/><polygon class="cls-116" points="91.99 289.1 91.39 288.75 90.8 289.1 91.39 289.44 91.99 289.1"/><polygon class="cls-116" points="91.09 289.61 90.5 289.27 89.9 289.61 90.5 289.96 91.09 289.61"/><polygon class="cls-116" points="90.2 290.13 89.61 289.79 89.01 290.13 89.61 290.47 90.2 290.13"/><polygon class="cls-116" points="91.09 288.58 90.5 288.24 89.9 288.58 90.5 288.93 91.09 288.58"/><polygon class="cls-116" points="90.2 289.1 89.61 288.75 89.01 289.1 89.61 289.44 90.2 289.1"/><polygon class="cls-116" points="89.31 289.61 88.71 289.27 88.12 289.61 88.71 289.96 89.31 289.61"/><polygon class="cls-116" points="89.01 290.47 86.03 288.75 85.44 289.1 88.42 290.82 89.01 290.47"/><polygon class="cls-116" points="90.2 288.07 89.61 287.72 89.01 288.07 89.61 288.41 90.2 288.07"/><polygon class="cls-116" points="89.31 288.58 88.71 288.24 88.12 288.58 88.71 288.93 89.31 288.58"/><polygon class="cls-116" points="88.42 289.1 87.82 288.75 87.22 289.1 87.82 289.44 88.42 289.1"/><polygon class="cls-116" points="89.31 287.55 88.71 287.21 88.12 287.55 88.71 287.89 89.31 287.55"/><polygon class="cls-116" points="88.42 288.07 87.82 287.72 87.22 288.07 87.82 288.41 88.42 288.07"/><polygon class="cls-116" points="87.52 288.58 86.93 288.24 86.33 288.58 86.93 288.93 87.52 288.58"/><polygon class="cls-116" points="88.42 287.04 87.82 286.69 87.22 287.04 87.82 287.38 88.42 287.04"/><polygon class="cls-116" points="87.52 287.55 86.93 287.21 86.33 287.55 86.93 287.89 87.52 287.55"/><polygon class="cls-116" points="86.63 288.07 86.03 287.72 85.44 288.07 86.03 288.41 86.63 288.07"/><polygon class="cls-116" points="85.73 288.58 85.14 288.24 84.55 288.58 85.14 288.93 85.73 288.58"/><polygon class="cls-116" points="87.52 286.52 86.93 286.18 86.33 286.52 86.93 286.86 87.52 286.52"/><polygon class="cls-116" points="86.63 287.04 86.03 286.69 85.44 287.04 86.03 287.38 86.63 287.04"/><polygon class="cls-116" points="85.73 287.55 85.14 287.21 84.55 287.55 85.14 287.89 85.73 287.55"/><polygon class="cls-116" points="84.84 288.07 84.25 287.72 83.65 288.07 84.25 288.41 84.84 288.07"/><polygon class="cls-116" points="86.63 286 86.03 285.66 85.44 286 86.03 286.35 86.63 286"/><polygon class="cls-116" points="85.73 286.52 85.14 286.18 84.55 286.52 85.14 286.86 85.73 286.52"/><polygon class="cls-116" points="84.84 287.04 84.25 286.69 83.65 287.04 84.25 287.38 84.84 287.04"/><polygon class="cls-116" points="84 287.55 83.41 287.21 82.81 287.55 83.41 287.89 84 287.55"/><polygon class="cls-117" points="91.39 293.22 91.39 293.41 81.57 287.72 81.57 287.55 91.39 293.22"/><polygon class="cls-118" points="91.39 293.41 95.56 290.99 95.56 290.82 91.39 293.22 91.39 293.41"/><polygon class="cls-119" points="103.67 298.39 109.18 295.21 100.92 290.45 95.42 293.63 103.67 298.39"/><polygon class="cls-120" points="103.67 298.39 103.67 298.48 109.18 295.3 109.18 295.21 103.67 298.39"/><polygon class="cls-121" points="103.67 298.48 95.42 293.71 95.42 293.63 103.67 298.39 103.67 298.48"/><path class="cls-122" d="M102.06,296.05c-.48,0-1.64-.22-1.59-1a3.92,3.92,0,0,1,3-1.9s1.44.05,1.73,1a.3.3,0,0,1-.14.34L102.44,296A.63.63,0,0,1,102.06,296.05Z"/><path class="cls-8" d="M88.05,312.57s3.3-1.21,4-1.07.9.15,1,.67a.74.74,0,0,1-.31.83c-.07,0-5.41,3.16-5.74,3.38a1.25,1.25,0,0,1-1.74-.89v-1.66Z"/><path class="cls-20" d="M78,297.68s3.52-2.53,5.72-2.92,4.78.57,5.22,6.24c.42,5.41-1.11,11.09-1.11,12.26s-2.62,1.82-2.62,1.31-1.7-10.86-2.11-11.89c-5.56,4.55-14.9,7-14.61-3.75-.08-1.85,8.25-1.36,8.3-1.25A4.89,4.89,0,0,0,78,297.68Z"/><polygon class="cls-123" points="71.16 303.41 75.4 300.96 81.3 304.38 77.06 306.83 71.16 303.41"/><polygon class="cls-124" points="71.16 303.41 71.16 318.23 77.06 321.65 77.06 306.83 71.16 303.41"/><polygon class="cls-8" points="77.06 306.83 81.3 304.38 81.3 319.2 77.06 321.65 77.06 306.83"/><g class="cls-73"><path class="cls-125" d="M80.19,309.94l.43-.22.74-.39.39-.21c.38-.21.77-.42,1.16-.65,3-1.7,6-3.77,7.75-5l-13.77-8c-1.73,1.24-4.8,3.31-7.75,5l-1.17.66-.33.18-.79.41-.42.21-.66.32-.42.19-.54.23a12.21,12.21,0,0,1-1.23.43c-.19.06-.38.1-.56.14l-.11,0a2.87,2.87,0,0,1-.63,0h0a1.19,1.19,0,0,1-.47-.13l13.77,8h0l.08,0,.11,0,.13,0,.14,0h.27l.34,0h0l.12,0,.46-.1.09,0a10.14,10.14,0,0,0,1.23-.43l.08,0,.45-.2.43-.19Z"/><polygon class="cls-126" points="74.66 293.44 60.89 285.44 61.61 285.14 75.38 293.15 74.66 293.44"/><g class="cls-73"><g class="cls-127"><path class="cls-128" d="M75,312l-13.77-8a.8.8,0,0,1-.26-.22c-1.91-2.37-.19-17.71-.11-18.37l13.77,8c-.08.66-1.8,16,.11,18.37A.83.83,0,0,0,75,312"/></g></g><path class="cls-129" d="M74.66,293.44l.72-.29c0,.16-1.76,15.67,0,17.86.77,1,4.07-.54,7.53-2.54,3-1.7,6-3.77,7.75-5l.09.78c-.71.51-4.21,3-7.78,5.05s-7.24,3.72-8.2,2.52C72.86,309.45,74.58,294.1,74.66,293.44Z"/></g><g class="cls-130"><path class="cls-8" d="M94.24,315.21s3.3-1.21,4-1.07.9.15,1,.67a.74.74,0,0,1-.31.83c-.07,0-5.41,3.15-5.74,3.38a1.26,1.26,0,0,1-1.75-.89v-1.66Z"/><path class="cls-20" d="M81.57,300.55a78,78,0,0,1,8.33-2.8c2.2-.39,4.78.57,5.22,6.24.42,5.41-1.1,11.1-1.1,12.26s-2.63,1.82-2.63,1.31S91.08,304,90.66,303c-5.56,4.55-18.59,10.44-18.3-.29-.08-1.85,3.82-3.66,3.87-3.55S81.57,300.55,81.57,300.55Z"/><path class="cls-131" d="M71.5,278.78c-2.13.53-1.56,3.49-1.41,4.17s2,4.89,2.43,5.07,2.58-.55,2.73-1.3-1-4.07-1.37-5.12S72.59,278.5,71.5,278.78Z"/><path class="cls-80" d="M74.65,285.94l.32,1.12,8-.28c.57,0,1.17,1.08,1,1.29a91.59,91.59,0,0,1-10.32,1.35c-1.07-.06-1.22-2.36-1.22-2.36Z"/><path class="cls-92" d="M87.33,287.26c0,.56-1,1-2.32,1s-2.32-.46-2.32-1,1-1,2.32-1S87.33,286.7,87.33,287.26Z"/><path class="cls-8" d="M81.05,282.48s-5.9-4.13-9-3.79-4.73,12.74-3.95,18.82,9.79,7,12.3,6.27,1.74-2,1.74-2-.77-9.63-.77-11.36S82.42,284.22,81.05,282.48Z"/><path class="cls-92" d="M100.59,293.27a8.34,8.34,0,0,0-1,.07c.2-.25.3-.49.21-.65s-.82-.16-1.45.23-.91.81-.86,1.1l-11.26.39-.46-1.55-3.24,1.55s.22,3.17,1.75,3.27,12.89-1.38,14.58-1.81a6.72,6.72,0,0,0,1.76.22c1.84,0,3.32-.63,3.32-1.41S102.43,293.27,100.59,293.27Z"/><path class="cls-8" d="M80.8,282.31c-1.49.3-1.42,3.69-1.2,4.63s2.1,7.91,2.67,8.17,3.7-.77,3.91-1.79-1.41-5.65-2-7.1S82.39,282,80.8,282.31Z"/><path class="cls-92" d="M74.81,280.08c-.22,1.1,3.67,2.33,3.86,1.39l1-5.12-4-.8S75,279,74.81,280.08Z"/><path class="cls-92" d="M81.83,271.9s-.51,5.37-.88,6.08-3.81-.66-4-1.57-.46-3.13-.46-3.13-.11-3.36,2-3.44S81.86,270.47,81.83,271.9Z"/><path class="cls-20" d="M81.79,272.3c1.13,0,1.31-1.36,1-2.24a2.43,2.43,0,0,0-2.73-1.22c-1.16.22-3.31.89-4.18.74s-2.42,2.19-2.3,3.37,1.59,5.77,1.48,6.29a6.81,6.81,0,0,1,2.67.7,15,15,0,0,0,1.28-2.4c.22-.33-.51-2.89,0-3.17s1.13.63,1.56.35S80.59,272.26,81.79,272.3Z"/></g><line class="cls-27" x1="151.32" y1="331.88" x2="203.36" y2="301.98"/><line class="cls-27" x1="151.32" y1="279.99" x2="100.9" y2="251.03"/><polygon class="cls-132" points="123.43 345.6 142.02 334.87 160.62 345.6 142.02 356.33 123.43 345.6"/><polygon class="cls-133" points="123.43 335.67 142.02 324.93 160.62 335.67 142.02 346.4 123.43 335.67"/><polygon class="cls-134" points="123.43 335.67 123.43 337.99 142.02 348.73 142.02 346.4 123.43 335.67"/><polygon class="cls-135" points="142.02 346.4 160.62 335.67 160.62 337.99 142.02 348.73 142.02 346.4"/><polygon class="cls-8" points="135.28 322.49 142.02 318.59 148.76 322.49 142.02 326.38 135.28 322.49"/><polygon class="cls-8" points="135.28 322.49 135.28 330.83 142.02 334.72 142.02 326.38 135.28 322.49"/><polygon class="cls-8" points="142.02 326.38 148.76 322.49 148.76 330.83 142.02 334.72 142.02 326.38"/><polygon class="cls-136" points="135.28 330.82 135.28 339.17 142.02 343.06 142.02 334.72 135.28 330.82"/><polygon class="cls-137" points="142.02 334.72 148.76 330.82 148.76 339.17 142.02 343.06 142.02 334.72"/><polygon class="cls-8" points="144.81 315.41 147.84 313.65 150.88 315.41 147.84 317.16 144.81 315.41"/><polygon class="cls-8" points="144.81 315.41 144.81 319.16 147.84 320.92 147.84 317.16 144.81 315.41"/><polygon class="cls-8" points="147.84 317.16 150.88 315.41 150.88 319.16 147.84 320.92 147.84 317.16"/><polygon class="cls-138" points="144.81 319.16 144.81 322.92 147.84 324.67 147.84 320.92 144.81 319.16"/><polygon class="cls-139" points="147.84 320.92 150.88 319.16 150.88 322.92 147.84 324.67 147.84 320.92"/><polygon class="cls-8" points="144.15 301.38 147.19 299.63 150.22 301.38 147.19 303.13 144.15 301.38"/><polygon class="cls-8" points="144.15 301.38 144.15 305.14 147.19 306.89 147.19 303.13 144.15 301.38"/><polygon class="cls-8" points="147.19 303.13 150.22 301.38 150.22 305.14 147.19 306.89 147.19 303.13"/><polygon class="cls-140" points="144.15 305.14 144.15 308.89 147.19 310.65 147.19 306.89 144.15 305.14"/><polygon class="cls-141" points="147.19 306.89 150.22 305.14 150.22 308.89 147.19 310.65 147.19 306.89"/><polygon class="cls-8" points="134.91 311.09 137.95 309.33 140.99 311.09 137.95 312.84 134.91 311.09"/><polygon class="cls-8" points="134.91 311.09 134.91 314.84 137.95 316.6 137.95 312.84 134.91 311.09"/><polygon class="cls-8" points="137.95 312.84 140.99 311.09 140.99 314.84 137.95 316.6 137.95 312.84"/><polygon class="cls-142" points="134.91 314.84 134.91 318.6 137.95 320.35 137.95 316.6 134.91 314.84"/><polygon class="cls-143" points="137.95 316.6 140.99 314.84 140.99 318.6 137.95 320.35 137.95 316.6"/><polygon class="cls-144" points="347.75 284.59 334.98 277.21 321.06 285.15 333.83 292.52 347.75 284.59"/><polygon class="cls-144" points="307.87 246.55 295.1 239.17 281.17 247.1 293.95 254.48 307.87 246.55"/><polygon class="cls-144" points="179.98 296.17 167.2 288.8 153.28 296.73 166.05 304.11 179.98 296.17"/><polygon class="cls-144" points="51.92 282.51 39.15 275.13 25.23 283.07 38 290.44 51.92 282.51"/><polygon class="cls-144" points="223.74 321.14 210.96 313.76 197.04 321.7 209.81 329.07 223.74 321.14"/></svg>