<svg id="Layer_1" data-name="Layer 1" xmlns="http://www.w3.org/2000/svg" xmlns:xlink="http://www.w3.org/1999/xlink" viewBox="0 0 710.75 417.96"><defs><style>.cls-1,.cls-11,.cls-12,.cls-14,.cls-19,.cls-2,.cls-20,.cls-21,.cls-22,.cls-26,.cls-27,.cls-28,.cls-29,.cls-3,.cls-30,.cls-31,.cls-32,.cls-33,.cls-5,.cls-6,.cls-7,.cls-8,.cls-9{fill-rule:evenodd;}.cls-1{fill:url(#Gradiente_sem_nome_69);}.cls-2{fill:url(#linear-gradient);}.cls-3,.cls-4{fill:#a1a7ff;}.cls-5{fill:url(#linear-gradient-2);}.cls-6{fill:#092978;}.cls-7{fill:url(#linear-gradient-3);}.cls-8{fill:#e8f5fc;}.cls-9{fill:url(#linear-gradient-4);}.cls-10{fill:url(#linear-gradient-5);}.cls-11{fill:#e50013;}.cls-12{fill:#3dabf9;}.cls-13{fill:url(#linear-gradient-6);}.cls-14{fill:#fff;}.cls-15{fill:none;stroke-miterlimit:10;stroke:url(#linear-gradient-7);}.cls-16{fill:url(#linear-gradient-8);}.cls-17{fill:url(#linear-gradient-9);}.cls-18{fill:#5997d1;}.cls-19,.cls-25{fill:#3655b5;}.cls-20{fill:#e1e8f6;}.cls-21,.cls-34{fill:#ffc043;}.cls-22{fill:#3882c8;}.cls-23{fill:#ffcf74;}.cls-24{fill:#630;}.cls-26{fill:#b6e0fc;}.cls-27{fill:#f7cccf;}.cls-28{fill:#ed8082;}.cls-29{fill:#f28d9a;}.cls-30{fill:#dd7577;}.cls-31{fill:#363653;}.cls-32{fill:#4895d1;}.cls-33{fill:#a3c5e8;}</style><linearGradient id="Gradiente_sem_nome_69" x1="7.57" y1="369.79" x2="710.75" y2="369.79" gradientUnits="userSpaceOnUse"><stop offset="0.16" stop-color="#e08197"/><stop offset="1" stop-color="#e08197" stop-opacity="0"/></linearGradient><linearGradient id="linear-gradient" x1="58.25" y1="275.24" x2="190.12" y2="275.24" gradientUnits="userSpaceOnUse"><stop offset="0" stop-color="#c2ceff"/><stop offset="1" stop-color="#95aaff"/></linearGradient><linearGradient id="linear-gradient-2" x1="0" y1="204.31" x2="93.28" y2="204.31" xlink:href="#linear-gradient"/><linearGradient id="linear-gradient-3" x1="179.13" y1="229.32" x2="542.5" y2="229.32" xlink:href="#linear-gradient"/><linearGradient id="linear-gradient-4" x1="299.92" y1="388.03" x2="419.86" y2="388.03" xlink:href="#linear-gradient"/><linearGradient id="linear-gradient-5" x1="179.13" y1="330.91" x2="542.5" y2="330.91" xlink:href="#linear-gradient"/><linearGradient id="linear-gradient-6" x1="204.38" y1="236.11" x2="299.99" y2="236.11" gradientUnits="userSpaceOnUse"><stop offset="0" stop-color="#ee497b"/><stop offset="1" stop-color="#de2263"/></linearGradient><linearGradient id="linear-gradient-7" x1="229.33" y1="153.2" x2="504.03" y2="153.2" xlink:href="#linear-gradient-6"/><linearGradient id="linear-gradient-8" x1="215.76" y1="153.2" x2="223.14" y2="153.2" xlink:href="#linear-gradient-6"/><linearGradient id="linear-gradient-9" x1="204.38" y1="153.2" x2="211.57" y2="153.2" xlink:href="#linear-gradient-6"/></defs><title>Platforms Supported</title><path class="cls-1" d="M710.75,416.69s-35-29.69-63.23-18.37-39.61-2.59-54.22-17.81-16.86-20.26-32.2-25c-16.85-5.26-36,.38-41.09,4.49s-18.75,18.61-28.54-1-6.32-15.29-21.22-10.54c-8.93,2.84-40.31,18.18-55.76-2.79-6.86-9.31-19.44-22.38-34.64-20.45s-20.68,6.65-29.46,11.14-21.16-.32-28.91-4.49c-10.73-5.77-28.22-14.28-39.05-4.49C266.26,342,266,349,239.45,336.77c-9.93-4.58-25-6.21-41.18,5.78-23.48,17.35-27.46,27.18-68,22.89-53.87-5.71-44.68,35.05-68.86,33.25-18.35-1.36-43.24,3.87-53.8,18-.88-1.64,703.18,0,703.18,0"/><path class="cls-2" d="M68.83,244.24l5.24,1.87a5.18,5.18,0,0,0,6-1.88A53.67,53.67,0,0,1,89,234.39a5.19,5.19,0,0,0,1.28-6.15l-2.37-5a5.23,5.23,0,0,1,2.48-7l9.63-4.56a5.24,5.24,0,0,1,7,2.5l2.38,5a5.19,5.19,0,0,0,5.57,2.91,53.38,53.38,0,0,1,13.27-.66,5.16,5.16,0,0,0,5.24-3.45l1.88-5.23a5.24,5.24,0,0,1,6.68-3.17l10,3.59a5.23,5.23,0,0,1,3.16,6.69l-1.87,5.24a5.2,5.2,0,0,0,1.87,6A53.62,53.62,0,0,1,165,240a5.21,5.21,0,0,0,6.16,1.29l5-2.39a5.22,5.22,0,0,1,7,2.5l4.56,9.63a5.22,5.22,0,0,1-2.49,7l-5,2.38a5.19,5.19,0,0,0-2.91,5.57,53.91,53.91,0,0,1,.66,13.27,5.18,5.18,0,0,0,3.44,5.25l5.24,1.87a5.22,5.22,0,0,1,3.16,6.68l-3.59,10a5.23,5.23,0,0,1-6.68,3.17l-5.24-1.88a5.19,5.19,0,0,0-6,1.88,53.62,53.62,0,0,1-8.91,9.84,5.18,5.18,0,0,0-1.3,6.15l2.39,5a5.22,5.22,0,0,1-2.49,7l-9.63,4.57a5.25,5.25,0,0,1-7-2.5l-2.37-5a5.19,5.19,0,0,0-5.58-2.9,53.81,53.81,0,0,1-13.26.65,5.17,5.17,0,0,0-5.25,3.45l-1.88,5.23a5.22,5.22,0,0,1-6.68,3.17l-10-3.59a5.24,5.24,0,0,1-3.16-6.69l1.88-5.23a5.2,5.2,0,0,0-1.89-6,53.89,53.89,0,0,1-9.83-8.91,5.18,5.18,0,0,0-6.15-1.28l-5,2.38a5.24,5.24,0,0,1-7-2.49l-4.56-9.64a5.22,5.22,0,0,1,2.49-7l5-2.38a5.19,5.19,0,0,0,2.9-5.57,53.43,53.43,0,0,1-.66-13.27A5.16,5.16,0,0,0,67,266l-5.25-1.88a5.21,5.21,0,0,1-3.16-6.68l3.59-10a5.21,5.21,0,0,1,6.68-3.16m26.84,26A28.95,28.95,0,1,0,138.41,250,28.9,28.9,0,0,0,95.67,270.25Z"/><path class="cls-3" d="M155.11,255.33a36.33,36.33,0,1,1-22.85-15.86,36.25,36.25,0,0,1,22.85,15.86m-22.35-18.16a38.68,38.68,0,1,0,24.34,16.88A38.53,38.53,0,0,0,132.76,237.17Z"/><path class="cls-4" d="M109.44,315.77a43.18,43.18,0,0,0,23.09,2l.94-.19,0,1.42-.7.14a44.59,44.59,0,0,1-23.58-2Zm1.7-81.84a43.09,43.09,0,0,0-20.68,14.55l-1-1a44.56,44.56,0,0,1,21.29-14.92Zm47.57,14.32a43.69,43.69,0,0,0-9.44-8.83c-.77-.53-1.57-1-2.38-1.52l.73-1.2c.83.5,1.65,1,2.44,1.57a45.08,45.08,0,0,1,9.66,9Z"/><path class="cls-5" d="M3.42,199.1l3.81-.18a3.56,3.56,0,0,0,3.31-2.75,36.57,36.57,0,0,1,3.09-8.58,3.57,3.57,0,0,0-.79-4.24L10,180.78a3.59,3.59,0,0,1-.25-5.07l4.92-5.41a3.6,3.6,0,0,1,5.07-.24l2.83,2.57a3.56,3.56,0,0,0,4.29.4,36.68,36.68,0,0,1,8.25-3.89,3.52,3.52,0,0,0,2.42-3.55l-.17-3.82A3.57,3.57,0,0,1,40.79,158l7.31-.35a3.59,3.59,0,0,1,3.75,3.42L52,164.9a3.56,3.56,0,0,0,2.76,3.31,37.28,37.28,0,0,1,8.57,3.09,3.56,3.56,0,0,0,4.24-.79l2.57-2.83a3.58,3.58,0,0,1,5.06-.24l5.42,4.92a3.59,3.59,0,0,1,.23,5.07l-2.57,2.83a3.55,3.55,0,0,0-.38,4.29,37.08,37.08,0,0,1,3.88,8.25,3.55,3.55,0,0,0,3.55,2.43l3.82-.18a3.59,3.59,0,0,1,3.75,3.41l.34,7.31a3.57,3.57,0,0,1-3.41,3.75l-3.81.18a3.58,3.58,0,0,0-3.32,2.76A36.79,36.79,0,0,1,79.65,221a3.56,3.56,0,0,0,.79,4.24l2.83,2.57a3.6,3.6,0,0,1,.24,5.07l-4.92,5.41a3.61,3.61,0,0,1-5.08.24L70.69,236a3.56,3.56,0,0,0-4.29-.38,37.08,37.08,0,0,1-8.25,3.88A3.55,3.55,0,0,0,55.72,243l.18,3.82a3.57,3.57,0,0,1-3.41,3.75l-7.31.35a3.59,3.59,0,0,1-3.75-3.42l-.18-3.81a3.58,3.58,0,0,0-2.76-3.32,36.63,36.63,0,0,1-8.57-3.08,3.57,3.57,0,0,0-4.24.79l-2.57,2.83a3.6,3.6,0,0,1-5.07.24l-5.41-4.93a3.59,3.59,0,0,1-.24-5.06L15,228.36a3.56,3.56,0,0,0,.4-4.29,36.25,36.25,0,0,1-3.89-8.25,3.55,3.55,0,0,0-3.55-2.43l-3.82.18a3.57,3.57,0,0,1-3.75-3.41L0,202.85a3.59,3.59,0,0,1,3.42-3.75m23.82,9.49a19.87,19.87,0,1,0,21.83-24A19.85,19.85,0,0,0,27.24,208.59Z"/><path class="cls-3" d="M68.37,190.54a25.31,25.31,0,1,1-15.92-11.06,25.25,25.25,0,0,1,15.92,11.06M52.79,177.88a27,27,0,1,0,17,11.76A26.91,26.91,0,0,0,52.79,177.88Z"/><path class="cls-4" d="M36.55,232.65a30,30,0,0,0,16.08,1.41l.66-.13v1l-.49.09a31,31,0,0,1-16.42-1.4Zm1.18-57a30.11,30.11,0,0,0-14.41,10.14l-.71-.67a31,31,0,0,1,14.84-10.4Zm33.15,10a30.45,30.45,0,0,0-6.58-6.15c-.54-.37-1.09-.73-1.66-1.06l.51-.84c.58.35,1.15.72,1.7,1.1a31.28,31.28,0,0,1,6.73,6.27Z"/><path class="cls-6" d="M93.72,413.43H609.94a2.27,2.27,0,0,1,2.27,2.27h0a2.27,2.27,0,0,1-2.27,2.26H93.72a2.27,2.27,0,0,1-2.26-2.26h0a2.27,2.27,0,0,1,2.26-2.27"/><path class="cls-7" d="M200.08,125.16H521.55a21,21,0,0,1,21,21V333.48H179.13V146.11a21,21,0,0,1,21-21"/><path class="cls-8" d="M194.41,140.6H527.23a.36.36,0,0,1,.36.36V352.39a.37.37,0,0,1-.36.37H194.41a.37.37,0,0,1-.37-.37V141a.36.36,0,0,1,.37-.36"/><path class="cls-9" d="M332.36,364.8c-1.48,26.68-5.38,33.43-32.44,48.63H419.86c-27.06-15.2-31-21.95-32.44-48.63l-27.53-2.17Z"/><path class="cls-3" d="M542.5,333.48v13.77a21,21,0,0,1-21,20.95H200.08a21,21,0,0,1-21-20.95V333.48Z"/><rect class="cls-10" x="179.13" y="319.9" width="363.37" height="22.01"/><path class="cls-11" d="M345.31,347.64a3.73,3.73,0,1,1-3.73,3.73,3.74,3.74,0,0,1,3.73-3.73"/><path class="cls-12" d="M359.13,347.64a3.73,3.73,0,1,1-3.73,3.73,3.73,3.73,0,0,1,3.73-3.73"/><path class="cls-12" d="M372.94,347.64a3.73,3.73,0,1,1-3.73,3.73,3.73,3.73,0,0,1,3.73-3.73"/><rect class="cls-13" x="204.38" y="162.23" width="95.6" height="147.77"/><path class="cls-14" d="M211.42,281.55h60.75a2.47,2.47,0,0,1,0,4.94H211.42a2.47,2.47,0,1,1,0-4.94"/><path class="cls-14" d="M211.42,169.68H234a2.48,2.48,0,0,1,0,4.95h-22.6a2.48,2.48,0,1,1,0-4.95"/><path class="cls-14" d="M211.42,183.66h75.5a2.47,2.47,0,1,1,0,4.94h-75.5a2.47,2.47,0,1,1,0-4.94"/><path class="cls-14" d="M211.42,197h75.5a2.47,2.47,0,1,1,0,4.94h-75.5a2.47,2.47,0,1,1,0-4.94"/><path class="cls-14" d="M211.42,210.34H232a2.48,2.48,0,0,1,0,4.95H211.42a2.48,2.48,0,1,1,0-4.95"/><path class="cls-14" d="M240.61,210.34h20.57a2.48,2.48,0,0,1,0,4.95H240.61a2.48,2.48,0,0,1,0-4.95"/><path class="cls-14" d="M211.42,226.48h27.66a2.47,2.47,0,0,1,0,4.94H211.42a2.47,2.47,0,1,1,0-4.94"/><path class="cls-14" d="M248.74,226.48h27.67a2.47,2.47,0,0,1,0,4.94H248.74a2.47,2.47,0,0,1,0-4.94"/><path class="cls-14" d="M211.42,238.57h33.44a2.47,2.47,0,1,1,0,4.94H211.42a2.47,2.47,0,1,1,0-4.94"/><path class="cls-14" d="M255.36,238.57h33.45a2.47,2.47,0,0,1,0,4.94H255.36a2.47,2.47,0,0,1,0-4.94"/><path class="cls-14" d="M211.42,252.24H234a2.48,2.48,0,0,1,0,4.95h-22.6a2.48,2.48,0,1,1,0-4.95"/><path class="cls-3" d="M211.42,268.05h33.44a2.47,2.47,0,1,1,0,4.94H211.42a2.47,2.47,0,1,1,0-4.94"/><path class="cls-3" d="M255.36,268.05h33.45a2.47,2.47,0,0,1,0,4.94H255.36a2.47,2.47,0,0,1,0-4.94"/><path class="cls-15" d="M500.19,150.82h-267a2.46,2.46,0,0,0-1.72.7,2.34,2.34,0,0,0,0,3.36,2.46,2.46,0,0,0,1.72.7h267a2.45,2.45,0,0,0,1.71-.7,2.32,2.32,0,0,0,0-3.36,2.45,2.45,0,0,0-1.71-.7m-267-.89h267a3.39,3.39,0,0,1,2.36,1,3.21,3.21,0,0,1,0,4.62,3.39,3.39,0,0,1-2.36,1h-267a3.37,3.37,0,0,1-2.36-1,3.21,3.21,0,0,1,0-4.62A3.37,3.37,0,0,1,233.17,149.93Z"/><rect class="cls-16" x="215.76" y="149.7" width="7.39" height="7"/><rect class="cls-17" x="204.38" y="149.7" width="7.18" height="7"/><rect class="cls-18" x="331.16" y="368.2" width="56.99" height="7.59"/><path class="cls-19" d="M289.89,65c-11.82,0-21.4,9.37-21.4,19.23s7,16.73,16.48,18.73h26.32V84.2c0-10.62-9.58-19.23-21.4-19.23"/><path class="cls-20" d="M289.67,65Zm21.62,48h-.07V319.9H516.14V84.2c0-10.62-9.58-19.23-21.4-19.23H289.89c11.82,0,21.4,8.61,21.4,19.23Z"/><path class="cls-21" d="M102.34,148.49c6.14,7.68,12.52,18.06,14.83,25.56a2.4,2.4,0,0,0,1.3,1.43l20.06-.53a2.81,2.81,0,0,0,1.75-1.85c1.82-7.25,15.86-29.86,15.68-29.79a31.94,31.94,0,0,0,4-16.48,32.66,32.66,0,0,0-65.29,1.75,32,32,0,0,0,4.88,16.17c1,1.26,1.67,2.48,2.74,3.74"/><path class="cls-3" d="M121.42,144.94c-.58-4.91-4-4.92-4.39-1.39a5.56,5.56,0,0,0,.32,2.32c.29.84,1.91,1.41,4.15,1.74Zm12.8-.35c.32-4.92,3.77-5.12,4.31-1.61a5.42,5.42,0,0,1-.2,2.33c-.24.85-1.83,1.51-4,2Zm-5.85,5.95h-.79a35.9,35.9,0,0,1-3.78-.17l0,.81.65,24.13-2.23.06-.65-24.13,0-1.17c-3.19-.58-5.65-1.69-6.23-3.36a8.25,8.25,0,0,1-.45-3.45,6.08,6.08,0,0,1,1-2.85,5.19,5.19,0,0,1,2-1.75c3.44-.92,5.92,2.7,5.79,6.17l.08,3c1.32.09,2.74.12,4.18.1s2.85-.16,4.16-.33l-.08-3c-.31-3.45,2-7.2,5.45-6.46a5.09,5.09,0,0,1,2.06,1.64,6.09,6.09,0,0,1,1.16,2.8,8.11,8.11,0,0,1-.27,3.46c-.48,1.7-2.88,2.94-6,3.68l0,1.17L135,175l-2.23.06L132.16,151l0-.8a34.89,34.89,0,0,1-3.77.37Z"/><path class="cls-22" d="M120.42,175.39l15.69-.42a4,4,0,0,1,4.13,3.9h0a4.07,4.07,0,0,1-3.91,4.13h-.58a.48.48,0,0,0-.35.47.47.47,0,0,0,.37.44c1.36,0,2.1,1.07,2.11,2.43h0a2.52,2.52,0,0,1-2.42,2.55l-1.35,0a.48.48,0,0,0-.35.47.47.47,0,0,0,.37.44,2.79,2.79,0,0,1,1.55,2.31h0a2.39,2.39,0,0,1-2.31,2.44l-9.16.24a2.37,2.37,0,0,1-2.43-2.31h0a2.37,2.37,0,0,1,2-2.41.48.48,0,0,0,0-.9l-1.91,0a2.48,2.48,0,0,1-2.54-2.41h0a2.49,2.49,0,0,1,2.41-2.55.47.47,0,0,0,.32-.46.46.46,0,0,0-.34-.45l-1,0a4,4,0,0,1-4.12-3.91h0a4,4,0,0,1,3.9-4.12"/><path class="cls-23" d="M136.18,102.8a3.19,3.19,0,1,0-2.49,5.87,24.46,24.46,0,0,1,10.13,8.55A26.35,26.35,0,0,1,148.68,130a3.19,3.19,0,0,0,6.37-.5,33,33,0,0,0-6-16,31,31,0,0,0-12.86-10.74"/><path class="cls-21" d="M154.62,81.66h0a1.84,1.84,0,0,1,.67,2.5l-4,6.93a1.82,1.82,0,0,1-2.5.67h0a1.82,1.82,0,0,1-.67-2.5l4-6.93a1.84,1.84,0,0,1,2.5-.67m-54.51,0h0a1.84,1.84,0,0,1,2.5.67l4,6.93a1.83,1.83,0,0,1-.67,2.5h0a1.82,1.82,0,0,1-2.5-.67l-4-6.93A1.84,1.84,0,0,1,100.11,81.66Zm-20,20h0a1.84,1.84,0,0,1,2.5-.67l6.93,4a1.85,1.85,0,0,1,.67,2.51h0a1.84,1.84,0,0,1-2.5.67l-6.93-4A1.84,1.84,0,0,1,80.16,101.61Zm94.41,0h0a1.84,1.84,0,0,1-.67,2.51l-6.93,4a1.84,1.84,0,0,1-2.5-.67h0a1.85,1.85,0,0,1,.67-2.51l6.93-4A1.84,1.84,0,0,1,174.57,101.61Zm7.3,27.26h0A1.83,1.83,0,0,1,180,130.7h-8a1.83,1.83,0,0,1-1.83-1.83h0A1.83,1.83,0,0,1,172,127h8A1.83,1.83,0,0,1,181.87,128.87Zm-97.35,0h0a1.84,1.84,0,0,1-1.83,1.83h-8a1.84,1.84,0,0,1-1.84-1.83h0A1.84,1.84,0,0,1,74.69,127h8A1.84,1.84,0,0,1,84.52,128.87Zm42.84-54.51h0a1.84,1.84,0,0,1,1.84,1.83v8A1.84,1.84,0,0,1,127.36,86h0a1.84,1.84,0,0,1-1.83-1.83v-8A1.84,1.84,0,0,1,127.36,74.36Z"/><path class="cls-21" d="M518,185.36h47.45a19.46,19.46,0,0,1,19.46,19.46v13a19.46,19.46,0,0,1-19.46,19.46H528.4L518,246.79v-9.55a19.46,19.46,0,0,1-19.46-19.46v-13A19.46,19.46,0,0,1,518,185.36"/><path class="cls-24" d="M201.72,413.43H182.4a1.79,1.79,0,0,1-1.77-1.55,2.29,2.29,0,0,1,0-.37l.79-10.15a11.37,11.37,0,0,1,1.93-.64,2,2,0,0,0,1.43-1.3,1,1,0,0,1,0-.14c.44-2,3.26-2.58,3.78-.67.06.25.12.49.17.72,0,.05,0,.11,0,.17.08.41.14.79.18,1.12v0a11.18,11.18,0,0,1,.09,1.38c.26.32.51.64.74,1,.13.15.24.31.36.46l.75,1q.16.23.33.42c.27.34.53.66.8.95l.36.4a5.54,5.54,0,0,0,3.19,1.92c2.09.29,5.51.52,7.17,3.6a1.54,1.54,0,0,1,.08.19,1.19,1.19,0,0,1-1.14,1.55"/><path class="cls-25" d="M201.72,413.43H182.4a1.79,1.79,0,0,1-1.77-1.55h22.23a1.19,1.19,0,0,1-1.14,1.55"/><path class="cls-19" d="M187.24,292.45c2.72,6,6.09,11.67,13.88,12.85,6.31.95,28.9-9.89,29.75-15.57s-3-6.6-3-6.6-22.26,10.25-24,9.69c-1.27-.42-7.45-6.27-11.25-9.74-.81-.74-6.57,6.77-5.4,9.37"/><path class="cls-19" d="M185.17,280.2H170.41c-3.57,0-8.72,1.79-10.88,4.32-3.1,3.63-1.89,44.22-.95,49.88l1.09.76c0,22.61-3.27,46.55-2.13,68.17l8.93.11,11.38-56.16,5.43-11.9,9.29-.74,2.52-.34-2.45-51.22a11.6,11.6,0,0,0-7.47-2.88"/><path class="cls-19" d="M168.55,293.51c1.46-3,.34-9-2.76-10.33a5.26,5.26,0,0,0-4.11-.31C152.06,287,147,324.41,148.62,327c1.39,2.26,1.27,7.89,6.69,6,3.32-1.16,7.13-26.8,13.24-39.51"/><path class="cls-26" d="M183.71,280.2c1,7.33-2.53,20.47-3.38,28.48-.26-.63-7.13-22.83-7.8-28.48h6.67a37.65,37.65,0,0,1,4.51,0"/><path class="cls-27" d="M187.62,272.9c.52,3.45-3.43,6.07-6.11,5.84v1.58l.14.19c.93,2.44-1.71,4-2.58,4.84-.8-.61-5.08-1.78-5.17-5.15h.17v-5.92a2.53,2.53,0,0,1-.59-.26,2.09,2.09,0,0,1-.67-2.15c.16-.9,1.42-.29,1.42-.29h0c-1.09-2.69-2.49-5,.33-6.51s8.5-1.39,8.5-1.39l3.41-.35c-.92,1.47.81,7.29,1.15,9.57"/><path class="cls-28" d="M176.47,276.11c1.2,3.21,2.33,4.41,5,4.78V278.7a9.44,9.44,0,0,1-5-2.59"/><polygon class="cls-19" points="193.83 334.47 176.09 334.4 179.33 403.56 190.55 403.92 193.83 334.47"/><path class="cls-24" d="M169.72,412c-.17,2.89-10.41,1.9-12.05,1a2,2,0,0,1-.95-1.76,12.36,12.36,0,0,1,.79-4.09c.66-2,.57-2,1-3.39,0,0-.11-2.27,3.24-3.13s4.59,4.77,5.16,5.85,2.57,2.35,2.78,4.8a5.24,5.24,0,0,1,0,.69"/><path class="cls-25" d="M169.58,413c-.2,1.87-10.27,1.69-11.91.82-.63-.33-.9-1.58-.95-2.36a13.47,13.47,0,0,0,5.81,1.26,16,16,0,0,0,7.18-1.22c0,.22-.11,1.26-.13,1.5"/><path class="cls-19" d="M190.28,257.61c.72,3.67-.75,6.95-4.36,7.55-2.69.45-7.37-.1-9.47,1.87-1,1-1,2.23-.27,4.75.22.74.56,1.3-.57.61-.52-.31-1.38-.77-1.72-.55a1.43,1.43,0,0,0,0,2.12c.23.19.66.49.66.49a3.32,3.32,0,0,1-2.76-.69c-1.33-1.07-5.19-4.3-4.42-8.93,1.1-6.76,3.9-6.55,9.85-8.57,3.43-1.17,3.72-2.08,5.92-3.09,2.82-1.29,6.6,1.54,7.17,4.44"/><path class="cls-21" d="M147.64,316.81a5.26,5.26,0,1,1-7.16-2,5.26,5.26,0,0,1,7.16,2m147.63-65.69c3.33,3.89-2.6,17.34-11.63,23.14-5.4,3.48-11.43,6.53-15.94,6.94-8.06.74-18.36-1.81-23-3.12L163.17,324l-10.69,6-2.6,1.46c-6.78,3.82-14.95,1.08-19.26-5.39h0c-4.32-6.47-1.39-15.45,5.39-19.26l2.6-1.46,10.69-6,81.18-45.66c1.07-4.4,4.11-15.44,9-22.15,2.12-2.92,6.24-5.74,10.74-8.19,11.87-6.46,28.12-4.69,29.86,0l-9.54,5.36-8.89,5L255,237.42l-.56,9.41-.57,9.4,8.33,4.41,8.33,4.4,6.64-3.73,8.89-5Z"/><path class="cls-27" d="M148.18,331a1.19,1.19,0,0,1,.72-.57l1.71.08-.24-3.68a.93.93,0,0,1,1.13.59,20.38,20.38,0,0,0,1.27,2.42l-.43-3.28a.67.67,0,0,1,.87.24c.31.52,1.18,2.39,1.18,2.39l.08-3.06a5.93,5.93,0,0,1,.87,1.8,8,8,0,0,0,.39,1.29l.53-2.58s.57,2.5.58,2.59c0,2.73-1.33,4.32-3.73,4.35-.74,0-5.12-2.19-4.93-2.58"/><path class="cls-27" d="M230.9,281.36a1.42,1.42,0,0,0-1,.52l-.7,1.91-3.9-2a1.1,1.1,0,0,0,.12,1.51,24.7,24.7,0,0,1,2.06,2.49l-3.39-2a.79.79,0,0,0-.13,1.06c.43.58,2.07,2.39,2.07,2.39L222.69,286a7.11,7.11,0,0,0,1.56,1.78,8.59,8.59,0,0,1,1.23,1l-3-.61S224.89,290,225,290c3,1.29,5.32.54,6.45-2.06.35-.81,0-6.59-.54-6.57"/><path class="cls-4" d="M531.3,220.6,513.84,213v-4.2l17.46-7.56v4.95l-12.18,4.66,12.18,4.83Z"/><path class="cls-4" d="M536.88,223.94l6.31-26.34h3.66l-6.37,26.34Z"/><path class="cls-4" d="M552.44,220.62V215.7l12.19-4.79-12.19-4.74v-4.88l17.47,7.55V213Z"/><path class="cls-19" d="M361,98.63V94.85l9.39-3.71L361,87.48V83.72l13.46,5.83v3.22Zm-12,2.55,4.88-20.28h2.82l-4.9,20.28Zm-4.29-2.57-13.46-5.85V89.52l13.46-5.83V87.5l-9.38,3.59,9.38,3.73Z"/><path class="cls-21" d="M342,115.61h30.62a1.81,1.81,0,1,1,0,3.62H342a1.81,1.81,0,1,1,0-3.62"/><path class="cls-19" d="M381.42,115.61h16.84a1.81,1.81,0,1,1,0,3.62H381.42a1.81,1.81,0,1,1,0-3.62"/><path class="cls-21" d="M352.07,127.75H386.7a1.82,1.82,0,0,1,0,3.63H352.07a1.82,1.82,0,1,1,0-3.63"/><path class="cls-19" d="M396.15,127.75h19.24a1.82,1.82,0,0,1,0,3.63H396.15a1.82,1.82,0,1,1,0-3.63"/><path class="cls-19" d="M425.11,127.75H449a1.82,1.82,0,1,1,0,3.63h-23.9a1.82,1.82,0,1,1,0-3.63"/><path class="cls-19" d="M352.07,140.52h46a1.82,1.82,0,0,1,0,3.63h-46a1.82,1.82,0,1,1,0-3.63"/><path class="cls-29" d="M407.49,140.52h22.06a1.82,1.82,0,1,1,0,3.63H407.49a1.82,1.82,0,0,1,0-3.63"/><path class="cls-19" d="M438.32,140.52h36.23a1.82,1.82,0,0,1,0,3.63H438.32a1.82,1.82,0,0,1,0-3.63"/><path class="cls-29" d="M352.07,153H369.3a1.81,1.81,0,1,1,0,3.62H352.07a1.81,1.81,0,1,1,0-3.62"/><path class="cls-19" d="M377.76,153h61.29a1.81,1.81,0,1,1,0,3.62H377.76a1.81,1.81,0,1,1,0-3.62"/><path class="cls-21" d="M352.07,165.09h46a1.82,1.82,0,0,1,0,3.63h-46a1.82,1.82,0,1,1,0-3.63"/><path class="cls-19" d="M407.49,165.09h22.06a1.82,1.82,0,1,1,0,3.63H407.49a1.82,1.82,0,0,1,0-3.63"/><path class="cls-19" d="M438.32,165.09h36.23a1.82,1.82,0,0,1,0,3.63H438.32a1.82,1.82,0,0,1,0-3.63"/><path class="cls-19" d="M352.07,177.79h46a1.82,1.82,0,0,1,0,3.63h-46a1.82,1.82,0,1,1,0-3.63"/><path class="cls-19" d="M407.49,177.79h22.06a1.82,1.82,0,1,1,0,3.63H407.49a1.82,1.82,0,0,1,0-3.63"/><path class="cls-19" d="M342,189.79h37a1.82,1.82,0,1,1,0,3.63H342a1.82,1.82,0,0,1,0-3.63"/><path class="cls-19" d="M388.74,189.79h20.65a1.82,1.82,0,1,1,0,3.63H388.74a1.82,1.82,0,0,1,0-3.63"/><path class="cls-19" d="M352.07,204.66h50.66a1.82,1.82,0,0,1,0,3.63H352.07a1.82,1.82,0,1,1,0-3.63"/><path class="cls-21" d="M412.65,204.66h24.46a1.82,1.82,0,0,1,0,3.63H412.65a1.82,1.82,0,0,1,0-3.63"/><path class="cls-19" d="M352.07,217.5h46.37a1.82,1.82,0,0,1,0,3.63H352.07a1.82,1.82,0,1,1,0-3.63"/><path class="cls-19" d="M407.87,217.5H430.1a1.82,1.82,0,0,1,0,3.63H407.87a1.82,1.82,0,1,1,0-3.63"/><path class="cls-29" d="M352.07,229.78H368a1.82,1.82,0,1,1,0,3.63H352.07a1.82,1.82,0,1,1,0-3.63"/><path class="cls-19" d="M376.59,229.78h62.54a1.82,1.82,0,1,1,0,3.63H376.59a1.82,1.82,0,1,1,0-3.63"/><path class="cls-21" d="M352.07,242.35h39.6a1.81,1.81,0,1,1,0,3.62h-39.6a1.81,1.81,0,1,1,0-3.62"/><path class="cls-19" d="M400.32,242.35h18.73a1.81,1.81,0,1,1,0,3.62H400.32a1.81,1.81,0,1,1,0-3.62"/><path class="cls-19" d="M428.34,242.35h46.29a1.81,1.81,0,0,1,0,3.62H428.34a1.81,1.81,0,1,1,0-3.62"/><path class="cls-19" d="M352.07,254.21H368a1.82,1.82,0,1,1,0,3.63H352.07a1.82,1.82,0,1,1,0-3.63"/><path class="cls-19" d="M376.59,254.21h62.54a1.82,1.82,0,1,1,0,3.63H376.59a1.82,1.82,0,1,1,0-3.63"/><path class="cls-19" d="M342,267.17h37a1.82,1.82,0,1,1,0,3.63H342a1.82,1.82,0,0,1,0-3.63"/><path class="cls-21" d="M388.74,267.17h20.65a1.82,1.82,0,1,1,0,3.63H388.74a1.82,1.82,0,0,1,0-3.63"/><path class="cls-19" d="M361,302.48V298.7l9.39-3.71L361,291.32v-3.75l13.46,5.83v3.21ZM349,305l4.88-20.29h2.82L351.78,305Zm-4.29-2.58-13.46-5.85v-3.23l13.46-5.83v3.81l-9.38,3.59,9.38,3.73Z"/><path class="cls-21" d="M490.15,267.1h19c2.37,0,8.21,4.49,9.23,10.34h0c1.93,9.42,1.07,30.13-5.6,37.52l-7.56-.1-23.16-5.74V270a12.59,12.59,0,0,1,8.09-2.93"/><path class="cls-21" d="M509.14,267.16c9.38.92,10.25,12.71,10.13,20.06H509.15Z"/><path class="cls-27" d="M510.06,287.3l9.21-.08c-3.63,9.95-10.58,18.41-19.8,18.41H486.06s2.85-3.66,6.61-4,3.91.21,3.91.21c3.14-1.65,10.4-7.25,13.48-14.58"/><path class="cls-24" d="M521.92,362.68l.92,6.6,2.36,2.19s1.84-.09,2,.55a5.76,5.76,0,0,1,0,2H515.17a54.59,54.59,0,0,1-1.39-11Z"/><path class="cls-6" d="M466.93,305.63h40.12a7.42,7.42,0,0,1,1.34.12h0c11.2-.06,12.59,7.2,13.38,15.1l4.52,45.41H511.08l-5-46.22H466.93a7.21,7.21,0,1,1,0-14.41"/><path class="cls-24" d="M477.89,347.14l5.51,12.34a10,10,0,0,1-1.29,3.5c-.92,1.27-1,2.2-.43,3s.73,1,.73,1l9.36-9.77-4.91-11.47Z"/><path class="cls-6" d="M470.77,307.73a10,10,0,0,1,4,3.56c3.3,5,18.29,38.79,18.29,38.79H475.81l-12.55-27.52c-.53-1.15-3.11-5.92-3.35-8.09-.77-7,5-9.41,10.86-6.74"/><path class="cls-27" d="M488.14,257.61c-2,3.55,1.43,8.49,5.62,8.13v1.12l-2.29,3.26,2.25,3.36,2.35.85,5.67-1.46V262.66c.2-.06.21.31.63,0a4.66,4.66,0,0,0,1.19-3.13c-.17-1-1.43-1.54-1.43-1.54h0c1.18-2.9,2.12-3.36-.92-5s-9.16-1.49-9.16-1.49l-2.78.93c-.12,2.7.25,2.65-1.13,5.1"/><path class="cls-30" d="M493.15,265.75c.2,0,.41,0,.61,0a14.38,14.38,0,0,0,5.09-1.05,5.42,5.42,0,0,1-2.78,3,9.31,9.31,0,0,1-3.56,1l1.25-1.78v-1.12Z"/><path class="cls-31" d="M490,253.39c2.35.39,4.24.06,5.67.23a4.13,4.13,0,0,1,2.07,1c1.34,1.09,2.38,3.77,2.69,5.55,0,0,1.57-.66,2.08-.33s.19,1.11.11,1.43-.8.68-1,.88c-.7.6.95.86,2.88-.7,5.91-4.77,2.86-13.44-4.44-15.93-3.54-1.2-3.13-2.63-5.57-3.15-8.86-1.73-11.4,8.85-4.46,11"/><path class="cls-21" d="M482.26,269.87c-5.16,4.6-8.15,10.95-10,17.62,3.38-.22,6.92-.21,10.27-.32Z"/><path class="cls-3" d="M496.15,280a.62.62,0,1,1-.62.62.63.63,0,0,1,.62-.62m0-3.6a.62.62,0,0,1,.63.62.63.63,0,0,1-1.25,0A.62.62,0,0,1,496.15,276.44Zm-2.39-9.58c-2.16,3.68.19,6.29,2.31,7.47,3-1.94,5.67-3.83,5.67-7.47,0,0,1,0,1.7,1.61,1.1,2.65-.75,8.59-.75,8.59s-2.07-2.68-3.8-2.82a6,6,0,0,0-2.84.37c-2.21-1.61-3.71.48-5.18,2-.47-3.92-.41-6.74,2.52-9.77Z"/><path class="cls-32" d="M491.55,282.54h-29c-1.12,0-2.28.94-2,2l4.34,19.2c.24,1.09.91,2,2,2h29c1.12,0,2.29-.94,2-2l-4.34-19.2c-.25-1.09-.92-2-2-2"/><path class="cls-33" d="M490.25,282.54h-29c-1.12,0-2.28.94-2,2l4.34,19.2c.24,1.09.91,2,2,2h29c1.12,0,2.28-.94,2-2l-4.34-19.2c-.25-1.09-.92-2-2-2"/><path class="cls-3" d="M477.29,292.26a2,2,0,1,0,2.2,1.4,1.86,1.86,0,0,0-2.2-1.4"/><path class="cls-32" d="M511.71,303.9H497v1.9h15.7v-.95a1,1,0,0,0-.95-1"/><path class="cls-34" d="M107.75,38.85a5,5,0,0,1,7,0h0a5,5,0,0,1,0,7h0a5,5,0,0,1-8.47-3.51,5,5,0,0,1,1.45-3.51Zm3.5-4.22a7.74,7.74,0,0,0-5.46,2.26h0a7.72,7.72,0,1,0,10.92,10.92h0a7.73,7.73,0,0,0,0-10.92h0A7.74,7.74,0,0,0,111.25,34.63Z"/><path class="cls-19" d="M189.39,37h0a1.25,1.25,0,0,0-1.25,1.25V49.16a1.25,1.25,0,0,0,1.25,1.24h0a1.25,1.25,0,0,0,1.24-1.24V38.29A1.25,1.25,0,0,0,189.39,37"/><path class="cls-19" d="M182.71,43.72h0A1.25,1.25,0,0,0,184,45h10.87a1.25,1.25,0,0,0,1.24-1.25h0a1.25,1.25,0,0,0-1.24-1.24H184a1.25,1.25,0,0,0-1.24,1.24"/><path class="cls-34" d="M300.42,39.54a3.51,3.51,0,0,1,5,0h0a3.51,3.51,0,0,1,0,5h0a3.48,3.48,0,0,1-2.48,1,3.48,3.48,0,0,1-3.5-3.5,3.48,3.48,0,0,1,1-2.48Zm2.48-3a5.45,5.45,0,0,0-3.86,1.6h0a5.46,5.46,0,1,0,7.72,7.73h0a5.46,5.46,0,0,0,0-7.72h0A5.43,5.43,0,0,0,302.9,36.55Z"/><path class="cls-19" d="M451.52,10.22h0a1.64,1.64,0,0,0-1.63,1.64v5.51h-5.52A1.64,1.64,0,0,0,442.74,19h0a1.65,1.65,0,0,0,1.63,1.64h5.52v5.51a1.63,1.63,0,0,0,1.63,1.63h0a1.63,1.63,0,0,0,1.63-1.63V20.64h5.52A1.65,1.65,0,0,0,460.3,19h0a1.64,1.64,0,0,0-1.63-1.63h-5.52V11.86a1.64,1.64,0,0,0-1.63-1.64"/><path class="cls-19" d="M352.57,5.79h0a1.43,1.43,0,0,0-1.42,1.42V19.68a1.43,1.43,0,0,0,1.42,1.43h0A1.43,1.43,0,0,0,354,19.68V7.21a1.43,1.43,0,0,0-1.43-1.42"/><path class="cls-19" d="M344.91,13.45h0a1.43,1.43,0,0,0,1.43,1.42h12.47a1.43,1.43,0,0,0,1.42-1.42h0A1.43,1.43,0,0,0,358.81,12H346.34a1.43,1.43,0,0,0-1.43,1.43"/><path class="cls-34" d="M249.88,4.22a5,5,0,0,1,7,0h0a4.95,4.95,0,0,1,0,7h0a5,5,0,0,1-7-7ZM253.39,0a7.7,7.7,0,0,0-5.47,2.26h0a7.72,7.72,0,0,0,10.92,10.92h0a7.73,7.73,0,0,0,0-10.92h0A7.73,7.73,0,0,0,253.39,0Z"/><path class="cls-34" d="M528.36,35.46a3.52,3.52,0,0,1,5,0h0a3.52,3.52,0,0,1,0,5h0a3.52,3.52,0,0,1-2.48,1,3.51,3.51,0,0,1-2.49-6Zm2.48-3a5.46,5.46,0,0,0-3.87,1.6h0a5.46,5.46,0,1,0,7.73,7.72h0a5.47,5.47,0,0,0,0-7.73h0A5.43,5.43,0,0,0,530.84,32.48Z"/></svg>