<?xml version="1.0" encoding="utf-8"?>
<!-- Generator: Adobe Illustrator 23.0.2, SVG Export Plug-In . SVG Version: 6.00 Build 0)  -->
<svg version="1.0" id="Layer_1" xmlns="http://www.w3.org/2000/svg" xmlns:xlink="http://www.w3.org/1999/xlink" x="0px" y="0px"
	 width="512px" height="283.72px" viewBox="0 0 512 283.72" style="enable-background:new 0 0 512 283.72;" xml:space="preserve">
<style type="text/css">
	.st0{opacity:0.6;}
	.st1{fill:url(#SVGID_1_);}
	.st2{fill:#13426F;}
</style>
<g>
	<g class="st0">
		<g>
			<linearGradient id="SVGID_1_" gradientUnits="userSpaceOnUse" x1="0.9023" y1="142.5486" x2="512" y2="142.5486">
				<stop  offset="0" style="stop-color:#0962A4"/>
				<stop  offset="1" style="stop-color:#318ACA"/>
			</linearGradient>
			<path class="st1" d="M47.28,63.42c1.02,0,1.14,0.37,2.01,0c0.87-0.37,3.44-2.06,4.3-2.29c0.87-0.23,1.43,0.08,0.15,0.79
				c-1.28,0.71-3.85,2.25-3.39,2.14c0.45-0.12,1.76-0.67,3.6-1.54c1.84-0.87,1.67-0.48,2.15-1.41c0.48-0.92,0.72-1.41,0.72-1.41
				s2.92,2.99,3.19,3.1c0.27,0.11,0.37-0.02,0.52-0.39c0.15-0.37,0.46-0.89,0.87-0.71c0.41,0.17,0.06,0.89,0.31,0.98
				c0.25,0.1,0.66-0.02,1.43-0.27c0.77-0.25,0.37-0.81,0.37-0.81s-0.08-0.02,0.81-0.1c0.89-0.08,3.68,0.94,4.51,1.27
				c0.83,0.33,3.33,0.6,4.04,0.83c0.7,0.23,0.97-0.4,1.94,0.12c0.97,0.52,1.7,1.21,0.97,1.58c-0.72,0.37-2.54,0.64-1.61,0.87
				c0.93,0.23,2.34,0.52,3.68,0.48c1.35-0.04,3.77-0.54,4.51-0.54c0.75,0,1.2,0.46,1.91,1.64c0.7,1.18,1.26,1.64,1.53,1.73
				c0.27,0.1-0.27-0.56-0.12-1.14c0.15-0.58-0.15-1.72-0.31-2.1c-0.16-0.39,0-0.58-0.33-1.14c-0.33-0.56-0.87-0.46,0.12-0.94
				c0.99-0.48,1.68-1.19,2.88-1.04c1.2,0.15,1.53,1.68,2.57,1.79c1.03,0.12,1.22,0.52,3,0.66c1.78,0.13,1.04,0.02,3.02,0.15
				c1.98,0.13,1.26-0.21,1.67-1.23c0.41-1.02,0.87-1.21,1.35-1.18c0.48,0.04,2.15,0.27,2.15,0.48c0,0.21-0.7,1.31-0.35,1.85
				c0.35,0.54,1.78,1.43,1.78,1.43s-0.31-1.23-0.31-1.37c0-0.13-0.11-1.1,0.1-1.27c0.21-0.17,1.39,0.1,2.13-1.35
				c0.74-1.45-0.5-1.37-0.5-1.37s-0.45,0.02-0.23-0.58c0.23-0.6,1.55-0.96,1.55-0.96s0.08,0.27-0.08-0.21
				c-0.16-0.48-1.03-0.38-1.96-0.44c-0.93-0.06-1.57-0.19-1.74-0.98c-0.16-0.79-0.23-2.45-0.23-3.58c0-1.14,0.91-0.73,1.07-1.37
				c0.17-0.64-0.04-3.74-0.27-4.37c-0.23-0.64,0.33-2.01,0.46-2.91c0.12-0.91,1.06-0.5,1.06-0.5c-0.17-0.31,0.27-1.18,1.51-1.54
				c1.24-0.37,3.6,0.02,3.6,0.02s-0.21,0.02-0.79,0.77c-0.58,0.75-0.2,2.08-1.08,3.03c-0.87,0.94-3.08,0.64-3.08,0.64
				s0.68,1.56,0.39,2.06c-0.29,0.5-0.47,1.52-0.47,1.52s1.94,0.54,2.05,1.77c0.1,1.23,1.07,1.45,1.3,2.58
				c0.23,1.14-0.95,2.08-0.71,2.26c0.25,0.17,0.33,0.25,1.04,0.29c0.7,0.04,1.66,0.17,1.66,0.17s-0.39,0.58-0.04,1.19
				c0.35,0.62,0.08,1,0.12,1.66c0.04,0.66,0.44,1.21,0.6,1.1c0.17-0.11,0.93-1.79,1.1-2.54c0.16-0.75,0.29-1.16,0.62-1.16
				c0.33,0,1.45,1.02,1.57,1.39c0.13,0.37,0.21,0.87-0.41,1.87c-0.62,1-0.56,1.46-0.02,1.85c0.54,0.38,0.56,0.27,1.53,0.73
				c0.97,0.46,0.79,0.42,1.39,0.25c0.6-0.17-0.25-1.7-0.19-1.73c0.07-0.04,1.43-0.19,1.12-0.96c-0.31-0.77-0.62-1.16,0.02-1.54
				c0.64-0.39,1.1-0.69,1.1-0.69c-0.27-0.48-0.35-0.52-0.81-1.81c-0.46-1.29,0.39-0.94,2.18-0.81c1.78,0.14,1.86,0.75,2.81,1.23
				c0.95,0.48,0.35,0.66,0.66,1.43c0.31,0.77-0.79,0.89-0.79,0.89s-0.72,0.13-0.56,0.73c0.17,0.6,0.49,1.31,1.02,2.24
				c0.52,0.93-0.15,1.56-0.95,2.31c-0.81,0.75-1.76,0.96-2.71,0.98c-0.95,0.02-1.36,0.4-1.43,0.13c-0.07-0.27-0.52-0.52-1.03-0.4
				c-0.52,0.11-1.7,0.58-1.28,0.73c0.41,0.15,1.51,0.12,1.06,0.96c-0.46,0.85-0.85,0.85-1.76,0.75c-0.91-0.1-1.76-0.1-2.34-0.14
				c-0.58-0.04-3.44-0.21-3.44-0.21s1.93,1.18,3.46,1.66c1.53,0.48,3.14,0.19,3.14,0.19s-0.62,1.16-1.37,2.39
				c-0.74,1.23-1.45,0.69-2.07,0.77c-0.62,0.08-0.99,0.58-2.15,0.73c-1.16,0.15-3.58-0.33-3.21-0.15c0.37,0.17,0.54,0.48,1.2,0.58
				c0.66,0.1,1.08,0.21,1.66,0.69c0.58,0.48-0.37,0.6-1.14,0.73c-0.77,0.14-0.97,0.27-1.33,0.75c-0.35,0.48-1.66,2.35-2.07,2.93
				c-0.41,0.58-0.79,1.54-0.95,2.68c-0.17,1.14-1.14,2.5-0.7,2.79c0.43,0.29,2.07,0.33,2.75,0.75c0.68,0.42,1.45,2.51,1.97,3.3
				c0.52,0.79,0.93,1.39,1.51,0.77c0.58-0.62,1.72-0.46,2.8-0.08c1.08,0.39,3.27,1.91,3.95,2.58c0.68,0.67,1.88,0.56,3.23,0.75
				c1.34,0.19,1.5,0.7,1.5,0.7s1.4,0.07,0.82,0.67c-0.58,0.6-0.75,0.02-0.17,1.02c0.58,1,0.56,2.35,0.4,3.03
				c-0.17,0.67,1.85,0.33,2.7,0.83c0.85,0.5,0.9,2.54,1.33,2.29c0.43-0.25,1.16-0.69,1.24-1.23c0.08-0.54-0.02-1.25-0.11-2.18
				c-0.08-0.93-0.31-2.62-0.76-3.29c-0.46-0.68,0.82-0.95,0.61-1.23c-0.2-0.29-0.16-0.87,0.71-1.1c0.87-0.23,0.93-0.02,1.4-0.39
				c0.48-0.37,0.56-2.08,0.64-2.7c0.09-0.62-0.14-1.95-0.35-2.45c-0.2-0.5-1.05-2.1-1.36-2.45c-0.31-0.35-0.7-0.44,0.15-1.52
				c0.85-1.08,0.35-0.85,0.23-1.18c-0.12-0.33-0.31-1.14-0.47-1.87c-0.17-0.73,0.35-1.54,0.04-2.58c-0.31-1.04-0.64-0.81-0.58-1.04
				c0.06-0.23,2.03-0.17,3.48-0.02c1.45,0.15,2.03-0.15,2.44-0.15c0.41,0,1.16,0.4,1.97,0.93c0.81,0.52,1.12,0.39,1.53,1.02
				c0.41,0.63,0.64,0.98,1.49,0.94c0.85-0.04,1.76,0.37,1.76,0.37s-0.6,0.35-0.5,1.48c0.1,1.13-0.13,1.96-0.11,2.43
				c0.02,0.46,0.25,0.48,0.64,0.54c0.39,0.06,1.45,1,2.54,1.39c1.1,0.39,1.39,0.27,1.74-0.62c0.35-0.89,0.44-0.81,0.87-0.87
				c0.43-0.06,0.58,0.1,0.76-0.1c0.19-0.19-0.33-0.58-0.21-1.19c0.12-0.62,0.72-1.43,1.22-1.89c0.5-0.46,0.85,0.46,1.29,1.31
				c0.43,0.85,1.94,3.6,2.38,4.51c0.43,0.91,0.99,0.96,0.47,1.81c-0.52,0.85-0.76,1.21,0.04,1.6c0.8,0.39,1.53,1.06,1.47,1.7
				c-0.07,0.64-0.23,0.65,0.04,0.83c0.27,0.17,1.24-0.35,1.95-0.04c0.7,0.31,1.55,0.6,2.05,1.1c0.49,0.5,0.45,0.67-0.25,0.92
				c-0.7,0.25-1.41,0.5-1.76,0.71c-0.35,0.21-0.91,0.62-0.89,0.94c0.02,0.33-0.15,0.87,0.42,0.44c0.56-0.42,1.47-0.85,2.13-1.04
				c0.66-0.19,0.16-0.02,0.76-0.1c0.6-0.08,1.18,0.29,2.01,0.52c0.83,0.23,0.6,0.75,0.39,1.23c-0.21,0.48-0.39,0.94-0.06,1.48
				c0.33,0.54-0.15,1.02-0.87,1.68c-0.72,0.66-1.26,0.75-2.44,0.91c-1.18,0.15-1.74,0.87-2.57,1.64c-0.83,0.77-1.24,0.58-2.44,0.64
				c-1.2,0.06-0.72-0.6-1.1-0.46c-0.38,0.14-0.85,0.54-1.62,0.62c-0.77,0.08-3.36,0.12-4.35,0.4c-0.99,0.29-0.68,0.96-0.93,1.52
				c-0.25,0.56-0.64,0.33-1.39,0.58c-0.75,0.25-1.64,1.35-2.5,2.85c-0.87,1.5-2.05,2.43-2.05,2.43c0.25-0.06,1.47-0.81,2.07-1.54
				c0.6-0.73,3.1-2.47,3.87-3.01c0.76-0.54,2.42-1.33,2.81-1.22c0.39,0.12,1.37,0.87,1.37,1.25c0,0.39-0.29,0.69-0.99,1.35
				c-0.7,0.65-1.64,0-1.58,0.27c0.06,0.27,0.56,0.89,1.1,1.02c0.54,0.13,0.51,0.79,0.51,1.12c0,0.33-0.31,0.75,0.93,1.79
				c1.24,1.04,2.11,1.12,3.02,1.06c0.91-0.06,0.43,0.31,0.81,0.27c0.37-0.04,0.46-0.75,0.58-1.33c0.12-0.58,0.33-1.12,0.66-1.37
				c0.33-0.25,0.58-0.71,0.68,0.17c0.1,0.89-0.37,2.1-0.85,2.37c-0.47,0.27-0.37,0.62-0.37,0.89c0,0.27-0.54,0.29-1.82,1
				c-1.28,0.71-1.7,0.89-1.92,0.79c-0.23-0.1-0.71,0.12-1.32,0.68c-0.62,0.56-1.28,1.31-1.74,1.29c-0.46-0.02-0.85-0.21-0.23-0.85
				c0.62-0.64,0.83-1.52,1.45-1.83c0.62-0.31,0.91-0.27,1.43-0.27c0.52,0,0.27-0.31,0.68-0.62c0.41-0.31-0.31-0.21-1.01-0.33
				c-0.7-0.12-0.16-0.73-0.16-0.73l-0.73,0.39c0,0-1.1,0.58-1.39,0.62c-0.29,0.04-0.23,0.23-0.31,0.35
				c-0.08,0.12-1.12,0.19-1.12,0.19s-0.54,1.1-1.35,1.25c-0.81,0.16-0.24,0.1-0.83,0.35c-0.58,0.25-0.47-0.29-0.6-0.14
				c-0.12,0.16-0.23,0.29-0.87,0.77c-0.64,0.48-1.02,0.64-1.47,2.39c-0.46,1.75,0.08,2.39,0.06,2.66c-0.02,0.27-0.81-0.17-1.03,0.04
				c-0.23,0.21-0.75,0.87-1.43,1.06c-0.68,0.19-2.03,0.54-2.34,0.87c-0.31,0.33-0.33,0.79-0.48,1.46c-0.14,0.67-0.95,2.26-0.95,2.26
				s0.19-0.64-0.37-1.1c-0.56-0.46-0.47-0.89-0.47-0.89s-0.13,0.64,0.08,1.29c0.21,0.66,0.62,1.31,0.43,2.02
				c-0.19,0.71-0.54,1.6-0.97,1.85c-0.44,0.25,0.1-0.48,0.1-1.06c0-0.58-0.29-0.62-0.48-0.91c-0.19-0.29-0.19-1.02,0.15-2.01
				c0.33-0.98-0.31-0.38-0.68,0.27c-0.37,0.65-0.64,1.87-0.06,2.66c0.58,0.79-0.37,0.71,0.02,1.85c0.39,1.14-0.47,1.7-0.31,1.87
				c0.17,0.17,0.62-0.08,0.83,0.48c0.21,0.56-0.41,0.31-0.62,0.46c-0.21,0.15-0.11,0.37,0.02,0.67c0.12,0.31,0.37,0.11,0.27,0.21
				c-0.1,0.1-0.39,0.48-0.93,0.66c-0.53,0.17-0.58-0.1-0.91,0.29c-0.33,0.38-0.58,0.73-0.93,1.17c-0.35,0.44-0.6,0.29-0.97,0.6
				c-0.37,0.31-0.52,0.56-0.98,0.95c-0.45,0.38-1.49,0.98-2.04,1.73c-0.56,0.75-0.41,0.94-0.68,2.16c-0.27,1.21,0.68,3.33,1.28,5.34
				c0.6,2,0.85,1.44,0.77,2.08c-0.08,0.64-0.35,1.41-0.79,1.85c-0.43,0.44-0.68-0.31-1.28-0.75c-0.6-0.44-0.13-0.75-0.71-1.68
				c-0.58-0.93-0.54-1.25-0.6-1.93c-0.06-0.68-0.16-1.64-0.47-2.37c-0.31-0.73-0.97-1.66-1.97-1.29c-0.99,0.37-0.74,0.19-1.28,0.04
				c-0.54-0.15-1.97-0.73-2.69-0.35c-0.72,0.38-3.02-0.12-3.5,0c-0.48,0.12-0.83,0.15-0.83,0.48c0,0.33-0.2,0.38,0.64,0.62
				c0.85,0.23,0.72,0.48,0.67,0.85c-0.07,0.36-0.69-0.19-1.02-0.33c-0.33-0.13-0.64,0.27-1.22,0.27s-0.68-0.56-1.2-0.64
				c-0.52-0.08-0.72,0-1.22-0.19c-0.5-0.19-1.16-0.52-1.74-0.48c-0.58,0.04-2.82,1.52-3.87,2.31c-1.05,0.79-1.86,1.56-2.11,2.2
				c-0.25,0.64-0.27,0.69,0.58,1.64c0.85,0.94,0.46,0.79,0.29,1.33c-0.16,0.54-0.66,1.19-1.26,2.58c-0.6,1.39-0.25,2.06,0.47,3.39
				c0.72,1.33,1.37,2.29,1.95,2.85c0.58,0.56,0.99,1.16,1.49,1.37c0.5,0.21,0.6,0.29,0.83,0.52c0.23,0.23,0.16,0.33,0.95,0.12
				c0.78-0.21,1.36-0.52,1.92-0.52c0.56,0,1.08,0.02,1.39,0.31c0.31,0.29,0.35,0.12,0.35-0.04c0-0.15,0.25-0.73,0.33-0.89
				c0.08-0.15,0.83-1.21,0.95-1.79c0.12-0.58,0.12-1.73,0.85-1.81c0.72-0.08,2.27-0.44,3.68-0.35c1.4,0.1,0.79,0.79,0.42,1.52
				c-0.37,0.73-0.52,0.81-0.52,1.37c0,0.56,0.17,0.56-0.29,0.89c-0.46,0.33-0.17-0.19-0.35,0.13c-0.19,0.33-0.85,0.79-0.76,0.71
				c0.08-0.08,0.29,0.56,0.29,0.87c0,0.31-0.06,0.46-0.06,1.21c0,0.75-1.47,1.52-1.47,1.52s0.54,0.31,1.32,0.31
				c0.79,0,1.74,0,2.57,0.39c0.83,0.38,2.4-0.31,3.56,0.27c1.16,0.58,0.75,0.92,0.83,1.46c0.08,0.54,0.21,2.39,0.13,2.81
				c-0.09,0.42-0.63,1.62-0.91,2.47c-0.29,0.85,0.83,1.46,1.86,2.16c1.03,0.69,1.94,1,2.49,1.16c0.53,0.15,1.53-0.81,3.35-0.69
				c1.82,0.12,2.44,1.66,2.44,1.66s0.21-0.96,1.04-2.28c0.83-1.31,0.87-1.7,1.98-2.12c1.12-0.42,1.49-0.5,3.31-1.08
				c1.82-0.58,1.49-0.15,2.44-0.08c0.95,0.08,3.15,0.27,5.34,0.93c2.19,0.65,5.55,0.85,6.83,1.39c1.29,0.54,1.86,2.04,3.19,3.28
				c1.32,1.23,2.98,2.35,3.68,2.93c0.71,0.58,4.64,1.12,5.51,1.46c0.87,0.35,2.07,1.77,2.15,2.62c0.08,0.85,0.95,1.27,2.15,1.77
				c1.2,0.5,1.58,1.08,2.36,2.62c0.79,1.54,0.54,1.96,1.61,2.35c1.08,0.39,8.53,2.39,10.39,3.12c1.86,0.73,4.22,2.7,4.84,2.93
				c0.62,0.23,1.74-0.19,2.23,0.08c0.5,0.27-0.29,1.73,0.33,2.78c0.62,1.04,0.66,1.12,0.29,1.89c-0.37,0.77-1.86,2.62-2.44,3.55
				c-0.58,0.93-1.82,1.5-2.53,1.89c-0.7,0.38-1.32,0-0.7,0.77c0.62,0.77,0.04,1.43-0.5,2.12c-0.54,0.69,0.04,0.62-0.12,2.85
				c-0.17,2.23,0,4.66-0.25,5.63c-0.25,0.96-1.69-0.85-3.35,1.23c-1.65,2.08-2.11,3.66-3.1,3.89c-1,0.23-3.31,1.39-4.1,2.12
				c-0.79,0.73-0.95,1-1.45,2.08c-0.5,1.08-0.99,3.28-1.53,4.63c-0.54,1.35-1.41,2.12-3.4,3.93c-1.99,1.81-2.86,3.66-4.14,5.09
				c-1.28,1.43-0.95,1.12-1.22,1.39c-0.68,0.69-3.51-1.11-2.78-0.11c0.54,0.73-0.3,0,0.15,0.69c0.46,0.69,0.79,0.96-0.21,2.2
				c-0.99,1.23-2.14,0.99-2.93,1.18c-0.79,0.19-1.96-0.81-2.04-0.31c-0.08,0.5-0.54,1.75-1.16,2.05c-0.62,0.31-2.27,0.77-2.23,0.96
				c0.78,3.65,2.39,4.03,0.69,3.87c-4.67-0.46-1.34-1.56-4.58,5.23c-0.49,1.04-0.99,0.5-0.91,1.73c0.08,1.23,0,2.16,0.67,2.93
				c0.66,0.77,0.2,0.73-0.91,1.77c-1.12,1.04-1.2,0.89-2.23,2.47c-1.03,1.58-2.03,1.5-1.66,2.7c0.37,1.19,0.45,2.97,1.08,4.74
				c0.62,1.77,1.9,1.46,3.93,2.7c2.03,1.23,2.28,0.58,3.27,0.89c0.99,0.31-0.71,0.39-2.48,0.69c-1.78,0.31-2.94,0.65-4.18,0.39
				c-1.24-0.27-4.18-1.97-5.17-2.7c-0.99-0.73-2.61-2.04-3.19-3.31c-0.58-1.27-0.99-2.54-1.74-4.28c-0.75-1.73-0.21-2.81,0.12-6.63
				c0.33-3.82,0.58-6.78,1.12-8.83c0.53-2.04,2.19-11.14,2.65-13.49c0.46-2.35,2.57-11.91,2.73-13.41c0.16-1.5,0.29-2.66,0.62-4.16
				c0.33-1.5,0.12-4.55,0.12-4.7c0-0.15-0.12-0.27-0.58-1.7c-0.45-1.43-1.2-2-2.23-2.62c-1.03-0.62-2.11-1.39-2.94-1.97
				c-0.83-0.58-1.82-1.39-2.65-2.43c-0.83-1.04-1.62-3.16-2.03-4.05c-0.41-0.89-1.95-3.89-3.35-5.97c-1.41-2.08-1.49-2.12-2.19-4.32
				c-0.7-2.2,0.62-2.23,0.87-3.47c0.24-1.23,1.07-2.47,1.99-4.2c0.91-1.73,2.11-2.24,2.81-3.78c0.7-1.54,0.17-1.54-0.08-3.04
				c-0.25-1.5,0.08-1.27-0.37-2.08c-0.45-0.81-0.7-1.81-1.11-2.08c-0.42-0.27-1.03-0.46-1.41-0.04c-0.37,0.42-1.03,1.66-1.45,1.73
				c-0.41,0.08-0.58-0.39-0.83-0.66c-0.25-0.27-1.45-0.27-1.7-0.54c-0.25-0.27-0.87-0.31-1.28-0.5c-0.42-0.19-2.03-1.04-2.49-1.43
				c-0.45-0.39-1.03-1.31-1.03-2.31c0-1-0.87-1.39-2.81-2.77c-1.95-1.39-2.77-1.58-5.13-2.16c-2.36-0.58-3.31-2.23-4.1-2.7
				c-0.79-0.46-0.7-0.96-2.44-0.77c-1.74,0.19-3.85-0.77-5.17-1.31c-1.32-0.54-3.68-0.93-4.68-1.58c-0.99-0.66-2.73-0.89-3.48-2.47
				c-0.75-1.58-0.62-0.96-0.33-2.35c0.29-1.39-1.7-2.54-2.9-3.85c-1.2-1.31-2.11-1.5-2.73-3.12c-0.62-1.62-1.53-1.54-2.73-2.7
				c-1.2-1.16-1.25-2.62-1.74-3.93c-0.5-1.31-3.81-3.2-3.81-3.2s0.87,2.2,1.24,3.08c0.37,0.89,1.24,3.01,2.23,4.59
				c0.99,1.58,1.86,1.96,2.77,3.55c0.91,1.58,0.04,2.54-0.29,1.93c-0.33-0.62-1.66-0.89-1.66-1.62c0-0.73-0.33-1.2-0.62-1.77
				c-0.29-0.58-1.57-1.23-2.82-2.24c-1.24-1-2.11-1.46-1.32-1.46c0.79,0,1.91,0.73,1.7,0.27c-0.21-0.46-1.62-1.89-2.28-2.89
				c-0.66-1-0.87-2.12-1.53-3.81c-0.66-1.7-3.1-3.32-4.3-3.43c-1.2-0.12-1.53-0.69-1.94-1.93c-0.41-1.23-0.49-2.54-1.03-3.51
				c-0.54-0.96-2.86-4.2-2.9-5.43c-0.04-1.23-0.71-4.82,0.12-6.82c0.83-2,0.62-6.47,0.49-7.36c-0.12-0.89-1.62-2.58-1.62-3.24
				c0-0.65,0.87-0.27,1.54-0.08c0.66,0.19,2.07,0.77,2.07,0.77s-1.07-2-1.74-2.7c-0.67-0.69-2.61-1.58-3.48-1.77
				c-0.87-0.19-1.99-0.5-2.44-1.23c-0.45-0.73-0.95-1.7-1.28-2.31c-0.33-0.62-1.74-1.35-2.07-2c-0.33-0.66-0.25-1.93-0.7-2.58
				c-0.46-0.65-1.12-1.04-1.87-0.77c-0.75,0.27-0.99-0.38-1.57-1.35c-0.58-0.96-1.86-1.43-2.24-1.54c-0.37-0.12-1.65-1.81-1.74-2.24
				c-0.08-0.43-2.11-2.66-2.77-3.12c-0.67-0.46-7.08-2.54-7.24-2.54c-0.17,0-2.03,0.27-2.53,0.12c-0.5-0.16-2.19-1.62-3.06-1.93
				c-0.87-0.31-1.5,0.35-1.91,1.31c-0.42,0.96-2.44,2.62-3.56,3.35c-1.12,0.73-2.03,0.81-1.95,0.42c0.08-0.39,0.04-1,0.42-1.93
				c0.37-0.92,0.58-1.2,1.74-1.77c1.16-0.58,1.12-0.62,0.67-0.58c-0.45,0.04-0.79-0.08,0.12-0.62c0.91-0.54,1.28-0.62,1.24-1.08
				c-0.04-0.46-1.99,0.62-3.23,1.62c-1.24,1-1.98,1.7-3.06,3.47c-1.08,1.77,0.12,1.12-0.79,2.27c-0.91,1.16-4.01,3.51-4.92,4.39
				c-0.91,0.89-4.68,2.85-6.21,3.32c-1.53,0.46-2.15,0.65-2.9,1.27C5,101.23,3.14,101.42,3.76,101c0.62-0.42,1.78-1.39,2.57-1.85
				c0.78-0.46,2.9-1.31,3.52-1.54c0.62-0.23,2.36-1.31,3.23-2.27c0.87-0.96,1.45-2.08,2.03-3.01c0.58-0.93,0.7-1.35-0.5-0.96
				c-1.2,0.39-2.45,0.23-3.06,0c-0.62-0.23-2.24,0.73-2.82,0.31c-0.58-0.42,0.04-1.31-0.33-1.73c-0.37-0.42-1.66-0.15-2.48-0.31
				c-0.83-0.15-1.99-0.81-1.99-1.96c0-1.16-0.83-2.16-0.37-3.04C4.01,83.73,4.67,83.5,5.41,83c0.75-0.5,2.81-1.16,3.23-1.16
				c0.42,0,1-0.42,1.37-0.81c0.37-0.39-0.87-1.77-0.87-1.77s0.21-0.15,0.7-0.46c0.5-0.31,0.13-0.96-0.75-0.85
				c-0.87,0.12-2.73,1-3.89,1.31c-1.16,0.31-2.73,0.12-2.69-0.39c0.04-0.5,0.29-0.81-0.12-1.19c-0.41-0.39-0.75-0.81-0.33-1
				c0.41-0.19,2.98-1.62,2.98-1.62s0.91,1,1.9,1.12c0.99,0.12,3.1-1.73,3.1-1.73c-1.33-0.81-1.03-1.04-1.03-1.04
				s-2.15-0.04-2.65-0.35c-0.49-0.31-0.66-0.92-0.79-1.46c-0.12-0.54-2.23-0.96-1.66-1.85c0.58-0.89,1.66-1.19,2.36-2.08
				c0.71-0.89,1.32-2.54,3.35-3.47c2.03-0.92,4.47-1.77,5.55-2.54c1.07-0.77,1.57-0.04,1.99,0.08c0.41,0.12,2.98-0.11,3.97-0.11
				c0.99,0,1.16,1.12,1.49,1.39c0.33,0.27,9.07,0.54,9.07,0.54s7.41,0.12,8.9,0.54c1.49,0.42,4.18,1.54,4.18,1.54
				C46.41,65.41,46.27,63.42,47.28,63.42z M146.8,18.71c0,0-0.75,3.08-3.72,3.93c-2.98,0.85-8.45,3.24-8.69,3.39
				c-0.25,0.15,0.33,1.85,1.07,2.7c0.75,0.85,1.45,1.42,2.11,2.27c0.66,0.85,1.82,0.77,2.73,1.66c0.91,0.89,1.57,0.58,4.06,0.62
				c2.48,0.04,1.82,0.23,4.59,0.38c2.77,0.15,5.67,0.39,6.62,1.23c0.95,0.85,2.32,4.16,3.19,6.17c0.87,2,2.4,5.32,2.4,5.63
				c0,0.31-0.95,2.74-0.95,3.12c0,0.39,0.49,1.04,0.95,1.58c0.45,0.54,0.2,0.96,0.12,1.46c-0.08,0.5,0.5,1.77,0.58,1.93
				c0.08,0.15,1.32-1.23,2.11-1.46c0.79-0.23,2.73,1.39,2.73,2.5c0,2.53,0.69,1.67-3.44,4.66c-0.55,0.39-1.08,3.43-0.66,4.89
				c0.41,1.46,1.4,3.2,2.19,5.28c0.79,2.08,3.1,5.01,3.85,6.36c0.75,1.35,0.95,3.2,2.61,3.62c1.66,0.42,3.23,1,4.43,1.27
				c1.2,0.27,1.99,0.66,2.56-0.46c0.58-1.12,1.74-5.36,2.69-8.44c0.95-3.08-0.08-4.01,2.15-4.7c2.24-0.69,5.79-2.08,6.75-2.51
				c0.95-0.42,0.79-3.47,2.9-4.47c2.11-1,2.4-0.92,4.47-1.58c2.07-0.66,4.97-1.97,7.04-3.43c2.07-1.47,2.65-0.69,3.4-2.04
				c0.75-1.35-0.75-3.32-0.91-5.32c-0.17-2,0.66-2.12,1.07-3.93c0.41-1.81,0.62-3.01,2.23-4.24c1.62-1.23,2.48-1.93,2.19-3.08
				c-0.29-1.16-1.12-2.89-1.12-4.16c0-1.27,0.29-0.54-0.37-2.31c-0.66-1.77-0.66-2-0.04-3.66c0.62-1.66,2.28-1.23,2.15-1.97
				c-0.13-0.73-2.65-1.85-2.69-3.89c-0.04-2.04,0.45-2.66,0.87-3.16c0.42-0.5,4.64-3.85,4.93-4.16c0.29-0.31-0.08-1.16,1.99-2.16
				c2.07-1,2.77-1.66,3.56-1.96c0.79-0.31,2.03-0.27-0.37-0.96c-2.4-0.69-2.94-1-4.51-0.81c-1.57,0.19-2.11,1.08-4.93,1.35
				c-2.81,0.27-6,1.58-6,1.58s0.95-0.85,0.12-1.66c-0.83-0.81,2.15-3.47,2.65-3.78c0.49-0.31-3.89-1.39-6.17-1.81
				c-2.27-0.42-6.74-1.77-9.31-1.58c-2.57,0.19-6.33,0.16-7.62,0.58c-1.28,0.42-1.12,2.08-2.57,2.16c-1.45,0.08-4.14-0.85-6.21-0.54
				c-2.07,0.31-5.38,1.74-5.75,1.81c-0.37,0.08,1.28,1.08,2.36,1.31c1.08,0.23,2.48,2.47,2.48,2.47s-2.89-0.96-5.83-1.77
				c-2.94-0.81-6.38,0-7.58,0.35c-1.2,0.35-2.77,1-5.17,1.12c-2.4,0.11-5.13,2.08-6.5,3c-1.36,0.93-5.63,3.39-6.7,3.97
				c-1.08,0.58-0.66,0.85,0.5,1.16C145.56,18.52,146.8,18.71,146.8,18.71z M85.46,50.57c0.33,1.41,0.33,3.44-0.44,2.57
				c-0.77-0.87-1.41-2.65-2.65-1.93c-1.24,0.72-2.59,0.51-2.37,0.36c0.22-0.16-0.03-0.93-0.66-1.16c-0.63-0.23-1.02,0.13-1.68,0.51
				c-0.66,0.39-2.76,0.9-1.9,0.23c0.86-0.67,0.58-1.03,0.27-1.8c-0.3-0.77-2.48,0.54-3.64,1.36c-1.16,0.82-1.84,2.08-2.54,2.93
				c-0.69,0.85-0.19,1.39,0.86,1.7c1.05,0.31,2.73,0.51,1.32,1.03c-1.41,0.51-2.48,0.87-1.76,1.31c0.72,0.44,1.96,0.51,3.2,0.36
				c1.25-0.15,2.29-0.49,4.28,0.05c1.99,0.54,3.17,0.51,3.17,0.51s-0.74,0.46-2.07,0.69c-1.33,0.23-3.76,0-5,0.23
				c-1.24,0.23-3.2,0.56-2.7,1.03c0.5,0.46,0.88,1.18,2.59,1.72c1.71,0.54,2.02,0.03,3.04,0.28c1.02,0.26,0.47,1.41,0.75,1.59
				c0.28,0.18,2.21-0.15,4.14-0.51c1.93-0.36,1.22-0.67,2.73-1.05c1.52-0.38,1.57-1.54,2.46-1.8c0.88-0.26,0.25,0.59,1.3,0.85
				c1.05,0.26,0.47,0.33,1.6,0.52c1.13,0.18,0.91,0.62,2.01,0.54c1.11-0.08,2.4-0.82,2.23-0.95c-0.16-0.13-0.33-0.46-0.22-0.98
				c0.11-0.51-1.11,0.1-1.55,0.36c-0.44,0.26-0.41-0.69,0.52-1.16c0.94-0.46,1.77,0,2.32,0c0.55,0,0.06-1.59-0.94-1.85
				c-0.99-0.26-1.43-0.87-2.93-1.7c-1.49-0.82-0.72-1.18-1.16-2.26c-0.44-1.08-1.38-4.27-2.21-4.83c-0.83-0.56-1.71-0.41-2.54-0.97
				C85.3,48.36,85.13,49.16,85.46,50.57z M62.56,48.39c0.36,1.03,0.41,0.39-0.3,1.52c-0.72,1.13-0.3,1.54-0.8,2.39
				c-0.49,0.85-1.82,1.98-1.41,2.54c0.41,0.57,1.74,0.9,2.29,1.34c0.55,0.44,1.1,1.34,2.09,1c1-0.33,1.32-0.57,2.02-0.93
				c0.69-0.36,1.27-0.77,1.24-1.67c-0.02-0.9-0.05-1.33,0.23-1.26c0.27,0.08,0.71,0.49,0.93-0.1c0.22-0.59,0.61-1.36,1.08-1.83
				c0.47-0.46,1.82-0.92,2.45-1.46c0.64-0.54,1.71-1.13,2.02-1.59c0.31-0.46-0.55-0.82-1.08-1.03c-0.52-0.21-1.13-1.03-2.34-1.03
				c-1.22,0-1.88,0.93-1.82,0.51c0.06-0.41-0.83-0.62-1.32-0.8c-0.5-0.18-0.97-0.46-2.54-0.28c-1.57,0.18-2.23,0.28-3.48,0.64
				C60.74,46.67,62.2,47.36,62.56,48.39z M98.48,60.7c-0.16,0.23-0.88,0.46-1.32,0.98c-0.44,0.51,0.93,0.23,1.38,0.38
				c0.44,0.15,0.78,0.59,1.13,0.72c0.36,0.13,2.29,0.2,3.09-0.18c0.8-0.38,0.88-0.51,0.8-0.69c-0.08-0.18-1.65-1.72-2.81-2.34
				c-1.16-0.62-1.19-0.64-1.43-0.49C99.07,59.23,98.65,60.47,98.48,60.7z M93.27,48.67c-0.75,0.37-1.29,0.82-0.03,1.46
				c1.27,0.64,1.68,1.18,2.54,1.72c0.86,0.54,1.22,2.08,3.01,1.39c1.79-0.69,2.51-1.52,2.76-2.24c0.24-0.72-0.25-0.87-0.69-1.54
				c-0.44-0.67-0.55-0.95-1.46-0.85c-0.91,0.1-1.22,0.1-1.22,0.1s0.61-0.77,1.6-1.26c0.99-0.49,0.16-0.82,0.63-1.28
				c0.47-0.46-1.19-0.69-1.9-0.51c-0.72,0.18-0.75-0.05-1.93-0.1c-1.19-0.05-3.06,1.03-2.98,1.41c0.08,0.39,0.97,0.23,1.79,0.69
				c0.83,0.46,1.08,0.41,0.25,1.72c-0.83,1.31-1.27-0.31-1.54-0.52C93.82,48.67,94.04,48.29,93.27,48.67z M87.97,46.31
				c-1.24,0.12-1.66,0.98-1.19,1.1c0.47,0.13,0.77-0.13,1.51,0.67c0.75,0.8,1.41,1.23,1.71-0.08
				C90.32,46.69,89.88,46.13,87.97,46.31z M68.05,36.36c-1.38,1.1-1.66,1.98-2.73,2.67c-1.08,0.69-0.83,1.28-0.47,1.67
				c0.36,0.39,1.43-0.02,1.93-0.28c0.5-0.26,0.91-0.9,1.22-0.51c0.3,0.39,1.57-1.31,2.07-1.88c0.49-0.57,1.27-1.16,1.41-1.13
				c0.14,0.03-0.47,0.67-0.25,1.21c0.22,0.54,1.21,0.56,2.1-0.36c0.88-0.93,0.08-1.77,0.78-2.49c0.69-0.72,1.27-0.62-0.08-1.26
				c-1.35-0.64-2.21,0.08-2.49,0.41C71.25,34.75,70.76,34.21,68.05,36.36z M76.46,38.11c-0.78,0.04-1.13,0.15-2.43,0.72
				c-1.3,0.56-1.85,2.03-2.15,2.83c-0.31,0.8,0.14,0.8,1.33,1.26c1.19,0.46,2.84-0.13,3.23-1.23c0.39-1.1,0.86,0.26,0.64,0.82
				c-0.22,0.57,0.83,0.05,1.33-0.21c0.49-0.26,1.98-0.36,2.1-0.36c0.11,0-1.22,1-2.51,1.44c-1.3,0.44-2.34,0.67-2.7,0.72
				c-0.36,0.05,0.33,0.59,1.85,0.9c1.52,0.31,2.43-0.93,4.61-1.75c2.18-0.82,2.07-0.98,2.79-0.77c0.72,0.21,1.49-0.36,2.37-0.57
				c0.88-0.21,1.24,0.13,1.63-1.18c0.38-1.31,1.07-2.57-0.17-2.65c-1.24-0.08-1.33-0.08-1.49,1.34c-0.16,1.41-0.28,0.54-0.28,0.54
				s-0.83-1.23-1.33-1.88c-0.49-0.64-0.85-1.64-1.41-2.18c-0.55-0.54-0.8,0.23-1.66,1.18c-0.86,0.95-0.17,1.31,0.69,1.72
				c0.86,0.41,1.46,1.46,1.05,1.75c-0.41,0.28-0.88-0.05-2.46,0.13c-1.58,0.18-1.52-0.49-1.96-0.69c-0.44-0.21,0.75-0.64-0.94-1.34
				C76.91,37.96,77.02,38.09,76.46,38.11z M71.36,39.45c0.18-0.3-2.1,1.34-2.44,1.86c-0.35,0.53,0.35,0.44,1.04,0.41
				C70.65,41.7,70.78,40.44,71.36,39.45z M75.72,36.04c-0.57,0.26-0.57,0.45,0.36,0.55c0.93,0.1,1.47-0.31,1.27-0.69
				C77.16,35.52,76.18,35.84,75.72,36.04z M80.43,31.16c-0.61,0.1-2.4,0.73-2.5,1.04c-0.1,0.31,0.02,0.98,0.29,1.5
				c0.28,0.53,0.37,0.6,1.92,0.19c1.55-0.41,2.61-1.21,2.1-1.35c-0.51-0.14-0.83-0.37-1.28-0.44c-0.45-0.06,0.4-0.31,1.42-0.63
				C83.39,31.16,83.74,30.61,80.43,31.16z M75.2,31.97c-0.44,0.2-0.59,0.2,0.32,0.55c0.91,0.35,1.89,0.32,1.77,0.04
				C77.16,32.28,76.42,31.4,75.2,31.97z M78.76,29.44c-0.86,0.34-1.06,0.96-1.26,1.21c-0.19,0.24,0.98-0.18,1.52-0.31
				c0.54-0.13,0.66,0.19,1.19-0.27c0.52-0.46,1.56,0.01,2.5-0.19c0.93-0.21,1.09-0.82,0.88-1.36
				C83.38,27.97,81.23,28.46,78.76,29.44z M88.11,31.77c-0.26,0.12-0.16,0.53,0.06,1c0.22,0.47,0.28,0.36,0.74,0.54
				c0.47,0.18,0.94,0.55,1.05,0.67c0.11,0.12,0.18,0.15,0.37-0.31c0.19-0.46-0.1-0.38-0.62-1C89.19,32.05,88.78,31.44,88.11,31.77z
				 M91.3,35.8c-0.71-0.19-1.12,0.22-1.38,0.35c-0.26,0.13,0.14,0.42,0.32,0.98c0.18,0.55,0.03,0.73,1.08,0.81
				c1.05,0.08,1.36-0.12,1.45-0.78C92.84,36.48,91.96,35.98,91.3,35.8z M95.37,37.01c-0.65-0.48-0.97-0.86-1.63-0.59
				c-0.66,0.27-0.11,0.6-0.11,0.78c0,0.18,0.8-0.03,0.81,0.41c0.01,0.44,0.26,0.62-0.71,0.67c-0.96,0.05-1.23,0.01-1.6,0.3
				c-0.37,0.28,0.72-0.04,1.05,0.4c0.33,0.44,0.89,0.49,1.82,0.35c0.92-0.14,2.18-0.35,2.18-0.35s-0.68,0.64-0.95,1.09
				c-0.27,0.45-0.39,1.09,0.1,1.41c0.48,0.32,0.54-0.33,1.88-0.36c1.34-0.02,1.74-0.72,1.74-0.72s-0.3-0.3-0.26-0.96
				c0.04-0.67-0.01-0.82-0.01-0.82s0.54,0.39,0.66,0.54c0,0-0.09-0.4-0.29-1.12c-0.19-0.72-0.04-0.77-0.25-1.75
				c-0.21-0.98-0.16-1.18-1.17-1.16c-1.01,0.03-1.7,0.37-2.52,0.37c-0.83,0-1.19,0.15-0.58,0.46c0.61,0.31,0.69,0.68,0.98,1.03
				c0.29,0.35,0.24,1.18,0.25,1.14C96.76,38.1,95.37,37.01,95.37,37.01z M90.33,40.67c-0.02,0-0.03,0.01-0.04,0.02
				c-0.42,0.21-0.56,0.67-0.59,1c-0.03,0.33,0.55,0.14,1.48-0.18C92.1,41.18,91.64,40.25,90.33,40.67z M103.36,38.92
				c-0.77,0.42-1.38,0.98-1.82,1.48c-0.44,0.5-0.05,0.56,1.09,1.14c1.15,0.58,2.37,0.69,2.91,0.09
				C106.07,41.03,105.29,37.87,103.36,38.92z M108.68,34.44c-1.47,0.15-1.01,0.37-2.71-0.19c-1.7-0.56-3.83-0.62-4.41-0.62
				c-0.58,0-0.31,0.27,0.29,1.25c0.6,0.98,0.76,1.33,2,1.02c1.25-0.31,2.26-0.52,3.17,0.79c0.91,1.31,1.39,1.72,0.64,2.2
				c-0.75,0.48-0.39,1.25,0.04,2.26c0.43,1,1.43,0.96,2.81,0.96c1.39,0,10.16-0.13,11.53-0.38c1.36-0.25,2.58-1.41,3.31-1.93
				c0.72-0.52,1.12-1.33,0.12-1.93c-1-0.6-2.4-1.16-3.52-1.16c-1.12,0-2.07,0.58-3.77,0.75c-1.7,0.17-1.32,0.98-2.86,1.02
				c-1.53,0.04-0.79,0.71-2.67-0.06c-1.88-0.77-3.27-1.73-2.38-1.87c0.89-0.14,1.61-0.25,1.12-0.67
				C110.92,35.46,110.05,34.3,108.68,34.44z M91.13,27.27c0.91,0.31,1.14,0.54,0.12,0.81c-1.02,0.27-1.8,0.98-0.79,0.85
				c1.01-0.13,1.88,0.1,3.18,0.31c1.31,0.21,1.2,0.08,1.78,0.81c0.58,0.73,1.2,0.73,2.09,0.52c0.89-0.21,1.01-0.27,0.44-0.91
				c-0.58-0.64-1.18-1.81-1.97-2.27c-0.79-0.46-1.45-1.12-2.23-1.04c-0.79,0.08-0.97,0.09-1.66-0.83c-0.68-0.92-1.22-0.48-2.22-0.23
				c-0.99,0.25-1.31,0.96-1.7,1.27C87.41,27.19,90.22,26.96,91.13,27.27z M103.06,17.82c-1.08,1.35-1.95,2.49-0.73,2.62
				c1.22,0.14,1.76-0.1,1.84,0.29c0.08,0.38-0.21,0.65-2.03,0.65c-1.82,0-1.26,0.4-0.25,1.6c1.02,1.19,1.12,0.79,2.67,0.75
				c1.55-0.04,2.07-0.6,3.36-0.27c1.28,0.33,1.67,0.66,0.52,1c-1.16,0.35-3.89,1-3.27,1.58c0.62,0.58,2.55,1.97,3.42,2.1
				c0.87,0.13,1.05-0.58,2.94-0.37c1.89,0.21,1.43,0.41,1.63-0.11c0.21-0.52,1.24-1.85,1.45-2.33c0.21-0.48,0.73-0.79,1.76-1.02
				c1.03-0.23,1.36-0.56,0.39-0.91c-0.97-0.35-2.07-0.5-1.96-0.77c0.1-0.27,0.7-1.06,0.29-1.46c-0.42-0.41-1.07-0.39-1.62-0.6
				c-0.54-0.21-1.14-1.2-1.82-1.62c-0.68-0.42-1.28-0.46-2.11-1.1c-0.83-0.64-2.15-2.19-3.81-2.1
				C104.61,15.82,104.13,16.48,103.06,17.82z M100.94,29.1c-0.41,0.21-1.45,0.25-0.68,0.89c0.76,0.64,0.56,0.66,1.53,0.29
				c0.98-0.37,2.38-1.27,2.51-1.54c0.12-0.27-0.98-0.79-1.72-1.02c-0.74-0.23-1.26-0.83-2.81-1.25
				C97.51,25.84,101.36,28.89,100.94,29.1z M151.57,9.05c-1.71-0.46-7.83-1.65-9.82-1.18c-1.99,0.46-1.88-1.03-4.64-0.67
				c-2.76,0.36-7.01,0.15-8.33,0.36c-1.32,0.21,0.66,0.77,1.38,1.23c0.72,0.46-3.42-0.51-6.57,0.36c-3.14,0.87-5.19,1.34-1.82,2.62
				c3.37,1.28,3.81,1.64,3.81,1.64s-4.31-0.77-6.12-1.49c-1.82-0.72-0.83-0.67-4.25,0.31c-3.42,0.98-6.73,1.49-6.57,2.52
				c0.16,1.03,2.76,2.42,4.47,2.77c1.71,0.36,5.24-0.51,5.52-0.62c0.27-0.1-1.38,1.39-1.38,1.39s1.77-0.36,3.75-0.87
				c1.99-0.51,3.53-1.08,5.41-1.75c1.87-0.67,2.21-0.87,2.21-0.87s-3.25,2.52-5.52,3.39c-2.26,0.87-5.19,1.44-6.57,1.49
				c-1.38,0.05-1.16,0.92,0.22,1.64c1.38,0.72,2.43,2.26,3.14,2.77c0.72,0.52,0.83,1.34,0.83,1.34s-2.15-1.7-4.53,0
				c-2.37,1.69-2.04,2.57-1.43,2.77c0.6,0.2,2.7,0.41,3.09,1.13c0.39,0.72,3.14-0.67,3.14-0.67s-1.38,1.75-2.7,1.75
				c-1.32,0-1.27-1.13-3.2-0.93c-1.93,0.21-1.82,0.67-0.99,1.34c0.83,0.67,1.49,0.87,0.05,1.54c-1.43,0.67-2.1,0.87-2.15,1.69
				c-0.06,0.82,1.87,0.82,3.09,0.82c1.21,0,2.37-0.1,4.58-0.15c2.2-0.05,1.93-0.77,2.76-0.77c0.83,0,1.66,0.26,1.33,1.08
				c-0.33,0.82,0.33,0.31,2.76-0.56c2.43-0.87,1.32-2.21,1.16-2.67c-0.17-0.46-1.05-0.62-1.6-0.87c-0.55-0.26,1.66-2.52,1.32-3.29
				c-0.33-0.77,2.71-0.15,4.08-1.95c1.38-1.8,0.88-3.14-0.11-3.44c-0.99-0.31,1.82-0.1,2.7-0.62c0.88-0.51,2.82-1.13,3.59-2.11
				c0.77-0.98,1.05-1.34-0.83-1.13c-1.88,0.21,2.7-0.82,4.91-2.26c2.21-1.44,4.75-3.13,5.3-3.55c0.55-0.41,1.05-0.21-1.55-0.05
				c-2.59,0.15-5.68-0.21-3.97-0.41c1.71-0.21,6.79-0.82,8.11-1.8C150.97,9.36,151.57,9.05,151.57,9.05z M120.67,44.72
				c-2.76-0.26-6.79-0.93-7.62,1.44c-0.83,2.36-2.1,7.61-2.21,8.58c-0.11,0.98,3.31,2.42,5.68,2.52c2.37,0.1,6.24,0.26,5.47-0.31
				c-0.78-0.56-0.11-0.87,2.1-0.77c2.2,0.1,2.43-0.46,2.43-0.93c0-0.46,0.39,0.56,1.93,1.39c1.54,0.82,2.87,3.14,4.25,4.47
				c1.38,1.34,4.47,3.13,3.86,4.16c-0.61,1.03,0.66,4.63-4.09,5.45c-4.74,0.82-5.02,0.26-4.96,1.34c0.05,1.08,0.27,1.54,2.15,1.54
				c1.88,0,4.47-1.54,5.35-0.41c0.88,1.13,2.1,1.54,2.87,1.8c0.77,0.26-0.94,0.72-1.38,0.87c-0.44,0.15,0.94,0.31,3.64,1.59
				c2.7,1.28,5.96,1.44,4.36,0.51c-1.6-0.93-2.37-2.62-3.09-3.19c-0.72-0.57-0.05-0.1,1.22,0.21c1.27,0.31,2.43,1.34,2.98,1.8
				c0.55,0.46,0.83-0.15,1.21-1.95c0.39-1.8-0.16-1.8-2.32-3.24c-2.15-1.44-2.81-2.57-3.04-3.6c-0.22-1.03,1.11-1.23,1.66-1.95
				c0.55-0.72,2.1,1.29,3.14,2.47c1.05,1.18,1.93,3.24,2.76,1.75c0.83-1.49,1.6-4.83,1.6-5.6c0-0.77-0.83,0.05-4.36-1.7
				c-3.53-1.75-5.35-2.42-5.68-2.42c-0.33,0,0.94-0.67,2.49-1.44c1.54-0.77,2.2-0.67-1.11-3.8c-3.31-3.14-4.25-3.8-6.4-4.01
				c-2.15-0.21-2.76-2.47-4.31-3.24c-1.54-0.77-5.13,0.92-6.18,1.18c-1.04,0.26-0.72,0.67-2.04-1.23
				C121.72,46.1,120.67,44.72,120.67,44.72z M123.15,44.72c-1.37,0.16,0.83,2.67,2.59,2.78c1.77,0.1,3.26-0.77,3.64-0.87
				C129.78,46.51,125.31,44.46,123.15,44.72z M116.96,70.2c-0.23,0.56-0.79,2.12-0.87,3.16c-0.08,1.04-0.25,1.19-0.45,1.85
				c-0.21,0.65,0.66-0.12,1.24,0.85c0.58,0.96,0.33,1.23,1.36,0.11c1.04-1.12,2.2-1.5,3.64-1.04c1.45,0.46,2.57,0.66,2.07-0.23
				c-0.5-0.89-1.16-0.81-2.15-2c-0.99-1.19-1.74-1.5-2.98-1.97C117.58,70.47,117.46,69.01,116.96,70.2z M127.37,160.25
				c-0.43-0.89-1.07-2.33-3.75-2.83c-2.69-0.5-3.59,0.5-4.58,0.83c-0.99,0.33,0.92,0.5,2.2,0c1.28-0.5,2.25-0.11,2.42,0.12
				c0.17,0.23-0.43,0.37-0.65,0.13c-0.22-0.24-0.26,0.6,1.18,1.12c1.44,0.52,1.79,0.77,1.94,1.39c0.15,0.62,0.13,0.95,0.46,1.47
				c0.33,0.52,0.45,0.73-0.15,0.96c-0.61,0.23-0.39,0.2,0.05,0.47c0.45,0.28,1.34,0.74,2.61,0.84c1.26,0.11,1.68,0.34,0.8-0.81
				C129.03,162.78,127.51,160.53,127.37,160.25z M131.38,165.9c0.7,0.72,0.49,1.49,0.45,1.91c-0.05,0.41-0.8,0.09-2.19-0.27
				c-1.38-0.37-1.17-0.19,0.03,0.46c1.2,0.65,1.98,0.49,1.93,1.36c-0.05,0.87,1.11,0.08,1.62-0.42c0.51-0.5,0.48-0.06,2.62,0.27
				c2.14,0.32,2.58,0.71,2.24-0.23c-0.34-0.94,0.98-0.86-0.92-1.76C135.25,166.31,130.59,165.08,131.38,165.9z M125.29,166.43
				c-0.8-0.89-1.81-1.02-1.82-0.26c-0.01,0.76,0.27,0.72,1.02,0.92C125.23,167.3,125.8,167,125.29,166.43z M140.83,170.3
				c-0.88-0.3-1.06,0.36-0.47,0.91c0.58,0.55,1.48,0.36,2.36,0.32C143.6,171.48,142.36,170.82,140.83,170.3z M130.76,62.75
				c-1.16,0.49-1.84,0.83-0.83,2.16c1.02,1.33,1.62,2.16,2.01,1.19C132.34,65.14,132.73,61.92,130.76,62.75z M121.47,77.01
				c-1.75,0.28-2.32,0.33-2.05,1.31c0.28,0.98,0.75,0.82,1.93,0.23C122.55,77.96,123.38,76.71,121.47,77.01z M125.11,78.5
				c-0.3,0.09-0.39,0.77,0,1.39c0.39,0.62,1.13-0.21,1.46-0.95C126.91,78.2,126.22,78.17,125.11,78.5z M106.02,31.07
				c-1.65,0.05-4.14,0.64-2.76,0.67c1.38,0.03,2.51,0.31,4.75,0.18c2.23-0.13,2.45-0.28,2.51-1.36
				C110.57,29.48,109.06,30.97,106.02,31.07z M95.67,22c-1.69,0.52-1.27,0.87,0.72,1.75c1.99,0.87,2.04,0.46,1.82-1.18
				C97.99,20.92,96.67,21.69,95.67,22z M213.62,65.01c-2.09,0.58-2.79,0.23-3.19,1.29c-0.4,1.06-1.22,0.49-1.69,0.62
				c-0.47,0.13-1.14,3.09-1.47,2.65c-0.33-0.44-0.45-0.68-0.94-1.7c-0.48-1.02,0.16-0.84-0.76-1.91c-0.92-1.07-2.74-0.95-2.86-0.51
				c-0.13,0.44,1.26,0.81,0.79,1.3c-0.47,0.5-1.6,1.1-2.02,1.46c-0.43,0.36,0.82,0.2,1.6,0.02c0.78-0.18,1.32,0.59,1.64,1.13
				c0.32,0.55-0.36,1.08-0.7,1.35c-0.33,0.27,1.14,0.2,1.73,0.31c0.59,0.11,0.9,0.61,0.49,1.27c-0.4,0.67,1.75,0.1,2.95,0.03
				c1.19-0.07,1.51,0.82,3.31,0.25c1.8-0.56,2.66-0.53,4.31-1.74c1.64-1.22,1.52-0.93,2.61-1.72c1.09-0.78,0.83-1.03,0.88-1.9
				c0.04-0.87,0.72,0.25,0.46-1.07c-0.25-1.32-1.6-0.96-2.54-1.06c-0.94-0.1-0.91-0.84-1.38-1.07
				C216.37,63.79,215.74,64.42,213.62,65.01z M353.32,178.22c-0.09,0.31-0.22,0.67-0.22,1.36c0,0.69-0.08,1.44-0.03,2.13
				c0.05,0.69,0.1,1.18,0.48,1.34c0.39,0.15,0.65,0.31,1.28,0.01c0.64-0.3,1.23-0.82,0.91-1.62c-0.32-0.8-0.91-1.89-1.26-2.48
				C354.15,178.38,353.48,177.63,353.32,178.22z M352.81,177.27c0.07,0.3,0.16,0.23,0.3,0.44c0.14,0.21,0.29,0.03,0.1-0.24
				c-0.19-0.27-0.17-0.3-0.17-0.3s-0.24-0.08-0.24,0.16 M412.39,218.29c-0.01,0.03-0.04,0.05-0.07,0.07
				c-1.14,1.15-2.17,0.83-4.11,1.43c-1.98,0.62-5.42,2.62-5.67,3.51c-0.25,0.89,0,1-0.25,0.89c-0.25-0.12-0.67-0.66-0.67-0.66
				s-0.54,1.08-0.41,2.04c0.12,0.96,0.58,1.54,0.54,2.77c-0.04,1.23-0.5,1.97-0.45,2.81c0.04,0.85,1.44,2.46,1.82,3.47
				c0.37,1,0.62,0.73,0.83,2.54c0.21,1.81,1.16,2.81,0.21,3.78c-0.95,0.96-1.66,0.77-0.49,1.77c1.16,1,2.11,1.66,3.97,1
				c1.86-0.65,1.37-1.23,2.82-1.54c1.45-0.31,1.74-0.62,2.98-0.69c1.24-0.08,2.11,0.04,2.57-0.85c0.45-0.89,0.12-0.85,1.36-1.46
				c1.24-0.62,1.12-0.77,1.95-0.93c0.83-0.15,1.37,0.42,2.48-0.46c1.12-0.89,0.29-0.96,2.77-0.96c2.49,0,3.52,0.35,4.43,0.65
				c0.91,0.31,2.4,1.12,2.77,1.7c0.37,0.58,0.87,1.27,1.03,1.27c0.17,0,0.37,0.04,0.95-0.54c0.58-0.58,2.23-1.73,2.23-1.73
				s-0.08,1.23-0.45,1.7c-0.37,0.46-0.37,1.12-0.37,1.35c0,0.23,0.95-0.73,1.08-0.77c0.12-0.04,0.25,1.7,0.37,1.85
				c0.12,0.15,0.5,0.08,0.87,0.58c0.37,0.5,0.87,0.89,1.24,1.85c0.37,0.96,1.95,1.93,2.94,2.08c0.99,0.15,1.86,0.08,2.61-0.04
				c0.75-0.12,0.79-1,1.57-0.65c0.79,0.35-0.04,1.08,1.82,0.92c1.86-0.15,2.36-0.77,3.1-1.27c0.74-0.5,0.83,0.69,1.78-0.62
				c0.95-1.31,1.12-1,1.28-2.58c0.17-1.58,0.12-1.89,1.03-3.39c0.91-1.5,1.12-0.77,1.74-2.97c0.62-2.2,1.4-4.28,1.32-6.09
				c-0.08-1.81,0.04-0.62-0.37-2.66c-0.41-2.04-0.12-1.81-1.45-2.66c-1.33-0.85-1.66-0.62-1.99-1.81c-0.33-1.19,0.08-1.54-0.54-1.54
				c-0.62,0-1.16,0.27-1.53-0.54c-0.37-0.81-0.33-1.12-1.03-1.89c-0.7-0.77-1.36-0.62-2.65-1.19c-1.28-0.58-0.62-0.73-0.62-1.74
				c0-1,0.07-2.07-0.95-2.53c-1.02-0.46-0.41,0.26-0.41-1.39c0-1.64,0-1.41-0.83-1.7c-0.83-0.28-1.11-0.26-1.63-1.26
				c-0.52-1-1.21-2.65-1.46-3.31c-0.25-0.67-0.55,0.08-0.88,0.56c-0.33,0.49-0.8,1.57-0.8,2.57c0,1,0.44,1.57,0.44,2.9
				c0,1.34-0.93,2.67-1.52,3.44c-0.58,0.77-1.05,0.08-1.55-0.13c-0.5-0.2-0.6-0.95-1.65-1.46c-1.05-0.51-2.98-0.98-3.86-1.77
				c-0.88-0.8-0.28-0.82,0-1.65c0.28-0.82,0.66-1.49,1.32-2.03c0.66-0.54,0.47-0.75-0.36-1.21c-0.83-0.46-1.99-0.49-3.39-0.49
				s-2.23-0.1-2.15,0.69c0.09,0.8,0.91,1.1-0.27,0.87c-1.19-0.23-2.21-0.33-2.73,0.23c-0.52,0.57-0.64,0.9-0.94,2.11
				c-0.3,1.21,0.08,1.28-0.41,1.28c-0.5,0-2.46-0.95-3.12-1.23c-0.66-0.28-1.02-0.26-1.79,0.46c-0.77,0.72-3.45,3.06-4.44,3.62
				C413.34,215.25,413.4,215.12,412.39,218.29z M375.57,183.55c-0.59-0.08-0.91-0.23-0.19,0.69c0.72,0.93,0.91,1.1,1.6,1.75
				c0.69,0.64,0.94-0.46,1.46,0.77c0.52,1.23,0.33,1.26,0.86,1.72c0.52,0.46,0.96,0.59,1.1,1.05c0.14,0.46,0.3,1.18,0.91,1.7
				c0.61,0.51,0.61,0.44,0.96,1.44c0.36,1,0.91,1.72,1.19,2.57c0.27,0.85,1.85,1.65,2.65,2.67c0.8,1.03,2.15,2.52,2.38,2.11
				c0.22-0.41,0.8,0,1.21-0.15c0.41-0.16,0.55-0.75,0.83-2.19c0.28-1.44-0.25-2.11-0.64-2.44c-0.39-0.33-1.1-0.41-1.3-0.72
				c-0.19-0.31-0.52-1.36-0.99-1.7c-0.47-0.33-0.58,0.03-0.58-0.8c0-0.82,0.55-0.74-0.13-1.21c-0.69-0.46-0.78-0.8-1-1.03
				c-0.22-0.23-1.71-0.59-2.1-1c-0.38-0.41-2.01-1.15-2.78-1.93c-0.78-0.77-1.63-1.39-1.88-1.95
				C378.88,184.34,378.11,183.88,375.57,183.55z M391.63,200.12c-0.66,0-0.99-0.39-1.43,0.41c-0.44,0.8-0.39,0.8,0.3,0.8
				c0.69,0,0.55,0.36,0.52,0.46c-0.03,0.1-0.33-0.08,1.08,0.49c1.4,0.57,2.4,0.33,2.79,0.13c0.39-0.21,0.52,0.51,2.46,0.82
				c1.93,0.31,2.95-0.18,4.19,0.13c1.24,0.31,0.94-0.15,0.05-0.82c-0.88-0.67-0.8-0.31-1.68-0.95c-0.88-0.64-2.12-0.67-2.7-0.77
				c-0.58-0.1,0.49,0.62-1.27,0.38c-1.77-0.23-1.13,0.15-2.04-0.44c-0.91-0.59-0.91-0.69-1.52-0.8
				C391.77,199.86,391.63,200.12,391.63,200.12z M405.65,202.94c-0.5,0.15-1.52,0.44-1.05,0.64c0.47,0.21,0.11,0.33,1.57,0.21
				c1.46-0.13,2.73-0.31,2.92-0.62c0.19-0.31-0.25-0.1-0.86-0.28c-0.61-0.18-0.55,0.13-1.38,0.23
				C406.03,203.23,405.65,202.94,405.65,202.94z M410.78,202.84c-0.98,0.12-0.85,0.33-0.08,0.57c0.78,0.23,1.49,0.33,2.07,0.18
				c0.58-0.15,0.66-0.31,1.74-0.49c1.07-0.18,1.43-0.15,2.29-0.26c0.86-0.1,0.86-0.1,0.86-0.1s-0.08-0.18-0.66-0.15
				c-0.58,0.02-0.99,0.05-1.57,0.05c-0.58,0-1.57,0.51-1.99,0.49c-0.41-0.03-1.21-0.28-1.41-0.15
				C411.83,203.1,411.83,202.71,410.78,202.84z M416.3,204.1c-0.02,0.01-0.03,0.02-0.04,0.02c-0.68,0.47-0.71,0.6-0.65,0.97
				c0.06,0.38-0.07,0.54-0.07,0.54s1-0.05,1.77-0.82c0.77-0.77,0.8-0.76,1.58-1.04c0.79-0.28,1.68-1.14,1.68-1.14
				s-0.62,0.13-1.3,0.08c-0.68-0.06-1.36,0.36-1.58,0.54C417.47,203.44,417.9,203.48,416.3,204.1z M410.53,204.51
				c-0.72-0.51-1.42-0.44-1.47-0.13c-0.05,0.32-0.62,0.3,0.39,0.68c1.02,0.37,1.98,0.87,1.9,0.36
				C411.28,204.9,410.84,204.73,410.53,204.51z M403.94,183.08c-0.41,0.59,0.39,0.44-0.22,0.95c-0.61,0.51-1.07,0.28-1.68,1.05
				c-0.6,0.77-1.52,1.31-1.9,1.59c-0.39,0.28-1.63,0.62-2.18,1.36c-0.55,0.74,0.2,1.15,0.2,1.15s-0.33,0.15-1.22-0.18
				c-0.88-0.33-0.94-0.75-0.94-0.75s-0.63-0.03-0.99,0.92c-0.36,0.95-0.56,1.05,0.08,1.62c0.64,0.57-0.44,0.59-0.3,0.98
				c0.14,0.39,0.14,1.11,0.52,1.18c0.38,0.08,0.47-0.36,0.94,0.23c0.47,0.59,0.08,2.26,0.69,2.34c0.61,0.08,1.05-0.18,1.57,0.05
				c0.53,0.23,0.91,0.44,1.6,0.2c0.69-0.23,1.43,0,1.79,0.21c0.36,0.2,1.65,0.64,2.29,0.59c0.64-0.05,0.74,0.1,0.86-0.8
				c0.11-0.9,0.03-1.75,0.8-2.44c0.77-0.69,0.8-0.69,0.86-1.34c0.05-0.64,0.05-1.31,0.52-1.98c0.47-0.67,0.75,0.39,0.99-0.13
				c0.25-0.51,0.5-0.51,0.36-0.77c-0.14-0.26-0.85-0.26-1.13-0.75c-0.28-0.49,0.08-0.75-0.25-1.75c-0.33-1-0.52-0.62-0.05-1.18
				c0.47-0.57,0.85-0.67,0.91-1.11c0.06-0.44,0.25-0.46,0.83-0.87c0.58-0.41-0.09-0.22-0.64-0.63c-0.55-0.41-1.58-1.95-2.23-1.94
				C405.66,180.93,404.35,182.49,403.94,183.08z M485.47,237.63c-0.26-0.19-0.49-0.05,0.12,0.67c0.6,0.72,0.66,0.51,1.04,0.54
				c0.39,0.02,0.72,1.44,0.94,1.8c0.22,0.36,0.63,0.8,0.63,0.8s0.23,1.54,0.03,2.24c-0.19,0.69-0.61,1-0.74,1.64
				c-0.14,0.64,0.63,0.46,1.13,0.67c0.49,0.21,0.41,0.2,0.22,0.77c-0.19,0.56-0.77,0.82-0.77,0.92c0,0.1,1.13,0.74,1.71,0.05
				c0.58-0.69,1.49-1.72,1.74-2.47c0.25-0.75-0.44-0.41,0.36-0.95c0.8-0.54,0.69-0.28,1.11-0.95c0.41-0.67,0.85-1.36,0.39-1.72
				c-0.47-0.36-0.99,0.44-1.41,0.59c-0.41,0.15-0.74,0.18-1.32-0.1c-0.58-0.28-0.69-0.28-0.91-0.8c-0.22-0.51-0.5-0.8-0.5-0.8
				s-0.17,0.87-0.58,0.59c-0.42-0.28-0.31-0.59-0.61-1.08c-0.3-0.49-0.3-0.64-0.5-1c-0.19-0.36-0.02-1.05-0.99-1.16
				C485.58,237.79,485.72,237.81,485.47,237.63z M485.63,246.96c0,0-0.77,0.67-1.46,1.62c-0.69,0.95-0.8,1.31-1.02,1.82
				c-0.22,0.51-1.02,1.13-2.34,1.83c-1.32,0.69-1.82,0.98-2.26,1.62c-0.44,0.64-2.02,2.65-2.21,2.88c-0.2,0.23,0.74,0.46,1.71,0.46
				c0.96,0,2.48,0.87,3.31-0.03c0.83-0.9,1.66-3.03,2.18-3.8c0.52-0.77,1.02-1.05,1.85-1.8c0.83-0.75,2.21-2.13,2.21-2.67
				c0-0.54-0.36-1.41-0.36-1.41s-0.3,0.59-1.02,0.52C485.5,247.91,485.63,246.96,485.63,246.96z M479.13,256.83
				c-0.97-0.51-1.16,0.44-1.31,1.42c-0.16,0.98,0.42,0.15,1.26-0.29C479.92,257.52,479.5,257.03,479.13,256.83z M446.32,250.09
				c-1.09-0.36-0.91,0.67-0.75,1.44c0.16,0.77,0.39,1.39,0.8,2.03c0.41,0.64,1.96,0.87,2.57,0.59c0.6-0.28,1.04-1.23,1.65-2.13
				c0.61-0.9,0.88-1.93,0.78-2.47c-0.11-0.54-0.88,0.49-1.38,0.72c-0.5,0.23-1.16,0.82-2.1,0.56
				C446.95,250.58,446.7,250.22,446.32,250.09z M432.58,194.93c-0.88,0.21-1.32-0.56-2.04-2.06c-0.72-1.49-1.27-1.7-3.09-1.03
				c-1.82,0.67-1.55,0.52-0.33,0.98c1.22,0.46,1.38,0.62,1.54,0.62c0.17,0,1.93,0.26,1.55,0.51c-0.39,0.26-2.04,0.51-0.99,1.23
				c1.05,0.72,0.61,0.21,3.37,1.59c2.76,1.39,3.2,0.36,4.09,2.16c0.88,1.8,0.88,1.49,0.16,1.95c-0.72,0.46-1.66,0.92-1.27,0.98
				c0.39,0.05,1.11,0.21,2.98,0.31c1.88,0.1,0.11,1.18,2.21,1.18c2.1,0,2.65-0.67,3.48-1.64c0.83-0.98,0.99-0.46,2.76-0.05
				c1.77,0.41,2.37,1.95,4.58,2.57c2.2,0.62,3.14,1.44,1.76,0.15c-1.38-1.28-1.88-2.21-3.76-3.7c-1.87-1.49-1.98-1.64-2.54-2.77
				c-0.55-1.13-2.48-2.47-4.63-3.34c-2.15-0.87-3.38-1-5.91-1.7C433.9,192.15,433.46,194.72,432.58,194.93z M418.06,189.79
				c-0.83,0.58-0.93,0.22-1.55-0.16c-0.62-0.38-0.45,0.8-1.82,0.16c-1.38-0.64-1.89-0.96-3.37,0.13c-1.48,1.09-0.55,1.54-0.59,2.3
				c-0.04,0.77-1.24,2.94-1.68,3.74c-0.44,0.8-0.44,1.09-0.1,1.6c0.34,0.51,0.83,0.32,1.03,0.58c0.21,0.26,0,2.27-0.24,2.95
				c-0.24,0.67,0.59,0.8,1.44,0.61c0.86-0.19,0.1-0.26,0.1-0.96c0-0.71,0.41-1.02,0.41-2.34c0-1.31,0-1.92,0-1.92
				s0.24-0.13,0.55,0.32c0.31,0.45,0.76,1.7,1.13,2.34c0.38,0.64,0.76,1.12,1.34,0.67c0.58-0.45,1.13-0.96,1.13-0.96
				s-1.13-0.35-1.13-0.74c0-0.38,0.48-0.7-0.31-1.98c-0.79-1.28-1.2-1.34-0.2-1.41c1-0.06,0.96-1.06,1.55-1.34
				c0.58-0.29,1.41-0.19,1.41-0.19s-0.59-0.61-1.48-0.35c-0.89,0.26-1.68,0.38-2.44,0.8c-0.75,0.42-1.41,0.67-1.55-0.1
				c-0.13-0.77-0.24-0.96-0.13-2.02c0.1-1.06,1.3-0.26,2.2-0.51c0.9-0.26,0.9-0.19,2.85-0.06c1.96,0.13,2.1-0.32,2.68-1.12
				c0.58-0.8,0.92-1.73,0.92-1.73S418.88,189.21,418.06,189.79z M422.7,186.99c0.18-0.32-1.44,1.1-1.74,1.39
				c-0.3,0.28,0,0.69,0.22,1.11c0.22,0.41,0.17,1.82,0.25,2.13c0.08,0.31,0.91,0.59,0.91,0.59s-0.02-0.95,0.28-1.39
				c0.3-0.44,0-0.98,0-1.77C422.62,188.25,422.18,187.94,422.7,186.99z M419.53,195.43c-1.27-0.49-1.74-0.17-1.74,0.5
				c0,0.66-0.14,0.99,1.21,0.99C420.35,196.91,421.87,196.32,419.53,195.43z M422.05,195c-0.31,0.1-0.64,1.09-0.46,1.68
				c0.17,0.6,0.39,0.2,1.1,0.07c0.71-0.13,0.6-0.69,1.49-0.76c0.89-0.07,2.73,0.63,2.73,0.63s0.39-0.46-1.03-1.36
				C424.46,194.37,423.82,194.43,422.05,195z M396.8,162.31c0,0-1.27,0.04-1.46,0.04c-0.19,0-0.64,0.49-0.95,0.68
				c-0.32,0.19-0.32,0.46-0.09,0.96c0.22,0.5,0.59,0.53,1.21,0.69c0.62,0.17,0.4-0.27,0.86-0.44c0.45-0.17,0.58-0.58,0.68-0.95
				c0.09-0.37,0.4-0.54,0.51-0.67c0.11-0.13-0.36-0.57-0.36-0.6C397.19,161.99,396.8,162.31,396.8,162.31z M411.75,164.09
				c-0.5-0.37-0.77,0.92-0.91,1.59c-0.14,0.67-0.3,1.1-0.05,1.59c0.25,0.49,0.14,0.64,0.14,0.64l-0.72-0.54c0,0-0.19,0.62-0.19,1.16
				c0,0.54-0.22,0.77,0.61,1.16c0.83,0.39,1.1,0.18,1.21,0.77c0.11,0.59,0.11,0.85,0.66,0.95c0.55,0.1,1.19,0.33,1.41,0.69
				c0.22,0.36,0.11-0.95,0.49-0.87c0.39,0.08,0.83,0.56,1.11,1c0.28,0.44,0.69,0.46,0.69,0.46s-0.63-1.05-0.36-1.18
				c0.27-0.13,0.36-0.23-0.36-0.67c-0.72-0.44-1.3-0.33-1.85-0.41c-0.55-0.08-0.55,0.39-0.96-0.69c-0.41-1.08-0.08-1.75-0.08-1.98
				c0-0.23,0.3,0.36,0.64-0.39c0.33-0.75,0.41-1.34,0.36-2.06c-0.05-0.72,0.5-1,0.08-1.03C413.23,164.28,412.02,164.3,411.75,164.09
				z M418.31,177.9c0.08,0.52-0.49-0.14-0.71,0.16c-0.22,0.3-0.33,0.24-0.68,0.39c-0.35,0.14-1.2,0.93-1.2,0.93
				s-0.01-0.51,0.01-0.63c0.02-0.12-0.26-0.71-0.52-0.31c-0.26,0.4-0.51,0.66-1.09,0.95c-0.58,0.29-0.94,0.71-1.01,1.23
				c-0.07,0.52,0.35,0.5,0.35,0.5s0.23-0.17,0.61-0.77c0.38-0.6,0.45-0.58,1.15-0.67c0.7-0.09,0.64-0.08,0.86,0.3
				c0.22,0.38,0.05,0.95,0.07,1.36c0.02,0.41-0.02,0.91,0.69,1.16c0.72,0.24,0.37,0.02,1.03-0.04c0.65-0.06,0.64-0.04,0.55-0.37
				c-0.09-0.33-0.29-0.62-0.33-1c-0.04-0.39,0.37-0.55,0.51-0.63c0.13-0.08,0.22,0.38,0.41,0.87c0.2,0.48,0.28,0.46,0.36,0.1
				c0.08-0.36,0.31-1.23,0.23-1.7c-0.08-0.46-0.12-0.82-0.12-1.2c0-0.38-0.32-0.85-0.51-0.98c-0.19-0.14-0.83-0.7-0.83-0.7
				S418.23,177.38,418.31,177.9z M415.13,174.76c0,0,0.01-0.33-0.58-0.92c-0.6-0.59-0.62-0.76-1.53-0.92
				c-0.91-0.16-1.83,0.08-1.44,1.06c0.39,0.98,0.5,1.12,1.27,1.24c0.77,0.12,1.24-0.3,1.24-0.3s0.06,0.16-0.67,0.62
				c-0.73,0.46-0.81,1.33-0.24,1.67c0.57,0.34,0.56,0.86,0.88,0.6c0.33-0.26,0.57-1.16,1.24-1.79c0.67-0.63,0.71-0.72,0.8-1.39
				c0.08-0.67,0.02-1.2,0.02-1.2L415.13,174.76z M416.7,172.87c-0.08,0.07-0.56-0.05-0.07,0.43c0.5,0.48,0.95,0.59,0.89,0.94
				c-0.06,0.36-0.02,0.42-0.3,0.39c-0.28-0.04-0.36-0.11-0.49-0.12c-0.12-0.01-0.14,0.23-0.06,0.45c0.08,0.22,0.06-0.03,0.3,0.35
				c0.24,0.38,0.18,0.5,0.25,0.94c0.07,0.43,0.26,0.22,0.26,0.22s-0.06-1.04-0.03-1.25c0.03-0.21-0.08-0.72,0.27-0.56
				c0.35,0.16,0.26,0.78,0.47,0.2c0.21-0.58,0.11-1.09,0.01-1.55c-0.1-0.46-0.47-0.48-0.89-0.48
				C416.89,172.83,416.7,172.87,416.7,172.87z M409.56,174.65c-0.2,0.05-0.33,0.25-0.46,0.95c-0.13,0.7-0.52,1.07-0.94,1.48
				c-0.43,0.41-1.58,1.52-1.63,1.74c-0.07,0.22-0.08,0.09,0.79-0.32c0.86-0.4,1.54-0.94,1.64-1.49c0.11-0.55-0.1-0.21,0.65-0.57
				c0.76-0.36,0.37-0.47,0.4-1.03C410.04,174.87,409.94,174.56,409.56,174.65z M455.24,195.7c-0.09,0.71,0.21,0.93-0.45,1.45
				c-0.67,0.53-1.41,0.53-2.11,0.64c-0.7,0.12-0.19-0.12-1.06-0.14c-0.87-0.03-1.09,0.04-0.69,0.47c0.4,0.44,0.3,0.86,1.59,0.81
				c1.29-0.05,2.34-0.74,3.17-1c0.83-0.26,0.76-0.93,0.83-1.23C456.58,196.39,455.34,194.93,455.24,195.7z M458.83,197.24
				c0.36,0.5,0.22,0.43,0.68,1.09c0.45,0.67,1.18,0.78,1.71,0.96c0.54,0.18,0-0.19-0.4-0.73c-0.4-0.54-0.43-0.83-1.02-1.38
				C459.2,196.65,458.21,196.35,458.83,197.24z M412.23,154.03c-1.77,1.12-2.57,1.04-1.86,2.47c0.7,1.43,1.14,2.03,1.24,2.3
				c0.09,0.27,0.46-0.18,0.94-1.31c0.48-1.13,0.54-2.61,0.73-3.06C413.47,153.98,412.83,153.65,412.23,154.03z M442.51,98.6
				c0.19,0.75,0.39,1.9-0.05,2.03c-0.44,0.13-0.75,0.95-0.86,1.8c-0.11,0.85-0.33,1.93,0.13,2.59c0.47,0.67,0.14,0.72,0.14,1.28
				c0,0.57,0.17,2-0.11,2.85c-0.28,0.85-0.44,1.05-0.33,1.95c0.11,0.9,0,1.08,0,2.36c0,1.28-0.08,2.31-0.03,2.83
				c0.05,0.51,0.33-0.26,0.52-0.44c0.19-0.18,0.94-0.28,1.35,0.15c0.41,0.44,0.41,0.44,0.41,0.44s0.66,0.28-0.25-1.67
				c-0.91-1.95-1.08-1.54-0.83-3.31c0.25-1.77,0.39-1.8,1.32-1.98c0.94-0.18,1.43,1.11,1.55,1.23c0.11,0.13-0.08-0.44-0.42-1.44
				c-0.33-1-0.64-1.34-0.75-2.59c-0.11-1.26-0.5-2.31-0.99-2.67c-0.5-0.36-0.25-0.95-0.03-1.44c0.22-0.49,0.3-1.23,0.19-2.08
				c-0.11-0.85-0.36-2.03-0.49-2.49c-0.14-0.46-0.69,0.28-0.69,0.28L442.51,98.6z M441.68,118.28c0.05,0.56,0.11,1.08-0.27,1.72
				c-0.39,0.64-0.11,0.8-0.33,1.7c-0.22,0.9-1.3,0-1.3,0.18c0,0.18-0.16,0.82-0.44,1.05c-0.28,0.23-1.22,0.28-0.94,1.18
				c0.28,0.9,0.78,1.85,0.78,1.85s0.55-0.51,0.71-0.57c0.17-0.05,0.61-0.18,0.61-0.18s-0.08-0.26-0.69-0.54
				c-0.61-0.28-0.55-0.87-0.47-1.05c0.08-0.18,0.85,0.05,1.35,0c0.5-0.05,0.91-0.31,1.52,0.18c0.6,0.49,1.49,0.67,1.49,0.67
				s0.11-0.72,0.39-1.23c0.28-0.51,1.08-0.28,1.88-0.51c0.8-0.23,1.4-0.36,1.13-0.69c-0.28-0.33-0.25-1.08-0.42-1.64
				c-0.16-0.57-0.69-0.03-1.1,0.18c-0.41,0.21-0.94,0.05-1.49-0.31c-0.55-0.36-1.55-1.72-1.9-2.26
				C442.18,118,441.63,117.71,441.68,118.28z M439.21,126.71c-0.26,0.13-0.6,0.81-0.54,1.56c0.06,0.75,0.7-0.06-0.13,2.25
				c-0.83,2.31-1.24,2.83-2.05,3.43c-0.81,0.6-1.55,0.6-1.86,0.44c-0.31-0.15,0.08-0.67,0.31-0.83c0.23-0.15-0.71-0.21-1.1-0.15
				c-0.39,0.06-0.02,0.5-0.07,0.87c-0.04,0.37-0.8,1.35-0.72,1.79c0.08,0.44,0.08,0.58-0.42,0.73c-0.5,0.15-0.83-0.37-0.97-0.44
				c-0.15-0.08-0.89,0.14-1.86,0.27c-0.98,0.13-1.22,0.46-1.63,1.18c-0.41,0.71-1.39,0.83-2.09,1.1c-0.7,0.27-0.43,1.27-1.2,1.62
				c-0.76,0.35-0.76,0.98-0.83,1.5c-0.06,0.52,0.47,0.16,0.56,0.12c0.08-0.04,0.08-0.73,0.56-0.66c0.48,0.08,0.54,0.1,0.29,0.64
				c-0.25,0.54-0.39,0.81-0.64,1.27c-0.25,0.46,0.08,0.68,0.45,1.14c0.37,0.46,0.73-0.14,1.51-0.96c0.79-0.83,0.85-1.02,0.79-1.97
				c-0.07-0.94-0.37-0.96-0.95-1.23c-0.58-0.27-0.71,0-0.06-0.73c0.64-0.73,0.93-0.02,1.37-0.35c0.44-0.33,1.49-0.31,2.5-0.56
				c1.02-0.25,1.99-0.58,2.03-0.25c0.04,0.33,0.35,1.43,0.39,1.66c0.04,0.23,0.71-0.33,1.39-0.58c0.68-0.25,0.04-0.37-0.02-0.81
				c-0.06-0.44,0.31-0.69,0.31-0.69s0.35,0.73,1.45,0.21c1.1-0.52,1.18-0.73,1.47-0.66c0.29,0.08,0.48,0.37,0.93,0.08
				c0.45-0.29,0.54-0.02,0.45,0.21c-0.08,0.23,1.33-0.44,1.63-0.66c0.31-0.21,0.15-0.02,0.02-0.83c-0.12-0.81-0.52-0.87-0.29-1.91
				c0.23-1.04,0.16-1.14,0.23-1.79c0.06-0.66,0.31-0.75,0.48-0.79c0.17-0.04,0.17-0.91,0.52-1.37c0.35-0.46,0.27-0.68,0.27-1.74
				c0-1.06-0.58-0.87-0.62-1.62c-0.04-0.75,0.14-1.48,0.14-1.48s-1.18,0.44-1.3,0.71c-0.13,0.27-0.13,0.27-0.13,0.27
				S439.61,126.51,439.21,126.71z M431.49,138.29c-1.22,0.2-2.09,0.33-2.81,0.57c-0.73,0.23-0.88,0.55-0.77,1.27
				c0.11,0.72,0.4,1.45,0.5,1.83c0.1,0.38,0.5,0,1.18-0.36c0.68-0.36,0.64-1.42,1.29-1.42c0.65,0,0.41,0.75,1.29-0.3
				c0.88-1.06,0.21-1.14,0.24-1.68C432.44,137.65,431.49,138.29,431.49,138.29z M508.82,81.21c-1.31-0.25-1.69-0.54-1.81-0.06
				c-0.12,0.48-0.26,0.63,0.56,0.92c0.83,0.3,1.24-0.22,2.02,0.36c0.77,0.58,0.99,0.55,1.59,0.47c0.59-0.08,0.83-0.37,0.83-0.37
				S509.81,81.41,508.82,81.21z M493.87,60.63c-0.48,0.13-0.87-0.33-0.75,0.85c0.12,1.17,0.39,1.31,1.9,1.1
				c1.51-0.21,0.37-0.06,2.45-0.21c2.07-0.15,2.5-0.44,2.5-0.44s-0.29-0.58-0.99-1.12c-0.71-0.54-1.64,0.37-3.23,0.1
				C494.16,60.63,493.87,60.63,493.87,60.63z M447.24,43.26c0.02,0.45,2.07,1.71,2.81,2.08c0.75,0.37,1.33,0.21,2.9,0.04
				c1.57-0.17,1.7-0.85,1.88-1.23c0.19-0.39-0.75-0.25-1.8-0.46c-1.06-0.21-1.93,0.19-2.3,0c-0.37-0.19,0.56-0.39-0.37-0.73
				c-0.94-0.35-1.16,0.12-1.37-0.04c-0.2-0.16-0.25-0.48-0.7-0.52C447.84,42.36,447.22,42.84,447.24,43.26z M439.13,45.9
				c-0.71,0.29-0.66,0.54,0.14,1.21c0.81,0.67,0.54,0.52,0.19,1c-0.35,0.48,0-0.02,1.16,0.5c1.16,0.52,1.64,1.46,2.36,1.68
				c0.72,0.21,1.22-0.06,1.22-0.06s-0.25-0.77-0.93-1.7c-0.68-0.93-2.15-1.19-2.42-2C440.58,45.73,440.14,45.5,439.13,45.9z
				 M446.52,42.13c0,0-1.06-0.64-2.65-1.64c-1.59-1-2.19-1.27-2.73-1.35c-0.54-0.08-0.45,0.56-0.66,1.06c-0.2,0.5-0.35,0.4-1.18,0
				c-0.83-0.4-1.66-1.02-2.5-1.22c-0.85-0.19-1.37,0.5-2.34,1.46c-0.97,0.96-0.42,1.23,0.76,2.66c1.18,1.43,1.7,1.51,2.65,0.95
				c0.95-0.56,0.68-0.93,1.36-0.66c0.68,0.27,3.04-0.27,3.13-0.27c0.08,0-0.15,1.31,0.89,0.96c1.03-0.35,1.98-0.52,2.46-1.04
				C446.18,42.53,446.52,42.13,446.52,42.13z M374.85,14.6c-0.3,0.26-2.07,0.1-2.98,1.54c-0.91,1.44-1.54,0.44-2.02,1.31
				c-0.47,0.87-0.86,1.93-0.86,1.93s0.83,0.98,1.71,0.9c0.88-0.08,2.43,0.31,3.28,1.49c0.86,1.18,1.49,1.18,3.56,1.52
				c2.07,0.33,1.13,0.62,2.21,0.52c1.07-0.1,2.56,0.13,2.23-0.41c-0.33-0.54-0.58-0.87-0.44-1.93c0.14-1.05,1.1-1-0.03-1.7
				c-1.13-0.69-1.93-0.13-1.88-0.26c0.06-0.13,1.02-0.51,0.64-0.54c-0.39-0.03-2.29-0.13-2.51-1.21c-0.22-1.08,0.52-1.16,0.91-1.23
				c0.39-0.08,0.28-0.21-0.83-1c-1.1-0.8-2.59-1.62-2.59-1.62C374.58,14.27,375.15,14.34,374.85,14.6z M385.23,22.38
				c-0.8,0.15-1.46,0.95-1.93,1.65c-0.47,0.69-1.41,1.75-1.99,2.21c-0.58,0.46-0.41,0.59,0.52,0.93c0.94,0.33,2.59-0.59,3.06-0.62
				c0.47-0.03,0.83,0.69,2.32,0.51c1.49-0.18,3.75-0.46,2.65-1.26c-1.11-0.8-0.72-0.41-1.93-1.39c-1.22-0.98-2.76-1.05-2.76-1.05
				s2.51-0.85,1.9-0.9C386.47,22.41,385.23,22.38,385.23,22.38z M321.43,9.72c-1.44,0.52-0.94,0.77-1.88,1.52
				c-0.94,0.75-0.31,0.95,1.71,0.46c2.01-0.49,2.12-0.69,3.42-1.28C325.99,9.82,323.59,8.95,321.43,9.72z M324.63,13.34
				c-1.35,0.6-0.99,1.23-0.63,1.75c0.36,0.51,1.35-0.31,1.63,0.26c0.28,0.56,0.36,0.33,1.63-0.52c1.27-0.85,0.8-0.59,0.31-1.49
				C327.06,12.44,326.96,12.31,324.63,13.34z M317.1,12.97c-0.87,0.41-0.87,0.37-0.04,0.75c0.83,0.38,2.83,0.69,3.87,0.02
				c1.04-0.68,0.96-0.54-0.35-0.73C319.27,12.81,318.06,12.51,317.1,12.97z M304.31,14.53c1.35-0.12,2.59-0.17,3.66-0.06
				c1.07,0.12,0.68,1.04-1.31,1.25c-1.99,0.21,0.19,0.52,1.59,0.46c1.41-0.06,0.5-1.21,1.68-1.62c1.18-0.4,1.92-0.15,3.33-0.66
				c1.41-0.5-0.8-0.98-2.44-0.94c-1.63,0.04-2.17,0.13-3.56,0.04c-1.39-0.1-2.5,0.53-3.93,0.77
				C300.39,14.28,302.96,14.65,304.31,14.53z M314.86,14.9c-1.18,0-4.04,0.65-1.63,0.89c2.4,0.23,2.22,0.39,3.21,0.02
				C317.43,15.43,316.1,14.9,314.86,14.9z M323.22,15.4c-1.68-0.56-1.72-0.33-3.02-0.27c-1.3,0.06-1.82,0.87-0.97,1.21
				c0.84,0.35,1.42,0.21,2.13,0.1c0.7-0.12,0.66-0.33,0.21-0.5C321.11,15.76,324.22,15.72,323.22,15.4z M330.3,13.32
				c-1.29,0.16-1.37,0.39-1.49,0.81c-0.12,0.42,0.19,0.33,1.55,0.15c1.36-0.17,2.01-0.37,2.9-0.85c0.89-0.48-0.19-1.66-0.19-1.87
				c0-0.21-1.26,0.64-1.62,0.94C331.1,12.81,331.83,13.12,330.3,13.32z M228.95,87.24c-0.65,1.8-1.72,2.63-0.45,2.13
				c1.27-0.5,2.54-2.05,2.48-0.72c-0.07,1.33-1.3,1.13-0.91,2.43c0.39,1.3,0.1,1.19,2.21,1.66c2.12,0.47,0.39,0.31,0.91,1.55
				c0.52,1.24,0.88,1.63,0.32,1.99c-0.55,0.36-2.18-1.13-2.28-0.5c-0.1,0.63,0.23,1.11,0.62,1.99c0.39,0.88-0.26,1.38-1.5,1.96
				c-1.24,0.58-0.16,0.94,0.78,0.89c0.95-0.06,3.32-0.5,2.93,0.33c-0.39,0.83-1.53-0.14-2.34,1.24c-0.82,1.38-3.81,2.57-2.25,2.49
				c1.56-0.08,1.34-0.5,5.99-1.16c4.66-0.66,1.43-0.06,4.49-1c3.06-0.94,2.08-1.19,0.39-0.91c-1.69,0.28,1.11-1.66,0.72-3.46
				c-0.39-1.8-1.49-0.08-2.21-1.22c-0.72-1.13-0.62-1.47,0.75-1.05c1.36,0.41,1.24-0.28-1.4-1.96c-2.64-1.69-1.01-1.36-2.21-2.77
				c-1.2-1.41-3.25-1.24-3.25-1.24s0.88-0.53,1.4-1.55c0.52-1.02,0.62-0.94,1.17-2.18c0.55-1.24-0.55-1.13-1.95-0.83
				c-1.4,0.3-1.86,0.44-1.57-0.11c0.29-0.55,0.49-0.77,1.14-1.47c0.65-0.69,0.78-1.05-0.42-0.77c-1.2,0.28-1.39,0.25-2.41,0.72
				C228.53,84.44,229.61,85.44,228.95,87.24z M225.66,91.47c-2.13,0.84-1.53,1.38-1.17,1.69c0.36,0.3,1.01-0.28-0.98,0.86
				c-1.99,1.13-2.02,2.38-0.98,2.63c1.04,0.25,0.91-0.61-0.19,1.47c-1.11,2.07-1.86,3.48,0.39,2.96c2.25-0.53,2.86-1.69,3.94-1.83
				c1.07-0.14,1.27-1,1.27-2.3c0-1.3-0.72-1.33,0.13-2.41c0.84-1.08,0.91-2.21-0.75-2.74C225.66,91.27,227,90.94,225.66,91.47z
				 M252.4,120.49c-0.11,0.29,0.14,1.08-0.72,1.62c-0.85,0.54,0.41,1.03,0.69,1.54c0.28,0.51,0.64-1.75,0.55-2.83
				C252.84,119.74,252.76,119.56,252.4,120.49z M251.99,124.76c-1.4,0.66-1.49,1.15-1.66,2.21c-0.16,1.05,1.14,0.21,0.8,1.13
				c-0.33,0.93-0.03,1.41,1.44,0.54c1.46-0.87,0.63-1.67,0.86-2.78C253.64,124.76,253.83,123.88,251.99,124.76z M273.62,136.11
				c-1.23-0.12-1.78,0.66,0.33,0.89c2.11,0.23,3.06,0.27,3.85,0.08c0.78-0.19,0.12-0.04-0.91-0.73
				C275.85,135.65,275.19,136.27,273.62,136.11z M285.37,136.77c-1.7-0.37-1.24,1.7,0.5,1.39c1.74-0.31,1.08,0.12,1.86-1.15
				C288.51,135.73,287.15,137.15,285.37,136.77z M243.1,127.2c-1.38,0.18-1.49,0.64-0.41,0.92c1.08,0.28,0.94-0.05,1.55-0.49
				C244.84,127.2,243.71,127.12,243.1,127.2z M159.51,102.04c-0.85,0.67-1.82,1.66-3.02,3.82c-1.2,2.16-1.07,1.93-2.23,3.12
				c-1.16,1.19-0.58,0.92,3.02,1.62c3.6,0.69,3.31,1.23,4.14,1c0.83-0.23,0.99,0.46,0.99,1.19c0,0.73,0.78,0.31,1.16-0.85
				c0.37-1.16-0.37-3.24-1.12-4.43c-0.75-1.2-0.91-1.2-2.07-0.89c-1.16,0.31-0.79-0.27-1.2-1.19c-0.41-0.93-1.08-0.19-0.08-1.58
				C160.09,102.46,160.34,101.39,159.51,102.04z M49.35,99.57c0,1.15,1.21,3.11,2.12,3.75c0.91,0.64,0.72,0.28,0.3-1.08
				c-0.41-1.36-0.08-1.36-0.28-2.24C51.3,99.14,49.35,99.16,49.35,99.57z M55.39,105.84c0.24,0.25,0.96,1.28,2.24,2.13
				c1.27,0.85,1.6,0.95,2.93,1.34c1.32,0.39,1.9-0.13,1.05-0.9c-0.85-0.77-0.14-0.69-1.68-1.05c-1.55-0.36-1.87-0.23-2.65-0.72
				C56.49,106.15,54.86,105.3,55.39,105.84z M21.74,93.06c-0.99-0.23-1.39-0.27-2.07,0.27c-0.68,0.54-0.87,1-0.5,1.6
				c0.37,0.6,0.15,0.27,1.01-0.33c0.87-0.6,0.46-0.67,1.55-0.94c1.1-0.27,0.87-0.64,0.87-0.64S22.35,93.2,21.74,93.06z M21.39,91.73
				c-0.67,0.4-0.89,0.73-0.15,0.58c0.75-0.15,0.64-0.58,1.12-0.48c0.48,0.09,0.64-0.1,0.64-0.1S22.1,91.31,21.39,91.73z M2.29,88.67
				c-0.91,0.44-1.77-0.08-1.21,0.26c0.56,0.34,1.33,0.66,1.92,0.59c0.6-0.07,0.99-0.08,0.78-0.37c-0.22-0.29-0.28-0.36-0.29-0.66
				C3.47,88.08,3.2,88.22,2.29,88.67z M307.75,214.25c-1.05,2.31-3.26,1.18-5.02,2.88c-1.76,1.7-1.49,1.18-0.17,3.55
				c1.33,2.36-1.1,2.11-1.71,4.88c-0.61,2.77,0.72,2.26,1.43,4.62c0.72,2.36,1.05,1.65,2.38,1.34c1.32-0.31,2.26-0.92,2.26-0.92
				s0.23-2.06,1.1-5.09c0.88-3.03,1.49-5.24,1.66-7.25c0.17-2,0.33-3.44,0.78-2.83c0.44,0.62,0.49,0.62,0.49-0.36
				c0-0.98-0.53-3.72-1.38-4.37C308.08,209.57,308.8,211.94,307.75,214.25z M309.29,56.18c-1.44,0.33-2.13,1.21-1.08,1.56
				c1.06,0.35,0.95,0.16,2.69-0.46C312.65,56.66,310.72,55.85,309.29,56.18z M336.33,29.91c-0.5-0.77-0.94,0.26-6.01,2.47
				c-5.08,2.21-5.03,0.31-9.77,4.06c-4.75,3.75-3.7,3.29-3.97,5.55c-0.28,2.26-1.38,1.28-1.82,3.34c-0.44,2.06-2.87,2.16-1.66,3.85
				c1.22,1.7,2.81,2.67,5.35,3.39c2.54,0.72,3.26-0.05,2.71-0.31c-0.55-0.26-2.48-3.29-2.1-6.73c0.39-3.44,1.66-2.93,2.76-4.21
				c1.1-1.29,3.97-4.63,5.85-5.76c1.82-1.1,6.68-2.64,9.12-3.48c0.07-0.02,0.16-0.02,0.2-0.07
				C338.93,29.86,336.83,30.69,336.33,29.91z M322.65,53.01c-0.6,0.09-0.88,0.1,0.22,1.18c1.1,1.08,2.07,1.9,1.71,0.46
				C324.22,53.22,323.2,52.94,322.65,53.01z M340.78,42.56c-0.81-0.38-1.24-0.77-1.43-0.15c-0.19,0.62,0.91,1.44,1.99,1.64
				C342.4,44.25,341.55,42.92,340.78,42.56z M150.8,107.23c-1.23-0.62-2.43-1.1-3.23-1.1c-0.8,0,0.17,0.85,1.43,1.54
				C150.28,108.36,151.52,107.59,150.8,107.23z M147.88,112.4c0.07-1.02-0.68,1.17,0.23,1.66c0.91,0.49,1.38,0.62,1.96,0.02
				c0.58-0.59,0.11-0.22-0.69-0.36C148.58,113.58,147.82,113.24,147.88,112.4z M509.41,76.99c-1.49,0.15-2.61-0.27-2.61-0.27
				s-0.08,1.2-0.54,1.77c-0.46,0.58-0.13,1.19-0.13,1.19s-1.49-0.66-2.36-0.96c-0.87-0.31-1.66-0.04-2.15-1.35
				c-0.5-1.31-1.98-1.08-3.14-1.08c-1.16,0-0.83-1.5-0.83-1.5s0,0-0.7,0.04c-0.71,0.04-0.58,1.73-1.49,2.27
				c-0.91,0.54-3.77,0.89-3.77,0.89s1.82,1.31,2.19,2.39c0.37,1.08,1.08,2.12,1.08,2.12s-0.17,0.5-2.36,0.08
				c-2.19-0.42-2.07,0.42-4.43,1.39c-2.36,0.96-5.05,2.43-5.71,2.97c-0.67,0.54-0.71,0.23-2.77-0.27c-2.07-0.5-2.48,0.58-3.02,0.85
				c-0.53,0.27-0.33-1.23-0.33-1.23s-0.75,0-1.66,0.46c-9.43,4.79-2.93,4.54-3.22,5.51c0,0-1,3.74-1,3.74
				c-1.39,4.13-2.35,1.97-3.52,5.24c-3.73,10.41-5.88-1.6-5.88-4.35c0-1.7-0.37-3.89,0.71-4.39c9.26-4.31,0.87-0.6,9.56-6.55
				c2.82-1.93,1.28-3.08,1.9-3.62c0.62-0.54,1.62-0.69,1.62-0.69s0,0-1.53-0.15c-1.53-0.15-1.57,0.19-2.77,1.5
				c-1.2,1.31-2.15,1.54-1.9,0.54c0.25-1,0.29-2.04-0.62-1.5c-0.91,0.54-1.28,0.46-2.98,0.81c-1.7,0.35-3.52,1.16-5.05,3.08
				c-1.53,1.93-0.66,1.7-0.16,2.16c0.49,0.46-2.45,0.35-3.85,0.23c-1.41-0.12-0.67-0.39,0.16-0.66c0.83-0.27-1.24-0.5-3.06-0.89
				c-1.82-0.38-1.12,0.31-2.19,0.73c-1.08,0.42-1.03-0.38-1.57-0.5c-0.54-0.12-2.94-0.27-4.64-0.46c-1.7-0.19-1.57,0.12-2.03,0.69
				c-0.46,0.58-3.6,3.35-4.97,4.93c-1.37,1.58-3.06,1.93-4.6,3.39c-1.53,1.46-1.78,1.39-0.54,1.62c1.24,0.23,1.41,0.11,1.62,1.27
				c0.21,1.16,0.79,1.54,2.11,1.54c1.32,0,0.95,0.35,1.2-0.65c0.25-1-0.33-2.16,0.79-1.27c1.12,0.89,2.03,1.54,2.36,2.81
				c0.33,1.27-0.08,2.2-0.66,4.32c-0.58,2.12-0.79,5.16-1.57,6.71c-0.79,1.54-1.41,2.7-2.28,4.39c-0.87,1.69-5.09,5.97-6.04,6.36
				c-0.95,0.38-1.57,0.42-2.03-0.42c-0.46-0.85-0.79-0.69-1.86,0.27c-1.07,0.96-1.57,1.54-1.99,3.08c-0.42,1.54-1.33,1.54-2.28,2.7
				c-0.95,1.16-1.2,0.89-0.5,2.2c0.7,1.31,1.86,2.7,1.99,3.97c0.12,1.27-0.58,3.12-1.03,3.93c-0.46,0.81-2.61,1.19-2.57,0.81
				c0.04-0.38,0.08-2.31,0-3.43c-0.08-1.12-0.91-1.12-0.62-1.46c0.29-0.35,1.49-0.93,0.62-1.73c-0.87-0.81-1.49-0.12-1.86-1.08
				c-0.37-0.96,0.16-1.73-0.04-2.08c-0.21-0.35-0.83-0.73-2.11-0.85c-1.28-0.12-1.57,1.15-1.86,0.04c-0.29-1.12,0.13-1.23-0.45-1.69
				c-0.58-0.46-1.08-0.15-2.56,1.12c-1.49,1.27-1.78,1-3.02,1.54c-1.24,0.54-1.24,0.85-0.95,1.27c0.29,0.42,1.33,2.27,2.19,2.47
				c0.87,0.19,1.49-0.39,2.81-0.39c1.33,0,1.58,0.19,1.24,0.69c-0.33,0.5-1.24,1-2.86,2.62c-1.61,1.62-1.12,1.31-0.58,1.97
				c0.54,0.66,1.32,1.46,1.9,2.74c0.58,1.27,0,1.73-0.08,2.47c-0.08,0.73-0.21,1.85,0.87,3.01c1.08,1.16,0.33,0.77,0.21,1.19
				c-0.12,0.42-1.95,3.74-2.77,5.4c-0.83,1.66-0.83,1.81-3.52,3.7c-2.69,1.89-3.89,2.08-5.34,2.35c-1.45,0.27-2.69,0.69-3.44,1
				c-0.75,0.31-0.46,0.92-0.53,1.31c-0.09,0.39-0.79,0.04-0.67-0.54c0.12-0.58,0.04-1-0.33-1.16c-0.37-0.15-1.53-0.62-2.73,0.54
				c-1.2,1.16-2.65,1.23-3.15,2.7c-0.5,1.46-0.41,0.96,0.13,1.58c0.53,0.62,3.14,3.12,3.76,4.47c0.62,1.35,0.75,2.35,0.79,3.82
				c0.04,1.46-2.98,4.16-4.31,5.05c-1.32,0.89-1.62,1.73-1.41,0.35c0.2-1.39-0.58-2.2-1.53-3.24c-0.95-1.04-3.85-1.89-4.39-2
				c-0.54-0.12,0.21-0.96-0.17-0.93c-0.37,0.04-1.24-0.19-1.11,1.16c0.12,1.35-0.87,0.93-1.08,2.27c-0.21,1.35-0.45,2.74,0.41,2.62
				c0.87-0.12,0.7,1.2,1.37,2.66c0.66,1.46,0.41,0.66,2.07,2c1.66,1.35,1.24,1.12,1.62,2.47c0.37,1.35,0.25,2.12,1.08,3.35
				c0.82,1.23,0.87,1.5-0.5,0.81c-1.37-0.69-2.48-1.54-3.02-2.39c-0.54-0.85-0.87-3.01-1.2-4.08c-0.33-1.08-2.57-2.35-3.31-3.12
				c-0.75-0.77-0.29-1.39,0.08-3.16c0.37-1.77-0.17-3.47-0.29-4.55c-0.12-1.08-0.99-4.11-1.41-5.13c-0.41-1.02-0.25-0.88-0.89,0
				c-0.64,0.89-1.14,1.43-1.76,1.43c-0.62,0-1.53-0.1-1.45-0.5c0.08-0.4,0.71-1.95,0.52-2.52c-0.19-0.58-0.77-2.43-1.64-3.08
				c-0.87-0.66-1.86-1.56-2.42-3.08c-0.56-1.52-0.71-1.08-1.78-0.29c-1.08,0.79-3.54,0.89-4.72,0.98c-1.18,0.1-0.21,0.68-0.5,1.25
				c-0.29,0.58-1.68,1.33-4.47,4.24c-2.79,2.91-3.22,3.01-3.94,3.31c-0.72,0.31-1.18,0.21-1.15,1.41c0.02,1.19,0.13,1.84-0.01,2.91
				c-0.13,1.07-0.46,1.5-0.76,2.18c-0.3,0.68-0.63,1.92-0.73,2.56c-0.09,0.64-0.72,1.39-1.63,2.04c-0.91,0.66-0.91,0.54-1.32-0.42
				c-0.41-0.96-2.57-4.66-4.31-8.13c-1.74-3.47-1.32-4.09-1.49-5.09c-0.16-1-0.2-7.02-0.12-7.48c0.04-0.26-0.84,0.71-1.09,1.19
				c-0.25,0.49-0.24,1.08-1.23,1.17c-0.99,0.09-1.2,0.1-2.14-0.83c-0.94-0.94-1.37-1.46-1.2-1.44c0.17,0.03,1.24-0.1,1.87-0.41
				c0.62-0.31,0.41-0.64,0.41-0.64s-0.67,0.08-1.47,0.11c-0.8,0.04-0.44-0.18-1.5-0.6c-1.06-0.42-1.3-0.46-1.48-0.94
				c-0.18-0.47-0.44-1.14-0.59-1.5c-0.15-0.36-0.28-0.38-0.45-0.83c-0.18-0.45-0.69,0.08-1.83,0.1c-1.15,0.03-0.88,0.08-2.26,0.62
				c-1.38,0.54-1.59,0.35-3.15,0.3c-1.56-0.05-2.65-0.72-3.44-0.99c-0.79-0.27-0.91-0.15-2.07-0.32c-1.16-0.17-0.91-0.76-1.2-1.25
				c-0.29-0.49-0.77-0.6-2.29-0.49c-1.51,0.11-1.57,0.04-2.42-0.19c-0.85-0.23-0.93-0.54-1.64-1.26c-0.72-0.72-0.48-0.15-0.95-0.53
				c-0.47-0.37-0.94-0.89-1.31-1.89c-0.37-1-0.29-1.22-0.72-1.68c-0.43-0.46-0.4-0.35-1.74-0.35c-1.34,0-0.73,0.09-0.9,0.18
				c-0.16,0.09-0.58,0.68-0.95,1.14c-0.37,0.46,0.3,1.11,0.84,1.74c0.54,0.63,0.07,0.57,0.92,1.52c0.86,0.95,0.56,0.86,1.17,2.18
				c0.61,1.32,0.99,1.66,1.13,2.06c0.14,0.4,0.26-0.16,0.4-0.51c0.14-0.36-0.05-1.65-0.05-1.65s0.26,0.54,0.49,1.49
				c0.24,0.95,0.07,0.96,0.24,1.57c0.17,0.6,0,0.53,1.03,0.53c1.04,0,1.67,0.04,2.82-0.23c1.15-0.27,1.64-1.31,2.18-1.62
				c0.54-0.31,0.54-1.39,0.9-1.27c0.36,0.11,0.01,1.27,0.35,2.03c0.33,0.76,0.41,0.49,1.22,0.82c0.8,0.33,1.02,0.53,1.83,0.83
				c0.82,0.31,0.26,0.35,0.71,1.16c0.44,0.81,0.41,0.36,0.84,0.64c0.43,0.28,0.26,0.08-0.04,1.04c-0.3,0.96-0.36,0.98-1.08,1.76
				c-0.72,0.78-0.72,0.54-0.83,0.51c-0.11-0.03-0.33-0.58-0.33-0.58s-0.46,0.94-0.52,2.03c-0.07,1.09,0.36,0.69-0.95,1.22
				c-1.31,0.53-2.1,0.75-2.61,1.18c-0.51,0.44-0.51,1.02-0.8,1.3c-0.29,0.28-0.69,0.03-1.57,0.33c-0.88,0.31-0.64,0.25-1.38,0.81
				c-0.74,0.56-0.08,0.51-1.03,0.87c-0.95,0.36-2.67,1.19-3.54,1.29c-0.87,0.09-0.69,0.32-0.91,0.64c-0.22,0.32-0.24,0.49-1.34,0.66
				c-1.1,0.17-2.48,0.32-3.16,0.66c-0.68,0.33-1.67,1.08-2.38,0.94c-0.72-0.14-0.52-0.17-0.76-0.81c-0.23-0.64-0.36-1.1-0.47-2.16
				c-0.11-1.05-0.48-2.66-1.09-3.67c-0.6-1.02-0.59-1.08-1.25-2.15c-0.66-1.07-1.11-1.96-1.68-2.38c-0.58-0.41-0.87-0.44-1.15-0.74
				c-0.27-0.31-0.11-1.36-0.4-2.26c-0.29-0.9-0.48-1.77-0.91-2.27c-0.43-0.5-1.09-1.08-1.68-2.15c-0.59-1.07-0.63-1.18-1.49-2.83
				c-0.86-1.65-1.16-1.85-1.72-2.96c-0.57-1.11-0.2-0.89-0.4-1.54c-0.21-0.65-0.75,1.07-1.17,1.4c-0.43,0.33-0.65,0.17-0.99-0.81
				c-0.35-0.98-0.64-1.84-0.9-1.45c-0.26,0.39-0.47,0.77-0.11,1.81c0.36,1.04,0.53,0.82,1,1.81c0.47,0.99,1.75,3.47,2.27,4.5
				c0.52,1.03,0.32,0.53,0.8,2.08c0.48,1.55,0.76,1.75,1.4,2.39c0.65,0.64,0.54,0.31,0.83,1.36c0.29,1.05,0.18,2.29,0.22,2.93
				c0.04,0.64,0.4,0.98,1.17,1.62c0.78,0.64,0.39,0.41,0.75,1.09c0.36,0.68,0.72,1.65,0.92,2.31c0.21,0.67,0.46,1.13,1.06,1.43
				c0.61,0.3,0.77,0.33,1.38,0.55c0.61,0.22,0.4,0.37,0.81,0.9c0.41,0.53,1.22,0.92,1.71,1.76c0.49,0.83,0.16,0.59,0.13,1.4
				c-0.03,0.81-0.29,0.44,0.07,0.86c0.36,0.42,0.98,0.77,2.02,1.46c1.05,0.69,0.21,0.21,1.15,0.18c0.94-0.03,1.14-0.27,2.14-0.49
				c1-0.22,2.3-0.59,3.54-0.89c1.24-0.3,2.46-0.49,3.09-0.69c0.63-0.21,0.65,0.49,0.16,1.57c-0.48,1.08-0.72,1.98-1.13,2.85
				c-0.41,0.87-0.57,0.95-0.87,1.66c-0.3,0.71-2.35,3.6-2.77,4.51c-0.43,0.91-0.94,1.64-1.56,2.4c-0.62,0.76-2.57,2.13-3.48,2.86
				c-0.91,0.73-0.68,0.73-1.35,1.59c-0.68,0.86-2.73,3.25-3.29,4.1c-0.55,0.85-0.87,1.16-1.28,1.99c-0.41,0.84-1.58,2.02-1.66,2.62
				c-0.07,0.6-0.73,0.68-0.23,1.21c0.5,0.53,0.76,0.61,0.94,1.28c0.18,0.67-0.55,1.43-0.08,2.65c0.47,1.22,0.14,0.35,0.84,1.32
				c0.7,0.98,0.67,1.59,0.74,3.02c0.07,1.43,0.14,2.84-0.08,3.76c-0.22,0.93-0.52,1.53-0.84,2.37c-0.32,0.83-2.06,1.4-3.08,1.85
				c-1.02,0.45-0.98,0.27-1.45,0.84c-0.47,0.57-1.82,1.75-2.27,2.62c-0.46,0.87-0.8,0.79-0.62,1.34c0.18,0.55,0.56,1.27,1.03,2.3
				c0.47,1.03,0.14,0.95,0.03,1.84c-0.11,0.89-0.1,0.75-0.22,1.82c-0.13,1.08-1.39,1.1-2.84,1.67c-1.45,0.56-0.92,0.28-1.09,1.07
				c-0.16,0.79-0.07,2.33-0.12,3.25c-0.05,0.93-0.5,0.55-1.29,1.7c-0.79,1.14-1.1,1.68-1.94,3.06c-0.84,1.37-0.77,1.18-1.84,2.04
				c-1.06,0.86-1.9,1.08-2.37,2.07c-0.47,0.99-1.01,0.33-3.29,1.07c-2.27,0.73-0.62,0.37-2.78,0.62c-2.17,0.25-2.94,0.41-4.09,0.62
				c-1.15,0.21-0.99-0.06-1.7-0.84c-0.7-0.77-0.82-0.71-1.13-1.35c-0.32-0.64-0.08-0.8-0.18-1.95c-0.1-1.16-0.19-1.2-0.62-1.91
				c-0.43-0.72-0.4-0.83-0.87-1.98c-0.47-1.14-0.68-1.46-1.21-2.23c-0.52-0.77-0.67-0.53-1.16-1.03c-0.48-0.5-0.49-0.94-0.61-1.64
				c-0.11-0.71-0.28-2.38-0.51-4.14c-0.23-1.76-0.03-0.82-0.31-1.57c-0.27-0.75-0.6-1.65-1.07-2.63c-0.47-0.99-0.31-0.73-1.02-1.95
				c-0.72-1.22-0.65-1.05-1.1-2.12c-0.46-1.07-0.52-0.59-0.55-1c-0.03-0.41,0.23-1.16,0.26-1.88c0.03-0.72,0.26-1.55,0.44-2.66
				c0.18-1.1-0.24-1.09,0.22-1.85c0.47-0.76,0.95-1.45,1.26-2.31c0.3-0.86,0.26-0.9,0.26-1.99c0-1.09-0.11-1-0.44-1.91
				c-0.33-0.91-0.45-1.98-0.85-3.44c-0.4-1.46-0.39-1.41-0.44-1.98c-0.05-0.57-0.33-1.84-0.6-2.61c-0.28-0.77-0.42-0.46-1.02-0.96
				c-0.61-0.5-0.21-0.28-0.73-0.84c-0.52-0.55-0.43-0.73-0.94-1.34c-0.51-0.6-0.58-0.63-1-1.31c-0.41-0.68-0.19-0.27-0.13-1.41
				c0.05-1.14,0.39-3.33,0.59-4.59c0.21-1.26,0.25-1.2-0.23-1.72c-0.48-0.53-0.83-1.29-1.2-1.41c-0.37-0.13-1.27,0.13-2.58,0.1
				c-1.31-0.03-1.26-0.32-1.82-0.98c-0.57-0.65-1.31-1.57-1.58-1.81c-0.26-0.24-0.72-0.23-2.95-0.07c-2.23,0.17-0.88,0.21-2.38,0.44
				c-1.48,0.23-2.07,1.01-3.21,1.41c-1.14,0.4-1.47,0.3-3.49-0.1c-2.01-0.4-3.02,0.46-4.04,0.9c-1.02,0.44-1.52,0.23-2.26-0.28
				c-0.75-0.51-1.19-0.94-2.33-1.5c-1.14-0.57-0.88-0.87-2.01-1.43c-1.14-0.55-0.76-0.58-1.7-1.46c-0.94-0.89-1-1.79-1.66-2.71
				c-0.65-0.93-1.2-2.22-2.07-3.2c-0.87-0.98-1.72-2.94-2.15-3.53c-0.43-0.59-0.76-0.64-0.75-0.93c0.01-0.28,0.84-1.94,1.19-2.8
				c0.35-0.86,0.44-0.75,0.59-1.28c0.15-0.54-0.2-2.09-0.54-2.94c-0.33-0.85-0.71-2.63-0.96-3.47c-0.27-0.84,0.13-0.85,0.46-1.32
				c0.32-0.48,1.07-1.46,1.86-2.93c0.79-1.47,1.23-2.19,1.64-2.87c0.42-0.68,1.36-2.77,1.99-3.34c0.62-0.56,2.2-1.7,2.88-2.04
				c0.68-0.35,1.23-0.54,1.34-0.85c0.11-0.31,0.4-2.85,0.59-3.92c0.2-1.07-0.07-1.66,0.71-2.07c0.77-0.41,2.01-1.18,2.66-1.54
				c0.64-0.36,0.74-0.9,1.07-1.68c0.33-0.78,0.47-1.77,0.97-2.09c0.49-0.32,0.36,0.14,1,0.58c0.65,0.44,0.76,0.46,1.06,0.54
				c0.31,0.08,0.58-0.24,1.34-0.26c0.76-0.01,0.84,0.09,1.3,0.33c0.46,0.24,0.21,0.24,1.51-0.55c1.3-0.8,2.33-1.29,4.03-1.92
				c1.7-0.63,2.85-0.98,3.64-1.07c0.79-0.09,0.39,0.01,1.27,0.36c0.88,0.35,0.92,0.5,1.1,0.24c0.18-0.26,0.76-0.98,1.13-0.95
				c0.37,0.02,0.8,0.18,1.75,0.35c0.95,0.17,1.35,0.08,1.74-0.13c0.38-0.21,0.88-0.62,0.98-0.62c0.1,0,0.91,0.28,1.58,0.53
				c0.66,0.25,0.67,0.28,0.54,0.45c-0.14,0.17-0.33,0.35-0.65,1.07c-0.32,0.72-0.17,0.33,0.13,1.09c0.3,0.76,0.52,0.72,0.39,1.27
				c-0.14,0.55-0.76,1.07-1.21,1.61c-0.46,0.54-0.35,0.63,0.77,1.26c1.12,0.63,0.86,0.53,2.11,1.09c1.26,0.57,1.31,0.36,2.77,0.8
				c1.46,0.44,1.28,0.49,1.79,1.08c0.51,0.59,0.54,1.16,1.42,1.46c0.88,0.31,1.82,0.31,2.33,0.63c0.51,0.32,0.92,0.78,1.62,0.91
				c0.69,0.13,0.69,0.22,1.02-0.28c0.33-0.5,0.61-0.95,0.48-1.21c-0.12-0.26-0.5-0.65-0.42-0.9c0.08-0.24,0.66-1.22,0.84-1.51
				c0.18-0.3,0.64-0.37,1.73-0.42c1.09-0.05,1.84-0.21,2.03,0.44c0.18,0.64,0.14,0.35,0.98,0.69c0.84,0.35,0.92,0.35,1.63,0.62
				c0.71,0.27,0.35,0.65,0.71,0.63c0.36-0.03,0.94-0.08,1.6,0.12c0.66,0.19,1.88,0.77,3.16,0.82c1.28,0.05,1.78-0.33,1.98-0.42
				c0.19-0.09,1.1-1.21,1.64-0.44c0.54,0.77,1.24,0.78,2.59,0.71c1.35-0.08,1.37-0.28,1.67-0.63c0.3-0.35,1.12-1.66,1.38-2.56
				c0.26-0.9,0.98-2.86,1.17-3.75c0.2-0.89-0.01-1.58-0.08-2.1c-0.07-0.53,0.05-0.89,0.26-1.48c0.21-0.59-0.65-0.23-0.99-0.12
				c-0.35,0.12-0.44-0.18-0.76-0.27c-0.32-0.09-0.65-0.17-0.88,0.42c-0.24,0.59-0.13,0.89-1.39,0.82c-1.27-0.06-1.03-0.14-1.45-0.59
				c-0.41-0.45-1.12-0.56-1.68-0.73c-0.56-0.17-0.62-0.14-0.66,0.22c-0.04,0.36-0.05,0.6-0.47,0.75c-0.41,0.14-1.35-0.03-2.14-0.4
				c-0.79-0.37-1.02-0.55-1.79-1.31c-0.78-0.76-0.66-0.76-0.98-1.93c-0.32-1.17-0.32-2.17-0.18-2.52c0.13-0.35,0.36-0.45-0.24-0.27
				c-0.59,0.18-0.99,0.28-0.59-0.6c0.4-0.89,0.77-0.92,1.19-1.04c0.41-0.11,1.05-0.13,1.83-0.18c0.79-0.05,1.39-0.45,1.67-0.57
				c0.28-0.11,0.84-0.31,0.55-0.38c-0.29-0.08-1.16-0.17-1.01-0.41c0.15-0.24,0.25-0.23,0.72-0.28c0.47-0.05,1.2-0.08,1.82-0.12
				c0.62-0.04,0.99,0.08,1.2-0.3c0.2-0.37,0.47-0.93,0.95-1.22c0.48-0.29,1.01-0.14,2.28-0.19c1.27-0.05,1.07,0.26,1.49,0.55
				c0.41,0.3,0.69,0.15,1.23,0.26c0.53,0.1,0.2,0.42,0.62,0.59c0.42,0.17,1.17,0.33,2.1,0.63c0.92,0.3,0.32,0.17,1.45,0.17
				c1.13,0,1.09,0.01,1.99-0.14c0.9-0.15,1.27-0.49,1.9-0.94c0.64-0.45,0.19-1.43-0.04-2.18c-0.24-0.76-1.23-1.25-1.68-1.59
				c-0.46-0.35-1.43-1.45-1.96-1.9c-0.53-0.45-1.13-0.58-1.71-0.9c-0.58-0.32-1.62-0.85-1.71-1.27c-0.1-0.42,0.22-0.44,1.08-0.64
				c0.85-0.21,0.58-0.39,0.74-0.84c0.17-0.45,0.24-0.44,0.94-0.69c0.7-0.26-0.81-0.8-1.02-1.09c-0.2-0.3,0.47-0.21,1.18-0.37
				c0.7-0.17,0.76-0.5,0.85-0.8c0.1-0.3,0.07-0.44-0.76-0.42c-0.83,0.01-1.87,0.36-3.27,0.73c-1.39,0.37-0.76,0.39-1.6,1.04
				c-0.84,0.66-0.89,0.37-0.79,0.73c0.11,0.36,0.16,0.71,1.02,1.16c0.86,0.45,0.5,0.46,0.73,0.53c0.23,0.06,0.81,0.15,0.55,0.23
				c-0.26,0.08-0.5,0.49-0.88,0.49c-0.39,0-0.55,0.4-1.21,0.77c-0.66,0.37-0.95,0.42-1.43,0.5c-0.48,0.08-0.83-0.08-0.76-0.9
				c0.07-0.82-0.25-0.27-0.76-0.46c-0.51-0.19-0.7-0.41-0.7-0.41s0.51-0.18,1.02-0.5c0.51-0.32,0.74-0.51,0.99-1.14
				c0.25-0.63-0.55-0.28-1.13-0.36c-0.58-0.08-0.41-0.13-0.98-0.21c-0.56-0.08-0.79-0.53-0.79-0.53s0.26,0.1,0.74,0.05
				c0.48-0.05,0.37-0.18,0.55-0.31c0.18-0.13,0.32-0.24,0.18-0.24c-0.14,0-0.73,0.06-1.13,0.04c-0.4-0.03-0.64-0.09-1.22,0
				c-0.58,0.09-0.35,0.31-0.76,0.58c-0.41,0.27-0.43,0.36-0.65,0.76c-0.22,0.4-0.29,0.33-0.44,0.59c-0.15,0.26-0.14,0.9-0.14,1.34
				c0,0.44-0.11,0.58-0.37,0.94c-0.26,0.36-0.26,0.21-0.7,0.42c-0.44,0.22-0.15,0.37-0.21,0.81c-0.05,0.44-0.21,0.6-0.25,1.17
				c-0.04,0.56-0.26,0.59-0.61,0.99c-0.35,0.4-0.54,0.4-0.56,0.81c-0.03,0.41-0.1,0.59,0,1.39c0.09,0.8,0.32,0.59,0.94,1.4
				c0.62,0.81,0.95,0.5,0.73,0.91c-0.22,0.41-0.18,0.26-0.94,0.17c-0.76-0.09-0.88,0.02-1.43,0.55c-0.55,0.53-0.67,0.82-0.95,1.02
				c-0.29,0.19-0.19-0.39-0.3-0.66c-0.11-0.27-1.38-0.36-2.25-0.62c-0.87-0.26-1.1-0.41-1.33-0.41c-0.22,0-0.56-0.05-1.47,0.45
				c-0.91,0.5-0.71,0.79-0.64,1.45c0.06,0.66,0.78,0.79,0.58,2.33c-0.21,1.54,0.77,0.83,1.18,1.77c0.41,0.94,0.04,0.87-0.21,0.98
				c-0.25,0.12-0.49,0.93-0.68,1.7c-0.19,0.77,0.02,0.87-0.21,0.83c-0.23-0.04-0.5,0.14-0.93-0.5c-0.44-0.64-0.79-0.04-0.85-0.4
				c-0.06-0.37-0.6-0.98-0.39-1.83c0.21-0.85,0.54-0.93-0.21-1.37c-0.74-0.44-0.56-0.5-0.91-1.41c-0.35-0.91-0.43-1.08-1.11-1.91
				c-0.69-0.83-0.63-0.6-0.44-1.43c0.19-0.83,0.33-1.91-0.08-2.49c-0.41-0.58-2.13-2.18-3.54-2.93c-1.4-0.75-1.7-0.17-2.32-1.37
				c-0.62-1.2-0.91-2.45-1.94-3.18c-1.03-0.73-0.52-0.79-1.51-0.42c-0.99,0.37-1.02,0.52-0.93,0.81c0.08,0.29,0.31,0.67,0.16,1.46
				c-0.15,0.79-0.35,0.54,0.68,1.15c1.04,0.62,0.6,0.48,1.12,1.62c0.52,1.14,0.6,1.35,1.01,1.81c0.42,0.46,0.56,0.87,1.59,1.1
				c1.03,0.23,0.87-0.06,1.14,0.19c0.27,0.25-0.72,0.35-0.54,0.46c0.19,0.12,0.42,0.44,1.28,0.98c0.87,0.54,1.76,1.1,1.99,1.52
				c0.23,0.42,0.99,2.02-0.13,0.85c-1.12-1.18-1.14-0.64-1.45,0.17c-0.31,0.81,0.29,1.43,0.25,2.02c-0.04,0.6-0.56,0.37-0.91,0.85
				c-0.35,0.48-0.54,1.06-0.95,1.37c-0.41,0.31-0.29-0.35-0.51-0.35c-0.23,0-0.31,0.29-0.6,0.85c-0.29,0.56,0,0.79,0.12,1.54
				c0.12,0.75,0.33,0.81-0.47,0.77c-0.81-0.04-0.62-0.79-1.36-1.29c-0.75-0.5-1.18-0.33-1.8-0.71c-0.62-0.38,0.27-0.48,1.82-0.67
				c1.55-0.19,1.74-0.35,2.22-0.71c0.47-0.37,0.31-0.46,0.83-1.2c0.52-0.73,0-1.02-0.35-1.91c-0.35-0.88-1.01-1.29-1.24-1.46
				c-0.23-0.17-0.75-0.69-1.2-1.19c-0.46-0.5-0.94-0.58-1.72-0.77c-0.79-0.19-0.64-0.91-1.07-1.12c-0.44-0.21-0.87-0.83-1.86-1.75
				c-0.99-0.92-0.62-1.62-1.08-2.43c-0.46-0.81-0.91-1.43-1.9-1.43c-0.99,0-1.74,0.69-2.73,1.66c-0.99,0.96-0.79,1.43-1.94,0.69
				c-1.16-0.73-1.57-0.66-2.4,0.04c-0.83,0.69-0.99,1.39-0.99,2.77c0,1.39-0.99,0.81-1.78,1.2c-0.79,0.39-1.49,1.35-2.69,3.62
				c-1.2,2.28,0.08,1.19-0.17,1.97c-0.25,0.77,0.08,1.39-1.03,2.39c-1.12,1-0.62-0.11-1.28,0.69c-0.66,0.81-1.58,1.46-3.15,1.27
				c-1.57-0.19-1.12,0.42-2.11,0.65c-0.99,0.23-1.53,0.58-1.28-0.54c0.25-1.12,0.04-0.96-1.86-0.89c-1.91,0.08-2.57,0.58-2.4,0.31
				c0.17-0.27,0.25-0.73,0.46-1.81c0.21-1.08,0.49-1.43,0.21-1.43c-0.29,0-0.91,0.16-0.46-1.77c0.46-1.93,0.62-2.27,0.41-3.39
				c-0.21-1.12,0.08-2.62-0.16-3.28c-0.25-0.65,0.49-1.31,0.16-1.66c-0.33-0.35-0.71-0.81-0.46-0.81c0.25,0,1.28,0.04,2.61,0.27
				c1.33,0.23,2.69-0.19,3.48-0.12c0.78,0.08,2.44,0.42,4.09,0.69c1.66,0.27,1.62-0.23,1.45-2.66c-0.17-2.43,0.12-3.55-0.37-4.05
				c-0.5-0.5-1.03-0.46-1.57-1.12c-0.54-0.65-0.12-1.62-1.28-1.97c-1.16-0.35-2.45-0.08-1.82-0.31c0.62-0.23,0.87-0.31,0.21-0.81
				c-0.67-0.5-0.83-1.04-0.33-1.12c0.5-0.08,1.9-0.08,1.9-0.08s0.12,0.69,0.87,0.38c0.75-0.31,1.7-0.62,1.49-1.12
				c-0.21-0.5-0.58-1.12-0.46-1.12c0.12,0,0.41,0.69,1.99,0.69c1.57,0,1.45-0.23,1.33-0.89c-0.12-0.66,1.04-0.62,1.82-1.16
				c0.78-0.54-0.29-1.16-0.12-1.66c0.16-0.5,1.07-0.81,2.69-0.92c1.61-0.12,1.32-0.39,1.16-0.58c-0.16-0.19,0.04-1,0.16-2.04
				c0.13-1.04-0.12-1.39,0.71-1.89c0.83-0.5,0.58-0.31,2.28-0.46c1.7-0.15,0.66-0.54,0.95-0.62c0.29-0.08,2.32-0.58,2.69-0.73
				c0.37-0.15,0.33-0.11,0-0.85c-0.33-0.73-0.79-1.15-1.16-4.55c-0.37-3.39-0.29-3.39,1.78-4.01c2.07-0.62,1.62-0.42,1.45,1.46
				c-0.16,1.89-1.08,1.89-1.28,3.28c-0.21,1.39-0.04,2.24,0.83,3.7c0.87,1.47,0.79,0.73,2.65,0.73c1.86,0,1.45,0.46,2.69,0.89
				c1.24,0.42,0.83-0.77,2.03-1.19c1.2-0.42,0.95,0.27,3.76-0.15c1.07-0.16,1.44-0.2,1.52-0.21c-0.09,0-0.4,0.01-0.08-0.18
				c0.66-0.39,0.83-1.08,1.78-1.2c0.95-0.12,1.61,0.27,1.57-1.19c-0.04-1.46-0.58-1.23-0.41-2.35c0.17-1.12,0.2-0.62,0.29-1.5
				c0.08-0.89-0.12-1.04,1.08-1.35c1.2-0.31,0.37,1.08,1.82,1.39c1.45,0.31,1.24,0.54,1.49-0.58c0.25-1.12,1.04-2.58,0.33-2.51
				c-0.7,0.08-0.87-0.04-1.57-1.08c-0.71-1.04-1.12-1.27-0.66-1.27c0.46,0,1.99-0.42,4.18-0.35c2.19,0.08,2.82,0.27,2.94,0.04
				c0.12-0.23-0.37-0.46,0.37-0.92c0.75-0.46,3.19,0.23,2.82-0.19c-0.37-0.42-2.53-1-3.97-0.77c-1.45,0.23-4.97,0.65-5.51,0.62
				c-0.54-0.04-1.53-0.42-1.78-0.69c-0.25-0.27-1.03-0.46-1.03-1.73c0-1.27,0.45-1.77-0.29-3.01c-0.75-1.23,1.36-2.27,2.82-3.59
				c1.45-1.31,1.08-2.39,1.94-2.47c0.87-0.08,1.2-0.54,0.79-0.96c-0.41-0.42-1.94-1.89-2.69-2.04c-0.75-0.15-1.86-1-3.02,1
				c-1.16,2,0.08,2.2,0.29,3.24c0.21,1.04-1.62,1.81-2.98,2.78c-1.36,0.96-1.86,0.73-2.27,3.2c-0.41,2.47-0.83,2.54,0.7,3.39
				c1.53,0.85,1.82,1.27,1.12,2c-0.71,0.73-2.19,0.69-3.11,2.43c-0.91,1.73-0.54,2.58-0.91,3.35c-0.37,0.77-1.53,1.12-1.86,1.89
				c-0.33,0.77-0.33,2.23-1.74,2c-1.41-0.23-0.62-2.12-1.24-3.08c-0.62-0.96-1.12-1.77-1.86-2.97c-0.75-1.19-0.16-2.35-0.87-2.97
				c-0.7-0.62-0.87-1.85-0.87-1.85s0,0-0.25,0.58c-0.25,0.58-0.12,0.93-1.53,2.66c-1.41,1.73-3.52,1.85-4.55,1.43
				c-1.03-0.42-0.87-1.43-0.87-2.7c0-1.27-0.25-2.97-0.04-4.97c0.21-2,0.79-1.85,2.98-3.16c2.19-1.31,2.23-1.23,2.77-2.08
				c0.53-0.85,2.11-2.04,3.02-2.81c0.91-0.77,2.49-3.7,3.31-5.78c0.83-2.08,2.36-3.35,3.85-5.59c1.49-2.23,4.14-4.2,7.53-5.63
				c3.39-1.43,2.82-1.58,3.6-2.7c0.79-1.12,1.12-0.46,2.45-0.73c1.32-0.27,1.12,0-0.21,1.31c-1.32,1.31-1.9,2.7-0.79,1.66
				c1.12-1.04,1.98-2.27,3.72-2.2c1.74,0.08,1.04,0,2.73,0.77c1.7,0.77,1.99,0.85,1.04,1.46c-0.96,0.62-2.57,0.46-2.57,0.46
				s0.54,1.27,2.11,1.46c1.58,0.19,2.44-1.23,3.48-0.69c1.03,0.54,1.33,0.92-0.08,0.81c-1.41-0.12-1.82,0.77-0.08,1.39
				c1.74,0.62,1.9,0.69,4.18,1c2.27,0.31,3.27,1.97,5.01,2.7c1.74,0.73,3.77,0.12,3.19,1.7c-0.58,1.58,0.46,3.12-2.57,3.85
				c-3.02,0.73-2.94-0.23-5.46-1c-2.53-0.77-4.31-1.54-4.31-1.54s0.66,0.89,1.82,1.97c1.16,1.08,1.29,2.08,1.16,4.05
				c-0.12,1.97-0.66,2.51,1.33,3.47c1.99,0.96,1.7,0.69,2.31,0.54c0.62-0.15,1.66-0.35,1.41-0.66c-0.25-0.31-0.45-0.89-1.12-1.19
				c-0.66-0.31-0.7-1.04-0.04-1.39c0.66-0.35,1.28,0.31,2.73,0.23c1.45-0.08,0-0.54,0.7-1.27c0.71-0.73,0.75-1.97,2.45-2.62
				c1.7-0.66,3.52,0.31,3.97-0.42c0.45-0.73,0.95-1.58,0-2.7c-0.95-1.12-1.7-1.5-1.12-2.04c0.58-0.54,1.74-1.96,2.28-1.16
				c0.54,0.81,1.9,1.7,0.17,1.54c-1.74-0.15-0.54,2.58,1.03,2.43c1.57-0.15,1.45-0.65,2.73-1.27c1.28-0.62,3.81-2.66,5.59-3.28
				c1.78-0.62,2.15-0.46,2.85-0.15c0.71,0.31,0.71,0.88,2.65,0.5c1.94-0.39,2.52-0.85,4.35-1.16c1.82-0.31-0.12,0.66,0.7,0.92
				c0.83,0.27,0.91,0.5,1.53,0.08c0.62-0.42,2.61-1.12,1.7-1.81c-0.91-0.69-1.58-1.16-1.58-1.16s0.66-1.46,2.4-1.35
				c1.74,0.12,4.39,1.73,6.08,2.89c1.7,1.16,3.77,3.62,3.77,3.62s0.74-1.27,0.12-3.39c-0.62-2.12-2.19-1.62-2.19-3.62
				c0-2-1.45-1.46-0.95-2.89c0.5-1.43,1.9-1.97,2.28-3.78c0.37-1.81,0.7-3.31,1.99-3.31c1.28,0,4.05,0.38,4.05,0.38
				s0,1.66-1.03,4.12c-1.03,2.47,0.54,2.74,0.29,5.74c-0.25,3.01-0.29,3.39,0.41,4.09c0.7,0.69,2.03,1.54,1.53,2.85
				c-0.5,1.31-0.75,2.12-2.61,2.85c-1.86,0.73-4.22,0.31-3.36,0.89c0.87,0.58,1.99,1.08,3.23,1.27c1.24,0.19,0.62-0.08,1.62-0.89
				c0.99-0.81,3.23-2.43,3.14-3.2c-0.08-0.77-1.28-1.96-0.45-2.54c0.83-0.58,1.16-1.46,2.44-0.73c1.28,0.73,2.52,3.47,2.52,3.35
				c0-0.11-0.25-2.7-1.78-4.24c-1.53-1.54-4.05-0.08-4.05-1.43c0-1.35,0.7-3.2,0.54-4.66c-0.17-1.46-0.74-2.93,0.21-4.2
				c0.95-1.27,0.99-2.27,0.99-2.27s0.42,1.2,0.08,2.7c-0.33,1.5,0.17,2.39,0.87,2.39c0.7,0,3.85,0.04,2.15-0.46
				c-1.7-0.5-2.19-0.96-0.49-1.89c1.7-0.93,1.61-0.31,4.09,0.27c2.48,0.58,3.06,1,3.89,0.96c0.83-0.04,0.7-0.12,0.41-0.85
				c-0.28-0.73-0.66-1.23-1.45-1.73c-0.79-0.5-1.32,0.11-1.57-0.66c-0.25-0.77-0.7-2.7-0.91-3.43c-0.21-0.73,0.62-0.15,1.94-0.15
				c1.32,0,4.93-0.19,7.7-0.27c2.77-0.08,0.04-2.97-0.17-5.01c-0.21-2.04,5.13-2.12,7.74-2.5c2.61-0.39,5.63-0.27,10.51-1.43
				c4.88-1.16,1.74-0.96,2.44-2.35c0.71-1.39,1.9-1.62,3.35-1.62c1.45,0,2.78,0.27,2.24,0.46c-0.54,0.19-2.15,1,0.37,1.54
				c2.53,0.54,1.86,0.5,0.54,0.96c-1.32,0.46-0.21,1.31,2.36,1.31c2.57,0,1.03-0.23,0.62-1.08c-0.41-0.85,0.38-0.54,2.49-0.19
				c2.11,0.35,2.94,0.69,4.1,1.77c1.16,1.08,1.36,0.81,1.78,2.31c0.41,1.5-0.04,1.27-1.82,2.66c-1.78,1.39-2.86,1.39-5.42,3.01
				c-2.57,1.62-1.95,2.47-3.35,3.55c-1.41,1.08-1.04,0.77,1.94,0c2.98-0.77,4.59-1.27,6.13-1.12c1.53,0.15,2.27,0.73,3.43,0.73
				c1.16,0-0.08,0.19,3.56,0.19c3.64,0,3.1,0,1.78,1.04c-1.33,1.04,0.25,1.35,1.86,1.35c1.62,0,3.6,0.08,5.09-0.15
				c1.49-0.23,0.21-1.35,1.99-1.43c1.78-0.08,2.36-0.23,4.26-0.23c1.9,0,1.32,0.77,1.99,1.47c0.66,0.69,1.57,1.16,0.95,2.54
				c-0.62,1.39-0.95,1.43-0.58,3.31c0.37,1.89,1.33,2.16,2.49,2.5c1.16,0.35,1.16-1.7,2.28-2.39c1.12-0.69,1.36,1.39,2.65,1.08
				c1.29-0.31,2.73-0.15,3.85,0.19c1.12,0.35,2.07,0.54,3.64,0.19c1.57-0.35,1.08-0.96,0.54-1.93c-0.54-0.96-0.58-0.89,0.41-1.89
				c0.99-1,1.66-0.5,4.88,0.35c3.23,0.85,2.19,0.85,4.01,1.35c1.82,0.5,1.24,0.39,4.01,1.66c2.77,1.27,2.24,2.77,3.52,3.58
				c1.28,0.81,1.36,0,3.93-0.23c2.56-0.23,2.52,0.31,5.34,1.04c2.81,0.73,2.07,1.66,2.07,2.47c0,0.81-0.79,1.43,0.95,1.81
				c1.74,0.39,2.44,0.73,3.93,0.35c1.49-0.39,0.17,0.38,3.48,0.42c3.31,0.04,2.19-0.38,3.19,0.31c0.99,0.69,1.24,2.08,2.85,1.93
				c1.61-0.15,1.49-0.12,0.83-1.54c-0.66-1.43-1.08-1.66-0.12-1.62c0.95,0.04,2.9,0.46,6.5,1.04c3.6,0.58,3.72,1.23,6.67,3.08
				c2.94,1.85,3.76,2,5.92,3.66c0.82,0.63,0.98,0.81,1,0.86c0.05,0,0.28,0.07,1.11,0.45c2.31,1.08,1.9,0.73,3.89,1.7
				c1.98,0.96,3.68,2.31,3.68,2.31S510.9,76.83,509.41,76.99z M316.3,116.16c0,0-0.22,0.29,0.94-0.63c1.16-0.92-0.54-0.04-1.2-0.23
				c-0.66-0.19-0.87-0.5-0.66-1.35c0.21-0.85-0.08-0.85-0.79-1.97c0,0-0.37-0.23-1.16,0.23c-0.79,0.46-1.24-0.46-2.19-0.11
				c-0.95,0.35-1.99,0.19-2.56,1.62c-0.58,1.43-1.24,0.5-1.45,1.66c-0.21,1.16-1.99,1.77-1.99,1.77s0.71,0.69,1.24,1.35
				c0.54,0.66,0.17,0.23,0.7,2.39c0.54,2.16,0.91,1.97,1.66,2.27c0.75,0.31,1.9,1.04,1.9,1.04s-0.7-0.42-0.7,0.73
				c0,1.16-1.12,1.97-1,3.66c0.12,1.7-1.53,3.28-0.2,3.43c1.32,0.15,0.91,0.73,2.36,1.12c1.45,0.38,2.27,0.65,4.39,0.65
				c2.11,0,0.95-0.81,0.66-2c-0.29-1.19-0.46-1.97-0.54-3.28c-0.08-1.31-0.58-0.96-0.91-1.77c-0.33-0.81,0.17-1.27,1.16-1.27
				c0.99,0,1.12-0.04,0.58-0.93c-0.54-0.89-0.2-1.23-0.87-1.62c-0.66-0.38-0.95,1.27-0.95,1.27s-0.41-0.39-0.25-2
				c0.17-1.62,0.29-0.85-0.2-1.16c-0.5-0.31-0.79,0.08-1.45-1c-0.66-1.08-0.08-0.85-0.87-2.16c-0.79-1.31-0.37-0.62,0.49-0.62
				c0.87,0,0.41-0.19,0-0.62c-0.41-0.42-0.7-1.08,0.41-1c1.12,0.08,2.57,0.31,3.1,0.35C316.49,116.03,316.3,116.16,316.3,116.16z
				 M161.89,56.77c-0.38,0.66,0.65,1.5,1.39,1.24c0.75-0.26,0.99,0.03,1.42-0.31c0.42-0.34,0.46-0.84-0.04-1.32
				c-0.51-0.49-0.3-0.78-0.39-0.83C163.32,54.97,162.28,56.12,161.89,56.77z M366.49,14.28c-1.12,0.04-2.36,0.08-1.33,0.42
				c1.03,0.35,0.62,2.08,2.61,1.12c1.99-0.96,1.57-1.04,2.94-1.62c1.36-0.58,0.57-0.3-1.08-0.73
				C368.6,13.2,367.61,14.24,366.49,14.28z"/>
		</g>
	</g>
	<g>
		<path class="st2" d="M169.59,231.79c-0.36-0.2-0.82-0.07-1.02,0.3c-0.2,0.36-0.07,0.82,0.3,1.02c0.9,0.49,1.41,1.04,1.41,1.5
			c0,0.56-0.8,1.43-3.03,2.19c-2.21,0.75-5.15,1.16-8.3,1.16c-3.15,0-6.09-0.41-8.3-1.16c-2.23-0.76-3.03-1.63-3.03-2.19
			c0-0.46,0.51-1,1.41-1.5c0.36-0.2,0.5-0.66,0.3-1.02c-0.2-0.36-0.66-0.5-1.02-0.3c-1,0.55-2.19,1.48-2.19,2.81
			c0,1.02,0.7,2.48,4.05,3.61c2.36,0.8,5.48,1.24,8.78,1.24c3.31,0,6.43-0.44,8.78-1.24c3.35-1.14,4.05-2.59,4.05-3.61
			C171.78,233.27,170.59,232.34,169.59,231.79z"/>
		<path class="st2" d="M153.28,235.7c1.53,0.43,3.54,0.67,5.68,0.67c2.13,0,4.15-0.24,5.68-0.67c1.87-0.53,2.81-1.29,2.81-2.27
			c0-0.98-0.95-1.74-2.81-2.27c-0.41-0.12-0.87-0.22-1.34-0.31c-0.26,0.45-0.53,0.91-0.82,1.39c0.53,0.08,1.03,0.18,1.48,0.29
			c1.37,0.35,1.88,0.74,1.98,0.9c-0.1,0.15-0.61,0.55-1.98,0.9c-1.3,0.33-2.97,0.52-4.74,0.54c-0.09,0.01-0.17,0.01-0.26,0.01
			c-0.09,0-0.17,0-0.26-0.01c-1.76-0.02-3.44-0.21-4.74-0.54c-1.37-0.35-1.88-0.74-1.98-0.9c0.1-0.15,0.61-0.55,1.98-0.9
			c0.45-0.12,0.95-0.21,1.48-0.29c-0.29-0.48-0.56-0.94-0.82-1.39c-0.48,0.09-0.93,0.19-1.34,0.31c-1.87,0.53-2.81,1.29-2.81,2.27
			S151.41,235.18,153.28,235.7z"/>
		<path class="st2" d="M158.95,233.37c0.67,0,1.28-0.34,1.63-0.91c2.45-4,5.36-9.28,5.36-11.68c0-3.85-3.14-6.99-6.99-6.99
			c-3.85,0-6.99,3.14-6.99,6.99c0,2.4,2.92,7.68,5.36,11.68C157.68,233.03,158.28,233.37,158.95,233.37z M156.14,220.31
			c0-1.55,1.26-2.81,2.81-2.81c1.55,0,2.81,1.26,2.81,2.81c0,1.55-1.26,2.81-2.81,2.81C157.4,223.11,156.14,221.85,156.14,220.31z"
			/>
	</g>
	<g>
		<path class="st2" d="M360.73,172.07c-0.36-0.2-0.82-0.07-1.02,0.3c-0.2,0.36-0.07,0.82,0.3,1.02c0.9,0.49,1.41,1.04,1.41,1.5
			c0,0.56-0.8,1.43-3.03,2.19c-2.21,0.75-5.15,1.16-8.3,1.16s-6.09-0.41-8.3-1.16c-2.23-0.76-3.03-1.63-3.03-2.19
			c0-0.46,0.51-1,1.41-1.5c0.36-0.2,0.5-0.66,0.3-1.02c-0.2-0.36-0.66-0.5-1.02-0.3c-1,0.55-2.19,1.48-2.19,2.81
			c0,1.02,0.7,2.48,4.05,3.61c2.36,0.8,5.48,1.24,8.78,1.24s6.43-0.44,8.78-1.24c3.35-1.14,4.05-2.59,4.05-3.61
			C362.92,173.55,361.73,172.61,360.73,172.07z"/>
		<path class="st2" d="M344.42,175.98c1.53,0.43,3.54,0.67,5.68,0.67s4.15-0.24,5.68-0.67c1.87-0.53,2.81-1.29,2.81-2.27
			c0-0.98-0.95-1.74-2.81-2.27c-0.41-0.12-0.87-0.22-1.34-0.31c-0.26,0.45-0.53,0.91-0.82,1.39c0.53,0.08,1.03,0.18,1.48,0.29
			c1.37,0.35,1.88,0.74,1.98,0.9c-0.1,0.15-0.61,0.55-1.98,0.9c-1.3,0.33-2.97,0.52-4.74,0.54c-0.09,0.01-0.17,0.01-0.26,0.01
			c-0.09,0-0.17,0-0.26-0.01c-1.76-0.02-3.44-0.21-4.74-0.54c-1.37-0.35-1.88-0.74-1.98-0.9c0.1-0.15,0.61-0.55,1.98-0.9
			c0.45-0.12,0.95-0.21,1.48-0.29c-0.29-0.48-0.56-0.94-0.82-1.39c-0.48,0.09-0.93,0.19-1.34,0.31c-1.87,0.53-2.81,1.29-2.81,2.27
			S342.55,175.46,344.42,175.98z"/>
		<path class="st2" d="M350.09,173.65c0.67,0,1.28-0.34,1.63-0.91c2.45-4,5.36-9.28,5.36-11.68c0-3.85-3.14-6.99-6.99-6.99
			s-6.99,3.14-6.99,6.99c0,2.4,2.92,7.68,5.36,11.68C348.81,173.31,349.42,173.65,350.09,173.65z M347.28,160.58
			c0-1.55,1.26-2.81,2.81-2.81s2.81,1.26,2.81,2.81c0,1.55-1.26,2.81-2.81,2.81S347.28,162.13,347.28,160.58z"/>
	</g>
	<g>
		<path class="st2" d="M465.07,234.64c-0.36-0.2-0.82-0.07-1.02,0.3c-0.2,0.36-0.07,0.82,0.3,1.02c0.9,0.49,1.41,1.04,1.41,1.5
			c0,0.56-0.8,1.43-3.03,2.19c-2.21,0.75-5.15,1.16-8.3,1.16c-3.15,0-6.09-0.41-8.3-1.16c-2.23-0.76-3.03-1.63-3.03-2.19
			c0-0.46,0.51-1,1.41-1.5c0.36-0.2,0.5-0.66,0.3-1.02c-0.2-0.36-0.66-0.5-1.02-0.3c-1,0.55-2.19,1.48-2.19,2.81
			c0,1.02,0.7,2.48,4.05,3.61c2.36,0.8,5.48,1.24,8.78,1.24c3.31,0,6.43-0.44,8.78-1.24c3.35-1.14,4.05-2.59,4.05-3.61
			C467.26,236.13,466.07,235.19,465.07,234.64z"/>
		<path class="st2" d="M448.76,238.56c1.53,0.43,3.54,0.67,5.68,0.67c2.13,0,4.15-0.24,5.68-0.67c1.87-0.53,2.81-1.29,2.81-2.27
			c0-0.98-0.95-1.74-2.81-2.27c-0.41-0.12-0.87-0.22-1.34-0.31c-0.26,0.45-0.53,0.91-0.82,1.39c0.53,0.08,1.03,0.18,1.48,0.29
			c1.37,0.35,1.88,0.74,1.98,0.9c-0.1,0.15-0.61,0.55-1.98,0.9c-1.3,0.33-2.97,0.52-4.74,0.54c-0.09,0.01-0.17,0.01-0.26,0.01
			c-0.09,0-0.17,0-0.26-0.01c-1.76-0.02-3.44-0.21-4.74-0.54c-1.37-0.35-1.88-0.74-1.98-0.9c0.1-0.15,0.61-0.55,1.98-0.9
			c0.45-0.12,0.95-0.21,1.48-0.29c-0.29-0.48-0.56-0.94-0.82-1.39c-0.48,0.09-0.93,0.19-1.34,0.31c-1.87,0.53-2.81,1.29-2.81,2.27
			S446.89,238.03,448.76,238.56z"/>
		<path class="st2" d="M454.43,236.23c0.67,0,1.28-0.34,1.63-0.91c2.45-4,5.36-9.28,5.36-11.68c0-3.85-3.14-6.99-6.99-6.99
			c-3.85,0-6.99,3.14-6.99,6.99c0,2.4,2.92,7.68,5.36,11.68C453.16,235.89,453.76,236.23,454.43,236.23z M451.62,223.16
			c0-1.55,1.26-2.81,2.81-2.81c1.55,0,2.81,1.26,2.81,2.81c0,1.55-1.26,2.81-2.81,2.81C452.88,225.97,451.62,224.71,451.62,223.16z"
			/>
	</g>
	<g>
		<path class="st2" d="M144.09,168.47c-0.36-0.2-0.82-0.07-1.02,0.3c-0.2,0.36-0.07,0.82,0.3,1.02c0.9,0.49,1.41,1.04,1.41,1.5
			c0,0.56-0.8,1.43-3.03,2.19c-2.21,0.75-5.15,1.16-8.3,1.16c-3.15,0-6.09-0.41-8.3-1.16c-2.23-0.76-3.03-1.63-3.03-2.19
			c0-0.46,0.51-1,1.41-1.5c0.36-0.2,0.5-0.66,0.3-1.02c-0.2-0.36-0.66-0.5-1.02-0.3c-1,0.55-2.19,1.48-2.19,2.81
			c0,1.02,0.7,2.48,4.05,3.61c2.36,0.8,5.48,1.24,8.78,1.24c3.31,0,6.43-0.44,8.78-1.24c3.35-1.14,4.05-2.59,4.05-3.61
			C146.28,169.95,145.09,169.02,144.09,168.47z"/>
		<path class="st2" d="M127.77,172.39c1.53,0.43,3.54,0.67,5.68,0.67c2.13,0,4.15-0.24,5.68-0.67c1.87-0.53,2.81-1.29,2.81-2.27
			c0-0.98-0.95-1.74-2.81-2.27c-0.41-0.12-0.87-0.22-1.34-0.31c-0.26,0.45-0.53,0.91-0.82,1.39c0.53,0.08,1.03,0.18,1.48,0.29
			c1.37,0.35,1.88,0.74,1.98,0.9c-0.1,0.15-0.61,0.55-1.98,0.9c-1.3,0.33-2.97,0.52-4.74,0.54c-0.09,0.01-0.17,0.01-0.26,0.01
			c-0.09,0-0.17,0-0.26-0.01c-1.76-0.02-3.44-0.21-4.74-0.54c-1.37-0.35-1.88-0.74-1.98-0.9c0.1-0.15,0.61-0.55,1.98-0.9
			c0.45-0.12,0.95-0.21,1.48-0.29c-0.29-0.48-0.56-0.94-0.82-1.39c-0.48,0.09-0.93,0.19-1.34,0.31c-1.87,0.53-2.81,1.29-2.81,2.27
			C124.96,171.1,125.9,171.86,127.77,172.39z"/>
		<path class="st2" d="M133.45,170.06c0.67,0,1.28-0.34,1.63-0.91c2.45-4,5.36-9.28,5.36-11.68c0-3.85-3.14-6.99-6.99-6.99
			c-3.85,0-6.99,3.14-6.99,6.99c0,2.4,2.92,7.68,5.36,11.68C132.17,169.72,132.78,170.06,133.45,170.06z M130.64,156.99
			c0-1.55,1.26-2.81,2.81-2.81c1.55,0,2.81,1.26,2.81,2.81c0,1.55-1.26,2.81-2.81,2.81C131.9,159.8,130.64,158.54,130.64,156.99z"/>
	</g>
	<g>
		<path class="st2" d="M105.87,126.01c-0.36-0.2-0.82-0.07-1.02,0.3c-0.2,0.36-0.07,0.82,0.3,1.02c0.9,0.49,1.41,1.04,1.41,1.5
			c0,0.56-0.8,1.43-3.03,2.19c-2.21,0.75-5.15,1.16-8.3,1.16c-3.15,0-6.09-0.41-8.3-1.16c-2.23-0.76-3.03-1.63-3.03-2.19
			c0-0.46,0.51-1,1.41-1.5c0.36-0.2,0.5-0.66,0.3-1.02c-0.2-0.36-0.66-0.5-1.02-0.3c-1,0.55-2.19,1.48-2.19,2.81
			c0,1.02,0.7,2.48,4.05,3.61c2.36,0.8,5.48,1.24,8.78,1.24c3.31,0,6.43-0.44,8.78-1.24c3.35-1.14,4.05-2.59,4.05-3.61
			C108.06,127.49,106.87,126.55,105.87,126.01z"/>
		<path class="st2" d="M89.55,129.92c1.53,0.43,3.54,0.67,5.68,0.67c2.13,0,4.15-0.24,5.68-0.67c1.87-0.53,2.81-1.29,2.81-2.27
			c0-0.98-0.95-1.74-2.81-2.27c-0.41-0.12-0.87-0.22-1.34-0.31c-0.26,0.45-0.53,0.91-0.82,1.39c0.53,0.08,1.03,0.18,1.48,0.29
			c1.37,0.35,1.88,0.74,1.98,0.9c-0.1,0.15-0.61,0.55-1.98,0.9c-1.3,0.33-2.97,0.52-4.74,0.54c-0.09,0.01-0.17,0.01-0.26,0.01
			c-0.09,0-0.17,0-0.26-0.01c-1.76-0.02-3.44-0.21-4.74-0.54c-1.37-0.35-1.88-0.74-1.98-0.9c0.1-0.15,0.61-0.55,1.98-0.9
			c0.45-0.12,0.95-0.21,1.48-0.29c-0.29-0.48-0.56-0.94-0.82-1.39c-0.48,0.09-0.93,0.19-1.34,0.31c-1.87,0.53-2.81,1.29-2.81,2.27
			C86.74,128.63,87.68,129.4,89.55,129.92z"/>
		<path class="st2" d="M95.23,127.59c0.67,0,1.28-0.34,1.63-0.91c2.45-4,5.36-9.28,5.36-11.68c0-3.85-3.14-6.99-6.99-6.99
			c-3.85,0-6.99,3.14-6.99,6.99c0,2.4,2.92,7.68,5.36,11.68C93.95,127.25,94.56,127.59,95.23,127.59z M92.42,114.52
			c0-1.55,1.26-2.81,2.81-2.81c1.55,0,2.81,1.26,2.81,2.81c0,1.55-1.26,2.81-2.81,2.81C93.68,117.33,92.42,116.07,92.42,114.52z"/>
	</g>
	<g>
		<path class="st2" d="M128.16,104.77c-0.36-0.2-0.82-0.07-1.02,0.3c-0.2,0.36-0.07,0.82,0.3,1.02c0.9,0.49,1.41,1.04,1.41,1.5
			c0,0.56-0.8,1.43-3.03,2.19c-2.21,0.75-5.15,1.16-8.3,1.16c-3.15,0-6.09-0.41-8.3-1.16c-2.23-0.76-3.03-1.63-3.03-2.19
			c0-0.46,0.51-1,1.41-1.5c0.36-0.2,0.5-0.66,0.3-1.02c-0.2-0.36-0.66-0.5-1.02-0.3c-1,0.55-2.19,1.48-2.19,2.81
			c0,1.02,0.7,2.48,4.05,3.61c2.36,0.8,5.48,1.24,8.78,1.24c3.31,0,6.43-0.44,8.78-1.24c3.35-1.14,4.05-2.59,4.05-3.61
			C130.35,106.25,129.16,105.32,128.16,104.77z"/>
		<path class="st2" d="M111.84,108.69c1.53,0.43,3.54,0.67,5.68,0.67c2.13,0,4.15-0.24,5.68-0.67c1.87-0.53,2.81-1.29,2.81-2.27
			c0-0.98-0.95-1.74-2.81-2.27c-0.41-0.12-0.87-0.22-1.34-0.31c-0.26,0.45-0.53,0.91-0.82,1.39c0.53,0.08,1.03,0.18,1.48,0.29
			c1.37,0.35,1.88,0.74,1.98,0.9c-0.1,0.15-0.61,0.55-1.98,0.9c-1.3,0.33-2.97,0.52-4.74,0.54c-0.09,0.01-0.17,0.01-0.26,0.01
			c-0.09,0-0.17,0-0.26-0.01c-1.76-0.02-3.44-0.21-4.74-0.54c-1.37-0.35-1.88-0.74-1.98-0.9c0.1-0.15,0.61-0.55,1.98-0.9
			c0.45-0.12,0.95-0.21,1.48-0.29c-0.29-0.48-0.56-0.94-0.82-1.39c-0.48,0.09-0.93,0.19-1.34,0.31c-1.87,0.53-2.81,1.29-2.81,2.27
			S109.98,108.16,111.84,108.69z"/>
		<path class="st2" d="M117.52,106.36c0.67,0,1.28-0.34,1.63-0.91c2.45-4,5.36-9.28,5.36-11.68c0-3.85-3.14-6.99-6.99-6.99
			s-6.99,3.14-6.99,6.99c0,2.4,2.92,7.68,5.36,11.68C116.24,106.02,116.85,106.36,117.52,106.36z M114.71,93.29
			c0-1.55,1.26-2.81,2.81-2.81c1.55,0,2.81,1.26,2.81,2.81c0,1.55-1.26,2.81-2.81,2.81C115.97,96.1,114.71,94.84,114.71,93.29z"/>
	</g>
	<g>
		<path class="st2" d="M74.02,115.39c-0.36-0.2-0.82-0.07-1.02,0.3c-0.2,0.36-0.07,0.82,0.3,1.02c0.9,0.49,1.41,1.04,1.41,1.5
			c0,0.56-0.8,1.43-3.03,2.19c-2.21,0.75-5.15,1.16-8.3,1.16c-3.15,0-6.09-0.41-8.3-1.16c-2.23-0.76-3.03-1.63-3.03-2.19
			c0-0.46,0.51-1,1.41-1.5c0.36-0.2,0.5-0.66,0.3-1.02c-0.2-0.36-0.66-0.5-1.02-0.3c-1,0.55-2.19,1.48-2.19,2.81
			c0,1.02,0.7,2.48,4.05,3.61c2.36,0.8,5.48,1.24,8.78,1.24c3.31,0,6.43-0.44,8.78-1.24c3.35-1.14,4.05-2.59,4.05-3.61
			C76.21,116.87,75.02,115.94,74.02,115.39z"/>
		<path class="st2" d="M57.7,119.31c1.53,0.43,3.54,0.67,5.68,0.67c2.13,0,4.15-0.24,5.68-0.67c1.87-0.53,2.81-1.29,2.81-2.27
			c0-0.98-0.95-1.74-2.81-2.27c-0.41-0.12-0.87-0.22-1.34-0.31c-0.26,0.45-0.53,0.91-0.82,1.39c0.53,0.08,1.03,0.18,1.48,0.29
			c1.37,0.35,1.88,0.74,1.98,0.9c-0.1,0.15-0.61,0.55-1.98,0.9c-1.3,0.33-2.97,0.52-4.74,0.54c-0.09,0.01-0.17,0.01-0.26,0.01
			c-0.09,0-0.17,0-0.26-0.01c-1.76-0.02-3.44-0.21-4.74-0.54c-1.37-0.35-1.88-0.74-1.98-0.9c0.1-0.15,0.61-0.55,1.98-0.9
			c0.45-0.12,0.95-0.21,1.48-0.29c-0.29-0.48-0.56-0.94-0.82-1.39c-0.48,0.09-0.93,0.19-1.34,0.31c-1.87,0.53-2.81,1.29-2.81,2.27
			C54.89,118.02,55.83,118.78,57.7,119.31z"/>
		<path class="st2" d="M63.38,116.98c0.67,0,1.28-0.34,1.63-0.91c2.45-4,5.36-9.28,5.36-11.68c0-3.85-3.14-6.99-6.99-6.99
			s-6.99,3.14-6.99,6.99c0,2.4,2.92,7.68,5.36,11.68C62.1,116.64,62.71,116.98,63.38,116.98z M60.57,103.91
			c0-1.55,1.26-2.81,2.81-2.81c1.55,0,2.81,1.26,2.81,2.81c0,1.55-1.26,2.81-2.81,2.81C61.83,106.72,60.57,105.46,60.57,103.91z"/>
	</g>
</g>
</svg>
