<svg id="Layer_1" data-name="Layer 1" xmlns="http://www.w3.org/2000/svg" xmlns:xlink="http://www.w3.org/1999/xlink" viewBox="0 0 914.11 418.26"><defs><style>.cls-1{opacity:0.1;}.cls-2{fill:#f9a3c0;}.cls-3{fill:#3655b5;}.cls-4{fill:url(#linear-gradient);}.cls-5{fill:#a1a7ff;}.cls-6{fill:#cccbcb;}.cls-7{fill:url(#linear-gradient-2);}.cls-8{fill:#f2786c;}.cls-9{fill:#ffc348;}.cls-10{fill:#1da3a3;}.cls-11{fill:#f6f7f7;}.cls-12{fill:#dbdbda;}.cls-13{fill:#ec1b4f;}.cls-14{fill:#e5e5e4;}.cls-15{fill:#aeadac;}.cls-16{fill:#ffb91f;}.cls-17{fill:#041948;}.cls-18{fill:#1d3665;}.cls-19{fill:#fdd5a9;}.cls-20{fill:#0b0b0b;}.cls-21{fill:#ffddba;}.cls-22{fill:#f4f5f5;}.cls-23{fill:#f4e5cd;}.cls-24{fill:#e5c8a9;}</style><linearGradient id="linear-gradient" x1="192.78" y1="365.21" x2="684.31" y2="365.21" gradientUnits="userSpaceOnUse"><stop offset="0" stop-color="#c2ceff"/><stop offset="1" stop-color="#95aaff"/></linearGradient><linearGradient id="linear-gradient-2" x1="275.15" y1="165.17" x2="601.93" y2="165.17" xlink:href="#linear-gradient"/></defs><title>Fraud Prevention</title><ellipse class="cls-1" cx="457.06" cy="400.75" rx="457.06" ry="17.51"/><rect class="cls-2" y="380.48" width="875.89" height="19.97"/><path class="cls-2" d="M875.89,400.45c0,.93-3,1.85-8.81,2.73-40.67,6.22-217.35,10.9-429.14,10.9-185.3,0-343.72-3.58-407.69-8.64C10.73,403.89,0,402.21,0,400.45s10.79-3.46,30.44-5c64.08-5.05,222.38-8.63,407.5-8.63,211.62,0,388.18,4.67,429,10.89C872.82,398.59,875.89,399.5,875.89,400.45Z"/><path class="cls-2" d="M875.89,380.48c0,.94-3,1.85-8.81,2.74-2,.29-4.2.59-6.76.88-2.86.32-6.1.64-9.7,1-5.79.5-12.52,1-20.11,1.47q-10.56.66-23.3,1.29c-77.79,3.78-214.1,6.3-369.27,6.3-141.84,0-267.93-2.1-348-5.36q-12.41-.5-23.3-1c-7.24-.36-14-.73-20.11-1.11q-5.12-.32-9.71-.65-3.45-.24-6.61-.49C10.73,383.93,0,382.24,0,380.48s10.79-3.45,30.44-5q3.12-.25,6.56-.49c3.06-.22,6.31-.43,9.72-.64,6.17-.38,12.9-.75,20.15-1.11s15.06-.71,23.34-1.05c80.05-3.25,206-5.34,347.73-5.34,155,0,291.23,2.5,369.06,6.29q12.75.62,23.35,1.28c7.61.47,14.35,1,20.15,1.47,3.61.32,6.86.64,9.73,1q3.82.43,6.75.88C872.82,378.62,875.89,379.54,875.89,380.48Z"/><rect class="cls-3" x="238.48" y="93.39" width="398.51" height="273.83" rx="14.23"/><rect class="cls-4" x="192.78" y="360.8" width="491.53" height="8.82"/><path class="cls-2" d="M545,369.62H192.78s11.75,8,34.05,8H650.26c22.29,0,34-8,34-8Z"/><rect class="cls-5" x="252.66" y="108.94" width="372.37" height="234.71" rx="1.95"/><path class="cls-6" d="M479.75,360.8a8.59,8.59,0,0,1-8.44,7H406.92a8.62,8.62,0,0,1-8.44-7Z"/><rect class="cls-7" x="275.15" y="4.67" width="326.77" height="321.01" rx="4.67"/><path class="cls-3" d="M601.93,4.67v20H275.15v-20A4.68,4.68,0,0,1,279.82,0H597.26A4.67,4.67,0,0,1,601.93,4.67Z"/><rect class="cls-5" x="290.58" y="7.62" width="233.15" height="9.44" rx="3.42"/><circle class="cls-8" cx="544.4" cy="12.34" r="4"/><circle class="cls-9" cx="557.47" cy="12.34" r="4"/><circle class="cls-10" cx="570.53" cy="12.34" r="4"/><rect class="cls-11" x="342.28" y="63.71" width="192.52" height="219.42" rx="32.45"/><path class="cls-12" d="M525.36,283.65H351.73a10,10,0,0,1-10-10V73.15a10,10,0,0,1,10-10H525.36a10,10,0,0,1,10,10V273.67A10,10,0,0,1,525.36,283.65ZM351.73,64.24a8.93,8.93,0,0,0-8.92,8.91V273.67a8.93,8.93,0,0,0,8.92,8.92H525.36a8.93,8.93,0,0,0,8.91-8.92V73.15a8.92,8.92,0,0,0-8.91-8.91Z"/><path class="cls-13" d="M470.8,110.3a32.24,32.24,0,0,1-13.63,26.35c-1.55-11.67-9.3-24.31-18.63-24.31S421.46,125,419.91,136.65A32.26,32.26,0,1,1,470.8,110.3Z"/><circle class="cls-5" cx="438.54" cy="101.06" r="10.02"/><path class="cls-5" d="M457.17,136.65a32.27,32.27,0,0,1-37.26,0c1.55-11.67,9.3-24.31,18.63-24.31S455.62,125,457.17,136.65Z"/><path class="cls-13" d="M438.54,145.72a35.41,35.41,0,1,1,25-10.37A35.17,35.17,0,0,1,438.54,145.72Zm0-69.77a34.35,34.35,0,1,0,34.35,34.35A34.39,34.39,0,0,0,438.54,76Z"/><rect class="cls-14" x="362.74" y="194.04" width="152.9" height="25.07" rx="7.8"/><rect class="cls-14" x="362.74" y="163.83" width="152.9" height="25.07" rx="7.8"/><rect class="cls-13" x="362.74" y="228.12" width="152.9" height="25.07" rx="2.34"/><path class="cls-11" d="M418.14,236h2.29v8.22h4v1.92h-6.32Z"/><path class="cls-11" d="M434.52,240.94c0,3.32-2,5.33-5,5.33s-4.78-2.27-4.78-5.16,2-5.3,4.94-5.3S434.52,238.13,434.52,240.94Zm-7.32.12c0,2,.93,3.39,2.46,3.39s2.43-1.46,2.43-3.43-.86-3.39-2.44-3.39S427.2,239.09,427.2,241.06Z"/><path class="cls-11" d="M444.49,245.64a11.41,11.41,0,0,1-3.38.57,5.68,5.68,0,0,1-4.12-1.36,5,5,0,0,1-1.44-3.69c0-3.37,2.47-5.29,5.79-5.29a7.11,7.11,0,0,1,2.82.49l-.48,1.83a5.66,5.66,0,0,0-2.36-.43,3.3,3.3,0,0,0-.17,6.6,3.35,3.35,0,0,0,1.12-.14v-2.13h-1.56V240.3h3.78Z"/><path class="cls-11" d="M448.57,236v10.14h-2.29V236Z"/><path class="cls-11" d="M450.56,246.11V236h2.67l2.11,3.72a29,29,0,0,1,1.65,3.47h0a40.37,40.37,0,0,1-.18-4.23v-3H459v10.14h-2.4l-2.17-3.91a35,35,0,0,1-1.76-3.58h-.05c.07,1.34.1,2.77.1,4.43v3.05Z"/><path class="cls-15" d="M374.72,178.15c0,.48,0,.88,0,1.24H374l-.05-.74h0a1.69,1.69,0,0,1-1.49.84c-.71,0-1.55-.4-1.55-2v-2.63h.81v2.49c0,.86.27,1.44,1,1.44a1.18,1.18,0,0,0,1.08-.75,1.31,1.31,0,0,0,.08-.42v-2.76h.81Z"/><path class="cls-15" d="M376,178.55a2.19,2.19,0,0,0,1.09.32c.6,0,.87-.29.87-.67s-.24-.6-.83-.82c-.82-.3-1.2-.74-1.2-1.28a1.39,1.39,0,0,1,1.56-1.32,2.09,2.09,0,0,1,1.1.28l-.2.59a1.81,1.81,0,0,0-.93-.26c-.48,0-.74.28-.74.61s.26.54.85.77c.78.29,1.18.68,1.18,1.36s-.62,1.35-1.68,1.35a2.56,2.56,0,0,1-1.27-.31Z"/><path class="cls-15" d="M380.24,177.28a1.43,1.43,0,0,0,1.54,1.57,2.91,2.91,0,0,0,1.24-.24l.15.59a3.71,3.71,0,0,1-1.51.28,2.1,2.1,0,0,1-2.21-2.27,2.18,2.18,0,0,1,2.12-2.43,1.9,1.9,0,0,1,1.85,2.12,1.81,1.81,0,0,1,0,.38Zm2.39-.59a1.16,1.16,0,0,0-1.13-1.32,1.33,1.33,0,0,0-1.25,1.32Z"/><path class="cls-15" d="M384.44,176.28c0-.53,0-1,0-1.4h.72l0,.88h0a1.37,1.37,0,0,1,1.26-1,.86.86,0,0,1,.23,0v.77a1.23,1.23,0,0,0-.28,0,1.14,1.14,0,0,0-1.1,1,2.25,2.25,0,0,0,0,.38v2.41h-.82Z"/><path class="cls-15" d="M387.53,176.1c0-.47,0-.85,0-1.22h.72l.05.74h0a1.67,1.67,0,0,1,1.49-.84c.62,0,1.59.37,1.59,1.92v2.69h-.82v-2.6c0-.73-.27-1.34-1-1.34a1.17,1.17,0,0,0-1.1.84,1.12,1.12,0,0,0-.06.38v2.72h-.81Z"/><path class="cls-15" d="M395.19,179.39l-.07-.57h0a1.69,1.69,0,0,1-1.38.67,1.29,1.29,0,0,1-1.38-1.29c0-1.1,1-1.69,2.71-1.68v-.1a.93.93,0,0,0-1-1,2.22,2.22,0,0,0-1.17.34l-.18-.55a2.8,2.8,0,0,1,1.48-.39c1.38,0,1.71.94,1.71,1.84v1.69a7.17,7.17,0,0,0,.07,1.08Zm-.12-2.3c-.89,0-1.9.14-1.9,1a.72.72,0,0,0,.76.78,1.13,1.13,0,0,0,1.1-.75.82.82,0,0,0,0-.26Z"/><path class="cls-15" d="M397.19,176.1c0-.47,0-.85,0-1.22h.71l0,.73h0a1.55,1.55,0,0,1,1.42-.83,1.32,1.32,0,0,1,1.27.9h0a1.72,1.72,0,0,1,.51-.58,1.49,1.49,0,0,1,1-.32c.6,0,1.48.39,1.48,1.95v2.66h-.8v-2.55c0-.87-.32-1.39-1-1.39a1.08,1.08,0,0,0-1,.74,1.25,1.25,0,0,0-.07.41v2.79H400v-2.71c0-.71-.32-1.23-.94-1.23a1.13,1.13,0,0,0-1,.82,1.29,1.29,0,0,0-.06.4v2.72h-.8Z"/><path class="cls-15" d="M405.41,177.28a1.45,1.45,0,0,0,1.55,1.57,2.91,2.91,0,0,0,1.24-.24l.15.59a3.71,3.71,0,0,1-1.51.28,2.1,2.1,0,0,1-2.21-2.27,2.18,2.18,0,0,1,2.12-2.43,1.9,1.9,0,0,1,1.85,2.12,1.81,1.81,0,0,1,0,.38Zm2.4-.59a1.16,1.16,0,0,0-1.13-1.32,1.35,1.35,0,0,0-1.26,1.32Z"/><path class="cls-15" d="M371,205.28c0-.57,0-1,0-1.47h.73l0,.77h0a1.76,1.76,0,0,1,1.6-.87,2,2,0,0,1,1.91,2.29,2.13,2.13,0,0,1-2,2.42,1.56,1.56,0,0,1-1.39-.71h0v2.45H371Zm.82,1.21a1.84,1.84,0,0,0,0,.33,1.27,1.27,0,0,0,1.23,1c.87,0,1.37-.71,1.37-1.74s-.47-1.68-1.34-1.68a1.31,1.31,0,0,0-1.24,1,1.33,1.33,0,0,0-.05.34Z"/><path class="cls-15" d="M378.75,208.32l-.07-.57h0a1.69,1.69,0,0,1-1.38.67,1.28,1.28,0,0,1-1.38-1.29c0-1.09,1-1.69,2.71-1.68v-.09a.92.92,0,0,0-1-1,2.19,2.19,0,0,0-1.17.33l-.19-.54a2.87,2.87,0,0,1,1.49-.4c1.38,0,1.71.94,1.71,1.85v1.68a7.08,7.08,0,0,0,.07,1.08Zm-.12-2.3c-.89,0-1.91.14-1.91,1a.73.73,0,0,0,.77.79,1.14,1.14,0,0,0,1.1-.76.82.82,0,0,0,0-.26Z"/><path class="cls-15" d="M380.63,207.49a2.3,2.3,0,0,0,1.09.32c.59,0,.87-.3.87-.67s-.24-.6-.84-.83c-.81-.29-1.2-.74-1.19-1.28a1.39,1.39,0,0,1,1.55-1.32,2.23,2.23,0,0,1,1.11.28l-.21.6a1.73,1.73,0,0,0-.92-.27c-.48,0-.75.28-.75.62s.27.54.86.77c.78.29,1.18.68,1.18,1.35s-.62,1.36-1.68,1.36a2.54,2.54,0,0,1-1.27-.32Z"/><path class="cls-15" d="M384.32,207.49a2.26,2.26,0,0,0,1.08.32c.6,0,.88-.3.88-.67s-.24-.6-.84-.83c-.81-.29-1.2-.74-1.19-1.28a1.39,1.39,0,0,1,1.55-1.32,2.23,2.23,0,0,1,1.11.28l-.21.6a1.73,1.73,0,0,0-.92-.27c-.48,0-.75.28-.75.62s.27.54.86.77c.77.29,1.18.68,1.18,1.35s-.62,1.36-1.68,1.36a2.54,2.54,0,0,1-1.27-.32Z"/><path class="cls-15" d="M388.44,203.81l.61,2.29c.13.5.24,1,.33,1.44h0a14.79,14.79,0,0,1,.4-1.43l.74-2.3h.68l.71,2.26c.16.53.29,1,.39,1.47h0c.09-.46.21-.93.35-1.47l.65-2.26h.81l-1.46,4.51H392l-.69-2.15a14.85,14.85,0,0,1-.4-1.49h0a12.09,12.09,0,0,1-.41,1.5l-.72,2.14H389l-1.36-4.51Z"/><path class="cls-15" d="M399,206a2.2,2.2,0,0,1-2.24,2.4,2.14,2.14,0,0,1-2.16-2.32,2.2,2.2,0,0,1,2.23-2.39A2.13,2.13,0,0,1,399,206Zm-3.57.06c0,1,.57,1.73,1.37,1.73s1.37-.74,1.37-1.76c0-.76-.38-1.72-1.36-1.72S395.39,205.22,395.39,206.08Z"/><path class="cls-15" d="M400,205.22c0-.53,0-1,0-1.41h.72l0,.89h0a1.37,1.37,0,0,1,1.25-1,.8.8,0,0,1,.23,0v.77a1.09,1.09,0,0,0-.28,0,1.15,1.15,0,0,0-1.09,1.05,2.33,2.33,0,0,0,0,.38v2.41H400Z"/><path class="cls-15" d="M406.84,201.71v5.45c0,.4,0,.85,0,1.16h-.73l0-.78h0a1.66,1.66,0,0,1-1.53.88,2.06,2.06,0,0,1-1.94-2.29,2.17,2.17,0,0,1,2-2.42,1.51,1.51,0,0,1,1.36.69h0v-2.69Zm-.81,3.94a1.34,1.34,0,0,0,0-.35,1.22,1.22,0,0,0-1.18-1c-.85,0-1.36.75-1.36,1.74s.45,1.67,1.34,1.67a1.25,1.25,0,0,0,1.2-1,1.87,1.87,0,0,0,0-.35Z"/><path class="cls-16" d="M563.75,135.64v-9.88a30.74,30.74,0,0,0-61.47,0v16.36a30.7,30.7,0,0,0,52.44,21.7,31.08,31.08,0,0,0,5-6.54h-8.1A24,24,0,0,1,509,142.12V125.76a24,24,0,1,1,48,0v9.88Z"/><rect class="cls-16" x="490.61" y="142.69" width="84.81" height="69.89" rx="21.74"/><circle class="cls-5" cx="533.01" cy="172.56" r="9.47"/><polygon class="cls-5" points="536.66 194.05 529.36 194.05 532.11 170 533.91 170 536.66 194.05"/><path class="cls-5" d="M499.6,171h0a4.44,4.44,0,0,1,4.43,4.42v24.12A4.44,4.44,0,0,1,499.6,204h0a4.44,4.44,0,0,1-4.43-4.42V175.44A4.44,4.44,0,0,1,499.6,171Z"/><rect class="cls-5" x="495.17" y="153.82" width="8.85" height="13.29" rx="2.75" transform="translate(999.2 320.93) rotate(180)"/><ellipse class="cls-1" cx="695.93" cy="385.48" rx="48.01" ry="2.92"/><path class="cls-17" d="M737.55,367s4.5,2.88,4.64,4.66-5.33,12.5-6.63,13.25-7.44,1.84-9.35,1.43,4.53-4.76,5-5.65,1.5-7.62,1.5-7.62Z"/><path class="cls-18" d="M688.12,310.07s9.46,25.34,17.44,37.42,27.16,25.62,27.16,25.62,5-1.68,4.83-6.07c0,0-9.52-9.45-11.57-13s-2.56-7.84-9.73-12c0,0-5.2-27.69-8.42-33.76s-3.81-7.19-3.81-7.19Z"/><path class="cls-17" d="M663.76,367.45s-.44,5.58-1.84,6.29c0,0-1.62.34-6.42-2.33,0,0-5.26-.68-7.08-2s-4.23-3.56-3.86-4,7.28,1.6,12.58-.15Z"/><path class="cls-18" d="M710.76,302.7s6.54,11.47-4.63,17.87S676,331.93,676,331.93s-.32,6.92-2.28,11.1-8.49,18.15-9.92,24.42c0,0-4.44-.78-6.73-2.28,0,0,9.47-36.57,12.86-40.22s23.64-16.71,23.64-16.71Z"/><path class="cls-19" d="M714.31,235.87s-4.3-3.88-3.72-6c0,0,.58-.85,3,1.43,0,0-1-6.4,3.13-5.76s3.26,6.92,2,10.71A9.24,9.24,0,0,1,714.31,235.87Z"/><path class="cls-19" d="M656.44,248.21s0-6.56-1.19-6.65-1.16,2.87-1.16,2.87a52.46,52.46,0,0,1-3-5.43c-.25-1-1.62.42-2.14,1.19s-2,2.8-.34,7.31c0,0,2.15,3.78,4.24,4.08A6,6,0,0,0,656.44,248.21Z"/><path class="cls-5" d="M652.9,251.58l1.62,2,.88,1.06,1.65,2c1.1,1.3,2.28,2.69,3.38,3.95.62.7,1.21,1.36,1.74,1.93a20.3,20.3,0,0,0,2.07,2.07c.21.16.57.41,1,.71.64.41,1.49.94,2.46,1.53,1.42.87,3.08,1.87,4.71,2.83l2.5,1.48,2.07,1.22h0l2.57,1.5s0,.33.08.92c.09.91.25,2.45.5,4.42.1.79.21,1.63.33,2.54.2,1.41.44,2.95.71,4.57v.06c.14.81.28,1.63.44,2.47h0c.36,2,.79,4.08,1.28,6.17.19.83.4,1.67.61,2.51.44,1.68.92,3.35,1.44,5q.42,1.27.87,2.49c.45,1.23.94,2.41,1.45,3.53.26.57.54,1.12.81,1.64,0,0,1-.16,2.81-.55l1-.22.66-.16.11,0,.41-.1.31-.08.17,0,.51-.13h0c1.37-.35,2.93-.79,4.62-1.32h0l.88-.28h0l.9-.3h0l.91-.31.05,0,.93-.33h0l1-.35,0,0,1-.37h0l1-.39h0l.45-.18.56-.23h0l1-.43h0q1.57-.67,3.15-1.44l-.11-.48c-.06-.23-.14-.56-.23-1,0-.12-.06-.24-.08-.37-.14-.59-.31-1.31-.5-2.13-.32-1.43-.71-3.16-1.1-5-.17-.81-.34-1.65-.51-2.5h0c-.41-2.06-.81-4.21-1.16-6.31-.14-.86-.27-1.7-.38-2.53-.23-1.6-.41-3.13-.52-4.51-.07-.94-.11-1.81-.11-2.58a9,9,0,0,1,.34-2.81,29.47,29.47,0,0,1,1.21-2.77c.47-1,1-2,1.64-3.12l.18-.34c.41-.74.84-1.5,1.28-2.27.9-1.59,1.84-3.19,2.71-4.68.46-.79.9-1.55,1.3-2.26a34.25,34.25,0,0,0,2.31-4.46c.07-.24.15-.57.23-1,.13-.67.26-1.55.39-2.53.24-1.84.45-4.08.63-6.17.08-.89.15-1.76.22-2.55s.11-1.44.15-2c.09-1.29.15-2.12.15-2.12a19,19,0,0,1-4.35-.28l-.14-.06s-.27.71-.67,1.83c-.19.53-.41,1.15-.64,1.85s-.51,1.57-.77,2.43a50.37,50.37,0,0,0-1.39,5.64,17.4,17.4,0,0,0-.27,2.61,7.78,7.78,0,0,0,.08,1.23s-.81,1.1-2,2.57c-.49.61-1,1.28-1.65,2a38.9,38.9,0,0,1-3.8,3.88,11,11,0,0,1-2.16,1.5l-.43.18c-2.58.9-4.33,2.33-7,3a12.17,12.17,0,0,1-3.4.32s-1.26.08-2.91.14a64.15,64.15,0,0,1-6.64,0,4.57,4.57,0,0,1-.94-.16,14.16,14.16,0,0,1-1.57-.7c-1.38-.67-3.35-1.7-5.14-2.65l-2.28-1.22-2.17-1.17-1.46-1.31-1.91-1.71-4.1-3.68-1.91-1.71-.93-.83-1.86-1.67v0a7.7,7.7,0,0,1-3.5,3.34h0Z"/><path class="cls-19" d="M685.24,261.79a4.37,4.37,0,0,1,1.35,1.56,16.43,16.43,0,0,1,1.47,4,5.89,5.89,0,0,0,5.63-2.59l-.47-4.1-.45-5.57-6.74.21-.78,6.41Z"/><path class="cls-1" d="M685.24,261.79a4.37,4.37,0,0,1,1.35,1.56,7,7,0,0,0,3.86-2.92l-5.2,1.3Z"/><path class="cls-19" d="M688,247.91c-2.58,0-4.9.43-5.69,2.53s-1,10.06,1.74,12.7c0,0,9.06-.32,8.37-9.17S688,247.91,688,247.91Z"/><path class="cls-17" d="M691.39,256.13a3.31,3.31,0,0,1-1.38-2.32c0-1.34.62-3.38-1.59-3.48s-2.17,1-4.73.62-2.72-2.35-2.24-2.86,7.21-4.32,12.15-1,3.59,11.42-.38,13.59Z"/><path class="cls-19" d="M690.26,255.88s1.88-2.91,3-.75-3,4-3,4Z"/><path class="cls-3" d="M712.23,242a28.66,28.66,0,0,0,6,.93c.08-.89.15-1.76.22-2.55a27.14,27.14,0,0,1-5.5-.81C712.75,240.29,712.49,241.12,712.23,242Z"/><path class="cls-3" d="M710.57,250.23a28.44,28.44,0,0,0,6.69,1.38c.13-.67.26-1.55.39-2.53a26.66,26.66,0,0,1-6.81-1.46A17.4,17.4,0,0,0,710.57,250.23Z"/><path class="cls-3" d="M707,256a25.34,25.34,0,0,0,6.42,3.3c.46-.79.9-1.55,1.3-2.26a23.49,23.49,0,0,1-6.07-3C708.16,254.64,707.6,255.31,707,256Z"/><path class="cls-3" d="M701,261.38a23.86,23.86,0,0,0,8.39,4.87c.41-.74.84-1.5,1.28-2.27a22.28,22.28,0,0,1-7.51-4.1A11,11,0,0,1,701,261.38Z"/><path class="cls-3" d="M655.4,254.6l1.65,2a21.54,21.54,0,0,0,4.09-4.14l-1.91-1.71A18.46,18.46,0,0,1,655.4,254.6Z"/><path class="cls-3" d="M660.43,260.51c.62.7,1.21,1.36,1.74,1.93a19.39,19.39,0,0,0,5-4.63l-1.91-1.71A16.69,16.69,0,0,1,660.43,260.51Z"/><path class="cls-3" d="M665.28,265.22c.64.41,1.49.94,2.46,1.53a20.57,20.57,0,0,0,5.32-5.24l-2.28-1.22A16.12,16.12,0,0,1,665.28,265.22Z"/><path class="cls-3" d="M672.45,269.58l2.5,1.48a22,22,0,0,0,5.76-6,4.57,4.57,0,0,1-.94-.16,14.16,14.16,0,0,1-1.57-.7A17.13,17.13,0,0,1,672.45,269.58Z"/><path class="cls-3" d="M680.17,279.12c.1.79.21,1.63.33,2.54,8.83-.8,19.11-2.56,25.67-3.79-.07-.94-.11-1.81-.11-2.58C699.54,276.51,689,278.32,680.17,279.12Z"/><path class="cls-3" d="M681.21,286.23v.06c.14.81.28,1.63.44,2.47,9-.88,19.2-2.67,25.41-3.85-.14-.86-.27-1.7-.38-2.53C700.47,283.55,690.13,285.36,681.21,286.23Z"/><path class="cls-3" d="M682.94,294.93c.19.83.4,1.67.61,2.51,8.66-.8,18.66-2.5,25.19-3.72-.17-.81-.34-1.65-.51-2.5C701.64,292.44,691.5,294.16,682.94,294.93Z"/><path class="cls-3" d="M685,302.41q.42,1.27.87,2.49c4.81-.46,10-1.18,14.81-1.95l4-.66c2.09-.36,4-.71,5.75-1,0-.12-.06-.24-.08-.37-.14-.59-.31-1.31-.5-2.13C703.28,300,693.39,301.65,685,302.41Z"/><path class="cls-3" d="M677,272.28l2.57,1.5s0,.33.08.92a145.46,145.46,0,0,0,27.94-5c.47-1,1-2,1.64-3.12C706.34,267.47,691.4,271.79,677,272.28Z"/><path class="cls-20" d="M696.63,251.78s-8.47,2.61-14.8,1.37a11.11,11.11,0,0,0,0,3.71,38.67,38.67,0,0,0,15-4,2.49,2.49,0,0,0,0-.53A2.45,2.45,0,0,0,696.63,251.78Z"/><path class="cls-19" d="M688.11,254.64a3.56,3.56,0,0,0-3.46.45A3.75,3.75,0,0,0,688.11,254.64Z"/><path class="cls-19" d="M683.69,255.06a1.28,1.28,0,0,0-1.87-.16,1.52,1.52,0,0,0,.71.41A1.5,1.5,0,0,0,683.69,255.06Z"/><path class="cls-21" d="M379.28,223.09s3.22,5-3.62,7.51c0,0-.11.15-.33.4-1.88,2.28-11.19,13.55-12.21,14.25-.45.32-2,2-3.91,3.92-1.17-3.6-3-5.19-4.18-5.86a33.36,33.36,0,0,0,3-2.73c1.61-2,12.64-9.61,14.7-11.69a1.36,1.36,0,0,0,.33-.43c.29-1.07-.39-3.71,2-5s6.35-5.56,6.93-5.17S379.28,223.09,379.28,223.09Z"/><path class="cls-5" d="M359.21,249.17l-.68.7-1.83,1.9a57,57,0,0,1-5,4.8c-2.44,1.76-6,.39-7.29-1.76-.76-1.25,3-4.81,6.73-8.12l2.06-1.78,1.87-1.6C356.2,244,358,245.57,359.21,249.17Z"/><path class="cls-5" d="M375.33,231c-.41.51-1.19,1.45-2.17,2.63l-1.65,2c-1.06,1.27-2.22,2.66-3.34,4-.58.69-1.16,1.37-1.7,2-1.2,1.4-2.22,2.56-2.83,3.19a4.6,4.6,0,0,1-.52.49,14.24,14.24,0,0,0-1.37,1.29c-.69.7-1.58,1.62-2.54,2.63-1.17-3.6-3-5.19-4.18-5.86.61-.52,1.16-1,1.62-1.41a15.83,15.83,0,0,0,1.35-1.32,5.07,5.07,0,0,1,.53-.56c.69-.65,1.82-1.56,3.15-2.59.69-.54,1.44-1.1,2.2-1.68l4-3h0l2.2-1.68a32.33,32.33,0,0,0,2.66-2.21A7.09,7.09,0,0,1,375.33,231Z"/><ellipse class="cls-1" cx="334.01" cy="386.28" rx="31.43" ry="2.92"/><path class="cls-17" d="M307.5,369s-3.76,2.59-3.21,4.4,7,9.51,8.84,10.52,5.41,1.84,6.37,1.29-5.13-5.71-7.3-13.41Z"/><path class="cls-18" d="M332.1,296.63s-3.44,9.4-4,14.28-3.8,23.55-3.8,23.55-6.33,5.39-7.23,9.91-6.33,19.54-9.59,24.6c0,0,2.72,3.25,4.7,2.8,0,0,19.54-31.54,21.35-34.72s14.34-38.36,14.34-38.36Z"/><path class="cls-17" d="M341.45,378.78s-1.52,5.44-.47,7.24c0,0,3.91-.37,5.52.44s13.33,2,14.75.74c0,0-.49-1.18-3.22-1.8s-9.1-5-9.54-6.62Z"/><path class="cls-18" d="M355.16,298.91s-2.1,33.62-2.53,42.64-4.14,37.23-4.14,37.23a14.27,14.27,0,0,1-7,0s1-15.49,0-18.21-1.73-15.32.86-19.52c0,0-10.65-33.34-6.08-43.78Z"/><polygon class="cls-21" points="349.71 244.95 349.17 247.08 348.64 249.18 348.03 251.59 340.9 250.59 341.24 247.17 341.78 243.79 349.71 244.95"/><path class="cls-5" d="M356.69,283.5c0,.88-.07,1.73-.12,2.56-.12,2.15-.29,4.13-.47,5.85-.09.93-.19,1.79-.29,2.56-.34,2.78-.65,4.45-.65,4.45s-12.15,1-23.06-2.29c0,0,.11-1.55.25-3.92,0-.78.1-1.66.15-2.59.09-1.75.19-3.71.27-5.73,0-.86.06-1.73.08-2.6.06-2,.1-4,.09-5.76,0-.94,0-1.82-.05-2.63s-.09-1.73-.17-2.42a22.94,22.94,0,0,1-.08-3.4c0-.82.11-1.68.22-2.58a36.93,36.93,0,0,1,1-5.06c.23-.84.49-1.68.79-2.48a18.2,18.2,0,0,1,2.07-4.14,8.83,8.83,0,0,1,2.24-2.31,5.31,5.31,0,0,1,4-.88,14.61,14.61,0,0,1,5.27,1.61,11.36,11.36,0,0,1,3.09,2.66,17.13,17.13,0,0,1,2.6,4.51,26.93,26.93,0,0,1,.88,2.55,39.93,39.93,0,0,1,1.11,5.27s0,.07,0,.11c.12.81.22,1.63.31,2.44.21,2,.35,3.91.43,5.83,0,.86.06,1.71.08,2.55C356.78,279.68,356.76,281.64,356.69,283.5Z"/><path class="cls-1" d="M349.17,247.08l-.53,2.1c-1-.43-3.45-1.6-3.54-3Z"/><path class="cls-3" d="M373.16,233.63l-1.65,2a14.5,14.5,0,0,0-3.67-2.83l2.2-1.68A17.16,17.16,0,0,1,373.16,233.63Z"/><path class="cls-3" d="M368.17,239.58c-.58.69-1.16,1.37-1.7,2a13.79,13.79,0,0,0-4.79-4.14c.69-.54,1.44-1.1,2.2-1.68A15.92,15.92,0,0,1,368.17,239.58Z"/><path class="cls-3" d="M363.64,244.76a4.6,4.6,0,0,1-.52.49,14.24,14.24,0,0,0-1.37,1.29,13.53,13.53,0,0,0-5.1-4.64,15.83,15.83,0,0,0,1.35-1.32,5.07,5.07,0,0,1,.53-.56A16.19,16.19,0,0,1,363.64,244.76Z"/><path class="cls-3" d="M358.53,249.87l-1.83,1.9a13.76,13.76,0,0,0-5.6-5.08l2.06-1.78A16,16,0,0,1,358.53,249.87Z"/><path class="cls-21" d="M344.32,232.94c3.87-.75,5.29.21,6.27,2.26s2.61,11.55,1.83,12.75-9.37.49-10.64-4.16S339.25,233.93,344.32,232.94Z"/><path class="cls-17" d="M346.64,240.25a9.58,9.58,0,0,0,.63-5.43s3.89.16,3.35-4.22c0,0-6.32.87-9.79.33s-5.87,6.49-2.57,11,3,5.2,3,5.2S346.71,247.14,346.64,240.25Z"/><path class="cls-21" d="M347.73,239.49s-1.32-2.15-2.52-.87.82,3.63,2.52,3.68Z"/><path class="cls-3" d="M356.1,291.91c-.09.93-.19,1.79-.29,2.56l-2.66,0a115.23,115.23,0,0,1-20.8-1.79c0-.78.1-1.66.15-2.59l1.12.2A117.85,117.85,0,0,0,356.1,291.91Z"/><path class="cls-3" d="M356.69,283.5c0,.88-.07,1.73-.12,2.56-1.17,0-2.31,0-3.43,0a115.27,115.27,0,0,1-20.37-1.71c0-.86.06-1.73.08-2.6A116.94,116.94,0,0,0,356.69,283.5Z"/><path class="cls-3" d="M356.75,277.66c-1.23,0-2.44,0-3.61,0a116.38,116.38,0,0,1-20.2-1.68c0-.94,0-1.82-.05-2.63a117.13,117.13,0,0,0,23.78,1.71C356.71,276,356.73,276.82,356.75,277.66Z"/><path class="cls-3" d="M356.24,269.28c-1.06,0-2.09,0-3.1,0a114.93,114.93,0,0,1-20.5-1.74c0-.82.11-1.68.22-2.58a116.13,116.13,0,0,0,23.06,1.73s0,.07,0,.11C356.05,267.65,356.15,268.47,356.24,269.28Z"/><path class="cls-3" d="M354.81,261.46h-1.67a117.07,117.07,0,0,1-19.31-1.53c.23-.84.49-1.68.79-2.48a118,118,0,0,0,19.31,1.45A26.93,26.93,0,0,1,354.81,261.46Z"/><path class="cls-3" d="M351.33,254.4a118.79,118.79,0,0,1-14.64-1.08,8.83,8.83,0,0,1,2.24-2.31c2.73.33,5.84.6,9.31.73A11.36,11.36,0,0,1,351.33,254.4Z"/><path class="cls-21" d="M353.94,296.49c-.07,1.95-2,5.51-2.89,5.58s-4.7-2.22-2.85-7.72l-.95-.92a10.81,10.81,0,0,0,3.4-2.79h0C352.33,291.46,354,294.55,353.94,296.49Z"/><path class="cls-22" d="M350.65,290.64a10.81,10.81,0,0,1-3.4,2.79c-.83-.8-2.12-2.07-3.57-3.55-.58-.59-1.19-1.23-1.8-1.88a58.62,58.62,0,0,1-5.9-7.08,6.78,6.78,0,0,1-1.16-2.49,1.28,1.28,0,0,1,0-.19,18.93,18.93,0,0,1,1.42-5.62c.34-.92.73-1.88,1.14-2.85.34-.78.69-1.58,1.05-2.36,1.08-2.33,2.22-4.56,3.17-6.22a.64.64,0,0,1,.08-.14c.47-.84.9-1.59,1.3-2.25,1.77-2.89,3-3.93,5.6-2.25,2.24,1.48,2.26,4,1.42,6.51a18.53,18.53,0,0,1-1,2.36l-.42.8c-.63,1.15-1.52,2.64-2.43,4.11-.49.8-1,1.59-1.44,2.32-1.24,2-2.24,3.5-2.24,3.5l.32.67c.26.53.65,1.34,1.14,2.31.76,1.53,1.75,3.48,2.74,5.33.43.79.85,1.56,1.26,2.28C349.08,288.77,350.11,290.35,350.65,290.64Z"/><path class="cls-3" d="M347.92,286.74a43.64,43.64,0,0,1-4.24,3.14c-.58-.59-1.19-1.23-1.8-1.88a43.09,43.09,0,0,0,4.78-3.54C347.09,285.25,347.51,286,347.92,286.74Z"/><path class="cls-3" d="M343.92,279.13a30,30,0,0,1-7.94,1.79,6.78,6.78,0,0,1-1.16-2.49,27.15,27.15,0,0,0,8-1.61C343,277.35,343.43,278.16,343.92,279.13Z"/><path class="cls-3" d="M350,263.06a18.53,18.53,0,0,1-1,2.36,36,36,0,0,1-7.32-4.37c.47-.84.9-1.59,1.3-2.25A33.84,33.84,0,0,0,350,263.06Z"/><path class="cls-3" d="M346.14,270.33c-.49.8-1,1.59-1.44,2.32a26.91,26.91,0,0,1-7.33-2.88c.34-.78.69-1.58,1.05-2.36A24.78,24.78,0,0,0,346.14,270.33Z"/><path class="cls-3" d="M336.83,238.55s10.09-1.44,14.17-2.23a11.61,11.61,0,0,1,.89,3.93s-9.41.31-14.81-.69Z"/><path class="cls-21" d="M348.16,238.47a2.4,2.4,0,0,1,2.94-.36A2.55,2.55,0,0,1,348.16,238.47Z"/><ellipse class="cls-1" cx="151.02" cy="376.92" rx="31.01" ry="3.44"/><path class="cls-17" d="M157.41,372.09s5.28,1.51,8.39-1c0,0,4.79,5,9.92,5.4,0,0,.89,1,0,1.14s-11,.57-12.86-.82c0,0-3,1.24-5.45-.26C156.08,375.77,157.41,372.09,157.41,372.09Z"/><path class="cls-17" d="M142.21,371.81s-5.15,1.47-8.18-.94c0,0-4.66,4.89-9.66,5.26,0,0-.87.93,0,1.11s10.68.56,12.53-.8c0,0,2.95,1.22,5.31-.25C143.5,375.39,142.21,371.81,142.21,371.81Z"/><path class="cls-18" d="M136.35,301.72l-2.86,69.52s5.73,2.68,8.74.61l1.88-29.17,6-26.51,10.05,26-2.86,30s7.11,1.5,9.21-1l3.39-30.89a6.93,6.93,0,0,0-.15-2.4l-8-33.63S143.54,307.28,136.35,301.72Z"/><path class="cls-21" d="M151.35,252.83a5,5,0,0,0,3.06-1.15l-.32,8.34-8.89,2-.1-6.26v-5.52A8.16,8.16,0,0,0,151.35,252.83Z"/><path class="cls-23" d="M154.67,245.1l-.23,5.78a4.12,4.12,0,0,1-3.29,1.49c-3.31,0-5.22-2.19-6.33-4.78l-.3-2.86Z"/><path class="cls-21" d="M154.44,250.88a4.12,4.12,0,0,1-3.29,1.49c-3.31,0-5.22-2.19-6.33-4.78a23.3,23.3,0,0,1-1.5-8.3l1.37-1.29,2.54-2.42,8.47-1a46.79,46.79,0,0,1,.77,7.76C156.49,245.53,156.06,249,154.44,250.88Z"/><path class="cls-24" d="M154.44,250.88l0,.8a5,5,0,0,1-3.06,1.15,8.16,8.16,0,0,1-6.25-2.61l-.28-2.63c1.11,2.59,3,4.78,6.33,4.78A4.12,4.12,0,0,0,154.44,250.88Z"/><path class="cls-21" d="M154.44,250.88a4.12,4.12,0,0,1-3.29,1.49c-3.31,0-5.22-2.19-6.33-4.78a23.3,23.3,0,0,1-1.5-8.3l1.37-1.29,11.78,4.3C156.49,245.53,156.06,249,154.44,250.88Z"/><path class="cls-17" d="M144.85,238s10,2.77,14-4.14c0,0-6.52-2.73-10.13-2.73s-5.68,3.89-5.68,3.89-4.95,3,1.89,13.41Z"/><path class="cls-21" d="M145.24,241.6c.71,1,.79,2.19.16,2.63s-1.71,0-2.42-1-.79-2.19-.16-2.63S144.52,240.59,145.24,241.6Z"/><path class="cls-5" d="M161.74,258.35v45.86c-11.44,4.37-25.39,0-25.39,0V258.12l7.25-2,1.5-.37,2.16,1.38a4.47,4.47,0,0,0,5.12-.21l1.88-1.43,1.64.72Z"/><path class="cls-21" d="M196.09,264.4s.72,4.35-1.57,6.64a10.37,10.37,0,0,1-3.44.86L189.66,273a13.47,13.47,0,0,1-2.41-4.48s1.73-7.25,6.7-5.45c0,0,6.63-4.48,7.25-3.87S196.09,264.4,196.09,264.4Z"/><path class="cls-5" d="M189.66,273,185,276.66l-2,1.57-3.56,2.8-1.2.94-.83.65-.38.3-3.74,2.93s-1.29.92-2.21,0c-.54-.54-3.68-4.94-6.18-8.47-.49-.7-1-1.35-1.37-1.95l-1.8-2.56V258.35a1.48,1.48,0,0,1,.31.26,16.39,16.39,0,0,1,1.81,2.19c.69,1,1.57,2.27,2.66,4.06.22.36.43.72.65,1.07l1.35,2.2c.72,1.17,1.42,2.29,2,3.3.45.72.86,1.39,1.24,2,1.1,1.77,1.82,2.9,1.82,2.9l.74-.42.06,0h0l.95-.54,1.09-.62,3.93-2.25,2-1.17,4.8-2.73A13.47,13.47,0,0,0,189.66,273Z"/><path class="cls-3" d="M161.74,273.72v2.34c-5.14.34-10.06.48-14.54.48-4,0-7.68-.11-10.85-.26V274A224,224,0,0,0,161.74,273.72Z"/><path class="cls-3" d="M161.74,281.38v2.34c-5.49.4-10.75.55-15.51.55-3.62,0-6.94-.08-9.88-.21v-2.33A220.09,220.09,0,0,0,161.74,281.38Z"/><path class="cls-3" d="M161.74,289v2.33c-5.46.4-10.67.55-15.41.55-3.65,0-7-.09-10-.22v-2.33A221.91,221.91,0,0,0,161.74,289Z"/><path class="cls-3" d="M161.74,297.19v2.34c-5.61.42-11,.57-15.84.57-3.48,0-6.7-.07-9.55-.19v-2.33A221,221,0,0,0,161.74,297.19Z"/><path class="cls-5" d="M136.35,258.12v13.49a48.11,48.11,0,0,0-5.7,5.18c-.6.65-1.18,1.32-1.71,2a11.87,11.87,0,0,0-2.26,4.28,4.55,4.55,0,0,0-.12.69c0,.09,0,.19,0,.28a5.37,5.37,0,0,0,.39,2,8.34,8.34,0,0,0,.36.83,19,19,0,0,0,2.52,3.74c.54.65,1.11,1.28,1.69,1.89a57.9,57.9,0,0,0,4.85,4.51,5.64,5.64,0,0,0-3.4,4.23h0a84,84,0,0,1-7.85-7.06c-.64-.66-1.27-1.35-1.87-2-.45-.52-.88-1.06-1.29-1.59l-.08-.1a14.64,14.64,0,0,1-2.51-4.85,1.82,1.82,0,0,0-.07-.25,12.41,12.41,0,0,1-.36-2.17,9.13,9.13,0,0,1,.48-3.86,32.38,32.38,0,0,1,1.82-3.63c.39-.67.8-1.33,1.23-2a61.17,61.17,0,0,1,3.88-5.24c.61-.75,1.24-1.48,1.86-2.18,1.8-2,3.55-3.85,5-5.23,1-.95,1.77-1.7,2.33-2.21h0C136,258.39,136.35,258.12,136.35,258.12Z"/><path class="cls-21" d="M139.73,306.15c-2.91.58-5.36-3.76-5.36-3.76s-.54-.39-1.42-1.09a5.64,5.64,0,0,1,3.4-4.23c.4.34.64.52.64.52l3.72,1.78C144.42,301.13,142.65,305.57,139.73,306.15Z"/><path class="cls-3" d="M163.86,260.8l-2.12.17c-5.37.38-10.51.52-15.18.52-3.75,0-7.19-.09-10.21-.22l-3.2-.16c1-.95,1.77-1.7,2.33-2.21h0l.87,0a221.17,221.17,0,0,0,25.39-.3l.31,0A16.39,16.39,0,0,1,163.86,260.8Z"/><path class="cls-3" d="M168.52,268.13q-3.44.39-6.78.63c-5.65.43-11.06.58-16,.58-3.43,0-6.61-.07-9.44-.19-4.23-.17-7.68-.42-10-.63.61-.75,1.24-1.48,1.86-2.18,2.15.17,4.92.35,8.16.48a218.94,218.94,0,0,0,25.39-.4c1.79-.13,3.6-.3,5.43-.49Z"/><path class="cls-3" d="M130.65,276.79c-.6.65-1.18,1.32-1.71,2a27.6,27.6,0,0,1-7.72-3.06c.39-.67.8-1.33,1.23-2A26.52,26.52,0,0,0,130.65,276.79Z"/><path class="cls-3" d="M126.93,286.1h-1a57,57,0,0,1-6.63-.45,1.82,1.82,0,0,0-.07-.25,12.41,12.41,0,0,1-.36-2.17,53,53,0,0,0,7.64.54c0,.09,0,.19,0,.28A5.37,5.37,0,0,0,126.93,286.1Z"/><path class="cls-3" d="M131.5,292.56a43.76,43.76,0,0,1-6.4,1.68c-.64-.66-1.27-1.35-1.87-2a49.41,49.41,0,0,0,6.58-1.53C130.35,291.32,130.92,292,131.5,292.56Z"/><path class="cls-3" d="M171.81,273.41a50.49,50.49,0,0,1-6.9,4c-.49-.7-1-1.35-1.37-1.95a47.12,47.12,0,0,0,7-4C171,272.15,171.43,272.82,171.81,273.41Z"/><path class="cls-3" d="M179.45,281l-1.2.94-.83.65a17.33,17.33,0,0,0-3-6.77l.95-.54,1.09-.62A19.88,19.88,0,0,1,179.45,281Z"/><path class="cls-3" d="M185,276.66l-2,1.57a17.42,17.42,0,0,0-2.6-5.79l2-1.17A20,20,0,0,1,185,276.66Z"/><path class="cls-3" d="M141.52,241.06s9.71-2.14,14.95-1.24a13.61,13.61,0,0,1,0,3.64,23.24,23.24,0,0,1-14.65-1A2.54,2.54,0,0,1,141.52,241.06Z"/><path class="cls-21" d="M146.49,241.85a4.83,4.83,0,0,1,4.09-.12A3.7,3.7,0,0,1,146.49,241.85Z"/><path class="cls-21" d="M152.67,241.77a4.09,4.09,0,0,1,3.49-.1A3.15,3.15,0,0,1,152.67,241.77Z"/></svg>