<svg id="Layer_1" data-name="Layer 1" xmlns="http://www.w3.org/2000/svg" xmlns:xlink="http://www.w3.org/1999/xlink" viewBox="0 0 603.5 491.58"><defs><style>.cls-1,.cls-28,.cls-33{fill:none;}.cls-1,.cls-2{clip-rule:evenodd;}.cls-2,.cls-24{fill:#3655b5;}.cls-3{fill:url(#linear-gradient);}.cls-25,.cls-4{fill:#a1a7ff;}.cls-10,.cls-11,.cls-13,.cls-14,.cls-15,.cls-16,.cls-17,.cls-19,.cls-23,.cls-24,.cls-25,.cls-26,.cls-33,.cls-34,.cls-35,.cls-5,.cls-7,.cls-8,.cls-9{fill-rule:evenodd;}.cls-5{fill:url(#linear-gradient-2);}.cls-6{fill:url(#linear-gradient-3);}.cls-7{fill:url(#linear-gradient-4);}.cls-8{fill:#6a9dd8;}.cls-9{fill:#f974a6;}.cls-10{fill:#f4b1b1;}.cls-11,.cls-18{fill:#ff4971;}.cls-12{fill:#15378b;}.cls-13{fill:#000446;}.cls-15,.cls-32{fill:#ffc043;}.cls-16{fill:#ffb91f;}.cls-17{fill:#e98385;}.cls-19{fill:#e50013;}.cls-20{clip-path:url(#clip-path);}.cls-21{fill:url(#linear-gradient-5);}.cls-22{clip-path:url(#clip-path-2);}.cls-23{fill:#b9e4ff;}.cls-26{fill:#092978;}.cls-27{clip-path:url(#clip-path-3);}.cls-29{clip-path:url(#clip-path-4);}.cls-30,.cls-34{fill:#fff;}.cls-31{clip-path:url(#clip-path-5);}.cls-33{stroke:#39383b;stroke-miterlimit:10;stroke-width:0.5px;stroke-dasharray:3 3;}.cls-35{fill:#1e2187;}</style><linearGradient id="linear-gradient" x1="35" y1="367.53" x2="215.28" y2="367.53" gradientUnits="userSpaceOnUse"><stop offset="0" stop-color="#c2ceff"/><stop offset="1" stop-color="#95aaff"/></linearGradient><linearGradient id="linear-gradient-2" x1="0" y1="410.6" x2="155.21" y2="410.6" xlink:href="#linear-gradient"/><linearGradient id="linear-gradient-3" x1="330.9" y1="334.11" x2="559.17" y2="334.11" xlink:href="#linear-gradient"/><linearGradient id="linear-gradient-4" x1="411.41" y1="388.65" x2="603.5" y2="388.65" xlink:href="#linear-gradient"/><clipPath id="clip-path"><path class="cls-1" d="M426.18,0H224.34A33.92,33.92,0,0,0,190.7,34v422.1a33.92,33.92,0,0,0,33.64,34H426.18a33.92,33.92,0,0,0,33.64-34V34A33.92,33.92,0,0,0,426.18,0"/></clipPath><linearGradient id="linear-gradient-5" x1="190.7" y1="245.04" x2="459.82" y2="245.04" xlink:href="#linear-gradient"/><clipPath id="clip-path-2"><path class="cls-1" d="M433.78,36.76h-217a13.39,13.39,0,0,0-13.35,13.35V406.86a13.39,13.39,0,0,0,13.35,13.35h217a13.39,13.39,0,0,0,13.35-13.35V50.11a13.39,13.39,0,0,0-13.35-13.35"/></clipPath><clipPath id="clip-path-3"><path class="cls-2" d="M389.4,141.34a86.89,86.89,0,1,0,25.45,61.44,86.63,86.63,0,0,0-25.45-61.44M328,104.91a97.87,97.87,0,1,1-69.21,28.67A97.59,97.59,0,0,1,328,104.91Z"/></clipPath><clipPath id="clip-path-4"><path class="cls-1" d="M324.28,132.6h7.27a8.63,8.63,0,0,1,8.6,8.6v56.61a8.63,8.63,0,0,1-8.6,8.6h-7.27a8.63,8.63,0,0,1-8.6-8.6V141.2a8.63,8.63,0,0,1,8.6-8.6m40.11,44.13V209.6c0,4.42-2.35,8.44-6.12,11.36l0,0a24.18,24.18,0,0,1-14.72,4.73h-9.88a11,11,0,0,1,.12,1.65V257.6h9.49a6.67,6.67,0,0,1,6.65,6.65v6.66H305.58v-6.66a6.66,6.66,0,0,1,6.64-6.65h9.5V227.36a11,11,0,0,1,.12-1.65H312A24.22,24.22,0,0,1,297.21,221c-3.78-2.91-6.12-6.94-6.12-11.38V174c0-3.22,3.41-5.86,7.59-5.86s7.59,2.64,7.59,5.86v35.6a4,4,0,0,0,1.68,3.1,6.62,6.62,0,0,0,4,1.29h31.57a6.68,6.68,0,0,0,4-1.27l0,0a4,4,0,0,0,1.65-3.1V174c0-3.22,3.41-5.86,7.59-5.86s7.59,2.64,7.59,5.86Z"/></clipPath><clipPath id="clip-path-5"><path class="cls-1" d="M240.59,333.88h0a2.18,2.18,0,0,1,2.18,2.17v39a2.18,2.18,0,0,1-2.18,2.17h0a2.18,2.18,0,0,1-2.17-2.17v-39a2.18,2.18,0,0,1,2.17-2.17M232,341.36h0a2.18,2.18,0,0,1,2.17,2.18v24a2.18,2.18,0,0,1-2.17,2.18h0a2.19,2.19,0,0,1-2.18-2.18v-24A2.19,2.19,0,0,1,232,341.36Zm-8.7,5.88h0a2.19,2.19,0,0,1,2.18,2.18v12.23a2.18,2.18,0,1,1-4.35,0V349.42A2.18,2.18,0,0,1,223.28,347.24Zm35.14-13.36h0a2.18,2.18,0,0,0-2.17,2.17v39a2.18,2.18,0,0,0,4.35,0v-39A2.18,2.18,0,0,0,258.42,333.88Zm8.62,7.48h0a2.18,2.18,0,0,0-2.17,2.18v24a2.18,2.18,0,0,0,2.17,2.18h0a2.18,2.18,0,0,0,2.17-2.18v-24A2.18,2.18,0,0,0,267,341.36Zm8.7,5.88h0a2.19,2.19,0,0,0-2.18,2.18v12.23a2.18,2.18,0,1,0,4.35,0V349.42A2.18,2.18,0,0,0,275.74,347.24Zm26.08-24.8h0a2.18,2.18,0,0,1,2.17,2.18v61.83a2.17,2.17,0,1,1-4.34,0V324.62A2.18,2.18,0,0,1,301.82,322.44ZM293,333.88h0a2.18,2.18,0,0,1,2.18,2.17v39a2.18,2.18,0,0,1-2.18,2.17h0a2.18,2.18,0,0,1-2.17-2.17v-39A2.18,2.18,0,0,1,293,333.88Zm-8.61,7.48h0a2.18,2.18,0,0,1,2.17,2.18v24a2.18,2.18,0,0,1-2.17,2.18h0a2.18,2.18,0,0,1-2.17-2.18v-24A2.18,2.18,0,0,1,284.43,341.36Zm26.45-7.48h0a2.18,2.18,0,0,0-2.18,2.17v39a2.18,2.18,0,0,0,4.35,0v-39A2.18,2.18,0,0,0,310.88,333.88Zm8.61,7.48h0a2.18,2.18,0,0,0-2.17,2.18v24a2.18,2.18,0,1,0,4.35,0v-24A2.19,2.19,0,0,0,319.49,341.36ZM326,361.65v.91a2.18,2.18,0,0,0,2.18,2.17h0a2.17,2.17,0,0,0,2.17-2.17V349.42a2.18,2.18,0,0,0-2.17-2.18h0a2.19,2.19,0,0,0-2.18,2.18v12.23Zm28.26-38.3h0a2.18,2.18,0,0,1,2.18,2.17v61.84a2.18,2.18,0,0,1-2.18,2.17h0a2.18,2.18,0,0,1-2.17-2.17V325.52A2.18,2.18,0,0,1,354.27,323.35Zm-8.77,11.43h0a2.18,2.18,0,0,1,2.17,2.18v39a2.18,2.18,0,0,1-2.17,2.18h0a2.18,2.18,0,0,1-2.17-2.18V337A2.18,2.18,0,0,1,345.5,334.78Zm-8.62,7.49h0a2.18,2.18,0,0,1,2.18,2.17v24a2.18,2.18,0,0,1-2.18,2.17h0a2.18,2.18,0,0,1-2.17-2.17v-24A2.18,2.18,0,0,1,336.88,342.27Zm26.45-7.49h0a2.18,2.18,0,0,0-2.17,2.18v39a2.18,2.18,0,1,0,4.35,0V337A2.19,2.19,0,0,0,363.33,334.78Zm8.62,7.49h0a2.18,2.18,0,0,0-2.18,2.17v24a2.18,2.18,0,0,0,4.35,0v-24A2.18,2.18,0,0,0,372,342.27Zm8.69,5h0a2.18,2.18,0,0,0-2.17,2.18v13.14a2.17,2.17,0,0,0,2.17,2.17h0a2.18,2.18,0,0,0,2.18-2.17V349.42A2.19,2.19,0,0,0,380.64,347.24Zm26.09-23.89h0a2.18,2.18,0,0,1,2.17,2.17v61.84a2.18,2.18,0,0,1-2.17,2.17h0a2.18,2.18,0,0,1-2.18-2.17V325.52A2.18,2.18,0,0,1,406.73,323.35ZM398,334.78h0a2.19,2.19,0,0,1,2.18,2.18v39A2.19,2.19,0,0,1,398,378.1h0a2.18,2.18,0,0,1-2.17-2.18V337A2.18,2.18,0,0,1,398,334.78Zm-8.61,7.49h0a2.18,2.18,0,0,1,2.17,2.17v24a2.18,2.18,0,0,1-4.35,0v-24A2.18,2.18,0,0,1,389.34,342.27Zm26.45-7.49h0a2.19,2.19,0,0,0-2.18,2.18v39a2.18,2.18,0,1,0,4.35,0V337A2.18,2.18,0,0,0,415.79,334.78Zm8.61,7.49h0a2.18,2.18,0,0,0-2.17,2.17v24a2.17,2.17,0,0,0,4.34,0v-24A2.17,2.17,0,0,0,424.4,342.27Zm8.7,5.88h0a2.18,2.18,0,0,0-2.18,2.17v12.24a2.18,2.18,0,0,0,2.18,2.17h0a2.17,2.17,0,0,0,2.17-2.17V350.32A2.18,2.18,0,0,0,433.1,348.15ZM249.37,322.44h0a2.18,2.18,0,0,1,2.17,2.18v61.83a2.18,2.18,0,1,1-4.35,0V324.62A2.19,2.19,0,0,1,249.37,322.44Z"/></clipPath></defs><title>Give a Voice to Your Digital Experience</title><path class="cls-3" d="M186.7,490.07s33-16.3,28.08-41.54-31.7-22.6-28.08-42.52,21.23-51,4.11-73.56-45.59-9.05-49.16-44.08c-2.88-28.23-14.88-48.22-38.14-42.36-21.52,5.43-37.58,23.54-38,66.62-.43,45.87-30.15,33-30.52,66.78-.37,34,24.57,34,34.32,56.87,4.6,10.78-7.4,48.68,28.07,53.79Z"/><path class="cls-4" d="M107.12,264.36s-.08.77-.21,2.28c-.37,4.51-1.13,15.52-1.13,30.85,0,44.87,6.5,126.82,47.6,192.23a2.31,2.31,0,0,1,.18.35h-4.3c-40.72-66.23-47.07-147.74-47.08-192.58,0-20.63,1.36-33.51,1.36-33.57a1.86,1.86,0,0,1,2-1.73,1.94,1.94,0,0,1,1.58,2.17"/><path class="cls-5" d="M155.2,490.07s1.05-31.15-18.4-43.84-39.33-22.55-37.18-43-3.14-44.56-34.32-45c-19.28-.27-12-22.36-31.62-26.76-11.9-2.68-19.75,10.83-21.27,24.08-1.74,15.1,6.13,29.95-2.89,42.24-11.71,15.94-16.47,45.65,8.7,54.11s2.74,34.34,37,38.17h100Z"/><path class="cls-4" d="M31,346.27c.66,19.85,8.76,48.09,22.62,75.05S87.06,474,110.47,489.15a2,2,0,0,1,.74.92H105c-22.55-15.86-41.17-40.81-54.55-66.84-14.08-27.43-22.36-56-23.08-76.81a1.91,1.91,0,0,1,1.74-2A1.86,1.86,0,0,1,31,346.27"/><path class="cls-6" d="M367.08,489.28s-41.76-20.64-35.56-52.61,40.15-28.61,35.56-53.84-26.88-64.54-5.21-93.15,57.73-11.46,62.26-55.81c3.64-35.75,18.84-61.06,48.29-53.64C499.68,187.1,520,210,520.51,264.59c.55,58.09,38.19,41.76,38.66,84.56.47,43.09-31.12,43.09-43.46,72-5.83,13.65,9.37,61.65-35.55,68.12Z"/><path class="cls-4" d="M467.85,203.47s.11,1,.26,2.88c.48,5.72,1.44,19.65,1.44,39.07,0,56.81-8.24,160.59-60.28,243.42a2.58,2.58,0,0,0-.22.44h5.45c51.56-83.86,59.59-187.08,59.61-243.86,0-26.13-1.72-42.44-1.73-42.52a2.34,2.34,0,0,0-2.52-2.18,2.45,2.45,0,0,0-2,2.75"/><path class="cls-7" d="M412.2,489.28s-6.56-39.45,18.08-55.51,49.8-28.56,47.06-54.44,4-56.43,43.47-57c24.41-.35,15.24-28.31,40-33.88,15.07-3.39,25,13.7,26.93,30.49,2.2,19.12-7.76,37.92,3.66,53.49,14.83,20.18,20.85,57.8-11,68.51s-3.47,43.49-46.86,48.34H412.2Z"/><path class="cls-4" d="M564.25,307.19c-.83,25.13-11.09,60.9-28.64,95s-42.36,66.72-72,85.9a2.35,2.35,0,0,0-.94,1.17h7.83c28.56-20.09,52.14-51.69,69.08-84.65,17.82-34.73,28.3-70.92,29.22-97.26a2.42,2.42,0,0,0-2.2-2.57,2.38,2.38,0,0,0-2.36,2.39"/><path class="cls-8" d="M408,5.49,200.09,0a33.91,33.91,0,0,0-33.64,34v422.1a33.92,33.92,0,0,0,33.64,34H401.93a33.92,33.92,0,0,0,33.64-34V34c0-18.7-9-28.5-27.53-28.5"/><path class="cls-9" d="M572.54,270.61c.47,2.94-1.68,7.27-4,9L565,273.17c.48-3.1,2.37-5.59,4.21-6.44Z"/><path class="cls-10" d="M567.38,264.47c-.2-1.29-1.07-6.39-1.92-7.28-.44-.46-.56-.27-.77,0a2.35,2.35,0,0,0-.34,1.32,20.25,20.25,0,0,0,.2,2.31c-2.64-1.63-5.06-5.25-6.93-7.75-.76-1-2-1-1.35.8a61.26,61.26,0,0,0,4,6.27L555,256.8c-.92-.59-1,.63-.55,1.17a58.4,58.4,0,0,0,5.19,4.16l-5-1a.62.62,0,0,0,.06,1c.62.43,5.4,2.32,5.4,2.32l-3.29-.1a.71.71,0,0,0,.48,1c.43.17,1.57.36,2.65.8a11.64,11.64,0,0,1,2.18,1.24,20.39,20.39,0,0,1,2.17,2.16c.61,1.33,1.39,3.39,1.39,3.39a9.85,9.85,0,0,0,3.35-5.69Z"/><path class="cls-9" d="M575.09,271.24c.46,2.92-1.68,7.24-4,9l-3.57-6.44c.48-3.1,2.36-5.58,4.2-6.42Z"/><path class="cls-11" d="M475.52,489.33h37.6a3.48,3.48,0,0,0,3.45-3,3.55,3.55,0,0,0,0-.73l-1.53-19.75a22,22,0,0,0-3.75-1.24,3.8,3.8,0,0,1-2.79-2.53c0-.09,0-.19-.08-.29-.86-3.8-6.34-5-7.35-1.29-.13.48-.25.95-.34,1.4,0,.11-.05.22-.07.33-.17.8-.28,1.53-.37,2.17v0a20.39,20.39,0,0,0-.19,2.69q-.75.94-1.44,1.86l-.7.91c-.49.64-1,1.27-1.45,1.87-.21.28-.43.56-.65.83-.52.65-1,1.27-1.55,1.84-.23.26-.46.52-.7.77-1.94,2-3.9,3.43-6.21,3.75-4.07.56-10.73,1-13.95,7a2.05,2.05,0,0,0-.16.38,2.32,2.32,0,0,0,2.21,3"/><path class="cls-12" d="M475.52,489.33h37.6a3.48,3.48,0,0,0,3.45-3H473.31a2.32,2.32,0,0,0,2.21,3"/><path class="cls-13" d="M558.1,334V357.1c0,25.65-4.53,82-6.17,113.12l-17.22-.34L520.58,357.6l-24.14,3.46-1.19-30.65h0c-.29-105.92,54-81.25,49.23-21.2C544,315.82,560.63,326.7,558.1,334"/><polygon class="cls-13" points="494.91 340.19 526.86 340.19 515.41 470.35 497.26 470.82 494.91 340.19"/><path class="cls-11" d="M528.7,487.48c.31,5.48,19.76,3.6,22.87,1.95a3.77,3.77,0,0,0,1.8-3.35c.15-2.36-.74-5.39-1.5-7.77-1.24-3.86-1.07-3.79-1.94-6.43,0,0,.23-4.3-6.15-5.94s-8.7,9.06-9.79,11.12c-1,1.88-4.87,4.46-5.27,9.1a9.59,9.59,0,0,0,0,1.32"/><path class="cls-12" d="M528.7,487.48c.31,5.48,19.76,3.6,22.87,1.95a3.77,3.77,0,0,0,1.8-3.35,25.37,25.37,0,0,1-11,2.4c-6.59.1-11.35-1.08-13.62-2.32a9.59,9.59,0,0,0,0,1.32"/><polygon class="cls-14" points="520.58 357.6 512.67 469.18 515.31 468.98 523.38 379.8 520.58 357.6"/><path class="cls-15" d="M512,254.41c-5.9,13-9.75,17.08-26.65,19.59-13.71,2.05-39.8-28.78-41.78-33s5.52-15.2,7.94-13.93S482,249.84,484,249.7s8.58-3.17,23.62-12.94c1.42-.91,8.56,11.39,4.4,17.65"/><path class="cls-16" d="M566.79,242.49c5.63,8.39-11,60.41-6.33,103.05-26.33,4.52-53.09,4-68.81-1,0-32.26,1.78-76.58,8.46-100.67,1.57-3.91,4.68-6.69,12.37-8.84,18.73-5.25,46.6-4.06,54.31,7.44"/><path class="cls-16" d="M520,233.44c-10.32,5.27-12.89,49.65-15.7,111.6a130.26,130.26,0,0,0,26.43,0c1.09-60.45,11.21-101.92,15.12-112.21-8.42-.56-15.53-1-25.85.62"/><path class="cls-10" d="M517.83,218a19.59,19.59,0,0,0,7.52,8.9l-.46,5.34-.82.61c-3.27,3-.81,11,2.17,13.88,5.19-.25,16.84-9.58,14.47-13.66l-1.06-1.35.26-7.58c.46,0,3.87-1.64,4.88-1.88s2.56-2,2.8-4-2.9-1.55-2.9-1.55c4.08-4.85,8.59-8.74,3.42-13.71s-17.56-8.51-17.56-8.51l-8.79-2.92c.79,2.68-.34,9.81-2.66,15.12-2.07,4.76-3.42,6.21-1.27,11.32"/><path class="cls-17" d="M536.27,225s-4.78,7.06-8.35,7.49-1.73.05-3-.19l.46-5.34c2.4.56,4.79.53,10.92-2"/><rect class="cls-18" x="532.78" y="298.34" width="35.51" height="51.02" transform="translate(-7.53 634.53) rotate(-59.57)"/><path class="cls-10" d="M542.14,330.07l-5.84,5.82-1.89-1.11a15.48,15.48,0,0,0,1.68,3.33,4,4,0,0,0,2.07.69,14.61,14.61,0,0,0,.88,1.67c.17.13,1.35.69,1.94.41s1.07,1.26,1.07,1.26a8.3,8.3,0,0,0,2,.17c.63-.1.64.93.64.93a6.56,6.56,0,0,0,3.81-2.79c1.14-2.11,3-5.05,3-5.05a69.54,69.54,0,0,0-5.77-4.48,14.25,14.25,0,0,0-3.55-.85"/><path class="cls-15" d="M551.52,256.82c-6.64-14.47,1.57-20.94,9.58-19.68,14.5,3.7,29.26,47.85,25.44,59.32-2.68,7.75-31.49,40.28-35.84,39.12-1-.27-9.91-3.18-7.9-9.08.63-1.86,22.2-32.44,22.78-35.19,1-4.6-11.91-30.36-14.06-34.49"/><path class="cls-15" d="M450.81,228.57c.63,4-3.08,10.39-5.9,11.53-.31-.56-2.2-3-3.45-4.86-2.68-4,3.65-12.38,5.51-10.52Z"/><path class="cls-10" d="M443.11,222.57c-.39-1.82-2.05-9-3.4-10.26-.69-.62-.85-.34-1.16.05a3.4,3.4,0,0,0-.42,1.92,28.18,28.18,0,0,0,.47,3.28c-4.08-2.13-8-7.13-11-10.55-1.21-1.4-3.14-1.25-2,1.24a39.61,39.61,0,0,0,4,5.73l-1.51-1.28c-1.94-1-1.06,2.45-.13,3.66.64.82,1,1.32,1,1.32l-.79-.46c-2,.45.48,3.23,2,4-2-.64-.52,1.86,0,2,.12,0,3.91,3.11,5.08,3.82,2.93,1.75,4.31,4.65,6.39,7.09a13.37,13.37,0,0,0,4.35-8.19Z"/><path class="cls-14" d="M539.27,207.44c2.1,1.87,2.36,4.95,1,10-.4,1.47-1,2.61,1.15,1.19,1-.66,2.68-1.61,3.36-1.2,1.51.89,1.15,3.29.18,4.18-.43.4-1.27,1-1.27,1a6.61,6.61,0,0,0,5.42-1.53c2.55-2.18,9.88-8.76,8.22-17.89-3-16.69-17-12.41-16.75-18.14.08-1.68.87-2.9-.3-3.4-13.23-5.6-25.58,3.16-24.69,12,1.32,12.92,17.62,8.49,23.66,13.84"/><path class="cls-19" d="M549.81,210.48c2.27,2.75,1.62,7.57-1.45,10.77s-7.41,3.55-9.69.8-1.62-7.58,1.46-10.77,7.41-3.56,9.68-.8"/><path class="cls-11" d="M550.66,211.36c2.28,2.76,1.62,7.58-1.45,10.77s-7.41,3.56-9.69.8-1.62-7.57,1.46-10.77a7.57,7.57,0,0,1,6.76-2.54h0l-.48-.8a15.85,15.85,0,0,0,2.62-10.2c-.57-6-2.44-7.7-6.93-11.05l.59-.65c11.64,2,14.29,15.88,6.27,23.56l-.22-.1a5.19,5.19,0,0,1,1.07,1"/><g class="cls-20"><rect class="cls-21" x="190.7" width="269.12" height="490.08"/></g><g class="cls-22"><rect class="cls-4" x="203.39" y="36.76" width="243.74" height="383.45"/></g><path class="cls-23" d="M433.78,36.76h-217a13.39,13.39,0,0,0-13.35,13.35V75.89H447.13V50.11a13.39,13.39,0,0,0-13.35-13.35"/><path class="cls-24" d="M310.75,439.45h29a13.7,13.7,0,1,1,0,27.4h-29a13.7,13.7,0,0,1,0-27.4"/><path class="cls-25" d="M181.08,133.74c-4,0-7.31-2.69-7.31-6V56.54c0-3.29,3.29-6,7.31-6Zm0,57.93c-4,0-7.31-2.69-7.31-6V155.15c0-3.29,3.29-6,7.31-6Z"/><path class="cls-25" d="M295.1,13.17h64.73a3.82,3.82,0,0,1,0,7.63H295.1a3.82,3.82,0,1,1,0-7.63"/><path class="cls-25" d="M274.71,44.9H421.93a9.76,9.76,0,0,1,9.74,9.74h0a9.76,9.76,0,0,1-9.74,9.73H274.71A9.77,9.77,0,0,1,265,54.64h0a9.77,9.77,0,0,1,9.74-9.74"/><path class="cls-25" d="M225.34,44.9h0A9.67,9.67,0,0,1,235,54.54v.19a9.67,9.67,0,0,1-9.64,9.64h0a9.67,9.67,0,0,1-9.65-9.64v-.19a9.67,9.67,0,0,1,9.65-9.64"/><path class="cls-25" d="M249.92,44.9h0a9.67,9.67,0,0,1,9.65,9.64v.19a9.67,9.67,0,0,1-9.65,9.64h0a9.67,9.67,0,0,1-9.65-9.64v-.19a9.67,9.67,0,0,1,9.65-9.64"/><path class="cls-26" d="M323.33,104.91a97.87,97.87,0,1,1-69.21,28.67,97.57,97.57,0,0,1,69.21-28.67"/><path class="cls-4" d="M384.77,141.34a86.89,86.89,0,1,0,25.45,61.44,86.63,86.63,0,0,0-25.45-61.44"/><path class="cls-24" d="M389.4,141.34a86.89,86.89,0,1,0,25.45,61.44,86.63,86.63,0,0,0-25.45-61.44M328,104.91a97.87,97.87,0,1,1-69.21,28.67A97.59,97.59,0,0,1,328,104.91Z"/><g class="cls-27"><rect class="cls-28" x="230.09" y="104.91" width="195.74" height="195.74"/></g><path class="cls-26" d="M320.84,132.6h9a8.63,8.63,0,0,1,8.6,8.6v56.61a8.63,8.63,0,0,1-8.6,8.6h-9a8.63,8.63,0,0,1-8.6-8.6V141.2a8.63,8.63,0,0,1,8.6-8.6m39.69,44.13V209.6c0,4.42-2.35,8.44-6.12,11.36l0,0a24.18,24.18,0,0,1-14.72,4.73h-9.88a11,11,0,0,1,.12,1.65V257.6h9.49a6.67,6.67,0,0,1,6.65,6.65v6.66H301.71v-6.66a6.67,6.67,0,0,1,6.65-6.65h9.5V227.36a11,11,0,0,1,.12-1.65h-9.89A24.2,24.2,0,0,1,293.35,221c-3.78-2.91-6.12-6.94-6.12-11.38V174c0-3.22,3.41-5.86,7.59-5.86s7.59,2.64,7.59,5.86v35.6a4,4,0,0,0,1.67,3.1,6.67,6.67,0,0,0,4,1.29h31.57a6.68,6.68,0,0,0,4-1.27l0,0a4,4,0,0,0,1.64-3.1V174c0-3.22,3.42-5.86,7.6-5.86s7.59,2.64,7.59,5.86Z"/><g class="cls-29"><rect class="cls-30" x="291.09" y="132.6" width="73.3" height="138.3"/></g><g class="cls-31"><rect class="cls-32" x="221.11" y="322.44" width="214.16" height="67.09"/></g><path class="cls-33" d="M446.33,52.77c64.58,0,64.91,87.5,1.68,87.5-26.39,0-47.79-19.59-47.79-43.75s19.72-43.75,46.11-43.75"/><path class="cls-11" d="M454,52.77c64.57,0,64.91,87.5,1.68,87.5-26.4,0-47.8-19.59-47.8-43.75S427.56,52.77,454,52.77"/><polygon class="cls-34" points="442.82 78.98 477.01 96.08 442.82 113.17 442.82 78.98"/><path class="cls-24" d="M154,489.79H116.81a3.45,3.45,0,0,1-3.41-3,3.55,3.55,0,0,1,0-.73l1.51-19.68a21.82,21.82,0,0,1,3.72-1.24,3.77,3.77,0,0,0,2.75-2.52,2.45,2.45,0,0,0,.08-.29c.85-3.78,6.28-5,7.28-1.29.13.48.24,1,.34,1.39,0,.11.05.23.07.33.16.8.27,1.53.36,2.17v0a22.72,22.72,0,0,1,.19,2.68l1.43,1.86.68.9c.49.64,1,1.27,1.44,1.87.21.28.43.55.64.82.52.65,1,1.27,1.54,1.84.23.26.46.52.69.76,1.92,2,3.86,3.42,6.14,3.74,4,.56,10.63,1,13.81,7a2.05,2.05,0,0,1,.16.38,2.31,2.31,0,0,1-2.18,3"/><path class="cls-12" d="M154,489.79H116.81a3.45,3.45,0,0,1-3.41-3h42.81a2.31,2.31,0,0,1-2.18,3"/><polygon class="cls-26" points="136.29 341.13 103.21 341.13 114.54 470.87 132.51 471.34 136.29 341.13"/><path class="cls-26" d="M72.3,334.92V358c0,25.57,4.47,81.73,6.1,112.76l17-.34L111,344.89l25.15,0,.34-13.23h0c-1.19-105.8-55.44-81.29-50.74-21.43.51,6.59-16,17.44-13.48,24.67"/><path class="cls-24" d="M101.39,488c-.31,5.46-19.55,3.58-22.63,1.94A3.73,3.73,0,0,1,77,486.55c-.15-2.36.72-5.38,1.48-7.74,1.23-3.85,1.06-3.78,1.92-6.41,0,0-.22-4.29,6.08-5.92s8.62,9,9.7,11.08c1,1.87,4.82,4.44,5.21,9.07a8.24,8.24,0,0,1,0,1.32"/><path class="cls-12" d="M101.39,488c-.31,5.46-19.55,3.58-22.63,1.94A3.73,3.73,0,0,1,77,486.55a24.73,24.73,0,0,0,10.91,2.39c6.53.1,11.23-1.07,13.48-2.31a8.24,8.24,0,0,1,0,1.32"/><path class="cls-24" d="M116.24,266c5.84,12.92,13.09,27.72,29.82,30.24,13.57,2,20.73-29.2,22.68-33.39s-1.36-16.53-7.85-13.89-15,22.66-16.83,22.54c-2.1-.13-3.6-23.66-16.59-31.21-2-1.18-13.74,20.16-11.23,25.71"/><path class="cls-24" d="M83.85,234.1c-8.25,0-16.54,4.22-20.15,9.65C58.12,252.11,74.61,304,70,346.46h69.43c.43-17.59-1.75-70.89-5.69-100.71-8.65-13.7-36.56-11.65-49.85-11.65"/><path class="cls-25" d="M110,234.73c10.22,5.57,12.58,48.27,15.4,111.75h-26c-1.12-62.34-11.15-101.74-15-112.38,8.34-.55,15.38-1,25.59.63"/><path class="cls-10" d="M115.1,224.84c-2.61,3.16-5.63,5.71-8.73,6.4v3.4l.61.82c2.2,3.87,1,11.63-2.65,13.52-5.72-2.06-13.45-7.15-15-14.31l1-.95,1.39-1,.68-8.48c-.43-.13-3.19-2.7-4.07-3.21s-1.84-2.68-1.49-4.64,3.19-.64,3.19-.64h0c-2.46-5.81-5.6-10.83.73-14.06s19.09-3,19.09-3l7.91-.84c-1.52,2.33-1.26,10.06-.61,15.8.58,5.15,1.44,6.92-2.07,11.16"/><path class="cls-17" d="M95.63,226.09s2.49,8.12,5.74,9.56,3.7,1.26,5,1.41v-5.82c-2.43-.17-5.65-1-10.74-5.15"/><path class="cls-24" d="M78.68,255.94c3-6.24,2.44-11.84-3.34-15.72h0c-11.16-7.28-30.52,25.77-37,43.45-2.64,7.17,6.89,41.92,9.35,45.14,1.3,1.7,5.41,10.29,10.35,1.35.09-.17-4.69-34.74-4.17-38.31.68-4.63,22.73-31.53,24.84-35.91"/><path class="cls-24" d="M158.28,252.35c.52,4.45,6.4,10.2,9.74,10.57.17-.69,1.44-3.87,2.21-6.24,1.65-5.11-7.6-12.17-9-9.62Z"/><path class="cls-10" d="M164.33,243.34c-.13-2.07-.53-10.32.54-12,.54-.87.8-.62,1.25-.29a3.71,3.71,0,0,1,1,1.93,31.78,31.78,0,0,1,.49,3.66c3.7-3.52,6.35-10.06,8.49-14.63.87-1.86,3-2.28,2.47.73-.4,2.47-3,8.48-3,8.48l6.19-.58c1.29-1.26,1.81.63,1.3,1.62-.82,1.64-5.86,4.64-5.86,4.64l4.09-1.84c1.37-1,1.1,1.13.79,1.58-.72,1-5.34,3.14-5.34,3.14l3.22-.69c1.88-1.28,0,2.17-.55,2.53-.12.08-3,1.19-4,2.3-2.59,2.77-4.6,8.19-6.07,11.43a14.82,14.82,0,0,1-7.1-7.46Z"/><path class="cls-10" d="M57.07,329.57l1.08,4.4,3.76,4.83s2.38,1.84,2.13,2.61c-.05.14-4.3-.86-4.4-.69-.91,1.41,1.07,9.83.92,9.8-13.88-3-7.5-10.39-11.35-19.88-1.32-3.25,5.2-3.12,7.86-1.07"/><path class="cls-26" d="M109.55,181.34c18.71,5.83,11.59,23.92,1.44,25.11-5.25.88-11.41-4.45-15.51-.58-2,1.92-1.68,7.07-.21,12,.43,1.46,1.11,2.58-1.11,1.22-1-.62-2.7-1.52-3.36-1.1-1.46.94-1,3.32-.06,4.18.44.38,1.29,1,1.29,1a5.25,5.25,0,0,1-5.4-1.37c-12-13.35-8.72-30.85,14.57-35.65,3.76-.78,4.15-6.12,8.35-4.81"/><path class="cls-35" d="M175.82,217.23c-1.11,3.08-11.88,25.58-11.88,25.58l6.19,9,1.23.26,13.79-25.84-7.83-8.74Z"/><polygon class="cls-25" points="175.68 221.53 166.26 241.35 170.5 247.5 181.11 227.31 175.68 221.53"/><path class="cls-11" d="M129.33,99h63.38a26,26,0,0,1,26,26v17.32a26,26,0,0,1-26,26H143.19L129.33,181V168.25a26,26,0,0,1-26-26V124.94a26,26,0,0,1,26-26"/><path class="cls-34" d="M134.44,129.43a5.85,5.85,0,1,1-5.85,5.85,5.84,5.84,0,0,1,5.85-5.85"/><path class="cls-34" d="M161,129.43a5.85,5.85,0,1,1-5.85,5.85,5.84,5.84,0,0,1,5.85-5.85"/><path class="cls-34" d="M187.6,129.43a5.85,5.85,0,1,1-5.85,5.85,5.84,5.84,0,0,1,5.85-5.85"/><path class="cls-34" d="M125.3,107.22h64.07a4.09,4.09,0,0,1,0,8.18H125.3a4.09,4.09,0,0,1,0-8.18"/><path class="cls-34" d="M199.77,107.34a4,4,0,1,1-4,4,4,4,0,0,1,4-4"/></svg>