<svg xmlns="http://www.w3.org/2000/svg" xmlns:xlink="http://www.w3.org/1999/xlink" viewBox="0 0 316.76 298.87"><defs><style>.cls-1{mask:url(#mask);filter:url(#luminosity-noclip-19);}.cls-10,.cls-12,.cls-14,.cls-16,.cls-18,.cls-2,.cls-20,.cls-22,.cls-24,.cls-26,.cls-28,.cls-30,.cls-32,.cls-34,.cls-36,.cls-4,.cls-6,.cls-8{mix-blend-mode:multiply;}.cls-2{fill:url(#linear-gradient);}.cls-3{mask:url(#mask-2);filter:url(#luminosity-noclip-24);}.cls-4{fill:url(#linear-gradient-2);}.cls-5{mask:url(#mask-3);filter:url(#luminosity-noclip-25);}.cls-6{fill:url(#linear-gradient-3);}.cls-7{mask:url(#mask-4);filter:url(#luminosity-noclip-26);}.cls-8{fill:url(#linear-gradient-4);}.cls-9{mask:url(#mask-5);filter:url(#luminosity-noclip-27);}.cls-10{fill:url(#linear-gradient-5);}.cls-11{mask:url(#mask-6);filter:url(#luminosity-noclip-28);}.cls-12{fill:url(#linear-gradient-6);}.cls-13{mask:url(#mask-7);filter:url(#luminosity-noclip-20);}.cls-14{fill:url(#linear-gradient-7);}.cls-15{mask:url(#mask-8);filter:url(#luminosity-noclip-29);}.cls-16{fill:url(#linear-gradient-8);}.cls-17{mask:url(#mask-9);filter:url(#luminosity-noclip-30);}.cls-18{fill:url(#linear-gradient-9);}.cls-19{mask:url(#mask-10);filter:url(#luminosity-noclip-31);}.cls-20{fill:url(#linear-gradient-10);}.cls-21{mask:url(#mask-11);filter:url(#luminosity-noclip-32);}.cls-22{fill:url(#linear-gradient-11);}.cls-23{mask:url(#mask-12);filter:url(#luminosity-noclip-33);}.cls-24{fill:url(#linear-gradient-12);}.cls-25{mask:url(#mask-13);filter:url(#luminosity-noclip-34);}.cls-26{fill:url(#linear-gradient-13);}.cls-27{mask:url(#mask-14);filter:url(#luminosity-noclip-35);}.cls-28{fill:url(#linear-gradient-14);}.cls-29{mask:url(#mask-15);filter:url(#luminosity-noclip-36);}.cls-30{fill:url(#linear-gradient-15);}.cls-31{mask:url(#mask-16);filter:url(#luminosity-noclip-21);}.cls-32{fill:url(#linear-gradient-16);}.cls-33{mask:url(#mask-17);filter:url(#luminosity-noclip-22);}.cls-34{fill:url(#linear-gradient-17);}.cls-35{mask:url(#mask-18);filter:url(#luminosity-noclip-23);}.cls-36{fill:url(#linear-gradient-18);}.cls-37{fill:none;}.cls-38{isolation:isolate;}.cls-39{fill:#13426f;}.cls-40{opacity:0.25;}.cls-40,.cls-93{mix-blend-mode:screen;}.cls-41,.cls-50{fill:#c7d9e7;}.cls-41{opacity:0.5;}.cls-42{fill:#ccd8e7;opacity:0.58;}.cls-43{fill:#d1d6e6;opacity:0.67;}.cls-44{fill:#d7d5e6;opacity:0.75;}.cls-45{fill:#dcd4e6;opacity:0.83;}.cls-46{fill:#e1d3e6;opacity:0.92;}.cls-47{fill:#e6d2e6;}.cls-48{fill:url(#linear-gradient-19);}.cls-49{fill:url(#linear-gradient-20);}.cls-51{fill:url(#linear-gradient-21);}.cls-52{clip-path:url(#clip-path);}.cls-53{fill:#141414;}.cls-54{fill:#151515;}.cls-55{fill:#161616;}.cls-56{fill:#171717;}.cls-57{fill:#181818;}.cls-58{fill:#191919;}.cls-59{clip-path:url(#clip-path-2);}.cls-60{fill:#707070;}.cls-61{fill:#737374;}.cls-62{clip-path:url(#clip-path-3);}.cls-63{fill:url(#linear-gradient-22);}.cls-64{fill:#818181;}.cls-65{fill:#848485;}.cls-66{fill:#888;}.cls-67{fill:#8c8c8c;}.cls-68{fill:#919191;}.cls-69{fill:#959595;}.cls-70{fill:#9a9a99;}.cls-71{fill:url(#linear-gradient-23);}.cls-72{fill:#787879;}.cls-73{fill:#757575;}.cls-74{clip-path:url(#clip-path-4);}.cls-75{clip-path:url(#clip-path-5);}.cls-76{fill:url(#linear-gradient-24);}.cls-77{fill:url(#linear-gradient-25);}.cls-78{fill:#1b1b1b;}.cls-79{fill:#565656;}.cls-80{clip-path:url(#clip-path-6);}.cls-81{clip-path:url(#clip-path-7);}.cls-82{fill:url(#linear-gradient-26);}.cls-83{fill:url(#linear-gradient-27);}.cls-84{clip-path:url(#clip-path-8);}.cls-85{fill:#7b7b7b;}.cls-86{fill:url(#linear-gradient-28);}.cls-87{fill:#57687a;}.cls-88{fill:#ccd9e7;}.cls-89{fill:url(#linear-gradient-29);}.cls-90{fill:url(#linear-gradient-30);}.cls-91{fill:url(#linear-gradient-31);}.cls-92{fill:url(#linear-gradient-32);}.cls-94{mask:url(#mask-19);}.cls-95{mask:url(#mask-20);}.cls-96{mask:url(#mask-21);}.cls-97{mask:url(#mask-22);}.cls-98{mask:url(#mask-23);}.cls-99{mask:url(#mask-24);}.cls-100{mask:url(#mask-25);}.cls-101{mask:url(#mask-26);}.cls-102{mask:url(#mask-27);}.cls-103{mask:url(#mask-28);}.cls-104{mask:url(#mask-29);}.cls-105{mask:url(#mask-30);}.cls-106{mask:url(#mask-31);}.cls-107{mask:url(#mask-32);}.cls-108{mask:url(#mask-33);}.cls-109{mask:url(#mask-34);}.cls-110{mask:url(#mask-35);}.cls-111{mask:url(#mask-36);}.cls-112{filter:url(#luminosity-noclip-18);}.cls-113{filter:url(#luminosity-noclip-17);}.cls-114{filter:url(#luminosity-noclip-16);}.cls-115{filter:url(#luminosity-noclip-15);}.cls-116{filter:url(#luminosity-noclip-14);}.cls-117{filter:url(#luminosity-noclip-13);}.cls-118{filter:url(#luminosity-noclip-12);}.cls-119{filter:url(#luminosity-noclip-11);}.cls-120{filter:url(#luminosity-noclip-10);}.cls-121{filter:url(#luminosity-noclip-9);}.cls-122{filter:url(#luminosity-noclip-8);}.cls-123{filter:url(#luminosity-noclip-7);}.cls-124{filter:url(#luminosity-noclip-6);}.cls-125{filter:url(#luminosity-noclip-5);}.cls-126{filter:url(#luminosity-noclip-4);}.cls-127{filter:url(#luminosity-noclip-3);}.cls-128{filter:url(#luminosity-noclip-2);}.cls-129{filter:url(#luminosity-noclip);}</style><filter id="luminosity-noclip" x="95.74" y="-8377.15" width="2.66" height="32766" filterUnits="userSpaceOnUse" color-interpolation-filters="sRGB"><feFlood flood-color="#fff" result="bg"/><feBlend in="SourceGraphic" in2="bg"/></filter><mask id="mask" x="95.74" y="-8377.15" width="2.66" height="32766" maskUnits="userSpaceOnUse"><g class="cls-129"/></mask><linearGradient id="linear-gradient" x1="60" y1="18.7" x2="60" y2="100.77" gradientTransform="translate(37.06)" gradientUnits="userSpaceOnUse"><stop offset="0" stop-color="#fff"/><stop offset="0.02" stop-color="#f7f7f7"/><stop offset="0.13" stop-color="#bebebe"/><stop offset="0.25" stop-color="#8b8b8b"/><stop offset="0.37" stop-color="#606060"/><stop offset="0.49" stop-color="#3e3e3e"/><stop offset="0.62" stop-color="#232323"/><stop offset="0.74" stop-color="#0f0f0f"/><stop offset="0.87" stop-color="#040404"/><stop offset="1"/></linearGradient><filter id="luminosity-noclip-2" x="98.06" y="-8377.15" width="2.66" height="32766" filterUnits="userSpaceOnUse" color-interpolation-filters="sRGB"><feFlood flood-color="#fff" result="bg"/><feBlend in="SourceGraphic" in2="bg"/></filter><mask id="mask-2" x="98.06" y="-8377.15" width="2.66" height="32766" maskUnits="userSpaceOnUse"><g class="cls-128"/></mask><linearGradient id="linear-gradient-2" x1="62.33" y1="83.59" x2="62.33" y2="165.67" xlink:href="#linear-gradient"/><filter id="luminosity-noclip-3" x="84.36" y="-8377.15" width="1.53" height="32766" filterUnits="userSpaceOnUse" color-interpolation-filters="sRGB"><feFlood flood-color="#fff" result="bg"/><feBlend in="SourceGraphic" in2="bg"/></filter><mask id="mask-3" x="84.36" y="-8377.15" width="1.53" height="32766" maskUnits="userSpaceOnUse"><g class="cls-127"/></mask><linearGradient id="linear-gradient-3" x1="48.07" y1="116.32" x2="48.07" y2="163.5" xlink:href="#linear-gradient"/><filter id="luminosity-noclip-4" x="90.21" y="-8377.15" width="0.74" height="32766" filterUnits="userSpaceOnUse" color-interpolation-filters="sRGB"><feFlood flood-color="#fff" result="bg"/><feBlend in="SourceGraphic" in2="bg"/></filter><mask id="mask-4" x="90.21" y="-8377.15" width="0.74" height="32766" maskUnits="userSpaceOnUse"><g class="cls-126"/></mask><linearGradient id="linear-gradient-4" x1="53.52" y1="98.53" x2="53.52" y2="138.69" xlink:href="#linear-gradient"/><filter id="luminosity-noclip-5" x="107.83" y="-8377.15" width="2.75" height="32766" filterUnits="userSpaceOnUse" color-interpolation-filters="sRGB"><feFlood flood-color="#fff" result="bg"/><feBlend in="SourceGraphic" in2="bg"/></filter><mask id="mask-5" x="107.83" y="-8377.15" width="2.75" height="32766" maskUnits="userSpaceOnUse"><g class="cls-125"/></mask><linearGradient id="linear-gradient-5" x1="72.14" y1="131.98" x2="72.14" y2="216.87" xlink:href="#linear-gradient"/><filter id="luminosity-noclip-6" x="154.19" y="-8377.15" width="2.66" height="32766" filterUnits="userSpaceOnUse" color-interpolation-filters="sRGB"><feFlood flood-color="#fff" result="bg"/><feBlend in="SourceGraphic" in2="bg"/></filter><mask id="mask-6" x="154.19" y="-8377.15" width="2.66" height="32766" maskUnits="userSpaceOnUse"><g class="cls-124"/></mask><linearGradient id="linear-gradient-6" x1="118.46" y1="103.38" x2="118.46" y2="185.45" xlink:href="#linear-gradient"/><filter id="luminosity-noclip-7" x="68.03" y="-8377.15" width="2.34" height="32766" filterUnits="userSpaceOnUse" color-interpolation-filters="sRGB"><feFlood flood-color="#fff" result="bg"/><feBlend in="SourceGraphic" in2="bg"/></filter><mask id="mask-7" x="68.03" y="-8377.15" width="2.34" height="32766" maskUnits="userSpaceOnUse"><g class="cls-123"/></mask><linearGradient id="linear-gradient-7" x1="32.14" y1="59.18" x2="32.14" y2="131.45" xlink:href="#linear-gradient"/><filter id="luminosity-noclip-8" x="126.48" y="-8377.15" width="2.34" height="32766" filterUnits="userSpaceOnUse" color-interpolation-filters="sRGB"><feFlood flood-color="#fff" result="bg"/><feBlend in="SourceGraphic" in2="bg"/></filter><mask id="mask-8" x="126.48" y="-8377.15" width="2.34" height="32766" maskUnits="userSpaceOnUse"><g class="cls-122"/></mask><linearGradient id="linear-gradient-8" x1="90.59" y1="143.86" x2="90.59" y2="216.13" xlink:href="#linear-gradient"/><filter id="luminosity-noclip-9" x="137.72" y="-8377.15" width="1.53" height="32766" filterUnits="userSpaceOnUse" color-interpolation-filters="sRGB"><feFlood flood-color="#fff" result="bg"/><feBlend in="SourceGraphic" in2="bg"/></filter><mask id="mask-9" x="137.72" y="-8377.15" width="1.53" height="32766" maskUnits="userSpaceOnUse"><g class="cls-121"/></mask><linearGradient id="linear-gradient-9" x1="101.42" y1="113.04" x2="101.42" y2="160.22" xlink:href="#linear-gradient"/><filter id="luminosity-noclip-10" x="146.71" y="-8377.15" width="0.75" height="32766" filterUnits="userSpaceOnUse" color-interpolation-filters="sRGB"><feFlood flood-color="#fff" result="bg"/><feBlend in="SourceGraphic" in2="bg"/></filter><mask id="mask-10" x="146.71" y="-8377.15" width="0.75" height="32766" maskUnits="userSpaceOnUse"><g class="cls-120"/></mask><linearGradient id="linear-gradient-10" x1="110.02" y1="89.78" x2="110.02" y2="129.94" xlink:href="#linear-gradient"/><filter id="luminosity-noclip-11" x="107.19" y="-8377.15" width="2.75" height="32766" filterUnits="userSpaceOnUse" color-interpolation-filters="sRGB"><feFlood flood-color="#fff" result="bg"/><feBlend in="SourceGraphic" in2="bg"/></filter><mask id="mask-11" x="107.19" y="-8377.15" width="2.75" height="32766" maskUnits="userSpaceOnUse"><g class="cls-119"/></mask><linearGradient id="linear-gradient-11" x1="71.51" y1="47.22" x2="71.51" y2="132.1" xlink:href="#linear-gradient"/><filter id="luminosity-noclip-12" x="160.49" y="-8377.15" width="2.66" height="32766" filterUnits="userSpaceOnUse" color-interpolation-filters="sRGB"><feFlood flood-color="#fff" result="bg"/><feBlend in="SourceGraphic" in2="bg"/></filter><mask id="mask-12" x="160.49" y="-8377.15" width="2.66" height="32766" maskUnits="userSpaceOnUse"><g class="cls-118"/></mask><linearGradient id="linear-gradient-12" x1="124.76" y1="0.96" x2="124.76" y2="83.03" xlink:href="#linear-gradient"/><filter id="luminosity-noclip-13" x="146.79" y="-8377.15" width="1.53" height="32766" filterUnits="userSpaceOnUse" color-interpolation-filters="sRGB"><feFlood flood-color="#fff" result="bg"/><feBlend in="SourceGraphic" in2="bg"/></filter><mask id="mask-13" x="146.79" y="-8377.15" width="1.53" height="32766" maskUnits="userSpaceOnUse"><g class="cls-117"/></mask><linearGradient id="linear-gradient-13" x1="110.5" y1="33.68" x2="110.5" y2="80.86" xlink:href="#linear-gradient"/><filter id="luminosity-noclip-14" x="152.63" y="-8377.15" width="0.75" height="32766" filterUnits="userSpaceOnUse" color-interpolation-filters="sRGB"><feFlood flood-color="#fff" result="bg"/><feBlend in="SourceGraphic" in2="bg"/></filter><mask id="mask-14" x="152.63" y="-8377.15" width="0.75" height="32766" maskUnits="userSpaceOnUse"><g class="cls-116"/></mask><linearGradient id="linear-gradient-14" x1="115.94" y1="15.9" x2="115.94" y2="56.06" xlink:href="#linear-gradient"/><filter id="luminosity-noclip-15" x="170.26" y="-8377.15" width="2.75" height="32766" filterUnits="userSpaceOnUse" color-interpolation-filters="sRGB"><feFlood flood-color="#fff" result="bg"/><feBlend in="SourceGraphic" in2="bg"/></filter><mask id="mask-15" x="170.26" y="-8377.15" width="2.75" height="32766" maskUnits="userSpaceOnUse"><g class="cls-115"/></mask><linearGradient id="linear-gradient-15" x1="134.57" y1="49.35" x2="134.57" y2="134.23" xlink:href="#linear-gradient"/><filter id="luminosity-noclip-16" x="79.27" y="-8377.15" width="1.53" height="32766" filterUnits="userSpaceOnUse" color-interpolation-filters="sRGB"><feFlood flood-color="#fff" result="bg"/><feBlend in="SourceGraphic" in2="bg"/></filter><mask id="mask-16" x="79.27" y="-8377.15" width="1.53" height="32766" maskUnits="userSpaceOnUse"><g class="cls-114"/></mask><linearGradient id="linear-gradient-16" x1="42.97" y1="28.36" x2="42.97" y2="75.54" xlink:href="#linear-gradient"/><filter id="luminosity-noclip-17" x="88.25" y="-8377.15" width="0.75" height="32766" filterUnits="userSpaceOnUse" color-interpolation-filters="sRGB"><feFlood flood-color="#fff" result="bg"/><feBlend in="SourceGraphic" in2="bg"/></filter><mask id="mask-17" x="88.25" y="-8377.15" width="0.75" height="32766" maskUnits="userSpaceOnUse"><g class="cls-113"/></mask><linearGradient id="linear-gradient-17" x1="51.57" y1="5.1" x2="51.57" y2="45.26" xlink:href="#linear-gradient"/><filter id="luminosity-noclip-18" x="58.32" y="-8377.15" width="2.75" height="32766" filterUnits="userSpaceOnUse" color-interpolation-filters="sRGB"><feFlood flood-color="#fff" result="bg"/><feBlend in="SourceGraphic" in2="bg"/></filter><mask id="mask-18" x="58.32" y="-8377.15" width="2.75" height="32766" maskUnits="userSpaceOnUse"><g class="cls-112"/></mask><linearGradient id="linear-gradient-18" x1="22.63" y1="26.3" x2="22.63" y2="111.18" xlink:href="#linear-gradient"/><linearGradient id="linear-gradient-19" x1="58.13" y1="174.81" x2="177.99" y2="174.81" gradientUnits="userSpaceOnUse"><stop offset="0" stop-color="#07619e"/><stop offset="1" stop-color="#3085c7"/></linearGradient><linearGradient id="linear-gradient-20" x1="58.31" y1="126.03" x2="177.99" y2="126.03" xlink:href="#linear-gradient-19"/><linearGradient id="linear-gradient-21" x1="67.23" y1="126.03" x2="169.08" y2="126.03" xlink:href="#linear-gradient-19"/><clipPath id="clip-path"><path class="cls-37" d="M253.75,200.09a.71.71,0,0,0-.42.59l0-6.82a.72.72,0,0,1,.42-.59,2.27,2.27,0,0,1,2.06,0l0,6.82A2.27,2.27,0,0,0,253.75,200.09Z"/></clipPath><clipPath id="clip-path-2"><path class="cls-37" d="M253.33,200.68l0-6.82a.73.73,0,0,0,.43.6l0,6.82A.74.74,0,0,1,253.33,200.68Z"/></clipPath><clipPath id="clip-path-3"><path class="cls-37" d="M275.56,205v6.81a.74.74,0,0,1-.43.59,2.25,2.25,0,0,1-2.05,0l0-6.81a2.25,2.25,0,0,0,2.05,0A.72.72,0,0,0,275.56,205Z"/></clipPath><linearGradient id="linear-gradient-22" x1="275.55" y1="208.43" x2="275.56" y2="208.43" gradientUnits="userSpaceOnUse"><stop offset="0" stop-color="#d6e3f4"/><stop offset="1" stop-color="#d2edfb"/></linearGradient><linearGradient id="linear-gradient-23" x1="273.61" y1="209.23" x2="273.77" y2="209.23" xlink:href="#linear-gradient-22"/><clipPath id="clip-path-4"><path class="cls-37" d="M277.07,213.55a.71.71,0,0,0-.42.59l0-6.82a.73.73,0,0,1,.42-.59,2.25,2.25,0,0,1,2.05,0l0,6.82A2.25,2.25,0,0,0,277.07,213.55Z"/></clipPath><clipPath id="clip-path-5"><path class="cls-37" d="M279.57,207.33l0,6.82a.73.73,0,0,1-.42.59,2.33,2.33,0,0,1-2.06,0,.75.75,0,0,1-.42-.6l0-6.82a.73.73,0,0,0,.42.6,2.27,2.27,0,0,0,2.06,0A.72.72,0,0,0,279.57,207.33Z"/></clipPath><linearGradient id="linear-gradient-24" x1="279.55" y1="210.74" x2="279.57" y2="210.74" xlink:href="#linear-gradient-22"/><linearGradient id="linear-gradient-25" x1="277.61" y1="211.54" x2="277.78" y2="211.54" xlink:href="#linear-gradient-22"/><clipPath id="clip-path-6"><path class="cls-37" d="M140.29,268.7a3.06,3.06,0,0,0-1.79,2.5l0-6.82a3.06,3.06,0,0,1,1.79-2.5,9.58,9.58,0,0,1,8.69,0,3.09,3.09,0,0,1,1.81,2.52c0,1.13,0,2.27,0,3.41s0,2.27,0,3.41A3.06,3.06,0,0,0,149,268.7,9.58,9.58,0,0,0,140.29,268.7Z"/></clipPath><clipPath id="clip-path-7"><path class="cls-37" d="M150.81,264.42l0,6.81a3,3,0,0,1-1.78,2.5,9.58,9.58,0,0,1-8.69,0,3.1,3.1,0,0,1-1.82-2.53l0-6.82a3.06,3.06,0,0,0,1.82,2.53,9.58,9.58,0,0,0,8.69,0A3,3,0,0,0,150.81,264.42Z"/></clipPath><linearGradient id="linear-gradient-26" x1="150.79" y1="267.85" x2="150.81" y2="267.85" xlink:href="#linear-gradient-22"/><linearGradient id="linear-gradient-27" x1="142.59" y1="271.21" x2="143.22" y2="271.21" xlink:href="#linear-gradient-22"/><clipPath id="clip-path-8"><path class="cls-37" d="M150.79,271.23h0c0-2.28,0-4.55,0-6.82v0C150.81,266.46,150.8,269.19,150.79,271.23Z"/></clipPath><linearGradient id="linear-gradient-28" x1="113.65" y1="231.49" x2="296.4" y2="231.49" xlink:href="#linear-gradient-19"/><linearGradient id="linear-gradient-29" x1="113.63" y1="251.7" x2="296.4" y2="251.7" xlink:href="#linear-gradient-19"/><linearGradient id="linear-gradient-30" x1="115.3" y1="246.22" x2="296.39" y2="246.22" xlink:href="#linear-gradient-19"/><linearGradient id="linear-gradient-31" x1="170.5" y1="244.01" x2="191.25" y2="244.01" xlink:href="#linear-gradient-19"/><linearGradient id="linear-gradient-32" x1="156.68" y1="249.84" x2="182.5" y2="249.84" xlink:href="#linear-gradient-19"/><filter id="luminosity-noclip-19" x="95.74" y="18.7" width="2.66" height="85.25" filterUnits="userSpaceOnUse" color-interpolation-filters="sRGB"><feFlood flood-color="#fff" result="bg"/><feBlend in="SourceGraphic" in2="bg"/></filter><mask id="mask-19" x="95.74" y="18.7" width="2.66" height="85.25" maskUnits="userSpaceOnUse"><g class="cls-1"><path class="cls-2" d="M97.07,104h0a1.32,1.32,0,0,1-1.33-1.33V20a1.32,1.32,0,0,1,1.33-1.33h0A1.33,1.33,0,0,1,98.4,20v82.59A1.33,1.33,0,0,1,97.07,104Z"/></g></mask><filter id="luminosity-noclip-20" x="68.03" y="59.18" width="2.34" height="75.07" filterUnits="userSpaceOnUse" color-interpolation-filters="sRGB"><feFlood flood-color="#fff" result="bg"/><feBlend in="SourceGraphic" in2="bg"/></filter><mask id="mask-20" x="68.03" y="59.18" width="2.34" height="75.07" maskUnits="userSpaceOnUse"><g class="cls-13"><path class="cls-14" d="M69.2,134.25h0A1.18,1.18,0,0,1,68,133.07V60.35a1.17,1.17,0,0,1,1.17-1.17h0a1.17,1.17,0,0,1,1.18,1.17v72.72A1.18,1.18,0,0,1,69.2,134.25Z"/></g></mask><filter id="luminosity-noclip-21" x="79.27" y="28.36" width="1.53" height="49.01" filterUnits="userSpaceOnUse" color-interpolation-filters="sRGB"><feFlood flood-color="#fff" result="bg"/><feBlend in="SourceGraphic" in2="bg"/></filter><mask id="mask-21" x="79.27" y="28.36" width="1.53" height="49.01" maskUnits="userSpaceOnUse"><g class="cls-31"><path class="cls-32" d="M80,77.37h0a.77.77,0,0,1-.76-.77V29.12a.76.76,0,0,1,.76-.76h0a.76.76,0,0,1,.77.76V76.6A.77.77,0,0,1,80,77.37Z"/></g></mask><filter id="luminosity-noclip-22" x="88.25" y="5.1" width="0.75" height="41.71" filterUnits="userSpaceOnUse" color-interpolation-filters="sRGB"><feFlood flood-color="#fff" result="bg"/><feBlend in="SourceGraphic" in2="bg"/></filter><mask id="mask-22" x="88.25" y="5.1" width="0.75" height="41.71" maskUnits="userSpaceOnUse"><g class="cls-33"><path class="cls-34" d="M88.63,46.81h0a.38.38,0,0,1-.38-.37v-41a.37.37,0,0,1,.38-.37h0a.37.37,0,0,1,.37.37v41A.38.38,0,0,1,88.63,46.81Z"/></g></mask><filter id="luminosity-noclip-23" x="58.32" y="26.3" width="2.75" height="88.17" filterUnits="userSpaceOnUse" color-interpolation-filters="sRGB"><feFlood flood-color="#fff" result="bg"/><feBlend in="SourceGraphic" in2="bg"/></filter><mask id="mask-23" x="58.32" y="26.3" width="2.75" height="88.17" maskUnits="userSpaceOnUse"><g class="cls-35"><path class="cls-36" d="M59.7,114.47h0a1.38,1.38,0,0,1-1.38-1.38V27.68A1.38,1.38,0,0,1,59.7,26.3h0a1.37,1.37,0,0,1,1.37,1.38v85.41A1.37,1.37,0,0,1,59.7,114.47Z"/></g></mask><filter id="luminosity-noclip-24" x="98.06" y="83.59" width="2.66" height="85.25" filterUnits="userSpaceOnUse" color-interpolation-filters="sRGB"><feFlood flood-color="#fff" result="bg"/><feBlend in="SourceGraphic" in2="bg"/></filter><mask id="mask-24" x="98.06" y="83.59" width="2.66" height="85.25" maskUnits="userSpaceOnUse"><g class="cls-3"><path class="cls-4" d="M99.39,168.85h0a1.34,1.34,0,0,1-1.33-1.33V84.92a1.34,1.34,0,0,1,1.33-1.33h0a1.33,1.33,0,0,1,1.33,1.33v82.6A1.33,1.33,0,0,1,99.39,168.85Z"/></g></mask><filter id="luminosity-noclip-25" x="84.36" y="116.32" width="1.53" height="49.01" filterUnits="userSpaceOnUse" color-interpolation-filters="sRGB"><feFlood flood-color="#fff" result="bg"/><feBlend in="SourceGraphic" in2="bg"/></filter><mask id="mask-25" x="84.36" y="116.32" width="1.53" height="49.01" maskUnits="userSpaceOnUse"><g class="cls-5"><path class="cls-6" d="M85.13,165.32h0a.77.77,0,0,1-.77-.76V117.08a.77.77,0,0,1,.77-.76h0a.77.77,0,0,1,.77.76v47.48A.77.77,0,0,1,85.13,165.32Z"/></g></mask><filter id="luminosity-noclip-26" x="90.21" y="98.53" width="0.74" height="41.71" filterUnits="userSpaceOnUse" color-interpolation-filters="sRGB"><feFlood flood-color="#fff" result="bg"/><feBlend in="SourceGraphic" in2="bg"/></filter><mask id="mask-26" x="90.21" y="98.53" width="0.74" height="41.71" maskUnits="userSpaceOnUse"><g class="cls-7"><path class="cls-8" d="M90.58,140.25h0a.37.37,0,0,1-.37-.37v-41a.37.37,0,0,1,.37-.38h0a.38.38,0,0,1,.37.38v41A.38.38,0,0,1,90.58,140.25Z"/></g></mask><filter id="luminosity-noclip-27" x="107.83" y="131.98" width="2.75" height="88.17" filterUnits="userSpaceOnUse" color-interpolation-filters="sRGB"><feFlood flood-color="#fff" result="bg"/><feBlend in="SourceGraphic" in2="bg"/></filter><mask id="mask-27" x="107.83" y="131.98" width="2.75" height="88.17" maskUnits="userSpaceOnUse"><g class="cls-9"><path class="cls-10" d="M109.21,220.15h0a1.37,1.37,0,0,1-1.38-1.37V133.36a1.38,1.38,0,0,1,1.38-1.38h0a1.37,1.37,0,0,1,1.37,1.38v85.42A1.37,1.37,0,0,1,109.21,220.15Z"/></g></mask><filter id="luminosity-noclip-28" x="154.19" y="103.38" width="2.66" height="85.25" filterUnits="userSpaceOnUse" color-interpolation-filters="sRGB"><feFlood flood-color="#fff" result="bg"/><feBlend in="SourceGraphic" in2="bg"/></filter><mask id="mask-28" x="154.19" y="103.38" width="2.66" height="85.25" maskUnits="userSpaceOnUse"><g class="cls-11"><path class="cls-12" d="M155.52,188.63h0a1.32,1.32,0,0,1-1.33-1.33V104.71a1.32,1.32,0,0,1,1.33-1.33h0a1.33,1.33,0,0,1,1.33,1.33V187.3A1.33,1.33,0,0,1,155.52,188.63Z"/></g></mask><filter id="luminosity-noclip-29" x="126.48" y="143.86" width="2.34" height="75.07" filterUnits="userSpaceOnUse" color-interpolation-filters="sRGB"><feFlood flood-color="#fff" result="bg"/><feBlend in="SourceGraphic" in2="bg"/></filter><mask id="mask-29" x="126.48" y="143.86" width="2.34" height="75.07" maskUnits="userSpaceOnUse"><g class="cls-15"><path class="cls-16" d="M127.66,218.93h0a1.18,1.18,0,0,1-1.18-1.18V145a1.17,1.17,0,0,1,1.18-1.17h0a1.17,1.17,0,0,1,1.17,1.17v72.72A1.18,1.18,0,0,1,127.66,218.93Z"/></g></mask><filter id="luminosity-noclip-30" x="137.72" y="113.04" width="1.53" height="49.01" filterUnits="userSpaceOnUse" color-interpolation-filters="sRGB"><feFlood flood-color="#fff" result="bg"/><feBlend in="SourceGraphic" in2="bg"/></filter><mask id="mask-30" x="137.72" y="113.04" width="1.53" height="49.01" maskUnits="userSpaceOnUse"><g class="cls-17"><path class="cls-18" d="M138.49,162.05h0a.77.77,0,0,1-.77-.77V113.8a.76.76,0,0,1,.77-.76h0a.76.76,0,0,1,.76.76v47.48A.77.77,0,0,1,138.49,162.05Z"/></g></mask><filter id="luminosity-noclip-31" x="146.71" y="89.78" width="0.75" height="41.71" filterUnits="userSpaceOnUse" color-interpolation-filters="sRGB"><feFlood flood-color="#fff" result="bg"/><feBlend in="SourceGraphic" in2="bg"/></filter><mask id="mask-31" x="146.71" y="89.78" width="0.75" height="41.71" maskUnits="userSpaceOnUse"><g class="cls-19"><path class="cls-20" d="M147.08,131.49h0a.37.37,0,0,1-.37-.37v-41a.36.36,0,0,1,.37-.37h0a.37.37,0,0,1,.37.37v41A.38.38,0,0,1,147.08,131.49Z"/></g></mask><filter id="luminosity-noclip-32" x="107.19" y="47.22" width="2.75" height="88.17" filterUnits="userSpaceOnUse" color-interpolation-filters="sRGB"><feFlood flood-color="#fff" result="bg"/><feBlend in="SourceGraphic" in2="bg"/></filter><mask id="mask-32" x="107.19" y="47.22" width="2.75" height="88.17" maskUnits="userSpaceOnUse"><g class="cls-21"><path class="cls-22" d="M108.57,135.39h0a1.38,1.38,0,0,1-1.38-1.38V48.59a1.37,1.37,0,0,1,1.38-1.37h0A1.37,1.37,0,0,1,110,48.59V134A1.38,1.38,0,0,1,108.57,135.39Z"/></g></mask><filter id="luminosity-noclip-33" x="160.49" y="0.96" width="2.66" height="85.25" filterUnits="userSpaceOnUse" color-interpolation-filters="sRGB"><feFlood flood-color="#fff" result="bg"/><feBlend in="SourceGraphic" in2="bg"/></filter><mask id="mask-33" x="160.49" y="0.96" width="2.66" height="85.25" maskUnits="userSpaceOnUse"><g class="cls-23"><path class="cls-24" d="M161.82,86.21h0a1.32,1.32,0,0,1-1.33-1.33V2.29A1.33,1.33,0,0,1,161.82,1h0a1.34,1.34,0,0,1,1.33,1.33V84.88A1.33,1.33,0,0,1,161.82,86.21Z"/></g></mask><filter id="luminosity-noclip-34" x="146.79" y="33.68" width="1.53" height="49.01" filterUnits="userSpaceOnUse" color-interpolation-filters="sRGB"><feFlood flood-color="#fff" result="bg"/><feBlend in="SourceGraphic" in2="bg"/></filter><mask id="mask-34" x="146.79" y="33.68" width="1.53" height="49.01" maskUnits="userSpaceOnUse"><g class="cls-25"><path class="cls-26" d="M147.56,82.69h0a.76.76,0,0,1-.77-.76V34.45a.77.77,0,0,1,.77-.77h0a.77.77,0,0,1,.76.77V81.93A.76.76,0,0,1,147.56,82.69Z"/></g></mask><filter id="luminosity-noclip-35" x="152.63" y="15.9" width="0.75" height="41.71" filterUnits="userSpaceOnUse" color-interpolation-filters="sRGB"><feFlood flood-color="#fff" result="bg"/><feBlend in="SourceGraphic" in2="bg"/></filter><mask id="mask-35" x="152.63" y="15.9" width="0.75" height="41.71" maskUnits="userSpaceOnUse"><g class="cls-27"><path class="cls-28" d="M153,57.62h0a.38.38,0,0,1-.38-.38v-41a.38.38,0,0,1,.38-.37h0a.38.38,0,0,1,.37.37v41A.38.38,0,0,1,153,57.62Z"/></g></mask><filter id="luminosity-noclip-36" x="170.26" y="49.35" width="2.75" height="88.17" filterUnits="userSpaceOnUse" color-interpolation-filters="sRGB"><feFlood flood-color="#fff" result="bg"/><feBlend in="SourceGraphic" in2="bg"/></filter><mask id="mask-36" x="170.26" y="49.35" width="2.75" height="88.17" maskUnits="userSpaceOnUse"><g class="cls-29"><path class="cls-30" d="M171.63,137.52h0a1.37,1.37,0,0,1-1.37-1.38V50.73a1.37,1.37,0,0,1,1.37-1.38h0A1.38,1.38,0,0,1,173,50.73v85.41A1.38,1.38,0,0,1,171.63,137.52Z"/></g></mask></defs><title>Give a Voice to Your Digital Experience</title><g class="cls-38"><g id="Layer_1" data-name="Layer 1"><polyline class="cls-39" points="236.16 93.49 234.69 92.64 234.52 152.23 235.99 153.08 236.16 93.49"/><polyline class="cls-39" points="232.36 99.7 230.88 98.84 230.76 141.63 232.24 142.49 232.36 99.7"/><polyline class="cls-39" points="228.65 103.66 227.17 102.81 227.09 133.43 228.56 134.28 228.65 103.66"/><polyline class="cls-39" points="224.95 105.91 223.47 105.06 223.41 126.92 224.88 127.77 224.95 105.91"/><polyline class="cls-39" points="221.23 108.01 219.76 107.16 219.72 120.53 221.19 121.38 221.23 108.01"/><polyline class="cls-39" points="217.53 109.64 216.06 108.79 216.05 114.66 217.52 115.5 217.53 109.64"/><polyline class="cls-39" points="239.91 104.06 238.44 103.21 238.32 146 239.79 146.85 239.91 104.06"/><polyline class="cls-39" points="243.58 112.28 242.11 111.43 242.02 142.05 243.49 142.9 243.58 112.28"/><polyline class="cls-39" points="247.27 118.8 245.79 117.95 245.73 139.81 247.21 140.66 247.27 118.8"/><polyline class="cls-39" points="250.94 125.16 249.47 124.31 249.43 137.68 250.9 138.53 250.94 125.16"/><polyline class="cls-39" points="254.63 131.06 253.15 130.2 253.13 136.07 254.62 136.92 254.63 131.06"/><polyline class="cls-39" points="198.98 76.55 197.49 75.69 197.35 126.23 198.84 127.09 198.98 76.55"/><polyline class="cls-39" points="195.17 82.77 193.7 81.92 193.6 115.64 195.07 116.49 195.17 82.77"/><polyline class="cls-39" points="191.46 86.71 189.99 85.86 189.93 107.44 191.4 108.29 191.46 86.71"/><polyline class="cls-39" points="187.76 88.97 186.28 88.11 186.24 100.92 187.73 101.78 187.76 88.97"/><polyline class="cls-39" points="184.05 91.08 182.58 90.23 182.57 94.55 184.04 95.4 184.05 91.08"/><polyline class="cls-39" points="202.73 87.13 201.24 86.27 201.15 120 202.63 120.86 202.73 87.13"/><polyline class="cls-39" points="206.4 95.33 204.93 94.48 204.86 116.06 206.34 116.91 206.4 95.33"/><polyline class="cls-39" points="210.09 101.86 208.6 101 208.56 113.81 210.05 114.66 210.09 101.86"/><polyline class="cls-39" points="213.76 108.24 212.29 107.39 212.28 111.71 213.75 112.56 213.76 108.24"/><polyline class="cls-39" points="169.25 65.06 167.78 64.21 167.67 103.44 169.14 104.29 169.25 65.06"/><polyline class="cls-39" points="165.46 71.29 163.99 70.44 163.92 92.85 165.39 93.7 165.46 71.29"/><polyline class="cls-39" points="161.75 75.23 160.28 74.38 160.25 84.65 161.72 85.5 161.75 75.23"/><polyline class="cls-39" points="158.04 77.48 156.57 76.63 156.56 78.11 158.03 78.96 158.04 77.48"/><polyline class="cls-39" points="173.02 75.65 171.53 74.79 171.47 97.21 172.95 98.06 173.02 75.65"/><polyline class="cls-39" points="176.69 83.86 175.21 83 175.19 93.27 176.66 94.12 176.69 83.86"/><polyline class="cls-39" points="180.36 90.37 178.89 89.52 178.88 91 180.36 91.85 180.36 90.37"/><polyline class="cls-39" points="273.29 119.45 271.82 118.6 271.67 169.14 273.14 169.99 273.29 119.45"/><polyline class="cls-39" points="277.04 130.03 275.56 129.18 275.47 162.91 276.94 163.76 277.04 130.03"/><polyline class="cls-39" points="280.72 138.25 279.23 137.39 279.17 158.96 280.66 159.82 280.72 138.25"/><polyline class="cls-39" points="284.39 144.76 282.92 143.91 282.89 156.72 284.36 157.57 284.39 144.76"/><polyline class="cls-39" points="288.07 151.14 286.6 150.29 286.58 154.61 288.06 155.46 288.07 151.14"/><polyline class="cls-39" points="269.49 125.68 268.02 124.83 267.92 158.55 269.4 159.4 269.49 125.68"/><polyline class="cls-39" points="265.77 129.62 264.3 128.76 264.24 150.34 265.71 151.19 265.77 129.62"/><polyline class="cls-39" points="262.07 131.87 260.6 131.02 260.56 143.83 262.04 144.68 262.07 131.87"/><polyline class="cls-39" points="258.37 134 256.89 133.14 256.88 137.46 258.36 138.31 258.37 134"/><polyline class="cls-39" points="302.97 142.26 301.5 141.41 301.38 180.63 302.86 181.49 302.97 142.26"/><polyline class="cls-39" points="306.71 152.84 305.24 151.99 305.18 174.41 306.65 175.26 306.71 152.84"/><polyline class="cls-39" points="310.4 161.05 308.91 160.2 308.88 170.46 310.37 171.32 310.4 161.05"/><polyline class="cls-39" points="314.07 167.57 312.6 166.72 312.6 168.19 314.07 169.04 314.07 167.57"/><polyline class="cls-39" points="299.17 148.49 297.7 147.64 297.63 170.05 299.11 170.9 299.17 148.49"/><polyline class="cls-39" points="295.47 152.43 293.98 151.57 293.95 161.84 295.44 162.69 295.47 152.43"/><polyline class="cls-39" points="291.75 154.68 290.28 153.83 290.28 155.31 291.75 156.16 291.75 154.68"/><path class="cls-39" d="M127.45,264.67c-32.25,0-64.54-7.12-89.17-21.34C14.27,229.47,1,211,1,191.37s13-37.84,36.7-51.61c49-28.45,128.87-28.45,178.13,0,24,13.86,37.25,32.31,37.28,52s-13,37.85-36.72,51.62C191.92,257.55,159.7,264.67,127.45,264.67Zm-.78-145.56c-32.14,0-64.23,7.09-88.62,21.26C14.58,154,1.67,172.12,1.7,191.37S14.84,229,38.63,242.72c49.07,28.34,128.65,28.34,177.41,0,23.48-13.64,36.39-31.76,36.37-51s-13.14-37.62-36.93-51.36C191,126.19,158.79,119.11,126.67,119.11Z"/><g class="cls-40"><path class="cls-41" d="M4.24,194.68c0,44.22,49.06,80.07,126.51,80.07S271,238.9,271,194.68,208.2,114.6,130.75,114.6,4.24,150.45,4.24,194.68Z"/><path class="cls-42" d="M18.32,192.39c0,39.07,44,70.73,112.43,70.73s123.88-31.66,123.88-70.73-55.46-70.73-123.88-70.73S18.32,153.33,18.32,192.39Z"/><path class="cls-43" d="M32.4,190.11c0,33.9,39,61.38,98.35,61.38S238.26,224,238.26,190.11s-48.13-61.39-107.51-61.39S32.4,156.21,32.4,190.11Z"/><path class="cls-44" d="M46.47,187.82c0,28.75,33.94,52.05,84.28,52.05s91.15-23.3,91.15-52.05-40.81-52-91.15-52S46.47,159.08,46.47,187.82Z"/><path class="cls-45" d="M60.55,185.54c0,23.58,28.9,42.7,70.2,42.7s74.78-19.12,74.78-42.7-33.48-42.7-74.78-42.7S60.55,162,60.55,185.54Z"/><path class="cls-46" d="M74.63,183.26c0,18.42,23.86,33.35,56.12,33.35s58.42-14.93,58.42-33.35S163,149.9,130.75,149.9,74.63,164.84,74.63,183.26Z"/><ellipse class="cls-47" cx="130.75" cy="180.97" rx="42.05" ry="24.01"/></g><g class="cls-38"><path class="cls-48" d="M178,127.26c0,.3,0,.61-.07.91s-.06.52-.1.78-.08.6-.14.9-.1.53-.16.79l-.21.87c-.07.27-.15.53-.23.79s-.19.58-.29.87-.19.52-.29.77-.25.61-.39.91-.23.5-.35.76l-.46.89-.41.73c-.2.35-.42.71-.65,1.06s-.27.43-.42.64c-.26.39-.55.77-.84,1.16-.13.16-.25.33-.38.5-.48.61-1,1.21-1.55,1.81-.14.15-.3.3-.44.46-.43.45-.88.9-1.36,1.34-.21.21-.43.41-.65.61l-.86.75-.83.69c-.3.25-.62.49-.93.73l-.89.67c-.33.24-.67.48-1,.71s-.62.44-.95.65l-1.09.69c-.45.28-.91.57-1.38.84-1.3.76-2.66,1.45-4,2.12l-1.1.52c-1.25.58-2.52,1.13-3.83,1.64l-.51.21c-1.51.57-3,1.09-4.63,1.58l-.72.22c-1.52.46-3.06.87-4.62,1.25l-.72.16c-1.57.36-3.16.69-4.76,1l-1,.16c-1.37.22-2.75.42-4.14.59l-1.21.14c-1.61.17-3.23.31-4.86.41l-.9,0c-1.68.09-3.36.14-5,.14H118c-1.25,0-2.5-.05-3.75-.1-1,0-2-.09-3-.16s-1.85-.14-2.77-.23-2-.21-3-.34c-1.32-.16-2.64-.33-3.95-.56l-.28,0q-2.49-.44-4.92-1l-.77-.18c-1.52-.36-3-.77-4.51-1.21l-1.26-.39c-1.23-.39-2.45-.8-3.64-1.25-.34-.12-.7-.24-1-.38C84,154.43,83,154,81.91,153.5c-.51-.22-1-.43-1.54-.67-1.51-.72-3-1.48-4.39-2.29-9.59-5.53-15.27-12.47-17.06-19.67a20.88,20.88,0,0,1-.61-5h0l-.18,63.08c0,8.93,5.87,17.87,17.67,24.68,1.41.81,2.88,1.57,4.39,2.29.5.24,1,.44,1.54.67.9.4,1.78.81,2.7,1.18l.48.17c.35.14.7.25,1,.38,1.19.44,2.41.86,3.64,1.25l1.26.39.85.26c1.21.35,2.43.66,3.66.95l.78.17c.6.14,1.2.29,1.81.41,1,.22,2.06.41,3.1.59l.28,0c.85.15,1.7.28,2.55.41.47.06.94.09,1.4.15,1,.13,2,.24,3,.34.48,0,1,.12,1.43.16l1.34.07c1,.07,2,.12,3,.16.51,0,1,.07,1.53.08.74,0,1.48,0,2.23,0h.5c1.13,0,2.27,0,3.39-.06l1.65-.08.9,0c1.37-.08,2.73-.17,4.09-.31l.77-.09,1.21-.15c1.39-.16,2.77-.36,4.15-.58l1-.16.49-.08c1.44-.26,2.86-.56,4.27-.89l.72-.17c1.57-.37,3.1-.79,4.62-1.24l.73-.22,1-.3q1.85-.6,3.63-1.29l.51-.2c1.31-.51,2.58-1.06,3.83-1.64l1.1-.52c1.39-.67,2.74-1.36,4-2.12l.73-.43.65-.41,1.09-.69,1-.65,1-.71c.3-.22.6-.44.89-.67s.63-.48.93-.73.56-.46.83-.69l.86-.75.36-.31.3-.3q.71-.66,1.35-1.35l.44-.45c.55-.6,1.07-1.2,1.55-1.81l.07-.08.31-.42c.29-.39.58-.77.84-1.16l.42-.64c.23-.36.45-.71.66-1.06,0-.1.12-.2.17-.29s.15-.3.23-.44c.16-.3.32-.6.46-.9s.24-.5.36-.75.26-.61.38-.91c.05-.14.12-.27.17-.41l.12-.36c.1-.29.2-.58.29-.87s.16-.53.23-.79.14-.58.21-.87l.12-.47c0-.11,0-.22.05-.32.05-.3.09-.6.14-.9s.07-.52.1-.79,0-.6.06-.9,0-.35,0-.53,0-.35,0-.52l.17-63.08C178,126.56,178,126.91,178,127.26Z"/><path class="cls-49" d="M160.32,101.52c23.45,13.54,23.58,35.49.29,49s-61.19,13.54-84.63,0-23.58-35.48-.28-49S136.88,88,160.32,101.52Z"/><path class="cls-50" d="M118.36,156.24c-15.22,0-29.48-3.4-40.16-9.56-9.94-5.74-15.42-13.11-15.43-20.74s5.38-14.87,15.17-20.56c10.59-6.16,24.8-9.55,40-9.55s29.47,3.39,40.14,9.55c9.95,5.75,15.44,13.11,15.45,20.75s-5.38,14.87-15.17,20.56C147.77,152.85,133.57,156.24,118.36,156.24Z"/><path class="cls-51" d="M118.36,151.78c-14.45,0-27.92-3.18-37.93-9-8.5-4.91-13.19-10.91-13.2-16.89s4.59-11.84,13-16.7c9.92-5.77,23.34-9,37.77-9s27.91,3.19,37.92,9c8.51,4.92,13.2,10.92,13.21,16.9s-4.59,11.84-13,16.7C146.2,148.6,132.79,151.78,118.36,151.78Z"/></g><path class="cls-50" d="M124.27,122.63l-.88,1.34a1.82,1.82,0,0,1,.24,2.31c-1,1.45-3.78,2.15-6.3,1.57s-3.8-2.24-2.85-3.69a4.21,4.21,0,0,1,2.48-1.52l.91-1.4c-2.34.21-4.41,1.11-5.3,2.48-1.35,2,.46,4.4,4,5.23s7.58-.17,8.93-2.23C126.48,125.3,125.9,123.74,124.27,122.63Z"/><path class="cls-50" d="M119.06,124.73h0c-.61-.14-.91-.54-.68-.88l2.19-3.35a1.51,1.51,0,0,1,1.51-.38h0c.6.14.91.54.68.88l-2.2,3.35A1.5,1.5,0,0,1,119.06,124.73Z"/><g class="cls-38"><g class="cls-38"><g class="cls-52"><g class="cls-38"><path class="cls-53" d="M255.83,193.27l0,6.82-.21-.1,0-6.82.21.1"/><path class="cls-54" d="M255.62,193.17l0,6.82a.64.64,0,0,0-.18-.06l0-6.82.18.06"/><path class="cls-55" d="M255.44,193.11l0,6.82-.15,0,0-6.82.15,0"/><path class="cls-55" d="M255.29,193.07l0,6.82-.14,0v-6.82l.15,0"/><path class="cls-56" d="M255.14,193.05v6.82l-.15,0,0-6.82.14,0"/><path class="cls-56" d="M255,193l0,6.82h-.14l0-6.81H255"/><path class="cls-56" d="M254.86,193l0,6.81h-.15l0-6.81h.15"/><path class="cls-57" d="M254.71,193l0,6.81h-.16l0-6.81h.16"/><path class="cls-57" d="M254.55,193l0,6.81-.18,0v-6.82l.19,0"/><path class="cls-58" d="M254.36,193.06v6.82l-.28.07,0-6.82.27-.07"/><path class="cls-58" d="M254.09,193.13l0,6.82a1.3,1.3,0,0,0-.32.14h0l0-6.82h0l.32-.14"/><path class="cls-58" d="M253.75,193.28l0,6.82a1.4,1.4,0,0,0-.18.13l0-6.81a.86.86,0,0,1,.18-.14"/><path class="cls-57" d="M253.57,193.42l0,6.81-.09.1,0-6.82.09-.09"/><path class="cls-57" d="M253.48,193.51l0,6.82-.06.09,0-6.82.06-.09"/><path class="cls-56" d="M253.42,193.6l0,6.82,0,.08v-6.82s0-.05,0-.08"/><path class="cls-56" d="M253.38,193.68v6.82l0,.08,0-6.82s0,0,0-.08"/><path class="cls-56" d="M253.36,193.76l0,6.82s0,.06,0,.08l0-6.81s0-.06,0-.09"/><path class="cls-55" d="M253.35,193.85l0,6.81v0l0-6.82h0"/></g></g></g><g class="cls-38"><g class="cls-59"><g class="cls-38"><path class="cls-60" d="M253.78,194.46l0,6.82a.74.74,0,0,1-.43-.6l0-6.82a.73.73,0,0,0,.43.6"/></g></g></g><polygon class="cls-54" points="275.14 204.42 275.12 211.24 255.81 200.09 255.83 193.27 275.14 204.42"/><polygon class="cls-61" points="273.09 205.61 273.07 212.43 253.76 201.28 253.78 194.46 273.09 205.61"/><g class="cls-38"><g class="cls-62"><g class="cls-38"><path class="cls-63" d="M275.56,205v0h0"/><path class="cls-64" d="M275.56,205v6.82a.19.19,0,0,0,0,.08v-6.82a.19.19,0,0,0,0-.08"/><path class="cls-65" d="M275.55,205.11v6.82l0,.08,0-6.81a.29.29,0,0,0,0-.09"/><path class="cls-66" d="M275.53,205.2l0,6.81a.2.2,0,0,1,0,.08l0-6.81,0-.08"/><path class="cls-67" d="M275.49,205.28l0,6.81a.24.24,0,0,1-.06.09l0-6.81a.24.24,0,0,0,.06-.09"/><path class="cls-68" d="M275.43,205.37l0,6.81a.41.41,0,0,1-.09.1l0-6.82a.38.38,0,0,0,.09-.09"/><path class="cls-69" d="M275.34,205.46l0,6.82a.83.83,0,0,1-.18.13l0-6.81a.86.86,0,0,0,.18-.14"/><path class="cls-70" d="M275.16,205.6l0,6.81h0a1.35,1.35,0,0,1-.32.15l0-6.82a1.55,1.55,0,0,0,.32-.14h0"/><path class="cls-69" d="M274.82,205.75l0,6.82a2.14,2.14,0,0,1-.27.06l0-6.81.27-.07"/><path class="cls-68" d="M274.55,205.82l0,6.81-.19,0,0-6.82.19,0"/><path class="cls-67" d="M274.36,205.84l0,6.82h-.16l0-6.82h.16"/><path class="cls-66" d="M274.2,205.85l0,6.82H274l0-6.82a.33.33,0,0,0,.14,0"/><path class="cls-65" d="M274.06,205.85l0,6.82h-.15l0-6.81h.15"/><path class="cls-64" d="M273.91,205.85l0,6.81h-.14l0-6.82.14,0"/><path class="cls-71" d="M273.77,205.83l0,6.82-.14,0,0-6.81.14,0"/><path class="cls-72" d="M273.63,205.81l0,6.81-.15,0,0-6.82.15,0"/><path class="cls-73" d="M273.48,205.77l0,6.82-.18-.06,0-6.82.18.06"/><path class="cls-60" d="M273.3,205.71l0,6.82-.21-.11,0-6.81.21.1"/></g></g></g><g class="cls-38"><g class="cls-74"><g class="cls-38"><path class="cls-53" d="M279.14,206.73l0,6.82-.21-.1,0-6.82.21.1"/><path class="cls-54" d="M278.93,206.63l0,6.82a.55.55,0,0,0-.18-.06l0-6.82.18.06"/><path class="cls-55" d="M278.75,206.57l0,6.82-.15,0,0-6.82.15,0"/><path class="cls-55" d="M278.6,206.53l0,6.82-.14,0,0-6.82.14,0"/><path class="cls-56" d="M278.46,206.51l0,6.82-.14,0,0-6.82.14,0"/><path class="cls-56" d="M278.32,206.49l0,6.82h-.14l0-6.81h.14"/><path class="cls-56" d="M278.18,206.49l0,6.81H278l0-6.81h.15"/><path class="cls-57" d="M278,206.49l0,6.81h-.16l0-6.81H278"/><path class="cls-57" d="M277.87,206.5l0,6.81-.19,0,0-6.82.19,0"/><path class="cls-58" d="M277.68,206.52l0,6.82-.27.07,0-6.82.27-.07"/><path class="cls-58" d="M277.41,206.59l0,6.82a1.55,1.55,0,0,0-.32.14h0l0-6.82h0a1.92,1.92,0,0,1,.32-.14"/><path class="cls-58" d="M277.07,206.74l0,6.82a.86.86,0,0,0-.18.14l0-6.82a1.41,1.41,0,0,1,.18-.14"/><path class="cls-57" d="M276.89,206.88l0,6.82a.38.38,0,0,0-.09.09l0-6.81a.28.28,0,0,1,.09-.1"/><path class="cls-57" d="M276.8,207l0,6.81a.24.24,0,0,0-.06.09l0-6.82a.16.16,0,0,1,.06-.08"/><path class="cls-56" d="M276.74,207.06l0,6.82a.3.3,0,0,0,0,.08l0-6.82,0-.08"/><path class="cls-56" d="M276.7,207.14l0,6.82a.31.31,0,0,0,0,.08l0-6.81a.29.29,0,0,1,0-.09"/><path class="cls-56" d="M276.68,207.23l0,6.81a.28.28,0,0,0,0,.09l0-6.82a.19.19,0,0,1,0-.08"/><path class="cls-55" d="M276.67,207.31l0,6.82h0l0-6.82h0"/></g></g></g><g class="cls-38"><g class="cls-75"><g class="cls-38"><path class="cls-76" d="M279.57,207.33l0,6.82h0l0-6.82h0"/><path class="cls-64" d="M279.57,207.34l0,6.82s0,.05,0,.08l0-6.81s0-.06,0-.09"/><path class="cls-65" d="M279.56,207.43l0,6.81,0,.08,0-6.81,0-.08"/><path class="cls-66" d="M279.53,207.51l0,6.81,0,.09,0-6.82,0-.08"/><path class="cls-67" d="M279.5,207.59l0,6.82-.06.08,0-6.81.06-.09"/><path class="cls-68" d="M279.44,207.68l0,6.81-.09.1,0-6.82.09-.09"/><path class="cls-69" d="M279.35,207.77l0,6.82a1.56,1.56,0,0,1-.19.14l0-6.82a1.33,1.33,0,0,0,.19-.14"/><path class="cls-70" d="M279.16,207.91l0,6.82h0l-.32.14,0-6.82a1.83,1.83,0,0,0,.32-.14h0"/><path class="cls-69" d="M278.83,208.06l0,6.82a2.61,2.61,0,0,1-.27.06v-6.81l.28-.07"/><path class="cls-68" d="M278.55,208.13v6.81l-.19,0,0-6.82.18,0"/><path class="cls-67" d="M278.37,208.15l0,6.82h-.16l0-6.82h.16"/><path class="cls-66" d="M278.21,208.16l0,6.82H278l0-6.81h.15"/><path class="cls-65" d="M278.06,208.17l0,6.81h-.14l0-6.81h.14"/><path class="cls-64" d="M277.92,208.16l0,6.81h-.14l0-6.82.14,0"/><path class="cls-77" d="M277.78,208.14l0,6.82-.15,0,0-6.81.15,0"/><path class="cls-72" d="M277.63,208.12l0,6.81-.15,0,0-6.82.15,0"/><path class="cls-73" d="M277.48,208.08l0,6.82-.18-.06,0-6.82.18.06"/><path class="cls-60" d="M277.3,208l0,6.82-.21-.1a.75.75,0,0,1-.42-.6l0-6.82a.73.73,0,0,0,.42.6l.21.1"/></g></g></g><polygon class="cls-54" points="282.04 218.95 282.02 225.77 225.83 193.32 225.85 186.51 282.04 218.95"/><polygon class="cls-78" points="225.85 186.51 225.83 193.32 126.53 251.03 126.55 244.22 225.85 186.51"/><path class="cls-37" d="M113.63,257.71l0-6.82c0,2,1.33,4.06,4,5.6l0,6.82C115,261.76,113.63,259.73,113.63,257.71Z"/><polygon class="cls-79" points="182.74 276.66 182.72 283.47 126.53 251.03 126.55 244.22 182.74 276.66"/><g class="cls-38"><g class="cls-80"><g class="cls-38"><path class="cls-53" d="M150.81,264.42l0,6.81A3.07,3.07,0,0,0,149,268.7a8.14,8.14,0,0,0-.89-.43l0-6.81a6.6,6.6,0,0,1,.89.42,3.08,3.08,0,0,1,1.81,2.54"/><path class="cls-54" d="M148.11,261.46l0,6.81c-.24-.09-.49-.18-.75-.25l0-6.82c.26.08.51.16.75.26"/><path class="cls-55" d="M147.36,261.2l0,6.82-.64-.16,0-6.81c.22,0,.43.09.64.15"/><path class="cls-55" d="M146.72,261.05l0,6.81-.6-.1v-6.82l.61.11"/><path class="cls-56" d="M146.11,260.94v6.82l-.6-.07,0-6.82.59.07"/><path class="cls-56" d="M145.52,260.87l0,6.82a6.08,6.08,0,0,0-.61,0l0-6.82.61,0"/><path class="cls-56" d="M144.91,260.84l0,6.82q-.31,0-.63,0l0-6.82h.63"/><path class="cls-57" d="M144.28,260.84l0,6.82c-.22,0-.45,0-.68,0l0-6.82.68-.05"/><path class="cls-57" d="M143.6,260.89l0,6.82a7,7,0,0,0-.78.11l0-6.82c.26-.05.52-.08.78-.11"/><path class="cls-58" d="M142.82,261l0,6.82a8.54,8.54,0,0,0-1.16.28v-6.81a9.09,9.09,0,0,1,1.17-.29"/><path class="cls-58" d="M141.65,261.29v6.81a6.91,6.91,0,0,0-1.35.6l-.08,0,0-6.81.08-.05a7.06,7.06,0,0,1,1.34-.59"/><path class="cls-58" d="M140.23,261.93l0,6.81a4.7,4.7,0,0,0-.77.58V262.5a4.91,4.91,0,0,1,.78-.57"/><path class="cls-57" d="M139.45,262.5v6.82a3,3,0,0,0-.39.41l0-6.82a3.62,3.62,0,0,1,.38-.41"/><path class="cls-57" d="M139.07,262.91l0,6.82a3.75,3.75,0,0,0-.24.36l0-6.81a2.92,2.92,0,0,1,.24-.37"/><path class="cls-56" d="M138.83,263.28l0,6.81a3.7,3.7,0,0,0-.17.35l0-6.81a2.26,2.26,0,0,1,.17-.35"/><path class="cls-56" d="M138.66,263.63l0,6.81c0,.12-.07.23-.1.35l0-6.82c0-.11.06-.23.1-.34"/><path class="cls-56" d="M138.56,264l0,6.82c0,.12,0,.23,0,.35l0-6.81c0-.12,0-.24,0-.36"/><path class="cls-55" d="M138.52,264.33l0,6.81v.06l0-6.82v-.05"/></g></g></g><g class="cls-38"><g class="cls-81"><g class="cls-38"><path class="cls-82" d="M150.81,264.42l0,6.81v0l0-6.81v-.05"/><path class="cls-64" d="M150.81,264.47l0,6.81a2.2,2.2,0,0,1,0,.36l0-6.82a2.09,2.09,0,0,0,0-.35"/><path class="cls-65" d="M150.77,264.82l0,6.82a2.19,2.19,0,0,1-.1.34l0-6.81a2.3,2.3,0,0,0,.1-.35"/><path class="cls-66" d="M150.67,265.17l0,6.81a2.21,2.21,0,0,1-.16.35l0-6.81a2.72,2.72,0,0,0,.16-.35"/><path class="cls-67" d="M150.51,265.52l0,6.81a2.19,2.19,0,0,1-.25.37l0-6.82a3.9,3.9,0,0,0,.25-.36"/><path class="cls-68" d="M150.26,265.88l0,6.82a3.62,3.62,0,0,1-.38.41l0-6.82a3.62,3.62,0,0,0,.38-.41"/><path class="cls-69" d="M149.88,266.29l0,6.82a4.94,4.94,0,0,1-.78.58l0-6.82a4.39,4.39,0,0,0,.78-.58"/><path class="cls-70" d="M149.1,266.87l0,6.82-.07,0a6.57,6.57,0,0,1-1.35.59l0-6.81a7.18,7.18,0,0,0,1.35-.6l.07,0"/><path class="cls-69" d="M147.68,267.51l0,6.81a8.55,8.55,0,0,1-1.16.29l0-6.81a10.35,10.35,0,0,0,1.16-.29"/><path class="cls-68" d="M146.52,267.8l0,6.81c-.26.05-.52.08-.79.11l0-6.82c.27,0,.53-.06.79-.1"/><path class="cls-67" d="M145.73,267.9l0,6.82-.68,0,0-6.82c.23,0,.46,0,.68-.05"/><path class="cls-66" d="M145.05,268l0,6.82h-.63l0-6.82h.63"/><path class="cls-65" d="M144.42,268l0,6.82-.6,0,0-6.82.6,0"/><path class="cls-64" d="M143.82,267.92l0,6.82-.6-.07,0-6.82.6.07"/><path class="cls-83" d="M143.22,267.85l0,6.82a6,6,0,0,1-.61-.11l0-6.81a6,6,0,0,0,.61.1"/><path class="cls-72" d="M142.61,267.75l0,6.81c-.22,0-.43-.09-.64-.15l0-6.82.64.16"/><path class="cls-73" d="M142,267.59l0,6.82-.75-.25,0-6.82c.24.09.49.18.75.25"/><path class="cls-60" d="M141.22,267.34l0,6.82a7.19,7.19,0,0,1-.88-.43,3.1,3.1,0,0,1-1.82-2.53l0-6.82a3.06,3.06,0,0,0,1.82,2.53,6,6,0,0,0,.88.43"/></g></g></g><g class="cls-38"><g class="cls-84"><g class="cls-38"><path class="cls-53" d="M150.81,264.42l0,6.81A3.07,3.07,0,0,0,149,268.7a8.14,8.14,0,0,0-.89-.43l0-6.81a6.6,6.6,0,0,1,.89.42,3.08,3.08,0,0,1,1.81,2.54"/></g></g></g><polygon class="cls-85" points="282.04 218.95 282.02 225.77 182.72 283.47 182.74 276.66 282.04 218.95"/><path class="cls-86" d="M292.38,206.49c5.33,3.08,5.36,8.06.07,11.13L181.37,282.18c-5.3,3.07-13.9,3.07-19.22,0l-44.49-25.69c-5.32-3.07-5.35-8.05-.06-11.13l111.08-64.55c5.29-3.07,13.89-3.08,19.22,0ZM182.74,276.66,282,219l-56.19-32.44-99.3,57.71,56.19,32.44m-42.4-9.75a9.58,9.58,0,0,0,8.69,0c2.39-1.39,2.37-3.64,0-5a9.58,9.58,0,0,0-8.69,0c-2.39,1.39-2.38,3.64,0,5m115.49-73.64a2.27,2.27,0,0,0-2.06,0,.63.63,0,0,0,0,1.19l19.31,11.15a2.25,2.25,0,0,0,2.05,0,.63.63,0,0,0,0-1.19l-19.31-11.15m23.31,13.46a2.25,2.25,0,0,0-2.05,0,.63.63,0,0,0,0,1.19,2.27,2.27,0,0,0,2.06,0,.63.63,0,0,0,0-1.19"/><path class="cls-50" d="M275.14,204.42a.63.63,0,0,1,0,1.19,2.25,2.25,0,0,1-2.05,0l-19.31-11.15a.63.63,0,0,1,0-1.19,2.27,2.27,0,0,1,2.06,0Z"/><path class="cls-50" d="M279.14,206.73a.63.63,0,0,1,0,1.19,2.27,2.27,0,0,1-2.06,0,.63.63,0,0,1,0-1.19A2.25,2.25,0,0,1,279.14,206.73Z"/><g class="cls-38"><path class="cls-55" d="M296.4,212.1l0,6.81v-6.69a.49.49,0,0,0,0-.12"/><path class="cls-56" d="M296.39,212.22V219a5.18,5.18,0,0,1-.09.78l0-6.81a4.13,4.13,0,0,0,.08-.78"/></g><path class="cls-50" d="M149,261.88c2.4,1.39,2.42,3.64,0,5a9.58,9.58,0,0,1-8.69,0c-2.41-1.39-2.42-3.64,0-5A9.58,9.58,0,0,1,149,261.88Z"/><path class="cls-87" d="M144.69,268.11a9,9,0,0,1-4.43-1.06,3.21,3.21,0,0,1-1.89-2.66,3.16,3.16,0,0,1,1.86-2.64,9.73,9.73,0,0,1,8.85,0h0a2.81,2.81,0,0,1,0,5.3A8.91,8.91,0,0,1,144.69,268.11Zm0-7.12a8.66,8.66,0,0,0-4.26,1,2.89,2.89,0,0,0-1.71,2.37,3,3,0,0,0,1.73,2.39,9.45,9.45,0,0,0,8.54,0,2.87,2.87,0,0,0,1.7-2.37,2.91,2.91,0,0,0-1.73-2.39h0A8.76,8.76,0,0,0,144.65,261Z"/><polygon class="cls-50" points="282.04 218.95 182.74 276.66 126.55 244.22 225.85 186.51 282.04 218.95"/><path class="cls-88" d="M117.64,270l44.49,25.69c.32.18.65.36,1,.52l.35.15c.2.09.4.19.61.27l.11,0,.23.08c.28.11.55.2.83.29l.29.09.19.06.83.21.18,0c.14,0,.27.07.41.09a3.43,3.43,0,0,0,.34.06l.72.13.29.05.31,0,.68.08.33,0h.3l.69,0,.35,0h1.39l.37,0h.21l.92-.07.18,0,.27,0c.32,0,.63-.08,1-.14l.22,0,.12,0,.43-.09.75-.16.54-.15.7-.2.15,0,.82-.29.12-.05c.3-.12.59-.24.87-.37l.25-.12c.31-.15.62-.31.92-.48l111.08-64.56.17-.09.14-.1.25-.15.22-.15.23-.16.2-.15.21-.17L294,230a1.54,1.54,0,0,0,.19-.17l.09-.07.06-.06.31-.31.1-.1c.13-.14.24-.28.35-.42h0a.61.61,0,0,1,.07-.1l.19-.26.1-.15c.05-.08.1-.16.14-.24l0-.06.06-.1.1-.21a.89.89,0,0,0,.08-.17l.09-.2a1,1,0,0,1,0-.1s0-.05,0-.08a1.59,1.59,0,0,0,.07-.2,1.21,1.21,0,0,0,0-.18,1.33,1.33,0,0,0,.05-.19l0-.11v0a5.25,5.25,0,0,0,.09-.88l0-6.82a4.89,4.89,0,0,1-.12,1l0,.2a1.21,1.21,0,0,1-.05.18,1.46,1.46,0,0,1-.07.19l-.06.18-.09.21-.08.17c0,.07-.07.13-.1.2l-.1.17a1.58,1.58,0,0,1-.15.24l-.09.14-.19.26-.09.12c-.11.14-.23.27-.35.41l-.1.1c-.1.11-.2.21-.31.31l-.14.14-.2.17-.19.16-.21.16-.2.15-.23.16-.22.15-.25.16-.31.19L181.37,288.82c-.3.18-.61.33-.92.49l-.25.11c-.28.13-.57.26-.87.37l-.12,0-1,.34-.7.2-.54.14-.75.16-.55.11-.23,0-.94.13-.27,0-1.1.1H173l-.74,0h-.75l-.62,0-.69,0-.63-.06-.68-.07-.6-.09-.72-.12-.75-.15-.18,0-1-.28-.29-.09-.83-.28-.23-.09c-.25-.09-.48-.2-.72-.3l-.36-.16c-.34-.16-.67-.33-1-.52l-44.49-25.68h0c-2.68-1.55-4-3.58-4-5.6l0,6.81c0,2,1.33,4.06,4,5.6"/><path class="cls-89" d="M117.64,263.31,162.13,289a10.47,10.47,0,0,0,1,.52l.35.16.61.26.11,0,.23.09.83.28.29.09.19.06.83.22.18,0,.41.09.34.06.72.12.29.05.31,0,.68.07.33,0,.3,0,.69,0,.35,0h1.39l.37,0h.21l.92-.07.18,0,.27,0,1-.13.22,0,.12,0,.43-.09.75-.16.54-.14.7-.2.15-.05c.28-.09.55-.18.82-.29l.12-.05c.3-.11.59-.24.87-.37l.25-.11c.31-.16.62-.31.92-.49l111.08-64.55.17-.1.14-.09.25-.16.22-.15.23-.16.2-.15.21-.17.19-.15.19-.17.09-.07.06-.07c.11-.1.21-.2.31-.31l.1-.1a4.47,4.47,0,0,0,.35-.41l0,0,.07-.1a2.48,2.48,0,0,0,.19-.26l.1-.14c.05-.08.1-.16.14-.24l0-.07.06-.1.1-.2.08-.17.09-.21,0-.09s0-.06,0-.09a1.46,1.46,0,0,0,.07-.19,1.21,1.21,0,0,0,0-.18,1.46,1.46,0,0,0,.05-.2l0-.11v0a5.15,5.15,0,0,0,.09-.88l0-6.81a4.88,4.88,0,0,1-.12,1c0,.07,0,.14,0,.2a1.21,1.21,0,0,1-.05.18,1.59,1.59,0,0,1-.07.2l-.06.17-.09.21a1.3,1.3,0,0,1-.08.17l-.1.21a1.4,1.4,0,0,1-.1.16,1.58,1.58,0,0,1-.15.24l-.09.15-.19.26-.09.11c-.11.14-.23.28-.35.41l-.1.11-.31.3a1.85,1.85,0,0,1-.14.14l-.2.17-.19.16-.21.16-.2.16-.23.16-.22.15-.25.15-.31.19L181.37,282.18c-.3.17-.61.33-.92.48l-.25.12c-.28.13-.57.25-.87.37l-.12.05c-.32.12-.64.23-1,.33l-.7.2-.54.14-.75.16-.55.12-.23,0-.94.14-.27,0-1.1.09H173l-.74,0h-.75l-.62,0-.69,0-.63-.05-.68-.08-.6-.08-.72-.13c-.25-.05-.51-.09-.75-.15l-.18,0c-.35-.08-.69-.18-1-.27l-.29-.09-.83-.29-.23-.08-.72-.31-.36-.15c-.34-.17-.67-.34-1-.52l-44.49-25.69h0c-2.68-1.54-4-3.57-4-5.6l0,6.82c0,2,1.33,4.05,4,5.6"/></g><path class="cls-90" d="M294.39,208c2.79,3,2,6.79-2.3,9.3L181,281.82c-5.29,3.07-13.9,3.07-19.22,0L117.3,256.13a10.25,10.25,0,0,1-2-1.47,10.1,10.1,0,0,0,2.36,1.83l44.49,25.69c5.32,3.07,13.92,3.07,19.22,0l111.08-64.56C297,215,297.6,211,294.39,208Z"/><path class="cls-91" d="M190.16,239.26c-1.9-.83-5.58-.4-8.2,1l-9,4.62c-1.61.83-2.46,1.81-2.44,2.64,0,.52.37,1,1.11,1.3,1.89.83,5.57.4,8.2-1l9-4.62c1.62-.83,2.46-1.81,2.44-2.64C191.24,240,190.88,239.58,190.16,239.26Z"/><path class="cls-92" d="M180.56,248.64a15.56,15.56,0,0,1-9.92,1.46c-1.58-.41-2.5-1.17-2.52-2.11a1.15,1.15,0,0,1,0-.19c.11-1,1.18-2.15,3.12-3.32.27-.17.41-.35.4-.5s-.1-.24-.32-.3a2.57,2.57,0,0,0-1.63.25l-.13.07c-2.44,1.49-3.81,3-3.93,4.27a1.93,1.93,0,0,0,0,.24,2.52,2.52,0,0,0,1.44,2.05l-3.88,2-4.69-2.05a1.92,1.92,0,0,0-1.37.18c-.3.15-.46.32-.45.46s.06.16.18.21L167.48,256a1.9,1.9,0,0,0,1.4-.18c.28-.14.43-.32.43-.46s-.06-.16-.17-.21l-4.82-2.1,3.86-2a6.52,6.52,0,0,0,.63.18c3.07.8,8.56.37,13.14-2,.36-.19.56-.4.55-.57s-.07-.2-.22-.26A2.35,2.35,0,0,0,180.56,248.64Z"/><g class="cls-93"><g class="cls-94"><path class="cls-39" d="M97.07,104h0a1.32,1.32,0,0,1-1.33-1.33V20a1.32,1.32,0,0,1,1.33-1.33h0A1.33,1.33,0,0,1,98.4,20v82.59A1.33,1.33,0,0,1,97.07,104Z"/></g><g class="cls-95"><path class="cls-39" d="M69.2,134.25h0A1.18,1.18,0,0,1,68,133.07V60.35a1.17,1.17,0,0,1,1.17-1.17h0a1.17,1.17,0,0,1,1.18,1.17v72.72A1.18,1.18,0,0,1,69.2,134.25Z"/></g><g class="cls-96"><path class="cls-39" d="M80,77.37h0a.77.77,0,0,1-.76-.77V29.12a.76.76,0,0,1,.76-.76h0a.76.76,0,0,1,.77.76V76.6A.77.77,0,0,1,80,77.37Z"/></g><g class="cls-97"><path class="cls-39" d="M88.63,46.81h0a.38.38,0,0,1-.38-.37v-41a.37.37,0,0,1,.38-.37h0a.37.37,0,0,1,.37.37v41A.38.38,0,0,1,88.63,46.81Z"/></g><g class="cls-98"><path class="cls-39" d="M59.7,114.47h0a1.38,1.38,0,0,1-1.38-1.38V27.68A1.38,1.38,0,0,1,59.7,26.3h0a1.37,1.37,0,0,1,1.37,1.38v85.41A1.37,1.37,0,0,1,59.7,114.47Z"/></g></g><g class="cls-99"><path class="cls-39" d="M99.39,168.85h0a1.34,1.34,0,0,1-1.33-1.33V84.92a1.34,1.34,0,0,1,1.33-1.33h0a1.33,1.33,0,0,1,1.33,1.33v82.6A1.33,1.33,0,0,1,99.39,168.85Z"/></g><g class="cls-100"><path class="cls-39" d="M85.13,165.32h0a.77.77,0,0,1-.77-.76V117.08a.77.77,0,0,1,.77-.76h0a.77.77,0,0,1,.77.76v47.48A.77.77,0,0,1,85.13,165.32Z"/></g><g class="cls-101"><path class="cls-39" d="M90.58,140.25h0a.37.37,0,0,1-.37-.37v-41a.37.37,0,0,1,.37-.38h0a.38.38,0,0,1,.37.38v41A.38.38,0,0,1,90.58,140.25Z"/></g><g class="cls-102"><path class="cls-39" d="M109.21,220.15h0a1.37,1.37,0,0,1-1.38-1.37V133.36a1.38,1.38,0,0,1,1.38-1.38h0a1.37,1.37,0,0,1,1.37,1.38v85.42A1.37,1.37,0,0,1,109.21,220.15Z"/></g><g class="cls-93"><g class="cls-103"><path class="cls-39" d="M155.52,188.63h0a1.32,1.32,0,0,1-1.33-1.33V104.71a1.32,1.32,0,0,1,1.33-1.33h0a1.33,1.33,0,0,1,1.33,1.33V187.3A1.33,1.33,0,0,1,155.52,188.63Z"/></g><g class="cls-104"><path class="cls-39" d="M127.66,218.93h0a1.18,1.18,0,0,1-1.18-1.18V145a1.17,1.17,0,0,1,1.18-1.17h0a1.17,1.17,0,0,1,1.17,1.17v72.72A1.18,1.18,0,0,1,127.66,218.93Z"/></g><g class="cls-105"><path class="cls-39" d="M138.49,162.05h0a.77.77,0,0,1-.77-.77V113.8a.76.76,0,0,1,.77-.76h0a.76.76,0,0,1,.76.76v47.48A.77.77,0,0,1,138.49,162.05Z"/></g><g class="cls-106"><path class="cls-39" d="M147.08,131.49h0a.37.37,0,0,1-.37-.37v-41a.36.36,0,0,1,.37-.37h0a.37.37,0,0,1,.37.37v41A.38.38,0,0,1,147.08,131.49Z"/></g><g class="cls-107"><path class="cls-39" d="M108.57,135.39h0a1.38,1.38,0,0,1-1.38-1.38V48.59a1.37,1.37,0,0,1,1.38-1.37h0A1.37,1.37,0,0,1,110,48.59V134A1.38,1.38,0,0,1,108.57,135.39Z"/></g></g><g class="cls-108"><path class="cls-39" d="M161.82,86.21h0a1.32,1.32,0,0,1-1.33-1.33V2.29A1.33,1.33,0,0,1,161.82,1h0a1.34,1.34,0,0,1,1.33,1.33V84.88A1.33,1.33,0,0,1,161.82,86.21Z"/></g><g class="cls-109"><path class="cls-39" d="M147.56,82.69h0a.76.76,0,0,1-.77-.76V34.45a.77.77,0,0,1,.77-.77h0a.77.77,0,0,1,.76.77V81.93A.76.76,0,0,1,147.56,82.69Z"/></g><g class="cls-110"><path class="cls-39" d="M153,57.62h0a.38.38,0,0,1-.38-.38v-41a.38.38,0,0,1,.38-.37h0a.38.38,0,0,1,.37.37v41A.38.38,0,0,1,153,57.62Z"/></g><g class="cls-111"><path class="cls-39" d="M171.63,137.52h0a1.37,1.37,0,0,1-1.37-1.38V50.73a1.37,1.37,0,0,1,1.37-1.38h0A1.38,1.38,0,0,1,173,50.73v85.41A1.38,1.38,0,0,1,171.63,137.52Z"/></g></g></g></svg>