<?xml version="1.0" encoding="utf-8"?>
<!-- Generator: Adobe Illustrator 23.0.2, SVG Export Plug-In . SVG Version: 6.00 Build 0)  -->
<svg version="1.0" id="Layer_1" xmlns="http://www.w3.org/2000/svg" xmlns:xlink="http://www.w3.org/1999/xlink" x="0px" y="0px"
	 viewBox="0 0 1451.34 1451.34" style="enable-background:new 0 0 1451.34 1451.34;" xml:space="preserve">
<style type="text/css">
	.st0{fill:#1E4497;}
	.st1{opacity:0.25;}
	.st2{opacity:0.5;fill:#C7D9E7;}
	.st3{opacity:0.5833;fill:#CCD8E7;}
	.st4{opacity:0.6667;fill:#D1D6E6;}
	.st5{opacity:0.75;fill:#D7D5E6;}
	.st6{opacity:0.8333;fill:#DCD4E6;}
	.st7{opacity:0.9167;fill:#E1D3E6;}
	.st8{fill:#E6D2E6;}
	.st9{fill:#FFFFFF;}
	.st10{enable-background:new    ;}
	.st11{fill:url(#SVGID_1_);}
	.st12{fill:url(#SVGID_2_);}
	.st13{fill:#C7D9E7;}
	.st14{fill:url(#SVGID_3_);}
	.st15{clip-path:url(#SVGID_5_);enable-background:new    ;}
	.st16{fill:#141414;}
	.st17{fill:#151515;}
	.st18{fill:#161616;}
	.st19{fill:#171717;}
	.st20{fill:#181818;}
	.st21{fill:#191919;}
	.st22{clip-path:url(#SVGID_7_);enable-background:new    ;}
	.st23{fill:#707070;}
	.st24{fill:#737374;}
	.st25{clip-path:url(#SVGID_9_);enable-background:new    ;}
	.st26{fill:#7D7D7D;}
	.st27{fill:#818181;}
	.st28{fill:#848485;}
	.st29{fill:#888888;}
	.st30{fill:#8C8C8C;}
	.st31{fill:#919191;}
	.st32{fill:#959595;}
	.st33{fill:#9A9A99;}
	.st34{fill:#787879;}
	.st35{fill:#757575;}
	.st36{clip-path:url(#SVGID_11_);enable-background:new    ;}
	.st37{clip-path:url(#SVGID_13_);enable-background:new    ;}
	.st38{fill:#1B1B1B;}
	.st39{fill:none;}
	.st40{fill:#565656;}
	.st41{clip-path:url(#SVGID_15_);enable-background:new    ;}
	.st42{clip-path:url(#SVGID_17_);enable-background:new    ;}
	.st43{clip-path:url(#SVGID_19_);enable-background:new    ;}
	.st44{fill:#7B7B7B;}
	.st45{fill:url(#SVGID_20_);}
	.st46{fill:#57687A;}
	.st47{opacity:0.2;fill:#010101;}
	.st48{fill:url(#SVGID_21_);}
	.st49{fill:#C49558;stroke:#010101;stroke-width:0.75;stroke-miterlimit:10;}
	.st50{fill:url(#SVGID_22_);}
	.st51{fill:url(#SVGID_23_);}
	.st52{fill:url(#SVGID_24_);}
	.st53{filter:url(#Adobe_OpacityMaskFilter);}
	.st54{filter:url(#Adobe_OpacityMaskFilter_1_);}
	.st55{mask:url(#SVGID_25_);fill:url(#SVGID_26_);}
	.st56{filter:url(#Adobe_OpacityMaskFilter_2_);}
	.st57{filter:url(#Adobe_OpacityMaskFilter_3_);}
	.st58{mask:url(#SVGID_27_);fill:url(#SVGID_28_);}
	.st59{filter:url(#Adobe_OpacityMaskFilter_4_);}
	.st60{filter:url(#Adobe_OpacityMaskFilter_5_);}
	.st61{mask:url(#SVGID_29_);fill:url(#SVGID_30_);}
	.st62{filter:url(#Adobe_OpacityMaskFilter_6_);}
	.st63{filter:url(#Adobe_OpacityMaskFilter_7_);}
	.st64{mask:url(#SVGID_31_);fill:url(#SVGID_32_);}
	.st65{filter:url(#Adobe_OpacityMaskFilter_8_);}
	.st66{filter:url(#Adobe_OpacityMaskFilter_9_);}
	.st67{mask:url(#SVGID_33_);fill:url(#SVGID_34_);}
	.st68{filter:url(#Adobe_OpacityMaskFilter_10_);}
	.st69{filter:url(#Adobe_OpacityMaskFilter_11_);}
	.st70{mask:url(#SVGID_35_);fill:url(#SVGID_36_);}
	.st71{filter:url(#Adobe_OpacityMaskFilter_12_);}
	.st72{filter:url(#Adobe_OpacityMaskFilter_13_);}
	.st73{mask:url(#SVGID_37_);fill:url(#SVGID_38_);}
	.st74{filter:url(#Adobe_OpacityMaskFilter_14_);}
	.st75{filter:url(#Adobe_OpacityMaskFilter_15_);}
	.st76{mask:url(#SVGID_39_);fill:url(#SVGID_40_);}
	.st77{filter:url(#Adobe_OpacityMaskFilter_16_);}
	.st78{filter:url(#Adobe_OpacityMaskFilter_17_);}
	.st79{mask:url(#SVGID_41_);fill:url(#SVGID_42_);}
	.st80{filter:url(#Adobe_OpacityMaskFilter_18_);}
	.st81{filter:url(#Adobe_OpacityMaskFilter_19_);}
	.st82{mask:url(#SVGID_43_);fill:url(#SVGID_44_);}
	.st83{filter:url(#Adobe_OpacityMaskFilter_20_);}
	.st84{filter:url(#Adobe_OpacityMaskFilter_21_);}
	.st85{mask:url(#SVGID_45_);fill:url(#SVGID_46_);}
	.st86{filter:url(#Adobe_OpacityMaskFilter_22_);}
	.st87{filter:url(#Adobe_OpacityMaskFilter_23_);}
	.st88{mask:url(#SVGID_47_);fill:url(#SVGID_48_);}
	.st89{filter:url(#Adobe_OpacityMaskFilter_24_);}
	.st90{filter:url(#Adobe_OpacityMaskFilter_25_);}
	.st91{mask:url(#SVGID_49_);fill:url(#SVGID_50_);}
	.st92{filter:url(#Adobe_OpacityMaskFilter_26_);}
	.st93{filter:url(#Adobe_OpacityMaskFilter_27_);}
	.st94{mask:url(#SVGID_51_);fill:url(#SVGID_52_);}
	.st95{filter:url(#Adobe_OpacityMaskFilter_28_);}
	.st96{filter:url(#Adobe_OpacityMaskFilter_29_);}
	.st97{mask:url(#SVGID_53_);fill:url(#SVGID_54_);}
	.st98{filter:url(#Adobe_OpacityMaskFilter_30_);}
	.st99{filter:url(#Adobe_OpacityMaskFilter_31_);}
	.st100{mask:url(#SVGID_55_);fill:url(#SVGID_56_);}
	.st101{filter:url(#Adobe_OpacityMaskFilter_32_);}
	.st102{filter:url(#Adobe_OpacityMaskFilter_33_);}
	.st103{mask:url(#SVGID_57_);fill:url(#SVGID_58_);}
	.st104{filter:url(#Adobe_OpacityMaskFilter_34_);}
	.st105{filter:url(#Adobe_OpacityMaskFilter_35_);}
	.st106{mask:url(#SVGID_59_);fill:url(#SVGID_60_);}
</style>
<g>
	<g>
		<polyline class="st0" points="1088.73,467.26 1081.93,463.34 1081.15,738.5 1087.95,742.43 1088.73,467.26 		"/>
		<polyline class="st0" points="1071.2,495.95 1064.33,491.99 1063.77,689.58 1070.63,693.55 1071.2,495.95 		"/>
		<polyline class="st0" points="1054.03,514.21 1047.23,510.29 1046.83,651.7 1053.62,655.62 1054.03,514.21 		"/>
		<polyline class="st0" points="1036.94,524.63 1030.15,520.7 1029.86,621.63 1036.66,625.55 1036.94,524.63 		"/>
		<polyline class="st0" points="1019.8,534.32 1013,530.4 1012.83,592.12 1019.62,596.05 1019.8,534.32 		"/>
		<polyline class="st0" points="1002.72,541.86 995.93,537.94 995.85,565 1002.65,568.93 1002.72,541.86 		"/>
		<polyline class="st0" points="1106.04,516.06 1099.24,512.14 1098.68,709.74 1105.48,713.66 1106.04,516.06 		"/>
		<polyline class="st0" points="1122.98,554.03 1116.19,550.1 1115.78,691.51 1122.58,695.44 1122.98,554.03 		"/>
		<polyline class="st0" points="1140.02,584.14 1133.22,580.21 1132.93,681.13 1139.73,685.06 1140.02,584.14 		"/>
		<polyline class="st0" points="1156.98,613.53 1150.19,609.61 1150.01,671.33 1156.81,675.25 1156.98,613.53 		"/>
		<polyline class="st0" points="1174.03,640.76 1167.16,636.8 1167.09,663.87 1173.95,667.83 1174.03,640.76 		"/>
		<polyline class="st0" points="917.03,389.02 910.17,385.06 909.51,618.45 916.37,622.41 917.03,389.02 		"/>
		<polyline class="st0" points="899.44,417.75 892.64,413.82 892.2,569.57 899,573.49 899.44,417.75 		"/>
		<polyline class="st0" points="882.33,435.97 875.54,432.05 875.25,531.68 882.05,535.61 882.33,435.97 		"/>
		<polyline class="st0" points="865.25,446.39 858.39,442.43 858.22,501.57 865.09,505.53 865.25,446.39 		"/>
		<polyline class="st0" points="848.11,456.16 841.31,452.23 841.25,472.18 848.05,476.1 848.11,456.16 		"/>
		<polyline class="st0" points="934.35,437.9 927.48,433.94 927.04,589.68 933.9,593.64 934.35,437.9 		"/>
		<polyline class="st0" points="951.29,475.78 944.49,471.86 944.21,571.49 951.01,575.42 951.29,475.78 		"/>
		<polyline class="st0" points="968.32,505.9 961.46,501.93 961.29,561.08 968.16,565.04 968.32,505.9 		"/>
		<polyline class="st0" points="985.29,535.36 978.5,531.44 978.44,551.38 985.24,555.31 985.29,535.36 		"/>
		<polyline class="st0" points="779.77,335.98 772.98,332.05 772.46,513.2 779.26,517.12 779.77,335.98 		"/>
		<polyline class="st0" points="762.24,364.74 755.45,360.82 755.15,464.31 761.95,468.24 762.24,364.74 		"/>
		<polyline class="st0" points="745.14,382.97 738.34,379.04 738.21,426.43 745.01,430.36 745.14,382.97 		"/>
		<polyline class="st0" points="727.99,393.34 721.19,389.42 721.18,396.24 727.97,400.17 727.99,393.34 		"/>
		<polyline class="st0" points="797.15,384.89 790.29,380.93 789.99,484.43 796.86,488.39 797.15,384.89 		"/>
		<polyline class="st0" points="814.09,422.78 807.3,418.85 807.16,466.24 813.96,470.17 814.09,422.78 		"/>
		<polyline class="st0" points="831.06,452.85 824.27,448.93 824.25,455.75 831.04,459.68 831.06,452.85 		"/>
		<polyline class="st0" points="1260.17,587.13 1253.37,583.2 1252.71,816.59 1259.51,820.52 1260.17,587.13 		"/>
		<polyline class="st0" points="1277.48,636.01 1270.68,632.08 1270.24,787.83 1277.04,791.75 1277.48,636.01 		"/>
		<polyline class="st0" points="1294.49,673.93 1287.63,669.97 1287.34,769.6 1294.21,773.56 1294.49,673.93 		"/>
		<polyline class="st0" points="1311.46,704 1304.66,700.08 1304.49,759.22 1311.29,763.15 1311.46,704 		"/>
		<polyline class="st0" points="1328.43,733.47 1321.63,729.55 1321.57,749.49 1328.37,753.41 1328.43,733.47 		"/>
		<polyline class="st0" points="1242.64,615.89 1235.84,611.97 1235.4,767.71 1242.2,771.64 1242.64,615.89 		"/>
		<polyline class="st0" points="1225.47,634.08 1218.67,630.16 1218.39,729.79 1225.18,733.71 1225.47,634.08 		"/>
		<polyline class="st0" points="1208.38,644.5 1201.59,640.57 1201.42,699.72 1208.22,703.64 1208.38,644.5 		"/>
		<polyline class="st0" points="1191.3,654.31 1184.44,650.34 1184.39,670.28 1191.25,674.25 1191.3,654.31 		"/>
		<polyline class="st0" points="1397.21,692.45 1390.42,688.53 1389.9,869.68 1396.7,873.6 1397.21,692.45 		"/>
		<polyline class="st0" points="1414.53,741.34 1407.73,737.41 1407.44,840.91 1414.23,844.83 1414.53,741.34 		"/>
		<polyline class="st0" points="1431.54,779.26 1424.67,775.3 1424.54,822.69 1431.4,826.65 1431.54,779.26 		"/>
		<polyline class="st0" points="1448.5,809.33 1441.71,805.41 1441.69,812.23 1448.48,816.16 1448.5,809.33 		"/>
		<polyline class="st0" points="1379.68,721.22 1372.89,717.3 1372.59,820.79 1379.39,824.72 1379.68,721.22 		"/>
		<polyline class="st0" points="1362.58,739.44 1355.72,735.48 1355.58,782.87 1362.45,786.84 1362.58,739.44 		"/>
		<polyline class="st0" points="1345.43,749.82 1338.63,745.9 1338.62,752.72 1345.41,756.65 1345.43,749.82 		"/>
	</g>
	<g>
		<g>
			<path class="st0" d="M586.75,1257.7c-148.92,0-298.02-32.84-411.76-98.51C64.11,1095.19,2.97,1009.97,2.83,919.24
				C2.71,829.15,62.9,744.53,172.3,680.94c226.08-131.37,595.09-131.4,822.56-0.08c110.86,64.02,172,149.22,172.12,239.93
				c0.13,90.11-60.1,174.78-169.57,238.39C884.42,1224.86,735.68,1257.7,586.75,1257.7z M583.15,585.58
				c-148.4,0-296.61,32.72-409.23,98.17C65.56,746.72,5.94,830.35,6.07,919.24c0.14,89.51,60.69,173.73,170.53,237.14
				c226.6,130.84,594.06,130.84,819.2,0c108.42-63.01,168.07-146.67,167.95-235.59c-0.13-89.5-60.68-173.71-170.51-237.13
				C879.97,618.28,731.47,585.58,583.15,585.58z"/>
		</g>
	</g>
	<g class="st1">
		<path class="st2" d="M17.82,934.51c0,204.21,226.52,369.76,584.17,369.76s647.58-165.55,647.58-369.76
			c0-204.21-289.93-369.76-647.58-369.76S17.82,730.3,17.82,934.51z"/>
		<path class="st3" d="M82.82,923.97c0,180.38,203.25,326.61,519.17,326.61S1174,1104.35,1174,923.97
			c0-180.38-256.1-326.61-572.01-326.61S82.82,743.58,82.82,923.97z"/>
		<path class="st4" d="M147.82,913.42c0,156.55,179.99,283.46,454.17,283.46s496.44-126.91,496.44-283.46
			c0-156.55-222.27-283.46-496.44-283.46S147.82,756.87,147.82,913.42z"/>
		<path class="st5" d="M212.82,902.87c0,132.72,156.72,240.31,389.17,240.31s420.87-107.59,420.87-240.31
			c0-132.72-188.43-240.31-420.87-240.31S212.82,770.15,212.82,902.87z"/>
		<path class="st6" d="M277.82,892.33c0,108.89,133.46,197.16,324.17,197.16s345.3-88.27,345.3-197.16
			c0-108.89-154.6-197.16-345.3-197.16S277.82,783.44,277.82,892.33z"/>
		<path class="st7" d="M342.82,881.78c0,85.06,110.2,154.01,259.17,154.01s269.73-68.96,269.73-154.01
			c0-85.06-120.76-154.01-269.73-154.01S342.82,796.72,342.82,881.78z"/>
		<ellipse class="st8" cx="601.98" cy="871.23" rx="194.17" ry="110.87"/>
	</g>
	<path class="st9" d="M549.96,694.69"/>
	<g>
		<g class="st10">
			<linearGradient id="SVGID_1_" gradientUnits="userSpaceOnUse" x1="266.6601" y1="842.793" x2="820.1376" y2="842.793">
				<stop  offset="0" style="stop-color:#07619E"/>
				<stop  offset="1" style="stop-color:#3085C7"/>
			</linearGradient>
			<path class="st11" d="M819.92,623.22c-0.08,1.39-0.16,2.78-0.3,4.16c-0.12,1.21-0.29,2.43-0.46,3.64
				c-0.19,1.38-0.4,2.76-0.65,4.13c-0.22,1.22-0.49,2.44-0.76,3.66c-0.3,1.34-0.62,2.69-0.98,4.03c-0.33,1.22-0.69,2.44-1.07,3.65
				c-0.41,1.33-0.85,2.66-1.32,3.99c-0.42,1.19-0.88,2.39-1.35,3.58c-0.55,1.4-1.14,2.79-1.76,4.18c-0.52,1.17-1.06,2.34-1.63,3.5
				c-0.68,1.38-1.39,2.76-2.13,4.13c-0.6,1.12-1.22,2.24-1.87,3.35c-0.95,1.64-1.98,3.27-3.03,4.9c-0.64,0.99-1.25,1.98-1.92,2.95
				c-1.23,1.8-2.56,3.58-3.91,5.35c-0.59,0.77-1.13,1.55-1.74,2.32c-2.24,2.82-4.63,5.61-7.17,8.36c-0.65,0.71-1.35,1.4-2.02,2.11
				c-2,2.1-4.08,4.17-6.26,6.23c-1,0.94-1.99,1.88-3.03,2.81c-1.29,1.16-2.62,2.32-3.97,3.46c-1.25,1.07-2.52,2.13-3.82,3.19
				c-1.4,1.14-2.85,2.26-4.31,3.37c-1.35,1.04-2.72,2.07-4.12,3.09c-1.52,1.11-3.09,2.2-4.67,3.28c-1.45,1-2.9,1.99-4.4,2.98
				c-1.64,1.08-3.33,2.13-5.03,3.19c-2.11,1.31-4.19,2.63-6.39,3.9c-5.99,3.48-12.26,6.7-18.64,9.79c-1.68,0.81-3.37,1.6-5.07,2.39
				c-5.77,2.66-11.66,5.2-17.7,7.56c-0.79,0.31-1.55,0.65-2.35,0.96c-6.96,2.65-14.1,5.07-21.36,7.32
				c-1.11,0.35-2.23,0.69-3.35,1.02c-7,2.1-14.11,4.01-21.33,5.74c-1.11,0.26-2.22,0.51-3.33,0.77c-7.24,1.67-14.57,3.16-21.98,4.46
				c-1.55,0.27-3.13,0.49-4.69,0.75c-6.33,1.04-12.72,1.94-19.14,2.71c-1.86,0.22-3.71,0.46-5.57,0.67
				c-7.44,0.8-14.93,1.43-22.44,1.87c-1.39,0.08-2.79,0.14-4.18,0.21c-7.74,0.39-15.5,0.63-23.26,0.64c-0.78,0-1.56-0.02-2.34-0.02
				c-5.79-0.02-11.57-0.25-17.35-0.48c-4.67-0.19-9.34-0.43-14-0.75c-4.27-0.3-8.54-0.66-12.79-1.07c-4.61-0.45-9.2-0.96-13.78-1.54
				c-6.11-0.78-12.22-1.56-18.25-2.58c-0.44-0.07-0.88-0.13-1.31-0.21c-7.66-1.32-15.21-2.88-22.69-4.59
				c-1.19-0.27-2.38-0.52-3.57-0.8c-7.05-1.68-13.99-3.56-20.83-5.59c-1.96-0.58-3.89-1.2-5.83-1.81c-5.69-1.79-11.3-3.7-16.81-5.74
				c-1.59-0.59-3.21-1.14-4.79-1.75c-5.01-1.94-9.85-4.09-14.68-6.24c-2.37-1.05-4.82-2.01-7.14-3.11
				c-6.97-3.31-13.76-6.82-20.27-10.58c-44.26-25.55-70.52-57.6-78.75-90.83c-1.9-7.67-2.84-15.4-2.82-23.13v0.01c0,0,0-0.01,0-0.01
				l-0.83,291.28c-0.12,41.23,27.1,82.52,81.56,113.96c6.52,3.76,13.3,7.27,20.27,10.58c2.32,1.1,4.77,2.06,7.14,3.11
				c4.13,1.84,8.21,3.75,12.47,5.43c0.73,0.29,1.49,0.53,2.22,0.81c1.58,0.61,3.19,1.16,4.78,1.75c5.51,2.04,11.12,3.95,16.81,5.74
				c1.94,0.61,3.87,1.23,5.83,1.81c1.32,0.39,2.6,0.84,3.93,1.22c5.56,1.58,11.21,3.02,16.9,4.37c1.18,0.28,2.38,0.53,3.57,0.81
				c2.79,0.64,5.56,1.31,8.37,1.89c4.74,0.98,9.51,1.88,14.32,2.7c0.43,0.08,0.88,0.13,1.31,0.21c3.91,0.66,7.83,1.3,11.77,1.86
				c2.14,0.3,4.32,0.45,6.48,0.72c4.58,0.58,9.16,1.09,13.78,1.54c2.21,0.21,4.4,0.56,6.62,0.74c2.05,0.17,4.12,0.19,6.17,0.33
				c4.66,0.32,9.32,0.56,14,0.75c2.35,0.09,4.69,0.32,7.05,0.38c3.43,0.09,6.86,0.09,10.29,0.1c0.78,0,1.56,0.02,2.34,0.02
				c5.23-0.01,10.45-0.08,15.66-0.26c2.54-0.09,5.06-0.26,7.59-0.38c1.39-0.07,2.79-0.13,4.18-0.21c6.31-0.37,12.61-0.83,18.87-1.45
				c1.19-0.12,2.37-0.3,3.57-0.42c1.87-0.2,3.71-0.44,5.57-0.67c6.42-0.77,12.81-1.67,19.14-2.71c1.56-0.25,3.13-0.48,4.69-0.75
				c0.75-0.13,1.52-0.23,2.27-0.36c6.65-1.2,13.2-2.6,19.71-4.1c1.11-0.26,2.23-0.5,3.34-0.77c7.22-1.73,14.33-3.64,21.32-5.74
				c1.12-0.34,2.24-0.68,3.35-1.02c1.52-0.47,3.07-0.91,4.58-1.4c5.69-1.84,11.28-3.83,16.77-5.93c0.8-0.31,1.56-0.65,2.35-0.96
				c6.04-2.36,11.93-4.89,17.7-7.55c1.7-0.79,3.4-1.58,5.08-2.39c6.38-3.09,12.65-6.31,18.64-9.79c1.14-0.66,2.26-1.33,3.37-1.99
				c1.04-0.63,2-1.28,3.01-1.91c1.7-1.06,3.39-2.11,5.03-3.19c1.5-0.98,2.95-1.98,4.4-2.98c1.58-1.09,3.15-2.18,4.67-3.28
				c1.4-1.02,2.77-2.05,4.12-3.09c1.46-1.12,2.91-2.24,4.31-3.37c1.3-1.05,2.57-2.12,3.82-3.19c1.35-1.15,2.68-2.3,3.97-3.46
				c0.53-0.48,1.12-0.95,1.64-1.43c0.49-0.45,0.9-0.92,1.38-1.38c2.18-2.05,4.26-4.13,6.26-6.23c0.67-0.7,1.37-1.4,2.02-2.1
				c2.53-2.76,4.93-5.54,7.17-8.36c0.09-0.12,0.21-0.24,0.31-0.36c0.51-0.65,0.94-1.31,1.43-1.96c1.35-1.78,2.67-3.55,3.91-5.35
				c0.67-0.98,1.29-1.97,1.92-2.95c1.05-1.63,2.07-3.26,3.03-4.9c0.26-0.45,0.57-0.89,0.83-1.34c0.38-0.67,0.68-1.35,1.04-2.02
				c0.74-1.37,1.46-2.75,2.13-4.14c0.57-1.16,1.11-2.33,1.63-3.5c0.62-1.39,1.21-2.79,1.77-4.19c0.25-0.63,0.55-1.24,0.79-1.87
				c0.21-0.56,0.36-1.13,0.56-1.69c0.47-1.33,0.91-2.67,1.33-4c0.38-1.22,0.74-2.43,1.07-3.65c0.36-1.34,0.68-2.68,0.98-4.03
				c0.16-0.73,0.38-1.45,0.53-2.18c0.1-0.49,0.14-0.98,0.23-1.48c0.25-1.37,0.46-2.75,0.65-4.13c0.17-1.21,0.34-2.43,0.46-3.64
				c0.14-1.39,0.22-2.77,0.3-4.16c0.05-0.82,0.15-1.63,0.17-2.44c0.02-0.81,0.04-1.62,0.04-2.43l0.83-291.28
				C820.13,619.98,820.01,621.6,819.92,623.22z"/>
			<g>
				<linearGradient id="SVGID_2_" gradientUnits="userSpaceOnUse" x1="267.4863" y1="617.5383" x2="820.1376" y2="617.5383">
					<stop  offset="0" style="stop-color:#07619E"/>
					<stop  offset="1" style="stop-color:#3085C7"/>
				</linearGradient>
				<path class="st12" d="M738.53,504.36c108.27,62.51,108.89,163.85,1.32,226.37s-282.53,62.49-390.8-0.02
					c-108.23-62.49-108.84-163.83-1.27-226.34C455.35,441.84,630.31,441.87,738.53,504.36z"/>
				<path class="st13" d="M544.76,757.02c-70.27,0-136.12-15.68-185.42-44.14c-45.91-26.51-71.22-60.52-71.27-95.77
					c-0.05-34.95,24.82-68.67,70.05-94.95c48.92-28.43,114.54-44.09,184.77-44.09c70.25,0,136.08,15.67,185.36,44.12
					c45.93,26.52,71.26,60.55,71.31,95.8c0.05,34.95-24.83,68.67-70.05,94.94C680.59,741.36,614.98,757.02,544.76,757.02z"/>
				<linearGradient id="SVGID_3_" gradientUnits="userSpaceOnUse" x1="308.6505" y1="617.5399" x2="778.976" y2="617.5399">
					<stop  offset="0" style="stop-color:#07619E"/>
					<stop  offset="1" style="stop-color:#3085C7"/>
				</linearGradient>
				<path class="st14" d="M544.76,736.43c-66.71,0-128.9-14.7-175.13-41.39c-39.28-22.68-60.94-50.37-60.98-77.98
					c-0.04-27.3,21.2-54.69,59.81-77.12c45.83-26.63,107.77-41.3,174.43-41.3c66.7,0,128.87,14.69,175.07,41.36
					c39.31,22.7,60.98,50.4,61.02,78.01c0.04,27.29-21.2,54.68-59.81,77.11C673.34,721.76,611.4,736.43,544.76,736.43z"/>
			</g>
		</g>
	</g>
	<g>
		<g>
			<g>
				<path class="st13" d="M572.04,601.85l-4.05,6.18c2.84,3.22,3.44,7.07,1.09,10.65c-4.39,6.69-17.43,9.94-29.07,7.25
					c-11.64-2.7-17.53-10.33-13.14-17.02c2.14-3.26,6.34-5.7,11.42-7.04l4.22-6.43c-10.8,0.96-20.36,5.11-24.5,11.42
					c-6.23,9.5,2.14,20.34,18.66,24.17c16.52,3.83,35.03-0.79,41.27-10.29C582.25,614.15,579.57,606.94,572.04,601.85z"/>
			</g>
			<path class="st13" d="M547.98,611.51L547.98,611.51c-2.79-0.65-4.19-2.47-3.14-4.07l10.15-15.46c1.05-1.6,4.16-2.38,6.95-1.73
				l0,0c2.79,0.65,4.19,2.47,3.14,4.07l-10.15,15.46C553.87,611.38,550.76,612.16,547.98,611.51z"/>
		</g>
	</g>
	<g>
		<g>
			<g>
				<g class="st10">
					<g class="st10">
						<defs>
							<path id="SVGID_4_" class="st10" d="M1169.96,959.5c-1.29,0.75-1.94,1.73-1.94,2.72l0.09-31.47c0-0.98,0.65-1.97,1.94-2.72
								c2.61-1.52,6.86-1.52,9.48,0l-0.09,31.47C1176.82,957.98,1172.57,957.98,1169.96,959.5z"/>
						</defs>
						<clipPath id="SVGID_5_">
							<use xlink:href="#SVGID_4_"  style="overflow:visible;"/>
						</clipPath>
						<g class="st15">
							<path class="st16" d="M1179.53,928.02l-0.09,31.47c-0.3-0.17-0.63-0.33-0.97-0.46l0.09-31.47
								C1178.91,927.7,1179.23,927.85,1179.53,928.02"/>
							<path class="st17" d="M1178.57,927.56l-0.09,31.47c-0.26-0.1-0.53-0.2-0.81-0.27l0.09-31.47
								C1178.03,927.37,1178.31,927.46,1178.57,927.56"/>
							<path class="st18" d="M1177.76,927.29l-0.09,31.47c-0.23-0.07-0.46-0.12-0.7-0.17l0.09-31.47
								C1177.29,927.17,1177.53,927.22,1177.76,927.29"/>
							<path class="st18" d="M1177.06,927.12l-0.09,31.47c-0.22-0.05-0.44-0.08-0.67-0.12l0.09-31.47
								C1176.61,927.03,1176.84,927.07,1177.06,927.12"/>
							<path class="st19" d="M1176.39,927l-0.09,31.47c-0.22-0.03-0.43-0.06-0.65-0.07l0.09-31.47
								C1175.96,926.95,1176.17,926.97,1176.39,927"/>
							<path class="st19" d="M1175.74,926.93l-0.09,31.47c-0.22-0.02-0.44-0.03-0.66-0.03l0.09-31.47
								C1175.3,926.9,1175.52,926.91,1175.74,926.93"/>
							<path class="st19" d="M1175.08,926.89l-0.09,31.47c-0.23-0.01-0.46,0-0.69,0l0.09-31.47
								C1174.62,926.89,1174.85,926.89,1175.08,926.89"/>
							<path class="st20" d="M1174.39,926.89l-0.09,31.47c-0.25,0.01-0.5,0.02-0.74,0.05l0.09-31.47
								C1173.89,926.92,1174.14,926.9,1174.39,926.89"/>
							<path class="st20" d="M1173.64,926.94l-0.09,31.47c-0.29,0.03-0.57,0.07-0.86,0.12l0.09-31.47
								C1173.07,927.01,1173.35,926.97,1173.64,926.94"/>
							<path class="st21" d="M1172.79,927.06l-0.09,31.47c-0.44,0.08-0.86,0.18-1.27,0.32l0.09-31.47
								C1171.92,927.25,1172.35,927.14,1172.79,927.06"/>
							<path class="st21" d="M1171.52,927.38l-0.09,31.47c-0.53,0.17-1.02,0.39-1.47,0.65c-0.03,0.02-0.05,0.03-0.08,0.05
								l0.09-31.47c0.03-0.02,0.05-0.03,0.08-0.05C1170.5,927.77,1170.99,927.55,1171.52,927.38"/>
							<path class="st21" d="M1169.97,928.07l-0.09,31.47c-0.32,0.2-0.61,0.41-0.85,0.63l0.09-31.47
								C1169.36,928.48,1169.64,928.27,1169.97,928.07"/>
							<path class="st20" d="M1169.12,928.7l-0.09,31.47c-0.16,0.14-0.29,0.29-0.41,0.45l0.09-31.47
								C1168.83,928.99,1168.97,928.84,1169.12,928.7"/>
							<path class="st20" d="M1168.71,929.15l-0.09,31.47c-0.1,0.13-0.19,0.26-0.27,0.4l0.09-31.47
								C1168.52,929.41,1168.6,929.28,1168.71,929.15"/>
							<path class="st19" d="M1168.44,929.54l-0.09,31.47c-0.07,0.12-0.13,0.25-0.18,0.38l0.09-31.47
								C1168.31,929.8,1168.37,929.67,1168.44,929.54"/>
							<path class="st19" d="M1168.26,929.92l-0.09,31.47c-0.05,0.12-0.08,0.25-0.11,0.38l0.09-31.47
								C1168.18,930.17,1168.22,930.05,1168.26,929.92"/>
							<path class="st19" d="M1168.15,930.3l-0.09,31.47c-0.02,0.13-0.04,0.25-0.04,0.38l0.09-31.47
								C1168.11,930.56,1168.13,930.43,1168.15,930.3"/>
							<path class="st18" d="M1168.11,930.68l-0.09,31.47c0,0.02,0,0.04,0,0.06l0.09-31.47
								C1168.11,930.72,1168.11,930.7,1168.11,930.68"/>
						</g>
					</g>
					<g class="st10">
						<defs>
							<path id="SVGID_6_" class="st10" d="M1168.02,962.22l0.09-31.47c0,1,0.66,2,1.98,2.77l-0.09,31.47
								C1168.68,964.22,1168.02,963.22,1168.02,962.22z"/>
						</defs>
						<clipPath id="SVGID_7_">
							<use xlink:href="#SVGID_6_"  style="overflow:visible;"/>
						</clipPath>
						<g class="st22">
							<path class="st23" d="M1170.09,933.51l-0.09,31.47c-1.32-0.76-1.99-1.77-1.98-2.77l0.09-31.47
								C1168.11,931.74,1168.77,932.75,1170.09,933.51"/>
						</g>
					</g>
					<g>
						<polygon class="st17" points="1268.71,979.51 1268.62,1010.98 1179.45,959.5 1179.53,928.02 						"/>
					</g>
					<g>
						<polygon class="st24" points="1259.27,985 1259.18,1016.47 1170,964.99 1170.09,933.51 						"/>
					</g>
					<g class="st10">
						<defs>
							<path id="SVGID_8_" class="st10" d="M1270.68,982.27l-0.09,31.47c0,0.99-0.65,1.98-1.95,2.73c-2.61,1.52-6.84,1.52-9.46,0
								l0.09-31.47c2.62,1.52,6.85,1.52,9.46,0C1270.03,984.24,1270.68,983.26,1270.68,982.27z"/>
						</defs>
						<clipPath id="SVGID_9_">
							<use xlink:href="#SVGID_8_"  style="overflow:visible;"/>
						</clipPath>
						<g class="st25">
							<path class="st26" d="M1270.68,982.27l-0.09,31.47c0,0.02,0,0.04,0,0.06l0.09-31.47
								C1270.68,982.31,1270.68,982.29,1270.68,982.27"/>
							<path class="st27" d="M1270.68,982.32l-0.09,31.47c0,0.13-0.02,0.26-0.04,0.38l0.09-31.47
								C1270.66,982.58,1270.68,982.45,1270.68,982.32"/>
							<path class="st28" d="M1270.64,982.71l-0.09,31.47c-0.03,0.13-0.06,0.25-0.11,0.38l0.09-31.47
								C1270.58,982.96,1270.61,982.84,1270.64,982.71"/>
							<path class="st29" d="M1270.53,983.09l-0.09,31.47c-0.05,0.13-0.11,0.26-0.18,0.38l0.09-31.47
								C1270.42,983.34,1270.48,983.22,1270.53,983.09"/>
							<path class="st30" d="M1270.35,983.47l-0.09,31.47c-0.08,0.14-0.17,0.27-0.27,0.4l0.09-31.47
								C1270.18,983.74,1270.27,983.6,1270.35,983.47"/>
							<path class="st31" d="M1270.08,983.87l-0.09,31.47c-0.12,0.15-0.26,0.3-0.42,0.45l0.09-31.47
								C1269.82,984.17,1269.96,984.02,1270.08,983.87"/>
							<path class="st32" d="M1269.66,984.32l-0.09,31.47c-0.24,0.22-0.53,0.43-0.85,0.63l0.09-31.47
								C1269.14,984.75,1269.42,984.54,1269.66,984.32"/>
							<path class="st33" d="M1268.81,984.95l-0.09,31.47c-0.03,0.02-0.05,0.03-0.08,0.05c-0.45,0.26-0.94,0.48-1.47,0.65
								l0.09-31.47c0.53-0.17,1.02-0.39,1.47-0.65C1268.76,984.98,1268.78,984.96,1268.81,984.95"/>
							<path class="st32" d="M1267.26,985.64l-0.09,31.47c-0.41,0.13-0.83,0.24-1.27,0.31l0.09-31.47
								C1266.43,985.88,1266.85,985.78,1267.26,985.64"/>
							<path class="st31" d="M1265.99,985.96l-0.09,31.47c-0.28,0.05-0.57,0.09-0.85,0.12l0.09-31.47
								C1265.43,986.05,1265.71,986.01,1265.99,985.96"/>
							<path class="st30" d="M1265.14,986.08l-0.09,31.47c-0.24,0.02-0.49,0.04-0.74,0.05l0.09-31.47
								C1264.65,986.12,1264.89,986.1,1265.14,986.08"/>
							<path class="st29" d="M1264.4,986.13l-0.09,31.47c-0.23,0.01-0.46,0.01-0.68,0l0.09-31.47
								C1263.94,986.14,1264.17,986.13,1264.4,986.13"/>
							<path class="st28" d="M1263.72,986.13l-0.09,31.47c-0.22-0.01-0.44-0.02-0.66-0.03l0.09-31.47
								C1263.28,986.11,1263.5,986.12,1263.72,986.13"/>
							<path class="st27" d="M1263.06,986.09l-0.09,31.47c-0.22-0.02-0.43-0.04-0.65-0.07l0.09-31.47
								C1262.63,986.05,1262.84,986.08,1263.06,986.09"/>
							<path class="st26" d="M1262.41,986.02l-0.09,31.47c-0.22-0.03-0.44-0.07-0.66-0.12l0.09-31.47
								C1261.97,985.95,1262.19,985.99,1262.41,986.02"/>
							<path class="st34" d="M1261.75,985.91l-0.09,31.47c-0.24-0.05-0.47-0.11-0.7-0.17l0.09-31.47
								C1261.28,985.8,1261.51,985.86,1261.75,985.91"/>
							<path class="st35" d="M1261.05,985.74l-0.09,31.47c-0.28-0.08-0.55-0.17-0.81-0.27l0.09-31.47
								C1260.5,985.57,1260.77,985.66,1261.05,985.74"/>
							<path class="st23" d="M1260.24,985.46l-0.09,31.47c-0.34-0.13-0.67-0.29-0.97-0.46l0.09-31.47
								C1259.57,985.17,1259.9,985.33,1260.24,985.46"/>
						</g>
					</g>
					<g class="st10">
						<defs>
							<path id="SVGID_10_" class="st10" d="M1277.63,1021.66c-1.3,0.75-1.95,1.74-1.95,2.72l0.09-31.47c0-0.98,0.65-1.97,1.95-2.72
								c2.61-1.52,6.85-1.52,9.47-0.01l-0.09,31.47C1284.47,1020.14,1280.23,1020.14,1277.63,1021.66z"/>
						</defs>
						<clipPath id="SVGID_11_">
							<use xlink:href="#SVGID_10_"  style="overflow:visible;"/>
						</clipPath>
						<g class="st36">
							<path class="st16" d="M1287.19,990.18l-0.09,31.47c-0.3-0.17-0.63-0.33-0.96-0.46l0.09-31.47
								C1286.56,989.85,1286.88,990,1287.19,990.18"/>
							<path class="st17" d="M1286.22,989.71l-0.09,31.47c-0.26-0.1-0.53-0.19-0.81-0.27l0.09-31.47
								C1285.69,989.52,1285.96,989.61,1286.22,989.71"/>
							<path class="st18" d="M1285.41,989.44l-0.09,31.47c-0.23-0.06-0.46-0.12-0.7-0.17l0.09-31.47
								C1284.95,989.32,1285.18,989.38,1285.41,989.44"/>
							<path class="st18" d="M1284.71,989.27l-0.09,31.47c-0.22-0.04-0.44-0.08-0.66-0.12l0.09-31.47
								C1284.28,989.19,1284.5,989.23,1284.71,989.27"/>
							<path class="st19" d="M1284.05,989.16l-0.09,31.47c-0.21-0.03-0.43-0.05-0.65-0.07l0.09-31.47
								C1283.62,989.1,1283.84,989.13,1284.05,989.16"/>
							<path class="st19" d="M1283.4,989.08l-0.09,31.47c-0.22-0.02-0.44-0.03-0.66-0.03l0.09-31.47
								C1282.96,989.05,1283.18,989.07,1283.4,989.08"/>
							<path class="st19" d="M1282.74,989.05l-0.09,31.47c-0.23-0.01-0.46,0-0.69,0l0.09-31.47
								C1282.29,989.04,1282.52,989.04,1282.74,989.05"/>
							<path class="st20" d="M1282.06,989.05l-0.09,31.47c-0.25,0.01-0.5,0.02-0.74,0.05l0.09-31.47
								C1281.56,989.08,1281.81,989.06,1282.06,989.05"/>
							<path class="st20" d="M1281.32,989.1l-0.09,31.47c-0.29,0.03-0.58,0.07-0.86,0.12l0.09-31.47
								C1280.74,989.17,1281.03,989.13,1281.32,989.1"/>
							<path class="st21" d="M1280.46,989.22l-0.09,31.47c-0.44,0.08-0.86,0.19-1.27,0.32l0.09-31.47
								C1279.59,989.4,1280.02,989.3,1280.46,989.22"/>
							<path class="st21" d="M1279.19,989.54l-0.09,31.47c-0.53,0.17-1.03,0.39-1.47,0.65c-0.03,0.02-0.05,0.03-0.08,0.05
								l0.09-31.47c0.03-0.02,0.05-0.03,0.08-0.05C1278.16,989.92,1278.66,989.71,1279.19,989.54"/>
							<path class="st21" d="M1277.63,990.23l-0.09,31.47c-0.33,0.2-0.61,0.41-0.85,0.63l0.09-31.47
								C1277.02,990.64,1277.31,990.43,1277.63,990.23"/>
							<path class="st20" d="M1276.78,990.86l-0.09,31.47c-0.16,0.14-0.3,0.29-0.42,0.45l0.09-31.47
								C1276.49,991.16,1276.62,991.01,1276.78,990.86"/>
							<path class="st20" d="M1276.37,991.31l-0.09,31.47c-0.1,0.13-0.19,0.26-0.27,0.4l0.09-31.47
								C1276.17,991.57,1276.26,991.44,1276.37,991.31"/>
							<path class="st19" d="M1276.1,991.71l-0.09,31.47c-0.07,0.12-0.13,0.25-0.18,0.38l0.09-31.47
								C1275.97,991.96,1276.03,991.83,1276.1,991.71"/>
							<path class="st19" d="M1275.92,992.09l-0.09,31.47c-0.05,0.12-0.08,0.25-0.11,0.38l0.09-31.47
								C1275.84,992.34,1275.87,992.21,1275.92,992.09"/>
							<path class="st19" d="M1275.81,992.47l-0.09,31.47c-0.02,0.13-0.04,0.26-0.04,0.38l0.09-31.47
								C1275.77,992.72,1275.79,992.59,1275.81,992.47"/>
							<path class="st18" d="M1275.77,992.85l-0.09,31.47c0,0.02,0,0.04,0,0.06l0.09-31.47
								C1275.77,992.89,1275.77,992.87,1275.77,992.85"/>
						</g>
					</g>
					<g class="st10">
						<defs>
							<path id="SVGID_12_" class="st10" d="M1289.16,992.94l-0.09,31.47c0,0.99-0.65,1.98-1.95,2.73
								c-2.61,1.52-6.85,1.51-9.47-0.01c-1.32-0.76-1.98-1.76-1.98-2.76l0.09-31.47c0,1,0.66,2,1.98,2.76
								c2.63,1.52,6.86,1.52,9.47,0.01C1288.51,994.92,1289.16,993.93,1289.16,992.94z"/>
						</defs>
						<clipPath id="SVGID_13_">
							<use xlink:href="#SVGID_12_"  style="overflow:visible;"/>
						</clipPath>
						<g class="st37">
							<path class="st26" d="M1289.16,992.94l-0.09,31.47c0,0.02,0,0.04,0,0.06l0.09-31.47
								C1289.16,992.98,1289.16,992.96,1289.16,992.94"/>
							<path class="st27" d="M1289.16,993l-0.09,31.47c0,0.13-0.02,0.26-0.04,0.38l0.09-31.47
								C1289.14,993.26,1289.16,993.13,1289.16,993"/>
							<path class="st28" d="M1289.12,993.39l-0.09,31.47c-0.03,0.13-0.06,0.25-0.11,0.38l0.09-31.47
								C1289.06,993.64,1289.09,993.51,1289.12,993.39"/>
							<path class="st29" d="M1289.01,993.77l-0.09,31.47c-0.05,0.13-0.11,0.26-0.18,0.38l0.09-31.47
								C1288.9,994.02,1288.96,993.89,1289.01,993.77"/>
							<path class="st30" d="M1288.83,994.15l-0.09,31.47c-0.08,0.14-0.17,0.27-0.27,0.4l0.09-31.47
								C1288.67,994.42,1288.75,994.28,1288.83,994.15"/>
							<path class="st31" d="M1288.56,994.55l-0.09,31.47c-0.12,0.15-0.26,0.3-0.42,0.45l0.09-31.47
								C1288.3,994.85,1288.44,994.7,1288.56,994.55"/>
							<path class="st32" d="M1288.15,995l-0.09,31.47c-0.24,0.22-0.52,0.43-0.85,0.63l0.09-31.47
								C1287.62,995.43,1287.91,995.22,1288.15,995"/>
							<path class="st33" d="M1287.3,995.62l-0.09,31.47c-0.03,0.02-0.05,0.03-0.08,0.05c-0.45,0.26-0.94,0.47-1.46,0.64l0.09-31.47
								c0.53-0.17,1.02-0.38,1.46-0.64C1287.24,995.66,1287.27,995.64,1287.3,995.62"/>
							<path class="st32" d="M1285.75,996.31l-0.09,31.47c-0.41,0.13-0.83,0.24-1.26,0.31l0.09-31.47
								C1284.92,996.55,1285.35,996.45,1285.75,996.31"/>
							<path class="st31" d="M1284.49,996.63l-0.09,31.47c-0.28,0.05-0.56,0.09-0.85,0.12l0.09-31.47
								C1283.92,996.72,1284.21,996.68,1284.49,996.63"/>
							<path class="st30" d="M1283.64,996.75l-0.09,31.47c-0.25,0.02-0.49,0.04-0.74,0.05l0.09-31.47
								C1283.14,996.79,1283.39,996.77,1283.64,996.75"/>
							<path class="st29" d="M1282.9,996.8l-0.09,31.47c-0.23,0.01-0.46,0.01-0.69,0l0.09-31.47
								C1282.44,996.81,1282.67,996.8,1282.9,996.8"/>
							<path class="st28" d="M1282.21,996.8l-0.09,31.47c-0.22-0.01-0.44-0.02-0.66-0.03l0.09-31.47
								C1281.77,996.78,1281.99,996.8,1282.21,996.8"/>
							<path class="st27" d="M1281.55,996.77l-0.09,31.47c-0.22-0.02-0.44-0.04-0.65-0.07l0.09-31.47
								C1281.11,996.72,1281.33,996.75,1281.55,996.77"/>
							<path class="st26" d="M1280.9,996.69l-0.09,31.47c-0.23-0.03-0.45-0.07-0.67-0.12l0.09-31.47
								C1280.45,996.62,1280.67,996.66,1280.9,996.69"/>
							<path class="st34" d="M1280.23,996.58l-0.09,31.47c-0.24-0.05-0.47-0.11-0.7-0.17l0.09-31.47
								C1279.76,996.47,1279.99,996.53,1280.23,996.58"/>
							<path class="st35" d="M1279.53,996.4l-0.09,31.47c-0.28-0.08-0.55-0.17-0.82-0.28l0.09-31.47
								C1278.98,996.23,1279.25,996.32,1279.53,996.4"/>
							<path class="st23" d="M1278.71,996.13l-0.09,31.47c-0.34-0.13-0.67-0.29-0.97-0.46c-1.32-0.76-1.98-1.76-1.98-2.76
								l0.09-31.47c0,1,0.66,2,1.98,2.76C1278.05,995.84,1278.37,995.99,1278.71,996.13"/>
						</g>
					</g>
					<g>
						<polygon class="st17" points="1300.58,1046.61 1300.49,1078.08 1041.01,928.27 1041.1,896.8 						"/>
					</g>
					<g>
						<polygon class="st38" points="1041.1,896.8 1041.01,928.27 582.48,1194.74 582.57,1163.27 						"/>
					</g>
					<path class="st39" d="M522.93,1225.56l0.09-31.47c-0.03,9.36,6.15,18.73,18.53,25.88l-0.09,31.47
						C529.08,1244.29,522.9,1234.92,522.93,1225.56z"/>
					<g>
						<polygon class="st40" points="842.04,1313.08 841.96,1344.55 582.48,1194.74 582.57,1163.27 						"/>
					</g>
					<g class="st10">
						<defs>
							<path id="SVGID_14_" class="st10" d="M646.02,1276.32c-5.49,3.19-8.23,7.36-8.25,11.54l0.09-31.47
								c0.01-4.18,2.76-8.35,8.24-11.54c11.05-6.42,29.01-6.42,40.13,0c5.56,3.21,8.36,7.42,8.38,11.63
								c-0.01,5.24-0.03,10.49-0.04,15.73c-0.02,5.25-0.03,10.5-0.05,15.74c-0.02-4.21-2.81-8.42-8.38-11.63
								C675.03,1269.9,657.07,1269.9,646.02,1276.32z"/>
						</defs>
						<clipPath id="SVGID_15_">
							<use xlink:href="#SVGID_14_"  style="overflow:visible;"/>
						</clipPath>
						<g class="st41">
							<path class="st16" d="M694.61,1256.54l-0.09,31.47c0.01-4.23-2.78-8.47-8.38-11.7c-1.28-0.74-2.65-1.39-4.09-1.96l0.09-31.47
								c1.44,0.57,2.81,1.22,4.09,1.96C691.83,1248.07,694.62,1252.31,694.61,1256.54"/>
							<path class="st17" d="M682.14,1242.88l-0.09,31.47c-1.11-0.44-2.26-0.83-3.45-1.16l0.09-31.47
								C679.88,1242.05,681.03,1242.44,682.14,1242.88"/>
							<path class="st18" d="M678.7,1241.71l-0.09,31.47c-0.97-0.28-1.95-0.52-2.96-0.73l0.09-31.47
								C676.74,1241.2,677.73,1241.44,678.7,1241.71"/>
							<path class="st18" d="M675.74,1240.99l-0.09,31.47c-0.93-0.19-1.86-0.35-2.81-0.49l0.09-31.47
								C673.87,1240.64,674.81,1240.8,675.74,1240.99"/>
							<path class="st19" d="M672.92,1240.5l-0.09,31.47c-0.91-0.13-1.83-0.23-2.76-0.31l0.09-31.47
								C671.09,1240.27,672.01,1240.37,672.92,1240.5"/>
							<path class="st19" d="M670.17,1240.19l-0.09,31.47c-0.93-0.08-1.86-0.13-2.79-0.15l0.09-31.47
								C668.31,1240.07,669.24,1240.12,670.17,1240.19"/>
							<path class="st19" d="M667.37,1240.04l-0.09,31.47c-0.97-0.02-1.94-0.02-2.91,0.01l0.09-31.47
								C665.43,1240.02,666.4,1240.02,667.37,1240.04"/>
							<path class="st20" d="M664.47,1240.06l-0.09,31.47c-1.05,0.04-2.1,0.11-3.15,0.21l0.09-31.47
								C662.36,1240.16,663.41,1240.09,664.47,1240.06"/>
							<path class="st20" d="M661.32,1240.27l-0.09,31.47c-1.22,0.12-2.43,0.29-3.62,0.5l0.09-31.47
								C658.89,1240.56,660.1,1240.39,661.32,1240.27"/>
							<path class="st21" d="M657.7,1240.77l-0.09,31.47c-1.85,0.33-3.65,0.78-5.37,1.34l0.09-31.47
								C654.05,1241.55,655.85,1241.1,657.7,1240.77"/>
							<path class="st21" d="M652.33,1242.11l-0.09,31.47c-2.23,0.72-4.33,1.63-6.22,2.73c-0.12,0.07-0.23,0.14-0.35,0.2l0.09-31.47
								c0.11-0.07,0.23-0.14,0.35-0.2C648,1243.74,650.1,1242.83,652.33,1242.11"/>
							<path class="st21" d="M645.77,1245.05l-0.09,31.47c-1.38,0.83-2.58,1.72-3.59,2.66l0.09-31.47
								C643.19,1246.77,644.39,1245.88,645.77,1245.05"/>
							<path class="st20" d="M642.17,1247.71l-0.09,31.47c-0.66,0.61-1.25,1.24-1.76,1.89l0.09-31.47
								C640.92,1248.95,641.51,1248.32,642.17,1247.71"/>
							<path class="st20" d="M640.41,1249.6l-0.09,31.47c-0.44,0.55-0.82,1.12-1.14,1.7l0.09-31.47
								C639.59,1250.72,639.98,1250.15,640.41,1249.6"/>
							<path class="st19" d="M639.27,1251.29l-0.09,31.47c-0.3,0.53-0.55,1.07-0.76,1.61l0.09-31.47
								C638.72,1252.37,638.97,1251.83,639.27,1251.29"/>
							<path class="st19" d="M638.51,1252.91l-0.09,31.47c-0.2,0.53-0.35,1.06-0.46,1.6l0.09-31.47
								C638.16,1253.97,638.32,1253.44,638.51,1252.91"/>
							<path class="st19" d="M638.06,1254.5l-0.09,31.47c-0.11,0.54-0.17,1.08-0.18,1.63l0.09-31.47
								C637.89,1255.59,637.95,1255.05,638.06,1254.5"/>
							<path class="st18" d="M637.87,1256.13l-0.09,31.47c0,0.08,0,0.17,0,0.25l0.09-31.47
								C637.87,1256.3,637.87,1256.22,637.87,1256.13"/>
						</g>
					</g>
					<g class="st10">
						<defs>
							<path id="SVGID_16_" class="st10" d="M694.61,1256.54l-0.09,31.47c-0.01,4.18-2.76,8.35-8.25,11.54
								c-11.05,6.42-29.01,6.42-40.12,0c-5.6-3.23-8.39-7.47-8.38-11.7l0.09-31.47c-0.01,4.23,2.78,8.47,8.38,11.7
								c11.12,6.42,29.08,6.42,40.12,0C691.85,1264.89,694.6,1260.72,694.61,1256.54z"/>
						</defs>
						<clipPath id="SVGID_17_">
							<use xlink:href="#SVGID_16_"  style="overflow:visible;"/>
						</clipPath>
						<g class="st42">
							<path class="st26" d="M694.61,1256.54l-0.09,31.47c0,0.08,0,0.17,0,0.25l0.09-31.47
								C694.61,1256.71,694.61,1256.63,694.61,1256.54"/>
							<path class="st27" d="M694.61,1256.79l-0.09,31.47c-0.02,0.54-0.08,1.09-0.19,1.63l0.09-31.47
								C694.53,1257.88,694.59,1257.34,694.61,1256.79"/>
							<path class="st28" d="M694.42,1258.42l-0.09,31.47c-0.11,0.54-0.26,1.07-0.46,1.6l0.09-31.47
								C694.16,1259.49,694.32,1258.96,694.42,1258.42"/>
							<path class="st29" d="M693.96,1260.02l-0.09,31.47c-0.2,0.54-0.46,1.08-0.76,1.61l0.09-31.47
								C693.51,1261.1,693.76,1260.56,693.96,1260.02"/>
							<path class="st30" d="M693.21,1261.63l-0.09,31.47c-0.32,0.57-0.7,1.14-1.14,1.7l0.09-31.47
								C692.5,1262.77,692.88,1262.2,693.21,1261.63"/>
							<path class="st31" d="M692.07,1263.33l-0.09,31.47c-0.51,0.65-1.1,1.28-1.76,1.89l0.09-31.47
								C690.97,1264.61,691.56,1263.97,692.07,1263.33"/>
							<path class="st32" d="M690.31,1265.22l-0.09,31.47c-1.02,0.94-2.22,1.83-3.59,2.66l0.09-31.47
								C688.09,1267.05,689.29,1266.16,690.31,1265.22"/>
							<path class="st33" d="M686.71,1267.88l-0.09,31.47c-0.12,0.07-0.23,0.14-0.35,0.21c-1.89,1.1-3.99,2.01-6.22,2.73l0.09-31.47
								c2.23-0.72,4.33-1.63,6.22-2.73C686.48,1268.02,686.6,1267.95,686.71,1267.88"/>
							<path class="st32" d="M680.15,1270.82l-0.09,31.47c-1.72,0.56-3.52,1-5.37,1.34l0.09-31.47
								C676.63,1271.82,678.43,1271.38,680.15,1270.82"/>
							<path class="st31" d="M674.78,1272.15l-0.09,31.47c-1.19,0.21-2.4,0.38-3.62,0.5l0.09-31.47
								C672.38,1272.54,673.59,1272.37,674.78,1272.15"/>
							<path class="st30" d="M671.16,1272.66l-0.09,31.47c-1.04,0.1-2.09,0.17-3.15,0.21l0.09-31.47
								C669.07,1272.83,670.12,1272.76,671.16,1272.66"/>
							<path class="st29" d="M668.01,1272.87l-0.09,31.47c-0.97,0.03-1.94,0.04-2.91,0.01l0.09-31.47
								C666.08,1272.91,667.04,1272.9,668.01,1272.87"/>
							<path class="st28" d="M665.11,1272.88l-0.09,31.47c-0.93-0.02-1.87-0.07-2.79-0.15l0.09-31.47
								C663.24,1272.81,664.17,1272.86,665.11,1272.88"/>
							<path class="st27" d="M662.31,1272.73l-0.09,31.47c-0.93-0.08-1.85-0.18-2.76-0.31l0.09-31.47
								C660.47,1272.55,661.39,1272.66,662.31,1272.73"/>
							<path class="st26" d="M659.55,1272.42l-0.09,31.47c-0.95-0.13-1.89-0.3-2.81-0.49l0.09-31.47
								C657.67,1272.13,658.61,1272.29,659.55,1272.42"/>
							<path class="st34" d="M656.74,1271.93l-0.09,31.47c-1-0.21-1.99-0.45-2.96-0.73l0.09-31.47
								C654.75,1271.49,655.74,1271.73,656.74,1271.93"/>
							<path class="st35" d="M653.78,1271.21l-0.09,31.47c-1.18-0.34-2.33-0.72-3.45-1.16l0.09-31.47
								C651.45,1270.48,652.6,1270.87,653.78,1271.21"/>
							<path class="st23" d="M650.34,1270.05l-0.09,31.47c-1.44-0.57-2.81-1.22-4.09-1.96c-5.6-3.23-8.39-7.47-8.38-11.7l0.09-31.47
								c-0.01,4.23,2.78,8.47,8.38,11.7C647.52,1268.82,648.9,1269.48,650.34,1270.05"/>
						</g>
					</g>
					<g class="st10">
						<defs>
							<path id="SVGID_18_" class="st10" d="M694.52,1288.02c0-0.02,0-0.05,0-0.08c0.03-10.49,0.06-20.98,0.09-31.47
								c0,0.02,0,0.05,0,0.07C694.59,1265.99,694.55,1278.58,694.52,1288.02z"/>
						</defs>
						<clipPath id="SVGID_19_">
							<use xlink:href="#SVGID_18_"  style="overflow:visible;"/>
						</clipPath>
						<g class="st43">
							<path class="st16" d="M694.61,1256.54l-0.09,31.47c0.01-4.23-2.78-8.47-8.38-11.7c-1.28-0.74-2.65-1.39-4.09-1.96l0.09-31.47
								c1.44,0.57,2.81,1.22,4.09,1.96C691.83,1248.07,694.62,1252.31,694.61,1256.54"/>
						</g>
					</g>
					<g>
						<polygon class="st44" points="1300.58,1046.61 1300.49,1078.08 841.96,1344.55 842.04,1313.08 						"/>
					</g>
					<g>
						<linearGradient id="SVGID_20_" gradientUnits="userSpaceOnUse" x1="523.018" y1="1104.5225" x2="1366.8783" y2="1104.5225">
							<stop  offset="0" style="stop-color:#07619E"/>
							<stop  offset="1" style="stop-color:#3085C7"/>
						</linearGradient>
						<path class="st45" d="M1348.35,989.07c24.59,14.2,24.72,37.21,0.3,51.4L835.7,1338.57c-24.43,14.2-64.15,14.19-88.74-0.01
							l-205.42-118.6c-24.59-14.2-24.72-37.2-0.29-51.39l512.95-298.09c24.42-14.19,64.14-14.2,88.72,0L1348.35,989.07z
							 M842.04,1313.08l458.53-266.47L1041.1,896.8l-458.53,266.47L842.04,1313.08 M646.24,1268.08c11.12,6.42,29.08,6.42,40.12,0
							c11.05-6.42,10.99-16.82-0.13-23.24c-11.12-6.42-29.08-6.42-40.13,0C635.07,1251.26,635.12,1261.66,646.24,1268.08
							 M1179.53,928.02c-2.63-1.52-6.88-1.52-9.48,0c-2.61,1.52-2.58,3.97,0.04,5.49l89.18,51.48c2.62,1.52,6.85,1.52,9.46,0
							c2.61-1.52,2.61-3.97-0.02-5.49L1179.53,928.02 M1287.19,990.18c-2.63-1.52-6.86-1.51-9.47,0.01
							c-2.61,1.52-2.6,3.96,0.03,5.48c2.62,1.52,6.86,1.52,9.47,0.01C1289.83,994.16,1289.81,991.69,1287.19,990.18"/>
					</g>
					<g>
						<path class="st13" d="M1268.71,979.51c2.62,1.52,2.63,3.97,0.02,5.49c-2.61,1.52-6.83,1.52-9.46,0l-89.18-51.49
							c-2.63-1.52-2.65-3.97-0.04-5.49c2.61-1.52,6.86-1.52,9.48,0L1268.71,979.51z"/>
					</g>
					<g>
						<path class="st13" d="M1287.19,990.18c2.62,1.52,2.64,3.98,0.03,5.49c-2.61,1.52-6.85,1.51-9.47-0.01
							c-2.62-1.52-2.64-3.96-0.03-5.48C1280.32,988.67,1284.56,988.66,1287.19,990.18z"/>
					</g>
					<g class="st10">
						<path class="st18" d="M1366.88,1014.96l-0.09,31.47c0,0.18,0,0.37-0.01,0.55l0.09-31.47
							C1366.87,1015.33,1366.88,1015.14,1366.88,1014.96"/>
						<path class="st19" d="M1366.87,1015.51l-0.09,31.47c-0.04,1.2-0.17,2.4-0.41,3.6l0.09-31.47
							C1366.7,1017.92,1366.83,1016.71,1366.87,1015.51"/>
					</g>
					<g>
						<g>
							<path class="st13" d="M686.24,1244.84c11.12,6.42,11.18,16.82,0.13,23.24c-11.05,6.42-29.01,6.42-40.12,0
								c-11.12-6.42-11.18-16.82-0.13-23.24C657.16,1238.42,675.12,1238.42,686.24,1244.84z"/>
							<path class="st46" d="M666.33,1273.6c-7.4,0-14.8-1.63-20.45-4.89c-5.63-3.25-8.73-7.61-8.74-12.29
								c-0.01-4.64,3.05-8.98,8.61-12.21c11.23-6.53,29.55-6.53,40.85,0l0,0c5.63,3.25,8.73,7.61,8.74,12.29
								c0.01,4.64-3.05,8.98-8.61,12.21C681.12,1271.97,673.73,1273.6,666.33,1273.6z M666.15,1240.75
								c-7.13,0-14.26,1.57-19.67,4.72c-5.09,2.96-7.89,6.85-7.88,10.95c0.01,4.14,2.85,8.05,8.01,11.03c10.9,6.3,28.57,6.3,39.4,0
								c5.09-2.96,7.89-6.85,7.89-10.96c-0.01-4.13-2.85-8.05-8.02-11.03l0,0C680.42,1242.32,673.28,1240.75,666.15,1240.75z"/>
						</g>
					</g>
					<g>
						<polygon class="st13" points="1300.58,1046.61 842.04,1313.08 582.57,1163.27 1041.1,896.8 						"/>
					</g>
					<path class="st47" d="M541.46,1282.12l205.42,118.6c1.48,0.85,3.02,1.65,4.6,2.4c0.53,0.25,1.09,0.47,1.63,0.71
						c0.94,0.42,1.86,0.85,2.82,1.23c0.16,0.06,0.34,0.12,0.5,0.18c0.36,0.14,0.73,0.26,1.09,0.4c1.25,0.46,2.52,0.9,3.81,1.3
						c0.44,0.14,0.88,0.28,1.33,0.41c0.3,0.09,0.59,0.19,0.89,0.28c1.26,0.36,2.54,0.68,3.83,0.99c0.27,0.06,0.55,0.12,0.82,0.19
						c0.63,0.14,1.26,0.3,1.9,0.43c0.51,0.11,1.04,0.17,1.55,0.27c1.1,0.21,2.21,0.41,3.33,0.58c0.45,0.07,0.89,0.17,1.34,0.23
						c0.48,0.07,0.98,0.1,1.46,0.16c1.04,0.13,2.09,0.25,3.14,0.35c0.5,0.05,1,0.13,1.5,0.17c0.46,0.04,0.93,0.04,1.4,0.07
						c1.06,0.07,2.12,0.13,3.18,0.17c0.53,0.02,1.07,0.07,1.6,0.09c0.42,0.01,0.85-0.01,1.27-0.01c1.15,0.02,2.29,0.01,3.44-0.02
						c0.57-0.01,1.14,0.01,1.71-0.01c0.57-0.02,1.15-0.06,1.72-0.09c0.32-0.02,0.64-0.03,0.95-0.05c1.43-0.09,2.86-0.19,4.28-0.33
						c0.27-0.03,0.54-0.07,0.81-0.1c0.43-0.05,0.85-0.1,1.27-0.15c1.46-0.17,2.91-0.38,4.35-0.62c0.35-0.06,0.71-0.11,1.06-0.17
						c0.17-0.03,0.35-0.05,0.52-0.08c0.69-0.12,1.35-0.3,2.03-0.43c1.16-0.24,2.32-0.46,3.46-0.74c0.83-0.2,1.64-0.44,2.47-0.67
						c1.08-0.3,2.17-0.59,3.23-0.92c0.23-0.07,0.47-0.12,0.69-0.2c1.29-0.42,2.56-0.87,3.81-1.35c0.18-0.07,0.35-0.15,0.54-0.22
						c1.37-0.54,2.71-1.11,4.02-1.71c0.39-0.18,0.77-0.36,1.15-0.54c1.45-0.7,2.87-1.43,4.23-2.22l512.95-298.09
						c0.26-0.15,0.51-0.3,0.77-0.45c0.24-0.14,0.46-0.29,0.69-0.43c0.38-0.24,0.77-0.48,1.14-0.72c0.34-0.22,0.67-0.45,1-0.68
						c0.36-0.25,0.72-0.5,1.06-0.75c0.32-0.23,0.62-0.46,0.93-0.69c0.33-0.26,0.67-0.51,0.98-0.77c0.3-0.24,0.58-0.48,0.86-0.72
						c0.31-0.26,0.61-0.52,0.9-0.79c0.12-0.11,0.25-0.22,0.37-0.32c0.11-0.1,0.2-0.21,0.31-0.31c0.49-0.46,0.96-0.93,1.42-1.41
						c0.15-0.16,0.31-0.32,0.46-0.48c0.57-0.63,1.12-1.26,1.63-1.9c0.02-0.03,0.05-0.05,0.07-0.08c0.12-0.15,0.21-0.3,0.33-0.45
						c0.31-0.4,0.61-0.81,0.88-1.21c0.15-0.22,0.29-0.45,0.44-0.67c0.24-0.37,0.47-0.74,0.69-1.11c0.06-0.1,0.13-0.2,0.19-0.3
						c0.09-0.15,0.15-0.3,0.24-0.46c0.17-0.31,0.33-0.63,0.49-0.94c0.13-0.26,0.25-0.53,0.37-0.79c0.14-0.32,0.27-0.63,0.4-0.95
						c0.06-0.14,0.13-0.28,0.18-0.43c0.05-0.13,0.08-0.26,0.13-0.38c0.11-0.3,0.21-0.6,0.3-0.91c0.09-0.28,0.17-0.55,0.24-0.83
						c0.08-0.3,0.15-0.61,0.22-0.92c0.04-0.17,0.09-0.33,0.12-0.5v-0.08c0.26-1.35,0.42-2.71,0.42-4.07l0.09-31.47
						c-0.01,1.55-0.2,3.1-0.54,4.65c-0.07,0.31-0.14,0.61-0.22,0.92c-0.07,0.28-0.16,0.55-0.24,0.83c-0.09,0.3-0.19,0.61-0.3,0.91
						c-0.1,0.27-0.2,0.54-0.31,0.81c-0.13,0.32-0.26,0.64-0.4,0.95c-0.12,0.27-0.24,0.53-0.37,0.79c-0.15,0.31-0.32,0.63-0.48,0.94
						c-0.14,0.25-0.28,0.51-0.42,0.76c-0.22,0.37-0.45,0.74-0.69,1.11c-0.14,0.22-0.28,0.45-0.44,0.67
						c-0.28,0.41-0.58,0.81-0.88,1.21c-0.13,0.18-0.26,0.35-0.4,0.53c-0.51,0.64-1.05,1.27-1.63,1.9c-0.15,0.16-0.31,0.32-0.46,0.48
						c-0.45,0.48-0.93,0.95-1.42,1.41c-0.22,0.21-0.45,0.42-0.68,0.63c-0.3,0.27-0.6,0.53-0.91,0.79c-0.28,0.24-0.57,0.48-0.87,0.72
						c-0.32,0.26-0.65,0.51-0.98,0.76c-0.31,0.24-0.62,0.47-0.94,0.7c-0.34,0.25-0.7,0.5-1.05,0.74c-0.33,0.23-0.66,0.45-1.01,0.68
						c-0.37,0.24-0.75,0.48-1.13,0.72c-0.48,0.3-0.96,0.6-1.45,0.89L835.7,1369.25c-1.36,0.79-2.78,1.52-4.23,2.22
						c-0.38,0.18-0.77,0.36-1.15,0.54c-1.31,0.6-2.64,1.18-4.01,1.71c-0.18,0.07-0.36,0.15-0.54,0.22c-1.47,0.56-2.98,1.06-4.5,1.54
						c-1.06,0.33-2.14,0.63-3.23,0.92c-0.82,0.22-1.63,0.46-2.47,0.66c-1.14,0.28-2.3,0.51-3.46,0.74
						c-0.85,0.17-1.68,0.36-2.54,0.51c-0.35,0.06-0.71,0.11-1.07,0.17c-1.44,0.24-2.89,0.44-4.34,0.61
						c-0.42,0.05-0.84,0.1-1.27,0.15c-1.69,0.18-3.39,0.32-5.09,0.42c-0.32,0.02-0.63,0.03-0.95,0.05
						c-1.14,0.06-2.29,0.07-3.44,0.09c-1.14,0.02-2.29,0.03-3.43,0.02c-0.96-0.01-1.92-0.04-2.88-0.08
						c-1.06-0.04-2.12-0.1-3.17-0.17c-0.97-0.07-1.94-0.15-2.9-0.24c-1.05-0.1-2.09-0.22-3.13-0.35c-0.94-0.12-1.88-0.25-2.81-0.4
						c-1.11-0.17-2.22-0.37-3.32-0.58c-1.16-0.22-2.32-0.44-3.46-0.7c-0.27-0.06-0.54-0.12-0.81-0.18c-1.6-0.38-3.17-0.81-4.73-1.27
						c-0.45-0.13-0.89-0.27-1.33-0.41c-1.29-0.41-2.56-0.84-3.82-1.3c-0.36-0.13-0.73-0.26-1.09-0.4c-1.14-0.44-2.23-0.93-3.33-1.41
						c-0.54-0.24-1.1-0.46-1.63-0.71c-1.58-0.75-3.12-1.55-4.6-2.4l-205.42-118.6l0,0c-12.37-7.14-18.55-16.52-18.53-25.88
						l-0.09,31.47C522.9,1265.61,529.08,1274.98,541.46,1282.12"/>
					<linearGradient id="SVGID_21_" gradientUnits="userSpaceOnUse" x1="522.9288" y1="1197.8076" x2="1366.8781" y2="1197.8076">
						<stop  offset="0" style="stop-color:#07619E"/>
						<stop  offset="1" style="stop-color:#3085C7"/>
					</linearGradient>
					<path class="st48" d="M541.46,1251.44l205.42,118.6c1.48,0.85,3.02,1.65,4.6,2.4c0.53,0.25,1.09,0.47,1.63,0.71
						c0.94,0.42,1.86,0.85,2.82,1.23c0.16,0.07,0.34,0.12,0.5,0.18c0.36,0.14,0.73,0.26,1.09,0.4c1.25,0.46,2.52,0.9,3.81,1.3
						c0.44,0.14,0.88,0.28,1.33,0.41c0.3,0.09,0.59,0.19,0.89,0.28c1.26,0.36,2.54,0.68,3.83,0.99c0.27,0.06,0.55,0.12,0.82,0.19
						c0.63,0.15,1.26,0.3,1.9,0.43c0.51,0.11,1.04,0.17,1.55,0.27c1.1,0.21,2.21,0.41,3.33,0.58c0.45,0.07,0.89,0.17,1.34,0.23
						c0.48,0.07,0.98,0.1,1.46,0.16c1.04,0.13,2.09,0.25,3.14,0.35c0.5,0.05,1,0.13,1.5,0.17c0.46,0.04,0.93,0.04,1.4,0.08
						c1.06,0.07,2.12,0.13,3.18,0.17c0.53,0.02,1.07,0.07,1.6,0.08c0.42,0.01,0.85-0.01,1.27-0.01c1.15,0.02,2.29,0.01,3.44-0.02
						c0.57-0.01,1.14,0.01,1.71-0.01c0.57-0.02,1.15-0.06,1.72-0.09c0.32-0.02,0.64-0.03,0.95-0.05c1.43-0.09,2.86-0.19,4.28-0.33
						c0.27-0.03,0.54-0.07,0.81-0.1c0.43-0.05,0.85-0.1,1.27-0.15c1.46-0.18,2.91-0.38,4.35-0.62c0.35-0.06,0.71-0.11,1.06-0.17
						c0.17-0.03,0.35-0.05,0.52-0.08c0.69-0.12,1.35-0.3,2.03-0.43c1.16-0.24,2.32-0.46,3.46-0.74c0.83-0.2,1.64-0.44,2.47-0.67
						c1.08-0.3,2.17-0.59,3.23-0.92c0.23-0.07,0.47-0.12,0.69-0.2c1.29-0.42,2.56-0.87,3.81-1.35c0.18-0.07,0.35-0.15,0.54-0.22
						c1.37-0.54,2.71-1.11,4.02-1.71c0.39-0.18,0.77-0.36,1.15-0.54c1.45-0.7,2.87-1.43,4.23-2.22l512.95-298.09
						c0.26-0.15,0.51-0.3,0.77-0.45c0.24-0.14,0.46-0.29,0.69-0.44c0.38-0.24,0.77-0.48,1.14-0.72c0.34-0.22,0.67-0.45,1-0.68
						c0.36-0.25,0.72-0.5,1.06-0.75c0.32-0.23,0.62-0.46,0.93-0.7c0.33-0.26,0.67-0.51,0.98-0.77c0.3-0.24,0.58-0.48,0.86-0.72
						c0.31-0.26,0.61-0.52,0.9-0.79c0.12-0.11,0.25-0.22,0.37-0.32c0.11-0.1,0.2-0.21,0.31-0.31c0.49-0.46,0.96-0.93,1.42-1.41
						c0.15-0.16,0.31-0.32,0.46-0.48c0.57-0.63,1.12-1.26,1.63-1.9c0.02-0.03,0.05-0.05,0.07-0.08c0.12-0.15,0.21-0.3,0.33-0.45
						c0.31-0.4,0.61-0.81,0.88-1.21c0.15-0.22,0.29-0.45,0.44-0.67c0.24-0.37,0.47-0.74,0.69-1.11c0.06-0.1,0.13-0.2,0.19-0.3
						c0.09-0.15,0.15-0.3,0.24-0.46c0.17-0.31,0.33-0.63,0.49-0.94c0.13-0.26,0.25-0.53,0.37-0.79c0.14-0.32,0.27-0.63,0.4-0.95
						c0.06-0.14,0.13-0.28,0.18-0.43c0.05-0.13,0.08-0.26,0.13-0.38c0.11-0.3,0.21-0.61,0.3-0.91c0.09-0.28,0.17-0.55,0.24-0.83
						c0.08-0.31,0.15-0.61,0.22-0.92c0.04-0.17,0.09-0.33,0.12-0.5v-0.08c0.26-1.35,0.42-2.71,0.42-4.07l0.09-31.47
						c-0.01,1.55-0.2,3.1-0.54,4.65c-0.07,0.31-0.14,0.61-0.22,0.92c-0.07,0.28-0.16,0.55-0.24,0.83c-0.09,0.3-0.19,0.61-0.3,0.91
						c-0.1,0.27-0.2,0.54-0.31,0.81c-0.13,0.32-0.26,0.64-0.4,0.95c-0.12,0.27-0.24,0.53-0.37,0.79c-0.15,0.31-0.32,0.63-0.48,0.94
						c-0.14,0.25-0.28,0.51-0.42,0.76c-0.22,0.37-0.45,0.74-0.69,1.11c-0.14,0.22-0.28,0.45-0.44,0.67
						c-0.28,0.41-0.58,0.81-0.88,1.21c-0.13,0.18-0.26,0.35-0.4,0.53c-0.51,0.64-1.05,1.27-1.63,1.9c-0.15,0.16-0.31,0.32-0.46,0.48
						c-0.45,0.47-0.93,0.95-1.42,1.41c-0.22,0.21-0.45,0.42-0.68,0.63c-0.3,0.27-0.6,0.53-0.91,0.79c-0.28,0.24-0.57,0.48-0.87,0.72
						c-0.32,0.26-0.65,0.51-0.98,0.76c-0.31,0.24-0.62,0.47-0.94,0.7c-0.34,0.25-0.7,0.5-1.05,0.74c-0.33,0.23-0.66,0.45-1.01,0.68
						c-0.37,0.24-0.75,0.48-1.13,0.72c-0.48,0.3-0.96,0.6-1.45,0.89L835.7,1338.57c-1.36,0.79-2.78,1.52-4.23,2.22
						c-0.38,0.19-0.77,0.36-1.15,0.54c-1.31,0.6-2.64,1.18-4.01,1.71c-0.18,0.07-0.36,0.15-0.54,0.22c-1.47,0.56-2.98,1.07-4.5,1.55
						c-1.06,0.33-2.14,0.63-3.23,0.92c-0.82,0.22-1.63,0.46-2.47,0.66c-1.14,0.28-2.3,0.5-3.46,0.74c-0.85,0.17-1.68,0.36-2.54,0.51
						c-0.35,0.06-0.71,0.11-1.07,0.17c-1.44,0.24-2.89,0.44-4.34,0.61c-0.42,0.05-0.84,0.11-1.27,0.15
						c-1.69,0.18-3.39,0.32-5.09,0.42c-0.32,0.02-0.63,0.03-0.95,0.05c-1.14,0.06-2.29,0.07-3.44,0.09
						c-1.14,0.02-2.29,0.03-3.43,0.02c-0.96-0.01-1.92-0.04-2.88-0.08c-1.06-0.04-2.12-0.1-3.17-0.17c-0.97-0.07-1.94-0.15-2.9-0.24
						c-1.05-0.1-2.09-0.22-3.13-0.35c-0.94-0.12-1.88-0.25-2.81-0.4c-1.11-0.17-2.22-0.37-3.32-0.58c-1.16-0.22-2.32-0.44-3.46-0.7
						c-0.27-0.06-0.54-0.12-0.81-0.18c-1.6-0.38-3.17-0.81-4.73-1.27c-0.45-0.13-0.89-0.27-1.33-0.41c-1.29-0.41-2.56-0.84-3.82-1.3
						c-0.36-0.13-0.73-0.26-1.09-0.4c-1.14-0.44-2.23-0.93-3.33-1.41c-0.54-0.24-1.1-0.46-1.63-0.71c-1.58-0.75-3.12-1.55-4.6-2.4
						l-205.42-118.6l0,0c-12.37-7.14-18.55-16.52-18.53-25.88l-0.09,31.47C522.9,1234.92,529.08,1244.29,541.46,1251.44"/>
					<path class="st49" d="M541.46,1251.44"/>
					<path class="st49" d="M541.51,1232.52"/>
					<path class="st49" d="M541.46,1251.44"/>
				</g>
			</g>
			<linearGradient id="SVGID_22_" gradientUnits="userSpaceOnUse" x1="530.6349" y1="1172.5354" x2="1366.8689" y2="1172.5354">
				<stop  offset="0" style="stop-color:#07619E"/>
				<stop  offset="1" style="stop-color:#3085C7"/>
			</linearGradient>
			<path class="st50" d="M1357.6,995.86c12.92,13.77,9.41,31.33-10.61,42.96l-512.95,298.09c-24.43,14.2-64.15,14.19-88.74-0.01
				l-205.42-118.6c-3.62-2.09-6.69-4.37-9.25-6.78c2.84,3.03,6.47,5.88,10.91,8.45l205.42,118.6c24.59,14.2,64.31,14.2,88.74,0.01
				l512.95-298.09C1369.48,1028.37,1372.43,1009.85,1357.6,995.86z"/>
		</g>
		<g>
			<linearGradient id="SVGID_23_" gradientUnits="userSpaceOnUse" x1="785.5234" y1="1162.3372" x2="881.3672" y2="1162.3372">
				<stop  offset="0" style="stop-color:#07619E"/>
				<stop  offset="1" style="stop-color:#3085C7"/>
			</linearGradient>
			<path class="st51" d="M876.31,1140.37c-8.76-3.83-25.75-1.83-37.87,4.39l-41.66,21.36c-7.42,3.81-11.35,8.35-11.26,12.17
				c0.06,2.42,1.72,4.55,5.11,6.03c8.76,3.81,25.76,1.83,37.87-4.39l41.56-21.34c7.49-3.84,11.4-8.38,11.31-12.2
				C881.31,1143.97,879.66,1141.85,876.31,1140.37z"/>
			<linearGradient id="SVGID_24_" gradientUnits="userSpaceOnUse" x1="721.6964" y1="1189.2532" x2="840.9485" y2="1189.2532">
				<stop  offset="0" style="stop-color:#07619E"/>
				<stop  offset="1" style="stop-color:#3085C7"/>
			</linearGradient>
			<path class="st52" d="M831.98,1183.71c-17.73,9.09-37.06,9-45.79,6.72c-7.33-1.88-11.54-5.41-11.64-9.75
				c-0.01-0.29,0-0.59,0.03-0.89c0.49-4.63,5.45-9.92,14.39-15.33c1.27-0.78,1.9-1.61,1.89-2.31c-0.01-0.6-0.5-1.1-1.48-1.39
				c-1.91-0.55-5.18-0.01-7.55,1.2l-0.59,0.32c-11.3,6.84-17.62,13.64-18.17,19.71c-0.04,0.37-0.05,0.75-0.04,1.11
				c0.09,3.71,2.44,6.98,6.67,9.45l-17.92,9.18l-21.65-9.45c-1.41-0.62-4.29-0.24-6.36,0.84c-1.36,0.69-2.09,1.48-2.07,2.13
				c0.01,0.39,0.28,0.72,0.85,0.95l49.04,21.42c1.51,0.63,4.29,0.29,6.46-0.8c1.31-0.69,2.02-1.5,2-2.16
				c-0.01-0.38-0.26-0.71-0.78-0.94l-22.25-9.71l17.83-9.13c0.9,0.3,1.91,0.58,2.91,0.83c14.14,3.68,39.51,1.71,60.68-9.16
				c1.66-0.85,2.54-1.83,2.53-2.64c-0.01-0.48-0.34-0.9-1.02-1.19C838.11,1181.92,834.54,1182.38,831.98,1183.71z"/>
		</g>
	</g>
	<g>
		<g>
			<g>
				<defs>
					<filter id="Adobe_OpacityMaskFilter" filterUnits="userSpaceOnUse" x="440.29" y="121.91" width="12.29" height="393.67">
						<feFlood  style="flood-color:white;flood-opacity:1" result="back"/>
						<feBlend  in="SourceGraphic" in2="back" mode="normal"/>
					</filter>
				</defs>
				<mask maskUnits="userSpaceOnUse" x="440.29" y="121.91" width="12.29" height="393.67" id="SVGID_25_">
					<g class="st53">
						<defs>
							<filter id="Adobe_OpacityMaskFilter_1_" filterUnits="userSpaceOnUse" x="440.29" y="121.91" width="12.29" height="393.67">
								<feFlood  style="flood-color:white;flood-opacity:1" result="back"/>
								<feBlend  in="SourceGraphic" in2="back" mode="normal"/>
							</filter>
						</defs>
						<mask maskUnits="userSpaceOnUse" x="440.29" y="121.91" width="12.29" height="393.67" id="SVGID_25_">
							<g class="st54">
							</g>
						</mask>
						
							<linearGradient id="SVGID_26_" gradientUnits="userSpaceOnUse" x1="409.3751" y1="121.9083" x2="409.3751" y2="500.8977" gradientTransform="matrix(1 0 0 1 37.0617 0)">
							<stop  offset="0" style="stop-color:#FFFFFF"/>
							<stop  offset="0.0154" style="stop-color:#F7F7F7"/>
							<stop  offset="0.1321" style="stop-color:#BEBEBE"/>
							<stop  offset="0.2521" style="stop-color:#8B8B8B"/>
							<stop  offset="0.3727" style="stop-color:#606060"/>
							<stop  offset="0.4942" style="stop-color:#3E3E3E"/>
							<stop  offset="0.6166" style="stop-color:#232323"/>
							<stop  offset="0.7406" style="stop-color:#0F0F0F"/>
							<stop  offset="0.8671" style="stop-color:#040404"/>
							<stop  offset="1" style="stop-color:#000000"/>
						</linearGradient>
						<path class="st55" d="M446.44,515.58L446.44,515.58c-3.39,0-6.15-2.75-6.15-6.15V128.05c0-3.39,2.75-6.15,6.15-6.15l0,0
							c3.39,0,6.15,2.75,6.15,6.15v381.38C452.58,512.83,449.83,515.58,446.44,515.58z"/>
					</g>
				</mask>
				<path class="st0" d="M446.44,515.58L446.44,515.58c-3.39,0-6.15-2.75-6.15-6.15V128.05c0-3.39,2.75-6.15,6.15-6.15l0,0
					c3.39,0,6.15,2.75,6.15,6.15v381.38C452.58,512.83,449.83,515.58,446.44,515.58z"/>
				<defs>
					<filter id="Adobe_OpacityMaskFilter_2_" filterUnits="userSpaceOnUse" x="312.37" y="308.82" width="10.82" height="346.65">
						<feFlood  style="flood-color:white;flood-opacity:1" result="back"/>
						<feBlend  in="SourceGraphic" in2="back" mode="normal"/>
					</filter>
				</defs>
				<mask maskUnits="userSpaceOnUse" x="312.37" y="308.82" width="10.82" height="346.65" id="SVGID_27_">
					<g class="st56">
						<defs>
							<filter id="Adobe_OpacityMaskFilter_3_" filterUnits="userSpaceOnUse" x="312.37" y="308.82" width="10.82" height="346.65">
								<feFlood  style="flood-color:white;flood-opacity:1" result="back"/>
								<feBlend  in="SourceGraphic" in2="back" mode="normal"/>
							</filter>
						</defs>
						<mask maskUnits="userSpaceOnUse" x="312.37" y="308.82" width="10.82" height="346.65" id="SVGID_27_">
							<g class="st57">
							</g>
						</mask>
						
							<linearGradient id="SVGID_28_" gradientUnits="userSpaceOnUse" x1="280.718" y1="308.8153" x2="280.718" y2="642.5353" gradientTransform="matrix(1 0 0 1 37.0617 0)">
							<stop  offset="0" style="stop-color:#FFFFFF"/>
							<stop  offset="0.0154" style="stop-color:#F7F7F7"/>
							<stop  offset="0.1321" style="stop-color:#BEBEBE"/>
							<stop  offset="0.2521" style="stop-color:#8B8B8B"/>
							<stop  offset="0.3727" style="stop-color:#606060"/>
							<stop  offset="0.4942" style="stop-color:#3E3E3E"/>
							<stop  offset="0.6166" style="stop-color:#232323"/>
							<stop  offset="0.7406" style="stop-color:#0F0F0F"/>
							<stop  offset="0.8671" style="stop-color:#040404"/>
							<stop  offset="1" style="stop-color:#000000"/>
						</linearGradient>
						<path class="st58" d="M317.78,655.47L317.78,655.47c-2.99,0-5.41-2.42-5.41-5.41V314.23c0-2.99,2.42-5.41,5.41-5.41l0,0
							c2.99,0,5.41,2.42,5.41,5.41v335.83C323.19,653.04,320.77,655.47,317.78,655.47z"/>
					</g>
				</mask>
				<path class="st0" d="M317.78,655.47L317.78,655.47c-2.99,0-5.41-2.42-5.41-5.41V314.23c0-2.99,2.42-5.41,5.41-5.41l0,0
					c2.99,0,5.41,2.42,5.41,5.41v335.83C323.19,653.04,320.77,655.47,317.78,655.47z"/>
				<defs>
					<filter id="Adobe_OpacityMaskFilter_4_" filterUnits="userSpaceOnUse" x="364.26" y="166.51" width="7.07" height="226.3">
						<feFlood  style="flood-color:white;flood-opacity:1" result="back"/>
						<feBlend  in="SourceGraphic" in2="back" mode="normal"/>
					</filter>
				</defs>
				<mask maskUnits="userSpaceOnUse" x="364.26" y="166.51" width="7.07" height="226.3" id="SVGID_29_">
					<g class="st59">
						<defs>
							<filter id="Adobe_OpacityMaskFilter_5_" filterUnits="userSpaceOnUse" x="364.26" y="166.51" width="7.07" height="226.3">
								<feFlood  style="flood-color:white;flood-opacity:1" result="back"/>
								<feBlend  in="SourceGraphic" in2="back" mode="normal"/>
							</filter>
						</defs>
						<mask maskUnits="userSpaceOnUse" x="364.26" y="166.51" width="7.07" height="226.3" id="SVGID_29_">
							<g class="st60">
							</g>
						</mask>
						
							<linearGradient id="SVGID_30_" gradientUnits="userSpaceOnUse" x1="330.7286" y1="166.5102" x2="330.7286" y2="384.3675" gradientTransform="matrix(1 0 0 1 37.0617 0)">
							<stop  offset="0" style="stop-color:#FFFFFF"/>
							<stop  offset="0.0154" style="stop-color:#F7F7F7"/>
							<stop  offset="0.1321" style="stop-color:#BEBEBE"/>
							<stop  offset="0.2521" style="stop-color:#8B8B8B"/>
							<stop  offset="0.3727" style="stop-color:#606060"/>
							<stop  offset="0.4942" style="stop-color:#3E3E3E"/>
							<stop  offset="0.6166" style="stop-color:#232323"/>
							<stop  offset="0.7406" style="stop-color:#0F0F0F"/>
							<stop  offset="0.8671" style="stop-color:#040404"/>
							<stop  offset="1" style="stop-color:#000000"/>
						</linearGradient>
						<path class="st61" d="M367.79,392.81L367.79,392.81c-1.95,0-3.53-1.58-3.53-3.53V170.04c0-1.95,1.58-3.53,3.53-3.53l0,0
							c1.95,0,3.53,1.58,3.53,3.53v219.23C371.32,391.23,369.74,392.81,367.79,392.81z"/>
					</g>
				</mask>
				<path class="st0" d="M367.79,392.81L367.79,392.81c-1.95,0-3.53-1.58-3.53-3.53V170.04c0-1.95,1.58-3.53,3.53-3.53l0,0
					c1.95,0,3.53,1.58,3.53,3.53v219.23C371.32,391.23,369.74,392.81,367.79,392.81z"/>
				<defs>
					<filter id="Adobe_OpacityMaskFilter_6_" filterUnits="userSpaceOnUse" x="405.75" y="59.1" width="3.44" height="192.62">
						<feFlood  style="flood-color:white;flood-opacity:1" result="back"/>
						<feBlend  in="SourceGraphic" in2="back" mode="normal"/>
					</filter>
				</defs>
				<mask maskUnits="userSpaceOnUse" x="405.75" y="59.1" width="3.44" height="192.62" id="SVGID_31_">
					<g class="st62">
						<defs>
							<filter id="Adobe_OpacityMaskFilter_7_" filterUnits="userSpaceOnUse" x="405.75" y="59.1" width="3.44" height="192.62">
								<feFlood  style="flood-color:white;flood-opacity:1" result="back"/>
								<feBlend  in="SourceGraphic" in2="back" mode="normal"/>
							</filter>
						</defs>
						<mask maskUnits="userSpaceOnUse" x="405.75" y="59.1" width="3.44" height="192.62" id="SVGID_31_">
							<g class="st63">
							</g>
						</mask>
						
							<linearGradient id="SVGID_32_" gradientUnits="userSpaceOnUse" x1="370.4052" y1="59.0985" x2="370.4052" y2="244.5376" gradientTransform="matrix(1 0 0 1 37.0617 0)">
							<stop  offset="0" style="stop-color:#FFFFFF"/>
							<stop  offset="0.0154" style="stop-color:#F7F7F7"/>
							<stop  offset="0.1321" style="stop-color:#BEBEBE"/>
							<stop  offset="0.2521" style="stop-color:#8B8B8B"/>
							<stop  offset="0.3727" style="stop-color:#606060"/>
							<stop  offset="0.4942" style="stop-color:#3E3E3E"/>
							<stop  offset="0.6166" style="stop-color:#232323"/>
							<stop  offset="0.7406" style="stop-color:#0F0F0F"/>
							<stop  offset="0.8671" style="stop-color:#040404"/>
							<stop  offset="1" style="stop-color:#000000"/>
						</linearGradient>
						<path class="st64" d="M407.47,251.72L407.47,251.72c-0.95,0-1.72-0.77-1.72-1.72V60.82c0-0.95,0.77-1.72,1.72-1.72l0,0
							c0.95,0,1.72,0.77,1.72,1.72V250C409.19,250.95,408.42,251.72,407.47,251.72z"/>
					</g>
				</mask>
				<path class="st0" d="M407.47,251.72L407.47,251.72c-0.95,0-1.72-0.77-1.72-1.72V60.82c0-0.95,0.77-1.72,1.72-1.72l0,0
					c0.95,0,1.72,0.77,1.72,1.72V250C409.19,250.95,408.42,251.72,407.47,251.72z"/>
				<defs>
					<filter id="Adobe_OpacityMaskFilter_8_" filterUnits="userSpaceOnUse" x="267.52" y="157.02" width="12.71" height="407.14">
						<feFlood  style="flood-color:white;flood-opacity:1" result="back"/>
						<feBlend  in="SourceGraphic" in2="back" mode="normal"/>
					</filter>
				</defs>
				<mask maskUnits="userSpaceOnUse" x="267.52" y="157.02" width="12.71" height="407.14" id="SVGID_33_">
					<g class="st65">
						<defs>
							<filter id="Adobe_OpacityMaskFilter_9_" filterUnits="userSpaceOnUse" x="267.52" y="157.02" width="12.71" height="407.14">
								<feFlood  style="flood-color:white;flood-opacity:1" result="back"/>
								<feBlend  in="SourceGraphic" in2="back" mode="normal"/>
							</filter>
						</defs>
						<mask maskUnits="userSpaceOnUse" x="267.52" y="157.02" width="12.71" height="407.14" id="SVGID_33_">
							<g class="st66">
							</g>
						</mask>
						
							<linearGradient id="SVGID_34_" gradientUnits="userSpaceOnUse" x1="236.8118" y1="157.018" x2="236.8118" y2="548.967" gradientTransform="matrix(1 0 0 1 37.0617 0)">
							<stop  offset="0" style="stop-color:#FFFFFF"/>
							<stop  offset="0.0154" style="stop-color:#F7F7F7"/>
							<stop  offset="0.1321" style="stop-color:#BEBEBE"/>
							<stop  offset="0.2521" style="stop-color:#8B8B8B"/>
							<stop  offset="0.3727" style="stop-color:#606060"/>
							<stop  offset="0.4942" style="stop-color:#3E3E3E"/>
							<stop  offset="0.6166" style="stop-color:#232323"/>
							<stop  offset="0.7406" style="stop-color:#0F0F0F"/>
							<stop  offset="0.8671" style="stop-color:#040404"/>
							<stop  offset="1" style="stop-color:#000000"/>
						</linearGradient>
						<path class="st67" d="M273.87,564.15L273.87,564.15c-3.51,0-6.36-2.84-6.36-6.36V163.37c0-3.51,2.85-6.36,6.36-6.36l0,0
							c3.51,0,6.36,2.84,6.36,6.36V557.8C280.23,561.31,277.38,564.15,273.87,564.15z"/>
					</g>
				</mask>
				<path class="st0" d="M273.87,564.15L273.87,564.15c-3.51,0-6.36-2.84-6.36-6.36V163.37c0-3.51,2.85-6.36,6.36-6.36l0,0
					c3.51,0,6.36,2.84,6.36,6.36V557.8C280.23,561.31,277.38,564.15,273.87,564.15z"/>
			</g>
			<defs>
				<filter id="Adobe_OpacityMaskFilter_10_" filterUnits="userSpaceOnUse" x="451.02" y="421.57" width="12.29" height="393.67">
					<feFlood  style="flood-color:white;flood-opacity:1" result="back"/>
					<feBlend  in="SourceGraphic" in2="back" mode="normal"/>
				</filter>
			</defs>
			<mask maskUnits="userSpaceOnUse" x="451.02" y="421.57" width="12.29" height="393.67" id="SVGID_35_">
				<g class="st68">
					<defs>
						<filter id="Adobe_OpacityMaskFilter_11_" filterUnits="userSpaceOnUse" x="451.02" y="421.57" width="12.29" height="393.67">
							<feFlood  style="flood-color:white;flood-opacity:1" result="back"/>
							<feBlend  in="SourceGraphic" in2="back" mode="normal"/>
						</filter>
					</defs>
					<mask maskUnits="userSpaceOnUse" x="451.02" y="421.57" width="12.29" height="393.67" id="SVGID_35_">
						<g class="st69">
						</g>
					</mask>
					
						<linearGradient id="SVGID_36_" gradientUnits="userSpaceOnUse" x1="420.1059" y1="421.571" x2="420.1059" y2="800.5616" gradientTransform="matrix(1 0 0 1 37.0617 0)">
						<stop  offset="0" style="stop-color:#FFFFFF"/>
						<stop  offset="0.0154" style="stop-color:#F7F7F7"/>
						<stop  offset="0.1321" style="stop-color:#BEBEBE"/>
						<stop  offset="0.2521" style="stop-color:#8B8B8B"/>
						<stop  offset="0.3727" style="stop-color:#606060"/>
						<stop  offset="0.4942" style="stop-color:#3E3E3E"/>
						<stop  offset="0.6166" style="stop-color:#232323"/>
						<stop  offset="0.7406" style="stop-color:#0F0F0F"/>
						<stop  offset="0.8671" style="stop-color:#040404"/>
						<stop  offset="1" style="stop-color:#000000"/>
					</linearGradient>
					<path class="st70" d="M457.17,815.25L457.17,815.25c-3.39,0-6.15-2.75-6.15-6.15V427.72c0-3.39,2.75-6.15,6.15-6.15l0,0
						c3.39,0,6.15,2.75,6.15,6.15V809.1C463.31,812.49,460.56,815.25,457.17,815.25z"/>
				</g>
			</mask>
			<path class="st0" d="M457.17,815.25L457.17,815.25c-3.39,0-6.15-2.75-6.15-6.15V427.72c0-3.39,2.75-6.15,6.15-6.15l0,0
				c3.39,0,6.15,2.75,6.15,6.15V809.1C463.31,812.49,460.56,815.25,457.17,815.25z"/>
			<defs>
				<filter id="Adobe_OpacityMaskFilter_12_" filterUnits="userSpaceOnUse" x="387.79" y="572.67" width="7.07" height="226.3">
					<feFlood  style="flood-color:white;flood-opacity:1" result="back"/>
					<feBlend  in="SourceGraphic" in2="back" mode="normal"/>
				</filter>
			</defs>
			<mask maskUnits="userSpaceOnUse" x="387.79" y="572.67" width="7.07" height="226.3" id="SVGID_37_">
				<g class="st71">
					<defs>
						<filter id="Adobe_OpacityMaskFilter_13_" filterUnits="userSpaceOnUse" x="387.79" y="572.67" width="7.07" height="226.3">
							<feFlood  style="flood-color:white;flood-opacity:1" result="back"/>
							<feBlend  in="SourceGraphic" in2="back" mode="normal"/>
						</filter>
					</defs>
					<mask maskUnits="userSpaceOnUse" x="387.79" y="572.67" width="7.07" height="226.3" id="SVGID_37_">
						<g class="st72">
						</g>
					</mask>
					
						<linearGradient id="SVGID_38_" gradientUnits="userSpaceOnUse" x1="354.2572" y1="572.6733" x2="354.2572" y2="790.5319" gradientTransform="matrix(1 0 0 1 37.0617 0)">
						<stop  offset="0" style="stop-color:#FFFFFF"/>
						<stop  offset="0.0154" style="stop-color:#F7F7F7"/>
						<stop  offset="0.1321" style="stop-color:#BEBEBE"/>
						<stop  offset="0.2521" style="stop-color:#8B8B8B"/>
						<stop  offset="0.3727" style="stop-color:#606060"/>
						<stop  offset="0.4942" style="stop-color:#3E3E3E"/>
						<stop  offset="0.6166" style="stop-color:#232323"/>
						<stop  offset="0.7406" style="stop-color:#0F0F0F"/>
						<stop  offset="0.8671" style="stop-color:#040404"/>
						<stop  offset="1" style="stop-color:#000000"/>
					</linearGradient>
					<path class="st73" d="M391.32,798.97L391.32,798.97c-1.95,0-3.53-1.58-3.53-3.53V576.21c0-1.95,1.58-3.53,3.53-3.53l0,0
						c1.95,0,3.53,1.58,3.53,3.53v219.23C394.85,797.39,393.27,798.97,391.32,798.97z"/>
				</g>
			</mask>
			<path class="st0" d="M391.32,798.97L391.32,798.97c-1.95,0-3.53-1.58-3.53-3.53V576.21c0-1.95,1.58-3.53,3.53-3.53l0,0
				c1.95,0,3.53,1.58,3.53,3.53v219.23C394.85,797.39,393.27,798.97,391.32,798.97z"/>
			<defs>
				<filter id="Adobe_OpacityMaskFilter_14_" filterUnits="userSpaceOnUse" x="414.76" y="490.56" width="3.44" height="192.62">
					<feFlood  style="flood-color:white;flood-opacity:1" result="back"/>
					<feBlend  in="SourceGraphic" in2="back" mode="normal"/>
				</filter>
			</defs>
			<mask maskUnits="userSpaceOnUse" x="414.76" y="490.56" width="3.44" height="192.62" id="SVGID_39_">
				<g class="st74">
					<defs>
						<filter id="Adobe_OpacityMaskFilter_15_" filterUnits="userSpaceOnUse" x="414.76" y="490.56" width="3.44" height="192.62">
							<feFlood  style="flood-color:white;flood-opacity:1" result="back"/>
							<feBlend  in="SourceGraphic" in2="back" mode="normal"/>
						</filter>
					</defs>
					<mask maskUnits="userSpaceOnUse" x="414.76" y="490.56" width="3.44" height="192.62" id="SVGID_39_">
						<g class="st75">
						</g>
					</mask>
					
						<linearGradient id="SVGID_40_" gradientUnits="userSpaceOnUse" x1="379.4165" y1="490.5634" x2="379.4165" y2="676.0024" gradientTransform="matrix(1 0 0 1 37.0617 0)">
						<stop  offset="0" style="stop-color:#FFFFFF"/>
						<stop  offset="0.0154" style="stop-color:#F7F7F7"/>
						<stop  offset="0.1321" style="stop-color:#BEBEBE"/>
						<stop  offset="0.2521" style="stop-color:#8B8B8B"/>
						<stop  offset="0.3727" style="stop-color:#606060"/>
						<stop  offset="0.4942" style="stop-color:#3E3E3E"/>
						<stop  offset="0.6166" style="stop-color:#232323"/>
						<stop  offset="0.7406" style="stop-color:#0F0F0F"/>
						<stop  offset="0.8671" style="stop-color:#040404"/>
						<stop  offset="1" style="stop-color:#000000"/>
					</linearGradient>
					<path class="st76" d="M416.48,683.19L416.48,683.19c-0.95,0-1.72-0.77-1.72-1.72V492.28c0-0.95,0.77-1.72,1.72-1.72l0,0
						c0.95,0,1.72,0.77,1.72,1.72v189.18C418.2,682.42,417.43,683.19,416.48,683.19z"/>
				</g>
			</mask>
			<path class="st0" d="M416.48,683.19L416.48,683.19c-0.95,0-1.72-0.77-1.72-1.72V492.28c0-0.95,0.77-1.72,1.72-1.72l0,0
				c0.95,0,1.72,0.77,1.72,1.72v189.18C418.2,682.42,417.43,683.19,416.48,683.19z"/>
			<defs>
				<filter id="Adobe_OpacityMaskFilter_16_" filterUnits="userSpaceOnUse" x="496.14" y="645.02" width="12.71" height="407.14">
					<feFlood  style="flood-color:white;flood-opacity:1" result="back"/>
					<feBlend  in="SourceGraphic" in2="back" mode="normal"/>
				</filter>
			</defs>
			<mask maskUnits="userSpaceOnUse" x="496.14" y="645.02" width="12.71" height="407.14" id="SVGID_41_">
				<g class="st77">
					<defs>
						<filter id="Adobe_OpacityMaskFilter_17_" filterUnits="userSpaceOnUse" x="496.14" y="645.02" width="12.71" height="407.14">
							<feFlood  style="flood-color:white;flood-opacity:1" result="back"/>
							<feBlend  in="SourceGraphic" in2="back" mode="normal"/>
						</filter>
					</defs>
					<mask maskUnits="userSpaceOnUse" x="496.14" y="645.02" width="12.71" height="407.14" id="SVGID_41_">
						<g class="st78">
						</g>
					</mask>
					
						<linearGradient id="SVGID_42_" gradientUnits="userSpaceOnUse" x1="465.4312" y1="645.0244" x2="465.4312" y2="1036.9747" gradientTransform="matrix(1 0 0 1 37.0617 0)">
						<stop  offset="0" style="stop-color:#FFFFFF"/>
						<stop  offset="0.0154" style="stop-color:#F7F7F7"/>
						<stop  offset="0.1321" style="stop-color:#BEBEBE"/>
						<stop  offset="0.2521" style="stop-color:#8B8B8B"/>
						<stop  offset="0.3727" style="stop-color:#606060"/>
						<stop  offset="0.4942" style="stop-color:#3E3E3E"/>
						<stop  offset="0.6166" style="stop-color:#232323"/>
						<stop  offset="0.7406" style="stop-color:#0F0F0F"/>
						<stop  offset="0.8671" style="stop-color:#040404"/>
						<stop  offset="1" style="stop-color:#000000"/>
					</linearGradient>
					<path class="st79" d="M502.49,1052.16L502.49,1052.16c-3.51,0-6.35-2.85-6.35-6.36V651.38c0-3.51,2.84-6.36,6.35-6.36l0,0
						c3.51,0,6.36,2.85,6.36,6.36v394.42C508.85,1049.31,506,1052.16,502.49,1052.16z"/>
				</g>
			</mask>
			<path class="st0" d="M502.49,1052.16L502.49,1052.16c-3.51,0-6.35-2.85-6.35-6.36V651.38c0-3.51,2.84-6.36,6.35-6.36l0,0
				c3.51,0,6.36,2.85,6.36,6.36v394.42C508.85,1049.31,506,1052.16,502.49,1052.16z"/>
		</g>
		<g>
			<g>
				<defs>
					<filter id="Adobe_OpacityMaskFilter_18_" filterUnits="userSpaceOnUse" x="710.2" y="512.93" width="12.29" height="393.67">
						<feFlood  style="flood-color:white;flood-opacity:1" result="back"/>
						<feBlend  in="SourceGraphic" in2="back" mode="normal"/>
					</filter>
				</defs>
				<mask maskUnits="userSpaceOnUse" x="710.2" y="512.93" width="12.29" height="393.67" id="SVGID_43_">
					<g class="st80">
						<defs>
							<filter id="Adobe_OpacityMaskFilter_19_" filterUnits="userSpaceOnUse" x="710.2" y="512.93" width="12.29" height="393.67">
								<feFlood  style="flood-color:white;flood-opacity:1" result="back"/>
								<feBlend  in="SourceGraphic" in2="back" mode="normal"/>
							</filter>
						</defs>
						<mask maskUnits="userSpaceOnUse" x="710.2" y="512.93" width="12.29" height="393.67" id="SVGID_43_">
							<g class="st81">
							</g>
						</mask>
						
							<linearGradient id="SVGID_44_" gradientUnits="userSpaceOnUse" x1="679.2825" y1="512.931" x2="679.2825" y2="891.9217" gradientTransform="matrix(1 0 0 1 37.0617 0)">
							<stop  offset="0" style="stop-color:#FFFFFF"/>
							<stop  offset="0.0154" style="stop-color:#F7F7F7"/>
							<stop  offset="0.1321" style="stop-color:#BEBEBE"/>
							<stop  offset="0.2521" style="stop-color:#8B8B8B"/>
							<stop  offset="0.3727" style="stop-color:#606060"/>
							<stop  offset="0.4942" style="stop-color:#3E3E3E"/>
							<stop  offset="0.6166" style="stop-color:#232323"/>
							<stop  offset="0.7406" style="stop-color:#0F0F0F"/>
							<stop  offset="0.8671" style="stop-color:#040404"/>
							<stop  offset="1" style="stop-color:#000000"/>
						</linearGradient>
						<path class="st82" d="M716.34,906.61L716.34,906.61c-3.39,0-6.15-2.75-6.15-6.15V519.08c0-3.39,2.75-6.15,6.15-6.15l0,0
							c3.39,0,6.15,2.75,6.15,6.15v381.38C722.49,903.85,719.74,906.61,716.34,906.61z"/>
					</g>
				</mask>
				<path class="st0" d="M716.34,906.61L716.34,906.61c-3.39,0-6.15-2.75-6.15-6.15V519.08c0-3.39,2.75-6.15,6.15-6.15l0,0
					c3.39,0,6.15,2.75,6.15,6.15v381.38C722.49,903.85,719.74,906.61,716.34,906.61z"/>
				<defs>
					<filter id="Adobe_OpacityMaskFilter_20_" filterUnits="userSpaceOnUse" x="582.28" y="699.84" width="10.82" height="346.65">
						<feFlood  style="flood-color:white;flood-opacity:1" result="back"/>
						<feBlend  in="SourceGraphic" in2="back" mode="normal"/>
					</filter>
				</defs>
				<mask maskUnits="userSpaceOnUse" x="582.28" y="699.84" width="10.82" height="346.65" id="SVGID_45_">
					<g class="st83">
						<defs>
							
								<filter id="Adobe_OpacityMaskFilter_21_" filterUnits="userSpaceOnUse" x="582.28" y="699.84" width="10.82" height="346.65">
								<feFlood  style="flood-color:white;flood-opacity:1" result="back"/>
								<feBlend  in="SourceGraphic" in2="back" mode="normal"/>
							</filter>
						</defs>
						<mask maskUnits="userSpaceOnUse" x="582.28" y="699.84" width="10.82" height="346.65" id="SVGID_45_">
							<g class="st84">
							</g>
						</mask>
						
							<linearGradient id="SVGID_46_" gradientUnits="userSpaceOnUse" x1="550.6248" y1="699.8381" x2="550.6248" y2="1033.558" gradientTransform="matrix(1 0 0 1 37.0617 0)">
							<stop  offset="0" style="stop-color:#FFFFFF"/>
							<stop  offset="0.0154" style="stop-color:#F7F7F7"/>
							<stop  offset="0.1321" style="stop-color:#BEBEBE"/>
							<stop  offset="0.2521" style="stop-color:#8B8B8B"/>
							<stop  offset="0.3727" style="stop-color:#606060"/>
							<stop  offset="0.4942" style="stop-color:#3E3E3E"/>
							<stop  offset="0.6166" style="stop-color:#232323"/>
							<stop  offset="0.7406" style="stop-color:#0F0F0F"/>
							<stop  offset="0.8671" style="stop-color:#040404"/>
							<stop  offset="1" style="stop-color:#000000"/>
						</linearGradient>
						<path class="st85" d="M587.69,1046.49L587.69,1046.49c-2.99,0-5.41-2.42-5.41-5.41V705.25c0-2.99,2.42-5.41,5.41-5.41l0,0
							c2.99,0,5.41,2.42,5.41,5.41v335.83C593.1,1044.07,590.67,1046.49,587.69,1046.49z"/>
					</g>
				</mask>
				<path class="st0" d="M587.69,1046.49L587.69,1046.49c-2.99,0-5.41-2.42-5.41-5.41V705.25c0-2.99,2.42-5.41,5.41-5.41l0,0
					c2.99,0,5.41,2.42,5.41,5.41v335.83C593.1,1044.07,590.67,1046.49,587.69,1046.49z"/>
				<defs>
					<filter id="Adobe_OpacityMaskFilter_22_" filterUnits="userSpaceOnUse" x="634.17" y="557.53" width="7.07" height="226.3">
						<feFlood  style="flood-color:white;flood-opacity:1" result="back"/>
						<feBlend  in="SourceGraphic" in2="back" mode="normal"/>
					</filter>
				</defs>
				<mask maskUnits="userSpaceOnUse" x="634.17" y="557.53" width="7.07" height="226.3" id="SVGID_47_">
					<g class="st86">
						<defs>
							<filter id="Adobe_OpacityMaskFilter_23_" filterUnits="userSpaceOnUse" x="634.17" y="557.53" width="7.07" height="226.3">
								<feFlood  style="flood-color:white;flood-opacity:1" result="back"/>
								<feBlend  in="SourceGraphic" in2="back" mode="normal"/>
							</filter>
						</defs>
						<mask maskUnits="userSpaceOnUse" x="634.17" y="557.53" width="7.07" height="226.3" id="SVGID_47_">
							<g class="st87">
							</g>
						</mask>
						
							<linearGradient id="SVGID_48_" gradientUnits="userSpaceOnUse" x1="600.636" y1="557.533" x2="600.636" y2="775.3915" gradientTransform="matrix(1 0 0 1 37.0617 0)">
							<stop  offset="0" style="stop-color:#FFFFFF"/>
							<stop  offset="0.0154" style="stop-color:#F7F7F7"/>
							<stop  offset="0.1321" style="stop-color:#BEBEBE"/>
							<stop  offset="0.2521" style="stop-color:#8B8B8B"/>
							<stop  offset="0.3727" style="stop-color:#606060"/>
							<stop  offset="0.4942" style="stop-color:#3E3E3E"/>
							<stop  offset="0.6166" style="stop-color:#232323"/>
							<stop  offset="0.7406" style="stop-color:#0F0F0F"/>
							<stop  offset="0.8671" style="stop-color:#040404"/>
							<stop  offset="1" style="stop-color:#000000"/>
						</linearGradient>
						<path class="st88" d="M637.7,783.83L637.7,783.83c-1.95,0-3.53-1.58-3.53-3.53V561.07c0-1.95,1.58-3.53,3.53-3.53l0,0
							c1.95,0,3.53,1.58,3.53,3.53V780.3C641.23,782.25,639.65,783.83,637.7,783.83z"/>
					</g>
				</mask>
				<path class="st0" d="M637.7,783.83L637.7,783.83c-1.95,0-3.53-1.58-3.53-3.53V561.07c0-1.95,1.58-3.53,3.53-3.53l0,0
					c1.95,0,3.53,1.58,3.53,3.53V780.3C641.23,782.25,639.65,783.83,637.7,783.83z"/>
				<defs>
					<filter id="Adobe_OpacityMaskFilter_24_" filterUnits="userSpaceOnUse" x="675.65" y="450.12" width="3.44" height="192.62">
						<feFlood  style="flood-color:white;flood-opacity:1" result="back"/>
						<feBlend  in="SourceGraphic" in2="back" mode="normal"/>
					</filter>
				</defs>
				<mask maskUnits="userSpaceOnUse" x="675.65" y="450.12" width="3.44" height="192.62" id="SVGID_49_">
					<g class="st89">
						<defs>
							<filter id="Adobe_OpacityMaskFilter_25_" filterUnits="userSpaceOnUse" x="675.65" y="450.12" width="3.44" height="192.62">
								<feFlood  style="flood-color:white;flood-opacity:1" result="back"/>
								<feBlend  in="SourceGraphic" in2="back" mode="normal"/>
							</filter>
						</defs>
						<mask maskUnits="userSpaceOnUse" x="675.65" y="450.12" width="3.44" height="192.62" id="SVGID_49_">
							<g class="st90">
							</g>
						</mask>
						
							<linearGradient id="SVGID_50_" gradientUnits="userSpaceOnUse" x1="640.3126" y1="450.1213" x2="640.3126" y2="635.5603" gradientTransform="matrix(1 0 0 1 37.0617 0)">
							<stop  offset="0" style="stop-color:#FFFFFF"/>
							<stop  offset="0.0154" style="stop-color:#F7F7F7"/>
							<stop  offset="0.1321" style="stop-color:#BEBEBE"/>
							<stop  offset="0.2521" style="stop-color:#8B8B8B"/>
							<stop  offset="0.3727" style="stop-color:#606060"/>
							<stop  offset="0.4942" style="stop-color:#3E3E3E"/>
							<stop  offset="0.6166" style="stop-color:#232323"/>
							<stop  offset="0.7406" style="stop-color:#0F0F0F"/>
							<stop  offset="0.8671" style="stop-color:#040404"/>
							<stop  offset="1" style="stop-color:#000000"/>
						</linearGradient>
						<path class="st91" d="M677.37,642.75L677.37,642.75c-0.95,0-1.72-0.77-1.72-1.72V451.84c0-0.95,0.77-1.72,1.72-1.72l0,0
							c0.95,0,1.72,0.77,1.72,1.72v189.18C679.09,641.98,678.32,642.75,677.37,642.75z"/>
					</g>
				</mask>
				<path class="st0" d="M677.37,642.75L677.37,642.75c-0.95,0-1.72-0.77-1.72-1.72V451.84c0-0.95,0.77-1.72,1.72-1.72l0,0
					c0.95,0,1.72,0.77,1.72,1.72v189.18C679.09,641.98,678.32,642.75,677.37,642.75z"/>
				<defs>
					<filter id="Adobe_OpacityMaskFilter_26_" filterUnits="userSpaceOnUse" x="493.2" y="253.59" width="12.71" height="407.14">
						<feFlood  style="flood-color:white;flood-opacity:1" result="back"/>
						<feBlend  in="SourceGraphic" in2="back" mode="normal"/>
					</filter>
				</defs>
				<mask maskUnits="userSpaceOnUse" x="493.2" y="253.59" width="12.71" height="407.14" id="SVGID_51_">
					<g class="st92">
						<defs>
							<filter id="Adobe_OpacityMaskFilter_27_" filterUnits="userSpaceOnUse" x="493.2" y="253.59" width="12.71" height="407.14">
								<feFlood  style="flood-color:white;flood-opacity:1" result="back"/>
								<feBlend  in="SourceGraphic" in2="back" mode="normal"/>
							</filter>
						</defs>
						<mask maskUnits="userSpaceOnUse" x="493.2" y="253.59" width="12.71" height="407.14" id="SVGID_51_">
							<g class="st93">
							</g>
						</mask>
						
							<linearGradient id="SVGID_52_" gradientUnits="userSpaceOnUse" x1="462.4984" y1="253.5939" x2="462.4984" y2="645.5442" gradientTransform="matrix(1 0 0 1 37.0617 0)">
							<stop  offset="0" style="stop-color:#FFFFFF"/>
							<stop  offset="0.0154" style="stop-color:#F7F7F7"/>
							<stop  offset="0.1321" style="stop-color:#BEBEBE"/>
							<stop  offset="0.2521" style="stop-color:#8B8B8B"/>
							<stop  offset="0.3727" style="stop-color:#606060"/>
							<stop  offset="0.4942" style="stop-color:#3E3E3E"/>
							<stop  offset="0.6166" style="stop-color:#232323"/>
							<stop  offset="0.7406" style="stop-color:#0F0F0F"/>
							<stop  offset="0.8671" style="stop-color:#040404"/>
							<stop  offset="1" style="stop-color:#000000"/>
						</linearGradient>
						<path class="st94" d="M499.56,660.73L499.56,660.73c-3.51,0-6.35-2.85-6.35-6.36V259.95c0-3.51,2.84-6.36,6.35-6.36l0,0
							c3.51,0,6.36,2.85,6.36,6.36v394.42C505.92,657.88,503.07,660.73,499.56,660.73z"/>
					</g>
				</mask>
				<path class="st0" d="M499.56,660.73L499.56,660.73c-3.51,0-6.35-2.85-6.35-6.36V259.95c0-3.51,2.84-6.36,6.35-6.36l0,0
					c3.51,0,6.36,2.85,6.36,6.36v394.42C505.92,657.88,503.07,660.73,499.56,660.73z"/>
			</g>
			<defs>
				<filter id="Adobe_OpacityMaskFilter_28_" filterUnits="userSpaceOnUse" x="739.29" y="40" width="12.29" height="393.67">
					<feFlood  style="flood-color:white;flood-opacity:1" result="back"/>
					<feBlend  in="SourceGraphic" in2="back" mode="normal"/>
				</filter>
			</defs>
			<mask maskUnits="userSpaceOnUse" x="739.29" y="40" width="12.29" height="393.67" id="SVGID_53_">
				<g class="st95">
					<defs>
						<filter id="Adobe_OpacityMaskFilter_29_" filterUnits="userSpaceOnUse" x="739.29" y="40" width="12.29" height="393.67">
							<feFlood  style="flood-color:white;flood-opacity:1" result="back"/>
							<feBlend  in="SourceGraphic" in2="back" mode="normal"/>
						</filter>
					</defs>
					<mask maskUnits="userSpaceOnUse" x="739.29" y="40" width="12.29" height="393.67" id="SVGID_53_">
						<g class="st96">
						</g>
					</mask>
					
						<linearGradient id="SVGID_54_" gradientUnits="userSpaceOnUse" x1="708.3751" y1="39.9964" x2="708.3751" y2="418.9858" gradientTransform="matrix(1 0 0 1 37.0617 0)">
						<stop  offset="0" style="stop-color:#FFFFFF"/>
						<stop  offset="0.0154" style="stop-color:#F7F7F7"/>
						<stop  offset="0.1321" style="stop-color:#BEBEBE"/>
						<stop  offset="0.2521" style="stop-color:#8B8B8B"/>
						<stop  offset="0.3727" style="stop-color:#606060"/>
						<stop  offset="0.4942" style="stop-color:#3E3E3E"/>
						<stop  offset="0.6166" style="stop-color:#232323"/>
						<stop  offset="0.7406" style="stop-color:#0F0F0F"/>
						<stop  offset="0.8671" style="stop-color:#040404"/>
						<stop  offset="1" style="stop-color:#000000"/>
					</linearGradient>
					<path class="st97" d="M745.44,433.67L745.44,433.67c-3.39,0-6.15-2.75-6.15-6.15V46.14c0-3.39,2.75-6.15,6.15-6.15l0,0
						c3.39,0,6.15,2.75,6.15,6.15v381.38C751.58,430.92,748.83,433.67,745.44,433.67z"/>
				</g>
			</mask>
			<path class="st0" d="M745.44,433.67L745.44,433.67c-3.39,0-6.15-2.75-6.15-6.15V46.14c0-3.39,2.75-6.15,6.15-6.15l0,0
				c3.39,0,6.15,2.75,6.15,6.15v381.38C751.58,430.92,748.83,433.67,745.44,433.67z"/>
			<defs>
				<filter id="Adobe_OpacityMaskFilter_30_" filterUnits="userSpaceOnUse" x="676.05" y="191.1" width="7.07" height="226.3">
					<feFlood  style="flood-color:white;flood-opacity:1" result="back"/>
					<feBlend  in="SourceGraphic" in2="back" mode="normal"/>
				</filter>
			</defs>
			<mask maskUnits="userSpaceOnUse" x="676.05" y="191.1" width="7.07" height="226.3" id="SVGID_55_">
				<g class="st98">
					<defs>
						<filter id="Adobe_OpacityMaskFilter_31_" filterUnits="userSpaceOnUse" x="676.05" y="191.1" width="7.07" height="226.3">
							<feFlood  style="flood-color:white;flood-opacity:1" result="back"/>
							<feBlend  in="SourceGraphic" in2="back" mode="normal"/>
						</filter>
					</defs>
					<mask maskUnits="userSpaceOnUse" x="676.05" y="191.1" width="7.07" height="226.3" id="SVGID_55_">
						<g class="st99">
						</g>
					</mask>
					
						<linearGradient id="SVGID_56_" gradientUnits="userSpaceOnUse" x1="642.5258" y1="191.0987" x2="642.5258" y2="408.9573" gradientTransform="matrix(1 0 0 1 37.0617 0)">
						<stop  offset="0" style="stop-color:#FFFFFF"/>
						<stop  offset="0.0154" style="stop-color:#F7F7F7"/>
						<stop  offset="0.1321" style="stop-color:#BEBEBE"/>
						<stop  offset="0.2521" style="stop-color:#8B8B8B"/>
						<stop  offset="0.3727" style="stop-color:#606060"/>
						<stop  offset="0.4942" style="stop-color:#3E3E3E"/>
						<stop  offset="0.6166" style="stop-color:#232323"/>
						<stop  offset="0.7406" style="stop-color:#0F0F0F"/>
						<stop  offset="0.8671" style="stop-color:#040404"/>
						<stop  offset="1" style="stop-color:#000000"/>
					</linearGradient>
					<path class="st100" d="M679.59,417.4L679.59,417.4c-1.95,0-3.53-1.58-3.53-3.53V194.63c0-1.95,1.58-3.53,3.53-3.53l0,0
						c1.95,0,3.53,1.58,3.53,3.53v219.23C683.12,415.82,681.54,417.4,679.59,417.4z"/>
				</g>
			</mask>
			<path class="st0" d="M679.59,417.4L679.59,417.4c-1.95,0-3.53-1.58-3.53-3.53V194.63c0-1.95,1.58-3.53,3.53-3.53l0,0
				c1.95,0,3.53,1.58,3.53,3.53v219.23C683.12,415.82,681.54,417.4,679.59,417.4z"/>
			<defs>
				<filter id="Adobe_OpacityMaskFilter_32_" filterUnits="userSpaceOnUse" x="703.03" y="108.99" width="3.44" height="192.62">
					<feFlood  style="flood-color:white;flood-opacity:1" result="back"/>
					<feBlend  in="SourceGraphic" in2="back" mode="normal"/>
				</filter>
			</defs>
			<mask maskUnits="userSpaceOnUse" x="703.03" y="108.99" width="3.44" height="192.62" id="SVGID_57_">
				<g class="st101">
					<defs>
						<filter id="Adobe_OpacityMaskFilter_33_" filterUnits="userSpaceOnUse" x="703.03" y="108.99" width="3.44" height="192.62">
							<feFlood  style="flood-color:white;flood-opacity:1" result="back"/>
							<feBlend  in="SourceGraphic" in2="back" mode="normal"/>
						</filter>
					</defs>
					<mask maskUnits="userSpaceOnUse" x="703.03" y="108.99" width="3.44" height="192.62" id="SVGID_57_">
						<g class="st102">
						</g>
					</mask>
					
						<linearGradient id="SVGID_58_" gradientUnits="userSpaceOnUse" x1="667.6851" y1="108.9888" x2="667.6851" y2="294.4278" gradientTransform="matrix(1 0 0 1 37.0617 0)">
						<stop  offset="0" style="stop-color:#FFFFFF"/>
						<stop  offset="0.0154" style="stop-color:#F7F7F7"/>
						<stop  offset="0.1321" style="stop-color:#BEBEBE"/>
						<stop  offset="0.2521" style="stop-color:#8B8B8B"/>
						<stop  offset="0.3727" style="stop-color:#606060"/>
						<stop  offset="0.4942" style="stop-color:#3E3E3E"/>
						<stop  offset="0.6166" style="stop-color:#232323"/>
						<stop  offset="0.7406" style="stop-color:#0F0F0F"/>
						<stop  offset="0.8671" style="stop-color:#040404"/>
						<stop  offset="1" style="stop-color:#000000"/>
					</linearGradient>
					<path class="st103" d="M704.75,301.61L704.75,301.61c-0.95,0-1.72-0.77-1.72-1.72V110.71c0-0.95,0.77-1.72,1.72-1.72l0,0
						c0.95,0,1.72,0.77,1.72,1.72v189.18C706.47,300.84,705.7,301.61,704.75,301.61z"/>
				</g>
			</mask>
			<path class="st0" d="M704.75,301.61L704.75,301.61c-0.95,0-1.72-0.77-1.72-1.72V110.71c0-0.95,0.77-1.72,1.72-1.72l0,0
				c0.95,0,1.72,0.77,1.72,1.72v189.18C706.47,300.84,705.7,301.61,704.75,301.61z"/>
			<defs>
				<filter id="Adobe_OpacityMaskFilter_34_" filterUnits="userSpaceOnUse" x="784.41" y="263.45" width="12.71" height="407.14">
					<feFlood  style="flood-color:white;flood-opacity:1" result="back"/>
					<feBlend  in="SourceGraphic" in2="back" mode="normal"/>
				</filter>
			</defs>
			<mask maskUnits="userSpaceOnUse" x="784.41" y="263.45" width="12.71" height="407.14" id="SVGID_59_">
				<g class="st104">
					<defs>
						<filter id="Adobe_OpacityMaskFilter_35_" filterUnits="userSpaceOnUse" x="784.41" y="263.45" width="12.71" height="407.14">
							<feFlood  style="flood-color:white;flood-opacity:1" result="back"/>
							<feBlend  in="SourceGraphic" in2="back" mode="normal"/>
						</filter>
					</defs>
					<mask maskUnits="userSpaceOnUse" x="784.41" y="263.45" width="12.71" height="407.14" id="SVGID_59_">
						<g class="st105">
						</g>
					</mask>
					
						<linearGradient id="SVGID_60_" gradientUnits="userSpaceOnUse" x1="753.6998" y1="263.4498" x2="753.6998" y2="655.3989" gradientTransform="matrix(1 0 0 1 37.0617 0)">
						<stop  offset="0" style="stop-color:#FFFFFF"/>
						<stop  offset="0.0154" style="stop-color:#F7F7F7"/>
						<stop  offset="0.1321" style="stop-color:#BEBEBE"/>
						<stop  offset="0.2521" style="stop-color:#8B8B8B"/>
						<stop  offset="0.3727" style="stop-color:#606060"/>
						<stop  offset="0.4942" style="stop-color:#3E3E3E"/>
						<stop  offset="0.6166" style="stop-color:#232323"/>
						<stop  offset="0.7406" style="stop-color:#0F0F0F"/>
						<stop  offset="0.8671" style="stop-color:#040404"/>
						<stop  offset="1" style="stop-color:#000000"/>
					</linearGradient>
					<path class="st106" d="M790.76,670.58L790.76,670.58c-3.51,0-6.36-2.84-6.36-6.36V269.81c0-3.51,2.85-6.36,6.36-6.36l0,0
						c3.51,0,6.36,2.84,6.36,6.36v394.42C797.12,667.74,794.27,670.58,790.76,670.58z"/>
				</g>
			</mask>
			<path class="st0" d="M790.76,670.58L790.76,670.58c-3.51,0-6.36-2.84-6.36-6.36V269.81c0-3.51,2.85-6.36,6.36-6.36l0,0
				c3.51,0,6.36,2.84,6.36,6.36v394.42C797.12,667.74,794.27,670.58,790.76,670.58z"/>
		</g>
	</g>
</g>
</svg>
