<svg id="Layer_1" data-name="Layer 1" xmlns="http://www.w3.org/2000/svg" xmlns:xlink="http://www.w3.org/1999/xlink" viewBox="0 0 628.47 439.49"><defs><style>.cls-1,.cls-26{fill:#fff;}.cls-2{fill:url(#linear-gradient);}.cls-3,.cls-34{fill:#3655b5;}.cls-4{mask:url(#mask);}.cls-5{fill:#a1a7ff;}.cls-6{mask:url(#mask-2);}.cls-11,.cls-17,.cls-57,.cls-7,.cls-8{fill:none;}.cls-7{stroke:#6c7fef;stroke-width:4.4px;}.cls-11,.cls-7{stroke-linecap:round;stroke-linejoin:round;}.cls-8{stroke:#ffc043;}.cls-17,.cls-8{stroke-miterlimit:10;stroke-width:3px;}.cls-9{fill:#6a9dd8;}.cls-10{mask:url(#mask-3);}.cls-11{stroke:#0b1f6e;stroke-width:2px;}.cls-12{mask:url(#mask-4);}.cls-13{mask:url(#mask-5);}.cls-14{mask:url(#mask-6-2);}.cls-15{fill:#f5f6ff;}.cls-15,.cls-25,.cls-26,.cls-28,.cls-29,.cls-30,.cls-31,.cls-32,.cls-33,.cls-34,.cls-35,.cls-36,.cls-37,.cls-38,.cls-39,.cls-40,.cls-41,.cls-42,.cls-43,.cls-44,.cls-45,.cls-46,.cls-47,.cls-48,.cls-49,.cls-50,.cls-51,.cls-52,.cls-53,.cls-54,.cls-55,.cls-56{fill-rule:evenodd;}.cls-16{opacity:0.25;}.cls-17{stroke:#3655b5;}.cls-18{mask:url(#mask-7);}.cls-19{mask:url(#mask-8-2);}.cls-20{mask:url(#mask-9);}.cls-21{mask:url(#mask-10);}.cls-22{fill:url(#linear-gradient-2);}.cls-23{fill:url(#linear-gradient-3);}.cls-24{fill:url(#linear-gradient-4);}.cls-25{fill:url(#linear-gradient-5);}.cls-27{fill:#7c8ef8;opacity:0.12;}.cls-27,.cls-37,.cls-40,.cls-42,.cls-50,.cls-53{isolation:isolate;}.cls-28{fill:url(#linear-gradient-6);}.cls-29{fill:url(#linear-gradient-7);}.cls-30{fill:url(#linear-gradient-8);}.cls-31{fill:url(#linear-gradient-9);}.cls-32{fill:url(#linear-gradient-10);}.cls-33{fill:url(#linear-gradient-11);}.cls-35{fill:url(#linear-gradient-12);}.cls-36{fill:url(#linear-gradient-13);}.cls-37{opacity:0.28;fill:url(#linear-gradient-14);}.cls-38{fill:url(#linear-gradient-15);}.cls-39,.cls-40{fill:#faa;}.cls-40{opacity:0.33;}.cls-41{fill:url(#linear-gradient-16);}.cls-42{fill:#dd6ba5;opacity:0.31;}.cls-43{fill:#092978;}.cls-44{fill:#ffd4d4;}.cls-45{fill:url(#linear-gradient-17);}.cls-46{fill:url(#linear-gradient-18);}.cls-47{fill:url(#linear-gradient-19);}.cls-48{fill:url(#linear-gradient-20);}.cls-49{fill:url(#linear-gradient-21);}.cls-50{fill:#ffb69f;opacity:0.31;}.cls-51{fill:url(#linear-gradient-22);}.cls-52{fill:#edf0ff;}.cls-53{fill:#d6dbf0;opacity:0.72;}.cls-54{fill:#dce2ff;}.cls-55{fill:#dae0ff;}.cls-56{fill:url(#linear-gradient-23);}.cls-57{stroke:#292930;}</style><linearGradient id="linear-gradient" x1="176.31" y1="703.05" x2="175.98" y2="702.8" gradientTransform="matrix(880, 0, 0, -680, -154543.21, 478105.72)" gradientUnits="userSpaceOnUse"><stop offset="0" stop-color="#c2ceff"/><stop offset="1" stop-color="#95aaff"/></linearGradient><mask id="mask" x="82.46" y="0" width="478.11" height="369.45" maskUnits="userSpaceOnUse"><g id="mask-6"><rect id="path-5" class="cls-1" x="82.46" width="478.11" height="369.45" rx="18.47"/></g></mask><mask id="mask-2" x="91.15" y="14.13" width="457.46" height="310.23" maskUnits="userSpaceOnUse"><g id="mask-8"><rect id="path-7" class="cls-1" x="91.15" y="14.13" width="457.46" height="310.23" rx="5.87"/></g></mask><mask id="mask-3" x="257.4" y="185.81" width="18.47" height="18.47" maskUnits="userSpaceOnUse"><g id="mask-11"><rect id="path-10" class="cls-1" x="257.4" y="185.81" width="18.47" height="18.47" rx="2.17"/></g></mask><mask id="mask-4" x="257.4" y="185.81" width="18.47" height="24.91" maskUnits="userSpaceOnUse"><g id="mask-11-2" data-name="mask-11"><rect id="path-10-2" data-name="path-10" class="cls-1" x="257.4" y="185.81" width="18.47" height="18.47" rx="2.17"/></g></mask><mask id="mask-5" x="407.9" y="185.81" width="18.47" height="18.47" maskUnits="userSpaceOnUse"><g id="mask-14"><rect id="path-13" class="cls-1" x="407.9" y="185.81" width="18.47" height="18.47" rx="2.17"/></g></mask><mask id="mask-6-2" x="407.9" y="185.81" width="18.47" height="24.91" maskUnits="userSpaceOnUse"><g id="mask-14-2" data-name="mask-14"><rect id="path-13-2" data-name="path-13" class="cls-1" x="407.9" y="185.81" width="18.47" height="18.47" rx="2.17"/></g></mask><mask id="mask-7" x="257.4" y="44.55" width="18.47" height="18.47" maskUnits="userSpaceOnUse"><g id="mask-16"><rect id="path-15" class="cls-1" x="257.4" y="44.55" width="18.47" height="18.47" rx="2.17"/></g></mask><mask id="mask-8-2" x="257.4" y="44.55" width="18.47" height="24.91" maskUnits="userSpaceOnUse"><g id="mask-16-2" data-name="mask-16"><rect id="path-15-2" data-name="path-15" class="cls-1" x="257.4" y="44.55" width="18.47" height="18.47" rx="2.17"/></g></mask><mask id="mask-9" x="407.9" y="44.55" width="18.47" height="18.47" maskUnits="userSpaceOnUse"><g id="mask-18"><rect id="path-17" class="cls-1" x="407.9" y="44.55" width="18.47" height="18.47" rx="2.17"/></g></mask><mask id="mask-10" x="407.9" y="44.55" width="18.47" height="24.91" maskUnits="userSpaceOnUse"><g id="mask-18-2" data-name="mask-18"><rect id="path-17-2" data-name="path-17" class="cls-1" x="407.9" y="44.55" width="18.47" height="18.47" rx="2.17"/></g></mask><linearGradient id="linear-gradient-2" x1="150.76" y1="707.22" x2="150.32" y2="706.64" gradientTransform="matrix(15.3, 0, 0, -15.3, -2192.6, 10844.44)" xlink:href="#linear-gradient"/><linearGradient id="linear-gradient-3" x1="149.77" y1="707.22" x2="149.32" y2="706.64" gradientTransform="matrix(15.3, 0, 0, -15.3, -2159.3, 10844.44)" xlink:href="#linear-gradient"/><linearGradient id="linear-gradient-4" x1="148.78" y1="707.22" x2="148.33" y2="706.64" gradientTransform="matrix(15.3, 0, 0, -15.3, -2126, 10844.44)" xlink:href="#linear-gradient"/><linearGradient id="linear-gradient-5" x1="173.73" y1="704.72" x2="172.69" y2="703.37" gradientTransform="matrix(211.98, 0, 0, -222.69, -36184.31, 157086.25)" gradientUnits="userSpaceOnUse"><stop offset="0" stop-color="#0825aa"/><stop offset="1" stop-color="#5cbeff"/></linearGradient><linearGradient id="linear-gradient-6" x1="108.32" y1="153.59" x2="129.91" y2="153.59" gradientUnits="userSpaceOnUse"><stop offset="0" stop-color="#ee497b"/><stop offset="1" stop-color="#de2263"/></linearGradient><linearGradient id="linear-gradient-7" x1="174.04" y1="705.49" x2="174.04" y2="706.29" gradientTransform="matrix(226.79, 0, 0, -108.45, -39119.51, 76968.99)" xlink:href="#linear-gradient"/><linearGradient id="linear-gradient-8" x1="173.77" y1="705.86" x2="173.56" y2="706.17" gradientTransform="matrix(196.79, 0, 0, -108.45, -33833.63, 76968.99)" xlink:href="#linear-gradient"/><linearGradient id="linear-gradient-9" x1="174.69" y1="715.68" x2="174.19" y2="715.71" gradientTransform="matrix(250.25, 0, 0, -30.74, -43338, 22431.33)" xlink:href="#linear-gradient"/><linearGradient id="linear-gradient-10" x1="174.07" y1="715.52" x2="173.57" y2="715.56" gradientTransform="matrix(210.35, 0, 0, -31.08, -36198.56, 22673.44)" xlink:href="#linear-gradient"/><linearGradient id="linear-gradient-11" x1="165.88" y1="730.36" x2="165.44" y2="730.37" gradientTransform="matrix(35.65, 0, 0, -14.67, -5808.07, 11147.53)" gradientUnits="userSpaceOnUse"><stop offset="0" stop-color="#ffd4d4"/><stop offset="1" stop-color="#faa"/></linearGradient><linearGradient id="linear-gradient-12" x1="169.01" y1="703.18" x2="168.97" y2="704.1" gradientTransform="matrix(49.89, 0, 0, -265.53, -8336.53, 187247.71)" xlink:href="#linear-gradient"/><linearGradient id="linear-gradient-13" x1="165.11" y1="730.36" x2="164.67" y2="730.38" gradientTransform="matrix(30.76, 0, 0, -14.67, -5008.79, 11147.53)" xlink:href="#linear-gradient-11"/><linearGradient id="linear-gradient-14" x1="166.15" y1="704.98" x2="166.14" y2="705.36" gradientTransform="matrix(36.19, 0, 0, -126.48, -5924.32, 89497.02)" gradientUnits="userSpaceOnUse"><stop offset="0" stop-color="#acbbff"/><stop offset="1" stop-color="#99a8ff"/></linearGradient><linearGradient id="linear-gradient-15" x1="169.82" y1="703.18" x2="169.77" y2="704.11" gradientTransform="matrix(53.02, 0, 0, -265.55, -8932.38, 187268.24)" xlink:href="#linear-gradient"/><linearGradient id="linear-gradient-16" x1="181.37" y1="703.8" x2="181.33" y2="704.33" gradientTransform="matrix(-85.37, 5.97, -17.78, -254.33, 28141.61, 178330.43)" gradientUnits="userSpaceOnUse"><stop offset="0" stop-color="#d762a1"/><stop offset="1" stop-color="#ffa1c0"/></linearGradient><linearGradient id="linear-gradient-17" x1="185.81" y1="703.7" x2="185.8" y2="704.24" gradientTransform="translate(9234.81 178660.5) rotate(180) scale(48.82 253.3)" xlink:href="#linear-gradient-16"/><linearGradient id="linear-gradient-18" x1="181.42" y1="706.19" x2="180.91" y2="705.87" gradientTransform="translate(16598.76 51864.89) rotate(180) scale(91.02 73.1)" gradientUnits="userSpaceOnUse"><stop offset="0" stop-color="#fff3ef"/><stop offset="1" stop-color="#ffe2d9"/></linearGradient><linearGradient id="linear-gradient-19" x1="185.91" y1="707.23" x2="185.61" y2="707.77" gradientTransform="matrix(-42.82, 4.5, -6.23, -59.23, 12493.83, 41309.03)" xlink:href="#linear-gradient-6"/><linearGradient id="linear-gradient-20" x1="180.38" y1="704.6" x2="180.1" y2="705.09" gradientTransform="matrix(-114.68, 12.05, -14.08, -133.93, 30753.59, 92489.01)" xlink:href="#linear-gradient-6"/><linearGradient id="linear-gradient-21" x1="188.42" y1="713.82" x2="187.91" y2="713.57" gradientTransform="matrix(-35.33, 4.34, -3.12, -25.45, 9034.58, 17573.07)" xlink:href="#linear-gradient-18"/><linearGradient id="linear-gradient-22" x1="188.97" y1="709.7" x2="188.46" y2="709.32" gradientTransform="translate(7119.15 23000.79) rotate(180) scale(36.89 32.12)" xlink:href="#linear-gradient-18"/><linearGradient id="linear-gradient-23" x1="181.11" y1="711.99" x2="180.59" y2="711.96" gradientTransform="translate(19485.38 20632.22) rotate(180) scale(106.87 28.6)" xlink:href="#linear-gradient-18"/></defs><title>Personalized Shopping</title><g id="Group-28"><g id="Group-27"><g id="Group-7"><g id="Group-4"><g id="Rectangle-Copy-4"><rect class="cls-2" x="109.62" width="478.11" height="369.45" rx="18.47"/></g><g id="Rectangle-Copy-3"><rect class="cls-3" x="82.46" width="478.11" height="369.45" rx="18.47"/></g><g class="cls-4"><circle id="Oval" class="cls-1" cx="322.06" cy="347.17" r="9.78"/></g><g id="Rectangle"><rect class="cls-5" x="91.15" y="14.13" width="457.46" height="310.23" rx="5.87"/></g><g class="cls-6"><g id="Group-9"><g id="Group-3-Copy"><g id="Group-36-Copy"><g id="Group-22"><path id="Path-2" class="cls-7" d="M284,191.25l66.28-.55"/><path id="Path-2-Copy" class="cls-8" d="M284,200.48l28.25-.54"/></g><g id="Group-24"><g id="Rectangle-Copy-9"><rect class="cls-9" x="257.4" y="185.81" width="18.47" height="18.47" rx="2.17"/></g><g class="cls-10"><circle class="cls-11" cx="266.64" cy="192.87" r="2.72"/></g><g class="cls-12"><circle id="Oval-Copy-5" class="cls-11" cx="266.64" cy="204.83" r="4.89"/></g></g></g><g id="Group-18-Copy"><g id="Group-6"><g id="Group-29"><rect class="cls-1" x="270.01" y="219.5" width="100.4" height="76.5" rx="4.69"/><g id="Group"><polygon id="Path-51" class="cls-11" points="295.98 272.36 295.98 279.04 350.71 279.04 350.71 272.36 295.98 272.36"/><circle class="cls-11" cx="306.59" cy="256.09" r="4.07"/><path id="Path-51-Copy" class="cls-11" d="M296,240.14V279h54.73v-4.75a13.48,13.48,0,0,0-8.83-12.64l-13-4.77a13.47,13.47,0,0,1-8.82-12.64v-4.1H296Z"/><path id="Path-52" class="cls-11" d="M338.63,260.36v12"/><path id="Path-53" class="cls-11" d="M321.17,272.35V279"/><path id="Path-54" class="cls-11" d="M296,275.69h25.19"/><path id="Path-55" class="cls-11" d="M296,244.18h24"/><path id="Path-56" class="cls-11" d="M315.62,244.18a16.51,16.51,0,0,0,12.43,17.38l10.58,2.67h0"/><path id="Path-57" class="cls-11" d="M316.13,247.77h7.21"/><path id="Path-57-Copy" class="cls-11" d="M317,252.12h8.52"/></g></g></g></g></g><g id="Group-2-Copy"><g id="Group-18-Copy-2"><rect class="cls-1" x="417.24" y="219.5" width="100.4" height="76.5" rx="4.69"/></g><g id="Group-36-Copy-2"><path class="cls-7" d="M434.52,191.25l66.29-.55"/><path class="cls-8" d="M434.52,200.48l28.25-.54"/><rect class="cls-9" x="407.9" y="185.81" width="18.47" height="18.47" rx="2.17"/><g class="cls-13"><circle class="cls-11" cx="417.14" cy="192.87" r="2.72"/></g><g class="cls-14"><circle class="cls-11" cx="417.14" cy="204.83" r="4.89"/></g></g></g></g></g></g><path id="Rectangle-Copy" class="cls-15" d="M97,14.13H237.84V324.35H97a5.86,5.86,0,0,1-5.87-5.86V20A5.86,5.86,0,0,1,97,14.13Z"/><g id="Group-5" class="cls-16"><path id="Path-50" class="cls-17" d="M134.59,78.24h75.49"/><circle class="cls-17" cx="121.58" cy="78.24" r="4.35"/></g><g id="Group-5-Copy" class="cls-16"><path class="cls-17" d="M134.59,114.09h75.49"/><circle class="cls-17" cx="121.58" cy="114.09" r="4.35"/></g><g id="Group-5-Copy-2" class="cls-16"><path class="cls-17" d="M134.59,150h24.48"/><circle class="cls-7" cx="121.58" cy="149.95" r="4.35"/></g><g id="Group-8"><g id="Group-3"><path class="cls-7" d="M284,50l66.28-.55"/><path class="cls-8" d="M284,59.22l28.25-.54"/><rect class="cls-9" x="257.4" y="44.55" width="18.47" height="18.47" rx="2.17"/><g class="cls-18"><circle class="cls-11" cx="266.64" cy="51.61" r="2.72"/></g><g class="cls-19"><circle class="cls-11" cx="266.64" cy="63.57" r="4.89"/></g><rect class="cls-1" x="270.01" y="78.24" width="100.4" height="76.5" rx="4.69"/><g id="Group-13"><g id="Group-10"><g id="Group-11"><path id="Path-46" class="cls-11" d="M304.54,92.4h31.15a2.17,2.17,0,0,1,2.17,2.17v44.19a2.17,2.17,0,0,1-2.17,2.17h-9.62a2.17,2.17,0,0,1-2.16-1.9l-2.85-22.6a.87.87,0,0,0-1.73,0L317,139a2.18,2.18,0,0,1-2.16,1.94H304.54a2.17,2.17,0,0,1-2.17-2.17V94.57A2.17,2.17,0,0,1,304.54,92.4Z"/><path id="Path-6" class="cls-11" d="M302.37,97.87h35.49"/><path id="Shape" class="cls-11" d="M303.24,135.43h13.95m6.54,0h13.79"/><g id="Group-12"><path id="Path-47" class="cls-11" d="M318.45,95.25l-2.94,7.16"/><path id="Path-47-Copy" class="cls-11" d="M322,95.25l3.05,7.16"/></g></g></g></g></g><g id="Group-2"><g id="Group-30"><rect class="cls-1" x="417.24" y="78.24" width="100.4" height="76.5" rx="4.69"/><g id="Group-15"><path id="Path-48" class="cls-11" d="M473.36,95.19v.93a4.85,4.85,0,1,1-9.69,0v-.93H450.83a2.17,2.17,0,0,0-1.6.7l-9.61,10.48a2.17,2.17,0,0,0,.13,3.07h0l5.17,4.66A2.18,2.18,0,0,0,448,114v0l1.9-2.15a1.92,1.92,0,0,1,3.36,1.27v23a2.17,2.17,0,0,0,2.17,2.18h26a2.18,2.18,0,0,0,2.18-2.18V112.81a1.67,1.67,0,0,1,3-1l1.46,1.87a2.18,2.18,0,0,0,3.06.36l.19-.17,4.5-4.5a2.17,2.17,0,0,0,.18-2.87L487.91,96a2.16,2.16,0,0,0-1.71-.84Z"/><path id="Path-49" class="cls-11" d="M441.81,104.87H494.2"/><path id="Path-49-Copy" class="cls-11" d="M453.63,116.17h0Z"/><path id="Path-49-Copy-2" class="cls-11" d="M453.63,127.9h0Z"/></g></g><path class="cls-7" d="M434.52,50l66.29-.55"/><path class="cls-8" d="M434.52,59.22l28.25-.54"/><rect class="cls-9" x="407.9" y="44.55" width="18.47" height="18.47" rx="2.17"/><g class="cls-20"><circle class="cls-11" cx="417.14" cy="51.61" r="2.72"/></g><g class="cls-21"><circle class="cls-11" cx="417.14" cy="63.57" r="4.89"/></g></g></g><circle class="cls-22" cx="110.52" cy="28.61" r="4.16"/><circle id="Oval-Copy" class="cls-23" cx="128.61" cy="28.61" r="4.16"/><circle id="Oval-Copy-2" class="cls-24" cx="146.71" cy="28.61" r="4.16"/></g><g id="Group-19"><path id="Path-59" class="cls-25" d="M477.07,293.85l31.18-23.56a26.4,26.4,0,0,1,31.84,0l31.18,23.56a26.41,26.41,0,0,1,8.07,32.1q-27.58,60-55.17,60T469,326A26.41,26.41,0,0,1,477.07,293.85Z"/><g id="Group-25"><g id="Group-26"><g id="Path-59-Copy-2"><path class="cls-26" d="M474.56,294.35l24.79-21.3a26.39,26.39,0,0,1,34.42,0l24.79,21.3a26.41,26.41,0,0,1,7.32,29.79q-24.66,61.94-49.32,61.94t-49.32-61.94A26.41,26.41,0,0,1,474.56,294.35Z"/></g></g><g id="Path-59-Copy-3"><path class="cls-11" d="M484.8,296.26l14.55-12.51a26.42,26.42,0,0,1,34.42,0l14.55,12.51a26.38,26.38,0,0,1,7.2,30.09q-19.47,47.23-39,47.23t-39-47.23A26.39,26.39,0,0,1,484.8,296.26Z"/></g></g><polyline id="Path-44" class="cls-11" points="506.24 319.42 514.12 328.89 526.34 314.22"/></g><g id="Group-20"><circle id="Oval-Copy-3" class="cls-27" cx="125.43" cy="163.59" r="26.13"/><g id="Group-21"><circle class="cls-5" cx="119.73" cy="152.45" r="25.86"/><path id="Path-45-Copy-2" class="cls-28" d="M119.12,163.1q13.11-7.95,10.28-15.43a6.68,6.68,0,0,0-3.08-3.14,5.14,5.14,0,0,0-5,.43,14.32,14.32,0,0,0-2.22,2q-2.4-2.72-4.64-2.72a5.4,5.4,0,0,0-5.15,2.72Q105,153.85,119.12,163.1Z"/></g></g><g id="Group-23"><polygon id="Path-60" class="cls-29" points="289.03 369.45 310.67 428.37 412.25 428.37 387.53 369.45 289.03 369.45"/><polygon id="Path-60-Copy" class="cls-30" points="289.03 369.45 310.67 428.37 395.95 428.37 371.23 369.45 289.03 369.45"/><path id="Rectangle-Copy-5" class="cls-31" d="M260.12,422.29l112,.95h0l7.1,15.75h-136a16.7,16.7,0,0,1,16.7-16.7Z"/><path class="cls-32" d="M319.83,422.11l90.34,1.13h0l7.1,15.75L303,438.74a16.63,16.63,0,0,1,16.63-16.64Z"/></g></g><g id="Group-16"><g id="Group-6-Copy-5"><g id="Group-5-Copy-4"><polygon id="Path-10-3" data-name="Path-10" class="cls-33" points="90.3 430.56 90.36 438.53 109.67 438.53 100.52 433.81 101.09 430.56 90.3 430.56"/><polygon id="Path-10-Copy-2" class="cls-34" points="90.32 433.76 90.36 438.53 109.67 438.53 100.52 433.81 90.32 433.76"/><polygon id="Path-8" class="cls-35" points="89.37 431.36 102.52 431.36 106.53 293.2 79.43 287.09 89.37 431.36"/><polygon id="Path-10-Copy" class="cls-36" points="56.11 430.56 56.54 438.53 72.83 438.53 66.92 434.55 66.92 430.56 56.11 430.56"/><polygon id="Path-10-Copy-3" class="cls-34" points="56.33 434.64 56.54 438.53 72.83 438.53 66.92 434.55 56.33 434.64"/><g id="Group-17"><polygon id="Path-8-Copy" class="cls-37" points="98.74 290.3 79.08 290.3 84.46 359.02 98.74 290.3"/><polygon id="Path-7-2" data-name="Path-7" class="cls-38" points="55.65 433.11 67.6 433.11 84.46 288.83 57.43 290.35 55.65 433.11"/><path id="Path-9-Copy-3" class="cls-39" d="M111.94,244.89l3.59,7.15,27-20,2.36-3.87q2.37-3.41,2.81-3.48c.3,0,.12,1.11-.52,3.48a8,8,0,0,0,2.94-.71c2.07-1.32,3.92-2.4,4.26-2.14.65.5-2.89,6.68-6.8,9.27s-31.15,33.89-36.3,33.55q-5.14-.35-11.66-17Z"/><path id="Path-5-2" data-name="Path-5" class="cls-34" d="M95.9,220.1q7.69,1.64,10,8.42a147.55,147.55,0,0,0,9.6,20.81,24.83,24.83,0,0,1-14.45,6.34l-10.64-28Z"/><path id="Path-4" class="cls-34" d="M78,219.63C67.54,220.9,52.9,224,49.68,229.79A204.18,204.18,0,0,0,39,253.52l19.35,1.54-3.22,41.45,51.44-1.57q-2-7.89-5.44-23.88c-3.45-16-.88-27.82-2.38-34.95a104.1,104.1,0,0,1-2-15.78A53.35,53.35,0,0,0,78,219.63Z"/><path class="cls-39" d="M82.25,213.44v6.18Q79.7,229,78.4,229t-6.68-8.59v-9.2Z"/><path id="Path-2-Copy-2" class="cls-40" d="M82.25,213.32v6.3a31.15,31.15,0,0,1-6.19-.58,15.82,15.82,0,0,1-4.47-2.27v-3.45Z"/><path id="Path-31" class="cls-34" d="M67.38,211.19c-4.64-4.71-8.11-19.15.57-20q11.26-10,18-1.41t-1.24,16.72q-6.3,6.89-8.88,7.87C72.2,215.75,69.54,213.38,67.38,211.19Z"/><path id="Path" class="cls-39" d="M76.67,205.47q-3.28.72-8.8-2.94-3.72.27-3.77,2.94c0,1.79,1.19,3,3.65,3.75q5.07,9.28,11.38,8.09c3.17-.6,7.56-6.67,6.68-17.06a10.36,10.36,0,0,0-.3-1.53C85.46,198.53,80,204.76,76.67,205.47Z"/></g><path class="cls-39" d="M40.9,251.87q-4,9.25-4,11.71c0,2.47,17.46,33.94,21.47,37.51.33.29,1.21-.36,1.92-1.56a7.89,7.89,0,0,0,1.22-4q-.42-1.94-12.2-32L53.7,253Z"/></g></g><g id="Group-33-Copy"><g id="Group-31"><g id="Group-13-Copy"><polygon class="cls-41" points="131.61 430.95 120.42 430.95 134.17 291.92 157.31 291.92 131.61 430.95"/><polygon class="cls-42" points="142.45 291.92 157.31 291.92 145.71 354.55 142.45 291.92"/><path class="cls-43" d="M159.72,197.57l-1.53,0a11.92,11.92,0,0,0-11.64,12.07l.22,17h0L178.39,229l-5.77-21.7A13,13,0,0,0,159.72,197.57Z"/><polygon class="cls-44" points="175.25 430.61 175.68 437.91 159.25 437.91 166.4 434.26 166.13 430.61 175.25 430.61"/><path class="cls-34" d="M175.82,434.26v3.85H158.68l6.51-3.42a2,2,0,0,0,2.3,1.41A49.07,49.07,0,0,0,175.82,434.26Z"/><polygon class="cls-45" points="176.55 430.61 165.69 430.61 150.03 295.61 175.1 292.99 176.55 430.61"/><polygon class="cls-44" points="129.87 430.95 128.71 437.82 112.31 438.25 119.99 433.93 120.85 430.95 129.87 430.95"/><path class="cls-34" d="M129.71,435.18l-.57,2.93-16.83.14,5.47-3.07a2,2,0,0,0,2.29,1.41A96.48,96.48,0,0,0,129.71,435.18Z"/><path id="Path-9" class="cls-46" d="M126.89,253.35l-4.53,5.74L97.6,240.8l-2.16-3.55c-1.45-2.08-2.3-3.14-2.57-3.19s-.12,1,.47,3.19a7.41,7.41,0,0,1-2.69-.65l-1.56-1c-1.2-.71.3,5.13,3.88,7.5s25.09,30.65,30.94,30.65q5.85,0,14.22-14.69Z"/><path class="cls-47" d="M141.72,227.79q-7.31,2-9.45,8.18-.66,1.91-8.79,19.08a22.8,22.8,0,0,0,13.23,5.81l8.15-26.21Z"/><g id="Group-14"><path class="cls-48" d="M158.5,227.24c9.58,1.16,21.59,4.13,24.54,9.41s6.28,18.6,7.55,26l-15.91-.7q-1.81,10.88-1.34,15.59c.73,7.25,4.24,13.63,4.93,19.68L131,295.14q6.23-15.24,4.71-29.62c-1.51-14.38,2.44-16.65,3.82-23.19a95.73,95.73,0,0,0,1.81-14.45A48.88,48.88,0,0,1,158.5,227.24Z"/></g><path id="Path-2-Copy-5" class="cls-49" d="M154.07,220.3l-.6,6.31c-2.38.06-4.22.16-5.53.29-2,.2,5.11,6.49,9.36,6.49s12-4.23,9.52-4.78a45,45,0,0,0-4.71-.82v-9Z"/><path id="Path-2-Copy-4" class="cls-50" d="M154.24,220.69l-.76,5.08a24.28,24.28,0,0,0,5-.42,13,13,0,0,0,3.56-1.54l.19-3.51Z"/><path id="Path-Copy" class="cls-51" d="M166.46,210.37q3.4.3,3.4,2.75t-3.4,3.37q-4.05,8.1-10.55,7.24c-1.33-.18-4-2.06-5-5.79-.59-2.11-1-6-1.05-11.58a11,11,0,0,0,8.05,5.79q5.43,1,7.72-3.45Z"/></g></g></g><g id="Group-Copy"><path class="cls-52" d="M170,263.42H128.23a1.39,1.39,0,0,0-1.39,1.39h0a1.39,1.39,0,0,0,1.39,1.39H170a1.39,1.39,0,0,0,1.39-1.39h0A1.39,1.39,0,0,0,170,263.42Z"/><path id="Rectangle-Copy-2" class="cls-53" d="M161.61,263.42H128.23a1.39,1.39,0,0,0-1.39,1.39h0a1.39,1.39,0,0,0,1.39,1.39h33.38a1.39,1.39,0,0,0,1.39-1.39h0A1.39,1.39,0,0,0,161.61,263.42Z"/><path class="cls-54" d="M141.69,233.51h-42a1.39,1.39,0,0,0-1.39,1.39,1.46,1.46,0,0,0,.11.55l12.1,28.42a3.82,3.82,0,0,0,3.52,2.33h42a1.39,1.39,0,0,0,1.39-1.39,1.5,1.5,0,0,0-.11-.55l-12.1-28.42A3.82,3.82,0,0,0,141.69,233.51Z"/><path class="cls-55" d="M125.68,246.73h-.15a2.75,2.75,0,0,0-2.75,2.75,2.63,2.63,0,0,0,.22,1.07,6.28,6.28,0,0,0,5.78,3.83h.16a2.75,2.75,0,0,0,2.75-2.75,2.86,2.86,0,0,0-.22-1.08A6.29,6.29,0,0,0,125.68,246.73Z"/></g><path id="Path-45" class="cls-56" d="M188.3,262.43q2.23,10.53,0,14.05t-47-6.79q-8.3,1.15-9.94-3.66l44.28-.31-.87-3.88Z"/></g></g><path id="Path-34-Copy" class="cls-57" d="M0,438.48l628.47.51"/><g id="Group-18"><rect class="cls-11" x="454.62" y="233.62" width="26.08" height="48.35" rx="1.63"/><path id="Path-58" class="cls-11" d="M464.4,277.09h6.25"/></g></svg>