<svg id="Layer_1" data-name="Layer 1" xmlns="http://www.w3.org/2000/svg" xmlns:xlink="http://www.w3.org/1999/xlink" viewBox="0 0 976.39 663.48"><defs><style>.cls-1{fill:url(#Gradiente_sem_nome_69);}.cls-2{fill:#fab2c2;}.cls-3{fill:#ff96af;}.cls-4{fill:#c2cef9;}.cls-5{fill:#87a0f9;}.cls-6{fill:#455a94;}.cls-7{fill:#ebf1ff;}.cls-8{fill:#bdcaf9;}.cls-9{fill:#ff85a1;}.cls-10{fill:#ffbdcc;}.cls-11{fill:#666;}.cls-12{fill:#183754;}.cls-13{fill:#faaeb1;}.cls-14{fill:#1a47b6;}.cls-15{fill:#fac8ca;}.cls-16{fill:#e3e5eb;}.cls-17{fill:#3d3d3d;}.cls-18{fill:#6686f9;}.cls-19{fill:#0055fe;}.cls-20{fill:#fa3e6a;}.cls-21{fill:#fa8aa4;}.cls-22{fill:#c4d1ff;}.cls-23{fill:#fff3e4;}.cls-24{fill:#cfd1d6;}</style><linearGradient id="Gradiente_sem_nome_69" y1="589.87" x2="961.75" y2="589.87" gradientUnits="userSpaceOnUse"><stop offset="0.16" stop-color="#e08197"/><stop offset="1" stop-color="#e08197" stop-opacity="0"/></linearGradient></defs><title>Chatbots are Driving Social Commerce</title><path class="cls-1" d="M34.79,585.5C18.46,590.86-1,601.06,0,618.21c1.21,19.45,26.58,25.55,46.05,26.29l365,13.86c163.2,6.2,328,12.29,488.6-17.26,26.94-5,59.55-17.11,61.94-44.41,1.53-17.39-11.48-33.43-27.2-41s-33.71-8.55-51.14-9.37L701.2,537.7c-56.05-2.65-119.33,2.39-174.1-10-100-22.62-206.25-7.82-307.2,10.71A1438.66,1438.66,0,0,0,34.79,585.5Z"/><path class="cls-2" d="M961.75,430.05c-18.82-21.12-3-38-.18-69.7s-19.93-48.57-46.46-48.57c-24.47,0-49.28,16.89-46.46,48.57s18.65,48.58-.18,69.7-32.91,83.88,46.64,83.88S980.58,451.17,961.75,430.05Z"/><path class="cls-3" d="M915.11,582.36a1.34,1.34,0,0,1-1.35-1.35V368a1.35,1.35,0,1,1,2.7,0V581A1.34,1.34,0,0,1,915.11,582.36Z"/><path class="cls-3" d="M913.35,403c-4,0-13.54-.64-19.55-6.23a16.46,16.46,0,0,1-5.12-12.58,1.36,1.36,0,0,1,2.71,0,13.83,13.83,0,0,0,4.25,10.59c6.73,6.27,19.25,5.47,19.37,5.46a1.35,1.35,0,0,1,.2,2.7C915.09,403,914.41,403,913.35,403Z"/><path class="cls-3" d="M918.36,470.29c-2,0-3.22-.13-3.4-.14a1.36,1.36,0,0,1,.3-2.7c.14,0,15.1,1.51,24.31-6.77,4.86-4.36,7.32-10.71,7.32-18.88a1.36,1.36,0,1,1,2.71,0c0,9-2.77,16-8.23,20.91C934,469.35,923.65,470.29,918.36,470.29Z"/><path class="cls-4" d="M348.89,374.66c-22.6-25.4-3.55-45.68-.13-83.75S324.87,232.52,293,232.48c-29.41,0-59.24,20.24-55.9,58.32s22.35,58.39-.3,83.75S197.14,475.3,292.73,475.4,371.48,400.07,348.89,374.66Z"/><path class="cls-5" d="M292.64,557.36h0a1.36,1.36,0,0,1-1.35-1.35l.27-256a1.35,1.35,0,0,1,1.36-1.35h0a1.35,1.35,0,0,1,1.35,1.35L294,556A1.35,1.35,0,0,1,292.64,557.36Z"/><path class="cls-5" d="M290.79,341.82c-4.75,0-16.16-.75-23.33-7.43-4-3.75-6-8.77-6-14.92a1.36,1.36,0,0,1,1.36-1.36h0a1.36,1.36,0,0,1,1.35,1.36c0,5.37,1.74,9.73,5.19,12.94,8.18,7.64,23.31,6.66,23.47,6.65a1.35,1.35,0,0,1,.19,2.7C292.83,341.77,292,341.82,290.79,341.82Z"/><path class="cls-5" d="M296.76,422.7c-2.37,0-3.91-.16-4.12-.18a1.36,1.36,0,0,1,.29-2.7c.19,0,18.27,1.86,29.44-8.16,5.9-5.29,8.9-13,8.91-22.9a1.36,1.36,0,0,1,1.36-1.35h0a1.35,1.35,0,0,1,1.35,1.36c0,10.71-3.31,19.09-9.82,24.91C315.37,421.56,303.09,422.7,296.76,422.7Z"/><rect class="cls-6" x="336.08" width="348.45" height="582.13" rx="20"/><rect class="cls-7" x="336.08" y="50.79" width="348.45" height="490.66"/><path class="cls-5" d="M705.13,270.66H491.47a27.09,27.09,0,0,0-27.09,27.09v52.3a27.09,27.09,0,0,0,27.09,27.09H653.14l33.71,33.71a4.07,4.07,0,0,0,6.94-2.88V377.14h11.34a27.09,27.09,0,0,0,27.09-27.09v-52.3A27.09,27.09,0,0,0,705.13,270.66Z"/><path class="cls-8" d="M558,306.23H494.67a3.8,3.8,0,0,1,0-7.59H558a3.8,3.8,0,1,1,0,7.59Z"/><path class="cls-8" d="M617.53,306.23H577.62a3.8,3.8,0,1,1,0-7.59h39.91a3.8,3.8,0,1,1,0,7.59Z"/><path class="cls-8" d="M553.87,326.48h-59.2a3.8,3.8,0,0,1,0-7.59h59.2a3.8,3.8,0,0,1,0,7.59Z"/><path class="cls-8" d="M685.34,326.48H573.44a3.8,3.8,0,0,1,0-7.59h111.9a3.8,3.8,0,1,1,0,7.59Z"/><path class="cls-8" d="M590.8,348H494.67a3.8,3.8,0,0,1,0-7.6H590.8a3.8,3.8,0,0,1,0,7.6Z"/><path class="cls-8" d="M665.92,348H610.43a3.8,3.8,0,1,1,0-7.6h55.49a3.8,3.8,0,0,1,0,7.6Z"/><path class="cls-5" d="M718.68,19.22H572.74a27.09,27.09,0,0,0-27.09,27.09v52.3a27.09,27.09,0,0,0,27.09,27.09h93.94l33.72,33.71a4.06,4.06,0,0,0,6.93-2.87V125.7h11.35a27.09,27.09,0,0,0,27.09-27.09V46.31A27.09,27.09,0,0,0,718.68,19.22Z"/><path class="cls-8" d="M614.61,54.49H578.33a3.8,3.8,0,0,1,0-7.59h36.28a3.8,3.8,0,1,1,0,7.59Z"/><path class="cls-8" d="M674.1,54.49H634.19a3.8,3.8,0,1,1,0-7.59H674.1a3.8,3.8,0,1,1,0,7.59Z"/><path class="cls-8" d="M610.44,74.74H578.33a3.8,3.8,0,0,1,0-7.59h32.11a3.8,3.8,0,0,1,0,7.59Z"/><path class="cls-8" d="M701.28,74.74H630a3.8,3.8,0,0,1,0-7.59h71.27a3.8,3.8,0,0,1,0,7.59Z"/><path class="cls-8" d="M647.37,96.26h-69a3.8,3.8,0,0,1,0-7.59h69a3.8,3.8,0,0,1,0,7.59Z"/><path class="cls-8" d="M681.85,96.26H667a3.8,3.8,0,1,1,0-7.59h14.85a3.8,3.8,0,1,1,0,7.59Z"/><path class="cls-9" d="M331.39,395.29H477.33a27.09,27.09,0,0,1,27.09,27.09v52.3a27.09,27.09,0,0,1-27.09,27.09H383.39l-33.71,33.71a4.06,4.06,0,0,1-6.94-2.87V501.77H331.39a27.09,27.09,0,0,1-27.09-27.09v-52.3A27.09,27.09,0,0,1,331.39,395.29Z"/><path class="cls-10" d="M379.17,429.94H342.89a3.8,3.8,0,0,1,0-7.6h36.28a3.8,3.8,0,1,1,0,7.6Z"/><path class="cls-10" d="M438.66,429.94H398.75a3.8,3.8,0,0,1,0-7.6h39.91a3.8,3.8,0,0,1,0,7.6Z"/><path class="cls-10" d="M375,450.19H342.89a3.8,3.8,0,0,1,0-7.59H375a3.8,3.8,0,0,1,0,7.59Z"/><path class="cls-10" d="M465.83,450.19H394.57a3.8,3.8,0,0,1,0-7.59h71.26a3.8,3.8,0,1,1,0,7.59Z"/><path class="cls-10" d="M411.93,471.71h-69a3.8,3.8,0,0,1,0-7.6h69a3.8,3.8,0,0,1,0,7.6Z"/><path class="cls-10" d="M446.41,471.71H431.56a3.8,3.8,0,0,1,0-7.6h14.85a3.8,3.8,0,0,1,0,7.6Z"/><path class="cls-9" d="M331.39,140.7H545.06a27.09,27.09,0,0,1,27.09,27.09v52.3a27.09,27.09,0,0,1-27.09,27.09H383.39l-33.71,33.71a4.06,4.06,0,0,1-6.94-2.87V247.18H331.39a27.09,27.09,0,0,1-27.09-27.09v-52.3A27.09,27.09,0,0,1,331.39,140.7Z"/><path class="cls-10" d="M406.26,175.82H342.89a3.8,3.8,0,0,1,0-7.59h63.37a3.8,3.8,0,1,1,0,7.59Z"/><path class="cls-10" d="M465.75,175.82H425.84a3.8,3.8,0,1,1,0-7.59h39.91a3.8,3.8,0,1,1,0,7.59Z"/><path class="cls-10" d="M402.09,196.08h-59.2a3.8,3.8,0,0,1,0-7.6h59.2a3.8,3.8,0,0,1,0,7.6Z"/><path class="cls-10" d="M533.56,196.08H421.66a3.8,3.8,0,0,1,0-7.6h111.9a3.8,3.8,0,1,1,0,7.6Z"/><path class="cls-10" d="M439,217.59H342.89a3.8,3.8,0,0,1,0-7.59H439a3.8,3.8,0,0,1,0,7.59Z"/><path class="cls-10" d="M514.13,217.59H458.65a3.8,3.8,0,1,1,0-7.59h55.48a3.8,3.8,0,1,1,0,7.59Z"/><path class="cls-11" d="M215.32,590.16s19.51,10.67,28.67,12.56,11.87,7.55,2.7,10.25-27-2.16-37.21-2.16-14.83,2.43-19.42.81-.62-14.4-.62-14.4Z"/><path class="cls-11" d="M118.87,592.11s6.75,10.87,12.68,16.27,11.33,10.78-7.82,12.13S93,616.21,91.1,612.43s1.42-20.32,1.42-20.32Z"/><path class="cls-12" d="M170.75,221.75s-5.78,8.07-8.89-6S146.74,191.63,151.5,180s13.83-9.73,13.83-9.73.45-13.45,12.46-13.45,20.7,5,27.53,2.69,17.38-7.45,20.07-2.69-1.86,11.59-4.76,12.63c0,0,9.11-3.71,8.9,2.7s-12.41,13.85-25,14.89-27.84,1.62-27.84,1.62Z"/><path class="cls-12" d="M226.19,354.11a67,67,0,0,1,0,13.06s5.13,10,5.13,27.08-12.7,165.33-16,195.91a60.54,60.54,0,0,1-25.88,7.06s-8-68.7-8-98.34-2.83-64-2.83-64-13.4,49.4-29.05,88-30.7,69.23-30.7,69.23-11.3,9.89-26.35,0c0,0,14.11-69.23,18.35-93.7S132.23,375,142.2,367.55c0,0-.77-8.14,1.16-13.44Z"/><path class="cls-13" d="M210.23,179.15s5.09,15.37,3.26,29.5-6.38,24.84-12.07,25.52-27.12-2.73-30.77-16.63-6.15-26.67-4.1-34.41,15.27-10.94,21-10.94S210.23,179.15,210.23,179.15Z"/><path class="cls-13" d="M173.71,214.89a6.72,6.72,0,0,1-7.9,3c-5.27-1.69-11.35-8.82-7.81-14.71s12.5-2,12.5-2Z"/><path class="cls-12" d="M206.21,219a22.17,22.17,0,0,1-15.31,1s.82,9.37,7.66,9.37S206.21,219,206.21,219Z"/><path class="cls-13" d="M195.38,231.58a61.57,61.57,0,0,0,0,9.52c.42,5.18,2.69,16.35-8.07,17.18s-19-8.69-19.25-15.11,0-28.56,0-28.56h10.76Z"/><path class="cls-12" d="M176.55,185.42s1.14,23.61-4.19,23.71-9.68-16.46-9.68-16.46Z"/><path class="cls-14" d="M195.23,234.25a21.34,21.34,0,0,1,7.92,6.37s22.27.77,44.17,10.38,50.33-24.3,52.63-29.25l12.83,6s-1,67.36-80.8,70.48c0,0,5.45,51-5.23,59.06s-75.79,5.67-84.14,0S136.93,334,136.93,334s-17.45,31.5-20.38,58.13c0,0-6.35,4.88-18.81,0,0,0-6.26-49.13,8.33-95.53s50.87-56.13,50.87-56.13,4.46-10.4,11-13.15c0,0,.65,20.8,20.24,26.85C188.22,254.12,196.19,251.89,195.23,234.25Z"/><path class="cls-13" d="M300,221.75a24.41,24.41,0,0,1-3.86-12.62c0-7.09,7.2-5.64,7.2-5.64s2-11.34,5.62-19,7.42-7.64,6.75-1.12-4.5,13.9-4.5,13.9,16.41,4.55,16.19,10.16-.8,16.43-14.57,20.35Z"/><path class="cls-15" d="M309.75,220.81h-.06a.69.69,0,0,1-.62-.74c.5-5.4-6-7.91-6-7.93a.68.68,0,0,1-.42-.78.67.67,0,0,1,.7-.53c.05,0,5.59.31,9.68-2.28.93-.58,1.22-1,1.18-1.26-.23-1.31-6.33-2.64-8.62-3.14a.67.67,0,0,1-.52-.8.68.68,0,0,1,.81-.52c6,1.31,9.33,2.37,9.66,4.23.24,1.36-1.28,2.32-1.78,2.64a17.93,17.93,0,0,1-7.84,2.42c2.14,1.39,4.89,4,4.52,8.07A.67.67,0,0,1,309.75,220.81Z"/><path class="cls-13" d="M116.55,392.08s5.63,8.53,5.48,15.6-3.6,5.16-5.48-2.31-4,4.79-3.83,9.71,2.1,10.78-3.76,10.78-10.82-11-10.82-17.58.75-17.74.75-17.74Z"/><path class="cls-12" d="M212,185.73s-18.46,3.52-35.31,3l-11.32,4.21-5.53-11,20.91-15,25.5,2.51,7.68,8Z"/><rect class="cls-11" x="757.19" y="207.53" width="4.66" height="29.84"/><rect class="cls-11" x="833.79" y="207.53" width="4.66" height="29.84"/><path class="cls-12" d="M751.44,361.26a5.85,5.85,0,0,0-7.39,3.73c-7.17,21.81-31.51,79-59.89,89.92,1.25,3.55,3.34,7.09,4.9,10.63,39.06-15.94,65-93.48,66.11-96.89A5.85,5.85,0,0,0,751.44,361.26Z"/><path class="cls-5" d="M672.42,484.22,667.58,474l12.48-5.9a4.92,4.92,0,0,0-4.2-8.89l-12.48,5.9-4.85-10.25,12.48-5.9a16.26,16.26,0,0,1,13.9,29.39Z"/><path class="cls-11" d="M778.22,597.48A25.05,25.05,0,0,0,771.49,580v-5.8h-13c-10.91,0-19.76,10.4-19.76,23.24s8.85,23.23,19.76,23.23h13v-5.8A25,25,0,0,0,778.22,597.48Z"/><ellipse class="cls-12" cx="771.49" cy="597.48" rx="19.76" ry="23.24"/><path class="cls-11" d="M856.72,597.48A25.05,25.05,0,0,0,850,580v-5.8H837c-10.92,0-19.76,10.4-19.76,23.24S826,620.71,837,620.71h13v-5.8A25,25,0,0,0,856.72,597.48Z"/><ellipse class="cls-12" cx="849.99" cy="597.48" rx="19.76" ry="23.24"/><path class="cls-14" d="M721.87,298.73h12.71V256.87H721.87a20.93,20.93,0,0,0-20.93,20.93h0A20.93,20.93,0,0,0,721.87,298.73Z"/><path class="cls-14" d="M721.87,300.08a22.31,22.31,0,0,1-22.29-22.28,1.36,1.36,0,0,1,2.71,0,19.6,19.6,0,0,0,19.58,19.58,1.35,1.35,0,0,1,0,2.7Z"/><path class="cls-5" d="M845.87,231.39H759.76a42,42,0,0,0-42,42v8.8a42,42,0,0,0,42,42h86.11a46.41,46.41,0,0,0,46.41-46.41h0A46.41,46.41,0,0,0,845.87,231.39Z"/><path class="cls-14" d="M873.4,298.73h18.32a20.93,20.93,0,0,0,20.93-20.93h0a20.93,20.93,0,0,0-20.93-20.93H873.4a11.48,11.48,0,0,0-11.48,11.47v18.92A11.48,11.48,0,0,0,873.4,298.73Z"/><path class="cls-16" d="M827.8,284.39H754.72a17.4,17.4,0,0,1-17.4-17.4h0a17.4,17.4,0,0,1,17.4-17.4H827.8A17.4,17.4,0,0,1,845.2,267h0A17.4,17.4,0,0,1,827.8,284.39Z"/><circle class="cls-17" cx="755.92" cy="266.99" r="13.21"/><path class="cls-11" d="M757.84,263.87a5,5,0,1,1-5.05-5A5,5,0,0,1,757.84,263.87Z"/><circle class="cls-17" cx="827.72" cy="266.99" r="13.21"/><path class="cls-14" d="M774.06,291h34.62a2.09,2.09,0,0,1,2.09,2.09v10.62A14.32,14.32,0,0,1,796.44,318H786.29A14.32,14.32,0,0,1,772,303.69V293.07a2.09,2.09,0,0,1,2.09-2.09Z"/><rect class="cls-12" x="776.06" y="324.21" width="38.45" height="19.99"/><path class="cls-5" d="M855.84,343.34h-96a17,17,0,0,0-16.91,15.08l-24.28,211a25.22,25.22,0,0,0,25,28.11H870a25.23,25.23,0,0,0,25.06-28.11L870.56,356.46A14.82,14.82,0,0,0,855.84,343.34Z"/><path class="cls-14" d="M895.07,569.37,870.56,356.46a14.82,14.82,0,0,0-14.72-13.12,10.35,10.35,0,0,0-10.31,9.39L825.24,571.11a24.14,24.14,0,0,0,24,26.37H870A25.23,25.23,0,0,0,895.07,569.37Z"/><path class="cls-16" d="M748.43,468h70.4a5.59,5.59,0,0,0,5.56-5l9.14-93.33a5.59,5.59,0,0,0-5.56-6.13h-70.4a5.59,5.59,0,0,0-5.56,5l-9.14,93.33A5.59,5.59,0,0,0,748.43,468Z"/><path class="cls-12" d="M891.28,408.59a183.42,183.42,0,0,0-29.23-39.08,5.85,5.85,0,1,0-8.14,8.41c.58.56,55.86,54.88,38,107.83a31.35,31.35,0,0,1,10.93,4.18C911.22,465.44,907.29,437.46,891.28,408.59Z"/><path class="cls-5" d="M901.31,518.22l-10.26-4.84,5.89-12.49a4.91,4.91,0,1,0-8.89-4.19l-5.89,12.49-10.25-4.84,5.89-12.49a16.25,16.25,0,0,1,29.4,13.86Z"/><polygon class="cls-18" points="745.67 559.64 740.37 559.64 747.69 488.21 752.99 488.21 745.67 559.64"/><rect class="cls-19" x="734.85" y="511.56" width="24.61" height="9.44" rx="1.88"/><path class="cls-20" d="M788.49,496.17a8,8,0,1,1-8-8A8,8,0,0,1,788.49,496.17Z"/><path class="cls-21" d="M815.67,496.17a8,8,0,1,1-8-8A8,8,0,0,1,815.67,496.17Z"/><circle class="cls-18" cx="791.25" cy="537.06" r="22.58"/><path class="cls-19" d="M791,438.4h0a1.35,1.35,0,0,1-1.31-1.13l-4-23.88-3.46-3.05a1.35,1.35,0,0,1-.43-.79l-1.93-11.11-5.41,29.76a1.35,1.35,0,0,1-2.65.06L767,408.14l-3.3,6.61a1.36,1.36,0,0,1-1.21.74h-15a1.35,1.35,0,1,1,0-2.7h14.15l4.61-9.21a1.35,1.35,0,0,1,2.53.3l4.06,17.41,5.61-30.84a1.36,1.36,0,0,1,1.34-1.11h0a1.34,1.34,0,0,1,1.33,1.12l3.15,18.16,3.45,3.06a1.34,1.34,0,0,1,.44.79l2.9,17.19,6.47-31.61a1.35,1.35,0,0,1,1.31-1.08h0a1.36,1.36,0,0,1,1.32,1.06l4.33,19.68,1.9-4.38a1.37,1.37,0,0,1,1.25-.81h21.48a1.35,1.35,0,1,1,0,2.7H808.6l-3.22,7.41a1.35,1.35,0,0,1-2.56-.25L799,404.84l-6.64,32.48A1.35,1.35,0,0,1,791,438.4Z"/><circle class="cls-20" cx="759.52" cy="199.61" r="12.66" transform="translate(5.49 419.06) rotate(-30.95)"/><circle class="cls-20" cx="836.12" cy="199.61" r="12.66" transform="translate(19.36 467.66) rotate(-31.6)"/><path class="cls-11" d="M829.19,263.87a5,5,0,1,1-5-5A5,5,0,0,1,829.19,263.87Z"/><path class="cls-22" d="M759.76,325.57A43.42,43.42,0,0,1,716.4,282.2v-8.8a1.36,1.36,0,1,1,2.71,0v8.8a40.7,40.7,0,0,0,40.65,40.66,1.36,1.36,0,1,1,0,2.71Z"/><path class="cls-20" d="M834.45,119.11a30.47,30.47,0,1,0-60.93,0,30,30,0,0,0,4.18,15.11,34.9,34.9,0,0,0,4.84,6.31c1.75,1.86,4.1,3.06,5.76,5,1.44,1.66,1.61,3.66,2.3,5.64a6,6,0,0,0,5.72,4h15.36a6.05,6.05,0,0,0,5.7-4c.59-1.66,1-3.78,1.91-5.27,1.15-1.85,3.71-2.8,5.29-4.31a31.75,31.75,0,0,0,5.27-6.4A30.92,30.92,0,0,0,834.45,119.11Z"/><path class="cls-23" d="M813.16,100.09a2.28,2.28,0,0,1-.95-.2,20.26,20.26,0,0,0-2.14-.78,2.39,2.39,0,0,1,1.39-4.58,26.85,26.85,0,0,1,2.64,1,2.39,2.39,0,0,1-.94,4.59Z"/><path class="cls-23" d="M827.28,121.5a2.39,2.39,0,0,1-2.39-2.39,20.74,20.74,0,0,0-6.55-15.18,2.39,2.39,0,1,1,3.29-3.47,25.77,25.77,0,0,1,8,18.65A2.39,2.39,0,0,1,827.28,121.5Z"/><path class="cls-21" d="M797.13,129a5.54,5.54,0,0,1-3.06-.92l-2.73-1.83a1.29,1.29,0,1,1,1.43-2.14l2.74,1.82a3,3,0,0,0,3.32,0l2-1.43a5.5,5.5,0,0,1,6.41,0l1.89,1.36a2.94,2.94,0,0,0,3.34.07l3-2a1.29,1.29,0,1,1,1.43,2.15l-3,2a5.53,5.53,0,0,1-6.28-.12l-1.89-1.37a3,3,0,0,0-3.41,0l-2,1.43A5.54,5.54,0,0,1,797.13,129Z"/><path class="cls-21" d="M797.27,157.53a1.28,1.28,0,0,1-1.27-1.07l-5.47-32.6a1.29,1.29,0,0,1,2.55-.42L798.54,156a1.29,1.29,0,0,1-1.06,1.49Z"/><path class="cls-21" d="M810.77,157.53h-.22a1.3,1.3,0,0,1-1.06-1.5l5.62-32.5a1.29,1.29,0,1,1,2.55.44L812,156.46A1.29,1.29,0,0,1,810.77,157.53Z"/><rect class="cls-24" x="792.99" y="155.2" width="21.98" height="13.06" rx="1.52"/><rect class="cls-24" x="797.2" y="155.2" width="13.56" height="18.06" rx="4.4"/><path class="cls-5" d="M804.11,82.54a1.39,1.39,0,0,1-1.39-1.39V71.89a1.4,1.4,0,1,1,2.79,0v9.26A1.4,1.4,0,0,1,804.11,82.54Z"/><path class="cls-5" d="M824.39,88.73a1.42,1.42,0,0,1-1-.2,1.4,1.4,0,0,1-.4-1.93L828,78.85a1.39,1.39,0,0,1,2.33,1.52l-5.07,7.76A1.42,1.42,0,0,1,824.39,88.73Z"/><path class="cls-5" d="M844.06,98.69l-8.14,4.42a1.39,1.39,0,0,1-1.89-.56,1.41,1.41,0,0,1,.56-1.89l8.14-4.42a1.39,1.39,0,0,1,1.33,2.45Z"/><path class="cls-5" d="M784.32,88.73a1.4,1.4,0,0,0,1.45-2.13l-5.07-7.75a1.39,1.39,0,0,0-2.33,1.52l5.06,7.76A1.46,1.46,0,0,0,784.32,88.73Z"/><path class="cls-5" d="M764.65,98.69l8.13,4.42a1.39,1.39,0,1,0,1.33-2.45L766,96.24a1.39,1.39,0,0,0-1.33,2.45Z"/></svg>