<svg xmlns="http://www.w3.org/2000/svg" xmlns:xlink="http://www.w3.org/1999/xlink" viewBox="0 0 427.35 333.08"><defs><style>.cls-1{isolation:isolate;}.cls-2{fill:#13426f;}.cls-3{fill:#fdf7de;}.cls-4{fill:#6885a4;}.cls-5{fill:#3e4151;}.cls-6{fill:#bee6f4;}.cls-7{fill:#eaf7fe;}.cls-8{fill:#435272;}.cls-9{fill:url(#linear-gradient);}.cls-10{fill:#5385a2;}.cls-11{fill:#788399;opacity:0.6;}.cls-11,.cls-33{mix-blend-mode:multiply;}.cls-12{fill:#449ba9;}.cls-13{fill:url(#linear-gradient-2);}.cls-14{fill:url(#linear-gradient-3);}.cls-15{fill:url(#linear-gradient-4);}.cls-16{fill:url(#linear-gradient-5);}.cls-17{fill:url(#linear-gradient-6);}.cls-18{fill:#5179b5;}.cls-19{fill:url(#linear-gradient-7);}.cls-20{fill:url(#linear-gradient-8);}.cls-21{fill:#6463ad;}.cls-22{fill:#f4fafa;}.cls-23{fill:#c8dbe9;}.cls-24{fill:#fff;}.cls-25{fill:#f7fcfe;}.cls-26{fill:#51529d;}.cls-27{fill:#4b4c9a;}.cls-28{fill:#93d8f2;}.cls-29{fill:url(#linear-gradient-9);}.cls-30{fill:#3eacc8;}.cls-31{fill:url(#linear-gradient-10);}.cls-32{fill:#69cdf0;}.cls-33{opacity:0.8;}.cls-34{fill:#6ca4be;}.cls-35{fill:url(#linear-gradient-11);}.cls-36{fill:#59a8cc;}.cls-37{fill:url(#linear-gradient-12);}.cls-38{fill:url(#linear-gradient-13);}.cls-39{fill:#def2fb;opacity:0.5;mix-blend-mode:overlay;}.cls-40{fill:url(#linear-gradient-14);}.cls-41{fill:url(#linear-gradient-15);}.cls-42{fill:#afe0ed;}.cls-43{fill:#84d2df;}.cls-44{fill:#e1f4fd;}.cls-45{fill:#f3fafe;}.cls-46{fill:#6fceea;}.cls-47{fill:#90d6e8;}.cls-48{fill:url(#linear-gradient-16);}.cls-49{fill:#469bb2;}.cls-50{fill:url(#linear-gradient-17);}.cls-51{fill:url(#linear-gradient-18);}.cls-52{fill:url(#linear-gradient-19);}.cls-53{fill:url(#linear-gradient-20);}</style><linearGradient id="linear-gradient" x1="76.66" y1="205.86" x2="210.55" y2="205.86" gradientUnits="userSpaceOnUse"><stop offset="0" stop-color="#0562a0"/><stop offset="1" stop-color="#3087c8"/></linearGradient><linearGradient id="linear-gradient-2" x1="103.95" y1="107.76" x2="223.79" y2="107.76" xlink:href="#linear-gradient"/><linearGradient id="linear-gradient-3" x1="108.19" y1="141.34" x2="143.62" y2="141.34" xlink:href="#linear-gradient"/><linearGradient id="linear-gradient-4" x1="145.92" y1="119.55" x2="181.36" y2="119.55" xlink:href="#linear-gradient"/><linearGradient id="linear-gradient-5" x1="183.65" y1="97.77" x2="219.09" y2="97.77" xlink:href="#linear-gradient"/><linearGradient id="linear-gradient-6" x1="108.19" y1="106.11" x2="143.62" y2="106.11" xlink:href="#linear-gradient"/><linearGradient id="linear-gradient-7" x1="183.65" y1="62.54" x2="219.09" y2="62.54" xlink:href="#linear-gradient"/><linearGradient id="linear-gradient-8" x1="103.95" y1="53.04" x2="223.79" y2="53.04" xlink:href="#linear-gradient"/><linearGradient id="linear-gradient-9" x1="173.85" y1="227.34" x2="188.07" y2="227.34" xlink:href="#linear-gradient"/><linearGradient id="linear-gradient-10" x1="183" y1="221.94" x2="199.48" y2="221.94" xlink:href="#linear-gradient"/><linearGradient id="linear-gradient-11" x1="133.23" y1="276.7" x2="197.87" y2="276.7" xlink:href="#linear-gradient"/><linearGradient id="linear-gradient-12" x1="217.09" y1="224.74" x2="240.76" y2="224.74" xlink:href="#linear-gradient"/><linearGradient id="linear-gradient-13" x1="171.88" y1="304.54" x2="197.87" y2="304.54" xlink:href="#linear-gradient"/><linearGradient id="linear-gradient-14" x1="157.43" y1="294.29" x2="168.34" y2="294.29" xlink:href="#linear-gradient"/><linearGradient id="linear-gradient-15" x1="234.02" y1="58.35" x2="258.75" y2="58.35" xlink:href="#linear-gradient"/><linearGradient id="linear-gradient-16" x1="291.97" y1="225.68" x2="417.84" y2="225.68" xlink:href="#linear-gradient"/><linearGradient id="linear-gradient-17" x1="11.9" y1="123.02" x2="90.43" y2="123.02" xlink:href="#linear-gradient"/><linearGradient id="linear-gradient-18" x1="33.98" y1="118.88" x2="82.69" y2="118.88" xlink:href="#linear-gradient"/><linearGradient id="linear-gradient-19" x1="9.78" y1="170.63" x2="92.56" y2="170.63" xlink:href="#linear-gradient"/><linearGradient id="linear-gradient-20" x1="23.93" y1="172.23" x2="72.86" y2="172.23" xlink:href="#linear-gradient"/></defs><title>Frictionless Shopping</title><g class="cls-1"><g id="Layer_1" data-name="Layer 1"><polygon class="cls-2" points="50.24 127.42 50.24 171.12 53.57 173.04 53.57 127.42 50.24 127.42"/><polygon class="cls-2" points="248.18 62.9 245.09 62.9 245.09 7.58 207.54 29.26 206 26.59 248.18 2.23 248.18 62.9"/><polygon class="cls-2" points="298.82 297.81 233.31 259.98 234.74 257.5 298.82 294.5 385.39 244.52 386.82 247 298.82 297.81"/><rect class="cls-2" x="25.49" y="252.27" width="85.63" height="3.08" transform="matrix(0.87, -0.5, 0.5, 0.87, -117.76, 68.16)"/><rect class="cls-3" x="58.6" y="90.01" width="85.63" height="3.09" transform="translate(-32.19 62.99) rotate(-30.01)"/><polygon class="cls-2" points="23.53 275.59 20.2 275.59 20.2 222.59 50.44 205.13 50.44 161.42 53.76 161.42 53.76 207.05 23.53 224.51 23.53 275.59"/><polygon class="cls-4" points="179.1 122.78 62.82 189.91 98.15 286.2 109.65 287.49 182.4 122.65 179.1 122.78"/><polygon class="cls-5" points="62.82 189.91 98.15 286.2 111.01 288.52 134.51 231.17 67.14 189.79 62.82 189.91"/><polygon class="cls-4" points="98.15 286.2 222.53 223.71 291.64 259.74 291.77 263.69 175.48 330.83 98.15 286.2"/><polygon class="cls-5" points="164.85 238.39 98.15 286.2 175.44 330.8 164.85 238.39"/><polygon class="cls-6" points="106.25 286.97 222.53 219.84 291.77 259.81 175.48 326.95 106.25 286.97"/><polygon class="cls-7" points="182.4 122.65 66.11 189.79 106.25 286.97 112.5 283.74 222.67 219.86 182.4 122.65"/><polygon class="cls-8" points="179.38 134.98 76.19 194.81 110.33 277.24 213.52 217.41 179.38 134.98"/><polygon class="cls-9" points="177.27 136.52 76.66 194.84 109.95 275.21 210.55 216.88 177.27 136.52"/><polygon class="cls-10" points="125.16 281.91 117.99 286.05 122.29 288.53 129.46 284.39 125.16 281.91"/><polygon class="cls-10" points="133.85 276.89 126.68 281.03 130.98 283.52 138.15 279.38 133.85 276.89"/><polygon class="cls-10" points="142.54 271.88 135.37 276.02 139.67 278.5 146.84 274.36 142.54 271.88"/><polygon class="cls-10" points="151.23 266.86 144.05 271 148.36 273.49 155.53 269.35 151.23 266.86"/><polygon class="cls-10" points="159.91 261.85 152.74 265.99 157.04 268.47 164.21 264.33 159.91 261.85"/><polygon class="cls-10" points="168.6 256.83 161.43 260.97 165.73 263.46 172.9 259.31 168.6 256.83"/><polygon class="cls-10" points="177.29 251.82 170.12 255.96 174.42 258.44 181.59 254.3 177.29 251.82"/><polygon class="cls-10" points="185.98 246.8 178.81 250.94 183.11 253.42 190.28 249.28 185.98 246.8"/><polygon class="cls-10" points="194.66 241.78 187.49 245.92 191.8 248.41 198.97 244.27 194.66 241.78"/><polygon class="cls-10" points="203.35 236.77 196.18 240.91 200.48 243.39 207.65 239.25 203.35 236.77"/><polygon class="cls-10" points="212.04 231.75 204.87 235.89 209.17 238.38 216.34 234.24 212.04 231.75"/><polygon class="cls-10" points="220.73 226.74 213.56 230.88 217.86 233.36 225.03 229.22 220.73 226.74"/><polygon class="cls-10" points="130.57 285.04 123.4 289.18 127.7 291.66 134.88 287.52 130.57 285.04"/><polygon class="cls-10" points="139.26 280.02 132.09 284.16 136.39 286.64 143.56 282.5 139.26 280.02"/><polygon class="cls-10" points="147.95 275 140.78 279.14 145.08 281.63 152.25 277.49 147.95 275"/><polygon class="cls-10" points="156.64 269.99 149.47 274.13 153.77 276.61 160.94 272.47 156.64 269.99"/><polygon class="cls-10" points="165.32 264.97 158.16 269.11 162.45 271.6 169.63 267.45 165.32 264.97"/><polygon class="cls-10" points="174.01 259.96 166.84 264.1 171.14 266.58 178.31 262.44 174.01 259.96"/><polygon class="cls-10" points="182.7 254.94 175.53 259.08 179.83 261.56 187 257.42 182.7 254.94"/><polygon class="cls-10" points="191.39 249.93 184.22 254.06 188.52 256.55 195.69 252.41 191.39 249.93"/><polygon class="cls-10" points="200.07 244.91 192.91 249.05 197.21 251.53 204.38 247.39 200.07 244.91"/><polygon class="cls-10" points="208.76 239.89 201.59 244.03 205.89 246.52 213.07 242.38 208.76 239.89"/><polygon class="cls-10" points="217.45 234.88 210.28 239.02 214.58 241.5 221.75 237.36 217.45 234.88"/><polygon class="cls-10" points="226.14 229.86 218.97 234 223.27 236.49 230.44 232.34 226.14 229.86"/><polygon class="cls-10" points="135.99 288.16 128.82 292.3 133.12 294.78 140.29 290.64 135.99 288.16"/><polygon class="cls-10" points="144.67 283.14 137.5 287.28 141.81 289.77 148.97 285.63 144.67 283.14"/><polygon class="cls-10" points="153.36 278.13 146.19 282.27 150.49 284.75 157.66 280.61 153.36 278.13"/><polygon class="cls-10" points="162.05 273.11 154.88 277.25 159.18 279.74 166.35 275.6 162.05 273.11"/><polygon class="cls-10" points="170.74 268.1 163.57 272.24 167.87 274.72 175.04 270.58 170.74 268.1"/><polygon class="cls-10" points="179.42 263.08 172.25 267.22 176.55 269.7 183.72 265.56 179.42 263.08"/><polygon class="cls-10" points="188.11 258.06 180.94 262.2 185.24 264.69 192.41 260.55 188.11 258.06"/><polygon class="cls-10" points="196.8 253.05 189.63 257.19 193.93 259.67 201.1 255.53 196.8 253.05"/><polygon class="cls-10" points="205.49 248.03 198.32 252.17 202.62 254.66 209.79 250.52 205.49 248.03"/><polygon class="cls-10" points="214.18 243.02 207 247.16 211.31 249.64 218.48 245.5 214.18 243.02"/><polygon class="cls-10" points="222.86 238 215.69 242.14 219.99 244.63 227.17 240.49 222.86 238"/><polygon class="cls-10" points="231.55 232.99 224.38 237.13 228.68 239.61 235.85 235.47 231.55 232.99"/><polygon class="cls-10" points="141.4 291.28 134.23 295.42 138.53 297.91 145.7 293.77 141.4 291.28"/><polygon class="cls-10" points="150.09 286.27 142.91 290.41 147.22 292.89 154.39 288.75 150.09 286.27"/><polygon class="cls-10" points="158.77 281.25 151.6 285.39 155.9 287.88 163.07 283.74 158.77 281.25"/><polygon class="cls-10" points="167.46 276.24 160.29 280.38 164.59 282.86 171.76 278.72 167.46 276.24"/><polygon class="cls-10" points="176.15 271.22 168.98 275.36 173.28 277.84 180.45 273.7 176.15 271.22"/><polygon class="cls-10" points="184.84 266.2 177.67 270.35 181.97 272.83 189.14 268.69 184.84 266.2"/><polygon class="cls-10" points="193.52 261.19 186.35 265.33 190.66 267.81 197.83 263.67 193.52 261.19"/><polygon class="cls-10" points="202.21 256.17 195.04 260.31 199.34 262.8 206.51 258.66 202.21 256.17"/><polygon class="cls-10" points="210.9 251.16 203.73 255.3 208.03 257.78 215.2 253.64 210.9 251.16"/><polygon class="cls-10" points="219.59 246.14 212.42 250.28 216.72 252.77 223.89 248.63 219.59 246.14"/><polygon class="cls-10" points="228.28 241.13 221.1 245.27 225.41 247.75 232.58 243.61 228.28 241.13"/><polygon class="cls-10" points="236.96 236.11 229.79 240.25 234.09 242.74 241.26 238.59 236.96 236.11"/><polygon class="cls-10" points="146.81 294.41 139.64 298.55 143.94 301.03 151.11 296.89 146.81 294.41"/><polygon class="cls-10" points="155.5 289.39 148.33 293.53 152.63 296.02 159.8 291.88 155.5 289.39"/><polygon class="cls-10" points="164.19 284.38 157.01 288.52 161.32 291 168.49 286.86 164.19 284.38"/><polygon class="cls-10" points="172.87 279.36 165.7 283.5 170 285.99 177.17 281.85 172.87 279.36"/><polygon class="cls-10" points="181.56 274.34 174.39 278.49 178.69 280.97 185.86 276.83 181.56 274.34"/><polygon class="cls-10" points="190.25 269.33 183.08 273.47 187.38 275.95 194.55 271.81 190.25 269.33"/><polygon class="cls-10" points="198.94 264.31 191.76 268.45 196.07 270.94 203.24 266.8 198.94 264.31"/><polygon class="cls-10" points="207.62 259.3 200.45 263.44 204.75 265.92 211.92 261.78 207.62 259.3"/><polygon class="cls-10" points="216.31 254.28 209.14 258.42 213.44 260.91 220.61 256.77 216.31 254.28"/><polygon class="cls-10" points="225 249.27 217.83 253.41 222.13 255.89 229.3 251.75 225 249.27"/><polygon class="cls-10" points="233.69 244.25 226.52 248.39 230.82 250.88 237.99 246.74 233.69 244.25"/><polygon class="cls-10" points="242.37 239.23 235.2 243.38 239.51 245.86 246.68 241.72 242.37 239.23"/><polygon class="cls-10" points="152.22 297.53 145.05 301.67 149.35 304.16 156.52 300.02 152.22 297.53"/><polygon class="cls-10" points="160.91 292.52 153.74 296.66 158.04 299.14 165.21 295 160.91 292.52"/><polygon class="cls-10" points="169.6 287.5 162.43 291.64 166.73 294.13 173.9 289.99 169.6 287.5"/><polygon class="cls-10" points="178.29 282.49 171.11 286.63 175.42 289.11 182.59 284.97 178.29 282.49"/><polygon class="cls-10" points="186.97 277.47 179.8 281.61 184.1 284.09 191.27 279.95 186.97 277.47"/><polygon class="cls-10" points="195.66 272.45 188.49 276.59 192.79 279.08 199.96 274.94 195.66 272.45"/><polygon class="cls-10" points="204.35 267.44 197.18 271.58 201.48 274.06 208.65 269.92 204.35 267.44"/><polygon class="cls-10" points="213.04 262.42 205.87 266.56 210.17 269.05 217.34 264.91 213.04 262.42"/><polygon class="cls-10" points="221.72 257.41 214.55 261.55 218.85 264.03 226.02 259.89 221.72 257.41"/><polygon class="cls-10" points="230.41 252.39 223.24 256.53 227.54 259.02 234.71 254.88 230.41 252.39"/><polygon class="cls-10" points="239.1 247.38 231.93 251.52 236.23 254 243.4 249.86 239.1 247.38"/><polygon class="cls-10" points="247.79 242.36 240.62 246.5 244.92 248.98 252.09 244.84 247.79 242.36"/><polygon class="cls-10" points="157.63 300.66 150.46 304.8 154.76 307.28 161.94 303.14 157.63 300.66"/><polygon class="cls-10" points="166.32 295.64 159.15 299.78 163.45 302.27 170.62 298.13 166.32 295.64"/><polygon class="cls-10" points="175.01 290.63 167.84 294.77 172.14 297.25 179.31 293.11 175.01 290.63"/><polygon class="cls-10" points="183.7 285.61 176.53 289.75 180.83 292.24 188 288.1 183.7 285.61"/><polygon class="cls-10" points="192.38 280.59 185.21 284.74 189.52 287.22 196.69 283.08 192.38 280.59"/><polygon class="cls-10" points="201.07 275.58 193.9 279.72 198.2 282.2 205.38 278.06 201.07 275.58"/><polygon class="cls-10" points="209.76 270.56 202.59 274.7 206.89 277.19 214.06 273.05 209.76 270.56"/><polygon class="cls-10" points="218.45 265.55 211.28 269.69 215.58 272.17 222.75 268.03 218.45 265.55"/><polygon class="cls-10" points="227.13 260.53 219.96 264.67 224.26 267.15 231.44 263.02 227.13 260.53"/><polygon class="cls-10" points="235.82 255.52 228.65 259.65 232.95 262.14 240.13 258 235.82 255.52"/><polygon class="cls-10" points="244.51 250.5 237.34 254.64 241.64 257.12 248.81 252.99 244.51 250.5"/><polygon class="cls-10" points="253.2 245.49 246.03 249.62 250.33 252.11 257.5 247.97 253.2 245.49"/><polygon class="cls-10" points="228.39 272.3 200.96 288.13 217.41 297.63 244.84 281.8 228.39 272.3"/><polygon class="cls-6" points="221.36 287.87 212.25 293.13 217.72 296.28 226.83 291.02 221.36 287.87"/><polygon class="cls-6" points="237.26 278.56 228.15 283.82 233.62 286.98 242.72 281.72 237.26 278.56"/><polygon class="cls-11" points="72 184.7 81.97 205.76 170.1 156.43 157.18 135.03 72 184.7"/><polygon class="cls-12" points="221.78 5.86 101.95 75.05 101.95 201.79 104.11 203.19 223.79 7.29 221.78 5.86"/><polygon class="cls-5" points="130.96 93.03 101.95 75.05 101.95 201.79 104.11 203.19 130.96 93.03"/><polygon class="cls-13" points="223.79 12.24 103.95 81.43 103.95 203.28 223.79 134.09 223.79 12.24"/><polygon class="cls-7" points="221.84 22.12 105.9 89.06 105.9 199.7 221.84 132.77 221.84 22.12"/><polygon class="cls-14" points="143.62 114.65 108.19 135.11 108.19 168.03 143.62 147.57 143.62 114.65"/><polygon class="cls-15" points="181.35 92.87 145.92 113.32 145.92 146.24 181.35 125.78 181.35 92.87"/><polygon class="cls-16" points="219.09 71.08 183.65 91.54 183.65 124.46 219.09 104 219.09 71.08"/><polygon class="cls-17" points="143.62 79.42 108.19 99.87 108.19 132.79 143.62 112.34 143.62 79.42"/><polygon class="cls-18" points="181.35 57.63 145.92 78.09 145.92 111.01 181.35 90.55 181.35 57.63"/><polygon class="cls-19" points="219.09 35.85 183.65 56.31 183.65 89.23 219.09 68.77 219.09 35.85"/><polygon class="cls-20" points="103.95 76.47 103.95 98.79 223.79 29.61 223.79 7.29 103.95 76.47"/><polygon class="cls-21" points="212.43 15.61 212.43 25.78 222.5 19.97 222.5 9.79 212.43 15.61"/><path class="cls-22" d="M201.31,68.15c-2.32,1.34-4.2.27-4.2-2.39a9.28,9.28,0,0,1,4.2-7.25c2.32-1.33,4.2-.26,4.2,2.4A9.25,9.25,0,0,1,201.31,68.15Z"/><polygon class="cls-22" points="212.58 46.95 208.17 49.49 208.17 50.83 212.58 48.29 212.58 46.95"/><polygon class="cls-22" points="204.77 50.03 199.51 53.06 197.53 56.82 206.76 51.49 204.77 50.03"/><path class="cls-22" d="M189.54,62.06V78.48l24.79-14.31V47.75Zm3,5.41c-.5.29-.91.06-.91-.52a2,2,0,0,1,.91-1.58c.51-.29.92-.06.92.52A2,2,0,0,1,192.49,67.47Zm8.82,1.73c-2.82,1.64-5.11.33-5.11-2.91a11.27,11.27,0,0,1,5.11-8.82c2.83-1.64,5.12-.33,5.12,2.91A11.26,11.26,0,0,1,201.31,69.2Z"/><path class="cls-22" d="M169.61,103.4l-11.72,6.77a2.55,2.55,0,0,0-1.16,2v23.57c0,.61.43.86,1,.55l11.65-6.73a3.12,3.12,0,0,0,1.42-2.44V104.06C170.77,103.33,170.25,103,169.61,103.4Zm-5.23,28.12-1.26.73V131l1.26-.73Zm5.61-5.29-12.49,7.22V112.32L170,105.1Z"/><path class="cls-22" d="M212.31,88.53c0-4.13-2.92-5.79-6.51-3.72L194.74,91.2a13.13,13.13,0,0,0-6,10.29v.84a190,190,0,0,1,23.54-13.58Z"/><path class="cls-22" d="M212.31,95.5c-9.48,6.12-15.3,9.67-23.54,13.59v1.28c0,1.67,1.18,2.35,2.64,1.51l18-10.39a6.41,6.41,0,0,0,2.92-5Z"/><path class="cls-22" d="M212.75,91.84c0-1.52-.26-2.6-12.43,4.42s-12.42,8.41-12.42,9.92.25,2.61,12.42-4.42S212.75,93.36,212.75,91.84Z"/><path class="cls-22" d="M141.25,135.24l-9.58-6.79h0a30,30,0,0,0-3.36,1.12c-.13.74-1.74,1.92-2.57,2.41-1.54.88-2.48,1-2.56.51-1,.78-2.15,1.7-3.38,2.81h0v0h0l-9.49,17.81,1.65.71,7.84-12.08v12.5l11.91-6.88V134.89l7.91,3Z"/><polygon class="cls-23" points="166.94 88.45 161.52 91.57 160.61 99.44 167.85 95.26 166.94 88.45"/><polygon class="cls-23" points="168.61 93.81 159.85 98.86 159.85 100.22 168.61 95.16 168.61 93.81"/><path class="cls-23" d="M175.72,64.91l-23,13.27A3.63,3.63,0,0,0,151.09,81V98.59c0,1,.74,1.46,1.65.93l23-13.26a3.65,3.65,0,0,0,1.65-2.85V65.85C177.37,64.8,176.63,64.38,175.72,64.91ZM176,83,152.47,96.58V80L176,66.39Z"/><polygon class="cls-22" points="130.5 97.32 118.95 103.99 118.95 121.68 130.5 115.01 130.5 97.32"/><polygon class="cls-22" points="126.53 95.35 122.93 97.43 122.93 101.69 126.53 99.62 126.53 95.35"/><polygon class="cls-22" points="125.18 93.92 124.28 94.44 124.28 98.55 125.18 98.03 125.18 93.92"/><polygon class="cls-22" points="129.75 90.8 122.25 95.13 122.25 96.55 129.75 92.22 129.75 90.8"/><path class="cls-24" d="M119.37,78.87c0-.84-.24-1.5-.66-1.26S118,79.1,118,79.8s0,1.5.61,1.17S119.37,79.68,119.37,78.87Z"/><polygon class="cls-6" points="113.74 187.08 108.67 190 108.67 195.82 113.74 192.89 113.74 187.08"/><polygon class="cls-6" points="121.08 182.84 116.01 185.77 116.01 191.58 121.08 188.66 121.08 182.84"/><polygon class="cls-6" points="128.41 178.6 123.34 181.53 123.34 187.35 128.41 184.42 128.41 178.6"/><polygon class="cls-6" points="135.75 174.37 130.68 177.3 130.68 183.11 135.75 180.19 135.75 174.37"/><polygon class="cls-25" points="221.21 13.62 220.27 13.09 218.21 16.64 216.15 15.46 215.21 17.09 217.27 18.26 215.21 21.82 216.15 22.35 218.21 18.8 220.27 19.97 221.21 18.35 219.15 17.18 221.21 13.62"/><polygon class="cls-26" points="194.72 218.14 184.96 212.42 186.93 248.84 200.43 256.64 194.72 218.14"/><path class="cls-27" d="M190.63,209.61c-8.68,7.59-13.66,10-22.49,13l-4.45,40.29L192.86,246Z"/><polygon class="cls-28" points="188 212.71 184.24 210.54 170.06 218.85 173.82 221.83 188 212.71"/><polygon class="cls-29" points="173.85 220.95 188.07 212.74 188.07 233.73 173.85 241.94 173.85 220.95"/><polygon class="cls-30" points="173.86 220.99 170.1 218.82 170.1 238.94 173.86 241.11 173.86 220.99"/><polygon class="cls-28" points="199.41 207.92 195.83 205.46 181.04 212.61 184.56 215.88 199.41 207.92"/><polygon class="cls-31" points="184.66 215.01 199.48 207.96 197.82 228.87 183 235.93 184.66 215.01"/><polygon class="cls-30" points="184.66 215.05 181.09 212.59 179.49 232.65 183.07 235.11 184.66 215.05"/><path class="cls-5" d="M200.39,215.33c-8.69,7.59-13.66,10-22.49,13L177,270.73l29.17-16.84Z"/><path class="cls-10" d="M177.9,228.31c-3.94,1.28-7.06-1.41-9.76-5.72l-4.54,40.23,13.5,7.79Z"/><polygon class="cls-5" points="249.11 197.28 229.11 187.14 232.52 250.12 246.92 258.43 249.11 197.28"/><path class="cls-5" d="M229.11,187.14c-15,13.13-23.62,17.28-38.88,22.45l-4,66.71L233,250.14Z"/><polygon class="cls-32" points="227.06 218.95 218.53 216.72 217.69 190.43 246.04 184.29 246.24 203.89 227.06 218.95"/><path class="cls-30" d="M218.41,213.13l.12,3.59,8.53,2.23,19.18-15.06-.08-7.84v0A91.53,91.53,0,0,1,218.41,213.13Z"/><polygon class="cls-10" points="225.94 218.87 218.53 216.72 217.69 190.43 222.91 192.32 225.94 218.87"/><polygon class="cls-28" points="217.69 190.43 240.66 181.18 246.17 184.35 223.2 193.61 217.69 190.43"/><polygon class="cls-28" points="206.34 222.75 199.88 219.55 203.17 199.85 226.67 200.4 223.87 215.01 206.34 222.75"/><path class="cls-10" d="M200.33,216.86l-.45,2.69,6.46,3.2L223.87,215l1.12-5.84v0A73.8,73.8,0,0,1,200.33,216.86Z"/><polygon class="cls-10" points="205.47 222.49 199.88 219.55 203.17 199.85 207.04 202.2 205.47 222.49"/><polygon class="cls-32" points="203.17 199.85 222.85 197.11 226.76 200.47 207.08 203.21 203.17 199.85"/><path class="cls-23" d="M249.11,197.28c-15,13.12-26.75,17-42,22.2l-1.49,73.35,50.44-29.12Z"/><g class="cls-33"><path class="cls-10" d="M226.49,244.3a5.48,5.48,0,0,1-3.08-1c-7.19-4.81-6.86-26.32-6.84-27.23l1-.07c0,.21-.34,21.86,6.42,26.38a5.16,5.16,0,0,0,5.25.19c12.42-5.43,7.76-35.92,7.71-36.23l1-.26c.2,1.29,4.84,31.69-8.41,37.48A7.59,7.59,0,0,1,226.49,244.3Z"/></g><path class="cls-34" d="M207.1,219.48l-16.87-9.89-7.85,69.56c10.51,1.77,16.16,5.65,23.34,13.47Z"/><polygon class="cls-35" points="159.1 258.06 133.23 273 171.91 295.33 197.87 280.25 159.1 258.06"/><polygon class="cls-10" points="161.14 256.68 137.5 270.54 166.1 286.71 172.85 286.75 177.1 275.85 161.14 256.68"/><polygon class="cls-30" points="197.87 280.25 171.84 295.28 171.84 312.99 197.87 297.96 197.87 280.25"/><polygon class="cls-10" points="133.41 273.07 133.41 290.77 171.88 312.99 171.88 295.28 133.41 273.07"/><polygon class="cls-34" points="133.41 273.07 150.42 295.16 171.88 295.28 133.41 273.07"/><polygon class="cls-28" points="163.95 252.68 145.49 263.33 173.09 279.27 191.55 268.61 163.95 252.68"/><polygon class="cls-32" points="191.61 268.51 173.04 279.23 173.04 286.81 191.61 276.08 191.61 268.51"/><polygon class="cls-36" points="145.61 263.38 145.61 270.96 173.07 286.81 173.07 279.23 145.61 263.38"/><path class="cls-37" d="M229.9,243.68a6.24,6.24,0,0,1-3.27-.93c-7.85-4.71-9.47-26-9.54-26.9l1.07-.07c0,.21,1.64,21.63,9,26.05a5.55,5.55,0,0,0,5.43.15c12.31-5.48,4.73-35.61,4.65-35.91l1-.27c.33,1.28,7.88,31.32-5.25,37.16A7.8,7.8,0,0,1,229.9,243.68Z"/><path class="cls-10" d="M218.79,216.19a1.14,1.14,0,1,0-1.14,1.14A1.14,1.14,0,0,0,218.79,216.19Z"/><path class="cls-10" d="M238.57,206.2a1.14,1.14,0,1,0-1.14,1.14A1.14,1.14,0,0,0,238.57,206.2Z"/><polygon class="cls-32" points="163.95 252.68 145.49 263.33 148.12 264.86 185.05 264.86 163.95 252.68"/><polygon class="cls-38" points="171.88 312.99 188.76 296.09 197.87 297.96 171.88 312.99"/><polygon class="cls-39" points="160.99 272.29 155.57 269.16 155.57 276.71 160.99 279.85 160.99 272.29"/><polygon class="cls-39" points="179.58 261.71 174.16 258.57 155.63 269.21 161.06 272.34 179.58 261.71"/><polygon class="cls-40" points="168.34 295 157.43 288.7 157.43 293.58 168.34 299.88 168.34 295"/><polygon class="cls-10" points="238.46 45.06 238.46 63.12 251.72 55.46 253.02 38.1 251.72 37.4 238.46 45.06"/><polygon class="cls-10" points="245.09 77.9 246.39 78.6 258.75 49.39 257.45 48.69 232.73 62.97 245.09 77.9"/><polygon class="cls-10" points="262.88 90.53 275.41 62.48 261.32 70.61 261.32 89.8 262.88 90.53"/><polygon class="cls-10" points="268.37 46.78 255.23 77.81 256.79 78.53 264.65 64.58 269.93 47.5 268.37 46.78"/><polygon class="cls-23" points="283.06 63.37 269.93 47.5 256.79 78.53 262.88 75.02 262.88 90.53 276.97 82.39 276.97 66.88 283.06 63.37"/><polygon class="cls-41" points="253.02 52.7 253.02 38.1 239.76 45.76 239.76 60.35 234.02 63.67 246.39 78.6 258.75 49.39 253.02 52.7"/><polygon class="cls-23" points="269.93 47.5 269.85 47.67 269.85 86.5 276.97 82.39 276.97 66.88 283.06 63.37 269.93 47.5"/><path class="cls-11" d="M222.86,132.85V106l-51.27,29.6a14.69,14.69,0,0,0-6.67,11.5v19.21Z"/><path class="cls-5" d="M248.33,100.57c0-4.37-3.09-6.13-6.9-3.93l-59.27,34.22a15.18,15.18,0,0,0-6.89,11.89v25.07c0,4.37,3.08,6.13,6.89,3.94l59.27-34.23a15.17,15.17,0,0,0,6.9-11.89Z"/><path class="cls-23" d="M250.25,101.64c0-4.37-3.08-6.13-6.89-3.93l-59.27,34.22a15.21,15.21,0,0,0-6.9,11.9V168.9c0,4.37,3.09,6.13,6.9,3.93l59.27-34.22a15.2,15.2,0,0,0,6.89-11.9Z"/><path class="cls-23" d="M243.36,97.71l-5.43,3.13-18.85,51.78,24.28-14a15.2,15.2,0,0,0,6.89-11.9V101.64C250.25,97.27,247.17,95.51,243.36,97.71Z"/><path class="cls-23" d="M189.18,169.89,208,118.11l-23.94,13.82a15.21,15.21,0,0,0-6.9,11.9V168.9c0,4.37,3.09,6.13,6.9,3.93Z"/><path class="cls-11" d="M242.65,139l.71-.41a15.47,15.47,0,0,0,6.62-9.54L238.6,130.2Z"/><polygon class="cls-42" points="271.67 136.9 258.57 132.07 255.46 137.43 266.26 146.23 267.93 147.18 268.79 143.06 273.34 137.85 271.67 136.9"/><polygon class="cls-43" points="258.57 132.07 255.46 137.43 266.26 146.23 267.93 147.18 268.79 143.06 258.57 132.07"/><polygon class="cls-42" points="244.33 127.52 253.26 146.96 254.95 147.96 257.61 139.61 267.44 126.34 265.77 125.39 244.33 127.52"/><polygon class="cls-5" points="244.33 127.52 253.26 146.96 254.95 147.96 257.61 139.61 246.47 128.7 244.33 127.52"/><polygon class="cls-44" points="273.34 137.85 260.24 133.03 257.13 138.38 267.93 147.18 273.34 137.85"/><polygon class="cls-44" points="246 128.47 254.93 147.92 267.44 126.34 246 128.47"/><polygon class="cls-45" points="251.7 127.91 246 128.47 254.93 147.92 255.02 147.77 251.7 127.91"/><polygon class="cls-45" points="262.41 126.84 263.47 133.2 267.44 126.34 262.41 126.84"/><polygon class="cls-45" points="263.65 134.28 265.47 145.18 267.93 147.18 273.34 137.85 263.65 134.28"/><path class="cls-46" d="M316.43,151.72l-41.38,21.33c-5.7,3.38-4.52,16.1-1.9,22.94,3.68,9.61,13.37,17.88,20.27,20.34L338,190.61c-5.85-3.88-12.81-7.34-15.9-11.65C308.48,160,316.43,151.72,316.43,151.72Z"/><path class="cls-10" d="M325.63,182.48a18.38,18.38,0,0,1-3.49-3.52c-13.66-19-5.71-27.24-5.71-27.24l-41.38,21.33c-5.7,3.38-4.52,16.1-1.9,22.94a35.77,35.77,0,0,0,8.15,12.09Z"/><path class="cls-47" d="M337.16,188.39,285,213.73c-1.1.64-1,6.12-1,7.39a3.55,3.55,0,0,0,1.78,3.08L368,271.66a10,10,0,0,0,10,0l47.11-27.19a3.07,3.07,0,0,0,1.53-2.66c0-1.09.35-6.56-.6-7.1Z"/><path class="cls-5" d="M373.38,207.26l-36.22-18.87L285,213.73c-1.1.64-1,6.12-1,7.39a3.58,3.58,0,0,0,1.78,3.09L368,271.66a10,10,0,0,0,5.38,1.33Z"/><path class="cls-7" d="M340.9,184.74a7.44,7.44,0,0,0-7.47,0L286,212.14a3.66,3.66,0,0,0,0,6.35L368.32,266a9.35,9.35,0,0,0,9.35,0l47.27-27.29a3.16,3.16,0,0,0,0-5.49Z"/><path class="cls-46" d="M316.33,151.4l-41.18,21.54c4.15-2.17,19.64,6.55,19.64,18.16l40.76-20.48S334.91,148,316.33,151.4Z"/><polygon class="cls-10" points="337.4 188.46 291.37 215.04 373.37 262.52 419.41 235.94 337.4 188.46"/><polygon class="cls-48" points="337.05 189.44 291.97 215.15 372.77 261.92 417.84 236.22 337.05 189.44"/><polygon class="cls-49" points="410.21 248.97 394.48 258.05 394.48 260.26 410.21 251.18 410.21 248.97"/><path class="cls-46" d="M310.36,235.22a2.55,2.55,0,0,0-1.26-1.9l-16-9.25c-.6-.35-1.08-.18-1.08.37v1a1.26,1.26,0,0,0,.63.94L309,235.82c.77.45,1.39.23,1.39-.48Z"/><path class="cls-46" d="M331.8,247.68a2.57,2.57,0,0,0-1.26-1.9l-16.05-9.26c-.59-.34-1.08-.17-1.08.38v1a1.27,1.27,0,0,0,.63,1l16.36,9.44c.77.45,1.4.23,1.4-.48Z"/><polygon class="cls-24" points="330.15 165.01 297.35 182.36 298.08 184.84 330.88 167.48 330.15 165.01"/><polygon class="cls-24" points="326.67 159.68 294.53 176.51 295.68 179.02 327.82 162.2 326.67 159.68"/><path class="cls-10" d="M1.17,289.91c0,18.23,12.88,25.57,28.77,16.4s28.77-31.39,28.77-49.62-12.88-25.58-28.77-16.4S1.17,271.68,1.17,289.91Z"/><path class="cls-23" d="M4,291.52c0,18.23,12.88,25.57,28.77,16.4S61.5,276.53,61.5,258.3s-12.88-25.58-28.77-16.4S4,273.29,4,291.52Z"/><path class="cls-24" d="M17.46,286.1v1l6.14-3.54V288l-11,6.36v-5.94a5.3,5.3,0,0,1,1.31-3.8l4.84-6.28v-.95l-5.37,3.11-.78-1.83v-2.23l9.08-5.24c1.13-.65,1.94-.2,1.94,1.11v4.09a5.16,5.16,0,0,1-1.32,3.81Z"/><path class="cls-24" d="M31.56,265.47v2.23l-2.1,8.1v.94l1.92-1.1v-3.25l4.89-2.82v11.1l-4.89,2.82v-3.38l-6.89,4v-5.47L27.23,268Z"/><path class="cls-24" d="M40.57,259v25.59l-1.5.87V259.86Z"/><path class="cls-24" d="M47.31,260.89l-4.6,2.65V259l9.59-5.54v4.6l-3.77,15.49L44,276.2v-1.43l3.31-13.27Z"/><path class="cls-5" d="M88.32,89.62c0-4.7-3.32-6.59-7.41-4.22L17.2,122.19A16.32,16.32,0,0,0,9.79,135v18.94c0,4.7,3.32,6.59,7.41,4.23l63.71-36.79a16.34,16.34,0,0,0,7.41-12.78Z"/><path class="cls-50" d="M90.43,90.87c0-4.7-3.32-6.59-7.41-4.22L19.31,123.44a16.32,16.32,0,0,0-7.41,12.78v18.94c0,4.7,3.32,6.59,7.41,4.23L83,122.6a16.34,16.34,0,0,0,7.41-12.78Z"/><polygon class="cls-51" points="50.55 105.4 33.98 150.92 66.13 132.36 82.69 86.83 50.55 105.4"/><path class="cls-30" d="M32.46,124.31v2.28l-.78,2.78-4.9,2.83v9.13l5.68-3.28v4.58l-8.67,5c-1.18.68-2,.21-2-1.12V132.75a4.15,4.15,0,0,1,2-3.43Z"/><path class="cls-30" d="M40.8,126.14v-6.65l5-2.87v18.32l-5,2.87v-7.09l-2,1.16V139l-5,2.87V123.52l5-2.87v6.65Z"/><path class="cls-30" d="M49.6,132.73c-1.18.68-2,.22-2-1.12V117.85a4.17,4.17,0,0,1,2-3.44l8-4.59c1.19-.69,2-.22,2,1.11V124.7a4.14,4.14,0,0,1-2,3.43Zm3-15.44v9.13l2-1.14v-9.13Z"/><path class="cls-30" d="M60.94,114v-3.85a4.15,4.15,0,0,1,2-3.43l8.67-5V104l-.78,2.81-4.9,2.83v.84l4.33.82c1.1.2,1.35.87,1.35,2.34v4.16a4.15,4.15,0,0,1-2,3.42l-8.69,5v-4.58l5.67-3.28v-1.21l-4.33-.79C61.19,116.1,60.94,115.46,60.94,114Z"/><path class="cls-30" d="M73,119.23V100.91l10.67-6.16V97l-.8,2.79L78,102.65v2l4.9-2.83v4.58L78,109.27v2.51l5.7-3.29v4.58Z"/><path class="cls-23" d="M33.32,124.79v2.28l-.77,2.78-4.9,2.83v9.13l5.67-3.28v4.58l-8.66,5c-1.19.68-2,.21-2-1.12V133.23a4.14,4.14,0,0,1,2-3.43Z"/><path class="cls-23" d="M41.67,126.62V120l5-2.87v18.32l-5,2.87V131.2l-2,1.16v7.09l-5,2.87V124l5-2.87v6.65Z"/><path class="cls-23" d="M50.47,133.21c-1.19.69-2,.22-2-1.12V118.33a4.16,4.16,0,0,1,2-3.44l8-4.59c1.18-.69,2-.22,2,1.11v13.77a4.18,4.18,0,0,1-2,3.44Zm3-15.44v9.14l2-1.15v-9.13Z"/><path class="cls-23" d="M61.8,114.47v-3.85a4.14,4.14,0,0,1,2-3.43l8.66-5v2.25l-.77,2.8-4.9,2.83v.84l4.33.82c1.09.2,1.34.87,1.34,2.34v4.16a4.15,4.15,0,0,1-2,3.42l-8.69,5v-4.58l5.68-3.28V117.6l-4.33-.79C62.05,116.58,61.8,115.94,61.8,114.47Z"/><path class="cls-23" d="M73.84,119.71V101.4l10.67-6.17v2.28l-.79,2.79-4.91,2.83v2l4.91-2.83v4.58l-4.91,2.83v2.51l5.7-3.29v4.58Z"/><path class="cls-5" d="M90.33,138.09c0-5-3.5-7-7.82-4.46L15.36,172.41a17.19,17.19,0,0,0-7.81,13.47V200.6c0,5,3.49,6.94,7.81,4.45l67.15-38.77c4.32-2.49,7.82-8.52,7.82-13.48Z"/><path class="cls-52" d="M92.56,139.37c0-5-3.5-6.94-7.81-4.45L17.59,173.69a17.21,17.21,0,0,0-7.81,13.48v14.71c0,5,3.49,7,7.81,4.46l67.16-38.78c4.31-2.49,7.81-8.52,7.81-13.47Z"/><polygon class="cls-53" points="38.98 161.34 23.93 202.67 57.82 183.11 72.86 141.78 38.98 161.34"/><path class="cls-30" d="M19.89,196.53v-13l7.05-4.07c.83-.48,1.41-.14,1.41.8V190a2.93,2.93,0,0,1-1.41,2.42Zm3.52-5.27,1.42-.82V184l-1.42.82Z"/><path class="cls-30" d="M29.64,190.9v-13l7.55-4.35v1.61l-.57,2-3.47,2v1.45l3.47-2v3.24l-3.47,2v1.77l4-2.33v3.24Z"/><path class="cls-30" d="M38.15,173l3.52-2v9.72l3.55-2.05v3.24L38.15,186Z"/><path class="cls-30" d="M46,181.44v-13l3.51-2v13Z"/><path class="cls-30" d="M50.35,167v-1l3.52-2,.72,9.3L55,173l.72-10.14,3.52-2v1.06l-1.79,12.94-5.31,3.06Z"/><path class="cls-30" d="M60,173.35v-13L67.59,156v1.61l-.56,2-3.47,2v1.44l3.47-2v3.24l-3.47,2v1.78l4-2.33V169Z"/><path class="cls-30" d="M75.63,151.39c.82-.47,1.4-.14,1.4.8v5.09a3.1,3.1,0,0,1-.93,2l1.11,2.55v1.61l-3.45,2-1-3.49-.71.41v4l-3.54,2v-13Zm-3.53,5.3v2.42l1.4-.81v-2.42Z"/><path class="cls-30" d="M77.69,151.81V150.2l3.54-2,.85,4.54.26-.15.87-5.54,3.52-2v1.61L84,156v3.53l-3.52,2V158Z"/><path class="cls-23" d="M20.6,197V184.08l7-4.07c.83-.48,1.41-.15,1.41.8v9.73A2.91,2.91,0,0,1,27.65,193Zm3.52-5.27,1.42-.82v-6.46l-1.42.82Z"/><path class="cls-23" d="M30.35,191.41v-13l7.55-4.36v1.61l-.57,2-3.47,2v1.44l3.47-2v3.24l-3.47,2v1.78l4-2.33v3.24Z"/><path class="cls-23" d="M38.86,173.53l3.52-2v9.72l3.55-2.05v3.24l-7.07,4.08Z"/><path class="cls-23" d="M46.74,182V169l3.51-2v13Z"/><path class="cls-23" d="M51.06,167.55v-1.06l3.52-2,.72,9.3.4-.23.73-10.14,3.52-2v1.06l-1.79,12.93-5.31,3.07Z"/><path class="cls-23" d="M60.75,173.85v-13l7.55-4.35v1.61l-.56,2-3.47,2v1.45l3.47-2v3.24l-3.47,2v1.77l4-2.33v3.24Z"/><path class="cls-23" d="M76.34,151.9c.82-.48,1.4-.15,1.4.8v5.09a3.1,3.1,0,0,1-.93,2l1.11,2.54v1.61l-3.45,2-1-3.49-.71.41v4l-3.53,2V156Zm-3.54,5.3v2.42l1.41-.81v-2.42Z"/><path class="cls-23" d="M78.4,152.32v-1.61l3.54-2,.85,4.54.26-.15.87-5.54,3.52-2v1.61l-2.76,9.4V160l-3.52,2v-3.53Z"/></g></g></svg>