<svg xmlns="http://www.w3.org/2000/svg" xmlns:xlink="http://www.w3.org/1999/xlink" viewBox="0 0 427.35 333.08"><defs><style>.cls-1{fill:url(#linear-gradient);}.cls-2{fill:url(#linear-gradient-2);}.cls-3{fill:url(#linear-gradient-3);}.cls-4{fill:url(#linear-gradient-4);}.cls-5{fill:url(#linear-gradient-5);}.cls-6{fill:url(#linear-gradient-6);}.cls-7{fill:url(#linear-gradient-7);}.cls-8{isolation:isolate;}.cls-9{opacity:0.07;fill:url(#Безымянный_градиент_2);}.cls-10{fill:url(#linear-gradient-8);}.cls-11{fill:url(#linear-gradient-9);}.cls-12{fill:url(#linear-gradient-10);}.cls-13{fill:url(#linear-gradient-11);}.cls-14{fill:#c8dbe9;}.cls-15{fill:url(#linear-gradient-12);}.cls-16{fill:url(#linear-gradient-13);}.cls-17{fill:url(#linear-gradient-14);}.cls-18{fill:url(#linear-gradient-16);}.cls-19{fill:url(#linear-gradient-17);}.cls-20{fill:url(#linear-gradient-18);}.cls-21{fill:url(#linear-gradient-19);}.cls-22{fill:url(#linear-gradient-20);}.cls-23{fill:#13426f;}.cls-24{fill:url(#linear-gradient-21);}.cls-25{fill:url(#linear-gradient-22);}.cls-26{fill:url(#linear-gradient-24);}.cls-27{fill:url(#linear-gradient-25);}.cls-28{fill:url(#linear-gradient-26);}.cls-29{fill:url(#linear-gradient-27);}.cls-30{fill:url(#linear-gradient-28);}.cls-31{fill:url(#linear-gradient-29);}.cls-32{fill:url(#linear-gradient-30);}.cls-33{fill:url(#linear-gradient-31);}.cls-34{fill:url(#linear-gradient-32);}.cls-35{fill:url(#Безымянный_градиент_18);}.cls-36{fill:url(#linear-gradient-33);}.cls-37{fill:url(#linear-gradient-34);}.cls-38,.cls-46,.cls-94{opacity:0.5;}.cls-38,.cls-45,.cls-46,.cls-94{mix-blend-mode:multiply;}.cls-39{fill:url(#linear-gradient-35);}.cls-40{fill:url(#linear-gradient-36);}.cls-41{fill:url(#linear-gradient-37);}.cls-42{fill:url(#linear-gradient-38);}.cls-43,.cls-45,.cls-46{fill:url(#Безымянный_градиент_7);}.cls-44{fill:url(#Безымянный_градиент_9);}.cls-47{fill:url(#Безымянный_градиент_7-4);}.cls-48{fill:url(#linear-gradient-39);}.cls-49{fill:url(#linear-gradient-40);}.cls-50{fill:url(#Безымянный_градиент_7-5);}.cls-51{fill:url(#linear-gradient-41);}.cls-52{fill:url(#linear-gradient-42);}.cls-53{fill:url(#Безымянный_градиент_7-6);}.cls-54{fill:url(#linear-gradient-43);}.cls-55{fill:url(#linear-gradient-44);}.cls-56{fill:url(#linear-gradient-45);}.cls-57{fill:url(#linear-gradient-46);}.cls-58{fill:#b9529f;}.cls-59{fill:url(#Безымянный_градиент_22);}.cls-60{fill:url(#linear-gradient-47);}.cls-61{fill:url(#linear-gradient-48);}.cls-62{fill:url(#Безымянный_градиент_22-2);}.cls-63{fill:#77d0ea;}.cls-64{fill:url(#linear-gradient-49);}.cls-65{fill:url(#linear-gradient-50);}.cls-66,.cls-94{fill:#6fb5e4;}.cls-67{fill:url(#linear-gradient-51);}.cls-68{fill:url(#linear-gradient-52);}.cls-69{fill:url(#linear-gradient-53);}.cls-70{fill:url(#linear-gradient-54);}.cls-71{fill:url(#linear-gradient-55);}.cls-72{fill:url(#linear-gradient-56);}.cls-73{fill:url(#linear-gradient-58);}.cls-74{fill:url(#linear-gradient-59);}.cls-75{fill:url(#linear-gradient-60);}.cls-76{fill:url(#linear-gradient-62);}.cls-77{fill:url(#linear-gradient-63);}.cls-78{fill:url(#linear-gradient-64);}.cls-79{fill:url(#linear-gradient-65);}.cls-80{fill:url(#linear-gradient-67);}.cls-81{fill:url(#linear-gradient-68);}.cls-82{fill:url(#linear-gradient-69);}.cls-83{fill:url(#linear-gradient-70);}.cls-84{fill:url(#linear-gradient-72);}.cls-85{fill:url(#linear-gradient-73);}.cls-86{fill:url(#linear-gradient-74);}.cls-87{fill:url(#linear-gradient-75);}.cls-88{fill:url(#linear-gradient-77);}.cls-89{fill:url(#linear-gradient-78);}.cls-90{fill:url(#linear-gradient-79);}.cls-91{fill:url(#linear-gradient-80);}.cls-92{fill:url(#linear-gradient-81);}.cls-93{fill:url(#linear-gradient-84);}.cls-95{clip-path:url(#clip-path);}.cls-96{clip-path:url(#clip-path-2);}.cls-97{fill:url(#linear-gradient-89);}.cls-98{fill:url(#linear-gradient-90);}.cls-99{clip-path:url(#clip-path-3);}.cls-100{fill:url(#linear-gradient-95);}.cls-101{fill:url(#linear-gradient-97);}.cls-102{fill:url(#linear-gradient-98);}.cls-103{clip-path:url(#clip-path-4);}.cls-104{fill:url(#linear-gradient-101);}.cls-105{clip-path:url(#clip-path-5);}.cls-106{clip-path:url(#clip-path-6);}.cls-107{clip-path:url(#clip-path-7);}.cls-108{fill:url(#linear-gradient-110);}.cls-109{fill:url(#linear-gradient-112);}.cls-110{fill:url(#linear-gradient-113);}</style><linearGradient id="linear-gradient" x1="230.7" y1="292.68" x2="197.78" y2="260.65" gradientUnits="userSpaceOnUse"><stop offset="0" stop-color="#0562a0"/><stop offset="1" stop-color="#3087c8"/></linearGradient><linearGradient id="linear-gradient-2" x1="214.52" y1="309.31" x2="181.6" y2="277.28" xlink:href="#linear-gradient"/><linearGradient id="linear-gradient-3" x1="214.83" y1="308.99" x2="181.91" y2="276.96" xlink:href="#linear-gradient"/><linearGradient id="linear-gradient-4" x1="228.88" y1="294.55" x2="195.97" y2="262.52" xlink:href="#linear-gradient"/><linearGradient id="linear-gradient-5" x1="221.57" y1="302.06" x2="188.65" y2="270.03" xlink:href="#linear-gradient"/><linearGradient id="linear-gradient-6" x1="221.54" y1="302.09" x2="188.62" y2="270.07" xlink:href="#linear-gradient"/><linearGradient id="linear-gradient-7" x1="216.36" y1="307.42" x2="183.44" y2="275.39" xlink:href="#linear-gradient"/><linearGradient id="Безымянный_градиент_2" x1="4.27" y1="209.25" x2="423.45" y2="209.25" gradientTransform="translate(1.14 -1.16) rotate(0.31)" gradientUnits="userSpaceOnUse"><stop offset="0" stop-color="#22a2da"/><stop offset="0.18" stop-color="#29a5d9"/><stop offset="0.44" stop-color="#3cafd8"/><stop offset="0.74" stop-color="#5bbed6"/><stop offset="1" stop-color="#7bced3"/></linearGradient><linearGradient id="linear-gradient-8" x1="99.05" y1="104.97" x2="191.13" y2="165.47" xlink:href="#linear-gradient"/><linearGradient id="linear-gradient-9" x1="87.48" y1="122.57" x2="179.56" y2="183.07" xlink:href="#linear-gradient"/><linearGradient id="linear-gradient-10" x1="82.72" y1="129.82" x2="174.8" y2="190.31" xlink:href="#linear-gradient"/><linearGradient id="linear-gradient-11" x1="99.96" y1="103.59" x2="192.04" y2="164.08" xlink:href="#linear-gradient"/><linearGradient id="linear-gradient-12" x1="99.95" y1="103.6" x2="192.03" y2="164.1" xlink:href="#linear-gradient"/><linearGradient id="linear-gradient-13" x1="95.2" y1="110.83" x2="187.28" y2="171.32" xlink:href="#linear-gradient"/><linearGradient id="linear-gradient-14" x1="103.88" y1="97.62" x2="195.96" y2="158.12" xlink:href="#linear-gradient"/><linearGradient id="linear-gradient-16" x1="75.71" y1="140.49" x2="167.79" y2="200.99" xlink:href="#linear-gradient"/><linearGradient id="linear-gradient-17" x1="81.86" y1="131.12" x2="173.95" y2="191.62" xlink:href="#linear-gradient"/><linearGradient id="linear-gradient-18" x1="82.3" y1="130.46" x2="174.38" y2="190.96" xlink:href="#linear-gradient"/><linearGradient id="linear-gradient-19" x1="87.72" y1="122.22" x2="179.8" y2="182.71" xlink:href="#linear-gradient"/><linearGradient id="linear-gradient-20" x1="91.47" y1="116.5" x2="183.55" y2="177" xlink:href="#linear-gradient"/><linearGradient id="linear-gradient-21" x1="256.61" y1="163.43" x2="271.02" y2="139" xlink:href="#linear-gradient"/><linearGradient id="linear-gradient-22" x1="259.29" y1="165.01" x2="273.7" y2="140.58" xlink:href="#linear-gradient"/><linearGradient id="linear-gradient-24" x1="260.75" y1="165.87" x2="275.16" y2="141.44" xlink:href="#linear-gradient"/><linearGradient id="linear-gradient-25" x1="203.85" y1="129.45" x2="221.73" y2="129.45" xlink:href="#linear-gradient"/><linearGradient id="linear-gradient-26" x1="203.94" y1="130.72" x2="221.73" y2="130.72" xlink:href="#linear-gradient"/><linearGradient id="linear-gradient-27" x1="203.67" y1="128.6" x2="221.81" y2="128.6" xlink:href="#linear-gradient"/><linearGradient id="linear-gradient-28" x1="203.85" y1="131.14" x2="221.71" y2="131.14" xlink:href="#linear-gradient"/><linearGradient id="linear-gradient-29" x1="219.31" y1="123.42" x2="219.97" y2="88.72" xlink:href="#linear-gradient"/><linearGradient id="linear-gradient-30" x1="217.18" y1="123.38" x2="217.85" y2="88.68" xlink:href="#linear-gradient"/><linearGradient id="linear-gradient-31" x1="214.48" y1="123.32" x2="215.15" y2="88.63" xlink:href="#linear-gradient"/><linearGradient id="linear-gradient-32" x1="206.58" y1="123.17" x2="207.25" y2="88.47" xlink:href="#linear-gradient"/><linearGradient id="Безымянный_градиент_18" x1="255.34" y1="231.6" x2="329.63" y2="183.06" gradientUnits="userSpaceOnUse"><stop offset="0.03" stop-color="#ccc4e1"/><stop offset="0.16" stop-color="#d6d0e7"/><stop offset="0.48" stop-color="#edeaf4"/><stop offset="0.77" stop-color="#faf9fc"/><stop offset="1" stop-color="#fff"/></linearGradient><linearGradient id="linear-gradient-33" x1="293.66" y1="230.39" x2="304.34" y2="198.14" xlink:href="#linear-gradient"/><linearGradient id="linear-gradient-34" x1="300.13" y1="226.18" x2="314.58" y2="165.23" xlink:href="#linear-gradient"/><linearGradient id="linear-gradient-35" x1="293.67" y1="230.4" x2="304.34" y2="198.13" xlink:href="#linear-gradient"/><linearGradient id="linear-gradient-36" x1="284.98" y1="166.32" x2="260.79" y2="143.97" xlink:href="#linear-gradient"/><linearGradient id="linear-gradient-37" x1="282.3" y1="169.22" x2="258.11" y2="146.86" xlink:href="#linear-gradient"/><linearGradient id="linear-gradient-38" x1="280.39" y1="171.29" x2="256.2" y2="148.94" xlink:href="#linear-gradient"/><linearGradient id="Безымянный_градиент_7" x1="245.91" y1="292.63" x2="292.84" y2="263.71" gradientUnits="userSpaceOnUse"><stop offset="0.08" stop-color="#c357a1"/><stop offset="0.96" stop-color="#6cb5e4"/></linearGradient><linearGradient id="Безымянный_градиент_9" x1="246" y1="301.88" x2="297.38" y2="239.82" gradientUnits="userSpaceOnUse"><stop offset="0.08" stop-color="#c357a1"/><stop offset="0.95" stop-color="#6cb5e4"/></linearGradient><linearGradient id="Безымянный_градиент_7-4" x1="246.74" y1="293.98" x2="293.67" y2="265.06" xlink:href="#Безымянный_градиент_7"/><linearGradient id="linear-gradient-39" x1="244.39" y1="300.55" x2="295.77" y2="238.49" xlink:href="#linear-gradient"/><linearGradient id="linear-gradient-40" x1="246.74" y1="293.98" x2="293.67" y2="265.06" xlink:href="#linear-gradient"/><linearGradient id="Безымянный_градиент_7-5" x1="250.17" y1="299.55" x2="297.1" y2="270.63" xlink:href="#Безымянный_градиент_7"/><linearGradient id="linear-gradient-41" x1="248.51" y1="303.95" x2="299.89" y2="241.9" xlink:href="#linear-gradient"/><linearGradient id="linear-gradient-42" x1="250.17" y1="299.55" x2="297.1" y2="270.63" xlink:href="#linear-gradient"/><linearGradient id="Безымянный_градиент_7-6" x1="252.28" y1="302.97" x2="299.21" y2="274.06" xlink:href="#Безымянный_градиент_7"/><linearGradient id="linear-gradient-43" x1="249.72" y1="304.95" x2="301.09" y2="242.9" xlink:href="#linear-gradient"/><linearGradient id="linear-gradient-44" x1="252.28" y1="302.97" x2="299.21" y2="274.06" xlink:href="#linear-gradient"/><linearGradient id="linear-gradient-45" x1="113.96" y1="258.12" x2="133.64" y2="224.76" xlink:href="#linear-gradient"/><linearGradient id="linear-gradient-46" x1="119.62" y1="261.46" x2="139.3" y2="228.09" xlink:href="#linear-gradient"/><linearGradient id="Безымянный_градиент_22" x1="300.47" y1="147.38" x2="324.94" y2="91.92" gradientUnits="userSpaceOnUse"><stop offset="0.09" stop-color="#c357a1"/><stop offset="0.96" stop-color="#6cb5e4"/></linearGradient><linearGradient id="linear-gradient-47" x1="277.27" y1="82.17" x2="278.63" y2="82.17" xlink:href="#linear-gradient"/><linearGradient id="linear-gradient-48" x1="306.66" y1="131.3" x2="322.8" y2="94.77" xlink:href="#linear-gradient"/><linearGradient id="Безымянный_градиент_22-2" x1="349.75" y1="148.59" x2="350.14" y2="127.66" xlink:href="#Безымянный_градиент_22"/><linearGradient id="linear-gradient-49" x1="267.8" y1="55.38" x2="246.86" y2="91.64" xlink:href="#linear-gradient"/><linearGradient id="linear-gradient-50" x1="266.75" y1="54.77" x2="247.91" y2="87.4" xlink:href="#linear-gradient"/><linearGradient id="linear-gradient-51" x1="271.4" y1="56" x2="251.94" y2="89.72" xlink:href="#linear-gradient"/><linearGradient id="linear-gradient-52" x1="254.88" y1="47.05" x2="293.46" y2="71.12" xlink:href="#linear-gradient"/><linearGradient id="linear-gradient-53" x1="257.55" y1="49.47" x2="236.62" y2="85.72" xlink:href="#linear-gradient"/><linearGradient id="linear-gradient-54" x1="247.09" y1="46.44" x2="247.06" y2="90.71" xlink:href="#linear-gradient"/><linearGradient id="linear-gradient-55" x1="261.16" y1="50.09" x2="241.69" y2="83.81" xlink:href="#linear-gradient"/><linearGradient id="linear-gradient-56" x1="244.45" y1="41.24" x2="284.56" y2="63.61" xlink:href="#linear-gradient"/><linearGradient id="linear-gradient-58" x1="247.31" y1="43.55" x2="226.38" y2="79.81" xlink:href="#linear-gradient"/><linearGradient id="linear-gradient-59" x1="236.84" y1="39.3" x2="236.89" y2="84.22" xlink:href="#linear-gradient"/><linearGradient id="linear-gradient-60" x1="250.92" y1="44.18" x2="231.45" y2="77.9" xlink:href="#linear-gradient"/><linearGradient id="linear-gradient-62" x1="234.26" y1="35.29" x2="268.67" y2="55.11" xlink:href="#linear-gradient"/><linearGradient id="linear-gradient-63" x1="226.83" y1="31.72" x2="205.89" y2="67.98" xlink:href="#linear-gradient"/><linearGradient id="linear-gradient-64" x1="216.27" y1="26.72" x2="216.52" y2="72.16" xlink:href="#linear-gradient"/><linearGradient id="linear-gradient-65" x1="230.43" y1="32.35" x2="210.97" y2="66.07" xlink:href="#linear-gradient"/><linearGradient id="linear-gradient-67" x1="214.18" y1="23.28" x2="247.23" y2="47.12" xlink:href="#linear-gradient"/><linearGradient id="linear-gradient-68" x1="216.58" y1="25.81" x2="195.65" y2="62.07" xlink:href="#linear-gradient"/><linearGradient id="linear-gradient-69" x1="206.27" y1="22.51" x2="205.49" y2="65.81" xlink:href="#linear-gradient"/><linearGradient id="linear-gradient-70" x1="220.19" y1="26.44" x2="200.72" y2="60.16" xlink:href="#linear-gradient"/><linearGradient id="linear-gradient-72" x1="203.75" y1="17.44" x2="242.94" y2="43.05" xlink:href="#linear-gradient"/><linearGradient id="linear-gradient-73" x1="237.07" y1="37.64" x2="216.14" y2="73.9" xlink:href="#linear-gradient"/><linearGradient id="linear-gradient-74" x1="226.64" y1="32.49" x2="226.51" y2="78.44" xlink:href="#linear-gradient"/><linearGradient id="linear-gradient-75" x1="240.68" y1="38.26" x2="221.21" y2="71.98" xlink:href="#linear-gradient"/><linearGradient id="linear-gradient-77" x1="223.96" y1="29.41" x2="266.2" y2="52.9" xlink:href="#linear-gradient"/><linearGradient id="linear-gradient-78" x1="206.34" y1="19.9" x2="185.41" y2="56.16" xlink:href="#linear-gradient"/><linearGradient id="linear-gradient-79" x1="195.92" y1="15.09" x2="195.37" y2="59.97" xlink:href="#linear-gradient"/><linearGradient id="linear-gradient-80" x1="209.95" y1="20.52" x2="190.48" y2="54.24" xlink:href="#linear-gradient"/><linearGradient id="linear-gradient-81" x1="193.48" y1="11.54" x2="239.26" y2="40.96" xlink:href="#linear-gradient"/><linearGradient id="linear-gradient-84" x1="189.13" y1="31.62" x2="190.49" y2="31.62" xlink:href="#linear-gradient"/><clipPath id="clip-path"><path class="cls-5" d="M197.72,276.73V281c-.05-.07-.15-.11-.22-.17-.71-.6-1.48-1.2-2.11-1.83-.25-.25-.23-.6-.33-.91v-4.29c.1.31.08.66.33.91.64.63,1.4,1.23,2.11,1.83C197.57,276.62,197.67,276.66,197.72,276.73Z"/></clipPath><clipPath id="clip-path-2"><path class="cls-6" d="M197.76,276.85v4.29a.16.16,0,0,0,0-.12v-4.29A.16.16,0,0,1,197.76,276.85Z"/></clipPath><linearGradient id="linear-gradient-89" x1="236.08" y1="287.15" x2="203.16" y2="255.12" xlink:href="#linear-gradient"/><linearGradient id="linear-gradient-90" x1="226.37" y1="297.13" x2="193.45" y2="265.1" xlink:href="#linear-gradient"/><clipPath id="clip-path-3"><path class="cls-7" d="M191.07,281.45v4.29c0-.52,0-1,0-1.54,0,0,0-.05,0-.07l0-4.29v.07C191.06,280.42,191.07,280.93,191.07,281.45Z"/></clipPath><linearGradient id="linear-gradient-95" x1="225.88" y1="297.64" x2="192.96" y2="265.61" xlink:href="#linear-gradient"/><linearGradient id="linear-gradient-97" x1="227.1" y1="296.38" x2="194.18" y2="264.35" xlink:href="#linear-gradient"/><linearGradient id="linear-gradient-98" x1="233.42" y1="289.88" x2="200.5" y2="257.85" xlink:href="#linear-gradient"/><clipPath id="clip-path-4"><path class="cls-1" d="M225.17,285.12v0Z"/></clipPath><linearGradient id="linear-gradient-101" x1="216.47" y1="307.3" x2="183.55" y2="275.27" xlink:href="#linear-gradient"/><clipPath id="clip-path-5"><path class="cls-2" d="M195,292.33l0-4.29a.5.5,0,0,0,.17.35v4.29A.52.52,0,0,1,195,292.33Z"/></clipPath><clipPath id="clip-path-6"><path class="cls-3" d="M198.75,290.47l0,4.29-3.6-2.08v-4.29Z"/></clipPath><clipPath id="clip-path-7"><path class="cls-4" d="M227.73,288.39v4.29L224,294.84v-4.29Z"/></clipPath><linearGradient id="linear-gradient-110" x1="228.88" y1="294.55" x2="195.97" y2="262.52" xlink:href="#linear-gradient"/><linearGradient id="linear-gradient-112" x1="227.08" y1="296.4" x2="194.16" y2="264.37" xlink:href="#linear-gradient"/><linearGradient id="linear-gradient-113" x1="221.32" y1="302.32" x2="188.4" y2="270.29" xlink:href="#linear-gradient"/></defs><title>Rising Sales from Social Commerce</title><g class="cls-8"><g id="Layer_1" data-name="Layer 1"><ellipse class="cls-9" cx="213.86" cy="209.25" rx="209.59" ry="121" transform="matrix(1, -0.01, 0.01, 1, -1.13, 1.16)"/><polygon class="cls-10" points="129.61 119.72 129.61 152.23 133.88 133.18 133.88 100.67 129.61 119.72"/><polygon class="cls-11" points="129.61 119.72 129.61 152.23 101.08 162.04 101.08 129.53 129.61 119.72"/><path class="cls-12" d="M96.86,119h0c-.34,3.56,1,7.21,4.17,10.55h0V162c-3.07-3.22-4.41-6.74-4.19-10.19l0-.06Z"/><path class="cls-13" d="M129.61,119.72l-28.53,9.81c-8.77-9.21-3.47-20.81,12.22-26.2a54.56,54.56,0,0,1,20.58-2.66Z"/><path class="cls-14" d="M96.86,119h0c-.34,3.56,1,7.21,4.17,10.55h0V162c-3.07-3.22-4.41-6.74-4.19-10.19l0-.06Z"/><polygon class="cls-14" points="129.61 119.72 129.61 152.23 133.88 133.18 133.88 100.67 129.61 119.72"/><polygon class="cls-14" points="129.61 119.72 129.61 152.23 101.08 162.04 101.08 129.53 129.61 119.72"/><path class="cls-15" d="M164.76,131v21.31a7.12,7.12,0,0,1,0,.8v.08h0a12.71,12.71,0,0,1-2.26,6.6V138A12.7,12.7,0,0,0,164.76,131Z"/><polygon class="cls-16" points="162.5 159.84 132.22 152.23 132.22 130.35 162.5 137.96 162.5 159.84"/><path class="cls-17" d="M132.22,130.35l4.23-18.85c9.42,1,18.12,4.19,23.44,9.3,5.62,5.41,6.23,11.73,2.6,17.16Z"/><polygon class="cls-14" points="162.5 159.84 132.22 152.23 132.22 130.35 162.5 137.96 162.5 159.84"/><path class="cls-15" d="M164.76,131v21.31a7.12,7.12,0,0,1,0,.8v.08h0a12.71,12.71,0,0,1-2.26,6.6V138A12.7,12.7,0,0,0,164.76,131Z"/><path class="cls-18" d="M121.46,171.49c-7.58-1.28-14.42-4.07-19-8.16h0v-6.55c4.62,4.09,11.46,6.89,19,8.17Z"/><polygon class="cls-19" points="121.46 164.95 128.9 147.67 128.9 154.22 121.46 171.49 121.46 164.95 121.46 164.95"/><path class="cls-20" d="M121.46,165c-7.58-1.28-14.42-4.08-19-8.17l26.48-9.11Z"/><polygon class="cls-14" points="121.46 164.95 128.9 147.67 128.9 154.22 121.46 171.49 121.46 164.95 121.46 164.95"/><path class="cls-14" d="M121.46,171.49c-7.58-1.28-14.42-4.07-19-8.16h0v-6.55c4.62,4.09,11.46,6.89,19,8.17Z"/><path class="cls-21" d="M148.32,153.18c5.94-2,10.39-5,13.15-8.33v16.36c-2.76,3.35-7.21,6.29-13.15,8.33A55.47,55.47,0,0,1,124,171.86V155.5A55.47,55.47,0,0,0,148.32,153.18Z"/><path class="cls-22" d="M161.47,144.85c-2.76,3.36-7.21,6.29-13.15,8.33A55.47,55.47,0,0,1,124,155.5l7.8-18.11Z"/><path class="cls-14" d="M148.32,153.18c5.94-2,10.39-5,13.15-8.33v16.36c-2.76,3.35-7.21,6.29-13.15,8.33A55.47,55.47,0,0,1,124,171.86V155.5A55.47,55.47,0,0,0,148.32,153.18Z"/><path class="cls-14" d="M302.1,220l-7.92-.94-97.62-56.36a6.39,6.39,0,0,0-5.76.23l-26.49,15.29-13.05,7.54-23.35,13.48-4.54-.54,0,4a1.42,1.42,0,0,0,0,.58h0a1.89,1.89,0,0,0,1,1.12l104.55,60.36a6.39,6.39,0,0,0,5.76-.23l39.53-22.83h0L300.7,226.4a2.61,2.61,0,0,0,1.36-1.59h0Z"/><path class="cls-14" d="M303.44,132,198.9,71.61a1.66,1.66,0,0,0-1.87-.07h0l-3.89,2.18,3.08,4.11V104.2h0v45.65A6.41,6.41,0,0,0,198.9,155l97.28,56.17,5,6.61,3.85-2.19h0c.68-.25,1.13-1.05,1.13-2.25V137.07A6.41,6.41,0,0,0,303.44,132Z"/><path class="cls-23" d="M299.42,134.23,194.88,73.87c-1.48-.85-2.68,0-2.68,2v30.58h0v45.65a6.4,6.4,0,0,0,2.68,5.11l104.54,60.36c1.48.85,2.68-.05,2.68-2V139.33A6.39,6.39,0,0,0,299.42,134.23Z"/><path class="cls-23" d="M297.88,213.5,196.46,155a3.43,3.43,0,0,1-1.57-2.69c0-10.42,0-63,0-73.42,0-1,.7-1.38,1.57-.88l101.42,58.56a3.47,3.47,0,0,1,1.57,2.7v73.39C299.45,213.6,298.74,214,297.88,213.5Z"/><path class="cls-14" d="M294.56,186.94l-63-36.38a2.12,2.12,0,0,1-1-1.67c0-6.47,0-39.17,0-45.61,0-.62.44-.86,1-.55l63,36.38a2.16,2.16,0,0,1,1,1.68v45.59C295.53,187,295.09,187.25,294.56,186.94Z"/><polygon class="cls-24" points="233.29 148.26 233.57 120.27 245.38 112.8 260.9 133.55 271.94 132.66 284.9 149.63 293.54 147.57 293.54 183.05 233.29 148.26"/><polygon class="cls-25" points="233.32 148.29 233.53 132.59 245.36 121.1 260.89 144.12 273.91 141 284 157.46 293.54 155.94 293.54 183.05 233.32 148.29"/><polygon class="cls-25" points="233.32 148.29 233.53 132.59 245.36 121.1 260.89 144.12 273.91 141 284 157.46 293.54 155.94 293.54 183.05 233.32 148.29"/><polygon class="cls-26" points="293.54 183.05 233.26 148.25 233.59 139.16 245.34 150.85 256.01 146.29 264.52 161.72 276.57 150.74 293.54 180.94 293.54 183.05"/><polygon class="cls-14" points="293.54 184.06 232.99 149.1 232.99 106.36 233.87 106.87 233.87 148.6 293.54 183.05 293.54 184.06"/><polygon class="cls-14" points="293.54 184.06 232.99 149.1 232.99 106.36 233.87 106.87 233.87 148.6 293.54 183.05 293.54 184.06"/><path class="cls-14" d="M292.86,197.25c-1-4.65-1.68-7.54-3.38-8.52s-2.41,1.09-3.38,4.61c-.62,2.24-1.47,5.31-2.67,4.62s-2-2.27-2.69-3.9-1.6-3.57-3.36-4.58-2.57-.14-3.36.7-1.41,1.53-2.68.79-2-3.82-2.67-6.33c-.85-3.27-1.57-6.09-3.38-7.14s-2.53.95-3.38,3.24c-.64,1.76-1.45,3.95-2.67,3.25s-2-5.52-2.66-9.05c-1-5.49-1.64-8.9-3.38-9.91s-2.42,1.63-3.39,6c-.62,2.82-1.46,6.67-2.66,6s-2.05-4.74-2.67-7.69c-1-4.65-1.68-7.54-3.38-8.52s-2.41,1.09-3.38,4.61c-.62,2.24-1.46,5.31-2.67,4.62s-2-2.27-2.69-3.9-1.6-3.57-3.35-4.58-2.57-.14-3.36.7-1.42,1.53-2.69.79-2-3.82-2.67-6.33c-.84-3.27-1.57-6.09-3.38-7.14s-2.53,1-3.37,3.24c-.65,1.76-1.46,3.95-2.67,3.25s-2.05-5.52-2.67-9.05c-1-5.49-1.64-8.9-3.38-9.91s-2.42,1.63-3.38,6c-.62,2.82-1.47,6.67-2.67,6v2.71l48.38,27.93,48.38,27.93v-2.71C294.32,204.25,293.48,200.2,292.86,197.25Z"/><path class="cls-14" d="M226.11,147.43l-26.44-15.26a2.18,2.18,0,0,1-.9-1.72V85c0-.66.41-1,.9-.68l26.44,15.27a2.16,2.16,0,0,1,.9,1.72v45.42C227,147.42,226.61,147.72,226.11,147.43Z"/><polygon class="cls-27" points="221.23 136.22 215.54 126.28 211.03 123.67 206.71 126.11 203.85 124.45 203.85 123.64 206.41 125.12 210.74 122.69 215.84 125.63 221.74 135.94 221.23 136.22"/><polygon class="cls-28" points="209.14 134.22 203.94 131.22 203.94 130.4 208.84 133.23 211.84 131.46 212.8 132.01 221.23 127.23 221.73 128.1 213.09 133 212.14 132.44 209.14 134.22"/><polygon class="cls-29" points="204.17 132.48 203.67 131.62 212.62 126.64 215.36 128.22 221.3 124.71 221.81 125.57 215.65 129.21 212.91 127.63 204.17 132.48"/><polygon class="cls-30" points="208.86 132.47 203.85 129.58 203.85 128.76 208.56 131.49 212.01 129.52 217.21 132.52 221.2 130.18 221.71 131.04 217.5 133.51 212.3 130.5 208.86 132.47"/><path class="cls-31" d="M224.73,113.91a23.67,23.67,0,0,0-3-10.18l-7.33,4.17Z"/><path class="cls-32" d="M213.46,108.6l-3.59,10.24a19.44,19.44,0,0,0,3.2,2.35c6.27,3.62,11.38.9,11.66-6.06Z"/><path class="cls-33" d="M220.94,102.44a23.54,23.54,0,0,0-7.87-8,11.58,11.58,0,0,0-4-1.51l4.23,13.93Z"/><path class="cls-34" d="M212.5,107.49,208,92.79c-3.93-.12-6.64,2.92-6.64,8.26,0,5.7,3.1,12.35,7.47,16.82Z"/><path class="cls-23" d="M196.56,158.19,301.1,218.55c1.48.85,1.3,2.34-.4,3.33l-26.49,15.29h0L234.68,260a6.39,6.39,0,0,1-5.76.24L124.37,199.87c-1.48-.86-1.3-2.35.41-3.33l26.48-15.29,13.05-7.53,26.49-15.29A6.39,6.39,0,0,1,196.56,158.19Z"/><path class="cls-23" d="M204.27,171,201,169.09c-.65-.38-.59-1,.13-1.43l2.74-1.58a2.75,2.75,0,0,1,2.48-.08l3.24,1.87c.65.38.59,1-.13,1.43l-2.74,1.59A2.76,2.76,0,0,1,204.27,171Z"/><path class="cls-23" d="M196.89,166.7,190.42,163c-.64-.38-.59-1,.13-1.43l2.74-1.58a2.75,2.75,0,0,1,2.48-.08l6.46,3.73c.65.38.59,1-.13,1.43l-2.74,1.58A2.73,2.73,0,0,1,196.89,166.7Z"/><path class="cls-23" d="M211.65,175.22l-3.25-1.87c-.65-.38-.59-1,.13-1.43l2.74-1.58a2.75,2.75,0,0,1,2.48-.08l3.24,1.88c.65.37.59,1-.13,1.43l-2.74,1.58A2.76,2.76,0,0,1,211.65,175.22Z"/><path class="cls-23" d="M219,179.48l-3.25-1.87c-.65-.38-.59-1,.13-1.43l2.74-1.58a2.75,2.75,0,0,1,2.48-.08l3.24,1.88c.65.37.59,1-.13,1.43l-2.74,1.58A2.73,2.73,0,0,1,219,179.48Z"/><path class="cls-23" d="M226.41,183.74l-3.25-1.87c-.65-.38-.59-1,.13-1.43l2.74-1.58a2.75,2.75,0,0,1,2.48-.08l3.24,1.88c.65.37.59,1-.13,1.43l-2.74,1.58A2.73,2.73,0,0,1,226.41,183.74Z"/><path class="cls-23" d="M233.79,188l-3.25-1.87c-.65-.37-.59-1,.13-1.43l2.74-1.58a2.75,2.75,0,0,1,2.48-.08l3.24,1.88c.65.37.59,1-.13,1.43l-2.74,1.58A2.73,2.73,0,0,1,233.79,188Z"/><path class="cls-23" d="M241.17,192.26l-3.25-1.87c-.65-.37-.59-1,.13-1.43l2.74-1.58a2.72,2.72,0,0,1,2.48-.07l3.24,1.87c.65.37.59,1-.13,1.43l-2.73,1.58A2.72,2.72,0,0,1,241.17,192.26Z"/><path class="cls-23" d="M248.55,196.53l-3.25-1.88c-.65-.37-.59-1,.13-1.43l2.74-1.58a2.75,2.75,0,0,1,2.48-.07l3.24,1.87c.65.37.59,1-.13,1.43L251,196.45A2.75,2.75,0,0,1,248.55,196.53Z"/><path class="cls-23" d="M255.93,200.79l-3.25-1.88c-.65-.37-.59-1,.13-1.43l2.74-1.58a2.75,2.75,0,0,1,2.48-.07l3.24,1.87c.65.38.59,1-.13,1.43l-2.73,1.58A2.75,2.75,0,0,1,255.93,200.79Z"/><path class="cls-23" d="M263.31,205.05l-3.25-1.88c-.64-.37-.59-1,.13-1.43l2.74-1.58a2.75,2.75,0,0,1,2.48-.07l3.24,1.87c.65.38.59,1-.13,1.43L265.79,205A2.75,2.75,0,0,1,263.31,205.05Z"/><path class="cls-23" d="M270.69,209.31l-3.25-1.88c-.64-.37-.59-1,.13-1.43l2.74-1.58a2.75,2.75,0,0,1,2.48-.07l3.24,1.87c.65.38.59,1-.13,1.43l-2.73,1.58A2.75,2.75,0,0,1,270.69,209.31Z"/><path class="cls-23" d="M278.07,213.57l-3.25-1.87c-.64-.38-.59-1,.13-1.43l2.74-1.59a2.78,2.78,0,0,1,2.48-.07l3.24,1.87c.65.38.59,1-.13,1.43l-2.73,1.58A2.75,2.75,0,0,1,278.07,213.57Z"/><path class="cls-23" d="M285.45,217.83,282.2,216c-.64-.38-.59-1,.13-1.43l2.74-1.58a2.75,2.75,0,0,1,2.48-.08l3.24,1.87c.65.38.59,1-.13,1.43l-2.73,1.59A2.78,2.78,0,0,1,285.45,217.83Z"/><path class="cls-23" d="M292.83,222.09l-3.25-1.87c-.64-.38-.59-1,.13-1.43l2.74-1.58a2.75,2.75,0,0,1,2.48-.08l3.24,1.88c.65.37.59,1-.13,1.43L295.31,222A2.75,2.75,0,0,1,292.83,222.09Z"/><path class="cls-23" d="M271.92,218.18l3.24,1.87a2.75,2.75,0,0,0,2.48-.07l2.74-1.58c.72-.42.78-1.06.13-1.43l-3.25-1.88a2.73,2.73,0,0,0-2.47.08l-2.74,1.58C271.33,217.16,271.27,217.8,271.92,218.18Z"/><path class="cls-23" d="M279.3,222.44l6.46,3.73a2.75,2.75,0,0,0,2.48-.07l2.74-1.58c.72-.42.77-1.06.13-1.43l-6.47-3.74a2.73,2.73,0,0,0-2.47.08L279.43,221C278.71,221.43,278.65,222.07,279.3,222.44Z"/><path class="cls-23" d="M264.54,213.92l3.24,1.87a2.75,2.75,0,0,0,2.48-.07l2.74-1.58c.72-.42.78-1.06.13-1.43l-3.25-1.88a2.75,2.75,0,0,0-2.48.08l-2.73,1.58C264,212.9,263.89,213.54,264.54,213.92Z"/><path class="cls-23" d="M257.16,209.66l3.24,1.87a2.75,2.75,0,0,0,2.48-.07l2.74-1.58c.72-.42.78-1.06.13-1.43l-3.25-1.88a2.75,2.75,0,0,0-2.48.08l-2.73,1.58C256.57,208.64,256.51,209.28,257.16,209.66Z"/><path class="cls-23" d="M249.78,205.4l3.24,1.87a2.78,2.78,0,0,0,2.48-.07l2.74-1.59c.72-.41.78-1.05.13-1.43l-3.25-1.87a2.75,2.75,0,0,0-2.48.08L249.91,204C249.19,204.38,249.13,205,249.78,205.4Z"/><path class="cls-23" d="M242.4,201.14l3.24,1.87a2.75,2.75,0,0,0,2.48-.08l2.74-1.58c.72-.41.77-1,.13-1.43l-3.25-1.87a2.78,2.78,0,0,0-2.48.07l-2.73,1.59C241.81,200.12,241.75,200.76,242.4,201.14Z"/><path class="cls-23" d="M235,196.87l3.24,1.88a2.75,2.75,0,0,0,2.48-.08l2.74-1.58c.72-.41.77-1.05.13-1.43l-3.25-1.87a2.75,2.75,0,0,0-2.48.07l-2.73,1.58C234.43,195.86,234.37,196.5,235,196.87Z"/><path class="cls-23" d="M227.64,192.61l3.24,1.88a2.75,2.75,0,0,0,2.48-.08l2.74-1.58c.72-.41.77-1.05.13-1.43L233,189.53a2.75,2.75,0,0,0-2.48.07l-2.73,1.58C227.05,191.6,227,192.24,227.64,192.61Z"/><path class="cls-23" d="M220.26,188.35l3.24,1.88a2.75,2.75,0,0,0,2.48-.08l2.74-1.58c.72-.41.77-1.06.13-1.43l-3.25-1.87a2.75,2.75,0,0,0-2.48.07l-2.73,1.58C219.67,187.34,219.61,188,220.26,188.35Z"/><path class="cls-23" d="M212.88,184.09l3.24,1.88a2.75,2.75,0,0,0,2.48-.08l2.74-1.58c.72-.42.77-1.06.13-1.43L218.22,181a2.75,2.75,0,0,0-2.48.07L213,182.66C212.29,183.08,212.23,183.72,212.88,184.09Z"/><path class="cls-23" d="M205.5,179.83l3.24,1.87a2.72,2.72,0,0,0,2.48-.07l2.74-1.58c.72-.42.77-1.06.13-1.43l-3.25-1.87a2.72,2.72,0,0,0-2.48.07l-2.73,1.58C204.91,178.82,204.85,179.46,205.5,179.83Z"/><path class="cls-23" d="M198.12,175.57l3.24,1.87a2.75,2.75,0,0,0,2.48-.07l2.74-1.58c.72-.42.77-1.06.13-1.43l-3.25-1.88a2.75,2.75,0,0,0-2.48.08l-2.73,1.58C197.53,174.56,197.47,175.2,198.12,175.57Z"/><path class="cls-23" d="M190.74,171.31l3.24,1.87a2.75,2.75,0,0,0,2.48-.07l2.74-1.58c.72-.42.77-1.06.13-1.43l-3.25-1.88a2.75,2.75,0,0,0-2.48.08l-2.73,1.58C190.15,170.29,190.09,170.93,190.74,171.31Z"/><path class="cls-23" d="M183.36,167.05l3.24,1.87a2.75,2.75,0,0,0,2.48-.07l2.74-1.58c.72-.42.77-1.06.13-1.43L188.7,164a2.75,2.75,0,0,0-2.48.08l-2.73,1.58C182.77,166,182.71,166.67,183.36,167.05Z"/><path class="cls-23" d="M190.13,179.12l-3.24-1.87c-.65-.38-.59-1,.13-1.43l2.73-1.58a2.75,2.75,0,0,1,2.48-.08l3.25,1.88c.64.37.59,1-.13,1.43l-2.74,1.58A2.75,2.75,0,0,1,190.13,179.12Z"/><path class="cls-23" d="M182.75,174.86l-6.46-3.73c-.65-.38-.59-1,.13-1.43l2.74-1.58a2.73,2.73,0,0,1,2.47-.08l6.47,3.73c.64.38.59,1-.13,1.43l-2.74,1.59A2.78,2.78,0,0,1,182.75,174.86Z"/><path class="cls-23" d="M197.51,183.38l-3.24-1.87c-.65-.38-.59-1,.13-1.43l2.73-1.58a2.75,2.75,0,0,1,2.48-.08l3.25,1.88c.64.37.59,1-.13,1.43L200,183.31A2.75,2.75,0,0,1,197.51,183.38Z"/><path class="cls-23" d="M204.89,187.64l-3.24-1.87c-.65-.38-.59-1,.13-1.43l2.73-1.58a2.75,2.75,0,0,1,2.48-.08l3.25,1.88c.64.37.59,1-.13,1.43l-2.74,1.58A2.75,2.75,0,0,1,204.89,187.64Z"/><path class="cls-23" d="M212.27,191.9,209,190c-.65-.37-.59-1,.13-1.43l2.73-1.58a2.75,2.75,0,0,1,2.48-.08l3.25,1.88c.64.37.59,1-.13,1.43l-2.74,1.58A2.75,2.75,0,0,1,212.27,191.9Z"/><path class="cls-23" d="M219.65,196.16l-3.24-1.87c-.65-.37-.59-1,.13-1.43l2.73-1.58a2.72,2.72,0,0,1,2.48-.07l3.25,1.87c.64.37.59,1-.13,1.43l-2.74,1.58A2.72,2.72,0,0,1,219.65,196.16Z"/><path class="cls-23" d="M227,200.43l-3.24-1.88c-.65-.37-.59-1,.13-1.43l2.73-1.58a2.75,2.75,0,0,1,2.48-.07l3.25,1.87c.64.37.59,1-.13,1.43l-2.74,1.58A2.75,2.75,0,0,1,227,200.43Z"/><path class="cls-23" d="M234.41,204.69l-3.24-1.88c-.65-.37-.59-1,.13-1.43L234,199.8a2.75,2.75,0,0,1,2.48-.07l3.25,1.87c.64.38.59,1-.13,1.43l-2.74,1.58A2.75,2.75,0,0,1,234.41,204.69Z"/><path class="cls-23" d="M241.79,209l-3.24-1.88c-.65-.37-.59-1,.13-1.43l2.73-1.58a2.75,2.75,0,0,1,2.48-.07l3.25,1.87c.65.38.59,1-.13,1.43l-2.74,1.58A2.75,2.75,0,0,1,241.79,209Z"/><path class="cls-23" d="M249.17,213.21l-3.24-1.88c-.65-.37-.59-1,.13-1.43l2.73-1.58a2.78,2.78,0,0,1,2.48-.07l3.25,1.87c.65.38.59,1-.13,1.43l-2.74,1.58A2.75,2.75,0,0,1,249.17,213.21Z"/><path class="cls-23" d="M256.55,217.47l-3.24-1.87c-.65-.38-.59-1,.13-1.43l2.73-1.58a2.75,2.75,0,0,1,2.48-.08l3.25,1.87c.65.38.59,1-.13,1.43L259,217.39A2.75,2.75,0,0,1,256.55,217.47Z"/><path class="cls-23" d="M263.93,221.73l-3.24-1.87c-.65-.38-.59-1,.13-1.43l2.74-1.58a2.73,2.73,0,0,1,2.47-.08l3.25,1.88c.65.37.59,1-.13,1.43l-2.74,1.58A2.78,2.78,0,0,1,263.93,221.73Z"/><path class="cls-23" d="M271.31,226l-3.24-1.87c-.65-.38-.59-1,.13-1.43l2.74-1.58a2.73,2.73,0,0,1,2.47-.08l3.25,1.88c.65.37.59,1-.13,1.43l-2.74,1.58A2.75,2.75,0,0,1,271.31,226Z"/><path class="cls-23" d="M284.61,227.49,280.22,225a1.29,1.29,0,0,0-1.18,0l-4.19,2.42c-.32.18-.3.49,0,.68l1.05.6-6.49,3.75c-.32.19-.31.49,0,.69l2.73,1.57a1.35,1.35,0,0,0,1.19,0l7.07-4.08.56-.33,3.62-2.09C285,228,284.94,227.69,284.61,227.49Z"/><path class="cls-23" d="M177.34,179.89l-8.12-4.68c-.65-.38-.59-1,.13-1.43l2.74-1.58a2.73,2.73,0,0,1,2.47-.08l8.12,4.69c.65.37.59,1-.13,1.43l-2.74,1.58A2.7,2.7,0,0,1,177.34,179.89Z"/><path class="cls-23" d="M184.72,184.16l-3.25-1.88c-.65-.37-.59-1,.13-1.43l2.74-1.58a2.73,2.73,0,0,1,2.47-.07l3.25,1.87c.65.37.59,1-.13,1.43l-2.74,1.58A2.73,2.73,0,0,1,184.72,184.16Z"/><path class="cls-23" d="M192.1,188.42l-3.25-1.88c-.65-.37-.59-1,.13-1.43l2.74-1.58a2.73,2.73,0,0,1,2.47-.07l3.25,1.87c.65.38.59,1-.13,1.43l-2.74,1.58A2.73,2.73,0,0,1,192.1,188.42Z"/><path class="cls-23" d="M199.48,192.68l-3.25-1.88c-.65-.37-.59-1,.13-1.43l2.74-1.58a2.73,2.73,0,0,1,2.47-.07l3.25,1.87c.65.38.59,1-.13,1.43L202,192.6A2.73,2.73,0,0,1,199.48,192.68Z"/><path class="cls-23" d="M206.86,196.94l-3.25-1.88c-.65-.37-.59-1,.13-1.43l2.74-1.58A2.73,2.73,0,0,1,209,192l3.25,1.87c.65.38.59,1-.13,1.43l-2.74,1.58A2.73,2.73,0,0,1,206.86,196.94Z"/><path class="cls-23" d="M214.24,201.2,211,199.33c-.65-.38-.59-1,.13-1.43l2.74-1.59a2.76,2.76,0,0,1,2.47-.07l3.25,1.87c.65.38.59,1-.13,1.43l-2.74,1.58A2.73,2.73,0,0,1,214.24,201.2Z"/><path class="cls-23" d="M221.62,205.46l-3.25-1.87c-.65-.38-.59-1,.13-1.43l2.74-1.58a2.73,2.73,0,0,1,2.47-.08l3.25,1.87c.65.38.59,1-.13,1.43l-2.74,1.59A2.76,2.76,0,0,1,221.62,205.46Z"/><path class="cls-23" d="M229,209.72l-3.25-1.87c-.65-.38-.59-1,.13-1.43l2.74-1.58a2.75,2.75,0,0,1,2.48-.08l3.24,1.88c.65.37.59,1-.13,1.43l-2.74,1.58A2.73,2.73,0,0,1,229,209.72Z"/><path class="cls-23" d="M236.38,214l-3.25-1.87c-.65-.38-.59-1,.13-1.43L236,209.1a2.75,2.75,0,0,1,2.48-.08l3.24,1.88c.65.37.59,1-.13,1.43l-2.74,1.58A2.73,2.73,0,0,1,236.38,214Z"/><path class="cls-23" d="M243.76,218.24l-3.25-1.87c-.65-.38-.59-1,.13-1.43l2.74-1.58a2.75,2.75,0,0,1,2.48-.08l3.24,1.88c.65.37.59,1-.13,1.43l-2.74,1.58A2.73,2.73,0,0,1,243.76,218.24Z"/><path class="cls-23" d="M251.14,222.5l-3.25-1.87c-.65-.37-.59-1,.13-1.43l2.74-1.58a2.75,2.75,0,0,1,2.48-.08l3.24,1.88c.65.37.59,1-.13,1.43l-2.74,1.58A2.73,2.73,0,0,1,251.14,222.5Z"/><path class="cls-23" d="M258.52,226.76l-3.25-1.87c-.65-.37-.59-1,.13-1.43l2.74-1.58a2.72,2.72,0,0,1,2.48-.07l3.24,1.87c.65.37.59,1-.13,1.43L261,226.69A2.7,2.7,0,0,1,258.52,226.76Z"/><path class="cls-23" d="M265.9,231l-3.25-1.88c-.65-.37-.59-1,.13-1.43l2.74-1.58a2.75,2.75,0,0,1,2.48-.07l3.24,1.87c.65.37.59,1-.13,1.43L268.37,231A2.73,2.73,0,0,1,265.9,231Z"/><path class="cls-23" d="M252.47,231.43l12,6.94a2.81,2.81,0,0,0,2.54,0l2.74-1.58c.72-.42.75-1.08.06-1.47l-12-6.94a2.8,2.8,0,0,0-2.55,0L252.52,230C251.8,230.38,251.78,231,252.47,231.43Z"/><path class="cls-23" d="M245,227.13l3.25,1.87a2.75,2.75,0,0,0,2.48-.07l2.73-1.58c.72-.42.78-1.06.13-1.43L250.36,224a2.75,2.75,0,0,0-2.48.08l-2.74,1.58C244.42,226.12,244.37,226.76,245,227.13Z"/><path class="cls-23" d="M237.63,222.87l3.25,1.87a2.75,2.75,0,0,0,2.48-.07l2.73-1.58c.72-.42.78-1.06.13-1.43L243,219.78a2.75,2.75,0,0,0-2.48.08l-2.74,1.58C237,221.85,237,222.49,237.63,222.87Z"/><path class="cls-23" d="M230.25,218.61l3.25,1.87a2.75,2.75,0,0,0,2.48-.07l2.73-1.58c.72-.42.78-1.06.13-1.43l-3.24-1.88a2.75,2.75,0,0,0-2.48.08l-2.74,1.58C229.66,217.59,229.61,218.23,230.25,218.61Z"/><path class="cls-23" d="M222.87,214.35l3.25,1.87a2.75,2.75,0,0,0,2.48-.07l2.73-1.58c.72-.42.78-1.06.13-1.43l-3.24-1.88a2.75,2.75,0,0,0-2.48.08L223,212.92C222.28,213.33,222.23,214,222.87,214.35Z"/><path class="cls-23" d="M215.49,210.09l3.25,1.87a2.78,2.78,0,0,0,2.48-.07L224,210.3c.72-.41.78-1.05.13-1.43L220.84,207a2.75,2.75,0,0,0-2.48.08l-2.74,1.58C214.9,209.07,214.85,209.71,215.49,210.09Z"/><path class="cls-23" d="M208.11,205.83l3.25,1.87a2.75,2.75,0,0,0,2.48-.08l2.73-1.58c.72-.41.78-1,.13-1.43l-3.24-1.87a2.78,2.78,0,0,0-2.48.07l-2.74,1.59C207.52,204.81,207.46,205.45,208.11,205.83Z"/><path class="cls-23" d="M200.73,201.56l3.25,1.88a2.75,2.75,0,0,0,2.48-.08l2.73-1.58c.72-.41.78-1.05.13-1.43l-3.24-1.87a2.75,2.75,0,0,0-2.48.07l-2.74,1.58C200.14,200.55,200.08,201.19,200.73,201.56Z"/><path class="cls-23" d="M193.35,197.3l3.25,1.88a2.73,2.73,0,0,0,2.47-.08l2.74-1.58c.72-.41.78-1.05.13-1.43l-3.24-1.87a2.75,2.75,0,0,0-2.48.07l-2.74,1.58C192.76,196.29,192.7,196.93,193.35,197.3Z"/><path class="cls-23" d="M186,193l3.25,1.88a2.73,2.73,0,0,0,2.47-.08l2.74-1.58c.72-.41.78-1,.13-1.43L191.32,190a2.75,2.75,0,0,0-2.48.07l-2.74,1.58C185.38,192,185.32,192.67,186,193Z"/><path class="cls-23" d="M178.59,188.78l3.25,1.88a2.73,2.73,0,0,0,2.47-.08l2.74-1.58c.72-.42.78-1.06.13-1.43l-3.24-1.87a2.75,2.75,0,0,0-2.48.07l-2.74,1.58C178,187.77,177.94,188.41,178.59,188.78Z"/><path class="cls-23" d="M171.21,184.52l3.25,1.87a2.7,2.7,0,0,0,2.47-.07l2.74-1.58c.72-.42.78-1.06.13-1.43l-3.24-1.87a2.72,2.72,0,0,0-2.48.07l-2.74,1.58C170.62,183.51,170.56,184.15,171.21,184.52Z"/><path class="cls-23" d="M162.15,179.29l4.93,2.84a2.73,2.73,0,0,0,2.47-.07l2.74-1.58c.72-.42.78-1.06.13-1.43l-4.92-2.85a2.75,2.75,0,0,0-2.48.08l-2.74,1.58C161.56,178.28,161.5,178.92,162.15,179.29Z"/><path class="cls-23" d="M158.33,185.24l-3.25-1.87c-.64-.37-.59-1,.13-1.43l2.74-1.58a2.75,2.75,0,0,1,2.48-.08l3.24,1.88c.65.37.59,1-.13,1.43l-2.73,1.58A2.75,2.75,0,0,1,158.33,185.24Z"/><path class="cls-23" d="M165.71,189.51l-3.25-1.88c-.64-.37-.59-1,.13-1.43l2.74-1.58a2.75,2.75,0,0,1,2.48-.07l3.24,1.87c.65.37.59,1-.13,1.43l-2.73,1.58A2.75,2.75,0,0,1,165.71,189.51Z"/><path class="cls-23" d="M173.09,193.77l-3.25-1.88c-.64-.37-.59-1,.13-1.43l2.74-1.58a2.75,2.75,0,0,1,2.48-.07l3.24,1.87c.65.37.59,1-.13,1.43l-2.73,1.58A2.75,2.75,0,0,1,173.09,193.77Z"/><path class="cls-23" d="M182.15,199l-4.93-2.85c-.64-.37-.59-1,.13-1.43l2.74-1.58a2.75,2.75,0,0,1,2.48-.07l4.92,2.84c.65.38.59,1-.13,1.43l-2.73,1.58A2.75,2.75,0,0,1,182.15,199Z"/><path class="cls-23" d="M254.24,240.62l3.25,1.87a2.72,2.72,0,0,0,2.48-.07l2.73-1.58c.72-.42.78-1.06.13-1.43l-3.24-1.87a2.72,2.72,0,0,0-2.48.07l-2.74,1.58C253.65,239.61,253.6,240.25,254.24,240.62Z"/><path class="cls-23" d="M246.86,236.36l3.25,1.87a2.75,2.75,0,0,0,2.48-.07l2.73-1.58c.72-.42.78-1.06.13-1.43l-3.24-1.88a2.75,2.75,0,0,0-2.48.08L247,234.93C246.27,235.35,246.22,236,246.86,236.36Z"/><path class="cls-23" d="M239.48,232.1l3.25,1.87a2.75,2.75,0,0,0,2.48-.07l2.73-1.58c.72-.42.78-1.06.13-1.43L244.83,229a2.75,2.75,0,0,0-2.48.08l-2.74,1.58C238.89,231.08,238.84,231.72,239.48,232.1Z"/><path class="cls-23" d="M232.1,227.84l3.25,1.87a2.75,2.75,0,0,0,2.48-.07l2.73-1.58c.72-.42.78-1.06.13-1.43l-3.24-1.88a2.75,2.75,0,0,0-2.48.08l-2.74,1.58C231.51,226.82,231.46,227.46,232.1,227.84Z"/><path class="cls-23" d="M223,222.61l4.93,2.84a2.78,2.78,0,0,0,2.48-.07l2.73-1.59c.72-.41.78-1,.13-1.42l-4.92-2.85a2.75,2.75,0,0,0-2.48.08l-2.74,1.58C222.45,221.59,222.4,222.23,223,222.61Z"/><path class="cls-23" d="M186.41,201.46l32.51,18.77a2.92,2.92,0,0,0,2.61,0l2.74-1.58a.8.8,0,0,0,0-1.51l-32.51-18.77a2.92,2.92,0,0,0-2.61,0L186.41,200A.8.8,0,0,0,186.41,201.46Z"/><path class="cls-23" d="M180.63,224.47l16.77,9.69-3.4,2a3.45,3.45,0,0,1-3.13,0l-15.2-8.78Z"/><path class="cls-23" d="M163.85,213l18-10.38a3.45,3.45,0,0,1,3.13,0l32,18.46c.87.5.87,1.31,0,1.8l-18,10.39Z"/><path class="cls-23" d="M179.06,223.57l-5,2.86-15.21-8.78c-.86-.5-.87-1.3,0-1.8l3.41-2Z"/><path class="cls-14" d="M204.27,170.05,201,168.18c-.65-.37-.59-1,.13-1.43l2.74-1.58a2.72,2.72,0,0,1,2.48-.07l3.24,1.87c.65.37.59,1-.13,1.43L206.74,170A2.7,2.7,0,0,1,204.27,170.05Z"/><path class="cls-14" d="M196.89,165.79l-6.47-3.73c-.64-.37-.59-1,.13-1.43l2.74-1.58a2.75,2.75,0,0,1,2.48-.07l6.46,3.73c.65.37.59,1-.13,1.43l-2.74,1.58A2.73,2.73,0,0,1,196.89,165.79Z"/><path class="cls-14" d="M211.65,174.32l-3.25-1.88c-.65-.37-.59-1,.13-1.43l2.74-1.58a2.75,2.75,0,0,1,2.48-.07l3.24,1.87c.65.37.59,1-.13,1.43l-2.74,1.58A2.73,2.73,0,0,1,211.65,174.32Z"/><path class="cls-14" d="M219,178.58l-3.25-1.88c-.65-.37-.59-1,.13-1.43l2.74-1.58a2.75,2.75,0,0,1,2.48-.07l3.24,1.87c.65.38.59,1-.13,1.43l-2.74,1.58A2.73,2.73,0,0,1,219,178.58Z"/><path class="cls-14" d="M226.41,182.84,223.16,181c-.65-.37-.59-1,.13-1.43L226,178a2.75,2.75,0,0,1,2.48-.07l3.24,1.87c.65.38.59,1-.13,1.43l-2.74,1.58A2.73,2.73,0,0,1,226.41,182.84Z"/><path class="cls-14" d="M233.79,187.1l-3.25-1.88c-.65-.37-.59-1,.13-1.43l2.74-1.58a2.75,2.75,0,0,1,2.48-.07l3.24,1.87c.65.38.59,1-.13,1.43L236.26,187A2.73,2.73,0,0,1,233.79,187.1Z"/><path class="cls-14" d="M241.17,191.36l-3.25-1.87c-.65-.38-.59-1,.13-1.43l2.74-1.59a2.78,2.78,0,0,1,2.48-.07l3.24,1.87c.65.38.59,1-.13,1.43l-2.73,1.58A2.75,2.75,0,0,1,241.17,191.36Z"/><path class="cls-14" d="M248.55,195.62l-3.25-1.87c-.65-.38-.59-1,.13-1.43l2.74-1.58a2.75,2.75,0,0,1,2.48-.08l3.24,1.87c.65.38.59,1-.13,1.43L251,195.55A2.78,2.78,0,0,1,248.55,195.62Z"/><path class="cls-14" d="M255.93,199.88,252.68,198c-.65-.38-.59-1,.13-1.43l2.74-1.58a2.75,2.75,0,0,1,2.48-.08l3.24,1.88c.65.37.59,1-.13,1.43l-2.73,1.58A2.75,2.75,0,0,1,255.93,199.88Z"/><path class="cls-14" d="M263.31,204.14l-3.25-1.87c-.64-.38-.59-1,.13-1.43l2.74-1.58a2.75,2.75,0,0,1,2.48-.08l3.24,1.88c.65.37.59,1-.13,1.43l-2.73,1.58A2.75,2.75,0,0,1,263.31,204.14Z"/><path class="cls-14" d="M270.69,208.4l-3.25-1.87c-.64-.38-.59-1,.13-1.43l2.74-1.58a2.75,2.75,0,0,1,2.48-.08l3.24,1.88c.65.37.59,1-.13,1.43l-2.73,1.58A2.75,2.75,0,0,1,270.69,208.4Z"/><path class="cls-14" d="M278.07,212.66l-3.25-1.87c-.64-.37-.59-1,.13-1.43l2.74-1.58a2.75,2.75,0,0,1,2.48-.08l3.24,1.88c.65.37.59,1-.13,1.43l-2.73,1.58A2.75,2.75,0,0,1,278.07,212.66Z"/><path class="cls-14" d="M285.45,216.93l-3.25-1.88c-.64-.37-.59-1,.13-1.43l2.74-1.58a2.72,2.72,0,0,1,2.48-.07l3.24,1.87c.65.37.59,1-.13,1.43l-2.73,1.58A2.75,2.75,0,0,1,285.45,216.93Z"/><path class="cls-14" d="M292.83,221.19l-3.25-1.88c-.64-.37-.59-1,.13-1.43l2.74-1.58a2.75,2.75,0,0,1,2.48-.07l3.24,1.87c.65.37.59,1-.13,1.43l-2.73,1.58A2.75,2.75,0,0,1,292.83,221.19Z"/><path class="cls-14" d="M271.92,217.27l3.24,1.88a2.75,2.75,0,0,0,2.48-.08l2.74-1.58c.72-.41.78-1.05.13-1.43l-3.25-1.87a2.73,2.73,0,0,0-2.47.07l-2.74,1.58C271.33,216.26,271.27,216.9,271.92,217.27Z"/><path class="cls-14" d="M279.3,221.53l6.46,3.74a2.75,2.75,0,0,0,2.48-.08l2.74-1.58c.72-.41.77-1.05.13-1.43l-6.47-3.73a2.76,2.76,0,0,0-2.47.07l-2.74,1.58C278.71,220.52,278.65,221.16,279.3,221.53Z"/><path class="cls-14" d="M264.54,213l3.24,1.88a2.75,2.75,0,0,0,2.48-.08l2.74-1.58c.72-.41.78-1,.13-1.43l-3.25-1.87a2.75,2.75,0,0,0-2.48.07l-2.73,1.58C264,212,263.89,212.64,264.54,213Z"/><path class="cls-14" d="M257.16,208.75l3.24,1.88a2.75,2.75,0,0,0,2.48-.08l2.74-1.58c.72-.42.78-1.06.13-1.43l-3.25-1.87a2.75,2.75,0,0,0-2.48.07l-2.73,1.58C256.57,207.74,256.51,208.38,257.16,208.75Z"/><path class="cls-14" d="M249.78,204.49l3.24,1.87a2.72,2.72,0,0,0,2.48-.07l2.74-1.58c.72-.42.78-1.06.13-1.43l-3.25-1.87a2.72,2.72,0,0,0-2.48.07l-2.73,1.58C249.19,203.48,249.13,204.12,249.78,204.49Z"/><path class="cls-14" d="M242.4,200.23l3.24,1.87a2.75,2.75,0,0,0,2.48-.07l2.74-1.58c.72-.42.77-1.06.13-1.43l-3.25-1.88a2.75,2.75,0,0,0-2.48.08l-2.73,1.58C241.81,199.22,241.75,199.86,242.4,200.23Z"/><path class="cls-14" d="M235,196l3.24,1.87a2.75,2.75,0,0,0,2.48-.07l2.74-1.58c.72-.42.77-1.06.13-1.43l-3.25-1.88a2.75,2.75,0,0,0-2.48.08l-2.73,1.58C234.43,195,234.37,195.59,235,196Z"/><path class="cls-14" d="M227.64,191.71l3.24,1.87a2.75,2.75,0,0,0,2.48-.07l2.74-1.58c.72-.42.77-1.06.13-1.43L233,188.62a2.75,2.75,0,0,0-2.48.08l-2.73,1.58C227.05,190.69,227,191.33,227.64,191.71Z"/><path class="cls-14" d="M220.26,187.45l3.24,1.87a2.75,2.75,0,0,0,2.48-.07l2.74-1.58c.72-.42.77-1.06.13-1.43l-3.25-1.88a2.75,2.75,0,0,0-2.48.08L220.39,186C219.67,186.43,219.61,187.07,220.26,187.45Z"/><path class="cls-14" d="M212.88,183.19l3.24,1.87a2.78,2.78,0,0,0,2.48-.07l2.74-1.59c.72-.41.77-1.05.13-1.43l-3.25-1.87a2.75,2.75,0,0,0-2.48.08L213,181.76C212.29,182.17,212.23,182.81,212.88,183.19Z"/><path class="cls-14" d="M205.5,178.93l3.24,1.87a2.75,2.75,0,0,0,2.48-.08l2.74-1.58c.72-.41.77-1,.13-1.43l-3.25-1.87a2.78,2.78,0,0,0-2.48.07l-2.73,1.59C204.91,177.91,204.85,178.55,205.5,178.93Z"/><path class="cls-14" d="M198.12,174.66l3.24,1.88a2.75,2.75,0,0,0,2.48-.08l2.74-1.58c.72-.41.77-1,.13-1.43l-3.25-1.87a2.75,2.75,0,0,0-2.48.07l-2.73,1.58C197.53,173.65,197.47,174.29,198.12,174.66Z"/><path class="cls-14" d="M190.74,170.4l3.24,1.88a2.75,2.75,0,0,0,2.48-.08l2.74-1.58c.72-.41.77-1.05.13-1.43l-3.25-1.87a2.75,2.75,0,0,0-2.48.07L190.87,169C190.15,169.39,190.09,170,190.74,170.4Z"/><path class="cls-14" d="M183.36,166.14,186.6,168a2.75,2.75,0,0,0,2.48-.08l2.74-1.58c.72-.41.77-1.05.13-1.43l-3.25-1.87a2.75,2.75,0,0,0-2.48.07l-2.73,1.58C182.77,165.13,182.71,165.77,183.36,166.14Z"/><path class="cls-14" d="M190.13,178.22l-3.24-1.88c-.65-.37-.59-1,.13-1.43l2.73-1.58a2.75,2.75,0,0,1,2.48-.07l3.25,1.87c.64.37.59,1-.13,1.43l-2.74,1.58A2.75,2.75,0,0,1,190.13,178.22Z"/><path class="cls-14" d="M182.75,174l-6.46-3.73c-.65-.37-.59-1,.13-1.43l2.74-1.58a2.73,2.73,0,0,1,2.47-.07l6.47,3.73c.64.37.59,1-.13,1.43l-2.74,1.58A2.72,2.72,0,0,1,182.75,174Z"/><path class="cls-14" d="M197.51,182.48l-3.24-1.88c-.65-.37-.59-1,.13-1.43l2.73-1.58a2.75,2.75,0,0,1,2.48-.07l3.25,1.87c.64.38.59,1-.13,1.43L200,182.4A2.75,2.75,0,0,1,197.51,182.48Z"/><path class="cls-14" d="M204.89,186.74l-3.24-1.88c-.65-.37-.59-1,.13-1.43l2.73-1.58a2.75,2.75,0,0,1,2.48-.07l3.25,1.87c.64.38.59,1-.13,1.43l-2.74,1.58A2.75,2.75,0,0,1,204.89,186.74Z"/><path class="cls-14" d="M212.27,191,209,189.12c-.65-.37-.59-1,.13-1.43l2.73-1.58a2.78,2.78,0,0,1,2.48-.07l3.25,1.87c.64.38.59,1-.13,1.43l-2.74,1.58A2.75,2.75,0,0,1,212.27,191Z"/><path class="cls-14" d="M219.65,195.26l-3.24-1.87c-.65-.38-.59-1,.13-1.43l2.73-1.58a2.75,2.75,0,0,1,2.48-.08l3.25,1.87c.64.38.59,1-.13,1.43l-2.74,1.58A2.75,2.75,0,0,1,219.65,195.26Z"/><path class="cls-14" d="M227,199.52l-3.24-1.87c-.65-.38-.59-1,.13-1.43l2.73-1.58a2.75,2.75,0,0,1,2.48-.08l3.25,1.88c.64.37.59,1-.13,1.43l-2.74,1.58A2.78,2.78,0,0,1,227,199.52Z"/><path class="cls-14" d="M234.41,203.78l-3.24-1.87c-.65-.38-.59-1,.13-1.43L234,198.9a2.75,2.75,0,0,1,2.48-.08l3.25,1.88c.64.37.59,1-.13,1.43l-2.74,1.58A2.75,2.75,0,0,1,234.41,203.78Z"/><path class="cls-14" d="M241.79,208l-3.24-1.87c-.65-.38-.59-1,.13-1.43l2.73-1.58a2.75,2.75,0,0,1,2.48-.08l3.25,1.88c.65.37.59,1-.13,1.43L244.27,208A2.75,2.75,0,0,1,241.79,208Z"/><path class="cls-14" d="M249.17,212.3l-3.24-1.87c-.65-.37-.59-1,.13-1.43l2.73-1.58a2.75,2.75,0,0,1,2.48-.08l3.25,1.88c.65.37.59,1-.13,1.43l-2.74,1.58A2.75,2.75,0,0,1,249.17,212.3Z"/><path class="cls-14" d="M256.55,216.56l-3.24-1.87c-.65-.37-.59-1,.13-1.43l2.73-1.58a2.72,2.72,0,0,1,2.48-.07l3.25,1.87c.65.37.59,1-.13,1.43L259,216.49A2.72,2.72,0,0,1,256.55,216.56Z"/><path class="cls-14" d="M263.93,220.83,260.69,219c-.65-.37-.59-1,.13-1.43l2.74-1.58a2.73,2.73,0,0,1,2.47-.07l3.25,1.87c.65.37.59,1-.13,1.43l-2.74,1.58A2.75,2.75,0,0,1,263.93,220.83Z"/><path class="cls-14" d="M271.31,225.09l-3.24-1.88c-.65-.37-.59-1,.13-1.43l2.74-1.58a2.73,2.73,0,0,1,2.47-.07l3.25,1.87c.65.38.59,1-.13,1.43L273.79,225A2.75,2.75,0,0,1,271.31,225.09Z"/><path class="cls-14" d="M284.61,226.59l-4.39-2.53a1.32,1.32,0,0,0-1.18,0l-4.19,2.42c-.32.19-.3.49,0,.69l1.05.6-6.49,3.75c-.32.18-.31.49,0,.68l2.73,1.58a1.31,1.31,0,0,0,1.19,0l7.07-4.08.56-.32,3.62-2.1C285,227.09,284.94,226.78,284.61,226.59Z"/><path class="cls-14" d="M177.34,179l-8.12-4.69c-.65-.37-.59-1,.13-1.43l2.74-1.58a2.73,2.73,0,0,1,2.47-.07l8.12,4.68c.65.38.59,1-.13,1.43l-2.74,1.58A2.73,2.73,0,0,1,177.34,179Z"/><path class="cls-14" d="M184.72,183.25l-3.25-1.87c-.65-.38-.59-1,.13-1.43l2.74-1.58a2.73,2.73,0,0,1,2.47-.08l3.25,1.87c.65.38.59,1-.13,1.43l-2.74,1.59A2.76,2.76,0,0,1,184.72,183.25Z"/><path class="cls-14" d="M192.1,187.51l-3.25-1.87c-.65-.38-.59-1,.13-1.43l2.74-1.58a2.73,2.73,0,0,1,2.47-.08l3.25,1.88c.65.37.59,1-.13,1.43l-2.74,1.58A2.73,2.73,0,0,1,192.1,187.51Z"/><path class="cls-14" d="M199.48,191.77l-3.25-1.87c-.65-.38-.59-1,.13-1.43l2.74-1.58a2.73,2.73,0,0,1,2.47-.08l3.25,1.88c.65.37.59,1-.13,1.43L202,191.7A2.73,2.73,0,0,1,199.48,191.77Z"/><path class="cls-14" d="M206.86,196l-3.25-1.87c-.65-.37-.59-1,.13-1.43l2.74-1.58a2.73,2.73,0,0,1,2.47-.08L212.2,193c.65.37.59,1-.13,1.43L209.33,196A2.73,2.73,0,0,1,206.86,196Z"/><path class="cls-14" d="M214.24,200.29,211,198.42c-.65-.37-.59-1,.13-1.43l2.74-1.58a2.73,2.73,0,0,1,2.47-.08l3.25,1.88c.65.37.59,1-.13,1.43l-2.74,1.58A2.73,2.73,0,0,1,214.24,200.29Z"/><path class="cls-14" d="M221.62,204.55l-3.25-1.87c-.65-.37-.59-1,.13-1.43l2.74-1.58a2.7,2.7,0,0,1,2.47-.07l3.25,1.87c.65.37.59,1-.13,1.43l-2.74,1.58A2.7,2.7,0,0,1,221.62,204.55Z"/><path class="cls-14" d="M229,208.82l-3.25-1.88c-.65-.37-.59-1,.13-1.43l2.74-1.58a2.75,2.75,0,0,1,2.48-.07l3.24,1.87c.65.37.59,1-.13,1.43l-2.74,1.58A2.73,2.73,0,0,1,229,208.82Z"/><path class="cls-14" d="M236.38,213.08l-3.25-1.88c-.65-.37-.59-1,.13-1.43l2.74-1.58a2.75,2.75,0,0,1,2.48-.07l3.24,1.87c.65.38.59,1-.13,1.43L238.85,213A2.73,2.73,0,0,1,236.38,213.08Z"/><path class="cls-14" d="M243.76,217.34l-3.25-1.88c-.65-.37-.59-1,.13-1.43l2.74-1.58a2.75,2.75,0,0,1,2.48-.07l3.24,1.87c.65.38.59,1-.13,1.43l-2.74,1.58A2.73,2.73,0,0,1,243.76,217.34Z"/><path class="cls-14" d="M251.14,221.6l-3.25-1.88c-.65-.37-.59-1,.13-1.43l2.74-1.58a2.78,2.78,0,0,1,2.48-.07l3.24,1.87c.65.38.59,1-.13,1.43l-2.74,1.58A2.73,2.73,0,0,1,251.14,221.6Z"/><path class="cls-14" d="M258.52,225.86,255.27,224c-.65-.38-.59-1,.13-1.43l2.74-1.58a2.75,2.75,0,0,1,2.48-.08l3.24,1.87c.65.38.59,1-.13,1.43L261,225.78A2.73,2.73,0,0,1,258.52,225.86Z"/><path class="cls-14" d="M265.9,230.12l-3.25-1.87c-.65-.38-.59-1,.13-1.43l2.74-1.58a2.75,2.75,0,0,1,2.48-.08l3.24,1.88c.65.37.59,1-.13,1.43l-2.74,1.58A2.76,2.76,0,0,1,265.9,230.12Z"/><path class="cls-14" d="M252.47,230.53l12,6.94a2.81,2.81,0,0,0,2.54,0l2.74-1.58c.72-.41.75-1.07.06-1.47l-12-6.94a2.8,2.8,0,0,0-2.55,0l-2.74,1.58C251.8,229.47,251.78,230.13,252.47,230.53Z"/><path class="cls-14" d="M245,226.22l3.25,1.88a2.75,2.75,0,0,0,2.48-.08l2.73-1.58c.72-.41.78-1.05.13-1.43l-3.24-1.87a2.78,2.78,0,0,0-2.48.07l-2.74,1.58C244.42,225.21,244.37,225.85,245,226.22Z"/><path class="cls-14" d="M237.63,222l3.25,1.88a2.75,2.75,0,0,0,2.48-.08l2.73-1.58c.72-.41.78-1.05.13-1.43L243,218.88a2.75,2.75,0,0,0-2.48.07l-2.74,1.58C237,221,237,221.59,237.63,222Z"/><path class="cls-14" d="M230.25,217.7l3.25,1.88a2.75,2.75,0,0,0,2.48-.08l2.73-1.58c.72-.41.78-1,.13-1.43l-3.24-1.87a2.75,2.75,0,0,0-2.48.07l-2.74,1.58C229.66,216.69,229.61,217.33,230.25,217.7Z"/><path class="cls-14" d="M222.87,213.44l3.25,1.88a2.75,2.75,0,0,0,2.48-.08l2.73-1.58c.72-.42.78-1.06.13-1.43l-3.24-1.87a2.75,2.75,0,0,0-2.48.07L223,212C222.28,212.43,222.23,213.07,222.87,213.44Z"/><path class="cls-14" d="M215.49,209.18l3.25,1.87a2.72,2.72,0,0,0,2.48-.07L224,209.4c.72-.42.78-1.06.13-1.43l-3.24-1.87a2.72,2.72,0,0,0-2.48.07l-2.74,1.58C214.9,208.17,214.85,208.81,215.49,209.18Z"/><path class="cls-14" d="M208.11,204.92l3.25,1.87a2.75,2.75,0,0,0,2.48-.07l2.73-1.58c.72-.42.78-1.06.13-1.43l-3.24-1.88a2.75,2.75,0,0,0-2.48.08l-2.74,1.58C207.52,203.91,207.46,204.55,208.11,204.92Z"/><path class="cls-14" d="M200.73,200.66l3.25,1.87a2.75,2.75,0,0,0,2.48-.07l2.73-1.58c.72-.42.78-1.06.13-1.43l-3.24-1.88a2.75,2.75,0,0,0-2.48.08l-2.74,1.58C200.14,199.64,200.08,200.29,200.73,200.66Z"/><path class="cls-14" d="M193.35,196.4l3.25,1.87a2.73,2.73,0,0,0,2.47-.07l2.74-1.58c.72-.42.78-1.06.13-1.43l-3.24-1.88a2.75,2.75,0,0,0-2.48.08L193.48,195C192.76,195.38,192.7,196,193.35,196.4Z"/><path class="cls-14" d="M186,192.14l3.25,1.87a2.73,2.73,0,0,0,2.47-.07l2.74-1.58c.72-.42.78-1.06.13-1.43l-3.24-1.88a2.75,2.75,0,0,0-2.48.08l-2.74,1.58C185.38,191.12,185.32,191.76,186,192.14Z"/><path class="cls-14" d="M178.59,187.88l3.25,1.87a2.76,2.76,0,0,0,2.47-.07l2.74-1.59c.72-.41.78-1.05.13-1.43l-3.24-1.87a2.75,2.75,0,0,0-2.48.08l-2.74,1.58C178,186.86,177.94,187.5,178.59,187.88Z"/><path class="cls-14" d="M171.21,183.62l3.25,1.87a2.73,2.73,0,0,0,2.47-.08l2.74-1.58c.72-.41.78-1.05.13-1.43l-3.24-1.87a2.78,2.78,0,0,0-2.48.07l-2.74,1.59C170.62,182.6,170.56,183.24,171.21,183.62Z"/><path class="cls-14" d="M162.15,178.38l4.93,2.85a2.73,2.73,0,0,0,2.47-.08l2.74-1.58c.72-.41.78-1,.13-1.43l-4.92-2.84a2.75,2.75,0,0,0-2.48.07L162.28,177C161.56,177.37,161.5,178,162.15,178.38Z"/><path class="cls-14" d="M158.33,184.34l-3.25-1.87c-.64-.38-.59-1,.13-1.43l2.74-1.59a2.78,2.78,0,0,1,2.48-.07l3.24,1.87c.65.38.59,1-.13,1.43l-2.73,1.58A2.75,2.75,0,0,1,158.33,184.34Z"/><path class="cls-14" d="M165.71,188.6l-3.25-1.87c-.64-.38-.59-1,.13-1.43l2.74-1.58a2.75,2.75,0,0,1,2.48-.08l3.24,1.87c.65.38.59,1-.13,1.43l-2.73,1.59A2.78,2.78,0,0,1,165.71,188.6Z"/><path class="cls-14" d="M173.09,192.86,169.84,191c-.64-.38-.59-1,.13-1.43l2.74-1.58a2.75,2.75,0,0,1,2.48-.08l3.24,1.88c.65.37.59,1-.13,1.43l-2.73,1.58A2.75,2.75,0,0,1,173.09,192.86Z"/><path class="cls-14" d="M182.15,198.09l-4.93-2.84c-.64-.38-.59-1,.13-1.43l2.74-1.58a2.75,2.75,0,0,1,2.48-.08l4.92,2.85c.65.37.59,1-.13,1.43L184.63,198A2.75,2.75,0,0,1,182.15,198.09Z"/><path class="cls-14" d="M254.24,239.72l3.25,1.87a2.75,2.75,0,0,0,2.48-.08l2.73-1.58c.72-.41.78-1.05.13-1.43l-3.24-1.87a2.78,2.78,0,0,0-2.48.07l-2.74,1.59C253.65,238.7,253.6,239.34,254.24,239.72Z"/><path class="cls-14" d="M246.86,235.45l3.25,1.88a2.75,2.75,0,0,0,2.48-.08l2.73-1.58c.72-.41.78-1,.13-1.43l-3.24-1.87a2.75,2.75,0,0,0-2.48.07L247,234C246.27,234.44,246.22,235.08,246.86,235.45Z"/><path class="cls-14" d="M239.48,231.19l3.25,1.88a2.75,2.75,0,0,0,2.48-.08l2.73-1.58c.72-.41.78-1,.13-1.43l-3.24-1.87a2.75,2.75,0,0,0-2.48.07l-2.74,1.58C238.89,230.18,238.84,230.82,239.48,231.19Z"/><path class="cls-14" d="M232.1,226.93l3.25,1.88a2.75,2.75,0,0,0,2.48-.08l2.73-1.58c.72-.41.78-1.05.13-1.43l-3.24-1.87a2.75,2.75,0,0,0-2.48.07l-2.74,1.58C231.51,225.92,231.46,226.56,232.1,226.93Z"/><path class="cls-14" d="M223,221.7l4.93,2.85a2.75,2.75,0,0,0,2.48-.08l2.73-1.58c.72-.42.78-1.06.13-1.43l-4.92-2.84a2.75,2.75,0,0,0-2.48.07l-2.74,1.58C222.45,220.69,222.4,221.33,223,221.7Z"/><path class="cls-14" d="M186.41,200.55l32.51,18.77a2.86,2.86,0,0,0,2.61,0l2.74-1.58a.79.79,0,0,0,0-1.5l-32.51-18.77a2.86,2.86,0,0,0-2.61,0l-2.74,1.58A.79.79,0,0,0,186.41,200.55Z"/><path class="cls-14" d="M180.63,223.57l16.77,9.68-3.4,2a3.48,3.48,0,0,1-3.13,0l-15.2-8.78Z"/><path class="cls-14" d="M163.85,212.08l18-10.38a3.45,3.45,0,0,1,3.13,0l32,18.46a1,1,0,0,1,0,1.81l-18,10.38Z"/><path class="cls-14" d="M179.06,222.66l-5,2.87-15.21-8.78a1,1,0,0,1,0-1.81l3.41-2Z"/><path class="cls-23" d="M345.14,193.46l-86.05-49.69a1,1,0,0,0-.95-.09l-1.49.74,1.1,1.44c0,11.25,0,52.49,0,60.95a2.91,2.91,0,0,0,1.33,2.29L343,257.53l1.6,2.1,1.42-.72.12-.06h0a.94.94,0,0,0,.33-.81V195.76A2.91,2.91,0,0,0,345.14,193.46Z"/><path class="cls-35" d="M343.61,259.55l-86.06-49.68a2.93,2.93,0,0,1-1.33-2.29c0-8.84,0-53.49,0-62.29,0-.84.6-1.17,1.33-.75l86.06,49.69a2.93,2.93,0,0,1,1.33,2.29v62.27C344.94,259.64,344.34,260,343.61,259.55Z"/><path class="cls-36" d="M330.75,224.5c-3.72-11.75-7.57-23.9-15.4-28.42s-11.67,3.18-15.39,10.64-7.22,14.46-14.19,10.44-10.47-15.1-14.18-26.82c-3.15-10-6.4-20.19-12.07-25.84v42.68l82.09,47.4v-6C336.76,243.44,333.82,234.19,330.75,224.5Z"/><path class="cls-37" d="M329.7,227.45c-3.7,1.69-7.2,3.28-14.35-.84s-10.64-9.76-14.34-15.72-7.59-12.21-15.24-16.63-11.5-2.66-15.23-1c-3.08,1.4-6,2.73-11,.78v13.11l82.09,47.4V226.79C336.09,224.57,332.85,226,329.7,227.45Z"/><g class="cls-38"><path class="cls-39" d="M330.75,224.5c-3.72-11.75-7.57-23.9-15.4-28.42s-11.67,3.18-15.39,10.64-7.22,14.46-14.19,10.44-10.47-15.1-14.18-26.82c-3.15-10-6.4-20.19-12.07-25.84v42.68l82.09,47.4v-6C336.76,243.44,333.82,234.19,330.75,224.5Z"/></g><path class="cls-40" d="M298.32,174.52a.68.68,0,0,1-.36-.1L270,158.29a.71.71,0,1,1,.72-1.23l27.93,16.13a.71.71,0,0,1-.35,1.33Z"/><path class="cls-41" d="M289.52,173.25a.73.73,0,0,1-.35-.09L269.88,162a.71.71,0,0,1,.71-1.23l19.29,11.14a.71.71,0,0,1-.36,1.32Z"/><path class="cls-42" d="M266.17,157c0,2.1-1.49,2.95-3.33,1.89a7.34,7.34,0,0,1-3.32-5.73c0-2.11,1.49-3,3.32-1.9A7.33,7.33,0,0,1,266.17,157Z"/><path class="cls-43" d="M303.79,245.75a1.45,1.45,0,0,1-.86,1.14l-5.78,3.33a3.93,3.93,0,0,1-3.54.15l-10.1-5.83a1,1,0,0,1-.6-.94h0v36.9h0a1.07,1.07,0,0,0,.61.89l10.1,5.83a4,4,0,0,0,3.54-.15l5.78-3.34a1.56,1.56,0,0,0,.86-1.05h0V245.75Z"/><path class="cls-44" d="M283.51,244.54l10.1,5.83a3.93,3.93,0,0,0,3.54-.15l5.78-3.33c1.05-.61,1.16-1.52.25-2L293.09,239a4,4,0,0,0-3.54.15l-5.78,3.34C282.72,243.1,282.61,244,283.51,244.54Z"/><path class="cls-45" d="M303.79,245.75a1.45,1.45,0,0,1-.86,1.14l-5.78,3.33a3.93,3.93,0,0,1-3.54.15l-10.1-5.83a1,1,0,0,1-.6-.94h0v36.9h0a1.07,1.07,0,0,0,.61.89l10.1,5.83a4,4,0,0,0,3.54-.15l5.78-3.34a1.56,1.56,0,0,0,.86-1.05h0V245.75Z"/><path class="cls-46" d="M303.79,245.75a1.45,1.45,0,0,1-.86,1.14l-5.78,3.33a3.93,3.93,0,0,1-3.54.15l-10.1-5.83a1,1,0,0,1-.6-.94h0v36.9h0a1.07,1.07,0,0,0,.61.89l10.1,5.83a4,4,0,0,0,3.54-.15l5.78-3.34a1.56,1.56,0,0,0,.86-1.05h0V245.75Z"/><path class="cls-47" d="M291.14,257.75a1.44,1.44,0,0,1-.86,1.14l-5.78,3.34a3.93,3.93,0,0,1-3.54.15l-10.1-5.83a1,1,0,0,1-.61-.94h0v32.2h0a1,1,0,0,0,.61.88l10.1,5.83a3.93,3.93,0,0,0,3.54-.15l5.78-3.33a1.58,1.58,0,0,0,.86-1.05h0V257.75Z"/><path class="cls-48" d="M270.86,256.55l10.1,5.83a3.93,3.93,0,0,0,3.54-.15l5.78-3.34c1.05-.6,1.16-1.52.25-2L280.44,251a3.93,3.93,0,0,0-3.54.15l-5.78,3.34C270.07,255.11,270,256,270.86,256.55Z"/><path class="cls-49" d="M291.14,257.75a1.44,1.44,0,0,1-.86,1.14l-5.78,3.34a3.93,3.93,0,0,1-3.54.15l-10.1-5.83a1,1,0,0,1-.61-.94h0v32.2h0a1,1,0,0,0,.61.88l10.1,5.83a3.93,3.93,0,0,0,3.54-.15l5.78-3.33a1.58,1.58,0,0,0,.86-1.05h0V257.75Z"/><path class="cls-50" d="M278.49,281.41a1.46,1.46,0,0,1-.86,1.14l-5.78,3.34a3.93,3.93,0,0,1-3.54.15l-10.1-5.83a1,1,0,0,1-.61-.94h0v15.84h0a1,1,0,0,0,.61.88l10.1,5.83a3.93,3.93,0,0,0,3.54-.14l5.78-3.34a1.56,1.56,0,0,0,.86-1h0V281.41Z"/><path class="cls-51" d="M258.21,280.21l10.1,5.83a3.93,3.93,0,0,0,3.54-.15l5.78-3.34c1.05-.6,1.16-1.52.25-2l-10.09-5.83a3.93,3.93,0,0,0-3.54.15l-5.78,3.34C257.42,278.77,257.3,279.68,258.21,280.21Z"/><path class="cls-52" d="M278.49,281.41a1.46,1.46,0,0,1-.86,1.14l-5.78,3.34a3.93,3.93,0,0,1-3.54.15l-10.1-5.83a1,1,0,0,1-.61-.94h0v15.84h0a1,1,0,0,0,.61.88l10.1,5.83a3.93,3.93,0,0,0,3.54-.14l5.78-3.34a1.56,1.56,0,0,0,.86-1h0V281.41Z"/><path class="cls-53" d="M265.84,299.14a1.46,1.46,0,0,1-.86,1.14l-5.78,3.34a3.93,3.93,0,0,1-3.54.15l-10.1-5.83A1,1,0,0,1,245,297h0v5.42h0a1,1,0,0,0,.61.88l10.1,5.83a3.93,3.93,0,0,0,3.54-.15l5.78-3.34a1.56,1.56,0,0,0,.86-1h0v-5.46Z"/><path class="cls-54" d="M245.56,297.94l10.1,5.83a3.93,3.93,0,0,0,3.54-.15l5.78-3.34c1-.6,1.16-1.52.25-2l-10.09-5.83a3.93,3.93,0,0,0-3.54.15l-5.78,3.34C244.77,296.5,244.65,297.42,245.56,297.94Z"/><path class="cls-55" d="M265.84,299.14a1.46,1.46,0,0,1-.86,1.14l-5.78,3.34a3.93,3.93,0,0,1-3.54.15l-10.1-5.83A1,1,0,0,1,245,297h0v5.42h0a1,1,0,0,0,.61.88l10.1,5.83a3.93,3.93,0,0,0,3.54-.15l5.78-3.34a1.56,1.56,0,0,0,.86-1h0v-5.46Z"/><path class="cls-23" d="M167.32,224.14,81.26,174.46a.93.93,0,0,0-1-.1l-1.48.74,1.1,1.44c0,11.25,0,52.5,0,61a2.94,2.94,0,0,0,1.33,2.28l83.9,48.43,1.59,2.1,1.43-.72a.67.67,0,0,0,.12-.06h0a1,1,0,0,0,.33-.8V226.44A2.92,2.92,0,0,0,167.32,224.14Z"/><path class="cls-14" d="M165.79,290.23,79.73,240.55a2.93,2.93,0,0,1-1.33-2.29c0-8.84,0-53.49,0-62.29,0-.84.59-1.17,1.33-.75l86.06,49.69a2.93,2.93,0,0,1,1.33,2.29v62.27C167.12,290.32,166.52,290.66,165.79,290.23Z"/><polygon class="cls-56" points="82.1 237.41 82.49 199.18 98.63 188.97 119.81 217.31 134.89 216.1 152.6 239.27 164.39 236.47 164.39 284.92 82.1 237.41"/><polygon class="cls-14" points="82.16 237.44 82.43 216.01 98.6 200.31 119.81 231.76 137.59 227.5 151.36 249.96 164.39 247.89 164.39 284.92 82.16 237.44"/><polygon class="cls-57" points="164.39 284.92 82.07 237.39 82.52 224.97 98.57 240.95 113.14 234.71 124.76 255.78 141.22 240.79 164.39 282.04 164.39 284.92"/><polygon class="cls-14" points="164.39 286.3 81.69 238.56 81.69 180.18 82.9 180.87 82.9 237.87 164.39 284.92 164.39 286.3"/><polygon class="cls-14" points="164.39 286.3 81.69 238.56 81.69 180.18 82.9 180.87 82.9 237.87 164.39 284.92 164.39 286.3"/><path class="cls-58" d="M349.13,149.67l-72.39-41.79v-6.76c1.79,1,3.06-9.08,4-16.46,1.44-11.47,2.46-18.42,5.06-16.92s3.62,9.63,5.06,22.77c.93,8.45,2.2,20,4,21.06s3-4.89,4-9.65c1.26-6.22,2.35-11.59,5.06-10s3.79,8.19,5.05,15.86c1,5.89,2.17,13.21,4,14.26s2.93-1.14,4-3.52c1.18-2.56,2.4-5.22,5-3.7s3.85,5.57,5,9.51c1.09,3.63,2.12,7.06,4,8.16s3.07-7.1,4-13.05c1.45-9.36,2.52-14.94,5.06-13.47s3.61,8.27,5.06,19.32c.93,7,2.19,16.61,4,17.65Z"/><polygon class="cls-14" points="349.13 150.34 276.21 108.24 276.21 56.77 277.27 57.38 277.27 107.64 349.13 149.13 349.13 150.34"/><polygon class="cls-23" points="350.49 149.67 277.57 107.57 277.57 56.09 278.63 56.7 278.63 106.96 350.49 148.45 350.49 149.67"/><polygon class="cls-14" points="276.21 56.77 277.57 56.09 278.63 56.7 277.27 57.38 276.21 56.77"/><polygon class="cls-14" points="277.27 57.38 277.27 107.64 278.63 106.96 278.63 56.7 277.27 57.38"/><path class="cls-59" d="M346.5,124.58c-1.46-11-2.52-17.85-5.06-19.32a1.28,1.28,0,0,0-1.27-.11h0l0,0-.94.53.17.27c-1.19,1.88-2,6.46-3,12.76-.92,5.94-2.18,14.08-4,13s-2.93-4.53-4-8.16c-1.18-3.93-2.4-8-5-9.51a2.36,2.36,0,0,0-2.22-.27h0l-.2.1h0l-1.14.57.27.2a15.14,15.14,0,0,0-1.72,3.11c-1.09,2.37-2.12,4.61-4,3.51s-3-8.37-4-14.25c-1.26-7.68-2.35-14.31-5.05-15.87a1.47,1.47,0,0,0-1.54-.1h0l-1,.54.14.38c-1.1,1.73-1.82,5.3-2.62,9.2-1,4.77-2.17,10.7-4,9.65s-3.06-12.61-4-21.06c-1.45-13.13-2.46-21.26-5.07-22.76A1.13,1.13,0,0,0,286,67h0l-1,.54.11.53c-1.23,2.37-2,8.09-3,15.91-.92,7.38-2.2,17.49-4,16.46v6.76L350.49,149v-6.75C348.68,141.19,347.42,131.59,346.5,124.58Z"/><polygon class="cls-60" points="277.27 57.38 277.27 107.64 278.63 106.96 278.63 56.7 277.27 57.38"/><path class="cls-14" d="M346.5,124.58c-1.46-11-2.52-17.85-5.06-19.32a1.28,1.28,0,0,0-1.27-.11h0l0,0-.94.53.17.27c-1.19,1.88-2,6.46-3,12.76-.92,5.94-2.18,14.08-4,13s-2.93-4.53-4-8.16c-1.18-3.93-2.4-8-5-9.51a2.36,2.36,0,0,0-2.22-.27h0l-.2.1h0l-1.14.57.27.2a15.14,15.14,0,0,0-1.72,3.11c-1.09,2.37-2.12,4.61-4,3.51s-3-8.37-4-14.25c-1.26-7.68-2.35-14.31-5.05-15.87a1.47,1.47,0,0,0-1.54-.1h0l-1,.54.14.38c-1.1,1.73-1.82,5.3-2.62,9.2-1,4.77-2.17,10.7-4,9.65s-3.06-12.61-4-21.06c-1.45-13.13-2.46-21.26-5.07-22.76A1.13,1.13,0,0,0,286,67h0l-1,.54.11.53c-1.23,2.37-2,8.09-3,15.91-.92,7.38-2.2,17.49-4,16.46v6.76L350.49,149v-6.75C348.68,141.19,347.42,131.59,346.5,124.58Z"/><path class="cls-61" d="M349.13,149.67l-72.39-41.79v-6.76c1.79,1,3.06-9.08,4-16.46,1.44-11.47,2.46-18.42,5.06-16.92s3.62,9.63,5.06,22.77c.93,8.45,2.2,20,4,21.06s3-4.89,4-9.65c1.26-6.22,2.35-11.59,5.06-10s3.79,8.19,5.05,15.86c1,5.89,2.17,13.21,4,14.26s2.93-1.14,4-3.52c1.18-2.56,2.4-5.22,5-3.7s3.85,5.57,5,9.51c1.09,3.63,2.12,7.06,4,8.16s3.07-7.1,4-13.05c1.45-9.36,2.52-14.94,5.06-13.47s3.61,8.27,5.06,19.32c.93,7,2.19,16.61,4,17.65Z"/><polygon class="cls-14" points="349.13 150.34 276.21 108.24 276.21 56.77 277.27 57.38 277.27 107.64 349.13 149.13 349.13 150.34"/><polygon class="cls-62" points="349.13 142.91 350.49 142.24 350.49 148.45 349.13 149.13 349.13 142.91"/><polygon class="cls-14" points="349.13 150.34 350.49 149.67 350.49 148.45 349.13 149.13 349.13 150.34"/><polygon class="cls-14" points="349.13 150.34 276.21 108.24 276.21 56.77 277.27 57.38 277.27 107.64 349.13 149.13 349.13 150.34"/><polygon class="cls-14" points="349.13 150.34 350.49 149.67 350.49 148.45 349.13 149.13 349.13 150.34"/><polygon class="cls-14" points="349.13 142.91 350.49 142.24 350.49 148.45 349.13 149.13 349.13 142.91"/><polygon class="cls-58" points="262.35 99.12 255.02 94.89 255.02 46.54 262.35 50.77 262.35 99.12"/><polygon class="cls-63" points="262.35 94.28 255.02 90.05 255.02 46.54 262.35 50.77 262.35 94.28"/><polygon class="cls-23" points="262.35 99.12 189.43 57.02 189.43 5.54 190.49 6.15 190.49 56.41 262.35 97.9 262.35 99.12"/><polygon class="cls-14" points="188.07 6.22 189.43 5.54 190.49 6.15 189.13 6.83 188.07 6.22"/><polygon class="cls-14" points="189.13 6.83 189.13 57.09 190.49 56.41 190.49 6.15 189.13 6.83"/><polygon class="cls-14" points="260.99 98.58 262.35 97.9 262.35 99.12 260.99 99.8 260.99 98.58"/><polygon class="cls-14" points="260.99 98.58 262.35 97.9 190.49 56.41 189.13 57.09 260.99 98.58"/><polygon class="cls-64" points="260.99 99.8 253.67 95.57 253.67 47.22 260.99 51.45 260.99 99.8"/><polygon class="cls-65" points="260.99 94.95 253.67 90.72 253.67 47.22 260.99 51.45 260.99 94.95"/><polygon class="cls-66" points="260.99 94.95 262.35 94.28 262.35 97.9 260.99 98.58 260.99 94.95"/><polygon class="cls-67" points="260.99 51.45 262.35 50.77 262.35 94.28 260.99 94.95 260.99 51.45"/><polygon class="cls-68" points="253.67 47.22 255.02 46.54 262.35 50.77 260.99 51.45 253.67 47.22"/><polygon class="cls-63" points="252.1 69.03 244.78 64.8 244.78 40.63 252.1 44.86 252.1 69.03"/><polygon class="cls-69" points="250.75 93.88 243.42 89.65 243.42 41.31 250.75 45.54 250.75 93.88"/><polygon class="cls-70" points="250.75 69.71 243.42 65.48 243.42 41.31 250.75 45.54 250.75 69.71"/><polygon class="cls-71" points="250.75 45.54 252.1 44.86 252.1 88.36 250.75 89.04 250.75 45.54"/><polygon class="cls-72" points="243.42 41.31 244.78 40.63 252.1 44.86 250.75 45.54 243.42 41.31"/><polygon class="cls-71" points="250.75 45.54 252.1 44.86 252.1 88.36 250.75 89.04 250.75 45.54"/><polygon class="cls-66" points="250.75 69.72 252.1 69.03 252.1 91.98 250.75 92.67 250.75 69.72"/><polygon class="cls-63" points="241.86 53.26 234.54 49.03 234.54 34.72 241.86 38.95 241.86 53.26"/><polygon class="cls-73" points="240.51 87.97 233.18 83.74 233.18 35.39 240.51 39.62 240.51 87.97"/><polygon class="cls-74" points="240.51 53.93 233.18 49.7 233.18 35.39 240.51 39.62 240.51 53.93"/><polygon class="cls-75" points="240.51 39.62 241.86 38.95 241.86 82.45 240.51 83.13 240.51 39.62"/><polygon class="cls-75" points="240.51 39.62 241.86 38.95 241.86 82.45 240.51 83.13 240.51 39.62"/><polygon class="cls-76" points="233.18 35.39 234.54 34.72 241.86 38.95 240.51 39.62 233.18 35.39"/><polygon class="cls-66" points="240.51 53.92 241.86 53.26 241.86 86.09 240.51 86.75 240.51 53.92"/><polygon class="cls-63" points="221.38 61.13 214.05 56.9 214.05 22.89 221.38 27.12 221.38 61.13"/><polygon class="cls-77" points="220.02 76.14 212.7 71.91 212.7 23.57 220.02 27.8 220.02 76.14"/><polygon class="cls-78" points="220.02 61.81 212.7 57.58 212.7 23.57 220.02 27.8 220.02 61.81"/><polygon class="cls-79" points="220.02 27.8 221.38 27.12 221.38 70.62 220.02 71.3 220.02 27.8"/><polygon class="cls-79" points="220.02 27.8 221.38 27.12 221.38 70.62 220.02 71.3 220.02 27.8"/><polygon class="cls-80" points="212.7 23.57 214.05 22.89 221.38 27.12 220.02 27.8 212.7 23.57"/><polygon class="cls-66" points="220.02 61.82 221.38 61.14 221.38 74.25 220.02 74.92 220.02 61.82"/><polygon class="cls-63" points="211.13 43.81 203.81 39.58 203.81 16.98 211.13 21.21 211.13 43.81"/><polygon class="cls-81" points="209.78 70.23 202.45 66 202.45 17.65 209.78 21.88 209.78 70.23"/><polygon class="cls-82" points="209.78 44.49 202.45 40.26 202.45 17.65 209.78 21.88 209.78 44.49"/><polygon class="cls-83" points="209.78 21.88 211.13 21.21 211.13 64.71 209.78 65.39 209.78 21.88"/><polygon class="cls-83" points="209.78 21.88 211.13 21.21 211.13 64.71 209.78 65.39 209.78 21.88"/><polygon class="cls-84" points="202.45 17.65 203.81 16.98 211.13 21.21 209.78 21.88 202.45 17.65"/><polygon class="cls-66" points="209.78 44.49 211.13 43.81 211.13 68.34 209.78 69.01 209.78 44.49"/><polygon class="cls-63" points="231.62 61.65 224.29 57.42 224.29 28.8 231.62 33.03 231.62 61.65"/><polygon class="cls-85" points="230.26 82.06 222.94 77.83 222.94 29.48 230.26 33.71 230.26 82.06"/><polygon class="cls-86" points="230.26 62.33 222.94 58.1 222.94 29.48 230.26 33.71 230.26 62.33"/><polygon class="cls-87" points="230.26 33.71 231.62 33.03 231.62 76.54 230.26 77.21 230.26 33.71"/><polygon class="cls-87" points="230.26 33.71 231.62 33.03 231.62 76.54 230.26 77.21 230.26 33.71"/><polygon class="cls-88" points="222.94 29.48 224.29 28.8 231.62 33.03 230.26 33.71 222.94 29.48"/><polygon class="cls-66" points="230.26 62.31 231.62 61.68 231.62 80.21 230.26 80.84 230.26 62.31"/><polygon class="cls-63" points="200.89 25.37 193.57 21.14 193.57 11.06 200.89 15.29 200.89 25.37"/><polygon class="cls-89" points="199.54 64.31 192.21 60.09 192.21 11.74 199.54 15.97 199.54 64.31"/><polygon class="cls-90" points="199.54 26.05 192.21 21.82 192.21 11.74 199.54 15.97 199.54 26.05"/><polygon class="cls-91" points="199.54 15.97 200.89 15.29 200.89 58.8 199.54 59.47 199.54 15.97"/><polygon class="cls-92" points="192.21 11.74 193.57 11.06 200.89 15.29 199.54 15.97 192.21 11.74"/><polygon class="cls-91" points="199.54 15.97 200.89 15.29 200.89 58.8 199.54 59.47 199.54 15.97"/><polygon class="cls-66" points="199.54 26.04 200.89 25.37 200.89 62.43 199.54 63.1 199.54 26.04"/><polygon class="cls-67" points="260.99 51.45 262.35 50.77 262.35 94.28 260.99 94.95 260.99 51.45"/><polygon class="cls-14" points="260.99 99.8 188.07 57.7 188.07 6.22 189.13 6.83 189.13 57.09 260.99 98.58 260.99 99.8"/><polygon class="cls-14" points="260.99 99.8 188.07 57.7 188.07 6.22 189.13 6.83 189.13 57.09 260.99 98.58 260.99 99.8"/><polygon class="cls-93" points="189.13 6.83 189.13 57.09 190.49 56.41 190.49 6.15 189.13 6.83"/><polygon class="cls-14" points="260.99 98.58 262.35 97.9 262.35 99.12 260.99 99.8 260.99 98.58"/><polygon class="cls-94" points="260.99 94.95 262.35 94.28 262.35 97.9 260.99 98.58 260.99 94.95"/><polygon class="cls-94" points="250.75 69.72 252.1 69.03 252.1 91.98 250.75 92.67 250.75 69.72"/><polygon class="cls-94" points="240.51 53.92 241.86 53.26 241.86 86.09 240.51 86.75 240.51 53.92"/><polygon class="cls-94" points="220.02 61.82 221.38 61.14 221.38 74.25 220.02 74.92 220.02 61.82"/><polygon class="cls-94" points="209.78 44.49 211.13 43.81 211.13 68.34 209.78 69.01 209.78 44.49"/><polygon class="cls-94" points="230.26 62.31 231.62 61.68 231.62 80.21 230.26 80.84 230.26 62.31"/><polygon class="cls-94" points="199.54 26.04 200.89 25.37 200.89 62.43 199.54 63.1 199.54 26.04"/><g class="cls-8"><g class="cls-8"><path class="cls-5" d="M197.72,276.73V281c-.05-.07-.15-.11-.22-.17-.71-.6-1.48-1.2-2.11-1.83-.25-.25-.23-.6-.33-.91v-4.29c.1.31.08.66.33.91.64.63,1.4,1.23,2.11,1.83C197.57,276.62,197.67,276.66,197.72,276.73Z"/><g class="cls-95"><path class="cls-5" d="M197.72,276.73V281c-.05-.07-.15-.11-.22-.17-.71-.6-1.48-1.2-2.11-1.83-.25-.25-.23-.6-.33-.91v-4.29c.1.31.08.66.33.91.64.63,1.4,1.23,2.11,1.83.07.06.17.1.22.17"/></g></g><g class="cls-8"><path class="cls-6" d="M197.76,276.85v4.29a.16.16,0,0,0,0-.12v-4.29A.16.16,0,0,1,197.76,276.85Z"/><g class="cls-96"><g class="cls-8"><path class="cls-6" d="M197.76,276.85v4.29a.16.16,0,0,0,0-.12v-4.29a.16.16,0,0,1,0,.12"/></g></g></g><path class="cls-97" d="M227.71,274.12a.5.5,0,0,1,0,.12h0l-.05.1,0,0-.06.06-.06.07-.11.1c-.16.13-.3.26-.44.39h0l-.22.21-.22.19-.13.12a3.8,3.8,0,0,1-.38.29l-.24.18-.06.05-.17.14,0,0h0a1.94,1.94,0,0,0-.2.21l0,0,0,0-.06.09a.05.05,0,0,0,0,0s0,0,0,0l0,.06,0,0a.43.43,0,0,0,0,.05.08.08,0,0,0,0,0v0s0,.07,0,.11h0v4.29a.66.66,0,0,1,0-.14l0,0a.32.32,0,0,1,0-.09l0-.06a.25.25,0,0,1,0-.07l.06-.09,0-.05a1.94,1.94,0,0,1,.2-.21l0,0,.17-.14.06-.05.24-.18.38-.29.14-.13.44-.4.45-.39.08-.07,0,0a.23.23,0,0,0,.07-.07l0,0,0,0,0,0v0l0-.08h0s0,0,0,0v-.06h0Z"/><path class="cls-98" d="M217.5,277.66c-.21-.13-.44-.24-.66-.35l-.24-.1c-.13-.06-.27-.13-.41-.18l-.06,0L216,277c-.18-.06-.36-.13-.55-.18l-.18-.06-.13,0-.23-.06-.52-.12-.14,0-.23,0-.44-.08-.17,0-.22,0-.41,0-.19,0h-.21l-.42,0h-1.22l-.55,0-.23,0h-.09c-.32,0-.65.08-1,.13h0l-.23.05-.53.11-.31.08-.46.14-.1,0-.15.06c-.21.07-.43.15-.64.24l-.23.1a7.88,7.88,0,0,0-.77.38l-.18.11-.2.13-.3.2-.25.19-.26.21-.08.07-.28.28,0,0-.22.26a1,1,0,0,0-.09.13l-.05.06c-.08.11-.15.22-.21.32s0,0,0,.06a1.23,1.23,0,0,0-.12.26.89.89,0,0,0-.08.17s0,0,0,0-.05.17-.07.25,0,.13-.05.19a.06.06,0,0,1,0,0l0,.26c0,.06,0,.12,0,.19v4.36a2.46,2.46,0,0,1,0-.26l0-.26.06-.23c0-.08,0-.16.07-.25l.09-.21a2.1,2.1,0,0,1,.13-.26,3.72,3.72,0,0,1,.22-.38l0-.06c.1-.13.2-.26.32-.39l0,0c.11-.12.23-.23.36-.35l.25-.21.26-.19a2.23,2.23,0,0,1,.3-.2l.38-.24a7.88,7.88,0,0,1,.77-.38l.23-.1c.21-.09.42-.17.64-.24l.25-.09.46-.13.31-.08.52-.11.27-.06c.32-.05.64-.1,1-.13l.31,0,.56,0h1.22l.42,0,.4,0,.41.05.39.05.44.08.37.07.52.13.36.1.18.06c.19.05.37.12.55.18l.14.05.47.21.23.1c.23.11.45.22.67.35a4.16,4.16,0,0,1,2.42,3.46v-4.29A4.14,4.14,0,0,0,217.5,277.66Z"/><g class="cls-8"><path class="cls-7" d="M191.07,281.45v4.29c0-.52,0-1,0-1.54,0,0,0-.05,0-.07l0-4.29v.07C191.06,280.42,191.07,280.93,191.07,281.45Z"/><g class="cls-99"><g class="cls-8"><path class="cls-7" d="M191.07,281.45v4.29c0-.52,0-1,0-1.54,0,0,0-.05,0-.07l0-4.29v.07c0,.51,0,1,0,1.54"/></g></g></g><path class="cls-98" d="M217.5,277.66c-.21-.13-.44-.24-.66-.35l-.24-.1c-.13-.06-.27-.13-.41-.18l-.06,0L216,277c-.18-.06-.36-.13-.55-.18l-.18-.06-.13,0-.23-.06-.52-.12-.14,0-.23,0-.44-.08-.17,0-.22,0-.41,0-.19,0h-.21l-.42,0h-1.22l-.55,0-.23,0h-.09c-.32,0-.65.08-1,.13h0l-.23.05-.53.11-.31.08-.46.14-.1,0-.15.06c-.21.07-.43.15-.64.24l-.23.1a7.88,7.88,0,0,0-.77.38l-.18.11-.2.13-.3.2-.25.19-.26.21-.08.07-.28.28,0,0-.22.26a1,1,0,0,0-.09.13l-.05.06c-.08.11-.15.22-.21.32s0,0,0,.06a1.23,1.23,0,0,0-.12.26.89.89,0,0,0-.08.17s0,0,0,0-.05.17-.07.25,0,.13-.05.19a.06.06,0,0,1,0,0l0,.26c0,.06,0,.12,0,.19v4.36a2.46,2.46,0,0,1,0-.26l0-.26.06-.23c0-.08,0-.16.07-.25l.09-.21a2.1,2.1,0,0,1,.13-.26,3.72,3.72,0,0,1,.22-.38l0-.06c.1-.13.2-.26.32-.39l0,0c.11-.12.23-.23.36-.35l.25-.21.26-.19a2.23,2.23,0,0,1,.3-.2l.38-.24a7.88,7.88,0,0,1,.77-.38l.23-.1c.21-.09.42-.17.64-.24l.25-.09.46-.13.31-.08.52-.11.27-.06c.32-.05.64-.1,1-.13l.31,0,.56,0h1.22l.42,0,.4,0,.41.05.39.05.44.08.37.07.52.13.36.1.18.06c.19.05.37.12.55.18l.14.05.47.21.23.1c.23.11.45.22.67.35a4.16,4.16,0,0,1,2.42,3.46v-4.29A4.14,4.14,0,0,0,217.5,277.66Z"/><g class="cls-38"><path class="cls-5" d="M197.72,276.73V281c-.05-.07-.15-.11-.22-.17-.71-.6-1.48-1.2-2.11-1.83-.25-.25-.23-.6-.33-.91v-4.29c.1.31.08.66.33.91.64.63,1.4,1.23,2.11,1.83.07.06.17.1.22.17"/></g><path class="cls-100" d="M214.86,281.22s0,.08,0,.12a.29.29,0,0,1,0,.09l0,.11,0,.09-.05.11,0,.08-.08.12-.06.08-.14.15-.07.06-.09.08-.11.09-.11.07-.16.1a5.12,5.12,0,0,1-.47.22l-.11,0-.32.09-.33.08a4.85,4.85,0,0,1-.55.09h0c-.2,0-.41,0-.61,0h-.09a5.83,5.83,0,0,1-.59,0h-.09a5,5,0,0,1-.56-.1l-.1,0c-.17,0-.32-.09-.47-.14l-.1,0a3.56,3.56,0,0,1-.52-.24,1.69,1.69,0,0,1-1-1.43l0,4.29a1.72,1.72,0,0,0,1,1.43,3.54,3.54,0,0,0,.48.23h0l.1,0,.28.09.18.05.1,0,.09,0a2.25,2.25,0,0,0,.36.06l.12,0h.23l.37,0h.37l.41,0h0l.46-.07.08,0,.34-.08a1.8,1.8,0,0,0,.22-.06l.09,0,.11,0c.17-.07.33-.14.48-.22l.07,0,.09-.06.11-.08.11-.08.09-.08,0,0,0,0c.06,0,.1-.1.15-.15l0,0,0,0,.08-.12,0-.05,0,0a1.17,1.17,0,0,1,.05-.11l0-.07a0,0,0,0,1,0,0l0-.11a.19.19,0,0,1,0-.07v0a.49.49,0,0,0,0-.12s0-.05,0-.07v-4.22Z"/><path class="cls-100" d="M214.86,281.22s0,.08,0,.12a.29.29,0,0,1,0,.09l0,.11,0,.09-.05.11,0,.08-.08.12-.06.08-.14.15-.07.06-.09.08-.11.09-.11.07-.16.1a5.12,5.12,0,0,1-.47.22l-.11,0-.32.09-.33.08a4.85,4.85,0,0,1-.55.09h0c-.2,0-.41,0-.61,0h-.09a5.83,5.83,0,0,1-.59,0h-.09a5,5,0,0,1-.56-.1l-.1,0c-.17,0-.32-.09-.47-.14l-.1,0a3.56,3.56,0,0,1-.52-.24,1.69,1.69,0,0,1-1-1.43l0,4.29a1.72,1.72,0,0,0,1,1.43,3.54,3.54,0,0,0,.48.23h0l.1,0,.28.09.18.05.1,0,.09,0a2.25,2.25,0,0,0,.36.06l.12,0h.23l.37,0h.37l.41,0h0l.46-.07.08,0,.34-.08a1.8,1.8,0,0,0,.22-.06l.09,0,.11,0c.17-.07.33-.14.48-.22l.07,0,.09-.06.11-.08.11-.08.09-.08,0,0,0,0c.06,0,.1-.1.15-.15l0,0,0,0,.08-.12,0-.05,0,0a1.17,1.17,0,0,1,.05-.11l0-.07a0,0,0,0,1,0,0l0-.11a.19.19,0,0,1,0-.07v0a.49.49,0,0,0,0-.12s0-.05,0-.07v-4.22Z"/><path class="cls-101" d="M213.83,279.64l.06,0a1.54,1.54,0,0,1-.06,2.89,5.61,5.61,0,0,1-4.91,0,1.53,1.53,0,0,1,.05-2.88A5.67,5.67,0,0,1,213.83,279.64Z"/><path class="cls-102" d="M231.79,281.63c0,.31,0,.61-.06.92a.25.25,0,0,1,0,.07h0l-.05.07,0,0,0,0a1.11,1.11,0,0,1-.16.12l0,0-.1.06,0,0-.13.06h0l-.14,0-.54.1-.23,0-.36.05-.25,0-.34,0-.33,0-.41,0h-.21l-.33,0h-.21l-.49.07h-.06a3.45,3.45,0,0,0-.46.12h-.06l-.38.15-.09.05-.15.08s-.05,0-.07.05l-.2.15-.09.07-.07.07-.08.09-.06.06-.11.17,0,.06v0a1.28,1.28,0,0,0-.13.29l0,0v4.29a2.21,2.21,0,0,1,.16-.35l0-.06a2,2,0,0,1,.17-.23l.08-.09.16-.14.19-.15.22-.13.1-.05a2.37,2.37,0,0,1,.4-.15l0,0,.46-.11h0l.55-.07h.17c.17,0,.34,0,.54,0h.19l.22,0,.33,0h.09l.24,0,.26,0,.35-.05.24,0h.06l.48-.09.13,0h0l.14-.05.05,0,.1-.06h0l.16-.12h0l0,0,0,0v0l0,0h0s0,0,0,0v0h0c0-.31,0-.61.05-.92a.43.43,0,0,0,0-.05c0-.23,0-.46,0-.69v-4.29C231.8,281.14,231.79,281.38,231.79,281.63Z"/><g class="cls-8"><path class="cls-1" d="M225.17,285.12v0Z"/><g class="cls-103"><g class="cls-8"><path class="cls-1" d="M225.17,285.12v0"/></g></g></g><path class="cls-104" d="M197,284a2,2,0,0,0-.26-.18l-.24-.12h0l-.1,0-.1,0h-.08c-.61-.09-1.24-.17-1.86-.24l-.59-.06c-.41,0-.83-.09-1.25-.12h-.11l-.27,0H192l-.17,0h-.06l-.16-.05h0l-.17-.08a.69.69,0,0,1-.36-.66v4.29a.69.69,0,0,0,.36.66l.16.08h0l.12,0h.09l.07,0,.11,0h.07l.24,0h0c.46,0,.91.08,1.36.13l.59.06,1.86.24a1.34,1.34,0,0,1,.27.07h0a1.23,1.23,0,0,1,.26.12,1.35,1.35,0,0,1,.25.18,1.62,1.62,0,0,1,.67,1.16v-4.29A1.64,1.64,0,0,0,197,284Z"/><g class="cls-8"><path class="cls-2" d="M195,292.33l0-4.29a.5.5,0,0,0,.17.35v4.29A.52.52,0,0,1,195,292.33Z"/><g class="cls-105"><g class="cls-8"><path class="cls-2" d="M195.14,288.39v4.29a.52.52,0,0,1-.18-.35l0-4.29a.5.5,0,0,0,.17.35"/></g></g></g><g class="cls-8"><path class="cls-3" d="M198.75,290.47l0,4.29-3.6-2.08v-4.29Z"/><g class="cls-106"><path class="cls-3" d="M198.75,290.47l0,4.29-3.6-2.08v-4.29l3.61,2.08"/></g></g><path class="cls-97" d="M227.71,274.12a.5.5,0,0,1,0,.12h0l-.05.1,0,0-.06.06-.06.07-.11.1c-.16.13-.3.26-.44.39h0l-.22.21-.22.19-.13.12a3.8,3.8,0,0,1-.38.29l-.24.18-.06.05-.17.14,0,0h0a1.94,1.94,0,0,0-.2.21l0,0,0,0-.06.09a.05.05,0,0,0,0,0s0,0,0,0l0,.06,0,0a.43.43,0,0,0,0,.05.08.08,0,0,0,0,0v0s0,.07,0,.11h0v4.29a.66.66,0,0,1,0-.14l0,0a.32.32,0,0,1,0-.09l0-.06a.25.25,0,0,1,0-.07l.06-.09,0-.05a1.94,1.94,0,0,1,.2-.21l0,0,.17-.14.06-.05.24-.18.38-.29.14-.13.44-.4.45-.39.08-.07,0,0a.23.23,0,0,0,.07-.07l0,0,0,0,0,0v0l0-.08h0s0,0,0,0v-.06h0Z"/><path class="cls-102" d="M231.79,281.63c0,.31,0,.61-.06.92a.25.25,0,0,1,0,.07h0l-.05.07,0,0,0,0a1.11,1.11,0,0,1-.16.12l0,0-.1.06,0,0-.13.06h0l-.14,0-.54.1-.23,0-.36.05-.25,0-.34,0-.33,0-.41,0h-.21l-.33,0h-.21l-.49.07h-.06a3.45,3.45,0,0,0-.46.12h-.06l-.38.15-.09.05-.15.08s-.05,0-.07.05l-.2.15-.09.07-.07.07-.08.09-.06.06-.11.17,0,.06v0a1.28,1.28,0,0,0-.13.29l0,0v4.29a2.21,2.21,0,0,1,.16-.35l0-.06a2,2,0,0,1,.17-.23l.08-.09.16-.14.19-.15.22-.13.1-.05a2.37,2.37,0,0,1,.4-.15l0,0,.46-.11h0l.55-.07h.17c.17,0,.34,0,.54,0h.19l.22,0,.33,0h.09l.24,0,.26,0,.35-.05.24,0h.06l.48-.09.13,0h0l.14-.05.05,0,.1-.06h0l.16-.12h0l0,0,0,0v0l0,0h0s0,0,0,0v0h0c0-.31,0-.61.05-.92a.43.43,0,0,0,0-.05c0-.23,0-.46,0-.69v-4.29C231.8,281.14,231.79,281.38,231.79,281.63Z"/><path class="cls-104" d="M197,284a2,2,0,0,0-.26-.18l-.24-.12h0l-.1,0-.1,0h-.08c-.61-.09-1.24-.17-1.86-.24l-.59-.06c-.41,0-.83-.09-1.25-.12h-.11l-.27,0H192l-.17,0h-.06l-.16-.05h0l-.17-.08a.69.69,0,0,1-.36-.66v4.29a.69.69,0,0,0,.36.66l.16.08h0l.12,0h.09l.07,0,.11,0h.07l.24,0h0c.46,0,.91.08,1.36.13l.59.06,1.86.24a1.34,1.34,0,0,1,.27.07h0a1.23,1.23,0,0,1,.26.12,1.35,1.35,0,0,1,.25.18,1.62,1.62,0,0,1,.67,1.16v-4.29A1.64,1.64,0,0,0,197,284Z"/><g class="cls-8"><path class="cls-4" d="M227.73,288.39v4.29L224,294.84v-4.29Z"/><g class="cls-107"><path class="cls-108" d="M227.73,288.39v4.29L224,294.84v-4.29l3.71-2.16"/></g></g><g class="cls-38"><path class="cls-108" d="M227.73,288.39v4.29L224,294.84v-4.29l3.71-2.16"/></g><path class="cls-109" d="M227.39,287.47c.26.26.24.61.34.92L224,290.55a9,9,0,0,1-1.42-.14,7.24,7.24,0,0,1-1.66-.62,5,5,0,0,0-4.52-.31,1.4,1.4,0,0,0-.73.5c-.32.78-.56,1.57-.8,2.36-.12.39-.5.57-1.18.57h-4.52a1.77,1.77,0,0,1-.92-.17.74.74,0,0,1-.36-.47,9,9,0,0,1-.41-1.28,1.73,1.73,0,0,0-.9-1.39,4.76,4.76,0,0,0-1.65-.49,2.91,2.91,0,0,0-1.72.11c-1,.41-2,.78-3,1.18a2,2,0,0,1-1.5.08l-3.61-2.08c-.32-.31-.17-.59.17-.87a8.75,8.75,0,0,1,1.21-1c1.31-.79,1.43-1.62.43-2.52a2,2,0,0,0-.26-.18,1.56,1.56,0,0,0-.56-.2c-1.25-.18-2.53-.33-3.81-.43a2.2,2.2,0,0,1-.9-.23.69.69,0,0,1-.36-.66c0-.79,0-1.57,0-2.36,0-.55.41-.79,1.29-.87,1.28-.12,2.55-.26,3.82-.41.61-.06,1.86-1.58,1.58-1.9-.05-.07-.15-.11-.22-.17-.71-.6-1.47-1.2-2.11-1.83-.25-.25-.23-.6-.33-.91l3.71-2.15a10.13,10.13,0,0,1,1.51.16,8.55,8.55,0,0,1,1.66.63,4.89,4.89,0,0,0,4.25.34c.48-.18.78-.31.88-.63.22-.74.51-1.47.72-2.21.12-.44.48-.65,1.25-.65h4.53a1.72,1.72,0,0,1,.87.17.69.69,0,0,1,.32.39,6.9,6.9,0,0,1,.47,1.39,1.57,1.57,0,0,0,.84,1.34,4.76,4.76,0,0,0,1.74.5,2.77,2.77,0,0,0,1.5-.11c.88-.37,1.75-.75,2.68-1.06a13.69,13.69,0,0,1,1.8-.34l3.73,2.16c.32.31.21.59-.14.87s-.88.84-1.41,1.21c-.87.61-1.37,1.21-.44,1.95a.48.48,0,0,1,.19.29.63.63,0,0,0,.3.38,2.37,2.37,0,0,0,.95.22c1.31.12,2.6.3,3.91.44a1.63,1.63,0,0,1,.64.18.47.47,0,0,1,.27.43,26.73,26.73,0,0,1-.06,2.83c0,.19-.44.45-.78.52a13.45,13.45,0,0,1-2.46.3c-1.9,0-3,.55-3.32,1.6,0,.26,0,.5.13.67C226,286.26,226.76,286.84,227.39,287.47Zm-10-2.82c3.31-1.84,3.45-5.06.13-7a13.26,13.26,0,0,0-12.06-.09c-3.35,1.89-3.42,5-.14,7l.11.07a13.48,13.48,0,0,0,12,0"/><path class="cls-110" d="M223.9,294.83H224v-4.29h-.11l-.38,0-.31,0-.23,0h-.07a1.65,1.65,0,0,1-.32-.06l-.26-.07c-.24-.07-.47-.15-.7-.24l-.23-.09-.12-.05-.35-.17a4.16,4.16,0,0,0-.47-.24l-.12-.05-.14-.06-.18-.06-.24-.08-.09,0a2,2,0,0,0-.35-.09h0l-.27,0-.27,0h0l-.27,0h-.59l-.21,0-.12,0h-.07l-.44.1-.1,0-.16,0-.39.14-.19.08h0l-.17.1h0a1.41,1.41,0,0,0-.18.14h0l0,0,0,0h0v0l0,0,0,0c-.06.14-.11.28-.16.42l0,.07c-.1.28-.2.57-.29.85l-.07.22c-.09.27-.17.53-.25.8l0,.12v0a.86.86,0,0,1-.07.1l0,0-.06.06-.06,0-.06,0-.15.06,0,0-.11,0-.08,0h0l-.15,0h-4.79a2.61,2.61,0,0,1-.28,0h0a.8.8,0,0,1-.23,0h0l-.18-.05h0l-.16-.07a.74.74,0,0,1-.36-.47,9,9,0,0,1-.41-1.28,1.73,1.73,0,0,0-.9-1.39,2.56,2.56,0,0,0-.37-.17h0l-.16-.06-.18-.06h0l-.25-.06-.14,0h0l-.46-.08h-.06l-.42,0h-.78l-.26.07h0l-.2.07c-1,.41-2,.78-3,1.18l-.31.1-.12,0-.3.05h0a1.38,1.38,0,0,1-.35,0h0a1.39,1.39,0,0,1-.38-.09l0,4.29.11,0,.14,0,.12,0h.45l.16,0,.1,0,.12,0,.08,0,.23-.08c1-.41,2-.77,3-1.18l.21-.07.26-.07.1,0h.67l.42.05h.07l.48.08.14,0,.28.07.19.06.19.07.37.17a1.69,1.69,0,0,1,.89,1.39,10.62,10.62,0,0,0,.42,1.28.73.73,0,0,0,.35.47l.14.06h.06l.05,0,.12,0h0l.09,0h5.43l.07,0,.11,0h0l.15-.07h0l0,0,.06,0,0,0,0,0,0,0h0a.41.41,0,0,0,.05-.09h0v0a.2.2,0,0,0,0-.08l0,0c.08-.27.16-.54.25-.8a1.87,1.87,0,0,1,.07-.22c.09-.28.19-.57.29-.85s.12-.33.19-.49l0-.06v0l0,0,0,0h0A1.41,1.41,0,0,1,216,294h0a1,1,0,0,1,.17-.1h0l.19-.08c.19-.07.37-.14.56-.19l.1,0,.51-.11.11,0,.49-.05h0a5.33,5.33,0,0,1,.56,0h0a5,5,0,0,1,.54.07h0a3.45,3.45,0,0,1,.46.12l.23.08a1.75,1.75,0,0,1,.32.12l.13,0a5.21,5.21,0,0,1,.47.24l.35.17.12.05.18.08h0a7.19,7.19,0,0,0,.7.24l.06,0,.2.05.11,0,.17,0h.34l.31,0Z"/><path class="cls-110" d="M223.9,294.83H224v-4.29h-.11l-.38,0-.31,0-.23,0h-.07a1.65,1.65,0,0,1-.32-.06l-.26-.07c-.24-.07-.47-.15-.7-.24l-.23-.09-.12-.05-.35-.17a4.16,4.16,0,0,0-.47-.24l-.12-.05-.14-.06-.18-.06-.24-.08-.09,0a2,2,0,0,0-.35-.09h0l-.27,0-.27,0h0l-.27,0h-.59l-.21,0-.12,0h-.07l-.44.1-.1,0-.16,0-.39.14-.19.08h0l-.17.1h0a1.41,1.41,0,0,0-.18.14h0l0,0,0,0h0v0l0,0,0,0c-.06.14-.11.28-.16.42l0,.07c-.1.28-.2.57-.29.85l-.07.22c-.09.27-.17.53-.25.8l0,.12v0a.86.86,0,0,1-.07.1l0,0-.06.06-.06,0-.06,0-.15.06,0,0-.11,0-.08,0h0l-.15,0h-4.79a2.61,2.61,0,0,1-.28,0h0a.8.8,0,0,1-.23,0h0l-.18-.05h0l-.16-.07a.74.74,0,0,1-.36-.47,9,9,0,0,1-.41-1.28,1.73,1.73,0,0,0-.9-1.39,2.56,2.56,0,0,0-.37-.17h0l-.16-.06-.18-.06h0l-.25-.06-.14,0h0l-.46-.08h-.06l-.42,0h-.78l-.26.07h0l-.2.07c-1,.41-2,.78-3,1.18l-.31.1-.12,0-.3.05h0a1.38,1.38,0,0,1-.35,0h0a1.39,1.39,0,0,1-.38-.09l0,4.29.11,0,.14,0,.12,0h.45l.16,0,.1,0,.12,0,.08,0,.23-.08c1-.41,2-.77,3-1.18l.21-.07.26-.07.1,0h.67l.42.05h.07l.48.08.14,0,.28.07.19.06.19.07.37.17a1.69,1.69,0,0,1,.89,1.39,10.62,10.62,0,0,0,.42,1.28.73.73,0,0,0,.35.47l.14.06h.06l.05,0,.12,0h0l.09,0h5.43l.07,0,.11,0h0l.15-.07h0l0,0,.06,0,0,0,0,0,0,0h0a.41.41,0,0,0,.05-.09h0v0a.2.2,0,0,0,0-.08l0,0c.08-.27.16-.54.25-.8a1.87,1.87,0,0,1,.07-.22c.09-.28.19-.57.29-.85s.12-.33.19-.49l0-.06v0l0,0,0,0h0A1.41,1.41,0,0,1,216,294h0a1,1,0,0,1,.17-.1h0l.19-.08c.19-.07.37-.14.56-.19l.1,0,.51-.11.11,0,.49-.05h0a5.33,5.33,0,0,1,.56,0h0a5,5,0,0,1,.54.07h0a3.45,3.45,0,0,1,.46.12l.23.08a1.75,1.75,0,0,1,.32.12l.13,0a5.21,5.21,0,0,1,.47.24l.35.17.12.05.18.08h0a7.19,7.19,0,0,0,.7.24l.06,0,.2.05.11,0,.17,0h.34l.31,0Z"/><g class="cls-38"><path class="cls-3" d="M198.75,290.47l0,4.29-3.6-2.08v-4.29l3.61,2.08"/></g><path class="cls-14" d="M213.83,279.64l.06,0a1.54,1.54,0,0,1-.06,2.89,5.61,5.61,0,0,1-4.91,0,1.53,1.53,0,0,1,.05-2.88A5.67,5.67,0,0,1,213.83,279.64Z"/></g></g></g></svg>