<svg id="Layer_1" data-name="Layer 1" xmlns="http://www.w3.org/2000/svg" xmlns:xlink="http://www.w3.org/1999/xlink" viewBox="0 0 512 447.15"><defs><style>.cls-1{mask:url(#mask);filter:url(#luminosity-noclip-2);}.cls-2{mix-blend-mode:multiply;fill:url(#linear-gradient);}.cls-3{fill:#eff1f7;}.cls-4{fill:url(#linear-gradient-2);}.cls-5{fill:#fff;}.cls-6{fill:url(#linear-gradient-3);}.cls-7{fill:#f9a3c0;}.cls-8{fill:url(#linear-gradient-4);}.cls-9{fill:#5579f9;}.cls-10{fill:#f3f6ff;}.cls-11{fill:#3655b5;}.cls-12{fill:url(#linear-gradient-5);}.cls-13{fill:#9cb0e6;}.cls-14{fill:#ffc043;}.cls-15{fill:url(#linear-gradient-6);}.cls-16{fill:url(#linear-gradient-7);}.cls-17{mask:url(#mask-2);}.cls-18{fill:url(#linear-gradient-8);}.cls-19{fill:#798ede;}.cls-20{fill:#87a0f9;}.cls-21{fill:url(#linear-gradient-9);}.cls-22{fill:url(#linear-gradient-10);}.cls-23{fill:#faaeb1;}.cls-24{fill:#e9ecf5;}.cls-25{fill:#b7c8f4;}.cls-26{fill:url(#linear-gradient-11);}.cls-27{fill:url(#linear-gradient-12);}.cls-28{fill:url(#linear-gradient-13);}.cls-29{fill:url(#linear-gradient-14);}.cls-30{fill:#3d3d3d;}.cls-31{fill:url(#linear-gradient-15);}.cls-32{filter:url(#luminosity-noclip);}</style><filter id="luminosity-noclip" x="189.61" y="-8647.69" width="164.38" height="32766" filterUnits="userSpaceOnUse" color-interpolation-filters="sRGB"><feFlood flood-color="#fff" result="bg"/><feBlend in="SourceGraphic" in2="bg"/></filter><mask id="mask" x="189.61" y="-8647.69" width="164.38" height="32766" maskUnits="userSpaceOnUse"><g class="cls-32"/></mask><linearGradient id="linear-gradient" x1="271.8" y1="252.71" x2="271.8" y2="362.73" gradientUnits="userSpaceOnUse"><stop offset="0"/><stop offset="1" stop-color="#fff"/></linearGradient><linearGradient id="linear-gradient-2" x1="172.45" y1="184.55" x2="374.69" y2="184.55" gradientUnits="userSpaceOnUse"><stop offset="0" stop-color="#c2ceff"/><stop offset="1" stop-color="#95aaff"/></linearGradient><linearGradient id="linear-gradient-3" x1="196.03" y1="57.49" x2="375.66" y2="57.49" gradientUnits="userSpaceOnUse"><stop offset="0" stop-color="#ee497b"/><stop offset="1" stop-color="#de2263"/></linearGradient><linearGradient id="linear-gradient-4" x1="207.7" y1="143.59" x2="231.85" y2="143.59" xlink:href="#linear-gradient-3"/><linearGradient id="linear-gradient-5" x1="361.35" y1="162.58" x2="367.13" y2="162.58" xlink:href="#linear-gradient-2"/><linearGradient id="linear-gradient-6" x1="202.54" y1="362.73" x2="341.55" y2="362.73" xlink:href="#linear-gradient-2"/><linearGradient id="linear-gradient-7" x1="205.12" y1="392.57" x2="214.65" y2="392.57" xlink:href="#linear-gradient-2"/><filter id="luminosity-noclip-2" x="189.61" y="252.71" width="164.38" height="110.02" filterUnits="userSpaceOnUse" color-interpolation-filters="sRGB"><feFlood flood-color="#fff" result="bg"/><feBlend in="SourceGraphic" in2="bg"/></filter><mask id="mask-2" x="189.61" y="252.71" width="164.38" height="110.02" maskUnits="userSpaceOnUse"><g class="cls-1"><polygon class="cls-2" points="354 252.71 189.61 252.71 215.91 362.73 327.7 362.73 354 252.71"/></g></mask><linearGradient id="linear-gradient-8" x1="271.8" y1="252.71" x2="271.8" y2="362.73" gradientUnits="userSpaceOnUse"><stop offset="0" stop-color="#8ba3f9"/><stop offset="1" stop-color="#8ba3f9"/></linearGradient><linearGradient id="linear-gradient-9" x1="402.58" y1="417.76" x2="436.52" y2="417.76" xlink:href="#linear-gradient-2"/><linearGradient id="linear-gradient-10" x1="470.28" y1="417.52" x2="503.11" y2="417.52" xlink:href="#linear-gradient-2"/><linearGradient id="linear-gradient-11" x1="447.29" y1="224.07" x2="477.5" y2="224.07" xlink:href="#linear-gradient-2"/><linearGradient id="linear-gradient-12" x1="457.63" y1="225.85" x2="486.06" y2="225.85" xlink:href="#linear-gradient-2"/><linearGradient id="linear-gradient-13" x1="113.76" y1="413.99" x2="147.7" y2="413.99" xlink:href="#linear-gradient-2"/><linearGradient id="linear-gradient-14" x1="47.17" y1="413.75" x2="80" y2="413.75" xlink:href="#linear-gradient-2"/><linearGradient id="linear-gradient-15" x1="99.42" y1="110.58" x2="147.03" y2="110.58" xlink:href="#linear-gradient-2"/></defs><title>Automation, AI &amp;amp; Big Data</title><path class="cls-3" d="M227,6.1c-14.1-4.9-29.34-7.89-44-4.91A56.88,56.88,0,0,0,143,33.59C131,60.94,141.84,95,126.9,120.88c-9.05,15.66-25.73,24.94-40.32,35.63s-28.72,25.76-28.15,43.85c.72,22.47,23,37.33,43,47.63,23.69,12.21,49,23.86,75.62,23.14,45.4-1.23,83.56-37.72,128.82-41.48,41.55-3.45,83.19,21.29,123.63,11.14,24.63-6.18,45.09-25.39,55-48.78s9.68-50.43,1.7-74.55c-17.89-54.07-62.66-70-113.71-55.67C322.73,75.7,271.72,21.66,227,6.1Z"/><path class="cls-3" d="M30.88,391.63c-7.62,1.81-15.43,3.84-21.68,8.55S-1.44,412.93.44,420.53C3.64,433.45,88.68,446.82,102,447c133.94,1.54,199.7-7.52,333.65-6,20.14.23,41,.33,59.48-7.64,6.29-2.71,12.65-6.86,14.77-13.38,3.06-9.4-4.46-19.56-13.69-23.11s-19.49-2.31-29.32-1.24c-64.28,7.06-102.65-16.72-193.19-6.81-46.13,5-85-17.59-132-14.18A701.34,701.34,0,0,0,30.88,391.63Z"/><path class="cls-4" d="M198,98.15v30.69s-20.47,42.28-25.58,65.81c0,0,8.69,4.85,24.63,4.55,0,0,11.19,57.83,18.51,68.11s70.12-.71,113.41-40,45.69-95.17,45.69-129.13Z"/><path class="cls-5" d="M228.77,271.82a47,47,0,0,1-4.76-.23c-4.64-.5-7.71-1.77-9.14-3.77-7-9.81-17.14-60.73-18.51-67.73h-.7c-15.08,0-23.29-4.48-23.64-4.67a.89.89,0,0,1-.34-1.2.88.88,0,0,1,1.19-.34c.09.05,8.69,4.73,24.2,4.45a.88.88,0,0,1,.87.71c.11.57,11.24,57.75,18.36,67.76,1.1,1.55,3.83,2.6,7.9,3,20.69,2.24,69.71-11.87,104.21-43.21,45.4-41.24,45.4-102.38,45.4-128.48a.88.88,0,0,1,1.76,0c0,26.34,0,88-46,129.78C309.2,246.45,286.48,257.12,271,262.8S239.83,271.82,228.77,271.82Z"/><path class="cls-6" d="M200.56,98.15s-6.26-4.79-4.07-15.74,11.27-20,24.72-18.46a23.86,23.86,0,0,1,0-20.66c5.32-10.95,22.22-11.26,29.1-8.13,0,0,.94-10.95,11.26-15.65s28-3.51,34.5,5.95a25,25,0,0,1,4.3,9.39s2.33-7.83,10.56-9.7,23.86,1.56,25.42,18.77c0,0,11.58-.94,18.47,5.63s10.15,21,5.54,25.66c0,0,10-1.06,14.33,8.42,3.46,7.59-3.44,14.52-3.44,14.52Z"/><path class="cls-7" d="M260.89,81.55h-.05a.87.87,0,0,1-.83-.92c.16-2.66-4-7.56-10.66-8.89-6.3-1.26-11.13,3.25-11.17,3.3a.91.91,0,0,1-.72.24.93.93,0,0,1-.64-.41c-3.09-5-8.26-8.32-15.81-10.07a.87.87,0,0,1-.65-1,.89.89,0,0,1,1-.66c7.6,1.76,13,5,16.35,10A15,15,0,0,1,249.7,70c7.18,1.44,12.29,6.84,12.06,10.71A.87.87,0,0,1,260.89,81.55Z"/><path class="cls-7" d="M303.11,73.19a.87.87,0,0,1-.79-.51c-.11-.23-2.68-5.82,0-10.66,4.53-8.1,13.18-6.54,16.2-5.69.52-3.16,3.26-11.76,17.71-13.28a.88.88,0,1,1,.19,1.74c-16.13,1.69-16.27,12.59-16.26,12.7a.88.88,0,0,1-1.2.82,17,17,0,0,0-5.86-1,10.28,10.28,0,0,0-9.25,5.53c-2.27,4,0,9,0,9.06a.87.87,0,0,1-.43,1.16A.81.81,0,0,1,303.11,73.19Z"/><path class="cls-7" d="M302,99a.87.87,0,0,1-.87-.87c0-.11.13-11,12-11.81a14.47,14.47,0,0,1,9.67,3.17,12.11,12.11,0,0,1,2.17-7.1c2-2.74,5.23-4.37,9.62-4.85a.88.88,0,1,1,.19,1.74c-3.87.43-6.7,1.82-8.39,4.13-2.54,3.47-1.69,7.95-1.68,8a.88.88,0,0,1-1.51.76s-4.18-4.48-10-4.11c-10.22.69-10.33,9.68-10.33,10.07A.87.87,0,0,1,302,99Z"/><path class="cls-8" d="M207.73,131.58l24.12,8.76a168.4,168.4,0,0,0-19.58,15.26S207.25,146.14,207.73,131.58Z"/><path class="cls-9" d="M371.92,128.75h-94a.84.84,0,0,1-.62-.26l-10.86-10.85a.88.88,0,0,1,0-1.24.86.86,0,0,1,1.24,0l10.6,10.6h93.63a.88.88,0,1,1,0,1.75Z"/><path class="cls-9" d="M262.61,119.74a7.18,7.18,0,1,1,7.18-7.18A7.18,7.18,0,0,1,262.61,119.74Zm0-12.6a5.42,5.42,0,1,0,5.43,5.42A5.42,5.42,0,0,0,262.61,107.14Z"/><path class="cls-9" d="M267.07,164.86a.83.83,0,0,1-.62-.26.87.87,0,0,1,0-1.23l10.86-10.86a.84.84,0,0,1,.62-.26H368a.88.88,0,0,1,0,1.75H278.29l-10.6,10.6A.85.85,0,0,1,267.07,164.86Z"/><path class="cls-9" d="M262.61,176.06a7.18,7.18,0,1,1,7.18-7.18A7.18,7.18,0,0,1,262.61,176.06Zm0-12.6a5.42,5.42,0,1,0,5.43,5.42A5.42,5.42,0,0,0,262.61,163.46Z"/><path class="cls-9" d="M289.12,221.3a7.18,7.18,0,1,1,7.18-7.17A7.18,7.18,0,0,1,289.12,221.3Zm0-12.59a5.42,5.42,0,1,0,5.42,5.42A5.42,5.42,0,0,0,289.12,208.71Z"/><path class="cls-9" d="M309.11,119.74a7.18,7.18,0,1,1,7.18-7.18A7.18,7.18,0,0,1,309.11,119.74Zm0-12.6a5.42,5.42,0,1,0,5.43,5.42A5.42,5.42,0,0,0,309.11,107.14Z"/><path class="cls-9" d="M268.91,200.62a7.18,7.18,0,1,1,7.18-7.18A7.18,7.18,0,0,1,268.91,200.62Zm0-12.6a5.43,5.43,0,1,0,5.43,5.42A5.42,5.42,0,0,0,268.91,188Z"/><path class="cls-9" d="M370.17,145.47H267.58a.87.87,0,0,1-.62-.26L256.1,134.35a.88.88,0,0,1,1.24-1.24L268,143.72H370.17a.88.88,0,0,1,0,1.75Z"/><path class="cls-9" d="M252.27,136.46a7.18,7.18,0,1,1,7.18-7.18A7.19,7.19,0,0,1,252.27,136.46Zm0-12.6a5.42,5.42,0,1,0,5.42,5.42A5.42,5.42,0,0,0,252.27,123.86Z"/><path class="cls-9" d="M289.12,208.71a.89.89,0,0,1-.88-.88V167.08a.88.88,0,0,1,.88-.87h72.49a.88.88,0,1,1,0,1.75H290v39.87A.89.89,0,0,1,289.12,208.71Z"/><path class="cls-9" d="M268.91,261a.88.88,0,0,1-.87-.88V199.74a.88.88,0,0,1,1.75,0v60.33A.88.88,0,0,1,268.91,261Z"/><path class="cls-9" d="M256.31,239.1a7.18,7.18,0,1,1,7.18-7.17A7.18,7.18,0,0,1,256.31,239.1Zm0-12.6a5.43,5.43,0,1,0,5.43,5.43A5.43,5.43,0,0,0,256.31,226.5Z"/><path class="cls-9" d="M256.31,266a.88.88,0,0,1-.87-.88V238.23a.88.88,0,1,1,1.75,0v26.84A.88.88,0,0,1,256.31,266Z"/><path class="cls-9" d="M309.11,107.14a.87.87,0,0,1-.87-.88V99.57a.88.88,0,1,1,1.75,0v6.69A.87.87,0,0,1,309.11,107.14Z"/><rect class="cls-10" x="352.97" y="154.08" width="159.03" height="123.42" rx="10"/><path class="cls-5" d="M503.24,278.37H361.73a9.65,9.65,0,0,1-9.64-9.64V177.26a.88.88,0,0,1,1.76,0v91.47a7.89,7.89,0,0,0,7.88,7.89H503.24a.88.88,0,0,1,0,1.75Z"/><path class="cls-11" d="M503.24,154.08H361.73a8.76,8.76,0,0,0-8.76,8.76v8.24H512v-8.24A8.76,8.76,0,0,0,503.24,154.08Z"/><path class="cls-12" d="M367.13,162.58a2.89,2.89,0,1,1-2.89-2.89A2.89,2.89,0,0,1,367.13,162.58Z"/><circle class="cls-13" cx="364.24" cy="185.2" r="2.63"/><circle class="cls-10" cx="377.49" cy="162.58" r="2.89"/><path class="cls-14" d="M393.63,162.58a2.89,2.89,0,1,1-2.89-2.89A2.88,2.88,0,0,1,393.63,162.58Z"/><path class="cls-13" d="M406.19,187.83H378.55a2.63,2.63,0,0,1,0-5.26h27.64a2.63,2.63,0,0,1,0,5.26Z"/><path class="cls-13" d="M447.38,187.83H419.75a2.63,2.63,0,1,1,0-5.26h27.63a2.63,2.63,0,0,1,0,5.26Z"/><circle class="cls-13" cx="364.24" cy="199.22" r="2.63"/><path class="cls-13" d="M393.92,201.85H378.55a2.63,2.63,0,0,1,0-5.26h15.37a2.63,2.63,0,0,1,0,5.26Z"/><path class="cls-13" d="M482.44,201.85h-75a2.63,2.63,0,0,1,0-5.26h75a2.63,2.63,0,0,1,0,5.26Z"/><circle class="cls-13" cx="364.24" cy="214.12" r="2.63"/><path class="cls-13" d="M419.49,216.75H378.55a2.63,2.63,0,0,1,0-5.26h40.94a2.63,2.63,0,0,1,0,5.26Z"/><path class="cls-11" d="M341.55,362.73h-139l-10.63,36.06s12.18,14.1,82.07,14.1,78.2-14.1,78.2-14.1Z"/><ellipse class="cls-15" cx="272.04" cy="362.73" rx="69.51" ry="9.13"/><path class="cls-16" d="M214.65,392.57a4.77,4.77,0,1,1-4.77-4.76A4.76,4.76,0,0,1,214.65,392.57Z"/><path class="cls-10" d="M233.4,395.78a4.77,4.77,0,1,1-4.77-4.76A4.77,4.77,0,0,1,233.4,395.78Z"/><polygon class="cls-14" points="331.59 385.36 336.87 383.85 339.51 396.67 333.85 398.31 331.59 385.36"/><polygon class="cls-14" points="321.73 386.97 327.4 386.36 328.78 399.9 321.73 400.88 321.73 386.97"/><g class="cls-17"><polygon class="cls-18" points="354 252.71 189.61 252.71 215.91 362.73 327.7 362.73 354 252.71"/></g><ellipse class="cls-19" cx="272.04" cy="362.73" rx="56.14" ry="5.55"/><path class="cls-5" d="M272.05,363.61H272a.87.87,0,0,1-.81-.94l3.17-40.2a.88.88,0,1,1,1.75.14l-3.17,40.2A.88.88,0,0,1,272.05,363.61Z"/><path class="cls-5" d="M241.47,363.64a.87.87,0,0,1-.86-.73l-10.18-59.24a.87.87,0,1,1,1.72-.29l10.19,59.23a.87.87,0,0,1-.72,1Z"/><path class="cls-5" d="M313.45,361.34a.69.69,0,0,1-.2,0,.87.87,0,0,1-.66-1.05L338.65,246.4a.88.88,0,1,1,1.71.39L314.3,360.65A.87.87,0,0,1,313.45,361.34Z"/><path class="cls-7" d="M442.06,114.37h-6.53a19.86,19.86,0,0,0-2.42-5.83l4.62-4.62a.62.62,0,0,0,0-.87l-5.58-5.58a.62.62,0,0,0-.87,0l-4.62,4.62a19.81,19.81,0,0,0-5.84-2.42V93.13a.61.61,0,0,0-.61-.61h-7.89a.61.61,0,0,0-.61.61v6.54a19.81,19.81,0,0,0-5.84,2.42l-4.62-4.62a.62.62,0,0,0-.87,0l-5.58,5.58a.62.62,0,0,0,0,.87l4.62,4.62a19.86,19.86,0,0,0-2.42,5.83h-6.53a.61.61,0,0,0-.61.61v7.9a.61.61,0,0,0,.61.61H397a19.81,19.81,0,0,0,2.42,5.84L394.8,134a.62.62,0,0,0,0,.87l5.58,5.58a.62.62,0,0,0,.87,0l4.62-4.62a19.81,19.81,0,0,0,5.84,2.42v6.53a.61.61,0,0,0,.61.61h7.89a.61.61,0,0,0,.61-.61V138.2a19.81,19.81,0,0,0,5.84-2.42l4.62,4.62a.62.62,0,0,0,.87,0l5.58-5.58a.62.62,0,0,0,0-.87l-4.62-4.62a19.81,19.81,0,0,0,2.42-5.84h6.53a.61.61,0,0,0,.61-.61V115A.61.61,0,0,0,442.06,114.37Zm-25.79,15.24a10.68,10.68,0,1,1,10.67-10.68A10.68,10.68,0,0,1,416.27,129.61Z"/><path class="cls-20" d="M476.47,104l-4.24-1.6a14,14,0,0,0-.14-4.38l4.13-1.87a.43.43,0,0,0,.21-.56l-2.26-5a.43.43,0,0,0-.56-.21l-4.13,1.87a13.61,13.61,0,0,0-3.2-3l1.6-4.24a.43.43,0,0,0-.25-.55l-5.12-1.93a.43.43,0,0,0-.55.25L460.36,87a13.61,13.61,0,0,0-4.37.14L454.12,83a.42.42,0,0,0-.56-.21l-5,2.26a.41.41,0,0,0-.21.56l1.87,4.13a13.61,13.61,0,0,0-3,3.19L443,91.35a.43.43,0,0,0-.55.25l-1.93,5.13a.42.42,0,0,0,.25.54l4.24,1.6a13.66,13.66,0,0,0,.14,4.38L441,105.12a.43.43,0,0,0-.21.56l2.26,5a.43.43,0,0,0,.56.21l4.13-1.87a13.42,13.42,0,0,0,3.2,3l-1.6,4.25a.42.42,0,0,0,.24.54l5.13,1.93a.42.42,0,0,0,.55-.24l1.59-4.25a13.38,13.38,0,0,0,4.38-.14l1.87,4.13a.42.42,0,0,0,.56.21l5-2.26a.42.42,0,0,0,.21-.56L467,111.49a13.65,13.65,0,0,0,3-3.2l4.24,1.6a.43.43,0,0,0,.55-.25l1.93-5.12A.43.43,0,0,0,476.47,104ZM456,107.55a7.41,7.41,0,1,1,9.54-4.32A7.4,7.4,0,0,1,456,107.55Z"/><path class="cls-21" d="M434.61,410.91s2.43,7.45,1.81,10.86-18.74,2.48-25.09,2.78-9.29-.77-8.67-2.47,7.9-2,11.46-4.32a71.91,71.91,0,0,0,8.21-6.85Z"/><path class="cls-22" d="M498.89,407.68s4.05,6.71,4.22,10.17-17.7,6.65-23.81,8.39-9.23,1.34-9-.46,7.25-3.71,10.19-6.79a72.31,72.31,0,0,0,6.45-8.53Z"/><path class="cls-11" d="M420.56,335.27s-7.14,17.76-4.3,44.26,4.3,31.38,4.3,31.38,4.13,4.45,14.05,0c0,0-2.08-32.22,0-42.19s16.52-43,16.52-43,5.47,35.78,12.58,48,22.72,36.83,22.72,36.83a13,13,0,0,0,12.82-2.41S485.36,377.64,483,362.09s-3.41-44.86-3.41-44.86L453,294.68H440.21Z"/><path class="cls-23" d="M430.91,191.44s-1.09,3,0,8c0,0-1.45,5.72-2.81,7.45s2.45,1.54,3.27,1.54c0,0,1.72,6.45,3.18,7s7.71-3,7.71-3l-2-15.09Z"/><path class="cls-23" d="M437.57,211.22s3,6.73,2.84,10l4.78-3.43L443,209.73Z"/><path class="cls-24" d="M442.94,218.15s-16.92,4.63-23.43,14.32-8.1,19.52-15.05,20.25-15-6.13-15-6.13-6.8,2.66-7.95,9.16c0,0,9.4,15.05,24,14.76s28.35-10,28.35-10Z"/><path class="cls-23" d="M389.42,246.59a68.89,68.89,0,0,0-2.09-9.24c-1.38-4.38-2.5-11-4.76-10.78s-.25,7.15,0,9.53c0,0-8.9,3-8,6.64s5.51,9.78,8.65,11.16Z"/><path class="cls-24" d="M429,234.42c-1.38,5.53.36,41.31-5.16,53.23s-16.58,47.53-15.13,51.11,17,15.17,37.82,9.4c5.23-1.46,8.43-18.33,8.43-18.33s3.78,16.5,7.11,17.8,23.13-3.7,25.54-6.85,3.7-20.54,0-31.45S472,262.87,471.84,253.9s-2.77-27.33-2.77-27.33l-26.81-6.67Z"/><path class="cls-24" d="M475.73,236.24s8.48,20,8.13,27.38-8.13,14.62-8.13,14.62l-8.33-37.19Z"/><path class="cls-5" d="M403.41,253.65c-6.92,0-14.23-6.11-14.55-6.39a.87.87,0,0,1-.11-1.23.88.88,0,0,1,1.24-.11c.08.07,7.89,6.59,14.38,5.93,4.14-.44,6.21-4.59,9.08-10.33a83,83,0,0,1,5.33-9.54c6.61-9.85,23.22-14.49,23.93-14.68a.88.88,0,0,1,1.07.62.87.87,0,0,1-.61,1.07c-.17,0-16.69,4.66-22.94,14A80.55,80.55,0,0,0,415,242.3c-3,6-5.37,10.76-10.47,11.29A10.74,10.74,0,0,1,403.41,253.65Z"/><path class="cls-11" d="M432.05,184.93c-5.65,3.82-2.69,13,1.94,16.88s8.37,9.86,7.39,14.64.23,12.7,6.65,13a10.38,10.38,0,0,1,9.86,9.71c0,3.73,4.18,9.86,15.54,6.42s14.93-8.06,14.34-12.25-4.63-3.88-7.62-7.32,1.34-5.82-3.89-11.2-13.14-5.23-13.44-9.41,1.79-16.43-5.68-22.56S442.21,178.06,432.05,184.93Z"/><path class="cls-25" d="M427.67,264.59a.42.42,0,0,1-.39-.25.43.43,0,0,1,.2-.58,33.3,33.3,0,0,0,12.36-11.28.44.44,0,0,1,.75.46,34.2,34.2,0,0,1-12.73,11.61A.41.41,0,0,1,427.67,264.59Z"/><path class="cls-25" d="M476.9,276.31a.43.43,0,0,1-.42-.31c-3.3-11.27-5-18.7-5.08-22.09a.45.45,0,0,1,.43-.45h0a.44.44,0,0,1,.44.43c.07,3.31,1.76,10.67,5,21.86a.46.46,0,0,1-.3.55Z"/><path class="cls-26" d="M476.62,244h-.12a15.69,15.69,0,0,1-12.61-11.23c-.25-.94-.42-1.92-.59-2.88-.45-2.58-.87-5-2.66-6.42a9.67,9.67,0,0,0-4.1-1.49,15,15,0,0,1-3.7-1.12,10.28,10.28,0,0,1-5.15-7.27,28.61,28.61,0,0,1-.13-8.66.86.86,0,0,1,.94-.8.88.88,0,0,1,.8,1,27.74,27.74,0,0,0,.1,8.14,8.71,8.71,0,0,0,4.21,6.07,13.86,13.86,0,0,0,3.29,1,11.16,11.16,0,0,1,4.82,1.83c2.32,1.83,2.82,4.71,3.31,7.5.17,1,.33,1.87.56,2.74a13.88,13.88,0,0,0,11.16,9.94.87.87,0,0,1-.13,1.74Z"/><path class="cls-27" d="M485.18,239.82h-.12a15.69,15.69,0,0,1-12.61-11.23c-.25-.94-.42-1.93-.59-2.88-.45-2.58-.88-5-2.66-6.42a9.68,9.68,0,0,0-4.1-1.5,15.64,15.64,0,0,1-3.71-1.11,9.1,9.1,0,0,1-3.64-3.45.88.88,0,0,1,.3-1.21.87.87,0,0,1,1.2.3,7.27,7.27,0,0,0,2.92,2.79,13.85,13.85,0,0,0,3.29,1,11.17,11.17,0,0,1,4.82,1.84c2.31,1.82,2.82,4.7,3.31,7.49.17,1,.33,1.87.55,2.74a13.9,13.9,0,0,0,11.17,9.94.88.88,0,0,1-.13,1.75Z"/><path class="cls-11" d="M432.9,202.82a.43.43,0,0,1-.43-.39l-.42-3.94a.44.44,0,0,1,.39-.48.43.43,0,0,1,.48.39l.42,3.93a.45.45,0,0,1-.39.49Z"/><path class="cls-11" d="M432.2,211.55a.43.43,0,0,1-.43-.35.44.44,0,0,1,.35-.52,5.76,5.76,0,0,0,2.61-1.27.44.44,0,0,1,.61.64,6.78,6.78,0,0,1-3.06,1.5Z"/><path class="cls-28" d="M115.67,407.14s-2.43,7.45-1.81,10.86,18.74,2.48,25.09,2.79,9.29-.78,8.67-2.48-7.9-2-11.46-4.32a71.91,71.91,0,0,1-8.21-6.85Z"/><path class="cls-29" d="M51.39,403.91s-4,6.71-4.22,10.17,17.69,6.65,23.81,8.39,9.22,1.34,9-.46-7.24-3.71-10.18-6.79a72.31,72.31,0,0,1-6.45-8.53Z"/><path class="cls-23" d="M173.17,223.53a44.29,44.29,0,0,1,0-5.71c.21-2.46,0-7-.73-8.11s3-1.21,3.47,1.32.73,6.79,2.24,3.83,4.85-7.19,7.38-5.91,7,7.7,4.38,10.6-14.28,8.89-14.28,8.89Z"/><path class="cls-30" d="M129.72,331.5s7.13,17.76,4.3,44.26-4.3,31.38-4.3,31.38-4.13,4.45-14,0c0,0,2.07-32.22,0-42.19s-14.16-42.42-14.16-42.42-5.47,35.77-12.58,48-25.08,36.28-25.08,36.28A13,13,0,0,1,51,404.38s13.89-30.51,16.22-46.06,3.42-44.86,3.42-44.86l26.57-22.55h12.83Z"/><path class="cls-23" d="M110.75,183.63l2,5.48s4.93,7.44,6.16,8.77-.22,2.91-3,3.58c0,0,.78,7.82-.12,9s-11.38,3.67-18.52-4.14a23.39,23.39,0,0,1-6.36-16.52s-1.34-9.82,7.7-10.16S110.54,181.21,110.75,183.63Z"/><path class="cls-11" d="M86.62,183.36s-7.65,3-4.89,11.26,7.44,9.57,7.44,13,4.08,2.66,4.08,2.66l4-7.87Z"/><path class="cls-23" d="M94.48,195.76s-4.94-1.22-6.73,1.68S90,208.7,98.3,204Z"/><path class="cls-23" d="M92.25,203.13s1.75,7.14.64,10.6-5.63,3.13-5.63,3.13,2.61,18.52,13.66,19.42,13.72-10,13.72-10l-3.56-11.43-4.24-.34-.34-4.8-10-6.94Z"/><path class="cls-11" d="M92.16,215.07S91,229.8,103,227.57s5.68-12.91,5.68-12.91H113l3.37,16.05-6.27,60.2a53.68,53.68,0,0,1-12.83,0L85.63,216.69Z"/><path class="cls-24" d="M87.5,214.54a1.4,1.4,0,0,1,2,1.16c.24,4.06,1.34,13.67,6.37,26.9,6.76,17.8,9.54,31.61,6.78,45.62S84.2,340,75.92,343,49.86,331.12,47.81,329.2s7.73-17.41,13.25-27.39,14.71-23.78,14.58-31S72.1,225,72.1,225,74,221.4,87.5,214.54Z"/><path class="cls-25" d="M76.64,324a1,1,0,0,1-.34-.06c-1.49-.5-12.89-5.54-12.89-8.16,0-2.35,5.4-17,9.67-17.11a.51.51,0,0,1,.24.07c1.89,1.12,11.37,6.82,12,8.49s-4.16,12.85-7.12,15.89A2.32,2.32,0,0,1,76.64,324ZM73,299.53c-1.44.18-3.51,2.9-5.59,7.33-1.87,4-3.11,8-3.11,8.89,0,1.59,9.13,6.27,12.29,7.33.13.05.43-.07.89-.53,3-2.92,7.37-13.92,7-15.05S77.58,302.26,73,299.53Z"/><path class="cls-25" d="M81,311.75c-1.43,0-4.69-1.9-10.21-5.95l-.37-.27c-1.18-.84.94-4.55,2.31-6.68a.43.43,0,0,1,.6-.14.44.44,0,0,1,.13.61c-1.59,2.49-2.77,5.07-2.52,5.52l.36.25c7.1,5.21,9.17,5.86,9.77,5.78,1.4-.18,3-2.74,3.43-3.71a.44.44,0,0,1,.59-.2.45.45,0,0,1,.2.59c-.2.4-2,3.92-4.11,4.19Z"/><path class="cls-25" d="M102.15,273.12a.44.44,0,0,1-.41-.28,64.71,64.71,0,0,0-5.54-11.28c-2.49-3.69-8.53-8.17-12.54-11.14a35.71,35.71,0,0,1-4.2-3.36,1.35,1.35,0,0,1-.3-1.19c.28-1.4,2.6-3,4.16-3.89-2.83-.22-4.77-.87-5.8-2a2.22,2.22,0,0,1-.68-1.49c0-3.93,6.22-21.4,6.49-22.15a.43.43,0,0,1,.56-.26.43.43,0,0,1,.26.56c-.06.18-6.43,18.07-6.43,21.87,0,0,.08,2.51,7.18,2.63a.46.46,0,0,1,.42.34.44.44,0,0,1-.23.49c-1.83.93-4.83,2.85-5.07,4a.48.48,0,0,0,.11.46,37.37,37.37,0,0,0,4.06,3.22c4.29,3.18,10.17,7.54,12.74,11.35a65.2,65.2,0,0,1,5.62,11.45.44.44,0,0,1-.24.57Z"/><path class="cls-24" d="M110.27,213.66a.33.33,0,0,0-.38.4c.85,3.49,5.67,24.47,2.87,40.19-3.07,17.2-9.71,41.22-5.79,61.49s6.41,29.73,14.08,27.51,15.67-3.91,12.09-16.52-6.63-51.39-5.84-68.44,1-34.11,1-34.11S120.92,216,110.27,213.66Z"/><path class="cls-25" d="M111.86,274.16h-.12a.44.44,0,0,1-.3-.54c1.14-4.12,3.76-10.28,6.3-16.24s6.07-14.28,5.42-15.2c-1.62-1.5-6.39-3.06-6.44-3.08a.44.44,0,0,1,0-.83c2.62-.93,6.15-2.79,5.76-4-1.19-3.76-9.79-19.22-9.88-19.37a.44.44,0,1,1,.77-.43c.35.64,8.73,15.7,10,19.54.62,2-3.1,3.81-5.18,4.66,1.58.58,4.38,1.72,5.63,2.89,1.08,1-.66,5.47-5.21,16.17-2.53,5.94-5.14,12.07-6.27,16.13A.43.43,0,0,1,111.86,274.16Z"/><path class="cls-24" d="M72.1,225c-8.16,6.62-19.62,23.57-19.62,39.39s8.86,31.44,8.86,31.44l8.57-4.49s-4.68-21.47-.64-28.08A93.83,93.83,0,0,1,79,250.46Z"/><path class="cls-23" d="M62,295s.32,11.51,1.54,13.14,10.3,1.42,11.3-2-2.44-6.3-1.72-8.33.68-1,2.22.4,6.25,1.37,2.82-2.41-9-4.49-9-4.49Z"/><path class="cls-24" d="M128.35,224.18c5.2,4.07,13.68,9.68,26.54,4.89s17.37-7.8,17.37-7.8l6.84,7s-17.8,33.26-55.46,20.8Z"/><path class="cls-11" d="M92.25,195.47s1.58,6.17,5,5.95.86-13.81.86-13.81,14.12,1,19.65-3.62c2.56-2.12,2.35-5.27-2.12-4.34,0,0,4.13-3.63,2.12-7.24s-3.71-1.06-8.49,1.38a29.93,29.93,0,0,1-10.84,2.66s-10.74-1.38-11.8,6.91C86.62,183.36,86.72,196.85,92.25,195.47Z"/><path class="cls-25" d="M119.85,323a1.31,1.31,0,0,1-.89-.4c-2.69-2.55-3.73-19.23-3.73-20.38,0-1.88,8.57-3.33,13.68-4a.43.43,0,0,1,.5.37.44.44,0,0,1-.38.49c-6,.82-12.62,2.26-12.93,3.18,0,2.47,1.29,17.67,3.46,19.72a.53.53,0,0,0,.31.16c2.8-.16,11.61-2.48,11.69-2.5a.44.44,0,0,1,.23.85c-.37.09-9,2.36-11.87,2.52Z"/><path class="cls-25" d="M119.89,308.6c-2.26,0-4.26-5.22-4.64-6.26a.44.44,0,0,1,.27-.56.43.43,0,0,1,.56.26c.85,2.36,2.6,5.68,3.81,5.68,2,0,9.63-2.22,9.71-2.24a.44.44,0,0,1,.24.84C129.52,306.41,122,308.6,119.89,308.6Z"/><path class="cls-5" d="M145.34,231.79c-7.47,0-13.14-3.49-17.53-6.92a.88.88,0,1,1,1.08-1.38c6.14,4.8,14,9.12,25.69,4.76,12.57-4.68,17.15-7.68,17.19-7.71a.89.89,0,0,1,1.22.25.87.87,0,0,1-.25,1.21c-.18.13-4.74,3.12-17.55,7.89A28,28,0,0,1,145.34,231.79Z"/><path class="cls-11" d="M109,195.19a.43.43,0,0,1-.43-.36l-.46-2.76a.44.44,0,1,1,.86-.14l.46,2.75a.44.44,0,0,1-.36.51Z"/><path class="cls-11" d="M112.13,206.46a3.93,3.93,0,0,1-2.7-.74.42.42,0,0,1,0-.61.44.44,0,0,1,.62,0c.91.89,4.28.41,6.19-.1a.44.44,0,1,1,.23.84A18.64,18.64,0,0,1,112.13,206.46Z"/><rect class="cls-10" x="67.11" y="41.23" width="104.43" height="103.97" rx="8.42"/><path class="cls-11" d="M164.16,41.23H74.49a7.39,7.39,0,0,0-7.38,7.39v6.93H171.55V48.62A7.39,7.39,0,0,0,164.16,41.23Z"/><circle class="cls-14" cx="76.61" cy="48.39" r="2.43"/><circle class="cls-10" cx="87.77" cy="48.39" r="2.43"/><circle class="cls-24" cx="98.93" cy="48.39" r="2.43"/><circle class="cls-11" cx="119.14" cy="96.64" r="27.89" transform="translate(4.83 198.94) rotate(-80.87)"/><path class="cls-14" d="M119.14,68.75V96.64H147A27.89,27.89,0,0,0,119.14,68.75Z"/><path class="cls-31" d="M99.42,116.36A27.89,27.89,0,0,0,147,96.64H119.14Z"/><path class="cls-5" d="M164.43,146.27H73.33a.88.88,0,0,1,0-1.75h91.1a6.64,6.64,0,0,0,6.63-6.63V61.23a.88.88,0,1,1,1.75,0v76.66A8.39,8.39,0,0,1,164.43,146.27Z"/></svg>