<svg xmlns="http://www.w3.org/2000/svg" xmlns:xlink="http://www.w3.org/1999/xlink" viewBox="0 0 512 242.55"><defs><style>.cls-1{isolation:isolate;}.cls-2,.cls-4{fill:#b7c6f7;}.cls-2{opacity:0.25;}.cls-3{fill:#6a9dd8;}.cls-5{fill:#3655b5;}.cls-6{fill:url(#linear-gradient);}.cls-7{fill:url(#linear-gradient-2);}.cls-8{fill:url(#linear-gradient-3);}.cls-9{fill:url(#linear-gradient-4);}.cls-10{fill:url(#linear-gradient-5);}.cls-11{fill:#1d1d4d;}.cls-12{fill:#fff;}.cls-13{fill:url(#linear-gradient-6);}.cls-14{fill:url(#linear-gradient-7);}.cls-15{fill:url(#linear-gradient-8);}.cls-16{fill:url(#linear-gradient-9);}.cls-17{fill:url(#linear-gradient-10);}.cls-18{fill:#ffc043;}.cls-19{fill:#fcb47f;}.cls-20{fill:#eaaa7f;}.cls-21{fill:#e2ac76;}.cls-22{fill:url(#linear-gradient-11);}.cls-23{fill:url(#linear-gradient-12);}.cls-24{fill:url(#linear-gradient-13);}.cls-25{fill:url(#linear-gradient-14);}.cls-26{fill:url(#linear-gradient-15);}.cls-27{fill:url(#linear-gradient-16);}.cls-28{fill:url(#linear-gradient-17);}.cls-29{fill:url(#linear-gradient-18);}.cls-30{fill:url(#linear-gradient-19);}.cls-31{fill:url(#linear-gradient-20);}.cls-32{fill:#a06535;}.cls-33{fill:#5e3838;}.cls-34{fill:#b26a2f;}.cls-35{mix-blend-mode:multiply;}.cls-36{fill:#e3e3e3;opacity:0.47;}.cls-37{opacity:0.3;}.cls-38{fill:#f49b5f;}.cls-39{fill:url(#linear-gradient-21);}.cls-40{fill:#432e36;}.cls-41{fill:url(#linear-gradient-22);}.cls-42{fill:url(#linear-gradient-23);}.cls-43{fill:url(#linear-gradient-24);}.cls-44{fill:url(#linear-gradient-25);}.cls-45{fill:url(#linear-gradient-26);}</style><linearGradient id="linear-gradient" x1="110.29" y1="136.15" x2="129.64" y2="136.15" gradientUnits="userSpaceOnUse"><stop offset="0" stop-color="#ee497b"/><stop offset="1" stop-color="#de2263"/></linearGradient><linearGradient id="linear-gradient-2" x1="110" y1="136.15" x2="129.93" y2="136.15" xlink:href="#linear-gradient"/><linearGradient id="linear-gradient-3" x1="100.71" y1="95.96" x2="133.41" y2="95.96" xlink:href="#linear-gradient"/><linearGradient id="linear-gradient-4" x1="74.15" y1="115.74" x2="94.91" y2="115.74" xlink:href="#linear-gradient"/><linearGradient id="linear-gradient-5" y1="152.66" x2="483.07" y2="152.66" gradientUnits="userSpaceOnUse"><stop offset="0" stop-color="#c2ceff"/><stop offset="1" stop-color="#95aaff"/></linearGradient><linearGradient id="linear-gradient-6" x1="352.44" y1="208.73" x2="353.49" y2="208.73" xlink:href="#linear-gradient"/><linearGradient id="linear-gradient-7" x1="320.75" y1="146.99" x2="321.66" y2="146.99" xlink:href="#linear-gradient"/><linearGradient id="linear-gradient-8" x1="321.66" y1="146.99" x2="322.56" y2="146.99" xlink:href="#linear-gradient"/><linearGradient id="linear-gradient-9" x1="289.83" y1="148.32" x2="290.87" y2="148.32" xlink:href="#linear-gradient"/><linearGradient id="linear-gradient-10" x1="352.44" y1="148.32" x2="353.49" y2="148.32" xlink:href="#linear-gradient"/><linearGradient id="linear-gradient-11" x1="266.28" y1="235.54" x2="272.22" y2="235.54" xlink:href="#linear-gradient"/><linearGradient id="linear-gradient-12" x1="272.05" y1="234.55" x2="277.85" y2="234.55" xlink:href="#linear-gradient"/><linearGradient id="linear-gradient-13" x1="353.15" y1="236.03" x2="359.31" y2="236.03" xlink:href="#linear-gradient"/><linearGradient id="linear-gradient-14" x1="344.19" y1="235.84" x2="350.35" y2="235.84" xlink:href="#linear-gradient"/><linearGradient id="linear-gradient-15" x1="89.85" y1="116.77" x2="93.6" y2="116.77" xlink:href="#linear-gradient"/><linearGradient id="linear-gradient-16" x1="64.91" y1="97.75" x2="68.47" y2="97.75" xlink:href="#linear-gradient"/><linearGradient id="linear-gradient-17" x1="93.79" y1="57.08" x2="107.06" y2="57.08" gradientTransform="translate(73.52 -55.25) rotate(46.92)" xlink:href="#linear-gradient"/><linearGradient id="linear-gradient-18" x1="98.5" y1="64.47" x2="111.93" y2="64.47" xlink:href="#linear-gradient"/><linearGradient id="linear-gradient-19" x1="100.61" y1="61.24" x2="108.04" y2="61.24" gradientTransform="translate(133.53 -56.15) rotate(73.56)" xlink:href="#linear-gradient"/><linearGradient id="linear-gradient-20" x1="83.52" y1="83.38" x2="111.93" y2="83.38" xlink:href="#linear-gradient"/><linearGradient id="linear-gradient-21" x1="126.65" y1="241.64" x2="130.31" y2="241.64" xlink:href="#linear-gradient"/><linearGradient id="linear-gradient-22" x1="143.05" y1="241.5" x2="146.77" y2="241.5" xlink:href="#linear-gradient"/><linearGradient id="linear-gradient-23" x1="127.62" y1="187.08" x2="140.69" y2="187.08" xlink:href="#linear-gradient"/><linearGradient id="linear-gradient-24" x1="131.73" y1="176.28" x2="147.27" y2="176.28" xlink:href="#linear-gradient"/><linearGradient id="linear-gradient-25" x1="126.82" y1="207.19" x2="143.97" y2="207.19" xlink:href="#linear-gradient"/><linearGradient id="linear-gradient-26" x1="27.48" y1="178.59" x2="37.36" y2="178.59" gradientTransform="translate(171.27 61.69) rotate(60.19)" xlink:href="#linear-gradient"/></defs><title>Leap Ahead of The Pack</title><g class="cls-1"><g id="Layer_1" data-name="Layer 1"><path class="cls-2" d="M13.05,82.32c-1.74-17.57,6.67-35.65,22.1-47.56s37.57-17.4,58.21-14.42c21.57,3.11,39.91,14.52,59.5,22.73s44.14,13,62.6,3.15c13.86-7.42,20.75-21.3,32.82-30.67C264.17,3.22,287.72,0,309.07,2.76s41.16,10.87,60.58,18.84l44,18.06c21.48,8.81,43.2,17.76,61.49,30.71s33.08,30.52,36.28,50.45c2.32,14.46-2.24,30.3-15,40.14-8.07,6.21-18.61,9.56-28.86,12.76l-94.27,29.49c-20.73,6.49-41.71,13-63.69,15.13-22.95,2.19-46.12-.53-69-3.25L101.92,198.62c-22.55-2.68-45.78-5.56-65.33-15.38-17.42-8.76-32.86-24.06-27.71-41.58,2.52-8.57,9-15.34,9.89-24.56C19.94,105.36,14.2,93.92,13.05,82.32Z"/><path class="cls-3" d="M305,107.57l-6.88-1v0a.43.43,0,0,1-.37-.42l-.13-7a2.21,2.21,0,0,0-1.36-2,26.8,26.8,0,0,1-6.43-3.86,2.24,2.24,0,0,0-2.42-.26l-6.29,3.2a.46.46,0,0,1-.54-.14l-4.16-5.6a.45.45,0,0,1-.08-.33.4.4,0,0,1,.12-.23l4.88-5.07a2.24,2.24,0,0,0,.45-2.39,26.65,26.65,0,0,1-1.83-7.28,2.18,2.18,0,0,0-1.52-1.88L271.71,71a.43.43,0,0,1-.3-.48l1-6.88a.45.45,0,0,1,.43-.38l7-.12a2.22,2.22,0,0,0,2-1.36,27.5,27.5,0,0,1,3.74-6.3,2.29,2.29,0,0,0,.47-1.07,2.14,2.14,0,0,0-.23-1.33l-3.22-6.33a.45.45,0,0,1,.13-.55l5.6-4.15a.44.44,0,0,1,.56,0L294,47a2.26,2.26,0,0,0,2.41.46,26.32,26.32,0,0,1,7.26-1.87A2.26,2.26,0,0,0,305.55,44l2.2-6.74a.44.44,0,0,1,.48-.29l6.89,1a.42.42,0,0,1,.37.42l.13,7a2.24,2.24,0,0,0,1.37,2,26.29,26.29,0,0,1,6.46,3.81,2.21,2.21,0,0,0,2.4.24l6.33-3.22a.45.45,0,0,1,.55.13L336.88,54a.43.43,0,0,1,.09.33.42.42,0,0,1-.12.24l-4.86,5a2.26,2.26,0,0,0-.46,2.41,26.5,26.5,0,0,1,1.87,7.26,2.25,2.25,0,0,0,1.53,1.88l6.74,2.21a.43.43,0,0,1,.3.48l-1,6.88a.41.41,0,0,1-.42.37l-7,.14a2.24,2.24,0,0,0-2,1.37,26.74,26.74,0,0,1-3.91,6.59,2.21,2.21,0,0,0-.26,2.42l3.21,6.24a.42.42,0,0,1,0,.26.49.49,0,0,1-.17.3l-5.6,4.14a.44.44,0,0,1-.56,0l-5.08-4.88a2.26,2.26,0,0,0-2.39-.46A26.21,26.21,0,0,1,309.51,99a2.21,2.21,0,0,0-1.88,1.53l-2.18,6.7A.44.44,0,0,1,305,107.57Zm-.78-18.39a17.08,17.08,0,1,0-14.39-19.4A17.09,17.09,0,0,0,304.19,89.18Z"/><path class="cls-3" d="M304.32,111.93l-6.88-1a4.89,4.89,0,0,1-4.18-4.75l-.1-5.63a30.66,30.66,0,0,1-5-3l-5,2.57A4.89,4.89,0,0,1,277,98.65l-4.15-5.6a4.87,4.87,0,0,1,.4-6.31l3.91-4A31.37,31.37,0,0,1,275.72,77l-5.36-1.74A4.88,4.88,0,0,1,267,69.91l1-6.9a4.89,4.89,0,0,1,4.75-4.18l5.63-.1a30.49,30.49,0,0,1,2.9-4.85l-2.6-5.08a4.88,4.88,0,0,1,1.45-6.14l5.6-4.15a4.87,4.87,0,0,1,6.31.4l4,3.89a30.87,30.87,0,0,1,5.65-1.46l1.77-5.42a4.89,4.89,0,0,1,5.38-3.33l6.88,1A4.89,4.89,0,0,1,320,38.36l.11,5.57a30.29,30.29,0,0,1,5,3l5.08-2.59a4.89,4.89,0,0,1,6.15,1.45l4.15,5.61a4.87,4.87,0,0,1-.4,6.31l-3.91,4a30.87,30.87,0,0,1,1.46,5.65L343,69.11a4.89,4.89,0,0,1,3.33,5.38l-1,6.88a4.89,4.89,0,0,1-4.75,4.18l-5.57.11a30.25,30.25,0,0,1-3.09,5.19l2.57,5a4.88,4.88,0,0,1-1.45,6.14l-5.6,4.15a4.87,4.87,0,0,1-6.31-.4l-4-3.91a31.16,31.16,0,0,1-5.65,1.42l-1.75,5.35A4.83,4.83,0,0,1,304.32,111.93Zm-6.23-5.38,6.88,1a.44.44,0,0,0,.48-.3l2.18-6.7A2.21,2.21,0,0,1,309.51,99a26.21,26.21,0,0,0,7.28-1.83,2.26,2.26,0,0,1,2.39.46l5.08,4.88a.44.44,0,0,0,.56,0l5.6-4.14a.49.49,0,0,0,.17-.3.42.42,0,0,0,0-.26l-3.21-6.24a2.21,2.21,0,0,1,.26-2.42,26.74,26.74,0,0,0,3.91-6.59,2.24,2.24,0,0,1,2-1.37l7-.14a.41.41,0,0,0,.42-.37l1-6.88a.43.43,0,0,0-.3-.48l-6.74-2.21a2.25,2.25,0,0,1-1.53-1.88A26.5,26.5,0,0,0,331.53,62a2.26,2.26,0,0,1,.46-2.41l4.86-5a.42.42,0,0,0,.12-.24.43.43,0,0,0-.09-.33l-4.15-5.59a.45.45,0,0,0-.55-.13l-6.33,3.22a2.21,2.21,0,0,1-2.4-.24A26.29,26.29,0,0,0,317,47.47a2.24,2.24,0,0,1-1.37-2l-.13-7a.42.42,0,0,0-.37-.42l-6.89-1a.44.44,0,0,0-.48.29L305.55,44a2.26,2.26,0,0,1-1.88,1.53,26.32,26.32,0,0,0-7.26,1.87A2.26,2.26,0,0,1,294,47L289,42.12a.44.44,0,0,0-.56,0l-5.6,4.15a.45.45,0,0,0-.13.55l3.22,6.33a2.14,2.14,0,0,1,.23,1.33,2.29,2.29,0,0,1-.47,1.07,27.5,27.5,0,0,0-3.74,6.3,2.22,2.22,0,0,1-2,1.36l-7,.12a.45.45,0,0,0-.43.38l-1,6.88a.43.43,0,0,0,.3.48l6.7,2.18a2.18,2.18,0,0,1,1.52,1.88,26.65,26.65,0,0,0,1.83,7.28,2.24,2.24,0,0,1-.45,2.39l-4.88,5.07a.4.4,0,0,0-.12.23.45.45,0,0,0,.08.33l4.16,5.6a.46.46,0,0,0,.54.14l6.29-3.2a2.24,2.24,0,0,1,2.42.26,26.8,26.8,0,0,0,6.43,3.86,2.21,2.21,0,0,1,1.36,2l.13,7a.43.43,0,0,0,.37.42Z"/><path class="cls-4" d="M323.59,74.79a17.08,17.08,0,1,1-14.39-19.4A17.09,17.09,0,0,1,323.59,74.79Zm-18.75,10a12.62,12.62,0,1,0-10.62-14.33A12.62,12.62,0,0,0,304.84,84.76Z"/><path class="cls-5" d="M328.71,167.82l1.3-4a22.58,22.58,0,0,0,4.23-1.06l3,2.92a3.62,3.62,0,0,0,4.71.3l4.18-3.1a3.63,3.63,0,0,0,1.08-4.58l-1.91-3.76a24.07,24.07,0,0,0,2.31-3.88l4.15-.08a3.66,3.66,0,0,0,3.55-3.12l.76-5.15a3.63,3.63,0,0,0-2.48-4L349.57,137a23,23,0,0,0-1.09-4.22l2.92-3a3.67,3.67,0,0,0,.3-4.72l-3.1-4.19a3.66,3.66,0,0,0-4.6-1.08l-3.8,1.93a22.1,22.1,0,0,0-3.75-2.21l-.09-4.16a3.63,3.63,0,0,0-3.12-3.55L328.1,111a3.65,3.65,0,0,0-4,2.49l-1.32,4.05a22.93,22.93,0,0,0-4.22,1.08l-3-2.9a3.63,3.63,0,0,0-4.71-.3l-4.18,3.1a3.64,3.64,0,0,0-1.08,4.59l1.93,3.79a24.13,24.13,0,0,0-2.16,3.63l-4.2.07a3.65,3.65,0,0,0-3.55,3.12l-.77,5.16a3.65,3.65,0,0,0,2.49,4l4,1.3a23.36,23.36,0,0,0,1.05,4.23l-2.92,3a3.66,3.66,0,0,0-.3,4.71l3.11,4.19a3.65,3.65,0,0,0,4.59,1.08l3.76-1.92a22.58,22.58,0,0,0,3.74,2.24l.07,4.21a3.66,3.66,0,0,0,3.12,3.55l5.15.76A3.62,3.62,0,0,0,328.71,167.82Zm-4.12-14.54a12.76,12.76,0,1,1,14.5-10.75A12.76,12.76,0,0,1,324.59,153.28Z"/><path class="cls-4" d="M339.09,142.53A12.76,12.76,0,1,1,328.33,128,12.79,12.79,0,0,1,339.09,142.53Zm-14,7.45a9.43,9.43,0,1,0-7.94-10.71A9.45,9.45,0,0,0,325.08,150Z"/><path class="cls-5" d="M313.46,138.73a13.14,13.14,0,1,1,11.07,14.92A13.16,13.16,0,0,1,313.46,138.73Zm25.25,3.74a12.38,12.38,0,1,0-14.07,10.43A12.41,12.41,0,0,0,338.71,142.47Zm-21.95-3.25A9.81,9.81,0,1,1,325,150.35,9.82,9.82,0,0,1,316.76,139.22ZM335.41,142a9,9,0,1,0-10.28,7.62A9.06,9.06,0,0,0,335.41,142Z"/><path class="cls-5" d="M378.07,123.87l1.41-4.32A24.57,24.57,0,0,0,384,118.4l3.26,3.15a3.93,3.93,0,0,0,5.09.33l4.51-3.35a3.92,3.92,0,0,0,1.16-4.94L396,109.53a25.2,25.2,0,0,0,2.49-4.18l4.49-.09a3.94,3.94,0,0,0,3.82-3.37l.83-5.55A3.94,3.94,0,0,0,404.94,92l-4.37-1.43A24.14,24.14,0,0,0,399.4,86l3.15-3.24a3.94,3.94,0,0,0,.32-5.09l-3.34-4.52a4,4,0,0,0-5-1.17l-4.1,2.09a24.62,24.62,0,0,0-4.05-2.39l-.09-4.49A3.93,3.93,0,0,0,383,63.4l-5.55-.83a3.94,3.94,0,0,0-4.33,2.69l-1.43,4.37a24.14,24.14,0,0,0-4.55,1.17l-3.23-3.14a3.93,3.93,0,0,0-5.08-.32l-4.52,3.35a3.93,3.93,0,0,0-1.16,5l2.09,4.09a24.91,24.91,0,0,0-2.33,3.91l-4.54.08a4,4,0,0,0-3.83,3.37l-.83,5.57A3.94,3.94,0,0,0,346.36,97l4.32,1.41a25.57,25.57,0,0,0,1.14,4.56l-3.15,3.26a3.94,3.94,0,0,0-.32,5.09l3.35,4.51a4,4,0,0,0,4.95,1.17l4.06-2.07a24.27,24.27,0,0,0,4,2.41l.08,4.54a3.94,3.94,0,0,0,3.37,3.83l5.55.82A3.89,3.89,0,0,0,378.07,123.87Zm-4.44-15.69a13.76,13.76,0,1,1,15.64-11.59A13.77,13.77,0,0,1,373.63,108.18Z"/><path class="cls-4" d="M389.27,96.59A13.77,13.77,0,1,1,377.67,81,13.78,13.78,0,0,1,389.27,96.59Zm-15.12,8a10.17,10.17,0,1,0-8.56-11.54A10.18,10.18,0,0,0,374.15,104.62Z"/><path class="cls-5" d="M361.62,92.49a14.18,14.18,0,1,1,11.95,16.1A14.19,14.19,0,0,1,361.62,92.49Zm27.24,4a13.35,13.35,0,1,0-15.17,11.25A13.38,13.38,0,0,0,388.86,96.53ZM365.18,93a10.58,10.58,0,1,1,8.91,12A10.59,10.59,0,0,1,365.18,93Zm20.12,3a9.76,9.76,0,1,0-11.08,8.22A9.77,9.77,0,0,0,385.3,96Z"/><path class="cls-4" d="M280.13,71.2a29.73,29.73,0,0,0,.33,3.89c0,.16.05.32.08.48l.09.47.08.48.11.47.12.48a3.84,3.84,0,0,0,.11.46l.27.93a2.17,2.17,0,0,0,.07.24l.08.22.16.46.15.46.18.45.17.45c.06.14.11.3.18.44l.4.88c.06.15.14.29.21.43l.22.43.21.43.24.41.24.42c.08.14.16.28.25.41l.51.81a29.93,29.93,0,0,0,2.33,3,28.43,28.43,0,0,0,2.73,2.65,27.93,27.93,0,0,0,3.07,2.23l.81.48.42.23.41.22.42.22.43.2.43.2.43.2.87.36.11,0,.11,0,.22.07.44.16.45.16.45.14.45.13a3.81,3.81,0,0,0,.45.13l.91.23.46.1.46.09.46.1.47.07.46.07.24,0,.11,0h.12l.94.09.23,0,.23,0,.47,0c.63,0,1.25,0,1.88,0l.94,0,.47,0,.46,0,.47,0c.15,0,.31,0,.46-.06l.93-.14.46-.08.46-.1.46-.09.45-.11.45-.12.23,0,.11,0,.12,0,.89-.27.22-.07.22-.08.44-.16.44-.16.43-.18.43-.18.43-.19.85-.4a25.79,25.79,0,0,0,8.66-7,27.12,27.12,0,0,0,2.12-3.08l.46-.81c.08-.14.14-.28.21-.42l.21-.42.21-.41.19-.43.19-.43.09-.21c0-.08.06-.15.09-.22l.34-.88,0-.1,0-.12.08-.22.14-.44.15-.45.12-.45.13-.45.12-.45.2-.92c0-.15.06-.3.09-.46l.08-.46.08-.46.06-.47c0-.31.07-.62.1-.93,0-.62.11-1.25.11-1.87v-.94l0-.94V70l0-.47,0-.47-.06-.46-.06-.47c0-.16,0-.31-.07-.47l-.16-.92c0-.16-.06-.31-.1-.46l-.11-.46-.1-.46c0-.15-.09-.3-.13-.45l-.13-.46-.06-.23,0-.11,0-.11-.3-.89A26.33,26.33,0,0,0,321.86,51l-.77-.57-.39-.27-.4-.27-.4-.26-.41-.25-.41-.25-.42-.24-.85-.45c-.14-.08-.29-.14-.43-.21l-.44-.21-.43-.2-.45-.19-.44-.19-.23-.09-.22-.09-.91-.33c-.15-.06-.31-.1-.46-.15l-.46-.14-.47-.14-.47-.12-.47-.12c-.16,0-.31-.09-.47-.12a31.29,31.29,0,0,0-3.86-.6v-.14l1,.06h.25l.24,0,.49.06.49,0,.24,0,.25,0,1,.16.48.09.48.1.48.11.48.12.47.13.48.13.94.3.23.08.23.08.46.18.46.17.45.19.46.2c.15.07.3.12.45.2l.88.43c.15.07.29.16.43.24l.43.23.44.24.41.26.42.26c.14.09.28.17.42.27l.81.56a29,29,0,0,1,3,2.52,30.29,30.29,0,0,1,2.61,2.94,27.52,27.52,0,0,1,2.16,3.3l.47.87c.08.14.14.29.21.44l.21.44.21.45.19.46.19.45.18.46.33.93,0,.11,0,.12.07.24.15.47c0,.16.09.31.14.47l.12.48.11.48a4.15,4.15,0,0,1,.11.48l.19,1a4,4,0,0,1,.08.48l.07.49.07.49.05.49,0,.49,0,.24v.25l0,1,0,.24c0,.08,0,.17,0,.25v.49c0,.66-.05,1.31-.08,2,0,.33-.07.65-.11,1,0,.16,0,.33-.05.49l-.08.49-.08.48c0,.16-.05.33-.09.49l-.2,1-.12.48-.13.48-.13.47-.15.47-.15.47-.07.24,0,.11,0,.12-.35.92-.09.23-.1.23-.19.45-.2.45c-.07.15-.15.3-.22.44l-.22.45c-.07.14-.14.29-.22.44l-.48.86-.25.42-.26.42c-.09.14-.18.28-.26.42l-.28.4-.28.41-.14.2-.15.2-.6.78a26.2,26.2,0,0,1-5.75,5.37l-.82.54-.21.13-.21.13-.42.25-.43.25-.43.23-.44.24-.44.22-.89.42-.45.19-.46.19-.46.18-.46.17-.47.16-.23.09-.23.07-.95.28-.12,0-.12,0-.24.06-.47.11-.48.12-.49.09-.48.1-.49.08-1,.14-.49.06-.49,0-.49,0-.5,0-1,0c-.66,0-1.32,0-2-.06l-.49,0h-.25l-.24,0-1-.11H303l-.12,0-.24,0-.49-.08-.48-.08-.49-.11-.48-.1c-.16,0-.32-.06-.48-.11l-.95-.26-.47-.14-.47-.15-.47-.15-.46-.17-.46-.18-.23-.08-.12,0-.11,0-.9-.39c-.16-.06-.3-.14-.45-.21l-.44-.22-.44-.22-.43-.24-.43-.24L293,95.1l-.84-.52A28.68,28.68,0,0,1,289,92.2a29.3,29.3,0,0,1-2.76-2.81,30.09,30.09,0,0,1-2.31-3.19l-.5-.85-.24-.43-.23-.43-.22-.44-.21-.44-.21-.45c-.07-.15-.14-.3-.2-.45l-.37-.91a4.28,4.28,0,0,1-.17-.46l-.17-.47-.16-.46-.14-.47-.14-.48-.07-.23a2.1,2.1,0,0,1-.06-.24l-.24-1c0-.15-.06-.32-.1-.48l-.09-.48-.09-.48-.07-.49-.07-.49c0-.16-.05-.32-.06-.49l-.09-1a1.94,1.94,0,0,1,0-.24v-.25l0-.49,0-.49V71.19Z"/><path class="cls-4" d="M319.73,157.67a22.85,22.85,0,0,0,2.59.66l.33.06.33.05.32.05.34,0,.33,0,.33,0,.66,0h1.65l.33,0,.66-.06a17.57,17.57,0,0,0,2.59-.46,19.6,19.6,0,0,0,2.49-.82,20.29,20.29,0,0,0,2.33-1.17,20.76,20.76,0,0,0,2.13-1.48l.5-.41c.09-.07.16-.15.24-.22l.24-.22.24-.22.23-.23.22-.23a2.61,2.61,0,0,0,.23-.24l.43-.48.2-.25.21-.25.2-.25.19-.26.19-.27a2.4,2.4,0,0,0,.18-.26l.36-.54.17-.27.16-.28.17-.28.15-.28.3-.57.27-.59.07-.14.06-.15.12-.3c.17-.4.3-.81.44-1.21.07-.21.12-.41.18-.62a2.8,2.8,0,0,0,.09-.31l.08-.31.07-.31c0-.11.05-.21.07-.32l.12-.63a19.65,19.65,0,0,0,.24-2.55,1.71,1.71,0,0,0,0-.32v-.64l0-.32,0-.32c0-.11,0-.22,0-.32l-.07-.64a17.7,17.7,0,0,0-.5-2.51,22.41,22.41,0,0,0-.86-2.42,19.55,19.55,0,0,0-1.2-2.26,17.13,17.13,0,0,0-1.51-2.07l-.42-.48c-.07-.09-.15-.16-.22-.24l-.23-.23-.22-.23-.24-.21-.23-.22-.24-.22-.49-.41-.25-.2-.26-.19-.25-.2-.27-.18-.26-.18a1.59,1.59,0,0,0-.27-.18l-.54-.34-.28-.17-.28-.15-.28-.16L334,125l-.58-.29c-.39-.16-.78-.35-1.19-.49l-.3-.11-.15-.05-.15,0-.62-.2a19.47,19.47,0,0,0-2.52-.54l-.32,0-.32,0-.32,0-.32,0-.32,0c-.11,0-.22,0-.33,0H325l-.32,0-.32,0a3.16,3.16,0,0,0-.32,0l-.65.09-.32,0-.32.06-.32.06-.31.07-.32.08-.16,0-.16,0-.62.17a18,18,0,0,0-2.44.93,19.07,19.07,0,0,0-2.29,1.28,21.31,21.31,0,0,0-2.09,1.59l-.48.45a2.61,2.61,0,0,0-.24.23l-.23.24-.23.23-.22.25-.23.24-.21.25-.42.52a1.64,1.64,0,0,0-.2.26l-.2.27-.2.27-.18.27-.19.28-.18.28a22.18,22.18,0,0,0-1.26,2.36l-.09,0,.26-.63.13-.31.15-.3.14-.3.08-.16a1.09,1.09,0,0,1,.08-.15l.32-.59c.05-.1.11-.19.17-.29l.17-.29.18-.29.19-.27.19-.28a2.75,2.75,0,0,1,.19-.28l.41-.54a2.65,2.65,0,0,1,.21-.26l.22-.26.21-.26.23-.25.23-.25.23-.24.48-.47a19,19,0,0,1,2.09-1.71,18.7,18.7,0,0,1,4.81-2.41,20,20,0,0,1,2.62-.65l.67-.1.33,0,.34,0,.34,0,.33,0,.34,0H327l.34,0h.34l.33,0,.34,0,.33,0,.67.1.34.06.33.07.33.06.33.08.65.17.65.19.16,0,.16.06.32.11c.42.15.84.33,1.25.5l.61.29.31.15.29.16.3.16.29.17.58.35.29.18.27.19.28.19.27.21.27.2a2.78,2.78,0,0,1,.27.21l.52.43a2.73,2.73,0,0,1,.25.23l.25.22.25.23.24.24.23.25c.08.08.16.15.24.24l.45.51a19,19,0,0,1,1.6,2.17,19.51,19.51,0,0,1,1.27,2.39,19.16,19.16,0,0,1,.9,2.54,18.39,18.39,0,0,1,.52,2.66l.07.67c0,.11,0,.22,0,.34l0,.33v1c0,.11,0,.22,0,.33l0,.68c0,.11,0,.22,0,.34l0,.33,0,.34-.05.33,0,.34c0,.11,0,.22-.06.33l-.13.66c0,.12,0,.22-.07.33l-.09.33-.08.33-.09.32-.2.65c-.16.42-.3.85-.48,1.26l-.14.31-.06.16-.07.15-.3.61c-.1.2-.21.4-.32.59l-.16.3-.17.29-.18.29-.18.28-.38.56a2.69,2.69,0,0,1-.2.27l-.21.27-.2.27-.22.26-.21.26-.22.26-.46.49-.24.24-.24.24-.24.23-.26.23-.25.22-.25.22-.53.42a19.47,19.47,0,0,1-2.25,1.49,20.23,20.23,0,0,1-2.45,1.15,20.7,20.7,0,0,1-2.58.77,20,20,0,0,1-2.67.39l-.67,0h-1l-.33,0h-.34l-.34,0-.67-.07-.33,0-.34,0-.33-.05-.33-.07-.33-.06-.33-.07-.66-.17-.16,0-.16-.05-.32-.1-.33-.09-.31-.12-.64-.22Z"/><path class="cls-3" d="M125.08,116.8l3.69,1.38h0a.24.24,0,0,1,.15.28l-.76,3.91a1.25,1.25,0,0,0,.52,1.27,15.55,15.55,0,0,1,3.11,2.9,1.25,1.25,0,0,0,1.31.43l3.86-1a.26.26,0,0,1,.29.14l1.64,3.59a.25.25,0,0,1,0,.19.2.2,0,0,1-.09.11l-3.3,2.24a1.27,1.27,0,0,0-.53,1.27,15.14,15.14,0,0,1,.15,4.25,1.25,1.25,0,0,0,.63,1.22l3.45,2a.23.23,0,0,1,.11.29l-1.38,3.7a.26.26,0,0,1-.28.16l-3.91-.76a1.25,1.25,0,0,0-1.27.51,15.7,15.7,0,0,1-2.82,3,1.44,1.44,0,0,0-.38.54,1.16,1.16,0,0,0,0,.76l1,3.89a.26.26,0,0,1,0,.15.27.27,0,0,1-.13.14L126.55,155a.26.26,0,0,1-.31-.09L124,151.66a1.3,1.3,0,0,0-1.28-.54,15.08,15.08,0,0,1-4.24.18,1.26,1.26,0,0,0-1.22.62l-2,3.48a.24.24,0,0,1-.3.1l-3.69-1.37a.24.24,0,0,1-.16-.28l.75-3.89a1.27,1.27,0,0,0-.52-1.28,15.25,15.25,0,0,1-3.13-2.87,1.24,1.24,0,0,0-1.3-.42l-3.89,1a.26.26,0,0,1-.29-.14l-1.64-3.59a.21.21,0,0,1,0-.19.27.27,0,0,1,.09-.12l3.28-2.22a1.26,1.26,0,0,0,.54-1.28,15.07,15.07,0,0,1-.18-4.24,1.26,1.26,0,0,0-.62-1.22l-3.48-2a.24.24,0,0,1-.1-.3l1.37-3.69a.25.25,0,0,1,.28-.16l3.89.75a1.26,1.26,0,0,0,1.28-.52,15.41,15.41,0,0,1,3-3.19,1.25,1.25,0,0,0,.43-1.31l-1-3.83a.38.38,0,0,1,0-.15.28.28,0,0,1,.14-.15l3.59-1.63a.24.24,0,0,1,.3.08l2.24,3.3a1.27,1.27,0,0,0,1.27.54,14.78,14.78,0,0,1,4.25-.16,1.25,1.25,0,0,0,1.22-.62l2-3.46A.25.25,0,0,1,125.08,116.8Zm-1.73,10.28A9.67,9.67,0,1,0,129,139.52,9.69,9.69,0,0,0,123.35,127.08Z"/><path class="cls-3" d="M126,114.46l3.69,1.38A2.77,2.77,0,0,1,131.4,119l-.61,3.13a18.38,18.38,0,0,1,2.42,2.25l3.09-.83a2.76,2.76,0,0,1,3.23,1.53l1.64,3.59a2.79,2.79,0,0,1,.09,2.12,2.81,2.81,0,0,1-1,1.33l-2.64,1.78a17.33,17.33,0,0,1,.11,3.3l2.77,1.6a2.77,2.77,0,0,1,1.21,3.37l-1.38,3.71a2.76,2.76,0,0,1-3.12,1.75L134,147a16.66,16.66,0,0,1-2.17,2.35l.84,3.12a2.77,2.77,0,0,1-1.52,3.23l-3.6,1.64a2.74,2.74,0,0,1-3.44-1l-1.76-2.62a17.41,17.41,0,0,1-3.3.14l-1.62,2.79a2.76,2.76,0,0,1-3.37,1.21l-3.7-1.37a2.77,2.77,0,0,1-1.75-3.12l.59-3.1a17.17,17.17,0,0,1-2.43-2.24l-3.12.84a2.77,2.77,0,0,1-3.24-1.53l-1.64-3.59a2.74,2.74,0,0,1-.08-2.12,2.71,2.71,0,0,1,1.05-1.33l2.63-1.77a17.33,17.33,0,0,1-.13-3.3l-2.8-1.62a2.78,2.78,0,0,1-1.21-3.37l1.38-3.69a2.78,2.78,0,0,1,3.12-1.76l3.09.6a17.87,17.87,0,0,1,2.33-2.51l-.83-3.09a2.77,2.77,0,0,1,1.52-3.23l3.59-1.64a2.76,2.76,0,0,1,3.45,1l1.79,2.65a17.3,17.3,0,0,1,3.3-.12l1.59-2.76A2.74,2.74,0,0,1,126,114.46Zm2.82,3.72-3.69-1.38a.25.25,0,0,0-.3.11l-2,3.46a1.25,1.25,0,0,1-1.22.62,14.78,14.78,0,0,0-4.25.16,1.27,1.27,0,0,1-1.27-.54l-2.24-3.3a.24.24,0,0,0-.3-.08l-3.59,1.63a.28.28,0,0,0-.14.15.38.38,0,0,0,0,.15l1,3.83a1.25,1.25,0,0,1-.43,1.31,15.41,15.41,0,0,0-3,3.19,1.26,1.26,0,0,1-1.28.52l-3.89-.75a.25.25,0,0,0-.28.16l-1.37,3.69a.24.24,0,0,0,.1.3l3.48,2a1.26,1.26,0,0,1,.62,1.22,15.07,15.07,0,0,0,.18,4.24,1.26,1.26,0,0,1-.54,1.28l-3.28,2.22a.27.27,0,0,0-.09.12.21.21,0,0,0,0,.19l1.64,3.59a.26.26,0,0,0,.29.14l3.89-1a1.24,1.24,0,0,1,1.3.42,15.25,15.25,0,0,0,3.13,2.87,1.27,1.27,0,0,1,.52,1.28l-.75,3.89a.24.24,0,0,0,.16.28L115,155.5a.24.24,0,0,0,.3-.1l2-3.48a1.26,1.26,0,0,1,1.22-.62,15.08,15.08,0,0,0,4.24-.18,1.3,1.3,0,0,1,1.28.54l2.22,3.28a.26.26,0,0,0,.31.09l3.59-1.64a.27.27,0,0,0,.13-.14.26.26,0,0,0,0-.15l-1-3.89a1.16,1.16,0,0,1,0-.76,1.44,1.44,0,0,1,.38-.54,15.7,15.7,0,0,0,2.82-3,1.25,1.25,0,0,1,1.27-.51l3.91.76a.26.26,0,0,0,.28-.16l1.38-3.7a.23.23,0,0,0-.11-.29l-3.45-2a1.25,1.25,0,0,1-.63-1.22,15.14,15.14,0,0,0-.15-4.25,1.27,1.27,0,0,1,.53-1.27l3.3-2.24a.2.2,0,0,0,.09-.11.25.25,0,0,0,0-.19l-1.64-3.59A.26.26,0,0,0,137,126l-3.86,1a1.25,1.25,0,0,1-1.31-.43,15.55,15.55,0,0,0-3.11-2.9,1.25,1.25,0,0,1-.52-1.27l.76-3.91a.24.24,0,0,0-.15-.28Z"/><path class="cls-6" d="M110.9,132.77a9.67,9.67,0,1,1,5.69,12.44A9.69,9.69,0,0,1,110.9,132.77Zm11.56-3.32a7.14,7.14,0,1,0,4.2,9.19A7.16,7.16,0,0,0,122.46,129.45Z"/><path class="cls-7" d="M129.3,139.62a10,10,0,1,1-5.85-12.81A10,10,0,0,1,129.3,139.62Zm-18.13-6.75a9.38,9.38,0,1,0,12.07-5.52A9.39,9.39,0,0,0,111.17,132.87Zm15.76,5.87a7.43,7.43,0,1,1-4.37-9.56A7.44,7.44,0,0,1,126.93,138.74Zm-13.39-5a6.86,6.86,0,1,0,8.82-4A6.87,6.87,0,0,0,113.54,133.75Z"/><path class="cls-8" d="M119,80.63l-1.2,2.07a12.63,12.63,0,0,0-2.46.09l-1.34-2a2,2,0,0,0-2.57-.72l-2.68,1.23a2,2,0,0,0-1.08,1.15,2,2,0,0,0-.06,1.26l.62,2.31a13.39,13.39,0,0,0-1.74,1.87l-2.31-.44a2.08,2.08,0,0,0-2.34,1.31l-1,2.76a2.08,2.08,0,0,0,.91,2.52l2.09,1.21a12.64,12.64,0,0,0,.1,2.46l-2,1.32a2,2,0,0,0-.78,1,2.06,2.06,0,0,0,.06,1.58l1.22,2.69a2.08,2.08,0,0,0,2.42,1.14l2.33-.63A13,13,0,0,0,109,106.5l-.44,2.32a2.06,2.06,0,0,0,1.31,2.33l2.76,1a2.08,2.08,0,0,0,2.52-.91l1.21-2.08a12.78,12.78,0,0,0,2.47-.11l1.31,2a2.06,2.06,0,0,0,2.58.72l2.68-1.22a2.06,2.06,0,0,0,1.14-2.41L126,105.8a13.55,13.55,0,0,0,1.63-1.76l2.34.45a2,2,0,0,0,2.33-1.31l1-2.76a2.07,2.07,0,0,0-.91-2.52l-2.06-1.2a12.63,12.63,0,0,0-.09-2.46l2-1.34a2,2,0,0,0,.78-1,2.06,2.06,0,0,0-.06-1.58l-1.23-2.68a2.06,2.06,0,0,0-2.42-1.14l-2.3.61a14.36,14.36,0,0,0-1.81-1.68l.45-2.34a2.06,2.06,0,0,0-1.31-2.33l-2.76-1A2,2,0,0,0,119,80.63Zm.57,8.54a7.23,7.23,0,1,1-9.3,4.25A7.23,7.23,0,0,1,119.6,89.17Z"/><path class="cls-4" d="M110.3,93.42a7.23,7.23,0,1,1,4.25,9.3A7.23,7.23,0,0,1,110.3,93.42Zm8.64-2.48a5.34,5.34,0,1,0,3.13,6.87A5.35,5.35,0,0,0,118.94,90.94Z"/><path class="cls-5" d="M124.05,98.54A7.44,7.44,0,1,1,119.67,89,7.46,7.46,0,0,1,124.05,98.54ZM110.5,93.49a7,7,0,1,0,9-4.12A7,7,0,0,0,110.5,93.49Zm11.78,4.39A5.55,5.55,0,1,1,119,90.74,5.57,5.57,0,0,1,122.28,97.88Zm-10-3.73a5.12,5.12,0,1,0,6.59-3A5.14,5.14,0,0,0,112.27,94.15Z"/><path class="cls-5" d="M86.51,99.16l-1.29,2.23a13.9,13.9,0,0,0-2.66.1l-1.44-2.13a2.22,2.22,0,0,0-2.78-.78L75.45,99.9a2.21,2.21,0,0,0-1.23,2.6l.67,2.49A14.46,14.46,0,0,0,73,107l-2.49-.48A2.23,2.23,0,0,0,68,108l-1.11,3a2.24,2.24,0,0,0,1,2.72l2.25,1.3a13.91,13.91,0,0,0,.11,2.66L68.11,119a2.29,2.29,0,0,0-.85,1.07,2.25,2.25,0,0,0,.07,1.71l1.32,2.9a2.22,2.22,0,0,0,2.61,1.23l2.51-.67a14,14,0,0,0,2,1.8l-.48,2.5a2.22,2.22,0,0,0,1.41,2.51l3,1.11a2.21,2.21,0,0,0,2.71-1L83.67,130a14.77,14.77,0,0,0,2.66-.12L87.75,132a2.23,2.23,0,0,0,2.78.78l2.89-1.33a2.19,2.19,0,0,0,1.17-1.24,2.26,2.26,0,0,0,.06-1.36L94,126.31a14.34,14.34,0,0,0,1.75-1.9l2.52.49a2.22,2.22,0,0,0,2.52-1.41l1.11-3a2.23,2.23,0,0,0-1-2.71l-2.22-1.29a13.9,13.9,0,0,0-.1-2.66l2.13-1.44a2.21,2.21,0,0,0,.78-2.78l-1.32-2.89a2.23,2.23,0,0,0-2.61-1.23l-2.49.67a14.56,14.56,0,0,0-1.95-1.82l.49-2.52a2.24,2.24,0,0,0-1.41-2.52l-3-1.11A2.21,2.21,0,0,0,86.51,99.16Zm.61,9.21a7.8,7.8,0,1,1-10,4.59A7.81,7.81,0,0,1,87.12,108.37Z"/><path class="cls-4" d="M77.09,113a7.79,7.79,0,1,1,4.58,10A7.81,7.81,0,0,1,77.09,113Zm9.32-2.68a5.76,5.76,0,1,0,3.38,7.41A5.77,5.77,0,0,0,86.41,110.28Z"/><path class="cls-5" d="M91.92,118.48a8,8,0,1,1-4.72-10.32A8,8,0,0,1,91.92,118.48ZM77.31,113A7.56,7.56,0,1,0,87,108.59,7.57,7.57,0,0,0,77.31,113ZM90,117.77a6,6,0,1,1-3.52-7.7A6,6,0,0,1,90,117.77Zm-10.79-4a5.52,5.52,0,1,0,7.11-3.25A5.53,5.53,0,0,0,79.22,113.75Z"/><path class="cls-4" d="M134.56,139.88a18.1,18.1,0,0,0,.27-2.2,2.44,2.44,0,0,0,0-.27v-1.1a2.44,2.44,0,0,1,0-.27l0-.55a.66.66,0,0,1,0-.14l0-.13,0-.27,0-.28c0-.09,0-.18,0-.27l0-.26c0-.09,0-.18-.05-.27l-.12-.54c0-.08,0-.17-.06-.26l-.07-.26-.07-.27-.09-.25-.08-.26a2,2,0,0,0-.09-.26l-.19-.51a17.41,17.41,0,0,0-.93-1.95,16.44,16.44,0,0,0-1.2-1.79,18.12,18.12,0,0,0-1.44-1.59l-.39-.36c-.07-.07-.14-.12-.21-.18l-.2-.17-.21-.17-.21-.16-.21-.17a1.7,1.7,0,0,0-.22-.15l-.44-.31,0,0-.06,0-.11-.07-.23-.14-.23-.14-.23-.13-.23-.13-.24-.12-.48-.24-.24-.11-.25-.1-.24-.11-.25-.09-.25-.09-.12,0-.07,0-.06,0-.51-.16-.12,0-.13,0-.26-.07c-.34-.09-.69-.16-1-.23-.17,0-.34-.06-.52-.09l-.26,0-.27,0-.26,0-.26,0-.53,0h-1.59l-.53,0h-.13l-.13,0-.27,0-.26,0-.26,0-.26.05-.26,0-.51.12a14.4,14.4,0,0,0-2,.68,15.18,15.18,0,0,0-1.89,1,17.38,17.38,0,0,0-1.73,1.22,16.21,16.21,0,0,0-1.53,1.46l-.35.39-.17.21-.16.21c-.06.06-.11.13-.17.2l-.15.22-.16.21-.08.11-.07.11-.29.44,0,.06,0,.06-.06.11-.14.23-.13.23-.12.23-.12.24a1.34,1.34,0,0,0-.12.24l-.22.48-.11.24-.1.25-.09.25a1.84,1.84,0,0,0-.09.25c-.06.17-.12.33-.17.5-.1.34-.2.68-.28,1l-.06.26,0,.13,0,.13-.1.52v.13l0,.13,0,.27,0,.26,0,.27,0,.26a2.45,2.45,0,0,0,0,.27v.53a1.22,1.22,0,0,0,0,.27v.53a2.45,2.45,0,0,1,0,.27l0,.26v.27l.06.53a14.89,14.89,0,0,0,3.47,7.75l.36.41.18.2.19.19.19.19.2.19.2.19.2.18.42.35.22.17.21.16.22.17.22.15.23.16.11.08.12.07.46.29.24.14.24.13.24.14.24.12.25.12.25.12a19,19,0,0,0,2.06.79v.07l-.54-.14-.14,0-.13,0-.26-.09-.27-.08-.13-.05-.13,0-.52-.2-.26-.11-.25-.11-.26-.11-.25-.13-.24-.13-.25-.12-.49-.28-.12-.07-.11-.08-.24-.15-.23-.15a1.88,1.88,0,0,1-.23-.16l-.23-.16-.22-.16-.44-.35c-.08-.05-.14-.12-.22-.18l-.21-.18-.21-.18-.2-.2-.2-.19-.2-.19-.38-.41a16.58,16.58,0,0,1-1.38-1.75,17.61,17.61,0,0,1-1.1-1.94,16.9,16.9,0,0,1-.81-2.08l-.15-.54a2.68,2.68,0,0,1-.07-.27l-.06-.27-.07-.27,0-.27,0-.28c0-.09,0-.18,0-.27l-.07-.56v-.28l0-.27,0-.28v-1.4c0-.09,0-.18,0-.28l0-.27,0-.28,0-.28,0-.28V134l.09-.55,0-.14,0-.14.06-.27c.07-.37.18-.72.28-1.08,0-.18.11-.35.17-.53l.09-.27.1-.26.1-.26.1-.25.23-.51.12-.26.13-.24.13-.25.14-.25.13-.24.07-.12,0-.06,0-.06.3-.47.07-.12.08-.11.17-.23.16-.22.17-.22.17-.22.18-.22.37-.42.19-.21.19-.2a1.8,1.8,0,0,0,.19-.2l.21-.19.2-.19.1-.1.11-.09.42-.36a17.63,17.63,0,0,1,1.82-1.29,16.29,16.29,0,0,1,2-1l.52-.2.13,0,.13,0,.26-.08.27-.09.27-.08.26-.08.27-.07.55-.13.27-.05.28,0,.27,0,.28,0,.28,0,.13,0h.14l.56-.05h1.67l.56,0,.28,0,.28,0,.27,0,.28,0,.55.09c.36.09.73.16,1.08.27l.27.07.14,0,.13,0,.53.18.06,0,.07,0,.13,0,.26.1.26.1.25.11.26.12c.08,0,.17.07.25.12l.5.25.24.13.25.14.24.14.23.15.24.15.11.08.06,0,.06,0,.45.32.23.17.22.17.21.18.21.18.21.18a1.9,1.9,0,0,1,.21.19l.4.39a15.66,15.66,0,0,1,1.46,1.69,15.28,15.28,0,0,1,1.19,1.88,16.91,16.91,0,0,1,.91,2l.18.52c0,.09.05.18.08.27l.07.27.08.27.06.27.07.27a2.56,2.56,0,0,1,.05.27l.1.55a2.7,2.7,0,0,1,0,.28l0,.27,0,.28,0,.28,0,.28v.28l0,.55a2.61,2.61,0,0,1,0,.28v.56l0,.28,0,.27c0,.1,0,.19,0,.28l-.07.56s0,.09,0,.13l0,.14,0,.28-.05.27a.68.68,0,0,1,0,.14l0,.13-.13.55Z"/><path class="cls-4" d="M122.81,87.31a12.24,12.24,0,0,0-1.36-.67l-.18-.07-.17-.07-.18-.06-.18-.06-.18-.06-.18-.06-.36-.09-.18,0-.18,0-.19,0-.18,0-.19,0a1.13,1.13,0,0,0-.18,0l-.37,0a10.6,10.6,0,0,0-1.49-.05,11.8,11.8,0,0,0-1.47.16,11.12,11.12,0,0,0-1.43.38,12.52,12.52,0,0,0-1.36.56l-.33.18-.16.09-.15.09-.16.09-.15.11-.16.1-.15.1-.29.22-.15.11-.14.12-.14.11-.14.13-.13.12-.14.12-.26.26L110,89l-.13.13-.12.14-.12.14a3.11,3.11,0,0,0-.23.28l-.22.29-.06.07a.22.22,0,0,1-.05.08l-.1.15c-.14.2-.26.41-.39.62s-.11.21-.17.32l-.09.16-.07.16-.08.17c0,.05,0,.11-.08.17l-.14.33a10.67,10.67,0,0,0-.43,1.39.85.85,0,0,0,0,.17l0,.18,0,.18,0,.18,0,.18,0,.18,0,.36a10,10,0,0,0,0,1.45,11.83,11.83,0,0,0,.19,1.44,11.7,11.7,0,0,0,.4,1.4,11.08,11.08,0,0,0,.59,1.32l.18.32.09.15.1.15.1.16.1.15.11.15.1.14.23.29a1.34,1.34,0,0,0,.11.14l.12.14.12.13.12.14.13.13a1.59,1.59,0,0,0,.13.13l.26.25a1.59,1.59,0,0,0,.13.13l.14.12.14.12.14.11.29.22c.19.14.39.29.6.42l.15.09.08,0,.08,0,.32.18a10.54,10.54,0,0,0,1.33.59l.17.07.17,0,.18.06.17,0,.18,0,.18.05.35.08.18,0,.18,0,.18,0,.19,0,.18,0,.18,0,.37,0h1.1l.37,0a10.29,10.29,0,0,0,1.46-.22,14.53,14.53,0,0,0,1.42-.44,11,11,0,0,0,1.34-.64l.32-.19.16-.1.16-.1.15-.11.16-.11.15-.11.15-.11.29-.24a.81.81,0,0,0,.14-.12l.14-.12.15-.13.13-.13.13-.13a1.85,1.85,0,0,0,.14-.14,11.8,11.8,0,0,0,1-1.15l0,0-.22.31-.11.16-.11.15-.12.15-.06.07-.06.08-.25.29-.13.14-.13.14-.13.14-.14.13-.13.13-.14.13-.29.25-.15.12-.15.12-.15.12-.16.11-.15.11-.16.11-.32.2a10.28,10.28,0,0,1-1.36.7,11.8,11.8,0,0,1-1.45.5,12.38,12.38,0,0,1-1.5.27,11.18,11.18,0,0,1-1.53,0l-.38,0h-.19l-.19,0-.19,0-.19,0-.19,0-.19,0-.37-.07-.19,0-.18,0-.19,0-.18-.05-.18-.06-.18-.06-.36-.13-.18-.08-.18-.07-.17-.08-.17-.08-.35-.17L112,105l-.09,0-.08,0-.16-.1c-.22-.13-.43-.28-.64-.42l-.3-.24-.15-.11-.15-.13-.14-.12-.15-.13-.28-.26-.13-.14-.13-.14-.14-.13-.12-.15-.13-.14-.12-.15-.24-.3-.11-.15-.11-.16-.11-.16-.1-.16-.11-.16-.1-.16-.19-.34a11.59,11.59,0,0,1-.63-1.39,12.34,12.34,0,0,1-.42-1.47,11.09,11.09,0,0,1-.2-1.52,9.77,9.77,0,0,1,0-1.53l0-.38a1.37,1.37,0,0,1,0-.19l0-.19,0-.19,0-.18,0-.19c0-.06,0-.13.05-.19l.09-.37.06-.18,0-.18.06-.19.07-.18.07-.17a1.34,1.34,0,0,1,.07-.18l.15-.35a1.42,1.42,0,0,1,.08-.18l.08-.17.09-.17A1.4,1.4,0,0,1,108,91l.18-.33c.14-.22.27-.44.42-.65l.11-.15a.56.56,0,0,1,.05-.08l.06-.08.24-.3a3.36,3.36,0,0,1,.24-.29l.13-.15.13-.14.13-.14.13-.13.28-.27.14-.12.15-.13.14-.12.15-.12.15-.12.16-.12.31-.22.16-.1.16-.1.16-.11L112,87l.16-.09.17-.1.34-.17a10.34,10.34,0,0,1,1.43-.56,10.59,10.59,0,0,1,1.48-.34,11.28,11.28,0,0,1,1.53-.13,12.79,12.79,0,0,1,1.52.1l.38.06.19,0,.18,0,.19,0,.18,0,.19,0,.18.06.37.11.18.06.18.07.18.07.17.07.18.08.17.08.35.16.08,0,.08,0,.17.1.17.09.16.1.33.2Z"/><path class="cls-9" d="M94.86,115.57a11,11,0,0,0-.21-1.5c0-.06,0-.12,0-.18l0-.18,0-.19,0-.18,0-.18a1.27,1.27,0,0,0-.06-.18l-.12-.35-.06-.18-.07-.17L94,112.1l-.08-.17-.08-.17a1.3,1.3,0,0,0-.08-.17l-.17-.33a11.6,11.6,0,0,0-.79-1.26,10.5,10.5,0,0,0-1-1.13,10.4,10.4,0,0,0-2.34-1.77l-.33-.18-.16-.08-.17-.07-.16-.08-.17-.07-.17-.07-.17-.07-.35-.12-.17,0-.18-.06-.17,0-.18,0-.18,0-.18,0-.36-.07-.18,0-.18,0-.18,0-.18,0c-.12,0-.24,0-.36,0l-.37,0h-.36c-.25,0-.49,0-.73,0l-.36,0-.19,0-.18,0L83,106l-.18,0-.36.08a9.67,9.67,0,0,0-1.39.42,1.15,1.15,0,0,0-.17.06l-.17.07-.17.07-.16.08-.16.08-.17.08-.32.17a12.05,12.05,0,0,0-1.21.8,10.25,10.25,0,0,0-2,2.08,12.1,12.1,0,0,0-.76,1.24l-.16.32-.08.17-.07.17-.07.16-.07.17-.06.17-.06.17-.11.35a1.09,1.09,0,0,0,0,.17l0,.18,0,.17,0,.18,0,.18a1.13,1.13,0,0,0,0,.18l-.07.36s0,.12,0,.18l0,.18,0,.18c0,.06,0,.12,0,.18s0,.24,0,.36,0,.49,0,.73v.37l0,.36a10.34,10.34,0,0,0,.25,1.44c0,.06,0,.12,0,.17l.05.18,0,.18.06.17.06.17a1.27,1.27,0,0,0,.06.18l.13.34c0,.06,0,.11.07.17l.08.16.07.17.09.16.08.17s0,.11.08.16l.19.32.09.16.1.15a.86.86,0,0,1,.1.16l.11.15.11.15.05.07,0,.07.23.3a11.43,11.43,0,0,0,1,1.08,10.41,10.41,0,0,0,1.16.92,11,11,0,0,0,1.28.75l.34.16.17.08.18.07.17.07.18.06.17.07.18.06.36.11.18,0,.18,0,.19,0,.18,0,.19,0,.18,0a10.88,10.88,0,0,0,1.51.15v.06H83.56l-.38,0L83,126l-.19,0-.19,0-.19,0-.19,0-.18-.05-.37-.09-.18-.06-.19-.06-.18,0-.18-.07-.18-.07-.17-.07-.36-.15a10.25,10.25,0,0,1-1.34-.73,11.81,11.81,0,0,1-1.22-.92,10,10,0,0,1-2-2.32l-.2-.33-.09-.16-.09-.17-.09-.17-.08-.17-.09-.18-.08-.17-.14-.35a1.34,1.34,0,0,1-.07-.18l-.06-.18-.07-.18,0-.19-.06-.18a1.21,1.21,0,0,1,0-.18l-.09-.37a1.62,1.62,0,0,1,0-.19l0-.19,0-.19,0-.19-.06-.38,0-.38v-.09a.34.34,0,0,0,0-.1v-.19c0-.25,0-.51,0-.76s0-.26,0-.39,0-.12,0-.19l0-.19,0-.19,0-.19.06-.37,0-.19,0-.19,0-.19a1.21,1.21,0,0,0,0-.18l0-.19c0-.06,0-.12,0-.18l.12-.37.06-.18.07-.18.07-.18.07-.17.08-.18a.89.89,0,0,1,.08-.17l.17-.35a10.72,10.72,0,0,1,.79-1.3,11.15,11.15,0,0,1,1-1.18,13.82,13.82,0,0,1,1.14-1,13.42,13.42,0,0,1,1.28-.84l.34-.18.17-.08.18-.08.17-.08.18-.08.17-.07.18-.07.36-.13.19,0,.18-.06.18,0,.19,0,.18,0,.19,0,.38-.07.19,0,.19,0,.18,0h.2l.38,0,.76,0H85l.39,0,.38,0,.19,0,.18,0,.19,0,.19,0,.38.08.18,0,.19,0,.18,0,.18.06.19,0L88,106l.35.13.18.07.18.08.17.08.17.08.18.08.17.09.33.19a10.77,10.77,0,0,1,1.26.86,12.32,12.32,0,0,1,1.13,1,12,12,0,0,1,.95,1.18,11.72,11.72,0,0,1,.78,1.32l.16.35s0,.11.08.17l.07.18.07.18.07.18.06.18.06.18.11.36c0,.06,0,.13,0,.19l0,.18,0,.19,0,.19,0,.18c0,.07,0,.13,0,.19l0,.38s0,.06,0,.1v.09l0,.19,0,.19a1.21,1.21,0,0,0,0,.19v.38Z"/><path class="cls-4" d="M37.2,95.61c.54,0,1.06,0,1.59,0h96a12.76,12.76,0,1,0-4.71-23.09,21.24,21.24,0,0,0-.18-5.89,21.71,21.71,0,0,0-40.25-7.2,21.15,21.15,0,0,0-35.51,5.25,19.7,19.7,0,1,0-17,30.93ZM91.72,84l.13.15h-.22Z"/><path class="cls-4" d="M374,138.48c.62,0,1.24,0,1.85,0H488.13a14.92,14.92,0,1,0-5.5-27,25.4,25.4,0,0,0-47.29-15.32,24.74,24.74,0,0,0-41.52,6.15A23,23,0,1,0,374,138.48Zm63.76-13.62.15.18h-.26A1.74,1.74,0,0,0,437.73,124.86Z"/><polygon class="cls-10" points="483.07 172.89 427.88 237.18 426.23 204.52 269.03 217.74 231.78 128.03 152.36 165.19 112.01 114.87 0 135.57 115.54 76.65 154.63 117.81 252.16 68.13 310.65 151.22 423.65 153.24 422.13 123.28 483.07 172.89"/><path class="cls-11" d="M321.66,224.27h-.05a1,1,0,0,0-.21,1.89l.21,0h.1l.21,0a1,1,0,0,0-.21-1.89Z"/><path class="cls-11" d="M321.66,236.11h-.05a.5.5,0,0,1-.5-.5V214.23h1.1v21.39a.51.51,0,0,1-.5.5Z"/><path class="cls-11" d="M305.1,236.13a.46.46,0,0,1-.12-.66l15.56-21.55,1,.22L305.73,236A.46.46,0,0,1,305.1,236.13Z"/><path class="cls-11" d="M338.22,236.13a.47.47,0,0,0,.12-.66l-15.56-21.55-1,.22L337.58,236A.47.47,0,0,0,338.22,236.13Z"/><rect class="cls-11" x="319.42" y="209.95" width="4.48" height="0.96" transform="translate(532.09 -111.22) rotate(90)"/><rect class="cls-5" x="320.83" y="212.38" width="1.65" height="2.23" transform="translate(535.16 -108.16) rotate(90)"/><path class="cls-5" d="M321.11,222.61l-3.78-2.46a.34.34,0,0,0-.46.07.36.36,0,0,0,.08.53l4.16,2.65Z"/><path class="cls-5" d="M322.21,222.61l3.77-2.46a.36.36,0,0,1,.47.07.37.37,0,0,1-.08.53l-4.16,2.65Z"/><rect class="cls-12" x="291.74" y="148.11" width="59.84" height="60.87" transform="translate(500.2 -143.11) rotate(90)"/><rect class="cls-5" x="321.37" y="117.23" width="0.58" height="62.2" transform="translate(173.33 469.99) rotate(-90)"/><rect class="cls-5" x="321.37" y="177.64" width="0.58" height="62.2" transform="translate(112.92 530.4) rotate(-90)"/><path class="cls-5" d="M289.83,208.69a.52.52,0,0,0,1,.08.52.52,0,1,0-1-.08Z"/><path class="cls-13" d="M353.48,208.69a.52.52,0,1,1-1,.08.52.52,0,1,1,1-.08Z"/><polygon class="cls-14" points="320.75 145.93 320.75 146.91 321.16 146.91 321.16 148.04 321.66 148.04 321.66 146.91 321.66 145.93 320.75 145.93"/><polygon class="cls-15" points="322.56 145.93 322.56 146.91 322.16 146.91 322.16 148.04 321.66 148.04 321.66 146.91 321.66 145.93 322.56 145.93"/><path class="cls-3" d="M321.66,146.13a.35.35,0,0,0-.35.37.35.35,0,1,0,.7,0A.36.36,0,0,0,321.66,146.13Z"/><rect class="cls-5" x="290.66" y="147.16" width="30.67" height="0.2" transform="translate(-6.93 15.37) rotate(-2.85)"/><polygon class="cls-5" points="352.63 148.13 322 146.6 322.01 146.4 352.64 147.93 352.63 148.13"/><path class="cls-16" d="M289.83,148.28a.53.53,0,0,0,.48.56.52.52,0,1,0,.08-1A.53.53,0,0,0,289.83,148.28Z"/><path class="cls-17" d="M353.48,148.28a.52.52,0,1,1-1,.08.51.51,0,0,1,.48-.56A.52.52,0,0,1,353.48,148.28Z"/><rect class="cls-18" x="298.13" y="162.96" width="3.95" height="30.3"/><rect class="cls-11" x="307.42" y="172.91" width="3.95" height="20.34"/><rect class="cls-5" x="316.24" y="166.38" width="3.95" height="26.9"/><ellipse class="cls-18" cx="279.18" cy="175.93" rx="4.06" ry="9.28" transform="translate(-50.33 158.21) rotate(-29.14)"/><path class="cls-3" d="M274.53,187.76a2.66,2.66,0,0,1,1.57.27,4.72,4.72,0,0,1,2.58,3.48c.68,3.61,2,10.62,2.48,13.31a3.44,3.44,0,0,1-.22,2.08l-.73,1.58a2.12,2.12,0,0,1-2.5,1.25,3.49,3.49,0,0,1-2.15-1.88l-1.27-2.56a13.6,13.6,0,0,0-4-4.86,5.64,5.64,0,0,1-2.12-5c.41-3.88,2.63-6.8,5.77-7.58Z"/><path class="cls-3" d="M264.43,188.7a2.63,2.63,0,0,0-1.42.73,4.73,4.73,0,0,0-1.43,4.09c.42,3.64,1.25,10.73,1.59,13.44a3.44,3.44,0,0,0,.83,1.92l1.17,1.29a2.1,2.1,0,0,0,2.75.45,3.45,3.45,0,0,0,1.49-2.43l.46-2.82a13.6,13.6,0,0,1,2.34-5.82,5.68,5.68,0,0,0,.56-5.36c-1.55-3.58-4.54-5.71-7.77-5.53Z"/><path class="cls-18" d="M265.1,166.35l-6.64,3a2.09,2.09,0,0,0-1.19,2.28l.58,3a17.83,17.83,0,0,0,2.63,6.5l.87,1.33a7.67,7.67,0,0,1,.64,7.25l-.28.65a1.16,1.16,0,0,0,.34,1.37l.05,0a15.53,15.53,0,0,0,13.11,1.78,14.91,14.91,0,0,0,2.07-.91,1.81,1.81,0,0,0,1-2l-.75-3.63a19.82,19.82,0,0,1,.09-8.33l.32-1.41a24.67,24.67,0,0,0,.63-5.55v-1.95a1.79,1.79,0,0,0-1.14-1.67l-4.9-1.93A9.61,9.61,0,0,0,265.1,166.35Z"/><path class="cls-19" d="M267.76,161.25l-3.34,5.49,1.15.91a6.44,6.44,0,0,0,5.37,1.25,3,3,0,0,0,2.35-3.14l-.27-2.49Z"/><path class="cls-20" d="M272.63,166.29a3.1,3.1,0,0,0,1.83-1.51c1.55-2.58.73-5.88-.14-8.77a1.73,1.73,0,0,0-.43-.84,8.41,8.41,0,0,0-2.86-1.48c-2,.46-2.58,2.24-4.61,2.81a.79.79,0,0,0-.46.24.77.77,0,0,0-.12.54,17.46,17.46,0,0,0,.71,2.56,14.79,14.79,0,0,0,.78,2.61,6.29,6.29,0,0,0,3.53,3.65A3.07,3.07,0,0,0,272.63,166.29Z"/><path class="cls-19" d="M272.74,165.77a3.12,3.12,0,0,0,1.83-1.5c1.56-2.59.74-5.89-.13-8.78a2,2,0,0,0-.43-.84,8.5,8.5,0,0,0-2.86-1.48c-2,.46-2.58,2.24-4.61,2.81a.82.82,0,0,0-.47.24.77.77,0,0,0-.12.54,18,18,0,0,0,.71,2.56,14.82,14.82,0,0,0,.79,2.61,6.3,6.3,0,0,0,3.52,3.65A3.09,3.09,0,0,0,272.74,165.77Z"/><ellipse class="cls-18" cx="259.58" cy="178.18" rx="4.06" ry="9.28"/><path class="cls-5" d="M266.7,163s-2.74-3.11-2.85-5.49.52-3.66,1.77-3.83,4.15.87,4.15.87a64.06,64.06,0,0,0-2.32,6.2A3.36,3.36,0,0,1,266.7,163Z"/><path class="cls-5" d="M266.8,153.75s1.15-2.26,2.45-2.41a13.69,13.69,0,0,1,2.23,0,9.18,9.18,0,0,1,4.39,1.44h0a7.92,7.92,0,0,0,1.19.62,7.26,7.26,0,0,1,1.53.73c0,.15-1.07,2.12-2.5,2.12s-5.76-2.69-7.47-.62S266.8,153.75,266.8,153.75Z"/><path class="cls-5" d="M265.22,156s-.63-2.45.24-3.42a13.62,13.62,0,0,1,1.68-1.48,9.06,9.06,0,0,1,4.23-1.82h0a6.34,6.34,0,0,0,1.3-.32,7.42,7.42,0,0,1,1.63-.46c.13.09.6,2.3-.47,3.25s-6.1,1.79-6,4.48S265.22,156,265.22,156Z"/><path class="cls-5" d="M264.25,157.22s-1.2-2.23-.59-3.38a14.66,14.66,0,0,1,1.28-1.83,9.09,9.09,0,0,1,3.67-2.79h0a7.46,7.46,0,0,0,1.19-.62,7.26,7.26,0,0,1,1.46-.84c.15.05,1.14,2.09.33,3.26s-5.5,3.2-4.77,5.79S264.25,157.22,264.25,157.22Z"/><path class="cls-19" d="M266.73,158.52a1.59,1.59,0,0,0,.1,1.79c.39.54,1,.62,1.33.17a1.61,1.61,0,0,0-.1-1.8C267.67,158.14,267.07,158.07,266.73,158.52Z"/><path class="cls-3" d="M275.09,204.5a2.6,2.6,0,0,0-.48.82l-2.22,6a19.65,19.65,0,0,0-1.14,8.5l1.15,13.37,1.72.46,4.66-17.23,2.38-10.09a1.43,1.43,0,0,0-.78-1.61l-1.93-.94A2.8,2.8,0,0,0,275.09,204.5Z"/><path class="cls-3" d="M263.29,206.14a2.91,2.91,0,0,0-.31.9l-1,6.35a19.66,19.66,0,0,0,.55,8.56l3.74,12.88,1.79.12,1.18-17.81.36-10.36a1.44,1.44,0,0,0-1.08-1.43l-2.08-.54A2.79,2.79,0,0,0,263.29,206.14Z"/><path class="cls-3" d="M279.58,182.41a3,3,0,0,1,1.58-4.33,4,4,0,0,1,4.92,1.78,3,3,0,0,1-1.57,4.33A4.09,4.09,0,0,1,279.58,182.41Z"/><path class="cls-19" d="M294.45,175.13l.41.84s-6.49,5.59-10.27,7.7a2.82,2.82,0,1,1-2.48-5C285.52,177.19,294.45,175.13,294.45,175.13Z"/><path class="cls-19" d="M294.27,176l0-.47a1.53,1.53,0,0,1,.51-1.14l.46-.36a2,2,0,0,0,.65-1.2l.13-.72c0-.23.27-.27.32,0,0,0,0,.06,0,.1a4.14,4.14,0,0,1-.33,2.28v0a3.58,3.58,0,0,1-.76,1.1l-.51.48Z"/><path class="cls-21" d="M294.53,175.53a.19.19,0,0,1-.12-.22v-.06a.83.83,0,0,1,.36-.51l.26-.13a1,1,0,0,0,.44-.52l.13-.33c0-.12.16-.11.16,0v.05a2,2,0,0,1-.39,1.09,1.64,1.64,0,0,1-.48.47l-.22.14a.25.25,0,0,1-.15,0Z"/><path class="cls-22" d="M272.22,236.25h-5.94v-1.42l1.79.12,3.45.49a.82.82,0,0,1,.7.81Z"/><path class="cls-23" d="M277.83,235.93l-5.78-1.38.33-1.38,1.74.51,3.21,1.3a.82.82,0,0,1,.5,1Z"/><path class="cls-5" d="M296.13,150.12l-24.61,45.53a.56.56,0,0,1-.76.22.55.55,0,0,1-.21-.76Z"/><path class="cls-19" d="M273.83,187.4l1.84.82a.47.47,0,0,0,.6-.2l.62-1.17a.47.47,0,0,0-.09-.56l-.51-.49a.47.47,0,0,0-.55-.07l-.82.45a.54.54,0,0,1-.39.06.59.59,0,0,0-.57.2l-.14.18Z"/><ellipse class="cls-3" cx="261.48" cy="185.38" rx="3.7" ry="3.26" transform="translate(-31.15 54.6) rotate(-11.26)"/><path class="cls-19" d="M274.4,187.4l.1-1s-8.06-2.9-12.34-3.54a2.82,2.82,0,1,0-.55,5.58C265.32,188.63,274.4,187.4,274.4,187.4Z"/><path class="cls-5" d="M268.06,158.68l.23.19a10.52,10.52,0,0,0,7,2.39.25.25,0,0,1,.25.31l-1.16,4.61a.26.26,0,0,1-.21.19,8,8,0,0,1-7.49-3.32l0-.05.85-3.2a3.55,3.55,0,0,1,.51-1.12Z"/><ellipse class="cls-5" cx="345.19" cy="177.68" rx="9.79" ry="5.51" transform="translate(-12 329.8) rotate(-50.3)"/><path class="cls-11" d="M361.62,210.38a2,2,0,0,1,.33.79l1,5.59a14.36,14.36,0,0,1-.7,7.55L358,235.72l-1.91.12-1.05-15.68-.24-9.14a1.36,1.36,0,0,1,1.16-1.27l2.25-.51A3.22,3.22,0,0,1,361.62,210.38Z"/><path class="cls-11" d="M352.58,210.38a2,2,0,0,1,.33.79l1,5.59a14.36,14.36,0,0,1-.7,7.55L349,235.72l-1.91.12-1-15.68L345.8,211a1.37,1.37,0,0,1,1.17-1.27l2.24-.51A3.22,3.22,0,0,1,352.58,210.38Z"/><path class="cls-11" d="M360.77,191.41a3.44,3.44,0,0,1,1.73.75,4.57,4.57,0,0,1,1.7,4.31c-.56,3.86-1.65,11.35-2.09,14.22a3.55,3.55,0,0,1-1,2l-1.44,1.38a2.92,2.92,0,0,1-3.38.5,3.58,3.58,0,0,1-1.8-2.55l-.52-3a13.23,13.23,0,0,0-2.8-6.12,5.23,5.23,0,0,1-.62-5.66,10.36,10.36,0,0,1,9.56-5.92Z"/><path class="cls-11" d="M347.1,190.78a3.44,3.44,0,0,0-1.72.75,4.54,4.54,0,0,0-1.71,4.31c.56,3.85,1.65,11.35,2.09,14.22a3.58,3.58,0,0,0,1,2l1.45,1.38a2.87,2.87,0,0,0,3.37.5,3.54,3.54,0,0,0,1.8-2.55l.52-3a13.2,13.2,0,0,1,2.81-6.12,5.27,5.27,0,0,0,.62-5.66,10.37,10.37,0,0,0-9.57-5.92Z"/><path class="cls-5" d="M343.63,182.23a10.62,10.62,0,0,1,.91-1.35,8.07,8.07,0,0,0,1.78-5.6c-.05-.6-.07-1.2-.07-1.81v-2.05a1.91,1.91,0,0,1,1.21-1.77l5.17-2a10.14,10.14,0,0,1,7.87.19l7,3.14a2.2,2.2,0,0,1,1.25,2.41l-.61,3.21a18.62,18.62,0,0,1-1.42,4.43,21.56,21.56,0,0,0-1.87,6.28l-.78,5.89a1.22,1.22,0,0,1-.36,1.44l-.05,0a16.39,16.39,0,0,1-13.85,1.88l-.26-.09a9.79,9.79,0,0,1-5.93-14.2Z"/><path class="cls-4" d="M357.54,197.05l-2.74.38a10.39,10.39,0,0,1-8-2.19,2.35,2.35,0,0,1-.79-2.47l3.9-13.72,1.67-11,.27-.11,9.33.31-3.05,6.64a14.94,14.94,0,0,0-1.3,4.91l-.9,9.65A13.44,13.44,0,0,0,357.54,197.05Z"/><path class="cls-19" d="M359.78,163.15l1.44,5.06-1.21,1a6.82,6.82,0,0,1-5.68,1.32,3.16,3.16,0,0,1-2.47-3.32l.18-2.83Z"/><path class="cls-19" d="M355.85,167.37a3.19,3.19,0,0,1-2.3-1c-2.37-2.13-2.55-5.72-2.55-8.9a2,2,0,0,1,.17-1,9.3,9.3,0,0,1,2.44-2.37c2.2-.15,3.29,1.48,5.52,1.43a1,1,0,0,1,.54.1.81.81,0,0,1,.28.51A18.74,18.74,0,0,1,360,159a15.29,15.29,0,0,1,0,2.87,6.64,6.64,0,0,1-2.45,4.77A3.12,3.12,0,0,1,355.85,167.37Z"/><path class="cls-11" d="M351.12,159.75c0-.76,0-1.48,0-1.83-.06-1.63,1.17-2.25,2.06-2.69s1.2-.65,1.22-1.14a.76.76,0,0,1,1.43-.32l.1.17a2.36,2.36,0,0,0,2.11,1.21c1.38,0,1.95,1.2,2.32,3.19.8-2.48.57-4.63-.66-6.22a6.27,6.27,0,0,0-5.36-2.27,4.74,4.74,0,0,0-4,2.42C349.31,154.08,349.62,156.7,351.12,159.75Z"/><ellipse class="cls-5" cx="366.41" cy="180.44" rx="5.51" ry="9.79"/><path class="cls-11" d="M349.06,151.15a1.21,1.21,0,0,1,1.59-.59,1.31,1.31,0,0,1,.38.27,1.59,1.59,0,0,1,.06-.3,2.12,2.12,0,0,1,2.65-1.4,2.07,2.07,0,0,1,1.26,1.05c.05-.06.09-.12.15-.18a1.25,1.25,0,0,1,1.77,0,1.15,1.15,0,0,1,.33.57,1.35,1.35,0,0,1,.34-.17,1.47,1.47,0,0,1,1.87.89,1.61,1.61,0,0,1,.08.48,1.72,1.72,0,0,1,2.06,2.46,1.68,1.68,0,0,1,.44.57,1.86,1.86,0,0,1-.83,2.51,1.72,1.72,0,0,1-.57.18,7.69,7.69,0,0,1-.39,1.23.47.47,0,0,1-.24.26l0,.08c-.17.41-.86.11-.71-.3a.57.57,0,0,0,0-.14.28.28,0,0,1,0-.15v0a1.74,1.74,0,0,0-.14-1.32l-.09-.08a.57.57,0,0,0-.51,0c-.57.24-.56.7-.76,1.3a.4.4,0,0,1-.51.24l0,0a1.14,1.14,0,0,0-.22-.22l0,0a.51.51,0,0,1,0-.13,7,7,0,0,1,.15-1.76l.09-.38a.2.2,0,0,1-.11,0,1.64,1.64,0,0,1-.61-.5,14.31,14.31,0,0,1-4.13-1l-.41-.06-.22.1a.59.59,0,0,1-.76-.38,1.54,1.54,0,0,1-.7-.55,1.37,1.37,0,0,1-.19-.58.88.88,0,0,1-.57-.29l-.1-.15A1.21,1.21,0,0,1,349.06,151.15Z"/><path class="cls-19" d="M362.78,173.59l-1-1.85a.49.49,0,0,1,.15-.65l1.17-.77a.49.49,0,0,1,.59,0l.57.5a.49.49,0,0,1,.13.56l-.4.91a.67.67,0,0,0,0,.42.6.6,0,0,1-.16.61l-.17.17Z"/><path class="cls-19" d="M345.4,169.87l.53-2.06a.48.48,0,0,1,.56-.36l1.38.25a.5.5,0,0,1,.4.44l.07.75a.49.49,0,0,1-.3.49l-.92.39a.62.62,0,0,0-.31.29.59.59,0,0,1-.53.33H346Z"/><ellipse class="cls-5" cx="365.8" cy="185.49" rx="5.04" ry="4.43" transform="translate(143.07 529.89) rotate(-84)"/><path class="cls-5" d="M362.41,172.82l1.45-.28s4.77,8,6,12.42c.47,1.73-1,3.6-3.54,4.09s-4.61-.7-4.81-2.48C361,182.67,362.41,172.82,362.41,172.82Z"/><ellipse class="cls-5" cx="341.66" cy="181.61" rx="5.04" ry="4.43" transform="translate(-13.32 335.57) rotate(-51.44)"/><path class="cls-5" d="M345.62,169.11l1.38.54s-.29,9.32-1.66,13.68c-.54,1.71-2.8,2.49-5.19,1.54s-3.51-3.07-2.71-4.68C339.17,176.67,345.62,169.11,345.62,169.11Z"/><polygon class="cls-4" points="363.86 172.54 364.02 172.81 362.35 173.24 362.41 172.82 363.86 172.54"/><polygon class="cls-4" points="345.62 169.11 347 169.65 346.98 170.18 345.29 169.5 345.62 169.11"/><path class="cls-5" d="M361.22,168.21l-3.45,7.52a9.58,9.58,0,0,0-.82,3.06l-.39,4.22,4.66-8,1.13-6.36Z"/><polygon class="cls-5" points="356.56 183.01 357.57 186.6 355.97 189.45 356.56 183.01"/><polygon class="cls-5" points="351.62 168.01 349.95 179.05 349.33 181.23 348.66 173.59 350.24 168.55 351.62 168.01"/><polygon class="cls-5" points="349.33 181.23 347.55 183.89 347.55 187.52 349.33 181.23"/><path class="cls-24" d="M359.05,235.71l-.85-.83-1.44.7a5.37,5.37,0,0,1-2.36.54h-.72a.53.53,0,0,0-.53.53.53.53,0,0,0,.53.53h4.77A.86.86,0,0,0,359.05,235.71Z"/><path class="cls-25" d="M350.09,235.52l-.85-.83-1.44.7a5.35,5.35,0,0,1-2.36.55h-.72a.53.53,0,0,0-.53.53.53.53,0,0,0,.53.53h4.77A.86.86,0,0,0,350.09,235.52Z"/><path class="cls-26" d="M93.45,115.88l.15,1.66a.15.15,0,0,1-.16.17L90,117.6a.12.12,0,0,1,0-.22l1.52-.63a1.14,1.14,0,0,0,.65-.72l0-.19Z"/><path class="cls-19" d="M90,87.69l3.23,7.14a18.5,18.5,0,0,1,1.53,9.73L93.43,116l-1.36.29-.16-1q-1.06-4.49-1.91-9c-1.12-6-2.25-11-3.77-17.42v-.07A2,2,0,0,1,90,87.69Z"/><path class="cls-27" d="M68.47,98.05l-1.19,1.16a.15.15,0,0,1-.23,0l-2.11-2.78a.11.11,0,0,1,.14-.17l1.45.79a1.1,1.1,0,0,0,1,0l.18-.07Z"/><path class="cls-19" d="M91.33,81.5l-4.68,6.28a18.58,18.58,0,0,1-7.78,6L68.24,98.24l-.91-1,.76-.61c2.26-2.06,4.58-4.08,7-6,4.69-3.87,8.49-7.27,13.41-11.73l.06,0a2,2,0,0,1,2.82,2.71Z"/><ellipse class="cls-28" cx="100.42" cy="57.08" rx="9.26" ry="2.74" transform="matrix(0.68, -0.73, 0.73, 0.68, -9.86, 91.44)"/><path class="cls-19" d="M84.82,66.29l-1.36,1.22a.42.42,0,0,1-.58,0L82,66.66a.41.41,0,0,1-.08-.5l.31-.57a.42.42,0,0,1,.45-.21l.84.16a.46.46,0,0,0,.36-.06.55.55,0,0,1,.54,0l.17.12Z"/><path class="cls-19" d="M97.84,61.08A2.11,2.11,0,0,0,95,59.86c-4.6,2-11,5.57-11,5.57l.42,1.17a105.21,105.21,0,0,0,12-2.8A2.14,2.14,0,0,0,97.84,61.08Z"/><path class="cls-11" d="M101.16,37.07a.91.91,0,0,1,.92-1h1.63a6.23,6.23,0,0,1,5.4,3.12l.29.5a11.78,11.78,0,0,1,1.45,7.64L110,52.87,110,58a5.31,5.31,0,0,1-2.45,4.56,5.2,5.2,0,0,1-8-4.46l0-3.22a29.64,29.64,0,0,1,1.49-9.2L102.34,42a3.63,3.63,0,0,0-.6-3.36A2.82,2.82,0,0,1,101.16,37.07Z"/><path class="cls-19" d="M108.91,45.12s-1.31,5,.68,7.75l-5,2-3.06-2.71s1.61.75,2-7.59Z"/><path class="cls-19" d="M103.86,47.93c-.71,0-2.8-.28-2.87-1a35.14,35.14,0,0,1-.4-7.39,2,2,0,0,1,.22-.79A3.78,3.78,0,0,1,103,37c1.83,0,2.61,1.45,4.46,1.58a.76.76,0,0,1,.45.12.71.71,0,0,1,.19.44,13.52,13.52,0,0,1-.16,2.28,11.35,11.35,0,0,1-.21,2.33,5.44,5.44,0,0,1-2.39,3.69A2.75,2.75,0,0,1,103.86,47.93Z"/><path class="cls-11" d="M101.2,38.17l2,.23A2.82,2.82,0,0,1,105.73,41l.19,3.13a12.11,12.11,0,0,0,2.14,6.15,3.54,3.54,0,0,0,.48.6c.15,0,.9-.82.83-1s.13-6.33.21-9a4.26,4.26,0,0,0-.54-2.19l-.11-.2a4.73,4.73,0,0,0-4-2.38l-2.58-.06L101,37.6A.34.34,0,0,0,101.2,38.17Z"/><path class="cls-29" d="M110.8,78.32a22.66,22.66,0,0,1-9.49-.1h-.39a1.42,1.42,0,0,1-1-2,63.54,63.54,0,0,0-1.35-18c-.6-2.47,2.11-4.62,2.41-5.45l.26-.43a3.89,3.89,0,0,1,2.44-1.82c1.8-.43,4.63-.8,6.3.51.6.47,1.73,1.58,1.76,2C111.76,53.05,112.54,78,110.8,78.32Z"/><ellipse class="cls-30" cx="104.32" cy="61.24" rx="9.26" ry="2.74" transform="translate(16.06 143.96) rotate(-73.56)"/><path class="cls-19" d="M98,56.77l-1.18-1.39a.43.43,0,0,1,0-.58l.86-.84a.42.42,0,0,1,.51-.06l.55.32a.43.43,0,0,1,.2.46l-.18.83a.5.5,0,0,0,0,.36.53.53,0,0,1,0,.54l-.12.17Z"/><path class="cls-19" d="M102.85,69.93a2.1,2.1,0,0,0,1.3-2.77C102.31,62.5,98.89,56,98.89,56l-1.19.39a105.56,105.56,0,0,0,2.47,12.06A2.13,2.13,0,0,0,102.85,69.93Z"/><path class="cls-31" d="M83.88,77.27c3.46-.63,21.22-4.16,22.57-4,.73.1,1.72,1.33,2,1.7l.42.47c2.37,2.68,4.43,4.32,1.75,8.42-1.28,2-6.64,3.13-8.9,3.33l-.54.06a14.7,14.7,0,0,0-9.25,5,5.84,5.84,0,0,1-1.11,1.13c-.7.11-2.28-1.76-2.67-2.15a1.53,1.53,0,0,1-.29-.38s-1.48-2.15-2.75-4.15a10.56,10.56,0,0,1-1.63-6.12A13.2,13.2,0,0,1,83.88,77.27Z"/><path class="cls-11" d="M101.53,38.21A10.94,10.94,0,0,0,97,43.05l-.3.63L97,39.83a4,4,0,0,1,4-3.75h1.79Z"/><path class="cls-32" d="M78.35,208.84c-.88,3.3-2.37,6.72-2.89,10.29s1.42,11.45,1.57,17.74h1.14c1.22-11.07,2.66-12.09,3.49-15.81s.34-7.68.9-12.87c.21-1.92.53-4-1.14-4.18C78.88,203.65,79,207.17,78.35,208.84Z"/><path class="cls-32" d="M86.61,208.84c.88,3.3,2.37,6.72,2.89,10.29s-1.42,11.45-1.57,17.74H86.79c-1.22-11.07-2.67-12.09-3.49-15.81s-.35-7.68-.9-12.87c-.21-1.92-.54-4,1.14-4.18C86.08,203.65,86,207.17,86.61,208.84Z"/><path class="cls-5" d="M89.49,155.33c.71-1.24.68-1.91-.16-2.18A7.38,7.38,0,0,0,86.5,153c-2.38.26-3.77,1.75-4.7,2.37a2.15,2.15,0,0,1-2.1.42,2.56,2.56,0,0,1-.39-.18c-.12-.12,0-.07.82.72A10.91,10.91,0,0,1,83.22,162c.68,2.64.49,5.3,1.16,7.25s2.08,3.25,5,3.91c2.62.6,5.48.73,5.4.54.17-.28-2.59-.88-5.3-4.15a10.84,10.84,0,0,1-2.19-5.81A15.33,15.33,0,0,1,89.49,155.33Z"/><path class="cls-5" d="M89.07,154.16a2.23,2.23,0,1,0-.33,3.14A2.23,2.23,0,0,0,89.07,154.16Z"/><path class="cls-5" d="M81,156.22a2.24,2.24,0,1,0-.34,3.14A2.23,2.23,0,0,0,81,156.22Z"/><path class="cls-5" d="M81.42,155a2.23,2.23,0,1,0-.33,3.15A2.24,2.24,0,0,0,81.42,155Z"/><path class="cls-33" d="M82.16,154a2.23,2.23,0,1,0-.33,3.14A2.23,2.23,0,0,0,82.16,154Z"/><path class="cls-5" d="M83.66,153.09a2.24,2.24,0,1,0-.34,3.14A2.24,2.24,0,0,0,83.66,153.09Z"/><circle class="cls-5" cx="83.96" cy="153.98" r="2.23"/><path class="cls-5" d="M87.93,153.27a2.24,2.24,0,1,0-.34,3.15A2.24,2.24,0,0,0,87.93,153.27Z"/><path class="cls-5" d="M77.48,155.33c-.7-1.24-.68-1.91.16-2.18a7.38,7.38,0,0,1,2.83-.15c2.38.26,3.77,1.75,4.7,2.37a2.15,2.15,0,0,0,2.1.42,2.56,2.56,0,0,0,.39-.18c.12-.12,0-.07-.82.72A10.91,10.91,0,0,0,83.75,162c-.68,2.64-.49,5.3-1.15,7.25s-2.08,3.25-5,3.91c-2.63.6-5.48.73-5.41.54-.17-.28,2.59-.88,5.3-4.15a10.84,10.84,0,0,0,2.19-5.81A15.33,15.33,0,0,0,77.48,155.33Z"/><path class="cls-34" d="M85.68,173a3.35,3.35,0,0,1-2.39,1A3,3,0,0,1,81,173a22.55,22.55,0,0,0,0-6.13c-.5-2.63,5.1-4,4.68,0A22.91,22.91,0,0,0,85.68,173Z"/><path class="cls-34" d="M83.53,168.66a3.1,3.1,0,0,0,2.09-1c2.06-2.14,2-5.49,1.8-8.45a1.85,1.85,0,0,0-.23-.9,8.27,8.27,0,0,0-2.42-2.05c-2.06,0-3,1.58-5,1.68a.87.87,0,0,0-.5.13.78.78,0,0,0-.23.49,16.58,16.58,0,0,0,.12,2.62,14,14,0,0,0,.18,2.67,6.2,6.2,0,0,0,2.58,4.28A3,3,0,0,0,83.53,168.66Z"/><path class="cls-5" d="M78.25,161.5c.13.3.24.6.36.9a.37.37,0,0,0,.72-.12c0-.15,0-.31,0-.47.23-2.64.72-3.08,1.42-3.13a2.85,2.85,0,0,0,2.42-1.62l.07-.16a.09.09,0,0,1,.17,0c.22,1.8,3.22,1.15,3.29,3.27,0,.63.12,2.51.19,3.52,0,.18.6.3.69.14C95.69,148,73.4,149.67,78.25,161.5Z"/><path class="cls-4" d="M88.18,184.46c-1-1.13.14-4,.14-4a3.61,3.61,0,0,0,1.09-2.27c0-.49,0-7.28-.42-7.29a7.47,7.47,0,0,1-2.92-.85,1.4,1.4,0,0,0-1.32,0c-.29.16-.72,1.56-1.32,1.56s-1.05-1.4-1.35-1.56a1.43,1.43,0,0,0-1.29,0,8.16,8.16,0,0,1-2.67.83c-.41,0-.74,6.71-.68,7.29a3.65,3.65,0,0,0,1.08,2.27s1.44,3.14.15,4C72.43,188.33,74.56,214,74.56,214s3.48.37,8.34.37a43.66,43.66,0,0,0,8.46-.79S94.26,191.15,88.18,184.46Z"/><path class="cls-34" d="M86.73,170.39a12.06,12.06,0,0,1-1.45-.71,2.64,2.64,0,0,1-3.71,0,9.71,9.71,0,0,1-1.42.73c-.58.24.74,3.6,3.27,3.6S87.31,170.63,86.73,170.39Z"/><g class="cls-35"><path class="cls-36" d="M87.17,180.23c-1.47.11-3-.53-4.34-.17a8.68,8.68,0,0,1-2.63.45,2.38,2.38,0,0,1-1.86-.83A1.86,1.86,0,0,0,80.08,181a9.07,9.07,0,0,0,2.73-.43c1.37-.36,3,.23,4.5.14a1.44,1.44,0,0,0,1.34-1C88.34,180.22,87.66,180.2,87.17,180.23Z"/></g><path class="cls-4" d="M87.07,236.17h.31a1.4,1.4,0,0,1,1.4,1.4v0a0,0,0,0,1,0,0H85.67a0,0,0,0,1,0,0v0A1.4,1.4,0,0,1,87.07,236.17Z"/><path class="cls-4" d="M77.38,236.17h.31a1.4,1.4,0,0,1,1.4,1.4v0a0,0,0,0,1,0,0H76a0,0,0,0,1,0,0v0A1.4,1.4,0,0,1,77.38,236.17Z"/><g class="cls-37"><path class="cls-12" d="M92.18,182.75l.06,0,0,0,0,0Z"/></g><path class="cls-11" d="M100.72,208.67c-3.38,6.25-7.8,8.53-11.74,10.55-3.08,1.6-6,3.1-7.71,6.28-.76,1.4-2.63,1.84-3.92,2L63,219.69c-.59-1.16-1.24-3-.49-4.36,1.72-3.19,1.39-6.44,1-9.94-.45-4.37-1-9.31,2.42-15.55,5-9.16,16.8-12.4,26.4-7.22S105.68,199.5,100.72,208.67Z"/><path class="cls-11" d="M60.51,234.27a2.18,2.18,0,0,0,1,1.19L65,237.33a2.25,2.25,0,0,0,1.54.18A7.32,7.32,0,0,0,69,236.42l-8.91-4.81A7.3,7.3,0,0,0,60.51,234.27Z"/><path class="cls-3" d="M69,236.43a6.28,6.28,0,0,0,6.38-3.05l.55-.91L59.56,223.6l-.47,1h0a6.33,6.33,0,0,0,1,7L69,236.43Z"/><path class="cls-4" d="M78.87,227.56l-16.8-9.09c-.62,1.24-1.84,3.75-2.51,5.13l16.38,8.87C76.73,231.15,78.17,228.76,78.87,227.56Z"/><path class="cls-4" d="M98.53,185.11S88.64,177.36,87,174.37a2.2,2.2,0,0,1,1.4-3.38c2.1-.55,4,2.44,4.91,3.53,2.32,2.77,7.31,8.49,7.31,8.49Z"/><path class="cls-34" d="M92.49,196.31l-.55,1a3.24,3.24,0,0,0-.27.6,3.46,3.46,0,0,1-.65,1.19c-.8,1-2.31,2.64-2.92,2.47l-.68-.09a.34.34,0,0,1-.26-.34c0-.17,1.78-3.1,1.78-3.1a2.25,2.25,0,0,1,.76-.89l.26-.18a2.18,2.18,0,0,0,.94-1.05l.33-.41Z"/><path class="cls-4" d="M98.09,183.38c-.49.82-7.16,12.42-7.16,12.42s.31.62,1.47.78c.29-.48,7.92-11.17,8.25-11.77a1.32,1.32,0,0,0-.41-2A1.36,1.36,0,0,0,98.09,183.38Z"/><path class="cls-4" d="M70.56,186.56s8.48-9.25,9.67-12.48A2.21,2.21,0,0,0,78.29,171c-2.16-.2-3.54,3.06-4.27,4.29-1.84,3.11-5.82,9.57-5.82,9.57Z"/><path class="cls-34" d="M82.41,190.94l1,.39a3.53,3.53,0,0,0,.64.16,3.59,3.59,0,0,1,1.28.43c1.09.64,3,1.84,2.93,2.47l0,.69a.33.33,0,0,1-.29.31c-.17,0-3.36-1.24-3.36-1.24a2.17,2.17,0,0,1-1-.59l-.22-.22a2.14,2.14,0,0,0-1.2-.75l-.46-.26Z"/><path class="cls-4" d="M67.84,185.4c-.5,1.09.19,1.6.8,1.91.33.17,4,1.59,7.48,2.9,2.95,1.12,5.69,2.16,5.93,2.27a1.86,1.86,0,0,0,.79-1.46L76.65,188c-3.09-1.51-6.25-3.07-6.68-3.27A1.37,1.37,0,0,0,67.84,185.4Z"/><ellipse class="cls-18" cx="419.5" cy="68.69" rx="10.27" ry="4.49" transform="translate(201.57 433.66) rotate(-68.46)"/><ellipse class="cls-18" cx="438.37" cy="68.91" rx="4.49" ry="10.27" transform="translate(-1.08 130.53) rotate(-16.92)"/><path class="cls-18" d="M429.18,88.31a18,18,0,0,1-5.69-.79,16.62,16.62,0,0,1-2.29-1,2,2,0,0,1-1.14-2.24l.82-4a21.71,21.71,0,0,0-.1-9.22l-.35-1.55a27.68,27.68,0,0,1-.69-6.15V61.21A2,2,0,0,1,421,59.35l5.42-2.13a5.92,5.92,0,0,1,5.51,0l5.42,2.13a2,2,0,0,1,1.26,1.86v2.15a27.68,27.68,0,0,1-.69,6.15l-.35,1.55a21.71,21.71,0,0,0-.1,9.22l.82,4a2,2,0,0,1-1.13,2.24,17.76,17.76,0,0,1-2.29,1A18,18,0,0,1,429.18,88.31Z"/><path class="cls-19" d="M429.18,60.37a7.81,7.81,0,0,1-1-.14,3.3,3.3,0,0,1-2.59-3.48l.13-1.81,3.43-1,3.42,1,.14,1.81a3.32,3.32,0,0,1-2.6,3.48A7.93,7.93,0,0,1,429.18,60.37Z"/><path class="cls-19" d="M429.18,56.92a3.77,3.77,0,0,1-1.79-1c-2.48-2.24-2.67-6-2.67-9.34a1.91,1.91,0,0,1,.18-1,9.57,9.57,0,0,1,2.55-2.49,4.54,4.54,0,0,1,1.73.23,4.46,4.46,0,0,1,1.72-.23,9.42,9.42,0,0,1,2.55,2.49,2,2,0,0,1,.19,1c0,3.34-.19,7.1-2.67,9.34A3.87,3.87,0,0,1,429.18,56.92Z"/><path class="cls-5" d="M428.44,46.05a45.34,45.34,0,0,1-2.74-4.24,12.57,12.57,0,0,1,6.95,0,45.34,45.34,0,0,1-2.74,4.24A.92.92,0,0,1,428.44,46.05Z"/><path class="cls-5" d="M429.18,38.6a6.68,6.68,0,0,0-1,0,5,5,0,0,0-4.24,2.54c-1,1.9-.67,4.64.9,7.84,0-.79,0-1.55,0-1.92-.07-1.71,1.22-2.35,2.17-2.82s1.25-.68,1.27-1.19a.81.81,0,0,1,.74-.76h.39a.81.81,0,0,1,.74.76c0,.51.41.76,1.28,1.19s2.23,1.11,2.16,2.82c0,.37,0,1.13,0,1.92,1.57-3.2,1.9-5.94.9-7.84a5,5,0,0,0-4.23-2.54A6.66,6.66,0,0,0,429.18,38.6Z"/><path class="cls-5" d="M429.18,53.25c-4.49,0-4.27-3.42-4.27-3.42-.37-1.3-.31-.35-.35,1,0,.29,0,.57,0,.84a7.89,7.89,0,0,0,1.13,3.69,3.7,3.7,0,0,0,6.95,0,7.78,7.78,0,0,0,1.13-3.69c0-.27,0-.55,0-.84,0-1.39,0-2.34-.35-1C433.44,49.83,433.66,53.27,429.18,53.25Z"/><path class="cls-5" d="M427.21,42.27c-.75,0-1.38.27-1.51.65a38.56,38.56,0,0,1-1.65,4.36c-.48.8,2.18,1.37,3.4-.37l.39-.54a3.8,3.8,0,0,0,1-2.62c0-.2,0-.4-.05-.59,0-.41-.71-.85-1.57-.89Z"/><path class="cls-5" d="M431.14,42.27c.75,0,1.38.27,1.51.65a36.87,36.87,0,0,0,1.66,4.36c.47.8-2.18,1.37-3.41-.37-.12-.18-.26-.36-.39-.54a3.79,3.79,0,0,1-1-2.62c0-.2,0-.4,0-.59,0-.41.72-.85,1.57-.89Z"/><path class="cls-3" d="M419.31,77.73a3.32,3.32,0,0,0-.4-5.09,4.5,4.5,0,0,0-5.78.45,3.32,3.32,0,0,0,.41,5.09A4.5,4.5,0,0,0,419.31,77.73Z"/><path class="cls-19" d="M409.06,62.89l-.92.57s2.87,9,5.19,13.22a3.12,3.12,0,1,0,5.27-3.27C416.24,70,409.06,62.89,409.06,62.89Z"/><path class="cls-3" d="M438.3,77.64a3.3,3.3,0,0,1,.54-5.07,4.51,4.51,0,0,1,5.76.6,3.31,3.31,0,0,1-.54,5.07A4.49,4.49,0,0,1,438.3,77.64Z"/><path class="cls-19" d="M449,63.08l.9.6s-3.12,8.95-5.54,13.07a3.12,3.12,0,1,1-5.18-3.41C441.57,70,449,63.08,449,63.08Z"/><path class="cls-5" d="M439.49,95.73l5.05,1.77a3.35,3.35,0,1,0,1-6.49l-5.21.17Z"/><path class="cls-11" d="M440.66,96l-27.25-2.16a4.77,4.77,0,0,1,1.6-9.4l25.93,7C443,91.76,442.74,96.23,440.66,96Z"/><rect class="cls-4" x="443.23" y="92.05" width="0.7" height="3.4" rx="0.35" transform="translate(32.26 -96.95) rotate(12.94)"/><rect class="cls-4" x="443.77" y="93.83" width="3.4" height="0.7" rx="0.28" transform="translate(253.94 507.26) rotate(-77.06)"/><path class="cls-5" d="M418,90.39l-5.35,0a3.35,3.35,0,1,0,.8,6.61l5.41-1.31Z"/><path class="cls-11" d="M418.87,95.71l26.58-2.33A4.77,4.77,0,0,0,443.9,84L418,90.39C416,90.8,416.79,96,418.87,95.71Z"/><rect class="cls-4" x="414.96" y="91.52" width="0.7" height="3.4" rx="0.35" transform="translate(-8.46 53.33) rotate(-7.27)"/><rect class="cls-4" x="413" y="91.77" width="0.7" height="3.4" rx="0.28" transform="translate(-8.5 53.04) rotate(-7.27)"/><path class="cls-19" d="M448.55,63.55,449,63a2.38,2.38,0,0,1,1.71-.93h.92a3.07,3.07,0,0,0,1.94-.87l.83-.76c.28-.25.59-.08.44.24,0,0,0,.09-.07.14a6.49,6.49,0,0,1-2.57,2.52h0a5.62,5.62,0,0,1-2,.64l-1.07.12Z"/><path class="cls-21" d="M449.32,63.22a.27.27,0,0,1,.05-.38l.07-.06a1.23,1.23,0,0,1,.93-.29l.45.08a1.46,1.46,0,0,0,1-.23l.49-.29c.15-.1.29,0,.18.16l0,.06a3.25,3.25,0,0,1-1.5,1,2.79,2.79,0,0,1-1.05.12l-.4,0a.3.3,0,0,1-.2-.12Z"/><path class="cls-19" d="M409.2,63.05l-.46-.55a2.34,2.34,0,0,0-1.71-.93h-.92a3.07,3.07,0,0,1-1.93-.87l-.84-.76c-.28-.25-.59-.08-.43.24,0,0,0,.09.07.14a6.42,6.42,0,0,0,2.57,2.52h0a5.68,5.68,0,0,0,2,.64l1.07.12Z"/><path class="cls-21" d="M408.44,62.72a.28.28,0,0,0-.06-.38l-.07-.06a1.21,1.21,0,0,0-.92-.29l-.45.08a1.54,1.54,0,0,1-1-.23l-.48-.29c-.16-.1-.3,0-.19.16l.05.06a3.15,3.15,0,0,0,1.5,1,2.74,2.74,0,0,0,1,.12l.4,0a.29.29,0,0,0,.21-.11Z"/><ellipse class="cls-3" cx="201.98" cy="86.13" rx="8.4" ry="3.67" transform="translate(-0.34 0.8) rotate(-0.23)"/><path class="cls-11" d="M196.82,100.48a2.39,2.39,0,0,1,1.42.25,4.23,4.23,0,0,1,2.34,3.15c.62,3.27,1.81,9.62,2.25,12.06a3.19,3.19,0,0,1-.2,1.88l-.67,1.43a1.92,1.92,0,0,1-2.26,1.13,3.15,3.15,0,0,1-1.94-1.7l-1.15-2.32A12.41,12.41,0,0,0,193,112a5.13,5.13,0,0,1-1.92-4.49c.37-3.51,2.38-6.15,5.23-6.86Z"/><path class="cls-11" d="M187.67,101.33a2.4,2.4,0,0,0-1.28.66,4.26,4.26,0,0,0-1.3,3.7c.38,3.31,1.13,9.73,1.44,12.18a3.12,3.12,0,0,0,.75,1.74l1.06,1.17a1.91,1.91,0,0,0,2.49.41,3.13,3.13,0,0,0,1.36-2.2l.41-2.56a12.32,12.32,0,0,1,2.12-5.27,5.12,5.12,0,0,0,.5-4.86c-1.4-3.24-4.1-5.16-7-5Z"/><path class="cls-3" d="M188.28,81.09l-6,2.7a1.88,1.88,0,0,0-1.08,2.06l.52,2.76a16.31,16.31,0,0,0,2.38,5.88l.8,1.2a7,7,0,0,1,.57,6.58l-.25.59a1,1,0,0,0,.31,1.23l0,0a14,14,0,0,0,11.88,1.61,15,15,0,0,0,1.87-.82,1.62,1.62,0,0,0,.93-1.82l-.67-3.29a18,18,0,0,1,.08-7.55l.29-1.27a22.43,22.43,0,0,0,.57-5V84.2a1.64,1.64,0,0,0-1-1.52L195,80.93A8.69,8.69,0,0,0,188.28,81.09Z"/><path class="cls-19" d="M190.69,76.47l-3,5,1,.83a5.87,5.87,0,0,0,4.87,1.13,2.71,2.71,0,0,0,2.13-2.85l-.24-2.25Z"/><path class="cls-38" d="M195.1,81a2.8,2.8,0,0,0,1.65-1.36c1.42-2.34.67-5.33-.12-8a1.54,1.54,0,0,0-.39-.76,7.81,7.81,0,0,0-2.59-1.34c-1.84.42-2.33,2-4.17,2.54a.72.72,0,0,0-.42.22.69.69,0,0,0-.11.49,15.11,15.11,0,0,0,.64,2.32,13.08,13.08,0,0,0,.71,2.36,5.69,5.69,0,0,0,3.19,3.31A2.8,2.8,0,0,0,195.1,81Z"/><path class="cls-19" d="M195.2,80.56a2.79,2.79,0,0,0,1.66-1.36c1.41-2.34.67-5.33-.12-8a1.72,1.72,0,0,0-.39-.76,7.91,7.91,0,0,0-2.59-1.34c-1.85.42-2.34,2-4.18,2.54a.75.75,0,0,0-.42.22.69.69,0,0,0-.11.49,16.38,16.38,0,0,0,.65,2.32,13.08,13.08,0,0,0,.71,2.36,5.66,5.66,0,0,0,3.19,3.31A2.75,2.75,0,0,0,195.2,80.56Z"/><ellipse class="cls-3" cx="183.28" cy="91.8" rx="3.67" ry="8.4"/><path class="cls-5" d="M189.73,78.05s-2.49-2.81-2.58-5,.47-3.31,1.6-3.47a12.48,12.48,0,0,1,3.76.79A58.86,58.86,0,0,0,190.4,76,3,3,0,0,1,189.73,78.05Z"/><path class="cls-5" d="M189.24,71.94s-.58-2.22.21-3.11A13.26,13.26,0,0,1,191,67.5a8.18,8.18,0,0,1,3.83-1.65h0a6.56,6.56,0,0,0,1.18-.29,7.21,7.21,0,0,1,1.47-.42c.12.08.55,2.08-.42,2.94s-5.53,1.63-5.44,4.06S189.24,71.94,189.24,71.94Z"/><path class="cls-5" d="M188.77,71.06s.24-2.28,1.29-2.83a12.83,12.83,0,0,1,1.9-.72,8.2,8.2,0,0,1,4.17-.19h0a6.16,6.16,0,0,0,1.2.15,6.43,6.43,0,0,1,1.53.12c.08.12-.22,2.14-1.43,2.61s-5.75-.44-6.53,1.87S188.77,71.06,188.77,71.06Z"/><path class="cls-5" d="M187.51,72.82s-1.09-2-.54-3.07a14.46,14.46,0,0,1,1.16-1.66,8.21,8.21,0,0,1,3.33-2.52h0a6.42,6.42,0,0,0,1.07-.56,6,6,0,0,1,1.33-.76c.14.05,1,1.89.29,3s-5,2.89-4.31,5.24S187.51,72.82,187.51,72.82Z"/><path class="cls-19" d="M189.76,74a1.46,1.46,0,0,0,.09,1.63c.35.49.89.55,1.2.15a1.46,1.46,0,0,0-.09-1.63C190.6,73.65,190.06,73.59,189.76,74Z"/><path class="cls-11" d="M197.33,115.64a2.35,2.35,0,0,0-.44.75l-2,5.46a17.69,17.69,0,0,0-1,7.7l1,12.11,1.56.42,4.22-15.61,2.15-9.15a1.28,1.28,0,0,0-.7-1.45l-1.75-.85A2.53,2.53,0,0,0,197.33,115.64Z"/><path class="cls-11" d="M186.64,117.13a2.66,2.66,0,0,0-.28.82l-.9,5.75a17.82,17.82,0,0,0,.5,7.75l3.39,11.67,1.62.11L192,127.1l.32-9.39a1.29,1.29,0,0,0-1-1.29l-1.89-.5A2.55,2.55,0,0,0,186.64,117.13Z"/><path class="cls-5" d="M206.24,88.22a2.71,2.71,0,0,0,4-1.29,3.7,3.7,0,0,0-1.46-4.52,2.71,2.71,0,0,0-4,1.29A3.7,3.7,0,0,0,206.24,88.22Z"/><path class="cls-19" d="M214,74.71l-.74-.4S208,80,206,83.36a2.56,2.56,0,1,0,4.47,2.41C211.88,82.73,214,74.71,214,74.71Z"/><path class="cls-19" d="M213.24,74.85h.42a1.38,1.38,0,0,0,1.05-.43l.35-.4a1.77,1.77,0,0,1,1.1-.56l.66-.09c.21,0,.25-.23.05-.28l-.09,0a3.68,3.68,0,0,0-2.08.22h0a3.32,3.32,0,0,0-1,.66l-.45.44Z"/><path class="cls-38" d="M213.68,74.63a.17.17,0,0,0,.19.12h0a.74.74,0,0,0,.47-.31l.13-.24a.91.91,0,0,1,.49-.37l.31-.11c.1,0,.1-.14,0-.14h0a1.81,1.81,0,0,0-1,.31,1.52,1.52,0,0,0-.45.42l-.13.19a.17.17,0,0,0,0,.14Z"/><path class="cls-3" d="M194.73,144.4h-5.38v-1.28l1.62.11,3.12.44a.74.74,0,0,1,.64.73Z"/><path class="cls-3" d="M199.81,144.11l-5.23-1.25.3-1.24,1.57.46,2.91,1.17a.76.76,0,0,1,.45.86Z"/><path class="cls-19" d="M196.19,100.15l1.66.75a.41.41,0,0,0,.54-.19l.57-1.06a.41.41,0,0,0-.08-.5l-.47-.44a.41.41,0,0,0-.49-.07l-.75.41a.47.47,0,0,1-.35,0,.55.55,0,0,0-.51.19l-.13.16Z"/><ellipse class="cls-5" cx="185" cy="98.32" rx="3.35" ry="2.95" transform="translate(-15.63 38) rotate(-11.26)"/><path class="cls-19" d="M196.7,100.16l.09-.88s-7.3-2.63-11.17-3.21a2.56,2.56,0,1,0-.5,5.05C188.48,101.27,196.7,100.16,196.7,100.16Z"/><polygon class="cls-5" points="153.83 239.26 151.84 239.26 196.27 119.66 198.26 119.66 153.83 239.26"/><polygon class="cls-5" points="168.91 239.26 166.91 239.26 211.34 119.66 213.33 119.66 168.91 239.26"/><polygon class="cls-5" points="206.16 133.62 193.07 133.62 193.94 131.29 207.02 131.29 206.16 133.62"/><polygon class="cls-5" points="201.6 145.88 188.52 145.88 189.39 143.54 202.47 143.54 201.6 145.88"/><polygon class="cls-5" points="197.05 158.13 183.97 158.13 184.84 155.8 197.92 155.8 197.05 158.13"/><polygon class="cls-5" points="192.5 170.39 179.41 170.39 180.28 168.05 193.37 168.05 192.5 170.39"/><polygon class="cls-5" points="187.95 182.64 174.86 182.64 175.73 180.31 188.81 180.31 187.95 182.64"/><polygon class="cls-5" points="183.4 194.9 170.31 194.9 171.18 192.56 184.26 192.56 183.4 194.9"/><polygon class="cls-5" points="178.84 207.15 165.76 207.15 166.63 204.82 179.71 204.82 178.84 207.15"/><polygon class="cls-5" points="174.29 219.41 161.21 219.41 162.07 217.07 175.16 217.07 174.29 219.41"/><polygon class="cls-5" points="169.74 231.66 156.66 231.66 157.52 229.33 170.61 229.33 169.74 231.66"/><polygon class="cls-3" points="198.26 119.66 196.27 119.66 240.69 239.26 242.69 239.26 198.26 119.66"/><polygon class="cls-3" points="213.34 119.66 211.34 119.66 255.77 239.26 257.76 239.26 213.34 119.66"/><polygon class="cls-3" points="250.59 225.3 237.5 225.3 238.37 227.64 251.45 227.64 250.59 225.3"/><polygon class="cls-3" points="246.03 213.05 232.95 213.05 233.81 215.38 246.9 215.38 246.03 213.05"/><polygon class="cls-3" points="241.48 200.79 228.4 200.79 229.26 203.13 242.35 203.13 241.48 200.79"/><polygon class="cls-3" points="236.93 188.54 223.84 188.54 224.71 190.87 237.8 190.87 236.93 188.54"/><polygon class="cls-3" points="232.38 176.28 219.29 176.28 220.16 178.62 233.24 178.62 232.38 176.28"/><polygon class="cls-3" points="227.82 164.03 214.74 164.03 215.61 166.37 228.69 166.37 227.82 164.03"/><polygon class="cls-3" points="223.27 151.78 210.19 151.78 211.06 154.11 224.14 154.11 223.27 151.78"/><polygon class="cls-3" points="218.72 139.52 205.64 139.52 206.5 141.85 219.59 141.85 218.72 139.52"/><polygon class="cls-3" points="214.17 127.27 201.08 127.27 201.95 129.6 215.04 129.6 214.17 127.27"/><path class="cls-39" d="M126.8,240.77l-.15,1.61a.16.16,0,0,0,.16.17l3.39-.11a.11.11,0,0,0,0-.21l-1.48-.61a1.09,1.09,0,0,1-.63-.71l0-.18Z"/><ellipse class="cls-4" cx="137.89" cy="182.27" rx="2.67" ry="9" transform="translate(-84.56 129.84) rotate(-39.63)"/><path class="cls-19" d="M153.79,188.79l1.59.8a.41.41,0,0,0,.54-.15l.6-1a.41.41,0,0,0-.06-.49l-.43-.45a.41.41,0,0,0-.48-.09l-.74.36a.47.47,0,0,1-.35,0,.51.51,0,0,0-.51.15l-.13.15Z"/><path class="cls-19" d="M140.25,187.15a2,2,0,0,1,2.33-1.84c4.82.69,11.72,2.47,11.72,2.47l-.1,1.21a103.28,103.28,0,0,1-12,.38A2.08,2.08,0,0,1,140.25,187.15Z"/><path class="cls-19" d="M126.69,170.55s3.23,3.79,2.65,7.08l5.24-.32,1.55-3.66s-1.09,1.34-4.91-5.84Z"/><path class="cls-19" d="M132.3,170.89c.61-.32,2.33-1.42,2.1-2.06a34.16,34.16,0,0,0-2.75-6.66,2,2,0,0,0-.53-.59,3.65,3.65,0,0,0-2.66-.61c-1.59.81-1.69,2.37-3.25,3.26a.72.72,0,0,0-.34.3.61.61,0,0,0,0,.46,15,15,0,0,0,1.1,1.94,11.32,11.32,0,0,0,1.17,1.95,5.28,5.28,0,0,0,3.64,2.24A2.7,2.7,0,0,0,132.3,170.89Z"/><path class="cls-40" d="M131.06,160.88l-2.21,1.38a2.74,2.74,0,0,0-1.1,3.36l1.15,2.83a11.67,11.67,0,0,1,.7,6.29,3.37,3.37,0,0,1-.16.73c-.13.07-1.13-.33-1.17-.56s-4.47-8.79-4.47-8.79a37.22,37.22,0,0,1,.28-4c.15-.12,4.56-2.31,4.56-2.31l2.42,1S131.07,160.88,131.06,160.88Z"/><path class="cls-19" d="M130.2,213.34l-3.14,6.95a18,18,0,0,0-1.49,9.47l1.25,11.12,1.32.29.16-.93q1-4.35,1.86-8.76c1.09-5.81,2.19-10.65,3.66-16.94l0-.07a1.92,1.92,0,0,0-3.64-1.13Z"/><path class="cls-41" d="M143.05,240.75l.12,1.62a.16.16,0,0,0,.19.13l3.32-.67a.11.11,0,0,0,0-.22l-1.57-.35a1.1,1.1,0,0,1-.74-.59l-.08-.17Z"/><path class="cls-19" d="M137,214l-.6,7.6a18,18,0,0,0,1.8,9.42l4.95,10,1.33-.18-.16-.92c-.33-3-.74-5.93-1.21-8.88-.95-5.84-1.55-10.76-2.29-17.18v-.07A1.92,1.92,0,0,0,137,214Z"/><path class="cls-42" d="M128.72,200.56a22.14,22.14,0,0,0,9.24-.1h.38a1.38,1.38,0,0,0,.95-1.92A61.87,61.87,0,0,1,140.6,181c.59-2.4-2-4.49-2.35-5.3l-.25-.42a3.76,3.76,0,0,0-2.37-1.77c-1.75-.42-4.51-.78-6.13.49-.58.46-1.68,1.55-1.71,1.93C127.79,176,127,200.22,128.72,200.56Z"/><path class="cls-43" d="M131.87,181.05c.78,1.25,4.83.13,9-2.51s7-5.78,6.22-7-4.83-.13-9,2.51S131.09,179.8,131.87,181.05Z"/><path class="cls-5" d="M131.13,160a.89.89,0,0,0-.89-1l-1.58,0a6.12,6.12,0,0,0-5.29,3l-.28.48a11.49,11.49,0,0,0-1.5,7.43l.75,5.37-.08,5.09a5.1,5.1,0,0,0,8.19,4.14,5,5,0,0,0,2-3.93l.05-7.82-2.55-8a3.5,3.5,0,0,1,.61-3.24A2.75,2.75,0,0,0,131.13,160Z"/><path class="cls-5" d="M130.24,159.06H129.1a2.78,2.78,0,0,1-.2,1.48,3.5,3.5,0,0,0,.26,3.29l.92,1.43-.16-.49a3.5,3.5,0,0,1,.61-3.24,2.75,2.75,0,0,0,.6-1.5A.9.9,0,0,0,130.24,159.06Z"/><path class="cls-5" d="M129.79,184.65a5.1,5.1,0,0,1-3.94-3.74L124.6,176l-2.13-5a11.57,11.57,0,0,1-.9-4,11.58,11.58,0,0,0,0,2.94l.75,5.37-.08,5.09a5.11,5.11,0,0,0,7.93,4.33C130.11,184,130.12,182,129.79,184.65Z"/><path class="cls-44" d="M144,218.09c-.72-3.34-4.12-20.63-4.79-21.77-.36-.62-1.84-1.06-2.29-1.22l-.58-.2c-3.28-1.14-5.53-2.38-8.23,1.54-1.29,1.87-.35,7.13.3,9.24l.15.51a14.27,14.27,0,0,1-1.11,10.18,5.17,5.17,0,0,0-.6,1.42c.15.67,2.42,1.4,2.92,1.61a1.76,1.76,0,0,0,.45.12s2.48.54,4.75.94a10.32,10.32,0,0,0,6.1-.8A12.77,12.77,0,0,0,144,218.09Z"/><path class="cls-19" d="M153.28,165.35l1.65-.67a.4.4,0,0,0,.23-.51l-.36-1.11a.42.42,0,0,0-.41-.28l-.63,0a.4.4,0,0,0-.37.3l-.22.81a.51.51,0,0,1-.2.28.53.53,0,0,0-.22.49l0,.2Z"/><path class="cls-19" d="M143.18,174.52a2,2,0,0,1,.13-3c3.68-3.2,9.55-7.25,9.55-7.25l.84.87a101,101,0,0,1-7.55,9.29A2.07,2.07,0,0,1,143.18,174.52Z"/><circle class="cls-5" cx="465.93" cy="84.87" r="4.94"/><path class="cls-3" d="M469.16,189.44a.59.59,0,0,1-.69-.1.58.58,0,0,1,0-.82,7,7,0,0,0,1.75-2.81.58.58,0,0,1,.73-.36.57.57,0,0,1,.36.73,8.21,8.21,0,0,1-2,3.26Zm1.93-8.95a.33.33,0,0,1-.12,0,.56.56,0,0,1-.7-.4,12.85,12.85,0,0,0-1.06-2.62c-.1-.18-.2-.37-.31-.54a.58.58,0,0,1,.19-.79.57.57,0,0,1,.79.19c.12.19.23.39.34.59a13.35,13.35,0,0,1,1.15,2.87A.55.55,0,0,1,471.09,180.49ZM465.5,173a.58.58,0,0,1-.57,0l-.14-.09a15.55,15.55,0,0,0-3-1.33.58.58,0,0,1-.37-.73.59.59,0,0,1,.73-.37,16.89,16.89,0,0,1,3.24,1.44l.16.09a.57.57,0,0,1,.2.79A.56.56,0,0,1,465.5,173Zm-42.83,16.58-.06,0a18.53,18.53,0,0,1-3.59,1,.58.58,0,0,1-.19-1.14,16.71,16.71,0,0,0,3.36-.94.58.58,0,0,1,.48,1.05Zm5.2-2.95a.57.57,0,0,1-.62-1,24.38,24.38,0,0,0,2.65-2.34.58.58,0,1,1,.82.81,25.46,25.46,0,0,1-2.77,2.44Zm28.44-16.06a.54.54,0,0,1-.29.07,30.68,30.68,0,0,0-3.54.1.57.57,0,0,1-.1-1.14,30.94,30.94,0,0,1,3.68-.11.57.57,0,0,1,.56.59A.59.59,0,0,1,456.31,170.52Zm-22.07,8.94a.61.61,0,0,1-.57,0,.58.58,0,0,1-.2-.79c.23-.38.44-.76.64-1.14.34-.65.67-1.33,1-2a.58.58,0,0,1,.76-.29.59.59,0,0,1,.3.76c-.32.71-.66,1.41-1,2.09-.21.4-.44.8-.67,1.19A.56.56,0,0,1,434.24,179.46Zm-21,10.88a.55.55,0,0,1-.4.06l-.48-.12A.61.61,0,0,1,412,190a4.32,4.32,0,0,1-.24-3.49.58.58,0,0,1,1.09.37,3.1,3.1,0,0,0,.06,2.36l.19.05a.57.57,0,0,1,.14,1.06Zm33.54-18.82-.16,0-.61.13c-1,.21-1.94.43-2.9.66a.57.57,0,1,1-.27-1.11c1-.24,2-.46,2.93-.67l.62-.13a.58.58,0,0,1,.68.45A.59.59,0,0,1,446.78,171.52Zm-9.32,2.36-.1.05c-1.15.34-2.3.71-3.43,1.09a.58.58,0,1,1-.37-1.09c1.15-.39,2.31-.76,3.46-1.11a.58.58,0,0,1,.72.39A.57.57,0,0,1,437.46,173.88Zm-9.06,3.17-.06,0c-1.11.44-2.23.91-3.32,1.39a.58.58,0,0,1-.76-.3.57.57,0,0,1,.3-.75c1.1-.49,2.23-1,3.35-1.41a.58.58,0,0,1,.75.32A.57.57,0,0,1,428.4,177.05Zm-11.92,5.71a.57.57,0,0,1-.59-1,16.55,16.55,0,0,1,1.56-.94l1.66-.85a.57.57,0,1,1,.51,1l-1.63.85a16.52,16.52,0,0,0-1.46.87Zm21.36-12.18a.55.55,0,0,1-.42,0,.57.57,0,0,1-.4-.7c.29-1.1.56-2.27.79-3.49a.58.58,0,0,1,.68-.45.57.57,0,0,1,.45.67c-.24,1.25-.51,2.44-.81,3.56A.59.59,0,0,1,437.84,170.58Zm1.71-9.45a.57.57,0,0,1-.34.07.58.58,0,0,1-.51-.64c.13-1.07.25-2.24.38-3.58a.57.57,0,0,1,.62-.52.57.57,0,0,1,.52.63c-.12,1.35-.25,2.53-.37,3.6A.57.57,0,0,1,439.55,161.13Zm.89-9.56a.59.59,0,0,1-.32.06.59.59,0,0,1-.53-.62c.12-1.34.24-2.52.36-3.61a.57.57,0,1,1,1.14.13c-.12,1.07-.23,2.25-.35,3.58A.6.6,0,0,1,440.44,151.57Zm1.2-9.54a.53.53,0,0,1-.37.06.57.57,0,0,1-.46-.67c.22-1.24.48-2.44.76-3.57a.57.57,0,1,1,1.11.28c-.27,1.1-.52,2.28-.74,3.5A.59.59,0,0,1,441.64,142Zm2.59-9.24a.56.56,0,0,1-.49,0,.58.58,0,0,1-.32-.75,36.38,36.38,0,0,1,1.57-3.32.58.58,0,1,1,1,.55,33.79,33.79,0,0,0-1.51,3.2A.57.57,0,0,1,444.23,132.79Zm4.94-8.19a.57.57,0,0,1-.71-.88c.76-.87,1.58-1.74,2.53-2.65a.58.58,0,0,1,.82,0,.57.57,0,0,1,0,.81c-.92.88-1.73,1.72-2.46,2.57A.4.4,0,0,1,449.17,124.6Zm7-6.54a.59.59,0,0,1-.72-.15.57.57,0,0,1,.08-.81l1.16-.94,1.64-1.34a.57.57,0,0,1,.81.08.58.58,0,0,1-.08.81l-1.64,1.34-1.16.94Zm7.29-6.26a.58.58,0,0,1-.69-.11.57.57,0,0,1,0-.81c.55-.53,1.06-1.07,1.53-1.59.3-.33.59-.67.86-1a.58.58,0,1,1,.9.72c-.29.37-.59.73-.9,1.07-.49.54-1,1.09-1.58,1.64ZM469,104a.58.58,0,0,1-.8-.74,20.66,20.66,0,0,0,1.13-3.32.57.57,0,1,1,1.11.27,21.63,21.63,0,0,1-1.18,3.51A.59.59,0,0,1,469,104Zm1.48-9.37a.64.64,0,0,1-.18.06.57.57,0,0,1-.66-.47A10.47,10.47,0,0,0,468.57,91a.59.59,0,0,1,.24-.78.58.58,0,0,1,.78.24A11.32,11.32,0,0,1,470.77,94,.57.57,0,0,1,470.48,94.64Z"/><circle class="cls-18" cx="148.89" cy="33.42" r="4.94"/><path class="cls-3" d="M248.4,1.15a.56.56,0,0,1,.09.68.56.56,0,0,1-.78.22,7.08,7.08,0,0,0-3.19-.9.58.58,0,0,1-.55-.6.59.59,0,0,1,.6-.55,8.24,8.24,0,0,1,3.7,1.05A.41.41,0,0,1,248.4,1.15Zm-9.13.63a.39.39,0,0,1,.08.1.56.56,0,0,1-.19.79,12.76,12.76,0,0,0-2.22,1.75l-.43.45a.58.58,0,0,1-.85-.78c.15-.17.31-.33.47-.49a14.69,14.69,0,0,1,2.43-1.91A.57.57,0,0,1,239.27,1.78Zm-5.68,7.47a.58.58,0,0,1,.15.55,1,1,0,0,0,0,.17,15.34,15.34,0,0,0-.44,3.27.58.58,0,0,1-.59.56.57.57,0,0,1-.56-.59,16.32,16.32,0,0,1,.47-3.52c0-.06,0-.12,0-.18a.58.58,0,0,1,.71-.41A.61.61,0,0,1,233.59,9.25Zm27.87,36.51,0,.05a17.64,17.64,0,0,1,2,3.17.58.58,0,0,1-.26.77.59.59,0,0,1-.77-.27,16.93,16.93,0,0,0-1.84-3,.58.58,0,0,1,.87-.75Zm-4.28-4.17a.58.58,0,0,1-.76.86,23.88,23.88,0,0,0-3-1.89.57.57,0,0,1-.23-.78.58.58,0,0,1,.78-.23,25.73,25.73,0,0,1,3.12,2ZM233.82,18.76A.48.48,0,0,1,234,19a32.92,32.92,0,0,0,1.09,3.38.57.57,0,1,1-1.07.41,32.87,32.87,0,0,1-1.13-3.5.57.57,0,0,1,1-.54Zm14.74,18.7a.57.57,0,0,1,.15.55.59.59,0,0,1-.71.41l-1.26-.3c-.72-.15-1.47-.27-2.21-.37a.57.57,0,1,1,.15-1.14c.77.1,1.54.23,2.29.39.44.09.89.19,1.33.31A.53.53,0,0,1,248.56,37.46Zm16.31,17.12A.58.58,0,0,1,265,55c0,.16,0,.32,0,.49a.55.55,0,0,1-.17.42,4.28,4.28,0,0,1-3.29,1.21.58.58,0,0,1-.54-.6.57.57,0,0,1,.6-.55,3.12,3.12,0,0,0,2.25-.72,1.21,1.21,0,0,1,0-.19.57.57,0,0,1,.54-.61A.58.58,0,0,1,264.87,54.58ZM237.44,27.64a.64.64,0,0,1,.1.13c.09.19.19.37.29.55.47.87.95,1.74,1.44,2.6a.58.58,0,0,1-1,.57c-.49-.86-1-1.75-1.45-2.62l-.3-.56a.57.57,0,0,1,.92-.67Zm4.86,8.28.08.09c.65,1,1.32,2,2,3a.58.58,0,0,1-.14.8.57.57,0,0,1-.8-.14c-.69-1-1.37-2-2-3a.59.59,0,0,1,.17-.8A.57.57,0,0,1,242.3,35.92Zm5.58,7.82,0,0c.74.94,1.5,1.88,2.26,2.8a.57.57,0,0,1-.07.81.58.58,0,0,1-.81-.07c-.77-.93-1.54-1.88-2.28-2.83a.57.57,0,0,1,.86-.76Zm8.81,9.85a.58.58,0,0,1,0,.77.57.57,0,0,1-.81.08,17.56,17.56,0,0,1-1.34-1.24c-.43-.45-.86-.9-1.28-1.36a.57.57,0,1,1,.84-.78l1.27,1.34a16.88,16.88,0,0,0,1.24,1.15ZM239,36.47a.61.61,0,0,1,.17.39.59.59,0,0,1-.57.59c-1.13,0-2.33.1-3.56.21a.58.58,0,0,1-.11-1.15c1.26-.11,2.49-.18,3.65-.21A.59.59,0,0,1,239,36.47Zm-9.55,1a.57.57,0,0,1-.31,1c-1.06.18-2.22.39-3.55.65a.57.57,0,1,1-.21-1.13c1.33-.26,2.5-.47,3.57-.65A.57.57,0,0,1,229.48,37.47ZM220,39.29a.52.52,0,0,1,.16.29.57.57,0,0,1-.45.67c-1.32.26-2.49.48-3.57.67a.59.59,0,0,1-.67-.47.58.58,0,0,1,.47-.66c1.07-.19,2.23-.4,3.54-.66A.55.55,0,0,1,220,39.29Zm-9.49,1.5a.61.61,0,0,1,.17.34.59.59,0,0,1-.52.64c-1.26.13-2.48.21-3.64.26a.58.58,0,0,1,0-1.15c1.13,0,2.33-.13,3.57-.26A.54.54,0,0,1,210.55,40.79Zm-9.59.09a.58.58,0,0,1-.47,1,34,34,0,0,1-3.63-.58.58.58,0,0,1-.44-.69.57.57,0,0,1,.69-.43,34.55,34.55,0,0,0,3.5.56A.54.54,0,0,1,201,40.88Zm-9.24-2.46a.59.59,0,0,1,.11.65.58.58,0,0,1-.76.28c-1-.48-2.12-1-3.26-1.69a.58.58,0,0,1-.2-.79.57.57,0,0,1,.78-.21c1.11.64,2.14,1.18,3.16,1.64A.66.66,0,0,1,191.72,38.42Zm-8.25-4.91a.59.59,0,0,1,.07.73.58.58,0,0,1-.8.15l-1.24-.85-1.74-1.2a.58.58,0,0,1,.65-1l1.75,1.2,1.23.85Zm-8-5.25a.57.57,0,0,1,.09.68.57.57,0,0,1-.78.22c-.67-.37-1.33-.72-2-1-.39-.19-.8-.38-1.22-.55a.57.57,0,1,1,.44-1.06c.44.18.87.37,1.28.57.66.32,1.34.68,2,1.06Zm-9-3.13a.57.57,0,0,1-.48,1,19.93,19.93,0,0,0-3.51-.15.57.57,0,0,1-.6-.55.57.57,0,0,1,.55-.6,21.09,21.09,0,0,1,3.7.16A.61.61,0,0,1,166.41,25.13ZM157,26.32a.91.91,0,0,1,.11.16.58.58,0,0,1-.27.77A10.41,10.41,0,0,0,154,29.17a.57.57,0,0,1-.81,0,.59.59,0,0,1,0-.82,11.42,11.42,0,0,1,3.12-2.13A.58.58,0,0,1,157,26.32Z"/><circle class="cls-45" cx="32.42" cy="178.59" r="4.94" transform="translate(-138.66 117.95) rotate(-60.19)"/><path class="cls-3" d="M9.52,76.51a.57.57,0,0,1,.69,0,.58.58,0,0,1,.15.8,7,7,0,0,0-1.19,3.09.59.59,0,0,1-.65.49A.56.56,0,0,1,8,80.21a8.22,8.22,0,0,1,1.38-3.58A.43.43,0,0,1,9.52,76.51Zm-.21,9.14.11-.07a.58.58,0,0,1,.77.27,12.27,12.27,0,0,0,1.53,2.37l.4.47a.57.57,0,1,1-.85.77c-.15-.16-.3-.34-.44-.51a14.07,14.07,0,0,1-1.68-2.6A.57.57,0,0,1,9.31,85.65ZM16.22,92a.56.56,0,0,1,.56-.1l.16.06a16.23,16.23,0,0,0,3.22.74A.57.57,0,0,1,20,93.85a17.23,17.23,0,0,1-3.46-.79L16.39,93a.58.58,0,0,1-.35-.74A.55.55,0,0,1,16.22,92ZM55.15,67.65l.06,0A17.91,17.91,0,0,1,58.55,66,.58.58,0,0,1,59,67a17.51,17.51,0,0,0-3.13,1.55A.57.57,0,0,1,55,68.4.58.58,0,0,1,55.15,67.65ZM50.6,71.53a.58.58,0,0,1,.75,0,.58.58,0,0,1,0,.82,22.79,22.79,0,0,0-2.16,2.79.59.59,0,0,1-.8.16.58.58,0,0,1-.16-.8,26.08,26.08,0,0,1,2.26-2.92A.17.17,0,0,1,50.6,71.53ZM25.7,92.66a.66.66,0,0,1,.27-.12,33.75,33.75,0,0,0,3.47-.77.57.57,0,0,1,.71.4.59.59,0,0,1-.4.71,36.17,36.17,0,0,1-3.59.8.58.58,0,0,1-.46-1Zm20-12.94a.56.56,0,0,1,.56-.09.57.57,0,0,1,.35.73c-.15.41-.29.83-.42,1.24-.21.7-.4,1.43-.57,2.16a.58.58,0,0,1-.69.44.57.57,0,0,1-.43-.69c.17-.76.37-1.52.59-2.25.14-.43.28-.86.44-1.29A.56.56,0,0,1,45.69,79.72ZM64.26,65.07a.58.58,0,0,1,.39-.13l.49,0a.57.57,0,0,1,.4.21,4.26,4.26,0,0,1,.9,3.39.59.59,0,0,1-.65.49.58.58,0,0,1-.49-.65,3.12,3.12,0,0,0-.51-2.31H64.6a.57.57,0,0,1-.55-.6A.59.59,0,0,1,64.26,65.07ZM34.88,89.88A.53.53,0,0,1,35,89.8l.57-.24c.91-.39,1.82-.79,2.72-1.2a.58.58,0,0,1,.48,1c-.91.41-1.83.82-2.75,1.21l-.59.24a.58.58,0,0,1-.75-.31A.59.59,0,0,1,34.88,89.88Zm8.7-4.07.1-.07c1-.55,2.12-1.13,3.15-1.72a.59.59,0,0,1,.79.22.57.57,0,0,1-.22.78c-1,.6-2.12,1.18-3.19,1.74a.57.57,0,0,1-.63-1ZM51.89,81l0,0c1-.64,2-1.31,3-2a.58.58,0,0,1,.65,1c-1,.68-2,1.36-3,2a.57.57,0,0,1-.67-.93Zm10.62-7.85a.56.56,0,0,1,.77,0,.57.57,0,0,1,0,.81,15.48,15.48,0,0,1-1.36,1.21l-1.46,1.16a.58.58,0,0,1-.81-.11.57.57,0,0,1,.1-.8c.49-.38,1-.76,1.45-1.14a13.62,13.62,0,0,0,1.27-1.14Zm-18.68,16a.57.57,0,0,1,.4-.13.58.58,0,0,1,.54.61c-.09,1.14-.13,2.34-.13,3.57a.58.58,0,1,1-1.15,0c0-1.26,0-2.49.13-3.65A.55.55,0,0,1,43.83,89.12Zm.11,9.6a.61.61,0,0,1,.32-.13.57.57,0,0,1,.61.53c.08,1.07.18,2.25.32,3.59a.59.59,0,0,1-.52.63.57.57,0,0,1-.63-.52c-.13-1.35-.23-2.53-.31-3.61A.55.55,0,0,1,43.94,98.72Zm.93,9.56a.53.53,0,0,1,.3-.12.56.56,0,0,1,.63.51c.14,1.34.25,2.52.33,3.61a.57.57,0,1,1-1.14.09c-.09-1.08-.2-2.25-.33-3.58A.58.58,0,0,1,44.87,108.28Zm.61,9.59a.57.57,0,0,1,.36-.13.57.57,0,0,1,.58.57c0,1.27,0,2.5-.07,3.65a.57.57,0,0,1-.61.54.56.56,0,0,1-.54-.6c.06-1.13.08-2.34.07-3.58A.59.59,0,0,1,45.48,117.87Zm-.8,9.56a.63.63,0,0,1,.48-.12.59.59,0,0,1,.45.68,31.93,31.93,0,0,1-.91,3.56.58.58,0,0,1-1.1-.35,30.18,30.18,0,0,0,.88-3.43A.65.65,0,0,1,44.68,127.43Zm-3.3,9a.57.57,0,0,1,.65-.06.58.58,0,0,1,.21.79c-.58,1-1.22,2-2,3.08a.58.58,0,0,1-.8.14.57.57,0,0,1-.13-.8c.74-1.05,1.37-2,1.92-3A.44.44,0,0,1,41.38,136.41Zm-5.66,7.75a.59.59,0,0,1,.73,0,.57.57,0,0,1,.08.81l-1,1.15c-.46.54-.91,1.08-1.36,1.63a.57.57,0,0,1-.81.07.58.58,0,0,1-.08-.81c.46-.54.91-1.08,1.36-1.63q.49-.57,1-1.14Zm-6,7.52a.59.59,0,0,1,.69,0,.57.57,0,0,1,.15.8c-.43.63-.84,1.26-1.2,1.86-.23.37-.45.76-.66,1.16a.57.57,0,0,1-1-.53q.33-.63.69-1.23c.38-.62.8-1.26,1.25-1.91A.58.58,0,0,1,29.74,151.68Zm-3.95,8.69a.57.57,0,0,1,.92.57,21.53,21.53,0,0,0-.48,3.48.57.57,0,1,1-1.14,0,20.7,20.7,0,0,1,.5-3.68A.57.57,0,0,1,25.79,160.37Zm.31,9.48a.56.56,0,0,1,.17-.09.57.57,0,0,1,.74.34,10.52,10.52,0,0,0,1.65,3,.57.57,0,0,1-.89.72,11.37,11.37,0,0,1-1.84-3.31A.57.57,0,0,1,26.1,169.85Z"/></g></g></svg>