<svg id="Layer_1" data-name="Layer 1" xmlns="http://www.w3.org/2000/svg" xmlns:xlink="http://www.w3.org/1999/xlink" viewBox="0 0 388.35 416.95"><defs><style>.cls-1{isolation:isolate;}.cls-2{fill:url(#linear-gradient);}.cls-3{fill:url(#linear-gradient-2);}.cls-4{fill:#13426f;}.cls-5{fill:url(#linear-gradient-3);}.cls-6{fill:url(#linear-gradient-4);}.cls-7{fill:url(#linear-gradient-5);}.cls-8{fill:url(#linear-gradient-6);}.cls-9{fill:url(#linear-gradient-7);}.cls-10{fill:url(#linear-gradient-8);}.cls-11{fill:url(#linear-gradient-9);}.cls-12{fill:url(#linear-gradient-10);}.cls-13{fill:url(#linear-gradient-11);}.cls-14{fill:url(#linear-gradient-12);}.cls-15{fill:url(#linear-gradient-13);}.cls-16{fill:url(#linear-gradient-14);}.cls-17{fill:url(#linear-gradient-15);}.cls-18{fill:url(#linear-gradient-16);}.cls-19{fill:#403984;}.cls-20{fill:url(#linear-gradient-17);}.cls-21{fill:url(#linear-gradient-18);}.cls-22{fill:url(#linear-gradient-19);}.cls-23{fill:#c5d7e5;}.cls-24{fill:#fbbc90;}.cls-25{fill:url(#linear-gradient-20);}.cls-26{fill:url(#linear-gradient-21);}.cls-27{fill:url(#linear-gradient-22);}.cls-28{fill:#26276c;}.cls-29{fill:#fff;}.cls-30{fill:url(#linear-gradient-23);}.cls-31{fill:url(#linear-gradient-24);}.cls-32{fill:url(#linear-gradient-25);}.cls-33{fill:url(#linear-gradient-26);}.cls-34{fill:url(#linear-gradient-27);}.cls-35{fill:url(#linear-gradient-28);}.cls-36{fill:#f1c651;}.cls-37{fill:url(#linear-gradient-29);}.cls-38{fill:url(#linear-gradient-30);}.cls-39{fill:url(#linear-gradient-31);}.cls-40{fill:url(#linear-gradient-32);}.cls-41{fill:#4c55a5;}.cls-42{fill:url(#linear-gradient-33);}.cls-43{fill:#2f3084;}.cls-44{fill:url(#linear-gradient-34);}.cls-45{fill:url(#linear-gradient-35);}.cls-46{fill:url(#linear-gradient-36);}.cls-47{fill:url(#linear-gradient-37);}.cls-48{fill:url(#linear-gradient-38);}.cls-49{fill:url(#linear-gradient-39);}.cls-50{fill:#e3803d;}.cls-51{fill:url(#linear-gradient-40);}.cls-52{fill:url(#linear-gradient-41);}.cls-53{fill:url(#linear-gradient-42);}.cls-54{fill:url(#linear-gradient-43);}.cls-55{fill:url(#linear-gradient-44);}.cls-56{fill:url(#linear-gradient-45);}.cls-57{fill:url(#linear-gradient-46);}.cls-58{fill:url(#linear-gradient-47);}.cls-59{fill:url(#linear-gradient-48);}.cls-60{fill:url(#linear-gradient-49);}.cls-61{fill:url(#linear-gradient-50);}.cls-62{fill:url(#linear-gradient-51);}.cls-63{fill:url(#linear-gradient-52);}.cls-64{fill:url(#linear-gradient-53);}</style><linearGradient id="linear-gradient" x1="315.38" y1="21.01" x2="387.91" y2="21.01" gradientUnits="userSpaceOnUse"><stop offset="0" stop-color="#07629d"/><stop offset="1" stop-color="#2e83c5"/></linearGradient><linearGradient id="linear-gradient-2" x1="315.38" y1="127" x2="351.97" y2="127" xlink:href="#linear-gradient"/><linearGradient id="linear-gradient-3" x1="264.17" y1="119.14" x2="336.7" y2="119.14" xlink:href="#linear-gradient"/><linearGradient id="linear-gradient-4" x1="264.17" y1="190.84" x2="300.76" y2="190.84" xlink:href="#linear-gradient"/><linearGradient id="linear-gradient-5" x1="212.33" y1="117.03" x2="284.86" y2="117.03" xlink:href="#linear-gradient"/><linearGradient id="linear-gradient-6" x1="212.33" y1="204.86" x2="248.92" y2="204.86" xlink:href="#linear-gradient"/><linearGradient id="linear-gradient-7" x1="157.81" y1="180.33" x2="230.35" y2="180.33" xlink:href="#linear-gradient"/><linearGradient id="linear-gradient-8" x1="157.81" y1="252.03" x2="194.41" y2="252.03" xlink:href="#linear-gradient"/><linearGradient id="linear-gradient-9" x1="102.35" y1="244.63" x2="174.89" y2="244.63" xlink:href="#linear-gradient"/><linearGradient id="linear-gradient-10" x1="102.35" y1="300.2" x2="138.95" y2="300.2" xlink:href="#linear-gradient"/><linearGradient id="linear-gradient-11" x1="46.27" y1="308.8" x2="118.8" y2="308.8" xlink:href="#linear-gradient"/><linearGradient id="linear-gradient-12" x1="46.27" y1="348.23" x2="82.86" y2="348.23" xlink:href="#linear-gradient"/><linearGradient id="linear-gradient-13" x1="82.42" y1="348.24" x2="119.24" y2="348.24" xlink:href="#linear-gradient"/><linearGradient id="linear-gradient-14" x1="243.53" y1="166.51" x2="275.66" y2="166.51" xlink:href="#linear-gradient"/><linearGradient id="linear-gradient-15" x1="82.86" y1="285.18" x2="251.23" y2="285.18" xlink:href="#linear-gradient"/><linearGradient id="linear-gradient-16" x1="322.08" y1="159.58" x2="333.79" y2="159.58" xlink:href="#linear-gradient"/><linearGradient id="linear-gradient-17" x1="303.85" y1="134.56" x2="328.95" y2="134.56" xlink:href="#linear-gradient"/><linearGradient id="linear-gradient-18" x1="315.78" y1="163.51" x2="327.49" y2="163.51" xlink:href="#linear-gradient"/><linearGradient id="linear-gradient-19" x1="297.59" y1="136.72" x2="322.65" y2="136.72" xlink:href="#linear-gradient"/><linearGradient id="linear-gradient-20" x1="307.61" y1="85.12" x2="312.95" y2="85.12" xlink:href="#linear-gradient"/><linearGradient id="linear-gradient-21" x1="294.13" y1="80.6" x2="312.95" y2="80.6" xlink:href="#linear-gradient"/><linearGradient id="linear-gradient-22" x1="132.24" y1="245.49" x2="144.56" y2="245.49" xlink:href="#linear-gradient"/><linearGradient id="linear-gradient-23" x1="133.39" y1="217.29" x2="154.57" y2="217.29" xlink:href="#linear-gradient"/><linearGradient id="linear-gradient-24" x1="154.94" y1="244.12" x2="166.84" y2="244.12" xlink:href="#linear-gradient"/><linearGradient id="linear-gradient-25" x1="147.42" y1="216.37" x2="169.28" y2="216.37" xlink:href="#linear-gradient"/><linearGradient id="linear-gradient-26" x1="141.81" y1="156.14" x2="166.23" y2="156.14" xlink:href="#linear-gradient"/><linearGradient id="linear-gradient-27" x1="63.01" y1="291.55" x2="87.43" y2="291.55" xlink:href="#linear-gradient"/><linearGradient id="linear-gradient-28" x1="76.98" y1="293.26" x2="97.34" y2="293.26" xlink:href="#linear-gradient"/><linearGradient id="linear-gradient-29" x1="74.68" y1="246.76" x2="94" y2="246.76" xlink:href="#linear-gradient"/><linearGradient id="linear-gradient-30" x1="10.5" y1="310.79" x2="34.61" y2="310.79" xlink:href="#linear-gradient"/><linearGradient id="linear-gradient-31" x1="30.12" y1="285.46" x2="57.68" y2="285.46" xlink:href="#linear-gradient"/><linearGradient id="linear-gradient-32" x1="9.24" y1="404.28" x2="23.99" y2="404.28" xlink:href="#linear-gradient"/><linearGradient id="linear-gradient-33" x1="15.87" y1="408.44" x2="30.63" y2="408.44" xlink:href="#linear-gradient"/><linearGradient id="linear-gradient-34" x1="8.32" y1="337.73" x2="28.43" y2="337.73" xlink:href="#linear-gradient"/><linearGradient id="linear-gradient-35" x1="21.72" y1="316.71" x2="43.93" y2="316.71" xlink:href="#linear-gradient"/><linearGradient id="linear-gradient-36" x1="253.3" y1="119.26" x2="264.36" y2="119.26" xlink:href="#linear-gradient"/><linearGradient id="linear-gradient-37" x1="246.28" y1="74.73" x2="268.75" y2="74.73" xlink:href="#linear-gradient"/><linearGradient id="linear-gradient-38" x1="225.12" y1="113.82" x2="235.51" y2="113.82" xlink:href="#linear-gradient"/><linearGradient id="linear-gradient-39" x1="238.41" y1="74.5" x2="257.1" y2="74.5" xlink:href="#linear-gradient"/><linearGradient id="linear-gradient-40" x1="257.17" y1="80.95" x2="284.72" y2="80.95" xlink:href="#linear-gradient"/><linearGradient id="linear-gradient-41" x1="238.97" y1="77.77" x2="258.74" y2="77.77" xlink:href="#linear-gradient"/><linearGradient id="linear-gradient-42" x1="275.01" y1="274.76" x2="332.63" y2="274.76" xlink:href="#linear-gradient"/><linearGradient id="linear-gradient-43" x1="270.08" y1="314.43" x2="297.64" y2="314.43" xlink:href="#linear-gradient"/><linearGradient id="linear-gradient-44" x1="270.08" y1="325.89" x2="283.87" y2="325.89" xlink:href="#linear-gradient"/><linearGradient id="linear-gradient-45" x1="283.82" y1="325.89" x2="297.69" y2="325.89" xlink:href="#linear-gradient"/><linearGradient id="linear-gradient-46" x1="308.75" y1="314.43" x2="336.31" y2="314.43" xlink:href="#linear-gradient"/><linearGradient id="linear-gradient-47" x1="308.75" y1="325.89" x2="322.54" y2="325.89" xlink:href="#linear-gradient"/><linearGradient id="linear-gradient-48" x1="322.49" y1="325.89" x2="336.36" y2="325.89" xlink:href="#linear-gradient"/><linearGradient id="linear-gradient-49" x1="287.32" y1="178.32" x2="311.44" y2="178.32" xlink:href="#linear-gradient"/><linearGradient id="linear-gradient-50" x1="297.94" y1="271.81" x2="312.7" y2="271.81" xlink:href="#linear-gradient"/><linearGradient id="linear-gradient-51" x1="291.31" y1="275.97" x2="306.07" y2="275.97" xlink:href="#linear-gradient"/><linearGradient id="linear-gradient-52" x1="293.51" y1="205.26" x2="313.61" y2="205.26" xlink:href="#linear-gradient"/><linearGradient id="linear-gradient-53" x1="278.01" y1="184.24" x2="300.21" y2="184.24" xlink:href="#linear-gradient"/></defs><title>Leap Ahead of The Pack</title><g class="cls-1"><polygon class="cls-2" points="315.38 21 351.54 42.01 387.91 21.01 351.76 0 315.38 21"/><polygon class="cls-3" points="315.38 21 315.82 211.98 351.97 232.99 351.54 42.01 315.38 21"/><polygon class="cls-4" points="351.54 42.01 351.97 232.99 388.35 211.99 387.91 21.01 351.54 42.01"/></g><g class="cls-1"><polygon class="cls-5" points="264.17 119.14 300.32 140.15 336.7 119.14 300.55 98.13 264.17 119.14"/><polygon class="cls-6" points="264.17 119.14 264.61 241.53 300.76 262.54 300.32 140.15 264.17 119.14"/><polygon class="cls-4" points="300.32 140.15 300.76 262.54 337.14 241.54 336.7 119.14 300.32 140.15"/></g><g class="cls-1"><polygon class="cls-7" points="212.33 117.03 248.48 138.04 284.86 117.03 248.71 96.02 212.33 117.03"/><polygon class="cls-8" points="212.33 117.03 212.76 271.69 248.92 292.7 248.48 138.04 212.33 117.03"/><polygon class="cls-4" points="248.48 138.04 248.92 292.7 285.3 271.7 284.86 117.03 248.48 138.04"/></g><g class="cls-1"><polygon class="cls-9" points="157.81 180.33 193.97 201.34 230.34 180.34 194.19 159.33 157.81 180.33"/><polygon class="cls-10" points="157.81 180.33 158.25 302.73 194.41 323.74 193.97 201.34 157.81 180.33"/><polygon class="cls-4" points="193.97 201.34 194.41 323.74 230.78 302.73 230.34 180.34 193.97 201.34"/></g><g class="cls-1"><polygon class="cls-11" points="102.35 244.63 138.51 265.64 174.88 244.64 138.73 223.63 102.35 244.63"/><polygon class="cls-12" points="102.35 244.63 102.79 334.75 138.95 355.76 138.51 265.64 102.35 244.63"/><polygon class="cls-4" points="138.51 265.64 138.95 355.76 175.32 334.76 174.88 244.64 138.51 265.64"/></g><g class="cls-1"><polygon class="cls-13" points="46.27 308.8 82.42 329.81 118.8 308.81 82.65 287.8 46.27 308.8"/><polygon class="cls-14" points="46.27 308.8 46.71 366.66 82.86 387.67 82.42 329.81 46.27 308.8"/><polygon class="cls-15" points="82.42 329.81 82.86 387.67 119.24 366.66 118.8 308.81 82.42 329.81"/></g><polygon class="cls-4" points="255.67 190.91 259.28 195.98 261.69 197.39 256.42 189.97 255.67 190.91"/><polygon class="cls-16" points="275.66 159.17 273.25 157.77 243.53 173.86 245.95 175.26 275.66 159.17"/><polygon class="cls-4" points="245.95 175.26 243.53 173.86 248.81 181.27 251.22 182.67 245.95 175.26"/><polygon class="cls-4" points="245.95 175.26 251.22 182.67 85.28 389.09 104.55 378.77 255.67 190.91 256.42 189.97 261.69 197.39 275.66 159.17 245.95 175.26"/><polygon class="cls-17" points="251.22 182.67 248.81 181.27 82.86 387.68 85.28 389.09 251.22 182.67"/><ellipse class="cls-4" cx="309.28" cy="122.43" rx="15.53" ry="7.78"/><path class="cls-4" d="M310.29,90.88a8.52,8.52,0,0,1,1.79-4.13c3.35,3.28,3.41,11.93,4.17,17.48,2.48,2.6,7.12,4.81,8.52,5.44a.6.6,0,0,1,.34.67,7.21,7.21,0,0,1-1.21,2.76c-3.3-1.43-6.87-1.64-11-5.56-.16-.15-.4-.2-.47-.41C311.26,103.59,310,93.46,310.29,90.88Z"/><path class="cls-18" d="M323,155.05c1.41,1.14,4,.55,4.13.65a49,49,0,0,0,4.64,3.87c.87.69,2.24,1.61,2,2.93-.44,2.37-4.23,1.64-5.66.92s-2.6-1.93-4-2.77c-1-.6-1.91-.91-2.06-2.13C322,157.79,322.75,155,323,155.05Z"/><path class="cls-19" d="M322.1,158c.19,1.17,1.13,1.49,2.08,2.09,1.38.85,2.59,2.08,4,2.8s4.61,1.34,5.54-.35c-.5,2.28-4.23,1.56-5.64.85s-2.6-1.93-4-2.77c-1-.6-1.91-.91-2.06-2.13A2.07,2.07,0,0,1,322.1,158Z"/><path class="cls-19" d="M328.68,159.71a2.69,2.69,0,0,1,1.88-1.08.48.48,0,0,1,.51.4,3.47,3.47,0,0,0-2,1.06C328.84,160.36,328.46,160,328.68,159.71Z"/><path class="cls-19" d="M327.62,158.87a2.65,2.65,0,0,1,1.87-1.08.46.46,0,0,1,.51.4,3.59,3.59,0,0,0-2,1.06C327.78,159.52,327.4,159.13,327.62,158.87Z"/><path class="cls-19" d="M326.56,158a2.71,2.71,0,0,1,1.87-1.08.47.47,0,0,1,.51.4,3.66,3.66,0,0,0-2,1.06C326.72,158.67,326.34,158.29,326.56,158Z"/><path class="cls-20" d="M304,114.46a20.44,20.44,0,0,0,11-1.59c-.06,1.17-.12,2.21-.12,2.21,4.48,3.17,13.48,8.5,14.07,12.18-.59,11.63-1.28,28-1.7,28.36-1.42,1.19-3.83.47-4.5-.2,0,0-2.54-9.64-1.72-24.09,0,0-15.69-7-16.71-10.75a11.92,11.92,0,0,1-.43-4.72C303.9,115.39,303.94,114.93,304,114.46Z"/><path class="cls-21" d="M316.71,159c1.4,1.14,4,.55,4.12.65a49,49,0,0,0,4.64,3.87c.88.69,2.24,1.61,2,2.93-.44,2.37-4.23,1.64-5.66.92s-2.59-1.93-3.95-2.77c-1-.6-1.91-.91-2.06-2.13C315.7,161.72,316.46,159,316.71,159Z"/><path class="cls-19" d="M315.81,162c.18,1.17,1.12,1.49,2.08,2.09,1.37.85,2.58,2.08,4,2.81s4.62,1.33,5.54-.36c-.5,2.28-4.22,1.56-5.64.85s-2.59-1.93-3.95-2.77c-1-.6-1.91-.91-2.06-2.13A1.71,1.71,0,0,1,315.81,162Z"/><path class="cls-19" d="M322.39,163.64a2.65,2.65,0,0,1,1.87-1.08.46.46,0,0,1,.51.4,3.59,3.59,0,0,0-2,1.06C322.55,164.29,322.16,163.9,322.39,163.64Z"/><path class="cls-19" d="M321.32,162.8a2.73,2.73,0,0,1,1.88-1.08.48.48,0,0,1,.51.4,3.53,3.53,0,0,0-2,1.06C321.48,163.45,321.1,163.06,321.32,162.8Z"/><path class="cls-19" d="M320.26,162a2.72,2.72,0,0,1,1.88-1.07.47.47,0,0,1,.51.39,3.59,3.59,0,0,0-2,1.06C320.42,162.6,320,162.22,320.26,162Z"/><path class="cls-22" d="M299.33,113.26a16.82,16.82,0,0,0,9.47,1.27c0,1.55-.22,4.48-.22,4.48,4.48,3.17,13.48,8.51,14.07,12.19-.59,11.63-1.28,28-1.7,28.35-1.41,1.19-3.83.47-4.49-.2,0,0-2.55-9.64-1.73-24.09,0-.27-13.44-6.89-15.14-8.64s-2-4.35-2-6.83A16.86,16.86,0,0,1,299.33,113.26Z"/><path class="cls-4" d="M296.46,93.05a8.47,8.47,0,0,1,2.41-4.84,12.13,12.13,0,0,1,5.41-2.72,8.86,8.86,0,0,1,5.84,0c2.88,1.08,3.57,3.85,3.87,6.64.09.07,1.58,21.55,1.58,21.55-1.3,2.35-8.89,5.8-17.29,1,.32-1.28,1.08-3.41,1.6-4.84a4.42,4.42,0,0,0,0-3C298.72,103.56,296.1,95.76,296.46,93.05Z"/><path class="cls-4" d="M296.46,93.05a8.33,8.33,0,0,1,1.79-4.14c3.34,3.28,3.41,11.94,4.17,17.49a58.92,58.92,0,0,0,8,6.47,6.88,6.88,0,0,1-1.28,3.24,28.37,28.37,0,0,1-10.09-6.41c-.16-.15-.4-.19-.47-.4C297.43,105.76,296.12,95.63,296.46,93.05Z"/><polygon class="cls-23" points="327.93 99.16 322.95 116.18 312.03 120.55 316.01 103.96 327.93 99.16"/><path class="cls-24" d="M309.39,113.71c.16-.58.58-.44,1.06-.29a2.78,2.78,0,0,0,1.61.14,4.76,4.76,0,0,0,1.16-.79,1.56,1.56,0,0,1,.73-.2c0,.14-.25,1-.25,1s2.4,0,2.64,0a.41.41,0,0,1,.38.67.9.9,0,0,0,.16,0c.49-.11.7.65.21.76-.13,0-.27,0-.4.06.32.12.4.65,0,.73l-.13,0a.28.28,0,0,1-.17,0h-.08a.44.44,0,0,1-.36.51c-1.17.15-2.89.62-3.95-.34a6.82,6.82,0,0,1-2.12-.58C309.21,115.06,309.19,114.4,309.39,113.71Z"/><path class="cls-24" d="M321.34,112.32h.17a.4.4,0,0,1,.23-.73c.25,0,2.71-.52,2.71-.52l.3-1c0-.06.42.2.44.21a1.66,1.66,0,0,1,.74,1.23,2.64,2.64,0,0,1-.7,1.91,2.5,2.5,0,0,1-1.67.72c-.3,0-.59,0-.85.06a.43.43,0,0,1-.46-.42h-.07a.38.38,0,0,1-.18,0h-.13c-.42,0-.45-.52-.16-.71-.14,0-.27,0-.41,0C320.8,113.09,320.84,112.31,321.34,112.32Z"/><path class="cls-25" d="M313,88.91c-1.58-2.16-1.81-6.6-1.37-8.13h0a8.91,8.91,0,0,0-2.05,2,3.47,3.47,0,0,0-.87,2.2s0,0,0,.08c-.53.33-1,.54-1.05,1.41a1.84,1.84,0,0,0,.16.85C308.42,88.72,310.93,90.34,313,88.91Z"/><path class="cls-24" d="M308.91,84.87s0,3.62,0,3.65c0,1.84-3.7,1.26-6.09-1.82V80.89A40,40,0,0,1,308.91,84.87Z"/><path class="cls-24" d="M301.73,70.43a5.67,5.67,0,0,1,4.11-1.19A7.43,7.43,0,0,1,309.67,71a8.72,8.72,0,0,1,2.39,3.27,8.21,8.21,0,0,1,.41,4c-.61,5.2-3.31,7.16-4.17,7.5a5.59,5.59,0,0,1-4.52-2.36,16.16,16.16,0,0,0-2.93-3.4,2.84,2.84,0,0,1-.25-.23C298.78,77.92,298.25,73.47,301.73,70.43Z"/><path class="cls-26" d="M308.88,69.18a8.86,8.86,0,0,0-8.38,0,8.38,8.38,0,0,0-3.16,3.46,14.78,14.78,0,0,0-.91,2.22c-.5,1.5-.47,13.34-2.3,15.71,2.27,2.63,8.44,3.13,10.48,1.51,1-5-1.59-11.12-1.77-11.17-.65-.19-1.43-.78-1.07-1.51s1.43-.33,1.64.36l.09,0c2.06-1.18,4.13-2.52,4.7-5a.37.37,0,0,0,0-.18c1.79.45,4.84.7,4.22,4C313.83,75.56,312.32,71,308.88,69.18Z"/><ellipse class="cls-23" cx="148.76" cy="244.48" rx="18.95" ry="9.49"/><path class="cls-24" d="M167,181.12h-.41l.09-.11c.21-.35-.15-.89-.57-.73l-.61.25a.53.53,0,0,0,0-.17.51.51,0,0,0-.63-.48c-1.68.34-4.06,1.88-3.9,2.22a18.56,18.56,0,0,1-3.31-1.08l-2.22,2.66a42.21,42.21,0,0,0,5.48,1.19,1.26,1.26,0,0,0,1,.64,1.9,1.9,0,0,0,.9-.19,2.08,2.08,0,0,1,.93-.08c.65.09,1.57.56,2.13,0a.5.5,0,0,0,.08-.6,1.22,1.22,0,0,0-1-.61c.75-.19,2-.27,2.07-1.19a.5.5,0,0,0-.33-.47l.5-.29A.51.51,0,0,0,167,181.12Z"/><path class="cls-4" d="M158.26,184.66c-.39-.26-9.16-4.3-10.88-6,0,0,2.07-16.19.57-20.77-2.38-.82-3.87,1.12-4.5,2.52-1,2.12-3.68,17-1,21.75,0,0,14,6.21,14,6.21C156.71,188.05,158.81,187.05,158.26,184.66Z"/><path class="cls-27" d="M133.38,242.83c1.28.59,10.78-.85,11.15,1.18.32,1.78-2.24,2.9-3.52,3-2.78.16-5,1.13-6.11,1.16a2.73,2.73,0,0,1-2.4-.8C131.87,246.45,132.45,243.68,133.38,242.83Z"/><path class="cls-28" d="M135,247.68c1.11,0,3.32-1,6.11-1.16,1.07-.06,3-.86,3.45-2.16,0,1.57-2.35,2.56-3.54,2.62-2.78.16-5,1.13-6.11,1.16a2.73,2.73,0,0,1-2.4-.8,1.48,1.48,0,0,1-.23-.7A3.25,3.25,0,0,0,135,247.68Z"/><path class="cls-29" d="M141.79,242.85a2.54,2.54,0,0,1,1,1.75c0,.31-.47.36-.48,0a2.09,2.09,0,0,0-1.23-1.74A.63.63,0,0,1,141.79,242.85Z"/><path class="cls-29" d="M140.53,242.81a2.66,2.66,0,0,1,1,1.78c0,.31-.48.35-.48,0a2.12,2.12,0,0,0-1.24-1.75A.6.6,0,0,1,140.53,242.81Z"/><path class="cls-29" d="M139.29,242.82a2.56,2.56,0,0,1,1,1.78c0,.31-.47.35-.48,0a2.08,2.08,0,0,0-1.24-1.75A.6.6,0,0,1,139.29,242.82Z"/><path class="cls-30" d="M135.36,243.64a2.65,2.65,0,0,0,1.77-.24c.68-3.14,5.62-16.87,9.19-25.1,1.67-3.85,6.56-17.88,8.25-27l-12-.41c0,.84-.35,4.11-.39,5-.3,6.15-.64,13.12-3.91,20.57-2.68,6.12-4.49,22.53-4.88,26.35A5.62,5.62,0,0,0,135.36,243.64Z"/><path class="cls-31" d="M155.54,242.31c1.37.35,10.46-2.76,11.19-.83.64,1.69-1.68,3.25-2.93,3.55-2.71.66-4.71,2-5.8,2.24a2.75,2.75,0,0,1-2.51-.36C154.72,246.15,154.79,243.32,155.54,242.31Z"/><path class="cls-28" d="M158,246.8c1.09-.23,3.09-1.58,5.8-2.24,1-.25,2.84-1.39,3-2.75.24,1.56-1.86,2.94-3,3.22-2.71.66-4.71,2-5.8,2.24a2.75,2.75,0,0,1-2.51-.36,1.62,1.62,0,0,1-.35-.64A3.25,3.25,0,0,0,158,246.8Z"/><path class="cls-29" d="M163.82,240.83a2.57,2.57,0,0,1,1.31,1.54c.06.3-.4.43-.47.13a2.08,2.08,0,0,0-1.53-1.5A.62.62,0,0,1,163.82,240.83Z"/><path class="cls-29" d="M162.58,241a2.64,2.64,0,0,1,1.33,1.56c.06.31-.4.44-.47.13a2.06,2.06,0,0,0-1.53-1.49A.62.62,0,0,1,162.58,241Z"/><path class="cls-29" d="M161.36,241.24a2.59,2.59,0,0,1,1.34,1.57c.06.3-.41.43-.47.12a2.09,2.09,0,0,0-1.53-1.49A.59.59,0,0,1,161.36,241.24Z"/><path class="cls-32" d="M157.59,242.94a3.25,3.25,0,0,0,1.87-.68c.34-1.69,7.78-20.71,9.82-29.45.11-2.38-3.9-11.19-9.87-23l-11.87.08a31.67,31.67,0,0,0,.07,6.12c.8,6.1,12.58,17.31,12.58,17.31-1.54,6.51-3.95,25.74-4.69,29.14.38.48,1.29.48,2.09.48Z"/><path class="cls-24" d="M180.79,190.94a1.79,1.79,0,0,0-.4,0l.09-.11c.21-.35-.15-.89-.57-.73l-.61.25a1.24,1.24,0,0,0,0-.16.52.52,0,0,0-.64-.49,6.49,6.49,0,0,0-2.9,1.48,1,1,0,0,0-.93-.73c-.36,0-.7.27-.51.57a3.82,3.82,0,0,1,.44.9,19.54,19.54,0,0,1-3.3-1.07l-2.22,2.65a40.5,40.5,0,0,0,5.47,1.19,1.33,1.33,0,0,0,1,.65c1.14.13,1.93-1.16,2.91-1.47.72-.22,2.18-.24,2.23-1.23a.5.5,0,0,0-.33-.47l.5-.29A.5.5,0,0,0,180.79,190.94Z"/><path class="cls-4" d="M161.68,191.81c-3.56-6.29,1.38-23.25.14-26.92-2-6-8.34-11.31-15-9.07-3,1-5,9.38-3.39,14.57,1.37,4.47,2.11,10.1.53,14.58-.84,2.39-1.54,4.57-2.12,6.58A24.34,24.34,0,0,0,151.93,194a16.24,16.24,0,0,0,6.57-.78c1.1-.41,2.14-.93,3.19-1.42C161.69,191.82,161.68,191.82,161.68,191.81Z"/><path class="cls-4" d="M172.34,190.81c-.39-.26-9.16-4.31-10.88-6,0,0,2.07-16.18.57-20.76-2.38-.82-3.87,1.11-4.5,2.51-1,2.12-3.68,17-1,21.75,0,0,14,6.21,14,6.21C170.79,194.19,172.89,193.2,172.34,190.81Z"/><path class="cls-24" d="M165.05,144.43a6.25,6.25,0,0,0-3.28-3.48,8.24,8.24,0,0,0-7,.21,7.48,7.48,0,0,0-4.15,5.2c-.07,0-2.49,9.26-2.46,10.57a30.55,30.55,0,0,0,5.36,2.53c.41-1.15,1.62-3.23,2.71-3.76a3.86,3.86,0,0,0,2.28,1.42c2.21.29,4.35-2.7,5.38-4.26A9.57,9.57,0,0,0,165.05,144.43Z"/><path class="cls-33" d="M165.29,142.1a8.71,8.71,0,0,0-2.28-2,10.77,10.77,0,0,0-6.46-1.54,10.11,10.11,0,0,0-7.3,3.9c-1.88,2.55-1.08,5.88-3.3,8.21a8.65,8.65,0,0,0-2.21,8,.65.65,0,0,1-.22.65,5,5,0,0,0,1.33,8.48,1,1,0,0,1,.13.09c-.32,4,3.73,6.24,7.37,5.82a4.83,4.83,0,0,0,4-3,51.59,51.59,0,0,1,2-5.09A3,3,0,0,1,162,164a4.33,4.33,0,0,0,1.29-2.05c.43-2-.71-3.72-2-5.14a10.54,10.54,0,0,1-1.39-2.72,2.49,2.49,0,0,0-1-1.18,1.56,1.56,0,0,1-.91-1.35.63.63,0,0,1,1.15-.38,8.53,8.53,0,0,1,.49.79c.19.3.63,0,.6-.26-.06-.52-.16-1.06-.18-1.59a1.46,1.46,0,0,1,.78-1.45.63.63,0,0,1,.3-.07,17.46,17.46,0,0,0,4.17-.23C166.28,148.1,166.77,143.93,165.29,142.1Z"/><ellipse class="cls-23" cx="83.93" cy="308.09" rx="20.29" ry="10.17"/><path class="cls-24" d="M60.43,280.85a2.26,2.26,0,0,1-.26.16,1.64,1.64,0,0,1-1.09.27c-.48-.14-.45-.48-.27-.84-.44.15-.93.19-1.15-.19s0-.63.25-.94h0a.52.52,0,0,1-.47-.73,20.4,20.4,0,0,1,3-2.63s-1.46-.14-1.36-.9.89-.54,1.33-.58c1.35-.15,3.16-.7,4.25-.82s1.78,1.08,1.67,2.11a2.18,2.18,0,0,1-.75,1.16c0,.1-3.49,4.27-4.66,4.28C60.66,281.21,60.37,281.11,60.43,280.85Z"/><path class="cls-4" d="M77.54,253.51l-.43,2.37a22,22,0,0,1-8.53,13.73L64,273a6.31,6.31,0,0,0,.18.72,5.66,5.66,0,0,0,1.3,2.1,5.14,5.14,0,0,0,1.28,1c1.12-.43,12.5-5.76,16.52-17.75a28.07,28.07,0,0,1,2.37-4.75l.82-1.47C85,250.77,79.14,251.56,77.54,253.51Z"/><path class="cls-4" d="M78.68,304.55a3.82,3.82,0,0,1-3,.5c-1.37,1.32-7.49,5-7.28,6.29.37,2.23,3.94,1.62,5.3,1s2.48-1.76,3.76-2.52c.92-.54,1.82-.82,2-2C79.58,307.14,78.92,304.53,78.68,304.55Z"/><path class="cls-4" d="M79.47,307.37c-.2,1.09-1.09,1.38-2,1.92-1.3.77-2.47,1.9-3.82,2.56s-4.36,1.16-5.2-.45c.43,2.16,3.94,1.56,5.28.91s2.48-1.76,3.76-2.52c.92-.54,1.82-.82,2-2A2.46,2.46,0,0,0,79.47,307.37Z"/><path class="cls-29" d="M73.28,309.2a2.51,2.51,0,0,0-1.73-1,.44.44,0,0,0-.49.36,3.31,3.31,0,0,1,1.86,1C73.12,309.81,73.49,309.46,73.28,309.2Z"/><path class="cls-29" d="M74.38,308.4a2.51,2.51,0,0,0-1.74-1,.44.44,0,0,0-.49.36,3.33,3.33,0,0,1,1.86,1C74.22,309,74.58,308.65,74.38,308.4Z"/><path class="cls-29" d="M75.43,307.63a2.55,2.55,0,0,0-1.73-1.05.45.45,0,0,0-.49.37,3.35,3.35,0,0,1,1.86,1C75.27,308.24,75.64,307.88,75.43,307.63Z"/><path class="cls-34" d="M87,276.45c-.43.07-.87.13-1.31.17-3.07.33-6.33.68-9.36-.06.06,1.1.11,2.05.11,2.05C72,281.78,63.6,288.92,63,292.6c2,5.45,9.24,11.07,12.66,13.86,1,.75,3.54-.83,3-1.53-1.58-2.07-4.16-6.51-7-10.07,0-.27,12.07-6.89,13.78-8.64s2-4.35,2-6.83A12.2,12.2,0,0,0,87,276.45Z"/><path class="cls-24" d="M98.66,302.74l-3.52.84h0a6.08,6.08,0,0,0,1,3l2.14-.74c.34-.12.81-.23,1.25-.37A5.64,5.64,0,0,0,98.66,302.74Z"/><path class="cls-4" d="M107.38,301.05c-1,.05-9.8,1.24-10.07,1.41,0,.54-.12,1.37.26,1.81.62.72,1.45.17,1.91,1.2.13.28,7.1-.44,8.06-2.66A2.14,2.14,0,0,0,107.38,301.05Z"/><path class="cls-28" d="M107,300.68a1,1,0,0,0-.3-.11,2.21,2.21,0,0,0-.88.1c-1,.25-4.13,1.12-6,.79a2.41,2.41,0,0,0-2.36.51,1,1,0,0,0-.14,1.06c.45,1.3,2.13,1.47,3.29,1.32a22.3,22.3,0,0,0,3.8-.79c1-.29,2.37-.56,2.92-1.49A1.05,1.05,0,0,0,107,300.68Z"/><path class="cls-4" d="M100,304.2c-.75,0-2-.16-2.43-1.24a.89.89,0,0,1,.11-.87,1.67,1.67,0,0,1,1.38-.52,4.61,4.61,0,0,1,.8.08,4.9,4.9,0,0,0,1,.08,21.31,21.31,0,0,0,4.76-.8l.29-.07a2.76,2.76,0,0,1,.62-.1h.18a.65.65,0,0,1,.23.09.82.82,0,0,1,.37.51.78.78,0,0,1-.07.6,3.92,3.92,0,0,1-2.39,1.28l-.42.12a24.41,24.41,0,0,1-3.76.79C100.44,304.18,100.22,304.2,100,304.2Z"/><path class="cls-35" d="M95.76,303.37c-4.3.66-7.3,1.19-11.69,2,.47-.77,7.21-15.94,8.15-17.35a11.54,11.54,0,0,0,2-7.37c0-.54-1.49-6.08-1.7-6A16.72,16.72,0,0,1,83,275.89c0,1.56.23,4.49.23,4.49-5.66,15.25-5.66,22.67-6.25,29.77-.07.93.92,1.62,1.84,1.71,5,.53,15.27-4.16,18.41-5.32A2.54,2.54,0,0,0,95.76,303.37Z"/><path class="cls-4" d="M77,269.43a42.3,42.3,0,0,1-1.29,7.73,47,47,0,0,0,12.08,1.56,34.91,34.91,0,0,0,5.68-.51l.93-.46A36.77,36.77,0,0,0,92,273a4.13,4.13,0,0,1-.39-3c.76-3.45,2.4-11.58,1.7-14.24a9.16,9.16,0,0,0-7.77-6.5,8.51,8.51,0,0,0-6.76,2,7.69,7.69,0,0,0-2.13,6.36A68.34,68.34,0,0,1,77,269.43Z"/><path class="cls-36" d="M77.12,246.68a5.33,5.33,0,0,0,3.2,3.85h0a2.61,2.61,0,0,0,.06-.27c.33-2.05-3.47-4.2-3.46-4.15S77.07,246.49,77.12,246.68Z"/><path class="cls-24" d="M79.87,249.16s.47,3.62.48,3.65c.21,1.84,3.85.79,5.85-2.59l-.73-5.8A39.84,39.84,0,0,0,79.87,249.16Z"/><path class="cls-24" d="M85.22,233.83a5.64,5.64,0,0,0-4.24-.67,7.53,7.53,0,0,0-3.61,2.27,8.6,8.6,0,0,0-2,3.57,8.09,8.09,0,0,0,.09,4.06c1.26,5.13,4.2,6.74,5.11,7a5.66,5.66,0,0,0,4.22-2.93,15.89,15.89,0,0,1,2.5-3.76l.22-.27C89.12,241,89.08,236.43,85.22,233.83Z"/><path class="cls-24" d="M71.77,285.82a2.31,2.31,0,0,1-.24.2,1.62,1.62,0,0,1-1,.41c-.5-.08-.51-.42-.38-.79-.41.2-.9.31-1.17,0s-.09-.62.13-1l0,0a.53.53,0,0,1-.57-.66,20.51,20.51,0,0,1,2.59-3s-1.47.06-1.47-.71c0-.61.81-.65,1.23-.75,1.33-.33,3-1.12,4.11-1.39s1.9.83,1.94,1.87a2.31,2.31,0,0,1-.59,1.26c0,.09-2.88,4.69-4,4.86C72,286.14,71.74,286.09,71.77,285.82Z"/><path class="cls-4" d="M93.12,260.49c.8-1.8,1.19-4.85-.37-6.44a3.85,3.85,0,0,0-3.26-1,3.78,3.78,0,0,0-3.26,3.63h0a24.67,24.67,0,0,1-7.4,16.53l-4.78,4.69a6.81,6.81,0,0,0,3.77,3.58h.08C87.21,275.89,93,260.71,93.12,260.49Z"/><path class="cls-37" d="M92,244.6a5.24,5.24,0,0,0,.07-1.27c-.37-3.6-1.32-7.4-4.44-9.6a8.49,8.49,0,0,0-9.74-.25c-3.21,2.26-4.14,7-2.35,9.93-1-3.2,2-3.84,3.71-4.51a.55.55,0,0,0,0,.17c.88,2.39,3.12,3.47,5.32,4.39h.08c.08-.73,1.09-1.39,1.6-.62s-.25,1.38-.88,1.64c-.34.42.16,1.8.24,2.26a8.21,8.21,0,0,1-1.84,6.64A12.63,12.63,0,0,0,82.16,256a3.74,3.74,0,0,0,.89,4.29c1.52,1.34,4.34,1.76,5.91.29,1.1-1,1-2.36,1.14-3.73.39-3.09,2.36-3.35,2.67-2.83a2.9,2.9,0,0,1,.33-1.77C94.62,249.15,94.16,246.78,92,244.6Z"/><ellipse class="cls-23" cx="20.29" cy="406.79" rx="20.29" ry="10.17"/><path class="cls-24" d="M39,295.72a2.39,2.39,0,0,0,.23-.22,1.64,1.64,0,0,0,.55-1.05c0-.52-.37-.58-.78-.48.27-.41.43-.91.11-1.23s-.64-.16-1,0a.05.05,0,0,1,0,0,.55.55,0,0,0-.62-.67,21,21,0,0,0-3.45,2.34s.23-1.53-.57-1.62c-.64-.07-.78.78-.94,1.21-.5,1.34-1.53,3-1.93,4.12s.64,2.09,1.72,2.25a2.39,2.39,0,0,0,1.38-.47c.09,0,5.25-2.45,5.56-3.64C39.32,296.05,39.3,295.72,39,295.72Z"/><path class="cls-38" d="M30,296.82a45.15,45.15,0,0,0-9,6.72,38.88,38.88,0,0,0-7,8.44c-1.78,2.94-5.63,8.87-1.81,11.53,1.92,1.33,5.35,2.2,6.11-.55a34.47,34.47,0,0,1,2.17-6.35c4-8.06,13.25-14.95,14.2-15.64C34.12,299,31.92,297.63,30,296.82Z"/><g class="cls-1"><polygon class="cls-39" points="30.12 285.46 43.85 293.44 57.68 285.46 43.95 277.48 30.12 285.46"/><polygon class="cls-4" points="30.12 285.46 30.18 300.42 43.91 308.4 43.85 293.44 30.12 285.46"/><polygon class="cls-4" points="43.85 293.44 43.91 308.4 57.73 300.42 57.68 285.46 43.85 293.44"/></g><path class="cls-40" d="M10,402.13a10.21,10.21,0,0,0,6.28-.7c1.22,0,6.69-2.73,7.6-.34.79,2.1-2.09,4-3.63,4.41-3.36.82-5.85,2.49-7.2,2.78-1,.21-2.31.35-3.11-.44C9,406.89,9,403.38,10,402.13Z"/><path class="cls-28" d="M13,407.7c1.35-.29,3.84-2,7.2-2.78,1.29-.31,3.51-1.73,3.74-3.41.3,1.93-2.3,3.64-3.74,4-3.36.82-5.85,2.49-7.2,2.78-1,.21-2.31.35-3.11-.44a2,2,0,0,1-.44-.81A4,4,0,0,0,13,407.7Z"/><path class="cls-41" d="M20.35,400.34A3.17,3.17,0,0,1,22,402.25c.08.37-.5.54-.58.16a2.6,2.6,0,0,0-1.89-1.86A.78.78,0,0,1,20.35,400.34Z"/><path class="cls-41" d="M19.09,400.67a3.32,3.32,0,0,1,1.64,1.94c.08.38-.5.54-.58.16a2.58,2.58,0,0,0-1.9-1.85A.77.77,0,0,1,19.09,400.67Z"/><path class="cls-41" d="M17.87,401A3.15,3.15,0,0,1,19.53,403c.08.38-.5.54-.58.16a2.59,2.59,0,0,0-1.9-1.86A.75.75,0,0,1,17.87,401Z"/><path class="cls-4" d="M8.93,350.57c1.16.15,12,.83,12,.83-.23,4.15-1.82,22.33-2.48,27.51-.63,4.92-2.15,22.52-2.15,22.52-2.31,2.51-6.28.7-6.28.7s-1.1-20-.48-25.79C10.68,365.41,8.58,357.73,8.93,350.57Z"/><path class="cls-42" d="M16.62,406.29a10,10,0,0,0,6.27-.7c1.23,0,6.7-2.73,7.6-.34.8,2.1-2.09,4-3.63,4.41-3.36.82-5.85,2.49-7.2,2.78-1,.21-2.31.35-3.11-.44C15.59,411.05,15.67,407.54,16.62,406.29Z"/><path class="cls-28" d="M19.66,411.86c1.35-.29,3.84-2,7.2-2.78,1.29-.31,3.52-1.72,3.74-3.41.3,1.93-2.3,3.65-3.74,4-3.36.82-5.85,2.49-7.2,2.78-1,.21-2.31.35-3.11-.44a2,2,0,0,1-.44-.8A4,4,0,0,0,19.66,411.86Z"/><path class="cls-43" d="M27,404.5a3.23,3.23,0,0,1,1.62,1.91c.08.38-.5.54-.58.16a2.61,2.61,0,0,0-1.9-1.86A.8.8,0,0,1,27,404.5Z"/><path class="cls-43" d="M25.72,404.83a3.3,3.3,0,0,1,1.64,1.95c.08.37-.49.53-.57.16a2.62,2.62,0,0,0-1.9-1.86A.75.75,0,0,1,25.72,404.83Z"/><path class="cls-43" d="M24.5,405.21a3.1,3.1,0,0,1,1.66,1.93c.08.38-.5.54-.58.16a2.57,2.57,0,0,0-1.89-1.85A.72.72,0,0,1,24.5,405.21Z"/><path class="cls-4" d="M14.4,354.59c1.16.14,13.12,1,13.12,1-.23,4.15-1.81,22.33-2.47,27.5-.63,4.92-2.16,22.52-2.16,22.52-2.31,2.51-6.27.7-6.27.7s-1.11-20-.48-25.79C17.32,369.57,14.06,361.75,14.4,354.59Z"/><path class="cls-44" d="M28.07,330.16A13.37,13.37,0,0,0,20,317.91l-.09,0a9.84,9.84,0,0,0-6.37-.57,5.09,5.09,0,0,0-3.59,4.61c-.44,7.32-1.64,27.77-1.57,32.23,0,1.82,9.37,7.2,20,2.37C28.54,356,28.26,339.87,28.07,330.16Z"/><path class="cls-24" d="M14.12,304.9A6.14,6.14,0,0,1,20,301.68c2.26.11,4.7,1.28,5.46,3.56,1,3,2,6.62.52,9.51C21.15,324.16,12.3,308.27,14.12,304.9Z"/><path class="cls-24" d="M16.23,313.43a.3.3,0,0,1,.45-.26c1.59.95,5,.69,5,.91,0,0,.66,4.73.91,6.22a.31.31,0,0,1-.21.37,5.34,5.34,0,0,1-5.19-1.05A2.86,2.86,0,0,1,16,317.78,28.83,28.83,0,0,1,16.23,313.43Z"/><path class="cls-4" d="M12.23,305.36a5.64,5.64,0,0,1,1-1.76A7,7,0,0,1,19,300.87h.08a3.69,3.69,0,0,1,.4-.29,2.51,2.51,0,0,1,1.16-.36c.44,0,1.33.15,1.53.64a.24.24,0,0,1,.12-.07c2.52-.67,5.19,1.11,4.62,3.88-.53,2.62-3.19,4.12-5.72,4.35,0,0-.05,1.27-.07,2.62a2,2,0,0,0-1.68-.8,1.2,1.2,0,0,0-1.14,1.45c.31,1,1.75,1.39,2.8,1.11,0,.7,0,1.25,0,1.37a1.59,1.59,0,0,1-.32,1.06,1.39,1.39,0,0,1-.66.34c-.4.11-.82.14-1.22.21a2.67,2.67,0,0,0-.92.29,6.89,6.89,0,0,1-.73.46c-.87.35-1.35-.72-1.72-1.3A15.74,15.74,0,0,0,14.05,314a7.42,7.42,0,0,1-1.28-1.86,9.92,9.92,0,0,1-.94-4.36A7.49,7.49,0,0,1,12.23,305.36Z"/><path class="cls-24" d="M46.56,297.8a2.22,2.22,0,0,0,.1-.31,1.71,1.71,0,0,0,0-1.18c-.26-.46-.6-.35-.92-.08.05-.48,0-1-.47-1.14s-.65.15-.91.49v0a.54.54,0,0,0-.85-.31,21.53,21.53,0,0,0-2,3.66s-.5-1.46-1.25-1.17-.34,1-.28,1.5c.17,1.42,0,3.4.17,4.55s1.53,1.56,2.57,1.21a2.39,2.39,0,0,0,1-1.05c.09,0,3.53-4.59,3.27-5.79C47,297.94,46.81,297.66,46.56,297.8Z"/><path class="cls-45" d="M43.93,305.23c-.62-2.08-4.07-3-4.07-3L37,308.82a23.16,23.16,0,0,1-12,12l-2.32,1c-1.62,2.11-1,8.34,1.43,9.36l1.3-1.2a31.11,31.11,0,0,1,4.31-3.56C41.17,319.36,43.82,306.12,43.93,305.23Z"/><path class="cls-46" d="M254.11,115.08a3.82,3.82,0,0,0,3,.5c1.37,1.32,7.49,5,7.28,6.29-.37,2.23-3.94,1.62-5.3,1s-2.48-1.76-3.77-2.52c-.91-.54-1.81-.82-2-2C253.21,117.67,253.87,115.06,254.11,115.08Z"/><path class="cls-28" d="M253.32,117.9c.2,1.09,1.08,1.38,2,1.92,1.3.77,2.47,1.9,3.82,2.56s4.36,1.16,5.2-.45c-.43,2.16-3.94,1.56-5.28.91s-2.48-1.76-3.77-2.52c-.91-.54-1.81-.82-2-2A2.46,2.46,0,0,1,253.32,117.9Z"/><path class="cls-29" d="M259.51,119.73a2.51,2.51,0,0,1,1.73-1,.44.44,0,0,1,.49.36,3.31,3.31,0,0,0-1.86,1C259.67,120.34,259.3,120,259.51,119.73Z"/><path class="cls-29" d="M258.41,118.93a2.51,2.51,0,0,1,1.74-1.05.44.44,0,0,1,.49.36,3.33,3.33,0,0,0-1.86,1C258.57,119.53,258.21,119.18,258.41,118.93Z"/><path class="cls-29" d="M257.36,118.16a2.53,2.53,0,0,1,1.73-1,.45.45,0,0,1,.49.37,3.35,3.35,0,0,0-1.86,1C257.52,118.77,257.15,118.41,257.36,118.16Z"/><ellipse class="cls-23" cx="249.03" cy="116.7" rx="21.94" ry="10.99"/><path class="cls-24" d="M272.36,91.38a2.26,2.26,0,0,0,.26.16,1.64,1.64,0,0,0,1.09.27c.48-.14.45-.48.27-.84.43.15.93.19,1.15-.19s0-.63-.25-.94h0a.52.52,0,0,0,.47-.73,20.93,20.93,0,0,0-3-2.63s1.46-.14,1.36-.9-.89-.54-1.33-.58c-1.35-.15-3.16-.7-4.25-.82s-1.78,1.08-1.67,2.11a2.18,2.18,0,0,0,.75,1.16c0,.1,3.49,4.27,4.66,4.28C272.13,91.74,272.42,91.64,272.36,91.38Z"/><path class="cls-47" d="M255.25,64l.43,2.37a22,22,0,0,0,8.53,13.73l4.54,3.38a6.31,6.31,0,0,1-.18.72,5.56,5.56,0,0,1-1.31,2.1,4.92,4.92,0,0,1-1.27,1c-1.12-.43-12.5-5.76-16.52-17.75a28.07,28.07,0,0,0-2.37-4.75l-.82-1.47C247.75,61.3,253.65,62.09,255.25,64Z"/><path class="cls-4" d="M245.79,87c.43.07.87.13,1.31.17,3.07.33,6.33.68,9.36-.06-.06,1.1-.11,2-.11,2,4.48,3.17,12.84,10.31,13.43,14-2,5.45-9.24,11.07-12.66,13.86-1,.75-3.54-.83-3-1.53,1.59-2.07,4.17-6.51,7-10.07,0-.27-12.07-6.89-13.78-8.64s-2-4.35-2-6.83A12.2,12.2,0,0,1,245.79,87Z"/><path class="cls-24" d="M234.13,113.27l3.52.84h0a6.08,6.08,0,0,1-1,3l-2.14-.74c-.34-.12-.81-.23-1.25-.37A5.64,5.64,0,0,1,234.13,113.27Z"/><path class="cls-48" d="M225.41,111.58c1,0,9.8,1.24,10.07,1.41,0,.54.12,1.37-.26,1.81-.62.72-1.45.17-1.91,1.2-.13.28-7.1-.44-8.06-2.66A2.14,2.14,0,0,1,225.41,111.58Z"/><path class="cls-28" d="M225.77,111.21a1,1,0,0,1,.3-.11,2.15,2.15,0,0,1,.87.1c1,.25,4.14,1.12,6,.79a2.41,2.41,0,0,1,2.36.51,1,1,0,0,1,.14,1.06c-.45,1.3-2.13,1.47-3.29,1.32a22.3,22.3,0,0,1-3.8-.79c-.95-.29-2.37-.56-2.92-1.49A1,1,0,0,1,225.77,111.21Z"/><path class="cls-4" d="M232.8,114.73c.74,0,2-.16,2.43-1.24a.86.86,0,0,0-.12-.87,1.64,1.64,0,0,0-1.38-.52,4.6,4.6,0,0,0-.79.08,4.9,4.9,0,0,1-1,.08,21.21,21.21,0,0,1-4.76-.8l-.29-.07a2.76,2.76,0,0,0-.63-.1h-.17a.65.65,0,0,0-.23.09.82.82,0,0,0-.37.51.78.78,0,0,0,.07.6,3.92,3.92,0,0,0,2.39,1.28l.42.12a24.16,24.16,0,0,0,3.76.79C232.35,114.71,232.57,114.73,232.8,114.73Z"/><path class="cls-4" d="M237,113.9c4.31.66,7.31,1.19,11.69,2-.46-.77-7.2-15.94-8.14-17.35a11.54,11.54,0,0,1-1.95-7.37c0-.54,1.49-6.08,1.7-6A21.23,21.23,0,0,0,250.94,87c0,1.55,0,4.26,0,4.26,5.65,15.26,4.28,22.34,4.87,29.44.07.93-.92,1.62-1.85,1.71-5,.53-15.26-4.16-18.4-5.32A2.54,2.54,0,0,1,237,113.9Z"/><path class="cls-49" d="M255.81,80a42.3,42.3,0,0,0,1.29,7.73A47.1,47.1,0,0,1,245,89.25a34.81,34.81,0,0,1-5.68-.51c-.31-.15-.63-.3-.93-.46a36.77,36.77,0,0,1,2.35-4.75,4.13,4.13,0,0,0,.39-3c-.76-3.45-2.4-11.58-1.7-14.24a9.15,9.15,0,0,1,7.77-6.5,8.51,8.51,0,0,1,6.76,2,7.69,7.69,0,0,1,2.13,6.36A68.34,68.34,0,0,0,255.81,80Z"/><path class="cls-50" d="M255.67,57.21a5.35,5.35,0,0,1-3.2,3.85h0a2.3,2.3,0,0,1-.06-.28c-.33-2,3.47-4.19,3.46-4.14S255.72,57,255.67,57.21Z"/><path class="cls-24" d="M252.92,59.69s-.47,3.62-.48,3.65c-.21,1.84-3.85.79-5.85-2.59l.73-5.8A39.84,39.84,0,0,1,252.92,59.69Z"/><path class="cls-24" d="M247.57,44.36a5.64,5.64,0,0,1,4.24-.67A7.53,7.53,0,0,1,255.42,46a8.6,8.6,0,0,1,2,3.57,8.09,8.09,0,0,1-.09,4.06c-1.26,5.13-4.2,6.74-5.11,7A5.64,5.64,0,0,1,248,57.64a15.89,15.89,0,0,0-2.5-3.76l-.22-.27C243.67,51.48,243.71,47,247.57,44.36Z"/><g class="cls-1"><polygon class="cls-51" points="257.17 80.95 270.9 88.93 284.72 80.95 270.99 72.97 257.17 80.95"/><polygon class="cls-4" points="257.17 80.95 257.22 95.91 270.95 103.89 270.9 88.93 257.17 80.95"/><polygon class="cls-4" points="270.9 88.93 270.95 103.89 284.78 95.91 284.72 80.95 270.9 88.93"/></g><path class="cls-24" d="M261,96.35a2.31,2.31,0,0,0,.24.2,1.62,1.62,0,0,0,1,.41c.49-.08.51-.42.38-.79.41.2.9.31,1.17,0s.08-.62-.13-1l0,0a.53.53,0,0,0,.57-.66,20.51,20.51,0,0,0-2.59-3s1.47.06,1.47-.71c0-.61-.81-.65-1.24-.75-1.32-.33-3-1.12-4.1-1.39s-1.91.83-1.94,1.87a2.31,2.31,0,0,0,.59,1.26c0,.09,2.88,4.69,4,4.86C260.75,96.67,261.05,96.62,261,96.35Z"/><path class="cls-52" d="M239.67,71c-.8-1.8-1.19-4.85.37-6.44a3.84,3.84,0,0,1,3.25-1,3.78,3.78,0,0,1,3.27,3.63h0A24.66,24.66,0,0,0,254,83.73l4.79,4.69A6.81,6.81,0,0,1,255,92h-.08C245.58,86.42,239.77,71.24,239.67,71Z"/><path class="cls-4" d="M240.74,55.13a5.73,5.73,0,0,1-.06-1.27c.37-3.6,1.32-7.4,4.44-9.6a8.49,8.49,0,0,1,9.74-.25c3.21,2.26,4.14,7,2.35,9.93,1-3.2-2-3.84-3.71-4.51a.55.55,0,0,1,0,.17c-.88,2.39-3.12,3.47-5.32,4.39h-.08c-.08-.73-1.09-1.39-1.6-.62s.25,1.38.88,1.64c.34.42-.16,1.8-.24,2.26A8.21,8.21,0,0,0,249,63.92a12.63,12.63,0,0,1,1.68,2.57,3.75,3.75,0,0,1-.89,4.29c-1.52,1.34-4.34,1.76-5.91.29-1.1-1-1-2.36-1.15-3.73-.38-3.09-2.35-3.35-2.66-2.83a2.83,2.83,0,0,0-.34-1.77C238.17,59.68,238.63,57.31,240.74,55.13Z"/><g class="cls-1"><polygon class="cls-53" points="275.01 274.76 303.72 291.45 332.63 274.76 303.91 258.07 275.01 274.76"/><polygon class="cls-4" points="275.01 274.76 275.12 306.04 303.83 322.73 303.72 291.45 275.01 274.76"/><polygon class="cls-4" points="303.72 291.45 303.83 322.73 332.74 306.04 332.63 274.76 303.72 291.45"/></g><g class="cls-1"><polygon class="cls-54" points="270.08 314.43 283.81 322.41 297.64 314.43 283.9 306.44 270.08 314.43"/><polygon class="cls-55" points="270.08 314.43 270.14 329.38 283.87 337.36 283.81 322.41 270.08 314.43"/><polygon class="cls-56" points="283.81 322.41 283.87 337.36 297.69 329.38 297.64 314.43 283.81 322.41"/></g><g class="cls-1"><polygon class="cls-57" points="308.75 314.43 322.49 322.41 336.31 314.43 322.58 306.44 308.75 314.43"/><polygon class="cls-58" points="308.75 314.43 308.81 329.38 322.54 337.36 322.49 322.41 308.75 314.43"/><polygon class="cls-59" points="322.49 322.41 322.54 337.36 336.36 329.38 336.31 314.43 322.49 322.41"/></g><ellipse class="cls-23" cx="303.85" cy="273.8" rx="16.86" ry="8.45"/><path class="cls-24" d="M282.92,163.25a2.39,2.39,0,0,1-.23-.22,1.7,1.7,0,0,1-.56-1.05c0-.52.38-.58.78-.48-.26-.41-.43-.91-.1-1.23s.64-.16,1,0l0,0a.54.54,0,0,1,.62-.67,21.9,21.9,0,0,1,3.45,2.34s-.23-1.53.57-1.62c.64-.07.77.78.93,1.2.5,1.35,1.54,3.05,1.94,4.13s-.64,2.09-1.73,2.25a2.34,2.34,0,0,1-1.37-.47c-.1,0-5.25-2.45-5.56-3.64C282.61,163.58,282.64,163.25,282.92,163.25Z"/><path class="cls-24" d="M275.38,165.33c0-.11-.08-.21-.11-.31a1.66,1.66,0,0,1,0-1.18c.26-.46.6-.35.92-.08-.05-.48,0-1,.47-1.14s.64.15.9.49c0,0,0,0,0,0a.54.54,0,0,1,.85-.31,21.53,21.53,0,0,1,2,3.66s.5-1.46,1.25-1.17.33,1,.28,1.49c-.18,1.43,0,3.41-.18,4.56s-1.53,1.56-2.56,1.21a2.39,2.39,0,0,1-1-1c-.1,0-3.54-4.59-3.27-5.79C275,165.47,275.12,165.19,275.38,165.33Z"/><path class="cls-60" d="M292,164.35a44.77,44.77,0,0,1,9,6.72,38.84,38.84,0,0,1,7,8.44c1.78,2.94,5.64,8.87,1.81,11.53-1.91,1.33-5.35,2.2-6.1-.55a34.5,34.5,0,0,0-2.18-6.35c-4-8.07-13.25-14.95-14.2-15.64C287.81,166.48,290,165.16,292,164.35Z"/><path class="cls-61" d="M312,269.66a10.18,10.18,0,0,1-6.27-.7c-1.23,0-6.7-2.73-7.6-.34-.8,2.1,2.09,4,3.63,4.41,3.36.81,5.85,2.49,7.2,2.78,1,.21,2.31.35,3.11-.44C313,274.42,312.89,270.91,312,269.66Z"/><path class="cls-28" d="M308.91,275.22c-1.35-.28-3.84-2-7.2-2.77-1.29-.31-3.52-1.73-3.74-3.41-.3,1.93,2.3,3.64,3.74,4,3.36.81,5.85,2.49,7.2,2.78,1,.21,2.31.35,3.11-.44a2.14,2.14,0,0,0,.44-.81A4,4,0,0,1,308.91,275.22Z"/><path class="cls-41" d="M301.58,267.86a3.24,3.24,0,0,0-1.62,1.92c-.08.37.5.54.58.16a2.61,2.61,0,0,1,1.9-1.86A.81.81,0,0,0,301.58,267.86Z"/><path class="cls-41" d="M302.85,268.2a3.28,3.28,0,0,0-1.64,1.94c-.08.38.49.54.57.16a2.61,2.61,0,0,1,1.9-1.85A.76.76,0,0,0,302.85,268.2Z"/><path class="cls-41" d="M304.07,268.57a3.15,3.15,0,0,0-1.66,1.94c-.08.38.5.54.58.16a2.6,2.6,0,0,1,1.89-1.86A.73.73,0,0,0,304.07,268.57Z"/><path class="cls-23" d="M313,218.1c-1.16.14-12,.83-12,.83.23,4.15,1.81,22.33,2.47,27.51.63,4.92,2.16,22.52,2.16,22.52,2.31,2.51,6.27.7,6.27.7s1.11-20,.48-25.79C311.25,232.94,313.35,225.26,313,218.1Z"/><path class="cls-62" d="M305.32,273.82a10.08,10.08,0,0,1-6.28-.7c-1.22,0-6.69-2.73-7.6-.34-.79,2.1,2.09,4,3.63,4.41,3.37.82,5.85,2.49,7.2,2.78,1,.21,2.31.35,3.11-.44C306.34,278.58,306.26,275.07,305.32,273.82Z"/><path class="cls-28" d="M302.27,279.39c-1.35-.29-3.83-2-7.2-2.78-1.29-.31-3.51-1.72-3.74-3.41-.29,1.93,2.31,3.65,3.74,4,3.37.82,5.85,2.49,7.2,2.78,1,.21,2.31.35,3.11-.44a1.8,1.8,0,0,0,.44-.8A4,4,0,0,1,302.27,279.39Z"/><path class="cls-43" d="M295,272a3.19,3.19,0,0,0-1.62,1.91c-.08.38.5.54.58.16a2.59,2.59,0,0,1,1.9-1.86A.8.8,0,0,0,295,272Z"/><path class="cls-43" d="M296.22,272.36a3.32,3.32,0,0,0-1.65,1.95c-.08.37.5.53.58.16a2.58,2.58,0,0,1,1.9-1.86A.76.76,0,0,0,296.22,272.36Z"/><path class="cls-43" d="M297.43,272.74a3.13,3.13,0,0,0-1.66,1.93c-.08.38.5.54.58.16a2.58,2.58,0,0,1,1.9-1.85A.73.73,0,0,0,297.43,272.74Z"/><path class="cls-23" d="M307.53,222.12c-1.16.14-13.11,1-13.11,1,.22,4.15,1.81,22.32,2.47,27.5.63,4.92,2.15,22.52,2.15,22.52,2.32,2.51,6.28.7,6.28.7s1.1-20,.48-25.79C304.62,237.1,307.88,229.28,307.53,222.12Z"/><path class="cls-63" d="M293.86,197.69A13.42,13.42,0,0,1,302,185.43l.09,0a9.84,9.84,0,0,1,6.37-.57,5.09,5.09,0,0,1,3.59,4.61c.44,7.32,1.63,27.77,1.57,32.23,0,1.82-9.38,7.2-20.05,2.37C293.39,223.56,293.68,207.4,293.86,197.69Z"/><path class="cls-24" d="M307.81,172.43a6.13,6.13,0,0,0-5.85-3.22c-2.27.11-4.7,1.28-5.47,3.56-1,3-2,6.62-.52,9.51C300.79,191.69,309.64,175.8,307.81,172.43Z"/><path class="cls-24" d="M305.7,181a.3.3,0,0,0-.45-.26c-1.59,1-5,.69-5,.91,0,0-.66,4.73-.91,6.22a.33.33,0,0,0,.21.37,5.36,5.36,0,0,0,5.2-1,2.81,2.81,0,0,0,1.21-1.84A28.83,28.83,0,0,0,305.7,181Z"/><path class="cls-4" d="M309.71,172.89a5.64,5.64,0,0,0-1-1.76,7.08,7.08,0,0,0-5.84-2.74l-.06,0h0a3,3,0,0,0-.41-.29,2.47,2.47,0,0,0-1.15-.36c-.44,0-1.33.15-1.53.64a.24.24,0,0,0-.12-.07c-2.53-.67-5.19,1.11-4.63,3.88s3.19,4.12,5.73,4.35c0,0,0,1.27.06,2.62a2,2,0,0,1,1.68-.8,1.2,1.2,0,0,1,1.15,1.45c-.31,1-1.76,1.39-2.81,1.11,0,.7,0,1.25,0,1.37a1.59,1.59,0,0,0,.32,1.06,1.31,1.31,0,0,0,.66.34c.4.11.81.14,1.22.21a2.69,2.69,0,0,1,.91.29,8.23,8.23,0,0,0,.74.46c.86.35,1.34-.72,1.71-1.3a15,15,0,0,1,1.52-1.86,7.13,7.13,0,0,0,1.27-1.86,9.93,9.93,0,0,0,.95-4.36A8.09,8.09,0,0,0,309.71,172.89Z"/><path class="cls-64" d="M278,172.76c.61-2.08,4.06-3,4.06-3l2.88,6.6a23.12,23.12,0,0,0,12,12l2.32,1c1.62,2.11,1,8.34-1.43,9.36l-1.31-1.2a30,30,0,0,0-4.31-3.56C280.76,186.89,278.11,173.65,278,172.76Z"/></svg>