<?xml version="1.0" encoding="utf-8"?>
<!-- Generator: Adobe Illustrator 23.0.2, SVG Export Plug-In . SVG Version: 6.00 Build 0)  -->
<svg version="1.0" id="Layer_1" xmlns="http://www.w3.org/2000/svg" xmlns:xlink="http://www.w3.org/1999/xlink" x="0px" y="0px"
	 viewBox="0 0 255.12 255.12" style="enable-background:new 0 0 255.12 255.12;" xml:space="preserve">
<style type="text/css">
	.st0{fill:none;stroke:url(#SVGID_1_);stroke-width:2;stroke-linecap:round;stroke-linejoin:round;stroke-miterlimit:10;}
	.st1{fill:none;stroke:url(#SVGID_2_);stroke-width:2;stroke-linecap:round;stroke-linejoin:round;stroke-miterlimit:10;}
	.st2{fill:none;stroke:url(#SVGID_3_);stroke-width:2;stroke-linecap:round;stroke-linejoin:round;stroke-miterlimit:10;}
	.st3{fill:none;stroke:url(#SVGID_4_);stroke-width:2;stroke-linecap:round;stroke-linejoin:round;stroke-miterlimit:10;}
	.st4{fill:none;stroke:url(#SVGID_5_);stroke-width:2;stroke-linecap:round;stroke-linejoin:round;stroke-miterlimit:10;}
	.st5{fill:none;stroke:url(#SVGID_6_);stroke-width:2;stroke-linecap:round;stroke-linejoin:round;stroke-miterlimit:10;}
	.st6{fill:none;stroke:url(#SVGID_7_);stroke-width:2;stroke-linecap:round;stroke-linejoin:round;stroke-miterlimit:10;}
	.st7{fill:none;stroke:url(#SVGID_8_);stroke-width:2;stroke-linecap:round;stroke-linejoin:round;stroke-miterlimit:10;}
	.st8{fill:none;stroke:url(#SVGID_9_);stroke-width:2;stroke-linecap:round;stroke-linejoin:round;stroke-miterlimit:10;}
	.st9{fill:none;stroke:url(#SVGID_10_);stroke-width:2;stroke-linecap:round;stroke-linejoin:round;stroke-miterlimit:10;}
</style>
<g>
	<linearGradient id="SVGID_1_" gradientUnits="userSpaceOnUse" x1="12.9563" y1="115.2577" x2="144.0745" y2="115.2577">
		<stop  offset="0" style="stop-color:#0562A0"/>
		<stop  offset="1" style="stop-color:#3087C8"/>
	</linearGradient>
	<path class="st0" d="M117.73,180.02c-31.21,0-95.16,0-95.16,0c-4.76,0-8.61-3.86-8.61-8.61V59.11c0-4.76,3.86-8.61,8.61-8.61
		h111.89c4.76,0,8.61,3.86,8.61,8.61c0,0,0,20.19,0,43.44"/>
	<linearGradient id="SVGID_2_" gradientUnits="userSpaceOnUse" x1="79.0993" y1="53.0574" x2="210.2175" y2="53.0574">
		<stop  offset="0" style="stop-color:#0562A0"/>
		<stop  offset="1" style="stop-color:#3087C8"/>
	</linearGradient>
	<path class="st1" d="M80.1,50.22c0-21.22,0-38.77,0-38.77c0-4.76,3.86-8.61,8.61-8.61H200.6c4.76,0,8.61,3.86,8.61,8.61
		c0,0,0,59.44,0,91.83"/>
	<linearGradient id="SVGID_3_" gradientUnits="userSpaceOnUse" x1="116.8953" y1="177.7866" x2="242.1618" y2="177.7866">
		<stop  offset="0" style="stop-color:#0562A0"/>
		<stop  offset="1" style="stop-color:#3087C8"/>
	</linearGradient>
	<path class="st2" d="M232.55,103.29H126.51c-4.76,0-8.61,3.86-8.61,8.61v106.42c0,4.76,3.86,8.61,8.61,8.61h16.57v25.34
		l33.23-25.34h56.24c4.76,0,8.61-3.86,8.61-8.61V111.9C241.16,107.15,237.31,103.29,232.55,103.29z"/>
	<linearGradient id="SVGID_4_" gradientUnits="userSpaceOnUse" x1="149.9693" y1="167.2485" x2="208.4219" y2="167.2485">
		<stop  offset="0" style="stop-color:#0562A0"/>
		<stop  offset="1" style="stop-color:#3087C8"/>
	</linearGradient>
	<path class="st3" d="M150.97,200.18c0.27-2.15,28.56-65.86,28.56-65.86l27.89,65.86"/>
	<linearGradient id="SVGID_5_" gradientUnits="userSpaceOnUse" x1="159.8247" y1="176.7864" x2="198.2067" y2="176.7864">
		<stop  offset="0" style="stop-color:#0562A0"/>
		<stop  offset="1" style="stop-color:#3087C8"/>
	</linearGradient>
	<line class="st4" x1="160.82" y1="176.79" x2="197.21" y2="176.79"/>
	<linearGradient id="SVGID_6_" gradientUnits="userSpaceOnUse" x1="36.5266" y1="89.1558" x2="118.8953" y2="89.1558">
		<stop  offset="0" style="stop-color:#0562A0"/>
		<stop  offset="1" style="stop-color:#3087C8"/>
	</linearGradient>
	<line class="st5" x1="37.53" y1="89.16" x2="117.9" y2="89.16"/>
	<linearGradient id="SVGID_7_" gradientUnits="userSpaceOnUse" x1="40.2901" y1="120.4735" x2="103.3126" y2="120.4735">
		<stop  offset="0" style="stop-color:#0562A0"/>
		<stop  offset="1" style="stop-color:#3087C8"/>
	</linearGradient>
	<path class="st6" d="M102.31,89.16c0,0-14.52,52.15-61.02,62.64"/>
	<linearGradient id="SVGID_8_" gradientUnits="userSpaceOnUse" x1="60.1829" y1="131.4952" x2="109.7643" y2="131.4952">
		<stop  offset="0" style="stop-color:#0562A0"/>
		<stop  offset="1" style="stop-color:#3087C8"/>
	</linearGradient>
	<path class="st7" d="M61.18,111.2c0,0,13.17,26.34,47.58,40.59"/>
	<linearGradient id="SVGID_9_" gradientUnits="userSpaceOnUse" x1="76.7109" y1="82.5696" x2="78.7109" y2="82.5696">
		<stop  offset="0" style="stop-color:#0562A0"/>
		<stop  offset="1" style="stop-color:#3087C8"/>
	</linearGradient>
	<line class="st8" x1="77.71" y1="89.16" x2="77.71" y2="75.98"/>
	<linearGradient id="SVGID_10_" gradientUnits="userSpaceOnUse" x1="112.8719" y1="66.782" x2="174.8192" y2="66.782">
		<stop  offset="0" style="stop-color:#0562A0"/>
		<stop  offset="1" style="stop-color:#3087C8"/>
	</linearGradient>
	<path class="st9" d="M113.87,30.28h53.23c3.71,0,6.72,3.01,6.72,6.72v66.28"/>
</g>
</svg>
