<?xml version="1.0" encoding="utf-8"?>
<!-- Generator: Adobe Illustrator 23.0.2, SVG Export Plug-In . SVG Version: 6.00 Build 0)  -->
<svg version="1.0" id="Layer_1" xmlns="http://www.w3.org/2000/svg" xmlns:xlink="http://www.w3.org/1999/xlink" x="0px" y="0px"
	 viewBox="0 0 1451.34 1451.34" style="enable-background:new 0 0 1451.34 1451.34;" xml:space="preserve">
<style type="text/css">
	.st0{enable-background:new    ;}
	.st1{fill:url(#SVGID_1_);}
	.st2{fill:url(#SVGID_2_);}
	.st3{fill:#1B449B;}
	.st4{fill:url(#SVGID_3_);}
	.st5{fill:url(#SVGID_4_);}
	.st6{fill:url(#SVGID_5_);}
	.st7{fill:url(#SVGID_6_);}
	.st8{fill:url(#SVGID_7_);}
	.st9{fill:url(#SVGID_8_);}
	.st10{fill:url(#SVGID_9_);}
	.st11{opacity:0.5608;fill:url(#SVGID_10_);}
	.st12{fill:url(#SVGID_11_);}
	.st13{fill:url(#SVGID_12_);}
	.st14{fill:url(#SVGID_13_);}
	.st15{fill:#CADCEA;}
	.st16{opacity:0.5608;fill:url(#SVGID_14_);}
	.st17{opacity:0.5608;fill:url(#SVGID_15_);}
	.st18{opacity:0.5608;fill:url(#SVGID_16_);}
	.st19{opacity:0.5608;fill:url(#SVGID_17_);}
	.st20{fill:url(#SVGID_18_);}
	.st21{fill:#456CB4;}
	.st22{fill:#1C1E4D;}
	.st23{fill:url(#SVGID_19_);}
	.st24{fill:#5C99D2;}
	.st25{fill:#F0C5A1;}
	.st26{fill:#FAF7FB;}
	.st27{fill:#FFFFFF;}
	.st28{fill:url(#SVGID_20_);}
	.st29{fill:url(#SVGID_21_);}
	.st30{fill:url(#SVGID_22_);}
	.st31{fill:url(#SVGID_23_);}
	.st32{fill:url(#SVGID_24_);}
	.st33{fill:url(#SVGID_25_);}
	.st34{fill:url(#SVGID_26_);}
	.st35{fill:url(#SVGID_27_);}
	.st36{fill:url(#SVGID_28_);}
	.st37{opacity:0.8078;fill:#D5EEF4;}
	.st38{fill:url(#SVGID_29_);}
	.st39{fill:url(#SVGID_30_);}
	.st40{opacity:0.5608;fill:url(#SVGID_31_);}
	.st41{fill:#262A62;}
	.st42{fill:url(#SVGID_32_);}
	.st43{fill:url(#SVGID_33_);}
	.st44{fill:url(#SVGID_34_);}
	.st45{fill:url(#SVGID_35_);}
	.st46{fill:url(#SVGID_36_);}
	.st47{fill:url(#SVGID_37_);}
	.st48{opacity:0.5608;fill:url(#SVGID_38_);}
	.st49{fill:url(#SVGID_39_);}
	.st50{fill:url(#SVGID_40_);}
	.st51{fill:url(#SVGID_41_);}
	.st52{fill:url(#SVGID_42_);}
	.st53{fill:url(#SVGID_43_);}
	.st54{fill:#212E55;}
	.st55{fill:url(#SVGID_44_);}
	.st56{fill:#395EA1;}
	.st57{opacity:0.3;}
	.st58{opacity:0.5608;fill:url(#SVGID_45_);}
	.st59{fill:url(#SVGID_46_);}
	.st60{opacity:0.5608;fill:url(#SVGID_47_);}
	.st61{fill:url(#SVGID_48_);}
	.st62{fill:url(#SVGID_49_);}
	.st63{fill:url(#SVGID_50_);}
	.st64{opacity:0.4;fill:#5C99D2;}
	.st65{fill:#24285F;}
	.st66{fill:#FDFEFB;}
	.st67{opacity:0.6;}
	.st68{fill:url(#SVGID_51_);}
</style>
<g>
	<g>
		<g>
			<g class="st0">
				<g>
					<linearGradient id="SVGID_1_" gradientUnits="userSpaceOnUse" x1="323.7515" y1="323.0367" x2="313.7684" y2="351.2647">
						<stop  offset="0" style="stop-color:#A5D9F3"/>
						<stop  offset="1" style="stop-color:#528BC9"/>
					</linearGradient>
					<polygon class="st1" points="350.16,337.17 318.82,355.36 287.35,337.17 318.82,318.98 					"/>
				</g>
				<linearGradient id="SVGID_2_" gradientUnits="userSpaceOnUse" x1="318.8206" y1="653.417" x2="350.1561" y2="653.417">
					<stop  offset="0" style="stop-color:#0B62A3"/>
					<stop  offset="1" style="stop-color:#3189C9"/>
				</linearGradient>
				<polygon class="st2" points="350.16,337.17 350.16,951.47 318.82,969.66 318.82,355.36 				"/>
				<polygon class="st3" points="318.82,355.36 318.82,969.66 287.35,951.47 287.35,337.17 				"/>
			</g>
		</g>
		<linearGradient id="SVGID_3_" gradientUnits="userSpaceOnUse" x1="320.095" y1="434.1985" x2="317.8016" y2="793.1069">
			<stop  offset="0" style="stop-color:#4974B9;stop-opacity:0"/>
			<stop  offset="0.0605" style="stop-color:#4974B9;stop-opacity:0.0745"/>
			<stop  offset="0.812" style="stop-color:#4974B9"/>
		</linearGradient>
		<polygon class="st4" points="318.82,318.98 287.35,337.17 287.35,951.47 318.82,969.66 350.16,951.47 350.16,337.17 		"/>
	</g>
	<g>
		<g>
			<g class="st0">
				<g>
					<linearGradient id="SVGID_4_" gradientUnits="userSpaceOnUse" x1="281.2667" y1="453.1508" x2="274.5887" y2="472.0335">
						<stop  offset="0" style="stop-color:#A5D9F3"/>
						<stop  offset="1" style="stop-color:#528BC9"/>
					</linearGradient>
					<polygon class="st5" points="298.93,462.61 277.97,474.77 256.92,462.61 277.97,450.44 					"/>
				</g>
				<linearGradient id="SVGID_5_" gradientUnits="userSpaceOnUse" x1="277.9683" y1="674.1536" x2="298.9297" y2="674.1536">
					<stop  offset="0" style="stop-color:#0B62A3"/>
					<stop  offset="1" style="stop-color:#3189C9"/>
				</linearGradient>
				<polygon class="st6" points="298.93,462.61 298.93,873.53 277.97,885.7 277.97,474.77 				"/>
				<polygon class="st3" points="277.97,474.77 277.97,885.7 256.92,873.53 256.92,462.61 				"/>
			</g>
		</g>
		<linearGradient id="SVGID_6_" gradientUnits="userSpaceOnUse" x1="278.8208" y1="527.5107" x2="277.2867" y2="767.597">
			<stop  offset="0" style="stop-color:#436AB3;stop-opacity:0"/>
			<stop  offset="0.8165" style="stop-color:#436CB4"/>
		</linearGradient>
		<polygon class="st7" points="277.97,450.44 256.92,462.61 256.92,873.53 277.97,885.7 298.93,873.53 298.93,462.61 		"/>
	</g>
	<g>
		<g>
			<g class="st0">
				<g>
					<linearGradient id="SVGID_7_" gradientUnits="userSpaceOnUse" x1="396.2706" y1="434.2835" x2="390.0025" y2="452.007">
						<stop  offset="0" style="stop-color:#A5D9F3"/>
						<stop  offset="1" style="stop-color:#528BC9"/>
					</linearGradient>
					<polygon class="st8" points="412.85,443.16 393.17,454.58 373.41,443.16 393.17,431.74 					"/>
				</g>
				<linearGradient id="SVGID_8_" gradientUnits="userSpaceOnUse" x1="393.1747" y1="641.7193" x2="412.8492" y2="641.7193">
					<stop  offset="0" style="stop-color:#0B62A3"/>
					<stop  offset="1" style="stop-color:#3189C9"/>
				</linearGradient>
				<polygon class="st9" points="412.85,443.16 412.85,828.86 393.17,840.28 393.17,454.58 				"/>
				<polygon class="st3" points="393.17,454.58 393.17,840.28 373.41,828.86 373.41,443.16 				"/>
			</g>
		</g>
		<linearGradient id="SVGID_9_" gradientUnits="userSpaceOnUse" x1="393.9748" y1="504.0786" x2="392.5349" y2="729.4264">
			<stop  offset="0" style="stop-color:#4974B9;stop-opacity:0"/>
			<stop  offset="0.0605" style="stop-color:#4974B9;stop-opacity:0.0745"/>
			<stop  offset="0.812" style="stop-color:#4974B9"/>
		</linearGradient>
		<polygon class="st10" points="393.17,431.74 373.41,443.16 373.41,828.86 393.17,840.28 412.85,828.86 412.85,443.16 		"/>
	</g>
	<g>
		<g>
			<linearGradient id="SVGID_10_" gradientUnits="userSpaceOnUse" x1="836.1867" y1="145.4514" x2="830.4149" y2="972.8157">
				<stop  offset="0.0373" style="stop-color:#C3E7ED;stop-opacity:0"/>
				<stop  offset="0.6689" style="stop-color:#D4EEF3;stop-opacity:0.656"/>
				<stop  offset="1" style="stop-color:#E0F2F8"/>
			</linearGradient>
			<polygon class="st11" points="422.3,54.15 422.3,956.55 834.57,1194.83 1245.05,956.55 1245.05,54.14 			"/>
			<g>
				<g class="st0">
					<g>
						<linearGradient id="SVGID_11_" gradientUnits="userSpaceOnUse" x1="899.1642" y1="377.1289" x2="768.3903" y2="746.9028">
							<stop  offset="0" style="stop-color:#A5D9F3"/>
							<stop  offset="1" style="stop-color:#528BC9"/>
						</linearGradient>
						<polygon class="st12" points="1245.05,562.3 834.57,800.59 422.3,562.3 834.57,324.02 						"/>
					</g>
					<linearGradient id="SVGID_12_" gradientUnits="userSpaceOnUse" x1="834.5701" y1="979.7472" x2="1245.0527" y2="979.7472">
						<stop  offset="0" style="stop-color:#0B62A3"/>
						<stop  offset="1" style="stop-color:#3189C9"/>
					</linearGradient>
					<polygon class="st13" points="1245.05,562.3 1245.05,1158.91 834.57,1397.19 834.57,800.59 					"/>
					<linearGradient id="SVGID_13_" gradientUnits="userSpaceOnUse" x1="422.299" y1="979.749" x2="834.5701" y2="979.749">
						<stop  offset="0" style="stop-color:#0B62A3"/>
						<stop  offset="1" style="stop-color:#3189C9"/>
					</linearGradient>
					<polygon class="st14" points="834.57,800.59 834.57,1397.19 422.3,1158.91 422.3,562.3 					"/>
				</g>
			</g>
			<polygon class="st15" points="834.57,845.69 1245.05,607.4 1245.05,603.33 834.57,841.62 			"/>
			<polygon class="st15" points="422.3,607.41 834.57,845.69 834.57,841.62 422.3,603.34 			"/>
		</g>
		<g>
			<linearGradient id="SVGID_14_" gradientUnits="userSpaceOnUse" x1="834.0729" y1="260.1523" x2="833.1805" y2="355.6343">
				<stop  offset="0.0373" style="stop-color:#C3E7ED;stop-opacity:0"/>
				<stop  offset="0.6689" style="stop-color:#D4EEF3;stop-opacity:0.656"/>
				<stop  offset="1" style="stop-color:#E0F2F8"/>
			</linearGradient>
			<polygon class="st16" points="801.64,243.99 817.93,359.9 835.28,369.92 852.51,359.9 866.81,243.99 			"/>
			<polygon class="st3" points="817.93,359.9 835.16,349.89 852.51,359.9 835.28,369.92 			"/>
			<linearGradient id="SVGID_15_" gradientUnits="userSpaceOnUse" x1="480.712" y1="463.8061" x2="479.8196" y2="559.2883">
				<stop  offset="0.0373" style="stop-color:#C3E7ED;stop-opacity:0"/>
				<stop  offset="0.6689" style="stop-color:#D4EEF3;stop-opacity:0.656"/>
				<stop  offset="1" style="stop-color:#E0F2F8"/>
			</linearGradient>
			<polygon class="st17" points="448.28,447.64 464.57,563.56 481.92,573.57 499.15,563.56 513.45,447.64 			"/>
			<polygon class="st3" points="464.57,563.56 481.8,553.54 499.15,563.56 481.92,573.57 			"/>
			<linearGradient id="SVGID_16_" gradientUnits="userSpaceOnUse" x1="1193.5009" y1="463.8061" x2="1192.6084" y2="559.2883">
				<stop  offset="0.0373" style="stop-color:#C3E7ED;stop-opacity:0"/>
				<stop  offset="0.6689" style="stop-color:#D4EEF3;stop-opacity:0.656"/>
				<stop  offset="1" style="stop-color:#E0F2F8"/>
			</linearGradient>
			<polygon class="st18" points="1161.07,447.64 1177.36,563.56 1194.7,573.57 1211.94,563.56 1226.24,447.64 			"/>
			<polygon class="st3" points="1177.36,563.56 1194.59,553.54 1211.94,563.56 1194.7,573.57 			"/>
			<linearGradient id="SVGID_17_" gradientUnits="userSpaceOnUse" x1="834.0729" y1="663.3871" x2="833.1805" y2="758.8693">
				<stop  offset="0.0373" style="stop-color:#C3E7ED;stop-opacity:0"/>
				<stop  offset="0.6689" style="stop-color:#D4EEF3;stop-opacity:0.656"/>
				<stop  offset="1" style="stop-color:#E0F2F8"/>
			</linearGradient>
			<polygon class="st19" points="801.64,647.22 817.93,763.14 835.28,773.15 852.51,763.14 866.81,647.22 			"/>
			<polygon class="st3" points="817.93,763.14 835.16,753.12 852.51,763.14 835.28,773.15 			"/>
		</g>
		<g>
			<g>
				<linearGradient id="SVGID_18_" gradientUnits="userSpaceOnUse" x1="604.0075" y1="546.6472" x2="1076.557" y2="546.6472">
					<stop  offset="0" style="stop-color:#0B62A3"/>
					<stop  offset="1" style="stop-color:#3189C9"/>
				</linearGradient>
				<path class="st20" d="M893.48,411.21c3.03-1.75,7.89-1.75,10.9,0l169.92,98.75c3.01,1.75,3.02,4.58-0.01,6.33L787.1,682.09
					c-3.03,1.75-7.91,1.73-10.92-0.01l-169.92-98.75c-3.01-1.75-2.99-4.56,0.04-6.31L893.48,411.21z"/>
				<path class="st15" d="M900.68,443.18c-0.71,0.41-1.89,0.41-2.6,0l-11.87-6.9c-0.71-0.41-0.71-1.09,0.01-1.51l11.94-6.9
					c0.71-0.41,1.89-0.41,2.6,0l11.87,6.9c0.71,0.41,0.71,1.09-0.01,1.51L900.68,443.18z M895.46,446.2
					c0.71-0.41,0.72-1.09,0.01-1.51l-11.86-6.9c-0.71-0.41-1.89-0.41-2.6,0l-11.94,6.9c-0.71,0.41-0.72,1.09-0.01,1.51l11.87,6.89
					c0.71,0.41,1.89,0.41,2.6,0L895.46,446.2z M878.28,456.12c0.74-0.43,0.72-1.09,0.01-1.51l-11.86-6.89
					c-0.71-0.41-1.86-0.43-2.6,0l-11.92,6.88c-0.74,0.43-0.72,1.09-0.01,1.51l11.86,6.89c0.71,0.41,1.86,0.43,2.6,0L878.28,456.12z
					 M946.73,456.11c0.71-0.41,0.72-1.09,0.01-1.51l-11.86-6.89c-0.71-0.41-1.89-0.41-2.6,0l-11.94,6.89
					c-0.71,0.41-0.72,1.09-0.01,1.51l11.86,6.9c0.71,0.41,1.89,0.41,2.6,0L946.73,456.11z M889.76,469.24l11.92-6.88
					c0.74-0.43,0.72-1.09,0.01-1.51l-11.86-6.9c-0.71-0.41-1.86-0.43-2.6,0l-11.92,6.88c-0.74,0.43-0.74,1.11-0.03,1.52l11.87,6.9
					C887.85,469.67,889.02,469.67,889.76,469.24z M917.71,457.61c-0.71-0.41-1.89-0.41-2.6,0l-11.94,6.89
					c-0.71,0.41-0.72,1.09-0.01,1.51l11.86,6.9c0.71,0.41,1.89,0.41,2.6,0l11.94-6.9c0.71-0.41,0.72-1.09,0.01-1.51L917.71,457.61z
					 M843.95,475.94c0.71-0.41,0.72-1.09,0.01-1.51l-11.86-6.89c-0.71-0.41-1.89-0.41-2.6,0l-11.94,6.89
					c-0.71,0.41-0.72,1.09-0.01,1.51l11.86,6.9c0.71,0.41,1.89,0.41,2.6,0L843.95,475.94z M855.41,489.07l11.94-6.89
					c0.71-0.41,0.72-1.09,0.01-1.51l-11.86-6.9c-0.71-0.41-1.89-0.41-2.6,0l-11.94,6.9c-0.71,0.41-0.72,1.09-0.01,1.51l11.86,6.89
					C853.52,489.49,854.7,489.49,855.41,489.07z M826.79,485.85c0.71-0.41,0.72-1.1,0.01-1.51l-11.86-6.89
					c-0.71-0.41-1.89-0.41-2.6,0l-11.94,6.89c-0.71,0.41-0.72,1.09-0.01,1.51l11.86,6.9c0.71,0.41,1.89,0.41,2.6,0L826.79,485.85z
					 M880.67,492.74c0.71,0.41,1.89,0.41,2.6,0l11.94-6.89c0.71-0.41,0.72-1.1,0.01-1.51l-11.86-6.89c-0.71-0.41-1.89-0.41-2.6,0
					l-11.94,6.89c-0.71,0.41-0.72,1.09-0.01,1.51L880.67,492.74z M823.79,490.58c-0.71,0.41-0.72,1.09-0.01,1.51l11.86,6.89
					c0.71,0.41,1.89,0.41,2.6,0l11.94-6.89c0.71-0.41,0.72-1.09,0.01-1.51l-11.87-6.9c-0.71-0.41-1.89-0.41-2.6,0L823.79,490.58z
					 M809.63,495.76c0.71-0.41,0.72-1.09,0.01-1.51l-11.87-6.9c-0.71-0.41-1.89-0.41-2.6,0l-11.94,6.89
					c-0.71,0.41-0.72,1.09-0.01,1.51l11.86,6.9c0.71,0.41,1.89,0.41,2.6,0L809.63,495.76z M863.51,502.65c0.71,0.41,1.89,0.41,2.6,0
					l11.94-6.9c0.71-0.41,0.72-1.09,0.01-1.51l-11.86-6.89c-0.71-0.41-1.89-0.41-2.6,0l-11.94,6.9c-0.71,0.41-0.72,1.09-0.01,1.51
					L863.51,502.65z M957.64,501.87c-0.74,0.43-0.72,1.09-0.01,1.51l3.55,2.06c0.71,0.41,1.86,0.43,2.6,0l14.26-8.23
					c0.71-0.41,0.72-1.09,0.01-1.51l-3.55-2.06c-0.71-0.41-1.89-0.41-2.6,0L957.64,501.87z M806.63,500.49
					c-0.74,0.43-0.72,1.09-0.01,1.51l11.86,6.9c0.71,0.41,1.86,0.43,2.6,0l11.92-6.88c0.74-0.43,0.72-1.09,0.01-1.51l-11.86-6.89
					c-0.71-0.41-1.86-0.43-2.6,0L806.63,500.49z M849.03,497.26c-0.71-0.41-1.89-0.41-2.6,0l-11.94,6.89
					c-0.71,0.41-0.72,1.1-0.01,1.51l11.86,6.89c0.71,0.41,1.89,0.41,2.6,0l11.94-6.89c0.71-0.41,0.72-1.09,0.01-1.51L849.03,497.26z
					 M789.47,510.4c-0.74,0.43-0.72,1.09-0.01,1.51l11.86,6.9c0.71,0.41,1.86,0.43,2.6,0l11.92-6.88c0.74-0.43,0.72-1.09,0.01-1.51
					l-11.87-6.89c-0.71-0.41-1.86-0.43-2.6,0L789.47,510.4z M881.46,513.54c0.71-0.41,0.74-1.08,0.01-1.51l-11.84-6.88
					c-0.73-0.43-1.89-0.41-2.6,0l-11.94,6.89c-0.71,0.41-0.74,1.08-0.01,1.51l11.84,6.88c0.73,0.43,1.89,0.41,2.6,0L881.46,513.54z
					 M775.28,515.59c0.71-0.41,0.72-1.1,0.01-1.51l-11.87-6.89c-0.71-0.41-1.89-0.41-2.6,0l-11.92,6.88
					c-0.74,0.43-0.74,1.11-0.03,1.52l11.86,6.89c0.71,0.41,1.89,0.41,2.63-0.01L775.28,515.59z M772.28,520.32
					c-0.71,0.41-0.72,1.09-0.01,1.51l11.86,6.9c0.71,0.41,1.89,0.41,2.6,0l11.94-6.9c0.71-0.41,0.72-1.09,0.01-1.51l-11.86-6.9
					c-0.71-0.41-1.89-0.41-2.6,0L772.28,520.32z M849.76,530.34c0.73,0.43,1.89,0.41,2.6,0l11.94-6.9c0.71-0.41,0.74-1.08,0.01-1.51
					l-11.84-6.88c-0.73-0.43-1.89-0.41-2.6,0l-11.94,6.9c-0.71,0.41-0.74,1.08-0.01,1.51L849.76,530.34z M758.11,525.5
					c0.71-0.41,0.72-1.09,0.01-1.51l-11.86-6.9c-0.71-0.41-1.89-0.41-2.6,0l-11.94,6.89c-0.71,0.41-0.72,1.09-0.01,1.51l11.86,6.89
					c0.71,0.41,1.89,0.41,2.6,0L758.11,525.5z M814.71,517.08c-0.71-0.41-1.89-0.41-2.63,0.01l-11.92,6.88
					c-0.74,0.43-0.72,1.09-0.01,1.51l11.86,6.89c0.71,0.41,1.86,0.43,2.6,0l11.92-6.88c0.74-0.43,0.74-1.11,0.03-1.52L814.71,517.08
					z M755.12,530.23c-0.71,0.41-0.72,1.09-0.01,1.51l11.87,6.9c0.71,0.41,1.89,0.41,2.6,0l11.94-6.9c0.71-0.41,0.72-1.09,0.01-1.51
					l-11.86-6.9c-0.71-0.41-1.89-0.41-2.6,0L755.12,530.23z M891.82,530.34c-0.74,0.43-0.72,1.1-0.01,1.51l11.86,6.89
					c0.71,0.41,1.86,0.43,2.6,0l15.41-8.9c0.71-0.41,0.72-1.09,0.01-1.51l-11.87-6.9c-0.71-0.41-1.89-0.41-2.6,0L891.82,530.34z
					 M797.52,527c-0.71-0.41-1.89-0.41-2.6,0L783,533.88c-0.74,0.43-0.74,1.11-0.03,1.52l11.86,6.9c0.71,0.41,1.89,0.41,2.63-0.01
					l11.92-6.88c0.71-0.41,0.72-1.09,0.01-1.51L797.52,527z M872.93,538.25c0.71-0.41,0.72-1.09-0.02-1.52l-11.84-6.88
					c-0.73-0.43-1.89-0.41-2.6,0l-11.94,6.89c-0.71,0.41-0.74,1.08-0.01,1.51l11.84,6.88c0.73,0.43,1.91,0.43,2.63,0.01
					L872.93,538.25z M737.95,540.14c-0.71,0.41-0.72,1.09-0.01,1.51l11.86,6.9c0.71,0.41,1.89,0.41,2.6,0l11.94-6.9
					c0.71-0.41,0.72-1.09,0.01-1.51l-11.86-6.89c-0.71-0.41-1.89-0.41-2.6,0L737.95,540.14z M723.79,545.31
					c0.71-0.41,0.72-1.1,0.01-1.51l-11.86-6.9c-0.71-0.41-1.89-0.41-2.6,0l-11.94,6.89c-0.71,0.41-0.72,1.1-0.01,1.51l11.86,6.89
					c0.71,0.41,1.89,0.41,2.6,0L723.79,545.31z M780.36,536.91c-0.71-0.41-1.89-0.41-2.6,0l-11.94,6.9
					c-0.71,0.41-0.72,1.09-0.01,1.51l11.86,6.9c0.71,0.41,1.89,0.41,2.6,0l11.94-6.9c0.71-0.41,0.72-1.09,0.01-1.51L780.36,536.91z
					 M735.25,558.45l11.92-6.88c0.74-0.43,0.74-1.11,0.03-1.52l-11.86-6.9c-0.71-0.41-1.89-0.41-2.63,0.01l-11.92,6.88
					c-0.71,0.41-0.72,1.09-0.01,1.51l11.86,6.9C733.36,558.86,734.53,558.86,735.25,558.45z M706.6,555.24
					c0.74-0.43,0.74-1.11,0.03-1.52l-11.86-6.9c-0.71-0.41-1.89-0.41-2.63,0.01l-11.92,6.88c-0.74,0.43-0.72,1.09-0.01,1.51
					l11.86,6.9c0.71,0.41,1.86,0.43,2.6,0L706.6,555.24z M763.2,546.82c-0.71-0.41-1.89-0.41-2.6,0l-11.94,6.9
					c-0.71,0.41-0.72,1.09-0.01,1.51l11.86,6.9c0.71,0.41,1.89,0.41,2.6,0l11.94-6.89c0.71-0.41,0.72-1.09,0.01-1.51L763.2,546.82z
					 M838.6,558.07c0.71-0.41,0.72-1.09-0.02-1.52l-11.84-6.88c-0.73-0.43-1.89-0.41-2.6,0l-11.94,6.89
					c-0.71,0.41-0.74,1.08-0.01,1.51l11.84,6.88c0.73,0.43,1.91,0.43,2.63,0.01L838.6,558.07z M703.63,559.96
					c-0.74,0.43-0.72,1.09-0.01,1.51l11.87,6.9c0.71,0.41,1.86,0.43,2.6,0l11.92-6.88c0.74-0.43,0.72-1.09,0.01-1.51l-11.87-6.9
					c-0.71-0.41-1.86-0.43-2.6,0L703.63,559.96z M743.35,572.03c0.71,0.41,1.89,0.41,2.6,0l11.94-6.9c0.71-0.41,0.72-1.09,0.01-1.51
					l-11.86-6.9c-0.71-0.41-1.89-0.41-2.6,0l-11.94,6.9c-0.71,0.41-0.72,1.09-0.01,1.51L743.35,572.03z M728.87,566.64
					c-0.71-0.41-1.89-0.41-2.63,0.01l-11.92,6.88c-0.74,0.43-0.72,1.09-0.01,1.51l11.86,6.9c0.71,0.41,1.86,0.43,2.6,0l11.92-6.88
					c0.74-0.43,0.74-1.11,0.03-1.52L728.87,566.64z M804.25,577.9c0.74-0.43,0.72-1.09-0.02-1.52l-11.84-6.88
					c-0.73-0.43-1.86-0.43-2.6,0l-11.92,6.88c-0.74,0.43-0.77,1.09-0.03,1.52l11.84,6.88c0.73,0.43,1.91,0.43,2.65,0L804.25,577.9z
					 M635.06,579.79c-0.71,0.41-0.72,1.09-0.01,1.51l11.86,6.9c0.71,0.41,1.89,0.41,2.6,0l22.75-13.14
					c0.71-0.41,0.72-1.09,0.01-1.51l-11.86-6.9c-0.71-0.41-1.89-0.41-2.6,0L635.06,579.79z M709,591.86
					c0.71,0.41,1.89,0.41,2.63-0.01l11.92-6.88c0.71-0.41,0.72-1.09,0.01-1.51l-11.86-6.9c-0.71-0.41-1.89-0.41-2.6,0l-11.92,6.88
					c-0.74,0.43-0.74,1.11-0.03,1.52L709,591.86z M792.52,587.68c-0.74,0.43-0.74,1.11-0.03,1.52l11.86,6.9
					c0.71,0.41,1.89,0.41,2.63-0.01l94.06-54.31c0.71-0.41,0.72-1.09,0.01-1.51l-11.86-6.9c-0.71-0.41-1.89-0.41-2.6,0
					L792.52,587.68z M652.11,589.7c-0.71,0.41-0.72,1.09-0.01,1.51l11.86,6.9c0.71,0.41,1.89,0.41,2.6,0l11.94-6.9
					c0.71-0.41,0.72-1.09,0.01-1.51l-11.87-6.89c-0.71-0.41-1.89-0.41-2.6,0L652.11,589.7z M729.59,599.72
					c0.73,0.43,1.89,0.41,2.6,0l11.92-6.88c0.74-0.43,0.77-1.09,0.03-1.52l-11.84-6.88c-0.73-0.43-1.89-0.41-2.63,0.01l-11.92,6.88
					c-0.71,0.41-0.74,1.08-0.01,1.51L729.59,599.72z M769.93,597.72c0.71-0.41,0.72-1.09-0.02-1.52l-11.84-6.88
					c-0.73-0.43-1.89-0.41-2.6,0l-11.94,6.9c-0.71,0.41-0.74,1.08-0.01,1.51l11.84,6.88c0.73,0.43,1.91,0.43,2.63,0.01
					L769.93,597.72z M669.17,599.61c-0.71,0.41-0.72,1.09-0.01,1.51l11.86,6.9c0.71,0.41,1.89,0.41,2.6,0l22.75-13.14
					c0.71-0.41,0.72-1.09,0.01-1.51l-11.86-6.89c-0.71-0.41-1.89-0.41-2.6,0L669.17,599.61z M771.86,599.61
					c-0.74,0.43-0.72,1.09-0.01,1.51l11.87,6.89c0.71,0.41,1.86,0.43,2.6,0l15.41-8.9c0.71-0.41,0.72-1.09,0.01-1.51l-11.86-6.9
					c-0.71-0.41-1.89-0.41-2.6,0L771.86,599.61z M703.29,619.44c-0.71,0.41-0.74,1.08-0.01,1.51l11.84,6.88
					c0.73,0.43,1.91,0.43,2.63,0.01l35.01-20.22c0.71-0.41,0.72-1.09-0.02-1.52l-11.84-6.88c-0.73-0.43-1.89-0.41-2.6,0
					L703.29,619.44z M737.51,619.44c-0.71,0.41-0.72,1.09-0.01,1.51l11.87,6.9c0.71,0.41,1.89,0.41,2.6,0l11.94-6.9
					c0.71-0.41,0.72-1.09,0.01-1.51l-11.86-6.89c-0.71-0.41-1.89-0.41-2.6,0L737.51,619.44z M929.68,446.2
					c0.71-0.41,0.72-1.09,0.01-1.51l-11.86-6.9c-0.71-0.41-1.89-0.41-2.6,0l-22.75,13.14c-0.74,0.43-0.72,1.09-0.01,1.51l11.86,6.89
					c0.71,0.41,1.86,0.43,2.6,0L929.68,446.2z M861.11,466.03c0.71-0.41,0.72-1.09,0.01-1.51l-11.87-6.89
					c-0.71-0.41-1.89-0.41-2.6,0l-11.94,6.89c-0.71,0.41-0.72,1.09-0.01,1.51l11.87,6.9c0.71,0.41,1.89,0.41,2.6,0L861.11,466.03z
					 M872.58,479.16l11.94-6.89c0.71-0.41,0.72-1.09,0.01-1.51l-11.86-6.9c-0.71-0.41-1.89-0.41-2.6,0l-11.94,6.9
					c-0.71,0.41-0.72,1.09-0.01,1.51l11.86,6.89C870.68,479.58,871.86,479.58,872.58,479.16z M963.78,466.01
					c0.71-0.41,0.74-1.08,0.01-1.51l-11.84-6.88c-0.73-0.43-1.89-0.41-2.6,0l-25.58,14.77c-0.71,0.41-0.74,1.08-0.01,1.51
					l11.84,6.88c0.73,0.43,1.89,0.41,2.6,0L963.78,466.01z M897.86,482.82c0.71,0.41,1.86,0.43,2.6,0l11.92-6.88
					c0.74-0.43,0.72-1.09,0.01-1.51l-11.86-6.89c-0.71-0.41-1.86-0.43-2.6,0L886,474.42c-0.74,0.43-0.72,1.09-0.01,1.51
					L897.86,482.82z M932.98,483.8c0.71-0.41,0.74-1.08,0.01-1.51l-11.84-6.88c-0.73-0.43-1.89-0.41-2.6,0l-11.94,6.9
					c-0.71,0.41-0.74,1.08-0.01,1.51l11.84,6.88c0.73,0.43,1.89,0.41,2.6,0L932.98,483.8z M932.37,487.18
					c-0.71,0.41-0.74,1.08-0.01,1.51l11.79,6.85c0.71,0.41,1.89,0.41,2.6,0l34.03-19.65c0.71-0.41,0.72-1.09,0.01-1.51L969,467.54
					c-0.73-0.43-1.89-0.41-2.6,0L932.37,487.18z M915.79,493.72c0.74-0.43,0.74-1.08,0.01-1.51l-11.84-6.88
					c-0.73-0.43-1.86-0.43-2.6,0l-11.92,6.88c-0.74,0.43-0.74,1.08-0.01,1.51l11.84,6.88c0.73,0.43,1.86,0.43,2.6,0L915.79,493.72z
					 M949.54,497.16c-0.74,0.43-0.72,1.09-0.01,1.51l3.52,2.05c0.73,0.43,1.89,0.44,2.63,0.01l14.26-8.23
					c0.71-0.41,0.72-1.09-0.02-1.52l-3.52-2.05c-0.71-0.41-1.89-0.41-2.6,0L949.54,497.16z M937.97,513.17
					c-0.74,0.43-0.72,1.09-0.01,1.51l3.52,2.05c0.73,0.43,1.89,0.44,2.63,0.01l14.26-8.23c0.71-0.41,0.72-1.09-0.02-1.52l-3.52-2.05
					c-0.71-0.41-1.89-0.41-2.6,0L937.97,513.17z M977.32,490.51c-0.74,0.43-0.72,1.09-0.01,1.51l3.52,2.05
					c0.73,0.43,1.89,0.44,2.63,0.01l14.26-8.23c0.71-0.41,0.72-1.09-0.02-1.52l-3.52-2.05c-0.71-0.41-1.89-0.41-2.6,0L977.32,490.51
					z M941.53,498.56c0.71-0.41,0.72-1.09,0.01-1.51l-11.79-6.85c-0.73-0.43-1.89-0.41-2.6,0l-11.94,6.9
					c-0.71,0.41-0.74,1.08-0.01,1.51l11.79,6.85c0.71,0.41,1.89,0.41,2.6,0L941.53,498.56z M898.63,503.63
					c0.71-0.41,0.74-1.08,0.01-1.51l-11.84-6.88c-0.73-0.43-1.89-0.41-2.6,0l-11.92,6.88c-0.74,0.43-0.77,1.09-0.03,1.52l11.84,6.88
					c0.73,0.43,1.89,0.41,2.63-0.01L898.63,503.63z M792.44,505.68c0.74-0.43,0.74-1.11,0.03-1.52l-11.87-6.89
					c-0.71-0.41-1.89-0.41-2.63,0.01l-11.92,6.88c-0.74,0.43-0.72,1.09-0.01,1.51l11.87,6.9c0.71,0.41,1.86,0.43,2.6,0
					L792.44,505.68z M909.87,515.39c0.73,0.43,1.91,0.43,2.63,0.01l11.52-6.65l0.35-0.28c0.71-0.41,0.72-1.09,0.01-1.51l-11.79-6.85
					c-0.73-0.43-1.89-0.41-2.6,0l-11.94,6.9c-0.71,0.41-0.74,1.08-0.01,1.51L909.87,515.39z M831.87,507.17
					c-0.71-0.41-1.89-0.41-2.6,0l-11.94,6.89c-0.71,0.41-0.72,1.09-0.01,1.51l11.86,6.89c0.71,0.41,1.89,0.41,2.6,0l11.94-6.89
					c0.71-0.41,0.72-1.09,0.01-1.51L831.87,507.17z M892.71,525.3c0.73,0.43,1.89,0.44,2.63,0.01l11.92-6.88
					c0.74-0.43,0.74-1.11,0.01-1.54l-11.84-6.88c-0.73-0.43-1.89-0.41-2.63,0.01l-11.92,6.88c-0.74,0.43-0.74,1.08-0.01,1.51
					L892.71,525.3z M912.48,518.42c-0.74,0.43-0.72,1.09-0.01,1.51l11.86,6.89c0.71,0.41,1.86,0.43,2.6,0l11.82-6.82
					c0.74-0.43,0.74-1.11,0.03-1.52l-11.87-6.89c-0.71-0.41-1.89-0.41-2.63,0.01L912.48,518.42z M890.09,528.34
					c0.74-0.43,0.72-1.09-0.02-1.52l-11.84-6.88c-0.73-0.43-1.86-0.43-2.6,0l-11.92,6.88c-0.74,0.43-0.77,1.09-0.03,1.52l11.84,6.88
					c0.73,0.43,1.91,0.43,2.65,0L890.09,528.34z M832.59,540.25c0.73,0.43,1.89,0.41,2.6,0l11.94-6.89
					c0.71-0.41,0.74-1.08,0.01-1.51l-11.84-6.88c-0.73-0.43-1.89-0.41-2.6,0l-11.94,6.9c-0.71,0.41-0.74,1.08-0.01,1.51
					L832.59,540.25z M740.95,535.41c0.71-0.41,0.72-1.09,0.01-1.51L729.09,527c-0.71-0.41-1.89-0.41-2.6,0l-11.94,6.89
					c-0.71,0.41-0.72,1.09-0.01,1.51l11.87,6.89c0.71,0.41,1.89,0.41,2.6,0L740.95,535.41z M815.43,550.16
					c0.73,0.43,1.89,0.41,2.6,0l11.92-6.88c0.74-0.43,0.77-1.09,0.03-1.52l-11.84-6.88c-0.73-0.43-1.89-0.41-2.63,0.01l-11.92,6.88
					c-0.71,0.41-0.74,1.08-0.01,1.51L815.43,550.16z M855.77,548.16c0.71-0.41,0.72-1.09-0.02-1.52l-11.84-6.88
					c-0.73-0.43-1.89-0.41-2.6,0l-11.94,6.89c-0.71,0.41-0.74,1.08-0.01,1.51l11.84,6.88c0.73,0.43,1.91,0.43,2.63,0.01
					L855.77,548.16z M798.24,560.09c0.73,0.43,1.89,0.41,2.63-0.01l11.92-6.88c0.74-0.43,0.74-1.08,0.01-1.51l-11.84-6.88
					c-0.73-0.43-1.86-0.43-2.6,0l-11.92,6.88c-0.74,0.43-0.77,1.09-0.03,1.52L798.24,560.09z M781.08,569.99
					c0.73,0.43,1.89,0.41,2.6,0l11.94-6.9c0.71-0.41,0.74-1.08,0.01-1.51l-11.84-6.88c-0.73-0.43-1.89-0.41-2.6,0l-11.94,6.89
					c-0.71,0.41-0.74,1.08-0.01,1.51L781.08,569.99z M689.44,565.15c0.71-0.41,0.72-1.09,0.01-1.51l-11.86-6.9
					c-0.71-0.41-1.89-0.41-2.6,0l-11.92,6.88c-0.74,0.43-0.74,1.11-0.03,1.52l11.86,6.9c0.71,0.41,1.89,0.41,2.63-0.01
					L689.44,565.15z M821.42,567.99c0.74-0.43,0.74-1.11,0.01-1.54l-11.84-6.88c-0.73-0.43-1.89-0.41-2.63,0.01l-11.92,6.88
					c-0.74,0.43-0.74,1.08-0.01,1.51l11.84,6.88c0.73,0.43,1.89,0.44,2.63,0.01L821.42,567.99z M700.92,578.27l11.92-6.88
					c0.71-0.41,0.72-1.09,0.01-1.51l-11.86-6.9c-0.71-0.41-1.89-0.41-2.6,0l-11.92,6.88c-0.74,0.43-0.74,1.11-0.03,1.52l11.86,6.9
					C699.01,578.69,700.18,578.69,700.92,578.27z M763.92,579.9c0.73,0.43,1.89,0.41,2.6,0l11.94-6.9c0.71-0.41,0.74-1.08,0.01-1.51
					l-11.84-6.88c-0.73-0.43-1.89-0.41-2.6,0l-11.94,6.9c-0.71,0.41-0.74,1.08-0.01,1.51L763.92,579.9z M681.13,588.19
					c0.71,0.41,1.89,0.41,2.6,0l11.94-6.9c0.71-0.41,0.72-1.09,0.01-1.51l-11.86-6.9c-0.71-0.41-1.89-0.41-2.6,0l-11.94,6.89
					c-0.71,0.41-0.72,1.1-0.01,1.51L681.13,588.19z M761.3,582.92c0.71-0.41,0.74-1.08,0.01-1.51l-11.84-6.88
					c-0.73-0.43-1.89-0.41-2.6,0l-11.94,6.89c-0.71,0.41-0.74,1.08-0.01,1.51l11.84,6.88c0.73,0.43,1.89,0.41,2.6,0L761.3,582.92z
					 M772.52,594.69c0.73,0.43,1.91,0.43,2.63,0.01l11.94-6.9c0.71-0.41,0.72-1.09-0.02-1.52l-11.84-6.88
					c-0.73-0.43-1.89-0.41-2.6,0l-11.94,6.89c-0.71,0.41-0.74,1.08-0.01,1.51L772.52,594.69z M686.24,609.53
					c-0.71,0.41-0.74,1.08-0.01,1.51l11.84,6.88c0.73,0.43,1.89,0.41,2.6,0l26.27-15.17c0.74-0.43,0.74-1.08,0.01-1.51l-11.84-6.88
					c-0.73-0.43-1.86-0.43-2.6,0L686.24,609.53z M754.69,609.52c-0.74,0.43-0.74,1.11-0.03,1.52l11.87,6.9
					c0.71,0.41,1.89,0.41,2.63-0.01l11.92-6.88c0.71-0.41,0.72-1.09,0.01-1.51l-11.86-6.9c-0.71-0.41-1.89-0.41-2.6,0L754.69,609.52
					z M803.29,605.78c-1.5,0.87-1.51,2.29-0.02,3.16l35.64,20.71c1.49,0.87,3.95,0.87,5.45,0l64-36.84
					c1.53-0.88,1.51-2.29,0.02-3.16l-35.64-20.71c-1.49-0.87-3.92-0.88-5.45,0L803.29,605.78z M720.34,629.35
					c-0.71,0.41-0.72,1.09-0.01,1.51l11.86,6.9c0.71,0.41,1.89,0.41,2.6,0l11.94-6.9c0.71-0.41,0.72-1.09,0.01-1.51l-11.87-6.89
					c-0.71-0.41-1.89-0.41-2.6,0L720.34,629.35z"/>
				<path class="st21" d="M893.31,207.17c4.53-2.62,8.21-0.52,8.23,4.69l0.57,199.7L603.99,583.68l-0.57-199.7
					c-0.01-5.21,3.64-11.54,8.17-14.16L893.31,207.17z"/>
				<path class="st21" d="M1076.56,513.11c0,1.15-0.75,2.29-2.27,3.17L787.1,682.09c-3.03,1.75-7.91,1.73-10.92-0.01l-169.92-98.75
					c-0.18-0.1-0.31-0.22-0.47-0.33c-0.19-0.14-0.4-0.27-0.56-0.41c-0.24-0.22-0.44-0.44-0.61-0.67c-0.03-0.04-0.06-0.08-0.08-0.12
					c-0.16-0.23-0.28-0.47-0.37-0.72c-0.01-0.03-0.01-0.05-0.02-0.08c-0.08-0.26-0.13-0.53-0.13-0.79l0.04,12.58
					c0,0.02,0,0.04,0,0.07c0,0.15,0.02,0.29,0.05,0.44c0.02,0.1,0.05,0.19,0.08,0.29c0.01,0.03,0.01,0.05,0.02,0.08
					c0.01,0.02,0.01,0.04,0.02,0.07c0.06,0.15,0.12,0.29,0.2,0.44c0.04,0.07,0.1,0.14,0.15,0.22c0.03,0.04,0.05,0.08,0.08,0.13
					c0.03,0.04,0.05,0.08,0.08,0.12c0.14,0.18,0.3,0.35,0.48,0.51c0.02,0.01,0.04,0.03,0.05,0.04c0.16,0.14,0.37,0.28,0.56,0.41
					c0.13,0.09,0.23,0.19,0.37,0.28c0.03,0.02,0.06,0.04,0.09,0.06l169.93,98.75c3.01,1.75,7.89,1.76,10.92,0.01l287.19-165.81
					c1.52-0.88,2.27-2.02,2.27-3.17L1076.56,513.11z"/>
			</g>
			<g>
				<g>
					<polygon class="st15" points="887.89,226.03 888.4,403.72 617.61,560.06 617.11,382.37 					"/>
				</g>
				<polygon class="st22" points="887.91,231.67 887.89,226.03 617.11,382.37 617.12,388 				"/>
				<linearGradient id="SVGID_19_" gradientUnits="userSpaceOnUse" x1="596.8159" y1="392.89" x2="899.1497" y2="392.89">
					<stop  offset="0" style="stop-color:#0B62A3"/>
					<stop  offset="1" style="stop-color:#3189C9"/>
				</linearGradient>
				<path class="st23" d="M895.12,206.37c0.46-0.15,0.91-0.25,1.34-0.29c0.04,0,0.08-0.01,0.12-0.01c0.46-0.04,0.9-0.01,1.32,0.07
					c0.02,0,0.04,0.01,0.07,0.02c0.42,0.09,0.82,0.24,1.18,0.45l-6.6-3.94c-0.01-0.01-0.03-0.02-0.05-0.03
					c-0.13-0.07-0.27-0.14-0.41-0.2c-0.14-0.06-0.28-0.11-0.43-0.15c-0.1-0.03-0.2-0.05-0.3-0.07c-0.02-0.01-0.04-0.01-0.07-0.02
					c-0.03-0.01-0.07-0.02-0.1-0.02c-0.16-0.03-0.33-0.05-0.5-0.06c-0.18-0.01-0.36-0.01-0.54,0c-0.06,0-0.12,0.01-0.18,0.02
					c-0.04,0-0.08,0.01-0.12,0.01c-0.1,0.01-0.2,0.01-0.31,0.03c-0.24,0.04-0.48,0.09-0.72,0.15c-0.1,0.03-0.21,0.08-0.31,0.11
					c-0.1,0.03-0.19,0.06-0.29,0.1c-0.12,0.04-0.24,0.07-0.36,0.13c-0.38,0.16-0.76,0.35-1.15,0.57L604.99,365.88
					c-0.53,0.31-1.04,0.67-1.54,1.07c-0.16,0.13-0.31,0.28-0.47,0.42c-0.24,0.21-0.49,0.41-0.72,0.64c-0.11,0.1-0.2,0.22-0.31,0.33
					c-0.09,0.1-0.18,0.19-0.27,0.29c-0.1,0.11-0.21,0.22-0.31,0.33c-0.23,0.26-0.45,0.53-0.66,0.81c-0.07,0.1-0.14,0.2-0.22,0.29
					c-0.04,0.05-0.08,0.1-0.11,0.15c-0.07,0.1-0.14,0.19-0.21,0.29c-0.16,0.23-0.32,0.47-0.47,0.71c-0.15,0.23-0.29,0.46-0.42,0.69
					c-0.01,0.02-0.02,0.04-0.03,0.06c-0.01,0.02-0.02,0.04-0.03,0.05c-0.11,0.19-0.22,0.38-0.32,0.58c-0.12,0.23-0.24,0.46-0.35,0.7
					c-0.1,0.21-0.2,0.43-0.29,0.64c0,0.01-0.01,0.02-0.02,0.03c-0.01,0.01-0.01,0.02-0.02,0.04c-0.11,0.24-0.21,0.49-0.3,0.74
					c-0.1,0.26-0.19,0.51-0.28,0.77c-0.04,0.13-0.08,0.26-0.12,0.39c-0.02,0.06-0.03,0.11-0.05,0.17c-0.03,0.09-0.06,0.18-0.09,0.28
					c-0.09,0.31-0.16,0.63-0.23,0.94c-0.04,0.19-0.07,0.38-0.1,0.57c-0.02,0.1-0.04,0.2-0.05,0.29c-0.01,0.09-0.04,0.18-0.05,0.27
					c-0.07,0.54-0.11,1.08-0.11,1.61l0.55,194.22c0.01,3.4,1.82,6.54,4.76,8.24l1.86,1.19l-0.57-199.7c0-0.61,0.06-1.24,0.15-1.88
					c0.01-0.1,0.03-0.2,0.05-0.29c0.1-0.59,0.24-1.19,0.41-1.79c0.02-0.05,0.03-0.11,0.05-0.16c0.2-0.65,0.44-1.3,0.71-1.94
					c0.01-0.01,0.01-0.02,0.02-0.03c0.29-0.65,0.61-1.29,0.97-1.92c0.01-0.02,0.02-0.04,0.03-0.05c0.35-0.61,0.74-1.19,1.15-1.75
					c0.04-0.05,0.07-0.1,0.11-0.15c0.38-0.51,0.78-0.99,1.2-1.44c0.09-0.1,0.18-0.19,0.27-0.29c0.33-0.34,0.68-0.66,1.03-0.96
					c0.16-0.14,0.31-0.29,0.48-0.42c0.5-0.4,1.01-0.76,1.54-1.07l281.72-162.65c0.52-0.3,1.02-0.52,1.51-0.7
					C894.93,206.44,895.02,206.4,895.12,206.37z"/>
			</g>
		</g>
		<g>
			<g>
				<g>
					<path class="st24" d="M1043.68,588.64c-9.34-5.39-24.44-5.42-33.71-0.02c-9.32,5.42-9.23,14.16,0.11,19.55
						c9.34,5.39,24.4,5.39,33.71-0.02C1053.06,602.75,1053.02,594.03,1043.68,588.64z"/>
					<g>
						<g>
							<path class="st3" d="M1018.25,604.69c0,0-8.45-5.49-8.67-6.82c-0.23-1.33,1.82-2.77,3.24-2.72c1.42,0.05,7.4,0.55,7.4,0.55
								l1.92,2.17C1022.12,597.87,1025.55,606.04,1018.25,604.69z"/>
							<path class="st3" d="M1036.72,597.78c0,0-8.45-5.49-8.67-6.82c-0.23-1.33,1.82-2.77,3.24-2.72c1.42,0.05,7.4,0.55,7.4,0.55
								l1.92,2.17C1040.6,590.96,1044.02,599.13,1036.72,597.78z"/>
							<path class="st3" d="M1015.47,527.93l-0.25,69.48c0,0,3.86,2.34,8.3-0.18c0,0,7.87-60.02,8-61.44
								c0.12-1.32,1.11,54.8,1.11,54.8s4.87,2.79,8.58-1l4.37-66.47L1015.47,527.93z"/>
							<path class="st25" d="M1041.39,502.51l0.47,12.22c0,0,9.59-5.06,9.34-12.47c-0.06-1.67-3.23-12.29-3.93-14.99
								C1044.06,489.02,1043.87,499.92,1041.39,502.51z"/>
							<path class="st26" d="M1022.39,476.01c0,0-3.56,0.78-8.16,4.55l1.24,47.37c0,0,5.98,4.38,18.21,1.18
								c9.96-2.61,12.58-6.8,12.58-6.8s-0.23-21.95-1.16-31.56c-0.93-9.61-3.7-16.98-3.7-16.98c-2.17-0.66-6.97-0.38-6.97-0.38
								L1022.39,476.01z"/>
							<path class="st25" d="M1033.42,473.12l0.28-9.26c0,0,2.33-0.18,1.93-2.73c-0.4-2.55-2.79-0.87-3.21-0.12
								c0,0-0.54-8.78-5.19-9.63c-4.65-0.84-6.58-0.17-6.7,2.1c-0.12,2.27-0.27,10.19,0,13.13c0.27,2.94,0,4.47,4.25,4.36l0.37,3.08
								c0,0,1.93,1.8,7.88,0.34L1033.42,473.12z"/>
						</g>
					</g>
				</g>
				<path class="st27" d="M1022.39,476.01c0.03-1.81,0.32-2.79,4.53-3.27c4.2-0.48,7.62-1.6,8.05,0c0.43,1.6-0.42,2.6-4.63,2.96
					C1026.13,476.06,1022.39,476.01,1022.39,476.01z"/>
				<path class="st3" d="M1027.89,461.4c0.21-0.71,0.03-1.67-0.8-1.86c-0.64-0.15-1.15,0.15-1.58,0.66
					c-0.7,0.84-1.15,2.23-1.53,3.15c-0.43-0.37-0.87-0.72-1.32-1.06c0.02-0.28,0.04-0.56,0.06-0.84c0.05-0.69,0.09-1.38-0.07-2.05
					c-0.34-1.41-1.83-1.63-2.54-2.69c-0.95-1.42-0.56-3.45,0.36-4.81c0.95-1.42,2.49-2.36,4.12-2.9c5.54-1.82,13.84,2.25,12.23,9
					c-0.93,3.87-2.28,7.63-3.29,11.48c-0.13,0.51-1.29,0.7-1.78,0.55c-0.5-0.16-0.91-0.5-1.3-0.85c-1.82-1.66-3.33-3.64-4.45-5.83
					C1026.11,463.57,1027.8,461.69,1027.89,461.4z"/>
			</g>
			<path class="st25" d="M1014.43,530.1c0.1,0.58,0.54,1.17,1.13,1.18c0.68,0.01,1.12-0.69,1.43-1.3c0.19-0.39,0.38-0.77,0.57-1.16
				c0.16-0.32,0.32-0.65,0.28-1c-0.04-0.34-0.25-0.64-0.27-0.98c-0.03-0.66,0.67-1.11,0.86-1.74c0.22-0.75-0.34-1.48-0.86-2.06
				c-0.36-0.4-0.72-0.8-1.17-1.09c-1.79-1.14-3.4,0.9-3.05,2.64c0.16,0.78,0.68,1.49,0.9,2.25
				C1014.57,527.96,1014.23,529,1014.43,530.1z"/>
			<path class="st25" d="M1014.23,526.45c0,0-10.32-15.84-10.61-19.38c-0.29-3.54,8.52-22.11,8.52-22.11l6.8,7.56l-7.66,13.79
				l4.34,15.34L1014.23,526.45z"/>
			<path class="st26" d="M1016.8,500.93c0.83-2.07,1.48-4.1,1.67-5.78c0.87-7.82-4.23-14.59-4.23-14.59
				c-1.94,0.87-5.04,7.33-7.8,14.47C1009.81,497.15,1013.27,499.1,1016.8,500.93z"/>
			<path class="st26" d="M1049.25,489.41c-2.62-7.59-6.06-15.04-7.86-15.64l0.76,19.76
				C1044.44,492.04,1046.88,490.75,1049.25,489.41z"/>
		</g>
		<g>
			<g class="st0">
				<g>
					<linearGradient id="SVGID_20_" gradientUnits="userSpaceOnUse" x1="643.2588" y1="396.1321" x2="659.3302" y2="396.1321">
						<stop  offset="0" style="stop-color:#0B62A3"/>
						<stop  offset="1" style="stop-color:#3189C9"/>
					</linearGradient>
					<path class="st28" d="M651.26,386.9c-4.43,2.56-8.02,8.76-8,13.86c0.01,5.1,3.62,7.17,8.05,4.61
						c4.43-2.56,8.03-8.79,8.02-13.89C659.32,386.39,655.69,384.34,651.26,386.9"/>
					<path class="st26" d="M747.54,333.75l-79.51,45.91c-0.95,0.55-1.72,1.88-1.71,2.97l0,0.32c0,1.09,0.78,1.53,1.72,0.98
						l79.51-45.91c0.96-0.56,1.72-1.88,1.71-2.97l0-0.32C749.26,333.64,748.5,333.19,747.54,333.75"/>
					<path class="st26" d="M687.74,378.94l-19.68,11.36c-0.95,0.55-1.72,1.88-1.71,2.97l0,0.3c0,1.11,0.78,1.55,1.72,1l19.68-11.36
						c0.95-0.55,1.72-1.88,1.71-2.99l0-0.3C689.46,378.83,688.68,378.39,687.74,378.94"/>
					<path class="st26" d="M747.45,344.46l-52.39,30.25c-1.01,0.59-1.85,2.02-1.85,3.2c0,1.17,0.85,1.65,1.86,1.06l52.39-30.25
						c1.01-0.59,1.84-2.03,1.83-3.19C749.29,344.35,748.46,343.88,747.45,344.46"/>
					<path class="st26" d="M678.81,394.73l-10.59,6.11c-1.03,0.6-1.85,2.04-1.85,3.2c0,1.19,0.83,1.66,1.86,1.06l10.59-6.11
						c1.01-0.59,1.84-2.01,1.83-3.2C680.65,394.64,679.83,394.15,678.81,394.73"/>
					<linearGradient id="SVGID_21_" gradientUnits="userSpaceOnUse" x1="643.3776" y1="437.996" x2="659.4489" y2="437.996">
						<stop  offset="0" style="stop-color:#0B62A3"/>
						<stop  offset="1" style="stop-color:#3189C9"/>
					</linearGradient>
					<path class="st29" d="M651.38,428.77c-4.43,2.56-8.02,8.76-8,13.86c0.01,5.1,3.62,7.15,8.05,4.59
						c4.43-2.56,8.03-8.77,8.02-13.87C659.43,428.26,655.81,426.21,651.38,428.77"/>
					<path class="st26" d="M747.66,375.62l-79.51,45.91c-0.95,0.55-1.72,1.88-1.71,2.97l0,0.32c0,1.09,0.78,1.53,1.72,0.98
						l79.51-45.91c0.96-0.56,1.72-1.88,1.71-2.97l0-0.32C749.38,375.52,748.62,375.06,747.66,375.62"/>
					<path class="st26" d="M687.85,420.81l-19.68,11.36c-0.95,0.55-1.72,1.86-1.71,2.97l0,0.3c0,1.11,0.78,1.53,1.72,0.98
						l19.68-11.36c0.95-0.55,1.72-1.86,1.71-2.97l0-0.3C689.58,420.69,688.8,420.26,687.85,420.81"/>
					<path class="st26" d="M747.57,386.34l-52.39,30.25c-1.01,0.59-1.85,2.02-1.85,3.19c0,1.18,0.85,1.65,1.86,1.06l52.39-30.25
						c1.01-0.59,1.84-2.01,1.83-3.19C749.41,386.22,748.58,385.75,747.57,386.34"/>
					<path class="st26" d="M678.93,436.61l-10.59,6.11c-1.03,0.6-1.85,2.04-1.85,3.2c0,1.19,0.83,1.66,1.86,1.06l10.59-6.11
						c1.01-0.59,1.84-2.01,1.83-3.2C680.77,436.51,679.94,436.02,678.93,436.61"/>
					<linearGradient id="SVGID_22_" gradientUnits="userSpaceOnUse" x1="643.4962" y1="479.8677" x2="659.5677" y2="479.8677">
						<stop  offset="0" style="stop-color:#0B62A3"/>
						<stop  offset="1" style="stop-color:#3189C9"/>
					</linearGradient>
					<path class="st30" d="M651.5,470.65c-4.43,2.56-8.02,8.76-8,13.86c0.01,5.1,3.62,7.15,8.05,4.59s8.03-8.77,8.02-13.87
						C659.55,470.13,655.93,468.08,651.5,470.65"/>
					<path class="st26" d="M747.78,417.49l-79.51,45.91c-0.95,0.55-1.72,1.88-1.71,2.97l0,0.32c0,1.09,0.78,1.53,1.72,0.98
						l79.51-45.91c0.96-0.56,1.72-1.88,1.71-2.97l0-0.32C749.5,417.39,748.74,416.94,747.78,417.49"/>
					<path class="st26" d="M687.97,462.66l-19.68,11.36c-0.95,0.55-1.72,1.88-1.71,2.99l0,0.3c0,1.11,0.78,1.53,1.72,0.98
						l19.68-11.36c0.95-0.55,1.72-1.86,1.71-2.97l0-0.3C689.7,462.56,688.92,462.12,687.97,462.66"/>
					<path class="st26" d="M747.69,428.19l-52.39,30.25c-1.01,0.59-1.85,2.04-1.85,3.2c0,1.19,0.85,1.65,1.86,1.06l52.39-30.25
						c1.01-0.59,1.84-2.01,1.83-3.19C749.53,428.09,748.7,427.6,747.69,428.19"/>
					<path class="st26" d="M679.05,478.48l-10.59,6.11c-1.03,0.6-1.85,2.02-1.85,3.2c0,1.19,0.83,1.66,1.86,1.06l10.59-6.11
						c1.01-0.59,1.84-2.01,1.83-3.2C680.89,478.36,680.06,477.89,679.05,478.48"/>
					<linearGradient id="SVGID_23_" gradientUnits="userSpaceOnUse" x1="820.1944" y1="306.433" x2="867.8925" y2="306.433">
						<stop  offset="0" style="stop-color:#0B62A3"/>
						<stop  offset="1" style="stop-color:#3189C9"/>
					</linearGradient>
					<path class="st31" d="M820.19,291.8l0.05,17.12c18.03-10.41,32.69-2.04,32.75,18.66l14.9-8.6
						C867.81,288.82,846.46,276.64,820.19,291.8"/>
					<path class="st26" d="M820.19,291.8c-26.26,15.16-47.47,51.92-47.39,82.08c0.04,15.09,5.39,25.69,14.03,30.61l10.5-18.21
						c-5.93-3.36-9.6-10.64-9.63-21.01c-0.06-20.7,14.5-45.94,32.53-56.35L820.19,291.8"/>
					<path class="st15" d="M867.89,318.98l-14.9,8.6c0.06,20.72-14.5,45.96-32.53,56.37c-9.02,5.21-17.18,5.71-23.12,2.33
						l-10.5,18.21c8.62,4.91,20.53,4.17,33.67-3.41C846.77,385.92,867.98,349.16,867.89,318.98"/>
					<path class="st26" d="M748.76,459.42l-86.49,49.94c-0.96,0.56-1.72,1.88-1.71,2.97l0,0.32c0,1.09,0.76,1.54,1.72,0.98
						l86.49-49.94c0.96-0.56,1.73-1.89,1.73-2.98l0-0.32C750.49,459.31,749.72,458.86,748.76,459.42"/>
					<path class="st15" d="M648.63,517.23l-3.32,1.92c-0.95,0.55-1.72,1.88-1.71,2.97l0,0.32c0,1.09,0.78,1.53,1.72,0.98l3.32-1.92
						c0.95-0.55,1.72-1.88,1.71-2.97l0-0.32C650.36,517.12,649.58,516.68,648.63,517.23"/>
					<path class="st26" d="M863.8,393l-86.49,49.94c-0.96,0.56-1.73,1.89-1.73,2.98l0,0.32c0,1.09,0.78,1.53,1.74,0.97l86.49-49.94
						c0.96-0.56,1.72-1.88,1.71-2.97l0-0.32C865.52,392.9,864.76,392.45,863.8,393"/>
					<path class="st15" d="M763.66,450.82l-3.3,1.91c-0.96,0.56-1.72,1.88-1.71,2.97l0,0.32c0,1.09,0.76,1.54,1.72,0.98l3.3-1.91
						c0.96-0.56,1.72-1.88,1.71-2.97l0-0.32C765.38,450.71,764.62,450.26,763.66,450.82"/>
				</g>
			</g>
		</g>
		<g>
			<g class="st0">
				<g>
					<linearGradient id="SVGID_24_" gradientUnits="userSpaceOnUse" x1="561.1747" y1="250.896" x2="688.5786" y2="250.896">
						<stop  offset="0" style="stop-color:#0B62A3"/>
						<stop  offset="1" style="stop-color:#3189C9"/>
					</linearGradient>
					<path class="st32" d="M651.35,219.69l11.03-12.58c-0.03-0.3-0.07-0.61-0.07-0.94c-0.01-4.05,2.85-9.01,6.38-11.04
						c3.53-2.04,6.41-0.4,6.42,3.66c0.01,4.05-2.85,9.01-6.38,11.04c-1.79,1.03-3.41,1.11-4.58,0.42l-11.03,12.57
						c0.04,0.3,0.07,0.61,0.07,0.94c0.01,4.05-2.85,9.01-6.38,11.04c-0.71,0.41-1.38,0.67-2.02,0.79l-14.63,31.15
						c0.73,0.77,1.17,1.97,1.17,3.54c0.01,4.05-2.85,9.01-6.38,11.04c-3.53,2.04-6.41,0.4-6.42-3.66c0-1.23,0.26-2.56,0.73-3.85
						l-13.58-8.29c-0.83,0.94-1.77,1.75-2.76,2.33c-0.99,0.57-1.92,0.84-2.77,0.87l-13.48,23.92c0.47,0.75,0.75,1.76,0.75,3
						c0.01,4.05-2.85,9.01-6.38,11.04c-3.53,2.04-6.41,0.4-6.42-3.66c-0.01-4.05,2.85-9.01,6.38-11.04
						c0.99-0.57,1.92-0.85,2.77-0.87l13.48-23.93c-0.47-0.75-0.75-1.76-0.75-2.99c-0.01-4.05,2.85-9.01,6.38-11.04
						c3.53-2.04,6.41-0.4,6.42,3.66c0,1.23-0.26,2.55-0.73,3.84l13.58,8.3c0.83-0.95,1.77-1.75,2.76-2.33
						c0.7-0.4,1.38-0.66,2.02-0.79l14.63-31.14c-0.73-0.77-1.17-1.98-1.17-3.55c-0.01-4.05,2.85-9,6.38-11.04
						C648.56,219.08,650.19,218.99,651.35,219.69 M685.34,170.16l-121.2,69.97c-1.64,0.95-2.98,3.26-2.97,5.15l0.24,84.65
						c0.01,1.89,1.34,2.65,2.99,1.7l121.2-69.97c1.64-0.95,2.98-3.26,2.98-5.15l-0.24-84.65
						C688.33,169.97,686.99,169.21,685.34,170.16"/>
					<path class="st3" d="M668.69,195.13c-3.53,2.04-6.39,6.99-6.38,11.04c0,0.33,0.03,0.64,0.07,0.94l-11.03,12.58
						c-1.16-0.7-2.79-0.61-4.58,0.42c-3.53,2.04-6.39,6.99-6.38,11.04c0,1.57,0.44,2.77,1.17,3.55l-14.63,31.14
						c-0.64,0.13-1.32,0.39-2.02,0.79c-0.99,0.57-1.93,1.38-2.76,2.33l-13.58-8.3c0.47-1.29,0.73-2.61,0.73-3.84
						c-0.01-4.05-2.89-5.69-6.42-3.66c-3.53,2.04-6.39,6.99-6.38,11.04c0,1.23,0.28,2.24,0.75,2.99l-13.48,23.93
						c-0.84,0.02-1.77,0.29-2.77,0.87c-3.53,2.04-6.39,6.99-6.38,11.04c0.01,4.05,2.89,5.69,6.42,3.66
						c3.53-2.04,6.39-6.99,6.38-11.04c0-1.23-0.28-2.25-0.75-3l13.48-23.92c0.84-0.03,1.78-0.3,2.77-0.87
						c0.99-0.57,1.93-1.39,2.76-2.33l13.58,8.29c-0.47,1.29-0.73,2.62-0.73,3.85c0.01,4.05,2.89,5.69,6.42,3.66
						c3.53-2.04,6.39-6.99,6.38-11.04c0-1.57-0.45-2.77-1.17-3.54l14.63-31.15c0.64-0.12,1.31-0.38,2.02-0.79
						c3.53-2.04,6.39-6.99,6.38-11.04c0-0.33-0.03-0.64-0.07-0.94l11.03-12.57c1.16,0.69,2.79,0.61,4.58-0.42
						c3.53-2.04,6.39-6.99,6.38-11.04C675.09,194.73,672.22,193.09,668.69,195.13"/>
				</g>
			</g>
		</g>
		<g>
			<g class="st0">
				<g>
					<linearGradient id="SVGID_25_" gradientUnits="userSpaceOnUse" x1="498.8706" y1="387.1445" x2="574.9152" y2="387.1445">
						<stop  offset="0" style="stop-color:#0B62A3"/>
						<stop  offset="1" style="stop-color:#3189C9"/>
					</linearGradient>
					<path class="st33" d="M520.47,409.2c-0.53,0.31-0.96,0.06-0.96-0.55c0-0.61,0.43-1.35,0.95-1.65l4.03-2.33
						c0.53-0.3,0.96-0.06,0.96,0.55c0,0.61-0.43,1.35-0.95,1.65L520.47,409.2 M528.56,404.53c-0.53,0.31-0.96,0.06-0.96-0.55
						c0-0.61,0.43-1.35,0.95-1.65l4.04-2.33c0.53-0.31,0.96-0.06,0.96,0.55c0,0.61-0.42,1.35-0.95,1.65L528.56,404.53
						 M520.45,401.51c-0.53,0.3-0.96,0.06-0.96-0.55c0-0.62,0.43-1.35,0.95-1.65l35.04-20.23c0.53-0.3,0.96-0.07,0.96,0.55
						c0,0.61-0.43,1.35-0.95,1.65L520.45,401.51 M520.43,393.82c-0.53,0.3-0.96,0.06-0.96-0.55c0-0.61,0.43-1.35,0.95-1.65
						l19.67-11.36c0.54-0.31,0.97-0.06,0.97,0.54c0,0.61-0.43,1.35-0.96,1.66L520.43,393.82 M544.2,380.09
						c-0.53,0.3-0.96,0.06-0.96-0.55c0-0.61,0.43-1.35,0.95-1.65l2.46-1.42c0.53-0.31,0.96-0.06,0.96,0.55
						c0,0.61-0.43,1.35-0.95,1.65L544.2,380.09 M550.94,376.2c-0.53,0.3-0.96,0.06-0.96-0.55c0-0.61,0.43-1.35,0.95-1.65l16.05-9.27
						c0.53-0.3,0.96-0.06,0.96,0.55c0,0.61-0.42,1.35-0.95,1.65L550.94,376.2 M520.41,386.13c-0.53,0.3-0.96,0.06-0.96-0.55
						c0-0.62,0.43-1.35,0.95-1.65l33.42-19.29c0.53-0.3,0.96-0.07,0.96,0.55c0,0.61-0.43,1.35-0.95,1.65L520.41,386.13 M558,364.42
						c-0.53,0.3-0.96,0.06-0.96-0.55c0-0.62,0.43-1.35,0.95-1.65l8.97-5.18c0.53-0.31,0.96-0.07,0.96,0.55
						c0,0.61-0.43,1.35-0.95,1.65L558,364.42 M508.02,396.2c-1.54,0.89-2.8,0.17-2.81-1.6c-0.01-1.78,1.25-3.95,2.79-4.84
						c1.55-0.89,2.81-0.18,2.81,1.6C510.82,393.13,509.57,395.3,508.02,396.2 M572.63,346.56l-71.59,41.33
						c-1.21,0.7-2.17,2.37-2.17,3.76l0.1,34.83c0,1.38,0.98,1.94,2.18,1.24l71.59-41.33c1.21-0.7,2.17-2.38,2.17-3.76l-0.1-34.83
						C574.81,346.42,573.84,345.86,572.63,346.56"/>
					<path class="st3" d="M553.82,364.64l-33.42,19.29c-0.53,0.31-0.96,1.04-0.95,1.65c0,0.61,0.43,0.85,0.96,0.55l33.42-19.29
						c0.53-0.31,0.96-1.04,0.95-1.65C554.78,364.57,554.35,364.33,553.82,364.64"/>
					<path class="st3" d="M540.09,380.26l-19.67,11.36c-0.53,0.3-0.96,1.04-0.95,1.65c0,0.61,0.43,0.85,0.96,0.55l19.67-11.36
						c0.54-0.31,0.96-1.05,0.96-1.66C541.06,380.2,540.63,379.95,540.09,380.26"/>
					<path class="st3" d="M555.48,379.08l-35.04,20.23c-0.53,0.31-0.96,1.04-0.95,1.65c0,0.61,0.43,0.85,0.96,0.55l35.04-20.23
						c0.53-0.3,0.96-1.04,0.95-1.65C556.44,379.01,556.01,378.78,555.48,379.08"/>
					<path class="st3" d="M524.5,404.67l-4.03,2.33c-0.53,0.3-0.96,1.04-0.95,1.65c0,0.61,0.43,0.85,0.96,0.55l4.03-2.33
						c0.53-0.31,0.96-1.04,0.95-1.65C525.46,404.61,525.03,404.36,524.5,404.67"/>
					<path class="st3" d="M546.64,376.48l-2.46,1.42c-0.53,0.3-0.96,1.04-0.95,1.65c0,0.61,0.43,0.85,0.96,0.55l2.46-1.42
						c0.53-0.3,0.96-1.04,0.95-1.65C547.6,376.42,547.17,376.17,546.64,376.48"/>
					<path class="st3" d="M566.98,364.74L550.94,374c-0.53,0.31-0.96,1.04-0.95,1.65c0,0.61,0.43,0.85,0.96,0.55l16.05-9.27
						c0.53-0.3,0.96-1.04,0.95-1.65C567.94,364.68,567.51,364.43,566.98,364.74"/>
					<path class="st3" d="M566.96,357.05l-8.97,5.18c-0.53,0.31-0.96,1.04-0.95,1.65c0,0.61,0.43,0.85,0.96,0.55l8.97-5.18
						c0.53-0.3,0.96-1.04,0.95-1.65C567.92,356.98,567.49,356.74,566.96,357.05"/>
					<path class="st3" d="M508,389.76c-1.54,0.89-2.79,3.06-2.79,4.84c0.01,1.77,1.27,2.49,2.81,1.6c1.55-0.89,2.8-3.06,2.8-4.84
						C510.81,389.58,509.55,388.86,508,389.76"/>
					<path class="st3" d="M532.6,400l-4.04,2.33c-0.53,0.3-0.96,1.04-0.95,1.65c0,0.61,0.43,0.85,0.96,0.55l4.04-2.33
						c0.53-0.3,0.96-1.04,0.95-1.65C533.55,399.94,533.12,399.69,532.6,400"/>
				</g>
			</g>
		</g>
		<g>
			<g>
				<polygon class="st15" points="783.7,968.82 783.7,883.6 622.46,790.41 622.46,875.62 				"/>
				<linearGradient id="SVGID_26_" gradientUnits="userSpaceOnUse" x1="696.4378" y1="820.5867" x2="555.5849" y2="844.5316">
					<stop  offset="0.1531" style="stop-color:#2A4385"/>
					<stop  offset="0.9975" style="stop-color:#5378BB"/>
				</linearGradient>
				<polygon class="st34" points="622.86,790.64 622.46,790.86 622.46,875.62 696.18,833.01 				"/>
			</g>
			<g>
				<polygon class="st15" points="783.7,1095.73 783.7,1010.52 622.46,917.32 622.46,1002.54 				"/>
				<linearGradient id="SVGID_27_" gradientUnits="userSpaceOnUse" x1="696.4378" y1="947.5043" x2="555.5849" y2="971.4492">
					<stop  offset="0.1531" style="stop-color:#2A4385"/>
					<stop  offset="0.9975" style="stop-color:#5378BB"/>
				</linearGradient>
				<polygon class="st35" points="622.86,917.55 622.46,917.78 622.46,1002.54 696.18,959.93 				"/>
			</g>
			<g>
				<polygon class="st15" points="783.7,1222.65 783.7,1137.43 622.46,1044.24 622.46,1129.46 				"/>
				<linearGradient id="SVGID_28_" gradientUnits="userSpaceOnUse" x1="696.4378" y1="1074.4218" x2="555.5849" y2="1098.3667">
					<stop  offset="0.1531" style="stop-color:#2A4385"/>
					<stop  offset="0.9975" style="stop-color:#5378BB"/>
				</linearGradient>
				<polygon class="st36" points="622.86,1044.47 622.46,1044.7 622.46,1129.46 696.18,1086.85 				"/>
			</g>
		</g>
		<g>
			<g class="st0">
				<g>
					<polyline class="st3" points="1150.33,329.49 1034.09,262.38 1033.89,331.1 1150.14,398.21 1150.33,329.49 					"/>
					<polyline class="st3" points="1151.69,406.85 1079.57,365.21 1079.5,390.73 1151.62,432.37 1151.69,406.85 					"/>
					<polyline class="st3" points="1132.58,269.65 1110.36,256.82 1110.29,282.35 1132.51,295.18 1132.58,269.65 					"/>
					<path class="st3" d="M972.58,203.75c0,0,8.21-31.44,19.96-24.65c11.76,6.79,14.09,33.53,23.33,38.87
						c9.24,5.34,9.75-10.51,15.46-7.21c5.7,3.29,5.74,20.66,11.71,24.1c5.95,3.44,10.2-10.77,19.9-5.17
						c11.99,6.92,18.94,37.16,18.94,37.16L972.58,203.75 M1089.93,212.21L964.87,140l-0.21,74.57l125.06,72.2L1089.93,212.21"/>
					<path class="st15" d="M992.55,179.09c-11.76-6.79-19.96,24.65-19.96,24.65l109.29,63.1c0,0-6.95-30.24-18.94-37.16
						c-9.7-5.6-13.94,8.6-19.9,5.17c-5.96-3.44-6.01-20.81-11.71-24.1c-5.71-3.3-6.22,12.55-15.46,7.21
						C1006.64,212.63,1004.3,185.88,992.55,179.09"/>
					<path class="st3" d="M989.41,301.2l0.03-11.98l0.03-11.98l9.02,11.2l9.02,11.21l-9.05,0.78L989.41,301.2 M996.75,260.6
						c-15.71-9.07-28.5-1.8-28.55,16.27c-0.05,18.07,12.65,40.07,28.36,49.14c15.72,9.08,28.51,1.79,28.56-16.28
						C1025.18,291.67,1012.47,269.68,996.75,260.6"/>
					<polyline class="st37" points="989.48,277.24 989.45,289.22 989.41,301.2 998.47,300.43 1007.52,299.65 998.5,288.44 
						989.48,277.24 					"/>
					<path class="st3" d="M965.83,346.86c-3.52-2.03-6.37-6.97-6.36-11.01c0.01-4.05,2.88-5.69,6.4-3.66
						c3.53,2.04,6.38,6.98,6.37,11.03C972.23,347.26,969.36,348.9,965.83,346.86 M1010.35,342.81l-71.26-41.14l-0.15,51.84
						l71.26,41.14l-71.26-41.14l0.02-7.96l13.23-7.52l13.39,23.2l27.04-15.4l17.63,30.54L1010.35,342.81"/>
					<polyline class="st15" points="992.63,345.82 965.59,361.21 952.2,338.02 938.97,345.54 938.95,353.51 1010.21,394.65 
						1010.26,376.36 992.63,345.82 					"/>
					<path class="st15" d="M965.88,332.19c-3.52-2.03-6.39-0.39-6.4,3.66c-0.01,4.04,2.84,8.98,6.36,11.01
						c3.53,2.04,6.4,0.4,6.41-3.64C972.26,339.16,969.41,334.22,965.88,332.19"/>
				</g>
			</g>
		</g>
	</g>
	<g>
		<g>
			<g class="st0">
				<g>
					<linearGradient id="SVGID_29_" gradientUnits="userSpaceOnUse" x1="135.4713" y1="521.7889" x2="99.0975" y2="624.6389">
						<stop  offset="0" style="stop-color:#A5D9F3"/>
						<stop  offset="1" style="stop-color:#528BC9"/>
					</linearGradient>
					<polygon class="st38" points="231.68,573.29 117.5,639.57 2.83,573.29 117.5,507.02 					"/>
				</g>
				<linearGradient id="SVGID_30_" gradientUnits="userSpaceOnUse" x1="117.5048" y1="907.7448" x2="231.6777" y2="907.7448">
					<stop  offset="0" style="stop-color:#0B62A3"/>
					<stop  offset="1" style="stop-color:#3189C9"/>
				</linearGradient>
				<polygon class="st39" points="231.68,573.29 231.68,1175.92 117.5,1242.2 117.5,639.57 				"/>
				<polygon class="st3" points="117.5,639.57 117.5,1242.2 2.83,1175.92 2.83,573.29 				"/>
			</g>
		</g>
		<polygon class="st15" points="117.5,653.74 231.68,587.46 231.68,584.71 117.5,650.98 		"/>
		<polygon class="st15" points="2.83,587.46 117.5,653.74 117.5,650.98 2.83,584.71 		"/>
		<linearGradient id="SVGID_31_" gradientUnits="userSpaceOnUse" x1="147.9753" y1="292.7996" x2="51.4776" y2="565.6547">
			<stop  offset="0.0373" style="stop-color:#C3E7ED;stop-opacity:0"/>
			<stop  offset="0.6689" style="stop-color:#D4EEF3;stop-opacity:0.656"/>
			<stop  offset="1" style="stop-color:#E0F2F8"/>
		</linearGradient>
		<polygon class="st40" points="12.5,296.65 51.62,573.29 117.4,611.31 182.89,573.29 222.01,296.65 		"/>
		<g>
			<polygon class="st3" points="182.89,573.29 117.4,611.31 51.62,573.29 117.4,535.28 			"/>
		</g>
		<g>
			<path class="st41" d="M192.28,387.01c-0.43,0.26-0.88,0.53-1.32,0.79c-1,0.6-2.01,1.19-3.04,1.78c-0.47,0.27-0.95,0.54-1.43,0.81
				c-1.17,0.65-2.35,1.3-3.55,1.93c-0.31,0.16-0.6,0.33-0.91,0.49c-1.5,0.79-3.02,1.56-4.57,2.32c-0.39,0.19-0.8,0.38-1.19,0.57
				c-1.17,0.57-2.36,1.13-3.55,1.68c-0.52,0.24-1.05,0.48-1.58,0.71c-1.16,0.52-2.34,1.03-3.52,1.54c-0.47,0.2-0.94,0.41-1.42,0.6
				c-1.64,0.68-3.29,1.35-4.96,2c-0.18,0.07-0.36,0.13-0.54,0.2c-1.5,0.58-3.02,1.14-4.55,1.68c-0.54,0.19-1.08,0.38-1.62,0.57
				c-1.22,0.43-2.45,0.84-3.69,1.25c-0.54,0.18-1.09,0.36-1.63,0.53c-1.93,0.61-3.87,1.21-5.84,1.78c-0.2,0.06-0.41,0.11-0.61,0.17
				c-1.79,0.51-3.6,0.99-5.42,1.45c-0.53,0.14-1.07,0.27-1.61,0.4c-1.92,0.47-3.86,0.93-5.81,1.35c-0.11,0.02-0.21,0.05-0.32,0.07
				c-2.04,0.44-4.1,0.84-6.18,1.22c-0.51,0.09-1.02,0.18-1.53,0.27c-2.36,0.42-4.74,0.81-7.13,1.14c-0.19,0.03-0.37,0.05-0.56,0.07
				c-2.29,0.32-4.6,0.59-6.92,0.83c-0.47,0.05-0.94,0.1-1.41,0.15c-1.94,0.19-3.89,0.35-5.84,0.49c-0.06,0-0.12,0.01-0.18,0.01
				c-1.9,0.13-3.8,0.22-5.71,0.29c-0.69,0.03-1.38,0.04-2.07,0.06c-1.12,0.03-2.24,0.06-3.37,0.07c-0.74,0.01-1.48,0.01-2.23,0.01
				c-1.11,0-2.21-0.01-3.32-0.03c-0.77-0.01-1.54-0.03-2.31-0.05c-0.97-0.03-1.93-0.07-2.9-0.11c-0.8-0.04-1.61-0.07-2.41-0.12
				c-0.97-0.06-1.95-0.13-2.92-0.2c-0.8-0.06-1.61-0.12-2.42-0.19c-0.97-0.08-1.94-0.18-2.92-0.28c-0.8-0.08-1.6-0.16-2.4-0.25
				c-0.99-0.11-1.98-0.25-2.98-0.38c-0.78-0.1-1.56-0.2-2.34-0.31c-1.17-0.17-2.35-0.36-3.52-0.56c-0.65-0.11-1.3-0.2-1.94-0.32
				c-1.5-0.26-2.99-0.55-4.49-0.85c-0.35-0.07-0.7-0.13-1.05-0.2c-4.71-7.53-6.84-15.06-6.82-22.45l-0.05,18.42
				c-0.02,7.39,2.11,14.92,6.82,22.45c0.05,0.01,0.09,0.02,0.14,0.03c0.3,0.06,0.61,0.11,0.91,0.17c1.5,0.3,2.99,0.59,4.49,0.85
				c0.65,0.11,1.3,0.21,1.94,0.32c1.17,0.19,2.35,0.39,3.52,0.56c0.17,0.03,0.35,0.06,0.52,0.08c0.61,0.09,1.22,0.15,1.83,0.23
				c0.99,0.13,1.98,0.26,2.98,0.38c0.8,0.09,1.6,0.17,2.4,0.25c0.97,0.1,1.94,0.2,2.92,0.28c0.26,0.02,0.52,0.05,0.78,0.08
				c0.55,0.04,1.09,0.07,1.63,0.11c0.98,0.07,1.95,0.14,2.92,0.2c0.81,0.05,1.61,0.08,2.41,0.12c0.97,0.04,1.94,0.08,2.9,0.11
				c0.35,0.01,0.7,0.03,1.04,0.04c0.42,0.01,0.84,0.01,1.26,0.01c1.11,0.02,2.22,0.03,3.32,0.03c0.74,0,1.48,0,2.23-0.01
				c1.13-0.01,2.25-0.04,3.37-0.07c0.48-0.01,0.96-0.01,1.44-0.03c0.21-0.01,0.42-0.02,0.62-0.03c1.92-0.07,3.84-0.17,5.75-0.29
				c0.05,0,0.09,0,0.14-0.01c1.96-0.13,3.91-0.3,5.85-0.49c0.19-0.02,0.38-0.03,0.57-0.05c0.28-0.03,0.55-0.07,0.83-0.1
				c2.32-0.24,4.63-0.51,6.93-0.83c0.19-0.03,0.37-0.05,0.56-0.07c2.39-0.34,4.77-0.73,7.13-1.14c0.26-0.05,0.53-0.08,0.79-0.13
				c0.25-0.04,0.49-0.1,0.74-0.15c2.07-0.38,4.13-0.78,6.18-1.22c0.11-0.02,0.21-0.05,0.32-0.07c1.95-0.42,3.88-0.88,5.81-1.35
				c0.54-0.13,1.07-0.27,1.61-0.4c1.82-0.46,3.62-0.95,5.41-1.45c0.21-0.06,0.41-0.11,0.62-0.17c1.97-0.56,3.91-1.16,5.84-1.77
				c0.21-0.07,0.42-0.12,0.63-0.19c0.34-0.11,0.67-0.23,1-0.34c1.24-0.41,2.47-0.82,3.7-1.25c0.54-0.19,1.08-0.37,1.62-0.57
				c1.53-0.55,3.04-1.1,4.54-1.68c0.18-0.07,0.37-0.14,0.55-0.21c1.67-0.65,3.32-1.32,4.96-2c0.48-0.2,0.95-0.4,1.42-0.6
				c1.18-0.5,2.36-1.02,3.52-1.54c0.53-0.24,1.05-0.47,1.57-0.71c1.2-0.55,2.38-1.11,3.55-1.68c0.4-0.19,0.8-0.38,1.19-0.57
				c1.54-0.76,3.06-1.53,4.56-2.32c0.31-0.16,0.61-0.33,0.92-0.49c1.19-0.63,2.37-1.28,3.54-1.93c0.48-0.27,0.95-0.54,1.43-0.81
				c1.02-0.59,2.04-1.18,3.04-1.78c0.28-0.17,0.58-0.33,0.86-0.5c0.15-0.09,0.3-0.19,0.45-0.28c1.42-0.86,2.81-1.73,4.18-2.62
				l0.05-18.42C195.1,385.27,193.7,386.14,192.28,387.01z"/>
			<g>
				<linearGradient id="SVGID_32_" gradientUnits="userSpaceOnUse" x1="41.7449" y1="371.4846" x2="196.4642" y2="371.4846">
					<stop  offset="0" style="stop-color:#0B62A3"/>
					<stop  offset="1" style="stop-color:#3189C9"/>
				</linearGradient>
				<path class="st42" d="M196.46,384.39c-36.88,23.91-92.31,39.58-147.9,28.04c-20.11-32.16,6.76-64.33,47.92-85.76l63.38,21.09
					L196.46,384.39z"/>
			</g>
			<g>
				<path class="st21" d="M185.3,383.66c-17.56,10.64-37.83,18.6-58.94,23.14c-24.05,5.17-47.8,5.67-70.68,1.5
					c-7.27-13.24-6.49-27,2.36-40.95c7.77-12.25,21.44-24.01,39.75-34.22l55.47,18.46L185.3,383.66z"/>
			</g>
			<g>
				<polygon class="st26" points="140.97,377.46 141.01,385.31 85.75,385.31 85.64,364.28 99.18,364.28 99.26,377.46 				"/>
			</g>
		</g>
		<g>
			<linearGradient id="SVGID_33_" gradientUnits="userSpaceOnUse" x1="73.3389" y1="848.9842" x2="34.2076" y2="848.2077">
				<stop  offset="0" style="stop-color:#0B62A3"/>
				<stop  offset="1" style="stop-color:#3189C9"/>
			</linearGradient>
			<polygon class="st43" points="73.78,681.48 41.69,662.94 41.69,1015.87 73.78,1034.41 			"/>
			<linearGradient id="SVGID_34_" gradientUnits="userSpaceOnUse" x1="84.7863" y1="1016.0842" x2="52.6005" y2="1015.4455">
				<stop  offset="0" style="stop-color:#0B62A3"/>
				<stop  offset="1" style="stop-color:#3189C9"/>
			</linearGradient>
			<polygon class="st44" points="41.69,1015.87 73.78,1034.41 73.78,997.32 			"/>
		</g>
		<linearGradient id="SVGID_35_" gradientUnits="userSpaceOnUse" x1="114.9441" y1="1192.5125" x2="117.8581" y2="791.8419">
			<stop  offset="0" style="stop-color:#0B62A3"/>
			<stop  offset="1" style="stop-color:#3189C9"/>
		</linearGradient>
		<polygon class="st45" points="117.5,639.57 2.83,573.29 2.83,1175.92 117.5,1242.2 231.68,1175.92 231.68,573.29 		"/>
	</g>
	<g>
		<g>
			<g>
				<g class="st0">
					<g>
						<linearGradient id="SVGID_36_" gradientUnits="userSpaceOnUse" x1="1339.9747" y1="269.7482" x2="1320.7332" y2="324.1554">
							<stop  offset="0" style="stop-color:#A5D9F3"/>
							<stop  offset="1" style="stop-color:#528BC9"/>
						</linearGradient>
						<polygon class="st46" points="1390.87,296.99 1330.47,332.05 1269.81,296.99 1330.47,261.93 						"/>
					</g>
					<linearGradient id="SVGID_37_" gradientUnits="userSpaceOnUse" x1="1330.4706" y1="581.6091" x2="1390.8674" y2="581.6091">
						<stop  offset="0" style="stop-color:#0B62A3"/>
						<stop  offset="1" style="stop-color:#3189C9"/>
					</linearGradient>
					<polygon class="st47" points="1390.87,296.99 1390.87,831.16 1330.47,866.22 1330.47,332.05 					"/>
					<polygon class="st3" points="1330.47,332.05 1330.47,866.22 1269.81,831.16 1269.81,296.99 					"/>
				</g>
			</g>
			<polygon class="st15" points="1330.47,339.55 1390.87,304.49 1390.87,303.03 1330.47,338.09 			"/>
			<polygon class="st15" points="1269.81,304.49 1330.47,339.55 1330.47,338.09 1269.81,303.03 			"/>
			<linearGradient id="SVGID_38_" gradientUnits="userSpaceOnUse" x1="1346.5892" y1="148.6141" x2="1295.5425" y2="292.953">
				<stop  offset="0.0373" style="stop-color:#C3E7ED;stop-opacity:0"/>
				<stop  offset="0.6689" style="stop-color:#D4EEF3;stop-opacity:0.656"/>
				<stop  offset="1" style="stop-color:#E0F2F8"/>
			</linearGradient>
			<polygon class="st48" points="1274.92,150.65 1295.62,296.99 1330.41,317.11 1365.06,296.99 1385.76,150.65 			"/>
			<g>
				<polygon class="st3" points="1365.06,296.99 1330.41,317.11 1295.62,296.99 1330.41,276.88 				"/>
			</g>
			<g>
				<path class="st41" d="M1370.03,198.45c-0.23,0.14-0.46,0.28-0.7,0.42c-0.53,0.32-1.06,0.63-1.61,0.94
					c-0.25,0.14-0.5,0.29-0.75,0.43c-0.62,0.35-1.24,0.69-1.88,1.02c-0.16,0.09-0.32,0.17-0.48,0.26c-0.79,0.42-1.6,0.82-2.42,1.23
					c-0.21,0.1-0.42,0.2-0.63,0.3c-0.62,0.3-1.25,0.6-1.88,0.89c-0.28,0.13-0.55,0.25-0.83,0.38c-0.61,0.28-1.24,0.55-1.86,0.81
					c-0.25,0.11-0.5,0.21-0.75,0.32c-0.87,0.36-1.74,0.72-2.63,1.06c-0.1,0.04-0.19,0.07-0.29,0.11c-0.79,0.3-1.6,0.6-2.41,0.89
					c-0.28,0.1-0.57,0.2-0.86,0.3c-0.65,0.23-1.3,0.45-1.95,0.66c-0.29,0.09-0.57,0.19-0.86,0.28c-1.02,0.33-2.05,0.64-3.09,0.94
					c-0.11,0.03-0.22,0.06-0.32,0.09c-0.95,0.27-1.9,0.52-2.87,0.77c-0.28,0.07-0.57,0.14-0.85,0.21c-1.02,0.25-2.04,0.49-3.07,0.72
					c-0.06,0.01-0.11,0.03-0.17,0.04c-1.08,0.23-2.17,0.45-3.27,0.65c-0.27,0.05-0.54,0.1-0.81,0.14c-1.25,0.22-2.51,0.43-3.77,0.6
					c-0.1,0.01-0.2,0.02-0.3,0.04c-1.21,0.17-2.43,0.31-3.66,0.44c-0.25,0.03-0.5,0.05-0.75,0.08c-1.03,0.1-2.06,0.19-3.09,0.26
					c-0.03,0-0.06,0-0.1,0.01c-1,0.07-2.01,0.12-3.02,0.15c-0.36,0.01-0.73,0.02-1.09,0.03c-0.59,0.02-1.19,0.03-1.78,0.04
					c-0.39,0-0.78,0-1.18,0c-0.58,0-1.17-0.01-1.76-0.02c-0.41-0.01-0.81-0.02-1.22-0.03c-0.51-0.02-1.02-0.04-1.54-0.06
					c-0.43-0.02-0.85-0.04-1.28-0.06c-0.51-0.03-1.03-0.07-1.55-0.1c-0.43-0.03-0.85-0.06-1.28-0.1c-0.51-0.04-1.03-0.1-1.54-0.15
					c-0.42-0.04-0.85-0.08-1.27-0.13c-0.52-0.06-1.05-0.13-1.58-0.2c-0.41-0.05-0.83-0.11-1.24-0.17c-0.62-0.09-1.24-0.19-1.86-0.29
					c-0.34-0.06-0.69-0.11-1.03-0.17c-0.79-0.14-1.58-0.29-2.38-0.45c-0.19-0.04-0.37-0.07-0.56-0.11
					c-2.49-3.98-3.62-7.96-3.61-11.87l-0.03,9.74c-0.01,3.91,1.12,7.89,3.61,11.87c0.02,0.01,0.05,0.01,0.07,0.02
					c0.16,0.03,0.32,0.06,0.48,0.09c0.79,0.16,1.58,0.31,2.38,0.45c0.34,0.06,0.69,0.11,1.03,0.17c0.62,0.1,1.24,0.2,1.86,0.29
					c0.09,0.01,0.18,0.03,0.27,0.04c0.32,0.05,0.64,0.08,0.97,0.12c0.52,0.07,1.05,0.14,1.57,0.2c0.42,0.05,0.85,0.09,1.27,0.13
					c0.51,0.05,1.03,0.11,1.54,0.15c0.14,0.01,0.28,0.03,0.41,0.04c0.29,0.02,0.58,0.04,0.86,0.06c0.52,0.04,1.03,0.08,1.55,0.1
					c0.43,0.02,0.85,0.04,1.28,0.06c0.51,0.02,1.02,0.04,1.54,0.06c0.18,0.01,0.37,0.02,0.55,0.02c0.22,0.01,0.45,0,0.67,0.01
					c0.59,0.01,1.17,0.02,1.76,0.02c0.39,0,0.79,0,1.18,0c0.6-0.01,1.19-0.02,1.78-0.04c0.25-0.01,0.51-0.01,0.76-0.02
					c0.11,0,0.22-0.01,0.33-0.02c1.02-0.04,2.03-0.09,3.04-0.15c0.02,0,0.05,0,0.07,0c1.04-0.07,2.07-0.16,3.1-0.26
					c0.1-0.01,0.2-0.02,0.3-0.03c0.15-0.01,0.29-0.04,0.44-0.05c1.23-0.13,2.45-0.27,3.66-0.44c0.1-0.01,0.2-0.02,0.29-0.04
					c1.27-0.18,2.52-0.38,3.77-0.6c0.14-0.02,0.28-0.04,0.42-0.07c0.13-0.02,0.26-0.05,0.39-0.08c1.1-0.2,2.19-0.41,3.27-0.65
					c0.06-0.01,0.11-0.03,0.17-0.04c1.03-0.22,2.06-0.47,3.07-0.72c0.28-0.07,0.57-0.14,0.85-0.21c0.96-0.25,1.92-0.5,2.86-0.77
					c0.11-0.03,0.22-0.06,0.33-0.09c1.04-0.3,2.07-0.61,3.09-0.94c0.11-0.03,0.22-0.07,0.33-0.1c0.18-0.06,0.35-0.12,0.53-0.18
					c0.66-0.21,1.31-0.43,1.95-0.66c0.29-0.1,0.57-0.2,0.86-0.3c0.81-0.29,1.61-0.58,2.4-0.89c0.1-0.04,0.2-0.07,0.29-0.11
					c0.89-0.34,1.76-0.7,2.62-1.06c0.25-0.11,0.5-0.21,0.75-0.32c0.63-0.27,1.25-0.54,1.86-0.81c0.28-0.13,0.56-0.25,0.83-0.38
					c0.63-0.29,1.26-0.59,1.88-0.89c0.21-0.1,0.42-0.2,0.63-0.3c0.82-0.4,1.62-0.81,2.41-1.23c0.16-0.09,0.32-0.17,0.49-0.26
					c0.63-0.34,1.26-0.68,1.87-1.02c0.25-0.14,0.5-0.28,0.75-0.43c0.54-0.31,1.08-0.62,1.61-0.94c0.15-0.09,0.31-0.18,0.46-0.27
					c0.08-0.05,0.16-0.1,0.24-0.15c0.75-0.46,1.49-0.92,2.21-1.38l0.03-9.74C1371.52,197.53,1370.78,197.99,1370.03,198.45z"/>
				<g>
					<linearGradient id="SVGID_39_" gradientUnits="userSpaceOnUse" x1="1290.3939" y1="190.2381" x2="1372.2396" y2="190.2381">
						<stop  offset="0" style="stop-color:#0B62A3"/>
						<stop  offset="1" style="stop-color:#3189C9"/>
					</linearGradient>
					<path class="st49" d="M1372.24,197.06c-19.51,12.65-48.83,20.94-78.24,14.83c-10.64-17.01,3.57-34.03,25.35-45.37l33.53,11.16
						L1372.24,197.06z"/>
				</g>
				<g>
					<path class="st21" d="M1366.33,196.68c-9.29,5.63-20.01,9.84-31.18,12.24c-12.72,2.73-25.29,3-37.39,0.8
						c-3.85-7-3.43-14.28,1.25-21.66c4.11-6.48,11.34-12.7,21.03-18.1l29.34,9.77L1366.33,196.68z"/>
				</g>
				<g>
					<polygon class="st26" points="1342.88,193.4 1342.9,197.55 1313.67,197.55 1313.61,186.42 1320.78,186.42 1320.82,193.4 					
						"/>
				</g>
			</g>
		</g>
		<linearGradient id="SVGID_40_" gradientUnits="userSpaceOnUse" x1="1327.4135" y1="758.6382" x2="1333.2412" y2="371.0806">
			<stop  offset="0" style="stop-color:#578ECB"/>
			<stop  offset="0.4936" style="stop-color:#5A94CE;stop-opacity:0.5064"/>
			<stop  offset="1" style="stop-color:#609DD5;stop-opacity:0"/>
		</linearGradient>
		<polygon class="st50" points="1367.02,283.15 1385.75,150.65 1274.92,150.65 1293.67,283.2 1269.81,296.99 1269.81,831.16 
			1330.47,866.22 1390.87,831.16 1390.87,296.99 		"/>
	</g>
	<g>
		<g>
			<g>
				<g class="st0">
					<g>
						<linearGradient id="SVGID_41_" gradientUnits="userSpaceOnUse" x1="1238.4084" y1="757.559" x2="1158.9755" y2="982.1625">
							<stop  offset="0" style="stop-color:#A5D9F3"/>
							<stop  offset="1" style="stop-color:#528BC9"/>
						</linearGradient>
						<polygon class="st51" points="1448.5,870.03 1199.17,1014.77 948.76,870.04 1199.17,725.3 						"/>
					</g>
					<linearGradient id="SVGID_42_" gradientUnits="userSpaceOnUse" x1="1199.1736" y1="1121.3768" x2="1448.5039" y2="1121.3768">
						<stop  offset="0" style="stop-color:#0B62A3"/>
						<stop  offset="1" style="stop-color:#3189C9"/>
					</linearGradient>
					<polygon class="st52" points="1448.5,870.03 1448.5,1227.98 1199.17,1372.72 1199.17,1014.77 					"/>
					<linearGradient id="SVGID_43_" gradientUnits="userSpaceOnUse" x1="948.757" y1="1121.3779" x2="1199.1736" y2="1121.3779">
						<stop  offset="0" style="stop-color:#0B62A3"/>
						<stop  offset="1" style="stop-color:#3189C9"/>
					</linearGradient>
					<polygon class="st53" points="1199.17,1014.77 1199.17,1372.72 948.76,1227.99 948.76,870.04 					"/>
				</g>
			</g>
			<polygon class="st15" points="1199.17,1043.43 1448.5,898.69 1448.5,894.96 1199.17,1039.69 			"/>
			<polygon class="st15" points="948.76,898.69 1199.17,1043.43 1199.17,1039.69 948.76,894.96 			"/>
		</g>
		<g>
			<g class="st0">
				<path class="st54" d="M1319.92,832.26c-0.02,0.19-0.03,0.38-0.07,0.57c-0.03,0.15-0.07,0.31-0.11,0.46
					c-0.05,0.18-0.09,0.36-0.16,0.54c-0.05,0.15-0.12,0.29-0.18,0.44c-0.08,0.19-0.16,0.38-0.26,0.56c-0.07,0.13-0.16,0.27-0.24,0.4
					c-0.13,0.21-0.27,0.42-0.42,0.63c-0.09,0.12-0.19,0.24-0.29,0.36c-0.23,0.28-0.49,0.55-0.76,0.82c-0.1,0.1-0.19,0.2-0.3,0.29
					c-0.17,0.15-0.36,0.3-0.55,0.45c-0.17,0.13-0.33,0.27-0.51,0.4c-0.2,0.15-0.42,0.29-0.64,0.43c-0.23,0.15-0.44,0.3-0.69,0.44
					l-152.19,88.44c-7,4.07-18.41,4.07-25.46,0l-70.14-40.49c-3.55-2.05-5.32-4.74-5.31-7.43l-0.03,9.3
					c-0.01,2.69,1.76,5.38,5.31,7.43l70.13,40.49c7.05,4.07,18.46,4.07,25.46,0l152.19-88.44c0.07-0.04,0.15-0.09,0.22-0.13
					c0.17-0.1,0.31-0.21,0.47-0.31c0.22-0.14,0.44-0.28,0.64-0.43c0.18-0.13,0.34-0.27,0.51-0.4c0.19-0.15,0.38-0.3,0.55-0.45
					c0.03-0.03,0.08-0.06,0.11-0.09c0.07-0.07,0.12-0.14,0.19-0.2c0.28-0.27,0.53-0.54,0.76-0.82c0.05-0.06,0.12-0.12,0.17-0.18
					c0.05-0.06,0.08-0.12,0.12-0.18c0.15-0.21,0.29-0.42,0.42-0.63c0.06-0.09,0.13-0.17,0.18-0.26c0.03-0.05,0.04-0.09,0.06-0.14
					c0.1-0.18,0.18-0.37,0.26-0.56c0.05-0.11,0.11-0.22,0.15-0.33c0.01-0.04,0.02-0.08,0.03-0.11c0.06-0.18,0.11-0.36,0.15-0.54
					c0.03-0.12,0.08-0.24,0.1-0.36c0.01-0.03,0.01-0.07,0.01-0.1c0.03-0.19,0.05-0.38,0.07-0.57c0.01-0.12,0.04-0.24,0.04-0.37
					c0-0.05,0-0.11,0-0.16l0.03-9.3C1319.96,831.91,1319.93,832.08,1319.92,832.26z"/>
				<g>
					<linearGradient id="SVGID_44_" gradientUnits="userSpaceOnUse" x1="1061.6388" y1="855.6559" x2="1319.9637" y2="855.6559">
						<stop  offset="0" style="stop-color:#0B62A3"/>
						<stop  offset="1" style="stop-color:#3189C9"/>
					</linearGradient>
					<path class="st55" d="M1314.65,824.31c7.05,4.07,7.09,10.68,0.08,14.75l-152.19,88.44c-7,4.07-18.41,4.07-25.46,0l-70.14-40.49
						c-7.05-4.07-7.09-10.68-0.08-14.75l152.19-88.44c7-4.07,18.41-4.07,25.46,0L1314.65,824.31z M1158.89,925.39l152.19-88.44
						c4.99-2.9,4.97-7.63-0.06-10.53l-6.32-3.65l-9.54,0.26l-48.38-27.93l0.42-5.52l-6.32-3.65c-5.02-2.9-13.18-2.9-18.17,0
						l-152.19,88.44c-4.99,2.9-4.96,7.63,0.06,10.53l70.13,40.49C1145.74,928.29,1153.9,928.29,1158.89,925.39"/>
				</g>
				<g>
					<path class="st56" d="M1311.02,826.42c5.02,2.9,5.05,7.63,0.06,10.53l-152.19,88.44c-4.99,2.9-13.15,2.9-18.17,0l-70.13-40.49
						c-5.02-2.9-5.05-7.63-0.06-10.53l152.19-88.44c4.99-2.9,13.15-2.9,18.17,0l6.32,3.65l-0.42,5.52l48.38,27.93l9.54-0.26
						L1311.02,826.42z"/>
				</g>
				<g>
					<path class="st56" d="M1311.02,826.42c5.02,2.9,5.05,7.63,0.06,10.53l-152.19,88.44c-4.99,2.9-13.15,2.9-18.17,0l-70.13-40.49
						c-5.02-2.9-5.05-7.63-0.06-10.53l152.19-88.44c4.99-2.9,13.15-2.9,18.17,0l6.32,3.65l-0.42,5.52l48.38,27.93l9.54-0.26
						L1311.02,826.42z"/>
				</g>
			</g>
		</g>
		<g>
			<g class="st57">
				<path class="st24" d="M1119.65,815.71c8.81,5.08,8.85,13.31,0.1,18.39c-8.79,5.11-22.99,5.11-31.79,0.02
					c-8.81-5.08-8.89-13.33-0.1-18.44C1096.61,810.6,1110.85,810.63,1119.65,815.71z"/>
			</g>
			<g>
				<g>
					<path class="st3" d="M1090.58,819.62c0,0-1.27,0.16-1.51,0.65c-0.24,0.49-0.37,4.68-0.34,5.26c0,0,3.34,3.29,6.47,4.89
						c3.13,1.6,5.83,2.3,7.04,1.25c1.21-1.05,0.46-2.27-2.11-4.36c-2.57-2.09-5.06-7.69-5.06-7.68
						C1095.07,819.63,1090.58,819.62,1090.58,819.62z"/>
					<path class="st3" d="M1107.02,813.01c0,0-1.27,0.16-1.51,0.65c-0.24,0.49-0.37,4.68-0.34,5.26c0,0,3.34,3.29,6.47,4.89
						c3.13,1.6,5.83,2.3,7.04,1.25c1.21-1.05,0.46-2.27-2.11-4.36c-2.57-2.09-5.06-7.69-5.06-7.68
						C1111.51,813.01,1107.02,813.01,1107.02,813.01z"/>
					<path class="st25" d="M1116.1,752.24c0,0-0.09,1.67-0.16,1.99c-0.06,0.32-1.5,2.44-1.52,3.14c-0.03,0.7,0.73,1.28,0.73,1.28
						s0.03,1.56,0.18,1.87c0.15,0.32,1.58,0.11,1.74,0.19c0.16,0.08,1.07,0.66,1.68,0.41s2.3-0.79,2.51-1
						c0.21-0.21,0.38-5.41-0.39-9.38c-0.26-1.33-1.44-32.12-2.15-31.89C1117.3,719.31,1116.1,752.24,1116.1,752.24z"/>
					<path class="st27" d="M1120.59,722.51c-0.63-3.04-1.41-6.58-2.07-9.02c-1.4-5.13-2.42-9.11-5.41-9.2l-1.02,17.4
						c0,0,0.32,2.62,0.87,5.6C1115.65,725.97,1118.13,724.26,1120.59,722.51z"/>
					<path class="st3" d="M1088.66,755.37l-0.23,65.52c0,0,3.64,2.21,7.83-0.17c0,0,7.42-56.6,7.54-57.95
						c0.12-1.24,1.05,51.68,1.05,51.68s4.6,2.64,8.09-0.94l4.13-62.69L1088.66,755.37z"/>
					<path class="st27" d="M1095.19,706.41c0,0-4.89,1.81-9.23,5.36l2.7,43.6c0,0,5.64,4.13,17.17,1.11
						c9.39-2.46,11.86-6.41,11.86-6.41s0.86-21.43-0.02-30.49c-0.88-9.06-4.56-15.29-4.56-15.29c-2.05-0.62-6.57-0.36-6.57-0.36
						L1095.19,706.41z"/>
					<path class="st3" d="M1107.33,679.84c-2.01-0.72-3.69-0.72-5.88-0.48c-4.12,0.44-7.58,2.44-8.27,6.86
						c-0.52,3.33,0.72,6.73,2.04,9.73c1.74,3.97,2.96,2.53,2.96,2.53c3.37-1.36,6.73-2.71,10.1-4.07c0.93-0.38,2.33-0.65,3.11-1.33
						c1.23-1.08,0.83-2.93,1.05-4.38c0.3-1.94,0.6-3.58-0.47-5.38c-0.85-1.43-2.25-2.46-3.77-3.13
						C1107.89,680.05,1107.61,679.94,1107.33,679.84z"/>
					<path class="st25" d="M1097.08,704.31l-0.26-8.73c0,0-2.2-0.17-1.82-2.57c0.38-2.41,2.63-0.82,3.03-0.12
						c0,0,0.51-8.28,4.89-9.08c4.39-0.8,8.64,0.15,8.75,2.28c0.11,2.14,0.25,9.61,0,12.38c-0.25,2.78-2.43,3.91-6.44,3.8l0.27,4.49
						c0,0-2.01,1.48-7.63,0.11L1097.08,704.31z"/>
					<path class="st27" d="M1105.3,703.2c0,0,0.77-0.01,1.07,0.16c0.3,0.17,1.9,1.78,1.94,3.55c0.04,1.77-0.68,3.79-0.68,3.79
						l-3.64-3.28l-2.29,4.42c0,0-1.43-0.28-3.38-1.75c-1.96-1.47-3.14-3.67-3.14-3.67c0.63-1.6,1.05-2.55,1.05-2.55
						c0.15-0.37,0.84-0.54,0.84-0.54s3.87,3.51,6.91,3.68C1103.99,707.02,1105.08,706.51,1105.3,703.2z"/>
					<path class="st25" d="M1088.63,758.35c0,0,0.43,1.61,0.56,1.91c0.13,0.3,1.96,2.08,2.13,2.76c0.17,0.68-0.46,1.4-0.46,1.4
						s0.29,1.53,0.2,1.87c-0.09,0.34-1.53,0.43-1.66,0.54c-0.14,0.11-0.92,0.86-1.56,0.74s-2.41-0.31-2.66-0.47
						c-0.25-0.17-1.46-5.23-1.51-9.27c-0.02-1.52,0.5-31.77,0.5-31.77c0.42,0.1,6.6,2.47,6.6,2.47L1088.63,758.35z"/>
					<path class="st27" d="M1091.14,730.73c0.08-3.83,0.24-8,0.19-9.01c-0.17-3.43-0.16-13.08-5.36-9.96
						c-2.1,1.26-2.57,10.61-3.01,16.91C1085.31,730.3,1089.01,730.73,1091.14,730.73z"/>
				</g>
			</g>
			<path class="st3" d="M1111.94,687.19c0.51-0.94,0.34-2.16-0.24-3.06c-0.58-0.91-1.49-1.54-2.46-2.01
				c-2.4-1.16-9.12-2.43-9.31,1.74c-0.09,2.08,1.7,5.54,4.19,5.1c1.07-0.19,1.69-1.18,2.87-0.85c0.59,0.17,2.18,1.66,2.25,0.06
				C1110.23,688.58,1111.43,688.14,1111.94,687.19z"/>
			<path class="st3" d="M1096.63,691.18c1.24,1.03,2.06,2.55,2.24,4.15c0.28,0.01,0.56,0.01,0.83,0.02c-0.04-1.11,0.04-2.09,0-3.19
				c1.56-1.77,2.28-4.24,1.78-6.55c-0.2-0.94-0.76-1.98-1.72-2.07c-0.97-0.09-1.7,0.85-2.11,1.73
				C1096.81,687.1,1096.38,689.19,1096.63,691.18z"/>
		</g>
		<linearGradient id="SVGID_45_" gradientUnits="userSpaceOnUse" x1="1185.1925" y1="627.4645" x2="1176.4434" y2="891.3982">
			<stop  offset="0.0373" style="stop-color:#C3E7ED;stop-opacity:0"/>
			<stop  offset="0.6689" style="stop-color:#D4EEF3;stop-opacity:0.656"/>
			<stop  offset="1" style="stop-color:#E0F2F8"/>
		</linearGradient>
		<path class="st58" d="M1021.57,560.97c0.68,42.4,45.31,319.54,45.31,319.54l0.06-0.01c0.33,1.61,1.51,3.17,3.64,4.4l70.13,40.49
			c5.02,2.9,13.18,2.9,18.17,0l152.19-88.44c2.47-1.44,3.71-3.32,3.72-5.21l0.01,0c0,0,25.82-169.97,38.42-270.76H1021.57z"/>
		<g>
			<g class="st0">
				<g>
					<linearGradient id="SVGID_46_" gradientUnits="userSpaceOnUse" x1="1170.464" y1="777.357" x2="1284.2035" y2="777.357">
						<stop  offset="0" style="stop-color:#0B62A3"/>
						<stop  offset="1" style="stop-color:#3189C9"/>
					</linearGradient>
					<path class="st59" d="M1230.65,839.79c-0.99,0.57-1.78,0.12-1.78-1.02s0.78-2.5,1.77-3.07l8.7-5.02
						c0.99-0.57,1.78-0.12,1.78,1.02s-0.78,2.5-1.77,3.07L1230.65,839.79 M1186.86,856.46c-0.99,0.57-1.78,0.12-1.78-1.02
						c0-1.11,0.78-2.47,1.77-3.05l14.49-8.37c0.97-0.56,1.76-0.11,1.76,1c0,1.14-0.78,2.5-1.75,3.06L1186.86,856.46 M1186.83,847.88
						c-0.99,0.57-1.78,0.12-1.78-1.02c0-1.14,0.78-2.5,1.77-3.07l34.85-20.12c0.97-0.56,1.76-0.11,1.76,1.03
						c0,1.14-0.78,2.5-1.75,3.06L1186.83,847.88 M1228.58,823.77c-0.99,0.57-1.78,0.12-1.78-1.02c0-1.14,0.78-2.5,1.77-3.07
						l10.72-6.19c0.99-0.57,1.78-0.12,1.78,1.02c0,1.14-0.78,2.5-1.77,3.07L1228.58,823.77 M1248.21,829.65l-0.08-29.8l20.99-12.12
						l0.08,29.8L1248.21,829.65 M1186.81,839.27c-0.99,0.57-1.78,0.12-1.78-0.99c0-1.14,0.78-2.5,1.77-3.07l10.72-6.19
						c0.99-0.57,1.78-0.12,1.78,1.02c0,1.11-0.78,2.48-1.77,3.05L1186.81,839.27 M1204.42,829.1c-0.99,0.57-1.78,0.12-1.78-0.99
						c0-1.14,0.78-2.5,1.77-3.07l34.85-20.12c0.99-0.57,1.78-0.12,1.78,1.02c0,1.11-0.78,2.47-1.77,3.05L1204.42,829.1
						 M1186.76,822.09c-0.99,0.57-1.78,0.12-1.78-0.99c0-1.14,0.78-2.5,1.77-3.07l16.62-9.6c0.99-0.57,1.78-0.12,1.78,1.02
						c0,1.11-0.78,2.47-1.77,3.05L1186.76,822.09 M1186.74,813.51c-0.99,0.57-1.78,0.12-1.78-1.02c0-1.11,0.78-2.47,1.77-3.05
						l64.95-37.5c0.99-0.57,1.78-0.12,1.78,0.99c0,1.14-0.78,2.5-1.77,3.07L1186.74,813.51 M1258.58,772.03
						c-0.97,0.56-1.78,0.12-1.78-1.02c0-1.11,0.81-2.49,1.77-3.05l8.7-5.02c0.99-0.57,1.78-0.12,1.78,0.99
						c0,1.14-0.78,2.5-1.77,3.07L1258.58,772.03 M1186.71,804.93c-0.99,0.57-1.78,0.09-1.78-1.02c0-1.14,0.78-2.5,1.77-3.07
						l50.9-29.39c0.99-0.57,1.78-0.12,1.78,1.02c0,1.11-0.78,2.5-1.77,3.07L1186.71,804.93 M1245.36,771.07
						c-0.97,0.56-1.76,0.08-1.76-1.03c0-1.14,0.78-2.5,1.75-3.06l21.89-12.64c0.99-0.57,1.78-0.12,1.78,1.02
						c0,1.11-0.78,2.5-1.77,3.07L1245.36,771.07 M1186.69,796.33c-0.99,0.57-1.78,0.12-1.78-1.02c0-1.11,0.78-2.47,1.77-3.05
						l80.55-46.5c0.99-0.57,1.78-0.12,1.78,0.99c0,1.14-0.78,2.5-1.77,3.07L1186.69,796.33 M1185.6,783.84l-0.13-44.21l83.38-48.14
						l0.13,44.21L1185.6,783.84 M1278.73,669.46l-103.23,59.6c-2.79,1.61-5.04,5.52-5.03,8.72l0.41,144.58
						c0.01,3.2,2.28,4.5,5.07,2.89l103.23-59.6c2.79-1.61,5.04-5.51,5.03-8.72l-0.41-144.58
						C1283.78,669.15,1281.52,667.85,1278.73,669.46"/>
					<polyline class="st15" points="1268.85,691.49 1185.47,739.63 1185.6,783.84 1268.97,735.7 1268.85,691.49 					"/>
					<path class="st15" d="M1267.22,745.76l-80.55,46.5c-0.99,0.57-1.78,1.94-1.77,3.05c0,1.14,0.8,1.59,1.78,1.02l80.55-46.5
						c0.99-0.57,1.78-1.94,1.77-3.07C1269,745.64,1268.21,745.19,1267.22,745.76"/>
					<path class="st15" d="M1237.6,771.46l-50.9,29.39c-0.99,0.57-1.78,1.94-1.77,3.07c0,1.11,0.8,1.59,1.78,1.02l50.9-29.39
						c0.99-0.57,1.78-1.96,1.77-3.07C1239.38,771.34,1238.59,770.88,1237.6,771.46"/>
					<path class="st15" d="M1267.24,754.34l-21.89,12.64c-0.97,0.56-1.75,1.92-1.75,3.06c0,1.11,0.8,1.59,1.76,1.03l21.89-12.64
						c0.99-0.57,1.78-1.96,1.77-3.07C1269.03,754.22,1268.23,753.77,1267.24,754.34"/>
					<path class="st15" d="M1251.68,771.95l-64.95,37.5c-0.99,0.57-1.78,1.94-1.77,3.05c0,1.14,0.8,1.59,1.78,1.02l64.95-37.5
						c0.99-0.57,1.78-1.94,1.77-3.07C1253.46,771.83,1252.67,771.38,1251.68,771.95"/>
					<path class="st15" d="M1267.27,762.94l-8.7,5.02c-0.97,0.56-1.78,1.94-1.77,3.05c0,1.14,0.82,1.57,1.78,1.02l8.7-5.02
						c0.99-0.57,1.78-1.94,1.77-3.07C1269.05,762.83,1268.26,762.37,1267.27,762.94"/>
					<path class="st15" d="M1203.37,808.43l-16.62,9.6c-0.99,0.57-1.78,1.94-1.77,3.07c0,1.11,0.8,1.56,1.78,0.99l16.62-9.6
						c0.99-0.57,1.78-1.94,1.77-3.05C1205.15,808.31,1204.36,807.86,1203.37,808.43"/>
					<path class="st15" d="M1239.28,813.5l-10.72,6.19c-0.99,0.57-1.78,1.94-1.77,3.07c0,1.14,0.8,1.59,1.78,1.02l10.72-6.19
						c0.99-0.57,1.78-1.94,1.77-3.07C1241.06,813.38,1240.27,812.93,1239.28,813.5"/>
					<path class="st15" d="M1221.67,823.67l-34.85,20.12c-0.99,0.57-1.78,1.94-1.77,3.07c0,1.14,0.8,1.59,1.78,1.02l34.85-20.12
						c0.97-0.56,1.75-1.92,1.75-3.06C1223.43,823.56,1222.64,823.11,1221.67,823.67"/>
					<path class="st15" d="M1239.33,830.68l-8.7,5.02c-0.99,0.57-1.78,1.94-1.77,3.07s0.8,1.59,1.78,1.02l8.7-5.02
						c0.99-0.57,1.78-1.94,1.77-3.07S1240.32,830.11,1239.33,830.68"/>
					<path class="st15" d="M1201.34,844.03l-14.49,8.37c-0.99,0.57-1.78,1.94-1.77,3.05c0,1.14,0.8,1.59,1.78,1.02l14.49-8.37
						c0.97-0.56,1.75-1.92,1.75-3.06C1203.1,843.92,1202.3,843.47,1201.34,844.03"/>
					<path class="st15" d="M1197.51,829.02l-10.72,6.19c-0.99,0.57-1.78,1.94-1.77,3.07c0,1.11,0.8,1.56,1.78,0.99l10.72-6.19
						c0.99-0.57,1.78-1.94,1.77-3.05C1199.29,828.9,1198.5,828.45,1197.51,829.02"/>
					<path class="st15" d="M1239.26,804.92l-34.85,20.12c-0.99,0.57-1.78,1.94-1.77,3.07c0,1.11,0.8,1.56,1.78,0.99l34.85-20.12
						c0.99-0.57,1.78-1.94,1.77-3.05C1241.04,804.8,1240.24,804.35,1239.26,804.92"/>
					<polyline class="st15" points="1269.12,787.73 1248.13,799.85 1248.21,829.65 1269.2,817.53 1269.12,787.73 					"/>
				</g>
			</g>
		</g>
	</g>
	<g>
		<linearGradient id="SVGID_47_" gradientUnits="userSpaceOnUse" x1="343.4814" y1="591.8634" x2="344.2019" y2="913.6413">
			<stop  offset="0.0373" style="stop-color:#C3E7ED;stop-opacity:0"/>
			<stop  offset="0.6689" style="stop-color:#D4EEF3;stop-opacity:0.656"/>
			<stop  offset="1" style="stop-color:#E0F2F8"/>
		</linearGradient>
		<polygon class="st60" points="182.89,548.78 182.89,901.71 344.13,994.9 504.67,901.71 504.67,548.78 		"/>
		<g>
			<g>
				<g class="st0">
					<g>
						<linearGradient id="SVGID_48_" gradientUnits="userSpaceOnUse" x1="369.3924" y1="748.6444" x2="318.2468" y2="893.263">
							<stop  offset="0" style="stop-color:#A5D9F3"/>
							<stop  offset="1" style="stop-color:#528BC9"/>
						</linearGradient>
						<polygon class="st61" points="504.67,821.07 344.13,914.26 182.89,821.07 344.13,727.87 						"/>
					</g>
					<linearGradient id="SVGID_49_" gradientUnits="userSpaceOnUse" x1="344.1297" y1="1044.1266" x2="504.6694" y2="1044.1266">
						<stop  offset="0" style="stop-color:#0B62A3"/>
						<stop  offset="1" style="stop-color:#3189C9"/>
					</linearGradient>
					<polygon class="st62" points="504.67,821.07 504.67,1173.99 344.13,1267.19 344.13,914.26 					"/>
					<linearGradient id="SVGID_50_" gradientUnits="userSpaceOnUse" x1="182.8905" y1="1044.1273" x2="344.1297" y2="1044.1273">
						<stop  offset="0" style="stop-color:#0B62A3"/>
						<stop  offset="1" style="stop-color:#3189C9"/>
					</linearGradient>
					<polygon class="st63" points="344.13,914.26 344.13,1267.19 182.89,1174 182.89,821.07 					"/>
				</g>
			</g>
			<polygon class="st15" points="344.13,934.18 504.67,840.99 504.67,837.11 344.13,930.31 			"/>
			<polygon class="st15" points="182.89,840.99 344.13,934.18 344.13,930.31 182.89,837.11 			"/>
		</g>
		<g>
			<path class="st64" d="M411.76,856.15c-9.34-5.39-24.44-5.42-33.71-0.02c-9.32,5.42-9.23,14.16,0.11,19.55
				c9.34,5.39,24.4,5.39,33.71-0.02C421.15,870.27,421.1,861.55,411.76,856.15z"/>
			<path class="st3" d="M412.29,915.43c0,0-1.22,0.15-1.45,0.62c-0.23,0.47-0.35,4.5-0.33,5.05c0,0,3.21,3.16,6.21,4.7
				c3,1.54,5.6,2.21,6.76,1.2c1.16-1.01,0.44-2.18-2.03-4.19c-2.47-2.01-4.86-7.38-4.86-7.38
				C416.6,915.44,412.29,915.43,412.29,915.43z"/>
			<path class="st3" d="M418.34,903.11c0,0-1.22-0.16-1.56,0.23c-0.34,0.4-1.48,4.26-1.6,4.8c0,0,2.3,3.87,4.82,6.12
				c2.51,2.25,4.85,3.56,6.23,2.88c1.38-0.68,0.98-1.99-0.9-4.56c-1.88-2.57-2.82-8.37-2.82-8.37
				C422.5,904.21,418.34,903.11,418.34,903.11z"/>
			<path class="st3" d="M378.45,852.76c-0.09,5.71,0.64,14.78,3.59,16.8c4.49,3.08,22.93,17.25,22.93,17.25l5.02,29.14
				c0,0,3.13,3.1,7.99,0c0,0-3.27-32.77-3.98-35.64c-0.71-2.88-17.74-21.4-17.74-21.4L378.45,852.76z"/>
			<path class="st3" d="M393.89,849.76c-1.54,5.5-2.61,12.01-0.12,14.56c2.7,2.77,30.67,11.11,30.67,11.11l-8.28,27.86
				c0,0,2.24,3.79,7.73,2.03c0,0,14.92-31.83,14.96-34.8s-28.16-16.62-28.16-16.62L393.89,849.76z"/>
			<g>
				<g>
					<g class="st0">
						<g>
							<path class="st65" d="M438.86,861.67l-27.38,15.91c0.08-0.05,0.14-0.15,0.14-0.29l27.38-15.91
								C438.99,861.52,438.94,861.62,438.86,861.67z"/>
						</g>
						<g>
							<polygon class="st65" points="411.62,876.7 438.99,860.79 438.99,861.38 411.62,877.29 							"/>
						</g>
						<g>
							<polygon class="st66" points="391.02,864.58 418.39,848.67 438.82,860.47 411.45,876.38 							"/>
						</g>
						<g>
							<path class="st3" d="M432.79,859.7c0.41,0.24,0.44,0.63,0.01,0.88l-20.57,11.95c-0.41,0.24-1.11,0.24-1.52,0l-7.78-4.49
								c-0.41-0.24-0.39-0.63,0.02-0.87l20.57-11.95c0.43-0.25,1.09-0.25,1.5-0.01L432.79,859.7z"/>
						</g>
						<path class="st66" d="M412.65,877.29l8.49-14.99l27.38-15.91l-8.49,14.99c-0.02,0.04-0.05,0.08-0.09,0.1l-27.38,15.91
							C412.6,877.37,412.63,877.34,412.65,877.29z"/>
						<g>
							<path class="st66" d="M420.49,860.39l0.23,0.24c0.46,0.53,0.65,1.27,0.42,1.67l-8.49,14.99c-0.32,0.69-1.24,0.4-1.49,0.26
								l-19.21-11.09c-0.52-0.3-0.93-1.02-0.93-1.61l0-0.26l20.43,11.8L420.49,860.39z"/>
						</g>
						<path class="st66" d="M420.49,860.39l27.38-15.91l0.23,0.24c0.46,0.53,0.65,1.27,0.42,1.67l-27.38,15.91
							c0.23-0.39,0.04-1.14-0.42-1.67L420.49,860.39z"/>
					</g>
				</g>
				<g>
					<path class="st3" d="M417.99,855.67c0.18,0.1,0.19,0.28,0,0.39l-6.8,3.95c-0.18,0.1-0.49,0.1-0.67,0l-3.41-1.97
						c-0.18-0.1-0.17-0.28,0.01-0.38l6.8-3.95c0.19-0.11,0.48-0.11,0.66-0.01L417.99,855.67z"/>
				</g>
			</g>
			<path class="st25" d="M406.7,825.74c0,0,3.01,7.64,3.63,9.73c0.62,2.08,7.71,14.58,8.13,15.21c0.42,0.63,5.63,4.8,5.63,5.42
				c0,0.62-0.42,1.8-2.08,2c-1.67,0.19-6.15-3.06-6.15-3.06s-1.14,2.89-1.61-0.58c-0.47-3.46,0.88-2.92-0.27-4.69
				c0,0-7.5-5.02-9.27-11.48c-1.77-6.46-0.21-11.88-0.21-11.88L406.7,825.74z"/>
			<path class="st66" d="M408.95,826.91c-1.38-6.42-4.28-14.81-7.03-15.14l2.53,18.31C404.45,830.09,406.99,829.26,408.95,826.91z"
				/>
			<path class="st66" d="M384.72,813.8c0,0-4.69,1.73-8.86,5.14l2.59,36.5c0,0,5.42,3.96,16.49,1.07
				c9.02-2.36,11.39-6.16,11.39-6.16s0.82-17.89-0.02-26.59c-0.85-8.7-4.38-11.99-4.38-11.99c-1.97-0.6-6.31-0.35-6.31-0.35
				L384.72,813.8z"/>
			<path class="st3" d="M396.95,788.99c0,0-5.83-1.43-11.52,0.7c-5.69,2.13-2.37,10.23-0.69,14.05c1.67,3.82,2.84,2.43,2.84,2.43
				l12.39-5c0,0,0.37-0.39,0.13-5.56C399.86,790.45,396.95,788.99,396.95,788.99z"/>
			<path class="st25" d="M386.54,811.78l-0.25-8.38c0,0-2.11-0.16-1.75-2.47c0.36-2.31,2.52-0.79,2.9-0.11c0,0,0.49-7.95,4.7-8.72
				c4.21-0.76,8.3,0.14,8.41,2.19c0.11,2.05,0.24,9.22,0,11.89c-0.24,2.67-2.33,3.76-6.18,3.65l0.26,4.31c0,0-1.93,1.42-7.32,0.1
				L386.54,811.78z"/>
			<path class="st3" d="M394.42,810.72c0,0,0.74-0.01,1.03,0.15c0.29,0.16,1.83,1.71,1.87,3.4c0.04,1.7-0.65,3.64-0.65,3.64
				l-3.49-3.15l-2.2,4.24c0,0-1.37-0.27-3.25-1.68c-1.88-1.41-3.01-3.52-3.01-3.52c0.6-1.53,1.01-2.45,1.01-2.45
				c0.14-0.35,0.81-0.52,0.81-0.52s3.72,3.37,6.63,3.54C393.17,814.38,394.21,813.9,394.42,810.72z"/>
			<path class="st66" d="M377.98,837.87c1.12-2.84,3.58-9.69,2.9-13.29c-0.87-4.61-5.02-5.63-5.02-5.63
				c-1.74,1.99-4.26,8.55-5.94,14.02C372.63,834.56,375.28,836.25,377.98,837.87z"/>
			<path class="st3" d="M405.13,790.86c-0.25-0.81-0.64-1.57-1.17-2.23c-2.83-3.46-6.93-1.43-10.57-2.06
				c-0.89-0.15-1.62-0.58-2.55-0.61c-2.25-0.08-4.7,1.12-5.62,3.24c-0.16,0.37-0.33,0.78-0.47,1.19c-0.22,0.65-0.39,1.33-0.4,1.97
				c-0.02,1.38,0.62,2.69,0.76,4.06c0.2,1.97,1.35,4.12,2.42,5.96c0.33-0.1,0.65-0.18,0.98-0.26c-0.09-0.86,0.19-1.83,0.57-2.65
				c0.62-1.32,1.2-2.76,0.43-4.14c2.16,1.13,2.55,1.25,5.08,0.78c1.58-0.29,3.13,0.49,4.61,1.1c1.48,0.61,3.27,1.05,4.61,0.16
				c1.03-0.68,1.48-1.97,1.61-3.2C405.55,793.06,405.46,791.92,405.13,790.86z"/>
			<path class="st25" d="M372.42,834.47c0,0-1.89,9.68-0.22,11.62c1.67,1.94,17.51,11.39,18.82,12.74c1.3,1.36,5.69,5.1,8.63,5.04
				c2.94-0.07,4.44,2.71,5.92,2.99c1.47,0.28,1.25-3.52,0.81-4.97c-0.52-1.73-4.06-2.05-4.06-2.05s3.82-1.88-2.17-1.09l-3.46-0.57
				l-17.5-16.77l0.35-2.88L372.42,834.47z"/>
		</g>
		<g class="st67">
			<linearGradient id="SVGID_51_" gradientUnits="userSpaceOnUse" x1="273.3063" y1="725.6497" x2="402.9806" y2="725.6497">
				<stop  offset="0" style="stop-color:#0B62A3"/>
				<stop  offset="1" style="stop-color:#3189C9"/>
			</linearGradient>
			<path class="st68" d="M297.12,791.44l-0.05-16.77l11.4-6.58l0.05,16.77L297.12,791.44 M340.53,766.37l-0.07-25.23l11.4-6.58
				l0.07,25.23L340.53,766.37 M297.07,774.67l-0.03-10.37l11.4-6.58l0.03,10.38L297.07,774.67 M318.84,778.9l-0.08-29.38l11.39-6.57
				l0.08,29.38L318.84,778.9 M362.23,753.84l-0.11-39.76l11.4-6.58l0.11,39.76L362.23,753.84 M340.46,741.14l-0.04-15.63l11.4-6.58
				l0.04,15.63L340.46,741.14 M318.75,749.51l-0.05-18.21l11.39-6.57l0.05,18.21L318.75,749.51 M362.12,714.08l-0.07-24.62
				l11.4-6.58l0.07,24.62L362.12,714.08 M288.68,807.12c-0.51,0.29-0.92,0.06-0.92-0.51l-0.22-79.22c0-0.59,0.4-1.29,0.91-1.58
				c0.5-0.29,0.9-0.05,0.91,0.53l0.22,78.16l99.76-57.59c0.51-0.29,0.92-0.06,0.92,0.52c0,0.57-0.41,1.27-0.91,1.57L288.68,807.12
				 M308.29,703.54c-1,0.58-1.82,0.11-1.83-1.04c0-1.15,0.81-2.56,1.81-3.14l29.11-16.81c1-0.58,1.82-0.11,1.83,1.04
				c0,1.15-0.81,2.56-1.81,3.14L308.29,703.54 M343.57,683.18c-1,0.58-1.82,0.11-1.83-1.04c0-1.15,0.81-2.56,1.81-3.14l6.71-3.88
				c1-0.58,1.82-0.11,1.83,1.04c0,1.15-0.81,2.56-1.81,3.14L343.57,683.18 M288.42,715.39l-0.01-4.92l10.92-6.31l0.01,4.92
				L288.42,715.39 M327.72,681.83c-0.5,0.29-0.95,0.31-1.3,0.13c-0.34-0.19-0.53-0.62-0.53-1.17l0.04-0.44l0.09-0.44l0.17-0.47
				l0.22-0.44c0.34-0.58,0.82-1.05,1.29-1.33c0.48-0.28,0.95-0.36,1.3-0.17l0.22,0.19l0.16,0.28l0.12,0.32l0.03,0.4
				c0,0.55-0.19,1.2-0.52,1.78C328.67,681.05,328.22,681.55,327.72,681.83 M308.27,693.07c-1,0.58-1.82,0.11-1.83-1.04
				c0-1.15,0.81-2.56,1.81-3.14l14.1-8.14c1-0.58,1.82-0.11,1.83,1.04c0,1.15-0.81,2.56-1.81,3.14L308.27,693.07 M333.36,678.58
				c-1,0.58-1.82,0.11-1.83-1.04c0-1.15,0.81-2.56,1.81-3.14l16.89-9.75c1-0.58,1.82-0.11,1.83,1.04c0,1.15-0.81,2.56-1.81,3.14
				L333.36,678.58 M288.39,704.91l-0.01-4.92l10.92-6.31l0.01,4.92L288.39,704.91 M397.13,622.42l-118.37,68.34
				c-3.03,1.75-5.47,5.99-5.46,9.45l0.36,125.55c0.01,3.46,2.46,4.86,5.49,3.11l118.37-68.34c3.03-1.75,5.47-5.97,5.46-9.44
				l-0.36-125.55C402.61,622.08,400.16,620.67,397.13,622.42"/>
			<path class="st3" d="M288.45,725.81c-0.51,0.29-0.92,1-0.91,1.58l0.22,79.22c0,0.57,0.41,0.8,0.92,0.51l100.66-58.12
				c0.51-0.29,0.92-1,0.91-1.57c0-0.59-0.41-0.82-0.92-0.52l-99.76,57.59l-0.22-78.16C289.35,725.76,288.94,725.53,288.45,725.81"/>
			<polyline class="st26" points="308.48,768.09 297.07,774.67 297.12,791.44 308.53,784.85 308.48,768.09 			"/>
			<polyline class="st26" points="330.14,742.94 318.75,749.51 318.84,778.9 330.22,772.32 330.14,742.94 			"/>
			<polyline class="st26" points="351.87,734.55 340.46,741.14 340.53,766.37 351.94,759.79 351.87,734.55 			"/>
			<polyline class="st26" points="373.52,707.5 362.12,714.08 362.23,753.84 373.64,747.26 373.52,707.5 			"/>
			<polyline class="st3" points="308.45,757.71 297.05,764.29 297.07,774.67 308.48,768.09 308.45,757.71 			"/>
			<polyline class="st3" points="330.09,724.73 318.7,731.31 318.75,749.51 330.14,742.94 330.09,724.73 			"/>
			<polyline class="st3" points="351.82,718.92 340.42,725.51 340.46,741.14 351.87,734.55 351.82,718.92 			"/>
			<polyline class="st3" points="373.45,682.89 362.05,689.47 362.12,714.08 373.52,707.5 373.45,682.89 			"/>
			<polyline class="st26" points="299.3,693.69 288.37,699.99 288.39,704.91 299.31,698.61 299.3,693.69 			"/>
			<polyline class="st26" points="299.33,704.16 288.4,710.47 288.42,715.39 299.34,709.08 299.33,704.16 			"/>
			<path class="st3" d="M322.35,680.74l-14.1,8.14c-1,0.58-1.82,1.99-1.81,3.14c0,1.15,0.82,1.62,1.83,1.04l14.1-8.14
				c1-0.58,1.82-1.99,1.81-3.14C324.17,680.63,323.35,680.16,322.35,680.74"/>
			<path class="st3" d="M327.71,677.68c-0.48,0.28-0.95,0.74-1.29,1.33l-0.22,0.44l-0.17,0.47l-0.09,0.44l-0.04,0.44
				c0,0.55,0.19,0.98,0.53,1.17c0.35,0.18,0.8,0.16,1.3-0.13c0.49-0.29,0.95-0.78,1.29-1.37c0.33-0.58,0.52-1.22,0.52-1.78
				l-0.03-0.4l-0.12-0.32l-0.16-0.28l-0.22-0.19C328.66,677.32,328.19,677.4,327.71,677.68"/>
			<path class="st3" d="M350.24,664.64l-16.89,9.75c-1,0.58-1.82,1.99-1.81,3.14c0,1.15,0.82,1.62,1.83,1.04l16.89-9.75
				c1-0.58,1.82-1.99,1.81-3.14C352.06,664.53,351.24,664.06,350.24,664.64"/>
			<path class="st3" d="M337.39,682.55l-29.11,16.81c-1,0.58-1.82,1.99-1.81,3.14c0,1.15,0.82,1.62,1.83,1.04l29.11-16.81
				c1-0.58,1.82-1.99,1.81-3.14C339.22,682.44,338.4,681.97,337.39,682.55"/>
			<path class="st3" d="M350.27,675.12l-6.71,3.88c-1,0.58-1.82,1.99-1.81,3.14c0,1.15,0.82,1.62,1.83,1.04l6.71-3.88
				c1-0.58,1.82-1.99,1.81-3.14C352.09,675.01,351.27,674.54,350.27,675.12"/>
		</g>
	</g>
</g>
</svg>
