<?xml version="1.0" encoding="utf-8"?>
<!-- Generator: Adobe Illustrator 23.0.2, SVG Export Plug-In . SVG Version: 6.00 Build 0)  -->
<svg version="1.0" id="Layer_1" xmlns="http://www.w3.org/2000/svg" xmlns:xlink="http://www.w3.org/1999/xlink" x="0px" y="0px"
	 viewBox="0 0 1451.34 1451.34" style="enable-background:new 0 0 1451.34 1451.34;" xml:space="preserve">
<style type="text/css">
	.st0{opacity:0.2;fill:#1B449B;}
	.st1{fill:#1B449B;}
	.st2{fill:none;stroke:#6388C6;stroke-width:0.5;stroke-linecap:round;stroke-miterlimit:10;}
	.st3{fill:url(#SVGID_1_);}
	.st4{fill:#C8C8C8;}
	.st5{fill:#848384;}
	.st6{fill:url(#SVGID_2_);}
	.st7{fill:url(#SVGID_3_);}
	.st8{fill:#CADCEA;}
	.st9{fill:url(#SVGID_4_);}
	.st10{fill:url(#SVGID_5_);}
	.st11{fill:url(#SVGID_6_);}
	.st12{fill:url(#SVGID_7_);}
	.st13{fill:url(#SVGID_8_);}
	.st14{fill:url(#SVGID_9_);}
	.st15{fill:url(#SVGID_10_);}
	.st16{fill:url(#SVGID_11_);}
	.st17{fill:url(#SVGID_12_);}
	.st18{fill:url(#SVGID_13_);}
	.st19{fill:url(#SVGID_14_);}
	.st20{fill:url(#SVGID_15_);}
	.st21{fill:url(#SVGID_16_);}
	.st22{fill:url(#SVGID_17_);}
	.st23{fill:url(#SVGID_18_);}
	.st24{fill:url(#SVGID_19_);}
	.st25{fill:url(#SVGID_20_);}
	.st26{fill:url(#SVGID_21_);}
	.st27{fill:url(#SVGID_22_);}
	.st28{fill:url(#SVGID_23_);}
	.st29{fill:url(#SVGID_24_);}
	.st30{fill:url(#SVGID_25_);}
	.st31{fill:url(#SVGID_26_);}
</style>
<g>
	<polygon class="st0" points="66.32,819.91 713.93,446.01 1361.54,819.91 713.93,1193.8 	"/>
	<g>
		<g>
			<g>
				
					<rect x="-59.02" y="563.69" transform="matrix(0.8662 -0.4997 0.4997 0.8662 -227.8852 277.2177)" class="st1" width="925.43" height="0.87"/>
			</g>
			<g>
				
					<rect x="-10.02" y="591.98" transform="matrix(0.8662 -0.4997 0.4997 0.8662 -235.4646 305.4844)" class="st1" width="925.43" height="0.87"/>
			</g>
			<g>
				
					<rect x="38.97" y="620.26" transform="matrix(0.8663 -0.4996 0.4996 0.8663 -242.9897 333.6121)" class="st1" width="925.43" height="0.87"/>
			</g>
			<g>
				
					<rect x="87.96" y="648.55" transform="matrix(0.8663 -0.4996 0.4996 0.8663 -250.5684 361.8672)" class="st1" width="925.42" height="0.88"/>
			</g>
			<g>
				
					<rect x="136.95" y="676.83" transform="matrix(0.8664 -0.4994 0.4994 0.8664 -258.1083 390.005)" class="st1" width="925.43" height="0.87"/>
			</g>
			<g>
				
					<rect x="185.94" y="705.12" transform="matrix(0.8664 -0.4994 0.4994 0.8664 -265.6869 418.2532)" class="st1" width="925.43" height="0.87"/>
			</g>
			<g>
				
					<rect x="234.93" y="733.41" transform="matrix(0.8664 -0.4994 0.4994 0.8664 -273.2662 446.5017)" class="st1" width="925.43" height="0.87"/>
			</g>
			<g>
				
					<rect x="283.92" y="761.69" transform="matrix(0.8664 -0.4994 0.4994 0.8664 -280.8452 474.7482)" class="st1" width="925.43" height="0.87"/>
			</g>
			<g>
				
					<rect x="332.91" y="789.97" transform="matrix(0.8664 -0.4994 0.4994 0.8664 -288.4238 502.9964)" class="st1" width="925.43" height="0.87"/>
			</g>
			<g>
				
					<rect x="381.9" y="818.26" transform="matrix(0.8664 -0.4994 0.4994 0.8664 -296.0027 531.2448)" class="st1" width="925.43" height="0.87"/>
			</g>
			<g>
				
					<rect x="430.9" y="846.54" transform="matrix(0.8664 -0.4994 0.4994 0.8664 -303.5815 559.4922)" class="st1" width="925.42" height="0.87"/>
			</g>
			<g>
				
					<rect x="479.88" y="874.83" transform="matrix(0.8663 -0.4996 0.4996 0.8663 -311.2 587.9113)" class="st1" width="925.43" height="0.87"/>
			</g>
			<g>
				
					<rect x="528.88" y="903.11" transform="matrix(0.8662 -0.4997 0.4997 0.8662 -318.8326 616.4117)" class="st1" width="925.43" height="0.87"/>
			</g>
			<g>
				
					<rect x="577.87" y="931.4" transform="matrix(0.8662 -0.4997 0.4997 0.8662 -326.4109 644.6772)" class="st1" width="925.42" height="0.88"/>
			</g>
		</g>
		<g>
			<g>
				<polygon class="st1" points="762.19,1179.3 2.83,739.43 3.27,738.68 762.63,1178.54 				"/>
			</g>
			<g>
				<polygon class="st1" points="811.19,1151.21 51.83,711.34 52.26,710.58 811.62,1150.45 				"/>
			</g>
			<g>
				<polygon class="st1" points="860.18,1123.12 100.82,683.25 101.26,682.49 860.61,1122.36 				"/>
			</g>
			<g>
				<polygon class="st1" points="909.17,1095.03 149.81,655.16 150.25,654.4 909.61,1094.27 				"/>
			</g>
			<g>
				<polygon class="st1" points="958.16,1066.94 198.8,627.07 199.24,626.31 958.6,1066.18 				"/>
			</g>
			<g>
				<polygon class="st1" points="1007.15,1038.84 247.79,598.97 248.23,598.22 1007.59,1038.09 				"/>
			</g>
			<g>
				<polygon class="st1" points="1056.14,1010.75 296.78,570.88 297.22,570.13 1056.58,1009.99 				"/>
			</g>
			<g>
				<polygon class="st1" points="1105.13,982.66 345.77,542.79 346.21,542.04 1105.57,981.9 				"/>
			</g>
			<g>
				<polygon class="st1" points="1154.12,954.57 394.76,514.7 395.2,513.94 1154.56,953.81 				"/>
			</g>
			<g>
				<polygon class="st1" points="1203.11,926.48 443.76,486.61 444.19,485.85 1203.55,925.72 				"/>
			</g>
			<g>
				<polygon class="st1" points="1252.1,898.39 492.75,458.52 493.18,457.76 1252.54,897.63 				"/>
			</g>
			<g>
				
					<rect x="921.2" y="211.2" transform="matrix(0.5012 -0.8653 0.8653 0.5012 -102.7625 1121.6792)" class="st1" width="0.87" height="877.56"/>
			</g>
			<g>
				<polygon class="st1" points="1350.09,842.2 590.73,402.34 591.16,401.58 1350.52,841.45 				"/>
			</g>
			<g>
				<polygon class="st1" points="1399.08,814.11 639.72,374.25 640.16,373.49 1399.52,813.36 				"/>
			</g>
			<g>
				<polygon class="st1" points="1448.07,786.02 688.71,346.15 689.14,345.4 1448.5,785.26 				"/>
			</g>
		</g>
	</g>
	<g>
		<polyline class="st2" points="527.01,945.11 623.61,1003.49 886.23,850.74 		"/>
		<polyline class="st2" points="485.35,962.19 443.76,986.2 382.73,949.47 		"/>
		<line class="st2" x1="644.36" y1="776.71" x2="828.03" y2="884.37"/>
		<line class="st2" x1="440" y1="903.55" x2="654.15" y2="782.45"/>
		<line class="st2" x1="559.06" y1="926.48" x2="730.52" y2="827.21"/>
	</g>
	<g>
		<g>
			<path class="st1" d="M677.5,757.68l-48.24-27.85c-13.31-7.69-21.52-21.89-21.52-37.27l-6.49-66.85l-69.76,40.06v63.39
				c0,15.37,8.2,29.58,21.52,37.27l54.74,31.32L677.5,757.68z"/>
			<linearGradient id="SVGID_1_" gradientUnits="userSpaceOnUse" x1="558.2598" y1="657.5227" x2="628.1136" y2="778.5131">
				<stop  offset="0" style="stop-color:#0B62A3"/>
				<stop  offset="1" style="stop-color:#3189C9"/>
			</linearGradient>
			<path class="st3" d="M677.5,750l-48.24-27.85c-13.31-7.69-21.52-21.89-21.52-37.27v-55.71l-69.76,40.06v55.71
				c0,15.37,8.2,29.58,21.52,37.27l48.24,27.85L677.5,750z"/>
			<polygon class="st4" points="537.98,669.23 531.49,665.76 601.25,625.49 607.74,629.17 			"/>
			<polygon class="st1" points="607.74,797.73 607.74,790.05 677.5,750 677.5,757.68 			"/>
		</g>
		<path class="st5" d="M417.45,733.52l-52.32,7.56l-7.32-4.3v45.95c0,2.39,1.2,4.34,2.91,5.55l-0.02,0.04l0.32,0.19
			c0.15,0.1,0.3,0.19,0.46,0.27l8.02,4.66l2.87-2.85l-0.63-4.01L735.6,576.5c3.64-2.1,5.88-5.99,5.88-10.19v-14.73L417.45,733.52z"
			/>
		<path class="st1" d="M727.88,258.75L364.99,468.27c-4.44,2.56-7.17,7.3-7.17,12.42v40.55v215.52v0.02l7.32,4.3l52.32-7.56
			l324.04-181.95v-36.32V299.73v-33.12c0-0.86-0.12-1.67-0.33-2.44l1.65,0.64l1.16-1.9l-6.85-4.02
			C734.45,257.26,730.98,256.97,727.88,258.75z"/>
		<linearGradient id="SVGID_2_" gradientUnits="userSpaceOnUse" x1="365.1328" y1="656.7432" x2="748.8069" y2="656.7432">
			<stop  offset="0" style="stop-color:#0B62A3"/>
			<stop  offset="1" style="stop-color:#3189C9"/>
		</linearGradient>
		<path class="st6" d="M365.13,741.08l383.67-221.51v51.05c0,4.2-2.24,8.09-5.88,10.19l-367.5,212.18
			c-4.57,2.64-10.29-0.66-10.29-5.94V741.08z"/>
		<linearGradient id="SVGID_3_" gradientUnits="userSpaceOnUse" x1="365.1328" y1="501.4611" x2="748.8069" y2="501.4611">
			<stop  offset="0" style="stop-color:#0B62A3"/>
			<stop  offset="1" style="stop-color:#3189C9"/>
		</linearGradient>
		<path class="st7" d="M372.31,472.59L735.2,263.07c6.05-3.49,13.61,0.87,13.61,7.86v248.64L365.13,741.08V485.01
			C365.13,479.88,367.87,475.15,372.31,472.59z"/>
		<polygon class="st8" points="378.13,481.08 737.65,273.96 737.65,514.29 378.13,721.41 		"/>
		<g>
			<linearGradient id="SVGID_4_" gradientUnits="userSpaceOnUse" x1="400.0123" y1="416.6248" x2="713.9275" y2="416.6248">
				<stop  offset="0" style="stop-color:#0B62A3"/>
				<stop  offset="1" style="stop-color:#3189C9"/>
			</linearGradient>
			<polygon class="st9" points="400.01,487.11 713.93,305.87 713.93,346.14 400.01,527.38 			"/>
			<linearGradient id="SVGID_5_" gradientUnits="userSpaceOnUse" x1="400.0123" y1="544.8666" x2="539.5302" y2="544.8666">
				<stop  offset="0" style="stop-color:#0B62A3"/>
				<stop  offset="1" style="stop-color:#3189C9"/>
			</linearGradient>
			<polygon class="st10" points="400.01,547.51 539.53,466.97 539.53,543.31 400.01,622.76 			"/>
			<linearGradient id="SVGID_6_" gradientUnits="userSpaceOnUse" x1="574.4096" y1="444.1718" x2="713.9275" y2="444.1718">
				<stop  offset="0" style="stop-color:#0B62A3"/>
				<stop  offset="1" style="stop-color:#3189C9"/>
			</linearGradient>
			<polygon class="st11" points="574.41,446.81 713.93,366.28 713.93,442.61 574.41,522.06 			"/>
		</g>
	</g>
	<g>
		<linearGradient id="SVGID_7_" gradientUnits="userSpaceOnUse" x1="702.5685" y1="732.2469" x2="1190.8811" y2="732.2469">
			<stop  offset="0" style="stop-color:#0B62A3"/>
			<stop  offset="1" style="stop-color:#3189C9"/>
		</linearGradient>
		<polygon class="st12" points="702.57,752.38 911.85,873.21 1190.88,712.11 981.6,591.28 		"/>
		<g>
			<polygon class="st1" points="702.57,752.38 702.57,761.16 911.85,881.99 911.85,873.21 702.57,752.38 			"/>
		</g>
		<g>
			<polygon class="st1" points="1190.88,712.11 911.85,873.21 911.85,881.99 1190.88,720.88 1190.88,712.11 			"/>
		</g>
		<linearGradient id="SVGID_8_" gradientUnits="userSpaceOnUse" x1="708.4372" y1="560.9716" x2="987.473" y2="560.9716">
			<stop  offset="0" style="stop-color:#0B62A3"/>
			<stop  offset="1" style="stop-color:#3189C9"/>
		</linearGradient>
		<polygon class="st13" points="708.44,755.78 708.44,527.26 987.47,366.16 987.47,594.68 		"/>
		<polygon class="st8" points="719.78,739.94 719.78,530 976.13,382 976.13,591.94 		"/>
		<g>
			<polygon class="st1" points="702.57,523.87 702.57,752.38 708.44,755.78 708.44,527.26 702.57,523.87 			"/>
		</g>
		<g>
			<polygon class="st1" points="981.6,362.76 702.57,523.87 708.44,527.26 987.47,366.16 981.6,362.76 			"/>
		</g>
		<g>
			<polygon class="st8" points="980.29,640.62 1002.42,627.86 995.51,623.86 973.38,636.61 			"/>
			<polygon class="st8" points="950.52,657.79 972.64,645.03 965.73,641.03 943.61,653.79 			"/>
			<polygon class="st8" points="920.74,674.96 942.86,662.2 935.95,658.2 913.83,670.96 			"/>
			<polygon class="st8" points="890.96,692.13 913.09,679.37 906.18,675.37 884.05,688.13 			"/>
			<polygon class="st8" points="861.19,709.3 883.31,696.55 876.4,692.54 854.28,705.3 			"/>
			<polygon class="st8" points="831.41,726.47 853.53,713.72 846.62,709.71 824.5,722.47 			"/>
			<polygon class="st8" points="801.63,743.65 823.76,730.89 816.85,726.89 794.72,739.64 			"/>
			<polygon class="st8" points="771.86,760.82 793.98,748.06 787.07,744.06 764.95,756.81 			"/>
			<polygon class="st8" points="1002.37,653.4 1024.5,640.65 1007.53,630.82 985.41,643.58 			"/>
			<polygon class="st8" points="972.6,670.58 994.72,657.82 977.75,647.99 955.63,660.75 			"/>
			<polygon class="st8" points="942.82,687.75 964.94,674.99 947.98,665.16 925.85,677.92 			"/>
			<polygon class="st8" points="913.04,704.92 935.17,692.16 918.2,682.34 896.08,695.09 			"/>
			<polygon class="st8" points="883.27,722.09 905.39,709.33 888.42,699.51 866.3,712.26 			"/>
			<polygon class="st8" points="853.49,739.26 875.61,726.5 858.65,716.68 836.52,729.44 			"/>
			<polygon class="st8" points="823.71,756.43 845.84,743.68 828.87,733.85 806.75,746.61 			"/>
			<polygon class="st8" points="793.94,773.61 816.06,760.85 799.09,751.02 776.97,763.78 			"/>
			<polygon class="st8" points="1027.23,667.8 1049.35,655.04 1032.38,645.22 1010.26,657.97 			"/>
			<polygon class="st8" points="997.45,684.97 1019.57,672.21 1002.61,662.39 980.48,675.14 			"/>
			<polygon class="st8" points="967.67,702.14 989.8,689.38 972.83,679.56 950.71,692.32 			"/>
			<polygon class="st8" points="937.9,719.31 960.02,706.56 943.05,696.73 920.93,709.49 			"/>
			<polygon class="st8" points="908.12,736.49 930.24,723.73 913.28,713.9 891.15,726.66 			"/>
			<polygon class="st8" points="878.34,753.66 900.47,740.9 883.5,731.07 861.38,743.83 			"/>
			<polygon class="st8" points="848.57,770.83 870.69,758.07 853.72,748.24 831.6,761 			"/>
			<polygon class="st8" points="818.79,788 840.91,775.24 823.95,765.42 801.82,778.17 			"/>
			<polygon class="st8" points="1052.08,682.19 1074.2,669.44 1057.24,659.61 1035.11,672.37 			"/>
			<polygon class="st8" points="1022.3,699.37 1044.43,686.61 1027.46,676.78 1005.34,689.54 			"/>
			<polygon class="st8" points="992.53,716.54 1014.65,703.78 997.68,693.95 975.56,706.71 			"/>
			<polygon class="st8" points="962.75,733.71 984.87,720.95 967.91,711.12 945.78,723.88 			"/>
			<polygon class="st8" points="932.97,750.88 955.1,738.12 938.13,728.3 916.01,741.05 			"/>
			<polygon class="st8" points="903.2,768.05 925.32,755.29 908.35,745.47 886.23,758.23 			"/>
			<polygon class="st8" points="873.42,785.22 895.54,772.46 878.58,762.64 856.45,775.4 			"/>
			<polygon class="st8" points="843.64,802.39 865.76,789.64 848.8,779.81 826.68,792.57 			"/>
			<polygon class="st8" points="1076.93,696.59 1099.06,683.83 1082.09,674 1059.97,686.76 			"/>
			<polygon class="st8" points="928.05,782.45 1069.28,701 1052.31,691.18 911.08,772.62 			"/>
			<polygon class="st8" points="1004.54,802.53 1093.45,751.21 1053.85,728.3 964.94,779.62 			"/>
			<polygon class="st8" points="898.27,799.62 920.39,786.86 903.43,777.03 881.31,789.79 			"/>
			<polygon class="st8" points="868.49,816.79 890.62,804.03 873.65,794.2 851.53,806.96 			"/>
		</g>
		<g>
			<linearGradient id="SVGID_9_" gradientUnits="userSpaceOnUse" x1="730.6921" y1="497.0446" x2="965.168" y2="497.0446">
				<stop  offset="0" style="stop-color:#0B62A3"/>
				<stop  offset="1" style="stop-color:#3189C9"/>
			</linearGradient>
			<polygon class="st14" points="730.69,549.69 965.17,414.32 965.17,444.4 730.69,579.77 			"/>
			<linearGradient id="SVGID_10_" gradientUnits="userSpaceOnUse" x1="764.4014" y1="665.1649" x2="787.7136" y2="665.1649">
				<stop  offset="0" style="stop-color:#0B62A3"/>
				<stop  offset="1" style="stop-color:#3189C9"/>
			</linearGradient>
			<path class="st15" d="M784.6,670.23c-4.38,7.38-11.76,11.1-16.47,8.3c-4.72-2.8-4.99-11.05-0.61-18.44
				c4.38-7.38,11.76-11.1,16.47-8.3C788.71,654.6,788.98,662.85,784.6,670.23z"/>
			<linearGradient id="SVGID_11_" gradientUnits="userSpaceOnUse" x1="817.2422" y1="634.73" x2="840.5544" y2="634.73">
				<stop  offset="0" style="stop-color:#0B62A3"/>
				<stop  offset="1" style="stop-color:#3189C9"/>
			</linearGradient>
			<path class="st16" d="M837.44,639.8c-4.38,7.38-11.76,11.1-16.47,8.3c-4.72-2.8-4.99-11.05-0.61-18.43
				c4.38-7.38,11.76-11.1,16.47-8.3C841.55,624.16,841.82,632.42,837.44,639.8z"/>
			<linearGradient id="SVGID_12_" gradientUnits="userSpaceOnUse" x1="869.8139" y1="604.2623" x2="893.1259" y2="604.2623">
				<stop  offset="0" style="stop-color:#0B62A3"/>
				<stop  offset="1" style="stop-color:#3189C9"/>
			</linearGradient>
			<path class="st17" d="M890.01,609.33c-4.38,7.38-11.76,11.1-16.47,8.3c-4.72-2.8-4.99-11.05-0.61-18.43
				c4.38-7.38,11.76-11.1,16.47-8.3C894.12,593.69,894.39,601.95,890.01,609.33z"/>
			<linearGradient id="SVGID_13_" gradientUnits="userSpaceOnUse" x1="922.3854" y1="573.92" x2="945.6976" y2="573.92">
				<stop  offset="0" style="stop-color:#0B62A3"/>
				<stop  offset="1" style="stop-color:#3189C9"/>
			</linearGradient>
			<path class="st18" d="M942.58,578.99c-4.38,7.38-11.76,11.1-16.47,8.3c-4.72-2.8-4.99-11.05-0.61-18.44
				c4.38-7.38,11.76-11.1,16.47-8.3C946.69,563.35,946.96,571.61,942.58,578.99z"/>
		</g>
	</g>
	<g>
		<g>
			<path class="st1" d="M426.1,680.85L292.74,757.9c-3.93,2.27-6.36,6.47-6.36,11.01v35.94v179.81c0,2.38,1.26,4.59,3.31,5.8
				l6.36,3.74l138.48-77.29c5.61-3.28,8.99-9.36,8.81-15.86l-5.18-183.88v-29.35c0-0.76-0.11-1.48-0.29-2.16l1.46,0.56l1.03-1.69
				l-6.07-3.56C431.92,679.52,428.84,679.26,426.1,680.85z"/>
			<linearGradient id="SVGID_14_" gradientUnits="userSpaceOnUse" x1="368.7523" y1="995.0504" x2="368.7523" y2="683.5807">
				<stop  offset="0" style="stop-color:#0B62A3"/>
				<stop  offset="1" style="stop-color:#3189C9"/>
			</linearGradient>
			<path class="st19" d="M299.22,761.72l133.36-77.05c5.36-3.09,12.06,0.77,12.06,6.96v211.19c0,5.67-3.02,10.91-7.93,13.75
				l-134.37,77.62c-4.21,2.43-9.48-0.61-9.48-5.47V772.73C292.86,768.19,295.29,763.99,299.22,761.72z"/>
			<polygon class="st8" points="304.38,769.25 434.75,694.33 434.75,907.31 304.38,982.23 			"/>
		</g>
		<g>
			<linearGradient id="SVGID_15_" gradientUnits="userSpaceOnUse" x1="313.1902" y1="759.0428" x2="430.428" y2="759.0428">
				<stop  offset="0" style="stop-color:#0B62A3"/>
				<stop  offset="1" style="stop-color:#3189C9"/>
			</linearGradient>
			<polygon class="st20" points="313.19,785.37 430.43,717.68 430.43,732.72 313.19,800.41 			"/>
			<linearGradient id="SVGID_16_" gradientUnits="userSpaceOnUse" x1="313.1902" y1="911.34" x2="430.428" y2="911.34">
				<stop  offset="0" style="stop-color:#0B62A3"/>
				<stop  offset="1" style="stop-color:#3189C9"/>
			</linearGradient>
			<polygon class="st21" points="313.19,938.02 430.43,870.34 430.43,884.66 313.19,952.34 			"/>
			<linearGradient id="SVGID_17_" gradientUnits="userSpaceOnUse" x1="313.1902" y1="814.9377" x2="365.5093" y2="814.9377">
				<stop  offset="0" style="stop-color:#0B62A3"/>
				<stop  offset="1" style="stop-color:#3189C9"/>
			</linearGradient>
			<polygon class="st22" points="313.19,807.92 365.51,778.46 365.51,822.36 313.19,851.42 			"/>
			<linearGradient id="SVGID_18_" gradientUnits="userSpaceOnUse" x1="378.109" y1="778.4562" x2="430.428" y2="778.4562">
				<stop  offset="0" style="stop-color:#0B62A3"/>
				<stop  offset="1" style="stop-color:#3189C9"/>
			</linearGradient>
			<polygon class="st23" points="378.11,771.44 430.43,741.97 430.43,785.88 378.11,814.94 			"/>
			<g>
				<g>
					<linearGradient id="SVGID_19_" gradientUnits="userSpaceOnUse" x1="336.4" y1="856.1641" x2="360.0587" y2="856.1641">
						<stop  offset="0" style="stop-color:#0B62A3"/>
						<stop  offset="1" style="stop-color:#3189C9"/>
					</linearGradient>
					<path class="st24" d="M356.9,861.31c-4.45,7.49-11.93,11.26-16.72,8.42c-4.79-2.84-5.06-11.22-0.62-18.71
						s11.93-11.26,16.72-8.42C361.07,845.44,361.34,853.82,356.9,861.31z"/>
					<linearGradient id="SVGID_20_" gradientUnits="userSpaceOnUse" x1="390.0265" y1="825.2769" x2="413.6853" y2="825.2769">
						<stop  offset="0" style="stop-color:#0B62A3"/>
						<stop  offset="1" style="stop-color:#3189C9"/>
					</linearGradient>
					<path class="st25" d="M410.52,830.42c-4.45,7.49-11.93,11.26-16.72,8.42c-4.79-2.84-5.06-11.22-0.62-18.71
						c4.45-7.49,11.93-11.26,16.72-8.42C414.69,814.55,414.97,822.93,410.52,830.42z"/>
				</g>
				<g>
					<linearGradient id="SVGID_21_" gradientUnits="userSpaceOnUse" x1="336.4" y1="895.5767" x2="360.0587" y2="895.5767">
						<stop  offset="0" style="stop-color:#0B62A3"/>
						<stop  offset="1" style="stop-color:#3189C9"/>
					</linearGradient>
					<path class="st26" d="M356.9,900.72c-4.45,7.49-11.93,11.26-16.72,8.42c-4.79-2.84-5.06-11.22-0.62-18.71
						c4.45-7.49,11.93-11.26,16.72-8.42C361.07,884.85,361.34,893.23,356.9,900.72z"/>
					<linearGradient id="SVGID_22_" gradientUnits="userSpaceOnUse" x1="390.0265" y1="864.6895" x2="413.6853" y2="864.6895">
						<stop  offset="0" style="stop-color:#0B62A3"/>
						<stop  offset="1" style="stop-color:#3189C9"/>
					</linearGradient>
					<path class="st27" d="M410.52,869.83c-4.45,7.49-11.93,11.26-16.72,8.42c-4.79-2.84-5.06-11.22-0.62-18.71
						c4.45-7.49,11.93-11.26,16.72-8.42C414.69,853.96,414.97,862.34,410.52,869.83z"/>
				</g>
			</g>
		</g>
	</g>
	<g>
		<path class="st1" d="M560.26,762.07l-5.77-3.41l0,0c-1.71-0.99-3.91-1.13-5.86,0l-60.39,34.89c-4.03,2.33-6.51,6.62-6.51,11.28
			V956.8c0,2.55,1.57,4.51,3.62,5.38l0.03,0.05l5.28,3.18l1.72-2.69l-2.44-8.19l52.44-30.3c5.23-3.02,8.45-8.6,8.45-14.63V768.68
			h5.7L560.26,762.07z"/>
		<linearGradient id="SVGID_23_" gradientUnits="userSpaceOnUse" x1="487.5265" y1="863.7012" x2="563.2126" y2="863.7012">
			<stop  offset="0" style="stop-color:#0B62A3"/>
			<stop  offset="1" style="stop-color:#3189C9"/>
		</linearGradient>
		<path class="st28" d="M487.53,960.23V808.25c0-4.65,2.48-8.95,6.51-11.28l60.39-34.89c3.91-2.26,8.79,0.56,8.79,5.07v149.78
			c0,6.04-3.22,11.62-8.45,14.63l-58.41,33.75C492.43,967.58,487.53,964.76,487.53,960.23z"/>
		<polygon class="st8" points="491.67,951.75 491.67,805.57 559.06,766.63 559.06,912.81 		"/>
		<path class="st8" d="M532.52,939.19c-1.17,1.98-3.15,2.97-4.41,2.22c-1.26-0.75-1.34-2.96-0.16-4.93
			c1.17-1.98,3.15-2.97,4.41-2.22C533.62,935,533.69,937.21,532.52,939.19z"/>
		<g>
			<linearGradient id="SVGID_24_" gradientUnits="userSpaceOnUse" x1="494.0489" y1="799.3391" x2="556.9495" y2="799.3391">
				<stop  offset="0" style="stop-color:#0B62A3"/>
				<stop  offset="1" style="stop-color:#3189C9"/>
			</linearGradient>
			<polygon class="st29" points="494.05,813.46 556.95,777.15 556.95,785.22 494.05,821.53 			"/>
			<linearGradient id="SVGID_25_" gradientUnits="userSpaceOnUse" x1="494.0489" y1="827.2078" x2="556.9495" y2="827.2078">
				<stop  offset="0" style="stop-color:#0B62A3"/>
				<stop  offset="1" style="stop-color:#3189C9"/>
			</linearGradient>
			<polygon class="st30" points="494.05,825.56 556.95,789.86 556.95,829.07 494.05,864.55 			"/>
			<linearGradient id="SVGID_26_" gradientUnits="userSpaceOnUse" x1="494.0489" y1="874.0552" x2="556.9495" y2="874.0552">
				<stop  offset="0" style="stop-color:#0B62A3"/>
				<stop  offset="1" style="stop-color:#3189C9"/>
			</linearGradient>
			<polygon class="st31" points="494.05,872.41 556.95,836.71 556.95,875.92 494.05,911.4 			"/>
		</g>
	</g>
</g>
</svg>
