<svg id="Layer_1" data-name="Layer 1" xmlns="http://www.w3.org/2000/svg" xmlns:xlink="http://www.w3.org/1999/xlink" viewBox="0 0 728.09 502"><defs><style>.cls-1,.cls-2{fill:#fff;}.cls-10,.cls-12,.cls-2,.cls-22,.cls-24,.cls-26,.cls-27,.cls-3,.cls-30,.cls-33,.cls-34,.cls-36,.cls-37,.cls-41,.cls-42,.cls-43,.cls-44,.cls-45,.cls-49,.cls-50,.cls-55,.cls-57,.cls-59,.cls-61,.cls-68{fill-rule:evenodd;}.cls-3{fill:#f4f8ff;}.cls-4{fill:url(#Gradiente_sem_nome_69);}.cls-5{fill:#ffb91f;}.cls-37,.cls-6{fill:#fa3e6a;}.cls-7{fill:#b7c5ff;}.cls-8{fill:#aab7ef;}.cls-9{fill:url(#linear-gradient);}.cls-10{fill:url(#linear-gradient-2);}.cls-11{fill:url(#linear-gradient-3);}.cls-12{fill:#2e3c72;}.cls-13{fill:url(#linear-gradient-4);}.cls-14{fill:url(#linear-gradient-5);}.cls-15{fill:url(#linear-gradient-6);}.cls-16{fill:url(#linear-gradient-7);}.cls-17{fill:url(#linear-gradient-8);}.cls-18,.cls-36{fill:#a1a7ff;}.cls-19{mask:url(#mask);}.cls-20{mask:url(#mask-2);}.cls-21{fill:none;stroke:#12348e;stroke-miterlimit:10;}.cls-22{fill:#c2cef9;}.cls-23{mask:url(#mask-6);}.cls-24{fill:#ffc6cb;}.cls-25{mask:url(#mask-7);}.cls-26{fill:#fd9493;}.cls-27{fill:#12348e;}.cls-28{mask:url(#mask-8);}.cls-29{mask:url(#mask-9);}.cls-30{fill:#0b1f6e;}.cls-31{mask:url(#mask-10);}.cls-32{fill:#271e1e;}.cls-33{fill:#553d3f;}.cls-34{fill:#8f4447;}.cls-35{mask:url(#mask-11);}.cls-38{mask:url(#mask-12);}.cls-39{mask:url(#mask-13);}.cls-40{fill:#ff9095;}.cls-41{fill:url(#linear-gradient-9);}.cls-42{fill:#b4b8cc;}.cls-43{fill:#dde3fb;}.cls-44{fill:#0a0c15;}.cls-45{fill:#f4bcc1;}.cls-46{mask:url(#mask-15);}.cls-47{mask:url(#mask-16);}.cls-48{mask:url(#mask-17);}.cls-49{fill:#1f2a54;}.cls-50{fill:#742e1b;}.cls-51{mask:url(#mask-18);}.cls-52{mask:url(#mask-19);}.cls-53{mask:url(#mask-20);}.cls-54{mask:url(#mask-21);}.cls-55{fill:#f5eaeb;}.cls-56{mask:url(#mask-22);}.cls-57{fill:#ebdbdc;}.cls-58{mask:url(#mask-23);}.cls-59{fill:#7fa9d4;}.cls-60{mask:url(#mask-25);}.cls-61{fill:#93c8ff;}.cls-62{mask:url(#mask-26);}.cls-63{mask:url(#mask-27);}.cls-64{mask:url(#mask-28);}.cls-65{mask:url(#mask-29);}.cls-66{fill:#352324;}.cls-67{mask:url(#mask-30);}.cls-68{fill:#8598cc;}.cls-69{fill:#455a94;}.cls-70{fill:url(#linear-gradient-10);}.cls-71{mask:url(#mask-31);}.cls-72{fill:url(#linear-gradient-11);}.cls-73{mask:url(#mask-32);}.cls-74{fill:url(#linear-gradient-12);}.cls-75{mask:url(#mask-33);}</style><linearGradient id="Gradiente_sem_nome_69" x1="16.92" y1="464.53" x2="710.66" y2="464.53" gradientUnits="userSpaceOnUse"><stop offset="0.16" stop-color="#e08197"/><stop offset="1" stop-color="#e08197" stop-opacity="0"/></linearGradient><linearGradient id="linear-gradient" x1="163.34" y1="202.63" x2="585.16" y2="202.63" gradientUnits="userSpaceOnUse"><stop offset="0" stop-color="#c2ceff"/><stop offset="1" stop-color="#95aaff"/></linearGradient><linearGradient id="linear-gradient-2" x1="-81.32" y1="953.61" x2="-81.32" y2="952.74" gradientTransform="matrix(439, 0, 0, -256, 36075.34, 244199.32)" gradientUnits="userSpaceOnUse"><stop offset="0" stop-color="#fcfcff"/><stop offset="1" stop-color="#ebefff"/></linearGradient><linearGradient id="linear-gradient-3" x1="-81.33" y1="953.76" x2="-81.33" y2="952.89" gradientTransform="matrix(484, 0, 0, -53, 39738.13, 50869.2)" xlink:href="#linear-gradient"/><linearGradient id="linear-gradient-4" x1="-78.89" y1="953.47" x2="-78.89" y2="952.6" gradientTransform="matrix(19.12, 0, 0, -68.78, 1736.35, 65774.29)" gradientUnits="userSpaceOnUse"><stop offset="0" stop-color="#a1b2ff"/><stop offset="1" stop-color="#5679d9"/></linearGradient><linearGradient id="linear-gradient-5" x1="-79.12" y1="953.42" x2="-79.12" y2="952.55" gradientTransform="matrix(19.12, 0, 0, -46.68, 1770.55, 44715.9)" xlink:href="#linear-gradient-4"/><linearGradient id="linear-gradient-6" x1="-79.35" y1="953.5" x2="-79.35" y2="952.63" gradientTransform="matrix(19.12, 0, 0, -83.52, 1804.52, 79814.13)" xlink:href="#linear-gradient-4"/><linearGradient id="linear-gradient-7" x1="-79.58" y1="953.48" x2="-79.58" y2="952.61" gradientTransform="matrix(19.12, 0, 0, -72.47, 1838.41, 69284.52)" xlink:href="#linear-gradient-4"/><linearGradient id="linear-gradient-8" x1="-79.8" y1="953.53" x2="-79.8" y2="952.66" gradientTransform="matrix(19.12, 0, 0, -105.62, 1872.12, 100872.31)" xlink:href="#linear-gradient-4"/><mask id="mask" x="391.51" y="108.07" width="136.83" height="156" maskUnits="userSpaceOnUse"><g id="scene-11-q"><rect id="scene-11-o" class="cls-1" x="391.51" y="108.07" width="136.83" height="156" rx="6.7"/></g></mask><mask id="mask-2" x="388.9" y="108.07" width="140.32" height="156" maskUnits="userSpaceOnUse"><g id="scene-11-q-2" data-name="scene-11-q"><rect id="scene-11-o-2" data-name="scene-11-o" class="cls-1" x="391.51" y="108.07" width="136.83" height="156" rx="6.7"/></g></mask><mask id="mask-6" x="60.05" y="271.05" width="115.48" height="94.89" maskUnits="userSpaceOnUse"><g id="scene-11-F"><path id="scene-11-D" class="cls-2" d="M157.3,356.2q-11.09-4-16.92-22c-5.84-18-20.26-61.67-45.74-63s-24.85,7.33-26.95,16.36-16.5,77.06,16.52,77.06h79.45a15.41,15.41,0,0,0,10.58-4.21,2.43,2.43,0,0,0-1.67-4.2Z"/></g></mask><mask id="mask-7" x="197.42" y="407.24" width="33.49" height="30.07" maskUnits="userSpaceOnUse"><g id="scene-11-H"><path id="scene-11-G" class="cls-2" d="M230.91,429.83q-4.66-.19-6.95-1.57c-7.21-4.4-11.53-12.33-14.94-21l-11,3.72a16.23,16.23,0,0,1,1.15,6.58c-.12,3.35,1.2,6.91,2.8,8.49q1.6,1.58,19.79,11.28Z"/></g></mask><mask id="mask-8" x="70.26" y="303.3" width="143.17" height="109.64" maskUnits="userSpaceOnUse"><g id="scene-11-J"><path id="scene-11-I" class="cls-2" d="M76.38,305.86q-17.73,39.19,15.91,48.82c33.64,9.62,69.49-24.57,81.68-16s-2.43,12.74,9.3,40.43Q195,406.75,196.4,412.93l17-5.36Q191.49,320.74,183.27,310t-49.82-4.09Z"/></g></mask><mask id="mask-9" x="131.49" y="428.26" width="22.27" height="35.57" maskUnits="userSpaceOnUse"><g id="scene-11-L"><path id="scene-11-K" class="cls-2" d="M153.76,462.52c-2.55-1.8-4.2-3.5-5-5.1-3.66-7.62-1.88-17.53,0-26.67L136,428.26a9.57,9.57,0,0,1-1.38,7c-1.92,2.73-3.49,6.16-3,8.36q.49,2.21,10.45,20.24Z"/></g></mask><mask id="mask-10" x="89.32" y="189.93" width="26.37" height="32.75" maskUnits="userSpaceOnUse"><g id="scene-11-N"><path id="scene-11-M" class="cls-2" d="M97.86,189.93q-1,15.73-2.09,18.56t-6.45,3.58q10.46,10.6,18.87,10.6t7.4-8.86q-4.86-2.16-5.91-5.75t1.22-9.81Z"/></g></mask><mask id="mask-11" x="111.16" y="193.39" width="6.85" height="2.97" maskUnits="userSpaceOnUse"><g id="scene-11-P"><path id="scene-11-O-6" data-name="scene-11-O" class="cls-2" d="M111.31,193.65a23.9,23.9,0,0,0,3.59.73,13,13,0,0,0,3-.19,3.11,3.11,0,0,1-3,2.16C113.55,196.35,112.36,195.45,111.31,193.65Z"/></g></mask><mask id="mask-12" x="55.06" y="211.44" width="100.2" height="97.16" maskUnits="userSpaceOnUse"><g id="scene-11-R"><path id="scene-11-Q-6" data-name="scene-11-Q" class="cls-2" d="M92.39,211.44c1.77,2.28,3.51,4.34,5.2,6.19,2.54,2.76,8.69,5.93,13.83,2.76q5.13-3.16,4.17-6.58l10.82,1a14.12,14.12,0,0,1,10.94,7.05,62.17,62.17,0,0,1,7.12,17.63q2.39,11.1,10.8,38.13,0,6-4.14,8.81c-5.89,4-10.4,3.11-13.11-2.31q-2.72-5.43-3.13-17-5,15.81-5,38.73H76.38q5.1-12.11,5.1-19.43t-5.1-23.23q-1.41,9.14-1.89,13.55a43.47,43.47,0,0,0-.24,7.73,16.21,16.21,0,0,0-6.32,6,13.45,13.45,0,0,0-1.41,7.6c-16.92,2.7-10.68-25.16-8.61-39.6s4.24-29.79,12.53-37Q78.74,214.22,92.39,211.44Z"/></g></mask><mask id="mask-13" x="55.06" y="211.44" width="100.2" height="94.42" maskUnits="userSpaceOnUse"><g id="scene-11-R-2" data-name="scene-11-R"><path id="scene-11-Q-7" data-name="scene-11-Q" class="cls-2" d="M92.39,211.44c1.77,2.28,3.51,4.34,5.2,6.19,2.54,2.76,8.69,5.93,13.83,2.76q5.13-3.16,4.17-6.58l10.82,1a14.12,14.12,0,0,1,10.94,7.05,62.17,62.17,0,0,1,7.12,17.63q2.39,11.1,10.8,38.13,0,6-4.14,8.81c-5.89,4-10.4,3.11-13.11-2.31q-2.72-5.43-3.13-17-5,15.81-5,38.73H76.38q5.1-12.11,5.1-19.43t-5.1-23.23q-1.41,9.14-1.89,13.55a43.47,43.47,0,0,0-.24,7.73,16.21,16.21,0,0,0-6.32,6,13.45,13.45,0,0,0-1.41,7.6c-16.92,2.7-10.68-25.16-8.61-39.6s4.24-29.79,12.53-37Q78.74,214.22,92.39,211.44Z"/></g></mask><linearGradient id="linear-gradient-9" x1="94.25" y1="303.98" x2="135.44" y2="303.98" xlink:href="#linear-gradient"/><mask id="mask-15" x="611.88" y="323.5" width="34.33" height="134.52" maskUnits="userSpaceOnUse"><g id="scene-11-T"><path id="scene-11-S" class="cls-2" d="M611.88,329.39a39.53,39.53,0,0,0,1.3,11.16,122.76,122.76,0,0,0,6,48.86c7.79,22.71,9.7,31.59,8.75,39.71a3.73,3.73,0,0,0,.81,3.16q-.69,20.54.56,23c1.24,2.43,7.46,4.41,17,.71L644,449.38q-.12-12-1.74-18.12c-1.62-6.07,0-7.05-.65-9.08s-3.29-3.78-4.09-9-2.25-40.49-2.25-50q0-9.54-2.81-38.39h-20.6Z"/></g></mask><mask id="mask-16" x="627.84" y="323.67" width="37.11" height="136.1" maskUnits="userSpaceOnUse"><g id="scene-11-V"><path id="scene-11-U" class="cls-2" d="M627.84,325.65a54,54,0,0,0,4.58,21.1q2.66,30.56,9.81,45.4c7.15,14.84,5.69,35.58,5.69,36.85s1.47,2.51,1.47,4.77,0,17.25-2.24,22.23q3.87,5.49,15.61,3c2.56-.73,2.84-2,1-9.72s-2.51-15.13-2.16-18.13.89-4.25-.85-6.81-3.88-29.75-3.88-52.91-6.74-31.73-7.51-34.1l1.93-11.66Z"/></g></mask><mask id="mask-17" x="597.53" y="221.97" width="76.44" height="105.92" maskUnits="userSpaceOnUse"><g id="scene-11-X"><path id="scene-11-W" class="cls-2" d="M609.32,222.59h46.12q17.41,30.6,12.57,55.6a324,324,0,0,0-5.74,49.7,226.76,226.76,0,0,0-30.89-3.12q-16.74-.61-25.67,3.12-10.15-33.34-7.7-59.39T609.32,222.59Z"/></g></mask><mask id="mask-18" x="676.67" y="264.94" width="20.27" height="26.55" maskUnits="userSpaceOnUse"><g id="scene-11-Z"><path id="scene-11-Y" class="cls-2" d="M676.67,266.24q.36,9.17,1.68,10.18a29.58,29.58,0,0,1,4.2,4.81,2.58,2.58,0,0,0,0,2.62,3.26,3.26,0,0,0,1.61,1.3c-.29,1.34,0,2.23,1,2.69a3,3,0,0,0,2.54,2.53,2.55,2.55,0,0,0,2.92,1.05c2.09-.35,6.33-5,6.33-6.27s-1.22-6.58-2.61-8.73a82.82,82.82,0,0,0-7.2-8.47l-.79-3Z"/></g></mask><mask id="mask-19" x="676.28" y="264.94" width="20.66" height="26.55" maskUnits="userSpaceOnUse"><g id="scene-11-Z-2" data-name="scene-11-Z"><path id="scene-11-Y-2" data-name="scene-11-Y" class="cls-2" d="M676.67,266.24q.36,9.17,1.68,10.18a29.58,29.58,0,0,1,4.2,4.81,2.58,2.58,0,0,0,0,2.62,3.26,3.26,0,0,0,1.61,1.3c-.29,1.34,0,2.23,1,2.69a3,3,0,0,0,2.54,2.53,2.55,2.55,0,0,0,2.92,1.05c2.09-.35,6.33-5,6.33-6.27s-1.22-6.58-2.61-8.73a82.82,82.82,0,0,0-7.2-8.47l-.79-3Z"/></g></mask><mask id="mask-20" x="592.76" y="142.74" width="97.5" height="130.51" maskUnits="userSpaceOnUse"><g id="scene-11-ab"><path id="scene-11-aa" class="cls-2" d="M622.21,142.74q-16.73,5.7-20.25,9.79c-1.65,1.92-5.58,12.91-7.94,33q-1,8.46-1.26,30.27l11.13,23.73H648q.45,29.78,2.32,30.16T672,262.54l.93,6.2a85,85,0,0,1,10.05-2.29,31.88,31.88,0,0,1,7.32,0q-2.34-28-3.38-40c-2.62-30.15-5.14-51.49-8.42-63.11q-3.68-12.48-28.12-20.63Z"/></g></mask><mask id="mask-21" x="592.76" y="142.06" width="97.5" height="127.65" maskUnits="userSpaceOnUse"><g id="scene-11-ab-2" data-name="scene-11-ab"><path id="scene-11-aa-2" data-name="scene-11-aa" class="cls-2" d="M622.21,142.74q-16.73,5.7-20.25,9.79c-1.65,1.92-5.58,12.91-7.94,33q-1,8.46-1.26,30.27l11.13,23.73H648q.45,29.78,2.32,30.16T672,262.54l.93,6.2a85,85,0,0,1,10.05-2.29,31.88,31.88,0,0,1,7.32,0q-2.34-28-3.38-40c-2.62-30.15-5.14-51.49-8.42-63.11q-3.68-12.48-28.12-20.63Z"/></g></mask><mask id="mask-22" x="609.99" y="142.06" width="40.47" height="101.88" maskUnits="userSpaceOnUse"><g id="scene-11-ad"><path id="scene-11-ac" class="cls-2" d="M622.21,142.74q-.24,30.16-2,47.17t-8.25,50.53q21.9,4.23,36.07-.83-2.43-29-2-45,.4-16.54,4.48-52.53Z"/></g></mask><mask id="mask-23" x="592.76" y="142.74" width="97.5" height="126.96" maskUnits="userSpaceOnUse"><g id="scene-11-ab-3" data-name="scene-11-ab"><path id="scene-11-aa-3" data-name="scene-11-aa" class="cls-2" d="M622.21,142.74q-16.73,5.7-20.25,9.79c-1.65,1.92-5.58,12.91-7.94,33q-1,8.46-1.26,30.27l11.13,23.73H648q.45,29.78,2.32,30.16T672,262.54l.93,6.2a85,85,0,0,1,10.05-2.29,31.88,31.88,0,0,1,7.32,0q-2.34-28-3.38-40c-2.62-30.15-5.14-51.49-8.42-63.11q-3.68-12.48-28.12-20.63Z"/></g></mask><mask id="mask-25" x="555.73" y="191.04" width="60.55" height="65.15" maskUnits="userSpaceOnUse"><g id="scene-11-af"><polygon id="scene-11-ae" class="cls-2" points="556.56 193.09 555.73 229.51 612.96 256.18 614.77 251.39 604.97 218.17 556.56 193.09"/></g></mask><mask id="mask-26" x="555.73" y="193.09" width="59.04" height="63.09" maskUnits="userSpaceOnUse"><g id="scene-11-af-2" data-name="scene-11-af"><polygon id="scene-11-ae-2" data-name="scene-11-ae" class="cls-2" points="556.56 193.09 555.73 229.51 612.96 256.18 614.77 251.39 604.97 218.17 556.56 193.09"/></g></mask><mask id="mask-27" x="549.97" y="199.18" width="12.01" height="24.69" maskUnits="userSpaceOnUse"><g id="scene-11-ah"><path id="scene-11-ag" class="cls-2" d="M560.22,202.13q1.38-3.75-1.8-2.73-11.11,3.78-7.61,8.1a3,3,0,0,0,1.49,4.17q-1.51,6.24,2.83,6.93-5.49,2.42-4.81,4.32t5.65,0l.1-9.63a10.46,10.46,0,0,0,1.66-5.14q4.24-.48,4.25-2.44c0-1.31-.84-2.14-2.53-2.5Z"/></g></mask><mask id="mask-28" x="611.25" y="83.67" width="50.9" height="62.64" maskUnits="userSpaceOnUse"><g id="scene-11-aj"><path id="scene-11-ai" class="cls-2" d="M643,139.89c25.16,3.43,21.34-17.94,11.87-38.73Q650,84,642,86.8q-2.26-3.61-5.85-3.06c-3.59.55-17.29,3.28-20.18,24-8.26,24-6.1,30.7,9.8,32.17Q641.52,141.35,643,139.89Z"/></g></mask><mask id="mask-29" x="622.21" y="127.22" width="28.24" height="23.36" maskUnits="userSpaceOnUse"><g id="scene-11-al"><path id="scene-11-ak" class="cls-2" d="M629.6,129.14c.08,4.79-.23,8.12-.93,10s-2.84,3.08-6.46,3.59q5.24,7.84,13.66,7.84t14.58-7.84q-6.83-1-7.47-3.59t-.51-10Z"/></g></mask><mask id="mask-30" x="632.22" y="122.01" width="8.4" height="3.89" maskUnits="userSpaceOnUse"><g id="scene-11-an"><path id="scene-11-am" class="cls-2" d="M632.93,123.77c2.34,2.85,4.7,2.85,7.11,0Z"/></g></mask><linearGradient id="linear-gradient-10" x1="47.98" y1="387.97" x2="90.39" y2="387.97" xlink:href="#linear-gradient"/><mask id="mask-31" x="47.94" y="373.47" width="42.64" height="29.21" maskUnits="userSpaceOnUse"><g id="scene-11-ap"><path id="scene-11-ao" class="cls-2" d="M48.39,402.47q-2.18-14.06,7.23-22c9.4-7.91,18.67-7.8,25.05-6.13a17,17,0,0,1,9.72,6.13q-9.58,1-14.1,3.94c-4.52,2.89-5,6.84-15,9.61Q51.31,396.84,48.39,402.47Z"/></g></mask><linearGradient id="linear-gradient-11" x1="23.39" y1="353.92" x2="50.14" y2="353.92" xlink:href="#linear-gradient"/><mask id="mask-32" x="23.1" y="316.14" width="27.04" height="75.19" maskUnits="userSpaceOnUse"><g id="scene-11-ar"><path id="scene-11-aq" class="cls-2" d="M42.84,391.29q-8.22-5.16-7.47-13.84c.75-8.69-8.41-13.72-8.41-27.61s1.41-18.81-3.57-33.3q14.7,4.27,20.92,16.1c6.23,11.82,3.25,18.91,5.42,33.85Q51.89,381.44,42.84,391.29Z"/></g></mask><linearGradient id="linear-gradient-12" x1="0.09" y1="382.64" x2="34.25" y2="382.64" xlink:href="#linear-gradient"/><mask id="mask-33" x="0" y="362.82" width="34.25" height="39.76" maskUnits="userSpaceOnUse"><g id="scene-11-at"><path id="scene-11-as" class="cls-2" d="M32.51,402.47q-8.22,0-11.47-7.86c-3.25-7.83-8-7.87-11.09-17.35q-3.13-9.5-9.86-11.79a16.39,16.39,0,0,1,15.38-1.32c8,3.2,9,10,15.15,17.69Q36.77,389.51,32.51,402.47Z"/></g></mask></defs><title>Digital Marketing</title><path class="cls-3" d="M23.47,247.55c-27,139.55,90.14,179.38,190.22,159s130.5-16.58,267.54,5.29S699.49,378.19,723.9,272.32,666.14,50.71,469.46,7.75,50.49,108,23.47,247.55Z"/><ellipse class="cls-4" cx="363.79" cy="464.53" rx="346.87" ry="37.48"/><circle class="cls-5" cx="616.53" cy="40.09" r="15.69"/><circle class="cls-6" cx="111.04" cy="105.46" r="12.2"/><polygon class="cls-7" points="321.08 365.17 433.51 365.17 433.51 417.46 321.08 417.46 321.08 365.17"/><path class="cls-8" d="M308,417.46H446.56a13.08,13.08,0,1,1,0,26.15H308a13.08,13.08,0,1,1,0-26.15Z"/><path class="cls-9" d="M183.16,55.78H565.33a19.79,19.79,0,0,1,19.83,19.79v265.7c0,11-421.82,11-421.82,0V75.57A19.78,19.78,0,0,1,183.16,55.78Z"/><polygon class="cls-10" points="182.51 75.82 565.11 75.82 565.11 298.94 182.51 298.94 182.51 75.82"/><polygon class="cls-8" points="321.08 364.3 433.51 364.3 433.51 384.34 321.08 384.34 321.08 364.3"/><path class="cls-11" d="M163.34,346.12A19.84,19.84,0,0,0,183.16,366H565.33a19.85,19.85,0,0,0,19.83-19.92V319.85H163.34Z"/><circle class="cls-5" cx="508.46" cy="416.59" r="8.72"/><polygon class="cls-12" points="235.1 164.72 253.81 176.98 251.6 180.41 232.9 168.15 235.1 164.72"/><polygon class="cls-12" points="294.32 149.9 312.2 155.59 310.91 159.49 293.03 153.8 294.32 149.9"/><polygon class="cls-12" points="340.69 133.34 343.58 136.36 322.94 156.88 320.05 153.86 340.69 133.34"/><polygon class="cls-12" points="281.24 153.39 284.32 156.15 262.98 178.66 259.91 175.9 281.24 153.39"/><path class="cls-13" d="M228.15,189.93a8.33,8.33,0,0,1,8.33,8.34v43.28a8.33,8.33,0,1,1-16.66,0V198.27A8.33,8.33,0,0,1,228.15,189.93Z"/><path class="cls-14" d="M257.74,209.2a8.33,8.33,0,0,1,8.33,8.33v24a8.34,8.34,0,0,1-16.67,0v-24A8.33,8.33,0,0,1,257.74,209.2Z"/><path class="cls-15" d="M287.32,177.09a8.33,8.33,0,0,1,8.33,8.33v56.13a8.34,8.34,0,0,1-16.67,0V185.42A8.33,8.33,0,0,1,287.32,177.09Z"/><path class="cls-16" d="M316.9,186.72a8.33,8.33,0,0,1,8.33,8.33v46.5a8.33,8.33,0,0,1-16.66,0v-46.5A8.33,8.33,0,0,1,316.9,186.72Z"/><path class="cls-17" d="M346.48,157.83a8.33,8.33,0,0,1,8.33,8.33v75.39a8.33,8.33,0,1,1-16.66,0V166.16A8.33,8.33,0,0,1,346.48,157.83Z"/><path class="cls-6" d="M236.38,163.41a8.28,8.28,0,1,1-8.28-8.28A8.28,8.28,0,0,1,236.38,163.41Zm118.53-32.24a8.28,8.28,0,1,1-8.28-8.28A8.28,8.28,0,0,1,354.91,131.17Zm-28.76,28.76a8.28,8.28,0,1,1-8.28-8.28A8.28,8.28,0,0,1,326.15,159.93Zm-29.63-9.59a8.28,8.28,0,1,1-8.28-8.28A8.28,8.28,0,0,1,296.52,150.34ZM266,182.59a8.28,8.28,0,1,1-8.28-8.28A8.27,8.27,0,0,1,266,182.59Z"/><rect x="391.51" y="108.07" width="136.83" height="156" rx="6.7"/><rect class="cls-18" x="391.51" y="108.07" width="136.83" height="156" rx="6.7"/><g class="cls-19"><rect id="scene-11-s-2" data-name="scene-11-s" x="421.15" y="173.2" width="11.28" height="63.46" rx="4.02"/><rect class="cls-6" x="421.15" y="173.2" width="11.28" height="63.46" rx="4.02"/><rect id="scene-11-v-2" data-name="scene-11-v" x="443.71" y="195.11" width="11.28" height="41.55" rx="4.02"/><rect class="cls-6" x="443.71" y="195.11" width="11.28" height="41.55" rx="4.02"/><rect id="scene-11-y-3" data-name="scene-11-y" x="466.28" y="179.25" width="11.28" height="57.42" rx="4.02"/><rect class="cls-6" x="466.28" y="179.25" width="11.28" height="57.42" rx="4.02"/><rect id="scene-11-B" x="488.85" y="160.36" width="11.28" height="76.3" rx="4.02"/><rect class="cls-6" x="488.85" y="160.36" width="11.28" height="76.3" rx="4.02"/></g><g class="cls-20"><rect class="cls-5" x="388.9" y="108.07" width="140.32" height="31.38"/></g><g class="cls-19"><circle class="cls-18" cx="409.38" cy="124.19" r="2.18"/></g><g class="cls-19"><circle class="cls-18" cx="424.2" cy="124.19" r="2.18"/></g><g class="cls-19"><circle class="cls-18" cx="439.01" cy="124.19" r="2.18"/></g><polyline class="cls-21" points="185.13 467.01 135.26 362.86 97.8 362.86 72.22 467.01"/><polyline class="cls-21" points="147.32 467.01 122.47 362.86 109.09 362.86 109.09 467.01"/><path class="cls-22" d="M157.3,356.2q-11.09-4-16.92-22c-5.84-18-20.26-61.67-45.74-63s-24.85,7.33-26.95,16.36-16.5,77.06,16.52,77.06h79.45a15.41,15.41,0,0,0,10.58-4.21,2.43,2.43,0,0,0-1.67-4.2Z"/><g class="cls-23"><path class="cls-22" d="M161.64,356.22H81.76q-16.74-3.53-19-33.86H60.05l4.25,43.57H175.53V353.41H161.64Z"/></g><path class="cls-21" d="M149.29,390.19H90.66"/><path class="cls-24" d="M230.91,429.83q-4.66-.19-6.95-1.57c-7.21-4.4-11.53-12.33-14.94-21l-11,3.72a16.23,16.23,0,0,1,1.15,6.58c-.12,3.35,1.2,6.91,2.8,8.49q1.6,1.58,19.79,11.28Z"/><g class="cls-25"><polygon class="cls-26" points="210.81 407.43 198.05 419.72 197.42 412.75 210.81 407.43"/></g><path class="cls-27" d="M200.67,423.49c-1.61,1.16-1.71,3.14-.28,5.95s4.64,9.1,9.61,18.85l2.49-1.27-5.24-12.33,10.55,7.15a4.39,4.39,0,0,0,4.36.31l18.23-8.92h0q4.76-2.4-.82-3.41a36.44,36.44,0,0,0-11.23-.29c-.92,3.81-3.38,5.72-7.35,5.74S210.24,431.36,200.67,423.49Z"/><path class="cls-27" d="M76.38,305.86q-17.73,39.19,15.91,48.82c33.64,9.62,69.49-24.57,81.68-16s-2.43,12.74,9.3,40.43Q195,406.75,196.4,412.93l17-5.36Q191.49,320.74,183.27,310t-49.82-4.09Z"/><g class="cls-28"><path class="cls-21" d="M74.25,309.88l59.18-3.45"/></g><path class="cls-24" d="M153.76,462.52c-2.55-1.8-4.2-3.5-5-5.1-3.66-7.62-1.88-17.53,0-26.67L136,428.26a9.57,9.57,0,0,1-1.38,7c-1.92,2.73-3.49,6.16-3,8.36q.49,2.21,10.45,20.24Z"/><g class="cls-29"><polygon class="cls-26" points="149.1 432.79 133.3 437.52 135.08 429.13 149.1 432.79"/></g><path class="cls-27" d="M131.85,440.74q-3,.13-3.48,4.84t-2.21,21l2.78.29,2.33-13.2,4.95,11.74a4.36,4.36,0,0,0,3.49,2.64l20.14,2.45h0q5.31.57,1.18-3.31a36.66,36.66,0,0,0-9.26-6.36q-4.28,4-9.3.81T131.85,440.74Z"/><path class="cls-30" d="M96.81,355.36Q128,359,152.09,358a24.15,24.15,0,0,0-6.66,10.89c-1.78,5.89-4.16,22-6,32q-1.45,8-7,27.42l17.15,5.37q32-76.74,30.67-86.84c-1.33-10.09-8.09-16.77-25.5-7.19-6.52,3.59-16.59,9.22-28,12.08Q117.88,354,96.81,355.36Z"/><path class="cls-21" d="M120.18,192.28c-4.82.32-6.48,2.85-5,7.58,2.22,7.09-1.54,6.37-5.82,5.57"/><path class="cls-21" d="M120.18,195.41c-4.82.32-6.48,2.85-5,7.58,2.22,7.09-1.54,6.37-5.82,5.57"/><path class="cls-27" d="M87.8,171.19q-5.56-1.08-6.33-5.3t4.68-6q2-5.57,7.88-5.18c5.89.4,6.52,7.47,5.68,11.85Z"/><path class="cls-27" d="M105.77,194.92c4.9,0,7-2,10.16-5,2.82-2.67,5.51-2.27,6.28-12.17s-5.3-16.56-15.92-18.11a17.4,17.4,0,0,0-19.58,19.84C88.43,191.92,96.54,194.92,105.77,194.92Z"/><path class="cls-27" d="M96.58,189.19Q89.1,203.62,96.16,208c7.06,4.37,13.35,2.37,15.12-.75,1.18-2.09,1-5.93-.45-11.55Z"/><path class="cls-24" d="M97.86,189.93q-1,15.73-2.09,18.56t-6.45,3.58q10.46,10.6,18.87,10.6t7.4-8.86q-4.86-2.16-5.91-5.75t1.22-9.81Z"/><g class="cls-31"><path class="cls-26" d="M114.28,209.08q-4.62-2.18-8.35-4.26t-6.11-10.61l14.91,5.56Z"/></g><path class="cls-24" d="M95.29,181.72c-2.17,0-3.34,1-3.34,2.4q0,3.91,4.63,5.07c2.26,8.18,9.41,12.63,15.44,12.63,6.75,0,10.68-6.4,9.46-24.21,0-.49-.44-1.42-4.79-1.94a22.91,22.91,0,0,0-10.31,1.62l-1-1.62-.52,2.89q-4.77.72-6.3,2.63c-.39.49-1,3.72-1.39,4s-1-.09-1.42-1.46Z"/><ellipse class="cls-32" cx="111.7" cy="184.56" rx="1.09" ry="1.07"/><ellipse class="cls-32" cx="119.77" cy="184.83" rx="1.09" ry="1.07"/><path class="cls-33" d="M121.13,180.15a5.7,5.7,0,0,0-2.45-.42c-1,0-.85.8-.21.73a4.4,4.4,0,0,1,2.1.09C121.64,180.82,121.76,180.47,121.13,180.15Z"/><path class="cls-33" d="M108.76,180.09a15.78,15.78,0,0,1,4.11-.55c1,0,.89.94.14.81a14.51,14.51,0,0,0-3.7.13C108.45,180.66,108.13,180.41,108.76,180.09Z"/><path class="cls-26" d="M113.53,189.89a2.49,2.49,0,0,0,2.23,1.52c.94,0,1.41-.42,1.43-1.25,0,.21-.43.32-1.22.32A5.78,5.78,0,0,1,113.53,189.89Z"/><path class="cls-34" d="M111.31,193.65a23.9,23.9,0,0,0,3.59.73,13,13,0,0,0,3-.19,3.11,3.11,0,0,1-3,2.16C113.55,196.35,112.36,195.45,111.31,193.65Z"/><g class="cls-35"><path class="cls-36" d="M111.31,193.7c2.82,1.64,5,1.82,6.55.54l.14-.45-6.84-.4Z"/></g><path class="cls-21" d="M100.26,178.16Q96.48,180,97.73,183c1.25,2.92,7,3.63-3.26,11.29-7.1,5.3-2.56,10.36,1.55,11.23"/><path class="cls-21" d="M98.74,179.29q-3.83,1.77-2.57,4.7c1.25,2.93,7,3.63-3.27,11.3-7.1,5.29-1.44,10.56,2.67,11.7M119,174.86c2.66,2.7,4.11,5,4.37,6.81.56,4.07.09,7.68-1.88,7.51"/><path class="cls-21" d="M117.39,174.34q5.89,1,7.2,8.13c1.3,7.09-1.26,10.25-3.6,9.76"/><path class="cls-21" d="M87.49,171.2q2.61-8.38,12.09-11.13"/><circle class="cls-21" cx="121.42" cy="184.86" r="3.81"/><circle class="cls-21" cx="112.2" cy="184.86" r="3.81"/><path class="cls-21" d="M108.38,184.44l-13.16-3.39a5.34,5.34,0,0,0-3.61,1m24.4,2.84h1.85"/><path class="cls-37" d="M92.39,211.44c1.77,2.28,3.51,4.34,5.2,6.19,2.54,2.76,8.69,5.93,13.83,2.76q5.13-3.16,4.17-6.58l10.82,1a14.12,14.12,0,0,1,10.94,7.05,62.17,62.17,0,0,1,7.12,17.63q2.39,11.1,10.8,38.13,0,6-4.14,8.81c-5.89,4-10.4,3.11-13.11-2.31q-2.72-5.43-3.13-17-5,15.81-5,38.73H76.38q5.1-12.11,5.1-19.43t-5.1-23.23q-1.41,9.14-1.89,13.55a43.47,43.47,0,0,0-.24,7.73,16.21,16.21,0,0,0-6.32,6,13.45,13.45,0,0,0-1.41,7.6c-16.92,2.7-10.68-25.16-8.61-39.6s4.24-29.79,12.53-37Q78.74,214.22,92.39,211.44Z"/><g class="cls-38"><path class="cls-37" d="M135.52,302.34l-1.23-62.85q-.81,23.4-8.31,27c-7.5,3.6-31.84,1.49-37.15,0q-10-2.81-12.45-27v66.37q30.12,3.4,43.8,2.59T135.52,302.34Z"/></g><g class="cls-39"><circle class="cls-40" cx="110.46" cy="276.75" r="1.2"/></g><g class="cls-39"><path class="cls-21" d="M76.38,242.19v21m57.94-22.59v20.65"/></g><path class="cls-41" d="M95.13,301.32h40.31v5.32H95.13a.87.87,0,0,1-.88-.87V302.2A.87.87,0,0,1,95.13,301.32Z"/><path class="cls-42" d="M147.21,258.77h64.46a1.74,1.74,0,0,1,1.75,1.74,1.8,1.8,0,0,1-.14.68l-19.15,45.5a1.76,1.76,0,0,1-1.61,1.06H127.31a1.74,1.74,0,0,1-1.74-1.74,1.86,1.86,0,0,1,.14-.7l19.9-45.5A1.76,1.76,0,0,1,147.21,258.77Z"/><path class="cls-43" d="M148.54,258.77H213a1.74,1.74,0,0,1,1.74,1.74,1.79,1.79,0,0,1-.13.68l-19.16,45.5a1.74,1.74,0,0,1-1.6,1.06H128.64A1.74,1.74,0,0,1,126.9,306a1.86,1.86,0,0,1,.14-.7l19.9-45.5A1.76,1.76,0,0,1,148.54,258.77Z"/><ellipse class="cls-18" cx="170.65" cy="286.03" rx="4.65" ry="4.65"/><path class="cls-24" d="M115,288.42c.58,1.79,1.2,2.79,1.83,3s.34-.73.18-1.68-.24-1.71-.34-2.06q-.2-.75-3.18-2.34l4.53,1.6c.25,2.41.8,3.91,1.65,4.48,1.27.86.5-4.15.17-5.56-.21-.93-1.71-2-4.48-3.24l4.93,1.72c1.59,3.72,2.8,5.39,3.61,5,1.22-.58-1.44-6-1.85-6.85-.28-.55-2-1.5-5-2.82l6,2.13q3.47,5,4.74,4.34c1.27-.68-3-6.43-3.29-6.7a36.13,36.13,0,0,0-7.27-3.74c-3.18-1.16-6.42,0-13.32,1.41-1,.21-2.69.5-4.95.85l-25.82,2.78q-3.06.79-5.53,6.86T66.52,298L99.89,287l2.87-1.29q5.16,1.33,7.7,1.9C112.16,288,113.67,288.24,115,288.42Z"/><path class="cls-21" d="M74.34,277.61c-4,2.14-6.54,5-7.52,8.52"/><path class="cls-44" d="M605.71,327.89q17.77,3.94,56.56,0-3.19-5.11-13.08-5.4T609,320.77Z"/><path class="cls-12" d="M659.93,430.79q1.73,4.26,1.62,6.16t-2.28,6.48L658,433.87Z"/><path class="cls-12" d="M639.59,428.59l3.15,8.33a16.42,16.42,0,0,1-1.76,6.4q-1.59,3.23-3.89-8.84Z"/><path class="cls-12" d="M643.84,456q-4.25,3.29-2.18,7.15c2.07,3.86,3.05,4.95,5.28,5.83s12.6-.5,15.24-4.76q2.64-4.26-1.3-12.19Z"/><path class="cls-12" d="M626.54,439.24q-2.71,16.06-2.71,19.34c0,3.27,1.58,8.1,13,8.7q11.41.6,3-18.83Z"/><path class="cls-45" d="M615.15,328.57a40,40,0,0,0,.71,11.22q-3.2,26,3.4,49.11c6.59,23.08,8,32.05,6.65,40.11a3.78,3.78,0,0,0,.65,3.2q-1.77,20.48-.65,23c1.12,2.5,7.23,4.8,16.89,1.6L641,450.09q.51-12-.79-18.19c-1.31-6.15.37-7-.17-9.1s-3.1-3.95-3.62-9.24-.13-40.55.37-50.07q.5-9.51-.8-38.48l-20.57-1.07Z"/><g class="cls-46"><path class="cls-26" d="M614.7,325.32Q626.76,327,632,331.78l-.25-8.28q-9.37.12-12.31.44A11.41,11.41,0,0,0,614.7,325.32Z"/></g><path class="cls-24" d="M631.38,324.77a54.14,54.14,0,0,0,3.46,21.31q1.06,30.65,7.42,45.85c6.37,15.2,3.83,35.83,3.76,37.1s1.33,2.59,1.21,4.84-.89,17.23-3.39,22.09q3.57,5.67,15.42,3.79c2.61-.6,3-1.88,1.54-9.66s-1.71-15.23-1.21-18.22,1.11-4.2-.49-6.84-2.31-29.92-1.1-53-5.07-32-5.72-34.45L654.82,326Z"/><g class="cls-47"><path class="cls-26" d="M631.38,324.77q17.85,5.43,22.48,9.21l2.08-8.05a99.43,99.43,0,0,0-14.14-2.23A40.2,40.2,0,0,0,631.38,324.77Z"/></g><path class="cls-12" d="M609.32,222.59h46.12q17.41,30.6,12.57,55.6a324,324,0,0,0-5.74,49.7,226.76,226.76,0,0,0-30.89-3.12q-16.74-.61-25.67,3.12-10.15-33.34-7.7-59.39T609.32,222.59Z"/><g class="cls-48"><path class="cls-49" d="M597.53,275.24q8.06-27.94,36-28c28,0,40.41,10,40.41,10L660.66,222H598.6Z"/></g><path class="cls-50" d="M690.26,266.45q-10.37,5.21-17.37,2.29a43.4,43.4,0,0,1,10.4-2.87,9.07,9.07,0,0,1,3.17-.36A24.16,24.16,0,0,1,690.26,266.45Z"/><path class="cls-24" d="M676.67,266.24q.36,9.17,1.68,10.18a29.58,29.58,0,0,1,4.2,4.81,2.58,2.58,0,0,0,0,2.62,3.26,3.26,0,0,0,1.61,1.3c-.29,1.34,0,2.23,1,2.69a3,3,0,0,0,2.54,2.53,2.55,2.55,0,0,0,2.92,1.05c2.09-.35,6.33-5,6.33-6.27s-1.22-6.58-2.61-8.73a82.82,82.82,0,0,0-7.2-8.47l-.79-3Z"/><g class="cls-51"><path class="cls-21" d="M681.93,280.4l6.76,8.39c1.37.68,2.06.15,2.06-1.59s-1.65-5.55-5-11.42q6.18,7.38,6.92,8.5l-2,2.05m-3.07,4,1.22-1.29m-3.6-1,1.5-1.4M684,285.14l.9-.77"/></g><g class="cls-52"><path class="cls-26" d="M676.46,270.21a16.62,16.62,0,0,1,10.67-2.54l-.26-2.67-10.59,2Z"/></g><path class="cls-37" d="M622.21,142.74q-16.73,5.7-20.25,9.79c-1.65,1.92-5.58,12.91-7.94,33q-1,8.46-1.26,30.27l11.13,23.73H648q.45,29.78,2.32,30.16T672,262.54l.93,6.2a85,85,0,0,1,10.05-2.29,31.88,31.88,0,0,1,7.32,0q-2.34-28-3.38-40c-2.62-30.15-5.14-51.49-8.42-63.11q-3.68-12.48-28.12-20.63Z"/><g class="cls-53"><path class="cls-37" d="M669.8,243.16q-22.42-1.12-22.42-71.91-3,21.17-3.06,34.61t3.06,67.39l24.19-5.61Zm-57.87-69.63q4.64,20.67,7.39,26.87L613.82,242h-5.13Z"/></g><g class="cls-54"><path class="cls-55" d="M622.21,142.74q-.24,30.16-2,47.17t-8.25,50.53q21.9,4.23,36.07-.83-2.43-29-2-45,.4-16.54,4.48-52.53Z"/><g class="cls-56"><path class="cls-57" d="M622.18,142.74q2.05,57,26.36,73l.9,28.2H610Z"/></g></g><g class="cls-58"><path class="cls-24" d="M633.63,149.9c1.08,6.61,1.87,10.14,2.37,10.62.75.71.75-4.36,1-6.61a19.12,19.12,0,0,0,0-4Z"/></g><g class="cls-58"><path class="cls-21" d="M665.53,181.6l6,81.31m-59.64-89.38L608.69,240m59.86-18.39q7.53-2.23,10.29,0"/></g><polygon class="cls-59" points="556.56 193.09 555.73 229.51 612.96 256.18 614.77 251.39 604.97 218.17 556.56 193.09"/><g class="cls-60"><polygon class="cls-61" points="556.56 193.09 558.34 225.84 616.28 252.24 605.32 215.56 556.56 191.04 556.56 193.09"/></g><g class="cls-62"><path class="cls-21" d="M568.47,205.36v18.51m4.36-15.9v18.51m4.36-15.89V229.1"/></g><path class="cls-24" d="M560.22,202.13q1.38-3.75-1.8-2.73-11.11,3.78-7.61,8.1a3,3,0,0,0,1.49,4.17q-1.51,6.24,2.83,6.93-5.49,2.42-4.81,4.32t5.65,0l.1-9.63a10.46,10.46,0,0,0,1.66-5.14q4.24-.48,4.25-2.44c0-1.31-.84-2.14-2.53-2.5Z"/><g class="cls-63"><path class="cls-21" d="M559.45,203.21a21.52,21.52,0,0,0-8.64,4.29m6.92.65c-.66-.85-1.52-.85-2.6,0a11.15,11.15,0,0,0-2.92,4.16"/></g><path class="cls-24" d="M553.94,202.18c-1.75-2.91-2.19-4.77-1.31-5.6s2.19-.55,3.93.84V201Z"/><path class="cls-27" d="M643,139.89c25.16,3.43,21.34-17.94,11.87-38.73Q650,84,642,86.8q-2.26-3.61-5.85-3.06c-3.59.55-17.29,3.28-20.18,24-8.26,24-6.1,30.7,9.8,32.17Q641.52,141.35,643,139.89Z"/><g class="cls-64"><path class="cls-27" d="M625.77,143q-5.12-14.22-2.95-35.55l26.87-1.78q2.92,36.74-5.44,39.59T625.77,143Z"/></g><path class="cls-24" d="M629.6,129.14c.08,4.79-.23,8.12-.93,10s-2.84,3.08-6.46,3.59q5.24,7.84,13.66,7.84t14.58-7.84q-6.83-1-7.47-3.59t-.51-10Z"/><g class="cls-65"><path class="cls-26" d="M629,130.65a26.37,26.37,0,0,0,14,8.21l-.39-11.64-13.85.14Z"/></g><path class="cls-24" d="M622.82,107.47c-1.47,16.78,7.51,24.25,13.1,24.25s15.24-7.47,13.68-26.34a41.38,41.38,0,0,1-3.73-3.74,35.43,35.43,0,0,1-3.22-5.06,20.17,20.17,0,0,1-9.76,8.8Q630.25,106.52,622.82,107.47Z"/><path class="cls-26" d="M634.55,118.81a2.32,2.32,0,0,0,2.05,1.55c.85,0,1.42-.52,1.71-1.55a2.29,2.29,0,0,1-1.71.64A3.64,3.64,0,0,1,634.55,118.81Z"/><circle class="cls-66" cx="640.82" cy="112.99" r="1.09"/><circle class="cls-66" cx="631.93" cy="112.99" r="1.09"/><path class="cls-21" d="M650.45,105.69q-6.06-1.84-7.58-9.11-5.93,12.21-20.21,11"/><path class="cls-33" d="M629.1,109.74a14.58,14.58,0,0,1,3.94-.55c.92,0,.85.94.13.81a13.73,13.73,0,0,0-3.54.13C628.81,110.31,628.5,110.06,629.1,109.74Z"/><path class="cls-33" d="M643.34,109.74a14.58,14.58,0,0,0-3.94-.55c-.92,0-.85.94-.13.81a13.71,13.71,0,0,1,3.54.13C643.63,110.31,643.94,110.06,643.34,109.74Z"/><path class="cls-34" d="M632.93,123.77c2.34,2.85,4.7,2.85,7.11,0Z"/><g class="cls-67"><path class="cls-36" d="M632.22,122h8.37l0,1.57a12.42,12.42,0,0,1-4,1,15.16,15.16,0,0,1-4.33-1Z"/></g><path class="cls-21" d="M40,420.49q6.66-50,0-72.09m-3.9,72.09a119.06,119.06,0,0,0-18.33-50.2m27,50.2q1.58-25.11,16.51-36"/><path class="cls-68" d="M23.11,424.59H56.93l-4.39,37.9a4.27,4.27,0,0,1-4.25,3.78H31.74a4.27,4.27,0,0,1-4.24-3.78l-4.39-37.9Z"/><rect class="cls-69" x="19.89" y="418.15" width="40.26" height="9.66" rx="3.22"/><path class="cls-70" d="M48.39,402.47q-2.18-14.06,7.23-22c9.4-7.91,18.67-7.8,25.05-6.13a17,17,0,0,1,9.72,6.13q-9.58,1-14.1,3.94c-4.52,2.89-5,6.84-15,9.61Q51.31,396.84,48.39,402.47Z"/><g class="cls-71"><path class="cls-21" d="M90.39,380.51Q80,376.29,71.27,379c-8.73,2.75-14.34,5.41-22.88,23.43"/></g><path class="cls-72" d="M42.84,391.29q-8.22-5.16-7.47-13.84c.75-8.69-8.41-13.72-8.41-27.61s1.41-18.81-3.57-33.3q14.7,4.27,20.92,16.1c6.23,11.82,3.25,18.91,5.42,33.85Q51.89,381.44,42.84,391.29Z"/><g class="cls-73"><path class="cls-21" d="M23.39,316.54Q33.52,323.81,36.77,344c3.25,20.18,8.47,16.32,6.07,47.3"/></g><path class="cls-74" d="M32.51,402.47q-8.22,0-11.47-7.86c-3.25-7.83-8-7.87-11.09-17.35q-3.13-9.5-9.86-11.79a16.39,16.39,0,0,1,15.38-1.32c8,3.2,9,10,15.15,17.69Q36.77,389.51,32.51,402.47Z"/><g class="cls-75"><path class="cls-21" d="M.09,365.47q12.69-2.28,17.08,7c4.39,9.31,11.73,15.16,15.34,30"/></g></svg>