<svg id="Layer_1" data-name="Layer 1" xmlns="http://www.w3.org/2000/svg" xmlns:xlink="http://www.w3.org/1999/xlink" viewBox="0 0 777.82 485.58"><defs><style>.cls-1{fill:#ebeeff;}.cls-2{fill:#e4e6f9;}.cls-3{fill:#fab2c2;}.cls-4{fill:#12348e;}.cls-5{fill:url(#linear-gradient);}.cls-6{fill:url(#linear-gradient-2);}.cls-7{fill:#a1a7ff;}.cls-8{fill:url(#linear-gradient-3);}.cls-9{fill:url(#linear-gradient-4);}.cls-10{fill:url(#linear-gradient-5);}.cls-11{fill:url(#linear-gradient-6);}.cls-12{fill:url(#linear-gradient-7);}.cls-13{fill:url(#linear-gradient-8);}.cls-14{fill:#fa3e6a;}.cls-15{fill:#ff9cad;}.cls-16{fill:#fff;}.cls-17,.cls-20,.cls-21,.cls-22{fill:none;}.cls-17{stroke:#ff5c77;stroke-linecap:round;stroke-linejoin:round;stroke-width:2.57px;}.cls-18{fill:#90b5ff;}.cls-19{fill:#ffb91f;}.cls-20,.cls-21,.cls-22{stroke:#ffb91f;stroke-miterlimit:10;}.cls-21{stroke-dasharray:2.58 2.54;}.cls-22{stroke-dasharray:2.59 2.55;}.cls-23{fill:url(#linear-gradient-9);}</style><linearGradient id="linear-gradient" x1="297.34" y1="472.48" x2="461.55" y2="472.48" gradientUnits="userSpaceOnUse"><stop offset="0" stop-color="#c2ceff"/><stop offset="1" stop-color="#95aaff"/></linearGradient><linearGradient id="linear-gradient-2" x1="176.8" y1="402.63" x2="582.09" y2="402.63" xlink:href="#linear-gradient"/><linearGradient id="linear-gradient-3" x1="91.18" y1="460.96" x2="126.68" y2="460.96" gradientTransform="translate(217.87 921.92) rotate(-180)" xlink:href="#linear-gradient"/><linearGradient id="linear-gradient-4" x1="91.77" y1="151.53" x2="126.36" y2="151.53" gradientTransform="translate(25.6 -15.47) rotate(9.19)" xlink:href="#linear-gradient"/><linearGradient id="linear-gradient-5" x1="200.77" y1="151.53" x2="205.73" y2="151.53" gradientTransform="translate(406.5 303.07) rotate(-180)" xlink:href="#linear-gradient"/><linearGradient id="linear-gradient-6" x1="635.33" y1="460.96" x2="670.83" y2="460.96" xlink:href="#linear-gradient"/><linearGradient id="linear-gradient-7" x1="635.66" y1="277.76" x2="670.24" y2="277.76" gradientTransform="translate(387.65 -380.35) rotate(45)" xlink:href="#linear-gradient"/><linearGradient id="linear-gradient-8" x1="556.29" y1="277.76" x2="561.24" y2="277.76" xlink:href="#linear-gradient"/><linearGradient id="linear-gradient-9" x1="677.67" y1="321.15" x2="702.33" y2="321.15" xlink:href="#linear-gradient"/></defs><title>Marketing Automation</title><rect class="cls-1" x="69.46" y="189.04" width="142.68" height="91.46"/><rect class="cls-1" x="501.13" y="315.53" width="124.54" height="45.73"/><rect class="cls-1" x="615.4" y="143.36" width="81.2" height="99.76"/><rect class="cls-2" x="656" y="199.52" width="81.2" height="24.73"/><rect class="cls-1" x="279.01" y="81.22" width="59.75" height="51.6"/><path class="cls-3" d="M568.46,56.63l-19.1-31.31L532,35.91A61.17,61.17,0,0,0,522.47,29l4.79-19.77L491.61.56l-4.79,19.76a62.25,62.25,0,0,0-11.66,1.81L464.58,4.78l-31.31,19.1,10.58,17.35a62.8,62.8,0,0,0-7,9.54L417.14,46,408.5,81.63l19.77,4.79a61.31,61.31,0,0,0,1.81,11.66l-17.35,10.59L431.83,140l17.35-10.59a61.17,61.17,0,0,0,9.54,7l-4.79,19.77,35.65,8.63L494.36,145A62.22,62.22,0,0,0,506,143.17l10.58,17.35,31.31-19.1-10.58-17.35a62.8,62.8,0,0,0,6.95-9.54l19.76,4.79,8.64-35.65-19.77-4.79a62.12,62.12,0,0,0-1.81-11.66Zm-57.7,59.08a38.72,38.72,0,1,1,12.89-53.22A38.72,38.72,0,0,1,510.76,115.71Z"/><path class="cls-3" d="M440.77,162.41,433.5,143.5l-10.48,4a34.11,34.11,0,0,0-4.5-4.72l4.57-10.26-18.52-8.23L400,134.58a34.54,34.54,0,0,0-6.52-.17l-4-10.48-18.91,7.28,4,10.48a34.61,34.61,0,0,0-4.72,4.49l-10.26-4.56-8.23,18.51,10.27,4.56a33.77,33.77,0,0,0-.18,6.52l-10.48,4,7.28,18.91,10.48-4a33.49,33.49,0,0,0,4.49,4.72l-4.56,10.27,18.51,8.23,4.57-10.27a34.46,34.46,0,0,0,6.51.17l4,10.48,18.91-7.27-4-10.48a34.14,34.14,0,0,0,4.72-4.5L432.16,196l8.23-18.51L430.12,173a33.77,33.77,0,0,0,.17-6.52Zm-37.21,26.38a21.39,21.39,0,1,1,12.28-27.64A21.39,21.39,0,0,1,403.56,188.79Z"/><path class="cls-3" d="M219.08,401l-7.27-18.91-10.48,4a34.14,34.14,0,0,0-4.5-4.72l4.57-10.27-18.52-8.23-4.56,10.27a33.77,33.77,0,0,0-6.52-.17l-4-10.48-18.91,7.27,4,10.48a34.64,34.64,0,0,0-4.72,4.49l-10.26-4.56-8.23,18.52,10.26,4.56a34.54,34.54,0,0,0-.17,6.52l-10.48,4,7.28,18.91,10.48-4a34.12,34.12,0,0,0,4.49,4.73L147,443.68l18.51,8.23,4.57-10.27a34.46,34.46,0,0,0,6.51.18l4,10.47L199.51,445l-4-10.48a33.49,33.49,0,0,0,4.72-4.49l10.27,4.56,8.23-18.52-10.27-4.56a34.46,34.46,0,0,0,.17-6.51Zm-37.21,26.37a21.39,21.39,0,1,1,12.28-27.64A21.39,21.39,0,0,1,181.87,427.36Z"/><rect class="cls-4" x="176.8" y="169.59" width="405.28" height="262.51" rx="3.28"/><rect class="cls-4" x="321.49" y="432.11" width="115.91" height="27.26"/><path class="cls-5" d="M461.55,485.58H297.34a26.21,26.21,0,0,1,26.22-26.21H435.33a26.21,26.21,0,0,1,26.22,26.21Z"/><path class="cls-6" d="M176.8,373.16V426a6.08,6.08,0,0,0,6.08,6.08H576a6.08,6.08,0,0,0,6.08-6.08V373.16Z"/><rect class="cls-7" x="187.94" y="180.52" width="383.02" height="182.76"/><path class="cls-4" d="M384.65,401.15a5.21,5.21,0,1,1-5.21-5.2A5.2,5.2,0,0,1,384.65,401.15Z"/><rect class="cls-4" x="-48.03" y="305.17" width="314.19" height="12.4" transform="translate(-202.31 420.43) rotate(-90)"/><path class="cls-4" d="M82.53,468.47H135.6a17.12,17.12,0,0,1,17.12,17.11H65.41A17.12,17.12,0,0,1,82.53,468.47Z"/><rect class="cls-8" x="91.18" y="453.45" width="35.5" height="15.01" transform="translate(217.87 921.92) rotate(180)"/><rect class="cls-4" x="109.06" y="145.33" width="96.66" height="12.4" transform="translate(314.79 303.07) rotate(180)"/><circle class="cls-4" cx="109.06" cy="151.53" r="24.72"/><circle class="cls-9" cx="109.06" cy="151.53" r="17.29" transform="translate(-22.8 19.36) rotate(-9.19)"/><polygon class="cls-4" points="205.73 209.12 247.93 209.12 247.93 194.92 219.93 194.92 219.93 108.14 247.93 108.14 247.93 93.94 205.73 93.94 205.73 209.12"/><rect class="cls-10" x="200.77" y="136.81" width="4.96" height="29.44" transform="translate(406.5 303.07) rotate(180)"/><rect class="cls-4" x="558.97" y="368.28" width="187.96" height="12.4" transform="translate(278.47 1027.44) rotate(-90)"/><path class="cls-4" d="M679.48,468.47H626.42a17.11,17.11,0,0,0-17.12,17.11h87.3A17.11,17.11,0,0,0,679.48,468.47Z"/><rect class="cls-11" x="635.33" y="453.45" width="35.5" height="15.01"/><rect class="cls-4" x="556.29" y="271.56" width="96.66" height="12.4"/><circle class="cls-4" cx="652.95" cy="277.76" r="24.72" transform="translate(273.78 877.53) rotate(-80.74)"/><circle class="cls-12" cx="652.95" cy="277.76" r="17.29" transform="translate(-5.16 543.06) rotate(-45)"/><polygon class="cls-4" points="556.29 335.35 514.08 335.35 514.08 321.15 542.09 321.15 542.09 234.37 514.08 234.37 514.08 220.17 556.29 220.17 556.29 335.35"/><rect class="cls-13" x="556.29" y="263.04" width="4.96" height="29.44"/><polygon class="cls-14" points="542.29 321.15 399.11 321.15 399.11 234.37 470.7 277.16 542.29 234.37 542.29 321.15"/><polygon class="cls-14" points="542.29 234.37 470.7 277.16 542.29 321.15 542.29 234.37"/><polygon class="cls-14" points="399.11 234.37 470.7 277.16 399.11 321.15 399.11 234.37"/><polygon class="cls-15" points="399.11 234.37 542.29 234.37 470.7 298.94 399.11 234.37"/><rect class="cls-14" x="219.93" y="108.21" width="103.08" height="86.64"/><path class="cls-16" d="M290.38,149.92l-28.73-16.44a1.86,1.86,0,0,0-2.78,1.62V168a1.89,1.89,0,0,0,.93,1.61,1.93,1.93,0,0,0,.93.25,1.87,1.87,0,0,0,.92-.25l28.73-16.44a1.86,1.86,0,0,0,0-3.22Z"/><circle class="cls-4" cx="584.03" cy="70.77" r="70.77"/><circle class="cls-7" cx="584.03" cy="70.77" r="58.48"/><circle class="cls-15" cx="584.03" cy="70.77" r="10.27"/><polyline class="cls-17" points="598.17 26.63 584.03 70.78 560.69 70.78"/><circle class="cls-14" cx="584.03" cy="70.77" r="5.01"/><polygon class="cls-18" points="309.17 249.4 144.49 249.4 144.49 324.24 240.06 324.24 266.73 351.68 262.1 324.24 309.17 324.24 309.17 249.4"/><rect class="cls-14" x="152.58" y="262.81" width="59.56" height="6.31"/><rect class="cls-7" x="246.88" y="276.12" width="40.8" height="6.31"/><rect class="cls-7" x="218.15" y="262.81" width="69.52" height="6.31"/><rect class="cls-14" x="152.58" y="276.12" width="40.17" height="6.31"/><rect class="cls-7" x="199.89" y="276.12" width="40.17" height="6.31"/><rect class="cls-7" x="152.58" y="290.22" width="59.56" height="6.31"/><rect class="cls-14" x="246.88" y="303.54" width="40.8" height="6.31"/><rect class="cls-14" x="218.15" y="290.22" width="69.52" height="6.31"/><rect class="cls-14" x="152.58" y="303.54" width="40.17" height="6.31"/><rect class="cls-7" x="199.89" y="303.54" width="40.17" height="6.31"/><path class="cls-19" d="M648,144.19h-.33a17,17,0,0,1-17,17v.34a17,17,0,0,1,17,17H648a17,17,0,0,1,17-17v-.34A17,17,0,0,1,648,144.19Z"/><path class="cls-4" d="M157.56,68.39h-.33a17,17,0,0,1-17,17v.33a17,17,0,0,1,17,17h.33a17,17,0,0,1,17-17v-.33A17,17,0,0,1,157.56,68.39Z"/><path class="cls-14" d="M119.59,43.92A10.53,10.53,0,1,1,109.06,33.4,10.52,10.52,0,0,1,119.59,43.92Z"/><path class="cls-19" d="M625.67,213.72a10.53,10.53,0,1,1-10.53-10.52A10.53,10.53,0,0,1,625.67,213.72Z"/><path class="cls-20" d="M426.05,203.11c.33-.28.66-.56,1-.83"/><path class="cls-21" d="M429.05,200.71a60.83,60.83,0,0,1,37.84-12.08c6.74.18,13.82,1.7,18.74,6.31a18.13,18.13,0,0,1-18.2,30.4c-11.39-3.84-16-17.69-15.84-29.72.4-23.21,13-45,30-60.75a142,142,0,0,1,23.68-17.46"/><path class="cls-20" d="M506.39,116.76l1.12-.66"/><path class="cls-22" d="M144.28,273.37c-21,1.28-42.11,5.64-60.47,15.85S50,316,44.17,336.17c-2.9,10-3.33,21.12,1.06,30.57s14.31,16.7,24.7,15.91c4.93-.37,9.89-2.67,12.59-6.82s2.59-10.2-.93-13.68c-5.92-5.85-16.33-1.33-21.35,5.3-10.39,13.72-8.8,34.14,1,48.31a58.42,58.42,0,0,0,18.85,17.11"/><path class="cls-23" d="M702.29,318.32a.83.83,0,0,0-.79-.57h-8.19l-2.53-7.8a.83.83,0,0,0-.78-.56.82.82,0,0,0-.78.56l-2.53,7.8h-8.2a.82.82,0,0,0-.48,1.48l6.63,4.82-2.53,7.79a.82.82,0,0,0,1.26.92l6.63-4.82,6.63,4.82a.8.8,0,0,0,1,0,.82.82,0,0,0,.3-.92l-2.53-7.79,6.63-4.82A.81.81,0,0,0,702.29,318.32Z"/><path class="cls-19" d="M740,318.32a.82.82,0,0,0-.78-.57h-8.19l-2.54-7.8a.81.81,0,0,0-.78-.56.83.83,0,0,0-.78.56l-2.53,7.8h-8.19a.82.82,0,0,0-.49,1.48l6.63,4.82-2.53,7.79a.82.82,0,0,0,1.27.92l6.62-4.82,6.63,4.82a.82.82,0,0,0,1,0,.82.82,0,0,0,.3-.92l-2.53-7.79,6.62-4.82A.81.81,0,0,0,740,318.32Z"/><path class="cls-19" d="M777.78,318.32a.83.83,0,0,0-.78-.57h-8.2l-2.53-7.8a.82.82,0,0,0-1.56,0l-2.53,7.8H754a.83.83,0,0,0-.78.57.81.81,0,0,0,.3.91l6.63,4.82-2.53,7.79a.82.82,0,0,0,.3.92.81.81,0,0,0,1,0l6.63-4.82,6.63,4.82a.8.8,0,0,0,1,0,.82.82,0,0,0,.3-.92l-2.53-7.79,6.63-4.82A.81.81,0,0,0,777.78,318.32Z"/><path class="cls-14" d="M69.33,257.12a5,5,0,0,0-5.08-4.71H41.84c.31,0,1.11-2.91,1.21-3.29a13.67,13.67,0,0,0-.86-9.27c-1-2.09-3-6.11-5.9-5.39-2.5.62-2.79,3.53-2.81,6.62-.09,7.64-3.49,10-10.64,16.26-1.64,1.43-2.78,2.35-2.78,2.35v31h37.2a4.94,4.94,0,0,0,1.86-9.52h.35a5,5,0,0,0,2.22-9.48,4.95,4.95,0,0,0,2.19-9.38h.51A4.94,4.94,0,0,0,69.33,257.12Z"/><polygon class="cls-14" points="0 290.68 16.99 290.68 16.99 259.42 0 259.42 0 290.68 0 290.68"/></svg>