<svg id="Layer_1" data-name="Layer 1" xmlns="http://www.w3.org/2000/svg" xmlns:xlink="http://www.w3.org/1999/xlink" viewBox="0 0 599 523"><defs><style>.cls-1,.cls-2{fill:#fff;}.cls-10,.cls-14,.cls-2,.cls-23,.cls-27,.cls-28,.cls-3,.cls-30,.cls-31,.cls-32,.cls-36,.cls-39,.cls-4,.cls-40,.cls-41,.cls-45,.cls-47,.cls-5,.cls-50,.cls-51,.cls-53,.cls-7,.cls-8{fill-rule:evenodd;}.cls-3{fill:url(#Gradiente_sem_nome_69);}.cls-4{fill:#f8faff;}.cls-5{fill:url(#linear-gradient);}.cls-11,.cls-22,.cls-25,.cls-34,.cls-37,.cls-43,.cls-44,.cls-48,.cls-52,.cls-6,.cls-9{fill:none;}.cls-37,.cls-6{stroke:#455a94;}.cls-11,.cls-22,.cls-25,.cls-6,.cls-9{stroke-linecap:round;}.cls-6{stroke-width:3px;}.cls-54,.cls-7{fill:#455a94;}.cls-8{fill:url(#linear-gradient-2);}.cls-9{stroke:#f3a161;}.cls-11,.cls-9{stroke-width:5.6px;}.cls-10,.cls-12{fill:#a1a7ff;}.cls-11{stroke:#5a7cdb;}.cls-13{mask:url(#mask);}.cls-14,.cls-16{fill:#ffb91f;}.cls-15,.cls-23{fill:#2e3c72;}.cls-17{fill:#ebf1ff;}.cls-18{mask:url(#mask-2);}.cls-19,.cls-45{fill:#12348e;}.cls-20{fill:#fa3e6a;}.cls-21{fill:url(#linear-gradient-3);}.cls-22,.cls-43{stroke:#0b1f6e;stroke-width:2px;}.cls-24{fill:#eff2ff;}.cls-25{stroke:#66510f;stroke-width:4px;}.cls-26{mask:url(#mask-3);}.cls-27{fill:#bc9314;}.cls-28{fill:#ffc6cb;}.cls-29{mask:url(#mask-4);}.cls-30{fill:#fd9493;}.cls-31{fill:#022329;}.cls-32{fill:url(#linear-gradient-4);}.cls-33{mask:url(#mask-5);}.cls-34{stroke:#084580;stroke-width:0.5px;}.cls-35{mask:url(#mask-6);}.cls-36{fill:url(#linear-gradient-5);}.cls-37{stroke-miterlimit:10;}.cls-38{mask:url(#mask-7);}.cls-39{fill:#271e1e;}.cls-40{fill:#553d3f;}.cls-41{fill:#8f4447;}.cls-42{mask:url(#mask-8);}.cls-44{stroke:#022329;}.cls-46{mask:url(#mask-9);}.cls-47{fill:#ff9095;}.cls-48{stroke:#5c4644;}.cls-49{fill:#727a9c;}.cls-50{fill:#b4b8cc;}.cls-51{fill:url(#linear-gradient-6);}.cls-52{stroke:#29365a;stroke-width:0.7px;}.cls-53{fill:#8598cc;}.cls-55{fill:url(#linear-gradient-7);}.cls-56{mask:url(#mask-10);}.cls-57{fill:url(#linear-gradient-8);}.cls-58{mask:url(#mask-11);}.cls-59{fill:url(#linear-gradient-9);}.cls-60{mask:url(#mask-12);}</style><linearGradient id="Gradiente_sem_nome_69" y1="198.5" x2="599" y2="198.5" gradientUnits="userSpaceOnUse"><stop offset="0.16" stop-color="#e08197"/><stop offset="1" stop-color="#e08197" stop-opacity="0"/></linearGradient><linearGradient id="linear-gradient" x1="416.5" y1="671.92" x2="416.5" y2="191.92" gradientTransform="matrix(1, 0, 0, -1, 0, 671.92)" gradientUnits="userSpaceOnUse"><stop offset="0" stop-color="#c2ceff"/><stop offset="1" stop-color="#95aaff"/></linearGradient><linearGradient id="linear-gradient-2" x1="417.03" y1="649.06" x2="417.03" y2="204.49" gradientTransform="matrix(1, 0, 0, -1, 0, 671.92)" gradientUnits="userSpaceOnUse"><stop offset="0" stop-color="#fcfcff"/><stop offset="1" stop-color="#ebefff"/></linearGradient><mask id="mask" x="436.92" y="195" width="143.22" height="159.39" maskUnits="userSpaceOnUse"><g id="mask0"><rect class="cls-1" x="440" y="195" width="140.14" height="159.39" rx="7.7"/></g></mask><mask id="mask-2" x="274.93" y="195" width="142.91" height="159.04" maskUnits="userSpaceOnUse"><g id="mask1"><rect class="cls-1" x="278" y="195" width="139.83" height="159.04" rx="7.68"/></g></mask><linearGradient id="linear-gradient-3" x1="417.3" y1="292.92" x2="417.3" y2="225.72" xlink:href="#linear-gradient"/><mask id="mask-3" x="76.49" y="255" width="133.58" height="108.88" maskUnits="userSpaceOnUse"><g id="mask2"><path class="cls-2" d="M188.07,352.7s-12.71-4.54-19.41-25.21-23.25-70.77-52.49-72.33-28.51,8.42-30.92,18.78-18.93,88.41,19,88.41H192.6a24.65,24.65,0,0,0,16.94-6.74h0a1.68,1.68,0,0,0-1.16-2.91Z"/></g></mask><mask id="mask-4" x="234.11" y="411.27" width="38.43" height="34.5" maskUnits="userSpaceOnUse"><g id="mask3"><path class="cls-2" d="M272.54,437.19s-5.36-.21-8-1.81c-8.27-5-13.23-14.14-17.14-24.11l-12.59,4.27a21.45,21.45,0,0,1,1.32,7.55c-.14,3.84,1.37,7.92,3.22,9.74s22.7,12.94,22.7,12.94Z"/></g></mask><linearGradient id="linear-gradient-4" x1="89.86" y1="355.2" x2="252.48" y2="355.2" gradientTransform="matrix(1, 0, 0, 1, 0, 0)" xlink:href="#linear-gradient"/><mask id="mask-5" x="89.86" y="292.59" width="162.61" height="125.21" maskUnits="userSpaceOnUse"><g id="mask4"><path class="cls-2" d="M95.22,294.94s-20.34,45,18.26,56,79.74-28.19,93.72-18.4-2.79,14.62,10.67,46.38,15.07,38.86,15.07,38.86l19.54-6.15s-25.19-99.64-34.61-112-57.16-4.7-57.16-4.7Z"/></g></mask><mask id="mask-6" x="158.46" y="435.39" width="25.55" height="40.81" maskUnits="userSpaceOnUse"><g id="mask5"><path class="cls-2" d="M184,474.7s-4.38-3.09-5.7-5.85c-4.2-8.74-2.15-20.12,0-30.6l-14.71-2.86s.63,4.86-1.58,8-4,7.06-3.45,9.59,12,23.22,12,23.22Z"/></g></mask><linearGradient id="linear-gradient-5" x1="118.66" y1="384.99" x2="214.43" y2="384.99" gradientTransform="matrix(1, 0, 0, 1, 0, 0)" xlink:href="#linear-gradient"/><mask id="mask-7" x="110.08" y="161.92" width="30.18" height="37.58" maskUnits="userSpaceOnUse"><g id="mask6"><path class="cls-2" d="M119.87,161.92s-1.2,18.06-2.39,21.3-7.4,4.11-7.4,4.11,12,12.17,21.65,12.17,8.48-10.17,8.48-10.17-5.56-2.49-6.78-6.6,1.41-11.25,1.41-11.25Z"/></g></mask><mask id="mask-8" x="135.13" y="165.9" width="7.86" height="3.4" maskUnits="userSpaceOnUse"><g id="mask7"><path class="cls-2" d="M135.3,166.2a34.83,34.83,0,0,0,4.13.83,17.76,17.76,0,0,0,3.39-.22s-1.08,2.49-3.39,2.49S135.3,166.2,135.3,166.2Z"/></g></mask><mask id="mask-9" x="70.77" y="186.61" width="114.98" height="111.45" maskUnits="userSpaceOnUse"><g id="mask8"><path class="cls-2" d="M113.6,186.61s3.05,3.92,6,7.1,10,6.8,15.87,3.17,4.78-7.55,4.78-7.55L153,190.51a14.77,14.77,0,0,1,11.62,7.25c3.11,5.5,7.17,13.62,8.76,21,2.74,12.73,12.39,43.75,12.39,43.75s0,6.88-4.75,10.12c-6.75,4.6-11.93,3.56-15-2.66s-3.59-19.49-3.59-19.49-5.69,18.14-5.69,44.43H95.22s5.85-13.89,5.85-22.28S95.22,246,95.22,246s-1.61,10.47-2.16,15.54a55.15,55.15,0,0,0-.28,8.88s-5.24,3.09-7.25,6.83S83.91,286,83.91,286c-19.42,3.1-12.25-28.86-9.88-45.43s4.87-34.19,14.38-42.47S113.6,186.61,113.6,186.61Z"/></g></mask><linearGradient id="linear-gradient-6" x1="153.19" y1="269.02" x2="253.99" y2="269.02" gradientUnits="userSpaceOnUse"><stop offset="0" stop-color="#a1b2ff"/><stop offset="1" stop-color="#5679d9"/></linearGradient><linearGradient id="linear-gradient-7" x1="55.86" y1="389.16" x2="104.3" y2="389.16" gradientTransform="matrix(1, 0, 0, 1, 0, 0)" xlink:href="#linear-gradient"/><mask id="mask-10" x="55.21" y="372.52" width="49.47" height="33.7" maskUnits="userSpaceOnUse"><g id="mask9"><path class="cls-1" d="M56.11,405.79s-2.5-16.11,8.29-25.19,21.43-9,28.75-7a21.7,21.7,0,0,1,11.15,7s-11,1.19-16.18,4.52-5.73,7.85-17.19,11S56.11,405.79,56.11,405.79Z"/></g></mask><linearGradient id="linear-gradient-8" x1="27.43" y1="350.09" x2="58.03" y2="350.09" gradientTransform="matrix(1, 0, 0, 1, 0, 0)" xlink:href="#linear-gradient"/><mask id="mask-11" x="26.85" y="306.39" width="31.18" height="86.66" maskUnits="userSpaceOnUse"><g id="mask10"><path class="cls-1" d="M49.74,393s-9.43-5.92-8.57-15.88-9.65-15.74-9.65-31.69,1.62-21.58-4.09-38.2c0,0,16.85,4.91,24,18.47s3.73,21.7,6.21,38.85A36.64,36.64,0,0,1,49.74,393Z"/></g></mask><linearGradient id="linear-gradient-9" x1="0.69" y1="383.15" x2="39.54" y2="383.15" gradientTransform="matrix(1, 0, 0, 1, 0, 0)" xlink:href="#linear-gradient"/><mask id="mask-12" x="0.51" y="360.51" width="39.03" height="45.51" maskUnits="userSpaceOnUse"><g id="mask11"><path class="cls-1" d="M37.89,405.79s-9.44,0-13.16-9-9.13-9-12.73-19.9S.69,363.34.69,363.34s8.53-5.18,17.65-1.51,10.33,11.5,17.38,20.3S37.89,405.79,37.89,405.79Z"/></g></mask></defs><title>Mobile Marketing</title><path class="cls-3" d="M3.33,235C-19.51,364.6,79.53,401.6,164.14,382.71s110.32-15.4,226.17,4.91S574.82,356.33,595.46,258,546.63,52.11,380.36,12.2,26.17,105.33,3.33,235Z"/><path class="cls-4" d="M299.5,523C464.91,523,599,503.75,599,480s-134.09-43-299.5-43S0,456.25,0,480,134.09,523,299.5,523Z"/><path class="cls-5" d="M300,25A25,25,0,0,1,325,0H508a25,25,0,0,1,25,25V455a25,25,0,0,1-25,25H325a25,25,0,0,1-25-25Z"/><path class="cls-6" d="M401.07,12h41.59"/><path class="cls-7" d="M387.24,16a3.31,3.31,0,0,0,3.19-3.43,3.2,3.2,0,1,0-6.38,0A3.31,3.31,0,0,0,387.24,16Z"/><path class="cls-8" d="M309.58,44.91a22,22,0,0,1,22.05-22H502.44a22,22,0,0,1,22.05,22V445.38a22,22,0,0,1-22.05,22.05H331.63a22,22,0,0,1-22.05-22.05Z"/><path class="cls-9" d="M332.11,163.4s28.59-32.46,63.09-21.64,55.32,9.47,71.84-14.09S499,99,512.52,99"/><path class="cls-10" d="M483.21,121.29a9.91,9.91,0,1,0-9.9-9.9A9.9,9.9,0,0,0,483.21,121.29Z"/><path class="cls-10" d="M370.64,151a9.91,9.91,0,1,0-9.89-9.9A9.9,9.9,0,0,0,370.64,151Z"/><path class="cls-11" d="M316.11,115.4S344.7,82.94,379.2,93.76s55.32,9.47,71.84-14.09S483,51,496.52,51"/><path class="cls-10" d="M467.21,73.29a9.91,9.91,0,1,0-9.9-9.9A9.9,9.9,0,0,0,467.21,73.29Z"/><path class="cls-10" d="M354.64,103a9.91,9.91,0,1,0-9.89-9.9A9.9,9.9,0,0,0,354.64,103Z"/><rect class="cls-12" x="440" y="195" width="140.14" height="159.39" rx="7.7"/><g class="cls-13"><path class="cls-14" d="M545,294.39a34.79,34.79,0,1,1-34.79-34.79v34.79L537.68,273A34.66,34.66,0,0,1,545,294.39Z"/><path class="cls-15" d="M545,294.39a34.75,34.75,0,0,1-14.41,28.2l-20.38-28.2L537.67,273A34.61,34.61,0,0,1,545,294.39Z"/><path class="cls-15" d="M545.38,256.9l-27.47,21.28V243.51a34.76,34.76,0,0,1,27.47,13.39Z"/><rect class="cls-16" x="436.92" y="195" width="143.22" height="32.34"/><path class="cls-10" d="M457.71,213.48a2.31,2.31,0,1,0-2.31-2.31A2.3,2.3,0,0,0,457.71,213.48Z"/><path class="cls-10" d="M473.11,213.48a2.31,2.31,0,1,0-2.31-2.31A2.3,2.3,0,0,0,473.11,213.48Z"/><path class="cls-10" d="M488.51,213.48a2.31,2.31,0,1,0-2.31-2.31A2.3,2.3,0,0,0,488.51,213.48Z"/></g><rect class="cls-17" x="278" y="195" width="139.83" height="159.04" rx="7.68"/><g class="cls-18"><rect class="cls-19" x="307.96" y="261.08" width="11.52" height="64.54" rx="4.61"/><rect class="cls-19" x="331.01" y="283.36" width="11.52" height="42.26" rx="4.61"/><rect class="cls-19" x="354.06" y="267.22" width="11.52" height="58.39" rx="4.61"/><rect class="cls-19" x="377.11" y="248.01" width="11.52" height="77.6" rx="4.61"/><rect class="cls-20" x="274.93" y="195" width="142.91" height="32.27"/><path class="cls-10" d="M295.67,213.44a2.31,2.31,0,1,0-2.3-2.3A2.31,2.31,0,0,0,295.67,213.44Z"/><path class="cls-10" d="M311,213.44a2.31,2.31,0,1,0-2.31-2.3A2.3,2.3,0,0,0,311,213.44Z"/><path class="cls-10" d="M326.4,213.44a2.31,2.31,0,1,0-2.3-2.3A2.3,2.3,0,0,0,326.4,213.44Z"/></g><rect class="cls-21" x="336" y="379" width="162.6" height="67.2" rx="5.4"/><path class="cls-22" d="M411,394.9h67.2"/><path class="cls-22" d="M411,412.9h67.2"/><path class="cls-22" d="M411,430.9h67.2"/><path class="cls-23" d="M392.55,415.75A19,19,0,0,1,365,432.67a19.17,19.17,0,0,1-5.47-4.19,19,19,0,0,1,14.08-31.7v19l15-11.64a18.88,18.88,0,0,1,4,11.64Z"/><path class="cls-20" d="M392.55,415.75a18.93,18.93,0,0,1-7.86,15.38l-11.11-15.38,15-11.65A18.93,18.93,0,0,1,392.55,415.75Z"/><path class="cls-24" d="M391.18,398.3l-15,11.61V391a19,19,0,0,1,15,7.3Z"/><path class="cls-25" d="M220,479.85l-57.21-119.5h-43L90.45,479.85"/><path class="cls-25" d="M176.63,479.85l-28.52-119.5H132.76v119.5"/><path class="cls-14" d="M188.07,352.7s-12.71-4.54-19.41-25.21-23.25-70.77-52.49-72.33-28.51,8.42-30.92,18.78-18.93,88.41,19,88.41H192.6a24.65,24.65,0,0,0,16.94-6.74h0a1.68,1.68,0,0,0-1.16-2.91Z"/><g class="cls-26"><path class="cls-27" d="M193.06,352.73H101.4s-19.22-4-21.79-38.85H76.49l4.88,50H209V349.51H193.06Z"/></g><path class="cls-25" d="M178.89,391.7H111.61"/><path class="cls-28" d="M272.54,437.19s-5.36-.21-8-1.81c-8.27-5-13.23-14.14-17.14-24.11l-12.59,4.27a21.45,21.45,0,0,1,1.32,7.55c-.14,3.84,1.37,7.92,3.22,9.74s22.7,12.94,22.7,12.94Z"/><g class="cls-29"><path class="cls-30" d="M249.48,411.49l-14.65,14.1-.72-8Z"/></g><path class="cls-31" d="M237.84,429.92s-2.78,2-.32,6.82l11,21.63,2.86-1.45-6-14.16L257.49,451a5,5,0,0,0,5,.35l20.92-10.22s5.46-2.77-.93-3.92a48.36,48.36,0,0,0-12.89-.34s-1.6,6.56-8.44,6.59S237.84,429.92,237.84,429.92Z"/><path class="cls-32" d="M95.22,294.94s-20.34,45,18.26,56,79.74-28.19,93.72-18.4-2.79,14.62,10.67,46.38,15.07,38.86,15.07,38.86l19.54-6.15s-25.19-99.64-34.61-112-57.16-4.7-57.16-4.7Z"/><g class="cls-33"><path class="cls-34" d="M92.78,299.55l67.91-3.95"/></g><path class="cls-28" d="M184,474.7s-4.38-3.09-5.7-5.85c-4.2-8.74-2.15-20.12,0-30.6l-14.71-2.86s.63,4.86-1.58,8-4,7.06-3.45,9.59,12,23.22,12,23.22Z"/><g class="cls-35"><path class="cls-30" d="M178.67,440.59,160.53,446l2.05-9.62Z"/></g><path class="cls-31" d="M158.87,449.71s-3.42.15-4,5.55-2.53,24.14-2.53,24.14l3.19.34,2.66-15.15,5.68,13.48a5,5,0,0,0,4,3L191,483.9s6.08.66,1.35-3.79a48.06,48.06,0,0,0-10.62-7.3s-4.91,4.63-10.67.93S158.87,449.71,158.87,449.71Z"/><path class="cls-36" d="M118.66,351.75s35.82,4.22,63.44,3a31.42,31.42,0,0,0-7.65,12.49c-2,6.77-4.77,25.29-6.86,36.73-1.67,9.12-8.08,31.47-8.08,31.47l19.69,6.16s36.71-88.06,35.18-99.64-9.28-19.25-29.25-8.25c-7.49,4.11-19,10.57-32.1,13.86C142.84,350.14,118.66,351.75,118.66,351.75Z"/><path class="cls-37" d="M145.48,164.62s-8.29.56-5.74,8.7-1.77,7.31-6.69,6.39"/><path class="cls-37" d="M145.48,168.21s-8.29.56-5.74,8.7-1.77,7.31-6.69,6.4"/><path class="cls-7" d="M108.33,140.42s-6.38-1.24-7.26-6.08,5.36-6.85,5.36-6.85,2.29-6.4,9-5.95,7.48,8.57,6.52,13.6Z"/><path class="cls-7" d="M129,167.65c5.62,0,8-2.25,11.65-5.73,3.24-3.06,6.32-2.6,7.22-14s-6.08-19-18.27-20.77a20,20,0,0,0-22.47,22.75C109.05,164.22,118.36,167.65,129,167.65Z"/><path class="cls-7" d="M118.4,161.08s-8.58,16.56-.48,21.58,15.32,2.72,17.35-.86-.51-13.25-.51-13.25Z"/><path class="cls-28" d="M119.87,161.92s-1.2,18.06-2.39,21.3-7.4,4.11-7.4,4.11,12,12.17,21.65,12.17,8.48-10.17,8.48-10.17-5.56-2.49-6.78-6.6,1.41-11.25,1.41-11.25Z"/><g class="cls-38"><path class="cls-30" d="M138.71,183.91s-5.29-2.51-9.58-4.89-7-12.18-7-12.18l17.11,6.38Z"/></g><path class="cls-28" d="M116.93,152.51c-2.5,0-3.84,1.14-3.84,2.75,0,4.49,5.31,5.82,5.31,5.82,2.6,9.39,10.81,14.49,17.72,14.49,7.75,0,12.26-7.34,10.85-27.77,0-.57-.5-1.64-5.49-2.23s-11.83,1.85-11.83,1.85l-1.13-1.85-.6,3.31s-5.49.83-7.23,3c-.44.56-1.21,4.27-1.6,4.6-.82.69-1.63-1.68-1.63-1.68Z"/><path class="cls-39" d="M135.76,157a1.23,1.23,0,1,0-1.25-1.23A1.24,1.24,0,0,0,135.76,157Z"/><path class="cls-39" d="M145,157.31a1.24,1.24,0,1,0-1.25-1.24A1.25,1.25,0,0,0,145,157.31Z"/><path class="cls-40" d="M146.57,150.71a6.47,6.47,0,0,0-2.81-.48c-1.11,0-1,.91-.24.83a5.06,5.06,0,0,1,2.41.1C147.16,151.47,147.29,151.08,146.57,150.71Z"/><path class="cls-40" d="M132.38,150.64a18.08,18.08,0,0,1,4.72-.64c1.11,0,1,1.09.15.93a16.87,16.87,0,0,0-4.23.16C132,151.29,131.66,151,132.38,150.64Z"/><path class="cls-30" d="M137.85,161.88a3.37,3.37,0,0,0,2.56,1.74,1.49,1.49,0,0,0,1.64-1.43s0,.37-1.39.37A7.76,7.76,0,0,1,137.85,161.88Z"/><path class="cls-41" d="M135.3,166.2a34.83,34.83,0,0,0,4.13.83,17.76,17.76,0,0,0,3.39-.22s-1.08,2.49-3.39,2.49S135.3,166.2,135.3,166.2Z"/><g class="cls-42"><path class="cls-10" d="M135.3,166.26s4.86,2.81,7.52.62l.16-.52-7.85-.46Z"/></g><path class="cls-37" d="M122.63,148.42s-4.34,2.14-2.9,5.5,8,4.16-3.75,13c-8.15,6.07-2.94,11.88,1.78,12.88"/><path class="cls-37" d="M120.88,149.71s-4.38,2-2.95,5.4,8,4.17-3.75,13c-8.14,6.08-1.65,12.13,3.06,13.43"/><path class="cls-37" d="M144.07,144.64s4.58,4.64,5,7.81c.64,4.66.1,8.81-2.15,8.62"/><path class="cls-37" d="M142.28,144s6.76,1.19,8.26,9.32-1.44,11.77-4.13,11.21"/><path class="cls-43" d="M108,140.43a20.93,20.93,0,0,1,13.87-12.77"/><path class="cls-44" d="M146.9,160.49a4.38,4.38,0,1,0-4.37-4.37A4.38,4.38,0,0,0,146.9,160.49Z"/><path class="cls-44" d="M136.32,160.49a4.38,4.38,0,1,0-4.37-4.37A4.38,4.38,0,0,0,136.32,160.49Z"/><path class="cls-44" d="M132,155.63l-15.11-3.89s-2.92,0-4.14,1.12"/><path class="cls-44" d="M140.7,156.12h2.12"/><path class="cls-45" d="M113.6,186.61s3.05,3.92,6,7.1,10,6.8,15.87,3.17,4.78-7.55,4.78-7.55L153,190.51a14.77,14.77,0,0,1,11.62,7.25c3.11,5.5,7.17,13.62,8.76,21,2.74,12.73,12.39,43.75,12.39,43.75s0,6.88-4.75,10.12c-6.75,4.6-11.93,3.56-15-2.66s-3.59-19.49-3.59-19.49-5.69,18.14-5.69,44.43H95.22s5.85-13.89,5.85-22.28S95.22,246,95.22,246s-1.61,10.47-2.16,15.54a55.15,55.15,0,0,0-.28,8.88s-5.24,3.09-7.25,6.83S83.91,286,83.91,286c-19.42,3.1-12.25-28.86-9.88-45.43s4.87-34.19,14.38-42.47S113.6,186.61,113.6,186.61Z"/><g class="cls-46"><path class="cls-45" d="M163.08,290.91l-1.4-72.12s-.94,26.86-9.55,31-36.53,1.7-42.62,0c-11.48-3.22-14.29-31-14.29-31v76.15s34.57,3.91,50.26,3S163.08,290.91,163.08,290.91Z"/><path class="cls-47" d="M134.33,262.92a1.38,1.38,0,1,0-1.37-1.38A1.38,1.38,0,0,0,134.33,262.92Z"/><path class="cls-48" d="M95.22,221.9V246"/><path class="cls-48" d="M161.71,220.08v23.69"/></g><path class="cls-49" d="M115.73,290.74a1,1,0,0,1,1-1H163v6.11H116.73a1,1,0,0,1-1-1Z"/><path class="cls-50" d="M174.67,242.11a2,2,0,0,1,1.83-1.2h74a2,2,0,0,1,1.85,2.78l-22,52.21a2,2,0,0,1-1.84,1.22H153.67a2,2,0,0,1-1.84-2.8Z"/><path class="cls-51" d="M176.19,242.11a2,2,0,0,1,1.83-1.2h74a2,2,0,0,1,1.84,2.78l-22,52.21a2,2,0,0,1-1.84,1.22H155.19a2,2,0,0,1-1.83-2.8Z"/><path class="cls-23" d="M203.39,277.53a5.34,5.34,0,1,0-5.33-5.34A5.34,5.34,0,0,0,203.39,277.53Z"/><path class="cls-28" d="M139.55,274.93s1,3.09,2.1,3.42c.59.18.39-.84.21-1.93s-.28-1.95-.39-2.35c-.23-.86-3.65-2.69-3.65-2.69l5.2,1.84s.43,4.15,1.89,5.13.57-4.76.2-6.37-5.14-3.73-5.14-3.73l5.65,2s2.74,6.41,4.14,5.74-1.65-6.91-2.12-7.86-5.78-3.24-5.78-3.24l6.89,2.44s4,5.76,5.43,5-3.38-7.38-3.77-7.69a42.16,42.16,0,0,0-8.34-4.29c-3.66-1.33-7.38-.05-15.29,1.61-1.79.37-5.68,1-5.68,1L91.47,266.1S88,267,85.13,274s-1.22,12-1.22,12l38.29-12.7,3.3-1.48s5.92,1.53,8.83,2.18S139.55,274.93,139.55,274.93Z"/><path class="cls-48" d="M92.88,262.53s-6.94,3.69-8.63,9.78"/><path class="cls-52" d="M46.51,426.47s7.64-57.41,0-82.71"/><path class="cls-52" d="M42,426.47s-3.88-30.93-21-57.59"/><path class="cls-52" d="M52,426.47s1.8-28.8,19-41.36"/><path class="cls-53" d="M27.1,431.18H65.91l-5,43.49A4.9,4.9,0,0,1,56,479H37a4.9,4.9,0,0,1-4.87-4.33Z"/><rect class="cls-54" x="23.41" y="423.79" width="46.2" height="11.09" rx="3.7"/><path class="cls-55" d="M56.11,405.79s-2.5-16.11,8.29-25.19,21.43-9,28.75-7a21.7,21.7,0,0,1,11.15,7s-11,1.19-16.18,4.52-5.73,7.85-17.19,11S56.11,405.79,56.11,405.79Z"/><g class="cls-56"><path class="cls-43" d="M104.3,380.6s-11.91-4.84-21.93-1.69-16.46,6.2-26.26,26.88"/></g><path class="cls-57" d="M49.74,393s-9.43-5.92-8.57-15.88-9.65-15.74-9.65-31.69,1.62-21.58-4.09-38.2c0,0,16.85,4.91,24,18.47s3.73,21.7,6.21,38.85A36.64,36.64,0,0,1,49.74,393Z"/><g class="cls-58"><path class="cls-43" d="M27.43,307.2s11.62,8.36,15.35,31.5,9.72,18.72,7,54.27"/></g><path class="cls-59" d="M37.89,405.79s-9.44,0-13.16-9-9.13-9-12.73-19.9S.69,363.34.69,363.34s8.53-5.18,17.65-1.51,10.33,11.5,17.38,20.3S37.89,405.79,37.89,405.79Z"/><g class="cls-60"><path class="cls-43" d="M.69,363.34s14.56-2.62,19.6,8.06,13.46,17.39,17.6,34.39"/></g></svg>