<svg id="Layer_1" data-name="Layer 1" xmlns="http://www.w3.org/2000/svg" xmlns:xlink="http://www.w3.org/1999/xlink" viewBox="0 0 596.57 554.82"><defs><style>.cls-1{fill:url(#linear-gradient);}.cls-2{fill:url(#linear-gradient-2);}.cls-3{fill:#ffb91f;}.cls-4{fill:#12348e;}.cls-5{fill:#a1a7ff;}.cls-6{fill:#cfd5f1;}.cls-7{fill:#6670a4;opacity:0.44;}.cls-8{fill:url(#linear-gradient-3);}.cls-9{fill:url(#linear-gradient-4);}.cls-10{fill:url(#linear-gradient-5);}.cls-11{fill:url(#linear-gradient-6);}.cls-12{fill:#331579;}.cls-13{fill:#fff;}.cls-14{fill:url(#linear-gradient-7);}.cls-15{fill:url(#linear-gradient-8);}.cls-16{fill:url(#linear-gradient-9);}.cls-17{fill:url(#linear-gradient-10);}.cls-18{fill:url(#linear-gradient-11);}.cls-19{fill:url(#linear-gradient-12);}.cls-20{fill:url(#linear-gradient-13);}.cls-21{fill:url(#linear-gradient-14);}.cls-22{fill:#270f5b;}.cls-23{fill:#fa3e6a;}.cls-24{fill:url(#linear-gradient-15);}.cls-25{fill:url(#linear-gradient-16);}.cls-26{fill:url(#linear-gradient-17);}.cls-27{fill:url(#linear-gradient-18);}.cls-28{fill:url(#linear-gradient-19);}.cls-29{fill:#fd5e5a;}.cls-30{fill:#b73000;}.cls-31{fill:#455a94;}.cls-32{fill:#fc7575;}.cls-33{fill:url(#linear-gradient-20);}.cls-34{fill:url(#linear-gradient-21);}.cls-35{fill:url(#linear-gradient-22);}.cls-36{fill:#a6a8fe;}.cls-37{fill:#000f60;}.cls-38{fill:#2e0028;}.cls-39{fill:#172866;}.cls-40{fill:#023135;}.cls-41{fill:#603e6b;}.cls-42{fill:#907897;}.cls-43{fill:url(#linear-gradient-23);}.cls-44{fill:url(#linear-gradient-24);}.cls-45{fill:url(#linear-gradient-25);}.cls-46{fill:url(#linear-gradient-26);}.cls-47{fill:url(#linear-gradient-27);}.cls-48{fill:url(#linear-gradient-28);}.cls-49{fill:url(#linear-gradient-29);}.cls-50{fill:url(#linear-gradient-30);}.cls-51{fill:url(#linear-gradient-31);}.cls-52{fill:url(#linear-gradient-32);}.cls-53{fill:url(#linear-gradient-33);}.cls-54{fill:url(#linear-gradient-34);}.cls-55{fill:url(#linear-gradient-35);}.cls-56{fill:url(#linear-gradient-36);}.cls-57{fill:#0033bf;}</style><linearGradient id="linear-gradient" x1="312.26" y1="44.51" x2="320.11" y2="44.51" gradientUnits="userSpaceOnUse"><stop offset="0" stop-color="#c2ceff"/><stop offset="1" stop-color="#95aaff"/></linearGradient><linearGradient id="linear-gradient-2" x1="0" y1="153.68" x2="302.79" y2="153.68" xlink:href="#linear-gradient"/><linearGradient id="linear-gradient-3" x1="565.55" y1="142.29" x2="568.54" y2="142.29" xlink:href="#linear-gradient"/><linearGradient id="linear-gradient-4" x1="537.26" y1="144.82" x2="563.14" y2="144.82" xlink:href="#linear-gradient"/><linearGradient id="linear-gradient-5" x1="278.47" y1="283.63" x2="466.83" y2="283.63" xlink:href="#linear-gradient"/><linearGradient id="linear-gradient-6" x1="300.65" y1="108.38" x2="443.13" y2="108.38" xlink:href="#linear-gradient"/><linearGradient id="linear-gradient-7" x1="364.01" y1="204.58" x2="443.13" y2="204.58" xlink:href="#linear-gradient"/><linearGradient id="linear-gradient-8" x1="364.01" y1="314.13" x2="443.13" y2="314.13" xlink:href="#linear-gradient"/><linearGradient id="linear-gradient-9" x1="304.49" y1="168.1" x2="354.8" y2="168.1" xlink:href="#linear-gradient"/><linearGradient id="linear-gradient-10" x1="304.49" y1="187.68" x2="354.8" y2="187.68" xlink:href="#linear-gradient"/><linearGradient id="linear-gradient-11" x1="304.49" y1="207.27" x2="354.8" y2="207.27" xlink:href="#linear-gradient"/><linearGradient id="linear-gradient-12" x1="304.49" y1="273.71" x2="354.8" y2="273.71" xlink:href="#linear-gradient"/><linearGradient id="linear-gradient-13" x1="304.49" y1="293.29" x2="354.8" y2="293.29" xlink:href="#linear-gradient"/><linearGradient id="linear-gradient-14" x1="304.49" y1="312.88" x2="354.8" y2="312.88" xlink:href="#linear-gradient"/><linearGradient id="linear-gradient-15" x1="24.76" y1="430.59" x2="275.7" y2="430.59" xlink:href="#linear-gradient"/><linearGradient id="linear-gradient-16" x1="24.76" y1="433.11" x2="219.64" y2="433.11" xlink:href="#linear-gradient"/><linearGradient id="linear-gradient-17" x1="175.39" y1="483.8" x2="275.7" y2="483.8" xlink:href="#linear-gradient"/><linearGradient id="linear-gradient-18" x1="146.01" y1="506.05" x2="272.62" y2="506.05" xlink:href="#linear-gradient"/><linearGradient id="linear-gradient-19" x1="208.06" y1="478.37" x2="306.54" y2="478.37" xlink:href="#linear-gradient"/><linearGradient id="linear-gradient-20" x1="22.67" y1="441.11" x2="184.03" y2="441.11" xlink:href="#linear-gradient"/><linearGradient id="linear-gradient-21" x1="121.77" y1="483.47" x2="189.09" y2="483.47" xlink:href="#linear-gradient"/><linearGradient id="linear-gradient-22" x1="27.2" y1="440.21" x2="172.21" y2="440.21" xlink:href="#linear-gradient"/><linearGradient id="linear-gradient-23" x1="156.38" y1="147.38" x2="225.95" y2="147.38" xlink:href="#linear-gradient"/><linearGradient id="linear-gradient-24" x1="518.43" y1="148.06" x2="588" y2="148.06" xlink:href="#linear-gradient"/><linearGradient id="linear-gradient-25" x1="514.48" y1="34.78" x2="584.04" y2="34.78" xlink:href="#linear-gradient"/><linearGradient id="linear-gradient-26" x1="523.56" y1="272" x2="593.12" y2="272" xlink:href="#linear-gradient"/><linearGradient id="linear-gradient-27" x1="527.01" y1="408.7" x2="596.57" y2="408.7" xlink:href="#linear-gradient"/><linearGradient id="linear-gradient-28" x1="156.38" y1="243.18" x2="225.95" y2="243.18" xlink:href="#linear-gradient"/><linearGradient id="linear-gradient-29" x1="220.76" y1="168.48" x2="312.62" y2="168.48" xlink:href="#linear-gradient"/><linearGradient id="linear-gradient-30" x1="220.76" y1="252.24" x2="320.61" y2="252.24" xlink:href="#linear-gradient"/><linearGradient id="linear-gradient-31" x1="431.35" y1="107.05" x2="524.96" y2="107.05" xlink:href="#linear-gradient"/><linearGradient id="linear-gradient-32" x1="429.3" y1="185.92" x2="527.01" y2="185.92" xlink:href="#linear-gradient"/><linearGradient id="linear-gradient-33" x1="421.29" y1="279.43" x2="527.01" y2="279.43" xlink:href="#linear-gradient"/><linearGradient id="linear-gradient-34" x1="416.14" y1="372.76" x2="533.45" y2="372.76" xlink:href="#linear-gradient"/><linearGradient id="linear-gradient-35" x1="317.66" y1="57.81" x2="368.59" y2="57.81" xlink:href="#linear-gradient"/><linearGradient id="linear-gradient-36" x1="317.6" y1="37.3" x2="368.59" y2="37.3" xlink:href="#linear-gradient"/></defs><title>Personalization</title><path class="cls-1" d="M318.38,47.6a1.76,1.76,0,0,1-.93-.27c-1.42-.91-2.88-1.83-4.35-2.71a1.73,1.73,0,0,1,1.78-3c1.5.9,3,1.83,4.44,2.76a1.73,1.73,0,0,1-.94,3.18Z"/><path class="cls-2" d="M88.64,298.85a1.71,1.71,0,0,1-.82-.2c-3.71-2-6.74-3.67-9-4.95a1.73,1.73,0,1,1,1.7-3c2.24,1.27,5.25,2.92,8.94,4.91a1.74,1.74,0,0,1,.7,2.35A1.72,1.72,0,0,1,88.64,298.85ZM67.38,285.74a1.76,1.76,0,0,1-1-.34c-2.77-2.06-5.5-4.19-8.11-6.33a1.73,1.73,0,0,1,2.2-2.67c2.56,2.1,5.24,4.2,8,6.22a1.73,1.73,0,0,1-1,3.12ZM48.32,269.67a1.7,1.7,0,0,1-1.2-.48c-2.48-2.38-4.91-4.86-7.22-7.34a1.74,1.74,0,0,1,.1-2.45,1.72,1.72,0,0,1,2.44.1c2.26,2.44,4.64,4.86,7.08,7.2a1.72,1.72,0,0,1,0,2.44A1.69,1.69,0,0,1,48.32,269.67ZM31.64,251.16a1.72,1.72,0,0,1-1.37-.67c-2.11-2.73-4.14-5.55-6-8.37a1.73,1.73,0,0,1,2.87-1.92c1.85,2.75,3.84,5.5,5.9,8.18a1.72,1.72,0,0,1-1.36,2.78Zm-13.58-20.9a1.72,1.72,0,0,1-1.52-.91c-1.63-3-3.16-6.15-4.55-9.28a1.73,1.73,0,0,1,3.16-1.4c1.36,3.05,2.85,6.09,4.43,9.05a1.72,1.72,0,0,1-1.52,2.54ZM8.31,207.33a1.74,1.74,0,0,1-1.65-1.2c-1-3.27-2-6.61-2.8-9.95a1.73,1.73,0,1,1,3.36-.81c.79,3.25,1.71,6.52,2.73,9.7a1.74,1.74,0,0,1-1.11,2.18A2,2,0,0,1,8.31,207.33ZM2.85,183a1.73,1.73,0,0,1-1.71-1.51c-.11-.78-.2-1.56-.29-2.35-.31-2.62-.54-5.29-.7-7.93A1.73,1.73,0,1,1,3.6,171c.16,2.58.39,5.18.68,7.75.09.76.18,1.53.28,2.29A1.72,1.72,0,0,1,3.07,183ZM1.73,158.11H1.66A1.73,1.73,0,0,1,0,156.32c.14-3.41.39-6.87.76-10.3a1.73,1.73,0,1,1,3.44.38c-.36,3.34-.61,6.72-.74,10A1.74,1.74,0,0,1,1.73,158.11Zm3.05-24.73a1.47,1.47,0,0,1-.36,0,1.73,1.73,0,0,1-1.34-2c.69-3.34,1.51-6.71,2.43-10a1.73,1.73,0,0,1,3.33.92c-.9,3.25-1.7,6.55-2.37,9.81A1.73,1.73,0,0,1,4.78,133.38Zm7-23.93a1.87,1.87,0,0,1-.61-.11,1.73,1.73,0,0,1-1-2.23c1.21-3.2,2.55-6.4,4-9.52A1.73,1.73,0,1,1,17.27,99c-1.4,3.06-2.7,6.19-3.89,9.32A1.72,1.72,0,0,1,11.76,109.45ZM22.41,86.91a1.79,1.79,0,0,1-.86-.23,1.72,1.72,0,0,1-.64-2.36c1.69-3,3.51-5.93,5.39-8.79a1.73,1.73,0,1,1,2.89,1.89c-1.85,2.81-3.62,5.71-5.28,8.61A1.73,1.73,0,0,1,22.41,86.91Zm14-20.64A1.74,1.74,0,0,1,35,63.46c2.14-2.68,4.38-5.33,6.68-7.86a1.73,1.73,0,1,1,2.56,2.32C42,60.4,39.84,63,37.75,65.61A1.75,1.75,0,0,1,36.39,66.27ZM53.39,48a1.75,1.75,0,0,1-1.28-.57A1.73,1.73,0,0,1,52.23,45c2.55-2.32,5.22-4.55,8-6.63a1.73,1.73,0,0,1,2.1,2.75c-2.65,2-5.25,4.19-7.73,6.44A1.73,1.73,0,0,1,53.39,48ZM301.06,37.78a1.65,1.65,0,0,1-.77-.19c-3-1.47-6.06-2.91-9.17-4.26a1.73,1.73,0,1,1,1.38-3.17c3.16,1.37,6.3,2.83,9.33,4.34a1.73,1.73,0,0,1-.77,3.28Zm-227.6-4.5a1.73,1.73,0,0,1-.88-3.22c2.93-1.73,6-3.37,9.12-4.88a1.73,1.73,0,1,1,1.51,3.11c-3,1.47-6,3.07-8.88,4.75A1.7,1.7,0,0,1,73.46,33.28Zm204.63-5.21a1.65,1.65,0,0,1-.58-.1c-3.14-1.11-6.38-2.18-9.62-3.17a1.73,1.73,0,0,1,1-3.31c3.29,1,6.57,2.09,9.76,3.22a1.73,1.73,0,0,1-.57,3.36ZM96,22.76a1.72,1.72,0,0,1-.58-3.35c3.17-1.14,6.47-2.2,9.82-3.16a1.73,1.73,0,1,1,1,3.33c-3.27.93-6.51,2-9.61,3.08A1.69,1.69,0,0,1,96,22.76ZM254.17,21a2,2,0,0,1-.41,0c-3.22-.78-6.56-1.53-9.9-2.21a1.73,1.73,0,1,1,.69-3.39c3.39.69,6.76,1.45,10,2.24a1.73,1.73,0,0,1-.41,3.41ZM120.1,16.23a1.73,1.73,0,0,1-.33-3.43c3.28-.64,6.7-1.22,10.15-1.71a1.73,1.73,0,1,1,.49,3.42c-3.39.49-6.75,1.05-10,1.68A1.24,1.24,0,0,1,120.1,16.23Zm109.59-.05-.26,0c-3.31-.51-6.69-1-10.06-1.38a1.73,1.73,0,0,1,.41-3.44c3.41.42,6.83.89,10.17,1.4a1.73,1.73,0,0,1-.26,3.44ZM204.9,13.31h-.14c-3.32-.26-6.74-.49-10.14-.68a1.73,1.73,0,1,1,.18-3.45c3.44.19,6.88.42,10.24.69a1.73,1.73,0,0,1-.14,3.45Zm-60.08-.39a1.73,1.73,0,0,1-.13-3.46c3.3-.26,6.75-.47,10.25-.63a1.73,1.73,0,0,1,.15,3.46c-3.45.15-6.86.36-10.13.62ZM180,12.08h0c-3.3-.07-6.54-.11-9.61-.11h-.56a1.73,1.73,0,0,1,0-3.46h.56c3.09,0,6.36,0,9.69.11a1.73,1.73,0,0,1,0,3.46Z"/><ellipse class="cls-3" cx="257.14" cy="525.74" rx="225.33" ry="17.3"/><path class="cls-4" d="M333.31,462.1,317,447.46c-7.06-22.24-10.57-47.12-5.12-71.62a205.92,205.92,0,0,1,37.43,11.74L358.07,406l4.2-12.08c9.22,5.07,17.86,11.33,24,18.92l-5,25,11.86-13.42a36.37,36.37,0,0,1,2,7.75c6.05,41.47,5.17,92.88,5.17,92.88H358.73a264.14,264.14,0,0,1-34.22-57.44Z"/><path class="cls-5" d="M357.61,507.81c10.1,5,17.31,5,19.91,4.82-12.95-16.85-24.17-38.21-32.87-57.45-.62,0-1.23.05-1.84.05-11.36,0-20.24-4.79-26.56-10l-.69-2.33c6.41,5.74,16,11.4,28.51,11-2.53-5.64-4.93-11.29-7.25-17-9.52-1.24-18.92-7-25.46-11.93l-.33-2c6.3,4.9,15.77,11,25.22,12.48-11.73-29.1-19.1-52.62-19.17-52.88l-2.35-5.28L318,381c.13.45,6.19,19.51,15.4,43.58,4.9-10.34,2.24-35.63,1.41-42.45l1.39.47c1,8,3.54,33.77-2.17,43.62a492.29,492.29,0,0,0,21.85,49.11c3.5-5.27-2.31-39.38,7.43-52.83,5.94-8.21,6.74-17.77,6.42-24.12l1.34.89c.2,6.55-.83,15.89-6.7,24-9.81,13.56-3.07,48.75-7.84,53.32q2.54,4.85,5.2,9.55c9.78-30.67,9.65-31.76,8.32-43.92-.77-7-1.5-13.6,3.19-18.26,4.06-4.05,5.4-12.07,5.78-18.58l1.27,1.14c-.47,6.51-2,14.23-6.12,18.36-7.46,7.44.29,20.69-3.07,33.86-3,11.92-7.71,26.54-8.48,28.95,3.65,6.35,7.49,12.47,11.49,18.16,1.65-1.39,8.58-8.16,6.61-22.41-1.6-11.56,9.25-26.29,16.47-34.64.06.62.13,1.24.19,1.86-7,8.35-16.81,22.09-15.36,32.6,2.11,15.21-5.38,22.24-7.15,23.66A138.14,138.14,0,0,0,390.09,525h-1.85c-.93-.94-1.85-1.9-2.76-2.9-5.14,1.61-13.1.76-21-5.09a18.74,18.74,0,0,0-14.2-3.4l-.82-1.2A20.18,20.18,0,0,1,365.26,516c9,6.65,16.64,5.66,19.23,5q-3.08-3.42-6-7.2c-6.6,1-15.27-1.82-21.44-4.87a27.87,27.87,0,0,0-11.74-2.79l-.85-1.31A29.48,29.48,0,0,1,357.61,507.81Z"/><path class="cls-4" d="M388.14,430.1l5-5.69a36.37,36.37,0,0,1,2,7.75c6.05,41.47,5.17,92.88,5.17,92.88S384.1,487.36,388.14,430.1Z"/><path class="cls-4" d="M537.13,492.4c-1.76,0-24.11-11.35-62.24,0A226.57,226.57,0,0,0,408.94,525s43.59,8.4,83.48,1.85S537.13,492.4,537.13,492.4Z"/><path class="cls-4" d="M413.49,521.94c25-17.17,63.38-35.09,95.64-34.57-6.77,19.09-15.89,33-34,41.5-27.42,1.91-53.41-1.54-62.68-3C412.72,524.65,413.08,523.33,413.49,521.94Z"/><path class="cls-4" d="M412.5,358.66l16.36,17.18L422.41,340a179,179,0,0,1,19.71-27.41c19.73-22.26,55.23-55.33,55.23-55.33a212.33,212.33,0,0,1,17.35,48.41l-18.34,18.71,21.27-2.12C533.36,442.88,423.05,525,423.05,525H400.37s-10.19-98.23-2-128.35A233.75,233.75,0,0,1,412.5,358.66Z"/><path class="cls-6" d="M396.45,407.68q.33-2.94.77-5.52c4.78,13.13,17.44,44.73,31.18,53,.47-1.32,1-2.63,1.44-3.94-13.69-5.06-24.76-38.93-30.19-58.94.46-1.58,1-3.15,1.45-4.73,5.7,21.91,17.21,56.78,29.67,61.22a182.06,182.06,0,0,1,13.84-28.87c4.37-7.17,8.83-17,13.21-28.37-11.83-9-20.87-47.26-24.9-67.55.68-.93,1.37-1.85,2.06-2.76,3.68,18.93,12.84,58.32,23.82,67.74,3.16-8.36,6.26-17.43,9.25-26.78-10-15-13.37-46.8-14.42-62.08l2.49-2.58c.84,13.32,3.76,45.46,13,61.37,14.74-46.83,27.09-98.39,27.26-99.18l1-1.82v2c-.2.9-13.92,66.18-31.25,116.56,19.55,6.49,41-7.23,52.53-16.55-.1,1.22-.21,2.44-.33,3.65a113,113,0,0,1-10,7c-11.14,6.79-21.8,10.24-31.46,10.24a36.45,36.45,0,0,1-11.54-1.82c-4.76,13.62-9.7,26-14.6,35.57,17.6,6.11,43.19-.69,57.43-5.52-.38,1.08-.76,2.14-1.16,3.21-10.34,3.41-25.45,7.39-39.65,7.39a52.93,52.93,0,0,1-17.85-2.74q-1.28,2.37-2.55,4.46C424,458.86,414.6,519.42,413.77,525h-2.66c.23-1.6,5-34.43,16.41-67.35C414.17,450.09,402.26,422.92,396.45,407.68Z"/><path class="cls-7" d="M423.11,525H402s4.93-45.16,46.89-75.21l5.05,7.9.76-11.81c2.43-1.53,5-3,7.64-4.44l6.56,15.3,2.85-19.86a150,150,0,0,1,28.65-9.08C472.93,487.14,424.91,523.68,423.11,525Z"/><path class="cls-4" d="M332.18,445.81l4.41,19.53,5.34-14A128,128,0,0,1,358,463.05l1.57,9.71,5.17-3.39c13.52,13.84,23.56,32,25.07,55.67H354.79s-75.4-20.85-78-97.69A195,195,0,0,1,332.18,445.81Z"/><path class="cls-5" d="M376.35,525h-5.86c-41.23-22.3-87.32-89.62-89.34-92.58l-2.85-4.39,5,2.92C283.84,431.73,334.66,506,376.35,525Z"/><path class="cls-4" d="M449.08,460.85l4.32,6.76.65-10.11q3.13-2,6.55-3.81l5.62,13.11,2.44-17a138.78,138.78,0,0,1,41.5-10.44s-3.5,47.58-24.54,68.54-53.92,17.35-53.92,17.35H408.91S413.13,486.59,449.08,460.85Z"/><path class="cls-5" d="M429.16,525.24h-3.44c50.22-34.5,80.73-82.86,81-83.35l2.64-1.56-1,2.59C508.13,443.41,478.35,490.62,429.16,525.24Z"/><path class="cls-4" d="M408.94,525s42.07-18.76,70-16.44,56.67,33.28,56.67,33.28-9.16,3.28-22.35,6.53l-12.43-9.85,3.48,11.9c-20.6,4.34-47,7.26-65-.37C405.65,535.88,408.94,525,408.94,525Z"/><path class="cls-5" d="M408.94,525s.54-.25,2.19-.94c8.35-.52,35.26-1.93,58.71-1.06,3.92-3,5.55-9.66,6.23-14.6.64,0,1.29.05,1.92.09-.62,4.64-2.07,10.83-5.49,14.62,1.08.05,8.71.67,11.31,1.06,4.13-3,5-9,5-13.67l1.92.6c-.07,4.5-1,10-4.49,13.47,2.51.44,5,1,7.34,1.53,5.34-.86,8.56-5.39,10.33-9.07l1.68.95c-1.58,3.28-4.25,7.15-8.47,9,2.08.57,4.1,1.18,6,1.81,6.93-1.92,9.6-4.17,10.62-5.59l1.57,1.11c-1.16,1.6-3.67,3.68-9.11,5.52a193.46,193.46,0,0,1,23.62,10l3.56,2.11-5.06-.46c-.24-.15-22.3-13-48.56-15.91,6.91,5.53,9.84,17.15,11.54,23.86.28,1.12.58,2.31.85,3.23l-1.9.29c-.23-.8-.48-1.8-.8-3.06-1.88-7.46-5.36-21.25-14.06-24.72-1.4-.09-8.42-.36-10.13-.4,6.6,5.68,11.6,21.31,13.85,29.48l-1.92.16c-3-10.77-9.08-27.82-15.75-29.72C435.76,524.31,408.94,525,408.94,525Z"/><path class="cls-4" d="M584.84,272a26.5,26.5,0,1,1-26.5-26.5A26.51,26.51,0,0,1,584.84,272Z"/><path class="cls-5" d="M558.34,262.76a3.92,3.92,0,0,0,3.91-3.91h-7.82A3.91,3.91,0,0,0,558.34,262.76Z"/><path class="cls-5" d="M575.26,262.58l-11.46-3.7a.78.78,0,0,0-.22,0h-.07a5.17,5.17,0,1,1-10.34,0h-.07a.78.78,0,0,0-.22,0l-11.46,3.7a.71.71,0,0,0-.47.86l1.54,5.84a.72.72,0,0,0,.86.51l4.6-1.12a.71.71,0,0,1,.88.67l.28,15.11a.71.71,0,0,0,.71.7h17a.71.71,0,0,0,.71-.7l.29-15.11a.71.71,0,0,1,.88-.67l4.6,1.12a.71.71,0,0,0,.85-.51l1.54-5.84A.7.7,0,0,0,575.26,262.58Z"/><path class="cls-4" d="M217.66,148.06a26.5,26.5,0,1,1-26.5-26.5A26.5,26.5,0,0,1,217.66,148.06Z"/><path class="cls-5" d="M176.34,134.78c1.17,2.54,7.39,15.6,13.46,18.59a.6.6,0,0,0,.19.06l6.34,1,.18.06,6.32,3a.66.66,0,0,0,.27.06h0a.63.63,0,0,1,.63.63V159a.63.63,0,0,1-.45.61c-1.19.35-5.1,1.11-16,.63a.62.62,0,0,1-.54-.35c-.9-1.76-5.4-10.14-9.74-11.65a.63.63,0,0,0-.84.6v10.92a.63.63,0,0,1-.63.63h-1a.62.62,0,0,1-.63-.57c-.24-2.82-1.32-15-2.39-16.11s-2.28-8.18,4.16-9.24A.65.65,0,0,1,176.34,134.78Z"/><path class="cls-5" d="M181.52,153.93c.24,2.29.41,4.3.49,5.24a.63.63,0,0,0,.63.58h1a.63.63,0,0,0,.63-.63v-1A42.6,42.6,0,0,0,181.52,153.93Z"/><path class="cls-5" d="M211.23,156.92a.67.67,0,0,1-.28-.06l-6.32-3a.55.55,0,0,0-.18-.06l-6.34-1a.6.6,0,0,1-.19-.06c-6.07-3-12.29-16.05-13.45-18.59a.64.64,0,0,0-.68-.36,5.51,5.51,0,0,0-4.68,3.61,63.94,63.94,0,0,0,6.43,10.33,14.3,14.3,0,0,1,4.85,4.37l6.14.94a1.84,1.84,0,0,1,.55.17l6.19,2.94a2,2,0,0,1,1.79,1.95V159a1.94,1.94,0,0,1-.15.76,28.25,28.25,0,0,0,6.5-.74.63.63,0,0,0,.45-.61v-.81A.63.63,0,0,0,211.23,156.92Z"/><path class="cls-4" d="M575.76,34.78a26.5,26.5,0,1,1-26.5-26.5A26.49,26.49,0,0,1,575.76,34.78Z"/><path class="cls-5" d="M553,30.41l1.59-8.17h-1.48V18.38a.57.57,0,1,0-1.13,0v3.86h-4.76V18.38a.58.58,0,0,0-.57-.57.57.57,0,0,0-.57.57v3.86h-1.59s1.48,6,1.48,8.17a33.35,33.35,0,0,0-7.49,10.66c-2.5,6.13-2.27,8.39-2.27,8.39a20.25,20.25,0,0,0,6.24,0c2.84-.56,2.5,1.93,5.9,1s7.2-1.65,8.39-.46,5.68.12,5.68.12S561.57,36,553,30.41Z"/><path class="cls-4" d="M217.66,242.64a26.5,26.5,0,1,1-26.5-26.5A26.49,26.49,0,0,1,217.66,242.64Z"/><path class="cls-5" d="M198.4,240.51l-5.64-6.77a3.88,3.88,0,0,0-5.47-.5L169.4,248.15,180,260.88,197.9,246A3.89,3.89,0,0,0,198.4,240.51Zm-7.2.26a2.18,2.18,0,1,1,3.07.28A2.18,2.18,0,0,1,191.2,240.77Z"/><path class="cls-5" d="M193.72,238.13c.08,0,8.58-1.66,11.75-4.3,2.74-2.28,2.94-6.89-2.19-6.34-4,.42-7.36,6.49-8.62,9.07a.73.73,0,0,1-1.31-.63c1.7-3.49,5.22-9.41,9.78-9.89,6.4-.68,7.29,5.56,3.27,8.91-3.46,2.88-12.05,4.54-12.41,4.61A.73.73,0,0,1,193.72,238.13Z"/><path class="cls-4" d="M579.71,148.06a26.5,26.5,0,1,1-26.49-26.5A26.5,26.5,0,0,1,579.71,148.06Z"/><path class="cls-5" d="M537.26,142.3v9.62a.58.58,0,0,0,.58.57h15.75a56.6,56.6,0,0,1,6.51-7.66c1-1.07,2-2.12,3-3.1h-25.3A.57.57,0,0,0,537.26,142.3Z"/><path class="cls-5" d="M556.58,152.49H568a.58.58,0,0,0,.58-.57V142.3a.57.57,0,0,0-.58-.57H566.7A139.76,139.76,0,0,0,556.58,152.49Z"/><path class="cls-8" d="M566.7,141.73l-1.15,1.13h3v-1.13Z"/><path class="cls-9" d="M537.26,142.86H551.2v5l1.95-2.36,1.56,2.36v-5H562l1.13-1.13H537.26Z"/><path class="cls-5" d="M563.14,141.73c2.41-2.42,4.54-4.44,5.41-5.26H538.06a1.41,1.41,0,0,1,0,.35c-.35,1.18-.83,2.91-1.37,4.88a1,1,0,0,0,.17,0Z"/><path class="cls-5" d="M569.5,141.73a.57.57,0,0,0,.57-.58v-2.68c-1,.91-2.13,2-3.37,3.26Z"/><path class="cls-5" d="M553.89,161.67c-4,0-22.56-.32-22.56-4.37,0-4.34,4.63-20.34,4.83-21a.67.67,0,1,1,1.29.38c0,.16-4.78,16.49-4.78,20.64,0,.08.17.36,1,.72,6.47,3,34.82,3.08,38.21.19,0,0,.17-.15.15-.21-.66-2.34-7.26-2.15-11.63-2-4.08.11-7.05.28-7-1.43,0-2.92,13.79-16,15.89-17.93a.67.67,0,0,1,.92,1c-2,1.91-14.79,14.15-15.45,16.85,2.44,1.1,17.15-1.92,18.59,3.18a1.5,1.5,0,0,1-.58,1.6C570,161.53,557.42,161.68,553.89,161.67Z"/><path class="cls-4" d="M535.29,408.7a26.5,26.5,0,1,0,26.5-26.5A26.51,26.51,0,0,0,535.29,408.7Z"/><path class="cls-5" d="M563.44,397.76c-10.53,0-19.06,3.67-19.06,8.2,0,2.27,2.13,4.32,5.58,5.81l-1.77,7.87,6.49-6.39a40.26,40.26,0,0,0,8.76.92c10.52,0,19-3.67,19-8.21S574,397.76,563.44,397.76Z"/><path class="cls-4" d="M570.91,408.06a1.57,1.57,0,1,0,1.57-1.57A1.56,1.56,0,0,0,570.91,408.06Z"/><path class="cls-4" d="M566.77,408.06a1.57,1.57,0,1,0,1.57-1.57A1.56,1.56,0,0,0,566.77,408.06Z"/><path class="cls-4" d="M562.63,408.06a1.57,1.57,0,1,0,1.57-1.57A1.56,1.56,0,0,0,562.63,408.06Z"/><rect class="cls-4" x="269.25" y="100.67" width="206.8" height="359.75" rx="34.02"/><path class="cls-10" d="M303.28,451.21a24.62,24.62,0,0,1-24.81-24.36V140.42a24.62,24.62,0,0,1,24.81-24.36H442a24.62,24.62,0,0,1,24.81,24.36V426.85A24.62,24.62,0,0,1,442,451.21Z"/><path class="cls-11" d="M437.75,113.75H306a5.37,5.37,0,0,1-5.37-5.37h0A5.38,5.38,0,0,1,306,103H437.75a5.38,5.38,0,0,1,5.38,5.38h0A5.37,5.37,0,0,1,437.75,113.75Z"/><path class="cls-12" d="M439.34,108.47a4.37,4.37,0,1,1-4.37-4.36A4.37,4.37,0,0,1,439.34,108.47Z"/><path class="cls-4" d="M416.39,110.35H339.05a1.88,1.88,0,0,1-1.87-1.88h0a1.87,1.87,0,0,1,1.87-1.87h77.34a1.87,1.87,0,0,1,1.87,1.87h0A1.88,1.88,0,0,1,416.39,110.35Z"/><rect class="cls-13" x="293.18" y="146.78" width="159.17" height="233.88"/><rect class="cls-14" x="364.01" y="156.77" width="79.11" height="95.63"/><rect class="cls-15" x="364.01" y="266.31" width="79.11" height="95.63"/><rect class="cls-16" x="304.49" y="163.3" width="50.31" height="9.6"/><rect class="cls-17" x="304.49" y="182.88" width="50.31" height="9.6"/><rect class="cls-18" x="304.49" y="202.47" width="50.31" height="9.6"/><rect class="cls-19" x="304.49" y="268.91" width="50.31" height="9.6"/><rect class="cls-20" x="304.49" y="288.49" width="50.31" height="9.6"/><rect class="cls-21" x="304.49" y="308.08" width="50.31" height="9.6"/><path class="cls-4" d="M360.46,393.86a2.83,2.83,0,1,1-2.83-2.83A2.84,2.84,0,0,1,360.46,393.86Z"/><circle class="cls-4" cx="368.19" cy="393.86" r="2.83"/><circle class="cls-4" cx="378.75" cy="393.86" r="2.83"/><path class="cls-12" d="M436.06,141.22a2.61,2.61,0,1,0,2.6-2.6A2.61,2.61,0,0,0,436.06,141.22Z"/><path class="cls-22" d="M437.26,141.22a1.41,1.41,0,1,0,1.4-1.41A1.41,1.41,0,0,0,437.26,141.22Z"/><path class="cls-12" d="M424.74,141.22a2.61,2.61,0,1,0,2.61-2.6A2.61,2.61,0,0,0,424.74,141.22Z"/><path class="cls-22" d="M425.94,141.22a1.41,1.41,0,1,0,1.41-1.41A1.41,1.41,0,0,0,425.94,141.22Z"/><path class="cls-12" d="M425.73,134.33l-4.85-8.39a1.13,1.13,0,0,1,.05-1.26,1.51,1.51,0,0,1,1.24-.61h19.29a.46.46,0,0,1,.49.43.47.47,0,0,1-.49.44H422.17a.47.47,0,0,0-.4.2.37.37,0,0,0,0,.41l4.86,8.39a.48.48,0,0,0,.42.23h12.62L442.84,123a3.11,3.11,0,0,1,3-2.24h3.56a.49.49,0,0,1,0,1h-3.56a2.11,2.11,0,0,0-2,1.53l-4.18,14.68h-13.7a.5.5,0,0,1,0-1h13l.53-1.88H427A1.49,1.49,0,0,1,425.73,134.33Z"/><path class="cls-3" d="M410.39,131.76a9.46,9.46,0,1,1-9.46-9.46A9.46,9.46,0,0,1,410.39,131.76Z"/><path class="cls-5" d="M399,129.09h-1a3,3,0,0,1,5.4-1.24,2.28,2.28,0,0,1-.91,3.29,2.87,2.87,0,0,1,1.38,4.23,3.35,3.35,0,0,1-6.2-1.31h1c1,3.88,6.09,1.35,4.37-1.31a2.91,2.91,0,0,0-2.58-1.08v-.91c1.12,0,2.3-.55,2.3-1.66a1.83,1.83,0,0,0-2.93-1.24A2.72,2.72,0,0,0,399,129.09Z"/><rect class="cls-4" x="332.91" y="403.32" width="119.44" height="5.38"/><rect class="cls-4" x="332.91" y="415.32" width="119.44" height="5.38"/><polygon class="cls-23" points="380.94 239.19 375.78 241.71 378.29 246.88 372.53 246.21 372.64 251.99 367.41 249.49 366.03 255.12 361.45 251.54 359.04 256.82 355.13 252.53 351.92 257.36 348.71 252.53 344.8 256.82 342.39 251.54 337.81 255.12 336.43 249.49 331.2 251.99 331.31 246.21 325.55 246.88 328.06 241.71 322.9 239.19 328.06 236.67 325.55 231.5 331.31 232.17 331.2 226.39 336.43 228.9 337.81 223.27 342.39 226.84 344.8 221.56 348.71 225.86 351.92 221.02 355.13 225.86 359.04 221.56 361.45 226.84 366.03 223.27 367.41 228.9 372.64 226.39 372.54 232.17 378.29 231.5 375.78 236.67 380.94 239.19"/><path class="cls-13" d="M342.1,234.92l-1.35,1.19c-1.28-1.79-2.74-.77-2.09.09,1.09,1.41,3.61,2.32,3.61,4.51,0,3-4.32,4-6,.63l1.53-.92c1.11,2,2.69,1.2,2.69.36,0-1.33-3.78-2.67-3.78-5C336.7,233.73,339.61,232,342.1,234.92Z"/><path class="cls-13" d="M346.92,233.62h1.85l3.67,9.56h-1.89l-.75-2h-3.9l-.78,2h-1.89Zm.93,2.53-1.28,3.28h2.56Z"/><path class="cls-13" d="M353.85,233.62h1.82v7.82h2.65v1.74h-4.47Z"/><path class="cls-13" d="M359.71,233.62h5.22v1.78h-3.41v1.73h3.41v1.74h-3.41v2.52h3.41v1.79h-5.22Z"/><path class="cls-4" d="M116.9,275.37s-6.67.57-7.49,8.77-7.88,8.48-10,4.53a3.82,3.82,0,0,1,1.72-5.61s-7.1,1.45-6.4,6.75,7.25,7.05,7.25,7.05-8.19-3.28-9.31,4.5,6.55,9.55,6.55,9.55-2.69-4.5.32-6.09,5.86,8,5.86,8-.34,4.91,6-.55,13.33,2.61,12.65,4.83,8.89-3.31,8.33-7.71,4.81-3.68,3.91-.74c0,0,7.15-5.39,2-9.31s-4.57-2.74-3.57-6-1.46-12.45-4.87-15.73S116.9,275.37,116.9,275.37Z"/><path class="cls-24" d="M29.91,350C6.59,376.78,70,535.76,70,535.76H254.1s28.4-72.32,20.07-92.71c-9.27-22.72-66.11-3.89-66.11-3.89s-5.91-75.23-17.94-86.3C153.35,319,60.61,314.7,29.91,350Z"/><path class="cls-25" d="M51.18,335c8-3.55,70.59-18.71,88.33,37.34a236.85,236.85,0,0,1,7.77,35.57c2,13.33,3.56,26.76,4.67,40.21,0,.19,0,.38.05.57,0,0,56.84-18.83,66.11,3.88,6.46,15.82-9.17,62.87-16.51,83.19H70S6.59,376.78,29.91,350C35.3,343.78,42.6,338.81,51.18,335Z"/><path class="cls-26" d="M208.06,439.16s56.84-18.83,66.11,3.89c6.14,15-7.7,58.36-15.38,80l-6.39,12.68h-77Z"/><polygon class="cls-27" points="253.17 535.76 146.01 535.76 153.83 476.35 272.62 476.35 253.17 535.76"/><path class="cls-28" d="M260.19,535.84l-16.47-.08s41.38-73,29.51-93.38c-3.47-5.9-55.09-1.85-65.17-3.22,18.85-14.48,94-29.83,98.24-5.45C310.36,456.93,260.19,535.84,260.19,535.84Z"/><path class="cls-29" d="M163.12,356.58c-.26-.26-1.56-5.55-1.79-6-3.92,1.54-5.91,3.56-9.71,5.28,1.12,2.54.09,8.22,1.11,9.24,7.1,7.11,33.87,11.33,42,6.46,1.24-.74,2.07-5.43,2.07-5.43S165.89,359.35,163.12,356.58Z"/><path class="cls-23" d="M157.05,322.89c-3.89-14.32-19.69-19.13-19.69-19.13s4.26,40.33,10.91,55.43c3.8-1.72,12.37-6.7,16.29-8.24C162.3,346.43,159.75,332.83,157.05,322.89Z"/><path class="cls-4" d="M145.18,425.43s75.24-39.8,89.58-39.8,16.07,8.69,16.07,14.34S222,445.43,198,459s-55.63-33.61-55.63-33.61Z"/><path class="cls-30" d="M117.57,414.85c-6.26,6.67-10.35,18-10.18,21.34,0,0,38.77-1.84,42.27-5.56,1.11-1.18,1.62-2.44,3.07-13.42C139.2,417.81,131.3,413.76,117.57,414.85Z"/><path class="cls-23" d="M109.22,301.5s-13.31,1.71-17.77,4.84c0,0,14.21,27.48,18.17,43.11,3.21,12.68,0,56.7-2.93,76,13.73-1.1,34.42-6.28,48-6.88,3.11-23.63-1.85-70.45-2.55-84C151.08,314.69,148.9,301.15,109.22,301.5Z"/><path class="cls-4" d="M265.16,425.43c-3.91-6.8-156.39-12.72-158.19,13.69s24.62,38.86,71.84,33S279.93,451.12,265.16,425.43Z"/><path class="cls-31" d="M262.84,424.11c-.86-.29-1.73-.54-2.61-.76-1.75-.42-3.53-.74-5.31-1-31.68-5.29-110.58-6.73-139.4,7a29.21,29.21,0,0,0-4.66,2.9,11.72,11.72,0,0,0-3.5,4.27,12.83,12.83,0,0,0-.45,1.32c-.07.47-.14.93-.18,1.39,0,.9,0,1.81,0,2.71a32.19,32.19,0,0,0,.68,5.37,31.18,31.18,0,0,1-.33-5.37c.08-1.78,0-3.64.85-5.17a11.08,11.08,0,0,1,3.48-3.83,28,28,0,0,1,4.61-2.57c26.57-11.71,110.07-10.85,138.83-7.45,1.79.21,3.57.45,5.33.78.88.16,1.76.35,2.62.58a5.07,5.07,0,0,1,2.38,1.16A5.13,5.13,0,0,0,262.84,424.11Z"/><path class="cls-32" d="M160.26,470S152.56,477,157.6,480s16.59-1.26,25.85,3.14,19.92,4.74,21,2.88-2.8-12-13.12-15.92S160.26,470,160.26,470Z"/><path class="cls-23" d="M194.12,469.9s-4.1-1-4.1.32,2.67,1.63,2.67,1.63a2.64,2.64,0,0,0,1.68,2.71,15.5,15.5,0,0,1,2.23.93s-.77,1.46,1.46,2.55l2.23,1.08s-.38,2.39,1.19,2.88c0,0-2.66,3.1,1,4.51s4.51-1.41,4.51-2.18-2.66-2.06-2.66-2.06,1.14-3.2-1.79-3.53c0,0,.54-4.07-3.48-3.74,0,0,1-2.39-3.2-3.48C195.89,471.52,195.46,469.9,194.12,469.9Z"/><path class="cls-33" d="M181.85,443.05c-13.25-22.72-94.42-3.89-94.42-3.89-2.23-19.88-9.5-67.21-22.07-83-10.82-13.6-37.41-20.09-41.95,9.13C15.22,418,78.28,554.86,70,535.76h83.18S193.74,463.44,181.85,443.05Z"/><path class="cls-34" d="M153.19,535.77H121.77s42.49-72,32.73-93.5c-5.72-12.62-15.6-8.23-25.69-9.6,22.19-2,51.6-4,58.31,7.55C199,460.63,153.19,535.77,153.19,535.77Z"/><path class="cls-35" d="M65.36,356.16c12.57,15.79,19.84,63.12,22.07,83,.16,0,48.08-10.62,74.11-7.89,35.05,4.9-27.43,102.56-28,104.5H121.77c.75-2.3,41.24-92,29.34-97-11-4.63-65.67,6.84-70.72,7.44-2.23-19.88-9.5-67.21-22.07-83-7.13-9-21.11-14.84-31.12-9.43C36.17,338.36,56.3,344.77,65.36,356.16Z"/><path class="cls-31" d="M137.91,431.92c3.19-.28,4.14-.3,0,0Z"/><path class="cls-36" d="M68.55,359.12c.24.77,12.84,16.91,20.58,77.62,20.17-4.5,77.5-13.41,94.8-2.3,4.9,3.17,5.26,6.21,5.81,7,7.75,20.1-24.5,75.72-36.55,94.29,9.56-17.28,41.46-76.73,32.47-94.23-8.61-16.79-81.31-3.67-100,0-3.27-26.34-5.33-42.75-13-67.91l-1.89-5.22c-4.56-10.87-9.17-18.15-20.45-22.08-4.61-1.6-9.81-2.15-14.54-.39C44.7,342,59.22,345.47,68.55,359.12Z"/><path class="cls-37" d="M145.46,253.2c.43,1.07,2.72,22.21-1,27.78s-9.92,2.64-15.39,1a45.61,45.61,0,0,1-9.12-3.88S142.46,245.73,145.46,253.2Z"/><path class="cls-32" d="M134.73,284.05c.41.77-7.17,17-6.26,22.43,0,0,7.13,22,2.77,21.27-3.79-.69-19.29-20.66-19-24.23.4-4.81,8.29-27,8.29-27Z"/><path class="cls-29" d="M132.56,290.26c-7.13,3.33-14-1.36-13.07-10.78,1.08-3.16,1-2.81,1.05-3l14.19,7.56C134.9,284.37,134,286.55,132.56,290.26Z"/><path class="cls-32" d="M144.65,245.4s6.66,3.51,5.65,9.83-1.39,11.72-4.73,18.42-10.44,14.84-17.81,14.23-11.1-14.26-9.19-20.48S121.15,250,127.82,245,144.65,245.4,144.65,245.4Z"/><path class="cls-38" d="M126.89,277.71a30.23,30.23,0,0,0,7,3.56C130.26,283.59,127.7,282,126.89,277.71Z"/><path class="cls-29" d="M144.65,245.4s6.66,3.51,5.65,9.83c-.92,5.72-1.31,10.7-3.87,16.57a14,14,0,0,0-4.26-3.82c-6.26-3.53-8.41-15-7.74-22.87,0-.16.57-2.66,2.2-3.52A8.58,8.58,0,0,1,144.65,245.4Z"/><path class="cls-39" d="M136,273.93a57.36,57.36,0,0,1,1.48-5.91,61.77,61.77,0,0,1-1.17,6.27c-1.12,0-2.53.16-3.9-.9A6.72,6.72,0,0,0,136,273.93Z"/><path class="cls-39" d="M134,266.76a4,4,0,0,0-1.83-3.33c-2.12-1.31-4.55,1.58-6.12,1.07.95.93,3.37-.46,4.77-.57a2.41,2.41,0,0,1,1.88.83A6.23,6.23,0,0,1,134,266.76Z"/><path class="cls-39" d="M130.12,264.47a1.18,1.18,0,1,0,1.51-.92A1.26,1.26,0,0,0,130.12,264.47Z"/><path class="cls-39" d="M138.9,269.05a4,4,0,0,1,3.45-1.57c2.49.22,2.71,4,4.29,4.51-1.33.17-2.44-2.38-3.5-3.31a2.41,2.41,0,0,0-2-.45A6.42,6.42,0,0,0,138.9,269.05Z"/><path class="cls-39" d="M143.37,269.54a1.18,1.18,0,1,1-.66-1.65A1.26,1.26,0,0,1,143.37,269.54Z"/><path class="cls-39" d="M136.46,261.62c.3-.08-1.09-2.73-3.44-3.7s-5.77.88-5.77.88,4.21-1,5.5.11S134.79,262.1,136.46,261.62Z"/><path class="cls-4" d="M140,238.35c-5.34-1-13.12-4.75-19.5,2.49-3.71,4.08-6.27-.38-11.28,16-7.47,24.36,10.35,22.57,10.35,22.57s-1.17-1.58,1.9-15.07l0,.12s.53-2,1.29-4.45v0c.27-.72.5-1.47.71-2.23a47.46,47.46,0,0,1,2.5-6.46c2-3.89,4.18-5.53,8.43-6.16s16,8.47,16,8.47C152.29,245.77,145.31,239.34,140,238.35Z"/><path class="cls-4" d="M146.46,241.86c6,3.41,4.94,14,8.62,20.9s0,14.17-4.09,18.44-7.11-.24-7.11-.24,1.75,1.82,4.38-2,1.29-7.8-5.15-12.35-8.68-21.53-8.68-21.53C135.14,242.15,140.41,238.44,146.46,241.86Z"/><path class="cls-40" d="M143.88,281c2,2.18,7.32-2.77,6-7.47-.91-3.6-4.55-6.12-7.36-8.44-4.21-4.49-6.63-14.08-8.09-19.94.35,6.56,2.41,16.14,6.92,21.09l1.15,1c1.19,1,5,3.35,6.18,6.66,1,2.61-.82,5.67-2.37,6.89A2,2,0,0,1,143.88,281Z"/><path class="cls-32" d="M122.62,265.6s.59-8.36-3-7.39-3,10.6-.22,11.46S122.62,265.6,122.62,265.6Z"/><path class="cls-29" d="M121,260.43s2.25,8.46-.55,6.74S118.58,258.24,121,260.43Z"/><path class="cls-29" d="M130.15,270.56c-.59.83-2.36.57-4-.57s-2.42-2.73-1.82-3.56,2.36-.58,4,.56S130.74,269.73,130.15,270.56Z"/><path class="cls-29" d="M144.65,274.49c-.14.92-1.57,1.48-3.2,1.24s-2.84-1.19-2.71-2.11,1.57-1.47,3.2-1.23S144.78,273.57,144.65,274.49Z"/><path class="cls-32" d="M184.51,337.26c-1.65-.54-6-.54-9.94-.41a19.29,19.29,0,0,0-2-.78c3.37-.81,7.23-1.91,8.16-2.84,1.41-1.41-8.53,1.23-12.23,2.25-4.72.55-7.2,8.42-10.42,11.64s-28.29,16.32-33.94,17.53c-4.6,1-7.49-9.75-8.76-14.64-7.07,4.79-9.76,11.81-15.23,18.22,2.33,7.6,6.07,16,9.44,17.95,12.15,6.91,42.08-23.29,48.22-29.44a132.54,132.54,0,0,0,11.88-14.14s5.07-2,7.17-2c1.84,0,2-.66,1.26-1.5C182.44,338.45,186,337.73,184.51,337.26Z"/><path class="cls-29" d="M117.24,356.47c-.83-2.36-1.47-4.76-1.91-6.46-7.07,4.79-9.76,11.81-15.23,18.22.65,2.12,1.41,4.29,2.23,6.38C105.82,369.89,112.63,360.92,117.24,356.47Z"/><path class="cls-29" d="M112.08,383.55s.45,3.21,1.34,3.21,5.88-1.34,5.88-2.67S112.08,382.13,112.08,383.55Z"/><polygon class="cls-41" points="228.23 324.76 187.7 319.86 162.31 368.23 195.18 368.23 228.23 324.76"/><path class="cls-32" d="M195.42,356.49c0-4.2,1.32-7.81-1.22-5.27s-.62,8.55-2.58,9.71-7.13-15.86-10.07-15.86c-2.3,0,1.41,6.78,2.49,11.12-2.17-3.31-5.69-8.33-7.52-8.91-2.12-.68,3.16,7.69,5.72,11.61-2.85-2.15-7.77-9.29-9.2-8.47-1.87,1.07,3.92,7.74,7.09,10.9s-8-5.13-8-2.09,6.66,4.59,9,6.95c1.69,1.69,6.07,4.05,8.42,5.25,5.9,3,8.45-2.78,6.68-9.41A22.33,22.33,0,0,1,195.42,356.49Z"/><polygon class="cls-42" points="186.21 317.66 160.37 367.37 162.31 368.23 187.7 319.86 228.23 324.76 225.76 322.82 186.21 317.66"/><path class="cls-23" d="M94.37,303.76s-8.62.63-11,7.87S96.1,372.25,96.1,372.25l22-20.18S108.86,303.76,94.37,303.76Z"/><path class="cls-43" d="M191.16,112.6A34.78,34.78,0,1,0,226,147.38,34.78,34.78,0,0,0,191.16,112.6Zm0,65a30.17,30.17,0,1,1,30.18-30.17A30.21,30.21,0,0,1,191.16,177.55Z"/><path class="cls-44" d="M553.22,113.28A34.78,34.78,0,1,0,588,148.06,34.79,34.79,0,0,0,553.22,113.28Zm0,64.95a30.18,30.18,0,1,1,30.17-30.17A30.21,30.21,0,0,1,553.22,178.23Z"/><path class="cls-45" d="M549.26,0A34.79,34.79,0,1,0,584,34.78,34.78,34.78,0,0,0,549.26,0Zm0,65a30.18,30.18,0,1,1,30.18-30.18A30.21,30.21,0,0,1,549.26,65Z"/><path class="cls-46" d="M558.34,237.22A34.78,34.78,0,1,0,593.12,272,34.78,34.78,0,0,0,558.34,237.22Zm0,65A30.18,30.18,0,1,1,588.51,272,30.21,30.21,0,0,1,558.34,302.17Z"/><path class="cls-47" d="M561.79,373.91a34.79,34.79,0,1,0,34.78,34.79A34.79,34.79,0,0,0,561.79,373.91Zm0,65A30.18,30.18,0,1,1,592,408.7,30.2,30.2,0,0,1,561.79,438.87Z"/><path class="cls-48" d="M191.16,208.39A34.79,34.79,0,1,0,226,243.18,34.79,34.79,0,0,0,191.16,208.39Zm0,65a30.18,30.18,0,1,1,30.18-30.17A30.21,30.21,0,0,1,191.16,273.35Z"/><path class="cls-49" d="M309.25,183.58a3.26,3.26,0,0,1-.87-.12l-85.11-23.28a3.46,3.46,0,0,1-2.39-4.23,3.36,3.36,0,0,1,4.13-2.44l85.11,23.27a3.47,3.47,0,0,1,2.39,4.23A3.39,3.39,0,0,1,309.25,183.58Z"/><path class="cls-50" d="M317.24,255.85h0l-93.09-.31a3.46,3.46,0,0,1,0-6.91h0l93.1.31a3.46,3.46,0,0,1,0,6.91Z"/><path class="cls-51" d="M434.8,163.3a3.53,3.53,0,0,1-2.1-.68,3.12,3.12,0,0,1-.63-4.56l86.7-106a3.6,3.6,0,0,1,4.84-.59,3.12,3.12,0,0,1,.63,4.56l-86.7,106A3.53,3.53,0,0,1,434.8,163.3Z"/><path class="cls-52" d="M432.76,210.73a3.46,3.46,0,0,1-1.48-6.59l90.8-42.7A3.46,3.46,0,0,1,525,167.7l-90.81,42.7A3.45,3.45,0,0,1,432.76,210.73Z"/><path class="cls-53" d="M424.64,288.6a3.38,3.38,0,0,1-3.33-3.07,3.43,3.43,0,0,1,3-3.82l99-11.44a3.46,3.46,0,0,1,.75,6.87l-99,11.44A2.42,2.42,0,0,1,424.64,288.6Z"/><path class="cls-54" d="M530.61,396.64a3.36,3.36,0,0,1-1.82-.16l-110.4-41A3.46,3.46,0,1,1,420.8,349l110.39,41a3.46,3.46,0,0,1-.58,6.64Z"/><polygon class="cls-4" points="368.59 62.6 317.67 31.75 305.2 44.47 368.59 62.6"/><polygon class="cls-55" points="317.66 69.74 318.38 45.88 368.59 62.6 317.66 69.74"/><polygon class="cls-56" points="317.61 11.99 368.59 62.6 317.67 31.75 317.61 11.99"/><polygon class="cls-57" points="305.2 44.47 318.38 45.88 318.28 49.34 305.2 44.47"/></svg>