<svg id="Layer_1" data-name="Layer 1" xmlns="http://www.w3.org/2000/svg" xmlns:xlink="http://www.w3.org/1999/xlink" viewBox="0 0 607 594"><defs><style>.cls-1{fill:#fff;}.cls-1,.cls-13,.cls-16,.cls-19,.cls-2,.cls-25,.cls-26,.cls-29,.cls-33,.cls-35,.cls-39,.cls-4,.cls-41,.cls-44,.cls-45,.cls-49,.cls-7{fill-rule:evenodd;}.cls-2{fill:#fab2c2;}.cls-3{fill:url(#linear-gradient);}.cls-4{fill:url(#linear-gradient-2);}.cls-10,.cls-11,.cls-18,.cls-22,.cls-31,.cls-37,.cls-47,.cls-5{fill:none;}.cls-5{stroke:#455a94;stroke-width:3px;}.cls-11,.cls-5{stroke-linecap:round;}.cls-6{fill:#455a94;}.cls-7{fill:url(#linear-gradient-3);}.cls-8{fill:url(#linear-gradient-4);}.cls-13,.cls-9{fill:#a1a7ff;}.cls-10{stroke:#fa3e6a;stroke-miterlimit:10;}.cls-10,.cls-11,.cls-22{stroke-width:2px;}.cls-11,.cls-22{stroke:#0b1f6e;}.cls-12{fill:url(#linear-gradient-5);}.cls-14{fill:#eff2ff;}.cls-15{fill:url(#linear-gradient-6);}.cls-16{fill:#fa3e6a;}.cls-17{fill:#fafafa;}.cls-18{stroke:#29365a;stroke-width:0.7px;}.cls-19{fill:#8598cc;}.cls-20{fill:#2e3c72;}.cls-21{mask:url(#mask);}.cls-23{mask:url(#mask-2);}.cls-24{mask:url(#mask-3);}.cls-25{fill:#ee9a89;}.cls-26{fill:#12348e;}.cls-27{mask:url(#mask-4);}.cls-28{mask:url(#mask-5);}.cls-29{fill:#2c232f;}.cls-30{mask:url(#mask-6);}.cls-31{stroke:#c17262;}.cls-32{mask:url(#mask-7);}.cls-33{fill:#ffca23;}.cls-34{mask:url(#mask-8);}.cls-35{fill:#f2bf1e;}.cls-36{mask:url(#mask-9);}.cls-37{stroke:#5c4644;}.cls-38{mask:url(#mask-11);}.cls-39{fill:#022329;}.cls-40{mask:url(#mask-12);}.cls-41{fill:#c17262;}.cls-42{mask:url(#mask-13);}.cls-43{fill:#352324;}.cls-44{fill:#553d3f;}.cls-45{fill:#8f4447;}.cls-46{mask:url(#mask-14);}.cls-47{stroke:#022329;}.cls-48{fill:#3c3f4d;}.cls-49{fill:#435da8;}.cls-50{fill:url(#linear-gradient-7);}</style><linearGradient id="linear-gradient" x1="4" y1="551" x2="603" y2="551" gradientUnits="userSpaceOnUse"><stop offset="0" stop-color="#c2ceff"/><stop offset="1" stop-color="#95aaff"/></linearGradient><linearGradient id="linear-gradient-2" x1="-34.03" y1="869.26" x2="-34.03" y2="868.26" gradientTransform="matrix(233, 0, 0, -480, 8151.62, 417304.39)" xlink:href="#linear-gradient"/><linearGradient id="linear-gradient-3" x1="-34.01" y1="869.24" x2="-34.01" y2="868.24" gradientTransform="matrix(214.91, 0, 0, -444.57, 7533.7, 386521.08)" gradientUnits="userSpaceOnUse"><stop offset="0" stop-color="#fcfcff"/><stop offset="1" stop-color="#ebefff"/></linearGradient><linearGradient id="linear-gradient-4" x1="-34" y1="867.77" x2="-34" y2="866.77" gradientTransform="matrix(195, 0, 0, -74, 6852.32, 64569.82)" xlink:href="#linear-gradient"/><linearGradient id="linear-gradient-5" x1="-33.99" y1="867.88" x2="-33.99" y2="866.88" gradientTransform="matrix(192, 0, 0, -79, 6750.39, 68828.48)" xlink:href="#linear-gradient"/><linearGradient id="linear-gradient-6" x1="-34" y1="867.77" x2="-34" y2="866.77" gradientTransform="matrix(195, 0, 0, -74, 6852.32, 64653.82)" xlink:href="#linear-gradient"/><mask id="mask" x="79.14" y="416" width="57.34" height="39.57" maskUnits="userSpaceOnUse"><g id="scene-14-j"><path id="scene-14-h" class="cls-1" d="M80.05,455.14q-2.92-18.94,9.64-29.63c12.55-10.68,24.92-10.53,33.44-8.28q8.51,2.25,13,8.28-12.8,1.39-18.82,5.31c-6,3.91-6.66,9.24-20,13Q83.95,447.54,80.05,455.14Z"/></g></mask><mask id="mask-2" x="45.91" y="339.19" width="36.23" height="100.62" maskUnits="userSpaceOnUse"><g id="scene-14-m"><path id="scene-14-k" class="cls-1" d="M72.4,439.73q-11-6.9-9.94-18.47c1-11.59-11.22-18.31-11.22-36.84s1.89-25.1-4.74-44.42q19.56,5.7,27.87,21.47c8.29,15.78,4.33,25.23,7.22,45.17Q84.47,426.58,72.4,439.73Z"/></g></mask><mask id="mask-3" x="16.32" y="402" width="45.26" height="52.64" maskUnits="userSpaceOnUse"><g id="scene-14-p"><path id="scene-14-n" class="cls-1" d="M59.28,454.41q-10.86,0-15.14-10.39c-4.28-10.35-10.5-10.4-14.63-22.94q-4.14-12.54-13-15.58a21.51,21.51,0,0,1,20.29-1.74c10.49,4.23,11.88,13.24,20,23.38Q64.9,437.28,59.28,454.41Z"/></g></mask><mask id="mask-4" x="377.69" y="278.92" width="93.62" height="248.02" maskUnits="userSpaceOnUse"><g id="scene-14-r"><path id="scene-14-q" class="cls-1" d="M462.62,278.92q13.75,25.53,5.56,75.94c-8.21,50.41-5.56,63.78-5.56,73.92s1.38,36-8.67,98.15H430.19q-2.26-78.52,1.3-94.52-3.23-35.39-4.23-54.08-.72-13.29-1.84-39.69-10,78.12-14,89.8,4.07,44.37-2.67,98.49H384.25q-5.46-74.7-2.44-98.15c3-23.44-12.05-106.07,10.2-147.36Z"/></g></mask><mask id="mask-5" x="379.6" y="278.92" width="91.64" height="248.02" maskUnits="userSpaceOnUse"><g id="scene-14-r-2" data-name="scene-14-r"><path id="scene-14-q-2" data-name="scene-14-q" class="cls-1" d="M462.62,278.92q13.75,25.53,5.56,75.94c-8.21,50.41-5.56,63.78-5.56,73.92s1.38,36-8.67,98.15H430.19q-2.26-78.52,1.3-94.52-3.23-35.39-4.23-54.08-.72-13.29-1.84-39.69-10,78.12-14,89.8,4.07,44.37-2.67,98.49H384.25q-5.46-74.7-2.44-98.15c3-23.44-12.05-106.07,10.2-147.36Z"/></g></mask><mask id="mask-6" x="297.97" y="169.74" width="96.09" height="91.01" maskUnits="userSpaceOnUse"><g id="scene-14-t"><path id="scene-14-s" class="cls-1" d="M368.32,229.61q-24.75-28.94-28.81-34.24-1.77-11.24-6.43-16.51l-6.77-9.12q-2,1.83,1,7.15c3.07,5.32,1.52,5.34.24,5.15s-10.38-2-20.19-9.53c-2-1.43-3.37-1.66-4.14-.69a1.72,1.72,0,0,0,.22,2.34c-2-1-3.27-1.18-3.89-.53-.92,1-.61,2.77,1.25,4.1-1.34-.25-2.23.07-2.66,1-.65,1.33.4,2.48,1.37,3.12.65.43,1.78,1.23,3.4,2.41-2.09-.35-3.28-.18-3.56.49-.42,1,1.64,2.54,5.62,4.46s17.16,14,25,12.95l27.21,47.14q10.35,15.82,20.72,9.84c10.38-6,11.32-15.87,16.16-37.42l-21.88-8.43Z"/></g></mask><mask id="mask-7" x="467" y="223" width="107.65" height="68.62" maskUnits="userSpaceOnUse"><g id="scene-14-v"><path id="scene-14-u" class="cls-1" d="M489.32,223Q492,240.33,494,241.57c2,1.26,31.64,14.94,46.65,16.27s17.46,2,21.85,6.07,8.25,11,9.73,12.32q-1.56,2.7-4.82.43c-3.27-2.26-4.62-6-7-6q-2.43,0,5,9.78a2.88,2.88,0,0,1,3.25,0c1.72,1-.7,4.72-.7,4.72q3.42-4.21,5.88-3.06c2.46,1.15-1.1,4.35-2.13,5.82a8.07,8.07,0,0,1-4.37,3.21c-1.9.54-6.52,1.11-6.85-1.31-1.1.08-1.72-.21-1.86-.89a5.17,5.17,0,0,1-4.28-.52c-1.52-1.11-9.78-10.23-12-14s-9-5.27-22-6.48-41.38-3.15-45.13-10.65q-3.75-7.49-8.13-30.67Z"/></g></mask><mask id="mask-8" x="365.18" y="165.19" width="128.82" height="127.42" maskUnits="userSpaceOnUse"><g id="scene-14-x"><path id="scene-14-w" class="cls-1" d="M436.74,165.19q18.09,3.54,24.82,5.16c12.24,3,16.49,2.85,22.77,10.92Q487.2,184.93,494,225q-22.9,3.56-26.84,3.5-.48,5.15-1.86,17.76-1.14,10.38-1.51,36.17-47.66,11.37-72.34,0-.4-27.59,0-37.89c.84-21.76,1.57-16.65,1.24-19.54l-27.51-13.84q4.68-10.33,7.82-17.4c7.2-16.21,11.06-23.79,13-24.64Q394.62,165.34,436.74,165.19Z"/></g></mask><mask id="mask-9" x="365.18" y="165.19" width="128.82" height="122.91" maskUnits="userSpaceOnUse"><g id="scene-14-x-2" data-name="scene-14-x"><path id="scene-14-w-2" data-name="scene-14-w" class="cls-1" d="M436.74,165.19q18.09,3.54,24.82,5.16c12.24,3,16.49,2.85,22.77,10.92Q487.2,184.93,494,225q-22.9,3.56-26.84,3.5-.48,5.15-1.86,17.76-1.14,10.38-1.51,36.17-47.66,11.37-72.34,0-.4-27.59,0-37.89c.84-21.76,1.57-16.65,1.24-19.54l-27.51-13.84q4.68-10.33,7.82-17.4c7.2-16.21,11.06-23.79,13-24.64Q394.62,165.34,436.74,165.19Z"/></g></mask><mask id="mask-11" x="353.66" y="165.19" width="156.82" height="122.91" maskUnits="userSpaceOnUse"><g id="scene-14-x-4" data-name="scene-14-x"><path id="scene-14-w-4" data-name="scene-14-w" class="cls-1" d="M436.74,165.19q18.09,3.54,24.82,5.16c12.24,3,16.49,2.85,22.77,10.92Q487.2,184.93,494,225q-22.9,3.56-26.84,3.5-.48,5.15-1.86,17.76-1.14,10.38-1.51,36.17-47.66,11.37-72.34,0-.4-27.59,0-37.89c.84-21.76,1.57-16.65,1.24-19.54l-27.51-13.84q4.68-10.33,7.82-17.4c7.2-16.21,11.06-23.79,13-24.64Q394.62,165.34,436.74,165.19Z"/></g></mask><mask id="mask-12" x="412.3" y="145.48" width="41.78" height="33.99" maskUnits="userSpaceOnUse"><g id="scene-14-z"><path id="scene-14-y" class="cls-1" d="M421.19,148.38q-.06,10.58-1.43,13.84t-7.46,3.45q6.38,13.8,19.39,13.8t22.39-10.84l-3-.64c-4.25-1-6.69-2.77-7.6-5.77q-1.64-5.41-.77-13.84Z"/></g></mask><mask id="mask-13" x="410.94" y="148.38" width="45.04" height="32.27" maskUnits="userSpaceOnUse"><g id="scene-14-z-2" data-name="scene-14-z"><path id="scene-14-y-2" data-name="scene-14-y" class="cls-1" d="M421.19,148.38q-.06,10.58-1.43,13.84t-7.46,3.45q6.38,13.8,19.39,13.8t22.39-10.84l-3-.64c-4.25-1-6.69-2.77-7.6-5.77q-1.64-5.41-.77-13.84Z"/></g></mask><mask id="mask-14" x="425.72" y="141.42" width="13.91" height="6.27" maskUnits="userSpaceOnUse"><g id="scene-14-B"><path id="scene-14-A" class="cls-1" d="M426.84,144.23q5.78,6.92,11.69,0Z"/></g></mask><linearGradient id="linear-gradient-7" x1="-33.69" y1="867.71" x2="-33.69" y2="866.71" gradientTransform="matrix(71.92, 0, 0, -71.79, 2994.14, 62596.24)" gradientUnits="userSpaceOnUse"><stop offset="0" stop-color="#a1b2ff"/><stop offset="1" stop-color="#5679d9"/></linearGradient></defs><title>Pricing &amp;amp; Promotions</title><path class="cls-2" d="M3.33,230C-19.51,359.6,79.53,396.6,164.14,377.71s110.32-15.4,226.17,4.91S574.82,351.32,595.46,253,546.63,47.11,380.36,7.2,26.17,100.33,3.33,230Z"/><ellipse class="cls-3" cx="303.5" cy="551" rx="299.5" ry="43"/><path class="cls-4" d="M132,60H315a25,25,0,0,1,25,25V515a25,25,0,0,1-25,25H132a25,25,0,0,1-25-25V85A25,25,0,0,1,132,60Z"/><path class="cls-5" d="M208.07,72h41.59"/><ellipse class="cls-6" cx="194.24" cy="72.57" rx="3.19" ry="3.43"/><path class="cls-7" d="M138.63,82.86H309.44a22,22,0,0,1,22.05,22V505.38a22,22,0,0,1-22.05,22H138.63a22,22,0,0,1-22-22V104.91A22,22,0,0,1,138.63,82.86Z"/><rect class="cls-8" x="125.35" y="355" width="195" height="74" rx="9"/><circle class="cls-9" cx="279.35" cy="392" r="17"/><polyline class="cls-10" points="270.35 395.77 277.19 400 286.35 384"/><path class="cls-11" d="M152.35,373.5h95m-95,18h95m-95,18h95"/><rect class="cls-12" x="127.44" y="266" width="192" height="79" rx="5.4"/><path class="cls-11" d="M216.44,284.5h79m-79,21h79m-79,22h79"/><path class="cls-13" d="M194.39,309.69a22.24,22.24,0,0,1-22.48,22,22.72,22.72,0,0,1-10.19-2.39,22.46,22.46,0,0,1-6.47-4.86,21.63,21.63,0,0,1-5.81-14.75,22.23,22.23,0,0,1,22.47-22v22l17.74-13.5a21.58,21.58,0,0,1,4.74,13.5Z"/><path class="cls-9" d="M194.39,309.69a21.84,21.84,0,0,1-9.31,17.83l-13.17-17.83,17.74-13.5A21.58,21.58,0,0,1,194.39,309.69Z"/><path class="cls-14" d="M192.76,289.46,175,302.92V281a22.63,22.63,0,0,1,17.74,8.46Z"/><rect class="cls-15" x="125.35" y="439" width="195" height="74" rx="9"/><circle class="cls-9" cx="279.35" cy="476" r="17"/><polyline class="cls-10" points="270.35 479.77 277.19 484 286.35 468"/><path class="cls-11" d="M152.35,457.5h95m-95,18h95m-95,18h95"/><path class="cls-16" d="M286.57,180l6.14-16a4.37,4.37,0,0,0-1.33-5l-13.32-10.8-2.69-16.95a4.38,4.38,0,0,0-3.64-3.63l-17-2.7L244,111.62a4.39,4.39,0,0,0-5-1.33l-16,6.15-16-6.14a4.36,4.36,0,0,0-5,1.33L191.22,125l-16.95,2.7a4.4,4.4,0,0,0-3.63,3.63L168,148.23,154.62,159a4.38,4.38,0,0,0-1.33,5l6.14,16-6.14,16a4.37,4.37,0,0,0,1.33,5L168,211.77l2.69,16.95a4.38,4.38,0,0,0,3.63,3.64l16.95,2.7L202,248.37a4.34,4.34,0,0,0,5,1.33l16-6.13,16,6.14a4.45,4.45,0,0,0,1.57.29,4.36,4.36,0,0,0,3.4-1.63l10.79-13.31,17-2.7a4.39,4.39,0,0,0,3.64-3.64l2.69-16.95L291.38,201a4.37,4.37,0,0,0,1.33-5Z"/><path class="cls-17" d="M210.19,171.16a13.08,13.08,0,1,1,13.18-13.08A13.15,13.15,0,0,1,210.19,171.16Zm0-17.43a4.36,4.36,0,1,0,4.39,4.35A4.38,4.38,0,0,0,210.19,153.73Zm26.36,61a13.08,13.08,0,1,1,13.18-13.08A13.15,13.15,0,0,1,236.55,214.74Zm0-17.43a4.36,4.36,0,1,0,4.39,4.35A4.38,4.38,0,0,0,236.55,197.31ZM201.4,214.74a4.36,4.36,0,0,1-3.57-6.9l43.94-61a4.42,4.42,0,0,1,6.13-1,4.33,4.33,0,0,1,1,6.08l-43.93,61A4.44,4.44,0,0,1,201.4,214.74Z"/><path class="cls-18" d="M69.5,479q8-66.63,0-96m-6,96a161.18,161.18,0,0,0-24-67m36,67q2.1-33.42,22-48"/><path class="cls-19" d="M46.5,484h45l-5.93,51.66A4.91,4.91,0,0,1,80.7,540H57.3a4.9,4.9,0,0,1-4.87-4.34L46.5,484Z"/><rect class="cls-6" x="42.5" y="476" width="54" height="13" rx="3.7"/><path class="cls-20" d="M80.05,455.14q-2.92-18.94,9.64-29.63c12.55-10.68,24.92-10.53,33.44-8.28q8.51,2.25,13,8.28-12.8,1.39-18.82,5.31c-6,3.91-6.66,9.24-20,13Q83.95,447.54,80.05,455.14Z"/><g class="cls-21"><path class="cls-22" d="M136.1,425.51q-13.86-5.7-25.51-2c-11.66,3.72-19.15,7.3-30.54,31.62"/></g><path class="cls-20" d="M72.4,439.73q-11-6.9-9.94-18.47c1-11.59-11.22-18.31-11.22-36.84s1.89-25.1-4.74-44.42q19.56,5.7,27.87,21.47c8.29,15.78,4.33,25.23,7.22,45.17Q84.47,426.58,72.4,439.73Z"/><g class="cls-23"><path class="cls-22" d="M46.5,340Q60,349.71,64.32,376.62c4.33,26.92,11.29,21.77,8.08,63.11"/></g><path class="cls-20" d="M59.28,454.41q-10.86,0-15.14-10.39c-4.28-10.35-10.5-10.4-14.63-22.94q-4.14-12.54-13-15.58a21.51,21.51,0,0,1,20.29-1.74c10.49,4.23,11.88,13.24,20,23.38Q64.9,437.28,59.28,454.41Z"/><g class="cls-24"><path class="cls-22" d="M16.5,405.5q16.74-3,22.54,9.28c5.79,12.3,15.48,20,20.24,39.63"/></g><polygon class="cls-25" points="386.1 525.89 386.1 537.62 402.48 544.74 405.99 541.43 405.99 523.08 386.1 525.89"/><path class="cls-25" d="M434.3,524.17l-1.63,23.56h19.89q-5.22-16.26-2.28-27.1T434.3,524.17Z"/><path class="cls-26" d="M368.54,553.49c-7.87,4.27-9.88,6.62-9.88,10.39q22.47,6.39,31.59-1.25,5.12-6,8.22-.85l10.66-1q2-15.52-2.71-23.58a6.08,6.08,0,0,1-6.27,3.7c-4.23-.3-10.94-6-14.17-6.77Q376.41,549.23,368.54,553.49Zm66.55-14.25q7.61-7.49,15.35-1a29.59,29.59,0,0,0,6.24,13.39c4.6,5.43,9.41,11.07,4.18,18.24q-16.16,1.76-23.13-3.58a17.48,17.48,0,0,1-.21-4.11q-2.67.88-7.31-1.34-.16-10.46,1-15.52C431.51,543.91,432.81,541.88,435.09,539.24Z"/><path class="cls-26" d="M462.62,278.92q13.75,25.53,5.56,75.94c-8.21,50.41-5.56,63.78-5.56,73.92s1.38,36-8.67,98.15H430.19q-2.26-78.52,1.3-94.52-3.23-35.39-4.23-54.08-.72-13.29-1.84-39.69-10,78.12-14,89.8,4.07,44.37-2.67,98.49H384.25q-5.46-74.7-2.44-98.15c3-23.44-12.05-106.07,10.2-147.36Z"/><g class="cls-27"><path class="cls-26" d="M377.69,282.22Q395.26,288.58,405,291c15.42,3.87,33.59,6.61,38.5,10.36Q471.76,323,465.7,375q12.72-68.82-3.43-95.95Z"/></g><g class="cls-28"><path class="cls-29" d="M425.52,338.33l3.08-5.24q2.89,79.86,2.89,99.32l-6-35.89Z"/></g><path class="cls-25" d="M368.32,229.61q-24.75-28.94-28.81-34.24-1.77-11.24-6.43-16.51l-6.77-9.12q-2,1.83,1,7.15c3.07,5.32,1.52,5.34.24,5.15s-10.38-2-20.19-9.53c-2-1.43-3.37-1.66-4.14-.69a1.72,1.72,0,0,0,.22,2.34c-2-1-3.27-1.18-3.89-.53-.92,1-.61,2.77,1.25,4.1-1.34-.25-2.23.07-2.66,1-.65,1.33.4,2.48,1.37,3.12.65.43,1.78,1.23,3.4,2.41-2.09-.35-3.28-.18-3.56.49-.42,1,1.64,2.54,5.62,4.46s17.16,14,25,12.95l27.21,47.14q10.35,15.82,20.72,9.84c10.38-6,11.32-15.87,16.16-37.42l-21.88-8.43Z"/><g class="cls-30"><path class="cls-31" d="M303.3,174.05A61.35,61.35,0,0,0,314.69,182m-13.86-4.24a89,89,0,0,0,11.82,8.06m-10-1.64,7.7,4.62m4.95-8.28a62.72,62.72,0,0,0-5.2,8.88m17-4.9a9.54,9.54,0,0,0,2.38,10m38.87,35.13q4.35,3.84,8.56,14.82"/></g><path class="cls-25" d="M489.32,223Q492,240.33,494,241.57c2,1.26,31.64,14.94,46.65,16.27s17.46,2,21.85,6.07,8.25,11,9.73,12.32q-1.56,2.7-4.82.43c-3.27-2.26-4.62-6-7-6q-2.43,0,5,9.78a2.88,2.88,0,0,1,3.25,0c1.72,1-.7,4.72-.7,4.72q3.42-4.21,5.88-3.06c2.46,1.15-1.1,4.35-2.13,5.82a8.07,8.07,0,0,1-4.37,3.21c-1.9.54-6.52,1.11-6.85-1.31-1.1.08-1.72-.21-1.86-.89a5.17,5.17,0,0,1-4.28-.52c-1.52-1.11-9.78-10.23-12-14s-9-5.27-22-6.48-41.38-3.15-45.13-10.65q-3.75-7.49-8.13-30.67Z"/><g class="cls-32"><path class="cls-31" d="M494,241q-7.35,2.25-11.15,6.61"/></g><path class="cls-31" d="M560.9,289.78q4,.45,7.4-4.59t6.35-2.34M558.59,289a20.35,20.35,0,0,0,3.94-3.61,37.4,37.4,0,0,0,3.12-4.85c.85-.94,1.88-.94,3.07,0"/><path class="cls-31" d="M554.92,285.91q5.73-5.51,7.46-4.08T560,287.5"/><path class="cls-33" d="M436.74,165.19q18.09,3.54,24.82,5.16c12.24,3,16.49,2.85,22.77,10.92Q487.2,184.93,494,225q-22.9,3.56-26.84,3.5-.48,5.15-1.86,17.76-1.14,10.38-1.51,36.17-47.66,11.37-72.34,0-.4-27.59,0-37.89c.84-21.76,1.57-16.65,1.24-19.54l-27.51-13.84q4.68-10.33,7.82-17.4c7.2-16.21,11.06-23.79,13-24.64Q394.62,165.34,436.74,165.19Z"/><g class="cls-34"><path class="cls-35" d="M464.18,199.88q-5.73,42.29-36.52,47.73T391.29,238l-2.14,46.55q59.24,16.06,78,0t3-71.31Z"/></g><g class="cls-36"><path class="cls-37" d="M464.18,199.88l6,14.13"/></g><g class="cls-36"><polygon class="cls-35" points="392.37 224.75 395.8 193.74 379.6 221.41 392.37 224.75"/></g><g class="cls-38"><path class="cls-37" d="M395.8,193.29l-3.43,32.92M495.5,246.9A19,19,0,0,1,510.24,249m-152-43.88q2.14,10.15-4.24,16.3"/></g><path class="cls-39" d="M414.12,126.79c-5.22-15.74,1.06-28.73,16.09-30.16,5.06-.48,14.63,1.06,19.4,7.6s2.33,21,.42,24.52S436.14,131.64,414.12,126.79Z"/><path class="cls-25" d="M421.19,148.38q-.06,10.58-1.43,13.84t-7.46,3.45q6.38,13.8,19.39,13.8t22.39-10.84l-3-.64c-4.25-1-6.69-2.77-7.6-5.77q-1.64-5.41-.77-13.84Z"/><g class="cls-40"><path class="cls-41" d="M421.09,150.65a37.67,37.67,0,0,0,23,12.48q-1.9-17.65-1.9-17.65l-21.41.22Z"/></g><g class="cls-42"><path class="cls-33" d="M414.63,165.53q15.44,17.75,33.6,1.05l7.75,1.26q-6.21,14.74-29.61,12.51-14.67-7.89-15.43-15.16Z"/></g><path class="cls-25" d="M449.33,122.72c2.65-1,4.26-1,4.81,0,.78,1.43-.42,3.37-1.47,5.7s-.32,5.3-2.69,4.62Q447.61,132.35,449.33,122.72Z"/><path class="cls-25" d="M415.37,122.44q-4.14-1-5,.52c-.77,1.44.76,2.82,1.8,5.16s.32,5,2.57,5Q417.16,133.09,415.37,122.44Z"/><path class="cls-25" d="M420.23,113.78a5,5,0,0,0-3.17,1.09,4.18,4.18,0,0,0-1.59,2.91c-2.36,29,7.77,36.95,16.94,36.48,7.92.63,19.11-5.88,16.78-36.61a3.69,3.69,0,0,0-1.68-3.11,3.91,3.91,0,0,0-3.32-.76,38.47,38.47,0,0,1-11.78,2A42.36,42.36,0,0,1,420.23,113.78Z"/><path class="cls-41" d="M430.3,136.93c.49,1.4,1.27,2.1,2.32,2.1s1.82-.7,2.32-2.1a3.76,3.76,0,0,1-4.64,0Z"/><ellipse class="cls-43" cx="438.19" cy="128.04" rx="1.5" ry="1.46"/><ellipse class="cls-43" cx="427.23" cy="128.04" rx="1.5" ry="1.46"/><path class="cls-44" d="M423.57,123.93a18.23,18.23,0,0,1,4.86-.67c1.14,0,1.05,1.14.16,1a17,17,0,0,0-4.36.16C423.22,124.62,422.83,124.31,423.57,123.93Z"/><path class="cls-44" d="M441.14,123.93a18.17,18.17,0,0,0-4.86-.67c-1.14,0-1,1.14-.16,1a17,17,0,0,1,4.36.16C441.5,124.62,441.88,124.31,441.14,123.93Z"/><path class="cls-45" d="M426.84,144.23q5.78,6.92,11.69,0Z"/><g class="cls-46"><path class="cls-13" d="M425.72,141.42h13.76l.16,2.46a21,21,0,0,1-6.63,1.6,25.49,25.49,0,0,1-7.13-1.6Z"/></g><rect class="cls-47" x="433.61" y="125.36" width="10.91" height="6.29"/><rect class="cls-47" x="420.13" y="125.36" width="10.91" height="6.29"/><path class="cls-47" d="M431,128.5h2.57m10.46-1.83,6.06-4.72"/><path class="cls-47" d="M420.76,126.4l-6.07-4.75"/><path class="cls-39" d="M431.74,139.41Q424,141.27,424,142.8c0,.73,1.56.15,4.2-.58a34.23,34.23,0,0,1,3.56-.64Z"/><path class="cls-39" d="M433,139.41q7.75,1.86,7.76,3.39c0,.73-1.56.15-4.2-.58a34.23,34.23,0,0,0-3.56-.64Z"/><path class="cls-48" d="M580.84,310.42a1.46,1.46,0,0,1-1.45-1.47V294.37a14.35,14.35,0,1,0-28.7,0V309a1.46,1.46,0,1,1-2.91,0V294.37a17.26,17.26,0,1,1,34.52,0V309A1.46,1.46,0,0,1,580.84,310.42Z"/><polygon class="cls-49" points="601.55 374 528 374 535.47 302.21 594.08 302.21 595.33 314.19 601.55 374"/><polygon class="cls-50" points="607 374 535.08 374 542.52 302.21 599.56 302.21 600.8 314.19 607 374"/><path class="cls-48" d="M586.29,310.42a1.46,1.46,0,0,1-1.45-1.47V294.37a14.35,14.35,0,1,0-28.7,0V309a1.46,1.46,0,1,1-2.91,0V294.37a17.26,17.26,0,1,1,34.52,0V309A1.46,1.46,0,0,1,586.29,310.42Z"/></svg>