<?xml version="1.0" encoding="utf-8"?>
<!-- Generator: Adobe Illustrator 23.0.2, SVG Export Plug-In . SVG Version: 6.00 Build 0)  -->
<svg version="1.0" id="Layer_1" xmlns="http://www.w3.org/2000/svg" xmlns:xlink="http://www.w3.org/1999/xlink" x="0px" y="0px"
	 width="512px" height="512px" viewBox="0 0 512 512" style="enable-background:new 0 0 512 512;" xml:space="preserve">
<style type="text/css">
	.st0{fill:none;stroke:url(#SVGID_1_);stroke-width:1.1749;stroke-linecap:round;stroke-linejoin:round;stroke-miterlimit:10;}
	.st1{fill:url(#SVGID_2_);}
	.st2{fill:none;stroke:url(#SVGID_3_);stroke-width:1.1749;stroke-linecap:round;stroke-linejoin:round;stroke-miterlimit:10;}
	.st3{fill:#D1D9E6;}
	.st4{fill:url(#SVGID_4_);}
	.st5{opacity:0.5;fill:#FFFFFF;}
	.st6{opacity:0.1;fill:url(#SVGID_5_);}
	.st7{clip-path:url(#SVGID_7_);}
	.st8{fill:url(#SVGID_8_);}
	.st9{fill:#FFFFFF;}
	.st10{fill:url(#SVGID_9_);}
	.st11{fill:url(#SVGID_10_);}
	.st12{fill:none;stroke:url(#SVGID_11_);stroke-width:1.1749;stroke-linecap:round;stroke-linejoin:round;stroke-miterlimit:10;}
	.st13{fill:url(#SVGID_12_);}
	.st14{fill:none;stroke:url(#SVGID_13_);stroke-width:1.1749;stroke-linecap:round;stroke-linejoin:round;stroke-miterlimit:10;}
	.st15{clip-path:url(#SVGID_15_);fill:url(#SVGID_16_);}
	.st16{fill:#EFEFF8;}
	.st17{fill:none;stroke:url(#SVGID_18_);stroke-width:1.1749;stroke-linecap:round;stroke-linejoin:round;stroke-miterlimit:10;}
	.st18{fill:none;stroke:url(#SVGID_19_);stroke-width:1.1749;stroke-linecap:round;stroke-linejoin:round;stroke-miterlimit:10;}
	.st19{fill:url(#SVGID_20_);}
	.st20{opacity:0.1;fill:url(#SVGID_21_);}
	.st21{fill:url(#SVGID_22_);}
	.st22{fill:none;stroke:url(#SVGID_23_);stroke-width:0.8925;stroke-linecap:round;stroke-linejoin:round;stroke-miterlimit:10;}
	.st23{fill:none;stroke:url(#SVGID_24_);stroke-width:1.1749;stroke-linecap:round;stroke-linejoin:round;stroke-miterlimit:10;}
	.st24{fill:url(#SVGID_25_);}
	.st25{fill:none;stroke:url(#SVGID_26_);stroke-width:1.1749;stroke-linecap:round;stroke-linejoin:round;stroke-miterlimit:10;}
	.st26{clip-path:url(#SVGID_28_);fill:url(#SVGID_29_);}
	.st27{fill:none;stroke:url(#SVGID_31_);stroke-width:1.1749;stroke-linecap:round;stroke-linejoin:round;stroke-miterlimit:10;}
	.st28{fill:none;stroke:url(#SVGID_32_);stroke-width:1.1749;stroke-linecap:round;stroke-linejoin:round;stroke-miterlimit:10;}
	.st29{fill:url(#SVGID_33_);}
	.st30{opacity:0.1;fill:url(#SVGID_34_);}
	.st31{fill:none;stroke:url(#SVGID_35_);stroke-width:1.1749;stroke-linecap:round;stroke-linejoin:round;stroke-miterlimit:10;}
	.st32{fill:none;stroke:url(#SVGID_36_);stroke-width:1.1749;stroke-linecap:round;stroke-linejoin:round;stroke-miterlimit:10;}
	.st33{fill:none;stroke:url(#SVGID_37_);stroke-width:1.1749;stroke-linecap:round;stroke-linejoin:round;stroke-miterlimit:10;}
	.st34{fill:none;stroke:url(#SVGID_38_);stroke-width:1.1749;stroke-linecap:round;stroke-linejoin:round;stroke-miterlimit:10;}
	.st35{fill:none;stroke:url(#SVGID_39_);stroke-width:1.1749;stroke-linecap:round;stroke-linejoin:round;stroke-miterlimit:10;}
	.st36{fill:none;stroke:url(#SVGID_40_);stroke-width:1.1749;stroke-linecap:round;stroke-linejoin:round;stroke-miterlimit:10;}
	.st37{fill:none;stroke:url(#SVGID_41_);stroke-width:1.1749;stroke-linecap:round;stroke-linejoin:round;stroke-miterlimit:10;}
	.st38{fill:none;stroke:url(#SVGID_42_);stroke-width:1.1749;stroke-linecap:round;stroke-linejoin:round;stroke-miterlimit:10;}
	.st39{fill:url(#SVGID_43_);}
	.st40{fill:none;stroke:url(#SVGID_44_);stroke-width:1.1749;stroke-linecap:round;stroke-linejoin:round;stroke-miterlimit:10;}
	.st41{fill:url(#SVGID_45_);}
	.st42{clip-path:url(#SVGID_47_);fill:url(#SVGID_48_);}
	.st43{fill:none;stroke:url(#SVGID_50_);stroke-width:1.1749;stroke-linecap:round;stroke-linejoin:round;stroke-miterlimit:10;}
	.st44{enable-background:new    ;}
	.st45{fill:url(#SVGID_51_);}
	.st46{fill:none;stroke:url(#SVGID_52_);stroke-width:1.1749;stroke-linecap:round;stroke-linejoin:round;stroke-miterlimit:10;}
	.st47{fill:url(#SVGID_53_);}
	.st48{fill:none;stroke:url(#SVGID_54_);stroke-width:1.1749;stroke-linecap:round;stroke-linejoin:round;stroke-miterlimit:10;}
	.st49{fill:url(#SVGID_55_);}
	.st50{fill:none;stroke:url(#SVGID_56_);stroke-width:1.1749;stroke-linecap:round;stroke-linejoin:round;stroke-miterlimit:10;}
	.st51{fill:none;stroke:url(#SVGID_57_);stroke-width:1.1749;stroke-linecap:round;stroke-linejoin:round;stroke-miterlimit:10;}
</style>
<g>
	<g>
		<g>
			
				<image style="overflow:visible;opacity:0.75;" width="684" height="427" xlink:href="88DD7EE9.png"  transform="matrix(0.24 0 0 0.24 339.2778 217.1178)">
			</image>
			<g>
				<linearGradient id="SVGID_1_" gradientUnits="userSpaceOnUse" x1="341.121" y1="268.2875" x2="501.4145" y2="268.2875">
					<stop  offset="0" style="stop-color:#0980B3"/>
					<stop  offset="0.2482" style="stop-color:#1B5D8C"/>
					<stop  offset="0.5962" style="stop-color:#1B3765"/>
					<stop  offset="0.8575" style="stop-color:#171F4F"/>
					<stop  offset="1" style="stop-color:#151548"/>
				</linearGradient>
				<path class="st0" d="M421.3,316.9c-5,0-9.9-1.3-14.3-3.8L347.9,279c-3.8-2.2-6.2-6.3-6.2-10.7c0-4.4,2.4-8.5,6.2-10.7l59.1-34.1
					c4.3-2.5,9.3-3.8,14.3-3.8c5,0,9.9,1.3,14.3,3.8l59.1,34.1c3.8,2.2,6.2,6.3,6.2,10.7s-2.4,8.5-6.2,10.7l-59.1,34.1
					C431.2,315.6,426.3,316.9,421.3,316.9z"/>
			</g>
		</g>
		<g>
			<linearGradient id="SVGID_2_" gradientUnits="userSpaceOnUse" x1="351.2119" y1="223.1011" x2="491.3693" y2="223.1011">
				<stop  offset="0" style="stop-color:#07619E"/>
				<stop  offset="1" style="stop-color:#3085C7"/>
			</linearGradient>
			<path class="st1" d="M351.2,138.8v129.5c0,1,0.5,1.9,1.4,2.5l59.1,34.1c5.9,3.4,13.1,3.4,19,0l59.1-34.1c1-0.5,1.4-1.5,1.4-2.5h0
				V138.8H351.2z"/>
			<g>
				
					<image style="overflow:visible;opacity:0.75;" width="605" height="184" xlink:href="88DD7EEB.png"  transform="matrix(0.24 0 0 0.24 348.6378 155.6778)">
				</image>
				<g>
					<linearGradient id="SVGID_3_" gradientUnits="userSpaceOnUse" x1="350.6245" y1="177.767" x2="491.91" y2="177.767">
						<stop  offset="0" style="stop-color:#0980B3"/>
						<stop  offset="0.2482" style="stop-color:#1B5D8C"/>
						<stop  offset="0.5962" style="stop-color:#1B3765"/>
						<stop  offset="0.8575" style="stop-color:#171F4F"/>
						<stop  offset="1" style="stop-color:#151548"/>
					</linearGradient>
					<path class="st2" d="M351.2,158.2c0,1,0.5,1.9,1.4,2.5l59.1,34.1c5.9,3.4,13.1,3.4,19,0l59.1-34.1c1-0.5,1.4-1.5,1.4-2.5"/>
				</g>
			</g>
		</g>
		<g>
			<path class="st3" d="M411.8,102.2l-59.1,34.1c-1.9,1.1-1.9,3.8,0,4.9l59.1,34.1c5.9,3.4,13.1,3.4,19,0l59.1-34.1
				c1.9-1.1,1.9-3.8,0-4.9l-59.1-34.1C424.9,98.8,417.6,98.8,411.8,102.2z"/>
			<linearGradient id="SVGID_4_" gradientUnits="userSpaceOnUse" x1="363.5656" y1="138.7605" x2="478.9687" y2="138.7605">
				<stop  offset="0" style="stop-color:#07619E"/>
				<stop  offset="1" style="stop-color:#3085C7"/>
			</linearGradient>
			<polygon class="st4" points="363.6,138.8 421.3,105.4 479,138.8 421.3,172.1 			"/>
			<polygon class="st3" points="367.8,141.2 421.3,172.1 474.8,141.2 421.3,110.3 			"/>
		</g>
		<g>
			<polygon class="st5" points="375,141.7 421.3,115 467.6,141.7 421.3,168.4 			"/>
			<linearGradient id="SVGID_5_" gradientUnits="userSpaceOnUse" x1="374.9703" y1="82.2247" x2="467.6108" y2="82.2247">
				<stop  offset="0" style="stop-color:#07619E"/>
				<stop  offset="1" style="stop-color:#3085C7"/>
			</linearGradient>
			<polyline class="st6" points="421.3,168.4 467.6,141.7 467.6,22.9 421.3,-4 375,22.9 375,141.7 421.3,168.4 			"/>
			<g>
				<g id="_x31__3_">
					<g>
						<g>
							<g>
								<path class="st3" d="M408.5,119.4l0-46.2l-2.3-1.4l0,46.2c0,1.1,0.4,2,1.1,2.3l2.3,1.4C408.9,121.4,408.5,120.6,408.5,119.4
									z"/>
								<path class="st3" d="M432.5,53.7c-0.7-0.4-1.6-0.3-2.6,0.3l-20.1,11.6l2.3,1.4l20.1-11.6c1-0.6,1.9-0.6,2.6-0.3L432.5,53.7z
									"/>
								<g>
									<defs>
										<path id="SVGID_6_" d="M408.5,73.2l-2.3-1.4c0-2.3,1.6-5.1,3.6-6.3l2.3,1.4C410.1,68.1,408.5,70.9,408.5,73.2z"/>
									</defs>
									<use xlink:href="#SVGID_6_"  style="overflow:visible;fill:#D1D9E6;"/>
									<clipPath id="SVGID_7_">
										<use xlink:href="#SVGID_6_"  style="overflow:visible;"/>
									</clipPath>
									<g class="st7">
										<path class="st3" d="M408.5,73.2l-2.3-1.4c0-2.3,1.6-5.1,3.6-6.3l2.3,1.4C410.1,68.1,408.5,70.9,408.5,73.2L408.5,73.2z"
											/>
									</g>
								</g>
								<g>
									<linearGradient id="SVGID_8_" gradientUnits="userSpaceOnUse" x1="408.5104" y1="88.4075" x2="435.9485" y2="88.4075">
										<stop  offset="0" style="stop-color:#07619E"/>
										<stop  offset="1" style="stop-color:#3085C7"/>
									</linearGradient>
									<path class="st8" d="M432.3,55.3c2-1.2,3.7-0.2,3.7,2.1l0,46.2c0,2.3-1.6,5.1-3.6,6.3l-20.1,11.6c-2,1.2-3.7,0.2-3.7-2.1
										l0-46.2c0-2.3,1.6-5.1,3.6-6.3L432.3,55.3z"/>
								</g>
							</g>
							<polygon class="st3" points="409.3,73.2 409.3,116.8 435,102 435,58.3 							"/>
							<path class="st9" d="M424,112.8c0.6-0.4,1.1-1.1,1.1-1.7v-1.2c0-0.2-0.1-0.4-0.2-0.6c-0.1,0-0.1,0-0.2,0
								c-0.2,0-0.4,0.1-0.6,0.2l-3.8,2.2c-0.6,0.4-1.1,1.1-1.1,1.7v1.2c0,0.2,0.1,0.4,0.2,0.6c0.1,0,0.1,0,0.2,0
								c0.2,0,0.4-0.1,0.6-0.2L424,112.8z"/>
						</g>
						<path class="st9" d="M424.7,62.9l-5,2.9c-0.4,0.2-0.7,0.1-0.7-0.3l0,0c0-0.4,0.3-0.9,0.7-1.1l5-2.9c0.4-0.2,0.7-0.1,0.7,0.3
							l0,0C425.4,62.2,425.1,62.7,424.7,62.9z"/>
					</g>
					<g>
						<g>
							<linearGradient id="SVGID_9_" gradientUnits="userSpaceOnUse" x1="406.6361" y1="77.745" x2="407.9657" y2="77.745">
								<stop  offset="0" style="stop-color:#07619E"/>
								<stop  offset="1" style="stop-color:#3085C7"/>
							</linearGradient>
							<path class="st10" d="M407.4,75.3c0.3,0.2,0.6,0.6,0.6,1V80c0,0.4-0.3,0.5-0.6,0.3l-0.2-0.1c-0.3-0.2-0.6-0.6-0.6-1l0-3.7
								c0-0.4,0.3-0.5,0.6-0.3L407.4,75.3z"/>
						</g>
					</g>
					<g>
						<g>
							<linearGradient id="SVGID_10_" gradientUnits="userSpaceOnUse" x1="406.6361" y1="85.2057" x2="407.9657" y2="85.2057">
								<stop  offset="0" style="stop-color:#07619E"/>
								<stop  offset="1" style="stop-color:#3085C7"/>
							</linearGradient>
							<path class="st11" d="M407.4,82.7c0.3,0.2,0.6,0.6,0.6,1v3.7c0,0.4-0.3,0.5-0.6,0.3l-0.2-0.1c-0.3-0.2-0.6-0.6-0.6-1l0-3.7
								c0-0.4,0.3-0.5,0.6-0.3L407.4,82.7z"/>
						</g>
					</g>
					<g>
						<path class="st9" d="M414.6,67c-0.5,0.3-0.8,0.9-0.8,1.4c0,0.5,0.4,0.7,0.8,0.5c0.5-0.3,0.8-0.9,0.8-1.4
							C415.4,66.9,415,66.7,414.6,67z"/>
					</g>
				</g>
			</g>
		</g>
	</g>
	<g>
		<g>
			
				<image style="overflow:visible;opacity:0.75;" width="684" height="426" xlink:href="88DD7EEE.png"  transform="matrix(0.24 0 0 0.24 8.3178 220.4778)">
			</image>
			<g>
				<linearGradient id="SVGID_11_" gradientUnits="userSpaceOnUse" x1="10.2395" y1="271.529" x2="170.5332" y2="271.529">
					<stop  offset="0" style="stop-color:#0980B3"/>
					<stop  offset="0.2482" style="stop-color:#1B5D8C"/>
					<stop  offset="0.5962" style="stop-color:#1B3765"/>
					<stop  offset="0.8575" style="stop-color:#171F4F"/>
					<stop  offset="1" style="stop-color:#151548"/>
				</linearGradient>
				<path class="st12" d="M90.4,320.2c-5,0-9.9-1.3-14.3-3.8L17,282.2c-3.8-2.2-6.2-6.3-6.2-10.7c0-4.4,2.4-8.5,6.2-10.7l59.1-34.1
					c4.3-2.5,9.3-3.8,14.3-3.8c5,0,9.9,1.3,14.3,3.8l59.1,34.1c3.8,2.2,6.2,6.3,6.2,10.7c0,4.4-2.4,8.5-6.2,10.7l-59.1,34.1
					C100.3,318.9,95.4,320.2,90.4,320.2z"/>
			</g>
		</g>
		<g>
			<g>
				<linearGradient id="SVGID_12_" gradientUnits="userSpaceOnUse" x1="20.3306" y1="226.3426" x2="160.488" y2="226.3426">
					<stop  offset="0" style="stop-color:#07619E"/>
					<stop  offset="1" style="stop-color:#3085C7"/>
				</linearGradient>
				<path class="st13" d="M20.3,142v129.5c0,1,0.5,1.9,1.4,2.5l59.1,34.1c5.9,3.4,13.1,3.4,19,0L159,274c1-0.5,1.4-1.5,1.4-2.5h0
					V142H20.3z"/>
				<g>
					
						<image style="overflow:visible;opacity:0.75;" width="604" height="184" xlink:href="88DD7EEF.png"  transform="matrix(0.24 0 0 0.24 17.9178 159.0378)">
					</image>
					<g>
						<linearGradient id="SVGID_13_" gradientUnits="userSpaceOnUse" x1="19.7432" y1="181.0083" x2="161.0287" y2="181.0083">
							<stop  offset="0" style="stop-color:#0980B3"/>
							<stop  offset="0.2482" style="stop-color:#1B5D8C"/>
							<stop  offset="0.5962" style="stop-color:#1B3765"/>
							<stop  offset="0.8575" style="stop-color:#171F4F"/>
							<stop  offset="1" style="stop-color:#151548"/>
						</linearGradient>
						<path class="st14" d="M20.3,161.4c0,1,0.5,1.9,1.4,2.5L80.9,198c5.9,3.4,13.1,3.4,19,0l59.1-34.1c1-0.5,1.4-1.5,1.4-2.5"/>
					</g>
				</g>
				<g>
					<g>
						<defs>
							<polygon id="SVGID_14_" points="115.6,218.1 149.3,198.7 149.3,185.7 115.6,205.1 							"/>
						</defs>
						<clipPath id="SVGID_15_">
							<use xlink:href="#SVGID_14_"  style="overflow:visible;"/>
						</clipPath>
						<linearGradient id="SVGID_16_" gradientUnits="userSpaceOnUse" x1="36.2471" y1="226.3426" x2="176.4046" y2="226.3426">
							<stop  offset="0" style="stop-color:#07619E"/>
							<stop  offset="1" style="stop-color:#3085C7"/>
						</linearGradient>
						<path class="st15" d="M36.2,142v129.5c0,1,0.5,1.9,1.4,2.5l59.1,34.1c5.9,3.4,13.1,3.4,19,0l59.1-34.1c1-0.5,1.4-1.5,1.4-2.5
							h0V142H36.2z"/>
						<linearGradient id="SVGID_17_" gradientUnits="userSpaceOnUse" x1="115.1226" y1="201.9073" x2="149.7713" y2="201.9073">
							<stop  offset="0" style="stop-color:#0980B3"/>
							<stop  offset="0.2482" style="stop-color:#1B5D8C"/>
							<stop  offset="0.5962" style="stop-color:#1B3765"/>
							<stop  offset="0.8575" style="stop-color:#171F4F"/>
							<stop  offset="1" style="stop-color:#151548"/>
						</linearGradient>
						<use xlink:href="#SVGID_14_"  style="overflow:visible;fill:none;stroke:url(#SVGID_17_);stroke-miterlimit:10;"/>
					</g>
					<polygon class="st16" points="112.8,203.5 115.6,205.1 115.6,218.1 112.8,216.5 					"/>
					<polygon class="st9" points="146.5,184.1 149.3,185.7 115.6,205.1 112.8,203.5 					"/>
					<g>
						
							<image style="overflow:visible;opacity:0.75;" width="53" height="54" xlink:href="88DD7EEA.png"  transform="matrix(0.24 0 0 0.24 117.7578 200.3178)">
						</image>
						<g>
							<linearGradient id="SVGID_18_" gradientUnits="userSpaceOnUse" x1="119.5847" y1="206.7652" x2="128.4852" y2="206.7652">
								<stop  offset="0" style="stop-color:#0980B3"/>
								<stop  offset="0.2482" style="stop-color:#1B5D8C"/>
								<stop  offset="0.5962" style="stop-color:#1B3765"/>
								<stop  offset="0.8575" style="stop-color:#171F4F"/>
								<stop  offset="1" style="stop-color:#151548"/>
							</linearGradient>
							
								<ellipse transform="matrix(0.7071 -0.7071 0.7071 0.7071 -109.876 148.2661)" class="st17" cx="124" cy="206.8" rx="4.7" ry="2.7"/>
						</g>
					</g>
					<g>
						
							<image style="overflow:visible;opacity:0.75;" width="53" height="53" xlink:href="88DD7EE5.png"  transform="matrix(0.24 0 0 0.24 134.5578 190.7178)">
						</image>
						<g>
							<linearGradient id="SVGID_19_" gradientUnits="userSpaceOnUse" x1="136.4088" y1="197.0509" x2="145.3092" y2="197.0509">
								<stop  offset="0" style="stop-color:#0980B3"/>
								<stop  offset="0.2482" style="stop-color:#1B5D8C"/>
								<stop  offset="0.5962" style="stop-color:#1B3765"/>
								<stop  offset="0.8575" style="stop-color:#171F4F"/>
								<stop  offset="1" style="stop-color:#151548"/>
							</linearGradient>
							<path class="st18" d="M144.2,193.7c-1.1-1.1-3.4-0.4-5.3,1.4c-1.8,1.8-2.5,4.2-1.4,5.3c1.1,1.1,3.4,0.4,5.3-1.4
								C144.6,197.1,145.3,194.8,144.2,193.7z"/>
						</g>
					</g>
				</g>
			</g>
			<g>
				<path class="st3" d="M80.9,105.4l-59.1,34.1c-1.9,1.1-1.9,3.8,0,4.9l59.1,34.1c5.9,3.4,13.1,3.4,19,0l59.1-34.1
					c1.9-1.1,1.9-3.8,0-4.9l-59.1-34.1C94,102,86.8,102,80.9,105.4z"/>
				<linearGradient id="SVGID_20_" gradientUnits="userSpaceOnUse" x1="32.6843" y1="142.0019" x2="148.0874" y2="142.0019">
					<stop  offset="0" style="stop-color:#07619E"/>
					<stop  offset="1" style="stop-color:#3085C7"/>
				</linearGradient>
				<polygon class="st19" points="32.7,142 90.4,108.7 148.1,142 90.4,175.3 				"/>
				<polygon class="st3" points="36.9,144.4 90.4,175.3 143.9,144.4 90.4,113.5 				"/>
			</g>
			<g>
				<polygon class="st5" points="44.1,145 90.4,118.2 136.7,145 90.4,171.7 				"/>
				<linearGradient id="SVGID_21_" gradientUnits="userSpaceOnUse" x1="44.0891" y1="85.4661" x2="136.7295" y2="85.4661">
					<stop  offset="0" style="stop-color:#07619E"/>
					<stop  offset="1" style="stop-color:#3085C7"/>
				</linearGradient>
				<polyline class="st20" points="90.4,171.7 136.7,145 136.7,26.1 90.4,-0.8 44.1,26.1 44.1,145 90.4,171.7 				"/>
				<g>
					<g>
						<path class="st3" d="M110.1,65.5c-0.4,1.2,1.2,2.4,0.8,3.6c-0.6,1.7-3.8,0.5-4.7,2c-0.3,0.5-0.2,1.1-0.3,1.7
							c-0.3,1.5-1.8,2.4-3.2,2.9c-1.4,0.4-3,0.6-4.3,1.3c-1.3,0.8-2.3,2.2-2.3,3.7c-0.1,1.5,0.9,3.1,2.4,3.5
							c1.4,0.4,3.2-0.4,3.6-1.9c0.2-0.9,0.4-2.2,1.3-2.2c0.4,0,0.7,0.3,1,0.5c2.2,1.5,5.2-0.2,7.9-0.3c0.7,0,1.5,0.1,2.2-0.1
							c0.6-0.1,1-0.5,1.6-0.7c1.8-0.9,3.9-1,5.8-0.4c-1.9-5.9-5.5-11.1-10.2-15.1c-0.2,0.1-0.3,0.2-0.4,0.3
							C110.7,64.7,110.3,65,110.1,65.5z"/>
						<path class="st3" d="M113.8,86.8c-1.6,0.2-3.3-0.1-5,0.1c-1.6,0.2-3.4,1.1-3.9,2.6c-0.2,0.7-0.2,1.5-0.1,2.2
							c0.2,2.8,0.7,6.1,3.1,7.4c1.1,0.6,2.6,0.8,3.5,1.7c1.2,1.3,0.8,3.3,1.1,5c0.4,1.9,1.6,3.3,3.2,4.5c4.6-5.5,7.4-12.4,7.6-20.1
							c0-0.3,0-0.7,0-1c0-1.1-0.1-2.2-0.2-3.3c-1.1-0.1-2.3-0.4-3.4-0.3C117.7,85.7,115.8,86.6,113.8,86.8z"/>
					</g>
					<g>
						<path class="st3" d="M61.3,78.4c0.1,0.6-0.3,1.2-0.6,1.8c-1.2,2.4-0.2,4.8,0.5,7.4c0.7,2.6,1.3,5.2,4,5.3
							c-1.4-1.9-2.9-4.4-1.7-6.4c1.4,2,3.6,3.5,6.1,3.9c1,0.2,2,0.2,3,0.6c3.9,1.4,4.5,6.6,7.1,9.9c0.8,1,1.8,1.8,2.4,2.9
							c0.8,1.5,0.9,3.3,2,4.6c0.7,0.9,1.8,1.3,2.5,2.2c2,2.5,0.2,6.9,2.7,8.8c0.5,0.4,1.4,0.6,1.8,0c0.2-0.3,0.2-0.6,0.2-1
							c0-2,0.6-4.1,1.7-5.8c0.5-0.8,1.1-1.5,1.3-2.4c0.6-2.3-1.3-4.9-0.3-7.1c0.5-1.2,1.8-1.9,2.9-2.8c1-0.9,1.8-2.4,1.1-3.5
							c-1-1.4-3.2-0.7-4.7-1.5c-0.4-0.2-0.8-0.6-1.1-0.9c-2.1-1.5-4.9-0.9-7.5-0.6c-2.5,0.3-5.7,0-6.7-2.4c-0.3-0.7-0.3-1.5-0.7-2.1
							c-0.7-1-2.1-1.3-2.9-2.3c-1.2-1.3-0.8-3.5,0.2-4.9c1-1.4,2.6-2.4,3.8-3.6c1.3-1.2,2.4-2.9,2.1-4.6c-0.2-1.2-1.1-2.2-1.4-3.4
							c-0.4-1.7,0.4-3.4,1.5-4.7c1.2-1.2,2.7-2.1,4.2-2.9c0.4-0.3,0.9-0.6,1-1.1c0.1-0.4-0.1-0.9-0.3-1.3c-0.6-1.1-1.1-2.3-1.7-3.4
							C72.9,59.3,64,66.8,59.9,76.8C60.6,77.1,61.2,77.7,61.3,78.4z"/>
						<path class="st3" d="M92.7,65.8c0.3,0.3,0.8,0.6,1.2,0.4c0.2-0.1,0.3-0.3,0.5-0.4c0.6-0.9,1.2-1.8,1.6-2.8
							c0.2-0.4,0.3-0.7,0.6-1c0.7-0.9,2-1,3.1-1.4c0.9-0.4,1.7-1.1,2.2-2c-3.6-1.3-7.5-2.1-11.5-2.1c-0.1,0-0.2,0-0.2,0
							c0.9,1.5,1.7,3,1.8,4.7C92,62.7,91.6,64.6,92.7,65.8z"/>
					</g>
					<g>
						<path class="st3" d="M101.4,72.9c0.2,0.1,0.5,0.1,0.7,0c0.1-0.1,0.2-0.3,0.2-0.5c0.1-0.7,0.2-1.4-0.2-2
							c-0.4-0.6-1.3-0.8-1.7-0.3l-0.2,0.2C99.8,71.4,100.4,72.6,101.4,72.9z"/>
					</g>
					<g>
						<path class="st3" d="M101.4,72.9c0.2,0.1,0.5,0.1,0.7,0c0.1-0.1,0.2-0.3,0.2-0.5c0.1-0.7,0.2-1.4-0.2-2
							c-0.4-0.6-1.3-0.8-1.7-0.3l-0.2,0.2C99.8,71.4,100.4,72.6,101.4,72.9z"/>
						<linearGradient id="SVGID_22_" gradientUnits="userSpaceOnUse" x1="57.4452" y1="89.3353" x2="123.1543" y2="89.3353">
							<stop  offset="0" style="stop-color:#07619E"/>
							<stop  offset="1" style="stop-color:#3085C7"/>
						</linearGradient>
						<path class="st21" d="M108.8,86.9c1.6-0.2,3.3,0.1,5-0.1c2-0.2,4-1.1,6-1.2c1.1,0,2.3,0.2,3.4,0.3c-0.1-1.3-0.3-2.6-0.6-3.8
							c-0.2-1-0.5-2-0.8-3c-1.9-0.6-4-0.5-5.8,0.4c-0.5,0.3-1,0.6-1.6,0.7c-0.7,0.2-1.5,0.1-2.2,0.1c-2.7,0-5.7,1.8-7.9,0.3
							c-0.3-0.2-0.6-0.5-1-0.5c-0.9,0-1,1.3-1.3,2.2c-0.4,1.5-2.2,2.3-3.6,1.9c-1.4-0.4-2.4-2-2.4-3.5c0.1-1.5,1-2.9,2.3-3.7
							c1.3-0.7,2.9-0.9,4.3-1.3c1.4-0.4,2.9-1.4,3.2-2.9c0.1-0.6,0-1.2,0.3-1.7c0.9-1.6,4.1-0.3,4.7-2c0.4-1.2-1.1-2.4-0.8-3.6
							c0.1-0.5,0.5-0.8,0.9-1.1c0.1-0.1,0.3-0.2,0.4-0.3c-1.8-1.5-3.8-2.8-5.9-3.9c-1.2-0.6-2.5-1.2-3.7-1.7c-0.5,0.9-1.3,1.6-2.2,2
							c-1.1,0.4-2.3,0.5-3.1,1.4c-0.3,0.3-0.4,0.7-0.6,1c-0.4,1-1,1.9-1.6,2.8c-0.1,0.2-0.3,0.3-0.5,0.4c-0.4,0.2-0.9,0-1.2-0.4
							c-1.1-1.2-0.7-3.1-0.8-4.7c-0.1-1.7-0.9-3.2-1.8-4.7c-2.2,0-4.4,0.2-6.5,0.7c0.6,1.1,1.1,2.3,1.7,3.4c0.2,0.4,0.4,0.8,0.3,1.3
							c-0.1,0.5-0.6,0.8-1,1.1c-1.5,0.8-3,1.7-4.2,2.9c-1.2,1.2-1.9,3-1.5,4.7c0.3,1.2,1.1,2.2,1.4,3.4c0.3,1.7-0.8,3.4-2.1,4.6
							c-1.3,1.2-2.8,2.2-3.8,3.6c-1,1.4-1.4,3.6-0.2,4.9c0.8,0.9,2.3,1.2,2.9,2.3c0.4,0.6,0.5,1.4,0.7,2.1c1,2.4,4.2,2.7,6.7,2.4
							c2.5-0.3,5.4-1,7.5,0.6c0.4,0.3,0.7,0.6,1.1,0.9c1.5,0.8,3.7,0.1,4.7,1.5c0.8,1.1,0,2.6-1.1,3.5c-1,0.9-2.3,1.6-2.9,2.8
							c-1,2.2,0.9,4.8,0.3,7.1c-0.2,0.9-0.8,1.6-1.3,2.4c-1.1,1.7-1.7,3.8-1.7,5.8c0,0.3,0,0.7-0.2,1c-0.4,0.6-1.3,0.4-1.8,0
							c-2.5-1.9-0.7-6.4-2.7-8.8c-0.7-0.9-1.8-1.4-2.5-2.2c-1.1-1.3-1.2-3.1-2-4.6c-0.6-1.1-1.6-1.9-2.4-2.9
							c-2.6-3.2-3.2-8.5-7.1-9.9c-1-0.3-2-0.4-3-0.6c-2.4-0.5-4.7-1.9-6.1-3.9c-1.2,2,0.3,4.5,1.7,6.4c-2.7-0.1-3.3-2.7-4-5.3
							c-0.7-2.6-1.7-5-0.5-7.4c0.3-0.6,0.6-1.2,0.6-1.8c-0.1-0.8-0.7-1.3-1.4-1.6c-1.6,3.9-2.5,8.1-2.5,12.6
							c0,18.2,14.7,32.9,32.9,32.9c9.8,0,18.6-4.3,24.7-11.1c0.2-0.3,0.4-0.5,0.7-0.8c-1.5-1.2-2.8-2.6-3.2-4.5
							c-0.3-1.7,0.1-3.7-1.1-5c-0.9-0.9-2.3-1.1-3.5-1.7c-2.4-1.4-2.9-4.6-3.1-7.4c-0.1-0.7-0.1-1.5,0.1-2.2
							C105.4,88,107.2,87.1,108.8,86.9z M100.2,70.4l0.2-0.2c0.4-0.5,1.4-0.3,1.7,0.3c0.4,0.6,0.3,1.3,0.2,2c0,0.2-0.1,0.4-0.2,0.5
							c-0.2,0.1-0.5,0.1-0.7,0C100.4,72.6,99.8,71.4,100.2,70.4z M96,119c-0.5,0-1-0.3-1.5-0.6l0,0c-0.2-0.1-0.4-0.4-0.2-0.7
							c0.2-0.4,0.7-0.4,1.1-0.4c0.6,0,1.4,0.1,1.5,0.7C97.1,118.5,96.5,119,96,119z"/>
						<g>
							<path class="st3" d="M95.4,117.3c-0.4,0-0.9,0.1-1.1,0.4c-0.1,0.2,0,0.6,0.2,0.7l0,0c0.5,0.3,0.9,0.6,1.5,0.6
								c0.5,0,1.1-0.5,1-1C96.8,117.4,96,117.3,95.4,117.3z"/>
						</g>
					</g>
				</g>
				<g>
					
						<image style="overflow:visible;opacity:0.75;" width="343" height="155" xlink:href="88DD7EE6.png"  transform="matrix(0.24 0 0 0.24 49.1178 76.9578)">
					</image>
					<g>
						<linearGradient id="SVGID_23_" gradientUnits="userSpaceOnUse" x1="51.0992" y1="95.4406" x2="129.487" y2="95.4406">
							<stop  offset="0" style="stop-color:#0980B3"/>
							<stop  offset="0.2482" style="stop-color:#1B5D8C"/>
							<stop  offset="0.5962" style="stop-color:#1B3765"/>
							<stop  offset="0.8575" style="stop-color:#171F4F"/>
							<stop  offset="1" style="stop-color:#151548"/>
						</linearGradient>
						<path class="st22" d="M55.8,79.2c-2.7,3-4.2,6.5-4.2,10.2c0,12.3,17.3,22.4,38.7,22.4c21.4,0,38.7-10,38.7-22.4
							c0-3.6-1.5-7-4.1-10"/>
					</g>
				</g>
			</g>
		</g>
		<g>
			<path class="st3" d="M125.5,204.9L125.5,204.9c-0.6-0.3-1.6,0-2.4,0.9c-0.9,0.9-1.2,2.1-0.7,2.6c0,0,0.1,0.1,0.2,0.1l0,0
				l67.3,38.9l3.1-3.6L125.5,204.9z"/>
			<path class="st3" d="M142.3,195.2L142.3,195.2c-0.6-0.3-1.6,0-2.4,0.9c-0.9,0.9-1.2,2.1-0.7,2.6c0,0,0.1,0.1,0.2,0.1l0,0
				l67.3,38.9l3.1-3.6L142.3,195.2z"/>
		</g>
	</g>
	<g>
		<g>
			
				<image style="overflow:visible;opacity:0.75;" width="1158" height="736" xlink:href="88DD7EE7.png"  transform="matrix(0.24 0 0 0.24 114.1578 273.9978)">
			</image>
			<g>
				<linearGradient id="SVGID_24_" gradientUnits="userSpaceOnUse" x1="116.0394" y1="362.1961" x2="390.007" y2="362.1961">
					<stop  offset="0" style="stop-color:#0980B3"/>
					<stop  offset="0.2482" style="stop-color:#1B5D8C"/>
					<stop  offset="0.5962" style="stop-color:#1B3765"/>
					<stop  offset="0.8575" style="stop-color:#171F4F"/>
					<stop  offset="1" style="stop-color:#151548"/>
				</linearGradient>
				<path class="st23" d="M253,448c-8.3,0-16.5-2.2-23.8-6.4l-100.1-57.8c-7.7-4.5-12.5-12.8-12.5-21.7c0-8.9,4.8-17.2,12.5-21.6
					l100.1-57.8c7.2-4.2,15.4-6.4,23.8-6.4c8.3,0,16.5,2.2,23.8,6.4l100.1,57.8c7.7,4.4,12.5,12.7,12.5,21.6
					c0,8.9-4.8,17.2-12.5,21.7l-100.1,57.8C269.6,445.8,261.4,448,253,448z"/>
			</g>
		</g>
		<g>
			<linearGradient id="SVGID_25_" gradientUnits="userSpaceOnUse" x1="135.6353" y1="330.8465" x2="370.4106" y2="330.8465">
				<stop  offset="0" style="stop-color:#07619E"/>
				<stop  offset="1" style="stop-color:#3085C7"/>
			</linearGradient>
			<path class="st24" d="M370.4,362.2V232.7H135.6v129.5c0,2,1,4,3,5.2l100.1,57.8c8.8,5.1,19.7,5.1,28.5,0l100.1-57.8
				C369.4,366.2,370.4,364.2,370.4,362.2z"/>
			<g>
				
					<image style="overflow:visible;opacity:0.75;" width="999" height="300" xlink:href="88DD7EF9.png"  transform="matrix(0.24 0 0 0.24 133.1178 249.5178)">
				</image>
				<g>
					<linearGradient id="SVGID_26_" gradientUnits="userSpaceOnUse" x1="135.0474" y1="285.4822" x2="370.998" y2="285.4822">
						<stop  offset="0" style="stop-color:#0980B3"/>
						<stop  offset="0.2482" style="stop-color:#1B5D8C"/>
						<stop  offset="0.5962" style="stop-color:#1B3765"/>
						<stop  offset="0.8575" style="stop-color:#171F4F"/>
						<stop  offset="1" style="stop-color:#151548"/>
					</linearGradient>
					<path class="st25" d="M135.6,252c0,2,1,4.1,3,5.2l100.1,57.8c8.8,5.1,19.7,5.1,28.5,0l100.1-57.8c2-1.2,3-3.2,3-5.2"/>
				</g>
			</g>
			<g>
				<g>
					<defs>
						<polygon id="SVGID_27_" points="300.7,325 334.3,305.5 334.3,292.6 300.7,312 						"/>
					</defs>
					<clipPath id="SVGID_28_">
						<use xlink:href="#SVGID_27_"  style="overflow:visible;"/>
					</clipPath>
					<linearGradient id="SVGID_29_" gradientUnits="userSpaceOnUse" x1="160.8719" y1="330.8465" x2="395.6471" y2="330.8465">
						<stop  offset="0" style="stop-color:#07619E"/>
						<stop  offset="1" style="stop-color:#3085C7"/>
					</linearGradient>
					<path class="st26" d="M395.6,362.2V232.7H160.9v129.5c0,2,1,4,3,5.2L264,425.2c8.8,5.1,19.7,5.1,28.5,0l100.1-57.8
						C394.6,366.2,395.6,364.2,395.6,362.2z"/>
					<linearGradient id="SVGID_30_" gradientUnits="userSpaceOnUse" x1="300.1921" y1="308.7659" x2="334.8408" y2="308.7659">
						<stop  offset="0" style="stop-color:#0980B3"/>
						<stop  offset="0.2482" style="stop-color:#1B5D8C"/>
						<stop  offset="0.5962" style="stop-color:#1B3765"/>
						<stop  offset="0.8575" style="stop-color:#171F4F"/>
						<stop  offset="1" style="stop-color:#151548"/>
					</linearGradient>
					<use xlink:href="#SVGID_27_"  style="overflow:visible;fill:none;stroke:url(#SVGID_30_);stroke-miterlimit:10;"/>
				</g>
				<polygon class="st16" points="297.9,310.4 300.7,312 300.7,325 297.9,323.3 				"/>
				<polygon class="st9" points="331.5,291 334.3,292.6 300.7,312 297.9,310.4 				"/>
				<g>
					
						<image style="overflow:visible;opacity:0.75;" width="53" height="53" xlink:href="C80357B2.png"  transform="matrix(0.24 0 0 0.24 302.7978 307.3578)">
					</image>
					<g>
						<linearGradient id="SVGID_31_" gradientUnits="userSpaceOnUse" x1="304.6542" y1="313.6238" x2="313.5547" y2="313.6238">
							<stop  offset="0" style="stop-color:#0980B3"/>
							<stop  offset="0.2482" style="stop-color:#1B5D8C"/>
							<stop  offset="0.5962" style="stop-color:#1B3765"/>
							<stop  offset="0.8575" style="stop-color:#171F4F"/>
							<stop  offset="1" style="stop-color:#151548"/>
						</linearGradient>
						
							<ellipse transform="matrix(0.7071 -0.7071 0.7071 0.7071 -131.2309 310.4272)" class="st27" cx="309.1" cy="313.6" rx="4.7" ry="2.7"/>
					</g>
				</g>
				<g>
					
						<image style="overflow:visible;opacity:0.75;" width="53" height="53" xlink:href="C80357B5.png"  transform="matrix(0.24 0 0 0.24 319.5978 297.5178)">
					</image>
					<g>
						<linearGradient id="SVGID_32_" gradientUnits="userSpaceOnUse" x1="321.4783" y1="303.9096" x2="330.3787" y2="303.9096">
							<stop  offset="0" style="stop-color:#0980B3"/>
							<stop  offset="0.2482" style="stop-color:#1B5D8C"/>
							<stop  offset="0.5962" style="stop-color:#1B3765"/>
							<stop  offset="0.8575" style="stop-color:#171F4F"/>
							<stop  offset="1" style="stop-color:#151548"/>
						</linearGradient>
						
							<ellipse transform="matrix(0.7071 -0.7071 0.7071 0.7071 -119.4343 319.4793)" class="st28" cx="325.9" cy="303.9" rx="4.7" ry="2.7"/>
					</g>
				</g>
			</g>
		</g>
		<g>
			<path class="st3" d="M367.4,227.5l-100.1-57.8c-8.8-5.1-19.7-5.1-28.5,0l-100.1,57.8c-4,2.3-4,8.1,0,10.4l100.1,57.8
				c8.8,5.1,19.7,5.1,28.5,0l100.1-57.8C371.4,235.6,371.4,229.8,367.4,227.5z"/>
			<linearGradient id="SVGID_33_" gradientUnits="userSpaceOnUse" x1="152.0757" y1="232.6695" x2="353.9697" y2="232.6695">
				<stop  offset="0" style="stop-color:#07619E"/>
				<stop  offset="1" style="stop-color:#3085C7"/>
			</linearGradient>
			<polygon class="st29" points="152.1,232.7 253,174.4 354,232.7 253,291 			"/>
			<polygon class="st3" points="160.5,237.5 253,291 345.6,237.5 253,184.1 			"/>
		</g>
		<g>
			<polygon class="st5" points="325.9,242.4 253,284.5 180.1,242.4 253.4,200.1 			"/>
			<linearGradient id="SVGID_34_" gradientUnits="userSpaceOnUse" x1="180.1165" y1="161.3114" x2="325.929" y2="161.3114">
				<stop  offset="0" style="stop-color:#07619E"/>
				<stop  offset="1" style="stop-color:#3085C7"/>
			</linearGradient>
			<polygon class="st30" points="253.4,38.1 180.1,80.5 180.1,242.4 253,284.5 325.9,242.4 325.9,80.5 			"/>
			<g>
				<g>
					
						<image style="overflow:visible;opacity:0.75;" width="285" height="191" xlink:href="C80357B6.png"  transform="matrix(0.24 0 0 0.24 216.1578 198.8778)">
					</image>
					<g>
						<linearGradient id="SVGID_35_" gradientUnits="userSpaceOnUse" x1="218.1223" y1="221.7365" x2="282.6957" y2="221.7365">
							<stop  offset="0" style="stop-color:#0980B3"/>
							<stop  offset="0.2482" style="stop-color:#1B5D8C"/>
							<stop  offset="0.5962" style="stop-color:#1B3765"/>
							<stop  offset="0.8575" style="stop-color:#171F4F"/>
							<stop  offset="1" style="stop-color:#151548"/>
						</linearGradient>
						<polyline class="st31" points="218.7,218.3 282.1,242.2 260.8,201.3 						"/>
					</g>
				</g>
				<path class="st3" d="M220.4,216.5c0-3.7-3-6.7-6.7-6.7c-3.7,0-6.7,3-6.7,6.7c0,3.7,3,6.7,6.7,6.7
					C217.4,223.1,220.4,220.2,220.4,216.5z"/>
				<path class="st3" d="M288.8,242.2c0-3.7-3-6.7-6.7-6.7c-3.7,0-6.7,3-6.7,6.7c0,3.7,3,6.7,6.7,6.7
					C285.8,248.9,288.8,245.9,288.8,242.2z"/>
				<g>
					
						<image style="overflow:visible;opacity:0.75;" width="197" height="181" xlink:href="C80357B4.png"  transform="matrix(0.24 0 0 0.24 213.9978 156.1578)">
					</image>
					<g>
						<linearGradient id="SVGID_36_" gradientUnits="userSpaceOnUse" x1="215.9819" y1="177.8963" x2="259.2184" y2="177.8963">
							<stop  offset="0" style="stop-color:#0980B3"/>
							<stop  offset="0.2482" style="stop-color:#1B5D8C"/>
							<stop  offset="0.5962" style="stop-color:#1B3765"/>
							<stop  offset="0.8575" style="stop-color:#171F4F"/>
							<stop  offset="1" style="stop-color:#151548"/>
						</linearGradient>
						<polyline class="st32" points="216.6,172.8 258.6,197 240.8,158.7 						"/>
					</g>
				</g>
				<g>
					
						<image style="overflow:visible;opacity:0.75;" width="217" height="102" xlink:href="C80357B3.png"  transform="matrix(0.24 0 0 0.24 211.3578 194.5578)">
					</image>
					<g>
						<linearGradient id="SVGID_37_" gradientUnits="userSpaceOnUse" x1="213.1782" y1="206.7643" x2="261.4099" y2="206.7643">
							<stop  offset="0" style="stop-color:#0980B3"/>
							<stop  offset="0.2482" style="stop-color:#1B5D8C"/>
							<stop  offset="0.5962" style="stop-color:#1B3765"/>
							<stop  offset="0.8575" style="stop-color:#171F4F"/>
							<stop  offset="1" style="stop-color:#151548"/>
						</linearGradient>
						<polyline class="st33" points="260.8,201.3 258.6,197 213.8,216.5 						"/>
					</g>
				</g>
				<path class="st3" d="M265.3,197c0-3.7-3-6.7-6.7-6.7c-3.7,0-6.7,3-6.7,6.7c0,3.7,3,6.7,6.7,6.7
					C262.3,203.7,265.3,200.7,265.3,197z"/>
				<g>
					
						<image style="overflow:visible;opacity:0.75;" width="175" height="489" xlink:href="C80357AD.png"  transform="matrix(0.24 0 0 0.24 258.3978 79.5978)">
					</image>
					<g>
						<linearGradient id="SVGID_38_" gradientUnits="userSpaceOnUse" x1="260.2352" y1="138.2457" x2="298.4755" y2="138.2457">
							<stop  offset="0" style="stop-color:#0980B3"/>
							<stop  offset="0.2482" style="stop-color:#1B5D8C"/>
							<stop  offset="0.5962" style="stop-color:#1B3765"/>
							<stop  offset="0.8575" style="stop-color:#171F4F"/>
							<stop  offset="1" style="stop-color:#151548"/>
						</linearGradient>
						<polyline class="st34" points="263.2,82.2 297.9,148.5 260.8,194.3 						"/>
					</g>
				</g>
				<path class="st3" d="M268.1,78.9c0-3.7-3-6.7-6.7-6.7s-6.7,3-6.7,6.7c0,3.7,3,6.7,6.7,6.7S268.1,82.5,268.1,78.9z"/>
				<path class="st3" d="M304.5,148.5c0-3.7-3-6.7-6.7-6.7s-6.7,3-6.7,6.7c0,3.7,3,6.7,6.7,6.7S304.5,152.2,304.5,148.5z"/>
				<path class="st3" d="M245.7,155c0-3.7-3-6.7-6.7-6.7s-6.7,3-6.7,6.7c0,3.7,3,6.7,6.7,6.7S245.7,158.6,245.7,155z"/>
				<g>
					
						<image style="overflow:visible;opacity:0.75;" width="105" height="306" xlink:href="C80357AE.png"  transform="matrix(0.24 0 0 0.24 237.5178 80.7978)">
					</image>
					<g>
						<linearGradient id="SVGID_39_" gradientUnits="userSpaceOnUse" x1="239.3751" y1="117.4422" x2="260.7456" y2="117.4422">
							<stop  offset="0" style="stop-color:#0980B3"/>
							<stop  offset="0.2482" style="stop-color:#1B5D8C"/>
							<stop  offset="0.5962" style="stop-color:#1B3765"/>
							<stop  offset="0.8575" style="stop-color:#171F4F"/>
							<stop  offset="1" style="stop-color:#151548"/>
						</linearGradient>
						<line class="st35" x1="240" y1="151.7" x2="260.2" y2="83.2"/>
					</g>
				</g>
				<g>
					
						<image style="overflow:visible;opacity:0.75;" width="233" height="405" xlink:href="C80357AC.png"  transform="matrix(0.24 0 0 0.24 203.9178 78.1578)">
					</image>
					<g>
						<linearGradient id="SVGID_40_" gradientUnits="userSpaceOnUse" x1="205.8105" y1="126.7499" x2="257.7949" y2="126.7499">
							<stop  offset="0" style="stop-color:#0980B3"/>
							<stop  offset="0.2482" style="stop-color:#1B5D8C"/>
							<stop  offset="0.5962" style="stop-color:#1B3765"/>
							<stop  offset="0.8575" style="stop-color:#171F4F"/>
							<stop  offset="1" style="stop-color:#151548"/>
						</linearGradient>
						<polyline class="st36" points="257.2,80.7 206.4,103.3 216.6,172.8 						"/>
					</g>
				</g>
				<path class="st3" d="M213.1,103.3c0-3.7-3-6.7-6.7-6.7c-3.7,0-6.7,3-6.7,6.7c0,3.7,3,6.7,6.7,6.7
					C210.1,110,213.1,107,213.1,103.3z"/>
				<path class="st3" d="M223.2,172.8c0-3.7-3-6.7-6.7-6.7c-3.7,0-6.7,3-6.7,6.7s3,6.7,6.7,6.7C220.2,179.4,223.2,176.4,223.2,172.8
					z"/>
			</g>
		</g>
	</g>
	<g>
		<g>
			
				<image style="overflow:visible;opacity:0.75;" width="684" height="427" xlink:href="C80357D2.png"  transform="matrix(0.24 0 0 0.24 8.3178 408.1578)">
			</image>
			<g>
				<linearGradient id="SVGID_41_" gradientUnits="userSpaceOnUse" x1="10.2397" y1="459.3412" x2="170.5332" y2="459.3412">
					<stop  offset="0" style="stop-color:#0980B3"/>
					<stop  offset="0.2482" style="stop-color:#1B5D8C"/>
					<stop  offset="0.5962" style="stop-color:#1B3765"/>
					<stop  offset="0.8575" style="stop-color:#171F4F"/>
					<stop  offset="1" style="stop-color:#151548"/>
				</linearGradient>
				<path class="st37" d="M90.4,508c-5,0-9.9-1.3-14.3-3.8L17,470c-3.8-2.2-6.2-6.3-6.2-10.7c0-4.4,2.4-8.5,6.2-10.7l59.1-34.1
					c4.3-2.5,9.3-3.8,14.3-3.8c5,0,9.9,1.3,14.3,3.8l59.1,34.1c3.8,2.2,6.2,6.3,6.2,10.7s-2.4,8.5-6.2,10.7l-59.1,34.1
					C100.3,506.7,95.4,508,90.4,508z"/>
			</g>
		</g>
		<g>
			<g>
				<linearGradient id="SVGID_42_" gradientUnits="userSpaceOnUse" x1="169.9921" y1="320.3108" x2="169.9921" y2="320.3108">
					<stop  offset="0" style="stop-color:#0980B3"/>
					<stop  offset="0.2482" style="stop-color:#1B5D8C"/>
					<stop  offset="0.5962" style="stop-color:#1B3765"/>
					<stop  offset="0.8575" style="stop-color:#171F4F"/>
					<stop  offset="1" style="stop-color:#151548"/>
				</linearGradient>
				<path class="st38" d="M170,320.3"/>
				<linearGradient id="SVGID_43_" gradientUnits="userSpaceOnUse" x1="20.3306" y1="414.1548" x2="160.4881" y2="414.1548">
					<stop  offset="0" style="stop-color:#07619E"/>
					<stop  offset="1" style="stop-color:#3085C7"/>
				</linearGradient>
				<path class="st39" d="M20.3,329.8v129.5c0,1,0.5,1.9,1.4,2.5l59.1,34.1c5.9,3.4,13.1,3.4,19,0l59.1-34.1c1-0.5,1.4-1.5,1.4-2.5
					h0V329.8H20.3z"/>
				<g>
					
						<image style="overflow:visible;opacity:0.75;" width="604" height="184" xlink:href="C80357D5.png"  transform="matrix(0.24 0 0 0.24 17.9178 346.7178)">
					</image>
					<g>
						<linearGradient id="SVGID_44_" gradientUnits="userSpaceOnUse" x1="19.7432" y1="368.8206" x2="161.0287" y2="368.8206">
							<stop  offset="0" style="stop-color:#0980B3"/>
							<stop  offset="0.2482" style="stop-color:#1B5D8C"/>
							<stop  offset="0.5962" style="stop-color:#1B3765"/>
							<stop  offset="0.8575" style="stop-color:#171F4F"/>
							<stop  offset="1" style="stop-color:#151548"/>
						</linearGradient>
						<path class="st40" d="M20.3,349.2c0,1,0.5,1.9,1.4,2.5l59.1,34.1c5.9,3.4,13.1,3.4,19,0l59.1-34.1c1-0.5,1.4-1.5,1.4-2.5"/>
					</g>
				</g>
			</g>
			<g>
				<path class="st3" d="M80.9,293.2l-59.1,34.1c-1.9,1.1-1.9,3.8,0,4.9l59.1,34.1c5.9,3.4,13.1,3.4,19,0l59.1-34.1
					c1.9-1.1,1.9-3.8,0-4.9l-59.1-34.1C94,289.8,86.8,289.8,80.9,293.2z"/>
				<linearGradient id="SVGID_45_" gradientUnits="userSpaceOnUse" x1="32.6843" y1="329.8142" x2="148.0874" y2="329.8142">
					<stop  offset="0" style="stop-color:#07619E"/>
					<stop  offset="1" style="stop-color:#3085C7"/>
				</linearGradient>
				<polygon class="st41" points="32.7,329.8 90.4,296.5 148.1,329.8 90.4,363.1 				"/>
				<polygon class="st3" points="36.9,332.2 90.4,363.1 143.9,332.2 90.4,301.4 				"/>
			</g>
			<g>
				<g>
					<defs>
						<polygon id="SVGID_46_" points="115.6,405.9 149.3,386.5 149.3,373.5 115.6,393 						"/>
					</defs>
					<clipPath id="SVGID_47_">
						<use xlink:href="#SVGID_46_"  style="overflow:visible;"/>
					</clipPath>
					<linearGradient id="SVGID_48_" gradientUnits="userSpaceOnUse" x1="29.3541" y1="414.1548" x2="169.5116" y2="414.1548">
						<stop  offset="0" style="stop-color:#07619E"/>
						<stop  offset="1" style="stop-color:#3085C7"/>
					</linearGradient>
					<path class="st42" d="M29.4,329.8v129.5c0,1,0.5,1.9,1.4,2.5l59.1,34.1c5.9,3.4,13.1,3.4,19,0l59.1-34.1c1-0.5,1.4-1.5,1.4-2.5
						h0V329.8H29.4z"/>
					<linearGradient id="SVGID_49_" gradientUnits="userSpaceOnUse" x1="115.1226" y1="389.7195" x2="149.7713" y2="389.7195">
						<stop  offset="0" style="stop-color:#0980B3"/>
						<stop  offset="0.2482" style="stop-color:#1B5D8C"/>
						<stop  offset="0.5962" style="stop-color:#1B3765"/>
						<stop  offset="0.8575" style="stop-color:#171F4F"/>
						<stop  offset="1" style="stop-color:#151548"/>
					</linearGradient>
					<use xlink:href="#SVGID_46_"  style="overflow:visible;fill:none;stroke:url(#SVGID_49_);stroke-miterlimit:10;"/>
				</g>
				<polygon class="st16" points="112.8,391.3 115.6,393 115.6,405.9 112.8,404.3 				"/>
				<polygon class="st9" points="146.5,371.9 149.3,373.5 115.6,393 112.8,391.3 				"/>
				<g>
					
						<image style="overflow:visible;opacity:0.75;" width="53" height="53" xlink:href="C80357C9.png"  transform="matrix(0.24 0 0 0.24 134.5578 378.6378)">
					</image>
					<g>
						<linearGradient id="SVGID_50_" gradientUnits="userSpaceOnUse" x1="136.4088" y1="384.8631" x2="145.3093" y2="384.8631">
							<stop  offset="0" style="stop-color:#0980B3"/>
							<stop  offset="0.2482" style="stop-color:#1B5D8C"/>
							<stop  offset="0.5962" style="stop-color:#1B3765"/>
							<stop  offset="0.8575" style="stop-color:#171F4F"/>
							<stop  offset="1" style="stop-color:#151548"/>
						</linearGradient>
						<path class="st43" d="M144.2,381.5c-1.1-1.1-3.4-0.4-5.3,1.4c-1.8,1.8-2.5,4.2-1.4,5.3c1.1,1.1,3.4,0.4,5.3-1.4
							C144.6,384.9,145.3,382.6,144.2,381.5z"/>
					</g>
				</g>
			</g>
			<g>
				<polygon class="st5" points="44.1,332.8 90.4,306 136.7,332.8 90.4,359.5 				"/>
				<polyline class="st5" points="90.4,359.5 136.7,332.8 136.7,213.9 90.4,187.1 44.1,213.9 44.1,332.8 90.4,359.5 				"/>
				<g>
					<g>
						<g>
							<g>
								<g>
									<g>
										<g class="st44">
											<g>
												<linearGradient id="SVGID_51_" gradientUnits="userSpaceOnUse" x1="77.394" y1="271.8544" x2="123.4747" y2="271.8544">
													<stop  offset="0" style="stop-color:#07619E"/>
													<stop  offset="1" style="stop-color:#3085C7"/>
												</linearGradient>
												<path class="st45" d="M77.5,272.9c0,1.8,1.3,4,2.8,4.9l40.2,23.2c1.6,0.9,2.9,0.2,2.9-1.6v-0.2c0.1,0,0.1-0.1,0.2-0.1
													c0,0-0.1,0-0.2,0.1l-0.1-28.3c0-1.8-1.3-4-2.8-4.9l-40.1-23.2c0.1-0.1,0.2-0.2,0.3-0.3l-0.4,0.2
													c-1.5-0.8-2.8-0.1-2.8,1.7L77.5,272.9z"/>
											</g>
											<g>
												<polygon class="st3" points="79.9,273.3 87,277.4 98.4,284 106,288.4 116.3,294.4 120.9,297 120.9,269 112.1,264 
													101.5,257.8 91.3,252 81,246 79.8,245.3 												"/>
											</g>
											<g>
												<path class="st3" d="M122.5,301.2l1-0.6c0.5-0.3,0.8-0.9,0.8-1.8l-1,0.6C123.3,300.3,123,300.9,122.5,301.2z"/>
											</g>
											<g>
												<path class="st3" d="M123.3,270.8l1-0.6c0-1.8-1.3-4-2.8-4.9l-1,0.6C122,266.8,123.3,269,123.3,270.8z"/>
											</g>
											<g>
												<path class="st3" d="M79.2,241.9l-1,0.6c0.5-0.3,1.2-0.3,2,0.2l1-0.6C80.4,241.7,79.7,241.6,79.2,241.9z"/>
											</g>
											<g>
												<polygon class="st3" points="123.3,299.4 124.3,298.8 124.2,270.2 123.3,270.8 												"/>
											</g>
											<g>
												<polyline class="st3" points="120.4,265.9 121.4,265.3 81.2,242.1 80.3,242.7 												"/>
											</g>
										</g>
									</g>
								</g>
							</g>
						</g>
						<g>
							<g>
								<g class="st44">
									<g>
										<path class="st3" d="M50.9,293.8l0,1.4c0,0.5,0.3,0.9,0.8,1.2l0-1.4C51.2,294.7,50.9,294.3,50.9,293.8z"/>
									</g>
									<g>
										<path class="st3" d="M121.1,302.8l0-1.4c0,0.1,0,0.1-0.1,0.2l0,1.4C121.1,302.9,121.1,302.9,121.1,302.8z"/>
									</g>
									<g>
										<polygon class="st3" points="120.9,301.7 120.9,303 121,303 121,301.6 										"/>
									</g>
									<g>
										<path class="st3" d="M80.2,278.1c-0.2,0.1-0.2,0.3,0,0.3l40,23.3c0.1,0,0.1,0.1,0.2,0.1c0.1,0,0.3,0,0.4-0.1l0.1-0.1
											c0.2-0.1,0.2-0.3,0-0.3l-40-23.3c-0.2-0.1-0.4-0.1-0.6,0L80.2,278.1z"/>
									</g>
									<g>
										<path class="st3" d="M120.3,301.7l0,1.4c0.1,0,0.1,0.1,0.2,0.1c0.1,0,0.3,0,0.4-0.1l0-1.4c-0.1,0.1-0.2,0.1-0.4,0.1
											C120.4,301.7,120.4,301.7,120.3,301.7z"/>
									</g>
									<g>
										<path class="st3" d="M119.2,305.1c0.9-0.5,1.3-1.1,1.3-1.7l0-1.4c0,0.6-0.4,1.2-1.3,1.7
											C119.2,304.2,119.2,304.7,119.2,305.1z"/>
									</g>
									<g>
										<polygon class="st3" points="95.7,317.4 95.7,318.7 119.2,305.1 119.2,303.8 										"/>
									</g>
									<g>
										<polygon class="st3" points="51.7,295 51.7,296.4 90.7,319 90.6,317.6 										"/>
									</g>
									<g>
										<path class="st9" d="M75.7,278.5c1.4-0.8,3.3-1,4.5-0.4c-0.2,0.1-0.2,0.3,0,0.3l40,23.3c0.1,0,0.1,0.1,0.2,0.1
											c0.2,0.7-0.3,1.4-1.3,2l-23.5,13.6c-1.5,0.9-3.8,1-5.1,0.3L51.7,295c-1.3-0.7-1-2,0.5-2.9L75.7,278.5z"/>
									</g>
									<g>
										<path class="st3" d="M90.6,317.6l0,1.4c1.3,0.7,3.5,0.6,5.1-0.3l0-1.4C94.2,318.2,91.9,318.4,90.6,317.6z"/>
									</g>
								</g>
							</g>
							<g>
								<g class="st44">
									<g>
										<path class="st3" d="M79.2,281c0.1,0.1,0.1,0.2,0,0.3l-0.1,0.1l0,0l-0.9,0.5c-0.1,0.1-0.4,0.1-0.5,0l-1.8-1.1
											c-0.1-0.1-0.1-0.2,0-0.3l1-0.6c0.1-0.1,0.4-0.1,0.5,0L79.2,281z"/>
									</g>
								</g>
								<g class="st44">
									<g>
										<path class="st3" d="M82.2,282.8c0.1,0.1,0.1,0.2,0,0.3l-0.9,0.5c-0.1,0.1-0.4,0.1-0.5,0l-1.8-1.1c-0.1-0.1-0.1-0.2,0-0.3
											l0,0l0.9-0.5c0.1-0.1,0.4-0.1,0.5,0L82.2,282.8z"/>
									</g>
								</g>
								<g class="st44">
									<g>
										<path class="st3" d="M85.5,284.7c0.1,0.1,0.1,0.2,0,0.3l-0.9,0.5c-0.1,0.1-0.4,0.1-0.5,0l-1.8-1.1c-0.1-0.1-0.1-0.2,0-0.3
											l0,0l0.9-0.5c0.1-0.1,0.4-0.1,0.5,0L85.5,284.7z"/>
									</g>
								</g>
								<g class="st44">
									<g>
										<path class="st3" d="M88.5,286.4c0.1,0.1,0.1,0.2,0,0.3l-0.1,0.1l0,0l-0.9,0.5c-0.1,0.1-0.4,0.1-0.5,0l-1.8-1.1
											c-0.1-0.1-0.1-0.2,0-0.3l1-0.6c0.1-0.1,0.4-0.1,0.5,0L88.5,286.4z"/>
									</g>
								</g>
								<g class="st44">
									<g>
										<path class="st3" d="M91.7,288.2c0.1,0.1,0.1,0.2,0,0.3l-0.9,0.5c-0.1,0.1-0.4,0.1-0.5,0l-1.8-1.1c-0.1-0.1-0.1-0.2,0-0.3
											l0,0l0.9-0.5c0.1-0.1,0.4-0.1,0.5,0L91.7,288.2z"/>
									</g>
								</g>
								<g class="st44">
									<g>
										<path class="st3" d="M94.8,290c0.1,0.1,0.2,0.2,0,0.3l-0.9,0.5c-0.1,0.1-0.4,0.1-0.5,0l-1.8-1.1c-0.2-0.1-0.1-0.2,0-0.3
											l0.9-0.5c0.1-0.1,0.4-0.1,0.5,0L94.8,290z"/>
									</g>
								</g>
								<g class="st44">
									<g>
										<path class="st3" d="M98,291.9c0.1,0.1,0.1,0.2,0,0.3l-0.1,0.1l0,0l-0.9,0.5c-0.1,0.1-0.4,0.1-0.5,0l-1.8-1.1
											c-0.1-0.1-0.1-0.2,0-0.3l1-0.6c0.1-0.1,0.4-0.1,0.5,0L98,291.9z"/>
									</g>
								</g>
								<g class="st44">
									<g>
										<path class="st3" d="M101.1,293.7c0.1,0.1,0.1,0.2,0,0.3l-0.9,0.5c-0.1,0.1-0.4,0.1-0.5,0l-1.8-1.1
											c-0.1-0.1-0.1-0.2,0-0.3l0.9-0.5c0.1-0.1,0.4-0.1,0.5,0L101.1,293.7z"/>
									</g>
								</g>
								<g class="st44">
									<g>
										<path class="st3" d="M104.4,295.5c0.1,0.1,0.1,0.2,0,0.3l-0.1,0.1l0,0l-0.9,0.5c-0.1,0.1-0.4,0.1-0.5,0l-1.8-1.1
											c-0.1-0.1-0.1-0.2,0-0.3l1-0.6c0.1-0.1,0.4-0.1,0.5,0L104.4,295.5z"/>
									</g>
								</g>
								<g class="st44">
									<g>
										<path class="st3" d="M107.4,297.3c0.1,0.1,0.1,0.2,0,0.3l-0.9,0.5c-0.1,0.1-0.4,0.1-0.5,0l-1.8-1.1
											c-0.1-0.1-0.1-0.2,0-0.3l0,0l0.9-0.5c0.1-0.1,0.4-0.1,0.5,0L107.4,297.3z"/>
									</g>
								</g>
								<g class="st44">
									<g>
										<path class="st3" d="M110.6,299.1c0.2,0.1,0.1,0.2,0,0.3l-0.9,0.5c-0.1,0.1-0.4,0.1-0.5,0l-1.8-1.1
											c-0.1-0.1-0.2-0.2,0-0.3l0,0l0.9-0.5c0.1-0.1,0.4-0.1,0.5,0L110.6,299.1z"/>
									</g>
								</g>
								<g class="st44">
									<g>
										<path class="st3" d="M113.8,300.9c0.1,0.1,0.1,0.2,0,0.3l-0.9,0.5c-0.1,0.1-0.4,0.1-0.5,0l-1.8-1.1
											c-0.1-0.1-0.2-0.2,0-0.3l0,0l0.9-0.5c0.1-0.1,0.4-0.1,0.5,0L113.8,300.9z"/>
									</g>
								</g>
								<g class="st44">
									<g>
										<path class="st3" d="M116.9,302.7c0.1,0.1,0.1,0.2,0,0.3l-0.1,0.1l0,0l-0.9,0.5c-0.1,0.1-0.4,0.1-0.5,0l-1.8-1.1
											c-0.1-0.1-0.1-0.2,0-0.3l1-0.6c0.1-0.1,0.4-0.1,0.5,0L116.9,302.7z"/>
									</g>
								</g>
								<g class="st44">
									<g>
										<path class="st3" d="M76.9,282.3c0.1,0.1,0.1,0.2,0,0.3l-0.1,0.1l0,0l-1.8,1.1c-0.1,0.1-0.4,0.1-0.5,0l-1.8-1.1
											c-0.1-0.1-0.2-0.2,0-0.3l2-1.1c0.1-0.1,0.4-0.1,0.5,0L76.9,282.3z"/>
									</g>
								</g>
								<g class="st44">
									<g>
										<path class="st3" d="M79.9,284.1c0.1,0.1,0.1,0.2,0,0.3l-1.8,1.1c-0.1,0.1-0.4,0.1-0.5,0l-1.8-1.1c-0.1-0.1-0.1-0.2,0-0.3
											l0,0l1.8-1.1c0.1-0.1,0.4-0.1,0.5,0L79.9,284.1z"/>
									</g>
								</g>
								<g class="st44">
									<g>
										<path class="st3" d="M83.2,285.9c0.1,0.1,0.1,0.2,0,0.3l-1.8,1.1c-0.1,0.1-0.4,0.1-0.5,0l-1.8-1.1c-0.1-0.1-0.1-0.2,0-0.3
											l0,0l1.8-1.1c0.1-0.1,0.4-0.1,0.5,0L83.2,285.9z"/>
									</g>
								</g>
								<g class="st44">
									<g>
										<path class="st3" d="M86.2,287.7c0.1,0.1,0.1,0.2,0,0.3l-0.1,0.1l0,0l-1.8,1.1c-0.1,0.1-0.4,0.1-0.5,0l-1.8-1.1
											c-0.1-0.1-0.2-0.2,0-0.3l2-1.1c0.1-0.1,0.4-0.1,0.5,0L86.2,287.7z"/>
									</g>
								</g>
								<g class="st44">
									<g>
										<path class="st3" d="M89.4,289.5c0.1,0.1,0.1,0.2,0,0.3l-1.8,1.1c-0.1,0.1-0.4,0.1-0.5,0l-1.8-1.1c-0.1-0.1-0.1-0.2,0-0.3
											l1.8-1.1c0.1-0.1,0.4-0.1,0.5,0L89.4,289.5z"/>
									</g>
								</g>
								<g class="st44">
									<g>
										<path class="st3" d="M92.5,291.3c0.2,0.1,0.1,0.2,0,0.3l-1.8,1.1c-0.1,0.1-0.4,0.1-0.5,0l-1.8-1.1c-0.1-0.1-0.1-0.2,0-0.3
											l1.8-1.1c0.1-0.1,0.4-0.1,0.5,0L92.5,291.3z"/>
									</g>
								</g>
								<g class="st44">
									<g>
										<path class="st3" d="M95.7,293.2c0.2,0.1,0.1,0.2,0,0.3l-1.8,1.1c-0.1,0.1-0.4,0.1-0.5,0l-1.8-1.1c-0.1-0.1-0.1-0.2,0-0.3
											l0,0l1.8-1.1c0.1-0.1,0.4-0.1,0.5,0L95.7,293.2z"/>
									</g>
								</g>
								<g class="st44">
									<g>
										<path class="st3" d="M98.8,295c0.1,0.1,0.1,0.2,0,0.3l-0.1,0.1l0,0l-1.8,1.1c-0.1,0.1-0.4,0.1-0.5,0l-1.8-1.1
											c-0.1-0.1-0.2-0.2,0-0.3l2-1.1c0.1-0.1,0.4-0.1,0.5,0L98.8,295z"/>
									</g>
								</g>
								<g class="st44">
									<g>
										<path class="st3" d="M102.1,296.8c0.1,0.1,0.1,0.2,0,0.3l-0.1,0.1l0,0l-1.8,1.1c-0.1,0.1-0.4,0.1-0.5,0l-1.8-1.1
											c-0.1-0.1-0.2-0.2,0-0.3l2-1.1c0.1-0.1,0.4-0.1,0.5,0L102.1,296.8z"/>
									</g>
								</g>
								<g class="st44">
									<g>
										<path class="st3" d="M105.1,298.6c0.1,0.1,0.1,0.2,0,0.3l-1.8,1.1c-0.1,0.1-0.4,0.1-0.5,0l-1.8-1.1
											c-0.1-0.1-0.1-0.2,0-0.3l0,0l1.8-1.1c0.1-0.1,0.4-0.1,0.5,0L105.1,298.6z"/>
									</g>
								</g>
								<g class="st44">
									<g>
										<path class="st3" d="M108.3,300.4c0.1,0.1,0.1,0.2,0,0.3l-1.8,1.1c-0.1,0.1-0.4,0.1-0.5,0l-1.8-1.1
											c-0.1-0.1-0.2-0.2,0-0.3l0,0l1.8-1.1c0.1-0.1,0.4-0.1,0.5,0L108.3,300.4z"/>
									</g>
								</g>
								<g class="st44">
									<g>
										<path class="st3" d="M111.5,302.2c0.1,0.1,0.1,0.2,0,0.3l-1.8,1.1c-0.1,0.1-0.4,0.1-0.5,0l-1.8-1.1
											c-0.1-0.1-0.2-0.2,0-0.3l0,0l1.8-1.1c0.1-0.1,0.4-0.1,0.5,0L111.5,302.2z"/>
									</g>
								</g>
								<g class="st44">
									<g>
										<path class="st3" d="M114.6,304c0.1,0.1,0.1,0.2,0,0.3l-1.8,1.1c-0.1,0.1-0.4,0.1-0.5,0l-1.8-1.1c-0.1-0.1-0.1-0.2,0-0.3
											l1.8-1.1c0.1-0.1,0.4-0.1,0.5,0L114.6,304z"/>
									</g>
								</g>
								<g class="st44">
									<g>
										<path class="st3" d="M77.5,286.7c0.1,0.1,0.1,0.2,0,0.3l-0.1,0.1l0,0l-1.8,1.1c-0.1,0.1-0.4,0.1-0.5,0l-6.2-3.6
											c-0.1-0.1-0.1-0.2,0-0.3l2-1.1c0.1-0.1,0.4-0.1,0.5,0L77.5,286.7z"/>
									</g>
								</g>
								<g class="st44">
									<g>
										<path class="st3" d="M80.7,288.7c0.1,0.1,0.1,0.2,0,0.3l-1.8,1.1c-0.1,0.1-0.4,0.1-0.5,0l-1.8-1.1c-0.1-0.1-0.1-0.2,0-0.3
											l0,0l0,0l1.8-1.1c0.1-0.1,0.4-0.1,0.5,0L80.7,288.7z"/>
									</g>
								</g>
								<g class="st44">
									<g>
										<path class="st3" d="M84,290.4c0.1,0.1,0.1,0.2,0,0.3l-1.8,1.1c-0.1,0.1-0.4,0.1-0.5,0l-1.8-1.1c-0.1-0.1-0.1-0.2,0-0.3
											l0,0l1.8-1.1c0.1-0.1,0.4-0.1,0.5,0L84,290.4z"/>
									</g>
								</g>
								<g class="st44">
									<g>
										<path class="st3" d="M87.2,292.3c0.1,0.1,0.1,0.2,0,0.3l-1.8,1.1c-0.1,0.1-0.4,0.1-0.5,0l-1.8-1.1c-0.1-0.1-0.2-0.2,0-0.3
											l0,0l1.8-1.1c0.1-0.1,0.4-0.1,0.5,0L87.2,292.3z"/>
									</g>
								</g>
								<g class="st44">
									<g>
										<path class="st3" d="M90.3,294c0.1,0.1,0.1,0.2,0,0.3l-0.1,0.1l0,0l-1.8,1.1c-0.1,0.1-0.4,0.1-0.5,0l-1.8-1.1
											c-0.1-0.1-0.2-0.2,0-0.3l2-1.1c0.1-0.1,0.4-0.1,0.5,0L90.3,294z"/>
									</g>
								</g>
								<g class="st44">
									<g>
										<path class="st3" d="M93.3,295.8c0.1,0.1,0.1,0.2,0,0.3l-1.8,1.1c-0.1,0.1-0.4,0.1-0.5,0l-1.8-1.1c-0.1-0.1-0.2-0.2,0-0.3
											l0,0l1.8-1.1c0.1-0.1,0.4-0.1,0.5,0L93.3,295.8z"/>
									</g>
								</g>
								<g class="st44">
									<g>
										<path class="st3" d="M96.6,297.7c0.1,0.1,0.1,0.2,0,0.3l-1.8,1.1c-0.1,0.1-0.4,0.1-0.5,0l-1.8-1.1c-0.1-0.1-0.2-0.2,0-0.3
											l0,0l1.8-1.1c0.1-0.1,0.4-0.1,0.5,0L96.6,297.7z"/>
									</g>
								</g>
								<g class="st44">
									<g>
										<path class="st3" d="M99.6,299.4c0.1,0.1,0.1,0.2,0,0.3l-0.1,0.1l0,0l-1.8,1.1c-0.1,0.1-0.4,0.1-0.5,0l-1.8-1.1
											c-0.1-0.1-0.1-0.2,0-0.3l2-1.1c0.1-0.1,0.4-0.1,0.5,0L99.6,299.4z"/>
									</g>
								</g>
								<g class="st44">
									<g>
										<path class="st3" d="M102.8,301.2c0.1,0.1,0.1,0.2,0,0.3l-1.8,1.1c-0.1,0.1-0.4,0.1-0.5,0l-1.8-1.1
											c-0.1-0.1-0.1-0.2,0-0.3l1.8-1.1c0.1-0.1,0.4-0.1,0.5,0L102.8,301.2z"/>
									</g>
								</g>
								<g class="st44">
									<g>
										<path class="st3" d="M105.9,303c0.1,0.1,0.1,0.2,0,0.3l-1.8,1.1c-0.1,0.1-0.4,0.1-0.5,0l-1.8-1.1c-0.1-0.1-0.1-0.2,0-0.3
											l1.8-1.1c0.1-0.1,0.4-0.1,0.5,0L105.9,303z"/>
									</g>
								</g>
								<g class="st44">
									<g>
										<path class="st3" d="M110.9,306.1c0.1,0.1,0.1,0.2,0,0.3l-1.8,1.1c-0.1,0.1-0.4,0.1-0.5,0l-3.8-2.2
											c-0.1-0.1-0.1-0.2,0-0.3l1.8-1.1c0.1-0.1,0.4-0.1,0.5,0L110.9,306.1z"/>
									</g>
								</g>
								<g class="st44">
									<g>
										<path class="st3" d="M72.2,287.8c0.2,0.1,0.2,0.3,0.1,0.3l-1.8,1.1c-0.1,0.1-0.4,0.1-0.6,0l-4.5-2.6
											c-0.2-0.1-0.2-0.3,0-0.3l1.8-1.1c0.1-0.1,0.4-0.1,0.6,0L72.2,287.8z"/>
									</g>
								</g>
								<g class="st44">
									<g>
										<path class="st3" d="M75.6,289.8c0.1,0.1,0.1,0.2,0,0.3l-1.8,1.1c-0.1,0.1-0.4,0.1-0.5,0l-1.8-1.1c-0.1-0.1-0.1-0.2,0-0.3
											l0,0l1.8-1.1c0.1-0.1,0.4-0.1,0.5,0L75.6,289.8z"/>
									</g>
								</g>
								<g class="st44">
									<g>
										<path class="st3" d="M78.7,291.6c0.1,0.1,0.1,0.2,0,0.3l-0.1,0.1l0,0l-1.8,1.1c-0.1,0.1-0.4,0.1-0.5,0l-1.8-1.1
											c-0.1-0.1-0.1-0.2,0-0.3l2-1.2c0.1-0.1,0.4-0.1,0.5,0L78.7,291.6z"/>
									</g>
								</g>
								<g class="st44">
									<g>
										<path class="st3" d="M81.8,293.4c0.1,0.1,0.1,0.2,0,0.3l-1.8,1.1c-0.1,0.1-0.4,0.1-0.5,0l-1.8-1.1c-0.1-0.1-0.1-0.2,0-0.3
											l0,0l1.8-1.1c0.1-0.1,0.4-0.1,0.5,0L81.8,293.4z"/>
									</g>
								</g>
								<g class="st44">
									<g>
										<path class="st3" d="M84.9,295.2c0.1,0.1,0.1,0.2,0,0.3l-0.1,0.1l0,0l-1.8,1.1c-0.1,0.1-0.4,0.1-0.5,0l-1.8-1.1
											c-0.1-0.1-0.2-0.2,0-0.3l2-1.2c0.1-0.1,0.4-0.1,0.5,0L84.9,295.2z"/>
									</g>
								</g>
								<g class="st44">
									<g>
										<path class="st3" d="M88.2,297.1c0.1,0.1,0.1,0.2,0,0.3l-0.1,0.1l0,0l-1.8,1.1c-0.1,0.1-0.4,0.1-0.5,0l-1.8-1.1
											c-0.1-0.1-0.2-0.2,0-0.3l2-1.2c0.1-0.1,0.4-0.1,0.5,0L88.2,297.1z"/>
									</g>
								</g>
								<g class="st44">
									<g>
										<path class="st3" d="M91.2,298.9c0.1,0.1,0.1,0.2,0,0.3l-1.8,1.1c-0.1,0.1-0.4,0.1-0.5,0l-1.8-1.1c-0.1-0.1-0.1-0.2,0-0.3
											l0,0l1.8-1.1c0.1-0.1,0.4-0.1,0.5,0L91.2,298.9z"/>
									</g>
								</g>
								<g class="st44">
									<g>
										<path class="st3" d="M94.2,300.6c0.1,0.1,0.1,0.2,0,0.3l-0.1,0.1l0,0l-1.8,1.1c-0.1,0.1-0.4,0.1-0.5,0l-1.8-1.1
											c-0.1-0.1-0.2-0.2,0-0.3l2-1.2c0.1-0.1,0.4-0.1,0.5,0L94.2,300.6z"/>
									</g>
								</g>
								<g class="st44">
									<g>
										<path class="st3" d="M97.5,302.4c0.1,0.1,0.1,0.2,0,0.3l-0.1,0.1l0,0l-1.8,1.1c-0.1,0.1-0.4,0.1-0.5,0l-1.8-1.1
											c-0.1-0.1-0.1-0.2,0-0.3l2-1.1c0.1-0.1,0.4-0.1,0.5,0L97.5,302.4z"/>
									</g>
								</g>
								<g class="st44">
									<g>
										<path class="st3" d="M100.9,304.4c0.1,0.1,0.1,0.2,0,0.3l-0.1,0.1l0,0l-1.8,1.1c-0.1,0.1-0.4,0.1-0.5,0l-1.8-1.1
											c-0.1-0.1-0.1-0.2,0-0.3l2-1.1c0.1-0.1,0.4-0.1,0.5,0L100.9,304.4z"/>
									</g>
								</g>
								<g class="st44">
									<g>
										<path class="st3" d="M104.2,306.4c0.1,0.1,0.1,0.2,0,0.3l-1.8,1.1c-0.1,0.1-0.4,0.1-0.5,0l-1.8-1.1
											c-0.1-0.1-0.1-0.2,0-0.3l0,0l1.8-1.1c0.1-0.1,0.4-0.1,0.5,0L104.2,306.4z"/>
									</g>
								</g>
								<g class="st44">
									<g>
										<path class="st3" d="M107.6,308.3c0.1,0,0,0.1-0.2,0.2l-1.8,1.1c-0.1,0.1-0.3,0.1-0.4,0.1l-2.2-1.3c-0.1,0,0-0.1,0.2-0.2
											l1.8-1.1c0.1-0.1,0.3-0.1,0.4-0.1L107.6,308.3z"/>
									</g>
								</g>
								<g class="st44">
									<g>
										<path class="st3" d="M67.8,289.4c0.1,0.1,0.1,0.2,0,0.3l-0.1,0.1l-1.7,1c-0.1,0.1-0.4,0.1-0.5,0l-3.8-2.2
											c-0.1-0.1-0.1-0.2,0-0.3c0,0,0,0,0,0l1.8-1.1c0.1-0.1,0.4-0.1,0.5,0L67.8,289.4z"/>
									</g>
								</g>
								<g class="st44">
									<g>
										<path class="st3" d="M70.9,291.2c0.1,0.1,0.1,0.2,0,0.3l-1.8,1.1c-0.1,0.1-0.4,0.1-0.5,0l-1.8-1.1c-0.1-0.1-0.1-0.2,0-0.3
											l1.7-1l0.1-0.1c0.1-0.1,0.4-0.1,0.5,0L70.9,291.2z"/>
									</g>
								</g>
								<g class="st44">
									<g>
										<path class="st3" d="M74,293c0.1,0.1,0.1,0.2,0,0.3l-0.1,0.1l-1.7,1c-0.1,0.1-0.4,0.1-0.5,0l-1.8-1.1
											c-0.1-0.1-0.1-0.2,0-0.3l1.7-1l0.1-0.1c0.1-0.1,0.4-0.1,0.5,0L74,293z"/>
									</g>
								</g>
								<g class="st44">
									<g>
										<path class="st3" d="M77.1,294.8c0.1,0.1,0.1,0.2,0,0.3l-1.8,1.1c-0.1,0.1-0.4,0.1-0.5,0l-1.8-1.1c-0.1-0.1-0.1-0.2,0-0.3
											l1.7-1l0.1-0.1c0.1-0.1,0.4-0.1,0.5,0L77.1,294.8z"/>
									</g>
								</g>
								<g class="st44">
									<g>
										<path class="st3" d="M89.6,302c0.1,0.1,0.1,0.2,0,0.3l-0.1,0.1l-1.7,1c-0.1,0.1-0.4,0.1-0.5,0L76,296.9
											c-0.1-0.1-0.1-0.2,0-0.3l1.7-1l0.1-0.1c0.1-0.1,0.4-0.1,0.5,0L89.6,302z"/>
									</g>
								</g>
								<g class="st44">
									<g>
										<path class="st3" d="M94.6,304.9c0.1,0.1,0.1,0.2,0,0.3l-0.1,0.1l-1.7,1c-0.1,0.1-0.4,0.1-0.5,0l-3.8-2.2
											c-0.1-0.1-0.1-0.2,0-0.3l1.7-1l0.1-0.1c0.1-0.1,0.4-0.1,0.5,0L94.6,304.9z"/>
									</g>
								</g>
								<g class="st44">
									<g>
										<path class="st3" d="M97.7,306.7c0.1,0.1,0.1,0.2,0,0.3l-1.8,1.1c-0.1,0.1-0.4,0.1-0.5,0l-1.8-1.1c-0.1-0.1-0.1-0.2,0-0.3
											l1.7-1l0.1-0.1c0.1-0.1,0.4-0.1,0.5,0L97.7,306.7z"/>
									</g>
								</g>
								<g class="st44">
									<g>
										<path class="st3" d="M100.7,308.4c0.1,0.1,0.1,0.2,0,0.3l-0.1,0.1l-1.7,1c-0.1,0.1-0.4,0.1-0.5,0l-1.8-1.1
											c-0.1-0.1-0.1-0.2,0-0.3c0,0,0,0,0,0l1.8-1.1c0.1-0.1,0.4-0.1,0.5,0L100.7,308.4z"/>
									</g>
								</g>
								<g class="st44">
									<g>
										<path class="st3" d="M103.9,310.2c0.1,0.1,0.1,0.2,0,0.3l-1.8,1.1c-0.1,0.1-0.4,0.1-0.5,0l-1.8-1.1
											c-0.1-0.1-0.1-0.2,0-0.3l1.7-1l0.1-0.1c0.1-0.1,0.4-0.1,0.5,0L103.9,310.2z"/>
									</g>
								</g>
							</g>
						</g>
						<path class="st3" d="M72.3,305.2l0.2,0.1l5,2.9c0.4,0.2,1.1,0.2,1.6,0l1.1-0.6l4.7-2.7c0.5-0.3,0.5-0.7,0.1-0.9l-10.3-6
							c-0.4-0.2-1.1-0.2-1.6,0l-4.7,2.7l-1.1,0.6c-0.5,0.3-0.5,0.7-0.1,0.9L72.3,305.2"/>
					</g>
				</g>
			</g>
		</g>
		<g>
			
				<image style="overflow:visible;opacity:0.75;" width="684" height="427" xlink:href="C80357CB.png"  transform="matrix(0.24 0 0 0.24 333.5178 408.1578)">
			</image>
			<g>
				<linearGradient id="SVGID_52_" gradientUnits="userSpaceOnUse" x1="335.5132" y1="459.3412" x2="495.8067" y2="459.3412">
					<stop  offset="0" style="stop-color:#0980B3"/>
					<stop  offset="0.2482" style="stop-color:#1B5D8C"/>
					<stop  offset="0.5962" style="stop-color:#1B3765"/>
					<stop  offset="0.8575" style="stop-color:#171F4F"/>
					<stop  offset="1" style="stop-color:#151548"/>
				</linearGradient>
				<path class="st46" d="M415.7,508c-5,0-9.9-1.3-14.3-3.8L342.3,470c-3.8-2.2-6.2-6.3-6.2-10.7c0-4.4,2.4-8.5,6.2-10.7l59.1-34.1
					c4.3-2.5,9.3-3.8,14.3-3.8c5,0,9.9,1.3,14.3,3.8l59.1,34.1c3.8,2.2,6.2,6.3,6.2,10.7s-2.4,8.5-6.2,10.7l-59.1,34.1
					C425.6,506.7,420.7,508,415.7,508z"/>
			</g>
		</g>
		<g>
			<path class="st3" d="M310.6,311.8L310.6,311.8c-0.6-0.3-1.6,0-2.4,0.9c-0.9,0.9-1.2,2.1-0.7,2.6c0,0,0.1,0.1,0.2,0.1l0,0
				l67.3,38.9l3.1-3.6L310.6,311.8z"/>
			<path class="st3" d="M327.4,302.1L327.4,302.1c-0.6-0.3-1.6,0-2.4,0.9c-0.9,0.9-1.2,2.1-0.7,2.6c0,0,0.1,0.1,0.2,0.1l0,0
				l67.3,38.9l3.1-3.6L327.4,302.1z"/>
			<path class="st3" d="M336.1,328.2c0-1.4-0.8-2.5-1.7-2.5c-0.2,0-0.4,0.1-0.6,0.2l0,0l0,0c0,0,0,0,0,0L190,409.1
				c-0.8,0.5-1.8,0.5-2.6,0l-45.1-26c-0.6-0.3-1.6,0-2.4,0.9c-0.9,0.9-1.2,2.1-0.7,2.6c0,0,0.1,0.1,0.2,0.1l48.5,28l0,0
				c0.2,0.1,0.4,0.2,0.7,0.2c0.2,0,0.4-0.1,0.6-0.2l0,0l0.1-0.1c0,0,0,0,0,0L335,330.5c0,0,0,0,0,0l0,0l0,0
				C335.6,330.1,336.1,329.2,336.1,328.2z"/>
		</g>
		<g>
			<g>
				<linearGradient id="SVGID_53_" gradientUnits="userSpaceOnUse" x1="345.6042" y1="414.1548" x2="485.7617" y2="414.1548">
					<stop  offset="0" style="stop-color:#07619E"/>
					<stop  offset="1" style="stop-color:#3085C7"/>
				</linearGradient>
				<path class="st47" d="M345.6,329.8v129.5c0,1,0.5,1.9,1.4,2.5l59.1,34.1c5.9,3.4,13.1,3.4,19,0l59.1-34.1c1-0.5,1.4-1.5,1.4-2.5
					h0V329.8H345.6z"/>
				<g>
					
						<image style="overflow:visible;opacity:0.75;" width="605" height="184" xlink:href="C80357C8.png"  transform="matrix(0.24 0 0 0.24 343.1178 346.7178)">
					</image>
					<g>
						<linearGradient id="SVGID_54_" gradientUnits="userSpaceOnUse" x1="345.0167" y1="368.8206" x2="486.3024" y2="368.8206">
							<stop  offset="0" style="stop-color:#0980B3"/>
							<stop  offset="0.2482" style="stop-color:#1B5D8C"/>
							<stop  offset="0.5962" style="stop-color:#1B3765"/>
							<stop  offset="0.8575" style="stop-color:#171F4F"/>
							<stop  offset="1" style="stop-color:#151548"/>
						</linearGradient>
						<path class="st48" d="M345.6,349.2c0,1,0.5,1.9,1.4,2.5l59.1,34.1c5.9,3.4,13.1,3.4,19,0l59.1-34.1c1-0.5,1.4-1.5,1.4-2.5"/>
					</g>
				</g>
			</g>
			<g>
				<path class="st3" d="M406.2,293.2L347,327.3c-1.9,1.1-1.9,3.8,0,4.9l59.1,34.1c5.9,3.4,13.1,3.4,19,0l59.1-34.1
					c1.9-1.1,1.9-3.8,0-4.9l-59.1-34.1C419.3,289.8,412,289.8,406.2,293.2z"/>
				<linearGradient id="SVGID_55_" gradientUnits="userSpaceOnUse" x1="357.9579" y1="329.8142" x2="473.3609" y2="329.8142">
					<stop  offset="0" style="stop-color:#07619E"/>
					<stop  offset="1" style="stop-color:#3085C7"/>
				</linearGradient>
				<polygon class="st49" points="358,329.8 415.7,296.5 473.4,329.8 415.7,363.1 				"/>
				<polygon class="st3" points="362.2,332.2 415.7,363.1 469.2,332.2 415.7,301.4 				"/>
			</g>
			<g>
				<polyline class="st5" points="415.7,359.5 462,332.8 462,213.9 415.7,187.1 369.4,213.9 369.4,332.8 415.7,359.5 				"/>
				<polygon class="st5" points="369.4,332.8 415.7,306 462,332.8 415.7,359.5 				"/>
				<g>
					<g>
						
							<image style="overflow:visible;opacity:0.75;" width="140" height="371" xlink:href="C80357F7.png"  transform="matrix(0.24 0 0 0.24 390.1578 237.5178)">
						</image>
						<g>
							<linearGradient id="SVGID_56_" gradientUnits="userSpaceOnUse" x1="391.9355" y1="282.0157" x2="421.8552" y2="282.0157">
								<stop  offset="0" style="stop-color:#0980B3"/>
								<stop  offset="0.2482" style="stop-color:#1B5D8C"/>
								<stop  offset="0.5962" style="stop-color:#1B3765"/>
								<stop  offset="0.8575" style="stop-color:#171F4F"/>
								<stop  offset="1" style="stop-color:#151548"/>
							</linearGradient>
							<polyline class="st50" points="393.2,324.1 421.3,275.5 392.5,239.9 							"/>
						</g>
					</g>
					<circle class="st3" cx="421.3" cy="275.5" r="23"/>
					<g>
						
							<image style="overflow:visible;opacity:0.75;" width="138" height="115" xlink:href="C80357F9.png"  transform="matrix(0.24 0 0 0.24 418.7178 250.4778)">
						</image>
						<g>
							<linearGradient id="SVGID_57_" gradientUnits="userSpaceOnUse" x1="420.6803" y1="264.2059" x2="449.8959" y2="264.2059">
								<stop  offset="0" style="stop-color:#0980B3"/>
								<stop  offset="0.2482" style="stop-color:#1B5D8C"/>
								<stop  offset="0.5962" style="stop-color:#1B3765"/>
								<stop  offset="0.8575" style="stop-color:#171F4F"/>
								<stop  offset="1" style="stop-color:#151548"/>
							</linearGradient>
							<line class="st51" x1="449.3" y1="252.9" x2="421.3" y2="275.5"/>
						</g>
					</g>
					<path class="st3" d="M399.9,323.8c0-3.7-3-6.7-6.7-6.7c-3.7,0-6.7,3-6.7,6.7c0,3.7,3,6.7,6.7,6.7
						C396.9,330.5,399.9,327.5,399.9,323.8z"/>
					<path class="st3" d="M399.2,239.9c0-3.7-3-6.7-6.7-6.7c-3.7,0-6.7,3-6.7,6.7s3,6.7,6.7,6.7
						C396.2,246.6,399.2,243.6,399.2,239.9z"/>
					<path class="st3" d="M456,252.9c0-3.7-3-6.7-6.7-6.7c-3.7,0-6.7,3-6.7,6.7s3,6.7,6.7,6.7C453,259.5,456,256.5,456,252.9z"/>
				</g>
			</g>
		</g>
	</g>
</g>
</svg>
