<svg id="Layer_1" data-name="Layer 1" xmlns="http://www.w3.org/2000/svg" xmlns:xlink="http://www.w3.org/1999/xlink" viewBox="0 0 1366.28 412.6"><defs><style>.cls-1{fill:#0b1f6e;}.cls-2{fill:url(#linear-gradient);}.cls-3{fill:url(#linear-gradient-2);}.cls-4{fill:url(#linear-gradient-3);}.cls-5{fill:url(#linear-gradient-4);}.cls-6{fill:url(#linear-gradient-5);}.cls-7{fill:url(#linear-gradient-6);}.cls-8{fill:url(#linear-gradient-7);}.cls-9{fill:none;stroke:#0b1f6e;stroke-linecap:round;stroke-linejoin:round;stroke-width:2px;}.cls-10{fill:#fff;}</style><linearGradient id="linear-gradient" x1="0.01" y1="140.3" x2="114.61" y2="140.3" gradientUnits="userSpaceOnUse"><stop offset="0" stop-color="#c2ceff"/><stop offset="1" stop-color="#95aaff"/></linearGradient><linearGradient id="linear-gradient-2" x1="379.13" y1="140.3" x2="493.73" y2="140.3" xlink:href="#linear-gradient"/><linearGradient id="linear-gradient-3" x1="755.71" y1="140.3" x2="870.31" y2="140.3" xlink:href="#linear-gradient"/><linearGradient id="linear-gradient-4" x1="1137.07" y1="140.3" x2="1251.67" y2="140.3" xlink:href="#linear-gradient"/><linearGradient id="linear-gradient-5" x1="945.91" y1="236.03" x2="1060.5" y2="236.03" xlink:href="#linear-gradient"/><linearGradient id="linear-gradient-6" x1="190.21" y1="236.03" x2="304.8" y2="236.03" xlink:href="#linear-gradient"/><linearGradient id="linear-gradient-7" x1="569.32" y1="236.03" x2="683.92" y2="236.03" xlink:href="#linear-gradient"/></defs><title>Digital Experiences</title><path d="M253.37,34.34V6.11h9.69a11.63,11.63,0,0,1,8.53,3.31,11.37,11.37,0,0,1,3.35,8.48v4.67a11.34,11.34,0,0,1-3.35,8.48,11.7,11.7,0,0,1-8.53,3.29ZM259,10.47V30h3.74a5.89,5.89,0,0,0,4.77-2,8.06,8.06,0,0,0,1.72-5.36V17.85a8,8,0,0,0-1.72-5.33,5.92,5.92,0,0,0-4.77-2Z"/><path d="M285.39,34.34h-5.66V6.11h5.66Z"/><path d="M312.71,30.48a10.6,10.6,0,0,1-3.93,3,15.26,15.26,0,0,1-6.73,1.3,11.56,11.56,0,0,1-8.46-3.22,11.19,11.19,0,0,1-3.27-8.35V17.28a11.44,11.44,0,0,1,3.15-8.35,10.84,10.84,0,0,1,8.11-3.23q5.16,0,7.9,2.51a8.72,8.72,0,0,1,2.8,6.6l0,.12h-5.33a5.45,5.45,0,0,0-1.43-3.56,5,5,0,0,0-3.74-1.31,5.07,5.07,0,0,0-4.19,2A8.06,8.06,0,0,0,296,17.23v5.93a8,8,0,0,0,1.65,5.22,5.44,5.44,0,0,0,4.44,2,10.31,10.31,0,0,0,3.18-.4,4.86,4.86,0,0,0,1.82-1V23.75h-5V19.83h10.66Z"/><path d="M323.58,34.34h-5.66V6.11h5.66Z"/><path d="M348.73,10.47h-8V34.34h-5.66V10.47h-7.95V6.11h21.6Z"/><path d="M365.09,28.25h-9.91l-1.91,6.09h-5.72l9.71-28.23h5.8l9.67,28.23H367Zm-8.51-4.44h7.12l-3.49-11.09h-.12Z"/><path d="M381,30h12.56v4.37H375.37V6.11H381Z"/><path d="M424.08,21.93H412.39v8h13.67v4.37H406.73V6.11H426v4.36H412.39v7.1h11.69Z"/><path d="M439.48,16.11l5.29-10h6.59l-8.37,14,8.86,14.23H445l-5.44-10.18-5.45,10.18H427.5l8.59-14.23-8.38-14h6.55Z"/><path d="M460.45,24.1V34.34h-5.66V6.11H466a11.12,11.12,0,0,1,7.65,2.48,8.3,8.3,0,0,1,2.8,6.53,8.24,8.24,0,0,1-2.8,6.52A11.16,11.16,0,0,1,466,24.1Zm0-4.36H466a4.7,4.7,0,0,0,3.58-1.29,4.56,4.56,0,0,0,1.23-3.29,4.79,4.79,0,0,0-1.22-3.36A4.62,4.62,0,0,0,466,10.47h-5.59Z"/><path d="M498,21.93H486.32v8H500v4.37H480.65V6.11h19.29v4.36H486.32v7.1H498Z"/><path d="M509.11,23.05V34.34h-5.66V6.11H514.1q4.81,0,7.55,2.2a7.47,7.47,0,0,1,2.72,6.14,6.23,6.23,0,0,1-1.14,3.76,8,8,0,0,1-3.36,2.54,6.07,6.07,0,0,1,3.6,2.46,7.8,7.8,0,0,1,1.1,4.26v2.08a9.92,9.92,0,0,0,.32,2.47A3.35,3.35,0,0,0,526,33.93v.41h-5.84a3.22,3.22,0,0,1-1-2.08,16.87,16.87,0,0,1-.24-2.75v-2a4.46,4.46,0,0,0-1.15-3.28,4.32,4.32,0,0,0-3.25-1.18Zm0-4.36H514a5.33,5.33,0,0,0,3.56-1,3.71,3.71,0,0,0,1.17-3,4.11,4.11,0,0,0-1.17-3.08,4.76,4.76,0,0,0-3.46-1.15h-5Z"/><path d="M535.71,34.34h-5.66V6.11h5.66Z"/><path d="M558.7,21.93H547v8h13.66v4.37H541.35V6.11h19.29v4.36H547v7.1H558.7Z"/><path d="M587,34.34h-5.64l-11.4-19.29-.12,0V34.34h-5.66V6.11h5.66l11.4,19.27.12,0V6.11H587Z"/><path d="M613.57,24.72l0,.12a9.24,9.24,0,0,1-2.78,7.23q-2.87,2.67-7.94,2.67a11,11,0,0,1-8.28-3.27A11.63,11.63,0,0,1,591.43,23v-5.6A11.81,11.81,0,0,1,594.53,9a10.58,10.58,0,0,1,8.07-3.3c3.49,0,6.21.9,8.18,2.69a9.21,9.21,0,0,1,2.87,7.32l0,.11H608.1a6.13,6.13,0,0,0-1.34-4.27,5.33,5.33,0,0,0-4.16-1.49,4.73,4.73,0,0,0-4,2.07,8.75,8.75,0,0,0-1.49,5.26V23a8.49,8.49,0,0,0,1.57,5.3,5.07,5.07,0,0,0,4.25,2.06A5,5,0,0,0,606.81,29a6.19,6.19,0,0,0,1.27-4.24Z"/><path d="M635,21.93H623.3v8H637v4.37H617.64V6.11h19.29v4.36H623.3v7.1H635Z"/><path d="M655.68,27a3.28,3.28,0,0,0-1.16-2.62,11.58,11.58,0,0,0-4-1.86A23.08,23.08,0,0,1,642.86,19a6.53,6.53,0,0,1-2.58-5.47,6.79,6.79,0,0,1,3-5.67,12.36,12.36,0,0,1,7.55-2.2,11.39,11.39,0,0,1,7.58,2.47,7.39,7.39,0,0,1,2.83,6.1l0,.12h-5.48a4.13,4.13,0,0,0-1.31-3.17A5.2,5.2,0,0,0,650.69,10a5.45,5.45,0,0,0-3.51,1,3.22,3.22,0,0,0-1.24,2.58A2.79,2.79,0,0,0,647.27,16a18.86,18.86,0,0,0,4.59,1.95,17.72,17.72,0,0,1,7.07,3.43,7.11,7.11,0,0,1,2.41,5.6,6.73,6.73,0,0,1-2.86,5.72,12.48,12.48,0,0,1-7.55,2.09,13.82,13.82,0,0,1-8-2.37,7.39,7.39,0,0,1-3.33-6.66l0-.12h5.5a4.36,4.36,0,0,0,1.54,3.7,7,7,0,0,0,4.3,1.17,5.69,5.69,0,0,0,3.53-.95A3.06,3.06,0,0,0,655.68,27Z"/><path d="M671.44,17.35h-5.66v-5h5.66Zm0,17h-5.66v-5h5.66Z"/><path d="M687.86,34.34V6.11h8.2a11.45,11.45,0,0,1,8.55,3.45A12.13,12.13,0,0,1,708,18.42v3.63a12.1,12.1,0,0,1-3.37,8.86,11.51,11.51,0,0,1-8.55,3.43Zm2.31-26.25V32.36h5.89A9,9,0,0,0,703,29.43a10.48,10.48,0,0,0,2.71-7.4V18.35A10.38,10.38,0,0,0,702.94,11a9,9,0,0,0-6.88-2.92Z"/><path d="M721.14,34.74a8.42,8.42,0,0,1-6.54-2.91A10.59,10.59,0,0,1,712,24.47V23.4a11,11,0,0,1,2.59-7.46,8,8,0,0,1,6.27-3,7.76,7.76,0,0,1,6.07,2.45,9.29,9.29,0,0,1,2.21,6.51v2H714.32v.56a9.28,9.28,0,0,0,1.88,5.92,6,6,0,0,0,4.94,2.38,10.19,10.19,0,0,0,3.71-.6,7.49,7.49,0,0,0,2.62-1.73l1,1.59a8.32,8.32,0,0,1-3,2A11.49,11.49,0,0,1,721.14,34.74ZM720.85,15a5.55,5.55,0,0,0-4.32,2,8.43,8.43,0,0,0-2,4.92l0,.1h12.3v-.58a6.67,6.67,0,0,0-1.61-4.56A5.51,5.51,0,0,0,720.85,15Z"/><path d="M746.29,29a3.38,3.38,0,0,0-1.21-2.58,10,10,0,0,0-4.37-1.8,14.7,14.7,0,0,1-5.56-2.15,4.45,4.45,0,0,1-1.79-3.78,5.05,5.05,0,0,1,2-4.06A8.16,8.16,0,0,1,740.75,13a8.44,8.44,0,0,1,5.62,1.76,5.26,5.26,0,0,1,2,4.39l0,.11h-2.16a3.85,3.85,0,0,0-1.46-3A5.8,5.8,0,0,0,740.75,15,5.68,5.68,0,0,0,736.94,16a3.27,3.27,0,0,0-1.27,2.55,3,3,0,0,0,1.09,2.4,10.77,10.77,0,0,0,4.37,1.66,14.25,14.25,0,0,1,5.61,2.28,4.73,4.73,0,0,1,1.86,3.94,5.09,5.09,0,0,1-2.13,4.25,10.67,10.67,0,0,1-11.61-.2,5.15,5.15,0,0,1-2.06-4.34l0-.12H735a3.82,3.82,0,0,0,1.85,3.28,7.75,7.75,0,0,0,4,1,6.42,6.42,0,0,0,4-1.11A3.24,3.24,0,0,0,746.29,29Z"/><path d="M759,24.1h-2.68V34.34H754V4.09h2.32v18h2.45l7.79-8.76h2.71l0,.1-8.39,9.45,9.26,11.33,0,.1h-2.66Z"/><path d="M777.1,8v5.37h4.61v1.9H777.1V28.93a4.43,4.43,0,0,0,.74,2.91,2.49,2.49,0,0,0,2,.87c.37,0,.74,0,1.09-.05s.77-.09,1.23-.16l.35,1.72a5.82,5.82,0,0,1-1.41.39,10.44,10.44,0,0,1-1.67.13A4.35,4.35,0,0,1,776,33.35a6.59,6.59,0,0,1-1.23-4.42V15.26h-3.63v-1.9h3.63V8Z"/><path d="M785,23.54a11.24,11.24,0,0,1,2.54-7.6,9.12,9.12,0,0,1,13.47,0,11.29,11.29,0,0,1,2.54,7.6v.64A11.28,11.28,0,0,1,801,31.79a9.17,9.17,0,0,1-13.48,0A11.23,11.23,0,0,1,785,24.18Zm2.32.63a10,10,0,0,0,1.84,6.12,6.51,6.51,0,0,0,10.23,0,10,10,0,0,0,1.85-6.12v-.64a9.88,9.88,0,0,0-1.86-6.08,6.47,6.47,0,0,0-10.22,0,10,10,0,0,0-1.84,6.08Z"/><path d="M825.23,24.43a12.09,12.09,0,0,1-2.13,7.51,7,7,0,0,1-5.87,2.8,8.42,8.42,0,0,1-3.87-.83,7,7,0,0,1-2.71-2.39V42.4h-2.32v-29h1.95l.3,3.26a7.36,7.36,0,0,1,2.7-2.7,7.76,7.76,0,0,1,3.91-.95,6.84,6.84,0,0,1,5.91,3,13.64,13.64,0,0,1,2.13,8ZM822.9,24a12,12,0,0,0-1.59-6.52A5.15,5.15,0,0,0,816.66,15a6.09,6.09,0,0,0-3.81,1.12,6.87,6.87,0,0,0-2.2,2.9V29.06a6.39,6.39,0,0,0,2.3,2.72,6.67,6.67,0,0,0,3.75,1,5.26,5.26,0,0,0,4.62-2.29,10.49,10.49,0,0,0,1.58-6.08Z"/><path d="M832.64,34l-2.06,5.35H829l1.34-5.41V30.69h2.31Z"/><path d="M851.38,6.11,861.76,31h.11L872.28,6.11h3.07V34.34H873V21.87l.19-12.35-.11,0L862.63,34.34H861L850.55,9.6l-.12,0,.22,12.25V34.34h-2.31V6.11Z"/><path d="M880.81,23.54a11.29,11.29,0,0,1,2.54-7.6,9.13,9.13,0,0,1,13.48,0,11.29,11.29,0,0,1,2.54,7.6v.64a11.33,11.33,0,0,1-2.53,7.61,9.19,9.19,0,0,1-13.49,0,11.28,11.28,0,0,1-2.54-7.61Zm2.33.63A10,10,0,0,0,885,30.29a6.51,6.51,0,0,0,10.23,0,10,10,0,0,0,1.85-6.12v-.64a9.88,9.88,0,0,0-1.86-6.08,6.47,6.47,0,0,0-10.22,0,9.93,9.93,0,0,0-1.84,6.08Z"/><path d="M921.12,24.43A12,12,0,0,1,919,31.94a7,7,0,0,1-5.87,2.8,8,8,0,0,1-4-.92,7,7,0,0,1-2.7-2.64l-.25,3.16h-2V4.09h2.33V16.66a7.6,7.6,0,0,1,2.67-2.73,7.52,7.52,0,0,1,3.88-1A6.84,6.84,0,0,1,919,16a13.57,13.57,0,0,1,2.14,8ZM918.77,24a12.4,12.4,0,0,0-1.55-6.55A5.05,5.05,0,0,0,912.63,15a6,6,0,0,0-3.91,1.21,7.16,7.16,0,0,0-2.2,3.09v9.52a6.6,6.6,0,0,0,2.32,2.92,6.48,6.48,0,0,0,3.82,1.08,5.18,5.18,0,0,0,4.58-2.26,10.69,10.69,0,0,0,1.53-6.08Z"/><path d="M928.91,7.35H926.6V4.09h2.31Zm0,27H926.6v-21h2.31Z"/><path d="M937.93,34.34h-2.31V4.09h2.31Z"/><path d="M952.21,34.74a8.42,8.42,0,0,1-6.54-2.91,10.59,10.59,0,0,1-2.61-7.36V23.4a11,11,0,0,1,2.59-7.46,8,8,0,0,1,6.27-3A7.77,7.77,0,0,1,958,15.42a9.34,9.34,0,0,1,2.21,6.51v2H945.39v.56a9.28,9.28,0,0,0,1.88,5.92,6,6,0,0,0,4.94,2.38,10.23,10.23,0,0,0,3.71-.6,7.36,7.36,0,0,0,2.61-1.73l1,1.59a8.5,8.5,0,0,1-3,2A11.49,11.49,0,0,1,952.21,34.74ZM951.92,15a5.53,5.53,0,0,0-4.32,2,8.5,8.5,0,0,0-2,4.92l0,.1h12.29v-.58a6.62,6.62,0,0,0-1.61-4.56A5.47,5.47,0,0,0,951.92,15Z"/><path d="M967,34l-2.06,5.35h-1.59l1.34-5.41V30.69H967Z"/><path d="M985.52,34.34h-2.33V6.11h2.33Z"/><path d="M994.84,13.36l.22,3.66a7.45,7.45,0,0,1,2.72-3,7.65,7.65,0,0,1,4.06-1.06,6.47,6.47,0,0,1,5.2,2.09c1.19,1.39,1.78,3.55,1.78,6.5V34.34h-2.32V21.55c0-2.4-.45-4.11-1.35-5.1a4.89,4.89,0,0,0-3.83-1.5,6,6,0,0,0-4,1.29,7.18,7.18,0,0,0-2.22,3.43V34.34h-2.33v-21Z"/><path d="M1022.06,23.31h-9.28v-2h9.28Z"/><path d="M1043,27.41a4.71,4.71,0,0,0-1.73-3.77,16,16,0,0,0-6-2.58,19,19,0,0,1-7-3,6,6,0,0,1-2.39-5,6.32,6.32,0,0,1,2.67-5.27,10.94,10.94,0,0,1,6.85-2,10.08,10.08,0,0,1,7,2.43,7.44,7.44,0,0,1,2.6,5.91l-.06.12h-2.14a6,6,0,0,0-2-4.66,7.81,7.81,0,0,0-5.44-1.82,8.31,8.31,0,0,0-5.3,1.51,4.6,4.6,0,0,0-1.91,3.76,4.42,4.42,0,0,0,1.76,3.56,16.5,16.5,0,0,0,6.09,2.51,17.63,17.63,0,0,1,6.93,3.14,6.48,6.48,0,0,1,2.38,5.22,6.3,6.3,0,0,1-2.77,5.37,11.72,11.72,0,0,1-7,2,12.85,12.85,0,0,1-7.38-2.12,6.77,6.77,0,0,1-3-6.19l0-.12h2.14a5.39,5.39,0,0,0,2.46,4.87,10.44,10.44,0,0,0,5.8,1.59A9.11,9.11,0,0,0,1041,31.3,4.56,4.56,0,0,0,1043,27.41Z"/><path d="M1053.76,8v5.37h4.61v1.9h-4.61V28.93a4.42,4.42,0,0,0,.75,2.91,2.47,2.47,0,0,0,2,.87c.38,0,.74,0,1.1-.05s.76-.09,1.23-.16l.35,1.72a5.91,5.91,0,0,1-1.42.39,10.32,10.32,0,0,1-1.66.13,4.37,4.37,0,0,1-3.45-1.39,6.59,6.59,0,0,1-1.23-4.42V15.26h-3.62v-1.9h3.62V8Z"/><path d="M1061.61,23.54a11.29,11.29,0,0,1,2.54-7.6,9.12,9.12,0,0,1,13.47,0,11.24,11.24,0,0,1,2.54,7.6v.64a11.28,11.28,0,0,1-2.53,7.61,8.38,8.38,0,0,1-6.71,3,8.47,8.47,0,0,1-6.77-3,11.28,11.28,0,0,1-2.54-7.61Zm2.33.63a10,10,0,0,0,1.84,6.12,6.51,6.51,0,0,0,10.23,0,10,10,0,0,0,1.85-6.12v-.64a9.88,9.88,0,0,0-1.86-6.08,6.47,6.47,0,0,0-10.22,0,9.93,9.93,0,0,0-1.84,6.08Z"/><path d="M1094.67,15.36l-1.73-.12a5.28,5.28,0,0,0-3.6,1.23,6.83,6.83,0,0,0-2,3.38V34.34H1085v-21h2l.29,3.49v.23a7.46,7.46,0,0,1,2.44-3,6.37,6.37,0,0,1,4.51-1,4.53,4.53,0,0,1,.69.15Z"/><path d="M1106,34.74a8.42,8.42,0,0,1-6.55-2.91,10.58,10.58,0,0,1-2.6-7.36V23.4a11,11,0,0,1,2.58-7.46,8,8,0,0,1,6.28-3,7.75,7.75,0,0,1,6.06,2.45,9.29,9.29,0,0,1,2.21,6.51v2H1099.2v.56a9.28,9.28,0,0,0,1.88,5.92,6,6,0,0,0,5,2.38,10.17,10.17,0,0,0,3.7-.6,7.49,7.49,0,0,0,2.62-1.73l1,1.59a8.45,8.45,0,0,1-3,2A11.47,11.47,0,0,1,1106,34.74ZM1105.74,15a5.57,5.57,0,0,0-4.33,2,8.43,8.43,0,0,0-2,4.92l0,.1h12.29v-.58a6.67,6.67,0,0,0-1.61-4.56A5.5,5.5,0,0,0,1105.74,15Z"/><circle class="cls-1" cx="114.61" cy="198.17" r="114.61"/><path class="cls-2" d="M114.61,187V83.56A114.61,114.61,0,0,0,0,197h104.6A10,10,0,0,0,114.61,187Z"/><circle class="cls-1" cx="493.73" cy="198.17" r="114.61"/><path class="cls-3" d="M493.73,187V83.56A114.61,114.61,0,0,0,379.13,197h104.6A10,10,0,0,0,493.73,187Z"/><circle class="cls-1" cx="870.31" cy="198.17" r="114.61"/><path class="cls-4" d="M870.31,187V83.56A114.61,114.61,0,0,0,755.71,197h104.6A10,10,0,0,0,870.31,187Z"/><circle class="cls-1" cx="1251.67" cy="198.17" r="114.61"/><path class="cls-5" d="M1251.67,187V83.56A114.61,114.61,0,0,0,1137.07,197h104.6A10,10,0,0,0,1251.67,187Z"/><circle class="cls-1" cx="1060.5" cy="293.9" r="114.61"/><path class="cls-6" d="M1060.5,282.77V179.29A114.6,114.6,0,0,0,945.91,292.77H1050.5A10,10,0,0,0,1060.5,282.77Z"/><circle class="cls-1" cx="304.8" cy="293.9" r="114.61"/><path class="cls-7" d="M304.8,282.77V179.29A114.6,114.6,0,0,0,190.21,292.77H294.8A10,10,0,0,0,304.8,282.77Z"/><circle class="cls-1" cx="683.92" cy="293.9" r="114.61"/><path class="cls-8" d="M683.92,282.77V179.29a114.61,114.61,0,0,0-114.6,113.48h104.6A10,10,0,0,0,683.92,282.77Z"/><path class="cls-9" d="M95.38,149.21a6.41,6.41,0,0,1,6.41-6.41,6.35,6.35,0,0,1,2.65.59v-12H92.89a6.34,6.34,0,0,0,.42-2.22,6.41,6.41,0,0,0-12.82,0,6.34,6.34,0,0,0,.42,2.22H69.34v12a6.32,6.32,0,0,1,2.78-.66,6.41,6.41,0,0,1,0,12.82,6.32,6.32,0,0,1-2.78-.66v11.41h35.1V155a6.35,6.35,0,0,1-2.65.59A6.41,6.41,0,0,1,95.38,149.21Z"/><path class="cls-9" d="M72.12,142.8a6.32,6.32,0,0,0-2.78.66v-12H34.44v35H46.1a6.41,6.41,0,1,0,11.67,0H69.34V155a6.32,6.32,0,0,0,2.78.66,6.41,6.41,0,0,0,0-12.82Z"/><path class="cls-10" d="M50.46,229.42H48.78V217.33h1.68Z"/><path class="cls-10" d="M54.27,220.44l.1,1.33a3.15,3.15,0,0,1,1-1.1,2.27,2.27,0,0,1,1.33-.4,2.21,2.21,0,0,1,1.86.88,4.58,4.58,0,0,1,.67,2.74v5.53H57.5V223.9a3.37,3.37,0,0,0-.35-1.79,1.21,1.21,0,0,0-1.07-.53,1.64,1.64,0,0,0-1,.3,2.25,2.25,0,0,0-.67.84v6.7H52.73v-9Z"/><path class="cls-10" d="M63.28,218.2v2.24h1.4v1.2h-1.4V227a1.78,1.78,0,0,0,.21,1,.67.67,0,0,0,.56.29l.27,0,.29-.08.17,1.16a2.76,2.76,0,0,1-.53.19,2.48,2.48,0,0,1-.61.07,1.9,1.9,0,0,1-1.51-.62,3,3,0,0,1-.54-2v-5.35H60.4v-1.2h1.19V218.2Z"/><path class="cls-10" d="M69.45,229.59a3.13,3.13,0,0,1-2.62-1.23,5,5,0,0,1-1-3.19v-.39a5.25,5.25,0,0,1,.94-3.24,2.94,2.94,0,0,1,2.48-1.27,2.7,2.7,0,0,1,2.33,1.09,4.77,4.77,0,0,1,.81,2.92v.95H67.56a4.44,4.44,0,0,0,.5,2.23,1.62,1.62,0,0,0,1.51.85,3.11,3.11,0,0,0,1.23-.22,3,3,0,0,0,1-.64l.55,1.05a3.57,3.57,0,0,1-1.18.78A4.23,4.23,0,0,1,69.45,229.59Zm-.15-8a1.33,1.33,0,0,0-1.17.67A4.12,4.12,0,0,0,67.6,224h3.18v-.19a3.29,3.29,0,0,0-.37-1.64A1.19,1.19,0,0,0,69.3,221.57Z"/><path class="cls-10" d="M73.67,225a6.63,6.63,0,0,1,.79-3.47,2.49,2.49,0,0,1,2.22-1.3,2.24,2.24,0,0,1,1.24.34,2.79,2.79,0,0,1,.9,1l.16-1.13h1.41v9a3.61,3.61,0,0,1-.93,2.67,3.43,3.43,0,0,1-2.59.94,4.66,4.66,0,0,1-1.23-.17,5.11,5.11,0,0,1-1.17-.47l.27-1.26a4.77,4.77,0,0,0,1,.4,4.14,4.14,0,0,0,1.12.14,1.67,1.67,0,0,0,1.4-.56,2.73,2.73,0,0,0,.44-1.69v-.89a2.48,2.48,0,0,1-.86.79,2.54,2.54,0,0,1-1.16.26,2.5,2.5,0,0,1-2.21-1.2,5.67,5.67,0,0,1-.79-3.18Zm1.7.17a5,5,0,0,0,.41,2.25,1.39,1.39,0,0,0,1.32.83,1.59,1.59,0,0,0,1-.29,2.12,2.12,0,0,0,.63-.82v-4.42a2.27,2.27,0,0,0-.63-.86,1.47,1.47,0,0,0-1-.32,1.39,1.39,0,0,0-1.32,1,6.29,6.29,0,0,0-.42,2.5Z"/><path class="cls-10" d="M86.17,221.84l-.73,0a1.23,1.23,0,0,0-.88.32,2,2,0,0,0-.55.9v6.4H82.32v-9h1.55l.12,1.32a2.83,2.83,0,0,1,.76-1.09,1.58,1.58,0,0,1,1.07-.4,1.39,1.39,0,0,1,.3,0l.24.07Z"/><path class="cls-10" d="M92.22,229.42a7.36,7.36,0,0,1-.17-.73,3.4,3.4,0,0,1-.08-.63,3.46,3.46,0,0,1-.94,1.1,2.21,2.21,0,0,1-1.34.43,2.35,2.35,0,0,1-1.84-.71,2.82,2.82,0,0,1-.65-1.95,2.44,2.44,0,0,1,.89-2,3.83,3.83,0,0,1,2.49-.73H92v-.92a2,2,0,0,0-.37-1.29,1.26,1.26,0,0,0-1-.46,1.28,1.28,0,0,0-1,.4,1.48,1.48,0,0,0-.36,1H87.6l0-.05a2.27,2.27,0,0,1,.82-1.84,3.2,3.2,0,0,1,2.26-.8,3,3,0,0,1,2.16.78,2.92,2.92,0,0,1,.83,2.24v4.17a6.54,6.54,0,0,0,.07,1,5.5,5.5,0,0,0,.21,1ZM90,228.3a1.86,1.86,0,0,0,1.22-.43,2,2,0,0,0,.7-1v-1.6h-1.4a1.55,1.55,0,0,0-1.22.5,1.69,1.69,0,0,0-.44,1.19,1.54,1.54,0,0,0,.3,1A1,1,0,0,0,90,228.3Z"/><path class="cls-10" d="M97.74,218.2v2.24h1.41v1.2H97.74V227a1.69,1.69,0,0,0,.22,1,.66.66,0,0,0,.56.29l.26,0,.29-.08.18,1.16a2.63,2.63,0,0,1-.54.19,2.48,2.48,0,0,1-.61.07,1.9,1.9,0,0,1-1.51-.62,3,3,0,0,1-.54-2v-5.35H94.86v-1.2h1.19V218.2Z"/><path class="cls-10" d="M103.92,229.59a3.15,3.15,0,0,1-2.63-1.23,5.09,5.09,0,0,1-1-3.19v-.39a5.26,5.26,0,0,1,1-3.24,2.93,2.93,0,0,1,2.47-1.27,2.72,2.72,0,0,1,2.34,1.09,4.84,4.84,0,0,1,.8,2.92v.95H102a4.44,4.44,0,0,0,.49,2.23,1.64,1.64,0,0,0,1.52.85,3,3,0,0,0,1.22-.22,3.14,3.14,0,0,0,1-.64l.55,1.05a3.62,3.62,0,0,1-1.19.78A4.21,4.21,0,0,1,103.92,229.59Zm-.16-8a1.32,1.32,0,0,0-1.16.67,4,4,0,0,0-.54,1.79h3.18v-.19a3.29,3.29,0,0,0-.36-1.64A1.2,1.2,0,0,0,103.76,221.57Z"/><path class="cls-10" d="M108.1,225a6.73,6.73,0,0,1,.79-3.47,2.49,2.49,0,0,1,2.22-1.3,2.27,2.27,0,0,1,1.14.29,2.51,2.51,0,0,1,.87.82v-4.91h1.69v12.95h-1.39l-.18-1.08a2.62,2.62,0,0,1-.91.93,2.32,2.32,0,0,1-1.24.32,2.48,2.48,0,0,1-2.2-1.2,5.67,5.67,0,0,1-.79-3.18Zm1.68.17a5.07,5.07,0,0,0,.42,2.25,1.41,1.41,0,0,0,1.32.83,1.53,1.53,0,0,0,1-.3,2.1,2.1,0,0,0,.64-.85v-4.35a2.36,2.36,0,0,0-.64-.88,1.45,1.45,0,0,0-1-.33,1.39,1.39,0,0,0-1.32,1,6.1,6.1,0,0,0-.43,2.5Z"/><path class="cls-10" d="M122.39,224.65v4.77H120.7V217.33h3.93a3.57,3.57,0,0,1,2.69,1,4.09,4.09,0,0,1,0,5.31,3.56,3.56,0,0,1-2.69,1Zm0-1.29h2.24a1.75,1.75,0,0,0,1.49-.67,3.11,3.11,0,0,0,0-3.38,1.71,1.71,0,0,0-1.49-.68h-2.24Z"/><path class="cls-10" d="M131.7,229.42H130V216.47h1.69Z"/><path class="cls-10" d="M138.43,229.42a7.36,7.36,0,0,1-.17-.73,3.4,3.4,0,0,1-.08-.63,3.46,3.46,0,0,1-.94,1.1,2.21,2.21,0,0,1-1.34.43,2.35,2.35,0,0,1-1.84-.71,2.82,2.82,0,0,1-.65-1.95,2.44,2.44,0,0,1,.89-2,3.83,3.83,0,0,1,2.49-.73h1.38v-.92a2,2,0,0,0-.37-1.29,1.26,1.26,0,0,0-1-.46,1.28,1.28,0,0,0-1,.4,1.48,1.48,0,0,0-.36,1h-1.61l0-.05a2.27,2.27,0,0,1,.82-1.84,3.2,3.2,0,0,1,2.26-.8,3,3,0,0,1,2.16.78,2.92,2.92,0,0,1,.83,2.24v4.17a6.54,6.54,0,0,0,.07,1,5.5,5.5,0,0,0,.21,1Zm-2.18-1.12a1.86,1.86,0,0,0,1.22-.43,2,2,0,0,0,.7-1v-1.6h-1.4a1.55,1.55,0,0,0-1.22.5,1.69,1.69,0,0,0-.44,1.19,1.54,1.54,0,0,0,.3,1A1,1,0,0,0,136.25,228.3Z"/><path class="cls-10" d="M143.31,220.44l.1,1.33a3.07,3.07,0,0,1,1-1.1,2.22,2.22,0,0,1,1.32-.4,2.19,2.19,0,0,1,1.86.88,4.51,4.51,0,0,1,.67,2.74v5.53h-1.69V223.9a3.28,3.28,0,0,0-.35-1.79,1.2,1.2,0,0,0-1.07-.53,1.66,1.66,0,0,0-1,.3,2.25,2.25,0,0,0-.67.84v6.7h-1.69v-9Z"/><path class="cls-10" d="M151.68,220.44l.1,1.33a3.15,3.15,0,0,1,1-1.1,2.26,2.26,0,0,1,1.32-.4,2.21,2.21,0,0,1,1.87.88,4.58,4.58,0,0,1,.67,2.74v5.53h-1.69V223.9a3.37,3.37,0,0,0-.35-1.79,1.21,1.21,0,0,0-1.07-.53,1.62,1.62,0,0,0-1,.3,2.25,2.25,0,0,0-.67.84v6.7h-1.69v-9Z"/><path class="cls-10" d="M160.32,218.08h-1.69v-1.61h1.69Zm0,11.34h-1.69v-9h1.69Z"/><path class="cls-10" d="M163.91,220.44l.1,1.33a3,3,0,0,1,1-1.1,2.26,2.26,0,0,1,1.32-.4,2.21,2.21,0,0,1,1.87.88,4.59,4.59,0,0,1,.66,2.74v5.53h-1.68V223.9a3.37,3.37,0,0,0-.35-1.79,1.21,1.21,0,0,0-1.07-.53,1.67,1.67,0,0,0-1,.3,2.33,2.33,0,0,0-.66.84v6.7h-1.69v-9Z"/><path class="cls-10" d="M170.47,225a6.63,6.63,0,0,1,.79-3.47,2.47,2.47,0,0,1,2.22-1.3,2.19,2.19,0,0,1,1.23.34,2.61,2.61,0,0,1,.9,1l.16-1.13h1.41v9a3.61,3.61,0,0,1-.92,2.67,3.45,3.45,0,0,1-2.6.94,4.53,4.53,0,0,1-1.22-.17,5,5,0,0,1-1.18-.47l.28-1.26a4.36,4.36,0,0,0,1,.4,4.14,4.14,0,0,0,1.12.14,1.65,1.65,0,0,0,1.39-.56,2.66,2.66,0,0,0,.45-1.69v-.89a2.42,2.42,0,0,1-.87.79,2.65,2.65,0,0,1-3.36-.94,5.67,5.67,0,0,1-.79-3.18Zm1.69.17a5,5,0,0,0,.42,2.25,1.37,1.37,0,0,0,1.32.83,1.58,1.58,0,0,0,.95-.29,2,2,0,0,0,.64-.82v-4.42a2.18,2.18,0,0,0-.64-.86,1.47,1.47,0,0,0-.95-.32,1.41,1.41,0,0,0-1.32,1,6.29,6.29,0,0,0-.42,2.5Z"/><path class="cls-10" d="M181,222.15h-1.7v-1.69H181Zm0,7.27h-1.7v-1.69H181Z"/><path class="cls-10" d="M55.55,246.45H50l-1.24,3.37h-1l4.59-12.09h.94l4.56,12.09h-1Zm-5.2-.89h4.88L52.82,239h0Z"/><path class="cls-10" d="M60.52,249.82h-1V236.87h1Z"/><path class="cls-10" d="M65.2,246.9l.34,1.61h0L66,246.9l1.91-6.06h.85l1.91,6.06.44,1.65h0l.38-1.65,1.63-6.06h1l-2.61,9h-.85l-2-6.14-.39-1.56h0l-.4,1.56-2,6.14H65.1l-2.61-9h1Z"/><path class="cls-10" d="M81.82,249.82c-.07-.31-.12-.57-.15-.79s0-.45,0-.67a3.89,3.89,0,0,1-1.33,1.17,3.72,3.72,0,0,1-1.86.46,2.79,2.79,0,0,1-2-.7,2.43,2.43,0,0,1-.73-1.86,2.3,2.3,0,0,1,1.08-2,5,5,0,0,1,2.9-.75h2v-1.11a1.87,1.87,0,0,0-.62-1.51,2.5,2.5,0,0,0-1.73-.55,2.75,2.75,0,0,0-1.72.52,1.56,1.56,0,0,0-.68,1.28H76v-.05a2.14,2.14,0,0,1,.91-1.8,3.83,3.83,0,0,1,2.47-.79,3.59,3.59,0,0,1,2.39.76,2.65,2.65,0,0,1,.9,2.16V248c0,.31,0,.62,0,.92a6.68,6.68,0,0,0,.18.89Zm-3.27-.71a3.52,3.52,0,0,0,1.9-.5,3,3,0,0,0,1.18-1.28v-1.88h-2a3.61,3.61,0,0,0-2.16.58,1.7,1.7,0,0,0-.81,1.43,1.55,1.55,0,0,0,.5,1.19A2,2,0,0,0,78.55,249.11Z"/><path class="cls-10" d="M87.69,247.39l.32,1.07h0l2.71-7.62h1.11L88,251.25a5.15,5.15,0,0,1-.9,1.56,2.07,2.07,0,0,1-1.63.64,3.66,3.66,0,0,1-.42,0,2.44,2.44,0,0,1-.37-.08l.12-.83.32,0,.32,0a1.29,1.29,0,0,0,1-.46,4,4,0,0,0,.67-1.19l.47-1.21-3.47-8.86h1.11Z"/><path class="cls-10" d="M98.84,247.53a1.42,1.42,0,0,0-.52-1.1,4.26,4.26,0,0,0-1.87-.77,6.3,6.3,0,0,1-2.38-.92,1.9,1.9,0,0,1-.77-1.62,2.16,2.16,0,0,1,.87-1.74,3.53,3.53,0,0,1,2.3-.71,3.59,3.59,0,0,1,2.4.75,2.25,2.25,0,0,1,.85,1.88l0,0h-.92a1.66,1.66,0,0,0-.62-1.28,3,3,0,0,0-3.33-.09,1.41,1.41,0,0,0-.54,1.1,1.3,1.3,0,0,0,.47,1,4.53,4.53,0,0,0,1.87.71,6.17,6.17,0,0,1,2.4,1,2,2,0,0,1,.8,1.69,2.21,2.21,0,0,1-.91,1.82,4.57,4.57,0,0,1-5-.09,2.2,2.2,0,0,1-.89-1.86l0,0H94a1.62,1.62,0,0,0,.8,1.41,3.29,3.29,0,0,0,1.73.44,2.73,2.73,0,0,0,1.7-.48A1.39,1.39,0,0,0,98.84,247.53Z"/><path class="cls-10" d="M105.19,245.1h-4v-.85h4Z"/><path class="cls-10" d="M106.43,245.2a4.86,4.86,0,0,1,1.08-3.26,3.91,3.91,0,0,1,5.77,0,4.81,4.81,0,0,1,1.09,3.26v.27a4.86,4.86,0,0,1-1.08,3.26,3.6,3.6,0,0,1-2.88,1.26,3.64,3.64,0,0,1-2.9-1.26,4.86,4.86,0,0,1-1.08-3.26Zm1,.26a4.29,4.29,0,0,0,.79,2.62,2.78,2.78,0,0,0,4.38,0,4.23,4.23,0,0,0,.79-2.62v-.27a4.23,4.23,0,0,0-.79-2.6,2.59,2.59,0,0,0-2.2-1.07,2.54,2.54,0,0,0-2.18,1.07,4.29,4.29,0,0,0-.79,2.6Z"/><path class="cls-10" d="M117.33,240.84l.09,1.57a3.1,3.1,0,0,1,1.16-1.29,3.27,3.27,0,0,1,1.74-.45,2.79,2.79,0,0,1,2.23.89,4.25,4.25,0,0,1,.76,2.79v5.47h-1v-5.47a3.27,3.27,0,0,0-.57-2.19,2.09,2.09,0,0,0-1.64-.64,2.56,2.56,0,0,0-1.71.55,3.14,3.14,0,0,0-1,1.47v6.28h-1v-9Z"/><path class="cls-10" d="M134,243.68h3.68v.93H134v4h-1v-4h-3.6v-.93H133v-3.87h1Z"/><path class="cls-10" d="M57.39,266.44v.05a4.17,4.17,0,0,1-1.29,2.86,4.37,4.37,0,0,1-3,1,4.05,4.05,0,0,1-3.25-1.45,5.63,5.63,0,0,1-1.24-3.78v-2a5.64,5.64,0,0,1,1.24-3.78A4.06,4.06,0,0,1,53.06,258a4.42,4.42,0,0,1,3.06,1,4.17,4.17,0,0,1,1.28,2.87v0h-.93a3.77,3.77,0,0,0-1-2.3,3.27,3.27,0,0,0-2.36-.8A3.05,3.05,0,0,0,50.52,260a5,5,0,0,0-1,3.15v2a5,5,0,0,0,1,3.16,3.05,3.05,0,0,0,2.54,1.23,3.35,3.35,0,0,0,2.37-.78,3.7,3.7,0,0,0,1-2.33Z"/><path class="cls-10" d="M65.37,270.22c-.07-.31-.11-.57-.14-.79a5,5,0,0,1,0-.67,4,4,0,0,1-1.33,1.17,3.76,3.76,0,0,1-1.87.46,2.82,2.82,0,0,1-2-.7,2.46,2.46,0,0,1-.72-1.86,2.34,2.34,0,0,1,1.07-2,5.08,5.08,0,0,1,2.9-.74h2V264a1.94,1.94,0,0,0-.62-1.52,2.54,2.54,0,0,0-1.73-.54,2.73,2.73,0,0,0-1.72.52,1.55,1.55,0,0,0-.69,1.28h-.91l0,0a2.15,2.15,0,0,1,.92-1.8,3.73,3.73,0,0,1,2.46-.79,3.57,3.57,0,0,1,2.39.76,2.66,2.66,0,0,1,.91,2.16v4.42a6.3,6.3,0,0,0,.23,1.81Zm-3.26-.71A3.6,3.6,0,0,0,64,269a3,3,0,0,0,1.19-1.28v-1.88h-2a3.59,3.59,0,0,0-2.16.58,1.7,1.7,0,0,0-.81,1.43,1.52,1.52,0,0,0,.5,1.19A2,2,0,0,0,62.11,269.51Z"/><path class="cls-10" d="M69.66,261.24l.09,1.48a3.22,3.22,0,0,1,1.15-1.22,3.25,3.25,0,0,1,1.72-.43,2.89,2.89,0,0,1,1.72.5,2.75,2.75,0,0,1,1,1.52,3.4,3.4,0,0,1,1.16-1.48,3,3,0,0,1,1.83-.54,2.72,2.72,0,0,1,2.22.95,4.65,4.65,0,0,1,.78,3v5.24h-1V265a3.66,3.66,0,0,0-.58-2.35,2.06,2.06,0,0,0-1.64-.68,2.23,2.23,0,0,0-1.78.72,3.43,3.43,0,0,0-.78,1.86v.16a1.1,1.1,0,0,1,0,.16v5.4h-1V265a3.6,3.6,0,0,0-.59-2.33,2,2,0,0,0-1.63-.7,2.5,2.5,0,0,0-1.67.53,2.77,2.77,0,0,0-.87,1.45v6.32h-1v-9Z"/><path class="cls-10" d="M91.12,266a5.16,5.16,0,0,1-.91,3.21,3,3,0,0,1-2.52,1.2A3.71,3.71,0,0,1,86,270a3,3,0,0,1-1.16-1v4.66h-1V261.24h.84l.12,1.39A3.19,3.19,0,0,1,86,261.48a3.33,3.33,0,0,1,1.67-.41,3,3,0,0,1,2.54,1.29,5.84,5.84,0,0,1,.91,3.44Zm-1-.19a5.1,5.1,0,0,0-.68-2.79,2.2,2.2,0,0,0-2-1.08,2.67,2.67,0,0,0-1.63.47,2.94,2.94,0,0,0-.94,1.25V268a2.65,2.65,0,0,0,1,1.16,2.9,2.9,0,0,0,1.61.43,2.24,2.24,0,0,0,2-1,4.5,4.5,0,0,0,.67-2.6Z"/><path class="cls-10" d="M99,270.22a6.35,6.35,0,0,1-.14-.79,5,5,0,0,1,0-.67,4.09,4.09,0,0,1-1.33,1.17,3.78,3.78,0,0,1-1.87.46,2.82,2.82,0,0,1-2-.7,2.46,2.46,0,0,1-.72-1.86,2.32,2.32,0,0,1,1.07-2,5.06,5.06,0,0,1,2.9-.74h2V264a1.94,1.94,0,0,0-.62-1.52,2.54,2.54,0,0,0-1.73-.54,2.78,2.78,0,0,0-1.73.52,1.57,1.57,0,0,0-.68,1.28h-.91l0,0a2.15,2.15,0,0,1,.92-1.8,3.73,3.73,0,0,1,2.46-.79,3.57,3.57,0,0,1,2.39.76,2.65,2.65,0,0,1,.9,2.16v4.42a7,7,0,0,0,.06.92,4.68,4.68,0,0,0,.18.89Zm-3.26-.71a3.6,3.6,0,0,0,1.89-.5,3,3,0,0,0,1.19-1.28v-1.88h-2a3.62,3.62,0,0,0-2.17.58,1.7,1.7,0,0,0-.81,1.43,1.53,1.53,0,0,0,.51,1.19A1.94,1.94,0,0,0,95.78,269.51Z"/><path class="cls-10" d="M103.6,258.66h-1v-1.39h1Zm0,11.56h-1v-9h1Z"/><path class="cls-10" d="M106,265.8a5.84,5.84,0,0,1,.92-3.44,3,3,0,0,1,2.55-1.29,3.11,3.11,0,0,1,1.65.42,3.36,3.36,0,0,1,1.16,1.18l.11-1.43h.84v8.86a3.8,3.8,0,0,1-1,2.74,3.51,3.51,0,0,1-2.67,1,6.75,6.75,0,0,1-1.37-.15,5.64,5.64,0,0,1-1.28-.43l.26-.84a5.13,5.13,0,0,0,1.12.4,5.59,5.59,0,0,0,1.26.14,2.5,2.5,0,0,0,2-.76,3.08,3.08,0,0,0,.67-2.1V269a3.07,3.07,0,0,1-1.16,1,3.34,3.34,0,0,1-1.62.37,3,3,0,0,1-2.54-1.2A5.16,5.16,0,0,1,106,266Zm1,.18a4.52,4.52,0,0,0,.66,2.59,2.25,2.25,0,0,0,2,1,2.7,2.7,0,0,0,1.6-.45,3,3,0,0,0,1-1.22v-4.17a3.2,3.2,0,0,0-1-1.29,2.52,2.52,0,0,0-1.63-.5,2.2,2.2,0,0,0-2,1.08,5.23,5.23,0,0,0-.67,2.8Z"/><path class="cls-10" d="M116.7,261.24l.09,1.57a3.19,3.19,0,0,1,1.17-1.29,3.27,3.27,0,0,1,1.74-.45,2.78,2.78,0,0,1,2.22.89,4.24,4.24,0,0,1,.77,2.79v5.47h-1v-5.47a3.27,3.27,0,0,0-.57-2.19,2.1,2.1,0,0,0-1.64-.64,2.56,2.56,0,0,0-1.71.55,3.06,3.06,0,0,0-1,1.47v6.28h-1v-9Z"/><path class="cls-10" d="M130.66,267.93a1.45,1.45,0,0,0-.51-1.1,4.19,4.19,0,0,0-1.88-.77,6.24,6.24,0,0,1-2.37-.92,1.88,1.88,0,0,1-.77-1.62,2.16,2.16,0,0,1,.87-1.74,3.5,3.5,0,0,1,2.29-.71,3.62,3.62,0,0,1,2.41.75,2.24,2.24,0,0,1,.84,1.88v.05h-.92a1.68,1.68,0,0,0-.63-1.29,2.5,2.5,0,0,0-1.69-.54,2.46,2.46,0,0,0-1.63.46,1.41,1.41,0,0,0-.54,1.1,1.29,1.29,0,0,0,.46,1,4.59,4.59,0,0,0,1.88.71,6.24,6.24,0,0,1,2.4,1,2,2,0,0,1,.79,1.69,2.18,2.18,0,0,1-.91,1.82,3.84,3.84,0,0,1-2.4.69,3.89,3.89,0,0,1-2.57-.78,2.19,2.19,0,0,1-.88-1.86v-.05h.92a1.64,1.64,0,0,0,.79,1.41,3.34,3.34,0,0,0,1.73.44,2.71,2.71,0,0,0,1.7-.48A1.37,1.37,0,0,0,130.66,267.93Z"/><path class="cls-10" d="M433.23,226.38a2,2,0,0,0-.48-1.37,4.13,4.13,0,0,0-1.67-1,6.94,6.94,0,0,1-2.61-1.37,2.87,2.87,0,0,1-.91-2.23,3,3,0,0,1,1-2.36,3.69,3.69,0,0,1,2.58-.92,3.59,3.59,0,0,1,2.69,1,3.39,3.39,0,0,1,1,2.58l0,0h-1.62a2.53,2.53,0,0,0-.56-1.72,1.87,1.87,0,0,0-1.49-.66,1.75,1.75,0,0,0-1.39.57,2.05,2.05,0,0,0-.49,1.41,1.73,1.73,0,0,0,.52,1.3,4.92,4.92,0,0,0,1.76,1,6.16,6.16,0,0,1,2.52,1.42,3.08,3.08,0,0,1,.86,2.25,3,3,0,0,1-1,2.36,3.93,3.93,0,0,1-2.66.87,4.31,4.31,0,0,1-2.78-.94,3.19,3.19,0,0,1-1.13-2.72v-.05H429a2.42,2.42,0,0,0,.65,1.84,2.3,2.3,0,0,0,1.62.6,2,2,0,0,0,1.47-.53A1.91,1.91,0,0,0,433.23,226.38Z"/><path class="cls-10" d="M442.58,223.81h-4.1v4.33h4.83v1.28H436.8V217.33h6.47v1.3h-4.79v3.89h4.1Z"/><path class="cls-10" d="M453.14,225a4.62,4.62,0,0,1-1.16,3.35,4.16,4.16,0,0,1-3.12,1.2,4,4,0,0,1-3.06-1.2,4.66,4.66,0,0,1-1.14-3.35v-3.32a4.69,4.69,0,0,1,1.14-3.35,4,4,0,0,1,3.06-1.21,4.09,4.09,0,0,1,3.11,1.21,4.6,4.6,0,0,1,1.17,3.35Zm-1.68-3.34a3.71,3.71,0,0,0-.67-2.4,2.39,2.39,0,0,0-1.93-.81,2.27,2.27,0,0,0-1.87.81,3.83,3.83,0,0,0-.65,2.4V225a3.79,3.79,0,0,0,.66,2.42,2.23,2.23,0,0,0,1.86.82,2.34,2.34,0,0,0,1.93-.82,3.72,3.72,0,0,0,.67-2.42Z"/><path class="cls-10" d="M456,222.15h-1.7v-1.69H456Zm0,7.27h-1.7v-1.69H456Z"/><path class="cls-10" d="M437.2,244.85a5.18,5.18,0,0,1-1.37,3.68,4.67,4.67,0,0,1-3.57,1.46,4.4,4.4,0,0,1-3.44-1.46,5.27,5.27,0,0,1-1.32-3.68v-2.14a5.29,5.29,0,0,1,1.32-3.68,4.41,4.41,0,0,1,3.44-1.47,4.7,4.7,0,0,1,3.57,1.46,5.22,5.22,0,0,1,1.37,3.69Zm-1.63-2.16a4.08,4.08,0,0,0-.9-2.73,3,3,0,0,0-2.41-1.06A2.8,2.8,0,0,0,430,240a4.28,4.28,0,0,0-.85,2.73v2.16a4.27,4.27,0,0,0,.85,2.74,2.78,2.78,0,0,0,2.28,1.07,3,3,0,0,0,2.41-1.06,4.1,4.1,0,0,0,.9-2.75Z"/><path class="cls-10" d="M443.59,242.28l-.84-.05a1.82,1.82,0,0,0-1.09.31,1.92,1.92,0,0,0-.69.86v6.42h-1.63v-9h1.46l.15,1.31a3.09,3.09,0,0,1,.95-1.09,2.19,2.19,0,0,1,1.29-.39,2.07,2.07,0,0,1,.35,0l.27.06Z"/><path class="cls-10" d="M444.65,245.49a5.88,5.88,0,0,1,.94-3.49,3,3,0,0,1,2.62-1.33,3.13,3.13,0,0,1,1.5.35,3,3,0,0,1,1.08,1l.2-1.17h1.3v9a3.42,3.42,0,0,1-1,2.65,4.13,4.13,0,0,1-2.9.93,6,6,0,0,1-1.4-.18,5.25,5.25,0,0,1-1.32-.49l.41-1.27a4,4,0,0,0,1.07.4,4.7,4.7,0,0,0,1.22.16,2.34,2.34,0,0,0,1.74-.55,2.21,2.21,0,0,0,.55-1.65v-1a3,3,0,0,1-1.06.85,3.32,3.32,0,0,1-1.41.28,3.15,3.15,0,0,1-2.6-1.19,4.9,4.9,0,0,1-.94-3.13Zm1.63.18a3.67,3.67,0,0,0,.58,2.17,2,2,0,0,0,1.74.82,2.17,2.17,0,0,0,1.23-.33,2.58,2.58,0,0,0,.83-1v-4.14a2.6,2.6,0,0,0-.83-.91,2.15,2.15,0,0,0-1.21-.33,1.92,1.92,0,0,0-1.76,1,4.93,4.93,0,0,0-.58,2.51Z"/><path class="cls-10" d="M460.19,249.82c-.06-.27-.1-.51-.13-.72s-.05-.42-.06-.63a3.68,3.68,0,0,1-1.19,1.09,3,3,0,0,1-1.58.43,3,3,0,0,1-2.14-.72,2.61,2.61,0,0,1-.73-2,2.34,2.34,0,0,1,1-2,4.92,4.92,0,0,1,2.83-.72H460v-.89a1.65,1.65,0,0,0-.48-1.25,1.87,1.87,0,0,0-1.36-.46,2,2,0,0,0-1.28.4,1.22,1.22,0,0,0-.5,1h-1.56v-.05a2.16,2.16,0,0,1,.92-1.8,3.81,3.81,0,0,1,2.52-.81,3.7,3.7,0,0,1,2.46.78,2.73,2.73,0,0,1,.93,2.23V248c0,.32,0,.63.05.93a4.44,4.44,0,0,0,.18.88Zm-2.72-1.2a2.93,2.93,0,0,0,1.6-.46,2.11,2.11,0,0,0,.93-1v-1.46h-1.83a2.37,2.37,0,0,0-1.58.5,1.46,1.46,0,0,0-.59,1.16,1.23,1.23,0,0,0,.37,1A1.58,1.58,0,0,0,457.47,248.62Z"/><path class="cls-10" d="M465.48,240.84l.11,1.33a3.21,3.21,0,0,1,1.13-1.1,3.29,3.29,0,0,1,3.78.45,3.7,3.7,0,0,1,.8,2.63v5.67h-1.63v-5.64a2.43,2.43,0,0,0-.47-1.68,1.88,1.88,0,0,0-1.43-.5,2.28,2.28,0,0,0-1.25.34,2.51,2.51,0,0,0-.87.93v6.55H464v-9Z"/><path class="cls-10" d="M475.44,238.54h-1.63v-1.67h1.63Zm0,11.28h-1.63v-9h1.63Z"/><path class="cls-10" d="M481.61,248.71a2.18,2.18,0,0,0,1.43-.51,1.5,1.5,0,0,0,.62-1.23h1.47l0,.05a2.53,2.53,0,0,1-1,2.07,3.76,3.76,0,0,1-2.5.9,3.61,3.61,0,0,1-3-1.28,4.88,4.88,0,0,1-1-3.21v-.35a4.9,4.9,0,0,1,1-3.2,4.09,4.09,0,0,1,5.57-.35,2.89,2.89,0,0,1,1,2.28l0,.05h-1.48a1.89,1.89,0,0,0-.58-1.4,2,2,0,0,0-1.47-.57,2,2,0,0,0-1.84.92,4.44,4.44,0,0,0-.55,2.27v.35a4.34,4.34,0,0,0,.55,2.29A2,2,0,0,0,481.61,248.71Z"/><path class="cls-10" d="M498.1,246.78a1.77,1.77,0,0,0-.63-1.39,5.2,5.2,0,0,0-2.2-.93,7.47,7.47,0,0,1-3-1.35,2.81,2.81,0,0,1-1.07-2.24,2.91,2.91,0,0,1,1.16-2.36,4.53,4.53,0,0,1,3-.95,4.46,4.46,0,0,1,3.16,1.09,3.19,3.19,0,0,1,1.13,2.52l0,.05h-1.56a2.24,2.24,0,0,0-.7-1.72,2.83,2.83,0,0,0-2-.66,2.78,2.78,0,0,0-1.87.56,1.78,1.78,0,0,0-.66,1.44,1.59,1.59,0,0,0,.71,1.31,6.77,6.77,0,0,0,2.29.93,6.59,6.59,0,0,1,2.91,1.39,3,3,0,0,1,1,2.29,2.79,2.79,0,0,1-1.19,2.34,5.06,5.06,0,0,1-3.12.89,5.35,5.35,0,0,1-3.2-1,3,3,0,0,1-1.35-2.63v0h1.56a2,2,0,0,0,.86,1.77,3.61,3.61,0,0,0,2.12.61,3.32,3.32,0,0,0,1.95-.52A1.64,1.64,0,0,0,498.1,246.78Z"/><path class="cls-10" d="M505.53,250a3.76,3.76,0,0,1-3-1.25,4.69,4.69,0,0,1-1.11-3.24v-.36a4.59,4.59,0,0,1,1.14-3.19,3.54,3.54,0,0,1,2.71-1.28,3.39,3.39,0,0,1,2.74,1.1,4.35,4.35,0,0,1,.93,2.92v1h-5.82l0,0a3.54,3.54,0,0,0,.66,2.12,2.08,2.08,0,0,0,1.76.84,4.06,4.06,0,0,0,1.46-.24,3.42,3.42,0,0,0,1.08-.65l.64,1.06a3.67,3.67,0,0,1-1.27.79A4.92,4.92,0,0,1,505.53,250Zm-.24-8a1.79,1.79,0,0,0-1.41.69,3.34,3.34,0,0,0-.71,1.73v0h4.15v-.21a2.47,2.47,0,0,0-.52-1.61A1.82,1.82,0,0,0,505.29,242Z"/><path class="cls-10" d="M516.32,249.82c-.06-.27-.1-.51-.13-.72s-.05-.42-.06-.63a3.68,3.68,0,0,1-1.19,1.09,3,3,0,0,1-1.58.43,3,3,0,0,1-2.14-.72,2.65,2.65,0,0,1-.73-2,2.34,2.34,0,0,1,1-2,4.92,4.92,0,0,1,2.83-.72h1.77v-.89a1.65,1.65,0,0,0-.48-1.25,1.87,1.87,0,0,0-1.36-.46,2,2,0,0,0-1.28.4,1.21,1.21,0,0,0-.49,1H511v-.05a2.19,2.19,0,0,1,.92-1.8,3.81,3.81,0,0,1,2.52-.81,3.7,3.7,0,0,1,2.46.78,2.73,2.73,0,0,1,.93,2.23V248c0,.32,0,.63.05.93a4.44,4.44,0,0,0,.18.88Zm-2.72-1.2a2.91,2.91,0,0,0,1.6-.46,2.11,2.11,0,0,0,.93-1v-1.46H514.3a2.37,2.37,0,0,0-1.58.5,1.46,1.46,0,0,0-.59,1.16,1.23,1.23,0,0,0,.37,1A1.58,1.58,0,0,0,513.6,248.62Z"/><path class="cls-10" d="M524.39,242.28l-.84-.05a1.84,1.84,0,0,0-1.09.31,2,2,0,0,0-.68.86v6.42h-1.64v-9h1.46l.16,1.31a3.17,3.17,0,0,1,.94-1.09,2.24,2.24,0,0,1,1.3-.39,1.87,1.87,0,0,1,.34,0l.28.06Z"/><path class="cls-10" d="M529.47,248.71a2.18,2.18,0,0,0,1.43-.51,1.52,1.52,0,0,0,.62-1.23H533V247a2.55,2.55,0,0,1-1,2.07,3.78,3.78,0,0,1-2.5.9,3.61,3.61,0,0,1-3-1.28,4.93,4.93,0,0,1-1-3.21v-.35a5,5,0,0,1,1-3.2,3.66,3.66,0,0,1,3-1.28,3.61,3.61,0,0,1,2.57.93,2.89,2.89,0,0,1,1,2.28l0,.05h-1.47a1.9,1.9,0,0,0-.59-1.4,2.24,2.24,0,0,0-3.3.35,4.34,4.34,0,0,0-.55,2.27v.35a4.44,4.44,0,0,0,.54,2.29A2,2,0,0,0,529.47,248.71Z"/><path class="cls-10" d="M536.47,242a3.33,3.33,0,0,1,1.14-1,3.14,3.14,0,0,1,1.5-.36,2.93,2.93,0,0,1,2.24.86,3.84,3.84,0,0,1,.8,2.66v5.63h-1.64v-5.65a2.38,2.38,0,0,0-.47-1.64,1.85,1.85,0,0,0-1.43-.53,2.45,2.45,0,0,0-1.23.32,2.61,2.61,0,0,0-.91.87v6.63h-1.63V236.87h1.63Z"/><path class="cls-10" d="M621.17,320.4v4.76h-1.68V313.07h3.93a3.58,3.58,0,0,1,2.69,1,4.12,4.12,0,0,1,0,5.31,3.58,3.58,0,0,1-2.69,1Zm0-1.3h2.25a1.73,1.73,0,0,0,1.48-.67,2.67,2.67,0,0,0,.51-1.68,2.81,2.81,0,0,0-.5-1.7,1.73,1.73,0,0,0-1.49-.68h-2.25Z"/><path class="cls-10" d="M633.26,325.16c-.07-.27-.13-.51-.17-.73a4.52,4.52,0,0,1-.08-.63,3.34,3.34,0,0,1-.94,1.1,2.18,2.18,0,0,1-1.33.43,2.34,2.34,0,0,1-1.85-.71,2.81,2.81,0,0,1-.64-1.95,2.43,2.43,0,0,1,.89-2,3.78,3.78,0,0,1,2.48-.73H633V319a2,2,0,0,0-.36-1.28,1.39,1.39,0,0,0-2-.07,1.49,1.49,0,0,0-.37,1h-1.61v-.05a2.26,2.26,0,0,1,.81-1.84,3.22,3.22,0,0,1,2.26-.8,3,3,0,0,1,2.17.79,2.93,2.93,0,0,1,.83,2.23v4.17a8.14,8.14,0,0,0,.06,1,8.24,8.24,0,0,0,.21,1ZM631.08,324a1.9,1.9,0,0,0,1.23-.43,2,2,0,0,0,.69-1V321h-1.4a1.55,1.55,0,0,0-1.22.5,1.73,1.73,0,0,0-.44,1.19,1.57,1.57,0,0,0,.3,1A1,1,0,0,0,631.08,324Z"/><path class="cls-10" d="M638.42,313.82h-1.69v-1.61h1.69Zm0,11.34h-1.69v-9h1.69Z"/><path class="cls-10" d="M640.17,320.78a6.67,6.67,0,0,1,.78-3.46,2.48,2.48,0,0,1,2.22-1.31,2.31,2.31,0,0,1,1.15.29,2.7,2.7,0,0,1,.87.82v-4.91h1.68v13h-1.39l-.18-1.08a2.54,2.54,0,0,1-.91.93,2.32,2.32,0,0,1-1.24.32,2.49,2.49,0,0,1-2.2-1.2,5.76,5.76,0,0,1-.78-3.18Zm1.67.17a4.93,4.93,0,0,0,.43,2.25,1.39,1.39,0,0,0,1.32.83,1.52,1.52,0,0,0,.95-.3,2.15,2.15,0,0,0,.65-.84v-4.35a2.42,2.42,0,0,0-.65-.89,1.45,1.45,0,0,0-.95-.33,1.41,1.41,0,0,0-1.32,1,6.1,6.1,0,0,0-.43,2.5Z"/><path class="cls-10" d="M658.28,322.12a2,2,0,0,0-.47-1.36,4.16,4.16,0,0,0-1.67-1,6.77,6.77,0,0,1-2.62-1.37,2.87,2.87,0,0,1-.91-2.23,3,3,0,0,1,1-2.35,3.65,3.65,0,0,1,2.58-.93,3.58,3.58,0,0,1,2.69,1,3.41,3.41,0,0,1,1,2.58v.05h-1.62a2.53,2.53,0,0,0-.57-1.72,1.87,1.87,0,0,0-1.48-.65,1.73,1.73,0,0,0-1.39.56,2.08,2.08,0,0,0-.5,1.41,1.73,1.73,0,0,0,.53,1.3,4.89,4.89,0,0,0,1.76,1,6.15,6.15,0,0,1,2.51,1.41,3,3,0,0,1,.86,2.25,3,3,0,0,1-1,2.36,4,4,0,0,1-2.67.87,4.28,4.28,0,0,1-2.77-.94,3.17,3.17,0,0,1-1.14-2.72l0-.05H654a2.42,2.42,0,0,0,.65,1.84,2.32,2.32,0,0,0,1.62.6,2,2,0,0,0,1.47-.52A2,2,0,0,0,658.28,322.12Z"/><path class="cls-10" d="M664.91,325.33a3.15,3.15,0,0,1-2.63-1.23,5.07,5.07,0,0,1-.95-3.19v-.39a5.26,5.26,0,0,1,.95-3.24,2.93,2.93,0,0,1,2.47-1.27,2.7,2.7,0,0,1,2.34,1.09,4.86,4.86,0,0,1,.8,2.92v1H663a4.41,4.41,0,0,0,.49,2.23,1.65,1.65,0,0,0,1.52.86,3,3,0,0,0,2.19-.87l.55,1.05a3.62,3.62,0,0,1-1.19.78A4.18,4.18,0,0,1,664.91,325.33Zm-.16-8a1.32,1.32,0,0,0-1.16.67,4,4,0,0,0-.54,1.79h3.18v-.19a3.29,3.29,0,0,0-.36-1.64A1.2,1.2,0,0,0,664.75,317.31Z"/><path class="cls-10" d="M674.08,325.16c-.08-.27-.13-.51-.18-.73a4.5,4.5,0,0,1-.07-.63,3.37,3.37,0,0,1-1,1.1,2.16,2.16,0,0,1-1.33.43,2.35,2.35,0,0,1-1.85-.71,2.86,2.86,0,0,1-.64-1.95,2.46,2.46,0,0,1,.89-2,3.83,3.83,0,0,1,2.49-.73h1.38V319a2,2,0,0,0-.37-1.28,1.24,1.24,0,0,0-1-.47,1.28,1.28,0,0,0-1,.4,1.48,1.48,0,0,0-.36,1h-1.61l0-.05a2.27,2.27,0,0,1,.82-1.84,3.2,3.2,0,0,1,2.26-.8,3,3,0,0,1,2.16.79,2.93,2.93,0,0,1,.83,2.23v4.17a7.32,7.32,0,0,0,.27,2ZM671.9,324a1.86,1.86,0,0,0,1.22-.43,1.94,1.94,0,0,0,.7-1V321h-1.4a1.57,1.57,0,0,0-1.23.5,1.73,1.73,0,0,0-.43,1.19,1.56,1.56,0,0,0,.29,1A1,1,0,0,0,671.9,324Z"/><path class="cls-10" d="M681.29,317.58l-.73,0a1.3,1.3,0,0,0-.89.32,2.08,2.08,0,0,0-.54.9v6.4h-1.69v-9H679l.11,1.33a2.88,2.88,0,0,1,.77-1.1,1.58,1.58,0,0,1,1.07-.4,1.36,1.36,0,0,1,.29,0,1.26,1.26,0,0,1,.25.07Z"/><path class="cls-10" d="M685.63,324.06a1.3,1.3,0,0,0,1-.49,1.9,1.9,0,0,0,.42-1.3h1.52l0,.05a2.78,2.78,0,0,1-.86,2.14,2.94,2.94,0,0,1-2.14.87,3,3,0,0,1-2.57-1.26,5.47,5.47,0,0,1-.9-3.24v-.31a5.45,5.45,0,0,1,.9-3.23,3,3,0,0,1,2.57-1.28,2.87,2.87,0,0,1,2.19.91,3.29,3.29,0,0,1,.82,2.36l0,0h-1.53a2.41,2.41,0,0,0-.4-1.45,1.23,1.23,0,0,0-1.06-.56,1.42,1.42,0,0,0-1.37.91,5.51,5.51,0,0,0-.41,2.3v.31a5.51,5.51,0,0,0,.41,2.32A1.42,1.42,0,0,0,685.63,324.06Z"/><path class="cls-10" d="M691.87,317.38a3.06,3.06,0,0,1,.94-1,2.43,2.43,0,0,1,3.16.54,4.57,4.57,0,0,1,.68,2.76v5.49H695v-5.51a3.32,3.32,0,0,0-.36-1.78,1.16,1.16,0,0,0-1.05-.55,1.73,1.73,0,0,0-1,.29,2,2,0,0,0-.68.78v6.77h-1.69v-13h1.69Z"/><path class="cls-10" d="M700.45,317.89h-1.7V316.2h1.7Zm0,7.27h-1.7v-1.69h1.7Z"/><path class="cls-10" d="M626.41,342.19h-5.53l-1.25,3.37h-1l4.59-12.09h.94l4.56,12.09h-1Zm-5.2-.89h4.88l-2.41-6.54h0Z"/><path class="cls-10" d="M629.87,341.14a5.91,5.91,0,0,1,.91-3.44,2.93,2.93,0,0,1,2.54-1.29,3.21,3.21,0,0,1,1.62.4,3.27,3.27,0,0,1,1.15,1.13v-5.33h1v12.95h-.88l-.08-1.3a3.1,3.1,0,0,1-1.16,1.09,3.36,3.36,0,0,1-1.66.38,3,3,0,0,1-2.52-1.2,5.21,5.21,0,0,1-.91-3.21Zm1,.18a4.61,4.61,0,0,0,.65,2.6,2.2,2.2,0,0,0,2,1,2.69,2.69,0,0,0,2.61-1.64V339a3.25,3.25,0,0,0-1-1.27,2.55,2.55,0,0,0-1.63-.49,2.16,2.16,0,0,0-2,1.08,5.3,5.3,0,0,0-.66,2.8Z"/><path class="cls-10" d="M641.66,342.65l.34,1.6h0l.42-1.6,1.91-6.07h.86l1.91,6.07.43,1.64h0l.37-1.64,1.64-6.07h1l-2.62,9h-.84l-2-6.14-.39-1.56h-.05l-.4,1.56-2,6.14h-.86l-2.61-9h1Z"/><path class="cls-10" d="M652,340.94a4.86,4.86,0,0,1,1.08-3.26,3.91,3.91,0,0,1,5.77,0,4.81,4.81,0,0,1,1.09,3.26v.27a4.86,4.86,0,0,1-1.08,3.26,3.6,3.6,0,0,1-2.88,1.26,3.64,3.64,0,0,1-2.9-1.26,4.86,4.86,0,0,1-1.08-3.26Zm1,.27a4.31,4.31,0,0,0,.79,2.62,2.79,2.79,0,0,0,4.38,0,4.25,4.25,0,0,0,.79-2.62v-.28a4.23,4.23,0,0,0-.79-2.6,2.62,2.62,0,0,0-2.2-1.07,2.57,2.57,0,0,0-2.18,1.07,4.29,4.29,0,0,0-.79,2.6Z"/><path class="cls-10" d="M666.19,337.43l-.74-.05a2.27,2.27,0,0,0-1.54.53,2.92,2.92,0,0,0-.86,1.45v6.2h-1v-9h.87l.12,1.49v.1a3.22,3.22,0,0,1,1.05-1.29,2.64,2.64,0,0,1,1.56-.47,2.22,2.22,0,0,1,.37,0l.29.06Z"/><path class="cls-10" d="M667.29,341.14a5.91,5.91,0,0,1,.91-3.44,2.93,2.93,0,0,1,2.54-1.29,3.21,3.21,0,0,1,1.62.4,3.27,3.27,0,0,1,1.15,1.13v-5.33h1v12.95h-.88l-.08-1.3a3.1,3.1,0,0,1-1.16,1.09,3.36,3.36,0,0,1-1.66.38,3,3,0,0,1-2.52-1.2,5.21,5.21,0,0,1-.91-3.21Zm1,.18a4.61,4.61,0,0,0,.65,2.6,2.2,2.2,0,0,0,2,1,2.69,2.69,0,0,0,2.61-1.64V339a3.25,3.25,0,0,0-1-1.27,2.55,2.55,0,0,0-1.63-.49,2.16,2.16,0,0,0-2,1.08,5.3,5.3,0,0,0-.66,2.8Z"/><path class="cls-10" d="M682.52,343.27a1.46,1.46,0,0,0-.51-1.1,4.31,4.31,0,0,0-1.88-.77,6.24,6.24,0,0,1-2.37-.92,1.88,1.88,0,0,1-.77-1.62,2.16,2.16,0,0,1,.87-1.74,3.5,3.5,0,0,1,2.29-.71,3.62,3.62,0,0,1,2.41.75,2.25,2.25,0,0,1,.84,1.88v0h-.92a1.64,1.64,0,0,0-.63-1.28,3,3,0,0,0-3.32-.08,1.4,1.4,0,0,0-.54,1.09,1.28,1.28,0,0,0,.46,1,4.59,4.59,0,0,0,1.88.71,6.24,6.24,0,0,1,2.4,1,2,2,0,0,1,.79,1.69,2.17,2.17,0,0,1-.91,1.82,3.84,3.84,0,0,1-2.4.69,3.89,3.89,0,0,1-2.57-.78,2.19,2.19,0,0,1-.88-1.86v0h.92a1.64,1.64,0,0,0,.79,1.41,3.34,3.34,0,0,0,1.73.44,2.77,2.77,0,0,0,1.7-.47A1.4,1.4,0,0,0,682.52,343.27Z"/><path class="cls-10" d="M824.45,226.38A2,2,0,0,0,824,225a4.16,4.16,0,0,0-1.67-1,6.77,6.77,0,0,1-2.62-1.37,2.87,2.87,0,0,1-.91-2.23,3.08,3.08,0,0,1,1-2.36,3.69,3.69,0,0,1,2.58-.92,3.58,3.58,0,0,1,2.69,1,3.35,3.35,0,0,1,1,2.58v0h-1.62a2.53,2.53,0,0,0-.57-1.72,1.84,1.84,0,0,0-1.48-.65A1.73,1.73,0,0,0,821,219a2.08,2.08,0,0,0-.5,1.41,1.73,1.73,0,0,0,.53,1.3,4.89,4.89,0,0,0,1.76,1,6,6,0,0,1,2.51,1.41,3,3,0,0,1,.86,2.25,3,3,0,0,1-1,2.36,4,4,0,0,1-2.67.87,4.28,4.28,0,0,1-2.77-.94,3.17,3.17,0,0,1-1.14-2.72l0-.05h1.62a2.42,2.42,0,0,0,.65,1.84,2.32,2.32,0,0,0,1.62.6,2,2,0,0,0,1.47-.52A2,2,0,0,0,824.45,226.38Z"/><path class="cls-10" d="M827.5,224.83a5.38,5.38,0,0,1,.94-3.28,3.28,3.28,0,0,1,5.2,0,5.32,5.32,0,0,1,1,3.28v.22a5.36,5.36,0,0,1-.94,3.28,3.32,3.32,0,0,1-5.21,0,5.36,5.36,0,0,1-.94-3.28Zm1.69.22a5.18,5.18,0,0,0,.46,2.35,1.51,1.51,0,0,0,1.41.92,1.49,1.49,0,0,0,1.38-.92,5.2,5.2,0,0,0,.46-2.35v-.22a5.22,5.22,0,0,0-.46-2.34,1.51,1.51,0,0,0-1.4-.92,1.49,1.49,0,0,0-1.39.92,5.22,5.22,0,0,0-.46,2.34Z"/><path class="cls-10" d="M839.32,228.32a1.35,1.35,0,0,0,1-.49,1.9,1.9,0,0,0,.42-1.3h1.51l0,.05a2.78,2.78,0,0,1-.85,2.14,3.17,3.17,0,0,1-4.71-.39,5.47,5.47,0,0,1-.9-3.24v-.31a5.45,5.45,0,0,1,.9-3.23,3,3,0,0,1,2.56-1.28,2.83,2.83,0,0,1,2.19.91,3.24,3.24,0,0,1,.82,2.36l0,0h-1.52a2.42,2.42,0,0,0-.41-1.45,1.23,1.23,0,0,0-1.06-.56,1.4,1.4,0,0,0-1.36.91,5.5,5.5,0,0,0-.42,2.3v.31a5.67,5.67,0,0,0,.41,2.32A1.43,1.43,0,0,0,839.32,228.32Z"/><path class="cls-10" d="M845.7,218.08H844v-1.61h1.69Zm0,11.34H844v-9h1.69Z"/><path class="cls-10" d="M852.42,229.42c-.07-.27-.13-.51-.17-.73s-.06-.42-.08-.63a3.23,3.23,0,0,1-.94,1.1,2.16,2.16,0,0,1-1.33.43,2.35,2.35,0,0,1-1.85-.71,2.81,2.81,0,0,1-.64-1.95,2.46,2.46,0,0,1,.89-2,3.83,3.83,0,0,1,2.49-.73h1.38v-.92a2.06,2.06,0,0,0-.37-1.29,1.4,1.4,0,0,0-2-.06,1.48,1.48,0,0,0-.36,1h-1.61l0-.05a2.27,2.27,0,0,1,.82-1.84,3.17,3.17,0,0,1,2.25-.8,3,3,0,0,1,2.17.79,2.92,2.92,0,0,1,.83,2.23v4.17a7.32,7.32,0,0,0,.27,2Zm-2.17-1.12a1.88,1.88,0,0,0,1.22-.43,2,2,0,0,0,.7-1v-1.6h-1.41a1.56,1.56,0,0,0-1.22.5,1.73,1.73,0,0,0-.44,1.19,1.52,1.52,0,0,0,.3,1A1,1,0,0,0,850.25,228.3Z"/><path class="cls-10" d="M857.59,229.42h-1.7V216.47h1.7Z"/><path class="cls-10" d="M868.6,227.19h0l2.9-9.86h2.16v12.09H872v-8.71h0l-2.77,8.72h-1.16l-2.81-8.85h0v8.84h-1.68V217.33h2.2Z"/><path class="cls-10" d="M879,229.59a3.13,3.13,0,0,1-2.63-1.23,5.07,5.07,0,0,1-.95-3.19v-.39a5.26,5.26,0,0,1,.95-3.24,2.93,2.93,0,0,1,2.47-1.27,2.73,2.73,0,0,1,2.34,1.09,4.84,4.84,0,0,1,.8,2.92v.95h-4.88a4.41,4.41,0,0,0,.5,2.23,1.63,1.63,0,0,0,1.51.86,3.1,3.1,0,0,0,1.23-.23,3,3,0,0,0,1-.64l.55,1.05a3.57,3.57,0,0,1-1.18.78A4.21,4.21,0,0,1,879,229.59Zm-.16-8a1.31,1.31,0,0,0-1.16.67,4,4,0,0,0-.54,1.79h3.18v-.19a3.29,3.29,0,0,0-.36-1.64A1.21,1.21,0,0,0,878.87,221.57Z"/><path class="cls-10" d="M883.21,225a6.57,6.57,0,0,1,.79-3.46,2.47,2.47,0,0,1,2.22-1.31,2.3,2.3,0,0,1,1.14.29,2.51,2.51,0,0,1,.87.82v-4.91h1.69v12.95h-1.4l-.17-1.08a2.62,2.62,0,0,1-.91.93,2.34,2.34,0,0,1-1.24.32,2.48,2.48,0,0,1-2.2-1.2,5.67,5.67,0,0,1-.79-3.18Zm1.68.17a5.07,5.07,0,0,0,.42,2.25,1.39,1.39,0,0,0,1.32.83,1.53,1.53,0,0,0,1-.3,2.1,2.1,0,0,0,.64-.85v-4.35a2.36,2.36,0,0,0-.64-.88,1.46,1.46,0,0,0-1-.33,1.39,1.39,0,0,0-1.32,1,6.1,6.1,0,0,0-.43,2.5Z"/><path class="cls-10" d="M893.7,218.08H892v-1.61h1.7Zm0,11.34H892v-9h1.7Z"/><path class="cls-10" d="M900.42,229.42c-.07-.27-.13-.51-.17-.73a4.52,4.52,0,0,1-.08-.63,3.34,3.34,0,0,1-.94,1.1,2.18,2.18,0,0,1-1.33.43,2.34,2.34,0,0,1-1.85-.71,2.81,2.81,0,0,1-.64-1.95,2.43,2.43,0,0,1,.89-2,3.78,3.78,0,0,1,2.48-.73h1.38v-.92a2.06,2.06,0,0,0-.36-1.29,1.41,1.41,0,0,0-2-.06,1.48,1.48,0,0,0-.36,1H895.8v-.05a2.24,2.24,0,0,1,.81-1.84,3.22,3.22,0,0,1,2.26-.8,3,3,0,0,1,2.16.79,2.88,2.88,0,0,1,.83,2.23v4.17a8.12,8.12,0,0,0,.07,1,5.5,5.5,0,0,0,.21,1Zm-2.18-1.12a1.86,1.86,0,0,0,1.22-.43,1.94,1.94,0,0,0,.7-1v-1.6h-1.4a1.55,1.55,0,0,0-1.22.5,1.73,1.73,0,0,0-.44,1.19,1.52,1.52,0,0,0,.3,1A1,1,0,0,0,898.24,228.3Z"/><path class="cls-10" d="M824,247.59h0l2.89-9.86h2.16v12.09h-1.67v-8.71h-.06l-2.77,8.72h-1.15L820.61,241h0v8.84h-1.68V237.73h2.2Z"/><path class="cls-10" d="M835.82,249.82c-.07-.27-.13-.51-.17-.73a4.52,4.52,0,0,1-.08-.63,3.34,3.34,0,0,1-.94,1.1,2.16,2.16,0,0,1-1.33.43,2.35,2.35,0,0,1-1.85-.71,2.81,2.81,0,0,1-.64-1.95,2.46,2.46,0,0,1,.89-2,3.79,3.79,0,0,1,2.49-.73h1.37v-.92a2.06,2.06,0,0,0-.36-1.29,1.27,1.27,0,0,0-1.05-.46,1.26,1.26,0,0,0-1,.4,1.48,1.48,0,0,0-.36,1h-1.61l0-.05a2.3,2.3,0,0,1,.81-1.84,3.22,3.22,0,0,1,2.26-.8,3,3,0,0,1,2.17.79,2.92,2.92,0,0,1,.83,2.23v4.17a8.14,8.14,0,0,0,.06,1,8.24,8.24,0,0,0,.21,1Zm-2.17-1.12a1.88,1.88,0,0,0,1.22-.43,2,2,0,0,0,.69-1v-1.6h-1.4a1.55,1.55,0,0,0-1.22.5,1.73,1.73,0,0,0-.44,1.19,1.57,1.57,0,0,0,.3,1A1,1,0,0,0,833.65,248.7Z"/><path class="cls-10" d="M843,242.24l-.73,0a1.29,1.29,0,0,0-.88.32,1.91,1.91,0,0,0-.54.9v6.4h-1.7v-9h1.56l.11,1.33a2.88,2.88,0,0,1,.77-1.1,1.55,1.55,0,0,1,1.07-.4,1.36,1.36,0,0,1,.29,0l.25.07Z"/><path class="cls-10" d="M846.74,245.7h-.63v4.12h-1.69V236.87h1.69v7.55h.59l2.15-3.58h2l-2.75,4.08,3,4.9h-2Z"/><path class="cls-10" d="M855.24,250a3.13,3.13,0,0,1-2.63-1.23,5.07,5.07,0,0,1-1-3.19v-.39a5.26,5.26,0,0,1,1-3.24,2.93,2.93,0,0,1,2.47-1.27,2.73,2.73,0,0,1,2.34,1.09,4.84,4.84,0,0,1,.8,2.92v.95h-4.88a4.41,4.41,0,0,0,.5,2.23,1.63,1.63,0,0,0,1.51.86,3.29,3.29,0,0,0,1.23-.22,3.2,3.2,0,0,0,1-.65l.55,1.05a3.57,3.57,0,0,1-1.18.78A4.21,4.21,0,0,1,855.24,250Zm-.16-8a1.3,1.3,0,0,0-1.16.67,4,4,0,0,0-.54,1.79h3.18v-.19a3.29,3.29,0,0,0-.36-1.64A1.22,1.22,0,0,0,855.08,242Z"/><path class="cls-10" d="M861.9,238.6v2.24h1.41V242H861.9v5.35a1.78,1.78,0,0,0,.21,1,.65.65,0,0,0,.56.29,1.14,1.14,0,0,0,.27,0l.29-.08.18,1.17a2.85,2.85,0,0,1-.54.18,2.48,2.48,0,0,1-.61.07,1.87,1.87,0,0,1-1.51-.62,3,3,0,0,1-.54-2V242H859v-1.2h1.19V238.6Z"/><path class="cls-10" d="M866.63,238.48h-1.69v-1.61h1.69Zm0,11.34h-1.69v-9h1.69Z"/><path class="cls-10" d="M870.22,240.84l.1,1.33a3.05,3.05,0,0,1,1-1.1,2.26,2.26,0,0,1,1.32-.4,2.21,2.21,0,0,1,1.87.88,4.59,4.59,0,0,1,.66,2.74v5.53h-1.68V244.3a3.37,3.37,0,0,0-.35-1.79A1.21,1.21,0,0,0,872,242a1.61,1.61,0,0,0-1,.31,2.21,2.21,0,0,0-.66.83v6.7h-1.69v-9Z"/><path class="cls-10" d="M876.78,245.44a6.57,6.57,0,0,1,.79-3.46,2.46,2.46,0,0,1,2.22-1.31A2.19,2.19,0,0,1,881,241a2.61,2.61,0,0,1,.9,1l.16-1.13h1.41v9a3.6,3.6,0,0,1-.92,2.66,3.46,3.46,0,0,1-2.6.95,4.56,4.56,0,0,1-1.22-.18,4.4,4.4,0,0,1-1.17-.47l.27-1.26a4.36,4.36,0,0,0,1,.4,4.14,4.14,0,0,0,1.12.14,1.68,1.68,0,0,0,1.39-.55,2.7,2.7,0,0,0,.45-1.7v-.89a2.42,2.42,0,0,1-.87.79,2.39,2.39,0,0,1-1.16.26,2.49,2.49,0,0,1-2.2-1.2,5.67,5.67,0,0,1-.79-3.18Zm1.69.17a5,5,0,0,0,.42,2.25,1.37,1.37,0,0,0,1.32.83,1.58,1.58,0,0,0,.95-.29,2,2,0,0,0,.64-.82v-4.42a2.18,2.18,0,0,0-.64-.86,1.47,1.47,0,0,0-.95-.32,1.41,1.41,0,0,0-1.32,1,6.29,6.29,0,0,0-.42,2.5Z"/><path class="cls-10" d="M995.67,319.55h-4.1v4.33h4.83v1.28h-6.51V313.07h6.47v1.3h-4.79v3.89h4.1Z"/><path class="cls-10" d="M999.46,316.18l.09,1.22a2.79,2.79,0,0,1,1-1,2.46,2.46,0,0,1,1.34-.36,2.14,2.14,0,0,1,1.3.41,2.56,2.56,0,0,1,.82,1.25,3,3,0,0,1,.95-1.22,2.29,2.29,0,0,1,1.4-.44,2.11,2.11,0,0,1,1.83.95,5.05,5.05,0,0,1,.67,2.9v5.3h-1.69v-5.31a4,4,0,0,0-.35-2,1.15,1.15,0,0,0-1-.56,1.26,1.26,0,0,0-1,.44,2.58,2.58,0,0,0-.58,1.13c0,.1,0,.21,0,.31s0,.22,0,.33v5.63h-1.69v-5.31a3.89,3.89,0,0,0-.36-1.94,1.13,1.13,0,0,0-1-.59,1.44,1.44,0,0,0-.93.3,1.92,1.92,0,0,0-.6.83v6.71h-1.69v-9Z"/><path class="cls-10" d="M1015.42,325.16c-.07-.27-.13-.51-.17-.73a4.52,4.52,0,0,1-.08-.63,3.34,3.34,0,0,1-.94,1.1,2.16,2.16,0,0,1-1.33.43,2.35,2.35,0,0,1-1.85-.71,2.81,2.81,0,0,1-.64-1.95,2.43,2.43,0,0,1,.89-2,3.79,3.79,0,0,1,2.49-.73h1.37V319a2,2,0,0,0-.36-1.28,1.39,1.39,0,0,0-2-.07,1.48,1.48,0,0,0-.36,1h-1.61l0-.05a2.31,2.31,0,0,1,.81-1.84,3.22,3.22,0,0,1,2.26-.8,3,3,0,0,1,2.17.79,2.93,2.93,0,0,1,.83,2.23v4.17a8.14,8.14,0,0,0,.06,1,7.82,7.82,0,0,0,.21,1Zm-2.17-1.12a1.88,1.88,0,0,0,1.22-.43,2,2,0,0,0,.69-1V321h-1.4a1.55,1.55,0,0,0-1.22.5,1.75,1.75,0,0,0-.44,1.19,1.57,1.57,0,0,0,.3,1A1,1,0,0,0,1013.25,324Z"/><path class="cls-10" d="M1020.58,313.82h-1.69v-1.61h1.69Zm0,11.34h-1.69v-9h1.69Z"/><path class="cls-10" d="M1024.44,325.16h-1.69v-13h1.69Z"/><path class="cls-10" d="M992.32,333.47l3.85,9.82h.05l3.85-9.82h2.09v12.09h-1.63v-4.78l.16-4.91h0l-3.91,9.7h-1.09l-3.9-9.68h0l.15,4.89v4.78h-1.63V333.47Z"/><path class="cls-10" d="M1010.37,345.56q-.07-.4-.12-.72c0-.21,0-.41-.06-.62a3.76,3.76,0,0,1-1.19,1.08,3.05,3.05,0,0,1-1.58.43,2.93,2.93,0,0,1-2.14-.71,2.64,2.64,0,0,1-.73-2,2.32,2.32,0,0,1,1-2,4.9,4.9,0,0,1,2.83-.72h1.77v-.89a1.65,1.65,0,0,0-.48-1.25,1.87,1.87,0,0,0-1.36-.46,1.94,1.94,0,0,0-1.28.4,1.22,1.22,0,0,0-.5,1H1005V339a2.15,2.15,0,0,1,.92-1.79,3.76,3.76,0,0,1,2.52-.82,3.7,3.7,0,0,1,2.46.78,2.75,2.75,0,0,1,.93,2.24v4.32a7.06,7.06,0,0,0,0,.93,4.44,4.44,0,0,0,.18.88Zm-2.71-1.2a2.85,2.85,0,0,0,1.6-.46,2.11,2.11,0,0,0,.93-1V341.4h-1.83a2.37,2.37,0,0,0-1.58.5,1.48,1.48,0,0,0-.6,1.17,1.23,1.23,0,0,0,.38.94A1.56,1.56,0,0,0,1007.66,344.36Z"/><path class="cls-10" d="M1018.45,338l-.84,0a1.92,1.92,0,0,0-1.09.31,2,2,0,0,0-.68.86v6.42h-1.64v-9h1.46l.16,1.31a3.15,3.15,0,0,1,.94-1.09,2.19,2.19,0,0,1,1.29-.39,2,2,0,0,1,.35,0l.27.06Z"/><path class="cls-10" d="M1022.73,341.4h-1.06v4.16H1020V332.61h1.63v7.51h1.05l2.46-3.54h2l-3.07,4.08,3.51,4.9h-1.92Z"/><path class="cls-10" d="M1032.3,345.73a3.79,3.79,0,0,1-3-1.24,4.73,4.73,0,0,1-1.11-3.25v-.36a4.6,4.6,0,0,1,1.14-3.19,3.54,3.54,0,0,1,2.71-1.28,3.39,3.39,0,0,1,2.74,1.1,4.35,4.35,0,0,1,.93,2.92v1h-5.82l0,0a3.6,3.6,0,0,0,.66,2.13,2.1,2.1,0,0,0,1.76.83,4.06,4.06,0,0,0,1.46-.24,3.24,3.24,0,0,0,1.08-.65l.64,1.06a3.69,3.69,0,0,1-1.27.8A5.13,5.13,0,0,1,1032.3,345.73Zm-.24-8a1.79,1.79,0,0,0-1.41.69,3.34,3.34,0,0,0-.71,1.73v.05h4.15V340a2.49,2.49,0,0,0-.52-1.61A1.85,1.85,0,0,0,1032.06,337.7Z"/><path class="cls-10" d="M1039.73,334.41v2.17h1.7v1.21h-1.7v5.45a1.18,1.18,0,0,0,.26.89.94.94,0,0,0,.69.26l.31,0a1.79,1.79,0,0,0,.3-.09l.22,1.12a1.38,1.38,0,0,1-.53.25,2.94,2.94,0,0,1-.71.09,2.12,2.12,0,0,1-1.59-.6,2.63,2.63,0,0,1-.59-1.89v-5.45h-1.43v-1.21h1.43v-2.17Z"/><path class="cls-10" d="M1045.21,334.28h-1.63v-1.67h1.63Zm0,11.28h-1.63v-9h1.63Z"/><path class="cls-10" d="M1049.19,336.58l.11,1.34a3.24,3.24,0,0,1,1.13-1.11,2.92,2.92,0,0,1,1.54-.4,3,3,0,0,1,2.25.85,3.76,3.76,0,0,1,.8,2.63v5.67h-1.64v-5.64a2.43,2.43,0,0,0-.47-1.68,1.88,1.88,0,0,0-1.43-.5,2.28,2.28,0,0,0-1.25.34,2.59,2.59,0,0,0-.87.93v6.55h-1.63v-9Z"/><path class="cls-10" d="M1057,341.24a5.92,5.92,0,0,1,1-3.5,3,3,0,0,1,2.61-1.33,3.2,3.2,0,0,1,1.51.35,3,3,0,0,1,1.08,1l.19-1.17h1.31v9a3.41,3.41,0,0,1-1,2.65,4.1,4.1,0,0,1-2.89.93,6,6,0,0,1-1.4-.18,5.33,5.33,0,0,1-1.33-.49l.42-1.27a4.34,4.34,0,0,0,1.06.41,5.3,5.3,0,0,0,1.23.15,2.39,2.39,0,0,0,1.74-.54,2.29,2.29,0,0,0,.54-1.66v-1a2.86,2.86,0,0,1-1,.85,3.32,3.32,0,0,1-1.41.28,3.12,3.12,0,0,1-2.6-1.19,4.91,4.91,0,0,1-1-3.13Zm1.64.17a3.72,3.72,0,0,0,.57,2.17,2,2,0,0,0,1.74.83,2.18,2.18,0,0,0,1.24-.34,2.48,2.48,0,0,0,.82-.95V339a2.42,2.42,0,0,0-.82-.91,2.11,2.11,0,0,0-1.22-.34,1.91,1.91,0,0,0-1.75,1,4.85,4.85,0,0,0-.58,2.52Z"/><path class="cls-10" d="M1070.22,341.09h-4.06v-1.27h4.06Z"/><path class="cls-10" d="M1074.11,333.47l3.85,9.82h0l3.85-9.82H1084v12.09h-1.63v-4.78l.16-4.91h0l-3.92,9.7h-1.09l-3.9-9.68h0l.16,4.89v4.78H1072V333.47Z"/><path class="cls-10" d="M1092.16,345.56c-.05-.27-.1-.51-.13-.72a4.32,4.32,0,0,1,0-.62,3.87,3.87,0,0,1-1.19,1.08,3.05,3.05,0,0,1-1.58.43,2.93,2.93,0,0,1-2.14-.71,2.65,2.65,0,0,1-.74-2,2.33,2.33,0,0,1,1.05-2,4.87,4.87,0,0,1,2.82-.72H1092v-.89a1.65,1.65,0,0,0-.48-1.25,1.88,1.88,0,0,0-1.36-.46,2,2,0,0,0-1.29.4,1.21,1.21,0,0,0-.49,1h-1.56l0-.05a2.18,2.18,0,0,1,.93-1.79,3.76,3.76,0,0,1,2.52-.82,3.67,3.67,0,0,1,2.45.78,2.75,2.75,0,0,1,.93,2.24v4.32c0,.32,0,.63.05.93a5.31,5.31,0,0,0,.19.88Zm-2.71-1.2a2.88,2.88,0,0,0,1.6-.46,2.16,2.16,0,0,0,.93-1V341.4h-1.84a2.41,2.41,0,0,0-1.58.5,1.5,1.5,0,0,0-.59,1.17,1.22,1.22,0,0,0,.37.94A1.59,1.59,0,0,0,1089.45,344.36Z"/><path class="cls-10" d="M1100.24,338l-.84,0a1.89,1.89,0,0,0-1.09.31,2,2,0,0,0-.69.86v6.42H1096v-9h1.46l.16,1.31a3.15,3.15,0,0,1,.94-1.09,2.19,2.19,0,0,1,1.29-.39,2,2,0,0,1,.35,0l.27.06Z"/><path class="cls-10" d="M1104.52,341.4h-1.06v4.16h-1.64V332.61h1.64v7.51h1l2.45-3.54h2l-3.07,4.08,3.51,4.9h-1.93Z"/><path class="cls-10" d="M1114.09,345.73a3.79,3.79,0,0,1-3-1.24,4.73,4.73,0,0,1-1.11-3.25v-.36a4.6,4.6,0,0,1,1.14-3.19,3.52,3.52,0,0,1,2.7-1.28,3.4,3.4,0,0,1,2.75,1.1,4.35,4.35,0,0,1,.93,2.92v1h-5.83l0,0a3.53,3.53,0,0,0,.65,2.13,2.1,2.1,0,0,0,1.77.83,4.06,4.06,0,0,0,1.46-.24,3.24,3.24,0,0,0,1.08-.65l.64,1.06a3.69,3.69,0,0,1-1.27.8A5.13,5.13,0,0,1,1114.09,345.73Zm-.25-8a1.78,1.78,0,0,0-1.4.69,3.18,3.18,0,0,0-.71,1.73v.05h4.15V340a2.55,2.55,0,0,0-.52-1.61A1.86,1.86,0,0,0,1113.84,337.7Z"/><path class="cls-10" d="M1121.51,334.41v2.17h1.7v1.21h-1.7v5.45a1.23,1.23,0,0,0,.26.89,1,1,0,0,0,.7.26l.31,0a2.13,2.13,0,0,0,.3-.09l.22,1.12a1.36,1.36,0,0,1-.54.25,2.82,2.82,0,0,1-.71.09,2.11,2.11,0,0,1-1.58-.6,2.58,2.58,0,0,1-.59-1.89v-5.45h-1.43v-1.21h1.43v-2.17Z"/><path class="cls-10" d="M1127,334.28h-1.64v-1.67H1127Zm0,11.28h-1.64v-9H1127Z"/><path class="cls-10" d="M1131,336.58l.11,1.34a3.24,3.24,0,0,1,1.13-1.11,2.92,2.92,0,0,1,1.54-.4,3,3,0,0,1,2.25.85,3.76,3.76,0,0,1,.79,2.63v5.67h-1.63v-5.64a2.43,2.43,0,0,0-.47-1.68,1.88,1.88,0,0,0-1.43-.5,2.28,2.28,0,0,0-1.25.34,2.51,2.51,0,0,0-.87.93v6.55h-1.63v-9Z"/><path class="cls-10" d="M1138.82,341.24a5.92,5.92,0,0,1,1-3.5,3,3,0,0,1,2.61-1.33,3.13,3.13,0,0,1,1.5.35,3,3,0,0,1,1.08,1l.2-1.17h1.3v9a3.41,3.41,0,0,1-1,2.65,4.11,4.11,0,0,1-2.9.93,6.11,6.11,0,0,1-1.4-.18,5.25,5.25,0,0,1-1.32-.49l.42-1.27a4.19,4.19,0,0,0,1.06.41,5.17,5.17,0,0,0,1.23.15,2.42,2.42,0,0,0,1.74-.54,2.29,2.29,0,0,0,.54-1.66v-1a2.9,2.9,0,0,1-1.06.85,3.26,3.26,0,0,1-1.41.28,3.1,3.1,0,0,1-2.59-1.19,4.91,4.91,0,0,1-1-3.13Zm1.63.17a3.72,3.72,0,0,0,.58,2.17,2,2,0,0,0,1.74.83,2.21,2.21,0,0,0,1.24-.34,2.57,2.57,0,0,0,.82-.95V339a2.42,2.42,0,0,0-.82-.91,2.13,2.13,0,0,0-1.22-.34,1.9,1.9,0,0,0-1.75,1,4.84,4.84,0,0,0-.59,2.52Z"/><path class="cls-10" d="M996.78,362.85h-5.07L990.57,366H988.9l4.67-12.09H995L999.57,366h-1.66Zm-4.56-1.37h4.07l-2-5.51h0Z"/><path class="cls-10" d="M1006.63,364.63a2.91,2.91,0,0,1-2.62,1.5,2.88,2.88,0,0,1-2.29-.93,4.36,4.36,0,0,1-.83-2.93V357h1.64v5.31a3.38,3.38,0,0,0,.42,2,1.58,1.58,0,0,0,1.32.54,2.65,2.65,0,0,0,1.44-.36,2.16,2.16,0,0,0,.86-1V357h1.64v9h-1.47Z"/><path class="cls-10" d="M1012.75,354.81V357h1.7v1.21h-1.7v5.45a1.24,1.24,0,0,0,.26.89.94.94,0,0,0,.69.26l.31,0a1.93,1.93,0,0,0,.31-.09l.21,1.12a1.38,1.38,0,0,1-.53.25,2.88,2.88,0,0,1-.71.09,2.13,2.13,0,0,1-1.59-.6,2.63,2.63,0,0,1-.59-1.89v-5.45h-1.43V357h1.43v-2.17Z"/><path class="cls-10" d="M1016.08,361.39a5,5,0,0,1,1.08-3.29,3.63,3.63,0,0,1,2.93-1.29,3.67,3.67,0,0,1,3,1.29,4.94,4.94,0,0,1,1.08,3.29v.18a4.94,4.94,0,0,1-1.08,3.29,4,4,0,0,1-5.88,0,4.92,4.92,0,0,1-1.09-3.28Zm1.64.17a4.26,4.26,0,0,0,.6,2.36,2.18,2.18,0,0,0,3.57,0,4.26,4.26,0,0,0,.6-2.36v-.18a4.16,4.16,0,0,0-.61-2.34,2,2,0,0,0-1.79-.94,2,2,0,0,0-1.77.94,4.24,4.24,0,0,0-.6,2.34Z"/><path class="cls-10" d="M1027.59,357l.12,1.18a2.93,2.93,0,0,1,1.11-1,3.31,3.31,0,0,1,1.57-.36,2.73,2.73,0,0,1,1.54.42,2.45,2.45,0,0,1,1,1.24,3.35,3.35,0,0,1,1.12-1.21,3,3,0,0,1,1.63-.45,2.72,2.72,0,0,1,2.17.94,4.33,4.33,0,0,1,.79,2.84V366H1037v-5.39a3,3,0,0,0-.46-1.88,1.65,1.65,0,0,0-1.36-.55,1.73,1.73,0,0,0-1.36.58,2.58,2.58,0,0,0-.61,1.47V366h-1.64v-5.39a2.94,2.94,0,0,0-.47-1.84,1.63,1.63,0,0,0-1.35-.59,2.2,2.2,0,0,0-1.23.31,2,2,0,0,0-.74.86V366h-1.63v-9Z"/><path class="cls-10" d="M1046.51,366c-.06-.27-.1-.51-.13-.72s-.05-.41-.06-.62a3.76,3.76,0,0,1-1.19,1.08,3,3,0,0,1-1.58.43,3,3,0,0,1-2.14-.71,2.68,2.68,0,0,1-.73-2,2.34,2.34,0,0,1,1-2,4.92,4.92,0,0,1,2.83-.72h1.77v-.89a1.65,1.65,0,0,0-.48-1.25,1.87,1.87,0,0,0-1.36-.46,2,2,0,0,0-1.28.4,1.21,1.21,0,0,0-.49,1h-1.57v-.05a2.17,2.17,0,0,1,.92-1.79,3.76,3.76,0,0,1,2.52-.82,3.7,3.7,0,0,1,2.46.78,2.75,2.75,0,0,1,.93,2.24v4.32c0,.32,0,.63,0,.93a4.44,4.44,0,0,0,.18.88Zm-2.72-1.2a2.91,2.91,0,0,0,1.6-.46,2.11,2.11,0,0,0,.93-1V361.8h-1.83a2.37,2.37,0,0,0-1.58.5,1.46,1.46,0,0,0-.59,1.16,1.23,1.23,0,0,0,.37,1A1.58,1.58,0,0,0,1043.79,364.76Z"/><path class="cls-10" d="M1052.49,354.81V357h1.7v1.21h-1.7v5.45a1.24,1.24,0,0,0,.26.89,1,1,0,0,0,.7.26l.31,0a2.13,2.13,0,0,0,.3-.09l.22,1.12a1.43,1.43,0,0,1-.54.25,2.82,2.82,0,0,1-.71.09,2.11,2.11,0,0,1-1.58-.6,2.58,2.58,0,0,1-.59-1.89v-5.45h-1.43V357h1.43v-2.17Z"/><path class="cls-10" d="M1058,354.68h-1.64V353H1058Zm0,11.28h-1.64v-9H1058Z"/><path class="cls-10" d="M1060.11,361.39a5,5,0,0,1,1.08-3.29,4,4,0,0,1,5.88,0,4.94,4.94,0,0,1,1.09,3.29v.18a4.94,4.94,0,0,1-1.08,3.29,4,4,0,0,1-5.88,0,4.87,4.87,0,0,1-1.09-3.28Zm1.64.17a4.26,4.26,0,0,0,.6,2.36,2,2,0,0,0,1.79.93,2,2,0,0,0,1.77-.93,4.18,4.18,0,0,0,.61-2.36v-.18a4.16,4.16,0,0,0-.61-2.34,2,2,0,0,0-1.79-.94,2,2,0,0,0-1.77.94,4.24,4.24,0,0,0-.6,2.34Z"/><path class="cls-10" d="M1071.62,357l.11,1.34a3.24,3.24,0,0,1,1.13-1.11,2.92,2.92,0,0,1,1.54-.4,3,3,0,0,1,2.25.85,3.76,3.76,0,0,1,.79,2.63V366h-1.63v-5.64a2.43,2.43,0,0,0-.47-1.68,1.88,1.88,0,0,0-1.43-.5,2.28,2.28,0,0,0-1.25.34,2.59,2.59,0,0,0-.87.93V366h-1.63v-9Z"/><path class="cls-10" d="M1211.38,227.19h0l2.89-9.86h2.16v12.09h-1.67v-8.71h-.06l-2.77,8.72h-1.15l-2.82-8.85h0v8.84h-1.68V217.33h2.2Z"/><path class="cls-10" d="M1223.39,228.11a3.08,3.08,0,0,1-.93,1.1,2.34,2.34,0,0,1-1.31.38,2.26,2.26,0,0,1-1.94-1,5.12,5.12,0,0,1-.69-3v-5.23h1.69v5.25a4.36,4.36,0,0,0,.33,2,1.08,1.08,0,0,0,1,.58,1.89,1.89,0,0,0,1.06-.29,2,2,0,0,0,.69-.83v-6.73H1225v9h-1.44Z"/><path class="cls-10" d="M1228.73,229.42H1227V216.47h1.7Z"/><path class="cls-10" d="M1233,218.2v2.24h1.4v1.2H1233V227a1.78,1.78,0,0,0,.21,1,.67.67,0,0,0,.56.29l.27,0,.29-.08.17,1.17a2.75,2.75,0,0,1-.53.18,2.48,2.48,0,0,1-.61.07,1.9,1.9,0,0,1-1.51-.62,3,3,0,0,1-.54-2v-5.35h-1.19v-1.2h1.19V218.2Z"/><path class="cls-10" d="M1237.68,218.08H1236v-1.61h1.69Zm0,11.34H1236v-9h1.69Z"/><path class="cls-10" d="M1244.12,224.92h-4.21v-1.29h4.21Z"/><path class="cls-10" d="M1254,225.78l0,.05a3.58,3.58,0,0,1-1,2.78,4,4,0,0,1-2.83,1,3.81,3.81,0,0,1-3-1.19,4.71,4.71,0,0,1-1.11-3.34v-3.35a4.81,4.81,0,0,1,1.09-3.35,3.74,3.74,0,0,1,2.92-1.2,4.1,4.1,0,0,1,2.89,1,3.51,3.51,0,0,1,1,2.8V221h-1.62a2.74,2.74,0,0,0-.57-1.91,2.21,2.21,0,0,0-1.69-.61,2,2,0,0,0-1.72.84,4,4,0,0,0-.6,2.39v3.38a4,4,0,0,0,.62,2.42,2.05,2.05,0,0,0,1.76.84,2.11,2.11,0,0,0,1.64-.61,2.78,2.78,0,0,0,.55-1.93Z"/><path class="cls-10" d="M1257.35,221.64a2.87,2.87,0,0,1,.94-1,2.22,2.22,0,0,1,1.24-.36,2.28,2.28,0,0,1,1.91.9,4.49,4.49,0,0,1,.69,2.75v5.5h-1.7v-5.51a3.33,3.33,0,0,0-.35-1.78,1.18,1.18,0,0,0-1.06-.55,1.76,1.76,0,0,0-1,.29,2,2,0,0,0-.67.78v6.77h-1.7V216.47h1.7Z"/><path class="cls-10" d="M1268.71,229.42c-.07-.27-.13-.51-.17-.73a4.52,4.52,0,0,1-.08-.63,3.34,3.34,0,0,1-.94,1.1,2.16,2.16,0,0,1-1.33.43,2.34,2.34,0,0,1-1.85-.71,2.81,2.81,0,0,1-.64-1.95,2.43,2.43,0,0,1,.89-2,3.79,3.79,0,0,1,2.49-.73h1.37v-.92a2.06,2.06,0,0,0-.36-1.29,1.28,1.28,0,0,0-1-.46,1.26,1.26,0,0,0-1,.4,1.49,1.49,0,0,0-.37,1h-1.6l0-.05a2.26,2.26,0,0,1,.81-1.84,3.22,3.22,0,0,1,2.26-.8,3,3,0,0,1,2.17.79,2.92,2.92,0,0,1,.83,2.23v4.17a8.14,8.14,0,0,0,.06,1,8.24,8.24,0,0,0,.21,1Zm-2.17-1.12a1.88,1.88,0,0,0,1.22-.43,2,2,0,0,0,.69-1v-1.6h-1.4a1.55,1.55,0,0,0-1.22.5,1.73,1.73,0,0,0-.44,1.19,1.52,1.52,0,0,0,.3,1A1,1,0,0,0,1266.54,228.3Z"/><path class="cls-10" d="M1273.6,220.44l.1,1.33a3.05,3.05,0,0,1,1-1.1,2.26,2.26,0,0,1,1.32-.4,2.21,2.21,0,0,1,1.87.88,4.59,4.59,0,0,1,.66,2.74v5.53h-1.68V223.9a3.37,3.37,0,0,0-.35-1.79,1.21,1.21,0,0,0-1.07-.53,1.61,1.61,0,0,0-1,.31,2.21,2.21,0,0,0-.66.83v6.7h-1.69v-9Z"/><path class="cls-10" d="M1282,220.44l.1,1.33a3,3,0,0,1,1-1.1,2.26,2.26,0,0,1,1.32-.4,2.18,2.18,0,0,1,1.86.88,4.51,4.51,0,0,1,.67,2.74v5.53h-1.68V223.9a3.26,3.26,0,0,0-.36-1.79,1.19,1.19,0,0,0-1.06-.53,1.61,1.61,0,0,0-1,.31,2,2,0,0,0-.66.83v6.7h-1.7v-9Z"/><path class="cls-10" d="M1292.05,229.59a3.11,3.11,0,0,1-2.62-1.23,5,5,0,0,1-1-3.19v-.39a5.26,5.26,0,0,1,1-3.24,2.94,2.94,0,0,1,2.47-1.27,2.7,2.7,0,0,1,2.34,1.09,4.77,4.77,0,0,1,.8,2.92v.95h-4.87a4.52,4.52,0,0,0,.49,2.23,1.65,1.65,0,0,0,1.52.86,3.1,3.1,0,0,0,1.23-.23,3,3,0,0,0,1-.64l.55,1.05a3.68,3.68,0,0,1-1.18.78A4.23,4.23,0,0,1,1292.05,229.59Zm-.16-8a1.32,1.32,0,0,0-1.16.67,4.25,4.25,0,0,0-.54,1.79h3.18v-.19a3.29,3.29,0,0,0-.36-1.64A1.2,1.2,0,0,0,1291.89,221.57Z"/><path class="cls-10" d="M1298.35,229.42h-1.69V216.47h1.69Z"/><path class="cls-10" d="M1211.68,246.76h-3.61l-.87,3.06h-1.75l3.63-12.09h1.63l3.6,12.09h-1.75Zm-3.23-1.33h2.86l-1.39-4.92h-.05Z"/><path class="cls-10" d="M1217,240.84l.1,1.33a3,3,0,0,1,1-1.1,2.26,2.26,0,0,1,1.32-.4,2.18,2.18,0,0,1,1.86.88,4.51,4.51,0,0,1,.67,2.74v5.53h-1.68V244.3a3.26,3.26,0,0,0-.36-1.79,1.19,1.19,0,0,0-1.06-.53,1.61,1.61,0,0,0-1,.31,2,2,0,0,0-.66.83v6.7h-1.7v-9Z"/><path class="cls-10" d="M1228.54,249.82c-.07-.27-.13-.51-.17-.73a4.52,4.52,0,0,1-.08-.63,3.23,3.23,0,0,1-.94,1.1,2.16,2.16,0,0,1-1.33.43,2.35,2.35,0,0,1-1.85-.71,2.81,2.81,0,0,1-.64-1.95,2.46,2.46,0,0,1,.89-2,3.81,3.81,0,0,1,2.49-.73h1.38v-.92a2.06,2.06,0,0,0-.37-1.29,1.27,1.27,0,0,0-1.05-.46,1.26,1.26,0,0,0-1,.4,1.48,1.48,0,0,0-.36,1h-1.61l0-.05a2.3,2.3,0,0,1,.81-1.84,3.22,3.22,0,0,1,2.26-.8,3,3,0,0,1,2.17.79,2.92,2.92,0,0,1,.83,2.23v4.17a8.14,8.14,0,0,0,.06,1,8.24,8.24,0,0,0,.21,1Zm-2.17-1.12a1.88,1.88,0,0,0,1.22-.43,2.05,2.05,0,0,0,.7-1v-1.6h-1.41a1.55,1.55,0,0,0-1.22.5,1.73,1.73,0,0,0-.44,1.19,1.57,1.57,0,0,0,.3,1A1,1,0,0,0,1226.37,248.7Z"/><path class="cls-10" d="M1233.71,249.82H1232V236.87h1.7Z"/><path class="cls-10" d="M1238.32,246.72l.13.61h0l1.76-6.49h1.85l-3.21,10.37a4.78,4.78,0,0,1-.85,1.58,1.94,1.94,0,0,1-1.58.66,2.48,2.48,0,0,1-.45,0l-.47-.1.19-1.25.24,0a1.38,1.38,0,0,0,.26,0,.92.92,0,0,0,.79-.42,3.47,3.47,0,0,0,.45-1l.31-.93-2.83-8.92h1.84Z"/><path class="cls-10" d="M1245.43,238.6v2.24h1.4V242h-1.4v5.35a1.78,1.78,0,0,0,.21,1,.65.65,0,0,0,.56.29,1.1,1.1,0,0,0,.26,0l.29-.08.18,1.17a2.63,2.63,0,0,1-.54.18,2.43,2.43,0,0,1-.61.07,1.88,1.88,0,0,1-1.51-.62,3,3,0,0,1-.54-2V242h-1.18v-1.2h1.18V238.6Z"/><path class="cls-10" d="M1250.16,238.48h-1.7v-1.61h1.7Zm0,11.34h-1.7v-9h1.7Z"/><path class="cls-10" d="M1255.34,248.72a1.34,1.34,0,0,0,1-.49,1.9,1.9,0,0,0,.42-1.3h1.52v0a2.74,2.74,0,0,1-.85,2.14,3,3,0,0,1-2.14.87,3,3,0,0,1-2.57-1.26,5.45,5.45,0,0,1-.9-3.23v-.32a5.45,5.45,0,0,1,.9-3.23,3,3,0,0,1,2.57-1.28,2.86,2.86,0,0,1,2.19.91,3.24,3.24,0,0,1,.81,2.36v0h-1.53a2.49,2.49,0,0,0-.4-1.45,1.23,1.23,0,0,0-1.06-.56,1.42,1.42,0,0,0-1.37.91,5.5,5.5,0,0,0-.42,2.3v.32a5.48,5.48,0,0,0,.42,2.31A1.42,1.42,0,0,0,1255.34,248.72Z"/><path class="cls-10" d="M1264.17,247.55a1.18,1.18,0,0,0-.35-.87,4.72,4.72,0,0,0-1.33-.8,6.49,6.49,0,0,1-2.08-1.13,2,2,0,0,1-.69-1.58,2.29,2.29,0,0,1,.83-1.77,3.23,3.23,0,0,1,2.18-.73,3.14,3.14,0,0,1,2.23.8,2.49,2.49,0,0,1,.81,1.94l0,.05h-1.62a1.71,1.71,0,0,0-.38-1.1,1.24,1.24,0,0,0-1-.46,1.36,1.36,0,0,0-1,.36,1.15,1.15,0,0,0-.36.84,1,1,0,0,0,.31.81,5.22,5.22,0,0,0,1.33.76,6,6,0,0,1,2.12,1.16,2.13,2.13,0,0,1,.71,1.64,2.25,2.25,0,0,1-.86,1.82,3.42,3.42,0,0,1-2.25.7,3.28,3.28,0,0,1-2.38-.84,2.55,2.55,0,0,1-.83-2l0-.05h1.57a1.67,1.67,0,0,0,.49,1.26,1.77,1.77,0,0,0,1.15.38,1.49,1.49,0,0,0,1-.34A1.14,1.14,0,0,0,1264.17,247.55Z"/><path class="cls-10" d="M247.5,321.52v.05a3.57,3.57,0,0,1-1,2.78,4,4,0,0,1-2.83,1,3.84,3.84,0,0,1-3-1.19,4.74,4.74,0,0,1-1.1-3.34v-3.35a4.81,4.81,0,0,1,1.09-3.35,3.74,3.74,0,0,1,2.92-1.2,4.1,4.1,0,0,1,2.89,1,3.54,3.54,0,0,1,1,2.8v0h-1.62a2.74,2.74,0,0,0-.57-1.91,2.21,2.21,0,0,0-1.69-.61,2,2,0,0,0-1.72.84,4,4,0,0,0-.6,2.39v3.38a4,4,0,0,0,.62,2.42,2.05,2.05,0,0,0,1.76.84,2.11,2.11,0,0,0,1.64-.61,2.78,2.78,0,0,0,.55-1.93Z"/><path class="cls-10" d="M248.82,320.57a5.38,5.38,0,0,1,.94-3.28,3.28,3.28,0,0,1,5.2,0,5.32,5.32,0,0,1,1,3.28v.22a5.36,5.36,0,0,1-.95,3.28,3.07,3.07,0,0,1-2.59,1.26,3.11,3.11,0,0,1-2.62-1.26,5.36,5.36,0,0,1-.94-3.28Zm1.69.22a5.18,5.18,0,0,0,.46,2.35,1.51,1.51,0,0,0,1.41.92,1.49,1.49,0,0,0,1.38-.92,5.18,5.18,0,0,0,.46-2.35v-.22a5.22,5.22,0,0,0-.46-2.34,1.52,1.52,0,0,0-2.79,0,5.22,5.22,0,0,0-.46,2.34Z"/><path class="cls-10" d="M259.05,316.18l.1,1.33a3.07,3.07,0,0,1,1-1.1,2.39,2.39,0,0,1,3.18.48,4.58,4.58,0,0,1,.67,2.74v5.53h-1.69v-5.52a3.37,3.37,0,0,0-.35-1.79,1.21,1.21,0,0,0-1.07-.53,1.58,1.58,0,0,0-1,.31,2.14,2.14,0,0,0-.67.83v6.7h-1.69v-9Z"/><path class="cls-10" d="M268.06,313.94v2.24h1.4v1.2h-1.4v5.35a1.78,1.78,0,0,0,.21,1,.65.65,0,0,0,.56.29l.27,0,.29-.07.17,1.16a2.75,2.75,0,0,1-.53.18,2.48,2.48,0,0,1-.61.07,1.87,1.87,0,0,1-1.51-.62,3,3,0,0,1-.54-2v-5.35h-1.19v-1.2h1.19v-2.24Z"/><path class="cls-10" d="M274.23,325.33a3.13,3.13,0,0,1-2.62-1.23,5,5,0,0,1-.95-3.19v-.39a5.25,5.25,0,0,1,.94-3.24,2.94,2.94,0,0,1,2.48-1.27,2.7,2.7,0,0,1,2.33,1.09,4.79,4.79,0,0,1,.8,2.92v1h-4.87a4.41,4.41,0,0,0,.5,2.23,1.62,1.62,0,0,0,1.51.86,3.1,3.1,0,0,0,1.23-.23,3,3,0,0,0,1-.64l.55,1.05a3.57,3.57,0,0,1-1.18.78A4.23,4.23,0,0,1,274.23,325.33Zm-.15-8a1.33,1.33,0,0,0-1.17.67,4.25,4.25,0,0,0-.54,1.79h3.18v-.19a3.29,3.29,0,0,0-.36-1.64A1.19,1.19,0,0,0,274.08,317.31Z"/><path class="cls-10" d="M280.26,316.18l.1,1.33a3.15,3.15,0,0,1,1-1.1,2.41,2.41,0,0,1,3.19.48,4.59,4.59,0,0,1,.66,2.74v5.53h-1.68v-5.52a3.37,3.37,0,0,0-.35-1.79,1.21,1.21,0,0,0-1.07-.53,1.56,1.56,0,0,0-1,.31,2.14,2.14,0,0,0-.67.83v6.7h-1.69v-9Z"/><path class="cls-10" d="M289.27,313.94v2.24h1.4v1.2h-1.4v5.35a1.78,1.78,0,0,0,.21,1,.65.65,0,0,0,.56.29l.27,0,.29-.07.17,1.16a2.63,2.63,0,0,1-.54.18,2.43,2.43,0,0,1-.61.07,1.88,1.88,0,0,1-1.51-.62,3,3,0,0,1-.54-2v-5.35h-1.18v-1.2h1.18v-2.24Z"/><path class="cls-10" d="M301.15,322.93h.05l2.9-9.86h2.16v12.09h-1.68v-8.71h-.05l-2.77,8.72h-1.15l-2.82-8.85h-.05v8.84h-1.67V313.07h2.2Z"/><path class="cls-10" d="M313,325.16c-.07-.27-.13-.51-.17-.73a4.52,4.52,0,0,1-.08-.63,3.34,3.34,0,0,1-.94,1.1,2.18,2.18,0,0,1-1.33.43,2.34,2.34,0,0,1-1.85-.71,2.81,2.81,0,0,1-.64-1.95,2.43,2.43,0,0,1,.89-2,3.78,3.78,0,0,1,2.48-.73h1.38V319a2,2,0,0,0-.36-1.28,1.39,1.39,0,0,0-2-.07,1.49,1.49,0,0,0-.37,1h-1.61v-.05a2.26,2.26,0,0,1,.81-1.84,3.22,3.22,0,0,1,2.26-.8,3,3,0,0,1,2.17.79,2.93,2.93,0,0,1,.83,2.23v4.17a8.14,8.14,0,0,0,.06,1,8.24,8.24,0,0,0,.21,1ZM310.82,324a1.86,1.86,0,0,0,1.22-.43,1.94,1.94,0,0,0,.7-1V321h-1.4a1.55,1.55,0,0,0-1.22.5,1.73,1.73,0,0,0-.44,1.19,1.57,1.57,0,0,0,.3,1A1,1,0,0,0,310.82,324Z"/><path class="cls-10" d="M320.21,317.58l-.73,0a1.27,1.27,0,0,0-.88.32,2,2,0,0,0-.55.9v6.4h-1.69v-9h1.55l.12,1.33a2.87,2.87,0,0,1,.76-1.1,1.59,1.59,0,0,1,1.08-.4,1.36,1.36,0,0,1,.29,0l.24.07Z"/><path class="cls-10" d="M323.91,321h-.63v4.12H321.6v-13h1.68v7.54h.59l2.16-3.57h2l-2.75,4.08,3,4.9h-2Z"/><path class="cls-10" d="M332.41,325.33a3.13,3.13,0,0,1-2.62-1.23,5,5,0,0,1-1-3.19v-.39a5.25,5.25,0,0,1,.94-3.24,2.94,2.94,0,0,1,2.48-1.27,2.7,2.7,0,0,1,2.33,1.09,4.79,4.79,0,0,1,.81,2.92v1h-4.88a4.41,4.41,0,0,0,.5,2.23,1.63,1.63,0,0,0,1.51.86,3.1,3.1,0,0,0,1.23-.23,3,3,0,0,0,1-.64l.55,1.05a3.57,3.57,0,0,1-1.18.78A4.23,4.23,0,0,1,332.41,325.33Zm-.15-8a1.33,1.33,0,0,0-1.17.67,4.12,4.12,0,0,0-.53,1.79h3.18v-.19a3.29,3.29,0,0,0-.37-1.64A1.19,1.19,0,0,0,332.26,317.31Z"/><path class="cls-10" d="M339.08,313.94v2.24h1.4v1.2h-1.4v5.35a1.78,1.78,0,0,0,.21,1,.65.65,0,0,0,.56.29l.27,0,.29-.07.17,1.16a2.75,2.75,0,0,1-.53.18,2.48,2.48,0,0,1-.61.07,1.87,1.87,0,0,1-1.51-.62,3,3,0,0,1-.54-2v-5.35H336.2v-1.2h1.19v-2.24Z"/><path class="cls-10" d="M343.81,313.82h-1.69v-1.61h1.69Zm0,11.34h-1.69v-9h1.69Z"/><path class="cls-10" d="M347.4,316.18l.1,1.33a3,3,0,0,1,1-1.1,2.26,2.26,0,0,1,1.32-.4,2.21,2.21,0,0,1,1.86.88,4.51,4.51,0,0,1,.67,2.74v5.53h-1.68v-5.52a3.26,3.26,0,0,0-.36-1.79,1.19,1.19,0,0,0-1.06-.53,1.61,1.61,0,0,0-1,.31,2,2,0,0,0-.66.83v6.7h-1.7v-9Z"/><path class="cls-10" d="M354,320.78a6.67,6.67,0,0,1,.78-3.46A2.48,2.48,0,0,1,357,316a2.23,2.23,0,0,1,1.23.34,2.61,2.61,0,0,1,.9,1l.16-1.13h1.41v9a3.64,3.64,0,0,1-.92,2.66,3.46,3.46,0,0,1-2.6,1,4.56,4.56,0,0,1-1.22-.18,4.62,4.62,0,0,1-1.18-.47l.28-1.26a4.36,4.36,0,0,0,1,.4,4.07,4.07,0,0,0,1.11.14,1.69,1.69,0,0,0,1.4-.55,2.7,2.7,0,0,0,.45-1.7v-.89a2.5,2.5,0,0,1-.87.79,2.39,2.39,0,0,1-1.16.26,2.51,2.51,0,0,1-2.21-1.2A5.76,5.76,0,0,1,354,321Zm1.69.17a5.17,5.17,0,0,0,.41,2.25,1.39,1.39,0,0,0,1.32.83,1.59,1.59,0,0,0,1-.29,2,2,0,0,0,.64-.82V318.5a2.18,2.18,0,0,0-.64-.86,1.47,1.47,0,0,0-.95-.32,1.39,1.39,0,0,0-1.32,1,6.29,6.29,0,0,0-.42,2.5Z"/><path class="cls-9" d="M281.94,244.21v11.35"/><path class="cls-9" d="M281.94,263.05v10.7a2.26,2.26,0,0,1-2.27,2.26H241.05a2.27,2.27,0,0,1-2.27-2.26V223.28a2.27,2.27,0,0,1,2.27-2.27h38.62a2.27,2.27,0,0,1,2.27,2.27v3.82"/><path class="cls-9" d="M238.78,270.81a3.09,3.09,0,1,1,3.09-3.09"/><path class="cls-9" d="M238.78,261.33a3.1,3.1,0,1,1,3.09-3.09"/><path class="cls-9" d="M238.78,251.85a3.1,3.1,0,1,1,3.09-3.1"/><path class="cls-9" d="M238.78,242.36a3.09,3.09,0,1,1,3.09-3.09"/><path class="cls-9" d="M238.78,232.88a3.09,3.09,0,1,1,3.09-3.09"/><line class="cls-9" x1="245.22" y1="227.93" x2="267.53" y2="227.93"/><line class="cls-9" x1="245.22" y1="233.71" x2="267.53" y2="233.71"/><line class="cls-9" x1="245.22" y1="239.48" x2="267.53" y2="239.48"/><circle class="cls-9" cx="281.94" cy="235.89" r="8.03"/><ellipse class="cls-9" cx="262.76" cy="255.2" rx="2.49" ry="6.24" transform="translate(-53.23 69.94) rotate(-13.78)"/><path class="cls-9" d="M260.58,249.64,249,256.13a2.79,2.79,0,0,0-1.32,3h0a2.79,2.79,0,0,0,2.72,2.2h13.78"/><path class="cls-9" d="M257.74,262.61a3.22,3.22,0,0,1-6.43-.09v-.16"/><line class="cls-9" x1="266.93" y1="250.12" x2="267.84" y2="248.51"/><line class="cls-9" x1="267.97" y1="253.92" x2="270.34" y2="253.34"/><line class="cls-9" x1="268.3" y1="257.67" x2="270.73" y2="259.06"/><path class="cls-9" d="M272.53,269.18c.11-.15,2.23-5.39,2.23-5.39l11.48-11.27a2,2,0,0,1,2.74,0h0a2,2,0,0,1,0,2.81l-11.36,11.46Z"/><line class="cls-9" x1="274.76" y1="263.79" x2="277.66" y2="266.76"/><line class="cls-9" x1="284.8" y1="253.93" x2="287.66" y2="256.67"/><polygon class="cls-9" points="279.99 233.2 279.99 238.59 285.72 235.37 279.99 233.2"/><circle class="cls-9" cx="443.67" cy="144.02" r="17.11"/><path class="cls-9" d="M464.15,153l7.84.88,1.18-4.57-7.27-2.86a22.11,22.11,0,0,0,.15-2.46,22.35,22.35,0,0,0-.19-2.73l.19,0,7.12-2.8-1.36-4s-7.64.6-7.65.59a24.17,24.17,0,0,0-2.65-4.54l4.54-6.37-2.83-2.89s-6.58,4.54-6.61,4.54a23.83,23.83,0,0,0-3.53-2.07v-8.45l-3.89-.81L446,121.77a22.85,22.85,0,0,0-2.36-.13c-.75,0-1.49,0-2.21.11l0-.11-3.89-7.54-3.71,1,1.11,8.33a23.64,23.64,0,0,0-4.41,2.5l-6.65-4.28-3.26,2.59s4.79,6.87,4.81,6.88a23.7,23.7,0,0,0-2.1,3.6l-8.14-.8-1.45,4,7.73,3.55a22.06,22.06,0,0,0-.16,2.58,21.06,21.06,0,0,0,.17,2.65l-.17.09-7.57,3,1.27,3.62,8.09-.56a23.75,23.75,0,0,0,2.33,4.15l-4.63,6.54,3,2.9,6.34-4.61a24.43,24.43,0,0,0,3.74,2.34l-.39,8.42,4.07,1s3.42-7.31,3.43-7.32a22.06,22.06,0,0,0,2.72.18,22.75,22.75,0,0,0,2.62-.15"/><path class="cls-9" d="M451,167.82c.46-.35,9.43-5.44,9.43-5.44L467.82,176a5.47,5.47,0,0,1-2.17,7.41h0a5.49,5.49,0,0,1-7.5-2.22Z"/><circle class="cls-9" cx="462.6" cy="177.83" r="2.37"/><line class="cls-9" x1="449.5" y1="160.05" x2="453.16" y2="166.55"/><line class="cls-9" x1="454.2" y1="157.5" x2="458" y2="163.78"/><circle class="cls-9" cx="637.58" cy="247.8" r="24.8"/><circle class="cls-9" cx="637.58" cy="247.8" r="18.77"/><line class="cls-9" x1="637.45" y1="213.51" x2="637.45" y2="216.02"/><line class="cls-9" x1="637.45" y1="281.01" x2="637.45" y2="283.51"/><line class="cls-9" x1="672.45" y1="248.51" x2="669.95" y2="248.51"/><line class="cls-9" x1="604.96" y1="248.51" x2="602.45" y2="248.51"/><line class="cls-9" x1="662.2" y1="273.26" x2="660.43" y2="271.49"/><line class="cls-9" x1="614.48" y1="225.54" x2="612.71" y2="223.76"/><line class="cls-9" x1="612.71" y1="273.26" x2="614.48" y2="271.49"/><line class="cls-9" x1="660.43" y1="225.54" x2="662.2" y2="223.76"/><line class="cls-9" x1="637.58" y1="229.03" x2="637.58" y2="233.96"/><line class="cls-9" x1="637.58" y1="266.57" x2="637.58" y2="262.83"/><path class="cls-1" d="M640,252a2.25,2.25,0,0,0-.55-1.57,5,5,0,0,0-1.89-1.12,11.76,11.76,0,0,1-3.91-2.14,4.32,4.32,0,0,1-1.27-3.33,4.42,4.42,0,0,1,1.27-3.26,5.47,5.47,0,0,1,3.43-1.5v-2.55h1.89v2.58a5,5,0,0,1,3.27,1.73,5.51,5.51,0,0,1,1.17,3.73l0,.06H640a3.45,3.45,0,0,0-.58-2.16,1.84,1.84,0,0,0-1.57-.76,1.87,1.87,0,0,0-1.51.59,2.28,2.28,0,0,0-.5,1.55,2.09,2.09,0,0,0,.53,1.5,5.17,5.17,0,0,0,1.94,1.14,12.34,12.34,0,0,1,3.87,2.2,4.23,4.23,0,0,1,1.27,3.28,4.41,4.41,0,0,1-1.27,3.3,5.58,5.58,0,0,1-3.45,1.45v2.35h-1.88v-2.33a6.19,6.19,0,0,1-3.67-1.57,5,5,0,0,1-1.39-4l0-.05h3.38a3,3,0,0,0,.73,2.27,2.57,2.57,0,0,0,1.85.69,2.2,2.2,0,0,0,1.65-.58A2.06,2.06,0,0,0,640,252Z"/><circle class="cls-9" cx="827.93" cy="149.1" r="19.93"/><rect class="cls-9" x="822.88" y="133.77" width="10.69" height="14.84" rx="1.91"/><path class="cls-9" d="M822.88,139s2.84-2.84,4.78-.9c1.26,1.09,4.24,1.58,5.91-.13"/><path class="cls-9" d="M826.53,148.61v1.81c.5,0-7.4,1-8.53,4.37v5.57a3.46,3.46,0,0,0,3.46,3.46h13.26a3.45,3.45,0,0,0,3.45-3.46v-5.48s-.76-2.84-8.66-4.33v-1.94"/><path class="cls-9" d="M825.08,150.73s-.35,4.56,2.85,5c1.9,0,2.87-1.72,3.24-4.83"/><line class="cls-9" x1="828.22" y1="129.16" x2="828.22" y2="123.74"/><circle class="cls-9" cx="828.25" cy="118.8" r="4.7"/><line class="cls-9" x1="828.27" y1="169.03" x2="828.27" y2="174.45"/><circle class="cls-9" cx="828.25" cy="179.4" r="4.7"/><line class="cls-9" x1="848.18" y1="149.08" x2="853.6" y2="149.08"/><circle class="cls-9" cx="858.55" cy="149.1" r="4.7"/><line class="cls-9" x1="808.31" y1="149.12" x2="802.89" y2="149.12"/><circle class="cls-9" cx="797.94" cy="149.1" r="4.7"/><line class="cls-9" x1="842.85" y1="134.47" x2="845.55" y2="131.77"/><circle class="cls-9" cx="848.02" cy="129.32" r="3.31"/><line class="cls-9" x1="813.62" y1="163.74" x2="810.93" y2="166.44"/><circle class="cls-9" cx="808.45" cy="168.89" r="3.31"/><line class="cls-9" x1="842.85" y1="163.68" x2="845.55" y2="166.38"/><circle class="cls-9" cx="848" cy="168.85" r="3.31"/><line class="cls-9" x1="813.63" y1="134.5" x2="810.93" y2="131.8"/><circle class="cls-9" cx="808.48" cy="129.33" r="3.31"/><path class="cls-9" d="M1035.42,235.77h9.69a4.88,4.88,0,0,1,4.88,4.88v38a4.87,4.87,0,0,1-4.88,4.87H984.58a4.87,4.87,0,0,1-4.87-4.87v-38a4.88,4.88,0,0,1,4.87-4.88h13.18"/><path class="cls-9" d="M985.29,235.77,1012,261.59a4.16,4.16,0,0,0,5.78,0l26.85-25.83"/><line class="cls-9" x1="986.05" y1="276.22" x2="999.6" y2="262.76"/><line class="cls-9" x1="1043.55" y1="276.12" x2="1029.34" y2="262.3"/><path class="cls-9" d="M997.61,242.59c.19-.38,0-29.08,0-29.08h37.6v3.89"/><line class="cls-9" x1="1035.21" y1="235.77" x2="1035.21" y2="240.98"/><line class="cls-9" x1="1033.11" y1="222.47" x2="1043.46" y2="222.47"/><line class="cls-9" x1="1033.11" y1="226.8" x2="1049.63" y2="226.8"/><line class="cls-9" x1="1033.11" y1="231.45" x2="1043.06" y2="231.45"/><rect class="cls-9" x="1008.33" y="223.4" width="8.08" height="6.43"/><path class="cls-9" d="M1009.4,229.83h5.94a0,0,0,0,1,0,0v9.48a.79.79,0,0,1-.79.79h-4.36a.79.79,0,0,1-.79-.79v-9.48a0,0,0,0,1,0,0Z"/><path class="cls-9" d="M1016.41,224.89c0-.19,12.21-7.49,12.21-7.49v18.68l-12.21-7.3Z"/><circle class="cls-9" cx="1210.11" cy="148.84" r="7.41"/><circle class="cls-9" cx="1210.11" cy="119.02" r="4.93"/><line class="cls-9" x1="1210.11" y1="123.95" x2="1210.11" y2="141.48"/><circle class="cls-9" cx="1210.11" cy="179.17" r="4.93"/><line class="cls-9" x1="1210.11" y1="174.25" x2="1210.11" y2="156.71"/><circle class="cls-9" cx="1240.18" cy="149.1" r="4.93"/><line class="cls-9" x1="1235.26" y1="149.1" x2="1217.72" y2="149.1"/><circle class="cls-9" cx="1180.04" cy="149.1" r="4.93"/><line class="cls-9" x1="1184.96" y1="149.1" x2="1202.5" y2="149.1"/><circle class="cls-9" cx="1231.38" cy="127.83" r="4.93"/><line class="cls-9" x1="1227.89" y1="131.31" x2="1215.49" y2="143.71"/><circle class="cls-9" cx="1188.84" cy="170.36" r="4.93"/><line class="cls-9" x1="1192.33" y1="166.88" x2="1204.73" y2="154.48"/><circle class="cls-9" cx="1231.38" cy="170.36" r="4.93"/><line class="cls-9" x1="1227.89" y1="166.88" x2="1215.49" y2="154.48"/><circle class="cls-9" cx="1188.84" cy="127.83" r="4.93"/><line class="cls-9" x1="1192.33" y1="131.31" x2="1204.73" y2="143.71"/></svg>