<?xml version="1.0" encoding="utf-8"?>
<!-- Generator: Adobe Illustrator 23.0.2, SVG Export Plug-In . SVG Version: 6.00 Build 0)  -->
<svg version="1.0" id="Layer_1" xmlns="http://www.w3.org/2000/svg" xmlns:xlink="http://www.w3.org/1999/xlink" x="0px" y="0px"
	 viewBox="0 0 1451.34 1451.34" style="enable-background:new 0 0 1451.34 1451.34;" xml:space="preserve">
<style type="text/css">
	.st0{fill:url(#SVGID_1_);}
	.st1{fill:url(#SVGID_2_);}
	.st2{fill:url(#SVGID_3_);}
	.st3{fill:url(#SVGID_4_);}
	.st4{fill:url(#SVGID_5_);}
	.st5{fill:url(#SVGID_6_);}
	.st6{fill:url(#SVGID_7_);}
	.st7{opacity:0.7;fill:#CCD9E7;}
	.st8{fill:#CCD9E7;}
	.st9{fill:#FFFFFF;}
	.st10{font-family:'Roboto-Condensed';}
	.st11{font-size:37.0232px;}
	.st12{font-family:'Roboto-Light';}
	.st13{fill:none;stroke:#FFFFFF;stroke-linecap:round;stroke-linejoin:round;stroke-miterlimit:10;}
	.st14{font-family:'Roboto-Bold';}
	.st15{font-size:61.7053px;}
	.st16{fill:none;stroke:url(#SVGID_8_);stroke-width:2;stroke-miterlimit:10;}
	.st17{fill:none;stroke:url(#SVGID_9_);stroke-width:2;stroke-miterlimit:10;}
	.st18{fill:none;stroke:url(#SVGID_10_);stroke-width:2;stroke-miterlimit:10;}
	.st19{fill:none;stroke:url(#SVGID_11_);stroke-width:2;stroke-miterlimit:10;}
	.st20{fill:none;stroke:url(#SVGID_12_);stroke-width:2;stroke-miterlimit:10;}
	.st21{fill:none;stroke:url(#SVGID_13_);stroke-width:2;stroke-miterlimit:10;}
</style>
<g>
	<linearGradient id="SVGID_1_" gradientUnits="userSpaceOnUse" x1="81.0882" y1="459.2276" x2="643.825" y2="459.2276">
		<stop  offset="0" style="stop-color:#0562A0"/>
		<stop  offset="1" style="stop-color:#3087C8"/>
	</linearGradient>
	<circle class="st0" cx="362.46" cy="459.23" r="281.37"/>
	<linearGradient id="SVGID_2_" gradientUnits="userSpaceOnUse" x1="-6.6164" y1="844.6692" x2="556.1204" y2="844.6692">
		<stop  offset="0" style="stop-color:#0562A0"/>
		<stop  offset="1" style="stop-color:#3087C8"/>
	</linearGradient>
	<circle class="st1" cx="274.75" cy="844.67" r="281.37"/>
	<linearGradient id="SVGID_3_" gradientUnits="userSpaceOnUse" x1="237.8583" y1="1164.865" x2="800.5951" y2="1164.865">
		<stop  offset="0" style="stop-color:#0562A0"/>
		<stop  offset="1" style="stop-color:#3087C8"/>
	</linearGradient>
	<circle class="st2" cx="519.23" cy="1164.86" r="281.37"/>
	<linearGradient id="SVGID_4_" gradientUnits="userSpaceOnUse" x1="629.9198" y1="1153.1938" x2="1192.6565" y2="1153.1938">
		<stop  offset="0" style="stop-color:#0562A0"/>
		<stop  offset="1" style="stop-color:#3087C8"/>
	</linearGradient>
	<circle class="st3" cx="911.29" cy="1153.19" r="281.37"/>
	<linearGradient id="SVGID_5_" gradientUnits="userSpaceOnUse" x1="874.9288" y1="844.6692" x2="1437.6655" y2="844.6692">
		<stop  offset="0" style="stop-color:#0562A0"/>
		<stop  offset="1" style="stop-color:#3087C8"/>
	</linearGradient>
	<circle class="st4" cx="1156.3" cy="844.67" r="281.37"/>
	<linearGradient id="SVGID_6_" gradientUnits="userSpaceOnUse" x1="789.3519" y1="459.2276" x2="1352.0886" y2="459.2276">
		<stop  offset="0" style="stop-color:#0562A0"/>
		<stop  offset="1" style="stop-color:#3087C8"/>
	</linearGradient>
	<circle class="st5" cx="1070.72" cy="459.23" r="281.37"/>
	<linearGradient id="SVGID_7_" gradientUnits="userSpaceOnUse" x1="432.7708" y1="281.9324" x2="995.5076" y2="281.9324">
		<stop  offset="0" style="stop-color:#0562A0"/>
		<stop  offset="1" style="stop-color:#3087C8"/>
	</linearGradient>
	<circle class="st6" cx="714.14" cy="281.93" r="281.37"/>
	<circle class="st7" cx="714.41" cy="738.44" r="390.73"/>
	<circle class="st8" cx="714.41" cy="738.44" r="309.56"/>
	<text transform="matrix(1 0 0 1 567.5171 227.0762)"><tspan x="0" y="0" class="st9 st10 st11">Integrated Planning:</tspan><tspan x="47.55" y="44.43" class="st9 st12 st11">Always-on + </tspan><tspan x="53.89" y="88.86" class="st9 st12 st11">Campaigns</tspan></text>
	<text transform="matrix(1 0 0 1 1193.585 883.3223)"><tspan x="0" y="0" class="st9 st10 st11">SEO:</tspan><tspan x="-28.95" y="44.43" class="st9 st12 st11">Organic</tspan><tspan x="-22.64" y="88.86" class="st9 st12 st11">Search</tspan></text>
	<text transform="matrix(1 0 0 1 855.9014 1281.2813)"><tspan x="0" y="0" class="st9 st10 st11">Paid Search:</tspan><tspan x="18.7" y="44.43" class="st9 st12 st11">Adwords</tspan></text>
	<text transform="matrix(1 0 0 1 395.3486 1294.0117)"><tspan x="0" y="0" class="st9 st10 st11">Social Media</tspan><tspan x="19.8" y="44.43" class="st9 st10 st11">Marketing</tspan></text>
	<text transform="matrix(1 0 0 1 139.3682 883.3223)"><tspan x="0" y="0" class="st9 st10 st11">Email</tspan><tspan x="-39.83" y="44.43" class="st9 st10 st11">Marketing-</tspan><tspan x="-32.71" y="88.86" class="st9 st10 st11">Marketing</tspan><tspan x="-44.59" y="133.28" class="st9 st10 st11">Automation</tspan></text>
	<text transform="matrix(1 0 0 1 172.1138 466.2637)"><tspan x="0" y="0" class="st9 st10 st11">Multi-Channel</tspan><tspan x="35.95" y="44.43" class="st9 st10 st11">Analytics</tspan></text>
	<text transform="matrix(1 0 0 1 1089.0234 453.9082)"><tspan x="0" y="0" class="st9 st10 st11">Content</tspan><tspan x="-15.67" y="44.43" class="st9 st10 st11">Marketing</tspan></text>
	<g>
		<path class="st13" d="M764.84,114.73c0-6.92,5.61-12.53,12.53-12.53c1.86,0,3.6,0.43,5.19,1.16V79.94h-22.58
			c0.5-1.36,0.82-2.8,0.82-4.33c0-6.92-5.61-12.53-12.53-12.53c-6.92,0-12.53,5.61-12.53,12.53c0,1.53,0.31,2.98,0.82,4.33h-22.63
			v23.55c1.65-0.8,3.48-1.29,5.44-1.29c6.92,0,12.53,5.61,12.53,12.53c0,6.92-5.61,12.53-12.53,12.53c-1.96,0-3.79-0.49-5.44-1.29
			v22.3h68.62V126.1c-1.59,0.73-3.33,1.16-5.19,1.16C770.45,127.25,764.84,121.65,764.84,114.73z"/>
		<path class="st13" d="M719.37,102.2c-1.96,0-3.79,0.49-5.44,1.29V79.94h-68.21v68.33h22.8c-0.71,1.57-1.12,3.3-1.12,5.13
			c0,6.92,5.61,12.53,12.53,12.53c6.92,0,12.53-5.61,12.53-12.53c0-1.83-0.42-3.56-1.12-5.13h22.61v-22.3
			c1.65,0.8,3.48,1.29,5.44,1.29c6.92,0,12.53-5.61,12.53-12.53C731.89,107.81,726.29,102.2,719.37,102.2z"/>
	</g>
	<g>
		<path class="st13" d="M1181.86,330.07c0,7.33,0,14.04,0,21.23"/>
		<path class="st13" d="M1181.86,365.3c0,11.69,0,20,0,20c0,2.34-1.9,4.24-4.24,4.24h-72.23c-2.34,0-4.24-1.9-4.24-4.24v-94.37
			c0-2.34,1.9-4.24,4.24-4.24h72.23c2.34,0,4.24,1.9,4.24,4.24c0,0,0,1.49,0,7.14"/>
		<path class="st13" d="M1101.17,379.81c-3.19,0-5.78-2.59-5.78-5.78s2.59-5.78,5.78-5.78c3.19,0,5.78,2.59,5.78,5.78"/>
		<path class="st13" d="M1101.17,362.08c-3.19,0-5.78-2.59-5.78-5.78s2.59-5.78,5.78-5.78c3.19,0,5.78,2.59,5.78,5.78"/>
		<path class="st13" d="M1101.17,344.35c-3.19,0-5.78-2.59-5.78-5.78c0-3.19,2.59-5.78,5.78-5.78c3.19,0,5.78,2.59,5.78,5.78"/>
		<path class="st13" d="M1101.17,326.61c-3.19,0-5.78-2.59-5.78-5.78s2.59-5.78,5.78-5.78c3.19,0,5.78,2.59,5.78,5.78"/>
		<path class="st13" d="M1101.17,308.88c-3.19,0-5.78-2.59-5.78-5.78s2.59-5.78,5.78-5.78c3.19,0,5.78,2.59,5.78,5.78"/>
		<line class="st13" x1="1113.21" y1="299.63" x2="1154.91" y2="299.63"/>
		<line class="st13" x1="1113.21" y1="310.43" x2="1154.91" y2="310.43"/>
		<line class="st13" x1="1113.21" y1="321.23" x2="1154.91" y2="321.23"/>
		<circle class="st13" cx="1181.86" cy="314.52" r="15.02"/>
		
			<ellipse transform="matrix(0.9712 -0.2382 0.2382 0.9712 -50.5306 283.0888)" class="st13" cx="1146.01" cy="350.61" rx="4.65" ry="11.67"/>
		<path class="st13" d="M1141.93,340.23l-21.71,12.14c-1.95,1.14-2.95,3.4-2.47,5.6v0c0.52,2.4,2.64,4.11,5.1,4.11h25.76"/>
		<path class="st13" d="M1136.62,364.47c-0.09,3.25-2.75,5.85-6.02,5.85c-3.32,0-6.02-2.69-6.02-6.02c0-0.1,0-0.2,0.01-0.3"/>
		<line class="st13" x1="1153.8" y1="341.12" x2="1155.5" y2="338.11"/>
		<line class="st13" x1="1155.75" y1="348.22" x2="1160.18" y2="347.14"/>
		<line class="st13" x1="1156.36" y1="355.23" x2="1160.91" y2="357.84"/>
		<path class="st13" d="M1164.28,376.75c0.21-0.28,4.17-10.07,4.17-10.07l21.47-21.09c1.41-1.39,3.67-1.41,5.11-0.04l0,0
			c1.5,1.42,1.53,3.79,0.08,5.26l-21.24,21.43L1164.28,376.75z"/>
		<line class="st13" x1="1168.44" y1="366.68" x2="1173.86" y2="372.24"/>
		<line class="st13" x1="1187.22" y1="348.24" x2="1192.56" y2="353.37"/>
		<polygon class="st13" points="1178.22,309.48 1178.22,319.55 1188.93,313.54 		"/>
	</g>
	<g>
		<circle class="st13" cx="1228.08" cy="773.28" r="25.13"/>
		<path class="st13" d="M1258.18,786.52l11.51,1.29l1.73-6.72c0,0-10.67-4.19-10.67-4.19c0.13-1.19,0.21-2.39,0.21-3.62
			c0-1.36-0.11-2.7-0.27-4.02l0.27-0.07l10.46-4.12l-1.99-5.85c0,0-11.22,0.88-11.24,0.87c-1.04-2.38-2.38-4.6-3.9-6.67l6.67-9.36
			l-4.16-4.25c0,0-9.66,6.67-9.7,6.68c-1.63-1.16-3.37-2.17-5.19-3.05v-12.41l-5.72-1.2c0,0-4.64,10.74-4.64,10.74
			c-1.14-0.12-2.3-0.19-3.48-0.19c-1.1,0-2.18,0.06-3.25,0.16l-0.07-0.16l-5.72-11.09l-5.45,1.46c0,0,1.63,12.23,1.63,12.23
			c-2.3,0.98-4.45,2.24-6.48,3.68l-9.77-6.29l-4.79,3.8c0,0,7.05,10.09,7.07,10.1c-1.17,1.65-2.18,3.41-3.08,5.29l-11.96-1.17
			l-2.13,5.85c0,0,11.34,5.19,11.35,5.21c-0.14,1.25-0.24,2.51-0.24,3.8c0,1.32,0.1,2.61,0.25,3.89l-0.25,0.14l-11.12,4.39
			l1.86,5.32c0,0,11.89-0.82,11.89-0.82c0.92,2.16,2.09,4.19,3.42,6.11l-6.8,9.6l4.39,4.26c0,0,9.28-6.76,9.31-6.77
			c1.71,1.31,3.56,2.45,5.5,3.44l-0.58,12.36l5.98,1.46c0,0,5.03-10.74,5.03-10.76c1.31,0.16,2.64,0.27,4,0.27
			c1.3,0,2.59-0.08,3.85-0.22"/>
		<path class="st13" d="M1238.9,808.25c0.68-0.51,13.86-7.99,13.86-7.99l10.82,20c2.11,3.89,0.68,8.76-3.19,10.9l0,0
			c-3.94,2.18-8.9,0.71-11.01-3.27L1238.9,808.25z"/>
		<circle class="st13" cx="1255.9" cy="822.96" r="3.49"/>
		<line class="st13" x1="1236.65" y1="796.84" x2="1242.03" y2="806.39"/>
		<line class="st13" x1="1243.55" y1="793.09" x2="1249.13" y2="802.32"/>
	</g>
	<g>
		<circle class="st13" cx="946.99" cy="1185.8" r="36.44"/>
		<circle class="st13" cx="946.99" cy="1185.8" r="27.58"/>
		<g>
			<line class="st13" x1="946.81" y1="1135.42" x2="946.81" y2="1139.1"/>
			<line class="st13" x1="946.81" y1="1234.59" x2="946.81" y2="1238.27"/>
		</g>
		<g>
			<line class="st13" x1="998.24" y1="1186.84" x2="994.56" y2="1186.84"/>
			<line class="st13" x1="899.07" y1="1186.84" x2="895.39" y2="1186.84"/>
		</g>
		<g>
			<line class="st13" x1="983.17" y1="1223.2" x2="980.57" y2="1220.6"/>
			<line class="st13" x1="913.06" y1="1153.09" x2="910.45" y2="1150.48"/>
		</g>
		<g>
			<line class="st13" x1="910.45" y1="1223.2" x2="913.06" y2="1220.6"/>
			<line class="st13" x1="980.57" y1="1153.09" x2="983.17" y2="1150.48"/>
		</g>
		<line class="st13" x1="946.99" y1="1158.22" x2="946.99" y2="1165.46"/>
		<line class="st13" x1="946.99" y1="1213.38" x2="946.99" y2="1207.88"/>
		<g>
			<path class="st9" d="M950.5,1191.96c0-0.94-0.27-1.71-0.81-2.3c-0.54-0.59-1.46-1.14-2.77-1.65c-2.58-0.94-4.49-1.99-5.74-3.14
				c-1.25-1.16-1.87-2.78-1.87-4.88c0-1.95,0.62-3.55,1.87-4.8c1.25-1.25,2.93-1.98,5.04-2.2v-3.74h2.77v3.78
				c2.04,0.3,3.65,1.15,4.82,2.56c1.16,1.4,1.74,3.23,1.72,5.47l-0.05,0.09h-4.96c0-1.37-0.28-2.43-0.84-3.17
				c-0.56-0.74-1.33-1.11-2.31-1.11c-1,0-1.74,0.29-2.23,0.86c-0.49,0.57-0.73,1.34-0.73,2.29c0,0.91,0.26,1.64,0.77,2.2
				c0.52,0.56,1.47,1.12,2.85,1.66c2.56,1.01,4.46,2.09,5.7,3.24c1.24,1.15,1.85,2.76,1.85,4.82c0,2.02-0.62,3.64-1.86,4.84
				c-1.24,1.21-2.93,1.92-5.07,2.14v3.45h-2.77v-3.43c-2.17-0.22-3.96-0.99-5.38-2.3c-1.42-1.32-2.1-3.25-2.05-5.81l0.03-0.08h4.96
				c0,1.56,0.36,2.67,1.07,3.34c0.71,0.67,1.62,1.01,2.72,1.01c1.06,0,1.87-0.28,2.43-0.84
				C950.21,1193.67,950.5,1192.91,950.5,1191.96z"/>
		</g>
	</g>
	<text transform="matrix(1 0 0 1 601.4092 729.3184)"><tspan x="0" y="0" class="st14 st15">DIGITAL</tspan><tspan x="-96.94" y="74.05" class="st14 st15">EXPERIENCES:</tspan><tspan x="-108.9" y="148.09" class="st12 st15">Desktop, Mobile,</tspan><tspan x="6.3" y="222.14" class="st12 st15">In-Store</tspan></text>
	<g>
		<circle class="st13" cx="487.48" cy="1191.88" r="29.28"/>
		<path class="st13" d="M493.85,1191.17h-11.89c-1.05,0-1.91-0.85-1.91-1.91v-17.99c0-1.05,0.85-1.91,1.91-1.91h11.89
			c1.05,0,1.91,0.85,1.91,1.91v17.99C495.76,1190.31,494.9,1191.17,493.85,1191.17z"/>
		<path class="st13" d="M480.05,1176.98c0,0,4.18-4.18,7.03-1.33c1.86,1.59,6.23,2.32,8.68-0.2"/>
		<path class="st13" d="M485.42,1191.17v2.65c0.73,0-10.87,1.46-12.53,6.43v8.19c0,2.8,2.27,5.07,5.07,5.07h19.49
			c2.8,0,5.07-2.27,5.07-5.07v-8.05c0,0-1.13-4.18-12.73-6.36c0-0.73,0-2.85,0-2.85"/>
		<path class="st13" d="M483.28,1194.28c0,0-0.51,6.69,4.2,7.36c2.78,0,4.21-2.53,4.75-7.1"/>
		<g>
			<g>
				<line class="st13" x1="487.9" y1="1162.6" x2="487.9" y2="1154.63"/>
				<circle class="st13" cx="487.93" cy="1147.36" r="6.9"/>
			</g>
			<g>
				<line class="st13" x1="487.97" y1="1221.16" x2="487.97" y2="1229.13"/>
				<circle class="st13" cx="487.93" cy="1236.4" r="6.9"/>
			</g>
		</g>
		<g>
			<g>
				<line class="st13" x1="517.22" y1="1191.85" x2="525.19" y2="1191.85"/>
				<circle class="st13" cx="532.45" cy="1191.88" r="6.9"/>
			</g>
			<g>
				<line class="st13" x1="458.65" y1="1191.91" x2="450.68" y2="1191.91"/>
				<circle class="st13" cx="443.42" cy="1191.88" r="6.9"/>
			</g>
		</g>
		<g>
			<line class="st13" x1="509.39" y1="1170.39" x2="513.36" y2="1166.43"/>
			<circle class="st13" cx="516.99" cy="1162.83" r="4.86"/>
		</g>
		<g>
			<line class="st13" x1="466.45" y1="1213.39" x2="462.49" y2="1217.36"/>
			<circle class="st13" cx="458.86" cy="1220.96" r="4.86"/>
		</g>
		<g>
			<line class="st13" x1="509.39" y1="1213.3" x2="513.35" y2="1217.27"/>
			<circle class="st13" cx="516.95" cy="1220.9" r="4.86"/>
		</g>
		<g>
			<line class="st13" x1="466.45" y1="1170.43" x2="462.49" y2="1166.47"/>
			<circle class="st13" cx="458.89" cy="1162.84" r="4.86"/>
		</g>
	</g>
	<g>
		<path class="st13" d="M209.66,756.46c8.53,0,14.24,0,14.24,0c3.96,0,7.17,3.21,7.17,7.17v55.8c0,3.96-3.21,7.17-7.17,7.17h-88.93
			c-3.96,0-7.17-3.21-7.17-7.17v-55.8c0-3.96,3.21-7.17,7.17-7.17c0,0,8.07,0,19.35,0"/>
		<path class="st13" d="M136.02,756.46l39.18,37.93c2.36,2.29,6.11,2.29,8.48,0.01l39.45-37.94"/>
		<line class="st13" x1="137.13" y1="815.89" x2="157.03" y2="796.11"/>
		<line class="st13" x1="221.6" y1="815.75" x2="200.73" y2="795.43"/>
		<path class="st13" d="M154.11,766.48c0.28-0.56,0-42.72,0-42.72h55.25v5.71"/>
		<line class="st13" x1="209.36" y1="756.46" x2="209.36" y2="764.12"/>
		<line class="st13" x1="206.27" y1="736.92" x2="221.47" y2="736.92"/>
		<line class="st13" x1="206.27" y1="743.28" x2="230.55" y2="743.28"/>
		<line class="st13" x1="206.27" y1="750.11" x2="220.88" y2="750.11"/>
		<rect x="169.86" y="738.29" class="st13" width="11.87" height="9.45"/>
		<path class="st13" d="M179.37,762.82h-7.15c-0.44,0-0.79-0.35-0.79-0.79v-14.3h8.72v14.3
			C180.16,762.47,179.81,762.82,179.37,762.82z"/>
		<path class="st13" d="M181.73,740.47c0-0.27,17.93-10.99,17.93-10.99v27.44l-17.93-10.72V740.47z"/>
	</g>
	<g>
		<circle class="st13" cx="274.75" cy="344.39" r="10.88"/>
		<g>
			<g>
				<circle class="st13" cx="274.75" cy="300.59" r="7.24"/>
				<line class="st13" x1="274.75" y1="307.83" x2="274.75" y2="333.6"/>
			</g>
			<g>
				<circle class="st13" cx="274.75" cy="388.96" r="7.24"/>
				<line class="st13" x1="274.75" y1="381.73" x2="274.75" y2="355.96"/>
			</g>
		</g>
		<g>
			<g>
				<circle class="st13" cx="318.93" cy="344.78" r="7.24"/>
				<line class="st13" x1="311.7" y1="344.78" x2="285.93" y2="344.78"/>
			</g>
			<g>
				<circle class="st13" cx="230.56" cy="344.78" r="7.24"/>
				<line class="st13" x1="237.8" y1="344.78" x2="263.57" y2="344.78"/>
			</g>
		</g>
		<g>
			<g>
				<circle class="st13" cx="305.99" cy="313.54" r="7.24"/>
				<line class="st13" x1="300.88" y1="318.65" x2="282.66" y2="336.87"/>
			</g>
			<g>
				<circle class="st13" cx="243.51" cy="376.02" r="7.24"/>
				<line class="st13" x1="248.62" y1="370.91" x2="266.84" y2="352.69"/>
			</g>
		</g>
		<g>
			<g>
				<circle class="st13" cx="305.99" cy="376.02" r="7.24"/>
				<line class="st13" x1="300.88" y1="370.91" x2="282.66" y2="352.69"/>
			</g>
			<g>
				<circle class="st13" cx="243.51" cy="313.54" r="7.24"/>
				<line class="st13" x1="248.62" y1="318.65" x2="266.84" y2="336.87"/>
			</g>
		</g>
	</g>
	<g>
		<linearGradient id="SVGID_8_" gradientUnits="userSpaceOnUse" x1="617.2958" y1="551.7462" x2="811.5266" y2="551.7462">
			<stop  offset="0" style="stop-color:#0562A0"/>
			<stop  offset="1" style="stop-color:#3087C8"/>
		</linearGradient>
		<path class="st16" d="M648.56,576.21c-18.15,0-30.26,0-30.26,0v-48.93h192.23v48.93c0,0-12.94,0-32.11,0"/>
		<linearGradient id="SVGID_9_" gradientUnits="userSpaceOnUse" x1="669.9834" y1="576.2119" x2="756.115" y2="576.2119">
			<stop  offset="0" style="stop-color:#0562A0"/>
			<stop  offset="1" style="stop-color:#3087C8"/>
		</linearGradient>
		<path class="st17" d="M756.11,576.21c-27.02,0-59.49,0-86.13,0"/>
		<linearGradient id="SVGID_10_" gradientUnits="userSpaceOnUse" x1="621.0093" y1="614.2431" x2="807.813" y2="614.2431">
			<stop  offset="0" style="stop-color:#0562A0"/>
			<stop  offset="1" style="stop-color:#3087C8"/>
		</linearGradient>
		<path class="st18" d="M779.29,576.21c16.57,0,27.53,0,27.53,0v76.06h-184.8v-76.06c0,0,10.43,0,26.33,0"/>
		<linearGradient id="SVGID_11_" gradientUnits="userSpaceOnUse" x1="681.8841" y1="514.1412" x2="746.9383" y2="514.1412">
			<stop  offset="0" style="stop-color:#0562A0"/>
			<stop  offset="1" style="stop-color:#3087C8"/>
		</linearGradient>
		<rect x="682.88" y="501" class="st19" width="63.05" height="26.28"/>
		<linearGradient id="SVGID_12_" gradientUnits="userSpaceOnUse" x1="647.7278" y1="585.5928" x2="669.1069" y2="585.5928">
			<stop  offset="0" style="stop-color:#0562A0"/>
			<stop  offset="1" style="stop-color:#3087C8"/>
		</linearGradient>
		<rect x="648.73" y="567.5" class="st20" width="19.38" height="36.18"/>
		<linearGradient id="SVGID_13_" gradientUnits="userSpaceOnUse" x1="756.7711" y1="585.5928" x2="778.1502" y2="585.5928">
			<stop  offset="0" style="stop-color:#0562A0"/>
			<stop  offset="1" style="stop-color:#3087C8"/>
		</linearGradient>
		<rect x="757.77" y="567.5" class="st21" width="19.38" height="36.18"/>
	</g>
</g>
</svg>
