<svg xmlns="http://www.w3.org/2000/svg" xmlns:xlink="http://www.w3.org/1999/xlink" viewBox="0 0 1380.1 340.2"><style><![CDATA[.Q{stroke-miterlimit:10}.R{stroke-linecap:round}.S{stroke-linejoin:round}]]></style><linearGradient id="A" gradientUnits="userSpaceOnUse" x1="6.911" y1="122.235" x2="236.129" y2="122.235"><stop offset="0" stop-color="#38619c"/><stop offset="1" stop-color="#5088d5"/></linearGradient><circle cx="121.5" cy="122.2" r="114.6" fill="url(#A)"/><linearGradient id="B" gradientUnits="userSpaceOnUse" x1="6.926" y1="64.367" x2="121.52" y2="64.367"><stop offset="0" stop-color="#38619c"/><stop offset="1" stop-color="#5088d5"/></linearGradient><path d="M121.5 111.1V7.6C58.6 7.6 7.5 58.3 6.9 121.1h104.6c5.5 0 10-4.5 10-10z" fill="url(#B)"/><linearGradient id="C" gradientUnits="userSpaceOnUse" x1="386.029" y1="122.235" x2="615.247" y2="122.235"><stop offset="0" stop-color="#38619c"/><stop offset="1" stop-color="#5088d5"/></linearGradient><circle cx="500.6" cy="122.2" r="114.6" fill="url(#C)"/><linearGradient id="D" gradientUnits="userSpaceOnUse" x1="386.043" y1="64.367" x2="500.638" y2="64.367"><stop offset="0" stop-color="#38619c"/><stop offset="1" stop-color="#5088d5"/></linearGradient><path d="M500.6 111.1V7.6c-62.9 0-114 50.7-114.6 113.5h104.6c5.6 0 10-4.5 10-10z" fill="url(#D)"/><linearGradient id="E" gradientUnits="userSpaceOnUse" x1="762.611" y1="122.235" x2="991.829" y2="122.235"><stop offset="0" stop-color="#38619c"/><stop offset="1" stop-color="#5088d5"/></linearGradient><circle cx="877.2" cy="122.2" r="114.6" fill="url(#E)"/><linearGradient id="F" gradientUnits="userSpaceOnUse" x1="762.625" y1="64.367" x2="877.219" y2="64.367"><stop offset="0" stop-color="#38619c"/><stop offset="1" stop-color="#5088d5"/></linearGradient><path d="M877.2 111.1V7.6c-62.9 0-114 50.7-114.6 113.5h104.6c5.5 0 10-4.5 10-10z" fill="url(#F)"/><linearGradient id="G" gradientUnits="userSpaceOnUse" x1="1143.971" y1="122.235" x2="1373.189" y2="122.235"><stop offset="0" stop-color="#38619c"/><stop offset="1" stop-color="#5088d5"/></linearGradient><circle cx="1258.6" cy="122.2" r="114.6" fill="url(#G)"/><linearGradient id="H" gradientUnits="userSpaceOnUse" x1="1143.985" y1="64.367" x2="1258.58" y2="64.367"><stop offset="0" stop-color="#38619c"/><stop offset="1" stop-color="#5088d5"/></linearGradient><path d="M1258.6 111.1V7.6c-62.9 0-114 50.7-114.6 113.5h104.6c5.5 0 10-4.5 10-10z" fill="url(#H)"/><linearGradient id="I" gradientUnits="userSpaceOnUse" x1="952.803" y1="217.965" x2="1182.021" y2="217.965"><stop offset="0" stop-color="#38619c"/><stop offset="1" stop-color="#5088d5"/></linearGradient><circle cx="1067.4" cy="218" r="114.6" fill="url(#I)"/><linearGradient id="J" gradientUnits="userSpaceOnUse" x1="952.817" y1="160.097" x2="1067.412" y2="160.097"><stop offset="0" stop-color="#38619c"/><stop offset="1" stop-color="#5088d5"/></linearGradient><path d="M1067.4 206.8V103.4c-62.9 0-114 50.7-114.6 113.5h104.6c5.5-.1 10-4.5 10-10.1z" fill="url(#J)"/><linearGradient id="K" gradientUnits="userSpaceOnUse" x1="197.104" y1="217.965" x2="426.322" y2="217.965"><stop offset="0" stop-color="#38619c"/><stop offset="1" stop-color="#5088d5"/></linearGradient><circle cx="311.7" cy="218" r="114.6" fill="url(#K)"/><linearGradient id="L" gradientUnits="userSpaceOnUse" x1="197.118" y1="160.097" x2="311.713" y2="160.097"><stop offset="0" stop-color="#38619c"/><stop offset="1" stop-color="#5088d5"/></linearGradient><path d="M311.7 206.8V103.4c-62.9 0-114 50.7-114.6 113.5h104.6c5.5-.1 10-4.5 10-10.1z" fill="url(#L)"/><linearGradient id="M" gradientUnits="userSpaceOnUse" x1="576.222" y1="217.965" x2="805.44" y2="217.965"><stop offset="0" stop-color="#38619c"/><stop offset="1" stop-color="#5088d5"/></linearGradient><circle cx="690.8" cy="218" r="114.6" fill="url(#M)"/><linearGradient id="N" gradientUnits="userSpaceOnUse" x1="576.236" y1="160.097" x2="690.831" y2="160.097"><stop offset="0" stop-color="#38619c"/><stop offset="1" stop-color="#5088d5"/></linearGradient><path d="M690.8 206.8V103.4c-62.9 0-114 50.7-114.6 113.5h104.6c5.6-.1 10-4.5 10-10.1z" fill="url(#N)"/><g fill="none" stroke="#fff" class="Q S"><path d="M102.3 73.3c0-3.5 2.9-6.4 6.4-6.4 1 0 1.8.2 2.7.6v-12H99.8c.3-.7.4-1.4.4-2.2 0-3.5-2.9-6.4-6.4-6.4s-6.4 2.9-6.4 6.4c0 .8.2 1.5.4 2.2H76.2v12c.8-.4 1.8-.7 2.8-.7 3.5 0 6.4 2.9 6.4 6.4s-2.9 6.4-6.4 6.4c-1 0-1.9-.2-2.8-.7v11.4h35.1V79.1c-.8.4-1.7.6-2.7.6-3.4 0-6.3-2.9-6.3-6.4z"/><path d="M79 66.9c-1 0-1.9.2-2.8.7v-12H41.4v35H53c-.4.8-.6 1.7-.6 2.6 0 3.5 2.9 6.4 6.4 6.4s6.4-2.9 6.4-6.4c0-.9-.2-1.8-.6-2.6h11.6V79c.8.4 1.8.7 2.8.7 3.5 0 6.4-2.9 6.4-6.4 0-3.6-2.8-6.4-6.4-6.4z"/></g><g fill="#fff"><path d="M57.4 153.5h-1.7v-12.1h1.7v12.1z"/><use xlink:href="#P"/><use xlink:href="#Q"/><use xlink:href="#R"/><use xlink:href="#S"/><use xlink:href="#T"/><path d="M99.1 153.5c-.1-.3-.1-.5-.2-.7 0-.2-.1-.4-.1-.6-.2.4-.6.8-.9 1.1-.4.3-.8.4-1.3.4-.8 0-1.4-.2-1.8-.7s-.6-1.1-.6-2c0-.8.3-1.5.9-2s1.4-.7 2.5-.7H99v-.9c0-.5-.1-1-.4-1.3-.2-.3-.6-.5-1-.5s-.7.1-1 .4c-.2.3-.4.6-.4 1h-1.6c0-.7.2-1.3.8-1.8s1.3-.8 2.3-.8c.9 0 1.6.3 2.2.8s.8 1.3.8 2.2v4.2c0 .3 0 .7.1 1 0 .3.1.6.2 1h-1.9zm-2.1-1.1c.5 0 .9-.1 1.2-.4s.6-.6.7-1v-1.6h-1.4c-.5 0-.9.2-1.2.5s-.4.7-.4 1.2a1.69 1.69 0 0 0 .3 1c.2.3.4.3.8.3zm7.7-10.1v2.2h1.4v1.2h-1.4v5.3c0 .5.1.8.2 1s.3.3.6.3h.3c.1 0 .2 0 .3-.1l.2 1.2c-.2.1-.3.1-.5.2s-.4.1-.6.1c-.6 0-1.2-.2-1.5-.6-.4-.4-.5-1.1-.5-2v-5.3H102v-1.2h1.2v-2.2h1.5zm6.1 11.4c-1.1 0-2-.4-2.6-1.2s-1-1.9-1-3.2v-.4c0-1.3.3-2.4.9-3.2s1.5-1.3 2.5-1.3 1.8.4 2.3 1.1.8 1.7.8 2.9v.9h-4.9c0 .9.2 1.7.5 2.2s.8.9 1.5.9a3.73 3.73 0 0 0 1.2-.2c.3-.1.7-.4 1-.6l.5 1c-.3.3-.7.6-1.2.8-.3.2-.8.3-1.5.3zm-.1-8.1c-.5 0-.9.2-1.2.7s-.5 1-.5 1.8h3.2v-.2c0-.7-.1-1.2-.4-1.6-.3-.5-.6-.7-1.1-.7z"/><use xlink:href="#U"/><use xlink:href="#V"/><path d="M138.6 153.5h-1.7v-12.9h1.7v12.9z"/><use xlink:href="#W"/><use xlink:href="#P" x="89"/><path d="M158.6 144.5l.1 1.3c.3-.5.6-.8 1-1.1s.8-.4 1.3-.4a2.32 2.32 0 0 1 1.9.9c.5.6.7 1.5.7 2.7v5.5h-1.7V148c0-.8-.1-1.4-.4-1.8-.2-.3-.6-.5-1.1-.5a1.69 1.69 0 0 0-1 .3c-.3.2-.5.5-.7.8v6.7H157v-9h1.6z"/><use xlink:href="#X"/><use xlink:href="#P" x="109.6"/><use xlink:href="#S" x="96.8"/><path d="M187.9 146.2h-1.7v-1.7h1.7v1.7zm0 7.3h-1.7v-1.7h1.7v1.7zm-125.4 17H57l-1.2 3.4h-1l4.6-12.1h.9l4.6 12.1h-1l-1.4-3.4zm-5.2-.9h4.9l-2.4-6.5-2.5 6.5zm10.1 4.3h-1V161h1v12.9zm4.7-2.9l.3 1.6.4-1.6 1.9-6.1h.9l1.9 6.1.4 1.6.4-1.6 1.6-6.1h1l-2.6 9h-.8l-2-6.1-.4-1.6-.4 1.6-2 6.1H72l-2.6-9h1l1.7 6.1zm16.6 2.9c-.1-.3-.1-.6-.1-.8v-.7c-.3.5-.8.9-1.3 1.2-.6.3-1.2.5-1.9.5-.9 0-1.6-.2-2-.7s-.7-1.1-.7-1.9.4-1.5 1.1-2 1.7-.7 2.9-.7h2v-1.1c0-.6-.2-1.1-.6-1.5s-1-.5-1.7-.5-1.3.2-1.7.5c-.5.3-.7.8-.7 1.3h-.9c0-.7.3-1.3.9-1.8s1.5-.8 2.5-.8 1.8.3 2.4.8.9 1.2.9 2.2v4.4c0 .3 0 .6.1.9s.1.6.2.9h-1.4zm-3.2-.7c.7 0 1.3-.2 1.9-.5s.9-.8 1.2-1.3v-1.9h-2c-.9 0-1.6.2-2.2.6-.5.4-.8.9-.8 1.4s.2.9.5 1.2.8.5 1.4.5zm9.1-1.7l.3 1.1 2.7-7.6h1.1l-3.9 10.4c-.2.6-.5 1.1-.9 1.6-.4.4-.9.6-1.6.6h-.4c-.2 0-.3-.1-.4-.1l.1-.8h.6c.4 0 .8-.2 1-.5.3-.3.5-.7.7-1.2l.5-1.2-3.5-8.9H92l2.6 6.6zm11.2.1c0-.4-.2-.8-.5-1.1s-1-.6-1.9-.8c-1.1-.2-1.9-.5-2.4-.9s-.8-.9-.8-1.6.3-1.3.9-1.7c.6-.5 1.3-.7 2.3-.7s1.8.3 2.4.8.9 1.1.8 1.9h0-.9c0-.5-.2-.9-.6-1.3s-1-.5-1.7-.5-1.3.2-1.6.5c-.4.3-.5.7-.5 1.1s.2.8.5 1 .9.5 1.9.7c1.1.2 1.9.6 2.4 1s.8 1 .8 1.7c0 .8-.3 1.4-.9 1.8-.6.5-1.4.7-2.4.7-1.1 0-1.9-.3-2.6-.8a2.32 2.32 0 0 1-.9-1.9v-.1h.9c0 .6.3 1.1.8 1.4s1.1.4 1.7.4c.7 0 1.3-.2 1.7-.5.3-.3.6-.7.6-1.1zm6.3-2.4h-4v-.8h4v.8zm1.2.1c0-1.3.4-2.4 1.1-3.3.7-.8 1.7-1.3 2.9-1.3s2.2.4 2.9 1.3c.7.8 1.1 1.9 1.1 3.3v.3c0 1.3-.4 2.4-1.1 3.3-.7.8-1.7 1.3-2.9 1.3s-2.2-.4-2.9-1.3-1.1-1.9-1.1-3.3v-.3zm1 .2c0 1 .3 1.9.8 2.6s1.3 1.1 2.2 1.1 1.7-.4 2.2-1.1.8-1.6.8-2.6v-.3c0-1-.3-1.9-.8-2.6s-1.3-1.1-2.2-1.1-1.7.4-2.2 1.1-.8 1.6-.8 2.6v.3z"/><use xlink:href="#Y"/><path d="M140.9 167.7h3.7v.9h-3.7v4h-1v-4h-3.6v-.9h3.6v-3.9h1v3.9zm-76.6 22.8h0c-.1 1.3-.5 2.2-1.3 2.9s-1.8 1-3 1c-1.3 0-2.4-.5-3.3-1.5-.8-1-1.2-2.2-1.2-3.8v-2c0-1.5.4-2.8 1.2-3.8s1.9-1.5 3.3-1.5c1.3 0 2.3.3 3.1 1s1.2 1.6 1.3 2.9h0-.9c-.1-1-.5-1.8-1-2.3-.6-.5-1.3-.8-2.4-.8s-1.9.4-2.5 1.2-1 1.9-1 3.1v2c0 1.3.3 2.3 1 3.2.6.8 1.5 1.2 2.5 1.2s1.8-.3 2.4-.8.9-1.3 1-2.3h.8zm8 3.8c-.1-.3-.1-.6-.1-.8v-.7c-.3.5-.8.9-1.3 1.2-.6.3-1.2.5-1.9.5-.9 0-1.6-.2-2-.7s-.7-1.1-.7-1.9.4-1.5 1.1-2 1.7-.7 2.9-.7h2V188c0-.6-.2-1.1-.6-1.5s-1-.5-1.7-.5-1.3.2-1.7.5c-.5.3-.7.8-.7 1.3h-.9c0-.7.3-1.3.9-1.8s1.5-.8 2.5-.8 1.8.3 2.4.8.9 1.2.9 2.2v4.4c0 .3 0 .6.1.9s.1.6.2.9h-1.4zm-3.3-.7c.7 0 1.3-.2 1.9-.5s.9-.8 1.2-1.3v-1.9h-2c-.9 0-1.6.2-2.2.6-.5.4-.8.9-.8 1.4s.2.9.5 1.2c.4.3.8.5 1.4.5zm7.6-8.3l.1 1.5c.3-.5.7-.9 1.1-1.2s1.1-.4 1.7-.4c.7 0 1.3.2 1.7.5a2.84 2.84 0 0 1 1 1.5c.3-.6.7-1.1 1.2-1.5s1.1-.5 1.8-.5c1 0 1.7.3 2.2 1 .5.6.8 1.6.8 3v5.2h-1V189c0-1.1-.2-1.9-.6-2.3-.4-.5-.9-.7-1.6-.7-.8 0-1.4.2-1.8.7s-.7 1.1-.8 1.9v5.8h-1V189c0-1.1-.2-1.9-.6-2.3s-.9-.7-1.6-.7-1.3.2-1.7.5c-.4.4-.7.8-.9 1.4v6.3h-1v-9h1zM98 190c0 1.3-.3 2.4-.9 3.2s-1.4 1.2-2.5 1.2c-.6 0-1.2-.1-1.7-.4-.5-.2-.9-.6-1.2-1v4.7h-1v-12.4h.8l.1 1.4c.3-.5.7-.9 1.2-1.2s1-.4 1.7-.4c1.1 0 1.9.4 2.5 1.3s.9 2 .9 3.4v.2zm-1-.1c0-1.1-.2-2.1-.7-2.8s-1.1-1.1-2-1.1c-.7 0-1.2.2-1.6.5a2.73 2.73 0 0 0-.9 1.2v4.3c.2.5.6.9 1 1.2s1 .4 1.6.4c.9 0 1.5-.3 2-1s.7-1.5.7-2.6v-.1zm9 4.4c-.1-.3-.1-.6-.1-.8v-.7c-.3.5-.8.9-1.3 1.2-.6.3-1.2.5-1.9.5-.9 0-1.6-.2-2-.7s-.7-1.1-.7-1.9.4-1.5 1.1-2 1.7-.7 2.9-.7h2V188c0-.6-.2-1.1-.6-1.5s-1-.5-1.7-.5-1.3.2-1.7.5c-.5.3-.7.8-.7 1.3h-.9c0-.7.3-1.3.9-1.8s1.5-.8 2.5-.8 1.8.3 2.4.8.9 1.2.9 2.2v4.4c0 .3 0 .6.1.9s.1.6.2.9H106zm-3.3-.7c.7 0 1.3-.2 1.9-.5s.9-.8 1.2-1.3v-1.9h-2c-.9 0-1.6.2-2.2.6-.5.4-.8.9-.8 1.4s.2.9.5 1.2.8.5 1.4.5zm7.8-10.9h-1v-1.4h1v1.4zm0 11.6h-1v-9h1v9zm2.4-4.4c0-1.4.3-2.6.9-3.4a3.17 3.17 0 0 1 2.6-1.3c.6 0 1.2.1 1.7.4s.8.7 1.2 1.2l.1-1.4h.8v8.9c0 1.2-.3 2.1-1 2.7-.6.7-1.5 1-2.7 1-.4 0-.9-.1-1.4-.2s-.9-.2-1.3-.4l.3-.8c.4.2.7.3 1.1.4s.8.1 1.3.1c.9 0 1.5-.3 2-.8.4-.5.7-1.2.7-2.1V193c-.3.5-.7.8-1.2 1s-1 .4-1.6.4c-1.1 0-1.9-.4-2.5-1.2s-.9-1.9-.9-3.2v-.1zm1 .1c0 1.1.2 1.9.7 2.6.4.6 1.1 1 2 1 .6 0 1.2-.1 1.6-.4s.8-.7 1-1.2v-4.2c-.2-.5-.5-1-1-1.3s-1-.5-1.6-.5c-.9 0-1.5.4-2 1.1s-.7 1.7-.7 2.8v.1z"/><use xlink:href="#Y" x="-0.6" y="20.4"/><path d="M137.6 192c0-.4-.2-.8-.5-1.1s-1-.6-1.9-.8c-1.1-.2-1.9-.5-2.4-.9s-.8-.9-.8-1.6.3-1.3.9-1.7c.6-.5 1.3-.7 2.3-.7s1.8.3 2.4.8.9 1.1.8 1.9h0-.9c0-.5-.2-.9-.6-1.3s-1-.5-1.7-.5-1.3.2-1.6.5c-.4.3-.5.7-.5 1.1s.2.8.5 1 .9.5 1.9.7c1.1.2 1.9.6 2.4 1s.8 1 .8 1.7c0 .8-.3 1.4-.9 1.8-.6.5-1.4.7-2.4.7-1.1 0-1.9-.3-2.6-.8a2.32 2.32 0 0 1-.9-1.9v-.1h.9c0 .6.3 1.1.8 1.4s1.1.4 1.7.4c.7 0 1.3-.2 1.7-.5s.6-.7.6-1.1zm302.5-41.6c0-.6-.2-1-.5-1.4s-.9-.7-1.7-1c-1.1-.4-2-.8-2.6-1.4s-.9-1.3-.9-2.2c0-1 .3-1.7 1-2.4.7-.6 1.5-.9 2.6-.9s2 .3 2.7 1 1 1.5 1 2.6h0-1.6c0-.7-.2-1.3-.6-1.7s-.9-.7-1.5-.7-1.1.2-1.4.6-.5.8-.5 1.4c0 .5.2 1 .5 1.3s.9.7 1.8 1c1.1.4 1.9.8 2.5 1.4s.9 1.3.9 2.3-.3 1.8-1 2.4-1.6.9-2.7.9-2-.3-2.8-.9-1.2-1.5-1.1-2.7h1.6c0 .8.2 1.4.7 1.8.4.4 1 .6 1.6.6s1.1-.2 1.5-.5c.4-.4.5-.9.5-1.5zm9.4-2.5h-4.1v4.3h4.8v1.3h-6.5v-12.1h6.5v1.3h-4.8v3.9h4.1v1.3zm10.6 1.2c0 1.4-.4 2.5-1.2 3.3s-1.8 1.2-3.1 1.2-2.3-.4-3.1-1.2-1.1-1.9-1.1-3.3v-3.3c0-1.4.4-2.5 1.1-3.4.8-.8 1.8-1.2 3.1-1.2s2.3.4 3.1 1.2 1.2 1.9 1.2 3.4v3.3zm-1.7-3.3c0-1.1-.2-1.8-.7-2.4s-1.1-.8-1.9-.8-1.4.3-1.9.8-.7 1.3-.7 2.4v3.3c0 1.1.2 1.9.7 2.4.4.5 1.1.8 1.9.8s1.5-.3 1.9-.8.7-1.4.7-2.4v-3.3zm4.5.4h-1.7v-1.7h1.7v1.7zm0 7.3h-1.7v-1.7h1.7v1.7zm-18.8 15.4c0 1.5-.5 2.7-1.4 3.7s-2.1 1.5-3.6 1.5c-1.4 0-2.6-.5-3.4-1.5-.9-1-1.3-2.2-1.3-3.7v-2.1c0-1.5.4-2.7 1.3-3.7s2-1.5 3.4-1.5c1.5 0 2.6.5 3.6 1.5s1.4 2.2 1.4 3.7v2.1zm-1.6-2.1c0-1.1-.3-2-.9-2.7a3.04 3.04 0 0 0-2.4-1.1c-1 0-1.7.4-2.3 1.1s-.9 1.6-.9 2.7v2.2c0 1.1.3 2 .9 2.7s1.3 1.1 2.3 1.1a3.04 3.04 0 0 0 2.4-1.1c.6-.7.9-1.6.9-2.7v-2.2z"/><use xlink:href="#Z"/><path d="M451.6 169.6c0-1.4.3-2.6.9-3.5s1.5-1.3 2.6-1.3c.6 0 1.1.1 1.5.3s.8.6 1.1 1l.2-1.2h1.3v9c0 1.2-.3 2-1 2.7s-1.6.9-2.9.9c-.4 0-.9-.1-1.4-.2s-.9-.3-1.3-.5l.4-1.3c.3.2.6.3 1.1.4.4.1.8.2 1.2.2.8 0 1.4-.2 1.7-.5s.5-.9.5-1.7v-1c-.3.4-.6.7-1.1.9-.4.2-.9.3-1.4.3-1.1 0-2-.4-2.6-1.2s-.9-1.8-.9-3.1v-.2zm1.6.1c0 .9.2 1.6.6 2.2s1 .8 1.7.8c.5 0 .9-.1 1.2-.3s.6-.5.8-1v-4.1a2.36 2.36 0 0 0-.8-.9c-.3-.2-.7-.3-1.2-.3-.8 0-1.4.3-1.8 1s-.6 1.5-.6 2.5v.1z"/><use xlink:href="#a"/><use xlink:href="#b"/><path d="M482.4 162.6h-1.6v-1.7h1.6v1.7zm0 11.3h-1.6v-9h1.6v9zm6.1-1.1c.5 0 1-.2 1.4-.5s.6-.7.6-1.2h1.5v.1c0 .8-.3 1.5-1 2.1s-1.6.9-2.5.9c-1.3 0-2.3-.4-3-1.3s-1-1.9-1-3.2v-.3c0-1.3.3-2.3 1-3.2s1.7-1.3 3-1.3c1.1 0 1.9.3 2.6.9s1 1.4 1 2.3v.1h-1.5c0-.5-.2-1-.6-1.4s-.9-.6-1.5-.6c-.9 0-1.5.3-1.8.9s-.6 1.4-.6 2.3v.3c0 .9.2 1.7.5 2.3s1.1.8 1.9.8zm16.5-2c0-.6-.2-1-.6-1.4s-1.2-.7-2.2-.9c-1.3-.3-2.3-.8-3-1.3s-1.1-1.3-1.1-2.2.4-1.7 1.2-2.4c.8-.6 1.8-.9 3-.9 1.3 0 2.4.4 3.2 1.1s1.2 1.6 1.1 2.5h0-1.6c0-.7-.2-1.3-.7-1.7a3.01 3.01 0 0 0-2-.7c-.8 0-1.4.2-1.9.6s-.7.8-.7 1.4c0 .5.2 1 .7 1.3s1.2.7 2.3.9c1.3.3 2.2.8 2.9 1.4s1 1.4 1 2.3c0 1-.4 1.8-1.2 2.3s-1.8.9-3.1.9c-1.2 0-2.3-.3-3.2-1s-1.4-1.5-1.3-2.6h1.6c0 .8.3 1.4.9 1.8s1.3.6 2.1.6 1.5-.2 2-.5.6-.9.6-1.5zm7.4 3.3c-1.3 0-2.2-.4-3-1.2-.7-.8-1.1-1.9-1.1-3.2v-.4a4.96 4.96 0 0 1 1.1-3.2c.7-.9 1.7-1.3 2.7-1.3 1.2 0 2.1.4 2.7 1.1s.9 1.7.9 2.9v1H510c0 .9.2 1.6.7 2.1.4.6 1 .8 1.8.8.6 0 1-.1 1.5-.2.4-.2.8-.4 1.1-.7l.6 1.1a3.22 3.22 0 0 1-1.3.8c-.6.3-1.2.4-2 .4zm-.2-8.1c-.5 0-1 .2-1.4.7s-.6 1-.7 1.7h4.1v-.2c0-.6-.2-1.2-.5-1.6s-.8-.6-1.5-.6zm11 7.9c-.1-.3-.1-.5-.1-.7s0-.4-.1-.6c-.3.4-.7.8-1.2 1.1s-1 .4-1.6.4c-.9 0-1.6-.2-2.1-.7s-.7-1.1-.7-2 .3-1.5 1-2 1.6-.7 2.8-.7h1.8v-.9c0-.5-.2-.9-.5-1.3-.3-.3-.8-.5-1.4-.5-.5 0-1 .1-1.3.4s-.5.6-.5 1h-1.6c0-.7.3-1.3.9-1.8s1.5-.8 2.5-.8 1.8.3 2.5.8c.6.5.9 1.3.9 2.2v5.2c0 .3.1.6.2.9h-1.5zm-2.7-1.2c.6 0 1.1-.2 1.6-.5s.8-.7.9-1v-1.5h-1.8c-.7 0-1.2.2-1.6.5s-.6.7-.6 1.2c0 .4.1.7.4.9.3.3.6.4 1.1.4z"/><use xlink:href="#Z" x="80.8"/><path d="M536.4 172.8c.5 0 1-.2 1.4-.5s.6-.7.6-1.2h1.5v.1c0 .8-.3 1.5-1 2.1s-1.6.9-2.5.9c-1.3 0-2.3-.4-3-1.3s-1-1.9-1-3.2v-.3c0-1.3.3-2.3 1-3.2s1.7-1.3 3-1.3c1.1 0 1.9.3 2.6.9s1 1.4 1 2.3v.1h-1.5c0-.5-.2-1-.6-1.4s-.9-.6-1.5-.6c-.9 0-1.5.3-1.8.9s-.6 1.4-.6 2.3v.3c0 .9.2 1.7.5 2.3s1 .8 1.9.8zm7-6.7c.3-.4.7-.8 1.1-1 .5-.2 1-.4 1.5-.4 1 0 1.7.3 2.2.9s.8 1.5.8 2.7v5.6h-1.6v-5.6c0-.7-.2-1.3-.5-1.6s-.8-.5-1.4-.5c-.5 0-.9.1-1.2.3s-.7.5-.9.9v6.6h-1.6v-12.9h1.6v5z"/><use xlink:href="#V" x="498.8" y="95.8"/><path d="M640.2 249.2c-.1-.3-.1-.5-.2-.7 0-.2-.1-.4-.1-.6-.2.4-.6.8-.9 1.1-.4.3-.8.4-1.3.4-.8 0-1.4-.2-1.8-.7s-.6-1.1-.6-2c0-.8.3-1.5.9-2s1.4-.7 2.5-.7h1.4v-.9c0-.5-.1-1-.4-1.3-.2-.3-.6-.5-1-.5s-.7.1-1 .4c-.2.3-.4.6-.4 1h-1.6v-.1c0-.7.2-1.3.8-1.8s1.3-.8 2.3-.8c.9 0 1.6.3 2.2.8s.8 1.3.8 2.2v4.2c0 .3 0 .7.1 1 0 .3.1.6.2 1h-1.9zm-2.2-1.1c.5 0 .9-.1 1.2-.4s.6-.6.7-1v-1.6h-1.4c-.5 0-.9.2-1.2.5s-.4.7-.4 1.2a1.69 1.69 0 0 0 .3 1c.1.2.4.3.8.3zm7.3-10.2h-1.7v-1.6h1.7v1.6zm0 11.3h-1.7v-9h1.7v9zm1.8-4.4c0-1.4.3-2.6.8-3.5s1.3-1.3 2.2-1.3c.4 0 .8.1 1.1.3s.6.5.9.8v-4.9h1.7v12.9h-1.4l-.2-1.1c-.2.4-.6.7-.9.9s-.8.3-1.2.3c-.9 0-1.7-.4-2.2-1.2s-.8-1.9-.8-3.2h0zm1.7.2c0 .9.1 1.7.4 2.2s.7.8 1.3.8a1.69 1.69 0 0 0 1-.3c.3-.2.5-.5.6-.8v-4.3c-.2-.4-.4-.7-.6-.9s-.6-.3-.9-.3c-.6 0-1 .3-1.3 1s-.4 1.5-.4 2.5v.1zm16.4 1.2c0-.6-.2-1-.5-1.4s-.9-.7-1.7-1c-1.1-.4-2-.8-2.6-1.4s-.9-1.3-.9-2.2c0-1 .3-1.7 1-2.4.7-.6 1.5-.9 2.6-.9s2 .3 2.7 1 1 1.5 1 2.6h0-1.6c0-.7-.2-1.3-.6-1.7s-.9-.7-1.5-.7-1.1.2-1.4.6-.5.8-.5 1.4c0 .5.2 1 .5 1.3s.9.7 1.8 1c1.1.4 1.9.8 2.5 1.4s.9 1.3.9 2.3-.3 1.8-1 2.4-1.6.9-2.7.9-2-.3-2.8-.9-1.2-1.5-1.1-2.7h1.6c0 .8.2 1.4.7 1.8s1 .6 1.6.6 1.1-.2 1.5-.5c.3-.4.5-.9.5-1.5zm6.6 3.2c-1.1 0-2-.4-2.6-1.2s-1-1.9-1-3.2v-.4c0-1.3.3-2.4.9-3.2s1.5-1.3 2.5-1.3 1.8.4 2.3 1.1.8 1.7.8 2.9v.9h-4.9c0 .9.2 1.7.5 2.2s.8.9 1.5.9a3.73 3.73 0 0 0 1.2-.2c.3-.1.7-.4 1-.6l.5 1c-.3.3-.7.6-1.2.8-.3.2-.9.3-1.5.3zm-.1-8c-.5 0-.9.2-1.2.7s-.5 1-.5 1.8h3.2v-.2c0-.7-.1-1.2-.4-1.6-.3-.5-.6-.7-1.1-.7zm9.3 7.8c-.1-.3-.1-.5-.2-.7 0-.2-.1-.4-.1-.6-.2.4-.6.8-.9 1.1-.4.3-.8.4-1.3.4-.8 0-1.4-.2-1.8-.7s-.6-1.1-.6-2c0-.8.3-1.5.9-2s1.4-.7 2.5-.7h1.4v-.9c0-.5-.1-1-.4-1.3-.2-.3-.6-.5-1-.5s-.7.1-1 .4c-.2.3-.4.6-.4 1h-1.6v-.1c0-.7.2-1.3.8-1.8s1.3-.8 2.3-.8c.9 0 1.6.3 2.2.8s.8 1.3.8 2.2v4.2c0 .3 0 .7.1 1 0 .3.1.6.2 1H681zm-2.2-1.1c.5 0 .9-.1 1.2-.4s.6-.6.7-1v-1.6h-1.4c-.5 0-.9.2-1.2.5s-.4.7-.4 1.2a1.69 1.69 0 0 0 .3 1c.2.2.4.3.8.3z"/><use xlink:href="#T" x="595.1" y="95.7"/><path d="M692.5 248.1c.4 0 .8-.2 1-.5.3-.3.4-.8.4-1.3h1.5v.1c0 .8-.3 1.6-.9 2.1-.6.6-1.3.9-2.1.9-1.1 0-2-.4-2.6-1.3s-.9-1.9-.9-3.2v-.3c0-1.3.3-2.4.9-3.2a3.17 3.17 0 0 1 2.6-1.3c.9 0 1.6.3 2.2.9s.8 1.4.8 2.4h0-1.4c0-.6-.1-1.1-.4-1.5s-.6-.6-1.1-.6c-.6 0-1.1.3-1.4.9s-.4 1.4-.4 2.3v.3c0 .9.1 1.7.4 2.3s.8 1 1.4 1zm6.3-6.7c.3-.4.6-.8.9-1 .4-.2.8-.4 1.2-.4.8 0 1.5.3 1.9.9.5.6.7 1.5.7 2.8v5.5h-1.7v-5.5c0-.8-.1-1.4-.4-1.8-.2-.4-.6-.5-1.1-.5a1.69 1.69 0 0 0-1 .3c-.3.2-.5.5-.7.8v6.8h-1.7v-12.9h1.7v5zm8.6.6h-1.7v-1.7h1.7v1.7zm0 7.2h-1.7v-1.7h1.7v1.7zm-74.1 17.1h-5.5l-1.2 3.4h-1l4.6-12.1h.9l4.6 12.1h-1l-1.4-3.4zm-5.2-.9h4.9l-2.4-6.5-2.5 6.5z"/><use xlink:href="#c"/><path d="M648.6 266.7l.3 1.6.4-1.6 1.9-6.1h.9l1.9 6.1.4 1.6.4-1.6 1.6-6.1h1l-2.6 9h-.8l-2-6.1-.4-1.6-.4 1.6-2 6.1h-.9l-2.6-9h1l1.9 6.1zm10.3-1.7c0-1.3.4-2.4 1.1-3.3.7-.8 1.7-1.3 2.9-1.3s2.2.4 2.9 1.3c.7.8 1.1 1.9 1.1 3.3v.3c0 1.3-.4 2.4-1.1 3.3-.7.8-1.7 1.3-2.9 1.3s-2.2-.4-2.9-1.3-1.1-1.9-1.1-3.3v-.3zm1 .3c0 1 .3 1.9.8 2.6s1.3 1.1 2.2 1.1 1.7-.4 2.2-1.1.8-1.6.8-2.6v-.3c0-1-.3-1.9-.8-2.6s-1.3-1.1-2.2-1.1-1.7.4-2.2 1.1-.8 1.6-.8 2.6v.3zm13.2-3.8h-.7c-.6 0-1.1.2-1.5.5s-.7.8-.9 1.4v6.2h-1v-9h.9l.1 1.5v.1c.3-.6.6-1 1-1.3s1-.5 1.6-.5h.4c.1 0 .2 0 .3.1l-.2 1z"/><use xlink:href="#c" x="37.4"/><path d="M689.4 267.3c0-.4-.2-.8-.5-1.1s-1-.6-1.9-.8c-1.1-.2-1.9-.5-2.4-.9s-.8-.9-.8-1.6.3-1.3.9-1.7 1.3-.7 2.3-.7 1.8.3 2.4.8.9 1.1.8 1.9h0-.9c0-.5-.2-.9-.6-1.3s-1-.5-1.7-.5-1.3.2-1.6.5-.5.7-.5 1.1.2.8.5 1 .9.5 1.9.7c1.1.2 1.9.6 2.4 1s.8 1 .8 1.7c0 .8-.3 1.4-.9 1.8-.6.5-1.4.7-2.4.7-1.1 0-1.9-.3-2.6-.8a2.32 2.32 0 0 1-.9-1.9v-.1h.9c0 .6.3 1.1.8 1.4s1.1.4 1.7.4c.7 0 1.3-.2 1.7-.5.4-.2.6-.6.6-1.1zm142-116.9c0-.6-.2-1-.5-1.4s-.9-.7-1.7-1c-1.1-.4-2-.8-2.6-1.4s-.9-1.3-.9-2.2c0-1 .3-1.7 1-2.4.7-.6 1.5-.9 2.6-.9s2 .3 2.7 1 1 1.5 1 2.6h0-1.6c0-.7-.2-1.3-.6-1.7s-.9-.7-1.5-.7-1.1.2-1.4.6-.5.8-.5 1.4c0 .5.2 1 .5 1.3s.9.7 1.8 1c1.1.4 1.9.8 2.5 1.4s.9 1.3.9 2.3-.3 1.8-1 2.4-1.6.9-2.7.9-2-.3-2.8-.9-1.2-1.5-1.1-2.7h1.6c0 .8.2 1.4.7 1.8.4.4 1 .6 1.6.6s1.1-.2 1.5-.5c.3-.4.5-.9.5-1.5zm3-1.5c0-1.3.3-2.4.9-3.3s1.5-1.3 2.6-1.3 2 .4 2.6 1.3a5.62 5.62 0 0 1 1 3.3v.2c0 1.3-.3 2.4-.9 3.3s-1.5 1.3-2.6 1.3-2-.4-2.6-1.3-.9-1.9-.9-3.3v-.2zm1.7.2c0 1 .2 1.7.5 2.3s.8.9 1.4.9 1.1-.3 1.4-.9.5-1.4.5-2.3v-.2c0-.9-.2-1.7-.5-2.3s-.8-.9-1.4-.9-1.1.3-1.4.9-.5 1.4-.5 2.3v.2z"/><use xlink:href="#d"/><use xlink:href="#X" x="685.4"/><use xlink:href="#W" x="714"/><path d="M864.5 153.5h-1.7v-12.9h1.7v12.9zm11-2.2h0l2.9-9.9h2.2v12.1h-1.7v-8.7h-.1l-2.8 8.7h-1l-2.8-8.8v8.8h-1.7v-12.1h2.2l2.8 9.9zm10.4 2.4c-1.1 0-2-.4-2.6-1.2s-1-1.9-1-3.2v-.4c0-1.3.3-2.4.9-3.2s1.5-1.3 2.5-1.3 1.8.4 2.3 1.1.8 1.7.8 2.9v.9H884c0 .9.2 1.7.5 2.2s.8.9 1.5.9a3.73 3.73 0 0 0 1.2-.2c.3-.1.7-.4 1-.6l.5 1c-.3.3-.7.6-1.2.8-.4.2-.9.3-1.6.3zm-.1-8.1c-.5 0-.9.2-1.2.7s-.5 1-.5 1.8h3.2v-.2c0-.7-.1-1.2-.4-1.6-.2-.5-.6-.7-1.1-.7z"/><use xlink:href="#U" x="775.1"/><use xlink:href="#X" x="733.4"/><use xlink:href="#W" x="762"/><path d="M830.9 171.7h0l2.9-9.9h2.2v12.1h-1.7v-8.7h-.1l-2.8 8.7h-1.2l-2.8-8.8v8.8h-1.7v-12.1h2.2l3 9.9z"/><use xlink:href="#W" x="697.4" y="20.4"/><use xlink:href="#T" x="756.8" y="20.4"/><path d="M853.6 169.8h-.6v4.1h-1.7V161h1.7v7.5h.6l2.2-3.6h2L855 169l3 4.9h-2l-2.4-4.1zm8.5 4.3c-1.1 0-2-.4-2.6-1.2s-1-1.9-1-3.2v-.4c0-1.3.3-2.4.9-3.2s1.5-1.3 2.5-1.3 1.8.4 2.3 1.1.8 1.7.8 2.9v.9h-4.9c0 .9.2 1.7.5 2.2s.8.9 1.5.9a3.73 3.73 0 0 0 1.2-.2c.3-.1.7-.4 1-.6l.5 1c-.3.3-.7.6-1.2.8-.3.2-.8.3-1.5.3zm-.1-8.1c-.5 0-.9.2-1.2.7s-.5 1-.5 1.8h3.2v-.2c0-.7-.1-1.2-.4-1.6-.2-.5-.6-.7-1.1-.7z"/><use xlink:href="#e"/><use xlink:href="#X" x="706.3" y="20.4"/><use xlink:href="#f"/><path d="M883.7 169.5c0-1.4.3-2.6.8-3.5s1.3-1.3 2.2-1.3c.5 0 .9.1 1.2.3.4.2.7.5.9 1l.2-1.1h1.4v9c0 1.2-.3 2-.9 2.7-.6.6-1.5.9-2.6.9-.4 0-.8-.1-1.2-.2s-.8-.3-1.2-.5l.3-1.3c.3.2.6.3 1 .4s.7.1 1.1.1c.6 0 1.1-.2 1.4-.6s.4-.9.4-1.7v-.7a2.36 2.36 0 0 1-.9.8c-.3.2-.7.3-1.2.3-.9 0-1.7-.4-2.2-1.2s-.8-1.9-.8-3.2v-.2zm1.7.2c0 .9.1 1.7.4 2.3s.7.8 1.3.8a1.69 1.69 0 0 0 1-.3c.3-.2.5-.5.6-.8v-4.4c-.2-.4-.4-.7-.6-.9s-.6-.3-1-.3c-.6 0-1 .3-1.3 1-.3.6-.4 1.5-.4 2.5v.1zm117.2 73.9h-4.1v4.3h4.8v1.3h-6.5v-12.1h6.5v1.3h-4.8v3.9h4.1v1.3zm3.8-3.4l.1 1.2a2.41 2.41 0 0 1 1-1c.4-.2.8-.4 1.3-.4s.9.1 1.3.4.6.7.8 1.2c.2-.5.6-.9 1-1.2s.9-.4 1.4-.4c.8 0 1.4.3 1.8 1s.7 1.6.7 2.9v5.3h-1.7v-5.3c0-.9-.1-1.6-.3-2a1.1 1.1 0 0 0-1-.6c-.4 0-.7.1-1 .4s-.5.7-.6 1.1v6.2h-1.7v-5.3c0-.9-.1-1.5-.4-1.9a1.1 1.1 0 0 0-1-.6c-.4 0-.7.1-.9.3s-.5.5-.6.8v6.7h-1.7v-9h1.5z"/><use xlink:href="#W" x="877" y="95.7"/><path d="M1027.5 237.9h-1.7v-1.6h1.7v1.6zm0 11.3h-1.7v-9h1.7v9zm3.9 0h-1.7v-12.9h1.7v12.9z"/><use xlink:href="#g"/><use xlink:href="#a" x="550.2" y="95.7"/><use xlink:href="#Z" x="574.9" y="95.8"/><path d="M1029.6 265.5h-1.1v4.2h-1.6v-12.9h1.6v7.5h1l2.5-3.5h2l-3.1 4.1 3.5 4.9h-1.9l-2.9-4.3zm9.6 4.3c-1.3 0-2.2-.4-3-1.2-.7-.8-1.1-1.9-1.1-3.2v-.4a4.96 4.96 0 0 1 1.1-3.2c.7-.9 1.7-1.3 2.7-1.3 1.2 0 2.1.4 2.7 1.1s.9 1.7.9 2.9v1h-5.8c0 .9.2 1.6.7 2.1.4.6 1 .8 1.8.8.6 0 1-.1 1.5-.2.4-.2.8-.4 1.1-.7l.6 1.1a3.22 3.22 0 0 1-1.3.8c-.5.3-1.1.4-1.9.4zm-.2-8c-.5 0-1 .2-1.4.7s-.6 1-.7 1.7h4.1v-.2c0-.6-.2-1.2-.5-1.6s-.9-.6-1.5-.6z"/><use xlink:href="#h"/><path d="M1052.1 258.3h-1.6v-1.7h1.6v1.7zm0 11.3h-1.6v-9h1.6v9z"/><use xlink:href="#i"/><use xlink:href="#j"/><path d="M1077.1 265.2h-4.1v-1.3h4.1v1.3z"/><use xlink:href="#g" x="81.8"/><use xlink:href="#a" x="632" y="95.7"/><use xlink:href="#Z" x="656.7" y="95.8"/><path d="M1111.4 265.5h-1.1v4.2h-1.6v-12.9h1.6v7.5h1l2.5-3.5h2l-3.1 4.1 3.5 4.9h-1.9l-2.9-4.3zm9.6 4.3c-1.3 0-2.2-.4-3-1.2-.7-.8-1.1-1.9-1.1-3.2v-.4a4.96 4.96 0 0 1 1.1-3.2c.7-.9 1.7-1.3 2.7-1.3 1.2 0 2.1.4 2.7 1.1s.9 1.7.9 2.9v1h-5.8c0 .9.2 1.6.7 2.1.4.6 1 .8 1.8.8.6 0 1-.1 1.5-.2.4-.2.8-.4 1.1-.7l.6 1.1a3.22 3.22 0 0 1-1.3.8c-.5.3-1.1.4-1.9.4zm-.2-8c-.5 0-1 .2-1.4.7s-.6 1-.7 1.7h4.1v-.2c0-.6-.2-1.2-.5-1.6-.4-.4-.9-.6-1.5-.6z"/><use xlink:href="#h" x="81.8"/><path d="M1133.9 258.3h-1.6v-1.7h1.6v1.7zm0 11.3h-1.6v-9h1.6v9z"/><use xlink:href="#i" x="81.8"/><use xlink:href="#j" x="81.8"/><path d="M1003.7 286.9h-5.1l-1.1 3.1h-1.7l4.7-12.1h1.4l4.6 12.1h-1.7l-1.1-3.1zm-4.6-1.4h4.1l-2-5.5-2.1 5.5zm14.4 3.2c-.3.5-.6.9-1.1 1.1-.4.3-1 .4-1.5.4-1 0-1.7-.3-2.3-.9s-.8-1.6-.8-2.9V281h1.6v5.3c0 1 .1 1.6.4 2s.7.5 1.3.5 1.1-.1 1.4-.4.7-.6.9-1V281h1.6v9h-1.5v-1.3z"/><use xlink:href="#k"/><path d="M1023 285.5c0-1.3.4-2.4 1.1-3.3s1.7-1.3 2.9-1.3 2.2.4 3 1.3c.7.9 1.1 2 1.1 3.3v.2c0 1.3-.4 2.4-1.1 3.3s-1.7 1.3-2.9 1.3-2.2-.4-2.9-1.3-1.1-1.9-1.1-3.3v-.2zm1.6.1c0 1 .2 1.7.6 2.4s1 .9 1.8.9 1.4-.3 1.8-.9.6-1.4.6-2.4v-.2c0-.9-.2-1.7-.6-2.3s-1-.9-1.8-.9-1.4.3-1.8.9-.6 1.4-.6 2.3v.2zm9.9-4.6l.1 1.2c.3-.4.7-.8 1.1-1s1-.4 1.6-.4 1.1.1 1.5.4.8.7 1 1.2c.3-.5.7-.9 1.1-1.2s1-.4 1.6-.4c.9 0 1.6.3 2.2.9s.8 1.6.8 2.8v5.4h-1.6v-5.4c0-.9-.2-1.5-.5-1.9s-.8-.6-1.4-.6-1 .2-1.4.6-.5.9-.6 1.5v5.8h-1.6v-5.4c0-.8-.2-1.5-.5-1.8-.3-.4-.8-.6-1.3-.6s-.9.1-1.2.3-.6.5-.7.9v6.6h-1.6v-9h1.4z"/><use xlink:href="#a" x="586.3" y="116.1"/><use xlink:href="#k" x="39.7"/><path d="M1064.9 278.7h-1.6V277h1.6v1.7zm0 11.3h-1.6v-9h1.6v9zm2.1-4.5c0-1.3.4-2.4 1.1-3.3s1.7-1.3 2.9-1.3 2.2.4 3 1.3c.7.9 1.1 2 1.1 3.3v.2c0 1.3-.4 2.4-1.1 3.3s-1.7 1.3-2.9 1.3-2.2-.4-2.9-1.3-1.1-1.9-1.1-3.3v-.2zm1.7.1c0 1 .2 1.7.6 2.4s1 .9 1.8.9 1.4-.3 1.8-.9.6-1.4.6-2.4v-.2c0-.9-.2-1.7-.6-2.3s-1-.9-1.8-.9-1.4.3-1.8.9-.6 1.4-.6 2.3v.2z"/><use xlink:href="#b" x="606.1" y="116.1"/><path d="M1218.3 151.3h0l2.9-9.9h2.2v12.1h-1.7v-8.7h-.1l-2.8 8.7h-1.2l-2.8-8.8v8.8h-1.7v-12.1h2.2l3 9.9zm12 .9c-.2.5-.6.8-.9 1.1-.4.3-.8.4-1.3.4-.8 0-1.5-.3-1.9-1s-.7-1.6-.7-3v-5.2h1.7v5.3c0 1 .1 1.6.3 2a1.1 1.1 0 0 0 1 .6c.4 0 .8-.1 1.1-.3s.5-.5.7-.8v-6.7h1.7v9h-1.4l-.3-1.4zm5.3 1.3h-1.7v-12.9h1.7v12.9z"/><use xlink:href="#Q" x="1169.7"/><use xlink:href="#X" x="1077.4"/><path d="M1251 149h-4.2v-1.3h4.2v1.3zm9.9.9h0c0 1.2-.3 2.2-1 2.8s-1.6 1-2.8 1-2.2-.4-3-1.2-1.1-1.9-1.1-3.3v-3.4c0-1.4.4-2.5 1.1-3.3s1.7-1.2 2.9-1.2 2.2.3 2.9 1c.7.6 1 1.6 1 2.8h0-1.6c0-.9-.2-1.5-.6-1.9s-.9-.6-1.7-.6c-.7 0-1.3.3-1.7.8-.4.6-.6 1.4-.6 2.4v3.4c0 1.1.2 1.9.6 2.4.4.6 1 .8 1.8.8.7 0 1.3-.2 1.6-.6s.5-1 .5-1.9h1.7zm3.4-4.2c.3-.4.6-.8.9-1 .4-.2.8-.4 1.2-.4.8 0 1.5.3 1.9.9.5.6.7 1.5.7 2.8v5.5h-1.7V148c0-.8-.1-1.4-.4-1.8-.2-.4-.6-.5-1.1-.5a1.69 1.69 0 0 0-1 .3c-.3.2-.5.5-.7.8v6.8h-1.7v-12.9h1.7v5zm11.3 7.8c-.1-.3-.1-.5-.2-.7 0-.2-.1-.4-.1-.6-.2.4-.6.8-.9 1.1-.4.3-.8.4-1.3.4-.8 0-1.4-.2-1.8-.7s-.6-1.1-.6-2c0-.8.3-1.5.9-2s1.4-.7 2.5-.7h1.4v-.9c0-.5-.1-1-.4-1.3-.2-.3-.6-.5-1-.5s-.7.1-1 .4c-.2.3-.4.6-.4 1h-1.6c0-.7.2-1.3.8-1.8s1.3-.8 2.3-.8c.9 0 1.6.3 2.2.8s.8 1.3.8 2.2v4.2c0 .3 0 .7.1 1 0 .3.1.6.2 1h-1.9zm-2.2-1.1c.5 0 .9-.1 1.2-.4s.6-.6.7-1v-1.6h-1.4c-.5 0-.9.2-1.2.5s-.4.7-.4 1.2a1.69 1.69 0 0 0 .3 1c.2.3.5.3.8.3z"/><use xlink:href="#P" x="1219.3"/><use xlink:href="#P" x="1227.7"/><use xlink:href="#R" x="1222.6"/><path d="M1305.3 153.5h-1.7v-12.9h1.7v12.9zm-86.7 17.3h-3.6l-.9 3.1h-1.8l3.6-12.1h1.6l3.6 12.1h-1.8l-.7-3.1zm-3.2-1.3h2.9l-1.4-4.9-1.5 4.9z"/><use xlink:href="#f" x="346.8"/><path d="M1235.5 173.9c-.1-.3-.1-.5-.2-.7 0-.2-.1-.4-.1-.6-.2.4-.6.8-.9 1.1-.4.3-.8.4-1.3.4-.8 0-1.4-.2-1.8-.7s-.6-1.1-.6-2c0-.8.3-1.5.9-2s1.4-.7 2.5-.7h1.4v-.9c0-.5-.1-1-.4-1.3-.2-.3-.6-.5-1-.5s-.7.1-1 .4c-.2.3-.4.6-.4 1h-1.6c0-.7.2-1.3.8-1.8s1.3-.8 2.3-.8c.9 0 1.6.3 2.2.8s.8 1.3.8 2.2v4.2c0 .3 0 .7.1 1 0 .3.1.6.2 1h-1.9zm-2.2-1.1c.5 0 .9-.1 1.2-.4s.6-.6.7-1v-1.6h-1.4c-.5 0-.9.2-1.2.5s-.4.7-.4 1.2a1.69 1.69 0 0 0 .3 1c.2.3.4.3.8.3zm7.3 1.1h-1.7V161h1.7v12.9zm4.6-3.1l.1.6h.1l1.8-6.5h1.9l-3.2 10.4c-.2.6-.5 1.1-.9 1.6s-.9.7-1.6.7h-.4c-.1 0-.3-.1-.5-.1l.2-1.2h.5c.3 0 .6-.1.8-.4s.3-.6.5-1l.3-.9-2.8-8.9h1.8l1.4 5.7z"/><use xlink:href="#e" x="383.5"/><use xlink:href="#X" x="1089.9" y="20.4"/><use xlink:href="#d" x="416" y="20.4"/><path d="M1271.1 171.6c0-.3-.1-.6-.3-.9s-.7-.5-1.3-.8c-.9-.3-1.6-.7-2.1-1.1s-.7-.9-.7-1.6.3-1.3.8-1.8c.6-.5 1.3-.7 2.2-.7s1.7.3 2.2.8.8 1.2.8 1.9h0-1.6c0-.4-.1-.8-.4-1.1s-.6-.5-1-.5-.8.1-1 .4c-.2.2-.4.5-.4.8s.1.6.3.8.7.5 1.3.8c.9.3 1.6.7 2.1 1.2.5.4.7 1 .7 1.6 0 .7-.3 1.4-.9 1.8-.6.5-1.3.7-2.3.7s-1.8-.3-2.4-.8-.9-1.2-.8-2h1.6c0 .6.2 1 .5 1.3s.7.4 1.1.4.8-.1 1-.3.6-.5.6-.9zm-1016.7 74h0c0 1.2-.3 2.2-1 2.8s-1.6 1-2.8 1-2.2-.4-3-1.2c-.7-.8-1.1-1.9-1.1-3.3v-3.4c0-1.4.4-2.5 1.1-3.3s1.7-1.2 2.9-1.2 2.2.3 2.9 1 1 1.6 1 2.8v.1h-1.6c0-.9-.2-1.5-.6-1.9s-.9-.6-1.7-.6c-.7 0-1.3.3-1.7.8-.4.6-.6 1.4-.6 2.4v3.4c0 1.1.2 1.9.6 2.4.4.6 1 .8 1.8.8.7 0 1.3-.2 1.6-.6.4-.4.5-1 .5-1.9h1.7zm1.3-1c0-1.3.3-2.4.9-3.3s1.5-1.3 2.6-1.3 2 .4 2.6 1.3a5.62 5.62 0 0 1 1 3.3v.2c0 1.3-.3 2.4-.9 3.3s-1.5 1.3-2.6 1.3-2-.4-2.6-1.3-.9-1.9-.9-3.3v-.2zm1.7.3c0 1 .2 1.7.5 2.3s.8.9 1.4.9 1.1-.3 1.4-.9.5-1.4.5-2.3v-.2c0-.9-.2-1.7-.5-2.3s-.8-.9-1.4-.9-1.1.3-1.4.9-.5 1.4-.5 2.3v.2z"/><use xlink:href="#l"/><path d="M275 238v2.2h1.4v1.2H275v5.3c0 .5.1.8.2 1s.3.3.6.3h.3c.1 0 .2 0 .3-.1l.2 1.2c-.2.1-.3.1-.5.2s-.4.1-.6.1c-.6 0-1.2-.2-1.5-.6-.4-.4-.5-1.1-.5-2v-5.3h-1.2v-1.2h1.2V238h1.5zm6.1 11.4c-1.1 0-2-.4-2.6-1.2s-1-1.9-1-3.2v-.4c0-1.3.3-2.4.9-3.2s1.5-1.3 2.5-1.3 1.8.4 2.3 1.1.8 1.7.8 2.9v.9h-4.9c0 .9.2 1.7.5 2.2s.8.9 1.5.9a3.73 3.73 0 0 0 1.2-.2c.3-.1.7-.4 1-.6l.5 1c-.3.3-.7.6-1.2.8-.3.2-.8.3-1.5.3zm-.1-8c-.5 0-.9.2-1.2.7s-.5 1-.5 1.8h3.2v-.2c0-.7-.1-1.2-.4-1.6-.2-.5-.6-.7-1.1-.7z"/><use xlink:href="#l" x="21.2"/><path d="M296.2 238v2.2h1.4v1.2h-1.4v5.3c0 .5.1.8.2 1s.3.3.6.3h.3c.1 0 .2 0 .3-.1l.2 1.2c-.2.1-.3.1-.5.2s-.4.1-.6.1c-.6 0-1.2-.2-1.5-.6-.4-.4-.5-1.1-.5-2v-5.3h-1.2v-1.2h1.2V238h1.5zm11.9 9h0l2.9-9.9h2.2v12.1h-1.7v-8.7h-.1l-2.8 8.7h-1.2l-2.8-8.8v8.8H303v-12.1h2.2l2.9 9.9zm11.8 2.2c-.1-.3-.1-.5-.2-.7 0-.2-.1-.4-.1-.6-.2.4-.6.8-.9 1.1-.4.3-.8.4-1.3.4-.8 0-1.4-.2-1.8-.7s-.6-1.1-.6-2c0-.8.3-1.5.9-2s1.4-.7 2.5-.7h1.4v-.9c0-.5-.1-1-.4-1.3-.2-.3-.6-.5-1-.5s-.7.1-1 .4c-.2.3-.4.6-.4 1h-1.6v-.1c0-.7.2-1.3.8-1.8s1.3-.8 2.3-.8c.9 0 1.6.3 2.2.8s.8 1.3.8 2.2v4.2c0 .3 0 .7.1 1 0 .3.1.6.2 1h-1.9zm-2.2-1.1c.5 0 .9-.1 1.2-.4s.6-.6.7-1v-1.6h-1.4c-.5 0-.9.2-1.2.5s-.4.7-.4 1.2a1.69 1.69 0 0 0 .3 1c.2.2.5.3.8.3z"/><use xlink:href="#T" x="234" y="95.7"/><path d="M330.8 245.1h-.6v4.1h-1.7v-12.9h1.7v7.5h.6l2.2-3.6h2l-2.7 4.1 3 4.9h-2l-2.5-4.1zm8.5 4.3c-1.1 0-2-.4-2.6-1.2s-1-1.9-1-3.2v-.4c0-1.3.3-2.4.9-3.2s1.5-1.3 2.5-1.3 1.8.4 2.3 1.1.8 1.7.8 2.9v.9h-4.9c0 .9.2 1.7.5 2.2s.8.9 1.5.9a3.73 3.73 0 0 0 1.2-.2c.3-.1.7-.4 1-.6l.5 1c-.3.3-.7.6-1.2.8-.3.2-.8.3-1.5.3zm-.1-8c-.5 0-.9.2-1.2.7s-.5 1-.5 1.8h3.2v-.2c0-.7-.1-1.2-.4-1.6-.3-.5-.6-.7-1.1-.7zm6.8-3.4v2.2h1.4v1.2H346v5.3c0 .5.1.8.2 1s.3.3.6.3h.3c.1 0 .2 0 .3-.1l.2 1.2c-.2.1-.3.1-.5.2s-.4.1-.6.1c-.6 0-1.2-.2-1.5-.6-.4-.4-.5-1.1-.5-2v-5.3h-1.2v-1.2h1.2V238h1.5zm4.7-.1H349v-1.6h1.7v1.6zm0 11.3H349v-9h1.7v9z"/><use xlink:href="#l" x="88.3"/><path d="M360.9 244.8c0-1.4.3-2.6.8-3.5s1.3-1.3 2.2-1.3c.5 0 .9.1 1.2.3.4.2.7.5.9 1l.2-1.1h1.4v9c0 1.2-.3 2-.9 2.7-.6.6-1.5.9-2.6.9-.4 0-.8-.1-1.2-.2s-.8-.3-1.2-.5l.3-1.3c.3.2.6.3 1 .4s.7.1 1.1.1c.6 0 1.1-.2 1.4-.6s.4-.9.4-1.7v-.9a2.36 2.36 0 0 1-.9.8c-.3.2-.7.3-1.2.3-.9 0-1.7-.4-2.2-1.2s-.8-1.9-.8-3.2h0zm1.7.2c0 .9.1 1.7.4 2.3s.7.8 1.3.8a1.69 1.69 0 0 0 1-.3c.3-.2.5-.5.6-.8v-4.4c-.2-.4-.4-.7-.6-.9a1.69 1.69 0 0 0-1-.3c-.6 0-1 .3-1.3 1s-.4 1.5-.4 2.5v.1z"/></g><g fill="none" stroke="#fff" class="S"><g class="Q R"><path d="M288.9 168.3v11.4"/><path d="M288.9 187.1v10.7a2.26 2.26 0 0 1-2.3 2.3H248a2.26 2.26 0 0 1-2.3-2.3v-50.5a2.26 2.26 0 0 1 2.3-2.3h38.6a2.26 2.26 0 0 1 2.3 2.3v3.8"/><path d="M245.7 194.9a3.12 3.12 0 0 1-3.1-3.1 3.12 3.12 0 0 1 3.1-3.1 3.12 3.12 0 0 1 3.1 3.1m-3.1-6.4a3.12 3.12 0 0 1-3.1-3.1 3.12 3.12 0 0 1 3.1-3.1 3.12 3.12 0 0 1 3.1 3.1m-3.1-6.4a3.12 3.12 0 0 1-3.1-3.1 3.12 3.12 0 0 1 3.1-3.1 3.12 3.12 0 0 1 3.1 3.1m-3.1-6.4a3.12 3.12 0 0 1-3.1-3.1 3.12 3.12 0 0 1 3.1-3.1 3.12 3.12 0 0 1 3.1 3.1m-3.1-6.4a3.12 3.12 0 0 1-3.1-3.1 3.12 3.12 0 0 1 3.1-3.1 3.12 3.12 0 0 1 3.1 3.1m3.3-1.8h22.3m-22.3 5.8h22.3m-22.3 5.7h22.3"/></g><circle cx="288.9" cy="160" r="8"/><ellipse transform="matrix(.9712 -.2382 .2382 .9712 -34.9401 69.401)" cx="269.7" cy="179.3" rx="2.5" ry="6.2"/><g class="Q"><path d="M267.5 173.7l-11.6 6.5c-1 .6-1.6 1.8-1.3 3h0c.3 1.3 1.4 2.2 2.7 2.2h13.8m-6.4 1.3c0 1.7-1.5 3.1-3.2 3.1-1.8 0-3.2-1.4-3.2-3.2v-.2m15.5-12.2l1-1.6m.1 5.4l2.4-.6m-2.1 4.3l2.4 1.4" class="R"/><path d="M279.4 193.2c.1-.1 2.2-5.4 2.2-5.4l11.5-11.3c.8-.7 2-.8 2.7 0h0a1.93 1.93 0 0 1 0 2.8l-11.4 11.5-5 2.4z"/><path d="M281.7 187.9l2.9 2.9m7.1-12.8l2.9 2.7" class="R"/><path d="M286.9 157.3v5.4l5.7-3.3z"/></g><circle cx="450.6" cy="68.1" r="17.1"/><g class="Q"><path d="M471.1 77.1l7.8.9 1.2-4.6-7.3-2.9c.1-.8.1-1.6.1-2.5s-.1-1.8-.2-2.7h.2l7.1-2.8-1.4-4-7.6.6a20.67 20.67 0 0 0-2.7-4.5l4.5-6.4-2.8-2.9-6.6 4.5c-1.1-.8-2.3-1.5-3.5-2.1v-8.4l-3.9-.8-3.2 7.3c-.8-.1-1.6-.1-2.4-.1l-2.2.1v-.1l-3.9-7.5-3.7 1 1.1 8.3c-1.6.7-3 1.5-4.4 2.5l-6.7-4.3-3.3 2.6 4.8 6.9c-.8 1.1-1.5 2.3-2.1 3.6l-8.1-.8-1.4 4 7.7 3.5-.2 2.6c0 .9.1 1.8.2 2.6l-.2.1-7.6 3 1.3 3.6 8.1-.6c.6 1.5 1.4 2.9 2.3 4.2l-4.6 6.5 3 2.9 6.3-4.6c1.2.9 2.4 1.7 3.7 2.3l-.4 8.4 4.1 1 3.4-7.3 2.7.2c.9 0 1.8-.1 2.6-.2" class="R"/><path d="M457.9 91.9c.5-.3 9.4-5.4 9.4-5.4l7.4 13.6c1.4 2.6.5 6-2.2 7.4h0c-2.7 1.5-6.1.5-7.5-2.2l-7.1-13.4z"/></g><circle cx="469.5" cy="101.9" r="2.4"/><path d="M456.4 84.1l3.7 6.5m1-9l3.8 6.2" class="Q R"/><circle cx="644.5" cy="171.9" r="24.8"/><circle cx="644.5" cy="171.9" r="18.8"/><path d="M644.4 137.6v2.5m0 65v2.5m35-35h-2.5m-65 0h-2.5m59.7 24.7l-1.8-1.7m-45.9-46l-1.8-1.8m0 49.5l1.8-1.7m45.9-46l1.8-1.8m-24.6 5.3v4.9m0 32.6v-3.7" class="Q R"/></g><path d="M646.9 176.1c0-.6-.2-1.2-.6-1.6s-1-.8-1.9-1.1c-1.8-.6-3.1-1.4-3.9-2.1-.8-.8-1.3-1.9-1.3-3.3 0-1.3.4-2.4 1.3-3.3.8-.8 2-1.3 3.4-1.5v-2.5h1.9v2.6c1.4.2 2.5.8 3.3 1.7.8 1 1.2 2.2 1.2 3.7v.1h-3.4c0-.9-.2-1.7-.6-2.2s-.9-.8-1.6-.8-1.2.2-1.5.6-.5.9-.5 1.6c0 .6.2 1.1.5 1.5s1 .8 1.9 1.1c1.7.7 3 1.4 3.9 2.2.8.8 1.3 1.9 1.3 3.3s-.4 2.5-1.3 3.3c-.8.8-2 1.3-3.4 1.5v2.3h-1.9v-2.3c-1.5-.1-2.7-.7-3.7-1.6s-1.4-2.2-1.4-4v-.1h3.4c0 1.1.2 1.8.7 2.3s1.1.7 1.9.7c.7 0 1.3-.2 1.7-.6s.6-.9.6-1.5z" fill="#fff"/><g fill="none" stroke="#fff" class="S"><circle cx="834.8" cy="73.2" r="19.9"/><g class="Q"><path d="M838.6 72.7h-6.9c-1.1 0-1.9-.9-1.9-1.9v-11c0-1.1.9-1.9 1.9-1.9h6.9c1.1 0 1.9.9 1.9 1.9v11a1.97 1.97 0 0 1-1.9 1.9z"/><g class="R"><path d="M829.8 63s2.8-2.8 4.8-.9c1.3 1.1 4.2 1.6 5.9-.1m-7.1 10.7v1.8c.5 0-7.4 1-8.5 4.4v5.6c0 1.9 1.5 3.5 3.5 3.5h13.3c1.9 0 3.5-1.5 3.5-3.5V79s-.8-2.8-8.7-4.3v-1.9"/><path d="M832 74.8s-.3 4.6 2.9 5c1.9 0 2.9-1.7 3.2-4.8m-3-21.8v-5.4"/></g></g><circle cx="835.2" cy="42.9" r="4.7"/><path d="M835.2 93.1v5.4" class="Q R"/><circle cx="835.2" cy="103.5" r="4.7"/><path d="M855.1 73.1h5.4" class="Q R"/><circle cx="865.5" cy="73.2" r="4.7"/><path d="M815.2 73.2h-5.4" class="Q R"/><circle cx="804.9" cy="73.2" r="4.7"/><path d="M849.8 58.5l2.7-2.7" class="Q R"/><circle cx="854.9" cy="53.4" r="3.3"/><path d="M820.5 87.8l-2.7 2.7" class="Q R"/><circle cx="815.4" cy="93" r="3.3"/><path d="M849.8 87.7l2.7 2.7" class="Q R"/><circle cx="854.9" cy="92.9" r="3.3"/><path d="M820.5 58.6l-2.7-2.7" class="Q R"/><circle cx="815.4" cy="53.4" r="3.3"/><g class="Q"><g class="R"><path d="M1042.3 159.8h9.7a4.91 4.91 0 0 1 4.9 4.9v38a4.91 4.91 0 0 1-4.9 4.9h-60.5a4.91 4.91 0 0 1-4.9-4.9v-38a4.91 4.91 0 0 1 4.9-4.9h13.2"/><path d="M992.2 159.8l26.7 25.8c1.6 1.6 4.2 1.6 5.8 0l26.9-25.8M993 200.3l13.5-13.5m44 13.4l-14.2-13.8m-31.8-19.7c.2-.4 0-29.1 0-29.1h37.6v3.9m0 18.3v5.2m-2.1-18.5h10.4m-10.4 4.4h16.5m-16.5 4.6h10"/></g><path d="M1015.2 147.5h8.1v6.4h-8.1z"/><path d="M1021.5 164.2h-4.4c-.4 0-.8-.4-.8-.8v-9.5h5.9v9.5c.1.4-.3.8-.7.8zm1.8-15.2c0-.2 12.2-7.5 12.2-7.5v18.7l-12.2-7.3V149z"/></g><circle cx="1217" cy="72.9" r="7.4"/><circle cx="1217" cy="43.1" r="4.9"/><path d="M1217 48v17.6" class="Q R"/><circle cx="1217" cy="103.2" r="4.9"/><path d="M1217 98.3V80.8" class="Q R"/><circle cx="1247.1" cy="73.2" r="4.9"/><path d="M1242.2 73.2h-17.6" class="Q R"/><circle cx="1186.9" cy="73.2" r="4.9"/><path d="M1191.9 73.2h17.5" class="Q R"/><circle cx="1238.3" cy="51.9" r="4.9"/><path d="M1234.8 55.4l-12.4 12.4" class="Q R"/><circle cx="1195.8" cy="94.4" r="4.9"/><path d="M1199.2 90.9l12.4-12.4" class="Q R"/><circle cx="1238.3" cy="94.4" r="4.9"/><path d="M1234.8 90.9l-12.4-12.4" class="Q R"/><circle cx="1195.8" cy="51.9" r="4.9"/><path d="M1199.2 55.4l12.4 12.4" class="Q R"/></g><defs ><path id="P" d="M61.2 144.5l.1 1.3c.3-.5.6-.8 1-1.1s.8-.4 1.3-.4a2.32 2.32 0 0 1 1.9.9c.5.6.7 1.5.7 2.7v5.5h-1.7V148c0-.8-.1-1.4-.4-1.8-.2-.3-.6-.5-1.1-.5a1.69 1.69 0 0 0-1 .3c-.3.2-.5.5-.7.8v6.7h-1.7v-9h1.6z"/><path id="Q" d="M70.2 142.3v2.2h1.4v1.2h-1.4v5.3c0 .5.1.8.2 1s.3.3.6.3h.3c.1 0 .2 0 .3-.1l.2 1.2c-.2.1-.3.1-.5.2s-.4.1-.6.1c-.6 0-1.2-.2-1.5-.6-.4-.4-.5-1.1-.5-2v-5.3h-1.2v-1.2h1.2v-2.2h1.5z"/><path id="R" d="M76.4 153.7c-1.1 0-2-.4-2.6-1.2s-1-1.9-1-3.2v-.4c0-1.3.3-2.4.9-3.2s1.5-1.3 2.5-1.3 1.8.4 2.3 1.1.8 1.7.8 2.9v.9h-4.9c0 .9.2 1.7.5 2.2s.8.9 1.5.9a3.73 3.73 0 0 0 1.2-.2c.3-.1.7-.4 1-.6l.5 1c-.3.3-.7.6-1.2.8-.4.2-.9.3-1.5.3zm-.2-8.1c-.5 0-.9.2-1.2.7s-.5 1-.5 1.8h3.2v-.2c0-.7-.1-1.2-.4-1.6-.2-.5-.6-.7-1.1-.7z"/><path id="S" d="M80.6 149.1c0-1.4.3-2.6.8-3.5s1.3-1.3 2.2-1.3c.5 0 .9.1 1.2.3.4.2.7.5.9 1l.2-1.1h1.4v9c0 1.2-.3 2-.9 2.7-.6.6-1.5.9-2.6.9-.4 0-.8-.1-1.2-.2s-.8-.3-1.2-.5l.3-1.3c.3.2.6.3 1 .4s.7.1 1.1.1c.6 0 1.1-.2 1.4-.6s.4-.9.4-1.7v-.9a2.36 2.36 0 0 1-.9.8c-.3.2-.7.3-1.2.3-.9 0-1.7-.4-2.2-1.2s-.8-1.9-.8-3.2h0zm1.7.2c0 .9.1 1.7.4 2.3s.7.8 1.3.8a1.69 1.69 0 0 0 1-.3c.3-.2.5-.5.6-.8v-4.4c-.2-.4-.4-.7-.6-.9s-.6-.3-1-.3c-.6 0-1 .3-1.3 1-.3.6-.4 1.5-.4 2.5v.1z"/><path id="T" d="M93.1 145.9h-.7c-.4 0-.6.1-.9.3s-.4.5-.5.9v6.4h-1.7v-9h1.6l.1 1.3c.2-.5.5-.8.8-1.1s.7-.4 1.1-.4h.3c.1 0 .2 0 .2.1l-.3 1.5z"/><path id="U" d="M115 149.1c0-1.4.3-2.6.8-3.5s1.3-1.3 2.2-1.3c.4 0 .8.1 1.1.3s.6.5.9.8v-4.9h1.7v12.9h-1.4l-.2-1.1c-.2.4-.6.7-.9.9s-.8.3-1.2.3c-.9 0-1.7-.4-2.2-1.2s-.8-1.9-.8-3.2h0zm1.7.2c0 .9.1 1.7.4 2.2.3.6.7.8 1.3.8a1.69 1.69 0 0 0 1-.3c.3-.2.5-.5.6-.8v-4.3c-.2-.4-.4-.7-.6-.9s-.6-.3-.9-.3c-.6 0-1 .3-1.3 1-.3.6-.4 1.5-.4 2.5v.1z"/><path id="V" d="M129.3 148.7v4.8h-1.7v-12.1h3.9c1.1 0 2 .3 2.7 1s1 1.6 1 2.7-.3 2-1 2.7-1.5 1-2.7 1h-2.2zm0-1.3h2.2c.7 0 1.1-.2 1.5-.7.3-.4.5-1 .5-1.7s-.2-1.2-.5-1.7-.8-.7-1.5-.7h-2.2v4.8z"/><path id="W" d="M145.3 153.5c-.1-.3-.1-.5-.2-.7 0-.2-.1-.4-.1-.6-.2.4-.6.8-.9 1.1-.4.3-.8.4-1.3.4-.8 0-1.4-.2-1.8-.7s-.6-1.1-.6-2c0-.8.3-1.5.9-2s1.4-.7 2.5-.7h1.4v-.9c0-.5-.1-1-.4-1.3-.2-.3-.6-.5-1-.5s-.7.1-1 .4c-.2.3-.4.6-.4 1h-1.6c0-.7.2-1.3.8-1.8s1.3-.8 2.3-.8c.9 0 1.6.3 2.2.8s.8 1.3.8 2.2v4.2c0 .3 0 .7.1 1 0 .3.1.6.2 1h-1.9zm-2.1-1.1c.5 0 .9-.1 1.2-.4s.6-.6.7-1v-1.6h-1.4c-.5 0-.9.2-1.2.5s-.4.7-.4 1.2a1.69 1.69 0 0 0 .3 1c.2.3.4.3.8.3z"/><path id="X" d="M167.2 142.1h-1.7v-1.6h1.7v1.6zm0 11.4h-1.7v-9h1.7v9z"/><path id="Y" d="M124.2 164.9l.1 1.6a3.04 3.04 0 0 1 1.2-1.3c.5-.3 1.1-.5 1.7-.5 1 0 1.7.3 2.2.9s.8 1.5.8 2.8v5.5h-1v-5.5c0-1-.2-1.8-.6-2.2s-.9-.6-1.6-.6-1.3.2-1.7.6-.8.9-1 1.5v6.3h-1v-9h.9z"/><path id="Z" d="M450.5 166.3h-.8c-.4 0-.8.1-1.1.3s-.5.5-.7.9v6.4h-1.6v-9h1.5l.2 1.3c.3-.5.6-.8.9-1.1.4-.3.8-.4 1.3-.4h.3c.1 0 .2 0 .3.1l-.3 1.5z"/><path id="a" d="M467.1 173.9c-.1-.3-.1-.5-.1-.7s0-.4-.1-.6c-.3.4-.7.8-1.2 1.1s-1 .4-1.6.4c-.9 0-1.6-.2-2.1-.7s-.7-1.1-.7-2 .3-1.5 1-2 1.6-.7 2.8-.7h1.8v-.9c0-.5-.2-.9-.5-1.3-.3-.3-.8-.5-1.4-.5-.5 0-1 .1-1.3.4s-.5.6-.5 1h-1.6c0-.7.3-1.3.9-1.8s1.5-.8 2.5-.8 1.8.3 2.5.8c.6.5.9 1.3.9 2.2v5.2c0 .3.1.6.2.9h-1.5zm-2.7-1.2c.6 0 1.1-.2 1.6-.5s.8-.7.9-1v-1.5h-1.8c-.7 0-1.2.2-1.6.5s-.6.7-.6 1.2c0 .4.1.7.4.9.2.3.6.4 1.1.4z"/><path id="b" d="M472.4 164.9l.1 1.3c.3-.5.7-.8 1.1-1.1s1-.4 1.5-.4c1 0 1.7.3 2.2.9s.8 1.4.8 2.6v5.7h-1.6v-5.6c0-.8-.2-1.4-.5-1.7s-.8-.5-1.4-.5c-.5 0-.9.1-1.3.3a1.96 1.96 0 0 0-.9.9v6.5h-1.6v-9h1.6z"/><path id="c" d="M636.8 265.2c0-1.4.3-2.6.9-3.4.6-.9 1.5-1.3 2.5-1.3.6 0 1.2.1 1.6.4s.8.6 1.1 1.1v-5.3h1v12.9h-.9l-.1-1.3c-.3.5-.7.8-1.2 1.1s-1 .4-1.7.4c-1.1 0-1.9-.4-2.5-1.2s-.9-1.9-.9-3.2v-.2zm1 .2c0 1.1.2 2 .7 2.6s1.1 1 2 1c.6 0 1.2-.1 1.6-.4s.8-.7 1-1.2v-4.2c-.2-.5-.5-.9-1-1.3s-1-.5-1.6-.5c-.9 0-1.5.4-2 1.1-.4.7-.7 1.7-.7 2.8v.1z"/><path id="d" d="M846.2 152.4c.4 0 .8-.2 1-.5.3-.3.4-.8.4-1.3h1.5c0 .8-.3 1.6-.9 2.1-.6.6-1.3.9-2.1.9-1.1 0-2-.4-2.6-1.3s-.9-1.9-.9-3.2v-.3c0-1.3.3-2.4.9-3.2a3.17 3.17 0 0 1 2.6-1.3c.9 0 1.6.3 2.2.9s.8 1.4.8 2.4h0-1.5c0-.6-.1-1.1-.4-1.5s-.6-.6-1.1-.6c-.6 0-1.1.3-1.4.9s-.4 1.4-.4 2.3v.3c0 .9.1 1.7.4 2.3s.9 1.1 1.5 1.1z"/><path id="e" d="M868.8 162.7v2.2h1.4v1.2h-1.4v5.3c0 .5.1.8.2 1s.3.3.6.3h.3c.1 0 .2 0 .3-.1l.2 1.2c-.2.1-.3.1-.5.2s-.4.1-.6.1c-.6 0-1.2-.2-1.5-.6-.4-.4-.5-1.1-.5-2v-5.3h-1.2V165h1.2v-2.2h1.5z"/><path id="f" d="M877.1 164.9l.1 1.3c.3-.5.6-.8 1-1.1s.8-.4 1.3-.4a2.32 2.32 0 0 1 1.9.9c.5.6.7 1.5.7 2.7v5.5h-1.7v-5.5c0-.8-.1-1.4-.4-1.8-.2-.3-.6-.5-1.1-.5a1.69 1.69 0 0 0-1 .3c-.3.2-.5.5-.7.8v6.7h-1.7v-9h1.6z"/><path id="g" d="M999.2 257.5l3.9 9.8 3.9-9.8h2.1v12.1h-1.6v-4.8l.2-4.9-3.9 9.7h-1.1l-3.9-9.7.2 4.9v4.8h-1.6v-12.1h1.8z"/><path id="h" d="M1046.6 258.5v2.2h1.7v1.2h-1.7v5.5c0 .4.1.7.3.9s.4.3.7.3h.3c.1 0 .2-.1.3-.1l.2 1.1c-.1.1-.3.2-.5.2s-.5.1-.7.1c-.7 0-1.2-.2-1.6-.6s-.6-1-.6-1.9v-5.5h-1.4v-1.2h1.4v-2.2h1.6z"/><path id="i" d="M1056.1 260.6l.1 1.3c.3-.5.7-.8 1.1-1.1s1-.4 1.5-.4c1 0 1.7.3 2.2.9s.8 1.4.8 2.6v5.7h-1.6V264c0-.8-.2-1.4-.5-1.7s-.8-.5-1.4-.5c-.5 0-.9.1-1.3.3a1.96 1.96 0 0 0-.9.9v6.5h-1.6v-9h1.6z"/><path id="j" d="M1063.9 265.3c0-1.4.3-2.6.9-3.5s1.5-1.3 2.6-1.3c.6 0 1.1.1 1.5.3s.8.6 1.1 1l.2-1.2h1.3v9c0 1.2-.3 2-1 2.7s-1.6.9-2.9.9c-.4 0-.9-.1-1.4-.2s-.9-.3-1.3-.5l.4-1.3c.3.2.6.3 1.1.4.4.1.8.2 1.2.2.8 0 1.4-.2 1.7-.5s.5-.9.5-1.7v-1c-.3.4-.6.7-1.1.9-.4.2-.9.3-1.4.3-1.1 0-2-.4-2.6-1.2s-.9-1.8-.9-3.1v-.2zm1.7.2c0 .9.2 1.6.6 2.2s1 .8 1.7.8c.5 0 .9-.1 1.2-.3s.6-.5.8-1v-4.1a2.36 2.36 0 0 0-.8-.9c-.3-.2-.7-.3-1.2-.3-.8 0-1.4.3-1.8 1s-.6 1.5-.6 2.5v.1z"/><path id="k" d="M1019.7 278.9v2.2h1.7v1.2h-1.7v5.5c0 .4.1.7.3.9s.4.3.7.3h.3c.1 0 .2-.1.3-.1l.2 1.1c-.1.1-.3.2-.5.2s-.5.1-.7.1c-.7 0-1.2-.2-1.6-.6s-.6-1-.6-1.9v-5.5h-1.4V281h1.4v-2.2h1.6z"/><path id="l" d="M266 240.2l.1 1.3c.3-.5.6-.8 1-1.1s.8-.4 1.3-.4a2.32 2.32 0 0 1 1.9.9c.4.6.7 1.5.7 2.7v5.5h-1.7v-5.5c0-.8-.1-1.4-.4-1.8-.2-.3-.6-.5-1.1-.5a1.69 1.69 0 0 0-1 .3c-.3.2-.5.5-.7.8v6.7h-1.7v-9h1.6z"/></defs></svg>