<svg id="Layer_1" data-name="Layer 1" xmlns="http://www.w3.org/2000/svg" xmlns:xlink="http://www.w3.org/1999/xlink" viewBox="0 0 372.22 345.42"><defs><style>.cls-1,.cls-10{opacity:0.2;}.cls-10,.cls-11,.cls-2{fill:#024ea1;}.cls-3{isolation:isolate;}.cls-4{fill:url(#linear-gradient);}.cls-5{fill:#e8eef8;}.cls-6{fill:#13426f;}.cls-7{fill:url(#linear-gradient-2);}.cls-8{fill:url(#linear-gradient-3);}.cls-9{fill:url(#linear-gradient-4);}.cls-11{opacity:0.4;}.cls-12{fill:#c6ddd8;}.cls-13{fill:#d1d9e6;}.cls-14{fill:url(#linear-gradient-5);}.cls-15{fill:url(#linear-gradient-6);}.cls-16{fill:url(#linear-gradient-7);}.cls-17{fill:#c4ddef;}.cls-18{fill:url(#linear-gradient-8);}.cls-19{fill:url(#linear-gradient-9);}.cls-20{fill:url(#linear-gradient-10);}.cls-21{fill:url(#linear-gradient-11);}.cls-22{fill:url(#linear-gradient-12);}.cls-23,.cls-33,.cls-62{fill:#fff;}.cls-24{fill:#c7e7f7;}.cls-25{fill:url(#linear-gradient-13);}.cls-26{fill:#f7f8fc;}.cls-27{fill:#004362;}.cls-28{fill:url(#linear-gradient-14);}.cls-29{fill:url(#linear-gradient-15);}.cls-30{fill:#bbd7f1;}.cls-31{fill:#8ba5bf;}.cls-32{fill:url(#linear-gradient-16);}.cls-33{opacity:0.6;}.cls-34{fill:url(#linear-gradient-17);}.cls-35{fill:url(#linear-gradient-18);}.cls-36{fill:url(#linear-gradient-19);}.cls-37{fill:url(#linear-gradient-20);}.cls-38{fill:url(#linear-gradient-21);}.cls-39{fill:url(#linear-gradient-22);}.cls-40{fill:url(#linear-gradient-23);}.cls-41{fill:#2ba9e0;}.cls-42{fill:url(#linear-gradient-24);}.cls-43{fill:url(#linear-gradient-25);}.cls-44{fill:url(#linear-gradient-26);}.cls-45{fill:url(#linear-gradient-27);}.cls-46{fill:url(#linear-gradient-28);}.cls-47{fill:url(#linear-gradient-29);}.cls-48{fill:url(#linear-gradient-30);}.cls-49{fill:url(#linear-gradient-31);}.cls-50{fill:url(#linear-gradient-32);}.cls-51{fill:url(#linear-gradient-33);}.cls-52{fill:url(#linear-gradient-34);}.cls-53{fill:#9abde4;}.cls-54{fill:url(#New_Gradient_Swatch_copy_4);}.cls-55{fill:url(#linear-gradient-35);}.cls-56{fill:url(#New_Gradient_Swatch_copy_4-2);}.cls-57{fill:url(#linear-gradient-36);}.cls-58{fill:url(#linear-gradient-37);}.cls-59{fill:url(#linear-gradient-38);}.cls-60{fill:url(#linear-gradient-39);}.cls-61{fill:url(#linear-gradient-40);}.cls-62{opacity:0.5;}.cls-63{fill:url(#linear-gradient-41);}.cls-64{fill:url(#linear-gradient-42);}.cls-65{fill:url(#linear-gradient-43);}.cls-66{fill:url(#linear-gradient-44);}.cls-67{fill:url(#linear-gradient-45);}.cls-68{fill:url(#linear-gradient-46);}.cls-69{fill:url(#linear-gradient-47);}.cls-70{fill:url(#linear-gradient-48);}.cls-71{fill:url(#linear-gradient-49);}.cls-72{fill:url(#linear-gradient-50);}.cls-73{fill:url(#linear-gradient-51);}.cls-74{fill:url(#linear-gradient-52);}.cls-75{fill:url(#linear-gradient-53);}.cls-76{fill:url(#linear-gradient-54);}.cls-77{fill:url(#linear-gradient-55);}.cls-78{fill:url(#linear-gradient-56);}.cls-79{fill:url(#linear-gradient-57);}.cls-80{fill:url(#linear-gradient-58);}.cls-81{fill:url(#linear-gradient-59);}.cls-82{fill:url(#linear-gradient-60);}.cls-83{fill:url(#linear-gradient-61);}</style><linearGradient id="linear-gradient" x1="41.95" y1="53.05" x2="126.07" y2="53.05" gradientUnits="userSpaceOnUse"><stop offset="0" stop-color="#07619e"/><stop offset="1" stop-color="#3085c7"/></linearGradient><linearGradient id="linear-gradient-2" x1="65.86" y1="37.39" x2="95.58" y2="37.39" xlink:href="#linear-gradient"/><linearGradient id="linear-gradient-3" x1="74.78" y1="42.78" x2="103.69" y2="42.78" xlink:href="#linear-gradient"/><linearGradient id="linear-gradient-4" x1="83.7" y1="48.56" x2="110.43" y2="48.56" xlink:href="#linear-gradient"/><linearGradient id="linear-gradient-5" x1="88.08" y1="216.58" x2="313.32" y2="216.58" xlink:href="#linear-gradient"/><linearGradient id="linear-gradient-6" x1="76.85" y1="138.39" x2="225.87" y2="138.39" xlink:href="#linear-gradient"/><linearGradient id="linear-gradient-7" x1="88.55" y1="140.5" x2="222.79" y2="140.5" gradientUnits="userSpaceOnUse"><stop offset="0" stop-color="#fff"/><stop offset="1" stop-color="#e8eef8"/></linearGradient><linearGradient id="linear-gradient-8" x1="243.82" y1="90.37" x2="265.15" y2="90.37" xlink:href="#linear-gradient"/><linearGradient id="linear-gradient-9" x1="209.75" y1="122.29" x2="231.08" y2="122.29" xlink:href="#linear-gradient"/><linearGradient id="linear-gradient-10" x1="0" y1="325.09" x2="52.57" y2="325.09" xlink:href="#linear-gradient"/><linearGradient id="linear-gradient-11" x1="19.06" y1="315.3" x2="37.63" y2="315.3" xlink:href="#linear-gradient"/><linearGradient id="linear-gradient-12" x1="11.02" y1="320.13" x2="27.74" y2="320.13" xlink:href="#linear-gradient"/><linearGradient id="linear-gradient-13" x1="201.77" y1="38.17" x2="261.97" y2="38.17" xlink:href="#linear-gradient"/><linearGradient id="linear-gradient-14" x1="248.87" y1="39.94" x2="273.27" y2="39.94" xlink:href="#linear-gradient"/><linearGradient id="linear-gradient-15" x1="85.69" y1="154.18" x2="174.15" y2="154.18" xlink:href="#linear-gradient"/><linearGradient id="linear-gradient-16" x1="160.55" y1="96.21" x2="220.54" y2="96.21" xlink:href="#linear-gradient"/><linearGradient id="linear-gradient-17" x1="226.15" y1="113.1" x2="228.29" y2="113.1" xlink:href="#linear-gradient"/><linearGradient id="linear-gradient-18" x1="233.35" y1="125.23" x2="237.11" y2="125.23" xlink:href="#linear-gradient"/><linearGradient id="linear-gradient-19" x1="232.96" y1="134.45" x2="236.19" y2="134.45" xlink:href="#linear-gradient"/><linearGradient id="linear-gradient-20" x1="225.29" y1="127.43" x2="237.11" y2="127.43" xlink:href="#linear-gradient"/><linearGradient id="linear-gradient-21" x1="218.02" y1="127.32" x2="227.39" y2="126.67" xlink:href="#linear-gradient"/><linearGradient id="linear-gradient-22" x1="217.04" y1="123.57" x2="219.35" y2="123.57" xlink:href="#linear-gradient"/><linearGradient id="linear-gradient-23" x1="218.12" y1="128.78" x2="227.49" y2="128.13" xlink:href="#linear-gradient"/><linearGradient id="linear-gradient-24" x1="321.45" y1="83.19" x2="329.25" y2="83.19" xlink:href="#linear-gradient"/><linearGradient id="linear-gradient-25" x1="329.25" y1="83.01" x2="338.25" y2="83.01" xlink:href="#linear-gradient"/><linearGradient id="linear-gradient-26" x1="309.15" y1="94.37" x2="316.95" y2="94.37" xlink:href="#linear-gradient"/><linearGradient id="linear-gradient-27" x1="316.95" y1="94.18" x2="325.95" y2="94.18" xlink:href="#linear-gradient"/><linearGradient id="linear-gradient-28" x1="296.86" y1="110.57" x2="304.65" y2="110.57" xlink:href="#linear-gradient"/><linearGradient id="linear-gradient-29" x1="304.65" y1="110.39" x2="313.66" y2="110.39" xlink:href="#linear-gradient"/><linearGradient id="linear-gradient-30" x1="285.82" y1="149.31" x2="357.08" y2="149.31" xlink:href="#linear-gradient"/><linearGradient id="linear-gradient-31" x1="296.29" y1="126.11" x2="346.61" y2="126.11" xlink:href="#linear-gradient"/><linearGradient id="linear-gradient-32" x1="309.13" y1="262.34" x2="372.22" y2="262.34" xlink:href="#linear-gradient"/><linearGradient id="linear-gradient-33" x1="340.68" y1="244.52" x2="356.27" y2="244.52" xlink:href="#linear-gradient"/><linearGradient id="linear-gradient-34" x1="327.6" y1="248.42" x2="340.7" y2="248.42" xlink:href="#linear-gradient"/><linearGradient id="New_Gradient_Swatch_copy_4" x1="390.62" y1="178.47" x2="392.93" y2="199.24" gradientTransform="translate(-341.69)" gradientUnits="userSpaceOnUse"><stop offset="0" stop-color="#1e6db6"/><stop offset="1" stop-color="#0050a3"/></linearGradient><linearGradient id="linear-gradient-35" x1="50.48" y1="200.08" x2="54.52" y2="200.08" xlink:href="#linear-gradient"/><linearGradient id="New_Gradient_Swatch_copy_4-2" x1="390.67" y1="178.46" x2="392.99" y2="199.24" xlink:href="#New_Gradient_Swatch_copy_4"/><linearGradient id="linear-gradient-36" x1="386.26" y1="200.47" x2="386.26" y2="177.23" gradientTransform="translate(-341.69)" xlink:href="#linear-gradient"/><linearGradient id="linear-gradient-37" x1="381.06" y1="181.21" x2="381.06" y2="202.95" gradientTransform="translate(-341.69)" xlink:href="#linear-gradient"/><linearGradient id="linear-gradient-38" x1="38.57" y1="203.7" x2="42.1" y2="203.7" xlink:href="#linear-gradient"/><linearGradient id="linear-gradient-39" x1="381.02" y1="181.21" x2="381.02" y2="202.95" gradientTransform="translate(-341.69)" xlink:href="#linear-gradient"/><linearGradient id="linear-gradient-40" x1="43.05" y1="190.32" x2="98.21" y2="190.32" xlink:href="#linear-gradient"/><linearGradient id="linear-gradient-41" x1="79.29" y1="173.96" x2="90.13" y2="173.96" xlink:href="#linear-gradient"/><linearGradient id="linear-gradient-42" x1="79.63" y1="175.01" x2="90.13" y2="175.01" xlink:href="#linear-gradient"/><linearGradient id="linear-gradient-43" x1="80.54" y1="175.9" x2="90.13" y2="175.9" xlink:href="#linear-gradient"/><linearGradient id="linear-gradient-44" x1="81.15" y1="176.88" x2="90.13" y2="176.88" xlink:href="#linear-gradient"/><linearGradient id="linear-gradient-45" x1="81.69" y1="177.87" x2="90.13" y2="177.87" xlink:href="#linear-gradient"/><linearGradient id="linear-gradient-46" x1="82.36" y1="178.83" x2="90.13" y2="178.83" xlink:href="#linear-gradient"/><linearGradient id="linear-gradient-47" x1="79.29" y1="188.34" x2="90.13" y2="188.34" xlink:href="#linear-gradient"/><linearGradient id="linear-gradient-48" x1="79.63" y1="189.4" x2="90.13" y2="189.4" xlink:href="#linear-gradient"/><linearGradient id="linear-gradient-49" x1="80.54" y1="190.29" x2="90.13" y2="190.29" xlink:href="#linear-gradient"/><linearGradient id="linear-gradient-50" x1="81.15" y1="191.26" x2="90.13" y2="191.26" xlink:href="#linear-gradient"/><linearGradient id="linear-gradient-51" x1="81.69" y1="192.26" x2="90.13" y2="192.26" xlink:href="#linear-gradient"/><linearGradient id="linear-gradient-52" x1="82.36" y1="193.22" x2="90.13" y2="193.22" xlink:href="#linear-gradient"/><linearGradient id="linear-gradient-53" x1="111.77" y1="159.17" x2="171.97" y2="159.17" xlink:href="#linear-gradient"/><linearGradient id="linear-gradient-54" x1="145.4" y1="150.38" x2="163.29" y2="150.38" xlink:href="#linear-gradient"/><linearGradient id="linear-gradient-55" x1="158.87" y1="160.94" x2="183.27" y2="160.94" xlink:href="#linear-gradient"/><linearGradient id="linear-gradient-56" x1="118.79" y1="325.49" x2="177.75" y2="325.49" xlink:href="#linear-gradient"/><linearGradient id="linear-gradient-57" x1="-12803.89" y1="168.97" x2="-12802.73" y2="192.9" gradientTransform="matrix(-1, 0, 0, 1, -12655.34, 0)" xlink:href="#linear-gradient"/><linearGradient id="linear-gradient-58" x1="-9164.28" y1="-15915.86" x2="-9168.43" y2="-15934.52" gradientTransform="matrix(0.48, -0.88, -0.88, -0.48, -9403.16, -15515.32)" xlink:href="#linear-gradient"/><linearGradient id="linear-gradient-59" x1="-14401.47" y1="-1784.27" x2="-14406.48" y2="-1806.78" gradientTransform="matrix(-0.96, -0.26, -0.26, 0.96, -14229.07, -1876.24)" xlink:href="#linear-gradient"/><linearGradient id="linear-gradient-60" x1="146.18" y1="167.77" x2="150.03" y2="167.77" xlink:href="#linear-gradient"/><linearGradient id="linear-gradient-61" x1="144.3" y1="165.19" x2="146.08" y2="165.19" xlink:href="#linear-gradient"/></defs><title>Experience End-to-End Excellence</title><g class="cls-1"><path class="cls-2" d="M123.5,99.65c3.41,2,3.43,5.19,0,7.15L90.31,126.11a13.62,13.62,0,0,1-12.34,0L44.52,106.8c-3.4-2-3.42-5.18,0-7.15L77.71,80.34a13.7,13.7,0,0,1,12.35,0Z"/></g><g class="cls-3"><path class="cls-4" d="M123.54,43.92,90.31,63.24a13.68,13.68,0,0,1-12.34,0L44.52,43.92c-1.71-1-2.57-2.29-2.56-3.6v1.07c0,1.31.85,2.61,2.57,3.6L78,64.3a13.62,13.62,0,0,0,12.34,0L123.54,45c1.68-1,2.52-2.26,2.53-3.55V40.37C126.07,41.66,125.23,43,123.54,43.92Z"/><path class="cls-5" d="M123.5,36.77c3.41,2,3.43,5.19,0,7.15L90.31,63.24a13.68,13.68,0,0,1-12.34,0L44.52,43.92c-3.4-2-3.42-5.18,0-7.14L77.71,17.46a13.7,13.7,0,0,1,12.35,0Z"/></g><path class="cls-6" d="M90.06,17.46a13.7,13.7,0,0,0-12.35,0L44.48,36.78c-3.38,2-3.36,5.18,0,7.14l4.85,2.81L95.06,20.35Z"/><polygon class="cls-7" points="95.58 31.05 69.73 45.97 65.86 43.73 91.71 28.81 95.58 31.05"/><polygon class="cls-8" points="103.69 36.67 78.66 51.12 74.78 48.88 99.82 34.43 103.69 36.67"/><polygon class="cls-9" points="110.43 43.08 87.58 56.27 83.7 54.04 106.56 40.84 110.43 43.08"/><polygon class="cls-10" points="172.58 298.02 70.63 237.2 225.88 148.94 321.45 209.88 172.58 298.02"/><path class="cls-11" d="M107.06,289.8a1.52,1.52,0,0,0-.92-1.61L68.09,266l-1.82,1.07-7.52-4.39-10.59,6.22v4.27l5.76,3.36v3.13L92,301.85a5,5,0,0,0,4.59,0l9.6-5.63a1.63,1.63,0,0,0,.94-1.34l0-5.33A1.09,1.09,0,0,1,107.06,289.8Z"/><g class="cls-3"><polygon class="cls-12" points="72.13 262.8 72.12 267.21 61.05 273.65 61.07 269.23 72.13 262.8"/><g class="cls-1"><polygon class="cls-2" points="61.07 269.23 61.05 273.65 52.56 268.74 52.57 264.32 61.07 269.23"/></g><g class="cls-1"><polygon class="cls-2" points="72.13 262.8 61.07 269.23 52.57 264.32 63.64 257.89 72.13 262.8"/></g></g><g class="cls-3"><path class="cls-6" d="M114.16,285.68l0,5.53a1.68,1.68,0,0,1-1,1.38v-5.53A1.68,1.68,0,0,0,114.16,285.68Z"/><polygon class="cls-6" points="113.17 287.06 113.16 292.59 103.13 298.42 103.14 292.89 113.17 287.06"/><polygon class="cls-6" points="98.35 292.89 98.33 298.42 58.57 275.46 58.59 269.94 98.35 292.89"/><path class="cls-6" d="M103.14,292.89v5.53a5.34,5.34,0,0,1-4.8,0l0-5.53A5.25,5.25,0,0,0,103.14,292.89Z"/><path class="cls-6" d="M113.16,284.29c1.33.76,1.33,2,0,2.77l-10,5.83a5.25,5.25,0,0,1-4.79,0L58.59,269.94l14.81-8.61Z"/></g><path class="cls-6" d="M90.73,236.14l75.62,43.94a14.32,14.32,0,0,0,12.94,0l40.52-23.4-10.93-6.35v-3l-7.5,4.31L200.3,251l0-6.26,0,7.5-16.37,9.39-1-.6v1.2l-21.59,12.4-10-5.84v-2.67L149,267.48l-3.36-2L139,261.64l-11.59-6.78v-3.35l-2.89,1.66-10-5.85v-2.58L112.27,246l-10-5.85,0-7.49,10.46-6,2,1.18v-2.32l10.47-6,2,1.17v-2.31l10.46-6,2,1.17V211.2l10.46-6,2,1.16V204l10.47-6,2,1.17v-2.32l10.48-6,2,1.17v-2.32l10.48-6,2,1.16v-2.31l10.48-6,2,1.17V175.4l10.48-6,10,5.85v2.59l2.51-1.44L219.2,173l0-7.5,10.47-6,10,5.84v2.59l2.23-1.28,10,5.84v2.6l2.24-1.29,10,5.85v2.6l2.24-1.29,10,5.84v2.67l2.31-1.32,10,5.84,0,7.5-22.18,12.74-1.32-.77v-6l0,7.5-14.88,8.54,10.82,6.28v3l49.57-28.62c1.79-1,2.7-2.41,2.69-3.78q0,3.75,0,7.5c0,1.36-.89,2.73-2.69,3.77L179.3,287.57a14.26,14.26,0,0,1-12.94,0l-75.6-43.94c-1.77-1-2.65-2.37-2.66-3.72q0-3.74,0-7.49C88.09,233.77,89,235.12,90.73,236.14Z"/><polygon class="cls-13" points="201.98 175.4 211.98 181.25 222.45 175.23 212.46 169.38 201.98 175.4"/><polygon class="cls-13" points="216.11 181.47 226.11 187.31 251.9 172.5 241.89 166.66 216.11 181.47"/><polygon class="cls-13" points="189.5 182.56 199.51 188.4 209.98 182.39 199.99 176.54 189.5 182.56"/><polygon class="cls-13" points="234.94 184.84 244.94 190.69 264.14 179.66 254.14 173.81 234.94 184.84"/><polygon class="cls-13" points="177.04 189.72 187.05 195.56 197.51 189.55 187.52 183.71 177.04 189.72"/><polygon class="cls-13" points="223.12 191.63 233.12 197.47 243.59 191.47 233.59 185.62 223.12 191.63"/><polygon class="cls-13" points="191.76 195.46 201.74 201.3 212.23 195.29 202.22 189.44 191.76 195.46"/><polygon class="cls-13" points="240.6 195.78 250.6 201.62 276.38 186.81 266.39 180.97 240.6 195.78"/><polygon class="cls-13" points="164.57 196.88 174.58 202.72 185.05 196.71 175.05 190.87 164.57 196.88"/><polygon class="cls-13" points="211.33 198.39 221.34 204.24 231.81 198.23 221.81 192.39 211.33 198.39"/><polygon class="cls-13" points="256.51 200.9 266.51 206.74 288.69 194 278.7 188.16 256.51 200.9"/><polygon class="cls-13" points="179.83 202.3 189.84 208.15 200.3 202.13 190.3 196.29 179.83 202.3"/><polygon class="cls-13" points="228.69 202.62 238.69 208.46 249.16 202.45 239.16 196.6 228.69 202.62"/><polygon class="cls-13" points="199.56 205.16 209.56 211.01 220.03 204.99 210.03 199.15 199.56 205.16"/><polygon class="cls-13" points="217.04 209.31 227.04 215.15 237.51 209.14 227.51 203.3 217.04 209.31"/><polygon class="cls-13" points="139.65 211.2 149.64 217.04 160.12 211.03 150.11 205.19 139.65 211.2"/><polygon class="cls-13" points="238.83 211.05 248.84 216.89 265.2 207.49 255.2 201.65 238.83 211.05"/><polygon class="cls-13" points="187.78 211.93 197.78 217.77 208.25 211.75 198.24 205.91 187.78 211.93"/><polygon class="cls-13" points="205.26 216.07 215.25 221.92 225.74 215.91 215.73 210.06 205.26 216.07"/><polygon class="cls-13" points="127.18 218.36 137.18 224.2 147.65 218.19 137.64 212.35 127.18 218.36"/><polygon class="cls-13" points="175.99 218.69 186 224.53 196.47 218.53 186.47 212.68 175.99 218.69"/><polygon class="cls-13" points="144.08 222.84 154.07 228.68 164.55 222.67 154.55 216.82 144.08 222.84"/><polygon class="cls-13" points="193.61 222.77 203.62 228.61 214.08 222.6 204.07 216.75 193.61 222.77"/><polygon class="cls-13" points="114.71 225.52 124.71 231.37 135.19 225.34 125.18 219.5 114.71 225.52"/><polygon class="cls-13" points="102.25 232.66 112.25 238.5 122.72 232.48 112.72 226.64 102.25 232.66"/><polygon class="cls-13" points="164.22 225.46 174.22 231.31 184.69 225.29 174.69 219.45 164.22 225.46"/><polygon class="cls-13" points="132.16 229.68 142.16 235.53 152.63 229.52 142.63 223.66 132.16 229.68"/><polygon class="cls-13" points="181.43 229.76 191.44 235.6 201.91 229.58 191.91 223.74 181.43 229.76"/><polygon class="cls-13" points="152.44 232.22 162.43 238.07 172.91 232.05 162.9 226.21 152.44 232.22"/><polygon class="cls-13" points="169.78 236.45 179.79 242.29 190.26 236.27 180.26 230.44 169.78 236.45"/><polygon class="cls-13" points="140.65 238.99 150.65 244.83 161.13 238.82 151.13 232.98 140.65 238.99"/><polygon class="cls-13" points="114.49 239.83 124.49 245.68 140.71 236.36 130.71 230.52 114.49 239.83"/><polygon class="cls-13" points="158.01 243.21 168.01 249.06 178.48 243.04 168.48 237.2 158.01 243.21"/><polygon class="cls-13" points="208.86 242.83 223.69 251.45 261.16 229.81 246.33 221.2 208.86 242.83"/><polygon class="cls-13" points="173.91 248.34 183.91 254.17 200.28 244.78 190.27 238.94 173.91 248.34"/><polygon class="cls-13" points="127.39 247.37 138.98 254.14 145.63 258.03 148.99 259.99 166.65 249.84 156.64 243.99 151.22 247.11 139.63 240.34 127.39 247.37"/><path class="cls-14" d="M222.23,152.75a14.26,14.26,0,0,1,12.94,0l75.61,43.94c3.55,2.06,3.53,5.43-1,9.2L178.31,281.78c-2.6.36-8.41.36-12-1.7L90.73,236.14c-3.55-2.06-3.53-5.43,0-7.49Zm1.46,98.7,37.47-21.64-14.83-8.61-37.47,21.63,14.83,8.62Zm23.66-33.7-10-5.85-46,26.42,10,5.85,46-26.42ZM145.63,258l3.36,2,17.66-10.15-10-5.85-5.42,3.12-11.59-6.77-12.24,7L139,254.14l6.65,3.89Zm70.48-76.56,10,5.85L251.9,172.5l-10-5.84-25.78,14.81Zm24.49,14.31,10,5.84,25.78-14.81-10-5.84L240.6,195.78ZM288.69,194l-10-5.84L256.51,200.9l10,5.84L288.69,194ZM182.87,254.77l-10-5.85-21.59,12.41,10,5.84,21.58-12.4Zm52.07-69.93,10,5.84,19.2-11-10-5.85-19.2,11Zm30.26,22.65-10-5.84-16.37,9.4,10,5.84,16.37-9.4Zm-64.92,37.29-10-5.84-16.36,9.4,10,5.83,16.37-9.39Zm-59.57-8.42-10-5.84-16.22,9.31,10,5.85,16.22-9.32Zm20.43,2.46-10-5.84-10.48,6,10,5.84,10.49-6Zm44.12-22.75,10,5.85,10.49-6-10-5.85-10.47,6Zm-40.69-19.19,10,5.84,10.47-6-10-5.84-10.48,6Zm16.86,32.88,10,5.84,10.47-6-10-5.84-10.48,6Zm-38.8-6.09-10.47,6,10,5.85,10.47-6-10-5.85ZM202,175.4l10,5.85,10.47-6-10-5.85-10.48,6Zm.24,14-10.47,6,10,5.84,10.49-6-10-5.85Zm26.47,13.18,10,5.84,10.47-6-10-5.85-10.47,6Zm-74.14,14.2-10.47,6,10,5.84,10.48-6-10-5.85ZM166.46,210,156,216l10,5.85,10.48-6-10-5.85Zm11.93-6.84-10.48,6,10,5.85,10.48-6-10-5.84Zm-76.14,29.54,10,5.85,10.47-6-10-5.85-10.46,6Zm12.46-7.16,10,5.85,10.48-6-10-5.84-10.47,6ZM243.6,191.47l-10-5.85-10.47,6,10,5.84,10.48-6Zm-47.13,27.06-10-5.85-10.48,6,10,5.84,10.47-6Zm35.34-20.3-10-5.84-10.48,6,10,5.85,10.47-6Zm-47.12,27.06-10-5.84-10.47,6,10,5.85,10.47-6Zm-45-14.09,10,5.84,10.48-6-10-5.84-10.46,6Zm33.26,20.85-10-5.84-10.46,6,10,5.85,10.48-6Zm16.59-49.49,10,5.84,10.47-6-10-5.85-10.48,6ZM220,205l-10-5.84-10.46,6,10,5.85L220,205Zm-11.78,6.76-10-5.84-10.46,6,10,5.84,10.47-6Zm-4.59-23.14,10,5.84,10.47-6-10-5.84-10.48,6Zm-76.48,29.75,10,5.84,10.47-6-10-5.84-10.46,6Zm42.6,18.09,10,5.84,10.47-6-10-5.83-10.48,6Zm20.52-40.16-10.47,6,10,5.85,10.46-6-10-5.85Zm3.31,26.48,10,5.84,10.46-6-10-5.84-10.46,6ZM158,243.21l10,5.85,10.47-6-10-5.84-10.47,6Zm19-53.49,10,5.84,10.46-6-10-5.84-10.48,6Zm52.61-30.21-10.47,6,10,5.84,10.47-6-10-5.84ZM152.11,204l10,5.84,10.47-6-10-5.84-10.47,6ZM217,209.31l10,5.84,10.47-6-10-5.84-10.47,6Z"/><polygon class="cls-13" points="219.19 165.52 229.18 171.36 239.66 165.35 229.65 159.51 219.19 165.52"/><polygon class="cls-13" points="203.66 188.61 213.67 194.46 224.14 188.44 214.14 182.6 203.66 188.61"/><polygon class="cls-13" points="152.11 204.04 162.11 209.88 172.58 203.87 162.57 198.03 152.11 204.04"/><polygon class="cls-13" points="167.91 209.15 177.91 215 188.39 208.98 178.39 203.14 167.91 209.15"/><polygon class="cls-13" points="155.99 215.99 165.99 221.84 176.47 215.83 166.46 209.98 155.99 215.99"/><polygon class="cls-13" points="191.34 238.32 201.35 244.17 247.35 217.75 237.35 211.9 191.34 238.32"/><polygon class="cls-13" points="151.29 261.33 161.29 267.17 182.88 254.77 172.88 248.93 151.29 261.33"/><path class="cls-15" d="M83.32,123.49,214.78,47.6c1.79-1,3.43-1.14,4.61-.45l6.48,3.77c-1.18-.69-2.81-.6-4.61.45l-6.84,4a1.65,1.65,0,0,1,.52.2l3.86,2.23,2.63,1.53a2.72,2.72,0,0,1,1.13,2.5l.23,80.07a8.56,8.56,0,0,1-3.87,6.72l-3.07-1.78,3.07,1.78L92.69,221.45a2.73,2.73,0,0,1-2.77.26L83.56,218l0,7.9c0,2,.73,3.48,1.9,4.16l-3.24-1.88L79,226.31c-1.17-.68-1.9-2.12-1.91-4.16l-.25-87.45A14.31,14.31,0,0,1,83.32,123.49Z"/><path class="cls-16" d="M92.44,132.42,218.66,59.54c2.15-1.24,3.9-.22,3.9,2.24l.23,80.07a8.56,8.56,0,0,1-3.87,6.72L92.69,221.45c-2.13,1.23-3.9.24-3.91-2.22l-.23-80.08A8.62,8.62,0,0,1,92.44,132.42Z"/><path class="cls-17" d="M83.33,138.47l.25,87.45c0,4.1,2.94,5.78,6.52,3.72l131.45-75.9A14.33,14.33,0,0,0,228,142.52l-.25-87.45c0-4.1-2.94-5.77-6.51-3.7L89.8,127.26A14.31,14.31,0,0,0,83.33,138.47Zm5.22.68a8.62,8.62,0,0,1,3.89-6.73L218.66,59.54a6.4,6.4,0,0,1,.59-.29l.19-.07A4.58,4.58,0,0,1,220,59a2.59,2.59,0,0,1,.68,0,2,2,0,0,1,.87.32.94.94,0,0,0,.12.09l.17.16a2.59,2.59,0,0,1,.42.62,4.42,4.42,0,0,1,.23.7c0,.13,0,.27,0,.41a3.24,3.24,0,0,1,0,.45l.23,80.07a7.83,7.83,0,0,1-1.13,3.82,8.84,8.84,0,0,1-.57.88,8.06,8.06,0,0,1-1,1.15,6.66,6.66,0,0,1-.59.49c-.14.11-.28.2-.42.29a1.1,1.1,0,0,1-.14.09l-37.51,21.65L92.69,221.45c-1.33.77-2.53.67-3.23-.11a3.09,3.09,0,0,1-.68-2.11Z"/><g class="cls-3"><polygon class="cls-18" points="265.03 69.33 243.82 103.61 265.15 111.41 265.09 90.38 265.03 69.33"/><polygon class="cls-6" points="265.03 69.33 261.15 67.08 239.94 101.35 243.82 103.61 265.03 69.33"/><polygon class="cls-6" points="243.82 103.61 265.03 69.33 242.81 103.24 243.82 103.61"/><polygon class="cls-6" points="232.09 109.43 231.08 110.97 237.47 113.87 243.82 103.61 242.81 103.24 237.46 111.4 232.09 109.43"/><polygon class="cls-19" points="231.08 110.97 209.75 101.25 209.81 122.3 209.87 143.33 231.08 110.97"/><polygon class="cls-17" points="231.08 110.97 209.87 143.33 237.51 127.37 265.15 111.41 243.82 103.61 237.47 113.87 231.08 110.97"/><polygon class="cls-6" points="265.03 69.33 261.15 67.08 233.51 83.04 237.39 85.29 265.03 69.33"/><polygon class="cls-6" points="209.81 122.3 205.93 120.04 205.99 141.08 209.87 143.33 209.81 122.3"/><polygon class="cls-6" points="232.09 109.43 209.75 101.25 231.08 110.97 232.09 109.43"/><polygon class="cls-6" points="209.75 101.25 205.87 99 205.93 120.04 209.81 122.3 209.75 101.25"/><polygon class="cls-6" points="237.39 85.29 233.51 83.04 205.87 99 209.75 101.25 237.39 85.29"/><polygon class="cls-17" points="209.75 101.25 232.09 109.43 237.46 111.4 242.81 103.24 265.03 69.33 237.39 85.29 209.75 101.25"/></g><g class="cls-1"><path class="cls-2" d="M1.6,328c-2.12,1.23-2.14,3.24,0,4.47L22.35,344.5a8.52,8.52,0,0,0,7.71,0L51,332.43c2.13-1.23,2.14-3.24,0-4.47L30.22,315.89a8.58,8.58,0,0,0-7.71,0Z"/></g><g class="cls-3"><path class="cls-20" d="M1.58,319.38l20.77,12.07a8.52,8.52,0,0,0,7.71,0L51,319.38a2.71,2.71,0,0,0,1.6-2.25v.67a2.7,2.7,0,0,1-1.6,2.25L30.06,332.12a8.52,8.52,0,0,1-7.71,0L1.58,320.05A2.7,2.7,0,0,1,0,317.83v-.66A2.7,2.7,0,0,0,1.58,319.38Z"/><path class="cls-5" d="M1.6,314.92c-2.12,1.22-2.14,3.23,0,4.46l20.77,12.07a8.52,8.52,0,0,0,7.71,0L51,319.38c2.13-1.22,2.14-3.24,0-4.46L30.22,302.85a8.52,8.52,0,0,0-7.71,0Z"/></g><path class="cls-6" d="M22.51,302.85a8.52,8.52,0,0,1,7.71,0L51,314.92c2.12,1.22,2.11,3.24,0,4.46l-3,1.75L19.38,304.65Z"/><polygon class="cls-21" points="19.06 311.33 35.21 320.66 37.63 319.26 21.48 309.94 19.06 311.33"/><path class="cls-22" d="M25.31,323.55a13.06,13.06,0,0,1-11.82,0c-3.27-1.89-3.29-4.95,0-6.83a13.08,13.08,0,0,1,11.83,0C28.55,318.61,28.57,321.67,25.31,323.55Z"/><path class="cls-23" d="M15.43,321.57a.57.57,0,0,1-.33-.52l.32-2.83c.05-.36.59-.64,1.22-.61s1.1.34,1.06.7l-.23,2,7.2-.53c.63,0,1.2.21,1.28.57s-.35.69-1,.74l-8.58.62a1.66,1.66,0,0,1-.93-.17Z"/><g class="cls-3"><path class="cls-24" d="M276.22,5.52a9.14,9.14,0,0,0-6.62-.84,17.24,17.24,0,0,0-5,2,27,27,0,0,0-4.74,3.55l7.32,4.25A26.45,26.45,0,0,1,272,10.91a17,17,0,0,1,4.95-2,9.19,9.19,0,0,1,6.62.84Z"/><path class="cls-25" d="M254.65,1.27a10.64,10.64,0,0,0-7.66-1,20,20,0,0,0-5.72,2.29,34.16,34.16,0,0,0-9.13,8c-5,6.06-8.55,13.85-9.41,21.1A17,17,0,0,0,218,33.6a29.65,29.65,0,0,0-7.87,6.88c-5,6.08-8.36,14.16-8.34,21.19,0,5.13,1.83,8.73,4.74,10.43l7.33,4.25c-2.92-1.7-4.73-5.3-4.75-10.42,0-7,3.35-15.12,8.34-21.19a29.67,29.67,0,0,1,7.87-6.89,17.59,17.59,0,0,1,4.75-1.93,42.85,42.85,0,0,1,9.41-21.1,34.34,34.34,0,0,1,9.13-8,19.66,19.66,0,0,1,5.72-2.28,10.59,10.59,0,0,1,7.66,1Z"/><path class="cls-26" d="M248.59,6.83c9.42-5.44,17.25-2,18.64,7.62A26.45,26.45,0,0,1,272,10.91c9-5.19,16.29-1,16.32,9.3s-7.23,22.88-16.21,28.06L225.41,75.22c-9,5.18-16.29,1-16.32-9.29S216.33,43,225.3,37.85a17.59,17.59,0,0,1,4.75-1.93C231.39,24.74,239.16,12.28,248.59,6.83Z"/></g><g class="cls-3"><path class="cls-27" d="M242.11,48.6l-1-.46-.11,0,2.75,1.59.11,0,1,.46.06,0-2.74-1.6Z"/><path class="cls-27" d="M239.06,56.31a.2.2,0,0,0-.08-.13l-2.75-1.59a.22.22,0,0,1,.09.13l.57,1.11A.15.15,0,0,0,237,56l2.75,1.59a.15.15,0,0,1-.08-.11Z"/><path class="cls-6" d="M242.47,43.14a.14.14,0,0,0-.11,0l-.09,0s-.05,0-.07.06l-1,.67.56-1.08a.46.46,0,0,1,.11-.16.43.43,0,0,1,.14-.13l.09,0h.06l1.19.14h.05L240.62,41l-.06,0-1.18-.13h-.07a.19.19,0,0,0-.08,0,.47.47,0,0,0-.15.13.59.59,0,0,0-.1.17l-.9,1.7-.1.17L236.17,42a.14.14,0,0,0-.11,0l-.09,0-.07,0-1.34,1.15a.23.23,0,0,0-.07.07.6.6,0,0,0-.14.46l.09,1.51v.16l-.16.19a10.16,10.16,0,0,0-.67.91.63.63,0,0,1-.13.11.25.25,0,0,1-.11,0h-.06l-1.28.16H232a.21.21,0,0,0-.1,0l-.15.12a.77.77,0,0,0-.1.18L230.92,49c-.07.17,0,.33,0,.38l1.16.67a8.61,8.61,0,0,0-.17,1.08.81.81,0,0,1-.15.27l-.09.09-1.25,1.37-.07.08a.56.56,0,0,0-.14.44l.33,1.36a.16.16,0,0,0,.08.1l2,1.15-.16.58c-.07.17,0,.33.05.38l2.74,1.6c-.09-.06-.11-.22,0-.39l.48-1.75a.49.49,0,0,0,0-.37,2.57,2.57,0,0,1-.55-.63l-1.85-1.08,1.12-1.24a.47.47,0,0,0,.1-.1.7.7,0,0,0,.14-.27,9.25,9.25,0,0,1,.2-1.23l-1.25-.73a.32.32,0,0,1,0-.16l.71-1.78a.59.59,0,0,1,.1-.17.37.37,0,0,1,.15-.13l.09,0h.05l1.28-.17h.07l.1,0a.53.53,0,0,0,.14-.12q.31-.46.66-.9l.17-.19v-.17l-.09-1.51a.54.54,0,0,1,.14-.46l.06-.07.85-.72,1.5.86a.2.2,0,0,0,.11,0,5.13,5.13,0,0,1,1-.33,1.63,1.63,0,0,0,.11-.17l.11-.2,2.5,1.46.15-.08,1.36-.89.08-.05a.2.2,0,0,1,.08,0,.16.16,0,0,1,.12,0Z"/><path class="cls-27" d="M240.72,48.17,238,46.58a1.15,1.15,0,0,1,.52.76,3.92,3.92,0,0,1-1,3.09,4.64,4.64,0,0,1-.49.5,4.45,4.45,0,0,1-.48.35,2.37,2.37,0,0,1-.6.23,1.1,1.1,0,0,1-.81-.1L237.9,53a1.16,1.16,0,0,0,.81.1,1.89,1.89,0,0,0,.6-.24,3.54,3.54,0,0,0,.48-.34,3.39,3.39,0,0,0,.49-.51,3.85,3.85,0,0,0,.95-3.08A1.16,1.16,0,0,0,240.72,48.17Z"/><path class="cls-10" d="M245.63,46.2a.59.59,0,0,1-.22.52l-1.25,1.36a1,1,0,0,0-.23.38,7.56,7.56,0,0,1-.2,1.22l.11,0,1,.46c.14,0,.18.19.1.39l-.71,1.78a.56.56,0,0,1-.25.29.21.21,0,0,1-.15,0l-1.28.18a.28.28,0,0,0-.17,0,.53.53,0,0,0-.14.12c-.25.37-.53.74-.82,1.09v.15l.09,1.53a.6.6,0,0,1-.22.52L240,57.47l-.06.05c-.14.08-.26,0-.29-.09l-.57-1.12a.18.18,0,0,0-.2-.15,3.84,3.84,0,0,1-1,.33l-.09.17-.91,1.7a.53.53,0,0,1-.24.3.21.21,0,0,1-.15,0l-1.18-.14c-.14,0-.19-.2-.1-.4l.48-1.75a.44.44,0,0,0,0-.37,2.76,2.76,0,0,1-.54-.63l-.14.08-1.36.88-.07.05c-.13.08-.25,0-.28-.08L233,55a.6.6,0,0,1,.2-.52l1.25-1.37a.77.77,0,0,0,.24-.37,9.25,9.25,0,0,1,.2-1.23l-.1-.05-1-.45c-.13,0-.18-.19-.09-.39l.71-1.78a.63.63,0,0,1,.25-.3.27.27,0,0,1,.14,0l1.28-.17a.27.27,0,0,0,.17,0,.53.53,0,0,0,.14-.12,9.79,9.79,0,0,1,.83-1.09v-.17l-.09-1.51a.61.61,0,0,1,.2-.53l1.35-1.15.07-.05c.13-.07.24,0,.27.09l.56,1.12c0,.11.11.17.21.16a4.06,4.06,0,0,1,1-.33l.1-.17.9-1.71a.61.61,0,0,1,.25-.29.21.21,0,0,1,.15,0l1.19.14c.13,0,.17.19.09.4l-.48,1.75a.57.57,0,0,0,0,.38,2.09,2.09,0,0,1,.54.63l.15-.08,1.36-.89.08-.05c.13-.08.24,0,.27.09Zm-5.84,6.33a4.09,4.09,0,0,0,1.44-3.59c-.22-.92-1-1.15-1.93-.63a4.07,4.07,0,0,0-.47.33,4.15,4.15,0,0,0-1.45,3.61c.23.9,1,1.14,1.93.62a3.54,3.54,0,0,0,.48-.34Z"/><path class="cls-10" d="M249.45,27.22,248,26.57l-.15-.07,2.75,1.59.15.08,1.44.64a.16.16,0,0,1,.09,0l-2.75-1.6Z"/><path class="cls-10" d="M244,37.48a.28.28,0,0,0-.13-.18l-2.74-1.6a.29.29,0,0,1,.12.19l.8,1.57a.22.22,0,0,0,.11.16l2.74,1.6a.27.27,0,0,1-.11-.16Z"/><path class="cls-10" d="M250,19.5a.32.32,0,0,0-.17,0l-.13.05-.09.07-1.93,1.25-.2.12,2.74,1.6.2-.13,1.93-1.25.1-.06a.31.31,0,0,1,.12-.05.19.19,0,0,1,.17,0Z"/><path class="cls-10" d="M246.34,26l-2.75-1.6a1.64,1.64,0,0,1,.74,1.08A5.52,5.52,0,0,1,243,29.8a6.07,6.07,0,0,1-.7.73,4.72,4.72,0,0,1-.68.48,2.61,2.61,0,0,1-.84.33,1.54,1.54,0,0,1-1.15-.14l2.75,1.59a1.58,1.58,0,0,0,1.15.15,2.91,2.91,0,0,0,.84-.34,4,4,0,0,0,.67-.48,5.3,5.3,0,0,0,.7-.72A5.52,5.52,0,0,0,247.07,27,1.66,1.66,0,0,0,246.34,26Z"/><path class="cls-10" d="M238.51,36.19l-2.63-1.53,1.6-1.74.12-.13a1.1,1.1,0,0,0,.21-.4,10.91,10.91,0,0,1,.28-1.73l-1.78-1a1.2,1.2,0,0,1,0-.24l1-2.5a.74.74,0,0,1,.15-.26.75.75,0,0,1,.19-.17.28.28,0,0,1,.12,0h.09l1.82-.25h.1l.15-.06a1.25,1.25,0,0,0,.19-.15,15,15,0,0,1,1-1.34l.17-.21v-.23L241.21,22a.8.8,0,0,1,.2-.64l.1-.1,1.2-1,2.11,1.23a.38.38,0,0,0,.16,0,6.5,6.5,0,0,1,1.37-.46l.13-.24,1.28-2.41a1.35,1.35,0,0,1,.15-.26.79.79,0,0,1,.2-.17l.13-.05h.09l1.67.2.07,0-2.74-1.59a.13.13,0,0,0-.08,0l-1.67-.2h-.09a.43.43,0,0,0-.13.05,1,1,0,0,0-.19.17.93.93,0,0,0-.15.26l-1.28,2.41-.13.23-2.56-1.49a.25.25,0,0,0-.17,0,.43.43,0,0,0-.13,0l-.09.06-1.89,1.63a.52.52,0,0,0-.1.11.76.76,0,0,0-.2.64l.12,2.15v.23l-.17.2c-.35.43-.68.88-1,1.34a.7.7,0,0,1-.19.16l-.14.05H237l-1.81.26h-.1a.31.31,0,0,0-.12.05.73.73,0,0,0-.19.17,1,1,0,0,0-.15.25l-1,2.5c-.1.25-.07.47.06.54l1.63.95a10.57,10.57,0,0,0-.23,1.52,1.17,1.17,0,0,1-.22.41l-.12.12L233,33.25l-.1.1a.78.78,0,0,0-.2.64l.47,1.91a.27.27,0,0,0,.11.16L236,37.65a.21.21,0,0,1-.1-.16l-.47-1.9a.84.84,0,0,1,.19-.65l.1-.1.13-.14a3.59,3.59,0,0,0,.69.8.68.68,0,0,1,0,.52l-.69,2.47c-.1.25-.07.47.07.55l2.74,1.59c-.13-.07-.16-.3-.06-.54l.68-2.48a.68.68,0,0,0,0-.52A3.52,3.52,0,0,1,238.51,36.19Z"/><path class="cls-6" d="M253.28,23.16a.87.87,0,0,1-.3.75l-1.77,1.93a1.25,1.25,0,0,0-.33.52,12.19,12.19,0,0,1-.28,1.73l.15.08,1.44.64c.2,0,.26.27.15.56l-1,2.51a.92.92,0,0,1-.35.42.34.34,0,0,1-.21.05l-1.81.26a.43.43,0,0,0-.26.06,1.19,1.19,0,0,0-.18.15,16.13,16.13,0,0,1-1.17,1.55v.23l.12,2.15a.85.85,0,0,1-.29.73l-1.9,1.63-.11.08c-.18.1-.34.05-.39-.13L244,37.48a.25.25,0,0,0-.29-.21,6.56,6.56,0,0,1-1.36.45l-.14.24-1.28,2.41a1,1,0,0,1-.35.43.34.34,0,0,1-.21.05l-1.68-.19c-.19,0-.25-.29-.13-.57l.68-2.48a.68.68,0,0,0,0-.52,3.52,3.52,0,0,1-.76-.9l-.19.11-1.94,1.25-.11.08c-.18.1-.34,0-.38-.14l-.47-1.9a.86.86,0,0,1,.29-.75l1.77-1.92a1.19,1.19,0,0,0,.33-.53,10.91,10.91,0,0,1,.28-1.73l-.14-.08L236.5,30c-.2,0-.26-.28-.15-.57l1-2.5a.83.83,0,0,1,.34-.43.34.34,0,0,1,.21-.05l1.82-.25a.42.42,0,0,0,.25-.07,1.25,1.25,0,0,0,.19-.15,14.54,14.54,0,0,1,1.16-1.55v-.23L241.21,22a.87.87,0,0,1,.3-.74l1.9-1.63.09-.07c.18-.1.35-.06.4.14l.79,1.57a.26.26,0,0,0,.29.22,6.69,6.69,0,0,1,1.37-.46l.13-.24,1.28-2.41a.9.9,0,0,1,.35-.43.36.36,0,0,1,.22-.05l1.67.2c.19,0,.25.28.14.56l-.69,2.48a.68.68,0,0,0,0,.52,3.58,3.58,0,0,1,.76.91l.2-.13,1.93-1.25.1-.06c.18-.11.35-.06.4.12Zm-8.26,9a5.8,5.8,0,0,0,2-5.09c-.32-1.29-1.46-1.61-2.73-.88a4.65,4.65,0,0,0-.67.48c-1.5,1.29-2.42,3.57-2,5.09.32,1.28,1.47,1.61,2.73.88a4,4,0,0,0,.67-.48Z"/><path class="cls-6" d="M268.43,39.16l2.75,1.6.05,0-2.75-1.59Z"/><path class="cls-6" d="M270,28.3a.29.29,0,0,0-.23,0,1.12,1.12,0,0,0-.24.1l-2.7,1.42-.2.09,2.74,1.59a.56.56,0,0,0,.2-.08l2.7-1.42a.73.73,0,0,1,.25-.1.35.35,0,0,1,.23,0Z"/><path class="cls-6" d="M259.61,51.39a.46.46,0,0,0-.19-.32l-2.75-1.6a.42.42,0,0,1,.19.32l.82,2.41a.36.36,0,0,0,.15.27l2.75,1.59a.32.32,0,0,1-.15-.26Z"/><path class="cls-6" d="M263.77,35.3,261,33.7a2.42,2.42,0,0,1,1.08,1.89,7.88,7.88,0,0,1-1.92,5.52,7,7,0,0,1-1.34,1.28,5,5,0,0,1-.51.34,4.12,4.12,0,0,1-1.15.46,2.2,2.2,0,0,1-1.56-.2l2.74,1.6a2.15,2.15,0,0,0,1.56.19,3.74,3.74,0,0,0,1.15-.46c.17-.09.34-.21.52-.33a7.76,7.76,0,0,0,1.34-1.29,7.93,7.93,0,0,0,1.92-5.52A2.4,2.4,0,0,0,263.77,35.3Z"/><path class="cls-6" d="M252.76,48.41,250,46.81a5.34,5.34,0,0,0,.86,1.44,1.06,1.06,0,0,1-.1.74l-1.19,3.39c-.17.35-.15.69,0,.8l2.75,1.6c-.2-.11-.22-.46-.06-.81l1.2-3.39a1.16,1.16,0,0,0,.1-.73A5.14,5.14,0,0,1,252.76,48.41Z"/><path class="cls-6" d="M260.13,27.26a.33.33,0,0,1-.15,0l2.74,1.59a.44.44,0,0,0,.15.05,7.42,7.42,0,0,1,.86-.24,6.37,6.37,0,0,1,.94-.12l.21-.32L266.82,25a1.3,1.3,0,0,1,.17-.26.85.85,0,0,1,.27-.24.77.77,0,0,1,.17-.07.43.43,0,0,1,.16,0l2.11.65.07,0L267,23.52l-.06,0-2.11-.64a.25.25,0,0,0-.17,0,.52.52,0,0,0-.16.06,1,1,0,0,0-.27.24,1,1,0,0,0-.17.27l-1.95,3.16-.2.32A6.55,6.55,0,0,0,261,27,7.18,7.18,0,0,0,260.13,27.26Z"/><path class="cls-6" d="M256,34.32l.19-.14.52-.66c.37-.46.76-.89,1.17-1.31a.82.82,0,0,0,0-.31l.12-3.09a1.2,1.2,0,0,1,.28-.81,1.07,1.07,0,0,1,.19-.18l2.63-1.92.07,0a.77.77,0,0,1,.17-.07.3.3,0,0,1,.23,0l-2.75-1.6a.32.32,0,0,0-.22,0l-.17.06-.08.06-2.62,1.91a.81.81,0,0,0-.19.18,1.16,1.16,0,0,0-.29.81l-.11,3.09a.7.7,0,0,1,0,.32c-.4.41-.79.85-1.17,1.31-.17.21-.35.43-.51.65a.81.81,0,0,1-.2.14.52.52,0,0,1-.19.08.34.34,0,0,1-.2,0l-2.35,0a.32.32,0,0,0-.17,0,.77.77,0,0,0-.17.07,1.1,1.1,0,0,0-.27.23,1.2,1.2,0,0,0-.16.27l-1.61,3.35c-.17.36-.14.7,0,.81l.14.09,1.7,1.15.17.13a17.58,17.58,0,0,0-.58,2.41,1.75,1.75,0,0,1-.26.46,1.58,1.58,0,0,1-.23.22l-2.5,2.37a1.07,1.07,0,0,0-.19.18,1.17,1.17,0,0,0-.28.8l.36,2.82a.31.31,0,0,0,.15.27L249.38,50a.36.36,0,0,1-.15-.26l-.35-2.82a1.1,1.1,0,0,1,.28-.81.81.81,0,0,1,.19-.18l2.5-2.37a1.14,1.14,0,0,0,.22-.22,1.33,1.33,0,0,0,.26-.46,16.91,16.91,0,0,1,.59-2.41l-.18-.12L251,39.12l-.07,0c-.17-.13-.2-.45,0-.8l1.6-3.34a1.78,1.78,0,0,1,.17-.27,1,1,0,0,1,.27-.24.49.49,0,0,1,.17-.06.33.33,0,0,1,.17,0l2.34,0a.44.44,0,0,0,.2,0A.84.84,0,0,0,256,34.32Z"/><path class="cls-28" d="M273.26,33a1.21,1.21,0,0,1-.47,1l-2.5,2.38a1.45,1.45,0,0,0-.49.67,16.85,16.85,0,0,1-.58,2.41l.18.14,1.78,1.2c.24.08.29.44.1.84L269.68,45a1.21,1.21,0,0,1-.44.5.43.43,0,0,1-.34.06l-2.34,0a.5.5,0,0,0-.4.07,1.33,1.33,0,0,0-.19.14,18,18,0,0,1-1.69,2,.84.84,0,0,0,0,.31l-.11,3.1a1.19,1.19,0,0,1-.47,1L261.05,54c-.35.21-.58.11-.62-.19l-.82-2.41a.4.4,0,0,0-.34-.37,7.92,7.92,0,0,1-1.81.38l-.2.31-1.94,3.16a1.1,1.1,0,0,1-.44.5.43.43,0,0,1-.33.07l-2.12-.64c-.24-.07-.29-.45-.11-.83l1.2-3.39a1.16,1.16,0,0,0,.1-.73,5.14,5.14,0,0,1-.86-1.44.9.9,0,0,0-.21.08l-2.69,1.43c-.35.21-.59.11-.63-.19l-.35-2.82a1.18,1.18,0,0,1,.47-1l2.5-2.37a1.51,1.51,0,0,0,.48-.68,16.91,16.91,0,0,1,.59-2.41l-.18-.12L251,39.12c-.24-.07-.29-.44-.1-.84l1.6-3.34a1.18,1.18,0,0,1,.44-.51.48.48,0,0,1,.34-.06l2.34,0a.5.5,0,0,0,.4-.07l.19-.14a19.93,19.93,0,0,1,1.69-2,.82.82,0,0,0,0-.31l.12-3.09a1.21,1.21,0,0,1,.47-1l2.63-1.92.07,0c.28-.16.51-.07.55.23l.82,2.41a.39.39,0,0,0,.34.37,6.84,6.84,0,0,1,1.8-.36l.21-.32L266.82,25a1.22,1.22,0,0,1,.44-.5.46.46,0,0,1,.33-.07l2.11.65c.25.06.29.44.11.82l-1.19,3.39a1.1,1.1,0,0,0-.1.73,5.67,5.67,0,0,1,.86,1.44.56.56,0,0,0,.2-.08l2.7-1.42c.35-.21.59-.12.63.18ZM261.59,44a8.26,8.26,0,0,0,3.26-6.81c-.27-2-1.9-2.71-3.78-1.62-.17.1-.35.21-.52.33a8.24,8.24,0,0,0-3.26,6.82c.27,2,1.9,2.7,3.78,1.61.17-.09.34-.21.52-.33Z"/></g><path class="cls-29" d="M86.89,210.78l-.17-60.17a12.07,12.07,0,0,1,5.48-9.49l78.59-45.37a4.26,4.26,0,0,1,3.36-.62c-1-.94-2.6-1-4.39,0L91.17,140.53A12.06,12.06,0,0,0,85.69,150l.17,60.17c0,2,.86,3.36,2.16,3.76A4.21,4.21,0,0,1,86.89,210.78Z"/><path class="cls-30" d="M176.31,98.89c0-2-.85-3.36-2.16-3.76a4.16,4.16,0,0,1,1.13,3.16l.17,60.17A12.09,12.09,0,0,1,170,168L91.38,213.33A4.26,4.26,0,0,1,88,214c1,.94,2.6,1,4.38,0L171,168.55a12.07,12.07,0,0,0,5.48-9.49Z"/><path class="cls-23" d="M91.38,213.33,170,168a12.09,12.09,0,0,0,5.48-9.5l-.17-60.17a4.16,4.16,0,0,0-1.13-3.16,4.26,4.26,0,0,0-3.36.62L92.2,141.12a12.07,12.07,0,0,0-5.48,9.49l.17,60.17A4.21,4.21,0,0,0,88,214,4.26,4.26,0,0,0,91.38,213.33Z"/><path class="cls-5" d="M120.89,168.82a20,20,0,0,0,2.35-8.84c0-6.45-4.56-9-10.18-5.8s-10.19,11.11-10.19,17.56c0,2.84.89,4.94,2.36,6.11a2.09,2.09,0,0,0,.45.32l.12.07.1.06a7.27,7.27,0,0,1,3.55,6l3.61-2.09,3.61-2.08s0-3.91,3.55-10.11l.1-.17.12-.21C120.63,169.33,120.77,169.06,120.89,168.82Z"/><path class="cls-6" d="M116.54,183.72l-.06,0v-1.51l.06,0a1.89,1.89,0,0,0,.87-1.49c0-.55-.39-.78-.87-.5l-7,4a1.92,1.92,0,0,0-.87,1.5c0,.55.39.77.87.5l0,0v1.52l0,0a1.92,1.92,0,0,0-.87,1.5c0,.55.39.77.87.49l.43-.25c.56,1,1.72,1.16,3,.39a7.59,7.59,0,0,0,3-3.91l.43-.25a1.92,1.92,0,0,0,.87-1.5C117.41,183.66,117,183.44,116.54,183.72Z"/><path class="cls-31" d="M113,148.49c-.31.19-.56.06-.57-.29l-.12-4.39a1.2,1.2,0,0,1,.54-1c.31-.19.56-.06.57.28l.12,4.4A1.21,1.21,0,0,1,113,148.49Z"/><path class="cls-31" d="M107.11,153.27c-.22.13-.43.11-.53-.07L105,150.05a1,1,0,0,1,.27-1c.28-.3.61-.35.74-.1l1.59,3.15a1,1,0,0,1-.27,1A.84.84,0,0,1,107.11,153.27Z"/><path class="cls-31" d="M102.14,160a.42.42,0,0,1-.4.05l-2.83-1.42c-.22-.11-.23-.51,0-.89s.56-.59.78-.48l2.83,1.42c.23.12.24.51,0,.89A1.27,1.27,0,0,1,102.14,160Z"/><path class="cls-31" d="M98.84,167.65a.65.65,0,0,1-.22.08l-3.63.52c-.29,0-.43-.25-.33-.64a1.08,1.08,0,0,1,.72-.78l3.64-.52c.28,0,.43.25.32.64A1.28,1.28,0,0,1,98.84,167.65Z"/><path class="cls-31" d="M97.7,175.06l-3.88,2.38c-.31.19-.57.06-.58-.29a1.23,1.23,0,0,1,.54-1l3.89-2.38c.31-.19.56-.06.57.28A1.22,1.22,0,0,1,97.7,175.06Z"/><path class="cls-31" d="M95.36,185c-.21.13-.43.11-.52-.08a1,1,0,0,1,.28-1L98.66,180c.28-.31.61-.35.74-.1a1,1,0,0,1-.28,1l-3.55,3.88A1.18,1.18,0,0,1,95.36,185Z"/><path class="cls-31" d="M99.61,189.65a.41.41,0,0,1-.4.06c-.22-.11-.23-.51,0-.89l2.66-4.79c.21-.37.56-.59.79-.48s.23.51,0,.89L100,189.23A1,1,0,0,1,99.61,189.65Z"/><path class="cls-31" d="M105.9,190.73a.6.6,0,0,1-.21.08c-.29,0-.43-.24-.33-.63l1.38-5a1.08,1.08,0,0,1,.72-.78c.29-.05.43.24.32.63l-1.38,5A1.2,1.2,0,0,1,105.9,190.73Z"/><path class="cls-31" d="M120.64,182c-.22.14-.43.12-.52-.07l-1.6-3.15a1,1,0,0,1,.28-1c.28-.31.61-.35.74-.1l1.59,3.14a1,1,0,0,1-.28,1A1,1,0,0,1,120.64,182Z"/><path class="cls-31" d="M126.84,173.58a.39.39,0,0,1-.39.06l-2.84-1.42c-.22-.12-.23-.51,0-.89s.56-.59.79-.48l2.83,1.42c.22.11.23.51,0,.89A1,1,0,0,1,126.84,173.58Z"/><path class="cls-31" d="M131,164a.6.6,0,0,1-.21.08l-3.64.52c-.29,0-.43-.24-.32-.64a1.08,1.08,0,0,1,.71-.78l3.64-.52c.29,0,.43.25.32.64A1.2,1.2,0,0,1,131,164Z"/><path class="cls-31" d="M132.33,154.72l-3.88,2.37c-.31.19-.56.06-.57-.28a1.23,1.23,0,0,1,.53-1l3.89-2.38c.31-.19.56-.06.57.29A1.23,1.23,0,0,1,132.33,154.72Z"/><path class="cls-31" d="M127.24,151.05c-.22.13-.43.11-.52-.07a1,1,0,0,1,.28-1l3.54-3.88c.28-.3.61-.35.74-.1a1,1,0,0,1-.28,1l-3.55,3.88A1.12,1.12,0,0,1,127.24,151.05Z"/><path class="cls-31" d="M123.88,147.29a.43.43,0,0,1-.4.06c-.22-.12-.23-.51,0-.89l2.66-4.79c.21-.38.56-.59.79-.48s.23.51,0,.89l-2.66,4.79A1.23,1.23,0,0,1,123.88,147.29Z"/><path class="cls-31" d="M118.87,146.39a.48.48,0,0,1-.21.09c-.29,0-.43-.25-.33-.64l1.38-5a1.08,1.08,0,0,1,.72-.78c.29,0,.43.24.32.63l-1.38,5A1.2,1.2,0,0,1,118.87,146.39Z"/><polygon class="cls-17" points="170.67 114.45 139.31 132.55 139.31 131.11 170.67 113 170.67 114.45"/><polygon class="cls-17" points="169.68 118.35 139.31 135.89 139.31 134.44 169.68 116.9 169.68 118.35"/><polygon class="cls-17" points="167.03 123.21 139.31 139.22 139.31 137.78 167.03 121.77 167.03 123.21"/><polygon class="cls-17" points="165.27 127.57 139.31 142.56 139.31 141.11 165.27 126.12 165.27 127.57"/><polygon class="cls-17" points="163.7 131.81 139.31 145.89 139.31 144.44 163.7 130.36 163.7 131.81"/><polygon class="cls-17" points="161.77 136.26 139.31 149.22 139.31 147.78 161.77 134.81 161.77 136.26"/><path class="cls-6" d="M165.46,154.25a12.93,12.93,0,0,1-5.87,10.12c-3.24,1.87-5.87.38-5.87-3.34a12.93,12.93,0,0,1,5.87-10.12C162.83,149,165.46,150.54,165.46,154.25Z"/><path class="cls-17" d="M158.87,161.74a.55.55,0,0,1-.6,0L156,160.09c-.29-.21-.26-.81.07-1.34s.84-.78,1.13-.56l1.63,1.2L162,153c.27-.56.77-.92,1.12-.82s.41.65.14,1.21L159.5,161a1.6,1.6,0,0,1-.61.71Z"/><path class="cls-6" d="M150.85,162.69A12.93,12.93,0,0,1,145,172.81c-3.24,1.87-5.86.37-5.86-3.35A12.92,12.92,0,0,1,145,159.34C148.22,157.47,150.85,159,150.85,162.69Z"/><path class="cls-17" d="M142.55,171.19a.59.59,0,0,1-.57.05c-.31-.18-.31-.76,0-1.3l4.87-8.38c.31-.54.82-.83,1.13-.65s.31.76,0,1.3l-4.87,8.38A1.64,1.64,0,0,1,142.55,171.19Z"/><path class="cls-17" d="M147.41,168.38a.55.55,0,0,1-.56.06L142,165.66c-.32-.18-.32-.76,0-1.3s.82-.83,1.13-.65l4.86,2.78c.31.18.31.76,0,1.3A1.54,1.54,0,0,1,147.41,168.38Z"/><path class="cls-32" d="M161.36,134.6l-.11-40.81A8.17,8.17,0,0,1,165,87.35l53.3-30.77a2.9,2.9,0,0,1,2.28-.42c-.68-.64-1.76-.68-3,0L164.27,87a8.18,8.18,0,0,0-3.72,6.44l.12,40.8a2.41,2.41,0,0,0,1.46,2.56A2.86,2.86,0,0,1,161.36,134.6Z"/><path class="cls-30" d="M222,58.71c0-1.38-.58-2.28-1.47-2.55a2.83,2.83,0,0,1,.77,2.15l.12,40.8a8.21,8.21,0,0,1-3.72,6.44l-53.3,30.78a2.94,2.94,0,0,1-2.28.42,2.43,2.43,0,0,0,3,0L218.4,106a8.19,8.19,0,0,0,3.72-6.44Z"/><path class="cls-33" d="M164.41,136.33l53.3-30.78a8.21,8.21,0,0,0,3.72-6.44l-.12-40.8a2.83,2.83,0,0,0-.77-2.15,2.9,2.9,0,0,0-2.28.42L165,87.35a8.17,8.17,0,0,0-3.71,6.44l.11,40.81a2.86,2.86,0,0,0,.77,2.15A2.94,2.94,0,0,0,164.41,136.33Z"/><path class="cls-5" d="M167.43,125.39V110.93c3.5-2,6.18-1.8,9-1.57,3,.25,6.09.5,10.43-1.92,4.62-2.58,6.3-6.41,8.08-10.47,1.38-3.15,2.82-6.42,5.71-8.91,3.23-2.79,4.91-1.4,6.7.07s4.09,3.35,8.66.82v8.5Z"/><path class="cls-6" d="M201.6,100.29c-3.77,2.18-5.48-1.25-7.3-4.88-2-3.89-4-7.91-8.64-5.2-4.93,2.84-8,9.68-10.71,15.72-2.32,5.15-4.5,10-7.53,11.77V117c2.71-1.56,4.81-6.23,7-11.18,2.8-6.23,6-13.28,11.21-16.31,5.07-2.93,7.17,1.25,9.19,5.3,1.74,3.46,3.38,6.73,6.75,4.79,3.58-2.07,5.12-4.84,6.75-7.77,1.71-3.09,3.48-6.28,7.65-8.69v.7c-3.9,2.25-5.51,5.14-7.21,8.21S205.45,98.07,201.6,100.29Z"/><polygon class="cls-31" points="167.43 125.39 167.06 125.6 167.06 97.15 167.43 96.94 167.43 125.39"/><polygon class="cls-31" points="216.18 97.24 215.82 97.45 215.82 69 216.18 68.79 216.18 97.24"/><polygon class="cls-31" points="167.06 125.81 167.06 125.39 216.18 97.03 216.18 97.45 167.06 125.81"/><path class="cls-10" d="M224.09,178.54a12.83,12.83,0,0,0,11.62,0c3.22-1.86,3.23-4.86,0-6.71a12.83,12.83,0,0,0-11.62,0C220.9,173.69,220.89,176.69,224.09,178.54Z"/><path class="cls-34" d="M227.58,108.26s-1.43.72-1.43,3.83.31,5.38,1.61,5.83S227.58,108.26,227.58,108.26Z"/><path class="cls-23" d="M232.41,169.78c.08-2.92-.4-8.57-.4-8.57l-.22-6.06-.9-12-.08.73c0-.41-.09-.81-.16-1.22a17,17,0,0,0-1-3.56h6.86a6.41,6.41,0,0,1-.38,2.58c-1,2.32-1.25,7.71-1.25,10.38s.72,4.57.77,6.84a35.31,35.31,0,0,1-.68,6.65,26.79,26.79,0,0,0,.06,5.59c.08.91-7.9,5-4.89,1.32Z"/><path class="cls-6" d="M230.08,172.44s-2,.15-1.35.95a4.21,4.21,0,0,0,2.69,1.78c1.15.09,2.21-1.2,3-1.65s1.23-.8,1.1-1.47,0-1.89-1.47-1.29c-1.11.44-1,1.75-1.34,1.92C231.82,173.14,228.59,174.2,230.08,172.44Z"/><path class="cls-6" d="M235.48,172.71s-.4.19-.54,1.21a8.23,8.23,0,0,0,0,2h-1v-3Z"/><path class="cls-23" d="M225.91,175.1c.4.05,1.82-2.89,1.82-2.89l-.53-10.29a61.09,61.09,0,0,0-.62-6.54c-4-12.83-.09-21.56.22-23.74s-1.12-3.56-1.47-5.92,1.87-5.12,1.87-5.12,4.85-3.12,8.24-2.63.71,6.77,0,8.2-1.56,4.54-1.16,6.63c1.74,2.09,2.72,6.55,1.74,8.86a25.7,25.7,0,0,0-1.14,7.08h-3.25v.45h-.37l-.45-6.06s-.7,9.55-.66,10.93.71,5.14.71,7.23-.45,4.64-.5,6-.17,3.83-.17,3.83l.19,3.56s-1.31-.26-1.4.09a22.38,22.38,0,0,1-1,2.14h-1.56s-1.16-1.29-1.64-1.34S225.51,175.06,225.91,175.1Z"/><path class="cls-35" d="M236.91,119.34s-.11-1.33-1.33-1.07-2.25,2-2.23,5.4a42.31,42.31,0,0,0,.41,6.91c.15.26,1.92,3.44,2.41.19S237.51,121.93,236.91,119.34Z"/><path class="cls-17" d="M234.76,137.76a4.57,4.57,0,0,1-.15,2.07c-.34,1.33-.62,1.79-1.33,2s-.84-.39-.69-.94a2.68,2.68,0,0,0,.15-.7s-.28.36-.45.19-.13-.19.34-1,.78-1.22.78-1.22Z"/><path class="cls-36" d="M233.51,130.93l-.55,8.16s.33.95,1.5.08,1.73-8.95,1.73-8.95S234.07,127.87,233.51,130.93Z"/><path class="cls-37" d="M235.44,118c-3.39-.49-8.24,2.63-8.24,2.63s-2.23,2.76-1.87,5.12,1.78,3.74,1.47,5.92c-.12.84-.77,2.66-1.3,5.3h10.67a10.19,10.19,0,0,0-1.85-4.14c-.4-2.09.49-5.21,1.16-6.63S238.82,118.46,235.44,118Z"/><path class="cls-6" d="M226.25,133.82s.46,1.61,2.91,1.47,5.16-2.49,5.16-2.49a9.1,9.1,0,0,1,2.36,6.15c0,2.78-2.12,9.51-1.51,13.8A8.84,8.84,0,0,1,229,156a4.38,4.38,0,0,1-3.52-1.78,49.35,49.35,0,0,1-1.24-12.34C224.57,136.18,225.93,135,226.25,133.82Z"/><path class="cls-6" d="M226,175.05s-2,.14-1.35.95a4.21,4.21,0,0,0,2.69,1.78c1.15.09,2.22-1.21,3-1.65s1.23-.8,1.1-1.47-.31-1.56-1.47-1.29-1,1.75-1.34,1.91C227.78,175.75,224.55,176.81,226,175.05Z"/><path class="cls-6" d="M231.44,175.32s-.4.19-.54,1.21a8.17,8.17,0,0,0,0,2h-1v-3Z"/><path class="cls-6" d="M226.66,108.89a6.58,6.58,0,0,1,4.06-1.47c2.31,0,4.89,1.16,5.12,5.48s-.76,5.92-.76,5.92-3.52,2-5.48,1.65a7.48,7.48,0,0,1-3.22-1.43S227.6,111.47,226.66,108.89Z"/><path class="cls-38" d="M228.71,122s.36-1.27-.87-1.46-2.81,1.09-4,4.26a45.35,45.35,0,0,0-2,6.62c.06.3,0,2.87,2.2,1C226.52,130.35,228.36,124.65,228.71,122Z"/><path class="cls-39" d="M218.17,126a4.94,4.94,0,0,1-.9-2c-.35-1.41-.32-2,.22-2.54s1-.06,1.12.53a3,3,0,0,0,.21.72s.08-.47.32-.41.23.12.18,1.1-.11,1.52-.11,1.52Z"/><path class="cls-40" d="M224,131l-4.91-6.54s-.86-.51-1.19.91,4.23,7.45,4.23,7.45S224.42,131.94,224,131Z"/><polygon class="cls-41" points="329.25 104.91 321.45 100.41 330.45 95.21 338.25 99.71 329.25 104.91"/><polygon class="cls-42" points="321.45 100.41 321.45 61.8 329.2 61.48 329.25 104.91 321.45 100.41"/><polygon class="cls-43" points="338.25 61.1 338.25 99.71 329.25 104.91 329.25 64.33 338.25 61.1"/><polygon class="cls-6" points="329.25 66.3 321.45 61.8 330.45 56.6 338.25 61.1 329.25 66.3"/><polygon class="cls-41" points="316.95 111.91 309.15 107.41 318.16 102.21 325.95 106.71 316.95 111.91"/><polygon class="cls-44" points="309.15 107.41 309.15 77.16 316.9 76.83 316.95 111.91 309.15 107.41"/><polygon class="cls-45" points="325.95 76.46 325.95 106.71 316.95 111.91 316.95 79.68 325.95 76.46"/><polygon class="cls-6" points="316.95 81.66 309.15 77.16 318.16 71.96 325.95 76.46 316.95 81.66"/><polygon class="cls-41" points="304.65 118.91 296.86 114.41 305.86 109.21 313.65 113.71 304.65 118.91"/><polygon class="cls-46" points="296.86 114.41 296.86 102.56 304.61 102.24 304.65 118.91 296.86 114.41"/><polygon class="cls-47" points="313.65 101.86 313.65 113.71 304.65 118.91 304.65 105.09 313.65 101.86"/><polygon class="cls-6" points="304.65 107.06 296.86 102.56 305.86 97.36 313.65 101.86 304.65 107.06"/><path class="cls-10" d="M118.93,105.79c-.37.58-.73,1.16-1.07,1.76Z"/><path class="cls-6" d="M148.34,95.46c-2.28-1-5.29-1.08-8.78.13-7.12,2.47-14.09,9.38-17.49,16.76l3.67,3.29a15.88,15.88,0,0,1,.56-2c2-5.49,7.08-10.9,12.32-12.72a10.16,10.16,0,0,1,3.29-.61c3.78,0,6,2.75,5.5,7.2l0,.28.13-.26,4.4-8.44A7.17,7.17,0,0,0,148.34,95.46Z"/><path class="cls-6" d="M151.54,81.23c-3.36-.77-7.41-.45-11.95,1.12-9.81,3.4-19.44,11.86-25.69,21.65l4,3.55c.34-.6.7-1.18,1.07-1.76,5-7.73,12.59-14.37,20.35-17.07a18.54,18.54,0,0,1,8.3-1.11,9.94,9.94,0,0,1,7.1,4L158.13,85A12.21,12.21,0,0,0,151.54,81.23Z"/><path class="cls-10" d="M130.47,118.72c0-.06,0-.12,0-.19a14.3,14.3,0,0,1,8.42-9.59,5.14,5.14,0,0,1,3.82-.07,11.4,11.4,0,0,0-3.47-1.39,3.61,3.61,0,0,0-2.59.11c-3.83,1.32-8.23,6.14-9.08,10.13,0,.08,0,.14,0,.21-.48,2.53.68,3.31,2,4.4,1.16.92,3.3,2.18,4.76,1.68l0,0C131.52,124.24,129.82,122.14,130.47,118.72Z"/><path class="cls-10" d="M138.44,67.47A30.87,30.87,0,0,1,153.77,66c-5-1.84-11.37-1.77-18.58.61-12.64,4.16-25,14.44-33.34,26.69l4.34,3.89c.2-.31,3,1.19,3.25.88l-4.34-3.88C113.49,81.91,125.8,71.63,138.44,67.47Z"/><path class="cls-10" d="M156.42,75.59l3.25.88a14.71,14.71,0,0,0-8-4A13.93,13.93,0,0,1,156.42,75.59Z"/><path class="cls-10" d="M139.59,82.35a22,22,0,0,1,11.94-1.13,22.86,22.86,0,0,0-15.19.25c-9.81,3.4-19.44,11.85-25.7,21.64l4,3.55c.18-.31,3.07,1.19,3.26.89l-4-3.55C120.15,94.21,129.78,85.75,139.59,82.35Z"/><path class="cls-10" d="M139.56,95.59c3.49-1.21,6.5-1.18,8.76-.14-3.07-1.79-7.81-2.21-12-.75-7.12,2.47-14.08,9.37-17.49,16.77l3.68,3.28c.06-.3,3.17,1.2,3.25.89l-3.67-3.29C125.47,105,132.44,98.06,139.56,95.59Z"/><path class="cls-10" d="M147.58,87.61a9.35,9.35,0,0,1,3.84,3.14l3.26.89A9.94,9.94,0,0,0,147.58,87.61Z"/><path class="cls-6" d="M153.77,66a30.87,30.87,0,0,0-15.33,1.5c-12.64,4.16-25,14.44-33.34,26.69L109.44,98c.49-.73,1-1.45,1.52-2.16,7.25-10,17.37-18.28,27.67-21.86a26.37,26.37,0,0,1,13-1.51,14.71,14.71,0,0,1,8,4l3.2-6.11A18.33,18.33,0,0,0,153.77,66Z"/><path class="cls-10" d="M111,95.88c-.52.71-1,1.43-1.52,2.16Z"/><path class="cls-10" d="M141.91,100.36c1.79,1.19,2.65,3.5,2.21,6.59l3.29.61C147.94,103.11,145.69,100.34,141.91,100.36Z"/><path class="cls-6" d="M142.76,108.88a5.12,5.12,0,0,0-3.83.06,13.56,13.56,0,0,0-6,4.63c-1.92,2-2.87,4.35-2.56,6.2-.15,2.79,1.47,4.44,4,4.21a6.8,6.8,0,0,0,1.71-.38,14.28,14.28,0,0,0,8.46-9.78c0-.08,0-.16,0-.24l-.07,0,.09-.17C145,111.17,144.22,109.54,142.76,108.88Z"/><path class="cls-10" d="M126.3,113.69a15.88,15.88,0,0,0-.56,2Z"/><path class="cls-48" d="M357.08,126.77v25.31a1.9,1.9,0,0,1-1.12,1.57l-31.43,18.14a6,6,0,0,1-5.41,0l-32.18-18.7a1.94,1.94,0,0,1-1.11-1.49v-25.4Z"/><path class="cls-17" d="M357.08,126.4v25.3a1.9,1.9,0,0,1-1.12,1.58l-31.43,18.14a6,6,0,0,1-5.41,0l-32.18-18.7a1.94,1.94,0,0,1-1.11-1.49v-25.4Z"/><path class="cls-23" d="M356.12,128.24l-31.43,18.14a5.8,5.8,0,0,1-2.85.68,5.9,5.9,0,0,1-2.88-.69l-32.19-18.71a2.93,2.93,0,0,1-.95-.85v-1a1.92,1.92,0,0,0,1.12,1.57l32.18,18.7a6,6,0,0,0,5.41,0L356,128a1.91,1.91,0,0,0,1.12-1.56v1A2.87,2.87,0,0,1,356.12,128.24Z"/><path class="cls-5" d="M319.12,146.09a6,6,0,0,0,5.41,0L356,128c1.49-.85,1.49-2.27,0-3.13l-32.19-18.71a6,6,0,0,0-5.41,0l-31.43,18.14c-1.49.86-1.49,2.27,0,3.14Z"/><path class="cls-49" d="M319.81,140.22a4.25,4.25,0,0,0,3.82,0l22.19-12.81a1.18,1.18,0,0,0,0-2.22L323.09,112a4.19,4.19,0,0,0-3.81,0l-22.2,12.81a1.17,1.17,0,0,0,0,2.21Z"/><g class="cls-3"><path class="cls-50" d="M370.33,255.5,345.4,270a10.25,10.25,0,0,1-9.25,0L311.06,255.5a3.28,3.28,0,0,1-1.92-2.7v.8a3.28,3.28,0,0,0,1.93,2.7l25.08,14.48a10.21,10.21,0,0,0,9.26,0l24.93-14.48a3.25,3.25,0,0,0,1.89-2.67v-.8A3.25,3.25,0,0,1,370.33,255.5Z"/><path class="cls-5" d="M370.3,250.13c2.55,1.48,2.56,3.89,0,5.37L345.4,270a10.25,10.25,0,0,1-9.25,0L311.06,255.5c-2.55-1.48-2.57-3.89,0-5.37L336,235.65a10.27,10.27,0,0,1,9.26,0Z"/></g><g class="cls-3"><polygon class="cls-6" points="340.69 232.18 340.68 250.78 321.91 250.73 321.92 232.13 340.69 232.18"/><polygon class="cls-51" points="356.27 238.27 356.26 256.87 340.68 250.78 340.69 232.18 356.27 238.27"/><path class="cls-6" d="M359.47,232.22l0,18.6a8.09,8.09,0,0,1-3.19,6.05v-18.6A8.14,8.14,0,0,0,359.47,232.22Z"/><path class="cls-6" d="M353.93,224.49c3.42,2,5.54,4.71,5.54,7.73a8.14,8.14,0,0,1-3.2,6.05l-15.57-6.09-18.78-.05c0-6,8.43-10.85,18.8-10.83A27.08,27.08,0,0,1,353.93,224.49Z"/></g><g class="cls-3"><polygon class="cls-52" points="340.69 238.33 340.68 250.77 327.6 258.52 327.62 246.08 340.69 238.33"/><path class="cls-17" d="M340.7,238.33l-13.08,7.75-.11,0-.18-.1-.15-.09-.17-.1-.14-.09-.18-.12-.12-.08-.2-.13-.09-.06-.22-.16-.06,0-.25-.19a12,12,0,0,1-2.36-2.36,7.53,7.53,0,0,1-1.41-3.37c0-.11,0-.18,0-.25v-.07c0-.06,0-.13,0-.19v-.08c0-.09,0-.19,0-.28Z"/><path class="cls-53" d="M327.51,246l-.18-.1-.15-.09-.17-.1-.14-.09-.18-.12-.12-.08-.2-.13-.09-.06-.22-.16-.06,0-.25-.19a12,12,0,0,1-2.36-2.36,7.53,7.53,0,0,1-1.41-3.37c0-.11,0-.18,0-.25v-.07c0-.06,0-.13,0-.19v-.08c0-.09,0-.18,0-.27V251s0,.05,0,.08a1.21,1.21,0,0,0,0,.19.15.15,0,0,0,0,.07,1.49,1.49,0,0,0,0,.21,7.51,7.51,0,0,0,1.42,3.41,11.64,11.64,0,0,0,2.35,2.36l.25.19.06,0,.22.16.1.06.19.13.12.08.18.12.14.08.17.11.15.09.18.1.11,0,0-12.44Z"/></g><g class="cls-3"><path class="cls-6" d="M355.61,249.59l-.36.26-.75.5-.08,0-.3.19-.08,0a26.08,26.08,0,0,1-11.62,3.17l-.53,0h-1.22a27,27,0,0,1-13.05-3.13l0,7.82a27.17,27.17,0,0,0,13,3.13h1.23l.52,0A26,26,0,0,0,354,258.44l.07,0,.31-.19.07,0,.75-.5.36-.26.67-.54v-7.82Z"/><path class="cls-5" d="M356.27,249.05l-.66.54-.36.26-.75.5-.08,0-.3.19-.08,0a26.08,26.08,0,0,1-11.62,3.17l-.53,0h-1.22a27,27,0,0,1-13.05-3.13L340.69,243Z"/></g><path class="cls-54" d="M47.18,182.85c0-2.1.08-6,1.69-6s2.83,1.61,2.73,5.8c-.06,2.27.11,5.5-.3,7.36-.34,1.56-1.2,2-1.83,2C48.1,192,47.18,185.62,47.18,182.85Z"/><path class="cls-55" d="M50.55,197.05a6.77,6.77,0,0,0,.23,3c.5,1.95.91,2.63,1.95,3s1.24-.57,1-1.38a4.29,4.29,0,0,1-.22-1s.45,1.11.84,1.09,0-1.1-.68-2.27-1.14-1.78-1.14-1.78Z"/><path class="cls-56" d="M47.9,186.87s1,9.77,2.52,12.41c.25.43,2.26.31,2.83-.68-.06-.49-.55-3.58-1.29-7.16S50.81,186,50.81,186,48,184.63,47.9,186.87Z"/><path class="cls-10" d="M35.86,235.42c4.59,2.65,12,2.64,16.67,0s4.64-7,0-9.62-12-2.64-16.67,0S31.27,232.77,35.86,235.42Z"/><path class="cls-5" d="M38.13,231a1.75,1.75,0,0,0-1.41,1.3c-.25,1.13,4.74,4.34,7.4,3.72s-2-4-3.49-4.46A12,12,0,0,0,38.13,231Z"/><path class="cls-5" d="M47.29,225.49a1.76,1.76,0,0,0-1.41,1.3c-.24,1.14,4.74,4.35,7.41,3.72s-2-4-3.5-4.45A11.61,11.61,0,0,0,47.29,225.49Z"/><path class="cls-6" d="M38.5,200.43l.07,17.89s-.85,11.92-.85,12.71c0,1.8,3,2,3.1,1.26s2.61-15.35,2.61-15.35l1.46-11.66,1,9.16s1.06,9.9,1.14,11.31,3,2.44,3,1.25.87-29.07.87-29.07Z"/><path class="cls-57" d="M39.33,180s8-4.18,10-3.16,2,2.34,2.08,7.47-.57,13.92-.57,13.92-4.11,3.14-7.71,3.14-4.62-1-4.62-1S36.29,181.49,39.33,180Z"/><path class="cls-58" d="M37.15,186c.25-2.07.8-5.93,2.4-5.78s2.62,1.94,2,6.09c-.33,2.25-.54,5.48-1.17,7.27-.53,1.51-1.43,1.79-2.06,1.74C37,195.24,36.82,188.79,37.15,186Z"/><path class="cls-59" d="M38.8,200.54a6.72,6.72,0,0,0-.14,3c.26,2,.59,2.73,1.58,3.18s1.3-.43,1.16-1.25a4,4,0,0,1-.09-1s.34.57.62.35.23-.26-.32-1.51-.92-1.9-.92-1.9Z"/><path class="cls-60" d="M37.39,190.11s-.21,9.82,1,12.63c.2.45,2.21.57,2.89-.34,0-.5-.11-3.62-.42-7.27s-.49-5.51-.49-5.51S37.74,187.9,37.39,190.11Z"/><path class="cls-23" d="M42.87,174.75v3.8a2,2,0,0,0,2.25,1.08c1.6-.31,1.88-2.19,1.65-3.19S42.87,174.75,42.87,174.75Z"/><path class="cls-23" d="M50,170.58s.65,6.2-2.78,6.81-5.09-2.25-5.21-5.33C41.64,168.14,48.87,164.42,50,170.58Z"/><path class="cls-6" d="M42.87,176s.6-3.18,1.35-4.15.76-1.25.76-1.25,1.88,1.42,3.62,1,2.3-1.54,2-2.71-3.24-2.6-4.63-2.6a5,5,0,0,0-4.75,5.22A6.12,6.12,0,0,0,42.87,176Z"/><path class="cls-6" d="M44,173s-.61-1.58-1.22-.58a1.85,1.85,0,0,0,.61,2.32C43.83,175.18,44.64,174.08,44,173Z"/><path class="cls-61" d="M43.8,225.61l-.11-37.51a7.55,7.55,0,0,1,3.42-5.92l49-28.29a2.65,2.65,0,0,1,2.1-.39,2.24,2.24,0,0,0-2.74,0l-49,28.29a7.55,7.55,0,0,0-3.42,5.92l.11,37.51a2.2,2.2,0,0,0,1.35,2.35A2.62,2.62,0,0,1,43.8,225.61Z"/><path class="cls-30" d="M99.56,155.84a2.22,2.22,0,0,0-1.35-2.34,2.65,2.65,0,0,1,.71,2L99,193a7.5,7.5,0,0,1-3.42,5.92l-49,28.29a2.63,2.63,0,0,1-2.09.39,2.23,2.23,0,0,0,2.73,0l49-28.29a7.5,7.5,0,0,0,3.42-5.92Z"/><path class="cls-62" d="M46.6,227.2l49-28.29A7.5,7.5,0,0,0,99,193l-.1-37.52a2.65,2.65,0,0,0-.71-2,2.65,2.65,0,0,0-2.1.39l-49,28.29a7.55,7.55,0,0,0-3.42,5.92l.11,37.51a2.62,2.62,0,0,0,.71,2A2.63,2.63,0,0,0,46.6,227.2Z"/><path class="cls-17" d="M64.36,207.32c-6.2,3.58-11.25.71-11.25-6.41s5-15.81,11.25-19.39,11.24-.71,11.24,6.41S70.56,203.74,64.36,207.32Zm0-21a15.62,15.62,0,0,0-7.08,12.2c0,4.48,3.18,6.29,7.08,4a15.63,15.63,0,0,0,7.07-12.2C71.43,185.86,68.26,184.05,64.36,186.3Z"/><path class="cls-5" d="M64.36,207.32c-6.2,3.58-11.25.71-11.25-6.41s5-15.81,11.25-19.39v4.78a15.62,15.62,0,0,0-7.08,12.2c0,4.48,3.18,6.29,7.08,4a15.63,15.63,0,0,0,7.07-12.2,7.3,7.3,0,0,0-.3-2.17l4-3.68a11.82,11.82,0,0,1,.47,3.44C75.6,195,70.56,203.74,64.36,207.32Z"/><path class="cls-6" d="M64.36,207.32c-6.2,3.58-11.25.71-11.25-6.41,0-4.62,2.18-10.17,5.68-14.48l2.07,3a15.38,15.38,0,0,0-3.58,9.11c0,4.48,3.18,6.29,7.08,4a14.47,14.47,0,0,0,5-5.32,14.2,14.2,0,0,0,2-6.88l4.17-2.41a22.68,22.68,0,0,1-3.24,10.94A23,23,0,0,1,64.36,207.32Z"/><path class="cls-17" d="M81,200.34,88.88,196a5.65,5.65,0,0,0,2.57-4.44l-.08-23.54a2,2,0,0,0-.53-1.48,2,2,0,0,0-1.57.29l-7.93,4.31a5.66,5.66,0,0,0-2.57,4.44l.08,23.53a2,2,0,0,0,.54,1.49A2,2,0,0,0,81,200.34Z"/><polygon class="cls-63" points="79.29 177.34 90.13 171.08 90.13 170.58 79.29 176.84 79.29 177.34"/><polygon class="cls-64" points="79.63 178.29 90.13 172.23 90.13 171.73 79.63 177.79 79.63 178.29"/><polygon class="cls-65" points="80.54 178.92 90.13 173.38 90.13 172.88 80.54 178.42 80.54 178.92"/><polygon class="cls-66" points="81.15 179.72 90.13 174.54 90.13 174.04 81.15 179.22 81.15 179.72"/><polygon class="cls-67" points="81.69 180.56 90.13 175.69 90.13 175.19 81.69 180.06 81.69 180.56"/><polygon class="cls-68" points="82.36 181.32 90.13 176.84 90.13 176.34 82.36 180.82 82.36 181.32"/><polygon class="cls-69" points="79.29 191.72 90.13 185.47 90.13 184.97 79.29 191.22 79.29 191.72"/><polygon class="cls-70" points="79.63 192.68 90.13 186.62 90.13 186.12 79.63 192.18 79.63 192.68"/><polygon class="cls-71" points="80.54 193.3 90.13 187.77 90.13 187.27 80.54 192.8 80.54 193.3"/><polygon class="cls-72" points="81.15 194.1 90.13 188.92 90.13 188.42 81.15 193.6 81.15 194.1"/><polygon class="cls-73" points="81.69 194.94 90.13 190.07 90.13 189.57 81.69 194.44 81.69 194.94"/><polygon class="cls-74" points="82.36 195.71 90.13 191.23 90.13 190.73 82.36 195.21 82.36 195.71"/><g class="cls-3"><path class="cls-24" d="M186.22,126.52a9.14,9.14,0,0,0-6.62-.84,17.24,17.24,0,0,0-4.95,2,27,27,0,0,0-4.74,3.55l7.32,4.25a26.45,26.45,0,0,1,4.74-3.54,17,17,0,0,1,4.95-2,9.19,9.19,0,0,1,6.62.84Z"/><path class="cls-75" d="M164.65,122.27a10.64,10.64,0,0,0-7.66-1,20,20,0,0,0-5.72,2.29,34.16,34.16,0,0,0-9.13,8c-5,6.06-8.55,13.85-9.41,21.1A17,17,0,0,0,128,154.6a29.65,29.65,0,0,0-7.87,6.88c-5,6.08-8.36,14.16-8.34,21.19,0,5.13,1.83,8.73,4.74,10.43l7.33,4.25c-2.92-1.7-4.73-5.3-4.75-10.42,0-7,3.35-15.12,8.34-21.19a29.67,29.67,0,0,1,7.87-6.89,17.59,17.59,0,0,1,4.75-1.93,42.85,42.85,0,0,1,9.41-21.1,34.34,34.34,0,0,1,9.13-8,19.66,19.66,0,0,1,5.72-2.28,10.59,10.59,0,0,1,7.66,1Z"/><path class="cls-26" d="M158.59,127.83c9.42-5.44,17.25-2,18.64,7.62a26.45,26.45,0,0,1,4.74-3.54c9-5.19,16.29-1,16.32,9.3s-7.23,22.88-16.21,28.06l-46.67,26.95c-9,5.18-16.29,1-16.32-9.29s7.24-22.9,16.21-28.08a17.59,17.59,0,0,1,4.75-1.93C141.39,145.74,149.16,133.28,158.59,127.83Z"/></g><g class="cls-3"><path class="cls-27" d="M152.11,169.6l-1-.46-.11,0,2.75,1.59.11,0,1,.46.06,0-2.74-1.6Z"/><path class="cls-27" d="M149.06,177.31a.2.2,0,0,0-.08-.13l-2.75-1.59a.22.22,0,0,1,.09.13l.57,1.11a.15.15,0,0,0,.07.12l2.75,1.59a.15.15,0,0,1-.08-.11Z"/><path class="cls-6" d="M152.47,164.14a.14.14,0,0,0-.11,0l-.09,0s-.05,0-.07.06l-1,.67.56-1.08a.46.46,0,0,1,.11-.16.43.43,0,0,1,.14-.13l.09,0h.06l1.19.14h.05L150.62,162l-.06,0-1.18-.13h-.07a.19.19,0,0,0-.08,0,.47.47,0,0,0-.15.13.59.59,0,0,0-.1.17l-.9,1.7-.1.17L146.17,163a.14.14,0,0,0-.11,0l-.09,0-.07.05-1.34,1.15a.23.23,0,0,0-.07.07.6.6,0,0,0-.14.46l.09,1.51v.16l-.16.19a10.16,10.16,0,0,0-.67.91.63.63,0,0,1-.13.11.25.25,0,0,1-.11,0h-.06l-1.28.16H142a.21.21,0,0,0-.1,0l-.15.12a.77.77,0,0,0-.1.18l-.71,1.77c-.07.17,0,.33,0,.38l1.16.67a8.61,8.61,0,0,0-.17,1.08.81.81,0,0,1-.15.27l-.09.09-1.25,1.37-.07.08a.56.56,0,0,0-.14.44l.33,1.36a.16.16,0,0,0,.08.1l2,1.15-.16.58c-.07.17,0,.33.05.38l2.74,1.6c-.09-.06-.11-.22,0-.39l.48-1.75a.49.49,0,0,0,0-.37,2.57,2.57,0,0,1-.55-.63l-1.85-1.08,1.12-1.24a.47.47,0,0,0,.1-.1.7.7,0,0,0,.14-.27,9.25,9.25,0,0,1,.2-1.23l-1.25-.73a.32.32,0,0,1,0-.16l.71-1.78a.59.59,0,0,1,.1-.17.37.37,0,0,1,.15-.13l.09,0h.05l1.28-.17h.07l.1,0a.53.53,0,0,0,.14-.12q.31-.47.66-.9l.17-.19v-.17l-.09-1.51a.54.54,0,0,1,.14-.46l.06-.07.85-.72,1.5.86a.2.2,0,0,0,.11,0,5.13,5.13,0,0,1,1-.33,1.63,1.63,0,0,0,.11-.17l.11-.2,2.5,1.46.15-.08,1.36-.89.08-.05.08,0a.16.16,0,0,1,.12,0Z"/><path class="cls-27" d="M150.72,169.17,148,167.58a1.15,1.15,0,0,1,.52.76,3.92,3.92,0,0,1-1,3.09,4.64,4.64,0,0,1-.49.5,4.45,4.45,0,0,1-.48.35,2.37,2.37,0,0,1-.6.23,1.1,1.1,0,0,1-.81-.1l2.74,1.6a1.16,1.16,0,0,0,.81.1,1.89,1.89,0,0,0,.6-.24,3.54,3.54,0,0,0,.48-.34,3.39,3.39,0,0,0,.49-.51,3.85,3.85,0,0,0,.95-3.08A1.16,1.16,0,0,0,150.72,169.17Z"/><g class="cls-1"><path class="cls-2" d="M155.63,167.2a.59.59,0,0,1-.22.52l-1.25,1.36a1,1,0,0,0-.23.38,7.56,7.56,0,0,1-.2,1.22l.11,0,1,.46c.14,0,.18.19.1.39l-.71,1.78a.56.56,0,0,1-.25.29.21.21,0,0,1-.15,0l-1.28.18a.28.28,0,0,0-.17,0,.53.53,0,0,0-.14.12c-.25.37-.53.74-.82,1.09v.15l.09,1.53a.6.6,0,0,1-.22.52L150,178.47l-.06.05c-.14.08-.26,0-.29-.09l-.57-1.12a.18.18,0,0,0-.2-.15,3.84,3.84,0,0,1-1,.33l-.09.17-.91,1.7a.53.53,0,0,1-.24.3.21.21,0,0,1-.15,0l-1.18-.14c-.14,0-.19-.2-.1-.4l.48-1.75a.44.44,0,0,0,0-.37,2.76,2.76,0,0,1-.54-.63l-.14.08-1.36.88-.07,0c-.13.08-.25,0-.28-.08L143,176a.6.6,0,0,1,.2-.52l1.25-1.37a.77.77,0,0,0,.24-.37,9.25,9.25,0,0,1,.2-1.23l-.1-.05-1-.45c-.13,0-.18-.19-.09-.39l.71-1.78a.63.63,0,0,1,.25-.3.27.27,0,0,1,.14,0l1.28-.17a.27.27,0,0,0,.17,0,.53.53,0,0,0,.14-.12,9.79,9.79,0,0,1,.83-1.09v-.17l-.09-1.51a.61.61,0,0,1,.2-.53l1.35-1.15.07,0c.13-.07.24,0,.27.09l.56,1.12c0,.11.11.17.21.16a4.06,4.06,0,0,1,1-.33l.1-.17.9-1.71a.61.61,0,0,1,.25-.29.21.21,0,0,1,.15,0l1.19.14c.13,0,.17.19.09.4l-.48,1.75a.57.57,0,0,0,0,.38,2.09,2.09,0,0,1,.54.63l.15-.08,1.36-.89.08-.05c.13-.08.24,0,.27.09Zm-5.84,6.33a4.09,4.09,0,0,0,1.44-3.59c-.22-.92-1-1.15-1.93-.63a4.07,4.07,0,0,0-.47.33,4.15,4.15,0,0,0-1.45,3.61c.23.9,1,1.14,1.93.62a3.54,3.54,0,0,0,.48-.34Z"/></g><path class="cls-10" d="M159.45,148.22l-1.45-.65-.15-.07,2.75,1.59.15.08,1.44.64a.16.16,0,0,1,.09,0l-2.75-1.6Z"/><path class="cls-10" d="M154,158.48a.28.28,0,0,0-.13-.18l-2.74-1.6a.29.29,0,0,1,.12.19l.8,1.57a.22.22,0,0,0,.11.16l2.74,1.6a.27.27,0,0,1-.11-.16Z"/><path class="cls-10" d="M160,140.5a.32.32,0,0,0-.17,0l-.13.05-.09.07-1.93,1.25-.2.12,2.74,1.6.2-.13,1.93-1.25.1-.06a.31.31,0,0,1,.12,0,.19.19,0,0,1,.17,0Z"/><path class="cls-10" d="M156.34,147l-2.75-1.6a1.64,1.64,0,0,1,.74,1.08A5.52,5.52,0,0,1,153,150.8a6.07,6.07,0,0,1-.7.73,4.72,4.72,0,0,1-.68.48,2.61,2.61,0,0,1-.84.33,1.54,1.54,0,0,1-1.15-.14l2.75,1.59a1.58,1.58,0,0,0,1.15.15,2.91,2.91,0,0,0,.84-.34,4,4,0,0,0,.67-.48,5.3,5.3,0,0,0,.7-.72,5.52,5.52,0,0,0,1.35-4.37A1.66,1.66,0,0,0,156.34,147Z"/><path class="cls-6" d="M148.51,157.19l-2.63-1.53,1.6-1.74.12-.13a1.1,1.1,0,0,0,.21-.4,10.91,10.91,0,0,1,.28-1.73l-1.78-1a1.2,1.2,0,0,1,0-.24l1-2.5a.74.74,0,0,1,.15-.26.75.75,0,0,1,.19-.17.28.28,0,0,1,.12,0h.09l1.82-.25h.1a.47.47,0,0,0,.15-.06,1.25,1.25,0,0,0,.19-.15,15,15,0,0,1,1-1.34l.17-.21v-.23l-.13-2.15a.8.8,0,0,1,.2-.64.47.47,0,0,1,.1-.1l1.2-1,2.11,1.23a.38.38,0,0,0,.16,0,6.5,6.5,0,0,1,1.37-.46l.13-.24,1.28-2.41a1.35,1.35,0,0,1,.15-.26.79.79,0,0,1,.2-.17l.13,0a.27.27,0,0,1,.09,0l1.67.2.07,0-2.74-1.59a.13.13,0,0,0-.08,0l-1.67-.2h-.09a.43.43,0,0,0-.13.05,1,1,0,0,0-.19.17.93.93,0,0,0-.15.26l-1.28,2.41-.13.23-2.56-1.49a.25.25,0,0,0-.17,0,.43.43,0,0,0-.13.05l-.09.06-1.89,1.63a.52.52,0,0,0-.1.11.76.76,0,0,0-.2.64l.12,2.15v.23l-.17.2c-.35.43-.68.88-1,1.34a.7.7,0,0,1-.19.16l-.14,0H147l-1.81.26h-.1a.31.31,0,0,0-.12.05.73.73,0,0,0-.19.17,1,1,0,0,0-.15.25l-1,2.5c-.1.25-.07.47.06.54l1.63,1a10.57,10.57,0,0,0-.23,1.52,1.17,1.17,0,0,1-.22.41,1.36,1.36,0,0,1-.12.12L143,154.25l-.1.1a.78.78,0,0,0-.2.64l.47,1.91a.27.27,0,0,0,.11.16l2.74,1.59a.21.21,0,0,1-.1-.16l-.47-1.9a.84.84,0,0,1,.19-.65l.1-.1.13-.14a3.59,3.59,0,0,0,.69.8.68.68,0,0,1,0,.52l-.69,2.47c-.1.25-.07.47.07.55l2.74,1.59c-.13-.07-.16-.3-.06-.54l.68-2.48a.68.68,0,0,0,0-.52A3.52,3.52,0,0,1,148.51,157.19Z"/><path class="cls-76" d="M163.28,144.16a.87.87,0,0,1-.3.75l-1.77,1.93a1.25,1.25,0,0,0-.33.52,12.19,12.19,0,0,1-.28,1.73l.15.08,1.44.64c.2,0,.26.27.15.56l-1,2.51a.92.92,0,0,1-.35.42.34.34,0,0,1-.21,0l-1.81.26a.43.43,0,0,0-.26.06l-.18.15a16.13,16.13,0,0,1-1.17,1.55v.23l.12,2.15a.85.85,0,0,1-.29.73l-1.9,1.63-.11.08c-.18.1-.34.05-.39-.13l-.79-1.58a.25.25,0,0,0-.29-.21,6.56,6.56,0,0,1-1.36.45l-.14.24-1.28,2.41a1,1,0,0,1-.35.43.34.34,0,0,1-.21,0l-1.68-.19c-.19,0-.25-.29-.13-.57l.68-2.48a.68.68,0,0,0,0-.52,3.52,3.52,0,0,1-.76-.9l-.19.11-1.94,1.25-.11.08c-.18.1-.34.05-.38-.14l-.47-1.9a.86.86,0,0,1,.29-.75l1.77-1.92a1.19,1.19,0,0,0,.33-.53,10.91,10.91,0,0,1,.28-1.73l-.14-.08L146.5,151c-.2,0-.26-.28-.15-.57l1-2.5a.83.83,0,0,1,.34-.43.34.34,0,0,1,.21,0l1.82-.25a.42.42,0,0,0,.25-.07,1.25,1.25,0,0,0,.19-.15,14.54,14.54,0,0,1,1.16-1.55v-.23l-.13-2.15a.87.87,0,0,1,.3-.74l1.9-1.63.09-.07c.18-.1.35-.06.4.14l.79,1.57a.26.26,0,0,0,.29.22,6.69,6.69,0,0,1,1.37-.46l.13-.24,1.28-2.41a.9.9,0,0,1,.35-.43.36.36,0,0,1,.22,0l1.67.2c.19,0,.25.28.14.56l-.69,2.48a.68.68,0,0,0,0,.52,3.58,3.58,0,0,1,.76.91l.2-.13,1.93-1.25.1-.06c.18-.11.35-.06.4.12Zm-8.26,9a5.8,5.8,0,0,0,2-5.09c-.32-1.29-1.46-1.61-2.73-.88a4.65,4.65,0,0,0-.67.48c-1.5,1.29-2.42,3.57-2,5.09.32,1.28,1.47,1.61,2.73.88a4,4,0,0,0,.67-.48Z"/><path class="cls-6" d="M178.43,160.16l2.75,1.6,0,0-2.75-1.59Z"/><path class="cls-6" d="M180,149.3a.29.29,0,0,0-.23,0,1.12,1.12,0,0,0-.24.1l-2.7,1.42-.2.09,2.74,1.59a.56.56,0,0,0,.2-.08l2.7-1.42a.73.73,0,0,1,.25-.1.35.35,0,0,1,.23,0Z"/><path class="cls-6" d="M169.61,172.39a.46.46,0,0,0-.19-.32l-2.75-1.6a.42.42,0,0,1,.19.32l.82,2.41a.36.36,0,0,0,.15.27l2.75,1.59a.32.32,0,0,1-.15-.26Z"/><path class="cls-6" d="M173.77,156.3,171,154.7a2.42,2.42,0,0,1,1.08,1.89,7.88,7.88,0,0,1-1.92,5.52,7,7,0,0,1-1.34,1.28,5,5,0,0,1-.51.34,4.12,4.12,0,0,1-1.15.46,2.2,2.2,0,0,1-1.56-.2l2.74,1.6a2.15,2.15,0,0,0,1.56.19,3.74,3.74,0,0,0,1.15-.46c.17-.09.34-.21.52-.33a7.76,7.76,0,0,0,1.34-1.29,7.93,7.93,0,0,0,1.92-5.52A2.4,2.4,0,0,0,173.77,156.3Z"/><path class="cls-6" d="M162.76,169.41l-2.75-1.6a5.34,5.34,0,0,0,.86,1.44,1.06,1.06,0,0,1-.1.74l-1.19,3.39c-.17.35-.15.69,0,.8l2.75,1.6c-.2-.11-.22-.46-.06-.81l1.2-3.39a1.16,1.16,0,0,0,.1-.73A5.14,5.14,0,0,1,162.76,169.41Z"/><path class="cls-6" d="M170.13,148.26a.33.33,0,0,1-.15,0l2.74,1.59a.44.44,0,0,0,.15.05,7.42,7.42,0,0,1,.86-.24,6.37,6.37,0,0,1,.94-.12l.21-.32,1.94-3.17a1.3,1.3,0,0,1,.17-.26.85.85,0,0,1,.27-.24.77.77,0,0,1,.17-.07h.16l2.11.65.07,0L177,144.52l-.06,0-2.11-.64a.25.25,0,0,0-.17,0,.52.52,0,0,0-.16.06,1,1,0,0,0-.27.24,1,1,0,0,0-.17.27l-2,3.16-.2.32a6.55,6.55,0,0,0-1,.13A7.18,7.18,0,0,0,170.13,148.26Z"/><path class="cls-6" d="M166,155.32l.19-.14.52-.66c.37-.46.76-.89,1.17-1.31a.82.82,0,0,0,0-.31l.12-3.09a1.2,1.2,0,0,1,.28-.81,1.07,1.07,0,0,1,.19-.18l2.63-1.92.07-.05a.77.77,0,0,1,.17-.07.3.3,0,0,1,.23,0l-2.75-1.6a.32.32,0,0,0-.22,0l-.17.06-.08.06-2.62,1.91a.81.81,0,0,0-.19.18,1.16,1.16,0,0,0-.29.81l-.11,3.09a.7.7,0,0,1,0,.32c-.4.41-.79.85-1.17,1.31-.17.21-.35.43-.51.65a.81.81,0,0,1-.2.14.52.52,0,0,1-.19.08.34.34,0,0,1-.2,0l-2.35,0a.32.32,0,0,0-.17,0,.77.77,0,0,0-.17.07,1.1,1.1,0,0,0-.27.23,1.2,1.2,0,0,0-.16.27l-1.61,3.35c-.17.36-.14.7,0,.81l.14.09,1.7,1.15.17.13a17.58,17.58,0,0,0-.58,2.41,1.75,1.75,0,0,1-.26.46,1.58,1.58,0,0,1-.23.22l-2.5,2.37a1.07,1.07,0,0,0-.19.18,1.17,1.17,0,0,0-.28.8l.36,2.82a.31.31,0,0,0,.15.27l2.74,1.59a.36.36,0,0,1-.15-.26l-.35-2.82a1.1,1.1,0,0,1,.28-.81.81.81,0,0,1,.19-.18l2.5-2.37a1.14,1.14,0,0,0,.22-.22,1.33,1.33,0,0,0,.26-.46,16.91,16.91,0,0,1,.59-2.41l-.18-.12L161,160.12l-.07,0c-.17-.13-.2-.45,0-.8l1.6-3.34a1.78,1.78,0,0,1,.17-.27,1,1,0,0,1,.27-.24.49.49,0,0,1,.17-.06.33.33,0,0,1,.17,0l2.34,0a.44.44,0,0,0,.2,0A.84.84,0,0,0,166,155.32Z"/><path class="cls-77" d="M183.26,154a1.21,1.21,0,0,1-.47,1l-2.5,2.38a1.45,1.45,0,0,0-.49.67,16.85,16.85,0,0,1-.58,2.41l.18.14,1.78,1.2c.24.08.29.44.1.84l-1.6,3.35a1.21,1.21,0,0,1-.44.5.43.43,0,0,1-.34.06l-2.34,0a.5.5,0,0,0-.4.07,1.33,1.33,0,0,0-.19.14,18,18,0,0,1-1.69,2,.84.84,0,0,0,0,.31l-.11,3.1a1.19,1.19,0,0,1-.47,1L171.05,175c-.35.21-.58.11-.62-.19l-.82-2.41a.4.4,0,0,0-.34-.37,7.92,7.92,0,0,1-1.81.38l-.2.31-1.94,3.16a1.1,1.1,0,0,1-.44.5.43.43,0,0,1-.33.07l-2.12-.64c-.24-.07-.29-.45-.11-.83l1.2-3.39a1.16,1.16,0,0,0,.1-.73,5.14,5.14,0,0,1-.86-1.44.9.9,0,0,0-.21.08l-2.69,1.43c-.35.21-.59.11-.63-.19l-.35-2.82a1.18,1.18,0,0,1,.47-1l2.5-2.37a1.51,1.51,0,0,0,.48-.68,16.91,16.91,0,0,1,.59-2.41l-.18-.12L161,160.12c-.24-.07-.29-.44-.1-.84l1.6-3.34a1.18,1.18,0,0,1,.44-.51.48.48,0,0,1,.34-.06l2.34,0a.5.5,0,0,0,.4-.07l.19-.14a19.93,19.93,0,0,1,1.69-2,.82.82,0,0,0,0-.31l.12-3.09a1.21,1.21,0,0,1,.47-1l2.63-1.92.07-.05c.28-.16.51-.07.55.23l.82,2.41a.39.39,0,0,0,.34.37,6.84,6.84,0,0,1,1.8-.36l.21-.32,1.94-3.17a1.22,1.22,0,0,1,.44-.5.46.46,0,0,1,.33-.07l2.11.65c.25.06.29.44.11.82l-1.19,3.39a1.1,1.1,0,0,0-.1.73,5.67,5.67,0,0,1,.86,1.44.56.56,0,0,0,.2-.08l2.7-1.42c.35-.21.59-.12.63.18Zm-11.67,11a8.26,8.26,0,0,0,3.26-6.81c-.27-2.05-1.9-2.71-3.78-1.62-.17.1-.35.21-.52.33a8.24,8.24,0,0,0-3.26,6.82c.27,2,1.9,2.7,3.78,1.61.17-.09.34-.21.52-.33Z"/></g><path class="cls-10" d="M236,299.94a30.85,30.85,0,0,1,6.62,3.07l-4.25,2.6-2.74-.5v7.08a.42.42,0,0,0,0,.19l4,5.61a.9.9,0,0,0,.77.2s9.77-1.61,13.63.62a4.07,4.07,0,0,1,1.06.85v7.13a.47.47,0,0,0,.37.36l9.71,2.32a.93.93,0,0,0,.79-.18s4.91-5.13,10.38-5.13,10.37,5.14,10.37,5.14a1,1,0,0,0,.79.17l9.72-2.32c.27-.07.42-.27.34-.44,0,0-2.81-5.64,1-7.87s13.63-.6,13.63-.6a.94.94,0,0,0,.78-.2l4-5.61a.17.17,0,0,0,0-.14v-7.08l-6.68-2.33a31.27,31.27,0,0,1,6.36-2.88c.22-.07.35-.22.34-.37V292.5l-15.89-2.64-3.6-4.82V278L280,281.86l-10.51,0L255.18,278v7.11a.22.22,0,0,0,0,.12,10.91,10.91,0,0,1,.62,1.68l-20.19,5.57v7.23l.07,0A.51.51,0,0,0,236,299.94Zm23.33,2.46a10.72,10.72,0,0,1,4.58-4.57c6.89-4,18.06-4,24.95,0a10.72,10.72,0,0,1,4.58,4.57,10.77,10.77,0,0,1-4.58,4.57c-6.89,4-18.06,4-24.95,0A10.77,10.77,0,0,1,259.33,302.4Z"/><path class="cls-13" d="M236,299a30.59,30.59,0,0,1,6.62,3.06l-4.25,2.6-2.74-.49v7.07a.46.46,0,0,0,0,.2l4,5.61a.94.94,0,0,0,.77.2s9.77-1.62,13.63.62a4.07,4.07,0,0,1,1.06.85v7.13a.46.46,0,0,0,.37.35l9.71,2.33a1,1,0,0,0,.79-.18s4.91-5.13,10.38-5.13,10.37,5.13,10.37,5.13a1,1,0,0,0,.79.18l9.72-2.32c.27-.08.42-.28.34-.45,0,0-2.81-5.63,1-7.87s13.63-.6,13.63-.6a1,1,0,0,0,.78-.19l4-5.61a.21.21,0,0,0,0-.15v-7.07l-6.68-2.34a31.9,31.9,0,0,1,6.36-2.88c.22-.07.35-.22.34-.36v-7.13l-15.89-2.64-3.6-4.83v-7L280,280.91l-10.51,0L255.18,277v7.12a.25.25,0,0,0,0,.12,10.51,10.51,0,0,1,.62,1.67l-20.19,5.57v7.23l.07,0A.52.52,0,0,0,236,299Zm23.33,2.45a10.77,10.77,0,0,1,4.58-4.57c6.89-4,18.06-4,24.95,0a10.77,10.77,0,0,1,4.58,4.57,10.79,10.79,0,0,1-4.58,4.58c-6.89,4-18.06,4-24.95,0A10.79,10.79,0,0,1,259.33,301.45Z"/><path class="cls-23" d="M297.62,318.73a.2.2,0,0,0,0-.11s-2.81-5.64,1-7.87c1.58-.91,4.12-1.18,6.59-1.18a48.18,48.18,0,0,1,7,.58h.17a.85.85,0,0,0,.61-.21l4-5.61a.11.11,0,0,0,0-.08v1.45l-3.39,4.72,0,.06a1.67,1.67,0,0,1-1.23.49,1.53,1.53,0,0,1-.3,0,49.6,49.6,0,0,0-6.91-.56c-2.83,0-5,.37-6.18,1.07-2.89,1.67-1.12,5.93-.78,6.68A3.8,3.8,0,0,0,297.62,318.73Z"/><path class="cls-23" d="M235.63,304.17a.27.27,0,0,0,0,.12l4,5.62a.89.89,0,0,0,.61.21l.16,0a49.1,49.1,0,0,1,7-.56c2.48,0,5.05.27,6.63,1.18,3.9,2.26,1.09,7.89,1.09,7.89-.09.17.06.37.34.45l9.71,2.32.19,0a.9.9,0,0,0,.6-.2s4.91-5.13,10.38-5.13,10.37,5.14,10.37,5.14a.9.9,0,0,0,.6.19h.19l9.72-2.33.14-.05a3.71,3.71,0,0,0-.52,1l-9.15,2.19a1.76,1.76,0,0,1-.38,0,1.68,1.68,0,0,1-1.19-.45s-4.74-4.88-9.78-4.88-9.74,4.83-9.79,4.88a1.66,1.66,0,0,1-1.19.45,1.27,1.27,0,0,1-.34,0l-9.75-2.33-.18-.05v-1.08a3.72,3.72,0,0,0-.65-.59c.34-.75,2.1-5-.78-6.68-1.26-.72-3.41-1.09-6.26-1.09a48.16,48.16,0,0,0-6.87.55l-.29,0a1.6,1.6,0,0,1-1.23-.49l-.05-.06-3.37-4.72Z"/><path class="cls-23" d="M235.67,291.51a.41.41,0,0,0,.33.34s8.89,2.85,8.88,6a5.05,5.05,0,0,1-2.57,4c-.25-.16-.51-.32-.78-.47,1.63-1,2.53-2.24,2.53-3.54,0-.44-.38-1.66-4-3.45a36.1,36.1,0,0,0-4.33-1.77l-.12,0v-1.07Z"/><path class="cls-23" d="M317.13,291.56v1.09l-.09,0a32.85,32.85,0,0,0-4.35,1.77c-3.59,1.78-4,3-4,3.44s.34,1.5,3.34,3.11l-.85.46c-1.79-1-3.31-2.27-3.31-3.58,0-3.15,8.9-6,8.9-6a.44.44,0,0,0,.34-.36Z"/><path class="cls-23" d="M255.2,277.14s2.23,4.46,0,7v-1.7a5.81,5.81,0,0,0,0-2.84V277A.36.36,0,0,0,255.2,277.14Z"/><path class="cls-23" d="M297.64,282.45v1.64l.28.38c-2.59-2.4-.45-7-.28-7.29v2.57A5.73,5.73,0,0,0,297.64,282.45Z"/><path class="cls-23" d="M264.33,290.92a26.67,26.67,0,0,1,24.11,0c4.46,2.58,5.94,6.22,4.42,9.51a7.92,7.92,0,0,0-.57-.76,5,5,0,0,0,.33-1.79c0-2.32-1.63-4.54-4.59-6.25a25.86,25.86,0,0,0-23.29,0c-3,1.71-4.59,3.93-4.59,6.25a5,5,0,0,0,.33,1.79,7.92,7.92,0,0,0-.57.76C258.4,297.14,259.87,293.5,264.33,290.92Z"/><path class="cls-6" d="M255.5,319.06l9.71,2.32a.93.93,0,0,0,.79-.18s4.91-5.13,10.38-5.13,10.37,5.14,10.37,5.14a1,1,0,0,0,.79.18l9.72-2.33c.27-.07.42-.27.34-.44,0,0-2.81-5.64,1-7.87s13.63-.6,13.63-.6a.94.94,0,0,0,.78-.2l4-5.61c.1-.16,0-.37-.3-.45,0,0-8.89-2.84-8.89-6s8.9-6,8.9-6c.27-.09.4-.29.31-.46l-4-5.61a.94.94,0,0,0-.77-.2s-9.76,1.62-13.62-.61-1-7.87-1-7.87c.08-.17-.07-.37-.34-.44l-9.71-2.33a.66.66,0,0,0-.69.2,9.7,9.7,0,0,1-2.89,3.29,15.52,15.52,0,0,1-7.6,1.81c-5.46,0-10.37-5.14-10.37-5.14a1,1,0,0,0-.78-.18l-9.72,2.32c-.28.08-.43.28-.35.45,0,0,2.81,5.63-1.06,7.86s-13.63.6-13.63.6a1,1,0,0,0-.78.19l-4,5.61c-.1.16,0,.37.3.45,0,0,8.89,2.85,8.88,6,0,1.71-1.21,3.26-3.14,4.37A25.22,25.22,0,0,1,236,303.9c-.28.05-.44.23-.35.39l4,5.62a.94.94,0,0,0,.77.19s9.77-1.61,13.63.62,1.09,7.89,1.09,7.89C255.07,318.78,255.22,319,255.5,319.06Zm8.83-14.22c-6.66-3.84-6.66-10.07,0-13.92s17.45-3.84,24.11,0,6.66,10.08,0,13.92S271,308.69,264.33,304.84Z"/><path class="cls-78" d="M119.06,322.75a22.46,22.46,0,0,1,4.79,2.21l-3.08,1.88-2-.35v5.11a.32.32,0,0,0,0,.14l2.9,4.07a.71.71,0,0,0,.56.14s7.07-1.17,9.86.45a3.09,3.09,0,0,1,.77.61v5.16a.33.33,0,0,0,.26.26l7,1.68a.69.69,0,0,0,.57-.13s3.56-3.71,7.51-3.71,7.51,3.71,7.51,3.71a.69.69,0,0,0,.57.13l7-1.68c.19-.05.3-.2.24-.32s-2-4.08.77-5.69,9.86-.44,9.86-.44a.64.64,0,0,0,.55-.14l2.92-4.06a.18.18,0,0,0,0-.1v-5.12l-4.83-1.69a22.75,22.75,0,0,1,4.6-2.09c.15,0,.25-.15.24-.26v-5.16l-11.5-1.91-2.6-3.49v-5.1l-12.78,2.8-7.6,0-10.33-2.78V312a.14.14,0,0,0,0,.09,7.13,7.13,0,0,1,.45,1.21l-14.61,4v5.23A.8.8,0,0,0,119.06,322.75Zm16.88,1.77a7.82,7.82,0,0,1,3.31-3.31c5-2.87,13.07-2.87,18.05,0a7.82,7.82,0,0,1,3.31,3.31,7.71,7.71,0,0,1-3.31,3.31c-5,2.88-13.07,2.88-18.05,0A7.71,7.71,0,0,1,135.94,324.52Z"/><path class="cls-17" d="M119.06,322.06a22.74,22.74,0,0,1,4.79,2.22l-3.08,1.88-2-.36v5.12a.34.34,0,0,0,0,.14l2.9,4.06a.67.67,0,0,0,.56.14s7.07-1.17,9.86.45a2.9,2.9,0,0,1,.77.62v5.16a.33.33,0,0,0,.26.25l7,1.68a.69.69,0,0,0,.57-.12s3.56-3.72,7.51-3.72,7.51,3.72,7.51,3.72a.69.69,0,0,0,.57.13l7-1.68c.19-.06.3-.2.24-.33s-2-4.07.77-5.69,9.86-.43,9.86-.43a.67.67,0,0,0,.55-.14l2.92-4.06a.22.22,0,0,0,0-.11v-5.12l-4.83-1.69a23.07,23.07,0,0,1,4.6-2.08c.15-.05.25-.16.24-.26v-5.16l-11.5-1.91-2.6-3.49v-5.1L150.87,309l-7.6,0-10.33-2.78v5.15a.11.11,0,0,0,0,.08,7.58,7.58,0,0,1,.45,1.21l-14.61,4v5.24A.65.65,0,0,0,119.06,322.06Zm16.88,1.78a7.77,7.77,0,0,1,3.31-3.31c5-2.88,13.07-2.88,18.05,0a7.77,7.77,0,0,1,3.31,3.31,7.77,7.77,0,0,1-3.31,3.31c-5,2.88-13.07,2.88-18.05,0A7.77,7.77,0,0,1,135.94,323.84Z"/><path class="cls-5" d="M163.64,336.34a.11.11,0,0,0,0-.08s-2-4.08.77-5.69a10.27,10.27,0,0,1,4.76-.86,34.88,34.88,0,0,1,5.1.42h.12a.6.6,0,0,0,.43-.15l2.92-4.06s0,0,0-.06v1.05l-2.46,3.41,0,0a1.14,1.14,0,0,1-.88.36l-.22,0a36.28,36.28,0,0,0-5-.4,9.62,9.62,0,0,0-4.47.77c-2.09,1.21-.81,4.29-.57,4.83A2.43,2.43,0,0,0,163.64,336.34Z"/><path class="cls-5" d="M118.79,325.8a.29.29,0,0,0,0,.09l2.9,4.06a.59.59,0,0,0,.44.16h.12a35.2,35.2,0,0,1,5.07-.41,10.41,10.41,0,0,1,4.79.85c2.82,1.64.79,5.71.79,5.71s.05.27.24.33l7,1.68h.14a.67.67,0,0,0,.43-.14s3.56-3.71,7.51-3.71,7.51,3.71,7.51,3.71a.62.62,0,0,0,.43.14h.14l7-1.68.1,0a2.57,2.57,0,0,0-.38.71l-6.62,1.58-.27,0a1.19,1.19,0,0,1-.86-.32s-3.43-3.53-7.08-3.53-7.05,3.49-7.08,3.53a1.23,1.23,0,0,1-.86.32l-.25,0L133,337.15l-.13,0v-.78a2.8,2.8,0,0,0-.47-.43c.24-.54,1.52-3.62-.57-4.83a9.74,9.74,0,0,0-4.52-.79,35.56,35.56,0,0,0-5,.4l-.22,0a1.21,1.21,0,0,1-.89-.36l0,0-2.44-3.42Z"/><path class="cls-5" d="M118.82,316.65c0,.1.09.2.24.24,0,0,6.43,2.06,6.42,4.34a3.63,3.63,0,0,1-1.86,2.9l-.56-.34a3.2,3.2,0,0,0,1.83-2.56c0-.32-.28-1.2-2.88-2.49a24.48,24.48,0,0,0-3.13-1.28l-.09,0v-.78Z"/><path class="cls-5" d="M177.75,316.68v.79l-.06,0a24.11,24.11,0,0,0-3.15,1.28c-2.6,1.29-2.88,2.17-2.88,2.49s.25,1.08,2.42,2.25c-.21.1-.42.22-.62.33-1.29-.74-2.39-1.64-2.39-2.59,0-2.28,6.44-4.33,6.44-4.33.15-.05.24-.15.24-.25Z"/><path class="cls-5" d="M133,306.25s1.61,3.23,0,5.08V310.1a4.35,4.35,0,0,0,0-2.06v-1.86A.2.2,0,0,0,133,306.25Z"/><path class="cls-5" d="M163.65,310.09v1.19l.21.27c-1.88-1.73-.33-5-.21-5.27v1.86A4.15,4.15,0,0,0,163.65,310.09Z"/><path class="cls-5" d="M139.55,316.22a19.26,19.26,0,0,1,17.45,0c3.23,1.86,4.29,4.5,3.19,6.88a5.23,5.23,0,0,0-.41-.55,3.64,3.64,0,0,0,.24-1.29c0-1.69-1.18-3.29-3.32-4.53a18.75,18.75,0,0,0-16.85,0c-2.14,1.24-3.32,2.84-3.32,4.53a3.64,3.64,0,0,0,.24,1.29,5.23,5.23,0,0,0-.41.55C135.26,320.72,136.33,318.08,139.55,316.22Z"/><path class="cls-23" d="M133.16,336.58l7,1.68a.69.69,0,0,0,.57-.13s3.56-3.71,7.51-3.71,7.51,3.71,7.51,3.71a.69.69,0,0,0,.57.13l7-1.68c.19-.06.3-.2.24-.32s-2-4.08.77-5.69,9.86-.44,9.86-.44a.67.67,0,0,0,.55-.14l2.92-4.06c.07-.12,0-.27-.22-.33,0,0-6.43-2.05-6.43-4.34s6.44-4.33,6.44-4.33c.19-.06.29-.21.22-.33l-2.91-4.06a.67.67,0,0,0-.55-.14s-7.07,1.17-9.86-.44-.75-5.69-.75-5.69,0-.27-.25-.33l-7-1.68a.48.48,0,0,0-.5.15,7,7,0,0,1-2.09,2.37,11.23,11.23,0,0,1-5.5,1.32c-4,0-7.5-3.72-7.5-3.72a.69.69,0,0,0-.57-.13l-7,1.67c-.2.06-.31.2-.25.33s2,4.07-.77,5.69-9.86.43-9.86.43a.67.67,0,0,0-.56.14l-2.92,4.06c-.07.12,0,.26.22.32,0,0,6.43,2.06,6.42,4.34a3.88,3.88,0,0,1-2.27,3.17,18.47,18.47,0,0,1-4.14,1.21c-.21,0-.32.16-.26.28l2.9,4.06a.67.67,0,0,0,.56.15s7.07-1.17,9.86.44.79,5.71.79,5.71S133,336.52,133.16,336.58Zm6.39-10.29c-4.81-2.78-4.81-7.29,0-10.07s12.63-2.78,17.45,0,4.82,7.29,0,10.07S144.37,329.07,139.55,326.29Z"/><path class="cls-10" d="M139.1,227.51c4.59,2.65,12.05,2.64,16.67,0s4.64-7,0-9.62-12-2.64-16.67,0S134.51,224.86,139.1,227.51Z"/><path class="cls-6" d="M146.23,225.75a1.83,1.83,0,0,1-.15,2c-.76.93-6.6-1.05-7.81-3.62s4.54-.92,5.88,0A12.52,12.52,0,0,1,146.23,225.75Z"/><path class="cls-6" d="M154,221.12a1.81,1.81,0,0,1-.15,2c-.76.94-6.6-1-7.81-3.61s4.53-.93,5.88,0A11.93,11.93,0,0,1,154,221.12Z"/><path class="cls-6" d="M141.73,193.2l.07,18.6s.8,12.29.8,13.11c0,1.87,3.1,2.1,3.21,1.31s1-15.86,1-15.86l1.53-12.12.61,9.63s1.51,10.18,1.59,11.64,3.08,2.54,3.08,1.3.91-30.21.91-30.21Z"/><path class="cls-79" d="M142.59,172s8.27-4.34,10.37-3.28,2,2.42,2.17,7.76-.6,14.46-.6,14.46-4.27,3.26-8,3.26-4.8-1-4.8-1S139.43,173.52,142.59,172Z"/><path class="cls-17" d="M133,181.39a7,7,0,0,1-1.66-2.68c-.78-2-.85-2.77-.19-3.68s1.4-.28,1.7.54a3.92,3.92,0,0,0,.44,1s0-.68.38-.63.35.12.48,1.53.13,2.19.13,2.19Z"/><path class="cls-80" d="M137.85,186.72s-4.13-3.4-5.64-6.21c-.24-.45,1-2.16,2.14-2.14.4.32,6.14,5.94,6.14,5.94S139.88,187.85,137.85,186.72Z"/><path class="cls-81" d="M143.72,178.68c.67-2.06,1.82-5.94.25-6.49s-3.32.69-4.55,4.86c-.67,2.27-1.86,5.41-2,7.38-.16,1.65.57,2.31,1.18,2.54C139.89,187.45,142.83,181.43,143.72,178.68Z"/><path class="cls-82" d="M150,165.21v3.94a3.21,3.21,0,0,1-3.49,1,9.26,9.26,0,0,1-.22-4.14C146.55,165,150,165.21,150,165.21Z"/><path class="cls-23" d="M142.65,161.84s-.67,6.45,2.89,7.08,5.29-2.33,5.41-5.53C151.31,159.32,143.8,155.44,142.65,161.84Z"/><path class="cls-6" d="M145.42,166.54s1.61,2.11,3.45,2.11,2.72-4.45,2.72-5.72a4.9,4.9,0,0,0-5.83-4.73c-4.61.72-4.5,2.61-3.39,3.89S145.87,164.26,145.42,166.54Z"/><path class="cls-83" d="M144.58,164.71s.62-1.65,1.26-.61a1.9,1.9,0,0,1-.63,2.4C144.71,167,143.86,165.85,144.58,164.71Z"/></svg>