<svg id="Layer_1" data-name="Layer 1" xmlns="http://www.w3.org/2000/svg" xmlns:xlink="http://www.w3.org/1999/xlink" viewBox="0 0 1437.22 624.04"><defs><style>.cls-1{fill:url(#linear-gradient);}.cls-2,.cls-5{fill:#0b1f6e;}.cls-3,.cls-4{fill:#fff;}.cls-4{font-size:48px;font-family:Roboto-Bold, Roboto;font-weight:700;}.cls-5{font-size:20px;font-family:Roboto-Regular, Roboto;}.cls-6{letter-spacing:-0.02em;}.cls-7{letter-spacing:-0.01em;}.cls-8{letter-spacing:0.01em;}.cls-9{letter-spacing:-0.01em;}.cls-10{letter-spacing:-0.01em;}.cls-11,.cls-12{fill:none;stroke-miterlimit:10;}.cls-11{stroke:#0b1f6e;stroke-width:2px;}.cls-12{stroke:#1e4395;stroke-width:3px;}.cls-13{fill:#05416f;}.cls-14{fill:#1e4395;}</style><linearGradient id="linear-gradient" x1="463.63" y1="260.6" x2="924.18" y2="260.6" gradientUnits="userSpaceOnUse"><stop offset="0" stop-color="#c2ceff"/><stop offset="1" stop-color="#95aaff"/></linearGradient></defs><title>Order Management</title><circle class="cls-1" cx="693.91" cy="260.6" r="230.28"/><circle class="cls-2" cx="693.91" cy="260.6" r="203.5"/><circle class="cls-2" cx="78.51" cy="60.29" r="45.89"/><path class="cls-3" d="M79.41,85.29c3.83-.54,7.19-4.54,9.3-10.45a45.44,45.44,0,0,0-9.3-1.09Z"/><path class="cls-3" d="M85.53,84.35l.67-.2.57-.19.65-.24L88,83.5l.64-.27.55-.25.61-.3.54-.28.6-.33.53-.31L92,81.4l.52-.33.56-.39.49-.36.55-.43.47-.38.52-.46c.16-.13.31-.27.46-.41s.34-.32.5-.48l.43-.43.08-.09a30,30,0,0,0-6.13-2.36,22.22,22.22,0,0,1-5.73,9.29l.22,0Z"/><path class="cls-3" d="M103.56,61.19H92.83A46.27,46.27,0,0,1,91,73.57a31.36,31.36,0,0,1,6.79,2.71A24.93,24.93,0,0,0,103.56,61.19Z"/><path class="cls-3" d="M79.41,59.4H91a44.7,44.7,0,0,0-1.77-11.95,47.37,47.37,0,0,1-9.86,1.18Z"/><path class="cls-3" d="M79.41,35.29V46.84a46.15,46.15,0,0,0,9.3-1.1C86.6,39.83,83.24,35.84,79.41,35.29Z"/><path class="cls-3" d="M79.41,72a47.36,47.36,0,0,1,9.86,1.17A44.69,44.69,0,0,0,91,61.19H79.41Z"/><path class="cls-3" d="M97.81,44.3A30.86,30.86,0,0,1,91,47,46.35,46.35,0,0,1,92.83,59.4h10.73A25,25,0,0,0,97.81,44.3Z"/><path class="cls-3" d="M96.6,43l-.07-.09-.43-.43c-.17-.16-.34-.33-.51-.48l-.45-.41-.53-.46-.47-.38-.55-.43-.49-.36-.56-.39q-.26-.18-.51-.33l-.58-.37-.53-.3-.6-.34-.54-.27-.62-.31-.55-.25L88,37.09l-.55-.23-.66-.23-.56-.19-.68-.21L85,36.07l-.22,0a22.1,22.1,0,0,1,5.72,9.29A29.85,29.85,0,0,0,96.6,43Z"/><path class="cls-3" d="M53.46,59.4H64.2A46.35,46.35,0,0,1,66,47a30.74,30.74,0,0,1-6.8-2.71A25.09,25.09,0,0,0,53.46,59.4Z"/><path class="cls-3" d="M77.62,85.29V73.75a45.61,45.61,0,0,0-9.31,1.09C70.43,80.75,73.79,84.75,77.62,85.29Z"/><path class="cls-3" d="M77.62,61.19H66a44.68,44.68,0,0,0,1.76,11.94A47.54,47.54,0,0,1,77.62,72Z"/><path class="cls-3" d="M77.62,35.29c-3.83.55-7.19,4.54-9.31,10.45a46.34,46.34,0,0,0,9.31,1.1Z"/><path class="cls-3" d="M77.62,48.63a47.55,47.55,0,0,1-9.87-1.18A44.69,44.69,0,0,0,66,59.4H77.62Z"/><path class="cls-3" d="M72.28,36l-.22,0-.57.16-.67.2-.56.2-.66.23-.56.23-.63.26-.55.25-.62.3-.54.28c-.2.11-.4.22-.59.34l-.53.3-.58.36-.51.34c-.19.12-.38.26-.56.39l-.5.36-.54.42-.48.39-.52.45-.45.41-.51.49-.43.43-.08.08a30.07,30.07,0,0,0,6.14,2.36A22.13,22.13,0,0,1,72.28,36Z"/><path class="cls-3" d="M60.93,78.15l.5.49.46.4.52.46.47.38.55.43.49.36.57.4.5.33c.2.12.39.25.59.36l.52.31.6.33.54.28.63.3.54.25.64.27.56.22.66.24.56.19.68.2.56.16.22.06a22.25,22.25,0,0,1-5.73-9.29,30,30,0,0,0-6.13,2.36l.07.08C60.64,77.87,60.78,78,60.93,78.15Z"/><path class="cls-3" d="M59.21,76.28A31.24,31.24,0,0,1,66,73.57,46.27,46.27,0,0,1,64.2,61.19H53.46A25.08,25.08,0,0,0,59.21,76.28Z"/><circle class="cls-2" cx="78.51" cy="182.92" r="45.89"/><path class="cls-3" d="M87,157.92H70.11a5.31,5.31,0,0,0-5.31,5.22v39.58a5.25,5.25,0,0,0,5.26,5.2l16.92,0a5.22,5.22,0,0,0,5.22-5.2l0-39.57A5.21,5.21,0,0,0,87,157.92Zm-10.88,3.13H81a.78.78,0,0,1,0,1.56h-4.9a.78.78,0,0,1,0-1.56Zm-3,.25a.81.81,0,0,1,1.11,0,.79.79,0,0,1,.23.55.81.81,0,0,1-.23.55.78.78,0,0,1-1.11,0,.8.8,0,0,1-.22-.55A.78.78,0,0,1,73.17,161.3Zm5.24,45.07A2.34,2.34,0,1,1,80.75,204,2.33,2.33,0,0,1,78.41,206.37Zm11.39-6.26H67.53V165.35H89.8v34.76Z"/><circle class="cls-2" cx="78.51" cy="550.82" r="45.89"/><path class="cls-3" d="M69.72,558.14H96.19a1.47,1.47,0,0,0,1.41-1.06l5.86-20.51a1.47,1.47,0,0,0-1.41-1.87H66.34l-1-4.71a1.46,1.46,0,0,0-1.43-1.15H55a1.47,1.47,0,1,0,0,2.93h7.71L68,555.58A4.39,4.39,0,0,0,69.72,564H96.19a1.47,1.47,0,0,0,0-2.93H69.72a1.47,1.47,0,0,1,0-2.93Z"/><path class="cls-3" d="M68.26,568.39A4.4,4.4,0,1,0,72.65,564,4.4,4.4,0,0,0,68.26,568.39Z"/><path class="cls-3" d="M88.86,568.39a4.4,4.4,0,1,0,4.4-4.39A4.41,4.41,0,0,0,88.86,568.39Z"/><circle class="cls-2" cx="78.51" cy="305.55" r="45.89"/><g id="Shop"><path class="cls-3" d="M75.84,280.73h5.34v7.12H75.84Z"/><path class="cls-3" d="M68.72,280.73h5.34v7.12H68.72Z"/><path class="cls-3" d="M61.6,280.73h5.34v7.12H61.6Z"/><path class="cls-3" d="M83,280.73h5.35v7.12H83Z"/><path class="cls-3" d="M65,318.92l-6.93,6.93a2.67,2.67,0,0,0,0,3.77h0a2.72,2.72,0,0,0,3.77,0l6.93-6.92ZM60,329l-1.26-1.25L62.51,324l1.26,1.26Zm3.77-6.29L65,321.44l1.26,1.26L65,324Z"/><path class="cls-3" d="M77.62,316.34a6.23,6.23,0,1,0-6.23-6.23A6.24,6.24,0,0,0,77.62,316.34Zm0-10.68v1.78A2.67,2.67,0,0,0,75,310.11H73.17A4.45,4.45,0,0,1,77.62,305.66Z"/><path class="cls-3" d="M59.82,280.73H58.3a2.65,2.65,0,0,0-2.6,2.15l-1.2,5h5.32Z"/><path class="cls-3" d="M77.62,319.9a9.79,9.79,0,1,0-9.79-9.79A9.79,9.79,0,0,0,77.62,319.9Zm0-17.8a8,8,0,1,1-8,8A8,8,0,0,1,77.62,302.1Z"/><path class="cls-3" d="M96.33,295a4.36,4.36,0,0,1-2.66,1.68,4.48,4.48,0,0,1-3.73-.92,4.09,4.09,0,0,1-.73-.77,5.75,5.75,0,0,1-.76.8,4.53,4.53,0,0,1-2.82,1,4.7,4.7,0,0,1-.92-.09A4.32,4.32,0,0,1,82.07,295a5,5,0,0,1-.74.78,4.5,4.5,0,0,1-3.74.9A4.37,4.37,0,0,1,74.94,295a4.2,4.2,0,0,1-.74.78,4.47,4.47,0,0,1-3.73.9A4.3,4.3,0,0,1,67.83,295a4.39,4.39,0,0,1-2.64,1.66,4.5,4.5,0,0,1-3.74-.92,4.2,4.2,0,0,1-.74-.78,4.49,4.49,0,0,1-3.56,1.79v27.53L64.4,317a.91.91,0,0,1,1.26,0l.63.62,1.5-1.49a11.41,11.41,0,0,1-1.74-6.06A11.61,11.61,0,1,1,71.56,320l-1.49,1.49.63.63a.92.92,0,0,1,.26.63.94.94,0,0,1-.26.63l-1.92,1.91h31.1V296.76h0A4.44,4.44,0,0,1,96.33,295Zm-33.84,5.33H60.71v1.78H58.93v-2.67a.89.89,0,0,1,.89-.89h2.67Zm3.56,0H64.27v-1.78h1.78Zm26.71,23.14H91v-1.78h1.78Zm0-7.12H91v-1.78h1.78Zm0-3.56H91V311h1.78Zm0-3.56H91v-1.78h1.78Zm0-3.56H91v-1.78h1.78Zm0-3.56H91v-1.78h1.78Zm5.34,20.47a.89.89,0,0,1-.89.89H94.54v-1.78h1.78V319.9H98.1Zm0-6.23H94.54v-1.78H98.1Zm0-3.56H94.54V311H98.1Zm0-3.56H94.54v-1.78H98.1Zm0-3.56H94.54v-1.78H98.1Zm0-3.56H94.54v-1.78H98.1Z"/><path class="cls-3" d="M103,289.63H54.08l-.52,2.18a2.67,2.67,0,0,0,2.12,3.12,2.63,2.63,0,0,0,.49,0h1a2.68,2.68,0,0,0,2.67-2.67.89.89,0,0,1,1.78,0,2.68,2.68,0,0,0,3.24,2.62,2.62,2.62,0,0,0,2.1-2.62.89.89,0,0,1,1.78,0,2.65,2.65,0,0,0,2.1,2.64A2.68,2.68,0,0,0,74,292.88a2.78,2.78,0,0,0,.06-.58.89.89,0,0,1,1.78,0,2.65,2.65,0,0,0,2.1,2.64,2.69,2.69,0,0,0,3.19-2.06,2.24,2.24,0,0,0,.05-.58.89.89,0,0,1,1.78,0,2.65,2.65,0,0,0,2.11,2.64,2.69,2.69,0,0,0,3.18-2.06,2.78,2.78,0,0,0,.06-.58.89.89,0,0,1,1.78,0,2.68,2.68,0,0,0,3.24,2.62,2.62,2.62,0,0,0,2.1-2.62.89.89,0,0,1,1.78,0A2.65,2.65,0,0,0,99.86,295h1a2.64,2.64,0,0,0,2.65-2.66,3.07,3.07,0,0,0-.05-.53Z"/><path class="cls-3" d="M68.81,320.19l1.29-1.3a11.44,11.44,0,0,1-1.25-1.26l-1.3,1.29Z"/><path class="cls-3" d="M101.34,282.91a2.67,2.67,0,0,0-2.61-2.18H97.21v7.12h5.31Z"/><path class="cls-3" d="M90.09,280.73h5.34v7.12H90.09Z"/></g><circle class="cls-2" cx="78.51" cy="428.19" r="45.89"/><path class="cls-3" d="M78.51,407.48a10.74,10.74,0,0,0-10.73,10.73v5.22a10.73,10.73,0,0,0,20.21,5,11.5,11.5,0,0,1-4.21.8H80.66a1.61,1.61,0,1,1,0-3.22h3.12a8.36,8.36,0,0,0,5.45-2c0-.19,0-.39,0-.58v-5.22A10.75,10.75,0,0,0,78.51,407.48Z"/><path class="cls-3" d="M93.63,416.52h-.19a15,15,0,0,0-29.86,0h-.19a4.26,4.26,0,0,0,0,8.51H65.1a1.61,1.61,0,0,0,1.61-1.6v-5.22a11.81,11.81,0,1,1,23.61,0v4.68A8.24,8.24,0,0,1,89.23,424,10.59,10.59,0,0,1,88,428.45,11.54,11.54,0,0,0,92.72,425h.91a4.26,4.26,0,1,0,0-8.51Z"/><path class="cls-3" d="M103.11,451.08l-4.83-15a1.54,1.54,0,0,0-.75-.91l-7.39-4.08a14,14,0,0,1-10,6.15v15.91h21.46A1.62,1.62,0,0,0,103.11,451.08Z"/><path class="cls-3" d="M66.89,431.13l-7.39,4.08a1.59,1.59,0,0,0-.76.91l-4.82,15a1.61,1.61,0,0,0,1.53,2.11H76.9V437.28A14,14,0,0,1,66.89,431.13Z"/><path class="cls-2" d="M1332.54,173.09A10.15,10.15,0,0,0,1342.6,163v-7.37h-20.14V163A10.15,10.15,0,0,0,1332.54,173.09Z"/><path class="cls-2" d="M1287,175.66a13,13,0,0,1-2.92-.36v26.62a3,3,0,0,0,3,3.05h45.17a3.06,3.06,0,0,0,3-3.05V175.33a13.13,13.13,0,0,1-2.79.33,12.77,12.77,0,0,1-11.43-7.29,12.58,12.58,0,0,1-22.77.13,12.73,12.73,0,0,1-11.35,7.16Z"/><path class="cls-2" d="M1345.17,161.16a7.21,7.21,0,0,0,7.25,7.17h.11a7.21,7.21,0,0,0,7.17-7.26v-5.43h-14.53Z"/><path class="cls-2" d="M1358.68,153.08l-8.65-14a3,3,0,0,0-2.54-1.42h-11l8.16,15.4Z"/><path class="cls-2" d="M1350.92,219.86V170.79a9.8,9.8,0,0,1-6.4-3.86,12.79,12.79,0,0,1-6.63,7.5v27.49a5.61,5.61,0,0,1-5.61,5.61h-45.17a5.62,5.62,0,0,1-5.61-5.61V174.37a12.84,12.84,0,0,1-6.55-7.55,9.73,9.73,0,0,1-6.48,4v49.08a3,3,0,0,0,3,3h76.36a3,3,0,0,0,3-3Z"/><path class="cls-2" d="M1266.91,168.33h.15a7.22,7.22,0,0,0,7.17-7.26v-5.43H1259.7v5.52A7.2,7.2,0,0,0,1266.91,168.33Z"/><path class="cls-2" d="M1276.91,163a10.08,10.08,0,1,0,20.15.09v-7.47h-20.15Z"/><path class="cls-2" d="M1341.75,153.08l-8.16-15.4h-16.41l4.81,15.4Z"/><path class="cls-2" d="M1284.65,137.68h-10.77a3,3,0,0,0-2.41,1.21L1261,153.08h13.85Z"/><path class="cls-2" d="M1297.4,153.08l4.81-15.4h-14.52l-9.84,15.4Z"/><path class="cls-2" d="M1319.31,153.08l-4.82-15.4h-9.59l-4.81,15.4Z"/><path class="cls-2" d="M1309.7,173.09A10.15,10.15,0,0,0,1319.77,163v-7.37h-20.15V163a10.16,10.16,0,0,0,10.08,10.07Z"/><path class="cls-2" d="M1343.83,306.17a7.75,7.75,0,0,0-6.87-4.11h-10.91v14.59a3,3,0,0,0,3,2.94H1351Z"/><circle class="cls-2" cx="1280.75" cy="355.3" r="9.33"/><path class="cls-2" d="M1333.51,346a9.34,9.34,0,1,0,9.33,9.34h0A9.34,9.34,0,0,0,1333.51,346Z"/><path class="cls-2" d="M1358,329.53l-4.82-6.14H1329.1a6.83,6.83,0,0,1-6.84-6.74V298.7a2.75,2.75,0,0,0-2.69-2.8h-56.85a2.89,2.89,0,0,0-3,2.8v51.88a3,3,0,0,0,3,2.9h5a13.12,13.12,0,0,1,26,0h26.76a13.12,13.12,0,0,1,26,0h10.17a3,3,0,0,0,3-2.9V334.33A7.9,7.9,0,0,0,1358,329.53Z"/><rect class="cls-2" x="1265.48" y="501.07" width="45.18" height="4.21"/><rect class="cls-2" x="1311.3" y="501.07" width="45.18" height="4.21"/><rect class="cls-2" x="1290.41" y="474.12" width="33.58" height="23.01"/><rect class="cls-2" x="1285.64" y="469.91" width="45.18" height="4.21"/><rect class="cls-2" x="1270.25" y="505.28" width="33.58" height="23.01"/><rect class="cls-2" x="1316.08" y="505.28" width="33.58" height="23.01"/><rect class="cls-2" x="1259.7" y="528.09" width="100" height="2.47"/><rect class="cls-2" x="1290.41" y="4.21" width="33.58" height="23.01"/><rect class="cls-2" x="1285.64" width="45.18" height="4.21"/><rect class="cls-2" x="1270.25" y="35.37" width="33.58" height="23.01"/><rect class="cls-2" x="1316.08" y="35.37" width="33.58" height="23.01"/><rect class="cls-2" x="1259.7" y="58.18" width="100" height="2.47"/><text class="cls-4" transform="translate(616.27 245.83)">ORDER<tspan x="-86.26" y="57.6">MANAGEMENT</tspan></text><text class="cls-5" transform="translate(58.86 125.21)"><tspan class="cls-6">W</tspan><tspan x="17.36" y="0">eb</tspan></text><text class="cls-5" transform="translate(48.03 248.58)">Mobile</text><text class="cls-5" transform="translate(14.34 371.79)">Sto<tspan class="cls-7" x="30.75" y="0">r</tspan><tspan x="37.42" y="0">e Network</tspan></text><text class="cls-5" transform="translate(1245.52 248.79)">Sto<tspan class="cls-7" x="30.75" y="0">r</tspan><tspan x="37.42" y="0">e Network</tspan></text><text class="cls-5" transform="translate(0 493.71)">Customer Se<tspan class="cls-8" x="115.7" y="0">r</tspan><tspan x="122.73" y="0">vice</tspan></text><text class="cls-5" transform="translate(22.73 618.62)">Mar<tspan class="cls-9" x="35.42" y="0">k</tspan><tspan x="45.48" y="0">etplace</tspan></text><text class="cls-5" transform="translate(1182.19 88.82)">External <tspan class="cls-10" x="78.47" y="0">F</tspan><tspan x="89.9" y="0">ulfillment Network</tspan></text><text class="cls-5" transform="translate(1184.55 558.73)">Internal <tspan class="cls-10" x="73.74" y="0">F</tspan><tspan x="85.18" y="0">ulfillment Network</tspan></text><text class="cls-5" transform="translate(1229.12 398.76)">D<tspan class="cls-9" x="13.17" y="0">r</tspan><tspan x="19.83" y="0">opship Network</tspan></text><line class="cls-11" x1="432.53" y1="311.89" x2="163.45" y2="311.89"/><polyline class="cls-11" points="163.45 64.9 245.6 64.9 385.48 312.78"/><polyline class="cls-11" points="163.45 560.1 245.6 560.1 385.48 312.22"/><polyline class="cls-12" points="1222.53 530.1 1140.38 530.1 1000.5 282.22"/><polyline class="cls-12" points="1222.53 34.9 1140.38 34.9 1000.5 282.78"/><line class="cls-11" x1="163.45" y1="178.73" x2="310" y2="178.73"/><line class="cls-11" x1="163.45" y1="418.73" x2="325.38" y2="418.73"/><line class="cls-12" x1="1055.77" y1="184.2" x2="1216.53" y2="184.2"/><line class="cls-12" x1="1046.21" y1="363.65" x2="1219.53" y2="363.65"/><polygon class="cls-13" points="432.54 298.18 449.93 313.74 432.54 325.65 432.54 298.18"/><polygon class="cls-14" points="957.65 295.95 940.25 280.39 957.65 268.48 957.65 295.95"/><line class="cls-12" x1="1000.5" y1="282.78" x2="953.75" y2="282.78"/></svg>