<?xml version="1.0" encoding="utf-8"?>
<!-- Generator: Adobe Illustrator 23.0.2, SVG Export Plug-In . SVG Version: 6.00 Build 0)  -->
<svg version="1.0" id="Layer_1" xmlns="http://www.w3.org/2000/svg" xmlns:xlink="http://www.w3.org/1999/xlink" x="0px" y="0px"
	 width="512px" height="218.52px" viewBox="0 0 512 218.52" style="enable-background:new 0 0 512 218.52;" xml:space="preserve">
<style type="text/css">
	.st0{opacity:0.7;fill:#CCD7E5;}
	.st1{fill:url(#SVGID_1_);}
	.st2{fill:url(#SVGID_2_);}
	.st3{fill:#CCD7E5;}
	.st4{fill:url(#SVGID_3_);}
	.st5{fill:url(#SVGID_4_);}
	.st6{fill:url(#SVGID_5_);}
	.st7{fill:url(#SVGID_6_);}
	.st8{fill:url(#SVGID_7_);}
	.st9{fill:url(#SVGID_8_);}
	.st10{fill:url(#SVGID_9_);}
	.st11{fill:url(#SVGID_10_);}
	.st12{fill:url(#SVGID_11_);}
	.st13{fill:url(#SVGID_12_);}
	.st14{fill:url(#SVGID_13_);}
	.st15{fill:url(#SVGID_14_);}
	.st16{fill:url(#SVGID_15_);}
	.st17{fill:url(#SVGID_16_);}
	.st18{fill:url(#SVGID_17_);}
	.st19{fill:url(#SVGID_18_);}
	.st20{fill:url(#SVGID_19_);}
	.st21{fill:url(#SVGID_20_);}
	.st22{fill:url(#SVGID_21_);}
	.st23{fill:url(#SVGID_22_);}
	.st24{fill:url(#SVGID_23_);}
	.st25{fill:url(#SVGID_24_);}
	.st26{fill:url(#SVGID_25_);}
	.st27{fill:url(#SVGID_26_);}
	.st28{fill:url(#SVGID_27_);}
	.st29{fill:url(#SVGID_28_);}
	.st30{fill:url(#SVGID_29_);}
	.st31{fill:url(#SVGID_30_);}
	.st32{fill:url(#SVGID_31_);}
	.st33{fill:url(#SVGID_32_);}
	.st34{fill:url(#SVGID_33_);}
	.st35{fill:url(#SVGID_34_);}
	.st36{fill:#FFFFFF;}
	.st37{font-family:'Roboto-Bold';}
	.st38{font-size:17.0329px;}
	.st39{font-family:'Roboto-Regular';}
	.st40{font-size:7.0971px;}
	.st41{fill:none;stroke:#13426F;stroke-width:5;stroke-miterlimit:10;}
	.st42{fill:#13426F;}
	.st43{fill:#1F4694;}
</style>
<circle class="st0" cx="247.04" cy="95.38" r="81.71"/>
<linearGradient id="SVGID_1_" gradientUnits="userSpaceOnUse" x1="174.8217" y1="95.3837" x2="319.2488" y2="95.3837">
	<stop  offset="0" style="stop-color:#01629D"/>
	<stop  offset="1" style="stop-color:#3185C6"/>
</linearGradient>
<circle class="st1" cx="247.04" cy="95.38" r="72.21"/>
<g>
	<linearGradient id="SVGID_2_" gradientUnits="userSpaceOnUse" x1="12.3786" y1="24.3025" x2="44.9437" y2="24.3025">
		<stop  offset="0" style="stop-color:#01629D"/>
		<stop  offset="1" style="stop-color:#3185C6"/>
	</linearGradient>
	<circle class="st2" cx="28.66" cy="24.3" r="16.28"/>
	<g>
		<path class="st3" d="M28.98,33.17c1.36-0.19,2.55-1.61,3.3-3.71c-1.08-0.24-2.19-0.37-3.3-0.39V33.17z"/>
		<path class="st3" d="M31.15,32.84c0.08-0.02,0.16-0.05,0.24-0.07c0.07-0.02,0.13-0.04,0.2-0.07c0.08-0.03,0.16-0.05,0.23-0.08
			c0.07-0.03,0.13-0.05,0.2-0.08c0.08-0.03,0.15-0.06,0.23-0.1c0.07-0.03,0.13-0.06,0.2-0.09c0.07-0.03,0.15-0.07,0.22-0.11
			c0.06-0.03,0.13-0.07,0.19-0.1c0.07-0.04,0.14-0.08,0.21-0.12c0.06-0.04,0.12-0.07,0.19-0.11c0.07-0.04,0.14-0.08,0.21-0.13
			c0.06-0.04,0.12-0.08,0.18-0.12c0.07-0.05,0.13-0.09,0.2-0.14c0.06-0.04,0.12-0.08,0.18-0.13c0.06-0.05,0.13-0.1,0.19-0.15
			c0.06-0.05,0.11-0.09,0.17-0.14c0.06-0.05,0.12-0.11,0.19-0.16c0.05-0.05,0.11-0.1,0.16-0.14c0.06-0.06,0.12-0.12,0.18-0.17
			c0.05-0.05,0.1-0.1,0.15-0.15c0.01-0.01,0.02-0.02,0.03-0.03c-0.69-0.36-1.42-0.64-2.18-0.84c-0.39,1.25-1.09,2.38-2.03,3.3
			c0.03-0.01,0.05-0.01,0.08-0.02C31.02,32.88,31.08,32.86,31.15,32.84z"/>
		<path class="st3" d="M37.55,24.62h-3.81c-0.01,1.49-0.23,2.97-0.64,4.4c0.84,0.22,1.65,0.55,2.41,0.96
			C36.76,28.47,37.48,26.58,37.55,24.62z"/>
		<path class="st3" d="M28.98,23.98h4.13c-0.02-1.43-0.23-2.86-0.63-4.24c-1.15,0.26-2.32,0.4-3.5,0.42V23.98z"/>
		<path class="st3" d="M28.98,15.43v4.1c1.11-0.02,2.22-0.15,3.3-0.39C31.53,17.04,30.34,15.62,28.98,15.43z"/>
		<path class="st3" d="M28.98,28.44c1.18,0.02,2.35,0.16,3.5,0.42c0.4-1.38,0.61-2.8,0.63-4.24h-4.13V28.44z"/>
		<path class="st3" d="M35.51,18.63c-0.76,0.41-1.57,0.74-2.41,0.96c0.41,1.43,0.63,2.91,0.64,4.4h3.81
			C37.48,22.02,36.76,20.14,35.51,18.63z"/>
		<path class="st3" d="M35.08,18.15c-0.01-0.01-0.02-0.02-0.03-0.03c-0.05-0.05-0.1-0.1-0.15-0.15c-0.06-0.06-0.12-0.12-0.18-0.17
			c-0.05-0.05-0.11-0.1-0.16-0.14c-0.06-0.05-0.12-0.11-0.19-0.16c-0.05-0.05-0.11-0.09-0.17-0.14c-0.06-0.05-0.13-0.1-0.19-0.15
			c-0.06-0.04-0.12-0.09-0.17-0.13c-0.07-0.05-0.13-0.1-0.2-0.14c-0.06-0.04-0.12-0.08-0.18-0.12c-0.07-0.04-0.14-0.09-0.21-0.13
			c-0.06-0.04-0.12-0.07-0.19-0.11c-0.07-0.04-0.14-0.08-0.21-0.12c-0.06-0.03-0.13-0.07-0.19-0.1c-0.07-0.04-0.15-0.07-0.22-0.11
			c-0.06-0.03-0.13-0.06-0.19-0.09c-0.08-0.03-0.15-0.06-0.23-0.1c-0.07-0.03-0.13-0.05-0.2-0.08c-0.08-0.03-0.16-0.06-0.23-0.08
			c-0.07-0.02-0.13-0.05-0.2-0.07c-0.08-0.03-0.16-0.05-0.24-0.07c-0.07-0.02-0.13-0.04-0.2-0.06c-0.03-0.01-0.05-0.01-0.08-0.02
			c0.94,0.91,1.64,2.05,2.03,3.3C33.66,18.79,34.39,18.51,35.08,18.15z"/>
		<path class="st3" d="M19.77,23.98h3.81c0.01-1.49,0.23-2.97,0.64-4.4c-0.84-0.22-1.65-0.55-2.41-0.96
			C20.56,20.14,19.84,22.02,19.77,23.98z"/>
		<path class="st3" d="M28.34,33.17v-4.1c-1.11,0.02-2.22,0.15-3.3,0.39C25.79,31.56,26.98,32.98,28.34,33.17z"/>
		<path class="st3" d="M28.34,24.62h-4.13c0.02,1.43,0.23,2.86,0.63,4.24c1.15-0.26,2.32-0.4,3.5-0.42V24.62z"/>
		<path class="st3" d="M28.34,15.43c-1.36,0.19-2.55,1.61-3.3,3.71c1.08,0.24,2.19,0.37,3.3,0.39V15.43z"/>
		<path class="st3" d="M28.34,20.16c-1.18-0.02-2.35-0.16-3.5-0.42c-0.4,1.38-0.61,2.8-0.63,4.24h4.13V20.16z"/>
		<path class="st3" d="M26.45,15.69c-0.03,0.01-0.05,0.01-0.08,0.02c-0.07,0.02-0.13,0.04-0.2,0.06c-0.08,0.02-0.16,0.05-0.24,0.07
			c-0.07,0.02-0.13,0.05-0.2,0.07c-0.08,0.03-0.16,0.05-0.23,0.08c-0.07,0.03-0.13,0.05-0.2,0.08c-0.08,0.03-0.15,0.06-0.23,0.1
			c-0.07,0.03-0.13,0.06-0.2,0.09c-0.07,0.03-0.15,0.07-0.22,0.11c-0.06,0.03-0.13,0.07-0.19,0.1c-0.07,0.04-0.14,0.08-0.21,0.12
			c-0.06,0.04-0.13,0.07-0.19,0.11c-0.07,0.04-0.14,0.08-0.21,0.13c-0.06,0.04-0.12,0.08-0.18,0.12c-0.07,0.05-0.13,0.09-0.2,0.14
			c-0.06,0.04-0.12,0.08-0.18,0.13c-0.07,0.05-0.13,0.1-0.19,0.15c-0.06,0.05-0.11,0.09-0.17,0.14c-0.06,0.05-0.12,0.11-0.19,0.16
			c-0.05,0.05-0.11,0.1-0.16,0.15c-0.06,0.06-0.12,0.11-0.18,0.17c-0.05,0.05-0.1,0.1-0.15,0.15c-0.01,0.01-0.02,0.02-0.03,0.03
			c0.69,0.36,1.42,0.64,2.18,0.84C24.81,17.73,25.51,16.6,26.45,15.69z"/>
		<path class="st3" d="M22.42,30.64c0.06,0.06,0.12,0.12,0.18,0.17c0.05,0.05,0.11,0.1,0.16,0.14c0.06,0.05,0.12,0.11,0.19,0.16
			c0.05,0.05,0.11,0.09,0.17,0.14c0.06,0.05,0.13,0.1,0.19,0.15c0.06,0.04,0.12,0.08,0.17,0.13c0.07,0.05,0.13,0.1,0.2,0.14
			c0.06,0.04,0.12,0.08,0.18,0.12c0.07,0.04,0.14,0.09,0.21,0.13c0.06,0.04,0.12,0.07,0.19,0.11c0.07,0.04,0.14,0.08,0.21,0.12
			c0.06,0.03,0.13,0.07,0.19,0.1c0.07,0.04,0.15,0.07,0.22,0.11c0.06,0.03,0.13,0.06,0.19,0.09c0.08,0.03,0.15,0.06,0.23,0.1
			c0.07,0.03,0.13,0.05,0.2,0.08c0.08,0.03,0.16,0.06,0.23,0.08c0.07,0.02,0.13,0.05,0.2,0.07c0.08,0.03,0.16,0.05,0.24,0.07
			c0.07,0.02,0.13,0.04,0.2,0.06c0.03,0.01,0.05,0.01,0.08,0.02c-0.94-0.91-1.64-2.05-2.03-3.3c-0.75,0.2-1.48,0.48-2.18,0.84
			c0.01,0.01,0.02,0.02,0.03,0.03C22.32,30.54,22.37,30.59,22.42,30.64z"/>
		<path class="st3" d="M21.81,29.98c0.76-0.41,1.57-0.74,2.41-0.96c-0.41-1.43-0.63-2.91-0.64-4.4h-3.81
			C19.84,26.58,20.56,28.46,21.81,29.98z"/>
	</g>
</g>
<g>
	<linearGradient id="SVGID_3_" gradientUnits="userSpaceOnUse" x1="12.3786" y1="67.8185" x2="44.9437" y2="67.8185">
		<stop  offset="0" style="stop-color:#01629D"/>
		<stop  offset="1" style="stop-color:#3185C6"/>
	</linearGradient>
	<circle class="st4" cx="28.66" cy="67.82" r="16.28"/>
	<g>
		<g>
			<path class="st3" d="M31.67,58.95h-5.99c-1.02,0-1.88,0.83-1.88,1.85v14.05c0,1.02,0.85,1.85,1.87,1.85l6-0.01
				c1.02,0,1.85-0.83,1.85-1.85l0.01-14.04C33.53,59.77,32.7,58.95,31.67,58.95z M27.81,60.06h1.74c0.15,0,0.28,0.12,0.28,0.28
				c0,0.15-0.12,0.28-0.28,0.28h-1.74c-0.15,0-0.28-0.12-0.28-0.28C27.53,60.18,27.66,60.06,27.81,60.06z M26.77,60.14
				c0.1-0.1,0.29-0.1,0.39,0c0.05,0.05,0.08,0.12,0.08,0.2c0,0.07-0.03,0.14-0.08,0.2c-0.05,0.05-0.12,0.08-0.2,0.08
				c-0.07,0-0.14-0.03-0.2-0.08c-0.05-0.05-0.08-0.12-0.08-0.2C26.69,60.27,26.72,60.2,26.77,60.14z M28.62,76.14
				c-0.46,0-0.83-0.37-0.83-0.83c0-0.46,0.37-0.83,0.83-0.83s0.83,0.37,0.83,0.83C29.45,75.77,29.08,76.14,28.62,76.14z
				 M32.67,73.92h-7.9V61.58h7.9L32.67,73.92L32.67,73.92z"/>
		</g>
	</g>
</g>
<g>
	<linearGradient id="SVGID_4_" gradientUnits="userSpaceOnUse" x1="12.3786" y1="198.3664" x2="44.9437" y2="198.3664">
		<stop  offset="0" style="stop-color:#01629D"/>
		<stop  offset="1" style="stop-color:#3185C6"/>
	</linearGradient>
	<circle class="st5" cx="28.66" cy="198.37" r="16.28"/>
	<g>
		<path class="st3" d="M25.54,200.97h9.39c0.23,0,0.44-0.15,0.5-0.38l2.08-7.28c0.04-0.16,0.01-0.33-0.08-0.46
			c-0.1-0.13-0.25-0.21-0.42-0.21H24.34l-0.37-1.67c-0.05-0.24-0.26-0.41-0.51-0.41h-3.15c-0.29,0-0.52,0.23-0.52,0.52
			c0,0.29,0.23,0.52,0.52,0.52h2.74l1.88,8.45c-0.55,0.24-0.94,0.79-0.94,1.43c0,0.86,0.7,1.56,1.56,1.56h9.39
			c0.29,0,0.52-0.23,0.52-0.52c0-0.29-0.23-0.52-0.52-0.52h-9.39c-0.29,0-0.52-0.23-0.52-0.52S25.26,200.97,25.54,200.97z"/>
		<path class="st3" d="M25.02,204.6c0,0.86,0.7,1.56,1.56,1.56c0.86,0,1.56-0.7,1.56-1.56c0-0.86-0.7-1.56-1.56-1.56
			C25.72,203.04,25.02,203.74,25.02,204.6z"/>
		<path class="st3" d="M32.33,204.6c0,0.86,0.7,1.56,1.56,1.56c0.86,0,1.56-0.7,1.56-1.56c0-0.86-0.7-1.56-1.56-1.56
			C33.03,203.04,32.33,203.74,32.33,204.6z"/>
	</g>
</g>
<g>
	<linearGradient id="SVGID_5_" gradientUnits="userSpaceOnUse" x1="12.3786" y1="111.3344" x2="44.9437" y2="111.3344">
		<stop  offset="0" style="stop-color:#01629D"/>
		<stop  offset="1" style="stop-color:#3185C6"/>
	</linearGradient>
	<circle class="st6" cx="28.66" cy="111.33" r="16.28"/>
	<g id="Shop_1_">
		<path class="st3" d="M27.71,102.53h1.9v2.53h-1.9V102.53z"/>
		<path class="st3" d="M25.19,102.53h1.9v2.53h-1.9V102.53z"/>
		<path class="st3" d="M22.66,102.53h1.9v2.53h-1.9V102.53z"/>
		<path class="st3" d="M30.24,102.53h1.9v2.53h-1.9V102.53z"/>
		<path class="st3" d="M23.88,116.08l-2.46,2.46c-0.37,0.37-0.37,0.97,0,1.34c0,0,0,0,0,0c0.38,0.36,0.96,0.36,1.34,0l2.46-2.46
			L23.88,116.08z M22.09,119.65l-0.45-0.45l1.34-1.34l0.45,0.45L22.09,119.65z M23.43,117.42l0.45-0.45l0.45,0.45l-0.45,0.45
			L23.43,117.42z"/>
		<path class="st3" d="M28.35,115.16c1.22,0,2.21-0.99,2.21-2.21c0-1.22-0.99-2.21-2.21-2.21s-2.21,0.99-2.21,2.21
			C26.14,114.17,27.12,115.16,28.35,115.16z M28.35,111.37V112c-0.52,0-0.95,0.42-0.95,0.95h-0.63
			C26.77,112.08,27.47,111.37,28.35,111.37z"/>
		<path class="st3" d="M22.03,102.53h-0.54c-0.45,0-0.84,0.32-0.92,0.76l-0.42,1.77h1.89V102.53z"/>
		<path class="st3" d="M28.35,116.43c1.92,0,3.47-1.56,3.47-3.47s-1.56-3.47-3.47-3.47s-3.47,1.56-3.47,3.47
			C24.87,114.87,26.43,116.42,28.35,116.43z M28.35,110.11c1.57,0,2.84,1.27,2.84,2.84s-1.27,2.84-2.84,2.84
			c-1.57,0-2.84-1.27-2.84-2.84C25.5,111.38,26.78,110.11,28.35,110.11z"/>
		<path class="st3" d="M34.98,107.59c-0.23,0.31-0.56,0.52-0.94,0.59c-0.47,0.1-0.96-0.02-1.33-0.33c-0.1-0.08-0.18-0.17-0.26-0.27
			c-0.08,0.1-0.17,0.2-0.27,0.28c-0.28,0.23-0.64,0.35-1,0.35c-0.11,0-0.22-0.01-0.33-0.03c-0.38-0.08-0.71-0.29-0.94-0.6
			c-0.08,0.1-0.16,0.19-0.26,0.27c-0.37,0.3-0.86,0.42-1.33,0.32c-0.38-0.08-0.71-0.29-0.94-0.6c-0.08,0.1-0.16,0.19-0.26,0.27
			c-0.37,0.3-0.86,0.42-1.33,0.32c-0.37-0.07-0.71-0.29-0.94-0.59c-0.23,0.3-0.56,0.51-0.94,0.59c-0.47,0.1-0.96-0.02-1.33-0.33
			c-0.1-0.08-0.19-0.17-0.26-0.27c-0.3,0.4-0.77,0.63-1.26,0.63v9.77l2.57-2.57c0.12-0.12,0.32-0.12,0.45,0l0.22,0.22l0.53-0.53
			c-0.4-0.65-0.62-1.39-0.62-2.15c0-2.27,1.84-4.11,4.11-4.11s4.11,1.84,4.11,4.11c0,2.27-1.84,4.11-4.11,4.11
			c-0.76,0-1.51-0.21-2.15-0.62l-0.53,0.53l0.22,0.22c0.06,0.06,0.09,0.14,0.09,0.22c0,0.08-0.03,0.16-0.09,0.22l-0.68,0.68h11.03
			v-10.11h-0.01C35.74,108.21,35.28,107.98,34.98,107.59z M22.98,109.48h-0.63v0.63h-0.63v-0.95c0-0.17,0.14-0.32,0.32-0.32h0.95
			V109.48z M24.24,109.48h-0.63v-0.63h0.63V109.48z M33.72,117.69h-0.63v-0.63h0.63V117.69z M33.72,115.16h-0.63v-0.63h0.63V115.16z
			 M33.72,113.9h-0.63v-0.63h0.63V113.9z M33.72,112.63h-0.63V112h0.63V112.63z M33.72,111.37h-0.63v-0.63h0.63V111.37z
			 M33.72,110.11h-0.63v-0.63h0.63V110.11z M35.61,117.37c0,0.17-0.14,0.32-0.32,0.32h-0.95v-0.63h0.63v-0.63h0.63V117.37z
			 M35.61,115.16h-1.26v-0.63h1.26V115.16z M35.61,113.9h-1.26v-0.63h1.26V113.9z M35.61,112.63h-1.26V112h1.26V112.63z
			 M35.61,111.37h-1.26v-0.63h1.26V111.37z M35.61,110.11h-1.26v-0.63h1.26V110.11z"/>
		<path class="st3" d="M37.33,105.68H19.99l-0.18,0.77c-0.1,0.51,0.24,1.01,0.75,1.1c0.06,0.01,0.12,0.02,0.17,0.02h0.35
			c0.52,0,0.95-0.42,0.95-0.95c0-0.17,0.14-0.32,0.32-0.32s0.32,0.14,0.32,0.32c0,0.28,0.13,0.55,0.35,0.73
			c0.22,0.18,0.52,0.26,0.8,0.2c0.44-0.09,0.75-0.48,0.75-0.93c0-0.17,0.14-0.32,0.32-0.32c0.17,0,0.32,0.14,0.32,0.32
			c-0.01,0.45,0.3,0.84,0.75,0.94c0.51,0.11,1.02-0.22,1.13-0.73c0.01-0.07,0.02-0.13,0.02-0.2c0-0.17,0.14-0.32,0.32-0.32
			c0.17,0,0.32,0.14,0.32,0.32c-0.01,0.45,0.3,0.84,0.75,0.94c0.51,0.11,1.02-0.22,1.13-0.73c0.01-0.07,0.02-0.13,0.02-0.2
			c0-0.17,0.14-0.32,0.32-0.32c0.17,0,0.32,0.14,0.32,0.32c-0.01,0.45,0.3,0.84,0.75,0.94c0.51,0.11,1.02-0.22,1.13-0.73
			c0.01-0.07,0.02-0.13,0.02-0.2c0-0.17,0.14-0.32,0.32-0.32c0.17,0,0.32,0.14,0.32,0.32c0,0.28,0.13,0.55,0.35,0.73
			c0.22,0.18,0.52,0.26,0.8,0.2c0.44-0.09,0.75-0.48,0.75-0.93c0-0.17,0.14-0.32,0.32-0.32c0.17,0,0.32,0.14,0.32,0.32
			c0,0.52,0.42,0.95,0.94,0.95h0.35c0.52,0,0.94-0.43,0.94-0.95c0-0.06-0.01-0.13-0.02-0.19L37.33,105.68z"/>
		<path class="st3" d="M25.22,116.53l0.46-0.46c-0.16-0.14-0.31-0.29-0.45-0.45l-0.46,0.46L25.22,116.53z"/>
		<path class="st3" d="M36.76,103.3c-0.08-0.45-0.47-0.77-0.93-0.77H35.3v2.53h1.89L36.76,103.3z"/>
		<path class="st3" d="M32.77,102.53h1.9v2.53h-1.9V102.53z"/>
	</g>
</g>
<g>
	<linearGradient id="SVGID_6_" gradientUnits="userSpaceOnUse" x1="12.3786" y1="154.8504" x2="44.9437" y2="154.8504">
		<stop  offset="0" style="stop-color:#01629D"/>
		<stop  offset="1" style="stop-color:#3185C6"/>
	</linearGradient>
	<circle class="st7" cx="28.66" cy="154.85" r="16.28"/>
	<g>
		<g>
			<g>
				<path class="st3" d="M28.66,147.5c-2.1,0-3.81,1.71-3.81,3.81v1.85c0,2.1,1.71,3.81,3.81,3.81c1.46,0,2.72-0.82,3.36-2.03
					c-0.47,0.18-0.98,0.28-1.5,0.28h-1.11c-0.32,0-0.57-0.26-0.57-0.57c0-0.32,0.26-0.57,0.57-0.57h1.11c0.72,0,1.4-0.26,1.93-0.72
					c0-0.07,0.01-0.14,0.01-0.21v-1.85C32.47,149.21,30.76,147.5,28.66,147.5z"/>
			</g>
		</g>
		<g>
			<g>
				<path class="st3" d="M34.03,150.71h-0.07c-0.3-2.66-2.56-4.73-5.3-4.73s-5,2.07-5.3,4.73H23.3c-0.83,0-1.51,0.68-1.51,1.51
					s0.68,1.51,1.51,1.51h0.6c0.32,0,0.57-0.26,0.57-0.57v-1.85c0-2.31,1.88-4.19,4.19-4.19s4.19,1.88,4.19,4.19v1.66
					c-0.12,0.15-0.25,0.28-0.39,0.4c-0.03,0.57-0.19,1.1-0.44,1.58c0.65-0.25,1.23-0.67,1.68-1.21h0.32c0.83,0,1.51-0.68,1.51-1.51
					S34.86,150.71,34.03,150.71z"/>
			</g>
		</g>
		<g>
			<g>
				<path class="st3" d="M37.39,162.98l-1.71-5.31c-0.04-0.14-0.14-0.25-0.27-0.32l-2.62-1.45c-0.79,1.19-2.07,2.01-3.55,2.18v5.64
					h7.61C37.23,163.72,37.51,163.34,37.39,162.98z"/>
			</g>
		</g>
		<g>
			<g>
				<path class="st3" d="M24.54,155.9l-2.62,1.45c-0.13,0.07-0.22,0.19-0.27,0.32l-1.71,5.31c-0.12,0.37,0.16,0.75,0.54,0.75h7.61
					v-5.64C26.61,157.91,25.32,157.08,24.54,155.9z"/>
			</g>
		</g>
	</g>
</g>
<g>
	<linearGradient id="SVGID_7_" gradientUnits="userSpaceOnUse" x1="470.0778" y1="61.2336" x2="477.2269" y2="61.2336">
		<stop  offset="0" style="stop-color:#01629D"/>
		<stop  offset="1" style="stop-color:#3185C6"/>
	</linearGradient>
	<path class="st8" d="M473.65,64.33c1.97-0.02,3.56-1.61,3.57-3.58v-2.62h-7.15v2.62C470.09,62.72,471.69,64.31,473.65,64.33z"/>
	<linearGradient id="SVGID_8_" gradientUnits="userSpaceOnUse" x1="456.4552" y1="69.148" x2="474.6453" y2="69.148">
		<stop  offset="0" style="stop-color:#01629D"/>
		<stop  offset="1" style="stop-color:#3185C6"/>
	</linearGradient>
	<path class="st9" d="M457.49,65.24c-0.35,0-0.7-0.04-1.04-0.13v9.45c0,0.6,0.48,1.08,1.08,1.08h16.03c0.6,0,1.08-0.48,1.08-1.08
		v-9.44c-0.32,0.08-0.66,0.12-0.99,0.12c-1.74-0.01-3.31-1.02-4.05-2.59c-1.04,2.24-3.69,3.21-5.93,2.17
		c-0.94-0.44-1.7-1.19-2.15-2.12C460.77,64.24,459.21,65.23,457.49,65.24L457.49,65.24z"/>
	<linearGradient id="SVGID_9_" gradientUnits="userSpaceOnUse" x1="478.1367" y1="60.3887" x2="483.2928" y2="60.3887">
		<stop  offset="0" style="stop-color:#01629D"/>
		<stop  offset="1" style="stop-color:#3185C6"/>
	</linearGradient>
	<path class="st10" d="M478.14,60.1c0.01,1.41,1.16,2.55,2.58,2.54h0.04c1.41-0.01,2.55-1.16,2.54-2.58v-1.93h-5.16V60.1z"/>
	<linearGradient id="SVGID_10_" gradientUnits="userSpaceOnUse" x1="475.0583" y1="54.4964" x2="482.9311" y2="54.4964">
		<stop  offset="0" style="stop-color:#01629D"/>
		<stop  offset="1" style="stop-color:#3185C6"/>
	</linearGradient>
	<path class="st11" d="M482.93,57.23l-3.07-4.96c-0.19-0.31-0.53-0.5-0.9-0.5h-3.9l2.9,5.46L482.93,57.23z"/>
	<linearGradient id="SVGID_11_" gradientUnits="userSpaceOnUse" x1="450.9213" y1="72.0555" x2="480.1792" y2="72.0555">
		<stop  offset="0" style="stop-color:#01629D"/>
		<stop  offset="1" style="stop-color:#3185C6"/>
	</linearGradient>
	<path class="st12" d="M480.18,80.93V63.51c-0.91-0.14-1.73-0.63-2.27-1.37c-0.39,1.17-1.24,2.13-2.35,2.66v9.76
		c0,1.1-0.89,1.99-1.99,1.99h-16.03c-1.1,0-1.99-0.89-1.99-1.99v-9.78c-1.11-0.54-1.94-1.51-2.32-2.68
		c-0.55,0.76-1.38,1.27-2.3,1.41v17.42c0,0.6,0.48,1.08,1.08,1.08h27.1C479.7,82.01,480.18,81.52,480.18,80.93L480.18,80.93z"/>
	<linearGradient id="SVGID_12_" gradientUnits="userSpaceOnUse" x1="447.8075" y1="60.3887" x2="452.9635" y2="60.3887">
		<stop  offset="0" style="stop-color:#01629D"/>
		<stop  offset="1" style="stop-color:#3185C6"/>
	</linearGradient>
	<path class="st13" d="M450.37,62.64h0.05c1.41-0.01,2.55-1.16,2.54-2.58v-1.93h-5.16v1.96C447.82,61.5,448.96,62.64,450.37,62.64z"
		/>
	<linearGradient id="SVGID_13_" gradientUnits="userSpaceOnUse" x1="453.9166" y1="61.2413" x2="461.0657" y2="61.2413">
		<stop  offset="0" style="stop-color:#01629D"/>
		<stop  offset="1" style="stop-color:#3185C6"/>
	</linearGradient>
	<path class="st14" d="M453.92,60.76c-0.01,1.97,1.59,3.58,3.56,3.59c1.97,0.01,3.58-1.59,3.59-3.56c0-0.01,0-0.02,0-0.03v-2.62
		h-7.15V60.76z"/>
	<linearGradient id="SVGID_14_" gradientUnits="userSpaceOnUse" x1="468.2055" y1="54.4962" x2="476.9254" y2="54.4962">
		<stop  offset="0" style="stop-color:#01629D"/>
		<stop  offset="1" style="stop-color:#3185C6"/>
	</linearGradient>
	<path class="st15" d="M476.93,57.23l-2.9-5.46h-5.82l1.71,5.46H476.93z"/>
	<linearGradient id="SVGID_15_" gradientUnits="userSpaceOnUse" x1="448.2561" y1="54.4962" x2="456.6606" y2="54.4962">
		<stop  offset="0" style="stop-color:#01629D"/>
		<stop  offset="1" style="stop-color:#3185C6"/>
	</linearGradient>
	<path class="st16" d="M456.66,51.77h-3.82c-0.34,0-0.65,0.16-0.85,0.43l-3.73,5.03h4.91L456.66,51.77z"/>
	<linearGradient id="SVGID_16_" gradientUnits="userSpaceOnUse" x1="454.2492" y1="54.4962" x2="462.8947" y2="54.4962">
		<stop  offset="0" style="stop-color:#01629D"/>
		<stop  offset="1" style="stop-color:#3185C6"/>
	</linearGradient>
	<path class="st17" d="M461.19,57.23l1.71-5.46h-5.15l-3.49,5.46H461.19z"/>
	<linearGradient id="SVGID_17_" gradientUnits="userSpaceOnUse" x1="462.1397" y1="54.4962" x2="468.9606" y2="54.4962">
		<stop  offset="0" style="stop-color:#01629D"/>
		<stop  offset="1" style="stop-color:#3185C6"/>
	</linearGradient>
	<path class="st18" d="M468.96,57.23l-1.71-5.46h-3.4l-1.71,5.46H468.96z"/>
	<linearGradient id="SVGID_18_" gradientUnits="userSpaceOnUse" x1="461.9755" y1="61.2338" x2="469.1247" y2="61.2338">
		<stop  offset="0" style="stop-color:#01629D"/>
		<stop  offset="1" style="stop-color:#3185C6"/>
	</linearGradient>
	<path class="st19" d="M465.55,64.33c1.97-0.02,3.56-1.61,3.57-3.58v-2.62h-7.15v2.62C461.99,62.72,463.58,64.31,465.55,64.33
		L465.55,64.33z"/>
</g>
<g>
	<g>
		<g>
			<linearGradient id="SVGID_19_" gradientUnits="userSpaceOnUse" x1="471.3522" y1="113.2052" x2="480.213" y2="113.2052">
				<stop  offset="0" style="stop-color:#01629D"/>
				<stop  offset="1" style="stop-color:#3185C6"/>
			</linearGradient>
			<path class="st20" d="M477.66,111.55c-0.48-0.9-1.42-1.46-2.44-1.46h-3.87v5.18c0,0.58,0.51,1.04,1.08,1.04h7.78L477.66,111.55z"
				/>
		</g>
	</g>
	<g>
		<g>
			<linearGradient id="SVGID_20_" gradientUnits="userSpaceOnUse" x1="451.9673" y1="128.9886" x2="458.5901" y2="128.9886">
				<stop  offset="0" style="stop-color:#01629D"/>
				<stop  offset="1" style="stop-color:#3185C6"/>
			</linearGradient>
			<circle class="st21" cx="455.28" cy="128.99" r="3.31"/>
		</g>
	</g>
	<g>
		<g>
			<linearGradient id="SVGID_21_" gradientUnits="userSpaceOnUse" x1="470.6888" y1="128.9888" x2="477.3121" y2="128.9888">
				<stop  offset="0" style="stop-color:#01629D"/>
				<stop  offset="1" style="stop-color:#3185C6"/>
			</linearGradient>
			<path class="st22" d="M474,125.68c-1.83,0-3.31,1.48-3.31,3.31c0,1.83,1.48,3.31,3.31,3.31s3.31-1.48,3.31-3.31c0,0,0,0,0,0
				C477.31,127.16,475.83,125.68,474,125.68z"/>
		</g>
	</g>
	<g>
		<g>
			<linearGradient id="SVGID_22_" gradientUnits="userSpaceOnUse" x1="447.8075" y1="118.1241" x2="483.2928" y2="118.1241">
				<stop  offset="0" style="stop-color:#01629D"/>
				<stop  offset="1" style="stop-color:#3185C6"/>
			</linearGradient>
			<path class="st23" d="M482.7,119.84l-1.71-2.18h-8.55c-1.32,0-2.43-1.07-2.43-2.39v-6.37c0.01-0.54-0.41-0.98-0.95-1
				c-0.02,0-0.04,0-0.06,0h-20.12c-0.58,0-1.07,0.42-1.07,1v18.41c0,0.58,0.5,1.03,1.07,1.03h1.79c0.35-2.55,2.69-4.33,5.24-3.99
				c2.07,0.28,3.7,1.91,3.99,3.99h9.49c0.35-2.55,2.69-4.33,5.24-3.99c2.07,0.28,3.7,1.91,3.99,3.99h3.61
				c0.58,0,1.07-0.45,1.07-1.03v-5.77C483.29,120.93,483.08,120.33,482.7,119.84z"/>
		</g>
	</g>
</g>
<g>
	<linearGradient id="SVGID_23_" gradientUnits="userSpaceOnUse" x1="449.8596" y1="181.461" x2="465.8914" y2="181.461">
		<stop  offset="0" style="stop-color:#01629D"/>
		<stop  offset="1" style="stop-color:#3185C6"/>
	</linearGradient>
	<rect x="449.86" y="180.71" class="st24" width="16.03" height="1.49"/>
	<linearGradient id="SVGID_24_" gradientUnits="userSpaceOnUse" x1="466.1205" y1="181.461" x2="482.1523" y2="181.461">
		<stop  offset="0" style="stop-color:#01629D"/>
		<stop  offset="1" style="stop-color:#3185C6"/>
	</linearGradient>
	<rect x="466.12" y="180.71" class="st25" width="16.03" height="1.49"/>
	<g>
		<linearGradient id="SVGID_25_" gradientUnits="userSpaceOnUse" x1="458.7072" y1="175.233" x2="470.6231" y2="175.233">
			<stop  offset="0" style="stop-color:#01629D"/>
			<stop  offset="1" style="stop-color:#3185C6"/>
		</linearGradient>
		<rect x="458.71" y="171.15" class="st26" width="11.92" height="8.17"/>
		<linearGradient id="SVGID_26_" gradientUnits="userSpaceOnUse" x1="457.0144" y1="170.4036" x2="473.0462" y2="170.4036">
			<stop  offset="0" style="stop-color:#01629D"/>
			<stop  offset="1" style="stop-color:#3185C6"/>
		</linearGradient>
		<rect x="457.01" y="169.66" class="st27" width="16.03" height="1.49"/>
		<linearGradient id="SVGID_27_" gradientUnits="userSpaceOnUse" x1="451.5524" y1="186.2905" x2="463.4683" y2="186.2905">
			<stop  offset="0" style="stop-color:#01629D"/>
			<stop  offset="1" style="stop-color:#3185C6"/>
		</linearGradient>
		<rect x="451.55" y="182.21" class="st28" width="11.92" height="8.17"/>
		<linearGradient id="SVGID_28_" gradientUnits="userSpaceOnUse" x1="467.8133" y1="186.2905" x2="479.7292" y2="186.2905">
			<stop  offset="0" style="stop-color:#01629D"/>
			<stop  offset="1" style="stop-color:#3185C6"/>
		</linearGradient>
		<rect x="467.81" y="182.21" class="st29" width="11.92" height="8.17"/>
		<linearGradient id="SVGID_29_" gradientUnits="userSpaceOnUse" x1="447.8075" y1="190.7414" x2="483.2928" y2="190.7414">
			<stop  offset="0" style="stop-color:#01629D"/>
			<stop  offset="1" style="stop-color:#3185C6"/>
		</linearGradient>
		<rect x="447.81" y="190.3" class="st30" width="35.49" height="0.88"/>
	</g>
</g>
<g>
	<linearGradient id="SVGID_30_" gradientUnits="userSpaceOnUse" x1="458.7072" y1="8.484" x2="470.6231" y2="8.484">
		<stop  offset="0" style="stop-color:#01629D"/>
		<stop  offset="1" style="stop-color:#3185C6"/>
	</linearGradient>
	<rect x="458.71" y="4.4" class="st31" width="11.92" height="8.17"/>
	<linearGradient id="SVGID_31_" gradientUnits="userSpaceOnUse" x1="457.0144" y1="3.6545" x2="473.0462" y2="3.6545">
		<stop  offset="0" style="stop-color:#01629D"/>
		<stop  offset="1" style="stop-color:#3185C6"/>
	</linearGradient>
	<rect x="457.01" y="2.91" class="st32" width="16.03" height="1.49"/>
	<linearGradient id="SVGID_32_" gradientUnits="userSpaceOnUse" x1="451.5524" y1="19.5414" x2="463.4683" y2="19.5414">
		<stop  offset="0" style="stop-color:#01629D"/>
		<stop  offset="1" style="stop-color:#3185C6"/>
	</linearGradient>
	<rect x="451.55" y="15.46" class="st33" width="11.92" height="8.17"/>
	<linearGradient id="SVGID_33_" gradientUnits="userSpaceOnUse" x1="467.8133" y1="19.5414" x2="479.7292" y2="19.5414">
		<stop  offset="0" style="stop-color:#01629D"/>
		<stop  offset="1" style="stop-color:#3185C6"/>
	</linearGradient>
	<rect x="467.81" y="15.46" class="st34" width="11.92" height="8.17"/>
	<linearGradient id="SVGID_34_" gradientUnits="userSpaceOnUse" x1="447.8075" y1="23.9924" x2="483.2928" y2="23.9924">
		<stop  offset="0" style="stop-color:#01629D"/>
		<stop  offset="1" style="stop-color:#3185C6"/>
	</linearGradient>
	<rect x="447.81" y="23.55" class="st35" width="35.49" height="0.88"/>
</g>
<g>
	<text transform="matrix(1 0 0 1 225.9395 90.1424)"><tspan x="0" y="0" class="st36 st37 st38">Order</tspan><tspan x="-29.26" y="20.44" class="st36 st37 st38">Management</tspan></text>
</g>
<text transform="matrix(1 0 0 1 21.6865 47.3387)"><tspan x="0" y="0" class="st39 st40">W</tspan><tspan x="6.16" y="0" class="st39 st40">eb</tspan></text>
<g>
	<text transform="matrix(1 0 0 1 17.8462 91.118)" class="st39 st40">Mobile</text>
</g>
<g>
	<text transform="matrix(1 0 0 1 5.8882 134.4833)"><tspan x="0" y="0" class="st39 st40">Sto</tspan><tspan x="10.91" y="0" class="st39 st40">r</tspan><tspan x="13.28" y="0" class="st39 st40">e Network</tspan></text>
</g>
<text transform="matrix(1 0 0 1 442.7783 91.1913)"><tspan x="0" y="0" class="st39 st40">Sto</tspan><tspan x="10.91" y="0" class="st39 st40">r</tspan><tspan x="13.28" y="0" class="st39 st40">e Network</tspan></text>
<g>
	<text transform="matrix(1 0 0 1 0.8008 178.1014)"><tspan x="0" y="0" class="st39 st40">Customer Se</tspan><tspan x="41.06" y="0" class="st39 st40">r</tspan><tspan x="43.55" y="0" class="st39 st40">vice</tspan></text>
</g>
<text transform="matrix(1 0 0 1 420.3037 34.4252)"><tspan x="0" y="0" class="st39 st40">External </tspan><tspan x="27.84" y="0" class="st39 st40">F</tspan><tspan x="31.9" y="0" class="st39 st40">ulfillment Network</tspan></text>
<text transform="matrix(1 0 0 1 421.1426 201.1747)"><tspan x="0" y="0" class="st39 st40">Internal </tspan><tspan x="26.17" y="0" class="st39 st40">F</tspan><tspan x="30.22" y="0" class="st39 st40">ulfillment Network</tspan></text>
<text transform="matrix(1 0 0 1 436.958 144.41)"><tspan x="0" y="0" class="st39 st40">D</tspan><tspan x="4.67" y="0" class="st39 st40">r</tspan><tspan x="7.04" y="0" class="st39 st40">opship Network</tspan></text>
<line class="st41" x1="154.29" y1="113.58" x2="58.8" y2="113.58"/>
<polyline class="st41" points="58.8,25.94 87.95,25.94 137.59,113.9 "/>
<polyline class="st41" points="58.8,201.66 87.95,201.66 137.59,113.7 "/>
<polyline class="st41" points="434.62,191.01 405.47,191.01 355.83,103.05 "/>
<polyline class="st41" points="434.62,15.29 405.47,15.29 355.83,103.25 "/>
<line class="st41" x1="58.8" y1="66.33" x2="110.81" y2="66.33"/>
<line class="st41" x1="58.8" y1="151.49" x2="116.26" y2="151.49"/>
<path class="st41" d="M59.06,198.37"/>
<line class="st41" x1="375.44" y1="68.27" x2="432.49" y2="68.27"/>
<line class="st41" x1="372.05" y1="131.95" x2="433.55" y2="131.95"/>
<polygon class="st42" points="154.29,108.72 160.46,114.24 154.29,118.46 "/>
<polygon class="st43" points="340.63,107.93 334.45,102.4 340.63,98.18 "/>
<line class="st41" x1="355.83" y1="103.25" x2="339.24" y2="103.25"/>
</svg>
