<svg xmlns="http://www.w3.org/2000/svg" xmlns:xlink="http://www.w3.org/1999/xlink" viewBox="0 0 580.54 555.44"><defs><style>.cls-1{isolation:isolate;}.cls-2{fill:#a1a7ff;}.cls-3{fill:#262c66;}.cls-4{fill:url(#linear-gradient);}.cls-5{fill:#fa3e6a;}.cls-6{fill:#12348e;}.cls-7{fill:url(#linear-gradient-2);}.cls-8{fill:#d3e9ff;}.cls-9{fill:#ffb91f;}.cls-10{fill:#fff;}.cls-11{fill:#f88667;}.cls-12{fill:#ca0045;opacity:0.32;}.cls-12,.cls-26,.cls-28{mix-blend-mode:multiply;}.cls-13{fill:#110239;}.cls-14{fill:#e45940;}.cls-15{fill:#0400a3;}.cls-16{fill:#04006c;}.cls-17{fill:url(#linear-gradient-3);}.cls-18{fill:#060d24;}.cls-19{fill:url(#linear-gradient-4);}.cls-20{fill:#dbdbdb;}.cls-21{fill:#161415;}.cls-22{fill:#b3b2da;}.cls-23{fill:#696c95;}.cls-24{fill:url(#linear-gradient-5);}.cls-25,.cls-26{opacity:0.55;}.cls-25{mix-blend-mode:screen;}.cls-26{fill:#005b98;}.cls-27{fill:#455a94;}.cls-28{fill:#00a1cc;opacity:0.65;}</style><linearGradient id="linear-gradient" x1="504.28" y1="36.31" x2="580.54" y2="36.31" gradientUnits="userSpaceOnUse"><stop offset="0" stop-color="#c2ceff"/><stop offset="1" stop-color="#95aaff"/></linearGradient><linearGradient id="linear-gradient-2" x1="389.79" y1="157.15" x2="389.79" y2="271.72" xlink:href="#linear-gradient"/><linearGradient id="linear-gradient-3" x1="319.73" y1="361.48" x2="460.86" y2="361.48" xlink:href="#linear-gradient"/><linearGradient id="linear-gradient-4" x1="161.62" y1="264.57" x2="161.62" y2="438.98" xlink:href="#linear-gradient"/><linearGradient id="linear-gradient-5" x1="429.28" y1="411.89" x2="429.28" y2="509.29" xlink:href="#linear-gradient"/></defs><title>Our Solutions- Omnichannel Order Management</title><g class="cls-1"><g id="Layer_1" data-name="Layer 1"><rect class="cls-2" x="300.47" y="275.81" width="482.82" height="76.26" transform="translate(226.76 855.15) rotate(-89.88)"/><rect class="cls-3" x="300.47" y="309.53" width="482.82" height="8.84" transform="translate(226.76 855.15) rotate(-89.88)"/><rect class="cls-3" x="278.32" y="309.48" width="482.83" height="8.84" transform="translate(204.7 832.95) rotate(-89.88)"/><polyline class="cls-3" points="561.51 72.58 570.35 72.59 569.3 555.42 560.46 555.4"/><polygon class="cls-4" points="580.54 72.62 504.28 72.45 541.38 0 580.54 72.62"/><polygon class="cls-5" points="521.3 39.2 562.57 39.29 541.38 0 521.3 39.2"/><rect class="cls-6" x="348.8" y="148.69" width="81.14" height="134.73" rx="3.37"/><rect class="cls-7" x="355.02" y="154.26" width="69.55" height="118.05"/><path class="cls-2" d="M389.37,279.66a2.19,2.19,0,1,1,2.19-2.19A2.19,2.19,0,0,1,389.37,279.66Z"/><rect class="cls-2" x="357.7" y="158.23" width="3.41" height="2.76" rx="0.8"/><rect class="cls-2" x="367" y="158.23" width="3.41" height="2.76" rx="0.8"/><rect class="cls-2" x="411.94" y="158.23" width="3.41" height="2.76" rx="0.8"/><rect class="cls-2" x="401.51" y="158.23" width="3.41" height="2.76" rx="0.8"/><rect class="cls-2" x="418.47" y="158.23" width="3.41" height="2.76" rx="0.8"/><rect class="cls-2" x="360.1" y="236.9" width="58.54" height="13.66"/><rect class="cls-8" x="372.1" y="240.17" width="41.53" height="2.55"/><rect class="cls-8" x="372.1" y="244.83" width="32.63" height="2.55"/><path class="cls-8" d="M370,243.78A3.79,3.79,0,1,1,366.2,240,3.79,3.79,0,0,1,370,243.78Z"/><rect class="cls-2" x="360.1" y="217.05" width="58.54" height="13.66"/><rect class="cls-8" x="372.1" y="220.31" width="41.53" height="2.55"/><rect class="cls-8" x="372.1" y="224.98" width="32.63" height="2.55"/><circle class="cls-8" cx="366.2" cy="223.92" r="3.78"/><rect class="cls-2" x="360.1" y="197.2" width="58.54" height="13.66"/><rect class="cls-8" x="372.1" y="200.46" width="41.53" height="2.55"/><rect class="cls-8" x="372.1" y="205.12" width="32.63" height="2.55"/><circle class="cls-8" cx="366.2" cy="204.07" r="3.78"/><path class="cls-2" d="M415.43,188.47H363.14a3.57,3.57,0,0,1-3.57-3.57v-7.09a3.57,3.57,0,0,1,3.57-3.57h52.29a3.57,3.57,0,0,1,3.57,3.57v7.09A3.57,3.57,0,0,1,415.43,188.47Zm-52.29-13.18a2.51,2.51,0,0,0-2.51,2.52v7.09a2.51,2.51,0,0,0,2.51,2.52h52.29A2.52,2.52,0,0,0,418,184.9v-7.09a2.52,2.52,0,0,0-2.52-2.52Z"/><polygon class="cls-9" points="368.14 177.37 369.13 180.41 372.33 180.41 369.74 182.3 370.73 185.34 368.14 183.46 365.55 185.34 366.54 182.3 363.94 180.41 367.15 180.41 368.14 177.37"/><polygon class="cls-9" points="378.61 177.37 379.6 180.41 382.8 180.41 380.21 182.3 381.2 185.34 378.61 183.46 376.02 185.34 377.01 182.3 374.41 180.41 377.62 180.41 378.61 177.37"/><polygon class="cls-9" points="389.08 177.37 390.07 180.41 393.27 180.41 390.68 182.3 391.67 185.34 389.08 183.46 386.49 185.34 387.48 182.3 384.88 180.41 388.09 180.41 389.08 177.37"/><path class="cls-2" d="M401.69,185.29l-2.61-1.89-2.61,1.89,1-3.07-2.62-1.89h3.23l1-3.08,1,3.08h3.23l-2.62,1.89Zm-5.54-4.54,1.81,1.31-.69,2.13,1.81-1.32,1.81,1.32-.69-2.13,1.81-1.31h-2.24l-.69-2.13-.69,2.13Z"/><path class="cls-2" d="M412.63,185.29,410,183.4l-2.61,1.89,1-3.07-2.62-1.89H409l1-3.08,1,3.08h3.23l-2.62,1.89Zm-5.54-4.54,1.81,1.31-.69,2.13,1.81-1.32,1.81,1.32-.69-2.13,1.81-1.31h-2.24l-.69-2.13-.69,2.13Z"/><rect class="cls-5" x="374.6" y="255.31" width="29.87" height="10.45" rx="5.17"/><path class="cls-10" d="M388,263a1.81,1.81,0,0,1-.61-.1,1,1,0,0,1-.41-.3,1.26,1.26,0,0,1-.22-.45,2.3,2.3,0,0,1-.07-.62v-1.64a2.25,2.25,0,0,1,.07-.62,1.18,1.18,0,0,1,.22-.45.88.88,0,0,1,.41-.29,1.59,1.59,0,0,1,.61-.1,1.29,1.29,0,0,1,1,.37,1.71,1.71,0,0,1,.3,1.09v1.64a1.71,1.71,0,0,1-.3,1.09A1.26,1.26,0,0,1,388,263Zm-.17-.69a.43.43,0,0,0,.17,0,.48.48,0,0,0,.18,0,.2.2,0,0,0,.11-.09.32.32,0,0,0,.07-.13.45.45,0,0,0,0-.16c0-.05,0-.11,0-.18v-2.08c0-.08,0-.14,0-.19a.4.4,0,0,0,0-.15.32.32,0,0,0-.07-.13s-.06-.06-.11-.09a.48.48,0,0,0-.18,0,.43.43,0,0,0-.17,0c-.05,0-.09.05-.11.09a.32.32,0,0,0-.07.13l0,.16V262l0,.16a.32.32,0,0,0,.07.13A.2.2,0,0,0,387.85,262.33Z"/><path class="cls-10" d="M389.93,263v-4.45h.91v1.86l.8-1.86h.88l-.83,2,.89,2.45h-.91l-.71-2-.12.21V263Z"/><path class="cls-11" d="M414.83,179.53s-.56,3.18-.53,3.07a9,9,0,0,0-2.14-.44,15.24,15.24,0,0,1-2.35.34,3.93,3.93,0,0,1-1.49-.39c-.26-.09-.75-.45-.42-.63s.72.18.93.22a4.12,4.12,0,0,0,.91-.11l-.83-.15A8.79,8.79,0,0,1,407,181c-.22-.13-.26-.52.24-.53a6,6,0,0,1,1.28.14c.11,0,1.08.13,1.08.13s-.84-.12-1.15-.19-1.27-.22-1.87-.34-.58-.74-.1-.81a12.61,12.61,0,0,1,1.91.35c.2,0,1.12.22,1.12.22s-1.1-.23-1.29-.3-1.38-.25-1.58-.55a.32.32,0,0,1,.3-.51,5.91,5.91,0,0,1,1.48.17,12.64,12.64,0,0,0,2.36.41c.31-.05.65-.16.57-.56l.32-1.11s.4.1.79,1A3.1,3.1,0,0,0,414.83,179.53Z"/><path class="cls-5" d="M450.26,183.94a5.09,5.09,0,0,0-5.37-3.85c-4.07.27-11.64.75-14,.72-3.22,0-16.7-1.47-16.7-1.47l-.64,3.62s15.16,3.86,17.73,3.86,16.17,1.7,18.31-.24A2.62,2.62,0,0,0,450.26,183.94Z"/><path class="cls-12" d="M450.26,183.94a5.09,5.09,0,0,0-5.37-3.85c-4.07.27-11.64.75-14,.72-3.22,0-16.7-1.47-16.7-1.47l-.64,3.62s15.16,3.86,17.73,3.86,16.17,1.7,18.31-.24A2.62,2.62,0,0,0,450.26,183.94Z"/><polygon class="cls-13" points="459.66 219.15 458.85 216.72 422.54 216.72 423.31 219.15 459.66 219.15"/><polygon class="cls-13" points="463.98 232.1 463.16 229.64 426.65 229.64 427.43 232.1 463.98 232.1"/><polygon class="cls-13" points="454.2 206.21 453.39 203.78 417.07 203.78 417.85 206.21 454.2 206.21"/><polygon class="cls-13" points="468.34 245.18 467.51 242.7 430.81 242.7 431.6 245.18 468.34 245.18"/><polygon class="cls-13" points="472.75 258.4 471.91 255.9 435.01 255.9 435.81 258.4 472.75 258.4"/><polygon class="cls-13" points="477.2 271.77 476.36 269.24 439.26 269.24 440.07 271.77 477.2 271.77"/><polygon class="cls-13" points="481.71 285.29 480.86 282.72 443.55 282.72 444.37 285.29 481.71 285.29"/><path class="cls-13" d="M485.88,304.74h.17a1.67,1.67,0,0,0,1.59-2.21l-34.1-102.16a1.68,1.68,0,0,0-1.59-1.14H449.6l34.68,104.36A1.68,1.68,0,0,0,485.88,304.74Z"/><path class="cls-13" d="M448.94,304.74h.19a1.69,1.69,0,0,0,1.6-2.19L418.12,200.4a1.67,1.67,0,0,0-1.6-1.17h0a1.68,1.68,0,0,0-1.61,2.19l32.46,102.15A1.67,1.67,0,0,0,448.94,304.74Z"/><polygon class="cls-13" points="481.8 285.45 480.96 282.96 443.75 282.96 444.55 285.45 481.8 285.45"/><polygon class="cls-13" points="486.22 298.71 485.38 296.2 447.97 296.2 448.77 298.71 486.22 298.71"/><polygon class="cls-13" points="476.2 272.18 475.37 269.69 438.16 269.69 438.95 272.18 476.2 272.18"/><polygon class="cls-13" points="490.69 312.12 489.84 309.58 452.23 309.58 453.04 312.12 490.69 312.12"/><polygon class="cls-13" points="495.21 325.67 494.35 323.1 456.54 323.1 457.36 325.67 495.21 325.67"/><polygon class="cls-13" points="499.77 339.37 498.91 336.77 460.89 336.77 461.72 339.37 499.77 339.37"/><polygon class="cls-13" points="504.39 353.22 503.52 350.59 465.29 350.59 466.13 353.22 504.39 353.22"/><path class="cls-13" d="M508.66,373.15h.18a1.72,1.72,0,0,0,1.63-2.26l-35-104.68a1.72,1.72,0,0,0-1.63-1.18h-2.41L507,372A1.71,1.71,0,0,0,508.66,373.15Z"/><path class="cls-13" d="M470.81,373.15H471a1.71,1.71,0,0,0,1.64-2.24L439.23,266.23a1.73,1.73,0,0,0-1.64-1.2h0a1.72,1.72,0,0,0-1.64,2.24L469.17,372A1.72,1.72,0,0,0,470.81,373.15Z"/><path class="cls-11" d="M448.86,169.51c-.08.08-.14.17-.22.25a15.22,15.22,0,0,1-2.31,2c-.51.34-1.31.56-1.75.92a3.44,3.44,0,0,1-.55.39,42,42,0,0,1,.79,6.7s4.6-.33,6.28-2.19A46.32,46.32,0,0,1,448.86,169.51Z"/><path class="cls-14" d="M446.39,177.2a6.7,6.7,0,0,1,2.1-3.47,9.42,9.42,0,0,1,1.1-.81,23.65,23.65,0,0,1-.73-3.41c-.08.08-.14.17-.22.25a15.22,15.22,0,0,1-2.31,2c-.51.34-1.31.56-1.75.92a3.44,3.44,0,0,1-.55.39,42,42,0,0,1,.79,6.7,18,18,0,0,0,1.83-.26A3.51,3.51,0,0,1,446.39,177.2Z"/><path class="cls-13" d="M446.31,251.56s-.12,4.59-.84,5.21-9.84.9-10.62.07-.33-2.25,1.63-2.79,3.13,0,4.44-.56,1-2.62,1-2.62Z"/><path class="cls-13" d="M468.93,251.41s.7,4.46,0,5.12-10,1.38-10.8.58-.41-2.24,1.53-2.85,3.08-.25,4.41-.73c1.06-.39.35-2.51.35-2.51Z"/><path class="cls-15" d="M462.19,225.71a136.35,136.35,0,0,0-1.91-25.49,11.54,11.54,0,0,0-4.55.88c-2.78,1.26-5.58,2.48-8.38,3.7,2.27,4.7,7.24,20,7.84,23.24.75,4,9.09,24.36,9.09,24.36l5.05-.63C469.25,248.48,462.17,226.81,462.19,225.71Z"/><path class="cls-16" d="M451.83,202.91a46.26,46.26,0,0,1-4.51,1.83c2.23,4.61,6.3,17.36,7.21,20.75.71-2.14,4.14-7.31,5.45-13a30.3,30.3,0,0,0,.43-11.54v0A21.66,21.66,0,0,0,451.83,202.91Z"/><path class="cls-15" d="M455.6,202.22c-2,.66-5.55,1.61-8.25,2.58-1.88,4.76-7.45,16-7.73,21.07-.32,5.6,1.62,26.83,1.62,26.83H447s.54-23.93,1.35-25.47c2.67-5.07,5.62-9.08,7.29-12.24a39.17,39.17,0,0,0,4.26-11.17c.22-1.09,1.18-4.76-.68-5.9C457.7,198.35,457.25,201.66,455.6,202.22Z"/><path class="cls-5" d="M445.25,206a23.48,23.48,0,0,0,9.63,1.5c3.54-.34,5.37-.39,7.44-1.51,0,0-2.21-17.25-4.77-22.69s-6.74-6.48-6.74-6.48-3.31,1.92-6,1.88c0,0,.07,10.6.28,14.83S445.25,206,445.25,206Z"/><path class="cls-12" d="M445,191.93c0-.46,0-1,0-1.48v-.19c0-.5,0-1,0-1.54v-.27c0-.58,0-1.18,0-1.78v0a3.63,3.63,0,0,0,.65-.05,15,15,0,0,0,4.61-2.13,7.94,7.94,0,0,1,.77-.39c.29,2.26-.73,5-1.17,6.83-1.22,5-1.87,11.29-.83,16.1a25.57,25.57,0,0,1-3.68-1.06s0-8.24-.17-12.47c0-.37,0-.81-.05-1.28A2.44,2.44,0,0,1,445,191.93Z"/><path class="cls-11" d="M449.9,163.3s-3.06-3.36-5.51-2.45-3.94,1.8-4,2.87.2,3.89-.15,5.07-1.34,2.88-1.17,3.32,1.64.16,1.77.32,1.88,3.16,2.51,3.34,4.86-3.14,5.18-4.79S450.88,165.77,449.9,163.3Z"/><path class="cls-13" d="M444.9,165.21a6.72,6.72,0,0,0-.68.43c-.35.18-.72.32-1.07.5a4.74,4.74,0,0,1-2.22.66c-1.2,0-1.17-1.21-1.89-1.81-.36-.29-.87-.14-1.26-.47a2.69,2.69,0,0,1-.74-1.3c-.33-1.15.75-1.59,1.57-2.07s.83-1.15,1.09-2.07c.64-2.28,3.15-.14,4.45-.7.67-.29,1.26-1,2-.78a5,5,0,0,1,1.74,1c.56.41.89.07,1.55.12a3.56,3.56,0,0,1,1.49.56,3.91,3.91,0,0,1,1.83,2.74c.09.93-.48,1.63-.24,2.56a5.64,5.64,0,0,1,.35,2.43c-.23,1.13-1.35,1.61-1.93,2.51a3.45,3.45,0,0,1-2.53,1.7c-.31-.66-.6-1.85-.09-2.37a4.43,4.43,0,0,0,.78-.76,1.12,1.12,0,0,0-1.57-1.5c-.76.34-.47,2.61-1.43,2.52-.74-.07-.28-1.4-.21-1.83s-.15-1.84-.74-2.11A.37.37,0,0,0,444.9,165.21Z"/><path class="cls-11" d="M424,206a4.06,4.06,0,0,0-.68,0,2.74,2.74,0,0,1-1.48-.18,5.7,5.7,0,0,0-2.5-.6c-.42.07-2.93.66-2.32,1.69.09.13.4.35.48.32l1-.36a5.5,5.5,0,0,0-.67.28c-.1.07-.29.15-.35.25a.63.63,0,0,0,.29.75c.21.08.38-.14.56-.24h0c-.17.14-.55.23-.32.76s.45.22.7.16a1.53,1.53,0,0,0,.27-.11,5.06,5.06,0,0,0-.52.29c-.24.21.28.91.75.85.29,0,1-.45,1.12-.41a3.81,3.81,0,0,0,.59.07,3.42,3.42,0,0,0,1.69-.34c.24-.11.71-.29.94-.42a9.42,9.42,0,0,0,1.4-.95C424.56,207.07,423.94,206.89,424,206Z"/><path class="cls-5" d="M424.89,209.2l-2-4s10.07-6.44,13.75-10.15,7.65-11.27,10.46-11.74,5.63,1.07,4,5-9.85,9.09-11.53,10.8S426.54,208.28,424.89,209.2Z"/><polygon class="cls-9" points="413.42 174.57 411.48 178.06 414.2 180.99 410.28 180.22 408.34 183.72 407.86 179.75 403.93 178.99 407.56 177.3 407.07 173.33 409.8 176.26 413.42 174.57"/><rect class="cls-17" x="319.73" y="283.42" width="141.13" height="156.12"/><rect class="cls-5" x="319.73" y="283.42" width="141.13" height="12.22"/><rect class="cls-10" x="331.91" y="306.67" width="72.66" height="7.37"/><rect class="cls-10" x="331.91" y="320.84" width="72.66" height="7.37"/><rect class="cls-10" x="331.91" y="351.85" width="72.66" height="7.37"/><rect class="cls-10" x="331.91" y="366.03" width="72.66" height="7.37"/><rect class="cls-2" x="417.1" y="302.47" width="30.79" height="30.79"/><path class="cls-9" d="M431.83,319.28c-.34,0-4.9-10.55-5.91-10.22-1.42.48-3.5,1.07-3.6,2.69s7.82,15.52,9.14,15.52c2.79,0,14.47-15.43,13.52-17.18s-4-3-4.61-2.3C439.88,308.28,432.13,319.29,431.83,319.28Z"/><rect class="cls-2" x="417.1" y="346.82" width="30.79" height="30.79"/><path class="cls-9" d="M431.83,363.63c-.34,0-4.9-10.55-5.91-10.21-1.42.47-3.5,1.06-3.6,2.68s7.82,15.52,9.14,15.52c2.79,0,14.47-15.43,13.52-17.17s-4-3-4.61-2.31C439.88,352.63,432.13,363.64,431.83,363.63Z"/><rect class="cls-10" x="331.91" y="397.54" width="72.66" height="7.37"/><rect class="cls-10" x="331.91" y="411.71" width="72.66" height="7.37"/><rect class="cls-2" x="417.1" y="392.5" width="30.79" height="30.79"/><path class="cls-9" d="M431.83,409.31c-.34,0-4.9-10.55-5.91-10.21-1.42.47-3.5,1.07-3.6,2.68s7.82,15.52,9.14,15.52c2.79,0,14.47-15.42,13.52-17.17s-4-3-4.61-2.31C439.88,398.31,432.13,409.32,431.83,409.31Z"/><path class="cls-2" d="M494.28,417.28a1.29,1.29,0,0,0,.18-.35,19.74,19.74,0,0,0,.69-3.86A10.91,10.91,0,0,1,497,407.3a31,31,0,0,1,2.56-3.15c1.82-2.09,3.72-4.23,4.38-7.52.95-4.71.38-10.47-1.69-17.17a35.51,35.51,0,0,0-1.52-3.61c-.91-2-2.61-5.69-2.22-6.57a.87.87,0,0,0-.58-1.24,1.33,1.33,0,0,0-1.5.61c-.83,1.51.26,4.11,2.14,8.17a36.19,36.19,0,0,1,1.46,3.42c1.38,4.44,2.79,10.86,1.68,16.4-.54,2.77-2.08,4.51-3.88,6.53a36.76,36.76,0,0,0-2.75,3.41,12.75,12.75,0,0,0-2.2,6.68,18.49,18.49,0,0,1-.63,3.55.79.79,0,0,0,.81,1A1.53,1.53,0,0,0,494.28,417.28Z"/><path class="cls-2" d="M507.56,448.83a11.28,11.28,0,0,0,4,1.5,1.14,1.14,0,0,0,1.33-.88,1.1,1.1,0,0,0-.93-1.27c-7.41-1.29-12.31-13.18-12.93-19.45-.26-2.61.63-5.83,1.58-9.23,1.66-6,3.36-12.12-.86-16.57a1.23,1.23,0,0,0-1.67-.19,1,1,0,0,0-.05,1.53c3.36,3.53,1.8,9.11.28,14.56-1,3.59-2,7-1.67,10C497.16,434.5,500.89,444.8,507.56,448.83Z"/><polygon class="cls-6" points="191.22 508.53 132.02 508.53 136.89 437.16 186.36 437.16 191.22 508.53"/><path class="cls-18" d="M142.13,490.8c14.81-4.92,32.31-8.45,46.82-15.62l-2.59-38H136.89L133,493.76C136.08,492.77,139.13,491.79,142.13,490.8Z"/><path class="cls-6" d="M199,497.11a3.86,3.86,0,0,0-3.21-1.72H127.48a3.88,3.88,0,0,0-3.22,1.72l-8.94,13.34a3.87,3.87,0,0,0,3.21,6h86.18a3.88,3.88,0,0,0,3.22-6Z"/><rect class="cls-6" y="239.45" width="323.25" height="216.68" rx="16.66"/><rect class="cls-19" x="14.88" y="253.81" width="293.48" height="185.73"/><rect class="cls-6" x="84.66" y="273.77" width="141.73" height="101.52"/><rect class="cls-5" x="90.94" y="295.48" width="129.18" height="70.63"/><path class="cls-15" d="M212.79,345.73c-6.32,1.59-13.13,4.77-19.78,4.56A60.1,60.1,0,0,1,172.69,346c-10-3.82-15.73-5.17-25.92.37-11.32,6.14-21.5,10.65-34.24,6.46-7.69-2.53-12.68-7.55-21.4-7.78h-.19v21.05H220.12v-20A13.19,13.19,0,0,0,212.79,345.73Z"/><path class="cls-10" d="M97,321.72c1.07,2.26-.05,5.25.6,7.64,1.69,6.19,9.11.1,12.87.77,4.55.81,5.56,7.09,8.53,9.83,4.12,3.8,7.83-1.91,11-4,2.47-1.62,4.73-1.09,7.45-1.78,3.17-.8,5.82-3.32,8-5.63,3.52-3.7,5.76-6.7,11.32-6.59,2.66.05,5.33.72,8,1s5.95-.23,8.21,1.39c2.48,1.77,2.08,4.48,2.6,7.14,1.39,7.11,7.67,4.33,12.29,2.8,6.28-2.09,8.62,6.13,14.33,5.56,3.6-.36,3.55-3.22,4.77-5.75,1-2,3.49-4,5.71-2.36,1.67,1.25,1.4,3.3,4,3.37a5,5,0,0,0,.88-.08,3.78,3.78,0,0,0,2.47-1.88v-6.91h0c-.09-2.93,0-5.88,0-8.81V295.48H90.94V320C90.94,319.35,96.24,320.05,97,321.72Z"/><path class="cls-20" d="M179,354.81a1,1,0,0,0-.21.44C178.79,355.42,178.87,355.24,179,354.81Z"/><path class="cls-2" d="M123.13,310.46c9.07,8,16,35.58,28.85,30.41,7.24-2.93,32.55-30.43,40.41-31.2,6.54-.63,10.45,2,16.09,6a123.25,123.25,0,0,1,11.64,10.12V289.86H90.94v26.67C104.18,306.48,109.88,298.81,123.13,310.46Z"/><path class="cls-2" d="M162.33,316.51a8.15,8.15,0,1,1-8.15-8.14A8.15,8.15,0,0,1,162.33,316.51Z"/><path class="cls-10" d="M123,303.75c5.22,0,10.53.28,15.75,0,1.94-.1,6.32-.85,5.39-3.93-.86-2.81-5-1.23-5.76.81-.28-6.19-8.87-5.25-6.29-.05-1.08-1.1-3-3.05-4.75-2.43a1.94,1.94,0,0,0-.47,3.5c-.9-1-3.56-2.29-4.86-1.17A1.79,1.79,0,0,0,123,303.75Z"/><path class="cls-10" d="M190.26,303.16c4.38,0,8.82.23,13.18,0,1.63-.09,5.3-.72,4.51-3.3-.71-2.35-4.16-1-4.82.68-.23-5.18-7.42-4.39-5.26,0-.9-.92-2.49-2.55-4-2a1.62,1.62,0,0,0-.4,2.93c-.75-.88-3-1.92-4.07-1A1.5,1.5,0,0,0,190.26,303.16Z"/><path class="cls-10" d="M173.86,308.79c3.46,0,7,.18,10.42,0,1.29-.07,4.18-.57,3.56-2.6-.56-1.86-3.29-.82-3.8.53-.19-4.09-5.87-3.47-4.16,0-.72-.72-2-2-3.15-1.61a1.29,1.29,0,0,0-.31,2.32c-.59-.7-2.35-1.52-3.21-.77A1.18,1.18,0,0,0,173.86,308.79Z"/><path class="cls-2" d="M94.81,279.46a3,3,0,1,0,3,3A3,3,0,0,0,94.81,279.46Z"/><path class="cls-2" d="M104.77,279.46a3,3,0,1,0,3,3A3,3,0,0,0,104.77,279.46Z"/><path class="cls-2" d="M114.73,279.46a3,3,0,1,0,3,3A3,3,0,0,0,114.73,279.46Z"/><path class="cls-2" d="M217.16,279.46a3,3,0,1,0,3,3A3,3,0,0,0,217.16,279.46Z"/><path class="cls-11" d="M110.44,270.29c-.57-.24-2.63.54-3.85,1.33a15.36,15.36,0,0,1-3.39,1.25,12.29,12.29,0,0,1,.25,2s1.89-.33,2.09-.39c.64-.2,1.13-.7,1.87-.51a5.41,5.41,0,0,1,1,.5c.39.2,1.33,1.14,1.8,1,.7-.27-.44-1.08-.57-1.3s-.12-.95.4-.81c.71.18,1.92,1,2.68.68,1-.45-2-1.3-2.53-1.63.8.42,3.46,1.23,3.68.76.41-.89-2.4-1.36-3.18-1.75a3.86,3.86,0,0,0,2.22.48C113.9,271.51,111,270.53,110.44,270.29Z"/><path class="cls-5" d="M74.8,294a5.32,5.32,0,0,0,6.88-.3c3.16-2.84,9-8.11,11-9.58,2.66-2.05,14.62-9.54,14.62-9.54l-1.8-3.38s-14.9,6.59-17,8.25-14.34,9-14.84,12A2.75,2.75,0,0,0,74.8,294Z"/><path class="cls-12" d="M74.8,294a5.32,5.32,0,0,0,6.88-.3c3.16-2.84,9-8.11,11-9.58,2.66-2.05,14.62-9.54,14.62-9.54l-1.8-3.38s-14.9,6.59-17,8.25-14.34,9-14.84,12A2.75,2.75,0,0,0,74.8,294Z"/><polygon class="cls-13" points="65.71 331.05 66.55 328.52 104.37 328.52 103.56 331.05 65.71 331.05"/><polygon class="cls-13" points="61.22 344.53 62.07 341.98 100.08 341.98 99.27 344.53 61.22 344.53"/><polygon class="cls-13" points="71.4 317.57 72.24 315.04 110.05 315.04 109.25 317.57 71.4 317.57"/><polygon class="cls-13" points="56.67 358.16 57.53 355.57 95.75 355.57 94.93 358.16 56.67 358.16"/><polygon class="cls-13" points="52.08 371.93 52.95 369.32 91.38 369.32 90.54 371.93 52.08 371.93"/><polygon class="cls-13" points="47.44 385.85 48.32 383.21 86.95 383.21 86.11 385.85 47.44 385.85"/><polygon class="cls-13" points="42.75 399.92 43.64 397.25 82.48 397.25 81.63 399.92 42.75 399.92"/><polygon class="cls-13" points="38.67 413.97 39.56 411.3 78.41 411.3 77.56 413.97 38.67 413.97"/><polygon class="cls-13" points="34.6 428.01 35.49 425.34 74.33 425.34 73.48 428.01 34.6 428.01"/><polygon class="cls-13" points="30.53 442.05 31.42 439.38 70.26 439.38 69.41 442.05 30.53 442.05"/><path class="cls-13" d="M23.65,463.47h-.18a1.75,1.75,0,0,1-1.66-2.31L72.08,311.5a1.75,1.75,0,0,1,1.66-1.19h2.45l-50.88,152A1.76,1.76,0,0,1,23.65,463.47Z"/><path class="cls-13" d="M62.11,463.47h-.19a1.76,1.76,0,0,1-1.67-2.29L109,311.52a1.75,1.75,0,0,1,1.67-1.21h0a1.75,1.75,0,0,1,1.66,2.28L63.78,462.25A1.76,1.76,0,0,1,62.11,463.47Z"/><polygon class="cls-13" points="42.36 399.85 43.23 397.25 82.14 397.25 81.31 399.85 42.36 399.85"/><polygon class="cls-13" points="37.74 413.72 38.61 411.09 77.73 411.09 76.89 413.72 37.74 413.72"/><polygon class="cls-13" points="48.21 385.98 49.08 383.38 87.99 383.38 87.16 385.98 48.21 385.98"/><polygon class="cls-13" points="33.06 427.74 33.95 425.08 73.27 425.08 72.43 427.74 33.06 427.74"/><polygon class="cls-13" points="28.34 441.91 29.23 439.22 68.77 439.22 67.91 441.91 28.34 441.91"/><polygon class="cls-13" points="23.56 456.23 24.47 453.51 64.22 453.51 63.35 456.23 23.56 456.23"/><polygon class="cls-13" points="18.73 470.71 19.65 467.96 59.62 467.96 58.74 470.71 18.73 470.71"/><polygon class="cls-13" points="14.54 485.16 15.46 482.42 55.43 482.42 54.55 485.16 14.54 485.16"/><polygon class="cls-13" points="10.35 499.61 11.27 496.87 51.24 496.87 50.36 499.61 10.35 499.61"/><path class="cls-13" d="M5.47,517.08H5.28a1.8,1.8,0,0,1-1.7-2.38l45.34-135a1.8,1.8,0,0,1,1.71-1.23h2.51l-46,137.34A1.79,1.79,0,0,1,5.47,517.08Z"/><path class="cls-13" d="M45,517.08h-.2a1.8,1.8,0,0,1-1.71-2.35l43.74-135a1.8,1.8,0,0,1,1.71-1.26h0a1.81,1.81,0,0,1,1.72,2.35l-43.58,135A1.8,1.8,0,0,1,45,517.08Z"/><path class="cls-11" d="M77,279.37a2.61,2.61,0,0,0,.23.25,17,17,0,0,0,2.39,2.09c.54.35,1.37.58,1.83,1a5.34,5.34,0,0,0,.57.4,44.33,44.33,0,0,0-.82,7s-4.79-.34-6.54-2.27A48.6,48.6,0,0,0,77,279.37Z"/><path class="cls-14" d="M79.52,287.37a6.88,6.88,0,0,0-2.18-3.61,13,13,0,0,0-1.14-.85,26.14,26.14,0,0,0,.76-3.54,2.61,2.61,0,0,0,.23.25,17,17,0,0,0,2.39,2.09c.54.35,1.37.58,1.83,1a5.34,5.34,0,0,0,.57.4,44.33,44.33,0,0,0-.82,7s-.82-.06-1.91-.26A3.55,3.55,0,0,0,79.52,287.37Z"/><path class="cls-13" d="M79.61,364.81s.13,4.77.88,5.42,10.24.94,11.06.07.33-2.34-1.7-2.9c-2.19-.61-3.26,0-4.63-.59s-1-2.73-1-2.73Z"/><path class="cls-13" d="M56.06,364.64s-.74,4.65,0,5.33,10.39,1.45,11.24.61.43-2.33-1.59-3-3.2-.25-4.6-.76c-1.09-.4-.36-2.61-.36-2.61Z"/><path class="cls-15" d="M63.08,337.88a142.76,142.76,0,0,1,2-26.54,12.28,12.28,0,0,1,4.74.91c2.9,1.32,5.82,2.59,8.73,3.86C76.16,321,71,337,70.36,340.31c-.77,4.16-9.46,25.37-9.46,25.37L55.64,365C55.72,361.6,63.1,339,63.08,337.88Z"/><path class="cls-16" d="M73.86,314.14a47.68,47.68,0,0,0,4.7,1.91c-2.33,4.8-6.56,18.08-7.51,21.61-.74-2.23-4.31-7.61-5.68-13.5a31.54,31.54,0,0,1-.44-12v0A22.55,22.55,0,0,1,73.86,314.14Z"/><path class="cls-15" d="M69.93,313.42c2,.69,5.78,1.68,8.6,2.69,2,4.95,7.75,16.65,8,21.94.33,5.83-1.69,27.94-1.69,27.94h-6s-.56-24.92-1.4-26.52c-2.78-5.28-5.85-9.46-7.6-12.75a40.63,40.63,0,0,1-4.43-11.63c-.23-1.14-1.23-4.95.71-6.15C67.75,309.39,68.22,312.84,69.93,313.42Z"/><path class="cls-5" d="M80.72,317.31a24.45,24.45,0,0,1-10,1.56c-3.69-.35-5.59-.41-7.75-1.57,0,0,2.3-18,5-23.63s7-6.74,7-6.74,3.44,2,6.25,1.95c0,0-.07,11-.28,15.44S80.72,317.31,80.72,317.31Z"/><path class="cls-12" d="M81,302.71c0-.48,0-1,0-1.54,0-.07,0-.13,0-.2,0-.52,0-1.06,0-1.61a2.44,2.44,0,0,0,0-.27q0-.91,0-1.86v0a3.89,3.89,0,0,1-.68,0,15.76,15.76,0,0,1-4.8-2.22c-.26-.15-.53-.28-.8-.41-.3,2.36.76,5.24,1.22,7.11,1.26,5.19,2,11.76.86,16.77a25.87,25.87,0,0,0,3.84-1.1s0-8.58.18-13c0-.39,0-.84,0-1.33A2.72,2.72,0,0,1,81,302.71Z"/><path class="cls-11" d="M102.82,317.41a3.66,3.66,0,0,1,.71-.06,2.86,2.86,0,0,0,1.54-.19,6,6,0,0,1,2.6-.63c.44.08,3.06.69,2.41,1.76-.08.15-.4.37-.49.34l-1-.38a5.35,5.35,0,0,1,.7.3c.1.07.3.16.36.26a.65.65,0,0,1-.3.78c-.22.08-.4-.15-.59-.25h0c.19.14.58.24.34.79s-.46.23-.73.17l-.28-.11a5.44,5.44,0,0,1,.54.29c.25.22-.29.95-.78.89-.3,0-1-.47-1.17-.42a4.07,4.07,0,0,1-.61.07,3.6,3.6,0,0,1-1.76-.36c-.25-.11-.74-.3-1-.43a10,10,0,0,1-1.45-1C102.26,318.48,102.9,318.28,102.82,317.41Z"/><path class="cls-5" d="M101.91,320.69l2.12-4.18s-10.48-6.71-14.32-10.58-8-11.73-10.89-12.22-5.86,1.12-4.17,5.18,10.26,9.46,12,11.25S100.2,319.73,101.91,320.69Z"/><path class="cls-11" d="M75.52,271.2s7.73-.88,8.27.42.65,5,1.15,5.73,1.41,1.7,1.07,2.2-.71.38-.92.94-.14,3.72-1.16,4.19-6.23.2-8.12-2.77S71.78,271.48,75.52,271.2Z"/><path class="cls-21" d="M73.58,271.93l5.13,2.37A11.58,11.58,0,0,0,80,279.91s-.46.7-.94.3a1.84,1.84,0,0,1-.91-1.36c-.11-.74-.56-2.74-1.91-1.75s.08,2.15.76,2.44c0,0,1.09,3.9-1,3.62,0,0-1.9-1.21-3.55-5.89S72.3,271.05,73.58,271.93Z"/><path class="cls-21" d="M86,270.23s1.83,2.63-2.43,4.4-10.39-2.88-10.39-2.88.15-2.32,3.55-3.31c2.55-.74,4.93-.63,6.22.84C85.19,271.78,86,270.23,86,270.23Z"/><polygon class="cls-6" points="264.43 439.43 269.08 399.56 135.22 384.15 128.8 439.43 264.43 439.43"/><polygon class="cls-2" points="258.42 439.43 260.79 419.38 138.79 405.33 134.81 439.43 258.42 439.43"/><path class="cls-2" d="M144.18,390.62a2.82,2.82,0,1,0,2.48,3.12A2.81,2.81,0,0,0,144.18,390.62Z"/><path class="cls-2" d="M153.58,391.7a2.82,2.82,0,1,0,2.48,3.13A2.83,2.83,0,0,0,153.58,391.7Z"/><path class="cls-2" d="M163,392.79a2.82,2.82,0,1,0,2.48,3.12A2.81,2.81,0,0,0,163,392.79Z"/><path class="cls-11" d="M250.52,395.94c.56.29,1.29,2.36,1.47,3.8a15,15,0,0,0,1.22,3.4,13.6,13.6,0,0,0-1.69,1.1s-1-1.66-1-1.85c-.26-.62-.2-1.32-.82-1.76a5.15,5.15,0,0,0-1-.44c-.41-.16-1.74-.28-1.9-.75-.24-.71,1.11-.36,1.37-.4s.8-.53.36-.83c-.6-.42-2-.81-2.24-1.62-.28-1,2.29.72,2.87.9-.84-.35-3.17-1.87-2.95-2.33.41-.9,2.59,1,3.38,1.3a3.85,3.85,0,0,1-1.79-1.39C247.36,394.08,250,395.66,250.52,395.94Z"/><path class="cls-22" d="M279.38,431.36a5.69,5.69,0,0,0-1.56-7.2c-3.57-2.82-10.19-8.09-12.1-9.84-2.64-2.45-12.72-13.7-12.72-13.7l-3.23,2.5s9.65,14.53,11.78,16.46,12.11,13.49,15.33,13.48A2.92,2.92,0,0,0,279.38,431.36Z"/><path class="cls-23" d="M279.38,431.36a5.69,5.69,0,0,0-1.56-7.2c-3.57-2.82-10.19-8.09-12.1-9.84-2.64-2.45-12.72-13.7-12.72-13.7l-3.23,2.5s9.65,14.53,11.78,16.46,12.11,13.49,15.33,13.48A2.92,2.92,0,0,0,279.38,431.36Z"/><path class="cls-11" d="M276.83,417.37a3.08,3.08,0,0,1-.24.27,17.17,17.17,0,0,1-2.53,2.29c-.56.39-1.45.65-1.93,1.06a6.25,6.25,0,0,1-.61.44,48,48,0,0,1,1,7.45s5.12-.45,6.95-2.56A51.92,51.92,0,0,1,276.83,417.37Z"/><path class="cls-14" d="M274.23,426a7.45,7.45,0,0,1,2.27-3.91,11.8,11.8,0,0,1,1.21-.93,26.51,26.51,0,0,1-.88-3.78,3.08,3.08,0,0,1-.24.27,17.17,17.17,0,0,1-2.53,2.29c-.56.39-1.45.65-1.93,1.06a6.25,6.25,0,0,1-.61.44,48,48,0,0,1,1,7.45,19.84,19.84,0,0,0,2-.32A3.84,3.84,0,0,1,274.23,426Z"/><path class="cls-21" d="M266.7,511.38s.06,5.11-.71,5.84-10.92,1.45-11.83.55-.46-2.49,1.69-3.18c2.32-.74,3.49-.15,4.93-.82s1-3,1-3Z"/><path class="cls-21" d="M291.53,509.91s1.27,4.88.57,5.68-10.92,2.62-11.91,1.82-.7-2.43,1.38-3.33c2.23-1,3.45-.49,4.82-1.29s.67-3,.67-3Z"/><path class="cls-6" d="M291.65,480.38a152.41,152.41,0,0,0-.51-28.5,13.06,13.06,0,0,0-5.12.7c-3.18,1.23-6.38,2.41-9.57,3.59,2.24,5.37,6.8,22.76,7.27,26.37.57,4.49,2.94,29,2.94,29l5.77,0C292.55,507.91,291.56,481.6,291.65,480.38Z"/><path class="cls-16" d="M281.56,454.35a52.54,52.54,0,0,1-5.13,1.75c2.19,5.28,6.7,22.52,7.27,26.32.92-2.34,4.51-10.64,6.33-16.85a33.83,33.83,0,0,0,1.2-12.81v-.06A24.2,24.2,0,0,0,281.56,454.35Z"/><path class="cls-6" d="M285.8,453.82c-2.23.61-6.27,1.44-9.35,2.35-2.39,5.18-8.9,20.12-10.21,25.64-1.83,7.63-5.25,30.33-5.25,30.33l6.47,1.11s7.7-30.38,8.7-32c3.29-5.48,6.83-9.77,8.89-13.17,5-8.23,5.44-12.34,6.19-15.28C289.51,453.15,287.67,453.3,285.8,453.82Z"/><path class="cls-22" d="M273.53,458.06a45.39,45.39,0,0,0,10.53.2c3.94-.45,7.54-1.87,8.38-3.34,0,0-2.69-16.39-5.64-22.41s-7.65-7.09-7.65-7.09-3.65,2.21-6.66,2.22c0,0,.29,11.81.6,16.52S273.53,458.06,273.53,458.06Z"/><path class="cls-23" d="M278.26,441.2c.46-2,1.54-5.12,1.17-7.64-.29.15-.58.29-.85.45a16.62,16.62,0,0,1-5.1,2.47,4.4,4.4,0,0,1-.73.07c.1,2.87.22,5.78.34,7.61.31,4.72.44,13.9.44,13.9s1.46.23,3.62.35C275.88,453.06,277,446.79,278.26,441.2Z"/><path class="cls-11" d="M278.8,412.14s-2.33-4.51-5.23-4.23-4.76.8-5.12,1.94-.91,4.25-1.62,5.42-2.27,2.72-2.22,3.23,1.72.65,1.82.86,1.11,3.95,1.73,4.33,6.15-2,7-3.67S279.14,415.08,278.8,412.14Z"/><path class="cls-16" d="M272.86,412.67c-.71.62-2.55,1.37-5.68.05s-2-8.41,4.48-8.08,6.25,2.64,7.45,3.12a4.54,4.54,0,0,1,2.72,2.44c1,2.24,1.12,4.93-1.84,7.69s-5,2.39-5,2.39c-.15-.8-.11-2.16.59-2.58a4.53,4.53,0,0,0,1-.59,1.25,1.25,0,0,0-1.26-2.07c-.71.12-1,1.39-1.44,1.86s-.73.4-1,.31c-.47-.18-.84-1.61.15-3.14C273.7,413.08,273.57,412.05,272.86,412.67Z"/><path class="cls-11" d="M241.31,438.41a4.53,4.53,0,0,1-2.3-.62,3,3,0,0,0-1-.52,5.75,5.75,0,0,1-1.19-.49,2.41,2.41,0,0,0-1.21-.36c-.53.07-.12.61.2.93s1.89.59,1.94,1.12-1.8.1-2.16,0c-.87-.21-1.06-.85-1.67-1.38-.35-.31-.61-.35-.66.2,0,.4.3.73.56,1a4.81,4.81,0,0,0,2,1.28,5.69,5.69,0,0,1-2-1c-.33-.26-1.55-1.6-2-1.11-.91,1,2.63,3,3.38,3.09a6.57,6.57,0,0,1-2-.88c-.38-.21-1.26-.76-1.22,0,.07,1.16,2.44,1.48,3.47,1.82a7.47,7.47,0,0,1-2.07-.42c-.91-.22-.76.52.13.92a11,11,0,0,0,1.35.41,7.18,7.18,0,0,0,4.6-.36c.62-.21,2,.06,2.25-.43C242.25,440.7,241.54,439.31,241.31,438.41Z"/><path class="cls-22" d="M239.76,442.43v-4.66s13.82-1.65,19.66-3.18,14.26-6.72,17.33-5.54,5,4.38,1.06,7.32-15.15,3.24-17.84,4S241.94,442.48,239.76,442.43Z"/><rect class="cls-6" x="351.42" y="407.38" width="163.19" height="109.42" rx="3.79"/><rect class="cls-24" x="358.94" y="414.62" width="140.69" height="93.79"/><path class="cls-2" d="M509.54,462.09a2.95,2.95,0,1,1-3-2.95A2.95,2.95,0,0,1,509.54,462.09Z"/><path class="cls-6" d="M485.38,466.63a15.38,15.38,0,0,1-6.08-2.27c-2-1.29-4-2.66-6.05-3.95a24.59,24.59,0,0,0-3.43-1.92,10.47,10.47,0,0,0-1.65-.5,11.3,11.3,0,0,0-1.16-.22c-2.08-.28-3.68,1.23-5,2.62-1,1.05-2.21,2.53-3.84,2.2a5.17,5.17,0,0,1-2.65-1.89c-1.41-1.62-1-4.92-2.37-6.18-2.26-2-3.6.23-5.82.65-5.49,1.05-6.33-4.94-7.67-9.23-1-3.09-1.95-4.51-3.47-5.52a8.6,8.6,0,0,0-9.47,0c-1.52,1-2.5,2.43-3.47,5.52-1.33,4.29-2.17,10.28-7.66,9.23-2.23-.42-3.57-2.68-5.83-.65-1.41,1.26-1,4.56-2.37,6.18a5.13,5.13,0,0,1-2.65,1.89c-1.62.33-2.85-1.15-3.84-2.2-1.3-1.39-2.89-2.9-5-2.62a11.3,11.3,0,0,0-1.16.22,10.35,10.35,0,0,0-1.64.5,23.5,23.5,0,0,0-3.43,1.92c-2,1.29-4,2.66-6.06,3.95a15.26,15.26,0,0,1-6.08,2.27,72.65,72.65,0,0,1-10.87-.26c8.53,2.35,25.1,10.59,33.2,9.38,6.78-1,10.81-3.43,16.43,2.36,2,2,4.24,5.45,6.44,7.13a14.93,14.93,0,0,0,17.41,0c2.21-1.68,4.47-5.1,6.44-7.13,5.63-5.79,9.65-3.37,16.44-2.36,8.1,1.21,24.67-7,33.19-9.38A72.65,72.65,0,0,1,485.38,466.63Z"/><g class="cls-25"><path class="cls-2" d="M368.26,470.23a.31.31,0,0,1-.31-.31V454.25a.31.31,0,0,1,.31-.31.3.3,0,0,1,.3.31v15.67A.3.3,0,0,1,368.26,470.23Z"/><path class="cls-2" d="M377.26,475a.29.29,0,0,1-.3-.3V449.42a.3.3,0,0,1,.3-.31.31.31,0,0,1,.31.31v25.25A.3.3,0,0,1,377.26,475Z"/><path class="cls-2" d="M386.27,484.43a.31.31,0,0,1-.31-.31V440.05a.3.3,0,0,1,.31-.3.29.29,0,0,1,.3.3v44.07A.3.3,0,0,1,386.27,484.43Z"/><path class="cls-2" d="M395.28,476.08a.31.31,0,0,1-.31-.31V448.4a.31.31,0,0,1,.61,0v27.37A.31.31,0,0,1,395.28,476.08Z"/><path class="cls-2" d="M404.28,470.23a.3.3,0,0,1-.3-.31V454.25a.3.3,0,0,1,.3-.31.31.31,0,0,1,.31.31v15.67A.31.31,0,0,1,404.28,470.23Z"/><path class="cls-2" d="M413.29,474.63a.3.3,0,0,1-.31-.3V449.84a.31.31,0,0,1,.31-.3.3.3,0,0,1,.3.3v24.49A.29.29,0,0,1,413.29,474.63Z"/><path class="cls-2" d="M422.3,481.27A.31.31,0,0,1,422,481V443.21a.31.31,0,0,1,.61,0V481A.31.31,0,0,1,422.3,481.27Z"/><path class="cls-2" d="M431.3,491.75a.3.3,0,0,1-.3-.3V432.73a.3.3,0,0,1,.3-.31.31.31,0,0,1,.31.31v58.72A.31.31,0,0,1,431.3,491.75Z"/><path class="cls-2" d="M440.31,481.27A.31.31,0,0,1,440,481V443.21a.3.3,0,0,1,.31-.3.29.29,0,0,1,.3.3V481A.3.3,0,0,1,440.31,481.27Z"/><path class="cls-2" d="M449.31,474.63a.3.3,0,0,1-.3-.3V449.84a.31.31,0,0,1,.61,0v24.49A.3.3,0,0,1,449.31,474.63Z"/><path class="cls-2" d="M458.32,476.08a.31.31,0,0,1-.31-.31V448.4a.31.31,0,0,1,.62,0v27.37A.31.31,0,0,1,458.32,476.08Z"/><path class="cls-2" d="M467.33,484.43a.31.31,0,0,1-.31-.31V440.05a.31.31,0,0,1,.61,0v44.07A.31.31,0,0,1,467.33,484.43Z"/><path class="cls-2" d="M476.33,475a.29.29,0,0,1-.3-.3V449.42a.3.3,0,0,1,.3-.31.31.31,0,0,1,.31.31v25.25A.3.3,0,0,1,476.33,475Z"/><path class="cls-2" d="M485.34,470.23a.31.31,0,0,1-.31-.31V454.25a.31.31,0,0,1,.62,0v15.67A.31.31,0,0,1,485.34,470.23Z"/></g><path class="cls-26" d="M444.91,465.81A13.61,13.61,0,1,1,431.3,452.2,13.61,13.61,0,0,1,444.91,465.81Z"/><path class="cls-2" d="M431.3,480a14.2,14.2,0,1,1,14.2-14.2A14.22,14.22,0,0,1,431.3,480Zm0-27.22a13,13,0,1,0,13,13A13,13,0,0,0,431.3,452.79Z"/><rect class="cls-2" x="429.39" y="458.39" width="3.81" height="11.17" rx="1.89"/><rect class="cls-2" x="429.04" y="472.41" width="4.52" height="0.82"/><rect class="cls-2" x="430.89" y="469.37" width="0.82" height="3.42"/><path class="cls-2" d="M434.2,466.78a4.17,4.17,0,0,1-.86,2.69,3.44,3.44,0,0,1-4.08,0,4.17,4.17,0,0,1-.86-2.69h-.94a5,5,0,0,0,1.12,3.34,3.24,3.24,0,0,0,2.47,1h.5a3.24,3.24,0,0,0,2.47-1,5.07,5.07,0,0,0,1.13-3.34Z"/><path class="cls-2" d="M472.81,425.09a1.08,1.08,0,1,1-1.08-1.08A1.08,1.08,0,0,1,472.81,425.09Z"/><path class="cls-2" d="M477.11,425.09A1.08,1.08,0,1,1,476,424,1.08,1.08,0,0,1,477.11,425.09Z"/><circle class="cls-2" cx="480.33" cy="425.09" r="1.08"/><path class="cls-2" d="M395.38,495.28a1.08,1.08,0,1,1-1.08-1.08A1.08,1.08,0,0,1,395.38,495.28Z"/><path class="cls-2" d="M399.68,495.28a1.08,1.08,0,1,1-1.08-1.08A1.08,1.08,0,0,1,399.68,495.28Z"/><path class="cls-2" d="M404,495.28a1.08,1.08,0,1,1-1.08-1.08A1.08,1.08,0,0,1,404,495.28Z"/><path class="cls-2" d="M577.52,415.16a5.8,5.8,0,0,1-2.85.46s.3.78,1.89.64C577.46,416.18,577.52,415.16,577.52,415.16Z"/><path class="cls-9" d="M229.53,206.27S232.79,218,234.4,220s6.84,4.75,6.84,4.75l-1.39,2.46s-9.52-4.85-11.17-8.82a30.56,30.56,0,0,1-1.93-6.09c-.26-1.45-1.33-5.07-.8-6.52C226.3,204.79,228.79,204.29,229.53,206.27Z"/><path class="cls-27" d="M229.53,206.27S232.79,218,234.4,220s6.84,4.75,6.84,4.75l-1.39,2.46s-9.52-4.85-11.17-8.82a30.56,30.56,0,0,1-1.93-6.09c-.26-1.45-1.33-5.07-.8-6.52C226.3,204.79,228.79,204.29,229.53,206.27Z"/><path class="cls-13" d="M262.2,262.39l2.4-2.25s9.61-.7,10.17.14-9.11,5.4-10.35,5.32S262.36,263.31,262.2,262.39Z"/><path class="cls-11" d="M244.59,229.88s9.08-2.31,9.83-.81,10.18,31.07,10.18,31.07l-2.4,2.25s-10.12-25-13-27.58S243.23,230.91,244.59,229.88Z"/><path class="cls-14" d="M244.59,229.88s9.08-2.31,9.83-.81,10.18,31.07,10.18,31.07l-2.4,2.25s-10.12-25-13-27.58S243.23,230.91,244.59,229.88Z"/><path class="cls-11" d="M239.9,224.44a8.59,8.59,0,0,0,1.89-.76,2.54,2.54,0,0,1,1.6-.46c.43.07,3.93,1.52,3,2.17-.31.21-1.06-.16-1.36-.27s-.86-.36-1.27-.54c.38,0,2.26.78,2.07,1.22-.35.78-2.26-.26-2.71-.51.34.05,1.52.5,1.52.93,0,.68-1.41.11-1.71-.05a2.36,2.36,0,0,0-.64-.31,2.55,2.55,0,0,0-.86.15,4.65,4.65,0,0,1-1.49,0c-.29,0-1,0-1.11-.21a1.07,1.07,0,0,1,.19-1.06A2,2,0,0,1,239.9,224.44Z"/><path class="cls-14" d="M239.9,224.44a8.59,8.59,0,0,0,1.89-.76,2.54,2.54,0,0,1,1.6-.46c.43.07,3.93,1.52,3,2.17-.31.21-1.06-.16-1.36-.27s-.86-.36-1.27-.54c.38,0,2.26.78,2.07,1.22-.35.78-2.26-.26-2.71-.51.34.05,1.52.5,1.52.93,0,.68-1.41.11-1.71-.05a2.36,2.36,0,0,0-.64-.31,2.55,2.55,0,0,0-.86.15,4.65,4.65,0,0,1-1.49,0c-.29,0-1,0-1.11-.21a1.07,1.07,0,0,1,.19-1.06A2,2,0,0,1,239.9,224.44Z"/><polygon class="cls-13" points="255.64 208.74 257.78 209.61 250.44 227.32 248.28 226.16 255.64 208.74"/><rect class="cls-13" x="235.08" y="225.85" width="13.98" height="2.17"/><path class="cls-13" d="M210.37,215.75c1.87-1.07,2.18-2.25,1.14-6.16a8.23,8.23,0,0,1,4.28-9c1.92-.79,3.6-1.13,4.76-3.18s-1-6.39,2.65-9.61c2.69-2.35,6.54-.47,6.54-.47.83-.46,1.17,4.37,1.23,8-4.67,7.15-3.34,16.49-1.64,24.49a4.12,4.12,0,0,0,.18.53c-.37,6.2-.67,11.32-.67,11.32s-11.22,6.36-18.86.92S206.62,217.89,210.37,215.75Z"/><path class="cls-13" d="M243.37,260.92l2.85,1.64s3.5,9,2.85,9.76S241.24,265.2,241,264,242.54,261.35,243.37,260.92Z"/><path class="cls-11" d="M239.74,229.35s18.31,1.29,20,2.93-13.83,30.11-13.83,30.11l-2.56-1.47s3.85-13.54,4.85-16.67,2.92-6.92,2.57-7.41-18.82,2.28-18.67-2.93S239.74,229.35,239.74,229.35Z"/><path class="cls-11" d="M230.71,198.46s-1.92,5.24-.75,9.14l-6.41-1.55s2.62-8.76,3.74-10.26S230.71,198.46,230.71,198.46Z"/><path class="cls-14" d="M228,203.17a3.2,3.2,0,0,0-3.29,3.17l-1.2-.29s2.62-8.76,3.74-10.26,3.42,2.67,3.42,2.67a21.83,21.83,0,0,0-1.08,5.09A3.28,3.28,0,0,0,228,203.17Z"/><path class="cls-11" d="M231.37,191.64s2.49,1.19,3.09,2.19.07,2.39.12,3.31a14.14,14.14,0,0,1,.17,2.51c-.14.22-1.06,0-1.21.19s-1.34.95-1.71,1.79-.87.92-1.73.5-4.19-4.81-4.23-6.87S228.91,190.79,231.37,191.64Z"/><path class="cls-13" d="M229.26,188.85a17.24,17.24,0,0,1,1.28,3.24,7.6,7.6,0,0,1-1.28,4c-.52.36-.08-3-1.4-2s.08,3,0,3.4a2.44,2.44,0,0,1-2.05,1.81c-1.36.12-3.6-6.66-2.12-8.34S227.7,188.85,229.26,188.85Z"/><path class="cls-13" d="M229,187.48a3.68,3.68,0,0,1,4.47.2c2.29,1.85,2.21,4.61,4.09,4.37,0,0-1.24,3.21-4,2.45S228.09,189.41,229,187.48Z"/><path class="cls-5" d="M221.57,223.72l8.49-.64s4.42,4.94,8.79,4.94h14.93s-.81,6.81-4.4,11.74c0,0-14.18.45-21.1-.12S214.8,231.44,221.57,223.72Z"/><path class="cls-12" d="M220.78,224.72c.24-.33.5-.66.79-1l8.49-.64s4.31,4.8,8.62,4.93C233.47,228.53,223.53,229.69,220.78,224.72Z"/><path class="cls-12" d="M249.84,229c-2.17-.21-4.27-.73-6.4-1h9.36C251.88,228.49,251.42,229.17,249.84,229Z"/><path class="cls-27" d="M224.36,203.09a35.86,35.86,0,0,0,5.22,1.68s2.75,6.06,3.82,7.7-2.71,7.91-2.92,10.61c0,0-2.27,2.17-9.15.84C221.33,223.92,219.53,206.91,224.36,203.09Z"/><path class="cls-28" d="M223.32,206.71a3.3,3.3,0,0,1,3.85,1.21c.72,1.48,0,4.11.07,5.71a30.44,30.44,0,0,0,.62,5.56,11.59,11.59,0,0,0,2.24,4.16c-.88.53-3.44,1.6-8.77.57,0,0-1.1-10.38.72-16.74A12.83,12.83,0,0,0,223.32,206.71Z"/><path class="cls-11" d="M238.57,224.44a8.72,8.72,0,0,0,1.88-.76,2.57,2.57,0,0,1,1.61-.46c.43.07,3.92,1.52,3,2.17-.3.21-1.05-.16-1.36-.27s-.86-.36-1.27-.54c.38,0,2.27.78,2.07,1.22-.35.78-2.26-.26-2.71-.51.34.05,1.53.5,1.52.93,0,.68-1.4.11-1.71-.05a2.23,2.23,0,0,0-.64-.31,2.45,2.45,0,0,0-.85.15,4.65,4.65,0,0,1-1.49,0c-.29,0-1,0-1.11-.21a1.07,1.07,0,0,1,.18-1.06A2,2,0,0,1,238.57,224.44Z"/><path class="cls-27" d="M239.15,224.35l-.75,2.81S220,225,219.59,221.76s.75-18.43,5.19-16.86.05,12.59.75,13.44S239.15,224.35,239.15,224.35Z"/></g></g></svg>