<svg id="Layer_1" data-name="Layer 1" xmlns="http://www.w3.org/2000/svg" xmlns:xlink="http://www.w3.org/1999/xlink" viewBox="0 0 557.23 397.19"><defs><style>.cls-1{fill:#262c66;}.cls-2{fill:#12348e;}.cls-3{fill:#285173;}.cls-4{fill:#1d3b54;}.cls-5{fill:#eea886;}.cls-6{fill:url(#linear-gradient);}.cls-7{fill:url(#linear-gradient-2);}.cls-8{fill:url(#linear-gradient-3);}.cls-9{fill:url(#linear-gradient-4);}.cls-10{fill:url(#linear-gradient-5);}.cls-11{fill:#eb4747;}.cls-12{fill:#fa3e6a;}.cls-13{fill:#eea987;}.cls-14{fill:#a77860;}.cls-15{fill:#4da8f2;}.cls-16{fill:#a1a7ff;}.cls-17{fill:#fff;}.cls-18{fill:#ffb91f;}.cls-19{fill:url(#linear-gradient-6);}.cls-20{fill:#e3f2ff;}.cls-21{opacity:0.58;}.cls-22{fill:#e0f1ff;}.cls-23{fill:url(#linear-gradient-7);}.cls-24{fill:url(#linear-gradient-8);}.cls-25{fill:#1a598c;}.cls-26{fill:#2273b5;}.cls-27{fill:url(#linear-gradient-9);}.cls-28{fill:url(#linear-gradient-10);}.cls-29{fill:#a9adba;}.cls-30{fill:#110239;}.cls-31{fill:#2a617d;}.cls-32{fill:#d4d8e8;}.cls-33{fill:url(#linear-gradient-11);}.cls-34{fill:url(#linear-gradient-12);}.cls-35{fill:#16202e;}.cls-36{fill:#d6c5be;}.cls-37{opacity:0.86;}.cls-38{fill:url(#linear-gradient-13);}.cls-39{fill:url(#linear-gradient-14);}.cls-40{fill:url(#linear-gradient-15);}.cls-41{fill:#73c0ff;}</style><linearGradient id="linear-gradient" x1="4.58" y1="245.33" x2="40.57" y2="245.33" gradientUnits="userSpaceOnUse"><stop offset="0" stop-color="#c2ceff"/><stop offset="1" stop-color="#95aaff"/></linearGradient><linearGradient id="linear-gradient-2" x1="27.28" y1="221.54" x2="30.02" y2="221.54" xlink:href="#linear-gradient"/><linearGradient id="linear-gradient-3" x1="15.7" y1="222.19" x2="27.4" y2="222.19" xlink:href="#linear-gradient"/><linearGradient id="linear-gradient-4" x1="27.75" y1="220.46" x2="33.33" y2="220.46" xlink:href="#linear-gradient"/><linearGradient id="linear-gradient-5" x1="16.04" y1="222.84" x2="25.26" y2="222.84" xlink:href="#linear-gradient"/><linearGradient id="linear-gradient-6" x1="369.22" y1="191.88" x2="490.51" y2="191.88" xlink:href="#linear-gradient"/><linearGradient id="linear-gradient-7" x1="132.38" y1="316" x2="237.15" y2="316" xlink:href="#linear-gradient"/><linearGradient id="linear-gradient-8" x1="124.26" y1="135.05" x2="229.03" y2="135.05" xlink:href="#linear-gradient"/><linearGradient id="linear-gradient-9" x1="23.97" y1="113.09" x2="46.53" y2="113.09" xlink:href="#linear-gradient"/><linearGradient id="linear-gradient-10" x1="23.97" y1="117.76" x2="33.54" y2="117.76" xlink:href="#linear-gradient"/><linearGradient id="linear-gradient-11" x1="124.08" y1="103.43" x2="229.03" y2="103.43" xlink:href="#linear-gradient"/><linearGradient id="linear-gradient-12" x1="305.77" y1="252.53" x2="344.02" y2="252.53" xlink:href="#linear-gradient"/><linearGradient id="linear-gradient-13" x1="463.43" y1="255.48" x2="502.06" y2="255.48" xlink:href="#linear-gradient"/><linearGradient id="linear-gradient-14" x1="441.25" y1="273.18" x2="461.18" y2="273.18" gradientTransform="translate(903.77 544.13) rotate(179.72)" xlink:href="#linear-gradient"/><linearGradient id="linear-gradient-15" x1="441.26" y1="267.11" x2="461.17" y2="267.11" xlink:href="#linear-gradient"/></defs><title>Our Capabilities</title><polygon class="cls-1" points="72.81 178.53 44.49 178.53 44.49 199.05 44.49 203.38 48.81 199.05 72.81 199.05 72.81 178.53"/><path class="cls-2" d="M30.62,186.61s6.92,3.39,5.21,12.61-2.47,10.46-.55,14.06,4.17,19,2.45,21.88-21.34-12.8-24.06-26,1.72-19,3.29-21.23S24.5,183.51,30.62,186.61Z"/><path class="cls-3" d="M32.54,219.89a9.6,9.6,0,0,1,5.5,3.63c1.38,2,1.49,6.53,1.69,7.38s2.83,10.44,2.83,10.44l-7.35,4.93Z"/><path class="cls-4" d="M59.67,384s4.79,6.46,4.14,7.48-5.7,1.17-8.77,0-3.14-8.73-4.53-12c-.58-1.36.66-5.38,2.41-5.67a7.35,7.35,0,0,1,3.65.57S54.76,379,59.67,384Z"/><path class="cls-5" d="M56.6,374.37A30.49,30.49,0,0,1,58,379.75c.31,2.17,3.42,6.79,3.27,7.38s-4.09,1.11-5.7-.4-2.64-5.88-3-8.5a20.58,20.58,0,0,0-.75-3.65S55.07,372.77,56.6,374.37Z"/><path class="cls-4" d="M18,384.14s4.62,6.35,4,7.37-5.7,1.17-8.77,0-3.14-8.73-4.53-12c-.58-1.36.66-5.38,2.41-5.67a7.85,7.85,0,0,1,3.8.63S13,379.11,18,384.14Z"/><path class="cls-5" d="M14.83,374.49a42.13,42.13,0,0,0,.95,5.11c.58,2.12,3.72,6.94,3.58,7.53s-4.09,1.11-5.7-.4-2.85-5.87-3-8.5a14,14,0,0,1,.36-4.37A3.57,3.57,0,0,1,14.83,374.49Z"/><path class="cls-5" d="M37.92,269.44s4.11,19.13,5,23.95,3.59,28.15,3.88,32.12,4.29,18.91,4.1,20.33,5.94,29.88,5.94,29.88a3.69,3.69,0,0,1-4.3.15c-1.13-.79-13.45-26.65-13.45-33.73,0-9.79-7.24-22.57-8.18-24.77-8.68-20.35-7-26.57-8.1-27.89s-1.23.81-1.9,3.74S18.89,321.46,18,324.68s-.19,14.07-.66,19.55-2.55,30.26-2.55,30.26-1.61,2.52-3.86.06c-.48-.52-3.89-27.6-4-34.12s-.2-15.5-.38-18.32c-1.75-27-6.05-30.87.72-50C20,236.34,37.92,269.44,37.92,269.44Z"/><path class="cls-2" d="M10.3,264.09s-11.72,16.4-6.68,51.29c0,0,27.8,3.78,42.69-4.38,0,0-6.16-36-8.39-41.56S10.3,264.09,10.3,264.09Z"/><polygon class="cls-4" points="50.38 378.96 50.38 385.72 51.26 385.72 51.26 380.5 50.38 378.96"/><polygon class="cls-4" points="8.49 378.96 8.49 385.72 9.37 385.72 9.37 380.5 8.49 378.96"/><path class="cls-6" d="M26,217.49a45.19,45.19,0,0,0,5.82,2.34c1.5.3,7.31,7.86,8.33,10.61s0,6.9-2.1,11.75S38,248.67,37,253.53a114.05,114.05,0,0,0-1.62,17.83c.18,2.7-24.25,3.21-29.82-1.71,0,0,5.6-8.39,6.32-9.59s.12-7.73-.54-9.41-5-16-5-16-3.59-11-.34-13.49c2.81-2.19,10.49-3,11.87-3.45A23.55,23.55,0,0,1,26,217.49Z"/><path class="cls-7" d="M27.4,227.12,30,224.05,27.75,216A53.12,53.12,0,0,0,27.4,227.12Z"/><path class="cls-5" d="M28.08,212.51s-.12,1.08-.25,2.58c-.07.66-.13,1.41-.19,2.18A49.48,49.48,0,0,0,27.4,223s-4.48,4.5-9.59-5.25a13.33,13.33,0,0,0,.53-9.48C16.73,202.81,28.08,212.51,28.08,212.51Z"/><polygon class="cls-5" points="27.4 223.01 27.4 227.12 22.24 223.26 27.4 223.01"/><polygon class="cls-8" points="27.4 227.12 25.26 224.46 18.04 217.27 15.7 219.52 27.4 227.12"/><path class="cls-2" d="M17,218s6.05,9.19,6.34,13.24-2.25,34.32-4.28,44.05-16.74-1.1-16.74-1.1,9.88-16,6.09-28.8-5.18-17.92-5.18-17.92,1.31-7.13,5.93-8.14C13.26,218.41,17,218,17,218Z"/><path class="cls-2" d="M40.57,231.67s1.09,3.87-3.16,12.42c0,0,.06,10.94.18,14.35s2.54,15.71,2.54,15.71l-5.82,3.1a1.19,1.19,0,0,1-1.78-1.17c1.2-9.83,5.07-47.14-3.31-57.17l3.37,1S38.56,224.79,40.57,231.67Z"/><polygon class="cls-9" points="30.02 224.04 33.33 224.96 27.75 215.96 30.02 224.04"/><polygon class="cls-10" points="25.26 224.46 22.24 228.42 16.04 218.09 18.04 217.27 25.26 224.46"/><rect class="cls-11" x="33.52" y="238.73" width="1.09" height="12.93" transform="translate(-144.69 73.95) rotate(-38.32)"/><path class="cls-5" d="M29.13,249.46a2.36,2.36,0,0,0,1.27-.37c.87-.65,1.19-2.27,2.72-2.15s2.25,4.93,1.86,5.84-2.51,1.37-5.66.74S29.13,249.46,29.13,249.46Z"/><path class="cls-5" d="M32.59,247a48.49,48.49,0,0,1,4.76-1.3c2.23-.49,4.9-.64,5.16-.26s-2.17.81-4.36,1.43c-2,.57-1.54.78-1.54.78s-.13-.06,2.17-.28c2.47-.23,5-.23,5.27.27.13.24,0,.4-.85.63.54,0,.61.11.63.33.11,1.11-3.5,2-4.94,2.35,1.11-.26,1.94-.34,1.54.4s-5.6,1.89-7.42,2.43C31,254.34,32.59,247,32.59,247Z"/><path class="cls-2" d="M10.06,219.46c-1.52-.49-6,1.09-6.73,5.66s-1.05,9.64-1.76,12.1-2.49,13.36-1,14.26S5,253.21,9,253.21s20.15.72,20.15.72l1-5.69s-6.09-.31-9.24-.79c-2.81-.43-6.7-1.62-11.28-2.12a75.22,75.22,0,0,1,1.68-8.66C12,234.76,16.89,221.67,10.06,219.46Z"/><polygon class="cls-5" points="39.36 248.68 40.12 250.51 38.51 249.36 39.36 248.68"/><polygon class="cls-12" points="30.54 258.22 46.68 255.02 58.65 229.41 41.42 231.22 30.54 258.22"/><path class="cls-5" d="M48.69,250.68a13.24,13.24,0,0,0,1.67-2c.79-1.15,3.37-5.55,3.13-5.82s-4.06-.37-4.76.26.69.87.69.87-2.1.21-2,.8,1.41.43,1.41.43-1.68.32-1.43.84,1.07.51,1.07.51-1.49.19-1.31.76,2.55,1.1,2.23,1.57A11.55,11.55,0,0,0,48.69,250.68Z"/><path class="cls-13" d="M29.61,187.63s10.06,3.16,4.6,20.52-19.2-2-17.76-12.59S29.61,187.63,29.61,187.63Z"/><path class="cls-2" d="M35.24,197.76a22.74,22.74,0,0,1-13.36,5.52s-3.22,3.77-3.46,5.25c0,0-7.47-12.72,1.71-20.35S38.61,194.62,35.24,197.76Z"/><path class="cls-13" d="M22,203.62c-.07-1.26-.85-4.14-2.72-3.33s.11,6.66,1.36,6.3C20.62,206.59,22.13,206.61,22,203.62Z"/><path class="cls-14" d="M27.83,215.09c-.07.66-.13,1.41-.19,2.18h0c-5.81-2.87-6.7-7-6.73-7.14C25.05,215.48,27.83,215.09,27.83,215.09Z"/><rect class="cls-1" x="211.38" y="62.75" width="1.37" height="163.39"/><rect class="cls-1" x="111.25" y="180.31" width="112.8" height="1.37"/><path class="cls-15" d="M492.78,309.41H271.32c-10.28,0-18.64-8.73-18.64-19.47V134c0-10.74,8.36-19.47,18.64-19.47H492.78c10.28,0,18.65,8.73,18.65,19.47V289.94C511.43,300.68,503.06,309.41,492.78,309.41ZM271.32,116.18c-9.37,0-17,8-17,17.83V289.94c0,9.83,7.63,17.83,17,17.83H492.78c9.38,0,17-8,17-17.83V134c0-9.83-7.63-17.83-17-17.83Z"/><path class="cls-2" d="M417.41,240h-1.66v-1.63c2.42,0,4.93,0,7.37-.05l0,1.63C421.26,240,419.33,240,417.41,240Zm-9.05-.14c-2.48-.07-5-.17-7.39-.31l.08-1.63c2.42.13,4.9.23,7.36.31Zm22.2-.15-.07-1.64c2.47-.11,4.94-.25,7.35-.42l.12,1.63C435.53,239.46,433,239.61,430.56,239.72Zm-37-.66c-4.64-.38-7.36-.73-7.38-.74l.21-1.62s2.71.36,7.31.73Zm51.76-.4-.16-1.63c2.46-.25,4.92-.53,7.31-.85l.21,1.63C450.3,238.13,447.82,238.41,445.34,238.66Zm14.7-1.93-.27-1.62c2.44-.4,4.88-.84,7.24-1.32l.32,1.61C465,235.88,462.5,236.32,460,236.73Zm14.51-2.93-.38-1.6c2.41-.58,4.79-1.21,7.1-1.87l.45,1.57C479.4,232.57,477,233.21,474.55,233.8Zm14.25-4.12-.53-1.55c2.35-.8,4.67-1.66,6.89-2.55l.61,1.52C493.52,228,491.17,228.87,488.8,229.68Zm13.79-5.54-.7-1.48c2.24-1,4.44-2.17,6.53-3.33l.79,1.44C507.09,221.94,504.86,223.08,502.59,224.14Zm13-7.2-.9-1.37c2.07-1.35,4.08-2.77,6-4.23l1,1.3C519.74,214.13,517.7,215.57,515.6,216.94Zm11.76-9.08-1.11-1.21c1.8-1.65,3.53-3.39,5.14-5.17l1.21,1.11C531,204.4,529.2,206.17,527.36,207.86Zm10-11-1.32-1c1.44-2,2.8-4,4-6.05l1.41.84C540.19,192.77,538.8,194.85,537.33,196.84ZM545,184.09l-1.48-.7c1-2.17,2-4.43,2.78-6.72l1.54.55C547,179.56,546,181.87,545,184.09Zm5-14-1.59-.41c.6-2.31,1.12-4.71,1.54-7.13l1.61.28C551.14,165.33,550.61,167.77,550,170.12Zm2.55-14.61-1.63-.16c.22-2.37.37-4.83.43-7.3l1.64,0C552.93,150.61,552.78,153.1,552.55,155.51Zm-1.23-14.78c-.09-2.38-.24-4.84-.46-7.31l1.63-.15c.23,2.5.38,5,.47,7.4ZM550,126.13c-.33-2.37-.73-4.8-1.19-7.24l1.61-.3c.46,2.46.87,4.92,1.2,7.31Zm-2.68-14.43c-.2-.89-.41-1.78-.62-2.67-.37-1.49-.76-3-1.18-4.42l1.57-.46c.43,1.46.83,3,1.2,4.5.22.89.43,1.79.63,2.68Zm-4.13-14c-.88-2.29-1.86-4.53-2.91-6.67l1.47-.72c1.07,2.18,2.07,4.47,3,6.8ZM39.55,87.62l-1.49-.68c1-2.26,2.1-4.51,3.17-6.68L42.7,81C41.64,83.14,40.57,85.37,39.55,87.62ZM536.77,84.7c-1.27-2.06-2.66-4.07-4.12-6l1.3-1a72,72,0,0,1,4.21,6.12ZM46.07,74.46l-1.44-.77c1.18-2.2,2.4-4.37,3.63-6.45l1.42.83C48.46,70.14,47.25,72.29,46.07,74.46ZM528,73.18a71.27,71.27,0,0,0-5.22-5.05l1.09-1.23c1.86,1.64,3.66,3.37,5.33,5.16Zm-10.9-9.6c-1.92-1.4-4-2.77-6.06-4l.85-1.4c2.14,1.31,4.22,2.69,6.18,4.12ZM53.52,61.82l-1.37-.89c1.34-2.09,2.74-4.15,4.14-6.14l1.34,1C56.24,57.7,54.86,59.75,53.52,61.82ZM504.61,56c-2.11-1.08-4.34-2.13-6.62-3.11l.65-1.51c2.31,1,4.57,2.06,6.72,3.16Zm-13.42-5.82c-2.24-.81-4.57-1.6-6.95-2.33l.48-1.57c2.41.75,4.77,1.54,7,2.37ZM62,49.86l-1.29-1c1.53-2,3.12-3.89,4.71-5.72l1.24,1.07C65.08,46,63.52,47.92,62,49.86ZM477.18,45.8c-2.3-.6-4.7-1.19-7.14-1.73l.35-1.6c2.47.55,4.89,1.13,7.2,1.74Zm-14.34-3.22c-2.34-.45-4.78-.87-7.25-1.27l.26-1.62c2.49.4,4.94.83,7.29,1.28Zm-14.53-2.37c-2.35-.32-4.81-.63-7.31-.93l.2-1.63c2.5.3,5,.61,7.33.94ZM71.6,38.79l-1.18-1.14c1.73-1.78,3.51-3.53,5.3-5.18l1.12,1.2C75.07,35.3,73.31,37,71.6,38.79Zm362.08-.31c-2.36-.23-4.83-.46-7.34-.68l.14-1.64c2.52.22,5,.45,7.36.69ZM419,37.2l-7.35-.51.1-1.64c2.55.17,5,.34,7.38.52Zm-14.71-1-7.35-.42.09-1.63,7.35.41Zm-14.71-.8-7-.36h-.35l.08-1.64.35,0,7,.35Zm-14.76-.75c-2.47-.12-4.93-.25-7.4-.39l.09-1.63,7.39.39ZM360,33.88l-7.37-.46.1-1.64c2.36.16,4.77.31,7.37.46Zm-14.74-1c-2.53-.19-5-.39-7.37-.59l.14-1.64c2.35.21,4.82.41,7.35.6Zm-14.73-1.28c-2.51-.25-5-.52-7.35-.8l.19-1.62c2.36.27,4.82.54,7.32.79Zm-14.69-1.73c-2.5-.34-5-.7-7.32-1.08l.26-1.62c2.35.38,4.8.74,7.28,1.08Zm-233.52-1-1-1.26c1.91-1.57,3.89-3.09,5.88-4.52l1,1.33C86.2,25.82,84.25,27.32,82.36,28.86Zm218.91-1.32c-2.47-.46-4.91-1-7.26-1.47l.36-1.6c2.32.51,4.75,1,7.2,1.46Zm-14.46-3.18-3.2-.86-3.93-1.08.44-1.58,3.93,1.08c1,.29,2.1.58,3.17.85Zm-14.24-3.89-7.12-1.93.43-1.58L273,18.89ZM94.23,20.32l-.87-1.39c2.09-1.31,4.25-2.56,6.41-3.74l.78,1.45C98.42,17.79,96.29,19,94.23,20.32Zm164.1-3.68-7.14-1.84.41-1.59c2.28.58,4.69,1.2,7.15,1.85ZM107.1,13.37l-.69-1.49c2.23-1,4.53-2,6.84-2.89l.59,1.53C111.56,11.39,109.29,12.35,107.1,13.37ZM244,13c-2.43-.6-4.84-1.17-7.16-1.71l.37-1.6c2.32.54,4.74,1.12,7.18,1.72ZM229.69,9.67c-2.44-.54-4.86-1.05-7.2-1.53l.33-1.61c2.35.48,4.78,1,7.23,1.54ZM120.74,8.09l-.49-1.56c2.32-.74,4.72-1.42,7.13-2l.4,1.59C125.41,6.69,123,7.36,120.74,8.09Zm94.52-1.36c-2.45-.45-4.88-.88-7.25-1.28l.27-1.61c2.37.39,4.82.82,7.28,1.28ZM134.93,4.48l-.31-1.61c2.39-.47,4.85-.89,7.32-1.24l.23,1.62C139.73,3.6,137.3,4,134.93,4.48Zm65.81-.15c-2.46-.36-4.91-.68-7.29-1l.19-1.63c2.39.28,4.86.61,7.33,1ZM186.13,2.6c-2.47-.23-4.93-.41-7.33-.56L178.9.4c2.41.15,4.89.34,7.38.57Zm-36.67-.21L149.3.76c2.42-.23,4.9-.41,7.4-.53l.08,1.63C154.31,2,151.85,2.16,149.46,2.39Zm22-.68c-1.85-.05-3.7-.07-5.51-.07h-1.83l0-1.64H166c1.82,0,3.69,0,5.56.08Z"/><path class="cls-12" d="M536.81,78.87a47.57,47.57,0,0,0-5.08-12.25l5.17-7.78-7.18-7.18-7.18-7.18-7.78,5.17a47.72,47.72,0,0,0-12.25-5.08l-1.84-9.15H480.36l-1.84,9.15a47.57,47.57,0,0,0-12.25,5.08l-7.79-5.17-7.17,7.18-7.18,7.18,5.17,7.78a47.22,47.22,0,0,0-5.08,12.25l-9.16,1.84V101l9.16,1.84a47.22,47.22,0,0,0,5.08,12.25l-5.17,7.78,7.18,7.18,7.17,7.18,7.79-5.17a47.57,47.57,0,0,0,12.25,5.08l1.84,9.15h20.31l1.84-9.15a47.72,47.72,0,0,0,12.25-5.08l7.78,5.17,7.18-7.18,7.18-7.18-5.17-7.78a47.57,47.57,0,0,0,5.08-12.25L546,101V80.71Zm-46.3,47.57a35.58,35.58,0,1,1,35.58-35.57A35.58,35.58,0,0,1,490.51,126.44Z"/><rect class="cls-16" x="221.37" y="95.26" width="269.15" height="193.24" rx="18.66"/><path class="cls-17" d="M346.19,144.06a55.21,55.21,0,1,0-104,37.18c.42,1.17.87,2.32,1.36,3.45a55.21,55.21,0,0,0,102.61-40.63Zm-38.05,57.57a41.32,41.32,0,0,1-51.89-22.46q-.56-1.26-1-2.58a41.39,41.39,0,1,1,52.91,25Z"/><path class="cls-2" d="M254.69,150.32,241.5,146.2a55.31,55.31,0,0,1,51.05-38.75l.42,13.81a41.51,41.51,0,0,0-38.28,29.06Z"/><path class="cls-12" d="M256.25,179.17l-12.67,5.52c-.49-1.13-.94-2.28-1.36-3.45a55,55,0,0,1-.72-35l13.19,4.12a41.24,41.24,0,0,0,.54,26.27Q255.7,177.91,256.25,179.17Z"/><path class="cls-18" d="M252.14,198.43a54.81,54.81,0,0,1-8.56-13.74l12.67-5.52a41.39,41.39,0,0,0,6.41,10.31Z"/><path class="cls-12" d="M255.57,277.82a28,28,0,0,0,23.94-50.58c-.57-.27-1.15-.52-1.72-.74a27.43,27.43,0,0,0-8-1.86,28,28,0,0,0-14.22,53.18Zm-7-34.26A21,21,0,0,1,275.22,233c.43.17.86.36,1.29.56a21,21,0,1,1-27.93,10Z"/><path class="cls-17" d="M286.12,242.8l6.2-3.26a28,28,0,0,1-4.41,32.18l-5.1-4.8a20.68,20.68,0,0,0,3.69-5.42A20.9,20.9,0,0,0,286.12,242.8Z"/><path class="cls-1" d="M275.22,233l2.57-6.51c.57.22,1.15.47,1.72.74a27.9,27.9,0,0,1,12.81,12.3l-6.2,3.26a20.85,20.85,0,0,0-9.61-9.23C276.08,233.37,275.65,233.18,275.22,233Z"/><path class="cls-1" d="M269.79,224.64a27.43,27.43,0,0,1,8,1.86L275.22,233a20.93,20.93,0,0,0-6-1.39Z"/><path class="cls-19" d="M490.51,113.92V269.84a18.65,18.65,0,0,1-18.66,18.66H369.22V95.26H471.85A18.65,18.65,0,0,1,490.51,113.92Z"/><rect class="cls-20" x="384.8" y="115.31" width="90.12" height="9.82" rx="1.26"/><rect class="cls-2" x="384.8" y="136.38" width="90.12" height="9.82" rx="1.26"/><rect class="cls-1" x="384.8" y="160.53" width="90.12" height="111.03" rx="5.47"/><g class="cls-21"><rect class="cls-22" x="378.94" y="155.81" width="32" height="82.29" rx="4.1"/></g><rect class="cls-1" x="170.53" y="86.34" width="205.68" height="1.37"/><path class="cls-1" d="M191.13,75a11,11,0,1,1,11-11A11,11,0,0,1,191.13,75Zm0-20.41A9.39,9.39,0,1,0,200.51,64,9.4,9.4,0,0,0,191.13,54.63Z"/><path class="cls-5" d="M161.58,200.67s10.3,1.84,10.39,10.56-7.89,21.35-13.07,20.41S147.81,226.11,148,220.8s1.67-12.27,4.06-16.1S158.7,200.48,161.58,200.67Z"/><path class="cls-2" d="M148.37,216.76s0,1.78,3.56,3.19,10-.56,11.69-.24,2.11-.46,2.11-.46l.12,1.74,1.38.94s1-4.63,3.88-5,5.34-13.71-7.21-16.22c0,0-9.29-2.52-11.68,2.19S147.92,213.44,148.37,216.76Z"/><rect class="cls-23" x="132.38" y="263.62" width="104.78" height="104.78" rx="8.05"/><rect class="cls-24" x="124.26" y="95.26" width="104.78" height="79.58" rx="10.5"/><path class="cls-20" d="M189.9,279h37.81a1.44,1.44,0,0,1,1.44,1.44v8.38a1.44,1.44,0,0,1-1.44,1.44H189.9a1.45,1.45,0,0,1-1.45-1.45v-8.38A1.45,1.45,0,0,1,189.9,279Z"/><rect class="cls-20" x="188.45" y="296.01" width="40.7" height="59.73" rx="3.79"/><path class="cls-20" d="M155.92,310.79a18.71,18.71,0,0,0,24.72-17.49c0-.43,0-.84,0-1.26a18.72,18.72,0,1,0-24.7,18.75Zm-8-17.92a14,14,0,0,1,27.23-4.61h0a13.82,13.82,0,0,1,.82,4c0,.31,0,.62,0,.94a14,14,0,1,1-28.07-.37Z"/><path class="cls-25" d="M173,301.65l3.71,2.87a18.71,18.71,0,0,1-20.81,6.27l1.5-4.44a14,14,0,0,0,15.6-4.7Z"/><path class="cls-26" d="M175.94,292.29l4.68-.25c0,.42,0,.83,0,1.26a18.67,18.67,0,0,1-3.92,11.22L173,301.65a13.94,13.94,0,0,0,2.94-8.41C176,292.92,176,292.61,175.94,292.29Z"/><path class="cls-26" d="M175.94,292.3a13.82,13.82,0,0,0-.82-4h0l4.41-1.6a18.78,18.78,0,0,1,1.09,5.38Z"/><path class="cls-15" d="M150.66,278.1a18.73,18.73,0,0,1,28.87,8.56l-4.41,1.61h0a14,14,0,0,0-21.71-6.36Z"/><polygon class="cls-27" points="23.97 130.72 46.53 95.46 35.07 100.66 23.97 130.72"/><polygon class="cls-28" points="23.97 130.72 25.34 109.47 33.54 104.8 23.97 130.72"/><polygon class="cls-2" points="41.34 103.57 44.16 107.28 23.97 130.72 41.34 103.57"/><path class="cls-5" d="M180.77,269a3.11,3.11,0,0,0,1.6-.73c1-1,1.1-3.21,3.15-3.36s3.92,6,3.59,7.31-3,2.3-7.3,2.09S180.77,269,180.77,269Z"/><path class="cls-5" d="M184.83,265a63.33,63.33,0,0,1,6-2.64c2.85-1.08,6.36-1.84,6.74-1.35.85,1.08-2.46,1.85-5.22,3.1-2.54,1.15-2.1,1-2.1,1s-.19-.06,2.79-.8c3.21-.79,6.56-1.28,7-.68.21.29.58,1.31-.76,1.27.7-.14.59-.25.66,0,.36,1.45-4.22,3.32-6,4.07,1.4-.56,2.48-.83,2.1.23s-7,3.58-9.28,4.65C184.22,275,184.83,265,184.83,265Z"/><path class="cls-18" d="M136.06,226.35a77.23,77.23,0,0,0-11,0c-4.55.46-10.82,4.18-14.62,5.25s-13,7.23-12.71,8.08a68.06,68.06,0,0,0,10.36,19C113.74,265.65,136.06,226.35,136.06,226.35Z"/><path class="cls-29" d="M122.18,230.39s-6.94,5.13-9.36,9.84a38.13,38.13,0,0,0-3.23,10.31Z"/><path class="cls-30" d="M127.43,383.33a17.14,17.14,0,0,0,3.13,2.67c1.15.55,14.83,2.91,15.76,4s.93,5.51-2.6,5.51-15.3-.06-17.28,0-10.35,1.74-11.21,0-.78-9.82.75-11.76S127.43,383.33,127.43,383.33Z"/><path class="cls-31" d="M127,380.87l.42,2.46s-3.65,1.67-11.45.44v-2.54Z"/><path class="cls-30" d="M43.9,376.52a13.56,13.56,0,0,0-2.29,4.09c-.48,1.48-2.78,8.36-1.79,10s8.79,1.92,12.69,1.3,12.39.68,13.25-1,1.37-4.11-1.17-5.06-8.36-3.42-9.42-6S43.9,376.52,43.9,376.52Z"/><path class="cls-2" d="M56.26,377.08l-1.09,2.79S44,379,43.9,376.52l3.53-5.14Z"/><path class="cls-5" d="M148,221.6s-6.23,5.29-8,4.86,6.11,11.2,6.11,11.2,7.5-7.39,9.19-7.62S148,221.6,148,221.6Z"/><path class="cls-18" d="M148.45,242.5c-2.12,1.28-2.48,1.69-2.23,7.76s2.77,11,2.95,12.63,3.56,18.26,4.49,19.19,12-1.24,14.27-1.93c3.37-1,17.59-5.86,17.59-5.86l-3.13-6.53s-18,4-18.53,2.6-2-13.19-2.48-15.75.36-6.58-2.69-12.65C156,236.52,148.45,242.5,148.45,242.5Z"/><path class="cls-2" d="M127.39,288.16s3.81,4,4.88,5.36c7.29,9,17.21,25.56,18.45,28.45s-6.13,23.32-9.16,30.46c-1.59,3.75-12.1,29.54-11.77,30.12s-11.12,1-16.23-1.68c0,0,7.36-21.81,8.91-26.09,2.34-6.45,10.46-24.33,10.7-26.07s-13.12-16-17.58-18.75S100.23,297.57,99,296.33s-8.25-4.54-7.59-10.82,5.32-11.22,5.32-11.22Z"/><path class="cls-2" d="M107.39,303.68l-1.68,4.4c-2.1,5.52-5.49,14.42-6.06,15.83-.82,2.06-5,11-6.93,12.71S58.13,377.49,58,377.82s-12.22-5.94-13-8.34c0,0,17.67-23,20.39-26.42s8.42-8.42,10.32-16.43,15.52-38.8,15.56-40c0,0,2.2-9.49,5.37-12.38s14.74.49,16.56,6.52S107.39,303.68,107.39,303.68Z"/><path class="cls-32" d="M139.46,226.41l2.63-1s6.65,1.53,10.49,6.85l-.33,1.59S142.11,231.61,139.46,226.41Z"/><path class="cls-29" d="M149.61,265.17a10.83,10.83,0,0,1-1.24,1.52l-.68.57h0l-.26-10s1.26,3.85,1.44,4.42S149.61,265.17,149.61,265.17Z"/><path class="cls-2" d="M107.39,303.68l-1.68,4.4c-2.22-2.55-7.28-12.21-7.28-12.21.33.24,1.39,1.23,1.63,1.45S107.39,303.68,107.39,303.68Z"/><path class="cls-5" d="M164.11,218.93c.23-.76-.34-3.65-2.18-2s-1.84,5.33-.8,5.63S163.51,220.85,164.11,218.93Z"/><path class="cls-2" d="M157.2,202.7s-8.93-6.36-9,15.31Z"/><path class="cls-18" d="M149.61,265.17a10.83,10.83,0,0,1-1.24,1.52l-.68.57h0a104.26,104.26,0,0,1-10.8,7.36c-2.89,1.57-8.37,14.79-8.37,14.79s-25.85-1.75-31.8-15.12c0,0,4.22-9.41,8-15s12.26-25.64,16.72-28.48,8.3-4.71,17.09-4.46,13.67,7.22,13.67,7.22,6.69,7.19,7.35,11C160.17,247.83,152.91,260.58,149.61,265.17Z"/><path class="cls-33" d="M229,105.76l-.18,5.83H124.08l.18-5.83a10.5,10.5,0,0,1,10.49-10.5h83.79A10.49,10.49,0,0,1,229,105.76Z"/><path class="cls-1" d="M157.12,168.14H136a5,5,0,0,1-4.94-4.94v-42a5,5,0,0,1,4.94-4.94h21.08a4.94,4.94,0,0,1,4.94,4.94v42A4.94,4.94,0,0,1,157.12,168.14ZM136,117.87a3.3,3.3,0,0,0-3.3,3.3v42a3.3,3.3,0,0,0,3.3,3.3h21.08a3.3,3.3,0,0,0,3.3-3.3v-42a3.3,3.3,0,0,0-3.3-3.3Z"/><rect class="cls-1" x="167.66" y="117.05" width="53.51" height="4.37" rx="0.56"/><rect class="cls-1" x="167.66" y="125.93" width="53.51" height="4.37" rx="0.56"/><rect class="cls-12" x="305.77" y="230.81" width="38.25" height="10.2" rx="1.31"/><rect class="cls-34" x="305.77" y="247.43" width="38.25" height="10.2" rx="1.31"/><rect class="cls-1" x="305.77" y="264.06" width="38.25" height="10.2" rx="1.31"/><path class="cls-20" d="M141,104.12a4.56,4.56,0,1,1-4.56-4.55A4.56,4.56,0,0,1,141,104.12Z"/><path class="cls-12" d="M483.52,261.52s18.51,6,22.79,4.92c2.26-.56,5.79-3.76,9.07-7.22.54-.57,1.08-1.15,1.6-1.72,3.62-4,6.58-7.78,6.58-7.78s9-10.5,1.77-15.19a9.58,9.58,0,0,0-5.57,2.87,36.84,36.84,0,0,0-5.28,8c-.63,1.37-9.43,14.07-9.89,14.36s-4.31-.73-7.39-1c-5-.41-12.56-3-12.56-3Z"/><path class="cls-35" d="M509,375.55s-2.36,4.22-3.76,5.07c-1.74,1.07-5.12,4.48-6.31,4.64s-5.42.91-4.6,3.31c.67,2,10.8,1.68,11.94.69s4.56-4.52,5.94-4.44.87,5.1.87,5.1h1.5s.52-4.88.58-5.72c.19-2.49-1.58-4.32-1.66-5.74s-.16-2.47-.16-2.47Z"/><path class="cls-5" d="M499.24,385.14s3.34,1.15,5.92-.32,7.5-3.72,9.24-3.74c0,0-.95-2.91-1-3.24s-.12-1.85-.12-1.85L509,375.3s-2.8,4.1-4,5.07A71.49,71.49,0,0,0,499.24,385.14Z"/><path class="cls-5" d="M549.69,379.52a17.75,17.75,0,0,1-.87,3.71c-.45.79-1.7,4.85-2.27,5.6s-1.82,6.44,0,7.12,6.1,1.82,7.54-.45a9.39,9.39,0,0,0,1.4-6.29c-.23-1.74-2-9.73-1.93-10.53S549.69,379.52,549.69,379.52Z"/><path class="cls-35" d="M547.28,387.26s-.2,4.41,3.13,4.41,4.81-4,4.81-4,1.14,2,0,6.17-5.87,3.34-6.93,3.18S542.21,395.53,547.28,387.26Z"/><path class="cls-2" d="M544.2,279s4.3,5.49,5.82,9.12,4.06,11.6,3.72,17.76-2.36,17.74-1.77,20.36,1.18,8,1.81,9.88,3.17,7.27,3.42,12.84-1.8,30-1.63,32.31-7.38.89-7.38.89-.19-22.05-1-25.85-1.86-16.72-2.62-17.65-2.89-10.73-3-12.33-9.17-28.34-9.67-32.9S520,279,520,279A39.55,39.55,0,0,1,544.2,279Z"/><path class="cls-2" d="M516.13,376.76c1.61-.25,5.9-25,5.4-29.35s-1-13.76.42-17.56c.94-2.5,6.83-15.21,10.79-24.14.56-1.26,1.08-2.44,1.54-3.51a39,39,0,0,0,2.11-5.38c.09-1.69,5.6-30.79-16.16-17.85a26.59,26.59,0,0,1-.47,3.15c-.26.84-6.09,22.38-6.68,30.66a164.29,164.29,0,0,1-2.36,17.07,36.19,36.19,0,0,0,.76,9.2c.5,1.52-3.3,35.85-3.55,36.69S514.53,377,516.13,376.76Z"/><path class="cls-17" d="M528.76,233a43.46,43.46,0,0,1-5.54,2.23c-1.43.28-7,7.48-8,10.11s0,6.58,2,11.21.12,6.18,1,10.81a108.47,108.47,0,0,1,1.54,17c-.17,2.57,23.13,3.06,28.45-1.62,0,0-5.35-8-6-9.15s-.11-7.38.51-9,5.09-14.83,5.09-14.83,3.16-10.84.07-13.24c-2.69-2.09-10-2.84-11.33-3.29A22.4,22.4,0,0,0,528.76,233Z"/><path class="cls-12" d="M527.44,242.17l-2.5-2.93,2.18-7.71A50.58,50.58,0,0,1,527.44,242.17Z"/><path class="cls-5" d="M526.8,228.24a98.85,98.85,0,0,1,.65,10s4.27,4.29,9.14-5a12.79,12.79,0,0,1-.5-9C537.63,219,526.8,228.24,526.8,228.24Z"/><polygon class="cls-5" points="527.45 238.26 527.44 242.17 532.37 238.5 527.45 238.26"/><polygon class="cls-36" points="527.44 242.17 529.49 239.64 536.38 232.78 538.61 234.93 527.44 242.17"/><path class="cls-12" d="M535.35,288.08c1.94,9.28,16-1.05,16-1.05s-9.1-15.28-5.48-27.49l.09-.29c.23-.77.46-1.5.69-2.2l.12-.38c.79-2.4,1.44-4.38,2-6h0c1.62-5,2.09-6.68,2.09-6.68s-.7-7.82-4.56-8.68-8-1.67-8-1.67-6.7,8.59-7,12.45S533.42,278.8,535.35,288.08Z"/><path class="cls-12" d="M514.69,247.12s-.43,5.32,3.22,12.31c0,0-.08,9.36-.19,12.62s-.89,15.58-.89,15.58l4,2.35a1.13,1.13,0,0,0,1.7-1.11c-1.13-9.38-4.82-45,3.17-54.52l-3.56,1.23S514.69,243.4,514.69,247.12Z"/><polygon class="cls-12" points="524.95 239.24 521.79 240.11 527.12 231.53 524.95 239.24"/><polygon class="cls-12" points="529.49 239.64 532.37 243.42 538.25 233.62 536.38 232.78 529.49 239.64"/><path class="cls-5" d="M529.78,203.87a10.24,10.24,0,0,0-11.19,8.86,23.92,23.92,0,0,0,.58,3.89c.44,1.72-1.32,6.65-.93,6.91a10.57,10.57,0,0,0,2,.66s1.5,5.54,3.42,5.59,9.24-1.11,13-7.74S542,205,529.78,203.87Z"/><path class="cls-2" d="M518.59,212.73s4.74,3.58,9.57,4.48,7.45,9.32,7.45,9.32,8.1-12.18,2.49-20S518,203.36,518.59,212.73Z"/><path class="cls-5" d="M530.19,217.09a1.5,1.5,0,0,1,2.67-1c1.49,1.36-.8,5.74-2.05,5.24S530.12,218.06,530.19,217.09Z"/><path class="cls-14" d="M526.79,229.34c.11.58.22,1.27.31,2a21,21,0,0,0,6.18-5.26A23.8,23.8,0,0,1,526.79,229.34Z"/><g class="cls-37"><path class="cls-22" d="M440.56,280.38l60.11.29a6,6,0,0,0,6-5.93l.2-40.11a6,6,0,0,0-5.93-6l-60.12-.3a6,6,0,0,0-6,5.93l-.2,40.12A6,6,0,0,0,440.56,280.38Z"/></g><path class="cls-38" d="M467.32,276.35l30.64.15a3.91,3.91,0,0,0,3.93-3.89l.17-34.07a3.92,3.92,0,0,0-3.89-3.93l-30.64-.15a3.91,3.91,0,0,0-3.93,3.89l-.17,34.07A3.91,3.91,0,0,0,467.32,276.35Z"/><rect class="cls-39" x="441.26" y="269.98" width="19.9" height="6.39" rx="0.73" transform="translate(901.07 548.59) rotate(-179.72)"/><path class="cls-40" d="M441.85,268l18.71.09a.59.59,0,0,0,.6-.59v-.7a.6.6,0,0,0-.6-.6l-18.71-.09a.59.59,0,0,0-.6.59v.7A.59.59,0,0,0,441.85,268Z"/><path class="cls-5" d="M509.08,263.84a2.29,2.29,0,0,1-1.26-.09c-.94-.44-1.55-1.88-2.95-1.47s-1.12,5-.58,5.8,2.61.78,5.42-.43S509.08,263.84,509.08,263.84Z"/><path class="cls-5" d="M505.37,262.21a45,45,0,0,0-4.68-.28c-2.18,0-4.69.37-4.85.79s2.18.31,4.34.46c2,.14,1.58.43,1.58.43s.11-.09-2.07.16c-2.35.27-4.72.78-4.86,1.29-.06.25.05.38.92.42-.5.08-.54.22-.52.43.12,1.06,3.65,1.17,5.06,1.21-1.08,0-1.87.07-1.36.68s5.59.65,7.39.8C508.28,268.75,505.37,262.21,505.37,262.21Z"/><path class="cls-2" d="M534.72,215.4c-1.48,3.37-.59,7,2,8.16s5.88-.67,7.36-4.05.59-7-2-8.16S536.2,212,534.72,215.4Z"/><path class="cls-12" d="M547,235.58s-3.84.71-5.73,3.67a41.64,41.64,0,0,0-4.21,8.62c-.38,1.47-7.57,14.88-8,15.24s-4.37.06-7.44.37c-5,.49-12.89-.68-12.89-.68l-.08,5.79s19.28,2.55,23.3.75c4.9-2.21,16.78-18.79,16.78-18.79S554.94,238.89,547,235.58Z"/><path class="cls-12" d="M539.23,262.69l7.51-6c.79-2.4,1.44-4.38,2-6C548.7,250.65,541.08,260.64,539.23,262.69Z"/><path class="cls-12" d="M515.38,259.22c.54-.57,1.08-1.15,1.6-1.72,0,0-2-5.42-2.17-7.71A33.41,33.41,0,0,0,515.38,259.22Z"/><path class="cls-41" d="M458.34,239.39a8.81,8.81,0,0,0-8.54-5.83,8.54,8.54,0,0,0-2.7.51,8.8,8.8,0,0,0-5.32,11.24c.07.19.14.37.22.55a8.79,8.79,0,0,0,16.34-6.47Zm-6.06,9.17a6.59,6.59,0,0,1-7.24-1.94,6.38,6.38,0,0,1-1-1.64c-.06-.13-.12-.27-.17-.41a6.59,6.59,0,1,1,8.43,4Z"/><path class="cls-41" d="M443.77,240.38l-2.1-.65a8.76,8.76,0,0,1,5.43-5.66,8.54,8.54,0,0,1,2.7-.51l.06,2.2a6.58,6.58,0,0,0-6.09,4.62Z"/><path class="cls-41" d="M444,245l-2,.88c-.08-.18-.15-.36-.22-.55a8.69,8.69,0,0,1-.11-5.58l2.1.65a6.55,6.55,0,0,0,.08,4.19C443.9,244.71,444,244.85,444,245Z"/><path class="cls-41" d="M443.36,248.05a8.76,8.76,0,0,1-1.36-2.19l2-.88a6.38,6.38,0,0,0,1,1.64Z"/><path class="cls-41" d="M448.44,254.82a3.61,3.61,0,0,0-6.85.14,3.53,3.53,0,0,0,.05,2.29,1.55,1.55,0,0,0,.08.23,3.62,3.62,0,0,0,6.72-2.66ZM446,258.59a2.71,2.71,0,0,1-3-.8,2.82,2.82,0,0,1-.42-.67l-.06-.17a2.67,2.67,0,0,1,0-1.72,2.72,2.72,0,0,1,1.67-1.74,2.77,2.77,0,0,1,.84-.16,2.71,2.71,0,0,1,1,5.26Z"/><path class="cls-41" d="M442.45,255.23l-.86-.27a3.61,3.61,0,0,1,3.34-2.53l0,.9a2.77,2.77,0,0,0-.84.16A2.72,2.72,0,0,0,442.45,255.23Z"/><path class="cls-41" d="M442.55,257.12l-.83.36a1.55,1.55,0,0,1-.08-.23,3.53,3.53,0,0,1-.05-2.29l.86.27a2.67,2.67,0,0,0,0,1.72Z"/><path class="cls-41" d="M442.29,258.38a3.62,3.62,0,0,1-.57-.9l.83-.36a2.82,2.82,0,0,0,.42.67Z"/><rect class="cls-1" x="168.9" y="143.84" width="6.38" height="23.47"/><rect class="cls-1" x="177.98" y="141.47" width="6.38" height="25.84"/><rect class="cls-1" x="187.19" y="146.39" width="6.38" height="20.93"/><rect class="cls-1" x="196.39" y="136.69" width="6.38" height="30.62"/><rect class="cls-1" x="206.05" y="139.74" width="6.38" height="27.57"/></svg>